<svg xmlns="http://www.w3.org/2000/svg" viewBox="0 0 461.68 72.55"><defs><style>.cls-1{fill:#121212;fill-rule:evenodd;}</style></defs><title>580HP</title><g id="Layer_2" data-name="Layer 2"><g id="Layer_1-2" data-name="Layer 1"><path class="cls-1" d="M57.25,23.63H20V17.31H80.7V.46H2.2V37.92H52.12q6.51.09,8.61,2.16c1.41,1.37,2.11,3.65,2.11,6.82a20.36,20.36,0,0,1-.32,3.94,5.5,5.5,0,0,1-1.33,2.66c-1.53,1.58-4.52,2.38-9,2.38H0V72.09H51.21a86.59,86.59,0,0,0,15.66-1.24Q73.56,69.62,77,66.69a20.34,20.34,0,0,0,3.57-5.09,23.77,23.77,0,0,0,2-5.63,41.32,41.32,0,0,0,.78-5.31c.12-1.65.18-3.45.18-5.41a36.93,36.93,0,0,0-1-9.48,14.21,14.21,0,0,0-3.85-6.59,18.1,18.1,0,0,0-8-4.13A52,52,0,0,0,57.25,23.63Z"/><path class="cls-1" d="M147.39,42.78a9.55,9.55,0,0,1,5.91,2.06,6.37,6.37,0,0,1,2.79,5,6.22,6.22,0,0,1-2.75,5.41,10.59,10.59,0,0,1-6.23,1.92H120.55a10.4,10.4,0,0,1-6.18-1.92,6.26,6.26,0,0,1-2.71-5.41,6.09,6.09,0,0,1,2.71-5,9.54,9.54,0,0,1,5.9-2.06ZM121.19,29.5a9.6,9.6,0,0,1-5.82-1.93,5.92,5.92,0,0,1-2.7-4.67,5.71,5.71,0,0,1,2.7-5.13,11.06,11.06,0,0,1,6.1-1.74h25.64a11.06,11.06,0,0,1,6.1,1.74,5.71,5.71,0,0,1,2.7,5.13,5.92,5.92,0,0,1-2.7,4.67,9.47,9.47,0,0,1-5.73,1.93H121.19Zm43.33,5.77a21.49,21.49,0,0,0,6.64-2.38A11.72,11.72,0,0,0,175,29.45a11.49,11.49,0,0,0,1.65-3.71,18.19,18.19,0,0,0,.41-3.94V20.52a48.06,48.06,0,0,0-.32-6,19,19,0,0,0-.87-3.93,10.56,10.56,0,0,0-1.24-2.43,24.51,24.51,0,0,0-2-2.34l-.09-.18a17.56,17.56,0,0,0-4.81-3.16,25.44,25.44,0,0,0-6.64-1.7,92.28,92.28,0,0,0-9.89-.68Q145.38,0,134.2,0T117.25.14a92.09,92.09,0,0,0-9.89.68,25.44,25.44,0,0,0-6.64,1.7,17.41,17.41,0,0,0-4.81,3.16,19.46,19.46,0,0,0-1.83,2.2,11.51,11.51,0,0,0-1.24,2.47,18.17,18.17,0,0,0-.92,4,49.83,49.83,0,0,0-.32,6.14A24.3,24.3,0,0,0,92,24.69a12.13,12.13,0,0,0,1.6,4.12,12.46,12.46,0,0,0,3.85,3.8,18.67,18.67,0,0,0,6.73,2.57c.37.18.55.39.55.64s-.18.3-.55.36a18.18,18.18,0,0,0-6.68,2.57,12.69,12.69,0,0,0-3.85,3.85A11.9,11.9,0,0,0,92,46.76a24.3,24.3,0,0,0-.37,4.17q0,4.13.19,6.64a20.55,20.55,0,0,0,.68,4.22,10.19,10.19,0,0,0,3.44,5.26,15.66,15.66,0,0,0,4.81,3.07,28.56,28.56,0,0,0,6.68,1.61,92.29,92.29,0,0,0,9.76.68q5.69.14,17.13.14t17.22-.14a94.78,94.78,0,0,0,9.71-.64,25.93,25.93,0,0,0,6.6-1.6,15.1,15.1,0,0,0,4.76-3.12,16.67,16.67,0,0,0,2.2-2.42,9.56,9.56,0,0,0,1.33-2.89,23.4,23.4,0,0,0,.73-4.3q.22-2.56.23-6.6a23.34,23.34,0,0,0-.37-4.17,12,12,0,0,0-1.65-4.17,12.32,12.32,0,0,0-3.84-3.8,18.78,18.78,0,0,0-6.69-2.52c-.49-.12-.73-.24-.73-.36s.1-.25.32-.37A1.23,1.23,0,0,1,164.52,35.27Z"/><path class="cls-1" d="M270.14,36.55c0-1.77-.06-4-.19-6.73s-.27-5.61-.45-8.66a27.24,27.24,0,0,0-1.56-7.79,15.62,15.62,0,0,0-3.76-6.13A20.82,20.82,0,0,0,259,3.48a23.37,23.37,0,0,0-6.41-1.92,72,72,0,0,0-9.53-.83Q237.34.55,226.72.55T210.37.73a73.37,73.37,0,0,0-9.58.83,23.36,23.36,0,0,0-6.45,1.92,20.86,20.86,0,0,0-5.18,3.76,16.67,16.67,0,0,0-3.71,6.13,25.7,25.7,0,0,0-1.6,7.79q-.28,4.57-.46,8.66c-.12,2.71-.18,5-.18,6.73s.06,4.11.18,6.82.27,5.58.46,8.57a29.36,29.36,0,0,0,1.65,7.83,15.18,15.18,0,0,0,3.66,6.09,20.86,20.86,0,0,0,5.18,3.76,23.62,23.62,0,0,0,6.41,1.92,72.67,72.67,0,0,0,9.39.83q5.58.18,16.58.18c7.26,0,12.78-.06,16.53-.18a71.67,71.67,0,0,0,9.39-.83A23.75,23.75,0,0,0,259,69.62a20.82,20.82,0,0,0,5.17-3.76,14.77,14.77,0,0,0,3.76-6.09,27.71,27.71,0,0,0,1.56-7.83q.27-4.48.45-8.57C270.08,40.66,270.14,38.38,270.14,36.55Zm-20.7-8.34c.12,1.84.21,3.38.27,4.63s.09,2.46.09,3.62,0,2.27-.09,3.52-.15,2.8-.27,4.63a14.79,14.79,0,0,1-.83,4.12,8,8,0,0,1-2,3.3,13.3,13.3,0,0,1-2.75,2,11,11,0,0,1-3.39,1.05,41.24,41.24,0,0,1-5,.41q-3,.09-8.84.09t-8.89-.09a40,40,0,0,1-5-.41,11.55,11.55,0,0,1-3.39-1.05,12.55,12.55,0,0,1-2.8-2,8.65,8.65,0,0,1-1.92-3.25,14.15,14.15,0,0,1-.82-4.17c-.13-1.4-.22-2.84-.28-4.3s-.09-2.75-.09-3.85,0-2.48.09-3.94.15-2.9.28-4.31a14.09,14.09,0,0,1,.82-4.16,8.69,8.69,0,0,1,1.92-3.26,13.6,13.6,0,0,1,2.75-2,10.74,10.74,0,0,1,3.44-1.05,40.14,40.14,0,0,1,5-.42q3-.09,8.84-.09c3.9,0,6.87,0,8.88.09a37.8,37.8,0,0,1,5,.42,10.3,10.3,0,0,1,6.1,3.06,8.12,8.12,0,0,1,2,3.3A14.86,14.86,0,0,1,249.44,28.21Z"/><polygon class="cls-1" points="347.82 45.16 347.82 72 370.26 72 370.26 0 347.82 0 347.82 25.92 299.82 25.92 299.82 0 277.37 0 277.37 72 299.82 72 299.82 45.16 347.82 45.16"/><path class="cls-1" d="M438.87,49q12.47,0,17.63-6.46t5.18-20.11a32.43,32.43,0,0,0-1.56-10.9,14.72,14.72,0,0,0-4.81-6.82A20.44,20.44,0,0,0,447,1.1,60.35,60.35,0,0,0,434.47,0h-57.8V72h22.44V18.05h33.44a8.87,8.87,0,0,1,5.77,2.1,7,7,0,0,1,2.75,5.13,6.93,6.93,0,0,1-2.66,5.82,9.74,9.74,0,0,1-6.14,2.06h-30L419.91,49Z"/></g></g></svg>