<svg xmlns="http://www.w3.org/2000/svg" viewBox="0 0 541.4 119.16"><defs><style>.cls-1{fill:#121212;fill-rule:evenodd;}</style></defs><title>Hybrid</title><g id="Layer_2"><g id="Layer_1-2"><path class="cls-1" d="M242.64,21.24H221.19l-19.75,42.5-18.69-42.5H153l30.55,56.43s4.76,14.12-27.64,14.12V103c0,.72,44.24,3.15,53.21-13.51l33.51-62.18V83h52.72q13.17,0,20.88-5t7.7-13.57a14.47,14.47,0,0,0-3.45-9.52,21.44,21.44,0,0,0-9-7,14.29,14.29,0,0,0,5.67-4.7,11.45,11.45,0,0,0,2-6.61,12.64,12.64,0,0,0-6.4-11.5q-6.41-3.9-18.89-3.89H242.64Zm21.9,24.4V33h28.77a5.53,5.53,0,0,1,5.53,5.52v1.63a5.53,5.53,0,0,1-5.53,5.52Zm0,26.59V56.76H295.8a6.56,6.56,0,0,1,6.56,6.55v2.36a6.56,6.56,0,0,1-6.56,6.56ZM72,62.93l32,16.12H91.71A2.8,2.8,0,0,0,89,81.93V99.58a19.17,19.17,0,0,0,19.59,19.57h15.12A19.15,19.15,0,0,0,143.3,99.57V19.91A19.43,19.43,0,0,0,123.72,0H108.59A19.42,19.42,0,0,0,89,19.91V37.56a2.8,2.8,0,0,0,2.7,2.88h12.22L72,56.56,40,40.44H51.41a2.8,2.8,0,0,0,2.7-2.88V19.91A19.29,19.29,0,0,0,34.71,0H19.57A19.42,19.42,0,0,0,0,19.91V99.58a19.17,19.17,0,0,0,19.58,19.57H34.71a19,19,0,0,0,19.4-19.58V81.93a2.8,2.8,0,0,0-2.7-2.88H40ZM335.84,83H357V58h13.22L391.52,83h21L391.86,56.55c6.07-.79,18.08-.85,17.72-18.13-.29-14.12-16.53-17.18-24.87-17.18H335.84ZM357,47.7V32.31h22.79a7.92,7.92,0,0,1,7.89,7.57,7.82,7.82,0,0,1-7.89,7.82ZM429.31,83h20.87V20.9H429.31ZM499,21.24h-31.5V83H499q19.45,0,30.93-8.39T541.4,52.3q0-13.81-11.66-22.44T499,21.24ZM499,33c9.75,0,21.55,6.43,21.55,19.22S508.93,71,499,71H486.44V33ZM78.27,59.74l38.84-19.58a3,3,0,0,0,1.29-3.83A2.7,2.7,0,0,0,116,34.68H94.41V19.86a14,14,0,0,1,3.68-9.69,14.22,14.22,0,0,1,10.44-4.41h15.25a14.28,14.28,0,0,1,9.68,3.66,13.92,13.92,0,0,1,4.44,10.47V99.6a13.48,13.48,0,0,1-3.65,9.53,14.34,14.34,0,0,1-10.45,4.26H108.52a14.52,14.52,0,0,1-9.7-3.53,13.37,13.37,0,0,1-4.41-10.22V84.81H116a2.79,2.79,0,0,0,2.7-2.88,2.91,2.91,0,0,0-1.55-2.6Zm-12.63,0L26.81,79.33a3,3,0,0,0-1.29,3.83A2.69,2.69,0,0,0,28,84.81H48.71V99.64a13.63,13.63,0,0,1-3.59,9.51,14.06,14.06,0,0,1-10.33,4.24H19.51a14.52,14.52,0,0,1-9.7-3.53A13.39,13.39,0,0,1,5.4,99.6V19.89a14,14,0,0,1,3.68-9.72A14.2,14.2,0,0,1,19.52,5.76H34.77a14,14,0,0,1,9.58,3.65,14,14,0,0,1,4.36,10.44V34.68H28a2.79,2.79,0,0,0-2.7,2.88,2.9,2.9,0,0,0,1.55,2.6Z"/></g></g></svg>