<svg xmlns="http://www.w3.org/2000/svg" viewBox="0 0 645.47 72.01"><defs><style>.cls-1,.cls-2{fill:#121212;}.cls-2{fill-rule:evenodd;}</style></defs><title>Impala-LS</title><g id="Layer_2" data-name="Layer 2"><g id="Layer_1-2" data-name="Layer 1"><rect class="cls-1" width="15.57" height="72"/><path class="cls-1" d="M62.22,29.1,37.84,0h-16V72H37.34V23.8L62.22,53.3q6-7.12,12.35-14.73T87,23.7V72h15.57V0H86.49Z"/><path class="cls-2" d="M114.56.2V72H130V48.93a.37.37,0,0,0,.19.09h.11q0-.6-.3-.6l41.56-.1A14.86,14.86,0,0,0,182.09,44a14.69,14.69,0,0,0,4.37-10.42V15a14.69,14.69,0,0,0-4.37-10.42A14.86,14.86,0,0,0,171.59.2ZM130,15.67h40.76V32.76H130Z"/><path class="cls-2" d="M208.53,0a14.75,14.75,0,0,0-14.77,14.77V72h15.47V48.83H250V72h15.66V14.77A14.61,14.61,0,0,0,261.3,4.32,14.85,14.85,0,0,0,250.79,0Zm.7,33.26V15.57H250V33.26Z"/><polygon class="cls-2" points="277.16 72 349.06 72 349.06 56.43 292.63 56.43 292.63 0 277.16 0 277.16 72"/><path class="cls-2" d="M369.84,0a14.73,14.73,0,0,0-14.77,14.77V72h15.47V48.83H411.3V72H427V14.77A14.62,14.62,0,0,0,422.6,4.32,14.83,14.83,0,0,0,412.1,0Zm.7,33.26V15.57H411.3V33.26Z"/><polygon class="cls-2" points="504.13 54.6 504.13 0.01 481.68 0.01 481.68 72.01 482.97 72.01 505.68 72.01 552.77 72.01 552.77 54.6 504.13 54.6"/><path class="cls-2" d="M642.54,36q-4-6.78-14.11-7.33c-1.28-.12-2.9-.23-4.85-.32L616.39,28q-4.26-.2-15.26-.55-8-.28-9.61-.37h-3.76a17.39,17.39,0,0,1-6.87-1.1q-2.48-1.1-2.47-4.58a5.58,5.58,0,0,1,.78-3.11,4.77,4.77,0,0,1,2.06-1.79,9,9,0,0,1,2.74-.78,27.34,27.34,0,0,1,3.3-.18h55.51V0H575.3q-10,0-14.29,5.58t-4.3,16.77q0,9.06,3.11,13.65,4.39,6.14,14.57,6.68c1.34.13,3,.23,4.85.32s3.91.19,6,.28,7.42.29,15.84.59q8.07.28,9.81.37c1.89,0,3.49,0,4.8.14a15.58,15.58,0,0,1,3.81.73,6.5,6.5,0,0,1,3,1.92,5.21,5.21,0,0,1,1.15,3.53,5.4,5.4,0,0,1-.83,3.12,5,5,0,0,1-2.19,1.78,10.3,10.3,0,0,1-3,.78,31.87,31.87,0,0,1-3.53.18H558.63V72h65q11.45,0,16.62-5.23t5.18-16.85Q645.47,41.59,642.54,36Z"/></g></g></svg>