<?xml version="1.0" encoding="utf-8"?>
<!-- Generator: Adobe Illustrator 27.9.1, SVG Export Plug-In . SVG Version: 6.00 Build 0)  -->
<svg class="w" version="1.1" xmlns="http://www.w3.org/2000/svg" xmlns:xlink="http://www.w3.org/1999/xlink" x="0px" y="0px"
	 viewBox="0 0 7580.7 3811.2" style="enable-background:new 0 0 7580.7 3811.2;" xml:space="preserve">
     $gradientDefs

<path class="maincolor" d="M6872.5,663.2c-1.8-8.2-3.1-16.4-4-24.7c-0.9-8.8-1.4-17.6-1.6-26.4c-0.6-24.8-0.6-49.6-0.1-74.4c0.4-20.9,1.7-43.5,3.9-64.3c1.1-10.6,2.9-21.9,5-32.3c2-10,4.7-19.9,8-29.5c6.3-18.6,16.8-37.1,31.1-50.2c14.9-13.6,33.2-21.5,53-26.1c9.3-2.2,18.7-3.9,28.2-5.1c21-2.8,33.3-4.3,55-4.9l22.8-0.7c26.3-0.7,72.8-1.2,99.1-1.2l66,0c26.5-0.1,53.1,0.3,79.6,1.2c8.5,0.3,22.5,1.8,30.9,2.9c1.3,0.2,2.6,0.4,4,0.6c140.9-98.3,227.5-158.9,227.5-158.9s-797.3,4.6-875.3,5c-103.8,0.5-165.1-5.4-292.5-65.6C6253.7,33.3,6220.9,0,6220.9,0s-817,979.5-1168.5,1345.4c-138.1,137.5-204.3,136.2-392.4,136.2c-1008.1,0-4660,0-4660,0s24.6,45.6,62.1,146.7c41.1,110.7,62.1,231.4,62.1,231.4s3624.6,0.1,4713.7,0c237.5,0,301.2,1.9,661.3-245C5872.3,1358.8,6428.8,972.2,6872.5,663.2z"/>

<path class="maincolor" d="M7348.9,331.1c-10.2-1.5-20.4-2.4-30.7-2.9c-20.8-0.7-39-1-59.9-1.1l-41.1-0.2l-63.8,0.2c-37.5,0.2-58.2,0.6-95.8,1.6c-12.7,0.3-23.3,0.9-36,2c-11.5,1.2-22.2,2.6-33.6,4.3c-10.3,1.6-20.2,3.8-30.2,6.7c-9.6,2.8-18.7,6.9-27.2,12.1c-7.6,4.7-14.4,10.5-20.3,17.2c-6.9,8-12.5,16.7-17,26.3c-3.9,8.5-7.1,16.9-9.6,25.9c-4.6,16.5-7.7,33.4-9.5,50.5c-2.5,24.2-3.7,47-4,71.4c-0.3,26.1-0.2,40.9,0.3,66.9c0.3,16,1.6,32.7,5.2,48.9C7060.2,532.4,7225.1,417.5,7348.9,331.1z"/>

<path class="maincolor" d="M1359.8,1951.4c0,0,817,979.5,1168.5,1345.4c138.1,137.5,204.3,136.2,392.4,136.2c1008.1,0,4660,0,4660,0s-24.6,45.6-62.1,146.7c-41.1,110.7-62.1,231.4-62.1,231.4s-3624.6,0.1-4713.7,0c-237.5,0-301.2,1.9-661.3-245C1372.1,3079.6,0,2120.6,0,2120.6s797.3,4.6,875.3,5c103.8,0.5,165.1-5.4,292.5-65.6C1327,1984.7,1359.8,1951.4,1359.8,1951.4z"/>

<text class="textcolor" textLength="2500" lengthAdjust="spacingAndGlyphs" style="font-family:'Square721BT-BoldExtended'; font-size:183.204px; text-anchor:left;" transform="matrix(1 0 0 1 612.626 1743.6558)">
	<tspan x="0" y="0">$textRef</tspan>
</text>

<text class="textcolor" textLength="2500" lengthAdjust="spacingAndGlyphs" style="font-family:'Square721BT-BoldExtended'; font-size:183.204px; text-anchor:right;" transform="matrix(1 0 0 1 4520.397 3695.0483)">
	<tspan x="0" y="0">$textRef</tspan>
</text>
</svg>
