<?xml version="1.0" encoding="utf-8"?>
<!-- Generator: Adobe Illustrator 27.9.1, SVG Export Plug-In . SVG Version: 6.00 Build 0)  -->
<svg class="w" version="1.1" xmlns="http://www.w3.org/2000/svg" xmlns:xlink="http://www.w3.org/1999/xlink" x="0px" y="0px"
	 viewBox="0 0 7632 3888" style="enable-background:new 0 0 7632 3888;" xml:space="preserve">
     $gradientDefs

	<path class="maincolor" d="M2158.1,2886.7L1627,3263.6c-53.5-37-107.9-74.7-162.8-112.8l582.8-392
	C2084.2,2801.8,2121.3,2844.6,2158.1,2886.7z"/>
<path class="maincolor" d="M1667.2,3291.4l518.6-373c37.9,43.3,75.2,85.6,111.4,126.3l-470.7,356.8
	C1774.9,3365.9,1721.6,3329.1,1667.2,3291.4z"/>
<path class="maincolor" d="M1866,3428.8l459.2-352.6c39.3,44,76.9,85.8,112.3,124.6l-415.2,335.8C1972.5,3502.2,1920.2,3466.2,1866,3428.8z"/>
<path class="maincolor" d="M2061.1,3563.1l404.7-331.5c31.7,34.4,61.3,65.9,88.1,93.9c9.6,9.6,18.9,18.5,27.9,26.8L2216,3667.6
	c-33.1-21.5-69.2-45.7-108.8-72.9C2092.1,3584.4,2076.7,3573.8,2061.1,3563.1z"/>
<path class="maincolor" d="M143.9,2149.9l-73.3,30.7c-29.2-20.4-45-31.4-45-31.4S72.2,2149.4,143.9,2149.9z"/>
<path class="maincolor" d="M120.3,2215.3l151.5-64.7c152.1,0.9,343.7,2,476.5,2.7l-433.1,198C235.7,2295.9,169.4,2249.5,120.3,2215.3z"/>
<path class="maincolor" d="M362.9,2384.6l496.5-230.7c19.7,0.1,34,0.2,41.5,0.2c103.8,0.5,165.1-5.4,292.5-65.6
	c159.2-75.3,192-108.5,192-108.5s26.6,31.9,72.2,86.3l-906.8,449.4C483.5,2468.7,420.4,2424.7,362.9,2384.6z"/>
<path class="maincolor" d="M597,2547.9l889.1-447.6c31.9,38,70.3,83.6,113.5,134.7l-820.9,439.5C715.9,2630.7,655.1,2588.3,597,2547.9z"/>
<path class="maincolor" d="M823.5,2705.6l804.4-437.2c35.1,41.5,72.8,86,112.5,132.7l-740.8,427.1C939.8,2786.5,880.9,2745.5,823.5,2705.6z"/>
<path class="maincolor" d="M1043,2858.3l725.4-424.3c36.1,42.4,73.5,86.2,111.7,130.9l-666,412.4C1156.7,2937.4,1099.5,2897.6,1043,2858.3z"/>
<path class="maincolor" d="M1256.3,3006.6l651.6-409.1c36.6,42.7,73.9,86,111.2,129.3L1423,3122.3
	C1367.7,3083.9,1312,3045.2,1256.3,3006.6z"/>
<path class="maincolor" d="M7284.6,3839.7l25.6-378.1c105,0,109.6,0,112.1,0l-16.1,378.1C7375.5,3839.7,7334.6,3839.7,7284.6,3839.7z"/>
<path class="maincolor" d="M7436.5,3839.7l13.7-378.1c108.5,0,111.2,0,111.8,0l-1.1,103.2c-5.2,13.2-10.8,27.6-16.6,43.5
	c-41.1,110.7-62.1,231.4-62.1,231.4S7466.8,3839.7,7436.5,3839.7z"/>
<path class="maincolor" d="M7589.8,3496.2l0.2-34.5c16.4,0,16.4,0,16.4,0S7600.4,3472.7,7589.8,3496.2z"/>
<path class="maincolor" d="M6667.1,3839.8l74-378.1c92.3,0,104.9,0,115.5,0l-64.2,378.1C6752.9,3839.8,6712.1,3839.8,6667.1,3839.8z"/>
<path class="maincolor" d="M6823.6,3839.8l61.8-378.1c95.3,0,105.8,0,114.3,0l-52,378.1C6909.1,3839.8,6868.8,3839.8,6823.6,3839.8z"/>
<path class="maincolor" d="M6978.4,3839.7l49.6-378.1c98.4,0,106.9,0,113.3,0l-40,378.1C7064.1,3839.7,7024.4,3839.7,6978.4,3839.7z"/>
<path class="maincolor" d="M7132,3839.7l37.6-378.1c101.6,0,108.1,0,112.6,0l-28,378.1C7218.7,3839.7,7179.3,3839.7,7132,3839.7z"/>
<path class="maincolor" d="M6184.8,3839.8l111.8-378.1c83.6,0,103.2,0,120.6,0l-101.6,378.1C6273.3,3839.8,6230.1,3839.8,6184.8,3839.8z"/>
<path class="maincolor" d="M6348.1,3839.8l99-378.1c86.5,0,103.6,0,118.6,0l-88.9,378.1C6435.4,3839.8,6393.1,3839.8,6348.1,3839.8z"/>
<path class="maincolor" d="M6508.8,3839.8l86.4-378.1c89.4,0,104.2,0,116.9,0l-76.5,378.1C6595.2,3839.8,6553.6,3839.8,6508.8,3839.8z"/>
<path class="maincolor" d="M5674.7,3839.8l151.8-378.1c74.7,0,102.6,0,128.5,0l-140.9,378.1C5768.3,3839.8,5722,3839.8,5674.7,3839.8z"/>
<path class="maincolor" d="M5848.5,3839.8l138.2-378.1c77.8,0,102.7,0,125.5,0l-127.5,378.1C5940.1,3839.8,5895,3839.8,5848.5,3839.8z"/>
<path class="maincolor" d="M6018.4,3839.8l124.9-378.1c80.7,0,102.9,0,122.9,0l-114.4,378.1C6108.3,3839.8,6064.2,3839.8,6018.4,3839.8z"/>
<path class="maincolor" d="M5124.4,3839.8l195-378.1c64.6,0,103.1,0,139.6,0l-183.1,378.1C5225.6,3839.8,5175.1,3839.8,5124.4,3839.8z"/>
<path class="maincolor" d="M5313.2,3839.8l180.2-378.1c68.2,0,102.9,0,135.5,0l-168.6,378.1C5411.5,3839.8,5362.6,3839.8,5313.2,3839.8z"/>
<path class="maincolor" d="M5496.4,3839.8l165.8-378.1c71.5,0,102.7,0,131.8,0l-154.6,378.1C5592.2,3839.8,5544.7,3839.8,5496.4,3839.8z"/>
<path class="maincolor" d="M4517.6,3839.8l242.5-378.1c51.9,0,104.4,0,155.2,0L4686,3839.8C4629.7,3839.8,4573.4,3839.8,4517.6,3839.8z"/>
<path class="maincolor" d="M4727.3,3839.8l226.1-378.1c56.5,0,103.9,0,149.4,0l-213.4,378.1C4835.4,3839.8,4781.3,3839.8,4727.3,3839.8z"/>
<path class="maincolor" d="M4929.3,3839.8l210.3-378.1c60.7,0,103.5,0,144.3,0l-198,378.1C5033.8,3839.8,4981.5,3839.8,4929.3,3839.8z"/>
<path class="maincolor" d="M3832.6,3839.8l296.2-378.1c35.2,0,105.8,0,176.8,0l-281.2,378.1C3959.4,3839.8,3895.4,3839.8,3832.6,3839.8z"/>
<path class="maincolor" d="M4071.3,3839.8l277.5-378.1c41.3,0,105.3,0,168.8,0l-263.2,378.1C4192.7,3839.8,4131.5,3839.8,4071.3,3839.8z"/>
<path class="maincolor" d="M4299.3,3839.8l259.7-378.1c46.9,0,104.9,0,161.6,0l-245.9,378.1C4415.7,3839.8,4357.2,3839.8,4299.3,3839.8z"/>
<path class="maincolor" d="M3317.5,3839.8l336.6-378.1c22.3,0,106.3,0,195.9,0l-320,378.1C3456.5,3839.8,3385.5,3839.8,3317.5,3839.8z"/>
<path class="maincolor" d="M3581.8,3839.8l315.9-378.1c28.7,0,106.1,0,185.8,0l-300.1,378.1C3714.5,3839.8,3647.1,3839.8,3581.8,3839.8z"/>
<path class="maincolor" d="M2741.3,3839.7l381.7-378.1c22.7,0,105.8,0,220.1,0l-363.1,378.1c-78.2,0-149.1,0-211.6,0
	C2759.2,3839.7,2750.1,3839.7,2741.3,3839.7z"/>
<path class="maincolor" d="M3038,3839.8l358.5-378.1c17.7,0,106.3,0,207.3,0l-340.9,378.1C3183.2,3839.8,3108,3839.8,3038,3839.8z"/>
<path class="maincolor" d="M2464.6,3803l368.7-342.9c32.8,1.6,69.7,1.5,113,1.5c26,0,53.7,0,120,0l-386,377.6
	C2600.8,3837.6,2538.9,3830.8,2464.6,3803z"/>
<path class="maincolor" d="M2255.3,3692.7l358.4-312.9c57.4,46.6,105.2,66.6,164.5,75.3l-358.4,329.2
	C2373,3763,2320.2,3733.5,2255.3,3692.7z"/>
<path class="maincolor" d="M5473.9,935.3l531.1,376.9c53.5-37,107.9-74.7,162.8-112.8l-582.8-392C5547.8,850.4,5510.7,893.2,5473.9,935.3z"/>
<path class="maincolor" d="M5964.8,1340l-518.6-373c-37.9,43.3-75.2,85.6-111.4,126.3l470.7,356.8
	C5857.1,1414.5,5910.4,1377.7,5964.8,1340z"/>
<path class="maincolor" d="M5766,1477.4l-459.2-352.6c-39.3,44-76.9,85.8-112.3,124.6l415.2,335.8
	C5659.5,1550.8,5711.8,1514.8,5766,1477.4z"/>
<path class="maincolor" d="M5570.9,1611.7l-404.7-331.5c-31.7,34.4-61.3,65.9-88.1,93.9c-9.6,9.6-18.9,18.5-27.9,26.8l365.8,315.4
	c33.1-21.5,69.2-45.7,108.8-72.9C5539.9,1633,5555.3,1622.4,5570.9,1611.7z"/>
<path class="maincolor" d="M7488.1,198.5l73.3,30.7c29.2-20.4,45-31.4,45-31.4S7559.8,198,7488.1,198.5z"/>
<path class="maincolor" d="M7212,352l52.4,0c26.5-0.1,53.1,0.3,79.6,1.2c8.5,0.3,22.5,1.8,30.9,2.9c1.3,0.2,2.6,0.4,4,0.6
	c52.4-36.5,97.2-67.8,132.9-92.7l-151.5-64.7c-152.1,0.9-343.7,2-476.5,2.7L7212,352z"/>
<path class="maincolor" d="M7374.5,359.7c-10.2-1.5-20.4-2.4-30.7-2.9c-20.8-0.7-39-1-59.9-1.1l-41.1-0.2l-23,0.1l97,44.3
	C7336.9,385.9,7356.2,372.5,7374.5,359.7z"/>
<path class="maincolor" d="M6900.3,474.7c0.3-1.7,0.6-3.4,1-5c2-10,4.7-19.9,8-29.5c6.3-18.6,16.8-37.1,31.1-50.2
	c14.9-13.6,33.2-21.5,53-26.1c9.3-2.2,18.7-3.9,28.2-5.1c21-2.8,33.3-4.3,55-4.9l20.4-0.6l-324.4-150.7c-19.7,0.1-34,0.2-41.5,0.2
	c-103.8,0.5-165.1-5.4-292.5-65.6c-159.2-75.3-192-108.5-192-108.5s-26.6,31.9-72.2,86.3L6900.3,474.7z"/>
<path class="maincolor" d="M7104.4,356.7c-6.5,0.2-13.5,0.3-21.1,0.5c-12.7,0.3-23.3,0.9-36,2c-11.5,1.2-22.2,2.6-33.6,4.3
	c-10.3,1.6-20.2,3.8-30.2,6.7c-9.6,2.8-18.7,6.9-27.2,12.1c-7.6,4.7-14.4,10.5-20.3,17.2c-6.9,8-12.5,16.7-17,26.3
	c-3.9,8.5-7.1,16.9-9.6,25.9c-2.2,8.1-4.1,16.3-5.7,24.5l177.5,87.9c67.4-47,130.5-91,187.9-131L7104.4,356.7z"/>
<path class="maincolor" d="M6898.2,691.8c-1.8-8.2-3.1-16.4-4-24.7c-0.9-8.8-1.4-17.6-1.6-26.4c-0.6-24.8-0.6-49.6-0.1-74.4
	c0.2-13.1,0.8-27,1.8-40.6l-748.4-376.8c-31.9,38-70.3,83.6-113.5,134.7L6853.3,723C6868.3,712.5,6883.3,702.1,6898.2,691.8z"/>
<path class="maincolor" d="M6897.8,527.4c-1.1,15.3-1.6,30.5-1.8,46.3c-0.3,26.1-0.2,40.9,0.3,66.9c0.3,16,1.6,32.7,5.2,48.9
	c45.9-31.9,90.5-63,133.6-93.1L6897.8,527.4z"/>
<path class="maincolor" d="M6808.5,754.2L6004.1,317c-35.1,41.5-72.8,86-112.5,132.7l740.8,427.1C6692.2,835.1,6751.1,794.2,6808.5,754.2z"/>
<path class="maincolor" d="M6589,906.9l-725.4-424.3c-36.1,42.4-73.5,86.2-111.7,130.9l666,412.4C6475.3,986,6532.5,946.2,6589,906.9z"/>
<path class="maincolor" d="M6375.7,1055.2L5724,646c-36.6,42.7-73.9,86-111.2,129.3l596.2,395.5C6264.3,1132.5,6320,1093.8,6375.7,1055.2z	"/>
<path class="maincolor" d="M347.4,1888.3l-25.6-378.1c-105,0-109.6,0-112.1,0l16.1,378.1C256.5,1888.3,297.4,1888.3,347.4,1888.3z"/>
<path class="maincolor" d="M195.5,1888.3l-13.7-378.1c-108.5,0-111.2,0-111.8,0l1.1,103.2c5.2,13.2,10.8,27.6,16.6,43.5
	c41.1,110.7,62.1,231.4,62.1,231.4S165.2,1888.3,195.5,1888.3z"/>
<path class="maincolor" d="M42.2,1544.8l-0.2-34.5c-16.4,0-16.4,0-16.4,0S31.6,1521.4,42.2,1544.8z"/>
<path class="maincolor" d="M964.9,1888.4l-74-378.1c-92.3,0-104.9,0-115.5,0l64.2,378.1C879.1,1888.4,919.9,1888.4,964.9,1888.4z"/>
<path class="maincolor" d="M808.4,1888.4l-61.8-378.1c-95.3,0-105.8,0-114.3,0l52,378.1C722.9,1888.4,763.2,1888.4,808.4,1888.4z"/>
<path class="maincolor" d="M653.6,1888.4L604,1510.3c-98.4,0-106.9,0-113.3,0l40,378.1C567.9,1888.4,607.6,1888.4,653.6,1888.4z"/>
<path class="maincolor" d="M500,1888.4l-37.6-378.1c-101.6,0-108.1,0-112.6,0l28,378.1C413.3,1888.3,452.7,1888.4,500,1888.4z"/>
<path class="maincolor" d="M1447.2,1888.4l-111.8-378.1c-83.6,0-103.2,0-120.6,0l101.6,378.1C1358.7,1888.4,1401.9,1888.4,1447.2,1888.4z"/>
<path class="maincolor" d="M1283.9,1888.4l-99-378.1c-86.5,0-103.6,0-118.6,0l88.9,378.1C1196.6,1888.4,1238.9,1888.4,1283.9,1888.4z"/>
<path class="maincolor" d="M1123.2,1888.4l-86.4-378.1c-89.4,0-104.2,0-116.9,0l76.5,378.1C1036.8,1888.4,1078.4,1888.4,1123.2,1888.4z"/>
<path class="maincolor" d="M1957.3,1888.4l-151.8-378.1c-74.7,0-102.6,0-128.5,0l140.9,378.1C1863.7,1888.4,1910,1888.4,1957.3,1888.4z"/>
<path class="maincolor" d="M1783.5,1888.4l-138.2-378.1c-77.8,0-102.7,0-125.5,0l127.5,378.1C1691.9,1888.4,1737,1888.4,1783.5,1888.4z"/>
<path class="maincolor" d="M1613.6,1888.4l-124.9-378.1c-80.7,0-102.9,0-122.9,0l114.4,378.1C1523.7,1888.4,1567.8,1888.4,1613.6,1888.4z"/>
<path class="maincolor" d="M2507.6,1888.4l-195-378.1c-64.6,0-103.1,0-139.6,0l183.1,378.1C2406.4,1888.4,2456.9,1888.4,2507.6,1888.4z"/>
<path class="maincolor" d="M2318.8,1888.4l-180.2-378.1c-68.2,0-102.9,0-135.5,0l168.6,378.1C2220.5,1888.4,2269.4,1888.4,2318.8,1888.4z"/>
<path class="maincolor" d="M2135.6,1888.4l-165.8-378.1c-71.5,0-102.7,0-131.8,0l154.6,378.1C2039.8,1888.4,2087.3,1888.4,2135.6,1888.4z"/>
<path class="maincolor" d="M3114.4,1888.4l-242.5-378.1c-51.9,0-104.4,0-155.2,0l229.3,378.1C3002.3,1888.4,3058.6,1888.4,3114.4,1888.4z"/>
<path class="maincolor" d="M2904.7,1888.4l-226.1-378.1c-56.5,0-103.9,0-149.4,0l213.4,378.1C2796.6,1888.4,2850.7,1888.4,2904.7,1888.4z"/>
<path class="maincolor" d="M2702.7,1888.4l-210.3-378.1c-60.7,0-103.5,0-144.3,0l198,378.1C2598.2,1888.4,2650.5,1888.4,2702.7,1888.4z"/>
<path class="maincolor" d="M3799.4,1888.4l-296.2-378.1c-35.2,0-105.8,0-176.8,0l281.2,378.1C3672.6,1888.4,3736.6,1888.4,3799.4,1888.4z"/>
<path class="maincolor" d="M3560.7,1888.4l-277.5-378.1c-41.3,0-105.3,0-168.8,0l263.2,378.1C3439.3,1888.4,3500.5,1888.4,3560.7,1888.4z"/>
<path class="maincolor" d="M3332.7,1888.4l-259.7-378.1c-46.9,0-104.9,0-161.6,0l245.9,378.1C3216.3,1888.4,3274.8,1888.4,3332.7,1888.4z"/>
<path class="maincolor" d="M4314.5,1888.4l-336.6-378.1c-22.3,0-106.3,0-195.9,0l320,378.1C4175.5,1888.4,4246.5,1888.4,4314.5,1888.4z"/>
<path class="maincolor" d="M4050.2,1888.4l-315.9-378.1c-28.7,0-106.1,0-185.8,0l300.1,378.1C3917.5,1888.4,3984.9,1888.4,4050.2,1888.4z"/>
<path class="maincolor" d="M4890.7,1888.3L4509,1510.3c-22.7,0-105.8,0-220.1,0l363.1,378.1c78.2,0,149.1,0,211.6,0
	C4872.8,1888.3,4881.9,1888.3,4890.7,1888.3z"/>
<path class="maincolor" d="M4594,1888.4l-358.5-378.1c-17.7,0-106.3,0-207.3,0l340.9,378.1C4448.8,1888.4,4524,1888.4,4594,1888.4z"/>
<path class="maincolor" d="M5167.4,1851.6l-368.7-342.9c-32.8,1.6-69.7,1.5-113,1.5c-26,0-53.7,0-120,0l386,377.6
	C5031.2,1886.2,5093.1,1879.4,5167.4,1851.6z"/>
<path class="maincolor" d="M5376.7,1741.3l-358.4-312.9c-57.3,46.6-105.2,66.6-164.5,75.3l358.4,329.2
	C5259,1811.6,5311.8,1782.1,5376.7,1741.3z"/>
<text class="textcolor" textLength="2500" lengthAdjust="spacingAndGlyphs" style="font-family:'Square721BT-BoldExtended'; font-size:183.204px; text-anchor:left;" transform="matrix(1 0 0 1 612.626 1760.6558)">
	<tspan x="0" y="0">$textRef</tspan>
</text>
<text class="textcolor" textLength="2500" lengthAdjust="spacingAndGlyphs" style="font-family:'Square721BT-BoldExtended'; font-size:183.204px; text-anchor:right;" transform="matrix(1 0 0 1 4520.397 3715.0483)">
	<tspan x="0" y="0">$textRef</tspan>
</text>
</svg>
