<?xml version="1.0" encoding="utf-8"?>
<!-- Generator: Adobe Illustrator 27.9.1, SVG Export Plug-In . SVG Version: 6.00 Build 0)  -->
<svg class="w" version="1.1" xmlns="http://www.w3.org/2000/svg" xmlns:xlink="http://www.w3.org/1999/xlink" x="0px" y="0px"
	 viewBox="0 0 7632 3888" style="enable-background:new 0 0 7632 3888;" xml:space="preserve">
     $gradientDefs

		<path class="maincolor" d="M599.4,1681.3c7.6-51.1,47-90,94.5-90h1910.3c47.5,0,86.9,38.9,94.5,90h2163c28.5,0,56.3-2,84.5-6.2
	c31-4.6,61.4-12.2,91-22.6c29.4-10.4,57.8-23.7,84.7-39.6c29.9-17.7,57.3-37.7,83.4-60.6L6749.1,202.7c-7.8,0-13.9,0.1-18,0.1
	c-103.8,0.5-165.1-5.4-292.5-65.6c-159.2-75.3-192-108.5-192-108.5s-817,979.5-1168.5,1345.4c-138.1,137.5-204.3,136.2-392.4,136.2
	c-1008.1,0-4660,0-4660,0s24.6,45.6,62.1,146.7c3,8.1,5.9,16.2,8.7,24.3H599.4z"/>

	<path class="maincolor" d="M6898.2,691.8c-1.8-8.2-3.1-16.4-4-24.7c-0.9-8.8-1.4-17.6-1.6-26.4c-0.6-24.8-0.6-49.6-0.1-74.4
	c0.4-20.9,1.7-43.5,3.9-64.3c1.1-10.6,2.9-21.9,5-32.3c2-10,4.7-19.9,8-29.5c6.3-18.6,16.8-37.1,31.1-50.2
	c14.9-13.6,33.2-21.5,53-26.1c9.3-2.2,18.7-3.9,28.2-5.1c21-2.8,33.3-4.3,55-4.9l22.8-0.7c26.3-0.7,72.8-1.2,99.1-1.2l66,0
	c26.5-0.1,53.1,0.3,79.6,1.2c8.5,0.3,22.5,1.8,30.9,2.9c1.3,0.2,2.6,0.4,4,0.6c140.9-98.3,227.5-158.9,227.5-158.9
	s-585.8,3.4-802.2,4.6l-1575,1377c-27.4,24.1-57.4,45.9-88.8,64.5c-28.6,17-59.6,31.4-91,42.5c-60.2,21.3-123.3,31-187.5,30.9h-2163
	c-7.6,51.1-47,90-94.5,90H693.9c-47.5,0-86.9-38.9-94.5-90H108.1c27.7,90.1,41.7,171,41.7,171s3624.6,0.1,4713.7,0
	c237.5,0,301.2,1.9,661.3-245C5898,1387.4,6454.5,1000.8,6898.2,691.8z"/>

	<path class="maincolor" d="M7374.5,359.7c-10.2-1.5-20.4-2.4-30.7-2.9c-20.8-0.7-39-1-59.9-1.1l-41.1-0.2l-63.8,0.2
	c-37.5,0.2-58.2,0.6-95.8,1.6c-12.7,0.3-23.3,0.9-36,2c-11.5,1.2-22.2,2.6-33.6,4.3c-10.3,1.6-20.2,3.8-30.2,6.7
	c-9.6,2.8-18.7,6.9-27.2,12.1c-7.6,4.7-14.4,10.5-20.3,17.2c-6.9,8-12.5,16.7-17,26.3c-3.9,8.5-7.1,16.9-9.6,25.9
	c-4.6,16.5-7.7,33.4-9.5,50.5c-2.5,24.2-3.7,47-4,71.4c-0.3,26.1-0.2,40.9,0.3,66.9c0.3,16,1.6,32.7,5.2,48.9
	C7085.9,561,7250.7,446.1,7374.5,359.7z"/>

	<text class="textcolor" textLength="1985" lengthAdjust="spacingAndGlyphs" style="font-family:'Square721BT-BoldExtended'; font-size:183.204px; text-anchor:left;" transform="matrix(1 0 0 1 652.626 1760.6558)">
		<tspan x="0" y="0">$textRef</tspan>
	</text>

	<path class="maincolor" d="M4933.2,3632.7c7.6-51.1,47-90,94.5-90h1910.3c47.5,0,86.9,38.9,94.5,90h503c2.8-8.1,5.7-16.3,8.7-24.3
	c37.5-101.2,62.1-146.7,62.1-146.7s-3652,0-4660,0c-188.1,0-254.3,1.2-392.4-136.2C2202.4,2959.5,1385.4,1980,1385.4,1980
	s-32.8,33.3-192,108.5c-127.4,60.2-188.8,66.1-292.5,65.6c-4.1,0-10.2-0.1-18-0.1l1543.7,1349.6c26.1,22.9,53.5,42.9,83.4,60.6
	c26.9,15.9,55.3,29.1,84.7,39.6c29.5,10.4,60,18,91,22.6c28.2,4.2,56,6.2,84.5,6.2H4933.2z"/>

	<path class="maincolor" d="M7032.6,3668.7c-7.6,51.1-47,90-94.5,90H5027.7c-47.5,0-86.9-38.9-94.5-90h-2163
	c-64.2,0.1-127.2-9.5-187.5-30.9c-31.4-11.1-62.4-25.6-91-42.5c-31.4-18.6-61.4-40.4-88.8-64.5l-1575-1377
	c-216.4-1.2-802.2-4.6-802.2-4.6s1372.1,959,2081.5,1445.5c360.1,247,423.8,245,661.3,245c1089.1,0.1,4713.7,0,4713.7,0
	s14.1-80.9,41.7-171H7032.6z"/>

	<text class="textcolor" textLength="1985" lengthAdjust="spacingAndGlyphs" style="font-family:'Square721BT-BoldExtended'; font-size:183.204px; text-anchor:right;" transform="matrix(1 0 0 1 4990.397 3710.0483)">
		<tspan x="0" y="0">$textRef</tspan>
	</text>
</svg>
