<?xml version="1.0" encoding="utf-8"?>
<!-- Generator: Adobe Illustrator 27.9.1, SVG Export Plug-In . SVG Version: 6.00 Build 0)  -->
<svg class="w" version="1.1" xmlns="http://www.w3.org/2000/svg" xmlns:xlink="http://www.w3.org/1999/xlink" x="0px" y="0px"
	 viewBox="0 0 7580.7 3811.2" style="enable-background:new 0 0 7580.7 3811.2;" xml:space="preserve">
     $gradientDefs

	<path class="maincolor" d="M6866.5,579c-0.1-13.8,0-27.5,0.3-41.3c0.4-20.9,1.7-43.5,3.9-64.3c1.1-10.6,2.9-21.9,5-32.3c2-10,4.7-19.9,8-29.5c6.3-18.6,16.8-37.1,31.1-50.2c14.9-13.6,33.2-21.5,53-26.1c9.3-2.2,18.7-3.9,28.2-5.1c21-2.8,33.3-4.3,55-4.9l22.8-0.7c26.3-0.7,72.8-1.2,99.1-1.2l60.3,0c75.4-52.6,148.9-103.9,219.9-153.4c-228.4,1.3-689.2,4-747.6,4.3c-103.8,0.5-165.1-5.4-292.5-65.6c-60.7-28.7-103-51.3-132.2-68.3c-185.6,221.6-424.7,504.4-611.6,721.6c-89.1,103.6-178.9,206.6-269.3,309.1c-96.3,109.9-194.7,217.9-295.1,324c-24.7,25.9-51.5,49.8-80.1,71.4c-73.8,57.1-151,82.8-243.9,85.5c-40.4,1.6-80.7,2.3-121.1,1.8H32.8c8.5,20.3,18.3,45.1,29.3,74.7c20.9,56.3,36.6,115.1,47,159.4l4730,0c49.9,0.8,99.8-0.4,149.6-3.7c48.6-3.8,96.3-15.2,141.4-33.8c55.6-23.8,109.2-52.1,160.2-84.6c56.6-35.9,112.6-72.6,168-110.3l422.3-291.1C6181.2,1056.1,6529.4,813.9,6866.5,579z"/>

	<path class="maincolor" d="M7228,326.9l-10.7,0l-63.8,0.2c-37.5,0.2-58.2,0.6-95.8,1.6c-12.7,0.3-23.3,0.9-36,2c-11.5,1.2-22.2,2.6-33.6,4.3c-10.3,1.6-20.2,3.8-30.2,6.7c-9.6,2.8-18.7,6.9-27.2,12.1c-7.6,4.7-14.4,10.5-20.3,17.2c-6.9,8-12.5,16.7-17,26.3c-3.9,8.5-7.1,16.9-9.6,25.9c-4.6,16.5-7.7,33.4-9.5,50.5c-2.5,24.2-3.7,47-4,71.4c-0.2,12.2-0.2,21.9-0.2,31.4C6991.8,491.7,7112,407.9,7228,326.9z"/>

	<path class="accentcolor" d="M6872.5,663.2c-1.8-8.2-3.1-16.4-4-24.7c-0.6-5.4-1-10.7-1.2-16.1c-331.8,231.2-669.4,466-966.2,671.6l-422.5,291.2c-55.6,38-112,75-169,110.9c-52.7,33.6-108.1,62.9-165.7,87.4c-48.7,20.1-100.3,32.5-152.8,36.5c-50.9,3.4-101.8,4.6-152.8,3.7l-4721.4,0c4.7,22.3,7.1,36,7.1,36s3624.6,0.1,4713.7,0c237.5,0,301.2,1.9,661.3-245C5872.3,1358.8,6428.8,972.2,6872.5,663.2z"/>

	<path class="accentcolor" d="M7295.3,323.9c7.7,0.2,15.4,0.4,23.1,0.6c8.5,0.3,22.5,1.8,30.9,2.9c1.3,0.2,2.6,0.4,4,0.6c140.9-98.3,227.5-158.9,227.5-158.9s-23.6,0.1-64.3,0.4C7444.6,219.7,7370.7,271.3,7295.3,323.9z"/>

	<path class="accentcolor" d="M7348.9,331.1c-10.2-1.5-20.4-2.4-30.7-2.9c-9.7-0.3-18.8-0.6-27.9-0.8C7154,422.5,7013,520.9,6870.8,619.9c0.6,13.5,2,27.5,4.9,41C7060.2,532.4,7225.1,417.5,7348.9,331.1z"/>

	<path class="accentcolor" d="M17.2,1517.6h4642.6c39.9,0.4,79.9-0.2,119.8-1.8c85.9-3.1,154.7-24.8,223-77.9c27-20.6,52.4-43.3,76-67.7c100.2-105.8,198.3-213.5,294.2-323c90.3-102.4,180-205.3,269.1-308.8c185.8-215.9,419.5-492.4,607.8-717.1C6227.6,6.8,6220.9,0,6220.9,0s-817,979.5-1168.5,1345.4c-138.1,137.5-204.3,136.2-392.4,136.2c-1008.1,0-4660,0-4660,0S6.2,1493.2,17.2,1517.6z"/>

	<text class="textcolor" textLength="2500" lengthAdjust="spacingAndGlyphs" style="font-family:'Square721BT-BoldExtended'; font-size:183.204px; text-anchor:left;" transform="matrix(1 0 0 1 612.626 1743.6558)">
		<tspan x="0" y="0">CUSTOM TEXT</tspan></text>

	//bottom
	<path class="maincolor" d="M1300,1991.7c185.6,221.6,424.7,504.4,611.6,721.6c89.1,103.6,178.9,206.6,269.3,309.1c96.3,109.9,194.7,217.9,295.1,324c24.7,25.9,51.5,49.8,80.1,71.4c73.8,57.1,151,82.8,243.9,85.5c40.4,1.6,80.7,2.3,121.1,1.8h4626.8c-8.5,20.3-18.3,45.1-29.3,74.7c-20.9,56.3-36.6,115.1-47,159.4l-4730,0c-49.9,0.8-99.8-0.4-149.6-3.7c-48.6-3.8-96.3-15.2-141.4-33.8c-55.6-23.8-109.2-52.1-160.2-84.6c-56.6-35.9-112.6-72.6-168-110.3L1700,3215.7C1217.8,2881.6,612.9,2460,127.7,2121.3c228.4,1.3,689.2,4,747.6,4.3c103.8,0.5,165.1-5.4,292.5-65.6C1228.5,2031.2,1270.8,2008.7,1300,1991.7z"/>

	<g class="accentcolor">
		<path d="M64.3,2120.9c506.8,353.9,1118.4,780.2,1615.3,1124.4l422.5,291.2c55.6,38,112,75,169,110.9c52.7,33.6,108.1,62.9,165.7,87.4c48.7,20.1,100.3,32.5,152.8,36.5c50.9,3.4,101.8,4.6,152.8,3.7l4721.4,0c-4.7,22.3-7.1,36-7.1,36s-3624.6,0.1-4713.7,0c-237.5,0-301.2,1.9-661.3-245C1372.1,3079.6,0,2120.6,0,2120.6S23.6,2120.7,64.3,2120.9z"/>

		<path d="M7563.5,3469H2920.9c-39.9,0.4-79.9-0.2-119.8-1.8c-85.9-3.1-154.7-24.8-223-77.9c-27-20.6-52.4-43.3-76-67.7c-100.2-105.8-198.3-213.5-294.2-323c-90.3-102.4-180-205.3-269.1-308.8c-185.8-215.9-419.5-492.4-607.8-717.1c22.1-14.4,28.8-21.2,28.8-21.2s817,979.5,1168.5,1345.4c138.1,137.5,204.3,136.2,392.4,136.2c1008.1,0,4660,0,4660,0S7574.5,3444.6,7563.5,3469z"/>

	</g>

	<text class="textcolor" textLength="2500" lengthAdjust="spacingAndGlyphs" style="font-family:'Square721BT-BoldExtended'; font-size:183.204px; text-anchor:right;" transform="matrix(1 0 0 1 4520.397 3695.0483)">
		<tspan x="0" y="0">CUSTOM TEXT</tspan></text>
	///bottom


</svg>
