<svg xmlns="http://www.w3.org/2000/svg" viewBox="0 0 194.13 64.58"><defs><style>.cls-1,.cls-2{fill:#121212;}.cls-1{fill-rule:evenodd;}</style></defs><title>1_0L</title><g id="Layer_2" data-name="Layer 2"><g id="Layer_1-2" data-name="Layer 1"><path class="cls-1" d="M35.78,0V63.52H18.23V21.9A54.16,54.16,0,0,1,10,27.14,65.15,65.15,0,0,1,0,31V16.74q8.87-2.85,13.76-6.86A28,28,0,0,0,21.43,0Z"/><rect class="cls-2" x="56.36" y="46.14" width="18.53" height="17.38"/><path class="cls-1" d="M83.71,32q0-17.82,6.41-24.93T109.65,0A29.32,29.32,0,0,1,120,1.55a19.3,19.3,0,0,1,6.61,4.05,21.65,21.65,0,0,1,4,5.24A27.45,27.45,0,0,1,133,17.25a60.12,60.12,0,0,1,1.74,14.57q0,17-5.75,24.88t-19.81,7.88q-7.87,0-12.73-2.51a20.61,20.61,0,0,1-8-7.37A27.53,27.53,0,0,1,85,45.26,64.31,64.31,0,0,1,83.71,32Zm17.21,0q0,11.93,2.11,16.29t6.11,4.37a6.42,6.42,0,0,0,4.58-1.85A11.53,11.53,0,0,0,116.57,45a60.58,60.58,0,0,0,.92-12.48q0-12.45-2.11-16.72t-6.32-4.29c-2.87,0-5,1.46-6.22,4.37S100.92,24.21,100.92,32.08Z"/><polygon class="cls-1" points="144.71 1.06 164.01 1.06 164.01 48.14 194.13 48.14 194.13 63.52 144.71 63.52 144.71 1.06"/></g></g></svg>