<svg xmlns="http://www.w3.org/2000/svg" viewBox="0 0 194.13 63.52"><defs><style>.cls-1,.cls-2{fill:#121212;}.cls-1{fill-rule:evenodd;}</style></defs><title>1_2L</title><g id="Layer_2" data-name="Layer 2"><g id="Layer_1-2" data-name="Layer 1"><path class="cls-1" d="M35.78,0V63.52H18.23V21.9A54.16,54.16,0,0,1,10,27.14,65.15,65.15,0,0,1,0,31V16.74q8.87-2.85,13.76-6.86A28,28,0,0,0,21.43,0Z"/><rect class="cls-2" x="56.36" y="46.14" width="18.53" height="17.38"/><path class="cls-1" d="M134.49,63.52H82.43A32.72,32.72,0,0,1,87.86,49q4.55-6.8,17-16,7.62-5.66,9.76-8.6a9.64,9.64,0,0,0,2.13-5.58,6.53,6.53,0,0,0-2.11-4.88,8.06,8.06,0,0,0-10.74.06c-1.4,1.39-2.35,3.85-2.83,7.37l-17.38-1.4q1-7.34,3.75-11.44a17.47,17.47,0,0,1,7.69-6.31C98.46.73,103,0,108.89,0Q118,0,123.14,2.09a17.31,17.31,0,0,1,8,6.41,16.89,16.89,0,0,1,2.92,9.69,19.85,19.85,0,0,1-3.34,10.91q-3.34,5.19-12.16,11.41-5.25,3.63-7,5.07t-4.16,3.79h27.1Z"/><polygon class="cls-1" points="144.71 1.06 164.01 1.06 164.01 48.14 194.13 48.14 194.13 63.52 144.71 63.52 144.71 1.06"/></g></g></svg>