<svg xmlns="http://www.w3.org/2000/svg" viewBox="0 0 631.81 70.24"><defs><style>.cls-1{fill:#231f20;stroke:#231f20;stroke-miterlimit:22.93;stroke-width:0.22px;}.cls-1,.cls-2{fill-rule:evenodd;}.cls-2{fill:#121212;}</style></defs><title>Sparky</title><g id="Layer_2" data-name="Layer 2"><g id="Layer_1-2" data-name="Layer 1"><path class="cls-1" d="M244.66,10.71l33.94,0c6.17,0,6.11,2.32,6.09,5.88V29.8l-45.94,0,0-13.14C238.72,13.3,240.74,10.74,244.66,10.71Zm-5.94,58.74,0-27.73,45.88.08.05,27.62,23.72,0V14.69c0-.61.27-14.46-16.74-14.43l-65,.06C214.61.21,215.1,12.11,215.09,12.53L215,69.46Z"/><path class="cls-1" d="M523.09,69.4H500.82c0-10.71,0-17.93,0-28.63,0-1.26.09-1.93-2.16-1.86l-39.88,0c-1.57,0-1.55.06-1.55,1.27L457,69.22l-22.46,0,.05-57.29c0-.38-.05.13-.05-11.77h22.71L457.2,27,494.06.11h29.76L484.91,27c9.84.15,17.16.24,22.6.28,9.28.06,15.26,3.55,15.26,12.16C522.78,46.67,522.67,54,523.09,69.4Z"/><path class="cls-1" d="M.13,18V9.35C.24,2.07,2.35,0,9.41.11h80V12L27,12c-2.89,0-3.05.19-3,2.84,0,2.11,0,4.24,0,6.35,0,2.35.53,2.74,3.22,2.74H79.32c6,0,10.18,4.12,10.18,10.25,0,9.86-.11,15.59-.11,25.45,0,5.95-3,9.72-9.78,9.79l-79.5.07,0-9.86H62.75c2.26,0,2.84-.76,2.84-3.06,0-5.84-.11-5.35-.11-11.19,0-2.63-.65-3.74-3.28-3.75-17.51,0-34.84,0-52.37,0C2.61,41.68.08,37.1.13,29.87Z"/><path class="cls-1" d="M131.07,10.61l39.75,0c4.37.07,4.41,2.32,4.4,5.88q0,7.22,0,14.44c0,4.19-.84,4.86-4.78,4.91H131.05l-.12-19.35C130.94,13.15,131,17.26,131.07,10.61Zm-.13,58.69L131,45.87c18.35,0,36.7-.07,55.05-.08,8.71-.11,10.35-2.16,10.49-8.14l0-27.12C196.4,2.4,194.28.35,183.87.11H107.25c.09,16.07.07,11.86,0,12.27l0,56.93Z"/><path class="cls-1" d="M360.31,29.76c-9.07.11-8.34,7.5-3.12,12l32,27.7,33,0c1,.68-39.85-27.69-38.64-27.68h18.82c8.71-.11,11.76-3.21,11.9-9.19l0-22C414.12,2.4,412,.35,401.6.11H327.4c.09,16.07.07,11.86.06,12.27l-.06,56.93h23.69s0-52,.13-58.69l37.32,0c4.38.07,4.41,2.32,4.4,5.88,0,4.81,0,4.87.05,9.68,0,4.2-.21,3.7-4.15,3.75Z"/><polygon class="cls-2" points="631.81 0.83 605.85 0.83 583.25 29 560.64 0.83 534.68 0.83 572.3 46.13 572.3 70.24 594.02 70.24 594.02 46.13 631.81 0.83"/></g></g></svg>