<?xml version="1.0" encoding="utf-8"?>
<!-- Generator: Adobe Illustrator 27.9.1, SVG Export Plug-In . SVG Version: 6.00 Build 0)  -->
<svg class="w" version="1.1" xmlns="http://www.w3.org/2000/svg" xmlns:xlink="http://www.w3.org/1999/xlink" x="0px" y="0px"
	 viewBox="0 0 3813 2850.2" style="enable-background:new 0 0 3813 2850.2;" xml:space="preserve">
     $gradientDefs

	<g>
	<path class="maincolor" d="M464.8,196.2l114.6,853.3c2,14.8,4.6,29.1,8,43.6c3.7,15.9,8.5,31.6,14.4,46.9c5.8,15.2,12.7,30.1,20.5,44.4
		c8.8,16.1,18.1,31,28.6,46.1l82,118.1c11.9,17.2,21.4,36.1,28.2,55.9l0,0c7,20.2,12.5,44.1,16,65.1l17.7,109.1
		c40,247.9,74.9,459.7,116.8,707.3c18.4,108.5,37.2,217,56.3,325.4c13.2,74.8,27.2,152.1,41.5,228.7c0.5,2.6,2.4,4.5,5,4.8
		c12.7,1.7,25.5,3.4,38.5,5.1c9.3,1.2,14.3-6.8,12.6-16C875,1788.3,813.8,1115,762.5,281.2c-0.5-7.5-6.5-12.1-13.8-13.7
		c-96-21.8-189.5-47-279.2-75.3C467,191.3,464.4,193.6,464.8,196.2z"/>
	<path class="accentcolor" d="M19.3,2.3c0,0-0.1-0.1-0.1-0.1C9.3-3.3-2,4.2,0.3,18.4c128.4,779.8,352.6,1914.4,582.5,2555.9
		c46.8,130.6,90.7,213.5,271.4,245.8c35.3,6.3,73.7,12.5,114.3,18.4c1.8,0.3,3.5-1.2,3.2-3.1l-2.9-15.8c-0.3-1.8-1.7-3.1-3.5-3.4
		l-19.6-3.1c-29.3-4.6-58.6-9.3-87.9-14.3c-33-5.4-65.2-14.6-96.2-27.3c-27.5-11.3-52.6-27.8-73.9-48.6
		c-21.3-22-38.7-47.4-51.7-75.1c-12.3-26.3-23.2-53.2-32.8-80.6c-44.5-126.1-84.9-253.7-121.1-382.5
		c-31.8-112.8-62-226.1-90.5-339.8C247.2,1267,118.1,598.7,24.1,29.6L19.8,3.2C19.7,2.9,19.6,2.6,19.3,2.3z"/>
</g>
<g>
	<path class="maincolor" d="M3348.2,195.8l-114.6,853.3c-2,14.8-4.6,29.1-8,43.6c-3.7,15.9-8.5,31.6-14.4,46.9
		c-5.8,15.2-12.7,30.1-20.5,44.4c-8.8,16.1-18.1,31-28.6,46.1l-82,118.1c-11.9,17.2-21.4,36.1-28.2,55.9l0,0
		c-7,20.2-12.5,44.1-16,65.1l-17.7,109.1c-40,247.9-74.9,459.7-116.8,707.3c-18.4,108.5-37.2,217-56.3,325.4
		c-13.2,74.8-27.2,152.1-41.5,228.7c-0.5,2.6-2.4,4.5-5,4.8c-12.7,1.7-25.5,3.4-38.5,5.1c-9.3,1.2-14.3-6.8-12.6-16
		c190.3-1045.8,251.5-1719.1,302.9-2552.9c0.5-7.5,6.5-12.1,13.8-13.7c96-21.8,189.5-47,279.2-75.3
		C3346,190.9,3348.5,193.2,3348.2,195.8z"/>
	<path class="accentcolor" d="M3793.7,1.9c0,0,0.1-0.1,0.1-0.1c9.9-5.6,21.2,2,18.8,16.2C3684.2,797.8,3460,1932.4,3230.1,2574
		c-46.8,130.6-90.7,213.5-271.4,245.8c-35.3,6.3-73.7,12.5-114.3,18.4c-1.8,0.3-3.5-1.2-3.2-3.1l2.9-15.8c0.3-1.8,1.7-3.1,3.5-3.4
		l19.6-3.1c29.3-4.6,58.6-9.3,87.9-14.3c33-5.4,65.2-14.6,96.2-27.3c27.5-11.3,52.6-27.8,73.9-48.6c21.3-22,38.7-47.4,51.7-75.1
		c12.3-26.3,23.2-53.2,32.8-80.6c44.5-126.1,84.9-253.7,121.1-382.5c31.8-112.8,62-226.1,90.5-339.8
		c144.4-578,273.5-1246.2,367.6-1815.3l4.3-26.4C3793.3,2.5,3793.4,2.2,3793.7,1.9z"/>
</g>
</svg>
