<?xml version="1.0" encoding="utf-8"?>
<!-- Generator: Adobe Illustrator 27.9.1, SVG Export Plug-In . SVG Version: 6.00 Build 0)  -->
<svg class="w" version="1.1" xmlns="http://www.w3.org/2000/svg" xmlns:xlink="http://www.w3.org/1999/xlink" x="0px" y="0px"
	 viewBox="0 0 3813 2849.8" style="enable-background:new 0 0 3813 2849.8;" xml:space="preserve">
     $gradientDefs

		<g>
	<path class="accentcolor" d="M725.9,267.4c26.5,426.3,69.2,970.2,117.6,1363.5c48.8,394.5,109.1,787.5,180.8,1178.5
		c-54.9-7.6-109.6-16-164.2-25.3c-57.3-9.6-122.3-31.7-162.2-71.8c-40.7-40.9-62.5-97.6-81.1-150.4
		c-44.4-125.8-84.7-253.1-120.8-381.6c-31.8-112.7-61.9-225.8-90.4-339.4c-52.2-209.6-100.5-420.2-145.1-631.6
		C183.8,845.4,98.9,390.3,35.5,14.6c-0.5-2.7-2.1-4.7-4.4-6c-4-2.2-8-4.4-11.9-6.7C9.3-3.7-2,3.8,0.3,18
		C128.7,797.8,352.9,1932.4,582.8,2574c46.8,130.6,90.7,213.5,271.4,245.8c59,10.5,126.3,20.6,198.5,29.9c9.3,1.2,14.3-6.8,12.6-16
		C875,1787.9,813.8,1114.6,762.5,280.8c-0.5-7.5-6.5-12.1-13.8-13.7c-5.7-1.3-11.4-2.6-17.1-3.9
		C728.7,262.5,725.7,264.6,725.9,267.4z"/>
	<path class="maincolor" d="M76.3,39.5c61,359.1,145.1,809.4,219.5,1162.5c44.5,210.9,92.7,421.1,144.8,630.3
		c28.5,113.2,58.5,226,90.2,338.4c36.1,127.7,76.2,254.2,120.1,379.4c16,45.8,37.3,101.5,72.6,136.9c16.6,16,36,28.8,57.3,37.5
		c27.4,11.3,56,19.4,85.2,24.2c37.9,6.3,75.9,12.3,114,18c-106.3-586.3-188.2-1179-238.3-1773.2c-18-212.2-38.8-515.9-52.4-736.2
		c-0.2-2.9-2.5-4.9-5.3-5.5C461.7,197.1,254.8,124.2,81.7,35.4C79.2,34.2,75.8,36.8,76.3,39.5z"/>
</g>
<g>
	<path class="accentcolor" d="M3087.1,267.4c-26.5,426.3-69.2,970.2-117.6,1363.5c-48.8,394.5-109.1,787.5-180.8,1178.5
		c54.9-7.6,109.6-16,164.2-25.3c57.3-9.6,122.3-31.7,162.2-71.8c40.7-40.9,62.5-97.6,81.1-150.4c44.4-125.8,84.7-253.1,120.8-381.6
		c31.8-112.7,61.9-225.8,90.4-339.4c52.2-209.6,100.5-420.2,145.1-631.6c76.7-364.1,161.6-819.2,225-1194.9c0.5-2.7,2.1-4.7,4.4-6
		c4-2.2,8-4.4,11.9-6.7c9.9-5.6,21.2,2,18.8,16.2c-128.4,779.8-352.6,1914.4-582.5,2555.9c-46.8,130.6-90.7,213.5-271.4,245.8
		c-59,10.5-126.3,20.6-198.5,29.9c-9.3,1.2-14.3-6.8-12.6-16c190.3-1045.8,251.5-1719.1,302.9-2552.9c0.5-7.5,6.5-12.1,13.8-13.7
		c5.7-1.3,11.4-2.6,17.1-3.9C3084.3,262.5,3087.3,264.6,3087.1,267.4z"/>
	<path class="maincolor" d="M3736.7,39.5c-61,359.1-145.1,809.4-219.5,1162.5c-44.5,210.9-92.7,421.1-144.8,630.3
		c-28.5,113.2-58.5,226-90.2,338.4c-36.1,127.7-76.2,254.2-120.1,379.4c-16,45.8-37.3,101.5-72.6,136.9c-16.6,16-36,28.8-57.3,37.5
		c-27.4,11.3-56,19.4-85.2,24.2c-37.9,6.3-75.9,12.3-114,18c106.3-586.3,188.2-1179,238.3-1773.2c18-212.2,38.8-515.9,52.4-736.2
		c0.2-2.9,2.5-4.9,5.3-5.5c222.2-54.7,429.1-127.5,602.3-216.3C3733.8,34.2,3737.2,36.8,3736.7,39.5z"/>
</g>
</svg>
