<?xml version="1.0" encoding="utf-8"?>
<!-- Generator: Adobe Illustrator 27.9.1, SVG Export Plug-In . SVG Version: 6.00 Build 0)  -->
<svg class="w" version="1.1" xmlns="http://www.w3.org/2000/svg" xmlns:xlink="http://www.w3.org/1999/xlink" x="0px" y="0px"
	 viewBox="0 0 3813 2849.8" style="enable-background:new 0 0 3813 2849.8;" xml:space="preserve">
     $gradientDefs

		<path class="maincolor" d="M3549.9,1391.3c-197.6,61.3-399.8,111.8-606.1,150.9c-44.9,384.7-106,796.3-196.2,1291.4
	c-1.7,9.2,3.4,17.2,12.6,16c72.3-9.3,139.6-19.4,198.5-29.9c180.6-32.3,224.5-115.1,271.4-245.8
	C3341.5,2263.3,3451.5,1837,3549.9,1391.3z"/>
<g>
	<path class="accentcolor" d="M2951.6,1473.6c209.3-40.5,414.4-92.9,614.5-156.5c5.5-25.5,11-51.1,16.5-76.8
		c-202.8,66-410.7,120.4-623.2,162.4C2956.9,1426.3,2954.3,1449.9,2951.6,1473.6z"/>
	<path class="accentcolor" d="M2966.8,1334.1c215.5-43.5,426.4-99.9,631.7-168.4c5.4-25.7,10.8-51.5,16.1-77.2
		c-208,71.1-421.8,129.7-640.5,174.7C2971.7,1286.7,2969.3,1310.4,2966.8,1334.1z"/>
	<path class="accentcolor" d="M2980.8,1194.4c221.9-46.6,438.5-107.3,649.1-181.1c5.3-25.9,10.5-51.9,15.7-77.7
		c-213.2,76.6-432.9,139.6-658,187.8C2985.4,1147.1,2983.1,1170.7,2980.8,1194.4z"/>
	<path class="accentcolor" d="M2993.8,1054.6c228.4-49.9,451-115.2,666.7-194.6c5.1-26.2,10.2-52.3,15.3-78.3
		c-218.4,82.5-444.1,150.2-675.8,201.9C2998,1007.3,2995.9,1030.9,2993.8,1054.6z"/>
	<path class="accentcolor" d="M3005.8,914.7c235-53.5,463.7-123.6,684.6-209.2c5-26.4,10-52.7,14.9-78.9c-223.6,88.8-455.4,161.6-693.8,217
		C3009.7,867.3,3007.8,891,3005.8,914.7z"/>
	<path class="accentcolor" d="M3016.9,774.6c241.8-57.3,476.6-132.7,702.8-224.8c4.9-26.7,9.8-53.2,14.6-79.6
		c-228.8,95.7-466.7,174-712,233.2C3020.5,727.2,3018.7,750.9,3016.9,774.6z"/>
	<path class="accentcolor" d="M3027.2,634.3c248.7-61.3,489.7-142.5,721-241.7c4.8-27,9.6-53.8,14.3-80.4c-233.9,103-478,187.3-730.3,250.7
		C3030.6,586.8,3028.9,610.6,3027.2,634.3z"/>
	<path class="accentcolor" d="M3036.9,493.7c255.8-65.6,502.9-152.9,739.3-259.8c4.7-27.4,9.4-54.5,13.9-81.2
		c-238.9,111-489.1,201.6-748.5,269.5C3040,446.1,3038.5,470,3036.9,493.7z"/>
	<path class="accentcolor" d="M3046,352.8c262.9-70.3,516.2-164.2,757.4-279.3c3.1-18.7,6.2-37.2,9.2-55.4c1.9-11.7-5.3-18.9-13.5-18
		c-5.4,2.6-10.7,5.2-16.1,7.8c-141.3,78.3-308.5,145.3-490.1,199.4c-79.8,26.9-160.7,51.6-242.5,73.9
		C3049,305.2,3047.5,329,3046,352.8z"/>
</g>
<path class="maincolor" d="M869.4,1544.2c-206.1-38.7-408.2-88.8-605.6-149.5c98.2,444.4,208,869.4,319,1179.3
	c46.8,130.6,90.7,213.5,271.4,245.8c59,10.5,126.3,20.6,198.5,29.9c9.3,1.2,14.3-6.8,12.6-16
	C975.4,2339.4,914.3,1928.4,869.4,1544.2z"/>
<g>
	<path class="accentcolor" d="M247.6,1320.6c200,63.1,404.9,115,614,155.1c-2.7-23.7-5.3-47.3-7.8-70.8c-212.2-41.5-420.1-95.4-622.7-160.9
		C236.5,1269.5,242,1295,247.6,1320.6z"/>
	<path class="accentcolor" d="M215.3,1169.3c205.2,68,415.8,123.8,631.1,166.8c-2.5-23.7-4.9-47.3-7.3-70.8
		c-218.5-44.5-432.1-102.5-639.9-173.1C204.5,1117.9,209.9,1143.6,215.3,1169.3z"/>
	<path class="accentcolor" d="M183.9,1017.2c210.4,73.2,426.9,133.3,648.5,179.4c-2.3-23.7-4.5-47.3-6.7-70.9
		c-224.9-47.7-444.4-110.1-657.4-186.1C173.4,965.4,178.6,991.3,183.9,1017.2z"/>
	<path class="accentcolor" d="M153.2,864c215.6,78.8,438,143.5,666.1,192.9c-2.1-23.7-4.2-47.3-6.2-71C581.7,934.8,356.2,867.7,138,785.8
		C143,811.8,148.1,837.9,153.2,864z"/>
	<path class="accentcolor" d="M123.3,709.7c220.8,84.9,449.3,154.4,684,207.3c-2-23.7-3.9-47.3-5.7-71.1c-238.2-54.8-469.7-126.9-693.2-215
		C113.3,657.1,118.3,683.3,123.3,709.7z"/>
	<path class="accentcolor" d="M94.1,554.2c226,91.4,460.6,166.2,702.1,222.8c-1.8-23.7-3.6-47.4-5.3-71.2c-245-58.6-482.7-136.2-711.4-231.1
		C84.3,501,89.2,527.5,94.1,554.2z"/>
	<path class="accentcolor" d="M65.6,397.3c231.2,98.5,471.9,178.9,720.4,239.5c-1.7-23.7-3.3-47.4-5-71.3c-252-62.8-495.9-146.2-729.6-248.5
		C56,343.6,60.7,370.3,65.6,397.3z"/>
	<path class="accentcolor" d="M37.6,238.9c236.2,106,483.1,192.6,738.6,257.5c-1.6-23.7-3.1-47.5-4.7-71.4
		c-259.1-67.2-509.1-157-747.8-267.1C28.3,184.5,32.9,211.5,37.6,238.9z"/>
	<path class="accentcolor" d="M10.4,78.8C251.4,193,504.5,286.1,767.1,355.6c-1.5-23.7-3-47.6-4.5-71.6c-119.2-32.2-236.4-69.4-351.3-111.3
		C306,137.1,206.7,97,116,52.6C79.3,36.1,42.8,19.1,6.6,1.5C2,4.2-1,10.1,0.3,18C3.6,38.1,7,58.3,10.4,78.8z"/>
</g>
</svg>
