<?xml version="1.0" encoding="utf-8"?>
<!-- Generator: Adobe Illustrator 27.9.1, SVG Export Plug-In . SVG Version: 6.00 Build 0)  -->
<svg class="w" version="1.1" xmlns="http://www.w3.org/2000/svg" xmlns:xlink="http://www.w3.org/1999/xlink" x="0px" y="0px"
	 viewBox="0 0 3813 2850.2" style="enable-background:new 0 0 3813 2850.2;" xml:space="preserve">
     $gradientDefs

	<g>
	<path class="maincolor" d="M971.7,2835.4c-2.6-13.8-5.1-27.7-7.6-41.5c-66.9-364.5-148.5-859.1-204.9-1209.5l-17.6-108.8
		c-1.9-10.7-4.1-21.3-6.6-31.8c-6.3-26.9-15.7-51.6-31.8-74.7l0,0l-82-118c-42.8-61.1-67.5-120.9-77.5-196.8l-117-871.7
		c-0.4-2.9-2.4-5.1-5.2-6C273.4,127,137,68.6,19.1,2.2C9.3-3.3-2,4.2,0.3,18.4c128.4,779.8,352.6,1914.4,582.5,2555.9
		c46.8,130.6,90.7,213.5,271.4,245.8c35.3,6.3,73.7,12.5,114.3,18.4C970.3,2838.7,972,2837.2,971.7,2835.4z"/>
	<path class="maincolor" d="M2841.3,2835c2.6-13.8,5.1-27.7,7.6-41.5c66.9-364.5,148.5-859.1,204.9-1209.5l17.6-108.8
		c1.9-10.7,4.1-21.3,6.6-31.8c6.3-26.9,15.7-51.6,31.8-74.7l0,0l82-118c42.8-61.1,67.5-120.9,77.5-196.8l117-871.7
		c0.4-2.9,2.4-5.1,5.2-6C3539.6,126.6,3676,68.3,3793.8,1.8c9.9-5.6,21.2,2,18.8,16.2C3684.2,797.8,3460,1932.4,3230.1,2574
		c-46.8,130.6-90.7,213.5-271.4,245.8c-35.3,6.3-73.7,12.5-114.3,18.4C2842.7,2838.4,2841,2836.9,2841.3,2835z"/>
</g>
<g>
	<path class="accentcolor" d="M1063.5,2824.1c-19.6-2.2-39.1-4.5-58.6-6.8c1.4,7.6,2.8,15.3,4.3,22.9c0.5,2.6,2.4,4.5,5,4.8
		c12.7,1.7,25.5,3.4,38.5,5.1c9.3,1.2,14.3-6.8,12.6-16C1064.7,2830.7,1064.1,2827.4,1063.5,2824.1z"/>
	<path class="accentcolor" d="M992.8,2751.4c19.6,2.4,39.2,4.8,58.9,7c-2.1-11.7-4.2-23.4-6.2-35c-19.7-2.3-39.3-4.7-59-7.1
		C988.6,2728,990.7,2739.7,992.8,2751.4z"/>
	<path class="accentcolor" d="M974.7,2650.4c19.7,2.5,39.4,5,59.2,7.3c-2.1-12.2-4.2-24.3-6.3-36.4c-19.8-2.4-39.6-4.9-59.3-7.4
		C970.3,2626,972.5,2638.2,974.7,2650.4z"/>
	<path class="accentcolor" d="M956.6,2548c19.9,2.6,39.7,5.2,59.6,7.6c-2.2-12.7-4.3-25.3-6.4-37.8c-20-2.5-39.9-5.1-59.8-7.8
		C952.1,2522.7,954.4,2535.3,956.6,2548z"/>
	<path class="accentcolor" d="M938.5,2444c20.1,2.7,40.2,5.4,60.3,8c-2.2-13.1-4.3-26.2-6.5-39.2c-20.2-2.6-40.4-5.3-60.6-8.1
		C933.9,2417.8,936.2,2430.9,938.5,2444z"/>
	<path class="accentcolor" d="M920.4,2338.6c20.4,2.9,40.8,5.7,61.2,8.4c-2.2-13.6-4.4-27.2-6.5-40.6c-20.6-2.8-41.1-5.6-61.6-8.6
		C915.7,2311.4,918,2325,920.4,2338.6z"/>
	<path class="accentcolor" d="M902.2,2231.6c20.8,3,41.6,6,62.4,8.9c-2.2-14.1-4.4-28.1-6.5-42c-21-2.9-42.1-5.9-63-9.1
		C897.5,2203.4,899.8,2217.4,902.2,2231.6z"/>
	<path class="accentcolor" d="M884,2123.1c21.3,3.2,42.7,6.4,64.1,9.4c-2.2-14.6-4.3-29-6.5-43.5c-21.7-3.1-43.3-6.3-64.9-9.7
		C879.1,2093.9,881.6,2108.5,884,2123.1z"/>
	<path class="accentcolor" d="M865.7,2013c22.1,3.5,44.2,6.8,66.3,10.1c-2.2-15-4.3-30-6.4-44.9c-22.5-3.3-45-6.8-67.4-10.4
		C860.7,1982.9,863.2,1998,865.7,2013z"/>
	<path class="accentcolor" d="M847.2,1901.4c23,3.7,46,7.4,69.1,10.9c-2.1-15.5-4.3-30.9-6.3-46.3c-23.5-3.6-47-7.4-70.5-11.2
		C842.1,1870.3,844.7,1885.9,847.2,1901.4z"/>
	<path class="accentcolor" d="M828.6,1788.2c24.1,4.1,48.3,8,72.5,11.8c-2.1-16-4.2-31.9-6.2-47.7c-24.8-3.9-49.5-8-74.2-12.2
		C823.4,1756.2,826,1772.2,828.6,1788.2z"/>
	<path class="accentcolor" d="M809.9,1673.4c25.5,4.5,51,8.8,76.6,12.9c-2.1-16.4-4.1-32.8-6.1-49.1c-26.2-4.3-52.4-8.8-78.6-13.4
		C804.6,1640.4,807.3,1656.9,809.9,1673.4z"/>
	<path class="accentcolor" d="M791.1,1556.9c27.1,4.9,54.2,9.6,81.4,14.2c-2-16.9-4-33.7-5.9-50.5c-28-4.8-55.9-9.7-83.8-14.8L791.1,1556.9z
		"/>
	<path class="accentcolor" d="M770.7,1438.5c29.4,5.5,58.9,10.9,88.5,16c-1.9-17.4-3.8-34.7-5.7-51.9c-33.6-5.9-67.2-12.1-100.6-18.5
		c3,6.7,5.7,13.5,8.1,20.4l0,0C764.6,1415.1,767.9,1426.8,770.7,1438.5z"/>
	<path class="accentcolor" d="M705.7,1309.6c46.7,9.5,93.6,18.5,140.7,26.9c-1.9-17.8-3.7-35.6-5.5-53.3c-59.6-10.8-119-22.5-178-35.1
		L705.7,1309.6z"/>
	<path class="accentcolor" d="M615.9,1172.3c72.3,16.2,145.1,31.1,218.4,44.6c-1.8-18.3-3.5-36.5-5.3-54.7c-79.4-14.9-158.3-31.4-236.5-49.4
		c2.7,9.2,5.7,18.2,9.2,27.2C605.9,1151,610.6,1161.8,615.9,1172.3z"/>
	<path class="accentcolor" d="M578.6,1044c80.8,19.1,162.2,36.5,244.3,52.1c-1.7-18.7-3.4-37.4-5-56.2c-83-16-165.3-33.9-247-53.5
		L578.6,1044z"/>
	<path class="accentcolor" d="M561.7,918.5c82.7,20.3,166.2,38.7,250.3,55.2c-1.6-19.2-3.2-38.4-4.8-57.6c-85.2-17-169.7-36-253.5-56.8
		L561.7,918.5z"/>
	<path class="accentcolor" d="M544.6,791.1c85,21.6,170.7,41.2,257.3,58.8c-1.6-19.6-3.1-39.3-4.6-59c-87.7-18.1-174.7-38.3-260.8-60.6
		L544.6,791.1z"/>
	<path class="accentcolor" d="M527.3,661.9c87.5,23.1,175.8,44,265,62.7c-1.5-20.1-3-40.3-4.4-60.5c-90.5-19.3-180.2-40.9-268.9-64.7
		L527.3,661.9z"/>
	<path class="accentcolor" d="M509.7,530.7c90.2,24.7,181.4,47.1,273.5,67.1c-1.4-20.6-2.9-41.2-4.3-61.9c-93.6-20.6-186.2-43.8-277.8-69.4
		L509.7,530.7z"/>
	<path class="accentcolor" d="M491.8,397.5c93.2,26.6,187.4,50.6,282.6,71.9c-1.4-21-2.8-42.2-4.1-63.4c-96.9-22.1-192.7-47-287.4-74.5
		L491.8,397.5z"/>
	<path class="accentcolor" d="M473.6,262.2c96.3,28.6,193.8,54.4,292.4,77.3c-1.2-19.4-2.4-38.8-3.6-58.3c-0.2-2.8-1.1-5.1-2.5-7.1
		c-99.5-23.5-197.9-50.1-295-79.5c-0.2,0.5-0.2,1-0.2,1.6L473.6,262.2z"/>
</g>
<g>
	<path class="accentcolor" d="M2808,2816.7c-19.5,2.4-39,4.7-58.6,6.9c-0.6,3.4-1.2,6.7-1.8,10.1c-1.7,9.2,3.4,17.2,12.6,16
		c13-1.7,25.9-3.4,38.5-5.1c2.6-0.4,4.5-2.3,5-4.8C2805.2,2832.1,2806.6,2824.4,2808,2816.7z"/>
	<path class="accentcolor" d="M2761.3,2758c19.6-2.3,39.3-4.6,58.9-7.1c2.1-11.7,4.3-23.4,6.4-35.1c-19.6,2.5-39.3,4.9-59,7.2
		C2765.5,2734.6,2763.4,2746.2,2761.3,2758z"/>
	<path class="accentcolor" d="M2779.1,2657.3c19.8-2.4,39.5-4.8,59.2-7.4c2.2-12.2,4.3-24.4,6.5-36.5c-19.8,2.6-39.5,5.1-59.4,7.5
		C2783.4,2632.9,2781.3,2645.1,2779.1,2657.3z"/>
	<path class="accentcolor" d="M2796.8,2555.1c19.9-2.5,39.8-5,59.6-7.7c2.2-12.6,4.4-25.3,6.6-37.9c-19.9,2.7-39.9,5.3-59.8,7.8
		C2801.1,2529.8,2798.9,2542.4,2796.8,2555.1z"/>
	<path class="accentcolor" d="M2814.2,2451.5c20.1-2.6,40.2-5.3,60.3-8c2.3-13.1,4.5-26.3,6.8-39.4c-20.2,2.8-40.4,5.5-60.6,8.2
		C2818.6,2425.3,2816.4,2438.4,2814.2,2451.5z"/>
	<path class="accentcolor" d="M2831.4,2346.4c20.4-2.7,40.8-5.5,61.2-8.4c2.3-13.6,4.6-27.2,6.9-40.8c-20.5,3-41.1,5.8-61.6,8.6
		C2835.8,2319.3,2833.6,2332.8,2831.4,2346.4z"/>
	<path class="accentcolor" d="M2848.3,2239.9c20.8-2.9,41.7-5.8,62.4-8.9c2.4-14.2,4.8-28.3,7.1-42.3c-21,3.1-42,6.2-63,9.1
		C2852.7,2211.8,2850.5,2225.8,2848.3,2239.9z"/>
	<path class="accentcolor" d="M2864.9,2131.9c21.4-3.1,42.8-6.2,64.1-9.5c2.5-14.6,4.9-29.2,7.3-43.7c-21.6,3.3-43.3,6.6-65,9.7
		C2869.2,2102.9,2867,2117.4,2864.9,2131.9z"/>
	<path class="accentcolor" d="M2881,2022.5c22.2-3.3,44.3-6.6,66.4-10.1c2.5-15.1,5-30.1,7.5-45.2c-22.4,3.6-44.9,7.1-67.4,10.4
		C2885.3,1992.5,2883.2,2007.5,2881,2022.5z"/>
	<path class="accentcolor" d="M2896.7,1911.6c23.1-3.5,46.1-7.2,69.1-10.9c2.6-15.5,5.1-31.1,7.7-46.7c-23.5,3.9-46.9,7.7-70.5,11.3
		C2900.9,1880.7,2898.8,1896.1,2896.7,1911.6z"/>
	<path class="accentcolor" d="M2911.8,1799.3c24.2-3.8,48.4-7.8,72.6-11.9c2.6-16,5.2-32,7.9-48.1c-24.7,4.2-49.4,8.3-74.2,12.3
		C2916,1767.5,2913.9,1783.4,2911.8,1799.3z"/>
	<path class="accentcolor" d="M2926.4,1685.6c25.6-4.2,51.1-8.5,76.6-13c2.7-16.4,5.3-33,8-49.6c-26.1,4.7-52.3,9.2-78.6,13.5
		C2930.5,1652.8,2928.5,1669.1,2926.4,1685.6z"/>
	<path class="accentcolor" d="M2940.5,1570.4c27.2-4.6,54.4-9.3,81.5-14.3l8.3-51.2c-27.9,5.2-55.8,10.1-83.8,14.9
		C2944.4,1536.6,2942.5,1553.5,2940.5,1570.4z"/>
	<path class="accentcolor" d="M2953.9,1453.8c29.6-5.1,59.1-10.5,88.6-16.1c2.8-11.6,6-23.2,9.6-33.7l0,0c2.4-7.1,5.2-14,8.3-20.9
		c-33.5,6.5-67.1,12.7-100.8,18.6C2957.7,1419.1,2955.8,1436.4,2953.9,1453.8z"/>
	<path class="accentcolor" d="M2966.6,1335.7c47.2-8.5,94.3-17.5,141.1-27.1l42.8-61.6c-59.1,12.7-118.6,24.4-178.4,35.3
		C2970.3,1300.1,2968.5,1317.9,2966.6,1335.7z"/>
	<path class="accentcolor" d="M2978.7,1216.2c73.4-13.6,146.3-28.6,218.7-44.9c5.1-10.4,9.8-21,13.9-31.8c3.5-9.1,6.6-18.4,9.3-27.8
		c-78.3,18.1-157.2,34.7-236.7,49.6C2982.2,1179.7,2980.5,1197.9,2978.7,1216.2z"/>
	<path class="accentcolor" d="M2990.1,1095.3c82.1-15.7,163.5-33.2,244.3-52.3l7.7-57.6c-81.7,19.7-164,37.6-247,53.7
		C2993.5,1057.8,2991.8,1076.5,2990.1,1095.3z"/>
	<path class="accentcolor" d="M3000.9,972.9c84.2-16.6,167.6-35.1,250.4-55.5l7.9-59.2c-83.8,20.9-168.3,40-253.5,57.1
		C3004.2,934.5,3002.5,953.7,3000.9,972.9z"/>
	<path class="accentcolor" d="M3011.1,849c86.5-17.7,172.3-37.3,257.3-59l8.2-60.8c-86.1,22.3-173.1,42.6-260.9,60.8
		C3014.2,809.7,3012.7,829.4,3011.1,849z"/>
	<path class="accentcolor" d="M3020.7,723.7c89.2-18.8,177.5-39.8,265-63l8.4-62.5c-88.8,23.9-178.5,45.6-269,65
		C3023.7,683.4,3022.2,703.6,3020.7,723.7z"/>
	<path class="accentcolor" d="M3029.9,596.8c92.1-20.1,183.3-42.5,273.5-67.4l8.6-64.2c-91.6,25.7-184.3,48.9-277.9,69.6
		C3032.7,555.6,3031.3,576.3,3029.9,596.8z"/>
	<path class="accentcolor" d="M3038.6,468.5c95.3-21.5,189.5-45.6,282.7-72.2l8.9-66c-94.7,27.6-190.5,52.6-287.4,74.8
		C3041.3,426.3,3039.9,447.4,3038.6,468.5z"/>
	<path class="accentcolor" d="M3046.9,338.5c98.7-23,196.2-48.9,292.5-77.6l8.7-65.1c0.1-0.9-0.1-1.7-0.5-2.4c-96.8,29.4-194.8,56-294,79.6
		c-1.8,2.1-2.9,4.7-3.1,7.8C3049.3,300.1,3048.1,319.4,3046.9,338.5z"/>
</g>
</svg>
