<?xml version="1.0" encoding="utf-8"?>
<!-- Generator: Adobe Illustrator 27.9.1, SVG Export Plug-In . SVG Version: 6.00 Build 0)  -->
<svg class="w" version="1.1" xmlns="http://www.w3.org/2000/svg" xmlns:xlink="http://www.w3.org/1999/xlink" x="0px" y="0px"
	 viewBox="0 0 3813 2850.2" style="enable-background:new 0 0 3813 2850.2;" xml:space="preserve">
     $gradientDefs

	<g>
	<path class="maincolor" d="M971.7,2835.4c-2.6-13.8-5.1-27.7-7.6-41.5c-66.9-364.5-148.5-859.1-204.9-1209.5l-17.6-108.8
		c-1.9-10.7-4.1-21.3-6.6-31.8c-6.3-26.9-15.7-51.6-31.8-74.7l0,0l-82-118c-42.8-61.1-67.5-120.9-77.5-196.8l-117-871.7
		c-0.4-2.9-2.4-5.1-5.2-6C273.4,127,137,68.6,19.1,2.2C9.3-3.3-2,4.2,0.3,18.4c128.4,779.8,352.6,1914.4,582.5,2555.9
		c46.8,130.6,90.7,213.5,271.4,245.8c35.3,6.3,73.7,12.5,114.3,18.4C970.3,2838.7,972,2837.2,971.7,2835.4z"/>
	<path class="accentcolor" d="M1052.7,2850c3.9,0.7,7.6-0.7,10.1-3.7c2.6-3.5,3.5-8,2.6-12.3c-34.3-188.1-66.4-376.5-96.3-565.3
		c-33.7-213.4-63.7-427.4-89.9-641.8c-25.8-212.6-47.8-425.7-66-639.1c-19.8-235.3-36.7-470.9-50.8-706.7
		c-0.4-7.7-7.1-12.3-13.8-13.7c-94.1-21.3-187.2-46.4-279.2-75.3c-2-0.5-4,0.7-4.5,2.7c-0.1,0.4-0.1,0.9-0.1,1.4l2.2,15
		c0.2,1.8,1.5,3.2,3.2,3.7l19.7,6.2c82.9,25.4,166.7,47.6,251.3,66.8c14,234.1,30.9,468,50.5,701.7
		c53.3,631.7,137,1214.9,250.3,1837.2l3.7,18.6C1046.1,2847.7,1049.4,2849.4,1052.7,2850z"/>
</g>
<g>
	<path class="maincolor" d="M2841.3,2835c2.6-13.8,5.1-27.7,7.6-41.5c66.9-364.5,148.5-859.1,204.9-1209.5l17.6-108.8
		c1.9-10.7,4.1-21.3,6.6-31.8c6.3-26.9,15.7-51.6,31.8-74.7l0,0l82-118c42.8-61.1,67.5-120.9,77.5-196.8l117-871.7
		c0.4-2.9,2.4-5.1,5.2-6C3539.6,126.6,3676,68.3,3793.8,1.8c9.9-5.6,21.2,2,18.8,16.2C3684.2,797.8,3460,1932.4,3230.1,2574
		c-46.8,130.6-90.7,213.5-271.4,245.8c-35.3,6.3-73.7,12.5-114.3,18.4C2842.7,2838.4,2841,2836.9,2841.3,2835z"/>
	<path class="accentcolor" d="M2760.2,2849.6c-3.9,0.7-7.6-0.7-10.1-3.7c-2.6-3.5-3.5-8-2.6-12.3c34.3-188.1,66.4-376.5,96.3-565.3
		c33.7-213.4,63.7-427.4,89.9-641.8c25.8-212.6,47.8-425.7,66-639.1c19.8-235.3,36.7-470.9,50.8-706.7c0.4-7.7,7.1-12.3,13.8-13.7
		c94.1-21.3,187.2-46.4,279.2-75.3c2-0.5,4,0.7,4.5,2.7c0.1,0.4,0.1,0.9,0.1,1.4l-2.2,15c-0.2,1.8-1.5,3.2-3.2,3.7l-19.7,6.2
		c-82.9,25.4-166.7,47.6-251.3,66.8c-14,234.1-30.9,468-50.6,701.7c-53.3,631.7-137,1214.9-250.3,1837.2l-3.7,18.6
		C2766.9,2847.3,2763.6,2849,2760.2,2849.6z"/>
</g>
</svg>
