<?xml version="1.0" encoding="utf-8"?>
<!-- Generator: Adobe Illustrator 27.9.1, SVG Export Plug-In . SVG Version: 6.00 Build 0)  -->
<svg class="w" version="1.1" xmlns="http://www.w3.org/2000/svg" xmlns:xlink="http://www.w3.org/1999/xlink" x="0px" y="0px"
	 viewBox="0 0 3813 2850.2" style="enable-background:new 0 0 3813 2850.2;" xml:space="preserve">
     $gradientDefs

		<g>
	<path class="maincolor" d="M971.7,2835.4c-2.6-13.8-5.1-27.7-7.6-41.5c-66.9-364.5-148.5-859.1-204.9-1209.5l-17.6-108.8
		c-1.9-10.7-4.1-21.3-6.6-31.8c-6.3-26.9-15.7-51.6-31.8-74.7l0,0l-82-118c-42.8-61.1-67.5-120.9-77.5-196.8l-117-871.7
		c-0.4-2.9-2.4-5.1-5.2-6C273.4,127,137,68.6,19.1,2.2C9.3-3.3-2,4.2,0.3,18.4c128.4,779.8,352.6,1914.4,582.5,2555.9
		c46.8,130.6,90.7,213.5,271.4,245.8c35.3,6.3,73.7,12.5,114.3,18.4C970.3,2838.7,972,2837.2,971.7,2835.4z"/>
	<path class="accentcolor" d="M464.8,196.2l114.6,853.3c2,14.8,4.6,29.1,8,43.6c3.7,15.9,8.5,31.6,14.4,46.9c5.8,15.2,12.7,30.1,20.5,44.4
		c8.8,16.1,18.1,31,28.6,46.1l82,118.1c11.9,17.2,21.4,36.1,28.2,55.9l0,0c7,20.2,12.5,44.1,16,65.1l17.7,109.1
		c40,247.9,74.9,459.7,116.8,707.3c18.4,108.5,37.2,217,56.3,325.4c13.2,74.8,27.2,152.1,41.5,228.7c0.5,2.6,2.4,4.5,5,4.8
		c12.7,1.7,25.5,3.4,38.5,5.1c9.3,1.2,14.3-6.8,12.6-16C875,1788.3,813.8,1115,762.5,281.2c-0.5-7.5-6.5-12.1-13.8-13.7
		c-96-21.8-189.5-47-279.2-75.3C467,191.3,464.4,193.6,464.8,196.2z"/>
</g>
<g>
	<path class="maincolor" d="M2841.3,2835c2.6-13.8,5.1-27.7,7.6-41.5c66.9-364.5,148.5-859.1,204.9-1209.5l17.6-108.8
		c1.9-10.7,4.1-21.3,6.6-31.8c6.3-26.9,15.7-51.6,31.8-74.7l0,0l82-118c42.8-61.1,67.5-120.9,77.5-196.8l117-871.7
		c0.4-2.9,2.4-5.1,5.2-6C3539.6,126.6,3676,68.3,3793.8,1.8c9.9-5.6,21.2,2,18.8,16.2C3684.2,797.8,3460,1932.4,3230.1,2574
		c-46.8,130.6-90.7,213.5-271.4,245.8c-35.3,6.3-73.7,12.5-114.3,18.4C2842.7,2838.4,2841,2836.9,2841.3,2835z"/>
	<path class="accentcolor" d="M3348.2,195.8l-114.6,853.3c-2,14.8-4.6,29.1-8,43.6c-3.7,15.9-8.5,31.6-14.4,46.9
		c-5.8,15.2-12.7,30.1-20.5,44.4c-8.8,16.1-18.1,31-28.6,46.1l-82,118.1c-11.9,17.2-21.4,36.1-28.2,55.9l0,0
		c-7,20.2-12.5,44.1-16,65.1l-17.7,109.1c-40,247.9-74.9,459.7-116.8,707.3c-18.4,108.5-37.2,217-56.3,325.4
		c-13.2,74.8-27.2,152.1-41.5,228.7c-0.5,2.6-2.4,4.5-5,4.8c-12.7,1.7-25.5,3.4-38.5,5.1c-9.3,1.2-14.3-6.8-12.6-16
		c190.3-1045.8,251.5-1719.1,302.9-2552.9c0.5-7.5,6.5-12.1,13.8-13.7c96-21.8,189.5-47,279.2-75.3
		C3346,190.9,3348.5,193.2,3348.2,195.8z"/>
</g>
</svg>
