<?xml version="1.0" encoding="utf-8"?>
<!-- Generator: Adobe Illustrator 27.9.1, SVG Export Plug-In . SVG Version: 6.00 Build 0)  -->
<svg class="w" version="1.1" xmlns="http://www.w3.org/2000/svg" xmlns:xlink="http://www.w3.org/1999/xlink" x="0px" y="0px"
	 viewBox="0 0 3813 2849.8" style="enable-background:new 0 0 3813 2849.8;" xml:space="preserve">
     $gradientDefs

<style type="text/css">
	.maincolor{fill-rule:evenodd;clip-rule:evenodd;}
</style>
<path class="maincolor" d="M0.3,18C128.7,797.8,352.9,1932.4,582.8,2574c46.8,130.6,90.7,213.5,271.4,245.8c59,10.5,126.3,20.6,198.5,29.9
	c9.3,1.2,14.3-6.8,12.6-16C875,1787.9,813.8,1114.6,762.5,280.8c-0.5-7.5-6.5-12.1-13.8-13.7C474.2,204.7,219.8,114.9,19.1,1.8
	C9.3-3.7-2,3.8,0.3,18z M567.4,2357.4c12.9,44.8,27.7,88.7,44.5,132.9c0.7,2.1,1.1,4.1,1,5.9c-0.2,1.4-1,2.2-2,2.3
	c-1,0.1-2.3-0.6-3.4-1.9c-6.9-8.1-12.8-17.9-17.1-28.3c-4.5-8.8-7.9-17.9-9.9-26.7l-1.4-5.4c-0.5-1.1-1.4-2-2.2-2
	c-0.9-0.1-1.7,0-2.4,0.4c-0.6,0.3-1.3,0.4-2,0.4c-3.5-0.5-7.6-5-9.1-9.9c-4.8-19.9-7.2-39.2-7.1-57.3c-1-15.9-2.3-32.3-4.1-49.3
	l0.1-5.6c0.2-0.6,0.7-0.9,1.3-0.7c0.5,0.2,1.1,0.8,1.4,1.5C559.4,2328.5,563.5,2343.1,567.4,2357.4L567.4,2357.4z M587.8,2330.5
	c2.2,8.6,4.4,17.1,6.8,25.5c14.9,55.7,33.8,110.2,56.1,164.8c1.9,4,5.1,6.5,7.4,5.7l2.5-2.4l1.2-1.5c0.8-0.8,2-0.8,3.2-0.1l1.9,1.6
	c3,2.5,6.1,2.7,8,0.6c1.9-2.1,2.5-6.1,1.3-10.5c-22.6-61.7-42.2-124.1-58.7-190.2c-12-38.2-22.8-79.3-32.3-123.6
	c-17.3-99.3-43.1-220.5-79.5-367.6c-14-70.6-32.4-147.3-55.4-229.5c-1.3-5-3.1-10-5.2-14.4c-0.5-1.1-1.1-1.7-1.6-1.7
	c-0.4,0-0.6,0.8-0.5,1.8c2.7,12.3,5.6,24.5,8.7,36.5c4,16,7.7,31.8,11.3,47.4c0.4,2.6,0.3,4.9-0.3,6.3c-0.4,1-1.3,0.8-2.2-0.5
	c-2.2-3.8-4.2-8.1-5.8-12.8c-10-30.8-19.4-62.8-28.1-95.9c-3.8-12.5-7.5-25.3-11.1-38.2c-1.6-6.2-2.3-12.4-2.1-17.6
	c0.2-4.2,0.8-8,1.6-11.4c0.8-3.1,1.3-6.7,1.6-10.6c0.3-4.6-0.3-10.2-1.8-16c-44.1-165.8-102.6-349.2-176.4-545.6
	c-3-7.8-6.7-14.4-10.4-18.8l-5.3-4.2c-5.4-4.9-10.9-10.9-16.4-17.8c-1.2-1.4-2.3-2-3.1-1.6c-0.6,0.3-0.8,1.5-0.6,3.3l5.5,23
	c9.3,30.7,19.2,60.7,29.6,89.7c2.9,7.9,5.1,16.2,6.5,24.1l0.8,10.6c0.6,12.7,3.4,27.3,7.8,41.6c58,190.3,109.6,359.9,155.5,510.5
	c36,107.6,61.4,207.3,76.7,294.9C526.4,2074.1,559.8,2217.6,587.8,2330.5z M359.6,1374c-2.3-7.9-4.5-15.8-6.6-23.7l0-0.5
	c1.1,3.2,2.2,6.4,3.2,9.6c14.8,43.6,27.7,86.7,38.4,128.7c0,0.1,0,0.3,0,0.3c0,0.1-0.1,0-0.2-0.1c-0.4-0.5-0.7-1.2-1-2
	C381.1,1450.5,369.8,1412.9,359.6,1374z M646.6,2322.1c13.1,54.1,27.9,104.9,44.2,154c2.9,10.4,7,20.7,12.1,30.4
	c1.2,1.7,2.5,3.3,3.9,4.8c1,1.2,1.7,2.8,1.9,4.4l0.3,3.2c0.7,7.6,3.9,15.5,8.5,21.4c0.8,1.1,1.8,1.7,2.8,1.7l1.4-0.5
	c1-0.2,2-0.5,2.9-0.8c1-0.1,2.1,0.1,3.2,0.7c3,1.5,5.9,0.9,7.8-1.5c1.9-2.4,2.6-6.4,1.9-10.8c-2.3-10.7-5.5-21.3-9.5-31.5
	c-35.8-110.8-68.2-240.2-97.4-410.2c-40.2-232.8-113.8-553.9-234.2-975.5c-22.4-80.9-50.8-161.9-84.3-238.7
	c-2.9-5.9-6.2-9.9-9.2-11.2c-1-0.3-1.6,0.5-1.8,2.3c-0.3,2.8-0.1,6.2,0.5,9.8l41.7,174c0.2,1.2,0.1,2.1-0.4,2.3
	c-0.4,0.2-1-0.5-1.4-1.6c-14.1-45.1-29-91.1-44.5-137.9c-14.5-44-29.7-88.7-45.7-133.7l-4.2-9.5c-3.5-6-7.1-7.9-9.2-5
	c-2.1,3-2.2,10.3-0.3,18.5c2.1,9.6,4.7,19.3,7.8,28.5c129.5,370.3,219.6,684.9,277.7,940C577,2001.4,616.7,2185.2,646.6,2322.1z
	 M378.4,1092.9c-0.4-1.7-0.8-3.4-1.2-5.2c0,0,0,0,0,0c0,0,0,0,0,0c13.8,46.1,25.8,91.8,36.2,136.7c0.1,0.5,0,1-0.1,1.1
	c-0.1,0.1-0.4-0.1-0.5-0.5C399.7,1183,388.1,1138.6,378.4,1092.9z M887.4,1893.3c2.6,18.7,5.6,36.8,8.9,54.3c0.5,3.4,0.6,7,0.3,10.5
	c-0.1,1-0.5,1.9-1,2.3c-0.4,0.3-0.8,0.1-1-0.6c-1.1-4.5-2-9.1-2.8-13.9c-3.8-13.4-6.2-28.1-7.3-43.6c-0.5-5.8-0.5-11.8-0.1-17.7
	c0.1-0.6,0.3-1.1,0.6-1.3c0.2-0.2,0.5,0,0.6,0.3C886.6,1886.7,887.1,1890,887.4,1893.3L887.4,1893.3z M926.1,2490.3l3.1-5.4l0.2,4.3
	c2.9-1.4,4.7-4.6,4.7-8.3c-0.1-15.8-0.1-31.8-0.1-48.3c0.5-3.8,0.9-7.6,1.2-11.4c0.1-1.5-0.3-3-1.1-4.1l-1.6-1.8
	c-0.5-0.6-1-1.1-1.5-1.7l-6.3,2.6l3.5-6.5c-0.2-0.2-0.3-0.5-0.4-0.7c-0.5-1.1-0.7-2.4-0.6-3.6l-3.4-5.2l5.1,1.8
	c0.4-0.5,0.8-1,1.2-1.5c3.6-4.2,5.6-10.2,5.7-16.5c-0.2-10.4-0.2-20.9-0.1-31.7c6.7-35.5,4.9-76-6-116.1
	c-7.1-52.2-13.5-110.1-18.9-174.3c-1.6-19.9-3.8-40.2-6.5-60.8c-0.5-2-1.7-3.2-2.9-2.8c-1.2,0.4-2.2,2.1-2.3,4.4l0,6.2
	c1,14.5,2.1,28.6,3,42.5c0.4,4.7,0.3,9.3-0.2,13.9c-0.1,0.4-0.2,0.6-0.5,0.7c-0.2,0-0.4-0.2-0.5-0.5c-4.6-28.1-9.2-57.5-13.7-88.2
	c-7-42.6-13.5-88-19.6-136.2c-0.2-3.5,0.1-7.1,0.9-10.2c0.3-1,0.8-1.6,1.4-1.8c0.6-0.1,1.2,0.3,1.6,1.1c0.5,0.7,0.9,1.6,1.1,2.7
	c0.6,2.2,1,4.6,1.3,7c0.8,6.8,1.5,13.6,2.1,20.3c0.2,3.2,0.7,6.4,1.6,9.1c0.2,0.5,0.5,0.8,0.9,0.7c0.3-0.1,0.6-0.5,0.7-1.1
	c0.5-3,0.6-6.2,0.3-9.4c-5.9-36.2-12.5-73.3-20.1-111.5c-0.5-6.5-1.5-12.9-2.9-18.8c-0.2-0.5-0.5-0.8-0.8-0.8
	c-0.3,0.1-0.6,0.5-0.7,1.1c-0.4,3.6-0.4,7.3-0.1,10.9c1.7,14.5,3.9,28.6,6.5,42.1c2.2,9.6,2.7,20.2,1.6,30.1c-0.1,0.8-0.5,1.3-1,1.3
	c-0.5-0.1-1-0.6-1.3-1.5c-1.5-5.7-3.1-11.4-4.7-17c-0.3-0.9-0.8-1.5-1.4-1.5c-0.4-0.1-0.8,0.5-0.9,1.3c-0.3,6.6,0,13.2,0.9,19.6
	c1.5,15.3,3.3,30.3,5.3,44.9c11.7,127.1,22.1,235.8,31.5,328.8c0.8,4.8,0.8,9.7,0.1,14.4c-0.8,2.7-2.6,4.5-4.6,4.6
	c-3.7,0.6-7.5,1-11.2,1.1c-3.8,0.9-7.7,0.8-11.6-0.2c-2.8-1.5-5-5.3-5.5-9.8c-13-98.5-26.5-215.4-40.6-354.2
	c-20-203.1-59.1-444.2-122.6-718.9c-1.7-6.7-4-12.6-6.7-17.3c-0.6-1-1.2-1.2-1.8-0.8c-0.4,0.4-0.6,1.5-0.4,2.6
	c5.2,29.5,10.6,58.4,16.2,86.6c6.5,27.1,11.7,54.9,15.6,82.7c0.3,3.4,0,6.7-0.9,9.2c-0.5,1.6-1.6,2-2.5,0.8l-6.6-14.3
	c-22.2-68.9-43.5-143.9-63.6-224.7c-2.6-11.3-5.5-22.3-8.9-32.8c-0.4-1.2-1-1.8-1.6-1.7c-0.5,0.2-0.9,1.2-0.9,2.5
	c0,6.3,0.6,12.8,1.8,19.1c6.7,28.8,13.6,56.9,20.8,84.2c2.8,13.4,4.5,27.3,4.9,40.8c0,9.9,0.8,20.1,2.3,30.1
	c24.6,117.6,44.9,228.5,61.5,332.3c42.5,285.4,75.2,504.6,100.8,671.6c-0.6,31.1,1.5,60.8,6.2,88.6c0.1,0.7,0.2,1.5,0.3,2.2l4.8,1.8
	l4-10.3l1.5,12.4l8.8,3.3l-7.9,4.2l1.4,11.9l-6.3-9.3l-7.8,4.1l3.8-10l-2.8-4.2c-0.5,2-1.4,3.7-2.8,4.8c-0.7,1-1.7,1.4-2.7,1.3
	c-1.1-0.1-2.1-0.9-2.8-2c-1.2-2.2-2-4.6-2.5-7.2c-1.9-9.4-6-18.2-11.7-24.8l-7.3,4.2l3.5-10.5c0-0.1-0.1-0.2-0.1-0.2
	c0-0.1,0-0.2-0.1-0.3l-6.6-9.9l9.1,3.4l3.8-11.2l1.3,9c0.2-0.1,0.4-0.3,0.5-0.4c1.4-0.9,2.2-2.8,2.2-5.1c-0.3-6.3-1.3-12.8-2.8-19.1
	c-1.5-5.1-5-8.6-8.6-8.6c-2.9-0.3-5.8-0.6-8.7-0.8c-1.8,0-3.6-0.9-5.2-2.7c-2.4-3.2-4-7.5-4.6-12c-17.3-131.5-41.1-296.1-73.7-500.9
	c-26.7-174.1-66.9-372-123.2-590.8c-9.6-37.8-21-74.9-34-110.4c-0.6-1.4-1.4-2-2.1-1.5c-0.6,0.4-0.9,1.8-0.8,3.5l3.8,19.3
	c13.7,55.2,27.1,108.7,40.4,160.3c1.5,6.2,2.1,12.8,1.9,18.7c-0.1,1.9-0.6,3.4-1.4,3.8c-0.8,0.5-1.7-0.1-2.5-1.5
	c-11.2-24.6-21.6-52.2-30.8-82.2l-175.9-621c-3.1-10.2-7.2-19-11.6-25.3c-2.2-2-4.3-2.2-5.8,0.1c-1.4,2.4-1.9,6.9-1.5,12.2
	c0.8,9.2,2.6,18.7,5.3,27.5c92.7,324.5,168,609.5,228.6,857.6c73.1,357.7,119.3,625.5,146.9,821.1c1.3,5.9,2,11.9,2.3,17.6
	c0.1,2.5-0.5,4.7-1.6,6.1l-4.4,2.4c-5.3,1.3-10.7,1.8-16.2,1.6c-1.7-0.2-3.3-0.8-5-1.8l-2-2.3c-1.3-2.3-2.3-5-2.8-7.8
	c-11.4-64.1-23.8-136.3-37.5-217.9c-0.7-5.1-2.2-10.1-4.3-14.4c-0.3-0.5-0.7-0.8-1-0.7c-0.3,0.1-0.5,0.4-0.6,1l0.6,8.4
	c2.2,19.3,3.7,38.1,4.6,56c0,1.6-0.3,3-0.9,4c-0.2,0.2-0.4,0.3-0.7,0.2c-0.3-0.1-0.5-0.4-0.7-0.8l-2.2-9.4
	c-7.7-50.3-15.4-104.3-23.1-162.5c-0.8-5.4-1.5-10.8-1.8-16.2c-0.5-6.5-0.7-13-0.7-19.4l0.4-12l-3.6-25.2
	c-20.6-109.1-45.6-230.1-75.6-363.5c-55.5-241.6-133.2-515.8-236.4-817.2c-3.1-9.3-6.9-17.6-11-24c-1.4-2.2-2.9-3.2-4.1-2.8
	c-1.2,0.4-2,2.1-2.2,4.8c-0.6,7.2,0.4,16.4,2.7,25.2l55,218c1.7,6.7,2.8,13.5,3.4,20c0.1,1.2-0.2,2.1-0.6,2.3
	c-0.4,0.2-1-0.4-1.5-1.4l-6.2-18.9c-10.5-37.4-21.6-75.3-33.1-113.6l-4.8-11.3c-1.6-2.2-3.1-1.7-3.6,1c-0.6,3.9-0.2,9.2,1.1,14.5
	l27.7,104.6c51.5,170.7,97,328.5,137.2,473.9c94.3,394.9,152.6,683.6,186.3,888.4c13.6,77.4,28.5,144.7,44.6,204.9
	c0.4,1.5,1,3,1.9,4.2c0.2,0.3,0.4,0.4,0.7,0.5c0.2,0,0.5,0,0.6-0.2c0.8-0.9,1.3-2.2,1.4-3.6c0.5-6.1,0.1-12.6-1.3-19.2
	c-0.4-1.6-0.6-3.2-0.5-4.7c0-0.3,0.2-0.5,0.5-0.5c0.4,0,0.8,0.2,1.1,0.6c1.3,1.6,2.6,3,4.1,4.2c1,1,2.1,1.9,3.2,2.5
	c1.4,0.8,2.9,1.4,4.3,1.9l2.5-7.7l2.2,9.7c0.1,0.1,0.2,0.2,0.4,0.4l7.6,2.8l-5.2,2.6c0,0.4,0.1,0.9,0,1.3c-0.1,0.7-0.3,1.2-0.8,1.6
	c0,0-0.1,0.1-0.1,0.1l1.6,7.5l-6.2-7.7l-6.4,3.2l1.9-5.8c-0.7-0.5-1.4-1-2.1-1.5c-0.3-0.2-0.6-0.3-1-0.3c-0.2,0-0.3,0.2-0.4,0.4
	c-0.8,27.8,3.5,56.4,12.4,84c4.2,19.8,12.6,39,23.8,55.2c1.8,2,4,2.8,5.9,2.1c2.9-0.7,5.8-1.3,8.8-1.9c2.8,0.3,5.6,1,8.3,1.9
	c1.4,0.4,2.7,0.2,3.8-0.5c0.1-0.1,0.2-0.2,0.3-0.3c0.4-0.4,0.9-0.8,1.3-1.2l-2.6-3.6l4.8,1.7l3.2-2.3c0,0,0,0,0.1,0l1.7-4.5l0.9,5.4
	c1.6,1,2.9,2.7,3.6,4.9l3.8,1.4l-3.3,1.8c-0.1,1.3-0.7,2.3-1.7,2.7l-0.8-0.1l1.3,8.1l-5.1-7.3l-4.1,2.2c-0.2,0.5-0.4,1.1-0.5,1.7
	c-0.5,2.8,0.3,6.1,1.9,8.4c1.2,1.7,2.4,3.4,3.6,5.1c1.5,2.2,3.2,4.2,5,5.9c0.4,0.3,0.8,0.4,1.1,0.5c0.6,0.1,1.3,0,1.9-0.1
	c2.5-1.3,5.3-1.3,8,0c0.8,0.3,1.7,0.5,2.6,0.6c0.3,0,0.5,0,0.7-0.1c1.1-0.7,2.1-1.6,3-2.7c0.2-0.2,0.4-0.4,0.5-0.6l-1.4-2.1l2.6,1
	c1-0.8,2.1-1.6,3.2-2.2c0.7-0.4,1.6-0.4,2.4-0.1l1.5-3.9l0.7,5.4c0.4,0.4,0.8,0.9,1.2,1.4c0.7,0.9,1.4,1.6,2.2,2.2
	c1.2,0.9,2.5,1.1,3.6,0.5c3.4-2.5,5.9-6.8,7-12c0.2-1.4,0-3-0.7-4.3c-0.1-0.1-0.2-0.2-0.3-0.3c-0.8-0.8-1.7-1.5-2.5-2.2
	c-0.3-0.3-0.7-0.5-1-0.8l-5,2.5l2.3-5.7c-0.5-1.2-0.7-2.5-0.5-3.7l-3.6-5.3l6.6,2.4c0.1,0,0.2-0.1,0.3-0.1c0.1,0,0.1-0.1,0.2-0.1
	l3.1-7.1l1.1,8.9c0,0,0.1,0.1,0.1,0.1l6.8,2.5l-2.4,1.2c2.1,1.8,4.3,3.5,6.5,5.2c1.5,1.2,2.3,3.5,2.1,5.7c-0.2,1.8-0.3,3.6-0.3,5.5
	l-0.1,2.8c0.4,2.8,1.6,5.5,3.2,7.5c1.3,1.7,2.5,3.5,3.6,5.4c0.6,0.9,1.5,1.4,2.4,1.3c0.9-0.1,1.6-0.7,2-1.7c0.3-0.8,0.6-1.6,1-2.4
	l-3-4.7l4.5,1.7c0.6-1,1.4-1.8,2.4-2.3c0.4-0.2,0.8-0.2,1.2,0.1l2.1-4.4l0.6,7.7c0.4,0.6,0.8,1.2,1.2,1.8l5.6,2.1l-1.7,0.9
	c0.2,0.1,0.3,0.1,0.5,0.2c1.6,0.4,3.1,0.7,4.7,1c0.4,0.1,0.8,0.4,1.1,0.7c0.6,0.6,1.2,1.2,1.7,2c1.2,1.7,2.4,3.4,3.7,5
	c1.3,1.5,3.1,1.8,4.5,0.7c2.5-1.9,4.8-4.1,7.1-6.4c12-17.6,18.2-40.2,16.9-63.2c-0.3-2.3-1.1-4.4-2.3-6.2l0.1,1.7l-3.9-5.8
	c-0.4-0.4-0.7-0.7-1.1-1.1l-6.7,2.7l3.8-6.8c-0.5-0.9-1-1.8-1.4-2.8l-3.2-4.7l4.7,1.7C923.6,2490.9,924.9,2490.6,926.1,2490.3z
	 M828.3,2330.1l5,1.9l-3.4,1.8c0.4,1.4,0.5,2.8,0.5,4.2c-0.5,6.3-0.6,12.5-0.5,18.8c0.3,6.8,0.5,13.6,0.5,20.2
	c-0.3,3.3-0.3,6.7,0.2,10c0.2,1.1,0.7,2.2,1.3,3.2c0.7,1,1.6,1.9,2.6,2.5l1.9,1.1l1.5,0.5l3.6-8.2l1.4,10l8,2.9l-7.2,3.2l1.3,9.8
	l-4.6-6.3c-0.6,0.4-1.2,0.7-1.9,0.9c-0.7,0.1-1.5,0.2-2.2,0c-1-0.1-1.9-0.1-2.9,0.2c-1.2,0.5-2.2,1.5-2.8,2.9
	c-0.9,2.8-1.6,5.7-2,8.8c-0.3,2.3-0.6,4.7-0.7,7l2.9,1.1l-3,1.4c-0.1,1.7-0.7,3.2-1.7,4.3c-0.5,0.5-1,0.9-1.6,1.2l0.9,5.7l-4.5-6
	c-0.5-0.2-1-0.5-1.6-0.8l-0.5-0.3l-5.8,2.6l2.4-5.8c0-0.1-0.1-0.2-0.1-0.2c-0.3-1-0.3-2,0-2.9l-4.8-6.4l7.3,2.6
	c0.3-0.3,0.6-0.7,0.9-1c0.1-0.1,0.1-0.2,0.2-0.3l2.7-6.4l0.2,1.1c1.7-3.3,3.3-6.8,4.7-10.4l1.8-4l0-2.3c-1.2-15.3-2.4-31-3.5-47.2
	c-1-4.4-2.5-8.8-4.5-12.8l-6.5,3.2l3.5-9.1l-6.3-8.9l8.5,3.1l3.7-9.4l1.3,9.2c0.2,0.1,0.4,0.2,0.6,0.4
	C826.4,2327.7,827.4,2328.8,828.3,2330.1z M894.7,2541.1l3.7-7.3l0.6,8.8l6.9,2.6l-6.5,3l0.6,8.9l-4.6-7.1l-6.4,3l3.5-7.4l-4.7-7.1
	L894.7,2541.1z M911.6,2518.4l3.9-7.2l0.5,8.8l7.1,2.6l-6.8,2.9l0.5,8.8l-4.7-7l-6.7,2.9l3.8-7.2l-4.8-7.1L911.6,2518.4z
	 M865.6,2512.3l3.5-7.3l1,8.9l7.1,2.6l-6.5,2.9l0.9,8.9l-4.9-7.1l-6.4,2.9l3.3-7.4l-5-7.1L865.6,2512.3z M880.4,2486.6l3.7-7.3
	l0.9,9l7.3,2.7l-6.8,2.9l0.8,8.9l-5-7.1l-6.7,2.9l3.6-7.3l-5.1-7.2L880.4,2486.6z M896.3,2461l4-7.5l0.7,9.2l7.5,2.7l-7.1,2.9l0.7,9
	l-5.1-7.2l-7,2.9l3.8-7.4l-5.2-7.3L896.3,2461z M911.7,2434.8l4.2-7.8l0.6,9.5l7.8,2.8l-7.4,3l0.6,9.3l-5.1-7.5l-7.3,3l4.1-7.6
	l-5.2-7.6L911.7,2434.8z M818.9,2505l3-7.4l1.4,9l7.1,2.6l-6.2,3l1.3,9l-5.2-7.2l-6.1,3l2.9-7.5l-5.3-7.2L818.9,2505z M833.7,2481.7
	l3.3-7.4l1.3,9l7.3,2.7l-6.5,2.9l1.2,9l-5.2-7.2l-6.4,2.9l3.1-7.4l-5.3-7.2L833.7,2481.7z M847.7,2455.5l3.5-7.5l1.2,9.2l7.5,2.7
	l-6.8,3l1.1,9.1l-5.3-7.3l-6.7,2.9l3.4-7.5l-5.4-7.4L847.7,2455.5z M863.6,2428l3.8-7.8l1.1,9.5l7.8,2.8l-7.1,3.1l1,9.3l-5.4-7.5
	l-7,3l3.6-7.7l-5.5-7.6L863.6,2428z M882.4,2400.4l4-8.2l0.9,10l8,2.9l-7.4,3.2l0.9,9.8l-5.5-7.8l-7.3,3.1l3.9-8l-5.5-7.9
	L882.4,2400.4z M901.1,2367.7l4.4-8.9l0.8,10.7l8.3,3.1l-7.8,3.5l0.7,10.4l-5.5-8.2l-7.7,3.4l4.2-8.6l-5.6-8.4L901.1,2367.7z
	 M918.4,2333.8l4.7-9.6l0.6,11.6l8.6,3.2l-8.2,3.9l0.6,11.2l-5.6-8.8l-8.1,3.7l4.5-9.3l-5.7-9L918.4,2333.8z M889.1,2291.4l4.6-10.5
	l0.9,12.5l8.9,3.3l-8.3,4.3l0.9,12l-6-9.4l-8.1,4.2l4.4-10.1l-6.1-9.7L889.1,2291.4z M908.8,2249.9l5-11.6l0.8,13.7l9.2,3.5
	l-8.8,4.8l0.7,13.2l-6.1-10.2l-8.6,4.7l4.8-11.1l-6.2-10.5L908.8,2249.9z M775.9,2500.9l2.6-7.6l1.8,9.2l7,2.6l-5.9,3.1l1.7,9.2
	l-5.4-7.3l-5.9,3.1l2.5-7.6l-5.5-7.3L775.9,2500.9z M790.1,2477.2l2.8-7.5l1.7,9.1l7.3,2.6l-6.2,3l1.6,9.1l-5.5-7.2l-6.1,3l2.7-7.5
	l-5.5-7.3L790.1,2477.2z M802.9,2449.6l3.1-7.6l1.6,9.3l7.5,2.7l-6.5,3l1.5,9.2l-5.6-7.3l-6.4,3l2.9-7.5l-5.6-7.4L802.9,2449.6z
	 M852.1,2364.9l3.9-8.8l1.3,10.6l8.2,3l-7.5,3.5l1.2,10.3l-5.8-8.2l-7.4,3.4l3.7-8.5l-5.9-8.4L852.1,2364.9z M871,2328.6l4.2-9.6
	l1.1,11.5l8.5,3.2l-7.9,3.9l1,11.1l-5.9-8.8l-7.7,3.7l4.1-9.3l-6-9L871,2328.6z M759.1,2444.3l2.7-7.6l2,9.3l7.5,2.7l-6.3,3.1
	l1.9,9.2l-5.8-7.3l-6.2,3l2.5-7.6l-5.9-7.4L759.1,2444.3z M773.4,2418.5l2.9-7.8l1.9,9.6l7.7,2.8l-6.5,3.1l1.8,9.4l-5.9-7.5
	l-6.4,3.1l2.8-7.8l-5.9-7.6L773.4,2418.5z M788,2393.1l3.1-8.2l1.8,10l7.9,2.9l-6.8,3.2l1.7,9.7l-5.9-7.7l-6.7,3.2l3-8l-6-7.9
	L788,2393.1z M803.8,2361.1l3.4-8.7l1.7,10.6l8.2,3l-7.1,3.5l1.6,10.3l-6-8.1l-7,3.4l3.3-8.5l-6.1-8.3L803.8,2361.1z M857.8,2248.8
	l4.4-11.4l1.3,13.5l9.1,3.5l-8.3,4.8l1.2,13l-6.4-10.1l-8.2,4.6l4.2-11l-6.5-10.4L857.8,2248.8z M758.6,2358.4l2.9-8.7l2.1,10.5
	l8.1,3l-6.8,3.5l2,10.2l-6.3-8.1l-6.7,3.4l2.8-8.5l-6.4-8.3L758.6,2358.4z M772.4,2325l3.2-9.3l2.1,11.3l8.4,3.1l-7.2,3.8l2,10.9
	l-6.4-8.6l-7.1,3.7l3-9.1l-6.5-8.8L772.4,2325z M788.5,2294.8l3.4-10l2,12l8.7,3.2l-7.5,4.1l1.9,11.6l-6.5-9.1l-7.4,4l3.3-9.7
	l-6.6-9.3L788.5,2294.8z M725.4,2324.6l2.7-9.2l2.5,11.1l8.4,3.1l-6.8,3.7l2.4,10.7l-6.6-8.5l-6.7,3.6l2.6-8.9l-6.7-8.7
	L725.4,2324.6z M743.4,2290.2l3-10l2.4,12l8.7,3.2l-7.2,4.1l2.3,11.5l-6.7-9l-7.1,4l2.8-9.7l-6.9-9.3L743.4,2290.2z M758.1,2251
	l3.2-10.9l2.4,13l9,3.4l-7.5,4.6l2.3,12.5l-6.9-9.7l-7.4,4.4l3.1-10.5l-7-10L758.1,2251z M714.1,2253.1l2.7-10.7l2.8,12.8l8.9,3.3
	l-7.2,4.5l2.7,12.3l-7.1-9.6l-7.1,4.3l2.6-10.3l-7.3-9.8L714.1,2253.1z"/>
	
<path class="maincolor" d="M3812.7,18c-128.4,779.8-352.6,1914.4-582.5,2555.9c-46.8,130.6-90.7,213.5-271.4,245.8
	c-59,10.5-126.3,20.6-198.5,29.9c-9.3,1.2-14.3-6.8-12.6-16c190.3-1045.8,251.5-1719.1,302.9-2552.9c0.5-7.5,6.5-12.1,13.8-13.7
	c274.5-62.4,528.8-152.1,729.5-265.2C3803.7-3.7,3815,3.8,3812.7,18z M3245.6,2357.4c-12.9,44.8-27.7,88.7-44.5,132.9
	c-0.7,2.1-1.1,4.1-1,5.9c0.2,1.4,1,2.2,2,2.3c1,0.1,2.3-0.6,3.4-1.9c6.9-8.1,12.8-17.9,17.1-28.3c4.5-8.8,7.9-17.9,9.9-26.7l1.4-5.4
	c0.5-1.1,1.4-2,2.2-2c0.9-0.1,1.7,0,2.4,0.4c0.6,0.3,1.3,0.4,2,0.4c3.5-0.5,7.6-5,9.1-9.9c4.8-19.9,7.2-39.2,7.1-57.3
	c1-15.9,2.3-32.3,4.1-49.3l-0.1-5.6c-0.2-0.6-0.7-0.9-1.3-0.7c-0.5,0.2-1.1,0.8-1.4,1.5C3253.6,2328.5,3249.5,2343.1,3245.6,2357.4
	L3245.6,2357.4z M3225.2,2330.5c28-112.9,61.4-256.3,102.7-444.8c15.3-87.6,40.7-187.2,76.7-294.9
	c45.9-150.5,97.5-320.1,155.5-510.5c4.4-14.3,7.1-28.9,7.8-41.6l0.8-10.6c1.4-7.9,3.6-16.2,6.5-24.1c10.4-29,20.2-59,29.6-89.7
	l5.5-23c0.2-1.8,0-3-0.6-3.3c-0.8-0.4-2,0.2-3.1,1.6c-5.5,7-11,12.9-16.4,17.8l-5.3,4.2c-3.7,4.4-7.4,11-10.4,18.8
	c-73.8,196.4-132.3,379.8-176.4,545.6c-1.4,5.8-2,11.4-1.8,16c0.3,3.9,0.8,7.5,1.6,10.6c0.8,3.4,1.4,7.2,1.6,11.4
	c0.2,5.2-0.5,11.3-2.1,17.6c-3.6,12.9-7.3,25.7-11.1,38.2c-8.7,33.1-18.1,65.2-28.1,95.9c-1.6,4.7-3.6,9-5.8,12.8
	c-0.9,1.3-1.8,1.5-2.2,0.5c-0.6-1.4-0.7-3.7-0.3-6.3c3.6-15.6,7.4-31.4,11.3-47.4c3.1-12,6.1-24.2,8.7-36.5c0.2-1,0-1.8-0.5-1.8
	c-0.5,0-1.1,0.6-1.6,1.7c-2.1,4.5-3.9,9.4-5.2,14.4c-22.9,82.2-41.3,159-55.4,229.5c-36.3,147.1-62.1,268.3-79.5,367.6
	c-9.5,44.3-20.3,85.4-32.3,123.6c-16.5,66.1-36.2,128.5-58.7,190.2c-1.1,4.4-0.6,8.4,1.3,10.5c1.9,2.1,5,1.9,8-0.6l1.9-1.6
	c1.2-0.7,2.4-0.7,3.2,0.1l1.2,1.5l2.5,2.4c2.3,0.8,5.5-1.6,7.4-5.7c22.3-54.6,41.2-109.1,56.1-164.8
	C3220.8,2347.5,3223,2339,3225.2,2330.5z M3453.4,1374c-10.2,38.9-21.6,76.5-33.8,112.3c-0.3,0.8-0.6,1.4-1,2
	c-0.1,0.1-0.1,0.1-0.2,0.1c0-0.1-0.1-0.2,0-0.3c10.8-42,23.6-85.1,38.4-128.7c1-3.2,2-6.4,3.2-9.6l0,0.5
	C3457.9,1358.2,3455.7,1366.1,3453.4,1374z M3166.4,2322.1c29.9-136.9,69.6-320.7,123.6-572.5c58.1-255,148.2-569.7,277.7-940
	c3.1-9.3,5.7-18.9,7.8-28.5c1.9-8.2,1.8-15.5-0.3-18.5c-2.1-3-5.8-1-9.2,5l-4.2,9.5c-16,45.1-31.2,89.7-45.7,133.7
	c-15.5,46.8-30.4,92.8-44.5,137.9c-0.4,1.1-1,1.7-1.4,1.6c-0.4-0.2-0.6-1.1-0.4-2.3l41.7-174c0.6-3.7,0.8-7.1,0.5-9.8
	c-0.2-1.8-0.9-2.6-1.8-2.3c-3,1.2-6.3,5.2-9.2,11.2c-33.5,76.8-62,157.8-84.3,238.7c-120.5,421.6-194,742.7-234.2,975.5
	c-29.3,170-61.6,299.4-97.4,410.2c-4,10.2-7.2,20.8-9.5,31.5c-0.8,4.3-0.1,8.3,1.9,10.8c1.9,2.5,4.8,3,7.8,1.5
	c1.1-0.6,2.2-0.8,3.2-0.7c0.9,0.3,1.9,0.6,2.9,0.8l1.4,0.5c0.9,0,1.9-0.7,2.8-1.7c4.6-5.9,7.8-13.8,8.5-21.4l0.3-3.2
	c0.1-1.6,0.8-3.2,1.9-4.4c1.3-1.5,2.6-3.1,3.9-4.8c5.1-9.7,9.3-20,12.1-30.4C3138.5,2427,3153.3,2376.2,3166.4,2322.1z
	 M3434.6,1092.9c-9.7,45.7-21.3,90-34.3,132.1c-0.2,0.4-0.4,0.6-0.5,0.5c-0.2-0.2-0.2-0.6-0.1-1.1c10.3-44.8,22.4-90.5,36.2-136.7
	c0,0,0,0,0,0c0,0,0,0,0,0C3435.4,1089.5,3435,1091.2,3434.6,1092.9z M2925.6,1893.3c-2.6,18.7-5.6,36.8-8.9,54.3
	c-0.5,3.4-0.6,7-0.3,10.5c0.1,1,0.5,1.9,1,2.3c0.4,0.3,0.8,0.1,1-0.6c1.1-4.5,2-9.1,2.8-13.9c3.8-13.4,6.2-28.1,7.3-43.6
	c0.5-5.8,0.5-11.8,0.1-17.7c-0.1-0.6-0.3-1.1-0.6-1.3c-0.2-0.2-0.5,0-0.6,0.3C2926.4,1886.7,2925.8,1890,2925.6,1893.3
	L2925.6,1893.3z M2890.6,2491.2l4.7-1.7l-3.2,4.7c-0.4,1-0.9,1.9-1.4,2.8l3.8,6.8l-6.7-2.7c-0.4,0.4-0.7,0.8-1.1,1.1l-3.9,5.8
	l0.1-1.7c-1.2,1.8-2,4-2.3,6.2c-1.4,23.1,4.9,45.7,16.9,63.2c2.3,2.3,4.6,4.5,7.1,6.4c1.4,1.1,3.3,0.8,4.5-0.7
	c1.3-1.6,2.5-3.2,3.7-5c0.5-0.7,1.1-1.4,1.7-2c0.3-0.3,0.7-0.6,1.1-0.7c1.6-0.3,3.1-0.7,4.7-1c0.2-0.1,0.4-0.1,0.5-0.2l-1.7-0.9
	l5.6-2.1c0.4-0.5,0.8-1.1,1.2-1.8l0.6-7.7l2.1,4.4c0.4-0.2,0.8-0.3,1.2-0.1c0.9,0.5,1.7,1.3,2.4,2.3l4.5-1.7l-3,4.7
	c0.4,0.8,0.7,1.6,1,2.4c0.4,1,1.2,1.7,2,1.7c0.9,0.1,1.8-0.4,2.4-1.3c1.1-1.9,2.3-3.7,3.6-5.4c1.6-2,2.7-4.7,3.2-7.5l-0.1-2.8
	c0-1.9-0.1-3.7-0.3-5.5c-0.3-2.2,0.6-4.4,2.1-5.7c2.2-1.7,4.3-3.4,6.5-5.2l-2.4-1.2l6.8-2.5c0,0,0.1-0.1,0.1-0.1l1.1-8.9l3.1,7.1
	c0.1,0,0.1,0.1,0.2,0.1c0.1,0,0.2,0.1,0.3,0.1l6.6-2.4l-3.6,5.3c0.2,1.2,0,2.6-0.5,3.7l2.3,5.7l-5-2.5c-0.3,0.3-0.7,0.6-1,0.8
	c-0.8,0.7-1.7,1.5-2.5,2.2c-0.1,0.1-0.2,0.2-0.3,0.3c-0.7,1.3-0.9,2.8-0.7,4.3c1.1,5.2,3.6,9.4,7,12c1.1,0.6,2.5,0.4,3.6-0.5
	c0.8-0.6,1.6-1.3,2.2-2.2c0.4-0.5,0.8-0.9,1.2-1.4l0.7-5.4l1.5,3.9c0.8-0.3,1.6-0.3,2.4,0.1c1.1,0.6,2.2,1.3,3.2,2.2l2.6-1l-1.4,2.1
	c0.2,0.2,0.4,0.4,0.5,0.6c0.9,1,2,1.9,3,2.7c0.2,0.1,0.5,0.1,0.7,0.1c0.9-0.1,1.7-0.4,2.6-0.6c2.7-1.3,5.6-1.3,8,0
	c0.6,0.2,1.2,0.2,1.9,0.1c0.4,0,0.8-0.2,1.1-0.5c1.8-1.7,3.4-3.7,5-5.9c1.2-1.7,2.4-3.3,3.6-5.1c1.7-2.4,2.4-5.6,1.9-8.4
	c-0.1-0.6-0.3-1.2-0.5-1.7l-4.1-2.2l-5.1,7.3l1.3-8.1l-0.8,0.1c-1-0.3-1.6-1.4-1.7-2.7l-3.3-1.8l3.8-1.4c0.7-2.1,2.1-3.9,3.6-4.9
	l0.9-5.4l1.7,4.5c0,0,0,0,0.1,0l3.2,2.3l4.8-1.7l-2.6,3.6c0.4,0.4,0.9,0.8,1.3,1.2c0.1,0.1,0.2,0.2,0.3,0.3c1.1,0.7,2.5,0.9,3.8,0.5
	c2.8-0.9,5.6-1.6,8.3-1.9c2.9,0.6,5.9,1.2,8.8,1.9c1.9,0.7,4.1-0.1,5.9-2.1c11.2-16.2,19.6-35.5,23.8-55.2
	c8.9-27.7,13.2-56.3,12.4-84c0-0.2-0.2-0.4-0.4-0.4c-0.3,0-0.6,0.1-1,0.3c-0.7,0.5-1.4,1-2.1,1.5l1.9,5.8l-6.4-3.2l-6.2,7.7l1.6-7.5
	c0,0-0.1-0.1-0.1-0.1c-0.4-0.3-0.7-0.9-0.8-1.6c0-0.4,0-0.9,0-1.3l-5.2-2.6l7.6-2.8c0.1-0.1,0.2-0.3,0.4-0.4l2.2-9.7l2.5,7.7
	c1.4-0.4,2.9-1.1,4.3-1.9c1.1-0.6,2.2-1.5,3.2-2.5c1.4-1.3,2.8-2.7,4.1-4.2c0.3-0.4,0.7-0.6,1.1-0.6c0.3,0,0.4,0.2,0.5,0.5
	c0,1.5-0.1,3.1-0.5,4.7c-1.3,6.6-1.8,13.1-1.3,19.2c0.2,1.4,0.7,2.7,1.4,3.6c0.2,0.2,0.4,0.3,0.6,0.2s0.5-0.2,0.7-0.5
	c0.9-1.2,1.6-2.7,1.9-4.2c16.1-60.2,31-127.5,44.6-204.9c33.7-204.8,91.9-493.5,186.3-888.4c40.2-145.4,85.7-303.2,137.2-473.9
	l27.7-104.6c1.3-5.3,1.7-10.6,1.1-14.5c-0.4-2.8-1.9-3.2-3.6-1l-4.8,11.3c-11.6,38.2-22.6,76.1-33.1,113.6l-6.2,18.9
	c-0.5,1.1-1.1,1.6-1.5,1.4c-0.5-0.2-0.7-1.1-0.6-2.3c0.6-6.5,1.7-13.3,3.4-20l55-218c2.3-8.8,3.3-18,2.7-25.2
	c-0.2-2.7-1-4.5-2.2-4.8c-1.2-0.4-2.7,0.6-4.1,2.8c-4.1,6.4-7.9,14.7-11,24c-103.2,301.4-180.8,575.6-236.4,817.2
	c-29.9,133.4-54.9,254.4-75.6,363.5l-3.6,25.2l0.4,12c0,6.4-0.2,12.8-0.7,19.4c-0.4,5.4-1,10.8-1.8,16.2
	c-7.7,58.1-15.4,112.2-23.1,162.5l-2.2,9.4c-0.2,0.4-0.4,0.7-0.7,0.8s-0.5,0-0.7-0.2c-0.6-0.9-0.9-2.3-0.9-4c0.8-18,2.4-36.7,4.6-56
	l0.6-8.4c-0.1-0.6-0.3-0.9-0.6-1c-0.3-0.1-0.7,0.2-1,0.7c-2.1,4.4-3.6,9.4-4.3,14.4c-13.7,81.6-26.2,153.8-37.5,217.9
	c-0.5,2.8-1.5,5.4-2.8,7.8l-2,2.3c-1.7,1-3.3,1.6-5,1.8c-5.5,0.2-11-0.3-16.2-1.6l-4.4-2.4c-1.1-1.5-1.7-3.7-1.6-6.1
	c0.3-5.8,1.1-11.7,2.3-17.6c27.6-195.6,73.8-463.4,146.9-821.1c60.6-248.1,135.9-533.2,228.6-857.6c2.7-8.8,4.5-18.3,5.3-27.5
	c0.5-5.3-0.1-9.8-1.5-12.2c-1.4-2.4-3.6-2.1-5.8-0.1c-4.4,6.3-8.4,15.1-11.6,25.3l-175.9,621c-9.2,30-19.6,57.6-30.8,82.2
	c-0.8,1.4-1.7,2-2.5,1.5c-0.8-0.4-1.3-1.9-1.4-3.8c-0.2-6,0.5-12.5,1.9-18.7c13.3-51.7,26.7-105.1,40.4-160.3l3.8-19.3
	c0.1-1.7-0.2-3.1-0.8-3.5c-0.6-0.4-1.4,0.2-2.1,1.5c-13,35.5-24.3,72.5-34,110.4c-56.3,218.9-96.5,416.7-123.2,590.8
	c-32.6,204.7-56.5,369.4-73.7,500.9c-0.6,4.5-2.3,8.8-4.6,12c-1.6,1.7-3.4,2.7-5.2,2.7c-2.9,0.2-5.8,0.5-8.7,0.8
	c-3.6,0-7,3.5-8.6,8.6c-1.5,6.3-2.5,12.8-2.8,19.1c0,2.3,0.8,4.2,2.2,5.1c0.2,0.1,0.4,0.3,0.5,0.4l1.3-9l3.8,11.2l9.1-3.4l-6.6,9.9
	c0,0.1,0,0.2-0.1,0.3c0,0.1-0.1,0.2-0.1,0.2l3.5,10.5l-7.3-4.2c-5.7,6.6-9.8,15.4-11.7,24.8c-0.4,2.6-1.3,5-2.5,7.2
	c-0.7,1.2-1.8,1.9-2.8,2c-1.1,0.1-2-0.3-2.7-1.3c-1.3-1.1-2.3-2.8-2.8-4.8l-2.8,4.2l3.8,10l-7.8-4.1l-6.3,9.3l1.4-11.9l-7.9-4.2
	l8.8-3.3l1.5-12.4l4,10.3l4.8-1.8c0-0.7,0.1-1.4,0.3-2.2c4.7-27.8,6.8-57.6,6.2-88.6c25.7-167,58.3-386.2,100.8-671.6
	c16.5-103.9,36.9-214.7,61.5-332.3c1.5-10,2.2-20.2,2.3-30.1c0.4-13.5,2.1-27.5,4.9-40.8c7.1-27.3,14-55.4,20.8-84.2
	c1.2-6.3,1.8-12.8,1.8-19.1c0-1.3-0.4-2.3-0.9-2.5c-0.5-0.2-1.2,0.5-1.6,1.7c-3.3,10.6-6.3,21.5-8.9,32.8
	c-20.2,80.8-41.5,155.8-63.6,224.7l-6.6,14.3c-0.9,1.1-1.9,0.8-2.5-0.8c-0.8-2.5-1.1-5.8-0.9-9.2c3.9-27.8,9.1-55.6,15.6-82.7
	c5.6-28.2,11-57.1,16.2-86.6c0.2-1.1,0-2.3-0.4-2.6c-0.6-0.5-1.2-0.2-1.8,0.8c-2.7,4.7-5,10.6-6.7,17.3
	c-63.5,274.7-102.6,515.8-122.6,718.9c-14.1,138.8-27.6,255.8-40.6,354.2c-0.5,4.5-2.7,8.3-5.5,9.8c-3.9,1.1-7.8,1.2-11.6,0.2
	c-3.7-0.1-7.5-0.5-11.2-1.1c-2-0.1-3.8-1.8-4.6-4.6c-0.7-4.6-0.7-9.6,0.1-14.4c9.4-93,19.7-201.8,31.5-328.8
	c2-14.6,3.8-29.6,5.3-44.9c0.9-6.4,1.2-13,0.9-19.6c-0.1-0.8-0.4-1.3-0.9-1.3c-0.5,0.1-1,0.6-1.4,1.5c-1.6,5.7-3.2,11.3-4.7,17
	c-0.3,0.9-0.8,1.5-1.3,1.5c-0.4,0.1-0.8-0.5-1-1.3c-1.1-9.9-0.6-20.5,1.6-30.1c2.6-13.6,4.8-27.6,6.5-42.1c0.3-3.6,0.3-7.3-0.1-10.9
	c-0.1-0.6-0.3-1-0.7-1.1c-0.3-0.1-0.6,0.2-0.8,0.8c-1.5,6-2.4,12.3-2.9,18.8c-7.6,38.2-14.2,75.3-20.1,111.5
	c-0.3,3.2-0.2,6.4,0.3,9.4c0.1,0.6,0.4,1,0.7,1.1c0.3,0.1,0.7-0.2,0.9-0.7c0.9-2.8,1.4-5.9,1.6-9.1c0.7-6.7,1.4-13.5,2.1-20.3
	c0.3-2.4,0.7-4.7,1.3-7c0.3-1.1,0.6-2,1.1-2.7c0.4-0.8,1-1.2,1.6-1.1c0.6,0.1,1.1,0.8,1.4,1.8c0.8,3.1,1.2,6.7,0.9,10.2
	c-6.1,48.2-12.6,93.6-19.6,136.2c-4.5,30.7-9.1,60.1-13.7,88.2c-0.1,0.3-0.3,0.5-0.5,0.5c-0.2,0-0.4-0.3-0.5-0.7
	c-0.5-4.5-0.6-9.2-0.2-13.9c1-13.9,2-28.1,3-42.5l0-6.2c-0.1-2.2-1.1-4-2.3-4.4c-1.2-0.4-2.4,0.8-2.9,2.8
	c-2.8,20.6-4.9,40.9-6.5,60.8c-5.4,64.2-11.7,122.1-18.9,174.3c-10.9,40.1-12.7,80.6-6,116.1c0.1,10.8,0.1,21.4-0.1,31.7
	c0,6.3,2.1,12.3,5.7,16.5c0.4,0.5,0.8,0.9,1.2,1.5l5.1-1.8l-3.4,5.2c0.2,1.2,0,2.5-0.6,3.6c-0.1,0.3-0.3,0.5-0.4,0.7l3.5,6.5
	l-6.3-2.6c-0.5,0.6-1,1.2-1.5,1.7l-1.6,1.8c-0.8,1.2-1.2,2.7-1.1,4.1c0.3,3.8,0.7,7.6,1.2,11.4c0,16.4,0,32.5-0.1,48.3
	c0,3.7,1.8,7,4.7,8.3l0.2-4.3l3.1,5.4C2888.1,2490.6,2889.4,2490.9,2890.6,2491.2z M2983.1,2333.7l-3.4-1.8l5-1.9
	c0.8-1.3,1.9-2.4,3.1-3.2c0.2-0.1,0.4-0.3,0.6-0.4l1.3-9.2l3.7,9.4l8.5-3.1l-6.3,8.9l3.5,9.1l-6.5-3.2c-2,4.1-3.5,8.4-4.5,12.8
	c-1.1,16.2-2.3,31.9-3.5,47.2l0,2.3l1.8,4c1.4,3.6,3,7.1,4.7,10.4l0.2-1.1l2.7,6.4c0.1,0.1,0.1,0.2,0.2,0.3c0.3,0.3,0.6,0.7,0.9,1
	l7.3-2.6l-4.8,6.4c0.3,0.9,0.3,1.9,0,2.9c0,0.1-0.1,0.2-0.1,0.2l2.4,5.8l-5.8-2.6l-0.5,0.3c-0.5,0.3-1,0.6-1.6,0.8l-4.5,6l0.9-5.7
	c-0.6-0.3-1.1-0.7-1.6-1.2c-0.9-1.1-1.5-2.6-1.7-4.3l-3-1.4l2.9-1.1c-0.1-2.4-0.3-4.7-0.7-7c-0.4-3-1-6-2-8.8
	c-0.6-1.4-1.5-2.4-2.8-2.9c-0.9-0.3-1.9-0.4-2.9-0.2c-0.8,0.1-1.5,0.1-2.2,0c-0.7-0.2-1.3-0.5-1.9-0.9l-4.6,6.3l1.3-9.8l-7.2-3.2
	l8-2.9l1.4-10l3.6,8.2l1.5-0.5l1.9-1.1c1-0.6,1.8-1.4,2.6-2.5c0.6-0.9,1.1-2,1.3-3.2c0.5-3.4,0.6-6.7,0.2-10
	c0-6.6,0.2-13.4,0.5-20.2c0.1-6.2-0.1-12.5-0.5-18.8C2982.6,2336.5,2982.7,2335,2983.1,2333.7z M2918.2,2541.1l6.9-2.5l-4.7,7.1
	l3.5,7.4l-6.4-3l-4.6,7.1l0.6-8.9l-6.5-3l6.9-2.6l0.6-8.8L2918.2,2541.1z M2901.4,2518.4l7.1-2.6l-4.8,7.1l3.8,7.2l-6.7-2.9l-4.7,7
	l0.5-8.8l-6.8-2.9l7.1-2.6l0.5-8.8L2901.4,2518.4z M2947.4,2512.3l7.1-2.6l-5,7.1l3.3,7.4l-6.4-2.9l-4.9,7.1l0.9-8.9l-6.5-2.9
	l7.1-2.6l1-8.9L2947.4,2512.3z M2932.6,2486.6l7.3-2.6l-5.1,7.2l3.6,7.3l-6.7-2.9l-5,7.1l0.8-8.9l-6.8-2.9l7.3-2.7l0.9-9
	L2932.6,2486.6z M2916.7,2461l7.6-2.7l-5.2,7.3l3.8,7.4l-7-2.9l-5.1,7.2l0.7-9l-7.1-2.9l7.5-2.7l0.7-9.2L2916.7,2461z
	 M2901.3,2434.8l7.8-2.8l-5.2,7.6l4.1,7.6l-7.3-3l-5.1,7.5l0.6-9.3l-7.4-3l7.8-2.8l0.6-9.5L2901.3,2434.8z M2994.1,2505l7.1-2.6
	l-5.3,7.2l2.9,7.5l-6.1-3l-5.2,7.2l1.3-9l-6.2-3l7.1-2.6l1.4-9L2994.1,2505z M2979.3,2481.7l7.3-2.6l-5.3,7.2l3.1,7.4l-6.4-2.9
	l-5.2,7.2l1.2-9l-6.5-2.9l7.3-2.7l1.3-9L2979.3,2481.7z M2965.3,2455.5l7.5-2.7l-5.4,7.4l3.4,7.5l-6.7-2.9l-5.3,7.3l1.1-9.1l-6.8-3
	l7.5-2.7l1.2-9.2L2965.3,2455.5z M2949.3,2428l7.8-2.8l-5.5,7.6l3.6,7.7l-7-3l-5.4,7.5l1-9.3l-7.1-3.1l7.8-2.8l1.1-9.5L2949.3,2428z
	 M2930.6,2400.4l8-2.9l-5.5,7.9l3.9,8l-7.3-3.1l-5.5,7.8l0.9-9.8l-7.4-3.2l8-2.9l0.9-10L2930.6,2400.4z M2911.9,2367.7l8.3-3
	l-5.6,8.4l4.2,8.6l-7.7-3.4l-5.5,8.2l0.7-10.4l-7.8-3.5l8.3-3.1l0.8-10.7L2911.9,2367.7z M2894.5,2333.8l8.6-3.2l-5.7,9l4.5,9.3
	l-8.1-3.7l-5.6,8.8l0.6-11.2l-8.2-3.9l8.6-3.2l0.6-11.6L2894.5,2333.8z M2923.9,2291.4l8.9-3.3l-6.1,9.7l4.4,10.1l-8.1-4.2l-6,9.4
	l0.9-12l-8.3-4.3l8.9-3.3l0.9-12.5L2923.9,2291.4z M2904.2,2249.9l9.2-3.5l-6.2,10.5l4.8,11.1l-8.6-4.7l-6.1,10.2l0.7-13.2l-8.8-4.8
	l9.2-3.5l0.8-13.7L2904.2,2249.9z M3037.1,2500.9l7.1-2.6l-5.5,7.3l2.5,7.6l-5.9-3.1l-5.4,7.3l1.7-9.2l-5.9-3.1l7.1-2.6l1.8-9.2
	L3037.1,2500.9z M3022.8,2477.2l7.3-2.6l-5.5,7.3l2.7,7.5l-6.1-3l-5.5,7.2l1.6-9.1l-6.2-3l7.3-2.6l1.7-9.1L3022.8,2477.2z
	 M3010.1,2449.6l7.5-2.7l-5.6,7.4l2.9,7.5l-6.4-3l-5.6,7.3l1.5-9.2l-6.5-3l7.5-2.7l1.6-9.3L3010.1,2449.6z M2960.9,2364.9l8.3-3
	l-5.9,8.4l3.7,8.5l-7.4-3.4l-5.8,8.2l1.2-10.3l-7.5-3.5l8.2-3l1.3-10.6L2960.9,2364.9z M2942,2328.6l8.6-3.1l-6,9l4.1,9.3l-7.7-3.7
	l-5.9,8.8l1-11.1l-7.9-3.9l8.5-3.2l1.1-11.5L2942,2328.6z M3053.8,2444.3l7.5-2.7l-5.9,7.4l2.5,7.6l-6.2-3l-5.8,7.3l1.9-9.2
	l-6.2-3.1l7.5-2.7l2-9.3L3053.8,2444.3z M3039.6,2418.5l7.7-2.8l-5.9,7.6l2.8,7.8l-6.4-3.1l-5.9,7.5l1.8-9.4l-6.5-3.1l7.7-2.8
	l1.9-9.6L3039.6,2418.5z M3024.9,2393.1l7.9-2.8l-6,7.9l3,8l-6.7-3.2l-5.9,7.7l1.7-9.7l-6.8-3.2l7.9-2.9l1.8-10L3024.9,2393.1z
	 M3009.2,2361.1l8.2-3l-6.1,8.3l3.3,8.5l-7-3.4l-6,8.1l1.6-10.3l-7.1-3.5l8.2-3l1.7-10.6L3009.2,2361.1z M2955.1,2248.8l9.2-3.4
	l-6.5,10.4l4.2,11l-8.2-4.6l-6.4,10.1l1.2-13l-8.3-4.8l9.1-3.5l1.3-13.5L2955.1,2248.8z M3054.4,2358.4l8.2-2.9l-6.4,8.3l2.8,8.5
	l-6.7-3.4l-6.3,8.1l2-10.2l-6.8-3.5l8.1-3l2.1-10.5L3054.4,2358.4z M3040.6,2325l8.4-3.1l-6.5,8.8l3,9.1l-7.1-3.7l-6.4,8.6l2-10.9
	l-7.2-3.8l8.4-3.1l2.1-11.3L3040.6,2325z M3024.4,2294.8l8.7-3.2l-6.6,9.3l3.3,9.7l-7.4-4l-6.5,9.1l1.9-11.6l-7.5-4.1l8.7-3.2l2-12
	L3024.4,2294.8z M3087.6,2324.6l8.4-3l-6.7,8.7l2.6,8.9l-6.7-3.6l-6.6,8.5l2.4-10.7l-6.8-3.7l8.4-3.1l2.5-11.1L3087.6,2324.6z
	 M3069.6,2290.2l8.7-3.2l-6.9,9.3l2.8,9.7l-7.1-4l-6.7,9l2.3-11.5l-7.2-4.1l8.7-3.2l2.4-12L3069.6,2290.2z M3054.9,2251l9-3.3l-7,10
	l3.1,10.5l-7.4-4.4l-6.9,9.7l2.3-12.5l-7.5-4.6l9-3.4l2.4-13L3054.9,2251z M3098.8,2253.1l8.9-3.3l-7.3,9.8l2.6,10.3l-7.1-4.3
	l-7.1,9.6l2.7-12.3l-7.2-4.5l8.9-3.3l2.8-12.8L3098.8,2253.1z"/>
</svg>
