<?xml version="1.0" encoding="utf-8"?>
<!-- Generator: Adobe Illustrator 27.9.1, SVG Export Plug-In . SVG Version: 6.00 Build 0)  -->
<svg class="w" version="1.1" xmlns="http://www.w3.org/2000/svg" xmlns:xlink="http://www.w3.org/1999/xlink" x="0px" y="0px"
	 viewBox="0 0 3813.3 2850.2" style="enable-background:new 0 0 3813.3 2850.2;" xml:space="preserve">
     $gradientDefs

		<path class="accentcolor" d="M0.3,18C-2,3.8,9.3-3.7,19.1,1.8c200.7,113.1,455,202.8,729.5,265.2c7.3,1.7,13.4,6.2,13.8,13.7
		c51.4,833.8,112.6,1507.1,302.9,2552.9c1.7,9.2-3.4,17.2-12.6,16c-72.3-9.3-139.6-19.4-198.5-29.9
		c-180.6-32.3-224.5-115.1-271.4-245.8C352.9,1932.4,128.7,797.8,0.3,18z M24.1,29.3c72.7,439.3,158.5,892.5,252.3,1321.8
		c74.6,341.7,175.1,755.6,281.5,1082.6c14.5,44.5,29.7,88.9,45.4,133.1c6.1,17.3,12.7,34.5,19.7,51.5c6.3,15.2,13.3,30.1,21.1,44.7
		c7.5,14,16.2,27.3,26,39.8c8.7,11,18.4,21.2,29.1,30.3c44.2,37.8,102.9,55.5,158.9,65.4c61.2,10.7,122.6,20.1,184.1,28.1
		c-41.1-225.5-78.9-451.6-113.4-678.3c-32.4-213.3-60.9-427.1-85.4-641.5c-24.3-213.8-45-428-62-642.5
		c-15.2-192.1-28.6-384.3-40.2-576.7c-131-29.8-263.2-67.5-388.6-112.4C290.8,153,229.9,128.6,170,101.8
		C120.4,79.6,71.7,55.4,24.1,29.3z"/>

	<path class="maincolor" d="M51.2,147.5l689.2,243.2c-2.1-32.4-4.1-64.9-6-97.3c-129.5-29.7-260.1-67-384.2-111.4
		c-61.9-22.2-123-46.7-183.1-73.5C121.8,88.1,77.3,66.2,33.6,42.6C39.4,77.5,45.2,112.4,51.2,147.5z M747,491.6L69.2,252.4
		c6.1,35,12.2,70,18.5,105.1l666.2,235.1C751.6,558.9,749.2,525.3,747,491.6z M761.2,693.8l-654.5-231
		c6.4,35.1,12.8,70.3,19.4,105.4L768.8,795C766.2,761.3,763.7,727.5,761.2,693.8z M776.7,896.4L145.8,673.8
		c6.7,35.3,13.5,70.5,20.3,105.7L785.2,998C782.3,964.2,779.5,930.3,776.7,896.4z M794.3,1099.8L186.9,885.5
		c7,35.4,14.1,70.8,21.2,106.1l595.8,210.2C800.6,1167.8,797.4,1133.8,794.3,1099.8z M814.1,1304l-584.3-206.2
		c7.4,35.6,14.8,71.1,22.3,106.4l572.8,202.1C821.2,1372.3,817.6,1338.1,814.1,1304z M836.4,1509L275,1310.9
		c2.8,12.9,5.6,25.8,8.4,38.6c4.9,22.4,9.9,45.2,15,68.2l550.1,194.1C844.3,1577.6,840.3,1543.3,836.4,1509z M861.1,1714.9
		l-538.6-190.1c8.1,35.4,16.4,71.2,24.9,107.4l527.1,186C870,1783.8,865.5,1749.4,861.1,1714.9z M888.5,1921.8l-515.3-181.8
		c8.7,35.9,17.6,72,26.7,108l503.3,177.6C898.2,1991,893.3,1956.4,888.5,1921.8z M918.6,2129.6l-491-173.3
		c9.5,36.5,19.1,72.8,28.9,108.8l478.1,168.7c-4.4-28.2-8.7-56.3-13-84.5C920.6,2142.7,919.6,2136.1,918.6,2129.6z M951.1,2338.2
		l-464.3-163.8c10.6,37.2,21.2,73.9,32,109.9l449.3,158.5C962.4,2407.9,956.7,2373.1,951.1,2338.2z M985.7,2547.6l-432.7-152.7
		c3.9,12.3,7.8,24.5,11.8,36.6c8.2,25.1,16.6,50.1,25.1,75l413.9,146.1C997.6,2617.6,991.6,2582.6,985.7,2547.6z M1022.3,2757.7
		l-391-138c5.7,13.6,12.1,26.8,19,39.8c7.3,13.6,15.8,26.6,25.3,38.7c8.4,10.7,17.8,20.5,28.1,29.3c43.2,36.9,100.9,54.1,155.5,63.8
		c57.8,10.1,115.8,19,174,26.7C1029.6,2798,1025.9,2777.8,1022.3,2757.7z M297.4,1413.2L135.6,94c-34.5-16.1-68.5-33.2-102-51.3
		c72.2,434.6,157,881.8,249.8,1306.9C287.9,1370.5,292.6,1391.7,297.4,1413.2z M236.7,138.3L486.1,2172
		c25.6,90.5,51.9,177.8,78.5,259.5c14.6,44.5,29.7,88.8,45.3,132.9c6.1,17.2,12.6,34.3,19.6,51.2c2.9,7.1,6,14.2,9.3,21.1
		L337.2,177.2C303.5,165,270,152,236.7,138.3z M437.2,211.6l312.2,2546c31.2,15.7,65.8,25.4,99.6,32L536.6,242.1
		C503.3,232.4,470.1,222.2,437.2,211.6z M635.7,269.3l311.1,2536.4c28.8,4.4,57.6,8.5,86.5,12.4c-40.5-222.4-77.7-445.3-111.6-668.8
		c-32.4-213.4-60.9-427.3-85.4-641.7c-24.4-213.9-45-428.2-62-642.8c-15-190.4-28.3-380.8-39.9-571.4
		C701.5,285.8,668.6,277.8,635.7,269.3z"/>

	<path class="accentcolor" d="M3813,18.4c2.3-14.2-8.9-21.8-18.8-16.2c-200.7,113.1-455,202.8-729.5,265.2c-7.3,1.7-13.4,6.2-13.8,13.7
		c-51.4,833.8-112.6,1507.1-302.9,2552.9c-1.7,9.2,3.4,17.2,12.6,16c72.3-9.3,139.6-19.4,198.5-29.9
		c180.6-32.3,224.5-115.1,271.4-245.8C3460.4,1932.8,3684.6,798.2,3813,18.4z M3789.3,29.7C3716.6,469,3630.7,922.1,3537,1351.4
		c-74.6,341.7-175.1,755.6-281.5,1082.6c-14.5,44.5-29.7,88.9-45.4,133.1c-6.1,17.3-12.7,34.5-19.7,51.5
		c-6.3,15.2-13.3,30.1-21.1,44.7c-7.5,14-16.2,27.3-26,39.8c-8.7,11-18.4,21.2-29.1,30.3c-44.2,37.8-102.9,55.5-158.9,65.4
		c-61.2,10.7-122.6,20.1-184.1,28.1c41.1-225.5,78.9-451.6,113.4-678.3c32.4-213.3,60.9-427.1,85.4-641.5
		c24.3-213.8,45-428,62-642.5c15.2-192.1,28.6-384.3,40.2-576.7c131-29.8,263.2-67.5,388.6-112.4c61.8-22.1,122.7-46.6,182.5-73.3
		C3692.9,80,3741.6,55.8,3789.3,29.7z"/>

	<path class="maincolor" d="M3762.2,147.8L3072.9,391c2.1-32.4,4.1-64.9,6-97.3c129.5-29.7,260.1-67,384.2-111.4
		c61.9-22.2,123-46.7,183.1-73.5c45.3-20.2,89.9-42.2,133.5-65.7C3774,77.9,3768.1,112.8,3762.2,147.8z M3066.3,492l677.8-239.2
		c-6.1,35-12.2,70-18.5,105.1L3059.4,593C3061.8,559.3,3064.1,525.6,3066.3,492z M3052.2,694.1l654.5-231
		c-6.4,35.1-12.8,70.3-19.4,105.4l-642.8,226.8C3047.1,761.7,3049.7,727.9,3052.2,694.1z M3036.6,896.8l630.9-222.6
		c-6.7,35.3-13.5,70.5-20.3,105.7l-619.1,218.5C3031,964.5,3033.9,930.7,3036.6,896.8z M3019.1,1100.2l607.4-214.3
		c-7,35.4-14.1,70.8-21.2,106.1l-595.8,210.2C3012.7,1168.2,3016,1134.2,3019.1,1100.2z M2999.2,1304.4l584.3-206.2
		c-7.4,35.6-14.8,71.1-22.3,106.4l-572.8,202.1C2992.1,1372.6,2995.7,1338.5,2999.2,1304.4z M2977,1509.4l561.4-198.1
		c-2.8,12.9-5.6,25.8-8.4,38.6c-4.9,22.4-9.9,45.2-15,68.2l-550.1,194.1C2969,1578,2973.1,1543.7,2977,1509.4z M2952.2,1715.3
		l538.6-190.1c-8.1,35.4-16.4,71.2-24.9,107.4l-527.1,186C2943.4,1784.2,2947.8,1749.8,2952.2,1715.3z M2924.8,1922.2l515.3-181.8
		c-8.7,35.9-17.6,72-26.7,108l-503.3,177.6C2915.1,1991.4,2920,1956.8,2924.8,1922.2z M2894.7,2130l491-173.3
		c-9.5,36.5-19.1,72.8-28.9,108.8l-478.1,168.7c4.4-28.2,8.7-56.3,13-84.5C2892.7,2143.1,2893.7,2136.5,2894.7,2130z M2862.2,2338.6
		l464.3-163.8c-10.6,37.2-21.2,73.9-32,109.9l-449.3,158.5C2851,2408.3,2856.7,2373.5,2862.2,2338.6z M2827.7,2548l432.7-152.7
		c-3.9,12.3-7.8,24.5-11.8,36.6c-8.2,25.1-16.6,50.1-25.1,75l-413.9,146.1C2815.7,2618,2821.7,2583,2827.7,2548z M2791,2758.1
		l391-138c-5.7,13.6-12.1,26.8-19,39.8c-7.3,13.6-15.8,26.6-25.3,38.7c-8.4,10.7-17.8,20.5-28.1,29.3
		c-43.2,36.9-100.9,54.1-155.5,63.8c-57.8,10.1-115.8,19-174,26.7C2783.8,2798.3,2787.4,2778.2,2791,2758.1z M3516,1413.6
		L3677.7,94.3c34.5-16.1,68.5-33.2,102-51.3c-72.2,434.6-157,881.8-249.8,1306.9C3525.4,1370.9,3520.7,1392.1,3516,1413.6z
		 M3576.6,138.7l-249.4,2033.7c-25.6,90.5-51.9,177.8-78.5,259.5c-14.6,44.5-29.7,88.8-45.3,132.9c-6.1,17.2-12.6,34.3-19.6,51.2
		c-2.9,7.1-6,14.2-9.3,21.1l301.6-2459.5C3509.9,165.3,3543.4,152.3,3576.6,138.7z M3376.2,211.9l-312.2,2546
		c-31.2,15.7-65.8,25.4-99.6,32l312.4-2547.4C3310.1,232.8,3343.3,222.6,3376.2,211.9z M3177.6,269.7l-311.1,2536.4
		c-28.8,4.4-57.6,8.5-86.5,12.4c40.5-222.4,77.7-445.3,111.6-668.8c32.4-213.4,60.9-427.3,85.4-641.7c24.4-213.9,45-428.2,62-642.8
		c15-190.4,28.3-380.8,39.9-571.4C3111.8,286.2,3144.8,278.2,3177.6,269.7z"/>

</svg>
