<?xml version="1.0" encoding="utf-8"?>
<!-- Generator: Adobe Illustrator 27.9.1, SVG Export Plug-In . SVG Version: 6.00 Build 0)  -->
<svg class="w" version="1.1" xmlns="http://www.w3.org/2000/svg" xmlns:xlink="http://www.w3.org/1999/xlink" x="0px" y="0px"
	 viewBox="0 0 3813.3 2850.2" style="enable-background:new 0 0 3813.3 2850.2;" xml:space="preserve">
     $gradientDefs

<path class="maincolor" d="M33.6,42.6c43.7,23.6,88.2,45.5,133.5,65.7c60.1,26.9,121.1,51.4,183.1,73.5c124.1,44.4,254.7,81.8,384.2,111.4
	c11.5,190.6,24.8,381.1,39.9,571.4c16.9,214.6,37.6,428.9,62,642.8c24.5,214.4,53,428.4,85.4,641.7
	c33.9,223.5,71.2,446.4,111.6,668.8c-58.2-7.7-116.2-16.6-174-26.7c-54.6-9.6-112.3-26.9-155.5-63.8c-10.3-8.8-19.7-18.7-28.1-29.3
	c-9.5-12.2-18-25.1-25.3-38.7c-7.7-14.3-14.6-29-20.8-44c-6.9-16.9-13.5-34-19.6-51.2c-15.6-44.1-30.8-88.4-45.3-132.9
	c-106-325.3-207.1-741.7-281.3-1081.9C190.6,924.4,105.8,477.3,33.6,42.6z"/>
<g>
	<path d="M902.6,2043.1C902.6,2043.1,902.6,2043.1,902.6,2043.1C902.6,2043.1,902.6,2043.1,902.6,2043.1z"/>
	<path d="M631.7,524.5C631.7,524.6,631.7,524.6,631.7,524.5C631.7,524.6,631.7,524.6,631.7,524.5z"/>
	<path d="M858,1689.9c-0.8-6.2-1.5-12.3-2.3-18.5c-4.3-2.1-8.6-4.4-12.9-7.2c-6.9-4.4-13.7-10.8-18.8-20.7
		c-5.1-9.8-8.2-21.1-10.8-31.9c-5.4-22.5-9.6-45.2-12.5-67.4c-5.8-44.6-6.5-88.4,0.6-125.5c3.5-18.3,9-34.7,16.1-48.8
		c1-1.9,2-3.8,3-5.7c-0.3-2.6-0.5-5.2-0.8-7.8c-2.3,3.2-4.6,6.4-6.8,9.8c-16.6,26-26.4,60.8-28.6,102.3
		c-2.3,41.6,2.4,87.6,11.9,133.4c4.3,20.9,9.1,47.9,22.6,63.5c6.6,7.6,13.9,11.6,20.8,15.1C845.7,1683.7,851.8,1686.8,858,1689.9z"
		/>
	<path d="M848.9,1615.7c-2.9-24-5.7-48.1-8.5-72.1c-0.7-3.1-1.4-6.2-2-9.3c-4.6-23-6.8-45.7-6.9-67.2c0-0.3,0-0.6,0-0.9
		c-1.9-17.1-3.8-34.3-5.7-51.4c-7.7,31.3-9,69.6-3.6,108.9c3.1,22.6,8.3,46.2,16.4,68.5C841.6,1600.5,845.1,1608.3,848.9,1615.7z"/>
	<path class="accentcolor2" d="M265.8,1268.5c3.3,15.6,6.7,31.2,10.1,46.7c11.9-63.4,27.3-123.6,45.9-179.9c10-30.1,20-61.7,36.1-83.5
		c1-1.3,2-2.6,3-3.7c0.1-0.1,0.2-0.3,0.3-0.4c1.4-0.9,3.6-1.8,5.5-2.3c5-1.2,10.4-0.6,16.1,2.6c5.1,2.8,10.2,7.4,14.6,13.7
		c5,7.3,7.7,15.8,10.6,24.7c2.6,7.8,5.6,15.2,10.4,20.6c3.8,4.2,8,6.7,12,8.5c8.4,3.8,16.9,4.5,25.4,10.8c3.9,2.9,7.6,7.2,10.4,13.1
		c4.1,8.8,4.7,18.3,3.7,26.1c-1.1,8.4-3.8,15.2-6.5,21.9c-3.1,7.5-6.4,14.8-9.7,22c-13.1,28-26.9,54.9-36.4,87.4
		c-9.6,32.8-16.6,68.6-23.5,104.3c-6.8,35.6-12.7,72.2-15.7,111c-2.9,36.1-2.9,74-1.9,112.4c1.3,48.8,4.3,98.7,4.7,147.1
		c3.8,15.5,7.6,30.9,11.5,46.4c0-0.6,0.1-1.2,0.1-1.8c3.6-76.1-3.8-158.2-4.4-236.6c-0.3-41.2,1.8-80.7,6.6-118.4
		c5.1-39.5,12.5-77,20.3-114c7.6-36.3,16.3-71.3,29.3-101.6c6.5-15.2,13.7-29.5,20.6-44.1c3.4-7.1,6.7-14.4,9.8-21.8
		c2.9-7,5.9-14.2,7.3-23c1.2-7.5,1.3-16.7-2.2-25.7c-2.5-6.4-6.2-11.5-10.3-14.9c-8.8-7.2-17.9-7.8-26.7-11.8
		c-4.1-1.9-8.4-4.4-12.3-8.8c-5.2-5.9-8.1-14.1-10.8-22.5c-2.9-9.1-6-17.4-11.4-24.4c-4.7-6.1-10-10.4-15.2-12.8
		c-13.7-6.3-24.5,1.5-33.8,10c-10.4,9.5-18.9,22.2-26.1,37c-6.7,13.8-12.3,29.1-17.7,44.6c-5.6,16-10.9,32.4-15.9,49
		c-7.7,25.3-14.7,51.4-21,78.1c4-29.1,7.6-58.4,11.7-87.4c5.8-41.7,14.2-80.9,29.2-112.8c6.7-14.3,14.4-27.1,23.2-38.2
		c8.1-10.2,15.5-17.5,25-24c10.6-7.3,22.2-12.7,34.3-16.1c11.6-3.3,23.7-5.1,36.6-3c12,2,25.1,7.2,37.2,19.1
		c13.3,12.9,23.3,32.7,28.7,54.2c5.9,23.2,7,46.5,6.4,67.6c-0.7,23.1-4.1,44.4-9,63.9c-10,40.2-26.5,72.7-42.2,105.8
		c-15.8,33.2-29.9,68.1-38.9,109.4c-17.8,81.3-19.1,177.1-12.5,274.7c3.7,54.4,9.7,109.8,16.6,165.3c3.5,28.1,7.1,56.3,10.8,84.5
		c3,23.3,8.3,50.4,5.6,71.1c-0.5,3.8-1.3,7.5-2.5,10.6c0.2,0.7,0.4,1.4,0.6,2.1c0.2-0.1,0.4-0.1,0.6-0.2c0,0-0.2,0.2-0.5,0.5
		c0.2,0.9,0.5,1.9,0.7,2.8c1.7-1.6,3.3-3.3,4.8-5.1c4.6-5.4,7.8-12.6,8.9-22.3c1.1-9.7,0.5-20.7-0.7-31.6
		c-2.9-27.6-7.2-55.7-10.7-83.6c-3.6-28.2-7.1-56.3-10.3-84.4c-6.5-56.7-11.7-113-13.9-168.1c-3.9-97.6,1.8-192.3,26-268.2
		c24.2-76,70.1-128.2,78.2-222c3.3-38.1,1.3-95.4-27.3-130.9c-23.9-29.8-52.7-30.2-74.4-25.5c-26.5,5.7-50,20.5-70.7,40.6
		c-20.4,19.8-37.7,45.7-50.1,78.1c-14,36.4-20.3,80.7-25.9,125.3C271.5,1227.3,268.8,1248,265.8,1268.5z M361.2,1047.7
		C361.2,1047.7,361.2,1047.7,361.2,1047.7C361.2,1047.7,361.2,1047.7,361.2,1047.7z M361.3,1047.7c0.4-0.4,0.5-0.4,0.4-0.3
		C361.6,1047.4,361.4,1047.5,361.3,1047.7z"/>
	<path class="accentcolor2" d="M382.1,830c0.3,0.6,3-1.1,3.5-1.5c3-2.2,6-4.7,8.3-8.1c3.1-4.7,1.9-12-1.8-19.4c-3.8-7.7-8.7-12.1-13.7-17.1
		c-4-4-8.3-8.8-10.8-15.5c-3.7-9.8-1.3-18.8,0-26.4c2.8-16.2,6.4-31.6,9.5-47.6c5.9-30.9,9.6-66.2-0.2-105.2
		c-0.2-0.7-4.9,2.7-5.2,2.9c-6.9,5.8-13.5,12.6-18.6,21.6c-4,7-7.3,15-10.1,23.5c-6.1,18.3-10.5,38.4-16.1,57.2
		c-10.7,36.2-23.6,70-38.4,101c-7.4,15.5-15.4,30.4-23.8,44.5c-7.1,11.8-15.6,24.6-15.5,44.3c0,8,1.7,22.7,9,25.4
		c3.4,1.3,6.3-0.1,8.9-1.6c3.1-1.7,6-3.7,8.9-5.8c12.7-9.5,23.4-22.7,35-34.5c3.9-4,8.2-7.8,12.8-11.3c5.3-4,10.8-7.6,16.5-10.7
		c12.2-6.7,25.1-11.4,38.7-14.2C380.1,831.3,381.1,830.7,382.1,830z M370,597.3c-0.9,1.1-1.8,2.2-2.6,3.5c-0.7,1-1.3,2-2,3.1
		c-0.3-1.2-0.6-2.4-0.9-3.5c1.7-1,3.5-1.9,5.2-2.9c0.2-0.2,1.8-1.9,0.4-0.4C371.2,596,369.6,597.8,370,597.3z M382.1,830
		c-0.1-0.2,0-0.5,0.5-1.2c1.1-1.6,1.1-4.2,0.5-7c2.5-0.7,5-1.2,7.5-1.8c1-0.2-0.3,1.7-0.1,1.5c-0.9,1.6-2.3,2.8-3.4,3.9
		C385.5,827,383.9,828.7,382.1,830z M383.1,821.8c-27.8,7.4-52.9,23.1-74.9,44.8c-5.4,5.3-10.6,11.1-15.8,16.8
		c-2.5,2.7-4.5,4.9-6.7,7.1c-1.7,1.7-2.7,2.6-4.4,3.9c-3.6,2.8-10.5,8.6-15.6-0.8c-4.6-8.4-4.4-21.6-3.4-28.8
		c2.6-17.8,11.5-29,18.5-41.2c8.1-14.1,15.7-28.7,22.9-44.1c14.2-30.4,26.4-63.4,36.7-98.6c4.7-16.2,8.6-33.2,13.6-49.1
		c2.4-7.7,5.1-15.2,8.3-21.9c1-2.1,2.1-4.1,3.2-6c4.6,20,5.8,39.4,5,57.5c-1.7,35.5-11.1,64.4-16,97.1c-1,6.9-2.1,14.7,1.7,23
		c2.8,6.2,7.1,10.6,11,14.6c4.4,4.4,8.6,8.4,12.1,15.1C380.7,814,382.4,818.1,383.1,821.8z"/>
	<path class="accentcolor2" d="M609.5,2563c0.2,0.4,0.3,0.9,0.5,1.3c3.2,9.1,6.5,18.1,10,27c0.4-4.1,0.7-8.3,1-12.5
		c1.3-18.9,1.1-38.6,0.6-58.5c3.9,28.6,4.5,56.4,2.8,82.4c1.7,4.3,3.4,8.5,5.2,12.8c1.2,2.9,2.4,5.8,3.6,8.6
		c7.8-52.4,7.2-111.7-12.1-174.6c-0.3-0.9-6.4,3.9-6.9,4.3c-1.5,1.3-2.9,2.7-4.2,4.3c-0.4,0.5-1.3,1.4-1.4,2.5
		c-1,24.4,0.2,50.1,0.8,75.4C609.6,2545.2,609.6,2554.1,609.5,2563z"/>
	<path class="accentcolor2" d="M563.1,2426.7c0.5,1.6,1,3.2,1.5,4.8c7,21.5,14.2,42.9,21.5,64.3c-1-8.8-2.1-17.7-3.2-26.5
		c-4.4-34.5-9.1-69.2-16.4-104.2c-7.1-33.9-17.2-67.5-27.8-101c-8.6-27.1-22.5-61.4-16.2-84.3c2,0.2,4,1,6.1,2.2
		c4.4,2.5,8.7,6.7,12.7,11.4c8.6,10.1,16.1,23,23.1,35.9c28.2,51.4,48.1,110.6,61,168.7c14.7,66.6,20,132.1,22,195
		c0.6,21.1,0.9,42.1,1,62.9c0.6,1.2,1.3,2.4,1.9,3.6c3.3,6.2,6.8,12.2,10.6,18.1c-0.1-18.2,0-36.3-0.2-54.6
		c-0.4-33.2-1.4-66.9-3.8-101.1c-4.5-62.2-14.2-127-33.6-191.1c-8.9-29.3-19.7-58.2-32.5-85.5c-6.5-13.7-13.5-27-20.9-39.7
		c-7.3-12.3-15.4-24.6-24.6-32c-4.2-3.4-8.7-5.5-12.6-5.3c-5.7,0.3-10.4,5-14.5,9.1c-3.5,3.5-6.8,7.5-8.4,13.9
		c-1.2,4.9-1.6,10.8-1.2,16.9c1.1,16.5,7.2,34,12.5,50.5c5.5,17.2,11,34.4,16.1,51.6c10.3,34.6,18.3,69,24,103.7
		C561.8,2418.2,562.5,2422.5,563.1,2426.7z"/>
	<path class="accentcolor2" d="M56.9,181.1c3.8,22,7.6,44.1,11.4,66.2c0.8,0.5,1.6,0.9,2.4,1.3c-0.6,0.6-1.2,1.1-1.9,1.7
		c0.1,0.4,0.1,0.8,0.2,1.2c0.1-0.1,0.2-0.2,0.3-0.3c0.4-0.6,1.3-1.4,1.4-2.5c0.7-11.1,0.2-23.1-2.6-35.5
		C65.7,202,61.7,191.2,56.9,181.1z"/>
	<path class="accentcolor2" d="M111.7,490.4c1,5.6,2,11.2,3.1,16.8c23.4-63.5,38.4-137.3,31.6-225.9c-4.5-58.4-18.8-127.5-49.7-180.9
		c-8.1-14.1-17.1-26.8-26.5-38.5c-12.3-6.3-24.4-12.7-36.6-19.2c0.2,1.1,0.4,2.3,0.6,3.4c15.3,16.4,30.4,34.2,43.7,55.2
		c15.6,24.6,27.5,52.8,36.2,82.4c17.6,59.9,23.2,120.7,20.7,175.1C132.6,407.9,124,451.1,111.7,490.4z"/>
	<path class="accentcolor2" d="M145.6,672.6c0.5,2.5,1,5,1.4,7.5c2.1-2.9,4.2-5.9,6.2-9c14.7-22.6,25.8-50.4,35.2-80.1
		c9.5-30.2,17.9-61.8,25.3-94.3c14.6-64.5,24.4-134.6,23.1-211.4c-0.9-49.3-6.2-101.8-17.4-154.3c-5.6-2.3-11.1-4.7-16.7-7.1
		c17.6,73.9,23.6,147.6,21.2,214.9c-2.7,74.9-15.3,142.6-31.7,205.6c-8,30.7-16.5,61.1-27.3,88.7
		C159.2,647.7,152.7,660.6,145.6,672.6z"/>
	<path class="accentcolor2" d="M128.9,583.8c0.7,3.9,1.4,7.7,2.2,11.6c19.3-39.9,37.5-82,49.9-130.3c7.2-27.9,12.1-58.4,12.8-91.7
		c0.8-34.9-2.6-72-7.5-109.3c-6.9-52.4-15.3-113-38.3-164.4c-8-3.7-16.1-7.4-24-11.2c8.4,14.6,15.5,30.7,21.3,47.6
		c10.3,30.1,16.6,61.1,21.6,91.4c5.9,36,10.7,72.2,13.1,107.2c2.6,37.2,1.5,72.2-3.8,104.4c-4.9,29.5-12.6,56.2-21.5,81.4
		C146.8,542.6,138.1,563.6,128.9,583.8z"/>
	<path class="accentcolor2" d="M37,62.9c1.6,9.8,3.3,19.6,4.9,29.4c24.1,28.9,43.4,66.7,56,108c14.1,46.3,19.9,93.9,18.4,136.4
		c-1.2,35.4-6.9,67.5-14.9,97.1c1.2,6.5,2.4,13,3.5,19.5c3.5-10.8,6.8-21.8,9.8-33.2c10.3-39.6,16.8-84.6,13.4-134.5
		c-3-44.9-13.7-94.1-33.1-138.2C78.9,111,58.8,83.8,37,62.9z"/>
	<path class="accentcolor2" d="M48.8,133.3c2.2,13.2,4.5,26.3,6.7,39.5c0.1,0.1,0.2,0.3,0.3,0.4c25.9,43.6,36.7,97,36.4,143.5
		c-0.1,16.2-1.4,31.7-3.4,46.5c1.7,9.5,3.4,19,5.1,28.5c7.8-34.8,13.4-72.4,9.7-115.2c-2.1-24.5-7.3-50.4-16.4-75
		c-9.2-25-22.3-46.9-36.6-66C49.9,134.8,49.4,134,48.8,133.3z"/>
	<path class="accentcolor2" d="M878.6,1849.1c-0.5-3.8-1-7.5-1.5-11.3c-38.9,1.3-76.4,8.7-111.9,21.8c-6.7,2.5-15,5.9-23.4-0.8
		c-4.2-3.4-7.3-9-9.6-15.5c-2.8-8-5.2-16.3-7.6-24.4c-9.6-33.5-16.4-67.6-20-100.7c-3.7-33.8-3.7-65.5-1.6-96.3
		c2.2-32.6,4.8-64.9,7.3-97.3c4.6-61.1,7.7-123.9,17.3-181.2c4.5-27.1,10.6-53.2,19.5-75.7c4.2-10.6,9-20.5,15-28.5
		c5-6.8,11.1-10.4,18-14.1c8.3-4.4,16.6-8.7,24.9-13c-0.2-1.7-0.3-3.5-0.5-5.2c-2.5,1.3-4.9,2.5-7.4,3.8
		c-18.8,9.5-36.9,21.4-50.1,42.4c-11.6,18.5-19.3,42.6-25.3,68.1c-6.2,26.6-10.2,55.2-13.3,84.6c-3.2,30.1-5.3,61-7.6,91.7
		c-2.5,33.4-5,66.8-7.6,100.3c-2.4,32-5.3,63.9-3.7,98.4c1.5,33.1,6.5,67.8,14.5,102.4c4,17.2,8.7,34.3,14.2,51.2
		c2.3,7,4.8,13.9,9.3,18.5c3.5,3.6,7.3,5,10.8,5.5c9.3,1.3,17.4-3.6,25.5-6.3c9.5-3.2,19.2-6,29-8.4
		C820.5,1852.5,849.2,1849.1,878.6,1849.1z"/>
	<path class="accentcolor2" d="M874,1814.4c-0.5-4-1.1-8-1.6-12c-11.6-0.1-22.9,1-33.8,3.7c-8.9,2.3-17.2,6.1-25.8,9.5
		c-8.1,3.2-16.7,5.4-26.3,2.8c-8.4-2.3-17.7-8.5-25.1-19.4c-7.9-11.6-12.8-26.7-16.9-40.9c-9.5-32.9-14.9-66.3-17.4-98.3
		c-5-65.6,2.5-124.3,11.4-180.5c8.3-52.3,16-105.9,35.9-145.9c8.2-16.5,18.3-31,29.1-43c3-3.3,5-5.4,7.7-8.1
		c0.1-0.1,0.3-0.3,0.4-0.4c-0.1-1.2-0.2-2.3-0.4-3.5c-1.1,1.1-2.3,2.2-3.4,3.3c-25.1,24.4-47.1,55.2-60.1,97.9
		c-7.5,24.5-12.2,51.8-16.7,79.2c-4.7,28.4-9.4,56.8-12.9,86.2c-6.8,57.6-8.7,120.9,4.9,188.3c3.3,16.3,7.4,33,12.8,49.1
		c4.8,14.3,11.2,27.9,20.4,36.7c18.8,18.1,36.6,11.6,51.5,5.3c17.1-7.3,35-10.8,54.3-10.5C866.1,1813.9,870.1,1814.1,874,1814.4z"/>
	<path class="accentcolor2" d="M866.2,1754.2c-0.6-4.8-1.2-9.5-1.8-14.3c-16.1-3.2-32.2-6-48.5-10.1c-7.4-1.9-14.5-6.7-20.3-17.6
		c-4.9-9.4-7.9-20.4-10.4-30.7c-6.3-26.9-11.2-53.9-14.8-80.4c-7.2-53.4-9-105.5-5.1-153.5c1.9-23.6,5-46.7,10.7-66.9
		c5.4-19,13.6-34.8,23.4-47.7c2.3-3,4.7-5.9,7.2-8.7c2.8-3.2,4.7-5.1,7.4-7.7c0.5-0.4,0.9-0.9,1.4-1.3c-0.1-1.2-0.2-2.3-0.4-3.5
		c-4.1,3.9-8.2,7.9-12.1,12.1c-11.1,11.8-21.5,25.2-29.7,41.9c-16.4,33.6-21.2,82.2-22.2,130.1c-1,50.4,3.6,104.2,13.8,158.6
		c2.4,13.1,5.2,26.3,8.3,39.4c2.5,10.3,5.6,21.3,10.6,30.5c5.8,10.6,12.9,14.9,20.1,16.8c9,2.4,17.8,3.8,26.7,5.6
		C842.3,1749.2,854.2,1751.7,866.2,1754.2z"/>
	<path class="accentcolor2" d="M788.1,1031.2c-0.1-1.4-0.2-2.8-0.4-4.2c-8.4,9.7-16.8,19.3-25.3,28.8c-0.8,0.9-1.6,1.7-2.4,2.6
		c-0.1,0.1-0.2,0.2-0.2,0.2c0,0,0,0,0,0c0,0,0,0,0,0c0,0,0,0,0,0c0,0,0,0,0,0c0,0,0,0,0,0c0,0,0,0,0,0c-0.2,0.2-0.4,0.4-0.7,0.7
		c-0.2,0.3-0.5,0.5-0.8,0.8c0,0,0,0-0.1,0.1c0,0,0,0,0,0c0,0,0,0,0,0c0,0,0,0,0,0c0,0,0,0,0,0c0,0,0,0,0,0c0,0,0,0,0,0
		c-0.1,0.1-0.4,0.3-0.6,0.5c0,0-0.1,0.1-0.1,0.1c0,0,0,0,0,0c0,0-0.1,0.1-0.1,0.1c0,0,0,0,0,0c0,0,0,0,0,0l0,0c0,0-0.1,0.1-0.1,0.1
		c0,0,0,0,0,0c0,0,0,0,0,0l0,0c0,0,0,0,0,0c0,0,0,0,0,0c0,0,0,0,0,0c0,0,0,0,0,0c0,0,0,0,0,0c-0.2,0.2-0.6,0.4-0.7,0.5
		c-0.7,0.4-1.3,0.8-2,1.2c-1.4,0.7-2.8,1.4-4.3,1.8c-3.3,1-6.8,1.3-10.5,0.6c-3.5-0.6-7.7-1.8-11.2-5.7c-7.1-8-5.2-21.8-4.7-30.1
		c0.6-10.4,1.7-20.6,3.1-30.5c5.5-38.7,16.7-72.9,32.7-99.3c3.9-6.4,8.1-12.4,12.6-17.8c1.2-1.5,2-2.4,3.1-3.6
		c0.1-0.1,0.2-0.2,0.2-0.3c-0.1-1.2-0.2-2.4-0.3-3.6c-14.3,14-26.9,31.1-37.1,52.4c-14.2,29.8-23.2,66.5-26.4,107.6
		c-0.4,5.2-0.7,10.4-0.9,15.7c-0.2,4.8-0.1,10.7,2.1,16c4.6,10.7,15.2,11.5,20.6,11.2c8-0.6,14.8-5.2,21.2-10.2
		c7.1-5.7,13.6-12.7,19.9-19.9C779,1041.7,783.6,1036.5,788.1,1031.2z"/>
	<path class="accentcolor2" d="M881.9,1873.4c-0.5-3.6-1-7.3-1.5-10.9c-1.4,0.1-2.9,0.3-4.3,0.4c-23.3,2.6-45.2,10.5-65.1,23.2
		c-19.9,12.7-36.7,31.7-55.2,47.3c-8.8,7.4-18.3,13.1-29.1,15.5c-5.7,1.2-10.9-0.4-15.3-11c-3.9-9.5-6.5-20.2-9.2-30
		c-11.7-42.5-19.3-85.4-24.1-127.2c-9-77.9-9.9-154.2-6.6-226.2c3.1-67.2,10.9-131.5,24.8-189.7c13.7-57.1,33.4-108.3,60.2-148.6
		c13.1-19.6,28-35.5,44-49.3c-0.1-1.2-0.2-2.5-0.4-3.7c-27.4,23.9-52.2,52.7-72.1,90.1c-24.8,46.5-42.1,103.4-53.3,165.6
		c-11.3,62.5-16.5,130.4-17.2,200.8c-0.7,79.1,2.6,163,20.1,248.6c4.5,22.3,10.1,44.8,16.8,66.9c2.4,7.8,5.2,19.1,10.7,23.6
		c5.8,4.7,12.1,1.1,16.8-0.5c23-7.9,41.2-28.1,60-45.7C809.9,1886.3,844.5,1873.4,881.9,1873.4z"/>
	<path class="accentcolor2" d="M785.5,1001c-0.2-2.3-0.4-4.6-0.6-6.9c-2.6,0.5-5.2,0.8-7.9,0.7c-5.3-0.1-12.2-1.4-15.9-11.7
		c-3-8.4-2.1-17.4-0.4-23.6c3.7-14.3,11-25.6,18.4-34.7c-0.1-1.4-0.2-2.9-0.4-4.3c-6.6,6.6-12.8,14-18.2,22.6
		c-3.7,5.9-7.1,12.4-9.9,19.6c-2.4,6.1-4.3,13.1-3.8,21.8c0.5,8.6,4,17.1,10,20.1c6.6,3.3,13.6,1.8,19.2,0.2
		C779.2,1003.9,782.4,1002.6,785.5,1001z"/>
	<path class="accentcolor2" d="M177.8,839.2c1.1,5.4,2.1,10.8,3.2,16.2c22.4-68.7,54.5-125.8,82.9-186.9c19-40.9,36.6-83.6,52.9-128
		c8.1-22.1,15.8-44.5,23.2-67.4c6.8-20.9,12.3-43.7,20.4-63c1.9-4.4,3.9-8.6,6.3-12.3c0.5-0.8,1.7-1.9,2.4-3c-0.8,1-1.9,0.7,0.2-0.2
		c0.2-0.3,0.3-0.6,0.4-0.9c-0.1,0.4-0.2,0.6-0.4,0.9c0.1-0.1,0.3-0.1,0.5-0.2c3.1-1.2,6.7-1.4,10.3-0.5c0.8,0.2,3,0.4,3.6,1.1
		c0.3,0.4,1,4.2,1.2,5.1c1,4.3,1.9,8.5,2.8,12.8c7.2,33.2,13.4,66.3,18.6,99.2c5.1,32.5,9.3,64.8,12.4,96.8
		c2.4,24.5,3.7,48.6,8.1,73.7c3.7,20.8,9.6,43.7,20.9,61.3c5.6,8.7,11.9,14.7,18.5,19.6c6.9,5.1,14.5,9.4,20.8,17.8
		c7.7,10.2,9.6,23.3,9.5,35.2c-0.1,12.1-1.5,23.4-4,33.5c-4.7,19.5-13.1,35.3-23.6,46.6c-11,11.8-25.3,17.5-39.2,22.5
		c-16.6,6-33.8,10.1-50.4,16.2c-30,10.9-56.6,30.6-79.6,57.2c-21.3,24.6-38.8,56.2-51.3,93.6c-4.7,13.9-8.5,28.6-11.7,43.9
		c1.9,9.3,3.9,18.6,5.8,28c11.1-85.8,42.1-158.4,90.2-193c28.2-20.3,62-24.8,93.1-37.3c29.3-11.8,58.5-32.8,73.9-71.5
		c3.5-8.9,6.2-18.8,7.7-29.7c1.5-10.5,2.7-23,0.7-35.5c-4.3-26.7-24.1-32.8-36.9-44.8c-28.8-27-34.6-84.1-37.8-122.4
		c-5.5-64.6-14.5-130.2-27.9-196.6c-1.8-8.9-3.7-17.8-5.6-26.8c-0.8-3.8-1.7-7.7-2.5-11.5c-0.5-2.2-0.6-4.1-1.7-5.3
		c-0.3-0.3-2-0.7-2.1-0.7c-7.4-2.2-13.7,0-19.3,3.9c-13.5,9.3-23.3,24.4-30.2,44.4c-7.5,21.5-13.7,44.5-21,66.4
		c-7.8,23.6-16,46.7-24.6,69.4c-16.6,44.1-34.7,86.5-54.1,127c-18.7,39.2-38.5,77.1-55.8,118.2C184.7,821.1,181.1,830.1,177.8,839.2
		z M369.6,393.8 M369.6,393.8C369.6,393.8,369.6,393.8,369.6,393.8C369.6,393.8,369.6,393.8,369.6,393.8z M369.6,393.8"/>
	<path class="accentcolor2" d="M201.1,956.8c1.4,6.9,2.8,13.8,4.2,20.7c4.6-16.5,9-33.1,12.6-50.7c9.4-46.9,14.4-97.8,24.8-143.7
		c19.4-85.5,54.1-153.7,91.1-216.7c9.2-15.6,18.4-31.2,27.9-46.4c0.2-0.3,0.3-0.5,0.5-0.8c1.5-0.2,3-0.4,4.7,0.4
		c3.1,1.3,6,4.9,8.1,9.3c2.9,6.1,4.2,13.3,5.6,19.8c1.6,7.3,3.1,14.7,4.5,22c11.3,59,17.3,117.5,17.6,172.9
		c0.1,16.2-1.5,45.1,13.5,56.6c3.7,2.8,7.4,4.2,11,8.2c2.4,2.7,4.4,6,6.1,9.7c3.8,8.5,5.5,18.2,5.5,26.5c0,4.7-0.5,9.1-1.7,12.7
		c-0.6,2-1.5,3.8-2.4,5.4c-0.2,0.3-0.3,0.5-0.5,0.8c-2.6,0.8-5,2.8-7.5,3.8c-3.1,1.2-6.3,2.2-9.5,3.3c-12.5,4.2-24.7,9.5-36.4,15.7
		c-49.2,26.2-92.9,68.3-126.2,125.3c-11.1,19-21,39.7-29.5,62c1.1,5.2,2.1,10.4,3.2,15.5c13.9-43.1,32.4-80.8,54.6-112.3
		c17.1-24.2,36.1-44.3,56.9-60c22.4-16.8,46.9-28.4,72.4-37.1c7.1-2.4,13.8-5.6,19.9-10.5c6.3-5.1,13.1-11,16.8-20.7
		c4.6-11.9,2.9-35.2-7.4-49.3c-5.9-8.1-13.4-8.2-18.9-17.5c-5.1-8.6-6.5-19.9-7.1-29c-0.7-12.3-0.2-24.1-0.5-36.2
		c-0.4-14.6-1.1-29.4-2.2-44.3c-2.2-29.2-5.8-58.9-10.8-88.8c-2.5-15-5.4-30-8.6-45.1c-2.3-11-5.3-26.2-14-30.2
		c-8.1-3.7-15.3,4.4-20.4,9.4c-6.1,6-10.8,14.1-15.6,22.1c-9.6,15.8-19.1,31.6-28.4,47.8c-37.1,64.6-71.2,135.3-88.5,224.4
		C217,859.6,212,910.9,201.1,956.8z"/>
	<path class="accentcolor2" d="M791.8,1072.9c-0.1-1.5-0.3-3.1-0.4-4.6c-10.4,12.1-20.8,24-31.3,35.8c-7.1,7.9-14.2,15.7-21.3,23.4
		c-3.6,3.9-7.2,7.7-10.8,11.5c-1.9,2-3.8,4.1-5.7,6.1c-0.9,1-1.8,1.9-2.7,2.8l-0.3,0.3c-0.1,0-0.1,0.1-0.2,0.1
		c-0.8,0.4-1.6,0.7-2.4,1c-1.8,0.5-3.7,0.6-5.7,0c-4.1-1.1-8.4-5.3-11.5-11.1c-6.2-11.2-8.3-25.4-10.2-37.5
		c-8.3-52.9-5.6-102.3,4.9-143.5c5.3-20.9,12.6-39.7,21.3-56.3c4.5-8.5,9.4-16.3,14.6-23.5c2.5-3.4,5.1-6.6,7.7-9.7
		c1.1-1.3,2.4-2.8,3.8-4.3c0.3-0.3,0.5-0.6,0.8-0.9c0.1,0,0.3-0.3,0.5-0.5c0,0,0,0,0,0c0,0,0,0,0.1-0.1c0,0,0-0.1,0.1-0.1l0,0
		c0,0,0,0,0.1-0.1c0,0,0,0,0,0c0,0,0,0,0.1-0.1c0,0,0,0,0,0c0.2-0.2,0.4-0.4,0.5-0.5c0.4-0.4,0.7-0.7,1.1-1.1
		c0.5-0.5,0.9-0.9,1.4-1.3c0,0,0,0,0,0c0,0,0,0,0.1-0.1c0,0,0.1-0.1,0.1-0.1c0,0,0.1-0.1,0.1-0.1c0,0,0,0,0,0c0,0,0.1-0.1,0.1-0.1
		c0,0,0.1,0,0.1-0.1c0,0,0,0,0,0c0,0,0,0,0,0c0,0,0,0,0,0l0,0c0,0,0,0,0,0c0,0,0,0,0,0l0,0l0,0c0.6-0.5,1.1-1,1.7-1.5
		c0.3-0.3,0.6-0.5,0.9-0.8c0,0,0.1-0.1,0.1-0.1c0,0,0,0,0,0c0,0,0,0,0,0c0,0,0,0,0,0c0.7-0.6,1.4-1.1,2.1-1.7c0.4-0.3,0.8-0.7,1.3-1
		c0,0,0,0,0,0c0,0,0,0,0,0c0,0,0,0,0,0l0,0c0,0,0,0,0,0c0,0,0,0,0,0c0,0,0,0,0,0l0,0c0,0,0,0,0,0c0,0,0,0,0,0c0,0,0.1-0.1,0.2-0.1
		c0.2-0.1,0.4-0.3,0.4-0.3c0.9-0.7,1.8-1.3,2.6-2c1.7-1.2,3.3-2.4,5-3.6c3.6-2.5,7.3-5,10.9-7.5c-0.1-1.4-0.2-2.7-0.3-4.1
		c-3.7,2.5-7.4,5.1-11,7.8c-15.1,11.3-29.2,25-41.5,41.7C698,914,682,953,675.3,1000.3c-3.3,23-4.4,47.9-2.7,74.1
		c0.8,13.1,2.3,26.5,4.5,40.1c2,12.1,4.4,26.8,11.2,37.4c8.3,12.8,17.5,9.8,24.1,5.4c9.6-6.4,17.7-16,26-24.9
		c14.9-15.9,29.6-32.2,44.2-48.8C785.7,1079.9,788.8,1076.4,791.8,1072.9z"/>
	<path class="accentcolor2" d="M795.2,1110.5c-0.1-1.6-0.3-3.2-0.4-4.8c-11.7,14.1-23.4,28.2-35.2,42.1c-7.1,8.4-14.3,16.6-21.8,24.4
		c-3.5,3.7-6.8,7.1-10.6,10.7c-0.8,0.8-2.2,2.1-2.8,2.7c0,0,0,0,0,0l0,0c0,0,0,0,0,0c0,0,0,0,0,0c0,0,0,0,0,0c0,0,0,0,0,0
		c0,0,0,0,0,0c-0.3,0.2-0.9,0.8-0.9,0.9c-0.5,0.4-0.9,0.9-1.4,1.3c-1.9,1.7-3.8,3.4-5.7,5.1c0,0,0,0,0,0c0,0,0,0,0,0c0,0,0,0,0,0
		c0,0,0,0,0,0c0,0,0,0-0.1,0.1l0,0c-0.2,0.2-0.8,0.6-0.9,0.8c-0.5,0.4-0.9,0.8-1.4,1.2c-1.1,0.9-2.1,1.8-3.2,2.6
		c-1.4,1.1-2.4,1.9-4.1,3.1c-3.9,2.6-8.2,4.5-12.9,4.9c-8.1,0.7-17.5-3.6-25.6-14.2c-9.5-12.6-11.4-28.5-12.2-43.3
		c-0.7-14-1.3-27.9-1.6-41.7c-0.6-28-0.2-55.4,1.7-81.9c3.7-51.8,13.3-100.8,33.1-135.8c4.9-8.5,10.3-16.2,16.3-22.8
		c3.1-3.4,5.9-6.1,8.6-8.6c1.1-1,2.1-1.9,3.2-2.8c0.1-0.1,0.2-0.2,0.2-0.2c0,0,0.1-0.1,0.1-0.1c0,0,0.1-0.1,0.1-0.1c0,0,0,0,0,0
		c0,0,0.1-0.1,0.1-0.1c0,0,0.1-0.1,0.1-0.1c0,0,0,0,0,0c0.3-0.2,0.5-0.5,0.8-0.7c1.8-1.6,3.7-3.1,5.6-4.6
		c15.5-12.6,31.4-24.4,45.6-39.7c-0.1-1.6-0.2-3.2-0.4-4.8c-1.6,2-3.2,4-4.8,5.9c-1,1.1-2,2.2-3,3.2c0,0.1-0.4,0.4-0.7,0.7
		c0,0,0,0,0,0c0,0,0,0,0,0c0,0,0,0,0,0c0,0-0.1,0.1-0.1,0.1c-0.3,0.3-1,1-1.1,1.1c0,0,0,0,0,0c-0.8,0.8-1.6,1.6-2.5,2.4
		c-0.3,0.3-0.6,0.5-0.8,0.8c0,0,0,0,0,0c0,0,0,0,0,0c0,0,0,0,0,0c0,0,0,0,0,0c0,0,0,0,0,0c0,0,0,0,0,0c0,0,0,0,0,0c0,0,0,0,0,0
		c0,0,0,0-0.1,0.1c0,0,0,0,0,0c-0.1,0.1-0.3,0.3-0.3,0.3c-1.1,1-2.1,1.9-3.2,2.9c-0.1,0.1-1.2,1.1-1.6,1.4c0,0,0,0,0,0c0,0,0,0,0,0
		c0,0,0,0,0,0c0,0,0,0,0,0c0,0,0,0,0,0c0,0,0,0,0,0c-1.8,1.6-3.7,3.1-5.6,4.7c-16.4,13.4-33.3,25.7-48.1,42.3
		c-13.1,14.6-24.2,32.7-32.5,54.7c-15.8,42-21.8,95.1-22.9,150.2c-0.6,28.3,0.1,57.5,1.8,87c0.9,15.1,3.8,30.7,13.7,42.5
		c8.2,9.8,17.6,13.4,25.6,12.4c10.8-1.3,19.7-9,28.2-16c9.1-7.5,17.9-15.6,26.5-24.3c16.2-16.4,31.5-34.5,46.7-52.8
		C787.8,1119.5,791.5,1115,795.2,1110.5z"/>
	<path class="accentcolor2" d="M954.6,2590.6C954.6,2590.6,954.6,2590.6,954.6,2590.6C954.6,2590.6,954.6,2590.6,954.6,2590.6z"/>
	<path class="accentcolor2" d="M746.3,481.8c-0.1-1.2-0.2-2.5-0.2-3.7c-18,18.4-35.9,37-53.4,54.8c-6.2,6.3-12.5,12.6-18.8,18.6
		c-0.6,0.5-1.1,1-1.6,1.6c-0.1,0.1-0.1,0.1-0.2,0.1c0,0,0,0-0.1,0.1c0,0,0,0,0,0c0,0,0,0-0.1,0.1c-0.7,0.6-1.4,1.3-2,1.9
		c-1.5,1.4-3.1,2.8-4.7,4.2c-1.6,1.4-3.1,2.8-4.7,4.1l0,0c0,0,0,0,0,0c0,0,0,0,0,0c0,0,0,0,0,0c0,0,0,0,0,0c0,0,0,0,0,0
		c0,0,0,0-0.1,0.1c-0.2,0.2-0.5,0.4-0.5,0.4c-0.3,0.3-0.7,0.6-1,0.9c-0.8,0.7-1.6,1.3-2.4,2c-12.1,10-25.8,19.3-40.1,25.9
		c-13.7,6.3-28.4,11.3-44.8,7.9c-7.6-1.6-15.6-5.2-23.4-11.8c-1.9-1.6-3.9-3.5-5.7-5.5c6.4,1.3,13,4.4,19.4,5.9
		c8.4,1.9,16.7,2.5,24.6,1.6c17.4-2,32.4-11.2,45.6-24c13-12.6,23.3-29.5,33.6-46.6c10.3-17.1,21.4-32.8,33.3-47.2
		c14.2-17.2,28.9-33.7,43.6-50c-0.1-1.4-0.2-2.7-0.3-4.1c-8.2,9.1-16.3,18.3-24.5,27.4c-13,14.5-26,29-38.2,44.8
		c-11.9,15.4-22.4,32.7-33,50.1c-4.9,8.1-10,16-15.8,22.6c-0.7,0.8-1.3,1.5-2,2.2c0,0,0,0,0,0l0,0c0,0,0,0,0,0c0,0,0,0,0,0
		c0,0,0,0,0,0c0,0,0,0,0,0c-0.2,0.2-0.8,0.8-1,1c0,0,0,0,0.1,0c0,0,0,0.1-0.1,0.1c0,0,0,0,0,0.1c0,0,0,0,0,0c0,0,0,0,0,0l0,0
		c0,0,0,0,0,0c-0.6,0.5-1.3,1.1-2,1.6c-2.9,2.2-6,3.9-9.2,5.4c-14.6,6.7-31.5,7.2-49,1.8c-6.9-2.1-14.1-5.8-20.5-4.7
		c-4.8,0.8-8.9,4.5-12.6,8.2c-2.9,2.8-6,5.9-6.8,11.7c0,0.2,0,0.4-0.1,0.5c3.7,4.2,7.5,7.8,11.4,10.7c16.2,12,32.4,12.2,46.4,8.8
		c15.8-3.8,30.5-11.6,44.4-20.7c30-19.6,56.4-46.8,82.7-74C723.7,505,735,493.4,746.3,481.8z"/>
	<path class="accentcolor2" d="M710.1,287.7c-1.7-0.4-3.4-0.8-5.2-1.2c-0.7,1-1.3,2-2,3c-15.6,23.8-29.8,49.8-45.5,73.6
		c-7.3,11.1-15.1,21.4-23.6,30.1c-8.7,9-17.1,15.9-26.8,23.8c-17.3,14.2-36.1,30.3-60.8,22.9c-5.3-1.6-12.6-3.9-17.3-11.8
		c-3.8-6.4-5-14.6-5.6-21.5c-0.3-4-0.5-8-0.7-12c5,4.3,10.1,8,15.2,11.1c10.6,6.5,21.6,10.1,30.9,7.3c11.2-3.4,20.1-13.4,28.5-23
		c7.8-9,15.5-18,23.3-26.9c14.9-17.2,30.7-33.2,43.2-54.4c5.1-8.7,9.4-18.6,13.3-28.9c-2.6-0.6-5.2-1.3-7.8-1.9
		c-4.7,13.3-9.5,26.3-15.8,37.4c-12.1,21.3-27.9,37-42.6,53.9c-7.8,9-15.5,18-23.3,26.9c-0.8,0.9-1.6,1.8-2.4,2.7
		c-0.2,0.2-0.6,0.6-0.8,0.8c-0.9,0.5-1.8,1-2.7,1.4c-4.5,1.9-9.7,1.8-14.9,0.6c-10.6-2.5-22.4-9.9-32.9-19.4
		c-4.7-4.2-8.8-9.7-11.5-17.2c-1-2.8-1.8-5.7-2.4-8.6c0,0,0,0,0,0c-0.8-7.6-1.7-15.2-2.7-22.9c6.2,10.1,13.5,17.9,21.9,20.8
		c10.9,3.7,19.5-4.5,27.1-10.8c8.3-6.9,16.6-13.7,24.9-20.6c16.8-13.9,33.4-28.2,45.9-50.1c0.5-0.9,1-1.8,1.5-2.6
		c-2-0.5-4-1-6.1-1.6c-1.7,3.2-3.3,6.3-5,9.4c-2.8,5-5.6,9.8-8.7,14.3c-2.6,3.7-6,7.8-8.6,10.4c-3.1,3.2-6.5,6.1-9.7,8.8
		c-4,3.3-8,6.6-12,9.9c-7.8,6.4-16.1,14.3-23.7,19.5c-7.2,4.9-16.1,3.1-25.1-6c-11.2-11.3-18.6-27.4-24.4-44.6c2,3.1,4.4,5.8,7,7.9
		c8.1,6.4,16.5,6.4,23.6,5.1c26.3-4.8,49.3-19.9,70.2-39c-1.1-0.3-2.2-0.6-3.3-0.9c-0.2,0.2-0.4,0.3-0.6,0.5c0,0,0,0,0,0
		c0,0,0,0,0,0c0,0,0,0,0,0c0,0,0,0-0.1,0.1c0,0-0.1,0-0.1,0.1c0,0,0,0,0,0c-0.4,0.3-0.9,0.8-0.9,0.8c-0.3,0.3-0.6,0.5-1,0.8
		c-0.8,0.7-1.7,1.4-2.5,2.1c-0.4,0.3-0.9,0.7-1.3,1c-0.1,0-0.1,0.1-0.1,0.1c-0.1,0.1-0.2,0.1-0.2,0.1c0,0,0,0,0,0l0,0c0,0,0,0,0,0
		l0,0c0,0,0,0,0,0c0,0,0,0,0,0c-0.8,0.6-1.5,1.1-2.3,1.7c-3.4,2.5-6.7,4.7-10.3,6.9c-7.1,4.3-14.5,7.8-22.2,10.5
		c-7.5,2.6-15.5,5.1-24.1,4c-8-1-16.7-6.5-22.9-19.1c-3-6.2-5.1-12.9-7.1-19.6c-1.9-6.3-3.9-12.5-6-18.8
		c-10.8-3.2-21.5-6.5-32.2-9.8c6.1,20.3,11.3,40.9,15.7,61.4c3.4,16,6.3,32,8.7,47.9c0,0,0,0,0,0c0.8,6.7,1.5,13.3,2.2,20
		c0.5,4.4,1.1,9,2,13.6c0,0,0,0,0,0c0,0,0,0,0,0c0.9,8.5,1.6,17,2.1,25.4c0.5,8,0.6,15.9,1.2,24c0.5,7.1,1.7,15.6,5.6,22.1
		c4.4,7.5,11,9.7,16.2,11.5c6.1,2.1,12,2.8,17.6,2.3c11.7-1,22.1-6.5,31.9-13.1c10.5-7.1,20.4-15.5,30.3-23.8
		c20.6-17.3,40-36.6,56.4-61.6C683.1,333,696.1,309.6,710.1,287.7z M584.6,399.6c-1,0.9-0.5,0.4-0.1,0.1
		C584.4,399.7,584.4,399.7,584.6,399.6z M584.6,399.5 M584.6,399.6C584.6,399.6,584.6,399.5,584.6,399.6
		C584.6,399.5,584.6,399.6,584.6,399.6C584.6,399.6,584.5,399.6,584.6,399.6C584.5,399.6,584.5,399.6,584.6,399.6
		C584.5,399.6,584.5,399.6,584.6,399.6z"/>
	<path class="accentcolor2" d="M736.8,333.8c-0.1-1.6-0.2-3.2-0.3-4.8c-43.7,51.6-85,107.7-131.9,153.4c-13.3,12.9-27.3,25-45,27
		c-8.8,1-19.4,0.1-29.2-6.7c-10.3-7.1-15.4-22.5-19.6-37.3c-17.8-63.3-16.9-125-34.8-188.3c-5.9-21-13.8-42.3-24.1-60.8
		c-8.4-2.7-16.7-5.4-25.1-8.1c23.7,31.3,38.2,78.5,45.8,119.7c6.1,33.1,9.2,65.7,14.7,98.7c2.9,17,6.4,34.2,11.3,51.3
		c4.3,14.9,9.4,29.9,19.8,36.6c18.7,12.1,37.3,6.8,51.6-1.1c17.3-9.6,32.5-24.7,47.3-39.7C659.5,431.1,697.4,381,736.8,333.8z"/>
	<path class="accentcolor2" d="M160.1,748.2c0.8,4.1,1.6,8.2,2.4,12.2c16.8-37.8,34.1-74.9,49.3-114.7c17.9-46.8,33.2-96.8,46-149.4
		c12.7-52.6,22.9-107.9,30.2-165.5c1.8-13.7,3.4-27.6,4.8-41.6c1.5-14.3,2.4-29.3,5.6-42c0.8-3,1.6-5.9,2.7-8.6
		c0.5-1.3,1.1-2.6,1.7-3.8c0.3-0.6,2.2-2.5,1.5-2.2c3.2-1.7,7.1-2,10.7-2.1c8.7-0.3,18.1,2.1,27.3,4.9c16.7,5.1,34.6,11.1,51.4,26.2
		c7.8,7,15.3,16.2,21.3,27.6c7.8,15,12.2,32.2,16.1,48.6c17.1,70.4,25.2,140,39.9,210.3c3.7,17.6,7.8,35.2,12.5,52.8
		c3.6,13.5,7.7,34.2,17.2,42.9c7.6,7,17.1,8.8,24.5,9.7c15.8,2.1,30.7-1,44.9-5.2c40.5-12,77.6-34.6,113.3-58.8
		c7.5-5,14.9-10.2,22.2-15.5c-5.7,6.3-11.3,12.9-16.7,19.8c-34.1,43.4-63.7,96.4-110.6,113.9c-11.6,4.3-24.1,6.4-37.2,5.6
		c-12.3-0.7-27.1-2.6-40.3-12.8c-22.8-17.6-28.8-59.8-31.9-89.5c-4.8-46.1-11.1-92.3-20.2-139.3c-4.6-23.6-9.8-47.3-15.5-70.9
		c-5-20.5-10-41.6-17.1-61.7c-5.6-15.9-13-32.4-23.2-42.8c-10.9-11.2-21.7-12.2-30.5-7.5c-10.9,5.9-20.5,16.2-27.8,29.2
		c-6.9,12.3-11.9,27.4-16.8,42.2c-20.6,61.5-35,129.9-52.2,195.1c-8.6,32.6-18,64.6-29.1,94.3c-11.6,30.8-25.7,58-40.6,84.3
		c-9.8,17.4-19.6,34.8-28.5,53.5c0.8,4.2,1.6,8.5,2.5,12.7c1.8-4.6,3.7-9.2,5.6-13.6c13.3-30.2,29.6-56.2,44.6-84.1
		c28.4-52.8,47.7-116.4,64.6-183.2c16.7-66.3,31.7-135.1,54.6-194.6c2.8-7.2,5.9-14,9.7-19.9c1-1.5,2-2.9,3-4.3
		c0.1-0.1,0.5-0.6,0.8-0.9c0,0,0,0,0,0c2.2-1.2,4.5-1.9,7.1-2.1c10.6-0.7,22.3,9.1,31.2,24.5c8.6,14.9,14.5,32.7,19.2,49.7
		c6.5,23.2,12.1,46.6,17.3,69.9c10.7,47.7,18.9,95.4,24.7,142.5c2.5,20,3.8,39.8,6.9,60c2.4,15.7,6.1,33,13.5,47.6
		c9,17.8,21,24.7,32.6,28.5c13.4,4.4,26.4,5.6,38.8,4.3c24.9-2.6,46.8-15.3,66.5-31.6c21.1-17.5,39.6-39.8,57.2-63.7
		c16.5-22.3,32.3-45.8,50.8-64.6c0,0,0,0,0,0c10.6-7.8,21.1-15.9,31.5-24.2c-0.1-1.2-0.2-2.4-0.2-3.6c-8.7,6.8-17.4,13.5-26.2,20.1
		c-0.9,0.4-2.3,1.6-2.5,1.7c-0.6,0.5-1.3,1-1.9,1.5c0,0,0,0-0.1,0c-22.3,16.4-45.1,31.7-68.6,45.3c-31.5,18.3-65.1,36.6-102.5,37.3
		c-6.3,0.1-12.8-0.4-19.5-2.3c-4.9-1.4-10.6-3.3-15.5-7.8c-9.5-8.7-13.5-29.3-17.2-42.9c-18.8-69.6-27.3-138.9-40.6-208.3
		c-3.3-17.1-6.9-34.2-10.9-51.3c-3.9-16.3-7.9-33.4-15.2-48.6c-11.6-24.2-28.9-37.6-44.8-45.7c-16.9-8.6-34.8-14.7-50.9-16.3
		c-17-1.7-32.2,6.9-41.9,23.5c-10.5,17.9-10.4,50.2-13.4,75.6c-3.3,28.4-7.2,56.2-11.7,83.4c-9.3,55.4-21.2,108.5-35.6,158.8
		c-14.4,50.1-31.4,97.2-50.6,141.6C173.7,717.8,166.9,733,160.1,748.2z"/>
	<path class="accentcolor2" d="M748.2,509.7c-0.1-1.6-0.2-3.1-0.3-4.7c-6.2,7.3-12.4,14.7-18.9,21.5c-1.7,1.8-2.8,3-4.7,4.8
		c-0.4,0.4-0.9,0.9-1.3,1.3l0,0c0,0,0,0,0,0c0,0,0,0,0,0c0,0,0,0,0,0c0,0,0,0-0.1,0.1c-0.1,0-0.1,0.1-0.2,0.2
		c-0.4,0.4-0.9,0.8-1.3,1.2c-0.1,0.1-0.7,0.6-0.9,0.8c0,0,0,0,0,0c0,0,0,0-0.1,0.1c0,0,0,0,0,0c0,0,0,0,0,0c-2.5,2.2-6.4,5-9.9,7.2
		c-8.5,5.4-17.3,9.9-25.7,15.3c-17.4,11.2-33,26.3-49.2,40.2c0,0,0,0,0,0l0,0l0,0c0,0,0,0,0,0c0,0,0,0-0.1,0.1
		c-0.3,0.3-1.3,1.1-1.2,1.1c-0.5,0.4-0.9,0.8-1.4,1.2c-0.8,0.7-1.6,1.4-2.5,2.1c-1.9,1.5-3.2,2.6-4.9,3.9c-3.7,2.8-7.4,5.3-11.2,7.6
		c-8,4.7-16.4,8.3-25.4,10.1c-9,1.8-18.6,1.8-28.6-0.7c-8-2-16.6-6-24.5-14.2c-3.5-3.7-6.9-8.2-9.4-13.6c-3-6.2-4.4-12.7-5.7-19.3
		c-1.3-6.7-2.5-13.8-5.6-20.1c-2.7-5.5-6.6-9.2-9.5-14.4c2.3,1.9,4.6,4,6.7,5.6c9.9,7.4,20,10.7,29.5,11.6c10,1,19.4-0.6,28.6-2.8
		c9-2.2,18-4.6,26.7-7.6c19.8-6.7,37.3-19.1,51.5-38.2c6.3-8.5,12-18.1,17.8-27.4c5.8-9.2,11.7-18.2,17.6-27.1
		c17.9-26.6,36.6-51.9,56-75.9c-0.1-1.8-0.2-3.5-0.3-5.3c-2.2,2.7-4.4,5.3-6.6,8c-26.7,32.7-52.1,67.8-76,105.2
		c-6.1,9.5-11.8,19.4-18.2,28.4c-1.6,2.2-3.3,4.4-5,6.4c-0.6,0.7-1.2,1.4-1.8,2c0,0,0,0,0,0c-0.1,0.1-0.2,0.2-0.4,0.4c0,0,0,0,0,0
		c0,0,0,0,0,0c0,0,0,0-0.1,0.1c0,0,0,0,0,0c0,0-0.1,0.1-0.1,0.1c0,0-0.1,0.1-0.1,0.1c0,0,0,0,0,0c0,0,0,0,0,0c0,0,0,0,0,0
		c-0.2,0.1-1.3,1-1.3,1.1c-0.8,0.6-1.7,1.2-2.5,1.7c-1.8,1.2-3.6,2.2-5.5,3.2c-8.5,4.3-17.6,7.1-26.7,9.7
		c-9.2,2.6-18.4,5.2-28.1,6.1c-9.8,1-20.2,0.4-30.9-4.4c-5.1-2.3-10.2-5.6-15.2-9.7c-4.6-3.8-9.8-8.7-14.2-7.8
		c-2.8,0.5-5.2,2.5-7.4,4.4c-0.1,0.1-0.1,0.1-0.2,0.2c-0.4,0.3-0.7,0.6-1.1,0.9c0,0-0.1,0.1-0.1,0.1c0,0,0,0-0.1,0.1
		c-2.4,2.1-5,4.4-6.7,7.8c-2,4-0.9,9.7,2.2,14.9c3.2,5.3,7.2,9.2,9.9,15.3c2.9,6.7,3.9,14,5.3,21c2.8,13.6,8.2,24.5,16.7,32.4
		c8.1,7.6,16.6,11,24.6,12.8c20.7,4.8,39.1-1.3,55.7-11c18.2-10.6,34.2-26.2,50.6-40.6c1.2-1.1,1.9-1.6,2.5-2.2
		c0.9-0.8,1.9-1.6,2.8-2.4c1.5-1.3,3.7-3.1,4.9-4c3.9-3.1,7.9-5.9,12-8.4c8.8-5.5,17.9-10.1,26.5-15.8
		C720.7,539.9,734.7,525.4,748.2,509.7z M630.9,525.3C630.9,525.3,630.9,525.3,630.9,525.3C630.9,525.3,630.9,525.3,630.9,525.3z
		 M630.9,525.3C630.9,525.3,630.9,525.3,630.9,525.3C630.9,525.3,630.9,525.3,630.9,525.3z"/>
	<path class="accentcolor2" d="M745.3,465.8c-0.1-1.4-0.2-2.8-0.3-4.2c-8.2,8.7-16.3,17.5-24.6,26.1c-1.2,1.3-1.2,1.3-2.6,2.6
		c-0.1,0.1-0.6,0.6-0.8,0.8c0,0,0,0,0,0c0,0,0,0.1-0.1,0.1c0,0,0,0,0,0c0,0,0,0,0,0c0,0,0,0,0,0c0,0,0,0,0,0
		c-0.2,0.2-0.3,0.3-0.5,0.4c0,0,0,0,0,0c0,0,0,0,0,0c-0.1,0-0.3,0.3-0.5,0.4c0,0,0,0,0,0c0,0,0,0,0,0c-0.3,0.2-1.1,0.8-1.2,0.9
		c0,0,0,0,0,0c-0.5,0.4-1.1,0.7-1.7,1c-4.3,2.4-9.2,3.2-14.4,2.5c15.2-16.3,30.4-32.4,45.6-48.4c-0.1-1.3-0.2-2.6-0.3-4
		c-18.8,19.7-37.6,39.6-56.3,59.7c-0.1,0.1-3.3,3.8-2.2,4c15.1,3,27-8.2,37.3-18.3C730.4,481.9,737.8,473.9,745.3,465.8z"/>
	<path class="accentcolor2" d="M985.8,2548.2c-0.7-4.3-1.4-8.5-2.2-12.8c-8.4,19.5-16.4,40.3-28.2,54.3c-0.2,0.2-0.4,0.4-0.6,0.6
		c0,0,0-0.1,0.1-0.1c0,0-0.1,0.1-0.1,0.1c0,0-0.1,0.1-0.1,0.1c0,0,0,0,0,0c0,0,0,0,0,0.1l0,0c0,0,0,0,0,0c0,0,0.1,0,0.1-0.1
		c0,0,0,0,0,0c-0.1,0.1-0.2,0.1-0.3,0.2c0,0,0.1,0,0.2-0.1c-0.3,0.2-0.6,0.4-0.6,0.5c-1.5,1-3.1,1.9-4.7,2.6
		c-4.1,1.9-8.4,3.1-12.9,3.9c-9.2,1.6-18.8,1.3-28.5,0.6c-9.6-0.7-19.9-0.2-29.8-12.3c-8.3-10.1-14.4-24.9-19.7-38.4
		c-1.2-3-2.3-6-3.4-9c0,0,0,0,0,0c0.7,1.8,1.4,3.6,2.3,5.3c9.1,18.8,23.1,24.4,34.7,27.4c7.1,1.9,14.4,4,21.3,4.4
		c9,0.5,16-5,22.4-11.3c10-9.8,17.6-24.4,25-38.5c5.6-10.6,10.8-21.5,15.9-32.8c-0.7-4.5-1.5-8.9-2.2-13.4
		c-10.7,26-22.2,50.9-35.5,73.2c-1.8,3.1-3.7,6.2-5.7,9.1c-0.3,0.5-0.7,1-1.1,1.4c-6.1,2.1-13.5-0.1-20.4-1.7
		c-11.3-2.7-24.4-4.7-35.5-18.7c-10.5-13.2-14.6-32.9-13.3-48.3c0.7-8,2.9-14.9,6.3-19.7c0.5-0.4,1.1-0.8,1.3-0.9
		c2.5-1.3,5-2.3,7.7-3c12-3.4,25.2-2.6,37-6.4c13.6-4.4,25.7-14.9,34.5-29.4c5-8.2,8.9-17.9,12.6-27.8c-0.8-5.2-1.7-10.3-2.5-15.5
		c-4.4,11.2-8.5,22.7-13,33.9c-3,7.5-6.3,14.8-10.4,20.8c-0.8,1.2-2,2.8-2.6,3.5c-0.2,0.3-0.3,0.4-0.4,0.5c-1.9,1.3-4.5,1.9-6.5,2.5
		c-12.8,4.3-27.2,3-40,7.3c-7.2,2.4-13.6,6.7-19.5,12.1c-5.5,5-11.1,10.9-14.2,19.7c-4,11.1-4.4,28.2,0.9,43.8
		c-9.9-28.1-16.8-57.5-20-85.8c-1.7-14.7-3.1-30.8,0.5-42.2c0.2-0.7,0.4-1.3,0.7-1.9c0.4-0.2,0.8-0.3,1.1-0.3c3.8-0.6,8,0,12.2,1.1
		c10.4,2.9,21,10.1,31.4,13.9c9.8,3.6,18.3,3.1,25.9-1.9c8.4-5.5,16.1-13.3,22-23.7c4.6-8.2,8.2-17.8,11.7-27.6
		c3.6-10.2,7.4-20.1,11.6-29.4c-0.6-3.7-1.2-7.4-1.8-11.1c-3.2,5.5-6.2,11.3-9,17.3c-8.7,18.3-14.2,40.7-23.4,58.3
		c-1.1,2.1-2.3,4.2-3.6,6.1c-0.3,0.4-0.6,0.9-0.9,1.3c-0.3,0.2-0.6,0.3-0.9,0.4c-1.7,0.7-3.5,1.1-5.3,1.3c-10.4,1-21.9-5.9-33-11.3
		c-8.9-4.3-18-7.8-26-6.1c-5.1,1.1-9.4,4.3-13.5,7.9c-4.2,3.7-8.4,7.9-10.9,14.5c-3.9,10.4-3,25.5-1.6,39.6
		c1.6,16.3,4.4,33.1,8.4,49.8c3.9,16.5,8.9,32.9,14.9,48.9c5.3,13.9,11.3,29.2,19.6,40.2c9.5,12.6,19.4,13.4,29,14.1
		c9.7,0.8,19.4,1.2,28.7,0c20.7-2.7,38.2-16.2,51.2-36.6C977.6,2565.4,981.8,2556.9,985.8,2548.2z M854.9,2538.5 M854.9,2538.5
		C854.9,2538.5,854.9,2538.5,854.9,2538.5C854.9,2538.5,854.9,2538.5,854.9,2538.5C854.9,2538.5,854.9,2538.5,854.9,2538.5z
		 M854.9,2538.5 M869.2,2475c-0.6,0.4-1,0.7-0.5,0.1c0.5-0.6,2.1-2.3,0.7-0.4C869.3,2474.8,869.2,2474.9,869.2,2475z M932,2563.4
		c0.1-0.1,0.3-0.1,0.4-0.2c2.4-1-0.6,0.1-1.7,1.9C931.1,2564.6,931.6,2564,932,2563.4z M933.4,2450.7c0.2-0.2,0.5-0.3,0.7-0.5
		C933.6,2450.5,933.3,2450.8,933.4,2450.7z M934,2450.1c0.3-0.3,0.6-0.6,0.7-0.8C934.5,2449.6,934.3,2449.9,934,2450.1z"/>
	<path class="accentcolor2" d="M928,2191.3c-0.2-1.6-0.5-3.2-0.7-4.8c-8.2,9.8-15.8,20.8-23.9,30.7c-1.2,1.4-2.1,2.5-3.3,3.8
		c-0.3,0.3-0.6,0.6-0.9,0.9c0,0-0.2,0.2-0.4,0.4c0,0,0,0,0,0c0,0,0,0,0,0c0,0,0,0-0.1,0.1c-0.2,0.2-0.5,0.5-0.8,0.7c0,0,0,0,0,0
		c0,0,0,0,0,0c-0.1,0.1-0.2,0.2-0.3,0.3c0,0,0,0-0.1,0.1c0,0,0,0,0,0c0,0,0,0,0,0c-0.1,0.1-0.3,0.2-0.4,0.3c0,0,0,0,0,0l0,0
		c0,0,0,0,0,0c0,0-0.1,0.1-0.1,0.1c-0.2,0.2-0.5,0.4-0.8,0.5c-0.7,0.5-1.8,1.2-2.8,1.7c-5.2,2.7-10.8,3.9-17,2.8
		c-10.9-1.8-23.4-9.9-33.3-23.8c-11.3-16-16.3-37.6-13.6-54.7c1.4-8.9,4.5-15.7,8.5-21.3c0,0,0.1,0,0.1-0.1c1.2-0.8,2.5-1.6,3.8-2.2
		c3.1-1.6,6.3-2.9,9.6-4.1c20.8-7.6,41.8-14.4,63-20.8c-0.4-2.4-0.7-4.9-1.1-7.3c-13.5,4.3-26.9,8.7-40.3,13.2
		c-7,2.3-14.1,4.5-20.8,7.9c-8.4,4.3-16.1,10.4-22.8,18.1c-9.6,10.9-16.9,29.5-11.5,54.2c4.1,18.6,14.8,34,26.1,42.8
		c12.4,9.8,24.7,12,35.2,8.1c15-5.6,27.4-19.4,38.3-33.7C921.1,2200.6,924.5,2195.8,928,2191.3z"/>
	<path class="accentcolor2" d="M923,2158.4c-0.4-2.6-0.8-5.2-1.2-7.8c-0.1,0-0.2,0.1-0.2,0.1c-8.3,3.7-15.5,10.4-22.5,17.1
		c-1.5,1.4-3,2.9-4.5,4.3c-0.3,0.2-2.5,2.3-1.2,1.1c-0.7,0.6-1.3,1.2-2,1.8c0,0-0.1,0.1-0.1,0.1c-0.1,0-0.1,0.1-0.2,0.2
		c-0.1,0.1-0.7,0.5-0.6,0.5c-0.4,0.3-0.7,0.5-0.9,0.6c-1.3,0.9-2.7,1.6-4.2,2.1c-3.2,1.2-6.8,1.7-10.5,1c-4.8-1-7.6-6.9-9.2-14
		c-3.1-13.7-1.3-26.4,3-34.8c0.6-1.1,1.2-2.2,1.9-3.2c0.5-0.3,1-0.6,1.5-0.9c3.7-2,7.6-3.4,11.6-4.5c10.6-3,21.8-4,33.3-2.9
		c-0.6-4-1.2-8-1.8-12c-12.6,0.5-24.5,3.5-35.1,9.6c-5.8,3.3-11.2,7.9-16.1,13.2c-3.8,4.1-7.3,8.8-9.5,15.2
		c-1.9,5.4-3,12.1-2.8,19.3c0.2,6.3,1.3,15.5,4.8,21.5c3.6,6.2,9.3,5.4,12.9,5c4.4-0.6,8.5-2.5,12.2-4.9c4.7-3,9.1-6.7,13.3-10.6
		c2.2-2,4.3-4,6.4-6.1c0.7-0.7,1.5-1.4,2.2-2.2c0.2-0.2,0.5-0.5,0.7-0.7c0.1-0.1,0.4-0.3,0.4-0.4c1.2-1,1.8-1.6,2.8-2.3
		c1.5-1,3.2-1.9,4.9-2.6C915.8,2159.9,919.4,2159.1,923,2158.4z M870.7,2127.5c-0.2,0.1-0.4,0.2-0.6,0.4c-1.6,1.1,0.6-1,1-1
		C871.8,2126.8,871,2127,870.7,2127.5C870.7,2127.5,870.7,2127.5,870.7,2127.5z M890.7,2175.7
		C890.7,2175.6,890.8,2175.6,890.7,2175.7C890.8,2175.6,890.7,2175.6,890.7,2175.7z M890.7,2175.7c-0.1,0.1-0.2,0.1-0.2,0.2
		C890.6,2175.8,890.6,2175.7,890.7,2175.7z M890.8,2175.6C890.8,2175.6,890.8,2175.6,890.8,2175.6
		C890.8,2175.6,890.8,2175.6,890.8,2175.6z M890.8,2175.6C890.8,2175.6,890.8,2175.6,890.8,2175.6
		C890.8,2175.6,890.8,2175.6,890.8,2175.6z M890.8,2175.6C890.8,2175.6,890.9,2175.5,890.8,2175.6
		C890.9,2175.5,890.8,2175.6,890.8,2175.6z M891.3,2175.2C891.8,2174.8,891.5,2175.1,891.3,2175.2
		C891.2,2175.3,891.2,2175.3,891.3,2175.2z M904.3,2166.6c-0.2,0.2-0.3,0.3,0.4-0.4C904.6,2166.3,904.4,2166.5,904.3,2166.6z"/>
	<path class="accentcolor2" d="M936.9,2248.7c-0.2-1.3-0.4-2.6-0.6-3.9c-11,11.7-21.6,24.5-32.1,37.1c-14.9,17.8-29.8,35.7-44.8,53.4
		c-0.3,0.4-0.7,0.8-1,1.2c-0.5,0.1-1,0.6-1.5,0.8c-1,0.3-2.1,0.5-3.2,0.5c-4.3,0.1-8.9-2.1-13.4-5.9c-9.1-7.7-16.8-20.5-22.6-34.1
		c-6.5-15.4-11.1-31.7-16.3-47.5c-5.4-16.4-11.2-32.6-17.5-48.6c-12.5-31.6-27.1-60.7-42.9-89.5c-7.7-14.1-15.5-28.2-22.4-43
		c-5.7-12.2-15.5-31.7-13.2-44.2c0.7-0.1,1.5-0.1,2.2-0.1c4.9,0,10,1.1,15.2,2.8c10.7,3.5,21.5,9.8,32.3,15.5
		c10.2,5.4,20.4,10.5,30.4,12.8c9.7,2.2,19,1.7,27.6-0.6c19.1-5.3,35.4-18.6,50.4-33.4c7.2-7.1,14-14.7,20.9-22.3
		c3.4-3.7,6.8-7.4,10.2-11.1c1.2-1.2,2.1-2.2,3.1-3.2c-0.2-1.1-0.3-2.3-0.5-3.4c-8.2,8-16.2,16.7-24,25.4c-3.4,3.7-6.8,7.4-10.2,11
		c-1.4,1.4-2.7,2.8-4.4,4.4c-0.7,0.7-1.5,1.4-2.2,2.2c0,0,0,0,0,0c0,0,0,0,0,0c0,0,0,0,0,0c0,0,0,0,0,0c0,0,0,0,0,0c0,0,0,0,0,0
		c0,0,0,0,0,0c0,0,0,0,0,0c0,0,0,0,0,0c0,0,0,0,0,0c0,0,0,0,0,0c0,0,0,0,0,0.1c-0.1,0.1-0.3,0.3-0.5,0.5c-0.5,0.4-0.9,0.8-1.4,1.2
		c-0.3,0.2-1.5,1.3-1.8,1.6c0,0-0.1,0-0.1,0.1c0,0,0,0,0,0c-0.9,0.7-1.7,1.5-2.6,2.2c-1,0.8-2.7,2.1-4.2,3.1
		c-3.7,2.6-7.6,4.8-11.7,6.6c-8.2,3.7-17,5.8-26.4,5.4c-9.8-0.4-20.1-3.9-30.4-9c-20-9.8-42.3-26.1-60.9-23.3c-4.9,0.7-9,3.6-12.8,7
		c-3.9,3.3-8.9,7.2-10.3,14.5c-2.5,13.1,6.7,31.7,12.8,44.7c14,29.9,30.9,56.8,45.2,86.4c14.7,30.4,27.2,62.7,38,95.4
		c9.5,29,18.8,65,39.3,82c10,8.2,18.1,6.2,25.4,0.9c9.5-6.9,17.3-17.1,25.4-26.8c14.9-17.8,29.8-35.6,44.8-53.3
		C928,2259,932.4,2253.8,936.9,2248.7z M857.5,2337.4c-1.2,1.4-0.2-0.1,0.6-0.7C857.9,2336.9,857.7,2337.2,857.5,2337.4z"/>
	<path class="accentcolor2" d="M888.6,1921.9c-0.2-1.7-0.5-3.5-0.7-5.2c-5.1,3-10,6.4-14.9,10.1c-18.8,14.3-35.7,32.4-53.7,48.4
		c-16.5,14.7-34.8,26.4-56.4,27.6c-12.8,0.7-26.7-1.8-40.7-11.3c-13.6-9.2-25.7-24.9-35.2-44.5c-9.3-18.9-15.9-39.7-21.8-60.2
		c-6.7-23.4-12.7-46.9-18-70.4c-21.5-95.9-31.1-191.6-28.2-279.4c2.9-85.9,17.8-164.1,46.1-225.5c23.9-51.8,56-91.5,90.5-125.9
		c14-14,28.4-27.3,42.9-40.4c-0.1-1.1-0.2-2.2-0.3-3.3c-25.7,23.1-51.1,46.7-74.9,73.6c-34.4,39-65.5,84.9-86,144.9
		c-24.6,71.8-34.1,161.7-30.6,256.3c3.5,93.4,19.6,195,49.2,292.5c6.4,20.9,14,42.2,24.6,60.5c11.3,19.5,25.2,32.5,39.5,39
		c25.7,11.7,49.3,4.9,69.2-6.9c21-12.5,39.3-31.1,57.8-48.7C859.9,1940.5,873.3,1928.9,888.6,1921.9z"/>
	<path class="accentcolor2" d="M485.2,2168.5c20.7,73.1,41.8,144.2,63.2,212c-5.6-27.9-12.2-55.9-19.4-83.8c-7.5-29-16-58-22.5-87.1
		c-6.4-28.7-11-58.3-8.9-84.1c0.2-2,0.3-3.9,0.6-5.8c0.8,0.5,1.6,1.1,2.5,1.7c2,1.5,4.1,3.4,6.1,5.2c7.6,6.8,15.1,14.3,22.4,22.2
		c29,31.4,55.5,70.8,78,114.1c51.5,99.1,79,215.4,84.1,320.2c2.3,45.8,1.1,89.9,2.5,135.3c3.2,3.2,6.6,6.2,10,9.2
		c1.1,0.9,2.2,1.9,3.3,2.8c-1.8-35.2-1.5-69.6-1.9-104c-0.6-53.9-3.9-108.5-14.8-166c-20.1-105.7-62.9-213.2-123.4-292.4
		c-13.9-18.2-28.5-34.6-43.6-48.7c-7.2-6.7-14.9-14.9-21.4-11.6c-6.2,3.2-13.4,9.1-15.7,19.1
		C483.6,2138.6,483.7,2153.3,485.2,2168.5z"/>
	<path class="accentcolor2" d="M743.7,2754.5c6.3,3.4,12.7,6.5,19.3,9.3c-22.9-59.5-13.5-119.5-8.7-171.3c5.9-65.1,9.6-131.3-6.3-206.6
		c-14.4-68.1-41-132.8-75.3-190.2c-17-28.4-35.1-55.5-50.9-85.5c-16.3-30.9-28.1-63.5-36.6-98c-9.6-39.2-16.1-78.7-23.6-117.8
		c-7.9-41.1-15.7-82.3-23.6-123.4c-7.9-41.1-15.7-82.3-23.6-123.4c-6.8-35.5-14-71.6-16.6-106.2c-2.6-35.1,1-65.2,10.8-90.2
		c9.1-22.9,21.6-40.9,32.8-60.8c21.1-37.8,32.9-85.8,37.3-141.5c4.6-58.8,1.7-122.5-2.6-186.2c-4.5-65.5-14-138.7,1-191.7
		c7.9-28.1,22.8-46.6,38-63.8c15.9-18,32-35.7,48.1-53.4c31.4-34.4,63.1-68.3,95.1-101.6c-0.1-1.3-0.2-2.6-0.3-3.9
		c-15,15.6-29.9,31.2-44.8,47c-34.2,36.3-68.1,73.3-101.6,111c-13.5,15.2-27.4,30.4-37.7,51c-10.6,21.2-15.6,48.5-16.9,78.9
		c-2.5,63.3,7.3,134.2,10.1,200.3c2.7,64.1,2.2,127.6-8.8,182.4c-5.3,26.5-13.1,50.5-23.5,70.9c-10.3,20.3-22.7,37.6-32.7,58.4
		c-10,20.6-16.9,44.6-17.7,74.4c-0.8,33.9,5.2,71.2,12,107.6c15.1,81.5,31.1,163.1,46.7,244.7c7.8,40.9,15.1,81.8,23.7,122.8
		c7.8,37.4,18.1,74.3,34.8,109c30,62.3,70.1,111.8,97.8,176.8c28,65.7,44.9,137.8,47.5,203.9c2.9,73.7-11.6,135.7-11.1,207.7
		C735.9,2714.4,738.2,2734.6,743.7,2754.5z"/>
	<path class="accentcolor2" d="M827,2784.7c10.8,2.6,21.6,4.7,32.2,6.6c3,0.5,6.1,1.1,9.1,1.6c-25.6-12.3-51.4-37.2-70.9-74.3
		c-34-64.5-23-130.8-17.9-187.2c5.8-63.3,9.3-127.6-6.2-200.8c-14-66.2-39.8-129.1-73.2-184.9c-16.5-27.6-34.1-54-49.4-83.2
		c-15.8-30-27.3-61.7-35.5-95.3c0-0.2-0.1-0.3-0.1-0.5c7.4,19.4,15.4,38.5,24.1,57.3c13.4,28.9,28.2,56.7,44.2,82.6
		c17.2,27.9,36.1,53.2,52.9,81.8c33.7,57.4,52.4,125.6,53.4,188.7c0.9,61-11.2,114.4-3.9,178.8c6.1,54.1,26.7,114.7,64,142.9
		c34.4,26.1,67.9,16.4,93-1.3c22.2-15.7,41.2-38.5,57.6-65.1c-0.5-2.9-1-5.8-1.5-8.8c-19.2,36-42.6,69-75.6,77.3
		c-30.2,7.6-69.1-5.4-96.8-57.6c-25.4-47.8-31.7-106.6-30.5-153.8c1.6-61.1,12.9-117.9,0.1-186.1c-6-32.2-16.5-64.8-30.5-94.6
		c-14-29.8-31.4-55.5-48.5-81.1c-33.5-50-62.7-104.1-86.4-164.5c-48.7-124.3-70.2-256.7-68.8-375.6c0.8-64.3,7.9-124.8,19.8-180.4
		c11.1-51.8,26.3-99.3,36.9-151.6c10.4-51.1,14.7-105.4,9.4-167c-5.2-60-16.2-126.6-4.1-176.6c6.1-25.4,18.2-43.3,31.2-59
		c14.9-17.9,30.3-34.9,45.5-52.3c21.1-24.2,42.3-48.5,63.4-72.7c-0.1-1.5-0.2-3.1-0.3-4.6c-0.3,0.3-0.6,0.7-0.9,1
		c-31.5,36.2-63.1,72.3-94.6,108.5c-25.9,29.7-55.1,57.4-60.8,114.6c-5.6,56,7.2,121.7,10.2,182c3.2,64.4-6.8,120.2-19.4,172.3
		c-12.7,52.4-27.7,102.3-36.8,158.3c-8.5,52.6-12.9,109.1-11.8,168.5c-1-5.3-2-10.6-3-15.9c-6.6-34.6-13.6-69.6-16.1-103.2
		c-2.5-34.1,0.9-63.4,10.5-87.7c8.8-22.2,21-39.7,31.8-59.1c20.5-36.7,32-83.5,36.2-137.6c4.5-57.2,1.7-119.1-2.6-181
		c-4.3-63.6-13.6-134.8,1-186.4c7.7-27.2,22.1-45.2,36.9-61.9c15.5-17.5,31.1-34.7,46.7-51.9c22.7-24.9,45.6-49.5,68.7-73.9
		c-0.1-1.3-0.2-2.7-0.3-4c-6.7,7-13.3,14.1-20,21.1c-33.2,35.3-66.1,71.3-98.7,107.9c-13.2,14.8-26.6,29.6-36.7,49.6
		c-10.3,20.6-15.2,47.1-16.4,76.7c-2.5,61.5,7.1,130.4,9.8,194.7c2.7,62.3,2.1,124-8.5,177.3c-5.2,25.7-12.7,49-22.9,69
		c-10,19.7-22.1,36.6-31.8,56.7c-9.7,20-16.5,43.4-17.2,72.3c-0.8,33,5.1,69.2,11.6,104.6c14.7,79.2,30.3,158.5,45.4,237.8
		c7.6,39.7,14.7,79.5,23,119.3c7.6,36.3,17.6,72.2,33.8,105.9c29.2,60.6,68.1,108.7,95,171.9c27.2,63.8,43.6,133.9,46.1,198.2
		c2.8,71.6-11.3,131.9-10.8,201.8c0.2,30.5,6,62.5,20.6,92.7C793.9,2748.8,810.2,2769.6,827,2784.7z"/>
	<path class="accentcolor2" d="M917.3,2801.1c5.5,0.9,10.9,1.7,16.4,2.6c2.5-1.2,5-2.4,7.4-3.8c28.2-15.5,53.7-38.8,77.1-65.1
		c-0.2-1.4-0.5-2.8-0.7-4.2c-2.4,2.8-4.9,5.6-7.3,8.3C983.7,2768,953.8,2795.9,917.3,2801.1z"/>
	<path class="accentcolor2" d="M986.6,2811.6c1.3,0.2,2.6,0.4,3.8,0.6c7.8-8.2,15.3-16.8,22.7-25.6c4-4.8,7.9-9.7,11.8-14.7
		c-0.3-1.9-0.7-3.7-1-5.6c-10.1,14.1-20.8,27.4-32,39.7C990.1,2807.8,988.3,2809.7,986.6,2811.6z"/>
	<path class="accentcolor2" d="M716.1,2737.3c4,2.9,8.1,5.7,12.3,8.4c-0.6-33.1,3.5-65.2,6.2-94.7c6.2-68.3,10.1-137.7-6.7-216.6
		c-15.1-71.4-42.9-139.3-79-199.4c-17.8-29.8-36.8-58.2-53.3-89.7c-17-32.4-29.5-66.5-38.3-102.8c-10-41.1-16.9-82.5-24.8-123.6
		c-8.2-43.1-16.5-86.3-24.7-129.4c-8.2-43.1-16.5-86.3-24.7-129.4c-7.1-37.3-14.7-75-17.4-111.3c-2.7-36.8,1-68.4,11.4-94.6
		c9.5-24,22.7-42.9,34.4-63.8c22.1-39.6,34.5-89.9,39.1-148.3c4.8-61.7,1.8-128.4-2.7-195.2c-4.7-68.7-14.6-145.4,1-201
		c8.3-29.5,24-48.9,40-67c16.7-18.9,33.5-37.5,50.4-56c35.4-38.9,71.2-77,107.4-114.5c2.6-2.7,5.2-5.4,7.9-8.1
		c-0.1-1.3-0.2-2.6-0.3-3.9c-20.9,21.5-41.6,43.2-62.2,65.1c-35.8,38.1-71.3,76.9-106.5,116.3c-14.2,15.9-28.6,31.8-39.4,53.3
		c-11.1,22.2-16.4,50.8-17.7,82.7c-2.7,66.4,7.6,140.7,10.6,210c2.9,67.2,2.3,133.8-9.2,191.2c-5.6,27.8-13.7,52.9-24.7,74.4
		c-10.8,21.3-23.8,39.5-34.3,61.2c-10.4,21.6-17.7,46.7-18.5,78c-0.9,35.6,5.5,74.6,12.6,112.8c15.8,85.4,32.7,171,49,256.5
		c8.2,42.9,15.9,85.8,24.8,128.7c8.2,39.2,19,77.9,36.5,114.2c31.5,65.3,73.4,117.2,102.5,185.4c29.3,68.8,47,144.5,49.8,213.8
		C730.2,2610.2,717.9,2670.3,716.1,2737.3z"/>
	<path class="accentcolor2" d="M1028.4,2817.4c1.6,0.2,3.2,0.4,4.9,0.6c-0.4-2.1-0.8-4.2-1.1-6.3C1030.9,2813.7,1029.6,2815.6,1028.4,2817.4z
		"/>
	<path class="accentcolor2" d="M287.1,1366.4c1.2,5.3,2.3,10.6,3.5,16c2-6.6,4.1-13.1,6.4-19.4c7.1-19.8,15.1-38.4,23.5-56.5
		c8.7-18.8,17.6-37.2,26.4-55.8c4.4-9.3,8.7-18.7,13.2-27.7c1-2,2.1-4,3.2-5.9c2.7-0.8,5.5-0.9,8.7-0.2c6,1.5,18,7.7,20,20.1
		c0.9,5.9,0.4,11.8-0.1,17c-0.4,5.1-1.2,10-2.3,14.6c-4.1,18.5-11.9,33-19.5,47.1c-8.1,15.1-15.6,30.8-21.3,49.1
		c-5.8,18.9-10,39.5-13,61.2c-5.6,41.3-6.6,86-5.7,131.6c5,21.5,10,43.1,15.1,64.8c-1.3-30.9-2.6-61.8-2.8-92.2
		c-0.5-51.5,2-101.9,11.3-146.3c4.5-21.2,10.5-40.9,18.4-58c7.4-16,16.4-29.9,23.2-46.6c3.3-8.1,6.1-16.9,7.8-26.9
		c0.8-4.7,1.3-9.6,1.5-14.7c0.2-5.2,0.8-12.1-2-17.8c-2.6-5.5-7.4-8.9-10.9-11.1c-3.8-2.4-7.7-3.7-11.4-3.9
		c-10.1-0.7-18.4,7.6-25,15.7c-5.7,7.1-9.8,16.8-14.1,26c-4.8,10-9.5,20.1-14.3,30.1c-9,18.9-18,37.6-26.6,57.1
		C295.7,1344.4,291.2,1355.2,287.1,1366.4z M363.3,1217.1c-0.6,0.2-1.2,0.4-1.8,0.6c-2.1,0.8,4.7-4.8,3.5-3.1c-0.5,0.7-1,1.3-1.4,2
		C363.4,1216.8,363.4,1216.9,363.3,1217.1z"/>
	<path class="accentcolor2" d="M916.3,2492.7c-3.4-0.9-6.5-1.6-9.5-0.4c-4.8,1.9-9.2,5-13.2,8.8c-6,5.6-14.2,14.8-9.4,31.1
		c1.6,5.4,4.5,10.1,8.1,11.1c4.5,1.3,8.4-2.3,11.6-4.8c7.7-5.9,14.6-13.5,21-22c2.5-3.4,5-6.8,7.7-9.9c0,0,0.3-0.3,0.6-0.6
		c0.2-0.2,0.5-0.4,0.5-0.4c0.6-0.4,1.3-0.7,1.9-1.1c7.9-3.9,15.7-7.1,22.6-13.4c3.6-3.3,8.2-6.9,10-13.1c1.1-3.7,0.9-9.8-2.9-12.9
		c-3.4-2.7-6.7-1.1-9.4-0.3c-3.5,1.1-7,2.3-10.2,4c-8.4,4.5-16.9,11.1-22.3,21.4c-0.7,1.4-1.4,2.8-2,4.3c-1.4-0.2-3-0.6-4.6-1.7
		C916.6,2492.8,916.5,2492.7,916.3,2492.7z M904.4,2504.1c8.6,5.5,15.3-0.1,20.8-5.5c3.5-3.4,6-7.6,8.2-12.9
		c0.8-1.9,1.6-3.9,2.5-5.6c0,0,0,0,0,0c2-0.8,4.3-2.3,6.3-3c2.4-0.8,4.8-2,7.5-1.9c2.7,0.1,6,2.7,6.7,7.9c0.3,2.2-0.1,4.1-0.6,5.7
		c-4.9,2.1-9.8,4.4-14.4,7.3c-7.2,4.5-13.6,10.9-19.5,18c-4.4,5.3-8.3,11.3-12.8,16.4c0.2-0.2-0.4,0.4-0.7,0.8
		c-0.3,0.2-0.8,0.5-1,0.6c-3,1-6.4-1.4-8.8-6.5c-4-8.4-3.4-16.3-1.3-22.2c0.1,0,0.2,0,0.3-0.1C899.6,2502.7,902,2503.5,904.4,2504.1
		z M897.1,2503.2c-0.7,0.2-1.3,0.4-1.9,0.7c1.1-0.8,2.3-2,3-3.6C897.9,2501.2,897.5,2502.2,897.1,2503.2z M895.2,2503.9
		c-2,1.5-3.5,1.7-0.3,0.1C895.1,2504,895.2,2504,895.2,2503.9z M908.1,2531.4c0,0.1-0.1,0.1-0.1,0.1c0,0,0,0-0.1,0.1
		c0.1-0.1,0.2-0.2,0.3-0.3c0.5-0.3,0.7-0.5-0.2,0.2c0,0,0,0,0,0C908.1,2531.5,908.1,2531.5,908.1,2531.4z M908,2531.6 M907.9,2531.6
		C907.9,2531.7,907.9,2531.7,907.9,2531.6C907.2,2532.4,907.6,2532,907.9,2531.6C907.9,2531.7,907.9,2531.6,907.9,2531.6z
		 M955.7,2488.8c0.7-0.3,1.5-0.6,2.2-0.9c-0.9,0.4-4.6,6.8-3.4,3.3c0.2-0.6,0.7-1,0.9-1.6C955.5,2489.3,955.6,2489.1,955.7,2488.8z
		 M935.8,2480.1c-0.5,0.2-0.9,0.3-1.4,0.4c0.7-0.1,2.6-1.6,2.9-2.7C937,2478.7,936.2,2479.4,935.8,2480.1z M904.4,2504.1
		C904.3,2504.1,904.3,2504.1,904.4,2504.1c-0.4-0.3,1.6-3,1.3-2.6c1.3-1.6,2.8-3,4.2-4.3c1.5-1.3,3-2.6,4.6-3.6
		c0.5-0.3,1.2-0.9,1.8-0.9c0,0,0,0,0,0c0.9,0.2,0.1,1.2-0.2,1.5c-0.9,1.6-2.3,2.8-3.4,3.9c-1.6,1.5-3.2,3-4.9,4.2
		c-0.8,0.6-2.1,2.1-3.2,1.8C904.6,2504.2,904.5,2504.2,904.4,2504.1z M921.4,2494.6c1.6,0.2,3.2,0,4.9-0.1c0.1,0,0.1-0.1,0.2-0.1
		c-2.9,2.6-5.7,5.2-8.6,7.8c0.3-0.6,0.7-1.1,0.9-1.7c0.5-1,1-2.1,1.5-3.3C920.7,2496.4,921,2495.5,921.4,2494.6z M933.4,2505.7
		c0.4-0.4,0.1,0-0.3,0.3c-0.3,0.2-0.4,0.3-0.1,0C933.5,2505.5,934.3,2504.8,933.4,2505.7z"/>
	<path class="accentcolor2" d="M908.1,2531.4C908.1,2531.4,908.2,2531.4,908.1,2531.4C908.2,2531.4,908.1,2531.4,908.1,2531.4z"/>
	<path class="accentcolor2" d="M933.4,2505.7C933.4,2505.7,933.4,2505.8,933.4,2505.7C933.4,2505.7,933.4,2505.7,933.4,2505.7z"/>
	<path class="accentcolor2" d="M932.5,2220.3c-0.2-1.1-0.3-2.1-0.5-3.2c-0.1,0.1-0.3,0.2-0.4,0.4c-14.3,12.2-28.2,25.1-41.8,38.8
		c-0.9,0.9-1.8,1.8-2.7,2.7c-0.6,0.6-1.2,1.3-1.8,1.9c0,0,0,0,0,0c0,0,0,0,0,0c0,0,0,0,0,0.1c0,0,0,0-0.1,0.1c0,0,0,0,0,0.1
		c0,0,0,0,0,0c0,0,0,0,0,0c0,0-0.1,0.1-0.1,0.1c-1.4,1.5-2.9,2.9-4.4,4.3c-0.1,0.1-0.2,0.1-0.2,0.2c0,0-0.1,0.1-0.1,0.1c0,0,0,0,0,0
		l0,0c-0.1,0.1-0.2,0.2-0.3,0.3c-0.3,0.3-0.7,0.6-1,0.9c-0.1,0-0.1,0.1-0.1,0.1c0,0,0,0,0,0c0,0,0,0,0,0c0,0,0,0-0.1,0c0,0,0,0,0,0
		c0,0,0,0,0,0s0,0,0,0c0,0,0,0,0,0c-0.3,0.3-0.6,0.5-1,0.8c-0.8,0.6-2,1.5-3.3,2.3c-6.4,4-13.9,5.9-22,3.4
		c-16.9-5.2-31.1-29.6-41.5-53.1c-11.7-26.5-20.1-55.2-24.5-83.1c-2.1-13.1-3.7-26.8-2.8-38.7c0.4-5.3,1.4-10.3,3.2-14.2
		c0.2-0.1,0.4-0.1,0.6-0.2c12.8-3.1,27.9,4.2,41.5,5.1c16.4,1.1,30.1-7.6,42.6-17.8c6.8-5.5,13.3-11.7,19.7-17.9
		c1.5-1.4,3-2.9,4.5-4.3c0.7-0.6,1.3-1.3,2-1.9c0,0,0.2-0.2,0.3-0.3c0,0,0,0,0.1,0c0.3-0.3,0.6-0.5,0.9-0.8c0.8-0.7,1.6-1.5,2.4-2.2
		c0.4-0.4,0.8-0.7,1.2-1.1c0,0,0.1-0.1,0.1-0.1c0,0,0,0,0,0c0,0,0,0,0,0c0,0,0,0,0,0c0,0,0.1-0.1,0.1-0.1c0,0,0,0,0,0c0,0,0,0,0,0
		c0,0,0,0,0,0c0,0,0,0,0,0c0,0,0.1,0,0.1-0.1c0,0,0,0,0,0l0,0c0,0,0,0,0,0c0,0,0,0,0.1-0.1c0,0,0,0,0,0c0,0,0,0,0,0
		c0.1-0.1,0.1-0.1,0.2-0.1c0.4-0.4,0.9-0.7,1.3-1.1c0.3-0.2,0.6-0.5,1-0.8c-0.2-1-0.3-2.1-0.5-3.1c-6.1,5.1-12,10.6-17.8,16.2
		c-1.5,1.4-3,2.9-4.5,4.3c-0.1,0.1-1,1-1.4,1.4c0,0,0,0,0,0c0,0-0.1,0.1-0.1,0.1c0,0,0,0,0,0c0,0,0,0,0,0c0,0,0,0,0,0c0,0,0,0,0,0
		c-0.5,0.5-1,0.9-1.5,1.4c-0.9,0.8-1.8,1.7-2.7,2.5c-0.2,0.1-0.8,0.7-1.2,1c0,0,0,0,0,0c-0.1,0-0.1,0.1-0.2,0.1c0,0-0.1,0.1-0.1,0.1
		c0,0,0,0,0,0l0,0c0,0,0,0,0,0c-0.6,0.5-1.2,1-1.8,1.5c-0.2,0.2-0.4,0.4-0.7,0.5c0,0,0,0,0,0c0,0-0.1,0-0.1,0.1c0,0,0,0,0,0
		c0,0,0,0,0,0c0,0,0,0,0,0c0,0,0,0,0,0c0,0,0,0-0.1,0.1c-0.1,0.1-0.3,0.2-0.3,0.3c-5.6,4.2-11.9,7.8-18.7,9.5
		c-13.7,3.4-28.9-2.8-43.6-4.3c-7-0.7-13.4,0.3-19,4.1c-7.5,5-15.8,11.8-18.7,24.5c-2.4,10.4-1.5,23.5,0,36.1
		c1.7,14.1,4.4,28.5,8.1,42.7c7,26.9,17.6,55.8,31.6,78.5c6.5,10.6,14.2,19.5,22.3,24.1c8.3,4.7,16,4.5,22.9,2.1
		c17.1-6,30.3-22.4,43.8-35.7c6.9-6.8,12.2-11.8,19.3-18.1C924.7,2227,928.5,2223.7,932.5,2220.3z"/>
</g>
<path class="accentcolor" d="M0.3,18C-2,3.8,9.3-3.7,19.1,1.8c200.7,113.1,455,202.8,729.5,265.2c7.3,1.7,13.4,6.2,13.8,13.7
	c51.4,833.8,112.6,1507.1,302.9,2552.9c1.7,9.2-3.4,17.2-12.6,16c-72.3-9.3-139.6-19.4-198.5-29.9
	c-180.6-32.3-224.5-115.1-271.4-245.8C352.9,1932.4,128.7,797.8,0.3,18z M24.1,29.3c72.7,439.3,158.5,892.5,252.3,1321.8
	c74.6,341.7,175.1,755.6,281.5,1082.6c14.5,44.5,29.7,88.9,45.4,133.1c6.1,17.3,12.7,34.5,19.7,51.5c6.3,15.2,13.3,30.1,21.1,44.7
	c7.5,14,16.2,27.3,26,39.8c8.7,11,18.4,21.2,29.1,30.3c44.2,37.8,102.9,55.5,158.9,65.4c61.2,10.7,122.6,20.1,184.1,28.1
	c-41.1-225.5-78.9-451.6-113.4-678.3c-32.4-213.3-60.9-427.1-85.4-641.5c-24.3-213.8-45-428-62-642.5
	c-15.2-192.1-28.6-384.3-40.2-576.7c-131-29.8-263.2-67.5-388.6-112.4C290.8,153,229.9,128.6,170,101.8
	C120.4,79.6,71.7,55.4,24.1,29.3z"/>
<path class="maincolor" d="M3779.8,43c-43.7,23.6-88.2,45.5-133.5,65.7c-60.1,26.9-121.1,51.4-183.1,73.5
	c-124.1,44.4-254.7,81.8-384.2,111.4c-11.5,190.6-24.8,381.1-39.9,571.4c-16.9,214.6-37.6,428.9-62,642.8
	c-24.5,214.4-53,428.4-85.4,641.7c-33.9,223.5-71.2,446.4-111.6,668.8c58.2-7.7,116.2-16.6,174-26.7c54.6-9.6,112.3-26.9,155.5-63.8
	c10.3-8.8,19.7-18.7,28.1-29.3c9.5-12.2,18-25.1,25.3-38.7c7.7-14.3,14.6-29,20.8-44c6.9-16.9,13.5-34,19.6-51.2
	c15.6-44.1,30.8-88.4,45.3-132.9c106-325.3,207.1-741.7,281.3-1081.9C3622.7,924.8,3707.6,477.7,3779.8,43z"/>
<g>
	<path class="accentcolor2" d="M2910.7,2043.5C2910.7,2043.5,2910.7,2043.5,2910.7,2043.5C2910.7,2043.5,2910.7,2043.5,2910.7,2043.5z"/>
	<path class="accentcolor2" d="M3181.6,524.9C3181.6,524.9,3181.7,525,3181.6,524.9C3181.7,524.9,3181.6,524.9,3181.6,524.9z"/>
	<path class="accentcolor2" d="M2993.7,1356.8c-0.3,2.6-0.5,5.2-0.8,7.8c1,1.8,2.1,3.7,3,5.7c7.2,14.1,12.6,30.5,16.1,48.8
		c7.1,37.1,6.5,80.9,0.6,125.5c-2.9,22.3-7.1,44.9-12.5,67.4c-2.6,10.8-5.6,22.1-10.8,31.9c-5.2,9.9-12,16.3-18.8,20.7
		c-4.3,2.8-8.6,5-12.9,7.2c-0.8,6.2-1.5,12.3-2.3,18.5c6.2-3.1,12.3-6.1,18.5-9.2c7-3.5,14.3-7.5,20.8-15.1
		c13.5-15.6,18.3-42.6,22.6-63.5c9.4-45.8,14.1-91.8,11.9-133.4c-2.3-41.5-12.1-76.3-28.6-102.3
		C2998.3,1363.3,2996.1,1360,2993.7,1356.8z"/>
	<path class="accentcolor2" d="M2987.5,1415.1c-1.9,17.1-3.8,34.3-5.7,51.4c0,0.3,0,0.6,0,0.9c-0.1,21.5-2.3,44.3-6.9,67.2
		c-0.6,3.1-1.3,6.2-2,9.3c-2.8,24-5.6,48.1-8.5,72.1c3.8-7.4,7.3-15.2,10.3-23.5c8.1-22.3,13.3-46,16.4-68.5
		C2996.5,1484.7,2995.2,1446.4,2987.5,1415.1z"/>
	<path class="accentcolor2" d="M3373.1,2004.6c0.2-0.9,0.5-1.9,0.7-2.8c-0.3-0.3-0.5-0.5-0.5-0.5c0.2,0,0.4,0.1,0.6,0.2
		c0.2-0.7,0.4-1.4,0.6-2.1c-1.2-3.1-2-6.8-2.5-10.6c-2.7-20.7,2.6-47.8,5.6-71.1c3.7-28.2,7.4-56.4,10.8-84.5
		c6.8-55.5,12.9-110.9,16.6-165.3c6.6-97.6,5.3-193.4-12.5-274.7c-9-41.3-23.1-76.2-38.9-109.4c-15.7-33.1-32.2-65.6-42.2-105.8
		c-4.9-19.6-8.3-40.8-9-63.9c-0.6-21.1,0.5-44.4,6.4-67.6c5.4-21.5,15.4-41.3,28.7-54.2c12.1-11.8,25.2-17.1,37.2-19.1
		c12.9-2.1,25-0.2,36.6,3c12.1,3.4,23.6,8.7,34.3,16.1c9.5,6.5,16.9,13.8,25,24c8.7,11.1,16.5,24,23.2,38.2
		c15,32,23.4,71.1,29.2,112.8c4.1,29,7.7,58.4,11.7,87.4c-6.3-26.7-13.3-52.8-21-78.1c-5-16.7-10.3-33-15.9-49
		c-5.4-15.5-11-30.8-17.7-44.6c-7.2-14.8-15.8-27.5-26.1-37c-9.2-8.5-20.1-16.3-33.8-10c-5.2,2.4-10.6,6.7-15.2,12.8
		c-5.3,7-8.4,15.3-11.4,24.4c-2.7,8.4-5.6,16.5-10.8,22.5c-3.9,4.4-8.2,7-12.3,8.8c-8.8,4-17.8,4.5-26.7,11.8
		c-4.1,3.4-7.8,8.5-10.3,14.9c-3.5,9-3.4,18.2-2.2,25.7c1.4,8.8,4.3,15.9,7.3,23c3.1,7.5,6.4,14.7,9.8,21.8
		c6.9,14.7,14.1,28.9,20.6,44.1c13,30.3,21.7,65.3,29.3,101.6c7.8,37.1,15.2,74.5,20.3,114c4.9,37.7,6.9,77.2,6.6,118.4
		c-0.6,78.4-8,160.5-4.4,236.6c0,0.6,0.1,1.2,0.1,1.8c3.9-15.5,7.7-31,11.5-46.4c0.4-48.4,3.4-98.3,4.7-147.1
		c1-38.4,1-76.4-1.9-112.4c-3.1-38.8-8.9-75.4-15.7-111c-6.8-35.7-13.9-71.5-23.5-104.3c-9.5-32.6-23.3-59.4-36.4-87.4
		c-3.4-7.2-6.6-14.4-9.7-22c-2.7-6.6-5.4-13.5-6.5-21.9c-1-7.8-0.4-17.3,3.7-26.1c2.7-5.9,6.4-10.2,10.4-13.1
		c8.5-6.3,17-7,25.4-10.8c4-1.8,8.2-4.3,12-8.5c4.8-5.4,7.9-12.8,10.4-20.6c2.9-8.9,5.6-17.4,10.6-24.7c4.4-6.3,9.5-10.9,14.6-13.7
		c5.7-3.1,11.1-3.8,16.1-2.6c1.9,0.5,4.1,1.4,5.5,2.3c0.1,0.1,0.2,0.2,0.3,0.4c1,1.2,2,2.4,3,3.7c16.1,21.8,26.2,53.4,36.1,83.5
		c18.6,56.4,34,116.6,45.9,179.9c3.4-15.5,6.7-31.1,10.1-46.7c-2.9-20.5-5.7-41.2-8.3-62c-5.6-44.6-11.9-88.9-25.9-125.3
		c-12.4-32.4-29.7-58.2-50.1-78.1c-20.7-20.2-44.2-34.9-70.7-40.6c-21.7-4.7-50.5-4.2-74.4,25.5c-28.6,35.6-30.6,92.9-27.3,130.9
		c8.1,93.8,54,146,78.2,222c24.2,75.8,29.9,170.6,26,268.2c-2.2,55.1-7.4,111.4-13.9,168.1c-3.2,28.1-6.7,56.2-10.3,84.4
		c-3.6,27.8-7.8,55.9-10.7,83.6c-1.2,10.9-1.8,21.9-0.7,31.6c1.1,9.8,4.3,16.9,8.9,22.3C3369.9,2001.3,3371.5,2003,3373.1,2004.6z
		 M3452.1,1048.1C3452.1,1048.1,3452.1,1048.1,3452.1,1048.1C3452.1,1048.1,3452.1,1048.1,3452.1,1048.1
		C3452.1,1048.1,3452.1,1048.1,3452.1,1048.1z M3452.2,1048.1C3452.2,1048.1,3452.2,1048.1,3452.2,1048.1
		C3452.2,1048.1,3452.2,1048.1,3452.2,1048.1z M3452.1,1048.1c-0.2-0.1-0.3-0.2-0.4-0.3C3451.6,1047.7,3451.7,1047.7,3452.1,1048.1z
		"/>
	<path class="accentcolor2" d="M3431.2,830.4c1,0.7,2.1,1.3,3.2,1.5c13.5,2.8,26.5,7.5,38.7,14.2c5.7,3.1,11.2,6.7,16.5,10.7
		c4.6,3.5,8.8,7.3,12.8,11.3c11.5,11.8,22.3,24.9,35,34.5c2.9,2.2,5.8,4.1,8.9,5.8c2.6,1.5,5.6,2.8,8.9,1.6c7.3-2.7,8.9-17.4,9-25.4
		c0.1-19.8-8.5-32.5-15.5-44.3c-8.4-14.1-16.4-28.9-23.8-44.5c-14.9-31.1-27.7-64.9-38.4-101c-5.6-18.8-10-39-16.1-57.2
		c-2.8-8.5-6.1-16.5-10.1-23.5c-5.2-9-11.7-15.8-18.6-21.6c-0.3-0.2-5-3.6-5.2-2.9c-9.8,39-6.1,74.3-0.2,105.2
		c3.1,16,6.7,31.4,9.5,47.6c1.3,7.6,3.7,16.7,0,26.4c-2.5,6.6-6.8,11.4-10.8,15.5c-5,5.1-9.8,9.4-13.7,17.1
		c-3.7,7.4-4.9,14.7-1.8,19.4c2.3,3.5,5.3,6,8.3,8.1C3428.1,829.3,3430.9,831,3431.2,830.4z M3443.3,597.7c0.4,0.5-1.2-1.3-0.2-0.2
		c-1.4-1.5,0.2,0.1,0.4,0.4c1.7,1,3.5,1.9,5.2,2.9c-0.3,1.2-0.6,2.4-0.9,3.5c-0.6-1.1-1.3-2.1-2-3.1
		C3445.1,599.9,3444.2,598.8,3443.3,597.7z M3431.2,830.4c-1.8-1.3-3.4-3-4.9-4.5c-1.1-1.1-2.6-2.4-3.4-3.9c0.1,0.2-1.2-1.7-0.1-1.5
		c2.5,0.5,5,1.1,7.5,1.8c-0.6,2.8-0.5,5.4,0.5,7C3431.2,829.8,3431.3,830.2,3431.2,830.4z M3430.2,822.2c0.7-3.7,2.5-7.8,3.9-10.6
		c3.5-6.7,7.7-10.6,12.1-15.1c3.9-3.9,8.2-8.4,11-14.6c3.8-8.3,2.7-16.1,1.7-23c-5-32.7-14.4-61.6-16-97.1
		c-0.8-18.1,0.3-37.6,5-57.5c1.1,1.9,2.2,3.9,3.2,6c3.2,6.7,5.9,14.1,8.3,21.9c4.9,15.9,8.9,32.9,13.6,49.1
		c10.3,35.2,22.5,68.2,36.7,98.6c7.1,15.4,14.8,30.1,22.9,44.1c7,12.2,15.9,23.4,18.5,41.2c1.1,7.3,1.2,20.4-3.4,28.8
		c-5.1,9.3-11.9,3.5-15.6,0.8c-1.7-1.3-2.7-2.3-4.4-3.9c-2.2-2.2-4.3-4.4-6.7-7.1c-5.2-5.7-10.4-11.5-15.8-16.8
		C3483,845.3,3458,829.6,3430.2,822.2z"/>
	<path class="accentcolor2" d="M3180.1,2624.5c1.2-2.9,2.5-5.7,3.6-8.6c1.7-4.2,3.5-8.5,5.2-12.8c-1.8-26-1.1-53.8,2.8-82.4
		c-0.5,19.9-0.7,39.6,0.6,58.5c0.3,4.2,0.6,8.4,1,12.5c3.4-9,6.8-18,10-27c0.2-0.4,0.3-0.9,0.5-1.3c-0.1-8.9-0.1-17.8,0.1-26.9
		c0.6-25.3,1.7-50.9,0.8-75.4c0-1.1-1-2-1.4-2.5c-1.3-1.6-2.8-3-4.2-4.3c-0.4-0.4-6.6-5.3-6.9-4.3
		C3173,2512.9,3172.3,2572.1,3180.1,2624.5z"/>
	<path class="accentcolor2" d="M3152.4,2678c3.8-5.9,7.3-11.9,10.6-18.1c0.6-1.2,1.3-2.4,1.9-3.6c0.1-20.9,0.3-41.8,1-62.9
		c1.9-63,7.2-128.4,22-195c12.9-58.1,32.8-117.3,61-168.7c7-12.8,14.5-25.7,23.1-35.9c4-4.7,8.3-8.9,12.7-11.4
		c2.1-1.2,4.1-2,6.1-2.2c6.3,22.8-7.6,57.2-16.2,84.3c-10.6,33.4-20.7,67.1-27.8,101c-7.3,35-12,69.7-16.4,104.2
		c-1.1,8.8-2.2,17.7-3.2,26.5c7.3-21.4,14.4-42.9,21.5-64.3c0.5-1.6,1-3.2,1.5-4.8c0.7-4.2,1.3-8.5,2-12.7
		c5.7-34.7,13.7-69.1,24-103.7c5.1-17.3,10.6-34.5,16.1-51.6c5.3-16.5,11.4-34,12.5-50.5c0.4-6.1,0-11.9-1.2-16.9
		c-1.6-6.4-4.9-10.4-8.4-13.9c-4.2-4.1-8.8-8.8-14.5-9.1c-4-0.2-8.4,1.9-12.6,5.3c-9.2,7.4-17.3,19.6-24.6,32
		c-7.5,12.7-14.4,26-20.9,39.7c-12.9,27.3-23.7,56.2-32.5,85.5c-19.4,64.1-29.1,128.9-33.6,191.1c-2.5,34.2-3.4,67.8-3.8,101.1
		C3152.4,2641.6,3152.5,2659.7,3152.4,2678z"/>
	<path class="accentcolor2" d="M3744.3,251.8c0.1-0.4,0.1-0.8,0.2-1.2c-0.6-0.6-1.2-1.1-1.9-1.7c0.8-0.4,1.6-0.8,2.4-1.3
		c3.8-22.1,7.6-44.2,11.4-66.2c-4.7,10.2-8.8,21-11.2,32c-2.8,12.5-3.3,24.4-2.6,35.5c0.1,1.1,0.9,2,1.4,2.5
		C3744.1,251.6,3744.2,251.7,3744.3,251.8z"/>
	<path class="accentcolor2" d="M3698.6,507.6c1-5.6,2.1-11.2,3.1-16.8c-12.3-39.3-21-82.5-23.2-131.7c-2.5-54.3,3.1-115.2,20.7-175.1
		c8.7-29.6,20.6-57.8,36.2-82.4c13.4-21,28.5-38.8,43.7-55.2c0.2-1.1,0.4-2.3,0.6-3.4c-12.1,6.5-24.3,13-36.6,19.2
		c-9.4,11.7-18.4,24.4-26.5,38.5c-30.9,53.4-45.2,122.5-49.7,180.9C3660.2,370.3,3675.2,444,3698.6,507.6z"/>
	<path class="accentcolor2" d="M3610.7,124.3c-5.6,2.4-11.1,4.7-16.7,7.1c-11.2,52.5-16.5,105-17.4,154.3c-1.3,76.8,8.5,146.9,23.1,211.4
		c7.4,32.5,15.8,64.1,25.3,94.3c9.4,29.7,20.4,57.5,35.2,80.1c2,3.1,4.1,6.1,6.2,9c0.5-2.5,1-5,1.4-7.5
		c-7.1-11.9-13.6-24.9-19.2-39.3c-10.7-27.6-19.3-58-27.3-88.7c-16.4-63.1-29.1-130.8-31.7-205.6
		C3587.1,271.9,3593.1,198.2,3610.7,124.3z"/>
	<path class="accentcolor2" d="M3689.3,88.9c-8,3.8-16,7.5-24,11.2c-23,51.4-31.4,112-38.3,164.4c-4.9,37.3-8.3,74.4-7.5,109.3
		c0.8,33.3,5.7,63.7,12.8,91.7c12.4,48.3,30.6,90.4,49.9,130.3c0.7-3.9,1.4-7.7,2.2-11.6c-9.2-20.2-17.9-41.1-25.7-63.2
		c-8.9-25.2-16.7-52-21.5-81.4c-5.3-32.1-6.4-67.2-3.8-104.4c2.4-35,7.2-71.2,13.1-107.2c4.9-30.3,11.3-61.4,21.6-91.4
		C3673.9,119.6,3681,103.4,3689.3,88.9z"/>
	<path class="accentcolor2" d="M3708.4,453.8c1.2-6.5,2.4-13,3.5-19.5c-8-29.6-13.7-61.7-14.9-97.1c-1.5-42.6,4.3-90.1,18.4-136.4
		c12.6-41.4,31.9-79.2,56-108c1.6-9.8,3.3-19.6,4.9-29.4c-21.9,20.9-41.9,48-58,84.5c-19.4,44.1-30.1,93.3-33.1,138.2
		c-3.4,49.9,3.1,94.9,13.4,134.5C3701.6,432,3704.9,443,3708.4,453.8z"/>
	<path class="accentcolor2" d="M3719.5,392.1c1.7-9.5,3.4-19,5.1-28.5c-2-14.9-3.3-30.3-3.4-46.5c-0.3-46.5,10.5-99.9,36.4-143.5
		c0.1-0.2,0.2-0.3,0.3-0.4c2.3-13.2,4.5-26.3,6.7-39.5c-0.6,0.8-1.2,1.5-1.7,2.3c-14.3,19.1-27.4,41-36.6,66
		c-9,24.6-14.2,50.5-16.4,75C3706.1,319.8,3711.7,357.3,3719.5,392.1z"/>
	<path class="accentcolor2" d="M3008.9,1207.3c-0.2,1.7-0.3,3.5-0.5,5.2c8.3,4.4,16.6,8.6,24.9,13c6.9,3.7,12.9,7.2,18,14.1
		c5.9,8.1,10.8,17.9,15,28.5c8.9,22.6,14.9,48.6,19.5,75.7c9.6,57.2,12.7,120.1,17.3,181.2c2.4,32.4,5.1,64.7,7.3,97.3
		c2.1,30.8,2.1,62.5-1.6,96.3c-3.6,33.1-10.4,67.1-20,100.7c-2.3,8.1-4.8,16.4-7.6,24.4c-2.3,6.5-5.3,12.1-9.6,15.5
		c-8.4,6.7-16.6,3.3-23.4,0.8c-35.5-13.1-73-20.4-111.9-21.8c-0.5,3.8-1,7.5-1.5,11.3c29.5,0,58.2,3.3,85.8,10
		c9.8,2.4,19.5,5.1,29,8.4c8.1,2.7,16.2,7.6,25.5,6.3c3.5-0.5,7.3-1.9,10.8-5.5c4.5-4.6,7-11.6,9.3-18.5
		c5.5-16.9,10.2-34.1,14.2-51.2c8-34.6,12.9-69.3,14.5-102.4c1.6-34.5-1.2-66.4-3.7-98.4c-2.5-33.4-5-66.8-7.6-100.3
		c-2.3-30.7-4.5-61.6-7.6-91.7c-3.1-29.3-7.1-58-13.3-84.6c-5.9-25.5-13.7-49.6-25.3-68.1c-13.2-21.1-31.3-33-50.1-42.4
		C3013.9,1209.8,3011.4,1208.6,3008.9,1207.3z"/>
	<path class="accentcolor2" d="M3001.8,1278.8c-0.1,1.2-0.2,2.3-0.4,3.5c0.1,0.1,0.3,0.3,0.4,0.4c2.8,2.7,4.7,4.8,7.7,8.1
		c10.9,12,20.9,26.5,29.1,43c19.9,39.9,27.6,93.6,35.9,145.9c8.9,56.3,16.5,114.9,11.4,180.5c-2.5,32-7.9,65.3-17.4,98.3
		c-4.1,14.2-9,29.3-16.9,40.9c-7.5,10.9-16.7,17.1-25.1,19.4c-9.6,2.6-18.2,0.4-26.3-2.8c-8.5-3.4-16.8-7.2-25.8-9.5
		c-10.9-2.7-22.2-3.8-33.8-3.7c-0.5,4-1.1,8-1.6,12c3.9-0.3,7.9-0.5,11.8-0.5c19.3-0.3,37.2,3.2,54.3,10.5
		c14.9,6.4,32.7,12.9,51.5-5.3c9.1-8.8,15.6-22.4,20.4-36.7c5.4-16.1,9.5-32.7,12.8-49.1c13.7-67.5,11.7-130.8,4.9-188.3
		c-3.5-29.4-8.2-57.8-12.9-86.2c-4.5-27.4-9.2-54.7-16.7-79.2c-13-42.8-35.1-73.6-60.1-97.9
		C3004.1,1280.9,3003,1279.9,3001.8,1278.8z"/>
	<path class="accentcolor2" d="M2998.4,1312c-0.1,1.2-0.2,2.3-0.4,3.5c0.4,0.4,0.9,0.9,1.4,1.3c2.6,2.6,4.5,4.6,7.4,7.7
		c2.5,2.8,4.8,5.7,7.2,8.7c9.8,12.9,18,28.7,23.4,47.7c5.8,20.2,8.8,43.2,10.7,66.9c3.9,48,2.1,100.1-5.1,153.5
		c-3.6,26.6-8.5,53.5-14.8,80.4c-2.4,10.4-5.4,21.3-10.4,30.7c-5.7,11-12.9,15.8-20.3,17.6c-16.2,4.2-32.4,6.9-48.5,10.1
		c-0.6,4.8-1.2,9.5-1.8,14.3c11.9-2.5,23.9-5,35.8-7.4c8.9-1.8,17.7-3.2,26.7-5.6c7.2-1.9,14.3-6.2,20.1-16.8
		c5.1-9.2,8.1-20.2,10.6-30.5c3.1-13.1,5.9-26.3,8.3-39.4c10.2-54.4,14.8-108.3,13.8-158.6c-1-47.9-5.8-96.5-22.2-130.1
		c-8.1-16.7-18.5-30.1-29.7-41.9C3006.6,1319.9,3002.5,1315.9,2998.4,1312z"/>
	<path class="accentcolor2" d="M3038.3,874.8c-0.1,1.2-0.2,2.4-0.3,3.6c0.1,0.1,0.2,0.2,0.2,0.3c1.1,1.2,1.9,2.1,3.1,3.6
		c4.5,5.4,8.7,11.4,12.6,17.8c16.1,26.4,27.2,60.5,32.7,99.3c1.4,9.8,2.4,20,3.1,30.5c0.5,8.4,2.4,22.2-4.7,30.1
		c-3.5,3.9-7.7,5.1-11.2,5.7c-3.7,0.7-7.2,0.4-10.5-0.6c-1.5-0.4-2.9-1.1-4.3-1.8c-0.7-0.4-1.3-0.8-2-1.2c-0.1-0.1-0.5-0.4-0.7-0.5
		c0,0,0,0,0,0c0,0,0,0,0,0c0,0,0,0,0,0c0,0,0,0,0,0c0,0,0,0,0,0l0,0c0,0,0,0,0,0c0,0,0,0,0,0c0,0-0.1-0.1-0.1-0.1l0,0c0,0,0,0,0,0
		c0,0,0,0,0,0c0,0,0,0-0.1-0.1c0,0,0,0,0,0c0,0-0.1-0.1-0.1-0.1c-0.2-0.2-0.4-0.4-0.6-0.5c0,0,0,0,0,0c0,0,0,0,0,0c0,0,0,0,0,0
		c0,0,0,0,0,0c0,0,0,0,0,0c0,0,0,0,0,0c0,0,0,0-0.1-0.1c-0.3-0.2-0.5-0.5-0.8-0.8c-0.2-0.2-0.4-0.4-0.7-0.7c0,0,0,0,0,0c0,0,0,0,0,0
		c0,0,0,0,0,0c0,0,0,0,0,0c0,0,0,0,0,0c0,0,0,0,0,0c-0.1-0.1-0.1-0.1-0.2-0.2c-0.8-0.8-1.6-1.7-2.4-2.6
		c-8.5-9.4-16.9-19.1-25.3-28.8c-0.1,1.4-0.2,2.8-0.4,4.2c4.5,5.3,9.1,10.5,13.6,15.8c6.3,7.3,12.8,14.2,19.9,19.9
		c6.3,5.1,13.2,9.7,21.2,10.2c5.4,0.4,16-0.5,20.6-11.2c2.3-5.3,2.3-11.1,2.1-16c-0.2-5.3-0.5-10.5-0.9-15.7
		c-3.1-41.1-12.2-77.8-26.4-107.6C3065.3,906,3052.6,888.8,3038.3,874.8z"/>
	<path class="accentcolor2" d="M3013.1,1163.6c-0.1,1.2-0.2,2.5-0.4,3.7c16,13.8,30.9,29.7,44,49.3c26.8,40.2,46.5,91.5,60.2,148.6
		c14,58.2,21.7,122.5,24.8,189.7c3.3,72,2.4,148.3-6.6,226.2c-4.8,41.9-12.4,84.7-24.1,127.2c-2.7,9.8-5.4,20.5-9.2,30
		c-4.3,10.6-9.5,12.2-15.3,11c-10.7-2.3-20.3-8.1-29.1-15.5c-18.6-15.6-35.3-34.6-55.2-47.3c-19.9-12.7-41.8-20.6-65.1-23.2
		c-1.4-0.2-2.9-0.3-4.3-0.4c-0.5,3.6-1,7.3-1.5,10.9c37.4,0,72,12.9,100,39.3c18.7,17.6,37,37.8,60,45.7c4.6,1.6,11,5.2,16.8,0.5
		c5.6-4.5,8.4-15.8,10.7-23.6c6.7-22.2,12.2-44.6,16.8-66.9c17.4-85.6,20.8-169.5,20.1-248.6c-0.7-70.4-5.9-138.3-17.2-200.8
		c-11.2-62.2-28.5-119.1-53.3-165.6C3065.4,1216.3,3040.6,1187.5,3013.1,1163.6z"/>
	<path class="accentcolor2" d="M3034.6,921c-0.1,1.4-0.2,2.9-0.4,4.3c7.5,9.1,14.7,20.3,18.4,34.7c1.6,6.2,2.5,15.2-0.4,23.6
		c-3.7,10.3-10.6,11.6-15.9,11.7c-2.7,0-5.4-0.2-7.9-0.7c-0.2,2.3-0.4,4.6-0.6,6.9c3.1,1.6,6.2,2.9,9.5,3.9
		c5.6,1.6,12.6,3.1,19.2-0.2c6-3,9.6-11.5,10-20.1c0.5-8.7-1.4-15.7-3.8-21.8c-2.8-7.2-6.2-13.7-9.9-19.6
		C3047.4,935,3041.2,927.6,3034.6,921z"/>
	<path class="accentcolor2" d="M2858.7,2590.9C2858.7,2590.9,2858.7,2590.9,2858.7,2590.9C2858.7,2590.9,2858.7,2590.9,2858.7,2590.9z"/>
	<path class="accentcolor2" d="M3071.1,419.5c-0.1,1.4-0.2,2.7-0.3,4.1c14.7,16.3,29.4,32.8,43.6,50c11.9,14.4,23,30.1,33.3,47.2
		c10.3,17.1,20.6,34,33.6,46.6c13.2,12.8,28.2,22,45.6,24c7.9,0.9,16.1,0.4,24.6-1.6c6.4-1.5,13-4.6,19.4-5.9
		c-1.9,2-3.8,3.8-5.7,5.5c-7.7,6.6-15.7,10.2-23.4,11.8c-16.4,3.4-31.1-1.6-44.8-7.9c-14.3-6.6-27.9-15.8-40.1-25.9
		c-0.8-0.7-1.6-1.3-2.4-2c-0.3-0.3-0.7-0.6-1-0.9c0,0-0.3-0.3-0.5-0.4c0,0,0,0-0.1-0.1c0,0,0,0,0,0c0,0,0,0,0,0c0,0,0,0,0,0
		c0,0,0,0,0,0c0,0,0,0,0,0l0,0c-1.6-1.4-3.1-2.7-4.7-4.1c-1.6-1.4-3.1-2.8-4.7-4.2c-0.7-0.6-1.4-1.3-2-1.9c0,0,0,0-0.1-0.1
		c0,0,0,0,0,0c0,0,0,0-0.1-0.1c0,0-0.1-0.1-0.2-0.1c-0.5-0.5-1.1-1-1.6-1.6c-6.3-6-12.6-12.3-18.8-18.6
		c-17.5-17.8-35.4-36.4-53.4-54.8c-0.1,1.2-0.2,2.5-0.2,3.7c11.3,11.6,22.7,23.3,34,34.9c26.3,27.2,52.7,54.4,82.7,74
		c13.9,9.1,28.6,16.9,44.4,20.7c14,3.4,30.2,3.3,46.4-8.8c3.9-2.9,7.7-6.5,11.4-10.7c0-0.2,0-0.4-0.1-0.5c-0.8-5.8-3.9-8.8-6.8-11.7
		c-3.7-3.6-7.7-7.3-12.6-8.2c-6.3-1.1-13.6,2.5-20.5,4.7c-17.5,5.4-34.4,4.9-49-1.8c-3.2-1.5-6.3-3.2-9.2-5.4
		c-0.7-0.5-1.4-1.1-2-1.6c0,0,0,0,0,0l0,0c0,0,0,0,0,0c0,0,0,0,0,0c0,0,0,0,0-0.1c0,0,0,0-0.1-0.1c0,0,0,0,0.1,0
		c-0.2-0.3-0.8-0.9-1-1c0,0,0,0,0,0c0,0,0,0,0,0c0,0,0,0,0,0c0,0,0,0,0,0l0,0c0,0,0,0,0,0c-0.7-0.7-1.4-1.5-2-2.2
		c-5.8-6.7-10.9-14.6-15.8-22.6c-10.7-17.3-21.1-34.7-33-50.1c-12.2-15.9-25.2-30.3-38.2-44.8
		C3087.4,437.8,3079.3,428.6,3071.1,419.5z"/>
	<path class="accentcolor2" d="M3069.5,444.6c-0.1,1.3-0.2,2.6-0.3,4c15.3,16,30.5,32.2,45.6,48.4c-5.2,0.8-10.1-0.1-14.4-2.5
		c-0.6-0.3-1.2-0.6-1.7-1c0,0,0,0,0,0c-0.1-0.1-0.9-0.7-1.2-0.9c0,0,0,0,0,0c0,0,0,0,0,0c-0.2-0.2-0.5-0.4-0.5-0.4c0,0,0,0,0,0
		c0,0,0,0,0,0c-0.2-0.1-0.3-0.3-0.5-0.4c0,0,0,0,0,0c0,0,0,0,0,0c0,0,0,0,0,0c0,0,0,0,0,0c0,0,0,0-0.1-0.1c0,0,0,0,0,0
		c-0.2-0.2-0.7-0.7-0.8-0.8c-1.4-1.3-1.3-1.3-2.6-2.6c-8.2-8.6-16.4-17.4-24.6-26.1c-0.1,1.4-0.2,2.8-0.3,4.2
		c7.4,8.1,14.9,16.1,22.6,23.7c10.3,10.2,22.2,21.4,37.3,18.3c1.2-0.2-2.1-4-2.2-4C3107.1,484.2,3088.3,464.3,3069.5,444.6z"/>
	<path class="accentcolor2" d="M3334.2,225.3c-10.7,3.3-21.4,6.6-32.2,9.8c-2.2,6.2-4.1,12.5-6,18.8c-2,6.6-4.1,13.4-7.1,19.6
		c-6.2,12.6-14.9,18.1-22.9,19.1c-8.5,1.1-16.5-1.4-24.1-4c-7.7-2.7-15.1-6.2-22.2-10.5c-3.6-2.2-6.9-4.4-10.3-6.9
		c-0.8-0.6-1.5-1.1-2.3-1.7c0,0,0,0,0,0c0,0,0,0,0,0l0,0c0,0,0,0,0,0l0,0c0,0,0,0,0,0c0,0-0.1-0.1-0.2-0.1c0,0-0.1-0.1-0.1-0.1
		c-0.4-0.3-0.9-0.7-1.3-1c-0.9-0.7-1.7-1.4-2.5-2.1c-0.3-0.3-0.6-0.5-1-0.8c0,0-0.6-0.5-0.9-0.8c0,0,0,0,0,0c0,0-0.1-0.1-0.1-0.1
		c0,0-0.1,0-0.1-0.1c0,0,0,0,0,0c0,0,0,0,0,0c0,0,0,0,0,0c-0.2-0.2-0.4-0.3-0.6-0.5c-1.1,0.3-2.2,0.6-3.3,0.9
		c20.9,19.1,44,34.2,70.2,39c7.1,1.3,15.5,1.3,23.6-5.1c2.7-2.1,5-4.8,7-7.9c-5.7,17.2-13.2,33.3-24.4,44.6c-9,9.1-18,10.9-25.1,6
		c-7.5-5.2-15.9-13.1-23.7-19.5c-4-3.3-8-6.6-12-9.9c-3.2-2.7-6.6-5.6-9.7-8.8c-2.6-2.6-6-6.7-8.6-10.4c-3.1-4.5-6-9.3-8.7-14.3
		c-1.7-3.1-3.4-6.3-5-9.4c-2,0.5-4,1-6.1,1.6c0.5,0.9,1,1.8,1.5,2.6c12.5,21.8,29.1,36.1,45.9,50.1c8.3,6.9,16.6,13.8,24.9,20.6
		c7.6,6.3,16.2,14.5,27.1,10.8c8.4-2.8,15.7-10.6,21.9-20.8c-1,7.7-1.9,15.3-2.7,22.9c0,0,0,0,0,0c-0.6,2.9-1.4,5.8-2.4,8.6
		c-2.7,7.5-6.8,13-11.5,17.2c-10.5,9.5-22.3,17-32.9,19.4c-5.2,1.2-10.4,1.3-14.9-0.6c-0.9-0.4-1.8-0.9-2.7-1.4
		c-0.2-0.2-0.6-0.6-0.8-0.8c-0.8-0.9-1.6-1.8-2.4-2.7c-7.8-8.9-15.5-18-23.3-26.9c-14.7-16.9-30.4-32.6-42.6-53.9
		c-6.3-11.1-11.1-24.2-15.8-37.4c-2.6,0.6-5.2,1.3-7.8,1.9c3.9,10.3,8.1,20.2,13.3,28.9c12.5,21.2,28.4,37.2,43.2,54.4
		c7.8,9,15.5,18,23.3,26.9c8.4,9.6,17.3,19.6,28.5,23c9.3,2.8,20.2-0.8,30.9-7.3c5.1-3.1,10.2-6.8,15.2-11.1c-0.2,4-0.3,7.9-0.7,12
		c-0.6,6.9-1.8,15.1-5.6,21.5c-4.6,7.9-11.9,10.2-17.3,11.8c-24.7,7.4-43.5-8.7-60.8-22.9c-9.6-7.9-18-14.9-26.8-23.8
		c-8.5-8.7-16.3-19.1-23.6-30.1c-15.6-23.8-29.8-49.8-45.5-73.6c-0.6-1-1.3-2-2-3c-1.7,0.4-3.4,0.8-5.2,1.2
		c14,21.9,27,45.3,41.1,66.9c16.4,25,35.8,44.3,56.4,61.6c9.9,8.3,19.8,16.7,30.3,23.8c9.7,6.6,20.2,12.1,31.9,13.1
		c5.6,0.5,11.6-0.2,17.6-2.3c5.1-1.8,11.8-4,16.2-11.5c3.9-6.6,5.1-15,5.6-22.1c0.6-8.1,0.7-15.9,1.2-24c0.5-8.4,1.2-16.9,2.1-25.4
		c0,0,0,0,0,0c0,0,0,0,0,0c1-4.6,1.5-9.1,2-13.6c0.7-6.7,1.4-13.3,2.2-20c0,0,0,0,0,0c2.4-15.9,5.3-31.9,8.7-47.9
		C3322.9,266.2,3328.1,245.6,3334.2,225.3z M3228.7,399.9c0.2,0.2,0.2,0.2,0.1,0.1C3229.2,400.3,3229.7,400.9,3228.7,399.9z
		 M3228.7,399.9 M3228.8,400C3228.8,400,3228.8,400,3228.8,400C3228.8,400,3228.8,400,3228.8,400C3228.8,400,3228.8,400,3228.8,400
		C3228.7,399.9,3228.7,399.9,3228.8,400C3228.7,399.9,3228.8,399.9,3228.8,400z"/>
	<path class="accentcolor2" d="M3386.4,208.6c-8.3,2.7-16.7,5.4-25.1,8.1c-10.3,18.5-18.2,39.8-24.1,60.8c-17.9,63.3-17,125-34.8,188.3
		c-4.2,14.8-9.2,30.3-19.6,37.3c-9.8,6.7-20.4,7.6-29.2,6.7c-17.7-2-31.7-14.1-45-27c-46.9-45.7-88.2-101.7-131.9-153.4
		c-0.1,1.6-0.2,3.2-0.3,4.8c39.5,47.1,77.3,97.2,119.3,139.8c14.8,15,30,30.1,47.3,39.7c14.3,8,32.9,13.2,51.6,1.1
		c10.4-6.7,15.6-21.7,19.8-36.6c4.9-17.1,8.4-34.3,11.3-51.3c5.6-33,8.6-65.5,14.7-98.7C3348.2,287.1,3362.7,240,3386.4,208.6z"/>
	<path class="accentcolor2" d="M3570.9,1158.5c2-9.3,3.9-18.6,5.8-28c-3.2-15.3-7-30-11.7-43.9c-12.6-37.4-30.1-69-51.3-93.6
		c-23-26.6-49.6-46.3-79.6-57.2c-16.6-6-33.8-10.1-50.4-16.2c-13.9-5-28.2-10.7-39.2-22.5c-10.5-11.3-18.9-27.2-23.6-46.6
		c-2.5-10.2-3.9-21.4-4-33.5c-0.1-11.9,1.8-25,9.5-35.2c6.3-8.4,13.9-12.6,20.8-17.8c6.6-4.9,12.9-10.9,18.5-19.6
		c11.3-17.6,17.3-40.5,20.9-61.3c4.4-25,5.8-49.2,8.1-73.7c3.1-32,7.2-64.3,12.4-96.8c5.2-32.9,11.4-66.1,18.6-99.2
		c0.9-4.2,1.9-8.5,2.8-12.8c0.2-0.9,0.9-4.7,1.2-5.1c0.5-0.7,2.8-1,3.6-1.1c3.6-0.8,7.2-0.7,10.3,0.5c0.2,0.1,0.3,0.1,0.5,0.2
		c-0.1-0.2-0.3-0.5-0.4-0.9c0.1,0.3,0.2,0.6,0.4,0.9c2,0.9,1,1.3,0.2,0.2c0.7,1.1,1.9,2.2,2.4,3c2.4,3.7,4.4,7.9,6.3,12.3
		c8.2,19.2,13.7,42,20.4,63c7.4,22.9,15.1,45.4,23.2,67.4c16.3,44.4,33.9,87.1,52.9,128c28.4,61.1,60.5,118.2,82.9,186.9
		c1.1-5.4,2.1-10.8,3.2-16.2c-3.4-9.2-7-18.1-10.7-26.9c-17.3-41.2-37.1-79-55.8-118.2c-19.4-40.6-37.4-82.9-54.1-127
		c-8.6-22.7-16.8-45.9-24.6-69.4c-7.2-21.8-13.5-44.8-21-66.4c-6.9-20-16.7-35.1-30.2-44.4c-5.6-3.9-11.9-6.1-19.3-3.9
		c-0.1,0-1.8,0.4-2.1,0.7c-1.1,1.2-1.2,3.2-1.7,5.3c-0.9,3.8-1.7,7.7-2.5,11.5c-2,8.9-3.8,17.8-5.6,26.8
		c-13.4,66.4-22.5,132-27.9,196.6c-3.2,38.3-9.1,95.4-37.8,122.4c-12.8,12-32.6,18.1-36.9,44.8c-2,12.5-0.8,24.9,0.7,35.5
		c1.5,10.9,4.2,20.9,7.7,29.7c15.4,38.7,44.6,59.7,73.9,71.5c31.1,12.5,64.9,17,93.1,37.3
		C3528.8,1000.1,3559.8,1072.7,3570.9,1158.5z M3443.8,394.2 M3443.8,394.2C3443.8,394.2,3443.8,394.2,3443.8,394.2
		C3443.8,394.2,3443.8,394.2,3443.8,394.2z M3443.8,394.2"/>
	<path class="accentcolor2" d="M3585.2,1089.7c1.1-5.2,2.1-10.4,3.2-15.5c-8.5-22.3-18.4-43-29.5-62c-33.3-57.1-77-99.2-126.2-125.3
		c-11.8-6.3-23.9-11.5-36.4-15.7c-3.2-1.1-6.4-2.1-9.5-3.3c-2.5-1-4.9-3-7.5-3.8c-0.2-0.3-0.4-0.5-0.5-0.8c-0.9-1.6-1.8-3.4-2.4-5.4
		c-1.2-3.7-1.8-8-1.7-12.7c0-8.3,1.7-18.1,5.5-26.5c1.7-3.7,3.8-7.1,6.1-9.7c3.5-4,7.3-5.4,11-8.2c15-11.5,13.4-40.4,13.5-56.6
		c0.3-55.4,6.3-113.9,17.6-172.9c1.4-7.3,2.9-14.7,4.5-22c1.4-6.5,2.7-13.6,5.6-19.8c2.1-4.4,5.1-8,8.1-9.3c1.7-0.7,3.2-0.6,4.7-0.4
		c0.2,0.3,0.3,0.5,0.5,0.8c9.5,15.1,18.7,30.8,27.9,46.4c37,63,71.8,131.1,91.1,216.7c10.4,46,15.4,96.8,24.8,143.7
		c3.5,17.6,8,34.2,12.6,50.7c1.4-6.9,2.8-13.8,4.2-20.7c-10.9-45.9-15.9-97.2-25.1-144.6c-17.3-89.1-51.4-159.8-88.5-224.4
		c-9.3-16.2-18.8-32.1-28.4-47.8c-4.9-8-9.6-16.1-15.6-22.1c-5.2-5.1-12.3-13.2-20.4-9.4c-8.6,4-11.6,19.3-14,30.2
		c-3.2,15-6.1,30.1-8.6,45.1c-5,29.9-8.6,59.7-10.8,88.8c-1.1,14.9-1.9,29.7-2.2,44.3c-0.3,12.1,0.2,23.9-0.5,36.2
		c-0.6,9.2-2,20.4-7.1,29c-5.5,9.3-13,9.4-18.9,17.5c-10.3,14.1-12,37.4-7.4,49.3c3.7,9.6,10.4,15.6,16.8,20.7
		c6.1,4.9,12.8,8.1,19.9,10.5c25.6,8.7,50,20.3,72.4,37.1c20.9,15.7,39.9,35.8,56.9,60C3552.8,1008.9,3571.4,1046.6,3585.2,1089.7z"
		/>
	<path class="accentcolor2" d="M3041.4,835.7c-0.1,1.4-0.2,2.7-0.3,4.1c3.6,2.5,7.3,5,10.9,7.5c1.7,1.2,3.4,2.4,5,3.6c0.9,0.7,1.8,1.3,2.6,2
		c0,0,0.2,0.2,0.4,0.3c0.1,0.1,0.1,0.1,0.2,0.1c0,0,0,0,0,0c0,0,0,0,0,0l0,0c0,0,0,0,0,0c0,0,0,0,0,0c0,0,0,0,0,0l0,0c0,0,0,0,0,0
		c0,0,0,0,0,0c0,0,0,0,0,0c0.4,0.3,0.9,0.7,1.3,1c0.7,0.6,1.4,1.1,2.1,1.7c0,0,0,0,0,0c0,0,0,0,0,0c0,0,0,0,0,0c0,0,0.1,0.1,0.1,0.1
		c0.3,0.3,0.6,0.5,0.9,0.8c0.6,0.5,1.1,1,1.7,1.5l0,0l0,0c0,0,0,0,0,0c0,0,0,0,0,0l0,0c0,0,0,0,0,0c0,0,0,0,0,0c0,0,0,0,0,0
		c0,0,0,0.1,0.1,0.1c0,0,0.1,0.1,0.1,0.1c0,0,0,0,0,0c0,0,0.1,0.1,0.1,0.1c0,0,0.1,0.1,0.1,0.1c0,0,0,0,0.1,0.1c0,0,0,0,0,0
		c0.5,0.4,0.9,0.9,1.4,1.3c0.4,0.4,0.7,0.7,1.1,1.1c0.1,0,0.3,0.3,0.5,0.5c0,0,0,0,0,0c0,0,0,0,0.1,0.1c0,0,0,0,0,0c0,0,0,0,0.1,0.1
		l0,0c0,0,0.1,0.1,0.1,0.1c0,0,0,0,0.1,0.1c0,0,0,0,0,0c0.2,0.2,0.4,0.5,0.5,0.5c0.3,0.3,0.5,0.6,0.8,0.9c1.4,1.5,2.8,3,3.8,4.3
		c2.7,3.1,5.2,6.3,7.7,9.7c5.2,7.2,10.2,15,14.6,23.5c8.8,16.6,16,35.4,21.3,56.3c10.5,41.1,13.2,90.6,4.9,143.5
		c-1.9,12.1-4.1,26.3-10.2,37.5c-3.2,5.8-7.4,10-11.5,11.1c-2,0.5-3.9,0.4-5.7,0c-0.8-0.2-1.6-0.6-2.4-1c-0.1,0-0.2-0.1-0.2-0.1
		l-0.3-0.3c-0.9-0.9-1.8-1.9-2.7-2.8c-1.9-2-3.8-4-5.7-6.1c-3.6-3.8-7.2-7.7-10.8-11.5c-7.1-7.7-14.2-15.5-21.3-23.4
		c-10.5-11.8-21-23.7-31.3-35.8c-0.1,1.5-0.3,3.1-0.4,4.6c3.1,3.5,6.1,7.1,9.2,10.6c14.6,16.6,29.3,32.9,44.2,48.8
		c8.3,8.9,16.4,18.6,26,24.9c6.6,4.4,15.8,7.5,24.1-5.4c6.8-10.6,9.3-25.3,11.2-37.4c2.2-13.5,3.7-27,4.5-40.1
		c1.6-26.1,0.6-51-2.7-74.1c-6.7-47.3-22.7-86.3-44.1-115.4c-12.3-16.7-26.3-30.4-41.5-41.7C3048.8,840.8,3045.1,838.2,3041.4,835.7
		z"/>
	<path class="accentcolor2" d="M3043.9,804.3c-0.1,1.6-0.2,3.2-0.4,4.8c14.2,15.3,30.1,27.1,45.6,39.7c1.9,1.5,3.7,3,5.6,4.6
		c0.3,0.2,0.5,0.5,0.8,0.7c0,0,0,0,0,0c0,0,0.1,0,0.1,0.1c0,0,0.1,0.1,0.1,0.1c0,0,0,0,0,0c0,0,0.1,0.1,0.1,0.1c0,0,0.1,0.1,0.1,0.1
		c0.1,0.1,0.2,0.1,0.2,0.2c1.1,0.9,2.1,1.9,3.2,2.8c2.7,2.4,5.5,5.2,8.6,8.6c6,6.6,11.4,14.3,16.3,22.8c19.9,35,29.5,84,33.1,135.8
		c1.9,26.5,2.3,53.9,1.7,81.9c-0.3,13.8-0.8,27.7-1.6,41.7c-0.8,14.9-2.7,30.8-12.2,43.3c-8,10.6-17.5,14.9-25.6,14.2
		c-4.7-0.4-9-2.3-12.9-4.9c-1.7-1.2-2.7-2-4.1-3.1c-1.1-0.9-2.2-1.7-3.2-2.6c-0.5-0.4-0.9-0.8-1.4-1.2c-0.1-0.1-0.6-0.6-0.9-0.8l0,0
		c0,0-0.1,0-0.1-0.1c0,0,0,0,0,0c0,0,0,0,0,0c0,0,0,0,0,0c0,0,0,0,0,0c-1.9-1.6-3.8-3.3-5.7-5.1c-0.5-0.4-0.9-0.8-1.4-1.3
		c-0.1-0.1-0.7-0.6-0.9-0.9c0,0,0,0,0,0c0,0,0,0,0,0c0,0,0,0,0,0c0,0,0,0,0,0c0,0,0,0,0,0l0,0c0,0,0,0,0,0c-0.6-0.6-2-1.9-2.8-2.7
		c-3.8-3.7-7.1-7-10.6-10.7c-7.4-7.8-14.6-16-21.8-24.4c-11.8-13.9-23.6-27.9-35.2-42.1c-0.1,1.6-0.3,3.2-0.4,4.8
		c3.7,4.5,7.4,9,11.2,13.5c15.2,18.3,30.5,36.4,46.7,52.8c8.5,8.6,17.4,16.8,26.5,24.3c8.5,7,17.5,14.7,28.2,16
		c7.9,1,17.4-2.7,25.6-12.4c9.9-11.7,12.8-27.3,13.7-42.5c1.7-29.5,2.4-58.7,1.8-87c-1.1-55-7.1-108.1-22.9-150.2
		c-8.3-22-19.3-40.1-32.5-54.7c-14.8-16.6-31.7-28.9-48.1-42.3c-1.9-1.5-3.7-3.1-5.6-4.7c0,0,0,0,0,0c0,0,0,0,0,0c0,0,0,0,0,0
		c0,0,0,0,0,0c0,0,0,0,0,0c0,0,0,0,0,0c-0.4-0.4-1.5-1.3-1.6-1.4c-1.1-0.9-2.1-1.9-3.2-2.9c0,0-0.2-0.2-0.3-0.3c0,0,0,0,0,0
		c0,0,0,0-0.1-0.1c0,0,0,0,0,0c0,0,0,0,0,0c0,0,0,0,0,0c0,0,0,0,0,0c0,0,0,0,0,0c0,0,0,0,0,0c0,0,0,0,0,0c0,0,0,0,0,0
		c-0.3-0.3-0.6-0.5-0.8-0.8c-0.8-0.8-1.6-1.6-2.5-2.4c0,0,0,0,0,0c-0.1-0.1-0.7-0.7-1.1-1.1c0-0.1-0.1-0.1-0.1-0.1c0,0,0,0,0,0
		c0,0,0,0,0,0c0,0,0,0,0,0c-0.3-0.3-0.6-0.7-0.7-0.7c-1-1.1-2-2.1-3-3.2C3047,808.3,3045.4,806.3,3043.9,804.3z"/>
	<path class="accentcolor2" d="M3063.3,537.1c-0.1,1.2-0.2,2.4-0.2,3.6c10.4,8.3,20.9,16.3,31.5,24.2c0,0,0,0,0,0
		c18.4,18.8,34.3,42.3,50.8,64.6c17.6,23.9,36.1,46.2,57.2,63.7c19.8,16.4,41.7,29,66.5,31.6c12.4,1.3,25.4,0.1,38.8-4.3
		c11.7-3.8,23.6-10.7,32.6-28.5c7.4-14.7,11.1-31.9,13.5-47.6c3.1-20.2,4.5-40,6.9-60c5.8-47,14-94.7,24.7-142.5
		c5.2-23.3,10.8-46.7,17.3-69.9c4.8-17,10.6-34.8,19.2-49.7c8.9-15.4,20.6-25.2,31.2-24.5c2.5,0.2,4.9,0.9,7.1,2.1c0,0,0,0,0,0
		c0.3,0.3,0.7,0.8,0.8,0.9c1,1.4,2,2.8,3,4.3c3.8,5.9,6.9,12.7,9.7,19.9c22.9,59.5,37.8,128.3,54.6,194.6
		c16.9,66.8,36.1,130.4,64.6,183.2c15,27.8,31.3,53.8,44.6,84.1c2,4.4,3.8,9,5.6,13.6c0.8-4.2,1.6-8.5,2.5-12.7
		c-8.8-18.7-18.7-36.1-28.5-53.5c-14.8-26.4-29-53.5-40.6-84.3c-11.2-29.7-20.5-61.6-29.1-94.3c-17.2-65.2-31.6-133.5-52.2-195.1
		c-5-14.8-9.9-29.9-16.8-42.2c-7.2-13-16.8-23.3-27.8-29.2c-8.9-4.8-19.7-3.8-30.5,7.5c-10.1,10.5-17.6,26.9-23.2,42.8
		c-7.1,20.2-12.1,41.2-17.1,61.7c-5.8,23.6-10.9,47.3-15.5,70.9c-9.1,47-15.4,93.2-20.2,139.3c-3.1,29.7-9.1,71.9-31.9,89.5
		c-13.1,10.2-27.9,12-40.3,12.8c-13,0.8-25.5-1.3-37.2-5.6c-47-17.5-76.5-70.5-110.6-113.9c-5.4-6.9-11-13.5-16.7-19.8
		c7.4,5.3,14.8,10.4,22.2,15.5c35.8,24.2,72.9,46.8,113.3,58.8c14.2,4.2,29.1,7.3,44.9,5.2c7.4-1,16.9-2.8,24.5-9.7
		c9.4-8.7,13.5-29.3,17.2-42.9c4.7-17.6,8.8-35.2,12.5-52.8c14.7-70.2,22.8-139.9,39.9-210.3c4-16.4,8.3-33.6,16.1-48.6
		c6-11.4,13.4-20.6,21.3-27.6c16.8-15,34.7-21,51.4-26.2c9.3-2.8,18.6-5.2,27.3-4.9c3.6,0.1,7.6,0.3,10.7,2.1
		c-0.6-0.2,1.2,1.7,1.5,2.2c0.6,1.2,1.2,2.5,1.7,3.8c1.1,2.7,2,5.6,2.7,8.6c3.2,12.8,4.1,27.8,5.6,42c1.5,14,3.1,27.9,4.8,41.6
		c7.4,57.5,17.5,112.9,30.2,165.5c12.7,52.6,28.1,102.6,46,149.4c15.2,39.8,32.5,76.9,49.3,114.7c0.8-4.1,1.6-8.2,2.4-12.2
		c-6.8-15.2-13.7-30.5-20.4-45.9c-19.1-44.4-36.2-91.5-50.6-141.6c-14.4-50.3-26.3-103.4-35.6-158.8c-4.6-27.3-8.5-55.1-11.7-83.4
		c-2.9-25.5-2.9-57.8-13.4-75.6c-9.7-16.6-25-25.2-41.9-23.5c-16.1,1.7-34,7.8-50.9,16.3c-16,8.1-33.2,21.6-44.8,45.7
		c-7.3,15.2-11.4,32.3-15.2,48.6c-4.1,17.1-7.7,34.2-10.9,51.3c-13.3,69.4-21.9,138.7-40.6,208.3c-3.7,13.6-7.7,34.1-17.2,42.9
		c-4.9,4.5-10.5,6.4-15.5,7.8c-6.7,1.9-13.2,2.4-19.5,2.3c-37.4-0.7-71-19-102.5-37.3c-23.5-13.6-46.3-28.9-68.6-45.3c0,0,0,0-0.1,0
		c-0.6-0.5-1.2-1-1.9-1.5c-0.1-0.1-1.5-1.3-2.5-1.7C3080.7,550.6,3072,543.9,3063.3,537.1z"/>
	<path class="accentcolor2" d="M3074,374.9c-0.1,1.8-0.2,3.5-0.3,5.3c19.4,24,38.1,49.3,56,75.9c6,8.9,11.9,17.9,17.6,27.1
		c5.9,9.3,11.5,18.9,17.8,27.4c14.2,19.1,31.7,31.4,51.5,38.2c8.8,3,17.7,5.4,26.7,7.6c9.2,2.2,18.6,3.8,28.6,2.8
		c9.5-0.9,19.6-4.3,29.5-11.6c2.2-1.6,4.4-3.7,6.7-5.6c-3,5.2-6.8,8.9-9.5,14.4c-3.1,6.3-4.3,13.4-5.6,20.1
		c-1.3,6.6-2.8,13.1-5.7,19.3c-2.6,5.4-5.9,10-9.4,13.6c-7.9,8.2-16.5,12.2-24.5,14.2c-10,2.5-19.5,2.5-28.6,0.7
		c-9-1.8-17.5-5.3-25.4-10.1c-3.9-2.3-7.6-4.9-11.2-7.6c-1.7-1.3-3.1-2.4-4.9-3.9c-0.8-0.7-1.7-1.4-2.5-2.1
		c-0.5-0.4-0.9-0.8-1.4-1.2c0,0-0.9-0.8-1.2-1.1c0,0,0,0-0.1-0.1c0,0,0,0,0,0l0,0l0,0c0,0,0,0,0,0c-16.2-13.9-31.7-29.1-49.2-40.2
		c-8.5-5.4-17.3-9.9-25.7-15.3c-3.5-2.3-7.4-5-9.9-7.2c0,0,0,0,0,0c0,0,0,0,0,0c0,0,0,0-0.1-0.1c0,0,0,0,0,0
		c-0.2-0.2-0.9-0.8-0.9-0.8c-0.5-0.4-0.9-0.8-1.3-1.2c-0.1-0.1-0.2-0.2-0.2-0.2c0,0,0,0-0.1-0.1c0,0,0,0,0,0c0,0,0,0,0,0
		c0,0,0,0,0,0l0,0c-0.4-0.4-0.9-0.8-1.3-1.3c-1.9-1.8-3-3-4.7-4.8c-6.5-6.9-12.7-14.2-18.9-21.5c-0.1,1.6-0.2,3.1-0.3,4.7
		c13.5,15.6,27.5,30.2,43.5,40.8c8.6,5.7,17.7,10.4,26.5,15.8c4.1,2.6,8.1,5.4,12,8.4c1.2,0.9,3.4,2.7,4.9,4
		c0.9,0.8,1.9,1.6,2.8,2.4c0.7,0.6,1.3,1.1,2.5,2.2c16.5,14.4,32.4,29.9,50.6,40.6c16.5,9.7,35,15.7,55.7,11
		c8-1.9,16.6-5.3,24.6-12.8c8.4-7.9,13.9-18.8,16.7-32.4c1.4-6.9,2.4-14.3,5.3-21c2.7-6.1,6.7-10,9.9-15.3
		c3.1-5.2,4.2-10.9,2.2-14.9c-1.7-3.4-4.3-5.7-6.7-7.8c0,0,0,0-0.1-0.1c0,0-0.1-0.1-0.1-0.1c-0.4-0.3-0.7-0.6-1.1-0.9
		c-0.1,0-0.1-0.1-0.2-0.2c-2.2-2-4.7-3.9-7.4-4.4c-4.4-0.9-9.6,4-14.2,7.8c-5,4.2-10.1,7.4-15.2,9.7c-10.8,4.9-21.1,5.4-30.9,4.4
		c-9.7-1-18.9-3.6-28.1-6.1c-9.1-2.5-18.2-5.3-26.7-9.7c-1.9-1-3.7-2-5.5-3.2c-0.9-0.5-1.7-1.1-2.5-1.7c-0.1-0.1-1.2-1-1.3-1.1
		c0,0,0,0,0,0c0,0,0,0,0,0c0,0,0,0,0,0c0,0-0.1-0.1-0.1-0.1c0,0-0.1-0.1-0.1-0.1c0,0,0,0,0,0c0,0,0-0.1-0.1-0.1c0,0,0,0,0,0
		c0,0,0,0,0,0c-0.2-0.2-0.4-0.3-0.4-0.4c0,0,0,0,0,0c-0.6-0.6-1.2-1.3-1.8-2c-1.7-2-3.4-4.2-5-6.4c-6.4-8.9-12.2-18.9-18.2-28.4
		c-23.9-37.5-49.2-72.6-76-105.2C3078.4,380.2,3076.2,377.6,3074,374.9z M3182.4,525.7C3182.4,525.7,3182.4,525.7,3182.4,525.7
		C3182.4,525.7,3182.4,525.7,3182.4,525.7z M3182.4,525.7C3182.4,525.7,3182.4,525.7,3182.4,525.7
		C3182.4,525.7,3182.4,525.7,3182.4,525.7z"/>
	<path class="accentcolor2" d="M2864,2327.8c-0.6,3.7-1.2,7.4-1.8,11.1c4.2,9.4,8,19.2,11.6,29.4c3.5,9.8,7.1,19.3,11.7,27.6
		c5.8,10.4,13.5,18.2,22,23.7c7.6,5,16.1,5.5,25.9,1.9c10.4-3.8,21.1-11,31.4-13.9c4.2-1.2,8.3-1.7,12.2-1.1c0.3,0,0.7,0.2,1.1,0.3
		c0.3,0.6,0.5,1.3,0.7,1.9c3.6,11.3,2.1,27.5,0.5,42.2c-3.2,28.3-10,57.6-20,85.8c5.3-15.6,4.9-32.7,0.9-43.8
		c-3.2-8.8-8.7-14.7-14.2-19.7c-5.9-5.4-12.4-9.7-19.5-12.1c-12.8-4.3-27.2-3.1-40-7.3c-2-0.7-4.5-1.2-6.5-2.5
		c0-0.1-0.2-0.2-0.4-0.5c-0.6-0.7-1.8-2.4-2.6-3.5c-4.1-6-7.4-13.3-10.4-20.8c-4.5-11.1-8.6-22.7-13-33.9
		c-0.8,5.2-1.7,10.3-2.5,15.5c3.7,9.9,7.6,19.6,12.6,27.8c8.8,14.5,20.9,25.1,34.5,29.4c11.9,3.8,25,3,37,6.4c2.7,0.7,5.2,1.7,7.7,3
		c0.2,0.1,0.8,0.5,1.3,0.9c3.4,4.8,5.6,11.8,6.3,19.7c1.3,15.4-2.8,35.1-13.3,48.3c-11.1,14-24.2,16-35.5,18.7
		c-6.9,1.6-14.3,3.8-20.4,1.7c-0.4-0.5-0.7-1-1.1-1.4c-2-2.9-3.8-6-5.7-9.1c-13.3-22.3-24.8-47.2-35.5-73.2
		c-0.7,4.5-1.5,8.9-2.2,13.4c5,11.3,10.3,22.2,15.9,32.8c7.4,14.1,15,28.6,25,38.5c6.5,6.3,13.4,11.8,22.4,11.3
		c6.9-0.4,14.2-2.5,21.3-4.4c11.6-3.1,25.6-8.7,34.7-27.4c0.8-1.7,1.6-3.5,2.3-5.3c0,0,0,0,0,0c-1.1,3-2.2,6-3.4,9
		c-5.2,13.5-11.3,28.3-19.7,38.4c-9.9,12-20.2,11.6-29.8,12.3c-9.7,0.7-19.4,1-28.5-0.6c-4.5-0.8-8.8-2-12.9-3.9
		c-1.6-0.8-3.2-1.6-4.7-2.6c0,0-0.4-0.3-0.6-0.5c0.1,0,0.1,0,0.2,0.1c-0.1,0-0.2-0.1-0.3-0.2c0,0,0,0,0,0c0,0,0,0,0.1,0.1
		c0,0,0,0,0,0l0,0c0,0,0,0,0-0.1c0,0,0,0,0,0c0,0-0.1-0.1-0.1-0.1c0-0.1-0.1-0.1-0.1-0.1c0,0,0,0,0.1,0.1c-0.2-0.2-0.4-0.4-0.6-0.6
		c-11.8-14.1-19.9-34.9-28.2-54.3c-0.7,4.3-1.4,8.5-2.2,12.8c4,8.7,8.1,17.2,12.9,24.8c12.9,20.4,30.5,33.9,51.2,36.6
		c9.3,1.2,19,0.7,28.7,0c9.5-0.7,19.4-1.5,29-14.1c8.3-11,14.4-26.2,19.6-40.2c6-16,11-32.4,14.9-48.9c4-16.7,6.8-33.5,8.4-49.8
		c1.4-14,2.2-29.2-1.6-39.6c-2.4-6.6-6.7-10.7-10.9-14.5c-4.1-3.6-8.4-6.8-13.5-7.9c-8-1.7-17.2,1.8-26,6.1
		c-11.1,5.4-22.7,12.3-33,11.3c-1.9-0.2-3.7-0.6-5.3-1.3c-0.3-0.1-0.6-0.3-0.9-0.4c-0.3-0.4-0.6-0.8-0.9-1.3
		c-1.3-1.9-2.5-3.9-3.6-6.1c-9.2-17.5-14.8-39.9-23.4-58.3C2870.1,2339.1,2867.1,2333.3,2864,2327.8z M2958.4,2538.9 M2958.4,2538.9
		 M2958.4,2538.9C2958.5,2538.9,2958.5,2538.9,2958.4,2538.9C2958.5,2538.9,2958.5,2538.9,2958.4,2538.9
		C2958.5,2538.9,2958.4,2538.9,2958.4,2538.9z M2944.2,2475.4c-0.1-0.1-0.2-0.2-0.2-0.3c-1.4-1.9,0.2-0.1,0.7,0.4
		C2945.2,2476.1,2944.8,2475.8,2944.2,2475.4z M2881.3,2563.8c0.5,0.6,0.9,1.2,1.2,1.7c-1.1-1.8-4.1-2.9-1.7-1.9
		C2881,2563.7,2881.2,2563.8,2881.3,2563.8z M2880,2451.1c0.1,0.2-0.3-0.2-0.7-0.5C2879.5,2450.7,2879.7,2450.9,2880,2451.1z
		 M2879.3,2450.5c-0.3-0.2-0.5-0.5-0.7-0.8C2878.7,2449.9,2879,2450.2,2879.3,2450.5z"/>
	<path class="accentcolor2" d="M2900,2095c-0.4,2.4-0.7,4.9-1.1,7.3c21.2,6.3,42.3,13.2,63,20.8c3.3,1.2,6.5,2.5,9.6,4.1
		c1.3,0.7,2.6,1.4,3.8,2.2c0,0,0.1,0,0.1,0.1c4,5.6,7.1,12.4,8.5,21.3c2.7,17.1-2.3,38.8-13.6,54.7c-9.9,14-22.4,22-33.3,23.8
		c-6.2,1-11.8-0.2-17-2.8c-1-0.5-2.1-1.2-2.8-1.7c-0.3-0.2-0.5-0.4-0.8-0.5c0,0-0.1-0.1-0.1-0.1c0,0,0,0,0,0l0,0c0,0,0,0,0,0
		c-0.1-0.1-0.3-0.2-0.4-0.3c0,0,0,0,0,0c0,0,0,0,0,0c0,0,0,0-0.1-0.1c-0.1-0.1-0.2-0.2-0.3-0.3c0,0,0,0,0,0c0,0,0,0,0,0
		c-0.2-0.2-0.6-0.6-0.8-0.7c0,0,0-0.1-0.1-0.1c0,0,0,0,0,0c0,0,0,0,0,0c-0.2-0.2-0.4-0.4-0.4-0.4c-0.3-0.3-0.6-0.6-0.9-0.9
		c-1.2-1.3-2.1-2.4-3.3-3.8c-8.2-10-15.7-20.9-23.9-30.7c-0.2,1.6-0.5,3.2-0.7,4.8c3.5,4.6,6.9,9.3,10.4,13.9
		c10.9,14.3,23.3,28.1,38.3,33.7c10.5,3.9,22.8,1.7,35.2-8.1c11.3-8.9,22-24.2,26.1-42.8c5.5-24.7-1.9-43.3-11.5-54.2
		c-6.8-7.7-14.5-13.8-22.8-18.1c-6.6-3.4-13.8-5.5-20.8-7.9C2926.8,2103.8,2913.4,2099.3,2900,2095z"/>
	<path class="accentcolor2" d="M2898.1,2107.6c-0.6,4-1.2,8-1.8,12c11.6-1.1,22.8-0.1,33.3,2.9c4,1.1,7.9,2.5,11.6,4.5c0.5,0.3,1,0.6,1.5,0.9
		c0.7,1,1.4,2,1.9,3.2c4.3,8.4,6.1,21.1,3,34.8c-1.6,7.1-4.4,13-9.2,14c-3.7,0.8-7.3,0.2-10.5-1c-1.5-0.5-2.9-1.3-4.2-2.1
		c-0.2-0.1-0.5-0.3-0.9-0.6c0.1,0-0.5-0.4-0.6-0.5c-0.1-0.1-0.2-0.1-0.2-0.2c0,0-0.1,0-0.1-0.1c-0.7-0.6-1.3-1.2-2-1.8
		c1.3,1.2-0.9-0.9-1.2-1.1c-1.5-1.4-3-2.9-4.5-4.3c-7-6.7-14.2-13.3-22.5-17.1c-0.1,0-0.2-0.1-0.2-0.1c-0.4,2.6-0.8,5.2-1.2,7.8
		c3.6,0.7,7.2,1.5,10.6,2.9c1.7,0.7,3.3,1.5,4.9,2.6c1,0.7,1.6,1.2,2.8,2.3c0.1,0.1,0.3,0.3,0.4,0.4c0.2,0.2,0.5,0.5,0.7,0.7
		c0.7,0.7,1.5,1.4,2.2,2.2c2.1,2.1,4.2,4.1,6.4,6.1c4.2,3.9,8.6,7.6,13.3,10.6c3.8,2.4,7.8,4.3,12.2,4.9c3.6,0.5,9.3,1.2,12.9-5
		c3.5-6.1,4.7-15.2,4.8-21.5c0.2-7.2-0.9-13.9-2.8-19.3c-2.3-6.4-5.8-11.1-9.5-15.2c-4.9-5.3-10.3-9.9-16.1-13.2
		C2922.6,2111.2,2910.6,2108.1,2898.1,2107.6z M2942.7,2127.9C2942.6,2127.9,2942.6,2127.8,2942.7,2127.9c-0.4-0.5-1.1-0.7-0.5-0.7
		c0.4,0,2.7,2.1,1,1C2943,2128.1,2942.9,2128,2942.7,2127.9z M2922.6,2176C2922.6,2176,2922.6,2176,2922.6,2176
		C2922.6,2176,2922.6,2176,2922.6,2176z M2922.6,2176c0.1,0.1,0.1,0.1,0.2,0.2C2922.8,2176.2,2922.8,2176.1,2922.6,2176z
		 M2922.6,2176C2922.6,2176,2922.6,2176,2922.6,2176C2922.5,2176,2922.6,2176,2922.6,2176z M2922.5,2176
		C2922.5,2176,2922.5,2176,2922.5,2176C2922.5,2176,2922.5,2176,2922.5,2176z M2922.5,2176C2922.5,2175.9,2922.5,2175.9,2922.5,2176
		C2922.5,2175.9,2922.5,2175.9,2922.5,2176z M2922,2175.6C2922.2,2175.7,2922.1,2175.7,2922,2175.6
		C2921.8,2175.5,2921.5,2175.2,2922,2175.6z M2909,2167c-0.1-0.1-0.3-0.2-0.4-0.4C2909.3,2167.2,2909.3,2167.2,2909,2167z"/>
	<path class="accentcolor2" d="M3015.2,1142.2c-0.1,1.1-0.2,2.2-0.3,3.3c14.5,13.1,28.9,26.4,42.9,40.4c34.4,34.4,66.6,74.1,90.5,125.9
		c28.3,61.4,43.2,139.6,46.1,225.5c3,87.8-6.6,183.6-28.2,279.4c-5.3,23.5-11.3,47.1-18,70.4c-5.9,20.5-12.6,41.3-21.8,60.2
		c-9.5,19.6-21.6,35.3-35.2,44.5c-14,9.5-27.9,12-40.7,11.3c-21.6-1.3-39.8-12.9-56.4-27.6c-18-16-34.9-34.1-53.7-48.4
		c-4.8-3.7-9.8-7.1-14.9-10.1c-0.2,1.7-0.5,3.5-0.7,5.2c15.2,7,28.7,18.7,41.6,31c18.6,17.6,36.8,36.3,57.8,48.7
		c19.9,11.8,43.5,18.6,69.2,6.9c14.3-6.5,28.2-19.5,39.5-39c10.6-18.3,18.2-39.6,24.6-60.5c29.6-97.4,45.7-199.1,49.2-292.5
		c3.5-94.5-5.9-184.5-30.6-256.3c-20.5-59.9-51.6-105.9-86-144.9C3066.3,1188.9,3040.9,1165.3,3015.2,1142.2z"/>
	<path class="accentcolor2" d="M2916.4,1982.3c-0.2,1.1-0.3,2.3-0.5,3.4c1.1,1.1,2,2,3.1,3.2c3.4,3.6,6.8,7.3,10.2,11.1
		c6.9,7.6,13.7,15.2,20.9,22.3c15,14.8,31.4,28.2,50.4,33.4c8.6,2.4,17.9,2.8,27.6,0.6c10-2.3,20.2-7.3,30.4-12.8
		c10.8-5.7,21.6-12,32.3-15.5c5.2-1.7,10.3-2.8,15.2-2.8c0.7,0,1.5,0,2.2,0.1c2.3,12.5-7.5,32-13.2,44.2c-7,14.8-14.7,28.9-22.4,43
		c-15.8,28.8-30.4,57.9-42.9,89.5c-6.3,16-12.1,32.2-17.5,48.6c-5.2,15.9-9.8,32.2-16.3,47.5c-5.8,13.6-13.5,26.4-22.6,34.1
		c-4.5,3.8-9.2,6.1-13.4,5.9c-1.1,0-2.2-0.2-3.2-0.5c-0.5-0.2-1-0.7-1.5-0.8c-0.3-0.4-0.7-0.8-1-1.2c-15-17.7-29.9-35.6-44.8-53.4
		c-10.6-12.6-21.1-25.3-32.1-37.1c-0.2,1.3-0.4,2.6-0.6,3.9c4.5,5.1,8.9,10.3,13.4,15.5c14.9,17.8,29.8,35.5,44.8,53.3
		c8.1,9.6,15.9,19.8,25.4,26.8c7.3,5.3,15.4,7.3,25.4-0.9c20.6-16.9,29.8-53,39.3-82c10.7-32.7,23.2-64.9,38-95.4
		c14.3-29.6,31.2-56.5,45.2-86.4c6.1-13,15.2-31.6,12.8-44.7c-1.4-7.3-6.4-11.1-10.3-14.5c-3.9-3.3-8-6.2-12.8-7
		c-18.6-2.8-40.9,13.5-60.9,23.3c-10.4,5.1-20.6,8.6-30.4,9c-9.4,0.4-18.2-1.6-26.4-5.4c-4-1.8-7.9-4.1-11.7-6.6
		c-1.5-1-3.2-2.3-4.2-3.1c-0.9-0.7-1.8-1.4-2.6-2.2c0,0,0,0,0,0c0,0,0,0-0.1-0.1c-0.3-0.3-1.6-1.4-1.8-1.6c-0.5-0.4-0.9-0.8-1.4-1.2
		c-0.2-0.2-0.4-0.4-0.5-0.5c0,0,0,0,0-0.1c0,0,0,0,0,0c0,0,0,0,0,0c0,0,0,0,0,0c0,0,0,0,0,0c0,0,0,0,0,0c0,0,0,0,0,0c0,0,0,0,0,0
		c0,0,0,0,0,0c0,0,0,0,0,0c0,0,0,0,0,0c0,0,0,0,0,0c-0.7-0.7-1.5-1.4-2.2-2.2c-1.7-1.7-3-3-4.4-4.4c-3.4-3.6-6.8-7.3-10.2-11
		C2932.5,1999,2924.6,1990.3,2916.4,1982.3z M2955.8,2337.8c-0.2-0.2-0.4-0.4-0.6-0.7C2956,2337.7,2957,2339.1,2955.8,2337.8z"/>
	<path class="accentcolor2" d="M3106.3,2730.8c1.1-0.9,2.2-1.8,3.3-2.8c3.4-3,6.8-6,10-9.2c1.3-45.4,0.2-89.5,2.5-135.3
		c5.2-104.8,32.7-221,84.1-320.2c22.5-43.3,49.1-82.7,78-114.1c7.3-8,14.8-15.4,22.4-22.2c2-1.8,4-3.7,6.1-5.2
		c0.8-0.6,1.6-1.2,2.5-1.7c0.3,1.9,0.5,3.8,0.6,5.8c2,25.8-2.5,55.4-8.9,84.1c-6.5,29.1-15,58.1-22.5,87.1
		c-7.2,27.9-13.8,55.9-19.4,83.8c21.4-67.7,42.5-138.9,63.2-212c1.5-15.2,1.5-30-1.1-41.7c-2.3-10-9.4-15.9-15.7-19.1
		c-6.5-3.3-14.3,4.9-21.4,11.6c-15.1,14.1-29.7,30.5-43.6,48.7c-60.5,79.3-103.3,186.7-123.4,292.4c-10.9,57.5-14.2,112.1-14.8,166
		C3107.8,2661.1,3108.1,2695.5,3106.3,2730.8z"/>
	<path class="accentcolor2" d="M3055.5,648.6c-0.1,1.3-0.2,2.6-0.3,3.9c32,33.3,63.7,67.2,95.1,101.6c16.1,17.7,32.2,35.4,48.1,53.4
		c15.2,17.2,30.1,35.7,38,63.8c14.9,53.1,5.5,126.3,1,191.7c-4.3,63.7-7.2,127.4-2.6,186.2c4.3,55.7,16.1,103.7,37.3,141.5
		c11.1,19.9,23.7,37.9,32.8,60.8c9.9,25,13.4,55.1,10.8,90.2c-2.6,34.6-9.8,70.7-16.6,106.2c-7.9,41.1-15.7,82.3-23.6,123.4
		c-7.9,41.1-15.7,82.3-23.6,123.4c-7.5,39.1-14,78.6-23.6,117.8c-8.4,34.6-20.3,67.2-36.6,98c-15.8,30-33.8,57.1-50.9,85.5
		c-34.4,57.4-60.9,122.1-75.3,190.2c-15.9,75.3-12.3,141.4-6.3,206.6c4.7,51.8,14.2,111.8-8.7,171.3c6.6-2.9,13-6,19.3-9.3
		c5.4-20,7.8-40.2,7.9-59.7c0.5-72-14-134-11.1-207.7c2.6-66.1,19.5-138.2,47.5-203.9c27.7-65,67.7-114.5,97.8-176.8
		c16.7-34.7,27-71.6,34.8-109c8.6-40.9,15.9-81.9,23.7-122.8c15.6-81.5,31.6-163.2,46.7-244.7c6.8-36.4,12.8-73.7,12-107.6
		c-0.7-29.8-7.7-53.8-17.7-74.4c-10-20.7-22.4-38.1-32.7-58.4c-10.4-20.5-18.2-44.4-23.5-70.9c-11-54.8-11.5-118.3-8.8-182.4
		c2.8-66.1,12.6-137,10.1-200.3c-1.2-30.4-6.2-57.7-16.9-78.9c-10.3-20.6-24.1-35.7-37.7-51c-33.5-37.6-67.4-74.6-101.6-111
		C3085.4,679.9,3070.5,664.2,3055.5,648.6z"/>
	<path class="accentcolor2" d="M3054.2,666.7c-0.1,1.3-0.2,2.7-0.3,4c23.1,24.3,45.9,48.9,68.7,73.9c15.7,17.2,31.3,34.4,46.7,51.9
		c14.8,16.7,29.2,34.7,36.9,61.9c14.5,51.6,5.3,122.7,1,186.4c-4.2,61.9-7,123.8-2.6,181c4.2,54.1,15.7,100.9,36.2,137.6
		c10.8,19.3,23,36.8,31.8,59.1c9.6,24.3,13.1,53.6,10.5,87.7c-2.5,33.7-9.5,68.7-16.1,103.2c-1,5.3-2,10.6-3,15.9
		c1.1-59.4-3.2-115.9-11.8-168.5c-9.1-56-24.1-106-36.8-158.3c-12.7-52.2-22.6-107.9-19.4-172.3c3-60.3,15.8-126,10.2-182
		c-5.7-57.2-34.9-84.9-60.8-114.6c-31.5-36.2-63.1-72.3-94.6-108.5c-0.3-0.3-0.6-0.7-0.9-1c-0.1,1.5-0.2,3.1-0.3,4.6
		c21.1,24.2,42.3,48.5,63.4,72.7c15.2,17.4,30.6,34.4,45.5,52.3c13,15.7,25.1,33.5,31.2,59c12.1,50.1,1,116.6-4.1,176.6
		c-5.3,61.6-1,116,9.4,167c10.6,52.2,25.8,99.8,36.9,151.6c11.9,55.6,19,116,19.8,180.4c1.4,118.9-20,251.3-68.8,375.6
		c-23.7,60.3-52.9,114.5-86.4,164.5c-17.1,25.6-34.6,51.3-48.5,81.1c-14,29.8-24.5,62.5-30.5,94.6c-12.8,68.3-1.5,125,0.1,186.1
		c1.2,47.1-5,106-30.5,153.8c-27.8,52.1-66.6,65.2-96.8,57.6c-33-8.3-56.4-41.3-75.6-77.3c-0.5,2.9-1,5.8-1.5,8.8
		c16.4,26.6,35.5,49.4,57.6,65.1c25.1,17.8,58.6,27.4,93,1.3c37.3-28.3,57.9-88.9,64-142.9c7.3-64.4-4.8-117.9-3.9-178.8
		c0.9-63,19.7-131.2,53.4-188.7c16.8-28.6,35.6-53.9,52.9-81.8c16.1-25.9,30.9-53.7,44.2-82.6c8.7-18.8,16.7-37.9,24.1-57.3
		c0,0.2-0.1,0.3-0.1,0.5c-8.2,33.6-19.7,65.3-35.5,95.3c-15.4,29.2-32.9,55.5-49.4,83.2c-33.4,55.8-59.2,118.7-73.2,184.9
		c-15.5,73.2-11.9,137.4-6.2,200.8c5.1,56.4,16.1,122.7-17.9,187.2c-19.5,37.1-45.4,62-70.9,74.3c3-0.5,6.1-1.1,9.1-1.6
		c10.7-1.9,21.5-4.1,32.2-6.6c16.8-15.1,33-35.9,45.2-61c14.7-30.2,20.4-62.2,20.6-92.7c0.5-70-13.6-130.2-10.8-201.8
		c2.5-64.2,18.9-134.4,46.1-198.2c26.9-63.2,65.8-111.3,95-171.9c16.2-33.7,26.2-69.6,33.8-105.9c8.3-39.8,15.4-79.6,23-119.3
		c15.2-79.3,30.7-158.6,45.4-237.8c6.6-35.4,12.5-71.6,11.6-104.6c-0.7-29-7.5-52.3-17.2-72.3c-9.8-20.2-21.8-37-31.8-56.7
		c-10.1-19.9-17.7-43.2-22.9-69c-10.6-53.2-11.2-115-8.5-177.3c2.7-64.2,12.3-133.1,9.8-194.7c-1.2-29.6-6.1-56.1-16.4-76.7
		c-10.1-20-23.5-34.8-36.7-49.6c-32.6-36.6-65.5-72.5-98.7-107.9C3067.5,680.7,3060.8,673.7,3054.2,666.7z"/>
	<path class="accentcolor2" d="M2795.8,2731.1c-0.2,1.4-0.5,2.8-0.7,4.2c23.4,26.2,48.9,49.6,77.1,65.1c2.4,1.3,4.9,2.6,7.4,3.8
		c5.5-0.9,10.9-1.7,16.4-2.6c-36.5-5.2-66.4-33.1-92.9-62.1C2800.7,2736.7,2798.3,2733.9,2795.8,2731.1z"/>
	<path class="accentcolor2" d="M2789.5,2766.6c-0.3,1.9-0.7,3.7-1,5.6c3.9,5,7.8,9.9,11.8,14.7c7.3,8.8,14.9,17.4,22.7,25.6
		c1.3-0.2,2.6-0.4,3.8-0.6c-1.8-1.9-3.5-3.8-5.3-5.7C2810.3,2794,2799.6,2780.7,2789.5,2766.6z"/>
	<path class="accentcolor2" d="M3059.1,596.9c-0.1,1.3-0.2,2.6-0.3,3.9c2.6,2.7,5.2,5.4,7.9,8.1c36.2,37.5,72,75.7,107.4,114.5
		c16.9,18.5,33.7,37.1,50.4,56c16,18.1,31.6,37.5,40,67c15.7,55.7,5.7,132.4,1,201c-4.6,66.8-7.6,133.5-2.7,195.2
		c4.5,58.3,16.9,108.7,39.1,148.3c11.7,20.9,24.9,39.8,34.4,63.8c10.4,26.2,14.1,57.8,11.4,94.6c-2.7,36.3-10.2,74.1-17.4,111.3
		c-8.2,43.1-16.5,86.3-24.7,129.4c-8.2,43.1-16.5,86.3-24.7,129.4c-7.8,41-14.7,82.4-24.8,123.6c-8.8,36.2-21.3,70.4-38.3,102.8
		c-16.6,31.5-35.5,59.9-53.3,89.7c-36,60.2-63.8,128-79,199.4c-16.7,78.9-12.9,148.3-6.7,216.6c2.7,29.5,6.8,61.6,6.2,94.7
		c4.2-2.6,8.3-5.4,12.3-8.4c-1.8-67.1-14.2-127.2-11.4-197.4c2.7-69.3,20.4-144.9,49.8-213.8c29.1-68.2,71-120,102.5-185.4
		c17.5-36.3,28.3-75,36.5-114.2c9-42.9,16.6-85.8,24.8-128.7c16.3-85.5,33.1-171.1,49-256.5c7.1-38.2,13.4-77.3,12.6-112.8
		c-0.8-31.2-8.1-56.4-18.5-78c-10.5-21.7-23.5-39.9-34.3-61.2c-10.9-21.5-19.1-46.6-24.7-74.4c-11.5-57.4-12.1-124.1-9.2-191.2
		c3-69.3,13.3-143.6,10.6-210c-1.3-31.9-6.5-60.5-17.7-82.7c-10.8-21.5-25.2-37.4-39.4-53.3c-35.1-39.5-70.6-78.2-106.5-116.3
		C3100.7,640,3080,618.3,3059.1,596.9z"/>
	<path class="accentcolor2" d="M2781.2,2812.2c-0.4,2.1-0.8,4.2-1.1,6.3c1.6-0.2,3.2-0.4,4.9-0.6C2783.7,2816,2782.5,2814.1,2781.2,2812.2z"
		/>
	<path class="accentcolor2" d="M3468.2,1622.9c5.1-21.7,10.1-43.3,15.1-64.8c0.9-45.6-0.1-90.3-5.7-131.6c-2.9-21.7-7.1-42.4-13-61.2
		c-5.7-18.3-13.2-34-21.3-49.1c-7.6-14.2-15.4-28.6-19.5-47.1c-1-4.6-1.8-9.5-2.3-14.6c-0.4-5.2-1-11.1-0.1-17
		c1.9-12.4,13.9-18.7,20-20.1c3.1-0.8,6-0.6,8.7,0.2c1.2,1.8,2.2,3.8,3.2,5.9c4.5,9.1,8.8,18.5,13.2,27.7
		c8.8,18.6,17.7,37,26.4,55.8c8.4,18.1,16.4,36.7,23.5,56.5c2.3,6.3,4.4,12.8,6.4,19.4c1.2-5.3,2.3-10.7,3.5-16
		c-4.2-11.2-8.6-22-13.3-32.6c-8.5-19.5-17.6-38.2-26.6-57.1c-4.8-10-9.5-20.1-14.3-30.1c-4.3-9.1-8.4-18.9-14.1-26
		c-6.6-8.1-14.9-16.3-25-15.7c-3.6,0.2-7.5,1.6-11.4,3.9c-3.6,2.2-8.3,5.6-10.9,11.1c-2.8,5.7-2.2,12.6-2,17.8
		c0.2,5.1,0.8,10,1.5,14.7c1.7,9.9,4.5,18.8,7.8,26.9c6.9,16.8,15.8,30.6,23.2,46.6c7.9,17.2,14,36.9,18.4,58
		c9.4,44.3,11.8,94.8,11.3,146.3C3470.7,1561,3469.5,1591.9,3468.2,1622.9z M3450.1,1217.5c-0.1-0.1-0.2-0.3-0.3-0.4
		c-0.5-0.7-0.9-1.3-1.4-2c-1.2-1.8,5.7,3.9,3.5,3.1C3451.3,1217.8,3450.7,1217.6,3450.1,1217.5z"/>
	<path class="accentcolor2" d="M2880.8,2507c2.7,3.1,5.2,6.5,7.7,9.9c6.4,8.5,13.2,16.1,21,22c3.2,2.5,7.1,6.1,11.6,4.8
		c3.5-1,6.5-5.7,8.1-11.1c4.8-16.3-3.4-25.5-9.4-31.1c-4-3.8-8.4-6.9-13.2-8.8c-3-1.2-6-0.5-9.5,0.4c-0.1,0-0.3,0.1-0.4,0.1
		c-1.7,1.1-3.2,1.6-4.6,1.7c-0.6-1.5-1.3-3-2-4.3c-5.4-10.3-13.9-16.9-22.3-21.4c-3.3-1.7-6.7-2.9-10.2-4c-2.7-0.9-6.1-2.4-9.4,0.3
		c-3.8,3.1-4,9.2-2.9,12.9c1.8,6.2,6.4,9.8,10,13.1c6.9,6.3,14.8,9.5,22.6,13.4c0.7,0.3,1.3,0.7,1.9,1.1c0.1,0,0.3,0.3,0.5,0.4
		C2880.5,2506.7,2880.8,2507.1,2880.8,2507z M2880.8,2507C2880.8,2507,2880.8,2507,2880.8,2507C2880.8,2507,2880.8,2507,2880.8,2507
		z M2909,2504.5c2.3-0.6,4.8-1.4,6.9-1c0.1,0,0.2,0,0.3,0.1c2.1,5.9,2.8,13.8-1.3,22.2c-2.4,5.1-5.8,7.5-8.8,6.5
		c-0.3-0.1-0.7-0.3-1-0.6c-0.4-0.4-0.9-1-0.7-0.8c-4.5-5.1-8.4-11.1-12.8-16.4c-5.9-7.1-12.4-13.4-19.5-18
		c-4.6-2.9-9.5-5.2-14.4-7.3c-0.6-1.6-0.9-3.5-0.6-5.7c0.7-5.2,4-7.8,6.7-7.9c2.6-0.1,5.1,1,7.5,1.9c2,0.7,4.4,2.2,6.3,3
		c0,0,0,0,0,0c0.9,1.7,1.7,3.7,2.5,5.6c2.2,5.3,4.7,9.5,8.2,12.9C2893.7,2504.4,2900.4,2510,2909,2504.5z M2916.2,2503.6
		c-0.3-1-0.7-1.9-1.2-2.8c0.7,1.5,1.9,2.7,3,3.6C2917.5,2504,2916.9,2503.7,2916.2,2503.6z M2918.1,2504.3c0.1,0,0.2,0.1,0.3,0.1
		C2921.6,2506,2920.1,2505.8,2918.1,2504.3z M2905.2,2531.9C2905.3,2531.9,2905.3,2531.9,2905.2,2531.9
		C2905.3,2531.9,2905.3,2531.9,2905.2,2531.9c-0.9-0.7-0.6-0.5-0.1-0.2c0.1,0.1,0.2,0.3,0.3,0.3
		C2905.4,2532,2905.3,2532,2905.2,2531.9C2905.3,2531.9,2905.3,2531.9,2905.2,2531.9z M2905.3,2531.9 M2905.4,2532
		C2905.4,2532,2905.4,2532.1,2905.4,2532C2905.8,2532.4,2906.1,2532.8,2905.4,2532C2905.5,2532.1,2905.5,2532.1,2905.4,2532z
		 M2857.7,2489.2c0.1,0.3,0.2,0.5,0.3,0.7c0.2,0.6,0.7,1,0.9,1.6c1.2,3.5-2.5-2.9-3.4-3.3
		C2856.2,2488.6,2856.9,2488.9,2857.7,2489.2z M2877.6,2480.5c-0.4-0.7-1.3-1.4-1.5-2.3c0.3,1.1,2.2,2.6,2.9,2.7
		C2878.5,2480.8,2878,2480.7,2877.6,2480.5z M2909,2504.5c-0.1,0-0.2,0.1-0.3,0.1c-1.1,0.3-2.4-1.2-3.2-1.8
		c-1.7-1.2-3.3-2.7-4.9-4.2c-1.1-1.1-2.6-2.4-3.4-3.9c-0.2-0.4-1-1.3-0.2-1.5c0,0,0,0,0,0c0.7-0.1,1.4,0.6,1.8,0.9
		c1.6,1,3.1,2.3,4.6,3.6c1.5,1.3,2.9,2.7,4.2,4.3C2907.3,2501.5,2909.4,2504.2,2909,2504.5C2909,2504.5,2909,2504.5,2909,2504.5z
		 M2891.9,2495c0.4,0.9,0.7,1.8,1.1,2.7c0.5,1.1,0.9,2.2,1.5,3.3c0.3,0.6,0.7,1.1,0.9,1.7c-2.9-2.6-5.7-5.2-8.6-7.8
		c0.1,0,0.1,0.1,0.2,0.1C2888.7,2495,2890.3,2495.2,2891.9,2495z M2879.9,2506.1c-0.9-0.9-0.1-0.2,0.4,0.3c0.4,0.4,0.2,0.2-0.1,0
		C2879.9,2506.1,2879.5,2505.7,2879.9,2506.1z"/>
	<path class="accentcolor2" d="M2905.2,2531.9C2905.2,2531.8,2905.2,2531.8,2905.2,2531.9C2905.2,2531.8,2905.2,2531.8,2905.2,2531.9z"/>
	<path class="accentcolor2" d="M2879.9,2506.1C2879.9,2506.1,2879.9,2506.1,2879.9,2506.1C2879.9,2506.1,2879.9,2506.1,2879.9,2506.1z"/>
	<path class="accentcolor2" d="M2908.3,2038c-0.2,1-0.3,2.1-0.5,3.1c0.4,0.3,0.7,0.6,1,0.8c0.4,0.4,0.9,0.7,1.3,1.1c0,0,0.1,0.1,0.2,0.1
		c0,0,0,0,0,0c0,0,0,0,0,0c0,0,0,0,0.1,0.1c0,0,0,0,0,0l0,0c0,0,0,0,0,0c0,0,0.1,0.1,0.1,0.1c0,0,0,0,0,0c0,0,0,0,0,0c0,0,0,0,0,0
		c0,0,0,0,0,0c0,0,0.1,0.1,0.1,0.1c0,0,0,0,0,0c0,0,0,0,0,0c0,0,0,0,0,0c0.1,0.1,0.1,0.1,0.1,0.1c0.4,0.4,0.8,0.7,1.2,1.1
		c0.8,0.7,1.6,1.5,2.4,2.2c0.3,0.3,0.6,0.5,0.9,0.8c0,0,0,0,0.1,0c0.1,0.1,0.2,0.2,0.3,0.3c0.7,0.6,1.3,1.2,2,1.9
		c1.5,1.4,3,2.9,4.5,4.3c6.4,6.2,12.9,12.4,19.7,17.9c12.5,10.1,26.2,18.8,42.6,17.8c13.6-0.9,28.7-8.1,41.5-5.1
		c0.2,0,0.4,0.1,0.6,0.2c1.8,3.9,2.8,8.9,3.2,14.2c0.9,11.9-0.8,25.6-2.8,38.7c-4.4,27.9-12.9,56.6-24.5,83.1
		c-10.4,23.5-24.6,47.9-41.5,53.1c-8.1,2.5-15.6,0.6-22-3.4c-1.3-0.8-2.5-1.7-3.3-2.3c-0.3-0.3-0.6-0.5-1-0.8c0,0,0,0,0,0
		c0,0,0,0,0,0s0,0,0,0c0,0,0,0,0,0c0,0,0,0-0.1,0c0,0,0,0,0,0c0,0,0,0,0,0c0,0-0.1-0.1-0.1-0.1c-0.3-0.3-0.7-0.6-1-0.9
		c-0.1-0.1-0.2-0.2-0.3-0.3l0,0c0,0,0,0,0,0c0,0,0,0-0.1-0.1c0,0-0.1-0.1-0.2-0.2c-1.5-1.4-2.9-2.9-4.4-4.3c0,0-0.1-0.1-0.1-0.1
		c0,0,0,0,0,0c0,0,0,0,0,0c0,0,0,0,0-0.1c0,0-0.1,0-0.1-0.1c0,0,0,0,0-0.1c0,0,0,0,0,0c0,0,0,0,0,0c-0.6-0.6-1.2-1.3-1.8-1.9
		c-0.9-0.9-1.8-1.8-2.7-2.7c-13.5-13.7-27.5-26.6-41.8-38.8c-0.1-0.1-0.3-0.2-0.4-0.4c-0.2,1.1-0.3,2.1-0.5,3.2
		c4,3.4,7.8,6.7,12.2,10.7c7,6.3,12.4,11.3,19.3,18.1c13.5,13.3,26.7,29.7,43.8,35.7c6.9,2.4,14.7,2.6,22.9-2.1
		c8.1-4.6,15.8-13.5,22.3-24.1c14-22.7,24.7-51.6,31.6-78.5c3.7-14.3,6.5-28.7,8.1-42.7c1.5-12.7,2.3-25.7,0-36.1
		c-2.9-12.6-11.2-19.5-18.7-24.5c-5.6-3.8-12-4.8-19-4.1c-14.7,1.5-29.9,7.7-43.6,4.3c-6.8-1.7-13.1-5.3-18.7-9.5
		c0,0-0.2-0.1-0.3-0.3c0,0,0,0-0.1-0.1c0,0,0,0,0,0c0,0,0,0,0,0c0,0,0,0,0,0c0,0,0,0,0,0c0,0-0.1,0-0.1-0.1c0,0,0,0,0,0
		c-0.2-0.2-0.4-0.4-0.7-0.5c-0.6-0.5-1.2-1-1.8-1.5c0,0,0,0,0,0l0,0c0,0,0,0,0,0c0,0,0,0-0.1-0.1c0,0-0.1-0.1-0.2-0.1c0,0,0,0,0,0
		c-0.4-0.3-1-0.9-1.2-1c-0.9-0.8-1.8-1.6-2.7-2.5c-0.5-0.5-1-0.9-1.5-1.4c0,0,0,0,0,0c0,0,0,0,0,0c0,0,0,0,0,0c0,0,0,0,0,0
		c0,0-0.1-0.1-0.1-0.1c0,0,0,0,0,0c-0.4-0.4-1.3-1.2-1.4-1.4c-1.5-1.4-3-2.9-4.5-4.3C2920.3,2048.6,2914.4,2043.1,2908.3,2038z"/>
</g>
<path class="accentcolor" d="M3813,18.4c2.3-14.2-8.9-21.8-18.8-16.2c-200.7,113.1-455,202.8-729.5,265.2c-7.3,1.7-13.4,6.2-13.8,13.7
	c-51.4,833.8-112.6,1507.1-302.9,2552.9c-1.7,9.2,3.4,17.2,12.6,16c72.3-9.3,139.6-19.4,198.5-29.9
	c180.6-32.3,224.5-115.1,271.4-245.8C3460.4,1932.8,3684.6,798.2,3813,18.4z M3789.3,29.7C3716.6,469,3630.7,922.1,3537,1351.4
	c-74.6,341.7-175.1,755.6-281.5,1082.6c-14.5,44.6-29.7,88.9-45.4,133.1c-6.1,17.3-12.7,34.5-19.7,51.5
	c-6.3,15.2-13.3,30.1-21.1,44.7c-7.5,14-16.2,27.3-26,39.8c-8.7,11-18.4,21.2-29.1,30.3c-44.2,37.8-102.9,55.5-158.9,65.4
	c-61.2,10.7-122.6,20.1-184.1,28.1c41.1-225.5,78.9-451.6,113.4-678.3c32.4-213.3,60.9-427.1,85.4-641.5c24.3-213.8,45-428,62-642.5
	c15.2-192.1,28.6-384.3,40.2-576.7c131-29.8,263.2-67.5,388.6-112.4c61.8-22.1,122.7-46.6,182.5-73.3
	C3692.9,80,3741.6,55.8,3789.3,29.7z"/>
</svg>
