<?xml version="1.0" encoding="utf-8"?>
<!-- Generator: Adobe Illustrator 22.0.1, SVG Export Plug-In . SVG Version: 6.00 Build 0)  -->
<svg version="1.1" id="Layer_1" xmlns="http://www.w3.org/2000/svg" xmlns:xlink="http://www.w3.org/1999/xlink" x="0px" y="0px"
	 viewBox="0 0 9769.1 1925.1" enable-background="new 0 0 9769.1 1925.1" xml:space="preserve">
<path fill-rule="evenodd" clip-rule="evenodd" fill="#BCBDBF" d="M2061.7,1925.1h12.4c2.6,0,4.8-2,5-4.6c0.2-2.4-1.7-4.5-4.1-4.9
	c0,0-13-2.5-14.1-2.7c-116.3-23.8-312.1-93.3-475.4-313.7c-53.7-72.5-228.1-373.3-288.4-621.3c-10-41.2-75.2-202.6,220.7-296.2
	c301-95.2,1185.1-206.1,1736.4-270.9c1052-123.7,2186.6-181.2,2814.1-206.3C6382.1,192,7184.8,160,7262,156.7
	c199.1-8.6,504.5,20.9,698.3,95.1c82.3,31.5,262.3,108.4,409,102.1C8525.2,347.2,9626.2,289,9645,288c15-0.8,28-8.7,33.2-22.8
	c16.3-44.5,46.4-120.5,88.9-228.8c5.5-14-0.2-37.4-22.7-36.3c-106.8,5.2-897.6,50.1-1643,84.4c-377.2,17.4-970.7,48.4-1966.6,88.9
	C5139,213.9,2460.4,319.7,839.3,480.5c-906.6,89.9-887.3,246.1-800,488.4c63.2,175.4,290.4,745.3,488.3,894.2
	c51,38.4,177.5,62.1,356.6,62.1C1223.7,1925.1,1587.1,1925.1,2061.7,1925.1z"/>
<polygon fill-rule="evenodd" clip-rule="evenodd" fill="#A8001F" points="177.2,787.1 216.2,786.6 225.4,765.2 117.5,766.5 
	108.3,787.9 148.6,787.4 118,858.3 146.6,858 "/>
<polygon fill-rule="evenodd" clip-rule="evenodd" fill="#A8001F" points="231.3,835.6 237.9,820.3 305.5,819.5 313.5,800.8 
	245.9,801.7 252.6,786.2 324.6,785.3 333.8,763.9 263.4,764.8 234.4,765.1 233.2,765.2 193.5,857.4 195.4,857.4 223.7,857 
	294.1,856.2 303.3,834.7 "/>
<polygon fill-rule="evenodd" clip-rule="evenodd" fill="#A8001F" points="377.6,827.6 391.7,855 430.1,854.5 404.4,809.5 
	467.8,762.3 430.2,762.8 392.7,791.6 379.7,763.4 342.5,763.8 365.2,810 301.1,856.1 339.6,855.6 "/>
<polygon fill-rule="evenodd" clip-rule="evenodd" fill="#A8001F" points="534.6,782.8 573.6,782.3 582.8,760.9 474.9,762.2 
	465.7,783.6 506,783.1 475.5,854 504.1,853.6 "/>
<polygon fill-rule="evenodd" clip-rule="evenodd" fill="#A8001F" points="721.7,753.5 705.6,753.7 593.7,864.2 609.8,864 "/>
<polygon fill-rule="evenodd" clip-rule="evenodd" fill="#A8001F" points="172.9,970.2 203,900.2 174.4,900.6 134.7,992.8 
	136.3,992.8 165.3,992.5 225.3,991.7 234.9,969.4 "/>
<path fill-rule="evenodd" clip-rule="evenodd" fill="#A8001F" d="M286.3,926.6c0.7-1.7,2-3.1,3.7-4.1s4.1-1.6,7.1-1.6
	c30.6-0.4,48-0.6,52.3-0.6c3.3,0,5.3,0.3,6.2,1.1c0.9,0.8,0.8,2.2-0.1,4.4L344,952.5l-4.6,10.6c-0.6,1.5-1.9,2.7-3.8,3.7
	s-4.3,1.5-7.3,1.5c-30.3,0.4-47.7,0.6-51.9,0.6c-3.3,0-5.3-0.3-6.2-1c-0.8-0.7-0.8-2.1,0-4L286.3,926.6z M242.9,967.8
	c-1.6,3.8-2.6,6.9-2.8,9.5c-0.3,2.6,0.3,4.9,1.8,7c1.3,1.9,2.9,3.4,4.8,4.4c2,1,4.7,1.8,8.3,2.2s8.1,0.7,13.5,0.8
	c5.4,0.1,13.3,0.1,23.8-0.1c10.5-0.1,18.6-0.3,24.1-0.5s10.4-0.6,14.4-1.2c4-0.6,7.5-1.4,10.5-2.5c3-1.1,5.9-2.6,8.8-4.6
	c3.2-2.1,5.9-4.5,7.8-7.1c2-2.6,3.8-5.8,5.4-9.5c3.8-8.9,8.4-19.4,13.6-31.6l5.8-13.4c1.6-3.8,2.5-6.9,2.7-9.3
	c0.2-2.5-0.4-4.7-1.8-6.8c-1.1-2-2.7-3.5-4.7-4.6c-2-1.1-4.7-1.8-8.2-2.2c-3.5-0.4-7.9-0.7-13.1-0.7c-5.2-0.1-13.4,0-24.4,0.1
	c-11.1,0.1-19.2,0.3-24.6,0.5c-5.3,0.2-10,0.5-14,1s-7.4,1.3-10.4,2.5c-3,1.1-5.9,2.7-8.8,4.8c-3.2,2.1-5.8,4.4-7.7,6.9
	c-1.9,2.5-3.7,5.6-5.3,9.3L242.9,967.8z"/>
<path fill-rule="evenodd" clip-rule="evenodd" fill="#A8001F" d="M518.6,896.4c-41.6,0.5-70.1,0.8-85.7,1
	c-10.2,0.1-18.7,2.4-25.5,6.7c-6.8,4.4-12.1,10.7-15.7,19.1c-8.5,19.7-14.6,33.9-18.3,42.5c-1.7,3.9-2.6,7.1-2.9,9.7
	c-0.2,2.5,0.4,4.8,1.8,6.8c1.1,1.9,2.6,3.4,4.5,4.4c1.9,1,4.5,1.8,8,2.2c3.4,0.5,7.8,0.7,13,0.8s12.9,0.1,23,0s17.9-0.3,23.3-0.5
	c5.4-0.2,10.1-0.6,14-1.2c3.9-0.6,7.3-1.4,10.2-2.5c2.9-1.1,5.8-2.6,8.7-4.6c3-2.1,5.5-4.5,7.4-7c1.9-2.6,3.7-5.7,5.3-9.6
	c3.7-8.6,8.2-19.1,13.6-31.6l-59.5,0.7l-7.5,17.4l34.7-0.4l-4.6,10.6c-0.7,1.6-1.9,2.8-3.6,3.8c-1.7,1-4.1,1.5-7.2,1.5
	c-28.9,0.3-45.4,0.5-49.5,0.6c-3.3,0-5.4-0.3-6.3-0.9s-0.8-2.1,0.2-4.3l15.9-36.8c0.6-1.3,1.7-2.5,3.5-3.4c1.7-1,4.1-1.5,7-1.5
	c4,0,31.6-0.4,82.5-1L518.6,896.4z"/>
<path fill-rule="evenodd" clip-rule="evenodd" fill="#A8001F" d="M543,923.5c0.7-1.7,2-3.1,3.7-4.1c1.7-1,4.1-1.6,7.1-1.6
	c30.6-0.4,48-0.6,52.3-0.6c3.3,0,5.3,0.3,6.2,1.1c0.9,0.8,0.8,2.2-0.1,4.4l-11.5,26.8l-4.6,10.6c-0.6,1.5-1.9,2.7-3.8,3.7
	c-1.9,1-4.3,1.5-7.3,1.5c-30.3,0.4-47.7,0.6-51.9,0.6c-3.3,0-5.3-0.3-6.2-1c-0.8-0.7-0.8-2.1,0-4L543,923.5z M499.6,964.7
	c-1.6,3.8-2.6,6.9-2.8,9.5c-0.3,2.6,0.3,4.9,1.8,7c1.3,1.9,2.9,3.4,4.8,4.4c2,1,4.7,1.8,8.3,2.2s8.1,0.7,13.5,0.8
	c5.4,0.1,13.3,0.1,23.8-0.1c10.5-0.1,18.6-0.3,24.1-0.5c5.6-0.2,10.4-0.6,14.4-1.2s7.5-1.4,10.5-2.5c3-1.1,5.9-2.6,8.8-4.6
	c3.2-2.1,5.9-4.5,7.8-7.1s3.8-5.8,5.4-9.5c3.8-8.9,8.4-19.4,13.6-31.6l5.8-13.4c1.6-3.8,2.5-6.9,2.7-9.3c0.2-2.5-0.4-4.7-1.8-6.8
	c-1.1-2-2.7-3.5-4.7-4.6c-2-1.1-4.7-1.8-8.2-2.2c-3.5-0.4-7.9-0.7-13.1-0.7c-5.2-0.1-13.4,0-24.4,0.1c-11.1,0.1-19.2,0.3-24.6,0.5
	s-10,0.5-14,1s-7.4,1.3-10.4,2.5s-5.9,2.7-8.8,4.8c-3.2,2.1-5.8,4.4-7.7,6.9c-1.9,2.5-3.7,5.6-5.3,9.3L499.6,964.7z"/>
<path fill-rule="evenodd" clip-rule="evenodd" fill="#FFBB00" d="M8321.6,218c-3.3,8.7-5.1,13.2-5.2,13.6
	c-3.2,8.5-3.3,14.8-0.1,18.9c3.2,4.1,9.8,5.9,19.9,5.3c15.7-0.8,41.9-2.2,78.5-4.2l8.6-22.6c-46,2.5-71.1,3.8-75.4,4
	c-2.8,0.1-4.6-0.3-5.5-1.2c-0.9-1-1-2.3-0.3-4.1l2.5-7.4l8.5-22.1l3.3-7.7c0.5-1.4,1.7-2.7,3.3-3.7c1.7-1,3.9-1.6,6.6-1.7
	c4.3-0.2,29.4-1.6,75.4-4l8.8-23c-36.6,2-62.8,3.4-78.5,4.2c-10.1,0.5-18.4,3.1-24.9,7.7c-6.5,4.6-11.4,11.2-14.7,19.8
	c-0.1,0.2-1.8,4.7-5.1,13.4L8321.6,218z"/>
<path fill-rule="evenodd" clip-rule="evenodd" fill="#FFBB00" d="M8460.5,157.6l-25.4,66.4c-1.6,4.2-2.5,7.7-2.8,10.6
	c-0.2,2.9,0.4,5.5,1.9,7.9c1.6,2.2,3.2,3.9,4.6,4.9c1.4,1,3.5,1.7,6.4,2.1s7,0.5,12.3,0.4c5.4-0.1,13.6-0.5,24.7-1.1
	c11.2-0.6,19.5-1.1,24.9-1.6c5.4-0.4,9.8-1,13.1-1.7c3.3-0.7,6-1.7,8.1-2.8c2.2-1.2,5-3,8.6-5.6c3.4-2.7,6.2-5.5,8.2-8.5
	c2-3,3.8-6.6,5.4-10.8l25.4-66.4l-28,1.5l-23.9,62.3c-0.7,1.8-2,3.4-4,4.6c-2,1.2-4.6,1.9-8,2.1l-40.4,2.2c-3.2,0.2-5.3-0.3-6.4-1.3
	c-1.1-1.1-1.3-2.5-0.6-4.3l23.9-62.3L8460.5,157.6z"/>
<path fill-rule="evenodd" clip-rule="evenodd" fill="#FFBB00" d="M8675.6,191.9c-1.2-5.7-5.9-8.5-14.2-8.6c-1.6-0.1-3.6-0.1-6-0.1
	s-5.4,0-9,0.1c-3.5,0-9.9,0.1-19.1,0.3c-6.6,0.1-10.7,0.2-12,0.2c-0.5,0-1.2,0.1-2.3,0.1c-1.6,0.1-2.4,0.1-2.4,0.1
	c-3.7,0.2-6.4-0.1-8.2-1c-1.7-0.8-2-2.8-0.9-5.8c0.6-1.7,1.5-3,2.5-4.1s2.2-1.9,3.5-2.5c1.3-0.6,2.6-1,3.9-1.2
	c1.3-0.2,2.7-0.4,4.3-0.5c1.6-0.1,25.1-1.3,70.4-3.8l7.7-20.2c-45.8,2.4-74.4,4-85.6,4.6c-8.4,0.5-15.4,3.2-20.9,8.2
	c-5.5,5-10.1,12.4-13.8,22.1c-3,7.8-3.9,13.7-2.8,17.5c1.7,5.1,6.7,7.7,15.1,7.7c1.6,0.1,3.6,0.1,6,0.1c2.4,0,4.9,0,7.5-0.1
	c2.7,0,9.3-0.1,19.8-0.3c6.7-0.1,10.8-0.2,12.2-0.2c2.4-0.1,4.4-0.2,6-0.1c1.6,0,3.1,0.3,4.5,0.7c1.4,0.4,2.3,1.2,2.8,2.3
	s0.4,2.6-0.3,4.5c-0.6,1.7-1.5,3-2.6,4.1s-2.3,1.9-3.7,2.5c-1.4,0.6-2.7,1-4.2,1.2s-2.9,0.4-4.6,0.5c-1.6,0.1-25.1,1.3-70.4,3.8
	l-7.7,20.2c43.7-2.3,71.2-3.8,82.5-4.4c9.7-0.5,17.6-3.2,23.7-7.9s11.1-12.2,14.9-22.2C8675.2,202.6,8676.2,196.6,8675.6,191.9z"/>
<polygon fill-rule="evenodd" clip-rule="evenodd" fill="#FFBB00" points="8759.6,162.8 8798.4,160.7 8806.7,139.1 8699.3,144.8 
	8691,166.5 8731.1,164.3 8703.6,236.2 8732.1,234.7 "/>
<path fill-rule="evenodd" clip-rule="evenodd" fill="#FFBB00" d="M8829.5,165.1c0.7-1.7,1.8-3.2,3.5-4.3c1.7-1.1,4-1.7,7-1.9
	c30.4-1.6,47.8-2.6,52-2.8c3.3-0.2,5.3,0.1,6.2,0.8c0.9,0.7,0.9,2.2,0.1,4.4l-10.4,27.1l-4.1,10.7c-0.6,1.5-1.8,2.8-3.6,3.9
	c-1.8,1.1-4.2,1.7-7.2,1.8c-30.2,1.6-47.4,2.5-51.7,2.8c-3.3,0.2-5.3-0.1-6.2-0.8c-0.9-0.7-0.9-2-0.2-4L8829.5,165.1z M8787.9,208
	c-1.5,3.8-2.3,7-2.4,9.6s0.5,4.9,2,6.9c1.3,1.9,3,3.3,5,4.2s4.8,1.6,8.4,1.9s8.1,0.4,13.4,0.3c5.4-0.1,13.3-0.5,23.7-1
	s18.5-1.1,24-1.5s10.3-1,14.3-1.8c4-0.7,7.4-1.7,10.3-2.9s5.8-2.9,8.5-4.9c3.1-2.3,5.6-4.7,7.5-7.4c1.9-2.7,3.5-5.9,5-9.7
	c3.5-9,7.5-19.7,12.2-32l5.2-13.6c1.5-3.8,2.2-6.9,2.3-9.4c0.1-2.5-0.6-4.7-2.1-6.7c-1.2-2-2.8-3.4-4.9-4.4c-2-1-4.8-1.6-8.3-1.9
	c-3.5-0.3-7.9-0.3-13.1-0.2c-5.2,0.2-13.3,0.5-24.3,1.1c-11,0.6-19.2,1.1-24.5,1.5c-5.3,0.4-9.9,0.9-13.9,1.6s-7.4,1.6-10.3,2.9
	s-5.8,2.9-8.6,5.1c-3.1,2.3-5.6,4.7-7.4,7.2s-3.4,5.7-4.9,9.5L8787.9,208z"/>
<polygon fill-rule="evenodd" clip-rule="evenodd" fill="#FFBB00" points="9047.4,151.2 9047.8,151.1 9021.8,219.2 9048.2,217.8 
	9084,124.3 9039.6,126.7 8993.2,183 8993.1,182.5 8988.7,129.4 8944.2,131.8 8908.4,225.2 8934.9,223.8 8960.9,155.8 8961.3,155.8 
	8969,222 8988.1,221 "/>
<polygon fill-rule="evenodd" clip-rule="evenodd" fill="#FFBB00" points="9211.5,138.7 9250.3,136.6 9258.6,115 9151.2,120.7 
	9142.9,142.3 9183,140.2 9155.5,212 9184,210.5 "/>
<polygon fill-rule="evenodd" clip-rule="evenodd" fill="#FFBB00" points="9267.4,184.7 9273.3,169.3 9340.5,165.7 9347.8,146.8 
	9280.5,150.4 9286.5,134.7 9358.2,130.8 9366.5,109.2 9296.4,112.9 9267.5,114.5 9266.3,114.5 9230.6,208 9232.5,207.9 
	9260.7,206.4 9330.7,202.7 9339,180.9 "/>
<polygon fill-rule="evenodd" clip-rule="evenodd" fill="#FFBB00" points="9412.7,170.8 9427.8,197.5 9466,195.5 9438.6,151.7 
	9499.8,102.1 9462.4,104.1 9426.3,134.3 9412.1,106.8 9375.1,108.7 9399.6,153.8 9337.7,202.3 9376,200.3 "/>
<polygon fill-rule="evenodd" clip-rule="evenodd" fill="#FFBB00" points="9567.2,119.7 9606,117.6 9614.3,96 9506.9,101.7 
	9498.6,123.3 9538.7,121.2 9511.2,193 9539.7,191.5 "/>
</svg>
