<?xml version="1.0" encoding="utf-8"?>
<!-- Generator: Adobe Illustrator 27.9.1, SVG Export Plug-In . SVG Version: 6.00 Build 0)  -->
<svg class="v" version="1.1" xmlns="http://www.w3.org/2000/svg" xmlns:xlink="http://www.w3.org/1999/xlink" x="0px" y="0px"
	 viewBox="0 0 1656 2578.6" style="enable-background:new 0 0 1656 2578.6;" xml:space="preserve">
     $gradientDefs

     <g>
	<path class="maincolor" d="M959.5,73.7v2497.8c247.5-2.9,348.9-13.6,373.9-14.9c62-3.3,88-42.4,97.8-102.9C1554.2,1695.7,1656,0,1656,0
		S1367.9,62,959.5,73.7z"/>
	<path class="maincolor" d="M696.5,2571.6V73.7C288.1,62,0,0,0,0s101.8,1695.7,224.8,2453.7c9.8,60.6,35.8,99.6,97.8,102.9
		C347.7,2558,449.1,2568.7,696.5,2571.6z"/>
</g>
<text class="textcolor" textLength="2530" lengthAdjust="spacingAndGlyphs" transform="matrix(0 -1.0028 1 0 925.3543 2574.6052)"  style="font-family:'Ford-Bronco-Font-Main-Regular'; font-size:287.5299px;">
	<tspan x="0" y="0">CUSTOM</tspan>
</text>
</svg>
