<?xml version="1.0" encoding="utf-8"?>
<!-- Generator: Adobe Illustrator 27.9.1, SVG Export Plug-In . SVG Version: 6.00 Build 0)  -->
<svg class="v" version="1.1" xmlns="http://www.w3.org/2000/svg" xmlns:xlink="http://www.w3.org/1999/xlink" x="0px" y="0px"
	 viewBox="0 0 1656 2579.5" style="enable-background:new 0 0 1656 2579.5;" xml:space="preserve">
     $gradientDefs

     <path class="maincolor" d="M828,2572.3c344.3,0,476.3-14.1,505.3-15.7c62-3.3,88-42.4,97.8-102.9C1554.2,1695.7,1656,0,1656,0
	s-351.3,75.6-828,75.6S0,0,0,0s101.8,1695.7,224.8,2453.7c9.8,60.6,35.8,99.6,97.8,102.9C351.7,2558.2,483.7,2572.3,828,2572.3z"/>
<path class="accentoutline" d="M976.7,66c-49.5,1.6-99.1,2.4-148.7,2.4c-79.1,0-158.2-2.1-237.2-6.1c-57.8-3-115.5-7-173.2-12.1
	c-53.1-4.7-107.5-10.4-161.9-17.1c-0.6,3.4-0.7,7-0.3,10.6l9.7,83.8c2.1,18.2,17.1,32.1,35.4,32.8l71.9,2.8l33.6,11.4l-72.5,4
	c-20.2,1.1-35,19.2-32.7,39.1l10.5,90.7c2.1,18.5,18.4,32.1,37,31l56.1-3.4l50.1,17.8l-37.3-7.7c-3.9-0.8-7.8-0.9-11.7-0.3
	L328,357.6c-19.7,3-33.5,21.1-31.2,40.9l9.7,83.8c2.1,18.2,17.1,32.1,35.4,32.8l71.9,2.8l15.8,5.3l-55.5,3.1
	c-1.1,0.1-2.2,0.2-3.3,0.3c-18.6,2.9-31.6,20-29.4,38.7l10.5,90.7c2.1,18.5,18.4,32.1,37,31l56.1-3.4l22,7.8l-9.8-2
	c-3.9-0.8-7.8-0.9-11.7-0.3l-77.6,11.9c-19.7,3-33.5,21.1-31.2,40.9l9.7,83.8c2.1,18.2,17.1,32.1,35.4,32.8l71.9,2.8l33.6,11.4
	l-72.5,4c-1.1,0.1-2.2,0.2-3.3,0.3c-18.6,2.9-31.6,20-29.4,38.7l10.5,90.7c2.1,18.5,18.4,32.1,37,31l56.1-3.4l50.1,17.8l-37.3-7.7
	c-3.9-0.8-7.8-0.9-11.7-0.3l-77.6,11.9c-19.7,3-33.5,21.1-31.2,40.9l9.7,83.8c2.1,18.2,17.1,32.1,35.4,32.8l71.9,2.8l24,8.1
	l-63.4,3.5c-20.2,1.1-35,19.2-32.7,39.1l10.5,90.7c2.1,18.5,18.4,32.1,37,31l56.1-3.4l22,7.8l-9.8-2c-3.9-0.8-7.8-0.9-11.7-0.3
	l-77.6,11.9c-19.7,3-33.5,21.1-31.2,40.9l9.7,83.8c2.1,18.2,17.1,32.1,35.4,32.8l71.9,2.8l33.6,11.4l-72.5,4
	c-20.2,1.1-35,19.2-32.7,39.1l10.5,90.7c2.1,18.5,18.4,32.1,37,31l56.1-3.4l50.1,17.8L580,1746c-3.9-0.8-7.8-0.9-11.7-0.3
	l-77.6,11.9c-19.7,3-33.5,21.1-31.2,40.9l9.7,83.8c2.1,18.2,17.1,32.1,35.4,32.8l71.9,2.8l15.8,5.3l-55.5,3.1
	c-1.1,0.1-2.2,0.2-3.3,0.3c-18.6,2.9-31.6,20-29.4,38.7l10.5,90.7c2.1,18.5,18.4,32.1,37,31l56.1-3.4l22,7.8l-9.8-2
	c-3.9-0.8-7.8-0.9-11.7-0.3l-77.6,11.9c-19.7,3-33.5,21.1-31.2,40.9l9.7,83.8c2.1,18.2,17.1,32.1,35.4,32.8l71.9,2.8l33.6,11.4
	l-72.5,4c-20.2,1.1-35,19.2-32.7,39.1l10.5,90.7c2.1,18.5,18.4,32.1,37,31l56.1-3.4l50.1,17.8l-37.3-7.7c-3.9-0.8-7.8-0.9-11.7-0.3
	l-77.6,11.9c-19.7,3-33.5,21.1-31.2,40.9l9.2,78.9c93.5,2.8,190.7,3.8,278.2,3.7c31,0,62-0.1,93-0.4c35.4-0.3,70.7-0.8,106.1-1.4
	c40.9-0.8,81.8-1.9,122.7-3.4c23.6-0.9,47.2-1.9,70.8-3.1c16.1-0.8,31.6-1.7,47-2.7l-8.1-70c-2.1-18.2-17.1-32.1-35.4-32.8
	l-71.9-2.8l-39.3-13.3c-1.9-0.7-3.9-1.1-5.9-1.5c-1.2-2.2-2.6-4.4-4.2-6.3c2.8,0.6,5.7,0.9,8.6,0.8l78.6,0.5
	c21.1,0.1,37.1-18.6,34.7-39.1l-9.3-79.6c-1.9-16.6-15.2-29.5-31.8-30.9l-61.3-8.1l-21.1-7.5l6.3,1.3c3.9,0.8,7.8,0.9,11.7,0.3
	l77.6-11.9c19.7-3,33.5-21.1,31.2-40.9l-9.7-83.8c-2.1-18.2-17.1-32.1-35.4-32.8l-71.9-2.8l-36.8-12.5l75.4,0.4
	c1.8,0,3.5-0.1,5.3-0.4c18.6-2.9,31.6-20,29.4-38.7l-9.3-79.6c-1.9-16.6-15.2-29.5-31.8-30.9l-61.3-8.1l-1.8-0.6l76.8-11.8
	c19.7-3,33.5-21.1,31.2-40.9l-9.7-83.8c-2.1-18.2-17.1-32.1-35.4-32.8l-71.9-2.8l-39.3-13.3c-1.9-0.7-3.9-1.1-5.9-1.5
	c-1.2-2.2-2.6-4.4-4.2-6.3c2.8,0.6,5.7,0.9,8.6,0.8l78.6,0.5c21.1,0.1,37.1-18.6,34.7-39.1l-9.3-79.6c-1.9-16.6-15.2-29.5-31.8-30.9
	l-61.3-8.1l-21.1-7.5l6.3,1.3c3.9,0.8,7.8,0.9,11.7,0.3l77.6-11.9c19.7-3,33.5-21.1,31.2-40.9l-9.7-83.8
	c-2.1-18.2-17.1-32.1-35.4-32.8l-71.9-2.8l-36.8-12.5l75.4,0.4c1.8,0,3.5-0.1,5.3-0.4c18.6-2.9,31.6-20,29.4-38.7l-9.3-79.6
	c-1.9-16.6-15.2-29.5-31.8-30.9l-61.3-8.1l-9.6-3.4c2.2,0.1,4.5,0,6.7-0.3l77.6-11.9c19.7-3,33.5-21.1,31.2-40.9l-9.7-83.8
	c-2.1-18.2-17.1-32.1-35.4-32.8l-71.9-2.8l-39.3-13.3c-1.9-0.7-3.9-1.1-5.9-1.5c-1.2-2.2-2.6-4.4-4.2-6.3c2.8,0.6,5.7,0.9,8.6,0.8
	l78.6,0.5c21.1,0.1,37.1-18.6,34.7-39.1l-9.3-79.6c-1.9-16.6-15.2-29.5-31.8-30.9l-61.3-8.1l-21.1-7.5l6.3,1.3
	c3.9,0.8,7.8,0.9,11.7,0.3l77.6-11.9c19.7-3,33.5-21.1,31.2-40.9l-9.7-83.8c-2.1-18.2-17.1-32.1-35.4-32.8l-71.9-2.8l-36.8-12.5
	l75.4,0.4c1.8,0,3.5-0.1,5.3-0.4c18.6-2.9,31.6-20,29.4-38.7l-9.3-79.6c-1.9-16.6-15.2-29.5-31.8-30.9l-61.3-8.1l-1.8-0.6l76.8-11.8
	c19.7-3,33.5-21.1,31.2-40.9l-9.7-83.8c-2.1-18.2-17.1-32.1-35.4-32.8l-71.9-2.8l-39.3-13.3c-1.9-0.7-3.9-1.1-5.9-1.5
	c-1.2-2.2-2.6-4.4-4.2-6.3c2.8,0.6,5.7,0.9,8.6,0.8l78.6,0.5c21.1,0.1,37.1-18.6,34.7-39.1l-9.3-79.6c-1.9-16.6-15.2-29.5-31.8-30.9
	l-61.3-8.1l-21.1-7.5l6.3,1.3c3.9,0.8,7.8,0.9,11.7,0.3l77.6-11.9c19.7-3,33.5-21.1,31.2-40.9L976.7,66z"/>
<g>
	<path class="accentcolor" d="M672.8,627.5l-41,55.7l-7.4,38.5c-0.4,2.2,1,4.4,3.2,4.9l43,9.8c1.7,0.4,3.3-0.2,4.3-1.6l54.2-72.8
		c1.5-2,0.9-4.9-1.2-6.1l-49.5-29.5C676.5,625.3,674.1,625.8,672.8,627.5z"/>
	<path class="accentcolor" d="M614.5,719.2l7.7-40.1l41.3-56c1.5-2,0.9-4.8-1.2-6.1l-37.2-22.2c-1.7-1-3.8-0.7-5.2,0.7l-35.7,37.2
		l-12.6,77.2c-0.4,2.2,1,4.3,3.2,4.8l34.7,7.9C611.8,723,614.1,721.5,614.5,719.2z"/>
	<path class="accentcolor" d="M729,940.4l41.4-55.4l7.7-38.4c0.4-2.2-1-4.4-3.2-4.9L732,831.5c-1.7-0.4-3.3,0.2-4.3,1.6L673,905.5
		c-1.5,2-1,4.9,1.2,6.1l49.3,29.8C725.3,942.6,727.7,942.1,729,940.4z"/>
	<path class="accentcolor" d="M787.9,849.1l-8,40.1L738.2,945c-1.5,2-0.9,4.8,1.2,6.1l37.1,22.4c1.7,1,3.8,0.8,5.2-0.7l36-36.9l13.1-77.2
		c0.4-2.2-1-4.3-3.2-4.8l-34.6-8.1C790.7,845.3,788.4,846.8,787.9,849.1z"/>
	<path class="accentcolor" d="M415.1,912.1l10.5,90.7c0.1,1,1,1.8,2,1.7l62.8-3.8l87.7,31.2c0.8,0.3,2.4,0,2.5-0.9c0.4-2.7,6.8-47.9,6-77.6
		c-0.3-10.9-6.8-24.3-6.8-24.3l-59.4-19.9c-0.8-0.2-1.6,0.1-2.1,0.7l-20.9,34.5c-0.5,0.8-1.9,0.3-1.9-0.6l0.8-36.1
		c0-1.2-1-2.2-2.2-2l-77.4,4.3C415.7,910.2,414.9,911.1,415.1,912.1z"/>
	<path class="accentcolor" d="M988.4,659.8l-9.3-79.7c-0.1-1-1-1.8-2-1.7l-66-8.7l-87.7-31.2c-0.8-0.3-2.4,0-2.5,0.9
		c-0.4,2.7-6.8,47.9-6,77.6c0.3,10.9,6.8,24.3,6.8,24.3l58.9,15.5c0.8,0.2,1.6-0.1,2.1-0.7l21.4-30c0.5-0.8,1.9-0.3,1.9,0.6
		l-1.2,32.8c0,1.2,1,2.2,2.2,2l79.7,0.5C987.8,661.8,988.5,660.9,988.4,659.8z"/>
	<path class="accentcolor" d="M374.3,561.6l10.5,90.7c0.1,1,1,1.8,2,1.7l62.8-3.8l87.7,31.2c0.8,0.3,2.4,0,2.5-0.9c0.4-2.7,6.8-47.9,6-77.6
		c-0.3-10.9-6.8-24.3-6.8-24.3l-59.4-19.9c-0.8-0.2-1.6,0.1-2.1,0.7l-20.9,34.5c-0.5,0.8-1.9,0.3-1.9-0.6l0.8-36.1
		c0-1.2-1-2.2-2.2-2l-77.4,4.3C374.9,559.6,374.2,560.6,374.3,561.6z"/>
	<path class="accentcolor" d="M1028.9,1007.8l-9.3-79.7c-0.1-1-1-1.8-2-1.7l-66-8.7l-87.7-31.2c-0.8-0.3-2.4,0-2.5,0.9
		c-0.4,2.7-6.8,47.9-6,77.6c0.3,10.9,6.8,24.3,6.8,24.3l58.9,15.5c0.8,0.2,1.6-0.1,2.1-0.7l21.4-30c0.5-0.8,1.9-0.3,1.9,0.6
		l-1.2,32.8c0,1.2,1,2.2,2.2,2l79.7,0.5C1028.3,1009.8,1029,1008.8,1028.9,1007.8z"/>
	<path class="accentcolor" d="M713.5,980.3l-41.4,55.4l-7.7,38.4c-0.4,2.2,1,4.4,3.2,4.9l42.9,10.1c1.7,0.4,3.3-0.2,4.3-1.6l54.7-72.4
		c1.5-2,1-4.9-1.2-6.1L719,979.2C717.2,978.1,714.8,978.6,713.5,980.3z"/>
	<path class="accentcolor" d="M654.6,1071.6l8-40.1l41.7-55.8c1.5-2,0.9-4.8-1.2-6.1L666,947.2c-1.7-1-3.8-0.8-5.2,0.7l-36,36.9l-13.1,77.2
		c-0.4,2.2,1,4.3,3.2,4.8l34.6,8.1C651.8,1075.4,654.1,1073.9,654.6,1071.6z"/>
	<path class="accentcolor" d="M688.4,590.4l41.4-55.4l7.7-38.4c0.4-2.2-1-4.4-3.2-4.9l-42.9-10.1c-1.7-0.4-3.3,0.2-4.3,1.6l-54.7,72.4
		c-1.5,2-1,4.9,1.2,6.1l49.3,29.8C684.7,592.6,687.1,592.2,688.4,590.4z"/>
	<path class="accentcolor" d="M747.3,499.2l-8,40.1L697.6,595c-1.5,2-0.9,4.8,1.2,6.1l37.1,22.4c1.7,1,3.8,0.8,5.2-0.7l36-36.9l13.1-77.2
		c0.4-2.2-1-4.3-3.2-4.8l-34.6-8.1C750,495.4,747.7,496.8,747.3,499.2z"/>
	<path class="accentcolor" d="M369.6,738.2l9.8,83.9c0.2,1.9,1.8,3.4,3.7,3.5l76.8,3l43.9,14.9c2.2,0.7,4.5-0.6,5.1-2.8l22.5-97.8
		c0.5-2.1-0.9-4.3-3-4.7l-77.8-16l-77.6,11.9C370.8,734.2,369.4,736.2,369.6,738.2z"/>
	<path class="accentcolor" d="M1032.1,830.4l-9.8-83.9c-0.2-1.9-1.8-3.4-3.7-3.5l-76.8-3L898,725.2c-2.2-0.7-4.5,0.6-5.1,2.8l-22.5,97.8
		c-0.5,2.1,0.9,4.3,3,4.7l77.8,16l77.6-11.9C1030.9,834.4,1032.4,832.5,1032.1,830.4z"/>
	<path class="accentcolor" d="M550.9,799l76.5,24.1l32,28.7c1.6,1.4,4,1.2,5.4-0.5L688,822c0.7-0.9,1-1.9,0.7-3.1l-9.2-43.8
		c-0.3-1.5-1.5-2.7-3.1-2.9l-114.6-16.5c-1.9-0.3-3.6,0.9-4.1,2.7l-9.3,36C547.9,796.4,549,798.4,550.9,799z"/>
	<path class="accentcolor" d="M653.4,860l-31.2-27.9l-73.5-23.2c-2-0.6-4.2,0.5-4.7,2.6l-12.4,47.7c-0.5,1.7,0.4,3.5,2,4.3l85.8,40.2
		c1.6,0.7,3.4,0.3,4.5-1l29.9-37.6C655,863.5,654.9,861.3,653.4,860z"/>
	<path class="accentcolor" d="M853.8,765.7l-76.5-24.1l-32-28.7c-1.6-1.4-4-1.2-5.4,0.5l-23.3,29.4c-0.7,0.9-1,1.9-0.7,3.1l9.2,43.8
		c0.3,1.5,1.5,2.7,3.1,2.9l114.6,16.5c1.9,0.3,3.6-0.9,4.1-2.7l9.3-36C856.8,768.2,855.7,766.3,853.8,765.7z"/>
	<path class="accentcolor" d="M751.3,704.6l31.2,27.9l73.5,23.2c2,0.6,4.2-0.5,4.7-2.6l12.4-47.7c0.5-1.7-0.4-3.5-2-4.3L785.2,661
		c-1.6-0.7-3.4-0.3-4.5,1l-29.9,37.6C749.7,701.1,749.9,703.3,751.3,704.6z"/>
	<path class="accentcolor" d="M410.9,1093.1l9.8,83.9c0.2,1.9,1.8,3.4,3.7,3.5l76.8,3l43.9,14.9c2.2,0.7,4.5-0.6,5.1-2.8l22.5-97.8
		c0.5-2.1-0.9-4.3-3-4.7l-77.8-16l-77.6,11.9C412.1,1089.1,410.6,1091,410.9,1093.1z"/>
	<path class="accentcolor" d="M1073.5,1186.2l-9.8-83.9c-0.2-1.9-1.8-3.4-3.7-3.5l-76.8-3l-43.9-14.9c-2.2-0.7-4.5,0.6-5.1,2.8l-22.5,97.8
		c-0.5,2.1,0.9,4.3,3,4.7l77.8,16l77.6-11.9C1072.3,1190.2,1073.7,1188.3,1073.5,1186.2z"/>
	<path class="accentcolor" d="M895.8,1126.5l-76.5-24.1l-32-28.7c-1.6-1.4-4-1.2-5.4,0.5l-23.3,29.4c-0.7,0.9-1,1.9-0.7,3.1l9.2,43.8
		c0.3,1.5,1.5,2.7,3.1,2.9l114.6,16.5c1.9,0.3,3.6-0.9,4.1-2.7l9.3-36C898.7,1129,897.6,1127,895.8,1126.5z"/>
	<path class="accentcolor" d="M793.3,1065.4l31.2,27.9l73.5,23.2c2,0.6,4.2-0.5,4.7-2.6l12.4-47.7c0.5-1.7-0.4-3.5-2-4.3l-85.8-40.2
		c-1.6-0.7-3.4-0.3-4.5,1l-29.9,37.6C791.6,1061.9,791.8,1064.1,793.3,1065.4z"/>
	<path class="accentcolor" d="M592.4,1156.5l76.5,24.1l32,28.7c1.6,1.4,4,1.2,5.4-0.5l23.3-29.4c0.7-0.9,1-1.9,0.7-3.1l-9.2-43.8
		c-0.3-1.5-1.5-2.7-3.1-2.9l-114.6-16.5c-1.9-0.3-3.6,0.9-4.1,2.7l-9.3,36C589.5,1153.9,590.6,1155.9,592.4,1156.5z"/>
	<path class="accentcolor" d="M695,1217.5l-31.2-27.9l-73.5-23.2c-2-0.6-4.2,0.5-4.7,2.6l-12.4,47.7c-0.5,1.7,0.4,3.5,2,4.3l85.8,40.2
		c1.6,0.7,3.4,0.3,4.5-1l29.9-37.6C696.6,1221,696.4,1218.8,695,1217.5z"/>
	<path class="accentcolor" d="M647.9,242l41.4-55.4l7.7-38.4c0.4-2.2-1-4.4-3.2-4.9l-42.9-10.1c-1.7-0.4-3.3,0.2-4.3,1.6l-54.7,72.4
		c-1.5,2-1,4.9,1.2,6.1l49.3,29.8C644.2,244.2,646.6,243.7,647.9,242z"/>
	<path class="accentcolor" d="M706.8,150.7l-8,40.1l-41.7,55.8c-1.5,2-0.9,4.8,1.2,6.1l37.1,22.4c1.7,1,3.8,0.8,5.2-0.7l36-36.9l13.1-77.2
		c0.4-2.2-1-4.3-3.2-4.8l-34.6-8.1C709.5,146.9,707.2,148.4,706.8,150.7z"/>
	<path class="accentcolor" d="M333.9,213.8l10.5,90.7c0.1,1,1,1.8,2,1.7l62.8-3.8l87.7,31.2c0.8,0.3,2.4,0,2.5-0.9c0.4-2.7,6.8-47.9,6-77.6
		c-0.3-10.9-6.8-24.3-6.8-24.3l-59.4-19.9c-0.8-0.2-1.6,0.1-2.1,0.7l-20.9,34.5c-0.5,0.8-1.9,0.3-1.9-0.6l0.8-36.1
		c0-1.2-1-2.2-2.2-2l-77.4,4.3C334.5,211.8,333.8,212.7,333.9,213.8z"/>
	<path class="accentcolor" d="M947.7,309.4l-9.3-79.7c-0.1-1-1-1.8-2-1.7l-66-8.7l-87.7-31.2c-0.8-0.3-2.4,0-2.5,0.9
		c-0.4,2.7-6.8,47.9-6,77.6c0.3,10.9,6.8,24.3,6.8,24.3l58.9,15.5c0.8,0.2,1.6-0.1,2.1-0.7l21.4-30c0.5-0.8,1.9-0.3,1.9,0.6
		l-1.2,32.8c0,1.2,1,2.2,2.2,2l79.7,0.5C947.1,311.4,947.8,310.5,947.7,309.4z"/>
	<path class="accentcolor" d="M632.3,281.9l-41.4,55.4l-7.7,38.4c-0.4,2.2,1,4.4,3.2,4.9l42.9,10.1c1.7,0.4,3.3-0.2,4.3-1.6l54.7-72.4
		c1.5-2,1-4.9-1.2-6.1l-49.3-29.8C636,279.7,633.6,280.2,632.3,281.9z"/>
	<path class="accentcolor" d="M573.4,373.2l8-40.1l41.7-55.8c1.5-2,0.9-4.8-1.2-6.1l-37.1-22.4c-1.7-1-3.8-0.8-5.2,0.7l-36,36.9l-13.1,77.2
		c-0.4,2.2,1,4.3,3.2,4.8l34.6,8.1C570.6,377,572.9,375.5,573.4,373.2z"/>
	<path class="accentcolor" d="M446.6,59.9c-57-4.7-109.8-10-157.6-15.6l9.2,79.4c0.2,1.9,1.8,3.4,3.7,3.5l76.8,3l43.9,14.9
		c2.2,0.7,4.5-0.6,5.1-2.8L446.6,59.9z"/>
	<path class="accentcolor" d="M944.2,74.1c-37.8,1-76.6,1.5-116.2,1.5c-9,0-17.9,0-26.8-0.1l-11.9,51.9c-0.5,2.1,0.9,4.3,3,4.7l77.8,16
		l77.6-11.9c2.1-0.3,3.5-2.2,3.3-4.3L944.2,74.1z"/>
	<path class="accentcolor" d="M548.1,67.1c-24.6-1.5-48.7-3.1-72-4.9c-0.5,2-8.8,33.9-8.8,33.9c-0.5,1.9,0.6,3.9,2.5,4.4l76.5,24.1l32,28.7
		c1.6,1.4,4,1.2,5.4-0.5l23.3-29.4c0.7-0.9,1-1.9,0.7-3.1l-9.2-43.8c-0.3-1.5-1.5-2.7-3.1-2.9L548.1,67.1z"/>
	<path class="accentcolor" d="M572.2,161.7l-31.2-27.9l-73.5-23.2c-2-0.6-4.1,0.5-4.7,2.6l-12.4,47.7c-0.5,1.7,0.4,3.5,2,4.3l85.8,40.2
		c1.6,0.7,3.4,0.3,4.5-1l29.9-37.6C573.9,165.2,573.7,163,572.2,161.7z"/>
	<path class="accentcolor" d="M774.2,75.3c-46.1-0.5-91-1.8-134.3-3.5l4.1,19.4c0.3,1.5,1.5,2.7,3.1,2.9l114.6,16.5c1.9,0.3,3.6-0.9,4.1-2.7
		C765.8,107.8,773.4,78.5,774.2,75.3z"/>
	<path class="accentcolor" d="M329.7,394.7l9.8,83.9c0.2,1.9,1.8,3.4,3.7,3.5l76.8,3l43.9,14.9c2.2,0.7,4.5-0.6,5.1-2.8l22.5-97.8
		c0.5-2.1-0.9-4.3-3-4.7l-77.8-16L333,390.4C330.9,390.7,329.4,392.6,329.7,394.7z"/>
	<path class="accentcolor" d="M992.3,487.8l-9.8-83.9c-0.2-1.9-1.8-3.4-3.7-3.5l-76.8-3l-43.9-14.9c-2.2-0.7-4.5,0.6-5.1,2.8l-22.5,97.8
		c-0.5,2.1,0.9,4.3,3,4.7l77.8,16l77.6-11.9C991.1,491.8,992.6,489.9,992.3,487.8z"/>
	<path class="accentcolor" d="M814.6,428.1L738.1,404l-32-28.7c-1.6-1.4-4-1.2-5.4,0.5l-23.3,29.4c-0.7,0.9-1,1.9-0.7,3.1l9.2,43.8
		c0.3,1.5,1.5,2.7,3.1,2.9l114.6,16.5c1.9,0.3,3.6-0.9,4.1-2.7l9.3-36C817.6,430.6,816.5,428.7,814.6,428.1z"/>
	<path class="accentcolor" d="M712.1,367l31.2,27.9l73.5,23.2c2,0.6,4.2-0.5,4.7-2.6l12.4-47.7c0.5-1.7-0.4-3.5-2-4.3L746,323.3
		c-1.6-0.7-3.4-0.3-4.5,1L711.7,362C710.4,363.5,710.6,365.7,712.1,367z"/>
	<path class="accentcolor" d="M511.3,458.1l76.5,24.1l32,28.7c1.6,1.4,4,1.2,5.4-0.5l23.3-29.4c0.7-0.9,1-1.9,0.7-3.1l-9.2-43.8
		c-0.3-1.5-1.5-2.7-3.1-2.9L522.2,415c-1.9-0.3-3.6,0.9-4.1,2.7l-9.3,36C508.3,455.6,509.4,457.5,511.3,458.1z"/>
	<path class="accentcolor" d="M613.8,519.2l-31.2-27.9L509.1,468c-2-0.6-4.1,0.5-4.7,2.6L492,518.4c-0.5,1.7,0.4,3.5,2,4.3l85.8,40.2
		c1.6,0.7,3.4,0.3,4.5-1l29.9-37.6C615.4,522.7,615.2,520.5,613.8,519.2z"/>
	<path class="accentcolor" d="M835.6,2027.5l-41,55.7l-7.4,38.5c-0.4,2.2,1,4.4,3.2,4.9l43,9.8c1.7,0.4,3.3-0.2,4.3-1.6l54.2-72.8
		c1.5-2,0.9-4.9-1.2-6.1l-49.5-29.5C839.2,2025.3,836.9,2025.7,835.6,2027.5z"/>
	<path class="accentcolor" d="M777.3,2119.1l7.7-40.1l41.3-56c1.5-2,0.9-4.8-1.2-6.1l-37.2-22.2c-1.7-1-3.8-0.7-5.2,0.7l-35.7,37.2
		l-12.6,77.2c-0.4,2.2,1,4.3,3.2,4.8l34.7,7.9C774.5,2123,776.8,2121.5,777.3,2119.1z"/>
	<path class="accentcolor" d="M891.8,2340.3l41.4-55.4l7.7-38.4c0.4-2.2-1-4.4-3.2-4.9l-42.9-10.1c-1.7-0.4-3.3,0.2-4.3,1.6l-54.7,72.4
		c-1.5,2-1,4.9,1.2,6.1l49.3,29.8C888.1,2342.5,890.5,2342.1,891.8,2340.3z"/>
	<path class="accentcolor" d="M950.7,2249.1l-8,40.1l-41.7,55.8c-1.5,2-0.9,4.8,1.2,6.1l37.1,22.4c1.7,1,3.8,0.8,5.2-0.7l36-36.9l13.1-77.2
		c0.4-2.2-1-4.3-3.2-4.8l-34.6-8.1C953.4,2245.2,951.1,2246.7,950.7,2249.1z"/>
	<path class="accentcolor" d="M577.8,2312.1l10.5,90.7c0.1,1,1,1.8,2,1.7l62.8-3.8l87.7,31.2c0.8,0.3,2.4,0,2.5-0.9c0.4-2.7,6.8-47.9,6-77.6
		c-0.3-10.9-6.8-24.3-6.8-24.3l-59.4-19.9c-0.8-0.2-1.6,0.1-2.1,0.7l-20.9,34.5c-0.5,0.8-1.9,0.3-1.9-0.6l0.8-36.1
		c0-1.2-1-2.2-2.2-2l-77.4,4.3C578.4,2310.1,577.7,2311.1,577.8,2312.1z"/>
	<path class="accentcolor" d="M1151.1,2059.8l-9.3-79.7c-0.1-1-1-1.8-2-1.7l-66-8.7l-87.7-31.2c-0.8-0.3-2.4,0-2.5,0.9
		c-0.4,2.7-6.8,47.9-6,77.6c0.3,10.9,6.8,24.3,6.8,24.3l58.9,15.5c0.8,0.2,1.6-0.1,2.1-0.7l21.4-30c0.5-0.8,1.9-0.3,1.9,0.6
		l-1.2,32.8c0,1.2,1,2.2,2.2,2l79.7,0.5C1150.5,2061.8,1151.3,2060.8,1151.1,2059.8z"/>
	<path class="accentcolor" d="M537,1961.6l10.5,90.7c0.1,1,1,1.8,2,1.7l62.8-3.8l87.7,31.2c0.8,0.3,2.4,0,2.5-0.9c0.4-2.7,6.8-47.9,6-77.6
		c-0.3-10.9-6.8-24.3-6.8-24.3l-59.4-19.9c-0.8-0.2-1.6,0.1-2.1,0.7l-20.9,34.5c-0.5,0.8-1.9,0.3-1.9-0.6l0.8-36.1
		c0-1.2-1-2.2-2.2-2l-77.4,4.3C537.6,1959.6,536.9,1960.5,537,1961.6z"/>
	<path class="accentcolor" d="M1191.6,2407.8l-9.3-79.7c-0.1-1-1-1.8-2-1.7l-66-8.7l-87.7-31.2c-0.8-0.3-2.4,0-2.5,0.9
		c-0.4,2.7-6.8,47.9-6,77.6c0.3,10.9,6.8,24.3,6.8,24.3l58.9,15.5c0.8,0.2,1.6-0.1,2.1-0.7l21.4-30.1c0.5-0.8,1.9-0.3,1.9,0.6
		l-1.2,32.8c0,1.2,1,2.2,2.2,2l79.7,0.5C1191,2409.7,1191.7,2408.8,1191.6,2407.8z"/>
	<path class="accentcolor" d="M876.2,2380.3l-41.4,55.4l-7.7,38.4c-0.4,2.2,1,4.4,3.2,4.9l42.9,10.1c1.7,0.4,3.3-0.2,4.3-1.6l54.7-72.4
		c1.5-2,1-4.9-1.2-6.1l-49.3-29.8C879.9,2378.1,877.5,2378.5,876.2,2380.3z"/>
	<path class="accentcolor" d="M817.3,2471.5l8-40.1l41.7-55.8c1.5-2,0.9-4.8-1.2-6.1l-37.1-22.4c-1.7-1-3.8-0.8-5.2,0.7l-36,36.9l-13.1,77.2
		c-0.4,2.2,1,4.3,3.2,4.8l34.6,8.1C814.5,2475.3,816.8,2473.9,817.3,2471.5z"/>
	<path class="accentcolor" d="M851.1,1990.4l41.4-55.4l7.7-38.4c0.4-2.2-1-4.4-3.2-4.9l-42.9-10.1c-1.7-0.4-3.3,0.2-4.3,1.6l-54.7,72.4
		c-1.5,2-1,4.9,1.2,6.1l49.3,29.8C847.4,1992.6,849.8,1992.1,851.1,1990.4z"/>
	<path class="accentcolor" d="M910,1899.1l-8,40.1l-41.7,55.8c-1.5,2-0.9,4.8,1.2,6.1l37.1,22.4c1.7,1,3.8,0.8,5.2-0.7l36-36.9l13.1-77.2
		c0.4-2.2-1-4.3-3.2-4.8l-34.6-8.1C912.8,1895.3,910.5,1896.8,910,1899.1z"/>
	<path class="accentcolor" d="M532.3,2138.2l9.8,83.9c0.2,1.9,1.8,3.4,3.7,3.5l76.8,3l43.9,14.9c2.2,0.7,4.5-0.6,5.1-2.8l22.5-97.8
		c0.5-2.1-0.9-4.3-3-4.7l-77.8-16l-77.6,11.9C533.5,2134.2,532.1,2136.1,532.3,2138.2z"/>
	<path class="accentcolor" d="M1194.9,2230.3l-9.8-83.9c-0.2-1.9-1.8-3.4-3.7-3.5l-76.8-3l-43.9-14.9c-2.2-0.7-4.5,0.6-5.1,2.8l-22.5,97.8
		c-0.5,2.1,0.9,4.3,3,4.7l77.8,16l77.6-11.9C1193.7,2234.3,1195.1,2232.4,1194.9,2230.3z"/>
	<path class="accentcolor" d="M713.6,2198.9l76.5,24.1l32,28.7c1.6,1.4,4,1.2,5.4-0.5l23.3-29.4c0.7-0.9,1-1.9,0.7-3.1l-9.2-43.8
		c-0.3-1.5-1.5-2.7-3.1-2.9l-114.6-16.5c-1.9-0.3-3.6,0.9-4.1,2.7l-9.3,36C710.7,2196.4,711.7,2198.3,713.6,2198.9z"/>
	<path class="accentcolor" d="M816.1,2260L785,2232l-73.5-23.2c-2-0.6-4.2,0.5-4.7,2.6l-12.4,47.7c-0.5,1.7,0.4,3.5,2,4.3l85.8,40.2
		c1.6,0.7,3.4,0.3,4.5-1l29.9-37.6C817.8,2263.5,817.6,2261.3,816.1,2260z"/>
	<path class="accentcolor" d="M1016.6,2165.7l-76.5-24.1l-32-28.7c-1.6-1.4-4-1.2-5.4,0.5l-23.3,29.4c-0.7,0.9-1,1.9-0.7,3.1l9.2,43.8
		c0.3,1.5,1.5,2.7,3.1,2.9l114.6,16.5c1.9,0.3,3.6-0.9,4.1-2.7l9.3-36C1019.5,2168.2,1018.4,2166.3,1016.6,2165.7z"/>
	<path class="accentcolor" d="M914,2104.6l31.2,27.9l73.5,23.2c2,0.6,4.1-0.5,4.7-2.6l12.4-47.7c0.5-1.7-0.4-3.5-2-4.3l-85.8-40.2
		c-1.6-0.7-3.4-0.3-4.5,1l-29.9,37.6C912.4,2101.1,912.6,2103.3,914,2104.6z"/>
	<path class="accentcolor" d="M582.5,2569.5c39.7,1,84.8,1.8,135.7,2.3l17.1-74.3c0.5-2.1-0.9-4.3-3-4.7l-77.8-16l-77.6,11.9
		c-2.1,0.3-3.5,2.2-3.3,4.3L582.5,2569.5z"/>
	<path class="accentcolor" d="M1077.3,2569.4c66.1-1.7,117.4-4,156.2-6.1l-7.1-61.1c-0.2-1.9-1.8-3.4-3.7-3.5l-76.8-3l-43.9-14.9
		c-2.2-0.7-4.5,0.6-5.1,2.8L1077.3,2569.4z"/>
	<path class="accentcolor" d="M1058.5,2526.4l-76.5-24.1l-32-28.7c-1.6-1.4-4-1.2-5.4,0.5l-23.3,29.4c-0.7,0.9-1,1.9-0.7,3.1l9.2,43.8
		c0.3,1.5,1.5,2.7,3.1,2.9l114.6,16.5c1.9,0.3,3.6-0.9,4.1-2.7l9.3-36C1061.5,2528.9,1060.4,2527,1058.5,2526.4z"/>
	<path class="accentcolor" d="M956,2465.3l31.2,27.9l73.5,23.2c2,0.6,4.2-0.5,4.7-2.6l12.4-47.7c0.5-1.7-0.4-3.5-2-4.3l-85.8-40.2
		c-1.6-0.7-3.4-0.3-4.5,1l-29.9,37.6C954.3,2461.8,954.5,2464,956,2465.3z"/>
	<path class="accentcolor" d="M805.6,2572.3c7.4,0,14.9,0,22.4,0c22.3,0,43.6-0.1,64.2-0.2l-8.3-39.5c-0.3-1.5-1.5-2.7-3.1-2.9l-114.6-16.5
		c-1.9-0.3-3.6,0.9-4.1,2.7l-9.3,36c-0.5,1.9,0.6,3.9,2.5,4.4L805.6,2572.3z"/>
	<path class="accentcolor" d="M747.5,2572.1c7.9,0.1,15.9,0.1,24,0.1l-18.5-5.8c-2-0.6-4.2,0.5-4.7,2.6L747.5,2572.1z"/>
	<path class="accentcolor" d="M754.4,1329.1l-41,55.7l-7.4,38.5c-0.4,2.2,1,4.4,3.2,4.9l43,9.8c1.7,0.4,3.3-0.2,4.3-1.6l54.2-72.8
		c1.5-2,0.9-4.9-1.2-6.1l-49.5-29.5C758.1,1326.9,755.7,1327.4,754.4,1329.1z"/>
	<path class="accentcolor" d="M696.1,1420.8l7.7-40.1l41.3-56c1.5-2,0.9-4.8-1.2-6.1l-37.2-22.2c-1.7-1-3.8-0.7-5.2,0.7l-35.7,37.2
		l-12.6,77.2c-0.4,2.2,1,4.3,3.2,4.8l34.7,7.9C693.3,1424.6,695.6,1423.1,696.1,1420.8z"/>
	<path class="accentcolor" d="M810.6,1642l41.4-55.4l7.7-38.4c0.4-2.2-1-4.4-3.2-4.9l-42.9-10.1c-1.7-0.4-3.3,0.2-4.3,1.6l-54.7,72.4
		c-1.5,2-1,4.9,1.2,6.1L805,1643C806.9,1644.2,809.3,1643.7,810.6,1642z"/>
	<path class="accentcolor" d="M869.5,1550.7l-8,40.1l-41.7,55.8c-1.5,2-0.9,4.8,1.2,6.1l37.1,22.4c1.7,1,3.8,0.8,5.2-0.7l36-36.9l13.1-77.2
		c0.4-2.2-1-4.3-3.2-4.8l-34.6-8.1C872.3,1546.9,870,1548.4,869.5,1550.7z"/>
	<path class="accentcolor" d="M496.6,1613.7l10.5,90.7c0.1,1,1,1.8,2,1.7l62.8-3.8l87.7,31.2c0.8,0.3,2.4,0,2.5-0.9c0.4-2.7,6.8-47.9,6-77.6
		c-0.3-10.9-6.8-24.3-6.8-24.3l-59.4-19.9c-0.8-0.2-1.6,0.1-2.1,0.7l-20.9,34.5c-0.5,0.8-1.9,0.3-1.9-0.6l0.8-36.1
		c0-1.2-1-2.2-2.2-2l-77.4,4.3C497.2,1611.8,496.5,1612.7,496.6,1613.7z"/>
	<path class="accentcolor" d="M1070,1361.4l-9.3-79.7c-0.1-1-1-1.8-2-1.7l-66-8.7l-87.7-31.2c-0.8-0.3-2.4,0-2.5,0.9
		c-0.4,2.7-6.8,47.9-6,77.6c0.3,10.9,6.8,24.3,6.8,24.3l58.9,15.5c0.8,0.2,1.6-0.1,2.1-0.7l21.4-30c0.5-0.8,1.9-0.3,1.9,0.6
		l-1.2,32.8c0,1.2,1,2.2,2.2,2l79.7,0.5C1069.4,1363.4,1070.1,1362.5,1070,1361.4z"/>
	<path class="accentcolor" d="M455.9,1263.2l10.5,90.7c0.1,1,1,1.8,2,1.7l62.8-3.8l87.7,31.2c0.8,0.3,2.4,0,2.5-0.9c0.4-2.7,6.8-47.9,6-77.6
		c-0.3-10.9-6.8-24.3-6.8-24.3l-59.4-19.9c-0.8-0.2-1.6,0.1-2.1,0.7l-20.9,34.5c-0.5,0.8-1.9,0.3-1.9-0.6l0.8-36.1
		c0-1.2-1-2.2-2.2-2l-77.4,4.3C456.5,1261.2,455.7,1262.2,455.9,1263.2z"/>
	<path class="accentcolor" d="M1110.4,1709.4l-9.3-79.7c-0.1-1-1-1.8-2-1.7l-66-8.7l-87.7-31.2c-0.8-0.3-2.4,0-2.5,0.9
		c-0.4,2.7-6.8,47.9-6,77.6c0.3,10.9,6.8,24.3,6.8,24.3l58.9,15.5c0.8,0.2,1.6-0.1,2.1-0.7l21.4-30c0.5-0.8,1.9-0.3,1.9,0.6
		l-1.2,32.8c0,1.2,1,2.2,2.2,2l79.7,0.5C1109.8,1711.4,1110.5,1710.4,1110.4,1709.4z"/>
	<path class="accentcolor" d="M795,1681.9l-41.4,55.4l-7.7,38.4c-0.4,2.2,1,4.4,3.2,4.9l42.9,10.1c1.7,0.4,3.3-0.2,4.3-1.6l54.7-72.4
		c1.5-2,1-4.9-1.2-6.1l-49.3-29.8C798.7,1679.7,796.3,1680.2,795,1681.9z"/>
	<path class="accentcolor" d="M736.1,1773.2l8-40.1l41.7-55.8c1.5-2,0.9-4.8-1.2-6.1l-37.1-22.4c-1.7-1-3.8-0.8-5.2,0.7l-36,36.9l-13.1,77.2
		c-0.4,2.2,1,4.3,3.2,4.8l34.6,8.1C733.3,1777,735.6,1775.5,736.1,1773.2z"/>
	<path class="accentcolor" d="M769.9,1292l41.4-55.4l7.7-38.4c0.4-2.2-1-4.4-3.2-4.9l-42.9-10.1c-1.7-0.4-3.3,0.2-4.3,1.6l-54.7,72.4
		c-1.5,2-1,4.9,1.2,6.1l49.3,29.8C766.2,1294.2,768.6,1293.8,769.9,1292z"/>
	<path class="accentcolor" d="M828.8,1200.8l-8,40.1l-41.7,55.8c-1.5,2-0.9,4.8,1.2,6.1l37.1,22.4c1.7,1,3.8,0.8,5.2-0.7l36-36.9l13.1-77.2
		c0.4-2.2-1-4.3-3.2-4.8l-34.6-8.1C831.6,1196.9,829.3,1198.4,828.8,1200.8z"/>
	<path class="accentcolor" d="M451.2,1439.8l9.8,83.9c0.2,1.9,1.8,3.4,3.7,3.5l76.8,3l43.9,14.9c2.2,0.7,4.5-0.6,5.1-2.8l22.5-97.8
		c0.5-2.1-0.9-4.3-3-4.7l-77.8-16l-77.6,11.9C452.4,1435.8,450.9,1437.7,451.2,1439.8z"/>
	<path class="accentcolor" d="M1113.7,1532l-9.8-83.9c-0.2-1.9-1.8-3.4-3.7-3.5l-76.8-3l-43.9-14.9c-2.2-0.7-4.5,0.6-5.1,2.8l-22.5,97.8
		c-0.5,2.1,0.9,4.3,3,4.7l77.8,16l77.6-11.9C1112.5,1536,1113.9,1534.1,1113.7,1532z"/>
	<path class="accentcolor" d="M632.4,1500.6l76.5,24.1l32,28.7c1.6,1.4,4,1.2,5.4-0.5l23.3-29.4c0.7-0.9,1-1.9,0.7-3.1l-9.2-43.8
		c-0.3-1.5-1.5-2.7-3.1-2.9l-114.6-16.5c-1.9-0.3-3.6,0.9-4.1,2.7l-9.3,36C629.5,1498,630.6,1500,632.4,1500.6z"/>
	<path class="accentcolor" d="M734.9,1561.6l-31.2-27.9l-73.5-23.2c-2-0.6-4.2,0.5-4.7,2.6l-12.4,47.7c-0.5,1.7,0.4,3.5,2,4.3l85.8,40.2
		c1.6,0.7,3.4,0.3,4.5-1l29.9-37.6C736.6,1565.1,736.4,1562.9,734.9,1561.6z"/>
	<path class="accentcolor" d="M935.4,1467.3l-76.5-24.1l-32-28.7c-1.6-1.4-4-1.2-5.4,0.5l-23.3,29.4c-0.7,0.9-1,1.9-0.7,3.1l9.2,43.8
		c0.3,1.5,1.5,2.7,3.1,2.9l114.6,16.5c1.9,0.3,3.6-0.9,4.1-2.7l9.3-36C938.3,1469.8,937.3,1467.9,935.4,1467.3z"/>
	<path class="accentcolor" d="M832.9,1406.2l31.2,27.9l73.5,23.2c2,0.6,4.2-0.5,4.7-2.6l12.4-47.7c0.5-1.7-0.4-3.5-2-4.3l-85.8-40.2
		c-1.6-0.7-3.4-0.3-4.5,1l-29.9,37.6C831.2,1402.7,831.4,1404.9,832.9,1406.2z"/>
	<path class="accentcolor" d="M492.4,1794.7l9.8,83.9c0.2,1.9,1.8,3.4,3.7,3.5l76.8,3l43.9,14.9c2.2,0.7,4.5-0.6,5.1-2.8l22.5-97.8
		c0.5-2.1-0.9-4.3-3-4.7l-77.8-16l-77.6,11.9C493.6,1790.7,492.2,1792.6,492.4,1794.7z"/>
	<path class="accentcolor" d="M1155,1887.8l-9.8-83.9c-0.2-1.9-1.8-3.4-3.7-3.5l-76.8-3l-43.9-14.9c-2.2-0.7-4.5,0.6-5.1,2.8l-22.5,97.8
		c-0.5,2.1,0.9,4.3,3,4.7l77.8,16l77.6-11.9C1153.8,1891.8,1155.3,1889.9,1155,1887.8z"/>
	<path class="accentcolor" d="M977.3,1828l-76.5-24.1l-32-28.7c-1.6-1.4-4-1.2-5.4,0.5l-23.3,29.4c-0.7,0.9-1,1.9-0.7,3.1l9.2,43.8
		c0.3,1.5,1.5,2.7,3.1,2.9l114.6,16.5c1.9,0.3,3.6-0.9,4.1-2.7l9.3-36C980.3,1830.6,979.2,1828.6,977.3,1828z"/>
	<path class="accentcolor" d="M874.8,1767l31.2,27.9l73.5,23.2c2,0.6,4.2-0.5,4.7-2.6l12.4-47.7c0.5-1.7-0.4-3.5-2-4.3l-85.8-40.2
		c-1.6-0.7-3.4-0.3-4.5,1l-29.9,37.6C873.2,1763.5,873.3,1765.7,874.8,1767z"/>
	<path class="accentcolor" d="M674,1858.1l76.5,24.1l32,28.7c1.6,1.4,4,1.2,5.4-0.5l23.3-29.4c0.7-0.9,1-1.9,0.7-3.1l-9.2-43.8
		c-0.3-1.5-1.5-2.7-3.1-2.9l-114.6-16.5c-1.9-0.3-3.6,0.9-4.1,2.7l-9.3,36C671,1855.5,672.1,1857.5,674,1858.1z"/>
	<path class="accentcolor" d="M776.5,1919.1l-31.2-27.9l-73.5-23.2c-2-0.6-4.2,0.5-4.7,2.6l-12.4,47.7c-0.5,1.7,0.4,3.5,2,4.3l85.8,40.2
		c1.6,0.7,3.4,0.3,4.5-1l29.9-37.6C778.1,1922.6,778,1920.4,776.5,1919.1z"/>
</g>
</svg>
