<?xml version="1.0" encoding="utf-8"?>
<!-- Generator: Adobe Illustrator 27.9.1, SVG Export Plug-In . SVG Version: 6.00 Build 0)  -->
<svg class="v" version="1.1" xmlns="http://www.w3.org/2000/svg" xmlns:xlink="http://www.w3.org/1999/xlink" x="0px" y="0px"
	 viewBox="0 0 1656 2572.3" style="enable-background:new 0 0 1656 2572.3;" xml:space="preserve">
     $gradientDefs

 <path class="maincolor" d="M828,2572.3c344.3,0,476.3-14.1,505.3-15.7c62-3.3,88-42.4,97.8-102.9C1554.2,1695.7,1656,0,1656,0
	s-351.3,75.6-828,75.6S0,0,0,0s101.8,1695.7,224.8,2453.7c9.8,60.6,35.8,99.6,97.8,102.9C351.7,2558.2,483.7,2572.3,828,2572.3z"/>
<path class="accentcolor" d="M932.1,1802.4c-7,20.3-19.1,65.6-42.9,87.6c-26.9,24.7-65.8,30.6-68.9,40.8c-4.5,14.4-17.7,82.8-18.6,87.8
	c-1,5.1,3.7,8.4,4,18.8c0.3,10.4-6.8,18-6.6,23.9c0.2,5.8,2.9,88.4,3.9,96.9c1.5,11.9,11.6,18.7,11.6,35.2
	c0,9.3-11.4,19.2-12.2,25.9c-0.8,6.6,6.5,10.9,6.4,13.5c-0.1,2.5-1.9,17.2-2.9,22.6c-1,5.4-5.1,6.9-26.8,14.3
	c-21.7,7.4-46.7,11-48.6,8.5c-2.4-3.3,3.8-23.8,8.5-35.8c4.7-12,13.7-16.3,17.8-22.3c4.1-6,0.9-13.4,0.4-24.3
	c-0.5-10.9,5.6-25.2,4.5-35c-0.7-6.3-4.2-41.9-7.8-68c-8.1,18.7-24,55.4-25.7,60.6c-2.3,7.1,0,14.9-0.4,20.7
	c-0.4,5.8-5.4,10.5-10.4,15.1c-4.9,4.6-3.8,10-4.1,13.5c-0.3,3.5,3.3,5.8,4.8,8.4c1.5,2.6-0.7,27.8-6.8,29.3
	c-34.9,8.5-68.3,9.1-69.2,7.6c-1.7-2.8,6.2-23.3,12.3-29.6c6-6.3,20.2-18,19.3-31.7c-0.9-13.7,3-22,9.5-26.5
	c6.4-4.5,8.6-18.8,13.7-37.3c5.2-18.5,10.5-55.4,9.7-69.1c-0.7-13.7-1-27.8,1.9-37.7c2.8-9.9,1-22.4,0-31.5
	c-1-9.1-7.8-39.3-11.9-45.5c-3.4-5.1-33.6-40.2-39.4-42.1c-5.8-1.9-19.3-2.2-28.9,1.9c-9.7,4.1-8.8,9-7.7,10.7
	c1,1.7,8.9,10.2,8.9,13.9c0,3.7-3.7,46-2.9,54.3c0.8,8.3,11,24.7,13,28.5c4.6,8.7,3.8,15.5,5.3,22c1.6,6.5,13.4,15.7,15.1,20.3
	c1.6,4.6-12.3,22.9-13.7,21.3c-1.4-1.6-11.9-15.7-14-18.3c-2.1-2.6-0.4-8.3-1.8-9.8c-0.8-0.9-11.4-1.5-13.2-0.1
	c-1.9,1.5-1.5,15.7-0.2,17.6c1.2,1.9,16.6,18.2,17.6,20.1c1,1.9-4.9,7.7-9.9,8.1c-5,0.4-26.3,3.9-33.8,0c-7.4-3.9-5-12.2-9.5-20.9
	c-4.6-8.7-47.4-54.9-54.9-62.5c-7.5-7.7-20.3-17.8-24.4-25c-4.2-7.3-5.7-27.3-7.6-32.5c-1.9-5.2-25.8-14.4-33.6-37.3
	c-7.9-23-4.6-39.5-4.6-39.5c10-1.5,20.2,3.7,24.2,5.8c-2.1-27.7,7.1-72.5,7.7-85.1c1.6-31.7-8.9-67.9-8.9-67.9
	c26.5,7.5,42.2,43.5,42.2,43.5c13.5-28.6,53.2-68.8,62.6-80.9c17.4-22.4,20.2-53.6,20.2-53.6c11.2,9.8,15.2,26.3,14.4,42.8
	c-0.5,9.3,2.2,9.5,5.3,5.5c29.2-37.9,53.8-38.6,53.8-38.6s-10.4,36.2-3,37.6c21.6,3.8,74.1-61,74.1-61c5.4,36.2-10.7,65.3-10.7,65.3
	c43.8-18.1,136-94.4,170.4-117.7c34.5-23.3,58.9-19.9,78.8-22.2c19.9-2.3,118.3-19.9,122.6-50.3c5.2-36-51.4-51.4-51.4-51.4
	c3.3-8.4,12.8-11,12.8-11c-4.3-5.3-28.8-17-50-8.9c-24.9,9.5-33-0.6-33-0.6c10.5-4.8,17.7-9.9,19.7-13.6c1.7-3.1,0-6.2-3-5.9
	c-6.6,0.6-10.6,5.6-17.3,7.2c-19.3,4.7-26.6-3.5-26.6-3.5c32.3-9,34.1-57.4,123.5-41.1c54.1,9.9,81,51.4,81,51.4
	c2.4-6,7.3-10.3,7.3-10.3c19.2,26.1,36.5,57.9,22.4,99.6c-13,38.3-66.2,47.1-104.8,59.3c-7.1,2.3-4.8,7.9-4,10.9
	c0.8,3,18.8,43,25.8,64.5c7.1,21.5,7.2,37-0.1,51.3c-6.3,12.3-43.7,48-43.5,50.7c0.1,2.1,14.7,0.6,30.8,1.6
	c20.4,1.3,77.3-0.6,77.9,8.4c0.4,6.8-3.8,17.4-9.6,27.6c-5.8,10.2-12.7,20.1-19.9,25.8c-15.7,12.3-102.4,69.8-111.7,77.7
	c-9.3,7.9-6.6,15.3-10.6,19.5c-3.9,4.1-11.2,3.3-10.8,7.9c0.4,4.6,18.6,4.4,19.3,11.6c1.9,22.3-3.1,78.9-11.1,76.6
	c-11.6-3.3-22.5-14.8-26.3-26.3c-2.4,8.6-7,22.8-10.2,21c-18.5-10.6-21.6-30.8-24.7-36.8c-3.1-6-8.9-10.3-11.2-17.3
	c-2.3-7,5.3-13.4,7-25.4c2.7-20,6.1-27.7,14.2-35.7c8.1-8,22.7-17.9,38.3-31.6c7-6.1,12.4-13.3,16.2-19.4c0,0-37.9,5.9-41.7,6.4
	c-3.8,0.5-10.7,0.8-14.3-0.2c-3.5-1-19.6-9.9-31.3-21.7C937.7,1809.9,932.1,1802.4,932.1,1802.4z"/>
</svg>
