<?xml version="1.0" encoding="utf-8"?>
<!-- Generator: Adobe Illustrator 27.9.1, SVG Export Plug-In . SVG Version: 6.00 Build 0)  -->
<svg class="v" version="1.1" xmlns="http://www.w3.org/2000/svg" xmlns:xlink="http://www.w3.org/1999/xlink" x="0px" y="0px"
	 viewBox="0 0 1656 2572.3" style="enable-background:new 0 0 1656 2572.3;" xml:space="preserve">
     $gradientDefs

     <path id="maincolor" class="maincolor" d="M828,2572.3c344.3,0,476.3-14.1,505.3-15.7c62-3.3,88-42.4,97.8-102.9
	C1554.2,1695.7,1656,0,1656,0s-351.3,75.6-828,75.6S0,0,0,0s101.8,1695.7,224.8,2453.7c9.8,60.6,35.8,99.6,97.8,102.9
	C351.7,2558.2,483.7,2572.3,828,2572.3z"/>
<g id="accent">
	<path class="accentcolor" d="M1360,2529.8c8.9-3.2,17-8.4,23.5-15.2c14.9-15.9,22.9-42,26.3-64.3c24.1-155.9,44.8-312.3,62.1-469
		c31.5-285,57-560.2,80.5-845.4c30.4-369.5,57.1-739.3,80.3-1109.4c-59.5,11.4-119.4,21-179.5,28.7
		c-424.7,56.1-830.8,55.7-1252.4-0.3C141.4,47.4,82.2,37.9,23.3,26.6c35.5,568,88.3,1264.9,144.1,1800.8
		c10.2,96.8,21,193.5,32.6,290.2c13.5,111.2,28.9,222.2,46.2,332.8c3.3,21.1,9.3,43.2,22.8,60.3c14.5,18.4,34.2,23,55.3,24.4
		c89.3,6.8,178.8,11.2,268.3,13c78.4,1.7,156.9,2.6,235.3,2.6c66.2-0.1,132.4-0.7,198.6-1.8c101.8-1.3,203.5-6,305.1-13.8
		C1341.3,2534.6,1350.8,2532.8,1360,2529.8z M1353.1,2509.3c-7.5,2.3-15.3,3.7-23.1,4.2c-101,7.8-202.3,12.4-303.7,13.8
		c-66.1,1-132.2,1.6-198.3,1.8c-78.3,0-156.6-0.8-234.8-2.6c-89.2-1.9-178.2-6.3-267.2-13c-14.8-1-29.9-3.4-40-16.2
		c-10.8-13.7-15.9-33.5-18.5-50.3c-17.2-110.5-32.5-221.2-46.1-332.1c-11.6-96.5-22.4-193.1-32.6-289.8
		C134,1297.5,81.8,612.3,46.6,52.9C96.9,62,147.4,69.9,198,76.5c423.5,56.2,831.5,56.6,1258,0.3c51.3-6.6,102.4-14.6,153.3-23.8
		c-22.7,360.7-48.9,721.1-78.5,1081.3c-23.1,280-49.5,565.9-80.5,844.8c-17.5,156.5-38.2,312.6-62,468.3
		c-2.7,17.6-9.2,40.4-20.7,52.6C1363.7,2504.1,1358.6,2507.3,1353.1,2509.3z"/>
</g>
	<path id="SVGID_x5F_1_x5F_" class="textpath" d="M1408.6,2309.7c15.5-110.1,29.4-220.5,41.8-331c31-278.8,57.4-564.8,80.5-844.8
		c25.5-310.3,48.5-620.9,68.9-931.6"/>

	<text class="textcolor" text-anchor="middle" style="font-family:'Ford-Bronco-Font-Main-Regular'; font-size:94px;">
		<textPath  xlink:href="#SVGID_x5F_1_x5F_" startOffset="50%">
			<tspan>$textRef</tspan>
		</textPath>
	</text>
	
</svg>
