<?xml version="1.0" encoding="utf-8"?>
<!-- Generator: Adobe Illustrator 27.9.1, SVG Export Plug-In . SVG Version: 6.00 Build 0)  -->
<svg class="v" version="1.1" xmlns="http://www.w3.org/2000/svg" xmlns:xlink="http://www.w3.org/1999/xlink" x="0px" y="0px"
	 viewBox="0 0 1656 2572.3" style="enable-background:new 0 0 1656 2572.3;" xml:space="preserve">
     $gradientDefs

     <path class="maincolor" d="M828,2572.3c344.3,0,476.3-14.1,505.3-15.7c62-3.3,88-42.4,97.8-102.9C1554.2,1695.7,1656,0,1656,0
	s-351.3,75.6-828,75.6S0,0,0,0s101.8,1695.7,224.8,2453.7c9.8,60.6,35.8,99.6,97.8,102.9C351.7,2558.2,483.7,2572.3,828,2572.3z"/>
<g>
	<path class="accentcolor" d="M238.4,38.2c-1.6-0.2-3.2-0.4-4.8-0.6c-1.8,66.3-0.5,131.1-20,194.5c-0.5,1.5-1,2.5-1.4,2.8l-0.7,0.4
		c0,0,0,0,0,0c-0.3,0-0.9-0.2-1.8-0.8c-1.6-1.1-3.6-3.5-5.6-6.3c-3-4.3-6-9.7-8.3-14.1c-1.1-2.2-2.1-4.2-2.8-5.7
		c-0.7-1.5-1.1-2.4-1.3-2.8c-7.8-15-14.7-31.5-23.9-46.2c-7.6-12.2-17.4-26.5-29.2-38.6c-11.8-12.1-25.6-22.1-41.4-25.5
		c-14.3-3-29.2-5.5-44.2-5.5c0,0,0,0,0,0c-15.9,0-31.8,2.8-46.8,10.6c0.1,1.7,0.2,3.5,0.3,5.3c14.7-8.1,30.4-11,46.5-11
		c14.5,0,29.1,2.4,43.2,5.4c14.5,3.1,27.6,12.5,39,24.2c11.4,11.7,21,25.7,28.5,37.8c8.9,14.3,15.8,30.6,23.7,45.9
		c0,0,0.3,0.7,0.8,1.6c1.6,3.3,5.1,10.7,9.2,17.3c2.1,3.3,4.2,6.5,6.5,8.9c1.1,1.2,2.3,2.3,3.5,3c1.2,0.8,2.6,1.4,4.1,1.4
		c0,0,0,0,0.1,0c1.5,0,3.1-0.8,4.1-1.9c1.1-1.2,1.8-2.7,2.4-4.7C238,169.3,236.6,104.2,238.4,38.2z"/>
	<path class="accentcolor" d="M1005.4,2570.9c2.8,0,5.5-0.1,8.2-0.1c-23.9-16.5-47.7-33-71.6-49.6c-9.2-6.4-22.9-14.3-34.2-23.8
		c-5.6-4.8-10.7-9.9-14.2-15.3c-3.6-5.5-5.7-11.2-5.7-17.2c0-35.9,7.3-66.6,15.5-102.1c7.8-33.7,24.5-67.5,36.5-100.5
		c10.8-29.7,13-61.6,17.9-92c1.3-7.9,2.2-19.2,2.2-31.2c0-10.1-0.6-20.7-2.3-30.4c-1.7-9.7-4.3-18.4-8.5-24.8
		c-12.9-19.4-31.3-26.6-50.9-26.6c-0.1,0-0.2,0-0.2,0c-12,0-24.4,2.5-36.8,6.4c-31.6,9.8-62.5,28.5-92,41.9
		c-28.2,12.8-59.7,23.6-86.8,39.6c-33.6,19.8-67.1,39.7-100.7,59.6c-6.4,3.8-14.9,9.6-24.1,14.5c-9.1,4.9-18.8,8.7-27,8.7
		c0,0,0,0-0.1,0c-6.8-0.1-12.6-2.4-17.4-9c-5.9-8.3-8.3-19.1-8.3-30.7c0-20.7,7.5-43.9,14.3-59c5.7-12.9,20.8-24,37.7-33.3
		c16.9-9.3,35.3-16.9,47.6-23.7c53.5-29.8,97.2-96.9,118.3-151.8c10-26.1,14.7-48.6,14.7-74.2c0-8-0.4-16.2-1.3-24.9
		c-1.7-17.5-12.4-29.9-25.7-38.4c-13.3-8.6-29.3-13.7-42.7-17.1c-2.7-0.7-5.9-1-9.4-1c-12.5,0-29.5,3.8-45.2,9.6
		c-15.6,5.8-29.7,13.2-36.5,21.4c-19.9,24.3-36.8,48.8-48,78.9c-13.4,36-26.8,71.9-40.1,107.9c-4.4,12-14.5,19.7-25.4,26.5
		c-4,2.5-7.8,3.4-11.6,3.4c0,0-0.1,0-0.1,0c-9.5,0-19.5-6.6-29.2-13c-27.8-18.5-48.7-54-70.4-80.5c-18.8-22.7-37.6-45.6-63.5-61.8
		c-12.9-8.1-25.8-11.8-38.4-11.8c0,0,0,0,0,0c-19.2,0-37.6,8.5-55.5,21.8c-9.7,7.3-20,19.8-28.1,33.9c-4.4,7.7-8.1,15.8-10.5,23.7
		c0.6,5.1,1.1,10.3,1.7,15.4c1-11.4,6.1-24.7,13-36.8c7.8-13.6,17.9-25.8,26.8-32.4c17.4-13,34.8-20.9,52.6-20.9c0,0,0,0,0,0
		c11.7,0,23.5,3.3,35.9,11c25,15.6,43.5,38,62.3,60.8c21.5,26,42.3,61.9,71.4,81.4c9.7,6.4,20.3,13.7,32,13.8c0,0,0,0,0,0
		c4.6,0,9.4-1.3,14.1-4.2c11-6.9,22.2-15.3,27.3-28.9c13.4-36,26.8-72,40.1-107.9c10.9-29.4,27.5-53.5,47.2-77.6
		c5.5-6.9,19.3-14.5,34.4-20c15.1-5.6,31.8-9.3,43.4-9.3c0,0,0,0,0.1,0c0,0,0,0,0,0c3.2,0,6,0.3,8.2,0.8
		c13.2,3.3,28.8,8.3,41.3,16.4c12.6,8.2,21.9,19.2,23.5,34.9c0.9,8.6,1.3,16.7,1.3,24.4c0,25-4.5,46.7-14.4,72.5
		c-20.8,54.1-64.3,120.6-116.2,149.4c-11.9,6.6-30.4,14.2-47.6,23.7c-17.2,9.5-33.1,20.8-39.8,35.6c-6.9,15.6-14.7,39.1-14.7,61
		c0,12.3,2.5,24.1,9.2,33.5c5.5,7.8,13.2,11,21.1,11c0.1,0,0.1,0,0.2,0c9.7,0,19.9-4.2,29.3-9.2c9.4-5,18.1-10.9,24.3-14.6
		c33.6-19.9,67.1-39.7,100.7-59.6c26.5-15.7,57.8-26.4,86.3-39.4c29.9-13.6,60.6-32.1,91.4-41.7c12-3.7,24.1-6.1,35.4-6.1
		c0,0,0,0,0,0c18.7,0.1,35.1,6.4,47.2,24.5c3.6,5.4,6.2,13.6,7.8,22.9c1.6,9.3,2.2,19.7,2.2,29.6c0,11.8-0.9,22.9-2.1,30.5
		c-5,30.8-7.2,62.4-17.7,91.2c-11.9,32.7-28.7,66.6-36.7,101.1c-8.2,35.4-15.6,66.6-15.6,103.2c0,7.2,2.5,13.9,6.4,19.9
		c5.9,9,15,16.7,24.2,23.4c9.3,6.7,18.8,12.4,25.5,17C961.3,2540.4,983.4,2555.7,1005.4,2570.9z"/>
	<path class="accentcolor" d="M1120.6,2568.1c2.4-0.1,4.7-0.2,7-0.2c19.8-19.7,39.5-38.4,61.1-53c27.2-18.4,57.3-30.4,94.9-30.4c0,0,0,0,0,0
		c26.9,0,52.2,12,75,27c11.7,7.7,23.4,15.5,35.1,23.2c1.2-1.1,2.4-2.2,3.6-3.4c-12-7.9-24.1-15.9-36.1-23.8
		c-23.2-15.3-49.3-27.8-77.7-27.8c0,0,0,0-0.1,0c-38.6,0-69.8,12.5-97.5,31.3C1162.7,2526.8,1141.7,2547.1,1120.6,2568.1z"/>
	<path class="accentcolor" d="M162.2,1980.1c2.2,19.3,4.4,38.5,6.5,57.4c0.1,0.6,0.3,1.2,0.4,1.9c7.6,32.1,23.1,69.5,23,101.7
		c0,12.1-2.2,23.8-7,32.9c0.3,2.5,0.6,5.1,1,7.6c0.5-0.7,1-1.5,1.5-2.3c6.5-10.4,9.3-24.1,9.3-38.1c0-33.6-15.7-71.2-23.1-102.8
		C169.2,2018.5,165.4,1999.6,162.2,1980.1z"/>
	<path class="accentcolor" d="M329.7,48.9c-1.8-0.2-3.6-0.4-5.4-0.6c-2.7,4.1-5.1,8.3-7.1,12.7c-7,14.6-10.9,30.6-14.2,48.4
		c-11.1,59.2-11.6,120.8-19.4,180.2c-8.6,65.4-19.7,130.6-22,196.8c-1.6,46.3-7.6,95.6-7.6,144c0,25.4,1.7,50.6,6.5,75
		c12.5,62.8,64.8,118.2,113.7,156c30.8,23.8,61.5,47.7,92.3,71.5c25.2,19.5,54.8,32.7,82.3,47.7c15.7,8.6,24.7,17.8,30.5,29.2
		c5.8,11.4,8.5,25.1,10.8,42.4c0.3,1.8,0.4,3.7,0.4,5.5c0,12.6-5.6,25.1-13.2,36.8c-7.6,11.7-17.2,22.6-24.8,32
		c-22.4,27.7-48.1,54.2-65.2,86.2c-2.8,5.3-5.5,10-7.5,14.7c-2,4.6-3.4,9.2-3.4,14.1c0,6.1,2.2,12.3,7.3,19.3
		c11,15.1,16.7,25.3,22.6,42.9c1,3.1,1.5,7,1.5,11.3c0,12.8-3.8,28.9-4.6,39.9v0c-1,15.7-1.7,27.1-6.9,41.4
		c-6.1,16.6-13.1,28.3-22.6,37.5c-9.4,9.3-21.4,16.2-37.4,23c-15.8,6.8-29.4,15.1-45.5,15.1c0,0-0.1,0-0.1,0
		c-8.2,0-18.4,1.4-27.9,1.4c0,0,0,0-0.1,0c-0.1,0-0.1,0-0.2,0c-7.5,0-14.5-0.9-19.5-3.8c-25-14.2-44.9-46.7-57.3-73.4
		c-10.9-23.4-17.4-44.3-17.4-67.5c0-8.5,0.9-17.3,2.8-26.7c6.6-33.2,28.6-66.2,43.4-97.5c12.3-26,18.4-54.5,21.2-82.8
		c0.5-5.5,0.8-10.8,0.8-15.9c0-30.3-9.2-55.2-22.6-84.3c-5.4-11.6-15-22-25.6-31.5c-10.6-9.5-22.2-18-31.4-25.6
		c-33.3-27.3-66.5-54.6-99.8-81.8c-11.2-9.2-18.4-20.6-22.9-33.6c-4.5-13-6.2-27.6-6.2-42.7c0-36,9.5-75.2,13-104.8
		c2.3-19.8,3.2-39.6,3.2-59.6c0-47.2-4.9-94.6-7.1-141.3c-0.3-6.2-0.4-12.3-0.4-18.5c0-40.1,5.3-80.6,5.3-121.1
		c0-15-0.7-29.9-2.7-44.8c-3.2-23.6-8.7-58.4-21.3-87.6c-6.3-14.6-14.3-27.8-24.8-37.5c-10.4-9.6-23.5-15.7-39.2-15.7c0,0,0,0-0.1,0
		c-6.6,0-13.6,1-21.2,3.3c-6.9,2-13.9,4.3-20.8,6.8c0.1,1.6,0.2,3.3,0.3,5c7.3-2.7,14.6-5.1,21.9-7.2c7.2-2.1,13.8-3.1,19.8-3.1
		c14.5,0,26.2,5.4,36,14.4c14.7,13.5,24.7,35.2,31.6,58c6.9,22.8,10.6,46.6,12.9,64.1c2,14.7,2.7,29.4,2.7,44.2
		c0,40.1-5.3,80.6-5.3,121.1c0,6.2,0.1,12.5,0.4,18.7c2.2,46.9,7.1,94.2,7,141.1c0,19.8-0.9,39.5-3.2,59
		c-3.4,29.2-13.1,68.6-13.1,105.4c0,15.5,1.7,30.6,6.4,44.3c4.7,13.7,12.4,26,24.3,35.8c33.3,27.3,66.5,54.5,99.8,81.8
		c9.4,7.7,20.9,16.2,31.2,25.5c10.4,9.3,19.6,19.3,24.5,29.9c13.3,28.9,22.2,52.9,22.2,82.3c0,5-0.3,10.1-0.8,15.4
		c-2.7,27.9-8.7,55.9-20.7,81.2c-14.6,30.8-36.9,64-43.8,98.6c-1.9,9.7-2.9,18.8-2.9,27.7c0,24.1,6.8,45.8,17.9,69.5
		c12.7,27.1,32.6,60.2,59.3,75.6c6.3,3.6,14.1,4.4,22.1,4.5c9.9,0,20.2-1.4,27.9-1.4c0,0,0,0,0.1,0c17.9,0,32.1-8.9,47.5-15.5
		c16.2-6.9,28.8-14.1,38.8-24c10.1-9.8,17.5-22.3,23.7-39.3c5.5-14.9,6.2-27.1,7.2-42.7v0c0.7-10.4,4.6-26.6,4.6-40.3
		c0-4.6-0.4-9-1.7-12.8c-6-18-12.1-28.9-23.3-44.2c-4.7-6.5-6.3-11.6-6.3-16.5c0-3.9,1.1-7.8,3-12.1c1.9-4.3,4.5-9,7.4-14.3
		c16.6-31.2,42-57.6,64.7-85.5c7.6-9.3,17.3-20.3,25.1-32.4c7.9-12.1,14-25.4,14-39.4c0-2-0.1-4.1-0.4-6.2
		c-2.3-17.4-5-31.7-11.2-43.9c-6.3-12.3-16.2-22.3-32.5-31.2c-27.7-15.1-57.1-28.2-81.7-47.3c-30.8-23.8-61.5-47.7-92.3-71.5
		c-48.4-37.5-99.9-92.4-111.9-153.2c-4.8-24-6.4-48.9-6.4-74.1c0-48,6-97.2,7.6-143.9c2.3-65.8,13.4-130.8,22-196.3
		c7.9-59.8,8.4-121.3,19.4-180c3.3-17.7,7.2-33.3,13.9-47.2C323.8,58.2,326.5,53.5,329.7,48.9z"/>
	<path class="accentcolor" d="M261.7,1943.1C261.7,1943.1,261.7,1943.1,261.7,1943.1C261.6,1943.1,261.6,1943.1,261.7,1943.1
		c-7.1,0-13.2,1.7-18.1,4.8c-7.4,4.7-12.3,12.5-15.2,21.9c-3,9.4-4.1,20.6-4.1,32.7c0,43.8,15.6,98.9,20.5,116.4
		c9.1,32.8,22.7,64.7,33.9,96.6c3,8.7,8.6,15.2,15.6,20c10.4,7.2,23.9,10.7,37.3,12.7c13.4,2,26.7,2.4,36.9,3.1l1.1,0
		c4,0,7.5-1.3,10.7-2.9c3.2-1.6,6.1-3.4,9-4.9c16.1-4.6,27.2-15.6,34.1-29.6c6.9-14.1,9.8-31.4,9.8-49.1c0-34-10.5-69.8-24.5-89.2
		c-21.2-29.1-41.9-56.2-66.2-82.8c-11.3-12.3-22.2-24.7-35-34C294.6,1949.4,279.9,1943.1,261.7,1943.1z M387.2,2239.2
		c-3.2,1.6-6.1,3.5-9.1,4.9c-2.9,1.4-5.8,2.4-8.6,2.4c0,0,0,0,0,0l-0.8,0c-13.8-0.9-32.7-1.3-49.4-5.5c-8.3-2.1-16.1-5.1-22.4-9.4
		c-6.3-4.4-11.1-10-13.8-17.6c-11.2-32-24.8-63.9-33.8-96.3c-4.8-17.4-20.3-72.3-20.3-115.1c0-15.6,2.1-29.5,7.2-39.2
		c2.6-4.9,5.8-8.7,9.9-11.3c4.1-2.6,9.2-4.1,15.5-4.1c17.1,0,30.6,5.8,42.8,14.7c12.2,8.9,23,21,34.3,33.4
		c24.2,26.4,44.7,53.3,65.9,82.3c13.2,18.1,23.7,53.4,23.6,86.4c0,17.2-2.8,33.8-9.3,47c-6.5,13.2-16.5,23-31.3,27.2
		C387.5,2239,387.3,2239.1,387.2,2239.2z"/>
	<path class="accentcolor" d="M1440.3,2395.4c0.3-2.3,0.7-4.6,1-6.9c-0.3-0.4-0.5-0.8-0.8-1.2c-7.4-11.1-13.8-22.2-18.7-29.7
		c-7.4-11.3-16.4-27.3-27.1-41.9c-10.7-14.5-23.3-27.6-38.3-32.6c-36.2-12.1-68.7-11.2-106.5-12.2c-33-0.9-64.2-9.4-97-16.5
		c-12.9-2.8-25-5.6-37.5-9.7c-4.5-1.5-7.7-3.6-9.9-6.1c-3.4-3.7-5-8.5-5.9-14.3c-0.9-5.8-0.9-12.3-1.3-19.1
		c-0.1-1.7-0.2-3.4-0.2-5.1c0-15.7,4.9-29.6,13-42.1c12.2-18.8,31.7-34.6,52.6-48.3c20.9-13.7,43-25.4,60.4-36.2
		c31.5-19.8,50.7-61.1,50.8-100.1c0-26.6-9.1-52.3-29.9-69c-48.5-38.8-111.6-72.6-171.3-90.2c-17.9-5.3-34.2-8.2-50.5-8.2
		c0,0,0,0,0,0c-17,0-34,3.2-52.7,10c-12.1,4.4-24.4,14.5-36.9,23.4c-12.5,8.9-25.2,16.4-37.4,16.4c0,0-0.1,0-0.1,0
		c-2.4,0-4.7-0.3-7.1-0.9c-6.1-1.5-11.6-6-16.6-12.4c-7.5-9.6-13.5-23.5-18.4-36.9c-4.9-13.4-8.7-26.3-12-34.4
		c-11.5-27.9-25.2-53.6-50.8-72c-27.1-19.6-55.4-38.7-91.8-38.7c-13.6,0-27.2-0.4-40.7-0.4c-19.8,0-39.7,0.9-59.4,5.7
		c-30.7,7.3-60.4,17.7-84.6,39.9c-3.6,3.3-8.8,9-15,15.7c-9.3,10.1-20.9,22.4-32.3,32.2c-5.7,4.9-11.4,9.1-16.7,12.1
		c-5.3,3-10.1,4.6-14.1,4.6c0,0,0,0-0.1,0c-0.9,0-1.7-0.1-2.6-0.2c-16.1-3.2-27.1-11.9-37.2-22.7c-10.1-10.8-19.1-23.7-31.1-34.6
		c-21.5-19.5-45.7-41.2-76.2-47.5c-40.6-8.3-81.2-16.5-121.9-24.8c-13.3-2.7-25.1-4.4-36.6-4.4c0,0,0,0-0.1,0c-1.4,0-2.9,0-4.3,0.1
		c0.2,1.6,0.3,3.2,0.5,4.8c1.3,0,2.6-0.1,3.9-0.1c11,0,22.5,1.6,35.6,4.3c40.6,8.3,81.3,16.5,121.9,24.8c28.8,5.8,52.5,26.8,74,46.3
		c11.5,10.4,20.4,23.2,30.8,34.3c10.4,11.1,22.3,20.7,39.8,24.2c1.1,0.2,2.3,0.3,3.5,0.3c7,0,14.5-3.6,22.2-8.8
		c11.6-7.9,23.8-19.8,34.4-31c10.6-11.1,19.7-21.6,24.7-26.1c23.3-21.4,52.1-31.6,82.4-38.8c19.2-4.6,38.6-5.5,58.3-5.5c0,0,0,0,0,0
		c13.4,0,27,0.4,40.7,0.4c0,0,0,0,0,0c34.6,0,61.9,18.3,89,37.8c24.4,17.6,37.7,42.3,49.1,70c4.2,10.2,9.6,29.9,17.3,47.9
		c3.9,9,8.4,17.6,13.7,24.5c5.4,6.9,11.7,12.2,19.2,14.1c2.8,0.7,5.5,1,8.3,1c14.2,0,27.5-8.3,40.3-17.2c12.7-9,24.9-18.9,35.8-22.8
		c18.3-6.6,34.6-9.7,51.1-9.7c15.7,0,31.5,2.8,49.2,8c59,17.3,121.7,50.9,169.7,89.3c19.4,15.5,28.1,39.6,28.1,65.2
		c0,37.4-18.8,77.5-48.5,96c-22.8,14.3-54.7,30.3-81,50.9c-13.1,10.3-24.9,21.9-33.4,35c-8.5,13.2-13.8,28-13.8,44.7
		c0,1.8,0.1,3.6,0.2,5.5c0.6,8.8,0.4,17.7,2.7,25.6c1.1,3.9,2.9,7.6,5.8,10.8c2.9,3.1,6.8,5.7,12,7.4c12.7,4.2,25,7.1,38,9.9
		c32.6,7,64.1,15.7,97.9,16.6c37.9,1,69.8,0.2,105.1,12c13.4,4.4,25.5,16.7,36,30.9c10.5,14.2,19.4,30.1,27,41.6
		C1423.4,2368.8,1431.1,2382.5,1440.3,2395.4z"/>
	<path class="accentcolor" d="M283.7,43.8c-1.6-0.2-3.2-0.4-4.8-0.6c-7.7,25.2-8.4,51.1-9.7,77.3c-3.1,64.4-6.9,128-18.6,191.2
		C237,385.5,225.7,458,217,532.5c-1.1,10-1.9,29.3-4.8,46.7c-1.4,8.7-3.4,16.9-6,23c-1.3,3.1-2.8,5.6-4.4,7.4
		c-1.6,1.8-3.3,2.9-5,3.4v0c-0.1,0-0.5-0.3-1-1c-0.9-1.2-2-3.5-3.1-6.5c-3.7-10.4-7-29.2-9.3-46.1c-2.4-17-3.9-32.2-4.3-36
		c-7-65.6-3.4-131.9-8.2-198.1c-2.4-32-6-65.1-15.5-95.9c-9.5-30.8-24.8-59.3-50.4-81.7c-12.6-11-27.4-15.5-42.8-15.5
		c0,0-0.1,0-0.1,0c-17.2,0-35.3,5.4-53,13c0.1,1.7,0.2,3.4,0.3,5.1c17.8-7.9,35.9-13.3,52.6-13.3c0,0,0,0,0.1,0
		c14.6,0,28.1,4.1,39.8,14.3c24.8,21.7,39.7,49.3,49,79.5c9.3,30.2,12.9,63,15.3,94.8c4.8,65.8,1.2,132.2,8.2,198.2
		c0.5,4.8,2.8,27.8,6.4,49.6c1.8,10.9,3.9,21.6,6.2,29.6c1.2,4,2.4,7.4,3.8,9.9c0.7,1.3,1.5,2.3,2.4,3.2c0.9,0.9,2.2,1.6,3.6,1.6
		l1.1-0.1c2.9-0.7,5.4-2.5,7.5-4.8c3.6-4.1,6.1-10.1,8.1-16.9c3-10.3,4.6-22.8,5.8-34.4c1.1-11.5,1.7-22.2,2.5-28.5
		c8.6-74.4,20-146.7,33.5-220.4c11.7-63.7,15.5-127.5,18.7-191.9C275.2,94.2,276,68.4,283.7,43.8z"/>
	<path class="accentcolor" d="M1036.5,225.1c-20.3,0-40.2,6.1-56.7,20.8c-28.3,25.1-47.8,56-69.8,86.2c-18.9,26-40.6,49.7-61.9,74.1
		c-20.8,23.9-39,48.2-42.4,81.6c-0.3,2.8-0.4,5.6-0.4,8.5c0,31,15.4,64.3,23.6,91.9c8.9,29.8,12.4,57.6,12.4,88.6
		c0,6.7-0.1,13.3-0.1,20c0,26.3,0.8,52.8,9.4,78.4c4.6,13.9,10.2,30.7,18.4,45.5c8.2,14.8,19.3,27.9,34.9,33.9
		c5.5,2.1,10.1,4.2,14.5,5.7c4.4,1.6,8.8,2.6,13.8,2.6c3,0,6.2-0.4,9.7-1.2c22.4-5.2,44.8-10.5,67.2-15.7
		c21.7-5.1,53.7-11.8,83.9-11.8c0,0,0,0,0,0c0,0,0,0,0.1,0c18,0,35.4,2.4,49.6,8.8c14.2,6.4,25.2,16.7,31,32.9
		c5.1,14.2,6.3,30.1,7.1,46.3c0.9,16.3,1.4,32.8,5.5,48.3c3.8,14.3,9.6,32.7,19.4,47.7c4.9,7.5,10.8,14.2,18,19
		c7.2,4.8,15.7,7.8,25.6,7.8c0,0,0,0,0,0c2.5,0,5.1,0,7.6,0c1.9,0.3,3.8,0.4,5.7,0.4c13.1,0,27.4-5.8,41.1-12.8
		c13.7-7,26.7-15.2,36.7-20.3c31.8-16.3,63.4-31.2,92.7-52.1c17.6-12.5,29.2-27.9,36.3-44.8c7.2-16.9,9.9-35.4,9.9-54.3
		c0-28.6-6.2-58.2-13-85.2c-8.1-32.4-28.3-57.8-50.1-81.8c-21.8-24-45.2-46.8-60.3-73.9c-18-32.3-29.8-70.1-44.5-104.6
		c-12.2-28.6-28.3-55-43.4-81.8c-17-30.3-37.7-58.9-56.3-87.9c-18.1-28.2-40.5-48-64.6-71C1119.7,248.6,1077,225.1,1036.5,225.1
		C1036.5,225.1,1036.5,225.1,1036.5,225.1z M1262.8,1040.6C1262.8,1040.6,1262.8,1040.6,1262.8,1040.6c-1.8,0-3.6-0.1-5.2-0.4
		c-0.1,0-0.3,0-0.4,0c-2.6,0-5.2,0-7.8,0c-8.9,0-16.4-2.6-22.9-6.9c-9.8-6.5-17.2-17.1-22.9-28.9c-5.7-11.7-9.6-24.5-12.5-35.1
		c-3.9-14.8-4.5-31-5.4-47.3c-0.9-16.3-2-32.7-7.4-47.7c-6.2-17.5-18.5-28.9-33.6-35.7c-15.1-6.8-33.2-9.2-51.6-9.2
		c-30.9,0-63.1,6.8-85,11.9c-22.4,5.2-44.8,10.5-67.2,15.7c-3.2,0.8-6,1.1-8.6,1.1c-4.3,0-8-0.9-12.2-2.3c-4.2-1.5-8.7-3.5-14.4-5.7
		c-14.1-5.4-24.5-17.5-32.5-31.8c-8-14.3-13.5-30.8-18.1-44.7c-8.2-24.7-9.1-50.7-9.1-76.9c0-6.7,0.1-13.4,0.1-20
		c0-31.4-3.5-59.7-12.6-90c-8.4-28-23.4-61.1-23.4-90.5c0-2.7,0.1-5.4,0.4-8c3.2-31.8,20.5-55.1,41.2-78.9
		c21.2-24.4,43-48.1,62.2-74.4c22.1-30.4,41.4-60.9,69.1-85.4c15.7-13.9,34.2-19.6,53.6-19.6c0,0,0.1,0,0.1,0
		c38.5,0,80.6,22.8,107.4,48.4c24.2,23,46.2,42.6,63.8,70.1c18.7,29.1,39.4,57.6,56.2,87.6c15.1,27,31.2,53.2,43.1,81.4
		c14.5,34.2,26.4,72.2,44.7,105c15.6,27.9,39.3,50.9,60.9,74.8c21.7,23.9,41.2,48.6,49,79.8c6.7,26.9,12.8,56.1,12.8,84
		c0,18.5-2.7,36.3-9.5,52.5c-6.8,16.2-17.8,30.7-34.7,42.8c-28.9,20.6-60.2,35.4-92.1,51.8c-10.3,5.3-23.2,13.5-36.7,20.3
		C1288.3,1035.2,1274.5,1040.6,1262.8,1040.6z"/>
	<path class="accentcolor" d="M216.5,2400.6c0.7,4.6,1.4,9.2,2.1,13.7c4.8,9.1,9.4,18.8,14.2,29.7c12.6,28.4,24.6,57,47.4,79.8
		c11.6,11.6,25.4,22.1,39.8,32.6c0.9,0.1,1.8,0.1,2.7,0.2c1.7,0.1,3.8,0.2,6.3,0.4c-16.5-11.9-32.5-23.7-45.4-36.6
		c-21.9-22-33.8-49.9-46.4-78.4C230.3,2426.4,223.7,2413.1,216.5,2400.6z"/>
	<path class="accentcolor" d="M1532.4,22c-1.6,0.2-3.2,0.5-4.8,0.7c0,0.2,0,0.4,0,0.6c0,18.6,0.8,37.2,2.8,55.7c2.5,22.2,4.9,44.4,7.4,66.6
		c0.7,6,2,12.8,2,19.2c0,5.9-1.1,11.2-4.4,15.4c-5.2,6.4-10.9,8.8-17.3,8.8c0,0-0.1,0-0.1,0c-10.6,0-23.3-7.4-34.5-16.4
		c-11.3-9.1-21.3-19.7-27.3-25.6c-24.1-24-38-61.7-54.8-92.2c-2.5-4.4-4.8-9-7-13.5c-1.7,0.2-3.3,0.4-5,0.6
		c2.5,5.1,5.1,10.2,7.9,15.2c16.6,30,30.5,68.1,55.6,93.3c5.9,5.9,16,16.6,27.7,26c11.7,9.3,24.9,17.4,37.7,17.5c0,0,0.1,0,0.1,0
		c7.6,0,15-3.2,20.9-10.7c4.3-5.4,5.5-12,5.4-18.4c0-7-1.4-14.1-2-19.7c-2.5-22.2-4.9-44.4-7.4-66.6c-2-18.2-2.8-36.6-2.8-55.1
		C1532.4,22.8,1532.4,22.4,1532.4,22z"/>
	<path class="accentcolor" d="M388.9,54.9c-2.7-0.3-5.3-0.5-8-0.8c-10.5,6.9-20.3,16.2-29.2,28.6c-17,23.8-25,55.6-29.7,88.2
		c-4.7,32.6-6.1,66.1-9.5,93.2c-8.9,71.4-19.6,142.5-23.1,214.5c-0.3,6.4-0.4,12.8-0.4,19.2c0,24.5,1.9,49,2.6,73.1
		c0.1,2.4,0.1,4.9,0.1,7.4c0,15.4-1.1,32.5-1.1,49.3c0,14.7,0.8,29.3,4.1,42.3c9.1,36.5,18.8,64.2,42,94.4
		c20.7,26.9,51.2,45.7,78.1,64.7c27.9,19.7,59.6,27.1,90.9,34c31.3,6.8,62.3,13.1,89.2,29.9c10.5,6.6,19.9,18.9,27.3,32.6
		c7.4,13.7,12.9,28.8,16.1,40.7c9.6,36.1,12.9,71,16.7,108.5c2,20,2.2,40.4,2.2,60.9c0,6.6,0,13.2,0,19.8c0,7.6,0,15.2,0.2,22.7
		c0.6,31.4,5.7,57.4,12.5,88.1c4.6,20.6,12.8,41.6,12.7,61.2c0,11.1-2.5,21.7-9.7,31.8c-18.8,26.3-40.5,55-63.8,76.9
		c-22.1,20.9-54.6,28.7-83.3,39.8c-30.1,11.8-63.8,31.3-95,36.1c-18,2.8-36,4-54,4c-49,0-97.9-9.4-145.2-23.6
		c-12.7-3.8-27.1-11.5-39.4-21.5c-12.3-10-22.5-22.3-27.2-35.2c-5.6-15.6-8.6-28.7-8.6-41.5c0-15.7,4.4-31,14.1-49.6
		c30.3-58.2,81-107.1,104.8-170.4c7.6-20.3,11.1-40.4,11.1-60.8c0-13-1.4-26.1-4.1-39.4c-6.6-32.4-34.9-57.3-57.2-77.9
		c-25.5-23.4-57.6-41.4-85.4-61c-10.1-7.2-24.5-15.6-37.4-25.2c-13-9.6-24.5-20.5-29.1-32c-5.5-13.8-7.8-27.7-7.8-41.7
		c0-24.7,7-49.7,15-74.9c8-25.2,17-50.5,20.9-75.9c4-25.7,4.9-51.1,4.9-76.5c0-25.9-1-51.8-1-77.7c0-10.7,0.2-21.3,0.7-32
		c1.9-42.6,8.7-89.6,8.7-135.5c0-26.8-2.3-53.2-9.4-78.1c-3-10.6-9.2-26.4-18.2-39.8c-4.5-6.7-9.8-12.8-15.8-17.2
		c-6-4.5-12.9-7.3-20.5-7.3c-1.2,0-2.4,0.1-3.6,0.2c-6,0.7-14,0.7-21.9,1.2c-3.7,0.3-7.4,0.6-10.9,1.3c0.1,1.6,0.2,3.2,0.3,4.8
		c3.4-0.7,7.1-1.1,10.9-1.3c7.7-0.5,15.7-0.5,22.2-1.2c1-0.1,2-0.2,3-0.2c6.4,0,12.2,2.4,17.7,6.4c8.2,6,15.2,15.8,20.7,26
		c5.5,10.2,9.4,20.8,11.6,28.5c6.9,24.3,9.2,50.3,9.2,76.8c0,45.4-6.8,92.4-8.7,135.3c-0.5,10.8-0.7,21.5-0.7,32.3
		c0,26.1,1,51.9,1,77.7c0,25.3-1,50.5-4.9,75.8C92.9,709.5,84,734.7,75.9,760c-8,25.3-15.2,50.8-15.2,76.3c0,14.5,2.3,29.1,8.1,43.5
		c5.2,13,17.4,24.2,30.7,34.1c13.3,9.8,27.7,18.3,37.5,25.3c28,19.8,60,37.8,84.9,60.6c22.5,20.6,49.8,45.2,55.8,75.3
		c2.6,13,4,25.8,4,38.4c0,19.8-3.4,39.3-10.8,59.1c-23.2,62-73.7,110.8-104.5,169.9c-9.9,19-14.7,35.1-14.7,51.8
		c0,13.5,3.1,27.2,8.9,43.1c5.1,14,15.9,26.9,28.6,37.3c12.8,10.4,27.6,18.3,41,22.4c47.6,14.3,97,23.8,146.6,23.8
		c18.2,0,36.5-1.3,54.7-4.1c32.6-5,66.4-24.8,96-36.4c28.2-11,61.4-18.8,84.9-40.8c23.7-22.3,45.6-51.2,64.4-77.6
		c7.8-11,10.6-22.7,10.6-34.5c0-20.9-8.4-42.1-12.9-62.2c-6.8-30.6-11.8-56.2-12.4-87.1c-0.1-7.5-0.2-15-0.2-22.6
		c0-6.6,0-13.2,0-19.8c0-20.5-0.2-41.1-2.3-61.4c-3.8-37.5-7.1-72.7-16.8-109.3c-3.3-12.3-8.9-27.6-16.5-41.7
		c-7.7-14.1-17.3-27.1-29-34.4c-27.9-17.4-59.5-23.7-90.7-30.5c-31.3-6.8-62.2-14.2-89.2-33.2c-27.1-19.1-57.1-37.7-77.1-63.7
		c-22.7-29.6-32.1-56.3-41.2-92.6c-3.1-12.5-4-26.6-4-41.2c0-16.6,1.1-33.7,1.1-49.3c0-2.5,0-5-0.1-7.5c-0.7-24.3-2.6-48.8-2.6-73
		c0-6.3,0.1-12.7,0.4-18.9c3.4-71.7,14.1-142.7,23-214.2c3.4-27.4,4.8-60.8,9.5-93.1c4.7-32.3,12.7-63.4,28.9-86.1
		C365.6,71.4,376.8,61.6,388.9,54.9z"/>
	<path class="accentcolor" d="M454.4,2564.9c2,0.1,4,0.2,6.1,0.3c-8.4-11.9-17.4-23.3-26.4-34.2c-35.6-43.7-71.1-83.4-79.3-140.7
		c-0.8-5.6-1.2-10.5-1.2-14.8c0-11.6,2.8-18.9,8.8-24.3c6-5.4,15.9-9,30.3-11.6c15-2.7,36.6-8.1,54.8-8.1c0,0,0,0,0.1,0
		c0,0,0,0,0.1,0c7.9,0,15.2,1,20.8,3.6c0.1,0,0.2,0.1,0.3,0.1c0,0,0,0,0,0c0.2,0.1,0.4,0.1,0.6,0.1c5.9,0.3,11.9,3.8,17.7,9.5
		c8.7,8.6,16.7,21.9,23.4,34.9c6.8,13,12.4,25.5,16.7,32.7c16.1,27.1,29.4,47.7,51.3,70.2c23.5,24.2,52.1,47.2,70.1,75
		c3,4.6,5.7,9.1,8.3,13.4c1.9,0,3.7,0.1,5.6,0.1c-2.9-5.2-6.2-10.6-9.8-16.1c-18.6-28.7-47.5-51.9-70.7-75.8
		c-21.5-22.1-34.5-42.3-50.6-69.3c-5.4-9-13.6-28.4-23.8-45.6c-5.1-8.6-10.8-16.8-17-23c-6.1-6-12.9-10.3-20.4-10.8
		c-6.5-2.8-14.2-3.8-22.4-3.8c-19,0-40.9,5.5-55.7,8.1c-14.8,2.7-25.5,6.4-32.7,12.8c-7.2,6.5-10.4,15.6-10.3,27.9
		c0,4.7,0.4,9.8,1.3,15.5c8.4,59,44.9,99.5,80.3,143.1C438.6,2544,446.7,2554.3,454.4,2564.9z"/>
	<path class="accentcolor" d="M910.1,2572.1c3,0,6,0,8.9-0.1c-23.4-14.7-46.8-29.4-70.2-44.1c-7.2-4.5-13.2-12.1-17.3-21.1
		c-4.2-8.9-6.5-19.1-6.5-28.5c0-5.5,0.8-10.8,2.4-15.3c13.9-38.7,27.7-77.5,41.6-116.2c10.4-29.2,24-58.9,32-89.2
		c4.6-17.7,11.5-45.4,11.5-69.6c0-10.1-1.2-19.6-4.4-27.6c-4.2-10.4-7-16.9-11.3-22.5c-4.3-5.6-9.9-9.8-19.4-15.7
		c-2-1.2-4.4-1.9-7.2-2.3c-2.8-0.4-5.9-0.6-9.2-0.6c-4.6,0-9.4,0.4-13.8,1c-4.4,0.6-8.2,1.5-10.9,2.5
		c-29.9,11.4-63.4,20.2-91.8,36.3c-28.3,16.1-60.8,29.4-84.6,53.2c-13.8,13.8-27.7,27.7-41.6,41.6c-5.9,5.9-10.4,13.8-14.4,22
		c-4,8.2-7.6,16.5-11.3,23.2c-8.3,15.2-11.9,31.6-11.9,48.2c0,42.2,22.9,85.5,50,114.3c11.2,11.9,25.6,24.3,38.9,37.3
		c13.3,13,25.6,26.6,32.6,40.7c5.4,10.8,8.9,21.4,11.3,32.2c1.6,0,3.3,0,4.9,0c-2.4-11.5-6.2-22.9-11.9-34.4
		c-7.5-14.9-20.1-28.8-33.5-42c-13.5-13.1-27.8-25.5-38.7-37.2c-26.4-28.1-48.7-70.6-48.7-111.1c0-15.9,3.4-31.5,11.3-45.9
		c3.9-7,7.4-15.4,11.4-23.4c3.9-8,8.3-15.5,13.5-20.7c13.9-13.9,27.7-27.7,41.6-41.6c22.8-22.9,54.8-36.2,83.6-52.4
		c27.7-15.7,60.9-24.4,91.1-36c2.1-0.8,5.8-1.7,9.9-2.2c4.1-0.6,8.8-0.9,13.1-0.9c0,0,0,0,0,0c3.1,0,6,0.2,8.4,0.6
		c2.4,0.4,4.4,1,5.4,1.7c9.3,5.8,14.4,9.7,18.1,14.6c3.8,4.9,6.4,11,10.6,21.4c2.9,7.1,4,16.1,4,25.8c0,23.3-6.8,50.7-11.4,68.4
		c-7.8,29.8-21.3,59.4-31.8,88.8c-13.9,38.7-27.7,77.5-41.6,116.2c-1.9,5.2-2.7,10.9-2.7,16.9c0,10.2,2.5,20.9,6.9,30.5
		c4.5,9.6,10.9,17.9,19.1,23.1C867.5,2545.3,888.8,2558.7,910.1,2572.1z"/>
	<path class="accentcolor" d="M1204.9,2564.8c3-0.1,6-0.3,8.9-0.4c7.2-4.9,14.6-9.6,22.5-14.2c9.5-5.6,26-8.3,42.7-8.3c0.1,0,0.2,0,0.2,0
		c0.1,0,0.1,0,0.2,0c17.5,0,35.2,3,45.2,8c4.3,2.1,8.7,4.3,13.2,6.5c3.1-0.3,6-0.6,8.9-1c-6.9-3.3-13.6-6.5-20-9.7
		c-11.2-5.6-29.4-8.5-47.5-8.5c-17.3,0-34.4,2.7-45.3,9C1223.7,2552,1214.1,2558.1,1204.9,2564.8z"/>
	<path class="accentcolor" d="M199.3,2281c0.3,1.9,0.5,3.7,0.8,5.5c3,1.3,6.1,2.6,9.1,3.9c13.9,6,23.8,15.4,31.6,26.8
		c7.8,11.4,13.6,24.7,18.9,38.1c13,33,24.4,67.4,40.5,99.4c15.3,30.7,38.6,54.7,62.6,77.8c10,9.6,20.2,19.1,30.1,28.9
		c2.3,0.1,4.8,0.3,7.2,0.4c-11.1-11.2-22.7-21.9-34-32.8c-24-23-46.8-46.7-61.7-76.5c-15.8-31.6-27.2-65.9-40.3-99
		c-5.3-13.5-11.2-27.2-19.4-39.1c-8.2-11.9-18.8-22.1-33.7-28.5C207.1,2284.4,203.2,2282.7,199.3,2281z"/>
	<path class="accentcolor" d="M1036.1,70.9c-5.4,0.2-10.8,0.5-16.2,0.7c4.8,0.6,9.3,1.7,13.7,3.4c7.6,3,14.5,8,20.6,16
		c21.4,28.5,41.2,60.6,65.5,87.2c43.2,47.2,82.9,90.5,117.2,143.9c37,57.8,80.2,114.1,108.2,176.3c14.7,32.8,26.4,72.4,46.3,103.2
		c20.1,30.8,50,57.9,73.7,85.2c20.3,23.5,31.3,52.2,37.7,82.7c6.5,30.4,8.4,62.5,10.8,92.6c0.4,4.9,0.6,9.8,0.6,14.4
		c0,28.8-7.4,52.8-21,73.3c-13.6,20.4-33.7,37.4-59.1,51.8c-28.1,15.9-57.4,30.7-84.3,49.1c-19.5,13.4-39,26.7-58.5,40.1
		c-4.4,3-8.8,6.9-13.4,10c-4.6,3.1-9.2,5.3-13.9,5.3c0,0,0,0,0,0c-1.1,0-2.3-0.1-3.5-0.4c-0.2,0-0.4-0.1-0.6-0.1c0,0,0,0,0,0
		c0,0,0,0,0,0s0,0,0,0c0,0,0,0,0,0c-0.2,0-0.4,0-0.5,0.1c-5.3,1.4-10.4,2.1-15.2,2.1c-18.7,0-34-9.8-47-23.9
		c-13-14-23.3-32.2-31.8-48.1c-10.5-19.8-14.5-42.1-18.8-64.7c-4.3-22.6-8.9-45.4-20.8-65.8c-5.6-9.6-13.9-16.4-23.5-20.7
		c-9.6-4.3-20.6-6.2-31.8-6.2c-22.5,0-46.2,7.6-62.2,19.5c-12.7,9.4-26.5,22.5-40.9,33.1c-14.3,10.6-29.1,18.7-43.6,18.7
		c0,0-0.1,0-0.1,0c-9.4,0-18.7-3.2-28.2-11.6C851,899.4,820.8,824.2,810,767c-7-36.6-9.8-70.8-11.9-108.2
		c-1.9-33.7-11.8-60.3-22.4-92.2c-8.9-26.5-23.3-56.8-23.2-84.8c0-2.2,0.1-4.3,0.3-6.4c2.6-30.5,13.5-55.9,35.3-77.7
		c26.5-26.5,53-50.8,74.1-82.3c17.1-25.6,23.1-53.6,26.9-83.3c4.6-36.2,8.1-69.5,19.5-103.7c1.5-4.6,5.3-10.4,10.4-16.3
		c7.7-8.8,18.3-18,28.9-25.2c10.6-7.2,21.2-12.3,28.1-13.1c2.4-0.3,4.9-0.6,7.3-0.9c-7.3,0.2-14.6,0.5-21.9,0.7
		c-1.8,0.8-3.5,1.7-5.4,2.7c-10.6,5.8-22.2,14.3-31.8,23.4c-9.6,9.1-17.3,18.7-20.2,27.1c-11.6,34.8-15,68.5-19.7,104.6
		c-3.8,29.5-9.7,56.5-26.2,81.2c-20.6,30.9-46.8,54.9-73.5,81.5c-22.5,22.5-34.1,49.3-36.7,80.7c-0.2,2.3-0.3,4.5-0.3,6.8
		c0,29.6,14.8,60.1,23.5,86.3c10.6,32,20.3,58.1,22.1,90.9c2.1,37.4,5,71.9,12,108.8c11.1,58,41.2,133.8,87,173.9
		c10.2,9,20.8,12.8,31.3,12.8c0,0,0,0,0.1,0c16.3,0,31.8-8.8,46.5-19.6c14.7-10.8,28.5-23.9,40.9-33.1c15-11.2,37.9-18.6,59.3-18.6
		c0,0,0.1,0,0.1,0c10.7,0,21,1.8,29.8,5.8c8.8,4,16.2,10.1,21.3,18.7c11.4,19.6,15.9,41.8,20.2,64.3c4.3,22.5,8.4,45.4,19.3,66
		c8.5,16,19,34.5,32.5,49.1c13.4,14.6,30.1,25.4,50.5,25.4c0,0,0,0,0,0c5.1,0,10.4-0.7,15.9-2.1c1.4,0.3,2.7,0.4,4,0.4c0,0,0,0,0,0
		c6.2,0,11.7-2.8,16.6-6.1c4.9-3.3,9.4-7.3,13.4-10.1c19.5-13.3,39-26.7,58.5-40.1c26.5-18.2,55.7-32.9,83.9-48.9
		c25.9-14.7,46.5-32.1,60.7-53.3c14.2-21.2,21.8-46.3,21.8-75.9c0-4.8-0.2-9.8-0.6-14.8c-2.4-30-4.3-62.3-10.9-93.2
		c-6.6-30.9-17.8-60.5-38.8-84.8c-23.9-27.6-53.7-54.6-73.3-84.7c-19.4-29.9-31.1-69.3-46-102.5c-28.3-62.9-71.6-119.4-108.5-176.9
		c-34.5-53.9-74.5-97.3-117.7-144.6c-23.9-26.2-43.6-58.1-65.2-86.9C1051.6,79.7,1044.2,74.3,1036.1,70.9z"/>
	<path class="accentcolor" d="M657.1,1817.5c-0.1,0-0.1,0-0.2,0c0,0-0.1,0-0.1,0c-13.7,0-22.6,1.6-30.7,5.5c-8.2,3.8-15.4,9.7-26.4,17.9
		c-5.4,4.1-11.7,12.7-17.3,22c-5.5,9.3-10.1,19-11.4,25.7c-4,21.1-7.5,41.7-9.7,63.1c-0.1,0.7-0.1,1.5-0.1,2.3
		c0,3.8,0.7,8.9,1.8,13.7c1.2,4.8,2.7,9.3,4.9,12.1l0,0c3.3,4,5.4,6.8,7.7,8.7c2.2,1.9,4.9,2.8,7.8,2.8c0.1,0,0.1,0,0.2,0
		c3,0,6.4-0.6,11.4-1.5c22.2,0,39.7-10.7,53.5-25.3c14-14.7,24.6-33.5,33.7-50.5c6.3-11.8,11.1-30.7,11.1-48.7
		c0-12.1-2.2-23.8-7.9-32.8C680.1,1823.5,670.5,1817.5,657.1,1817.5z M595.1,1985C595,1985,595,1985,595.1,1985c-0.2,0-0.3,0-0.4,0
		c-5.1,0.9-8.4,1.4-10.7,1.4c0,0,0,0-0.1,0c-2.3,0-3.3-0.4-5-1.7c-1.7-1.4-3.8-3.9-7-8l0,0c-1.4-1.7-3-5.8-4-10.3
		c-1.1-4.5-1.7-9.3-1.7-12.6c0-0.7,0-1.3,0.1-1.8c2.1-21.2,5.6-41.7,9.6-62.7c1-5.5,5.4-15.2,10.8-24.2c5.3-8.9,11.7-17.4,16-20.6
		c11.1-8.3,18.1-13.9,25.5-17.4c7.4-3.5,15.3-5,28.8-5c12.2,0.1,19.7,5,24.8,12.7c5,7.8,7.2,18.7,7.1,30.2
		c0,17.2-4.7,35.6-10.6,46.4c-9,16.9-19.5,35.4-32.9,49.5C631.9,1975.3,615.8,1985,595.1,1985z"/>
	<path class="accentcolor" d="M1582.1,1038.3c0.2-2.6,0.4-5.2,0.6-7.9c-36.1,41.2-83,66.6-132.6,95.8c-11.7,6.9-23.5,18.5-33.2,31.6
		c-9.7,13.2-17.4,27.9-20.6,41.2c-2,8.2-2.8,16.4-2.8,24.5c0,23.9,7.1,47.2,13.3,69.6c9.2,33.1,15.3,66.3,15.3,99.2
		c0,28.8-4.7,57.4-16,85.9c-12.6,31.6-24.3,63.5-52.2,82.8c-27.2,18.8-55.8,28-88.8,31.3c0,0,0,0,0,0c-9.6,0.9-19.3,1.4-29,1.4
		c-18.2,0-36.3-1.8-53.9-6.6c-31.4-8.4-47.5-22.2-68.8-45.6c-16.8-18.4-22.4-43.8-22.4-71c0-35.2,9.3-73.1,15-102.1
		c5.9-30.5,17-63.5,17-95.7c0-2.9-0.1-5.8-0.3-8.6c-0.8-12.6-4-31.5-10.1-49.3c-6.1-17.7-15-34.2-28.1-41.6
		c-5.7-3.2-10.7-6.2-15.8-8.5c-5.1-2.3-10.2-3.8-16.1-3.8c0,0,0,0,0,0c-4.2,0-8.7,0.8-13.8,2.4c-17.5,5.8-35,11.7-52.5,17.5
		c-20.2,6.7-42.2,11.6-63.8,11.6c0,0,0,0,0,0c-7.8,0-15.5-0.6-23.1-2.1c-10.4-1.9-18.4-3.2-25.8-5.5c-7.4-2.3-14.1-5.6-22.1-11.7
		c-15.2-11.7-22-19.3-32.3-35.6c-14-22-20.6-48-26.5-73.7c-16.1-69.7-31.3-137.7-54.6-205.5c-23-66.8-43.2-132.9-62-200.9
		c-3.6-13-9.6-29.1-18.6-42.8c-9-13.6-21.2-25-37.1-27.7c-11.5-1.9-20.5-3.2-29.9-3.2c-7,0-14.1,0.7-22.6,2.3
		c-11.6,2.2-20,4.5-28.4,4.5c0,0,0,0-0.1,0c-5.5,0-11-0.9-17.8-3.5c-27.1-10.4-50.9-33.7-68.2-61.7c-17.3-28-27.9-60.6-29-89.4
		c-0.5-12.1-0.8-24.4-0.8-36.8c0-55.6,7.1-111.9,42.7-155.2c7.8-9.5,16.5-12.7,26-12.7c0,0,0.1,0,0.1,0c15.3,0,32.4,9.1,46.9,16.4
		c33.3,16.6,64.7,33.5,100.6,44.5c3,0.9,6.1,1.3,9.3,1.3c13.4,0,28.1-7.1,41.1-16.1c13-9,24.3-20.1,30.6-28.8
		c21.5-30.2,19.9-65.1,22.9-99.7c1-12.6,1.6-29.4,3.6-45.6c1.3-10.2,3.2-20.2,6.1-28.6c-1.7,0-3.4-0.1-5-0.1
		c-2.8,8.6-4.6,18.3-5.8,28.1c-2.1,16.5-2.6,33.4-3.6,45.8c-2.9,35.1-1.6,68.8-22,97.3c-5.8,8.1-16.8,19-29.4,27.7
		c-12.5,8.7-26.6,15.2-38.3,15.2c0,0-0.1,0-0.1,0c-2.8,0-5.4-0.4-7.9-1.1c-35.2-10.9-66.5-27.6-99.8-44.2
		c-14.5-7.2-32.1-16.8-49.2-16.9c-0.1,0-0.1,0-0.2,0c-10.6,0-21,4-29.5,14.5c-36.6,44.8-43.7,102.3-43.7,158.2
		c0,12.4,0.4,24.8,0.8,37c1.2,29.8,12.1,63.1,29.7,91.7c17.7,28.6,42.1,52.7,70.5,63.7c7.2,2.8,13.4,3.8,19.4,3.8c0,0,0,0,0,0
		c9.3,0,18-2.4,29.4-4.6c8.2-1.6,15-2.2,21.7-2.2c9,0,17.7,1.2,29.2,3.1c14.1,2.3,25.3,12.5,33.9,25.6c8.6,13,14.5,28.8,18,41.4
		c18.8,68.2,39,134.4,62,201.2c23.2,67.4,38.3,135.3,54.4,205c5.9,25.7,12.6,52.3,27.2,75.2c10.5,16.5,18,24.9,33.4,36.8
		c8.4,6.4,15.8,10.1,23.6,12.5c7.8,2.4,16.1,3.7,26.3,5.7c7.9,1.5,15.9,2.1,24,2.1c22.3,0,44.8-5.1,65.3-11.9
		c17.5-5.8,35-11.7,52.5-17.5c4.7-1.6,8.6-2.2,12.3-2.2c5,0,9.4,1.3,14.1,3.3c4.7,2.1,9.6,5,15.4,8.3c11.2,6.1,20,21.7,25.9,39
		c5.9,17.2,9.1,36,9.9,48c0.2,2.7,0.3,5.5,0.3,8.3c0,31.1-10.9,63.9-16.9,94.8c-5.7,28.8-15.1,67.1-15.1,103.1
		c0,27.8,5.7,54.5,23.6,74.3c21.3,23.5,38.7,38.4,71.1,47c18.2,4.9,36.7,6.7,55.2,6.7c9.8,0,19.6-0.5,29.4-1.4c0,0,0,0,0.1,0
		c33.6-3.3,63.1-12.8,91.1-32.1c29.5-20.5,41.4-53.6,54-85c11.6-29.1,16.4-58.4,16.4-87.7c0-33.5-6.2-67.1-15.4-100.5
		c-6.2-22.5-13.1-45.4-13.1-68.4c0-7.8,0.8-15.6,2.7-23.4c3-12.5,10.4-26.8,19.8-39.5c9.4-12.8,20.9-23.9,31.8-30.4
		C1500.1,1102.3,1545.9,1077.5,1582.1,1038.3z"/>
	<path class="accentcolor" d="M1614.7,612.8c0.1-1.8,0.3-3.6,0.4-5.4c-21.2-13.3-43.1-27.7-57.6-45.3c-23-27.8-39.3-65.6-58.2-97.1
		c-32.7-54.3-84.8-98-127.5-143.6c-15.7-16.7-27.3-41.8-38.7-62.7c-22-40.3-43.9-80.7-65.9-121c-13.9-25.5-25.7-52.2-35.5-79.7
		c-1.6,0.1-3.3,0.3-4.9,0.4c10,28.1,22,55.4,36.3,81.6c21.9,40.3,43.9,80.7,65.9,121c11.3,20.8,22.9,46.1,39.4,63.7
		c43,45.9,94.8,89.4,126.9,142.8c18.7,31.1,35.1,69.1,58.6,97.7C1569.4,584.2,1592.7,599.2,1614.7,612.8z"/>
	<path class="accentcolor" d="M22.2,341.8c0.2,2.2,0.3,4.5,0.5,6.8c3.3,3.5,5.8,7.9,7.5,13c2.8,8.2,3.8,18,3.8,27.8
		c0,12.6-1.6,25.2-2.7,34.2c-0.7,6.1-1.5,12.2-2.2,18.3c0.6,8,1.1,16.2,1.7,24.4c1.8-14,3.6-28,5.3-42.1c1-9,2.7-21.7,2.7-34.8
		c0-10.1-1-20.4-4.1-29.3C32.3,352.7,28.3,346.3,22.2,341.8z"/>
	<path class="accentcolor" d="M71.3,1005.8c0.1,1.9,0.3,3.7,0.4,5.6c5.7,2.8,11.4,5.7,17.1,8.5c20.9,10.5,46.9,23.5,67.5,40.1
		c10.3,8.3,19.2,17.5,25.6,27.6c6.3,10.1,10.1,21.1,10.1,33.3c0,5.3-0.7,10.9-2.3,16.7c-8.2,30.9-30.1,58.1-57.9,78.2
		c-12.8,9.3-26.8,17-41.3,23c0.1,1.7,0.3,3.3,0.4,5c15.3-6.1,30.1-14.3,43.7-24.1c28.4-20.6,51.1-48.6,59.7-80.8
		c1.7-6.2,2.4-12.2,2.4-17.9c0-13.2-4.1-25.1-10.8-35.8c-20.2-32.1-63.6-53.7-95-69.4C84.4,1012.3,77.9,1009,71.3,1005.8z"/>
	<path class="accentcolor" d="M674.9,73.1c-1.6-0.1-3.3-0.1-4.9-0.2c-6.1,26-8.3,52.5-11.9,79c-1.6,12-5.4,19.7-10.6,24.5
		c-5.2,4.8-12,6.8-20.1,6.8c0,0-0.1,0-0.1,0c-18.7,0-43.8-11.3-66.8-23.7c-11.6-6.2-22.7-12.7-32.4-18.1c-9.7-5.4-18-9.8-24.1-11.9
		c-12.8-4.3-30-8.7-46.6-8.7c-8.9,0-17.7,1.3-25.5,4.5c-7.9,3.3-14.9,8.6-20,16.7c-16.1,25.4-29.7,51.9-34.4,82.6
		c-10.9,71.4-24.4,142.3-27.8,214.7c-0.2,3.3-0.2,6.6-0.2,9.9c0,61.5,26.1,120.8,33.9,180.2c2.2,16.7,4.5,32.2,9.4,46.8
		c4.9,14.5,12.4,28.1,25,40.7c26.9,27,53.4,39.2,91.2,43.9c2.8,0.4,5.7,0.5,8.5,0.5c11.9,0,23.5-2.8,34.9-5.4
		c11.4-2.7,22.5-5.3,33.4-5.3c0,0,0,0,0,0c5.2,0,10.3,0.6,15.4,2c5.1,1.4,10.5,5.1,15.9,10.1c16.2,15.1,31.5,42.5,37.8,57.2
		c25.8,59.5,48,116.9,60.9,180.3c14.5,71.5,24.6,141.8,57.7,208c16.6,33.3,41.8,54,70.8,68c29,14,61.9,21.3,94.6,28
		c16.4,3.4,27,11,33.7,21.3c6.7,10.2,9.4,23.3,9.4,37.6c0,30.4-12.4,65.9-23.2,89.5c-6.2,13.6-12.5,25.8-17.2,37.9
		c-4.7,12.1-7.9,24.2-7.9,37.6c0,8,1.2,16.5,3.8,25.7c1.4,4.8,4.3,10,7.9,15.5c5.4,8.2,12.2,17.2,17.7,26.1
		c5.5,8.9,9.5,17.6,9.4,24.9c0,4.4-1.3,8.4-4.7,12.1c-9.4,10.4-25.2,14.5-41.4,14.5c0,0-0.1,0-0.1,0c0,0,0,0,0,0
		c-13.5,0-27.1-2.8-36.9-6.8c-33.5-13.5-69.3-33.9-105.2-42.5c-35.7-8.5-76.9-6.3-112.9-9.2c-5.9-0.5-11.7-0.7-17.6-0.7
		c-26.8,0-53.5,4.3-79.7,6.6c-32.4,2.9-65.9,22.1-95.3,32.8c-11.1,4.1-20.9,5.7-30.4,5.7c0,0,0,0,0,0c-15.8,0-31-4.6-49.3-10.6
		c-62.1-20.1-124.9-27.7-187.2-44.3c-29.5-7.8-61.3-19.6-92.9-23.7c0.2,1.6,0.3,3.3,0.5,4.9c30.5,4.1,61.8,15.6,91.3,23.4
		c62.7,16.6,125.4,24.2,186.9,44.2c18.4,6,34,10.8,50.9,10.8c0,0,0,0,0,0c10.1,0,20.5-1.8,32-6c29.9-11,63.2-29.9,94-32.6
		c26.4-2.3,53-6.5,79.3-6.5c0,0,0,0,0,0c5.8,0,11.5,0.2,17.2,0.7c36.4,2.9,77.4,0.8,112.1,9.1c34.9,8.3,70.6,28.5,104.5,42.3
		c10.5,4.2,24.6,7.2,38.7,7.2c16.9,0,34.1-4.2,45-16.1c4.1-4.6,5.9-9.9,5.9-15.3c-0.1-12-7.9-24.6-16.1-36.5
		c-4.1-6-8.3-11.8-11.8-17.1c-3.5-5.3-6.2-10.3-7.3-14.2c-2.5-8.8-3.6-16.8-3.6-24.4c0-12.6,3-24.1,7.6-35.9
		c4.6-11.8,10.8-23.9,17.1-37.7c11-23.9,23.6-59.8,23.6-91.5c0-14.9-2.8-28.9-10.2-40.2c-7.3-11.3-19.3-19.7-36.7-23.3
		c-32.6-6.7-65.1-14-93.4-27.7c-28.3-13.7-52.4-33.6-68.6-65.8c-32.7-65.3-42.7-135.1-57.3-206.8c-13-63.9-35.3-121.7-61.1-181.3
		c-4.4-10.1-12.6-25.8-22.7-39.8c-5-7-10.5-13.6-16.2-19c-5.7-5.3-11.7-9.4-17.9-11.2c-5.6-1.6-11.1-2.2-16.7-2.2
		c-11.6,0-23.1,2.8-34.5,5.4c-11.4,2.7-22.6,5.3-33.7,5.3c0,0,0,0,0,0c-2.6,0-5.3-0.1-7.9-0.5c-37-4.7-62-16.2-88.4-42.5
		c-12.1-12.1-19.2-24.9-23.9-38.8c-4.7-14-6.9-29.2-9.2-45.9c-8.1-60.3-33.9-119.5-33.9-179.6c0-3.2,0.1-6.4,0.2-9.7
		c3.4-72,16.8-142.7,27.8-214.2c4.6-29.7,17.7-55.6,33.7-80.7c4.6-7.2,10.7-11.8,17.8-14.8c7.1-3,15.2-4.2,23.7-4.2c0,0,0,0,0,0
		c0,0,0,0,0,0c15.8,0,32.5,4.2,45,8.4c5.5,1.8,13.7,6.1,23.3,11.5c14.5,8.1,32.3,18.7,50.3,27.2c18,8.6,36.1,15.2,51.4,15.2
		c0,0,0,0,0.1,0c8.9,0,17-2.3,23.3-8.1c6.3-5.8,10.4-14.7,12.1-27.4C666.5,125.6,668.8,98.9,674.9,73.1z"/>
	<path class="accentcolor" d="M1482,2081.6c0.4-3.2,0.8-6.4,1.1-9.6c-10.7,14.3-20.7,29.1-31.1,42.1c-7.5,9.4-17.2,13.6-26.9,13.6
		c-15,0-29.9-10.3-35.4-28.3c-2.5-8.3-3.6-16.6-3.6-25c0-22.8,8-45.7,16.1-69c8.1-23.2,16.3-46.7,16.4-70.7c0-8.8-1.1-17.7-3.8-26.6
		c-10.9-36.3-31.2-62-56-83.3c-24.8-21.4-54.1-38.6-83.3-58.4c-7.6-5.2-10.1-10.1-10.1-15c0-3.5,1.4-7.3,4-11
		c7.6-11.2,25.1-21.6,34.9-25.4c31.1-12.5,65.7-23.5,92.9-45.1c56.7-44.9,84.1-106.7,107.3-171.7c11.3-31.6,11.9-70.2,17.1-102.6
		c2.4-14.6,4-31,4-47.1c0-11.6-0.8-23-2.9-33.5c-4.5-23-14.4-50.6-14.4-75.5c0-9.1,1.3-17.9,4.7-25.9c11-26.7,36.7-44.9,59.6-62.8
		c0.2-2.2,0.4-4.3,0.5-6.5c-23.4,18.6-52.1,37.6-64.5,67.4c-3.6,8.8-5,18.2-5,27.8c0,26.1,10.2,54,14.5,76.4
		c2,10.1,2.8,21.2,2.8,32.6c0,15.8-1.6,31.9-4,46.3c-5.3,32.8-6,71.2-16.9,101.7c-23.2,64.8-50.3,125.6-105.8,169.6
		c-26.3,20.9-60.4,31.9-91.7,44.4c-7,2.8-17.3,8.4-25.9,15.5c-4.3,3.5-8.2,7.5-11.2,11.7c-2.9,4.2-4.8,8.9-4.8,13.7
		c0,6.7,3.8,13.3,12.2,18.9c29.4,19.9,58.5,37,82.9,58c24.3,21,43.9,45.7,54.5,81.1c2.5,8.4,3.6,16.8,3.6,25.2
		c0,22.8-8,45.9-16.1,69.1c-8.1,23.2-16.3,46.7-16.4,70.5c0,8.7,1.1,17.5,3.8,26.4c6,19.9,22.8,31.8,40,31.8c0,0,0,0,0.1,0
		c11,0,22.2-5,30.6-15.5C1464.7,2106,1473.2,2093.7,1482,2081.6z"/>
	<path class="accentcolor" d="M1626.6,445c0.1-1.8,0.3-3.6,0.4-5.4c-6.8-4.4-13.2-9.5-19.3-15.2c-13.6-12.5-26.1-27.4-39.6-40.5
		c-23-22.3-49.5-38.8-75.5-56.9c-94.2-65.4-147.1-169.3-185.7-276c-1.6,0.2-3.3,0.3-4.9,0.5c38.8,107.4,92.1,212.9,187.9,279.4
		c26.1,18.1,52.4,34.6,74.9,56.4c13.3,12.9,25.8,27.8,39.7,40.6C1611.4,434.3,1618.7,440.2,1626.6,445z"/>
	<path class="accentcolor" d="M1653.3,44.6c0.2-3.7,0.4-7.1,0.6-10.3c-4-10.2-6.5-21.1-7.9-32.3c-1.4,0.3-3,0.6-4.7,0.9
		C1643.2,17.4,1646.7,31.7,1653.3,44.6z"/>
	<path class="accentcolor" d="M1067,308.4c-25.9,0-55.9,5.4-75.3,22.4c-27.5,24.3-51.7,48-75.9,75.7c-9.2,10.6-21.2,22.8-31.2,36.2
		c-10.1,13.4-18.3,28.1-19.9,43.6c-0.7,6.6-1,13.3-1,19.9c0,58.8,23.8,116.7,32.1,173.8c2.3,15.9,3.4,33,7.2,49.1
		c3.8,16.1,10.5,31.3,24.2,43.1c9.1,7.8,19.3,12.1,29.9,14.3c10.6,2.2,21.5,2.5,32.5,2.5c4.1,0,8.2,0,12.2,0c1.8,0,3.6,0,5.4,0
		c46.3,0.6,92.6,1.2,138.9,1.7c0.7,0,1.5,0,2.2,0c7,0,14.8-0.4,22.8-0.4c0,0,0,0,0.1,0c9.5,0,19.2,0.5,27.7,2.7
		c8.5,2.1,15.8,5.9,20.8,12.2c12.8,16,15.6,35.5,15.6,56.1c0,14.9-1.5,30.2-1.5,44.9c0,12.3,1.2,29.1,6.6,43.2
		c2.7,7,6.5,13.4,11.8,18c5.3,4.7,12.2,7.5,20.7,7.5c0,0,0,0,0.1,0c2.4,0,5-0.2,7.7-0.7c2.1,0.2,4.2,0.3,6.4,0.3
		c28.1-0.1,61.5-17,83.7-29.4c32.4-18.1,50.4-40.6,60.9-75.8c2.3-7.5,3.3-15.1,3.3-22.6c0-28.7-14.8-56.5-33.3-81.9
		c-18.5-25.3-40.7-48.1-56.1-66.3c-17.6-20.7-25.9-47.8-35.9-73.2c-14.8-37.6-29.6-75.1-44.3-112.7
		c-21.9-55.5-59.3-113.3-101.4-155.4c-22.5-22.5-49.2-45.7-83.2-48.4C1076.5,308.6,1071.9,308.4,1067,308.4z M1287.4,969.9
		c0,0-0.1,0-0.1,0c-2.1,0-4.2-0.1-6.2-0.3c-0.1,0-0.2,0-0.3,0c-0.1,0-0.3,0-0.4,0c-2.6,0.5-5,0.7-7.2,0.7c-7.4,0-13.1-2.4-17.6-6.3
		c-6.8-5.9-11.1-15.8-13.6-26.4c-2.5-10.7-3.2-22.1-3.2-31.1c0-14.4,1.5-29.7,1.5-44.9c0-21-2.8-41.8-16.6-59.1
		c-5.9-7.4-14.3-11.5-23.4-13.8c-9.2-2.3-19.2-2.8-28.9-2.8c-8.1,0-15.9,0.4-22.8,0.4c0,0,0,0,0,0c-0.7,0-1.5,0-2.2,0
		c-46.3-0.6-92.6-1.2-138.9-1.7c-1.8,0-3.7,0-5.5,0c-4.1,0-8.2,0-12.2,0c0,0-0.1,0-0.1,0c-10.8,0-21.4-0.3-31.3-2.4
		c-10-2.1-19.3-6-27.7-13.3c-12.7-10.9-18.9-24.9-22.6-40.5c-3.7-15.6-4.7-32.5-7.1-48.7c-8.5-58-32.1-115.7-32.1-173.1
		c0-6.5,0.3-12.9,0.9-19.4c1.4-14.1,9.1-28.1,19-41.2c9.8-13.1,21.7-25.3,31-36c24-27.5,48-51,75.4-75.2
		c17.8-15.7,46.8-21.2,71.9-21.2c0.1,0,0.1,0,0.2,0c4.7,0,9.2,0.2,13.5,0.5c31.9,2.4,57.8,24.6,80.2,47
		c41.5,41.5,78.7,98.9,100.3,153.7c14.8,37.6,29.6,75.1,44.3,112.7c10,25.2,18.3,52.8,36.7,74.6c15.5,18.4,37.7,41.1,55.9,66
		c18.2,24.9,32.4,52.1,32.3,79c0,7.1-1,14.2-3.1,21.3c-10.4,34.3-27.1,55.2-58.6,73C1346.7,953.4,1313.6,969.9,1287.4,969.9z"/>
	<path class="accentcolor" d="M809.8,2186.3c-8.8,0-18.1,2.1-27,5.9c-24.4,10.4-52.2,24.2-75.9,42.4c-23.7,18.2-43.3,41-50.9,69.4
		c-3.8,14.3-6.6,27.7-6.6,40.9c0,15.6,3.9,31,14.4,46.8c14.5,21.9,36.8,38.5,62.8,38.5c3.3,0,6.7-0.3,10.2-0.9c0,0,0.1,0,0.1,0
		c0,0,0,0,0,0c0,0,0,0,0,0c0.1,0,0.2-0.1,0.3-0.1c26.6-8.9,46.9-30.6,62.5-55.8c15.7-25.3,26.8-54.2,35.1-78.2
		c2.9-8.2,7.2-19.7,10.9-31.9c3.7-12.1,6.7-24.9,6.7-35.8c0-4.5-0.5-8.6-1.7-12.4c-3.3-10-9-17.3-16.2-22.1
		C827.3,2188.5,818.7,2186.3,809.8,2186.3z M735.8,2424.7c-3.1,0.5-6.2,0.8-9.2,0.8c0,0,0,0-0.1,0c-23.9,0-44.9-15.4-58.8-36.4
		c-10-15.1-13.6-29.3-13.6-44.2c0-12.5,2.6-25.5,6.4-39.6c7.2-27.1,26-49,49.2-66.9c23.2-17.8,50.7-31.4,74.9-41.8
		c8.4-3.6,17-5.5,25.1-5.5h0c8.2,0,15.8,2,22,6.1c6.3,4.2,11.3,10.5,14.3,19.6c1,3.1,1.5,6.8,1.5,10.9c0,10-2.8,22.5-6.5,34.4
		c-3.6,11.9-8,23.4-10.9,31.7c-8.3,23.8-19.3,52.4-34.7,77.2C780.3,2395.7,760.8,2416.4,735.8,2424.7z"/>
	<path class="accentcolor" d="M1589.9,940.3c1.2-14.7,2.3-29.3,3.4-43.8c0.2-6.7,0.3-13.4,0.3-20.1c0-45.5-4.3-91.5-4.3-136.4
		c0-5.9,0.1-12.3,0.1-18.8c0-22.7-1.6-48.1-17.4-66c-26.3-29.6-52.6-59.2-78.9-88.8c-18.4-20.6-27.8-55.7-39.9-81.8
		c-12.3-26.4-33.2-48.5-50.7-70.5c-43.8-55-80.9-107.1-117.1-167.2c-32.7-54.2-71.6-107.9-91.2-168c-1.9-5.7-3.9-11.5-6.1-17.3
		c-1.7,0.1-3.3,0.3-5,0.4c2.3,6.2,4.5,12.4,6.5,18.5c19.9,61.1,59.1,115.1,91.6,169c36.4,60.3,73.6,112.5,117.5,167.7
		c17.7,22.2,38.3,44.1,50.1,69.5c11.9,25.4,21.2,60.9,40.6,82.9c26.3,29.6,52.6,59.2,78.9,88.8c14.4,16.2,16.3,40.2,16.2,62.8
		c0,6.5-0.1,12.8-0.1,18.8c0,45.2,4.3,91.1,4.3,136.4c0,23.4-1.1,46.6-4.6,69.5c-4.8,32.2-21.2,56.1-43,75.9
		c-21.8,19.8-48.9,35.4-75,50.8c-32.5,19.2-59.1,33.6-84.5,61.8c-18.8,20.9-34.8,54.2-38.6,82.2c-1.3,9.4-1.8,18-1.8,26.2
		c0,24.1,5.1,44.6,13.3,70.7c9.1,28.9,20.2,56.2,20.2,85.7c0,2.6-0.1,5.2-0.3,7.8c-2.1,31.7-10.1,65.2-26.5,90.6
		c-16.5,25.3-41.2,42.6-77.8,42.7c-0.1,0-0.2,0-0.3,0c-4.8,0.5-9.8,0.8-14.9,0.8c0,0,0,0-0.1,0c-24.5,0-51.7-6.3-72.5-19.5
		c-20.8-13.3-35.3-33.3-35.4-61.5c0-3.4,0-6.8,0-10.2c0-23.6,0.4-47.7,6.2-70.2c3.4-13.4,9.1-28.6,13.8-44c4.8-15.4,8.8-31,8.8-45.4
		c0-32.6-1.8-57.6-15.9-87.6c-13.2-28.3-31.3-53.7-47.8-79.7c-7.1-11.1-14-22.4-22.7-31.8c-8.6-9.4-19.1-17-33-20.5
		c-0.9-0.2-1.9-0.3-2.9-0.3c-5.5,0.1-11.3,3.1-17.7,7.5c-9.4,6.6-19.8,16.6-29,26c-9.2,9.4-17.4,18.2-22,22.3
		c-16.2,14.3-38.6,21.3-61.3,21.3c0,0,0,0,0,0c-18.7,0-37.5-4.7-53.1-13.9c-15.6-9.2-27.8-22.7-33.7-40.3
		c-19.2-57.4-29.9-117.4-48.7-175.4c-21.8-67.3-47.8-134-61.4-203.1c-6.1-31.2-11.5-67.6-22.9-101.1c-11.4-33.4-28.7-64-58.8-83.2
		c-16.5-10.5-34.2-13.1-52.1-13.1c0,0,0,0-0.1,0c-14.9,0-30.1,1.8-45.1,2.4l-1.1,0c0,0-0.1,0-0.1,0c-10.6,0-26.7-6.2-40.7-15.2
		c-7-4.5-13.6-9.7-18.7-15.1c-5.2-5.4-8.9-10.9-10.5-16c-7.3-23.4-15.1-46.8-15.1-70.4c0-7.8,0.8-15.7,2.8-23.6
		c2.9-11.8,6.6-30.7,13.2-47c3.3-8.1,7.3-15.6,12.2-21.1c4.9-5.5,10.5-9,17.4-9.8c2.8-0.3,5.5-0.5,8.1-0.5c0,0,0,0,0.1,0
		c24.4,0,45.5,12.2,66.5,24.8c21,12.5,41.7,25.4,65.6,25.5c0,0,0,0,0,0c12.6,0,26-3.7,40.4-12.9c27.9-17.7,56.9-41,76-68.3
		c10.4-14.8,15-30.4,17.2-46.5c2.3-16.1,2.3-32.6,3.4-49.4c2.5-37.4,5.7-63.8,17.4-98.3c-1.7,0-3.4,0-5,0
		c-11.5,34.3-14.7,61.1-17.1,98.1c-1.1,17-1.1,33.4-3.3,49c-2.2,15.6-6.6,30.4-16.4,44.4c-18.5,26.5-47.1,49.5-74.7,67
		c-13.8,8.7-26.1,12.1-37.8,12.1c0,0-0.1,0-0.1,0c-22,0-42.1-12.2-63-24.8c-21-12.6-43-25.5-69-25.5c-2.8,0-5.7,0.2-8.7,0.5
		c-8.2,0.9-15,5.3-20.4,11.4c-8.1,9.2-13.6,22.4-17.6,35.4c-4,13.1-6.7,26-8.9,34.7c-2.1,8.4-3,16.6-3,24.8c0,24.7,8,48.5,15.3,71.9
		c1.9,6.1,6.1,12.2,11.6,17.9c8.2,8.6,19.4,16.4,30.8,22.2c11.4,5.8,22.9,9.5,32.2,9.5l1.3,0c15.3-0.6,30.3-2.4,44.9-2.4
		c0,0,0,0,0,0c17.5,0,34.1,2.5,49.6,12.4c28.8,18.3,45.7,47.8,56.9,80.7c11.2,32.9,16.6,69.1,22.7,100.4
		c13.7,69.7,39.8,136.5,61.5,203.7c18.7,57.6,29.5,117.6,48.7,175.5c6.3,18.9,19.5,33.3,35.9,43c16.4,9.6,36,14.6,55.5,14.6
		c23.7,0,47.2-7.3,64.5-22.5c6.6-5.8,18.8-19.5,31.6-31.9c6.4-6.1,13-11.9,18.9-16.1c5.9-4.2,11.2-6.6,14.8-6.6c0,0,0.1,0,0.1,0
		c0.6,0,1.2,0.1,1.7,0.2c12.9,3.2,22.4,10.1,30.7,19.1c8.2,9,15,20,22.1,31.2c16.7,26.2,34.6,51.4,47.5,79.2
		c13.6,29.3,15.4,53.1,15.4,85.6c0,13.5-3.8,28.8-8.5,44c-4.7,15.2-10.4,30.5-13.9,44.2c-6,23.3-6.3,47.7-6.3,71.4
		c0,3.4,0,6.8,0,10.2c0,29.9,15.7,51.7,37.6,65.5c21.9,13.9,49.8,20.3,75.2,20.3c5.3,0,10.4-0.3,15.4-0.8c0,0,0,0,0,0
		c38.1,0,64.6-18.5,81.7-44.8c17.1-26.4,25.2-60.6,27.3-92.9c0.2-2.7,0.3-5.4,0.3-8.1c0-30.8-11.4-58.5-20.4-87.2
		c-8.1-25.9-13.1-45.8-13.1-69.2c0-8,0.6-16.4,1.8-25.5c3.5-26.7,19.3-59.6,37.4-79.6c24.8-27.5,50.8-41.7,83.4-60.9
		c26-15.3,53.4-31.1,75.7-51.3c22.3-20.3,39.5-45.2,44.5-78.7C1589.3,944.5,1589.6,942.4,1589.9,940.3z"/>
	<path class="accentcolor" d="M1577.5,1094.6c0.2-2.1,0.3-4.2,0.5-6.4c-16.3,12.3-33.9,23.4-50.6,35.3c-10.8,7.7-25.2,16-38.6,25.7
		c-13.3,9.6-25.7,20.6-32.3,33.9c-7.2,14.4-10,28.9-10,43.4c0,22.8,6.7,45.5,13.3,68.2c6.6,22.7,13.2,45.3,13.1,67.9
		c0,5.1-0.3,10.2-1.1,15.2c-9.3,65.1-18.5,136.2-59.6,189.4c-41.8,54-105.2,73.2-171,77.6c-14.7,1-31.5,2.4-48.4,2.4c0,0,0,0,0,0
		c-0.1,0-0.1,0-0.2,0c-23.7,0-47.3-2.9-64.8-13.4c-36.3-21.8-64.4-50.8-84.6-88.3c-7.5-13.9-10.1-28-10.1-42.4
		c0-20.6,5.3-41.9,8.8-63.8c7-44.2,17.8-89.7,21.3-134.8c0.2-2.5,0.3-5.1,0.3-7.7c0-13.5-2.5-28.9-9.2-41.3
		c-3.4-6.2-7.8-11.6-13.5-15.5c-5.7-3.9-12.8-6.2-21.1-6.2c0,0,0,0,0,0l-1.2,0c-26.3,0.7-53.1,3.1-79.4,3.1c0,0,0,0,0,0
		c-6.8,0-13.6-0.2-20.3-0.6c-19.8-1.2-36.3-2.7-51.4-7.2c-15.2-4.5-29.1-12-44-25.3c-20.2-18.1-36.4-49.9-42.9-76.3
		c-18.2-74.5-36.4-148.9-54.6-223.3c-15.8-64.5-50.9-127.2-76.1-187.9c-3.1-7.4-8.3-20.6-15.6-32.1c-3.6-5.7-7.8-11-12.5-15
		c-4.8-4-10.2-6.6-16.3-6.6c0,0,0,0,0,0c-2.3,0-4.7,0.4-7.1,1.2c-13.5,4.5-27.8,13.4-42.1,21.2c-14.3,7.7-28.4,14.2-41,14.2
		c0,0-0.1,0-0.1,0c-1,0-2,0-3-0.1c-17.3-1.4-30.8-6.4-41.2-15.1c-10.4-8.7-17.8-21.4-22.6-38.6c-9.9-35.3-20.5-68.4-34-102.5
		c-10.4-26.4-26.3-58.6-26.2-86.6c0-34.7,0.3-67.8,4.2-102.1c4.2-36.8,10.1-69,19.8-104.7c3.6-13.4,8.1-29.2,15.2-42.9
		c7-13.7,16.5-25.3,30-30.7c5.4-2.2,11.2-3.1,17.2-3.1c0,0,0.1,0,0.1,0c21.5,0,46.3,12.2,63.8,21.7c14.1,7.6,29.8,18.7,46.2,27.9
		c16.4,9.2,33.6,16.6,50.8,16.6c0,0,0.1,0,0.1,0c22.2,0,37.4-6.4,47.4-16.9c15.1-16,18.4-40.4,20.1-65.7c1.6-25.3,1.4-51.8,8-71.6
		c1.2-3.5,2.4-7,3.7-10.5c-1.7,0-3.4-0.1-5.1-0.1c-1.1,3-2.2,6-3.2,9.1c-4.7,14-6,30.5-6.9,47.4c-1.3,25.3-1.6,51.6-9.5,71.1
		c-3.9,9.7-9.6,17.8-18.3,23.4c-8.6,5.7-20.3,9-36.4,9c0,0,0,0-0.1,0c-15.8,0-32.3-7-48.4-16c-16.1-9-31.8-20.1-46.3-27.9
		c-17.7-9.6-42.9-22.2-66.2-22.3c-6.6,0-13,1-19.1,3.5c-15,6.1-25.2,18.7-32.5,33c-7.3,14.3-11.9,30.3-15.5,43.8
		c-9.7,35.9-15.7,68.4-19.9,105.5c-3.9,34.6-4.2,67.9-4.2,102.6c0,29.7,16.3,62.2,26.5,88.3c13.4,33.9,24,66.8,33.8,102
		c5,17.8,12.9,31.4,24.1,40.9c11.3,9.5,25.9,14.8,43.9,16.3c1.1,0.1,2.2,0.1,3.4,0.1c14.2,0,28.9-7,43.4-14.8
		c14.5-7.8,28.7-16.6,41.4-20.8c1.9-0.6,3.8-0.9,5.5-0.9c4.7,0,9.1,2,13.3,5.5c6.3,5.2,11.9,13.8,16.4,22.4
		c4.5,8.6,8,17.3,10.3,22.9c25.3,61,60.3,123.6,75.9,187.2c18.2,74.4,36.4,148.9,54.6,223.3c6.7,27.3,23.1,59.6,44.3,78.7
		c15.3,13.8,30,21.7,45.8,26.3c15.8,4.7,32.7,6.2,52.5,7.4c6.8,0.4,13.7,0.6,20.6,0.6c26.6,0,53.5-2.4,79.6-3.1l1.1,0
		c7.4,0,13.4,2,18.4,5.3c7.5,5,12.7,13.3,16,22.8c3.3,9.5,4.7,20.3,4.7,29.9c0,2.5-0.1,5-0.3,7.4c-3.4,44.6-14.2,89.9-21.2,134.4
		c-3.4,21.6-8.8,43.1-8.8,64.6c0,15,2.7,29.9,10.6,44.7c20.6,38.2,49.4,68,86.3,90.1c18.9,11.3,43.4,14.1,67.5,14.1
		c17.2,0,34.1-1.4,48.8-2.4c66.4-4.4,131.5-23.9,174.5-79.4c42.2-54.6,51.3-126.6,60.6-191.6c0.8-5.3,1.1-10.6,1.1-15.9
		c0-23.5-6.7-46.6-13.3-69.3c-6.6-22.7-13.2-45-13.1-66.8c0-13.9,2.6-27.6,9.4-41.3c6-12.1,17.8-22.7,30.9-32.1
		c13.1-9.5,27.4-17.8,38.5-25.7C1545.6,1116.4,1562,1106.1,1577.5,1094.6z"/>
	<path class="accentcolor" d="M1620.2,535.5c0.1-1.7,0.2-3.4,0.4-5.1c-5-2.2-10-4.9-15.1-8.1c-4.5-2.8-8.3-7.3-11.8-12.4
		c-3.5-5.1-6.6-10.6-10-15.4c-14.2-20-28.4-40-42.6-59.9c-18-25.3-42.1-44.8-66.2-64.2c-24.1-19.3-48.2-38.5-66.3-62.6
		c-45.1-60.2-78.4-125.3-114.6-191.7c-11.7-21.4-18.6-38.6-25.5-61.5c-1.6,0.2-3.2,0.3-4.9,0.5c7,23.6,14.2,41.4,26.1,63.3
		c36.1,66.3,69.5,131.7,114.9,192.3c18.6,24.8,43,44.1,67.1,63.4c24.1,19.3,47.9,38.7,65.3,63.2c14.2,20,28.4,40,42.6,59.9
		c3.2,4.5,6.4,10.1,10,15.3c3.6,5.3,7.8,10.3,13.1,13.7C1608.8,530.1,1614.5,533.1,1620.2,535.5z"/>
	<path class="accentcolor" d="M77.4,1080.6c0.2,1.9,0.3,3.8,0.5,5.7c2.5,1.3,4.9,2.7,7.4,4.2c7.8,4.7,15.1,9.7,20.3,15
		c5.2,5.3,8.2,10.6,8.2,15.6c0,0.5,0,1-0.1,1.5c-2.2,19.7-10.3,32.2-22.4,41.3c-2.1,1.6-4.3,3-6.6,4.3c0.1,1.8,0.3,3.5,0.4,5.3
		c3.2-1.8,6.2-3.7,9-5.8c13-9.7,22-23.8,24.3-44.6c0.1-0.7,0.1-1.3,0.1-2c0-7-3.9-13.3-9.5-19C100.8,1094,89,1086.8,77.4,1080.6z"/>
	<path class="accentcolor" d="M1429.6,2462.3c0.4-1.8,0.7-3.7,1-5.5c-5.8-5.3-11.1-10.9-15.6-16.9v0c-19.7-26-38.2-60.7-65.2-81.1
		c-17.4-13-39.1-17.7-60.5-17.7c-7,0-14,0.5-20.9,1.4c-35.9,4.6-75.6,5.2-111.3,14.2c-37,9.4-62.8,35.7-91.2,58.1
		c-5.5,4.3-11.8,5.4-19.1,5.4c0,0,0,0-0.1,0c-5.9,0-12.3-0.7-18.8-0.8c-3.6,0-6.6-1.3-9.3-3.7c-4.1-3.5-7.3-9.4-9.5-15.5
		c-2.3-6.1-3.7-12.5-4.5-16.8c-0.7-4.1-1.1-8.3-1.1-12.6c0-23.7,9.8-51.1,14.1-73.9c7.7-41.2,15.4-82.4,23.2-123.6
		c6.3-33.7,20.1-59.7,39.3-81.5c19.2-21.8,43.8-39.5,71.7-56.2c13.9-8.3,23.6-15.4,35.1-27h0c2.8-2.9,4.8-7.8,6.4-13.6
		c1.5-5.8,2.5-12.3,2.5-18.1c0-2.7-0.2-5.1-0.7-7.3c-0.5-2.2-1.2-4.2-2.6-5.7c-21.7-24.4-49-43.5-83.4-44.9
		c-9.8-0.4-19.4-0.6-29.1-0.6c0,0,0,0,0,0c-58.6,0-114.8,7.7-171.6,25.3c-8.4,2.6-19.5,7.2-31.3,11.1c-11.8,3.9-24.3,7.2-35.3,7.2
		c0,0,0,0,0,0c-9.4,0-17.4-2.3-23.4-8.3c-1.6-1.6-2.7-4.2-3.4-7.4c-0.7-3.2-0.9-6.9-0.9-10.7c0-4.8,0.3-9.6,0.3-13.3
		c0-23.8,0-47.7,0-71.5c0-32.5-6-64.2-20.3-90.7c-14.3-26.5-37.1-47.6-70.2-58.6c-20.9-7-41.7-10.2-62.1-10.2
		c-46.3,0-90.5,16.9-128.6,46.1c-6.3,4.9-13.6,13.7-21.8,24.3c-12.3,15.9-26.7,35.8-41.6,51.6c-7.5,7.9-15,14.8-22.5,19.6
		c-7.5,4.8-14.7,7.6-21.6,7.6c0,0,0,0,0,0c-8,0-15.7-3.6-23.5-12.9c-23.8-28.8-47.5-57.7-71.3-86.5c-20.3-24.5-55-33.8-82.3-43.5
		c-21.2-7.5-47.4-8.4-71.6-8.4c-9,0-17.6,0.1-25.7,0.1c0,0,0,0,0,0c-6.9,0-13.3,1.2-19.3,3.2c0.2,1.6,0.3,3.3,0.5,4.9
		c5.9-2.1,12.1-3.3,18.8-3.3c8.1,0,16.8-0.1,25.7-0.1c0.1,0,0.3,0,0.4,0c24,0,49.5,1.1,69.6,8.2c27.6,9.7,61.5,19.1,80.2,42
		c23.8,28.9,47.5,57.7,71.3,86.6c8.3,10.1,17.6,14.7,27.1,14.7c0,0,0.1,0,0.1,0c10.9,0,21.7-5.7,32.2-14.2
		c15.7-12.7,30.9-31.9,44.4-49.6c6.8-8.9,13.1-17.3,18.9-24.4c5.7-7.1,10.9-12.8,15-15.9c37.5-28.6,80.6-45.1,125.7-45.1
		c19.9,0,40.2,3.2,60.6,10c32,10.7,53.7,30.8,67.6,56.4c13.8,25.5,19.8,56.5,19.8,88.4c0,23.8,0,47.7,0,71.5c0,3.4-0.3,8.2-0.3,13.3
		c0,3.9,0.2,7.9,1,11.7c0.8,3.7,2.1,7.2,4.7,9.8c7.1,7.1,16.6,9.7,26.7,9.7c0,0,0,0,0.1,0c11.9,0,24.8-3.4,36.8-7.4
		c12-4,23.2-8.6,31.2-11.1c56.3-17.4,112-25.1,170.2-25.1c9.5,0,19.2,0.2,28.9,0.6c32.7,1.3,58.8,19.4,80,43.3
		c0.5,0.6,1.1,1.8,1.5,3.5c0.4,1.7,0.6,3.9,0.6,6.3c0,5.2-0.9,11.4-2.3,16.8c-1.4,5.4-3.5,9.9-5.1,11.5l0,0
		c-11.2,11.3-20.5,18-34.2,26.2c-28.1,16.9-53.2,34.8-72.9,57.1c-19.7,22.4-34,49.3-40.4,83.8c-7.8,41.2-15.5,82.4-23.2,123.6
		c-4.1,22.2-14.1,49.8-14.2,74.8c0,4.6,0.3,9.1,1.1,13.5c1.1,6.1,3.3,15.7,7.5,24.1c2.1,4.2,4.7,8.1,8.1,11
		c3.4,2.9,7.6,4.8,12.4,4.8c0,0,0,0,0,0c0,0,0,0,0.1,0c6.1,0,12.5,0.7,18.8,0.8c0,0,0,0,0.1,0c7.6,0,15.3-1.1,22-6.4
		c28.7-22.7,54-48.2,89.4-57.2c34.9-8.9,74.4-9.5,110.7-14.1c6.7-0.9,13.5-1.3,20.3-1.3c20.8,0,41.4,4.5,57.7,16.7
		c25.8,19.3,44.2,53.7,64.2,80.1v0C1416.6,2449.8,1422.8,2456.3,1429.6,2462.3z"/>
	<path class="accentcolor" d="M1065.9,370.5c-18,0-35.4,4.1-54.5,14.4c-54,29.1-89.5,85.1-89.5,145.2c0,6.6,0.4,13.3,1.3,20.1
		c4.1,30.3,15.2,59.4,23.7,88.2c6.3,21.5,14.9,47.6,29.9,65.1c13.1,15.3,29.6,25.1,47.8,31.1c18.1,6,37.9,8.2,57.5,8.2
		c17.1,0,34.1-1.6,49.9-3.9c0,0,0,0,0,0c34.8-4.6,62.7-10.4,92.9-29.6c11.1-7.1,17.9-16.5,21.8-26.9c3.9-10.4,5-21.8,5-33.3
		c0-9-0.7-18-1.3-26.6c-4.1-60.6-32.4-133.5-69.7-181.4c-8.6-11-18.9-25.3-30.8-37.7c-11.9-12.4-25.4-23.1-40.5-26.7
		C1093.9,372.9,1079.8,370.5,1065.9,370.5C1066,370.5,1065.9,370.5,1065.9,370.5z M1131.2,734.1c-15.7,2.2-32.4,3.8-49.2,3.8
		c-19.3,0-38.5-2.1-56-7.9c-17.5-5.8-33.2-15.1-45.6-29.6c-14.1-16.4-22.7-42-28.9-63.4c-8.5-29-19.6-57.9-23.5-87.4
		c-0.9-6.5-1.3-13-1.3-19.4c0-58.2,34.4-112.7,87-141c18.6-10,35.1-13.9,52.3-13.9c13.2,0,27,2.3,42.4,5.9
		c13.6,3.2,26.6,13.2,38.2,25.4c11.6,12.1,21.8,26.3,30.5,37.4c36.6,47,64.7,119.4,68.7,178.8c0.6,8.6,1.2,17.5,1.2,26.3
		c0,11.1-1.1,22-4.7,31.6c-3.6,9.6-9.7,18-19.9,24.5C1192.9,723.8,1166,729.4,1131.2,734.1C1131.2,734.1,1131.2,734.1,1131.2,734.1z
		"/>
	<path class="accentcolor" d="M1461.7,2244.1c0.4-2.8,0.8-5.7,1.1-8.5c-1.9,2.6-3.9,4.7-5.9,6.3c-4.4,3.7-8.9,5.2-14.2,5.2c0,0-0.1,0-0.1,0
		c-8.4,0-18.8-4.4-31.4-11.5c-34-19-64.5-30.4-101.6-42.3c-13.4-4.3-26.9-10.9-36.8-20.8c-3.6-3.6-5.9-6.7-7.3-9.6
		c-1.4-2.9-2-5.6-2-8.4c0-5.6,2.4-12.1,5.6-21c10.3-28.3,30.3-53.7,40.2-83.2c12-36,19.2-65.4,22.8-103.3c0.2-2.4,0.3-4.7,0.3-7
		c0-17-6-32.3-15.5-45.9c-14.4-20.4-36.7-37.3-59.6-51.7c-22.9-14.4-46.6-26.4-63.4-36.7c-26.7-16.4-50.9-37-76-56.3
		c-14.1-10.9-27.4-16.4-41.4-19.5c-13.9-3.1-28.5-3.7-45.4-4.9c-4.3-0.3-8.5-0.5-12.7-0.5c-30.9,0-60.6,7.5-90.8,12.7
		c-3.7,0.6-7.2,0.9-10.5,0.9c-11.7,0-21.1-3.7-30.2-9.5c-9-5.8-17.6-13.9-27.1-22.5c-10-9.1-22.1-21.8-35.1-33.4
		c-13-11.5-27-21.9-41.2-26.1c-35.4-10.4-68-15.4-104.5-19.8c-11.3-1.4-22.4-2-33.2-2c0,0,0,0,0,0c-51.2,0-97.5,14.9-142.9,41.8
		c-12.8,7.6-23.3,14.6-33.3,19.7c-10,5-19.5,8.1-30.6,8.1c-7.3,0-15.5-1.4-24.9-4.5c-14.2-4.7-27.1-13.9-40.4-23.4
		c-13.2-9.5-26.8-19.4-42.2-25.2c-31.3-11.8-64.3-17.3-96.6-24.5c-30.8-6.9-63.1-18-95.4-19.6c-5.8-0.3-11.3-0.5-16.7-0.6
		c0.2,1.6,0.3,3.2,0.5,4.8c5.1,0.1,10.4,0.3,16,0.5c31.3,1.5,63.4,12.4,94.6,19.5c32.4,7.3,65.2,12.8,96,24.3
		c14.6,5.5,27.8,15,41.1,24.6c13.3,9.5,26.6,19,41.7,24.1c9.9,3.3,18.5,4.8,26.5,4.8c0,0,0,0,0,0c12,0,22.4-3.4,32.7-8.6
		c10.4-5.2,20.9-12.3,33.6-19.8c44.8-26.6,90.2-41.1,140.5-41.1c10.6,0,21.5,0.7,32.6,2c36.4,4.4,68.8,9.3,103.7,19.6
		c13,3.8,26.6,13.7,39.4,25.1c12.8,11.4,24.9,24.1,35.1,33.3c9.5,8.6,18.2,16.8,27.7,23c9.5,6.2,20.1,10.3,32.7,10.3c0,0,0,0,0,0
		c3.6,0,7.4-0.3,11.4-1c30.4-5.2,59.9-12.6,90-12.6c0,0,0,0,0.1,0c4.1,0,8.3,0.1,12.4,0.4c17,1.2,31.3,1.9,44.7,4.8
		c13.4,2.9,25.9,8.1,39.5,18.6c25,19.2,49.3,39.9,76.4,56.6c22.8,14,57,30.6,85.5,51.8c14.2,10.6,27,22.3,36.1,35.3
		c9.1,13,14.7,27.3,14.7,43.2c0,2.2-0.1,4.4-0.3,6.6c-3.6,37.5-10.7,66.3-22.6,102.2c-9.4,28.4-29.4,53.7-40.1,83
		c-3.2,8.9-5.9,15.8-5.9,22.7c0,3.5,0.8,7.1,2.5,10.6c1.8,3.5,4.4,7,8.3,10.8c10.7,10.7,24.8,17.5,38.7,22
		c36.9,11.9,67.1,23.2,100.7,42c12.9,7.2,23.8,12,33.8,12.1c0,0,0.1,0,0.1,0c6.2,0,12-2,17.1-6.3
		C1460.6,2245.1,1461.1,2244.6,1461.7,2244.1z"/>
	<path class="accentcolor" d="M184,30.9c-2.8-0.4-5.7-0.8-8.5-1.2c-1.5,6.9-3.6,11.9-5.9,15.3c-2,2.9-4.2,4.8-6.5,5.9
		c-2.3,1.2-4.8,1.7-7.6,1.7c-7.3,0.1-16.4-4.1-23.8-9.1c-3.7-2.5-7.1-5.1-9.7-7.4c-2.6-2.3-4.5-4.3-5.1-5.1
		c-4.2-5.4-9-9.4-14.3-11.8c-0.8-0.4-1.6-0.7-2.4-1c-5.2-0.8-10.1-1.7-14.9-2.5C68.8,16,51.6,23.9,35.7,31.5
		C27.6,35.4,19.9,39.2,13,42c-3.7,1.5-7.1,2.7-10.2,3.5c0.2,2.7,0.4,5.6,0.5,8.6c4.1-0.9,8.4-2.4,12.9-4.2
		c10.9-4.5,23-10.9,35.2-16.3c12.1-5.3,24.2-9.4,34.5-9.4c4.8,0,9.1,0.8,13.1,2.7c4,1.9,7.7,4.8,11.2,9.3c1.3,1.6,3.4,3.8,6.2,6.3
		c4.3,3.8,10.3,8.4,17.1,12.1c6.8,3.7,14.3,6.6,22.1,6.6c3.9,0,7.8-0.8,11.4-2.6c5.5-2.8,10.1-7.9,13.3-15.4
		C181.8,39.7,183,35.6,184,30.9z"/>
	<path class="accentcolor" d="M0.2,0C0.1,0,0,0,0,0s0,0.1,0,0.3C0.1,0.2,0.1,0.1,0.2,0z"/>
	<path class="accentcolor" d="M1138.4,682.8c20.5-7.7,34.4-19.5,42.8-33.9c8.5-14.4,11.6-31,11.6-48.2c0-28.2-8.3-58.3-16.1-84.4
		c-7.2-23.8-21.5-46.5-40.1-63.3c-18.6-16.8-41.6-27.9-66.2-27.9c-12.4,0-25,2.8-37.5,9.1c-20.4,10.2-34.2,23.3-42.7,38.3
		c-8.6,15-11.8,31.7-11.8,49c0,26.9,7.8,55.3,16.4,82.3c8,25,21.9,46.5,40,61.9c18.1,15.4,40.4,24.5,65,24.5
		c12.4,0,25.3-2.3,38.5-7.3C1138.4,682.8,1138.4,682.8,1138.4,682.8z M1138.4,682.8c0,0-0.1,0-0.1,0c-2.2,0.8-4.7-0.3-5.5-2.5
		c-0.8-2.2,0.3-4.7,2.5-5.5c0,0,0.1,0,0.1,0c2.2-0.7,4.6,0.4,5.4,2.5C1141.6,679.5,1140.6,681.9,1138.4,682.8z M1135.4,674.8
		c0,0-0.1,0-0.1,0c-12.3,4.6-24.2,6.7-35.5,6.7c-22.4,0-42.7-8.3-59.4-22.5c-16.7-14.2-29.8-34.4-37.4-58c-8.6-26.7-16-54.5-16-79.7
		c0-16.2,3.1-31.4,10.7-44.8c7.7-13.4,20-25.3,39.1-34.9c11.3-5.7,22.6-8.2,33.7-8.2c21.9,0,43,10,60.5,25.7
		c17.4,15.7,31,37.2,37.6,59.5c7.8,26,15.8,55.5,15.8,82c0,16.2-2.9,31.2-10.4,43.8C1166.5,657.2,1154.5,667.6,1135.4,674.8z"/>
	<path class="accentcolor" d="M1136.7,65.3c-3,0.2-6,0.4-9.1,0.6c2.3,5,4.6,10.1,6.9,15.1c10.3,22.5,18.6,49.5,33.5,71
		c22.2,32.1,44.4,64.1,66.6,96.2c35.9,51.9,68.1,106.6,104.4,158.8c20.7,29.8,39.7,58.1,56.6,89.8c6.3,11.8,10.7,27.6,15.8,43.3
		c5.1,15.6,10.9,31.1,20.8,42.4c25.1,28.3,50.2,56.6,75.2,84.9c18.1,20.3,25.7,51.7,30.5,79.1c5.9,33.3,6,67.8,8,102.2
		c1,15.6,4.2,37.2,4.2,56.6c0,11.3-1.1,21.7-4.2,29.3c-13.3,33.1-26.9,56.3-55.8,78.4c-25.8,19.7-60.9,33-90.7,49.1
		c-28.1,15.3-48,41.5-67.7,63.8c-9.8,11.2-20.4,25.7-31.8,38.9c-11.2,12.9-23.3,24.5-35.9,30.5c-23.4-0.2-42.5-11.7-59.1-28.3
		c-16.7-16.7-30.6-38.4-43-57.6c-12.7-19.6-26.4-37.5-34-58.5c-4.4-12.2-8.1-26.7-12.5-41c-4.4-14.4-9.5-28.6-16.9-40.3
		c-5.8-9.2-11.8-15.8-18-20.2c-6.2-4.4-12.8-6.5-19.3-6.5c-5.4,0-10.7,1.5-15.8,3.9c-8.8,4.3-17,11.6-24.7,20.3
		c-11.6,13.1-22.1,29.5-31.4,44.6c-9.3,15-17.4,28.8-23.3,36c-7.2,8.7-14.6,15.3-22.1,19.6c-7.5,4.3-15,6.5-23,6.5
		c-9.8,0-20.4-3.3-32-10.6c-3.6-2.2-6.9-5.9-9.8-10.6c-4.4-7-7.8-16.1-10.7-25.1c-2.9-9-5.3-17.8-7.9-24.6
		c-26.9-70.7-58.7-141.1-80.9-212.8c-9.1-29.5-13.7-60.1-17.7-90.9c-3.9-29.4-2.9-64.8-15-94c-16.6-39.7-33.2-79.4-49.8-119.1
		c-5-11.9-7-21.9-7-31.4c0-15,5.1-29.3,13.1-47.9c4.6-10.8,16.1-23,29-34.3c12.9-11.4,27.1-21.9,37.1-30.6c11.5-10,24-20.7,34.4-33
		c10.4-12.3,18.9-26.4,22.3-43.3c7.6-37.7,8.4-74.6,10.3-112.5c0.6-12.1,1.7-27.1,4.8-41.1c3.1-14,8.3-26.9,16.6-35.2
		c0.4-0.4,0.8-0.8,1.2-1.3c-3.8,0-7.7,0-11.5,0.1c-7.5,9.6-11.9,22-14.7,34.6c-3.3,14.8-4.3,30.2-5,42.5
		c-1.9,38-2.8,74.5-10.1,111.2c-3,15-10.6,27.8-20.4,39.4c-9.8,11.6-21.9,22-33.5,32.1c-9.6,8.3-23.9,19-37.1,30.6
		c-13.2,11.7-25.5,24.2-31.2,37.3c-8,18.8-13.8,34.3-13.8,51.3c0,10.8,2.4,22.1,7.7,34.7c16.6,39.7,33.2,79.4,49.8,119.1
		c11.3,26.8,10.6,61.5,14.5,91.8c4,30.9,8.7,62,18,92.3c22.4,72.5,54.3,143,81.1,213.4c3.1,8.1,6.3,21.1,10.9,33.5
		c2.3,6.2,5,12.3,8.4,17.7c3.4,5.4,7.4,10.1,12.5,13.3c12.6,7.9,24.8,11.9,36.5,11.9c9.5,0,18.7-2.7,27.3-7.6
		c8.6-5,16.7-12.3,24.4-21.6c5.2-6.3,11-15.7,17.6-26.5c9.9-16.2,21.5-35.3,33.9-50.2c6.2-7.5,12.6-13.8,18.9-18.2
		c6.3-4.4,12.5-6.8,18.3-6.8c4.7,0,9.3,1.4,14.4,5c5,3.5,10.3,9.3,15.7,17.8c6.7,10.6,11.7,24.2,16,38.3
		c4.3,14.1,8.1,28.7,12.7,41.4c8.2,22.6,22.4,41,34.8,60.2c12.4,19.2,26.5,41.4,44.1,59c17.6,17.6,39.1,30.8,65.7,30.8l0.2,0
		c0.5,0,1-0.1,1.5-0.2c0.2-0.1,0.3-0.1,0.5-0.2c14.8-6.8,27.7-19.5,39.5-33c11.8-13.5,22.4-28.1,31.8-38.8
		c19.9-22.7,39.4-47.9,65.3-62c29-15.8,64.5-29.2,91.8-49.9c30.4-23.1,45.2-48.4,58.6-82c3.7-9.4,4.8-20.7,4.8-32.5
		c0-20.2-3.4-42.1-4.2-57.1c-2.1-34-2.2-68.9-8.2-103.2c-5-27.8-12.4-60.6-32.5-83.3c-25.1-28.3-50.1-56.6-75.2-84.9
		c-8.5-9.5-14.1-24-19.1-39.4c-5-15.4-9.4-31.5-16.4-44.6c-17.2-32.2-36.5-60.8-57.2-90.7c-36-51.9-68.2-106.5-104.4-158.8
		c-22.2-32.1-44.4-64.1-66.6-96.2c-13.9-20-22.2-46.5-32.7-69.7C1140.4,73.4,1138.5,69.4,1136.7,65.3z M1264.9,1203.9
		c-1.6,0-3-1-3.7-2.5c-1-2.1,0-4.7,2.1-5.6c0.3-0.1,0.6-0.3,0.8-0.4c0.2,0,0.4,0,0.6,0l0.3,0c2.3,0,4.3,1.9,4.3,4.2
		c0,1.7-1,3.2-2.4,3.9c0,0-0.1,0-0.1,0.1c-0.1,0.1-0.3,0.1-0.4,0.2c-0.4,0.1-0.9,0.2-1.3,0.2L1264.9,1203.9z"/>
	<path class="accentcolor" d="M17.5,271.6c0.2,2.8,0.4,5.6,0.6,8.5c0.6,0,1.3,0,2,0c5.5,0,11.8,1,20.9,3.1c3.1,0.7,5.7,2.1,8.1,4
		c3.5,2.8,6.6,7,9.5,11.8c2.9,4.8,5.7,10.1,9,15.1c2.9,4.3,4.9,10,6.1,16.5c1.2,6.5,1.7,13.8,1.7,21.3c0,14.2-1.6,28.8-2.4,39.8
		c-5.1,75.3-8.1,149-8.1,224.6c0,30.1-6.8,58.7-16.8,86.7c0.5,6.6,1,13.3,1.5,20c1.1-2.8,2.2-5.6,3.3-8.4
		c11.9-31.2,20.5-63.7,20.5-98.3c0-75.3,3-148.8,8.1-224c0.7-10.7,2.4-25.6,2.4-40.4c0-7.8-0.5-15.6-1.8-22.8
		c-1.4-7.3-3.6-14-7.4-19.7c-4-6-7.5-13.3-12.1-19.8c-2.3-3.3-4.9-6.4-8.2-8.9c-3.2-2.6-7-4.6-11.5-5.6c-9.4-2.2-16.3-3.3-22.8-3.3
		C19.2,271.6,18.3,271.6,17.5,271.6z"/>
	<path class="accentcolor" d="M66.4,944.4c0.3,3.5,0.6,7.1,0.8,10.7c33.6,21.5,67.1,43,100.7,64.5c9.2,5.9,22.6,13,34.5,21.4
		c5.9,4.2,11.5,8.6,15.9,13.3c4.4,4.6,7.7,9.4,9.2,14.2c6.3,18.9,12.9,37.8,12.9,56.1c0,10.7-2.2,21.3-8.1,31.8
		c-18.1,32.7-33.6,54.4-59.3,81.2c-22.4,23.4-48.6,44.6-77.5,60.3c0.3,3.1,0.5,6.1,0.8,9.2c31.1-16.3,59.1-38.9,82.8-63.6
		c26.2-27.3,42.3-49.9,60.6-83c6.6-11.9,9.1-24.1,9.1-36c0-20.3-7.1-40-13.3-58.8c-2.1-6.4-6.2-12.1-11.2-17.4
		c-7.5-7.8-17.1-14.7-26.6-20.6c-9.5-6-18.8-11.1-25.3-15.3C137.2,989.8,101.8,967.1,66.4,944.4z"/>
	<path class="accentcolor" d="M1292.5,1473.3c0.2-0.1,0.5-0.2,0.7-0.3c10.5-5.4,18-13.6,22.7-23c4.7-9.4,6.8-20.1,6.8-31
		c0-19.7-6.6-40.2-16.8-56.1c-5.1-8-11.2-14.8-18-19.7c-6.8-4.9-14.4-8-22.5-8c-7.1,0-14.4,2.5-21.2,7.6c-19.2,14.7-28,39.9-28,64.4
		c0,17.5,4.5,34.7,13.5,48c4.5,6.6,10.2,12.2,17,16.1c6.8,3.9,14.8,6.2,23.6,6.2C1277.2,1477.5,1284.6,1476.1,1292.5,1473.3z
		 M1292.5,1473.3c-1.9,0.6-4.1-0.2-5.1-2.1c-1.1-2.1-0.3-4.7,1.8-5.7c0.1,0,0.2-0.1,0.3-0.1c0.1,0,0.2-0.1,0.2-0.1
		c2.2-0.8,4.7,0.3,5.5,2.5c0.8,2.2-0.3,4.7-2.5,5.5C1292.6,1473.2,1292.6,1473.2,1292.5,1473.3z M1289.5,1465.3
		c-7.1,2.6-13.5,3.7-19.3,3.7c-7.4,0-13.8-1.8-19.4-5c-8.3-4.8-14.9-12.9-19.4-22.9c-4.5-10-6.8-21.9-6.8-33.9
		c0-22.5,8.3-45.3,24.6-57.6c5.6-4.2,10.9-5.9,16.1-5.9c5.8,0,11.8,2.2,17.5,6.3c8.6,6.2,16.6,16.7,22.2,29.1
		c5.7,12.4,9.1,26.5,9.1,39.9c0,9.9-1.9,19.2-5.9,27.2C1304.3,1454.1,1298.3,1460.7,1289.5,1465.3z"/>
	<path class="accentcolor" d="M1416.4,2504.1c1.3-2.6,2.5-5.3,3.6-8.1c-27.1-23.1-54.1-46.2-81.2-69.2c-12.7-10.9-28.4-14.2-44-14.2
		c-16.5,0-33.1,3.7-47.2,6.6c-14.2,2.9-30.2,5.6-45.7,10.1c-15.5,4.5-30.6,10.8-42.8,21.4c-28.6,24.9-53.5,47.4-86.2,65
		c-1.2,0.7-3.2,1.1-5.7,1.1c-4.9,0-11.7-1.7-18.2-3.7c-6.6-2-12.9-4.4-17.8-5.6c-6.5-1.5-13.6-5.5-20.6-10.2
		c-7-4.7-14-10.1-20.6-14.1c-6.6-4.1-13.1-7.5-18.8-11.3c-5.7-3.8-10.7-8-14.6-13.6l0,0c-6.5-9.3-9.5-16-11.2-23.4
		c-1.7-7.4-2.1-15.7-2.9-27.5c-0.1-1.3-0.1-2.6-0.1-3.9c0-12.8,3.9-27.9,8.8-42.9c4.9-15,10.7-30,14.2-43v0
		c8.7-32.6,19.1-65.5,26.5-98.9c8-36.6,13-74,19.5-110.5c2.4-13.8,6.2-29.7,6.2-45.3c0-13.3-2.8-26.8-11.9-38.1
		c-8.8-11.1-19.2-18.7-30.4-23.5c-11.2-4.8-23.3-6.8-35.6-6.8c-20.2,0-41.1,5.2-61,12.2c-19.9,7-38.8,15.7-54.7,22.9
		c-11.5,5.2-25.9,13.5-40.9,20.5c-15,7-30.6,12.5-43.7,12.4c-2.5,0-5-0.2-7.3-0.6c-5.4-1-8.3-2.9-10.1-5.3c-1.8-2.4-2.8-5.7-2.8-9.9
		c0-8.4,3.9-19.9,8.6-30.5c4.7-10.7,10.1-20.5,12.7-27c17.2-42,38.6-93.6,38.6-143.6c0-18.2-2.9-36.2-9.9-53.3
		c-5.7-13.9-15.1-28-27-39.4c-11.9-11.4-26.4-20-42.2-22.3c-15.9-2.3-35.3-5.5-54.5-5.5c-17,0-34,2.5-48.3,10.8
		c-32.6,19-55.6,36.7-78,67.6c-20.9,28.8-36.5,62.3-54,92.3c-4.1,7-8.5,11.7-12.9,14.7c-4.4,2.9-8.9,4.2-13.8,4.2
		c-9.2,0-19.9-4.8-30.9-13c-16.5-12.2-33.5-31.5-47.9-49.7c-7.2-9.1-13.9-18-19.6-25.7c-5.7-7.7-10.5-14.1-14.1-18.4
		c-22-26-44.7-39.4-76.5-48.7c-5.3-1.5-10.6-2.2-15.9-2.2c-13.9,0-27.6,4.7-40.3,11.1c-12.7,6.4-24.5,14.6-34.4,22.1
		c-5.3,4-10.5,8.2-15.5,12.6c0.4,3.5,0.7,7,1.1,10.5c6.3-5.8,12.8-11.3,19.5-16.3c9.7-7.3,21.1-15.2,33.1-21.3
		c12-6.1,24.5-10.2,36.5-10.1c4.6,0,9.1,0.6,13.5,1.9c30.9,9.1,51.3,21.2,72.5,46.1c4.5,5.3,11.4,14.8,19.8,26
		c12.7,16.8,28.7,37.5,45.8,54.1c8.6,8.3,17.4,15.6,26.3,20.9c8.9,5.3,18,8.7,27.1,8.7c6.4,0,12.7-1.8,18.5-5.6
		c5.8-3.8,11-9.6,15.6-17.5c17.8-30.5,33.3-63.8,53.6-91.6c21.7-29.8,43.3-46.5,75.4-65.3c12.3-7.2,27.8-9.6,44-9.6
		c18.3,0,37.4,3.1,53.3,5.4c13.4,1.9,26.5,9.5,37.5,20c11,10.5,19.8,23.8,25,36.5c6.5,15.9,9.2,32.7,9.2,50
		c0,47.6-20.7,98.5-38,140.4c-2.3,5.7-7.8,15.8-12.7,26.8c-4.9,11.1-9.3,23.1-9.3,33.9c0,5.4,1.2,10.8,4.5,15.1
		c3.3,4.4,8.6,7.3,15.4,8.5c2.9,0.5,5.9,0.8,8.8,0.8c15.4,0,31.8-6.1,47.2-13.2c15.4-7.2,30-15.5,40.9-20.4
		c15.9-7.2,34.6-15.8,54-22.6c19.4-6.8,39.5-11.7,58.2-11.7c11.4,0,22.3,1.8,32.2,6.1c10,4.3,19.1,11,27.1,21
		c7.5,9.4,10,20.6,10,32.8c0,14.3-3.6,29.7-6.1,43.9c-6.5,36.8-11.5,74-19.4,110.2c-7.2,32.9-17.6,65.6-26.4,98.5
		c-3.3,12.3-9.1,27.3-14.1,42.6c-5,15.3-9.2,31.1-9.2,45.6c0,1.5,0,3,0.1,4.4c0.8,11.8,1.1,20.4,3.1,28.9c2,8.5,5.6,16.5,12.5,26.3
		v0c4.8,6.8,10.7,11.7,16.9,15.8c6.2,4.1,12.8,7.6,19.1,11.4c6.1,3.7,13,9.1,20.3,14c7.3,4.9,15.1,9.4,23.3,11.4
		c4,0.9,10.4,3.3,17.2,5.4c6.8,2.1,14.1,4.1,20.8,4.1c3.4,0,6.7-0.5,9.7-2.1c33.8-18.2,59.3-41.3,87.8-66.1
		c10.8-9.4,24.7-15.4,39.6-19.7c14.9-4.3,30.7-6.9,45-9.9c14.2-2.9,30.3-6.4,45.5-6.4c14.4,0,27.8,3.1,38.5,12.2
		C1361,2456.8,1388.7,2480.5,1416.4,2504.1z"/>
	<path class="accentcolor" d="M535.5,2568.1c2.9,0.1,5.9,0.2,8.9,0.3c0.3-0.7,0.6-1.3,0.8-1.8c0.6-1,1-1.4,1.5-1.6c0.4-0.2,1-0.4,2.1-0.4
		c2.1,0,5.8,0.9,10.9,2.6c0.2,0.1,0.3,0.1,0.5,0.1c0,0,0,0,0,0c0.1,0,0.1,0,0.2,0h0c0,0,0.1,0,0.1,0c2.7,0.5,5.4,1,8,1.7
		c7.6,0.2,15.5,0.4,23.6,0.6c-8.9-5-18.8-8.8-29.9-10.7c-5.2-1.7-9.4-2.9-13.3-2.9c-2.2,0-4.4,0.4-6.3,1.5c-1.5,0.8-2.7,2-3.7,3.3
		C537.3,2563,536.3,2565.3,535.5,2568.1z M559.6,2567.2c-1.9-0.7-3.1-2.6-2.8-4.7c0.4-2.3,2.6-3.9,4.9-3.5c0.1,0,0.2,0,0.3,0.1
		c0.1,0,0.2,0.1,0.3,0.1c2.2,0.7,3.4,3.2,2.7,5.4c-0.7,2-2.6,3.2-4.6,2.9c-0.1,0-0.2,0-0.3-0.1c0,0,0,0,0,0
		C560,2567.3,559.8,2567.3,559.6,2567.2C559.7,2567.2,559.6,2567.2,559.6,2567.2z"/>
	<path class="accentcolor" d="M1634.4,331.9c0.2-3.1,0.4-6.1,0.6-9.1c-2.6,0.9-5.5,1.7-8.9,2.4c-1.2,0.3-2.6,0.4-4.1,0.4
		c-5,0-11.6-1.6-18.8-4.3c-10.8-4-22.8-10.4-33.8-16.7c-11-6.2-20.9-12.3-27.8-15.7c-33-16.5-59-32.1-88.3-54.4
		c-9.3-7.1-17.6-17.6-24.9-29.1c-7.3-11.5-13.8-24-19.9-35.1c-17.8-32.6-38.1-64.6-53.4-97.9c-3.9-8.4-7.5-16.9-11-25.6
		c-2.9,0.3-5.8,0.6-8.8,1c3.8,9.5,7.8,18.9,12,28.2c15.6,33.9,36.1,66.1,53.7,98.4c6,11,12.5,23.7,20.2,35.6
		c7.6,11.9,16.3,23.2,26.9,31.3c29.7,22.7,56.3,38.7,89.7,55.3c8.4,4.2,23.2,13.5,38.8,21.8c7.8,4.1,15.8,8,23.5,10.9
		c7.7,2.9,15,4.8,21.8,4.8c2,0,4-0.2,6-0.6C1630.3,333.1,1632.4,332.5,1634.4,331.9z"/>
	<path class="accentcolor" d="M1644.9,174.5c0.3-5.3,0.7-10.5,1-15.5c-0.1-0.2-0.2-0.4-0.4-0.6c-17.8-26.6-39.7-54-47.7-84.1
		c-5.7-21.4-8.4-41.1-9-61.7c-2.7,0.5-5.6,1-8.5,1.5c0.7,20.8,3.4,40.8,9.2,62.4c8.7,32.6,31.4,60.4,48.8,86.6
		C1641,166.9,1643.1,170.7,1644.9,174.5z"/>
	<path class="accentcolor" d="M633.2,71.5c-2.9-0.1-5.8-0.2-8.8-0.4c-2.2,7.4-4.7,14.9-7.5,21.4c-2.5,5.8-5.3,10.8-8.2,14.2
		c-1.4,1.7-2.9,3-4.2,3.9c-1.4,0.9-2.6,1.3-3.8,1.5c-3.1,0.3-6.2,0.5-9.3,0.5c-15.7,0-31-4.2-46.4-10.1
		c-15.4-5.8-30.8-13.2-46.5-19.3c-12.7-4.9-24.9-6.8-36.8-6.8c-18.4,0-36.1,4.6-54.5,10c-8,2.3-14.6,6.7-19.9,12.2
		c-8.1,8.2-13.5,18.9-17.6,29.9c-4.1,10.9-6.9,22.2-9.3,31.6c-6.9,26.9-13.2,52.5-17.1,80.1c-9.2,65.4-26.5,134.5-26.5,202.1
		c0,5,0.1,9.9,0.3,14.8c2.8,69.5,15.1,137.9,19.7,206.7c2.3,34.3,18.3,61.8,40.2,83.8c22,22.1,49.9,38.8,76.8,52.3
		c15.8,7.9,33,11.1,50.3,12.6c17.3,1.5,34.6,1.3,50.7,2.1c7.8,0.4,15.3,0,22.1,0.6c6.8,0.6,12.8,2,18.1,5.9
		c15.1,11,22.8,18,33.5,32.9c37.7,52.7,47.3,120.2,58.6,183.9c12.1,68,20.9,133.6,53.5,196.4c16.7,32.2,35.5,57,57.9,85.2
		c7.9,9.9,19,21.6,28.1,34.1c9.1,12.5,15.9,25.6,15.9,37.8c0,1.3-0.1,2.6-0.2,4c-1.8,15.1-10.7,30.3-21.8,44.7
		c-11.1,14.5-24.2,28.1-33.8,40.8c-8.3,10.9-18.1,21.2-29.2,29.1c-11.2,7.9-23.6,13.5-37.4,15.1c-66.5,7.9-133.3,12.8-198.7,30
		c-11.1,2.9-25,8-39.2,12.2c-14.2,4.3-28.7,7.8-40.6,7.7c-2.6,0-5.1-0.2-7.4-0.5c-37.2-5.6-74.4-11.2-111.6-16.8
		c-31.6-4.7-65.4-6.4-95.4-14.3c-34.3-9-68.7-26.7-102.5-39.9c-3.8-1.5-7.5-2.9-11-4.1c0.3,3.1,0.6,6.3,0.9,9.4
		c2.3,0.8,4.6,1.7,7,2.7c33.3,12.9,67.9,30.8,103.5,40.2c31.2,8.2,65.3,9.8,96.3,14.5c37.2,5.6,74.4,11.2,111.6,16.8
		c2.8,0.4,5.7,0.6,8.6,0.6c13.4,0,28.5-3.8,43-8.1c14.5-4.4,28.4-9.4,38.9-12.1c64.4-17,130.8-21.8,197.5-29.8
		c15.4-1.8,29.3-8.1,41.3-16.6c12.1-8.6,22.4-19.5,31.1-30.9c9.1-12.1,22.3-25.8,33.8-40.7c11.4-15,21.3-31.2,23.5-48.9
		c0.2-1.7,0.3-3.3,0.3-5c-0.1-15.3-8-29.8-17.5-42.8c-9.5-13.1-20.8-24.9-28.3-34.4c-22.4-28.2-40.7-52.4-57-83.8
		c-31.8-61.1-40.6-125.7-52.7-193.9c-11.3-63.5-20.9-132.3-60.1-187.4c-11-15.5-20.1-23.7-35.4-34.8c-7-5.1-14.8-6.9-22.4-7.5
		c-7.6-0.6-15.2-0.2-22.4-0.6c-16.5-0.9-33.7-0.7-50.4-2.1c-16.7-1.4-32.8-4.5-47.2-11.7c-26.5-13.2-53.7-29.6-74.6-50.7
		c-20.9-21.1-35.6-46.5-37.8-78.4c-4.6-69.5-16.9-137.7-19.6-206.5c-0.2-4.8-0.3-9.7-0.3-14.5c0-66.1,17.1-134.9,26.4-200.9
		c3.8-27.1,10-52.3,16.9-79.1c3.2-12.6,7-27.8,13.3-40.7c3.2-6.4,6.9-12.3,11.5-16.9c4.5-4.6,9.8-8.1,16.3-10
		c18.3-5.4,35.2-9.7,52.1-9.7c11,0,22.1,1.8,33.8,6.3c15.3,5.9,30.7,13.3,46.5,19.3c15.8,6,32.2,10.6,49.4,10.6
		c3.4,0,6.8-0.2,10.2-0.6c3.7-0.4,6.9-2.1,9.7-4.4c4.9-4.1,8.6-10.2,12-17.2C627.2,90.6,630.5,80.8,633.2,71.5z"/>
</g>
</svg>
