<?xml version="1.0" encoding="utf-8"?>
<!-- Generator: Adobe Illustrator 27.9.1, SVG Export Plug-In . SVG Version: 6.00 Build 0)  -->
<svg class="v" version="1.1" xmlns="http://www.w3.org/2000/svg" xmlns:xlink="http://www.w3.org/1999/xlink" x="0px" y="0px"
	 viewBox="0 0 1656 2572.3" style="enable-background:new 0 0 1656 2572.3;" xml:space="preserve">
     $gradientDefs

     <path class="accentcolor" d="M828,2572.3c344.3,0,476.3-14.1,505.3-15.7c62-3.3,88-42.4,97.8-102.9C1554.2,1695.7,1656,0,1656,0
	s-351.3,75.6-828,75.6S0,0,0,0s101.8,1695.7,224.8,2453.7c9.8,60.6,35.8,99.6,97.8,102.9C351.7,2558.2,483.7,2572.3,828,2572.3z
	 M1360,2529.8c-9.2,3-18.7,4.8-28.3,5.3c-101.5,7.9-203.2,12.5-305.1,13.8c-66.2,1.1-132.4,1.7-198.6,1.8
	c-78.5,0-156.9-0.8-235.3-2.6c-89.5-1.9-179-6.2-268.3-13c-21.1-1.4-40.8-6-55.3-24.4c-13.5-17.2-19.6-39.2-22.8-60.3
	c-17.3-110.7-32.7-221.6-46.2-332.8c-11.6-96.6-22.5-193.4-32.6-290.2C111.6,1291.5,58.8,594.6,23.3,26.6
	c58.9,11.3,118.1,20.8,177.6,28.5c421.6,55.9,827.7,56.4,1252.4,0.3c60.1-7.8,119.9-17.4,179.5-28.7
	c-23.1,370-49.9,739.9-80.3,1109.4c-23.5,285.2-49,560.4-80.5,845.4c-17.2,156.8-37.9,313.2-62.1,469c-3.4,22.3-11.4,48.4-26.3,64.3
	C1377,2521.4,1368.9,2526.6,1360,2529.8z"/>
<g>
	<path class="maincolor" d="M1399.5,2373.4l-1143.1,0c3.6,24.6,7.4,49.1,11.2,73.7c2.6,16.7,7.7,36.6,18.5,50.3
		c10.1,12.8,25.2,15.2,40,16.2c88.9,6.7,178,11.1,267.2,13c78.3,1.7,156.5,2.6,234.8,2.6c66.1-0.2,132.2-0.8,198.3-1.8
		c101.3-1.3,202.6-5.9,303.7-13.8c7.8-0.5,15.6-1.9,23.1-4.2c5.5-2,10.6-5.3,14.7-9.5c11.4-12.1,18-35,20.7-52.6
		C1392.2,2422.7,1395.9,2398.1,1399.5,2373.4z"/>
	<path class="maincolor" d="M252.2,2344.7l1151.5,0c11.9-82.9,23-165.8,33.1-248.9l-1217.6,0c0.8,6.4,1.5,12.8,2.3,19.3
		C230.8,2191.7,241.1,2268.2,252.2,2344.7z"/>
	<path class="maincolor" d="M215.8,2067h1224.5c3.5-29.3,6.9-58.7,10.2-88c9.4-84.2,18.3-169,26.9-254.1l-1298.6,0
		c3.4,34,6.8,67.5,10.2,100.3C197.4,1905.8,206.3,1986.4,215.8,2067z"/>
	<path class="maincolor" d="M175.8,1696.1l1304.3,0c14.4-145,27.7-290.7,40.1-435.3H135.9C148.8,1411.4,162.2,1558,175.8,1696.1z"/>
	<path class="maincolor" d="M133.4,1232h1389.3c2.8-32.7,5.5-65.3,8.2-97.8c11.8-143.5,23.1-287.1,33.8-430.8l-1473.3,0
		C104.5,880,118.6,1058.5,133.4,1232z"/>
	<path class="maincolor" d="M89.2,674.6l1477.6,0c15.3-207.2,29.5-414.4,42.6-621.7c-50.9,9.3-102,17.2-153.3,23.8
		c-426.6,56.4-834.6,55.9-1258-0.3C147.4,69.9,96.9,62,46.6,52.9C58.9,248.8,73.3,460.1,89.2,674.6z"/>
</g>
</svg>
