<?xml version="1.0" encoding="utf-8"?>
<!-- Generator: Adobe Illustrator 27.9.1, SVG Export Plug-In . SVG Version: 6.00 Build 0)  -->
<svg class="v" version="1.1" xmlns="http://www.w3.org/2000/svg" xmlns:xlink="http://www.w3.org/1999/xlink" x="0px" y="0px"
	 viewBox="0 0 1656 2572.3" style="enable-background:new 0 0 1656 2572.3;" xml:space="preserve">
     $gradientDefs

     <path class="accentcolor" d="M828,2572.3c344.3,0,476.3-14.1,505.3-15.7c62-3.3,88-42.4,97.8-102.9C1554.2,1695.7,1656,0,1656,0
	s-351.3,75.6-828,75.6S0,0,0,0s101.8,1695.7,224.8,2453.7c9.8,60.6,35.8,99.6,97.8,102.9C351.7,2558.2,483.7,2572.3,828,2572.3z
	 M1360,2529.8c-9.2,3-18.7,4.8-28.3,5.3c-101.5,7.9-203.2,12.5-305.1,13.8c-66.2,1.1-132.4,1.7-198.6,1.8
	c-78.5,0-156.9-0.8-235.3-2.6c-89.5-1.9-179-6.2-268.3-13c-21.1-1.4-40.8-6-55.3-24.4c-13.5-17.2-19.6-39.2-22.8-60.3
	c-17.3-110.7-32.7-221.6-46.2-332.8c-11.6-96.6-22.5-193.4-32.6-290.2C111.6,1291.5,58.8,594.6,23.3,26.6
	c58.9,11.3,118.1,20.8,177.6,28.5c421.6,55.9,827.7,56.4,1252.4,0.3c60.1-7.8,119.9-17.4,179.5-28.7
	c-23.1,370-49.9,739.9-80.3,1109.4c-23.5,285.2-49,560.4-80.5,845.4c-17.2,156.8-37.9,313.2-62.1,469c-3.4,22.3-11.4,48.4-26.3,64.3
	C1377,2521.4,1368.9,2526.6,1360,2529.8z"/>
<path class="maincolor" d="M1353.1,2509.3c5.5-2,10.6-5.3,14.7-9.5c11.4-12.1,18-35,20.7-52.6c23.8-155.7,44.5-311.8,62-468.3
	c31-278.8,57.4-564.8,80.5-844.8c29.6-360.2,55.8-720.6,78.5-1081.3c-50.9,9.3-102,17.2-153.3,23.8c-426.6,56.4-834.6,55.9-1258-0.3
	C147.4,69.9,96.9,62,46.6,52.9C81.8,612.3,134,1297.5,188.9,1825.2c10.1,96.7,21,193.3,32.6,289.8c13.6,110.9,28.9,221.7,46.1,332.1
	c2.6,16.7,7.7,36.6,18.5,50.3c10.1,12.8,25.2,15.2,40,16.2c88.9,6.7,178,11.1,267.2,13c78.3,1.7,156.5,2.6,234.8,2.6
	c66.1-0.2,132.2-0.8,198.3-1.8c101.3-1.3,202.6-5.9,303.7-13.8C1337.8,2513.1,1345.6,2511.6,1353.1,2509.3z"/>
	
<text class="textcolor" textLength="925" lengthAdjust="spacingAndGlyphs" text-anchor="middle" transform="matrix(1 0 0 1 830.4758 2117.0068)" style="font-family:'Ford-Bronco-Font-Main-Regular'; font-size:102.9744px;">
	<tspan>CUSTOM TEXT</tspan>
</text>
</svg>
