<?xml version="1.0" encoding="utf-8"?>
<!-- Generator: Adobe Illustrator 27.9.1, SVG Export Plug-In . SVG Version: 6.00 Build 0)  -->
<svg class="v" version="1.1" xmlns="http://www.w3.org/2000/svg" xmlns:xlink="http://www.w3.org/1999/xlink" x="0px" y="0px"
	 viewBox="0 0 1656 2572.3" style="enable-background:new 0 0 1656 2572.3;" xml:space="preserve">
     $gradientDefs

     <path class="maincolor" d="M121.1,1579.6c36.8-49.4,73.7-96.8,110.6-142.2c4.8-5.2,9.4-8.6,13.2-9.9c1.3-0.1,1.5,2,0.5,5.2
	c-1.6,5-4,10.3-6.9,14.8c-18.8,30.5-39,54.2-56.5,66.3c-4.3,2.7-9.2,7.3-14.1,13.4l-5.8,9.5c-12.9,21.3-26,42.1-39.2,62.5
	c8.4,87.6,17,174.1,25.9,258.3c14.1-19.1,28.1-39.4,41.8-60.8c19.8-33.8,41.3-62.9,61.9-83.9c4-4.3,7.8-7.2,11-8.3
	c0.9-0.1,1,1.5,0.2,3.8c-1.8,4.7-4.1,9.5-6.7,13.8c-15.6,24.2-31.3,47.9-47.1,71c-0.7,1.1-1.3,2.3-1.9,3.5
	c-4.1,9.2-8.2,18.3-12.1,27.5l-4.5,10.2c-1.3,2.6-2.8,5.1-4.4,7.2c-3.4,4.7-6.9,9.1-10.3,13.1c-8.4,9.7-16.8,19.4-25.2,28.9
	c19.5,182.2,40.2,352.2,61.6,495.7c66.7-76.8,136.3-147.5,207.4-210.6c26.7-28.6,54.2-54.7,82.2-77.8c2.9-1.9,5.6-2.4,7.5-1.4
	c1.2,0.6,1.2,2.8,0,5.1l-4,7.4c-12.5,16.6-25.1,33.2-37.7,49.8c-5.6,8.1-11.9,15.5-18.5,21.7c-8.1,8.5-15.3,18.8-20.8,29.7
	c-57.2,78.5-121.4,147.9-188,203.3c-6.7,8-13.4,15.9-20.2,23.8c1.2,7.9,2.5,15.7,3.7,23.3c9.8,60.6,35.8,99.6,97.8,102.9
	c21.1,1.1,96.5,8.9,268,13.1c27.2-30.6,54.8-60.5,82.7-89.4c5.1-5.9,10.5-11.1,16.1-15.4c2.4-1.7,4.5-1.6,5.4,0.1
	c1.7,3.3,2.2,7.9,1.5,13.3c-0.7,5-0.8,9.7-0.3,13.9c0.2,2.1,1.1,3.7,2.4,4.6c3.5,1.3,7,2.5,10.6,3.6c1.4,0.7,2.3,2.3,2.5,4.4
	c0.2,1.9-0.3,4.3-1.4,6.7c-2.9,6.4-7.1,12.6-11.8,17.6c-15.4,14.8-31.1,28.7-46.8,41.8c51.4,0.9,110,1.4,176.5,1.4
	c344.3,0,476.3-14.1,505.3-15.7c62-3.3,88-42.4,97.8-102.9c1-5.9,1.9-11.8,2.8-17.7c-14.5,19.8-29,40.4-43.4,61.7
	c-7.3,10.2-14.7,17.9-21.2,22.1l-3,0.8l3.5-7.8c19.8-31.8,40.3-60.8,60.8-85.9c2-2.7,4-5.4,6-8c11-70.4,21.7-148,32.3-230.9
	c-36.5,48-72.5,96.5-108.1,145.6c-9.3,14.5-19.5,28.3-30.4,40.9c-1.8,1.9-3.8,2.6-5,1.9c-1.2-0.8-1.5-2.8-0.6-5.3l11.8-21.4
	c19.3-28.2,39.5-55.5,60.6-81.6c1.8-2.6,3.1-5.5,3.6-8.1c0.6-3.2,0.3-6-0.7-7.9c-1.7-3.1-3.5-6.1-5.3-9.2l-1.9-5.3
	c0.1-4.3,2-9.5,5.1-14.2c8.1-12.6,17-24.6,26.6-35.5c17.6-21.6,35-43.3,52.4-65.1c1.8-14.6,3.5-29.3,5.3-44.2
	c-4.1,2.8-8.2,4.8-12,5.8c-1.2,0.2-2-0.5-2.2-1.8c-0.2-1.1,0.3-2.6,1.3-4c5.1-6.4,10.1-12.8,15.2-19.1
	c8.8-75.4,17.5-154.1,25.9-234.8c-10.1,9.6-20.3,19-30.6,28.2c-4.2,3.7-7.9,8.9-10.3,14.4c-16.9,34.4-40,66.6-65.9,91.8
	c-2.3,2-4.7,3.6-6.9,4.7c-2,1-3.8,1.4-5.5,1.3c-3.3-0.2-6.1-1.3-8.5-3.1c-1-0.8-1.5-2.4-1.2-4.5c1-5.1,3.8-10.7,7.6-15.1
	c41.3-43.4,82.3-87.6,122.9-132.6c10.4-100.4,20.4-203.7,30-307.8c-7.9,7.9-15.9,15.5-24.1,22.6c-0.6,0.5-1.2,0.8-1.7,0.9
	c-0.1,0-0.2,0-0.2-0.1c0-0.1,0-0.3,0.1-0.4c9-12.3,18.1-24.5,27.1-36.8c6.1-66.7,12.1-133.6,17.8-200.2c-9.8,8.9-19.8,17.2-29.8,25
	c-1,0.7-1.9,0.5-2.2-0.4c-0.3-1,0.2-2.5,1.1-3.8c10.4-13,21.2-25.4,32.2-37.1c12.2-142.4,23.6-283,33.8-415.8
	c-14.7,21.1-29.7,37.2-43.1,46.2l-7.8,6.6l-17.3,23.3c-24.8,34-49.8,63.4-74,87c-8,8-16.5,19.4-24.1,32.8
	c-7.5,13.9-14.9,28-22.2,42.2c-4.6,9.4-10.1,17.8-15.5,23.5c-6.2,6-12.1,9.8-17,11.2c-6.5,2.4-13.6,7-21.3,13.5
	c-78.4,88.4-157.8,195.1-234.6,314.9c-11,18.9-21.9,38.1-32.6,57.4c-4.2,7.3-8.9,12.7-12.7,14.6l-5.9,2.3
	c-5.9,1.1-13.8,7.8-21.8,18.4c-67.9,94.4-136.4,181.1-204.2,258.8c-13.4,17.1-26.8,33.5-40.2,49.1c-6.8,7.1-13.1,11.5-18.3,12.8
	c-4.6,1.3-9.9,4.7-15.5,9.9c-63.9,72.4-128,147.8-192.3,226.1c-7.3,8.8-14.5,15.6-21.1,20.2c-1.1,0.6-1.7-0.1-1.5-1.7
	c0.2-2.6,1.1-5.9,2.5-9.4c3.8-9.8,8.7-19.8,14.1-28.7c20.6-30.3,41.4-59.2,62.3-86.7c133.2-161.1,266.6-330.6,399.9-507.9
	c77.5-109.5,156.1-202.4,231.2-273.5c68.9-80.8,138.1-167.7,207.1-259.9c43.5-61.9,87.4-117.6,130.7-165.7
	c3.2-41.9,6.3-83,9.2-122.9c-19.2,15.8-38.3,31.7-57.4,47.8c-0.8,0.6-1.4,0.5-1.6-0.2c-0.2-0.7,0.2-1.8,0.9-2.7
	c6.6-7.6,13.3-14.8,20.2-21.7c13.6-11.2,26.7-24,39.1-38.2c1.9-26,3.8-51.6,5.6-76.6c-18.4,20.8-37.6,39.9-57.2,56.8
	c-3.7,3.1-7.4,4.3-10.1,3.3c-3-1.2-4.6-4.5-4.5-9.2l0.1-7.3c-0.2-3.8-2.8-5.1-6.4-3.3c-4.7,2.8-9.5,7-13.8,12.2
	c-26.8,33.4-55.3,64-84.8,90.7c-2.7,1.9-5.3,2.6-7.2,1.8c-1.2-0.5-1.4-2.6-0.3-4.9c3.2-6.8,7.4-13.3,12.2-18.9
	c27.4-33.2,55-66,82.9-98.4c18.3-24.6,38.7-46.1,59.8-63c0.6-0.4,1.2-0.4,1.4,0s0.1,1.2-0.3,2c-4.1,8.1-8.9,15.9-14.1,23.4
	c-2.9,4.1-5.3,8.4-7.2,12.9c-0.3,0.7-0.3,1.3-0.1,1.6c0.2,0.4,0.6,0.4,1.1,0.2c4.6-2.4,9.4-6.1,13.9-10.9
	c12.8-13.9,25.5-28,38.2-42.3c12.9-181.4,22.7-330.1,28.6-422.5c-15.9,22.8-32.3,45-49.2,66.8c-8,11.6-17.2,21.9-26.8,30l-14.3,10.2
	c-18.4,12.7-36.7,29.1-53.9,48.2c-6.6,8.1-13.3,16-20.1,23.8c-3.7,4.4-8,7.4-11.7,8.4c-1.3,0.2-2-1-1.7-2.8
	c0.6-3.5,2.1-7.2,4.2-10.8c4.8-7.7,9.8-15.4,14.9-22.9c50.6-67.6,104.6-130.6,160.9-187.5C1654.6,23.6,1656,0,1656,0
	s-263.3,56.7-643.3,71.9c-1.3,2-2.6,4.1-3.8,6.2l-10.2,13.6c-4.1,7.2-7.5,14.7-9.9,22.1l-3.7,10.9L970.3,144
	C846.4,280.4,723,417.9,600.2,556.4c-10.1,12.2-20.8,23.4-31.8,33.3c-2.1,1.6-4.2,2.6-6,2.9c-1.5,0.2-2.6-0.3-3.3-1.5
	c-1.5-3.6-0.9-9.3,1.8-15.3l5.9-10.6c15.6-24.5,32.2-48.4,49.7-71.2c60.4-74.3,122.3-146.1,185.6-214.9
	c62.1-72.5,126-141.5,191.1-206.5c-53,1.9-108.1,3-165.1,3c-225.9,0-423.7-17-569.3-34.9c-45.5,70.3-96.9,135.7-151.9,193.2
	c-12.2,17.1-26.7,30.9-41.1,39.3l-7.4,4.4c-6.1,5.7-11.9,12.5-16.9,20c-6.6,9.9-13.4,19.8-20.2,29.5C27.8,424.1,35.8,538,45,662.9
	c6.5-7.4,13-14.7,19.5-22.1c5-4.8,10.1-8.3,15-10.4c1.8-0.5,2.9,0.8,2.6,3.1c-0.5,3.7-2.1,7.8-4.5,11.6c-9.1,14.7-19.7,28-31,39.2
	c6.6,89.1,13.8,183.6,21.5,281.2c22.6-25.3,44-53,63.4-82.4c16-27.6,36-52.8,57.6-72.5c4.1-4,8.4-7,12.5-8.7
	c1.3-0.3,1.9,0.7,1.5,2.4c-0.8,3.6-2.4,7.3-4.6,10.9c-13.4,20.2-27.2,40.1-41.2,59.8c-0.6,0.9-1.1,1.9-1.4,2.8
	c-2.6,7.1-5.1,14.2-7.5,21.3l-2.7,7.9c-1,2.1-2.2,4.1-3.6,5.9c-3.2,4.1-6.5,7.9-9.9,11.5c-18.7,19.6-37.5,38.9-56.4,57.9l-6,4
	c2,25.6,4.1,51.5,6.2,77.5c45.6-52.5,91.2-103.7,136.6-153.6c6.6-8.3,13.1-18,18.9-28.3c3.2-5.3,6.5-10.6,9.9-15.7
	c1.3-2,2.7-3.8,4-5.4c6.8-7.2,13.5-13.7,20-19.2c8.2-6.9,16.8-15.9,25.6-26.7c45.3-61.3,91.1-117.7,136.4-167.8
	c5.7-6.8,11.2-12.2,16.2-15.6c2.2-1.4,3.1,0.4,2.1,4.2c-1.7,5.8-4.8,12.6-8.6,18.8c-24.8,39.3-51.1,75.1-77.3,105
	c-27.2,27.1-55.3,60.9-82.8,99.5c-3.1,4.4-6,9.2-8.5,14.2c-1.5,2.9-2.6,5.8-3,8.1c-1.3,5.8,0.2,8.5,3.7,6.9c4.4-2.1,9.6-6.8,15-13.3
	c47.3-61.9,94.7-112.6,138.4-147.8c13.6-10.4,26.8-19.1,39.2-25.9l14-12c12-13.1,24-26.5,36-40.3c4.5-5.2,8.8-8.6,12.2-9.7
	c1-0.3,1.4,0.6,1.1,2.4c-0.4,1.8-1.4,4.2-2.8,6.3c-12.8,17.8-25.8,34.6-38.7,49.9c-57.3,74.9-114.7,149.5-172.1,223.5
	c-74.7,79.9-150.2,167-225.8,260.3C96.7,1313.2,108.6,1447.5,121.1,1579.6z M654.8,2246.5c50.3-44.3,100.3-91,149.6-139.9
	c5-5.4,10.3-9.8,15.6-12.6c3.7-2.4,7.2-2.8,9.4-1.1c2.2,1.7,3,5.4,2,9.9l-2.1,6.5c-2.8,5.3-6.5,10-10.6,13.5
	c-44.1,38.9-86.9,84.2-126.9,134.2c-30.4,30.7-61.5,59.1-92.9,84.9c-4.9,5.7-10.2,10.4-15.5,13.9c-3,1.9-5.8,2.2-7.6,0.7
	c-1.8-1.5-2.3-4.5-1.5-8.3c1.6-5.9,4.6-12,8.5-17.6C604.1,2298.6,628.8,2269.8,654.8,2246.5z M1061,2373.7
	c-28,34.2-56.5,67.7-85.5,100.3c-3.8,4.7-8.1,8.3-12.2,10c-2.4,1-3.8-0.5-3.3-3.5l8.4-18.1c24-39.5,53.6-74.8,85.1-101.5
	c9-10.1,18.6-18.6,28.3-24.8c1.5-0.9,2.8-0.4,3,1.1c0.3,1.7-0.4,4.2-1.8,6.4C1075.8,2353.9,1068.5,2363.9,1061,2373.7z M1228.3,2164
	c8.9-4,18.2-12.7,25.5-23.7c30.9-45,65.8-86,102.5-120.6c4.7-5,9.5-9.6,14.4-14c3.3-3,6.7-5.6,10-7.9c3.6-2.5,7.1-3.5,9.9-2.9
	c1.5,0.3,1.8,2.6,0.7,5.2c-5.8,13.6-13.8,26.9-23.3,38.6c-63.4,70-128,137.1-193.6,200.8c-10.6,12-22,22.2-33.4,30.2l-5.5,2.2
	c-2.6-0.4-3.3-4-1.5-8.3c2.5-7,6.3-14,11-20.2c15.2-20.4,31.4-39.7,48.2-57.4C1205,2176.5,1216.8,2169.1,1228.3,2164z
	 M1130.5,2132.5c-19.5,29.8-40.6,58.2-62.8,85c-7.6,9.5-16.1,17.2-24.6,22c-1.1,0.6-2.1,0.6-2.7,0c-0.4-0.4-0.4-1.3,0.1-2.3
	c22.7-37,47.7-72.6,74.3-106c7.1-9.7,15.3-17.6,23.6-22.7c1.5-0.8,2.8-0.6,3.4,0.5c0.6,1.2,0.4,3.1-0.5,5.1
	C1138.3,2120.5,1134.6,2126.7,1130.5,2132.5z M891.8,2324.3c3.2-3.3,6.3-6.9,9.3-10.7c1.7-2.2,3.3-4.6,4.7-7.1
	c32.1-55.7,71.2-107.4,113.8-150.4c6.9-9,13.5-18.4,19.7-28c5.5-9.4,11.9-18.2,18.8-26.1c2.1-2.1,4.3-3,5.9-2.3
	c1.4,0.6,1.7,2.6,0.9,5.1c-2.9,7.2-6.8,14.3-11.4,20.9c-59,76.9-115.7,156.6-169.6,238.5c-5,7.5-10.8,14.1-17,19.3
	c-5.8,5.1-11.6,6.2-14.5,2.6c-2.9-3.6-2.2-11,1.7-18.6l6.3-8.7C870.7,2347.2,881.2,2335.7,891.8,2324.3z M1170.8,1963.9
	c-16.4,26.6-36.8,49.7-58.2,65.8c-0.9,0.6-1.6,0.4-1.8-0.3c-0.2-0.8,0.1-2.1,0.9-3.2c42.1-59.8,86.9-116.9,133.7-170.2
	c10.1-14.4,20.1-28.9,30-43.5c3.7-5.3,8.4-9.1,12.4-9.7c1.7-0.3,2.7,1,2.3,3.2c-0.6,3.9-2.2,8.2-4.6,12.2
	c-7.9,12.7-16.6,24.7-25.9,35.9C1227.9,1887.1,1198,1924.2,1170.8,1963.9z M370.2,2447.4c10.9-13.5,22-26.7,33.4-39.3
	c5.3-5.7,10.2-12.1,14.6-19c5-7.9,9.3-16.1,12.8-24.4l4.8-13.2l20.7-27.6c25.9-29.6,51.3-60.3,75.9-92.1
	c10.4-13.4,22.5-23.7,34-29.1c1.2-0.4,2,0.1,2.3,1.2c0.3,1.2-0.1,3-1,4.7c-13,20.7-26.8,40.9-41.2,60.4c-9.4,14-18.7,28-27.8,42.2
	c-3.9,7.7-9,15-14.6,21.2c-20.6,21.6-41.1,43.6-61.3,66.1c-17.8,25.5-37,49.6-57.1,71.7c-3.9,4.2-8.1,7.2-12,8.5
	c-1.3,0.3-1.9-0.8-1.6-2.5c0.6-3.1,2.1-6.4,4-9.4C360.5,2460.2,365.3,2453.7,370.2,2447.4z M1283.3,1559.4
	c-28.2,32.6-57.7,62.6-87.8,89.3c-3.7,3.2-7.4,5.1-10.6,5.5c-2.3,0.5-3.6-1.4-3-4.6l2.9-6.3c11.7-20.9,25.8-40.6,41.4-57.4
	c19.7-23.9,40.3-46.3,61.3-67c6.3-6,12.8-7.2,15.6-2.9c2.8,4.3,1.3,13-3.7,21C1294.9,1545.2,1289.4,1552.8,1283.3,1559.4z
	 M1351.8,431.8c-1.1,1.7-1.6,3.6-1.4,5c0.2,1.3,1,1.8,2.2,1.4l15.3-11.3c18.4-16.4,36-35.9,52-57.6c3.8-5.8,8.5-10.7,13.3-13.9
	c3.2-1.9,5.8-0.9,6.1,2.3c0.5,4.7-1.1,10.7-4.2,16.6c-5.5,9.7-11.5,19.3-17.8,28.5c-18,29.8-39.2,57.6-62,81.5
	c-14.5,11.5-29.1,22-43.6,31.2c-9.7,6.9-19.2,16.2-27.8,27.1c-29.4,37.5-60.1,72.9-91.7,105.9c-8.8,11.3-17.8,22.2-27,32.7
	c-2.4,2.3-4.9,3.4-6.7,2.8c-1.5-0.5-1.9-2.7-1-5.4c2.3-6.8,6-13.7,10.6-19.9c29.8-34.8,60.9-66.7,92.8-95.1
	c8.6-7.2,14.8-20,13.8-28.7c0.3-3.2-0.8-5.4-3-5.7c-2.2-0.3-5.1,1.2-7.7,4.1c-2.9,3-5.6,6.4-8.1,10.1c-1.3,2-2.8,4-4.3,5.8
	c-5.5,7.8-11.8,14.6-18.3,19.9c-1,0.8-2,0.7-2.3-0.1c-0.4-0.9-0.1-2.3,0.7-3.8c16.7-27,35.6-52.5,55.9-75.4
	c29.6-37.2,59.9-73.2,90.9-108.1c2.6-3.1,5.4-5.9,8.2-8.3c1-0.9,2.1-1.5,3-1.6c1.3-0.1,2.2,0.6,2.5,2s0,3.2-0.9,5.1
	c-0.6,1.4-1.3,2.8-2.2,4.1c-3.4,4.9-6.9,9.7-10.6,14.3C1369.3,408.4,1360.4,419.9,1351.8,431.8z M786.1,897.2
	c-62.3,81.1-128.1,157.4-196.1,227.7c-12.8,15-25.9,29.6-39.2,43.7c-7,6.6-14.3,11.4-21.2,13.7c-5.9,2.2-12.2,6-18.3,11
	c-64.3,65.8-127.9,133.6-190.7,203.2c-7.2,7.8-14.9,14.4-22.5,19.3c-1.3,0.7-2.4,0.5-2.7-0.6c-0.6-1.7-0.5-4.1,0.2-6.8
	c1.9-7.5,5.3-15.3,9.8-22.7c18.4-25.7,37.5-50.5,57.2-74.4c130.5-143.6,258.6-292.7,383.6-446.7c70.5-93.7,148.2-177,228.8-245.4
	C1043.3,546.6,1110,470,1174.7,390c49.4-66.3,103.2-126.5,159.3-178.3c2.8-1.9,5.4-2.5,7.2-1.5c1.2,0.7,1.2,3-0.1,5.3
	c-4.9,7.9-9.8,15.7-14.8,23.5l-4.3,7.8c-1.6,4.9-0.6,8.7,2.5,9c6.8,0.7,15.2-2.8,23.6-9.8c35.5-31.2,70.8-63.7,105.7-97.4
	c7.1-7.4,14.5-13.6,21.9-18.2c5-3.1,9.7-4,13-2.2c2.6,1,3.2,4.7,1.7,9.4l-9.5,15.5c-21.1,33-48.7,59-74.8,70.2
	c-14.5,5.7-29.6,15-44.6,27.3c-4.6,3.3-9.2,6.3-13.9,9.2c-2.2,1.4-4.5,2.5-6.6,3.4c-4.2,1.7-8.6,4.1-13,7.1
	c-2.2,1.5-4.4,3.7-6.4,6.2c-14.6,22.2-32.7,40.7-50.9,52.2l-8.6,6.6l-16.2,20.2c-23,29.3-47.7,55.8-73.4,78.2
	c-8.5,7.5-16.3,17.4-22.4,28.3c-5.7,11.2-11.2,22.5-16.5,33.8c-3.1,7.4-8,14.5-13.6,19.7c-6.7,5.7-13.5,10-19.9,12.4
	c-8.2,3.5-16.6,8.6-25.1,15.1c-79,80.4-153.3,172.9-219.1,272.9c-8.9,15.5-17.4,31-25.7,46.7c-3.3,5.9-8.1,10.9-12.7,13.2l-7.5,3.3
	C802.4,881.3,793.7,887.9,786.1,897.2z M731.1,760.8c-28.4,32.3-57.5,63.2-87,92.4c-7.8,8.1-16.3,12.9-23.2,13.1
	c-1.6,0-2.3-1.6-1.9-4c0.6-3.1,2.2-6.5,4.5-9.3c41-45.4,82.8-89,125.2-130.6c4.9-4.4,9.9-7.3,14.4-8.5c0.9-0.1,1.6,0.3,1.9,1.3
	c0.3,0.9,0.1,2.3-0.5,3.7c-2.5,6.1-6.2,12-10.5,17C746.5,744.2,738.8,752.5,731.1,760.8z M1143.7,265.4
	c-10.7,11.5-22.1,20.8-33.4,27.2c-1.1,0.5-2,0.4-2.4-0.5c-0.4-0.7-0.1-2,0.6-3.2l11.8-15.1c52.1-65.4,105.7-128.3,160.7-188.5
	c7.4-8.1,15.3-14.4,23-18.2c1.2-0.6,2.2-0.3,2.6,0.8c0.3,0.9,0,2.4-0.9,3.7C1255.1,141.3,1200.6,206.5,1143.7,265.4z M558.6,734.2
	c-12.2,14.1-24.7,27.8-37.4,40.9c-7.3,8.1-15.4,13.7-22.6,15.6c-1.2,0.2-2.1-0.4-2.4-1.6c-0.3-1.1-0.1-2.8,0.7-4.5
	C506,767,518,750.7,531.4,738c42.7-53.5,88-102.6,134.8-146c0.1,0,0.1-0.1,0.1,0c0,0,0,0.1,0,0.2c-0.1,0.3-0.3,0.6-0.5,0.8
	c-4,4.3-7.9,8.8-11.7,13.6C625.7,652.4,593.4,695.6,558.6,734.2z M203.8,428.8c-29,44.2-63.9,82.6-100.1,110.5
	c-0.8,0.6-1.6,0.7-2.1,0.3c-0.3-0.3-0.3-1.1,0.2-1.8c7.7-10.8,16-20.9,24.7-30c24.5-26.6,48.7-54,72.5-82.1
	c6.6-8.8,14-16.3,21.6-21.7c0.4-0.3,0.8-0.3,1-0.1c0.2,0.2,0.3,0.6,0.2,1.1c-0.4,1.8-1.4,3.8-2.7,5.5
	C214.1,416.6,209,422.8,203.8,428.8z M1127.3,1537.6c-1.3,2.1-2.3,4.5-2.6,6.5c-0.3,1.8,0,2.9,0.9,2.7l13.7-11.2
	c17.4-17.3,35.5-39.3,53.2-64.8c4.5-7,9.1-12.4,13.3-15.4c2.7-1.7,4,0.4,3.1,5.1c-1.3,6.7-4.4,14.7-8.4,22
	c-6.9,11.9-14,23.4-21.3,34.4c-21.9,36.2-45,68.6-67.8,95.1c-13.3,11.7-26.2,21.9-38.7,30.4c-8.6,6.7-17.9,16.8-27.2,29.4
	c-31.7,43.4-63.6,83.7-95.3,120.1c-9.5,13.1-19,25.6-28.6,37.5c-2.3,2.6-4.3,3.3-5.2,1.9c-0.8-1.2-0.3-4.3,1.2-7.8
	c3.8-8.8,8.6-17.4,13.6-24.6c31.1-39.6,62-74.7,92.3-104.7c8-7.5,16.4-23.5,18.7-35.9c1.3-4.4,1.3-7.8,0-8.9
	c-1.3-1.1-3.7,0.1-6.3,3.3c-2.9,3.3-5.8,7.3-8.7,11.7c-1.6,2.4-3.1,4.7-4.7,6.8c-6.2,9.2-12.6,16.8-18.6,22.2
	c-0.9,0.7-1.5,0.4-1.4-0.8c0.1-1.3,0.7-3.3,1.7-5c20-32.7,40.9-62.6,61.8-88.4c31.8-42.9,63.7-84.2,95.5-123.5
	c2.7-3.5,5.5-6.5,8.1-9.2c1-1,1.9-1.4,2.5-1.3c0.8,0.3,1.2,1.6,0.9,3.6c-0.3,2-1.1,4.5-2.3,6.9c-0.8,1.8-1.8,3.5-2.8,5
	c-3.9,5.8-7.8,11.4-11.7,16.8C1146.5,1510.2,1136.8,1523.6,1127.3,1537.6z M1277.8,1331.4c57-81,114.6-154,171.5-217.4
	c15.9-19.4,31.7-36.6,47-51.2c0.7-0.5,1.1-0.3,1.1,0.5c0,0.8-0.5,2-1.1,3c-38.8,64.1-78.8,124.7-119.4,180.6
	c-9.1,13.8-18.5,25.4-27.5,33.8l-12.7,10c-16.2,12.2-33.5,29.5-51.2,51c-7,9.3-14.1,18.3-21.1,27.2c-3.9,5-7.7,7.9-10.4,8.2
	c-0.9-0.2-0.9-2-0.1-4.4c1.6-4.6,3.8-9.5,6.4-13.8C1266.1,1349.5,1271.9,1340.3,1277.8,1331.4z M616.5,1808.5
	c-29.3,36.5-58.6,70.8-87.6,102.7c-7.8,9-14.9,13-19.4,11.2c-1-0.6-0.9-3,0.2-6.2c1.5-4.1,3.7-8.4,6.1-11.7
	c42-51.1,83.8-99.3,125.3-144.5c4.6-4.7,8.9-7.2,12.2-7.5c0.6,0.1,0.9,1,0.8,2.4c-0.1,1.4-0.7,3.2-1.6,5
	c-3.7,7.7-8.1,14.9-12.6,20.6C632,1790,624.3,1799.3,616.5,1808.5z M1051.7,1241.4c-10.8,12.8-21.3,22.3-30.8,27.9
	c-0.9,0.4-1.4-0.1-1.4-1.4c0-1.1,0.6-2.8,1.5-4.3l12.8-17.6c55.9-75.6,112-147.3,168-214.6c7.5-9.1,14.8-15.4,21-18.4
	c1-0.4,1.5,0.3,1.4,1.9c-0.1,1.3-0.8,3.3-1.8,4.8C1165.9,1101.9,1108.6,1176.4,1051.7,1241.4z M515.4,1718.7
	c-12.7,16-25.4,31.3-38.1,45.8c-7.5,9.1-14.6,14.5-19.9,14.9c-0.8-0.1-1.2-1.2-1-3c0.2-1.7,0.9-3.9,2-6
	c11.9-21.8,25.2-40.9,38.2-54.6c45.8-61.8,91.8-116.6,136.7-163.1c0-0.1,0.1-0.1,0.1,0c0,0,0,0.1,0,0.2c-0.2,0.4-0.4,0.7-0.6,0.9
	c-4,4.7-8.1,9.9-12.2,15.4C586.6,1624.8,551,1675.4,515.4,1718.7z M1030.4,938.3l-11.2,16c-5.2,8.9-9.9,18.3-14,27.9l-6.1,14.1
	l-16.2,22.4c-126.4,153-252.9,307.7-379.4,464.1c-10.7,14-21.4,26.4-31.8,36.8c-1.9,1.6-3.6,2.4-4.9,2.2c-1-0.1-1.6-1.2-1.6-3.1
	c0.3-5.5,2.7-13.3,6.4-20.8l7.4-13.1c18.5-29.6,37.3-57.8,56.4-84.5c64.3-85.6,128.8-167,193.1-244
	c77.7-98.9,155.2-189.9,231.8-272.1c48.1-53.4,95.7-102.9,142.7-148.2c4.4-3.3,9.1-8.1,13.9-14.1c30.1-43,60.6-78.6,89.5-104.4
	c0.7-0.6,1.1-0.3,1,0.7c-0.1,1-0.7,2.4-1.5,3.4c-11.2,13.6-22.3,26.6-33.4,39.2c-58.9,81.6-118.4,152.5-176,209.9
	c-11.5,11.1-22.4,19.2-32.2,24c-4.3,2.2-9.4,7.1-14.5,14.1C1043.1,918,1036.7,927.9,1030.4,938.3z M1544.8,347.8
	c-25.8,36.8-52,65.9-75.8,84c-1,0.5-1.7,0.3-2.1-0.5c-0.2-0.5,0-1.5,0.5-2.7l11.1-18.7c21.6-32.1,43.7-60.2,65.2-82.8
	c4.5-4.9,8.9-9.3,13.2-13.1c1.6-1.1,2.6-0.4,2.5,1.7c0,2.7-1,6.4-2.7,10.2C1553.1,333.5,1549.1,340.9,1544.8,347.8z M394.2,1183.4
	c-33.9,53-69.4,96.1-102.2,124c-0.7,0.5-1.3,0.5-1.4-0.2c-0.1-0.5,0.2-1.6,0.8-2.5c8.6-12.7,17.4-24.3,26.2-34.5
	c24.9-29.8,49.8-60.7,74.8-92.7c7.2-10.3,14.6-18.5,21.3-23.8c0.4-0.2,0.6-0.2,0.7,0.2c0.1,0.3,0,0.9-0.3,1.6
	c-0.9,2.4-2.2,4.9-3.6,6.9C405,1169.5,399.6,1176.5,394.2,1183.4z"/>
<path class="maincolor" d="M18.3,284.1C95,211.9,169.4,131,239.8,43.4c1.1-1.5,2.1-3.1,3.2-4.6c-44.8-5.7-84.3-11.4-117.7-16.6
	c-38.7,45.9-77,92.3-115.1,139.2C12.5,197.3,15.3,238.5,18.3,284.1z"/>
<path class="maincolor" d="M6,95.6c19.9-24.2,39.5-48.8,58.7-74c2.2-3,4.5-5.8,6.9-8.2C25.3,5.5,0,0,0,0S2.1,34.4,6,95.6z"/>
</svg>
