<?xml version="1.0" encoding="utf-8"?>
<!-- Generator: Adobe Illustrator 27.9.1, SVG Export Plug-In . SVG Version: 6.00 Build 0)  -->
<svg class="w" version="1.1" xmlns="http://www.w3.org/2000/svg" xmlns:xlink="http://www.w3.org/1999/xlink" x="0px" y="0px"
	 viewBox="0 0 8512.5 2243.3" style="enable-background:new 0 0 8512.5 2243.3;" xml:space="preserve">
     $gradientDefs

 <path class="maincolor" d="M625,478.7c389.8-1,2362.8,27.5,4113.7,21.6c572.9-1.9,1130.4-1.1,1570.4-1.5c321.9-0.3,581-1.9,737.3-1.9
	c826.7-0.1,1313.1,406.6,1441.8,532.1c14.7,14.4,26.3,15.5,24-9c-26.2-283.6-28.7-447.5-18.8-561.5c0.7-41.6-28.6-43.6-46.3-43.6
	c-192.8,0.1-1049.4,16.9-2138,25.1c-492.2,3.7-1031.2,5.7-1576.4,3.5c-1764.2,17.2-3593.2-25.9-4112.9-27
	C373.1,416.2,124.1,154.5,15.6,8c-9.8-13.2-21-9.1-12.6,5C97,171.3,295.5,479.6,625,478.7z"/>

<path class="accentcolor" d="M179.3,227.9c30.2,34.2,217.4,226.3,445.7,226.4c220.5,0.1,441.1,6,661.6,8.5
	c567.3,5.6,1134.6,10.2,1701.9,13.7c583.3,3.6,1166.7,4.6,1750,3.2c523.5-1.2,1047-1.7,1570.4-1.5c0,0,342.6-1.1,578.4-4.3
	s1046-11.4,1207.4-13.9c38.9-0.6,320.6-4.6,357.4-4c0,0.1,0,0.3,0,0.4c-4.5,55.8-6.2,111.9-5.2,167.9c1.3,86.2,13.6,244.9,35.5,370
	c0.1,0.7,0.4,1.3,1,1.8c2.1,2,5.8,0.1,5.6-2.7c-11.2-123.1-19.6-245.9-21.5-369.5c-1-55.6,0.8-111.2,5.2-166.7
	c0.4-7.3-1.1-17.5-9.3-20.1c-5-1.6-11.1-1.9-16.3-1.9c-117.6,0.8-235.1,2.1-352.7,4.1c-595.1,9.2-1190.2,16.2-1785.3,21
	c-525.5,4.2-1051,5.3-1576.5,3.5c-498,4.5-996,5.3-1493.9,2.4c-586.5-3.5-1173.1-9.8-1759.5-18.7l-380.2-5.5
	c-159.8-2.6-319.6-4.3-479.4-5.2C457,436.4,301,331.7,183.3,223.9c-1.1-1-2.7-1-3.8,0C178.3,224.9,178.3,226.8,179.3,227.9z"/>

<text class="textcolor outline" transform="matrix(0.84 0 0 1 8340.147 693.0868)" style=" font-family:'Ford-Bronco-Badlands-Regular'; font-size:211.2063px; text-anchor: end; stroke:#6A6A6A; stroke-width:35; paint-order:stroke; stroke-linecap:round; stroke-linejoin:round;">
	<tspan x="0" y="0">BADBRONCO</tspan>
</text>

<path class="maincolor" d="M7887.5,1682.7c-389.8-1-2362.8,27.5-4113.7,21.6c-572.9-1.9-1130.4-1.1-1570.4-1.5
	c-321.9-0.3-581-1.9-737.3-1.9C639.4,1700.9,153,2107.6,24.3,2233.1c-14.7,14.4-26.3,15.5-24-9c26.2-283.6,28.7-447.5,18.8-561.5
	c-0.7-41.6,28.6-43.6,46.3-43.6c192.8,0.1,1049.4,16.9,2138,25.1c492.2,3.7,1031.2,5.7,1576.4,3.5
	c1764.2,17.2,3593.2-25.9,4112.9-27c246.8-0.5,495.7-262.1,604.3-408.6c9.8-13.2,21-9.1,12.6,5
	C8415.5,1375.2,8217,1683.5,7887.5,1682.7z"/>

<path class="accentcolor" d="M8333.2,1431.9c-30.2,34.2-217.4,226.3-445.7,226.4c-220.5,0.1-441.1,6-661.6,8.5
	c-567.3,5.6-1134.6,10.2-1701.9,13.7c-583.3,3.6-1166.7,4.6-1750,3.2c-523.5-1.2-1047-1.7-1570.4-1.5c0,0-342.6-1.1-578.4-4.3
	s-1046-11.4-1207.4-13.9c-38.9-0.6-320.6-4.6-357.4-4c0,0.1,0,0.3,0,0.4c4.4,55.8,6.2,111.9,5.2,167.9
	c-1.3,86.2-13.6,244.9-35.5,370c-0.1,0.7-0.4,1.3-1,1.8c-2.1,2-5.8,0.1-5.6-2.7c11.2-123.1,19.6-245.9,21.5-369.5
	c1-55.6-0.8-111.2-5.2-166.7c-0.4-7.3,1.1-17.5,9.3-20.1c5-1.6,11.1-1.9,16.3-1.9c117.6,0.8,235.1,2.1,352.7,4.1
	c595.1,9.2,1190.2,16.2,1785.3,21c525.5,4.2,1051,5.3,1576.5,3.5c498,4.5,996,5.3,1493.9,2.4c586.5-3.5,1173.1-9.8,1759.5-18.7
	l380.2-5.5c159.8-2.6,319.6-4.3,479.4-5.2c162.8-0.9,318.7-105.6,436.4-213.3c1.1-1,2.7-1,3.8,0
	C8334.2,1428.8,8334.2,1430.7,8333.2,1431.9z"/>

<text class="textcolor outline" transform="matrix(0.84 0 0 1 109.8069 1884.4944)" style=" font-family:'Ford-Bronco-Badlands-Regular'; font-size:211.2063px; text-anchor: start; stroke:#6A6A6A; stroke-width:35; paint-order:stroke; stroke-linecap:round; stroke-linejoin:round;">
	<tspan x="0" y="0">BADBRONCO</tspan>
</text>
</svg>
