<?xml version="1.0" encoding="utf-8"?>
<!-- Generator: Adobe Illustrator 27.9.1, SVG Export Plug-In . SVG Version: 6.00 Build 0)  -->
<svg class="w" version="1.1" xmlns="http://www.w3.org/2000/svg" xmlns:xlink="http://www.w3.org/1999/xlink" x="0px" y="0px"
	 viewBox="0 0 8439.5 2220" style="enable-background:new 0 0 8439.5 2220;" xml:space="preserve">
     $gradientDefs

<path class="maincolor" d="M634.1,473.8c385.7-1,2338.2,27.2,4070.9,21.4c566.9-1.9,1118.6-1.1,1554.1-1.4c318.6-0.2,575-1.8,729.6-1.9
	c818.1-0.1,1299.4,402.4,1426.8,526.6c14.6,14.2,26,15.4,23.7-9c-26-280.7-28.4-442.8-18.6-555.7c0.7-41.1-28.3-43.2-45.8-43.2
	c-190.8,0.1-1038.5,16.7-2115.7,24.8c-487.1,3.7-1020.5,5.6-1560,3.5C2953.3,456,1143.3,413.4,629,412.3
	C384.8,411.8,138.5,152.9,31,7.9c-9.7-13.1-20.8-9-12.5,5C111.5,169.5,308,474.6,634.1,473.8z"/>

<text class="textcolor outline" transform="matrix(0.84 0 0 1 8340.147 693.0868)" style=" font-family:'Ford-Bronco-Badlands-Regular'; font-size:211.2063px; text-anchor: end; stroke:#6A6A6A; stroke-width:35; paint-order:stroke; stroke-linecap:round; stroke-linejoin:round;">
	<tspan x="0" y="0">BADBRONCO</tspan>
</text>


	<path class="maincolor" d="M7805.4,1665.2c-385.7-1-2338.2,27.2-4070.9,21.4c-566.9-1.9-1118.6-1.1-1554.1-1.4
	c-318.6-0.2-575-1.8-729.6-1.9C632.8,1683.2,151.4,2085.7,24,2209.9c-14.6,14.2-26,15.4-23.7-9c26-280.7,28.4-442.8,18.6-555.7
	c-0.7-41.1,28.3-43.2,45.8-43.2c190.8,0.1,1038.5,16.7,2115.7,24.8c487.1,3.7,1020.5,5.6,1560,3.5
	c1745.8,17,3555.8-25.6,4070.1-26.7c244.2-0.5,490.6-259.4,598-404.4c9.7-13.1,20.8-9,12.5,5C8328,1360.9,8131.5,1666,7805.4,1665.2
	z"/>

<text class="textcolor outline" transform="matrix(0.84 0 0 1 109.8069 1884.4944)" style=" font-family:'Ford-Bronco-Badlands-Regular'; font-size:211.2063px; text-anchor: start; stroke:#6A6A6A; stroke-width:35; paint-order:stroke; stroke-linecap:round; stroke-linejoin:round;">
	<tspan x="0" y="0">BADBRONCO</tspan>
</text>
</svg>
