<?xml version="1.0" encoding="utf-8"?>
<!-- Generator: Adobe Illustrator 27.9.1, SVG Export Plug-In . SVG Version: 6.00 Build 0)  -->
<svg class="w" version="1.1" id="Graphics" xmlns="http://www.w3.org/2000/svg" xmlns:xlink="http://www.w3.org/1999/xlink" x="0px" y="0px"
	 viewBox="0 0 3726.8 270" style="enable-background:new 0 0 3726.8 270;" xml:space="preserve">
     $gradientDefs

	<style type="text/css">
		.maincolor{fill-rule:evenodd;}
	</style>
	<path class="maincolor"  d="M0,270h3726.8v-30.8c0,0-191.9,0-209.5,0c-17.6,0-58.5,0.5-107.3-51.3s-82.8-92.6-102.5-115.1
	C3266,25.1,3238.1,7.3,3137,5.2c0,0-696.9-7-1273.6-4.8S589.8,5.2,589.8,5.2c-101.1,2.1-129,19.9-170.6,67.5
	c-19.7,22.5-53.6,63.3-102.5,115.1s-89.7,51.3-107.3,51.3S0,239.2,0,239.2V270z M2434.7,60.2H2391c-6,0-10.8,4.8-10.8,10.7v110.6
	c0,5.9,4.8,10.7,10.8,10.7h43.7c6,0,10.8-4.8,10.8-10.7V70.9C2445.5,65,2440.7,60.2,2434.7,60.2z M714.2,192.2h4.4
	c5.3,0,13.1-4.3,17.4-9.6l42.5-52.7c1.8-2.3,6.1-0.8,6.1,2.1v49.4c0,5.9,4.8,10.7,10.8,10.7H839c6,0,10.8-4.8,10.8-10.7V70.9
	c0-5.9-4.8-10.7-10.8-10.7h-13.9h-29.8c-7.9,0-22.2,4.3-26.5,9.6l-69,85.6c-1.4,1.8-4.2,1.8-5.6,0c-2.7-3.3-69-85.6-69-85.6
	c-4.3-5.3-18.6-9.6-26.5-9.6h-29.8h-13.9c-6,0-10.8,4.8-10.8,10.7v110.6c0,5.9,4.8,10.7,10.8,10.7h43.7c6,0,10.8-4.8,10.8-10.7
	v-49.4c0-2.9,4.2-4.4,6.1-2.1l42.5,52.7c4.3,5.3,12,9.6,17.4,9.6h4.4H714.2z M1024.8,164.2h111.8c2.3,0,4.2,0.9,5.7,2.6l17.8,20.2
	c3.1,3.5,7.1,5.3,11.7,5.3h52.1c7.3,0,11.2-8.6,6.4-14.1L1131,65.5c-3.1-3.5-7.1-5.3-11.7-5.3h-77c-4.7,0-8.6,1.8-11.7,5.3
	l-99.4,112.6c-4.8,5.5-0.9,14.1,6.4,14.1h52.1c4.7,0,8.6-1.8,11.7-5.3l17.8-20.2C1020.6,165.1,1022.5,164.2,1024.8,164.2z
	 M1100.3,126.9h-39.2c-2.5,0-4-3.3-2.3-5.2c12.8-14.5,16.5-18.7,16.5-18.7c2.8-3.2,8-3.2,10.8,0l16.5,18.7
	C1104.3,123.6,1102.8,126.9,1100.3,126.9z M1411.4,149.4c-2.8,3.2-8,3.2-10.8,0l-74-83.9c-3.1-3.5-7.1-5.3-11.7-5.3h-52.1
	c-7.3,0-11.2,8.6-6.4,14.1l99.4,112.6c3.1,3.5,7.1,5.3,11.7,5.3h77c4.7,0,8.6-1.8,11.7-5.3l99.4-112.6c4.8-5.5,0.9-14.1-6.4-14.1
	h-52.1c-4.7,0-8.6,1.8-11.7,5.3C1467.6,85.6,1415,145.2,1411.4,149.4z M1710.4,136.7h148.4c6.2,0,11.3-5.1,11.3-11.3v-8
	c0-6.2-5.1-11.3-11.3-11.3h-148.4c-2.7,0-5-2.2-5-5v-3.9c0-2.7,2.2-5,5-5h164.3c6.2,0,11.3-5.1,11.3-11.3v-9.6
	c0-6.2-5.1-11.3-11.3-11.3h-191.1c-18,0-41.8,4.9-41.8,27v78c0,22.2,23.8,27,41.8,27h191.1c6.2,0,11.3-5.1,11.3-11.3v-9.6
	c0-6.2-5.1-11.3-11.3-11.3h-164.3c-2.7,0-5-2.2-5-5v-13.3C1705.4,138.9,1707.6,136.7,1710.4,136.7z M2639.1,94.2h158.7
	c5.2,0,9.4-4.2,9.4-9.4V69.6c0-5.2-4.2-9.4-9.4-9.4h-197.1c-15.1,0-31.3,12.2-31.3,27.3v77.4c0,15.1,16.2,27.3,31.3,27.3h197.1
	c5.2,0,9.4-4.2,9.4-9.4v-15.2c0-5.2-4.2-9.4-9.4-9.4h-158.7c-2.9,0-5.3-2.4-5.3-5.3V99.5C2633.9,96.6,2636.2,94.2,2639.1,94.2z
	 M2990.2,141.1l12.1-4.6c2.4-0.9,4.9-0.7,7.1,0.6l90.8,54.4c1.7,1,3.5,1.5,5.5,1.5h70.2c6.4,0,8.7-8.4,3.2-11.6l-110.4-66.2
	c-1.5-0.9-1.3-3.4,0.3-4l99.8-40.2c5.7-2.3,4-10.7-2.1-10.7h-57.1c-1.3,0-2.4,0.2-3.7,0.6l-115,41.8c-2.9,1-6.1-1.2-6.1-4.2V70.9
	c0-5.9-4.8-10.7-10.8-10.7h-43.7c-6,0-10.8,4.8-10.8,10.7v110.6c0,5.9,4.8,10.7,10.8,10.7h43.7c6,0,10.8-4.8,10.8-10.7v-32.9
	C2985,145.2,2987,142.3,2990.2,141.1z M2180.4,108.8h-104.3c-2.3,0-4.2-1.9-4.2-4.2v-8.8c0-2.3,1.9-4.2,4.2-4.2h104.3
	c4.7,0,8.6,3.8,8.6,8.6C2189,104.9,2185.2,108.8,2180.4,108.8z M2078.5,138.5h104c3.6,0,6.5,2.9,6.5,6.5v36.4
	c0,5.9,4.8,10.7,10.8,10.7h43.7c6,0,10.8-4.8,10.8-10.7c0,0,0-39.5,0-40.2c0-12.6-3.8-18.1-6.1-20.2c-0.9-0.8-0.8-1.9,0.1-3.1
	c2.3-2.8,6-9.1,6-19.5V79.9c0-14.4-15.7-19.7-52.5-19.7h-184.4c-6,0-10.8,4.8-10.8,10.7v110.6c0,5.9,4.8,10.7,10.8,10.7h43.7
	c6,0,10.8-4.8,10.8-10.7V145C2072,141.4,2074.9,138.5,2078.5,138.5z"/>
</svg>
