<svg xmlns="http://www.w3.org/2000/svg" viewBox="0 0 1988.23 139.4"><defs><style>.cls-1{fill:#121212;fill-rule:evenodd;}</style></defs><title>Journey-Logo</title><g id="Layer_2" data-name="Layer 2"><g id="Layer_1-2" data-name="Layer 1"><path class="cls-1" d="M-24064.95-10816.79c6.87,10.51,7,20.33,6.81,29.2-.22,9.94.67,23.08-4,31.65s-15.85,15-39.52,15.05l49.3,46.12h-77.35l-37.74-34.82h-63.17v34.82h-70.69V-10834h102.81c32.21,0,69.31-.69,94.39,1C-24089.88-10832.13-24071.83-10827.31-24064.95-10816.79Zm-63,46,0-24.15c-.19-10.16-11.55-11.58-22.41-11.53h-80.22v47.68h71.29C-24151-10758.83-24128.47-10758.54-24128-10770.83Z" transform="translate(25165 10834.17)"/><polygon class="cls-1" points="1681.07 0 1681.07 27.52 1508.12 27.52 1508.12 56.25 1681.07 56.25 1681.07 83.4 1508.12 83.4 1508.12 111.33 1681.07 111.33 1681.07 139.4 1438.03 139.4 1438.03 0 1681.07 0"/><path class="cls-1" d="M-23842.93-10694.77h70l-.09-83.5c-.22-10.19,1.44-20.48-2.79-30.69-10.54-27.42-49.68-25.17-93.6-25.17h-67.09c-32.09,1.09-65.17-2.44-76.26,18.45-3.26,6.15-2.61,13.47-2.61,21.81,0,43.33.22,92.91.19,99.1h69.61l.22-98.49c0-9.91,10.34-11.62,46.39-11.62,41,0,56-.49,56,11.62Z" transform="translate(25165 10834.17)"/><path class="cls-1" d="M-24518.52-10834.17h-70l.09,83.49c.22,10.2-1.44,20.49,2.79,30.7,10.54,27.41,49.68,25.16,93.6,25.16h67.09c32.09-1.09,65.17,2.45,76.26-18.45,3.26-6.15,2.61-13.46,2.61-21.81,0-43.33-.22-92.91-.19-99.09h-69.61l-.22,98.49c0,9.9-10.34,11.62-46.39,11.62-41,0-56,.48-56-11.62Z" transform="translate(25165 10834.17)"/><path class="cls-1" d="M-24629.78-10780.12c0-9.59,1.2-19.25-2.77-28.84-10.54-27.42-49.68-25.17-93.6-25.17h-67.09c-32.09,1.09-65.17-2.44-76.26,18.45-3.26,6.15-2.61,13.47-2.61,21.81,0,15,0,30.65.06,45.05h0c0,9.58-1.21,19.25,2.76,28.84,10.54,27.41,49.69,25.16,93.6,25.16h67.1c32.09-1.09,65.16,2.45,76.26-18.45,3.26-6.15,2.61-13.46,2.61-21.81,0-15,0-30.64-.07-45Zm-172.34,0,0-13.14c0-9.91,10.34-11.62,46.39-11.62,41,0,56-.49,56,11.62v44.44h0l0,13.14c0,9.9-10.35,11.62-46.4,11.62-41,0-56,.48-56-11.62v-44.44Z" transform="translate(25165 10834.17)"/><path class="cls-1" d="M-25094.93-10741.11h-70c-.13,7,0,14.11,2.9,21.13,10.54,27.41,49.68,25.16,93.6,25.16h67.1c32.09-1.09,65.16,2.45,76.25-18.45,3.26-6.15,2.62-13.46,2.61-21.81,0-43.33-.22-92.91-.19-99.09h-69.61l-.21,98.49c0,9.9-10.35,11.62-46.4,11.62-41,0-56,.48-56-11.62Z" transform="translate(25165 10834.17)"/><polygon class="cls-1" points="1774.15 0.07 1847.65 62.65 1921.87 0.07 1988.23 0.07 1889.99 86.64 1889.99 139.33 1806.27 139.33 1806.27 86.64 1706.58 0.07 1774.15 0.07"/></g></g></svg>