<?xml version="1.0" encoding="utf-8"?>
<!-- Generator: Adobe Illustrator 27.9.1, SVG Export Plug-In . SVG Version: 6.00 Build 0)  -->
<svg class="v" version="1.1" xmlns="http://www.w3.org/2000/svg" xmlns:xlink="http://www.w3.org/1999/xlink" x="0px" y="0px"
	 viewBox="0 0 2717.9 2699.6" style="enable-background:new 0 0 2717.9 2699.6;" xml:space="preserve">
     $gradientDefs

<path class="maincolor" d="M470.7,2659.2V2528c0-9.5,6.8-17.1,15.2-17.1h1746c8.4,0,15.2,7.7,15.2,17.1v131.1c43.8-1.5,79.9-3.2,104.7-5.4
	c247.8-21.2,268.2-75.1,313.2-318.9c124.3-673.6-10.8-1930-2.2-2324.7c0.1-6.1-5.6-10.7-11.6-10.1c-3,0.3-624.4,168.1-1292.3,168.1
	S69.6,0.3,66.6,0c-6-0.5-11.7,4.1-11.6,10.1c8.6,394.7-126.4,1651.1-2.2,2324.7c45,243.8,65.4,297.7,313.2,318.9
	C390.9,2655.9,426.9,2657.7,470.7,2659.2z"/>
<path class="accentcolor" d="M1358.9,2485.8h874.6c22.4,1.4,39.6,20.4,38.8,42.8v104.5c25.9-1,51.7-2.5,77.5-4.4c23-1.9,45.9-4.5,68.7-7.7
	c20.9-3,41.7-7.1,62.1-12.5c18.6-4.8,36.4-12,53.1-21.4c14.1-8.2,26.6-18.9,36.8-31.7c24.9-32.1,37.7-74.3,46.7-112.4
	c6.4-27.4,12.4-55.7,17.9-84.4c0.3-1.7-1.7-4-3-2.9c-0.2,0.2-0.5,0.4-0.6,0.7c-0.1,0.1-22.6,102.4-83.2,180.7
	c-28.3,36.5-93.8,46.2-134.2,51.9c-22.2,3.1-44.4,5.6-66.7,7.5c-14.2,1.1-28.4,2-42.5,2.8v-70.1c1-39.7-29.5-73.1-69.2-75.6h-876.6
	H482.3c-39.7,2.5-70.2,35.9-69.2,75.6v70.1c-14.2-0.8-28.4-1.7-42.5-2.8c-22.3-1.9-44.6-4.4-66.7-7.5c-40.4-5.7-106-15.4-134.2-51.9
	c-60.6-78.3-83.1-180.5-83.2-180.7c-0.2-0.3-0.4-0.5-0.6-0.7c-1.4-1-3.4,1.2-3,2.9c5.5,28.7,11.5,57,17.9,84.4
	c8.9,38,21.8,80.2,46.7,112.4c10.2,12.8,22.7,23.5,36.8,31.7c16.7,9.4,34.5,16.6,53.1,21.4c20.4,5.4,41.2,9.6,62.1,12.5
	c22.8,3.2,45.7,5.8,68.7,7.7c25.8,1.9,51.7,3.4,77.5,4.4v-104.5c-0.8-22.4,16.4-41.4,38.8-42.8H1358.9z"/>
<text class="textcolor" transform="matrix(1 0 0 1 504.1995 2657.1602)" textLength="1820" lengthAdjust="spacingAndGlyphs" style="font-family:'Ford-Bronco-Font-Main-Regular'; font-size:169.9018px; letter-spacing:99;">
	<tspan x="0" y="0">$textRef</tspan>
</text>
</svg>
