<?xml version="1.0" encoding="utf-8"?>
<!-- Generator: Adobe Illustrator 27.9.1, SVG Export Plug-In . SVG Version: 6.00 Build 0)  -->
<svg class="v" version="1.1" xmlns="http://www.w3.org/2000/svg" xmlns:xlink="http://www.w3.org/1999/xlink" x="0px" y="0px"
	 viewBox="0 0 2717.9 2666.2" style="enable-background:new 0 0 2717.9 2666.2;" xml:space="preserve">
     $gradientDefs

     <g>
	<path class="maincolor" d="M2077.6,112.6c0,45.5,0,2517.1,0,2550.5c119.7-1.9,221.9-4.8,274.2-9.2c247.8-21.2,268.2-75.1,313.2-318.9
		c124.3-673.6-10.8-1930-2.2-2324.7c0.1-6.1-5.6-10.7-11.6-10.1C2649.4,0.2,2413.9,63.7,2077.6,112.6z"/>
	<path class="maincolor" d="M2059.6,2663.3c0-33.1,0-2500.2,0-2548.2c-6,0.8-12,1.7-18,2.5v2545.9
		C2047.7,2663.5,2053.7,2663.4,2059.6,2663.3z"/>
	<path class="maincolor" d="M1781.8,2665.8v-2518c-134.8,12.4-277.7,20.3-422.8,20.3C691,168.1,69.6,0.3,66.6,0c-6-0.5-11.7,4.1-11.6,10.1
		c8.6,394.7-126.4,1651.1-2.2,2324.7c45,243.8,65.4,297.7,313.2,318.9c184.8,15.8,992.9,12,992.9,12S1558.4,2666.8,1781.8,2665.8z"
		/>
	<path class="maincolor" d="M1799.8,146.1v2519.6c6,0,12-0.1,18-0.1V144.4C1811.8,145,1805.8,145.5,1799.8,146.1z"/>
</g>
<text class="textcolor" transform="matrix(0 -1.2296 1 0 2012.9099 2666.2317)" textLength="2085" lengthAdjust="spacingAndGlyphs" style="font-family:'Ford-Bronco-Font-Main-Regular'; font-size:236.8368px;">
	<tspan>CUSTOM</tspan>
</text>
</svg>
