<?xml version="1.0" encoding="utf-8"?>
<!-- Generator: Adobe Illustrator 27.9.1, SVG Export Plug-In . SVG Version: 6.00 Build 0)  -->
<svg class="v" version="1.1" xmlns="http://www.w3.org/2000/svg" xmlns:xlink="http://www.w3.org/1999/xlink" x="0px" y="0px"
	 viewBox="0 0 2717.9 2666.2" style="enable-background:new 0 0 2717.9 2666.2;" xml:space="preserve">
     $gradientDefs

<path class="maincolor" d="M1358.9,168.1C691,168.1,69.6,0.3,66.6,0c-6-0.5-11.7,4.1-11.6,10.1c8.6,394.7-126.4,1651.1-2.2,2324.7
	c45,243.8,65.4,297.7,313.2,318.9c184.8,15.8,992.9,12,992.9,12s808.1,3.7,992.9-12c247.8-21.2,268.2-75.1,313.2-318.9
	c124.3-673.6-10.8-1930-2.2-2324.7c0.1-6.1-5.6-10.7-11.6-10.1C2648.3,0.3,2026.9,168.1,1358.9,168.1z"/>
<path class="accentoutline" d="M1488.6,1779.2c2.8,2.5,5.6,4.8,8.6,7c3.2,2.4,6.5,4.8,9.9,7c4.5,2.9,8.9,5.5,13.6,7.9c1.6,0.8,3.5,1.6,5.1,2.1
	c2.1,0.6,4.3,0.9,6.5,1.1c0,0-0.1,0-0.1,0c4.9,0.4,10.7,0.2,15.8-0.4l0.2,0c2-0.3,3.9-0.6,5.9-0.9l5.6-0.9c2.8,1.5,0.1,3.8-2.7,6
	c-4.7,3.8-9.4,7.5-14.2,11.2c-4.7,3.6-9.8,7.7-14.4,11.6c-9.7,8.3-16.3,16.2-20.6,28.4c-1.4,4.1-2.7,8.9-3.6,13.3
	c-0.9,4.4-1.6,8.9-2.2,13.4c-0.7,5.1-2.8,9.4-4.9,14.1c-0.5,1.1-1,2.2-1.4,3.2c-0.6,1.5-1.2,3-1.6,4.6c-0.6,2-0.9,4-1,6.1
	c-0.1,2.7,0.3,5.4,1.1,7.9c1,2.9,2.3,5.7,3.9,8.3c1.4,2.3,3.2,4.8,5,6.9c1.1,1.3,2.1,2.7,3.2,4c0.8,1,1.4,2.1,2,3.2
	c0.2,0.5,0.4,1,0.6,1.5c0.4,1,0.7,2,1,2.9c1.5,4.5,2.6,7.4,4.2,11.3c6,14.1,15.1,25.8,28.5,33.5c4.1,2.4,9.2,2.4,13.4,0.1
	c1.9-1,3.5-2.4,4.8-4c1.2-1.4,2.1-2.9,3-4.5c4.9,5.1,10.6,9.5,16.9,12.6c2.7,1.3,5.5,2.4,8.3,3.3c5.5,1.6,11.1-0.3,14.9-4.3
	c2.7-2.9,4.4-6.5,5.7-10.2c1.2-3.6,2.3-7.7,3.1-11.5c1.3-6.3,2.4-13.4,3.1-20c0.5-4.5,1-8.9,1.3-13.4c0.9-10.7,1.4-20.9,1.3-31.5
	c0-4.6-0.2-9.2-0.5-13.7c-0.5-5.5-3.5-10.2-8-13.4c-1.3-0.9-2.5-1.6-3.9-2.3c2.4-3.1,3.6-6.7,4.5-10.5c0.3-1.2,0.6-2.4,1-3.5
	c0.3-0.8,0.6-1.6,1-2.3c0.4-0.7,0.8-1.4,1.4-2c0.7-0.8,1.4-1.5,2.1-2.1c1.2-1,2.5-2,3.8-2.9c4.3-3.1,8.1-5.8,12.4-8.8
	c4.9-3.4,9.8-6.8,14.7-10.1c13.3-9.1,26.6-18.2,39.9-27.3c12-8.2,23.9-16.3,35.8-24.6c5.9-4.1,20.8-14.4,27.1-19.3
	c10.9-8.5,20.2-22.7,26.9-34.5c3-5.4,5.5-10.2,7.8-15.7c2.1-5.1,3.9-10.3,4.8-15.8c0.5-2.7,0.7-5.5,0.5-8.2
	c-0.2-4.7-2.7-8.9-6.5-11.7c-1.8-1.3-3.8-2.4-5.9-3.2c-1.4-0.5-2.9-1-4.4-1.4c-3.6-0.9-7.7-1.7-11.5-2.1c-6.2-0.8-13.2-1.3-19.6-1.6
	c-4.4-0.2-8.7-0.4-13.1-0.5c-7.5-0.2-14.9-0.4-22.4-0.5c-3.4-0.1-6.7-0.1-10.1-0.2c-3.8-0.1-7.7-0.2-11.5-0.4c-4-0.2-8-0.4-12-0.4
	c4.8-5.1,9.6-10.2,14.3-15.3c5.1-5.5,11.1-12.3,16-18.4c1.1-1.4,2.2-2.8,3.2-4.3c1.4-2,2.8-4.2,4-6.4c2.6-5,4.7-10.8,6-16.3
	c1.4-6.1,2-12.4,1.9-18.7c-0.1-2.9-0.3-5.8-0.6-8.8c-0.4-3.1-0.9-6.2-1.5-9.2c-1.3-6.1-2.9-12.1-4.9-18c-1.7-5-3.4-9.9-5.3-14.9
	c-2-5.2-4-10.3-6.1-15.4c-4.4-10.9-8.9-21.7-13.6-32.5l-3.9-9.3l-1.6-3.8c2.7-0.8,5.4-1.6,8.1-2.4c4.4-1.3,8.7-2.5,13.1-3.8
	c7.4-2.1,14.8-4.3,22.2-6.6c3.9-1.2,7.8-2.5,11.7-3.9c4.4-1.5,8.7-3.2,13-4.9c8.7-3.5,17.4-7.8,25.4-12.8c9.4-5.9,17.9-13,24.8-21.8
	c5.1-6.5,9-13.8,11.7-21.7c7.2-21.3,8.9-43.1,4.1-64.8c-1.2-5.5-2.8-11-4.8-16.3c-2.1-5.8-4.6-11.5-7.4-17c-2.8-5.5-5.9-10.8-9.2-16
	c-3.6-5.6-7.4-11.1-11.4-16.5l-8.2-11.1l-10,9.5c-0.3,0.3-0.6,0.6-0.9,0.9c-8.1-9-17.3-17.2-27.1-24.3
	c-20.1-14.6-42.8-24.4-67.1-28.9c-13.7-2.5-27.7-4.2-41.7-4.2c-10.9,0-21.7,1-32.3,3.5c-5.8,1.4-11.4,3.3-16.9,5.7
	c-5.6,2.4-10.9,5.4-15.9,8.8c-8.4,5.7-14.8,11.7-22.1,18.7c-1.4,1.3-2.8,2.7-4.2,4c-1.5,1.4-3,2.7-4.6,4c-2.5,2.1-4.8,3.8-7.5,5.4
	c-2.6,1.6-5.4,2.8-8.3,3.6l-19.7,5.6l14.2,14.7c0.9,0.9,1.8,1.7,2.8,2.5c6.3,4.6,14.1,6.8,21.8,7.1l7.6,8.7c1,1.1,2.1,2.2,3.3,3.1
	c5,3.8,11.1,5.8,17.3,6.4c7.5,0.8,15.3-0.2,22.5-2.2c3.4-0.9,6.7-2,9.9-3.2c10.4-4,22.5-2.9,32.9,0.6c-1.7,2.2-3.1,4.7-4.1,7.3
	l-5,12.6l13,3.7c2.4,0.7,4.9,1.5,7.3,2.4c7,2.6,13.3,5.4,19.9,9.1c4,2.2,7.7,4.8,11.3,7.6c2.1,1.6,4,3.4,5.8,5.3
	c1.9,2,3.5,4.1,5,6.4c1.5,2.5,2.7,5.2,3.4,8c0.7,3,0.8,6.1,0.4,9.1c-0.1,0.9-0.4,1.8-0.9,2.6c-0.7,1.3-1.6,2.6-2.7,3.7
	c-1.3,1.4-2.8,2.7-4.3,4c-5.4,4.3-12.3,8-18.5,10.9c-5,2.3-10,4.4-15.1,6.2c-5.8,2.1-11.6,4.1-17.5,5.9c-14.2,4.3-29.3,8-43.9,11
	c-4.9,1-9.7,1.9-14.6,2.8c-5.1,0.9-12.9,2.2-18.8,2.9c-2.2,0.2-4.4,0.4-6.6,0.6c-2.6,0.2-5.2,0.3-7.8,0.5c-6.2,0.4-11,0.7-16.7,1.4
	c-20.5,2.4-38.4,8.3-56.3,18.5c-4.3,2.4-8.4,5-12.5,7.8c-4.6,3.1-9.1,6.3-13.6,9.6c-4.7,3.4-9.3,6.8-13.9,10.3
	c-9.1,6.8-18.3,13.7-27.4,20.6c-10.2,7.7-20.5,15.5-30.7,23.1c-11.2,8.4-22.5,16.7-33.9,24.9c-12.7,9.1-24.2,17.1-36.9,25.5
	c-6.2,4.1-12.4,8-18.8,11.8c2-8.1,3.2-16.1,3.9-24.3c0.8-10.1,0.4-20.3-1.1-30.4l-4-27.3l-17.6,21.3c-9.6,11.6-19.6,22.8-30.1,33.6
	c-4.9,5-9.9,9.8-15.1,14.5c-2.9,2.6-5.8,5.1-8.8,7.5c-4.3,3.5-10.5,8.1-15.9,10.8c0.3-2.5,0.9-6,1.4-8.7c1.2-6.2,2.7-12.4,4.5-18.6
	l4.6-16.5l-17.1,0.9c-1.3,0.1-2.5,0.2-3.8,0.4c-5.9,1-12,3.1-17.4,5.6c-3.9,1.8-7.7,3.9-11.4,6.2c-6,3.8-11.6,8-16.8,12.7
	c-3.2,2.8-6.3,5.8-9.2,8.8c-0.5-3.9-1.3-7.7-2.3-11.5c-1.4-5.4-3.5-10.6-6.2-15.6c-1.5-2.7-3.2-5.3-5.1-7.7
	c-2.1-2.7-4.5-5.3-7.1-7.6l-17.8-15.7l-2.4,23.6c-0.2,2.3-0.6,4.6-1,6.9c-2.1,11.8-5.5,23.5-10.5,34.3c-2.6,5.5-6.2,11.8-10.1,16.8
	c-1.7,2.2-3.5,4.3-5.3,6.4c-2,2.3-4,4.5-6,6.8c-17.6,19.7-39.2,44.1-54,66.7c-0.6-0.8-1.1-1.7-1.7-2.5c-6.2-8.9-13.5-17.3-22-24.1
	c-3.3-2.6-6.7-5-10.4-7c-4.2-2.4-8.7-4.2-13.3-5.6l-21.1-6.1l5.9,21.1c0.8,2.9,1.5,5.8,2.2,8.6c3.5,14.6,6.1,29.7,7.4,44.6
	c0.6,7.2,1,16.4,0.6,24.2c-0.1,1.6-0.2,3.1-0.4,4.7c-0.5,4.7-1.5,11.3-2.2,16.3c-2.9,20.2-6.2,43.6-6.8,63.7
	c-2.6-0.6-5.2-1.1-7.8-1.3c-3.5-0.3-7-0.3-10.5,0.3l-8.7,1.3l-1.5,8.7c-0.3,1.8-0.6,3.7-0.7,5.6c-0.8,9.6-0.1,19.5,1.6,28.9
	c1.2,6.5,2.9,12.8,5,19.1c1.4,4,3.1,7.9,5.2,11.5c2.3,4,5,7.8,8,11.4c3.1,3.6,6.4,6.9,10,10c1.9,1.6,3.8,3.2,5.7,4.7
	c2.1,1.6,4.3,3.2,6.5,4.8c1.4,1,4.3,3.1,5.4,4c0.4,2.1,1,5.6,1.4,7.9c0.7,4.3,1.4,8.7,2.3,13c0.8,4.1,1.8,8.2,3.1,12.1
	c0.7,2.1,1.7,4.4,2.8,6.4c1.3,2.2,2.8,4.3,4.5,6.3c1.5,1.8,3.1,3.5,4.7,5.2c3,3.1,6.1,6.1,9.3,9l6.2,5.7c2.2,2,4.3,4,6.4,6.1
	c2.9,3,5.7,6,8.6,9.1c8.1,8.7,14.4,15.6,22,24c7.3,8,23.2,25.8,30.7,35.6c0.5,0.7,1,1.4,1.5,2.1c0.4,0.5,0.7,1,1,1.6
	c1,1.8,1.6,4.3,2.1,6.3l0.8,3.8c0.3,1.3,0.6,2.7,1,4c0.6,1.9,1.3,3.8,2.2,5.6c2.3,4.5,6,8.2,10.5,10.5c2.1,1.1,4.3,1.8,6.6,2.3
	c1.8,0.4,3.7,0.7,5.6,0.9c3.3,0.3,6.6,0.4,10,0.3c3.1-0.1,6.2-0.3,9.3-0.5c3.5-0.3,6.9-0.7,10.4-1.1c1.8-0.2,3.5-0.4,5.3-0.6
	c4.3-0.4,8.3-2.1,11.9-4.4c1.9-1.2,3.6-2.6,5.2-4.2c3.3-3.3,5.9-7.6,6-12.4c3.4,0.5,6.7-0.4,9.5-2.3c0.9-0.6,1.7-1.3,2.5-2
	c1-0.9,1.9-1.8,2.7-2.8c1.3-1.4,2.5-2.9,3.7-4.4c1.9-2.4,3.6-4.9,5.2-7.5c1.3-2,2.4-4.1,3.5-6.2c1.7-3.4,3.1-7.2,3.2-11
	c0.1-2-0.2-4-0.9-5.8c-0.7-1.8-1.8-3.7-2.9-5.3c-0.7-1-1.5-2-2.3-3c-1.3-1.6-2.7-3.1-4.1-4.6l-2.8-3.1c-0.9-1-1.8-2.1-2.7-3.1
	c-0.8-0.9-1.5-1.9-2.2-2.9c-0.2-0.3-0.4-0.7-0.6-1.1c0,0,0-0.1-0.1-0.1c-0.2-0.7-0.3-1.3-0.4-2c-0.2-1-0.3-2-0.4-3
	c-0.3-2.3-0.6-4.7-0.9-7c-1-6-2.9-11.8-5.7-17.2c-0.7-1.2-1.3-2.4-2-3.6c-1.3-2.3-2.6-4.6-3.9-6.9c-1.3-2.3-2.5-4.7-3.7-7.1
	c-1-2.1-2-4.2-2.9-6.4c-0.4-1.1-0.8-2.2-1.2-3.3c-0.3-0.8-0.4-1.6-0.6-2.4c-0.1-0.8-0.1-1.5-0.1-2.3c0-1.1,0-2.1,0-3.2
	c0.1-5.4,0.5-13.1,0.9-18.9c0.5-7.4,1-14.8,1.5-22.2c0.3-3.9,0.6-8.9,0.9-12.7c0.1-1.5,0.2-3,0.2-4.5c0-2-0.4-4.1-1.1-6
	c-0.4-1.1-0.9-2.2-1.4-3.2c-0.8-1.6-1.8-3.1-2.8-4.6c-1.1-1.5-2.2-3-3.3-4.5c5.6-2.3,12.6-3,18.5-2.8c1.3,0,2.6,0.1,3.9,0.3
	c0.6,0.1,1.3,0.2,1.9,0.3c0.2,0,0.4,0.1,0.6,0.1c4.4,3.3,13.7,13.3,18.9,19c5.4,5.9,10,11.2,15.1,17.2c1.9,2.3,3.9,4.6,5.7,6.9
	c0.7,0.9,1.5,1.9,2.2,2.8c0.2,0.3,0.4,0.7,0.5,1.1c0.4,1,0.8,1.9,1.1,2.9c3,8.4,6.3,22.3,8,30.3c1,4.6,2.1,10,2.7,14.9
	c0.3,2.8,0.7,5.7,1,8.5c0.6,5.4,1,11.3,0.6,16.7c-0.2,2.6-0.5,5.1-1.2,7.6c-1.1,3.8-1.9,8.2-2.3,12.3c-1.4,12-0.9,24.8-0.3,36.8
	c0.1,1.4,0.1,2.8,0.1,4.2c-0.2,10.1-1.8,24.1-3.5,35.1c-1.8,12-4.5,27.6-7.8,39.7c-1.2,4.3-2.3,8.6-3.4,12.9
	c-0.7,2.8-1.4,5.6-2.2,8.3c-1.1,4.1-1.9,7.1-3.2,10.8c-0.5,1.5-1.2,3-1.9,4.4c-0.3,0.5-0.5,0.9-0.9,1.3c-0.1,0.1-0.1,0.2-0.2,0.2
	c-3.3,2.3-6.2,5.2-8.6,8.5c-2.5,3.5-4.3,7.3-5.6,11.4c-1.1,3.7-1.9,7.5-2.2,11.3c-0.3,3.8-0.3,7.5-0.1,11.3c0.2,2.7-0.7,5.3-1.8,7.7
	c-1.9,4-5.1,7.9-8.1,11.1c-1.9,2-3.8,4-5.8,5.9c-1.4,1.3-2.7,2.7-4,4c-1.2,1.3-2.3,2.6-3.3,4c-0.9,1.2-1.7,2.5-2.5,3.8
	c-1.4,2.4-2.8,4.8-4,7.3c-1.5,3.1-2.9,6.3-4.2,9.6c-0.8,2.2-1.6,4.4-2.3,6.6c-0.5,1.5-0.9,3.1-1.3,4.6c-0.6,2.7-1.1,5.5-0.8,8.2
	c0.2,1.9,0.7,3.8,1.6,5.5l0.4,0.7l0.5,0.7c1.3,1.8,3,3.2,5,4.1c0.6,0.3,1.1,0.5,1.7,0.7c1.1,0.4,2.3,0.6,3.5,0.7
	c8.4,1,24.7-0.2,32.6-1c7.1-0.7,14.2-1.6,21.3-2.6c10.7-1.6,21.3-3.7,31.8-6.3c5.9-1.4,9.9-6,12.3-11.4c1.2-2.7,2.1-5.5,2.9-8.3
	c0.8-3.3,1.5-6.7,1.9-10.1c0.6-4.6,1-9.7,0.9-14.4c-0.1-3.1-0.5-6-2-8.8c-0.6-1-1.3-2-2-3l0,0c-0.5-0.6-1-1.3-1.5-1.9
	c-0.2-0.3-0.5-0.5-0.7-0.8c0-0.5,0-1,0-1.5c0-0.7,0-1.4,0.1-2.1c0-0.7,0.1-1.6,0.7-2.1c1.4-1.3,2.7-2.5,4-3.8
	c6.4-6.3,11.8-13.4,12.4-22.7c0.2-3.4-0.1-7-0.4-10.4c-0.3-3.2-0.7-8.3,0.3-11.3c0.4-1,0.7-2,1.1-3l1.4-3.5
	c2.8-6.9,7.4-17.6,10-23.6c1,9.4,2.8,26.4,3.8,36.3c0.3,3.2-0.4,7.6-1,10.6c-0.3,1.7-0.7,3.3-1,5l-1.1,5c-1,4.5-1.6,8.1-2.1,12.4
	c-0.3,2.7-0.4,5.6-0.3,8.3c0.1,2.5,0.4,5.1,0.7,7.6c0.3,2.5,0.7,5.1,1,7.6c0.1,0.9,0.2,1.9,0.3,2.8c0,0.4,0.2,2.9-0.3,3.6
	c-0.5,0.7-1,1.3-1.6,1.9c-1.1,1.1-2.2,2.2-3.4,3.2c-1.5,1.4-3,2.9-4.5,4.3c-5.8,5.8-10.2,12.1-13.1,19.7c-2.1,5.5-4.1,11-5.8,16.7
	c-1.2,3.7-2.2,7.5-3.2,11.3c-0.6,2.5-1.2,5-1.7,7.6c-0.3,1.7-0.6,3.5-0.8,5.2c-0.3,3.1-0.3,6.2,0.6,9.2c0.5,1.8,1.4,3.6,2.6,5
	c1.4,1.7,3.2,3.1,5.2,4c3.1,1.4,6.6,1.7,10,1.6c2,0,4.1-0.2,6.1-0.4c3.3-0.3,6.6-0.8,9.9-1.3c5.3-0.9,10.7-1.9,15.9-3.2
	c8.3-1.9,16.5-4.2,24.5-6.9l8.3-2.8c3.3-1.1,6.6-2.3,9.9-3.5c1.5-0.6,3-1.1,4.4-1.8c3-1.2,6-2.7,8.7-4.6c4.9-3.4,8-8,9-13.9
	c0.3-1.8,0.6-3.6,0.9-5.4c0.3-1.8,0.5-3.5,0.8-5.3c0.6-4.5,1.2-9,1.6-13.6c0.2-1.5,0.3-3,0.4-4.6c0.1-2.2-0.4-4.5-1.4-6.5
	c-0.4-1-1-1.9-1.6-2.8c-0.7-1-1.4-1.9-2.1-2.8c-0.6-0.7-1.2-1.4-1.8-2.2c-0.2-0.3-0.5-0.7-0.7-1c0.7-1.5,2.5-4.3,3.5-5.7
	c1-1.4,1.9-2.9,2.9-4.3c1.2-1.8,2.3-3.6,3.3-5.5c1.9-3.4,3.5-7.2,4.3-11.1c0.4-1.8,0.6-3.7,0.6-5.6c0-5.2-0.7-10.3-2.1-15.3
	c-1.5-5.4-3.8-10.2-6.4-15.1l-2-3.8c-1.5-2.8-3.2-6.3-3.5-9.6c-0.1-1-0.2-2-0.3-3.1l-0.2-3.6c-0.3-6.1-0.6-12.3-0.9-18.4
	c-0.3-6.7-0.6-13.5-0.8-20.2c-0.9-23.2-1.7-46.3-2.5-69.5c0-0.2,0.1-0.4,0.1-0.5c0.4-1.2,0.9-2.4,1.4-3.5c0.7-1.5,1.4-3.1,2-4.6
	c2.8-6.5,4.5-12.9,4.3-20.1c-0.2-6.9-1.6-12.7-4.3-19.2c-0.2-0.5-0.4-1-0.5-1.5c3.3-17.4,16.4-84.4,21.5-102c1.7-1.3,4.8-3,7-4
	c3.4-1.6,8.1-3.7,11.9-5.3c3.1-1.3,6.3-2.7,9.4-4.1c6-2.6,11.8-5.4,17.6-8.4c5.7-3,11.3-6.2,16.6-9.7c6-4,11.7-8.4,17.1-13.2
	c17-15.6,29-39.4,37.5-60.4c2-5,3.9-10.1,5.7-15.1C1485.4,1788.8,1487,1784,1488.6,1779.2z M1347.6,2275.7L1347.6,2275.7
	C1347.6,2275.7,1347.6,2275.7,1347.6,2275.7L1347.6,2275.7z"/>
	
<path class="accentcolor" d="M1483.7,1755c-8.4,24.3-22.8,78.7-51.4,105c-32.2,29.6-78.8,36.6-82.6,48.9c-5.4,17.3-21.2,99.2-22.3,105.3
	c-1.2,6.1,4.4,10.1,4.7,22.6c0.3,12.5-8.2,21.6-7.9,28.6c0.2,7,3.5,105.9,4.7,116.1c1.8,14.3,13.9,22.4,13.9,42.2
	c0,11.1-13.6,23.1-14.6,31c-1,7.9,7.8,13.1,7.7,16.1c-0.1,3-2.2,20.6-3.5,27c-1.2,6.5-6.2,8.3-32.1,17.2c-26,8.9-56,13.2-58.2,10.1
	c-2.9-3.9,4.5-28.5,10.2-42.9c5.6-14.4,16.5-19.6,21.3-26.7c4.9-7.2,1.1-16,0.5-29.1c-0.6-13.1,6.7-30.2,5.4-41.9
	c-0.8-7.5-5-50.3-9.3-81.5c-9.7,22.4-28.8,66.4-30.8,72.7c-2.7,8.5,0,17.9-0.5,24.8c-0.5,7-6.5,12.6-12.4,18.1
	c-5.9,5.5-4.5,12-4.9,16.2c-0.4,4.2,4,7,5.8,10.1c1.8,3.1-0.8,33.4-8.1,35.2c-41.8,10.2-81.9,10.9-83,9.2c-2-3.3,7.5-27.9,14.7-35.5
	c7.2-7.6,24.2-21.6,23.1-38c-1.1-16.4,3.6-26.4,11.3-31.8c7.7-5.4,10.3-22.5,16.5-44.7c6.2-22.2,12.5-66.4,11.7-82.8
	c-0.9-16.4-1.1-33.3,2.2-45.2c3.4-11.8,1.3-26.8,0-37.7c-1.3-10.9-9.4-47.2-14.3-54.5c-4.1-6.1-40.3-48.2-47.3-50.5
	c-6.9-2.3-23.1-2.6-34.7,2.3c-11.6,5-10.5,10.8-9.3,12.8c1.2,2,10.7,12.2,10.7,16.6c0,4.4-4.5,55.1-3.5,65
	c1,9.9,13.2,29.6,15.6,34.2c5.6,10.4,4.5,18.6,6.4,26.4c1.9,7.8,16,18.9,18,24.3c2,5.5-14.7,27.5-16.4,25.5
	c-1.7-1.9-14.2-18.8-16.7-21.9c-2.5-3.1-0.5-9.9-2.2-11.7c-0.9-1.1-13.7-1.8-15.9-0.1c-2.2,1.8-1.8,18.9-0.3,21.1
	c1.5,2.2,19.9,21.8,21.1,24.1c1.2,2.2-5.9,9.2-11.9,9.7c-6,0.5-31.5,4.7-40.5,0c-8.9-4.7-5.9-14.6-11.4-25.1
	c-5.5-10.4-56.8-65.8-65.8-75c-8.9-9.2-24.3-21.3-29.3-30c-5-8.7-6.8-32.7-9.1-38.9c-2.3-6.2-30.9-17.2-40.3-44.7
	c-9.4-27.6-5.5-47.4-5.5-47.4c11.9-1.8,24.2,4.5,29,6.9c-2.5-33.3,8.5-86.9,9.2-102c1.9-38-10.7-81.4-10.7-81.4
	c31.8,9,50.6,52.1,50.6,52.1c16.1-34.2,63.8-82.5,75.1-97c20.9-26.8,24.2-64.3,24.2-64.3c13.4,11.8,18.2,31.5,17.2,51.3
	c-0.5,11.1,2.6,11.4,6.4,6.6c35-45.5,64.5-46.3,64.5-46.3s-12.5,43.4-3.5,45c25.8,4.5,88.8-73.1,88.8-73.1
	c6.4,43.4-12.8,78.3-12.8,78.3c52.5-21.7,163-113.1,204.3-141c41.3-27.9,70.6-23.9,94.5-26.6c23.8-2.7,141.8-23.9,147-60.3
	c6.2-43.2-61.6-61.6-61.6-61.6c4-10.1,15.4-13.2,15.4-13.2c-5.2-6.3-34.5-20.4-59.9-10.7c-29.9,11.4-39.5-0.7-39.5-0.7
	c12.6-5.7,21.2-11.8,23.6-16.3c2-3.7,0-7.4-3.6-7c-7.9,0.7-12.7,6.7-20.7,8.7c-23.1,5.7-31.9-4.1-31.9-4.1
	c38.7-10.8,40.9-68.8,148-49.3c64.9,11.9,97.1,61.6,97.1,61.6c2.9-7.2,8.7-12.4,8.7-12.4c23.1,31.3,43.7,69.4,26.8,119.4
	c-15.6,46-79.4,56.5-125.6,71.1c-8.5,2.7-5.8,9.5-4.8,13c1,3.6,22.5,51.5,31,77.3c8.5,25.8,8.6,44.4-0.1,61.5
	c-7.5,14.8-52.4,57.5-52.2,60.7c0.2,2.5,17.7,0.7,36.9,1.9c24.4,1.5,92.6-0.7,93.3,10.1c0.5,8.2-4.6,20.8-11.5,33.1
	c-6.9,12.2-15.2,24.1-23.8,30.9c-18.9,14.8-122.7,83.7-133.9,93.1c-11.2,9.4-7.9,18.3-12.7,23.3c-4.7,5-13.4,4-12.9,9.4
	c0.5,5.5,22.3,5.2,23.1,13.9c2.3,26.7-3.7,94.6-13.4,91.8c-13.9-3.9-27-17.8-31.5-31.6c-2.9,10.3-8.4,27.3-12.2,25.2
	c-22.2-12.7-25.9-36.9-29.6-44.1c-3.7-7.2-10.7-12.3-13.4-20.7c-2.7-8.4,6.4-16,8.3-30.5c3.3-24,7.3-33.2,17-42.7
	c9.7-9.6,27.2-21.5,45.9-37.9c8.3-7.4,14.8-16,19.5-23.2c0,0-45.4,7.1-50,7.7c-4.6,0.6-12.8,0.9-17.1-0.3
	c-4.3-1.2-23.5-11.9-37.5-26C1490.4,1764.1,1483.7,1755,1483.7,1755z"/>

<text class="textcolor outline" transform="matrix(1 0 0 1 504.1819 1835.3519)"  textLength="1820" lengthAdjust="spacingAndGlyphs" style="font-family:'Ford-Bronco-Font-Main-Regular'; font-size:169.9018px; letter-spacing:40; stroke:#6A6A6A; stroke-width:20; paint-order:stroke; stroke-linecap:round; stroke-linejoin:round; ">
	<tspan x="0" y="0">CUSTOM</tspan>
</text>
</svg>
