<?xml version="1.0" encoding="utf-8"?>
<!-- Generator: Adobe Illustrator 27.9.1, SVG Export Plug-In . SVG Version: 6.00 Build 0)  -->
<svg class="v" version="1.1" xmlns="http://www.w3.org/2000/svg" xmlns:xlink="http://www.w3.org/1999/xlink" x="0px" y="0px"
	 viewBox="0 0 2717.9 2666.2" style="enable-background:new 0 0 2717.9 2666.2;" xml:space="preserve">
     $gradientDefs

<path class="maincolor" d="M1358.9,168.1C691,168.1,69.6,0.3,66.6,0c-6-0.5-11.7,4.1-11.6,10.1c8.6,394.7-126.4,1651.1-2.2,2324.7
	c45,243.8,65.4,297.7,313.2,318.9c184.8,15.8,992.9,12,992.9,12s808.1,3.7,992.9-12c247.8-21.2,268.2-75.1,313.2-318.9
	c124.3-673.6-10.8-1930-2.2-2324.7c0.1-6.1-5.6-10.7-11.6-10.1C2648.3,0.3,2026.9,168.1,1358.9,168.1z"/>
<path class="accentcolor" d="M1358.9,2629.8h0.1c223.7,0.9,447.4,0.2,671.1-2.1l174.4-3.3c48.4-1.1,96.7-3.3,145-6.6
	c43.4-2.8,86.4-9.5,128.6-19.9c30.8-7.8,65.1-25.1,83.9-49.3c23.9-30.8,36.2-72.1,44.7-108.2c27.8-118.7,46.9-252.4,56.9-376.2
	c6.4-78.5,11-157.1,13.8-235.8c5.1-149.7,5.3-307.3,2.3-466.9c0-1-0.9-2-1.9-1.9c-0.9,0.1-1.5,0.8-1.6,1.7
	c0,0.4-4.4,642.9-104.6,1070.8c-7,30.1-18.6,69.2-38.1,94.4c-13.6,17.6-41.4,30.6-64.3,36.4c-40,9.9-80.9,16.2-122,18.9
	c-47.8,3.2-95.6,5.3-143.4,6.5l-174.1,3.3c-223.5,2.3-446.9,3.1-670.4,2.1h-0.3h-0.3c-223.5,0.9-446.9,0.2-670.4-2.1l-174.1-3.3
	c-47.9-1.2-95.7-3.3-143.4-6.5c-41.2-2.7-82-9-122-18.9c-22.9-5.8-50.6-18.8-64.3-36.4c-19.5-25.1-31.1-64.3-38.1-94.4
	C45.9,2004.4,41.6,1361.9,41.6,1361.4c-0.1-0.9-0.7-1.6-1.6-1.7c-1-0.1-1.9,0.8-1.9,1.9c-2.9,159.6-2.8,317.2,2.3,466.9
	c2.8,78.7,7.4,157.3,13.8,235.8c10,123.8,29.1,257.5,56.9,376.2c8.5,36.1,20.8,77.4,44.7,108.2c18.8,24.2,53.1,41.5,83.9,49.3
	c42.2,10.4,85.2,17.1,128.6,19.9c48.3,3.3,96.6,5.5,145,6.6l174.4,3.3c223.7,2.4,447.4,3.1,671.1,2.1H1358.9z"/>
<text class="textcolor strokematchaccent" transform="matrix(1 0 0 1 1366.8897 2594.2478)" style="font-family:'Ford-Bronco-Font-Main-Regular'; font-size:205.9416px;  stroke-width:40; paint-order:stroke; stroke-linecap:round; stroke-linejoin:round; text-anchor: middle;">
	<tspan x="0" y="0">CUSTOM</tspan>
</text>
</svg>
