<?xml version="1.0" encoding="utf-8"?>
<!-- Generator: Adobe Illustrator 27.9.1, SVG Export Plug-In . SVG Version: 6.00 Build 0)  -->
<svg class="v" version="1.1" xmlns="http://www.w3.org/2000/svg" xmlns:xlink="http://www.w3.org/1999/xlink" x="0px" y="0px"
	 viewBox="0 0 2717.9 2666.3" style="enable-background:new 0 0 2717.9 2666.3;" xml:space="preserve">
     $gradientDefs

 <g>
	<g>
		<path class="maincolor" d="M1957.8,128.7c1.4,3.6,2.4,7.4,3.1,11.2l0.2,0.8c1.5,2.5,2.9,5,4.3,7.6c10.5,19.5,14.7,41.5,15.5,63.6
			c0.8,18.4-1,36.9-5.2,54.9c-0.3,1.5-0.2,3.1,0.3,4.6l8.1,21.5c3.5,10.7,5.6,21.8,6.4,33c0.7,8.8,0.8,17.6,0.5,26.5l-1.2,34
			c-0.2,7.4,0.5,14.8,1.8,22.1c2.6,10.9,5.8,21.7,9.6,32.3c3.1,8.7,6,19.9,7.8,29c1.8,9.5,2.7,19.1,2.7,28.8
			c0,36,0.8,80.2-8.1,115.4c-5,19.9-6.2,37.9-6.3,59.5c-0.1,23.8-0.2,47.6-0.1,71.4c0,2.4,0.2,13,0.6,14.3c1,2.9,2.5,5.7,4.2,8.3
			c9.5,13.5,11.9,30.9,12.7,46.8c2.8,47.4,2.1,94.9-2.2,142.1c-2.4,26-1.2,47.7,1.4,75.4c2.1,23.2,2.9,46.5,2.4,69.8
			c-0.4,20.1-1.1,40.3-2,60.4c-0.9,22.4,2,47.1,5,68.4c3.1,21.6,5,43.3,5.7,65.1c0.3,13,0.4,25.9,0.4,38.9
			c0.2,10.9,0.6,21.9,1.3,32.8c1.1,18.8,4.4,37.3,10,55.2c13.3,42,12,79.2,4.8,125.2c-5.5,34.8-4.9,69.3-0.6,104.1
			c3.7,30.7,5.8,61.7,6.2,92.6l1,80.5c0.6,31.6,0.8,63.2,0.5,94.8c-0.3,28.8-1.2,57.6-2.9,86.4c-0.6,12.1-1.6,22.5-5.6,34.1
			c-5.4,15.9-4.8,33.2,1.6,48.6c4.3,10.5,6.5,21.8,6.5,33.2l0.5,77.3c0.1,18.6,0,53.6-0.9,72.1c-0.7,14.8-1.8,29.6-3.2,44.4
			c-1.7,16.1-2,32.3-0.9,48.5c1.9,23.6,2.9,47.3,2.9,71c0,20.8-0.1,41.6-0.4,62.3c-0.2,25.5,1.4,65.9,2.5,86.9
			c0.8,13.1,0,26.2-2.4,39.1c-2.8,15.4-12,30-23.8,40.4c142.9-1.8,269.1-4.9,329.3-10c247.8-21.2,268.2-75.1,313.2-318.9
			c124.3-673.6-10.8-1930-2.2-2324.7c0.1-6.1-5.6-10.7-11.6-10.1C2649.2,0.2,2356.7,79.1,1957.8,128.7z"/>
		<path class="maincolor" d="M686.4,2663.7c-9.5-14.7-13.6-32.3-15.1-50.1c-1.5-17.7-1.1-30.9-0.2-50.4c1.2-29,5.5-57.7,12.7-85.8
			c-0.5-0.5-1-1-1.4-1.5c-19.4-20.8-17.2-51.2,4.2-69.8c3.9-3.4,7.9-6.5,12.1-9.4c-14.1-16.2-21.7-36.5-14.9-58.3
			c1.9-6.1,4.4-11.9,7.3-17.5c1.7-3.4,3.3-6.9,4.5-10.5c0.4-1.4,0.1-8.2-0.1-10.2c-1.3-14.2-0.5-23.4,2.6-38.1
			c-8.5-14.1-11.4-28.4-11.3-45.4c0.1-9.9-1.3-14.9-4.7-24.8c-7.2-21.1-7.9-39.3-5.8-63.1c0.7-8.2,1.5-16.3,2.6-24.5
			c1.6-11.7,2.5-23.5,2.6-35.2c0-23.2,0.4-42.9,6-65.6c1-3.9,0.8-8-0.6-11.8c-5.4-15.2-6.5-31.1-4.7-47.2l3.3-29
			c1.3-21,1.9-42,1.7-62.9c-0.3-18.8-1.5-37.7-3.6-56.4c-1.3-11.8,0.8-23.2,4.8-34.4c0,0,0,0,0,0c-8.4-20.8-6.1-40.4,7.5-58.9
			c6.1-8.3,13.5-15.5,21.9-21.4c6.5-4.5,13.9-7.7,21.6-9.6c4.1-1,10.6-2.3,14.7-2.7c0.2,0,0.4-0.1,0.6-0.1c2.4-1.5,4.8-2.9,7.3-4.3
			c2.6-1.4,5.3-2.6,8.1-3.4c0.5-0.9,1.1-1.9,1.6-2.8c1.8-3.3,3.9-6.9,6.1-9.9c-10.5,2.2-21.9,2.1-32.5,0.1
			c-29-5.7-45.9-28-54.6-55.3c-5.8-18.3-8.5-36.4-5.4-55.5c3.3-20.4,5-41,5.1-61.6c0-20.1-0.3-40.1-0.9-60.2
			c-0.6-27.2-0.6-54.4,0-81.6l1.5-72.2c0.1-11.7,0.1-23.4,0-35.1c-0.4-37.4,0.7-77.4,11.1-113.2c2.2-7.5,4.2-15,6-22.6
			c1-4.4,1.6-8.9,1.6-13.4c-0.3-26.2-2.2-41.8,2.6-68.1c2.7-14.6,1.9-30.1-4-43.8c-6.7-15.5-8.1-30.9-8.2-48.2
			c-0.1-6.9-0.3-13.9-0.7-20.8c-0.3-5.8-0.6-11.6-0.8-17.4c-0.7-14.7,0.2-29.4,2.9-43.8l7.2-32.9c1.9-8.6,3.3-17.2,4.5-25.9
			l8.4-55.2c2.3-14.3,3.5-28.8,3.5-43.3c0.1-11.8-0.2-23.6-0.8-35.4c-0.3-3.9-0.8-7.7-1.7-11.5c0-0.2-0.1-0.4-0.1-0.7
			c-0.2-0.8-0.5-1.6-0.9-2.4c-7-10.7-11.1-23-12.1-35.7c-0.8-9.2-0.4-18.4,1.2-27.5c2.1-11.7,3.8-23.5,5.2-35.3
			c0.8-7.8,0.5-15.8-0.8-23.5c-2.2-12.5-0.3-23.7,5.4-35.5l-2-8.3c-2.3-11.7-3.3-23.7-2.9-35.6c0.9-31.5,5-62.8,12.2-93.5
			c3-13,7.6-25.7,13.7-37.6c4.3-8.4,10.1-15.8,17.2-22c1.7-1.5,3.5-2.8,5.3-4.1c0.4-4.2,1.3-18.6,1.6-24.1l2.9-60.6
			c0.7-13,2.1-34,6.1-47c0.8-2.5,1.8-4.9,2.9-7.2C369.8,81.4,68.7,0.2,66.6,0c-6-0.5-11.7,4.1-11.6,10.1
			c8.6,394.7-126.4,1651.1-2.2,2324.7c45,243.8,65.4,297.7,313.2,318.9C424.9,2658.8,547.2,2661.9,686.4,2663.7z"/>
		<path class="maincolor" d="M1344.1,1644.9c0.6,18,1.5,44.1,2.4,66.7l4.4-1.4v-30.7l17.8,25l28.9-9.3l-17.8,25l17.8,25l-28.7-9.6
			l-18,25.3v-31.3l-3.7-1.3c0.4,9.4,0.8,17.3,1.1,22.5l0.2,3.7c0.1,0.9,0.1,1.8,0.2,2.7c0.3,2.2,1.9,5.4,2.8,7l2.1,3.9
			c3.1,5.8,5.6,11.3,7.4,17.6c1.7,6,2.5,12.2,2.5,18.5c0,2.6-0.3,5.2-0.8,7.7c-1,4.9-3,9.6-5.4,14c-1.2,2.1-2.4,4.2-3.8,6.3
			c-1,1.5-2,3.1-3,4.6c-0.1,0.2-0.3,0.4-0.4,0.6c1.6,2.1,2.8,3.8,3.8,6.1c1.5,3.2,2.3,6.6,2.3,10.1c0,1-0.1,2.6-0.2,4l12.8,18
			l28.9-9.3l-17.8,25l17.8,25l-28.7-9.6l-18,25.3v-31.3l-4.4-1.5c-2,2.7-4.5,5.1-7.5,7.1c-3.3,2.3-7,4.1-10.7,5.7
			c-1.7,0.7-3.2,1.3-5,2c-3.5,1.3-7.1,2.6-10.6,3.8c-2.9,1-5.8,2-8.7,3c-8.8,3-17.6,5.5-26.7,7.5c-5.7,1.3-11.5,2.5-17.3,3.4
			c-3.6,0.6-7.3,1.1-11,1.4c-2.4,0.2-4.8,0.4-7.1,0.4c-4.9,0.1-9.7-0.4-14.2-2.4c-4.4-2-8-5.2-10.5-9.2l-7.2,10.1v-31.3l-27.9-9.3
			c-7.4,1.1-14.9,2.1-22.4,2.8c-4.9,0.5-9.7,0.8-14.6,1.1c-3.1,0.2-6.1,0.3-9.2,0.3c-3.9,0.1-8.5,0-12.4-0.4c-2.8-0.3-5.5-1-8.1-2.2
			c-3.5-1.6-6.4-4.1-8.6-7.2c-0.9-1.2-1.6-2.6-2.2-4l-6.7,9.5l17.8,25l-28.7-9.6l-18,25.3v-31.3l-29.5-9.9l29.5-9.5v-30.7l17.8,25
			l15.9-5.1c0.1-2.6,0.5-5.2,1.1-7.8c0.4-1.8,0.9-3.7,1.5-5.5c0.8-2.5,1.7-5,2.6-7.5c1.4-3.6,3-7.2,4.7-10.7c2.1-4.4,4.7-9,7.5-13
			c1.3-1.8,2.8-3.7,4.3-5.3c1.4-1.5,2.9-3,4.4-4.4c1.8-1.8,3.6-3.6,5.3-5.4l-18.5-6.2l27-8.7c-0.2-4-0.2-8,0.2-12
			c0.4-4.3,1.1-8.6,2.4-12.8v-6.7l1.5,2.2c1.5-3.8,3.5-7.5,5.9-10.9c2.7-3.8,6-7.2,9.8-10.1c0.5-1,0.9-2,1.3-3c0,0,0-0.1,0-0.1
			c0.6-1.7,1.2-3.5,1.7-5.2c0,0,0,0,0,0c1.3-4.4,2.6-9.8,3.7-14c1.2-4.6,2.4-9.2,3.6-13.7c1-3.7,1.9-7.4,2.7-11.2c0,0,0,0,0,0
			c2.1-9.6,3.9-19.9,5.3-29.5c1.6-11.1,3.4-25.8,3.5-35.8c0,0,0,0,0-0.1c0-1.2,0-2.5,0-3.7c0-0.7-0.1-1.4-0.1-2.1
			c-5.4,0.4-10.8,0.9-16.2,1.5c-0.7,3.5-2.1,6.9-3.7,10.2c-1.2,2.5-2.6,4.9-4.1,7.3c-1.9,2.9-3.8,5.8-6,8.5
			c-1.4,1.8-2.8,3.5-4.3,5.2c-4.1,4.6-8.7,8.3-14.8,9.8l-0.2,0.6c-2.6,6.6-8.2,12.2-14,16c-4.9,3.2-10.5,5.4-16.4,6
			c-1.7,0.2-3.5,0.4-5.2,0.6c-3.4,0.4-8,0.9-11.3,1.2c-2.8,0.2-5.5,0.4-8.3,0.5l7.1,9.9l28.9-9.3l-17.8,25l17.8,25l-28.7-9.6
			l-18,25.3v-31.3l-29.5-9.9l29.5-9.5v-15.7c-0.9-0.1-1.9-0.1-2.8-0.2c-2.4-0.2-4.7-0.6-7-1.1c-3.1-0.7-6.1-1.7-9-3.2
			c-3.3-1.6-6.5-4-9-6.6c-2.4-2.4-4.4-5.3-6-8.3c-1.2-2.4-2.2-4.9-2.9-7.5c-0.5-1.6-0.9-3.2-1.2-4.8l-0.8-3.9
			c-0.2-0.7-0.4-1.5-0.6-2.2c0,0,0,0,0-0.1c-0.2-0.7-0.5-1.4-0.8-2c-0.1-0.2-0.3-0.4-0.4-0.6c-0.1-0.1-0.1-0.1-0.2-0.2
			c-2.7-3.8-7.7-9.8-13.1-16.1c-13.4-1.2-26.7-2.4-40.2-2.7c-13.8-0.3-29.3-4.3-42.8-3c-9.5,1-20.6,3.3-27.8-2.6
			c-0.3-0.3-0.6-0.5-0.9-0.8c-1.8-1.7-3.1-3.9-5.1-5.4c-7.2-5.3-29.2,5.4-36.7,7.5c-17.6,4.9-24.5,12.7-38.5,22.7
			c-6.4,4.6-11.5,10.1-16.3,16.3c-2,2.5-5.1,9.1-8.2,13.9c-2.5,3.8-2.4,8.7,0.2,12.4l6,8.4l28.9-9.3l-17.8,25l17.8,25l-28.7-9.6
			l-18,25.3v-31.3l-29.5-9.9l29.5-9.5v-9.7c0-3.8-4.1-6.3-7.5-4.4c-2.6,1.5-5.1,3-7.6,4.6c-9.2,5.7-23.4,3.1-33.7,10.4
			c-9,6.4-21,18.9-18.3,30.8c1.2,5.3,3.9,10.3,4.7,15.7c1.7,12.3-6.6,22-5.1,34.6c5,42.1,4.5,84.1,1.9,126.3
			c-1.2,20.3-7.7,40.9-0.5,61.2c3.9,10.9,4.1,22.3,1.5,32.6c-4.7,18.8-5,37.6-4.9,56.6c0.2,29.5-7.3,58.6-6,88.2
			c0.7,15.6,7.3,27.8,10.1,42.4c2.8,15.1-1.3,28.4,6.8,42.9c8.1,14.5,7,18.8,3.6,33.8c-3.3,15,2.7,30.5-2.1,45.2
			c-8,24.3-22.8,31.7-2,54c15.9,17,14.1,34.9-4.9,48.4c-1.9,1.3-3.8,2.5-5.7,3.8c-16.2,11-16.5,19.7-0.3,31.2
			c5.4,3.8,7.3,7.2,5.4,13.9c-8.4,29.3-14.3,61.1-15.4,92.2c-0.8,24.1-4.2,71.7,17,87.6c10,7.5,14.9-10.8,24.2-8.3
			c3.3,0.9,5.9,3.4,8.9,5.1c6.7,3.9,15.2,3.9,22.6,1.6c17.9-5.5,27.8-12.5,47.7-12.4c3.5,0,7.3,0.3,10.1,2.6
			c7,5.8,4.9,19.7,19.9,11.7c1.6-0.9,3.1-2,4.5-3.2c21.6-19.2,42.6-8.4,66.4-7.6c17.9,0.5,26.8-4.2,32-21.5
			c2.6-8.7,7.5-11.2,15.3-6.6c11.1,6.4,21.9,13.4,33.1,19.7c11.2,6.2,8.7-0.6,14.9-5.9c10.9-9.5,24.4-15.4,38.1-20.1
			c4.4-1.5,7.3-5.6,7.3-10.2v-20.9l-29.5-9.9l29.5-9.5v-30.7l17.8,25l28.9-9.3l-17.8,25l17.8,25l-28.7-9.6l-11.7,16.5
			c-1.2,1.7,0.4,4,2.4,3.5l1.5-0.4c4.6-1.4,9.1-2.9,13.7-4.3c13-4.3,10.8,4.2,11.4,13.7c0.3,4.3-1.3,27.4,8.4,22.4
			c8.2-4.2,15.3-9.6,21.6-16.4c18.4-20.1,9.2,10.7,26.4,14.5c5.5,1.2,11.1-0.9,15-5c6.1-6.2,14.8-12.1,24.1-11.8
			c13.5,0.4,18,13.4,20,24.6c4.8,27.8,12.7,32.2,38.9,21.4c5.3-2.2,10.4-4.6,15.7-6.7c9.5-3.9,19.3-6.8,29.4-8.9
			c22.3-4.7,43,1.2,63.6,8.3c15.7,5.4,31.6,8.8,48,3.2c9.3-3.2,17.4-9.1,16.6-19.4c-1.9-25.6,6.1-50.5,3.4-76.1
			c-2.1-20.5,1.4-40.5-3.4-60.7c-4.5-19.2-8.2-40.6-8.6-60.3c-0.4-19.5,5.3-38.9,4.8-58.6c-0.5-17.7,2.8-35.4,1.4-53.3
			c-0.6-7.9-1.8-15.8-0.8-23.6c1.3-9.9,8-14.7,11.7-23c4.9-10.9,4.2-24.9,2.7-36.4c-4.7-38-5-75.9-3-114c3.5-64.9,0.2-130-4.6-194.7
			c-4.4-59.1-16.4-122.3-2-180.7c1.4-5.9,3.7-12.3,2.6-17.9c-3.4-16.6-4.7-33.5-6.8-50.3c-2.3-18,3.7-53.3-21.5-55.3
			c-10.1-0.8-23.3,3.3-32.7,6.8C1365.9,1642.6,1355.1,1644.5,1344.1,1644.9z M1350.9,2607.6v-31.3l-29.5-9.9l29.5-9.5v-30.7l17.8,25
			l28.9-9.3l-17.8,25l17.8,25l-28.7-9.6L1350.9,2607.6z M1210,2607.6v-31.3l-29.5-9.9l29.5-9.5v-30.7l17.8,25l28.9-9.3l-17.8,25
			l17.8,25l-28.7-9.6L1210,2607.6z M945.8,2551.1l28.9-9.3l-17.8,25l17.8,25l-28.7-9.6l-18,25.3v-31.3l-29.5-9.9l29.5-9.5v-30.7
			L945.8,2551.1z M786.9,2607.6v-31.3l-29.5-9.9l29.5-9.5v-30.7l17.8,25l28.9-9.3l-17.8,25l17.8,25l-28.7-9.6L786.9,2607.6z
			 M1286.2,2521.5v-31.3l-29.5-9.9l29.5-9.5v-30.7l17.8,25l28.9-9.3l-17.8,25l17.8,25l-28.7-9.6L1286.2,2521.5z M1145.1,2521.5
			v-31.3l-29.5-9.9l29.5-9.5v-30.7l17.8,25l28.9-9.3l-17.8,25l17.8,25l-28.7-9.6L1145.1,2521.5z M1004.2,2521.5v-31.3l-29.5-9.9
			l29.5-9.5v-30.7l17.8,25l28.9-9.3l-17.8,25l17.8,25l-28.7-9.6L1004.2,2521.5z M863.1,2521.5v-31.3l-29.5-9.9l29.5-9.5v-30.7
			l17.8,25l28.9-9.3l-17.8,25l17.8,25l-28.7-9.6L863.1,2521.5z M1350.9,2435.4v-31.3l-29.5-9.9l29.5-9.5V2354l17.8,25l28.9-9.3
			l-17.8,25l17.8,25l-28.7-9.6L1350.9,2435.4z M1210,2435.4v-31.3l-29.5-9.9l29.5-9.5V2354l17.8,25l28.9-9.3l-17.8,25l17.8,25
			l-28.7-9.6L1210,2435.4z M1068.9,2435.4v-31.3l-29.5-9.9l29.5-9.5V2354l17.8,25l28.9-9.3l-17.8,25l17.8,25l-28.7-9.6
			L1068.9,2435.4z M928,2435.4v-31.3l-29.5-9.9l29.5-9.5V2354l17.8,25l28.9-9.3l-17.8,25l17.8,25l-28.7-9.6L928,2435.4z
			 M786.9,2435.4v-31.3l-29.5-9.9l29.5-9.5V2354l17.8,25l28.9-9.3l-17.8,25l17.8,25l-28.7-9.6L786.9,2435.4z M1286.2,2352.2v-31.3
			l-29.5-9.9l29.5-9.5v-30.7l17.8,25l28.9-9.3l-17.8,25l17.8,25l-28.7-9.6L1286.2,2352.2z M1145.1,2352.2v-31.3l-29.5-9.9l29.5-9.5
			v-30.7l17.8,25l28.9-9.3l-17.8,25l17.8,25l-28.7-9.6L1145.1,2352.2z M1004.2,2352.2v-31.3l-29.5-9.9l29.5-9.5v-30.7l17.8,25
			l28.9-9.3l-17.8,25l17.8,25l-28.7-9.6L1004.2,2352.2z M863.1,2352.2v-31.3l-29.5-9.9l29.5-9.5v-30.7l17.8,25l28.9-9.3l-17.8,25
			l17.8,25l-28.7-9.6L863.1,2352.2z M1350.9,2268.4v-31.3l-29.5-9.9l29.5-9.5v-30.7l17.8,25l28.9-9.3l-17.8,25l17.8,25l-28.7-9.6
			L1350.9,2268.4z M1210,2268.4v-31.3l-29.5-9.9l29.5-9.5v-30.7l17.8,25l28.9-9.3l-17.8,25l17.8,25l-28.7-9.6L1210,2268.4z
			 M1068.9,2268.4v-31.3l-29.5-9.9l29.5-9.5v-30.7l17.8,25l28.9-9.3l-17.8,25l17.8,25l-28.7-9.6L1068.9,2268.4z M928,2268.4v-31.3
			l-29.5-9.9l29.5-9.5v-30.7l17.8,25l28.9-9.3l-17.8,25l17.8,25l-28.7-9.6L928,2268.4z M786.9,2268.4v-31.3l-29.5-9.9l29.5-9.5
			v-30.7l17.8,25l28.9-9.3l-17.8,25l17.8,25l-28.7-9.6L786.9,2268.4z M1286.2,2182.3V2151l-29.5-9.9l29.5-9.5v-30.7l17.8,25
			l28.9-9.3l-17.8,25l17.8,25l-28.7-9.6L1286.2,2182.3z M1145.1,2182.3V2151l-29.5-9.9l29.5-9.5v-30.7l17.8,25l28.9-9.3l-17.8,25
			l17.8,25l-28.7-9.6L1145.1,2182.3z M1004.2,2182.3V2151l-29.5-9.9l29.5-9.5v-30.7l17.8,25l28.9-9.3l-17.8,25l17.8,25l-28.7-9.6
			L1004.2,2182.3z M863.1,2182.3V2151l-29.5-9.9l29.5-9.5v-30.7l17.8,25l28.9-9.3l-17.8,25l17.8,25l-28.7-9.6L863.1,2182.3z
			 M1350.9,2098.2v-31.3l-29.5-9.9l29.5-9.5v-30.7l17.8,25l28.9-9.3l-17.8,25l17.8,25l-28.7-9.6L1350.9,2098.2z M1210,2098.2v-31.3
			l-29.5-9.9l29.5-9.5v-30.7l17.8,25l28.9-9.3l-17.8,25l17.8,25l-28.7-9.6L1210,2098.2z M1068.9,2098.2v-31.3l-29.5-9.9l29.5-9.5
			v-30.7l17.8,25l28.9-9.3l-17.8,25l17.8,25l-28.7-9.6L1068.9,2098.2z M928,2098.2v-31.3l-29.5-9.9l29.5-9.5v-30.7l17.8,25l28.9-9.3
			l-17.8,25l17.8,25l-28.7-9.6L928,2098.2z M786.9,2098.2v-31.3l-29.5-9.9l29.5-9.5v-30.7l17.8,25l28.9-9.3l-17.8,25l17.8,25
			l-28.7-9.6L786.9,2098.2z M1286.2,2012.1v-31.3l-29.5-9.9l29.5-9.5v-30.7l17.8,25l28.9-9.3l-17.8,25l17.8,25l-28.7-9.6
			L1286.2,2012.1z M1145.1,2012.1v-31.3l-29.5-9.9l29.5-9.5v-30.7l17.8,25l28.9-9.3l-17.8,25l17.8,25l-28.7-9.6L1145.1,2012.1z
			 M1004.2,2012.1v-31.3l-29.5-9.9l29.5-9.5v-30.7l17.8,25l28.9-9.3l-17.8,25l17.8,25l-28.7-9.6L1004.2,2012.1z M863.1,2012.1v-31.3
			l-29.5-9.9l29.5-9.5v-30.7l17.8,25l28.9-9.3l-17.8,25l17.8,25l-28.7-9.6L863.1,2012.1z M786.9,1932.1v-31.3l-29.5-9.9l29.5-9.5
			v-30.7l17.8,25l28.9-9.3l-17.8,25l17.8,25l-28.7-9.6L786.9,1932.1z M1004.2,1846v-31.3l-29.5-9.9l29.5-9.5v-30.7l17.8,25l28.9-9.3
			l-17.8,25l17.8,25l-28.7-9.6L1004.2,1846z M863.1,1846v-31.3l-29.5-9.9l29.5-9.5v-30.7l17.8,25l28.9-9.3l-17.8,25l17.8,25
			l-28.7-9.6L863.1,1846z M928,1760.9v-31.3l-29.5-9.9l29.5-9.5v-30.7l17.8,25l28.9-9.3l-17.8,25l17.8,25l-28.7-9.6L928,1760.9z
			 M928,1850.6l17.8,25l28.9-9.3l-17.8,25l17.8,25l-28.7-9.6l-18,25.3v-31.3l-29.5-9.9l29.5-9.5V1850.6z"/>
		<path class="maincolor" d="M1422.7,1457.9c-3.1,1.8-6.2,3.5-9.3,5.2c-6.2,3.2-12.6,6.3-19,9.1c-3.3,1.5-6.6,2.9-10,4.3
			c-3.8,1.6-8.7,3.8-12.2,5.4c-1.2,0.6-2.4,1.2-3.6,1.9c-4.2,16.4-10.4,47.1-13.5,62.3c-0.2,1-0.4,2-0.6,2.9c0.8,1.2,1.4,2.6,2,4.1
			c2,5.3,5.5,9.5,10.9,10.8c8.4,1.9,11.5-9.5,16.6-13.8c6.3-5.3,13.9-6.8,22-7c3.6-0.1,7.3-0.1,10.4-1.8c6.8-3.6,7.8-12.9,6.7-20.5
			C1420.2,1500.6,1421.7,1479,1422.7,1457.9z"/>
		<path class="maincolor" d="M1323.8,1086.5c11.5-8.3,22.8-16.6,34.1-25.1c10.8-8.1,21.6-16.2,32.3-24.3c9.6-7.3,19.2-14.5,28.8-21.7
			c2.3-1.7,4.7-3.5,7-5.2c0.1-30.3,0-60.6-0.4-90.9c-0.8-51.4-1.1-102.8-1.6-154.2c-0.1-7.2,0.7-14.8-2.9-21.3
			c-16-28.7-9.7-70.1-9.7-101.7c0-23.5,2.3-42,8-65.1c6.4-26.1,8.9-56.4,6.9-83.3c-1.3-17.5-3.3-34.8-9.5-51.4
			c-2-5.3-4.7-8.9-10-11.5c-10.8-5.3-14.6-18-9.4-29c3.8-7.9,6.8-16,8.9-24.6c5.2-21.1-3.1-39.7-9.9-58.6
			c-5.2-14.2-7.3-28.1-3.3-43.5c5.7-21.6,2.9-42.9-14.2-57.7c-13-11.3-30-19.2-34.7-37.3c-7.9-30.5-22.5,8.4-25.1,18.8
			c-7,28.3,3.3,57.2-7.2,84.7c-1.6,4.1-1.5,9.1-1.1,13.5c1.7,16,0.8,31.9-0.4,47.9c-1.5,19.7-2.1,39.3,3.9,58.3
			c5.8,18.2,2.5,30.9-0.7,49.8c-2.3,13.6-2.8,29-1.1,42.7c1.3,11.1,4.8,20.2,4.6,31.3c-0.2,11.7-1.7,23.4-2,35.2
			c-0.6,28.1-5.4,56.2,1.4,84.2c1.9,7.7,3.9,15.5,4.8,23.4c3.9,33,1.3,65.8-3,98.6c-1.1,8.5-3.6,16.9-5.2,25.4
			c-1.7,8.8,6.2,15.5,3,23.2c-7.3,17.7-3.2,36.2-3.8,54c-1.2,35.7-3.2,71.4-2.4,107.1c0.7,30.6-0.8,64.6,10.3,93.6
			C1322.3,1076.5,1323.4,1081.5,1323.8,1086.5z"/>
		<path class="maincolor" d="M1188.2,1557.6c-0.1-1.8-0.3-3.5-0.5-5.2c-0.3-3-0.7-5.9-1-8.9c-0.2-1.3-0.4-2.6-0.6-4c0,0,0-0.1,0-0.1
			c-1.2-7.2-3.2-15.9-4.9-22.9c-1-4.2-2.2-8.5-3.4-12.6c-0.7-2.4-2-6.5-2.9-8.5l-0.1-0.2c-0.5-0.6-0.9-1.3-1.4-1.9
			c0-0.1-0.1-0.1-0.1-0.2c-1.9-2.4-3.9-4.8-5.9-7.1c0,0,0,0,0,0c-5.1-6-10.4-12-15.6-17.8c-4.9-5.4-12.6-13.6-17.2-17.6
			c-2.7-0.3-5.5-0.3-8.1-0.2c0.7,1.3,1.3,2.7,1.8,4.1c1.2,3.1,1.8,6.6,1.7,10c0,1.6-0.1,3.1-0.2,4.7c-0.1,0.9-0.1,1.8-0.2,2.7
			c-1,14.2-3.4,45-3.4,56.6c0,0.1,0,0.1,0,0.2c0,0.5,0,0.9,0,1.4c0.1,0.3,0.2,0.6,0.3,0.9c0.3,0.9,0.6,1.8,1,2.7
			c1.8,4.4,4.2,9.1,6.5,13.3c0.7,1.3,1.4,2.6,2.2,3.9c12.6,3.3,25.3,3.1,38.2,2.5c4-0.2,8-1.2,11.8,2.3
			C1186.7,1556.4,1187.5,1557,1188.2,1557.6z"/>
		<path class="maincolor" d="M1106.5,1099.1c2.3,4.5,4.3,9.4,5.8,14.2c5.5-4.8,11.3-9.1,17.5-13c10-6.3,21.8-11.7,33.5-13.7
			c1.6-0.3,3.3-0.5,4.9-0.6c2.4-0.1,4.8,0.1,7,0.8c11.5,3.2,18.2,15.2,15,26.6c-0.6,2.3-1.3,4.6-1.8,6.9
			c8.9-7.4,18.5-16.6,27.7-26.2c-0.8-4.2-1.6-8.4-2.4-12.6c-7-37.4-0.9-76,1.9-113.8c2.1-27.8,7.5-57.2,4.3-85
			c-0.9-8.2,1.2-16.4,4.5-24.1c2.7-6.5-0.7-12.6-0.9-19.1c-0.2-6,2-11.9,3.1-17.8c5.2-27.8,3.6-56.4-3.2-83.8
			c-2.8-11.5-4.7-23.1-4.1-35c2.8-57.8,6-115.5,4.4-173.5c-0.5-18.6-1.1-37.8,4.3-56.3c5.3-18.2,4.6-36.7,4.9-55.5
			c0-32.8,0.7-65.2-0.7-97.9c-1.4-33.9-3.8-67.8-6.7-101.7c-0.9-10.5,1.1-22.8-2.7-32.8c-2.1-5.4-15.1-20.9-14.7-5.4
			c0.1,2.4,0.8,5.1,1.3,7.4c2.5,11.7-3.1,23.8-11.5,32.3c-8.3,8.4-58.9,45.5-62,16c-0.4-4-1.6-14.3-8.5-8.8c-2.1,1.7-3,4.3-3.7,6.9
			c-5.4,18.3-9,37.5-9.5,56.6c-1.1,47.2,4.5,94.6-9,141.7c-18.1,63.3,3.4,131.5,0.9,196.1c-0.5,12.5-3,20.8-0.9,33.3
			c2,12.3,2.5,25,2.3,37.5c-0.4,22.2-4.7,43.6-6.8,65.6c-1.8,19.1,3.4,39.6,4.5,59.1c2.5,44.2,1.6,88.5,1.6,132.8
			C1106.6,1003.9,1106,1051.5,1106.5,1099.1z"/>
		<path class="maincolor" d="M942.6,1561.2c-0.9-0.9-1.8-1.8-2.6-2.7c-1.9-1.9-3.6-3.9-5.3-5.9c-2.1-2.4-3.9-5-5.5-7.8
			c-0.1-0.2-0.2-0.4-0.3-0.6c-1.4-2.5-2.5-5.1-3.4-7.8c-1.6-4.6-2.7-9.1-3.6-13.9c-0.5-2.5-0.9-5-1.4-7.5c-0.6-3.8-1.3-7.5-1.9-11.3
			c-0.9-0.7-1.9-1.4-2.9-2.1c-2.4-1.7-4.7-3.5-7-5.2c-2.2-1.7-4.3-3.4-6.4-5.3c-2.7-2.3-5.2-4.7-7.6-7.3c0.2,17.5,1.5,35.2,1.6,52.5
			c0.1,21.6,13,31,32.5,26.8C933.3,1562.3,938,1561.6,942.6,1561.2z"/>
		<path class="maincolor" d="M905,1193.7c5.3-4.5,12.7-6.3,19.9-4.2c5.5,1.6,10.9,3.8,15.9,6.6c4.2,2.4,8.3,5.1,12.1,8.2
			c7.3,5.8,13.5,12.4,19.3,19.7c12.1-16.7,26-33.1,39.9-48.9c5.6-9.4,7.3-19.4,7.7-30.1c1-29.5,3.6-59.1,1.4-88.6
			c-1.1-14.4,0-28.9-1.3-43.3c-0.7-7.8-2-15.6-4.6-22.9c-1.7-4.6-8-12-7.3-17c0.4-2.9,2.3-5.4,4.3-7.4c2-2,4.2-3.9,5.7-6.3
			c4.9-8,1.9-21.3,1.7-30.3c-0.2-11.4-1-22.8-0.4-34.2c1.1-22.5,4.3-44.8,6.7-67.1c3.9-36.6,3.1-69.6-4.3-105.4
			c-7.4-36.1-9.4-75.1-8.5-112.1c0.2-9.6,0.5-19.3-0.8-28.7c-1-7.1,0.3-12.8,2.8-19.1c4.4-11.6,10.5-18,12.5-30.7
			c2.2-14,2.7-28.3,2-42.4c-0.8-18.7-3.6-37.2-6.9-55.6c-2.6-14.4-2-30.5-6.2-44.2c-1.1-3.5-2.9-6.6-1-10.7c9-19.6,7.1-40,0.7-59.4
			c-3.4-10.3-6.7-21.7-5.7-32.9c1-10.9,7.5-20.7,12.2-30.3c1.3-2.7,2.6-5.8,1.7-8.7c-1-3.1-4.1-4.6-6.6-6.4
			c-8.1-5.7-9.1-14.4-9.2-24c-0.1-11-2.6-19-9.9-27.3c-6.8-7.7-15.3-13.8-20-23.7c-1.8-3.8-1.9-10.5-7.2-9.7
			c-4.6,0.7-4.6,7-6.1,11.1c-16,42.2-15.1,89.4-21.4,133.9c-0.7,4.9-1.5,10.1-4.1,14.2c-4.2,6.5-11.3,3.8-16,9.4
			c-2.8,3.4-3.9,9.2-4.8,13.5c-2.8,13.1-2.7,27.1-2.4,40.4c0.6,21.8,0.6,49.3,8.5,69.8c3,7.8,4.5,18.3-1.6,23.6
			c-3.4,2.9-8,3.2-12.1,4.7c-14,4.9-20.5,22.7-21.4,38.8c-1.3,24-1,48.8-0.5,72.9c0.2,10.2,4,20.1,12.1,25.8c8.9,6.1,9.2,14,7,23.4
			c-4.4,18.5-4.4,37,0,55.6c1.5,6.4,3.5,14-0.6,19.3c-27.7,35.6-16.7,93.8-12.4,135.8c6.1,58.8,1,121.3,0.7,180.7
			c-0.1,24.5-3.3,49.8-2.4,74.2c0.9,23.8,6.8,48.1,9.2,71.8C904,1181.5,904.5,1187.6,905,1193.7z"/>
		<path class="maincolor" d="M822.9,1563.9c3.3-7.8,5.3-16.4,7-25.1c13.4-67.4,9.4-143,5-211.8c-2.6-40.4-7.6-74.4-4.1-115
			c9-105.5-4.5-211.8,7.1-317.6c2.4-21.8,4-44.6,0.5-66.4c-3.7-23.2-10.3-37.2-10-61.8c0.4-26.7,13-55.9,17-82.4
			c5.8-38.2,7.8-77.4,4.6-116.1c-4.3-51.7-8.5-105.3-7.4-157.2c0.7-34.5,5.3-69,3.6-103.6c-1.8-34.4-9.6-64.4-10.5-99.3
			c-0.6-20.5-5.2-36.9-12.4-54.8c-2.1-5.1-6.8-9.7-10.8-8.4c-0.6,0.2-1.3,0.6-1.8,1.1c-9.8,8.9-6.1,153.5-16.6,151.8
			c-32.4-5.2-42.1,102.9-42.4,130.5c-0.1,9.3,0.2,18.6,2.2,27.6c1.2,5.5,3.1,10.9,3.3,16.6c0.5,11.2-8.7,16-6.5,27.8
			c4.5,24.5-0.6,47.7-4.4,71.2c-2.2,13.5-1.4,27.5,5.7,37.8c10.6,15.3,8.8,49.4,9.2,69.3c0.6,33.3-8.1,70.2-12.2,103.1
			c-2.7,21.6-7.7,40.1-12,60.7c-5,24-0.8,50.7-0.8,75.3c0.1,11.9,0.7,23.9,5.3,34.3c8.8,19.8,10.2,42.3,6.3,64.4
			c-4.1,22.7-2.4,37.7-2,61.2c0.2,16.1-5,31.3-9.1,46.5c-12.9,47.7-8.9,90-9.7,138.8c-0.8,50.8-3,101.3-1.6,152.5
			c1.2,43.3,2.6,85.8-4.6,128.4c-2.2,13.2,0.3,26.5,4.2,38.9c8.3,26.3,21.5,33.7,43.3,31.3C787.8,1611.4,813.8,1585.5,822.9,1563.9z
			"/>
		<path class="maincolor" d="M1906.7,144.9c-2.6,10.9,0.1,27.9,0.3,35.3c0.7,21.9,1.5,43.9,1.4,65.9c-0.1,68.3,3.7,135.7,0.3,204
			c-4.4,88-4.3,176.6-3.3,264.7c0.4,33.3-14.8,66.1-1.7,99.5c0,75.7,0.8,151.3-0.3,227c-1,69.1,1.8,138.3-2.2,207.5
			c-1.5,25.8,2,53.4,2.6,80.2c5.4,224.7,2.9,449.6,2,674.3c-0.3,82.1-1,164.2-2.9,246.2c-1.1,51.3-0.8,102.7,2,153.9
			c1.3,23.4,1.8,47.4,5.9,70.3c4.5,25.6,8.2,51.7,4.1,77.8c-2.8,17.8-10.7,34.5-11.7,52.8c-0.7,12,5.8,44.2,21.7,38
			c4.5-1.8,7.5-6.8,9.7-11.8c2.2-5,3.8-10.5,7-14.7c3.2-4.2,8.5-6.9,12.7-4.3c8.9,5.3,2,21.8,6.3,30.5c2.9,5.8,9.3,7.9,14.9,6.8
			c14.1-3,31.5-14.3,35.3-31.8c4.2-19.1,0.6-44.7,0.2-64.7c-0.3-18.3-1.2-36.7-0.9-55c0.5-43.3,1.4-87.1-2.4-130.4
			c-2.8-32.9,2.9-64.3,4.1-97.3c1.8-49.1,0.4-98.4,0.4-147.6c0-7-1.3-13.3-3.8-19.6c-9.6-24.2-11-49.1-2.3-74.2
			c2.7-7.8,3.1-15.8,3.6-24c3.6-59.5,3.4-119.2,2.3-178.8c-1-56.4,0.3-113.6-7-169.4c-4.9-37.7-5.1-76.4,0.7-114
			c5.7-37,8.3-72.7-3.6-108.7c-14.4-43.6-12.8-90.7-13.4-136.7c-0.6-46.2-12.6-90.1-10.6-136c1.7-41.8,3.8-83.8-0.3-125.5
			c-2.7-27.4-4-54.6-1.4-81.9c4.4-45.4,4.4-91.5,2-137c-0.5-9.8-1.3-20.1-6.3-27.9c-10.4-16.5-11.4-21.7-11.4-42.9
			c0-23.9-0.1-47.9,0.1-71.8c0.3-24.7,1.3-44.2,7.4-68.2c8.1-32.3,6.7-72.8,7-106.6c0.3-31.2-13.1-53.2-19.3-82.6
			c-4.4-21-2-43.1-1.4-64.8c0.4-15.7-0.2-32.3-5.2-47.1c-5.3-15.6-13.5-27.4-9.1-45.6c6.7-28,6.6-68.3-7.1-93.2
			c-2.7-4.8-5.9-9.4-7.3-15c-0.8-3.3-1-6.8-2.5-9.8c-2.3-4.7-7.8-6.6-11.8-4.2C1909.2,137.9,1907.6,141,1906.7,144.9z"/>
		<path class="maincolor" d="M1698.4,739.6c22.4,5.7,43.4,15.6,62.4,29.3c8.8,6.4,17,13.5,24.7,21.2c9.2-4,19.9-1.1,25.9,7
			c4.3,5.8,8.4,11.8,12.3,17.8c0.8,1.3,1.7,2.7,2.5,4c-0.7-13.5-1.8-27.1-3.1-40.6c-2.1-20.8-8.1-41.1-10.8-61.2
			c-2.9-21.7,4.8-42.8-0.6-65.5c-1.3-5.6-3.8-12.8,3.4-18.1c11.7-8.7,16.1-21.6,16.3-36c0.3-22.8,0.5-45.7-1.4-68.4
			c-1.4-17.2-5.4-33.2-20.4-40.1c-12.6-5.7-25.3-15.2-13.2-30.8c3.7-4.8,2.1-7.5,2.7-11.8c2.7-19.4,0.7-39,0.3-58.5
			c-0.3-15.1,6.4-41.2-1.2-55c-3.1-5.7-11.8-8.4-15.8-3.4c-2.8,3.5-2.1,8.6-2.4,13.1c-0.4,4.5-3.6,9.9-7.8,8.7
			c1-32.6,3.4-64.9,0.5-97.4c-1.5-17.1-4.2-34.1-8.6-50.8c-2.2-8.4-4.8-16.7-7.9-24.8c-1.6-4.4-10.3-17.9-9.5-22
			c-4.7,25.1-32.2,35.7-34.7,63c-0.7,7.3,0.3,15.2-3.6,21.3c-2.7,4.1-7.4,6.6-9.9,10.9c-2.9,4.9-2.3,11.3,0,16.4
			c6.4,14.3,17,21.6,11.6,39.4c-2.9,9.7-8.2,18.6-10.5,28.5c-3.2,14.3,0.4,29.2,2,43.8c4.3,37.7-7.8,72.4-11.6,109.3
			c-2.4,23.7,2.7,47.6,8.1,70.5c14.1,59.6,10,116.4,1.1,176.5C1698.8,737.4,1698.6,738.5,1698.4,739.6z"/>
		<path class="maincolor" d="M1823.3,974.6c-6.7,7.1-14.3,13.1-22.6,18.3c-8.9,5.6-18.4,10.2-28.1,14.1c-4.6,1.9-9.3,3.7-14.1,5.3
			c-3.9,1.4-8.7,2.9-12.6,4.2c-7.8,2.4-15.7,4.7-23.5,7c-4.3,1.2-8.6,2.4-12.9,3.7c3.3,7.7,6.5,15.3,9.7,23
			c2.2,5.4,4.5,10.7,6.6,16.1c2.2,5.4,4.3,10.9,6.4,16.4c2,5.3,3.9,10.6,5.7,16c1.1,3.2,2.2,7,3.1,10.2c0.9,3.2,1.7,6.5,2.3,9.8
			c2.9,14.1,3.5,28.3,0.2,42.4c-1.9,8-5.4,17-9.7,23.8c-0.7,1-1.4,2.1-2.1,3.1c-5.6,7.9-14.4,17.7-20.9,24.8c-0.3,0.4-0.7,0.7-1,1.1
			c0.1,0.4,0.2,0.8,0.3,1.2c4.5,0.1,11.9,0.3,14.6,0.3c7.9,0.1,15.7,0.3,23.6,0.5c4.7,0.1,9.3,0.3,14,0.6c7,0.4,14.6,0.9,21.3,1.8
			c4.4,0.6,9.1,1.4,13.2,2.5c7.3,1.9,13.9,5.1,18.6,11c4.1-39.8,10.9-79.9,9.8-119C1824.2,1066.9,1822.6,1020.5,1823.3,974.6z"/>
		<path class="maincolor" d="M1812.4,1280.2c-1.9,4-3.9,7.9-6.2,12c-3.9,7-8.3,13.8-13,20.2c-2.5,3.4-5.1,6.6-8,9.7
			c-2.9,3.2-6.1,6.2-9.5,8.9c-0.1,0.1-0.2,0.2-0.3,0.2c-3,2.3-6.1,4.6-9.2,6.8c-7,5-12,8.5-19.5,13.7c-12.6,8.7-25.2,17.3-37.8,25.9
			c-1.3,0.9-2.7,1.8-4,2.7c0.6,10.2,1.7,20.3,2.3,31.1c2.5,46.1,2.3,92.3,1.4,138.4c-0.8,40.9,10.5,82.1-1,122.8
			c-3.8,13.3,0.5,34.8,0.3,48.9c-0.3,18.2-0.9,36.5-0.9,54.7c-0.1,24.6,4.5,49,3.8,73.6c-0.7,25-6.9,48-3.9,73.5
			c6.1,51.2-4.9,102.4-3.8,153.7c3,139.3,2.1,278.7,2,418c0,11.9,0.7,23.7,4.8,34.8c5.9,16,6.7,33.7,0.6,49.8
			c-1.3,3.4-2.8,6.8-2.6,10.4c0.5,6.8,19.1,20.3,24.2,24.4c0.6-13.8,4.1-21.8,13.6-33.5c3.3-4.1,17.3,15.2,18.3,17.9
			c4.5,11.2,1.2,24,4.2,36c2.3,9.4,22,38.4,33.3,22.8c9.4-12.9-1.8-24.3-5.8-36.2c-4.5-13.2,0.3-25.2,6-37.4
			c11.5-24.6,12.5-52,13.5-78.7c0.6-16.8,0.9-33.7-0.1-50.5c-0.9-16,3.1-32.8-2.1-47.9c-4.4-12.7-5.3-24.9-4.7-37.9
			c2-41,9.4-83.7,5.7-125.5c-1.8-19.8-9.8-38.4-11.1-57.9c-1.5-22.5,4.6-45.2,6.5-67.5c6.4-73.6-6.7-145.3-0.2-218.5
			c0.6-6.3,1.1-12.6,1.7-18.8c5.3-59.6,2.9-119.6,2.4-179.5c-0.4-52.7-0.8-105.5,1.3-158.1c1.8-46.3,2.4-92.7-3.6-138.8
			C1806,1363.9,1810.4,1321.3,1812.4,1280.2z"/>
	</g>
	<path class="maincolor" d="M1242.4,1834.1c1.5-1.5,3.2-3.1,4.8-4.6c0.9-0.8,1.8-1.7,2.7-2.6c-0.1-0.7-0.1-1.4-0.2-2.1
		c-0.1-1.2-0.3-2.3-0.5-3.5c-0.2-1.5-0.4-3-0.6-4.5c-0.3-2.8-0.6-5.7-0.7-8.5c-0.2-3,0-6.4,0.2-9.4c-3.1,5.1-7.1,9.3-11.5,13.5
		c2.8,3.7,4.5,7.3,5.3,11.9c0.3,1.7,0.4,3.4,0.5,5.1C1242.5,1830.4,1242.5,1831.8,1242.4,1834.1z"/>
	<path class="maincolor" d="M1253.6,1768.7c0.1-1.1,0.2-2.5-0.1-5.3l-0.2-1.8c-0.1,1.1-0.1,2.8,0,4.1
		C1253.4,1766.6,1253.5,1767.7,1253.6,1768.7z"/>
	<path class="maincolor" d="M1490.2,1311.1c-8.9,25.6-24,82.8-54.1,110.5c-33.9,31.2-83,38.6-87,51.4c-5.7,18.2-22.3,104.4-23.5,110.8
		c-1.2,6.4,4.6,10.6,5,23.7c0.4,13.1-8.6,22.7-8.4,30.1c0.3,7.4,3.7,111.5,5,122.2c1.8,15.1,14.6,23.5,14.6,44.4
		c0,11.7-14.4,24.3-15.4,32.6c-1,8.4,8.2,13.8,8.1,17c-0.1,3.2-2.4,21.7-3.7,28.5c-1.3,6.8-6.5,8.8-33.8,18.1
		c-27.3,9.3-59,13.9-61.3,10.7c-3-4.1,4.8-30,10.7-45.1c5.9-15.1,17.3-20.6,22.5-28.1c5.1-7.6,1.2-16.9,0.5-30.7
		c-0.7-13.8,7-31.7,5.7-44.1c-0.8-7.9-5.3-52.9-9.8-85.8c-10.2,23.5-30.3,69.9-32.5,76.5c-2.9,8.9,0,18.8-0.5,26.1
		c-0.5,7.3-6.8,13.3-13.1,19.1c-6.2,5.8-4.8,12.6-5.2,17c-0.4,4.4,4.2,7.3,6.1,10.6c1.9,3.3-0.8,35.1-8.5,37
		c-44,10.8-86.2,11.5-87.3,9.6c-2.1-3.5,7.9-29.4,15.5-37.4c7.6-8,25.5-22.7,24.3-40c-1.2-17.3,3.8-27.8,11.9-33.5
		c8.1-5.7,10.8-23.7,17.3-47.1c6.5-23.4,13.2-69.8,12.3-87.1c-0.9-17.3-1.2-35.1,2.4-47.5c3.6-12.5,1.3-28.2,0-39.7
		s-9.9-49.6-15-57.4c-4.3-6.4-42.4-50.7-49.8-53.2c-7.3-2.4-24.3-2.8-36.5,2.4c-12.2,5.2-11.1,11.4-9.7,13.5
		c1.3,2.1,11.2,12.8,11.2,17.5c0,4.7-4.7,58-3.7,68.4c1,10.4,13.8,31.2,16.4,36c5.8,11,4.8,19.6,6.7,27.8c2,8.2,16.9,19.8,19,25.6
		c2.1,5.8-15.5,28.9-17.3,26.9c-1.8-2-15-19.8-17.6-23.1c-2.6-3.3-0.5-10.4-2.3-12.4c-1-1.1-14.4-1.9-16.7-0.1
		c-2.4,1.8-1.8,19.9-0.3,22.2c1.6,2.3,20.9,23,22.2,25.3c1.3,2.3-6.2,9.7-12.5,10.2c-6.3,0.5-33.2,5-42.6,0c-9.4-5-6.3-15.4-12-26.4
		c-5.7-11-59.8-69.2-69.2-78.9c-9.4-9.7-25.6-22.4-30.8-31.6c-5.2-9.1-7.2-34.4-9.6-40.9c-2.4-6.5-32.5-18.1-42.4-47.1
		c-9.9-29-5.7-49.9-5.7-49.9c12.6-1.9,25.4,4.7,30.6,7.3c-2.6-35,8.9-91.4,9.7-107.4c2-40-11.2-85.7-11.2-85.7
		c33.4,9.5,53.3,54.8,53.3,54.8c17-36,67.1-86.8,79-102.1c22-28.2,25.5-67.6,25.5-67.6c14.1,12.4,19.2,33.1,18.1,54
		c-0.6,11.7,2.8,12,6.7,6.9c36.8-47.9,67.8-48.7,67.8-48.7s-13.2,45.7-3.7,47.4c27.2,4.8,93.4-76.9,93.4-76.9
		c6.8,45.7-13.5,82.4-13.5,82.4c55.2-22.9,171.5-119,215-148.4c43.5-29.4,74.3-25.2,99.4-28c25.1-2.9,149.2-25.2,154.7-63.4
		c6.5-45.5-64.8-64.8-64.8-64.8c4.2-10.6,16.2-13.9,16.2-13.9c-5.5-6.7-36.3-21.5-63.1-11.2c-31.4,12-41.6-0.8-41.6-0.8
		c13.3-6,22.3-12.5,24.8-17.1c2.1-3.9,0-7.8-3.8-7.4c-8.3,0.7-13.4,7-21.8,9.1c-24.3,6-33.6-4.4-33.6-4.4
		c40.7-11.3,43.1-72.5,155.7-51.8c68.3,12.5,102.1,64.8,102.1,64.8c3-7.6,9.1-13,9.1-13c24.3,32.9,46,73.1,28.2,125.6
		c-16.4,48.4-83.6,59.5-132.2,74.8c-9,2.8-6.1,10-5.1,13.7c1,3.7,23.7,54.2,32.6,81.3c8.9,27.1,9.1,46.7-0.1,64.8
		c-7.9,15.5-55.2,60.5-54.9,63.9c0.2,2.7,18.6,0.7,38.8,2c25.7,1.6,97.5-0.7,98.2,10.6c0.6,8.6-4.9,21.9-12.1,34.8
		c-7.3,12.9-16,25.4-25.1,32.5c-19.9,15.5-129.2,88.1-140.9,98c-11.8,9.9-8.4,19.3-13.3,24.6c-4.9,5.2-14.1,4.2-13.6,9.9
		c0.5,5.8,23.5,5.5,24.3,14.6c2.4,28.1-3.9,99.5-14.1,96.7c-14.6-4.2-28.4-18.7-33.2-33.2c-3.1,10.8-8.9,28.8-12.9,26.5
		c-23.3-13.4-27.2-38.8-31.1-46.4c-3.9-7.6-11.2-13-14.1-21.8c-2.9-8.8,6.7-16.9,8.8-32.1c3.5-25.2,7.7-34.9,17.9-45
		c10.2-10.1,28.7-22.6,48.3-39.9c8.8-7.8,15.6-16.8,20.5-24.4c0,0-47.7,7.5-52.6,8.1c-4.8,0.6-13.5,1-18-0.3
		c-4.5-1.3-24.7-12.5-39.5-27.3C1497.3,1320.6,1490.2,1311.1,1490.2,1311.1z"/>
</g>
<g>
	<path class="accentcolor" d="M1516.7,966.2c2.7-0.4,5.3-0.8,8-1.1c6.2-0.7,11.4-1.1,18.1-1.5c2.7-0.2,5.4-0.3,8.1-0.5
		c2.2-0.1,4.4-0.3,6.6-0.6c3.5-0.4,6.9-0.9,10.4-1.5c0,0,0,0,0.1,0c7.9-1.3,16.1-2.8,23.9-4.4c8.4-1.7,16.7-3.6,24.9-5.7
		c4.6-1.2,9.2-2.4,13.8-3.7c-0.2-27.8-0.4-55.5-0.8-83.3c-1.9-4.5-2.2-9.7-0.6-14.7c-6.2-0.8-12.7-0.6-18.6,1.6
		c-3.7,1.4-7.4,2.7-11.3,3.7c-8.7,2.4-17.9,3.5-26.9,2.6c-8.1-0.9-16-3.6-22.5-8.5c-3.8-2.9-7-6.4-8.7-10.8
		c-6.4-0.5-12.7-2-18.5-4.7c-1.9,28.4-5.2,57.1-5.2,85.4C1517,934.3,1516.7,950.3,1516.7,966.2z"/>
	<path class="accentcolor" d="M1521.6,789.2c2.1-0.6,4.1-1.5,6-2.7c0,0,0,0,0.1,0c2.4-1.4,4.6-3.1,6.8-4.9c3-2.5,6.1-5.4,8.9-8.1
		c8.1-7.7,15.2-14.3,24.4-20.5c11.4-7.7,23.8-13.2,37.3-16.5c5.4-1.3,10.9-2.3,16.4-2.9c-1.7-6.4-3.3-12.8-4.4-19.5
		c-3-18.6-2.1-36.4-1.3-55.2c0.7-15.6,0-31.2-0.2-46.8c-0.2-13.1,5.8-24.3,8.7-37.2c8.2-36.7,11.3-79.7,2-116.5
		c-2.9-11.6-5-22.9-17.9-29c-9.2-4.3-11.5-19.2-6.3-29c12.1-22.9,11.3-46.5,2.9-70.6c-5.7-16.3-11.4-32.4-8.5-49.9
		c3.2-19.3,2.1-34.3-3.4-53.2c-2.1-7.2-5.9-14.9-13.2-16.7c-9.7-2.3-18.2-7.5-24.1-15.7c-4.5-6.4-6.4-25.2-15.4-25.6
		c-4.5-0.2-9.8,2.3-9.8,6.3c0,13.3-8.7,24.1-9.3,36.6c-1.2,25.7-1.1,51.2-3.3,77c-4.1,47.7-1.6,95-4.9,142.7
		c-1.7,24.1-2.6,46.6-1.2,70.5c1.8,32.6,8.5,64.6,9.7,97.4c1.5,43.1-4.4,85.9,2.7,128.8c1.7,9.9,4.8,21.7,1.5,31.6
		c-3.6,11-8.3,16.8-4.4,28.6C1521.4,788.5,1521.5,788.8,1521.6,789.2z"/>
	<path class="accentcolor" d="M1626.3,1567.6c-1,1.4-2,2.8-3.2,4.1c-6.2,6.7-15.5,9.5-24.4,7c-3.5-1-7-2.4-10.3-4c-4.6-2.3-8.7-5-12.7-8.2
		c-1.6,1.5-3.3,2.7-5.2,3.7c-7.1,3.9-15.6,3.8-22.6-0.2c-5.6-3.2-10.9-7.2-15.4-11.8c-4.2-4.1-7.8-8.7-11-13.7
		c-2.8-4.4-5.3-9.1-7.3-14c-1.6-3.8-2.8-6.9-4.1-10.8c1.1,12.6,2.1,25.3,2.1,38c0.1,30.8-3.6,61.4-4.5,92
		c-3.1,107.6-2.8,215.3-1.1,323c0.4,28.8-2.4,58.6,11.9,85.6c1.1,2,0.7,5.6-0.2,7.9c-4.5,10.8-4.1,22.2-3.4,33.4
		c0.9,15.1,4.4,30.1,4.5,45.2c0,128.9,2.1,257.9,3,386.8c0.2,21.4,0.3,42.8,0.5,64.1c0.1,10.4,0.2,20.7,0.2,31.1
		c0.1,8-2.1,20.4,2.3,27.6c1.5,2.4,4.4,4,7,3.1c1.6-0.6,2.7-2,3.9-3.2c11.3-10.4,20.2,6.7,30.6,3.3c4.8-1.6,5.3-7.7,7.8-11.3
		c3.6-5.1,7.5-9.1,10.9-14.2c1.3-1.9,3.5-3.2,5.6-2.8c2.4,0.5,3.9,2.9,4.9,5.2c2.7,6.1,4.7,13.4,10.7,16.1
		c10.6,4.6,20.2-8.7,22.3-17.7c1.9-8.5,0.5-17.5-1.1-26.1c-2.4-13.3-1.2-27.4-4.3-40.5c-2.7-11.2-4.4-21.2-4.2-33.1
		c0.4-26.1,2-50.7-0.6-76.7c-2.5-25.8-5.6-51.8-8.1-77.7c-1.7-17.1-3.2-33.9,5.7-49.8c10.8-19.2,5.9-44.2,5.4-65.2
		c-0.7-27.3,0.3-54.7-0.6-82.1c-1.7-55.8,1-111.5-3.4-167.5c-4.1-53.2-1.2-107.3,2.4-161.3c5.3-78.7,2.3-157.9,4.7-236.9
		C1625.7,1599.8,1626.1,1583.7,1626.3,1567.6z"/>
	<path class="accentcolor" d="M1510.9,1409.6c5-10.2,12-17.7,20.7-25.3c4.9-4.2,10.3-8.5,15.5-12.5l0,0c-2.3,0-4.1-0.1-6.4-0.3
		c-2.8-0.2-6.1-0.8-8.8-1.6c-1.4-0.5-2.9-1-4.3-1.6c-1.8-0.8-3.6-1.7-5.3-2.6c-0.2-0.1-0.9-0.5-2-1.1c0.3,0.7,0.6,1.4,1,2.1
		c2.6,4.8,7.5,8.6,8.2,14c1,7.5-4.8,8.1-9,11.6C1514.9,1397.1,1512.8,1402.7,1510.9,1409.6z"/>
</g>
</svg>
