<?xml version="1.0" encoding="utf-8"?>
<!-- Generator: Adobe Illustrator 27.9.1, SVG Export Plug-In . SVG Version: 6.00 Build 0)  -->
<svg class="v" version="1.1" xmlns="http://www.w3.org/2000/svg" xmlns:xlink="http://www.w3.org/1999/xlink" x="0px" y="0px"
	 viewBox="0 0 2717.9 2666.2" style="enable-background:new 0 0 2717.9 2666.2;" xml:space="preserve">
     $gradientDefs

 <g>
	<path class="maincolor" d="M2041.6,117.7v2545.9c135-1.8,252.8-4.9,310.2-9.8c247.8-21.2,268.2-75.1,313.2-318.9
		c124.3-673.6-10.8-1930-2.2-2324.7c0.1-6.1-5.6-10.7-11.6-10.1C2649.3,0.2,2397,68.2,2041.6,117.7z"/>
	<path class="maincolor" d="M1817.8,2665.6V144.4c-145.3,14.4-300.8,23.8-458.8,23.8C691,168.1,69.6,0.3,66.6,0c-6-0.5-11.7,4.1-11.6,10.1
		c8.6,394.7-126.4,1651.1-2.2,2324.7c45,243.8,65.4,297.7,313.2,318.9c184.8,15.8,992.9,12,992.9,12S1580.3,2666.9,1817.8,2665.6z"
		/>
</g>
<text class="textcolor" transform="matrix(0 -78.48 72 0 2023.4545 1385.2317)" textLength="32.6" lengthAdjust="spacingAndGlyphs" text-anchor="middle" style="font-family:'Ford-Bronco-Font-Main-Regular'; font-size:3.7184px;">
	<tspan>CUSTOM</tspan>
</text>
</svg>
