<?xml version="1.0" encoding="utf-8"?>
<!-- Generator: Adobe Illustrator 27.9.1, SVG Export Plug-In . SVG Version: 6.00 Build 0)  -->
<svg class="v" version="1.1" xmlns="http://www.w3.org/2000/svg" xmlns:xlink="http://www.w3.org/1999/xlink" x="0px" y="0px"
	 viewBox="0 0 2717.9 2666.3" style="enable-background:new 0 0 2717.9 2666.3;" xml:space="preserve">
     $gradientDefs

 <g>
	<path class="maincolor" d="M1359,567.3L1796.9,147c-139.2,13.3-287.4,21.8-437.9,21.8s-298.7-8.6-437.9-21.8L1359,567.3z"/>
	<path class="maincolor" d="M1359,965.7L435.6,79.6C212.2,39.1,68.1,0.2,66.6,0c-6-0.5-11.7,4.1-11.6,10.1c0.6,29.5,0.5,63.8-0.3,102.3
		L1359,1364.1L2663.2,112.5c-0.8-38.5-1-72.8-0.3-102.3c0.1-6.1-5.6-10.7-11.6-10.1c-1.4,0.1-145.6,39.1-369,79.5L1359,965.7z"/>
	<path class="maincolor" d="M2081.3,2663c118.1-1.9,218.8-4.8,270.6-9.2c247.8-21.2,268.2-75.1,313.2-318.9c14.9-80.8,26.1-169.9,34.2-265
		L2081.3,2663z"/>
	<path class="maincolor" d="M1359,2665.9c0,0,133.2,0.6,303.9,0.3l1054.6-1012.1c1.4-129.4-0.3-262.5-3.8-394.8L1359,2559.4L4.3,1259.4
		c-3.5,132.3-5.2,265.4-3.8,394.8l1054.6,1012.1C1225.7,2666.5,1359,2665.9,1359,2665.9z"/>
	<path class="maincolor" d="M1359,1762.5L38.2,495.1c-6.2,117.2-13.1,245.5-19.4,379.8L1359,2160.9L2699.1,874.9
		c-6.3-134.3-13.3-262.6-19.4-379.8L1359,1762.5z"/>
	<path class="maincolor" d="M636.6,2663l-618-593.1c8.1,95,19.3,184.2,34.2,265c45,243.8,65.4,297.7,313.2,318.9
		C417.8,2658.3,518.5,2661.1,636.6,2663z"/>
</g>
</svg>
