<?xml version="1.0" encoding="utf-8"?>
<!-- Generator: Adobe Illustrator 27.9.1, SVG Export Plug-In . SVG Version: 6.00 Build 0)  -->
<svg class="v" version="1.1" xmlns="http://www.w3.org/2000/svg" xmlns:xlink="http://www.w3.org/1999/xlink" x="0px" y="0px"
	 viewBox="0 0 2717.9 2666.2" style="enable-background:new 0 0 2717.9 2666.2;" xml:space="preserve">
     $gradientDefs

<path class="maincolor" d="M1358.9,168.1C691,168.1,69.6,0.3,66.6,0c-6-0.5-11.7,4.1-11.6,10.1c8.6,394.7-126.4,1651.1-2.2,2324.7
	c45,243.8,65.4,297.7,313.2,318.9c184.8,15.8,992.9,12,992.9,12s808.1,3.7,992.9-12c247.8-21.2,268.2-75.1,313.2-318.9
	c124.3-673.6-10.8-1930-2.2-2324.7c0.1-6.1-5.6-10.7-11.6-10.1C2648.3,0.3,2026.9,168.1,1358.9,168.1z"/>
</svg>
