<?xml version="1.0" encoding="utf-8"?>
<!-- Generator: Adobe Illustrator 27.9.1, SVG Export Plug-In . SVG Version: 6.00 Build 0)  -->
<svg class="v" version="1.1" xmlns="http://www.w3.org/2000/svg" xmlns:xlink="http://www.w3.org/1999/xlink" x="0px" y="0px"
	 viewBox="0 0 2717.8 2666.2" style="enable-background:new 0 0 2717.8 2666.2;" xml:space="preserve">
     $gradientDefs

 <g>
	<path class="maincolor" d="M2704,2007.9c-14.1,13.2-28.2,26.1-42.2,38.7c-0.6,0.5-1,0.2-0.9-0.7c0.1-0.8,0.7-2,1.3-2.8
		c14.1-15.1,28.3-30,42.4-44.5c1.7-24.6,3.2-49.6,4.5-74.8c-28.5,33.7-57.1,66.5-85.6,98.3c-4.5,5.5-8.9,9.1-12.5,10.3
		c-2,0.7-2.5-1.9-1-5.8l12.9-22.7c28.4-42.2,58.5-78.6,87.6-105.6c3.4-70.4,5.5-142.9,6.5-216.7c-39.1,51.8-77.9,104.8-116.4,159.1
		c-6.4,9-13.1,16.5-19.4,21.8c-6.1,5.4-10.6,5.1-11.3-0.8s2.7-16.1,8.3-25.5l7.8-10.2c11.9-13.2,23.8-26.1,35.6-38.8
		c3.5-3.7,7.1-7.7,10.7-12.1c2.1-2.6,4.1-5.5,6.1-8.6c25.5-39.3,52-76.1,78.9-109.1c1-85.2,0.6-172-0.8-259.1
		c-71.8,70.9-144.3,140.5-217.4,208.6c-61.9,75.1-128.6,144.5-198.1,206.2c-177.7,182.7-348.9,376.3-511.6,578.8
		c-10.3,14.5-21.6,28.3-33.7,40.9c-2,1.9-4.2,2.6-5.5,1.9c-1.4-0.8-1.6-2.8-0.7-5.3l13.1-21.4c21.3-28.2,43.8-55.5,67.1-81.6
		c2-2.6,3.4-5.5,3.9-8.1c0.6-3.2,0.4-6-0.8-7.9c-1.9-3.1-3.9-6.1-5.8-9.2l-2.1-5.3c0.1-4.3,2.2-9.5,5.6-14.2
		c8.9-12.6,18.8-24.6,29.4-35.5c96.9-107.5,191.3-218.5,282.7-332.3c24.7-22.2,47.3-49.3,65.6-78.5c1.4-2.7,1.6-5.2,0.3-6.3
		c-1.6-1.4-4.2-1.4-7.1,0.2c-6.3,3.7-12.7,8.8-18.6,14.9c-12.3,12.4-24.8,24.2-37.6,35.3c-5.9,4.5-11.8,9.8-17.2,15.7
		c-59.5,76.4-121.1,151.1-184.3,223.7c-10,12.4-22.3,21.2-33.2,23.8c-1.3,0.2-2.2-0.5-2.4-1.8c-0.2-1.1,0.4-2.6,1.4-4
		c101.1-115.1,202.9-229.4,305.4-342.6c94.8-114.5,195.5-221.9,300.3-320.2c6.6-5.4,12.7-12.2,17.8-19.7l6-11.7
		c20.1-40.8,50-79.7,84-109.2c29.6-34.4,59.6-68.5,89.7-102.2c-3.5-123.2-8.5-245.4-14.1-363c-50.6,46.7-98.8,99.1-143.2,155.4
		c-7.4,8.8-15.9,16-24.4,20.6l-4.4,1.5l2.4-6c18.4-26.4,39.1-51.2,61.4-73.5c34.8-38.8,70.7-75.9,107.6-110.9
		c-5.2-108.8-10.7-213.6-15.9-311.4c-4.3,5.1-8.5,9.6-12.7,13.6c-9,9.4-18,21.6-26.1,35.1c-70.6,92.4-142.7,169.9-211.2,227.1
		c-79.6,93.5-158.9,170.8-233.8,228.1c-7.5,7-14.7,12.1-21.1,15c-0.6,0.2-0.9-0.3-0.8-1.3c0.1-0.9,0.6-2.1,1.4-3.1l12.7-15.3
		c39.4-45,78.6-95.4,116.6-149.9c14.9-19.8,30.3-35.3,44.1-44.6c9.4-7.2,19-15.4,28.8-24.6l15.6-19.7
		c85.8-99.8,171.4-188,254.8-262.5c10.1-10.7,20.1-21.1,30-30.9c-11.2-213.1-20-390.5-17.6-500.7c0.1-6.1-5.6-10.7-11.6-10.1
		c-1.7,0.1-202.4,54.2-497.8,101c-30.8,43.9-63.8,86.4-98.7,126.9c-8.9,11.6-19,21.9-29.7,30l-15.9,10.2
		c-20.4,12.7-40.6,29.1-59.8,48.2c-7.3,8.1-14.8,16-22.3,23.8c-4.1,4.4-8.8,7.4-13,8.4c-1.5,0.2-2.2-1-1.9-2.8
		c0.7-3.5,2.3-7.2,4.6-10.8c5.3-7.7,10.9-15.4,16.5-22.9c57.3-69.1,118.6-133.5,182.5-191.3c5.7-5.7,11.5-11.3,17.4-16.7
		c-127.6,19.8-271.9,38-424.8,49.8c-50.4,60.7-104,117.6-159.8,169.6c-11.9,11.5-24.5,20.8-37,27.2c-1.2,0.5-2.2,0.4-2.7-0.5
		c-0.4-0.7-0.1-2,0.6-3.2l13.1-15.1c53.9-61.1,109.3-120,166-176.5c-100.6,7.4-204.7,12-310.1,12.6c-0.5,1.3-1,2.6-1.5,4l-4.1,10.9
		l-16.5,19.3c-137.2,136.4-273.9,273.9-410,412.5c-11.2,12.2-23.1,23.4-35.2,33.3c-2.3,1.6-4.6,2.6-6.7,2.9
		c-1.6,0.2-2.9-0.3-3.6-1.5c-1.7-3.6-1-9.3,2-15.3l6.5-10.6c17.3-24.5,35.7-48.4,55-71.2c66.9-74.3,135.5-146.1,205.6-214.9
		c55.8-58.8,112.9-115.3,171-169.2c-281.8-1.2-554.3-31.9-774.6-66.7c-50,69.4-106.4,134-166.5,190.8
		c-13.5,17.1-29.6,30.9-45.5,39.3l-8.2,4.4c-6.8,5.7-13.1,12.5-18.8,20c-72.1,97.3-153.6,186.5-240,262.6
		c-12.8,12-25.2,25.2-36.7,39.3c-5,6.2-9,13.2-11.3,20l-1.8,8.1c0.5,1.4,2,1.7,3.7,0.8c7.4-3.7,14.9-8.3,22.4-13.7
		c7-5.9,14.1-10.8,21.2-14.4c1.3-0.5,2.3-0.2,2.6,0.9c0.3,1.2-0.1,2.9-1.1,4.5c-3.7,5.8-8.2,11.2-13.2,15.5
		c-15.9,13.2-31.6,27.2-47,41.8C21.1,822.5,16,928.5,11.7,1036.8c50-52.7,100.3-109.7,150.6-170.5c22.2-30.6,45.3-55.1,66.4-70.5
		c0.6-0.3,1-0.2,1.1,0.4c0.1,0.6-0.2,1.6-0.7,2.7c-2.2,4.7-5,9.3-8,13.2c-10.6,12.1-21.1,24.8-31.7,38
		c-58.2,84.7-118.9,161.3-179.3,226.3c-4.3,112.5-7.6,227.2-9.2,341.2c12-14.6,24.1-29.2,36.3-43.7c38.4-52.2,82.8-99.2,129.7-137.4
		c7.8-8.3,16-16.1,24.4-23.1c2.2-1.6,4.4-2.2,6.1-1.9c1.7,0.3,2.7,1.7,2.9,3.7c0.4,5.1-1.7,11.6-5.7,17.8
		c-14,21.7-28.8,43-44.4,63.8c-50.6,49.6-100.5,100.7-149.6,153c-0.3,24.6-0.5,49.1-0.6,73.6c172.6-199.3,345.7-385,517.1-554.8
		c7.3-8.3,14.5-18,21-28.3c3.6-5.3,7.2-10.6,11-15.7c1.4-2,3-3.8,4.5-5.4c7.6-7.2,15-13.7,22.2-19.2c9.1-6.9,18.7-15.9,28.4-26.7
		C654.2,812,705,755.7,755.1,705.6c6.3-6.8,12.4-12.2,17.9-15.6c2.5-1.4,3.5,0.4,2.3,4.2c-1.8,5.8-5.3,12.6-9.5,18.8
		c-27.5,39.3-56.7,75.1-85.6,105c-30.1,27.1-61.3,60.9-91.7,99.5c-3.4,4.4-6.6,9.2-9.5,14.2c-1.7,2.9-2.8,5.8-3.3,8.1
		c-1.4,5.8,0.2,8.5,4.1,6.9c4.8-2.1,10.6-6.8,16.6-13.3c52.4-61.9,105-112.6,153.3-147.8c15.1-10.4,29.6-19.1,43.4-25.9l15.5-12
		c13.3-13.1,26.6-26.5,39.9-40.3c5-5.2,9.8-8.6,13.5-9.7c1.1-0.3,1.6,0.6,1.2,2.4c-0.4,1.8-1.6,4.2-3.1,6.3
		c-14.2,17.9-28.5,34.6-42.9,49.9C753.9,831,690.3,905.5,626.8,979.6c-83.4,80.6-167.7,168.4-252.2,262.5
		c-69,97.3-141.7,186.4-214.2,262.3c-53.3,58.2-106.5,115.5-159.7,171.9c1.5,112.4,5.5,221.8,12.6,325.2
		c65.5-74.8,127-154.5,183.2-237.5c5.8-8.5,13-16,20.6-21.1c2.7-1.8,5.1-1.5,5.6,0.8c0.6,2.7-0.5,6.6-3,10.2
		c-9.1,11.4-18.2,22.8-27.5,34.1c-45.9,77.7-101.6,151.8-163.5,217.4c-4.5,6.1-9.2,12.1-14,17.9c3.9,52.1,8.6,102.6,14.2,151.1
		c24.9-29.2,50.2-57.9,75.9-85.9c2.4-2.1,4.8-2.4,5.7-0.7c0.9,1.9,0.2,5.1-1.9,8.1c-19.2,24.2-39.2,47.7-59.7,70.3
		c-6.2,6.8-12.4,13.5-18.6,20.2c1.3,11.1,2.7,22.1,4.2,32.9c4.1-4.7,8.3-9.4,12.4-14.2c7-8.4,14.8-15.8,22.8-21.7
		c0.9-0.6,1.7-0.6,2.1-0.1c0.4,0.5,0.4,1.5-0.1,2.5l-9.4,14.7c-8.6,10.7-17.3,21.4-26,32.1c4.9,35.4,10.3,69.5,16.3,102.3
		c2.6,13.9,5.1,27.2,7.5,39.9c5.8-7.4,11.6-14.8,17.4-22.2c44.6-62.4,91-116,135.6-156.5c8.2-9.5,16.4-18.1,24.4-25.6
		c2-1.6,3.7-1.9,4.6-1c0.9,0.9,1.1,3.1,0.4,6c-1.7,7.2-5.5,15.8-10.4,23.3c-17.3,26.5-34.9,52.3-52.9,77
		c-37.9,40.9-75.8,83-113.7,126.2c22.2,108.2,44.5,169.1,102.7,204.9c16.4-18.9,32.3-38.2,47.8-58c7.2-9,15.9-16.2,24.3-20.1
		c0.6-0.2,1.1-0.1,1.3,0.3c0.3,0.4,0.3,1,0.1,1.7c-1.1,3.5-2.9,7.1-5.2,10.5c-9.2,12.8-18.7,25.5-28.4,37.9
		c-8.8,11.8-17.9,23.5-27.3,34.8c33.7,17.2,78.2,27.8,138.9,35.1c29.2-32.5,56.8-67,82.4-102.9c13.3-16.8,28.8-30.9,44.5-40.6
		c10.4-7.2,20.7-15.1,30.8-23.6l14.3-16.9c81.7-87.4,167.6-167.4,255.7-238c29.5-28.6,60.1-54.7,91.1-77.8c3.2-1.9,6.2-2.4,8.3-1.4
		c1.3,0.6,1.3,2.8,0,5.1l-4.4,7.4c-13.9,16.6-27.8,33.2-41.8,49.8c-6.2,8.1-13.2,15.5-20.5,21.7c-8.9,8.5-16.9,18.8-23,29.7
		c-63.4,78.5-134.5,147.9-208.3,203.3c-65.6,70.9-135.4,133.9-206.8,186.8c7.7,0.8,15.6,1.5,23.8,2.2c88,7.5,317.5,10.6,533.6,11.8
		c41.9-44,84.6-86.4,128-127.1c5.7-5.9,11.7-11.1,17.8-15.4c2.6-1.7,5-1.6,6,0.1c1.9,3.3,2.5,7.9,1.6,13.3c-0.8,5-0.9,9.7-0.4,13.9
		c0.3,2.1,1.2,3.7,2.7,4.6c3.8,1.3,7.7,2.5,11.7,3.6c1.6,0.7,2.6,2.3,2.8,4.4c0.2,1.9-0.4,4.3-1.6,6.7c-3.3,6.4-7.8,12.6-13.1,17.6
		c-27.6,23.8-55.7,45.5-84,64.8c-6.3,4.6-12.5,9.1-18.8,13.6c216.7,0.9,406.5,0,406.5,0s311.7,1.4,592.2-1.2c1.5-1.7,3-3.4,4.6-5
		c22.4-25.1,44.7-48.7,66.9-70.6c7.4-6.7,14.1-10.5,19.4-10.7c0.4,0.1,0.4,1,0,2.1c-0.6,1.6-1.6,3.3-2.6,4.7
		c-4.9,6-9.9,11.5-14.8,16.6c-21.8,22.3-43.4,43.2-64.9,62.8c167.9-1.7,323.3-4.8,392.1-10.7c247.8-21.2,268.2-75.1,313.2-318.9
		c15.2-82.1,26.4-173,34.6-269.8c-48.7,49.1-97.1,96-145.2,140.6c-114,124.3-226.9,234.2-336.7,327.5c-7.5,6.2-14.6,10.8-21.1,13.6
		c-0.6,0.1-0.9-0.4-0.7-1.3c0.1-0.9,0.6-2.1,1.3-3.2l12-14.3c164.4-163.5,328.3-323.6,491.8-480.2
		C2702.1,2034.6,2703.1,2021.3,2704,2007.9z M367.6,66.6c1.3-0.8,2.6-1.6,3.9-2.2c18.1,3.5,36.3,6.9,54.4,10.2
		c-0.8,0.8-1.6,1.7-2.3,2.5C404.3,73.5,385.6,70,367.6,66.6z M1007.1,2304.7c55.8-44.3,111.1-91,165.7-139.9
		c5.5-5.4,11.4-9.8,17.2-12.6c4.1-2.4,8-2.8,10.4-1.1s3.3,5.4,2.3,9.9l-2.3,6.5c-3.1,5.3-7.2,10-11.7,13.5
		c-48.9,38.9-96.3,84.2-140.6,134.2c-33.7,30.7-68.1,59.1-102.9,84.9c-5.5,5.7-11.3,10.4-17.2,13.9c-3.4,1.9-6.5,2.2-8.4,0.7
		c-1.9-1.5-2.6-4.5-1.7-8.3c1.8-5.9,5.1-12,9.4-17.6C950.9,2356.8,978.2,2328,1007.1,2304.7z M1457.1,2432
		c-31.1,34.2-62.6,67.7-94.7,100.3c-4.2,4.7-9,8.3-13.5,10c-2.6,1-4.2-0.5-3.7-3.5l9.3-18.1c26.6-39.5,59.4-74.8,94.3-101.5
		c10-10.1,20.6-18.6,31.3-24.8c1.7-0.9,3.1-0.4,3.3,1.1c0.3,1.7-0.5,4.2-2,6.4C1473.5,2412.1,1465.4,2422.1,1457.1,2432z
		 M1642.5,2222.3c9.8-4,20.1-12.7,28.3-23.7c34.3-45,72.8-86,113.5-120.6c5.2-5,10.5-9.6,15.9-14c3.7-3,7.4-5.6,11.1-7.9
		c4-2.5,7.9-3.5,10.9-2.9c1.7,0.3,2,2.6,0.8,5.2c-6.4,13.6-15.3,26.9-25.8,38.6c-70.2,70-141.8,137.1-214.4,200.8
		c-11.8,12-24.3,22.2-37,30.2l-6.1,2.2c-2.9-0.4-3.6-4-1.7-8.3c2.8-7,7-14,12.1-20.2c16.9-20.4,34.8-39.7,53.4-57.4
		C1616.6,2234.8,1629.7,2227.3,1642.5,2222.3z M1836.8,2017.4c-2.6,2-5.2,3.6-7.7,4.7c-2.2,1-4.3,1.4-6.1,1.3
		c-3.6-0.2-6.8-1.3-9.4-3.1c-1.1-0.8-1.6-2.4-1.3-4.5c1.1-5.1,4.2-10.7,8.4-15.1c58.5-55.5,116.5-112.4,173.8-170.6
		c5.4-5.6,11.1-10.3,16.9-13.9l5-1.2c2.5,0.3,3.4,3.1,2,6.8c-2.3,5.1-5.9,10-10.1,13.9c-28.7,26.3-57.7,51.5-87.1,75.4
		c-4.6,3.7-8.8,8.9-11.4,14.4C1891.2,1960,1865.6,1992.2,1836.8,2017.4z M2145.6,1700.6c5.8-4.4,11.7-8.2,17.5-11.6
		c3.4-2,6.8-3.5,10-4.4c1.4-0.4,2.5-0.2,3.3,0.5c2.2,3.3,2.3,8.7,0.3,14.9c-6.5,17.7-19.2,35.4-34.2,47.7c-3.3,3.1-6.8,5.4-10.2,6.7
		c-2.8,1.1-5.3,1.3-7.2,0.3c-5.3-3.4-10.8-6.5-16.5-9.2c-1.7-0.6-2.4-2.4-2-4.9c0.4-2.5,1.8-5.3,3.9-7.6
		C2122,1721.5,2133.7,1710.6,2145.6,1700.6z M1534.1,2190.7c-21.6,29.8-44.9,58.2-69.5,85c-8.4,9.5-17.9,17.2-27.2,22
		c-1.2,0.6-2.3,0.6-3,0c-0.5-0.4-0.5-1.3,0.1-2.3c25.2-37,52.8-72.6,82.3-106c7.9-9.7,17-17.6,26.1-22.7c1.7-0.8,3.1-0.6,3.8,0.5
		c0.7,1.2,0.5,3.1-0.6,5.1C1542.7,2178.7,1538.6,2184.9,1534.1,2190.7z M2289.6,1100.8c9.5-10.3,19-20.4,28.8-30.2
		c18.5-21.4,38.8-40.2,59.6-55.4c2.9-1.8,5.6-2.1,7.4-1c1.5,1,1.9,3.4,0.9,6.4l-12.7,24.9c-26,38.8-56.1,75-88.7,106.7
		c-84.1,77.8-167.9,156.7-251.2,236.6c-7.9,7.9-16.4,13.9-24.6,17.3c-0.8,0.3-1.5,0.2-1.9-0.4c-0.4-0.5-0.4-1.4-0.1-2.4
		c1.9-5.7,4.9-11.6,8.7-17.1c9.1-13.2,18.6-26.1,28.4-38.9c4.6-6.4,8-13.3,9.7-19.8c1.4-4.6,0.1-7.9-3.2-8.1c-1.2,0-2.6,0.4-4,1.1
		c-3.2,1.6-6.5,3.6-9.7,5.9c-7.8,5.7-15.5,11.7-23.2,18c-11.7,9.6-23.5,18.6-35.3,26.9c-1.2,0.7-2.1,0.5-2.4-0.4
		c-0.3-1,0.2-2.5,1.2-3.8c20.7-23.2,42.6-44.6,65.2-63.7c71.2-63.6,143.7-122.8,216.9-177.2c5.5-3.6,11.1-7.7,16.5-12.2
		C2280.5,1110,2285.2,1105.6,2289.6,1100.8z M1269.6,2382.5c3.5-3.3,7-6.9,10.3-10.7c1.9-2.2,3.7-4.6,5.2-7.1
		c35.6-55.7,78.9-107.4,126.1-150.4c7.6-9,14.9-18.4,21.8-28c6.1-9.4,13.1-18.2,20.8-26.1c2.3-2.1,4.8-3,6.5-2.3
		c1.5,0.6,1.9,2.6,1,5.1c-3.2,7.2-7.5,14.3-12.7,20.9c-65.4,76.9-128.2,156.6-187.9,238.5c-5.5,7.5-12,14.1-18.8,19.3
		c-6.5,5.1-12.9,6.2-16.1,2.6c-3.2-3.6-2.4-11,1.9-18.6l7-8.7C1246.2,2405.4,1257.9,2393.9,1269.6,2382.5z M1578.7,2022.1
		c-18.1,26.6-40.8,49.7-64.5,65.8c-1,0.6-1.8,0.4-2-0.3c-0.2-0.8,0.2-2.1,1-3.2c46.6-59.8,96.2-116.9,148.1-170.2
		c11.1-14.4,22.2-28.9,33.2-43.5c4.1-5.3,9.4-9.1,13.8-9.7c1.9-0.3,3,1,2.6,3.2c-0.6,3.9-2.4,8.2-5.1,12.2
		c-8.7,12.7-18.4,24.7-28.7,35.9C1642,1945.3,1608.9,1982.4,1578.7,2022.1z M2526,1125.4c-31.7,36.7-67.2,67.6-103.1,89.6
		c-0.5,0.2-0.8,0-0.7-0.6c0.1-0.8,0.6-1.8,1.2-2.6c32.6-35,67.4-65.9,103-91.5c0.5-0.3,0.9-0.3,1.2-0.2c0.3,0.1,0.5,0.5,0.4,0.9
		C2527.9,1122.5,2527.2,1124.1,2526,1125.4z M2080.8,1459.1c-34.4,47.5-74.7,90-117.3,123.9c-0.7,0.5-1.3,0.8-1.9,0.9
		c-0.1,0-0.2,0-0.2-0.1c0-0.1,0.1-0.3,0.2-0.4c36.6-44.9,73.3-89.7,110.2-134.4c8.2-9.2,17.4-16.5,26.4-20.9c1.6-0.7,2.8,0,2.9,1.6
		c0.1,2-0.8,4.6-2.4,7C2092.9,1444.3,2086.9,1451.8,2080.8,1459.1z M691.7,2505.6c12-13.5,24.4-26.7,37-39.3
		c5.9-5.7,11.3-12.1,16.1-19c5.5-7.9,10.3-16.1,14.1-24.4l5.3-13.2l23-27.6c28.7-29.6,56.8-60.3,84-92.1
		c11.6-13.4,24.9-23.7,37.7-29.1c1.3-0.4,2.2,0.1,2.5,1.2c0.3,1.2-0.1,3-1.1,4.7c-14.4,20.7-29.7,40.9-45.7,60.4
		c-10.4,14-20.7,28-30.8,42.2c-4.4,7.7-9.9,15-16.1,21.2c-22.8,21.6-45.5,43.6-67.9,66.1c-19.7,25.5-41,49.6-63.3,71.7
		c-4.3,4.2-9,7.2-13.3,8.5c-1.4,0.3-2.1-0.8-1.7-2.5c0.7-3.1,2.3-6.4,4.5-9.4C681,2518.4,686.3,2511.9,691.7,2505.6z M1703.4,1617.6
		c-31.3,32.6-63.9,62.6-97.3,89.3c-4,3.2-8.2,5.1-11.8,5.5c-2.6,0.5-4-1.4-3.3-4.6l3.2-6.3c12.9-20.9,28.6-40.6,45.9-57.4
		c21.9-23.9,44.6-46.3,67.9-67c7-6,14.2-7.2,17.3-2.9c3.2,4.3,1.5,13-4.1,21C1716.2,1603.4,1710.1,1611.1,1703.4,1617.6z
		 M2259,385.2c29.7-27.4,60.1-53,90.8-76.6c4.1-2.8,8.1-4.2,11.4-4.1c2.1,0.1,3.2,1.8,2.9,4.6c-1.5,7.7-4.8,16-9.4,24.2
		c-25.1,41.3-48.7,83-70.9,124.9c-1.7,3.3-2.3,6.5-1.7,8.8c1.1,4.2,3.4,7.4,6.6,9.4l5.3,2.6c2.3,1.4,3.3,4.5,2.6,8.5
		c-0.6,4-2.8,8.6-6,12.6c-21.6,25.3-41.3,52.4-58.5,80.6c-5.2,7.5-11.7,14-18.4,18.4l-39.3,25.1c-12.4,9.4-24,22.3-32.8,36.6
		c-8.3,11.8-17.8,22.8-27.9,32.5c-37.3,27.2-74.5,54.9-111.6,83.2c-0.8,0.6-1.6,0.5-1.8-0.2c-0.2-0.7,0.2-1.8,1-2.7
		c7.3-7.6,14.8-14.8,22.3-21.7c51.5-38.2,97.3-96.6,123.2-157.1c1.3-4.1,3.5-8.3,6.4-12.3c5.6-7.8,11.7-15.1,18.2-21.9
		c4.2-4.3,8.3-8.8,12.3-13.4c1-1.2,2-2.5,2.8-3.8c2.2-3.3,3.5-6.9,3.4-9.7c0-2.9-1.3-4.8-3.5-5.2c-7.9-1.4-18.4,2.7-28.5,11.1
		c-8,7.3-15.6,15.5-22.6,24.3c-37,50.1-80.2,94.8-125.5,130c-4.1,3.1-8.2,4.3-11.1,3.3c-3.3-1.2-5.1-4.5-5-9.2l0.1-7.3
		c-0.2-3.8-3.1-5.1-7-3.3c-5.2,2.8-10.5,7-15.2,12.2c-29.7,33.4-61.3,64-93.9,90.7c-3,1.9-5.8,2.6-7.9,1.8c-1.4-0.5-1.5-2.6-0.3-4.9
		c3.5-6.8,8.2-13.3,13.5-18.9c30.3-33.2,60.9-66,91.8-98.4c20.3-24.6,42.9-46.1,66.3-63c0.7-0.4,1.3-0.4,1.5,0
		c0.3,0.4,0.2,1.2-0.3,2c-4.6,8.1-9.8,15.9-15.6,23.4c-3.2,4.1-5.9,8.4-7.9,12.9c-0.3,0.7-0.4,1.3-0.1,1.6c0.2,0.4,0.7,0.4,1.2,0.2
		c5.1-2.4,10.4-6.1,15.4-10.9c35.4-34.7,70.3-70.5,104.5-107.4c9.2-9.2,16.7-20.7,20.9-32c1.4-3.9,0.4-6.9-2.4-7
		c-4.5-0.2-10,2.1-15.3,6.4c-12.1,10-24.1,20.2-36.1,30.5c-3.1,2.2-6.1,3.3-8.5,3c-0.6-0.1-1-0.6-1-1.4c0-0.8,0.4-1.8,1.1-2.7
		c11.3-13.4,23.8-25.3,36.6-35.1C2176.8,453.3,2218.5,421.4,2259,385.2z M1779.3,490c-1.2,1.7-1.8,3.6-1.6,5
		c0.2,1.3,1.1,1.8,2.5,1.4l17-11.3c20.4-16.4,39.9-35.9,57.6-57.6c4.2-5.8,9.4-10.7,14.7-13.9c3.6-1.9,6.4-0.9,6.8,2.3
		c0.5,4.7-1.2,10.7-4.7,16.6c-6.1,9.7-12.7,19.3-19.7,28.5c-20,29.8-43.4,57.6-68.7,81.5c-16.1,11.5-32.2,22-48.3,31.2
		c-10.7,6.9-21.3,16.2-30.8,27.1c-32.5,37.5-66.5,72.9-101.6,105.9c-9.7,11.3-19.7,22.2-29.9,32.7c-2.6,2.3-5.4,3.4-7.4,2.8
		c-1.7-0.5-2.1-2.7-1.1-5.4c2.5-6.8,6.6-13.7,11.7-19.9c33-34.8,67.5-66.7,102.9-95.1c9.5-7.2,16.3-20,15.3-28.7
		c0.3-3.2-0.9-5.4-3.3-5.7c-2.4-0.3-5.6,1.2-8.5,4.1c-3.2,3-6.3,6.4-9,10.1c-1.5,2-3.1,4-4.7,5.8c-6.1,7.8-13.1,14.6-20.3,19.9
		c-1.1,0.8-2.2,0.7-2.5-0.1c-0.4-0.9-0.1-2.3,0.8-3.8c18.5-27,39.4-52.5,61.9-75.4c32.8-37.2,66.4-73.2,100.7-108.1
		c2.9-3.1,6-5.9,9.1-8.3c1.2-0.9,2.3-1.5,3.4-1.6c1.4-0.1,2.4,0.6,2.7,2c0.3,1.4,0,3.2-0.9,5.1c-0.6,1.4-1.4,2.8-2.4,4.1
		c-3.8,4.9-7.7,9.7-11.7,14.3C1798.6,466.6,1788.7,478.1,1779.3,490z M1152.6,955.4c-69.1,81.1-141.9,157.4-217.2,227.7
		c-14.2,15-28.7,29.6-43.4,43.7c-7.8,6.6-15.9,11.4-23.4,13.7c-6.6,2.2-13.5,6-20.3,11c-71.2,65.8-141.7,133.6-211.3,203.2
		c-8,7.8-16.5,14.4-24.9,19.3c-1.4,0.7-2.6,0.5-3-0.6c-0.7-1.7-0.6-4.1,0.2-6.8c2.1-7.5,5.9-15.3,10.8-22.7
		c20.3-25.7,41.5-50.5,63.4-74.4C828,1226,969.8,1076.9,1108.3,922.9c78.1-93.7,164.2-177,253.5-245.4
		c75.7-72.7,149.7-149.3,221.3-229.4c54.7-66.3,114.4-126.5,176.5-178.3c3.1-1.9,6-2.5,8-1.5c1.3,0.7,1.3,3-0.1,5.3
		c-5.4,7.9-10.9,15.7-16.4,23.5l-4.7,7.8c-1.8,4.9-0.7,8.7,2.7,9c7.5,0.7,16.9-2.8,26.2-9.8c39.3-31.2,78.4-63.7,117.1-97.4
		c7.8-7.4,16-13.6,24.2-18.2c5.6-3.1,10.7-4,14.5-2.2c2.8,1,3.6,4.7,1.9,9.4l-10.5,15.5c-23.3,33-54,59-82.8,70.2
		c-16,5.7-32.8,15-49.4,27.3c-5.1,3.3-10.2,6.3-15.3,9.2c-2.5,1.4-4.9,2.5-7.3,3.4c-4.7,1.7-9.5,4.1-14.4,7.1
		c-2.5,1.5-4.9,3.7-7.1,6.2c-16.2,22.2-36.2,40.7-56.4,52.2l-9.5,6.6l-17.9,20.2c-25.4,29.3-52.9,55.8-81.3,78.2
		c-9.4,7.5-18.1,17.4-24.9,28.3c-6.3,11.2-12.4,22.5-18.2,33.8c-3.5,7.4-8.9,14.5-15,19.7c-7.4,5.7-14.9,10-22.1,12.4
		c-9.1,3.5-18.4,8.6-27.8,15.1c-87.5,80.4-169.8,172.9-242.8,272.9c-9.8,15.5-19.3,31-28.5,46.7c-3.7,5.9-9,10.9-14.1,13.2l-8.3,3.3
		C1170.5,939.5,1160.9,946.1,1152.6,955.4z M1091.6,819c-31.5,32.3-63.7,63.2-96.4,92.4c-8.7,8.1-18,12.9-25.7,13.1
		c-1.8,0-2.6-1.6-2.1-4c0.7-3.1,2.5-6.5,5-9.3c45.4-45.4,91.7-89,138.7-130.6c5.4-4.4,10.9-7.3,16-8.5c1.1-0.1,1.8,0.3,2.1,1.3
		s0.1,2.3-0.5,3.7c-2.8,6.1-6.8,12-11.6,17C1108.6,802.4,1100.1,810.7,1091.6,819z M900.5,792.4c-13.6,14.1-27.4,27.8-41.5,40.9
		c-8.1,8.1-17,13.7-25,15.6c-1.3,0.2-2.3-0.4-2.7-1.6c-0.4-1.1-0.1-2.8,0.8-4.5c10.1-17.5,23.4-33.8,38.2-46.6
		c47.3-53.5,97.5-102.6,149.4-146c0.1,0,0.1-0.1,0.2,0c0,0,0,0.1,0,0.2c-0.1,0.3-0.3,0.6-0.5,0.8c-4.4,4.3-8.8,8.8-12.9,13.6
		C974.8,710.6,939,753.8,900.5,792.4z M2511.4,2198.2c0.1,0,0.2,0.1,0.3,0.2c0,0.1,0,0.3-0.1,0.5c-0.7,1.2-1.6,2.3-2.5,3.3
		c-15.2,14.6-29.4,31.3-41.7,49.2c-12.2,19.3-28.1,36.6-45,48.8c-3,1.8-5.4,0.9-5.5-1.9c-0.2-3.6,1.6-8.4,4.7-12.6
		c14.9-18.6,29.6-37.4,44-56.4c5.5-7.8,12.3-14.6,19.3-19.4c8-4.9,16-8.6,23.7-11.2L2511.4,2198.2z M443,965.2
		c-1.1,2.1-2.4,4.1-4,5.9c-3.5,4.1-7.2,7.9-11,11.5c-20.7,19.6-41.6,38.9-62.5,57.9l-10.1,6.1c-5.2,2.7-9.5,1.6-10.8-2.6
		c-0.4-1.5,0-3.6,1-5.7c1.8-3.6,4.2-7.1,6.9-10.2c26.7-26.5,51.9-55.7,74.7-86.8c17.7-27.6,39.9-52.8,63.8-72.5
		c4.6-4,9.3-7,13.9-8.7c1.4-0.3,2.1,0.7,1.7,2.4c-0.9,3.6-2.7,7.3-5.1,10.9c-14.9,20.2-30.1,40.1-45.7,59.8
		c-0.6,0.9-1.2,1.9-1.6,2.8c-2.9,7.1-5.7,14.2-8.3,21.3L443,965.2z M150.6,994.7c-27.6,44.9-62.9,86.1-101.3,118.2
		c-4.4,3.5-8.9,5.4-12.7,5.4c-2.9,0.1-3.9-2.9-2.4-6.8l10.4-16.6c38.8-50.6,80.3-98.8,123.6-144c4.7-5.4,9.7-10.2,15-14.2
		c0.6-0.4,1.1-0.5,1.5-0.3c0.4,0.2,0.5,0.7,0.4,1.3c-0.5,3-1.8,6.3-3.7,9.6C171.5,963.3,161.2,979.1,150.6,994.7z M218.6,872.2
		l-13.7,18c-6.9,8-14.7,14.7-22.5,19.5c-3.8,2.4-7.3,2.9-9.5,1.4c-2.3-1.5-3-4.9-1.9-9l5.1-9c56.9-67.5,116-132.3,177-193.9
		c5.5-4.8,11.2-8.3,16.7-10.4c2-0.5,3.2,0.8,2.8,3.1c-0.5,3.7-2.3,7.8-5,11.6c-17.4,25.2-39.6,46.6-62.2,59.6
		c-5.7,3-11.4,7.5-16.7,12.9l-5.3,7.9C262.9,814,241.3,843.5,218.6,872.2z M507.4,487c-32.2,44.2-70.7,82.6-110.9,110.5
		c-0.9,0.6-1.8,0.7-2.3,0.3c-0.4-0.3-0.3-1.1,0.2-1.8c8.5-10.8,17.7-20.9,27.3-30c27.1-26.6,53.9-54,80.3-82.1
		c7.3-8.8,15.5-16.3,23.9-21.7c0.4-0.3,0.9-0.3,1.1-0.1c0.3,0.2,0.3,0.6,0.2,1.1c-0.4,1.8-1.5,3.8-2.9,5.5
		C518.8,474.9,513.1,481,507.4,487z M2259.9,2223.5l-15.4,21.1c-17.7,20.2-35.4,38.2-52.7,53.6c-10,9.4-19.9,18-29.6,25.7
		c-2.4,1.5-4.5,1.9-6,1.1c-1.8-1-2.9-3.1-3.4-6.2c-0.5-2.2,1.2-6.7,3.7-10.2l12-11.9c29.6-26,59.5-53.9,89.6-83.6
		c1.6-1.4,3.2-2.3,4.5-2.6c0.7-0.2,1.2,0.2,1.3,1.1C2264.1,2214.6,2262.5,2219.3,2259.9,2223.5z M1795.4,2578.8l3.9-7.8
		c21.9-31.8,44.7-60.8,67.4-85.9c54.4-65.5,108.8-125,162.5-177.4c5.3-5.5,10.4-9.3,14.8-10.9c1.4-0.3,1.6,1.8,0.5,4.7
		c-1.6,4.2-4.2,8.6-6.9,11.9c-12.5,13.9-25,26.4-37.2,37.6c-58.9,57-119.1,126.3-178.1,204.7c-8.1,10.2-16.3,17.9-23.5,22.1
		L1795.4,2578.8z M1530.5,1595.8c-1.4,2.1-2.5,4.5-2.9,6.5c-0.4,1.8,0,2.9,1,2.7l15.2-11.2c19.3-17.3,39.3-39.3,58.9-64.8
		c4.9-7,10.1-12.4,14.7-15.4c3-1.7,4.4,0.4,3.4,5.1c-1.5,6.7-4.9,14.7-9.4,22c-7.6,11.9-15.5,23.4-23.5,34.4
		c-24.2,36.2-49.8,68.6-75.2,95.1c-14.7,11.7-29,21.9-42.9,30.4c-9.5,6.7-19.8,16.8-30.1,29.4c-35.2,43.4-70.5,83.7-105.6,120.1
		c-10.5,13.1-21.1,25.6-31.7,37.5c-2.6,2.6-4.8,3.3-5.8,1.9c-0.9-1.2-0.3-4.3,1.3-7.8c4.2-8.8,9.5-17.4,15.1-24.6
		c34.4-39.6,68.7-74.7,102.2-104.7c8.9-7.5,18.1-23.5,20.8-35.9c1.4-4.4,1.5-7.8,0.1-8.9c-1.4-1.1-4.1,0.1-7,3.3
		c-3.2,3.3-6.5,7.3-9.6,11.7c-1.7,2.4-3.5,4.7-5.2,6.8c-6.9,9.2-14,16.8-20.6,22.2c-1,0.7-1.7,0.4-1.6-0.8c0.1-1.3,0.8-3.3,1.9-5
		c22.2-32.7,45.3-62.6,68.5-88.4c35.2-42.9,70.5-84.2,105.8-123.5c3-3.5,6.1-6.5,9-9.2c1.1-1,2.1-1.4,2.8-1.3c0.9,0.3,1.3,1.6,1,3.6
		s-1.2,4.5-2.6,6.9c-0.9,1.8-2,3.5-3.1,5c-4.3,5.8-8.6,11.4-13,16.8C1551.8,1568.4,1541.1,1581.8,1530.5,1595.8z M1441.1,1608.2
		c-75.3,94.4-151.1,181.1-226.2,258.8c-14.9,17.1-29.7,33.5-44.5,49.1c-7.5,7.1-14.5,11.5-20.3,12.8c-5.1,1.3-10.9,4.7-17.2,9.9
		c-70.8,72.4-141.8,147.8-213,226.1c-8.1,8.8-16,15.6-23.3,20.2c-1.2,0.6-1.8-0.1-1.7-1.7c0.2-2.6,1.2-5.9,2.7-9.4
		c4.2-9.8,9.6-19.8,15.6-28.7c22.8-30.3,45.9-59.2,69.1-86.7c147.5-161.1,295.4-330.6,443-507.9c85.9-109.5,172.9-202.4,256.2-273.5
		c76.3-80.8,153-167.7,229.4-259.9c60.4-77.6,121.7-145.5,181.3-200.9c2.7-1.9,4.8-1.8,5.7,0.1c0.6,1.3-0.3,4.5-2.1,7.4
		c-6.5,9.5-13,19-19.5,28.3l-6,9.6c-3,6.4-3.8,11.9-1.7,13.3c4.5,3,11.9,0.7,20.5-6.5c37.1-32.9,74.6-67.6,112.3-104
		c7.8-8.2,15.5-14.6,22.5-18.8c4.8-2.9,8.4-2.6,10.1,0.8c1.4,2.1,0.5,7.6-2.4,13.6l-12.6,18.8c-27.6,39.8-57.2,67.7-79.9,75.4
		c-12.4,3.6-26.7,11.9-42,24.5c-4.5,3.2-9,6.1-13.3,8.6c-2.1,1.2-4.1,2.1-6,2.7c-3.6,1.1-7.6,3.1-11.9,6c-2.2,1.5-4.5,3.8-6.9,6.7
		c-18.9,26.6-38.8,46.9-56,57.5l-8.6,6.6l-19.2,23.3c-27.5,34-55.2,63.4-82,87c-8.9,8-18.2,19.4-26.8,32.8
		c-8.3,13.9-16.6,28-24.6,42.2c-5.1,9.4-11.2,17.8-17.2,23.5c-6.9,6-13.4,9.8-18.8,11.2c-7.1,2.4-15.1,7-23.6,13.5
		c-86.8,88.4-174.9,195.1-259.9,314.9c-12.2,18.9-24.2,38.1-36.1,57.4c-4.7,7.3-9.9,12.7-14.1,14.6l-6.6,2.3
		C1458.7,1590.9,1450,1597.6,1441.1,1608.2z M1697.2,1389.6c63.1-81,127-154,190-217.4c17.6-19.4,35.1-36.6,52.1-51.2
		c0.7-0.5,1.2-0.3,1.2,0.5c0,0.8-0.5,2-1.2,3c-43,64.1-87.4,124.7-132.3,180.6c-10.1,13.8-20.5,25.4-30.5,33.8l-14.1,10
		c-17.9,12.2-37.1,29.5-56.7,51c-7.8,9.3-15.6,18.3-23.4,27.2c-4.3,5-8.5,7.9-11.5,8.2c-1-0.2-1-2-0.1-4.4c1.8-4.6,4.3-9.5,7.1-13.8
		C1684.3,1407.7,1690.7,1398.6,1697.2,1389.6z M2456,529.6l-6.4,10.6c-41.5,73.1-92,133.4-135.3,161.3c-2.8,1.8-4.3,0.2-3.7-3.8
		c0.7-4.4,3.3-10.2,6.7-14.8c10.6-13.7,21.4-25.9,31.9-36c37-39.1,74.2-82,111.1-128.1c4.6-5.6,9.2-10.2,13.5-13.6
		c0.3-0.2,0.5-0.1,0.5,0.2s-0.3,1-0.6,1.5c-3.9,5.8-8,11.2-12.1,16.1L2456,529.6z M964.6,1866.8c-32.5,36.5-64.9,70.8-97.1,102.7
		c-8.7,9-16.5,13-21.5,11.2c-1.1-0.6-1-3,0.2-6.2c1.6-4.1,4.1-8.4,6.8-11.7c46.5-51.1,92.8-99.3,138.8-144.5
		c5.1-4.7,9.8-7.2,13.5-7.5c0.7,0.1,1,1,0.9,2.4c-0.2,1.4-0.8,3.2-1.7,5c-4.1,7.7-9,14.9-14,20.6
		C981.8,1848.2,973.2,1857.5,964.6,1866.8z M1446.8,1299.6c-12,12.8-23.7,22.3-34.1,27.9c-1,0.4-1.5-0.1-1.5-1.4
		c0-1.1,0.7-2.8,1.6-4.3l14.2-17.6c62-75.6,124.1-147.3,186.1-214.6c8.3-9.1,16.4-15.4,23.3-18.4c1.1-0.4,1.7,0.3,1.6,1.9
		c-0.1,1.3-0.9,3.3-2,4.8C1573.4,1160.1,1509.8,1234.6,1446.8,1299.6z M852.6,1776.9c-14.1,16-28.2,31.3-42.2,45.8
		c-8.3,9.1-16.1,14.5-22,14.9c-0.9-0.1-1.3-1.2-1.1-3c0.2-1.7,1-3.9,2.2-6c13.2-21.8,27.9-40.9,42.3-54.6
		c50.7-61.8,101.7-116.6,151.5-163.1c0.1-0.1,0.1-0.1,0.1,0c0,0,0,0.1-0.1,0.2c-0.2,0.4-0.4,0.7-0.6,0.9c-4.5,4.7-9,9.9-13.5,15.4
		C931.5,1683,892,1733.6,852.6,1776.9z M2528.6,111.5c0.1,0,0.1,0.2,0.1,0.4s-0.1,0.5-0.3,0.7c-0.9,1.5-1.9,2.8-2.9,4
		c-15.3,16.3-30.8,35.8-45.6,57.4c-15.2,23.7-32,43.5-47.5,55.9c-2.6,1.6-3.8-0.2-2.8-4.2c1.3-5.2,4.2-11.3,7.8-16.3
		c16.7-21.9,33.3-44.2,49.8-66.8c6.5-9.4,13.4-17,19.8-21.8c7-4.6,13.6-7.7,19.5-9.2L2528.6,111.5z M1423.2,996.5l-12.4,16
		c-5.7,8.9-11,18.3-15.5,27.9l-6.8,14.1l-17.9,22.4c-140,153-280.2,307.7-420.4,464.1c-11.9,14-23.7,26.4-35.3,36.8
		c-2.1,1.6-4,2.4-5.4,2.2c-1.1-0.1-1.7-1.2-1.8-3.1c0.3-5.5,2.9-13.3,7.1-20.8l8.2-13.1c20.5-29.6,41.4-57.8,62.5-84.5
		c71.3-85.6,142.7-167,213.9-244c86.1-98.9,172-189.9,256.8-272.1c53.3-53.4,106.1-102.9,158.1-148.2c4.9-3.3,10.1-8.1,15.5-14.1
		c33.3-43,67.2-78.6,99.1-104.4c0.7-0.6,1.2-0.3,1.1,0.7c-0.1,1-0.8,2.4-1.6,3.4c-12.4,13.6-24.7,26.6-37.1,39.2
		c-65.3,81.6-131.2,152.5-195,209.9c-12.7,11.1-24.8,19.2-35.7,24c-4.8,2.2-10.4,7.1-16,14.1
		C1437.3,976.2,1430.1,986.1,1423.2,996.5z M493.8,1892.7c-1.5,2.6-3.1,5.1-4.8,7.2c-3.8,4.7-7.6,9.1-11.4,13.1
		c-20.8,21.8-41.5,43-62.2,63.8l-8.8,5.8c-4.4,2.3-6.7-0.4-5.9-6.6c0.3-2.2,1.4-5,2.9-7.7c2.5-4.5,5.4-8.8,8.4-12.4
		c27.2-29.7,54.5-63.7,81-100.9c21.9-33.8,45.7-62.9,68.6-83.9c4.4-4.3,8.6-7.2,12.2-8.3c1-0.1,1.1,1.5,0.2,3.8
		c-2,4.7-4.5,9.5-7.4,13.8c-17.3,24.2-34.6,47.9-52.1,71c-0.8,1.1-1.5,2.3-2.1,3.5c-4.6,9.2-9.1,18.3-13.5,27.5L493.8,1892.7z
		 M1993.1,406.1c-28.6,36.8-57.6,65.9-84,84c-1.1,0.5-1.9,0.3-2.3-0.5c-0.3-0.5,0-1.5,0.5-2.7l12.3-18.7
		c23.9-32.1,48.4-60.2,72.3-82.8c5-4.9,9.8-9.3,14.6-13.1c1.7-1.1,2.8-0.4,2.8,1.7c0,2.7-1.1,6.4-3,10.2
		C2002.3,391.7,1997.8,399.2,1993.1,406.1z M295.5,1853.5c-34.9,55.2-73.2,103.1-110.1,137.5c-4.2,3.7-7.8,5.1-10.2,4.1
		c-1.9-0.7-1.4-5.1,1-10.2l13-20.4c44.2-60.1,89.2-116.1,134.3-167.3c5.1-6.3,10.2-11.6,15-15.8c0.5-0.4,0.9-0.4,1,0
		c0.2,0.4,0.1,1.1-0.2,1.9c-1.5,4.1-3.6,8.4-6,12.4C320.9,1815.3,308.3,1834.6,295.5,1853.5z M386,1700.9l-15.6,21.3
		c-7.5,9.2-15,16.5-21.9,21.1c-3.3,2.3-5.8,2-6.6-0.7c-0.9-2.7,0-7.6,2.2-13.2l6.8-11.2c62.3-78.8,124.9-153.2,187.5-222.6
		c5.3-5.2,10.4-8.6,14.6-9.9c1.5-0.1,1.7,2,0.6,5.2c-1.7,5-4.5,10.3-7.6,14.8c-20.8,30.5-43.2,54.2-62.6,66.3
		c-4.8,2.7-10.2,7.3-15.6,13.4l-6.4,9.5C436.6,1631.7,411.5,1667.1,386,1700.9z M718.3,1241.6c-37.5,53-76.9,96.1-113.3,124
		c-0.8,0.5-1.4,0.5-1.6-0.2c-0.1-0.5,0.2-1.6,0.8-2.5c9.6-12.7,19.3-24.3,29-34.5c27.6-29.8,55.2-60.7,82.8-92.7
		c8-10.3,16.2-18.5,23.6-23.8c0.4-0.2,0.7-0.2,0.8,0.2c0.1,0.3,0,0.9-0.3,1.6c-1,2.4-2.4,4.9-4,6.9
		C730.3,1227.7,724.3,1234.7,718.3,1241.6z"/>
	<path class="maincolor" d="M43.6,389.4C152,298.4,256.4,194,353.3,79.8c4.3-5.5,9.3-10,14.3-13.2C183.3,31.2,67.8,0.2,66.5,0
		c-6-0.5-11.7,4.1-11.6,10.1C56.9,98.7,51.6,230.5,43.6,389.4z"/>
	<path class="maincolor" d="M31.1,628.5c65.9-88.2,139.4-170,217.3-242.1C352.3,303.5,453,207.5,547.3,101.6c0.7-1,1.5-2,2.2-2.9
		c-44.3-7.1-86.4-14.4-125.9-21.6c-49.3,52.8-98.2,106.2-146.6,160.4c-75.4,82.7-155.1,158.1-237,224.1
		C37.1,514.9,34.2,570.7,31.1,628.5z"/>
</g>
</svg>
