<?xml version="1.0" encoding="utf-8"?>
<!-- Generator: Adobe Illustrator 27.9.1, SVG Export Plug-In . SVG Version: 6.00 Build 0)  -->
<svg class="v" version="1.1" xmlns="http://www.w3.org/2000/svg" xmlns:xlink="http://www.w3.org/1999/xlink" x="0px" y="0px"
	 viewBox="0 0 2717.9 2666.2" style="enable-background:new 0 0 2717.9 2666.2;" xml:space="preserve">
     $gradientDefs

 <path class="maincolor" d="M1358.9,168.1C691,168.1,69.6,0.3,66.6,0c-6-0.5-11.7,4.1-11.6,10.1c8.6,394.7-126.4,1651.1-2.2,2324.7
	c45,243.8,65.4,297.7,313.2,318.9c184.8,15.8,992.9,12,992.9,12s808.1,3.7,992.9-12c247.8-21.2,268.2-75.1,313.2-318.9
	c124.3-673.6-10.8-1930-2.2-2324.7c0.1-6.1-5.6-10.7-11.6-10.1C2648.3,0.3,2026.9,168.1,1358.9,168.1z M1483.7,1755
	c-8.4,24.3-22.8,78.7-51.4,105c-32.2,29.6-78.8,36.6-82.6,48.9c-5.4,17.3-21.2,99.2-22.3,105.3c-1.2,6.1,4.4,10.1,4.7,22.6
	c0.3,12.5-8.2,21.6-7.9,28.6c0.2,7,3.5,105.9,4.7,116.1c1.8,14.3,13.9,22.4,13.9,42.2c0,11.1-13.6,23.1-14.6,31
	c-1,7.9,7.8,13.1,7.7,16.1c-0.1,3-2.2,20.6-3.5,27c-1.2,6.5-6.2,8.3-32.1,17.2c-26,8.9-56,13.2-58.2,10.1
	c-2.9-3.9,4.5-28.5,10.2-42.9c5.6-14.4,16.5-19.6,21.3-26.7c4.9-7.2,1.1-16,0.5-29.1c-0.6-13.1,6.7-30.2,5.4-41.9
	c-0.8-7.5-5-50.3-9.3-81.5c-9.7,22.4-28.8,66.4-30.8,72.7c-2.7,8.5,0,17.9-0.5,24.8c-0.5,7-6.5,12.6-12.4,18.1
	c-5.9,5.5-4.5,12-4.9,16.2c-0.4,4.2,4,7,5.8,10.1c1.8,3.1-0.8,33.4-8.1,35.2c-41.8,10.2-81.9,10.9-83,9.2c-2-3.3,7.5-27.9,14.7-35.5
	c7.2-7.6,24.2-21.6,23.1-38c-1.1-16.4,3.6-26.4,11.3-31.8c7.7-5.4,10.3-22.5,16.5-44.7c6.2-22.2,12.5-66.4,11.7-82.8
	c-0.9-16.4-1.1-33.3,2.2-45.2c3.4-11.8,1.3-26.8,0-37.7s-9.4-47.2-14.3-54.5c-4.1-6.1-40.3-48.2-47.3-50.5
	c-6.9-2.3-23.1-2.6-34.7,2.3c-11.6,5-10.5,10.8-9.3,12.8c1.2,2,10.7,12.2,10.7,16.6c0,4.4-4.5,55.1-3.5,65
	c1,9.9,13.2,29.6,15.6,34.2c5.6,10.4,4.5,18.6,6.4,26.4c1.9,7.8,16,18.9,18,24.3c2,5.5-14.7,27.5-16.4,25.5
	c-1.7-1.9-14.2-18.8-16.7-21.9c-2.5-3.1-0.5-9.9-2.2-11.7c-0.9-1.1-13.7-1.8-15.9-0.1c-2.2,1.8-1.8,18.9-0.3,21.1
	c1.5,2.2,19.9,21.8,21.1,24.1c1.2,2.2-5.9,9.2-11.9,9.7c-6,0.5-31.5,4.7-40.5,0c-8.9-4.7-5.9-14.6-11.4-25.1
	c-5.5-10.4-56.8-65.8-65.8-75c-8.9-9.2-24.3-21.3-29.3-30c-5-8.7-6.8-32.7-9.1-38.9c-2.3-6.2-30.9-17.2-40.3-44.7
	c-9.4-27.6-5.5-47.4-5.5-47.4c11.9-1.8,24.2,4.5,29,6.9c-2.5-33.3,8.5-86.9,9.2-102c1.9-38-10.7-81.4-10.7-81.4
	c31.8,9,50.6,52.1,50.6,52.1c16.1-34.2,63.8-82.5,75.1-97c20.9-26.8,24.2-64.3,24.2-64.3c13.4,11.8,18.2,31.5,17.2,51.3
	c-0.5,11.1,2.6,11.4,6.4,6.6c35-45.5,64.5-46.3,64.5-46.3s-12.5,43.4-3.5,45c25.8,4.5,88.8-73.1,88.8-73.1
	c6.4,43.4-12.8,78.3-12.8,78.3c52.5-21.7,163-113.1,204.3-141c41.3-27.9,70.6-23.9,94.5-26.6c23.8-2.7,141.8-23.9,147-60.3
	c6.2-43.2-61.6-61.6-61.6-61.6c4-10.1,15.4-13.2,15.4-13.2c-5.2-6.3-34.5-20.4-59.9-10.7c-29.9,11.4-39.5-0.7-39.5-0.7
	c12.6-5.7,21.2-11.8,23.6-16.3c2-3.7,0-7.4-3.6-7c-7.9,0.7-12.7,6.7-20.7,8.7c-23.1,5.7-31.9-4.1-31.9-4.1
	c38.7-10.8,40.9-68.8,148-49.3c64.9,11.9,97.1,61.6,97.1,61.6c2.9-7.2,8.7-12.4,8.7-12.4c23.1,31.3,43.7,69.4,26.8,119.4
	c-15.6,46-79.4,56.5-125.6,71.1c-8.5,2.7-5.8,9.5-4.8,13c1,3.6,22.5,51.5,31,77.3c8.5,25.8,8.6,44.4-0.1,61.5
	c-7.5,14.8-52.4,57.5-52.2,60.7c0.2,2.5,17.7,0.7,36.9,1.9c24.4,1.5,92.6-0.7,93.3,10.1c0.5,8.2-4.6,20.8-11.5,33.1
	c-6.9,12.2-15.2,24.1-23.8,30.9c-18.9,14.8-122.7,83.7-133.9,93.1c-11.2,9.4-7.9,18.3-12.7,23.3c-4.7,5-13.4,4-12.9,9.4
	c0.5,5.5,22.3,5.2,23.1,13.9c2.3,26.7-3.7,94.6-13.4,91.8c-13.9-3.9-27-17.8-31.5-31.6c-2.9,10.3-8.4,27.3-12.2,25.2
	c-22.2-12.7-25.9-36.9-29.6-44.1c-3.7-7.2-10.7-12.3-13.4-20.7c-2.7-8.4,6.4-16,8.3-30.5c3.3-24,7.3-33.2,17-42.7
	c9.7-9.6,27.2-21.5,45.9-37.9c8.3-7.4,14.8-16,19.5-23.2c0,0-45.4,7.1-50,7.7c-4.6,0.6-12.8,0.9-17.1-0.3
	c-4.3-1.2-23.5-11.9-37.5-26C1490.4,1764.1,1483.7,1755,1483.7,1755z"/>

<text class="textcolor outline" transform="matrix(1 0 0 1 504.1819 1835.3519)"  textLength="1820" lengthAdjust="spacingAndGlyphs" style="font-family:'Ford-Bronco-Font-Main-Regular'; font-size:169.9018px; letter-spacing:40; stroke:#6A6A6A; stroke-width:25; paint-order:stroke; stroke-linecap:round; stroke-linejoin:round; ">
	<tspan x="0" y="0">CUSTOM</tspan>
</text>
</svg>
