<?xml version="1.0" encoding="utf-8"?>
<!-- Generator: Adobe Illustrator 27.9.1, SVG Export Plug-In . SVG Version: 6.00 Build 0)  -->
<svg class="v" version="1.1" xmlns="http://www.w3.org/2000/svg" xmlns:xlink="http://www.w3.org/1999/xlink" x="0px" y="0px"
	 viewBox="0 0 2717.9 2666.2" style="enable-background:new 0 0 2717.9 2666.2;" xml:space="preserve">
     $gradientDefs

<path class="maincolor" d="M1358.9,168.1C691,168.1,69.6,0.3,66.6,0c-6-0.5-11.7,4.1-11.6,10.1c8.6,394.7-126.4,1651.1-2.2,2324.7
	c45,243.8,65.4,297.7,313.2,318.9c184.8,15.8,992.9,12,992.9,12s808.1,3.7,992.9-12c247.8-21.2,268.2-75.1,313.2-318.9
	c124.3-673.6-10.8-1930-2.2-2324.7c0.1-6.1-5.6-10.7-11.6-10.1C2648.3,0.3,2026.9,168.1,1358.9,168.1z"/>
<text class="textcolor" transform="matrix(1 0 0 1 1368.2701 2433.7495)" textLength="2200" lengthAdjust="spacingAndGlyphs" style="font-family:'Ford-Bronco-Font-Main-Regular'; font-size:196.7455px;" text-anchor="middle">
	<tspan>CUSTOM</tspan>
</text>
<path class="accentcolor" d="M1464.8,1752.3c-7.2,20.6-19.4,66.7-43.6,89.1c-27.3,25.1-66.9,31.1-70.1,41.4c-4.6,14.7-17.9,84.2-18.9,89.3
	c-1,5.1,3.7,8.5,4,19.1c0.3,10.6-6.9,18.3-6.7,24.3c0.2,5.9,2.9,89.9,4,98.5c1.5,12.1,11.8,19,11.8,35.8c0,9.4-11.6,19.6-12.4,26.3
	c-0.8,6.7,6.6,11.1,6.5,13.7c-0.1,2.6-1.9,17.5-3,22.9c-1,5.5-5.2,7.1-27.3,14.6c-22,7.5-47.5,11.2-49.4,8.6
	c-2.4-3.3,3.9-24.2,8.6-36.4c4.8-12.2,14-16.6,18.1-22.7c4.1-6.1,0.9-13.6,0.4-24.7c-0.5-11.1,5.7-25.6,4.6-35.5
	c-0.7-6.4-4.3-42.6-7.9-69.1c-8.2,19-24.4,56.3-26.2,61.6c-2.3,7.2,0,15.2-0.4,21.1c-0.4,5.9-5.5,10.7-10.5,15.4
	c-5,4.7-3.8,10.2-4.2,13.7c-0.3,3.6,3.4,5.9,4.9,8.6c1.5,2.6-0.7,28.3-6.9,29.8c-35.5,8.7-69.4,9.3-70.4,7.8
	c-1.7-2.8,6.3-23.7,12.5-30.1c6.1-6.4,20.5-18.3,19.6-32.3c-0.9-13.9,3.1-22.4,9.6-27c6.5-4.6,8.7-19.1,14-38
	c5.3-18.8,10.6-56.3,9.9-70.2c-0.7-13.9-1-28.3,1.9-38.3c2.9-10.1,1.1-22.7,0-32c-1.1-9.3-7.9-40-12.1-46.2
	c-3.4-5.2-34.2-40.9-40.1-42.8c-5.9-2-19.6-2.2-29.4,2c-9.8,4.2-8.9,9.2-7.9,10.9c1,1.7,9,10.3,9,14.1c0,3.8-3.8,46.7-2.9,55.2
	c0.8,8.4,11.2,25.1,13.2,29c4.7,8.9,3.8,15.8,5.4,22.4c1.6,6.6,13.6,16,15.3,20.6c1.7,4.6-12.5,23.3-13.9,21.7
	c-1.5-1.6-12.1-15.9-14.2-18.6c-2.1-2.7-0.4-8.4-1.8-10c-0.8-0.9-11.6-1.5-13.5-0.1c-1.9,1.5-1.5,16-0.2,17.9
	c1.3,1.9,16.8,18.5,17.9,20.4c1,1.9-5,7.8-10.1,8.2c-5.1,0.4-26.8,4-34.3,0c-7.6-4-5-12.4-9.7-21.3c-4.6-8.8-48.2-55.8-55.8-63.6
	c-7.6-7.8-20.6-18.1-24.8-25.5c-4.2-7.4-5.8-27.7-7.7-33c-1.9-5.3-26.2-14.6-34.2-38c-8-23.4-4.6-40.2-4.6-40.2
	c10.1-1.5,20.5,3.8,24.6,5.9c-2.1-28.2,7.2-73.7,7.8-86.5c1.6-32.2-9-69-9-69c26.9,7.6,42.9,44.2,42.9,44.2
	c13.7-29,54.1-69.9,63.7-82.3c17.7-22.8,20.5-54.5,20.5-54.5c11.4,10,15.5,26.7,14.6,43.5c-0.5,9.4,2.2,9.7,5.4,5.6
	c29.7-38.6,54.7-39.3,54.7-39.3s-10.6,36.8-3,38.2c21.9,3.8,75.3-62,75.3-62c5.5,36.8-10.9,66.4-10.9,66.4
	c44.5-18.4,138.3-95.9,173.3-119.6c35-23.7,59.9-20.3,80.1-22.6c20.2-2.3,120.2-20.3,124.7-51.1c5.3-36.6-52.2-52.2-52.2-52.2
	c3.4-8.6,13-11.2,13-11.2c-4.4-5.4-29.2-17.3-50.8-9c-25.3,9.7-33.5-0.6-33.5-0.6c10.7-4.8,18-10.1,20-13.8c1.7-3.2,0-6.3-3.1-6
	c-6.7,0.6-10.8,5.7-17.6,7.4c-19.6,4.8-27.1-3.5-27.1-3.5c32.8-9.1,34.7-58.4,125.5-41.8c55,10.1,82.3,52.2,82.3,52.2
	c2.5-6.1,7.4-10.5,7.4-10.5c19.6,26.5,37.1,58.9,22.7,101.3c-13.2,39-67.3,47.9-106.6,60.3c-7.2,2.3-4.9,8-4.1,11.1
	c0.8,3,19.1,43.7,26.3,65.5c7.2,21.9,7.3,37.6-0.1,52.2c-6.4,12.5-44.4,48.8-44.3,51.5c0.1,2.2,15,0.6,31.3,1.6
	c20.7,1.3,78.6-0.6,79.2,8.5c0.4,6.9-3.9,17.6-9.8,28c-5.9,10.4-12.9,20.5-20.2,26.2c-16,12.5-104.1,71-113.6,79
	c-9.5,8-6.7,15.6-10.7,19.8c-4,4.2-11.4,3.4-11,8c0.4,4.6,19,4.4,19.6,11.8c1.9,22.7-3.2,80.2-11.3,77.9
	c-11.8-3.3-22.9-15.1-26.7-26.8c-2.5,8.7-7.2,23.2-10.4,21.3c-18.8-10.8-22-31.3-25.1-37.4c-3.1-6.1-9-10.4-11.3-17.6
	c-2.3-7.1,5.4-13.6,7.1-25.8c2.8-20.3,6.2-28.1,14.4-36.3c8.2-8.2,23.1-18.2,38.9-32.2c7.1-6.3,12.6-13.5,16.5-19.7
	c0,0-38.5,6-42.4,6.5c-3.9,0.5-10.9,0.8-14.5-0.2c-3.6-1-19.9-10.1-31.8-22C1470.5,1759.9,1464.8,1752.3,1464.8,1752.3z"/>
</svg>
