<?xml version="1.0" encoding="utf-8"?>
<!-- Generator: Adobe Illustrator 27.9.1, SVG Export Plug-In . SVG Version: 6.00 Build 0)  -->
<svg class="v" version="1.1" xmlns="http://www.w3.org/2000/svg" xmlns:xlink="http://www.w3.org/1999/xlink" x="0px" y="0px"
	 viewBox="0 0 2717.9 2666.2" style="enable-background:new 0 0 2717.9 2666.2;" xml:space="preserve">
     $gradientDefs

     <path class="maincolor" d="M1358.9,168.1C691,168.1,69.6,0.3,66.6,0c-6-0.5-11.7,4.1-11.6,10.1c8.6,394.7-126.4,1651.1-2.2,2324.7
	c45,243.8,65.4,297.7,313.2,318.9c184.8,15.8,992.9,12,992.9,12s808.1,3.7,992.9-12c247.8-21.2,268.2-75.1,313.2-318.9
	c124.3-673.6-10.8-1930-2.2-2324.7c0.1-6.1-5.6-10.7-11.6-10.1C2648.3,0.3,2026.9,168.1,1358.9,168.1z"/>
<g>
	<polygon class="accentcolor" points="1953.3,2633.8 2096.1,2334 2096.1,2211.3 1953.3,2511.1 1810.5,2211.3 1810.5,2334 	"/>
	<path class="accentcolor" d="M2090.7,107.7c-20.9,3.1-41.8,6.1-62.7,8.9l-74.8,157l-66.4-139.4c-18.5,2.1-37.1,4-55.6,5.9l122,256.2
		L2090.7,107.7z"/>
	<polygon class="accentcolor" points="1953.3,2186.3 2096.1,1886.5 2096.1,1763.8 1953.3,2063.6 1810.5,1763.8 1810.5,1886.5 	"/>
	<polygon class="accentcolor" points="1953.3,1839.9 1810.5,1540.1 1810.5,1662.8 1953.3,1962.6 2096.1,1662.8 2096.1,1540.1 	"/>
	<polygon class="accentcolor" points="1953.3,1738.8 2096.1,1439 2096.1,1316.3 1953.3,1616.1 1810.5,1316.3 1810.5,1439 	"/>
	<polygon class="accentcolor" points="1953.3,1392.4 1810.5,1092.5 1810.5,1215.2 1953.3,1515.1 2096.1,1215.2 2096.1,1092.5 	"/>
	<polygon class="accentcolor" points="1953.3,1291.3 2096.1,991.5 2096.1,868.8 1953.3,1168.6 1810.5,868.8 1810.5,991.5 	"/>
	<polygon class="accentcolor" points="1953.3,944.9 1810.5,645 1810.5,767.7 1953.3,1067.6 2096.1,767.7 2096.1,645 	"/>
	<polygon class="accentcolor" points="1953.3,843.8 2096.1,544 2096.1,421.3 1953.3,721.1 1810.5,421.3 1810.5,544 	"/>
	<polygon class="accentcolor" points="1953.3,497.4 1810.5,197.5 1810.5,320.2 1953.3,620.1 2096.1,320.2 2096.1,197.5 	"/>
	<polygon class="accentcolor" points="1953.3,2287.4 1810.5,1987.6 1810.5,2110.3 1953.3,2410.1 2096.1,2110.3 2096.1,1987.6 	"/>
</g>
</svg>
