<?xml version="1.0" encoding="utf-8"?>
<!-- Generator: Adobe Illustrator 27.9.1, SVG Export Plug-In . SVG Version: 6.00 Build 0)  -->
<svg class="v" version="1.1" xmlns="http://www.w3.org/2000/svg" xmlns:xlink="http://www.w3.org/1999/xlink" x="0px" y="0px"
	 viewBox="0 0 2717.9 2699.6" style="enable-background:new 0 0 2717.9 2699.6;" xml:space="preserve">
     $gradientDefs

     <path class="maincolor" d="M470.7,2659.2V2528c0-9.5,6.8-17.1,15.2-17.1h1746c8.4,0,15.2,7.7,15.2,17.1v131.1c43.8-1.5,79.9-3.2,104.7-5.4
	c247.8-21.2,268.2-75.1,313.2-318.9c124.3-673.6-10.8-1930-2.2-2324.7c0.1-6.1-5.6-10.7-11.6-10.1c-3,0.3-624.4,168.1-1292.3,168.1
	S69.6,0.3,66.6,0c-6-0.5-11.7,4.1-11.6,10.1c8.6,394.7-126.4,1651.1-2.2,2324.7c45,243.8,65.4,297.7,313.2,318.9
	C390.9,2655.9,426.9,2657.7,470.7,2659.2z"/>
<text class="textcolor" transform="matrix(1 0 0 1 504.1994 2657.1604)" textLength="1820" lengthAdjust="spacingAndGlyphs" style="font-family:'Ford-Bronco-Font-Main-Regular'; font-size:169.9018px; letter-spacing:99;">
	<tspan>CUSTOM</tspan>
</text>
</svg>
