<?xml version="1.0" encoding="utf-8"?>
<!-- Generator: Adobe Illustrator 27.9.1, SVG Export Plug-In . SVG Version: 6.00 Build 0)  -->
<svg class="v" version="1.1" xmlns="http://www.w3.org/2000/svg" xmlns:xlink="http://www.w3.org/1999/xlink" x="0px" y="0px"
	 viewBox="0 0 2717.9 2667.7" style="enable-background:new 0 0 2717.9 2667.7;" xml:space="preserve">
     $gradientDefs

     <path class="maincolor" d="M1358.9,168.1C691,168.1,69.6,0.3,66.6,0c-6-0.5-11.7,4.1-11.6,10.1c8.6,394.7-126.4,1651.1-2.2,2324.7
	c45,243.8,65.4,297.7,313.2,318.9c184.8,15.8,992.9,12,992.9,12s808.1,3.7,992.9-12c247.8-21.2,268.2-75.1,313.2-318.9
	c124.3-673.6-10.8-1930-2.2-2324.7c0.1-6.1-5.6-10.7-11.6-10.1C2648.3,0.3,2026.9,168.1,1358.9,168.1z"/>
<g>
	<path class="accentcolor" d="M1106.3,799.6l-28.8,69.4l2.2,42.5c0.1,2.5,2.2,4.4,4.7,4.3l47.9-0.9c1.9,0,3.4-1.1,4.1-2.8l38.3-90.8
		c1.1-2.5-0.3-5.4-2.9-6.2l-59.9-18.2C1109.6,796.3,1107.2,797.4,1106.3,799.6z"/>
	<path class="accentcolor" d="M1068.6,911.4l-2.3-44.3l29-69.8c1-2.5-0.3-5.3-2.9-6.1l-45-13.7c-2.1-0.6-4.2,0.2-5.3,2.1l-28,48.5l6.8,84.7
		c0.2,2.4,2.2,4.3,4.6,4.2l38.6-0.7C1066.7,916.1,1068.8,914,1068.6,911.4z"/>
	<path class="accentcolor" d="M1246.9,1114.8l29.2-69.2l-1.9-42.5c-0.1-2.5-2.1-4.4-4.6-4.4l-47.9,0.6c-1.9,0-3.4,1.1-4.1,2.8l-38.9,90.6
		c-1.1,2.5,0.3,5.4,2.8,6.2l59.7,18.6C1243.6,1118.1,1246,1117,1246.9,1114.8z"/>
	<path class="accentcolor" d="M1285.3,1003.2l2,44.4l-29.4,69.6c-1.1,2.5,0.3,5.3,2.9,6.1l44.9,14c2.1,0.6,4.2-0.2,5.3-2.1l28.3-48.3
		l-6.2-84.8c-0.2-2.4-2.2-4.3-4.6-4.2l-38.6,0.4C1287.2,998.5,1285.1,1000.7,1285.3,1003.2z"/>
	<path class="accentcolor" d="M908.5,1166.7l34.7,92.9c0.4,1,1.5,1.6,2.6,1.3l65.2-20.3l100.6,10.1c0.9,0.1,2.5-0.7,2.4-1.6
		c-0.3-3-5.3-52.2-13.9-83.4c-3.1-11.5-13.5-23.9-13.5-23.9l-67.8-5.6c-0.9,0-1.6,0.5-2,1.3l-13.1,41.8c-0.4,0.9-2,0.8-2.2-0.2
		l-8.5-38.3c-0.3-1.3-1.6-2-2.9-1.5l-80.5,24.7C908.6,1164.5,908.1,1165.6,908.5,1166.7z"/>
	<path class="accentcolor" d="M1447.4,751.6l-30.5-81.6c-0.4-1-1.5-1.6-2.6-1.3l-71.8,7.9L1242,666.5c-0.9-0.1-2.5,0.7-2.4,1.6
		c0.3,3,5.3,52.2,13.9,83.4c3.1,11.5,13.5,23.9,13.5,23.9l66.1,1c0.9,0,1.6-0.5,2-1.3l14.8-37.3c0.4-0.9,2-0.8,2.2,0.2l7.3,34.9
		c0.3,1.3,1.6,2,2.9,1.5l84.1-20.2C1447.3,753.8,1447.8,752.6,1447.4,751.6z"/>
	<path class="accentcolor" d="M774.4,807.7l34.7,92.9c0.4,1,1.5,1.6,2.6,1.3l65.2-20.3l100.6,10.1c0.9,0.1,2.5-0.7,2.4-1.6
		c-0.3-3-5.3-52.2-13.9-83.4c-3.1-11.5-13.5-23.9-13.5-23.9l-67.8-5.6c-0.9,0-1.6,0.5-2,1.3l-13.1,41.8c-0.4,0.9-2,0.8-2.2-0.2
		l-8.5-38.3c-0.3-1.3-1.6-2-2.9-1.5L775.5,805C774.5,805.5,774,806.7,774.4,807.7z"/>
	<path class="accentcolor" d="M1580.5,1107.9l-30.5-81.6c-0.4-1-1.5-1.6-2.6-1.3l-71.8,7.9l-100.6-10.1c-0.9-0.1-2.5,0.7-2.4,1.6
		c0.3,3,5.3,52.2,13.9,83.4c3.1,11.5,13.5,23.9,13.5,23.9l66.1,1c0.9,0,1.6-0.5,2-1.3l14.8-37.3c0.4-0.9,2-0.8,2.2,0.2l7.3,34.9
		c0.3,1.3,1.6,2,2.9,1.5l84.1-20.2C1580.4,1110.1,1580.9,1109,1580.5,1107.9z"/>
	<path class="accentcolor" d="M1240.9,1161l-29.2,69.2l1.9,42.5c0.1,2.5,2.1,4.4,4.6,4.4l47.9-0.6c1.9,0,3.4-1.1,4.1-2.8l38.9-90.6
		c1.1-2.5-0.3-5.4-2.8-6.2l-59.7-18.6C1244.2,1157.7,1241.8,1158.8,1240.9,1161z"/>
	<path class="accentcolor" d="M1202.5,1272.5l-2-44.4l29.4-69.6c1.1-2.5-0.3-5.3-2.9-6.1l-44.9-14c-2.1-0.6-4.2,0.2-5.3,2.1l-28.3,48.3
		l6.2,84.8c0.2,2.4,2.2,4.3,4.6,4.2l38.6-0.4C1200.6,1277.2,1202.6,1275.1,1202.5,1272.5z"/>
	<path class="accentcolor" d="M1113,756.4l29.2-69.2l-1.9-42.5c-0.1-2.5-2.1-4.4-4.6-4.4l-47.9,0.6c-1.9,0-3.4,1.1-4.1,2.8l-38.9,90.6
		c-1.1,2.5,0.3,5.4,2.8,6.2l59.7,18.6C1109.7,759.7,1112.1,758.6,1113,756.4z"/>
	<path class="accentcolor" d="M1151.4,644.9l2,44.4l-29.4,69.6c-1.1,2.5,0.3,5.3,2.9,6.1l44.9,14c2.1,0.6,4.2-0.2,5.3-2.1l28.3-48.3
		l-6.2-84.8c-0.2-2.4-2.2-4.3-4.6-4.2l-38.6,0.4C1153.3,640.1,1151.2,642.3,1151.4,644.9z"/>
	<path class="accentcolor" d="M815.4,995.2l32.1,85.9c0.7,2,2.8,3.1,4.8,2.7l81.7-16.8l50.1,4.3c2.5,0.2,4.6-1.8,4.6-4.3l-1.7-109
		c0-2.4-2-4.3-4.4-4.2l-86.2,3.3l-78.7,32.7C815.6,990.6,814.6,993,815.4,995.2z"/>
	<path class="accentcolor" d="M1537.9,920l-32.1-85.9c-0.7-2-2.8-3.1-4.8-2.7l-81.7,16.8l-50.1-4.3c-2.5-0.2-4.6,1.8-4.6,4.3l1.7,109
		c0,2.4,2,4.3,4.4,4.2l86.2-3.3l78.7-32.7C1537.6,924.5,1538.7,922.1,1537.9,920z"/>
	<path class="accentcolor" d="M1022.3,1012l86.9,5.5l41.2,21.9c2,1.1,4.6,0.2,5.5-1.9l16.9-37c0.5-1.1,0.5-2.3,0-3.4l-21.1-43.7
		c-0.7-1.5-2.3-2.4-4-2.2l-125.1,12.5c-2,0.2-3.6,1.9-3.6,3.9l-0.5,40.4C1018.5,1010.1,1020.1,1011.9,1022.3,1012z"/>
	<path class="accentcolor" d="M1146.3,1049.8l-40.1-21.4l-83.6-5.3c-2.3-0.1-4.2,1.7-4.3,4l-0.6,53.5c0,2,1.3,3.6,3.2,4l101,20.1
		c1.8,0.4,3.6-0.5,4.4-2.3l21.7-47.4C1148.9,1053,1148.1,1050.8,1146.3,1049.8z"/>
	<path class="accentcolor" d="M1333.1,898.2l-86.9-5.5l-41.2-21.9c-2-1.1-4.6-0.2-5.5,1.9l-16.9,37c-0.5,1.1-0.5,2.3,0,3.4l21.1,43.7
		c0.7,1.5,2.3,2.4,4,2.2l125.1-12.5c2-0.2,3.6-1.9,3.6-3.9l0.5-40.4C1336.8,900.1,1335.2,898.3,1333.1,898.2z"/>
	<path class="accentcolor" d="M1209.1,860.5l40.1,21.4l83.6,5.3c2.3,0.1,4.2-1.7,4.3-4l0.6-53.5c0-2-1.3-3.6-3.2-4l-101-20.1
		c-1.8-0.4-3.6,0.5-4.4,2.3l-21.7,47.4C1206.4,857.2,1207.2,859.5,1209.1,860.5z"/>
	<path class="accentcolor" d="M951.1,1358.5l32.1,85.9c0.7,2,2.8,3.1,4.8,2.7l81.7-16.8l50.1,4.3c2.5,0.2,4.6-1.8,4.6-4.3l-1.7-109
		c0-2.4-2-4.3-4.4-4.2l-86.2,3.3l-78.7,32.7C951.4,1354,950.3,1356.4,951.1,1358.5z"/>
	<path class="accentcolor" d="M1674,1284.4l-32.1-85.9c-0.7-2-2.8-3.1-4.8-2.7l-81.7,16.8l-50.1-4.3c-2.5-0.2-4.6,1.8-4.6,4.3l1.7,109
		c0,2.4,2,4.3,4.4,4.2l86.2-3.3l78.7-32.7C1673.8,1288.9,1674.8,1286.5,1674,1284.4z"/>
	<path class="accentcolor" d="M1471.1,1267.6l-86.9-5.5l-41.2-21.9c-2-1.1-4.6-0.2-5.5,1.9l-16.9,37c-0.5,1.1-0.5,2.3,0,3.4l21.1,43.7
		c0.7,1.5,2.3,2.4,4,2.2l125.1-12.5c2-0.2,3.6-1.9,3.6-3.9l0.5-40.4C1474.9,1269.5,1473.2,1267.8,1471.1,1267.6z"/>
	<path class="accentcolor" d="M1347.1,1229.9l40.1,21.4l83.6,5.3c2.3,0.1,4.2-1.7,4.3-4l0.6-53.5c0-2-1.3-3.6-3.2-4l-101-20.1
		c-1.8-0.4-3.6,0.5-4.4,2.3l-21.7,47.4C1344.5,1226.6,1345.2,1228.9,1347.1,1229.9z"/>
	<path class="accentcolor" d="M1159.1,1378.2l86.9,5.5l41.2,21.9c2,1.1,4.6,0.2,5.5-1.9l16.9-37c0.5-1.1,0.5-2.3,0-3.4l-21.1-43.7
		c-0.7-1.5-2.3-2.4-4-2.2l-125.1,12.5c-2,0.2-3.6,1.9-3.6,3.9l-0.5,40.4C1155.3,1376.3,1156.9,1378,1159.1,1378.2z"/>
	<path class="accentcolor" d="M1283,1415.9l-40.1-21.4l-83.6-5.3c-2.3-0.1-4.2,1.7-4.3,4l-0.6,53.5c0,2,1.3,3.6,3.2,4l101,20.1
		c1.8,0.4,3.6-0.5,4.4-2.3l21.7-47.4C1285.7,1419.1,1284.9,1416.9,1283,1415.9z"/>
	<path class="accentcolor" d="M892.2,142.1c-14.9-1.5-29.8-3.1-44.7-4.7c-9.7-1.1-19.4-2.1-29.1-3.2l-8.1,19.5l2.2,42.5
		c0.1,2.5,2.2,4.4,4.6,4.3l47.9-0.9c1.9,0,3.4-1.1,4.1-2.8L892.2,142.1z"/>
	<path class="accentcolor" d="M807,132.9c-19.7-2.3-39.4-4.7-59.1-7.2l5.8,71.7c0.2,2.4,2.2,4.3,4.6,4.2l38.6-0.7c2.6,0,4.6-2.2,4.5-4.8
		l-2.3-44.3L807,132.9z"/>
	<path class="accentcolor" d="M979.7,399.6l29.2-69.2l-1.9-42.5c-0.1-2.5-2.1-4.4-4.6-4.4l-47.9,0.6c-1.9,0-3.4,1.1-4.1,2.8l-38.9,90.6
		c-1.1,2.5,0.3,5.4,2.8,6.2l59.7,18.6C976.4,402.9,978.7,401.8,979.7,399.6z"/>
	<path class="accentcolor" d="M1018,288.1l2,44.4L990.6,402c-1.1,2.5,0.3,5.3,2.9,6.1l44.9,14c2.1,0.6,4.2-0.2,5.3-2.1l28.3-48.3l-6.2-84.8
		c-0.2-2.4-2.2-4.3-4.6-4.2l-38.6,0.4C1020,283.3,1017.9,285.5,1018,288.1z"/>
	<path class="accentcolor" d="M641.3,451.5l34.7,92.9c0.4,1,1.5,1.6,2.6,1.3l65.2-20.3l100.6,10.1c0.9,0.1,2.5-0.7,2.4-1.6
		c-0.3-3-5.3-52.2-13.9-83.4c-3.1-11.5-13.5-23.9-13.5-23.9l-67.8-5.6c-0.9,0-1.6,0.5-2,1.3l-13.1,41.8c-0.4,0.9-2,0.8-2.2-0.2
		l-8.5-38.3c-0.3-1.3-1.6-2-2.9-1.5l-80.5,24.7C641.4,449.3,640.9,450.4,641.3,451.5z"/>
	<path class="accentcolor" d="M705.1,120.2c-34.3-4.6-68.6-9.5-102.9-14.7c-0.5,0.6-1.6,0.4-1.9-0.3c-18.8-2.9-37.6-5.8-56.3-8.8
		c-12.1-2-24.2-4-36.3-6c-0.6,0.6-0.8,1.4-0.5,2.2l34.7,92.9c0.4,1,1.5,1.6,2.6,1.3l65.2-20.3l100.6,10.1c0.9,0.1,2.5-0.7,2.4-1.6
		C712.4,172.7,709.8,146.4,705.1,120.2z"/>
	<path class="accentcolor" d="M1313.3,392.7l-30.5-81.6c-0.4-1-1.5-1.6-2.6-1.3l-71.8,7.9l-100.6-10.1c-0.9-0.1-2.5,0.7-2.4,1.6
		c0.3,3,5.3,52.2,13.9,83.4c3.1,11.5,13.5,23.9,13.5,23.9l66.1,1c0.9,0,1.6-0.5,2-1.3l14.8-37.3c0.4-0.9,2-0.8,2.2,0.2l7.3,34.9
		c0.3,1.3,1.6,2,2.9,1.5l84.1-20.2C1313.2,394.9,1313.7,393.8,1313.3,392.7z"/>
	<path class="accentcolor" d="M973.6,445.8l-29.2,69.2l1.9,42.5c0.1,2.5,2.1,4.4,4.6,4.4l47.9-0.6c1.9,0,3.4-1.1,4.1-2.8l38.9-90.6
		c1.1-2.5-0.3-5.4-2.8-6.2l-59.7-18.6C977,442.5,974.6,443.6,973.6,445.8z"/>
	<path class="accentcolor" d="M935.3,557.3l-2-44.4l29.4-69.6c1.1-2.5-0.3-5.3-2.9-6.1l-44.9-14c-2.1-0.6-4.2,0.2-5.3,2.1l-28.3,48.3
		l6.2,84.8c0.2,2.4,2.2,4.3,4.6,4.2l38.6-0.4C933.3,562,935.4,559.9,935.3,557.3z"/>
	<path class="accentcolor" d="M548.1,280l32.1,85.9c0.7,2,2.8,3.1,4.8,2.7l81.7-16.8l50.1,4.3c2.5,0.2,4.6-1.8,4.6-4.3l-1.7-109
		c0-2.4-2-4.3-4.4-4.2l-86.2,3.3l-78.7,32.7C548.4,275.4,547.3,277.8,548.1,280z"/>
	<path class="accentcolor" d="M1255.9,165.4c-3.9-0.1-7.8-0.2-11.7-0.3c-48.8-1.4-97.7-3.5-146.5-6.4l1.3,83.4c0,2.4,2,4.3,4.4,4.2l86.2-3.3
		l78.7-32.7c2.1-0.9,3.2-3.3,2.3-5.4L1255.9,165.4z"/>
	<path class="accentcolor" d="M755.1,296.8l86.9,5.5l41.2,21.9c2,1.1,4.6,0.2,5.5-1.9l16.9-37c0.5-1.1,0.5-2.3,0-3.4l-21.1-43.7
		c-0.7-1.5-2.3-2.4-4-2.2l-125.1,12.5c-2,0.2-3.6,1.9-3.6,3.9l-0.5,40.4C751.3,294.9,752.9,296.7,755.1,296.8z"/>
	<path class="accentcolor" d="M879,334.6l-40.1-21.4l-83.6-5.3c-2.3-0.1-4.2,1.7-4.3,4l-0.6,53.5c0,2,1.3,3.6,3.2,4l101,20.1
		c1.8,0.4,3.6-0.5,4.4-2.3l21.7-47.4C881.7,337.8,880.9,335.6,879,334.6z"/>
	<path class="accentcolor" d="M1065.8,183l-86.9-5.5l-41.2-21.9c-2-1.1-4.6-0.2-5.5,1.9l-16.9,37c-0.5,1.1-0.5,2.3,0,3.4l21.1,43.7
		c0.7,1.5,2.3,2.4,4,2.2l125.1-12.5c2-0.2,3.6-1.9,3.6-3.9l0.5-40.4C1069.6,184.9,1068,183.1,1065.8,183z"/>
	<path class="accentcolor" d="M1069.9,156.9c-41.5-2.7-83-6-124.4-9.7l36.4,19.4l83.6,5.3c2.3,0.1,4.2-1.7,4.3-4L1069.9,156.9z"/>
	<path class="accentcolor" d="M683.9,643.3l32.1,85.9c0.7,2,2.8,3.1,4.8,2.7l81.7-16.8l50.1,4.3c2.5,0.2,4.6-1.8,4.6-4.3l-1.7-109
		c0-2.4-2-4.3-4.4-4.2l-86.2,3.3l-78.7,32.7C684.1,638.8,683.1,641.2,683.9,643.3z"/>
	<path class="accentcolor" d="M1406.8,569.2l-32.1-85.9c-0.7-2-2.8-3.1-4.8-2.7l-81.7,16.8l-50.1-4.3c-2.5-0.2-4.6,1.8-4.6,4.3l1.7,109
		c0,2.4,2,4.3,4.4,4.2l86.2-3.3l78.7-32.7C1406.6,573.7,1407.6,571.3,1406.8,569.2z"/>
	<path class="accentcolor" d="M1203.9,552.4l-86.9-5.5l-41.2-21.9c-2-1.1-4.6-0.2-5.5,1.9l-16.9,37c-0.5,1.1-0.5,2.3,0,3.4l21.1,43.7
		c0.7,1.5,2.3,2.4,4,2.2l125.1-12.5c2-0.2,3.6-1.9,3.6-3.9l0.5-40.4C1207.6,554.3,1206,552.6,1203.9,552.4z"/>
	<path class="accentcolor" d="M1079.9,514.7l40.1,21.4l83.6,5.3c2.3,0.1,4.2-1.7,4.3-4l0.6-53.5c0-2-1.3-3.6-3.2-4l-101-20.1
		c-1.8-0.4-3.6,0.5-4.4,2.3l-21.7,47.4C1077.2,511.4,1078,513.7,1079.9,514.7z"/>
	<path class="accentcolor" d="M891.9,663l86.9,5.5l41.2,21.9c2,1.1,4.6,0.2,5.5-1.9l16.9-37c0.5-1.1,0.5-2.3,0-3.4l-21.1-43.7
		c-0.7-1.5-2.3-2.4-4-2.2l-125.1,12.5c-2,0.2-3.6,1.9-3.6,3.9l-0.5,40.4C888.1,661.1,889.7,662.8,891.9,663z"/>
	<path class="accentcolor" d="M1015.8,700.7l-40.1-21.4l-83.6-5.3c-2.3-0.1-4.2,1.7-4.3,4l-0.6,53.5c0,2,1.3,3.6,3.2,4l101,20.1
		c1.8,0.4,3.6-0.5,4.4-2.3l21.7-47.4C1018.5,703.9,1017.7,701.7,1015.8,700.7z"/>
	<path class="accentcolor" d="M1642,2233.3l-28.8,69.4l2.2,42.5c0.1,2.5,2.2,4.4,4.7,4.3l47.9-0.9c1.9,0,3.4-1.1,4.1-2.8l38.3-90.8
		c1.1-2.5-0.3-5.4-2.9-6.2l-59.9-18.2C1645.2,2230,1642.9,2231.1,1642,2233.3z"/>
	<path class="accentcolor" d="M1604.3,2345.1l-2.3-44.3l29-69.8c1-2.5-0.3-5.3-2.9-6.1l-45-13.7c-2.1-0.6-4.2,0.2-5.3,2.1l-28,48.5l6.8,84.7
		c0.2,2.4,2.2,4.3,4.6,4.2l38.6-0.7C1602.4,2349.8,1604.5,2347.7,1604.3,2345.1z"/>
	<path class="accentcolor" d="M1782.6,2548.5l29.2-69.2l-1.9-42.5c-0.1-2.5-2.1-4.4-4.6-4.4l-47.9,0.6c-1.9,0-3.4,1.1-4.1,2.8l-38.9,90.6
		c-1.1,2.5,0.3,5.4,2.8,6.2l59.7,18.6C1779.3,2551.8,1781.6,2550.7,1782.6,2548.5z"/>
	<path class="accentcolor" d="M1820.9,2436.9l2,44.4l-29.4,69.6c-1.1,2.5,0.3,5.3,2.9,6.1l44.9,14c2.1,0.6,4.2-0.2,5.3-2.1l28.3-48.3
		l-6.2-84.8c-0.2-2.4-2.2-4.3-4.6-4.2l-38.6,0.4C1822.9,2432.2,1820.8,2434.4,1820.9,2436.9z"/>
	<path class="accentcolor" d="M1469.3,2667.6c59.6,0.1,119.1,0.1,178.7,0c-2.2-17.7-6.4-47.1-12.2-68.3c-3.1-11.5-13.5-23.9-13.5-23.9
		l-67.8-5.6c-0.9,0-1.6,0.5-2,1.3l-13.1,41.8c-0.4,0.9-2,0.8-2.2-0.2l-8.5-38.3c-0.3-1.3-1.6-2-2.9-1.5l-80.5,24.7
		c-1,0.4-1.5,1.6-1.1,2.7L1469.3,2667.6z"/>
	<path class="accentcolor" d="M1983.1,2185.3l-30.5-81.6c-0.4-1-1.5-1.6-2.6-1.3l-71.8,7.9l-100.6-10.1c-0.9-0.1-2.5,0.7-2.4,1.6
		c0.3,3,5.3,52.2,13.9,83.4c3.1,11.5,13.5,23.9,13.5,23.9l66.1,1c0.9,0,1.6-0.5,2-1.3l14.8-37.3c0.4-0.9,2-0.8,2.2,0.2l7.3,34.9
		c0.3,1.3,1.6,2,2.9,1.5l84.1-20.2C1983,2187.5,1983.5,2186.3,1983.1,2185.3z"/>
	<path class="accentcolor" d="M1310.1,2241.4l34.7,92.9c0.4,1,1.5,1.6,2.6,1.3l65.2-20.3l100.6,10.1c0.9,0.1,2.5-0.7,2.4-1.6
		c-0.3-3-5.3-52.2-13.9-83.4c-3.1-11.5-13.5-23.9-13.5-23.9l-67.8-5.6c-0.9,0-1.6,0.5-2,1.3l-13.1,41.8c-0.4,0.9-2,0.8-2.2-0.2
		l-8.5-38.3c-0.3-1.3-1.6-2-2.9-1.5l-80.5,24.7C1310.2,2239.2,1309.7,2240.4,1310.1,2241.4z"/>
	<path class="accentcolor" d="M2116.2,2541.6l-30.5-81.6c-0.4-1-1.5-1.6-2.6-1.3l-71.8,7.9l-100.6-10.1c-0.9-0.1-2.5,0.7-2.4,1.6
		c0.3,3,5.3,52.2,13.9,83.4c3.1,11.5,13.5,23.9,13.5,23.9l66.1,1c0.9,0,1.6-0.5,2-1.3l14.8-37.3c0.4-0.9,2-0.8,2.2,0.2l7.3,34.9
		c0.3,1.3,1.6,2,2.9,1.5l84.1-20.2C2116.1,2543.8,2116.6,2542.7,2116.2,2541.6z"/>
	<path class="accentcolor" d="M1747.5,2667.3c25.2-0.1,50.5-0.2,75.7-0.3l21.5-50.2c1.1-2.5-0.3-5.4-2.8-6.2l-59.7-18.6
		c-2.3-0.7-4.6,0.4-5.6,2.6l-29.2,69.2L1747.5,2667.3z"/>
	<path class="accentcolor" d="M1687.5,2667.5c16.3,0,32.6-0.1,48.9-0.1l-0.2-5.5l29.4-69.6c1.1-2.5-0.3-5.3-2.9-6.1l-44.9-14
		c-2.1-0.6-4.2,0.2-5.3,2.1l-28.3,48.3L1687.5,2667.5z"/>
	<path class="accentcolor" d="M1648.7,2190.1l29.2-69.2l-1.9-42.5c-0.1-2.5-2.1-4.4-4.6-4.4l-47.9,0.6c-1.9,0-3.4,1.1-4.1,2.8l-38.9,90.6
		c-1.1,2.5,0.3,5.4,2.8,6.2l59.7,18.6C1645.4,2193.4,1647.7,2192.3,1648.7,2190.1z"/>
	<path class="accentcolor" d="M1687,2078.6l2,44.4l-29.4,69.6c-1.1,2.5,0.3,5.3,2.9,6.1l44.9,14c2.1,0.6,4.2-0.2,5.3-2.1l28.3-48.3
		l-6.2-84.8c-0.2-2.4-2.2-4.3-4.6-4.2l-38.6,0.4C1689,2073.8,1686.9,2076,1687,2078.6z"/>
	<path class="accentcolor" d="M1351,2428.9l32.1,85.9c0.7,2,2.8,3.1,4.8,2.7l81.7-16.8l50.1,4.3c2.5,0.2,4.6-1.8,4.6-4.3l-1.7-109
		c0-2.4-2-4.3-4.4-4.2l-86.2,3.3l-78.7,32.7C1351.3,2424.3,1350.2,2426.7,1351,2428.9z"/>
	<path class="accentcolor" d="M2073.5,2353.7l-32.1-85.9c-0.7-2-2.8-3.1-4.8-2.7l-81.7,16.8l-50.1-4.3c-2.5-0.2-4.6,1.8-4.6,4.3l1.7,109
		c0,2.4,2,4.3,4.4,4.2l86.2-3.3l78.7-32.7C2073.3,2358.2,2074.3,2355.8,2073.5,2353.7z"/>
	<path class="accentcolor" d="M1558,2445.7l86.9,5.5l41.2,21.9c2,1.1,4.6,0.2,5.5-1.9l16.9-37c0.5-1.1,0.5-2.3,0-3.4l-21.1-43.7
		c-0.7-1.5-2.3-2.4-4-2.2l-125.1,12.4c-2,0.2-3.6,1.9-3.6,3.9l-0.5,40.4C1554.2,2443.8,1555.8,2445.6,1558,2445.7z"/>
	<path class="accentcolor" d="M1681.9,2483.5l-40.1-21.4l-83.6-5.3c-2.3-0.1-4.2,1.7-4.3,4l-0.6,53.5c0,2,1.3,3.6,3.2,4l101,20.1
		c1.8,0.4,3.6-0.5,4.4-2.3l21.7-47.4C1684.6,2486.7,1683.8,2484.5,1681.9,2483.5z"/>
	<path class="accentcolor" d="M1868.7,2331.9l-86.9-5.5l-41.2-21.9c-2-1.1-4.6-0.2-5.5,1.9l-16.9,37c-0.5,1.1-0.5,2.3,0,3.4l21.1,43.7
		c0.7,1.5,2.3,2.4,4,2.2l125.1-12.5c2-0.2,3.6-1.9,3.6-3.9l0.5-40.4C1872.5,2333.8,1870.9,2332,1868.7,2331.9z"/>
	<path class="accentcolor" d="M1744.8,2294.2l40.1,21.4l83.6,5.3c2.3,0.1,4.2-1.7,4.3-4l0.6-53.5c0-2-1.3-3.6-3.2-4l-101-20.1
		c-1.8-0.4-3.6,0.5-4.4,2.3L1743,2289C1742.1,2290.9,1742.9,2293.2,1744.8,2294.2z"/>
	<path class="accentcolor" d="M2036.6,2665.1c37.4-0.5,74.8-1.1,112.2-1.9c13.4-0.3,26.7-0.6,40-0.9l-11.3-30.1c-0.7-2-2.8-3.1-4.8-2.7
		l-81.7,16.8l-50.1-4.3c-2.5-0.2-4.6,1.8-4.6,4.3L2036.6,2665.1z"/>
	<path class="accentcolor" d="M1888.4,2666.6c11.7-0.1,23.3-0.2,35-0.3c29.2-0.2,58.4-0.5,87.6-0.9l0.4-32.6c0-2-1.3-3.6-3.2-4l-101-20.1
		c-1.8-0.4-3.6,0.5-4.4,2.3l-21.7,47.4c-0.9,1.9-0.1,4.2,1.8,5.2L1888.4,2666.6z"/>
	<path class="accentcolor" d="M1374.7,1518.1l-28.8,69.4l2.2,42.5c0.1,2.5,2.2,4.4,4.7,4.3l47.9-0.9c1.9,0,3.4-1.1,4.1-2.8l38.3-90.8
		c1.1-2.5-0.3-5.4-2.9-6.2l-59.9-18.2C1378,1514.8,1375.6,1515.9,1374.7,1518.1z"/>
	<path class="accentcolor" d="M1337.1,1629.9l-2.3-44.3l29-69.8c1-2.5-0.3-5.3-2.9-6.1l-45-13.7c-2.1-0.6-4.2,0.2-5.3,2.1l-28,48.5l6.8,84.7
		c0.2,2.4,2.2,4.3,4.6,4.2l38.6-0.7C1335.2,1634.6,1337.2,1632.5,1337.1,1629.9z"/>
	<path class="accentcolor" d="M1515.3,1833.3l29.2-69.2l-1.9-42.5c-0.1-2.5-2.1-4.4-4.6-4.4l-47.9,0.6c-1.9,0-3.4,1.1-4.1,2.8l-38.9,90.6
		c-1.1,2.5,0.3,5.4,2.8,6.2l59.7,18.6C1512,1836.6,1514.4,1835.5,1515.3,1833.3z"/>
	<path class="accentcolor" d="M1553.7,1721.7l2,44.4l-29.4,69.6c-1.1,2.5,0.3,5.3,2.9,6.1l44.9,14c2.1,0.6,4.2-0.2,5.3-2.1l28.3-48.3
		l-6.2-84.8c-0.2-2.4-2.2-4.3-4.6-4.2l-38.6,0.4C1555.6,1717,1553.6,1719.2,1553.7,1721.7z"/>
	<path class="accentcolor" d="M1177,1885.2l34.7,92.9c0.4,1,1.5,1.6,2.6,1.3l65.2-20.3l100.6,10.1c0.9,0.1,2.5-0.7,2.4-1.6
		c-0.3-3-5.3-52.2-13.9-83.4c-3.1-11.5-13.5-23.9-13.5-23.9l-67.8-5.6c-0.9,0-1.6,0.5-2,1.3l-13.1,41.8c-0.4,0.9-2,0.8-2.2-0.2
		l-8.5-38.3c-0.3-1.3-1.6-2-2.9-1.5l-80.5,24.7C1177.1,1883,1176.6,1884.1,1177,1885.2z"/>
	<path class="accentcolor" d="M1715.9,1470.1l-30.5-81.6c-0.4-1-1.5-1.6-2.6-1.3l-71.8,7.9l-100.6-10.1c-0.9-0.1-2.5,0.7-2.4,1.6
		c0.3,3,5.3,52.2,13.9,83.4c3.1,11.5,13.5,23.9,13.5,23.9l66.1,1c0.9,0,1.6-0.5,2-1.3l14.8-37.3c0.4-0.9,2-0.8,2.2,0.2l7.3,34.9
		c0.3,1.3,1.6,2,2.9,1.5l84.1-20.2C1715.7,1472.3,1716.2,1471.1,1715.9,1470.1z"/>
	<path class="accentcolor" d="M1042.8,1526.2l34.7,92.9c0.4,1,1.5,1.6,2.6,1.3l65.2-20.3l100.6,10.1c0.9,0.1,2.5-0.7,2.4-1.6
		c-0.3-3-5.3-52.2-13.9-83.4c-3.1-11.5-13.5-23.9-13.5-23.9l-67.8-5.6c-0.9,0-1.6,0.5-2,1.3l-13.1,41.8c-0.4,0.9-2,0.8-2.2-0.2
		l-8.5-38.3c-0.3-1.3-1.6-2-2.9-1.5l-80.5,24.7C1043,1524,1042.5,1525.2,1042.8,1526.2z"/>
	<path class="accentcolor" d="M1849,1826.4l-30.5-81.6c-0.4-1-1.5-1.6-2.6-1.3l-71.8,7.9l-100.6-10.1c-0.9-0.1-2.5,0.7-2.4,1.6
		c0.3,3,5.3,52.2,13.9,83.4c3.1,11.5,13.5,23.9,13.5,23.9l66.1,1c0.9,0,1.6-0.5,2-1.3l14.8-37.3c0.4-0.9,2-0.8,2.2,0.2l7.3,34.9
		c0.3,1.3,1.6,2,2.9,1.5l84.1-20.2C1848.9,1828.6,1849.4,1827.5,1849,1826.4z"/>
	<path class="accentcolor" d="M1509.3,1879.5l-29.2,69.2l1.9,42.5c0.1,2.5,2.1,4.4,4.6,4.4l47.9-0.6c1.9,0,3.4-1.1,4.1-2.8l38.9-90.6
		c1.1-2.5-0.3-5.4-2.8-6.2l-59.7-18.6C1512.6,1876.2,1510.2,1877.3,1509.3,1879.5z"/>
	<path class="accentcolor" d="M1471,1991l-2-44.4l29.4-69.6c1.1-2.5-0.3-5.3-2.9-6.1l-44.9-14c-2.1-0.6-4.2,0.2-5.3,2.1l-28.3,48.3l6.2,84.8
		c0.2,2.4,2.2,4.3,4.6,4.2l38.6-0.4C1469,1995.7,1471.1,1993.6,1471,1991z"/>
	<path class="accentcolor" d="M1381.4,1474.9l29.2-69.2l-1.9-42.5c-0.1-2.5-2.1-4.4-4.6-4.4l-47.9,0.6c-1.9,0-3.4,1.1-4.1,2.8l-38.9,90.6
		c-1.1,2.5,0.3,5.4,2.8,6.2l59.7,18.6C1378.1,1478.2,1380.5,1477.1,1381.4,1474.9z"/>
	<path class="accentcolor" d="M1419.8,1363.4l2,44.4l-29.4,69.6c-1.1,2.5,0.3,5.3,2.9,6.1l44.9,14c2.1,0.6,4.2-0.2,5.3-2.1l28.3-48.3
		l-6.2-84.8c-0.2-2.4-2.2-4.3-4.6-4.2l-38.6,0.4C1421.7,1358.6,1419.7,1360.8,1419.8,1363.4z"/>
	<path class="accentcolor" d="M1083.8,1713.7l32.1,85.9c0.7,2,2.8,3.1,4.8,2.7l81.7-16.8l50.1,4.3c2.5,0.2,4.6-1.8,4.6-4.3l-1.7-109
		c0-2.4-2-4.3-4.4-4.2l-86.2,3.3l-78.7,32.7C1084.1,1709.1,1083,1711.5,1083.8,1713.7z"/>
	<path class="accentcolor" d="M1806.3,1638.5l-32.1-85.9c-0.7-2-2.8-3.1-4.8-2.7l-81.7,16.8l-50.1-4.3c-2.5-0.2-4.6,1.8-4.6,4.3l1.7,109
		c0,2.4,2,4.3,4.4,4.2l86.2-3.3l78.7-32.7C1806.1,1643,1807.1,1640.6,1806.3,1638.5z"/>
	<path class="accentcolor" d="M1290.7,1730.5l86.9,5.5l41.2,21.9c2,1.1,4.6,0.2,5.5-1.9l16.9-37c0.5-1.1,0.5-2.3,0-3.4l-21.1-43.7
		c-0.7-1.5-2.3-2.4-4-2.2l-125.1,12.5c-2,0.2-3.6,1.9-3.6,3.9l-0.5,40.4C1287,1728.6,1288.6,1730.4,1290.7,1730.5z"/>
	<path class="accentcolor" d="M1414.7,1768.3l-40.1-21.4l-83.6-5.3c-2.3-0.1-4.2,1.7-4.3,4l-0.6,53.5c0,2,1.3,3.6,3.2,4l101,20.1
		c1.8,0.4,3.6-0.5,4.4-2.3l21.7-47.4C1417.4,1771.5,1416.6,1769.3,1414.7,1768.3z"/>
	<path class="accentcolor" d="M1601.5,1616.7l-86.9-5.5l-41.2-21.9c-2-1.1-4.6-0.2-5.5,1.9l-16.9,37c-0.5,1.1-0.5,2.3,0,3.4l21.1,43.7
		c0.7,1.5,2.3,2.4,4,2.2l125.1-12.5c2-0.2,3.6-1.9,3.6-3.9l0.5-40.4C1605.3,1618.6,1603.6,1616.8,1601.5,1616.7z"/>
	<path class="accentcolor" d="M1477.5,1579l40.1,21.4l83.6,5.3c2.3,0.1,4.2-1.7,4.3-4l0.6-53.5c0-2-1.3-3.6-3.2-4l-101-20.1
		c-1.8-0.4-3.6,0.5-4.4,2.3l-21.7,47.4C1474.9,1575.7,1475.7,1578,1477.5,1579z"/>
	<path class="accentcolor" d="M1219.6,2077l32.1,85.9c0.7,2,2.8,3.1,4.8,2.7l81.7-16.8l50.1,4.3c2.5,0.2,4.6-1.8,4.6-4.3l-1.7-109
		c0-2.4-2-4.3-4.4-4.2l-86.2,3.3l-78.7,32.7C1219.8,2072.5,1218.8,2074.9,1219.6,2077z"/>
	<path class="accentcolor" d="M1942.5,2002.9l-32.1-85.9c-0.7-2-2.8-3.1-4.8-2.7l-81.7,16.8l-50.1-4.3c-2.5-0.2-4.6,1.8-4.6,4.3l1.7,109
		c0,2.4,2,4.3,4.4,4.2l86.2-3.3l78.7-32.7C1942.2,2007.4,1943.3,2005,1942.5,2002.9z"/>
	<path class="accentcolor" d="M1739.5,1986.1l-86.9-5.5l-41.2-21.9c-2-1.1-4.6-0.2-5.5,1.9l-16.9,37c-0.5,1.1-0.5,2.3,0,3.4l21.1,43.7
		c0.7,1.5,2.3,2.4,4,2.2l125.1-12.5c2-0.2,3.6-1.9,3.6-3.9l0.5-40.4C1743.3,1988,1741.7,1986.3,1739.5,1986.1z"/>
	<path class="accentcolor" d="M1615.6,1948.4l40.1,21.4l83.6,5.3c2.3,0.1,4.2-1.7,4.3-4l0.6-53.5c0-2-1.3-3.6-3.2-4l-101-20.1
		c-1.8-0.4-3.6,0.5-4.4,2.3l-21.7,47.4C1612.9,1945.1,1613.7,1947.4,1615.6,1948.4z"/>
	<path class="accentcolor" d="M1427.5,2096.7l86.9,5.5l41.2,21.9c2,1.1,4.6,0.2,5.5-1.9l16.9-37c0.5-1.1,0.5-2.3,0-3.4l-21.1-43.7
		c-0.7-1.5-2.3-2.4-4-2.2l-125.1,12.5c-2,0.2-3.6,1.9-3.6,3.9l-0.5,40.4C1423.8,2094.8,1425.4,2096.5,1427.5,2096.7z"/>
	<path class="accentcolor" d="M1551.5,2134.4l-40.1-21.4l-83.6-5.3c-2.3-0.1-4.2,1.7-4.3,4l-0.6,53.5c0,2,1.3,3.6,3.2,4l101,20.1
		c1.8,0.4,3.6-0.5,4.4-2.3l21.7-47.4C1554.1,2137.6,1553.4,2135.4,1551.5,2134.4z"/>
</g>
</svg>
