<?xml version="1.0" encoding="utf-8"?>
<!-- Generator: Adobe Illustrator 27.4.0, SVG Export Plug-In . SVG Version: 6.00 Build 0)  -->
<svg version="1.1" id="Layer_1" xmlns="http://www.w3.org/2000/svg" xmlns:xlink="http://www.w3.org/1999/xlink" x="0px" y="0px"
	 viewBox="0 0 144 144" style="enable-background:new 0 0 144 144;" xml:space="preserve">
<path d="M54.8,104.1V69c0-7.8,6.3-14.1,14.1-14.1h35.2V8.3c0-3.8-3.1-6.8-6.8-6.8H8.4c-3.8,0-6.8,3.1-6.8,6.8v88.9
	c0,3.8,3.1,6.8,6.8,6.8H54.8z"/>
<rect x="117.5" y="138.3" width="6.9" height="4.3"/>
<rect x="117.5" y="57" width="6.9" height="4.3"/>
<path d="M131.7,57.1v4.3c3.3,0.5,5.9,3.1,6.4,6.4h4.3C141.9,62.2,137.4,57.7,131.7,57.1z"/>
<path d="M131.7,138.2v4.3c5.7-0.6,10.2-5.1,10.7-10.7h-4.3C137.6,135.1,135,137.7,131.7,138.2z"/>
<rect x="103.3" y="138.3" width="6.9" height="4.3"/>
<rect x="103.3" y="57" width="6.9" height="4.3"/>
<rect x="89.2" y="138.3" width="6.9" height="4.3"/>
<rect x="89.2" y="57" width="6.9" height="4.3"/>
<rect x="75" y="138.3" width="6.9" height="4.3"/>
<rect x="75" y="57" width="6.9" height="4.3"/>
<path d="M67.8,142.5v-4.3c-3.3-0.5-5.9-3.1-6.4-6.4H57C57.6,137.5,62.1,142,67.8,142.5z"/>
<path d="M67.8,61.4v-4.3c-5.7,0.6-10.2,5.1-10.7,10.7h4.3C61.8,64.5,64.4,61.9,67.8,61.4z"/>
<path d="M142.5,75.1h-4.3V82h4.3C142.5,76.6,142.5,73.2,142.5,75.1z"/>
<rect x="57" y="75.1" width="4.3" height="6.9"/>
<path d="M142.5,89.3h-4.3v6.9h4.3C142.5,92.3,142.5,88.7,142.5,89.3z"/>
<rect x="57" y="89.3" width="4.3" height="6.9"/>
<path d="M142.5,103.4h-4.3v6.9h4.3C142.5,108.1,142.5,105.4,142.5,103.4z"/>
<rect x="57" y="103.4" width="4.3" height="6.9"/>
<path d="M142.5,117.6h-4.3v6.9h4.3C142.5,123.9,142.5,122.5,142.5,117.6z"/>
<rect x="57" y="117.6" width="4.3" height="6.9"/>
</svg>
