<?xml version="1.0" encoding="utf-8"?>
<!-- Generator: Adobe Illustrator 26.3.1, SVG Export Plug-In . SVG Version: 6.00 Build 0)  -->
<svg version="1.1" id="Layer_1" xmlns="http://www.w3.org/2000/svg" xmlns:xlink="http://www.w3.org/1999/xlink" x="0px" y="0px"
	 viewBox="0 0 200 89.9" style="enable-background:new 0 0 200 89.9;" xml:space="preserve">
<style type="text/css">
	.st0{fill-rule:evenodd;clip-rule:evenodd;fill:#b3b3b3;}
</style>
<path class="st0" d="M128.3,19.2c-6.4-3.3-15.9-11.7-27.1-13.7C81.8,2.2,67.3,2.4,49.5,2.6c1.2,4.5,3.6,11.4,4.8,15.9
	c-1.2-0.1-2.2,0.2-3.1,0.1c-1.3-4.2-3.5-12.1-5.3-15.7c-0.8-1.6-16.1-1.1-23.2,9.2c-1.1,1.6,1.4,6.1,2.8,6.2
	c16.6,0.4,59.5,1,66.6,13.6c-12.6-11.4-61.5-11.4-67.5-12c-1.9-0.2-3.2-3.6-4-5.4c-1.2,0.7-2.6,3.2-2.3,4.4c2.8,3.3,3.7,4.6,7.6,7.8
	c-5.2-1.7-8.4-6.6-13.6-8.2C7,16.6,2.2,22.4,1.9,29.6C1.8,21.8,3.2,15.3,12,16c0.5,0,3.9,1.8,5.3-0.6C20.7,9,28.9,4,35.1,1.7
	C36.9,1,43,0,47.5,0c15.1,0,36.7,0.5,51.8,3.8C111.1,6.3,118.6,11.9,128.3,19.2L128.3,19.2L128.3,19.2z M55,18.4
	c7.4,0.8,16,0.7,24.5,1.8c49.4,6.2,70.6,5.9,51.2,1c7.8,2.7,25.4,3.6,36,5.9c5.4,1.2,26.8,9.9,9.3,11.2c-29.4,2.2-53.6-2.5-83.7-2.9
	c35.3,3,67.6,5.8,84.2,4.6c9.2-0.7,12.6-3.1,8.6-6.4c-2.4-2-11.3-6.8-17.8-8.5c-7.7-2-15.5-1.4-23.3-2.6c-4.3-0.7-9.4-1.4-13.4-2.5
	C105.3,19.9,80.5,18.6,55,18.4L55,18.4L55,18.4z M48.8,18.5c-0.5-1.9-1-3.7-1.4-5.3c-0.4-1.6-0.8-3.1-1.1-4.4
	c-0.5-1.7-1-2.9-1.7-3.7c-0.7-0.8-1.6-1.1-2.9-0.9c-1.8,0.2-4.6,0.7-7.7,1.7C32,6.5,26,9.5,23.4,11.8c3-2.8,7-5.5,10.2-6.6
	c3.2-1.1,6.1-1.5,7.9-1.8c1.6-0.2,2.7,0.2,3.6,1.2c0.8,0.9,1.4,2.2,1.9,4c0.4,1.3,0.7,2.8,1.1,4.4c0.4,1.6,1,3.6,1.5,5.5L48.8,18.5
	L48.8,18.5L48.8,18.5z M134.7,31c11.4,1.2,24.6,1.1,37.3,0.3c1.4-0.1,3.7-0.5,4.6-1.4c-0.7,0.1,2.1,0.9,1.4,0.9
	c-1,0.1-3.5,2-4.6,2.1c-11,1.2-24.8,0.8-38-0.4c-23.2-2.1-53.9-10.3-77.3-13C66.1,19,126.4,30.1,134.7,31L134.7,31L134.7,31z
	 M30.6,6.9l-4.1,7.3L32.6,6L30.6,6.9L30.6,6.9z M56.2,17.3c-0.8-2.1-1.4-4.2-2-6.4c-0.6-2.1-1.3-4.3-2-6.4L52,3.9h3.5
	c11.5,0,23.5,0,34.5,1c3,0.3,7,0.9,11,1.9c3.1,0.8,6.2,1.9,8.8,3.2C102.4,7.3,93,6.1,89.9,5.8c-10.9-1-22.9-1-34.4-1h-2.2
	c0.7,1.9,1.2,3.8,1.8,5.8c0.5,1.7,1.1,4.2,1.7,5.9c0.1,0.4,20.5,0.2,20.7,0.6L56.2,17.3L56.2,17.3L56.2,17.3z M155.5,33
	c1.1-0.2,2.2-0.3,3.3-0.5c-5.5-2.8-10.5-4.4-15.9-5.9C147.2,28.5,151.1,30.2,155.5,33L155.5,33L155.5,33z M104.5,44.8
	c3.1,0.5,7.1,0.7,11.9,0.6c4.4-0.1,9.6-0.5,15.3-1.3h0.2c18.1,1.6,32,2.1,41.2,1c8.7-1,13.1-3.4,12.5-7.6l1.3-1
	c0.8,6.9-3.8,9-13.6,10.2c-9.3,1.1-23.2,0.6-41.4-1c-5.8,0.8-10.9,1.2-15.4,1.3c-4.9,0.1-9-0.1-12.2-0.6c-4-0.6-6.7-1.4-8.8-2.8
	c-2.1-1.5-4.2-4.7-5.5-8C94.3,41,94.1,43.1,104.5,44.8L104.5,44.8L104.5,44.8z M155.3,38.2c-18.5-0.9-44.7-3.3-63.2-4.1
	c-2,0-3.5,1.5-3.5,2.4c0.2,10,2.9,16.2-0.8,30.4c1.8-15.3,0-22.1-0.9-32.8c-4.3-1.5-10.1-3.6-14.4-5.1c6.6,0.7,13.4,2.9,20,3.6
	C109.7,34.3,138,36.5,155.3,38.2L155.3,38.2L155.3,38.2z M92.8,44.8c1.1,1.7,2.9,2.8,6.2,3.5c4.4,1,9.8,1.8,16.5,2.7
	c2.1,0.3,8.3,1.1,14.5,2.9c-5.5-0.9-10.3-1.5-14.6-2.1c-6.8-1-12.1-1.7-16.6-2.7c-3.5-0.8-5.4-2-6.7-3.8c-1.2-1.8-1.7-4.8-2.4-8
	C90.9,40,91.2,42.5,92.8,44.8C92.8,44.8,92.8,44.8,92.8,44.8z M119,48.2c7.9,1,13.1,2.1,21,2.4c9,0.4,20.6,0.1,28.9-0.3
	c4.8-0.2,10.7-0.3,15.1-1.6c3.3-1,4.1-5,4.8-7.8c0.5,2.4-0.2,4.8-0.2,6.4c3.3,10.5,1.5,20,1.5,29.3c-0.6-7.4-0.3-15.2-1.1-22.8
	c-0.2-2.1-1.3-3.4-2.7-3.4c-16.7,3.1-32.9,3-51.3,2.2c-3.4,0-6.6,7.1-6.5,8.3c0.2,6.6,4,16.2,6.3,20.9c1.1,2.2,0.2,3.2-1,3
	c-15.6-0.4-31.4-1.5-45.7-3c15.9,0.9,30.3,1.1,45.1,0.9c-2.8-6.6-4.3-11.8-6.4-18.2c-1.6-6,2.6-10.6,5.4-13.3
	C127.8,50.2,123.5,49.5,119,48.2L119,48.2L119,48.2z M168.1,51.1c-0.1-1.1-0.3-2.2-1.2-3.3c2,1,3.2,2,4.3,3.1
	C170.1,50.9,169.1,51,168.1,51.1L168.1,51.1z M188.8,59.5c-0.4,4-1.1,7.9-1.7,11.6c-0.3,1.7-1.5,1.9-3.3,2.3
	c-8.3,1.7-19.6,3.5-27.8,4.2c-6.5,0.6-11.1,1.2-17.9,0.5c-0.9-0.1-2.1-0.8-2.3-1.3c-1.9-3.1-3.9-9.5-4.4-14.3
	c-0.3-2.6,0.8-6.4,2.6-7.2c3.9-1.9,14.2-1.7,18.5-1.7c-4-0.1-12.6-0.8-17.5,0.3c-1.4,0.3-2.3,1.5-3.1,2.5c-0.6,0.9-1.1,1.9-1.4,3.1
	c-0.3,0-0.7,0-1,0.1c-0.2,6.4,1.7,12.6,4.1,19c0.3-0.7,0.9-0.8,1.5-0.8c0.9,0.8,2.4,1.2,4.5,1.2c8.2,0,16.5-0.6,24.7-1.6
	c7.7-1,14.7-2.3,21.7-3.5c0.8,0.5,2.4,1,3.3,1.5c-0.4-0.9-1.1-1.6-1.4-2.5C187.9,68.7,189,64.3,188.8,59.5L188.8,59.5L188.8,59.5z
	 M187.5,38.2c2.6,3.7,4.7,5.4,4.6,9.9c-0.1,3-0.3,5.3-0.4,8.3c-0.1,5.2,0.4,13.6,0.3,18.8c-0.1-7.9-0.6-19.4-0.8-27.3
	c-0.3,0.4-0.6,1-0.9,1.4c0.5-1.5,0.5-3.2,0.1-4.8C190,42.4,188.9,40.3,187.5,38.2L187.5,38.2L187.5,38.2z M192.3,70.5
	c1.6-1.7,2.4-3.3,3.5-6.1c0.5-1.8-2.3-5.5-3.6-8.2c0.1-1,0-2.3,0.1-3.3c1.3,2.5,2.6,5.4,3.9,7.8C198.2,64.4,195.2,68.3,192.3,70.5
	L192.3,70.5L192.3,70.5z M194,69.7c0.3-0.1,1.4-0.2,2.7,0.5c0.8,0.4,1.5,0.9,2.1,1.5c0.7,0.7,1.1,1.5,1.2,2.4c0,0.6-0.2,1.3-0.7,1.9
	c-0.7,1-1.5,1.7-2.3,2.5c-0.7,0.7-1.5,1.4-2.1,2.3l-0.3,0.3l-0.4-0.1c-0.9-0.1-1.9-0.1-2.9-0.1c-1,0-2,0-2.9-0.1
	c-3.1,0.8-6.1,1.5-9.1,2.1c-3.1,0.6-6.2,1.1-9.3,1.6c-3.9,0.6-7.9,0.8-12,1c-3.2,0.2-6.5,0.3-9.7,0.7c-2.2,0.2-4.4,1-6.6,1.7
	c-2.6,0.8-5.2,1.7-7.7,1.8c-6.3,0.1-12.9,0.1-19.5,0c-7.3-0.1-14.7-0.1-21.8,0.1h-0.5l-0.2-0.4c-0.6-1.1-2-3.3-3.3-5.2
	c-0.9-1.2-1.7-2.2-2.1-2.4c-3.6-1.8-5-2.1-7.5-2.7L78.5,79c0,0.4-0.1,0.9-0.1,1.4c-0.2,1.9-0.4,4.1-0.2,4.2l0.1,0
	c3.3,1.2,8.1,3.2,11.5,4.9c-1.5-0.5-4.4-1.1-6.4-1.7c-1.9-0.6-3.9-1.2-5.5-1.7c-1.4-0.4-1.2-3.2-0.9-5.8c0.1-0.8,0.2-1.6,0.2-2.2
	l0-0.9l0.9,0.2c0.4,0.1,1,0.2,1.5,0.4c2.6,0.7,4.1,1,7.8,2.9l0,0c0.6,0.4,1.6,1.5,2.6,2.9c1.2,1.7,2.5,3.7,3.2,4.9
	c6.9-0.2,14.2-0.1,21.4-0.1c6.6,0.1,13.2,0.1,19.5,0c2.3-0.1,4.8-0.9,7.3-1.7c2.2-0.7,4.5-1.5,6.9-1.8c3.2-0.4,6.5-0.5,9.8-0.7
	c4-0.2,7.9-0.4,11.8-1c3.1-0.4,6.2-1,9.2-1.6c3.1-0.6,6.2-1.3,9.2-2.1l0.3,0c0.9,0.1,1.9,0.1,2.9,0.1c0.9,0,1.8,0,2.6,0.1
	c0.7-0.8,1.3-1.5,2-2.1c0.7-0.7,1.5-1.4,2.1-2.3c0.3-0.4,0.8-1.4,0.8-1.7c-3.2-0.6-5.1-1.3-6.4-1.6L194,69.7L194,69.7L194,69.7z
	 M134.9,83.3c3.7,1.4,7,1.2,10.4,1.3c-3.8,0.3-7.7,0.7-11.5,0.4C134.2,84.4,134.5,83.9,134.9,83.3L134.9,83.3z M179.8,40.9
	c0,0,0.5,1.2,0.7,2c0.6-0.2,1.8-0.6,2.4-1.2c0.6-0.7,1.8-2.1,1.8-2.8c-1,0.2-2,0.8-3.1,1C180.9,40.1,179.9,40.1,179.8,40.9
	L179.8,40.9L179.8,40.9z M107.5,37.7c0.2,0,0.5,0.1,0.7,0.1c0.7,3-1.1,4.5-2.9,6C107.1,42.1,107.9,40.4,107.5,37.7L107.5,37.7z
	 M99.1,42.1c0.7,0.5,1.6,0.7,2.4,0.8c0.4,0,0.8,0,1.2,0l0,0c1.3-0.2,3.9-0.5,3.8-5.1l0.8-0.1c0.1,5.3-2.9,5.8-4.5,6l0,0
	c-0.3,0-0.8,0.1-1.3,0c-0.9-0.1-1.9-0.3-2.8-0.9c-0.9-0.6-1.6-1.7-1.8-3.3c0-0.2-0.1-0.5-0.1-0.9l-0.1-0.2h0c0-0.3,0-0.6,0-0.8
	c0.1,0.3,0.2,0.6,0.2,0.8c0.9,0,3.6,0,4.3-0.3c0.5-0.6,1.1-1,1.7-1c1.1,0,1.9,1.2,1.7,2.7s-1.3,2.7-2.4,2.7c-0.9,0-1.6-0.8-1.7-1.9
	c-0.5-0.2-2.5-0.7-3.1-0.4C97.9,40.9,98.3,41.5,99.1,42.1L99.1,42.1L99.1,42.1z M102.8,37.8c0.2,0,0.5,0.1,0.6,0.2
	c-0.7,0.1-1.4,0.9-1.5,1.9c-0.1,0.7,0.1,1.4,0.5,1.7c-0.1,0-0.1,0-0.2,0c-0.8,0-1.3-0.8-1.2-1.9C101.3,38.6,102,37.8,102.8,37.8
	L102.8,37.8z M77.2,78.2c0.5-12.1-0.1-23.4-2.5-31.7c-2.4-8-6.6-13.1-13.5-12.8c-0.1,0-0.2,0-0.3,0C48.6,35.2,49.8,63,49.7,70.5
	c-0.8-8.5-1.3-22,3-31.7c2.5-4.6,5.7-6.4,8-6.7c0.1,0,0.3,0,0.5,0c7.8-0.3,12.4,5.2,15,13.9c2.5,8.4,3,20,2.6,32.2L77.2,78.2
	L77.2,78.2L77.2,78.2z M88.2,73c10.8,1.3,17.9,3.2,28.7,4.5c1.5,0.2,4.2-0.5,5.4-0.6c-1.8-0.9-4.5-0.9-6.3-1.8
	c1.6,0.5,6.6,0.4,8.2,0.9c-1.7-4-3.3-10.6-5.5-11.9c-7.1-1.7-15.3-3.8-22.7-5.6c-0.4-0.1-2,0.4-2.6,1.7c-0.6,1.3-0.7,3.2-1.2,8.6
	c-0.4,0-0.6-0.1-0.8-0.3c0.5-5.5,1-9.3,2.3-10.1c1.1-0.7,2.8-0.4,3.5-0.2c6.7,1.2,13.9,3.1,20.4,4.2c2.7,0.5,4.1,1.9,5.5,4.3
	c2.2,3.8,3.6,9.3,5,12.7c-0.9-0.9-2-1.4-2.9-2.2c-1,1-3.5,1.6-6.2,1.4c-4.7-0.3-9-0.9-13.1-1.5c-5.8-0.9-11.8-1.8-18.4-3.2
	c-1.1-0.2-3.5-1.1-4.2-3.5c-2.5-6-3.9-9.4-6.4-15.4c1.1-0.8,2.2-1.5,3.3-2.3c1.6,5.8,4,10.8,7.8,14.3c1,0.9,3.5,2.5,12.5,4.4
	c-3.6,0.3-11.3-2.3-12.7-3.7c-3.1-3.1-5.8-8.1-7.9-13.9c-0.6,0.2-1.2,0.8-1.8,1c0.3,0.4,0.9,0.7,1.2,1.1c1.8,5.2,3.6,9.5,5.4,14.7
	C85.1,72.2,86.7,72.6,88.2,73C88.2,73,88.2,73,88.2,73z M98,59.5c0.4,0.1,4.5,3.3,4.9,3.4c0.2,0.5-3.3-2.1-3.2-1.6
	c0.7,2.2,1.2,5.2,2.4,7.4c2.8,5.3,14.8,5.3,20.8,6.2c-4.8-0.3-19.3-0.3-21-4.4C100.5,67.1,99.4,62.8,98,59.5L98,59.5z M107,63.4
	c-0.1,2.9,0.2,5.8,1.3,8.8c-0.2-2.9,0.2-5.1,0.8-7C108.4,64.6,107.7,64,107,63.4L107,63.4L107,63.4z M0.4,35c0-3.1,0.7-5.2,1.6-6.3
	c0.5-0.6,1.1-0.9,1.7-1c0.6-0.1,1.3,0.1,1.9,0.6c1.3,0.9,2.5,2.9,3.3,6.1c0.9,3.4,1.2,6.6,1.6,9.8c0.3,2.3,0.5,4.7,1,7.1
	c1.3,0.5,2.8,1.1,4.2,1.6c1.6,0.6,3.2,1.1,4.5,1.7c4.5,2,9.2,4.1,14,6.4c2,1,14,6.2,14.9,9.1c-2.8-2.7-10.6-6.1-15.3-8.3
	c-4.7-2.2-9.4-4.4-13.9-6.4c-1.3-0.6-2.9-1.1-4.5-1.7c-1.6-0.6-3.2-1.1-4.5-1.7L10.6,52l-0.1-0.2c-0.5-2.5-0.8-5-1.1-7.5
	c-0.4-3.2-0.7-6.4-1.6-9.7c-0.7-2.9-1.8-4.8-2.9-5.5c-0.4-0.3-0.8-0.4-1.2-0.4C1.5,28.9,0.9,31.7,0.4,35L0.4,35L0.4,35z M15.1,49.1
	c11.1,4.4,22,10.6,33.1,15c0.5-3.3-1.2-9.4-3.7-11.2c-8.4-6.3-21.1-10.7-32.4-14.7c9.5,4.1,23.4,10.9,30,14.7c3.8,2.2,4.9,6.9,5,9.9
	c-10-4.7-20.4-9.3-30.4-14c4.2,0.3,20.1,3.2,27.6,8.8c-3.5-4.6-13.1-6.8-21.2-8.9c-2.5-0.7-4.9-0.9-7.8-1.2
	C14.9,47.4,14.1,48.5,15.1,49.1L15.1,49.1L15.1,49.1z M10.6,33.9c0.6-1.8,3.1-6.8,7.2-5.7C31,30.8,38.2,33,51.4,35.6
	c1.7,0.5,5.4-2.8,6.5-3.1c-3,1.7-5.9,5.6-6.6,8.8c0.4-2.8-0.4-3.4-1.9-3.8c-9.5-2.9-20.1-4.7-30.3-6.7c-4.4-0.9-6.6,5-8.4,9.8
	c0.1-3.3-1.2-8.9-3-12.5C8.6,29.9,9.6,32.1,10.6,33.9L10.6,33.9L10.6,33.9z M15.6,49.5c0,0,0.9,3,2.1,3.5s30.1,13,30.1,13
	c-9.3-4.1-20.1-9.3-29.4-13.4C17.3,52.1,16.3,50.3,15.6,49.5L15.6,49.5L15.6,49.5z M22.6,50.6c8.5,2.7,19.1,6.2,20.8,9.4
	C37,57.2,28.9,53.5,22.6,50.6C22.6,50.6,22.6,50.6,22.6,50.6z M13.4,56.1c2.5,1.6,7.6,4.7,9.4,4.6c1.3,0,2.4,0.1,3.2,0.2
	c0.9,0.2,1.6,0.5,2.1,0.8c0.8,0.5,15.8,7.3,20.3,9.3c-0.8-1.3-3.2-2.6-4.7-3.9c1.1,0.5,3.7,1.8,4.8,2.7c0.9,0.8,1.5,1.6,1.4,2.2
	c0,0.2,0,0.4-0.1,0.7c-0.2-0.1-0.4-0.2-0.6-0.3c-0.1,0-20.7-9.3-21.7-10c-0.4-0.3-1-0.5-1.8-0.7c-0.8-0.2-1.8-0.3-3-0.2
	C20.1,61.7,11.5,56,11.5,56c-0.4-0.4-0.2-0.8,0.3-0.9c2.9,0.1,4.9,0.2,7.9,0.8C17.5,56,12.8,55.5,13.4,56.1L13.4,56.1L13.4,56.1z
	 M13.2,16.5l0.2-3.7l-8.2,0.4l0.8-0.9l14-0.6l-1.1,0.9l-4.6,0.2l-0.1,4.2L13.2,16.5L13.2,16.5z M4.2,13.4c0.7-0.8,1.4-1.5,2-2.3
	c0.4-0.4-0.5-0.9-1-1.2c3.4-0.1,6.4,0.1,9.8,0c1.1,0.6,2.9,1.1,4.1,1.3c-1.1-0.5-2.9-1.1-3.9-1.7c-3.7,0.1-6.8,0-10.5,0.1
	c-0.5,0.8-1.1,1.4-1.7,2.2c-0.1,0.4-0.2,1.2,0,1.4C3.3,13.4,3.7,13.5,4.2,13.4L4.2,13.4L4.2,13.4z M116,41.4l-0.9-2.8l13.1,1.1
	l1.6,3l-12.3-1.1c0,0,10.1-0.1,9.7-0.6s-6.8,0.2-7.1-0.5c-0.3-0.7,2.3-0.8,2.3-0.8l-6.5-0.4L116,41.4C116,41.4,116,41.4,116,41.4z
	 M62.3,47c0.6,0,1.1,0.1,1.6,0.4c-4.3,0.5-7.7,8.5-7.7,18.2s3.6,18.2,8.1,18.2c0.2,0,0.3,0,0.4,0c-0.8,0.6-1.7,0.9-2.5,0.9
	c-4.6,0-8.4-8.4-8.4-18.8S57.7,47,62.3,47L62.3,47L62.3,47z M63,41.8c5.8,0,10.5,10.5,10.5,23.4S68.8,88.6,63,88.6
	c-1.7,0-3.2-0.9-4.7-2.4c1.2,1.1,2.4,1.7,3.7,1.7c5.4,0,9.8-10.2,9.8-22.7s-4.4-22.7-9.8-22.7c-1.3,0-2.6,0.6-3.7,1.7
	C59.7,42.6,61.3,41.8,63,41.8C63,41.8,63,41.8,63,41.8z M3.9,32.6c2.3,0,4.2,6.4,4.4,14.4c0.1,7.2-1.3,13.1-3.3,14.2
	c1.5-1.7,2.5-7.1,2.4-13.4c-0.1-7.7-1.9-14-4-14c-1.6,0-3,4-3.4,9.5C0.4,37.2,1.9,32.5,3.9,32.6L3.9,32.6L3.9,32.6z M2.8,36.9
	c0.1,0,0.3,0.1,0.4,0.2c-1,0.9-1.8,5-1.8,10c0,5,0.8,9.2,1.8,10c-0.1,0.1-0.3,0.2-0.4,0.2c-1.2,0-2.2-4.6-2.2-10.2
	S1.6,36.9,2.8,36.9L2.8,36.9z M11.1,50.4c0.1,4.2-0.6,7.4-1.9,8.3c0.9-1.4,1.3-4.5,1.1-8.5L11.1,50.4L11.1,50.4z"/>
</svg>
