<?xml version="1.0" encoding="utf-8"?>
<!-- Generator: Adobe Illustrator 27.4.0, SVG Export Plug-In . SVG Version: 6.00 Build 0)  -->
<svg version="1.1" id="Layer_1" xmlns="http://www.w3.org/2000/svg" xmlns:xlink="http://www.w3.org/1999/xlink" x="0px" y="0px"
	 viewBox="0 0 144 144" style="enable-background:new 0 0 144 144;" xml:space="preserve">
<g>
	<path d="M99.3,107.5l-4.6-6.6c-0.7-0.9-1.5-1.8-2.4-2.5c-1-0.6-2.2-0.9-3.3-0.8c-2,0-3.6-1.6-3.6-3.6c0-1.9-0.1-4.8,2.3-5.4
		c0.3-0.1,1.1-0.2,1.3-0.2h18.6V8.7c0-3.9-3.2-7.1-7.1-7.1H8.7c-3.9,0-7.1,3.2-7.1,7.1v91.8c0,3.9,3.2,7.1,7.1,7.1h36.9l0.1-30.7
		c-2.4,0-9.8,0.1-11.1,0.5c-1.1,0.5-2.1,1.3-2.8,2.4c-1.1,1.8-1.7,3.8-1.8,6c-0.1,1.9-1.6,3.5-3.6,3.5c-1.9,0-5,0.1-5.5-2.5
		c-0.1-0.3-0.2-1.1-0.2-1.3l0.8-16.9c0.1-1.9,1.7-3.4,3.6-3.4H84c1.9,0,3.5,1.5,3.6,3.4l0.8,17.1c0,2-1.6,3.6-3.6,3.6l0,0
		c-2.5,0-5.4,0.1-5.7-3.4c-0.2-1.8-0.6-3.5-1.3-5.1c-0.6-1.2-1.6-2.2-2.8-2.9c-1.7-0.8-3.5-1.1-5.4-1.1l-6.7,0c0,3.1,0,17.3,0,30.8
		H99.3z"/>
	<rect x="58.1" y="66.8" width="13.2" height="3.6"/>
	<path d="M50.8,142.4v-3.6h-3.2c1.3-1,2.3-2.3,2.7-3.8c0.1-0.5,0.6-3.2,0.6-3.4l0-1.4h-3.6l0,1.4c-0.4,5.7-3.7,5.3-8.3,5.3
		c-2.2,0-1.8,2.4-1.8,3.8c0,1,0.8,1.8,1.8,1.8H50.8z"/>
	<path d="M58.1,138.8v3.6h11.5c1,0,1.8-0.8,1.8-1.8c0-3.8-0.3-3.9-4.4-3.8c-1.7,0.1-3.4-0.4-4.7-1.6c-0.5-0.6-0.8-3.1-0.9-5.1h-3.6
		c0.1,2.2,0.4,4.8,1.2,6.5c0.5,1,1,1.5,2.1,2.2H58.1z"/>
	<polygon points="47.4,122.8 51,122.8 51,114.9 47.4,114.9 	"/>
	<rect x="57.7" y="114.9" width="3.6" height="7.9"/>
	<polygon points="47.4,107.7 51,107.7 51,99.8 47.4,99.8 	"/>
	<rect x="57.7" y="99.8" width="3.6" height="7.9"/>
	<polygon points="47.4,92.5 51,92.5 51.1,84.6 47.5,84.6 	"/>
	<rect x="57.7" y="84.6" width="3.6" height="7.9"/>
	<path d="M30,79l-2.2-3.2c-0.5,0.6-0.9,1.3-1.3,2l0.4-7.5h3.5v-3.6h-5.2c-1,0-1.7,0.8-1.8,1.7l-0.8,16.9c-0.1,2.3,2.4,1.9,3.8,1.9
		c1,0,1.8-0.8,1.8-1.7C28.3,83.3,28.9,81,30,79z"/>
	<path d="M33.9,71.9l2.3,3.3c3.2-0.3,8.3-0.3,11.3-0.3l0,2.5h3.6l0-2.5c0,0,0,0,0-0.1c0-2-1.7-3.6-3.7-3.5l-10.1,0.2
		C36.2,71.5,35.1,71.6,33.9,71.9z"/>
	<path d="M72,75l2.2-3.3c-1.5-0.3-3-0.5-4.6-0.4l-8.3,0c-2,0-3.6,1.6-3.6,3.6v2.5h3.6v-2.5l8.4,0C70.5,74.9,71.2,74.9,72,75z"/>
	<path d="M80.6,75.2l-2.1,3.1c0.4,0.5,0.7,1,1,1.6c0.8,1.8,1.3,3.8,1.4,5.8c0.2,2.1,2.5,1.7,3.8,1.7c1,0,1.8-0.8,1.8-1.8
		c0,0,0-0.1,0-0.1l-0.8-16.9c0-1-0.8-1.7-1.8-1.7h-5.4v3.6h3.7l0.4,7.6C82.1,76.9,81.4,76,80.6,75.2z"/>
	<rect x="37.7" y="66.8" width="13.2" height="3.6"/>
	<path d="M118.8,106.4l-2.9-2.1c-0.4,0.6-0.7,1-0.9,1.3l-1.2-1.9l-3,2l1.1,1.8c0.3,0.4,0.6,0.8,1,1c1.6,1.1,3.9,0.7,5-1L118.8,106.4
		z"/>
	<path d="M103.8,133.1L101,131l-1.7,2.3c-0.6,0.9-0.8,2-0.6,3c0.2,1,0.8,1.9,1.5,2.5h-6.5c0.1,0,0.1-0.1,0.2-0.1
		c0.3-0.3,0.6-0.5,0.9-0.8l-2.9-2.2c-0.1,0.1-0.2,0.2-0.3,0.3c-0.7,0.5-1.6,0.8-2.4,1c-2,0.2-1.6,2.4-1.6,3.7c0,1,0.8,1.8,1.8,1.8
		h15.9c1,0,1.8-0.8,1.8-1.8v-1.9c0-1-0.8-1.8-1.8-1.8c0,0,0,0,0,0c-1,0-2.7-0.4-2.9-1.5C102.4,135.1,103,134.3,103.8,133.1z"/>
	<path d="M114.2,125.8l2.9-2.2l-2.4-3.5c-0.2-0.3-0.5-0.7-0.9-0.9c-1.6-1.2-3.9-0.8-5,0.8l-3.7,5.1c0.1,0,0.1-0.1,0.1,0l2.8,2.1
		c1.7-2.4,3.3-4.4,3.7-5.1L114.2,125.8z"/>
	<path d="M132.4,138.8v3.6h8.2c1,0,1.8-0.8,1.8-1.8v-1.9c0-1-0.8-1.8-1.8-1.8c-1.4,0-2.7-0.4-3.9-1.1c-0.5-0.4-1.5-1.6-2.8-3.2
		l-2.9,2.1l3.7,4.2H132.4z"/>
	<path d="M125.1,142.4v-3.6h-2.4c2.3-2.2,0.9-5.1-0.5-7.6l-1.1-1.6l-2.9,2.2l0.7,1.1c0.4,0.6,1.7,2.9,1.3,3.2
		c-0.8,0.5-1.7,0.8-2.6,0.7c-2.3-0.1-1.9,2.3-1.9,3.7c0,1,0.8,1.8,1.8,1.8H125.1z"/>
	<path d="M96.6,130.2l2.9,2.2l4.3-5.6c-0.1,0.1-0.1,0.1-0.2,0.1l-2.8-2.1L96.6,130.2z"/>
	<path d="M105.1,118.9l2.8,2.1l2.2-3c1-1.4,1.1-2.9,0.2-4.2l-0.9-1.3l-2.9,2.1l0.9,1.3L105.1,118.9z"/>
	<path d="M126.8,128.8l2.8-2c-1.3-1.8-2.7-3.8-4-5.6l-2.8,2L126.8,128.8z"/>
	<path d="M118.6,117.3l2.9-2.1c-0.8-1.1-1.5-2.1-2-2.9l-3-2.3c0,0,0,0,0-0.1c-0.9,1.2-0.9,2.9-0.1,4.2L118.6,117.3z"/>
	<polygon points="102.4,108.7 105.3,106.6 101.4,101 98.4,103.1 	"/>
	<path d="M105.1,90.2v3.6h2.1c-1.4,1.7-1.2,3.9-0.1,5.8l3-2.1c-0.2-0.5-0.4-1.1-0.1-1.4l2.1-0.4c2.1-0.3,1.6-2.3,1.6-3.8
		c0-1-0.8-1.8-1.8-1.8H105.1z"/>
	<path d="M97.9,93.8v-3.6h-8.9c-2.2,0-1.8,2.4-1.8,3.8c0,1,0.8,1.8,1.8,1.8c0,0,0,0,0.1,0c1.5-0.1,3,0.3,4.3,1.1
		c0.2,0.2,0.4,0.4,0.6,0.5l3-2.2c-0.6-0.5-1.2-1-1.9-1.5H97.9z"/>
	<path d="M126.5,102.5l-2.7-2.4c-0.5,0.6-1,1.3-1.4,2l-1.6,2.2c0,0,0.1,0,0.1,0l2.8,2.1l1.6-2.2
		C125.7,103.6,126.1,103.1,126.5,102.5z"/>
	<path d="M128.7,94.9l2.8,2.4c0.2-0.1,0.3-0.3,0.5-0.4c1.1-0.7,2.3-1,3.5-1.1c2.1-0.1,1.7-2.4,1.7-3.8c0-1-0.8-1.8-1.8-1.8h-16.5
		c-2.2,0-1.8,2.4-1.8,3.8c0,2.1,1.7,1.7,3,1.9c0.3,0,0.7,0.2,0.8,0.6c-0.1,0.3-0.4,0.9-1,1.8l2.9,2.1c1.3-2,2.7-4.4,0.6-6.6h6.6
		c-0.1,0.1-0.3,0.2-0.4,0.3C129.3,94.3,129,94.6,128.7,94.9z"/>
</g>
</svg>
