<?xml version="1.0" encoding="UTF-8"?>
<svg id="_ëîé_1" data-name="Ñëîé 1" xmlns="http://www.w3.org/2000/svg" viewBox="0 0 122.52 89.8">
  <defs>
    <style>
      .cls-1 {
        fill: #b3b3b3;
      }
    </style>
  </defs>
  <path class="cls-1" d="M32.91,64.67c.17-.09,.29-.04,.42,.05,.44,.27,.89,.53,1.32,.81,1.02,.68,2.15,1.21,2.92,2.22,.33,.43,.83,.64,1.37,.71,.86,.11,1.71,.1,2.54-.18,.31-.1,.57-.07,.86,.09,.77,.43,1.61,.57,2.48,.36,1.4-.34,2.27-1.27,2.76-2.57,.75-2,.62-3.98-.21-5.92-.74-1.74-1.86-3.05-3.86-3.36-.57-.09-1.12-.14-1.66,.06-1.06,.38-1.75,1.14-2.23,2.13-1.25,2.62-.58,6.34,1.52,8.42,.1,.1,.25,.18,.3,.36-.76,.12-1.51,.18-2.28,.08-.55-.07-1-.31-1.35-.74-.35-.43-.75-.82-1.22-1.1-1.02-.59-1.94-1.36-3.14-1.7,.28-.19,.52-.35,.75-.53,.25-.18,.49-.36,.72-.56,2.54-2.25,4.25-5.06,5.42-8.22,.58-1.58,1.06-3.21,1.91-4.68,.17-.29,.35-.58,.52-.86-.45,.49-.77,1.06-1.09,1.63-.79,1.44-1.42,2.96-2.07,4.46-.82,1.9-1.82,3.69-3.19,5.27-1.42,1.64-3.02,3-5.1,3.74-1.72,.61-3.52,.79-5.33,.83-2.82,.06-5.61-.33-8.4-.67-4-.49-7.91-1.45-11.88-2.16,.7-1.05,1.32-2.14,.98-3.54,.19,.06,.31,.09,.43,.13,3.04,1.05,6.1,1.97,9.3,2.43,4.09,.59,8.17,.68,12.25,.09,1.94-.28,3.63-1.08,4.96-2.56,.64-.71,1.18-1.48,1.69-2.29,.89-1.42,1.66-2.91,2.52-4.35,1.54-2.6,3.38-4.95,5.75-6.86,.09-.08,.17-.19,.32-.2,.05,.14-.03,.26-.06,.37-.39,1.45-.5,2.91-.23,4.39,.26,1.44,.73,2.79,1.71,3.91,1.34,1.54,3.3,1.81,5,.7,.71-.46,1.29-1.05,1.75-1.76,1.16-1.8,1.58-3.81,1.56-5.93,0-1.44-.32-2.78-1.14-3.99-.23-.34-.6-.54-.8-.86-.85-1.35-2.48-1.77-3.82-1.33-1.45,.47-2.46,1.46-3.19,2.76-.13,.23-.3,.4-.53,.54-1.89,1.1-3.55,2.48-4.96,4.15-1.08,1.28-1.92,2.71-2.72,4.18-.88,1.62-1.67,3.28-2.7,4.81-.79,1.17-1.72,2.2-3.06,2.76-1.01,.42-2.08,.57-3.15,.66-3.14,.27-6.27,.14-9.4-.23-1.77-.21-3.53-.45-5.27-.87-.14-.03-.3-.02-.33-.24-.2-1.52-.35-3.04-.21-4.57,.02-.19,.07-.37,.11-.55,.02-.08,.03-.16-.06-.22-.1-.06-.19-.02-.24,.06-.06,.09-.11,.18-.15,.28-.29,.74-.3,1.51-.21,2.29,.1,.85,.3,1.68,.49,2.52,.05,.24,.03,.33-.24,.25-.46-.14-.93-.24-1.39-.39-1.23-.39-2.45-.8-3.67-1.2-.61-.2-1.18,.03-1.83,.11,.3,.29,.69,.4,.8,.73,.19,.61,.32,1.25,.16,1.9-.15,.6-.36,1.16-.67,1.69-.12,.21-.22,.41-.54,.37,.23,.12,.18,.28,.12,.47,.26-.22,.48-.14,.72,0,.16,.09,.35,.14,.52,.2,1.64,.49,3.32,.82,5,1.17,4.35,.92,8.73,1.63,13.18,1.79,2.96,.11,5.82-.32,8.48-1.71Zm7.71-.13c-.15-.36-.24-.73-.33-1.11-.29-1.5-.25-2.96,.49-4.34,.53-.97,1.32-1.55,2.45-1.64,.57-.04,.99,.24,1.39,.57,2.17,1.78,2.85,4.1,2.36,6.79-.2,1.11-.75,2.08-1.79,2.65-.77,.42-1.55,.31-2.28-.09-1.15-.63-1.82-1.65-2.3-2.83Zm5.31-20.56c.36-.59,.76-1.15,1.33-1.57,1.06-.79,2.28-.87,3.43-.21,.22,.13,.43,.28,.66,.4,.2,.1,.18,.32,.28,.47,.54,.83,.77,1.78,1.05,2.81,.48,2.36,.17,4.66-1.23,6.77-.49,.73-1.08,1.36-1.92,1.69-1.15,.46-2.19,.23-3.09-.59-.9-.82-1.41-1.88-1.61-3.06-.4-2.36-.17-4.63,1.12-6.71Z"/>
  <path class="cls-1" d="M58.62,40.77c1.25-.24,2.45-.63,3.58-1.22,2.46-1.27,3.74-3.28,3.82-6.06,.04-1.42-.18-2.8-.54-4.17-.25-.97-.62-1.89-1.16-2.74-.36-.56-.8-1.05-1.36-1.43-.04,.16,.07,.22,.12,.3,.25,.41,.53,.8,.76,1.22,1.12,2.04,1.59,4.25,1.58,6.56-.01,2.08-.7,3.86-2.47,5.1-.96,.68-2.04,1.1-3.19,1.34-2.42,.5-4.84,.48-7.25-.06-1.69-.38-3.39-.74-5.12-.87-2.25-.17-4.41,.25-6.52,.99-.64,.22-1.26,.31-1.92,.27-.41-.02-.54-.23-.39-.6,1.72-4.32,5.55-8.45,11.84-13.46,.16-.13,.26-.22,.47-.06,.27,.21,.6,.32,.94,.37,1.75,.26,3.35-.1,4.79-1.13,.39-.28,.7-.67,.68-1.17-.01-.38,.15-.37,.41-.32,1.31,.25,2.64,.42,3.88,.94,.14,.06,.28,.15,.52,.08-1.38-.56-2.68-1.13-4.04-1.53-.29-.09-.6-.11-.89,.06-.06,.04-.12,.06-.19,0-.71-.55-1.53-.6-2.37-.52-.22,.02-.24-.07-.2-.24,.08-.32,.2-.63,.39-.9,1.13-1.59,2.55-2.83,4.33-3.63,.32-.14,.64-.29,.96-.44l-.03-.08c-.79,.2-1.59,.39-2.33,.72-1.64,.72-2.88,1.9-3.71,3.49-.14,.27-.28,.57-.25,.87,.03,.35-.13,.42-.41,.46-.61,.1-1.23,.22-1.78,.52-.6,.33-1.22,.74-1.19,1.48,.02,.49-.18,.65-.48,.84-3.77,2.4-8.46,7.37-8.66,7.38-.88,.05-1.37,.31-2.19,.62-2.71,1.03-5.41,2.12-8.15,3.09-1.39,.5-2.8,.94-4.27,1.16-.75,.11-1.5,.16-2.23-.04-1.04-.28-1.34-1.12-.73-2,.23-.33,.52-.6,.84-.84,.89-.68,1.91-1.09,2.97-1.41,2.12-.65,4.26-.92,6.42-.19,.19,.06,.38,.15,.6,.14-.03-.12-.12-.13-.18-.17-1.13-.65-2.37-.87-3.65-.87-1.93,0-3.77,.51-5.56,1.15-1.66,.6-3.05,1.63-3.99,3.14-1.48,2.37-1.67,4.87-.52,7.45,.04,.1,.08,.18,.04,.3-.38,1.15-.55,2.35-.66,3.55-.09,.94-.26,1.88-.26,2.83,0,.52-.24,.71-.77,.77-.42,.05-.84,.05-1.26,.07-.84,.04-1.61,.29-2.31,.76-.34,.23-.66,.49-.95,.88,.53-.01,.95-.16,1.34-.38,.66-.37,1.37-.55,2.12-.58,.36-.02,.72-.04,1.08-.12,.85-.19,1.09-.45,1.17-1.32,.06-.62,.15-1.23,.22-1.85,.12-1.14,.34-2.27,.41-3.42,.02-.29,.04-.59,.17-.91,.25,.35,.49,.65,.78,.91,.3,.27,.61,.51,.97,.69,1.55,.8,3.18,.78,4.84,.47,1.39-.26,2.7-.77,4-1.29,.49-.2,1-.38,1.44-.69-.4,.04-.75,.24-1.12,.38-1.87,.73-3.79,1.2-5.8,1.27-2.97,.11-4.96-1.42-5.49-4.24-.4-2.14,.1-4.1,1.34-5.87,.43-.61,.96-1.12,1.59-1.52-.1,.16-.23,.3-.34,.45-.96,1.34-.48,2.69,1.11,3.11,.73,.2,1.46,.17,2.2,.08,2.32-.29,4.51-1.06,6.7-1.82,1.87-.65,3.64-1.56,5.49-2.25,.65-.24,1.31-.49,1.96-.73l.07,.07s-.09,.05-.11,.08c-1.12,1.38-2,2.89-2.57,4.57-.29,.84-.55,1.69-.94,2.5-.04,.08-.13,.17-.03,.3l.87-1.73c.23,.68,.5,.93,1.07,.84,1.39-.49,3.65-1.06,4.65-1.12,1.72-.11,3.41,.13,5.09,.49,2.22,.48,4.45,.95,6.73,1.04,.22,0,.26,.15,.34,.29,.93,1.85,2.3,3.26,4.24,4.07,.39,.16,.79,.28,1.24,.29-2.28-.95-3.87-2.67-5.38-4.62,.49-.02,.89-.01,1.28-.06,.3-.04,.47,.06,.63,.3,1.22,1.88,2.93,3.06,5.11,3.57,.36,.09,.71,.06,1.16-.07-.19-.08-.29-.12-.38-.16-.66-.28-1.38-.4-1.99-.79-1.18-.75-2.3-1.57-3.19-2.67-.24-.29-.24-.29,.12-.36Zm-7.18-16.61c1.37-1.08,2.91-1.31,4.57-.87,.01,0,.02,0,.03,0,.34,.13,.72,.26,.79,.67,.07,.38-.26,.59-.5,.79-.6,.49-1.32,.73-2.07,.9-.83,.16-1.67,.22-2.5,0-.36-.09-.74-.23-.81-.63-.07-.38,.22-.65,.5-.87Z"/>
  <path class="cls-1" d="M57.66,60.97c-.8-2.48-.91-4.96-.12-7.46,.79-2.48,2.24-4.38,4.63-5.5,.75-.35,1.51-.7,2.31-.95,2.53-.79,5.1-1.44,7.59-2.33,1.72-.61,3.46-1.18,5.03-2.15,.42-.26,.75-.61,1.11-.95-.49,.1-.97,.2-1.44,.39-1.74,.7-3.47,1.44-5.3,1.87-2.6,.61-5.21,1.2-7.73,2.09-1.48,.52-2.92,1.1-4.13,2.12-1.81,1.53-2.9,3.5-3.49,5.77-.07,.29-.17,.55-.35,.79-.41,.56-.83,1.11-1.21,1.69-2.48,3.81-4.94,7.64-7.41,11.45-.03,.04-.09,.09,0,.16,2.87-4.16,5.81-8.26,8.63-12.47-.04,.64-.08,1.27-.05,1.9,.03,.65,.1,1.28,.24,1.92,.03,.16-.06,.27-.13,.38-.66,1.07-1.3,2.14-1.99,3.19-1.19,1.83-2.12,3.81-3.4,5.58-.04,.06-.12,.12-.03,.29,2-2.75,4.11-5.36,5.82-8.3,.08,.25,.15,.49,.23,.73,.58,1.7,1.21,3.38,1.66,5.12,.2,.76,.38,1.52,.49,2.3,.02,.14,.06,.3-.18,.26-1.16-.19-2.32-.02-3.47-.04-.82-.02-1.64,.03-2.46,.11-2.52,.25-5.03,.54-7.55,.8-2.58,.27-5.15,.16-7.68-.47-2.15-.53-9.43-2.36-10.41-2.57-.47-.1-.95-.14-1.42-.21,1.28,.82,2.73,1.15,4.17,1.53-1.03,1.23-2.19,2.19-3.7,2.68-.73,.24-1.43,.37-2.2,.17-1.04-.27-1.89-.86-2.76-1.42-.14-.09-.31-.37-.45-.21-.13,.15,.09,.38,.22,.54,.9,1.05,2.09,1.59,3.39,1.94,.21,.06,.44,.05,.66,.02,1.6-.16,2.91-.9,4-2.06,.4-.43,.78-.88,1.16-1.32,.13-.15,.25-.2,.45-.15,1.34,.34,2.69,.64,4.01,1.07,3.7,1.21,7.48,1.58,11.35,1.12,1.76-.21,3.51-.44,5.28-.5,1.38-.04,2.77,.04,4.14-.13,1.11-.14,2.25-.15,3.3-.64,.26-.12,.22,.1,.24,.24,.19,1.68,.21,3.36,.06,5.04-.01,.16-.06,.33,.04,.56,.03-.16,.05-.23,.05-.31,.12-1.33,.25-2.65,.34-3.98,.15-2.25,.08-4.48-.6-6.65-.32-1.02-.63-2.04-.96-3.05Z"/>
  <path class="cls-1" d="M91.75,65.12c-.39-.77-.79-1.53-1.16-2.32-1.91-4.08-3.96-8.1-6.04-12.1-.27-.52-.51-1.05-.93-1.49-.67-.7-.67-.73,.07-1.38,.19-.17,.41-.31,.61-.47,.09-.07,.21-.1,.3-.3-.6,.25-1.12,.52-1.53,.94-.21,.22-.28,.15-.4-.07-1.19-2.12-2.39-4.24-3.6-6.35-1.28-2.25-2.57-4.49-3.85-6.74-2.12-3.73-7.18-11.88-7.38-12.13-.26-.34-.57-.65-.86-.97l-.08,.06c.16,.42,.29,.86,.49,1.27,.13,.28,.06,.36-.19,.44-.92,.32-1.83,.66-2.79,.83-.1,.02-.2,.04-.23,.17,.15,.11,.3,.08,.45,.07,.98-.11,1.89-.45,2.79-.81,.18-.07,.27-.08,.38,.12,1.6,2.8,3.22,5.58,4.9,8.33,3.2,5.26,6.54,10.44,9.8,15.66,.17,.27,.27,.49,.03,.77-.09,.11-.15,.31,0,.41,.19,.12,.2-.13,.29-.2,.05-.04,.1-.13,.15-.13,.11,0,.1,.11,.12,.18,.11,.44,.21,.89,.41,1.3,.65,1.3,1.32,2.59,2.03,3.85,.12,.22,.11,.37-.04,.56-.37,.48-.67,1.02-.92,1.57-.86,1.85-1.2,3.84-1.5,5.83-.25,1.66-.5,3.32-1.18,4.87-.52,1.19-2,1.95-1.93,2.08-.06,1.19-.09,1.23-.35,1.31-1.72,.5-3.45,.98-5.15,1.54-.15,.05-.3,.08-.5,.14,.07-.16,.1-.25,.14-.33,1.12-2.31,1.8-4.75,2.13-7.29,.18-1.36,.26-2.73,.36-4.09,.14-1.79,.43-3.53,1.19-5.18,.8-1.76,1.94-3.28,3.2-4.73,.36-.41,.67-.87,1-1.3l-.07-.06c-.35,.26-.74,.48-1.06,.79-1.99,1.94-3.53,4.16-4.3,6.86-.49,1.71-.58,3.46-.63,5.22-.09,2.75-.42,5.44-1.48,8.01-.33,.79-.66,1.58-1.07,2.33-.07,.13-.17,.23-.09,.38,.08,.16,.23,.19,.39,.17,.29-.03,.57-.12,.85-.21,1.64-.52,3.21-1.23,4.84-1.81,.6-.21,.58-.24,.66,.38,.49,4.17,2.07,7.89,4.76,11.11,1.29,1.54,2.79,2.84,4.6,3.76,.12,.06,.23,.14,.39,.09-.47-.35-.97-.65-1.45-.97-1.35-.92-2.49-2.05-3.42-3.4-1.44-2.11-2.48-4.4-3.29-6.81-.44-1.32-.81-2.67-1.03-4.05-.09-.59-.11-1.63,0-1.71,1.14-.84,1.83-1.99,2.28-3.3,.35-1.03,.59-2.1,.79-3.17,.36-1.92,.68-3.86,1.26-5.73,.24-.79,.55-1.56,.86-2.42,.6,1.11,1.15,2.13,1.71,3.15,.08,.15-.01,.21-.12,.27-.31,.2-.57,.44-.8,.73-.8,.99-1.32,2.13-1.69,3.34-.56,1.83-.63,3.71-.51,5.61,.14,2.27,.66,4.42,1.89,6.37,.3,.48,.62,.95,1.06,1.36,.01-.14-.03-.23-.07-.31-.49-1.15-1.06-2.27-1.42-3.48-.85-2.84-.8-5.71-.34-8.6,.29-1.82,1.21-3.34,2.21-4.85,1.35,2.4,2.7,4.79,4.07,7.22,.04-.11,0-.15-.03-.21Z"/>
  <path class="cls-1" d="M4.41,53.91c1.5,.25,2.99,.04,4.48-.08,1.6-.13,3.19-.35,4.8-.38,.26,0,.4,.03,.28,.34-.04,.11-.1,.23-.03,.47,.16-.46,.3-.84,.43-1.22,.63-1.91,.64-3.85,.21-5.79-.37-1.64-1.09-3.1-2.43-4.17-1.87-1.49-4.01-1.82-6.31-1.41-.43,.08-.85,.26-1.26,.45,.08,.11,.15,.06,.21,.06,1.18-.02,2.36-.17,3.54-.03,1.63,.19,3.05,.78,4.14,2.07,.32,.37,.57,.73,.29,1.24-.07,.12-.07,.27-.11,.41-.19,.66-.36,1.33-.69,1.95-.37,.69-.93,1.02-1.72,.99-.66-.02-1.3-.16-1.94-.32-2.44-.64-4.87-1.31-7.43-1.23-.19,0-.21-.1-.21-.24,0-1.6-.05-3.21,0-4.81,.08-2.33,1.12-4.08,3.08-5.33,.84-.53,1.79-.81,2.68-1.22,.09-.04,.18-.03,.27,.02,.58,.3,1.2,.31,1.82,.25,.86-.08,1.72-.25,2.58-.3,1.51-.09,3.02,.04,4.53,.08,.58,.02,1.08,.3,1.49,.72,.26,.26,.5,.53,.77,.77,.48,.43,.85,.93,1.09,1.53,.12,.29,.24,.58,.4,.96,.18-1.15-.25-1.97-.94-2.69-.31-.32-.63-.63-.95-.94-.58-.57-1.26-.88-2.08-.9-.35,0-.7,0-1.05-.02-1.84-.13-3.67-.16-5.49,.21-.49,.1-.99,.12-1.47,.03-.79-.16-1.53,0-2.26,.25-2.09,.73-3.66,2.05-4.53,4.12C.08,41,0,42.3,0,43.62c0,1.25,.05,2.51,.05,3.76,0,.49,.05,.6,.53,.6,2.37,0,4.69,.34,6.98,.93,.74,.19,1.48,.36,2.24,.43,1.51,.13,2.43-.43,3-1.83,.14-.35,.25-.71,.31-1.08,.05-.26,.09-.53,.14-.8,.13,.08,.15,.2,.19,.31,.88,2.33,.87,4.75,.65,7.18-.02,.22-.13,.22-.31,.19-.86-.13-1.72-.19-2.59-.19-1.48,0-2.94,.21-4.42,.22-1.16,.01-2.32-.03-3.41-.52-.55-.25-.88-.67-1.03-1.26-.11-.46-.1-.93-.04-1.4,.08-.56,.07-1.13,.16-1.69-.73,1.03-.98,2.16-.61,3.36,.38,1.24,1.32,1.86,2.56,2.07Z"/>
  <path class="cls-1" d="M62.05,63.19c-.28-1.76-.67-3.5-.77-5.28-.06-1.03,.04-2.03,.35-3.02,.58-1.83,1.88-2.93,3.58-3.68,1.85-.81,3.78-1.39,5.68-2.07,2.44-.87,4.79-1.91,6.88-3.45,.05-.04,.09-.11,.14-.08-.6,2.24-1.16,4.47-1.09,6.81,.23-.45,.45-.9,.53-1.39,.24-1.44,.47-2.89,.81-4.31,.09-.39,.16-.78,.17-1.18,0-.21,.06-.32,.21-.43,.42-.31,.63-.78,.89-1.21-.6,.2-1.15,.46-1.67,.82-2.35,1.63-4.99,2.67-7.65,3.66-1.69,.63-3.45,1.07-5.12,1.74-2.13,.85-3.71,2.27-4.38,4.53-.4,1.35-.47,2.74-.38,4.14,.1,1.48,.47,2.91,.77,4.36,.67,3.25,.84,6.5,.05,9.75-.02,.08-.04,.17,.03,.29,.04-.11,.07-.17,.09-.24,.45-1.15,.68-2.36,.9-3.57,.38-2.06,.3-4.13-.03-6.19Z"/>
  <path class="cls-1" d="M121.31,62.18c-.91-2.7-2.23-5.21-3.7-7.64-.97-1.59-2.18-2.95-3.65-4.1-.41-.32-.91-.4-1.39-.54,.39,.43,.75,.88,1.21,1.22,.72,.53,1.33,1.17,1.89,1.88,1.31,1.66,2.27,3.52,3.15,5.42,1.08,2.33,1.99,4.71,2.46,7.24,.55,2.96,.45,5.93-.02,8.89-.37,2.31-1.02,4.52-2.3,6.52-1.06,1.66-2.45,3.02-3.94,4.28-1.44,1.23-3,2.32-4.43,3.57-.27,.24-.49,.51-.67,.87,.41-.1,.75-.2,1.07-.38,2.04-1.1,3.76-2.62,5.46-4.17,2.09-1.9,3.62-4.17,4.6-6.81,.81-2.18,1.19-4.45,1.37-6.77,.26-3.24-.08-6.41-1.12-9.5Z"/>
  <path class="cls-1" d="M112.79,69.86c.11-2.9-.54-5.65-1.63-8.32-.94-2.27-2.32-4.19-4.42-5.5-4-2.49-8.32-2.96-12.85-1.9-.44,.1-.8,.38-1.18,.64,.54,.02,1.07,.1,1.6,0,.66-.13,1.32-.21,1.99-.25,2.39-.17,4.75-.08,7.04,.74,2.79,1,5.03,2.65,6.37,5.35,1.41,2.85,2.19,5.88,2.28,9.06,.05,1.71-.18,3.37-.88,4.94-.73,1.61-1.83,2.93-3.2,4.04-.37,.3-.75,.6-1.12,.9,.08,.04,.13,.04,.17,.02,1.56-.92,2.97-2,4.02-3.5,1.31-1.87,1.75-4,1.83-6.22Z"/>
  <path class="cls-1" d="M13.26,34.75c-.29-.51-.44-1.07-.69-1.58-.52-1.05-.48-2.11,.07-3.14,.66-1.25,1.8-1.87,3.1-2.24,1.52-.43,3.06-.39,4.6-.19,1.85,.24,3.66,.69,5.49,1.03,.2,.04,.4,.08,.67,.13-3.61,1.14-4.8,4.36-4.44,5.89,.03-.06,.06-.09,.07-.13,.32-1.61,1.27-2.82,2.47-3.86,.44-.38,.91-.71,1.47-.88,1.69-.52,3.4-.48,5.11-.16,.13,.02,.2,.05,.15,.23-.19,.68-.07,1.37,.05,2.05,.04,.22,.19,.5,.38,.49,.2-.01,.29-.32,.3-.54,.02-.39,0-.77,0-1.16,0-.25,.02-.46,.2-.67,.31-.36,.13-.85-.33-1-.37-.12-.74-.21-1.12-.28-1.99-.37-3.99-.72-5.97-1.14-1.92-.42-3.85-.82-5.83-.9-1.65-.07-3.26,.08-4.76,.83-2.53,1.26-3.41,3.82-2.12,6.19,.26,.48,.7,.76,1.14,1.05Z"/>
  <path class="cls-1" d="M75.31,20.48c-2.4-.7-4.58-.23-6.58,1.24-.22,.16-.42,.34-.55,.58-.08,.16-.14,.33,0,.49,.14,.16,.3,.16,.48,.07-.16-.19-.16-.19,.03-.34,.52-.38,1.09-.69,1.68-.94,.45-.18,.44-.18,.65,.25,.06,.13,.13,.25,.2,.37,1.09,1.96,2.37,3.79,3.52,5.71,.06,.1,.19,.19,.04,.33-.24,.23-.27,.53-.29,.84-.05,.81,.19,1.58,.35,2.36,.09,.47,.21,.94,.45,1.36,.24,.41,.52,.77,1.05,.76,.55,0,.96-.27,1.24-.73,.26-.42,.3-.88,.27-1.36-.08-1.57-.55-2.26-1.83-2.72-.07-.02-.14-.08-.22,.02,.6,.39,1.03,.92,1.34,1.54,.34,.67,.51,1.39,.21,2.13-.17,.43-.52,.62-.97,.63-.39,0-.55-.3-.66-.59-.4-1.05-.58-2.14-.69-3.25-.03-.32,.06-.56,.34-.77,.47-.34,.99-.26,1.28,.24,.03,.06,.03,.14,.13,.13,0-.68-.55-1.13-1.21-.92-.38,.12-.49,0-.67-.32-.6-1.14-1.26-2.24-1.9-3.36-.51-.89-1.03-1.79-1.53-2.69-.06-.11-.24-.26,.05-.37,1.21-.45,2.44-.63,3.73-.5,.22,.02,.29,.08,.25,.32-.53,2.74,.98,5.6,3.36,6.96,.75,.43,1.55,.69,2.44,.66-.5-.21-.93-.52-1.41-.76-1.53-.76-2.7-1.88-3.35-3.49-1.15-2.85-.04-5.86,2.68-7.18,.61-.29,1.26-.46,1.97-.66-.3-.06-.51-.01-.73,.04-.51,.12-1.02,.27-1.51,.45-1.6,.6-2.78,1.62-3.29,3.3-.07,.23-.16,.22-.35,.17Z"/>
  <path class="cls-1" d="M26.16,12.32c.63,.2,1.29,.24,1.95,.18,1.65-.13,3.19-.65,4.61-1.48,1.85-1.08,3.52-2.36,4.72-4.17,.28-.42,.42-.73,.43-.97-.05,.06-.09,.1-.12,.15-1.82,2.61-4.24,4.4-7.28,5.35-1.23,.38-2.48,.6-3.77,.32-1.51-.33-2.21-1.37-1.97-2.89,.15-.93,.57-1.74,1.12-2.47,1.92-2.53,4.42-4.24,7.48-5.06,1.28-.34,2.74-.73,3.88,.01,2.2,1.42,2.17,2.12,2.64,2.89,.64,1.03,1.56,1.67,2.72,1.96,.74,.18,1.46,.19,2.14-.24,.19-.12,.29-.07,.35,.15,.08,.32,.17,.63,.27,.95,.6,1.94,1.23,3.86,1.39,5.9,.03,.33,.07,.66,.22,.96,.15,.29,.06,.43-.19,.58-.45,.29-.87,.61-1.34,.93,.15,.07,.21,0,.27-.05,1.32-.84,2.77-1.41,4.23-1.95,1.97-.73,3.84-.55,5.62,.58,.58,.37,1.16,.76,1.71,1.17,2.15,1.61,4.44,2.97,6.91,4.02,1.14,.49,2.32,.74,3.57,.52,.06-.01,.13-.05,.2,.04-.05,.06-.11,.12-.16,.17-.26,.27-.53,.54-.68,.89-.05,.12-.11,.26,.01,.36,.15,.12,.23-.04,.31-.12,.23-.23,.44-.49,.69-.7,1.28-1.12,2.75-1.85,4.41-2.22,.1-.02,.24,.02,.3-.16-.66-.02-1.28,.11-1.89,.26-1.02,.25-2.03,.58-3.1,.56-1.62-.04-3.14-.54-4.58-1.24-1.96-.95-3.75-2.17-5.5-3.45-.77-.56-1.54-1.1-2.39-1.54-1.26-.65-2.57-.82-3.96-.49-1.16,.28-2.22,.81-3.23,1.43-.28,.17-.56,.36-.87,.56-.02-.16-.04-.27-.04-.39,.01-1.22-.16-2.43-.38-3.63-.09-.53-.03-.62,.52-.61,.7,.02,1.4,.06,2.1,.19,.27,.05,.53,.02,.8-.1-.18-.26-.39-.42-.68-.47-.36-.05-.72-.1-1.08-.15-.63-.09-1.26-.16-1.88,.06-.23,.09-.18-.12-.2-.22-.12-.72-.29-1.42-.53-2.11-.1-.29-.17-.58-.22-.89-.09-.64-.61-.95-1.19-.65-.7,.36-1.37,.26-2.03-.02-.88-.38-1.67-.89-2.29-1.65-1.06-1.29-2.44-2.67-4.16-2.93-.55-.08-1.1-.1-1.65-.02-3.46,.48-6.29,2.12-8.56,4.74-.86,1-1.52,2.12-1.81,3.42-.39,1.75,.45,3.18,2.16,3.72Z"/>
  <path class="cls-1" d="M93.29,46.54c-1.7,.39-3.35,.99-5,1.56-.39,.14-.75,.38-1.21,.62,.98,.06,1.79-.19,2.6-.45,1.47-.47,2.93-.99,4.45-1.3,1.82-.37,3.58-.19,5.31,.5,1.07,.43,2.07,.99,3.08,1.54,1.11,.61,2.24,1.19,3.48,1.48,2.04,.48,4.02,.43,5.89-.63,.54-.31,1.04-.69,1.45-1.22-.2,0-.27,.12-.37,.2-.34,.26-.69,.48-1.08,.65-1.67,.72-3.4,.71-5.14,.35-1.6-.33-3.06-1.03-4.49-1.8-1.19-.64-2.37-1.28-3.7-1.6-1.77-.42-3.54-.29-5.29,.12Z"/>
  <path class="cls-1" d="M67.39,15.2c1.07-.29,2.15-.46,3.25-.59,.28-.03,.5-.16,.69-.41-.25-.07-.48-.17-.73-.13-1.07,.15-2.15,.14-3.21,.38-.23,.05-.32-.01-.37-.23-.12-.48-.23-.96-.51-1.43,.25-.03,.45-.08,.64-.07,1.11,.02,2.2,0,3.24-.48,.12-.06,.17,0,.22,.1,.25,.53,.69,.85,1.19,1.1,.49,.25,.95,.54,1.35,.94,.2,.21,.44,.4,.71,.51,.63,.25,.71,.37,.59,1.18-.02,.12-.04,.23-.05,.35-.04,.7-.4,1.23-.91,1.68-.07,.06-.14,.13-.2,.2-.05,.07-.15,.15-.07,.25,.06,.07,.16,.02,.23,0,.31-.11,.58-.3,.81-.55,.69-.73,.73-1.68,.84-2.59,.06-.47-.16-.86-.57-1.13-.28-.19-.59-.38-.79-.64-.4-.54-.91-.91-1.48-1.21-.4-.21-.64-.53-.76-.96-.09-.3-.3-.4-.59-.36-.41,.06-.8,.17-1.2,.28-1.1,.31-2.08,.91-3.17,1.23-.1,.03-.14,.09-.17,.23-.13,.62,.02,1.21,.13,1.81,.08,.46,.43,.67,.9,.54Z"/>
  <path class="cls-1" d="M33.72,48.26c-1.18,1.62-2.23,3.33-3.44,4.93-1.49,1.98-3.21,3.66-5.62,4.5-1.96,.69-3.91,.81-5.86-.04-.42-.18-.88-.18-1.32-.34,.34,.57,.7,1.08,1.35,1.3,.69,.24,1.39,.41,2.13,.43,2.48,.06,4.67-.73,6.63-2.23,1.72-1.32,3.02-3,4.17-4.81,1.45-2.26,2.8-4.58,4.55-6.63,.03-.04,.08-.09,0-.15-.08,.08-.17,.16-.25,.24-.84,.88-1.62,1.82-2.34,2.8Z"/>
  <path class="cls-1" d="M29.2,25.81c.89-.06,1.78-.02,2.66,.12,1.69,.27,3.38,.53,5.06,.8,.96,.16,1.92,.3,2.83,.68,1.26,.53,1.72,1.3,1.57,2.65-.09,.78-.23,1.55-.51,2.3,.45-.65,.89-1.31,1.08-2.09,.34-1.38-.12-2.42-1.35-3.15-.49-.29-1.01-.51-1.55-.66-2.69-.76-5.43-1.27-8.22-1.43-1.51-.09-2.87,.33-4.01,1.36-.38,.34-.52,.81-.71,1.27,.47-.42,.98-.78,1.45-1.17,.49-.4,1.06-.64,1.7-.68Z"/>
  <path class="cls-1" d="M81.88,24.81c.27,.89,.66,1.74,1.41,2.34,.82,.66,1.83,.65,2.64-.03,.52-.44,.86-1.02,1.15-1.62,.34-.72,.51-1.49,.58-2.37-.07,.11-.1,.14-.1,.17-.03,.14-.06,.27-.09,.41-.24,1.01-.58,1.98-1.39,2.7-1.02,.91-2.06,.76-2.76-.4-.12-.19-.23-.39-.31-.59-.87-2.24-1.03-4.53-.46-6.86,.27-1.1,.9-1.97,1.82-2.63,.35-.25,.75-.41,1.12-.65-.88,.08-1.69,.32-2.36,.92-.93,.84-1.4,1.92-1.61,3.13-.32,1.86-.17,3.69,.37,5.49Z"/>
  <path class="cls-1" d="M67.19,8.38c.28,.1,.42-.15,.58-.31,.46-.47,.84-1,1.18-1.57,.29-.49,.59-.95,1.07-1.29,.1-.07,.22-.15,.22-.34-.2,.05-.33,.16-.47,.26-.83,.55-1.41,1.33-1.91,2.17-.18,.3-.39,.59-.65,.87-.09-.35-.08-.53,0-.94,.38-2,1.15-3.88,1.71-5.83,.09-.33,.28-.41,.57-.45,.3-.03,.4,.17,.49,.37,.32,.79,.52,1.62,.55,2.46,.02,.53,.11,1.01,.26,1.5,.21,.67,.26,1.31-.15,1.95-.35,.56-.64,1.16-.98,1.79,.18-.06,.24-.18,.32-.27,.67-.77,1.1-1.72,1.76-2.49,.14-.16,.17-.36,.15-.57-.06-.57-.26-1.09-.58-1.56-.07-.11-.18-.23-.3-.22-.33,.02-.24-.17-.2-.35,.16-.82,.27-1.65-.06-2.46-.17-.42-.44-.74-.9-.86-.2-.05-.45,.06-.58-.21-.02-.05-.15-.05-.19,0-.25,.27-.58,.51-.64,.89-.03,.22-.07,.43-.14,.64-.31,.96-.64,1.91-.94,2.87-.33,1.06-.44,2.15-.44,3.26,0,.26,0,.57,.32,.68Z"/>
  <path class="cls-1" d="M31.37,71.93c-1.37,.61-2.8,.97-4.28,1.18-1.69,.24-3.35,.19-4.93-.52-2.18-.98-3.76-2.6-4.83-4.72-.24-.47-.62-.83-.95-1.35-.05,.94,.17,1.68,.6,2.38,.3,.48,.63,.93,.97,1.38,1.9,2.48,5.42,4.6,9.78,3.22,.97-.31,1.9-.72,2.84-1.1,.35-.14,.72-.27,1.03-.5-.09,0-.17,0-.25,.03Z"/>
  <path class="cls-1" d="M44.04,16.29c.15-.56-.05-1.04-.37-1.51-.39-.56-.72-1.15-.93-1.8-.1-.3-.21-.34-.46-.15-.32,.24-.59,.53-.87,.81-1.15,1.12-2.43,2.04-3.98,2.5-1.66,.49-3.25,1.2-4.94,1.64,.1,.1,.24,.1,.35,.1,.76-.03,1.53-.07,2.26-.28,.77-.22,1.52-.46,2.27-.73,1.85-.66,3.53-1.57,4.74-3.19,.03-.04,.06-.07,.1-.05,.2,1.19,.75,2.11,1.83,2.66Z"/>
  <path class="cls-1" d="M107.92,44.35c1.11,.64,2.25,1.2,3.39,1.77,1.14,.57,2.37,1.03,3.22,2.07,.16,.2,.34,.13,.41-.12,.04-.14-.01-.27-.06-.41-.29-.79-.9-1.26-1.63-1.62-1.89-.93-3.81-1.8-5.75-2.63-1.16-.5-2.33-.99-3.56-1.29-.34-.08-.69-.16-1.06-.12,.07,.03,.14,.07,.22,.09,1.71,.54,3.28,1.37,4.83,2.26Z"/>
  <path class="cls-1" d="M32.05,17.73c-.13-.11-.29-.17-.45-.05-.16,.11-.15,.28-.08,.44,.32,.73,.6,1.47,1.05,2.14,.14,.2,.25,.43,.34,.65,.16,.4,.31,.49,.72,.33,.4-.16,.73-.42,1.06-.68,.88-.7,1.86-1.22,2.93-1.57,.48-.16,.96-.31,1.42-.51,1.22-.51,2.35-1.21,3.55-1.76,.31-.14,.64-.25,.96-.38-.75,.05-1.44,.27-2.11,.55-1.39,.6-2.75,1.24-4.23,1.61-.89,.22-1.68,.65-2.42,1.17-.35,.25-.71,.5-1.06,.75-.13,.09-.21,.1-.29-.08-.29-.64-.6-1.27-.89-1.91-.12-.27-.27-.52-.5-.72Z"/>
  <path class="cls-1" d="M97.72,66.34c-.06-.12-.16-.23-.26-.33-.32-.32-.56-.28-.75,.14-.24,.51-.51,1-.82,1.47-.24,.37-.57,.58-1.01,.62-.24,.02-.49,.03-.73,.06-.53,.07-1.05-.08-1.57-.05-.1,0-.24,0-.27,.12-.03,.13,.11,.16,.19,.21,.75,.43,1.56,.47,2.38,.35,.7-.1,1.24-.47,1.6-1.08,.25-.41,.49-.82,.69-1.33,.07,.11,.1,.15,.12,.2,.48,1.29,1.06,2.56,1.39,3.9,.31,1.27,.35,2.52-.48,3.69,.43-.15,.61-.49,.74-.87,.48-1.4,.4-2.81,.02-4.22-.28-1.03-.81-1.94-1.26-2.89Z"/>
  <path class="cls-1" d="M90.73,42.39c.09,.21,.18,.45,.42,.68-.03-.15-.04-.21-.06-.27-.05-.16-.08-.32-.14-.47-1.08-2.62-2.21-5.21-3.51-7.73-.69-1.34-1.51-2.62-2.14-3.99-.09-.19-.18-.38-.28-.57-.04-.07-.09-.14-.19-.12-.1,.02-.12,.1-.14,.18-.07,.28,.03,.54,.14,.78,.66,1.56,1.38,3.09,2.21,4.58,1.27,2.29,2.67,4.51,3.69,6.93Z"/>
  <path class="cls-1" d="M74.33,66.26c-5.14,5.75-9.96,6.01-11.79,7.39-.04,.03-.05,.07,0,.15,.26-.14,.53-.27,.79-.42,1.83-1.07,6.38-.12,10.56-6.4,.12-.18,.58-.77,.44-.72Z"/>
  <path class="cls-1" d="M84.18,37.41c-.42-.96-.84-1.93-1.41-2.82-.05-.08-.1-.22-.23-.15-.11,.06-.04,.17-.02,.25,.14,.42,.27,.85,.45,1.26,1.43,3.19,2.86,6.38,4.32,9.57,.24,.53,.58,1.02,.94,1.48l.08-.04c-.2-.57-.37-1.15-.62-1.69-1.21-2.6-2.36-5.22-3.52-7.85Z"/>
  <path class="cls-1" d="M88.36,26.52c-.13-.1-.27-.07-.39,.01-.13,.08-.18,.22-.2,.36-.12,1.05,0,2.06,.66,2.93,.41,.55,1.05,.59,1.57,.14,1.2-1.02,1.26-3.09,.13-4.18-.33-.32-.72-.52-1.2-.49-.25,.01-.45,.1-.54,.44,.3-.12,.54-.1,.79,0,1.45,.64,1.47,2.82,.4,3.77-.17,.16-.4,.19-.56-.02-.59-.79-.75-1.69-.62-2.65,.02-.12,.08-.23-.03-.32Z"/>
  <path class="cls-1" d="M57.7,27.12c-1.27-.03-2.45,.36-3.61,.81-.5,.19-1,.39-1.45,.7-.09,.06-.19,.13-.16,.25,.03,.14,.16,.16,.28,.17,.25,.02,.49-.04,.72-.13,1.21-.45,2.44-.84,3.7-1.09,1.08-.21,1.96,.05,2.63,.97,.27,.36,.57,.69,.8,1.1-.04-.54-.08-1.07-.42-1.5-.63-.81-1.45-1.24-2.48-1.27Z"/>
  <path class="cls-1" d="M90.95,56.38c-.25,.14-.15,.35-.06,.55,.25,.5,.6,.95,.92,1.41,.86,1.24,1.8,2.42,2.51,3.76,.25,.46,.5,.92,.89,1.3-.07-.49-.33-.91-.56-1.34-.6-1.11-1-2.32-1.77-3.34-.52-.68-1.02-1.37-1.47-2.1-.11-.17-.24-.36-.48-.24Z"/>
  <path class="cls-1" d="M59.68,18.95c-.24,.06-.46,.17-.61,.38-.07,.1-.15,.2-.06,.32,.08,.11,.19,.06,.29,.03,.28-.07,.55-.11,.83,0,.39,.17,.77,.34,1.12,.59,.88,.62,1.56,1.44,2.18,2.31,.06,.09,.08,.22,.24,.23,0-.04,.01-.07,0-.1-.42-1.08-1.01-2.06-1.77-2.93-.57-.64-1.27-1.09-2.2-.85Z"/>
  <path class="cls-1" d="M34.06,31.3c.94-.06,1.84,.19,2.75,.37,.52,.1,1.04,.18,1.56,.23,.44,.04,.86,0,1.29-.26-.32-.19-.62-.3-.95-.33-.71-.05-1.42-.17-2.12-.32-.66-.14-1.33-.28-2.01-.28-.19,0-.38,0-.56,.02-.14,.02-.24,.12-.21,.27,.03,.13,.11,.31,.24,.3Z"/>
  <path class="cls-1" d="M85.91,47.4c-.08,.13-.05,.27,0,.4,.25,.54,.52,1.08,.84,1.58,1.03,1.58,1.98,3.2,2.64,4.98,.08,.22,.12,.46,.35,.7-.74-2.78-2.06-5.2-3.48-7.58,.22-.11,.03-.21-.03-.29-.38-.56-.82-1.08-1.13-1.68-.81-1.57-1.58-3.16-2.43-4.7-.88-1.6-1.46-3.35-2.35-4.94-.48-.87-.82-1.82-1.45-2.6-.09-.11-.12-.39-.32-.27-.17,.1,0,.3,.05,.44,.54,1.39,1.19,2.72,1.79,4.08,1.28,2.89,2.9,5.58,4.64,8.21,.37,.56,.79,1.09,1.19,1.64-.11-.05-.23-.1-.31,.03Z"/>
  <path class="cls-1" d="M16.76,60.07c.15,.01,.2-.12,.21-.24,.07-.64,.13-1.29,.19-1.93l-.12-.02c-.2,.62-.37,1.26-.44,1.91-.01,.11,0,.26,.16,.27Z"/>
</svg>