<?xml version="1.0" encoding="utf-8"?>
<!-- Generator: Adobe Illustrator 27.4.0, SVG Export Plug-In . SVG Version: 6.00 Build 0)  -->
<svg version="1.1" id="Layer_1" xmlns="http://www.w3.org/2000/svg" xmlns:xlink="http://www.w3.org/1999/xlink" x="0px" y="0px"
	 viewBox="0 0 144 144" style="enable-background:new 0 0 144 144;" xml:space="preserve">
<g>
	<path d="M84.9,69.5l0.8,16.9h-2c-0.4-3-0.9-5.1-1.6-6.4c-1.1-2.1-2.6-3.6-4.4-4.5c-1.8-1-4.2-1.5-7.2-1.5H60.4v55
		c0,4.4,0.5,7.2,1.4,8.3c1.3,1.5,3.4,2.2,6.2,2.2h2.5v2H40v-2h2.5c3,0,5.2-0.9,6.5-2.8c0.8-1.1,1.2-3.7,1.2-7.8V74h-8.7
		c-3.4,0-5.8,0.2-7.2,0.7c-1.8,0.7-3.4,2-4.7,3.9c-1.3,1.9-2.1,4.5-2.3,7.8h-2l0.8-16.9H84.9z"/>
	<path d="M89.8,92.9h22.9v2c-1.5,0-2.5,0.2-3.1,0.7c-0.6,0.5-0.9,1.2-0.9,2c0,0.8,0.6,2.2,1.9,3.9c0.4,0.6,1,1.5,1.8,2.7l3.5,5.5
		l4-5.5c2.5-3.5,3.8-5.7,3.8-6.6c0-0.7-0.3-1.4-0.9-1.9c-0.6-0.5-1.6-0.8-2.9-0.8v-2h16.5v2c-1.7,0.1-3.2,0.6-4.5,1.4
		c-1.7,1.2-4.1,3.8-7.1,7.9L118,113l12.1,17.4c3,4.3,5.1,6.9,6.4,7.7c1.3,0.9,2.9,1.4,4.9,1.5v1.9h-22.9v-1.9c1.6,0,2.8-0.4,3.7-1.1
		c0.7-0.5,1-1.2,1-2c0-0.8-1.1-2.9-3.4-6.2l-7.1-10.4l-7.8,10.4c-2.4,3.2-3.6,5.1-3.6,5.7c0,0.8,0.4,1.6,1.2,2.3
		c0.8,0.7,2,1.1,3.6,1.1v1.9H90.2v-1.9c1.3-0.2,2.4-0.6,3.3-1.3c1.3-1,3.6-3.6,6.8-7.9l10.2-13.5l-9.2-13.4
		c-2.6-3.8-4.6-6.2-6.1-7.2c-1.4-1-3.2-1.5-5.4-1.5V92.9z"/>
</g>
<path d="M22.3,74.1l0.1-2.6c-1,0.4-2.2,0.6-3.6,0.6h-2.5v2H22.3z"/>
<path d="M26.2,65.9h10.6c-0.1-1.2-0.2-2.6-0.2-4.3v-55h10.1c3,0,5.4,0.5,7.2,1.5c1.8,1,3.3,2.5,4.4,4.5c0.7,1.3,1.2,3.4,1.6,6.4h2
	L61.1,2.1H2.4L1.5,19h2c0.2-3.3,1-5.8,2.3-7.8C7.2,9.3,8.8,8,10.6,7.3c1.4-0.5,3.8-0.7,7.2-0.7h8.7v55
	C26.4,63.3,26.3,64.7,26.2,65.9z"/>
<path d="M74.3,65.9h4.7c0.5-0.8,1.2-1.8,2.1-2.9L89,52.6L96.1,63c2.3,3.3,3.4,5.3,3.4,6.2c0,0.8-0.3,1.5-1,2
	c-0.9,0.7-2.1,1.1-3.7,1.1v1.9h22.9v-1.9c-2-0.1-3.7-0.6-4.9-1.5c-1.3-0.9-3.4-3.4-6.4-7.7L94.3,45.6l6.6-8.9c3-4,5.4-6.7,7.1-7.9
	c1.3-0.8,2.8-1.3,4.5-1.4v-2H96.1v2c1.3,0,2.3,0.3,2.9,0.8c0.6,0.5,0.9,1.1,0.9,1.9c0,0.9-1.3,3.1-3.8,6.6l-4,5.5l-3.5-5.5
	c-0.8-1.2-1.4-2.1-1.8-2.7C85.7,32.3,85,31,85,30.1c0-0.8,0.3-1.5,0.9-2c0.6-0.5,1.6-0.7,3.1-0.7v-2H66.1v2c2.2,0,4,0.5,5.4,1.5
	c1.4,1,3.5,3.4,6.1,7.2l9.2,13.4L76.6,63C75.8,64.1,75,65,74.3,65.9z"/>
</svg>
