<?xml version="1.0" encoding="UTF-8"?>
<svg id="Layer_1" data-name="Layer 1" xmlns="http://www.w3.org/2000/svg" viewBox="0 0 200 93.97">
  <defs>
    <style>
      .cls-1 {
        fill: #b3b3b3;
        fill-rule: evenodd;
      }
    </style>
  </defs>
  <path class="cls-1" d="M36.47,65.23c.38,.4,.72,.9,1.02,1.47-.26,.43-.48,.89-.65,1.35-.54,1.42-.74,3-.7,4.52,.05,1.55,.37,3.21,1.03,4.65-.53,.75-1.18,1.27-1.9,1.48-.23,.06-3.15,.1-3.39,.1-2.37,0-4.39-3.3-4.51-7.36-.09-3.1,.95-5.76,2.5-6.84,1.95,.19,3.9,.37,5.85,.56l.77,.08h0Z"/>
  <path class="cls-1" d="M31.21,66.58c1.64,0,2.99,2.22,3.01,4.96,.02,2.74-1.3,4.96-2.94,4.96-.67,0-1.28-.36-1.78-.98,.4,.37,.86,.58,1.34,.58,1.51,0,2.72-2.04,2.71-4.56-.02-2.52-1.25-4.56-2.77-4.56-.49,0-.94,.21-1.33,.58,.49-.61,1.1-.98,1.77-.98h0Z"/>
  <path class="cls-1" d="M31.82,74.92c-.08,.01-.15,.02-.23,.02-1.1,0-2.01-1.49-2.02-3.33-.01-1.82,.86-3.3,1.94-3.33-.78,.5-1.33,1.77-1.32,3.25,.01,1.65,.7,3.02,1.63,3.39h0Z"/>
  <path class="cls-1" d="M48.6,76.27c-.58,1.95-1.67,3.36-3,3.73-.23,.07-4.06,.1-4.31,.1-2.43,0-4.5-3.38-4.63-7.55-.1-3.21,.99-5.96,2.61-7.05h.14l.02,.02h.14l.02,.02h.14l.02,.02h.14l.02,.02h.14l.02,.02h.14l.02,.02h.14l.02,.02h.14l.02,.02h.13l.04,.02h.13l.04,.02h.13l.04,.02h.13l.04,.02h.13l.04,.02h.13l.04,.02h.13l.04,.02h.13l.04,.02h.13l.04,.02h.13l.04,.02h.13l.04,.02h.09l.04,.02h.09l.04,.02h.09l.04,.02h.09l.04,.02h.09l.04,.02h.09l.04,.02h.09c.85,.26,1.49,1.35,1.93,2.54,.3,.83,.49,1.68,.61,2.24,.33,1.61,.49,3.24,.61,4.88l.03,.43,.43,.05c.55,.06,1.1,.13,1.65,.19h0Z"/>
  <path class="cls-1" d="M41.1,67.33c1.68,0,3.06,2.27,3.08,5.08,.02,2.81-1.33,5.08-3.02,5.08-.68,0-1.31-.37-1.83-1,.41,.38,.88,.59,1.37,.59,1.55,0,2.79-2.09,2.77-4.67-.02-2.58-1.29-4.67-2.84-4.67-.5,0-.96,.22-1.37,.59,.5-.63,1.13-1,1.81-1h0Z"/>
  <path class="cls-1" d="M41.72,75.89c-.08,.01-.16,.02-.24,.02-1.13,0-2.06-1.53-2.07-3.41-.01-1.87,.88-3.38,1.99-3.41-.8,.52-1.36,1.81-1.35,3.33,.01,1.69,.72,3.1,1.67,3.47h0Z"/>
  <path class="cls-1" d="M178,68.19c.41-15.66,1.96-46.1-4.98-59.16,5,4.68,6.53,21.67,9.76,28.86,3.04,6.78,6.41,9.28,14.76,8.36,.08-7.92,.04-8.03-.29-15.29-.37-8.02-3.83-17.34-9.25-22.8-7.13-2.12-13.31-4.94-20.44-7.06,7.34,1.85,13.48,3.88,21.15,6.43,5.06,4.68,9.6,12.86,10.48,22.92,.79,9.09,.9,22.35,.76,33.57-7.4,1.31-14.55,2.86-21.95,4.16h0Z"/>
  <path class="cls-1" d="M125.42,81.79c-.03,1.96,.54,6.87,.51,8.83h.33c-.03,.57-.1,1.2-.12,1.77-.5,.08-.97,.1-1.47,.18-.35,.09-.37,.58-.16,.69,1.33,.22,2.67,.48,4,.69,.86-.27,1.63-.5,2.49-.78,.24-.06,.28-.37-.02-.55-.61-.07-1.21-.13-1.8-.14-.03-.56-.01-1.21-.08-1.8,.26-.07,.33-.1,.59-.16-.03-2.35-.05-4.71-.08-7.06,5.96-1.37,11.85-2.85,17.81-4.22-.08,1.93,.02,3.98-.06,5.92,.22,.05,.33,.07,.55,.12-.01,.35-.03,.7-.04,1.1-.63,.19-1.51,.33-1.86,.67,1.31,.22,2.59,.33,3.9,.55,.72-.2,1.34-.43,2.06-.63,.1-.36-1.14-.24-1.71-.35-.07-.57-.03-1.1-.1-1.67l.37-.16c0-2.07,0-4.13,0-6.2,1.05-.18,2.09-.35,3.14-.53,.94-3.66,1.8-8.13,2.73-11.79h-.73l-8.47-.88c-14.78-.44-18.6,1.83-18.28,4.16-.29-.97-3.47,12.19-3.49,12.22h0Z"/>
  <path class="cls-1" d="M172.72,66.75c1.52-21.97,2.95-54.94-9.95-63.48-28.25,.62-54.59,2.96-81.48,7.94C53.74,16.31,27.31,23.22,1.52,21.7c26.06-.14,52.09-7.52,79.53-12.92C107.53,3.59,135.34,.37,164.56,0c15.83,14.36,12.6,47.8,12.19,66.89-1.31-.11-2.72-.03-4.03-.14h0Z"/>
  <polygon class="cls-1" points="124.68 21.05 124.6 13.13 155.53 9.79 155.69 29.89 130.41 29.97 154.73 28.86 154.33 10.52 140.35 11.99 139.78 21.78 139.21 12.15 125.25 13.62 124.68 21.05 124.68 21.05"/>
  <polygon class="cls-1" points="22.68 23.74 113.75 15.25 113.75 46.82 61.48 47.26 112.82 45.84 112.83 16.72 22.68 23.74 22.68 23.74"/>
  <path class="cls-1" d="M.37,50.98l-.37,10.26c1.89,.47,39.37,3.37,43.85,3.96,2.83,.76,3.37,7.61,3.56,10.12,13,1.51,26.08,3.3,39.07,4.94,12.89,1.63,25.79,3.26,38.68,4.9,.29,.04,.58,.07,.87,.11l.26-.83c.23-.74,.39-1.52,.52-2.29,.14-.87,.26-1.75,.37-2.62,.42-3.28,.92-7.23,2.95-9.94,1.89-2.53,4.68-3.35,7.74-3.35h.07c3.39,.08,6.78,.22,10.17,.41,2.98,.17,5.95,.39,8.93,.61,.38,.03,.76,.06,1.14,.09,2.89,.22,5.77,.43,8.66,.61,3.36,.21,5.98,.37,9.35,.48l.52,.02c.02-.69,.04-1.39,.07-2.08l-.52-.02c-3.33-.11-5.93-.27-9.26-.48-2.89-.18-5.78-.4-8.66-.61-.36-.03-.72-.05-1.09-.08-2.99-.22-5.98-.44-8.97-.61-3.45-.2-6.89-.34-10.34-.42h-.07c-3.81,0-7.27,1.08-9.56,4.28-1.32,1.85-2.03,4.08-2.49,6.28-.31,1.5-.51,3.03-.71,4.55-.16,1.21-.3,2.51-.58,3.71-.66-6.75,2.04-19.89,9.82-20.08,8.8-.21,26.96,1.4,36.7,2.24l.61-10.51-1.94,4.65L.37,50.98H.37Z"/>
  <path class="cls-1" d="M40.69,67.58c1.68,0,3.06,2.27,3.08,5.08,.02,2.81-1.33,5.08-3.02,5.08-.68,0-1.31-.37-1.83-1,.41,.38,.88,.59,1.37,.59,1.55,0,2.79-2.09,2.77-4.67-.02-2.58-1.29-4.67-2.84-4.67-.5,0-.96,.22-1.37,.59,.5-.63,1.13-1,1.81-1h0Z"/>
  <path class="cls-1" d="M41.31,76.13c-.08,.01-.16,.02-.24,.02-1.13,0-2.06-1.53-2.07-3.41-.01-1.87,.88-3.38,1.99-3.41-.8,.52-1.36,1.81-1.35,3.33,.01,1.69,.72,3.1,1.67,3.47h0Z"/>
  <path class="cls-1" d="M28.16,62.97c.76,.15,3.47,.07,4.57,.24-1.36,.24-2.58,.49-4.04,.53-1.93,.05-1.9,4.53-2,7.14-5.58-.57-20.98-3.18-26.56-3.75,.08-3.64,.16-6.07,.24-9.71l27.78,5.55h0Z"/>
</svg>