<?xml version="1.0" encoding="utf-8"?>
<!-- Generator: Adobe Illustrator 27.4.0, SVG Export Plug-In . SVG Version: 6.00 Build 0)  -->
<svg version="1.1" id="Layer_1" xmlns="http://www.w3.org/2000/svg" xmlns:xlink="http://www.w3.org/1999/xlink" x="0px" y="0px"
	 viewBox="0 0 144 144" style="enable-background:new 0 0 144 144;" xml:space="preserve">
<path d="M58.5,106.9V70.8c0-6.8,5.5-12.3,12.3-12.3h36.3V8.1c0-3.9-3.2-7.1-7.1-7.1H8.3c-3.9,0-7.1,3.2-7.1,7.1v91.7
	c0,3.9,3.2,7.1,7.1,7.1H58.5z"/>
<path d="M134.3,62.8H70.8c-4.4,0-7.9,3.6-7.9,7.9v63.5c0,4.4,3.6,7.9,7.9,7.9h63.5c4.4,0,7.9-3.6,7.9-7.9V70.8
	C142.2,66.4,138.7,62.8,134.3,62.8z"/>
</svg>
