<?xml version="1.0" encoding="utf-8"?>
<!-- Generator: Adobe Illustrator 27.4.0, SVG Export Plug-In . SVG Version: 6.00 Build 0)  -->
<svg version="1.1" id="Layer_1" xmlns="http://www.w3.org/2000/svg" xmlns:xlink="http://www.w3.org/1999/xlink" x="0px" y="0px"
	 viewBox="0 0 144 144" style="enable-background:new 0 0 144 144;" xml:space="preserve">
<path d="M99.2,107.3l-4.6-6.6c-0.7-0.9-1.5-1.8-2.4-2.5c-1-0.6-2.1-0.9-3.2-0.8c0,0-0.1,0-0.1,0c-2,0-3.6-1.6-3.6-3.6
	c0-2.6,0.4-5.6,3.6-5.6h18.6V8.5c0-3.9-3.2-7.1-7.1-7.1H8.6c-3.9,0-7.1,3.2-7.1,7.1v91.8c0,3.9,3.2,7.1,7.1,7.1h36.9l0.1-30.8
	c-2.5,0-8.9-0.2-11.1,0.6c-1.1,0.5-2.1,1.3-2.8,2.4c-1.1,1.8-1.7,3.8-1.8,6c-0.1,1.9-1.7,3.5-3.6,3.5c-2.6,0-5.8-0.4-5.6-3.8
	l0.8-16.9c0.1-1.9,1.7-3.4,3.6-3.4h58.8c1.9,0,3.5,1.5,3.6,3.4l0.8,16.9c0,0.1,0,0.1,0,0.2c0,2-1.6,3.6-3.6,3.6
	c-2.6,0-5.3-0.2-5.6-3.3c-0.1-1.8-0.6-3.5-1.3-5.1c-0.6-1.2-1.6-2.2-2.8-2.9c-1.7-0.8-3.5-1.1-5.4-1.1l-6.7,0v30.8H99.2z"/>
<g>
	<path d="M83.9,68.4l0.8,16.9h-2c-0.4-3-0.9-5.1-1.6-6.4c-1.1-2.1-2.6-3.6-4.4-4.5c-1.8-1-4.2-1.5-7.2-1.5H59.3v55
		c0,4.4,0.5,7.2,1.4,8.3c1.3,1.5,3.4,2.2,6.2,2.2h2.5v2H38.9v-2h2.5c3,0,5.2-0.9,6.5-2.8c0.8-1.1,1.2-3.7,1.2-7.8v-55h-8.7
		c-3.4,0-5.8,0.2-7.2,0.7c-1.8,0.7-3.4,2-4.7,3.9s-2.1,4.5-2.3,7.8h-2l0.8-16.9H83.9z"/>
	<path d="M88.8,91.8h22.9v2c-1.5,0-2.5,0.2-3.1,0.7c-0.6,0.5-0.9,1.2-0.9,2c0,0.8,0.6,2.2,1.9,3.9c0.4,0.6,1,1.5,1.8,2.7l3.5,5.5
		l4-5.5c2.5-3.5,3.8-5.7,3.8-6.6c0-0.7-0.3-1.4-0.9-1.9c-0.6-0.5-1.6-0.8-2.9-0.8v-2h16.5v2c-1.7,0.1-3.2,0.6-4.5,1.4
		c-1.7,1.2-4.1,3.8-7.1,7.9l-6.6,8.9l12.1,17.4c3,4.3,5.1,6.9,6.4,7.7c1.3,0.9,2.9,1.4,4.9,1.5v1.9h-22.9v-1.9
		c1.6,0,2.8-0.4,3.7-1.1c0.7-0.5,1-1.2,1-2c0-0.8-1.1-2.9-3.4-6.2l-7.1-10.4l-7.8,10.4c-2.4,3.2-3.6,5.1-3.6,5.7
		c0,0.8,0.4,1.6,1.2,2.3c0.8,0.7,2,1.1,3.6,1.1v1.9H89.2v-1.9c1.3-0.2,2.4-0.6,3.3-1.3c1.3-1,3.6-3.6,6.8-7.9l10.2-13.5l-9.2-13.4
		c-2.6-3.8-4.6-6.2-6.1-7.2c-1.4-1-3.2-1.5-5.4-1.5V91.8z"/>
</g>
</svg>
