<svg xmlns="http://www.w3.org/2000/svg" viewBox="0 0 460 366.22"><defs><style>.cls-1{fill-rule:evenodd;}</style></defs><g id="Layer_2" data-name="Layer 2"><g id="Layer_1-2" data-name="Layer 1"><path class="cls-1" d="M67.13,353l9.39-1.45,19-2.63a1,1,0,0,0,.75-.78,7.76,7.76,0,0,0-.22-3.07q-1.06-6.93-2.09-13.86-1.4-6.06-3-12.07a5.29,5.29,0,0,1,3.89-5.92q14-6.12,28.19-11.9a4.89,4.89,0,0,1,6.29,5.29c0,.71,0,1.41.06,2.11a1,1,0,0,0,.3.67,1.3,1.3,0,0,0,.57.2q29.28.19,58.56,0,69.36-.18,138.72.14l.88,0,.4-.14a1,1,0,0,0,.39-.68v-.44q0-1.33,0-2.67a5.29,5.29,0,0,1,5.47-4.72q5.65,2,11.17,4.43,10.56,4.47,21,9.21a5.4,5.4,0,0,1,1.74,6.3,119.2,119.2,0,0,0-2.92,12.53q-1,6.9-1.95,13.82a1.62,1.62,0,0,0,.09.95,1.73,1.73,0,0,0,1.34.73l42.89,6.21.89.05a1,1,0,0,0,.82-.74,44.38,44.38,0,0,0,1.12-7.6c.44-3,.93-6,1.49-8.95a97.71,97.71,0,0,1,12.46-27.76,73.32,73.32,0,0,1,11.41-14.77l10.61-8.83a1.8,1.8,0,0,0,.41-.54,1.12,1.12,0,0,0-.16-1q-14.25-17.28-28.57-34.51a1,1,0,0,0-.7-.31,1.28,1.28,0,0,0-.51.21q-7.5,5.92-14.55,12.37l-8.59,9.24a6.26,6.26,0,0,1-6.71-.14l-25.49-11a5.11,5.11,0,0,1-1-8.47,58.7,58.7,0,0,0,13.14-19.21A42.31,42.31,0,0,0,377,214.88a66.63,66.63,0,0,0-2.63-15.67,5.59,5.59,0,0,1,3.8-7q5.49-2.56,11.17-4.67a5.69,5.69,0,0,1,5.95,2.69,98.5,98.5,0,0,0,18,17.46c1.34,1.14,2.72,2.24,4.12,3.3a1.3,1.3,0,0,0,.57.2.57.57,0,0,0,.18,0,.65.65,0,0,0,.22-.11,9.46,9.46,0,0,0,1.4-1.56l27.42-33.11a.84.84,0,0,0,0-1.17q-6.71-5.51-13.11-11.34a117.13,117.13,0,0,1-18-29.59A56.11,56.11,0,0,1,411.25,116l-1.33-8.46a1.74,1.74,0,0,0-.66-1.14.88.88,0,0,0-.5-.12,8.48,8.48,0,0,0-1.14.2q-8.25,1.22-16.53,2.29-7.8,1.2-15.64,2.1a5.3,5.3,0,0,1-5.58-5.16,109.55,109.55,0,0,0-31.59-54,149.23,149.23,0,0,0-68.92-36.94,172.74,172.74,0,0,0-55-4,159.81,159.81,0,0,0-77.11,27.18A121.82,121.82,0,0,0,97.19,83.31a117.54,117.54,0,0,0-8.45,23.27,5.35,5.35,0,0,1-6.86,4.06q-15.3-2.17-30.6-4.26a1.11,1.11,0,0,0-1.16.74,24.68,24.68,0,0,0-.63,4.84A59,59,0,0,0,48.27,120,84.77,84.77,0,0,1,38,146.4a92.64,92.64,0,0,1-12.49,17.92Q19.42,169.78,13.14,175a2.33,2.33,0,0,0-.43.51.73.73,0,0,0,.07.74l28.47,34.45a1.76,1.76,0,0,0,.8.49,1,1,0,0,0,.74-.22q8.13-6.44,15.71-13.54,3.81-4.35,7.73-8.59a9.06,9.06,0,0,1,2.68-1.09h.89l.44.18q6.36,2.4,12.47,5.34a1.69,1.69,0,0,1,.75.62,6.9,6.9,0,0,1,1,5.34A84.15,84.15,0,0,0,81.76,214a47.19,47.19,0,0,0,12.69,34.88c1.62,1.73,3.19,3.52,4.69,5.36a5.24,5.24,0,0,1,0,4.38,5.17,5.17,0,0,1-3.34,2.82q-13,5.61-26,11.08a5.48,5.48,0,0,1-6.1-2.6,99.82,99.82,0,0,0-15.37-14.83q-2.76-2.31-5.61-4.54a.87.87,0,0,0-.73-.2,2.12,2.12,0,0,0-.81.58l-26.53,32c-.61.72-1.19,1.45-1.74,2.21a1.27,1.27,0,0,0-.2.91,1,1,0,0,0,.29.46q6.39,5.21,12.55,10.67a116.44,116.44,0,0,1,17.71,28.27,82.49,82.49,0,0,1,4.42,13q1.05,7.39,2.2,14.77c.1.43.19.87.28,1.31a1.19,1.19,0,0,0,1.3.78l13-2a22.1,22.1,0,0,0,2.69-.28ZM62.2,363.93c3.14-.47,6.27-.95,9.4-1.46l26.85-3.8,4.92-.68a5.31,5.31,0,0,0,3.94-4.83q-1.71-13.47-4-26.86c-.35-1.34-.68-2.68-1-4a1.46,1.46,0,0,1,1.12-1.64q7.49-3.25,15-6.35a.75.75,0,0,1,.73.19l.11.22a3.85,3.85,0,0,1,.2.94,5,5,0,0,0,5.82,4.1q37.8,0,75.62-.11,39.15-.24,78.32.13,28,.06,55.95-.11a4.7,4.7,0,0,0,4.08-3.59,4.32,4.32,0,0,1,.56-1.14,1.2,1.2,0,0,1,1.22-.33q8.25,3.29,16.31,7a.71.71,0,0,1,.42.55,2.05,2.05,0,0,1-.1.65,132.47,132.47,0,0,0-3.23,17.44q-.7,5.82-1.56,11.61a5.09,5.09,0,0,0,4.67,6.33q14.78,2,29.53,4.19,13.19,1.95,26.4,3.75a4.91,4.91,0,0,0,5.63-4.45q1.51-10.51,3.13-21A92.6,92.6,0,0,1,433,316.46a61.72,61.72,0,0,1,10.94-14.16q7.41-6.07,14.65-12.33a5.45,5.45,0,0,0-.43-7.6L422.31,239.2a8.26,8.26,0,0,0-1.18-1,2.13,2.13,0,0,0-.92-.27,5.78,5.78,0,0,0-5.81,1.6q-9,7.5-17.92,15.13-3.24,3.17-6.25,6.54a1,1,0,0,1-1.2.28q-6.84-2.83-13.59-5.88a9.3,9.3,0,0,1-1.79-.95.55.55,0,0,1-.2-.34.62.62,0,0,1,0-.38c1.17-1.53,2.31-3.08,3.44-4.65a55.55,55.55,0,0,0,10.27-30,27.44,27.44,0,0,0-.29-8,42.22,42.22,0,0,0-1.65-10,.78.78,0,0,1,.32-.93,9.7,9.7,0,0,1,2.71-1.21,1.34,1.34,0,0,1,1.28.41,110.44,110.44,0,0,0,16.66,15.54q4.17,3.75,8.62,7.13a13,13,0,0,0,2.22,1.36,4.93,4.93,0,0,0,5.78-2q18.27-21.79,36.23-43.84a5,5,0,0,0-1.3-7q-8.41-6.84-16.54-14a110.28,110.28,0,0,1-18.44-33.56q-1.41-6.44-2.22-13-.78-5.39-1.61-10.75c-.13-.45-.27-.9-.41-1.34a5.55,5.55,0,0,0-6.41-2.47,49,49,0,0,0-8.08,1.13q-8.28,1-16.55,2.3-3.7.69-7.47,1.07a.88.88,0,0,1-.95-.44c-.9-2.29-1.7-4.63-2.4-7a126.22,126.22,0,0,0-42-57.69A160.64,160.64,0,0,0,267.59,4,165,165,0,0,0,225.09.13a121.77,121.77,0,0,0-17.9,1.17,132.89,132.89,0,0,0-16.58,2.82A162.1,162.1,0,0,0,122,36.69,125.86,125.86,0,0,0,85.45,84.2a112.53,112.53,0,0,0-5.24,15,1.17,1.17,0,0,1-1.19.66q-6-.61-11.9-1.52-10.48-1.59-21-2.85a5.2,5.2,0,0,0-5.39,5.33q-1.53,10.75-3.29,21.46a102.14,102.14,0,0,1-8.89,20.13,88.58,88.58,0,0,1-10.65,15.33Q9.34,164.7,1,171.94a5.1,5.1,0,0,0,.61,6.76q18,21.93,36.16,43.68a5,5,0,0,0,7,.12q9.82-7.81,19.22-16.16,3.3-3.33,6.47-6.8a1.14,1.14,0,0,1,1.24-.12,9.94,9.94,0,0,1,1.25.66l.35.26a1,1,0,0,1,.27.69c-.28,1.5-.61,3-1,4.46a63.2,63.2,0,0,0-.92,11.16,33.39,33.39,0,0,0,.79,9.4,56.72,56.72,0,0,0,13,27.73.8.8,0,0,1,.09.67.86.86,0,0,1-.33.35q-6.94,3.21-14,6.11a1.73,1.73,0,0,1-2.07-.48,122,122,0,0,0-16.28-14.87q-4.39-3.72-8.94-7.27a5.73,5.73,0,0,0-7.21,2.07l-35.49,43a5.16,5.16,0,0,0,1.11,7.49q8.18,6.62,16.07,13.57A87.59,87.59,0,0,1,30,321.79a73.7,73.7,0,0,1,7.73,18.84q1.89,10.94,3.38,21.93A5.51,5.51,0,0,0,47.88,366q7.15-1,14.32-2Z"/><path class="cls-1" d="M79.53,336.44a1.24,1.24,0,0,0,.62-.53.85.85,0,0,0,0-.5q-.8-3.68-1.7-7.32a140.31,140.31,0,0,0-7.36-19.45.62.62,0,0,1,.09-.7,1.54,1.54,0,0,1,.55-.36q31.42-13.59,62.93-27a.83.83,0,0,0,.48-1,7.16,7.16,0,0,0-.88-2.14,45.74,45.74,0,0,0-9.11-12.27,1.18,1.18,0,0,0-.77-.32,1.59,1.59,0,0,0-.6.21q-30.74,13-61.36,26.26a.92.92,0,0,1-1-.25,8.53,8.53,0,0,1-1.43-2A100.55,100.55,0,0,0,44.9,270.92a2,2,0,0,0-.58-.39.72.72,0,0,0-.5,0,4.85,4.85,0,0,0-2,2.07Q37.3,277.91,33,283.36a2.27,2.27,0,0,0-.23.5.52.52,0,0,0,.06.42,3.57,3.57,0,0,0,.85.84,93.11,93.11,0,0,1,15.76,21.05,118.71,118.71,0,0,1,12.08,28.19,22.2,22.2,0,0,0,1,3.95,1,1,0,0,0,1.2.65q6.86-1,13.73-2a9.69,9.69,0,0,0,2.11-.51Z"/><path class="cls-1" d="M402.09,323.62a129.36,129.36,0,0,1,21.81-36.13c1.06-1,2.09-2.05,3.07-3.14a.9.9,0,0,0,.07-.84,41.14,41.14,0,0,0-4-5.07q-3.13-4-6.51-7.83a.74.74,0,0,0-.78-.13,3,3,0,0,0-1,.76,106,106,0,0,0-16.18,20,.85.85,0,0,1-.85.39,10.6,10.6,0,0,1-2.57-.9Q365,277.94,335,265a1.11,1.11,0,0,0-1.2.23,42.33,42.33,0,0,0-10.15,14.26.83.83,0,0,0,0,.72,1.06,1.06,0,0,0,.45.36q32,13.77,64,27.34a1.17,1.17,0,0,1,.43,1.47,107,107,0,0,0-8.7,26.26.86.86,0,0,0,.78,1q7.91,1.25,15.85,2.29a1.11,1.11,0,0,0,1.17-.94,79.51,79.51,0,0,1,4.42-14.31Z"/><path class="cls-1" d="M171.46,269l-.13-68.49a8.41,8.41,0,0,0-5.76-8,6.93,6.93,0,0,0-6.59,2.71,14.3,14.3,0,0,0-1.93,9.35q-.08,35.13.13,70.25a7.66,7.66,0,0,0,7.51,7.23,7.8,7.8,0,0,0,6.62-8.1c.1-1.65.15-3.3.15-4.94Zm21.51-.45q.09-34.68,0-69.37a7.56,7.56,0,0,0-7.24-6.83,8,8,0,0,0-6.66,7.3q-.2,37.59,0,75.18a8,8,0,0,0,7.15,7.31,8,8,0,0,0,6.8-9.56c0-1.34,0-2.69,0-4Zm21.93.9q0-35.13-.13-70.26a7.25,7.25,0,0,0-7.59-6.8,7.55,7.55,0,0,0-6.22,6.79q-.27,18.12-.13,36.26l.07,39.84a7.94,7.94,0,0,0,5.42,6.54,7,7,0,0,0,8.25-5.21,37.28,37.28,0,0,0,.33-7.16Zm21.48-1.79L236.31,201a10.32,10.32,0,0,0-1.63-5.39,6.44,6.44,0,0,0-6.48-3.05,8.49,8.49,0,0,0-5.53,9.33q0,36.48.1,73a8.37,8.37,0,0,0,4.55,6.77,6.52,6.52,0,0,0,8.44-5,32.18,32.18,0,0,0,.62-8.92ZM258,269l-.12-69.82a7.7,7.7,0,0,0-7.25-6.88A8,8,0,0,0,244,199.2q-.36,6-.24,12.1-.06,31.77.14,63.54a8.13,8.13,0,0,0,6.74,7.33A7.78,7.78,0,0,0,258,274V269Zm21.89,0q0-34.68-.13-69.37a7.4,7.4,0,0,0-8.08-7.17,8.49,8.49,0,0,0-6,8.52q-.06,37.14.14,74.3a8.18,8.18,0,0,0,5,6.41,6.93,6.93,0,0,0,8.74-5.53,35.75,35.75,0,0,0,.36-7.16Zm21.81,0,0-68.92a7.89,7.89,0,0,0-7.18-7.78,8.13,8.13,0,0,0-6.94,9.13q-.06,36.91.09,73.83a8.07,8.07,0,0,0,6.86,6.87,7.82,7.82,0,0,0,7.22-7.78c-.07-1.78-.07-3.57,0-5.35ZM143.59,231.84a24.86,24.86,0,0,0,.42-33,19.34,19.34,0,0,0-16.5-6.3,20.51,20.51,0,0,0-15.52,13,24.64,24.64,0,0,0,5.07,26.9,17.91,17.91,0,0,0,19.84,4.11,20.13,20.13,0,0,0,6.69-4.66Zm199-.43a25.25,25.25,0,0,0,6-20.14,22.66,22.66,0,0,0-13-17.57,18.21,18.21,0,0,0-20.35,4.68,24.62,24.62,0,0,0,2,35.34,17.84,17.84,0,0,0,25.33-2.31ZM161.1,295.18q33.35.06,66.69-.11,3.36-.07,6.7.17,38.94-.08,77.87.07a5.46,5.46,0,0,0,1.51.09,1.26,1.26,0,0,0,1-1,51.61,51.61,0,0,1,1-8.4,43.48,43.48,0,0,1,10.92-21.45,168.66,168.66,0,0,1,17.34-15.93,66.18,66.18,0,0,0,13.59-14.56,30.94,30.94,0,0,0,5-18.32,62.27,62.27,0,0,0-4.46-19.26,27.31,27.31,0,0,0-16.79-15.35A45.37,45.37,0,0,0,328,180.11H125.3a25.5,25.5,0,0,0-16.57,5.66,31,31,0,0,0-9.66,14.79,81.23,81.23,0,0,0-2.65,11.63,32.88,32.88,0,0,0,2.42,17.46,46.09,46.09,0,0,0,13.5,16.83q7.36,6.22,14.51,12.67A50.24,50.24,0,0,1,143.05,286a53.58,53.58,0,0,1,.92,8.38,1.25,1.25,0,0,0,.53.89,1.2,1.2,0,0,0,1,.17q4.65-.35,9.32-.3Z"/><path class="cls-1" d="M57.6,176q2.16-3.24,4.33-6.46a1,1,0,0,1,.85-.29,25.6,25.6,0,0,1,4.79,1.8l33,14.14a1.29,1.29,0,0,0,1.14-.33,33.66,33.66,0,0,1,27.17-10.48l192,0q8.5-.12,17,.28a32,32,0,0,1,18.75,9.82,1.72,1.72,0,0,0,1.83.56q19.11-8.1,38.18-16.35a.83.83,0,0,1,1.09.28,101.14,101.14,0,0,0,17.73,21.86.84.84,0,0,0,.73.18,1.47,1.47,0,0,0,.55-.41l10.31-12.41a2.23,2.23,0,0,0,.22-.47.53.53,0,0,0-.1-.42,4.26,4.26,0,0,0-.77-.76,96.83,96.83,0,0,1-15.75-21.17,108,108,0,0,1-12.74-30.87c-.09-.41-.18-.81-.25-1.22a.84.84,0,0,0-.84-.67q-7.32,1-14.64,2l-1.24.06a1,1,0,0,0-.7.24.94.94,0,0,0-.31.67,77.24,77.24,0,0,0,3.46,13.72,101.56,101.56,0,0,0,4.74,11.94.87.87,0,0,1,0,.77,1,1,0,0,1-.4.34l-30.77,13.2a.66.66,0,0,1-.58-.07.68.68,0,0,1-.28-.52,7.73,7.73,0,0,1,.44-2,91.75,91.75,0,0,0,1.55-17.89q.3-13.2-.43-26.4a96.06,96.06,0,0,0-30-57.38,132.73,132.73,0,0,0-60.93-32.37q-5.55-1.44-11.21-2.36a209.66,209.66,0,0,0-29.08-2.18c-2.53.2-5.07.36-7.6.48a146.15,146.15,0,0,0-73,24.47,109,109,0,0,0-35.55,39.8,87.21,87.21,0,0,0-9.52,43q-.39,9.16-.43,18.35a74.49,74.49,0,0,0,1,13.75,1.4,1.4,0,0,1-.06.5.41.41,0,0,1-.4.3,1.15,1.15,0,0,1-.48-.1Q86.2,159,72.16,152.69a1.33,1.33,0,0,1-.58-.66.81.81,0,0,1,0-.49q.28-.58.6-1.14A87.51,87.51,0,0,0,80,125.64a.77.77,0,0,0-.59-.77q-6.57-1.14-13.2-1.94a16.43,16.43,0,0,0-2.71-.32,1.28,1.28,0,0,0-1,.6l-.14.43A111,111,0,0,1,50.4,153.56,104.27,104.27,0,0,1,33,177.29a.72.72,0,0,0,0,.9q5.1,6.36,10.41,12.55a1.14,1.14,0,0,0,.69.32.85.85,0,0,0,.5-.2A94.26,94.26,0,0,0,57.6,176Z"/></g></g></svg>