<svg xmlns="http://www.w3.org/2000/svg" viewBox="0 0 460 199.36"><defs><style>.cls-1{fill-rule:evenodd;}</style></defs><g id="Layer_2"><g id="Layer_1-2"><path class="cls-1" d="M417.57,127.58a40.24,40.24,0,0,0,4-19.43A44.23,44.23,0,0,0,418.41,90a15.44,15.44,0,0,0-22.21-7,18.24,18.24,0,0,0-7.1,10.94,63.87,63.87,0,0,0,.23,28.88,16.93,16.93,0,0,0,8.57,11.26,15.23,15.23,0,0,0,19.67-6.49Zm-51.14,71.77q10.72,0,21.47,0a.72.72,0,0,0,.64-.38,2.82,2.82,0,0,0,.1-1.08l0-45.58.06-.48a.22.22,0,0,1,.22-.17.61.61,0,0,1,.38.15,10.34,10.34,0,0,1,1.22,1.67,33,33,0,0,0,31.11,12.83,36.46,36.46,0,0,0,30.53-20.6,77.61,77.61,0,0,0,7.64-31.49,83.68,83.68,0,0,0-7.93-41.44A41,41,0,0,0,429.4,51.58a44.19,44.19,0,0,0-28.5,1.08A29.43,29.43,0,0,0,389,62.82a12.52,12.52,0,0,1-.78,1,.27.27,0,0,1-.26,0,.35.35,0,0,1-.24-.22,2,2,0,0,1-.1-.9c0-3.1,0-6.21,0-9.31a1,1,0,0,0-.31-.74.89.89,0,0,0-.49-.18q-17.9-.1-35.8,0a1,1,0,0,0-.47.14.52.52,0,0,0-.11.1.85.85,0,0,0-.09.22,6.3,6.3,0,0,0,0,1.68l0,144a.71.71,0,0,0,.41.62,3.1,3.1,0,0,0,1.05.06Z"/><path class="cls-1" d="M65.31,166.79A65.27,65.27,0,0,0,92,159.92a41.12,41.12,0,0,0,20.18-26.31,99.2,99.2,0,0,0,3-28.91l0-51.07a1.22,1.22,0,0,0-.31-.68q-2.12-1.19-4.29-2.23-8.34-4.44-16.29-9.58a1,1,0,0,0-.81-.12,17.84,17.84,0,0,1-6.09,1.8.81.81,0,0,0-.6.46,168.9,168.9,0,0,1-19.2,39,6.18,6.18,0,0,0-.21,2.18q.15,16.39-.23,32.79A19,19,0,0,1,63.12,128a10.8,10.8,0,0,1-9.49,2.81,10.74,10.74,0,0,1-9.86-9.3,86,86,0,0,1-.89-16q0-6.86,0-13.69a.94.94,0,0,0-.29-.73.93.93,0,0,0-.73-.26q-20.59,0-41.2,0a.89.89,0,0,0-.45.15.64.64,0,0,0-.18.41q-.13,12.89.16,25.76a58.12,58.12,0,0,0,8.94,29.32,46,46,0,0,0,27.7,18.3,91.72,91.72,0,0,0,28.47,1.94Z"/><path class="cls-1" d="M174.44,95.34h19.74a.72.72,0,0,0,.64-.38,1.67,1.67,0,0,0,.08-.66,17.58,17.58,0,0,0-18.3-17.37A18,18,0,0,0,159,91.32a27.56,27.56,0,0,0-.73,3.21.68.68,0,0,0,.18.58.69.69,0,0,0,.57.22q7.71.08,15.41,0Zm14.66,70.24a52.34,52.34,0,0,0,30.59-16,48.53,48.53,0,0,0,10-17.4.55.55,0,0,0,0-.4.45.45,0,0,0-.31-.19q-17.49-.08-35,0a1.24,1.24,0,0,0-1,.52,20.72,20.72,0,0,1-27.2,3.71A23.09,23.09,0,0,1,158,120.65a22.47,22.47,0,0,1-.31-2.45.84.84,0,0,1,.11-.47.61.61,0,0,1,.4-.19l73.36,0a.59.59,0,0,0,.58-.57,95.61,95.61,0,0,0-6.45-37.25,46.07,46.07,0,0,0-33.56-28.08,72.29,72.29,0,0,0-30.19-.56,51.68,51.68,0,0,0-37.06,33.8,70.72,70.72,0,0,0,1.51,50.88,51.46,51.46,0,0,0,39.43,29.76,70.78,70.78,0,0,0,23.28.08Z"/><path class="cls-1" d="M288.77,95.35q9.86,0,19.72,0a.61.61,0,0,0,.54-.39,2.3,2.3,0,0,0,0-1,17.49,17.49,0,0,0-18.1-17,17.9,17.9,0,0,0-17.66,14,20.34,20.34,0,0,0-.81,3.76.82.82,0,0,0,.1.46.42.42,0,0,0,.3.18,5,5,0,0,0,.87,0c5,0,10,0,15,0Zm14.66,70.15a51.19,51.19,0,0,0,36-23.69,47.94,47.94,0,0,0,4.31-9.38,1,1,0,0,0,0-.51.52.52,0,0,0-.28-.3,1.92,1.92,0,0,0-.89-.1q-17,0-34,0a1.36,1.36,0,0,0-1.15.6,20.72,20.72,0,0,1-26.91,3.74,23.23,23.23,0,0,1-8.52-15.68,17.21,17.21,0,0,1-.24-2,.61.61,0,0,1,.37-.58,3.16,3.16,0,0,1,1.06-.06l72.6-.09a.48.48,0,0,0,.41-.31,2.75,2.75,0,0,0,.05-.86,95,95,0,0,0-7.06-37.93,46.77,46.77,0,0,0-35-27.16,69.15,69.15,0,0,0-29.76.25,51.42,51.42,0,0,0-34.7,31.27,70.64,70.64,0,0,0,.9,53.48,51.32,51.32,0,0,0,37.25,29,68.82,68.82,0,0,0,25.43.35Z"/><path class="cls-1" d="M74.45,65.43A180.5,180.5,0,0,0,84.84,41a1.22,1.22,0,0,1,1.21-.79A14.11,14.11,0,0,0,93.33,38a1.57,1.57,0,0,1,1.29.07,166.1,166.1,0,0,0,38.91,19.46.51.51,0,0,0,.4,0,.34.34,0,0,0,.15-.34,1.39,1.39,0,0,0-.19-.55Q131,51.2,128.3,45.6a1.36,1.36,0,0,1,.83-1.74,53.08,53.08,0,0,0,13.75-4,5.59,5.59,0,0,0,1-.59.21.21,0,0,0,.07-.14.13.13,0,0,0-.06-.11,1,1,0,0,0-.39-.16q-8.49-2.08-16.94-4.36a1.45,1.45,0,0,1-1.11-1.25,1.48,1.48,0,0,1,.73-1.21A9.34,9.34,0,0,0,128.35,18a11.85,11.85,0,0,1-3.25-9.49A10.17,10.17,0,0,0,121.81.81a10.11,10.11,0,0,0-8.66.35A33.09,33.09,0,0,0,99.53,12.39q-2.77,3.5-5.26,7.2a1.52,1.52,0,0,1-.8.49,1.93,1.93,0,0,1-1-.25,11.07,11.07,0,0,0-16.11,6.23,1.36,1.36,0,0,1-1.65.88A68.44,68.44,0,0,0,55.37,22a24.6,24.6,0,0,0-12.52,2.39,6.18,6.18,0,0,0-3.25,3.74,6.1,6.1,0,0,0,.57,4.92A65.61,65.61,0,0,0,44,39.59a17.62,17.62,0,0,1,.89,6.87A9.25,9.25,0,0,0,55.79,55.3h.85a1.13,1.13,0,0,1,1,1.57,12.65,12.65,0,0,1-2,3q-4.8,5.85-9.46,11.83l-.23.44a.2.2,0,0,0,.13.26.82.82,0,0,0,.44,0,50.65,50.65,0,0,0,13.55-5.14,1.5,1.5,0,0,1,1.27-.19,1.62,1.62,0,0,1,1,1l.09.44L64.6,80.05l.22.69a.2.2,0,0,0,.2.1.52.52,0,0,0,.29-.16,130.6,130.6,0,0,0,9.14-15.25Z"/><path class="cls-1" d="M86.86,15.63a15.47,15.47,0,0,1,5.5,1.12,1.12,1.12,0,0,0,.48.06.44.44,0,0,0,.29-.19c1.19-1.81,2.45-3.57,3.76-5.28a.42.42,0,0,0,0-.22.26.26,0,0,0-.07-.16.48.48,0,0,0-.35-.16q-13.86-.09-27.72,0a4,4,0,0,0-.91.08.66.66,0,0,0-.43.5,4.25,4.25,0,0,0,0,1.07c0,2.82,0,5.65,0,8.47a.82.82,0,0,0,.3.68,3.47,3.47,0,0,0,1,.41q2.52.83,5,1.73a1,1,0,0,0,.48,0,.44.44,0,0,0,.26-.22,13.78,13.78,0,0,1,12.32-7.88Z"/></g></g></svg>