<svg xmlns="http://www.w3.org/2000/svg" viewBox="0 0 460 37.51"><defs><style>.cls-1{fill-rule:evenodd;}</style></defs><g id="Layer_2" data-name="Layer 2"><g id="Layer_1-2" data-name="Layer 1"><path class="cls-1" d="M54.36,31.42h4.18a3.46,3.46,0,0,0,2.24-.78L80.48,15a.57.57,0,0,1,.94.45V31.19a.23.23,0,0,0,.23.23h26.84a.23.23,0,0,0,.23-.23V.23a.23.23,0,0,0-.23-.23c-.21,0-26.39.06-31.26.19a9.57,9.57,0,0,0-6.08,1.92L54.6,15.23a.39.39,0,0,1-.48,0L37.58,2.11A9.59,9.59,0,0,0,31.5.19C26.62.06.44,0,.23,0A.23.23,0,0,0,0,.23v31a.23.23,0,0,0,.23.23H27.07a.23.23,0,0,0,.23-.23V15.46a.58.58,0,0,1,.95-.45L48,30.64a3.44,3.44,0,0,0,2.24.78ZM152.54,0s-22.29.19-23.92.32C123.34.75,123.72.75,120,3c-.14.08-3.34,2.84-4,3.6a7.25,7.25,0,0,0-2.34,4.78c0,.15,0,7.31,0,8.3,0,2,.75,3.18,2.13,4.76A40.61,40.61,0,0,0,119.91,28c2.6,2.22,4,2.94,9,3.09,7.73.22,23.68.32,23.68.32s16-.1,23.68-.32c5-.15,6.34-.87,8.95-3.09a39.44,39.44,0,0,0,4.14-3.55c1.39-1.58,2.14-2.77,2.14-4.76,0-1,0-8.15,0-8.3a7.21,7.21,0,0,0-2.35-4.78c-.69-.76-3.89-3.52-4-3.6C181.36.75,181.74.75,176.45.32,174.82.19,152.54,0,152.54,0Zm0,22.51s-6.55-.05-8.53-.16a3.69,3.69,0,0,1-2.53-.84l-.77-.72a3.22,3.22,0,0,1-1.05-2.42V12.49a3.2,3.2,0,0,1,1-2.38l.8-.78a3.46,3.46,0,0,1,2.58-.94l8.49-.11,8.48.11a3.48,3.48,0,0,1,2.59.94l.8.78a3.2,3.2,0,0,1,1,2.38v5.88a3.19,3.19,0,0,1-1,2.42l-.76.72a3.71,3.71,0,0,1-2.53.84C159.09,22.46,152.54,22.51,152.54,22.51Zm136,1.85a.24.24,0,0,1,.23.23V31.2a.23.23,0,0,0,.23.23H314.7a.23.23,0,0,0,.23-.23V13.77c0-3.87-1.1-5.47-2.53-7.08-.69-.78-4.09-3.57-4.22-3.65C304.46.73,304,.73,298.67.29,294-.1,259.07-.1,254.38.29c-5.28.44-5.79.44-9.51,2.75-.13.08-3.52,2.87-4.21,3.65-1.44,1.61-2.54,3.21-2.54,7.08V31.2a.23.23,0,0,0,.23.23h25.73a.23.23,0,0,0,.23-.23V24.59a.23.23,0,0,1,.23-.23ZM284.38,8.41a3.77,3.77,0,0,1,2.58.95l.81.8a4,4,0,0,1,1,2.71v2.6a.23.23,0,0,1-.23.23h-24a.23.23,0,0,1-.23-.23v-2.6a4,4,0,0,1,1-2.71l.8-.8a3.94,3.94,0,0,1,2.58-.95A132.76,132.76,0,0,1,284.38,8.41Zm175.39,14H423a2.57,2.57,0,0,1-2.14-.84l-.94-1.11a1.86,1.86,0,0,1-.59-1.5.52.52,0,0,1,.52-.55h30.51a.23.23,0,0,0,.23-.23V11.54a.23.23,0,0,0-.23-.23H420.39c-1.57,0-.88-1.06-.76-1.18L420.76,9A2.79,2.79,0,0,1,423,8.06H458.3a.22.22,0,0,0,.23-.22V.49a.19.19,0,0,0-.19-.21H407.59C402.28.28,402.68.73,399,3c-.13.08-3.34,2.85-4,3.61a7.26,7.26,0,0,0-2.35,4.8c0,.16,0,7.35,0,8.34,0,2,.75,3.19,2.14,4.78a40.83,40.83,0,0,0,4.14,3.57c2.6,2.23,4,3.07,8.95,3.09h51.94A.22.22,0,0,0,460,31V22.67C460,22.57,460,22.43,459.77,22.43ZM189,0h44.34a.23.23,0,0,1,.23.23v18a10.63,10.63,0,0,1-3.6,8.2c-1.22,1.08-9.42,7.13-11.56,8.51a9.2,9.2,0,0,1-5.14,1.78l-25.78.84a.23.23,0,0,1-.15-.39s14.91-12.47,15.91-13.4c2.17-2,3.38-4.07,3.38-6.8V8.27a.23.23,0,0,0-.23-.23h-6.93A3.73,3.73,0,0,1,197,7.15L188.86.4A.23.23,0,0,1,189,0ZM362.75,31.43a6.68,6.68,0,0,0,4.87-2c1.1-1.06,26.75-28.65,27.09-29a.24.24,0,0,0-.16-.4H369.21a1,1,0,0,0-.72.32L354.41,15.67a.55.55,0,0,1-.81,0L339.43.32a1,1,0,0,0-.72-.32H313.37a.24.24,0,0,0-.16.4c.34.36,26.16,28,27.26,29a6.68,6.68,0,0,0,4.87,2Z"/></g></g></svg>