<svg xmlns="http://www.w3.org/2000/svg" viewBox="0 0 460 203.64"><defs><style>.cls-1{fill:#231f20;fill-rule:evenodd;}</style></defs><g id="Layer_2" data-name="Layer 2"><g id="Layer_1-2" data-name="Layer 1"><path class="cls-1" d="M234.68,203.52c-33.71.54-90.82-.48-146.8-9.48-117.17-18.83-117.17-165.27,0-184.1C143.86.94,196.29-.44,230,.1c33.71-.54,86.14.84,142.12,9.84,117.17,18.83,117.17,165.27,0,184.1A781.51,781.51,0,0,1,234.68,203.52ZM70.56,95.83c14.69-33.11,33.78-41.23,44-42.45,14.87-1.78,15.56,17.42,3.77,47.76l-.68,1.36,10.27-5.12c21.63-12.86,11.34.22,5.52,11.7-3.69,7.28-4.67,11.88-1.78,13.85,9.59.86,15.74-20.44,19.51-30.39l17.61-4.73c1.85-5,7.17-7.79,12.32-9,2.35-.55,17.13-2.23,15.31,2.55-.71,1.87-1,1.85-3.19,2.12-6,.71-17.67-1.3-15.18,6.43.95,3,5.48,4.64,9.13,4.11l-1.67,5.67c-24.36,4.7-15.94,15.71-6.69,11.34,15-7.07,32.16-39.68,37.49-41.59,3.84-1.37,2.14,3.85,5.31,4.37,3.79.62,14-4.47,8.77,7L224.2,91.37c-6.46,11.17,3.4,4.18,10.46-.47,3.49-23.46,11-41.8,25.81-50.8,9.76-6.18,13.38-3,13.56,5.36-4.5,15.69-13.84,24.55-26.31,30.4A3.42,3.42,0,0,0,245.87,78c-2.41,8-2.14,13.95,3.56,14.11a12,12,0,0,0,6.91-2.77,33.9,33.9,0,0,1,10.33-20.81,21.61,21.61,0,0,1,20-5.59c.6-1.34,1.29-1.86,1.89-3.2l13.14-1.14c-3.53,8.7-17.21,24.87-12.15,26.32,5,1.63,12.67-19.28,20.93-27.26,3.05-2.94,8.19-4.73,11.69-1.46.69.64.71,1.21,1.21,2.14a19.17,19.17,0,0,1,7.28-1.64c3.79-7.19,13.52-2.29,12.14,1.78l-3.67,16.42a21.51,21.51,0,0,0,8.51-.73C349.39,55.4,358.2,46.91,375.23,50l.32.06,5.55-19.91a177.29,177.29,0,0,0-33.73-9.51C274.46,7,186.89,7,114,20.68,52,32.36,31.72,60.74,30.41,100.82c.46,14.29,3.34,27.09,9.66,38.18,0-.43,0-.87.06-1.31C41.13,122.82,51.65,108.91,70.56,95.83ZM391.88,35.22,385.46,52c-2,5.73-5.88,14.72-4.57,21l-.19.11a37.71,37.71,0,0,0,9.93-.35c7.53-1,25.44-6.53,27.45,5.72.63,3.87-2.17,7.59-9.32,9.18a74.36,74.36,0,0,1-10.35,1.83C312.24,98.06,230,110.9,142.29,162.7l-36.15-4.3c35.8-25.74,189.09-67.55,295.73-75.64,6.37-.57,10.15-6.18,0-5.74-7.86.35-28.32,9.06-30.33,1.59l-.45.28c-10.08,5.86-18.39,8-22.44,1.32-3.52,1.46-7.81,4.28-11.59,5.46-5.25,1.64-8,.3-8.8-2.28-1.39-4.32,2.25-13.31,2.41-19.64a13.09,13.09,0,0,0-7,1.59l-6.48,24.51-12.28-.7c1.71-7.77,5.14-14.89,9.54-22.49l-1.85-.34-.11.28C307,72.81,302.43,82.31,296.31,89c-6.74,7.5-12.59,9-16.53,3.5-6.91,7.82-15.32,8.89-21.34,2.14-4.26,4.61-6.82,7.93-13.83,8.22-3.35-.6-6.18-1.74-8.51-4.58-7.78,5.48-15.07,9.75-21.62,12.18-7.24.79-11.4-1.92-5.21-11.84l8.11-12.76c.69-.83,2.09-3,.2-3.22a10.83,10.83,0,0,0-2.58-.18c-.6.07-1.05.26-1.85,1.27-10.6,13.35-25.8,37-46.1,40.58-13.75,2.42-14.82-17.15.76-25.81a2,2,0,0,0,1-2.39c-.08-.27-.15-.53-.22-.79l-13.93,3c-7.53,28.11-20.53,38.28-36.17,40.24-7.93.8-6.34-9.37,2.89-28.8l-9.48,4.29-.08.16c-15.64,29.46-30.88,44.44-45.43,48-1,.24-2,.44-3,.59,12.44,7.93,29,14,50.62,18.11,72.91,13.74,160.48,13.74,233.39,0,62-11.67,82.26-40.06,83.58-80.14C430,72.55,419.67,50.09,391.88,35.22ZM101.4,111.35c-13.8,5.68-19,2.22-17.77-9.79.58-5.72,3.61-11,7.62-15C105.22,72.55,117.48,84.23,101.4,111.35Zm-34.16,2.86c8.26,12.41,18.19,14,29.5,6.73-5.89,8.09-13.13,14.71-22.33,18.72-8.16,3.55-15.06,6.22-15.52-5.51C58.65,128.24,61.83,121.52,67.24,114.21ZM249,69.71c7.08-3.52,16-12.34,19.09-19.77,2.16-5.22,0-6.95-4.37-3C258.2,51.83,249.67,62.51,249,69.71Zm23,17.71c3.84.78,7.58-2.51,10.29-8.12s2.79-11.23-.54-11.44-8.32,3.48-11,9.09S268.21,86.64,272.05,87.42Zm96.27-32c-3.78-.22-7.19,1.22-9.75,7.58-5,11.92,4,12.1,8.38,7.42,1.52-1.63,3.32-6.88,3.87-9.15C371.64,58,370.9,56.09,368.32,55.46ZM235.8,189.38l-.42-10.88q-17.56,0-35.12-.67a92.23,92.23,0,0,0,19.06,8.87l1.51.5-.71,2.12-3.09-.06a94.14,94.14,0,0,1-22.95-11.69q-20.43-.9-40.81-2.67a177.61,177.61,0,0,0,29.38,10.35l1.54.39-.56,2.16c-1.68-.11-3.36-.23-5-.36a172.29,172.29,0,0,1-34.13-13.33q-15.34-1.46-30.64-3.37a185.86,185.86,0,0,0,48.9,13.12l1.58.21-.29,2.1q-9.33-.93-18.64-2.13a168.31,168.31,0,0,1-41.7-14.62q-14.59-2-29.14-4.32L73,164.85l.18-1.13c1.07-.46,2.13-1,3.17-1.54q9.89,1.59,19.78,3a116.86,116.86,0,0,1-11.92-8.24c.84-.67,1.67-1.36,2.49-2.08a118.75,118.75,0,0,0,18,11.5q16.45,2.21,33,3.9c-2.86-1.72-5.66-3.55-8.37-5.48l6.88.82c3,1.93,6.11,3.73,9.27,5.42q22,2.07,44.13,3.18a93.37,93.37,0,0,1-15.59-15.76q-7.69-.37-15.38-.83c1.77-1,3.55-1.92,5.33-2.87,2.53.14,5.07.28,7.6.4-.75-1-1.48-2.13-2.19-3.22.94-.48,1.89-1,2.84-1.44q1.63,2.49,3.42,4.86,4.89.22,9.79.42,24.59,1,49.2,1l-1-25.35q-9.22,0-18.44,0,4.15-1.6,8.36-3.14c3.32,0,6.64,0,10,0l-.13-3.45,3.13-1.06.17,4.5q37.11-.18,74.2-1.73a94.71,94.71,0,0,0,2.8-22.1l3.17-.57a97.74,97.74,0,0,1-2.67,22.53l7.45-.34q24.11-1.14,48.2-2.9A65,65,0,0,0,373,104.91c.06-1.81,0-3.61-.05-5.41q-14-.09-27.9-.16,11.82-1.66,23.68-3l4,0c0-.16,0-.32-.05-.48l3.15-.36.09.86q16.41.12,32.82.27c-.19-1.7-.45-3.4-.79-5.09l1.56-.35c.51-.11,1-.24,1.54-.39.39,1.95.68,3.91.89,5.86l16.36.17h.54c.08,1.06.13,2.12.18,3.18h-.76l-16.07-.17A61,61,0,0,1,410,119.61q7.46-.75,14.88-1.57l1.58-.17.22,2-.3,1.22-1.15.13q-8.12.89-16.25,1.69a70.53,70.53,0,0,1-13.56,23.22Q406,144.65,416.55,143c-.88,1.25-1.81,2.46-2.77,3.64q-10.83,1.68-21.68,3.13a98.91,98.91,0,0,1-18.23,14.61q9.25-1.5,18.48-3.2l1.55-.29.38,2.06c-.95.56-1.91,1.1-2.88,1.63q-12.52,2.3-25.09,4.2a155.4,155.4,0,0,1-32.5,12.67q-8.16,1.34-16.35,2.41L317.1,182l1.56-.3A173.72,173.72,0,0,0,356,170.26q-14.16,2-28.35,3.46a156.82,156.82,0,0,1-31.54,12.56q-2.08.21-4.17.39l-.64-2.36,1.53-.41a163.06,163.06,0,0,0,25.95-9.29q-18.93,1.78-37.93,2.75A95.35,95.35,0,0,1,261,188.74l-4.87.19-.56-1.43,1.48-.58A93.29,93.29,0,0,0,275,177.64q-18.21.8-36.44.86l.41,10.85ZM66.43,138.82q-2.1-2.83-4-5.84a17.36,17.36,0,0,1,.94-4.69,76,76,0,0,0,6.19,9.48A29.5,29.5,0,0,1,66.43,138.82ZM40.77,122.09q-2.81-.3-5.61-.63h-.1c-.28-1.08-.54-2.18-.77-3.28l1.22.14c2.29.26,4.58.52,6.87.76C41.81,120.06,41.27,121.07,40.77,122.09Zm11.88-16.16q-.36-2.76-.48-5.6l-18.17.2-1.58,0,0-2.36c0-.27,0-.54,0-.82H34l18.15-.2v-.27a62.42,62.42,0,0,1,3.71-20.23q-9.6,1.19-19.2,2.5l-1.35.19c.3-1.12.62-2.23,1-3.34Q46.7,74.59,57.15,73.3A76.6,76.6,0,0,1,74,49q-12.21,1.73-24.4,3.7,1.79-2,3.74-3.81Q65.66,46.92,78,45.21a113.87,113.87,0,0,1,22.91-15.43q-10.5,1.7-21,3.69l-1.56.3L78.26,33a135.32,135.32,0,0,1,13.11-4.87q9.88-1.73,19.78-3.16c3.11-1.31,6.27-2.52,9.45-3.64q13.47-2.37,27.05-4.06a200.21,200.21,0,0,0-22.13,5.75q13.32-1.68,26.66-2.88c4.29-1.8,8.66-3.4,13.07-4.83l5.87-.54q5.65-.49,11.33-.89l-1.48.35c-5.79,1.36-11.61,3-17.35,5q15.39-1.17,30.8-1.72a82.17,82.17,0,0,1,9.69-4.77q5.29-.2,10.6-.32l-.69.2a82.7,82.7,0,0,0-12.33,4.66q13.77-.39,27.54-.31l-.18-4.73h3.18l.18,4.76q14.49.12,29,.74a96.49,96.49,0,0,0-10.78-4.61l-1.49-.54,0-.11c3,.08,6.09.18,9.13.3a100.81,100.81,0,0,1,10.36,5.29q16.68.84,33.33,2.28a175.93,175.93,0,0,0-18.24-5.55l-1.54-.39.06-.25q4,.3,8,.64c2.48.22,4.95.45,7.43.7,5.17,1.7,10.3,3.65,15.31,5.86q11.05,1.08,22.11,2.41Q327.87,21.37,320,19.4L318.42,19l.26-1.06q8.11,1.08,16.19,2.41,7.19,2.36,13.71,5.13,12,1.61,23.88,3.47l1.67.58-.45,2.83-1.56-.25c-4.58-.72-9.15-1.41-13.74-2.07a132.65,132.65,0,0,1,16.29,9.76l-.9,3.24a136.26,136.26,0,0,0-26-14.47q-13.15-1.75-26.32-3.17a125.68,125.68,0,0,1,23,15.19q14.56,1.57,29.08,3.58l-.52,1.87a32,32,0,0,0-8.75.1q-7.83-1-15.67-1.9c1.82,1.69,3.58,3.44,5.27,5.27l.67.72a20.8,20.8,0,0,0-2.35,2.13c-.21-.24-.43-.46-.64-.69a102.71,102.71,0,0,0-8.39-8Q318.56,41,294,39.53a97.22,97.22,0,0,1,10.39,15.24l-3.47.3a93.89,93.89,0,0,0-11.31-15.79q-6.56-.37-13.11-.65a9,9,0,0,0-2.18-3.26q6.09.24,12.16.56a93,93,0,0,0-18.72-14.72q-17.58-.87-35.18-1l.54,14.31q14.64,0,29.26.46A33.26,33.26,0,0,0,258.57,37c-.5.3-1,.62-1.46.94q-12-.3-23.92-.32l.94,24.7h4.23c-.44,1-.85,2.11-1.24,3.17h-2.86l.26,6.86a5.72,5.72,0,0,0-1-1.2A5.78,5.78,0,0,0,231.25,70l-.17-4.42q-6.65,0-13.28.09a7.39,7.39,0,0,0-.94,0q-28.56.36-57.09,1.86a96.43,96.43,0,0,0-3.62,20l-3.24.86a99.54,99.54,0,0,1,3.51-20.66q-13.2.72-26.4,1.68.07-1.62,0-3.18,13.66-1,27.34-1.73a89.83,89.83,0,0,1,8.14-18.19q2.11-3.57,4.51-6.84-25,1.41-50,4c-1.46,1.28-2.87,2.6-4.25,4-.85.85-1.69,1.71-2.5,2.58A35.64,35.64,0,0,0,108,51.1q2.63-3.12,5.55-6l1.19-1.16q-17.72,1.89-35.37,4.3c-.27.25-.55.49-.81.74a75.43,75.43,0,0,0-17.79,23.9Q71.1,71.63,81.4,70.53,80,72.22,78.76,74q-9.7,1.05-19.37,2.23a58.88,58.88,0,0,0-4.09,20.7v.2l7.49-.08q-2,1.56-4,3.21l-3.46,0c0,1,.11,1.91.19,2.85C54.55,104.06,53.59,105,52.65,105.93ZM391.31,46.81q7.15,1.11,14.29,2.33l1.56.26-.53,3.13-1.56-.27q-7.45-1.26-14.92-2.42Zm-2,5.26a88,88,0,0,1,12.24,15.27c-1.16.13-2.31.29-3.46.48a85.34,85.34,0,0,0-10-12.48c.28-.74.53-1.43.76-2.06Zm31.51,22.86,2,.28,1.57.22L424,78.57l-1.57-.22-.74-.1c0-.11,0-.23-.05-.34A14,14,0,0,0,420.81,74.93ZM112,28.09A121.57,121.57,0,0,0,83.92,44.42q17.39-2.31,34.83-4.1a118.81,118.81,0,0,1,24.6-16.1Q127.66,25.81,112,28.09ZM153,23.29a125.41,125.41,0,0,0-28.51,16.46q24-2.34,48.16-3.66A79,79,0,0,1,189.06,20.9Q171,21.7,153,23.29Zm42.38-2.63A75.76,75.76,0,0,0,177,35.86q10.5-.53,21-.86,16-.49,31.94-.51l-.55-14.34Q212.34,20.06,195.33,20.66Zm78.8.89A95.94,95.94,0,0,1,291,36.18q23.79,1.37,47.51,3.81a130,130,0,0,0-26.4-15.51Q293.16,22.64,274.13,21.55ZM235.26,175.33l-.58-15.44q-24.75,0-49.46-1l-7.06-.3a89.57,89.57,0,0,0,17,15.83Q215.19,175.32,235.26,175.33Zm-3.41-89.59v-.37l.12-.21Zm-41.6,10.4h.19l-.29.33ZM231,62.36,230,37.66q-16,0-32,.51-11.94.38-23.87,1a79.42,79.42,0,0,0-5.93,8.68,86,86,0,0,0-7.47,16.4Q195.85,62.44,231,62.36Zm5.8,69,1,25.36q30.14-.06,60.25-1.58a86.86,86.86,0,0,0,12-25.47Q273.4,131.19,236.76,131.36Zm1.09,28.53.59,15.44q20.67-.08,41.31-1.09a85.3,85.3,0,0,0,15.84-15.81Q266.75,159.83,237.85,159.89ZM107,153.45q-8.46-.87-16.9-1.84c.93-.93,1.85-1.89,2.75-2.88q9.34,1.07,18.72,2C110.05,151.59,108.52,152.49,107,153.45ZM285.16,174q20.82-1.17,41.57-3.32a107.21,107.21,0,0,0,22.35-16q-22.72,2.15-45.51,3.38l-3.88.21A88.07,88.07,0,0,1,285.16,174Zm49.31-4.17q15.45-1.75,30.85-4.08a104.33,104.33,0,0,0,21.57-15.26q-16.36,2.1-32.79,3.71A104.31,104.31,0,0,1,334.47,169.79ZM363.33,61.6c.82,1.24,1.6,2.49,2.35,3.77A10.73,10.73,0,0,1,364.32,68,5.9,5.9,0,0,1,362,69.53a3.17,3.17,0,0,1-1.21.18,3.2,3.2,0,0,1,0-1.59l3,.27q-1-1.76-2.07-3.48c.07-.2.14-.37.19-.49A17.11,17.11,0,0,1,363.33,61.6Zm-18.71,5.13.5,0c-.23,1-.43,2.09-.59,3.14l-.61,0ZM94,88.91a64.73,64.73,0,0,0-.56,6.73l0,1.13,10.83-.09q-.48,1.59-1.11,3.18l-9.68.08a64.79,64.79,0,0,0,1.13,9.93,17.62,17.62,0,0,1-3.12.54A67.69,67.69,0,0,1,90.26,100l-2.74,0a18.66,18.66,0,0,1,1-3.18h1.69c0-.42,0-.84,0-1.26,0-.73.06-1.46.1-2.19a26.31,26.31,0,0,1,3.44-4.25ZM144,96.38h1.91c-.36,1-.74,2.06-1.16,3.18h-2.14l.21-.41A25.34,25.34,0,0,0,144,96.38Zm265,3.41q-16.44-.15-32.87-.27c.09,1.83.1,3.66,0,5.5a68,68,0,0,1-3,17.81q16.71-1.27,33.39-2.89A57.81,57.81,0,0,0,409,99.79Zm-299,25,1.28.07q-.44,1.46-.78,2.88l-.06.25-2.27-.14Q109.18,126.27,110.06,124.75Zm35.74,1.83q5.89.24,11.8.45c-.15-.5-.31-1-.46-1.51a12.52,12.52,0,0,0,10,2.42c-2.77.92-5.55,1.86-8.31,2.82-.06-.17-.13-.34-.19-.52q-7.71-.26-15.42-.59C144.14,128.67,145,127.64,145.8,126.58Zm-79.13-5.1,1.89.17a27.82,27.82,0,0,0,4.11,3.54L65,124.51C65.52,123.47,66.08,122.46,66.67,121.48Zm338.82,1.75q-16.68,1.62-33.39,2.86a77.88,77.88,0,0,1-14.75,24.56Q374,149,390.57,146.77A69.38,69.38,0,0,0,405.49,123.23Zm-36.87,3.12q-23.43,1.71-46.88,2.8l-8.43.38a90.29,90.29,0,0,1-11.37,25.4l1.45-.08q24.64-1.35,49.24-3.73A76.32,76.32,0,0,0,368.62,126.35Zm-264.45,7.81a87.87,87.87,0,0,0,10.73,14l.51.55c-1,.5-1.93,1-2.9,1.55A92.29,92.29,0,0,1,102.22,137C102.88,136.06,103.54,135.11,104.17,134.16Z"/></g></g></svg>