<svg xmlns="http://www.w3.org/2000/svg" viewBox="0 0 460 212.1"><defs><style>.cls-1{fill-rule:evenodd;}</style></defs><g id="Layer_2" data-name="Layer 2"><g id="Layer_1-2" data-name="Layer 1"><path class="cls-1" d="M335.12,187.9l6.77-16.3c26.34-2,51.16-3.89,76-5.52C390,172.06,362.36,179.25,335.12,187.9ZM433.94,76.3c-5.06,11-12.41,19.68-24.83,23.32,1.17,3.85-.17,6.86-3,10,12.62,6.24,27.45,7.24,32.1-11.28C440.43,89.48,438.28,82.48,433.94,76.3ZM50.24,40.35c.89-5.05,10.35-14.92,15.23-14.75s6.86,3.52,5.41,6.77S56.16,41.18,50.24,40.35Zm152.57,19.2c1.22-15.4,8.33-27,18.87-34.76,7-5.15,11.92.57,9.93,7.61C227.07,48.45,217.42,52.93,202.81,59.55ZM267,63.19c1.21-15.4,8.33-27,18.87-34.76,7-5.15,11.92.57,9.93,7.61C291.29,52.09,281.64,56.57,267,63.19ZM25.85,41.1c55.22-69.88,99.74-6.79,12.59,11.26C22.78,85.8,40.29,99,45.58,99.71c6.26.84,27.65-6.73,21.69-37.4C78.57,61.58,87,57.05,97.44,51c-28.84,58.5,37.49,54.83,23.86-8,4.64-.44,8.17-1.54,11.93-4.64,8.5,11.77,19.33,20.93,30.82,24.86-14.94,16.92-15.63,50.3,16.24,42.42C164.2,72.36,193.14.06,231.33,0c20.3,0,28.88,48.17-35.46,76.23-1.89,28.35,26.32,44.31,48,27.17C237.11,85.81,247,7.29,298.27,7.29c19.38,0,23,49.1-35.13,70.92-2.28,26.05,21.3,36.44,34.8,29.83-1-13.67,2.66-30.3,12.26-44.85h23.86c-7,9.32-13.15,22.33-13.91,34.91-1.18,19.37,27.05,10.21,29.49,2l13.59-36.9h20.21l-15.57,41.54c4.64,2.7,12.26,3.47,16.9,0-4-12,9.72-20,18.89-14.59,26.06-18.22,21.43-43.4,38.21-49.71-.77,9.45-1.64,17.51,2.89,22.54,29.24,36.05-6.55,93.9-53.35,50.37-10.39,3.09-18.13,2.43-28.51-.66l-15.25,44.19H460c-54,17.39-106.89,35.18-153.77,55.23l14.91-38.77c-96.85,6.34-146.87,19-158.08,36.79L0,156.87H328.1L341,120c-20.51,11.28-33.82,7.14-41.09-3.64-25.85,15.78-42.64,9.93-52.37-4.31-27.6,21.38-48.06,19.34-62.64,1.66-15,15.22-36.4,17.8-48,5-7-7.74-.38-39.42,15.58-49.71-6.9-3.16-13-5.7-17.23-13.26,5.28,31.05-7.61,74.24-43.75,73.9-9.51-.08-17.79-5.64-22.87-14.91C58,125.93,40.43,132.15,26.85,128.59-2.3,121,6.5,69.3,24.19,47.06L11.27,46.4Q16,39.2,25.85,41.1Z"/><path class="cls-1" d="M165.41,57.56c-4.64-5.85-6.23-25.64-1.33-30.79s10.45-4.05,12.58.67S172,51.93,165.41,57.56Z"/></g></g></svg>