<svg xmlns="http://www.w3.org/2000/svg" viewBox="0 0 460 38.22"><defs><style>.cls-1{fill-rule:evenodd;}</style></defs><g id="Layer_2" data-name="Layer 2"><g id="Layer_1-2" data-name="Layer 1"><path d="M457.93,38.21a9.16,9.16,0,0,0,1.57-.05.87.87,0,0,0,.43-.21.21.21,0,0,0,.07-.14.24.24,0,0,0-.05-.14Q454.9,32.9,450,27.93a.8.8,0,0,1-.23-.48A.64.64,0,0,1,450,27a57.71,57.71,0,0,0,4.66-3.88,6.17,6.17,0,0,0,.73-3.26,29.21,29.21,0,0,0-.33-7.35,16.82,16.82,0,0,0-3.64-4.42,10.37,10.37,0,0,0-8.66-3.59q-19.69-.64-39.41-.31a1,1,0,0,0-.71.31,1.09,1.09,0,0,0-.22.78q0,15.19,0,30.39a2.46,2.46,0,0,0,.15.51.73.73,0,0,0,.42.29,3.49,3.49,0,0,0,1.16.09q7.29,0,14.58,0a1.26,1.26,0,0,0,.82-.32,1,1,0,0,0,.23-.5l.09-23.85a.77.77,0,0,1,.65-.66,118.41,118.41,0,0,1,14.83.34,5.08,5.08,0,0,1,3.32,6,4.57,4.57,0,0,1-5.14,3.77l-6.42.06a10,10,0,0,0-1.82.08l-.23.08a.31.31,0,0,0-.17.32,1.15,1.15,0,0,0,.27.48q7.6,7.68,15.33,15.26a2.23,2.23,0,0,0,1.32.53q8,.06,16.08.06Z"/><path d="M36.88,34.12l8.95-15.56.47-.67a.36.36,0,0,1,.3-.08A.71.71,0,0,1,47,18c.61.9,1.17,1.83,1.69,2.78q4.65,8.2,9.45,16.3a1.56,1.56,0,0,0,1.29.5q6.12.06,12.25-.05a1.34,1.34,0,0,0,.81-.5Q82.8,19.17,92.93,1.19a1.29,1.29,0,0,0,.17-.6.52.52,0,0,0-.43-.51A3.7,3.7,0,0,0,91.52,0H76A1.41,1.41,0,0,0,74.9.65q-5.76,9.91-11.43,19.86a.92.92,0,0,1-.31.31.35.35,0,0,1-.33,0,1.37,1.37,0,0,1-.58-.61q-4.38-7.72-8.82-15.39A1.54,1.54,0,0,0,52,4.17q-5.25,0-10.51,0l-.92.07a1.53,1.53,0,0,0-.72.48q-4.61,8-9.18,15.94a.41.41,0,0,1-.5.17,1.07,1.07,0,0,1-.43-.36L18.27.61A1.43,1.43,0,0,0,17.09.08Q8.88,0,.67,0A.92.92,0,0,0,.16.19.44.44,0,0,0,0,.56a1.45,1.45,0,0,0,.2.55Q10.34,19,20.56,36.84a1.73,1.73,0,0,0,1.13.72h.46q6,.09,11.94,0a1.6,1.6,0,0,0,1.15-.73c.57-.9,1.11-1.81,1.64-2.73Z"/><path d="M104.84,36.34a.9.9,0,0,0,.24-.51l.1-23.68a1,1,0,0,1,.94-1q7.2-.15,14.41.3a5.18,5.18,0,0,1,3.07,2.41,5.46,5.46,0,0,1,.34,2.3,4.48,4.48,0,0,1-5.26,5.15c-2.66,0-5.33.07-8,.09a.56.56,0,0,0-.39.17.39.39,0,0,0,0,.4,2.29,2.29,0,0,0,.65.83q6.59,6.62,13.24,13.14a2.43,2.43,0,0,0,1.43.54q8.6.09,17.19.05a.72.72,0,0,0,.38-.1.32.32,0,0,0,.12-.3.75.75,0,0,0-.19-.4q-3.82-3.93-7.72-7.75a1,1,0,0,1-.29-.56.58.58,0,0,1,0-.19,1.62,1.62,0,0,1,.1-.18,2.09,2.09,0,0,1,.56-.47A20.53,20.53,0,0,0,140,23a13.79,13.79,0,0,0,.81-4.93,24.8,24.8,0,0,0-.44-5.51,9.75,9.75,0,0,0-2.5-3.13,12.69,12.69,0,0,0-6.82-4.58q-17.77-1-35.59-.59a1.32,1.32,0,0,0-.83.57q-3.48,5.85-6.71,11.85a25.31,25.31,0,0,0-.24,5.07q0,7.07.06,14.12a.77.77,0,0,0,.42.63,2.65,2.65,0,0,0,1.12.11q7.31,0,14.61,0l.73-.06.2-.15Z"/><path class="cls-1" d="M176,24.89a.54.54,0,0,0-.06-.43q-3.72-5.37-7.48-10.72a1.06,1.06,0,0,0-.37-.33.39.39,0,0,0-.4.05,3.08,3.08,0,0,0-.79.93q-3.26,4.92-6.55,9.82a1.16,1.16,0,0,0-.18.57.47.47,0,0,0,.19.38l.22.07a17.63,17.63,0,0,0,2.72.07c3.94.05,7.89.05,11.83,0l.58-.08a.44.44,0,0,0,.29-.33Zm-11.32,7.62q8.22,0,16.43.08a1.75,1.75,0,0,1,1.11.75,21.39,21.39,0,0,0,2.19,2.57,2.47,2.47,0,0,0,1.41.51q7.53.12,15.08.06a1.2,1.2,0,0,0,.59-.15.5.5,0,0,0,.23-.64,5.19,5.19,0,0,0-.67-1.07Q190.45,19.71,179.68,4.94a1.68,1.68,0,0,0-1.29-.41q-10.56-.06-21.12,0a1.84,1.84,0,0,0-1.15.63q-8,11.06-15.84,22.22a.91.91,0,0,0-.11.7,2.47,2.47,0,0,0,.7.9c2.4,2.44,4.84,4.82,7.35,7.15a3.33,3.33,0,0,0,2.14.38,2.09,2.09,0,0,0,1.67-.45c.82-1.1,1.69-2.16,2.59-3.19a1.86,1.86,0,0,1,.85-.37h.46q4.35-.07,8.72,0Z"/><path class="cls-1" d="M216.7,30.44q0-8.13,0-16.26a.46.46,0,0,1,.19-.34l.16,0a.78.78,0,0,1,.42.29Q226,25,234.68,35.84a1.79,1.79,0,0,0,1.23.7q9.36.06,18.72,0a.92.92,0,0,0,.7-.36,2.24,2.24,0,0,0,.16-.8q0-15.06-.05-30.11a.84.84,0,0,0-.8-.79q-7.39-.12-14.78,0a.9.9,0,0,0-.77.84q0,10.44,0,20.87a1.13,1.13,0,0,1-.12.51.3.3,0,0,1-.3.17.8.8,0,0,1-.43-.26q-8.49-10.71-17.06-21.37a5.89,5.89,0,0,0-4.09-.82l-16,.06a.82.82,0,0,0-.77.8q-.1,11,.05,22a1.93,1.93,0,0,0,.24.94q2.66,3.93,5.49,7.71a2.06,2.06,0,0,0,1.32.67l.46,0c2.7.06,5.39.06,8.09,0a.84.84,0,0,0,.71-.77q.08-2.66,0-5.31Z"/><path class="cls-1" d="M305.32,36.47c.73,0,1.47,0,2.21-.06a.78.78,0,0,0,.61-.36,1.83,1.83,0,0,0,.11-.61q0-7.24,0-14.49a.63.63,0,0,0-.4-.54,2.58,2.58,0,0,0-1.14-.14c-4.55,0-9.1,0-13.65,0a1.17,1.17,0,0,0-.78.3,1,1,0,0,0-.27.79c0,2.52,0,5.05,0,7.57a1.1,1.1,0,0,1-.27.71.78.78,0,0,1-.43.2q-6.3.14-12.61-.2a5.55,5.55,0,0,1-4.17-3.33,8.87,8.87,0,0,1-.82-5.07,20.23,20.23,0,0,1,.42-6,6.3,6.3,0,0,1,6-4.06q13.5-.09,27-.11a1.33,1.33,0,0,0,.52-.13.65.65,0,0,0,.33-.55q.06-2.36,0-4.71a2.61,2.61,0,0,0-.1-.92l-.09-.21a.62.62,0,0,0-.37-.24,12.5,12.5,0,0,0-2-.11q-18.85-.2-37.7.32a7.5,7.5,0,0,0-5.06,2.24c-1,.8-1.88,1.62-2.78,2.48a2.06,2.06,0,0,0-.56,1.43q-.11,9.9,0,19.79a1.93,1.93,0,0,0,.59,1.09,17.48,17.48,0,0,0,5.52,4.16,62.08,62.08,0,0,0,12.41.68q13.78.13,27.58.09Z"/><path class="cls-1" d="M329.68,36.57H353.3a.7.7,0,0,0,.37-.11.33.33,0,0,0,.12-.29.84.84,0,0,0-.2-.44c-1.8-1.93-3.63-3.82-5.51-5.67a2.32,2.32,0,0,0-1.39-.51q-8.2-.09-16.42-.1a.91.91,0,0,1-.64-.29,1.12,1.12,0,0,1-.21-.68L329.4,5a.76.76,0,0,0-.74-.7q-7.86-.08-15.71,0a.87.87,0,0,0-.72.94q0,15.21,0,30.44a1,1,0,0,0,1,.88Z"/><path class="cls-1" d="M385.31,36.47q6.15,0,12.32-.06a.79.79,0,0,0,.62-.33,1.28,1.28,0,0,0,.18-.71c0-1.71,0-3.41,0-5.11a.61.61,0,0,0-.53-.59q-4.68-.09-9.36-.06-8,.12-16.09-.25a5.06,5.06,0,0,1-2.68-2.59A17.28,17.28,0,0,1,368.68,25a1,1,0,0,1-.06-.83.79.79,0,0,1,.6-.46q3-.12,6-.08,8.9,0,17.79-.05a.73.73,0,0,0,.6-.37,2.11,2.11,0,0,0,.17-1.14q0-2.21,0-4.41a.76.76,0,0,0-.72-.75q-11.83-.07-23.67-.09a.93.93,0,0,1-.7-.42,1,1,0,0,1,0-.84,9.11,9.11,0,0,1,3.36-4.1,27.38,27.38,0,0,1,6.88-.42q9.51.06,19-.09a.61.61,0,0,0,.52-.6c0-1.8,0-3.61,0-5.41a.91.91,0,0,0-.84-.76Q380.4,4,363.24,4.5a8.53,8.53,0,0,0-6.95,2.91,15.14,15.14,0,0,0-5.29,7.4,38,38,0,0,0,.36,12.41,23,23,0,0,0,8.21,8.34,31.62,31.62,0,0,0,7.81.83q9,.09,17.93.08Z"/></g></g></svg>