<svg xmlns="http://www.w3.org/2000/svg" viewBox="0 0 460 35.95"><defs><style>.cls-1{fill:#231f20;fill-rule:evenodd;}</style></defs><g id="Layer_2" data-name="Layer 2"><g id="Layer_1-2" data-name="Layer 1"><path class="cls-1" d="M357.69,4.23v27A4.06,4.06,0,0,0,361,34.62h42.46v-7H366.89V22.28h36.57v-7.5H366.89V9.39h36.57v-8H361A3.05,3.05,0,0,0,357.69,4.23ZM310,1.37h9.23l.06,24.46H355v8.79H313.64c-2.22,0-3.63-1.7-3.63-4.1Zm-4.3,0-.06,8.77H268.4c-7.83,0-9,16.14.51,16.14h26.81v-4H272.44V14.19h30.62c1.82,0,2.78,1,2.78,2.28V30.89a3.54,3.54,0,0,1-3.42,3.73H268.34c-10.14,0-16-8.57-16-16.55,0-8.24,6.23-16.7,15.56-16.7ZM416.46,9.94v4.2h30.35c2.33,0,2.64-4.2,0-4.2ZM406.2,1.37l-.06,33.25h10.32V22.73h14.27l14.82,11.89h13.24c1.37,0,1.51-1,.75-1.6L447.12,22.49c16.17-.42,13.35-21.12.25-21.12ZM200.84,34.62h9V13.48l29.84,19.19c2.23,1.43,8.7,6.81,8.7-.62V1.37h-9.28V21.76L207.82,1.85c-3.48-2.22-7.32-3.34-7.26,2.49ZM160.67,20.86h17.52L169.43,9.47ZM139.3,34.62h11.08L154.26,29h30.3L189,34.62h10.56L176.33,4.12C174.27,1.4,171.75.05,169.24,0c-2.66,0-5.3,1.35-7.34,4.12ZM93.61,9.94v4.2H124c2.32,0,2.63-4.2,0-4.2ZM83.35,1.37l-.06,33.25H93.61V22.73h14.26l14.82,11.89h13.25c1.37,0,1.51-1,.75-1.6L124.26,22.49c16.17-.42,13.36-21.12.25-21.12ZM0,1.37l20.65,32a5.91,5.91,0,0,0,5,2.62,5.24,5.24,0,0,0,4.88-2.62L40.56,15.1c.4-.73.9-.71,1.37,0L54.16,33.33A6.27,6.27,0,0,0,59.32,36a5.06,5.06,0,0,0,4.56-2.62l17.93-32H70.6L58.33,23.48,44.41,2.8C43.22,1,41.77,0,40.39,0S37.7,1.14,36.78,2.8L25.41,23.31,10.13,1.37Z"/></g></g></svg>