<?xml version="1.0" encoding="utf-8"?>
<!-- Generator: Adobe Illustrator 27.9.1, SVG Export Plug-In . SVG Version: 6.00 Build 0)  -->
<svg class="v" version="1.1" xmlns="http://www.w3.org/2000/svg" xmlns:xlink="http://www.w3.org/1999/xlink" x="0px" y="0px"
	 viewBox="0 0 2289.7 2403.5" style="enable-background:new 0 0 2289.7 2403.5;" xml:space="preserve">
     $gradientDefs

<style type="text/css">
	.maincolor{fill:#BCBDBE;}
</style>
<g>
	<path class="maincolor" d="M0.5,15.6l309.4,57.4c-0.4-18.9-0.4-19.5-0.4-19.5L0,0C0,0,0.1,5.3,0.5,15.6z"/>
	<path class="maincolor" d="M312.3,193.1L5.6,136.2c0.4,8.4,0.9,17.2,1.4,26.3l305.8,56.7C312.4,198.9,312,180.8,312.3,193.1z"/>
	<path class="maincolor" d="M315.1,332.6L13.8,276.8c0.7,10.8,1.4,21.8,2.2,33.2l299.8,55.6C315.3,346.4,315,327.9,315.1,332.6z"/>
	<path class="maincolor" d="M317.9,472.2L23.5,417.7c1,13.1,2,26.4,3,40l292.1,54.1C318.3,496.6,318,480.6,317.9,472.2z"/>
	<path class="maincolor" d="M320.6,611.8l-286-53c1.3,15.3,2.6,31,4,46.9l282.9,52.4C321.4,649.4,321.2,638.5,320.6,611.8z"/>
	<path class="maincolor" d="M323.4,751.4L47.1,700.2c1.6,17.6,3.3,35.5,5,53.8l272.3,50.5c0-2.1,0-4.3-0.1-6.4
		C324.4,798,324.3,795.1,323.4,751.4z"/>
	<path class="maincolor" d="M316.9,889.3L60.7,841.8c2,19.9,4,40.1,6.2,60.6l234.3,43.4C307.9,927,313.2,908.4,316.9,889.3z"/>
	<path class="maincolor" d="M268.3,1019.3L75.4,983.6c2.4,22.2,4.9,44.7,7.4,67.6l155.9,28.9L268.3,1019.3z"/>
	<path class="maincolor" d="M207.3,1147.1l-116.1-21.5c2.8,24.5,5.7,49.3,8.7,74.5l94.4,17.5C194.5,1193.1,198.8,1170.1,207.3,1147.1z"/>
	<path class="maincolor" d="M199.3,1284.7l-91.2-16.9c3.3,26.8,6.6,53.9,10.1,81.4l88.5,16.4C203.6,1332.5,201.1,1305,199.3,1284.7z"/>
	<path class="maincolor" d="M212.2,1426.1l-86.3-16c3.8,29.1,7.6,58.6,11.6,88.4l82.9,15.4C217.5,1482.6,214.7,1453.2,212.2,1426.1z"/>
	<path class="maincolor" d="M225.5,1567.7l-80.7-15c4.3,31.4,8.6,63.2,13.2,95.4l76.7,14.2C231.5,1629.6,228.4,1598,225.5,1567.7z"/>
	<path class="maincolor" d="M239.3,1709.3l-74.6-13.8c4.8,33.7,9.7,67.8,14.8,102.4l69.9,13C245.9,1776.3,242.5,1742.4,239.3,1709.3z"/>
	<path class="maincolor" d="M253.5,1851l-67.9-12.6c5.4,36,10.9,72.5,16.6,109.4l62.6,11.6C260.8,1923.1,257.1,1886.8,253.5,1851z"/>
	<path class="maincolor" d="M268.2,1992.8l-60.9-11.3c6,38.4,12.1,77.2,18.4,116.4l54.9,10.2C276.4,2070,272.3,2031.4,268.2,1992.8z"/>
	<path class="maincolor" d="M283.6,2134.7l-53.5-9.9c6.6,40.7,13.4,81.8,20.3,123.5l47.2,8.8C292.9,2217.4,288.3,2176.4,283.6,2134.7z"/>
	<path class="maincolor" d="M300,2276.8l-46.2-8.6c3.1,18.6,6.3,37.3,9.5,56c3.6,21.2,6.9,39.4,19.3,57l13,18.4
		c6.6,9.4,19.7,0.3,18.2-11.1C309.2,2353.1,304.6,2315.7,300,2276.8z"/>
</g>
<g>
	<path class="maincolor" d="M2289.2,15.6l-309.4,57.4c0.4-18.9,0.4-19.5,0.4-19.5L2289.7,0C2289.7,0,2289.5,5.3,2289.2,15.6z"/>
	<path class="maincolor" d="M1977.4,193.1l306.6-56.8c-0.4,8.4-0.9,17.2-1.4,26.3l-305.8,56.7C1977.3,198.9,1977.6,180.8,1977.4,193.1z"/>
	<path class="maincolor" d="M1974.6,332.6l301.3-55.8c-0.7,10.8-1.4,21.8-2.2,33.2l-299.8,55.6C1974.3,346.4,1974.7,327.9,1974.6,332.6z"
		/>
	<path class="maincolor" d="M1971.8,472.2l294.3-54.6c-1,13.1-2,26.4-3,40L1971,511.8C1971.3,496.6,1971.6,480.6,1971.8,472.2z"/>
	<path class="maincolor" d="M1969,611.8l286-53c-1.3,15.3-2.6,31-4,46.9l-282.9,52.4C1968.3,649.4,1968.5,638.5,1969,611.8z"/>
	<path class="maincolor" d="M1966.2,751.4l276.4-51.2c-1.6,17.6-3.3,35.5-5,53.8l-272.3,50.5c0-2.1,0-4.3,0.1-6.4
		C1965.3,798,1965.3,795.1,1966.2,751.4z"/>
	<path class="maincolor" d="M1972.7,889.3l256.3-47.5c-2,19.9-4,40.1-6.2,60.6l-234.3,43.4C1981.8,927,1976.5,908.4,1972.7,889.3z"/>
	<path class="maincolor" d="M2021.3,1019.3l192.9-35.8c-2.4,22.2-4.9,44.7-7.4,67.6l-155.9,28.9L2021.3,1019.3z"/>
	<path class="maincolor" d="M2082.3,1147.1l116.1-21.5c-2.8,24.5-5.7,49.3-8.7,74.5l-94.4,17.5C2095.1,1193.1,2090.9,1170.1,2082.3,1147.1
		z"/>
	<path class="maincolor" d="M2090.4,1284.7l91.2-16.9c-3.3,26.8-6.6,53.9-10.1,81.4l-88.5,16.4C2086.1,1332.5,2088.5,1305,2090.4,1284.7z"
		/>
	<path class="maincolor" d="M2077.4,1426.1l86.3-16c-3.8,29.1-7.6,58.6-11.6,88.4l-82.9,15.4C2072.2,1482.6,2074.9,1453.2,2077.4,1426.1z"
		/>
	<path class="maincolor" d="M2064.1,1567.7l80.7-15c-4.3,31.4-8.6,63.2-13.2,95.4l-76.7,14.2C2058.2,1629.6,2061.2,1598,2064.1,1567.7z"/>
	<path class="maincolor" d="M2050.4,1709.3l74.6-13.8c-4.8,33.7-9.7,67.8-14.8,102.4l-69.9,13C2043.7,1776.3,2047.1,1742.4,2050.4,1709.3z
		"/>
	<path class="maincolor" d="M2036.2,1851l67.9-12.6c-5.4,36-10.9,72.5-16.6,109.4l-62.6,11.6C2028.8,1923.1,2032.6,1886.8,2036.2,1851z"/>
	<path class="maincolor" d="M2021.5,1992.8l60.9-11.3c-6,38.4-12.1,77.2-18.4,116.4l-54.9,10.2C2013.2,2070,2017.4,2031.4,2021.5,1992.8z"
		/>
	<path class="maincolor" d="M2006.1,2134.7l53.5-9.9c-6.6,40.7-13.4,81.8-20.3,123.5l-47.2,8.8C1996.7,2217.4,2001.4,2176.4,2006.1,2134.7
		z"/>
	<path class="maincolor" d="M1989.7,2276.8l46.2-8.6c-3.1,18.6-6.3,37.3-9.5,56c-3.6,21.2-6.9,39.4-19.3,57l-13,18.4
		c-6.6,9.4-19.7,0.3-18.2-11.1C1980.4,2353.1,1985,2315.7,1989.7,2276.8z"/>
</g>
</svg>
