<?xml version="1.0" encoding="utf-8"?>
<!-- Generator: Adobe Illustrator 27.9.1, SVG Export Plug-In . SVG Version: 6.00 Build 0)  -->
<svg class="v" version="1.1" xmlns="http://www.w3.org/2000/svg" xmlns:xlink="http://www.w3.org/1999/xlink" x="0px" y="0px"
	 viewBox="0 0 2289.7 2403.5" style="enable-background:new 0 0 2289.7 2403.5;" xml:space="preserve">
     $gradientDefs

	<path class="maincolor" d="M295.6,2399.6l-13-18.4c-12.4-17.6-15.7-35.8-19.3-57C21.3,909,0,0,0,0l309.5,53.5L324.4,798
	c1.5,73.7-12.4,131.8-44.7,198.1l-63,129.2c-18.8,38.7-25.5,76.1-21,118.9c0,0,63,717.4,118.1,1144.3
	C315.3,2399.9,302.2,2409,295.6,2399.6z"/>
<path class="accentcolor" d="M179.9,1541.4C125.6,1081,74.2,636.3,48.9,202.1c-3-51.6-5.5-103.1-7.6-154.7l229.2,39.6l33.3,690
	c0,0.5,0.4,0.9,0.9,1c0.6,0.1,1.2-0.5,1.2-1.1L291.8,68.7L18.7,21.5c2.1,60.6,5,121.2,8.6,181.8c13.2,224.9,33.3,463.3,56.8,691.3
	c19.1,184.8,40.7,369.3,64.9,553.4c38.3,291.9,82.3,583,132,873.1c1.5,9,3.3,18,5.6,26.8c1.4,5.1,6.6,3.2,6.2-0.2
	C283.6,2275.3,215.3,1842.8,179.9,1541.4z"/>
<path class="maincolor" d="M1994.1,2399.6l13-18.4c12.4-17.6,15.7-35.8,19.3-57C2268.4,909,2289.7,0,2289.7,0l-309.5,53.5L1965.3,798
	c-1.5,73.7,12.4,131.8,44.7,198.1l63,129.2c18.8,38.7,25.5,76.1,21,118.9c0,0-63,717.4-118.1,1144.3
	C1974.4,2399.9,1987.4,2409,1994.1,2399.6z"/>
<path class="accentcolor" d="M2109.8,1541.4c54.2-460.4,105.7-905.1,131-1339.3c3-51.6,5.5-103.1,7.6-154.7l-229.2,39.6l-33.3,690
	c0,0.5-0.4,0.9-0.9,1c-0.6,0.1-1.2-0.5-1.2-1.1l14.2-708.1l273.1-47.2c-2.1,60.6-5,121.2-8.6,181.8
	c-13.2,224.9-33.3,463.3-56.8,691.3c-19.1,184.8-40.7,369.3-64.9,553.4c-38.3,291.9-82.3,583-132,873.1c-1.5,9-3.3,18-5.6,26.8
	c-1.4,5.1-6.6,3.2-6.2-0.2C2006,2275.3,2074.3,1842.8,2109.8,1541.4z"/>
</svg>
