<?xml version="1.0" encoding="utf-8"?>
<!-- Generator: Adobe Illustrator 27.9.1, SVG Export Plug-In . SVG Version: 6.00 Build 0)  -->
<svg class="v" version="1.1" xmlns="http://www.w3.org/2000/svg" xmlns:xlink="http://www.w3.org/1999/xlink" x="0px" y="0px"
	 viewBox="0 0 2289.7 2403.5" style="enable-background:new 0 0 2289.7 2403.5;" xml:space="preserve">
     $gradientDefs

	<g>
	<path class="accentcolor" d="M1994.1,2399.6c-6.6,9.4-19.7,0.3-18.2-11.1C2031,1961.6,2094,1244.2,2094,1244.2c4.4-42.8-2.2-80.2-21-118.9
		l-63-129.2c-32.3-66.3-46.2-124.3-44.7-198.1l14.9-744.5L2289.7,0c0,0-21.3,909-263.3,2324.3c-3.6,21.2-6.9,39.4-19.3,57
		L1994.1,2399.6z M2008.9,2298.5c112.9-663.4,210.2-1418.8,249.9-2095.4c3.5-59.1,6.3-118.2,8.4-177.3l-265.8,45.9l-14.5,726.9
		c-1,33.9,2.4,67.8,10.2,100.9c7.5,30.1,18.4,59.2,32.2,86.9l63,129.3c20.3,40.4,28.4,85.8,23.2,130.7
		c-20.2,226.6-41.9,453-65.2,679.3c-7.6,73.3-15.5,146.6-23.7,219.9C2021,2196.5,2015.1,2247.5,2008.9,2298.5z"/>
	<path class="maincolor" d="M2096.9,1621.4L2096.9,1621.4c-1-0.2-1.7-1.1-1.6-2.1c12-123.8,23.5-247.6,34.5-371.5
		c5.5-47.6-3.1-95.7-24.6-138.5l-63-129.3c-13.4-26.7-23.8-54.9-31.1-83.9c-7.5-31.8-10.8-64.4-9.8-97l14.3-715.2L2252.1,43
		c-2.1,53.1-4.6,106.2-7.7,159.3c-26.6,457.3-80.5,952.7-145.1,1417.5C2099.1,1621,2098,1621.7,2096.9,1621.4z"/>
</g>
<g>
	<path class="accentcolor" d="M295.6,2399.6c6.6,9.4,19.7,0.3,18.2-11.1c-55.1-426.9-118.1-1144.3-118.1-1144.3c-4.4-42.8,2.2-80.2,21-118.9
		l63-129.2c32.3-66.3,46.2-124.3,44.7-198.1L309.5,53.5L0,0c0,0,21.3,909,263.3,2324.3c3.6,21.2,6.9,39.4,19.3,57L295.6,2399.6z
		 M280.8,2298.5C167.9,1635.1,70.6,879.7,30.9,203.1C27.4,144,24.6,84.9,22.5,25.8l265.8,45.9l14.5,726.9
		c1,33.9-2.4,67.8-10.2,100.9c-7.5,30.1-18.4,59.2-32.2,86.9l-63,129.3c-20.3,40.4-28.4,85.8-23.2,130.7
		c20.2,226.6,41.9,453,65.2,679.3c7.6,73.3,15.5,146.6,23.7,219.9C268.7,2196.5,274.6,2247.5,280.8,2298.5z"/>
	<path class="maincolor" d="M192.8,1621.4L192.8,1621.4c1-0.2,1.7-1.1,1.6-2.1c-12-123.8-23.5-247.6-34.5-371.5
		c-5.5-47.6,3.1-95.7,24.6-138.5l63-129.3c13.4-26.7,23.8-54.9,31.1-83.9c7.5-31.8,10.8-64.4,9.8-97L274.1,83.9L37.5,43
		c2.1,53.1,4.6,106.2,7.7,159.3c26.6,457.3,80.5,952.7,145.1,1417.5C190.6,1621,191.7,1621.7,192.8,1621.4z"/>
</g>
</svg>
