<?xml version="1.0" encoding="utf-8"?>
<!-- Generator: Adobe Illustrator 27.9.1, SVG Export Plug-In . SVG Version: 6.00 Build 0)  -->
<svg version="1.1" id="Graphics" xmlns="http://www.w3.org/2000/svg" xmlns:xlink="http://www.w3.org/1999/xlink" x="0px" y="0px"
	 viewBox="0 0 2289.7 2403.5" style="enable-background:new 0 0 2289.7 2403.5;" xml:space="preserve">
     $gradientDefs

	<path class="maincolor" d="M192.8,1621.4L192.8,1621.4c1-0.2,1.7-1.1,1.6-2.1c-12-123.8-23.5-247.6-34.5-371.5
	c-5.5-47.6,3.1-95.7,24.6-138.5l63-129.3c13.4-26.7,23.8-54.9,31.1-83.9c7.5-31.8,10.8-64.4,9.8-97L274.1,83.9L37.5,43
	c2.1,53.1,4.6,106.2,7.7,159.3c26.6,457.3,80.5,952.7,145.1,1417.5C190.6,1621,191.7,1621.7,192.8,1621.4z"/>
<g>
	<path class="accentcolor2" d="M191,1586.1c-0.1-0.9-0.2-1.8-0.3-2.7c-2.1-1.6-4.1-3.2-6.1-4.8c0.1,0.8,0.2,1.6,0.3,2.4
		C187,1582.8,189,1584.5,191,1586.1z"/>
	<path class="accentcolor2" d="M204.7,1065.4l2.6-5.4c-2.3-5.1-4.5-10.5-6.3-16c-8.7-25.6-12.4-54.4-12.4-82.8c0-14.2,0.9-28.4,2.7-42.3
		c0.8-6.7,2-13.6,4.8-19.2c2.8-5.6,7.2-8.7,11.8-10.5c5.2-2,10.5-2.9,15.8-4.1c5.9-1.4,11.7-2.7,17.6-4.1
		c11.7-2.7,23.5-5.2,35.3-7.3c2.1-0.4,4.2-0.8,6.3-1.1c0.7-3.8,1.3-7.6,1.8-11.4c-21.1,3-42.1,7.7-63,12.5
		c-5.9,1.4-11.8,2.7-17.7,4.2c-4.7,1.2-9.7,2.6-13.7,6.4c-8.4,8-9.3,25-10.4,38.1c-2.5,28.6-1.5,58.1,4.1,85.9
		C188.1,1029.3,195.2,1048.6,204.7,1065.4z"/>
	<path class="accentcolor2" d="M216.2,1041.9l4.9-10.1c-1-4.9-1.9-9.8-2.6-14.7c-2-14.2-2.6-28.8-1.4-43.1c1.1-13.7,3.6-27.7,8.7-39.5
		c9.4-22,27.9-32.4,44.4-39.2c2.9-1.2,5.8-2.2,8.7-3.1c1-4.2,1.9-8.5,2.7-12.7c-0.7,0.1-1.5,0.3-2.2,0.4c-8.5,1.8-16.8,4.6-24.9,8.4
		c-8.6,4.1-17.2,9.1-24.8,16.4c-8.1,7.8-14.1,18.3-17.8,31.2c-3.8,13.3-5.3,28.1-5.4,42.4C206.2,1000,209.6,1022.1,216.2,1041.9z"/>
	<path class="accentcolor2" d="M240.3,992.4l6.9-14.1c8.5-16.9,15.7-34.4,21.8-52.2c-11.2,9.2-20.4,23.1-24.9,41
		C242,975.2,240.8,983.7,240.3,992.4z"/>
	<path class="accentcolor2" d="M215.3,649.5C215.3,649.5,215.3,649.5,215.3,649.5C215.3,649.5,215.3,649.5,215.3,649.5z"/>
	<path class="accentcolor2" d="M168.5,1346c-0.5-5.2-1-10.5-1.4-15.7c0-0.1-0.1-0.2-0.1-0.3c-11.6-28.9-18.3-61.9-17.3-95.4
		c0.2-7.7,0.4-16.7,3.9-23c1.2-2.2,2.8-3.9,4.6-4.7c0.1-2.5,0.3-4.9,0.4-7.4c-4.8-3-10.4-4.7-14.5,1.3c-4,5.8-4.3,15.1-4.6,22.7
		c-0.1,1.5-0.1,3-0.1,4.6c2.5,21.1,5.1,42.1,7.7,63.2c0.6,2.4,1.3,4.8,2,7.2C154.1,1315.5,160.7,1331.4,168.5,1346z"/>
	<path class="accentcolor2" d="M275.1,148.5l-0.2-8.2c-4.2-6.7-8.7-13.3-13.3-19.5c-13.4-18.3-28.4-34.2-44.1-48.2l-3.2-0.6
		c6.4,5.4,11.9,10.6,18.1,17.1c7,7.4,13.6,15.4,19.9,23.9C260.5,124.1,268,136,275.1,148.5z"/>
	<path class="accentcolor2" d="M274.3,110l-0.1-4c-8.1-9.8-16.6-19.1-25.2-28l-2.8-0.5c0.8,0.9,1.6,1.7,2.4,2.6c2.7,2.8,5.2,5.6,7.8,8.5
		c5.3,6,10.5,12.1,15.6,18.5C272.8,108,273.6,109,274.3,110z"/>
	<path class="accentcolor2" d="M285.1,647.8l-0.1-6c-15.6-5.9-31-12.4-46.4-19.5c-22.9-10.6-45.7-21.8-68.2-33.8c-2.5-1.3-5-2.7-7.4-4.3
		c-1-0.7-2-1.4-3-2.1c0,0-0.1,0-0.1-0.1c-3.4-4.4-6.3-9.4-8.2-15.5c-3.6-11.7-2-25.2,4.7-33.8c5.9-7.5,14.2-10.7,22-10.1
		c4.4,0.4,8.6,2.1,12.7,4.7c0.8,0.5,1.7,1.1,2.2,1.6c0.2,0.2,0.4,0.3,0.6,0.5c0,0,0.1,0.1,0.1,0.1c0,0,0,0,0,0h0c0,0,0,0,0,0
		c0.1,0.1,0.2,0.2,0.3,0.3c0,0,0,0,0,0c0,0,0,0,0,0c0,0,0,0,0,0c0.1,0.1,0.2,0.2,0.3,0.3c0,0,0,0,0,0c0,0,0,0,0,0
		c0.2,0.2,0.5,0.5,0.6,0.6c0,0,0,0,0,0.1c0,0,0,0,0,0c0,0,0,0,0,0c0.1,0.2,0.3,0.3,0.3,0.3c0.2,0.2,0.5,0.5,0.7,0.8
		c1,1.1,1.8,1.9,2.8,3.1c8.1,9.3,15.8,19.4,24.1,28.3c8.9,9.5,18.2,18.2,27.7,26.3c10.8,9.2,22,17.5,33.4,25.3l-0.1-3.3
		c-9.2-6-18.2-12.3-27.1-19.2c-1.9-1.4-4.1-3.3-6.2-5c-2.5-2-3.4-2.8-5.7-4.8c-1.1-0.9-2.1-1.9-3.2-2.8c-0.1-0.1-0.2-0.1-0.2-0.2
		c0,0,0,0,0,0c0,0,0,0,0,0c0,0,0,0,0,0c-0.2-0.2-0.4-0.3-0.6-0.5c-0.6-0.5-1.1-1-1.7-1.6c-0.6-0.5-1.1-1.1-1.7-1.6
		c-0.1-0.1-0.4-0.3-0.6-0.5c0,0,0,0,0,0c0,0,0,0-0.1-0.1c0,0,0,0,0,0c0,0,0,0,0,0c0,0,0,0,0,0c0,0,0,0,0,0c0,0-0.1-0.1-0.1-0.1
		c0,0,0,0,0,0c0,0,0,0,0,0c-1-1-2-2-3-3c-0.3-0.3-0.6-0.6-0.9-0.9c0,0-0.2-0.2-0.3-0.3c0,0,0,0,0,0h0c0,0,0,0,0,0h0c0,0,0,0,0,0
		c0,0,0,0,0,0c0,0,0,0,0,0h0c0,0,0,0,0,0c-0.2-0.3-0.8-0.8-0.9-1c-1.1-1.1-2.2-2.3-3.2-3.4c-1.8-1.9-3.7-4.1-5.6-6.3
		c-4.1-4.8-8.1-9.9-12.2-14.8c-9.3-11.3-19.6-22.4-31.1-28.6c-8.1-4.4-16.8-5-24.9-0.6c-7.4,4-13.7,12.3-14.9,23.8
		c-1.6,15.4,5.5,28.8,13.6,37.6c5.7,6.2,11.9,11.5,18.4,15.7c5.2,3.3,10.6,5.9,15.9,8.7c11.9,6.1,23.8,12.1,35.7,18
		C243.7,629.9,264.3,639.5,285.1,647.8z"/>
	<path class="accentcolor2" d="M240.1,612.2c3.1,2.5,6.6,5.4,10.1,5.2c2.7-0.2,5.9-2.7,6.1-7c0.2-4.8-2.9-8.8-5.2-11.6
		c-3.8-4.7-8.1-8.7-12.6-12.1c-5.8-4.4-12.1-6.8-18.4-9.3c-3.1-1.2-6.1-2.4-9.1-4.1c-1.3-0.7-2.6-1.6-3.8-2.5
		c-0.8-0.6-1.3-1.1-2.2-2c-0.1-0.1-0.3-0.2-0.4-0.3c-0.2-0.2-0.4-0.4-0.6-0.6c-0.6-0.6-1.2-1.2-1.8-1.8c-1.7-1.7-3.5-3.4-5.2-5.1
		c-3.5-3.3-7-6.5-10.7-9.2c-3-2.2-6.1-4.2-9.4-5.3c-2.6-0.9-6.9-2.4-8.9,1.1c-2,3.4-1.9,9.2-1.5,13.4c0.5,4.7,2,9.3,3.9,13.2
		c2.3,4.6,5.3,8.3,8.4,11.6c4.1,4.3,8.5,8.2,13,11.4C206.7,607.4,223.6,612.1,240.1,612.2z M183.9,588.5
		C184,588.5,184,588.6,183.9,588.5c0.3,0.4,0.9,0.7,0.4,0.5c-0.3-0.1-2.2-1.8-0.9-0.9C183.6,588.3,183.8,588.4,183.9,588.5z
		 M183.9,588.5c-0.6-0.8-1.2-1.6-1.7-2.4c-4-6.2-6.5-14.9-5.5-23.4c0.5-4.4,2-7.9,5.4-7.7c2.6,0.1,5.3,1.1,7.7,2.4
		c1.1,0.6,2.2,1.3,3.3,2.1c0.1,0.1,0.4,0.3,0.7,0.6c-0.1,0,0.4,0.3,0.5,0.4c0.1,0.1,0.1,0.1,0.2,0.2c0,0,0,0,0.1,0.1
		c0.5,0.5,1.1,1,1.6,1.5c-1.1-1,0.7,0.7,1,0.9c1.2,1.2,2.4,2.4,3.7,3.6c5.7,5.6,11.6,11.2,18.1,15c5.1,3,10.4,4.9,15.7,7
		c2.8,1.1,5.7,2.4,8.4,4c0.1,0.1,0.3,0.2,0.4,0.3c0.4,0.6,0.9,1.3,1.2,2c2.1,4,1.9,8.9-1.3,11.5c-0.8,0.6-1.6,1-2.4,1.2
		c-1.2-1.2-2.5-2.3-3.7-3.4c-0.7-0.5-1.8-1.8-2.5-1.7c-13.8,0.6-27.6-2.2-40.8-8.3c-3-1.4-6-3-8.9-4.9
		C184.7,589.1,184.3,588.8,183.9,588.5z M194,560.2C194,560.2,194,560.2,194,560.2C194,560.2,194,560.2,194,560.2z M194,560.2
		c-0.1,0-0.1-0.1-0.2-0.1C193.8,560,193.8,560.1,194,560.2z M194,560.2C194,560.2,194,560.2,194,560.2
		C194,560.2,194,560.2,194,560.2z M194,560.2C194.1,560.2,194.1,560.3,194,560.2C194.1,560.3,194,560.2,194,560.2z M194.5,560.6
		C194.3,560.5,194.4,560.5,194.5,560.6C194.6,560.7,194.8,560.9,194.5,560.6z M243.4,593.1c-0.1-0.1-0.1-0.2-0.2-0.3
		c-0.3-0.4-1.3-1.4-0.5-0.7c0.5,0.4,1.6,1.2,2,1.8c0,0,0,0,0,0C244.2,593.7,243.8,593.4,243.4,593.1z M244.7,593.9
		C245.2,594.2,244.8,594,244.7,593.9C244.7,593.9,244.7,593.9,244.7,593.9z M241,607.7c0.1,0.1,0.1,0.1,0.2,0.2
		c0.9,0.9,2.1,2,2.9,3.2c0.2,0.3,0.8,1,0.3,1c-1.4,0.1-2.8,0.1-4.3,0.1c-0.4-0.3-0.7-0.6-1.1-0.9c-2.3-1.9-5-4-6.8-6.8
		c-1.6-2.4,2,0.4,2.3,0.7C236.5,606.9,238.8,608.1,241,607.7z M204.7,568.4c0.1,0.1,0.2,0.2,0.3,0.3
		C204.5,568.2,204.5,568.3,204.7,568.4z"/>
	<path class="accentcolor2" d="M282.8,534.9l0-2.4c-1.2-1-2.5-2-3.7-3c-3-2.4-4.7-3.9-7.7-6.5c-0.7-0.6-1.3-1.2-2-1.8c0,0-0.2-0.2-0.4-0.3
		c0,0,0,0,0,0c0,0,0,0,0,0c0,0,0,0,0,0c0,0,0,0,0,0c0,0,0,0,0,0c0,0,0,0,0,0c0,0,0,0-0.1-0.1c0,0,0,0,0,0c0,0-0.1-0.1-0.1-0.1
		c0,0,0,0,0,0c0,0,0,0,0,0c-0.2-0.2-0.3-0.3-0.4-0.4c-1.4-1.3-2.8-2.6-4.2-3.9c0,0-0.1-0.1-0.1-0.1c0,0,0,0,0,0c0,0-0.1-0.1-0.1-0.1
		c0,0,0,0-0.1-0.1c-0.1-0.1-0.1-0.1-0.2-0.2c0,0,0,0,0,0c-0.2-0.2-0.4-0.4-0.6-0.6c-0.7-0.6-1.3-1.3-1.9-1.9
		c-0.6-0.6-1.3-1.3-1.9-1.9c-0.4-0.5-0.8-0.8-1.7-1.7c-2.5-2.6-4.8-5.1-7.2-7.9c-5-5.7-9.9-11.8-14.5-18.2
		c-9.2-12.8-17-26.9-24.4-41.9c-3.5-7-7-13.9-11.2-20.1c-5.2-7.8-11.6-14.2-18.3-19.3c-6-4.6-12.3-6.3-19.1-5.6
		c-7.2,0.8-14.3,3.7-21.6,3.9c-2.9,0.1-5.9-0.3-8.8-1.3c-0.2-0.1-0.5-0.2-0.8-0.4c-0.2-0.5-0.5-0.9-0.7-1.4
		c-3.7-8.1-4.2-18.5-4.4-27.9c-0.4-18.1,1.8-36.3,6.4-53.2c-2.4,9.4-0.4,20.7,3.5,28.7c3.1,6.4,7.8,11.2,12.3,15.4
		c4.8,4.6,9.9,8.5,15.4,11.3c9.7,5,20.1,6.6,29.9,11.6c1.5,0.8,3.4,1.5,5,2.8c0,0.1,0.1,0.2,0.3,0.4c0.5,0.6,1.6,1.9,2.3,2.8
		c3.5,4.7,6.6,10,9.6,15.5c6,11.2,11.6,22.9,17.9,33.9c15.7,27.4,33.8,52.4,53.6,74l-0.1-3.2c-12.9-15-24.9-31.6-36-49.4
		c-6.2-9.9-12-20.3-17.5-31c-5.3-10.3-10.3-21-16.7-30c-7.8-11-17.6-20-28-25.2c-9-4.5-18.6-6.2-27.6-10.4c-2-0.9-4-2-5.9-3.3
		c-0.1-0.1-0.6-0.5-1-0.8c-3-3.8-5.2-8.7-6.5-14.1c-2.4-10.4-1.3-22.7,5.1-29.6c6.8-7.3,16.1-6.5,24.1-6.3c4.9,0.1,10-0.1,14.7,2.3
		c0.3,0.4,0.6,0.8,0.9,1.1c1.7,2.2,3.4,4.6,5,6.9c24.5,35.1,44.3,76.1,65,115.8c7.7,14.8,15.5,29.4,23.8,43.5l-0.2-9.2
		c-0.4-0.8-0.9-1.6-1.3-2.4c-22.9-42.1-43.5-86.9-68.8-126.3c-6.8-10.5-13.7-21.4-21.9-29.5c-5.3-5.3-10.9-10-17.4-11.2
		c-5-0.9-10.1-0.7-15.1-0.7c-8.1,0.1-17.9,1.4-22.7,12.3c-0.4,1-0.8,2.1-1.2,3.1c0,0,0,0,0,0c0.5-1.8,1-3.6,1.6-5.4
		c2.5-8,5.6-16.7,10.7-22c6.1-6.3,13.7-4.2,20.6-3.1c7,1.2,14,2.6,20.9,5.2c3.3,1.3,6.6,2.8,9.8,4.7c1.2,0.8,2.5,1.6,3.7,2.5
		c0,0,0.3,0.2,0.5,0.4c-0.1,0-0.1-0.1-0.1-0.1c0.1,0,0.2,0.1,0.2,0.2c0,0,0,0,0,0c0,0,0,0,0,0c0,0,0.1,0.1,0.1,0.1
		c0,0,0.1,0.1,0.1,0.1c0,0,0,0-0.1-0.1c0.2,0.2,0.3,0.3,0.5,0.5c10.9,12.3,19.3,29.2,28,44.5c17.1,30,34.1,60,51.2,89.9l-0.2-9.1
		c-11.9-20.9-23.9-41.9-35.8-62.9c-5-8.8-10-17.6-15-26.3c-4.4-7.7-8.9-15.3-13.9-22.2c-11.4-15.6-25.5-27.5-40.8-32.7
		c-6.9-2.4-13.9-3.7-20.9-4.8c-6.9-1.1-14-2.3-19.8,4.4c-5,5.8-8,14.9-10.5,23.2c-2.9,9.5-5,19.5-6.2,29.7
		c-1.3,10.3-1.8,20.9-1.4,31.4c0.3,9,1.1,18.8,5,26.4c2.4,4.8,5.9,8.2,9.3,11.4c3.3,3.1,6.8,5.9,10.6,7.4c6,2.4,12.3,1.7,18.4,0.4
		c7.6-1.7,15.3-4.3,23-1.9c1.4,0.4,2.7,1,4,1.8c0.2,0.1,0.5,0.3,0.7,0.4c0.3,0.3,0.5,0.7,0.8,1c1.1,1.5,2.2,3,3.2,4.6
		c8.4,13.1,14.6,28.8,22.7,42.3c18.1,30.4,41,54.3,64.9,74.6C280.2,532.8,281.5,533.9,282.8,534.9z M200.9,297.5
		C200.9,297.5,200.9,297.5,200.9,297.5C200.9,297.4,200.9,297.4,200.9,297.5L200.9,297.5C200.9,297.5,200.9,297.5,200.9,297.5z
		 M149.6,359.3c0.1,0.1,0.1,0.2,0.2,0.3c1.2,1.5-0.1,0.1-0.6-0.4C148.8,358.7,149.2,358.9,149.6,359.3z M187,311.6
		c-0.4-0.5-0.8-0.9-1.1-1.4c0.9,1.4,3.3,2.6,1.4,1.5C187.3,311.7,187.2,311.6,187,311.6z M198.8,386.1c-0.1-0.1,0.2,0.2,0.6,0.5
		C199.2,386.4,199,386.3,198.8,386.1z M199.3,386.6c0.2,0.2,0.4,0.4,0.6,0.6C199.8,387.1,199.6,386.8,199.3,386.6z"/>
	<path class="accentcolor2" d="M275.9,190.1l-0.2-8.1c-10.3-16.5-21.3-32.1-33.1-46.6c-22.6-27.6-47.5-51.8-74-71.4l-5.6-1
		c19.5,13.2,38.2,29.1,55.4,47.7C240,133.9,258.8,160.9,275.9,190.1z"/>
	<path class="accentcolor2" d="M285.9,688.7l-0.2-8.3c-11.6-1.2-23.1-3.6-34.4-8.2c-11.4-4.7-23-11.5-33-20c-0.2-0.2-1.1-0.9-1.6-1.4
		c-0.4-0.3-0.7-0.6-1-0.9c0,0-0.1-0.1-0.1-0.1c0,0,0,0,0,0c0,0,0,0,0,0c0,0,0,0-0.1,0c0,0,0,0,0,0h0c0,0,0,0,0,0c0,0,0,0-0.1-0.1
		c0,0,0,0,0,0c0,0,0,0,0,0c0,0,0,0,0,0c0,0,0,0,0,0c0,0-0.1,0-0.1-0.1c0,0,0,0,0,0c0,0,0,0,0,0c0,0,0,0,0,0
		c-0.1-0.1-0.1-0.1-0.1-0.1c-0.3-0.3-0.7-0.6-1-0.9c-0.7-0.6-1.3-1.2-2-1.9c-0.2-0.2-0.5-0.5-0.7-0.7c0,0,0,0,0,0
		c-0.1-0.1-0.2-0.2-0.2-0.2c-0.5-0.5-1.1-1-1.6-1.6c-1.2-1.2-2.5-2.4-3.7-3.6c-5.3-5.2-10.6-10.4-16.1-15.1
		c-10.1-8.8-20.9-16.8-32.7-18.9c-9.9-1.7-20.2,0.5-29.8-3.6c-0.1-0.1-0.3-0.1-0.4-0.2c-1.7-2.9-2.9-6.3-3.7-9.9
		c-1.8-8-1.9-16.7-1.6-25c0.6-17.7,4-35.2,9.9-50.6c5.3-13.7,13.4-27.5,25.2-28.1c5.7-0.3,11.4,2.2,16.4,5.9c1.1,0.8,2,1.6,2.6,2.1
		c0.3,0.2,0.5,0.5,0.8,0.7c0,0,0,0,0,0c0,0,0,0,0,0c0,0,0,0,0,0c0,0,0,0,0,0c0,0,0,0,0,0c0,0,0,0,0,0c0,0,0,0,0,0
		c0,0,0.1,0.1,0.1,0.1c0.3,0.2,0.5,0.5,0.8,0.7c0.1,0.1,0.2,0.2,0.2,0.2l0,0c0,0,0,0,0,0c0,0,0,0,0.1,0.1c0,0,0.1,0.1,0.2,0.2
		c1.2,1.2,2.4,2.4,3.6,3.6c0,0,0.1,0.1,0.1,0.1c0,0,0,0,0,0c0,0,0,0,0,0c0,0,0,0,0,0c0,0,0,0,0.1,0.1c0,0,0,0,0,0c0,0,0,0,0,0
		c0,0,0,0,0,0c0.5,0.5,1,1,1.5,1.6c0.7,0.7,1.5,1.5,2.2,2.2c11.2,11.3,22.6,22.1,34.2,32.6c20.9,18.9,42.4,36.4,64.2,52.9l-0.1-2.7
		c-19.6-14.6-39-30.1-57.6-46.5c-5.9-5.2-10.3-9.2-16.1-14.5c-5.7-5.3-10.1-9.5-15.8-15.2c-11.1-11-22.3-24-35.4-30.9
		c-5.3-2.8-10.9-4.2-16.5-2.5c-5.5,1.7-10.2,6.3-14,12.1c-8.1,12.6-13.1,29.9-15.6,46.4c-1.3,8.8-2,17.8-1.8,26.8
		c0.1,8.1,0.8,16.6,3.5,23.8c3.3,8.8,10,14.7,15.9,19.3c4.5,3.4,9.2,5.2,14.2,5.9c10.6,1.5,21.1-0.1,31.4,4.5
		c5.1,2.3,10.1,5.7,14.5,9.4c0,0,0.1,0.1,0.3,0.2c0,0,0,0,0.1,0c0,0,0,0,0,0c0,0,0,0,0,0c0,0,0,0,0,0c0,0,0,0,0,0c0,0,0,0,0.1,0.1
		c0,0,0,0,0,0c0.2,0.2,0.4,0.3,0.5,0.5c0.5,0.4,1,0.9,1.5,1.3c0,0,0,0,0,0h0c0,0,0,0,0,0c0,0,0,0,0.1,0.1c0,0,0.1,0.1,0.1,0.1
		c0,0,0,0,0,0c0.3,0.3,0.8,0.7,0.9,0.9c0.7,0.7,1.5,1.4,2.2,2.1c0.4,0.4,0.8,0.8,1.2,1.2c0,0,0,0,0,0c0,0,0,0,0,0c0,0,0,0,0,0
		c0,0,0,0,0,0c0,0,0.1,0.1,0.1,0.1c0,0,0,0,0,0c0.3,0.3,1.1,1,1.2,1.1c1.2,1.2,2.5,2.4,3.7,3.6c11.1,10.9,22.4,21.3,34.6,29.4
		c11.4,7.6,23.5,13.3,35.9,16.8C277.6,687.2,281.7,688.1,285.9,688.7z"/>
	<path class="accentcolor2" d="M188.1,1099.4l1.7-3.5c-0.1-0.1-0.1-0.2-0.2-0.2c-18.3-29.6-29.1-66.3-40.1-102.1
		c-11.9-38.6-23-78.5-25.6-120.9c-1.3-20.7-0.5-41.7,3.3-61.8c1.6-8.7,3.7-17.8,8.4-24.1c4.4-5.9,10.5-8.5,16.5-8.6
		c6.7-0.1,13.2,2.8,19.4,6.3c6.5,3.7,13,7.6,19.7,10.6c13.2,5.8,26.8,9,40.5,10.9c18.8,2.5,37.6,2.6,56.4,3.7c0-3,0-6-0.1-8.9
		c-12.7-1-25.5-1.3-38.2-1.9c-14.1-0.7-28.2-1.8-42.2-4.9c-14-3-27.5-8.4-40.6-16c-11.5-6.7-25.1-14-37-5.2
		c-5.8,4.3-9.2,12.2-11.3,20.8c-2.4,9.7-3.8,20-4.6,30.2c-3.5,42.2,3.9,84.2,14.4,123.3c5.3,20,11.5,39.4,17.6,58.9
		c5.9,18.8,12,37.6,19.7,55C172.2,1075,179.8,1087.8,188.1,1099.4z"/>
	<path class="accentcolor2" d="M194.2,1087l1.7-3.5c-3.6-5.8-6.8-12-9.7-18.6c-6.1-14.3-10.6-30-14.2-45.9c-7.4-32.3-11.1-66.3-10.9-100.3
		c0.1-16.9,1.1-33.9,3.1-50.5c0.8-6.4,1.9-13.1,4.6-18.5c3.1-6.3,7.9-8.2,13.1-8.2c12.7,0,25.4,1.1,38.1,1.6
		c12.8,0.6,25.7,1.1,38.5,1.7c9.3,0.4,18.5,0.7,27.8,1.3c0.3-2.9,0.6-5.8,0.8-8.7c-6.4-0.5-12.8-0.9-19.2-1.2
		c-25.7-1.3-51.4-2.3-77-3.4c-6.3-0.3-12.6-0.9-18.9-0.8c-5,0.1-9.8,1.7-13,7.7c-2.8,5.2-4,12-4.8,18.3c-1,8.1-1.8,16.4-2.3,24.6
		c-2.2,34.2-0.5,68.9,5.1,102.2c5.3,31.7,13.5,64.6,28.6,89.5C188.3,1078.7,191.2,1082.9,194.2,1087z"/>
	<path class="accentcolor2" d="M168.2,1147.8c0.4-1.5,0.9-3,1.4-4.5c-15.4-24.8-28.7-52.4-39.9-81.4c-5.1-13.2-9.8-26.7-14.1-40.4
		c1.1,9.8,2.2,19.7,3.3,29.5c12.3,32.3,27.1,62.6,44.6,89.6C165,1143,166.6,1145.4,168.2,1147.8z"/>
	<path class="accentcolor2" d="M287.5,768.3l-0.2-11.4c-15.2,2.7-30.5,5.1-45.7,4.4c-36-1.7-71.9-17.4-101.8-46.2
		c-15.4-14.8-30.6-31.1-48.1-40.2c-3.2-1.7-7.6-4.6-11.2-3.6c0.9,9.4,1.7,18.8,2.6,28.3c0.8-4.4,1.6-8.9,3-12.9
		c2.1-6.3,5.8-6.4,10.1-4.7c8.1,3.3,15.6,8.7,22.7,15.1c15,13.4,29.1,28.7,44.8,40.5c15.7,11.7,32.4,20.6,49.7,26.2
		c17.6,5.7,35.6,8.1,53.6,7C273.7,770.3,280.6,769.4,287.5,768.3z"/>
	<path class="accentcolor2" d="M172,1136.1c0.7-1.9,1.3-3.7,2-5.5c-7.7-15.4-14.1-32.2-19.5-49.4c-12.4-39.3-20.7-81.3-29.9-122.3
		c-4.9-21.8-9.9-43.5-14.6-65.4c-4.4-20.6-7.5-41.5-8-63.2c-0.5-21.2,1.2-42.5,5-63c0.9-5,1.9-10,3.2-14.8c1-3.9,2.7-7.1,5.5-8.6
		c5.5-3,11.8,0.6,17,3.4c28.2,15.2,57.4,26.6,87.1,34c22.6,5.6,45.4,8.9,68.3,9.9l-0.2-9.2c-14.7-0.2-29.4-1.4-44-3.6
		c-30.8-4.5-61.4-13.3-91-26.2c-7.4-3.2-14.7-6.7-22-10.4c-6.2-3.2-12.6-7.8-19.2-8.5c-2.5-0.3-5.1,0-7.4,1.8c-2.8,2.3-4,6.4-5,10.7
		c-2.4,10.2-4.2,20.7-5.4,31.4c-0.7,6.2-1.3,12.5-1.6,18.9c3.2,32.6,6.5,65.3,9.9,97.9c1,4.6,2.1,9.2,3.1,13.7
		c5,22.4,10.1,44.9,15.1,67.3c4.6,20.6,9.1,41.3,14.3,61.7c5,19.9,10.7,39.4,17.8,58C157.9,1109.4,164.2,1123.7,172,1136.1z"/>
	<path class="accentcolor2" d="M163.7,1165c0.2-0.7,0.3-1.5,0.5-2.2c-13.5-15.1-26.3-31.2-38.2-48.8c0.2,2.1,0.5,4.3,0.7,6.4
		c11.7,15.8,24.1,30.5,36.9,44.5C163.6,1164.9,163.7,1164.9,163.7,1165z"/>
	<path class="accentcolor2" d="M287,745.9l-0.2-11.7c-19.8,4.2-39.6,6.9-59.3-1.5c-16.1-6.9-30.4-19.7-44.2-33
		c-15.2-14.7-30.3-30.1-46.8-41.8c-15.6-11.1-33.5-19.6-51.1-16.2c-2.6,0.5-5,1.3-7.5,2.4c0.5,5.1,0.9,10.2,1.4,15.2
		c2.9-2.6,6-4.6,9.4-6c9.3-3.9,19.2-3.2,28.6-0.6c15.9,4.5,30.3,15.2,43.8,27.7c14.6,13.6,28.7,28.3,43.8,40.9
		c14.9,12.4,30.9,22.8,48.2,25.7C264.4,748.8,275.7,747.8,287,745.9z"/>
	<path class="accentcolor2" d="M286.6,725.3l-0.2-8.9c-9.4-0.4-18.9-1.3-28.1-3.9c-7-1.9-14-4.7-20.6-8.8c-2.9-1.8-5.8-3.8-8.6-6
		c-1.3-1.1-2.6-2.1-3.6-2.9c-0.4-0.3-0.7-0.7-1.1-1c0,0-0.4-0.3-0.6-0.5c0,0,0,0,0,0c0,0,0,0,0,0l-0.1-0.1l-0.1-0.1l-0.3-0.3
		c-0.6-0.5-1.1-1-1.7-1.5c0,0-0.4-0.4-0.5-0.5h0c0,0,0,0,0,0c0,0,0,0,0,0h0c0,0,0,0,0,0c-0.3-0.3-0.6-0.5-0.8-0.8
		c-0.6-0.6-1.3-1.2-1.9-1.9c-1.6-1.5-2.5-2.5-3.9-4c-2.9-3-5.7-6-8.5-9c-5.7-6.2-11.5-12.3-17.4-18.2c-12.4-12.3-25.6-23.8-40-30.5
		c-6.5-3-13.3-4.9-20.2-5.1c-7.1-0.2-14,1.4-21,3.3c-7.3,2-14.6,4.3-22.1,4.8c-2.9,0.2-5.9,0.1-8.8-0.3c0.2,2,0.3,4,0.5,5.9
		c1.5,1.1,3.1,1.9,4.8,2.5c13.8,5,28.5-2,42.2-5.1c7.1-1.6,14.2-2.2,21.3-0.8c6.8,1.3,13.5,4.2,19.8,8c3.1,1.9,6.2,4,9.1,6.3
		c1.2,0.9,2.5,2,3.4,2.8c0.7,0.6,1.4,1.2,2.1,1.9c0,0,0,0,0,0c0,0,0,0,0.1,0c0.2,0.2,1.3,1.2,1.5,1.4c0.4,0.3,0.7,0.7,1.1,1
		c0.2,0.2,0.3,0.3,0.4,0.4c0,0,0,0,0,0c0,0,0,0,0,0c0,0,0,0,0,0c0,0,0,0,0,0c0,0,0,0,0,0c0,0,0,0,0,0c0,0,0,0,0,0c0,0,0,0,0,0
		c0,0,0,0,0,0c0,0,0,0,0,0c0,0,0,0,0,0c0,0,0,0,0,0c0.6,0.6,1.2,1.2,1.8,1.8c1.4,1.4,2.5,2.5,3.6,3.7c2.8,3,5.7,6,8.5,9
		c12.2,13,24.4,26.1,37.7,36.6c12.9,10.1,26.5,16.5,41.1,19.1C279.5,724.5,283.1,725,286.6,725.3z"/>
	<path class="accentcolor2" d="M283.6,572.8l-0.1-3.4c-13.5-8.9-27.2-17.3-40.1-27.7c-3-2.4-5.8-4.9-8.3-7.2c-2.6-2.4-5.2-5-8-7.9
		c-6-6.2-11.8-12.7-17.6-19.3c-12.6-14.2-25.2-28.4-37.7-42.6c-6.8-7.7-13.5-15.7-21.1-21.9c-5.8-4.7-11.9-7.4-18.4-3.7
		c-13.4,7.7-16.7,29.9-20.8,47.4c-4.7,19.7-10.7,38.9-18.6,56.5c-6.1,13.8-13.7,26.2-20.3,39.5c0.8,9.1,1.6,18.3,2.4,27.5
		c1.2-3.2,2.5-6.1,3.5-8.6c3.7-8.6,8-16.6,12.3-24.6c8.8-16.3,16.7-33,22.8-51.8c3.1-9.5,5.8-19.2,8.1-29.1
		c2.3-9.6,4.1-19.6,7.4-28.6c2.9-8,7.3-15.1,13.2-18.7c2.9-1.8,6.1-2.5,9.2-1.6c0.8,0.2,1.6,0.5,2.4,0.9c0.4,0.2,0.8,0.6,1.2,0.8
		c0.3,0.3,0.6,0.6,0.9,1c12.6,14.2,25.2,28.5,37.8,42.7c12.6,14.2,25.1,28.5,38.4,41.3c13.2,12.6,27.4,23,41.8,32.6
		C277.1,568.5,280.3,570.6,283.6,572.8z"/>
	<path class="accentcolor2" d="M171.8,1381.4c-0.1-1.6-0.3-3.2-0.4-4.9c-0.5-0.7-1-1.4-1.5-2.2c-6-8.8-11.2-18.5-15.9-28.8
		c0.6,4.4,1.1,8.9,1.7,13.3C160.6,1367.1,166,1374.5,171.8,1381.4z"/>
	<path class="accentcolor2" d="M161.1,1178.9c0.1-0.6,0.2-1.2,0.3-1.8c-1.8-1.6-3.6-3.2-5.4-4.8c-6.9-6.1-14.1-12.6-22.1-15.3
		c-1-0.3-2-0.6-3-0.7c0.4,3.5,0.8,6.9,1.2,10.4c3.5-1.4,7.2-1.4,10.8-0.3c3.5,1,6.7,3,9.9,5.4c1.4,1.1,2.2,1.7,3.3,2.7
		c0.9,0.8,1.7,1.5,2.6,2.3c0.4,0.3,0.8,0.7,1.1,1c0.1,0.1,0.5,0.5,0.7,0.7h0c0,0,0,0,0.1,0.1c0,0,0,0,0,0c0,0,0,0,0,0c0,0,0,0,0,0
		c0,0,0,0,0,0C160.8,1178.6,160.9,1178.7,161.1,1178.9z"/>
	<path class="accentcolor2" d="M191.8,1594.9c-0.1-0.8-0.1-1.5-0.2-2.3c-1.9-1.9-3.9-3.7-5.8-5.5c0.1,0.8,0.2,1.6,0.3,2.4
		c0.5,0.5,1.1,1,1.6,1.5c0.6,0.5,1.1,1.1,1.7,1.6c0,0,0,0,0.1,0.1c0,0,0,0,0,0c0,0,0,0,0,0c0,0,0.1,0.1,0.1,0.1
		c0.4,0.4,0.9,0.9,1.3,1.3C191.3,1594.3,191.6,1594.6,191.8,1594.9z"/>
	<path class="accentcolor2" d="M189.8,1615.8c0.1,0.8,0.2,1.6,0.3,2.4c0.2,1.1,1.3,1.9,2.4,1.6l0,0c0,0,0.1,0,0.1,0
		C191.7,1618.4,190.7,1617.1,189.8,1615.8z"/>
	<path class="accentcolor2" d="M189.4,1569.5c-0.1-0.9-0.2-1.9-0.3-2.8c-2.3-1.7-4.6-3.5-6.9-5.2c0.1,1,0.3,2.1,0.4,3.1
		C184.9,1566.1,187.2,1567.8,189.4,1569.5z"/>
	<path class="accentcolor2" d="M188.2,1556.9c-0.1-1.4-0.3-2.9-0.4-4.3c-2.7-3.4-5.4-6.7-8.1-10.1c0.2,1.6,0.4,3.1,0.6,4.7
		C183,1550.4,185.6,1553.6,188.2,1556.9z"/>
	<path class="accentcolor2" d="M180.9,1479.6c-0.1-0.9-0.2-1.9-0.3-2.8c-3.8-4-7.5-8-11.3-12c0.1,1,0.3,2,0.4,3
		C173.4,1471.8,177.2,1475.7,180.9,1479.6z"/>
	<path class="accentcolor2" d="M179.7,1466.9c-0.1-1-0.2-1.9-0.3-2.9c-4-4.2-7.9-8.5-11.9-12.8c0.1,1,0.3,2,0.4,3
		C171.9,1458.5,175.8,1462.7,179.7,1466.9z"/>
	<path class="accentcolor2" d="M175.8,1425.2c-0.1-1-0.2-2-0.3-3c-4.6-5-9.2-10-13.8-15.1c0.1,1,0.3,2,0.4,3.1
		C166.7,1415.2,171.3,1420.2,175.8,1425.2z"/>
	<path class="accentcolor2" d="M279.7,376.7l-0.3-12.9c-11.6-24.1-23.9-47.6-37.8-69.3c-17.3-27-37.2-51.6-59.6-69.5
		c-20-15.9-45.3-27.9-67.9-16.5c-24.5,12.4-33.7,48.8-33,83.4c0.8,41.2,14.8,78.5,19.9,118.5c5.3,41.4-1.8,83.2-20.9,115.4
		c-3.4,5.8-7.1,11.2-10.8,16.6c0.6,7.1,1.2,14.2,1.8,21.2c0.3-0.4,0.5-0.7,0.8-1.1c10.1-14,20.3-28,27.7-45.3
		c7.3-17.3,11.9-37,13.2-57.2c2.8-42.8-10.8-82.1-17.8-122.7c-5.4-31.3-6.4-69,7.5-96.2c15.3-29.7,42.3-31.8,65.1-21.7
		c25.9,11.5,46.8,38.9,64.7,67.1C249.9,314.5,265.1,345.3,279.7,376.7z"/>
	<path class="accentcolor2" d="M277.6,272.1l-0.1-5.5c-10.5-14.5-21.6-28.4-33.2-41.6c-22.6-25.7-47-50-73.2-67.8
		c-25.3-17.1-54.9-26.6-81.5-9.4c-11,7.1-20.9,18.2-27.5,32.8c-7.8,17.4-8.9,37.5-6.2,57.6c6.3,46,22.3,88.1,27.1,134.8
		c4.3,41.9-1,85.4-14.7,122.8c-0.8,2.1-1.6,4.2-2.4,6.3c0.7,9,1.4,17.9,2.2,26.9c13.3-26.9,22.2-57.5,25.4-90.8
		c4.3-45.6-4.4-88.6-14.7-131.3c-9.1-38-23.4-83.6-4.8-120.4c15.7-31.1,43.9-42.6,69.5-37.1c31.1,6.7,58.9,32.9,83.7,59.4
		C245.3,228.3,262,249.4,277.6,272.1z"/>
	<path class="accentcolor2" d="M277.2,254.1l-0.1-6.9c-16.2-24.7-33.5-47.8-52.2-69.1c-23.2-26.3-48.2-51.3-75.1-69.5
		C123.7,91,93.3,81.3,66,99c-9.6,6.2-18.4,15.4-25,27.2c0.5,10.7,1.1,21.5,1.7,32.2c1.5-6.8,3.8-13.4,7-19.8
		c16.2-32,45.2-43.8,71.5-38.1c32.1,6.9,60.8,34,86.4,61.3C233.1,189.2,256.2,220.3,277.2,254.1z"/>
	<path class="accentcolor2" d="M46.7,230.2c0.9,15.5,1.9,31,2.9,46.6c4.1,17.6,7.7,35.4,9.6,53.9c2.4,23,1.9,46.4-1.1,69.1
		c1.1,14.6,2.2,29.2,3.3,43.8c4-14.7,6.8-30.1,8.3-46.1c4.4-46.9-4.6-91.1-15.1-135C52.1,252.2,49.2,241.3,46.7,230.2z"/>
	<path class="accentcolor2" d="M184.2,1514.6c-0.1-0.9-0.2-1.8-0.3-2.7c-3.2-3.4-6.5-6.8-9.7-10.3c0.1,1,0.3,1.9,0.4,2.9
		C177.8,1507.9,181,1511.2,184.2,1514.6z"/>
	<path class="accentcolor2" d="M276.6,225.6l-0.2-7.6c-19.3-30.8-40.2-59.6-63.2-85.6C189,104.9,163,78.8,135,59.9c-1.1-0.8-2.3-1.5-3.4-2.2
		l-12.1-2.1c27.8,11.2,53.1,35.5,75.9,59.9C225.6,147.7,252.4,185,276.6,225.6z"/>
	<path class="accentcolor2" d="M85.7,49.7l-29-5c-3.2,1.4-6.3,3-9.5,5.1c-3.2,2.1-6.3,4.5-9.3,7.2c0.3,6.5,0.5,12.9,0.8,19.4
		C51.5,59.8,68.4,51.2,85.7,49.7z"/>
	<path class="accentcolor2" d="M182.4,355.5c0.1,0,0.2,0,0.3,0c1.1-0.4,2.2-0.5,3.2-0.4c0.6,1.1,1.2,2.2,1.9,3.2c4.9,7.7,11.8,13.5,18.3,17.8
		c2.5,1.7,5.2,3.1,7.8,4.4c2.1,1,4.7,2.6,6.8,1.4c2.5-1.4,2-5.4,0.9-8c-1.9-4.4-5.6-7.5-8.5-10.3c-5.6-5.3-11.7-8.7-17.8-12.6
		c-0.5-0.3-1-0.7-1.5-1c-0.1,0-0.3-0.2-0.4-0.4c-0.2-0.3-0.5-0.5-0.5-0.5c-2.3-2.5-4.4-5.2-6.6-7.8c-5.5-6.7-11.2-12.8-17.4-18
		c-2.6-2.2-5.8-5.2-8.9-5.1c-2.5,0.1-4.2,2.7-4.8,6c-2,9.9,4.9,17.4,9.8,22.1c3.3,3.1,6.8,6,10.5,8
		C177.8,355.5,179.9,355.6,182.4,355.5z M172.6,328.6C172.6,328.6,172.6,328.6,172.6,328.6C172.6,328.6,172.6,328.6,172.6,328.6
		c0.7,0.6,0.5,0.5,0.2,0.2C172.7,328.7,172.6,328.6,172.6,328.6C172.5,328.5,172.6,328.5,172.6,328.6
		C172.6,328.6,172.6,328.6,172.6,328.6z M172.5,346c-1.6,0-3.3,0.1-4.9-0.5c-0.1,0-0.2-0.1-0.2-0.1c-2.1-4.3-3.3-9.6-1.2-14.4
		c1.3-2.9,3.5-3.9,5.8-2.8c0.2,0.1,0.5,0.3,0.8,0.5c0.3,0.3,0.8,0.8,0.6,0.7c3.7,4.1,7.2,8.7,10.9,13c5,5.7,10.3,10.9,16,15.1
		c3.6,2.7,7.4,5,11.2,7.2c0.6,1.1,1,2.5,1,3.9c0,3.3-2.2,4.5-4.1,4.1c-1.9-0.4-3.8-1.5-5.6-2.5c-1.5-0.8-3.4-2.2-4.9-3.1
		c0,0,0,0,0,0c-0.9-1.3-1.6-2.7-2.4-4.1c-2.1-3.9-4.3-7.1-7.2-9.9C183.7,348.6,178.3,343.8,172.5,346z M167.3,345.4
		c0.4,0.7,0.7,1.4,1.1,2c-0.7-1.1-1.7-2.1-2.6-2.9C166.4,344.9,166.9,345.2,167.3,345.4z M165.9,344.6c-0.1,0-0.1-0.1-0.2-0.1
		C163.2,342.9,164.3,343.3,165.9,344.6z M172.6,328.6 M172.5,328.5C172.5,328.5,172.5,328.5,172.5,328.5
		C172.2,328.2,171.9,327.9,172.5,328.5C172.5,328.4,172.5,328.4,172.5,328.5z M211.4,364.7c-0.1-0.2-0.2-0.4-0.3-0.5
		c-0.2-0.4-0.6-0.8-0.8-1.2c-1.2-2.5,2.1,2.3,2.8,2.7C212.5,365.4,212,365,211.4,364.7z M199.1,368.9
		C199.1,368.9,199.1,368.9,199.1,368.9C199.1,368.9,199.1,368.9,199.1,368.9z M199.1,368.9c-0.3-0.8-1.8-2-2.3-2.2
		c0.3,0.1,0.7,0.3,1,0.5C198.1,367.7,198.8,368.2,199.1,368.9z M172.5,346c0.1,0,0.1,0,0.2,0c0.8,0,1.9,1.2,2.5,1.7
		c1.4,1.1,2.7,2.3,4,3.6c0.9,0.9,2.1,2,2.9,3.2c0.2,0.3,0.9,1,0.3,1c0,0,0,0,0,0c-0.5-0.1-1.1-0.6-1.4-0.9c-1.3-0.9-2.5-2-3.7-3.1
		c-1.2-1.1-2.4-2.3-3.5-3.6C174,348.3,172.2,346.1,172.5,346C172.5,346,172.5,346,172.5,346z M185.9,355.2c-0.4-0.7-0.7-1.3-1.1-2
		c-0.4-0.8-0.9-1.6-1.4-2.4c-0.3-0.4-0.6-0.8-0.8-1.3c2.3,2.2,4.7,4.4,7,6.6c0,0-0.1-0.1-0.1-0.1
		C188.2,355.7,187.1,355.3,185.9,355.2z M193.6,349.8c0.8,0.8,0.1,0.2-0.3-0.3c-0.3-0.3-0.2-0.2,0.1,0
		C193.6,349.9,193.9,350.2,193.6,349.8z"/>
	<path class="accentcolor2" d="M193.6,349.8C193.6,349.8,193.6,349.8,193.6,349.8C193.6,349.8,193.6,349.8,193.6,349.8z"/>
</g>
<path class="accentcolor" d="M295.6,2399.6c6.6,9.4,19.7,0.3,18.2-11.1c-55.1-426.9-118.1-1144.3-118.1-1144.3c-4.4-42.8,2.2-80.2,21-118.9
	l63-129.2c32.3-66.3,46.2-124.3,44.7-198.1L309.5,53.5L0,0c0,0,21.3,909,263.3,2324.3c3.6,21.2,6.9,39.4,19.3,57L295.6,2399.6z
	 M280.8,2298.5C167.9,1635.1,70.6,879.7,30.9,203.1C27.4,144,24.6,84.9,22.5,25.8l265.8,45.9l14.5,726.9c1,33.9-2.4,67.8-10.2,100.9
	c-7.5,30.1-18.4,59.2-32.2,86.9l-63,129.3c-20.3,40.4-28.4,85.8-23.2,130.7c20.2,226.6,41.9,453,65.2,679.3
	c7.6,73.3,15.5,146.6,23.7,219.9C268.7,2196.5,274.6,2247.5,280.8,2298.5z"/>
<path class="maincolor" d="M2096.9,1621.4L2096.9,1621.4c-1-0.2-1.7-1.1-1.6-2.1c12-123.8,23.5-247.6,34.5-371.5
	c5.5-47.6-3.1-95.7-24.6-138.5l-63-129.3c-13.4-26.7-23.8-54.9-31.1-83.9c-7.5-31.8-10.8-64.4-9.8-97l14.3-715.2L2252.1,43
	c-2.1,53.1-4.6,106.2-7.7,159.3c-26.6,457.3-80.5,952.7-145.1,1417.5C2099.1,1621,2098,1621.7,2096.9,1621.4z"/>
<g>
	<path class="accentcolor2" d="M2104.7,1581c0.1-0.8,0.2-1.6,0.3-2.4c-2,1.7-4.1,3.3-6.1,4.8c-0.1,0.9-0.2,1.8-0.3,2.7
		C2100.7,1584.5,2102.7,1582.8,2104.7,1581z"/>
	<path class="accentcolor2" d="M2005.1,861.1c0.5,3.8,1.1,7.6,1.8,11.4c2.1,0.4,4.2,0.7,6.3,1.1c11.8,2.1,23.5,4.6,35.3,7.3
		c5.9,1.3,11.7,2.7,17.6,4.1c5.3,1.2,10.6,2.1,15.8,4.1c4.6,1.8,8.9,4.8,11.8,10.5c2.8,5.6,4,12.5,4.8,19.2
		c1.8,14,2.7,28.2,2.7,42.3c0,28.4-3.7,57.2-12.4,82.8c-1.9,5.5-4,10.9-6.3,16l2.6,5.4c9.6-16.8,16.6-36.1,20.9-57.2
		c5.6-27.8,6.6-57.3,4.1-85.9c-1.1-13-2.1-30.1-10.4-38.1c-4.1-3.9-9-5.3-13.7-6.4c-5.9-1.4-11.8-2.8-17.7-4.2
		C2047.2,868.8,2026.2,864.1,2005.1,861.1z"/>
	<path class="accentcolor2" d="M2008.2,879.5c0.8,4.3,1.7,8.5,2.7,12.7c2.9,0.9,5.8,2,8.7,3.1c16.6,6.8,35,17.2,44.4,39.2
		c5.1,11.8,7.6,25.8,8.7,39.5c1.1,14.4,0.6,29-1.4,43.1c-0.7,4.9-1.6,9.8-2.6,14.7l4.9,10.1c6.5-19.8,10-41.9,9.9-63.6
		c-0.1-14.3-1.7-29.1-5.4-42.4c-3.7-13-9.7-23.5-17.8-31.2c-7.6-7.3-16.2-12.3-24.8-16.4c-8.1-3.8-16.5-6.6-24.9-8.4
		C2009.7,879.7,2008.9,879.6,2008.2,879.5z"/>
	<path class="accentcolor2" d="M2020.7,926.1c6.1,17.9,13.3,35.3,21.8,52.2l6.9,14.1c-0.5-8.6-1.7-17.2-3.7-25.3
		C2041.1,949.2,2031.9,935.3,2020.7,926.1z"/>
	<path class="accentcolor2" d="M2074.4,649.5C2074.4,649.5,2074.4,649.5,2074.4,649.5C2074.4,649.5,2074.4,649.5,2074.4,649.5z"/>
	<path class="accentcolor2" d="M2142.5,1291.3c2.6-21,5.2-42.1,7.7-63.2c0-1.5-0.1-3-0.1-4.6c-0.3-7.6-0.6-16.9-4.6-22.7
		c-4.1-6-9.7-4.3-14.5-1.3c0.2,2.5,0.3,4.9,0.4,7.4c1.8,0.8,3.4,2.5,4.6,4.7c3.4,6.3,3.7,15.3,3.9,23c1,33.5-5.7,66.5-17.3,95.4
		c0,0.1-0.1,0.2-0.1,0.3c-0.5,5.2-0.9,10.5-1.4,15.7c7.8-14.6,14.5-30.5,19.4-47.5C2141.2,1296.1,2141.9,1293.7,2142.5,1291.3z"/>
	<path class="accentcolor2" d="M2075.3,71.9l-3.2,0.6c-15.8,14-30.7,29.9-44.1,48.2c-4.6,6.3-9,12.8-13.3,19.5l-0.2,8.2
		c7.1-12.5,14.6-24.4,22.8-35.5c6.3-8.5,12.9-16.5,19.9-23.9C2063.4,82.5,2068.9,77.4,2075.3,71.9z"/>
	<path class="accentcolor2" d="M2043.4,77.5l-2.8,0.5c-8.6,8.9-17.1,18.2-25.2,28l-0.1,4c0.8-1,1.5-2,2.3-2.9c5.1-6.4,10.3-12.6,15.6-18.5
		c2.6-2.9,5.1-5.7,7.8-8.5C2041.8,79.2,2042.6,78.3,2043.4,77.5z"/>
	<path class="accentcolor2" d="M2005.3,611.6l-0.1,3.3c11.4-7.8,22.5-16.1,33.4-25.3c9.5-8.1,18.8-16.8,27.7-26.3c8.3-8.9,16-19,24.1-28.3
		c1-1.1,1.8-2,2.8-3.1c0.2-0.2,0.5-0.5,0.7-0.8c0,0,0.2-0.2,0.3-0.3c0,0,0,0,0,0c0,0,0,0,0,0c0,0,0,0,0-0.1c0.1-0.1,0.4-0.4,0.6-0.6
		c0,0,0,0,0,0c0,0,0,0,0,0c0.1-0.1,0.2-0.2,0.3-0.3c0,0,0,0,0,0c0,0,0,0,0,0c0,0,0,0,0,0c0.1-0.1,0.2-0.2,0.3-0.3c0,0,0,0,0,0h0
		c0,0,0,0,0,0c0,0,0.1-0.1,0.1-0.1c0.2-0.2,0.4-0.3,0.6-0.5c0.5-0.4,1.4-1.1,2.2-1.6c4-2.6,8.2-4.4,12.7-4.7
		c7.8-0.6,16.1,2.6,22,10.1c6.7,8.6,8.3,22,4.7,33.8c-1.9,6.1-4.8,11.1-8.2,15.5c0,0-0.1,0-0.1,0.1c-1,0.7-2,1.5-3,2.1
		c-2.4,1.6-4.9,3-7.4,4.3c-22.5,12-45.4,23.2-68.2,33.8c-15.3,7.1-30.8,13.6-46.4,19.5l-0.1,6c20.8-8.3,41.3-17.9,61.8-27.9
		c11.9-5.9,23.8-11.9,35.7-18c5.3-2.7,10.7-5.3,15.9-8.7c6.5-4.2,12.7-9.5,18.4-15.7c8-8.8,15.2-22.3,13.6-37.6
		c-1.2-11.6-7.6-19.9-14.9-23.8c-8.1-4.4-16.9-3.7-24.9,0.6c-11.5,6.2-21.8,17.4-31.1,28.6c-4.1,4.9-8,10-12.2,14.8
		c-1.9,2.2-3.8,4.4-5.6,6.3c-1.1,1.2-2.2,2.3-3.2,3.4c-0.2,0.2-0.7,0.7-0.9,1c0,0,0,0,0,0h0c0,0,0,0,0,0c0,0,0,0,0,0c0,0,0,0,0,0h0
		c0,0,0,0,0,0h0c0,0,0,0,0,0c-0.1,0.1-0.3,0.3-0.3,0.3c-0.3,0.3-0.6,0.6-0.9,0.9c-1,1-2,2-3,3c0,0,0,0,0,0c0,0,0,0,0,0
		c0,0-0.1,0-0.1,0.1c0,0,0,0,0,0c0,0,0,0,0,0c0,0,0,0,0,0c0,0,0,0,0,0c0,0,0,0-0.1,0.1c0,0,0,0,0,0c-0.2,0.2-0.5,0.4-0.6,0.5
		c-0.6,0.5-1.1,1.1-1.7,1.6c-0.6,0.5-1.1,1-1.7,1.6c-0.2,0.2-0.4,0.3-0.6,0.5c0,0,0,0,0,0c0,0,0,0,0,0c0,0,0,0,0,0
		c0,0-0.1,0.1-0.2,0.2c-1.1,0.9-2.1,1.9-3.2,2.8c-2.3,2-3.2,2.8-5.7,4.8c-2.1,1.7-4.3,3.5-6.2,5
		C2023.5,599.3,2014.5,605.6,2005.3,611.6z"/>
	<path class="accentcolor2" d="M2049.6,612.2c16.5-0.1,33.4-4.8,48.2-15.1c4.6-3.2,8.9-7.1,13-11.4c3.1-3.3,6.2-7,8.4-11.6
		c1.9-3.9,3.3-8.5,3.9-13.2c0.5-4.1,0.5-10-1.5-13.4c-2-3.5-6.3-2-8.9-1.1c-3.3,1.1-6.4,3.1-9.4,5.3c-3.7,2.8-7.2,5.9-10.7,9.2
		c-1.8,1.7-3.5,3.4-5.2,5.1c-0.6,0.6-1.2,1.2-1.8,1.8c-0.2,0.2-0.4,0.4-0.6,0.6c-0.1,0.1-0.3,0.3-0.4,0.3c-0.9,0.9-1.4,1.4-2.2,2
		c-1.2,0.9-2.5,1.8-3.8,2.5c-3,1.7-6,2.9-9.1,4.1c-6.3,2.5-12.6,4.9-18.4,9.3c-4.4,3.4-8.8,7.4-12.6,12.1c-2.3,2.8-5.4,6.8-5.2,11.6
		c0.2,4.3,3.4,6.8,6.1,7C2043,617.6,2046.5,614.8,2049.6,612.2z M2105.7,588.5c0.1-0.1,0.3-0.2,0.4-0.3c1.3-1-0.5,0.7-0.9,0.9
		C2104.8,589.2,2105.4,588.9,2105.7,588.5C2105.7,588.6,2105.7,588.5,2105.7,588.5z M2105.7,588.5c-0.4,0.3-0.8,0.6-1.2,0.8
		c-2.9,1.9-5.9,3.5-8.9,4.9c-13.1,6.2-27,9-40.8,8.3c-0.8,0-1.9,1.2-2.5,1.7c-1.3,1-2.5,2.2-3.7,3.4c-0.8-0.2-1.6-0.5-2.4-1.2
		c-3.2-2.6-3.4-7.5-1.3-11.5c0.4-0.7,0.8-1.4,1.2-2c0.1-0.1,0.3-0.2,0.4-0.3c2.7-1.7,5.6-2.9,8.4-4c5.3-2.1,10.6-4,15.7-7
		c6.4-3.8,12.3-9.4,18.1-15c1.2-1.2,2.5-2.4,3.7-3.6c0.2-0.2,2-1.9,1-0.9c0.5-0.5,1.1-1,1.6-1.5c0,0,0.1,0,0.1-0.1
		c0.1,0,0.1-0.1,0.2-0.2c0.1-0.1,0.5-0.4,0.5-0.4c0.3-0.3,0.6-0.5,0.7-0.6c1.1-0.8,2.2-1.5,3.3-2.1c2.4-1.3,5.1-2.3,7.7-2.4
		c3.4-0.2,4.9,3.3,5.4,7.7c0.9,8.5-1.6,17.2-5.5,23.4C2106.9,587,2106.3,587.8,2105.7,588.5z M2095.7,560.2
		C2095.7,560.2,2095.7,560.2,2095.7,560.2C2095.7,560.2,2095.7,560.2,2095.7,560.2z M2095.7,560.2c0.1-0.1,0.2-0.1,0.2-0.1
		C2095.8,560.1,2095.8,560.1,2095.7,560.2z M2095.6,560.2C2095.6,560.2,2095.6,560.2,2095.6,560.2
		C2095.6,560.2,2095.6,560.2,2095.6,560.2z M2095.6,560.2C2095.6,560.2,2095.6,560.3,2095.6,560.2
		C2095.6,560.3,2095.6,560.2,2095.6,560.2z M2095.2,560.6C2094.8,560.9,2095.1,560.7,2095.2,560.6
		C2095.3,560.5,2095.3,560.5,2095.2,560.6z M2046.3,593.1c-0.4,0.3-0.8,0.6-1.3,0.8c0,0,0,0,0,0c0.4-0.7,1.4-1.4,2-1.8
		c0.9-0.7-0.2,0.3-0.5,0.7C2046.4,592.9,2046.3,593,2046.3,593.1z M2044.9,593.9C2044.9,593.9,2044.9,593.9,2044.9,593.9
		C2044.9,594,2044.5,594.2,2044.9,593.9z M2048.7,607.7c2.2,0.4,4.5-0.8,6.5-2.4c0.3-0.3,3.9-3.1,2.3-0.7c-1.8,2.7-4.6,4.9-6.8,6.8
		c-0.3,0.3-0.7,0.6-1.1,0.9c-1.4,0-2.8,0-4.3-0.1c-0.6,0,0-0.7,0.3-1c0.8-1.2,2-2.3,2.9-3.2C2048.5,607.8,2048.6,607.8,2048.7,607.7
		z M2084.9,568.4c0.2-0.2,0.2-0.2-0.3,0.3C2084.7,568.6,2084.8,568.5,2084.9,568.4z"/>
	<path class="accentcolor2" d="M2009.1,423.5l-0.2,9.1c17.1-30,34.1-60,51.2-89.9c8.7-15.3,17.2-32.2,28-44.5c0.2-0.2,0.3-0.3,0.5-0.5
		c0,0,0,0-0.1,0.1c0,0,0.1-0.1,0.1-0.1c0,0,0.1-0.1,0.1-0.1c0,0,0,0,0,0c0,0,0,0,0,0c0.1-0.1,0.2-0.1,0.2-0.2c0,0-0.1,0-0.1,0.1
		c0.2-0.2,0.5-0.4,0.5-0.4c1.2-0.9,2.4-1.7,3.7-2.5c3.2-1.9,6.4-3.5,9.8-4.7c6.8-2.6,13.8-4,20.9-5.2c6.9-1.2,14.5-3.2,20.6,3.1
		c5.1,5.3,8.1,14,10.7,22c0.6,1.8,1.1,3.6,1.6,5.4c0,0,0,0,0,0c-0.3-1.1-0.7-2.1-1.2-3.1c-4.8-10.9-14.5-12.2-22.7-12.3
		c-5,0-10.1-0.2-15.1,0.7c-6.5,1.2-12.1,5.9-17.4,11.2c-8.2,8.2-15.2,19-21.9,29.5c-25.3,39.3-45.9,84.2-68.8,126.3
		c-0.4,0.8-0.9,1.6-1.3,2.4l-0.2,9.2c8.3-14.1,16.1-28.7,23.8-43.5c20.6-39.7,40.4-80.7,65-115.8c1.6-2.3,3.3-4.7,5-6.9
		c0.3-0.4,0.6-0.8,0.9-1.1c4.6-2.4,9.8-2.2,14.7-2.3c8-0.2,17.3-1,24.1,6.3c6.4,6.9,7.5,19.2,5.1,29.6c-1.3,5.4-3.5,10.3-6.5,14.1
		c-0.4,0.3-0.9,0.7-1,0.8c-1.9,1.3-3.9,2.3-5.9,3.3c-9.1,4.2-18.6,6-27.6,10.4c-10.3,5.2-20.2,14.2-28,25.2
		c-6.4,9-11.4,19.7-16.7,30c-5.5,10.7-11.3,21.1-17.5,31c-11,17.8-23.1,34.4-36,49.4l-0.1,3.2c19.8-21.7,37.8-46.6,53.6-74
		c6.3-11,11.9-22.6,17.9-33.9c2.9-5.5,6-10.8,9.6-15.5c0.7-0.9,1.7-2.2,2.3-2.8c0.2-0.2,0.3-0.4,0.3-0.4c1.5-1.2,3.5-2,5-2.8
		c9.7-5,20.1-6.6,29.9-11.6c5.5-2.8,10.6-6.7,15.4-11.3c4.5-4.2,9.1-9,12.3-15.4c4-8,5.9-19.3,3.5-28.7c4.6,16.9,6.7,35.1,6.4,53.2
		c-0.2,9.4-0.7,19.8-4.4,27.9c-0.2,0.5-0.4,0.9-0.7,1.4c-0.3,0.2-0.6,0.3-0.8,0.4c-2.9,1-5.8,1.4-8.8,1.3
		c-7.3-0.2-14.3-3.1-21.6-3.9c-6.8-0.7-13,1-19.1,5.6c-6.7,5-13,11.5-18.3,19.3c-4.2,6.2-7.7,13.1-11.2,20.1
		c-7.4,15-15.2,29.1-24.4,41.9c-4.6,6.4-9.5,12.5-14.5,18.2c-2.4,2.7-4.7,5.2-7.2,7.9c-0.9,0.9-1.2,1.3-1.7,1.7
		c-0.6,0.6-1.3,1.3-1.9,1.9c-0.6,0.6-1.3,1.3-1.9,1.9c-0.2,0.2-0.4,0.4-0.6,0.6c0,0,0,0,0,0c-0.1,0.1-0.1,0.1-0.2,0.2
		c0,0,0,0-0.1,0.1c0,0-0.1,0.1-0.1,0.1c0,0,0,0,0,0c0,0-0.1,0.1-0.1,0.1c-1.4,1.3-2.8,2.6-4.2,3.9c0,0-0.2,0.2-0.4,0.4c0,0,0,0,0,0
		c0,0,0,0,0,0c0,0-0.1,0-0.1,0.1c0,0,0,0,0,0c0,0-0.1,0.1-0.1,0.1c0,0,0,0,0,0c0,0,0,0,0,0c0,0,0,0,0,0c0,0,0,0,0,0c0,0,0,0,0,0
		c0,0,0,0,0,0c-0.2,0.2-0.3,0.3-0.4,0.3c-0.7,0.6-1.3,1.2-2,1.8c-3,2.7-4.7,4.1-7.7,6.5c-1.2,1-2.5,2-3.7,3l0,2.4
		c1.3-1.1,2.6-2.2,3.9-3.3c23.9-20.3,46.8-44.1,64.9-74.6c8.1-13.5,14.3-29.2,22.7-42.3c1-1.6,2.1-3.1,3.2-4.6
		c0.3-0.3,0.5-0.7,0.8-1c0.2-0.2,0.5-0.3,0.7-0.4c1.3-0.8,2.7-1.3,4-1.8c7.6-2.4,15.4,0.2,23,1.9c6.1,1.4,12.4,2.1,18.4-0.4
		c3.8-1.5,7.3-4.4,10.6-7.4c3.4-3.2,6.9-6.6,9.3-11.4c3.8-7.5,4.6-17.3,5-26.4c0.4-10.5-0.1-21.1-1.4-31.4
		c-1.3-10.2-3.4-20.2-6.2-29.7c-2.5-8.3-5.5-17.4-10.5-23.2c-5.7-6.7-12.9-5.5-19.8-4.4c-7,1.1-14,2.4-20.9,4.8
		c-15.3,5.3-29.4,17.1-40.8,32.7c-5,6.9-9.5,14.5-13.9,22.2c-5,8.8-10,17.6-15,26.3C2032.9,381.6,2021,402.6,2009.1,423.5z
		 M2088.7,297.5C2088.8,297.5,2088.8,297.5,2088.7,297.5L2088.7,297.5C2088.8,297.4,2088.8,297.4,2088.7,297.5
		C2088.8,297.5,2088.8,297.5,2088.7,297.5z M2140,359.3c0.5-0.4,0.8-0.6,0.3-0.1c-0.5,0.5-1.8,1.9-0.6,0.4
		C2139.9,359.5,2139.9,359.4,2140,359.3z M2102.6,311.6c-0.1,0.1-0.2,0.1-0.3,0.2c-1.9,1,0.5-0.2,1.4-1.5
		C2103.4,310.7,2103,311.1,2102.6,311.6z M2090.9,386.1c-0.2,0.2-0.4,0.3-0.6,0.5C2090.6,386.3,2090.9,386,2090.9,386.1z
		 M2090.3,386.6c-0.2,0.2-0.5,0.5-0.6,0.6C2089.9,387,2090.1,386.8,2090.3,386.6z"/>
	<path class="accentcolor2" d="M2117.1,328.5C2117.2,328.5,2117.2,328.5,2117.1,328.5C2117.4,328.2,2117.7,327.9,2117.1,328.5
		C2117.2,328.4,2117.2,328.4,2117.1,328.5z"/>
	<path class="accentcolor2" d="M2126.6,63.1l-5.6,1c-26.5,19.6-51.4,43.8-74,71.4c-11.8,14.5-22.8,30.1-33.1,46.6l-0.2,8.1
		c17.2-29.2,36-56.2,57.5-79.3C2088.4,92.2,2107,76.3,2126.6,63.1z"/>
	<path class="accentcolor2" d="M2005.7,589.7l-0.1,2.7c21.8-16.5,43.3-34.1,64.2-52.9c11.6-10.5,23-21.3,34.2-32.6c0.7-0.7,1.5-1.5,2.2-2.2
		c0.5-0.5,1-1,1.5-1.6c0,0,0,0,0,0c0,0,0,0,0,0c0,0,0,0,0,0c0,0,0,0,0.1-0.1c0,0,0,0,0,0c0,0,0,0,0,0c0,0,0,0,0,0c0,0,0,0,0.1-0.1
		c1.2-1.2,2.4-2.4,3.6-3.6c0.1-0.1,0.1-0.1,0.2-0.2c0,0,0.1-0.1,0.1-0.1c0,0,0,0,0,0l0,0c0.1-0.1,0.2-0.1,0.2-0.2
		c0.3-0.2,0.5-0.5,0.8-0.7c0,0,0.1-0.1,0.1-0.1c0,0,0,0,0,0c0,0,0,0,0,0c0,0,0,0,0,0c0,0,0,0,0,0c0,0,0,0,0,0c0,0,0,0,0,0
		c0,0,0,0,0,0c0.3-0.2,0.5-0.5,0.8-0.7c0.6-0.5,1.6-1.3,2.6-2.1c5-3.7,10.7-6.2,16.4-5.9c11.8,0.6,19.9,14.3,25.2,28.1
		c6,15.5,9.4,33,9.9,50.6c0.3,8.3,0.1,17.1-1.6,25c-0.8,3.6-2,7-3.7,9.9c-0.1,0.1-0.3,0.1-0.4,0.2c-9.6,4.2-19.9,2-29.8,3.6
		c-11.8,2-22.7,10.1-32.7,18.9c-5.5,4.8-10.8,9.9-16.1,15.1c-1.2,1.2-2.5,2.4-3.7,3.6c-0.5,0.5-1.1,1-1.6,1.6c0,0-0.1,0.1-0.2,0.2
		c0,0,0,0,0,0c-0.2,0.2-0.5,0.5-0.7,0.7c-0.7,0.6-1.3,1.2-2,1.9c-0.3,0.3-0.7,0.6-1,0.9c0,0-0.1,0.1-0.1,0.1c0,0,0,0,0,0
		c0,0,0,0,0,0c0,0,0,0,0,0c0,0-0.1,0.1-0.1,0.1c0,0,0,0,0,0c0,0,0,0,0,0c0,0,0,0,0,0c0,0,0,0,0,0c0,0,0,0-0.1,0.1c0,0,0,0,0,0h0
		c0,0,0,0,0,0c0,0,0,0-0.1,0c0,0,0,0,0,0c0,0,0,0,0,0c-0.1,0.1-0.1,0.1-0.1,0.1c-0.3,0.3-0.7,0.6-1,0.9c-0.5,0.4-1.4,1.2-1.6,1.4
		c-10,8.5-21.5,15.3-33,20c-11.3,4.6-22.8,7-34.4,8.2l-0.2,8.3c4.2-0.6,8.3-1.5,12.5-2.7c12.4-3.5,24.4-9.2,35.9-16.8
		c12.2-8.2,23.5-18.5,34.6-29.4c1.2-1.2,2.5-2.4,3.7-3.6c0.1-0.1,0.8-0.8,1.2-1.1c0,0,0,0,0,0c0,0,0.1-0.1,0.1-0.1c0,0,0,0,0,0
		c0,0,0,0,0,0c0,0,0,0,0,0c0,0,0,0,0,0c0.4-0.4,0.8-0.8,1.2-1.2c0.7-0.7,1.5-1.4,2.2-2.1c0.1-0.1,0.6-0.6,0.9-0.9c0,0,0,0,0,0
		c0.1,0,0.1-0.1,0.1-0.1c0,0,0.1,0,0.1-0.1c0,0,0,0,0,0h0c0,0,0,0,0,0c0.5-0.4,1-0.9,1.5-1.3c0.2-0.2,0.4-0.3,0.5-0.5c0,0,0,0,0,0
		c0,0,0,0,0.1-0.1c0,0,0,0,0,0c0,0,0,0,0,0c0,0,0,0,0,0c0,0,0,0,0,0c0,0,0,0,0.1,0c0.1-0.1,0.2-0.2,0.3-0.2
		c4.5-3.7,9.4-7.1,14.5-9.4c10.3-4.6,20.8-3,31.4-4.5c5-0.7,9.8-2.4,14.2-5.9c5.9-4.6,12.6-10.5,15.9-19.3
		c2.7-7.3,3.4-15.7,3.5-23.8c0.1-9-0.5-18-1.8-26.8c-2.5-16.5-7.5-33.8-15.6-46.4c-3.8-5.9-8.5-10.5-14-12.1
		c-5.6-1.7-11.2-0.3-16.5,2.5c-13.1,6.8-24.2,19.8-35.4,30.9c-5.7,5.6-10,9.8-15.8,15.2c-5.7,5.3-10.2,9.4-16.1,14.5
		C2044.7,559.6,2025.4,575,2005.7,589.7z"/>
	<path class="accentcolor2" d="M2001.5,800.6c-0.1,3-0.1,6-0.1,8.9c18.8-1,37.7-1.1,56.4-3.7c13.7-1.9,27.4-5,40.5-10.9
		c6.7-3,13.1-6.9,19.7-10.6c6.2-3.5,12.7-6.4,19.4-6.3c5.9,0.1,12.1,2.6,16.5,8.6c4.7,6.3,6.8,15.4,8.4,24.1
		c3.7,20.1,4.5,41.2,3.3,61.8c-2.6,42.4-13.7,82.3-25.6,120.9c-11,35.8-21.8,72.5-40.1,102.1c-0.1,0.1-0.1,0.2-0.2,0.2l1.7,3.5
		c8.3-11.7,15.9-24.5,22.2-38.7c7.8-17.4,13.8-36.2,19.7-55c6.1-19.5,12.3-39,17.6-58.9c10.5-39.1,17.9-81.1,14.4-123.3
		c-0.8-10.2-2.3-20.5-4.6-30.2c-2.1-8.6-5.5-16.5-11.3-20.8c-12-8.8-25.6-1.5-37,5.2c-13.1,7.7-26.6,13-40.6,16
		c-14,3-28.1,4.2-42.2,4.9C2027,799.3,2014.2,799.6,2001.5,800.6z"/>
	<path class="accentcolor2" d="M2002.5,837.3c0.2,2.9,0.5,5.8,0.8,8.7c9.3-0.6,18.6-0.9,27.8-1.3c12.8-0.6,25.7-1.1,38.5-1.7
		c12.7-0.6,25.4-1.7,38.1-1.6c5.2,0,9.9,2,13.1,8.2c2.7,5.4,3.8,12.1,4.6,18.5c2.1,16.6,3.1,33.6,3.1,50.5c0.2,34-3.5,68-10.9,100.3
		c-3.7,15.9-8.1,31.6-14.2,45.9c-2.8,6.6-6.1,12.8-9.7,18.6l1.7,3.5c3-4,5.9-8.3,8.7-12.8c15.1-24.9,23.3-57.7,28.6-89.5
		c5.6-33.4,7.3-68.1,5.1-102.2c-0.5-8.2-1.3-16.5-2.3-24.6c-0.8-6.4-2-13.1-4.8-18.3c-3.2-6-8-7.7-13-7.7
		c-6.3-0.1-12.6,0.5-18.9,0.8c-25.7,1.1-51.4,2.2-77,3.4C2015.3,836.4,2008.9,836.8,2002.5,837.3z"/>
	<path class="accentcolor2" d="M2170.8,1051c1.1-9.8,2.2-19.7,3.3-29.5c-4.3,13.7-9,27.2-14.1,40.4c-11.2,29.1-24.5,56.6-39.9,81.4
		c0.5,1.5,0.9,3,1.4,4.5c1.6-2.4,3.2-4.7,4.8-7.2C2143.7,1113.6,2158.5,1083.2,2170.8,1051z"/>
	<path class="accentcolor2" d="M2206.7,699.6c0.9-9.4,1.7-18.8,2.6-28.3c-3.6-1.1-8,1.9-11.2,3.6c-17.5,9.1-32.8,25.4-48.1,40.2
		c-30,28.8-65.8,44.5-101.8,46.2c-15.2,0.7-30.5-1.7-45.7-4.4l-0.2,11.4c6.9,1.1,13.8,2,20.7,2.5c18,1.2,36.1-1.2,53.6-7
		c17.3-5.7,34-14.5,49.7-26.2c15.8-11.7,29.8-27,44.8-40.5c7.1-6.3,14.6-11.7,22.7-15.1c4.3-1.8,7.9-1.6,10.1,4.7
		C2205.1,690.7,2205.9,695.2,2206.7,699.6z"/>
	<path class="accentcolor2" d="M2187.7,894.1c3.4-32.7,6.7-65.3,9.9-97.9c-0.4-6.3-0.9-12.6-1.6-18.9c-1.3-10.6-3.1-21.1-5.4-31.4
		c-1-4.2-2.2-8.4-5-10.7c-2.2-1.8-4.9-2.1-7.4-1.8c-6.7,0.7-13,5.3-19.2,8.5c-7.3,3.7-14.6,7.2-22,10.4
		c-29.7,12.9-60.2,21.7-91,26.2c-14.6,2.1-29.3,3.3-44,3.6l-0.2,9.2c22.9-1,45.7-4.3,68.3-9.9c29.7-7.4,58.9-18.8,87.1-34
		c5.1-2.8,11.5-6.4,17-3.4c2.8,1.5,4.5,4.7,5.5,8.6c1.3,4.8,2.3,9.8,3.2,14.8c3.8,20.5,5.5,41.8,5,63c-0.5,21.6-3.6,42.6-8,63.2
		c-4.7,21.9-9.7,43.6-14.6,65.4c-9.2,41-17.5,83-29.9,122.3c-5.5,17.2-11.8,34.1-19.5,49.4c0.7,1.8,1.4,3.7,2,5.5
		c7.8-12.5,14.1-26.7,19.7-41.3c7.1-18.6,12.7-38.1,17.8-58c5.2-20.4,9.7-41.1,14.3-61.7c5-22.5,10.1-44.9,15.1-67.3
		C2185.6,903.2,2186.6,898.7,2187.7,894.1z"/>
	<path class="accentcolor2" d="M2162.9,1120.4c0.2-2.1,0.5-4.3,0.7-6.4c-11.9,17.6-24.8,33.7-38.2,48.8c0.2,0.7,0.3,1.5,0.5,2.2
		c0.1-0.1,0.1-0.1,0.2-0.2C2138.8,1150.9,2151.3,1136.2,2162.9,1120.4z"/>
	<path class="accentcolor2" d="M2210.4,659.2c0.5-5.1,0.9-10.2,1.4-15.2c-2.4-1.1-4.9-1.9-7.5-2.4c-17.6-3.4-35.5,5.1-51.1,16.2
		c-16.5,11.7-31.6,27.1-46.8,41.8c-13.8,13.4-28.1,26.2-44.2,33c-19.8,8.4-39.5,5.7-59.3,1.5l-0.2,11.7c11.3,2,22.7,3,34.1,1.1
		c17.3-2.9,33.3-13.3,48.2-25.7c15.1-12.6,29.1-27.4,43.8-40.9c13.5-12.5,27.9-23.2,43.8-27.7c9.4-2.6,19.3-3.3,28.6,0.6
		C2204.4,654.6,2207.5,656.6,2210.4,659.2z"/>
	<path class="accentcolor2" d="M2212.5,635.1c0.2-2,0.3-4,0.5-5.9c-2.9,0.5-5.9,0.5-8.8,0.3c-7.4-0.5-14.8-2.8-22.1-4.8
		c-6.9-1.9-13.9-3.5-21-3.3c-6.9,0.2-13.7,2-20.2,5.1c-14.4,6.7-27.6,18.2-40,30.5c-5.9,5.9-11.6,12-17.4,18.2c-2.8,3-5.6,6-8.5,9
		c-1.4,1.5-2.4,2.4-3.9,4c-0.6,0.6-1.3,1.3-1.9,1.9c-0.3,0.3-0.6,0.5-0.8,0.8c0,0,0,0,0,0h0c0,0,0,0,0,0c0,0,0,0,0,0h0
		c-0.1,0.1-0.5,0.4-0.5,0.5c-0.5,0.5-1.1,1-1.7,1.5l-0.3,0.3l-0.1,0.1l-0.1,0.1c0,0,0,0,0,0c0,0,0,0,0,0c-0.2,0.2-0.5,0.5-0.6,0.5
		c-0.4,0.3-0.7,0.7-1.1,1c-1,0.9-2.2,1.9-3.6,2.9c-2.8,2.2-5.7,4.2-8.6,6c-6.6,4-13.5,6.8-20.6,8.8c-9.3,2.5-18.7,3.5-28.1,3.9
		l-0.2,8.9c3.6-0.3,7.2-0.8,10.7-1.5c14.5-2.7,28.2-9.1,41.1-19.1c13.4-10.5,25.6-23.5,37.7-36.6c2.8-3,5.6-6,8.5-9
		c1.1-1.2,2.2-2.3,3.6-3.7c0.6-0.6,1.2-1.2,1.8-1.8c0,0,0,0,0,0s0,0,0,0c0,0,0,0,0,0c0,0,0,0,0,0c0,0,0,0,0,0c0,0,0,0,0,0
		c0,0,0,0,0,0c0,0,0,0,0,0c0,0,0,0,0,0c0,0,0,0,0,0c0,0,0,0,0,0c0,0,0,0,0,0c0.1-0.1,0.2-0.2,0.4-0.4c0.4-0.3,0.7-0.7,1.1-1
		c0.2-0.2,1.2-1.1,1.5-1.4c0,0,0,0,0.1,0c0,0,0,0,0,0c0.7-0.6,1.4-1.3,2.1-1.9c0.8-0.7,2.2-1.8,3.4-2.8c3-2.3,6-4.4,9.1-6.3
		c6.3-3.8,13-6.7,19.8-8c7.1-1.4,14.3-0.8,21.3,0.8c13.6,3.1,28.3,10.1,42.2,5.1C2209.4,637,2211,636.1,2212.5,635.1z"/>
	<path class="accentcolor2" d="M2214.7,610c0.8-9.2,1.6-18.3,2.4-27.5c-6.5-13.4-14.1-25.7-20.3-39.5c-7.8-17.6-13.9-36.7-18.6-56.5
		c-4.2-17.5-7.5-39.7-20.8-47.4c-6.5-3.7-12.6-1.1-18.4,3.7c-7.6,6.1-14.2,14.2-21.1,21.9c-12.6,14.2-25.2,28.4-37.7,42.6
		c-5.8,6.6-11.6,13.1-17.6,19.3c-2.8,2.9-5.4,5.4-8,7.9c-2.5,2.3-5.3,4.8-8.3,7.2c-12.9,10.4-26.6,18.9-40.1,27.7l-0.1,3.4
		c3.3-2.2,6.5-4.3,9.8-6.5c14.4-9.6,28.5-20,41.8-32.6c13.3-12.7,25.8-27.1,38.4-41.3c12.6-14.2,25.2-28.5,37.8-42.7
		c0.3-0.3,0.6-0.6,0.9-1c0.4-0.2,0.8-0.6,1.2-0.8c0.8-0.4,1.6-0.7,2.4-0.9c3.1-0.8,6.3-0.1,9.2,1.6c5.9,3.5,10.3,10.7,13.2,18.7
		c3.3,9,5.1,19,7.4,28.6c2.4,9.9,5,19.6,8.1,29.1c6.1,18.7,14,35.5,22.8,51.8c4.3,8,8.6,16,12.3,24.6
		C2212.3,603.9,2213.6,606.8,2214.7,610z"/>
	<path class="accentcolor2" d="M2103.5,1589.4c0.1-0.8,0.2-1.6,0.3-2.4c-2,1.8-3.9,3.7-5.8,5.5c-0.1,0.8-0.1,1.5-0.2,2.3
		c0.3-0.3,0.6-0.6,0.9-0.8c0.5-0.4,0.9-0.9,1.3-1.3c0.1-0.1,0.1-0.1,0.1-0.1c0,0,0,0,0,0c0,0,0,0,0,0c0,0,0,0,0.1-0.1
		c0.5-0.5,1.1-1.1,1.7-1.6C2102.5,1590.4,2103,1589.9,2103.5,1589.4z"/>
	<path class="accentcolor2" d="M2097,1619.7c0,0,0.1,0,0.1,0l0,0c1.1,0.2,2.2-0.5,2.4-1.6c0.1-0.8,0.2-1.6,0.3-2.4
		C2098.9,1617.1,2098,1618.4,2097,1619.7z"/>
	<path class="accentcolor2" d="M2134,1359c0.6-4.4,1.1-8.9,1.7-13.3c-4.7,10.3-9.9,19.9-15.9,28.8c-0.5,0.7-1,1.5-1.5,2.2
		c-0.1,1.6-0.3,3.2-0.4,4.9C2123.7,1374.5,2129.1,1367.1,2134,1359z"/>
	<path class="accentcolor2" d="M2157.5,1166.6c0.4-3.5,0.8-6.9,1.2-10.4c-1,0.2-2,0.4-3,0.7c-8,2.7-15.2,9.2-22.1,15.3
		c-1.8,1.6-3.6,3.2-5.4,4.8c0.1,0.6,0.2,1.2,0.3,1.8c0.2-0.1,0.3-0.3,0.5-0.4c0,0,0,0,0,0c0,0,0,0,0,0c0,0,0,0,0,0c0,0,0,0,0,0
		c0,0,0,0,0.1-0.1h0c0.2-0.2,0.6-0.6,0.7-0.7c0.4-0.3,0.8-0.7,1.1-1c0.9-0.8,1.7-1.5,2.6-2.3c1.1-1,1.9-1.6,3.3-2.7
		c3.1-2.4,6.4-4.4,9.9-5.4C2150.3,1165.2,2154.1,1165.2,2157.5,1166.6z"/>
	<path class="accentcolor2" d="M2107,1564.5c0.1-1,0.3-2.1,0.4-3.1c-2.3,1.7-4.6,3.5-6.9,5.2c-0.1,0.9-0.2,1.9-0.3,2.8
		C2102.5,1567.8,2104.7,1566.1,2107,1564.5z"/>
	<path class="accentcolor2" d="M2109.3,1547.1c0.2-1.6,0.4-3.1,0.6-4.7c-2.7,3.3-5.4,6.7-8.1,10.1c-0.1,1.4-0.3,2.9-0.4,4.3
		C2104.1,1553.6,2106.7,1550.4,2109.3,1547.1z"/>
	<path class="accentcolor2" d="M2119.9,1467.8c0.1-1,0.3-2,0.4-3c-3.8,4-7.5,8-11.3,12c-0.1,0.9-0.2,1.9-0.3,2.8
		C2112.5,1475.7,2116.2,1471.8,2119.9,1467.8z"/>
	<path class="accentcolor2" d="M2121.7,1454.3c0.1-1,0.3-2,0.4-3c-4,4.3-7.9,8.5-11.9,12.8c-0.1,1-0.2,1.9-0.3,2.9
		C2113.9,1462.7,2117.8,1458.5,2121.7,1454.3z"/>
	<path class="accentcolor2" d="M2127.5,1410.2c0.1-1,0.3-2,0.4-3.1c-4.6,5-9.2,10.1-13.8,15.1c-0.1,1-0.2,2-0.3,3
		C2118.4,1420.2,2122.9,1415.2,2127.5,1410.2z"/>
	<path class="accentcolor2" d="M2218.7,563.5c0.6-7.1,1.2-14.2,1.8-21.2c-3.7-5.3-7.4-10.8-10.8-16.6c-19.1-32.2-26.2-74-20.9-115.4
		c5.2-40,19.1-77.3,19.9-118.5c0.7-34.6-8.5-71.1-33-83.4c-22.6-11.4-47.9,0.6-67.9,16.5c-22.4,17.9-42.3,42.4-59.6,69.5
		c-13.9,21.7-26.2,45.2-37.8,69.3l-0.3,12.9c14.6-31.4,29.7-62.2,47.5-90.2c18-28.2,38.8-55.6,64.7-67.1c22.8-10.1,49.8-8,65.1,21.7
		c14,27.2,12.9,64.9,7.5,96.2c-7,40.6-20.7,79.8-17.8,122.7c1.3,20.2,5.9,39.9,13.2,57.2c7.3,17.3,17.6,31.3,27.7,45.3
		C2218.2,562.8,2218.4,563.2,2218.7,563.5z"/>
	<path class="accentcolor2" d="M2221.5,529.1c0.7-9,1.5-17.9,2.2-26.9c-0.8-2.1-1.7-4.2-2.4-6.3c-13.7-37.5-19-80.9-14.7-122.8
		c4.8-46.7,20.8-88.8,27.1-134.8c2.7-20,1.6-40.2-6.2-57.6c-6.6-14.6-16.5-25.7-27.5-32.8c-26.6-17.2-56.1-7.8-81.5,9.4
		c-26.2,17.7-50.5,42.1-73.2,67.8c-11.6,13.2-22.6,27-33.2,41.6l-0.1,5.5c15.6-22.7,32.3-43.8,50.3-63.1
		c24.8-26.5,52.6-52.7,83.7-59.4c25.6-5.5,53.8,5.9,69.5,37.1c18.6,36.8,4.3,82.3-4.8,120.4c-10.2,42.7-19,85.7-14.7,131.3
		C2199.3,471.6,2208.2,502.2,2221.5,529.1z"/>
	<path class="accentcolor2" d="M2228.3,443.7c1.1-14.6,2.2-29.2,3.3-43.8c-3.1-22.7-3.5-46.2-1.1-69.1c1.9-18.5,5.5-36.3,9.6-53.9
		c1-15.6,2-31.1,2.9-46.6c-2.5,11.1-5.3,21.9-7.8,32.3c-10.5,43.9-19.5,88.1-15.1,135C2221.5,413.6,2224.3,429,2228.3,443.7z"/>
	<path class="accentcolor2" d="M2247,158.5c0.6-10.7,1.1-21.5,1.7-32.2c-6.6-11.8-15.4-21-25-27.2c-27.3-17.7-57.7-8-83.8,9.7
		c-26.8,18.2-51.8,43.2-75.1,69.5c-18.8,21.3-36.1,44.4-52.2,69.1l-0.1,6.9c21.1-33.8,44.1-65,69.7-92.3
		c25.5-27.3,54.3-54.4,86.4-61.3c26.3-5.7,55.4,6.1,71.5,38.1C2243.3,145,2245.5,151.7,2247,158.5z"/>
	<path class="accentcolor2" d="M2115.1,1504.5c0.1-1,0.3-1.9,0.4-2.9c-3.2,3.4-6.5,6.8-9.7,10.3c-0.1,0.9-0.2,1.8-0.3,2.7
		C2108.7,1511.2,2111.9,1507.9,2115.1,1504.5z"/>
	<path class="accentcolor2" d="M2251,76.3c0.3-6.5,0.5-12.9,0.8-19.4c-3-2.7-6.1-5.1-9.3-7.2c-3.1-2-6.3-3.7-9.5-5.1l-29,5
		C2221.2,51.2,2238.2,59.8,2251,76.3z"/>
	<path class="accentcolor2" d="M2170.2,55.6l-12.1,2.1c-1.1,0.7-2.3,1.5-3.4,2.2c-28,18.9-54.1,45-78.3,72.5c-23,26.1-43.9,54.8-63.2,85.6
		l-0.2,7.6c24.2-40.6,51-77.8,81.2-110.1C2117.1,91.1,2142.4,66.8,2170.2,55.6z"/>
	<path class="accentcolor2" d="M2107.3,355.5c2.4,0,4.6-0.1,6.9-1.3c3.7-2,7.2-4.9,10.5-8c4.9-4.7,11.8-12.2,9.8-22.1c-0.6-3.3-2.3-5.9-4.8-6
		c-3.1-0.1-6.3,2.9-8.9,5.1c-6.2,5.2-11.9,11.4-17.4,18c-2.2,2.6-4.3,5.3-6.6,7.8c0,0-0.2,0.2-0.5,0.5c-0.2,0.1-0.4,0.3-0.4,0.4
		c-0.5,0.4-1,0.7-1.5,1c-6.1,3.9-12.1,7.3-17.8,12.6c-2.9,2.8-6.6,5.9-8.5,10.3c-1.2,2.6-1.6,6.6,0.9,8c2.2,1.2,4.8-0.4,6.8-1.4
		c2.7-1.3,5.3-2.7,7.8-4.4c6.5-4.4,13.4-10.1,18.3-17.8c0.7-1,1.3-2.1,1.9-3.2c1-0.1,2.1-0.1,3.2,0.4
		C2107.1,355.6,2107.2,355.6,2107.3,355.5z M2117,328.6C2117.1,328.6,2117.1,328.6,2117,328.6C2117.1,328.5,2117.1,328.5,2117,328.6
		c0,0-0.1,0.1-0.2,0.2C2116.5,329,2116.3,329.2,2117,328.6C2117.1,328.6,2117.1,328.6,2117,328.6
		C2117.1,328.6,2117.1,328.6,2117,328.6z M2117.1,346c-5.7-2.2-11.1,2.6-15.7,7.1c-2.8,2.8-5.1,6-7.2,9.9c-0.8,1.4-1.5,2.8-2.4,4.1
		c0,0,0,0,0,0c-1.5,0.9-3.4,2.3-4.9,3.1c-1.8,0.9-3.7,2.1-5.6,2.5c-2,0.4-4.1-0.8-4.1-4.1c0-1.4,0.4-2.7,1-3.9
		c3.8-2.2,7.6-4.5,11.2-7.2c5.7-4.2,11-9.4,16-15.1c3.7-4.2,7.2-8.8,10.9-13c-0.1,0.2,0.3-0.3,0.6-0.7c0.3-0.2,0.6-0.4,0.8-0.5
		c2.3-1.2,4.5-0.2,5.8,2.8c2.1,4.9,0.9,10.2-1.2,14.4c-0.1,0-0.2,0.1-0.2,0.1C2120.5,346.1,2118.8,346,2117.1,346z M2122.3,345.4
		c0.5-0.2,1-0.5,1.4-0.8c-0.9,0.7-1.9,1.7-2.6,2.9C2121.6,346.8,2122,346.1,2122.3,345.4z M2123.8,344.6c1.6-1.3,2.7-1.7,0.2-0.1
		C2123.9,344.5,2123.8,344.6,2123.8,344.6z M2117.1,328.6 M2078.2,364.7c-0.6,0.3-1.1,0.7-1.7,1c0.7-0.4,4-5.2,2.8-2.7
		c-0.2,0.4-0.6,0.8-0.8,1.2C2078.4,364.3,2078.3,364.5,2078.2,364.7z M2090.6,368.9C2090.6,368.9,2090.6,368.9,2090.6,368.9
		C2090.6,368.9,2090.6,368.9,2090.6,368.9z M2090.6,368.9c0.3-0.6,0.9-1.2,1.3-1.7c0.4-0.2,0.7-0.4,1-0.5
		C2092.4,366.8,2090.9,368.1,2090.6,368.9z M2117.1,346C2117.1,346,2117.2,346,2117.1,346c0.3,0.1-1.5,2.3-1.2,1.9
		c-1.1,1.3-2.3,2.5-3.5,3.6c-1.2,1.1-2.4,2.2-3.7,3.1c-0.4,0.3-0.9,0.8-1.4,0.9c0,0,0,0,0,0c-0.6,0,0.1-0.8,0.3-1
		c0.8-1.2,2-2.3,2.9-3.2c1.3-1.3,2.6-2.5,4-3.6c0.7-0.5,1.8-1.8,2.5-1.7C2117,346,2117.1,346,2117.1,346z M2103.8,355.2
		c-1.2,0.1-2.3,0.5-3.6,0.9c0,0-0.1,0.1-0.1,0.1c2.3-2.2,4.7-4.4,7-6.6c-0.3,0.4-0.6,0.8-0.8,1.3c-0.5,0.8-0.9,1.6-1.4,2.4
		C2104.5,353.8,2104.1,354.5,2103.8,355.2z M2096.1,349.8c-0.3,0.3,0,0,0.2-0.3c0.2-0.2,0.4-0.3,0.1,0
		C2096,350,2095.3,350.6,2096.1,349.8z"/>
	<path class="accentcolor2" d="M2096.1,349.8C2096.1,349.8,2096.1,349.8,2096.1,349.8C2096.1,349.8,2096.1,349.8,2096.1,349.8z"/>
</g>
<path class="accentcolor" d="M1994.1,2399.6c-6.6,9.4-19.7,0.3-18.2-11.1C2031,1961.6,2094,1244.2,2094,1244.2c4.4-42.8-2.2-80.2-21-118.9
	l-63-129.2c-32.3-66.3-46.2-124.3-44.7-198.1l14.9-744.5L2289.7,0c0,0-21.3,909-263.3,2324.3c-3.6,21.2-6.9,39.4-19.3,57
	L1994.1,2399.6z M2008.9,2298.5c112.9-663.4,210.2-1418.8,249.9-2095.4c3.5-59.1,6.3-118.2,8.4-177.3l-265.8,45.9l-14.5,726.9
	c-1,33.9,2.4,67.8,10.2,100.9c7.5,30.1,18.4,59.2,32.2,86.9l63,129.3c20.3,40.4,28.4,85.8,23.2,130.7
	c-20.2,226.6-41.9,453-65.2,679.3c-7.6,73.3-15.5,146.6-23.7,219.9C2021,2196.5,2015.1,2247.5,2008.9,2298.5z"/>
</svg>
