<?xml version="1.0" encoding="utf-8"?>
<!-- Generator: Adobe Illustrator 27.9.1, SVG Export Plug-In . SVG Version: 6.00 Build 0)  -->
<svg class="v" version="1.1" xmlns="http://www.w3.org/2000/svg" xmlns:xlink="http://www.w3.org/1999/xlink" x="0px" y="0px"
	 viewBox="0 0 2289.7 2403.5" style="enable-background:new 0 0 2289.7 2403.5;" xml:space="preserve">
     $gradientDefs

<path class="maincolor" d="M1994.1,2399.6l13-18.4c12.4-17.6,15.7-35.8,19.3-57C2268.4,909,2289.7,0,2289.7,0l-309.5,53.5L1965.3,798
	c-1.5,73.7,12.4,131.8,44.7,198.1l63,129.2c18.8,38.7,25.5,76.1,21,118.9c0,0-63,717.4-118.1,1144.3
	C1974.4,2399.9,1987.4,2409,1994.1,2399.6z"/>

<path class="maincolor" d="M295.6,2399.6l-13-18.4c-12.4-17.6-15.7-35.8-19.3-57C21.3,909,0,0,0,0l309.5,53.5L324.4,798
	c1.5,73.7-12.4,131.8-44.7,198.1l-63,129.2c-18.8,38.7-25.5,76.1-21,118.9c0,0,63,717.4,118.1,1144.3
	C315.3,2399.9,302.2,2409,295.6,2399.6z"/>
</svg>
