<?xml version="1.0" encoding="utf-8"?>
<!-- Generator: Adobe Illustrator 27.9.1, SVG Export Plug-In . SVG Version: 6.00 Build 0)  -->
<svg class="v" version="1.1" xmlns="http://www.w3.org/2000/svg" xmlns:xlink="http://www.w3.org/1999/xlink" x="0px" y="0px"
	 viewBox="0 0 2289.1 2403.5" style="enable-background:new 0 0 2289.1 2403.5;" xml:space="preserve">
     $gradientDefs

	<path class="maincolor" d="M295.6,2399.6l-13-18.4c-12.4-17.6-15.7-35.8-19.3-57C21.3,909,0,0,0,0l309.5,53.5L324.4,798
	c1.5,73.7-12.4,131.8-44.7,198.1l-63,129.2c-18.8,38.7-25.5,76.1-21,118.9c0,0,63,717.4,118.1,1144.3
	C315.3,2399.9,302.2,2409,295.6,2399.6z"/>
<g>
	<path class="accentcolor" d="M264.4,1957c-0.2-1.9-0.4-3.8-0.6-5.6c-17.8,9.7-34.3,23.2-48.8,41c-1.7,2.1-3.4,4.2-5,6.4
		c0.3,1.7,0.5,3.5,0.8,5.2c4.6-6.3,9.1-12.7,13.9-18.7c1.8-2.2,3.5-4.4,5.4-6.4c0.6-0.7,1.3-1.4,1.9-2c0,0,0,0,0,0
		c0.1-0.1,0.2-0.2,0.5-0.4c0,0,0,0,0,0c0,0,0,0,0,0c0,0,0,0,0.1-0.1c0,0,0,0,0,0c0,0,0.1-0.1,0.1-0.1c0,0,0.1-0.1,0.1-0.1
		c0,0,0,0,0,0c0,0,0,0,0,0c0,0,0,0,0,0c0.2-0.1,1.3-1.1,1.4-1.2c0.8-0.7,1.7-1.3,2.5-2c1.8-1.3,3.6-2.6,5.4-3.8
		C249.3,1964.4,256.8,1960.6,264.4,1957z M232.8,1976 M232.8,1976C232.8,1976,232.8,1976,232.8,1976
		C232.8,1976,232.8,1976,232.8,1976z M232.8,1976"/>
	<path class="accentcolor" d="M258.4,1899.3c-0.1-1-0.2-2.1-0.3-3.1c-14.2,11.3-27.6,24.3-41.3,36.8c-1.2,1.1-1.9,1.7-2.6,2.3
		c-1,0.9-1.9,1.7-2.9,2.6c-1.5,1.4-3.8,3.3-5,4.3c-1.5,1.3-3,2.5-4.5,3.8c0.1,0.8,0.3,1.7,0.4,2.5c11.9-10.2,23.5-21.3,35.2-31.9
		c0,0,0,0,0,0v0h0c0,0,0,0,0,0c0,0,0,0,0.1-0.1c0.3-0.3,1.3-1.2,1.3-1.1c0.5-0.4,1-0.9,1.4-1.3c0.8-0.8,1.7-1.5,2.5-2.2
		c1.9-1.7,3.2-2.8,5-4.3C251.3,1904.6,254.8,1901.9,258.4,1899.3z"/>
	<path class="accentcolor" d="M196.8,1256.2c-0.7-7.9-1.1-12.1-1.1-12.1c-0.6-6.2-1.1-12.3-1.2-18.3c-2.5,14.8-6.1,29.3-10.7,43
		c-5.5,16-12.4,30.8-20.7,44.1c-4.1,6.6-8.6,12.8-13.3,18.6c-2.2,2.8-4.5,5.5-6.9,8.1c-1,1.1-2.1,2.3-3.3,3.5
		c-0.3,0.3-0.6,0.6-0.9,1l-0.3,0.4l0,0c0,0,0,0,0,0l0,0c0,0,0,0,0,0c0,0,0,0-0.1,0.1c0,0,0,0,0,0c-0.1,0.1-0.1,0.1-0.1,0.1l-0.3,0.3
		c-0.3,0.3-0.6,0.6-0.9,0.9c-0.6,0.6-1.2,1.2-1.8,1.8c0,0,0,0,0,0c0,0,0,0,0,0c0,0,0,0-0.1,0.1c0,0,0,0,0,0c0,0-0.1,0.1-0.2,0.2
		c-0.3,0.3-0.7,0.7-0.9,0.8c-0.6,0.6-1.3,1.2-1.9,1.8c-0.2,0.2-1,0.9-1.1,1c0,0,0,0,0,0c0,0,0,0,0,0c0,0,0,0,0,0
		c-1.3,1.1-2.5,2.3-3.8,3.4c-0.2,0.2-0.4,0.4-0.7,0.6c0,0,0,0,0,0c0,0,0,0,0,0c0,0,0,0,0,0h0c0,0,0,0,0,0c0,0-0.1,0-0.1,0.1
		c0,0,0,0,0,0c0,0,0,0,0,0c-0.1,0-0.1,0.1-0.2,0.2c-0.7,0.5-1.3,1.1-2,1.6c-1.4,1.2-2.8,2.3-4.3,3.4c0.1,0.9,0.2,1.9,0.4,2.8
		c16.8-13.8,32.8-29.8,46.7-48.9C179.2,1297.9,189.3,1278.1,196.8,1256.2z"/>
	<path class="accentcolor" d="M199.3,1174.1c2.9-12.9,7.1-25.6,12.6-38.4c-0.3-6.8-0.7-13.6-1.3-20.3c-1.4-16.5-2.6-37.9-13.2-48
		c-5.1-4.9-11.4-6.7-17.3-8.1c-7.4-1.8-14.9-3.5-22.3-5.2c-25.4-5.9-50.8-11.6-76.4-15.3c0.5,4.8,1.1,9.6,1.6,14.4
		c1.8,0.3,3.6,0.7,5.4,1c14.9,2.7,29.7,5.9,44.5,9.2c7.4,1.7,14.8,3.4,22.2,5.1c6.6,1.6,13.4,2.7,19.9,5.2
		c5.8,2.2,11.3,6.1,14.9,13.2c3.6,7.1,5,15.8,6.1,24.2c2.2,17.6,3.4,35.6,3.4,53.5C199.4,1167.6,199.4,1170.8,199.3,1174.1z"/>
	<path class="accentcolor" d="M84,1061.6c0.6,5.2,1.2,10.5,1.8,15.8c3.6,1.1,7.2,2.4,10.7,3.9c20.9,8.5,44.2,21.7,56.1,49.5
		c6.4,14.9,9.5,32.6,10.9,49.9c1.4,18.1,0.7,36.6-1.8,54.5c-4.8,33.6-16.1,68.5-34.5,91.1c-1.1,1.4-2.1,2.5-3.2,3.7c0,0,0,0,0,0
		c0,0,0,0,0,0l0,0c0,0,0,0,0,0c0,0,0,0,0,0c0,0,0,0,0,0c-0.2,0.2-0.7,0.7-0.9,0.9c0,0,0,0,0,0c0,0,0,0,0,0c-0.3,0.2-1.1,1-1.2,1.1
		c-0.2,0.2-0.4,0.3-0.5,0.4c0,0,0,0-0.1,0c-0.1,0.1-0.3,0.2-0.5,0.4c-1.1,0.9-2,1.6-3.2,2.5c-0.3,0.2-0.6,0.5-0.9,0.7
		c0.1,1,0.2,1.9,0.4,2.9c15.1-12.5,28.7-28.6,38.5-49.5c14.1-30.1,21.9-67.1,21.6-103.4c-0.1-18.1-2.1-36.7-6.8-53.5
		c-4.6-16.4-12.3-29.6-22.5-39.4c-9.6-9.2-20.4-15.5-31.3-20.7c-10.2-4.8-20.8-8.4-31.5-10.6C84.6,1061.8,84.3,1061.7,84,1061.6z"/>
	<path class="accentcolor" d="M89.9,1114.3c0.9,8.2,1.9,16.5,2.9,24.9c7.4,7.8,13.9,17.5,18.6,28.9c5.3,12.9,8.2,27.5,9.4,42.2
		c1.3,15.3,1.1,30.9,0.2,46.2c-0.9,16.1-2.7,32.6-7.7,47.3c-0.2,0.7-0.5,1.3-0.7,2c0.5,3.7,0.9,7.5,1.4,11.3
		c1.5-2.2,2.9-4.5,4.2-6.9c6.8-12.2,11.1-26.4,13.3-41.7c2.4-16.1,3.1-33,3-49.4c-0.1-15.9-1.4-32.1-5.2-47.1
		C122.7,1145.2,107.7,1125.5,89.9,1114.3z"/>
	<path class="accentcolor" d="M165.7,771C165.7,771,165.7,771,165.7,771C165.7,771,165.7,771,165.7,771z"/>
	<path class="accentcolor" d="M183.8,326.6C183.8,326.6,183.8,326.6,183.8,326.6C183.8,326.6,183.8,326.6,183.8,326.6z"/>
	<path class="accentcolor" d="M303.8,2308.4c-1-8.2-2-16.5-3-24.9c-2.8-1.1-5.7-1.8-8.7-1.8c-9,0-17.7,4.8-25.6,10.4
		c-2.6,1.8-5.1,3.7-7.6,5.8c0.2,1,0.3,2,0.5,3.1c0.3-0.2,0.7-0.4,1-0.6c3.9-2.4,7.9-4.4,12.1-5.5c8.4-2.3,16.8-0.7,24.1,5.8
		C299,2303,301.4,2305.7,303.8,2308.4z"/>
	<path class="accentcolor" d="M310.5,2362.9c-0.5-4.2-1.1-8.4-1.6-12.6c-12.3-0.7-24.7-1.4-36.9,0.3c-1.1,0.2-2.2,0.4-3.3,0.6
		c1,3.6,2.1,7.1,3.4,10.6c1.4,0,2.8-0.1,4.2,0C287.8,2361.8,299.2,2362.4,310.5,2362.9z"/>
	<path class="accentcolor" d="M312.9,2381.3c-0.5-4.1-1.1-8.2-1.6-12.4c-12.1-0.3-24.3-0.8-36.4-0.8c2,4.2,4.3,8.3,7.2,12.4
		C292.4,2380.8,302.6,2381.1,312.9,2381.3z"/>
	<path class="accentcolor" d="M305.6,2403c4.3-1.6,8.1-6.3,8.3-12c-8,0-16.1,0-24.1,0.5l5.8,8.1c1.2,1.7,2.5,2.7,4,3.3
		C301.6,2402.9,303.6,2402.9,305.6,2403z"/>
	<path class="accentcolor" d="M291.9,2207.7c-0.5-4.5-1-9-1.6-13.5c-15.6,1.9-31.5,13.8-44.7,25.3c0.1,0.9,0.3,1.7,0.4,2.6
		c10.2-8,21.4-14.3,33.1-15.6C283.4,2206.1,287.7,2206.4,291.9,2207.7z"/>
	<path class="accentcolor" d="M285.5,2152.1c-0.4-3.2-0.7-6.4-1.1-9.6c-0.1,0.1-0.3,0.1-0.4,0.2c-16.2,6.3-31.7,15.9-46.6,27.6
		c0.2,1.1,0.4,2.2,0.5,3.2c6.8-4.9,13.8-9.2,21-12.9c7.3-3.8,14.9-7.5,22.6-8.4C282.9,2152.1,284.3,2152,285.5,2152.1z"/>
	<path class="accentcolor" d="M281,2111.2c-0.2-2-0.5-4.1-0.7-6.1c-3.5,2.6-6.9,5.8-10.1,8.6c-8.5,7.5-16.9,15-25.4,22.4
		c-3.8,3.3-7.5,6.7-11.2,10.1c0.1,0.7,0.2,1.5,0.4,2.2c0.3-0.3,0.7-0.6,1-0.9c4.1-3.6,8.1-7.2,12.2-10.8c7.9-7,16.6-15.3,24.1-21.2
		C274.4,2113,277.7,2111.5,281,2111.2z"/>
	<path class="accentcolor" d="M276,2065.3c-0.3-2.8-0.6-5.6-0.9-8.4c-10.2,5.3-19.3,15.2-27.8,24.5c-6.9,7.6-13.7,15.2-20.5,22.7
		c0.2,1,0.3,2,0.5,3c1.7-1.8,3.4-3.7,5-5.5c8.2-9.1,16.4-18.3,24.7-27.4c0.8-0.9,1.7-1.8,2.5-2.7c0.2-0.2,0.6-0.6,0.8-0.8
		c0.9-0.6,1.8-1.2,2.7-1.8C267.1,2066.6,271.6,2065.5,276,2065.3z M260.3,2070.7c1-1,0.5-0.4,0.1-0.1
		C260.5,2070.6,260.5,2070.6,260.3,2070.7z M260.3,2070.8"/>
	<path class="accentcolor" d="M272.9,2036.8c-0.1-1.4-0.3-2.7-0.4-4.1c-1.7,1.3-3.4,2.6-5.1,3.9c-10.5,8.1-20.6,17.2-30.7,26.2
		c-4.8,4.3-9.6,8.7-14.3,13.2c0.1,0.7,0.2,1.5,0.3,2.2c6.1-5.8,12.3-11.3,19-17.2C251.5,2052.4,261.8,2043.1,272.9,2036.8z"/>
	<path class="accentcolor" d="M152.7,1610.1c0.3,2.2,0.6,4.4,0.9,6.6c0.5-0.1,0.9-0.2,1.4-0.3c4.8-1,11.1-1.5,13.2,6.4
		c1.7,6.3-0.2,14-2.4,19.5c-1.9,4.7-4.2,9.1-6.7,13.3c0.3,1.9,0.5,3.7,0.8,5.6c1.4-1.7,2.7-3.5,4.1-5.3c4.2-5.7,8-11.8,11.5-18.4
		c3-5.6,5.6-11.8,6.2-19c0.6-7-1.7-13.4-6.8-14.6c-5.7-1.3-12.3,1.3-17.6,3.9C155.6,1608.5,154.1,1609.2,152.7,1610.1z"/>
	<path class="accentcolor" d="M149.6,1587.9c0.1,0.9,0.3,1.9,0.4,2.8c8.5-9.5,17.1-18.8,25.7-28.1c0.8-0.9,1.7-1.8,2.5-2.6
		c0.1-0.1,0.2-0.2,0.2-0.2c0,0,0,0,0,0c0,0,0,0,0,0c0,0,0,0,0,0c0,0,0,0,0,0c0,0,0,0,0,0c0,0,0,0,0,0c0.2-0.2,0.5-0.5,0.7-0.7
		c0.3-0.3,0.5-0.5,0.8-0.8c0,0,0,0,0.1-0.1c0,0,0,0,0,0c0,0,0,0,0,0c0,0,0,0,0,0c0,0,0,0,0,0c0,0,0,0,0,0c0,0,0,0,0,0
		c0.1-0.1,0.4-0.4,0.6-0.6c0,0,0.1-0.1,0.1-0.1c0,0,0,0,0,0c0,0,0.1-0.1,0.1-0.1c0,0,0,0,0,0c0,0,0,0,0,0h0c0,0,0.1-0.1,0.1-0.1
		c0,0,0,0,0,0c0,0,0,0,0,0v0c0,0,0,0,0,0c0,0,0,0,0,0c0,0,0,0,0.1,0c0,0,0,0,0,0c0,0,0,0,0,0c0.2-0.2,0.6-0.5,0.7-0.6
		c0.7-0.5,1.3-1,2-1.4c1.3-0.9,2.7-1.7,4.1-2.4c3.1-1.5,6.4-2.5,9.8-2.7c3.1-0.2,6.9-0.1,9.6,2.4c5.6,5.1,2.2,17,0.7,24.1
		c-1.8,8.8-4,17.5-6.5,26c-9.1,31.1-22.1,59.9-38.4,84.2c0.2,1.8,0.5,3.5,0.8,5.3c6.6-8.4,12.8-17.3,18.6-26.9
		c16.6-27.8,29.4-60.2,37.3-95.1c1-4.4,1.9-8.8,2.7-13.2c0.7-4.1,1.4-8.9,0-12.8c-2.9-7.9-12.6-6.4-17.6-4.9
		c-7.4,2.2-14.3,7.4-20.7,13c-7.2,6.2-14.1,13.4-20.8,20.8C158.9,1577.6,154.3,1582.7,149.6,1587.9z"/>
	<path class="accentcolor" d="M232.1,1635.6c-0.5-5.3-1-10.5-1.5-15.7c-1.2,3.4-2.5,6.8-3.9,10.2c-7.4,18.5-16.4,35.7-26.4,51.4
		c-5.1,8-10.6,15.5-16.3,22.6c-2.7,3.4-5.5,6.6-8.3,9.7c-1.1,1.3-2.6,2.8-4.1,4.4c-0.3,0.3-0.6,0.6-0.8,0.9
		c-0.1,0.1-0.3,0.3-0.5,0.5c0,0,0,0,0,0c0,0,0,0-0.1,0.1c0,0-0.1,0.1-0.1,0.1h0c0,0,0,0-0.1,0.1c0,0,0,0,0,0c0,0,0,0-0.1,0.1
		c0,0,0,0,0,0c-0.2,0.2-0.5,0.5-0.5,0.5c-0.3,0.4-0.7,0.7-1,1c0.1,0.8,0.2,1.6,0.3,2.3c9-8.6,17.7-18,26-28.2
		C208.9,1678.1,221.6,1657.9,232.1,1635.6z"/>
	<path class="accentcolor" d="M217.8,1485.7c-0.1-1-0.2-1.9-0.3-2.9c-3.5,3.7-7,7.4-10.5,11.1c-15.6,16.4-31.2,33.1-46.6,50
		c-4.9,5.4-9.8,10.8-14.6,16.2c0.1,1,0.3,2.1,0.4,3.1c12.4-13.9,24.9-27.6,37.4-41.2c7.5-8,14.9-16.1,22.4-24
		c3.8-4,7.5-7.9,11.3-11.9C217.5,1486,217.7,1485.8,217.8,1485.7z"/>
	<path class="accentcolor" d="M53.4,9.2C23.2,4,22,3.8,49,8.5c-5.1,7.1-10,14.4-14.8,22C22.9,48.2,12.7,67.2,3.5,87.2
		c-0.1,0.2-0.2,0.3-0.2,0.5c0.2,5.3,0.5,10.8,0.8,16.5c3.5-8.5,7-16.8,10.7-25.1C23.9,59,34,39.9,45.1,22
		C47.8,17.7,50.6,13.4,53.4,9.2z"/>
	<path class="accentcolor" d="M25.5,4.4C4.9,0.9,4.1,0.7,18.8,3.2C12.2,16.3,6.5,30.2,1.5,44.5c0.3,7.4,0.6,15.8,1,25
		C9.1,47,16.3,24.9,25.5,4.4z"/>
	<path class="accentcolor" d="M6.2,1.1C0.1,0,0,0,0,0s0.1,5.9,0.5,17.6c1.6-4.7,3.2-9.4,4.8-14.1C5.6,2.7,5.9,1.9,6.2,1.1z"/>
	<path class="accentcolor" d="M99.3,17.2c-25.5-4.4-26.8-4.6-3.1-0.5c-8.3,9.4-16.3,19.2-24,29.5C46.7,80.4,25.7,120.1,7,162.3
		c0.3,5.3,0.6,10.7,0.9,16.2c2.9-7,5.9-14,8.9-21c19.7-45.2,41.8-87.9,69.3-124C90.4,27.9,94.8,22.5,99.3,17.2z"/>
	<path class="accentcolor" d="M180.2,31.1c10.8,1.9,9.2,1.6-3.2-0.6c-25.1,20.5-48.9,44.4-69.8,72.9C74.4,148.1,49.4,202.8,26.3,258
		c-4,9.5-7.9,19-11.9,28.6c0.4,5.5,0.7,11.1,1.1,16.8c7.7-18.4,15.2-36.9,22.9-55.3c23.1-55.1,47.8-110,80.6-154.4
		c7.9-10.8,16.3-20.9,25.1-30.2c8.4-8.9,15.8-15.8,24.8-23.2C172.6,37.1,176.4,34.1,180.2,31.1z"/>
	<path class="accentcolor" d="M150.1,25.9c-3.5-0.6-4.7-0.8-2.4-0.4c-24.5,22.7-48,47.8-69.6,75.8c-13.1,17.1-25.5,35.3-37,54.7
		c-11.2,19-21.4,39.1-31,59.8c0.3,4.9,0.6,9.9,0.9,14.9c4.1-9.4,8.3-18.7,12.6-27.9c20.2-43.1,43.4-82.4,70.5-116.8
		c6.4-8.1,13-15.8,19.7-23.4c3.3-3.7,6.5-7.2,9.9-10.8c1.8-1.9,3.7-3.8,5.5-5.7c1-1,1-1,1.6-1.6c0.8-0.8,1.6-1.7,2.5-2.5
		c1.9-1.9,3.7-3.7,5.6-5.5c0.8-0.8,1.7-1.6,2.5-2.4c0.1-0.1,0.1-0.1,0.2-0.2c0.1,0,0.1-0.1,0.1-0.1c0,0,0,0,0,0c0,0,0.1-0.1,0.1-0.1
		c0.1-0.1,0.1-0.1,0.2-0.2l0,0c0,0,0,0,0.1-0.1c0,0,0,0,0,0c0.2-0.2,0.5-0.5,0.7-0.7c1.9-1.8,3.8-3.6,5.7-5.4
		C149,27,149.5,26.4,150.1,25.9z"/>
	<path class="accentcolor" d="M183.8,326.6"/>
	<path class="accentcolor" d="M183.8,326.6"/>
	<path class="accentcolor" d="M50.8,740.6c0.1,1.5,0.3,3,0.4,4.4c23.7-14.8,47.1-30.7,69.3-49.6c12-10.2,23.8-21.2,35-33.3
		c10.5-11.3,20.2-24,30.4-35.8c1.3-1.4,2.2-2.5,3.5-3.9c0.3-0.3,0.6-0.6,0.9-0.9c0,0,0.2-0.2,0.4-0.4c0,0,0,0,0,0c0,0,0,0,0,0
		c0,0,0,0,0.1-0.1c0.2-0.2,0.6-0.5,0.8-0.8c0,0,0,0,0,0c0,0,0,0,0,0c0.1-0.1,0.3-0.2,0.3-0.3c0,0,0.1,0,0.1-0.1c0,0,0,0,0,0
		c0,0,0,0,0,0c0.1-0.1,0.3-0.2,0.4-0.3c0,0,0,0,0.1,0h0c0,0,0,0,0,0c0,0,0.1-0.1,0.1-0.1c0.3-0.2,0.5-0.4,0.8-0.6
		c0.7-0.5,1.8-1.4,2.8-2c5.1-3.3,10.4-5.5,16-6c9.8-0.8,20.4,3.3,27.8,12.8c8.5,10.9,10.5,27.8,5.9,42.6c-2.4,7.7-6,14-10.4,19.5
		c0,0-0.1,0.1-0.1,0.1c-1.2,0.9-2.5,1.8-3.8,2.7c-3.1,2-6.2,3.8-9.4,5.5c-28.4,15.2-57.3,29.3-86.1,42.7
		c-27.3,12.7-54.8,23.7-82.6,33.4c0.2,2.5,0.5,5,0.7,7.5c3.5-1.2,6.9-2.5,10.4-3.7c30.7-11.6,60.8-25.5,90.8-40.3
		c15.1-7.4,30.1-15.1,45.1-22.7c6.7-3.4,13.5-6.7,20.1-10.9c8.2-5.3,16.1-12,23.2-19.9c10.1-11.1,19.2-28.1,17.1-47.5
		c-1.5-14.6-9.5-25.1-18.8-30.1c-10.3-5.5-21.3-4.7-31.5,0.8c-14.5,7.8-27.5,21.9-39.3,36.1c-5.1,6.2-10.2,12.6-15.4,18.7
		c-2.4,2.8-4.8,5.5-7.1,8c-1.4,1.5-2.7,2.9-4.1,4.3c-0.2,0.2-0.9,0.9-1.2,1.2c0,0,0,0,0,0h0c0,0,0,0-0.1,0.1c0,0,0,0,0,0
		c0,0,0,0,0,0h0c0,0,0,0,0,0h0c0,0,0,0,0,0c-0.2,0.2-0.4,0.4-0.4,0.4c-0.4,0.4-0.8,0.8-1.2,1.2c-1.3,1.3-2.5,2.5-3.8,3.7
		c0,0,0,0,0,0c0,0,0,0,0,0c0,0-0.1,0.1-0.1,0.1c0,0,0,0,0,0c0,0,0,0,0,0c0,0,0,0-0.1,0.1c0,0,0,0,0,0c0,0-0.1,0.1-0.1,0.1
		c0,0,0,0,0,0c-0.3,0.2-0.6,0.5-0.7,0.7c-0.7,0.7-1.4,1.3-2.1,2c-0.7,0.7-1.4,1.3-2.1,2c-0.2,0.2-0.5,0.4-0.7,0.7c0,0,0,0,0,0
		c0,0,0,0,0,0c0,0,0,0,0,0c-0.1,0-0.1,0.1-0.2,0.2c-1.3,1.2-2.7,2.4-4,3.5c-2.9,2.5-4,3.5-7.2,6.1c-2.6,2.1-5.5,4.4-7.8,6.3
		C92.7,714.4,71.8,727.8,50.8,740.6z"/>
	<path class="accentcolor" d="M134.4,723.9c20.8-0.1,42.2-6,60.9-19.1c5.8-4,11.3-8.9,16.5-14.4c4-4.2,7.8-8.9,10.6-14.7
		c2.4-4.9,4.2-10.7,4.9-16.7c0.6-5.2,0.7-12.6-1.9-16.9c-2.6-4.4-7.9-2.5-11.3-1.4c-4.1,1.4-8.1,3.9-11.9,6.7
		c-4.7,3.5-9.1,7.5-13.5,11.6c-2.2,2.1-4.4,4.3-6.6,6.4c-0.8,0.8-1.5,1.5-2.3,2.3c-0.3,0.3-0.5,0.5-0.8,0.7
		c-0.1,0.1-0.4,0.3-0.5,0.4c-1.2,1.1-1.8,1.7-2.8,2.5c-1.5,1.2-3.1,2.2-4.8,3.2c-3.7,2.1-7.6,3.7-11.5,5.2
		c-7.9,3.1-15.9,6.2-23.2,11.7c-5.6,4.3-11.1,9.3-15.9,15.3c-2.9,3.6-6.8,8.6-6.5,14.7c0.3,5.4,4.3,8.6,7.7,8.8
		C126.1,730.7,130.5,727.1,134.4,723.9z M205.3,694c0.2-0.1,0.4-0.3,0.6-0.4c1.6-1.2-0.7,0.9-1.1,1.1
		C204.1,694.8,204.9,694.5,205.3,694C205.2,694,205.3,694,205.3,694z M205.3,694c-0.5,0.4-1,0.7-1.5,1c-3.6,2.4-7.4,4.4-11.2,6.2
		c-16.6,7.8-34,11.3-51.5,10.5c-1,0-2.4,1.5-3.2,2.2c-1.6,1.3-3.2,2.8-4.7,4.3c-1-0.2-2-0.7-3-1.5c-4-3.3-4.3-9.4-1.6-14.5
		c0.5-0.9,1-1.7,1.6-2.5c0.2-0.1,0.4-0.2,0.6-0.4c3.4-2.1,7-3.6,10.6-5.1c6.7-2.7,13.4-5,19.8-8.8c8.1-4.9,15.6-11.9,22.8-19
		c1.6-1.5,3.1-3,4.6-4.6c0.3-0.3,2.6-2.5,1.2-1.2c0.7-0.6,1.4-1.3,2-1.9c0,0,0.1-0.1,0.1-0.1c0.1-0.1,0.1-0.1,0.2-0.2
		c0.1-0.1,0.7-0.6,0.6-0.5c0.4-0.3,0.7-0.6,0.9-0.7c1.3-1,2.7-1.9,4.1-2.7c3.1-1.7,6.5-2.9,9.8-3c4.3-0.2,6.2,4.1,6.8,9.7
		c1.2,10.7-2,21.7-7,29.6C206.8,692,206.1,693,205.3,694z M192.7,658.2C192.6,658.2,192.6,658.2,192.7,658.2
		C192.6,658.2,192.6,658.2,192.7,658.2z M192.7,658.2c0.1-0.1,0.2-0.2,0.2-0.2C192.8,658.1,192.7,658.1,192.7,658.2z M192.6,658.3
		C192.6,658.3,192.6,658.3,192.6,658.3C192.6,658.3,192.6,658.3,192.6,658.3z M192.6,658.3c0,0-0.1,0.1-0.1,0.1
		C192.5,658.3,192.5,658.3,192.6,658.3z M192,658.7C191.5,659.1,191.8,658.9,192,658.7C192.1,658.6,192.2,658.6,192,658.7z
		 M130.2,699.7c-0.5,0.4-1.1,0.8-1.6,1.1c0,0,0,0-0.1,0c0.5-0.9,1.8-1.8,2.5-2.3c1.1-0.9-0.2,0.4-0.6,0.9
		C130.4,699.5,130.3,699.6,130.2,699.7z M128.6,700.8C128.6,700.8,128.6,700.8,128.6,700.8C128.5,701,128,701.2,128.6,700.8z
		 M133.3,718.2c2.8,0.5,5.7-1,8.2-3c0.4-0.3,5-4,2.9-0.9c-2.3,3.4-5.8,6.2-8.6,8.5c-0.4,0.4-0.9,0.7-1.3,1.1c-1.8,0-3.6,0-5.4-0.1
		c-0.7,0,0.1-0.9,0.3-1.3c1-1.5,2.5-2.8,3.6-4C133.1,718.4,133.2,718.3,133.3,718.2z M179,668.6c0.2-0.2,0.3-0.3-0.4,0.4
		C178.8,668.9,178.9,668.8,179,668.6z"/>
	<path class="accentcolor" d="M35.6,569.6c0.3,3.2,0.5,6.4,0.8,9.6c11.6-20.3,23.2-40.7,34.8-61.1c25.5-44.8,51-89.6,76.5-134.4
		c11-19.4,21.7-40.7,35.4-56.2c0.2-0.2,0.4-0.4,0.6-0.7c0,0-0.1,0.1-0.1,0.1c0,0,0.1-0.1,0.1-0.1c0,0,0.1-0.1,0.1-0.1c0,0,0,0,0,0
		c0,0,0,0,0,0c0.1-0.1,0.2-0.1,0.3-0.2c0,0-0.1,0.1-0.2,0.1c0.3-0.2,0.6-0.5,0.6-0.5c1.5-1.2,3.1-2.2,4.6-3.2c4-2.5,8.1-4.4,12.3-6
		c8.6-3.3,17.5-5.1,26.3-6.6c8.8-1.5,18.3-4,26,3.9c6.5,6.7,10.3,17.7,13.5,27.8c0.7,2.2,1.4,4.5,2,6.8c0,0,0,0,0,0
		c-0.4-1.4-0.9-2.7-1.5-3.9c-6.1-13.7-18.3-15.4-28.6-15.5c-6.3-0.1-12.8-0.3-19.1,0.9c-8.2,1.5-15.3,7.5-22,14.2
		c-10.4,10.3-19.1,24-27.7,37.3c-31.9,49.6-57.9,106.3-86.8,159.4c-13.8,25.4-28.3,50-44.4,72.4c0.1,1.7,0.3,3.4,0.4,5.1
		c27.3-34.7,50.3-75.8,72.1-117.8c26.1-50.1,51.1-101.9,82-146.2c2.1-3,4.1-5.9,6.3-8.7c0.4-0.5,0.8-0.9,1.2-1.4
		c5.9-3.1,12.4-2.8,18.5-2.9c10.1-0.2,21.9-1.2,30.4,8c8.1,8.8,9.5,24.3,6.4,37.4c-1.6,6.8-4.4,13-8.1,17.7c-0.5,0.4-1.1,0.9-1.3,1
		c-2.4,1.6-4.9,3-7.4,4.1c-11.4,5.4-23.5,7.5-34.9,13.2c-13.1,6.5-25.5,17.9-35.3,31.8c-8.1,11.4-14.4,24.9-21.1,37.9
		c-6.9,13.5-14.3,26.6-22.1,39.1c-15.9,25.8-33.6,49.4-52.6,70.5c-2.3,2.5-4.6,5-7,7.5c-2.5,2.6-3.7,3.8-6.2,6.3
		c-0.9,0.9-1.7,1.7-2.6,2.5c0,0-1.5,1.5-1.3,1.2c-1,0.9-1.9,1.8-2.9,2.7c-0.7,0.6-1.3,1.2-2,1.8c0,0-1.7,1.6-1.2,1.1
		c-1.1,1-2.2,2-3.3,2.9c-2.1,1.8-4.2,3.6-6.4,5.4c0.1,0.9,0.2,1.8,0.2,2.7C82,602.1,118.7,557,148.6,504.8
		c7.9-13.8,15-28.6,22.6-42.8c3.7-6.9,7.6-13.6,12.1-19.5c0.9-1.1,2.2-2.7,2.8-3.5c0.2-0.3,0.4-0.4,0.4-0.5c1.9-1.5,4.4-2.5,6.3-3.5
		c12.3-6.3,25.4-8.3,37.7-14.6c6.9-3.5,13.3-8.5,19.4-14.2c5.7-5.3,11.5-11.4,15.5-19.4c5-10.1,7.4-24.3,4.4-36.2
		c5.7,21.3,8.5,44.3,8,67.1c-0.2,11.8-0.9,25-5.5,35.2c-0.3,0.6-0.6,1.2-0.9,1.8c-0.4,0.2-0.7,0.4-1,0.5c-3.6,1.3-7.4,1.7-11.1,1.7
		c-9.2-0.2-18.1-4-27.2-4.9c-8.6-0.9-16.5,1.3-24.1,7.1c-8.4,6.4-16.5,14.5-23.1,24.3c-5.2,7.8-9.7,16.6-14.1,25.4
		c-9.3,18.9-19.2,36.8-30.8,52.9c-5.8,8.1-11.9,15.7-18.3,23c-3,3.4-5.9,6.6-9.1,9.9c-1.1,1.2-1.6,1.6-2.1,2.2
		c-0.8,0.8-1.6,1.6-2.4,2.4c-0.8,0.8-1.6,1.6-2.5,2.4c-0.2,0.2-0.5,0.5-0.7,0.7c0,0,0,0,0,0c-0.1,0.1-0.2,0.2-0.3,0.2
		c0,0-0.1,0.1-0.1,0.1c0,0-0.1,0.1-0.1,0.1c0,0,0,0,0,0c-0.1,0-0.1,0.1-0.2,0.2c-1.8,1.7-3.5,3.3-5.3,5c-0.1,0.1-0.3,0.3-0.5,0.5
		c0,0,0,0,0,0c0,0,0,0,0,0c0,0-0.1,0.1-0.1,0.1c0,0,0,0,0,0c0,0-0.1,0.1-0.1,0.1c0,0,0,0,0,0c0,0,0,0,0,0c0,0,0,0,0,0c0,0,0,0,0,0
		c0,0,0,0,0,0c0,0,0,0,0,0c-0.2,0.2-0.4,0.4-0.5,0.4c-0.8,0.8-1.7,1.5-2.5,2.3c-3.8,3.4-5.9,5.2-9.7,8.3
		c-7.1,5.8-14.1,11.2-21.5,16.5c-7,5.1-14,9.9-21.1,14.6c0.1,1.2,0.2,2.5,0.3,3.8c14.4-9.9,28.6-20.5,42.4-32.3
		c30.1-25.6,59.1-55.7,82-94.1c10.2-17.1,18-36.9,28.6-53.4c1.3-2,2.7-4,4.1-5.8c0.3-0.4,0.7-0.9,1-1.3c0.3-0.2,0.6-0.4,0.9-0.6
		c1.6-1,3.3-1.7,5.1-2.2c9.7-3.1,19.5,0.3,29,2.4c7.7,1.7,15.7,2.6,23.2-0.5c4.8-2,9.2-5.5,13.3-9.4c4.3-4,8.7-8.3,11.8-14.3
		c4.8-9.5,5.8-21.9,6.3-33.3c0.5-13.3-0.1-26.6-1.7-39.6c-1.6-12.9-4.3-25.5-7.9-37.5c-3.2-10.5-6.9-21.9-13.2-29.3
		c-7.3-8.5-16.3-7-25-5.6c-8.9,1.4-17.7,3.1-26.4,6.1c-19.4,6.6-37.2,21.6-51.5,41.3c-6.3,8.7-12,18.3-17.6,28
		c-6.3,11.1-12.6,22.2-18.9,33.2C102.6,451.7,76.8,497,51,542.3C45.9,551.4,40.7,560.5,35.6,569.6z M183.9,326.6
		C183.9,326.6,183.9,326.5,183.9,326.6L183.9,326.6C183.9,326.5,183.9,326.5,183.9,326.6C183.9,326.5,183.9,326.6,183.9,326.6z
		 M50.8,625.6c0,0,0.1-0.1,0.1-0.1C50.9,625.5,50.9,625.5,50.8,625.6z M51,625.4c0,0,0.1-0.1,0.1-0.1C51.1,625.3,51,625.4,51,625.4z
		 M51.1,625.3C51.1,625.3,51.1,625.3,51.1,625.3C51.1,625.3,51.1,625.3,51.1,625.3z M51,625.4C51,625.4,51,625.4,51,625.4
		C51,625.4,51,625.4,51,625.4z M56.9,619.9C56.9,619.9,56.9,619.9,56.9,619.9C56.9,619.9,56.9,619.9,56.9,619.9z M57,619.8
		C57,619.8,57.1,619.7,57,619.8C57.1,619.7,57,619.8,57,619.8z M57.1,619.7C57.1,619.7,57.1,619.7,57.1,619.7
		C57.1,619.7,57.1,619.7,57.1,619.7z M57.1,619.7C57.1,619.7,57.2,619.6,57.1,619.7C57.2,619.7,57.1,619.7,57.1,619.7z M57.2,619.6
		c0,0,0.1-0.1,0.1-0.1C57.2,619.6,57.2,619.6,57.2,619.6z M57,619.8C57,619.8,57,619.8,57,619.8C57,619.8,57,619.8,57,619.8z
		 M248.6,404.6c0.6-0.5,1-0.8,0.4-0.2c-0.6,0.6-2.2,2.4-0.7,0.5C248.4,404.8,248.5,404.7,248.6,404.6z M201.4,344.4
		c-0.1,0.1-0.3,0.1-0.4,0.2c-2.4,1.3,0.6-0.2,1.8-1.9C202.4,343.2,201.9,343.8,201.4,344.4z M186.5,438.5c-0.2,0.2-0.5,0.4-0.7,0.6
		C186.3,438.7,186.6,438.3,186.5,438.5z M185.1,439.8C185.1,439.8,185.1,439.8,185.1,439.8C185.1,439.8,185.1,439.8,185.1,439.8z
		 M185.1,439.8c0.2-0.3,0.5-0.5,0.7-0.8C185.6,439.4,185.2,439.7,185.1,439.8z"/>
	<path class="accentcolor" d="M220.9,38.2c25.5,4.4,23.9,4.1-3.8-0.7c-30.7,23.7-59.6,52.2-86,84.5c-45.6,55.8-81,125.2-114.5,196
		c-0.1,0.2-0.2,0.4-0.3,0.5c0.3,4.5,0.6,9.1,0.9,13.7c7.9-16.7,15.7-33.4,23.7-50c34.3-71.2,72-139.1,120.6-191.4
		C180.3,70.8,200.2,53.2,220.9,38.2z"/>
	<path class="accentcolor" d="M48.7,717.5c0.1,1.2,0.2,2.4,0.3,3.5c7.8-5.6,15.6-11.4,23.3-17.2c29.9-22.3,59.2-46.1,87.7-71.8
		c14.6-13.2,29-26.9,43.1-41.2c0.9-0.9,1.9-1.9,2.8-2.8c0.6-0.6,1.3-1.3,1.9-2c0,0,0,0,0,0c0,0,0,0,0,0c0,0,0,0,0.1-0.1
		c0,0,0,0,0.1-0.1c0,0,0,0,0-0.1c0,0,0,0,0,0c0,0,0,0,0,0c0,0,0.1-0.1,0.1-0.1c1.5-1.5,3-3,4.6-4.5c0.1-0.1,0.2-0.2,0.2-0.2
		c0,0,0.1-0.1,0.1-0.1c0,0,0,0,0,0l0,0c0.1-0.1,0.2-0.2,0.3-0.3c0.3-0.3,0.7-0.6,1-0.9c0.1-0.1,0.1-0.1,0.2-0.1c0,0,0,0,0,0
		c0,0,0,0,0,0c0,0,0,0,0.1-0.1c0,0,0,0,0.1,0c0,0,0,0,0,0c0,0,0,0,0,0c0,0,0,0,0,0c0.3-0.3,0.7-0.6,1-0.9c0.8-0.7,2-1.7,3.3-2.6
		c6.4-4.7,13.5-7.9,20.7-7.5c14.9,0.8,25.1,18.1,31.8,35.4c7.5,19.5,11.9,41.6,12.6,63.9c0.3,10.5,0.2,21.5-2.1,31.6
		c-1,4.5-2.5,8.8-4.6,12.5c-0.2,0.1-0.4,0.2-0.6,0.3c-12.1,5.3-25.2,2.5-37.6,4.6c-14.9,2.6-28.6,12.7-41.3,23.8
		c-6.9,6-13.6,12.5-20.3,19.1c-1.6,1.5-3.1,3-4.7,4.5c-0.7,0.7-1.4,1.3-2,2c0,0-0.2,0.2-0.3,0.3c0,0,0,0-0.1,0.1
		c-0.3,0.3-0.6,0.6-0.9,0.9c-0.8,0.8-1.7,1.6-2.5,2.4c-0.4,0.4-0.8,0.8-1.3,1.2c0,0-0.1,0.1-0.2,0.2c0,0,0,0,0,0c0,0,0,0,0,0
		c0,0,0,0,0,0c0,0-0.1,0.1-0.1,0.1c0,0,0,0,0,0c0,0,0,0,0,0c0,0,0,0,0,0c0,0,0,0,0,0c0,0-0.1,0-0.1,0.1c0,0,0,0,0,0h0c0,0,0,0,0,0
		c0,0,0,0-0.1,0.1c0,0,0,0,0,0c0,0,0,0,0,0c-0.1,0.1-0.2,0.1-0.2,0.1c-0.4,0.4-0.9,0.8-1.3,1.2c-0.6,0.5-1.7,1.5-2,1.7
		c-12.6,10.7-27.2,19.3-41.6,25.3c-15.7,6.4-31.7,9.4-47.9,10.8c-4.9,0.4-9.7,0.8-14.6,1.3c0.4,3.6,0.7,7.2,1.1,10.8
		c11.2-1,22.5-2.3,33.6-5.4c15.6-4.4,30.8-11.6,45.3-21.2c15.4-10.3,29.6-23.4,43.6-37.1c1.6-1.5,3.1-3,4.7-4.6
		c0.2-0.2,1.1-1,1.5-1.4c0,0,0,0,0,0c0,0,0.1-0.1,0.1-0.1c0,0,0,0,0,0c0,0,0,0,0,0c0,0,0,0,0,0c0,0,0,0,0,0c0.5-0.5,1-1,1.6-1.5
		c0.9-0.9,1.9-1.8,2.8-2.6c0.2-0.2,0.8-0.7,1.2-1.1c0,0,0,0,0,0c0.1-0.1,0.1-0.1,0.2-0.1c0,0,0.1-0.1,0.1-0.1c0,0,0,0,0,0h0
		c0,0,0,0,0,0c0.6-0.5,1.2-1.1,1.9-1.6c0.2-0.2,0.4-0.4,0.7-0.6c0,0,0,0,0,0c0,0,0.1,0,0.1-0.1c0,0,0,0,0,0c0,0,0,0,0.1,0
		c0,0,0,0,0,0c0,0,0,0,0,0c0,0,0,0,0.1-0.1c0.2-0.1,0.3-0.3,0.3-0.3c5.7-4.7,11.9-9,18.4-11.9c13-5.8,26.3-3.8,39.6-5.7
		c6.3-0.9,12.3-3.1,18-7.4c7.5-5.8,16-13.2,20.1-24.3c3.4-9.2,4.2-19.8,4.4-30.1c0.2-11.4-0.6-22.7-2.3-33.8
		c-3.2-20.9-9.5-42.7-19.7-58.6c-4.7-7.4-10.7-13.2-17.6-15.3c-7.1-2.1-14.2-0.4-20.9,3.1c-16.5,8.6-30.6,25.1-44.6,39
		c-7.2,7.1-12.7,12.4-19.9,19.1c-7.2,6.7-12.8,11.8-20.3,18.3c-27.9,24.5-57.1,47.4-86.5,68.8C59.8,709.6,54.2,713.6,48.7,717.5z"/>
	<path class="accentcolor" d="M203.7,1333.7c-0.2-2.7-0.5-5.3-0.7-7.9c-1.6,2.9-3.3,5.7-5,8.4c-9.6,15.5-20.5,29.6-32,42
		c-3.2,3.4-5.2,5.5-8.1,8.4c-0.9,0.9-1.9,1.9-2.8,2.8c-0.1,0.1-0.6,0.6-0.9,0.9c-0.1,0.1-0.1,0.1-0.2,0.1h0c0,0-0.1,0-0.1,0.1
		c0,0,0,0,0,0c-1.4,1.3-2.8,2.6-4.2,3.9c-0.5,0.5-1.1,1-1.6,1.5c-0.1,0.1-0.3,0.3-0.6,0.5c0,0,0,0,0,0c0,0-0.1,0-0.1,0.1
		c0,0-0.1,0.1-0.1,0.1c0,0,0,0,0,0c0,0,0,0-0.1,0.1c0,0,0,0-0.1,0.1c0,0,0,0,0,0c0,0,0,0,0,0c0,0,0,0,0,0c0,0,0,0,0,0c0,0,0,0,0,0
		c-0.1,0.1-0.2,0.2-0.2,0.2c-0.4,0.4-0.9,0.8-1.3,1.2c-1.5,1.4-3.1,2.7-4.6,4c-3.1,2.7-5.3,4.5-8.8,7.4c-2,1.6-4,3.3-6,4.9
		c0.1,0.9,0.2,1.7,0.3,2.6c11.7-9.6,23.2-19.7,34.3-30.7C176.2,1369.3,190.8,1352.6,203.7,1333.7z"/>
	<path class="accentcolor" d="M279.9,995.6c4-8.3,7.8-16.5,11.3-24.6c-0.9-6.3-2.1-12.4-3.6-18.4c-2.7-10.9-7-20.8-14.3-26.2
		c-15.1-11.1-32.3-1.9-46.8,6.5c-16.6,9.7-33.6,16.4-51.3,20.3c-17.6,3.8-35.5,5.3-53.3,6.2c-16.3,0.8-32.6,1.2-48.9,2.5
		c0.4,3.7,0.8,7.4,1.2,11.2c23.5-1.3,47.1-1.4,70.6-4.6c17.3-2.3,34.5-6.4,51.2-13.8c8.5-3.8,16.6-8.7,24.9-13.3
		c7.8-4.4,16-8,24.5-7.9c7.5,0.1,15.2,3.3,20.8,10.8c5.9,8,8.6,19.5,10.6,30.4C278.1,981.5,279.1,988.5,279.9,995.6z"/>
	<path class="accentcolor" d="M201.6,1309.8c-0.3-3.7-0.6-7.2-1-10.5c-7,15.3-15.8,28.8-25.5,40.7c-2.5,3-5,5.9-7.6,8.8c-3,3.2-5,5.3-7.7,8
		c-5.5,5.5-10.6,10.2-16.4,15.2c-6.4,5.6-13.2,11.2-20.2,16.6c0.1,0.9,0.2,1.9,0.4,2.8c2.2-1.8,4.4-3.6,6.7-5.4
		c14-11.6,27.6-24,40.7-37.6C181.9,1336.8,192.4,1324.3,201.6,1309.8z"/>
	<path class="accentcolor" d="M233.7,1090.5l12.2-25c0-0.1,0-0.3,0-0.4c-0.7-10.4-1.6-20.8-2.9-31c-1-8.1-2.6-16.5-6.1-23.2
		c-4-7.6-10.1-9.7-16.4-9.7c-8-0.1-16,0.6-23.9,1c-32.4,1.4-64.8,2.8-97.3,4.3c-7.1,0.3-14.1,0.7-21.2,1.3c0.4,3.7,0.8,7.4,1.2,11.1
		c10.6-0.6,21.2-1,31.8-1.4c16.2-0.7,32.4-1.4,48.7-2.2c16-0.7,32.1-2.1,48.1-2.1c6.5,0,12.6,2.5,16.5,10.4
		c3.4,6.8,4.8,15.3,5.8,23.4C231.9,1061.3,233.1,1075.9,233.7,1090.5z"/>
	<path class="accentcolor" d="M211.5,1418.8c-0.2-1.9-0.3-3.7-0.5-5.6c-3.4,5-7,9.9-10.6,14.6c-19.4,25.7-41.1,46.4-63.6,65.3
		c0.1,0.9,0.2,1.8,0.4,2.7C163.7,1473.5,188.9,1448.4,211.5,1418.8z"/>
	<path class="accentcolor" d="M324.5,811.5c0-3.2,0-6.5,0-9.8c-0.9,0.5-1.8,1-2.6,1.4c-22.1,11.5-41.3,32.1-60.7,50.8
		c-37.8,36.4-83.1,56.1-128.6,58.3c-21.8,1.1-43.6-3.1-65.4-6.9c0.5,4.9,1,9.8,1.5,14.7c10.6,1.8,21.3,3.4,32,4.1
		c22.7,1.5,45.5-1.5,67.7-8.8c21.8-7.1,42.9-18.4,62.7-33.1c19.9-14.8,37.6-34.1,56.6-51.1c9-8,18.5-14.8,28.6-19
		C319.3,810.8,322.1,810.3,324.5,811.5z"/>
	<path class="accentcolor" d="M209.8,1400.3c-0.2-2.2-0.4-4.3-0.6-6.4c-3.4,5.7-7.1,11.1-11.1,16c-5.5,6.8-11.5,11-18.2,15.5
		c-16,10.6-32,20.9-47.8,31.9c0.2,1.2,0.3,2.4,0.5,3.6c9.9-6.8,19.9-13.4,30-19.9C179.4,1430.2,195.9,1417.9,209.8,1400.3z"/>
	<path class="accentcolor" d="M305,934.6c3.6-10.9,6.7-21.8,9.2-32.8c-0.6-3.1-1.3-6.1-2-9.2c-1.2-5.3-2.7-10.6-6.3-13.5
		c-2.8-2.2-6.2-2.6-9.3-2.3c-8.4,0.9-16.4,6.7-24.3,10.7c-9.2,4.7-18.4,9.1-27.8,13.1c-37.4,16.3-76,27.4-114.9,33.1
		c-19.4,2.8-38.9,4.4-58.3,4.5c-0.3,0-0.5,0-0.8,0c0.4,3.9,0.8,7.8,1.2,11.7c29.6-1.2,59.1-5.3,88.3-12.6
		c37.5-9.4,74.3-23.8,109.9-42.9c6.5-3.5,14.5-8.1,21.4-4.3c3.5,1.9,5.6,6,7,10.9c1.6,6.1,2.9,12.4,4,18.7
		C303.4,924.7,304.3,929.6,305,934.6z"/>
	<path class="accentcolor" d="M213.5,1440c-0.1-0.9-0.2-1.9-0.3-2.8c-5.1,5.4-10.3,10.7-15.6,16c-19.3,19.3-39,37.7-58.7,56
		c0.1,0.8,0.2,1.5,0.3,2.3C164.3,1488.3,189.3,1465,213.5,1440z"/>
	<path class="accentcolor" d="M323.9,775c0.4,20.1,0.4,18.9-0.3-14.7c-20.3-1.5-40.5,8.5-58.4,21.2c-20.8,14.8-39.9,34.2-59.1,52.8
		c-17.4,16.9-35.5,33-55.8,41.7c-28.7,12.2-57.4,5.9-86.2-0.6c0.5,5.1,1,10.3,1.6,15.4c17.4,3.6,34.9,6.1,52.5,3.2
		c21.8-3.6,42-16.7,60.8-32.4c19-15.9,36.8-34.6,55.3-51.7c17-15.8,35.2-29.3,55.2-34.9C300.8,771.7,312.7,770.8,323.9,775z"/>
	<path class="accentcolor" d="M323.6,758.1c0.6,32.4,0.6,30.9-0.3-13.2c-7.2-1.2-14.4-3.4-21.5-5.3c-8.7-2.4-17.5-4.4-26.5-4.2
		c-8.7,0.2-17.3,2.6-25.5,6.4c-18.2,8.4-34.8,23-50.5,38.5c-7.4,7.4-14.7,15.2-21.9,23c-3.6,3.8-7.1,7.6-10.7,11.4
		c-1.8,1.8-3,3.1-4.9,5c-0.8,0.8-1.6,1.6-2.4,2.4c-0.3,0.3-0.7,0.7-1.1,1c0,0,0,0,0,0h0c0,0,0,0,0,0c0,0,0,0,0,0h0
		c-0.2,0.2-0.6,0.6-0.6,0.6c-0.7,0.6-1.4,1.3-2.1,1.9l-0.4,0.3l-0.1,0.1l-0.2,0.1c0,0,0,0-0.1,0c0,0,0,0,0,0
		c-0.3,0.3-0.7,0.6-0.7,0.7c-0.5,0.4-0.9,0.8-1.4,1.2c-1.3,1.1-2.8,2.4-4.5,3.7c-3.5,2.8-7.2,5.3-10.9,7.6
		c-8.3,5.1-17.1,8.6-26,11.1c-16.2,4.4-32.8,5.1-49.3,5.1c0.4,3.9,0.8,7.9,1.2,11.9c8.7-0.3,17.3-1.1,25.9-2.6
		c18.4-3.4,35.6-11.4,51.9-24.2c16.9-13.2,32.3-29.7,47.6-46.2c3.6-3.8,7.1-7.6,10.7-11.3c1.4-1.5,2.8-2.9,4.6-4.6
		c0.8-0.8,1.5-1.5,2.3-2.3c0,0,0,0,0,0c0,0,0,0,0,0c0,0,0,0,0,0c0,0,0,0,0,0c0,0,0,0,0,0c0,0,0,0,0,0c0,0,0,0,0,0c0,0,0,0,0,0
		c0,0,0,0,0,0c0,0,0,0,0,0c0,0,0,0,0,0c0,0,0,0,0.1-0.1c0.1-0.1,0.3-0.3,0.5-0.5c0.5-0.4,0.9-0.9,1.4-1.3c0.3-0.2,1.6-1.4,1.9-1.7
		c0,0,0.1,0,0.1-0.1c0,0,0,0,0,0c0.9-0.8,1.8-1.6,2.7-2.4c1.1-0.9,2.7-2.3,4.3-3.5c3.7-2.9,7.6-5.6,11.5-8c8-4.8,16.4-8.4,25-10.1
		c9-1.8,18-1,26.9,1C294.6,752.6,309.3,758.9,323.6,758.1z"/>
	<path class="accentcolor" d="M322,677.3c1.2,57.8,0.9,45.8-0.8-38.9c-0.3-0.6-0.6-1.3-0.9-1.9c-9.9-22.2-17.5-46.4-23.5-71.3
		c-5.3-22.1-9.4-50.1-26.3-59.8c-8.2-4.7-15.9-1.4-23.3,4.6c-9.6,7.8-18,17.9-26.6,27.6c-15.9,17.9-31.7,35.9-47.6,53.8
		c-7.3,8.3-14.7,16.5-22.3,24.4c-3.5,3.6-6.8,6.9-10.1,9.9c-3.2,2.9-6.7,6-10.5,9.1c-16.7,13.4-34.4,24.3-51.8,35.8
		c-10.7,7.1-21.4,14.1-32.1,21.2c0.1,1.3,0.2,2.7,0.4,4c15.1-9.9,30.1-19.8,45.2-29.8c18.2-12.1,36-25.2,52.7-41.2
		c16.8-16.1,32.6-34.2,48.5-52.1c15.9-18,31.8-36,47.7-53.9c0.4-0.4,0.7-0.8,1.1-1.2c0.5-0.2,1-0.7,1.5-1c1-0.5,2-0.9,3-1.1
		c4-1,8-0.1,11.7,2.1c7.5,4.5,13,13.5,16.7,23.6c4.2,11.4,6.4,24,9.3,36.1c3,12.5,6.4,24.7,10.3,36.7
		C301.7,636.8,311.3,657.3,322,677.3z"/>
	<path class="accentcolor" d="M138.3,1344.5C138.3,1344.5,138.3,1344.5,138.3,1344.5C138.3,1344.5,138.3,1344.5,138.3,1344.5z"/>
	<path class="accentcolor" d="M268,1991.1c-0.1-0.9-0.2-1.8-0.3-2.7c-9.9,8.7-19.4,18.2-28.8,27.7c-7.6,7.7-15.1,15.5-22.5,23.4
		c0.1,0.9,0.3,1.8,0.4,2.7c11.5-12.4,23.1-24.5,35-36.2C257.1,2000.8,262.5,1995.7,268,1991.1z"/>
	<path class="accentcolor" d="M261.3,1927.1c-0.2-1.7-0.4-3.4-0.5-5.1c-8.4,5.4-16.3,12-23.9,19.5c-10.9,10.7-20.6,23.5-30.1,36.7
		c0.3,1.8,0.6,3.6,0.8,5.4c4.3-5.9,8.5-11.9,12.8-17.8c5.5-7.7,11.2-15.4,17.3-22.2c0.7-0.8,1.4-1.5,2.1-2.3c0,0,0,0,0,0l0,0
		c0,0,0,0,0,0c0,0,0,0,0,0c0,0,0,0,0,0c0,0,0,0,0,0c0.2-0.2,0.8-0.8,1.1-1.1c0,0,0,0-0.1,0c0,0,0.1-0.1,0.1-0.1c0,0,0,0,0.1-0.1
		c0,0,0,0,0,0c0,0,0,0,0,0h0c0,0,0,0,0,0c0.6-0.6,1.3-1.2,2-1.8c2.9-2.4,6-4.5,9.1-6.4C255.1,1930.2,258.2,1928.5,261.3,1927.1z"/>
	<path class="accentcolor" d="M259.9,1913.4c-0.2-1.5-0.3-3-0.5-4.6c-5.9,3.9-11.8,8.1-17.5,12.4c-13.3,10.1-26.2,21.3-38.8,33.1
		c0.1,0.8,0.2,1.5,0.4,2.3c0.6-0.6,1.2-1.2,1.9-1.8c1.6-1.5,3.2-3,4.8-4.4h0c0,0,0,0,0,0c0,0,0,0,0,0c0,0,0,0,0,0c0,0,0,0,0,0
		c0,0,0,0,0,0c0,0,0,0,0.1-0.1c0.2-0.2,0.5-0.4,0.5-0.5c0.3-0.3,0.7-0.6,1-0.9c0.8-0.7,1.6-1.4,2.4-2.2c12.4-10.9,26.1-21.5,40-30
		C256.2,1915.6,258,1914.5,259.9,1913.4z"/>
	<path class="accentcolor" d="M235.9,1674.7c-0.3-2.8-0.6-5.7-0.8-8.5c-3.7,6.9-7.7,13.6-12,19.9c-5.5,8.1-11.4,15.7-17.8,22.5
		c-3.3,3.5-6.2,6.4-9,9c-1.1,1-2.2,2-3.3,3c-0.1,0.1-0.2,0.2-0.3,0.2c0,0-0.1,0.1-0.1,0.1c0,0-0.1,0.1-0.1,0.1c0,0,0,0,0,0
		c0,0-0.1,0.1-0.1,0.1c-0.1,0-0.1,0.1-0.1,0.1c0,0,0,0,0,0c-0.3,0.2-0.6,0.5-0.8,0.8c-1.9,1.7-3.8,3.3-5.7,5
		c-4.9,4.3-9.9,8.5-14.8,12.8c0.1,0.8,0.2,1.6,0.3,2.4c14.3-12.4,28.7-24.6,42.1-39C221.5,1694.4,229,1685,235.9,1674.7z"/>
	<path class="accentcolor" d="M215.2,1457.7c-0.1-0.9-0.2-1.8-0.2-2.6c-0.5,0.5-1.1,1.1-1.6,1.6c-16.9,17.1-33.1,35.4-49.3,53.8
		c-7.2,8.2-14.4,16.4-21.5,24.6c0.1,1.1,0.3,2.1,0.4,3.2c15.5-17.7,31-35.3,46.6-52.8c7.6-8.5,15.2-16.8,23-24.9
		C213.3,1459.5,214.2,1458.6,215.2,1457.7z"/>
	<path class="accentcolor" d="M257.6,1891.2c-0.1-1.4-0.3-2.7-0.4-4.1c-19.7,12.7-39,26.8-58,41.4c0.2,1,0.3,2,0.5,3
		c8.1-6.1,16.3-12,24.5-17.7C235,1906,246.2,1898.3,257.6,1891.2z"/>
	<path class="accentcolor" d="M253.6,1852.7c-0.1-1-0.2-2-0.3-3c-14.6,14.8-28.5,31-42.1,47.8c-4.7,5.8-9.4,11.7-14.1,17.6
		c0.2,1.3,0.4,2.7,0.6,4C216.1,1896.6,234.1,1873,253.6,1852.7z"/>
	<path class="accentcolor" d="M246.2,1779.5c-0.1-1-0.2-2-0.3-2.9c-5.1,5.4-10.1,10.8-15.2,16.2c-14.9,16-29.9,31.8-45,47.6
		c0.1,0.9,0.3,1.8,0.4,2.7C206.3,1822,226.3,1800.8,246.2,1779.5z"/>
	<path class="accentcolor" d="M244.9,1766.1c-0.1-1-0.2-2-0.3-3c-13.5,14.6-27,29.1-40.5,43.6c-6.7,7.1-13.4,14.3-20.1,21.4
		c0.1,0.9,0.3,1.8,0.4,2.8C204.6,1809.4,224.8,1787.8,244.9,1766.1z"/>
	<path class="accentcolor" d="M240.6,1722.6c-0.1-1-0.2-2-0.3-3.1c-12.6,14.1-25.4,27.9-38.1,41.8c-8,8.8-16.1,17.7-24.1,26.5
		c0.1,1,0.3,2,0.4,3c19.1-21.1,38.3-42.1,57.4-63.2C237.4,1726.1,239,1724.3,240.6,1722.6z"/>
	<path class="accentcolor" d="M320.8,621.8c1.1,55.2,0.8,38.2-0.9-43.3c-11.4-33.5-14.7-71.6-9.9-109.4c1.7-13.2,4.2-26.2,6.9-39.1
		c-0.4-19.7-0.8-41.5-0.9-43.6C307,434.3,292,481,295.4,531.7c1.7,25.5,7.4,50.4,16.7,72.2C314.7,610.2,317.7,616.1,320.8,621.8z"/>
	<path class="accentcolor" d="M313.8,267.8c-1.6-80-1.9-94.4-0.7-37.1c-5.4-7-11.8-12.7-19.5-16.6c-28.5-14.4-60.5,0.7-85.8,20.8
		c-28.3,22.5-53.5,53.6-75.3,87.7C93.4,383.9,64.5,455.9,31.8,524c0.3,4.1,0.7,8.3,1,12.5c37.5-74.3,68.3-155.7,111.6-223.8
		c22.7-35.6,49-70.2,81.7-84.7c28.8-12.8,62.9-10.1,82.2,27.4C310.4,259.4,312.2,263.5,313.8,267.8z"/>
	<path class="accentcolor" d="M311.4,149.6c-1.3-66.3-1.4-70.2-0.4-18.8c-29.9-11.6-61.7-0.1-89.5,18.7c-33,22.3-63.8,53.1-92.4,85.5
		C90.4,279,56.7,329.4,26.3,384.2c41.8-86.5,90.1-165.7,149.3-228.8c32.2-34.4,68.5-68.7,109-77.4c8.4-1.8,16.9-2.2,25.4-1.2
		c-0.4-21.9-0.4-22.5-0.2-12.5c-21,1.3-42.1,10.9-61.3,23.9c-33.9,22.9-65.4,54.5-94.8,87.7C102,234.6,58.9,304.5,20.8,380.8
		c0.5,7.4,1.1,15,1.6,22.7C59.1,332.6,101,268,150.6,214.9c31.3-33.4,66.4-66.5,105.7-75C274.8,136,294.3,139,311.4,149.6z"/>
	<path class="accentcolor" d="M249.9,1815.6c-0.1-1-0.2-1.9-0.3-2.9c-0.2,0.2-0.4,0.4-0.5,0.6c-19.3,20.6-38.7,41.1-58.1,61.4
		c0.1,0.9,0.3,1.8,0.4,2.7c0.6-0.6,1.1-1.2,1.7-1.8C212,1855.7,231,1835.7,249.9,1815.6z"/>
	<path class="accentcolor" d="M248.8,43c28.7,5,27.6,4.8-3.1-0.5c-27.3,21.7-53.1,48.2-77.4,75.7c-58.8,66.7-107,147.4-149.4,235.5
		c0.3,4.5,0.6,9,1,13.6c2.8-6.1,5.7-12.1,8.5-18.1C73.5,253.5,126,166,190.8,96.8C208.9,77.5,228.2,58.2,248.8,43z"/>
	<path class="accentcolor" d="M207.3,399.9c3.1,0,5.8-0.1,8.7-1.7c4.7-2.6,9.1-6.1,13.2-10.1c6.2-5.9,14.9-15.4,12.4-27.9
		c-0.8-4.1-3-7.4-6.1-7.5c-3.9-0.1-8,3.7-11.3,6.4c-7.8,6.5-15,14.3-21.9,22.7c-2.7,3.3-5.5,6.7-8.3,9.9c0,0-0.3,0.3-0.6,0.6
		c-0.2,0.2-0.5,0.4-0.5,0.5c-0.6,0.5-1.3,0.9-1.9,1.3c-7.7,4.9-15.3,9.2-22.4,15.9c-3.7,3.5-8.4,7.5-10.8,13
		c-1.5,3.3-2,8.4,1.1,10.1c2.8,1.6,6-0.5,8.6-1.8c3.3-1.7,6.7-3.4,9.9-5.5c8.3-5.5,16.9-12.8,23.1-22.5c0.8-1.3,1.6-2.6,2.3-4
		c1.3-0.2,2.6-0.1,4.1,0.5C207,399.9,207.2,399.9,207.3,399.9z M219.7,387.8c-7.2-2.8-14.1,3.3-19.8,9c-3.6,3.6-6.4,7.6-9.1,12.5
		c-1,1.8-1.9,3.6-3,5.2c0,0,0,0,0,0c-1.9,1.1-4.3,2.9-6.2,3.9c-2.3,1.2-4.7,2.7-7.1,3.1c-2.5,0.5-5.2-1-5.2-5.2
		c0-1.8,0.5-3.5,1.3-4.9c4.8-2.8,9.6-5.7,14.1-9.1c7.1-5.3,13.9-11.9,20.1-19.1c4.7-5.3,9-11.2,13.8-16.4c-0.2,0.2,0.4-0.4,0.8-0.8
		c0.3-0.2,0.7-0.5,1-0.7c2.9-1.5,5.7-0.2,7.3,3.5c2.7,6.1,1.1,12.8-1.5,18.2c-0.1,0-0.2,0.1-0.3,0.1
		C223.9,388,221.8,387.9,219.7,387.8z M226.2,387.1c0.6-0.3,1.2-0.6,1.8-1c-1.1,0.9-2.4,2.2-3.2,3.6
		C225.3,388.9,225.8,388,226.2,387.1z M228.1,386.1c2-1.7,3.4-2.2,0.3-0.2C228.2,386,228.2,386,228.1,386.1z M219.6,365.8
		C219.6,365.8,219.6,365.8,219.6,365.8c0.1-0.1,0.1-0.1,0.1-0.1c-0.1,0.1-0.2,0.2-0.3,0.3C218.9,366.4,218.7,366.6,219.6,365.8
		C219.6,365.8,219.6,365.8,219.6,365.8C219.6,365.8,219.6,365.8,219.6,365.8z M219.6,365.8 M219.7,365.7
		C219.8,365.7,219.8,365.6,219.7,365.7C220.5,365,220.1,365.4,219.7,365.7C219.8,365.7,219.7,365.7,219.7,365.7z M170.6,411.5
		c-0.7,0.4-1.4,0.8-2.1,1.2c0.9-0.5,5.1-6.6,3.5-3.4c-0.3,0.5-0.8,1-1.1,1.5C170.8,411,170.7,411.2,170.6,411.5z M187.9,414.5
		c0.5-0.3,0.9-0.5,1.3-0.6c-0.6,0.3-2.6,1.9-3,2.9C186.5,415.9,187.4,415.2,187.9,414.5z M219.7,387.8
		C219.7,387.8,219.7,387.9,219.7,387.8c0.4,0.1-1.9,2.8-1.5,2.4c-1.4,1.6-2.9,3.1-4.4,4.5c-1.5,1.4-3.1,2.8-4.7,4
		c-0.5,0.3-1.2,1-1.8,1.1c0,0,0,0,0,0c-0.8,0,0.1-1,0.3-1.3c1-1.5,2.5-2.8,3.7-4c1.6-1.6,3.3-3.1,5-4.5c0.9-0.7,2.2-2.2,3.2-2.2
		C219.5,387.8,219.6,387.8,219.7,387.8z M202.8,399.4c-1.5,0.2-2.9,0.7-4.5,1.1c-0.1,0-0.1,0.1-0.2,0.1c2.9-2.8,5.9-5.5,8.8-8.3
		c-0.3,0.5-0.7,1-1.1,1.6c-0.6,1-1.2,2-1.7,3C203.7,397.7,203.3,398.6,202.8,399.4z M193.1,392.7c-0.4,0.4-0.1,0,0.3-0.3
		c0.3-0.2,0.4-0.4,0.1,0C193,392.9,192.2,393.7,193.1,392.7z"/>
	<path class="accentcolor" d="M219.6,365.8c0,0-0.1,0.1-0.1,0.1C219.5,365.9,219.6,365.9,219.6,365.8z"/>
	<path class="accentcolor" d="M193.1,392.7C193.1,392.7,193.2,392.7,193.1,392.7C193.1,392.7,193.1,392.7,193.1,392.7z"/>
	<path class="accentcolor" d="M232,1976.8C232,1976.8,232,1976.7,232,1976.8C232,1976.7,232,1976.8,232,1976.8z"/>
</g>
<path class="maincolor" d="M1993.6,2399.6l13-18.4c12.4-17.6,15.7-35.8,19.3-57C2267.8,909,2289.1,0,2289.1,0l-309.5,53.5L1964.8,798
	c-1.5,73.7,12.4,131.8,44.7,198.1l63,129.2c18.8,38.7,25.5,76.1,21,118.9c0,0-63,717.4-118.1,1144.3
	C1973.8,2399.9,1986.9,2409,1993.6,2399.6z"/>
<g>
	<path class="accentcolor" d="M2078.3,2003.9c0.3-1.7,0.5-3.5,0.8-5.2c-1.7-2.2-3.3-4.3-5-6.4c-14.5-17.8-31-31.3-48.8-41
		c-0.2,1.9-0.4,3.8-0.6,5.6c7.6,3.6,15.1,7.4,22.3,12.1c1.8,1.2,3.6,2.4,5.4,3.8c0.8,0.6,1.7,1.3,2.5,2c0.1,0.1,1.2,1,1.4,1.2
		c0,0,0,0,0,0c0,0,0,0,0,0c0,0,0,0,0,0c0,0,0.1,0.1,0.1,0.1c0,0,0.1,0.1,0.1,0.1c0,0,0,0,0,0c0,0,0.1,0.1,0.1,0.1c0,0,0,0,0,0
		c0,0,0,0,0,0c0.2,0.2,0.4,0.4,0.5,0.4c0,0,0,0,0,0c0.6,0.7,1.3,1.3,1.9,2c1.9,2,3.6,4.2,5.4,6.4
		C2069.2,1991.2,2073.8,1997.6,2078.3,2003.9z M2056.3,1976 M2056.3,1976C2056.3,1976,2056.3,1976,2056.3,1976
		C2056.3,1976,2056.3,1976,2056.3,1976z M2056.3,1976"/>
	<path class="accentcolor" d="M2086.9,1948.5c0.1-0.8,0.3-1.7,0.4-2.5c-1.5-1.2-3-2.5-4.5-3.8c-1.2-1-3.4-3-5-4.3c-1-0.9-1.9-1.7-2.9-2.6
		c-0.7-0.6-1.3-1.2-2.6-2.3c-13.7-12.5-27.1-25.6-41.3-36.8c-0.1,1-0.2,2.1-0.3,3.1c3.6,2.6,7.1,5.4,10.6,8.3c1.8,1.5,3.1,2.6,5,4.3
		c0.8,0.7,1.7,1.5,2.5,2.2c0.5,0.4,1,0.9,1.4,1.3c0,0,0.9,0.8,1.3,1.1c0,0,0,0,0.1,0.1c0,0,0,0,0,0h0v0c0,0,0,0,0,0
		C2063.5,1927.2,2075,1938.3,2086.9,1948.5z"/>
	<path class="accentcolor" d="M2169.1,1363.8c0.1-0.9,0.2-1.9,0.4-2.8c-1.4-1.1-2.8-2.3-4.3-3.4c-0.7-0.5-1.3-1.1-2-1.6
		c-0.1-0.1-0.2-0.1-0.2-0.2c0,0,0,0,0,0c0,0,0,0,0,0c-0.1,0-0.1-0.1-0.1-0.1c0,0,0,0,0,0h0c0,0,0,0,0,0c0,0,0,0,0,0c0,0,0,0,0,0
		c-0.2-0.2-0.4-0.4-0.7-0.6c-1.3-1.1-2.6-2.2-3.8-3.4c0,0,0,0,0,0c0,0,0,0,0,0c0,0,0,0,0,0c-0.2-0.2-0.9-0.8-1.1-1
		c-0.6-0.6-1.3-1.2-1.9-1.8c-0.1-0.1-0.6-0.5-0.9-0.8c-0.1-0.1-0.1-0.1-0.2-0.2c0,0,0,0,0,0c0,0-0.1-0.1-0.1-0.1c0,0,0,0,0,0
		c0,0,0,0,0,0c-0.6-0.6-1.2-1.2-1.8-1.8c-0.3-0.3-0.6-0.6-0.9-0.9l-0.3-0.3c0,0,0,0-0.1-0.1c0,0,0,0,0,0c0,0-0.1-0.1-0.1-0.1
		c0,0,0,0,0,0l0,0c0,0,0,0,0,0l0,0l-0.3-0.4c-0.3-0.3-0.6-0.6-0.9-1c-1.1-1.2-2.3-2.4-3.3-3.5c-2.3-2.6-4.6-5.3-6.9-8.1
		c-4.7-5.8-9.1-12-13.3-18.6c-8.3-13.3-15.3-28.1-20.7-44.1c-4.7-13.7-8.2-28.2-10.7-43c-0.2,6-0.6,12.1-1.2,18.3
		c0,0-0.4,4.2-1.1,12.1c7.4,21.9,17.5,41.7,30,58.7C2136.3,1334,2152.3,1350,2169.1,1363.8z"/>
	<path class="accentcolor" d="M2172.3,1338.9c0.1-1,0.2-1.9,0.4-2.9c-0.3-0.2-0.6-0.5-0.9-0.7c-1.2-0.9-2.1-1.6-3.2-2.5
		c-0.2-0.2-0.4-0.3-0.5-0.4c0,0,0,0-0.1,0c-0.1-0.1-0.3-0.2-0.5-0.4c-0.1,0-0.9-0.8-1.2-1.1c0,0,0,0,0,0c0,0,0,0,0,0
		c-0.3-0.3-0.8-0.8-0.9-0.9c0,0,0,0,0,0c0,0,0,0,0,0c0,0,0,0,0,0l0,0c0,0,0,0,0,0c0,0,0,0,0,0c-1.1-1.2-2.1-2.3-3.2-3.7
		c-18.4-22.6-29.7-57.5-34.5-91.1c-2.5-17.9-3.2-36.3-1.8-54.5c1.4-17.3,4.5-34.9,10.9-49.9c11.9-27.8,35.2-40.9,56.1-49.5
		c3.6-1.5,7.1-2.7,10.7-3.9c0.6-5.3,1.2-10.5,1.8-15.8c-0.3,0.1-0.7,0.1-1,0.2c-10.7,2.3-21.2,5.8-31.5,10.6
		c-10.9,5.1-21.8,11.5-31.3,20.7c-10.2,9.8-17.9,23.1-22.5,39.4c-4.8,16.8-6.7,35.4-6.8,53.5c-0.2,36.3,7.5,73.3,21.6,103.4
		C2143.5,1310.3,2157.2,1326.4,2172.3,1338.9z"/>
	<path class="accentcolor" d="M2175,1317c0.5-3.8,0.9-7.5,1.4-11.3c-0.2-0.7-0.5-1.3-0.7-2c-5-14.7-6.8-31.1-7.7-47.3
		c-0.8-15.4-1.1-30.9,0.2-46.2c1.3-14.8,4.1-29.4,9.4-42.2c4.7-11.4,11.2-21.1,18.6-28.9c1-8.3,1.9-16.6,2.9-24.9
		c-17.8,11.2-32.8,30.9-39.5,57.6c-3.8,15.1-5.1,31.2-5.2,47.1c-0.1,16.4,0.6,33.3,3,49.4c2.2,15.2,6.5,29.5,13.3,41.7
		C2172.1,1312.5,2173.5,1314.8,2175,1317z"/>
	<path class="accentcolor" d="M2206.1,1052.9c0.5-4.8,1.1-9.6,1.6-14.4c-25.6,3.8-51,9.4-76.4,15.3c-7.4,1.7-14.9,3.4-22.3,5.2
		c-6,1.5-12.2,3.2-17.3,8.1c-10.6,10.1-11.7,31.6-13.2,48c-0.6,6.7-1,13.5-1.3,20.3c5.5,12.8,9.7,25.5,12.6,38.4
		c-0.1-3.2-0.1-6.5-0.1-9.7c0-17.9,1.1-35.8,3.4-53.5c1.1-8.4,2.5-17.2,6.1-24.2c3.6-7.1,9.1-11,14.9-13.2
		c6.5-2.5,13.3-3.6,19.9-5.2c7.4-1.7,14.8-3.5,22.2-5.1c14.8-3.3,29.6-6.5,44.5-9.2C2202.5,1053.6,2204.3,1053.3,2206.1,1052.9z"/>
	<path class="accentcolor" d="M2123.4,771C2123.4,771,2123.4,771,2123.4,771C2123.4,771,2123.4,771,2123.4,771z"/>
	<path class="accentcolor" d="M2105.3,326.6C2105.3,326.6,2105.3,326.6,2105.3,326.6C2105.3,326.6,2105.3,326.6,2105.3,326.6z"/>
	<path class="accentcolor" d="M2029.8,2301c0.2-1,0.3-2,0.5-3.1c-2.5-2-5-4-7.6-5.8c-8-5.6-16.6-10.4-25.6-10.4c-3.1,0-6,0.6-8.7,1.8
		c-1,8.4-2,16.7-3,24.9c2.3-2.8,4.7-5.4,7.3-7.7c7.3-6.5,15.7-8.1,24.1-5.8c4.2,1.1,8.2,3.1,12.1,5.5
		C2029.2,2300.6,2029.5,2300.8,2029.8,2301z"/>
	<path class="accentcolor" d="M2016.9,2361.8c1.3-3.5,2.4-7,3.4-10.6c-1.1-0.2-2.2-0.4-3.3-0.6c-12.2-1.8-24.6-1-36.9-0.3
		c-0.5,4.2-1.1,8.4-1.6,12.6c11.4-0.5,22.8-1.1,34.1-1.2C2014.1,2361.7,2015.5,2361.7,2016.9,2361.8z"/>
	<path class="accentcolor" d="M2007,2380.6c2.8-4.1,5.2-8.2,7.2-12.4c-12.1-0.1-24.3,0.4-36.4,0.8c-0.5,4.2-1.1,8.3-1.6,12.4
		C1986.5,2381.1,1996.8,2380.8,2007,2380.6z"/>
	<path class="accentcolor" d="M1975.2,2391c0.3,5.7,4,10.4,8.3,12c2,0,4,0,6,0c1.5-0.6,2.8-1.7,4-3.3l5.8-8.1
		C1991.3,2391,1983.3,2391,1975.2,2391z"/>
	<path class="accentcolor" d="M2129.3,1661.2c0.3-1.9,0.5-3.7,0.8-5.6c-2.5-4.2-4.8-8.6-6.7-13.3c-2.2-5.5-4.2-13.2-2.4-19.5
		c2.1-7.8,8.4-7.4,13.2-6.4c0.5,0.1,0.9,0.2,1.4,0.3c0.3-2.2,0.6-4.4,0.9-6.6c-1.5-0.8-2.9-1.6-4.4-2.3c-5.4-2.6-11.9-5.2-17.6-3.9
		c-5.2,1.2-7.4,7.5-6.8,14.6c0.6,7.1,3.2,13.3,6.2,19c3.5,6.6,7.4,12.7,11.5,18.4C2126.6,1657.6,2127.9,1659.4,2129.3,1661.2z"/>
	<path class="accentcolor" d="M2125,1691.6c0.3-1.8,0.5-3.5,0.8-5.3c-16.3-24.3-29.4-53.1-38.4-84.2c-2.5-8.5-4.6-17.2-6.5-26
		c-1.5-7.1-4.9-18.9,0.7-24.1c2.7-2.5,6.5-2.6,9.6-2.4c3.3,0.2,6.6,1.2,9.8,2.7c1.4,0.7,2.8,1.5,4.1,2.4c0.7,0.4,1.3,0.9,2,1.4
		c0.1,0.1,0.5,0.4,0.7,0.6c0,0,0,0,0,0c0,0,0,0,0,0c0,0,0,0,0.1,0c0,0,0,0,0,0c0,0,0,0,0,0v0c0,0,0,0,0,0c0,0,0,0,0,0
		c0,0,0.1,0.1,0.1,0.1h0c0,0,0,0,0,0c0,0,0,0,0,0c0,0,0.1,0,0.1,0.1c0,0,0,0,0,0c0,0,0.1,0.1,0.1,0.1c0.2,0.2,0.5,0.4,0.6,0.6
		c0,0,0,0,0,0c0,0,0,0,0,0c0,0,0,0,0,0c0,0,0,0,0,0c0,0,0,0,0,0c0,0,0,0,0,0c0,0,0,0,0.1,0.1c0.3,0.3,0.5,0.5,0.8,0.8
		c0.2,0.2,0.5,0.5,0.7,0.7c0,0,0,0,0,0c0,0,0,0,0,0c0,0,0,0,0,0c0,0,0,0,0,0c0,0,0,0,0,0c0,0,0,0,0,0c0.1,0.1,0.1,0.1,0.2,0.2
		c0.8,0.9,1.7,1.7,2.5,2.6c8.6,9.3,17.2,18.7,25.7,28.1c0.1-0.9,0.3-1.9,0.4-2.8c-4.6-5.1-9.3-10.3-13.9-15.4
		c-6.7-7.4-13.5-14.6-20.8-20.8c-6.4-5.6-13.3-10.8-20.7-13c-5-1.5-14.7-3-17.6,4.9c-1.4,3.9-0.8,8.8,0,12.8
		c0.8,4.4,1.7,8.8,2.7,13.2c7.8,34.9,20.6,67.3,37.3,95.1C2112.2,1674.3,2118.4,1683.3,2125,1691.6z"/>
	<path class="accentcolor" d="M2120.4,1723.8c0.1-0.8,0.2-1.6,0.3-2.3c-0.4-0.3-0.7-0.7-1-1c-0.1-0.1-0.3-0.3-0.5-0.5c0,0,0,0,0,0
		c0,0,0,0-0.1-0.1c0,0,0,0,0,0c0,0,0,0-0.1-0.1h0c0,0-0.1-0.1-0.1-0.1c0,0,0,0-0.1-0.1c0,0,0,0,0,0c-0.2-0.2-0.4-0.5-0.5-0.5
		c-0.3-0.3-0.6-0.6-0.8-0.9c-1.5-1.6-2.9-3.1-4.1-4.4c-2.8-3.1-5.6-6.4-8.3-9.7c-5.7-7.1-11.2-14.7-16.3-22.6
		c-10.1-15.7-19-32.9-26.4-51.4c-1.3-3.3-2.6-6.7-3.9-10.2c-0.5,5.2-1,10.5-1.5,15.7c10.5,22.3,23.2,42.5,37.4,60
		C2102.7,1705.8,2111.4,1715.2,2120.4,1723.8z"/>
	<path class="accentcolor" d="M2142.9,1563.1c0.1-1,0.3-2.1,0.4-3.1c-4.9-5.4-9.7-10.8-14.6-16.2c-15.4-16.9-30.9-33.6-46.6-50
		c-3.5-3.7-7-7.4-10.5-11.1c-0.1,1-0.2,1.9-0.3,2.9c0.1,0.1,0.3,0.3,0.4,0.4c3.8,3.9,7.5,7.9,11.3,11.9c7.5,7.9,15,15.9,22.4,24
		C2118,1535.5,2130.5,1549.3,2142.9,1563.1z"/>
	<path class="accentcolor" d="M2285.1,104.2c0.3-5.7,0.5-11.2,0.8-16.5c-0.1-0.2-0.2-0.3-0.2-0.5c-9.2-20-19.4-39-30.6-56.7
		c-4.8-7.6-9.7-14.9-14.8-22c27-4.7,25.8-4.5-4.4,0.8c2.8,4.2,5.6,8.5,8.3,12.8c11.1,17.9,21.2,37,30.3,57.1
		C2278,87.3,2281.6,95.7,2285.1,104.2z"/>
	<path class="accentcolor" d="M2286.6,69.5c0.4-9.2,0.7-17.6,1-25c-5-14.3-10.7-28.2-17.3-41.3c14.7-2.5,13.9-2.4-6.7,1.2
		C2272.8,24.9,2280.1,47,2286.6,69.5z"/>
	<path class="accentcolor" d="M2288.6,17.6c0.4-11.7,0.5-17.6,0.5-17.6s-0.1,0-6.2,1.1c0.3,0.8,0.6,1.7,0.9,2.5
		C2285.5,8.2,2287,12.9,2288.6,17.6z"/>
	<path class="accentcolor" d="M2281.2,178.5c0.3-5.5,0.6-10.9,0.9-16.2c-18.7-42.1-39.7-81.9-65.2-116.1c-7.7-10.3-15.7-20.1-24-29.5
		c23.8-4.1,22.4-3.9-3.1,0.5c4.5,5.3,8.9,10.8,13.1,16.4c27.5,36.1,49.6,78.8,69.3,124C2275.3,164.5,2278.3,171.5,2281.2,178.5z"/>
	<path class="accentcolor" d="M2043.1,2222.1c0.1-0.9,0.3-1.7,0.4-2.6c-13.2-11.4-29.1-23.3-44.7-25.3c-0.5,4.5-1,9-1.6,13.5
		c4.2-1.3,8.5-1.7,12.8-1.2C2021.7,2207.8,2032.8,2214.1,2043.1,2222.1z"/>
	<path class="accentcolor" d="M2051.1,2173.5c0.2-1.1,0.4-2.2,0.5-3.2c-14.8-11.6-30.3-21.3-46.6-27.6c-0.1-0.1-0.3-0.1-0.4-0.2
		c-0.4,3.2-0.7,6.4-1.1,9.6c1.3-0.1,2.6-0.1,3.9,0.1c7.7,0.9,15.4,4.7,22.6,8.4C2037.3,2164.4,2044.3,2168.7,2051.1,2173.5z"/>
	<path class="accentcolor" d="M2055.2,2148.3c0.1-0.7,0.2-1.5,0.4-2.2c-3.7-3.4-7.5-6.7-11.2-10.1c-8.5-7.5-16.9-15-25.4-22.4
		c-3.2-2.8-6.6-5.9-10.1-8.6c-0.2,2-0.5,4.1-0.7,6.1c3.3,0.4,6.6,1.8,9.7,4.3c7.6,5.9,16.2,14.2,24.1,21.2
		c4.1,3.6,8.2,7.2,12.2,10.8C2054.6,2147.8,2054.9,2148,2055.2,2148.3z"/>
	<path class="accentcolor" d="M2061.9,2107.2c0.2-1,0.3-2,0.5-3c-6.8-7.6-13.7-15.2-20.5-22.7c-8.5-9.4-17.6-19.2-27.8-24.5
		c-0.3,2.8-0.6,5.6-0.9,8.4c4.4,0.2,8.9,1.3,13,3.6c0.9,0.5,1.8,1.1,2.7,1.8c0.2,0.2,0.7,0.7,0.8,0.8c0.8,0.9,1.7,1.8,2.5,2.7
		c8.3,9.1,16.5,18.2,24.7,27.4C2058.6,2103.5,2060.2,2105.3,2061.9,2107.2z M2028.8,2070.7c-0.2-0.2-0.2-0.2-0.1-0.1
		C2028.4,2070.3,2027.8,2069.8,2028.8,2070.7z M2028.9,2070.8"/>
	<path class="accentcolor" d="M2066.6,2078.2c0.1-0.7,0.2-1.5,0.3-2.2c-4.7-4.5-9.5-8.9-14.3-13.2c-10.1-9-20.3-18.1-30.7-26.2
		c-1.7-1.3-3.4-2.6-5.1-3.9c-0.1,1.4-0.3,2.7-0.4,4.1c11,6.3,21.4,15.6,31.3,24.2C2054.3,2066.9,2060.4,2072.4,2066.6,2078.2z"/>
	<path class="accentcolor" d="M2273.7,303.4c0.4-5.7,0.7-11.3,1.1-16.8c-3.9-9.5-7.9-19.1-11.9-28.6c-23.2-55.3-48.1-109.9-80.9-154.6
		c-20.9-28.5-44.7-52.4-69.8-72.9c-12.5,2.2-14.1,2.4-3.2,0.6c3.8,2.9,7.6,6,11.4,9.1c8.9,7.5,16.3,14.3,24.8,23.2
		c8.8,9.3,17.2,19.4,25.1,30.2c32.7,44.5,57.5,99.3,80.6,154.4C2258.4,266.4,2266,285,2273.7,303.4z"/>
	<path class="accentcolor" d="M2278.2,230.9c0.3-5.1,0.6-10,0.9-14.9c-9.6-20.7-19.8-40.8-31-59.8c-11.5-19.4-23.9-37.7-37-54.7
		c-21.6-28.1-45.1-53.2-69.6-75.8c2.3-0.4,1.1-0.2-2.4,0.4c0.6,0.5,1.1,1,1.7,1.5c1.9,1.8,3.8,3.6,5.7,5.4c0.2,0.2,0.5,0.5,0.7,0.7
		c0,0,0,0,0,0c0,0,0,0,0.1,0.1l0,0c0,0,0.1,0.1,0.2,0.2c0,0,0.1,0.1,0.1,0.1c0,0,0,0,0,0c0.1,0.1,0.1,0.1,0.1,0.1
		c0.1,0.1,0.1,0.1,0.2,0.2c0.8,0.8,1.7,1.6,2.5,2.4c1.9,1.8,3.7,3.7,5.6,5.5c0.8,0.8,1.6,1.7,2.5,2.5c0.6,0.6,0.6,0.6,1.6,1.6
		c1.8,1.9,3.7,3.8,5.5,5.7c3.4,3.6,6.6,7.1,9.9,10.8c6.7,7.5,13.3,15.3,19.7,23.4c27.2,34.3,50.4,73.7,70.5,116.8
		C2269.9,212.2,2274.1,221.5,2278.2,230.9z"/>
	<path class="accentcolor" d="M2105.3,326.6"/>
	<path class="accentcolor" d="M2105.3,326.6"/>
	<path class="accentcolor" d="M2234.7,777.6c0.2-2.5,0.5-5,0.7-7.5c-27.8-9.8-55.4-20.8-82.6-33.4c-28.9-13.4-57.7-27.5-86.1-42.7
		c-3.2-1.7-6.3-3.5-9.4-5.5c-1.3-0.8-2.6-1.7-3.8-2.7c0,0-0.1-0.1-0.1-0.1c-4.3-5.5-8-11.8-10.4-19.5c-4.6-14.8-2.6-31.8,5.9-42.6
		c7.4-9.5,18-13.6,27.8-12.8c5.6,0.5,10.9,2.7,16,6c1,0.6,2.1,1.4,2.8,2c0.3,0.2,0.5,0.4,0.8,0.6c0,0,0.1,0.1,0.1,0.1c0,0,0,0,0,0h0
		c0,0,0,0,0.1,0c0.1,0.1,0.3,0.2,0.4,0.3c0,0,0,0,0,0c0,0,0,0,0,0c0,0,0,0,0.1,0.1c0.1,0.1,0.2,0.2,0.3,0.3c0,0,0,0,0,0c0,0,0,0,0,0
		c0.2,0.2,0.6,0.6,0.8,0.8c0,0,0,0.1,0.1,0.1c0,0,0,0,0,0c0,0,0,0,0,0c0.2,0.2,0.4,0.4,0.4,0.4c0.3,0.3,0.6,0.6,0.9,0.9
		c1.3,1.3,2.2,2.4,3.5,3.9c10.3,11.8,19.9,24.5,30.4,35.8c11.2,12,23,23,35,33.3c22.3,18.9,45.6,34.8,69.3,49.6
		c0.1-1.5,0.3-3,0.4-4.4c-21-12.8-41.8-26.1-61.9-41.7c-2.4-1.8-5.2-4.1-7.8-6.3c-3.1-2.6-4.3-3.6-7.2-6.1c-1.3-1.2-2.7-2.4-4-3.5
		c-0.1-0.1-0.2-0.2-0.2-0.2c0,0,0,0,0,0c0,0,0,0,0,0c0,0,0,0,0,0c-0.2-0.2-0.5-0.4-0.7-0.7c-0.7-0.7-1.4-1.3-2.1-2
		c-0.7-0.7-1.4-1.3-2.1-2c-0.1-0.1-0.5-0.4-0.7-0.7c0,0,0,0,0,0c0,0-0.1,0-0.1-0.1c0,0,0,0,0,0c0,0,0,0-0.1-0.1c0,0,0,0,0,0
		c0,0,0,0,0,0c0,0-0.1-0.1-0.1-0.1c0,0,0,0,0,0c0,0,0,0,0,0c-1.3-1.2-2.5-2.5-3.8-3.7c-0.4-0.4-0.8-0.8-1.2-1.2c0,0-0.2-0.2-0.4-0.4
		c0,0,0,0,0,0h0c0,0,0,0,0,0h0c0,0,0,0,0,0c0,0,0,0,0,0c0,0,0-0.1-0.1-0.1h0c0,0,0,0,0,0c-0.3-0.3-0.9-1-1.2-1.2
		c-1.4-1.4-2.7-2.9-4.1-4.3c-2.3-2.4-4.7-5.2-7.1-8c-5.2-6.1-10.2-12.5-15.4-18.7c-11.8-14.2-24.8-28.3-39.3-36.1
		c-10.2-5.5-21.2-6.3-31.5-0.8c-9.3,5-17.3,15.5-18.8,30.1c-2,19.4,7,36.4,17.1,47.5c7.2,7.9,15,14.6,23.2,19.9
		c6.5,4.2,13.3,7.5,20.1,10.9c15,7.7,30,15.3,45.1,22.7c30,14.8,60.2,28.7,90.8,40.3C2227.8,775.1,2231.3,776.4,2234.7,777.6z"/>
	<path class="accentcolor" d="M2154.7,723.9c3.9,3.2,8.3,6.8,12.8,6.5c3.4-0.2,7.4-3.4,7.7-8.8c0.3-6-3.6-11.1-6.5-14.7
		c-4.8-6-10.3-11-15.9-15.3c-7.3-5.6-15.3-8.6-23.2-11.7c-3.9-1.5-7.8-3.1-11.5-5.2c-1.6-0.9-3.2-2-4.8-3.2c-1-0.8-1.6-1.4-2.8-2.5
		c-0.1-0.1-0.3-0.3-0.5-0.4c-0.3-0.2-0.5-0.5-0.8-0.7c-0.8-0.8-1.6-1.5-2.3-2.3c-2.2-2.2-4.4-4.3-6.6-6.4
		c-4.4-4.2-8.9-8.2-13.5-11.6c-3.8-2.8-7.7-5.3-11.9-6.7c-3.3-1.2-8.7-3-11.3,1.4c-2.5,4.3-2.5,11.7-1.9,16.9
		c0.7,6,2.5,11.7,4.9,16.7c2.9,5.8,6.7,10.5,10.6,14.7c5.2,5.5,10.7,10.4,16.5,14.4C2112.5,717.9,2133.9,723.8,2154.7,723.9z
		 M2083.8,694C2083.9,694,2083.9,694,2083.8,694c0.4,0.5,1.1,0.9,0.5,0.7c-0.4-0.1-2.7-2.3-1.1-1.1
		C2083.5,693.7,2083.7,693.8,2083.8,694z M2083.8,694c-0.8-1-1.5-2-2.2-3c-5-7.9-8.2-18.9-7-29.6c0.6-5.6,2.5-9.9,6.8-9.7
		c3.3,0.2,6.7,1.3,9.8,3c1.4,0.8,2.8,1.7,4.1,2.7c0.2,0.1,0.5,0.4,0.9,0.7c-0.1-0.1,0.5,0.4,0.6,0.5c0.1,0.1,0.2,0.1,0.2,0.2
		c0,0,0.1,0.1,0.1,0.1c0.7,0.6,1.4,1.3,2,1.9c-1.4-1.3,0.9,0.9,1.2,1.2c1.5,1.5,3.1,3,4.6,4.6c7.2,7.1,14.7,14.1,22.8,19
		c6.4,3.8,13.2,6.2,19.8,8.8c3.6,1.4,7.2,3,10.6,5.1c0.2,0.1,0.4,0.2,0.6,0.4c0.6,0.8,1.1,1.6,1.6,2.5c2.7,5,2.5,11.2-1.6,14.5
		c-1,0.8-2,1.3-3,1.5c-1.5-1.5-3.1-2.9-4.7-4.3c-0.8-0.7-2.2-2.2-3.2-2.2c-17.4,0.8-34.9-2.7-51.5-10.5c-3.8-1.8-7.6-3.8-11.2-6.2
		C2084.8,694.7,2084.3,694.3,2083.8,694z M2096.5,658.2C2096.5,658.2,2096.5,658.2,2096.5,658.2
		C2096.5,658.2,2096.5,658.2,2096.5,658.2z M2096.5,658.2c-0.1-0.1-0.1-0.1-0.2-0.2C2096.3,658,2096.4,658.1,2096.5,658.2z
		 M2096.6,658.3C2096.6,658.3,2096.6,658.3,2096.6,658.3C2096.6,658.3,2096.6,658.3,2096.6,658.3z M2096.6,658.3
		c0,0,0.1,0.1,0.1,0.1C2096.6,658.3,2096.6,658.3,2096.6,658.3z M2097.1,658.7C2096.9,658.6,2097,658.6,2097.1,658.7
		C2097.3,658.9,2097.6,659.1,2097.1,658.7z M2158.9,699.7c-0.1-0.1-0.2-0.2-0.2-0.3c-0.4-0.5-1.7-1.7-0.6-0.9c0.7,0.5,2,1.5,2.5,2.3
		c0,0,0,0-0.1,0C2160,700.5,2159.4,700.1,2158.9,699.7z M2160.6,700.8C2161.1,701.2,2160.6,701,2160.6,700.8
		C2160.6,700.8,2160.6,700.8,2160.6,700.8z M2155.9,718.2c0.1,0.1,0.2,0.2,0.3,0.3c1.2,1.2,2.6,2.5,3.6,4c0.3,0.4,1.1,1.3,0.3,1.3
		c-1.8,0.1-3.6,0.1-5.4,0.1c-0.5-0.4-0.9-0.7-1.3-1.1c-2.9-2.4-6.3-5.1-8.6-8.5c-2.1-3.1,2.5,0.6,2.9,0.9
		C2150.2,717.2,2153.1,718.7,2155.9,718.2z M2110.1,668.6c0.1,0.1,0.3,0.3,0.4,0.4C2109.8,668.3,2109.9,668.4,2110.1,668.6z"/>
	<path class="accentcolor" d="M2246.2,654.5c0.1-1.3,0.2-2.5,0.3-3.8c-7.1-4.7-14.1-9.6-21.1-14.6c-7.3-5.3-14.4-10.7-21.5-16.5
		c-3.8-3.1-5.9-4.9-9.7-8.3c-0.9-0.8-1.7-1.5-2.5-2.3c-0.1-0.1-0.3-0.2-0.5-0.4c0,0,0,0,0,0c0,0,0,0,0,0c0,0,0,0,0,0c0,0,0,0,0,0
		c0,0,0,0,0,0c0,0,0,0,0,0c0,0-0.1-0.1-0.1-0.1c0,0,0,0,0,0c0,0-0.1-0.1-0.1-0.1c0,0,0,0,0,0c0,0,0,0,0,0c-0.2-0.2-0.4-0.4-0.5-0.5
		c-1.8-1.6-3.6-3.3-5.3-5c-0.1-0.1-0.1-0.1-0.2-0.2c0,0,0,0,0,0c-0.1-0.1-0.1-0.1-0.1-0.1c0,0-0.1-0.1-0.1-0.1
		c-0.1-0.1-0.2-0.2-0.3-0.2c0,0,0,0,0,0c-0.2-0.2-0.5-0.5-0.7-0.7c-0.8-0.8-1.6-1.6-2.5-2.4c-0.8-0.8-1.6-1.6-2.4-2.4
		c-0.6-0.6-1-1-2.1-2.2c-3.2-3.3-6.1-6.5-9.1-9.9c-6.4-7.2-12.5-14.9-18.3-23c-11.6-16.1-21.5-34-30.8-52.9
		c-4.4-8.8-8.9-17.6-14.1-25.4c-6.6-9.9-14.7-18-23.1-24.3c-7.6-5.8-15.5-8-24.1-7.1c-9.1,1-18.1,4.7-27.2,4.9
		c-3.7,0.1-7.5-0.3-11.1-1.7c-0.3-0.1-0.6-0.3-1-0.5c-0.3-0.6-0.6-1.2-0.9-1.8c-4.7-10.2-5.3-23.3-5.5-35.2
		c-0.5-22.8,2.3-45.8,8-67.1c-3,11.9-0.5,26.2,4.4,36.2c4,8,9.8,14.1,15.5,19.4c6.1,5.8,12.5,10.7,19.4,14.2
		c12.3,6.3,25.4,8.3,37.7,14.6c1.9,1,4.3,2,6.3,3.5c0,0.1,0.2,0.2,0.4,0.5c0.6,0.7,2,2.4,2.8,3.5c4.5,5.9,8.4,12.6,12.1,19.5
		c7.6,14.2,14.6,28.9,22.6,42.8c29.9,52.3,66.6,97.3,107.3,131.9c0.1-0.9,0.2-1.8,0.2-2.7c-2.2-1.8-4.4-3.6-6.4-5.4
		c-1.1-1-2.2-1.9-3.3-2.9c0.5,0.4-1.2-1.1-1.2-1.1c-0.7-0.6-1.3-1.2-2-1.8c-1-0.9-1.9-1.8-2.9-2.7c0.2,0.2-1.3-1.2-1.3-1.2
		c-0.9-0.8-1.7-1.7-2.6-2.5c-2.5-2.5-3.7-3.7-6.2-6.3c-2.3-2.5-4.7-4.9-7-7.5c-19-21.1-36.6-44.7-52.6-70.5
		c-7.8-12.5-15.1-25.6-22.1-39.1c-6.7-13.1-13.1-26.5-21.1-37.9c-9.8-13.9-22.3-25.3-35.3-31.8c-11.4-5.7-23.4-7.8-34.9-13.2
		c-2.5-1.2-5-2.5-7.4-4.1c-0.2-0.1-0.8-0.6-1.3-1c-3.7-4.7-6.6-11-8.1-17.7c-3.1-13.1-1.7-28.6,6.4-37.4c8.5-9.3,20.3-8.2,30.4-8
		c6.1,0.1,12.7-0.1,18.5,2.9c0.4,0.5,0.8,1,1.2,1.4c2.2,2.8,4.2,5.8,6.3,8.7c31,44.3,56,96.1,82,146.2c21.8,42,44.8,83.1,72.1,117.8
		c0.1-1.7,0.3-3.4,0.4-5.1c-16.1-22.4-30.7-47-44.4-72.4c-28.9-53.1-54.9-109.8-86.8-159.4c-8.5-13.3-17.3-27-27.7-37.3
		c-6.7-6.6-13.8-12.7-22-14.2c-6.3-1.1-12.8-0.9-19.1-0.9c-10.3,0.1-22.5,1.8-28.6,15.5c-0.6,1.3-1,2.6-1.5,3.9c0,0,0,0,0,0
		c0.6-2.3,1.3-4.6,2-6.8c3.2-10.1,7-21.1,13.5-27.8c7.7-7.9,17.2-5.4,26-3.9c8.9,1.5,17.7,3.3,26.3,6.6c4.2,1.6,8.3,3.5,12.3,6
		c1.6,1,3.1,2,4.6,3.2c0,0,0.4,0.3,0.6,0.5c-0.1,0-0.1-0.1-0.2-0.1c0.1,0.1,0.2,0.1,0.3,0.2c0,0,0,0,0,0c0,0,0,0,0,0
		c0,0,0.1,0.1,0.1,0.1c0.1,0.1,0.1,0.1,0.1,0.1c0,0,0,0-0.1-0.1c0.2,0.2,0.4,0.4,0.6,0.7c13.7,15.5,24.3,36.9,35.4,56.2
		c25.5,44.8,51,89.6,76.5,134.4c11.6,20.4,23.1,40.8,34.8,61.1c0.3-3.2,0.5-6.4,0.8-9.6c-5.2-9.1-10.3-18.2-15.5-27.3
		c-25.8-45.3-51.6-90.6-77.4-135.9c-6.3-11.1-12.6-22.2-18.9-33.2c-5.6-9.7-11.2-19.3-17.6-28c-14.4-19.7-32.2-34.7-51.5-41.3
		c-8.7-3-17.5-4.6-26.4-6.1c-8.7-1.4-17.7-2.9-25,5.6c-6.3,7.4-10.1,18.8-13.2,29.3c-3.6,12-6.3,24.6-7.9,37.5
		c-1.6,13.1-2.2,26.4-1.7,39.6c0.4,11.4,1.5,23.8,6.3,33.3c3,6,7.5,10.4,11.8,14.3c4.2,3.9,8.5,7.4,13.3,9.4
		c7.6,3.1,15.6,2.2,23.2,0.5c9.6-2.1,19.4-5.5,29-2.4c1.7,0.6,3.4,1.3,5.1,2.2c0.3,0.2,0.6,0.4,0.9,0.6c0.3,0.4,0.7,0.8,1,1.3
		c1.4,1.8,2.8,3.8,4.1,5.8c10.6,16.6,18.4,36.4,28.6,53.4c22.9,38.4,51.8,68.6,82,94.1C2217.6,633.9,2231.8,644.6,2246.2,654.5z
		 M2105.3,326.6C2105.2,326.6,2105.2,326.5,2105.3,326.6C2105.2,326.5,2105.2,326.5,2105.3,326.6L2105.3,326.6
		C2105.2,326.5,2105.3,326.6,2105.3,326.6z M2238.3,625.6c0,0-0.1-0.1-0.1-0.1C2238.2,625.5,2238.3,625.5,2238.3,625.6z
		 M2238.1,625.4c0,0-0.1-0.1-0.1-0.1C2238.1,625.4,2238.1,625.4,2238.1,625.4z M2238,625.3C2238,625.3,2238,625.3,2238,625.3
		C2238,625.3,2238,625.3,2238,625.3z M2238.1,625.4C2238.2,625.4,2238.2,625.4,2238.1,625.4C2238.2,625.4,2238.1,625.4,2238.1,625.4
		z M2232.2,619.9C2232.2,619.9,2232.2,619.9,2232.2,619.9C2232.2,619.9,2232.2,619.9,2232.2,619.9z M2232.1,619.8
		c0,0-0.1-0.1-0.2-0.2C2232,619.7,2232.1,619.7,2232.1,619.8z M2232,619.6c0,0-0.1-0.1-0.1-0.1
		C2231.9,619.6,2231.9,619.6,2232,619.6z M2232.1,619.8C2232.1,619.8,2232.2,619.8,2232.1,619.8
		C2232.2,619.8,2232.1,619.8,2232.1,619.8z M2040.5,404.6c0.1,0.1,0.2,0.2,0.3,0.3c1.5,1.9-0.1,0.1-0.7-0.5
		C2039.5,403.8,2040,404.1,2040.5,404.6z M2087.8,344.4c-0.5-0.6-1-1.2-1.4-1.7c1.2,1.7,4.1,3.2,1.8,1.9
		C2088,344.5,2087.9,344.5,2087.8,344.4z M2102.6,438.5c-0.1-0.2,0.3,0.2,0.7,0.6C2103.1,438.9,2102.8,438.7,2102.6,438.5z
		 M2104,439.8C2104,439.8,2104,439.8,2104,439.8C2104,439.8,2104,439.8,2104,439.8z M2104,439.8c-0.1-0.2-0.4-0.5-0.7-0.8
		C2103.5,439.3,2103.8,439.6,2104,439.8z"/>
	<path class="accentcolor" d="M2271.7,332.2c0.3-4.6,0.6-9.2,0.9-13.7c-0.1-0.2-0.2-0.4-0.3-0.5c-33.5-70.8-68.8-140.1-114.5-196
		c-26.4-32.3-55.3-60.8-86-84.5c-27.7,4.8-29.3,5.1-3.8,0.7c20.8,15.1,40.6,32.6,59.2,52.7c48.6,52.3,86.2,120.2,120.6,191.4
		C2256,298.8,2263.9,315.5,2271.7,332.2z"/>
	<path class="accentcolor" d="M2230.4,822.5c0.4-3.6,0.7-7.2,1.1-10.8c-4.9-0.5-9.7-0.8-14.6-1.3c-16.2-1.4-32.2-4.4-47.9-10.8
		c-14.4-5.9-29-14.6-41.6-25.3c-0.3-0.2-1.4-1.2-2-1.7c-0.4-0.4-0.9-0.8-1.3-1.2c0,0-0.1-0.1-0.2-0.1c0,0,0,0,0,0c0,0,0,0,0,0
		c0,0,0,0-0.1-0.1c0,0,0,0,0,0h0c0,0,0,0,0,0c0,0-0.1-0.1-0.1-0.1c0,0,0,0,0,0c0,0,0,0,0,0c0,0,0,0,0,0c0,0,0,0,0,0
		c0,0-0.1-0.1-0.1-0.1c0,0,0,0,0,0c0,0,0,0,0,0c0,0,0,0,0,0c-0.1-0.1-0.1-0.1-0.2-0.2c-0.4-0.4-0.8-0.8-1.2-1.2
		c-0.8-0.8-1.7-1.6-2.5-2.4c-0.3-0.3-0.6-0.6-0.9-0.9c0,0,0,0-0.1-0.1c-0.1-0.1-0.2-0.2-0.3-0.3c-0.7-0.7-1.4-1.3-2-2
		c-1.6-1.5-3.1-3-4.7-4.5c-6.7-6.6-13.4-13.1-20.3-19.1c-12.7-11.1-26.4-21.2-41.3-23.8c-12.4-2.1-25.5,0.7-37.6-4.6
		c-0.2-0.1-0.4-0.2-0.6-0.3c-2.1-3.6-3.6-8-4.6-12.5c-2.2-10.1-2.4-21.1-2.1-31.6c0.7-22.3,5-44.4,12.6-63.9
		c6.7-17.4,16.9-34.7,31.8-35.4c7.2-0.4,14.3,2.8,20.7,7.5c1.3,1,2.5,2,3.3,2.6c0.3,0.3,0.7,0.6,1,0.9c0,0,0,0,0,0c0,0,0,0,0,0
		c0,0,0,0,0,0c0,0,0,0,0.1,0c0,0,0,0,0.1,0.1c0,0,0,0,0,0c0,0,0,0,0,0c0,0,0.1,0.1,0.2,0.1c0.3,0.3,0.7,0.6,1,0.9
		c0.1,0.1,0.2,0.2,0.3,0.3l0,0c0,0,0,0,0,0c0,0,0,0,0.1,0.1c0.1,0,0.1,0.1,0.2,0.2c1.5,1.5,3,3,4.6,4.5c0,0,0.1,0.1,0.1,0.1
		c0,0,0,0,0,0c0,0,0,0,0,0c0,0,0,0,0,0.1c0,0,0.1,0.1,0.1,0.1c0,0,0,0,0.1,0.1c0,0,0,0,0,0c0,0,0,0,0,0c0.6,0.6,1.3,1.3,1.9,2
		c0.9,0.9,1.9,1.9,2.8,2.8c14.1,14.3,28.5,27.9,43.1,41.2c28.5,25.8,57.9,49.5,87.7,71.8c7.7,5.8,15.5,11.5,23.3,17.2
		c0.1-1.2,0.2-2.4,0.3-3.5c-5.6-3.9-11.1-7.9-16.6-11.9c-29.5-21.5-58.6-44.3-86.5-68.8c-7.4-6.5-13-11.6-20.3-18.3
		c-7.2-6.7-12.7-12-19.9-19.1c-14-13.9-28.1-30.4-44.6-39c-6.7-3.5-13.8-5.3-20.9-3.1c-6.9,2.1-12.9,7.9-17.6,15.3
		c-10.2,15.9-16.5,37.7-19.7,58.6c-1.7,11.1-2.5,22.5-2.3,33.8c0.1,10.2,1,20.9,4.4,30.1c4.2,11.1,12.6,18.6,20.1,24.3
		c5.6,4.3,11.6,6.5,18,7.4c13.3,1.8,26.6-0.1,39.6,5.7c6.5,2.9,12.7,7.2,18.4,11.9c0,0,0.2,0.2,0.3,0.3c0,0,0,0,0.1,0.1c0,0,0,0,0,0
		c0,0,0,0,0,0c0,0,0,0,0.1,0c0,0,0,0,0,0c0,0,0.1,0.1,0.1,0.1c0,0,0,0,0,0c0.2,0.2,0.4,0.4,0.7,0.6c0.6,0.5,1.2,1.1,1.9,1.6
		c0,0,0,0,0,0h0c0,0,0,0,0,0c0,0,0,0,0.1,0.1c0,0,0.1,0.1,0.2,0.1c0,0,0,0,0,0c0.4,0.3,1,0.9,1.2,1.1c0.9,0.9,1.9,1.8,2.8,2.6
		c0.5,0.5,1,1,1.6,1.5c0,0,0,0,0,0c0,0,0,0,0,0c0,0,0,0,0,0c0,0,0,0,0,0c0,0,0.1,0.1,0.1,0.1c0,0,0,0,0,0c0.4,0.4,1.3,1.3,1.5,1.4
		c1.6,1.5,3.1,3,4.7,4.6c14,13.7,28.2,26.8,43.6,37.1c14.4,9.6,29.7,16.8,45.3,21.2C2207.9,820.2,2219.1,821.5,2230.4,822.5z"/>
	<path class="accentcolor" d="M2162.6,1415c0.1-0.9,0.2-1.7,0.3-2.6c-2-1.6-4-3.2-6-4.9c-3.5-2.9-5.6-4.7-8.8-7.4c-1.5-1.3-3.1-2.7-4.6-4
		c-0.4-0.4-0.9-0.8-1.3-1.2c0,0-0.1-0.1-0.2-0.2c0,0,0,0,0,0c0,0,0,0,0,0c0,0,0,0,0,0c0,0,0,0,0,0c0,0,0,0,0,0c0,0,0,0-0.1-0.1
		c0,0,0,0-0.1-0.1c0,0,0,0,0,0c0,0-0.1-0.1-0.1-0.1c0,0,0,0-0.1-0.1c0,0,0,0,0,0c-0.2-0.2-0.5-0.5-0.6-0.5c-0.5-0.5-1.1-1-1.6-1.5
		c-1.4-1.3-2.8-2.6-4.2-3.9c0,0,0,0,0,0c0,0-0.1,0-0.1-0.1h0c0,0-0.1-0.1-0.2-0.1c-0.3-0.3-0.8-0.8-0.9-0.9c-1-0.9-1.9-1.9-2.8-2.8
		c-2.9-2.9-4.9-5-8.1-8.4c-11.5-12.3-22.4-26.4-32-42c-1.7-2.8-3.4-5.6-5-8.4c-0.2,2.6-0.5,5.2-0.7,7.9c12.9,19,27.5,35.7,42.8,50.7
		C2139.4,1395.3,2150.9,1405.4,2162.6,1415z"/>
	<path class="accentcolor" d="M2214.9,973c0.4-3.7,0.8-7.5,1.2-11.2c-16.3-1.3-32.6-1.6-48.9-2.5c-17.8-0.9-35.6-2.3-53.3-6.2
		c-17.7-3.8-34.7-10.6-51.3-20.3c-14.5-8.4-31.7-17.6-46.8-6.5c-7.4,5.4-11.6,15.3-14.3,26.2c-1.5,6-2.6,12.2-3.6,18.4
		c3.5,8.1,7.2,16.3,11.3,24.6c0.8-7.1,1.8-14.1,3.1-21.1c2-10.9,4.7-22.5,10.6-30.4c5.6-7.5,13.3-10.7,20.8-10.8
		c8.5-0.1,16.7,3.5,24.5,7.9c8.3,4.6,16.4,9.6,24.9,13.3c16.6,7.4,33.9,11.4,51.2,13.8C2167.7,971.5,2191.3,971.7,2214.9,973z"/>
	<path class="accentcolor" d="M2165.6,1391.3c0.1-0.9,0.2-1.9,0.4-2.8c-6.9-5.4-13.7-11-20.2-16.6c-5.8-5.1-10.9-9.8-16.4-15.2
		c-2.7-2.7-4.7-4.8-7.7-8c-2.6-2.8-5.1-5.7-7.6-8.8c-9.8-11.8-18.5-25.3-25.5-40.7c-0.3,3.4-0.6,6.9-1,10.5
		c9.1,14.5,19.7,27,30.7,38.4c13.1,13.6,26.7,26,40.7,37.6C2161.2,1387.7,2163.4,1389.5,2165.6,1391.3z"/>
	<path class="accentcolor" d="M2209.9,1018.9c0.4-3.7,0.8-7.4,1.2-11.1c-7.1-0.6-14.1-0.9-21.2-1.3c-32.4-1.6-64.8-2.9-97.3-4.3
		c-7.9-0.4-15.9-1.1-23.9-1c-6.4,0.1-12.4,2.2-16.4,9.7c-3.5,6.6-5.1,15.1-6.1,23.2c-1.3,10.3-2.2,20.7-2.9,31c0,0.1,0,0.3,0,0.4
		l12.2,25c0.6-14.6,1.7-29.1,3.5-43.5c1-8.1,2.4-16.6,5.8-23.4c4-7.9,10-10.4,16.5-10.4c16,0,32.1,1.4,48.1,2.1
		c16.2,0.7,32.4,1.4,48.7,2.2C2188.6,1018,2199.3,1018.3,2209.9,1018.9z"/>
	<path class="accentcolor" d="M2152,1495.9c0.1-0.9,0.2-1.8,0.4-2.7c-22.6-18.8-44.2-39.6-63.6-65.3c-3.6-4.8-7.1-9.7-10.6-14.6
		c-0.2,1.8-0.3,3.7-0.5,5.6C2100.3,1448.4,2125.5,1473.5,2152,1495.9z"/>
	<path class="accentcolor" d="M2220.5,920c0.5-4.9,1-9.8,1.5-14.7c-21.8,3.8-43.6,8-65.4,6.9c-45.5-2.2-90.7-21.9-128.6-58.3
		c-19.4-18.7-38.6-39.3-60.7-50.8c-0.8-0.4-1.7-0.9-2.6-1.4c0,3.3-0.1,6.6,0,9.8c2.3-1.2,5.1-0.8,8.2,0.5c10.2,4.2,19.7,11,28.6,19
		c19,16.9,36.7,36.3,56.6,51.1c19.8,14.8,40.9,26,62.7,33.1c22.2,7.3,45,10.3,67.7,8.8C2199.2,923.4,2209.8,921.8,2220.5,920z"/>
	<path class="accentcolor" d="M2156.6,1460.9c0.2-1.2,0.3-2.4,0.5-3.6c-15.8-11.1-31.9-21.3-47.8-31.9c-6.8-4.5-12.8-8.8-18.2-15.5
		c-4-4.9-7.6-10.3-11.1-16c-0.2,2.1-0.4,4.2-0.6,6.4c13.9,17.5,30.4,29.9,47.3,40.7C2136.6,1447.5,2146.6,1454.1,2156.6,1460.9z"/>
	<path class="accentcolor" d="M2217.3,950c0.4-3.9,0.8-7.8,1.2-11.7c-0.3,0-0.5,0-0.8,0c-19.5-0.2-39-1.7-58.3-4.5
		c-38.9-5.7-77.5-16.8-114.9-33.1c-9.3-4.1-18.6-8.4-27.8-13.1c-7.8-4-15.9-9.8-24.3-10.7c-3.1-0.3-6.5,0.1-9.3,2.3
		c-3.6,2.9-5.1,8.1-6.3,13.5c-0.7,3-1.4,6.1-2,9.2c2.6,11,5.7,21.9,9.2,32.8c0.7-5,1.5-9.9,2.5-14.9c1.2-6.3,2.4-12.6,4-18.7
		c1.3-4.9,3.5-9,7-10.9c6.9-3.8,14.9,0.8,21.4,4.3c35.6,19.2,72.4,33.6,109.9,42.9C2158.2,944.7,2187.7,948.8,2217.3,950z"/>
	<path class="accentcolor" d="M2149.9,1511.5c0.1-0.8,0.2-1.5,0.3-2.3c-19.7-18.3-39.4-36.7-58.7-56c-5.2-5.2-10.4-10.6-15.6-16
		c-0.1,0.9-0.2,1.9-0.3,2.8C2099.8,1465,2124.8,1488.3,2149.9,1511.5z"/>
	<path class="accentcolor" d="M2223.5,890.8c0.5-5.2,1.1-10.3,1.6-15.4c-28.8,6.5-57.5,12.9-86.2,0.6c-20.3-8.7-38.3-24.8-55.8-41.7
		c-19.2-18.6-38.3-38-59.1-52.8c-17.9-12.7-38.2-22.7-58.4-21.2c-0.7,33.6-0.7,34.8-0.3,14.7c11.2-4.2,23.1-3.2,34.4-0.1
		c20,5.6,38.2,19.2,55.2,34.9c18.5,17.1,36.2,35.8,55.3,51.7c18.8,15.7,39,28.8,60.8,32.4C2188.5,896.9,2206.1,894.4,2223.5,890.8z"
		/>
	<path class="accentcolor" d="M2225.9,867.5c0.4-4,0.8-7.9,1.2-11.9c-16.5,0-33.1-0.7-49.3-5.1c-8.9-2.4-17.6-6-26-11.1
		c-3.7-2.3-7.3-4.8-10.9-7.6c-1.7-1.3-3.2-2.6-4.5-3.7c-0.5-0.4-0.9-0.8-1.4-1.2c-0.1-0.1-0.4-0.4-0.7-0.7c0,0,0,0,0,0
		c0,0,0,0-0.1,0l-0.2-0.1l-0.1-0.1l-0.4-0.3c-0.7-0.6-1.4-1.3-2.1-1.9c-0.1-0.1-0.5-0.5-0.6-0.6h0c0,0,0,0,0,0c0,0,0,0,0,0h0
		c0,0,0,0,0,0c-0.4-0.3-0.7-0.7-1.1-1c-0.8-0.8-1.6-1.6-2.4-2.4c-2-2-3.2-3.2-4.9-5c-3.6-3.7-7.2-7.5-10.7-11.4
		c-7.2-7.8-14.5-15.6-21.9-23c-15.6-15.5-32.3-30.1-50.5-38.5c-8.2-3.8-16.8-6.2-25.5-6.4c-8.9-0.2-17.7,1.8-26.5,4.2
		c-7.1,1.9-14.3,4.1-21.5,5.3c-0.9,44-0.9,45.6-0.3,13.2c14.3,0.9,29-5.4,42.8-8.6c9-2,17.9-2.8,26.9-1c8.6,1.7,17,5.2,25,10.1
		c3.9,2.4,7.8,5.1,11.5,8c1.5,1.2,3.2,2.6,4.3,3.5c0.9,0.8,1.8,1.6,2.7,2.4c0,0,0,0,0,0c0,0,0,0,0.1,0.1c0.3,0.3,1.6,1.5,1.9,1.7
		c0.5,0.4,0.9,0.9,1.4,1.3c0.2,0.2,0.4,0.4,0.5,0.5c0,0,0,0,0.1,0.1c0,0,0,0,0,0c0,0,0,0,0,0c0,0,0,0,0,0c0,0,0,0,0,0c0,0,0,0,0,0
		c0,0,0,0,0,0c0,0,0,0,0,0c0,0,0,0,0,0c0,0,0,0,0,0c0,0,0,0,0,0c0,0,0,0,0,0c0.8,0.8,1.5,1.5,2.3,2.3c1.8,1.7,3.1,3.1,4.6,4.6
		c3.6,3.7,7.2,7.5,10.7,11.3c15.4,16.5,30.8,32.9,47.6,46.2c16.2,12.7,33.5,20.8,51.9,24.2C2208.6,866.4,2217.2,867.2,2225.9,867.5z
		"/>
	<path class="accentcolor" d="M2242.5,695.8c0.1-1.3,0.2-2.7,0.4-4c-10.7-7.1-21.4-14.1-32.1-21.2c-17.4-11.5-35.1-22.3-51.8-35.8
		c-3.8-3.1-7.4-6.1-10.5-9.1c-3.3-3.1-6.6-6.3-10.1-9.9c-7.6-7.8-14.9-16.1-22.3-24.4c-15.9-17.9-31.8-35.9-47.6-53.8
		c-8.6-9.7-17-19.9-26.6-27.6c-7.4-6-15.1-9.3-23.3-4.6c-16.9,9.7-21,37.8-26.3,59.8c-5.9,24.9-13.6,49.1-23.5,71.3
		c-0.3,0.6-0.6,1.3-0.9,1.9c-1.7,84.7-1.9,96.7-0.8,38.9c10.7-20,20.2-40.5,27.7-63.4c3.9-11.9,7.3-24.2,10.3-36.7
		c2.9-12.1,5.1-24.7,9.3-36.1c3.7-10.1,9.2-19.1,16.7-23.6c3.7-2.2,7.7-3.1,11.7-2.1c1,0.3,2.1,0.6,3,1.1c0.5,0.2,1,0.8,1.5,1
		c0.4,0.4,0.7,0.8,1.1,1.2c15.9,17.9,31.8,35.9,47.7,53.9c15.9,17.9,31.7,36,48.5,52.1c16.7,16,34.5,29,52.7,41.2
		C2212.3,676,2227.4,685.8,2242.5,695.8z"/>
	<path class="accentcolor" d="M2150.8,1344.5C2150.8,1344.5,2150.8,1344.5,2150.8,1344.5C2150.8,1344.5,2150.8,1344.5,2150.8,1344.5z"/>
	<path class="accentcolor" d="M2117.8,1742.1c0.1-0.8,0.2-1.6,0.3-2.4c-4.9-4.3-9.9-8.5-14.8-12.8c-1.9-1.7-3.8-3.3-5.7-5
		c-0.3-0.2-0.6-0.5-0.8-0.8c0,0,0,0,0,0c0,0-0.1-0.1-0.1-0.1c0,0-0.1-0.1-0.1-0.1c0,0,0,0,0,0c0,0-0.1-0.1-0.1-0.1
		c0,0-0.1-0.1-0.1-0.1c-0.1-0.1-0.2-0.2-0.3-0.2c-1.1-1-2.2-2-3.3-3c-2.8-2.6-5.7-5.5-9-9c-6.3-6.8-12.3-14.3-17.8-22.5
		c-4.3-6.3-8.2-13-12-19.9c-0.3,2.8-0.5,5.6-0.8,8.5c6.9,10.3,14.4,19.8,22.4,28.4C2089,1717.5,2103.4,1729.7,2117.8,1742.1z"/>
	<path class="accentcolor" d="M2146.3,1538.2c0.1-1.1,0.3-2.1,0.4-3.2c-7.2-8.2-14.4-16.4-21.5-24.6c-16.2-18.4-32.4-36.7-49.3-53.8
		c-0.5-0.5-1.1-1.1-1.6-1.6c-0.1,0.9-0.2,1.8-0.2,2.6c0.9,0.9,1.8,1.9,2.8,2.8c7.8,8.1,15.4,16.4,23,24.9
		C2115.3,1502.9,2130.8,1520.5,2146.3,1538.2z"/>
	<path class="accentcolor" d="M2072.3,2042.3c0.1-0.9,0.3-1.8,0.4-2.7c-7.4-8-14.9-15.8-22.5-23.4c-9.4-9.5-18.9-19.1-28.8-27.7
		c-0.1,0.9-0.2,1.8-0.3,2.7c5.5,4.6,10.9,9.8,16.2,15C2049.2,2017.7,2060.8,2029.9,2072.3,2042.3z"/>
	<path class="accentcolor" d="M2081.5,1983.7c0.3-1.8,0.6-3.6,0.8-5.4c-9.4-13.2-19.1-26-30.1-36.7c-7.6-7.4-15.6-14.1-23.9-19.5
		c-0.2,1.7-0.4,3.4-0.5,5.1c3.1,1.4,6.2,3,9.2,4.8c3.1,1.9,6.2,4,9.1,6.4c0.7,0.6,1.4,1.2,2,1.8c0,0,0,0,0,0h0c0,0,0,0,0,0
		c0,0,0,0,0,0c0,0,0,0,0.1,0.1c0,0,0.1,0,0.1,0.1c0,0,0,0-0.1,0c0.3,0.3,0.9,0.9,1.1,1.1c0,0,0,0,0,0c0,0,0,0,0,0c0,0,0,0,0,0
		c0,0,0,0,0,0l0,0c0,0,0,0,0,0c0.7,0.7,1.4,1.5,2.1,2.3c6.1,6.8,11.8,14.4,17.3,22.2C2073,1971.8,2077.2,1977.8,2081.5,1983.7z"/>
	<path class="accentcolor" d="M2085.7,1956.6c0.1-0.8,0.2-1.5,0.4-2.3c-12.6-11.8-25.4-23-38.8-33.1c-5.7-4.3-11.6-8.5-17.5-12.4
		c-0.2,1.5-0.3,3-0.5,4.6c1.9,1.1,3.7,2.2,5.5,3.3c13.9,8.5,27.6,19.1,40,30c0.8,0.7,1.6,1.4,2.4,2.2c0.4,0.3,0.7,0.6,1,0.9
		c0.1,0,0.3,0.3,0.5,0.5c0,0,0.1,0,0.1,0.1c0,0,0,0,0,0c0,0,0,0,0,0c0,0,0,0,0,0c0,0,0,0,0,0c0,0,0,0,0,0h0c1.6,1.5,3.2,3,4.8,4.4
		C2084.4,1955.4,2085.1,1956,2085.7,1956.6z"/>
	<path class="accentcolor" d="M2089.6,1931.4c0.2-1,0.3-2,0.5-3c-19-14.6-38.3-28.7-58-41.4c-0.1,1.4-0.3,2.7-0.4,4.1
		c11.4,7.2,22.5,14.9,33.5,22.5C2073.3,1919.5,2081.4,1925.4,2089.6,1931.4z"/>
	<path class="accentcolor" d="M2091.4,1919.2c0.2-1.3,0.4-2.7,0.6-4c-4.7-5.9-9.4-11.8-14.1-17.6c-13.6-16.8-27.5-33-42.1-47.8
		c-0.1,1-0.2,2-0.3,3C2055,1873,2073,1896.6,2091.4,1919.2z"/>
	<path class="accentcolor" d="M2102.9,1843.1c0.1-0.9,0.3-1.8,0.4-2.7c-15-15.8-30-31.7-45-47.6c-5.1-5.4-10.1-10.8-15.2-16.2
		c-0.1,1-0.2,2-0.3,2.9C2062.8,1800.8,2082.8,1822,2102.9,1843.1z"/>
	<path class="accentcolor" d="M2104.8,1830.8c0.1-0.9,0.3-1.8,0.4-2.8c-6.7-7.1-13.4-14.2-20.1-21.4c-13.5-14.5-27.1-29-40.5-43.6
		c-0.1,1-0.2,2-0.3,3C2064.3,1787.8,2084.5,1809.4,2104.8,1830.8z"/>
	<path class="accentcolor" d="M2110.6,1790.9c0.1-1,0.3-2,0.4-3c-8-8.8-16.1-17.7-24.1-26.5c-12.7-14-25.5-27.8-38.1-41.8
		c-0.1,1-0.2,2-0.3,3.1c1.6,1.7,3.1,3.4,4.7,5.1C2072.4,1748.8,2091.5,1769.9,2110.6,1790.9z"/>
	<path class="accentcolor" d="M2256.3,536.5c0.3-4.2,0.7-8.4,1-12.5c-32.7-68.1-61.6-140.1-100.7-201.2c-21.8-34.1-47-65.2-75.3-87.7
		c-25.3-20.1-57.2-35.2-85.8-20.8c-7.6,3.8-14.1,9.5-19.5,16.6c1.1-57.3,0.9-42.9-0.7,37.1c1.6-4.3,3.3-8.5,5.4-12.4
		c19.3-37.5,53.4-40.1,82.2-27.4c32.7,14.5,59.1,49.1,81.7,84.7C2188,380.8,2218.8,462.2,2256.3,536.5z"/>
	<path class="accentcolor" d="M2266.7,403.5c0.6-7.7,1.1-15.2,1.6-22.7c-38.1-76.3-81.1-146.3-132.9-204.9c-29.3-33.2-60.9-64.8-94.8-87.7
		c-19.2-13-40.2-22.6-61.3-23.9c0.2-10,0.2-9.5-0.2,12.5c8.5-1,17-0.6,25.4,1.2c40.5,8.7,76.8,42.9,109,77.4
		c59.1,63.2,107.5,142.3,149.3,228.8c-30.4-54.8-64.1-105.2-102.8-149.1c-28.6-32.4-59.4-63.2-92.4-85.5
		c-27.8-18.8-59.6-30.3-89.5-18.7c1-51.4,1-47.6-0.4,18.8c17.1-10.7,36.6-13.7,55.1-9.7c39.3,8.4,74.4,41.6,105.7,75
		C2188.2,268,2230,332.6,2266.7,403.5z"/>
	<path class="accentcolor" d="M1973,386.4c0,2.1-0.5,24-0.9,43.6c2.7,12.9,5.2,25.9,6.9,39.1c4.9,37.8,1.5,75.8-9.9,109.4
		c-1.6,81.5-2,98.5-0.9,43.3c3.2-5.7,6.1-11.6,8.8-17.9c9.3-21.8,15-46.8,16.7-72.2C1997.1,481,1982.2,434.3,1973,386.4z"/>
	<path class="accentcolor" d="M2097.8,1877.3c0.1-0.9,0.3-1.8,0.4-2.7c-19.4-20.3-38.8-40.8-58.1-61.4c-0.2-0.2-0.4-0.4-0.5-0.6
		c-0.1,1-0.2,1.9-0.3,2.9c18.9,20.1,37.8,40.1,56.8,60C2096.7,1876.2,2097.2,1876.7,2097.8,1877.3z"/>
	<path class="accentcolor" d="M2269.3,367.2c0.3-4.6,0.6-9.1,1-13.6c-42.4-88.1-90.5-168.7-149.4-235.5c-24.3-27.6-50.1-54-77.4-75.7
		c-30.8,5.3-31.8,5.5-3.1,0.5c20.6,15.2,39.9,34.5,58,53.8c64.8,69.2,117.3,156.7,162.4,252.2
		C2263.6,355.1,2266.4,361.1,2269.3,367.2z"/>
	<path class="accentcolor" d="M2081.8,399.9c0.1,0,0.3,0,0.4,0c1.4-0.6,2.8-0.6,4.1-0.5c0.8,1.4,1.5,2.7,2.3,4c6.2,9.7,14.8,17,23.1,22.5
		c3.2,2.1,6.6,3.9,9.9,5.5c2.6,1.3,5.9,3.3,8.6,1.8c3.1-1.8,2.6-6.8,1.1-10.1c-2.4-5.5-7.1-9.5-10.8-13c-7.1-6.7-14.7-11-22.4-15.9
		c-0.6-0.4-1.3-0.8-1.9-1.3c-0.1,0-0.3-0.3-0.5-0.5c-0.3-0.3-0.6-0.7-0.6-0.6c-2.9-3.1-5.6-6.5-8.3-9.9
		c-6.9-8.4-14.1-16.2-21.9-22.7c-3.3-2.7-7.3-6.6-11.3-6.4c-3.1,0.1-5.3,3.4-6.1,7.5c-2.5,12.5,6.2,22,12.4,27.9
		c4.1,4,8.6,7.5,13.2,10.1C2076,399.8,2078.8,399.9,2081.8,399.9z M2069.4,387.8c-2.1,0-4.2,0.2-6.2-0.6c-0.1,0-0.2-0.1-0.3-0.1
		c-2.6-5.4-4.2-12.1-1.5-18.2c1.6-3.7,4.5-5,7.3-3.5c0.2,0.1,0.7,0.4,1,0.7c0.4,0.4,1,1,0.8,0.8c4.7,5.2,9.1,11,13.8,16.4
		c6.3,7.2,13,13.8,20.1,19.1c4.5,3.4,9.4,6.3,14.1,9.1c0.7,1.4,1.3,3.1,1.3,4.9c0,4.2-2.7,5.7-5.2,5.2c-2.4-0.5-4.8-1.9-7.1-3.1
		c-1.9-1-4.3-2.8-6.2-3.9c0,0,0,0,0,0c-1.1-1.6-2-3.4-3-5.2c-2.7-4.9-5.5-8.9-9.1-12.5C2083.5,391.1,2076.7,385.1,2069.4,387.8z
		 M2062.9,387.1c0.4,0.9,0.9,1.8,1.4,2.6c-0.8-1.4-2.1-2.7-3.2-3.6C2061.7,386.5,2062.3,386.8,2062.9,387.1z M2061.1,386.1
		c-0.1-0.1-0.2-0.1-0.3-0.2C2057.6,383.9,2059,384.4,2061.1,386.1z M2069.5,365.8C2069.5,365.8,2069.5,365.8,2069.5,365.8
		C2069.5,365.8,2069.5,365.8,2069.5,365.8c0.9,0.8,0.7,0.6,0.2,0.2c-0.1-0.1-0.2-0.3-0.3-0.3
		C2069.5,365.8,2069.5,365.8,2069.5,365.8C2069.5,365.8,2069.5,365.8,2069.5,365.8z M2069.5,365.8 M2069.4,365.7
		C2069.4,365.7,2069.4,365.7,2069.4,365.7C2069,365.4,2068.7,365,2069.4,365.7C2069.3,365.6,2069.3,365.7,2069.4,365.7z
		 M2118.5,411.5c-0.1-0.2-0.2-0.5-0.4-0.7c-0.3-0.5-0.8-1-1.1-1.5c-1.5-3.2,2.6,2.9,3.5,3.4C2119.9,412.3,2119.2,411.9,2118.5,411.5
		z M2101.3,414.5c0.5,0.7,1.3,1.4,1.7,2.2c-0.4-1-2.3-2.6-3-2.9C2100.4,414,2100.8,414.2,2101.3,414.5z M2069.4,387.8
		c0.1,0,0.2,0,0.3,0c1,0,2.4,1.5,3.2,2.2c1.7,1.4,3.4,2.9,5,4.5c1.2,1.2,2.6,2.5,3.6,4c0.2,0.4,1.1,1.3,0.3,1.3c0,0,0,0,0,0
		c-0.6-0.1-1.3-0.8-1.8-1.1c-1.6-1.2-3.1-2.6-4.7-4c-1.5-1.4-3-2.9-4.4-4.5C2071.3,390.7,2069.1,388,2069.4,387.8
		C2069.4,387.9,2069.4,387.8,2069.4,387.8z M2086.3,399.4c-0.5-0.8-0.9-1.7-1.3-2.5c-0.6-1-1.1-2-1.7-3c-0.3-0.5-0.7-1-1.1-1.6
		c2.9,2.8,5.9,5.5,8.8,8.3c-0.1,0-0.1-0.1-0.2-0.1C2089.2,400.1,2087.8,399.6,2086.3,399.4z M2096,392.7c1,1,0.1,0.2-0.4-0.3
		c-0.4-0.4-0.2-0.2,0.1,0C2096.1,392.7,2096.4,393.1,2096,392.7z"/>
	<path class="accentcolor" d="M2069.5,365.8c0,0,0.1,0.1,0.1,0.1C2069.6,365.9,2069.6,365.9,2069.5,365.8z"/>
	<path class="accentcolor" d="M2096,392.7C2096,392.7,2096,392.7,2096,392.7C2096,392.7,2096,392.7,2096,392.7z"/>
	<path class="accentcolor" d="M2057.1,1976.8C2057.1,1976.8,2057.1,1976.7,2057.1,1976.8C2057.1,1976.7,2057.1,1976.8,2057.1,1976.8z"/>
</g>
</svg>
