<svg xmlns="http://www.w3.org/2000/svg" viewBox="0 0 397.92 100.5"><defs><style>.cls-1,.cls-3{fill-rule:evenodd;}.cls-2,.cls-3{stroke:#f3370c;}</style></defs><g id="Layer_2" data-name="Layer 2"><g id="Layer_1-2" data-name="Layer 1"><path class="cls-1" d="M339.83,0H260.49c-29.4,0-50,22.36-50,50s23.78,48.88,51.37,48.88l86.07.36c32.58-.36,49.94-21.66,49.94-49.24S375.6,0,339.83,0ZM328.19,20.1H276.93c-18.35,0-33.29,12.53-33.29,29.74s14.84,27.67,32.05,27.67l57.94.22c20.32-.22,31.51-10.68,31.51-27.89S350.51,20.11,328.19,20.1Z"/><rect class="cls-2" x="177.84" y="71.52" width="32.93" height="19.2" rx="0.87"/><path class="cls-3" d="M164,2.14H14.86a1.5,1.5,0,0,0-1.49,1.23L3.33,56a1.52,1.52,0,0,0,1.49,1.8H32a2.54,2.54,0,0,0,2.28-1.15c.82-1.2,2.7-2.4,5.5-2.67,21-2,84.84-1.47,87.91-1.47,7.23,0,13.8,5.51,13.8,12.74v.39c0,7.23-2.7,11.92-13.1,12.94-3.59.36-48,1.52-90.31-1-2.29-.14-4.09-2.32-4.66-3.09-.28-.39-.82-.27-1.29-.27H2A1.51,1.51,0,0,0,.5,75.65h0C.5,89,16,98.47,29.35,99.19c16.95.92,102.33.89,111.24.71,17.82-.36,34.18-13.88,34.18-31v-.74c-.08-18.93-11.33-29.18-30.25-31-8.58-.82-72.82-3.15-107.88,1.1L40,21.86l123.43-.59a1.51,1.51,0,0,0,1.51-1.46l.59-16.1A1.5,1.5,0,0,0,164,2.14Z"/></g></g></svg>