<svg xmlns="http://www.w3.org/2000/svg" viewBox="0 0 460 50.81"><defs><style>.cls-1{fill-rule:evenodd;}</style></defs><g id="Layer_2" data-name="Layer 2"><g id="Layer_1-2" data-name="Layer 1"><path class="cls-1" d="M15.35,3.2a17,17,0,0,1,3,5l.86,5.21c.4,3.86,1.67,8.24,5,11.3,4.86,4.49,11.46,6.85,18.6,7.81l5.13.68-6.16,1.13A144.42,144.42,0,0,0,.82,48.17a1.26,1.26,0,0,0-.51,2,2,2,0,0,0,1.53.65l25.47-.08a2,2,0,0,0,1.56-.7c3.17-4.21,10.38-7.49,16.5-9.36A88,88,0,0,1,67.86,37c2-.1,3.55-1.45,3.45-3s-1.56-2.77-3.49-2.88a49.9,49.9,0,0,1-10.11-1.57c-5.45-1.16-5.16-2.76-6.06-6.47a24.91,24.91,0,0,0-3.71-8.89,28.42,28.42,0,0,0-12.2-9.54A44.82,44.82,0,0,0,19.88.24C14.61-.63,13.45.93,15.35,3.2ZM1.83,49.37A145.62,145.62,0,0,1,56,33.79c-10.66-3.45-19-10.3-22.84-18.85C40,25.13,53.08,31.78,67.69,32.51A1.74,1.74,0,0,1,69.48,34a1.69,1.69,0,0,1-1.69,1.55c-15.18.3-35.21,5.91-40.49,13.74ZM46,37.18l-1-.49A106.71,106.71,0,0,0,34.36,39l2,.65A69.05,69.05,0,0,1,46,37.18ZM30.24,42l-3.08-.77a95.26,95.26,0,0,0-13,5.68h7.2A61.07,61.07,0,0,1,30.24,42ZM45.58,31.32C38.76,27.32,34,21.54,32.07,15c-.49-.73-1-1.51-1.54-2.34A28.49,28.49,0,0,0,19.73,3.6L16.61,2.09l1.74,2.29a10.18,10.18,0,0,1,1.76,3.47s.88,5.39.88,5.4A16.37,16.37,0,0,0,25.51,23.7c4.71,4.25,11.67,7,19.28,7.56ZM50.44,26c-.14-.54-.26-1.1-.37-1.67a24.41,24.41,0,0,0-3.6-9.32h0l-.13-.21h0c-2.77-4-6.33-6.5-11.52-9A44.34,44.34,0,0,0,22.46,2a42.47,42.47,0,0,0-4.52-.48L22,3.15a68.07,68.07,0,0,1,6,4.22,31,31,0,0,1,4.14,4.57C39.51,21.55,44.68,23.92,50.44,26Z"/><path class="cls-1" d="M216.43,30.7V21.34c.1-3.21-2.48-6.1-6.35-7.13a34.72,34.72,0,0,0-10.65-1.34H188a35.24,35.24,0,0,0-8.15.83c-4.8.91-9.57,3.47-9.48,7.7v9.32a5.61,5.61,0,0,0,2.06,4.35,16.4,16.4,0,0,0,6.82,3A37.77,37.77,0,0,0,188,39l9.34.12a59.51,59.51,0,0,0,9.35-.69C212,37.7,216.74,35,216.43,30.7Zm-37.28.44V20.87c.19-.8,1.71-1.33,2.7-1.55a27.19,27.19,0,0,1,5.85-.57q8.84-.13,17.62.3a16,16,0,0,1,2.73.92l.21.51V31.37a.39.39,0,0,1-.1.23l-.55.4a8.62,8.62,0,0,1-1.83.64,23.36,23.36,0,0,1-5.29.57H187.74c-2,0-7,0-8.44-1.73l.13-.14Z"/><path class="cls-1" d="M216.43,30.7V21.34c.1-3.21-2.48-6.1-6.35-7.13a34.72,34.72,0,0,0-10.65-1.34H188a35.24,35.24,0,0,0-8.15.83c-4.8.91-9.57,3.47-9.48,7.7v9.32a5.61,5.61,0,0,0,2.06,4.35,16.4,16.4,0,0,0,6.82,3A37.77,37.77,0,0,0,188,39l9.34.12a59.51,59.51,0,0,0,9.35-.69C212,37.7,216.74,35,216.43,30.7Zm-37.28.44V20.87c.19-.8,1.71-1.33,2.7-1.55a27.19,27.19,0,0,1,5.85-.57q8.84-.13,17.62.3a16,16,0,0,1,2.73.92l.21.51V31.37a.39.39,0,0,1-.1.23l-.55.4a8.62,8.62,0,0,1-1.83.64,23.36,23.36,0,0,1-5.29.57H187.74c-2,0-7,0-8.44-1.73l.13-.14Z"/><path class="cls-1" d="M92.39,34.28a5.78,5.78,0,0,1-1.56-.55,1,1,0,0,1-.52-.83V29.38h28.48c2.36,0,4.33-1.5,4.33-3.38s-1.94-3.4-4.33-3.4H90.2l0-2.77a10.5,10.5,0,0,1,.21-1.37l.59-.36,1.48-.45a35.72,35.72,0,0,1,6.94-.54h20.79c2.35,0,4.33-1.51,4.32-3.38s-1.94-3.39-4.32-3.4H97.41a34.24,34.24,0,0,0-7.64.71c-4.81.91-9.48,3.62-9.48,7.85V33.09c-.11,3.77,4.06,6.44,8.3,7.45a32.06,32.06,0,0,0,8.32,1l23.34,0c2.39,0,4.33-1.55,4.32-3.43s-1.94-3.4-4.32-3.41h-23L94,34.54Z"/><path class="cls-1" d="M92.39,34.28a5.78,5.78,0,0,1-1.56-.55,1,1,0,0,1-.52-.83V29.38h28.48c2.36,0,4.33-1.5,4.33-3.38s-1.94-3.4-4.33-3.4H90.2l0-2.77a10.5,10.5,0,0,1,.21-1.37l.59-.36,1.48-.45a35.72,35.72,0,0,1,6.94-.54h20.79c2.35,0,4.33-1.51,4.32-3.38s-1.94-3.39-4.32-3.4H97.41a34.24,34.24,0,0,0-7.64.71c-4.81.91-9.48,3.62-9.48,7.85V33.09c-.11,3.77,4.06,6.44,8.3,7.45a32.06,32.06,0,0,0,8.32,1l23.34,0c2.39,0,4.33-1.55,4.32-3.43s-1.94-3.4-4.32-3.41h-23L94,34.54Z"/><path class="cls-1" d="M139.49,13.35c-6.39-.26-15.44,1.62-15.09,8.13v8.9c-.36,7.15,9.82,8.34,16.42,8.1l23.39,0c2.35,0,4.33-1.5,4.32-3.38s-1.93-3.39-4.32-3.4H141A15.41,15.41,0,0,1,134.9,31l-.7-.43a.71.71,0,0,1-.23-.43V21.4a.54.54,0,0,1,.28-.42,3.42,3.42,0,0,1,1.12-.42,21,21,0,0,1,4.56-.39l24.28,0c2.36,0,4.33-1.51,4.32-3.38s-1.93-3.39-4.32-3.4Z"/><path class="cls-1" d="M139.49,13.35c-6.39-.26-15.44,1.62-15.09,8.13v8.9c-.36,7.15,9.82,8.34,16.42,8.1l23.39,0c2.35,0,4.33-1.5,4.32-3.38s-1.93-3.39-4.32-3.4H141A15.41,15.41,0,0,1,134.9,31l-.7-.43a.71.71,0,0,1-.23-.43V21.4a.54.54,0,0,1,.28-.42,3.42,3.42,0,0,1,1.12-.42,21,21,0,0,1,4.56-.39l24.28,0c2.36,0,4.33-1.51,4.32-3.38s-1.93-3.39-4.32-3.4Z"/><path class="cls-1" d="M290.93,14.46c-4.06.95-8,3.36-9.8,6.43L276,30.26c-1.68,2.82-.42,6.06,3.24,7.22A27.87,27.87,0,0,0,289.36,39h10.47a44.92,44.92,0,0,0,11.42-1.46c3.89-.94,7.73-3.34,9.41-6.33l4.67-9.4c2.66-4.23,0-7.57-5.47-8.49a34.53,34.53,0,0,0-7-.45H302.34A45.79,45.79,0,0,0,290.93,14.46Zm80.21,7.35c2.63-4.23,0-7.56-5.49-8.48a34.48,34.48,0,0,0-7-.45H347.92a47.85,47.85,0,0,0-11.66,1.59c-3.95.92-8.06,3.38-9.79,6.43-.2.36-5.18,10.15-5.43,12s1.93,4,4,4.62A27.85,27.85,0,0,0,335.15,39h10.47A44.47,44.47,0,0,0,357,37.56c3.89-.94,7.73-3.34,9.41-6.33Zm-84.72,9.76c.58-1.47,4.09-7.76,5.13-9.62,1.2-1.75,6.36-2.26,9.19-2.25l12.1.11,1.41.19a4.17,4.17,0,0,1,1,.32l-4.93,9.93a4,4,0,0,1-1.33.89,21.14,21.14,0,0,1-7,1.14L289,32.15A7.54,7.54,0,0,1,286.42,31.57Zm45.83,0c.51-1.49,3.71-7.75,4.65-9.62.62-.91,2.45-1.47,3.77-1.73a27.28,27.28,0,0,1,5.42-.52l12.6.11a6.14,6.14,0,0,1,2.33.52l-4.9,9.89c-.62.77-2.27,1.29-3.46,1.54a24.53,24.53,0,0,1-4.92.52l-12.95-.13A9.78,9.78,0,0,1,332.25,31.57Z"/><path class="cls-1" d="M236.82,10.31a5.28,5.28,0,0,0-4.57,1.91l0,0L219.49,37.48c0,.07-.37,1.34-.37,1.38,0,1.74,2.2,2.77,4.17,2.65h29.89A37.65,37.65,0,0,0,264.83,40a16.55,16.55,0,0,0,9.38-6.53c1.55-2,2.06-4.66.29-6.67a11,11,0,0,0,3.08-2.07c2.46-2.35,6.48-7.92,3.39-11.1a10.18,10.18,0,0,0-5.74-2.81,43.59,43.59,0,0,0-7.49-.5Zm32.62,7.3a2.44,2.44,0,0,1,1.15.63.87.87,0,0,1,.23.65c-.21,1.44-3.26,2.75-4.74,3.16a29.52,29.52,0,0,1-6.31.56h-21.6L241,17.13h23.51l3.44.2ZM262.81,29.9a2.32,2.32,0,0,1,1.16.64.69.69,0,0,1,.18.53c-.08.63-1,1.34-1.68,1.75l-1.91,1-1.14.39a30.47,30.47,0,0,1-6.27.54H232.08l2.65-5.31h23l3.49.21Z"/><path class="cls-1" d="M385.47,29.3l12.95.07c.45,0,2.84.2-.77,1.89a9.83,9.83,0,0,1-4.43.61H370c-3.38.07-6.27,2-6.36,4.7-.07,1.91,1.84,2.49,3.81,2.6h23c7.31.18,15.65-1.45,18.9-7.21l1.19-2.08c.92-1.5,1.48-3.88-.08-5.34-2.71-2.54-6.91-2.5-10.72-2.65l-11-.11-4.42,0c-2.56,0-.33-1.86,1.27-1.77l22.23-.07c3.37-.07,6.3-1.85,6.38-4.56a2.18,2.18,0,0,0-.58-1.49,3.28,3.28,0,0,0-1.62-.91l-.05,0-1.57-.17h-20c-4.62.18-8.65.66-12.54,2.45a9.77,9.77,0,0,0-4.66,3.9L372,21.19c-1.71,2.89-.66,5.85,3.47,7A37.82,37.82,0,0,0,385.47,29.3Z"/><path class="cls-1" d="M456.23,13.05H420.35c-2.8,0-5.92,1.84-6,4.19,0,1.65,1.87,2.76,3.8,2.7h13l-7.73,15.32c-.67,1.74-.16,3.27,2.35,3.52l2.87,0a5.06,5.06,0,0,0,4.93-2.74l8.19-16.14H454c2.19,0,4.94-1.23,5.67-3,0-.06.31-1.2.31-1.22a2.24,2.24,0,0,0-.66-1.59A4.26,4.26,0,0,0,456.23,13.05Z"/></g></g></svg>