<svg xmlns="http://www.w3.org/2000/svg" viewBox="0 0 460 37.83"><defs><style>.cls-1{fill-rule:evenodd;}</style></defs><g id="Layer_2" data-name="Layer 2"><g id="Layer_1-2" data-name="Layer 1"><path class="cls-1" d="M164.93,24.72V13.38c.12-3.89-3-7.39-7.69-8.64a41.81,41.81,0,0,0-12.9-1.62H130.48a41.8,41.8,0,0,0-9.88,1c-5.81,1.1-11.59,4.2-11.48,9.33V24.74A6.82,6.82,0,0,0,111.61,30a20,20,0,0,0,8.26,3.69,46.12,46.12,0,0,0,10.65,1.08l11.31.13a72.59,72.59,0,0,0,11.33-.83C159.55,33.19,165.3,29.94,164.93,24.72Zm-45.16.53V12.8c.23-1,2.07-1.61,3.27-1.87a32.24,32.24,0,0,1,7.09-.69q10.69-.16,21.35.36a19.18,19.18,0,0,1,3.3,1.12l.26.62V25.53a.5.5,0,0,1-.12.27l-.68.49a10.9,10.9,0,0,1-2.21.77,28.55,28.55,0,0,1-6.41.7H130.17c-2.4,0-8.41-.06-10.22-2.1l.16-.17Z"/><path class="cls-1" d="M164.93,24.72V13.38c.12-3.89-3-7.39-7.69-8.64a41.81,41.81,0,0,0-12.9-1.62H130.48a41.8,41.8,0,0,0-9.88,1c-5.81,1.1-11.59,4.2-11.48,9.33V24.74A6.82,6.82,0,0,0,111.61,30a20,20,0,0,0,8.26,3.69,46.12,46.12,0,0,0,10.65,1.08l11.31.13a72.59,72.59,0,0,0,11.33-.83C159.55,33.19,165.3,29.94,164.93,24.72Zm-45.16.53V12.8c.23-1,2.07-1.61,3.27-1.87a32.24,32.24,0,0,1,7.09-.69q10.69-.16,21.35.36a19.18,19.18,0,0,1,3.3,1.12l.26.62V25.53a.5.5,0,0,1-.12.27l-.68.49a10.9,10.9,0,0,1-2.21.77,28.55,28.55,0,0,1-6.41.7H130.17c-2.4,0-8.41-.06-10.22-2.1l.16-.17Z"/><path class="cls-1" d="M14.66,29.05a6.57,6.57,0,0,1-1.88-.67,1.17,1.17,0,0,1-.63-1V23.12h34.5c2.86,0,5.25-1.82,5.24-4.09s-2.35-4.12-5.24-4.13H12l.05-3.36a12.48,12.48,0,0,1,.26-1.65L13,9.46l1.8-.55a43.65,43.65,0,0,1,8.41-.64H48.41c2.85,0,5.25-1.82,5.24-4.09S51.3.07,48.42.06H20.74a42.72,42.72,0,0,0-9.25.86C5.66,2,0,5.3,0,10.43V27.62c-.12,4.56,4.92,7.8,10.06,9a39.9,39.9,0,0,0,10.08,1.19H48.41c2.9,0,5.25-1.88,5.24-4.15s-2.35-4.12-5.23-4.13H20.52l-3.9-.18Z"/><path class="cls-1" d="M14.66,29.05a6.57,6.57,0,0,1-1.88-.67,1.17,1.17,0,0,1-.63-1V23.12h34.5c2.86,0,5.25-1.82,5.24-4.09s-2.35-4.12-5.24-4.13H12l.05-3.36a12.48,12.48,0,0,1,.26-1.65L13,9.46l1.8-.55a43.65,43.65,0,0,1,8.41-.64H48.41c2.85,0,5.25-1.82,5.24-4.09S51.3.07,48.42.06H20.74a42.72,42.72,0,0,0-9.25.86C5.66,2,0,5.3,0,10.43V27.62c-.12,4.56,4.92,7.8,10.06,9a39.9,39.9,0,0,0,10.08,1.19H48.41c2.9,0,5.25-1.88,5.24-4.15s-2.35-4.12-5.23-4.13H20.52l-3.9-.18Z"/><path class="cls-1" d="M71.73,3.7C64,3.38,53,5.66,53.45,13.55V24.33C53,33,65.33,34.43,73.34,34.14l28.32,0c2.86,0,5.26-1.82,5.25-4.09S104.56,26,101.68,26H73.53a18.87,18.87,0,0,1-7.37-.9l-.84-.52A.9.9,0,0,1,65,24V13.45a.66.66,0,0,1,.34-.51,4.29,4.29,0,0,1,1.35-.51A25.46,25.46,0,0,1,72.26,12l29.41,0c2.86,0,5.25-1.83,5.24-4.1s-2.35-4.12-5.23-4.12Z"/><path class="cls-1" d="M71.73,3.7C64,3.38,53,5.66,53.45,13.55V24.33C53,33,65.33,34.43,73.34,34.14l28.32,0c2.86,0,5.26-1.82,5.25-4.09S104.56,26,101.68,26H73.53a18.87,18.87,0,0,1-7.37-.9l-.84-.52A.9.9,0,0,1,65,24V13.45a.66.66,0,0,1,.34-.51,4.29,4.29,0,0,1,1.35-.51A25.46,25.46,0,0,1,72.26,12l29.41,0c2.86,0,5.25-1.83,5.24-4.1s-2.35-4.12-5.23-4.12Z"/><path class="cls-1" d="M189.63,0a6.41,6.41,0,0,0-5.54,2.32l0,0L168.64,32.93c0,.08-.45,1.63-.45,1.67-.05,2.11,2.67,3.35,5.05,3.21h36.22A45.4,45.4,0,0,0,223.56,36a20.08,20.08,0,0,0,11.37-7.91c1.88-2.46,2.5-5.65.35-8.09A12.74,12.74,0,0,0,239,17.46c3-2.83,7.85-9.58,4.11-13.43a12.35,12.35,0,0,0-7-3.41A53.87,53.87,0,0,0,227.09,0Zm39.52,8.85a3,3,0,0,1,1.39.76,1.05,1.05,0,0,1,.29.79c-.26,1.74-4,3.32-5.75,3.82a34.82,34.82,0,0,1-7.64.68H191.27l3.36-6.64h28.48l4.18.24Zm-8,14.88a2.88,2.88,0,0,1,1.4.78.85.85,0,0,1,.22.65c-.1.75-1.18,1.62-2,2.11l-2.32,1.15L217,28.9a36.27,36.27,0,0,1-7.59.66H183.89l3.22-6.43H215l4.23.25Z"/><path class="cls-1" d="M369.72,23l15.68.08a5.47,5.47,0,0,1,1.61.31,4.3,4.3,0,0,1-2.55,2,18.79,18.79,0,0,1-5.36.63H351c-4.1.08-7.6,2.69-7.71,6-.08,2.33,2.23,3,4.62,3.15h27.84c8.85.23,19-1.92,22.89-8.9l1.44-2.52c1.12-1.82,1.79-4.71-.09-6.48-3.28-3.07-8.37-3-13-3.2l-13.28-.14-5.36-.24c-.53,0-1.52-.17-2.21-.29a3.11,3.11,0,0,1,1.11-.94,6.86,6.86,0,0,1,2.64-.46l26.93-.09c4.08-.09,7.64-2.7,7.72-6a2.62,2.62,0,0,0-.7-1.81,3.91,3.91,0,0,0-2-1.1l-.06,0L400,2.75H375.69c-5.59.22-10.47.8-15.19,3a12.29,12.29,0,0,0-5.64,5l-1.45,2.53c-2.08,3.5-.8,7.08,4.2,8.46A39,39,0,0,0,369.72,23Z"/><path class="cls-1" d="M455.43,3.34H412c-3.4,0-7.17,2.22-7.23,5.07,0,2,2.26,3.35,4.59,3.27H425l-9.37,18.56c-.81,2.1-.19,4,2.86,4.27l3.47,0c2.86,0,5-1.24,6-3.31l9.92-19.56h14.86c2.66,0,6-1.49,6.88-3.6,0-.07.37-1.45.37-1.48a2.76,2.76,0,0,0-.79-1.92A5.18,5.18,0,0,0,455.43,3.34Z"/><path class="cls-1" d="M291.67,10.63l-34.6.16-2.39,4.36h24.77a7.3,7.3,0,0,1,3.73.66c.67.43.33,1.81-.06,2.52a7.43,7.43,0,0,1-2.75,2.88,12.21,12.21,0,0,1-4.46.67H251.13l-3,5.43,35.2-.16a7.48,7.48,0,0,1,3.87.7,1.31,1.31,0,0,1,.59,1.85c-.4.75-2,3.76-3.21,4.22a12.81,12.81,0,0,1-4.61.7l-40.47.16c-2.6,0-4.31-.31-5.11-.92s-.85-1.61-.11-3L247,7.21a6.46,6.46,0,0,1,2-2.24A8.41,8.41,0,0,1,252,3.7a21.27,21.27,0,0,1,4.37-.39l39.06-.16c1.91,0,3.63.39,4.1,1.54s-.51,2.74-.9,3.47A4.28,4.28,0,0,1,296.27,10,13,13,0,0,1,291.67,10.63Z"/><path class="cls-1" d="M329.79,30.79l-.73-3.85H308.11l-4.54,3.94a27.05,27.05,0,0,1-4.11,3.1c-1,.54-6.87.81-8.43.81a4.87,4.87,0,0,1-3.08-.86,1.43,1.43,0,0,1-.52-1.94,5.22,5.22,0,0,1,1-1.3c.47-.45,1.19-1.07,2.15-1.87L314.32,8.9l2.44-2.06a20.79,20.79,0,0,1,2.75-2,12.5,12.5,0,0,1,3.05-1.29,14.15,14.15,0,0,1,3.9-.49c1.47,0,9,.16,9.82.49A3.53,3.53,0,0,1,338,4.82a4.44,4.44,0,0,1,.67,1.66c.1.59.22,1.39.35,2.38l3.32,19.8a5.41,5.41,0,0,1-.11,3.28,5.1,5.1,0,0,1-2.53,2,19.75,19.75,0,0,1-5.87.89,6.42,6.42,0,0,1-2-.26,2.52,2.52,0,0,1-1.12-.71,3.3,3.3,0,0,1-.58-1.38C330,31.81,329.88,31.27,329.79,30.79Zm-17.52-8.52H328.1L326.58,9.61Z"/></g></g></svg>