<svg xmlns="http://www.w3.org/2000/svg" viewBox="0 0 460 37.83"><defs><style>.cls-1{fill-rule:evenodd;}</style></defs><g id="Layer_2" data-name="Layer 2"><g id="Layer_1-2" data-name="Layer 1"><path class="cls-1" d="M164.93,24.72V13.38c.12-3.89-3-7.39-7.69-8.64a41.81,41.81,0,0,0-12.9-1.62H130.48a41.8,41.8,0,0,0-9.88,1c-5.81,1.1-11.59,4.2-11.48,9.33V24.74A6.82,6.82,0,0,0,111.61,30a20,20,0,0,0,8.26,3.69,46.12,46.12,0,0,0,10.65,1.08l11.31.13a72.59,72.59,0,0,0,11.33-.83C159.55,33.19,165.3,29.94,164.93,24.72Zm-45.16.53V12.8c.23-1,2.07-1.61,3.27-1.87a32.24,32.24,0,0,1,7.09-.69q10.69-.16,21.35.36a19.18,19.18,0,0,1,3.3,1.12l.26.62V25.53a.5.5,0,0,1-.12.27l-.68.49a10.9,10.9,0,0,1-2.21.77,28.55,28.55,0,0,1-6.41.7H130.17c-2.4,0-8.41-.06-10.22-2.1l.16-.17Z"/><path class="cls-1" d="M164.93,24.72V13.38c.12-3.89-3-7.39-7.69-8.64a41.81,41.81,0,0,0-12.9-1.62H130.48a41.8,41.8,0,0,0-9.88,1c-5.81,1.1-11.59,4.2-11.48,9.33V24.74A6.82,6.82,0,0,0,111.61,30a20,20,0,0,0,8.26,3.69,46.12,46.12,0,0,0,10.65,1.08l11.31.13a72.59,72.59,0,0,0,11.33-.83C159.55,33.19,165.3,29.94,164.93,24.72Zm-45.16.53V12.8c.23-1,2.07-1.61,3.27-1.87a32.24,32.24,0,0,1,7.09-.69q10.69-.16,21.35.36a19.18,19.18,0,0,1,3.3,1.12l.26.62V25.53a.5.5,0,0,1-.12.27l-.68.49a10.9,10.9,0,0,1-2.21.77,28.55,28.55,0,0,1-6.41.7H130.17c-2.4,0-8.41-.06-10.22-2.1l.16-.17Z"/><path class="cls-1" d="M14.66,29.05a6.57,6.57,0,0,1-1.88-.67,1.17,1.17,0,0,1-.63-1V23.12h34.5c2.86,0,5.25-1.82,5.24-4.09s-2.35-4.12-5.24-4.13H12l.05-3.36a12.48,12.48,0,0,1,.26-1.65L13,9.46l1.8-.55a43.65,43.65,0,0,1,8.41-.64H48.41c2.85,0,5.25-1.82,5.24-4.09S51.3.07,48.42.06H20.74a42.72,42.72,0,0,0-9.25.86C5.66,2,0,5.3,0,10.43V27.62c-.12,4.56,4.92,7.8,10.06,9a39.9,39.9,0,0,0,10.08,1.19H48.41c2.9,0,5.25-1.88,5.24-4.15s-2.35-4.12-5.23-4.13H20.52l-3.9-.18Z"/><path class="cls-1" d="M14.66,29.05a6.57,6.57,0,0,1-1.88-.67,1.17,1.17,0,0,1-.63-1V23.12h34.5c2.86,0,5.25-1.82,5.24-4.09s-2.35-4.12-5.24-4.13H12l.05-3.36a12.48,12.48,0,0,1,.26-1.65L13,9.46l1.8-.55a43.65,43.65,0,0,1,8.41-.64H48.41c2.85,0,5.25-1.82,5.24-4.09S51.3.07,48.42.06H20.74a42.72,42.72,0,0,0-9.25.86C5.66,2,0,5.3,0,10.43V27.62c-.12,4.56,4.92,7.8,10.06,9a39.9,39.9,0,0,0,10.08,1.19H48.41c2.9,0,5.25-1.88,5.24-4.15s-2.35-4.12-5.23-4.13H20.52l-3.9-.18Z"/><path class="cls-1" d="M255.19,5c-4.93,1.15-9.67,4.07-11.88,7.79l-6.18,11.35c-2,3.41-.51,7.34,3.93,8.75a33.74,33.74,0,0,0,12.22,1.84H266A54.2,54.2,0,0,0,279.8,33c4.71-1.14,9.37-4.05,11.4-7.68L296.86,14c3.22-5.12,0-9.17-6.63-10.29a42.63,42.63,0,0,0-8.51-.55H269A55.38,55.38,0,0,0,255.19,5ZM352.35,14c3.19-5.13,0-9.16-6.65-10.28a42.58,42.58,0,0,0-8.51-.55h-13A59,59,0,0,0,310.1,5.05c-4.79,1.12-9.76,4.1-11.86,7.8-.24.42-6.28,12.29-6.58,14.49-.33,2.35,2.34,4.78,4.88,5.59a33.7,33.7,0,0,0,12.22,1.84h12.68A54.18,54.18,0,0,0,335.27,33c4.71-1.14,9.37-4,11.39-7.67ZM249.72,25.77c.7-1.78,5-9.4,6.21-11.66,1.45-2.11,7.71-2.73,11.13-2.72l14.66.13,1.71.23a4.75,4.75,0,0,1,1.19.39l-6,12A4.84,4.84,0,0,1,277,25.25a25.05,25.05,0,0,1-8.5,1.37l-15.65-.14A9.54,9.54,0,0,1,249.72,25.77Zm55.52,0c.61-1.8,4.49-9.38,5.63-11.65.75-1.09,3-1.78,4.57-2.09a32.71,32.71,0,0,1,6.56-.63l15.27.13a7.68,7.68,0,0,1,2.82.63l-5.93,12c-.75.93-2.75,1.55-4.2,1.86a28.82,28.82,0,0,1-5.95.62l-15.69-.15A11.71,11.71,0,0,1,305.24,25.76Z"/><path class="cls-1" d="M189.63,0a6.41,6.41,0,0,0-5.54,2.32l0,0L168.64,32.93c0,.08-.45,1.63-.45,1.67-.05,2.11,2.67,3.35,5.05,3.21h36.22A45.4,45.4,0,0,0,223.56,36a20.08,20.08,0,0,0,11.37-7.91c1.88-2.46,2.5-5.65.35-8.09A12.74,12.74,0,0,0,239,17.46c3-2.83,7.85-9.58,4.11-13.43a12.35,12.35,0,0,0-7-3.41A53.87,53.87,0,0,0,227.09,0Zm39.52,8.85a3,3,0,0,1,1.39.76,1.05,1.05,0,0,1,.29.79c-.26,1.74-4,3.32-5.75,3.82a34.82,34.82,0,0,1-7.64.68H191.27l3.36-6.64h28.48l4.18.24Zm-8,14.88a2.88,2.88,0,0,1,1.4.78.85.85,0,0,1,.22.65c-.1.75-1.18,1.62-2,2.11l-2.32,1.15L217,28.9a36.27,36.27,0,0,1-7.59.66H183.89l3.22-6.43H215l4.23.25Z"/><path class="cls-1" d="M369.72,23l15.68.08c.55,0,3.44.24-.94,2.29a11.74,11.74,0,0,1-5.36.74H351c-4.1.08-7.6,2.41-7.71,5.69-.08,2.32,2.23,3,4.62,3.15h27.84c8.85.22,19-1.75,22.89-8.73l1.44-2.52c1.12-1.82,1.79-4.71-.09-6.48-3.28-3.07-8.37-3-13-3.2l-13.28-.14h-5.36c-3.1,0-.4-2.26,1.54-2.15l26.93-.09c4.08-.09,7.64-2.24,7.72-5.52a2.62,2.62,0,0,0-.7-1.81,3.91,3.91,0,0,0-2-1.1l-.06,0L400,3H375.69c-5.59.22-10.47.8-15.19,3a11.87,11.87,0,0,0-5.64,4.72l-1.45,2.53c-2.08,3.5-.8,7.08,4.2,8.46A46.12,46.12,0,0,0,369.72,23Z"/><path class="cls-1" d="M455.43,3.34H412c-3.4,0-7.17,2.22-7.23,5.07,0,2,2.26,3.35,4.59,3.27H425l-9.37,18.56c-.81,2.1-.19,4,2.86,4.27l3.47,0c2.86,0,5-1.24,6-3.31l9.92-19.56h14.86c2.66,0,6-1.49,6.88-3.6,0-.07.37-1.45.37-1.48a2.76,2.76,0,0,0-.79-1.92A5.18,5.18,0,0,0,455.43,3.34Z"/><path class="cls-1" d="M87,34.15c8,0,20.32-1.16,19.89-9.82V19.07a3.27,3.27,0,0,0-3.27-3.26H98.45A3.17,3.17,0,0,0,95.3,19V24a.88.88,0,0,1-.27.52l-.85.52c-2.18.9-4.92.9-7.36.9H73.53c-2.44,0-5.18,0-7.37-.9l-.84-.52A.9.9,0,0,1,65,24V13.45a.66.66,0,0,1,.34-.51,4.29,4.29,0,0,1,1.35-.51A25.46,25.46,0,0,1,72.26,12l29.41,0c2.86,0,5.25-1.83,5.24-4.1s-2.35-4.12-5.23-4.12H71.73C64,3.38,53,5.66,53.45,13.55V24.33C53,33,65.32,34.15,73.34,34.15Z"/></g></g></svg>