<svg xmlns="http://www.w3.org/2000/svg" viewBox="0 0 460 47.79"><defs><style>.cls-1{fill:#121212;fill-rule:evenodd;}</style></defs><g id="Layer_2" data-name="Layer 2"><g id="Layer_1-2" data-name="Layer 1"><polygon class="cls-1" points="345.28 9.87 334.8 30.82 345.45 30.82 353.05 15.62 353.22 15.62 365.38 30.82 381.94 30.82 392.42 9.87 381.77 9.87 374.17 25.08 374 25.08 361.84 9.87 345.28 9.87"/><polygon class="cls-1" points="336.66 9.87 324.5 9.87 314.36 30.82 326.53 30.82 336.66 9.87"/><path class="cls-1" d="M288.68,30.82h17.74l1.69-3.55H292.73c-7.77,0-12.5-3.21-10.64-6.92s9.63-6.76,17.23-6.76H314.7l1.69-3.72H299c-13.69,0-27,4.73-29.91,10.48S275,30.82,288.68,30.82Z"/><path class="cls-1" d="M188.83,9.87h-35c-.34,0-.67.17-.67.51,0,.17.84.34,2,.67l4.23,1.19c1,.17,1.86.5,1.86,1h0l-12,24.67h17.07l11.15-23.15h23.65c1,0,3.72,0,2.2,3-1.69,3.38-7.77,3.38-7.77,3.38H179.53l-2.19,5.07,18.92,11.66H446.48l7.44-14.7H440.4l-4.9,10H422.32C412,33.19,405.6,29,408,23.89c2.54-4.89,12.84-9.12,23.32-9.12l26.52.17L460,10H434.66c-20.28,0-39.88,6.25-44.1,13.85-2.53,4.74,1.18,8.79,8.95,11.33H212.14l-15.2-9s18.92,1.18,23.31-8.45c1.35-2.19,3.21-7.94-10.3-7.94Z"/><path class="cls-1" d="M243.74,9.87,215,30.82h11.82l4.9-3.72H253.2l1.52,3.72h12.67l-9.12-21Zm-5.92,12.67,10.48-7.77,3,7.77Z"/><path class="cls-1" d="M63,0C98.52,0,124.8,9.84,124.6,23.74,124.4,35.92,98.52,47.79,63,47.79s-63-9-63-23.13C.1,10.86,27.5,0,63,0Zm-.2,45.76c35.51,0,59.56-11.47,59.56-22.42S98.12,1.93,62.6,1.93c-30.44,0-60.16,9.43-60.37,22.52C2.13,36.73,27.29,45.76,62.81,45.76ZM62.6,44c35.52,0,57.94-11.17,57.94-20.3,0-9.84-22-20-57.53-20S4.26,14.1,4.26,24.25C4.26,35.11,27.09,44,62.6,44ZM79,9.44a48.2,48.2,0,0,1-8.52,1c-9.64,0-16.24-2.54-23.74-2.54s-13.3,3.66-13.3,8.32a4.08,4.08,0,0,0,4.16,4.37c3.15,0,7.11-3.45,7.11-6.09,0-.2-.21-.81-.41-.81-.91,0-2.13,3.55-5.28,3.55a2.17,2.17,0,0,1-2.13-2c0-1.83,2.24-5.58,9.24-5.58A48.73,48.73,0,0,1,55.91,11c-3.15.91-6.09,4.56-9.24,8.62-2.63.31-5,.71-6,1.93-.92,1-.31,1.72.2,1.22.81-.92,2.64-1.32,4.67-1.63-4.06,5.38-8.12,10.76-12.79,10.76a3.27,3.27,0,0,1-3.55-3.15c0-2.33,2.23-4.16,3.55-4.87.82-.3.92-1.21-.61-1.21-3.34,0-6.19,3.75-6.19,6.69a6.58,6.58,0,0,0,6.9,6.8c7,0,11.47-8.32,15.93-15.32A53.59,53.59,0,0,0,55.1,20a2.92,2.92,0,0,0,1.82,1.32c.31,0,.41-.31.41-.51a4.22,4.22,0,0,1-1.22-1.12c1.62-.5,2.64-1.32,2.64-2.74a1.81,1.81,0,0,0-1.83-1.82A2.57,2.57,0,0,0,54.49,18c0,.3.1.61.1.91-1.32.2-3.05.31-4.87.51,2.23-3.45,4.46-6.29,7-7.41l-.31-.91c5.59,1.32,11.06,3,14.92,3,5,0,8.73-2.23,8.73-3.85A1.1,1.1,0,0,0,79,9.44ZM55.7,18c0-.81.41-1.83,1.32-1.83.41,0,.71.51.71.71,0,.81-.81,1.42-2,1.73ZM62,35.72c2-3.25,5.68-9,5.68-10.15a.75.75,0,0,0-.81-.81c-1.32,0-4.37,3.14-5.89,5.48-2.54,3.95-4.87,5.88-7.51,5.88a4.62,4.62,0,0,1-4.77-3.75,12.61,12.61,0,0,1-2.43,2.23c-.51.3-1.42-1-.81-1.52a11.77,11.77,0,0,0,3-3.66c1.62-3.14,4.16-6.79,7.81-6.79,1.22,0,1.73,1.21.61,1.62A7.33,7.33,0,0,0,51.75,31c0,1.52.81,2.33,2,2.33,3.55,0,6.49-5.07,5-8.83-.31-.91,1.42-2.13,1.93-1.42a5.14,5.14,0,0,1,.91,3.76C63.21,25.16,65.65,22,68.18,22a2,2,0,0,1,2.14,1.82,2.87,2.87,0,0,1-.11,1.63c1.32-1.83,3-3.25,4.57-3.25a2.41,2.41,0,0,1,2.54,2.33,2.54,2.54,0,0,1-2.24,2.54,1.59,1.59,0,0,1-1.62-2c0-.1,0-.3-.3-.3s-1.42,1.72-1.42,2.94a1.78,1.78,0,0,0,1.82,1.72c3.55,0,7.41-6.9,12.18-6.9a3.3,3.3,0,0,1,3.55,2.74c1.83-2.94,4.06-6.29,5.78-9.13h3.55c-4,6.7-10.24,15.63-10.24,16.74a1.09,1.09,0,0,0,1,1c1,0,3.86-2.23,6.19-4.87.51-.61,1.42.3,1.12.61-3.66,4.46-6.09,6.59-8.83,6.59-1.52,0-2.33-1.32-2.64-2.64C83.91,34.8,82.09,36,80.36,36c-1.93,0-3.55-1.42-3.55-4.16a7.13,7.13,0,0,1,.3-2A9.37,9.37,0,0,1,73,31.56c-1.92,0-2.74-1.43-2.74-3.45l-4.87,7.61ZM85.94,24.66c-2.54,0-5.88,4.05-5.88,7,0,.81.81,1.82,1.52,1.82,1.93,0,4.46-2.84,5.78-5.27l-.51-.41A4.68,4.68,0,0,0,87.36,26,1.37,1.37,0,0,0,85.94,24.66Z"/></g></g></svg>