<svg xmlns="http://www.w3.org/2000/svg" viewBox="0 0 260.53 100"><defs><style>.cls-1{fill-rule:evenodd;}</style></defs><g id="Layer_2" data-name="Layer 2"><g id="Layer_1-2" data-name="Layer 1"><path class="cls-1" d="M131.12,0C56.86,1-.15,24.38,0,53.24.37,82.73,58.1,100.89,132.37,100s128.05-26.43,128.16-51.9C260.59,19,205.38-.9,131.12,0Zm.77,95.7c-74.26.93-127.12-17.3-127.23-43,.09-27.37,62-47.88,125.66-48.68,74.26-.92,125.25,20.51,125.53,43.21C256.14,70.2,206.15,94.8,131.89,95.73Z"/><path class="cls-1" d="M131.42,92.13C205.68,91.2,252.28,67.27,252,48.18,251.78,27.6,205.48,7,131.22,7.88S8.64,31.06,8.9,52.28C9.18,75,57.16,93.05,131.42,92.13Zm33.47-72.79A2.32,2.32,0,0,1,167,21c0,3.39-7.75,8.16-18.15,8.29-8.06.1-19.56-3.37-31.27-6l.67,1.9c-5.28,2.4-9.87,8.4-14.45,15.67,3.81-.47,7.42-.73,10.17-1.18,0-.64-.23-1.27-.24-1.91,0-3,1.63-6,5-6a3.79,3.79,0,0,1,3.87,3.78c0,3-2.06,4.69-5.45,5.79,1.09,1.69,2.58,2.09,2.58,2.31,0,.42-.2,1.06-.84,1.07A6.19,6.19,0,0,1,115.09,42,111.5,111.5,0,0,1,102,43.9C92.8,58.66,83.68,76.17,69.05,76.35c-8.28.11-14.5-5.55-14.61-14-.08-6.16,5.77-14.08,12.77-14.17,3.18,0,3,1.87,1.3,2.53-2.74,1.52-7.36,5.4-7.3,10.28,0,2.76,2.21,6.55,7.51,6.48C78.48,67.32,86.83,56,95.17,44.62c-4.23.69-8,1.59-9.71,3.52-1,1.07-2.34-.4-.46-2.54,2.09-2.58,7-3.49,12.47-4.19,6.47-8.57,12.53-16.29,19.08-18.28-7-1.4-14-2.58-20.4-2.5C81.51,20.81,76.94,28.72,77,32.54a4.53,4.53,0,0,0,4.5,4.19c6.58-.09,9-7.54,11-7.57.42,0,.86,1.27.86,1.69.07,5.52-8.11,12.83-14.69,12.92-3.61,0-8.73-2.23-8.81-9C69.68,25,81.46,17.2,97.38,17c15.7-.2,29.55,4.93,49.71,4.68C156.43,21.57,163.61,19.36,164.89,19.34Zm-35,55.4c4.16-6.84,11.65-19,11.62-21.36a1.57,1.57,0,0,0-1.72-1.68c-2.76,0-9,6.69-12.17,11.61-5.2,8.34-10,12.44-15.54,12.51a9.64,9.64,0,0,1-10.07-7.73,25.89,25.89,0,0,1-5,4.73c-1.05.65-3-2.08-1.73-3.16a24.75,24.75,0,0,0,6.27-7.72c3.31-6.62,8.52-14.32,16.16-14.42,2.54,0,3.63,2.5,1.31,3.38A15.31,15.31,0,0,0,108.37,65c0,3.18,1.76,4.86,4.31,4.83,7.42-.1,13.45-10.78,10.16-18.59-.66-1.9,2.92-4.5,4-3,1.72,1.67,2.41,5.91,2,7.82,3.35-3.43,8.36-10.08,13.66-10.14,2.55,0,4.48,1.85,4.51,3.76a6.15,6.15,0,0,1-.17,3.4c2.71-3.85,6.07-6.87,9.46-6.91A5,5,0,0,1,161.68,51c0,2.55-2.06,5.33-4.61,5.37a3.31,3.31,0,0,1-3.44-4.2c0-.22,0-.64-.65-.63-.85,0-2.92,3.64-2.89,6.19A3.75,3.75,0,0,0,154,61.29c7.43-.1,15.31-14.63,25.28-14.75,3,0,6.38,1,7.5,5.64,3.74-6.2,8.32-13.26,11.86-19.25l7.42-.09c-8.1,14.1-21,32.94-21,35.27a2.28,2.28,0,0,0,2.15,2.1c2.12,0,8-4.77,12.81-10.35,1.05-1.28,3,.6,2.35,1.25-7.52,9.43-12.55,14-18.28,14-3.19,0-4.92-2.7-5.59-5.45-2.72,2.58-6.51,5.18-10.12,5.22-4,0-7.46-2.88-7.53-8.61a14.52,14.52,0,0,1,.58-4.25c-2.95,2-6.32,3.69-8.65,3.72-4,0-5.77-2.9-5.82-7.14l-10,16Z"/><path class="cls-1" d="M179.71,51c-5.3.07-12.2,8.64-12.12,14.79,0,1.7,1.75,3.8,3.23,3.78,4,0,9.26-6.05,12-11.18l-1.07-.84a10.2,10.2,0,0,0,1-3.83A2.87,2.87,0,0,0,179.71,51Z"/><path class="cls-1" d="M116.31,37.78l0,1.27c2.53-.67,4.22-2,4.19-3.66,0-.42-.65-1.48-1.5-1.47C117.11,34,116.29,36.08,116.31,37.78Z"/></g></g></svg>