<svg xmlns="http://www.w3.org/2000/svg" viewBox="0 0 262.72 100"><defs><style>.cls-1{fill:#121212;fill-rule:evenodd;}</style></defs><g id="Layer_2"><g id="Layer_1-2"><path class="cls-1" d="M33.43,76.29H3.86c-.29,0-.57.14-.57.42S4,77,5,77.29l3.57,1c.86.14,1.57.42,1.57.85Z"/><path class="cls-1" d="M117.86,94c-11.57,0-19-4-16.57-8.86s13.71-8.85,25.28-8.85h14.72l-1.43,3.14h-13c-6.43,0-13,2.57-14.57,5.71s2.43,5.86,9,5.86h13l-1.43,3Z"/><path class="cls-1" d="M251.29,100l6.28-12.43H246.15L242,96H230.86c-8.71,0-14.14-3.57-12.14-7.86,2.14-4.14,10.85-7.71,19.71-7.71l22.43.14,1.86-4.14H241.29c-17.14,0-33.72,5.28-37.29,11.71-2.14,4,1,7.43,7.57,9.58H53.14L40.29,90.14s16,1,19.71-7.14c1.14-1.86,2.71-6.71-8.71-6.71H11.57L0,100H14.43l9.43-19.57h20c.85,0,3.14,0,1.85,2.57-1.42,2.86-6.57,2.86-6.57,2.86H25.57l-1.86,4.28,16,9.86Z"/><path class="cls-1" d="M79.86,76.29H92.14L99.86,94H89.14l-1.28-3.14H69.71L65.57,94h-10ZM74.86,87H86.29l-2.57-6.57Z"/><polygon class="cls-1" points="158.43 76.29 149.86 94 139.57 94 148.14 76.29 158.43 76.29"/><polygon class="cls-1" points="165.72 76.29 179.72 76.29 190 89.14 190.15 89.14 196.57 76.29 205.57 76.29 196.72 94 182.72 94 172.43 81.14 172.29 81.14 165.86 94 156.86 94 165.72 76.29"/><path class="cls-1" d="M132.14,0c50,0,87,13.86,86.72,33.43-.29,17.14-36.71,33.86-86.72,33.86S43.43,54.57,43.43,34.71C43.57,15.29,82.14,0,132.14,0Zm-.28,64.43c50,0,83.86-16.14,83.86-31.57S181.57,2.71,131.57,2.71c-42.85,0-84.71,13.29-85,31.72C46.43,51.71,81.86,64.43,131.86,64.43ZM131.57,62c50,0,81.58-15.71,81.58-28.57,0-13.86-31-28.15-81-28.15S49.43,19.86,49.43,34.14C49.43,49.43,81.57,62,131.57,62Zm23.15-48.71a68,68,0,0,1-12,1.42c-13.58,0-22.86-3.57-33.43-3.57-10.72,0-18.72,5.15-18.72,11.72A5.74,5.74,0,0,0,96.43,29c4.43,0,10-4.86,10-8.57,0-.29-.29-1.14-.57-1.14-1.29,0-3,5-7.43,5a3.06,3.06,0,0,1-3-2.86c0-2.57,3.14-7.86,13-7.86a68.4,68.4,0,0,1,13.71,1.86c-4.42,1.28-8.57,6.43-13,12.14-3.71.43-7,1-8.42,2.72-1.29,1.42-.43,2.42.28,1.71,1.14-1.29,3.71-1.86,6.57-2.29-5.71,7.58-11.43,15.15-18,15.15-3.57,0-5-2.57-5-4.43,0-3.29,3.15-5.86,5-6.86,1.15-.43,1.29-1.71-.85-1.71C84,31.86,80,37.14,80,41.29c0,5.71,4.14,9.57,9.71,9.57,9.86,0,16.15-11.72,22.43-21.57A75.43,75.43,0,0,0,121,28.14,4.11,4.11,0,0,0,123.57,30c.43,0,.57-.43.57-.71s-1-.43-1.71-1.58c2.29-.71,3.71-1.85,3.71-3.85a2.55,2.55,0,0,0-2.57-2.58c-2.28,0-3.43,2-3.43,4,0,.42.15.85.15,1.28-1.86.29-4.29.43-6.86.72,3.14-4.86,6.29-8.86,9.86-10.43l-.43-1.29c7.86,1.86,15.57,4.29,21,4.29,7,0,12.28-3.15,12.28-5.43A1.55,1.55,0,0,0,154.72,13.29Zm-32.86,12c0-1.15.57-2.58,1.86-2.58.57,0,1,.72,1,1,0,1.15-1.15,2-2.86,2.43Zm8.86,25c2.85-4.58,8-12.72,8-14.29a1.05,1.05,0,0,0-1.15-1.14c-1.85,0-6.14,4.43-8.28,7.71-3.57,5.57-6.86,8.29-10.57,8.29A6.49,6.49,0,0,1,112,45.57a17.29,17.29,0,0,1-3.43,3.14c-.71.43-2-1.42-1.14-2.14a16.58,16.58,0,0,0,4.29-5.14c2.28-4.43,5.85-9.57,11-9.57,1.71,0,2.42,1.71.85,2.28a10.31,10.31,0,0,0-7.28,9.43c0,2.14,1.14,3.29,2.85,3.29,5,0,9.15-7.15,7-12.43-.42-1.29,2-3,2.72-2,1.14,1.14,1.57,4,1.28,5.28,2.29-2.28,5.72-6.71,9.29-6.71a2.87,2.87,0,0,1,3,2.57,4.17,4.17,0,0,1-.14,2.29c1.85-2.57,4.14-4.57,6.43-4.57a3.39,3.39,0,0,1,3.57,3.28c0,1.72-1.43,3.57-3.15,3.57a2.22,2.22,0,0,1-2.28-2.85c0-.15,0-.43-.43-.43s-2,2.43-2,4.14A2.52,2.52,0,0,0,147,41.43c5,0,10.43-9.72,17.14-9.72a4.64,4.64,0,0,1,5,3.86c2.58-4.14,5.72-8.86,8.15-12.86h5c-5.57,9.43-14.43,22-14.43,23.58a1.53,1.53,0,0,0,1.43,1.42c1.42,0,5.43-3.14,8.71-6.85.72-.86,2,.43,1.57.85C174.43,48,171,51,167.15,51c-2.15,0-3.29-1.86-3.72-3.71-1.86,1.71-4.43,3.42-6.86,3.42-2.71,0-5-2-5-5.85A10.12,10.12,0,0,1,152,42c-2,1.29-4.28,2.43-5.86,2.43-2.71,0-3.85-2-3.85-4.86l-6.86,10.72Zm33.71-15.58c-3.57,0-8.29,5.72-8.29,9.86,0,1.14,1.15,2.57,2.15,2.57,2.71,0,6.28-4,8.14-7.43l-.71-.57a6.87,6.87,0,0,0,.71-2.57A1.92,1.92,0,0,0,164.43,34.71Z"/></g></g></svg>