<svg xmlns="http://www.w3.org/2000/svg" viewBox="0 0 255.37 100"><defs><style>.cls-1{fill-rule:evenodd;}</style></defs><g id="Layer_2" data-name="Layer 2"><g id="Layer_1-2" data-name="Layer 1"><path class="cls-1" d="M186.08,4c-2.14,0-14.25,3.75-30,4C122.14,8.32,98.79-.32,72.34,0,45.53.34,25.67,13.46,25.88,29.91,26,41.35,34.65,45.17,40.73,45.09,51.81,45,65.6,32.63,65.48,23.33c0-.71-.75-2.85-1.46-2.84-3.22,0-7.35,12.61-18.44,12.75C40.22,33.3,38,28.33,38,26.18c-.08-6.43,7.62-19.76,32.28-20.07C81,6,92.82,8,104.65,10.33,93.6,13.69,83.4,26.68,72.5,41.12c-9.28,1.19-17.49,2.72-21,7.06-3.17,3.61-1,6.09.77,4.28,2.82-3.25,9.23-4.76,16.37-5.93C54.57,65.66,40.51,84.78,24.06,85c-8.93.11-12.59-6.28-12.65-10.93-.1-8.22,7.69-14.75,12.3-17.31,2.85-1.11,3.16-4.33-2.2-4.26C9.72,52.63-.13,66,0,76.35.18,90.65,10.67,100.17,24.61,100c24.66-.31,40-29.82,55.45-54.68,7.85-.82,15.71-1.63,22.12-3.14,2.19,3.19,5.42,4.58,6.5,4.57s1.41-1.09,1.4-1.81c0-.35-2.51-1-4.33-3.88,5.69-1.85,9.23-4.76,9.17-9.76a6.4,6.4,0,0,0-6.52-6.36c-5.72.07-8.51,5.11-8.45,10.12,0,1.07.38,2.14.4,3.21-4.64.77-10.71,1.21-17.14,2C90.92,28,98.66,17.91,107.55,13.87l-1.11-3.2c19.72,4.4,39.1,10.23,52.68,10.06,17.52-.22,30.64-8.25,30.57-14,0-1.08-1.82-2.84-3.61-2.82ZM104.24,35c0-2.86,1.35-6.46,4.57-6.5,1.43,0,2.52,1.76,2.53,2.47,0,2.86-2.8,5-7.07,6.17l0-2.14Z"/><path class="cls-1" d="M127.18,97.29c7-11.53,19.63-32.07,19.58-36a2.64,2.64,0,0,0-2.9-2.83c-4.65.06-15.23,11.28-20.49,19.57-8.76,14-16.9,20.94-26.2,21.06-10,.13-15.45-6.24-17-13a44.21,44.21,0,0,1-8.48,8c-1.78,1.09-5-3.52-2.93-5.33a41.19,41.19,0,0,0,10.56-13C85,64.56,93.72,51.58,106.59,51.42c4.29-.05,6.13,4.22,2.22,5.69-13.18,4.46-18,16.32-17.94,23.83.07,5.36,3,8.18,7.25,8.13,12.51-.16,22.66-18.16,17.13-31.32-1.11-3.2,4.91-7.57,6.73-5.09,2.89,2.82,4.06,10,3.38,13.19,5.65-5.79,14.09-17,23-17.1,4.29,0,7.54,3.13,7.58,6.35a10.26,10.26,0,0,1-.28,5.72c4.56-6.49,10.22-11.57,15.94-11.64,5-.06,9,3.46,9,8.11.05,4.29-3.46,9-7.75,9-3.93.05-6.83-3.13-5.81-7.07,0-.36,0-1.08-1.09-1.06-1.43,0-4.93,6.14-4.87,10.43,0,3.93,3.65,6,6.51,6,12.51-.15,25.79-24.63,42.59-24.84,5-.06,10.75,1.65,12.63,9.49,6.31-10.44,14-22.34,20-32.42l12.51-.16C241.72,50.45,220,82.18,220,86.11a3.85,3.85,0,0,0,3.62,3.54c3.58-.05,13.49-8,21.59-17.44,1.76-2.16,5,1,4,2.1C236.5,90.2,228,97.81,218.36,97.93c-5.36.07-8.28-4.54-9.41-9.17-4.59,4.34-11,8.71-17,8.79-6.79.08-12.57-4.85-12.7-14.5a24.89,24.89,0,0,1,1-7.16c-5,3.28-10.65,6.21-14.58,6.26-6.79.08-9.72-4.89-9.81-12L139,97.14l-11.8.15Zm83.88-40c-8.94.11-20.55,14.56-20.42,24.92,0,2.86,2.94,6.4,5.44,6.37,6.79-.09,15.6-10.21,20.14-18.84l-1.8-1.41a17.07,17.07,0,0,0,1.7-6.46,4.8,4.8,0,0,0-5.06-4.58Z"/></g></g></svg>