<svg xmlns="http://www.w3.org/2000/svg" viewBox="0 0 398.77 100"><defs><style>.cls-1{fill-rule:evenodd;}</style></defs><g id="Layer_2" data-name="Layer 2"><g id="Layer_1-2" data-name="Layer 1"><path class="cls-1" d="M192.92,1.93v16a1.92,1.92,0,0,0,1.93,1.93H275a1.92,1.92,0,0,1,1.92,1.93V98.07a1.93,1.93,0,0,0,1.93,1.93H311.5a1.92,1.92,0,0,0,1.92-1.93V21.75a1.93,1.93,0,0,1,1.93-1.93h81.49a1.93,1.93,0,0,0,1.93-2l-.89-16A1.91,1.91,0,0,0,396,0H194.85A1.92,1.92,0,0,0,192.92,1.93Z"/><path class="cls-1" d="M187.91,17.89v-16A1.93,1.93,0,0,0,186,0h-165A20.44,20.44,0,0,0,.49,20.29L0,79.38A20.47,20.47,0,0,0,20.45,100H182.91a1.92,1.92,0,0,0,1.93-1.93V42.32a1.92,1.92,0,0,0-1.93-1.93H95.79a1.93,1.93,0,0,0-1.93,1.93V52.45a1.94,1.94,0,0,0,1.93,1.93H149.5a1.92,1.92,0,0,1,1.93,1.93V76A1.92,1.92,0,0,1,149.5,78H41.18a3.85,3.85,0,0,1-3.86-3.85V23.68a3.86,3.86,0,0,1,3.86-3.86H186A1.93,1.93,0,0,0,187.91,17.89Z"/></g></g></svg>