<svg xmlns="http://www.w3.org/2000/svg" viewBox="0 0 460 43.67"><defs><style>.cls-1{fill-rule:evenodd;}</style></defs><g id="Layer_2"><g id="Layer_1-2"><path class="cls-1" d="M34.89,43.61q16.49.11,33-.22A15.12,15.12,0,0,0,81.17,32.7Q83.71,26.48,85.62,20A3,3,0,0,0,84,16.4a29.14,29.14,0,0,0-8-.5q-14.51,0-29,.11a1.46,1.46,0,0,0-1.09.74,32.61,32.61,0,0,0-1.3,3.71.38.38,0,0,0,.08.27.74.74,0,0,0,.33.22,13.34,13.34,0,0,0,3.28.19q14,0,28,.05a1.85,1.85,0,0,1,1.5,2A90.1,90.1,0,0,1,73.42,34.8a9.34,9.34,0,0,1-9.32,3.57q-27.7.08-55.41-.16A2.74,2.74,0,0,1,6.49,35a238.38,238.38,0,0,1,9.17-24.7A11.79,11.79,0,0,1,27.4,5.42l151.84-.08a1.41,1.41,0,0,0,1.15-.74c.4-1,.8-2.06,1.19-3.1l.24-.83a.4.4,0,0,0-.29-.39,4,4,0,0,0-1.46-.1L22.16.31A15.76,15.76,0,0,0,8,11.76Q3.56,22.8.2,34.25a7.25,7.25,0,0,0,6.24,8.9,157.11,157.11,0,0,0,17.22.46Z"/><path class="cls-1" d="M128.3,21.53,132.92,9l.23-.83a.43.43,0,0,0-.29-.4,3.66,3.66,0,0,0-1.47-.12q-54.24-.12-108.48.24a8.62,8.62,0,0,0-7,6.89Q12.52,24.1,9.22,33.45a3.48,3.48,0,0,0,.1,1.81,1.29,1.29,0,0,0,1.07.75q28.35.27,56.69-.1A9,9,0,0,0,73.48,29a34.64,34.64,0,0,0,1.45-4.31,1.56,1.56,0,0,0,0-.83.62.62,0,0,0-.43-.39,4.46,4.46,0,0,0-1.5-.11q-14.32,0-28.64,0a1.1,1.1,0,0,0-.94.64A22.48,22.48,0,0,0,42,27.76a.63.63,0,0,0,.18.6,1,1,0,0,0,.64.18q11.51-.11,23,.11a.88.88,0,0,1,.57.25l.11.25a1.87,1.87,0,0,1-1.91,1.76q-23.25.16-46.49,0a.86.86,0,0,1-.74-.52A2.31,2.31,0,0,1,17.53,29q2.76-7.71,5.68-15.37a1.27,1.27,0,0,1,.92-.7q49.71-.17,99.41-.05a.84.84,0,0,1,.77.54,1.69,1.69,0,0,1-.1.86l-10.38,28.5a.58.58,0,0,0,.08.46.68.68,0,0,0,.4.3,23.53,23.53,0,0,0,3.66.08,12.37,12.37,0,0,0,1.36,0,1.4,1.4,0,0,0,1.15-.74q4-10.57,7.82-21.26Z"/><path class="cls-1" d="M137.2,22.24c1-2.85,2-5.69,3.13-8.5a2,2,0,0,1,1.85-.94q17,0,34.07-.06a1.64,1.64,0,0,0,1.28-.7c.38-.77.72-1.56,1-2.36a4,4,0,0,0,.38-1.22V8.14a.61.61,0,0,0-.38-.37,4.53,4.53,0,0,0-1.47-.12l-40.61,0a1,1,0,0,0-.82.5L123.1,42.3a1.41,1.41,0,0,0-.11.81.54.54,0,0,0,.38.39,4.09,4.09,0,0,0,1.48.1c1.31,0,2.61,0,3.92,0a.83.83,0,0,0,.76-.46q3.79-10.45,7.67-20.87Z"/><path class="cls-1" d="M221.35,43.61q20.21.09,40.42-.18a13.85,13.85,0,0,0,12-9.94,16,16,0,0,0,1.8-10,1,1,0,0,1,.24-.82l.86-.77a18.17,18.17,0,0,0,4.59-10.09A8.43,8.43,0,0,0,273.77.57Q263.68,0,253.55.18q-21.87,0-43.73.05a1.72,1.72,0,0,0-1.36,1.23c-.38,1-.73,2.06-1.05,3.11l0,.35a.68.68,0,0,0,.48.39,28.8,28.8,0,0,0,3.71.11q30-.09,59.9.17A4.2,4.2,0,0,1,274.9,11,16.43,16.43,0,0,1,269,21.9a1.14,1.14,0,0,0-.47,1.17c.17.51.32,1,.45,1.55A14.91,14.91,0,0,1,263.28,37a28.16,28.16,0,0,1-12,1.34l-55.68,0a1,1,0,0,0-.82.5,29.7,29.7,0,0,0-1.38,3.87.67.67,0,0,0,.12.58.89.89,0,0,0,.58.22q13.62.06,27.23,0Z"/><path class="cls-1" d="M306,43.61q22.47.12,44.93-.25a14.46,14.46,0,0,0,11.92-10.59A23.17,23.17,0,0,0,365.43,20a5.74,5.74,0,0,0-6.29-4.12l-52.37-.08a8.34,8.34,0,0,1-1.86-.15.6.6,0,0,1-.31-.21.45.45,0,0,1-.1-.3,3.34,3.34,0,0,1,.36-1.16,1.58,1.58,0,0,1,.77-1,4.18,4.18,0,0,1,1.89-.22l59.68-.08a1.8,1.8,0,0,0,1.65-1.14c.41-1,.78-2,1.1-3.09a.64.64,0,0,0-.42-.77,4.21,4.21,0,0,0-1.5-.09l-66.83,0a1.26,1.26,0,0,0-1,.64Q297.88,14,296,19.82a1.55,1.55,0,0,0,0,.8.52.52,0,0,0,.4.32,5.24,5.24,0,0,0,1.48,0q28.79-.2,57.57.08a6.79,6.79,0,0,1,2.71.76,1.29,1.29,0,0,1,.63,1A24.32,24.32,0,0,1,356.39,32a8.81,8.81,0,0,1-6.21,6.17q-34.73.21-69.46.29a1.44,1.44,0,0,0-1.09.74q-.61,1.58-1.11,3.18a1.59,1.59,0,0,0,0,.78.42.42,0,0,0,.27.29,4.93,4.93,0,0,0,1.79.12l25.4,0Z"/><path class="cls-1" d="M406.31,38.37q15.74.14,31.45-.27a9.89,9.89,0,0,0,7.75-7.57q3.81-10,6.95-20.24c.1-.5.17-1,.22-1.5A3.62,3.62,0,0,0,449,5.54q-28.47-.27-56.94,0a10.76,10.76,0,0,0-8.6,8.41q-3.85,10-7,20.24a3,3,0,0,0,2.92,3.91q13.47.33,26.93.22Zm-3,5.24q17.6.09,35.19-.21a14.49,14.49,0,0,0,12.92-10.67Q456,20.91,459.72,8.79a6.14,6.14,0,0,0-3.26-7.38A31.77,31.77,0,0,0,443.75.18q-26.58-.1-53.16.21A14.63,14.63,0,0,0,377.87,11q-4.61,11.87-8.5,24a19,19,0,0,0,0,3.77,7.51,7.51,0,0,0,6.24,4.58q13.84.39,27.71.26Z"/><path class="cls-1" d="M224.35,36.12q17.6.18,35.2-.25a10.13,10.13,0,0,0,7.21-10.57,2.23,2.23,0,0,0-2-1.89q-23.33-.27-46.67-.11a3.62,3.62,0,0,0-.86.22,1.51,1.51,0,0,0-.58.67c-.3.79-.59,1.59-.87,2.39a1.68,1.68,0,0,0-.09.89,1,1,0,0,0,.89.71q20.73,0,41.46,0a1.27,1.27,0,0,1,.35,2.51,4.61,4.61,0,0,1-1.88.25L199,31.06a1.88,1.88,0,0,0-1.5.66,5.49,5.49,0,0,0-.74,1.81,14.86,14.86,0,0,0-.56,1.75l0,.35a.66.66,0,0,0,.48.41,12.92,12.92,0,0,0,3,.1l24.69,0Z"/><path class="cls-1" d="M309,36.15q20.63.08,41.23-.16a5,5,0,0,0,3.52-3.3A54.22,54.22,0,0,0,356.36,25a1.09,1.09,0,0,0-.58-1.09,6.47,6.47,0,0,0-3.39-.6l-58.93-.1a1.11,1.11,0,0,1-.75-.3.72.72,0,0,1-.1-.64q2.77-7.86,5.78-15.64a2.88,2.88,0,0,1,.6-.87,1.29,1.29,0,0,1,.71-.27l70.49-.11a1.4,1.4,0,0,0,1.15-.73c.43-1,.83-2.06,1.21-3.11l.22-.83a.39.39,0,0,0-.29-.39A4,4,0,0,0,371,.18l-76.55,0a.87.87,0,0,0-.77.46q-4.84,13.17-9.55,26.39a1.07,1.07,0,0,0,0,.75.78.78,0,0,0,.56.37,9.34,9.34,0,0,0,1.83.06q30.19,0,60.39.09a1.92,1.92,0,0,1,.83.26.75.75,0,0,1,.33.53,1.86,1.86,0,0,1-1.91,1.79L283.68,31a1.4,1.4,0,0,0-1.18.65,31.17,31.17,0,0,0-1.46,3.6.63.63,0,0,0,.35.75,3.78,3.78,0,0,0,1.46.11q13.06-.06,26.11,0Z"/><path class="cls-1" d="M415.3,31q9.72.06,19.45-.13a2.72,2.72,0,0,0,2.16-1.9q2.86-7.14,5.16-14.49a1.29,1.29,0,0,0-.15-1,1.31,1.31,0,0,0-.88-.56q-23.27-.21-46.52.07a2.28,2.28,0,0,0-1.41.6,9.18,9.18,0,0,0-1.32,2.75q-2.44,6.25-4.54,12.63a5.05,5.05,0,0,0-.08,1.1.76.76,0,0,0,.52.74,5,5,0,0,0,1.5.17q13.05.07,26.11,0Zm-7.49,5.13q14.6.12,29.19-.13a7.69,7.69,0,0,0,6.45-6.26q3.66-9.56,6.63-19.36a5.15,5.15,0,0,0,0-1.11,1.2,1.2,0,0,0-.63-1A6,6,0,0,0,446,7.67q-27-.17-53.91.2a9.81,9.81,0,0,0-6.79,7.69q-3.44,8.83-6.32,17.87a5.28,5.28,0,0,0-.08,1.12A1.71,1.71,0,0,0,380.31,36q13.76.23,27.5.11Z"/><path class="cls-1" d="M246.06,20.89a197.43,197.43,0,0,0,20.21-.55,5,5,0,0,0,4.16-3.29,13.2,13.2,0,0,0,2.15-7.34,2.1,2.1,0,0,0-1.86-1.85q-12.33-.36-24.66-.2l-39.21,0a.81.81,0,0,0-.76.49q-.56,1.34-1.08,2.67a5.76,5.76,0,0,0-.43,1.27.62.62,0,0,0,.42.64,5.17,5.17,0,0,0,1.47,0q28.92-.06,57.84.08a1.07,1.07,0,0,1,.59.27l.14.24a2,2,0,0,1-.41,1.54,2,2,0,0,1-1.4.75q-19.06.29-38.13.21c-1.59,0-3.18,0-4.77,0a.94.94,0,0,0-.82.53c-.44,1.05-.84,2.12-1.21,3.21a1.22,1.22,0,0,0,0,.8.46.46,0,0,0,.19.24.69.69,0,0,0,.36.13q13.62.12,27.23.08Z"/></g></g></svg>