<?xml version="1.0" encoding="UTF-8"?><svg xmlns="http://www.w3.org/2000/svg" viewBox="0 0 217.93 102.71"><defs><style>.d{fill-rule:evenodd;}</style></defs><g id="a"/><g id="b"><g id="c"><path class="d" d="M10.25,7.29h10.31V101.29c0,.78,.63,1.42,1.42,1.42h7.27c.78,0,1.42-.63,1.42-1.42V7.29h10.32V101.29c0,.78,.63,1.42,1.42,1.42h7.56c.78,0,1.42-.63,1.42-1.42V3.61c0-1.99-1.62-3.61-3.61-3.61H3.61C1.62,0,0,1.62,0,3.61V101.29c0,.78,.63,1.42,1.42,1.42h7.42c.78,0,1.42-.63,1.42-1.42V7.29ZM2.71,100V3.61c0-.5,.4-.9,.9-.9H47.77c.5,0,.9,.4,.9,.9V100h-4.98V6c0-.78-.63-1.42-1.42-1.42h-12.9c-.78,0-1.42,.63-1.42,1.42V100h-4.69V6c0-.78-.63-1.42-1.42-1.42H8.96c-.78,0-1.42,.63-1.42,1.42V100H2.71Z"/><path class="d" d="M113.45,95.41h9.99v-23.93c0-.78,.63-1.42,1.42-1.42h7.56c.78,0,1.42,.63,1.42,1.42v27.61c0,1.99-1.62,3.61-3.61,3.61h-23.42c-1.99,0-3.61-1.62-3.61-3.61V3.61c0-1.99,1.62-3.61,3.61-3.61h23.42c1.99,0,3.61,1.62,3.61,3.61V30.11c0,.78-.63,1.42-1.42,1.42h-7.56c-.78,0-1.42-.63-1.42-1.42V7.29h-9.99V95.41Zm12.7-66.59h4.98V3.61c0-.5-.4-.9-.9-.9h-23.42c-.5,0-.9,.4-.9,.9V99.1c0,.5,.4,.9,.9,.9h23.42c.5,0,.9-.4,.9-.9v-26.32h-4.98v23.93c0,.78-.63,1.42-1.42,1.42h-12.57c-.78,0-1.42-.63-1.42-1.42V6c0-.78,.63-1.42,1.42-1.42h12.57c.78,0,1.42,.63,1.42,1.42V28.82Z"/><path class="d" d="M61.88,56.38v42.72c0,1.99,1.62,3.61,3.61,3.61h23.74c1.99,0,3.61-1.62,3.61-3.61V3.61c0-1.99-1.62-3.61-3.61-3.61h-23.74c-1.99,0-3.61,1.62-3.61,3.61V30.02c0,.78,.63,1.42,1.42,1.42h7.42c.78,0,1.42-.63,1.42-1.42V7.29h10.31v27.82c.01,1.52-.67,2.87-1.9,3.76l-15.64,11.54c-1.92,1.38-3.05,3.61-3.02,5.97Zm20.25-15.32c1.92-1.38,3.05-3.61,3.02-5.97V6c0-.78-.63-1.42-1.42-1.42h-12.89c-.78,0-1.42,.63-1.42,1.42V28.73h-4.84V3.61c0-.5,.4-.9,.9-.9h23.74c.5,0,.9,.4,.9,.9V99.1c0,.5-.4,.9-.9,.9h-23.74c-.5,0-.9-.4-.9-.9V56.36h0c-.02-1.49,.68-2.89,1.89-3.76h0l15.64-11.54Z"/><path class="d" d="M71.21,55.52c-1.05,.77-1.66,2-1.64,3.3v37.89c0,.78,.63,1.42,1.42,1.42h12.89c.78,0,1.42-.63,1.42-1.42V44.9l-14.08,10.62Zm11.37,39.9h-10.31V58.8c0-.45,.19-.84,.55-1.11l9.75-7.36v45.08Z"/><path class="d" d="M154.56,28.73V1.42c0-.78-.63-1.42-1.42-1.42h-7.56c-.78,0-1.42,.63-1.42,1.42V101.29c0,.78,.63,1.42,1.42,1.42h7.42c.78,0,1.42-.63,1.42-1.42V36.81h9.58c.4,0,.73,.33,.73,.73v63.75c0,.78,.63,1.42,1.42,1.42h7.27c.78,0,1.42-.63,1.42-1.42V36.05c0-4.04-3.28-7.32-7.32-7.32h-12.95Zm17.56,71.27h-4.69V37.54c0-1.9-1.54-3.43-3.43-3.43h-12.29V100h-4.84V2.71h4.98V31.44h15.66c2.55,0,4.61,2.06,4.61,4.61v63.95Z"/><path class="d" d="M217.93,1.42c0-.78-.63-1.42-1.42-1.42h-7.56c-.79,0-1.42,.64-1.42,1.43,.02,2.48-.23,4.96-.74,7.39-.25,1.15-.55,2.13-.97,3.23-.59,1.55-1.26,2.5-2.39,3.76v7.45c0,.78,.63,1.42,1.42,1.42h2.69V101.29c0,.78,.63,1.42,1.42,1.42h7.42c.78,0,1.42-.63,1.42-1.42l.14-99.87Zm-2.71,1.29l-.14,97.29h-4.84V21.98h-4.1v-5.14c.71-.85,1.31-1.79,1.77-2.81,1.49-3.2,2.21-7.54,2.32-11.33h4.99Z"/></g></g></svg>