<svg xmlns="http://www.w3.org/2000/svg" viewBox="0 0 460 31.14"><defs><style>.cls-1{fill:#121212;fill-rule:evenodd;}</style></defs><g id="Layer_2" data-name="Layer 2"><g id="Layer_1-2" data-name="Layer 1"><path class="cls-1" d="M285.5,30.94H273.22V5.26A5.26,5.26,0,0,1,278.47,0h44.79a5.26,5.26,0,0,1,5.26,5.26V30.94h-12.2V22.57H285.5v8.37Zm30.82-20.56a3.65,3.65,0,0,0-3.64-3.64H289.14a3.64,3.64,0,0,0-3.64,3.64v4.4h30.82v-4.4Z"/><polygon class="cls-1" points="40.72 31.14 31.43 31.14 11.97 8.21 11.97 31.14 0 31.14 0 0.1 19.43 0.1 36.1 20.98 53.09 0.1 72.22 0.1 72.22 31.14 60.31 31.14 60.31 8.22 40.72 31.14 40.72 31.14"/><polygon class="cls-1" points="244.08 31.14 231.74 31.14 231.74 6.74 210.5 6.74 210.5 0.1 265.7 0.1 265.7 6.74 244.08 6.74 244.08 31.14 244.08 31.14"/><polygon class="cls-1" points="353.34 7.63 353.34 31.04 341 31.04 341 0 360.53 0 383.29 23.61 383.29 0 395.58 0 395.58 31.04 376.29 31.04 353.34 7.63 353.34 7.63"/><path class="cls-1" d="M126.21,20.56V0h12.2V25.68a5.27,5.27,0,0,1-5.26,5.26H88.37a5.26,5.26,0,0,1-5.26-5.26V0H95.39V20.56A3.64,3.64,0,0,0,99,24.19h23.55a3.62,3.62,0,0,0,3.63-3.63Z"/><path class="cls-1" d="M202.66,25.68a5.27,5.27,0,0,1-5.26,5.26H149.29V24.2l39.86,0a2.7,2.7,0,1,0,0-5.4H153.94a5.26,5.26,0,0,1-5.26-5.26V5.26A5.26,5.26,0,0,1,153.94,0h48.11V6.74H160.57a2.7,2.7,0,1,0,0,5.4l36.84,0a5.26,5.26,0,0,1,5.25,5.25v8.33Z"/><path class="cls-1" d="M454.74,30.94H411.59a5.26,5.26,0,0,1-5.26-5.26V5.26A5.26,5.26,0,0,1,411.59,0H460V6.74h-36.6a4.85,4.85,0,0,0-4.85,4.85v7.75a4.85,4.85,0,0,0,4.85,4.85h23.54a2.66,2.66,0,0,0,2.67-2.67c0-2.39-.08-3.22-.08-3.22l-17.76-.07V12.1H460V25.68a5.27,5.27,0,0,1-5.26,5.26Z"/></g></g></svg>