<svg xmlns="http://www.w3.org/2000/svg" viewBox="0 0 460 34.14"><defs><style>.cls-1{fill:#121212;fill-rule:evenodd;}</style></defs><g id="Layer_2" data-name="Layer 2"><g id="Layer_1-2" data-name="Layer 1"><path class="cls-1" d="M322.61,0H278.13a6.83,6.83,0,0,0-6.82,6.83v27.1h15.41V25.62h27.39v8.31h15.32V6.83A6.83,6.83,0,0,0,322.61,0Zm-37.5,32.33H272.92V6.83a5.21,5.21,0,0,1,5.21-5.22h44.48a5.22,5.22,0,0,1,5.22,5.22v25.5H315.72V24H285.11v8.31ZM37.47,19.88,21.67.1H0v34H15.1v-20l17,20h10.7l17.11-20v20h15V.1H53.57L37.47,19.88ZM42,32.53H32.82L13.49,9.76V32.53H1.61V1.71H20.9L37.46,22.44,54.33,1.71h19V32.53H61.5V9.77L42,32.53ZM209,9.91h21.1V34.14h15.47V9.91h21.47V.1H209V9.91Zm35,22.62H231.72V8.3H210.63V1.71h54.82V8.3H244V32.53ZM380.62,21.07,360.3,0H338.61V34h15.47V13.12L374.59,34H396V0H380.62V21.07ZM352.48,9.19V32.43H340.22V1.61h19.4l22.6,23.44V1.61h12.2V32.43H375.26L352.48,9.19ZM125.33,22a2,2,0,0,1-2,2H100a2,2,0,0,1-2-2V0H82.53V27.11a6.83,6.83,0,0,0,6.83,6.82h44.47a6.83,6.83,0,0,0,6.83-6.82V0H125.33V22Zm1.61,0V1.61h12.11v25.5a5.22,5.22,0,0,1-5.22,5.22H89.36a5.22,5.22,0,0,1-5.22-5.22V1.61H96.33V22a3.64,3.64,0,0,0,1.06,2.56A3.59,3.59,0,0,0,100,25.63h23.38a3.59,3.59,0,0,0,2.55-1.05A3.64,3.64,0,0,0,126.94,22Zm70.69-10-36.57.05A1.09,1.09,0,0,1,160,11a1.08,1.08,0,0,1,1.08-1.07h42.79V0H154.47a6.83,6.83,0,0,0-6.83,6.83v8.26a6.83,6.83,0,0,0,6.83,6.83h35a1.08,1.08,0,1,1,0,2.15l-41.18,0v9.9h49.38a6.83,6.83,0,0,0,6.83-6.82V18.84A6.83,6.83,0,0,0,197.63,12Zm5.22,15.1a5.22,5.22,0,0,1-5.22,5.22H149.85v-6.7l39.58.05a2.69,2.69,0,0,0,0-5.37h-35a5.21,5.21,0,0,1-5.22-5.22V6.83a5.22,5.22,0,0,1,5.22-5.22h47.78V8.3H161.06A2.68,2.68,0,0,0,158.38,11a2.68,2.68,0,0,0,2.68,2.69l36.57-.05a5.22,5.22,0,0,1,5.22,5.22v8.27Zm112.87-15.2A3.62,3.62,0,0,0,312.1,8.3H288.73a3.62,3.62,0,0,0-3.62,3.61v4.37h30.61V11.91Zm-27-2H312.1a2,2,0,0,1,2,2v2.77H286.72V11.91a2,2,0,0,1,2-2Zm140,2.1v9.3l17.69.07c0,.47,0,1.08,0,1.59A1.06,1.06,0,0,1,445.4,24H422a3.21,3.21,0,0,1-3.21-3.21v-7.7A3.21,3.21,0,0,1,422,9.91h38V0H410.32a6.83,6.83,0,0,0-6.82,6.83V27.11a6.83,6.83,0,0,0,6.82,6.82h42.85A6.83,6.83,0,0,0,460,27.11V12Zm24.43,20.32H410.32a5.22,5.22,0,0,1-5.22-5.22V6.83a5.22,5.22,0,0,1,5.22-5.22h48.05V8.3H422a4.82,4.82,0,0,0-4.82,4.82v7.7A4.81,4.81,0,0,0,422,25.63H445.4a2.61,2.61,0,0,0,1.88-.78,2.65,2.65,0,0,0,.78-1.88c-.05-2.37-.08-3.19-.08-3.19l-17.64-.07V13.62h28.05V27.11a5.22,5.22,0,0,1-5.22,5.22Z"/></g></g></svg>