<svg xmlns="http://www.w3.org/2000/svg" viewBox="0 0 444.32 130"><defs><style>.cls-1{fill-rule:evenodd;}</style></defs><g id="Layer_2" data-name="Layer 2"><g id="Layer_1-2" data-name="Layer 1"><path class="cls-1" d="M100.46,0C86.78,1.5,78,8.88,64.79,10.24c.19-2.31,2.12-6.53.55-9.51C63.18.86,61.65,2.28,60,3.1a33.23,33.23,0,0,0-5.12,2.76c-2,1.53-3.37,3.87-5.49,5.3A49.43,49.43,0,0,1,43,14.27c-4.33,2.08-7.64,5-11.16,7.87-1.74,1.42-3.88,2.67-5.49,4.21-2.25,2.13-3.76,5-5.86,7.49a78.54,78.54,0,0,1-13.9,13c-2.43,1.8-6.3,4-6.59,7-.24,2.46,1.44,4.08,2.74,6C3.91,61.54,5.3,63.41,6.42,64c3.4,1.87,11.14,2,14.64,0,1.67-.93,3-2.65,4.39-3.84A50.41,50.41,0,0,1,41.55,51c5.87-2,14.22-2.93,20.49-4.76,2.21-.63,4.38-1.9,6.22-2.19,3.56-.55,8.08.26,11.35,1.28C86.4,47.51,91,50.43,96.44,53.79c2.38,1.46,6.12,3,7.68,5.12,1.11,1.5,1.22,3.41,2.38,5.67,1,1.87,2.56,3.15,2.75,4.58.3,2.43-1.1,5.34-1.83,7.86a43.33,43.33,0,0,1-6,13.36c-1,1.59-3.39,4.55-3.11,6.77.23,1.83,2.58,3.15,4.39,4.21s4.13,2.61,5.85,2.92c2.67.49,5.85-.23,8.78-.36,9-.42,18.11-.33,27.26-.55,3,4.25,10.69,3.89,16.47,5.67,3.16,1,5.36,2.93,7.68,4.21a50.74,50.74,0,0,0-5.12,2.93c-1.23.93-2.5,3.12-3.66,3.47a14.3,14.3,0,0,1-5.18.24,12.58,12.58,0,0,0-4.33.13c-2.3.66-4.15,3.24-5.67,4.57-.89.77-2,1.42-2.93,2.2s-2.05,1.53-2.2,2.74c7.52.06,17.07.76,23.61,0,1-1.14.29-2.43.73-3.47a4.27,4.27,0,0,1,3.84-2.2,8.48,8.48,0,0,1,2.9.73,8.24,8.24,0,0,0,3,.73c3.2,0,4.59-2.12,6.76-3.48,3.05,3.6,8.35,3.13,13.54,4.58,2.61.73,4.89,2.39,7.32,3.11,2.61.77,6.24.36,9.51.36,2.28,0,4.75.41,6.77-.54-.44-1.61-2-2.62-3.11-3.66s-2.27-2.18-3.47-3.3-5.37-6-7.32-6.21a8.62,8.62,0,0,0-3.45.64,9.31,9.31,0,0,1-3.69.64c-1.64-.21-2.7-1.59-3.65-2.57,3.27-1.4,6.45-2.91,9.87-4.2,3.25-1.23,7-3.08,10.61-3.48,7.28-.81,15.72,2.14,22.69,2.74,8.06.7,10-6.2,13.73-9.51a35.16,35.16,0,0,1,9.88-5.86c7.3-3.06,15.21-5.26,22.68-8.6a73.79,73.79,0,0,0,19-12.25A57.68,57.68,0,0,0,309.21,66c3.52-4.5,5.84-10.85,13.18-11.34a100.35,100.35,0,0,1,12.05.23c8.65.51,17.4,1,23.26-3,1.69-1.16,3.32-3.44,4.75-5.31,1.27-1.64,2.77-4.27,5.12-4.94,3.26-.92,8.06.64,11.35,1.47a97,97,0,0,0,34.94,2.74c7-.81,14.24-2.5,19.95-5.67,4.76-2.66,11.31-7.3,10.42-15.19-.16-1.47-.88-4.3-2.56-4.57-1.14-.19-3.91,1.54-5.3,2.2a57,57,0,0,1-17.75,4.93c-10.05,1.1-17.24-1-26.9-2.92-8-1.62-16.53-3.61-25.79-4.4-9.67-.81-19.37-.24-25.06,4.58-2.73,2.3-4,5.3-4.77,9.7-1.17,6.45-2.72,9.91-10.42,8.23-2.66-.58-5.55-2.42-8.23-3.84s-5.66-2.84-8.05-4c-11-5.45-22.33-10.82-35.5-13.17-6.85-1.23-14.25-1.44-22.5-1.83-15-.72-30,2.61-44.64,3.66-14.19,1-27.83-.22-39.88-1.83-1.61-.21-3.6-.1-4.94-1.28,2.7-2.12,8.92-1.68,10.06-4.76-1.43-1.82-7.47.2-7.87-2.19-.18-1.07,1.65-2,2.56-2.38,3.56-1.66,8.49-2.72,10.61-4.76-5.51-1.29-12.89-.63-20.19,0-6,.53-11.94,1.07-16.76.53-1.27-.14-3.1-.67-3.3-1.65-.34-1.77,2.07-2.38,2.2-3.83-10.68-1.31-22.3,2.06-32,4C105,5.94,97.68,7.9,97.17,5.3S100.54,2,100.46,0Zm127,69.89c-3,9.09-8,15.46-14.27,21.77-1.78,1.78-4.38,4.85-6.4,5.49a15.36,15.36,0,0,1-5.84.37,15.78,15.78,0,0,0-4.95.17c-2.6.65-6.34,4-8.61,5.49-2.94,1.94-5.75,3.53-8.59,5.31-3.52-2.45-7.68-4.28-9.88-8,3.26-.19,5.41-3.59,8.23-4.76s5.32-.74,7.69-2.19a16.19,16.19,0,0,0,6.4-7.32c-5.4-1.19-12.51-.66-18.85-.92-1.31,4.24-3,6.38-9.14,5.68-.71-3.4-1.3-8.53.36-11.35,18.24.84,34.8-2,49.4-5.85C217.91,72.42,222.2,70.53,227.43,69.89ZM123.15,92.75a5.28,5.28,0,0,1-2.2-2.92c0-1.33,4.07-6.77,4.76-8,4.43,3.93,9.9,6.8,13.18,11.89a47.49,47.49,0,0,1-7,.51C128.5,94.18,125.08,93.8,123.15,92.75Z"/></g></g></svg>