<svg xmlns="http://www.w3.org/2000/svg" viewBox="0 0 149.99 150"><defs><style>.cls-1{fill-rule:evenodd;}</style></defs><g id="Layer_2" data-name="Layer 2"><g id="Layer_1-2" data-name="Layer 1"><path class="cls-1" d="M77.14,146.68A71.74,71.74,0,0,0,140.49,45.53a67.16,67.16,0,0,0-4.18-8A71.93,71.93,0,0,0,81.41,3.47a64.44,64.44,0,0,0-8-.28,71.92,71.92,0,0,0-58.11,32A60.33,60.33,0,0,0,10.79,43a72,72,0,0,0-1,61.8,67.84,67.84,0,0,0,4.06,7.68,71.66,71.66,0,0,0,63.3,34.23Zm-1,3.31a75,75,0,0,0,64-37.69l.39-.71a75.17,75.17,0,0,0,2.08-69.19l-.35-.72A75,75,0,0,0,80,.17L79.27.12a75,75,0,0,0-65.79,32l-.48.71a74.68,74.68,0,0,0-8.08,68.76l.45,1.14a74.77,74.77,0,0,0,58.24,46.36l1.14.17a73.52,73.52,0,0,0,11.39.7Z"/><path class="cls-1" d="M55.64,135l-.54.35,0,0a.09.09,0,0,0,0,.1.22.22,0,0,0,.1.09,1,1,0,0,0,.35,0c.42,0,.84,0,1.26,0a1.73,1.73,0,0,0,.82-.64.22.22,0,0,0,0-.22.92.92,0,0,0-.52-.3.69.69,0,0,0-.72.09c-.24.16-.48.32-.71.49Zm-4.71-2.61-.21.18a.32.32,0,0,1-.25.06A2,2,0,0,1,49,131.52,10.85,10.85,0,0,0,47.6,130a.27.27,0,0,0-.14-.07H47.4a.52.52,0,0,0-.1.11,3,3,0,0,1-2.19,1,1.59,1.59,0,0,1-.63-.26.34.34,0,0,1-.13-.25,8.52,8.52,0,0,0-.1-2.52,1.12,1.12,0,0,0-.72-.52,4.83,4.83,0,0,0-1.56.13,1.71,1.71,0,0,1-1.52-.47,1.33,1.33,0,0,1-.14-.71v-.48a.28.28,0,0,0,0-.13l0,0,0,0-.89,1.58a.44.44,0,0,1-.23.15,4.42,4.42,0,0,1-2,.44.76.76,0,0,1-.5-.29.7.7,0,0,1-.13-.56,3.56,3.56,0,0,1,.78-2.12,3.85,3.85,0,0,1,.81-.52.5.5,0,0,0,.14-.1.15.15,0,0,0,0-.09.15.15,0,0,0-.06-.09l-.62-.38a1.8,1.8,0,0,1-.43-.66L37,123a.26.26,0,0,0-.11-.07,0,0,0,0,0,0,0,.1.1,0,0,0-.06,0c-.11.2-.22.4-.34.6a2.5,2.5,0,0,1-.34.39.68.68,0,0,1-.41.14,2.47,2.47,0,0,0-1.39.25.62.62,0,0,0-.14.14.24.24,0,0,0,0,.29.55.55,0,0,0,.24.15,1.55,1.55,0,0,1,1.25.93,2,2,0,0,1-1.3,2.55l-.52.22a.17.17,0,0,0-.11.09.19.19,0,0,0,0,.13,5,5,0,0,0,1.67,1.47.41.41,0,0,0,.16,0,.11.11,0,0,0,.1-.06,3.28,3.28,0,0,0,.2-.31,2.58,2.58,0,0,1,2.45-1.06.33.33,0,0,1,.23.15,4.88,4.88,0,0,1,.33,3,1.48,1.48,0,0,0,0,.21.3.3,0,0,0,.14.23,3.75,3.75,0,0,0,2.76.74,6.82,6.82,0,0,1,1.1-.28.24.24,0,0,1,.24.08,3.46,3.46,0,0,1,.22.31,2.13,2.13,0,0,0,1.2.88.2.2,0,0,0,.15,0,.11.11,0,0,0,.06-.1,2.17,2.17,0,0,0,0-.36,1.3,1.3,0,0,1,.89-1.41,19.35,19.35,0,0,1,1.78-.85.25.25,0,0,1,.25.05,2.16,2.16,0,0,1,1,1.66,1.1,1.1,0,0,1-.6.82c-.22.14-.43.3-.64.46a.19.19,0,0,0-.07.14.14.14,0,0,0,.07.12,1.66,1.66,0,0,0,1.79-.13,1.93,1.93,0,0,1,2.43.19,2.43,2.43,0,0,0,1.19.44.23.23,0,0,0,.14,0,.08.08,0,0,0,0-.05.13.13,0,0,0,0-.06,2.52,2.52,0,0,0-.51-.47l-1-.91a.45.45,0,0,1-.07-.54,3.9,3.9,0,0,1,.45-.76.37.37,0,0,0,.07-.14.27.27,0,0,0-.28-.28.57.57,0,0,0-.4.09l-.29.22ZM80,134.58a12,12,0,0,0,6-1.88l.19-.13a.06.06,0,0,0,0,0,.05.05,0,0,0,0,0,.21.21,0,0,0-.11,0c-3.68-.06-7.35,0-11,.19a3.36,3.36,0,0,0-1,.57,4.88,4.88,0,0,0-.59.52.3.3,0,0,0,.07.48,5.28,5.28,0,0,0,2.08.36Zm-19.65-4.05a1.59,1.59,0,0,0-1,1,.71.71,0,0,1-.12.18.44.44,0,0,1-.34.12,2.5,2.5,0,0,1-2.07-1.14.5.5,0,0,0-.33-.2,24.07,24.07,0,0,0-2.55,0,.52.52,0,0,0-.47.44.45.45,0,0,0,.21.33.81.81,0,0,0,.83.19l.28-.05.14,0a.5.5,0,0,1,.29.07,20.27,20.27,0,0,1,2,1.33,15.9,15.9,0,0,0,3.18.93.15.15,0,0,0,.11,0,.11.11,0,0,0,0-.11c0-.11-.06-.23-.1-.34a2.63,2.63,0,0,1,.71-2.28,1.9,1.9,0,0,0,.3-.44.14.14,0,0,0,0-.09.07.07,0,0,0,0,0l-.36,0a5.65,5.65,0,0,0-.7.11Zm-13.11,2.38a.25.25,0,0,0-.09-.19.26.26,0,0,0-.21-.07,1.51,1.51,0,0,0-.66.32.14.14,0,0,0,0,.17.47.47,0,0,0,.37.14.69.69,0,0,0,.55-.19.24.24,0,0,0,.07-.18Zm57.11-1.9a17,17,0,0,1,1.86,1.05,2.36,2.36,0,0,0,2.26-.59A3.42,3.42,0,0,0,109,131a.56.56,0,0,0,.07-.47,17.6,17.6,0,0,1-.38-5q.06-.31.15-.63a.14.14,0,0,1,.1-.1.84.84,0,0,1,.35,0c.44,0,.88,0,1.32,0a.21.21,0,0,0,.11,0,.19.19,0,0,0,0-.12,1.36,1.36,0,0,0-.36-.83.71.71,0,0,0-.4-.17,5.38,5.38,0,0,1-2.43-.77,1.87,1.87,0,0,1-1-2,.82.82,0,0,1,.36-.62,6.27,6.27,0,0,1,.75-.17.22.22,0,0,0,.14-.09.1.1,0,0,0,0-.12.33.33,0,0,0-.15-.11c-.73-.12-1.46-.22-2.2-.31a.32.32,0,0,0-.17,0,.19.19,0,0,0-.07.12.8.8,0,0,0,.06.3l.6,2.31a.17.17,0,0,1,0,.12.15.15,0,0,1-.11,0,4.63,4.63,0,0,1-.9-.18,5.22,5.22,0,0,0-5,1.32,5.81,5.81,0,0,1-.78.51.37.37,0,0,1-.4-.06,12.14,12.14,0,0,0-1.1-.78,3.48,3.48,0,0,0-1-.09l-.16,0a.09.09,0,0,0-.06.07.44.44,0,0,0,.06.16L97.63,125a1.7,1.7,0,0,1-.5,1.57,7.21,7.21,0,0,1-1.7,1.56.31.31,0,0,1-.25,0,2.69,2.69,0,0,1-1.74-1.57,2.51,2.51,0,0,0-.3-.47.16.16,0,0,0-.08-.06H93a.26.26,0,0,0-.13.08,1,1,0,0,0-.23,1.3c.21.52.4,1,.56,1.57a.57.57,0,0,1,0,.29,3.34,3.34,0,0,1-1.8,2.06c-.39.24-.79.46-1.2.67l-.11.08s0,0,0,0,0,0,0,0a1.35,1.35,0,0,0,.57.26,2.59,2.59,0,0,0,2-.55c.47-.27.94-.53,1.42-.77a.8.8,0,0,1,.91.44c.2.41.41.82.6,1.23a.78.78,0,0,0,1,.23.19.19,0,0,0,.09-.14,1.49,1.49,0,0,0,0-.36c-.21-1-.42-2.05-.62-3.07v-.19a.52.52,0,0,1,.06-.16,10,10,0,0,1,2.88-2l.25-.13a.32.32,0,0,1,.27,0,4.62,4.62,0,0,1,1.73,2.12l.35.64a.39.39,0,0,1-.07.39c-.64,1-1.28,1.91-1.9,2.87a.25.25,0,0,0,0,.17.13.13,0,0,0,.08.11.8.8,0,0,0,.34.05,1.15,1.15,0,0,0,1.13-.52,12.84,12.84,0,0,1,1.57-1.73,1.79,1.79,0,0,1,1.71-.07Zm-20.5.43a36.37,36.37,0,0,0,4.13-.71,5.05,5.05,0,0,0,2.39-2.2,8.43,8.43,0,0,0,1.07-1.84,2,2,0,0,0,.09-.35.1.1,0,0,0,0-.09.12.12,0,0,0-.1,0,1.58,1.58,0,0,0-.57.08,41.66,41.66,0,0,1-7.54,1,16.94,16.94,0,0,0-2.57.07.69.69,0,0,0-.43.22,38.65,38.65,0,0,0-3.73,4,.19.19,0,0,0,0,.18.21.21,0,0,0,.12.05,23.1,23.1,0,0,0,5.19-.1l2-.21ZM37.3,130.37a.41.41,0,0,0-.52.37l0,.24a.72.72,0,0,0,.24.39.2.2,0,0,0,.19.06.21.21,0,0,0,.15-.11,1.35,1.35,0,0,0,.13-.69.41.41,0,0,0-.22-.26Zm31.41-.46a1.29,1.29,0,0,0-.47-.37.17.17,0,0,0-.23.08.79.79,0,0,0,.07.8.92.92,0,0,0,.31.37.17.17,0,0,0,.14,0,.15.15,0,0,0,.12-.07.8.8,0,0,0,.06-.84ZM99.1,130a.43.43,0,0,0-.1-.51.23.23,0,0,0-.25,0,1,1,0,0,0-.73.92.33.33,0,0,0,.14.22l.07.05a.32.32,0,0,0,.3,0,1,1,0,0,0,.57-.64Zm-39.67-2.15c-.32-.62-.67-1.23-1-1.83a.45.45,0,0,0-.3-.2.44.44,0,0,0-.35.07,7,7,0,0,0-1.86,2.68,3.45,3.45,0,0,0-.2.48.22.22,0,0,0,0,.08.16.16,0,0,0,0,.07.53.53,0,0,0,.33.13,8.28,8.28,0,0,0,3.63-.43.23.23,0,0,0,.15-.27,2.31,2.31,0,0,0-.18-.35l-.24-.43Zm-2.6-3.42a1.53,1.53,0,0,0,.32-1A5.2,5.2,0,0,0,56,120.83a.19.19,0,0,0-.19,0,2.12,2.12,0,0,0-.57.27,17.09,17.09,0,0,0-2.53,1.68,2.79,2.79,0,0,0-1,1.82,11.41,11.41,0,0,0,1.54,4.23.86.86,0,0,0,.67.27.32.32,0,0,0,.22-.12q1.35-2.25,2.69-4.53Zm-6.54.84a2.33,2.33,0,0,0-.62.46,13.54,13.54,0,0,0-1.88,1.75.32.32,0,0,0-.06.23.38.38,0,0,0,.16.19,11,11,0,0,0,3.46.88h.21a.16.16,0,0,0,.14-.09.5.5,0,0,0,0-.27c-.28-.95-.58-1.89-.91-2.82a.62.62,0,0,0-.35-.34.16.16,0,0,0-.07,0l-.09,0Zm15.22.3a8.83,8.83,0,0,0-1.77-2.7c-.34-.42-.68-.84-1-1.25a.16.16,0,0,0-.18,0,6.93,6.93,0,0,0-2.89,2.36l-.11.22a2.62,2.62,0,0,0,0,.28,6.9,6.9,0,0,0,1.54,3.41c.18.27.38.54.59.8a.4.4,0,0,0,.27.12A3.55,3.55,0,0,0,65,127.4a2.86,2.86,0,0,0,.51-1.86Zm44.94,2.78a.67.67,0,0,0,.14-.15.27.27,0,0,0,0-.15c0-.26,0-.51,0-.77a1.14,1.14,0,0,0-.38-.76.18.18,0,0,0-.21,0,1.07,1.07,0,0,0-.36,1.06,1.2,1.2,0,0,0,.08.42,1.93,1.93,0,0,0,.35.46.19.19,0,0,0,.27,0l.08-.09Zm-60.9-6.2a11.58,11.58,0,0,0-.53-3,.86.86,0,0,0-.54-.43.9.9,0,0,0-.68.1,5.62,5.62,0,0,0-2.49,1.9,3.8,3.8,0,0,0,0,3.56,15.94,15.94,0,0,0,1.07,2.15.33.33,0,0,0,.36.07,7.11,7.11,0,0,0,2-1.94l.8-1a.6.6,0,0,0,.09-.43,8.54,8.54,0,0,0-.05-1Zm-7.45,1.14c-.29.31-.58.63-.86,1a.27.27,0,0,0-.05.19.56.56,0,0,0,.24.32,18.67,18.67,0,0,0,2.1,1.45.67.67,0,0,0,.34,0,.22.22,0,0,0,.16-.16,3,3,0,0,0,0-1,7,7,0,0,0-.49-2.11,1,1,0,0,0-.23-.31.34.34,0,0,0-.12-.06l-.13,0a.55.55,0,0,0-.34.13,5.78,5.78,0,0,0-.59.52Zm44.43,2.66A12.92,12.92,0,0,0,92,124.34a2,2,0,0,0,1.13-1.5c.32-.88.64-1.75,1-2.64l0-.15A.11.11,0,0,0,94,120a1,1,0,0,0-.35-.06c-1.28.06-2.56.16-3.83.3a54.43,54.43,0,0,0-6,.23,1.92,1.92,0,0,0-1.65,1.42A11.69,11.69,0,0,0,81.06,125a1.91,1.91,0,0,0,.17.92.26.26,0,0,0,.22.14,41,41,0,0,0,5.08-.11Zm-16.37-4.67a.47.47,0,0,1,.48.45c0,.21.07.41.1.62l0,.08a.08.08,0,0,0,.09,0,.15.15,0,0,0,.12-.07,15.84,15.84,0,0,0,.89-2.59v-.16a.15.15,0,0,0-.09-.1,1.09,1.09,0,0,0-.36,0c-.73,0-1.45,0-2.18,0a.28.28,0,0,0-.2.13,1.2,1.2,0,0,0-.13.36q-.56,1.91-1,3.84a1.57,1.57,0,0,0,.87,1.7.14.14,0,0,0,.15,0,1.16,1.16,0,0,0,.26-.28q.5-.67,1-1.35a.11.11,0,0,0,0-.14l-.28-.1a1.23,1.23,0,0,1-.46-2,.92.92,0,0,1,.76-.46Zm25.32,3.61a1.66,1.66,0,0,0-.53-.72.33.33,0,0,0-.29,0,.31.31,0,0,0-.16.24,1.13,1.13,0,0,0,.3.83.84.84,0,0,0,.28.25.34.34,0,0,0,.29,0,.33.33,0,0,0,.15-.24.92.92,0,0,0,0-.29ZM43,119.14c0-.61,0-1.21,0-1.81a.29.29,0,0,0-.23-.26,3.1,3.1,0,0,0-2,.53,2.65,2.65,0,0,0-1.61,1.82,8,8,0,0,0,.7,3.62.22.22,0,0,0,.13.12h.07a.56.56,0,0,0,.17-.09c.88-.75,1.75-1.5,2.6-2.27a.38.38,0,0,0,.14-.27c0-.47,0-.94,0-1.4Zm24.23.08-.49-.15a.22.22,0,0,0-.16,0,.22.22,0,0,0-.11.12,1.49,1.49,0,0,1-1.05,1,2.85,2.85,0,0,1-.71-.12.53.53,0,0,0-.28,0,2,2,0,0,0-.57.39.54.54,0,0,0,0,.62A7.32,7.32,0,0,0,65.47,123a.86.86,0,0,0,1.33-.5,26.33,26.33,0,0,0,.72-3,.26.26,0,0,0-.15-.25l-.1,0Zm-7.09.2a.22.22,0,0,0-.15.25,1.8,1.8,0,0,1,0,.61,1.15,1.15,0,0,1-.79.68.33.33,0,0,1-.25-.08,1.49,1.49,0,0,1-.49-1.15.49.49,0,0,0,0-.21.18.18,0,0,0-.17-.12,1.32,1.32,0,0,0-1.09.75.42.42,0,0,0,0,.27,6.43,6.43,0,0,0,1.07,2,.21.21,0,0,0,.29,0c.95-.74,1.9-1.48,2.85-2.24a.25.25,0,0,0,.08-.28.59.59,0,0,0-.47-.44l-.56-.09a.81.81,0,0,0-.31,0Zm48.94,2.18a.52.52,0,0,0-.55.06.17.17,0,0,0,0,.21,1.75,1.75,0,0,0,1.1.52.19.19,0,0,0,.15-.08.18.18,0,0,0,0-.16,1.3,1.3,0,0,0-.46-.38,2.2,2.2,0,0,0-.25-.17Zm-71.21.32a.11.11,0,0,0,.13-.09,1.32,1.32,0,0,0,0-.56,3.18,3.18,0,0,0-.27-1.09.23.23,0,0,0-.28-.12,1.05,1.05,0,0,0-.78.85.38.38,0,0,0,.12.27,3,3,0,0,0,.82.63.7.7,0,0,0,.23.11Zm57.91-2.45a3,3,0,0,1,.48.53.56.56,0,0,1,0,.56,5.07,5.07,0,0,1-.78,1,.2.2,0,0,0,0,.22.31.31,0,0,0,.32.15A1.56,1.56,0,0,0,97,121a2.08,2.08,0,0,0-.56-1.56A1.46,1.46,0,0,0,96,119a.23.23,0,0,0-.27,0,.24.24,0,0,0-.09.26l.17.17Zm6.46,1.19c-.43-.53-.9-1-1.38-1.54a.61.61,0,0,0-.69-.09,4.91,4.91,0,0,0-1.31,1.26,1.26,1.26,0,0,0,.53,1.55.11.11,0,0,0,.11,0,.33.33,0,0,0,.17-.32c0-.18,0-.36,0-.53a1,1,0,0,1,1.5-.89,2.11,2.11,0,0,1,.61.58,1.22,1.22,0,0,0,.32.32.24.24,0,0,0,.2,0,.11.11,0,0,0,.07-.08.21.21,0,0,0,0-.2l-.07-.11ZM53.8,118.82a.82.82,0,0,0-.44,0,.32.32,0,0,0-.19.15,1.61,1.61,0,0,1-1.34.84.49.49,0,0,1-.35-.22.51.51,0,0,1-.09-.41,7,7,0,0,1,.12-.78.3.3,0,0,0-.1-.23,2.18,2.18,0,0,0-.75-.4.47.47,0,0,0-.4.07.46.46,0,0,0-.2.35,5,5,0,0,0,.47,2.42c.1.36.21.72.34,1.08a.2.2,0,0,0,.16.12,1.57,1.57,0,0,0,.9-.35,22.75,22.75,0,0,0,2.51-2,.35.35,0,0,0,.12-.23.15.15,0,0,0,0-.11.5.5,0,0,0-.17-.11l-.55-.17Zm48.74-2.64a.64.64,0,0,0-.13-.15.15.15,0,0,0-.17,0,.66.66,0,0,0-.33.31,2.61,2.61,0,0,0-.49,1.42.75.75,0,0,0,.09.3,12.36,12.36,0,0,0,1.6,1.86.55.55,0,0,0,.15.08.11.11,0,0,0,.12,0,1.5,1.5,0,0,0,.19-.32.91.91,0,0,0,.11-.22.21.21,0,0,0-.07-.21,1.11,1.11,0,0,0-.3-.17,2.44,2.44,0,0,1-1.24-1.4.61.61,0,0,1,.41-.69.66.66,0,0,1,.24-.11l.07,0a.1.1,0,0,0,0-.1.31.31,0,0,0-.06-.13l-.23-.33Zm-64.15-1.46a1.35,1.35,0,0,0-.18-.62s0,0-.07-.06h-.08a2.31,2.31,0,0,0-.65.32,4.13,4.13,0,0,0-2,2.93,2.55,2.55,0,0,0,.15,2.19.29.29,0,0,0,.12.1.17.17,0,0,0,.14,0,5.25,5.25,0,0,0,2.14-2.14,10.83,10.83,0,0,0,.46-2.71Zm60.68,3.48a1,1,0,0,1-.72.53.94.94,0,0,1-.86-.32,1.3,1.3,0,0,1-.58-1.27,1.2,1.2,0,0,1,.73-.68,1.06,1.06,0,0,0,.26-.17.17.17,0,0,0,0-.18.41.41,0,0,0-.19-.13,1,1,0,0,0-.82.07,1,1,0,0,0-.47.67,1.58,1.58,0,0,0,.33,1.92,4.33,4.33,0,0,0,.84.87.63.63,0,0,0,.72,0A2.79,2.79,0,0,0,99.62,118a.89.89,0,0,0-.41-.83l-.13-.06a.05.05,0,0,0,0,0,.2.2,0,0,0,0,.09l.06.21a1.77,1.77,0,0,1,0,.76Zm-9.69,1a21.18,21.18,0,0,0,3.7-.7,2.66,2.66,0,0,0,2-2.67,6.11,6.11,0,0,0,0-1.76.17.17,0,0,0-.13-.15,4,4,0,0,0-2,.14,45.92,45.92,0,0,1-6.69,1c-.57,0-1.14,0-1.71,0q-.32,0-.63,0a.77.77,0,0,0-.43.28,2.89,2.89,0,0,0-.79,2,2.22,2.22,0,0,0,.47,1.82,1.74,1.74,0,0,0,1.25.31,35.93,35.93,0,0,0,4.4-.12l.57-.07Zm-41.43-3a4.6,4.6,0,0,0-1.44-.9.53.53,0,0,0-.28,0,8.61,8.61,0,0,0-1.79.48.25.25,0,0,0-.16.16,1.4,1.4,0,0,0,0,.35,10.79,10.79,0,0,0,.18,2.41,1.32,1.32,0,0,0,.3.51.25.25,0,0,0,.31,0c1.14-.73,2.29-1.45,3.45-2.15a.13.13,0,0,0,0-.16.74.74,0,0,0-.22-.32,4.54,4.54,0,0,0-.38-.38Zm23.9.19c-.67.47-1.32,1-1.94,1.48l-.19.18a.07.07,0,0,0,0,.06.15.15,0,0,0,0,.07.28.28,0,0,0,.2.12,4,4,0,0,0,2.06-.25.57.57,0,0,0,.26-.38,7.24,7.24,0,0,0,.21-1.22.31.31,0,0,0-.16-.28.17.17,0,0,0-.14,0,2.23,2.23,0,0,0-.3.2Zm-14.08-2.25c-.13-.28-.27-.55-.42-.82a.38.38,0,0,0-.33-.2,5.32,5.32,0,0,0-2.79.63,1,1,0,0,0-.39,1,8,8,0,0,0,.52,2.42.5.5,0,0,0,.29.28,5.19,5.19,0,0,0,2.55.41,3,3,0,0,0,1.56-1,.75.75,0,0,0,0-.59,11.74,11.74,0,0,0-1-2.13Zm4.7,2.49a6.11,6.11,0,0,0-1.84.92.31.31,0,0,0-.09.21.09.09,0,0,0,0,.07.07.07,0,0,0,.07,0,.34.34,0,0,0,.17,0,4.15,4.15,0,0,1,1.66-.63.81.81,0,0,1,.68.32.8.8,0,0,0,.17.15.12.12,0,0,0,.1,0,.15.15,0,0,0,.09-.06l0-.07a1,1,0,0,0,0-.3.94.94,0,0,0-.49-.71.5.5,0,0,0-.27,0l-.29.1Zm2.1,0a6.5,6.5,0,0,0,.36.86.61.61,0,0,0,.17.15.16.16,0,0,0,.13,0,.29.29,0,0,0,.16-.13.25.25,0,0,0,0-.19,3.54,3.54,0,0,1-.19-1,.46.46,0,0,1,.27-.32l.51-.24a.53.53,0,0,0,.14-.12.09.09,0,0,0,0-.07.07.07,0,0,0,0,0,4.77,4.77,0,0,0-1,.27.52.52,0,0,0-.21.18l-.07.12a2.21,2.21,0,0,0-.18.34.28.28,0,0,0,0,.18Zm3.45-.18a1.41,1.41,0,0,0-.36-.24.19.19,0,0,0-.13,0,.09.09,0,0,0-.06.06.71.71,0,0,0,0,.25.88.88,0,0,0,.35.63.11.11,0,0,0,.11,0,1.64,1.64,0,0,0,.22-.14.26.26,0,0,0,.09-.16.28.28,0,0,0-.06-.18,1.92,1.92,0,0,0-.18-.22Zm-18-.62a.37.37,0,0,0,.19.18,3.47,3.47,0,0,0,1.06.18.76.76,0,0,1,.43.23,1.63,1.63,0,0,0,.7.45.5.5,0,0,0,.21,0,.22.22,0,0,0,.11-.12,1.09,1.09,0,0,0,0-.62A6.6,6.6,0,0,0,52.3,115a.68.68,0,0,0-.41-.33.66.66,0,0,0-.53.07,4.79,4.79,0,0,0-1.33.81.41.41,0,0,0-.08.24l0,.08Zm-6.75-3a1,1,0,0,0-.54-.76.41.41,0,0,0-.29,0c-.69.25-1.37.53-2,.82a1.62,1.62,0,0,0-.48.79,8.85,8.85,0,0,0-.31,2.66.2.2,0,0,0,.06.15.12.12,0,0,0,.1,0,1,1,0,0,0,.29,0,4.52,4.52,0,0,0,2.88-1.67,3.2,3.2,0,0,0,.33-2Zm54.91.6a1,1,0,0,0-.13.6l0,.11s0,0,0,0a.05.05,0,0,0,0,0l.09-.11a1.26,1.26,0,0,1,1.8.25,4.48,4.48,0,0,1,.32.56.55.55,0,0,1-.06.53.54.54,0,0,1-.48.23,2.23,2.23,0,0,1-1.68-.94.18.18,0,0,0-.1-.07.07.07,0,0,0-.07,0,.15.15,0,0,0,0,.13,2.41,2.41,0,0,0,1,1,8.07,8.07,0,0,0,.85.59.49.49,0,0,0,.64-.22,2.94,2.94,0,0,0,.21-1.68,1.84,1.84,0,0,0-.85-.85,2.48,2.48,0,0,0-1-.44.79.79,0,0,0-.63.32ZM61.05,112.4a5,5,0,0,0-1.85.08.47.47,0,0,0-.33.53,9.77,9.77,0,0,0,1.07,2.81.46.46,0,0,0,.56.18,13.32,13.32,0,0,0,1.91-.9.26.26,0,0,0,.1-.11.25.25,0,0,0,0-.17q-.28-.91-.66-1.8a1.13,1.13,0,0,0-.8-.62Zm-15.8,2.23a1.43,1.43,0,0,0,.34-.14.22.22,0,0,0,.08-.28,5.27,5.27,0,0,0-.66-.91,1.18,1.18,0,0,0-.27-.23.17.17,0,0,0-.14,0,.15.15,0,0,0-.11.08,1.39,1.39,0,0,0,.13,1.49.36.36,0,0,0,.36.09,1.34,1.34,0,0,0,.27-.07Zm19.37-.54a3.84,3.84,0,0,0-.76-.5.41.41,0,0,0-.16,0,.14.14,0,0,0-.1.15.85.85,0,0,0,.08.35,1,1,0,0,0,.17.36.67.67,0,0,0,.33.21.79.79,0,0,0,.5,0,.25.25,0,0,0,.13-.14.22.22,0,0,0,0-.18,1,1,0,0,0-.17-.18Zm-18.33-.93a9.21,9.21,0,0,0,1.28,1.22.27.27,0,0,0,.17.06.15.15,0,0,0,.15-.14.37.37,0,0,0,0-.18,7.56,7.56,0,0,0-.81-2.05.4.4,0,0,0-.45-.17.93.93,0,0,0-.57.42.51.51,0,0,0-.09.27.36.36,0,0,0,.07.22,2.11,2.11,0,0,0,.26.35Zm4.21-2.78a.26.26,0,0,0-.17,0,2.88,2.88,0,0,0-1.85.63.28.28,0,0,0-.12.2,1.32,1.32,0,0,0,.07.3c.19.86.4,1.7.63,2.54a1.3,1.3,0,0,0,.32.41.2.2,0,0,0,.22,0,4,4,0,0,0,.63-.37c.45-.28.89-.57,1.33-.86a.35.35,0,0,0,.13-.4,16.15,16.15,0,0,0-1-2.32.25.25,0,0,0-.14-.13Zm38.6,3.22c1.76-.26,3.51-.53,5.26-.83a.48.48,0,0,0,.34-.18,3,3,0,0,0,.06-3.41c-.06-.12-.13-.24-.2-.36a.42.42,0,0,0-.36-.19,37.77,37.77,0,0,0-8,.48l-3.52.45a.35.35,0,0,0-.23.12.64.64,0,0,0,0,.24,6.77,6.77,0,0,0,.47,3.48,2,2,0,0,0,1.9.7c1.44-.1,2.86-.27,4.28-.5Zm8-.44a1,1,0,0,0,0-.7.13.13,0,0,0-.13-.08h-.06l0,0a.46.46,0,0,0-.09.23,1.53,1.53,0,0,0,0,.37v.13c0,.17-.08.33-.11.49a.38.38,0,0,0,0,.15l0,.06s0,0,.06.05a.08.08,0,0,0,.07,0,.42.42,0,0,0,.16-.32,2.59,2.59,0,0,1,.09-.4Zm2.12-.91a16.36,16.36,0,0,0,1.77,1.11.19.19,0,0,0,.2-.06.18.18,0,0,0,0-.2.53.53,0,0,0-.31-.26,2.86,2.86,0,0,1-2.07-1.51.52.52,0,0,0-.13-.17.16.16,0,0,0-.12,0,.15.15,0,0,0-.1.09.31.31,0,0,0,0,.25,3.37,3.37,0,0,0,.69.77Zm-61.32,0a.9.9,0,0,0-.15.19l0,.06a.09.09,0,0,0,0,.1.24.24,0,0,0,.14,0,1.66,1.66,0,0,0,.94-.47,5.07,5.07,0,0,0,.91-1.25.19.19,0,0,0,0-.15.11.11,0,0,0-.12,0,.81.81,0,0,0-.33.14,9,9,0,0,0-1.38,1.38ZM55.56,110a2,2,0,0,0-2.35-.68,3.59,3.59,0,0,0-1.05.34.28.28,0,0,0-.15.36,6.35,6.35,0,0,0,1,2.23.49.49,0,0,0,.44.18c1-.25,1.91-.52,2.86-.82a.16.16,0,0,0,.09-.07.39.39,0,0,0,0-.28,7,7,0,0,0-.83-1.26Zm-14,.23a1.66,1.66,0,0,1-.32-.22l-.06,0a.11.11,0,0,0-.11,0,1.17,1.17,0,0,0-.35.57,2.65,2.65,0,0,0-.15.57.53.53,0,0,0,.16.39.51.51,0,0,0,.41.13,4.43,4.43,0,0,0,2-.52.31.31,0,0,0,.16-.22,1,1,0,0,0-.06-.35,1.44,1.44,0,0,0-.17-.45.31.31,0,0,0-.35-.07,5,5,0,0,1-.68.26.65.65,0,0,1-.43-.07ZM44.42,109a.24.24,0,0,0,.15.09,1.32,1.32,0,0,1,.87.64.8.8,0,0,1-.09,1l-.21.35a.2.2,0,0,0,0,.22.34.34,0,0,0,.25.18.37.37,0,0,0,.3-.07,1.41,1.41,0,0,0,.31-1.8,4.25,4.25,0,0,0-.52-.93.8.8,0,0,0-1.06.1.26.26,0,0,0-.06.13.12.12,0,0,0,.05.12ZM59,111.21a.42.42,0,0,0,.22-.13.09.09,0,0,0,0-.07.17.17,0,0,0,0-.07.38.38,0,0,0-.23-.16,2.36,2.36,0,0,1-1-.41.81.81,0,0,0-.33-.14.13.13,0,0,0-.14.1v.07l.1.17.19.3a.56.56,0,0,0,.47.31,1.88,1.88,0,0,0,.67,0Zm38.08-1a.27.27,0,0,0-.21-.07.31.31,0,0,0-.23.15.32.32,0,0,0,0,.27,2.6,2.6,0,0,0,.1.4l0,.06a.3.3,0,0,0,.43,0,.48.48,0,0,0,.15-.41.48.48,0,0,0-.24-.37Zm-49.79-1.74a.45.45,0,0,0,0,.28,2.48,2.48,0,0,0,.41.77.37.37,0,0,0,.42.11,4.74,4.74,0,0,0,1.3-.53.5.5,0,0,0,.15-.45.48.48,0,0,0-.28-.38.24.24,0,0,0-.24,0,3.47,3.47,0,0,1-.29.25.82.82,0,0,1-.65.23.84.84,0,0,1-.6-.34.16.16,0,0,0-.13-.06h0a.43.43,0,0,0,0,.07Zm40.5-.55a45.17,45.17,0,0,0,5.67-.66.3.3,0,0,0,.18-.17,3.74,3.74,0,0,0,.12-2.77,3,3,0,0,0-2.12-2.41,15.77,15.77,0,0,0-5.13,0,38.51,38.51,0,0,0-5.12.74,1.32,1.32,0,0,0-.65.41.68.68,0,0,0-.1.44,8,8,0,0,0,1.4,4,3.15,3.15,0,0,0,.36.37.54.54,0,0,0,.27.11h.14q2.49.1,5,0ZM87,100.82a14.4,14.4,0,0,0,4.09-.28.4.4,0,0,0,.24-.16,1.92,1.92,0,0,0,.23-2,11.6,11.6,0,0,0-1.75-3.52,3.81,3.81,0,0,0-2.67-.59q-3.06-.06-6.12,0a6.14,6.14,0,0,0-3,.86.35.35,0,0,0-.1.11.15.15,0,0,0,0,.13q1,2.52,2,5l.12.26a.5.5,0,0,0,.21.17,7.68,7.68,0,0,0,3.69.16c1-.07,2.08-.11,3.13-.1Zm-4-7.39c1.43,0,2.85,0,4.27-.1a1.91,1.91,0,0,0,1.46-1,2,2,0,0,0-.08-1,14,14,0,0,0-2-4.3,3.81,3.81,0,0,0-2.84-1c-2.19,0-4.37,0-6.56,0a7.8,7.8,0,0,0-2.89.69.3.3,0,0,0-.13.21,3.83,3.83,0,0,0,.31,1.25,41.19,41.19,0,0,0,2.09,4.4,2,2,0,0,0,1.91.78ZM70.38,91.8a.25.25,0,0,0-.17,0,.19.19,0,0,0-.06.23,1.13,1.13,0,0,0,.45.47.24.24,0,0,0,.26-.08.23.23,0,0,0,0-.26.53.53,0,0,0-.49-.4Zm-10.9,44.85a46.48,46.48,0,0,0,8.4-.86,9.52,9.52,0,0,1,2-.19,15.59,15.59,0,0,0,5.27.43,27.91,27.91,0,0,0,6.12-.44A21.87,21.87,0,0,0,87.67,133a.55.55,0,0,1,.28,0l.14,0a70.39,70.39,0,0,0,8.41,1.33q3.34.12,6.69-.09A19.17,19.17,0,0,0,107.6,133a7.2,7.2,0,0,0,3.46-2.14,6.55,6.55,0,0,0,.86-7.4,20.52,20.52,0,0,0-3.45-4.72,80.45,80.45,0,0,0-8.56-7.84A25.42,25.42,0,0,0,96.56,109a.31.31,0,0,1-.15-.22,24.65,24.65,0,0,0-2.17-7.31,163.91,163.91,0,0,1-5.81-15.64.53.53,0,0,0-.19-.25.39.39,0,0,0-.18,0q-8.09,0-16.18,0a.75.75,0,0,0-.53.18,11.53,11.53,0,0,0-.77,1.48,1.83,1.83,0,0,0-.2,1.82,5.57,5.57,0,0,0,2.19,1.37l.23.08a.21.21,0,0,0,.15,0,3.42,3.42,0,0,0,.81-.92.22.22,0,0,1,.11-.1.08.08,0,0,1,.08,0,.24.24,0,0,1,.1.14,10.54,10.54,0,0,1,.44,1.76c.32.59.67,1.16,1,1.72a.93.93,0,0,1,.12.33.13.13,0,0,1-.09.15.61.61,0,0,1-.27,0,10,10,0,0,1-1-.5,3,3,0,0,0-.36-.18h-.09l-.07,0a3.12,3.12,0,0,0-.92,1.74.3.3,0,0,0,.09.27c.77.68,1.56,1.34,2.36,2a.2.2,0,0,0,.21,0c.28-.25.55-.52.81-.8l.11-.1a.08.08,0,0,1,.08,0,.13.13,0,0,1,.07.06,1.3,1.3,0,0,1,.08.34,2.69,2.69,0,0,1,0,1.38.34.34,0,0,0,0,.26,10.92,10.92,0,0,1,2.34,4.76,1.61,1.61,0,0,1-.24.85.54.54,0,0,0,0,.43,15.67,15.67,0,0,0,1.09,1.57c.27.84.5,1.7.7,2.56a.58.58,0,0,1-.1.42c-.37.64-.74,1.28-1.12,1.91a.32.32,0,0,0,0,.3,15.7,15.7,0,0,0,1.65,2.08,2.45,2.45,0,0,1,.33,2,.36.36,0,0,1-.18.24c-.39.29-.79.56-1.19.83a.3.3,0,0,0-.13.23,1.19,1.19,0,0,0,.09.36,26.54,26.54,0,0,1,1,3.12,2.25,2.25,0,0,1-.36,1.26.63.63,0,0,1-.26.16l-1.82.8a.36.36,0,0,0-.15.21,3.86,3.86,0,0,0,.49,2.55,1.47,1.47,0,0,1-.37,1.54.3.3,0,0,1-.18.06,18.35,18.35,0,0,0-2,.08,1.13,1.13,0,0,0-.53,1.46,6.43,6.43,0,0,0,.51,1.32.31.31,0,0,1-.07.33,11.25,11.25,0,0,1-.88,1,.35.35,0,0,1-.26.07c-1-.17-2-.33-3-.46a1.32,1.32,0,0,0-.59.08.84.84,0,0,0-.33.56c-.15,1-.27,1.95-.37,2.93a.43.43,0,0,1-.33.36c-.31.08-.63.15-1,.21a.45.45,0,0,1-.28-.06,8.31,8.31,0,0,0-3-1.28.89.89,0,0,0-1,.68l-.24.71a.5.5,0,0,1-.37.33.5.5,0,0,1-.47-.13.16.16,0,0,1,0-.16,1.19,1.19,0,0,1,.15-.35,1.74,1.74,0,0,0,0-2.12,5.07,5.07,0,0,0-2.08-1.32L62,130.4a0,0,0,0,1,0,0s0,0,0,0a1.22,1.22,0,0,1,.46-.06,7.59,7.59,0,0,1,2.37.29.27.27,0,0,0,.23,0,1.21,1.21,0,0,0,.22-.32,5.51,5.51,0,0,1,1-1.25.46.46,0,0,1,.26-.1.13.13,0,0,1,.13.1,1.32,1.32,0,0,1,0,.28c0,.47,0,.94,0,1.41a.87.87,0,0,0,.35.59,4.55,4.55,0,0,0,1.86,1.18,1.77,1.77,0,0,0,.93-.14,1.08,1.08,0,0,0,.29-.51,3.18,3.18,0,0,0,.32-1.69,3,3,0,0,0-1.81-1.65l-.39-.21-.1-.08a.09.09,0,0,1,0-.14l.07-.07a1.37,1.37,0,0,1,1.42,0l.14,0a.57.57,0,0,0,.62-.73,6,6,0,0,1-.12-.85,2.57,2.57,0,0,1,.43-.86,6.12,6.12,0,0,1,.5-.64.28.28,0,0,1,.23-.11,11.7,11.7,0,0,0,1.46.24.88.88,0,0,0,.28,0l.07,0a.14.14,0,0,0,.07-.11,1.06,1.06,0,0,0,0-.35,15.61,15.61,0,0,0-.78-2.27,1.15,1.15,0,0,1,.26-1.12.43.43,0,0,1,.33-.09,3.61,3.61,0,0,0,2.2-.28.87.87,0,0,0,.25-.21s0,0,0-.06a.28.28,0,0,0,0-.09,1.9,1.9,0,0,0-.18-.57,10.16,10.16,0,0,0-1.45-2.41,1.42,1.42,0,0,1,.06-1.3.2.2,0,0,1,.12-.06H75a2.73,2.73,0,0,0,1.82-.79.2.2,0,0,0,0-.21,3.58,3.58,0,0,0-2.4-2.24.62.62,0,0,1-.43-.67l.06-.54a.29.29,0,0,1,.07-.16l0,0h.09a2.71,2.71,0,0,0,.85,0,2.83,2.83,0,0,0,1.71-1.17.71.71,0,0,0,0-.72A5.84,5.84,0,0,0,75,107.44a1.89,1.89,0,0,0-.81-.16.33.33,0,0,1-.34-.28c-.13-.53-.24-1-.34-1.58a.12.12,0,0,1,0-.11.11.11,0,0,1,.11,0l1,.32a.42.42,0,0,0,.29,0,3.88,3.88,0,0,0,1.39-2.07,2.07,2.07,0,0,0-.63-1.56,2.05,2.05,0,0,0-1.58-.56,6.29,6.29,0,0,0-1.12.34.71.71,0,0,1-.2,0,.1.1,0,0,1-.1-.07.87.87,0,0,1-.06-.32,4.11,4.11,0,0,0-.34-1.38l0-.16a.05.05,0,0,1,0-.06.29.29,0,0,1,.16,0,2.56,2.56,0,0,0,1,.12,1.37,1.37,0,0,0,.84-.79q.18-.31.33-.63a.39.39,0,0,0-.09-.41A11,11,0,0,0,72.72,96a1,1,0,0,0-1.26.16,1.11,1.11,0,0,1-.3.17.13.13,0,0,1-.18,0,1.09,1.09,0,0,1-.15-.33,17,17,0,0,1-.71-2,.14.14,0,0,1,0-.11.05.05,0,0,1,0,0,.1.1,0,0,1,.07,0,3.17,3.17,0,0,0,.78.28.76.76,0,0,0,.69-.27,2,2,0,0,0,.63-2,3.39,3.39,0,0,0-1.62-1.37A4.56,4.56,0,0,0,69.45,90a1.43,1.43,0,0,0-.73.33l-.18.11a.38.38,0,0,1-.44-.21,2.22,2.22,0,0,1-.25-1.1.79.79,0,0,0-.12-.3c-.4-.52-.8-1.06-1.18-1.59a.13.13,0,0,1,0-.08.05.05,0,0,1,0,0,.18.18,0,0,1,.13,0l2.09.63a.41.41,0,0,0,.38-.11,2.62,2.62,0,0,0,.7-1.63.16.16,0,0,0-.08-.17,1.37,1.37,0,0,0-1.63.25.5.5,0,0,1-.27.11.49.49,0,0,1-.17-.06L67.52,86a1.68,1.68,0,0,0-.64-.32,13.68,13.68,0,0,0-1.92,0l-.15,0a.12.12,0,0,0-.08.13.83.83,0,0,0,.14.3,84.84,84.84,0,0,1,5.52,11.09,51.33,51.33,0,0,1,2.4,11,27.82,27.82,0,0,1-.1,4,8,8,0,0,1-1.81,3.56,1.63,1.63,0,0,1-1.21.32.33.33,0,0,1-.17-.12,7.46,7.46,0,0,0-2.33-2,97.81,97.81,0,0,0-8.68-5.22,24.5,24.5,0,0,0-9.54-2c-1.24,0-2.47,0-3.71.09a14.18,14.18,0,0,0-8,5.09,17.9,17.9,0,0,0-3.33,6.27,3.16,3.16,0,0,0,.74,2.41l.24.35a.29.29,0,0,1,0,.22c-.83,1.5-1.63,3-2.37,4.56a3.58,3.58,0,0,0,1,4.42,25.15,25.15,0,0,0,5.84,3.77,9.08,9.08,0,0,0,3.71,1.25q4.53.92,9.11,1.45c2.42.1,4.84.13,7.26.07Z"/><path class="cls-1" d="M106.21,128.73a3,3,0,0,0,.1-1.83.17.17,0,0,0-.12-.11.15.15,0,0,0-.15,0,.42.42,0,0,0-.14.28,3.94,3.94,0,0,0-.07,1.53.35.35,0,0,0,.14.2.15.15,0,0,0,.19,0l0-.07Zm1.5-2a5,5,0,0,0-1-2.64.33.33,0,0,0-.28-.09l-.64.1a.31.31,0,0,0-.22.15c-.52,1.28-1,2.58-1.4,3.9a1.47,1.47,0,0,0,.54,1.59,4.78,4.78,0,0,0,2.18,1.44.58.58,0,0,0,.48-.07.57.57,0,0,0,.26-.41,25.07,25.07,0,0,0,.08-4Z"/><path class="cls-1" d="M102.91,124.61a.41.41,0,0,0,0-.19.12.12,0,0,0-.12-.1.66.66,0,0,0-.5.3,1,1,0,0,0-.31.68l0,.14a.1.1,0,0,0,0,0,.16.16,0,0,0,.1,0,.42.42,0,0,0,.25-.16,2.83,2.83,0,0,0,.48-.72Zm1.34-1.33a1.74,1.74,0,0,0-2.35-.06,6.51,6.51,0,0,0-1.44,2,.53.53,0,0,0,0,.28l.06.14a4.13,4.13,0,0,0,1.7,2.16.69.69,0,0,0,.93-.32,13.26,13.26,0,0,0,1.38-3.13,1.21,1.21,0,0,0-.26-1.12Z"/><path class="cls-1" d="M78.54,112.61a.3.3,0,0,0-.13-.09.21.21,0,0,0-.21.06.57.57,0,0,0-.06.72.83.83,0,0,0,.28.28.23.23,0,0,0,.27-.07.69.69,0,0,0-.15-.9ZM78.42,111a.38.38,0,0,0-.47,0c-.51.35-1,.72-1.51,1.09a.29.29,0,0,0-.08.23,3.4,3.4,0,0,0,.71,1.22,4.94,4.94,0,0,0,1.35,1.27.72.72,0,0,0,.71-.06,2.07,2.07,0,0,0,1.15-1.1.63.63,0,0,0-.1-.56A6.22,6.22,0,0,0,78.42,111Z"/><path class="cls-1" d="M77.8,106.56a.13.13,0,0,0-.14.06.3.3,0,0,0,0,.29,1.74,1.74,0,0,0,.38.52l.12.09a.06.06,0,0,0,.06,0,.18.18,0,0,0,.07,0,.33.33,0,0,0,0-.39,4.35,4.35,0,0,0-.33-.42.34.34,0,0,0-.16-.1Zm-.24-1.46a2.93,2.93,0,0,0-1.44,1.23,1,1,0,0,0,.17.85A4.38,4.38,0,0,0,77.85,109l.29.09a.77.77,0,0,0,.42-.07A2.47,2.47,0,0,0,80,107.82a.18.18,0,0,0,0-.16,1.16,1.16,0,0,0-.18-.35,18.72,18.72,0,0,0-1.52-2.13.56.56,0,0,0-.59-.12l-.14,0Z"/><path class="cls-1" d="M105,79.8c1.44,0,2.88,0,4.32,0a.15.15,0,0,0,.12-.07,1.36,1.36,0,0,0,.21-.58,1.85,1.85,0,0,0-.3-1.53.37.37,0,0,0-.23-.1H109c-3,0-6.11,0-9.16,0a.15.15,0,0,0-.15.17c0,.66,0,1.33,0,2a.17.17,0,0,0,.07.13l.06,0Zm0-5.6h4.23a.33.33,0,0,0,.23-.12,2.46,2.46,0,0,0,.24-.92,2.14,2.14,0,0,0-.34-1.2.4.4,0,0,0-.27-.12q-4.59,0-9.18,0a.22.22,0,0,0-.2.12.89.89,0,0,0,0,.36c0,.56,0,1.11,0,1.67a.22.22,0,0,0,.13.2,1,1,0,0,0,.35,0Zm-4.84,9.55c3.7,0,7.41-.09,11.11-.23a2.94,2.94,0,0,0,3.07-3.25,6.66,6.66,0,0,0-.38-3.56,3,3,0,0,0-1.17-1.1s0,0,0-.06a.06.06,0,0,1,0-.06.58.58,0,0,1,.11-.15A3.75,3.75,0,0,0,114.09,72a4.58,4.58,0,0,0-.63-3,2.67,2.67,0,0,0-2.58-1.24q-7.69-.06-15.37,0a3.62,3.62,0,0,0-.57,0l-.07,0a.18.18,0,0,0-.08.11,1.4,1.4,0,0,0,0,.35q0,7.53,0,15.05a.31.31,0,0,0,.08.24.37.37,0,0,0,.24.1c1.7,0,3.39,0,5.09,0Z"/><path class="cls-1" d="M68,61.1c2.46-.36,4.92-.68,7.4-1a7.7,7.7,0,0,0,1.42-.33.64.64,0,0,0,.37-.62A2.28,2.28,0,0,0,75,57.05q-3.77-.12-7.55-.07a40.47,40.47,0,0,0-4.12.09,2.23,2.23,0,0,0-1.82,1.15.58.58,0,0,0,0,.41c.38,1.18.77,2.36,1.19,3.53a.23.23,0,0,0,.09.14.21.21,0,0,0,.17,0c1.55-.35,3.1-.74,4.65-1.15L68,61.1ZM54.54,57.91a2.31,2.31,0,0,0,.27-.7.33.33,0,0,0-.14-.3.21.21,0,0,0-.23,0,6.86,6.86,0,0,0-.71.81.38.38,0,0,0,0,.48.38.38,0,0,0,.48.06,1,1,0,0,0,.31-.37ZM67.45,56q3.93.1,7.84-.06A2,2,0,0,0,77,54.07a2.21,2.21,0,0,0-.46-1.66A2.26,2.26,0,0,0,75,51.58a29.28,29.28,0,0,0-3.84-.52c-2.9,0-5.8-.07-8.69-.17a2.65,2.65,0,0,0-2,.92,2.53,2.53,0,0,0,.19,2.13,7.21,7.21,0,0,0,1.19,1.8,1,1,0,0,0,.39.19,24.83,24.83,0,0,0,3,.08Zm7.84-5.69a1.28,1.28,0,0,0,1-.39,3,3,0,0,0,.57-2,1.87,1.87,0,0,0-.41-1.4.72.72,0,0,0-.3-.32l-.29-.07A53.76,53.76,0,0,0,61.76,45c-.51,0-1,0-1.53,0a.31.31,0,0,0-.22.15,4.55,4.55,0,0,0,0,3.72.52.52,0,0,0,.19.2,7,7,0,0,0,3.27.82,81.84,81.84,0,0,0,11.82.38Zm-24-1.21a4.73,4.73,0,0,0-.25.66.19.19,0,0,0,0,.15.1.1,0,0,0,.07.07.29.29,0,0,0,.16,0,2.84,2.84,0,0,0,1.25-1.46,1.59,1.59,0,0,0,.25-.75.18.18,0,0,0-.08-.16.19.19,0,0,0-.18,0,.44.44,0,0,0-.18.12,7.24,7.24,0,0,0-1,1.41Zm-5.6.4a.2.2,0,0,0,.15,0,1.26,1.26,0,0,0,.44-.42,3.42,3.42,0,0,0,.79-1.16A.46.46,0,0,0,47,47.5a.21.21,0,0,0-.2,0,1.26,1.26,0,0,0-.54.4L46,48.1a1.94,1.94,0,0,0-.29.71c0,.13-.07.26-.11.4a.23.23,0,0,0,0,.25l.06,0Zm28.75-7.74a71.18,71.18,0,0,0-12.81-1.86,2.42,2.42,0,0,0-1.82,1.92A1.07,1.07,0,0,0,59.94,43a3.37,3.37,0,0,0,2.39.94,42.12,42.12,0,0,0,6.55.24,41.18,41.18,0,0,1,7.83.79.64.64,0,0,0,.56-.16.65.65,0,0,0,.21-.54A1.71,1.71,0,0,0,77.23,43a1.67,1.67,0,0,0-1.09-.71q-.84-.27-1.71-.48Zm5.27-4.52a5.73,5.73,0,0,0,1.77-4,17.68,17.68,0,0,1,.86-3.13,6.56,6.56,0,0,0,.2-1,.28.28,0,0,0-.06-.25.62.62,0,0,0-.25-.11l-.58-.08a.15.15,0,0,0-.14.13.53.53,0,0,0,0,.18,1.78,1.78,0,0,1-.43,2.38,1.63,1.63,0,0,1-1.28,0q-3.11-1.2-6.13-2.58a40.26,40.26,0,0,0-5.13-1.75,1.21,1.21,0,0,1-.82-1.36,3.36,3.36,0,0,1,2.69-2,11.41,11.41,0,0,1,3,1.09q3.16,1.5,6.3,3.05a.33.33,0,0,0,.14,0s0,0,0,0,0,0,0,0c-2-1.29-4.09-2.55-6.17-3.76a5.05,5.05,0,0,1-1.84-2,.32.32,0,0,1,0-.37,1.48,1.48,0,0,1,1-.65,1.43,1.43,0,0,1,1.13.25c2,1.18,4,2.35,5.95,3.49a2.28,2.28,0,0,0,.36.15h0a0,0,0,0,0,0,0,2.18,2.18,0,0,0-.47-.38,56.93,56.93,0,0,1-4.94-4.11.33.33,0,0,1,0-.42,1.62,1.62,0,0,1,2.53-.27c1,.7,2,1.39,3.08,2.07l.14.07h0a0,0,0,0,0,0,0,.79.79,0,0,0-.14-.17,14.92,14.92,0,0,1-2.42-3.12.24.24,0,0,1,0-.3,1.32,1.32,0,0,1,1.13-.54,2.64,2.64,0,0,0,1.34-.57.17.17,0,0,0,.07-.13.08.08,0,0,0-.06-.08,1.13,1.13,0,0,0-.77,0,25.28,25.28,0,0,0-5.28,2.23,18.67,18.67,0,0,0-3.07,1.9,10.38,10.38,0,0,1-1.91,2,10.27,10.27,0,0,0-2.81,2.31,20,20,0,0,1-4.11,4.56c-.15.14-.29.29-.43.44A1.57,1.57,0,0,0,62,31c-.1.55-.21,1.09-.33,1.64a.46.46,0,0,1-.1.18,7.58,7.58,0,0,0-2.08,4,4.38,4.38,0,0,0,.28,2.81.33.33,0,0,0,.23.17.29.29,0,0,0,.16,0c.47-.29.94-.58,1.39-.89a.41.41,0,0,0,.12-.14.17.17,0,0,0,0-.14,2.44,2.44,0,0,0-.29-.27A2,2,0,0,1,60.69,36a6.45,6.45,0,0,1,.85-1.7.77.77,0,0,1,.37-.25,5.54,5.54,0,0,1,2.56-.12,42,42,0,0,1,12.09,2.89,4.09,4.09,0,0,1,1.83,1.61,2.31,2.31,0,0,1-.15,2,9,9,0,0,0-.44,1.23.31.31,0,0,0,0,.23.26.26,0,0,0,.34.08,2.57,2.57,0,0,0,.92-1.41,8.65,8.65,0,0,0,.28-2.82.36.36,0,0,1,.11-.26l.21-.22ZM95,40.65l.47-.51a.38.38,0,0,0,.06-.13.05.05,0,0,0,0,0h0a.3.3,0,0,0-.16,0,6.27,6.27,0,0,0-1.22,1,.19.19,0,0,0,0,.13.08.08,0,0,0,0,.08.18.18,0,0,0,.09,0h.35a.35.35,0,0,0,.15-.12,3.87,3.87,0,0,1,.35-.45ZM72.16,37.18a7.7,7.7,0,0,0-6.12.1c-.82.27-1.62.58-2.41.92a1,1,0,0,0-.24.22.22.22,0,0,0,.07.28.73.73,0,0,0,.31.14c2.39.56,4.81,1,7.24,1.35l4.75.84a.2.2,0,0,0,.11,0,.09.09,0,0,0,0-.11A4.27,4.27,0,0,0,73.58,38a14.17,14.17,0,0,0-1.42-.79ZM53.06,30a3.48,3.48,0,0,0,.9-1.25.54.54,0,0,0,0-.43,6.58,6.58,0,0,0-1.45-2.2,1.79,1.79,0,0,0-2.09.44,10.72,10.72,0,0,0-2.77,4.18.74.74,0,0,0,0,.44c.12.36.25.71.4,1.05a.39.39,0,0,0,.36.19,5.6,5.6,0,0,0,3.09-1.23A9.82,9.82,0,0,0,53.06,30Zm.58,1.92a3,3,0,0,0,1.46-1.28.32.32,0,0,0,0-.16.18.18,0,0,0-.15-.13.24.24,0,0,0-.14,0,1.72,1.72,0,0,0-.4.36l-.85.84a.38.38,0,0,0-.09.26.1.1,0,0,0,.05.08.11.11,0,0,0,.08,0Zm6.43-8.44a2.42,2.42,0,0,0-1.44-1.82c-.35-.21-.72-.41-1.09-.59a.4.4,0,0,0-.37,0,9.19,9.19,0,0,0-3.91,3.12.42.42,0,0,0,0,.33,2.49,2.49,0,0,0,1.28,1.76c.58.41,1.17.8,1.77,1.18a.3.3,0,0,0,.26,0,6.76,6.76,0,0,0,3.15-2.3,2.67,2.67,0,0,0,.39-1.72Zm4.43-4.4A2.13,2.13,0,0,0,62,17.86a5.41,5.41,0,0,0-2.6,1.81.38.38,0,0,0,0,.28,4.77,4.77,0,0,0,2.36,2.86,1.2,1.2,0,0,0,1-.21,8.14,8.14,0,0,0,1.74-1.28,2.14,2.14,0,0,0,0-2.26ZM89.18,21a.18.18,0,0,0-.1,0,.12.12,0,0,0,0,.09v.08a1.13,1.13,0,0,0,0,.18s0,0,0,.08.21.21.33.31a.13.13,0,0,0,.12,0,.1.1,0,0,0,.09-.06.13.13,0,0,0,0-.06.36.36,0,0,0,0-.1,1.29,1.29,0,0,0-.28-.48L89.18,21ZM69.35,15.92a2.43,2.43,0,0,0-.9-.9,1.47,1.47,0,0,0-1,.1,13,13,0,0,0-2.69,1.4,2.49,2.49,0,0,0-.34.38.34.34,0,0,0,0,.34A8.07,8.07,0,0,0,66,19.39a1.69,1.69,0,0,0,1.56-.12,4.27,4.27,0,0,0,1.94-1.36,1.74,1.74,0,0,0-.19-2ZM61,15.79a.62.62,0,0,0-.21.27l0,.15a2.4,2.4,0,0,1-1.26,1.51c-.33.11-.66.22-1,.3a1.31,1.31,0,0,0-.52.44.5.5,0,0,0-.09.23v.06a.16.16,0,0,0,.07.09.78.78,0,0,0,.67,0,18.54,18.54,0,0,0,3-1.91.72.72,0,0,0,.15-1,.55.55,0,0,0-.76-.13ZM94.78,17a21,21,0,0,0-2.91-.94h-.14a.07.07,0,0,0-.06.07.82.82,0,0,0,.1.26,5.89,5.89,0,0,0,2.17,2.42,4.21,4.21,0,0,0,2.67-.09.31.31,0,0,0,.14-.09.25.25,0,0,0,0-.17,1.86,1.86,0,0,0-1-1,8.83,8.83,0,0,0-1-.45Zm-21-3.21a5,5,0,0,0-.31-.84.75.75,0,0,0-.79-.19A8.46,8.46,0,0,0,70,14.07a1.37,1.37,0,0,0,0,1.56A4.9,4.9,0,0,0,70.89,17a1.22,1.22,0,0,0,1,.06,5.44,5.44,0,0,0,2.05-1,1,1,0,0,0,.19-.83,11.19,11.19,0,0,0-.3-1.42Zm-7.94-1.11a1,1,0,0,0-.91.12l-.09.09a0,0,0,0,0,0,.07.24.24,0,0,0,.1,0,1.9,1.9,0,0,1,.58.09.38.38,0,0,1,.22.24.32.32,0,0,1-.08.31,3.92,3.92,0,0,1-1.53,1.14,1,1,0,0,1-1.09-.49.27.27,0,0,0-.11-.1.1.1,0,0,0-.14,0,.94.94,0,0,0-.06.89,1,1,0,0,0,.7.56.66.66,0,0,0,.27-.09c.9-.38,1.8-.77,2.69-1.18a.87.87,0,0,0-.11-1.49,3.14,3.14,0,0,0-.44-.25Zm12.76-.15A1.29,1.29,0,0,0,77.28,12a8.29,8.29,0,0,0-2.28.22,1.13,1.13,0,0,0-.38,1.42,3.53,3.53,0,0,0,.69,1.67.74.74,0,0,0,.68.19A11.8,11.8,0,0,0,78.42,15,1.43,1.43,0,0,0,79,13.5a1.7,1.7,0,0,0-.34-1Zm3.78,1a.44.44,0,0,1-.34.39,1.82,1.82,0,0,1-1.52-.24.48.48,0,0,1-.17-.42,1.29,1.29,0,0,1,.37-.58l.09-.1a0,0,0,0,0,0-.07.46.46,0,0,0-.2-.13.73.73,0,0,0-.73,0,.72.72,0,0,0-.39.63,2.06,2.06,0,0,0,.6,1.59,2.72,2.72,0,0,0,2.4.3A1.24,1.24,0,0,0,83,13.64a1.37,1.37,0,0,0-.37-.86.31.31,0,0,0-.13-.06.08.08,0,0,0-.08,0,.08.08,0,0,0,0,.06.32.32,0,0,0,0,.17,1.83,1.83,0,0,1,0,.52Zm-10-3.08a1.09,1.09,0,0,0-1.14-.12l-.11.06a.11.11,0,0,0,0,.11l0,.07a1.91,1.91,0,0,1,.24.32.3.3,0,0,1-.05.35,1.47,1.47,0,0,1-.63.41,2.74,2.74,0,0,1-1.38.25.35.35,0,0,1-.25-.16l-.18-.24a.21.21,0,0,0-.19-.08.51.51,0,0,0-.28.17.92.92,0,0,0,0,1.53.45.45,0,0,0,.28.05,8.74,8.74,0,0,0,2.42-.81,3.78,3.78,0,0,0,1.22-.69.64.64,0,0,0,.16-.41,1.06,1.06,0,0,0-.16-.81Zm8.16.49a1.35,1.35,0,0,1-.77-.29.39.39,0,0,1-.14-.3.41.41,0,0,1,.14-.31l.12-.13A.42.42,0,0,0,80,9.73a.09.09,0,0,0,0-.07l-.07,0a1.68,1.68,0,0,0-1,0,.6.6,0,0,0-.3.76A1.69,1.69,0,0,0,80,11.58a5.75,5.75,0,0,0,1.66.24.82.82,0,0,0,.18-1.48,1.64,1.64,0,0,0-.48-.27.17.17,0,0,0-.14,0s0,0,0,0a.06.06,0,0,0,0,.06l.17.26.05.07a.17.17,0,0,1,0,.14.71.71,0,0,1-.55.26.66.66,0,0,1-.28,0ZM76.72,9.54a.08.08,0,0,0-.08,0,0,0,0,0,0,0,0l.14.24a.47.47,0,0,1,.06.4.48.48,0,0,1-.26.3,2.24,2.24,0,0,1-2.09,0,.65.65,0,0,1-.17-.82l.08-.16a.07.07,0,0,0,0-.07.26.26,0,0,0-.11-.07,1.52,1.52,0,0,0-.76.11.24.24,0,0,0-.15.19,2.36,2.36,0,0,0,.09.91,1.19,1.19,0,0,0,1.29.63,4.19,4.19,0,0,0,2.13-.23,1.47,1.47,0,0,0,.57-.35l.06-.06a.49.49,0,0,0,0-.17,1,1,0,0,0-.77-.94ZM52.51,62a17.22,17.22,0,0,0-2.25-.69A.44.44,0,0,1,50,61c-.4-.83-.8-1.66-1.19-2.5a.3.3,0,0,1,0-.26,14.56,14.56,0,0,0,1.63-2.91,1.17,1.17,0,0,0,.1-.41.41.41,0,0,0-.33-.38l-3.47-1.07a1.54,1.54,0,0,1-.65-1,2,2,0,0,1,.52-1.71,48,48,0,0,0,3-4.12,2.61,2.61,0,0,0,.28-1.06.18.18,0,0,0,0-.12,1.61,1.61,0,0,0-1.44-.25,9.16,9.16,0,0,0-3.32,1.17.15.15,0,0,1-.13,0,.16.16,0,0,1-.06-.12c0-.73,0-1.46,0-2.18a.46.46,0,0,1,.12-.23,6.3,6.3,0,0,0,.95-.91,14.14,14.14,0,0,0,1.67-4.2.31.31,0,0,0-.18-.29,2.07,2.07,0,0,0-1.47,0,7.24,7.24,0,0,0-.93.31.22.22,0,0,1-.14,0l0,0a.26.26,0,0,1,0-.08,9.25,9.25,0,0,1,.49-2.38l0-.12h0l0,0a1.51,1.51,0,0,1,.11.22.94.94,0,0,0,1.14.59,4.59,4.59,0,0,0,3.43-2.51,14.91,14.91,0,0,1,1-1.47.37.37,0,0,1,.23-.12.1.1,0,0,1,.1,0,.12.12,0,0,1,0,.08,2.23,2.23,0,0,1,0,.36c-.08.4-.16.79-.22,1.19a.11.11,0,0,0,0,.07s0,0,0,0a.2.2,0,0,0,.15,0,14.41,14.41,0,0,0,4.76-3.18l1.19-1a.12.12,0,0,1,.1,0,.11.11,0,0,1,.06.07.32.32,0,0,1,0,.16,33.36,33.36,0,0,0-2.21,6.66,35.79,35.79,0,0,1-1.51,4.13.62.62,0,0,0,.31.78l.38.21a1.09,1.09,0,0,1,.36,1,.31.31,0,0,1-.05.21l-.11.08-1.9.69a.86.86,0,0,0-.38.35q-2,3-4.23,5.83a4.38,4.38,0,0,0-.55,1.13.4.4,0,0,0,.25.48c1.11.24,2.23.47,3.35.69A2.16,2.16,0,0,0,53,51.52c.7-1.6,1.38-3.19,2.06-4.8a1.71,1.71,0,0,1,.13-.23s0,0,0,0l.05,0a.35.35,0,0,1,.12.23c.13.6.25,1.21.36,1.82v.28l0,.15c-.51,1.13-1,2.27-1.52,3.41,0,.14-.07.28-.1.43a.77.77,0,0,0,.55.74,5.34,5.34,0,0,0,2.1.24.25.25,0,0,1,.23.1.87.87,0,0,1,.13.35,6.43,6.43,0,0,1,.17.76.15.15,0,0,1,0,.13.05.05,0,0,1,0,0l-.08,0a1.8,1.8,0,0,0-.76-.31c-.86.06-1.71.1-2.57.11a3.52,3.52,0,0,0-2,1.57,6.28,6.28,0,0,0-1,1.85,2.61,2.61,0,0,0,.14,1.27.58.58,0,0,0,.2.21A9.9,9.9,0,0,0,53.64,61a2.79,2.79,0,0,0,1.56-.25.64.64,0,0,0,.22-.24,19.46,19.46,0,0,0,2.21-4,1.5,1.5,0,0,1,.11-.36l0,0,0,0q.34,1,.63,2a.58.58,0,0,1-.05.29,11.24,11.24,0,0,0-1.1,2.42,3,3,0,0,0,0,.67.34.34,0,0,0,.15.22A18,18,0,0,0,61,63.3a3,3,0,0,1,.92,1c.09.12.18.24.28.35h0s0,0,0,0c-.5-1.27-1-2.52-1.63-3.75A51.24,51.24,0,0,1,56.85,48a81.12,81.12,0,0,1-.38-11.24,7.3,7.3,0,0,1,1-3,.69.69,0,0,1,.78-.23.68.68,0,0,1,.47.65c0,2.32,0,4.65-.1,7a74.22,74.22,0,0,0,.33,10.11,34.86,34.86,0,0,0,3.22,11.53,23.49,23.49,0,0,0,1.39,2.56.91.91,0,0,0,.45.32.2.2,0,0,0,.19-.06.08.08,0,0,0,0,0v-.08a7.63,7.63,0,0,0-.31-.84,2.62,2.62,0,0,1-.16-1,1.16,1.16,0,0,1,.78-.76,28.61,28.61,0,0,1,9.1-1.91,23.38,23.38,0,0,1,3.13.08,4.11,4.11,0,0,1,.57.17.55.55,0,0,1,.28.3,2.14,2.14,0,0,1,.18,2.12,3,3,0,0,1-1.88,1.16c-.69.21-1.37.44-2,.67a.14.14,0,0,0-.08.1s0,0,0,0a.09.09,0,0,0,.06,0,29,29,0,0,0,5.43.16.3.3,0,0,0,.16,0,.19.19,0,0,0,0-.13c-.5-2.26-.92-4.54-1.29-6.83a31.55,31.55,0,0,1-.24-5.83,31.25,31.25,0,0,1,1.41-10.39A6.88,6.88,0,0,1,81,39.64a.29.29,0,0,1,.27,0,1.32,1.32,0,0,1,.77,1.11,10,10,0,0,1-.13,4.84,33.22,33.22,0,0,0-.47,7.11,39.52,39.52,0,0,0,1.12,11.26,6.46,6.46,0,0,0,.76,1.67.49.49,0,0,0,.18.14.08.08,0,0,0,.1,0,.23.23,0,0,0,0-.14,53.08,53.08,0,0,1-1.42-11.78,38.27,38.27,0,0,1,3.37-13.66,1.38,1.38,0,0,1,.41-.49.15.15,0,0,1,.09,0,.07.07,0,0,1,.06,0,.28.28,0,0,1,.11.13,11.8,11.8,0,0,0,1.25,2.92,2.67,2.67,0,0,0,2.55.93,6.7,6.7,0,0,0,2.43-.36q3.33-2.07,6.47-4.42a4.75,4.75,0,0,0,1.31-1.61.45.45,0,0,0,0-.16.12.12,0,0,0-.07-.1.64.64,0,0,0-.49.05A9.3,9.3,0,0,0,98,38.16a.33.33,0,0,1-.16.07.1.1,0,0,1-.1,0,.21.21,0,0,1,0-.15c0-.1,0-.2.07-.3l0-.1a.23.23,0,0,0-.26-.26,2.34,2.34,0,0,0-.91.44c-1,.69-1.94,1.39-2.89,2.09a.08.08,0,0,1-.08,0,.07.07,0,0,1,0-.07,1,1,0,0,1,.07-.29,17.78,17.78,0,0,0,.3-4.83,32.56,32.56,0,0,1,1.15-8.55,3.88,3.88,0,0,1,.57-1.24.33.33,0,0,1,.22-.11,2.53,2.53,0,0,1,1.94.76.43.43,0,0,1,.08.36,32.57,32.57,0,0,1-1.58,4.37.58.58,0,0,0,0,.5.15.15,0,0,0,.19.07,1.39,1.39,0,0,0,.66-.71A27.91,27.91,0,0,0,99,26.46a1.67,1.67,0,0,0-.66-1.84,47.56,47.56,0,0,0-5.41-4.18,12.08,12.08,0,0,0-3.56-1.38,1.47,1.47,0,0,0-1.57,1.28,17.6,17.6,0,0,0-.18,3.7c0,3.65,0,7.31.16,11a31.59,31.59,0,0,0,1.42,5.83,2.24,2.24,0,0,0,.74.82.59.59,0,0,0,.29.07,10.27,10.27,0,0,0,1.57-.11.77.77,0,0,1,.63.37.14.14,0,0,1,0,.18,1.38,1.38,0,0,1-.33.2,3.35,3.35,0,0,1-2.56.46,4.29,4.29,0,0,1-2.07-3,49.06,49.06,0,0,1-2.07-10.11,65.37,65.37,0,0,1-.61-8.39,3.47,3.47,0,0,0-.17-.85,14,14,0,0,1,.19-2.14c.18-1.47.41-2.93.66-4.4a.79.79,0,0,1,.17-.31l.07,0h.08a2.67,2.67,0,0,1,.61.45A9.31,9.31,0,0,1,89,17.12a1.55,1.55,0,0,0,.63.34,28.1,28.1,0,0,1,7.83,5c.42.35.85.69,1.28,1a.57.57,0,0,0,.42.1q1.14-.09,2.28-.27a.68.68,0,0,1,.28.07,2.15,2.15,0,0,0,1,.38h1.48a.16.16,0,0,1,.11.05.06.06,0,0,1,0,0,.09.09,0,0,1,0,.05l-.2.24a24.3,24.3,0,0,0-1.55,3.55,39,39,0,0,1-2.19,4.33.69.69,0,0,1-.52.27,1.62,1.62,0,0,0-1.2.79,1.57,1.57,0,0,0-.1,1.43.48.48,0,0,0,.41.28,2.86,2.86,0,0,0,1.48-1,29.88,29.88,0,0,0,4.36-7.25,2.55,2.55,0,0,1,1.06-1.05,2.2,2.2,0,0,0,.95-1.34.45.45,0,0,0-.19-.4,22.23,22.23,0,0,1-5.28-4.49,36.51,36.51,0,0,0-4-4.23,11.61,11.61,0,0,0-3.85-1.64,78.27,78.27,0,0,1-9.68-3.3,39,39,0,0,0-8.54-2.32,9.43,9.43,0,0,0-4.56.92,25.66,25.66,0,0,0-7.26,4A70.13,70.13,0,0,0,51,24.31a38.14,38.14,0,0,0-5.48,7.57,27.66,27.66,0,0,0-2,7,45.83,45.83,0,0,0,0,7.41c.24,1.18.47,2.37.69,3.55a23.83,23.83,0,0,0,2.88,7.7l4,7.54a1.55,1.55,0,0,0,1.16.88.39.39,0,0,0,.36-.18c.48-.81.94-1.63,1.39-2.46A.31.31,0,0,0,54,63a7.76,7.76,0,0,0-1.51-1Z"/><path class="cls-1" d="M50.37,40.12a1.33,1.33,0,0,0-.09.49.21.21,0,0,0,0,.13l.05,0,.06,0a7.64,7.64,0,0,0,1.43-2.17.78.78,0,0,0,0-.21.17.17,0,0,0-.27-.18,1.7,1.7,0,0,0-.72.8,5.44,5.44,0,0,0-.55,1.14Zm2.38.71a31.91,31.91,0,0,0,1.9-4.27,1.25,1.25,0,0,0-.06-.81.22.22,0,0,0-.18-.14,1,1,0,0,0-.35.06,8.93,8.93,0,0,0-4.25,2.18,9.41,9.41,0,0,0-1.57,2.71A10.24,10.24,0,0,0,47.39,43a.29.29,0,0,0,.08.23,1.65,1.65,0,0,0,1.62.21,5.08,5.08,0,0,0,3.66-2.65Z"/><path class="cls-1" d="M43.61,129a1.22,1.22,0,0,0-.79-1,5.68,5.68,0,0,0-2.7.75,2.44,2.44,0,0,0-.58,1.55,8.15,8.15,0,0,0,.06,1.56,1,1,0,0,0,1.38.56,7.46,7.46,0,0,0,2.12-1.13A3.45,3.45,0,0,0,43.61,129Z"/><path class="cls-1" d="M61.48,125.27a2.12,2.12,0,0,0,.85,1.12.77.77,0,0,0,1-.7A2.2,2.2,0,0,0,62.9,124a.63.63,0,0,0-.87-.09A1.05,1.05,0,0,0,61.48,125.27Z"/><path class="cls-1" d="M53.16,123.69a.92.92,0,0,0-.16.86,9.27,9.27,0,0,0,.44,1.25c.2.24.44.49.77.27a2.54,2.54,0,0,0,.81-1.23,1.37,1.37,0,0,0-.39-1.88.68.68,0,0,0-.7.06A1.92,1.92,0,0,0,53.16,123.69Z"/><path class="cls-1" d="M76.42,122a2.85,2.85,0,0,0-2.19.65.44.44,0,0,0-.11.42,4,4,0,0,0,1.16,2.22,2.34,2.34,0,0,0,2.78-.3.4.4,0,0,0,.08-.28,4.6,4.6,0,0,0-.84-2.4A1.35,1.35,0,0,0,76.42,122Z"/><path class="cls-1" d="M46.44,121.41a2.14,2.14,0,0,0,.09,2,.68.68,0,0,0,1,.14,4.07,4.07,0,0,0,.69-.86,1.26,1.26,0,0,0,0-.72,2.2,2.2,0,0,0-.67-1.27.33.33,0,0,0-.32,0A1.23,1.23,0,0,0,46.44,121.41Z"/><path class="cls-1" d="M40.22,119.57a1.18,1.18,0,0,0,.2,1,.85.85,0,0,0,.77.13c.59-.18.75-1.07.76-1.58a.85.85,0,0,0-1.25-.4A1,1,0,0,0,40.22,119.57Z"/><path class="cls-1" d="M78.56,117a2.08,2.08,0,0,0-1.71-.07,5.6,5.6,0,0,0-.7.2.71.71,0,0,0-.39.88,4.76,4.76,0,0,0,1.52,2.38,2.06,2.06,0,0,0,1.56,0l.58-.15a.92.92,0,0,0,.44-1.42A5.89,5.89,0,0,0,78.56,117Z"/><path class="cls-1" d="M35.84,117.3a.69.69,0,0,0,.44.75.29.29,0,0,0,.3-.1,3,3,0,0,0,.86-2,.39.39,0,0,0-.59-.24,1.53,1.53,0,0,0-.65.61A2.36,2.36,0,0,0,35.84,117.3Z"/><path class="cls-1" d="M45.78,117.63a.38.38,0,0,0,.44,0,2.29,2.29,0,0,0,.77-.89.35.35,0,0,0-.09-.38.54.54,0,0,0-.52-.18,4,4,0,0,0-.77.11.31.31,0,0,0-.21.19A.76.76,0,0,0,45.78,117.63Z"/><path class="cls-1" d="M56.63,113.8a2,2,0,0,0-1.55.35.85.85,0,0,0-.49.86,3,3,0,0,0,1,2.43,1.55,1.55,0,0,0,1.42-.27,2.14,2.14,0,0,0,.84-.74,2,2,0,0,0-.27-1.57A2.11,2.11,0,0,0,56.63,113.8Z"/><path class="cls-1" d="M40.52,114.3a.46.46,0,0,0,.49.61,1.47,1.47,0,0,0,1.29-1,.81.81,0,0,0-.31-.7.4.4,0,0,0-.32,0l-.4.08A1.27,1.27,0,0,0,40.52,114.3Z"/><path class="cls-1" d="M59.91,113.49a3,3,0,0,0,.47,1.33.49.49,0,0,0,.38.14,2.51,2.51,0,0,0,.85-.24.42.42,0,0,0,.24-.29c0-.21.07-.41.1-.62a.27.27,0,0,0-.05-.15,5,5,0,0,0-.84-.75.85.85,0,0,0-.9.13A.59.59,0,0,0,59.91,113.49Z"/><path class="cls-1" d="M49.39,112.6A.78.78,0,0,0,50,113a1.05,1.05,0,0,0,.82-.43.6.6,0,0,0,0-.58,2.1,2.1,0,0,0-.71-1.05.35.35,0,0,0-.28,0,2.1,2.1,0,0,0-.49.2.26.26,0,0,0-.13.22A2.6,2.6,0,0,0,49.39,112.6Z"/><path class="cls-1" d="M53.35,111.14a.45.45,0,0,0,.34.22,1.51,1.51,0,0,0,1.51-.47.47.47,0,0,0,0-.33c0-.12,0-.23-.08-.35-.26-.81-1.61-.44-2-.13a.2.2,0,0,0-.07.16,2.2,2.2,0,0,0,.07.37A1.7,1.7,0,0,0,53.35,111.14Z"/><path class="cls-1" d="M75.83,99.12a1.28,1.28,0,0,0-.61,1.51,3.66,3.66,0,0,0,.93,1,9.87,9.87,0,0,0,1.14,1,.85.85,0,0,0,1.07-1.13,5.87,5.87,0,0,0-2.07-2.4A.36.36,0,0,0,75.83,99.12Z"/><path class="cls-1" d="M25.6,83.5c2.21.26,4.4-1.18,4.06-3.66q0-1.71-.09-3.42a3,3,0,0,0-2.69-2.35,81.16,81.16,0,0,0-8.68-.23c-.45,0-.9,0-1.34,0a.39.39,0,0,1-.22-.11.89.89,0,0,1-.12-.56c0-.49,0-1,0-1.47a.12.12,0,0,1,.07-.11.58.58,0,0,1,.32,0c2.6,0,5.19,0,7.79,0a.3.3,0,0,1,.21.14c.14.33.29.67.44,1a.31.31,0,0,0,.28.18c1.19,0,2.38,0,3.58,0a.25.25,0,0,0,.18-.15,2.12,2.12,0,0,0,.06-.57,3.5,3.5,0,0,0-3.72-4.24q-5.7-.19-11.39,0A3.35,3.35,0,0,0,11.68,71c-.31,1.53-.54,5.37,1.68,5.86,3.47.72,7.45.46,11,.48a.4.4,0,0,1,.32.22c.24.29.94,2.25-.09,2.47a7.23,7.23,0,0,1-.93,0q-3.42,0-6.84,0a.89.89,0,0,1-.87-.77,6.65,6.65,0,0,0-.23-.76.25.25,0,0,0-.12-.11,1.08,1.08,0,0,0-.35,0H12a.23.23,0,0,0-.21.13,1.18,1.18,0,0,0-.09.37,10,10,0,0,0,0,2.68,3.18,3.18,0,0,0,2.29,1.93l10,.08Q24.75,83.52,25.6,83.5Z"/><path class="cls-1" d="M61.19,83.57c4,0,8,0,11.93,0a.26.26,0,0,0,.19-.12.89.89,0,0,0,0-.33c0-.33,0-2.69,0-3-.07-.12-.33-.13-.45-.12q-6,0-11.91,0a.24.24,0,0,1-.2-.16,1.45,1.45,0,0,1,0-.36c0-.55,0-1.11,0-1.66a.27.27,0,0,1,.13-.21.46.46,0,0,1,.21,0l11.19,0a.23.23,0,0,0,.22-.23,24.48,24.48,0,0,0-.06-3.09.29.29,0,0,0-.16-.07c-3.73,0-7.45,0-11.18,0a.26.26,0,0,1-.22-.13.82.82,0,0,1,0-.35,15.59,15.59,0,0,1,0-2,.18.18,0,0,1,.13-.09.54.54,0,0,1,.22,0q5.75.08,11.51,0a3.4,3.4,0,0,0,.64-.08.18.18,0,0,0,.09-.12,1.45,1.45,0,0,0,0-.36c0-.88,0-1.75,0-2.63a.27.27,0,0,0-.24-.21H56.09a.2.2,0,0,0-.24.18c0,2.41,0,4.81,0,7.22,0,.21,0,7.85.07,8a.2.2,0,0,0,.12.08,2,2,0,0,0,.35,0Z"/><path class="cls-1" d="M82,83.57c3.48,0,7,0,10.46,0a.25.25,0,0,0,.23-.21c0-1,0-2.08,0-3.12a.26.26,0,0,0-.23-.25L82,79.94a.41.41,0,0,1-.16,0,.16.16,0,0,1-.07-.09.87.87,0,0,1,0-.28V68.74a1.84,1.84,0,0,0,0-.62.15.15,0,0,0-.12-.07c-1.57,0-3.15,0-4.72,0a.21.21,0,0,0-.19.11.44.44,0,0,0,0,.2q-.06,7.38,0,14.76c0,.1,0,.2,0,.3a.22.22,0,0,0,.16.15,1.35,1.35,0,0,0,.35,0Z"/><path class="cls-1" d="M37.5,83.22c0-1.62,0-3.23,0-4.85a.21.21,0,0,1,0-.11.16.16,0,0,1,.11-.05c3.37,0,6.75,0,10.12,0a.2.2,0,0,1,.2.14.85.85,0,0,1,0,.36c0,1.5,0,3,0,4.51a.23.23,0,0,0,.14.2,1.1,1.1,0,0,0,.36,0c1.45,0,2.91,0,4.37,0a.28.28,0,0,0,.2-.13.85.85,0,0,0,0-.35V68.2A.23.23,0,0,0,53,68a.88.88,0,0,0-.36,0c-.16,0-4.24,0-4.39.1a.28.28,0,0,0-.08.15q0,2.6,0,5.19a.23.23,0,0,1-.13.21,1,1,0,0,1-.35,0H37.79a.2.2,0,0,1-.13,0,.14.14,0,0,1-.06-.11c0-1.75-.06-3.49-.05-5.24a.28.28,0,0,0-.22-.22A2.16,2.16,0,0,0,37,68c-1.31,0-2.62,0-3.93,0a.35.35,0,0,0-.24.1.57.57,0,0,0-.09.36V83.22a.28.28,0,0,0,.1.21.53.53,0,0,0,.24.06c.33,0,4,0,4.36,0a.14.14,0,0,0,.08-.09A.47.47,0,0,0,37.5,83.22Z"/><path class="cls-1" d="M129.17,83.1q0-2.34,0-4.68a.51.51,0,0,1,.08-.29L137.41,68a.08.08,0,0,0,0-.08.16.16,0,0,0-.07-.07,2.72,2.72,0,0,0-.57,0c-1.65,0-3.29,0-4.94,0a.41.41,0,0,0-.28.13q-2.34,2.9-4.66,5.81a.2.2,0,0,1-.23.07.5.5,0,0,1-.17-.15l-4.56-5.58a.5.5,0,0,0-.4-.15c-1.74,0-3.47,0-5.21,0-.14,0-.47,0-.24.3l8,9.61a.71.71,0,0,1,.14.42c0,1.65,0,3.3,0,5a.25.25,0,0,0,.12.18.93.93,0,0,0,.33,0H129C129.16,83.41,129.18,83.21,129.17,83.1Z"/><path class="cls-1" d="M60.34,66A10.27,10.27,0,0,0,62,65.72a.1.1,0,0,0,.05-.06.11.11,0,0,0,0-.08.84.84,0,0,0-.26-.27,15.62,15.62,0,0,0-5.47-1.89.5.5,0,0,0-.33.12,6.16,6.16,0,0,0-1.44,1.73.42.42,0,0,0,.3.57A37.69,37.69,0,0,0,60.34,66Z"/><path class="cls-1" d="M80.44,33a.58.58,0,0,0-.18-.23A45.09,45.09,0,0,0,69,28a5.24,5.24,0,0,0-3.84.48,7.41,7.41,0,0,0-2,2.85,1,1,0,0,0,.59,1.29,7.69,7.69,0,0,0,2.41.6A49.34,49.34,0,0,1,76,35.56a5.2,5.2,0,0,0,3.28.18A2,2,0,0,0,80.44,33Z"/><path class="cls-1" d="M100.18,30.31c.23-.37,2.73-4.6,2.64-5.12a.16.16,0,0,0-.15-.12,1.24,1.24,0,0,0-1.32.82A47.92,47.92,0,0,1,97.64,32a.36.36,0,0,1-.33.08,1.21,1.21,0,0,0-.68,0,2.6,2.6,0,0,0-1.1,2.35.94.94,0,0,0,.54.64.38.38,0,0,0,.39-.14A38.37,38.37,0,0,0,100.18,30.31Z"/><path class="cls-1" d="M52.88,27.88a1.51,1.51,0,0,0-1.09-1.28,2.29,2.29,0,0,0-1.9,1A6.06,6.06,0,0,0,48.2,30.3a2.58,2.58,0,0,0,.33,1.56.26.26,0,0,0,.21.12.58.58,0,0,0,.25-.12,22.12,22.12,0,0,0,3.38-2.54A1.49,1.49,0,0,0,52.88,27.88Z"/><path class="cls-1" d="M58.7,22.5a2.24,2.24,0,0,0-3.2,0,3.73,3.73,0,0,0-1.29,1.67,1.56,1.56,0,0,0,1.29,1.7,2.35,2.35,0,0,0,2.27-.63,3.85,3.85,0,0,0,1.28-1.35A1.46,1.46,0,0,0,58.7,22.5Z"/><path class="cls-1" d="M61.9,18.4a2.3,2.3,0,0,0-1.53,1.1.53.53,0,0,0,0,.28,1.92,1.92,0,0,0,1.56,1.73,1.86,1.86,0,0,0,.72-.24,8,8,0,0,0,1-.64,1.06,1.06,0,0,0,0-1.58A1.52,1.52,0,0,0,61.9,18.4Z"/><path class="cls-1" d="M66.74,15.69a3,3,0,0,0-1.28.94,1,1,0,0,0,.44,1.24c.13.11.27.21.41.31a2.32,2.32,0,0,0,2.38-.83.87.87,0,0,0-.09-.87A1.56,1.56,0,0,0,66.74,15.69Z"/><path class="cls-1" d="M71.58,13.57a1.54,1.54,0,0,0-.91.64,1.21,1.21,0,0,0,1.62,1.65,1.72,1.72,0,0,0,1.2-.93C73.72,13.71,72.5,13.19,71.58,13.57Z"/><path class="cls-1" d="M75.8,12.62a.67.67,0,0,0-.21.74,1.67,1.67,0,0,0,.43.94,1.73,1.73,0,0,0,1.55,0,.93.93,0,0,0,.75-.71,1.43,1.43,0,0,0-2.16-1.19Z"/></g></g></svg>