<?xml version="1.0" encoding="utf-8"?>
<!-- Generator: Adobe Illustrator 27.9.1, SVG Export Plug-In . SVG Version: 6.00 Build 0)  -->
<svg class="v" version="1.1" xmlns="http://www.w3.org/2000/svg" xmlns:xlink="http://www.w3.org/1999/xlink" x="0px" y="0px"
	 viewBox="0 0 1900.9 2586.2" style="enable-background:new 0 0 1900.9 2586.2;" xml:space="preserve">
     $gradientDefs

	<path class="maincolor" d="M950.5,62.5C649.2,62.1,421.4,41.7,115.1,0L130,744.5c1.5,73.7-12.4,136.7-44.7,203l-63,129.2
	c-18.8,38.7-25.5,76.1-21,118.9c0,0,68.2,742.7,117.1,1127.9c13.6,107.4,133.3,220.5,214,228.4c161.3,15.6,402.2,34.3,618.1,34.3
	s456.7-18.7,618.1-34.3c80.7-7.8,200.3-121,214-228.4c49-385.2,117.1-1127.9,117.1-1127.9c4.4-42.8-2.2-80.2-21-118.9l-63-129.2
	c-32.3-66.3-46.2-129.2-44.7-203L1785.8,0C1479.6,41.7,1251.8,62.1,950.5,62.5z"/>

<path class="accentcolor" d="M174.9,2395.2L134.8,903.9c-6.6,19.3-14.5,38.1-23.6,56.4l-63.1,129.4c-16.7,33.6-21.7,66.1-18.1,103.3
	c25.4,275.4,52.8,550.7,82.1,825.7c10.7,100.4,22.4,200.7,34.9,300.9C150.7,2346.5,160.9,2372,174.9,2395.2z"/>
<path class="accentcolor" d="M1726.1,2395.2l40.1-1491.3c6.6,19.3,14.5,38.1,23.6,56.4l63.1,129.4c16.7,33.6,21.7,66.1,18.1,103.3
	c-25.4,275.4-52.8,550.7-82.1,825.7c-10.7,100.4-22.4,200.7-34.9,300.9C1750.3,2346.5,1740,2372,1726.1,2395.2z"/>

	<text  class="textcolor" transform="matrix(135.2766 0 0 157.2984 260.0555 2424.1328)" textLength="10" lengthAdjust="spacingAndGlyphs"  style="font-family:'Square721BT-BoldExtended'; font-size:1.6505px;">
		<tspan x="0" y="0">$textRef</tspan>
	</text>
 </svg>
