<?xml version="1.0" encoding="utf-8"?>
<!-- Generator: Adobe Illustrator 27.9.1, SVG Export Plug-In . SVG Version: 6.00 Build 0)  -->
<svg class="v" version="1.1" xmlns="http://www.w3.org/2000/svg" xmlns:xlink="http://www.w3.org/1999/xlink" x="0px" y="0px"
	 viewBox="0 0 1900.9 2586.2" style="enable-background:new 0 0 1900.9 2586.2;" xml:space="preserve">
     $gradientDefs

		<path class="maincolor" d="M139.1,2389.6c10.1-24.6,20.5-49.1,31.2-73.5c10-16.7,20.3-33.2,31-49.4c0.5-1,0.7-2.2,0.6-3.4
	c-1.4-5.2-2.8-10.5-4.2-15.7c-0.6-1.6-0.5-3.4,0.2-5c6.8-10.6,13.6-21.2,20.4-31.9c4.9-12.9,9.6-26,13.8-39.2
	c8.6-16.2,17.6-32.3,26.8-48.1c0.7-1,1.2-2.1,1.4-3.3c0.1-9,0.3-18,0.6-27c2.1-7.9,5.1-15.5,8.9-22.7c6.9-15.6,16-30.2,27.1-43.1
	c5.5-6.1,9.8-13.1,12.8-20.6c2.6-15,7.8-29.4,15.4-42.6c8-15.6,18.2-30,30.1-42.8c9.7-13.8,18.8-28.1,27.1-42.8
	c0.7-1,1.1-2.2,1.1-3.4l-1-25.5c-0.1-1.8,0.3-3.5,1.4-5c7.4-8.3,14.8-16.6,22.4-24.7c6.7-11.1,13.1-22.4,19.4-33.7
	c10.5-12.7,21.3-25.2,32.3-37.5c0.9-0.9,1.6-1.9,2-3.1c0.9-6.1,1.3-12.3,1.3-18.5l-0.1-1.7c0.1-1.1,0.4-2.3,1-3.3
	c14.4-21,28.5-42.2,42.2-63.6c6.6-16.8,13-33.7,19.1-50.6c0.7-1.8,2-3.4,3.6-4.4c6.6-3.2,12.9-6.8,19.1-10.7
	c8.9-11.1,17.5-22.5,25.8-34.2c0.8-0.9,1.4-2,1.8-3.2c0.5-8.3,0.8-16.6,0.9-24.9c0-1.7,1-3.2,2.5-4c8.1-4.5,16.3-9,24.5-13.3
	c1.5-0.7,2.6-2.2,2.7-3.9l-0.2-3.3c-0.2-2.8-0.3-5.7-0.3-8.5c-0.3-1.7,0.1-3.5,0.9-5c12.5-16.7,25-33.3,37.6-49.9
	c0.5-0.6,1.1-1.1,1.9-1.3l2.2-0.2c2.6-0.1,5.2-0.1,7.7,0c0.9,0.1,1.8-0.1,2.6-0.4c0.9-0.5,1.6-1.4,1.7-2.5
	c1.9-10.9,3.8-21.8,5.8-32.7c0.2-1.8,1.1-3.4,2.5-4.5c4.7-2.9,9.4-5.7,14.2-8.5c6.7-3.4,13-7.7,18.7-12.6
	c10.2-16.8,20.1-33.9,29.6-51.1c48.6-66.7,98.1-132.8,148.4-198.2c0.3-0.6,0.8-1.1,1.3-1.6c0.2-0.1,0.5-0.1,0.7,0
	c0.2,0.2,0.3,0.4,0.2,0.7c-36.2,67.9-71.5,136.3-106,205.1c-2.4,3.4-4.9,6.7-7.4,10c-14,18.5-25.5,38.8-34.2,60.4
	c-3.5,11.6-8.9,22.5-16.1,32.2c-13.9,16.2-26.2,33.7-36.8,52.2c-0.7,0.9-1.2,2.1-1.3,3.2c-0.4,9.6-0.7,19.1-0.7,28.7
	c0.2,1.7-0.3,3.5-1.4,4.9c-16.9,19.1-32,39.7-45.2,61.6c-6.3,18.5-12.5,37.1-18.6,55.7c-0.7,5.7-3.8,10.9-8.5,14.2
	c-5.4,4.4-10.2,9.4-14.4,14.9c-2.7,1.9-4.9,4.2-6.7,7c-1,1.4-1.6,3-1.8,4.7c0.1,2.3,0,4.5-0.1,6.8c0.9,6.8,1.4,13.6,1.7,20.4
	c0,0.8-0.1,1.6-0.2,2.4c-0.1,0.3-0.2,0.7-0.3,1c-0.7,1-1.3,2.1-2.1,3.1c-6.7,7.8-13.4,15.6-20,23.5c-15.2,31.8-30.7,63.5-46.3,95.1
	c-0.7,0.9-1.6,1.6-2.6,2c-3.9,1.3-7.9,2.5-11.9,3.6c-2.2,0.3-4.2,1.1-6.1,2.4c-6.1,7.3-12,14.7-17.7,22.2
	c-4.6,5.4-8.7,11.3-12.2,17.4c-1.1,7.8-2,15.7-2.7,23.6c0,1.2-0.3,2.3-0.9,3.3c-6.3,8.4-12.8,16.7-19.6,24.8
	c-1.1,1.2-1.7,2.9-1.6,4.6c0.9,3.7,1.9,7.4,2.9,11c1.4,3.3,1.6,6.9,0.5,10.3l-36.3,52.2c-5.6,13.6-10.6,27.5-15,41.5
	c-0.4,1.2-1.6,2-2.9,2c-7.3-1.2-14.6-2.5-21.9-3.9c-1.2-0.1-2.3,0.4-3.1,1.2c-5.2,7.5-10.2,15.1-15.2,22.7
	c-7.1,8.3-11.7,18.4-13.2,29.2c-2.6,20.9-8.1,41.4-16.1,60.9c-0.3,1.4-0.7,2.7-1.4,3.9c-0.5,0.7-1.2,1.2-2.1,1.4
	c-8.9,0.4-17.8,0.6-26.8,0.7c-1.4,0-2.9,0.2-4.2,0.6c-0.9,0.4-1.6,1.3-1.7,2.3c-1.8,14.3-3.7,28.7-5.8,43c-0.2,4-1.1,7.9-2.5,11.7
	c-5,7.5-10.2,14.8-15.5,22.1c-5.9,11.7-11.4,23.5-16.4,35.6l-0.7,1.7c-1,1.4-2.3,2.6-3.8,3.5c-4.1,2.9-8.4,5.6-12.7,8.1
	c-1.8,0.9-3.2,2.3-4,4.1c-1.8,11.9-3.7,23.8-5.8,35.7c-0.1,4-1.2,7.9-3,11.4c-8.6,9.3-17.1,18.7-25.5,28.1
	c-9,14.5-17.9,29.1-26.9,43.7c36.7,54.5,91.1,100,139.5,118.2c8.2-22.3,15.8-44.9,22.9-67.6l0.6-1.5l2.3-2.3
	c10.1-7,20.2-13.8,30.4-20.6c1.2-0.7,2.4-1.6,3.3-2.7c0.5-1.1,0.7-2.3,0.4-3.4c-3.7-13.7-7.3-27.3-10.9-41c-0.3-1.1-0.1-2.2,0.4-3.2
	c13.7-15.9,27.5-31.7,41.5-47.4c0.7-0.9,1.1-2.1,1.2-3.2l-0.6-3.4c-2.5-9.9-5.3-19.8-8.5-29.6c-1.5-3.8-2.2-8-1.9-12.1
	c10.5-33.8,21.1-67.6,31.9-101.4c0.3-1.1,0.6-2.2,1.1-3.3c0.2-0.4,0.5-0.7,1-0.8c0.6-0.1,1.3-0.1,1.9,0.1c2.9,1,5.8,2.1,8.6,3.4
	c1,0.5,2,0.8,3.1,1c0.9,0,1.7-0.5,2.3-1.2c11.2-17.2,22.3-34.4,33.2-51.8l51.5-45.4c1.5-1.1,1.9-3.1,1.2-4.8
	c-6.5-12.8-12.8-25.6-19-38.6c-0.6-1.3-0.1-2.7,1-3.5c14.2-7.7,28.6-15.2,43.2-22.4c1.7-1,2.8-2.6,3.3-4.5
	c3.3-12.1,6.8-24.1,10.4-36c11.7-15.2,23.5-30.5,35.3-45.6c4.3-11.3,8.5-22.6,12.4-34.1c5.2-7.2,10.7-14.1,16.6-20.7
	c6-6.2,11.3-13.1,15.8-20.4c3-14.4,6.3-28.7,9.8-43c0.3-1.5,1.4-2.8,2.9-3.3c9.2-3.1,18.4-5.9,27.7-8.6c1.6-0.7,2.9-2,3.5-3.6
	c4.1-20.9,7.7-42,10.7-63.1c4.9-14.4,10.4-28.5,16.6-42.3c0.7-1.9,2.1-3.6,3.8-4.7c11.5-5.8,23.1-11.7,34.5-17.6
	c0.7-0.5,1.2-1.1,1.5-1.9c4.9-17.2,9.6-34.4,14.1-51.7c0.2-1.2,0.8-2.3,1.6-3.2c3.9-3.8,7.8-7.4,11.9-10.9
	c9.3-7.5,18.1-15.6,26.3-24.3l19.6-43.7c9.9-23.5,22.8-45.6,38.6-65.6c8-7.7,16.4-14.9,25.4-21.4c16.1-10.6,29.5-24.9,39.1-41.6
	c3.5-12,6.6-24.1,9.4-36.4c0.8-3.9,2-7.7,3.5-11.4c13.4-13.3,27.2-26.1,41.5-38.5c9.8-8,19-16.7,27.5-26l163.1-238.3
	c0.1-0.1,0.3-0.2,0.5-0.2c0.1,0,0.1,0,0.1,0.1c0,0,0.1,0.1,0.1,0.1l-0.6,1.8c-33.6,71.8-66.8,143.7-99.7,215.8l-43.1,95.6
	c-11.1,14.3-22.4,28.5-33.9,42.4c-5.9,10.4-11.3,21.1-16.3,32c-6.2,10.6-10.3,22.3-12.1,34.4c-3.3,19.7-9.4,38.8-18.3,56.7
	c-5.2,15.7-12.6,30.5-22,44.1c-3.9,7.2-8.2,14.1-12.9,20.8c-7.8,6.1-15.6,12.1-23.4,18.1c-1.9,1.1-3.6,2.6-5,4.3
	c-16.1,31.4-31.9,63-47.5,94.7c-0.2,0.6-0.3,1.3-0.2,1.9c0,0.4,0.3,0.7,0.7,0.7l0.6-0.1c0.6-0.2,1.1-0.4,1.7-0.6l0.9-0.3
	c1.2,0.1,2.4,0.3,3.5,0.8c4.3,1.4,8.5,2.8,12.8,4.3c1.4,0.3,2.7,0.7,4,1.2c0.2,0.1,0.4,0.3,0.6,0.5c0.1,0.2,0.2,0.4,0.2,0.6
	c0,0.6-0.2,1.2-0.6,1.7c-13.4,17.9-26.5,36.1-39.3,54.4c-5,15.8-9.6,31.7-13.7,47.7c-7.3,15.2-15,30.2-23.1,45.1
	c-5.4,16.3-10.3,32.7-14.8,49.3l-0.5,1.7c-0.4,0.9-1.1,1.8-1.9,2.4c-4.6,3.1-9.3,5.9-14.1,8.6c-9,5.1-17.8,10.5-26.5,16.3
	c-0.9,0.7-1.6,1.5-2.1,2.5c-5.6,17.4-11.1,34.8-16.5,52.2c-8,13-16.3,25.7-25.1,38.2c-17.6,21.5-35.5,42.7-53.9,63.5
	c-0.9,1.1-1.3,2.5-1.1,3.9c4.8,11.9,9.7,23.8,14.7,35.7c0.5,1.4,0.1,3-1,4c-2,1.7-4.2,3.3-6.4,4.7c-12.6,8-24.9,16.6-36.8,25.6
	c-8.3,13.2-16.4,26.5-24.5,39.9c-0.6,1.2-1.5,2.3-2.6,3.2c-10,6-20.2,11.8-30.5,17.3c-14.1,7.5-28.1,15.3-41.8,23.5
	c-1.4,1-2.3,2.6-2.3,4.3l2.4,35.7c-2.2,15.6-4.8,31-7.9,46.4c0,1.2-0.4,2.3-1,3.3c-10.2,11.1-20.7,21.9-31.4,32.4
	c-11.3,14-21.7,28.8-31,44.2c-7.2,16.1-14.1,32.4-20.7,48.7l-0.6,1.6l-2.5,2.4c-14.2,10.1-28.4,20.2-42.7,30.2
	c-1.5,0.8-2.6,2.3-3,3.9c-0.7,5-1.3,10-1.8,15.1c54.1,5.1,115.9,10.4,182,15.2c7.6-24.7,17.6-48.6,29.9-71.3
	c9.1-13.4,18.7-26.6,28.5-39.5c9.3-19.7,17.8-39.8,25.4-60.2c3.4-7.9,6.2-16.1,8.4-24.5c-1.7-11.5-3.7-23-5.9-34.4l-0.4-1.8
	c-0.1-1.2,0.1-2.4,0.7-3.4c2-2.7,4.1-5.2,6.3-7.7l30.4-34.3l1.2-1.5l1-3.3c2.9-13.3,6-26.5,9-39.7c0.3-1.2,0.8-2.3,1.6-3.2
	c11.6-12.3,23.2-24.8,34.7-37.2c15.8-29.8,32.4-59.1,49.7-88c5.5-15.2,10.8-30.5,15.9-45.9c0.5-2.6,2.1-5,4.3-6.5
	c21.9-14.5,43.8-28.9,65.8-43.3c0.6-0.4,1-1,1.2-1.7l0.1-0.9l-1.7-2.2c-5.1-5.1-10.2-10.2-15.2-15.4c-0.6-0.8-0.8-2-0.5-3
	c14.8-31.2,30-62.2,45.6-93.1c7.6-8.6,15.5-16.9,23.7-24.9c2.1-1.6,3.7-3.8,4.7-6.3c1.7-8.3,3.3-16.5,4.9-24.8
	c0.1-1.2,0.6-2.3,1.3-3.3l32.4-37.4c5.6-15.7,10.9-31.5,15.9-47.3l0.5-1.7c0.4-1,1.2-1.8,2.1-2.3l3.3-1.1
	c10.9-2.9,21.8-5.7,32.7-8.5l1.7-0.5c1-0.5,1.8-1.3,2.3-2.3c6.8-21.9,13.8-43.7,21-65.4c10.2-12.6,20.6-25.1,31.1-37.5
	c12.7-24,25.3-48,37.8-72c0.3-0.4,0.7-0.8,1.2-1c0.3-0.1,0.6-0.1,0.9,0.1l1.2,1.7c1.5,3,2.9,6,4.1,9c0.2,0.5,0.6,1,1.1,1.3
	c0.3,0.2,0.6,0.2,0.9,0c0.7-0.4,1.3-0.9,1.7-1.6c16-23.9,31.9-47.9,47.6-72c1-1.6,1.9-3.2,2.7-4.9l0.2-1.7c0.2-1.7,0.3-3.3,0.4-5
	c0.1-7.3,0.7-14.6,1.9-21.8c8.1-13.5,16.6-26.7,25.3-39.8c11.7-12.2,23.6-24.2,35.8-35.9c14.9-22.6,29.7-45.2,44.5-67.9
	c55-78.5,110.3-156.8,165.9-234.8c0.1-0.1,0.2-0.1,0.3-0.1c0.1,0,0.2,0.1,0.2,0.2c0,0.5-0.1,1-0.3,1.5
	c-39.6,80.2-78.6,160.6-117.1,241.3c-4.4,16-8.8,31.9-13.4,47.8c-7.2,11.3-14.7,22.4-22.6,33.3c-7.5,13-14.2,26.4-20.1,40.2
	c-8,20.5-15.4,41.2-22.2,62.1c-0.4,1.7-1.1,3.4-2.2,4.8c-5.8,5.6-11.7,11.2-17.5,16.9c-10.9,20.8-21.4,41.8-31.6,63l-0.8,1.6
	l-0.3,3.2c0.9,11.3,1.9,22.6,2.7,33.9c0.2,1.7-0.5,3.4-1.9,4.5c-13.3,8.5-26.4,17.2-39.5,26.1c-0.9,0.8-1.4,1.9-1.5,3
	c-0.8,15-2.1,29.9-3.9,44.8c-0.1,2.9-0.7,5.7-2,8.3c-8.7,11.6-17.5,23.1-26.4,34.6c-2.5,8.7-4.9,17.5-7.1,26.3
	c-1.7,11.3-5.7,22.2-11.8,31.9c-4.7,9.5-9.7,18.9-14.9,28.1c-4.6,15.3-8.9,30.6-12.9,46c-6.2,13.7-12.9,27.1-20,40.4
	c-9.6,12.7-19.5,25.3-29.6,37.7c-7.5,13.7-14.4,27.7-20.7,41.9c-0.6,1-0.9,2.2-0.9,3.4l0.9,3.4c1.6,5.1,3.3,10.2,5.1,15.3
	c0.5,1.4,0.3,3-0.6,4.2l-31.1,37.1c-1.2,1.5-2.4,3.1-3.5,4.7c-0.6,1.6-1,3.3-1.3,5l-7.2,43.3c-0.2,1.8-1,3.5-2.2,4.7
	c-17.9,14.4-36.4,28.1-55.5,41.1c-6.3,2.8-11,8.4-12.6,15.1c-14,37-30.1,73.2-48.3,108.3c-0.6,0.8-1.4,1.4-2.3,1.7
	c-9.9,1.4-19.9,2.7-29.9,3.8c-1.2,0.2-2.3,0.8-3.1,1.8c-14,21.6-27.7,43.3-41.1,65.2l-1,1.6l-0.6,3.3c-0.8,12.9-1.5,25.7-2,38.6
	c0,1.1-0.3,2.1-0.8,3c-1.9,2.3-3.9,4.5-6,6.5c-7.9,7.8-15.8,15.5-23.8,23.2c-1.4,1.5-2.8,3-4.1,4.5l-1.3,3.3
	c-4.6,13.7-9.4,27.3-14.4,40.8c-4.5,4.9-9.2,9.5-14.2,13.8c-8.6,6.9-16.5,14.7-23.6,23.2c-6.5,11.8-13,23.5-19.6,35.2
	c41.7,2.5,84.2,4.6,126.9,6.3c2.8-7.3,5.4-14.6,8-21.9c11.8-19.8,23.7-39.6,35.8-59.2l0.5-1.6c0.1-1.1,0.1-2.2,0.1-3.3
	c-0.7-9.6-0.9-19.2-0.6-28.7c6.4-14.1,13.1-28.1,20.1-41.9c9.7-13.4,19.6-26.6,29.9-39.6c7.1-6.9,11.8-15.9,13.4-25.7
	c2.4-13.9,7.4-27.1,14.8-39.1c6.2-14,14.7-26.9,25.1-38.2c17.2-19.3,32.2-40.5,44.7-63.1c1.9-2.4,3.1-5.2,3.6-8.2
	c-0.5-10.8-1-21.5-1.5-32.3c-0.2-1.8,0.4-3.5,1.6-4.8c9.6-10.3,19.1-20.7,28.5-31.1c7.5-12.7,14.7-25.6,21.7-38.5
	c13.3-15.8,26.8-31.4,40.6-46.8c0.7-0.9,1.1-2,1.3-3.2c0.3-7.9,0.6-15.8,0.9-23.7l0.1-1.7c0.6-1.7,1.4-3.4,2.5-4.9
	c16.2-24.2,32-48.5,47.5-73.1c7.5-20.6,14.8-41.3,21.8-62.1c0.4-1.8,1.4-3.4,2.9-4.5c8.4-4,16.5-8.5,24.3-13.5
	c10.3-13.3,20.2-27,29.7-40.9c0.8-0.9,1.3-2,1.6-3.2l0.5-33.1c-0.1-1.7,0.9-3.3,2.5-4c8.6-4.3,17.2-8.6,25.8-12.7
	c1.5-0.5,2.8-1.3,4.1-2.2c0.4-0.4,0.7-0.9,0.8-1.5c0.1-1.4,0.2-2.7,0.1-4.1c-1.2-7.3-0.5-14.8,2-21.7c13.2-19.3,26.6-38.5,40.1-57.6
	c0.8-1,2.1-1.5,3.4-1.4c2.9,0.4,5.9,1,8.8,1.7c1.1,0.4,2.2,0.6,3.3,0.6c0.5,0,1-0.3,1.3-0.7c0.4-0.6,0.6-1.2,0.8-1.8
	c2.3-15.2,4.7-30.4,7.3-45.6c0.1-1.2,0.8-2.4,1.8-3.1c10.8-6.2,21.7-12.3,32.7-18.3c1.7-0.9,3.1-2.3,3.8-4.1
	c11.2-21.3,22.2-42.7,32.9-64.3l154.9-235.9c0.1-0.1,0.2-0.1,0.3-0.1c0.1,0,0.2,0.1,0.2,0.2c0.1,0.5,0,1.1-0.2,1.6
	c-2.1,5.2-4.4,10.2-6.9,15.2l-95.9,224c-2.8,7.1-6.1,14.1-9.7,20.9c-1,1-2,1.9-3.1,2.8c-0.4,0.4-0.7,0.9-0.8,1.4
	c-0.1,0.8-0.3,1.6-0.6,2.4c-4.3,7.7-9.1,15.1-14.2,22.2c-11.8,22.4-21.5,45.7-29.1,69.9c-3.2,10.8-8.7,20.7-16.3,28.9
	c-12.2,15.3-22.9,31.8-31.9,49.1c-1.6,2.5-2.9,5.3-3.9,8.1l-0.1,37.1l0.2,1.7c-0.1,1.2-0.4,2.4-1.1,3.4c-1.8,2.7-3.8,5.3-5.8,7.9
	c-15.9,19.5-30.3,40.1-43.1,61.8c-6.4,19.5-12,39.2-17,59.2c-1.2,6.3-3.1,12.4-5.5,18.3l-32.3,34.6c-0.7,0.8-1.1,1.9-1,3
	c1.3,12.2,2.5,24.4,3.5,36.6c0,1.1-0.4,2.1-1.1,2.9c-8.2,9.6-16.3,19.3-24.4,28.9c-17.3,35.8-34.4,71.8-51.2,107.9
	c-0.6,1.6-1.8,2.8-3.3,3.5c-6.5,1.4-13,3.1-19.4,5c-1.7,0.4-3.3,1.3-4.4,2.6l-28.7,36.2c-2.2,2.2-3.8,5-4.8,8
	c-0.9,7.8-1.6,15.6-2.1,23.5c0,2.9-0.6,5.7-1.7,8.3c-7.9,9.5-15.7,19.1-23.5,28.8c-0.6,0.9-0.9,2-0.7,3.1l5.5,18.7l0.5,1.8
	c0.1,1.2-0.1,2.4-0.6,3.4c-14.8,20.6-29.6,41.1-44.5,61.5c-5.9,14.9-11.2,30-16.1,45.2c-0.4,1.6-1.8,2.7-3.5,2.8
	c-9.9-1.2-19.8-2.3-29.8-3.3c-1.1,0.1-2,0.7-2.7,1.5c-10.7,14.9-21.1,30-31.3,45.4c-1.9,8.2-3.5,16.5-5.1,24.8
	c-3.1,20.9-9.1,41.2-17.6,60.5c-0.4,1-1.2,1.8-2.3,2.2c-12.7,1.5-25.5,2.9-38.2,4.3l-1.7,0.2c-1,0.2-2,0.8-2.6,1.7
	c-0.7,0.9-1.1,1.9-1.1,3c-1.1,8.2-2.1,16.3-3.1,24.5c37.4,1,74.6,1.5,111.1,1.5c27.9,0,56.3-0.3,84.9-0.9
	c3.6-8.1,7.1-16.1,10.7-24.2c13.6-18,27.4-35.8,41.4-53.4c9.2-17.5,17.8-35.2,25.7-53.2c2.1-17.3,4.7-34.6,7.6-51.7
	c0.1-0.8,0.3-1.5,0.6-2.3c0.1-0.4,0.3-0.8,0.6-1.1c1.9-2.1,3.9-4.1,6.1-6l24.2-20.2l1.6-2.9l12.8-37.5
	c17.8-27.8,33.6-56.8,47.3-86.8c2.5-11.5,4.5-23.2,6-34.9l0.2-1.7c0.5-1.6,1.6-3,3-3.8c12-5.5,23.8-11.5,35.4-17.8
	c12.6-13.9,25-27.9,37.2-42.2c0.7-0.9,1.1-2.1,1.2-3.2c-1.1-10.8-2.2-21.5-3.1-32.3c-0.1-0.9-0.1-1.8-0.1-2.7c0-0.2,0-0.5,0.1-0.7
	l1.6-3.2c9.7-17.6,19.7-35.1,29.8-52.5l2.7-2.1c8.8-4.3,17.6-8.5,26.4-12.6c1.7-0.9,3-2.5,3.5-4.4c9.7-28.4,19.5-56.8,29.3-85.1
	c41.6-61.7,83-123.6,124.1-185.6c8.8-13.5,17.8-26.9,26.9-40.1c0.1-0.1,0.2-0.1,0.2-0.1c0.1,0,0.1,0.1,0.1,0.1l-0.3,1.3l-28.3,72.4
	c-18.9,46-37.7,92.1-56.2,138.3c-12.5,34.6-27.8,68.2-45.8,100.3c-9.6,14-19.6,27.7-30,41.1l-1.3,1.5l-1.1,3.3
	c-3.1,17.8-6.6,35.5-10.4,53.1c-20.7,34.2-40.6,68.9-59.7,104.1c-4.1,6.6-7.6,13.6-10.5,20.9c-0.7,14.5-1.2,29-1.6,43.6
	c0,1.1,0,2.3-0.2,3.4c-0.1,0.4-0.4,0.8-0.8,1c-0.6,0.2-1.2,0.3-1.8,0.2c-5.6-0.8-11.2-1.9-16.7-3.3c-0.6-0.2-1.2-0.2-1.8,0l-0.7,0.6
	c-0.9,0.9-1.5,1.9-2,3c-7.3,14.5-14.7,28.9-22.3,43.3c-9.4,8.9-19,17.5-28.9,25.8c-4.2,3-7.8,6.7-10.7,11
	c-4.2,13-8.3,26.1-12.1,39.3c-3.9,13.8-8.3,27.5-13.2,41c-11.6,13.5-23,27.1-34.4,40.7c-6.4,14-12.6,28-18.6,42.2
	c-9.5,11.6-19,23.1-28.6,34.6c171.2-5.7,343.2-19.6,467.7-31.7c80.7-7.8,200.3-121,214-228.4c49-385.2,117.1-1127.9,117.1-1127.9
	c4.4-42.8-2.2-80.2-21-118.9l-63-129.2c-32.3-66.3-46.2-129.2-44.7-203L1785.8,0c-306.2,41.7-534,62.1-835.3,62.5
	C649.2,62.1,421.4,41.7,115.1,0L130,744.5c1.5,73.7-12.4,136.7-44.7,203l-63,129.2c-18.8,38.7-25.5,76.1-21,118.9
	c0,0,68.2,742.7,117.1,1127.9C121.2,2345.6,128.5,2367.9,139.1,2389.6z"/>
</svg>
