<?xml version="1.0" encoding="utf-8"?>
<!-- Generator: Adobe Illustrator 27.9.1, SVG Export Plug-In . SVG Version: 6.00 Build 0)  -->
<svg class="v" version="1.1" xmlns="http://www.w3.org/2000/svg" xmlns:xlink="http://www.w3.org/1999/xlink" x="0px" y="0px"
	 viewBox="0 0 1900.9 2586.2" style="enable-background:new 0 0 1900.9 2586.2;" xml:space="preserve">
     $gradientDefs

	<path class="maincolor" d="M950.5,62.5C649.2,62.1,421.4,41.7,115.1,0L130,744.5c1.5,73.7-12.4,136.7-44.7,203l-63,129.2
	c-18.8,38.7-25.5,76.1-21,118.9c0,0,68.2,742.7,117.1,1127.9c13.6,107.4,90.3,216.4,214,228.4c161.3,15.6,402.2,34.3,618.1,34.3
	s456.7-18.7,618.1-34.3c123.7-12,200.3-121,214-228.4c49-385.2,117.1-1127.9,117.1-1127.9c4.4-42.8-2.2-80.2-21-118.9l-63-129.2
	c-32.3-66.3-46.2-129.2-44.7-203L1785.8,0C1479.6,41.7,1251.8,62.1,950.5,62.5z M1051.2,88.4c26.2-12.2,34.2-8.2,39,19.5
	c1.9,11.2,6.5,24,20,23.7c9.3-0.2,18.1-6.5,24.1-13c3.9-4.2,9.6-6.7,15.1-5.7c17.2,3,8,34.4,26.5,13.3c6.3-7.2,13.4-12.9,21.7-17.6
	c9.8-5.5,8.1,17.7,8.4,22c0.6,9.5-1.6,18.1,11.4,13.1c4.6-1.7,9.2-3.3,13.8-5l1.5-0.5c2-0.7,3.6,1.6,2.4,3.4l-11.7,17.1l-28.8-8.2
	l17.8,24.2l-17.8,26l29-10.8l17.8,24.2v-30.8l29.6-11l-29.6-8.4v-21c0-4.6,3-8.9,7.3-10.6c13.7-5.4,27.2-12,38.2-22
	c6.2-5.7,3.7-12.3,14.9-6.7c11.3,5.7,22.1,12.2,33.2,18.1c7.9,4.1,12.8,1.5,15.3-7.4c5.1-17.7,14.1-22.8,32.1-23.2
	c23.9-0.5,44.9,9.4,66.6-10.9c1.4-1.3,2.8-2.5,4.5-3.5c15-8.7,12.9,5.2,19.9,10.7c2.7,2.1,6.5,2.2,10.1,2.1
	c20-0.9,29.9-8.4,47.9-14.8c7.5-2.7,15.9-3.2,22.7,0.5c3,1.6,5.6,3.9,8.9,4.7c9.3,2.1,14.2-16.5,24.3-9.5
	c21.3,14.9,17.9,62.8,17.1,87c-1,31.3-7,63.5-15.4,93.3c-1.9,6.8,0,10.1,5.4,13.7c16.3,10.7,16,19.5-0.3,31.3
	c-1.9,1.4-3.9,2.7-5.7,4.1c-19,14.4-20.8,32.5-4.9,48.8c20.9,21.4,6,29.5-2,54.3c-4.8,15,1.2,30.2-2.1,45.4
	c-3.3,15.2-4.5,19.6,3.7,33.7c8.1,14.1,3.9,27.7,6.8,42.7c2.8,14.5,9.4,26.4,10.1,42c1.3,29.6-6.3,59.1-6.1,88.7
	c0.1,19-0.2,38-4.9,57c-2.6,10.5-2.4,21.9,1.5,32.7c7.3,20,0.8,40.9-0.5,61.4c-2.6,42.5-3.1,84.7,2,126.6c1.5,12.6-6.8,22.7-5.1,35
	c0.7,5.4,3.5,10.2,4.7,15.5c2.7,11.8-9.4,25-18.4,31.8c-10.3,7.9-24.5,5.9-33.8,12.1c-2.5,1.7-5.1,3.4-7.7,5
	c-3.3,2.1-7.5-0.2-7.5-4.1v-9.7l29.6-11l-29.6-8.4v-31.4l-18,26.3l-28.8-8.2l17.8,24.2l-17.8,26l29-10.8l6,8.1
	c2.6,3.6,2.7,8.5,0.2,12.5c-3.1,5-6.3,11.7-8.2,14.3c-4.8,6.4-9.9,12.3-16.4,17.2c-14.1,10.7-21,18.9-38.7,24.7
	c-7.5,2.5-29.6,14.3-36.8,9.3c-2-1.4-3.3-3.5-5.1-5.2c-0.3-0.3-0.6-0.5-0.9-0.8c-7.3-5.6-18.3-2.7-27.9-1.2c-13.5,2-29-1.3-42.9-0.9
	c-16,0.4-31.9-0.3-47.8-1c-31.8-1.3-63.8-2.2-95.2,6.2c-38.4,10.3-77.4,15.6-116.9,17.4c-12.1,0.5-24.3,1.3-36.3-0.2
	c-11.9-1.6-21-7.5-31.9-10.7c-21.8-6.3-51.7-5-73.2,4c-9.5,3.9-22.7,8.7-32.8,8.4c-25.3-0.7-19.2-36.5-21.5-54.4
	c-2.2-16.7-3.4-33.6-6.8-50.1c-1.1-5.5,1.2-12.1,2.6-18c14.5-59.3,2.4-122.1-2-181.1c-4.8-64.7-8.1-129.8-4.6-195.1
	c2-38.3,1.7-76.4-3-114.2c-1.4-11.5-2.1-25.5,2.7-36.6c3.7-8.5,10.5-13.6,11.8-23.6c1-7.9-0.2-15.7-0.8-23.6
	c-1.4-17.9,1.9-35.8,1.4-53.5c-0.6-19.8,5.2-39.5,4.8-59c-0.4-19.8-4.1-41.1-8.6-60.1c-4.8-20.1-1.2-40.3-3.4-60.7
	c-2.7-25.6,5.3-50.9,3.4-76.5c-0.7-10.2,7.3-16.6,16.7-20.3c16.5-6.4,32.4-3.9,48.2,0.8c20.7,6.1,41.5,11,63.8,5.2
	c10.1-2.6,19.9-6,29.5-10.4C1040.8,93.5,1046,90.9,1051.2,88.4z M990.2,2552.4c-2.6,10.6-17.2,50.3-25.1,20.1
	c-4.7-18-21.7-25-34.8-35.7c-17.2-14.1-20-35.3-14.2-57.2c4.1-15.6,1.9-29.5-3.3-43.4c-6.9-18.6-15.2-36.8-10-58.3
	c2.1-8.7,5.2-17,8.9-25.1c5.3-11.3,1.4-23.9-9.4-28.7c-5.3-2.3-8.1-5.9-10-11.1c-6.2-16.3-8.2-33.5-9.5-51.1
	c-2-26.9,0.5-57.3,7-83.9c5.7-23.4,8-42.1,8-65.7c0-31.8,6.3-73.6-9.7-101.6c-3.6-6.3-2.8-14-2.9-21.2
	c-0.5-51.5-0.8-103.1-1.6-154.6c-0.9-58.7-0.4-117.5,0.5-176.3c0.4-29.4,1-58.8,1.6-88.2c0.5-24.8,10.5-46.4,10.9-71.8
	c0.5-35.6,7.3-78.7-3.2-112.5c-7.3-23.5-7.7-43.6-7.5-68.3c0.1-28.2,4.4-58.9,0.4-86.3c-1.1-7.6-0.1-17,6.7-20.9
	c3.2-1.8,6.9-2,10.5-2.3c8.1-0.6,15.8-2.5,22.1-8.1c5.2-4.6,8.2-16.2,16.7-14.7c5.4,1,9,5,10.9,10.2c4.2,11.2,14.9,14.6,26.4,8.5
	c16.6-8.9,24.4-4.1,24.8,14.8c0.2,10.7,0,21.2-0.5,31.7c-1.3,24.7-4.5,49-7.7,74.3c-1.4,10.6-2.7,21.3-6.1,31.5
	c-3.1,9.6,0.3,15.8,2.4,24.6c2.5,10.5,0.4,19.6-0.5,30.4c-1.3,14.9,2.8,29.1,4.7,43.6c1.9,14.1,0.9,28.6,1.3,42.9
	c1,33.8,0.6,67.7,1,101.6c0.1,8.9-1,17.3-5.2,25.7c-8.4,16.7-10.9,34.8-4.4,51.3c11.2,28.5,9.6,62.8,10.3,93.4
	c0.8,35.8-1.2,71.7-2.4,107.5c-0.6,17.9,3.6,36.3-3.8,54.4c-3.2,7.8,4.7,14.3,3,23.1c-1.6,8.6-4.1,17.1-5.2,25.7
	c-4.3,33-6.9,66.1-3,99c0.9,7.8,3,15.5,4.8,23.2c6.8,27.7,2,56.2,1.4,84.3c-0.3,11.8-1.8,23.6-2,35.4c-0.2,11.1,3.3,20.1,4.6,31.1
	c1.6,13.6,1.2,29.2-1.1,42.9c-3.3,19.1-6.5,32-0.7,49.9c6.1,18.8,5.4,38.5,3.9,58.3c-1.2,16.1-2.1,32.1-0.4,48
	c0.5,4.4,0.5,9.5-1.1,13.6C986.9,2495.2,997.2,2523.7,990.2,2552.4z M1205.1,2316.2c-13.5,47.9-8,95.1-9.1,142.6
	c-0.5,19.1-4.1,38.6-9.5,57.2c-0.8,2.6-1.7,5.3-3.7,7.1c-6.9,5.9-8.1-4.4-8.5-8.4c-3.1-29.4-53.9,10.3-62.2,19.1
	c-8.4,8.9-14,21.4-11.5,33c0.5,2.3,1.2,5,1.3,7.4c0.4,15.5-12.7,0.6-14.7-4.7c-3.8-9.9-1.8-22.3-2.7-32.8
	c-2.9-33.8-5.3-67.7-6.7-101.6c-1.4-32.8-0.7-65.3-0.7-98.2c0.3-18.8-0.4-37.4,4.9-55.9c5.4-18.8,4.8-38,4.3-56.7
	c-1.6-58,1.6-116.1,4.4-174.2c0.6-12-1.3-23.6-4.1-34.9c-6.8-27.2-8.4-55.7-3.2-83.9c1.1-5.9,3.4-12,3.1-18
	c-0.3-6.5-3.7-12.5-0.9-19.1c3.3-7.9,5.4-16.2,4.5-24.4c-3.2-27.7,2.2-57.5,4.3-85.5c2.9-38,8.9-77,1.9-114.2
	c-6.3-33.4-14.9-67.5-14.6-102c0.1-8,4.7-13.3,6.4-20.7c2.4-9.9,3.2-20.5,4.2-30.6c2.1-20.4,2.8-40.9,2.1-61.3
	c-1.1-31.8-1.7-63.9-6.7-95.2c-2.4-15.2-0.7-28.7,1.8-43.4c6.8-39.8-10.2-78.9,8.8-117.9c7.1-14.5,14-16.2,25.5-5.9
	c3.8,3.4,7.8,2.1,11.8,1.7c13.8-1.3,27.4-2.2,40.9,1.2c7.6,1.9,12,5.8,13.8,14c9.4,44,4.9,90.5,4.5,135.6
	c-0.4,46.1-0.3,93.3,0.6,138.7c1,50.6,7.3,100.7,8.1,151.3c0.8,51.5,0,103.1,0.1,154.7c0.1,44.4-0.9,88.9,1.6,133.1
	c1.1,19.5,6.3,39.8,4.5,59.1c-2.1,22.2-6.5,43.9-6.9,66.2c-0.2,12.5,0.2,25.2,2.3,37.5c2.1,12.4-0.5,20.9-0.9,33.4
	C1201.8,2184.4,1223.3,2251.8,1205.1,2316.2z M1385.3,2195c7.9,18.4,8,43.6,8.6,63.6c0.3,12.2,0.4,25.1-2.4,37.2
	c-0.9,4-2,9.3-4.8,12.6c-4.7,5.4-11.8,3.3-16,9.4c-2.7,3.9-3.4,8.6-4.1,13.2c-6.3,41.2-5.5,84.4-21.5,123.9
	c-1.5,3.8-1.6,9.6-6.2,10.5c-5.4,1-5.5-5.2-7.3-8.5c-4.7-8.9-13.2-14-20.1-20.8c-7.3-7.2-9.8-14.4-9.9-24.5
	c-0.1-8.7-1.1-16.6-9.2-21.5c-2.5-1.5-5.6-2.7-6.6-5.5c-0.9-2.6,0.4-5.5,1.7-8.1c4.6-9.1,11.1-18.4,12.2-28.4
	c1.1-10.3-2.2-20.6-5.7-29.9c-6.5-17.4-8.4-36.1,0.7-54.5c1.9-3.8,0.1-6.6-1-9.7c-4.2-12.3-3.6-27.2-6.2-40.2
	c-3.4-16.7-6.1-33.5-7-50.7c-0.6-13-0.2-26.1,2-39c2-11.8,8.1-18,12.5-28.8c2.4-5.9,3.8-11.2,2.8-17.6c-1.3-8.5-1-17.5-0.8-26.3
	c0.9-33.9-1.1-69.7-8.5-102.4c-7.4-32.5-8.2-62.8-4.3-96.5c2.4-20.6,5.5-41.2,6.7-61.9c0.6-10.5-0.2-20.9-0.4-31.4
	c-0.1-8.3-3.2-20.4,1.7-27.9c1.5-2.3,3.8-4.1,5.8-6.1c2-2,3.9-4.3,4.3-7c0.7-4.6-5.6-11.1-7.3-15.2c-2.6-6.6-3.9-13.7-4.6-20.8
	c-1.3-13.1-0.2-26.5-1.3-39.7c-2.2-26.9,0.4-54.2,1.4-81.4c0.4-10,2.2-19.5,8-28.5c11.6-18-2-27-3.4-43.8c-0.2-2.8,0.2-5.7,0.7-8.5
	c4.4-25.3,8.6-49.5,8.5-75.1c-0.1-24.5-2.1-49.7-1.2-73.8c0.8-22.1-1-44.2-1.5-66.3c-0.3-20.7,4.3-41.7,4.7-62.6
	c0.1-5,0.2-10.2,2.5-14.8c2.9-5.6,8.9-9.2,15-10.7c8.9-2.1,19.4-1.3,28.5-1c10,0.3,19.7-0.8,29.5-3.2c19.6-4.8,32.4,3.1,32.6,23
	c0.2,25,3.2,50.9,0.4,75.6c-3.2,28.5-8.3,56.7-10.4,85.4c-4.3,57.1-3.4,114.3,2.8,170.6c2.4,21.7,8.2,43.7,9.2,65.5
	c1,22.3-2.3,45.7-2.4,68.2c-0.3,54.5-5.4,112.1,0.7,165.8c4.3,38.3,15.4,91.2-12.4,125.2c-4.1,5-2.1,11.9-0.6,17.8
	c4.3,16.8,4.4,33.8,0,51c-2.3,8.7-1.9,15.9,7,21.1c8.2,4.8,12,13.6,12.2,23c0.5,22.1,0.8,44.8-0.5,66.9
	c-0.9,14.8-7.4,31.4-21.4,36.6c-4.1,1.5-8.7,2-12.1,4.9C1380.8,2178.4,1382.3,2188,1385.3,2195z M1488,1155.6
	c9.2-17.2,35.2-38.6,54.8-41.3c21.9-3,35.1,2.1,43.5,22.1c3.9,9.5,6.5,19.7,4.2,30c-7.3,33.4-5.8,66.4-4.6,100
	c1.4,39.7-0.8,79.1-1.6,118.6c-0.7,38,3.2,70.6-9.7,108.4c-4.1,12-9.3,24.1-9.1,36.5c0.3,18.2,2,29.8-2.1,47.7
	c-3.9,17.3-2.6,34.7,6.3,49.7c4.6,7.8,5.2,17.2,5.4,26.4c0,19.1,4.3,39.7-0.8,58.6c-4.3,16.2-9.3,30.8-12,47.7
	c-4.1,25.8-12.9,54.9-12.2,80.7c0.4,15.5-1.4,42.1,9.2,53.4c7.1,7.6,7.9,18.5,5.7,29.1c-3.8,18.5-8.9,36.8-4.4,55.6
	c2.2,9.1-7.1,13.3-6.6,21.9c0.3,4.4,2.1,8.5,3.3,12.7c2,6.8,2.3,14.1,2.2,21.3c-0.3,21.5-10,105.9-42.5,103.5
	c-10.6-0.8-6.8,111.4-16.7,118.8c-0.6,0.4-1.2,0.8-1.9,1c-4,1.2-8.7-2.1-10.8-6c-7.3-13.6-11.9-26-12.4-41.9
	c-1-27.1-8.8-50-10.5-76.7c-1.8-26.8,2.8-53.8,3.6-80.7c1.1-40.4-3.2-81.8-7.5-121.8c-3.2-29.9-1.2-60.5,4.6-90.4
	c4-20.8,16.7-44.1,17.1-64.9c0.3-19.1-6.3-29.7-10-47.5c-3.5-16.7-1.9-34.6,0.5-51.6c11.5-82.8-1.9-164.7,7.1-247.1
	c3.5-31.7-1.5-57.9-4.1-89.1c-4.4-53.2-8.4-111.8,5-164.8C1482.7,1168.6,1484.7,1161.8,1488,1155.6z M401.1,2155.4
	c-0.9,3.3-2.6,5.9-5.2,7.3c-4.1,2-9.5,0.4-11.9-3.5c-1.5-2.5-1.7-5.4-2.5-8.2c-1.4-4.6-4.6-8.5-7.3-12.5
	c-13.8-20.8-13.9-54.6-7.2-78c4.4-15.2-3.8-25.2-9.1-38.2c-5-12.4-5.6-26.3-5.2-39.4c0.6-18.2,3-36.7-1.4-54.3
	c-6.2-24.6-19.6-43.1-19.3-69.2c0.3-28.3-1.1-62.2,7-89.3c6.1-20.1,7.1-36.5,7.4-57.2c0.3-20.1,0.1-40.1,0.1-60.2
	c0-17.8-0.9-22.1-11.4-35.9c-4.9-6.5-5.8-15.2-6.3-23.4c-2.4-38.2-2.3-76.8,2.1-114.8c2.6-22.9,1.2-45.7-1.4-68.6
	c-4.1-34.9-2-70.1-0.3-105.1c1.9-38.4-10.1-75.2-10.7-113.9c-0.5-38.6,1-77.9-13.4-114.5c-11.9-30.1-9.3-60.1-3.6-91.1
	c5.8-31.5,5.7-63.9,0.7-95.5c-7.3-46.7-6-94.6-7-141.9c-1-49.9-1.2-99.9,2.3-149.7c0.5-6.9,0.9-13.6,3.6-20.1
	c8.8-21,7.4-41.8-2.3-62.1c-2.5-5.3-3.9-10.6-3.9-16.5c0-41.2-1.5-82.5,0.4-123.6c1.2-27.6,7-53.9,4.2-81.5
	c-3.7-36.3-2.9-72.9-2.4-109.2c0.2-15.4-0.6-30.7-0.9-46.1c-0.4-16.7-4-38.2,0.2-54.2c3.9-14.6,21.3-24.1,35.4-26.6
	c5.6-1,12.1,0.8,14.9,5.7c4.3,7.2-2.6,21.1,6.3,25.5c4.2,2.1,9.6-0.1,12.7-3.6c3.2-3.5,4.8-8.1,7-12.3c2.2-4.2,5.2-8.4,9.7-9.9
	c15.9-5.2,22.4,21.7,21.8,31.8c-1,15.3-8.9,29.3-11.8,44.2c-4.2,21.8-0.4,43.7,4.1,65.1c4,19.1,4.6,39.2,5.9,58.9
	c2.8,42.9,3.2,85.9,2,128.9c-1.8,68.7-2.5,137.5-2.9,206.2c-0.9,188.2-3.3,376.6,2,564.8c0.7,22.4,4.1,45.5,2.6,67.1
	c-4,58-1.2,115.9-2.2,173.8c-1.1,63.3-0.3,126.7-0.3,190.1c13.2,28-2,55.5-1.7,83.4c1.1,73.8,1.1,148-3.3,221.7
	c-3.4,57.2,0.4,113.6,0.3,170.8c0,18.4,0.7,36.8,1.4,55.2C401,2132,403.7,2146.3,401.1,2155.4z M596.6,2454
	c-2.6,26.6-30.1,36.9-34.8,61.3c0.8-4-7.9-17.1-9.5-21.4c-3.1-7.9-5.7-16-7.9-24.1c-4.4-16.2-7.1-32.7-8.6-49.4
	c-2.9-31.7-0.6-63.1,0.5-94.8c-4.3-1.1-7.5,4.1-7.8,8.5c-0.4,4.4,0.4,9.3-2.4,12.7c-4.1,4.9-12.8,2.3-15.9-3.3
	c-7.6-13.4-0.9-38.8-1.2-53.5c-0.4-19-2.4-38,0.3-56.9c0.6-4.1-1-6.8,2.7-11.4c12.2-15.2-0.6-24.4-13.2-30
	c-15.1-6.7-19.1-22.3-20.5-39c-1.9-22.1-1.7-44.4-1.4-66.6c0.2-14,4.6-26.5,16.4-35c7.2-5.2,4.7-12.2,3.4-17.6
	c-5.4-22.1,2.3-42.6-0.6-63.7c-2.7-19.5-8.7-39.3-10.8-59.5c-4.8-45.4-5.6-91.3-2.5-136.9c4.2-61.9,1.8-125.8,0-188.1
	c-1.4-50,10.8-101.6,12.6-152.1c1.6-43.4,7.4-88.7,1.6-131.8c-6-44.8-5.4-89.9-3.6-135c2.1-51.2,1.7-102.5,1.3-153.8
	c-0.5-58.3-2.9-116.6,2.4-174.6c0.6-6.1,1.1-12.2,1.7-18.3c6.6-71.2-6.6-141-0.2-212.6c1.9-21.7,8-43.8,6.5-65.7
	c-1.3-19-9.4-37-11.1-56.3c-3.7-40.6,3.8-82.2,5.7-122.1c0.6-12.7-0.2-24.5-4.7-36.9c-5.3-14.7-1.2-31-2.1-46.6
	c-0.9-16.3-0.7-32.8-0.1-49.1c1-26,2-52.6,13.5-76.5c5.7-11.9,10.5-23.5,6-36.3c-4.1-11.5-15.3-22.6-5.9-35.2
	c11.4-15.1,31.1,13,33.4,22.2c3,11.7-0.3,24.1,4.2,35c1.1,2.6,15.1,21.4,18.4,17.4c9.5-11.4,13-19.2,13.6-32.6
	c5.1,4,23.8,17.2,24.3,23.8c0.3,3.5-1.3,6.8-2.6,10.1c-6.1,15.7-5.4,32.8,0.6,48.4c4.1,10.8,4.9,22.3,4.9,33.8
	c-0.1,135.5-1.1,271.1,2,406.6c1.1,49.9-9.9,99.7-3.8,149.5c3,24.7-3.2,47.1-3.9,71.5c-0.7,23.9,3.9,47.6,3.8,71.6
	c0,17.8-0.6,35.5-0.9,53.2c-0.2,13.7,4.1,34.7,0.3,47.6c-11.6,39.6-0.3,79.6-1,119.5c-0.9,44.9-1,89.8,1.5,134.6
	c1.1,20.2,4.5,37.8,1.4,58.1c-3,19.8-8.2,39.2-10,59.2c-2.1,22.7,0.1,45.4,4.3,67.7c3.9,20.6,14.2,42.5,15,63.2
	c1.1,25.5,0.2,51.1-1.2,76.6c0,18.1-2.1,36-5.6,53.7c-3.2,15.9-1,31.7,0.2,48.2c3,41.8,6,83.5,9,125.3c1.5,20.3,5.5,42.1,4.4,62.3
	c-0.8,14.2-7,28.3-9.2,42.6c-9,58.5-13.1,113.8,1.1,171.7c5.4,22.3,10.5,45.5,8.1,68.6c-3.8,35.9-15.9,69.7-11.6,106.4
	c1.7,14.2,5.2,28.7,2,42.6c-2.2,9.7-7.5,18.3-10.5,27.8c-5.4,17.3,5.2,24.4,11.6,38.3c2.3,5,2.9,11.2,0,16c-2.5,4.2-7.2,6.6-10,10.6
	C596.3,2439.1,597.3,2446.9,596.6,2454z"/>
<polygon class="maincolor" points="958.5,146.4 940.5,172.7 911.7,164.5 929.5,188.7 911.7,214.7 940.7,203.9 958.5,228.1 958.5,197.3 
	988.1,186.3 958.5,177.8 "/>
<polygon class="maincolor" points="1099.8,139.4 1081.8,165.7 1053,157.5 1070.8,181.7 1053,207.7 1082,196.9 1099.8,221.1 1099.8,190.3 
	1129.4,179.3 1099.8,170.8 "/>
<polygon class="maincolor" points="1364.8,182.9 1382.6,207.1 1382.6,176.3 1412.3,165.3 1382.6,156.8 1382.6,125.4 1364.6,151.7 
	1335.8,143.5 1353.6,167.7 1335.8,193.7 "/>
<polygon class="maincolor" points="1524.1,118.4 1506.1,144.7 1477.3,136.5 1495.1,160.7 1477.3,186.7 1506.3,175.9 1524.1,200.1 
	1524.1,169.3 1553.8,158.3 1524.1,149.8 "/>
<polygon class="maincolor" points="1023.4,229.5 1005.3,255.8 976.6,247.6 994.4,271.8 976.6,297.8 1005.6,287 1023.4,311.2 1023.4,280.4 
	1053,269.4 1023.4,260.9 "/>
<polygon class="maincolor" points="1164.9,222.5 1146.9,248.8 1118.1,240.6 1135.9,264.8 1118.1,290.8 1147.1,280 1164.9,304.2 
	1164.9,273.4 1194.5,262.4 1164.9,253.9 "/>
<polygon class="maincolor" points="1306.2,215.5 1288.2,241.8 1259.4,233.6 1277.2,257.8 1259.4,283.8 1288.4,273 1306.2,297.2 
	1306.2,266.4 1335.8,255.4 1306.2,246.9 "/>
<polygon class="maincolor" points="1447.7,208.5 1429.7,234.8 1400.9,226.6 1418.7,250.8 1400.9,276.8 1429.9,266 1447.7,290.2 
	1447.7,259.4 1477.3,248.4 1447.7,239.9 "/>
<polygon class="maincolor" points="958.5,319 940.5,345.3 911.7,337.1 929.5,361.3 911.7,387.3 940.7,376.5 958.5,400.7 958.5,369.9 
	988.1,358.9 958.5,350.5 "/>
<polygon class="maincolor" points="1099.8,312 1081.8,338.3 1053,330.1 1070.8,354.3 1053,380.3 1082,369.5 1099.8,393.7 1099.8,362.9 
	1129.4,351.9 1099.8,343.5 "/>
<polygon class="maincolor" points="1241.3,305 1223.3,331.3 1194.5,323.1 1212.3,347.3 1194.5,373.3 1223.5,362.5 1241.3,386.7 
	1241.3,355.9 1270.9,344.9 1241.3,336.5 "/>
<polygon class="maincolor" points="1382.6,298 1364.6,324.3 1335.8,316.1 1353.6,340.3 1335.8,366.3 1364.8,355.5 1382.6,379.7 
	1382.6,348.9 1412.3,337.9 1382.6,329.5 "/>
<polygon class="maincolor" points="1524.1,291 1506.1,317.3 1477.3,309.1 1495.1,333.3 1477.3,359.3 1506.3,348.5 1524.1,372.7 
	1524.1,341.9 1553.8,330.9 1524.1,322.5 "/>
<polygon class="maincolor" points="1023.4,399.3 1005.3,425.6 976.6,417.3 994.4,441.5 976.6,467.5 1005.6,456.7 1023.4,481 1023.4,450.1 
	1053,439.1 1023.4,430.7 "/>
<polygon class="maincolor" points="1164.9,392.3 1146.9,418.5 1118.1,410.3 1135.9,434.5 1118.1,460.5 1147.1,449.7 1164.9,474 
	1164.9,443.1 1194.5,432.1 1164.9,423.7 "/>
<polygon class="maincolor" points="1306.2,385.3 1288.2,411.6 1259.4,403.4 1277.2,427.6 1259.4,453.5 1288.4,442.7 1306.2,467 
	1306.2,436.1 1335.8,425.1 1306.2,416.7 "/>
<polygon class="maincolor" points="1447.7,378.3 1429.7,404.6 1400.9,396.4 1418.7,420.6 1400.9,446.5 1429.9,435.7 1447.7,460 
	1447.7,429.1 1477.3,418.1 1447.7,409.7 "/>
<polygon class="maincolor" points="958.5,486.6 940.5,512.8 911.7,504.6 929.5,528.8 911.7,554.8 940.7,544 958.5,568.3 958.5,537.4 
	988.1,526.4 958.5,518 "/>
<polygon class="maincolor" points="1099.8,479.6 1081.8,505.8 1053,497.6 1070.8,521.8 1053,547.8 1082,537 1099.8,561.3 1099.8,530.4 
	1129.4,519.4 1099.8,511 "/>
<polygon class="maincolor" points="1241.3,472.6 1223.3,498.8 1194.5,490.6 1212.3,514.8 1194.5,540.8 1223.5,530 1241.3,554.3 
	1241.3,523.4 1270.9,512.4 1241.3,504 "/>
<polygon class="maincolor" points="1382.6,465.6 1364.6,491.9 1335.8,483.7 1353.6,507.9 1335.8,533.8 1364.8,523 1382.6,547.3 
	1382.6,516.4 1412.3,505.4 1382.6,497 "/>
<polygon class="maincolor" points="1524.1,458.6 1506.1,484.9 1477.3,476.7 1495.1,500.9 1477.3,526.8 1506.3,516 1524.1,540.3 
	1524.1,509.4 1553.8,498.4 1524.1,490 "/>
<polygon class="maincolor" points="1023.4,569.7 1005.3,595.9 976.6,587.7 994.4,611.9 976.6,637.9 1005.6,627.1 1023.4,651.4 
	1023.4,620.5 1053,609.5 1023.4,601.1 "/>
<polygon class="maincolor" points="1164.9,562.7 1146.9,588.9 1118.1,580.7 1135.9,604.9 1118.1,630.9 1147.1,620.1 1164.9,644.4 
	1164.9,613.5 1194.5,602.5 1164.9,594.1 "/>
<polygon class="maincolor" points="1306.2,555.7 1288.2,582 1259.4,573.7 1277.2,597.9 1259.4,623.9 1288.4,613.1 1306.2,637.4 
	1306.2,606.5 1335.8,595.5 1306.2,587.1 "/>
<polygon class="maincolor" points="1447.7,548.7 1429.7,574.9 1400.9,566.7 1418.7,590.9 1400.9,616.9 1429.9,606.1 1447.7,630.4 
	1447.7,599.5 1477.3,588.5 1447.7,580.1 "/>
<polygon class="maincolor" points="958.5,657.3 940.5,683.6 911.7,675.4 929.5,699.6 911.7,725.5 940.7,714.7 958.5,739 958.5,708.1 
	988.1,697.1 958.5,688.7 "/>
<polygon class="maincolor" points="1099.8,650.3 1081.8,676.6 1053,668.4 1070.8,692.6 1053,718.5 1082,707.8 1099.8,732 1099.8,701.1 
	1129.4,690.1 1099.8,681.7 "/>
<polygon class="maincolor" points="1241.3,643.3 1223.3,669.6 1194.5,661.4 1212.3,685.6 1194.5,711.5 1223.5,700.8 1241.3,725 
	1241.3,694.1 1270.9,683.1 1241.3,674.7 "/>
<polygon class="maincolor" points="1382.6,636.3 1364.6,662.6 1335.8,654.4 1353.6,678.6 1335.8,704.5 1364.8,693.8 1382.6,718 
	1382.6,687.1 1412.3,676.1 1382.6,667.7 "/>
<polygon class="maincolor" points="1524.1,629.3 1506.1,655.6 1477.3,647.4 1495.1,671.6 1477.3,697.5 1506.3,686.8 1524.1,711 
	1524.1,680.1 1553.8,669.1 1524.1,660.7 "/>
<polygon class="maincolor" points="1023.4,740.4 1005.3,766.7 976.6,758.5 994.4,782.7 976.6,808.6 1005.6,797.8 1023.4,822.1 
	1023.4,791.2 1053,780.2 1023.4,771.8 "/>
<polygon class="maincolor" points="1164.9,733.4 1146.9,759.7 1118.1,751.5 1135.9,775.7 1118.1,801.6 1147.1,790.8 1164.9,815.1 
	1164.9,784.2 1194.5,773.2 1164.9,764.8 "/>
<polygon class="maincolor" points="1306.2,726.4 1288.2,752.7 1259.4,744.5 1277.2,768.7 1259.4,794.6 1288.4,783.9 1306.2,808.1 
	1306.2,777.2 1335.8,766.2 1306.2,757.8 "/>
<polygon class="maincolor" points="1447.7,719.4 1429.7,745.7 1400.9,737.5 1418.7,761.7 1400.9,787.6 1429.9,776.9 1447.7,801.1 
	1447.7,770.2 1477.3,759.2 1447.7,750.8 "/>
<polygon class="maincolor" points="1524.1,795.9 1506.1,822.1 1477.3,813.9 1495.1,838.1 1477.3,864.1 1506.3,853.3 1524.1,877.5 
	1524.1,846.7 1553.8,835.7 1524.1,827.3 "/>
<polygon class="maincolor" points="1023.4,906.9 1005.3,933.2 976.6,925 994.4,949.2 976.6,975.2 1005.6,964.4 1023.4,988.6 1023.4,957.8 
	1053,946.8 1023.4,938.4 "/>
<polygon class="maincolor" points="1164.9,899.9 1146.9,926.2 1118.1,918 1135.9,942.2 1118.1,968.2 1147.1,957.4 1164.9,981.6 
	1164.9,950.8 1194.5,939.8 1164.9,931.4 "/>
<polygon class="maincolor" points="1306.2,892.9 1288.2,919.2 1259.4,911 1277.2,935.2 1259.4,961.2 1288.4,950.4 1306.2,974.6 
	1306.2,943.8 1335.8,932.8 1306.2,924.4 "/>
<polygon class="maincolor" points="1447.7,885.9 1429.7,912.2 1400.9,904 1418.7,928.2 1400.9,954.2 1429.9,943.4 1447.7,967.6 
	1447.7,936.8 1477.3,925.8 1447.7,917.4 "/>
<polygon class="maincolor" points="958.5,995.5 940.5,1021.8 911.7,1013.6 929.5,1037.8 911.7,1063.8 940.7,1053 958.5,1077.2 
	958.5,1046.4 988.1,1035.4 958.5,1026.9 "/>
<polygon class="maincolor" points="1099.8,988.5 1081.8,1014.8 1053,1006.6 1070.8,1030.8 1053,1056.8 1082,1046 1099.8,1070.2 
	1099.8,1039.4 1129.4,1028.4 1099.8,1019.9 "/>
<polygon class="maincolor" points="1241.3,981.5 1223.3,1007.8 1194.5,999.6 1212.3,1023.8 1194.5,1049.8 1223.5,1039 1241.3,1063.2 
	1241.3,1032.4 1270.9,1021.4 1241.3,1012.9 "/>
<polygon class="maincolor" points="1382.6,974.5 1364.6,1000.8 1335.8,992.6 1353.6,1016.8 1335.8,1042.8 1364.8,1032 1382.6,1056.2 
	1382.6,1025.4 1412.3,1014.4 1382.6,1005.9 "/>
<polygon class="maincolor" points="1382.6,884.5 1382.6,853.7 1412.3,842.7 1382.6,834.3 1382.6,802.9 1364.6,829.1 1335.8,820.9 
	1353.6,845.1 1335.8,871.1 1364.8,860.3 "/>
<polygon class="maincolor" points="1241.3,891.5 1241.3,860.7 1270.9,849.7 1241.3,841.3 1241.3,809.8 1223.3,836.1 1194.5,827.9 
	1212.3,852.1 1194.5,878.1 1223.5,867.3 "/>
<polygon class="maincolor" points="1099.8,898.5 1099.8,867.7 1129.4,856.7 1099.8,848.3 1099.8,816.9 1081.8,843.1 1053,834.9 
	1070.8,859.1 1053,885.1 1082,874.3 "/>
<polygon class="maincolor" points="940.7,881.3 958.5,905.5 958.5,874.7 988.1,863.7 958.5,855.3 958.5,823.8 940.5,850.1 911.7,841.9 
	929.5,866.1 911.7,892.1 "/>
<path class="accentcolor" d="M778.7,2547.3c-9-0.4-11-18.8-15.5-25.1c-5.9-8.1-14.4-13.2-24.1-15.4c-7.3-1.7-11.1-9.3-13.2-16.3
	c-5.5-18.5-6.6-33.3-3.4-52.2c2.9-17.2-2.9-33-8.6-49c-8.4-23.6-9.3-46.8,2.9-69.2c5.2-9.7,2.8-24.3-6.3-28.5
	c-12.9-5.9-15-17.1-18-28.4c-9.4-36.1-6.3-78.3,2-114.3c2.9-12.7,8.9-23.7,8.7-36.5c-0.2-15.3-0.9-30.6-0.2-45.9
	c0.8-18.4,1.7-35.8-1.3-54.1c-3.2-19.2-10.8-35.8-11.2-55.4c-2.1-100.4-3-200.8-2.3-301.2c0.3-42.4-3.2-88.5,6.2-130
	c3.8-16.7,10.4-33.6,8.9-51c-1.4-16.6-1.3-33.1-1.2-49.9c0-16.6,2.5-34.6-1.8-50.8c-2.2-8.2-7.3-15.8-9.1-23.9
	c-1.4-6.1-0.3-13.7-0.3-20c0.9-67.6,0.6-135.2,2.7-202.8c2.4-77.5-0.5-155.3,4.8-232.4c3.6-52.9,6.6-106.1,2.4-158.2
	c-4.4-55-1.7-109.6-3.4-164.3c-0.8-26.8,0.2-53.7-0.6-80.5c-0.6-20.6-5.5-45.1,5.4-64c9-15.6,7.5-32.1,5.8-48.9
	c-2.6-25.4-5.6-50.9-8.1-76.2c-2.6-25.6-1-49.6-0.6-75.3c0.2-11.7-1.5-21.5-4.2-32.5c-3.1-12.9-1.9-26.7-4.3-39.7
	c-1.6-8.5-3-17.2-1.1-25.6c2-8.9,11.7-21.9,22.3-17.4c6,2.6,8,9.8,10.7,15.8c1,2.3,2.5,4.7,4.9,5.1c2.2,0.4,4.4-0.9,5.6-2.7
	c3.4-5,7.3-9,10.9-14c2.6-3.5,3-9.6,7.9-11.1c10.4-3.3,19.3,13.4,30.7,3.2c1.3-1.1,2.4-2.5,4-3.1c2.6-1,5.5,0.7,7,3
	c4.4,7,2.2,19.3,2.3,27.1c0.1,10.2,0.2,20.3,0.2,30.5c0.2,21,0.3,42,0.5,62.9c1,126.5,3,253,3,379.5c0.1,14.8,3.6,29.5,4.5,44.3
	c0.7,11,1.2,22.1-3.4,32.8c-1,2.2-1.3,5.7-0.2,7.7c14.4,26.6,11.5,55.8,12,84c1.6,105.6,2,211.3-1.1,316.9
	c-0.9,30.1-4.5,60.1-4.5,90.3c0.1,30.2,5.7,60,5.5,90.2c-0.1,18.3,0.9,36.7-4,54.5c-1.9,7-4.1,12.7-9.8,17.4c-4.2,3.5-10,4.1-9,11.4
	c0.7,5.3,5.6,9,8.2,13.7c4.1,7.4,2.5,16.6,0.4,24.8c-5,19.2,0.1,37.6-0.7,57.2c-2.4,55.3,7.9,110.2,5.6,165.6
	c-2.7,64.1,0.9,128.3-1.6,192.4c0,30.5-4,61.3-5.7,91.9c-0.7,12.8-2.1,23.9,2,35.9c3.9,11.6-0.8,17.3-4.4,28.1
	c-3.2,9.7-0.1,21.3,1.5,31c7.2,42.1,1.2,84.1,2.7,126.3c1.2,32.1,7.8,63.6,9.7,95.5c1.4,23.4,0.4,45.5-1.2,69.1
	c-3.3,46.8-0.8,93.2-5,140c-2.2,25.3-2.2,50.4-3.4,75.5c-0.6,12.3-9.3,22.9-9.3,35.9C788.5,2545,783.1,2547.5,778.7,2547.3z"/>
</svg>
