<?xml version="1.0" encoding="utf-8"?>
<!-- Generator: Adobe Illustrator 27.9.1, SVG Export Plug-In . SVG Version: 6.00 Build 0)  -->
<svg class="v" version="1.1" xmlns="http://www.w3.org/2000/svg" xmlns:xlink="http://www.w3.org/1999/xlink" x="0px" y="0px"
	 viewBox="0 0 1900.9 2586.2" style="enable-background:new 0 0 1900.9 2586.2;" xml:space="preserve">
     $gradientDefs

		<path class="maincolor" d="M950.5,105.7c-134.3,0.6-268.5-4.3-402.3-14.6C418.2,80.8,288.5,67,159.3,49.7l13.9,693.7
	c2.4,77.3-14.5,154-49.2,223.2l-63.1,129.5c-15.5,31.2-20,60.9-16.6,95.5c25.4,275.4,52.8,550.5,82.1,825.5
	c10.7,100.3,22.3,200.5,34.8,300.6c9.6,71.3,77.6,148.8,141.1,180.3c11,5.5,22.8,9.2,35,10.9c99.1,9.5,198.4,17.3,297.8,23.5
	c105,6.6,210.2,10.1,315.4,10.5c94.4-0.4,188.8-3.3,283.1-8.7c110.3-6.3,220.5-14.7,330.4-25.4c17.1-1.8,38.4-11.7,54-21.7
	c39.8-25.4,73.7-61.8,97.6-102.4c12.2-20.7,20.4-43.6,24.2-67.3c9.5-75.9,18.5-151.8,26.8-227.8c32.4-299.1,62.4-598.4,90-898
	l0.1-0.8c3.6-32.5-2.2-65.4-16.7-94.7l-63.1-129.5c-34.7-69.2-51.6-145.9-49.2-223.2l13.9-693.7C1472,86.5,1218,106.1,950.5,105.7z"
	/>

	<path class="accentcolor" d="M950.5,62.5C649.2,62.1,421.4,41.7,115.1,0L130,744.5c1.5,73.7-12.4,136.7-44.7,203l-63,129.2
	c-18.8,38.7-25.5,76.1-21,118.9c0,0,68.2,742.7,117.1,1127.9c13.6,107.4,133.3,220.5,214,228.4c161.3,15.6,402.2,34.3,618.1,34.3
	s456.7-18.7,618.1-34.3c80.7-7.8,200.3-121,214-228.4c49-385.2,117.1-1127.9,117.1-1127.9c4.4-42.8-2.2-80.2-21-118.9l-63-129.2
	c-32.3-66.3-46.2-129.2-44.7-203L1785.8,0C1479.6,41.7,1251.8,62.1,950.5,62.5z M950.5,84.1c275.6,0.4,534.3-20.4,813.2-59.2
	L1749.3,744c-2.3,73.8,13.8,147.1,46.9,213.1l63,129.4c17.3,34.9,22.6,68.6,18.8,107.2c-27.6,299.7-57.7,599.2-90.1,898.4
	c-8.4,76.2-17.4,152.4-26.9,228.5c-4.2,26.5-13.3,52.1-26.9,75.2c-25.6,43.7-61.8,82.4-104.6,109.7c-18.5,11.8-42.7,22.8-63.3,24.9
	c-110.3,10.7-220.8,19.2-331.5,25.5c-94.7,5.4-189.5,8.3-284.3,8.7c-105.7-0.4-211.3-3.9-316.7-10.6
	c-99.8-6.2-199.4-14.1-298.9-23.6c-14.6-2-28.9-6.4-42.1-13c-70-34.9-142.4-118.1-152.9-196.8c-12.5-100.3-24.1-200.7-34.9-301.2
	c-29.3-275.1-56.7-550.4-82.1-825.8c-3.8-38.6,1.5-72.3,18.8-107.2l63-129.4c33.1-66,49.2-139.3,46.9-213.1L137.2,24.9
	c137.1,18.9,274.7,33.8,412.6,44.7l0.1,0C683.2,79.4,816.8,84.3,950.5,84.1z"/>

	<text  class="textcolor" transform="matrix(135.2766 0 0 157.2984 260.0555 2424.1328)" textLength="10" lengthAdjust="spacingAndGlyphs"  style="font-family:'Square721BT-BoldExtended'; font-size:1.6505px;">
		<tspan x="0" y="0">$textRef</tspan>
	</text>

</svg>
