<?xml version="1.0" encoding="utf-8"?>
<!-- Generator: Adobe Illustrator 27.9.1, SVG Export Plug-In . SVG Version: 6.00 Build 0)  -->
<svg class="v" version="1.1" xmlns="http://www.w3.org/2000/svg" xmlns:xlink="http://www.w3.org/1999/xlink" x="0px" y="0px"
	 viewBox="0 0 1900.9 2586.2" style="enable-background:new 0 0 1900.9 2586.2;" xml:space="preserve">
     $gradientDefs

		<path class="accentcolor" d="M950.5,62.5C649.2,62.1,421.4,41.7,115.1,0L130,744.5c1.5,73.7-12.4,136.7-44.7,203l-63,129.2
	c-18.8,38.7-25.5,76.1-21,118.9c0,0,68.2,742.7,117.1,1127.9c13.6,107.4,133.3,220.5,214,228.4c161.3,15.6,402.2,34.3,618.1,34.3
	s456.7-18.7,618.1-34.3c80.7-7.8,200.3-121,214-228.4c49-385.2,117.1-1127.9,117.1-1127.9c4.4-42.8-2.2-80.2-21-118.9l-63-129.2
	c-32.3-66.3-46.2-129.2-44.7-203L1785.8,0C1479.6,41.7,1251.8,62.1,950.5,62.5z M950.5,91.3c273.2,0.4,529.2-20,805.8-58.1
	l-14.2,710.6c-2.3,75,14,149.4,47.7,216.5l63.1,129.4c16.7,33.6,21.7,66,18.1,103.3c-27.6,299.6-57.7,599.1-90.1,898.2
	c-8.4,76.2-17.3,152.3-26.9,228.3c-4,25.6-12.9,50.3-26,72.6c-25.1,42.7-60.5,80.6-102.2,107.3c-17.6,11.2-40.7,21.8-60.2,23.8
	c-110.2,10.7-220.6,19.2-331.1,25.5c-94.5,5.4-189.2,8.3-283.9,8.7c-105.5-0.4-211-3.9-316.3-10.5c-99.6-6.2-199.2-14-298.6-23.6
	c-13.8-1.9-27.2-6-39.7-12.3c-67.8-33.8-138.7-115-149-191.3c-12.5-100.2-24.1-200.6-34.9-301c-29.3-275-56.7-550.3-82.1-825.7
	c-3.7-37.2,1.4-69.6,18.1-103.3l63.1-129.4c33.6-67.1,50-141.5,47.7-216.5L144.6,33.2C279.1,51.5,414,66,549.3,76.7
	C682.8,86.9,816.6,91.8,950.5,91.3z"/>
<rect x="345.7" y="1293.3" class="maincolor" width="172.8" height="187.2"/>
<rect x="691.3" y="1293.3" class="maincolor" width="172.8" height="187.2"/>
<rect x="1036.9" y="1293.3" class="maincolor" width="172.8" height="187.2"/>
<rect x="1382.5" y="1293.3" class="maincolor" width="172.8" height="187.2"/>
<polygon class="maincolor" points="199.4,1106.1 203.6,1293.3 345.7,1293.3 345.7,1106.1 "/>
<rect x="518.5" y="1106.1" class="maincolor" width="172.8" height="187.2"/>
<rect x="864.1" y="1106.1" class="maincolor" width="172.8" height="187.2"/>
<rect x="1209.7" y="1106.1" class="maincolor" width="172.8" height="187.2"/>
<polygon class="maincolor" points="1697.4,1293.3 1701.6,1106.1 1555.3,1106.1 1555.3,1293.3 "/>
<rect x="345.7" y="1667.7" class="maincolor" width="172.8" height="187.2"/>
<rect x="691.3" y="1667.7" class="maincolor" width="172.8" height="187.2"/>
<rect x="1036.9" y="1667.7" class="maincolor" width="172.8" height="187.2"/>
<rect x="1382.5" y="1667.7" class="maincolor" width="172.8" height="187.2"/>
<polygon class="maincolor" points="210,1581.7 210,1581.7 210,1581.7 211.2,1635.3 212,1667.7 345.7,1667.7 345.7,1480.5 207.8,1480.5 "/>
<rect x="518.5" y="1480.5" class="maincolor" width="172.8" height="187.2"/>
<rect x="864.1" y="1480.5" class="maincolor" width="172.8" height="187.2"/>
<rect x="1209.7" y="1480.5" class="maincolor" width="172.8" height="187.2"/>
<polygon class="maincolor" points="1688.9,1667.7 1693.2,1480.5 1555.3,1480.5 1555.3,1667.7 "/>
<rect x="345.7" y="918.9" class="maincolor" width="172.8" height="187.2"/>
<rect x="691.3" y="918.9" class="maincolor" width="172.8" height="187.2"/>
<rect x="1036.9" y="918.9" class="maincolor" width="172.8" height="187.2"/>
<rect x="1382.5" y="918.9" class="maincolor" width="172.8" height="187.2"/>
<polygon class="maincolor" points="191,731.7 191.2,743.2 195.1,918.9 345.7,918.9 345.7,731.7 "/>
<rect x="518.5" y="731.7" class="maincolor" width="172.8" height="187.2"/>
<rect x="864.1" y="731.7" class="maincolor" width="172.8" height="187.2"/>
<rect x="1209.7" y="731.7" class="maincolor" width="172.8" height="187.2"/>
<polygon class="maincolor" points="1705.8,918.9 1706,907.2 1709.7,743.2 1710,731.7 1555.3,731.7 1555.3,918.9 "/>
<rect x="345.7" y="544.5" class="maincolor" width="172.8" height="187.2"/>
<rect x="691.3" y="544.5" class="maincolor" width="172.8" height="187.2"/>
<rect x="1036.9" y="544.5" class="maincolor" width="172.8" height="187.2"/>
<rect x="1382.5" y="544.5" class="maincolor" width="172.8" height="187.2"/>
<polygon class="maincolor" points="183.5,357.3 187.2,544.5 345.7,544.5 345.7,357.3 "/>
<rect x="518.5" y="357.3" class="maincolor" width="172.8" height="187.2"/>
<rect x="864.1" y="357.3" class="maincolor" width="172.8" height="187.2"/>
<rect x="1209.7" y="357.3" class="maincolor" width="172.8" height="187.2"/>
<polygon class="maincolor" points="1713.7,544.5 1717.4,357.3 1555.3,357.3 1555.3,544.5 "/>
<rect x="345.7" y="170.1" class="maincolor" width="172.8" height="187.2"/>
<rect x="691.3" y="170.1" class="maincolor" width="172.8" height="187.2"/>
<rect x="1036.9" y="170.1" class="maincolor" width="172.8" height="187.2"/>
<rect x="1382.5" y="170.1" class="maincolor" width="172.8" height="187.2"/>
<path class="maincolor" d="M345.7,90.6c-56-6-112-12.7-167.9-20l2,99.6h165.9V90.6z"/>
<path class="maincolor" d="M691.3,118.4c-48.2-2.3-96.4-5.3-144.5-9.1c-9.3-0.7-18.6-1.5-27.9-2.3c-0.1,0-0.2,0-0.4,0v63.1h172.8V118.4z"
	/>
<path class="maincolor" d="M1036.9,123.6C1036.8,123.6,1036.8,123.6,1036.9,123.6c-28.9,0.4-57.6,0.5-86.4,0.3c-28.8,0.1-57.5,0-86.3-0.3
	c0,0-0.1,0-0.1,0v46.5h172.8V123.6z"/>
<path class="maincolor" d="M1382.5,107c-0.1,0-0.2,0-0.4,0c-9.3,0.8-18.6,1.5-27.9,2.3c-48.1,3.7-96.3,6.8-144.5,9.1v51.8h172.8V107z"/>
<path class="maincolor" d="M1721.2,170.1l2-99.6c-55.9,7.3-111.9,14-167.9,20v79.6H1721.2z"/>
<rect x="345.7" y="2042.1" class="maincolor" width="172.8" height="187.2"/>
<rect x="691.3" y="2042.1" class="maincolor" width="172.8" height="187.2"/>
<rect x="1036.9" y="2042.1" class="maincolor" width="172.8" height="187.2"/>
<rect x="1382.5" y="2042.1" class="maincolor" width="172.8" height="187.2"/>
<polygon class="maincolor" points="216.2,1854.9 220.4,2042.1 345.7,2042.1 345.7,1854.9 "/>
<rect x="518.5" y="1854.9" class="maincolor" width="172.8" height="187.2"/>
<rect x="864.1" y="1854.9" class="maincolor" width="172.8" height="187.2"/>
<rect x="1209.7" y="1854.9" class="maincolor" width="172.8" height="187.2"/>
<polygon class="maincolor" points="1680.5,2042.1 1684.7,1854.9 1555.3,1854.9 1555.3,2042.1 "/>
<path class="maincolor" d="M345.7,2491.9c57.6,5.5,115.2,10.4,172.8,14.7v-90.1H345.7V2491.9z"/>
<path class="maincolor" d="M691.3,2517.9c0.2,0,0.4,0,0.6,0c57.4,3,114.8,5.1,172.2,6.2v-107.6H691.3V2517.9z"/>
<path class="maincolor" d="M1036.9,2524.2c57.4-1.2,114.8-3.2,172.2-6.2c0.2,0,0.4,0,0.6,0v-101.4h-172.8V2524.2z"/>
<path class="maincolor" d="M1382.5,2506.6c57.6-4.4,115.2-9.3,172.8-14.7v-75.3h-172.8V2506.6z"/>
<path class="maincolor" d="M224.6,2229.3l1.2,54.6c0.2,9.7,1.2,19.4,2.6,28.9c1.3,8.6,3.1,17.2,5.2,25.7c1.7,7,3.7,13.9,5.8,20.8
	c6,19.3,13.8,38.8,22.9,57.2h83.4v-187.2H224.6z"/>
<rect x="518.5" y="2229.3" class="maincolor" width="172.8" height="187.2"/>
<rect x="864.1" y="2229.3" class="maincolor" width="172.8" height="187.2"/>
<rect x="1209.7" y="2229.3" class="maincolor" width="172.8" height="187.2"/>
<path class="maincolor" d="M1638.6,2416.5c2.1-4.3,4.1-8.6,6.1-12.9c5-11.1,9.4-22.3,13.4-33.8c3.5-10.3,6.6-20.7,9.2-31.3
	c2.3-9.4,4.2-18.9,5.6-28.4c1.2-8.6,2-17.7,2.2-26.2l1.2-54.6h-121.1v187.2H1638.6z"/>
</svg>
