<?xml version="1.0" encoding="utf-8"?>
<!-- Generator: Adobe Illustrator 27.9.1, SVG Export Plug-In . SVG Version: 6.00 Build 0)  -->
<svg class="v" version="1.1" xmlns="http://www.w3.org/2000/svg" xmlns:xlink="http://www.w3.org/1999/xlink" x="0px" y="0px"
	 viewBox="0 0 1900.9 2586.2" style="enable-background:new 0 0 1900.9 2586.2;" xml:space="preserve">
     $gradientDefs

		<path class="accentcolor" d="M950.5,62.5C649.2,62.1,421.4,41.7,115.1,0L130,744.5c1.5,73.7-12.4,136.7-44.7,203l-63,129.2
	c-18.8,38.7-25.5,76.1-21,118.9c0,0,68.2,742.7,117.1,1127.9c13.6,107.4,133.3,220.5,214,228.4c161.3,15.6,402.2,34.3,618.1,34.3
	s456.7-18.7,618.1-34.3c80.7-7.8,200.3-121,214-228.4c49-385.2,117.1-1127.9,117.1-1127.9c4.4-42.8-2.2-80.2-21-118.9l-63-129.2
	c-32.3-66.3-46.2-129.2-44.7-203L1785.8,0C1479.6,41.7,1251.8,62.1,950.5,62.5z M950.5,84.1c289.4,0,519.1-19.8,813.2-59.3
	L1749.3,744c-1.8,74.6,13,143.9,46.9,213l63.1,129.4c16.6,32.9,23.1,70,18.9,106.7c0,0.2,0,0.3-0.1,0.5
	c-21.1,228.5-43.5,456.8-67.2,685c-12.1,116.5-35,328.2-49.9,442.1c-3.4,26.4-13.7,52.4-26.9,75c-25.2,43.4-62.3,82.7-104.6,109.7
	c-10.4,6.6-21.4,12.3-32.8,17c-9.7,4.1-20,6.7-30.5,7.9c-110.3,10.7-220.8,19.2-331.5,25.5c-94.7,5.4-189.5,8.3-284.3,8.7
	c-102.1,0.1-221.2-4.8-316.7-10.6c-99.8-6.1-199.6-14-299.1-23.6c-27.1-2.8-56.5-19.2-77.3-34.4c-21-15.5-40.2-33.3-57.2-53.1
	c-16-18.6-29.7-39.1-40.8-61c-9.5-18.8-16.9-40.9-19.5-61.1c-37.2-290.4-90.1-836.1-117-1127.2c0-0.2,0-0.3-0.1-0.5
	c-4.3-36.6,2.3-73.7,18.9-106.7L104.7,957c32.9-67,48.7-136,46.9-213L137.2,24.8c137,18.5,274.8,34.4,412.7,44.8
	C683.2,79.5,816.8,84.4,950.5,84.1z"/>
<path class="maincolor" d="M950.5,93.1c-133.9,0.3-267.7-4.5-401.3-14.6C413.9,68.4,280.9,53.1,146.4,35.1l14.2,708.7
	c0.9,35.6-2.2,71.2-9.2,106.1c-8,38.6-20.9,75.9-38.6,111.1l-63.1,129.5c-15.8,31.4-22,66.7-18,101.6c0,0.2,0.1,0.5,0.1,0.7
	c26.9,290.2,79.9,837.3,117,1126.8c2.5,19.2,9.6,40.3,18.6,58.2c21.5,42.7,56,82.1,95.3,110.9c19.3,14.2,47.5,30.1,72.9,32.7
	c99.4,9.7,199,17.5,298.7,23.6c94.7,5.7,214.5,10.7,316.2,10.5c94.7-0.4,189.3-3.3,283.8-8.7c110.5-6.3,220.9-14.8,331-25.5
	c9.6-1.1,19-3.6,28-7.3c10.9-4.5,21.4-10,31.4-16.3c41.1-26.2,77.1-64.5,101.7-106.6c12.5-21.5,22.5-46.5,25.8-71.7
	c9.5-76.1,18.5-152.3,26.9-228.6c7.9-71.1,15.5-142.1,22.9-213.2c23.6-228.2,46-456.5,67.1-684.9c0-0.2,0-0.5,0.1-0.7
	c4.1-34.9-2.2-70.2-18-101.6L1788.1,961c-15.8-31.9-27.9-65.5-36.2-100.1c-9-38.3-12.9-77.7-11.6-117.1l14.2-708.7
	C1463.8,73.9,1236.9,93,950.5,93.1z"/>
<path class="accentcolor2" d="M84.7,1739.2c0.3,2.8,0.6,5.6,0.9,8.5c15.4,4.1,31.1,7.6,46.9,10.4c33.2,5.8,66.8,7,100.5,8.7
	c32.9,1.6,65.4,5.2,97.1,12.8c29.3,7,58.7,17.3,84.3,29.9c0.6,0.3,2.8,1.4,4,2c0.9,0.5,1.8,0.9,2.7,1.4c0,0,0.1,0.1,0.3,0.2
	c0,0,0,0,0,0c0,0,0,0,0,0c0,0,0.1,0.1,0.1,0.1c0,0,0,0,0,0h0c0,0,0,0,0,0c0.1,0,0.1,0.1,0.2,0.1c0,0,0,0,0.1,0c0,0,0,0,0,0
	c0,0,0.1,0,0.1,0c0,0,0,0,0,0c0.1,0,0.2,0.1,0.2,0.1c0,0,0,0,0,0c0,0,0.1,0,0.1,0c0,0,0,0,0.1,0c0.2,0.1,0.3,0.2,0.3,0.2
	c0.8,0.5,1.7,0.9,2.5,1.4c1.7,0.9,3.4,1.8,5.1,2.8c0.6,0.3,1.2,0.7,1.8,1c0,0,0.1,0,0.1,0.1c0.2,0.1,0.5,0.3,0.6,0.3
	c1.4,0.8,2.8,1.6,4.1,2.3c3.2,1.8,6.3,3.6,9.4,5.4c13.6,7.8,27.2,15.5,41.2,22.6c25.7,13.1,53.5,25.2,83.8,28.2
	c25.2,2.5,51.6-0.8,76.3,5.5c0.4,0.1,0.7,0.2,1.1,0.3c4.3,4.3,7.4,9.5,9.4,14.8c4.5,11.9,4.9,25,4.2,37.4
	c-1.4,26.4-10.2,52.6-25.4,75.8c-13.6,20.6-34.2,41.1-64.4,42c-14.6,0.4-29-3.4-41.9-8.9c-2.7-1.2-5.2-2.3-6.8-3.1
	c-0.7-0.3-1.3-0.7-2-1c0,0,0,0,0,0c0,0,0,0,0,0c0,0,0,0,0,0c0,0-0.1,0-0.1-0.1c0,0-0.1,0-0.1-0.1c0,0-0.1,0-0.1,0s0,0,0,0
	c-0.1,0-0.2-0.1-0.3-0.2c-0.7-0.4-1.4-0.7-2.1-1.1c-0.2-0.1-0.5-0.2-0.6-0.3l0,0c0,0,0,0,0,0c0,0-0.1,0-0.2-0.1
	c-0.1-0.1-0.2-0.1-0.4-0.2c-3.1-1.8-6.2-3.6-9.2-5.4c-0.1,0-0.1-0.1-0.2-0.1c0,0,0,0-0.1,0c0,0-0.1,0-0.1,0c0,0-0.1,0-0.1-0.1
	c-0.1,0-0.1-0.1-0.1-0.1c0,0-0.1,0-0.1-0.1c0,0,0,0,0,0c0,0,0,0,0,0c-1.3-0.8-2.6-1.6-3.9-2.3c-1.9-1.1-3.8-2.2-5.6-3.4
	c-28.6-16.9-57.8-33.1-87.4-48.8c-57.8-30.5-117.3-58.7-177.8-85.1c-45.5-19.9-91.6-39.2-138.4-56.9c0.2,1.8,0.4,3.7,0.6,5.5
	c41.8,15.3,82.9,32,123.6,49.3c59.7,25.4,118.9,52.5,175.4,81.5c15,7.7,26.4,13.7,41.1,21.7c14.6,8,25.8,14.2,40.4,22.7
	c28.4,16.5,57,36,90.5,46.2c13.6,4.1,28,6.2,42.3,3.7c14.1-2.5,26.1-9.4,35.7-18.2c20.6-18.8,33.4-44.7,39.8-69.4
	c3.4-13.1,5-26.6,4.7-40.1c-0.3-12.1-1.9-24.8-8.9-35.6c-8.4-13.2-25.6-22-40.8-28.8c-11.4-5.1-23.6-7.7-36.4-8.8
	c-27.1-2.2-54,0.1-80.3-6.7c-13.2-3.4-25.7-8.5-37.2-14.1c-0.1,0-0.4-0.2-0.7-0.3c0,0-0.1,0-0.1-0.1c0,0,0,0,0,0c0,0-0.1,0-0.1,0
	c0,0-0.1,0-0.1-0.1c0,0,0,0-0.1,0c-0.1,0-0.1-0.1-0.2-0.1c0,0,0,0,0,0c-0.5-0.2-0.9-0.5-1.4-0.7c-1.3-0.6-2.5-1.3-3.8-1.9
	c0,0,0,0,0,0h0c0,0,0,0,0,0c0,0-0.1-0.1-0.2-0.1c-0.1-0.1-0.2-0.1-0.3-0.2c0,0,0,0,0,0c-0.8-0.4-2.1-1.1-2.4-1.3
	c-1.9-1-3.8-2.1-5.7-3.1c-1.1-0.6-2.1-1.2-3.2-1.8c0,0,0,0,0,0c0,0,0,0-0.1,0c0,0,0,0,0,0c0,0-0.1,0-0.1,0c-0.1,0-0.1-0.1-0.2-0.1
	c0,0,0,0,0,0c-0.9-0.5-2.7-1.5-3-1.7c-3.2-1.8-6.3-3.6-9.5-5.4c-28.4-16.3-57.2-31.8-88.4-44c-29.2-11.4-60.1-19.9-91.7-25.2
	c-34-5.6-68.5-6.2-103-8.2C141.5,1749,112.8,1745.4,84.7,1739.2z"/>
<path class="accentcolor2" d="M459.1,2340C459.1,2340,459.1,2340,459.1,2340C459.1,2340,459.1,2340,459.1,2340z"/>
<path class="accentcolor2" d="M147.8,105.4l0.1,3.2c0.3,0.1,0.5,0.3,0.8,0.4c15,8.5,29.8,17.1,44.6,25.8c13.2,7.8,28.2,17,42.2,25.6
	c14.1,8.8,28.2,17.6,42,26.7c57,36.9,112.1,75.9,165.1,116.7c13.3,10.3,26.5,20.6,39.6,31.1c13.2,10.6,26.1,21.5,40,31.5
	c31.2,22.4,66.9,39,105.4,50.5c17.1,5.1,34.4,9.8,51.7,14.2c17.7,4.5,35.7,8.4,54.1,10c17.5,1.5,35.5,0.7,52.2-4.1
	c3.6-1,7.4-2.5,11.2-3.8c-4.3,4.4-10.5,7-14.3,11.8c-4.3,5.4-4.8,12.1-5.5,18.4c-0.8,6.2-1.9,12.2-5.9,17.6
	c-3.5,4.7-8.6,8.3-14.3,11.1c-12.7,6.1-27.8,7.9-42.3,7.8c-18,0-35.8-2.4-53.1-6.5c-17.2-4-33.9-9.6-49.9-16.3
	c-7.7-3.2-15.4-6.7-22.8-10.3c-3.6-1.7-6.3-3.1-10.1-5.1c-1.7-0.9-3.4-1.8-5.1-2.6c-1-0.5-2-1-2.9-1.5c0.1,0-1.9-1-2.6-1.4
	c0,0-0.1,0-0.1-0.1c0,0,0,0,0,0h0v0c0,0,0,0,0,0c-33.6-17.8-66.3-36.6-101.6-52c-17.1-7.5-34.7-14.1-51.8-21.6
	c-7.2-3.1-15-6.8-20.3-9.6c0,0,0,0,0,0c0,0,0,0,0,0c0,0-0.1,0-0.1-0.1c0,0,0,0,0,0c-0.5-0.3-1.8-1-1.9-1.1c-0.9-0.5-1.9-1-2.8-1.5
	c-0.2-0.1-0.4-0.2-0.5-0.3c0,0-0.1,0-0.1-0.1c0,0,0,0-0.1,0c0,0,0,0,0,0c0,0,0,0,0,0h0c-0.9-0.5-1.8-1-2.8-1.6
	c-4-2.3-6.3-3.7-10-5.9c-29.2-17.9-56.8-37.4-86.2-55.1c-44.9-26.9-91.9-51.2-139-75.3l0.1,3.2c1.2,0.6,2.5,1.3,3.7,1.9
	c15.1,7.7,30.1,15.4,45.1,23.2c3.5,1.8,7,3.7,10.5,5.5c0.6,0.3,1.2,0.6,1.7,0.9c0,0,0.1,0,0.1,0c0,0,0.1,0,0.1,0.1
	c0,0,0.1,0,0.1,0.1c0,0,0.1,0,0.1,0.1c0,0,0,0,0,0c0.1,0.1,0.2,0.1,0.4,0.2c0,0,0,0,0,0c0,0,0,0,0,0c0.2,0.1,0.4,0.2,0.4,0.2
	c2.2,1.2,4.4,2.3,6.6,3.5c7.4,4,14.8,8,22.1,12c1.7,1,3.4,1.9,5.2,2.9c0.2,0.1,0.4,0.2,0.6,0.3c0.2,0.1,0.3,0.2,0.5,0.3
	c0.1,0,0.1,0.1,0.1,0.1c0,0,0,0,0,0c0.1,0.1,0.2,0.1,0.2,0.1c0.5,0.3,1,0.6,1.5,0.9c3.9,2.2,7.7,4.4,11.5,6.6
	c7.6,4.4,13.2,7.7,19.8,11.7c14.3,8.7,28.2,17.8,42.1,27c33,21.8,66.6,42.8,103.7,59.4c17.5,7.8,35.7,14.7,53.3,22.3
	c8.3,3.6,16.5,7.3,24.5,11.3c2.4,1.2,6.9,3.5,10.1,5.1c2,1,3.9,2,5.9,3c1.4,0.7,2.7,1.4,5.2,2.8c34.2,18.3,67.9,37.6,104.4,52.7
	c33.2,13.7,69.2,24.3,106.6,24.8c14.6,0.2,29.6-1,42.9-6.5c13.8-5.7,21.4-15,23.2-27.7c0.9-6.5,1-13.5,4.8-19.3
	c3.5-5.4,10-8.2,14.7-12.6c4.6-4.3,5.1-9.7,0.5-14.1c-4-3.8-9.5-6.7-14.5-9.4c0,0-0.1,0-0.1-0.1c-0.1,0-0.2-0.1-0.2-0.1
	c-0.7-0.4-1.5-0.8-2.2-1.2c-0.1-0.1-0.2-0.1-0.4-0.2c-4.7-2.5-9.7-5-15-6.2c-8.4-2-16.9,1.5-24.5,4.2c-8.3,2.9-17,4.8-26,5.8
	c-18.9,2.1-38.1,0.1-56.6-3.4c-18.3-3.4-36.1-8.3-53.9-13.1c-17.7-4.8-35.3-9.8-52.3-16.3c-3.7-1.4-7.4-2.9-11-4.5
	c-1.7-0.8-3.4-1.5-5.1-2.3c-0.2-0.1-2.4-1.2-2.8-1.4c0,0,0,0,0.1,0c0,0,0,0-0.1,0c0,0,0,0,0,0c-0.1,0-0.2-0.1-0.2-0.1
	c-0.1,0-0.2-0.1-0.3-0.1c0,0,0,0,0,0c-0.1,0-0.1-0.1-0.1-0.1c0,0,0,0,0.1,0c0,0,0,0-0.1,0c-0.4-0.2-0.7-0.4-0.9-0.5c0,0,0,0,0,0
	c-1.3-0.8-2.6-1.6-3.9-2.4c-3.8-2.4-7.4-5-10.9-7.6c-14.1-10.4-27.3-21.7-41-32.5c-53.7-42.9-109.7-83.9-167.5-122.8
	c-58.8-39.6-119.6-77-182.2-112.3C150,106.6,148.9,106,147.8,105.4z M558.3,385.8C558.3,385.8,558.3,385.8,558.3,385.8
	C558.3,385.8,558.3,385.8,558.3,385.8z"/>
<path class="accentcolor2" d="M86.1,1015.7l-1.4,2.8c45.8,22,94.2,39.4,142.8,56.6c26.1,9.2,52.3,18.5,77.7,29.1c11.1,4.6,21.7,9.3,32.3,14.4
	c1.3,0.6,2.7,1.3,4,1.9c0.2,0.1,0.3,0.2,0.4,0.2c0,0,0,0,0,0c0,0,0,0,0,0c0.1,0.1,0.2,0.1,0.2,0.1c0,0,0,0,0,0h0c0,0,0,0,0,0
	c0,0,0,0,0,0c0,0,0,0,0,0c0.4,0.2,0.9,0.4,1.3,0.7c2.6,1.3,5.2,2.6,7.8,4c0,0,0,0,0,0c0,0,0,0,0,0c0,0,0,0,0,0
	c0.4,0.2,1.9,1,2.3,1.2c1.3,0.7,2.6,1.4,3.8,2.1c0.3,0.2,1.1,0.6,1.7,1c0.1,0.1,0.2,0.1,0.3,0.2c0,0,0,0,0.1,0
	c0.1,0.1,0.2,0.1,0.2,0.1c0,0,0,0,0,0c0,0,0,0,0,0c1.2,0.7,2.5,1.4,3.7,2.1c0.6,0.4,1.2,0.7,1.9,1.1l0.7,0.4c0,0,0.1,0,0.3,0.2
	c0,0,0.1,0,0.1,0.1c0.1,0,0.1,0.1,0.1,0.1c0,0,0,0,0,0l0,0c0,0,0,0,0,0l0,0l0.7,0.4c0.6,0.4,1.2,0.8,1.8,1.1
	c2.3,1.4,4.6,2.8,6.6,4.1c4.7,3.1,9.4,6.2,13.9,9.6c9.5,6.9,18.5,14.2,26.9,22.1c16.8,15.7,31,33.2,42,52.2
	c22.3,38.4,31.8,81.4,31.8,123.9c0,21.2-2.3,42.5-6.8,63.3c-2.2,10-5.1,20.4-12.3,28.7c-7.3,8.4-18.4,13-30.1,15.6
	c-13.2,3-27,4.3-40.4,6.1c-15,2.1-30,4.1-45,6.1c-30,4-60.1,7.7-90.2,10.9c-57.1,6.1-115.7,12-173.2,5.6c-11.3-1.3-22.6-3-33.6-5.4
	c0.3,2.7,0.5,5.4,0.8,8.1c52.2,15.8,108.4,15.9,163.1,12.2c61.5-4.2,122.7-12.1,183.5-20.4c15.1-2,30.1-4.1,45.2-6.2
	c12.1-1.7,24.8-3.8,35.2-9.6c21.4-12,23.8-37.4,26.7-56.9c6.4-42.8,3.9-87-10.5-128.5c-14.4-41.5-41.2-78.3-78.5-108.1
	c-40.7-32.5-90.1-57.6-140.4-78.1c-53.5-21.9-109.6-39-163.4-60.4C109,1025.8,97.1,1020.8,86.1,1015.7z M366.7,1134
	C366.7,1134,366.7,1134,366.7,1134C366.7,1134,366.7,1134,366.7,1134z"/>
<path class="accentcolor2" d="M78.8,1030.8l-1.9,4c5.1,3.4,10.2,6.8,15.4,10.2c41,26.4,85.5,49.8,133.3,66.5c22.3,7.8,45.3,14.2,67.7,21.7
	c10.6,3.5,21.1,7.3,31.3,11.7c2.4,1,4.3,1.9,6.6,3c0.4,0.2,0.7,0.3,1,0.5c0,0,0.1,0,0.1,0c0.2,0.1,0.5,0.3,0.9,0.5
	c0.1,0.1,1.8,1,2.4,1.3c0,0,0,0,0,0c0,0,0,0,0,0c0.6,0.3,1.6,0.9,1.9,1.1c0,0,0,0,0,0c0,0,0,0,0,0c0,0,0,0,0,0l0,0c0,0,0,0,0,0
	c0,0,0,0,0,0c2.2,1.4,4.3,2.7,6.6,4.4c37.4,26.8,60.3,68.1,70,107.9c5.2,21.2,6.6,43,3.6,64.5c-2.8,20.5-9.1,41.4-22.1,59.1
	c-24.1,32.9-71.3,48.5-113.7,58.6c-41.4,9.9-84.8,13.8-127.7,12c-33.3-1.4-66.6-6.1-98.7-14.1c0.2,2.5,0.5,5.1,0.7,7.6
	c23.5,7.1,47.7,12.5,72.3,16.1c42.9,6.2,87,6.8,130.1,1.5c21.6-2.7,43-6.8,63.8-12.6c22.1-6.1,44.1-13.6,63.5-24.5
	c20.7-11.6,36.2-27.3,45.5-46.7c9.6-20,13.7-42,13.9-63.4c0.4-43-15.2-86.8-43.9-122.5c-30.4-37.8-78.8-62.2-128.5-79
	c-22.9-7.7-46.4-14.2-69.2-22.2c-10.9-3.8-21.6-8-32.1-12.6c-5.1-2.2-9.4-4.2-14.4-6.6c-1.3-0.6-2.6-1.3-3.9-1.9
	c-0.4-0.2-0.7-0.4-1-0.5c-0.1-0.1-0.2-0.1-0.3-0.1c0,0,0,0-0.1,0c-0.2-0.1-0.4-0.2-0.6-0.3c-2.6-1.3-5.1-2.6-7.7-4
	c-0.2-0.1-0.3-0.2-0.5-0.2c-0.2-0.1-0.3-0.2-0.4-0.2c-0.1,0-0.2-0.1-0.3-0.2c-0.1-0.1-0.2-0.1-0.3-0.2c-1.3-0.7-2.5-1.4-3.8-2
	c-0.9-0.5-1.9-1-2.8-1.6c0,0,0,0,0,0c0,0,0,0,0,0c0,0-0.1-0.1-0.1-0.1c0,0,0,0,0,0c0,0-0.1-0.1-0.1-0.1c-0.7-0.4-2-1.1-2.1-1.2
	c-2.5-1.4-5-2.9-7.4-4.3c-0.4-0.2-0.7-0.4-0.9-0.5c0,0,0,0,0,0c-0.1,0-0.2-0.1-0.3-0.2c-0.2-0.1-0.4-0.2-0.6-0.4
	c-1.2-0.7-2.4-1.5-3.7-2.2c-9.4-5.7-18.1-11.5-27.2-17.8C88.1,1037.5,83.4,1034.2,78.8,1030.8z"/>
<path class="accentcolor2" d="M73,1042.7l-2.4,4.9c14.9,10.8,30.7,20.7,47.8,29.5c39.4,20.2,83.2,32,124.8,48.5c3.9,1.5,7.7,3.1,11.4,4.8
	c1.7,0.8,3.8,1.7,4.9,2.2c1.1,0.5,2.1,1,3.2,1.5c0,0,1.4,0.7,2,1c0.1,0,0.1,0.1,0.2,0.1c0,0,0,0,0,0c0.1,0,0.1,0.1,0.1,0.1
	c0,0,0,0,0,0c0,0,0,0,0,0l0,0h0c0,0,0,0,0,0c0.9,0.4,1.8,0.9,2.7,1.4c0,0,0,0,0,0c0,0,0.1,0,0.1,0.1c0,0,0,0,0.1,0s0.1,0,0.1,0h0
	c0.1,0.1,0.2,0.1,0.3,0.2c0,0,1.3,0.7,2,1.1c0.1,0,0.1,0.1,0.2,0.1c0,0,0.1,0,0.1,0.1c0.3,0.2,0.7,0.4,1,0.6c0,0,0.1,0,0.1,0.1
	c0,0,0,0-0.1,0c0.4,0.3,2.7,1.7,3.1,1.9c0,0,0,0,0,0c2.3,1.5,4.5,3,6.7,4.5c14.3,10.3,26.4,22.8,34.7,37
	c10.1,17.4,13.7,36.9,15.5,56c1.7,18.2,2.2,36.6-0.5,54.8c-2.6,17.5-8.4,34.8-19.1,50.1c-9.8,13.9-23.6,25.7-39.3,35.1
	c-35.8,21.3-79.8,28.9-123.1,28.8c-33.1-0.1-66.5-3.6-98.8-10.1c0.3,3,0.6,6,0.9,9c23,5.7,46.5,9.7,70.2,12.3
	c46.7,5.1,96.3,5.5,140.7-9.3c38.6-12.9,71.6-37,86-70.3c7.7-17.8,10.3-37,10.5-55.9c0.2-19.5-1.2-39.5-6-58.6
	c-4.5-18.1-13.2-34.9-27-49.3c-14.5-15.2-33.2-27.3-52.4-38c-19.7-11-40.6-20.4-62.2-28.4c-21.4-8-43.4-14.9-64.8-22.9
	c-10.2-3.8-20.3-7.8-30-12.4c-2.3-1.1-2.6-1.2-4.4-2.2c0,0,0,0,0,0c0,0,0,0,0,0c-0.3-0.2-1.8-1-2.5-1.3c0,0,0,0,0,0
	c-0.1,0-0.1-0.1-0.1-0.1c0,0,0,0-0.1,0c-0.1-0.1-0.2-0.1-0.4-0.2c-0.2-0.1-1.8-1.1-2-1.2c0,0,0,0,0,0c0,0,0,0,0,0
	c-0.3-0.2-0.7-0.4-1-0.6c-2.9-1.8-2.4-1.5-5-3.2C91.4,1057.5,82,1050.2,73,1042.7z"/>
<path class="accentcolor2" d="M1645.2,1528.3c-2.2-1.5-4.5-2.9-6.9-4.2c-3.6-2-7.2-3.9-11-5.5c-2.2-1-4.4-2-6.6-3.1c-1.3-0.6-1.8-0.9-2.4-1.2
	c-0.1-0.1-1.6-1-1.5-1c-1.8-1.2-3.6-2.5-5.3-3.8c-7.6-5.9-14.1-12.7-20-19.8c-16.3-19.6-29.7-41.1-43.6-61.9
	c-30.3-45.5-58.6-92-85-139.2c-26-46.5-49.6-93.9-72.1-141.7c-21.4-45.4-44-90.6-79-130c-31.1-35-69.7-64.8-112.5-89.5
	c-43.5-25.1-91-45.5-141.8-57.8c-41.6-10.1-95.2-16.8-132.6,6.5c-44.6,27.9-34.3,83.8-18.9,122.2c38,94.4,136.4,157.4,200.2,238.4
	c63.6,80.8,97.5,175.7,114,270.8c9.3,53.7,13.4,107.9,15.2,162.2c0.9,26.9,1.2,53.7,1.4,80.6c0.1,26.5-0.9,53.2,0.4,79.7
	c0.5,10.5,1.9,21.1,6.4,31c4.5,9.9,12.1,17.7,22,24.3c22.3,14.7,47.3,24.5,76,23.2c29-1.3,55.7-12,83-19.2
	c29.3-7.7,60.2-11.2,90.9-10c15.3,0.6,30.3,2.6,45.3,5c14.6,2.3,29.2,4.1,44.1,2.8c26.7-2.5,50.7-14,71.4-27.7
	c20.9-13.8,39.9-30,57.4-46.8c17.7-17,33.6-35.5,46-55.6c22.7-36.7,32.1-78.3,18.9-118.7c-5.9-17.9-15.9-35.1-30.3-49.3
	c-17.3-17-40.7-30.2-64.7-39.5c-11-4.3-22.3-7.8-33.5-11.6c-6.1-2.1-12.1-4.2-18-6.5C1649.7,1530.3,1647.4,1529.3,1645.2,1528.3z
	 M1595.9,1536.2c-5.7-2.8-12.6-5.8-17.1-9.9c-0.3-0.3-0.7-0.7-1-1c-1.2-1.8,6,1.6,6.8,2c5.5,2.7,11,5.5,16.3,8.5
	c1.7,1.8,3.5,3.7,5.3,5.5c0.8,0.8-0.3,0.6-1.1,0.4c-1.5-1-3-2-4.5-2.9c-0.4-0.3-1.5-0.9-1.8-1.1c-0.4-0.2-1-0.5-1.4-0.8
	C1597,1536.8,1595.3,1535.9,1595.9,1536.2z M1645.1,1528.3C1645.1,1528.3,1645.1,1528.3,1645.1,1528.3c0.2,0.1,0.4,0.3,0.6,0.4
	c-0.2-0.2,3.7,2.3,3.2,2.8c-0.4,0.6-4.7-1.4-4.4-1.3c-2.8-1.2-5.6-2.5-8.4-3.8c-3.4-2-6.8-4.1-10.1-6.2c-4.6-3.1-3-3.3,1.2-1.5
	c3.7,1.7,7.5,3.5,11,5.5C1640.6,1525.4,1642.9,1526.8,1645.1,1528.3z M1497.9,1377.4c0.7,1.1,1.4,2.3,2.2,3.4
	c14.1,22.1,28.7,44.1,43.7,65.8c11.9,17.2,23.7,34.7,40.6,48.9c14.9,12.5,33.2,22.3,51.7,30.9c20.6,12,43.2,20.5,66.5,28.4
	c5.3,1.8,10.6,3.6,15.9,5.5c2.5,0.9,5.1,1.8,7.6,2.8c0.5,0.2,1.7,0.8,2.4,1.1c0.6,0.4,1.2,0.8,1.4,0.9c1.9,1.3,3.7,2.7,5.5,4.2
	c3.9,3.2,7.6,6.7,10.9,10.3c27.5,29.6,37.4,69.9,30.3,106.6c-8.4,43.5-37.4,82.1-71.7,114.6c-17.4,16.5-36.3,32.4-57.1,45.9
	c-20.4,13.1-44,24.2-70,26.3c-15.6,1.3-31-1.3-46.3-3.7c-14.6-2.3-29.3-4-44.1-4.4c-29.3-0.8-58.7,2.4-86.7,9.6
	c-27,7-53.3,17.7-81.8,19.6c-12,0.8-24.5-0.1-36-3.2c-0.8-0.2-1.7-0.5-2.5-0.9c-0.1-0.1-0.2-0.2-0.3-0.3c-4.4-4.1-7.7-9-10.2-14.1
	c-10.2-21.1-6.9-46.5-6.9-68.7c0-26.9-0.1-53.7-0.5-80.6c-0.8-53-3-106-9.5-158.8c-11.6-94.5-37.3-189.3-90.4-273.8
	c-27-43-61.8-80.9-99.4-117.6c-37.4-36.6-76.1-72.7-104.7-114.9c-13.9-20.5-25.4-42.3-32.3-65.3c-6.4-21-9.9-43.6-4.7-65
	c4.9-19.8,18.7-36.8,40.3-46.2c19.8-8.6,42.8-10.5,64.8-9.4c23.6,1.2,46.6,6.1,69,12.2c23.4,6.4,46.2,14.6,67.9,24.4
	c19.3,8.8,34.9,17.9,52.5,30c19,13.1,36.7,27.8,52.6,43.5c35.8,35.3,61,76,82.1,118.6c14.7,29.6,28.6,59.5,43.2,89.1
	c-18.4-27.9-37.8-55.4-58.3-82.3c-13.5-17.7-27.4-35.1-41.7-52.3c-13.8-16.6-28-33.1-43.9-48.4c-17.1-16.4-36.1-31.1-57.8-43
	c-19.3-10.7-41.5-21.1-65.5-18.3c-9.1,1-18.1,3.9-25.3,8.8c-8.2,5.6-12,13-15.2,21.2c-3,7.6-6.5,14.9-14.7,19.4
	c-6.2,3.4-13.5,4.8-20.8,5.6c-15.4,1.7-32.2,0-46.9,4.9c-6.9,2.3-12.5,6.4-15.6,12.1c-4.3,8-1.8,17.1,2.2,24.8
	c4.7,9,12,16.8,19.2,24.5c7.6,8.1,15.6,16.1,23.6,24c16.5,16.2,33.4,32.1,49.3,48.7c31.7,33.1,56.5,69.9,79.6,107.5
	c23.6,38.5,46.6,77.3,65.8,117.5c18.3,38.3,31.8,77.8,41.3,118.3c18.1,77.1,24.3,156.2,49.6,232.1c6.2,18.5,13.5,36.7,22.3,54.4
	c4.4,8.8,9.1,17.5,14.3,26c4.6,7.6,9.5,15.2,16.4,21.6c9.8,9,23.3,16.6,36.5,21.5c8.8,3.3,17.7,3.3,26.5,0.1c9-3.3,16.7-8.6,25.6-12
	c9.9-3.7,20.4-3.8,30.7-1.6c20.4,4.3,37.9,15.1,58.3,19.6c20.9,4.6,42.8,0.7,61.7-7.4c38.9-16.7,67.2-49.5,82.7-83.1
	c15.6-33.7,19.2-71.2,8.9-106.3c-9.8-33.2-31-63.6-60.1-87.5c-12.7-10.4-26.8-19.4-41.6-27.6C1556,1488.3,1526.1,1433,1497.9,1377.4
	z M1605,1541.6c2,1.4,4,2.8,6,4.2c7.4,5.5,14.3,11.3,20.7,17.6c12.9,12.8,23.7,27,32.1,42.2c17.1,31.2,22.6,66.1,16.1,100
	c-6.6,34.5-25.1,67.5-53.3,93.3c-14.6,13.3-32.2,24.7-52.4,31.3c-20.1,6.5-41,6.7-61-0.1c-18.2-6.2-35.8-16-55.7-17.7
	c-9.6-0.8-18.8,0.9-27.2,4.7c-8.3,3.7-15.9,8.9-25,11.4c-3.7,1-7.4,1.5-11.3,1.2c-6.1-6.6-10.6-14.1-15-21.6
	c-10.1-17.1-18.6-34.9-25.7-53c-28.3-71.8-36.1-147.8-50.9-222c-7.5-37.6-16.8-75-31-111.3c-15.2-39-35.1-76.5-56.5-113.4
	c-21.5-36.9-43.3-73.9-69.3-108.7c-25.8-34.5-58-64.4-89.3-95.3c-8-7.9-15.9-15.9-23.5-24.1c-6.7-7.2-13.4-14.6-17.5-23.2
	c-3.8-8-5-17.2,0.4-24.8c3.6-5.1,9.5-8.5,16.1-10.3c14.3-4,30-2.6,44.8-4.3c7-0.8,14.2-2.2,20.3-5.4c7.7-4.1,11.6-10.6,14.4-17.7
	c3.2-8,6.2-15.7,13.8-21.6c6.6-5.1,15.1-8.3,23.8-9.8c9.8-1.7,19.8-0.9,29.4,1.5c3.6,0.9,7.9,2.4,10.8,3.7c0.2,0.1,0.4,0.3,0.7,0.4
	c2.2,1.4,4.4,2.9,6.5,4.4c35.4,25.5,61.9,59.2,87.9,91.4c54.2,67.3,101.9,138.2,142.6,211.9c38.2,69.1,67.6,142.2,115.9,207.2
	c10.7,14.4,22.3,28.3,35,41.5c0.2,0.2,0.5,0.5,0.9,1c0,0,0,0,0.1,0.1c0.6,0.6,1.2,1.2,1.8,1.8c3.9,4,10.2,6.8,15.4,9.5
	c2.6,1.3,5.3,2.9,8.2,3.7C1604.3,1541.4,1604.6,1541.5,1605,1541.6z M1394,1829.7c0.1,0.1,0.3,0.3,0.4,0.4c1.6,1.7,3.4,3.2,5.1,4.7
	c4.1,3.8-17.1-6.8-10.9-6.1c1.1,0.1,2.3,0.6,3.4,0.7C1392.6,1829.6,1393.3,1829.7,1394,1829.7z M1189.3,968.4
	C1189.3,968.4,1189.2,968.4,1189.3,968.4c0,0,0.1,0,0.2,0.1C1189.4,968.5,1189.3,968.5,1189.3,968.4z M1189.4,968.5
	C1189.4,968.5,1189.4,968.5,1189.4,968.5C1189.4,968.5,1189.4,968.5,1189.4,968.5z M1189.2,968.4c-0.4-0.2-0.7-0.3-0.8-0.4
	C1188.3,967.9,1188.5,968,1189.2,968.4z M1728.4,1564.2c-0.9-0.6-1.8-1.1-0.6-0.5C1729.3,1564.5,1729.1,1564.5,1728.4,1564.2z
	 M1280.3,1889.9c0.9,0.8,2,1.5,2.8,2.3c2.2,2.4-7.5-4-7.7-4C1277,1888.5,1278.6,1889.2,1280.3,1889.9z M1617.7,1514
	C1617.6,1514,1617.6,1514,1617.7,1514C1617.6,1514,1617.6,1514,1617.7,1514z M1617.7,1514c0.2,0.1,0.4,0.2,0.6,0.3
	C1618.3,1514.4,1618.1,1514.3,1617.7,1514z"/>
<path class="accentcolor2" d="M1097,748.6c2.1,1,4.2,1.8,6.4,2.3c25.9,6.2,51.2,14.1,75.6,23.7c11.4,4.5,22.5,9.4,33.3,14.7
	c9.4,4.6,18.3,9.4,26.6,14.4c24.4,14.5,47.7,30.2,73.7,42.8c5.9,2.8,11.9,5.5,18,8c5.3,2.1,11.1,4.2,17.1,3.8
	c12.9-0.8,12.4-14.9,10.5-22.8c-4.7-19.5-23.7-34.2-39.8-47.6c-19.2-16-37.6-32.6-55.3-49.8c-35.3-34.3-67.6-70.9-96.4-109.2
	c-15-20-28.2-40.9-44-60.5c-7.4-9.1-15.5-17.8-24.7-25.7c-11.8-10.2-25.7-18.5-40-25.9c-0.5-0.3-10.2-4.8-10.4-4.2
	c-8.7,36,6.8,71.7,25.3,103.7c9.6,16.5,20.2,32.6,29.3,49.3c4.3,7.8,10.9,17.4,6.5,26.1c-3,5.9-9.9,9.5-16.3,12.5
	c-8,3.8-16.1,6.8-21.3,13.5c-5,6.4-5.6,13.3,1.4,18.7c5.1,4,11.4,7.2,17.5,10.1C1091.1,746.8,1096.6,749.2,1097,748.6z
	 M1062.8,522.3c0.8,0.6-2.5-1.6-0.4-0.2c-2.9-1.8,0.3,0.2,0.9,0.5c3.5,1.4,6.9,2.8,10.4,4.2c-0.3,1.1-0.5,2.2-0.7,3.3
	c-1.5-1.2-2.9-2.4-4.5-3.6C1066.7,525,1064.8,523.7,1062.8,522.3z M1097,748.6c-3.6-1.7-7-3.8-10.2-5.7c-2.4-1.4-5.4-3-7.4-4.7
	c0.3,0.2-2.6-2-0.7-1.6c4.8,1.1,9.6,2.4,14.4,3.6c-0.4,2.6,0.3,5.1,2.7,7C1096.9,748.1,1097.2,748.5,1097,748.6z M1093.2,740.3
	c0.5-3.5,2.7-7.1,4.8-9.5c4.9-5.7,11.8-8.6,18.9-11.8c6.3-2.9,13.3-6.2,17-11.6c5-7.3,1.2-15.2-2.5-22.2
	c-17.2-33.5-41.9-64.4-53.6-99.7c-6-18-8.5-36.9-4.8-55.5c2.6,2.2,5.1,4.4,7.4,6.7c7.6,7.4,14.4,15.4,20.8,23.6
	c13.1,16.9,24.6,34.7,37.3,51.8c27.8,37.3,58.8,72.9,92.6,106.4c17.1,16.9,34.9,33.3,53.5,49.2c16,13.8,35.4,27.1,44.5,45.2
	c3.7,7.4,7.2,20.4,0.7,27.6c-7.2,7.9-21.4,0.5-28.9-3.2c-3.5-1.7-5.6-2.9-9.2-5c-4.7-2.7-9.1-5.4-14.3-8.7
	c-11.1-6.9-22.2-13.9-33.6-20.5C1197.5,776.3,1147,754.6,1093.2,740.3z"/>
<path class="accentcolor2" d="M149.2,171l0.1,3.4c55.6,32.8,110.9,65.8,166.1,99.1c36.7,22.2,73.3,44.5,109.9,67c-9.5-0.5-18.8-2.6-27.5-6
	c-1.1-0.5-2.3-0.9-3.4-1.4c0,0,0,0,0,0c-0.2-0.1-1.9-0.9-2.6-1.2c0,0,0,0-0.1,0c0,0,0,0-0.1,0c-0.4-0.2-0.9-0.5-1.1-0.5c0,0,0,0,0,0
	c0,0,0,0,0,0c-0.4-0.2-0.7-0.4-1-0.6c0,0,0,0,0,0c0,0,0,0,0,0c0,0,0,0,0,0c0,0,0,0,0,0c0,0-0.1,0-0.1-0.1c0,0,0,0-0.1,0
	c-0.5-0.3-1.5-0.8-1.7-1c-2.9-1.6-2.8-1.6-5.4-3.2c-19-11.5-37.9-23.2-56.9-34.8c-8.4-5.1-17-10.2-24.8-15.9
	c-8.3-6.1-15.7-13-23.9-19.2c-18.1-13.8-39.2-24.7-60.6-34.4c-8.7-4-17.6-7.7-26.4-11.5c-3.8-1.6-8-3.4-11.4-5
	c-1.8-0.8-3.6-1.6-5.3-2.5c0,0-1.8-0.9-2.4-1.2c0,0-0.1,0-0.1,0c0,0,0,0-0.1,0c0,0,0,0,0,0s0,0,0,0c0,0,0,0,0,0c0,0,0,0,0,0
	c-0.5-0.3-1.2-0.6-1.6-0.8c-0.1-0.1-0.2-0.1-0.2-0.1c0,0,0,0-0.1,0c-0.3-0.1-0.5-0.3-0.8-0.4c0,0,0,0,0,0c-0.3-0.2-1.5-0.8-1.8-1
	c-0.3-0.2-0.4-0.3-0.5-0.3c0,0,0,0,0,0c0,0,0,0,0,0c0,0,0,0,0,0c-0.1-0.1-0.2-0.1-0.3-0.2c0,0,0,0,0,0h0c0,0,0,0,0,0
	c0,0-0.1,0-0.1-0.1c0,0,0,0,0,0c0,0,0,0,0,0c0,0,0,0,0,0c0,0,0,0,0,0c0,0,0,0,0,0v0c0,0,0,0-0.1-0.1c-0.2-0.1-0.6-0.4-1.1-0.7
	c-4-2.6-7.8-5.5-11.5-8.4c-0.7-0.5-1.4-1.1-2.1-1.6l0.1,5.4c0.6,0.4,1.2,0.8,1.9,1.1c19.7,12,41,21.8,62.7,31
	c8.4,3.6,18.1,7.7,25.1,11.2c0,0,0,0,0,0h0c0,0,0,0,0.1,0c0.4,0.2,2.8,1.5,3.3,1.7c0.1,0,0.1,0,0.1,0c0.7,0.4,1.6,0.9,1.8,1
	c0,0,0,0,0,0v0c0,0,0,0,0,0c3.8,2.3,7.6,5.1,11.2,7.9c8.6,6.8,16.7,14.1,25.8,20.5c9.5,6.7,19.7,12.9,29.8,19
	c22.3,13.6,44.3,27.6,67,40.8c21.8,12.6,46.7,26.7,74.1,27.5c2.1,0.1-4.9-4.4-5-4.5c-70-43.1-140.4-85.7-211.1-127.9
	C207.3,205.3,178.2,188.1,149.2,171z"/>
<path class="accentcolor2" d="M784.1,90.8c-20.8-0.6-41.6-1.4-62.4-2.2c-8.6,7.3-17.9,14.2-29.2,18.5c-12.6,4.9-26.6,6.3-40.3,5.5
	c-25.4-1.6-49.6-10.1-71.6-20.6c-2.3-1.1-4-1.9-5.7-2.8c-1.2-0.6-2.4-1.2-3.7-1.9c-0.2-0.1-1.3-0.7-1.9-1c0,0-0.1,0-0.1-0.1
	c0,0,0,0-0.1,0c0,0,0,0,0,0c0,0,0,0,0,0c0,0,0,0,0,0c0,0,0,0,0,0c0,0,0,0,0,0c0,0,0,0,0,0l0,0c0,0,0,0,0,0c-4.9-2.6-7-3.8-11.7-6.5
	c-0.4-0.2-0.8-0.5-1.2-0.7c-2.1-0.2-4.3-0.3-6.4-0.5c7.6,4.4,15.2,8.7,23.1,12.8c39,20.5,93.4,46.6,140.6,31.7
	c-0.6,1.1-1.1,2.2-1.6,3.3c-3.2,6.5-5.7,13.2-8,20c-2.1,6-4.4,12.2-8.5,17.5c-8.5,10.9-23.3,14.1-38,13.1
	c-15.7-1.1-31.2-5.5-45.9-10c-15-4.6-29.8-9.9-44-15.9c-7.2-3-13.9-6.1-20.8-9.4c-1.6-0.7-3.1-1.5-4.7-2.3c0,0,0,0,0,0c0,0,0,0,0,0
	h0c0,0,0,0,0,0h0c0,0,0,0,0,0c-0.1,0-0.2-0.1-0.4-0.2c-0.1,0-0.2-0.1-0.3-0.1c-0.9-0.4-1.8-0.9-2.6-1.3c-1.8-0.9-3.5-1.8-5.2-2.7
	c-0.7-0.3-1.3-0.7-2-1c0,0-1.2-0.6-1.9-1c0,0,0,0,0,0c-0.1,0-0.1-0.1-0.2-0.1c-0.1,0-0.1-0.1-0.2-0.1c0,0-0.1,0-0.1,0c0,0,0,0,0,0
	c0,0-0.1,0-0.1,0c-3-1.6-6-3.2-8.9-4.8c-0.8-0.5-1.6-0.9-2.5-1.4c0,0-0.1,0-0.1-0.1c0,0-0.1-0.1-0.2-0.1c0,0,0,0-0.1,0
	c-0.1,0-0.1-0.1-0.2-0.1c-1.9-1.1-3.8-2.2-5.7-3.3c-1.7-1-3.4-2-5.1-3c-0.9-0.5-1.7-1-2.5-1.5c-0.1,0-0.5-0.3-0.9-0.5c0,0,0,0,0,0
	c0,0,0,0-0.1,0c0,0-0.1,0-0.1-0.1c0,0,0,0,0,0c0,0-0.1,0-0.1,0c0,0,0,0,0,0c0,0,0,0-0.1,0c0,0,0,0,0,0c-3.2-1.9-6.4-3.9-9.6-5.8
	c-22.8-14-44.9-29-66.8-44.1c-2.7-0.3-5.4-0.5-8.1-0.8c19.4,13.3,38.9,26.4,59,38.8c56.1,34.6,117.6,67,185.4,82.3
	c13.6,3.1,29.2,5.2,42.8,0.9c4.5-1.4,8.2-3.5,11.2-6c-6.5,15.5-16.4,29.6-34.6,37.9c-14.6,6.7-30.9,6.2-45.4-0.4
	c-15.4-7-32.9-16.9-48.9-25.2c-8.3-4.3-16.5-8.5-24.8-12.8c-6.6-3.4-13.6-7.2-20.2-11.1c-5.5-3.3-12.8-8.1-18.6-12.4
	c-6.9-5.2-13.4-10.6-19.8-16.3c-12.9-11.4-25.1-23.2-38.1-34.5c-12.4-10.7-25.5-20.9-39.1-30.6c-5.4-3.9-11-7.7-16.5-11.5
	c-2.8-0.3-5.6-0.6-8.4-0.8c2.2,1.5,4.3,3.1,6.5,4.6c13.3,9.7,26.2,19.9,38.3,30.6c12.9,11.4,25.1,23.3,38.2,34.5
	c28.7,24.7,63.1,42.9,97.9,60.9c17.2,8.9,34.3,17.7,51.5,26.6c15.8,8.1,33.8,18.4,53.2,17.5c15-0.7,26.7-6.5,35.8-15
	c0,7.3,0.2,14.6,0.6,21.9c0,0,0,0,0,0c-0.4,2.7-1.1,5.4-2.3,7.9c-3.1,6.8-9.6,11.1-17.2,14.1c-17.3,6.7-37.5,11.1-56.6,10.9
	c-9.5-0.1-19.1-1.4-27.9-4.3c-1.9-0.6-3.6-1.3-5.4-2.1c-0.4-0.3-1.3-0.8-1.7-1c-1.7-1.1-3.4-2.1-5.1-3.2
	c-16.8-10.7-33.4-21.6-50.1-32.4c-31.5-20.4-64.8-39.8-92.6-63.8c-25.5-22-43.7-48.8-66.3-72.7c-14.7-15.6-31.8-29-50.5-40.6
	c-2.5-0.3-4.9-0.5-7.4-0.8c13.5,9.2,25,20.3,35.6,31.9c22.4,24.5,41.4,51.1,67.5,73.1c28.5,24,62.1,43.8,94,64.5
	c16.7,10.8,33.4,21.6,50.1,32.4c17.9,11.6,37.2,23.7,58.8,29.8c18,5.1,37.6,4.3,55.9,0.6c8.7-1.8,17.4-4.1,25.6-7.1
	c0.7,3.9,1.3,7.7,1.7,11.6c0.6,6.7,0.4,14.5-5.1,19.8c-6.8,6.6-19.8,7-29.4,7.3C651,324,611.8,303.4,576.1,285
	c-19.9-10.2-37.3-19.2-55.8-30.2c-17.9-10.7-35.2-22.9-51.4-35.6c-35-27.4-67.9-56.5-102.8-83.9c-36.1-28.3-73.6-55.4-115.9-77.1
	c-9.2-4.7-18.5-9.1-28-13.2c-5.8-0.7-11.6-1.5-17.3-2.2c12.8,4.6,25.4,9.5,37.7,15.1c3.8,1.7,8.4,3.9,11.5,5.5
	c5.1,2.6,7.5,3.9,11.6,6.3c8.1,4.7,16.4,10,24.4,15.4c18.2,12.4,35.6,25.6,52.7,39c35,27.4,67.8,56.6,102.8,83.9
	c36.8,28.8,77.7,52.7,120.3,74.9c20.5,10.7,41.1,21.4,62.3,31.1c19.7,8.9,40.6,17,62.6,20.9c10.6,1.9,21.5,2.7,32.4,2.2
	c9.1-0.5,21-1,27.4-7.2c5.7-5.5,5.8-13.6,5-20.4c-0.8-7.8-2.6-15.5-3.7-23.3c-1.1-8.1-1.8-16.3-2.3-24.5c0,0,0,0,0,0c0,0,0,0,0,0
	c0.7-4.2,0.6-8.6,0.4-12.9c-0.3-6.4-0.6-12.8-0.8-19.2c0,0,0,0,0,0c0.5-15.1,2.1-30.1,4.5-45C759.1,152.3,768.7,120.5,784.1,90.8z
	 M614,273.5c0.3,0.2,0.4,0.2,0.2,0.1c0,0,0,0,0,0C615,274,616.1,274.7,614,273.5z M614,273.5 M614,273.5"/>
<path class="accentcolor2" d="M1752,161.3c1.5-73.5,1.6-79.7,0.5-22.9c-3-3.8-7.7-6.6-12.1-9.2c-7.9-4.7-17.2-10.3-27.1-11.6
	c-6.2-0.8-12.5-0.1-18.7,0.8c-14.6,1.9-29.4,4-43.3,8.5c-14.9,4.9-27.5,13.2-42.2,18.5c-24.7,8.9-46.9,23.7-61.6,42.7
	c-7.4,9.6-13.1,20.2-15.2,31.5c-2.1,11.6-0.2,23.2,3.9,34.4c0.4,1.1,2.2,2.2,3.2,2.8c2.8,1.9,5.9,3.7,9,5.3c3.1,1.7,6.2,3.3,9.5,4.7
	c1.3,0.5,2.9,1.5,4.4,1.3c24.6-2.9,36.5-25.4,52.6-38.6c21-17.2,48.9-28.3,75.2-38.5c13.4-5.2,27.4-9.3,40.6-14.8
	C1739.1,172.7,1747.3,168,1752,161.3z M1635.2,159.5c12.1-4.4,22.7-10.9,34.5-15.7c10.8-4.4,22.4-7,34.1-8.9
	c8.6-1.4,17.2-3,25.9-3.2c0.1,0.6,0.2,1.3,0.2,1.9c0.2,4.2-0.9,8.5-3.2,12.3c-5.3,8.9-16.4,14-26.8,17.9c-13,4.8-26.2,9.1-39.1,14.2
	c-24.2,9.5-49.3,19.8-69.2,35.1c-9.8,7.5-17.2,16.7-25.9,25c-2.5,2.4-5.2,4.8-8.1,6.9c-0.1-3.6,0.1-7.1,0.7-10.7
	c2-11.6,7.8-22.4,15.3-32.1C1588.2,183.2,1610.5,168.3,1635.2,159.5z M1729.7,131.8c-0.3-1.6-0.7-3.1-1.5-4.6
	c-0.5-0.9-1.1-1.6-1.7-2.5c-0.3-0.4-0.8-0.7-1.1-1.1c5.4,3,10.9,6,16.3,9c-0.2,0-0.4-0.1-0.5-0.1
	C1737.3,131.9,1733.5,131.7,1729.7,131.8z M1557.5,245c0.2,7.8,2,15.5,4.7,23.1c-8.7-4.7-17.4-9.5-26.1-14.2
	C1544.5,252.9,1551.4,249.4,1557.5,245z M1635.2,159.5c-1.2,0.4-3.4-0.9-4.4-1.3c-3.3-1.4-6.4-3-9.5-4.7c-3-1.6-6.1-3.4-8.9-5.3
	c0.3,0.2-3.8-2.7-3.3-2.9c1.2-0.4,3.4,0.9,4.4,1.3c3.3,1.4,6.4,3,9.5,4.7c3,1.6,6.1,3.4,8.9,5.3
	C1631.7,156.5,1635.7,159.3,1635.2,159.5z M1631.9,156.6C1631.9,156.6,1631.9,156.6,1631.9,156.6
	C1631.9,156.6,1631.9,156.6,1631.9,156.6z M1612.4,148.2 M1612.4,148.1C1612.4,148.1,1612.4,148.1,1612.4,148.1
	C1612.4,148.1,1612.4,148.1,1612.4,148.1z M1612.4,148.1"/>
<path class="accentcolor2" d="M1741,711c-0.5,27.4-0.5,26.3,0.2-10.6c-22.9-21.1-46.3-41.8-69.3-62.4c-95-85.3-190.6-176.7-228.6-291.8
	c-17.9-54.2-22.3-112.8-4.1-167.3c9-26.9,24.3-51.8,47.5-72.1c21.9-19.2,48.8-34,76.1-47.4c0.7-0.3,1.4-0.7,2.1-1
	c-22.2,2.5-44.2,4.8-66,7c-17.4,10.3-33.7,22-47.3,35.8c-44.6,44.9-54.4,109.4-48.5,165.8c12.6,120.3,98.3,222.5,191.2,310.1
	C1642,622.3,1693.2,665.6,1741,711z"/>
<path class="accentcolor2" d="M1741.8,669.8c-1,50.6-1,48.6,0.2-9.8c-25.1-22.9-49.7-46.2-73.7-69.8c-40.8-40.2-80.6-81.5-116.2-125
	c-34.1-41.6-64.1-86.6-79.3-135.8c-13.1-42.3-14.1-87.8,1-129.9c15.1-42.2,47-77.9,92.5-100.2c47.4-23.2,102.8-31.7,156.6-37.4
	c10.4-1.1,20.8-2.1,31.3-3.1c0.4-22.5,0.5-23.2,0.3-16.3c-105.1,7.7-231.5,19.8-288.2,105.6c-25.5,38.6-33.4,84.4-28.1,127.9
	c5.9,48.3,28.9,94.3,57.9,135.9c31.6,45.5,70.5,87.3,110,128.1c41.6,42.9,85.3,84.4,130.3,124.8
	C1738.1,666.5,1740,668.2,1741.8,669.8z"/>
<path class="accentcolor2" d="M1742.4,639.2c-1.2,60.3-1.2,57.6,0.2-10.2c-23.9-22.6-46.8-46-68.7-70c-32-35.3-61.7-72.1-88.9-110.2
	c-29.7-41.6-59.8-85.4-72.3-133.2c-12-46-4.8-95.8,32.9-132.3c17.7-17.2,39.7-31.2,62.6-43.2c22-11.5,45.4-21,69.8-28.3
	c24.3-7.3,49.6-12.5,75.3-15.3c1-49,1-51.3,0.3-16.3c-22.1,1.1-44.1,3.9-65.5,8.3c-51.5,10.6-100.8,30.6-141.8,59
	c-22.1,15.3-41.1,33.5-52.2,55.9c-10.9,22-14.2,46.2-12.2,69.8c4.2,50.2,32.5,96.3,61.6,139.3c26.7,39.5,56.1,77.7,88.1,114.4
	c31.9,36.7,66.4,71.8,103,105.2C1737.1,634.5,1739.8,636.8,1742.4,639.2z"/>
<path class="accentcolor2" d="M1747.2,401.4c1.9-96.5,4-201,4.1-205.1c-0.9,2.1-1.7,4.1-2.5,6.2c-10.2,25.7-15.9,52.5-17.7,79.5
	C1728.3,322.3,1734.5,362.6,1747.2,401.4z"/>
<path class="accentcolor2" d="M1743.4,590.7c-1.3,64.8-1.2,61.3,0.2-10.1c-20.5-19.1-40.4-38.7-59.7-58.7c-15.2-15.7-31.1-31.6-41.6-50
	c-11.3-19.7-13.3-41.4-14.6-62.9c-1.4-22.9-1.9-45.9-1.6-68.9c0.1-5.6,0.2-11.2,0.4-16.8c0.1-4.2-0.3-9.2,3.3-12.6
	c1.4-1.3,3.2-2.2,5.1-2.7c4.4,8.1,7.3,17,10.8,25.4c4.1,9.7,8.2,19.3,12.5,29c8.6,19.5,17.5,38.8,27,57.9
	c17.5,35.3,37,70.2,59.5,103.5c-0.9,46.2-0.7,34.4,0.5-26.6c-12.6-21.4-24.2-43.2-35.1-65.1c-9.7-19.7-18.8-39.5-27.6-59.5
	c-4.4-10.1-8.7-20.2-13-30.3c-3.6-8.5-6.3-17.9-11.8-25.7c-3.1-4.5-7.7-7.8-12.6-10.9c-7.3-4.5-15.8-9.6-24.6-11.9
	c-7.8-2-17.5-0.2-19.5,7.2c-1.4,4.9-0.8,10.6-0.9,15.7c-0.2,6.1-0.3,12.2-0.3,18.4c-0.1,11.2,0.1,22.5,0.5,33.7
	c0.7,22,0.8,44.8,6.5,66.3c5.4,20.3,18.2,37.8,33.1,54.2c30.2,33.3,63.2,65,97.1,95.6C1739.2,587,1741.3,588.9,1743.4,590.7z"/>
<path class="accentcolor2" d="M1869.4,1190c3.6-34.2-2.7-68.8-18.2-99.6L1788.1,961c-13.4-27.1-24.2-55.5-32.2-84.7
	c-8.6-12-17.8-23.7-27.5-35.2c-23.4-27.7-49.5-53.7-77.9-77.8c-30.6-26-64.4-48.7-98.3-71.5c-36.4-24.6-69.5-51-97.7-82.5
	c-26.8-29.9-50.1-62-72.6-94.3c-46-66.3-86.2-136.2-109.5-210.6c-22.3-71.4-28.7-147.5-9.8-219.9c-9.9,0.6-19.9,1.1-29.9,1.6
	c-11.2,53.5-8.9,109.1,2.6,162.3c16.3,75.4,51.7,146.9,94.7,214.1c21.7,33.9,45.1,67.1,70.2,99.3c24.7,31.6,52.2,61.8,85.2,87.8
	c33.7,26.5,71.6,48.7,106.1,74.3c31.8,23.6,61,49.5,87.3,77.4c53.8,56.9,94.8,121.4,122.5,190.3
	C1826.8,1055.1,1844,1124.3,1869.4,1190z"/>
<path class="accentcolor2" d="M1743,809.1c-0.7-5.8-1.2-11.7-1.6-17.5c-49.8-53.7-106.2-103.5-160.4-153.7c-47.4-43.9-94.2-88.6-134.9-137.1
	c-22.8-27.1-43.8-55.4-60.1-85.7c-17.8-33-28.3-67.8-32.6-103.8c-4.1-33.9-3.9-68.4-1.8-102.4c1.8-28.6,6-57.7,17.9-84.7
	c8.3-18.9,20.7-36.1,37.3-50.1c-14.7,1.3-29.3,2.4-43.9,3.6c-37.7,46-38.7,108.7-38.7,162.4c0,35.5,2.7,71.2,12.8,105.8
	c9.6,33,26.2,64.2,46.4,93.6c36.7,53.3,83.6,101.4,131.8,147.6C1591.7,660.3,1675.4,729.7,1743,809.1z"/>
<path class="accentcolor2" d="M1835.8,1542.2c0.4-4.5,0.9-9.1,1.3-13.6c-17.7-0.2-35.4-0.8-53.1-2.2c-31.7-2.5-63.4-7.5-92.9-17.8
	c-24.8-8.6-44.7-21.6-63-38c-89.5-80-106.5-193.1-141.8-294c-17.6-50.3-41.6-98.3-76.8-141.7c-32.6-40-73-75.5-118.7-105.1
	c-49.4-32-104-58.1-162.5-76.4c-32.4-10.1-65.6-18.5-98-28.6c-27.1-8.5-55.2-17.6-78.7-32.1c-22.4-13.8-41.9-31.5-55.5-51.9
	c-7.1-10.7-12.6-22.1-15.7-34.1c-3.1-11.7-2.8-24.2,9.2-32.3c9.8-6.7,22.8-9,34.5-12.3c11.2-3.2,21.5-7.5,29.8-14.7
	c16.8-14.5,22.3-35.6,24.1-55.1c2.1-23.6-1.3-47.1-2.8-70.6c-2-30.7-2.2-61.6-0.6-92.3c1.6-31.2,5.1-62.3,10.5-93.1
	c0.7-4,1.4-7.9,2.2-11.9c0.1-0.8,0.5-4.5,0.9-4.7c0.8-0.6,5-0.2,6.4-0.2c6.6,0.1,13.2,1.1,19.4,3.1c0.3,0.1,0.6,0.2,0.9,0.3
	c-0.3-0.3-0.7-0.6-0.9-1c0.2,0.3,0.6,0.6,1,1c4,1.4,2.2,1.5,0.3,0.3c1.7,1.3,4.1,2.6,5.3,3.6c5.3,4.2,10.1,8.9,14.7,13.7
	c19.9,21,35.8,44.9,53.5,67.2c19.4,24.4,39.3,48.5,59.7,72.3c41.2,47.8,84.5,94.4,130,139.4c86.4,85.7,182.4,166.5,244.3,267.1
	c62.2,101.1,91.1,213.2,140.2,318.7c40,85.9,95.7,171.1,183.4,228c0.1-1.5,0.3-3,0.4-4.5c-17.8-13.2-33.9-28.1-48.8-43.5
	c-40.2-41.6-70.6-89.2-95.6-138.4c-53.4-104.9-81.6-217.6-138.9-321.2c-29-52.4-66.6-100.3-109.2-145.6
	c-42.3-44.9-88.5-87.2-133-130.6c-46.1-44.8-90.1-91.1-132-138.8c-21.5-24.5-42.5-49.4-62.8-74.6c-18.8-23.3-36.1-47.6-55.3-70.7
	c-17.9-21.5-39.8-38.8-67.3-51.4c-11.5-5.3-23.8-9-37-8.7c-0.1,0-3.3,0-3.8,0.2c-1.8,0.9-1.6,2.8-1.9,4.8c-0.7,3.6-1.3,7.1-1.9,10.7
	c-1.5,8.3-2.8,16.6-4,25c-8.8,62.1-9.7,124.5-4.1,186.8c3.3,36.9,6.4,91.8-40.7,111.1c-20.9,8.6-56.4,9.6-57.9,34.9
	c-0.7,11.8,4.6,24.4,9.9,35.1c5.5,11.2,13,21.6,21.7,31.2c38.1,42,97.8,70.1,155.4,89.1c61,20.1,125.3,33.1,182.9,60.2
	c102,47.9,179.6,131.6,220.1,222.8c45.7,102.8,54.3,217.9,130.9,310.1c35.2,42.3,85.5,76.9,142.8,96
	C1754.6,1535.9,1795,1540.6,1835.8,1542.2z M1013.9,321.9 M1013.9,321.9C1013.9,321.9,1013.9,321.9,1013.9,321.9
	C1013.9,321.9,1013.9,321.9,1013.9,321.9z M1013.9,321.9"/>
<path class="accentcolor2" d="M1837.7,1523c0.4-3.8,0.7-7.6,1.1-11.4c-0.6-0.1-1.2-0.1-1.8-0.2c-31.4-3.6-63-8.4-93.4-16.2
	c-13.8-3.5-27.5-7.8-40.4-13.3c-9.9-4.2-18.1-9.8-25.9-16.4c-40.1-33.7-57.8-81.7-73-126.3c-17.9-52.6-32.9-106-55.2-157.5
	c-36.2-83.6-94.8-158.7-169.2-221.8c-76.1-64.6-168-117.1-266.1-155.2c-23.5-9.1-47.4-17.3-71.8-24.6c-6.2-1.9-12.4-3.6-18.6-5.6
	c-4.9-1.6-9.9-4.2-14.9-5.6c-0.4-0.3-0.8-0.6-1.1-0.9c-2.1-1.8-4.1-3.8-5.8-5.9c-3.1-3.9-5.2-8.4-6.4-13c-2-8.2-1.2-17.4,3.8-24.8
	c2.2-3.2,5.3-6,9-8.1c5.6-3,12.3-3.5,18.5-5.3c25.1-7.6,15.1-36.5,11.3-52.4c-12.9-54.5-16.1-110.7-9.4-165.9
	c0.8-6.9,1.8-13.7,3-20.6c1-6.1,1.7-12.8,5.6-18.1c2.8-3.8,7.5-6.6,12.9-7.2c3-0.3,5.8,0.2,8.6,0.8c0.4,0.3,0.8,0.6,1.2,0.9
	c21.4,17.3,42.4,35,63.3,52.7c84.5,71.4,166,147.3,223,236.5c30.6,47.9,52.3,99.3,81.3,147.9c28.3,47.4,66.5,90.2,94,138
	c28.1,48.8,42.4,101.8,60.8,153.5c16.9,47.5,38.5,93.8,68.5,136.6c29.3,41.9,66.2,80,110.8,111.1c25.1,17.5,52.4,33.3,81.3,46.6
	c0.1-1.3,0.3-2.6,0.4-3.9c-10.2-4.2-20.1-8.9-29.7-14c-47.9-25.6-87.3-62.6-118.8-101.9c-33.4-41.7-58.6-87.9-77.3-135.5
	c-20-51-33.2-103.9-57.1-153.9c-23.9-50-61.6-93.6-92.8-140.3c-32.4-48.6-54.5-101.2-83.7-151.1c-54.1-92.2-135-170.5-220.1-243.4
	c-21.3-18.3-43-36.3-64.7-54.3c-11.1-9.1-21.8-18.3-34.6-25.7c-10.9-6.3-26.2-16.1-40.4-14.4c-15.2,1.7-17,16.1-18.7,26.3
	c-2.3,14-4,28.1-5,42.2c-2.1,28.3-1.5,56.6,1.5,84.8c1.6,14.4,3.8,28.8,6.7,43.1c2.4,11.8,6.3,23.6,7.9,35.5
	c1.2,8.9,1.3,19.7-6.1,26.8c-8.1,7.8-21.9,6-31,12.5c-15.8,11.3-13.3,33.8-1.8,46.7c9.3,10.4,23.3,18,36.4,24.6
	c12.6,6.4,25.9,11.2,39.8,15.4c49.9,15,98.3,32.5,144.3,54.8c42.8,20.7,83.2,45.3,120.9,73.5c78.9,58.9,144.1,131,186.8,212.2
	c26.4,50.2,43.1,103.3,60.2,156.1c15.3,47.1,29.1,97.2,60.9,138.8c32.8,42.9,88.5,70.8,146,84.8
	C1793.8,1515.7,1815.6,1519.8,1837.7,1523z"/>
<path class="accentcolor2" d="M158.1,617.7l0.1,4.8c12.1,7.9,24.4,15.6,36.9,23.1c22.7,13.6,46,26.5,69.9,38.6c21,10.6,42.5,20.4,63.7,30.6
	c2.6,1.2,5.2,2.5,7.7,3.7c1.3,0.6,2.6,1.2,3.8,1.9c0.2,0.1,0.4,0.2,0.6,0.3c0,0,0,0,0,0c0,0,0,0,0,0c0,0,0,0,0,0c0,0,0,0,0,0
	c0,0,0,0,0,0c0,0,0,0,0.1,0c0.1,0,0.2,0.1,0.2,0.1c0,0,0.1,0,0.1,0.1c0,0,0.1,0,0.1,0h0c0,0,0.1,0,0.1,0c2.3,1.1,4.6,2.3,6.9,3.5
	c1.3,0.7,2.5,1.3,3.8,1.9c0.5,0.3,1.1,0.6,1.6,0.8c0,0,0.1,0,0.1,0.1c0.1,0.1,0.2,0.1,0.3,0.2c0.1,0,0.1,0.1,0.2,0.1c0,0,0,0,0.1,0
	c0.1,0.1,0.3,0.2,0.5,0.3c8.8,4.7,13.5,7.3,22.2,13c16.8,11.1,34.2,24.5,45,40.2c4.5,6.6,8.4,15.6,4.9,23.1
	c-4.3,9.3-17,8.8-26.8,7.5c-11.8-1.5-23.3-4.5-34.1-8.8c-2-0.8-3.9-1.6-5.9-2.5c-2-0.9-3.5-1.6-4.5-2.2c-0.5-0.3-0.9-0.5-1.1-0.6
	c0,0,0,0,0,0c0,0,0,0-0.1,0c-0.1,0-0.1-0.1-0.1-0.1c0,0,0,0,0,0c-0.7-0.4-1.8-1.1-1.9-1.1c-0.1,0-0.4-0.2-0.7-0.4
	c-0.1,0-0.2-0.1-0.2-0.1c0,0,0,0,0,0c0,0-0.1,0-0.1-0.1c0,0-0.1,0-0.1,0c0,0,0,0,0,0v0c0,0,0,0,0,0c0,0,0,0,0,0h0
	c-1.5-0.9-3-1.8-4.4-2.7c-18.3-11.7-35.4-25.6-52.2-39c-17.7-14.1-35.1-28.4-52.4-42.8c-28-23.3-55.8-46.8-83.9-69.9l0.2,8.3
	c20.2,16.8,40.2,33.7,60.4,50.4c18.1,15,36.2,29.9,54.7,44.6c18.5,14.7,37.2,29.4,57.5,42.3c22.3,14.2,46.8,27.5,73.6,34.9
	c10.9,3,24.2,6.2,35.7,4.6c10.4-1.4,15-8.9,13.8-17.2c-1.2-8.4-6.5-15.8-12.5-22.5c-7-7.8-14.9-15.1-23.3-21.8
	c-19-15.3-40.8-28.2-63-40c-21.4-11.4-43.6-21.7-65.7-32.2c-10.5-4.9-20.9-9.9-30.2-14.6c-11.7-5.9-19.8-10.2-31.6-16.8c0,0,0,0,0,0
	c0,0,0,0-0.1-0.1l-0.2-0.1l-2.3-1.3c-0.9-0.5-1.8-1-2.7-1.5c-2.7-1.5-5.4-3.1-8.1-4.6c-5.8-3.4-9.6-5.7-15.6-9.3
	c-10.1-6.2-20.1-12.6-29.9-19.2C165.5,622.8,161.8,620.3,158.1,617.7z"/>
<path class="accentcolor2" d="M157.4,582.2l0.1,6.4c14.2,10,29.1,19.3,44.7,27.8c26,14.2,53.4,26.3,81.2,37.9c13.3,5.5,26.5,11,39.7,16.6
	c12,5.2,24.3,10.8,34.8,16.3c0.4,0.2,0.9,0.5,1.3,0.7c0,0,0,0,0,0c0,0,0.1,0,0.1,0.1c0,0,0.1,0,0.1,0c0,0,0,0,0.1,0
	c0.1,0.1,0.2,0.1,0.4,0.2c1.2,0.7,2.4,1.3,3.7,2c0,0,0,0,0,0c0,0,0,0,0,0c0.3,0.2,1.6,0.9,2.1,1.2c1.4,0.8,2.7,1.6,4,2.4
	c0,0,0,0,0,0c0,0,0,0,0.1,0h0c0,0,0,0,0.1,0c0,0,0,0,0,0c0,0,0.1,0,0.1,0.1c0,0,0.1,0,0.1,0.1c0,0,0.1,0,0.1,0.1c0,0,0.1,0,0.1,0.1
	c0.6,0.4,1.2,0.7,1.7,1.1c1.2,0.7,2.3,1.4,3.5,2.2c2.3,1.5,4,2.6,6.6,4.3c9.7,6.5,19,13.4,27.8,20.7c36.5,30.1,65.6,66.5,85.4,106.1
	c5,10.1,9.4,20.3,13.1,30.8c3,8.4,9.9,22.4-1.5,28.5c-5.5,3-13.2,3.1-19.4,2.8c-6.7-0.3-13.4-1.4-19.8-3.2c-2.8-0.8-5.7-1.8-8.4-2.8
	c-1.4-0.5-2.7-1.1-4-1.7c-0.2-0.1-1-0.5-1.5-0.7c0,0,0,0,0,0c0,0-0.1,0-0.1,0c0,0-0.1,0-0.1,0c0,0-0.1,0-0.1,0c0,0,0,0,0,0v0
	c0,0,0,0,0,0c0,0,0,0-0.1,0c-0.1,0-0.1-0.1-0.2-0.1h0c0,0-0.1,0-0.1,0c0,0-0.1,0-0.1,0c0,0-0.1-0.1-0.2-0.1c0,0,0,0,0,0
	c-0.1,0-0.1-0.1-0.2-0.1c-0.4-0.2-0.9-0.5-1.2-0.7c0,0,0,0,0,0c0,0,0,0,0,0c0,0,0,0,0,0c0,0,0,0,0,0c0,0,0,0,0,0c0,0,0,0-0.1,0
	c0,0-0.1-0.1-0.1-0.1c-0.5-0.3-1.1-0.6-1.6-0.9c-0.5-0.3-0.9-0.5-1.4-0.8c0,0,0,0,0,0c0,0,0,0,0,0c0,0-0.1,0-0.1-0.1c0,0,0,0,0,0
	c0,0,0,0,0,0c0,0,0,0,0,0c-0.1-0.1-0.3-0.2-0.5-0.3c-1.7-1-3.4-2.1-5-3.1c-51.4-32.3-102.2-66-153.2-99
	c-44.3-28.7-89.1-57.1-129.9-89.3l0.1,6.6c32.4,23.8,66.5,46,100.7,68.1c52.6,34,105.1,68,157.6,102c13.6,8.8,27.4,17.3,42.1,24.7
	c13,6.6,26.9,12.8,42,15.4c10.1,1.7,29.8,3.6,35.7-5.8c2.9-4.6,1.6-10.4,0.1-15.2c-1.6-5.3-3.5-10.5-5.5-15.7
	c-15.9-41.3-41.8-79.8-75.5-112.7c-38.4-37.4-86.3-66.1-137.8-89.4c-26-11.8-52.9-22.2-79.1-33.6c-6.1-2.7-12.1-5.4-18.1-8.2
	c-2.8-1.4-5.6-2.7-7.4-3.6c-1.6-0.8-3.3-1.7-4.9-2.5c-0.5-0.3-1-0.5-1.5-0.8c0,0,0,0-0.1,0c0,0,0,0,0,0c0,0-0.1,0-0.1-0.1
	c0,0,0,0,0,0c0,0-0.1,0-0.1-0.1c0,0,0,0-0.1,0c0,0,0,0-0.1,0c0,0-0.1,0-0.1-0.1c-0.2-0.1-0.5-0.3-0.7-0.4c-0.9-0.5-1.8-1-2.7-1.5
	l-0.9-0.5l-0.1-0.1l-0.2-0.1c0,0,0,0,0,0l-0.1-0.1c0,0,0,0,0,0c-0.4-0.2-0.7-0.4-0.7-0.4c-0.7-0.4-1.4-0.8-2-1.2
	c-0.9-0.5-1.8-1-2.7-1.6c-0.1-0.1-0.2-0.1-0.2-0.1c0,0,0,0-0.1,0c0,0,0,0,0,0c0,0,0,0,0,0c0,0,0,0,0,0c0,0,0,0-0.1,0
	c0,0-0.1,0-0.1-0.1c-1.4-0.8-2.8-1.7-4.1-2.6c-5.3-3.3-10.5-6.8-15.5-10.5C170.2,592.3,163.7,587.3,157.4,582.2z"/>
<path class="accentcolor2" d="M155.5,489.8l0.1,5.7c13.2,9.9,25.7,20.4,37.5,31.5c23,21.6,41.7,46.2,65.5,67.2c25.9,22.9,58.4,40.1,90.9,55.6
	c14.6,6.9,29.4,13.5,44,20.2c3.4,1.6,6.8,3.2,10.2,4.8c1.8,0.9,3.6,1.7,5.4,2.6c0,0,0.5,0.2,0.8,0.4c0.1,0.1,0.2,0.1,0.3,0.2
	c0,0,0,0,0,0c0,0,0,0,0.1,0v0c0,0,0,0,0,0c0,0,0,0,0,0c0,0,0,0,0,0l0,0c0,0,0,0,0,0c0,0,0,0,0,0c0,0,0,0,0,0
	c0.9,0.4,1.8,0.9,2.6,1.3c1.4,0.7,2.8,1.5,4.3,2.2c0,0,0.1,0,0.1,0c0,0,0,0,0.1,0c0,0,0.1,0,0.1,0c0.1,0.1,0.2,0.1,0.3,0.1
	c0.6,0.3,1.2,0.7,1.9,1c1.2,0.6,2.4,1.3,3.5,1.9v0h0c0,0,0,0,0,0c0,0,0,0,0.1,0h0c0,0,0,0,0,0c0,0,0,0,0,0c0,0,0,0,0.1,0
	c0,0,0.1,0.1,0.2,0.1c0.1,0,0.1,0.1,0.2,0.1c0,0,0,0,0,0c0.1,0,0.1,0.1,0.2,0.1c0.1,0,0.1,0.1,0.2,0.1c0,0,0.1,0,0.1,0.1
	c0,0,0.1,0,0.1,0.1c1,0.6,1.9,1.1,2.9,1.7c0.8,0.4,1.6,0.9,2.3,1.4c0.1,0.1,0.6,0.3,1,0.6c0,0,0,0,0.1,0c0,0,0.1,0,0.1,0.1
	c0,0,0,0,0.1,0c0,0,0.1,0,0.1,0.1h0c0.1,0,0.1,0.1,0.2,0.1c0,0,0.1,0.1,0.1,0.1c0,0,0,0,0.1,0c0.4,0.3,0.9,0.6,1,0.6
	c0.6,0.3,1.1,0.7,1.7,1c3,1.9,5.9,3.7,8.2,5.2c5.7,3.7,11.3,7.6,16.8,11.5c11.6,8.4,22.6,17.4,33,26.8c20.4,18.6,38.5,39,53.6,60.9
	c29.6,43.2,46.8,92.6,44.3,142.6c-0.6,11.5-1.1,25-9.9,34.4c-4.5,4.9-11.4,7.9-18.8,8c-3.6,0-7.2-0.6-10.6-1.5
	c-1.6-0.4-3.1-1-4.7-1.5c-0.2-0.1-0.3-0.1-0.5-0.2l-0.7-0.4c-1.9-1.2-3.8-2.3-5.7-3.5c-4.1-2.5-8.1-4.9-12.2-7.4
	c-7.6-4.7-15.3-9.4-22.9-14.1c-15.2-9.4-30.4-18.9-45.5-28.4c-60.3-38.1-119.6-77.2-178.2-117c-40.4-27.4-80.4-55.1-120.3-83.1
	l0.1,5.3c22,15.4,44,30.6,66.2,45.8c61,41.8,122.6,82.9,185.1,123c31.2,20,62.7,39.8,94.4,59.2c17.7,10.9,35.2,22.4,54.7,31.1
	c13.4,6,31.3,11.3,43.6,0.8c10.2-8.7,11.1-22.6,11.8-34c0.8-12.8,0.3-25.6-1.3-38.4c-3.3-25.4-11.4-50.2-23.2-73.7
	C567.5,794.6,528.1,752,481.1,718c-27.1-19.6-56.6-36.6-87.6-51.6c-15-7.2-30.3-14-45.3-20.9c-3.7-1.7-7.3-3.4-10.9-5.1
	c-4.2-2-7.3-3.5-10.3-5c-1.8-0.9-3.6-1.8-5.3-2.7c-0.1,0-0.3-0.1-0.5-0.2c-0.1,0-0.1-0.1-0.2-0.1c0,0,0,0,0,0c0,0-0.1,0-0.1,0
	c0,0-0.1,0-0.1-0.1c0,0,0,0-0.1,0c0,0-0.1,0-0.1,0v0c0,0-0.1,0-0.1-0.1c0,0,0,0,0,0c0,0-0.1,0-0.1-0.1h0c0,0,0,0,0,0
	c-0.6-0.3-1.2-0.6-1.7-0.9c-0.7-0.3-1.3-0.7-2-1.1c0,0,0,0,0,0c0,0-0.1,0-0.1-0.1c0,0,0,0,0,0c-0.1,0-0.2-0.1-0.3-0.2
	c0,0-0.1-0.1-0.1-0.1c-0.1-0.1-0.3-0.2-0.4-0.2c-1.7-1-3.7-2.2-4-2.3c-28.9-17.3-49.2-41.7-70.9-65c-20.1-21.6-42.7-41.6-67.3-59.6
	C167.4,498.1,161.5,493.9,155.5,489.8z"/>
<path class="accentcolor2" d="M138.9,897.1c-0.3,0.9-0.6,1.8-0.9,2.7c36.7,19.1,74.1,37.5,111.9,55c32.9,15.2,66.1,29.8,99.8,43.7
	c33.5,13.8,67.5,26.5,101.4,39.6c13.8,5.3,25.9,10.4,37,18.4c13.1,9.4,24.5,20.3,34.9,31.9c22,24.5,39.7,51.6,54.8,79.5
	c31.8,58.8,53,121.5,76.6,182.9c12.5,32.6,25.3,65.1,37.4,97.8c11.4,30.8,19.3,62.1,20.6,94.5c1.3,31.7-3,63.6-12.8,94.2
	c-2.4,7.4-4.9,15-8.2,22.2c-2.7,5.8-7,10.6-14.1,12.9c-14,4.5-30.3-0.9-43.4-5.1c-72.2-22.7-146.8-39.8-222.8-50.9
	c-76.7-11.2-154.4-16.1-232.2-15.2c-36,0.4-72.3,1.5-108.2-1.8c0.4,3.8,0.7,7.5,1.1,11.3c11.9,1.9,23.9,3.1,36.1,3.9
	c41,2.6,82.1,0.5,123.1,0.7c39.5,0.2,79,2,118.2,5.4c78.9,6.8,157,19.9,232.9,39.2c18.9,4.8,37.7,10,56.3,15.5
	c15.9,4.7,32.1,11.6,49.2,12.7c6.3,0.4,13.2-0.1,18.8-2.7c7.3-3.4,10.3-9.6,12.8-15.9c6.1-15.3,10.7-31,13.9-46.9
	c6.5-32.1,7.2-65,2-97.3c-5.4-33.6-18.5-65.7-30.9-97.9c-12.9-33.6-25.8-67.1-38.6-100.7c-11.8-30.9-23.4-61.8-36.6-92.3
	c-12.9-29.7-27.4-59-45.5-86.7c-17.3-26.6-37.7-52.3-63.8-73.5c-29.8-24.1-66.4-40.4-103.8-54.4c-34.4-12.9-68.4-26.3-102-40.5
	C254.3,953.9,195.4,926.4,138.9,897.1z"/>
<path class="accentcolor2" d="M119.1,947.8c-0.4,0.8-0.8,1.6-1.1,2.5c23.6,12.5,47.7,24.4,72.3,35.7c54.4,25,110.4,47.4,164.2,73.3
	c7,3.4,11.4,5.5,17.8,8.8c3.1,1.6,6.2,3.2,9.3,4.8c0.9,0.5,1.8,0.9,2.7,1.4c0,0,0.2,0.1,0.5,0.2c0,0,0,0,0,0c0,0,0,0,0,0
	c0,0,0,0,0,0c0,0,0,0,0,0c0,0,0,0,0.1,0c0,0,0.1,0.1,0.1,0.1c0,0,0.1,0,0.1,0.1c0,0,0,0,0,0c0.1,0,0.1,0.1,0.2,0.1
	c0,0,0.1,0,0.1,0.1c0,0,0,0,0,0c0.5,0.3,1,0.6,1.2,0.6c1.1,0.6,2.2,1.2,3.3,1.8c2.8,1.5,5.7,3.1,8.5,4.6c0,0,0,0,0,0
	c0,0,0.1,0,0.1,0.1h0c0.1,0,0.2,0.1,0.3,0.2c0.6,0.3,1.6,0.9,1.9,1.1c1.9,1.1,3.8,2.2,5.8,3.3c5.8,3.4,10,5.9,16.4,9.9
	c23.2,14.6,45.4,31.3,64.9,49.7c46.9,44.3,74.3,99.2,102.6,152.8c30.4,57.7,58.9,117.4,65.5,180.8c3.2,30.9,1.2,62.4-8.4,92.5
	c-4.1,13-9.6,26.6-21.6,36c-11.3,8.9-27,12.6-42.1,12.8c-17.2,0.2-33.8-4.2-49.7-9.4c-16.7-5.5-33.2-11.3-50.4-15.8
	c-33.7-8.7-68.6-13.5-103.7-16.3c-71.5-5.7-143.6-3.2-215-9.4c-33.5-2.9-66.6-8.1-98.7-16c0.3,2.6,0.5,5.3,0.8,7.9
	c16.1,4.8,32.6,8.9,49.3,12.3c71.1,14.2,144.7,13.7,217.3,15.9c36.1,1.1,72.2,2.8,107.9,7.3c35.9,4.6,70.3,12.5,103.9,24
	c29.4,10,64.2,20.9,94.8,7.7c14.9-6.4,23.6-18.2,29-31.1c6.1-14.5,9.7-29.9,11.9-45.1c9-63.1-10.1-125.9-36.9-184.4
	c-13.7-29.8-29.4-59-45-88.1c-15.1-28.1-30.6-56.2-50.5-82.2c-34.8-45.4-83.5-81.3-136.2-111.6c-54.1-31.1-112.2-56.5-170.3-81.7
	c-27.4-11.9-54.7-23.7-81.5-36.5C146.5,961.9,133,955.2,119.1,947.8z"/>
<path class="accentcolor2" d="M102.7,981.6l-1.7,3.5c11.7,5.1,23.5,10.1,35.3,14.9c54.3,22.4,109.6,43,163.6,66c26.1,11.1,52.8,23.2,77,35.5
	c11.7,6,22,11.6,33.2,18.1c5.6,3.2,9.6,5.6,15.6,9.5c5.3,3.3,10.4,6.8,15.5,10.4c21.5,15.2,40.6,32.8,55.3,52.9
	c15.7,21.3,27.1,44.8,36.4,68.6c19,48.3,28.4,99.2,28,150.1c-0.2,25.3-2.8,50.6-8,75.5c-2,9.6-4.9,19.6-11.8,27.7
	c-8,9.4-20.2,12.3-33.5,12.3c-32.4,0-65-1.6-97.4-2.5c-32.9-0.9-65.8-1.7-98.6-2.6c-63-1.6-126.6-2.2-188.9-11.6
	c-21-3.1-41.7-7.5-62-12.9c0.2,2.5,0.5,4.9,0.7,7.4c12.5,3.9,25.2,7.5,38.1,10.6c61.1,14.6,124.9,17.7,188,19.5
	c65.7,1.9,131.4,3.4,197.1,5.2c16.1,0.4,32.3,1.3,48.4,1.2c12.9-0.1,25.1-2.6,33.3-11.5c7.2-7.8,10.2-17.9,12.3-27.4
	c2.7-12.2,4.5-24.5,5.9-36.8c5.7-51.1,1.2-103-13-152.9c-13.6-47.4-34.5-96.6-73.2-133.8c-19.3-18.5-42-34.4-65.6-48.8
	c-26.5-16.1-54.2-30.8-82.5-44.6c-53.5-26-109.4-48.1-165.3-70.1C157.5,1004,129.9,993.1,102.7,981.6z"/>
<path class="accentcolor2" d="M58.7,1071.9l-1.2,2.5c9.8,5.6,19.8,10.9,29.9,16.1c30.3,15.6,61.9,28.7,94,41.5c6.7,2.7,13.8,5.7,19.6,8.4
	c0.1,0.1,0.6,0.3,0.9,0.4c0,0,0.1,0,0.1,0c0,0,0.1,0,0.1,0c0,0,0,0,0,0c0,0,0,0,0.1,0c0,0,0,0,0.1,0c0.4,0.2,0.9,0.5,1.3,0.7
	c-0.3-0.1-0.5-0.2-0.5-0.2c0,0.1,2.9,1.6,2,1c0,0,0.1,0.1,0.1,0.1c0.3,0.2,0.5,0.3,0.7,0.4c0,0,0,0,0,0c0,0,0.1,0,0.1,0.1
	c0.1,0,0.1,0,0.1,0.1c0,0,0,0,0,0c1.4,0.9,2.8,1.9,4.2,2.9c12.5,9.2,21.7,21.2,27.1,34.4c10.9,26.8,7.7,56.4,4.9,84.1
	c-2.7,26.4-6.7,55.2-26.1,77.1c-19.4,21.9-51.1,30.9-82.4,32.9c-28.4,1.8-57.5-1.1-85.4-6.6c0.3,2.9,0.6,5.9,0.8,8.8
	c21.9,5.6,44.4,9.5,67.4,11.3c31.8,2.6,66.4,1.8,95.3-10.8c30.7-13.4,45.4-39,51.6-66.4c3.2-14.1,4.6-28.4,5.9-42.6
	c1.3-14.6,2.2-29.3,0.9-43.9c-1.3-13.9-4.7-27.8-12-40.5c-7.6-13.1-19.4-23.7-33-32.5c-16.7-11-35.1-20.2-54.1-28.1
	c-15.4-6.4-31.1-12.2-46.4-18.7c-14.9-6.3-29.1-13-41.9-19.6c-1.7-0.9-3.4-1.8-5.1-2.7h0c0,0,0,0,0,0c0,0,0,0,0,0c0,0,0,0-0.1,0
	c0,0-0.1,0-0.1,0c0,0-0.1,0-0.1-0.1c0,0-0.1,0-0.1-0.1c-0.9-0.5-2.8-1.5-3.1-1.6c-1.7-0.9-3.4-1.8-5-2.7c-0.8-0.5-1.7-0.9-2.5-1.4
	c-0.2-0.1-0.4-0.2-0.6-0.3v0c0,0,0,0,0,0c0,0,0,0,0,0c0,0,0,0,0,0c0,0-0.1,0-0.1-0.1c-0.1,0-0.1-0.1-0.2-0.1c0,0-0.1,0-0.1-0.1
	c0,0,0,0,0,0c0,0,0,0-0.1,0c-0.1-0.1-0.3-0.2-0.5-0.3C62.7,1074.2,60.7,1073,58.7,1071.9z"/>
<path class="accentcolor2" d="M33.9,1136.3c-0.3,1.5-0.6,3-0.8,4.6c10.5,7.9,20.5,16.2,29.4,25.4c20.3,21,34.5,48.8,26.6,76.1
	c-3.4,11.7-11.2,23.1-23.6,29.6c-7.6,4-16.5,5.8-25.6,6.5c0.4,4.7,0.9,9.5,1.3,14.3c7,0.4,14,0.4,21,0c16.7-0.9,32.1-5.3,42.4-17
	c21-23.8,13.3-56.8-3.3-80.6C84.8,1171.5,59,1153.6,33.9,1136.3z"/>
<path class="accentcolor2" d="M48.9,1092c-0.4,0.8-0.8,1.6-1.2,2.5c8.4,4.7,16.7,9.7,25.2,15.1c20.7,13.2,40,28.1,56.4,45.2
	c31.3,32.6,51.9,75,45.6,117.4c-2.9,19.7-11.4,41.1-30.5,53.9c-18.9,12.7-44,13.9-67.1,11.6c-10.9-1.1-21.7-2.9-32.4-5
	c0.3,2.9,0.6,5.9,0.8,8.9c12.7,3,25.5,5.7,38.3,7.9c22.7,3.9,47.8,6.1,69.9-1.1c23.8-7.8,37.2-26.4,43.5-46.4
	c13.1-41.3-2.7-85.8-30.6-120.4C137,1144.2,93,1116.6,48.9,1092z"/>
<path class="accentcolor2" d="M358.8,1869.3c-7.9-3.8-16.8-8-25.9-7.7c-7,0.2-15.1,4-15.6,10.4c-0.6,7.1,7.3,13.2,13.2,17.4
	c9.8,7.1,20.8,13,32.2,18.1c14.8,6.6,30.9,10.2,47,13.9c7.9,1.8,15.7,3.6,23.3,6.2c3.3,1.1,6.6,2.3,9.7,3.7c2,0.9,3.3,1.6,5.7,2.9
	c0.2,0.1,0.7,0.4,0.9,0.5c0.5,0.3,1,0.6,1.6,0.9c1.6,0.9,3.1,1.8,4.7,2.7c4.5,2.6,8.9,5.1,13.4,7.6c8.9,4.9,18,9.7,27.4,13.8
	c7.6,3.3,15.6,6.2,24,7.9c6.8,1.4,17.6,3.5,22.8-1.6c5.1-5.1,5-13.8,3.8-20c-1.4-7.1-5-13.9-9.9-19.8c-5.8-6.9-13.5-12.4-21.5-17.4
	c-10.5-6.5-21.7-12.3-33.3-17.1C444.4,1876.4,401,1869.4,358.8,1869.3z M502.5,1904.7c0,0-0.1-0.1-0.1-0.1c-0.7-0.5-2.2-0.9-0.9-0.7
	c0.8,0.2,5.5,2.7,2.2,1.3C503.3,1905.1,502.9,1904.9,502.5,1904.7z M502.5,1904.7c1.5,1.1,3,2.3,4.4,3.6
	c10.1,9.3,16.5,22.3,14.1,35.1c-1.2,6.6-5,11.7-13.7,11.5c-6.7-0.2-13.6-1.6-19.8-3.6c-2.9-0.9-5.7-2-8.4-3.1
	c-0.4-0.2-1-0.4-1.9-0.8c0.1,0.1-1-0.5-1.2-0.6c-0.2-0.1-0.4-0.2-0.5-0.2c0,0-0.1-0.1-0.2-0.1c-1.4-0.8-2.8-1.5-4.1-2.3
	c2.7,1.5-1.9-1.1-2.5-1.4c-3.1-1.8-6.3-3.6-9.4-5.4c-14.7-8.4-29.8-16.7-46.2-22.5c-13-4.5-26.7-7.3-40.2-10.5
	c-7.3-1.7-14.6-3.5-21.5-6c-0.4-0.1-0.8-0.3-1.1-0.4c-1.1-0.9-2.2-1.9-3.2-3c-5.4-6-5-13.3,3.2-17.2c2-0.9,4.1-1.5,6.1-1.7
	c3.1,1.8,6.3,3.5,9.6,5c1.7,0.8,4.5,2.7,6.5,2.6c35.3-0.9,70.7,3.2,104.3,12.5c7.7,2.1,15.3,4.5,22.7,7.3
	C500.6,1903.9,501.5,1904.3,502.5,1904.7z M476.9,1947.2c0,0-0.1,0-0.2-0.1C476.8,1947.1,476.9,1947.1,476.9,1947.2z M476.9,1947.2
	c0.1,0.1,0.3,0.1,0.4,0.2C477.3,1947.3,477.2,1947.3,476.9,1947.2z M476.8,1947.1C476.8,1947.1,476.7,1947.1,476.8,1947.1
	C476.7,1947.1,476.7,1947.1,476.8,1947.1z M476.7,1947.1C476.7,1947.1,476.7,1947.1,476.7,1947.1
	C476.7,1947.1,476.7,1947.1,476.7,1947.1z M476.7,1947.1c-0.1,0-0.1-0.1-0.2-0.1C476.6,1947,476.6,1947,476.7,1947.1z M475.6,1946.5
	C476,1946.7,475.9,1946.7,475.6,1946.5C475.3,1946.4,474.7,1946.1,475.6,1946.5z M350.4,1898c0.2,0.1,0.3,0.3,0.5,0.4
	c0.7,0.6,3.4,2.1,1.2,1.1c-1.3-0.6-4.1-1.7-5-2.7c0,0,0.1,0,0.1,0C348.2,1897.1,349.3,1897.5,350.4,1898z M347,1896.7
	C345.8,1896.3,346.9,1896.5,347,1896.7C347,1896.7,347,1896.7,347,1896.7z M356.5,1876.1c-0.2-0.1-0.4-0.2-0.6-0.3
	c-2.4-1.4-5.4-3-7.4-4.7c-0.5-0.5-2.2-1.5-0.7-1.6c3.6-0.1,7.3-0.1,10.9-0.1c0.9,0.4,1.8,0.9,2.7,1.3c5.8,2.8,12.8,6,17.5,10.1
	c4.2,3.6-5-0.7-5.8-1C368.1,1877.2,362.2,1875.4,356.5,1876.1z M449.3,1934.8c-0.2-0.1-0.4-0.2-0.7-0.4
	C449.9,1935.1,449.8,1935.1,449.3,1934.8z M448.5,1934.4C448.5,1934.4,448.5,1934.4,448.5,1934.4
	C448.5,1934.4,448.5,1934.4,448.5,1934.4z M448.5,1934.4c0,0,0.1,0,0.1,0.1C448.6,1934.4,448.6,1934.4,448.5,1934.4z"/>
<path class="accentcolor2" d="M150.4,854.3c-0.2,1-0.4,2-0.7,3c40.4,21.4,82.4,40.6,124.6,59.4c76.9,34.4,153.9,68.4,218.3,118.4
	c59.9,46.4,109.2,101.9,148.7,161.6c40.3,60.9,70.5,126.2,92.7,193.2c23.7,71.8,40.7,146.7,43.1,221.3c1.2,40-2.5,80.4-14,119.3
	c-2.7,9-5,18.9-9.9,27.3c-5.5,9.4-14.8,9.6-25.8,7c-20.6-5-39.9-13.1-58.1-22.5c-38.4-20.1-74.3-43-114.6-60.5
	c-40.2-17.5-83-30.8-127.1-39.2c-44.9-8.6-91.2-12.2-137.2-10.4c-50.2,1.9-99.7,9.4-149.7,12.8c-21.6,1.5-43.6,2.1-65.4,1.1
	c0.4,4.2,0.8,8.3,1.2,12.5c92.7,9.9,185.6-14.9,278.5-12.3c92.1,2.6,183.9,26,260.6,69.1c39.3,22.1,78.2,46.5,123.1,60.1
	c9.1,2.7,21.8,7.8,31.4,4.7c9.3-3.1,11.8-13.5,14.3-20.6c7.1-20.2,11.9-40.9,15-61.8c11.6-80-2.6-161.9-23.3-240
	c-18.4-69.5-44.9-137.8-81.2-202.3c-36.1-64.1-82.3-124.6-139.9-176.6c-63.5-57.4-140.2-101.3-221.4-139.2
	c-42.2-19.7-85.4-38.1-127.6-57.8C187.1,873.2,168.6,863.9,150.4,854.3z"/>
<path class="accentcolor2" d="M1370.6,2538c5.9-0.4,11.7-0.9,17.6-1.3c-24.6-45.8-42.9-94-54.2-143.4c-9.8-43-14.5-87-12.7-130.7
	c1.7-42.5,11.5-89.8,51.1-119.6c38.5-29,92.9-33.3,139-49.6c11.5-4.1,22.6-8.9,32.8-14.9c10.9-6.5,20.4-14.5,29.7-22.5
	c9.4-8.1,18.7-16.3,29.4-23.1c11.1-7.1,23.5-12,36.9-15.1c28-6.6,57.8-6.4,85-15.4c26.2-8.7,47.1-25.1,67.8-40.5
	c0.1-0.1,0.1-0.1,0.2-0.2c1.2-11.6,2.5-23.3,3.7-34.9c0,0-0.1,0-0.1,0.1c-23.2,14.4-42.9,32.3-66.3,46.5
	c-11.3,6.8-23.4,12.7-36.6,16.5c-14.1,4.1-28.9,6-43.5,7.9c-14.3,1.9-28.7,3.7-42.5,7.5c-13.4,3.7-25.4,9.6-36.2,17.2
	c-20.8,14.7-37.1,33.5-60.4,45.7c-43.9,23.1-98.2,25.6-142.8,47.3c-23,11.2-40.7,27.6-52.2,47.6c-11.5,20-16.9,42.1-19.4,64
	c-5.1,43.9-1.2,89.2,7,132.7C1315.5,2421.4,1338.3,2481.6,1370.6,2538z"/>
<path class="accentcolor2" d="M1314.9,2541.9c5.6-0.4,11.2-0.8,16.8-1.1c-29.6-51.9-50.1-107.2-58-164.9c-9.5-69.5-3.3-141,10-209.9
	c6.1-31.7,15.2-63.4,32-92.4c15.3-26.4,37.4-49.5,64.5-68c26.4-18.1,56.9-31.8,89.1-41.1c38.8-11.2,79.6-15.5,119.9-21.2
	c68.6-9.7,134.8-28.1,187.2-68.1c10.4-7.9,20-16.6,28.6-25.9c2.2-21.7,4.5-43.5,6.7-65.2c-6.6,15.8-15.3,30.8-27.2,44.8
	c-38.8,45.8-100.4,75.8-164.2,90.3c-40.4,9.2-82.1,12.6-123.1,19.4c-36.8,6.1-72.4,15.5-105.1,31.1c-30.9,14.8-58.8,34.5-80,58.6
	c-22.6,25.6-36.5,55.6-45.6,86.4c-9.6,32.5-14.3,66.1-18.2,99.4c-4.3,37.1-6.3,74.5-4.1,111.8
	C1248.6,2402.3,1274.3,2475,1314.9,2541.9z"/>
<path class="accentcolor2" d="M1420.6,2534.2c5.2-0.4,10.3-0.8,15.5-1.2c-13.4-19.7-25.5-40-35.9-60.9c-22.4-44.8-35.9-94.3-26.3-142.9
	c8.2-41.5,32.8-82.1,74.6-106.6c12.4-7.3,26.2-12.8,39.3-19c13.4-6.4,25.7-14,37.5-22.3c11.1-7.9,21.9-16.1,33.2-23.8
	c12.2-8.1,25.2-15.3,38.6-21.8c26-12.8,53.3-23.7,78.5-37.5c22.8-12.5,44.2-26.7,65.4-41.1c14.9-10.2,29.9-20.6,45.1-30.6
	c1.2-10.8,2.3-21.6,3.5-32.3c-16.9,9.8-33.2,20.4-49.3,31.3c-21.7,14.7-43.1,29.8-65.5,43.7c-23.9,14.8-49.2,27.2-75.3,39
	c-27.5,12.5-54,25.5-77.8,42.6c-11.8,8.5-23.3,17.3-35.7,25.2c-12.8,8.2-26.6,14.5-40.7,20.9c-24.1,11-44.9,24.5-61.2,43.2
	c-15.2,17.4-25.8,37.5-32.2,58.3c-14.6,47.5-5.7,97.1,14.1,142.6C1380.3,2473.4,1399.3,2504.5,1420.6,2534.2z"/>
<path class="accentcolor2" d="M1458.7,2531.1c4.2-0.4,8.3-0.7,12.5-1.1c-9.4-10.6-18.2-21.6-24.9-33.6c-12.1-21.6-14.4-45.2-14.9-68.7
	c-0.9-40.8-2.9-86.3,23.2-122.5c22.3-31,61.7-47.1,100.6-59.7c40-12.9,81.7-23.4,116.5-45.1c34.8-21.6,61.4-50.7,87.4-79.4
	c6.3-7,12.6-14,19-20.9c0.3-3.1,0.7-6.2,1-9.3c1.4-12.2,2.7-24.4,4-36.6c-12.1,11.3-23.3,23.2-34.2,35.1
	c-26.9,29.4-52.5,60.1-85.6,84.8c-16.4,12.2-34.4,22.4-54.1,30.5c-20,8.2-40.9,14.4-61.7,20.9c-39.2,12.1-81.1,25.2-108.5,53.1
	c-32.7,33.3-34.2,78.6-33.8,119.7c0.2,23.6,0.1,47.9,8.8,70.6c8.3,21.5,24.2,40.1,40.7,57.7
	C1456,2528.2,1457.4,2529.6,1458.7,2531.1z"/>
<path class="accentcolor2" d="M1506.4,2526.9c5.3-0.5,10.6-1,15.9-1.4c-21.2-32.8-39.7-68.8-35.2-106.8c2.2-18.1,9.6-36,23.6-50.1
	c15.5-15.7,37.1-26.5,57.2-37.5c42.7-23.4,86.8-44.6,131.4-65.3c22-10.2,44-21.1,63.6-34.2c1.6-13.1,3.1-26.1,4.6-39.2
	c-5.1,5.3-10.7,10.4-16.7,15.1c-17,13.3-36.5,24.2-56.5,34.1c-20.6,10.2-41.8,19.5-62.6,29.4c-23.6,11.3-47,23-70,35.3
	c-21.1,11.2-43.3,22.2-62.3,35.9c-17.9,12.9-30.3,29.3-35.6,48.6c-11.2,40.5,7.3,80.8,29.5,116.2
	C1497.5,2513.6,1501.9,2520.3,1506.4,2526.9z"/>
<path class="accentcolor2" d="M1560.9,2521.8c1.5-0.1,2.9-0.3,4.4-0.4c5-0.6,10-1.5,14.9-2.8c-4.5-16.2-4.7-33.1-4.4-49.6
	c0.4-20.5,2.3-41.2,14-59.7c10.2-16.2,25.7-29.6,42.5-41.1c33.3-22.8,71.8-39.5,107.7-59.1c4.9-2.7,9.7-5.4,14.5-8.2
	c1.4-11.2,2.8-22.4,4.1-33.5c-7.8,5.6-16,10.9-24.3,15.9c-35.9,21.6-75.5,38.6-111.5,60.1c-18.1,10.8-35.5,23-48.9,38.1
	c-15,17-21.8,36.3-23.5,57.2c-1.7,21.7-2.3,44.7,3.7,65.9C1555.9,2510.6,1558.1,2516.3,1560.9,2521.8z"/>
<path class="accentcolor2" d="M1619.5,2501c1.8-1,3.5-2.1,5.2-3.2c6.6-4.2,13-8.7,19.2-13.4c1.1-7.4,3.3-14.7,6.6-21.7
	c11.1-23.5,32.7-41.8,55.9-57.3c6-4,12.2-7.9,18.5-11.7c0.5-0.8,1-1.7,1.5-2.5c7.1-12.1,13.3-25.3,18-39.1
	c-18.2,11.4-37.1,21.9-55.3,33.4c-24.4,15.4-48.1,33.3-61.4,56.8C1617.2,2460.8,1614.7,2481.4,1619.5,2501z"/>
<path class="accentcolor2" d="M1133.2,2551.7c4.8-0.2,9.5-0.4,14.3-0.6c-26.7-34.2-50.6-69.6-66.3-108.6c-11.4-28.3-18.2-58.2-17.9-88
	c4,19.5,8.5,38.8,15.5,57.8c13.8,37,34.8,71.8,59.5,104.5c8.6,11.4,17.7,22.6,27.2,33.5c4.6-0.2,9.3-0.4,13.9-0.6
	c-28.1-34.2-52.4-70.4-69.1-109.6c-9.3-21.8-15.5-44.2-20.2-67c-5.2-24.8-9.2-49.7-17-74.1c-0.4-1.1-2.3-2.2-3.2-2.8
	c-2.8-1.9-5.9-3.7-9-5.3c-0.9-0.5-13.6-6.8-13.9-6c-31,86.3,14.9,174.8,70.1,246.5C1122.4,2538.2,1127.8,2545,1133.2,2551.7z"/>
<path class="accentcolor2" d="M1039.1,2554.5c7.9-0.2,15.9-0.3,23.8-0.5c-2.2-12.7-5.1-25.3-8.1-37.8c-7.7-32.1-15.7-64.2-21.9-96.5
	c-11.8-61.6-17.9-124.7-6.7-186.7c9.8-54,32.5-107.4,72.5-150.9c10-10.9,20.8-21.7,34.4-29.5c6.3-3.6,13.3-6.7,20.9-8
	c3.6-0.7,7.2-0.9,10.8-0.6c17.4,24.1-0.1,54.5-9.6,79c-11.6,30.3-22.2,60.9-27.2,92.5c-5.2,32.7-5.4,65.7-5.1,98.6
	c0.2,30.7,1.5,61.8,10.2,91.8c8.5,29.1,25,55.4,45,80.1c17,21,35.6,41.2,54.1,61.2c0.7,0,1.4-0.1,2-0.1c3.7-0.2,7.3-0.4,11-0.6
	c-4.5-4.9-9-9.9-13.4-14.9c-21.8-24.2-43.5-49.1-58.4-76.9c-15.4-28.7-21.3-59.9-23.3-91.1c-2.1-32.7-2-65.8,0.2-98.5
	c2.2-32.8,8.7-64.7,19.4-96.2c5.4-15.7,11.4-31.3,17.5-46.8c5.8-14.9,13-30.7,11-46.7c-0.8-5.9-2.9-11.8-6.4-16.9
	c-4.5-6.7-11.6-11.5-19.1-15.8c-8.8-5.1-18.6-10.8-29.3-12.6c-7.4-1.2-15.2-0.2-22.2,2.1c-15.4,5-27.6,15-38.1,25.3
	c-10.8,10.6-20.6,21.9-29.4,33.8c-17.4,23.7-30.4,49.5-39.8,76.1c-20.5,58.3-22.8,119.7-16,179.9c3.8,33.1,10.2,66,17.5,98.7
	c7.4,32.6,16.7,65,22.1,97.9C1038.1,2547.3,1038.6,2550.9,1039.1,2554.5z"/>
<path class="accentcolor2" d="M147.1,65.7l0.1,3.4c21.5,11.4,42.5,23.4,63.2,35.7c123.6,74,236.2,160,360.4,233.4c31.3,18.5,63.3,37.2,98,51
	c28.7,11.4,64.7,21.3,96.6,14.1c17.8-4,23.8-17.4,28.1-31.1c4.9-15.6,7.3-31.7,8.5-47.7c2.3-31.1,0-62.5,3.4-93.6
	c5-46.4,26.2-98.7,80.8-119c22.7-8.4,47.8-11.3,70.8-18.9c-2.1,0-4.2,0-6.3,0c-24.7,0.1-49.4-0.1-74-0.3
	c-18.6,5.3-36,12.4-50.5,24.7c-20.1,17.1-32.2,39.8-39.4,62.7c-17.9,57.9-1.2,118.9-19,176.8c-4.2,13.5-9.8,27.5-27.4,31.9
	c-16.7,4.2-36.1,2.4-52.9-0.8c-33.5-6.4-62.6-21.8-90.6-37.9c-125-71.9-237.3-158-359.8-232.7C207.8,99.6,177.8,82.2,147.1,65.7z"/>
<path class="accentcolor2" d="M148.6,142.5l0.1,3.8c35.1,21.7,70,43.8,104.8,65.8c55.2,34.9,111.2,69.1,165.3,105.2
	c25.8,17.2,50.3,35.4,73.7,54.9c23.4,19.5,46.8,38.7,74,54.4c27.8,15.9,58,28.8,91,35.1c14.9,2.9,30.2,4.4,45.5,4.6
	c11.6,0.1,23.2-1.3,34.7-1c-3,1.5-6.1,2.8-9.4,3.9c-12.8,4.5-26.9,6.1-40.7,5.8c-29.8-0.8-58.5-9.4-85.6-19
	c-28.2-10.1-56-22.6-81.1-35.6c-1.7-0.9-3.3-1.7-4.9-2.6c-0.7-0.4-1.4-0.7-2.1-1.1c-0.1-0.1-0.7-0.4-1.1-0.6c-0.1,0-0.1-0.1-0.1-0.1
	c0,0-0.1,0-0.1,0c0,0,0,0,0,0c0,0,0,0,0,0c0,0,0,0,0,0c0,0-0.1,0-0.1,0h0c-3.3-1.7-6.5-3.5-9.8-5.3c-3.3-1.8-6.5-3.6-9.7-5.3
	c-1.4-0.8-2.8-1.6-4.2-2.4c0,0-0.1-0.1-0.1-0.1c0,0,0,0,0,0c0,0-0.1,0-0.1-0.1c-0.1,0-0.2-0.1-0.3-0.2c-1.1-0.7-2.3-1.3-3.4-2
	c-13.3-7.6-26.5-15.3-39.6-23.1c-55.2-32.8-112.8-67.5-169.2-100.8c-41.9-24.8-83.9-49.5-125.9-74.1l0.1,3.4
	c26.9,15.8,53.8,31.6,80.7,47.4c58.1,34.3,116,68.7,173.7,103.2c55.7,33.4,111.7,66.9,172.5,93.8c28.1,12.4,57.4,23.8,87.9,31.6
	c26.9,6.9,57.2,10.8,84.5,3c6.6-1.9,12.8-4.5,18.6-7.7c-0.1-0.2-0.2-0.4-0.2-0.5c-2.9-5.9-9.5-9.7-15.6-13.2
	c-7.8-4.5-16.2-9.2-25.5-11.2c-12.1-2.7-24.8-0.9-37.1-0.5c-31.3,1-63-3.8-91.8-14.1c-6.3-2.2-12.5-4.7-18.4-7.6
	c-1.4-0.7-2.8-1.4-4-2.1c0,0,0,0,0,0h0c0,0,0,0,0,0c0,0,0,0,0,0c0,0-0.1,0-0.1-0.1c-0.1,0-0.1-0.1-0.2-0.1c0,0,0.1,0,0.1,0.1
	c-0.5-0.3-1.8-1.1-2.2-1.3c0,0,0,0,0,0c0,0,0,0,0,0c0,0,0,0,0,0c0,0,0,0,0,0l0,0c0,0,0,0,0,0c-1.5-0.9-2.9-1.8-4.3-2.7
	c-12.4-8-23.8-17.1-35-26.3c-24.1-19.8-47.9-39.5-73.9-57.7c-26.7-18.7-54.5-36.2-82.3-53.8c-29.3-18.5-58.6-37.1-87.9-55.6
	C242.5,201.2,195.8,171.5,148.6,142.5z"/>
<path class="accentcolor2" d="M154.7,450.5l0.1,5.1c18,12.7,35.6,25.9,52.6,39.6c25.9,20.8,50.4,42.7,74.2,65.2c26,24.6,52.4,48.4,83.9,68.2
	c30.9,19.4,64.5,35.5,97.5,52.3c3.8,2,7.7,3.9,11.5,5.9c0.6,0.3,1.1,0.6,1.7,0.9c0,0,0,0,0.1,0c0,0,0.1,0.1,0.2,0.1
	c0.1,0,0.1,0.1,0.2,0.1c0,0,0,0,0.1,0c0.1,0,0.1,0.1,0.2,0.1c0.1,0,0.1,0.1,0.2,0.1c0.1,0.1,0.3,0.2,0.5,0.3
	c2.2,1.2,4.4,2.4,6.7,3.6c5.6,3.1,11.6,6.5,18.2,10.6c12.8,8,24.8,17,36,26.6c45.6,39.5,75.5,90.2,95,142.2
	c10,26.6,17.4,53.7,23.1,81.2c2.8,13.5,5.2,27.1,7.3,40.7c2.2,14.5,2.5,29.6-12.2,39.6c-12.4,8.4-29,10.3-44.2,7.6
	c-8.9-1.6-17.3-4.5-25.2-8.1c-3.6-1.6-5.5-2.6-8.4-4.1c-2.2-1.1-4.4-2.3-6.7-3.4c-1-0.5-2-1-2.9-1.5c-0.3-0.1-1.3-0.7-1.9-1h0
	c-0.1,0-0.1-0.1-0.2-0.1c0,0-0.1,0-0.1,0c0,0,0,0,0,0c0,0,0,0,0,0c0,0,0,0,0,0c-4-2.1-7.9-4.3-11.9-6.4c-1-0.5-1.9-1.1-2.9-1.6
	c-0.1-0.1-1.4-0.8-2-1.1c0,0,0,0-0.1,0c0,0,0,0,0,0c0,0-0.1,0-0.1-0.1c0,0,0,0,0,0c0,0,0,0,0,0h0c0,0,0,0,0,0
	c-1.2-0.7-4.2-2.4-5.9-3.3c-8-4.6-14.9-8.7-22.4-13.3c-15.7-9.6-31.2-19.5-46.6-29.5c-64.3-42.1-127.9-85.1-191.7-127.9
	c-39.4-26.5-78.8-53-117.9-79.7c0,1.6,0,3.2-0.1,4.8c19.9,13.5,39.8,27,59.7,40.4c65.9,44.4,132.1,88.6,198.3,132.7
	c32.8,21.8,65.7,43.5,100,63.7c18.1,10.7,36.5,20.9,55.3,30.6c17.7,9.1,36.2,18.9,56.6,22.9c15,3,31.7,1.7,44.7-5.8
	c15.6-9.1,17.2-23.7,15.1-38.4c-4-28.7-10-57.3-17.9-85.3c-15.5-54.5-39.7-108.3-79.5-153.8c-20.9-23.8-45.9-44.4-74-62.1
	c-31.7-20-66.3-36.5-100.2-53.8c-3.9-2-7.7-4-11.6-6c0,0,0,0-0.1,0c0,0,0,0-0.1,0c0,0-0.1,0-0.1,0c0,0,0,0,0,0c0,0,0,0-0.1,0
	c0,0,0,0,0,0c-0.9-0.5-3.2-1.7-3.4-1.8c-2.2-1.2-4.4-2.4-6.6-3.6c-0.1-0.1-0.4-0.2-0.7-0.4c0,0,0,0,0,0c0,0-0.1,0-0.1-0.1
	c0,0-0.1,0-0.1-0.1c0,0-0.1,0-0.1-0.1c0,0,0,0,0,0c0,0-0.1,0-0.1,0c0,0,0,0-0.1,0c0,0,0,0,0,0c0,0,0,0-0.1,0c0,0,0,0,0,0
	c-0.6-0.3-1.2-0.7-1.8-1c-1.7-1-3.4-2-5.2-3c0,0,0,0,0,0c-0.2-0.1-1.6-0.9-2.2-1.3c-0.1-0.1-0.2-0.1-0.3-0.2c0,0-0.1,0-0.1,0
	c0,0,0,0,0,0c0,0,0,0,0,0c-0.5-0.3-1.3-0.8-1.4-0.9c-2.1-1.3-4.3-2.6-6.3-4c-14.9-9.6-28.6-20.5-41.5-31.9
	c-26.3-23.1-50.5-47.7-77.2-70.6C226.6,501.9,191.5,475.3,154.7,450.5z"/>
<path class="accentcolor2" d="M151.1,268l0.1,3.2c23.3,12.9,46.7,25.7,70.2,38.3c60,32.1,120.7,63.3,182.5,92.9c0,0,0,0,0,0
	c39,23.2,74.4,50.3,110.6,76.5c38.8,28,78.7,54.7,122.4,77.2c40.9,21.1,84.9,39,131.9,47.9c23.4,4.4,47.4,6.4,71.4,5.5
	c20.8-0.8,41.5-4.6,53.9-19.9c10.2-12.6,12.8-28.7,13.5-43.6c0.9-19.1-1.5-38.3-1.8-57.4c-0.7-44.9,3-89.8,11.2-134.2
	c4-21.6,8.8-43.3,15.3-64.5c4.7-15.6,11.3-31.7,23.7-44.2c12.9-12.9,32.2-19.6,52.2-16.3c4.8,0.8,9.3,2.1,13.7,3.8c0,0,0,0,0,0
	c0.6,0.4,1.5,1,1.7,1.1c2.2,1.6,4.5,3.3,6.7,5c8.4,6.7,16,14.2,22.9,22.1c57.3,64.4,101.9,136,149.4,205.5
	c47.8,70.1,99.3,137.6,165.2,196.8c34.8,31.2,71.5,60.9,103.7,94c29.8,30.7,54.8,64.3,76.1,99.6c43,71.5,70.9,148.5,100.3,224.5
	c26.9,69.6,55.8,139,98.4,203.2c28.1,42.5,62.1,81.8,103.2,115.4c0.2-2.6,0.5-5.1,0.7-7.7c-24.8-23.4-46.4-49.4-65.3-75.6
	c-44.9-62.5-75.6-130.9-102.8-199.9c-29.3-74.6-55.7-150.4-94.8-222c-19.3-35.2-41.7-69.3-68.7-100.8c-29-33.8-63.6-63.7-98-93.7
	c-34.2-29.7-67.1-60-96.3-93.3c-28.1-32.1-53.4-65.9-77.4-100.2c-48.1-68.6-91.6-139.6-145.1-205.4c-12.9-15.8-25.8-31.9-41.7-45.8
	c-16.6-14.6-37.1-27.2-58.9-35.7c-17.7-6.9-37.6-8.7-55.2-0.3c-16.3,7.8-26.2,22.1-32.8,36.4c-8.3,18.1-12.5,37.6-16.8,56.5
	c-5,21.8-8.9,43.9-11.7,66c-5.6,44.1-5.9,88-3.6,132.2c1.5,28.5,0.5,68.6-37.7,80.2c-22,6.7-49.2,4.8-72.1,2.4
	c-24.2-2.5-47.9-7.7-70.7-14.9c-91.9-29-160-88.7-234.3-140.1c-11.8-8.1-23.8-16.1-36.1-23.7c15,7,30.1,14,45.2,20.8
	c72.7,32.9,147.4,64.5,225.9,86.5c27.5,7.7,56.1,14.5,85.1,16.4c13.5,0.9,30.9,1.5,43.3-3.4c15.5-6.2,18.1-25.5,21.5-37.9
	c4.5-16.1,7.9-32.5,10.4-48.9c10.3-65.5,8.4-132.1,23.1-197.2c3.4-15.2,7.3-31.1,18.2-43.9c8.4-9.7,20-16.9,33-21.9
	c27.7-10.6,59.6-12,89.6-12.9c16.6-0.5,33.4-0.5,49.8,2c6.7,1,14.2,2.2,20.5,4.7c-1.3-0.4,2.6,1.9,3.4,2.6c1.5,1.3,2.8,2.8,4.2,4.2
	c2.6,2.9,5,6,7.2,9.1c9.1,13.4,14.5,28.4,20.8,42.8c6.1,14.2,12.5,28.2,19.2,42.2c27.9,58.6,60.3,115.6,96.9,170.7
	c36.6,55.1,77.5,108.2,122.3,158.8c43.8,49.5,91.9,96.1,138.1,144.1c46.1,47.9,90.4,97.5,124.9,152c36.6,57.9,59.6,120.8,81.3,183.5
	c32.6,94.2,66,193.8,139,271.8c0.5-5.1,1-10.2,1.5-15.3c-6.6-8.6-12.8-17.3-18.6-26c-34.6-51.7-57.5-107.9-77.7-164.6
	c-21.5-60.3-40.3-121.5-68.6-180c-27.8-57.5-66.6-110.1-110.8-159.7c-43.5-48.8-91.3-94.8-136.8-142.3
	c-46.6-48.6-89.9-99.3-129-152.3c-39.2-53.2-74.4-108.5-105.2-165.5c-15.2-28-29.3-56.4-42.3-85.2c-11.7-25.8-19.6-57.7-43.5-77.9
	c-22.1-18.8-52.8-31.2-84-33.7c-29.7-2.4-61.6-0.9-91,3.3c-27.8,4-56.7,12.9-72.5,33.8c-9.9,13.1-13.3,29-16.6,44.1
	c-3.4,15.8-5.9,31.8-7.9,47.8c-7.9,65-6.9,131.2-24.9,195.1c-3.5,12.5-6,31.7-21.5,37.9c-8.1,3.2-18.1,3.7-27,3.8
	c-12,0.2-24.1-1-35.9-2.7c-69.9-10.1-137.2-36.6-200.4-62.5c-47.2-19.3-93.4-40.1-139.1-61.9c0,0-0.1,0-0.1-0.1
	c-1.3-0.7-2.6-1.3-3.9-1.9c-0.3-0.1-3.2-1.7-5-2.3c-32.4-15.6-64.6-31.6-96.4-48C247.2,320.4,198.8,294.6,151.1,268z"/>
<path class="accentcolor2" d="M556.6,384.9C556.7,384.9,556.7,384.9,556.6,384.9C556.7,384.9,556.7,384.9,556.6,384.9z"/>
<path class="accentcolor2" d="M103.9,1925c0.2,1.9,0.4,3.8,0.6,5.7c37.5,13.4,74.7,27.1,111,42.6c14.9,6.3,29.1,12.7,43.5,19.6
	c7.6,3.7,11.9,5.8,19.7,9.8c1.7,0.9,3.4,1.8,5.2,2.7c0.1,0.1,0.6,0.3,1,0.5c0,0,0,0,0.1,0c0,0,0,0,0,0c0,0,0,0,0,0c0,0,0.1,0,0.1,0
	c0,0,0,0,0.1,0c0,0,0,0,0,0c0.1,0,0.1,0.1,0.2,0.1c0,0,0,0,0.1,0c0.1,0,0.1,0.1,0.2,0.1c0,0,0.1,0,0.1,0c0,0,0.1,0,0.1,0
	c0.4,0.2,0.9,0.5,1,0.5c3.6,1.9,7.2,3.9,10.8,5.9c0.1,0.1,0.2,0.1,0.3,0.2c0,0,0,0,0,0c0.1,0.1,0.2,0.1,0.3,0.2
	c0.1,0,0.1,0.1,0.2,0.1c0.2,0.1,0.3,0.2,0.5,0.3c0,0,0,0,0,0c0.5,0.3,1,0.6,1.5,0.8c1.7,0.9,3.3,1.9,5,2.9c1.7,1,3.3,1.9,5,2.9
	c1.1,0.7,2.1,1.2,4.3,2.6c6.5,4,12.4,7.7,18.5,11.7c12.9,8.6,25.3,17.6,37.1,27.2c23.6,19.1,43.6,40.3,62.5,62.7
	c8.9,10.5,17.9,20.8,28.6,30.1c13.4,11.7,29.7,21.3,46.8,28.8c15.4,6.8,31.4,9.4,48.8,8.4c18.5-1.1,36.6-5.6,55.2-5.9
	c7.5-0.1,15.1,0.4,22.5,2c0.6,0.1,1.3,0.3,2.1,0.6c0.6,0.7,1.2,1.4,1.8,2.1c9.5,12.1,10.7,27.7,11.2,41.7c1,27.1-4.7,54.3-16.3,79.5
	c6-14.1,1.1-31-9-42.9c-8.1-9.5-19.9-16.7-31.4-23c-12.4-6.8-25.4-12.7-39.4-16.9c-24.9-7.5-51.5-9.9-76.4-17.3
	c-3.9-1.1-8.8-2.3-12.7-4.1c-0.1-0.1-0.3-0.3-0.8-0.6c-1.3-0.9-4-2.8-5.8-4.1c-9.1-7-17-14.9-24.5-23.1
	c-15.4-16.8-29.7-34.3-45.8-50.7c-69.1-70.5-155.9-129.9-252.1-172.5c-8.2-3.6-16.5-7.1-24.9-10.4c-1.6-0.8-3.2-1.7-4.8-2.4
	c0,0.2,0,0.4,0.1,0.6c1.6,0.6,3.1,1.2,4.7,1.8c2.5,1.4,5,2.8,7.5,4.3c2.6,1.6,5.5,3.2,7.2,5.5c1,1.2-1.5,0.2-2,0.1
	c-1.3-0.5-2.6-1.1-3.9-1.6c0,0-0.1,0-0.1,0c-0.5-0.2-1-0.5-1.4-0.7c-3.5-1.6-6.8-3.5-10.1-5.4c-0.5-0.3-1-0.6-1.5-0.9
	c0.3,2.6,0.6,5.2,0.8,7.9c2.1,1.2,4.3,2.5,6.4,3.7c-0.1,0.4-0.1,0.8,0,1.2c-2.1-1.5-4.3-3-6.4-4.6c0.1,1.1,0.2,2.1,0.3,3.2
	c1,0.6,2.1,1.3,3.3,2c17.6,10.8,35.6,23.7,52.1,36.9c34.1,27.2,64.5,57.4,93.4,88.4c58.6,63,111.2,130,175.9,188.9
	c17.3,15.7,35,32,56.1,44.2c13.6,7.9,28,15,44.6,16.8c12.7,1.4,25.9,1.1,38.7,1c20.9-0.1,45.7-2.1,58-18.3c1.1-1.5,2.1-3.1,3-4.7
	c0,0,0,0,0,0c-1.3,2.7-2.7,5.4-4.1,8.1c-6.5,12-14.2,25-27.3,32.9c-15.5,9.4-34.9,6.3-52.7,4.6c-17.9-1.8-35.9-3.9-53.4-7.8
	c-8.5-1.9-16.9-4.2-25-7.1c-3.2-1.1-6.3-2.4-9.4-3.8c-0.1,0-0.8-0.4-1.3-0.6c0.2,0,0.3,0.1,0.4,0.1c-0.2-0.1-0.4-0.2-0.6-0.2
	c0,0,0,0,0,0c0,0,0,0-0.1,0c-0.1,0-0.1-0.1-0.2-0.1c-0.1-0.1-0.2-0.1-0.3-0.2c0,0,0.1,0,0.1,0.1c-0.4-0.3-0.8-0.5-1.2-0.8
	c-27.8-18.4-49.4-43.7-71.7-66.6c-51.7-53.1-103.4-106.2-155.1-159.3c-25.5-26.2-50.9-52.5-76.6-78.6c-14-14.2-28.2-28.2-42.9-41.8
	c0.5,4.2,0.9,8.4,1.4,12.7c0.4,0.4,0.8,0.8,1.2,1.2c25.8,25.6,50.9,51.8,76.2,77.8c52.3,53.7,104.6,107.4,156.9,161.1
	c12.8,13.1,25.6,26.3,38.4,39.4c11.3,11.5,22.8,22.9,35.6,33.2c29.1,23.3,65.2,41.1,104.4,48.9c17.6,3.5,35.6,5.5,53.5,7.2
	c17.6,1.7,35.9,3.4,50.6-6.6c12.8-8.7,20.4-22.2,26.8-34.7c7.3-14.2,12.7-29.2,16-44.4c3.3-15.5,4.5-31.3,3.5-47
	c-0.9-13.5-2.9-28.2-12.7-39.4c-6.2-7.1-15.2-12.3-23.9-17c-8.4-4.6-17.3-8.8-27-11.1c-15.3-3.7-31.6-2.6-47.1-0.5
	c-19.4,2.5-39.3,6.5-58.8,2.8c-3.5-0.7-7-1.5-10.3-2.7c-0.6-0.2-1.2-0.4-1.8-0.7c-0.7-0.5-1.4-1-2-1.5c-2.9-2.2-5.7-4.5-8.3-6.9
	c-21.5-19.6-37.4-43.1-58-63.3c-46.4-45.5-105-81.2-166.1-111.5C209.5,1965,157,1944.4,103.9,1925z M459.1,2340.1
	c0.1,0,0.1,0.1,0.2,0.1c0,0,0,0-0.1,0L459.1,2340.1C459.2,2340.1,459.1,2340.1,459.1,2340.1z M123.4,1955.9
	c20.6,7.8,41.6,17.3,59.4,26.4c2.5,1.3,4.9,2.5,7.4,3.8c-2.6-1.4,1.8,0.9,1.8,1c1.3,0.7,2.7,1.4,4,2.2c2,1.1,3.9,2.1,5.9,3.2
	c-0.5-0.3,2.5,1.4,2.6,1.5c1.8,1,3.5,2,5.2,3c5.1,3,7.6,4.4,12.6,7.5c4.7,2.9,9.5,5.9,14.1,8.9c38.5,24.9,74.2,53,106.5,83.5
	c15.8,14.9,30.7,30.3,44.7,46.4c13.5,15.5,26.5,31.4,42.8,44.9c19.9,16.5,45.1,30,71.6,37.7c23.1,6.7,47.5,9.3,70.7,15.6
	c5.1,1.4,10.2,3,15.1,4.9c0.3,0.1,1.6,0.7,2.6,1.2c7.5,5.6,13.3,13,16.5,21c6.2,15.5,3.4,33.9-13,44.3c-17.3,11-41.2,9.7-61.7,9.5
	c-12.5-0.1-25.7,0.2-37.6-3.5c-0.8-0.6-1.6-1.1-2.3-1.7c-4.4-3.4-8.6-6.9-12.8-10.4c-62.8-52.4-113.4-113.9-166.3-173.2
	c-53-59.5-109.1-117.5-179.9-162.8c-6.5-4.2-13.1-8.2-19.8-12.1c0.2-1.4,1.1-2.5,2.5-3.3c0.8-0.5,1.8-0.9,2.8-1.1
	c0.2,0,0.3,0,0.5-0.1C120.6,1955,122,1955.5,123.4,1955.9z M201.8,1992.6C201.8,1992.6,201.8,1992.6,201.8,1992.6
	C201.8,1992.6,201.8,1992.6,201.8,1992.6z M201.9,1992.6c0,0,0.1,0,0.1,0.1C202,1992.7,202,1992.7,201.9,1992.6z M202,1992.7
	C202.1,1992.7,202.1,1992.7,202,1992.7C202.1,1992.7,202.1,1992.7,202,1992.7z M201.9,1992.6
	C201.9,1992.6,201.9,1992.6,201.9,1992.6C201.9,1992.6,201.9,1992.6,201.9,1992.6z M202.1,1992.7c0,0,0.1,0,0.1,0.1
	C202.2,1992.8,202.1,1992.8,202.1,1992.7z M202.2,1992.8c0.1,0.1,0.2,0.1,0.3,0.2C202.4,1992.9,202.3,1992.8,202.2,1992.8z
	 M590.3,2247.6c-0.2-0.1-0.4-0.3-0.5-0.4c-3.1-2.2,0.3-0.1,1.4,0.6C592.4,2248.6,591.5,2248.2,590.3,2247.6z M494.6,2319
	c1,0.7,2,1.4,2.7,2c-2.4-2-8.4-3.8-3.6-2.3C494,2318.8,494.3,2318.9,494.6,2319z M464.5,2207.5c0.2,0.2-0.6-0.2-1.4-0.7
	C463.6,2207,464,2207.3,464.5,2207.5z M463.1,2206.8c-0.5-0.3-1.1-0.6-1.5-0.9C461.9,2206,462.5,2206.4,463.1,2206.8z"/>
<path class="accentcolor2" d="M200.2,2428.6c7,8.7,14.4,17.2,22.3,25.2C214.9,2445.4,207.5,2437,200.2,2428.6z"/>
<path class="accentcolor2" d="M957.3,2555.5c8,0,16-0.1,24-0.2c-7.9-52.6-24.4-103.9-32.6-156.5c-15.9-102,6.9-209.7,78.8-294.4
	c31.4-37.1,71.4-69.2,117.7-92.9c11.8-6,23.9-11.4,36.4-16.3c3.3-1.3,6.6-2.6,10-3.6c1.4-0.4,2.7-0.8,4.2-1.1c1,1.9,1.8,3.9,2.6,5.9
	c10.1,26,8.9,54,3.9,80.6c-5,27.1-13.8,53.5-20.7,80.2c-7,27-12.7,54.2-16.2,81.7c-7.1,54.4-5.5,110.2,12.3,163.2
	c17.6,52.3,49.7,99.2,87.5,142.9c4.5-0.3,9-0.6,13.6-0.8c-19.6-23.8-37.2-48.7-51.7-75.1c-25.1-45.8-37.8-95.1-39.4-145.5
	c-1.8-56,8.8-111.8,23.8-166.2c7.4-27,16-53.9,19.3-81.5c2.9-24.1,3-53.4-11.1-75.3c-6.7-10.4-21.5-18-33.9-22.8
	c-13-4.9-25.5,1.2-37.2,6c-24.7,10.1-48,22.6-69.5,37.1c-93.6,62.9-147.2,158.1-158.8,257.2c-6.3,53.9,0.9,106.9,13,159.9
	C942.2,2476.9,952.8,2516,957.3,2555.5z"/>
<path class="accentcolor2" d="M459.1,2340"/>
<path class="accentcolor2" d="M459.1,2340"/>
<path class="accentcolor2" d="M157.4,812.4c-0.2,1.3-0.3,2.6-0.5,3.9c32.5,21.5,66,41.8,100.4,61.5c75.9,43.3,154.5,83.3,229.8,127.5
	c72.7,42.6,142.3,89.8,199.6,146.9c67.8,67.6,114.7,148.5,141.1,233.9c27,87.3,32.5,179.3,15.7,268.3c-4.1,21.9-9.5,43.5-16.3,64.9
	c-6,18.7-13.3,37.5-26,53.9c-13,16.9-31.7,29.3-54.8,35c-23.8,5.8-49.2,4.8-73.2,0.9c-40.6-6.7-77.5-22.7-112-41.4
	c-37.5-20.3-73.5-42.4-112-61.2c-38.1-18.6-79.1-34.1-123.3-38.4c-53.3-5.2-106.5,4-159,10.6c-28.9,3.7-58.4,6.6-87.6,6.2
	c0.8,8.4,1.7,16.9,2.5,25.4c2.8,0.3,5.6,0.6,8.3,0.8c37,3.3,74.2,2.5,111.4,2.4c37-0.1,74.3,0.2,110.8,6c18,2.9,35.8,7.1,52.7,13.1
	c7.5,2.7,14.9,5.7,22,9c3.4,1.6,6.5,3.1,9.1,4.4c1,0.5,1.9,1,2.8,1.5c0.1,0.1,0.9,0.5,1.5,0.8c0,0,0,0,0.1,0c0,0,0.1,0,0.1,0.1
	l0.3,0.2l0.2,0.1l0.7,0.4c1.4,0.8,2.8,1.5,4.2,2.3c0.1,0.1,1,0.5,1.3,0.7h0c0,0,0,0,0,0c0,0,0,0,0,0h0c0,0,0,0,0,0
	c0.7,0.4,1.4,0.8,2.1,1.2c1.6,0.9,3.2,1.9,4.9,2.8c4,2.3,6.4,3.8,10,6c7.3,4.4,14.5,8.9,21.7,13.5c14.7,9.2,29.4,18.5,44.4,27.2
	c31.7,18.4,65.4,35.7,102.3,45.6c16.7,4.5,34.1,7.3,51.7,7.6c18.1,0.3,35.9-2.2,53.6-5c18.7-3,37.4-6.4,56.4-7.2
	c9.2-0.4,18.5-0.2,27.7,1.1c1.4,0.2,2.7,0.4,4.1,0.6c7.3,12.9-6.1,29.7-13.9,40.3c-9.4,12.9-20.4,24.8-31.4,36.7
	c-22.5,24.4-42.7,49.4-58.3,77.4c-7.9,14.2-14.8,28.7-20.8,43.5c-5.8,14.3-10.4,29.3-18.8,42.8c-7.5,12-18.7,22.6-33.8,27.9
	c-7.5,2.6-15.6,3.7-23.6,2.5c-2.1-0.3-4.2-0.7-6.2-1.3c-1-0.3-2-0.9-3-1.1c-0.7-0.5-1.5-1-2.2-1.5c-32.3-21.2-64.4-42.6-96.7-63.9
	c-32.2-21.2-64.2-42.7-98.3-61.7c-33.9-18.9-70-34.4-106.9-48.8c-36.5-14.2-73.2-28.3-109.8-42.4c-21.5-8.3-43-16.8-64.6-25.1
	c0.2,1.9,0.4,3.7,0.6,5.6c11.9,4.5,23.7,9,35.5,13.5c37.1,14.3,74.1,28.6,111.2,42.9c35.2,13.6,71.1,26.5,104.9,42.4
	c7.7,3.6,14.9,7.3,21.3,10.7c6.7,3.6,13.4,7.5,20.4,11.8c15.3,9.3,30.2,19,45.1,28.9c32.2,21.2,64.4,42.5,96.6,63.8
	c17.4,11.5,34.5,23.6,53.9,32.7c14.9,7.1,30.6,11.1,47.1,5.5c34.2-11.5,42.7-44.7,53.3-70.9c12-29.5,27.5-58.2,47.5-84.5
	c19.5-25.6,44.5-47.8,63.3-73.8c8.2-11.3,20.7-27.3,12.9-40.8c-4.3-7.5-14.7-12.6-22.7-16.8c-8.1-4.3-16.4-8.1-25.7-10.1
	c-35.4-7.4-73,3-107.9,7.6c-18.2,2.4-36.4,3.3-54.6,1.2c-17.5-2-34.4-6.2-50.6-12c-8-2.8-15.8-6-23.4-9.5c-3.1-1.4-6.5-3.1-8.6-4.2
	c-1.8-0.9-3.6-1.8-5.4-2.8c0,0,0,0,0,0c0,0-0.1,0-0.1-0.1c-0.6-0.3-3.3-1.7-3.8-2c-0.9-0.5-1.9-1-2.8-1.5c-0.5-0.3-0.8-0.5-1.1-0.6
	c0,0-0.1,0-0.1-0.1c0,0-0.1,0-0.1,0c0,0,0,0,0,0c0,0,0,0,0,0c0,0,0,0,0,0c0,0,0,0,0,0c0,0-0.1,0-0.1,0c0,0,0,0-0.1,0c0,0,0,0,0,0
	c0,0,0,0,0,0c0,0,0,0,0,0c0,0,0,0,0,0c-1.6-0.9-3.1-1.8-4.7-2.7c-3.6-2.1-6.4-3.7-9.3-5.5c-7.3-4.4-14.5-8.9-21.7-13.4
	c-31.1-19.5-62.4-39-96.6-54.7c-32.9-15.1-67.9-24.6-105.1-28.6c-48.1-5.2-96.7-2.8-145.2-3.3c90-2.4,179.6-32.2,269-9.9
	c41.2,10.3,77.7,29.4,113.1,49.4c39,22.1,77.6,45,119.8,62.6c40,16.6,85.7,29.3,130.8,24.2c25-2.8,47.8-12.1,64.1-28.5
	c15.3-15.4,24.3-34.5,31.1-53.5c31.4-88.6,36.7-184.8,20.3-275.9c-16.6-92.3-56.2-183.3-119.7-260.3c-53-64.2-122.2-117.3-196-164.4
	c-76.1-48.6-157.5-90.9-237.5-134.8C262.4,877.9,208.2,846.9,157.4,812.4z"/>
<path class="accentcolor2" d="M89,1781.3c0.2,2.1,0.4,4.3,0.7,6.4c3.3,1.2,6.6,2.4,9.9,3.5c27.5,9.2,56.3,15.4,85.1,21.2
	c60,12.1,119.3,25.8,178.1,41.8c58.5,15.9,116.9,32.6,174.6,50.6c6.4,2,12.7,4.1,19,6.5c2.6,1,5.2,2.1,7.6,3.2
	c0.1,0,0.1,0.1,0.2,0.1c8.8,6.5,16.2,14,21,23.1c9.2,17.6,5.2,37.6-12,50.5c-15,11.3-36.4,16.1-56.3,15.1
	c-11.3-0.5-22.1-3.1-32.4-7.1c-1.9-0.7-4.2-1.7-5.6-2.3c-0.5-0.2-1-0.5-1.5-0.7c-0.1,0-0.2-0.1-0.2-0.1c0,0,0,0-0.1,0h0
	c0,0-0.1,0-0.1-0.1c-0.3-0.1-0.5-0.3-0.8-0.4c0,0,0,0-0.1,0c0,0,0,0,0,0c0,0-0.1,0-0.1-0.1c-0.2-0.1-0.5-0.3-0.7-0.4c0,0,0,0,0,0
	c0,0,0,0,0,0c-0.5-0.3-1.2-0.7-1.6-0.9c0,0-0.1-0.1-0.1-0.1c0,0,0,0,0,0c0,0,0,0,0,0c-0.4-0.2-0.9-0.5-0.8-0.5
	c-0.6-0.4-1.2-0.8-1.8-1.1c-2.5-1.6-4.5-2.9-7.1-4.6c-20.8-14-40.3-29-61.7-42.4c-22.7-14.2-46.5-27.3-71-39.4
	c-45.2-22.4-92.7-41.4-140.9-58.9c-32.5-11.9-65.4-23.1-98-34.7c0.2,2,0.4,3.9,0.6,5.8c25.9,9.3,52,18.4,77.9,27.5
	c48.9,17.2,97.7,34.9,144.4,56.1c4.8,2.2,10.6,4.9,15.9,7.4c6.3,3,8.7,4.2,14.5,7.2c2.7,1.4,5.4,2.8,8.1,4.2
	c0.2,0.1,0.4,0.2,0.5,0.3c0,0,0,0,0.1,0c0,0,0.1,0,0.1,0c0,0,0,0,0,0c0.5,0.3,1,0.5,1.4,0.8c1.4,0.8,2.9,1.6,4.3,2.3
	c1.4,0.8,2.9,1.6,4.3,2.4c0.3,0.2,0.9,0.5,1.5,0.8c0,0,0,0,0,0c0,0,0.1,0.1,0.1,0.1c0,0,0,0,0,0c0,0,0.1,0,0.1,0.1
	c0,0,0.1,0,0.1,0.1c0,0,0,0,0.1,0c0.1,0.1,0.2,0.1,0.2,0.1c0,0,0,0,0.1,0c0,0,0,0,0,0c2.6,1.5,5.1,2.9,7.7,4.4
	c0.8,0.5,1.6,0.9,2.4,1.4c0,0,0.5,0.3,0.8,0.5c0,0,0,0,0.1,0h0c0,0,0,0,0,0h0c0,0,0,0,0.1,0c0,0,0,0,0.1,0c0.1,0,0.1,0.1,0.1,0.1h0
	c0,0,0,0,0,0c0.6,0.4,1.9,1.2,2.4,1.4c2.8,1.7,5.5,3.4,8.3,5.1c4.6,2.9,9.5,6.1,14.4,9.4c10.6,7.2,20.8,14.8,31.2,22.1
	c23.9,16.8,50.3,33.5,79.7,42.8c20.6,6.5,43,7.4,63.8,0.9c18.9-5.9,35.1-18.4,38.2-35.7c4.2-23-14.2-43.1-34.7-56.3
	c-14.5-9.3-30.4-17.3-47-23.6c-13.2-5-27-8.9-40.7-13c-30.4-9.1-60.9-18.1-91.4-26.9c-60.7-17.5-121.9-34-184.1-47.7
	C175.1,1800.7,130.5,1793.9,89,1781.3z"/>
<path class="accentcolor2" d="M152.9,357.8l0.1,3.3c61.4,35.7,122.5,71.8,183.3,108.3c73.1,43.9,145.8,88.4,217.9,133.4
	c34.4,21.4,68.7,43,102.8,64.7c32.6,20.8,64.9,42.7,86.5,72.4c40.9,56.1,41.1,125.8,48.7,189.2c7.5,61.7,17.7,123.7,40.6,182.9
	c21.7,56,55.5,106.3,104.2,148.8c25.7,22.4,53.5,43.3,76,68.2c24.5,27.1,38.6,57.7,42.3,91.6c3.7,33.5-0.9,67.2-4.9,100.5
	c-4.6,38.6-9.2,77.1-13.9,115.7c-4.6,38.6-9.2,77.1-13.9,115.7c-4.4,36.7-7,74-15.3,110.2c-7.3,31.9-21.5,61.1-44.3,87.4
	c-22.2,25.6-49.2,47.8-74,71.5c-50.1,47.9-83.8,105-94.1,168.6c-11.3,70.2,11.7,136.3,38.6,202c20.9,50.8,52,110.3,27.8,162.2
	c10.5,0.2,21,0.4,31.3,0.6c5.4-18.5,4.9-37.9,0.3-57.3c-16.6-70.8-58.8-135.6-71.4-207.5c-11.3-64.5,2.5-131.4,38.7-189
	c35.8-57.1,98.4-95.8,139.2-149.7c22.7-30,32.9-63.7,38.3-98.6c6-38.2,9.6-76.7,14.2-115.1c9.2-76.5,19.1-152.9,27.4-229.4
	c3.7-34.2,5.9-69.4-4-103.1c-8.7-29.6-27.5-55-51.2-77.8c-23.8-23-51.1-43.1-75.4-65.8c-24.5-22.8-44.9-48.4-61.3-75.8
	c-33.8-56.7-50.4-119.5-61-182c-10.9-64.4-9.9-131.8-30.1-194.8c-9.7-30.3-25.8-58.5-50.8-82c-24.3-22.9-53.8-41.3-82.8-59.7
	c-71.7-45.5-143.9-90.5-216.6-134.9C349.5,473.4,251.6,415.1,152.9,357.8z"/>
<path class="accentcolor2" d="M153.2,373.3l0.1,3.4c45.2,26.5,90.2,53.2,135,80.1c71.1,42.7,141.7,85.9,211.8,129.7
	c33.4,20.8,66.7,41.8,99.9,62.9c31.6,20.2,62.9,41.5,83.9,70.3c39.7,54.5,39.9,122.3,47.4,183.9c7.3,60,17.2,120.3,39.5,177.7
	c21.1,54.4,54,103.3,101.3,144.7c24.9,21.8,52,42.1,73.9,66.2c23.9,26.3,37.5,56.1,41.1,89.1c3.6,32.6-0.9,65.3-4.8,97.7
	c-0.6,5-1.2,10-1.8,14.9c-12.4-58.3-34.3-115-63.1-169c-30.6-57.5-70.9-110.5-107.4-165.3c-36.4-54.6-68.6-112.1-78.4-174.7
	c-9.2-58.7-1.4-120.2-25.4-176.8c-24.6-57.8-85.8-92.4-141.4-128.2c-67.7-43.6-135.4-87.1-203.1-130.7
	c-67.3-43.3-134.6-86.7-202-129.9c-1.8-1.2-3.6-2.3-5.4-3.5l0.1,3.9c47.9,30.5,95.3,61.6,143,92.3c66.4,42.7,132.7,85.4,199,128.1
	c32.6,21,65.5,41.6,97.7,63c28.1,18.7,55,39.4,72.6,65.9c34.8,52.4,30.5,115.2,35.5,173c5.2,59.4,26.5,114,58.3,167
	c32.6,54.1,72.5,104.9,105.9,158.7c35.8,57.8,63.8,119.2,81,182.7c31.7,117.5,24,242.6-36.5,352.9c-29.4,53.5-70.7,99.5-121,140.4
	c-25.7,20.9-52,41.9-70.8,67.7c-18.8,25.9-30.4,55.4-33.8,85.6c-7.2,64.1,27.7,122.8,45.6,183.5c13.8,46.8,16.5,103.2-19.3,143.9
	c-39.1,44.4-108.3,47.5-166.6,32.4c-66.3-17.2-119.7-58.2-165.7-100.4c-91.5-84-155.4-185.2-235.9-276.1
	c-8.3-9.4-16.9-18.8-25.7-28.1c0.6,5.6,1.2,11.3,1.9,16.9c80.1,90.9,144,191.8,235.6,275.5c44.3,40.4,95.2,77.2,152.6,103.9
	c51.2,23.8,116,41.7,173.8,24.7c62.7-18.5,86.4-73,84.5-124.8c-2.2-61.7-37.8-117.4-51-177.2c-13.7-61.9,4.7-124.4,53.5-172.5
	c24.3-24,53.3-44.2,78.7-67.3c23.6-21.5,44.4-45.2,62.3-70.3c11.6-16.3,21.9-33.2,31-50.4c0,0.2-0.1,0.3-0.1,0.5
	c-7.1,31-20.9,59.4-43,85c-21.5,24.9-47.8,46.5-71.9,69.5c-48.7,46.6-81.5,102.1-91.4,163.8c-11,68.2,11.3,132.5,37.6,196.3
	c23.4,56.9,60,125,12.4,180c-17.1,19.8-40,34.3-65.7,43.7c17,0.8,34.3,1.6,51.8,2.2c17.5-9.8,32.9-22.2,44.3-37
	c20-26.1,22.9-56.2,15.8-86.1c-16.1-68.8-57.2-131.8-69.4-201.7c-11-62.7,2.5-127.7,37.6-183.7c34.8-55.5,95.6-93.2,135.3-145.5
	c22.1-29.1,32-62,37.3-95.9c5.8-37.1,9.3-74.6,13.8-111.8c8.9-74.3,18.6-148.6,26.6-223c3.6-33.3,5.8-67.5-3.8-100.2
	c-8.4-28.7-26.7-53.5-49.7-75.6c-23.1-22.3-49.7-41.9-73.2-63.9c-23.8-22.2-43.6-47-59.6-73.7c-32.9-55.1-49-116.2-59.2-176.9
	c-10.6-62.6-9.6-128.1-29.2-189.4c-9.4-29.4-25.1-56.8-49.3-79.7c-23.7-22.3-52.4-40.2-80.6-58.1c-69.7-44.2-139.9-87.9-210.6-131.1
	C315.6,469.3,234.7,421,153.2,373.3z"/>
<path class="accentcolor2" d="M141.3,2259.4c0.7,5.5,1.3,10.8,2,16.2c60.6,63.4,127.9,121.9,204.8,172.9c48.4,32.1,99.9,62.8,154.6,87.5
	c3.7,0.3,7.4,0.6,11.1,0.8c-43.6-17.2-84.2-40.8-122.1-64.4C295.2,2412.2,213.3,2339.3,141.3,2259.4z"/>
<path class="accentcolor2" d="M143.3,2276.2c0.8,6.5,1.6,13,2.4,19.3c73,82.8,155,158.6,252.1,223c5.1,3.4,10.2,6.7,15.3,10
	c2.5,0.2,5.1,0.4,7.6,0.7C312.3,2457.9,222.1,2370.9,143.3,2276.2z"/>
<path class="accentcolor2" d="M152,311.1l0.1,3.3c70.7,40.9,140.9,82.4,210.7,124.3c76.7,46,152.8,92.7,228.5,139.9
	c36,22.5,72,45.1,107.7,67.8c34.2,21.8,68.2,44.9,90.9,76.1c42.9,58.8,43,131.9,51.1,198.4c7.8,64.7,18.5,129.7,42.6,191.7
	c22.7,58.6,58.1,111.4,109.1,156c26.9,23.5,56.2,45.4,79.8,71.5c25.7,28.4,40.4,60.5,44.3,96.1c3.9,35.1-1,70.4-5.2,105.4
	c-4.8,40.4-9.7,80.9-14.5,121.3c-4.8,40.4-9.7,80.9-14.5,121.3c-4.6,38.5-7.3,77.6-16,115.6c-7.6,33.5-22.5,64-46.4,91.7
	c-23.2,26.8-51.6,50.1-77.6,75c-52.5,50.2-87.9,110.1-98.6,176.7c-11.9,73.6,12.2,142.9,40.5,211.8c12.9,31.5,29.6,66.2,35.9,100.6
	c7.7,0.1,15.3,0.1,22.9,0.1c-18.7-70.7-59.9-136.1-72.6-208.3c-11.9-67.6,2.7-137.7,40.6-198.2c37.6-59.9,103.2-100.5,146-156.9
	c23.8-31.4,34.5-66.8,40.2-103.4c6.3-40.1,10.1-80.4,14.9-120.6c9.6-80.1,20-160.3,28.7-240.5c3.9-35.9,6.2-72.8-4.2-108.1
	c-9.1-31-28.8-57.6-53.6-81.5c-25-24.1-53.6-45.2-79-68.9c-25.7-23.9-47.1-50.7-64.2-79.5c-35.5-59.5-52.9-125.3-63.9-190.8
	c-11.4-67.5-10.4-138.2-31.5-204.3c-10.2-31.7-27-61.3-53.2-85.9c-25.4-23.9-56.2-43.2-86.5-62.4c-75.2-47.7-150.9-94.9-227.1-141.4
	C370.1,439,261.5,374.5,152,311.1z"/>
<path class="accentcolor2" d="M148.8,2319.4c0,0.1,0,0.1,0,0.2c0.9,7.3,2.6,14.9,4.7,22.5c55.7,64.3,116.4,124.8,184.6,179.5
	c3.6,0.3,7.1,0.7,10.7,1C274,2461.2,208.2,2392.3,148.8,2319.4z"/>
<path class="accentcolor2" d="M1645.1,1528.3C1645.1,1528.3,1645.1,1528.3,1645.1,1528.3c-4.1-1.8,1.1,0.7,0.6,0.4
	C1645.5,1528.5,1645.3,1528.4,1645.1,1528.3z"/>
<path class="accentcolor2" d="M1564.6,1545.3c-35.1-44.8-59.9-94.3-87.7-142.4c-14.1-24.4-29-48.4-46.4-71.2c-17.5-23-37.2-44.8-57.7-66
	c-20.7-21.3-42.2-42.1-63.5-63c-11.4-11.1-22.7-22.2-34.1-33.3c-10.3-10.1-20.3-20.7-32.7-29.1c-14.3-9.6-31.8-19.9-50.5-21.7
	c-6.7-0.7-13.7-0.3-20.3,1c-6.1,1.3-14.1,3.4-17.7,8.2c-3.8,5-1.1,11.8,0.6,17c1.7,5.1,3.9,10,6.5,14.8
	c5.5,10.2,12.9,19.6,21.1,28.5c16.9,18.3,37,34.1,54.8,51.8c19,18.9,35.1,39.9,48.6,61.8c28.3,46.1,45.1,96.4,56.9,147
	c13,56,20,112.7,31.3,168.9c5,25.2,11,50.5,22.4,74.2c5.6,11.6,12.3,23.2,21.4,33.2c11.4,12.5,28.6,22.2,45.6,28.5
	c26,9.8,58.2,4.3,83.2-5.3c24.6-9.5,43.4-26.2,54.3-46.9c21.4-40.6,11.7-89.4-13.3-127.2C1580.6,1564.1,1572.8,1554.6,1564.6,1545.3
	z M1539.1,1532.2c0-0.1-0.1-0.1-0.1-0.2c-0.6-0.9,1.8,0,2.1,0.1c2.9,0.8,5.6,2.4,8.2,3.7c5,2.5,11.9,5.5,15.4,9.5
	c1,1.2-1.5,0.2-2,0.1c-2.9-0.8-5.6-2.4-8.2-3.7c-3.4-1.7-6.8-3.6-10-5.6c-1.4-0.9-3.8-2.2-5.1-3.5
	C1539.3,1532.4,1539.2,1532.3,1539.1,1532.2z M1539.4,1532.6c15.3,17.5,29.1,36,37.1,56.7c7.9,20.5,11.8,42.7,8.8,64.2
	c-2.8,20.6-11.8,40.9-27.7,56.9c-17.7,17.9-43.4,28.3-70.4,32.5c-13.2,2.1-27.2,2.5-40.1-0.7c-1.2-1.1-2.5-2.1-3.6-3.3
	c-4.2-4.5-7.8-9.5-11.1-14.6c-14.4-22.1-22.4-46.6-28.1-71.2c-12.5-53.1-18.8-107-29.4-160.3c-9.8-49.3-23.1-98.4-45.7-144.8
	c-10.8-22.1-23.7-43.6-39.2-63.6c-15.1-19.5-32.9-36.8-51.8-53.8c-17.6-15.9-35.7-32.1-47.9-51.4c-3.1-4.8-5.7-9.8-7.8-15
	c-2.1-5.2-4.6-11.2-4.3-16.7c0.6-11.8,21.4-14.9,32.4-14.8c5.7,0,11,0.9,16.2,2.3c2.6,2.1,5.1,4.3,7.5,6.6
	c10.7,10.1,21,20.4,31.4,30.7c21,20.5,42.1,40.9,62.9,61.6c20,20,39.6,40.3,57.6,61.6c18,21.2,34,43.5,48.4,66.6
	c28.3,45.4,51.2,93.1,81,137.8c7.3,10.9,15,21.7,23.2,32.2c0,0.1,0.1,0.1,0.1,0.2C1539.2,1532.3,1539.3,1532.4,1539.4,1532.6z
	 M1447.2,1742.1c1.2,1,2.4,2.1,3.5,3.2c0.6,0.6-9.6-5.1-9.6-5.1c0.4,0.1,0.7,0.3,1.1,0.4c1.5,0.5,3,1,4.6,1.4
	C1446.9,1742,1447,1742.1,1447.2,1742.1z M1226.9,1134.9c-0.2-0.2-0.4-0.3-0.6-0.5c-1-0.8-2.1-1.6-3.1-2.4c-2.6-2,11.5,5.2,7.3,3.9
	C1229.3,1135.6,1228.1,1135.2,1226.9,1134.9z"/>
<path class="accentcolor2" d="M479.7,2262.9c5.8,3.7,11.3,7.7,16.9,11.7c14,10,28.6,19.2,44.5,26.9c6.6,3.2,14.8,7.8,22.8,7.6
	c6.3-0.1,10.7-4,12.3-8.9c5-14.8-12.6-26-25.2-33c-8.4-4.7-17.3-8.9-26.8-12c-5.8-1.9-11.4-2-17.6-2c-0.3,0-0.5,0-0.8,0
	c-2.9,0.7-5.6,0.7-8.2,0.5c-1.5-1.6-3.1-3.2-4.7-4.8c-12.6-11.5-30.1-20.1-46.8-26.7c-6.5-2.5-13.3-4.6-20.1-6.6
	c-5.3-1.5-11.9-3.9-17.5-2.1c-6.4,2.1-5.2,8.1-2.2,12c4.9,6.6,14.4,11.2,21.9,15.4c14.4,8,29.8,13,45.5,18.9c1.3,0.5,2.6,1,3.9,1.5
	c0.1,0.1,0.7,0.3,1.1,0.5C479.1,2262.5,479.7,2262.9,479.7,2262.9z M479.7,2262.9C479.7,2262.9,479.7,2262.9,479.7,2262.9
	C479.7,2262.9,479.7,2262.9,479.7,2262.9z M531.7,2267.5c4.2,0,8.6-0.2,12.7,0.7c0.2,0,0.4,0.1,0.6,0.1c5.3,6.4,8.5,14.3,3,21.6
	c-3.3,4.4-9.1,5.9-14.9,4.1c-0.5-0.1-1.4-0.5-2-0.8c-0.8-0.5-1.9-1.2-1.6-1c-9.6-6.2-18.4-13.1-27.9-19.4
	c-12.7-8.5-26.3-16.4-40.8-22.6c-9.2-4-19-7.5-28.6-10.8c-1.4-1.7-2.6-3.7-2.5-5.8c0-4.9,5.5-6.7,10.6-6.1c4.9,0.6,9.7,2.3,14.4,3.7
	c3.9,1.2,8.7,3.3,12.6,4.6c0,0,0,0,0,0c2.2,1.9,4.1,4.1,6,6.1c5.4,5.8,11.1,10.6,18.4,14.8C503.2,2263.6,517,2270.8,531.7,2267.5z
	 M545,2268.4c-0.9-1.1-1.9-2.1-2.8-3.1c1.7,1.7,4.3,3.2,6.5,4.3C547.5,2269.1,546.3,2268.7,545,2268.4z M548.7,2269.6
	c0.2,0.1,0.4,0.1,0.6,0.2C555.6,2272.2,552.8,2271.6,548.7,2269.6z M531.4,2293.5c0.1,0,0.1,0.1,0.2,0.1c0,0,0,0-0.1,0
	c-1.9-1-1.4-0.7-0.4-0.3c0.3,0.2,0.5,0.3,0.6,0.4c0,0-0.1-0.1-0.1-0.1C531.6,2293.6,531.5,2293.5,531.4,2293.5z M531.6,2293.6
	 M531.7,2293.7c0.1,0,0.1,0.1,0.2,0.1c0.6,0.4,1.3,0.8-0.3-0.2C531.9,2293.8,531.9,2293.8,531.7,2293.7z M432.2,2239.5
	c0.2,0.3,0.5,0.5,0.7,0.8c0.6,0.6,1.6,1.2,2.1,1.8c3.1,3.7-5.3-3.5-7.2-4.1C429.3,2238.5,430.8,2239,432.2,2239.5z M467.2,2235.9
	c-1-0.8-2.7-1.7-3.4-2.6c0.8,1.1,4.7,3.1,6,3.4C469,2236.5,468.1,2236.2,467.2,2235.9z M531.7,2267.5c-0.2,0-0.4,0-0.6,0
	c-2,0-4.8-1.8-6.5-2.6c-3.5-1.6-6.8-3.5-10.1-5.4c-2.4-1.4-5.4-3-7.4-4.7c-0.5-0.4-2.2-1.5-0.7-1.6c0,0,0.1,0,0.1,0
	c1.2,0.1,2.7,0.9,3.6,1.3c3.3,1.4,6.4,3,9.5,4.7c3.1,1.6,6.1,3.4,9,5.3c-0.7-0.5,3.8,2.7,3.2,2.9
	C531.8,2267.5,531.8,2267.5,531.7,2267.5z M497.6,2253.8c0.9,1,1.8,2,2.7,2.9c1.1,1.2,2.3,2.4,3.5,3.6c0.7,0.6,1.5,1.2,2.2,1.9
	c-6-3.3-12-6.6-17.9-9.8c0.1,0,0.2,0.1,0.4,0.1C491.6,2253,494.6,2253.6,497.6,2253.8z M477.9,2261.7c-1.9-1.2-0.3-0.2,0.8,0.4
	c0.8,0.5,0.4,0.3-0.1,0C477.7,2261.7,477.1,2261.3,477.9,2261.7z"/>
<path class="accentcolor2" d="M531.4,2293.5c-0.1,0-0.1-0.1-0.2-0.1C531.3,2293.4,531.4,2293.5,531.4,2293.5z"/>
<path class="accentcolor2" d="M477.9,2261.7C477.9,2261.8,477.9,2261.8,477.9,2261.7C477.9,2261.8,477.9,2261.8,477.9,2261.7z"/>
<path class="accentcolor2" d="M422.3,1813.5C422.3,1813.6,422.3,1813.6,422.3,1813.5C422.3,1813.6,422.3,1813.5,422.3,1813.5z"/>
</svg>
