<?xml version="1.0" encoding="utf-8"?>
<!-- Generator: Adobe Illustrator 27.9.1, SVG Export Plug-In . SVG Version: 6.00 Build 0)  -->
<svg class="v" version="1.1" xmlns="http://www.w3.org/2000/svg" xmlns:xlink="http://www.w3.org/1999/xlink" x="0px" y="0px"
	 viewBox="0 0 1900.9 2586.2" style="enable-background:new 0 0 1900.9 2586.2;" xml:space="preserve">
     $gradientDefs

	<path class="maincolor" d="M950.5,62.5C649.2,62.1,421.4,41.7,115.1,0L130,744.5c1.5,73.7-12.4,136.7-44.7,203l-63,129.2
	c-18.8,38.7-25.5,76.1-21,118.9c0,0,68.2,742.7,117.1,1127.9c13.6,107.4,133.3,220.5,214,228.4c161.3,15.6,402.2,34.3,618.1,34.3
	s456.7-18.7,618.1-34.3c80.7-7.8,200.3-121,214-228.4c49-385.2,117.1-1127.9,117.1-1127.9c4.4-42.8-2.2-80.2-21-118.9l-63-129.2
	c-32.3-66.3-46.2-129.2-44.7-203L1785.8,0C1479.6,41.7,1251.8,62.1,950.5,62.5z"/>
<path class="accentcolor" d="M1245,1791.4l29.9-71.2l-2-43.8c-0.1-2.5-2.2-4.5-4.8-4.5l-49.3,0.7c-1.9,0-3.5,1.1-4.3,2.9l-39.8,93.3
	c-1.1,2.6,0.3,5.5,2.9,6.3l61.5,19C1241.6,1794.8,1244.1,1793.6,1245,1791.4z"/>
<path class="accentcolor" d="M1284.3,1676.5l2.1,45.6l-30.1,71.7c-1.1,2.6,0.3,5.5,2.9,6.3l46.3,14.3c2.1,0.7,4.3-0.2,5.5-2.1l29-49.8
	l-6.6-87.2c-0.2-2.5-2.3-4.4-4.8-4.4l-39.7,0.5C1286.3,1671.6,1284.2,1673.9,1284.3,1676.5z"/>
<path class="accentcolor" d="M1101.8,1466.4l-30.4,71l1.8,43.8c0.1,2.5,2.2,4.5,4.7,4.5l49.3-0.3c1.9,0,3.5-1.1,4.3-2.8l40.4-93
	c1.1-2.6-0.2-5.5-2.9-6.4l-61.4-19.4C1105.3,1463,1102.8,1464.1,1101.8,1466.4z"/>
<path class="accentcolor" d="M1061.8,1581l-1.8-45.6l30.6-71.5c1.1-2.6-0.3-5.5-2.9-6.3l-46.2-14.6c-2.1-0.7-4.3,0.2-5.5,2.1l-29.4,49.6
	l6,87.3c0.2,2.5,2.2,4.4,4.7,4.4l39.7-0.3C1059.8,1585.8,1061.9,1583.6,1061.8,1581z"/>
<path class="accentcolor" d="M1450.2,1414.6l-35.3-95.8c-0.4-1.1-1.6-1.6-2.6-1.3l-67.2,20.6l-103.4-10.9c-1-0.1-2.5,0.7-2.5,1.6
	c0.3,3.1,5.2,53.8,13.9,85.9c3.2,11.8,13.8,24.6,13.8,24.6l69.8,6c0.9,0,1.7-0.5,2-1.3l13.7-42.9c0.4-1,2-0.8,2.2,0.2l8.6,39.5
	c0.3,1.3,1.7,2.1,2.9,1.6l82.9-25C1450.1,1416.9,1450.6,1415.7,1450.2,1414.6z"/>
<path class="accentcolor" d="M893.8,1839.2l31,84.1c0.4,1.1,1.6,1.6,2.6,1.3l73.9-7.8l103.4,10.9c1,0.1,2.5-0.7,2.5-1.6
	c-0.3-3.1-5.2-53.8-13.9-85.9c-3.2-11.8-13.8-24.6-13.8-24.6l-68-1.4c-0.9,0-1.7,0.5-2,1.3l-15.4,38.3c-0.4,1-2,0.8-2.2-0.2l-7.3-36
	c-0.3-1.3-1.7-2.1-2.9-1.6l-86.6,20.4C893.9,1836.9,893.4,1838.1,893.8,1839.2z"/>
<path class="accentcolor" d="M1586.6,1784.6l-35.3-95.8c-0.4-1.1-1.6-1.6-2.6-1.3l-67.2,20.6l-103.4-10.9c-1-0.1-2.5,0.7-2.5,1.6
	c0.3,3.1,5.2,53.8,13.9,85.9c3.2,11.8,13.8,24.6,13.8,24.6l69.8,6c0.9,0,1.7-0.5,2-1.3l13.7-42.9c0.4-1,2-0.8,2.2,0.2l8.6,39.5
	c0.3,1.3,1.7,2.1,2.9,1.6l82.9-25C1586.4,1786.8,1587,1785.6,1586.6,1784.6z"/>
<path class="accentcolor" d="M758.5,1471.9l31,84.1c0.4,1.1,1.6,1.6,2.6,1.3l73.9-7.8l103.4,10.9c1,0.1,2.5-0.7,2.5-1.6
	c-0.3-3.1-5.2-53.8-13.9-85.9c-3.2-11.8-13.8-24.6-13.8-24.6l-68-1.4c-0.9,0-1.7,0.5-2,1.3l-15.4,38.3c-0.4,1-2,0.8-2.2-0.2l-7.3-36
	c-0.3-1.3-1.7-2.1-2.9-1.6l-86.6,20.4C758.6,1469.6,758.1,1470.8,758.5,1471.9z"/>
<path class="accentcolor" d="M1108.3,1418.9l30.4-71l-1.8-43.8c-0.1-2.5-2.2-4.5-4.7-4.5l-49.3,0.3c-1.9,0-3.5,1.1-4.3,2.8l-40.4,93
	c-1.1,2.6,0.2,5.5,2.9,6.4l61.4,19.4C1104.8,1422.3,1107.3,1421.1,1108.3,1418.9z"/>
<path class="accentcolor" d="M1148.3,1304.3l1.8,45.6l-30.6,71.5c-1.1,2.6,0.3,5.5,2.9,6.3l46.2,14.6c2.1,0.7,4.3-0.2,5.5-2.1l29.4-49.6
	l-6-87.3c-0.2-2.5-2.2-4.4-4.7-4.4l-39.7,0.3C1150.3,1299.4,1148.1,1301.7,1148.3,1304.3z"/>
<path class="accentcolor" d="M1237.9,1835.7l-30.4,71l1.8,43.8c0.1,2.5,2.2,4.5,4.7,4.5l49.3-0.3c1.9,0,3.5-1.1,4.3-2.8l40.4-93
	c1.1-2.6-0.2-5.5-2.9-6.4l-61.4-19.4C1241.4,1832.4,1238.9,1833.5,1237.9,1835.7z"/>
<path class="accentcolor" d="M1197.9,1950.3l-1.8-45.6l30.6-71.5c1.1-2.6-0.3-5.5-2.9-6.3l-46.2-14.6c-2.1-0.7-4.3,0.2-5.5,2.1l-29.4,49.6
	l6,87.3c0.2,2.5,2.2,4.4,4.7,4.4l39.7-0.3C1195.9,1955.2,1198,1953,1197.9,1950.3z"/>
<path class="accentcolor" d="M1545.3,1591.5l-32.6-88.5c-0.8-2-2.8-3.2-5-2.8l-84.2,16.9l-51.6-4.6c-2.6-0.2-4.8,1.8-4.8,4.4l1.3,112.1
	c0,2.5,2.1,4.4,4.5,4.3l88.7-3l81.1-33.3C1545,1596.1,1546.1,1593.7,1545.3,1591.5z"/>
<path class="accentcolor" d="M801.5,1665.4l32.6,88.5c0.8,2,2.8,3.2,5,2.8l84.2-16.9l51.6,4.6c2.6,0.2,4.8-1.8,4.8-4.4l-1.3-112.1
	c0-2.5-2.1-4.4-4.5-4.3l-88.7,3l-81.1,33.3C801.8,1660.8,800.7,1663.2,801.5,1665.4z"/>
<path class="accentcolor" d="M1332.5,1573.2l-89.4-6.1l-42.3-22.8c-2.1-1.1-4.7-0.3-5.7,1.9l-17.6,38c-0.5,1.2-0.5,2.4,0,3.5l21.5,45.1
	c0.8,1.6,2.3,2.5,4.1,2.3l128.8-12.2c2.1-0.2,3.7-1.9,3.7-4l0.7-41.5C1336.3,1575.1,1334.7,1573.3,1332.5,1573.2z"/>
<path class="accentcolor" d="M1205.1,1533.8l41.2,22.2l86,5.9c2.4,0.2,4.4-1.7,4.4-4l0.9-55.1c0-2-1.3-3.7-3.3-4.1l-103.8-21.2
	c-1.9-0.4-3.7,0.5-4.6,2.3l-22.6,48.7C1202.4,1530.4,1203.2,1532.7,1205.1,1533.8z"/>
<path class="accentcolor" d="M1012.2,1688.9l89.4,6.1l42.3,22.8c2.1,1.1,4.7,0.3,5.7-1.9l17.6-38c0.5-1.2,0.5-2.4,0-3.5l-21.5-45.1
	c-0.8-1.6-2.3-2.5-4.1-2.3l-128.8,12.2c-2.1,0.2-3.7,1.9-3.7,4l-0.7,41.5C1008.3,1686.9,1010,1688.7,1012.2,1688.9z"/>
<path class="accentcolor" d="M1139.5,1728.2l-41.2-22.2l-86-5.9c-2.4-0.2-4.4,1.7-4.4,4l-0.9,55.1c0,2,1.3,3.7,3.3,4.1l103.8,21.2
	c1.9,0.4,3.7-0.5,4.6-2.3l22.6-48.7C1142.3,1731.6,1141.5,1729.3,1139.5,1728.2z"/>
<path class="accentcolor" d="M1407.3,1217l-32.6-88.5c-0.8-2-2.8-3.2-5-2.8l-84.2,16.9l-51.6-4.6c-2.6-0.2-4.8,1.8-4.8,4.4l1.3,112.1
	c0,2.5,2.1,4.4,4.5,4.3l88.7-3l81.1-33.3C1407,1221.6,1408.1,1219.2,1407.3,1217z"/>
<path class="accentcolor" d="M663.2,1289.9l32.6,88.5c0.8,2,2.8,3.2,5,2.8l84.2-16.9l51.6,4.6c2.6,0.2,4.8-1.8,4.8-4.4l-1.3-112.1
	c0-2.5-2.1-4.4-4.5-4.3l-88.7,3l-81.1,33.3C663.4,1285.2,662.3,1287.7,663.2,1289.9z"/>
<path class="accentcolor" d="M871.9,1308.1l89.4,6.1l42.3,22.8c2.1,1.1,4.7,0.3,5.7-1.9l17.6-38c0.5-1.2,0.5-2.4,0-3.5l-21.5-45.1
	c-0.8-1.6-2.3-2.5-4.1-2.3l-128.8,12.2c-2.1,0.2-3.7,1.9-3.7,4l-0.7,41.5C868,1306.1,869.7,1307.9,871.9,1308.1z"/>
<path class="accentcolor" d="M999.3,1347.5l-41.2-22.2l-86-5.9c-2.4-0.2-4.4,1.7-4.4,4l-0.9,55.1c0,2,1.3,3.7,3.3,4.1l103.8,21.2
	c1.9,0.4,3.7-0.5,4.6-2.3l22.6-48.7C1002,1350.8,1001.2,1348.5,999.3,1347.5z"/>
<path class="accentcolor" d="M1193.4,1195.8l-89.4-6.1l-42.3-22.8c-2.1-1.1-4.7-0.3-5.7,1.9l-17.6,38c-0.5,1.2-0.5,2.4,0,3.5l21.5,45.1
	c0.8,1.6,2.3,2.5,4.1,2.3l128.8-12.2c2.1-0.2,3.7-1.9,3.7-4l0.7-41.5C1197.3,1197.8,1195.6,1195.9,1193.4,1195.8z"/>
<path class="accentcolor" d="M1066,1156.4l41.2,22.2l86,5.9c2.4,0.2,4.4-1.7,4.4-4l0.9-55.1c0-2-1.3-3.7-3.3-4.1l-103.8-21.2
	c-1.9-0.4-3.7,0.5-4.6,2.3l-22.6,48.7C1063.3,1153,1064.1,1155.4,1066,1156.4z"/>
<path class="accentcolor" d="M1516.6,2528.5l29.9-71.2l-2-43.8c-0.1-2.5-2.2-4.5-4.8-4.5l-49.3,0.7c-1.9,0-3.5,1.1-4.3,2.9l-39.8,93.3
	c-1.1,2.6,0.3,5.5,2.9,6.3l61.5,19C1513.2,2531.9,1515.7,2530.8,1516.6,2528.5z"/>
<path class="accentcolor" d="M1575,2551c2.5-0.4,5-0.9,7.5-1.5c0,0,0,0,0,0l29-49.8l-6.6-87.2c-0.2-2.5-2.3-4.4-4.8-4.4l-39.7,0.5
	c-2.7,0-4.8,2.3-4.6,4.9l2.1,45.6l-30.1,71.7c-1.1,2.6,0.3,5.5,2.9,6.3L1575,2551z"/>
<path class="accentcolor" d="M1373.4,2203.5l-30.4,71l1.8,43.8c0.1,2.5,2.2,4.5,4.7,4.5l49.3-0.3c1.9,0,3.5-1.1,4.3-2.8l40.4-93
	c1.1-2.6-0.2-5.5-2.9-6.4l-61.4-19.4C1376.9,2200.2,1374.4,2201.3,1373.4,2203.5z"/>
<path class="accentcolor" d="M1333.4,2318.1l-1.8-45.6l30.6-71.5c1.1-2.6-0.3-5.5-2.9-6.3l-46.2-14.6c-2.1-0.7-4.3,0.2-5.5,2.1l-29.4,49.6
	l6,87.3c0.2,2.5,2.2,4.4,4.7,4.4l39.7-0.3C1331.4,2323,1333.5,2320.8,1333.4,2318.1z"/>
<path class="accentcolor" d="M1721.8,2151.7l-35.3-95.8c-0.4-1.1-1.6-1.6-2.6-1.3l-67.2,20.6l-103.4-10.9c-1-0.1-2.5,0.7-2.5,1.6
	c0.3,3.1,5.2,53.8,13.9,85.9c3.2,11.8,13.8,24.6,13.8,24.6l69.8,6c0.9,0,1.7-0.5,2-1.3l13.7-42.9c0.4-1,2-0.8,2.2,0.2l8.6,39.5
	c0.3,1.3,1.7,2.1,2.9,1.6l82.9-25C1721.7,2154,1722.2,2152.8,1721.8,2151.7z"/>
<path class="accentcolor" d="M1167.1,2580.9c31.4-1.4,62.7-3.1,93.4-4.9l-4.3-21.3c-0.3-1.3-1.7-2.1-2.9-1.6l-86.6,20.4
	c-1.1,0.4-1.6,1.6-1.2,2.7L1167.1,2580.9z"/>
<path class="accentcolor" d="M1272,2575.3c30.6-1.9,60.7-3.9,90-6c-4.4-9-10.8-16.7-10.8-16.7l-68-1.4c-0.9,0-1.7,0.5-2,1.3L1272,2575.3z"/>
<path class="accentcolor" d="M1658.5,2511.8c25.2-18.6,49.7-42.4,70.1-69.1l-79.1-8.3c-1-0.1-2.5,0.7-2.5,1.6
	C1647.4,2438.7,1651.4,2480.1,1658.5,2511.8z"/>
<path class="accentcolor" d="M1030.1,2209l31,84.1c0.4,1.1,1.6,1.6,2.6,1.3l73.9-7.8l103.4,10.9c1,0.1,2.5-0.7,2.5-1.6
	c-0.3-3.1-5.2-53.8-13.9-85.9c-3.2-11.8-13.8-24.6-13.8-24.6l-68-1.4c-0.9,0-1.7,0.5-2,1.3l-15.4,38.3c-0.4,1-2,0.8-2.2-0.2l-7.3-36
	c-0.3-1.3-1.7-2.1-2.9-1.6l-86.6,20.4C1030.2,2206.8,1029.7,2208,1030.1,2209z"/>
<path class="accentcolor" d="M1379.9,2156.1l30.4-71l-1.8-43.8c-0.1-2.5-2.2-4.5-4.7-4.5l-49.3,0.3c-1.9,0-3.5,1.1-4.3,2.8l-40.4,93
	c-1.1,2.6,0.2,5.5,2.9,6.4l61.4,19.4C1376.4,2159.4,1378.9,2158.3,1379.9,2156.1z"/>
<path class="accentcolor" d="M1419.9,2041.5l1.8,45.6l-30.6,71.5c-1.1,2.6,0.3,5.5,2.9,6.3l46.2,14.6c2.1,0.7,4.3-0.2,5.5-2.1l29.4-49.6
	l-6-87.3c-0.2-2.5-2.2-4.4-4.7-4.4l-39.7,0.3C1421.9,2036.6,1419.7,2038.8,1419.9,2041.5z"/>
<path class="accentcolor" d="M1436.6,2563.6c15.6-1.3,30.8-2.5,45.6-3.8l-32.9-10.4c-2.1-0.7-4.3,0.2-5.5,2.1L1436.6,2563.6z"/>
<path class="accentcolor" d="M1777.2,2349.5c2.4-8.7,4.2-17.3,5.3-26c2.7-21,5.4-43.1,8.2-66.1l-6.4-17.3c-0.8-2-2.8-3.2-5-2.8l-84.2,16.9
	l-51.6-4.6c-2.6-0.2-4.8,1.8-4.8,4.4l1.3,112.1c0,2.5,2.1,4.4,4.5,4.3l88.7-3C1733.3,2367.5,1757.1,2357.7,1777.2,2349.5z"/>
<path class="accentcolor" d="M1073.1,2402.6l32.6,88.5c0.8,2,2.8,3.2,5,2.8l84.2-16.9l51.6,4.6c2.6,0.2,4.8-1.8,4.8-4.4L1250,2365
	c0-2.5-2.1-4.4-4.5-4.3l-88.7,3l-81.1,33.3C1073.4,2397.9,1072.3,2400.4,1073.1,2402.6z"/>
<path class="accentcolor" d="M1604.1,2310.3l-89.4-6.1l-42.3-22.8c-2.1-1.1-4.7-0.3-5.7,1.9l-17.6,38c-0.5,1.2-0.5,2.4,0,3.5l21.5,45.1
	c0.8,1.6,2.3,2.5,4.1,2.3l128.8-12.2c2.1-0.2,3.7-1.9,3.7-4l0.7-41.5C1607.9,2312.3,1606.3,2310.4,1604.1,2310.3z"/>
<path class="accentcolor" d="M1476.7,2270.9l41.2,22.2l86,5.9c2.4,0.2,4.4-1.7,4.4-4l0.9-55.1c0-2-1.3-3.7-3.3-4.1l-103.8-21.2
	c-1.9-0.4-3.7,0.5-4.6,2.3l-22.6,48.7C1474,2267.5,1474.8,2269.9,1476.7,2270.9z"/>
<path class="accentcolor" d="M1283.8,2426l89.4,6.1l42.3,22.8c2.1,1.1,4.7,0.3,5.7-1.9l17.6-38c0.5-1.2,0.5-2.4,0-3.5l-21.5-45.1
	c-0.8-1.6-2.3-2.5-4.1-2.3l-128.8,12.2c-2.1,0.2-3.7,1.9-3.7,4l-0.7,41.5C1279.9,2424,1281.6,2425.8,1283.8,2426z"/>
<path class="accentcolor" d="M1411.2,2465.4l-41.2-22.2l-86-5.9c-2.4-0.2-4.4,1.7-4.4,4l-0.9,55.1c0,2,1.3,3.7,3.3,4.1l103.8,21.2
	c1.9,0.4,3.7-0.5,4.6-2.3l22.6-48.7C1413.9,2468.8,1413.1,2466.4,1411.2,2465.4z"/>
<path class="accentcolor" d="M1678.9,1954.1l-32.6-88.5c-0.8-2-2.8-3.2-5-2.8l-84.2,16.9l-51.6-4.6c-2.6-0.2-4.8,1.8-4.8,4.4l1.3,112.1
	c0,2.5,2.1,4.4,4.5,4.3l88.7-3l81.1-33.3C1678.6,1958.8,1679.7,1956.3,1678.9,1954.1z"/>
<path class="accentcolor" d="M934.8,2027l32.6,88.5c0.8,2,2.8,3.2,5,2.8l84.2-16.9l51.6,4.6c2.6,0.2,4.8-1.8,4.8-4.4l-1.3-112.1
	c0-2.5-2.1-4.4-4.5-4.3l-88.7,3l-81.1,33.3C935,2022.4,933.9,2024.8,934.8,2027z"/>
<path class="accentcolor" d="M1143.5,2045.2l89.4,6.1l42.3,22.8c2.1,1.1,4.7,0.3,5.7-1.9l17.6-38c0.5-1.2,0.5-2.4,0-3.5l-21.5-45.1
	c-0.8-1.6-2.3-2.5-4.1-2.3l-128.8,12.2c-2.1,0.2-3.7,1.9-3.7,4l-0.7,41.5C1139.6,2043.2,1141.3,2045.1,1143.5,2045.2z"/>
<path class="accentcolor" d="M1270.9,2084.6l-41.2-22.2l-86-5.9c-2.4-0.2-4.4,1.7-4.4,4l-0.9,55.1c0,2,1.3,3.7,3.3,4.1l103.8,21.2
	c1.9,0.4,3.7-0.5,4.6-2.3l22.6-48.7C1273.6,2088,1272.8,2085.6,1270.9,2084.6z"/>
<path class="accentcolor" d="M1465,1932.9l-89.4-6.1l-42.3-22.8c-2.1-1.1-4.7-0.3-5.7,1.9l-17.6,38c-0.5,1.2-0.5,2.4,0,3.5l21.5,45.1
	c0.8,1.6,2.3,2.5,4.1,2.3l128.8-12.2c2.1-0.2,3.7-1.9,3.7-4l0.7-41.5C1468.9,1934.9,1467.2,1933.1,1465,1932.9z"/>
<path class="accentcolor" d="M1337.6,1893.6l41.2,22.2l86,5.9c2.4,0.2,4.4-1.7,4.4-4l0.9-55.1c0-2-1.3-3.7-3.3-4.1l-103.8-21.2
	c-1.9-0.4-3.7,0.5-4.6,2.3l-22.6,48.7C1334.9,1890.2,1335.7,1892.5,1337.6,1893.6z"/>
<path class="accentcolor" d="M700.6,313.7l29.9-71.2l-2-43.8c-0.1-2.5-2.2-4.5-4.8-4.5l-49.3,0.7c-1.9,0-3.5,1.1-4.3,2.9L630.4,291
	c-1.1,2.6,0.3,5.5,2.9,6.3l61.5,19C697.2,317.1,699.6,315.9,700.6,313.7z"/>
<path class="accentcolor" d="M739.8,198.8l2.1,45.6l-30.1,71.7c-1.1,2.6,0.3,5.5,2.9,6.3l46.3,14.3c2.1,0.7,4.3-0.2,5.5-2.1l29-49.8
	l-6.6-87.2c-0.2-2.5-2.3-4.4-4.8-4.4l-39.7,0.5C741.8,193.9,739.7,196.2,739.8,198.8z"/>
<path class="accentcolor" d="M609.9,52.1c-25.8-1.6-51.6-3.5-77.3-5.5L527,59.7l1.8,43.8c0.1,2.5,2.2,4.5,4.7,4.5l49.3-0.3
	c1.9,0,3.5-1.1,4.3-2.8L609.9,52.1z"/>
<path class="accentcolor" d="M520.7,45.6c-18.9-1.5-37.8-3.2-56.8-4.9l4.4,63.3c0.2,2.5,2.2,4.4,4.7,4.4l39.7-0.3c2.7,0,4.8-2.2,4.7-4.9
	l-1.8-45.6L520.7,45.6z"/>
<path class="accentcolor" d="M349.4,361.5l31,84.1c0.4,1.1,1.6,1.6,2.6,1.3l73.9-7.8l103.4,10.9c1,0.1,2.5-0.7,2.5-1.6
	c-0.3-3.1-5.2-53.8-13.9-85.9c-3.2-11.8-13.8-24.6-13.8-24.6l-68-1.4c-0.9,0-1.7,0.5-2,1.3L449.7,376c-0.4,1-2,0.8-2.2-0.2l-7.3-36
	c-0.3-1.3-1.7-2.1-2.9-1.6l-86.6,20.4C349.5,359.2,349,360.4,349.4,361.5z"/>
<path class="accentcolor" d="M1042.1,306.9l-35.3-95.8c-0.4-1.1-1.6-1.6-2.6-1.3l-67.2,20.6l-103.4-10.9c-1-0.1-2.5,0.7-2.5,1.6
	c0.3,3.1,5.2,53.8,13.9,85.9c3.2,11.8,13.8,24.6,13.8,24.6l69.8,6c0.9,0,1.7-0.5,2-1.3l13.7-42.9c0.4-1,2-0.8,2.2,0.2l8.6,39.5
	c0.3,1.3,1.7,2.1,2.9,1.6l82.9-25C1042,309.1,1042.5,307.9,1042.1,306.9z"/>
<path class="accentcolor" d="M421.9,36.8C357.1,30.4,291,22.8,221.3,14L245,78.3c0.4,1.1,1.6,1.6,2.6,1.3l73.9-7.8L425,82.7
	c1,0.1,2.5-0.7,2.5-1.6C427.3,79.1,425.4,59.3,421.9,36.8z"/>
<path class="accentcolor" d="M693.5,358l-30.4,71l1.8,43.8c0.1,2.5,2.2,4.5,4.7,4.5l49.3-0.3c1.9,0,3.5-1.1,4.3-2.8l40.4-93
	c1.1-2.6-0.2-5.5-2.9-6.4l-61.4-19.4C696.9,354.7,694.4,355.8,693.5,358z"/>
<path class="accentcolor" d="M653.5,472.6l-1.8-45.6l30.6-71.5c1.1-2.6-0.3-5.5-2.9-6.3l-46.2-14.6c-2.1-0.7-4.3,0.2-5.5,2.1l-29.4,49.6
	l6,87.3c0.2,2.5,2.2,4.4,4.7,4.4l39.7-0.3C651.5,477.5,653.6,475.3,653.5,472.6z"/>
<path class="accentcolor" d="M981.9,62.4c-10.4,0.1-20.9,0.1-31.4,0.1c-43.9-0.1-86.2-0.5-127.5-1.4l1,90.3c0,2.5,2.1,4.4,4.5,4.3l88.7-3
	l81.1-33.3c2.2-0.9,3.3-3.3,2.4-5.6L981.9,62.4z"/>
<path class="accentcolor" d="M257.1,187.7l32.6,88.5c0.8,2,2.8,3.2,5,2.8l84.2-16.9l51.6,4.6c2.6,0.2,4.8-1.8,4.8-4.4l-1.3-112.1
	c0-2.5-2.1-4.4-4.5-4.3l-88.7,3l-81.1,33.3C257.3,183.1,256.3,185.5,257.1,187.7z"/>
<path class="accentcolor" d="M788,95.5l-89.4-6.1l-42.3-22.8c-2.1-1.1-4.7-0.3-5.7,1.9l-17.6,38c-0.5,1.2-0.5,2.4,0,3.5l21.5,45.1
	c0.8,1.6,2.3,2.5,4.1,2.3l128.8-12.2c2.1-0.2,3.7-1.9,3.7-4l0.7-41.5C791.9,97.4,790.2,95.6,788,95.5z"/>
<path class="accentcolor" d="M792.5,60.3c-45.4-1.3-89.6-3-133.2-5.4c0.3,0.5,0.8,0.8,1.3,1.1l41.2,22.2l86,5.9c2.4,0.2,4.4-1.7,4.4-4
	L792.5,60.3z"/>
<path class="accentcolor" d="M467.7,211.2l89.4,6.1l42.3,22.8c2.1,1.1,4.7,0.3,5.7-1.9l17.6-38c0.5-1.2,0.5-2.4,0-3.5l-21.5-45.1
	c-0.8-1.6-2.3-2.5-4.1-2.3l-128.8,12.2c-2.1,0.2-3.7,1.9-3.7,4l-0.7,41.5C463.8,209.2,465.5,211,467.7,211.2z"/>
<path class="accentcolor" d="M595.1,250.5l-41.2-22.2l-86-5.9c-2.4-0.2-4.4,1.7-4.4,4l-0.9,55.1c0,2,1.3,3.7,3.3,4.1l103.8,21.2
	c1.9,0.4,3.7-0.5,4.6-2.3l22.6-48.7C597.8,253.9,597,251.6,595.1,250.5z"/>
<path class="accentcolor" d="M972.2,1050.8l29.9-71.2l-2-43.8c-0.1-2.5-2.2-4.5-4.8-4.5l-49.3,0.7c-1.9,0-3.5,1.1-4.3,2.9l-39.8,93.3
	c-1.1,2.6,0.3,5.5,2.9,6.3l61.5,19C968.8,1054.2,971.2,1053.1,972.2,1050.8z"/>
<path class="accentcolor" d="M1011.4,936l2.1,45.6l-30.1,71.7c-1.1,2.6,0.3,5.5,2.9,6.3l46.3,14.3c2.1,0.7,4.3-0.2,5.5-2.1l29-49.8
	l-6.6-87.2c-0.2-2.5-2.3-4.4-4.8-4.4l-39.7,0.5C1013.4,931.1,1011.3,933.3,1011.4,936z"/>
<path class="accentcolor" d="M829,725.8l-30.4,71l1.8,43.8c0.1,2.5,2.2,4.5,4.7,4.5l49.3-0.3c1.9,0,3.5-1.1,4.3-2.8l40.4-93
	c1.1-2.6-0.2-5.5-2.9-6.4l-61.4-19.4C832.4,722.5,829.9,723.6,829,725.8z"/>
<path class="accentcolor" d="M789,840.4l-1.8-45.6l30.6-71.5c1.1-2.6-0.3-5.5-2.9-6.3l-46.2-14.6c-2.1-0.7-4.3,0.2-5.5,2.1L733.9,754l6,87.3
	c0.2,2.5,2.2,4.4,4.7,4.4l39.7-0.3C787,845.3,789.1,843.1,789,840.4z"/>
<path class="accentcolor" d="M1177.4,674l-35.3-95.8c-0.4-1.1-1.6-1.6-2.6-1.3l-67.2,20.6l-103.4-10.9c-1-0.1-2.5,0.7-2.5,1.6
	c0.3,3.1,5.2,53.8,13.9,85.9c3.2,11.8,13.8,24.6,13.8,24.6l69.8,6c0.9,0,1.7-0.5,2-1.3l13.7-42.9c0.4-1,2-0.8,2.2,0.2l8.6,39.5
	c0.3,1.3,1.7,2.1,2.9,1.6l82.9-25C1177.3,676.3,1177.8,675.1,1177.4,674z"/>
<path class="accentcolor" d="M621,1098.6l31,84.1c0.4,1.1,1.6,1.6,2.6,1.3l73.9-7.8l103.4,10.9c1,0.1,2.5-0.7,2.5-1.6
	c-0.3-3.1-5.2-53.8-13.9-85.9c-3.2-11.8-13.8-24.6-13.8-24.6l-68-1.4c-0.9,0-1.7,0.5-2,1.3l-15.4,38.3c-0.4,1-2,0.8-2.2-0.2l-7.3-36
	c-0.3-1.3-1.7-2.1-2.9-1.6l-86.6,20.4C621.1,1096.3,620.6,1097.5,621,1098.6z"/>
<path class="accentcolor" d="M1313.7,1044l-35.3-95.8c-0.4-1.1-1.6-1.6-2.6-1.3l-67.2,20.6l-103.4-10.9c-1-0.1-2.5,0.7-2.5,1.6
	c0.3,3.1,5.2,53.8,13.9,85.9c3.2,11.8,13.8,24.6,13.8,24.6l69.8,6c0.9,0,1.7-0.5,2-1.3l13.7-42.9c0.4-1,2-0.8,2.2,0.2l8.6,39.5
	c0.3,1.3,1.7,2.1,2.9,1.6l82.9-25C1313.6,1046.3,1314.1,1045.1,1313.7,1044z"/>
<path class="accentcolor" d="M485.6,731.3l31,84.1c0.4,1.1,1.6,1.6,2.6,1.3l73.9-7.8l103.4,10.9c1,0.1,2.5-0.7,2.5-1.6
	c-0.3-3.1-5.2-53.8-13.9-85.9c-3.2-11.8-13.8-24.6-13.8-24.6l-68-1.4c-0.9,0-1.7,0.5-2,1.3l-15.4,38.3c-0.4,1-2,0.8-2.2-0.2l-7.3-36
	c-0.3-1.3-1.7-2.1-2.9-1.6l-86.6,20.4C485.8,729.1,485.2,730.3,485.6,731.3z"/>
<path class="accentcolor" d="M835.4,678.4l30.4-71l-1.8-43.8c-0.1-2.5-2.2-4.5-4.7-4.5l-49.3,0.3c-1.9,0-3.5,1.1-4.3,2.8l-40.4,93
	c-1.1,2.6,0.2,5.5,2.9,6.4l61.4,19.4C832,681.7,834.4,680.6,835.4,678.4z"/>
<path class="accentcolor" d="M875.4,563.8l1.8,45.6l-30.6,71.5c-1.1,2.6,0.3,5.5,2.9,6.3l46.2,14.6c2.1,0.7,4.3-0.2,5.5-2.1l29.4-49.6
	l-6-87.3c-0.2-2.5-2.2-4.4-4.7-4.4l-39.7,0.3C877.4,558.9,875.3,561.1,875.4,563.8z"/>
<path class="accentcolor" d="M965.1,1095.2l-30.4,71l1.8,43.8c0.1,2.5,2.2,4.5,4.7,4.5l49.3-0.3c1.9,0,3.5-1.1,4.3-2.8l40.4-93
	c1.1-2.6-0.2-5.5-2.9-6.4l-61.4-19.4C968.5,1091.8,966,1092.9,965.1,1095.2z"/>
<path class="accentcolor" d="M925.1,1209.8l-1.8-45.6l30.6-71.5c1.1-2.6-0.3-5.5-2.9-6.3l-46.2-14.6c-2.1-0.7-4.3,0.2-5.5,2.1l-29.4,49.6
	l6,87.3c0.2,2.5,2.2,4.4,4.7,4.4l39.7-0.3C923.1,1214.7,925.2,1212.4,925.1,1209.8z"/>
<path class="accentcolor" d="M1272.4,850.9l-32.6-88.5c-0.8-2-2.8-3.2-5-2.8l-84.2,16.9l-51.6-4.6c-2.6-0.2-4.8,1.8-4.8,4.4l1.3,112.1
	c0,2.5,2.1,4.4,4.5,4.3l88.7-3l81.1-33.3C1272.2,855.6,1273.2,853.1,1272.4,850.9z"/>
<path class="accentcolor" d="M528.7,924.9l32.6,88.5c0.8,2,2.8,3.2,5,2.8l84.2-16.9l51.6,4.6c2.6,0.2,4.8-1.8,4.8-4.4l-1.3-112.1
	c0-2.5-2.1-4.4-4.5-4.3l-88.7,3l-81.1,33.3C528.9,920.2,527.9,922.7,528.7,924.9z"/>
<path class="accentcolor" d="M1059.6,832.6l-89.4-6.1l-42.3-22.8c-2.1-1.1-4.7-0.3-5.7,1.9l-17.6,38c-0.5,1.2-0.5,2.4,0,3.5l21.5,45.1
	c0.8,1.6,2.3,2.5,4.1,2.3l128.8-12.2c2.1-0.2,3.7-1.9,3.7-4l0.7-41.5C1063.5,834.6,1061.8,832.7,1059.6,832.6z"/>
<path class="accentcolor" d="M932.2,793.2l41.2,22.2l86,5.9c2.4,0.2,4.4-1.7,4.4-4l0.9-55.1c0-2-1.3-3.7-3.3-4.1l-103.8-21.2
	c-1.9-0.4-3.7,0.5-4.6,2.3l-22.6,48.7C929.5,789.8,930.3,792.2,932.2,793.2z"/>
<path class="accentcolor" d="M739.3,948.3l89.4,6.1l42.3,22.8c2.1,1.1,4.7,0.3,5.7-1.9l17.6-38c0.5-1.2,0.5-2.4,0-3.5l-21.5-45.1
	c-0.8-1.6-2.3-2.5-4.1-2.3l-128.8,12.2c-2.1,0.2-3.7,1.9-3.7,4l-0.7,41.5C735.4,946.3,737.1,948.1,739.3,948.3z"/>
<path class="accentcolor" d="M866.7,987.7l-41.2-22.2l-86-5.9c-2.4-0.2-4.4,1.7-4.4,4l-0.9,55.1c0,2,1.3,3.7,3.3,4.1l103.8,21.2
	c1.9,0.4,3.7-0.5,4.6-2.3l22.6-48.7C869.4,991.1,868.6,988.7,866.7,987.7z"/>
<path class="accentcolor" d="M1134.4,476.4l-32.6-88.5c-0.8-2-2.8-3.2-5-2.8l-84.2,16.9l-51.6-4.6c-2.6-0.2-4.8,1.8-4.8,4.4l1.3,112.1
	c0,2.5,2.1,4.4,4.5,4.3l88.7-3L1132,482C1134.2,481.1,1135.2,478.6,1134.4,476.4z"/>
<path class="accentcolor" d="M390.3,549.3l32.6,88.5c0.8,2,2.8,3.2,5,2.8l84.2-16.9l51.6,4.6c2.6,0.2,4.8-1.8,4.8-4.4l-1.3-112.1
	c0-2.5-2.1-4.4-4.5-4.3l-88.7,3l-81.1,33.3C390.6,544.7,389.5,547.1,390.3,549.3z"/>
<path class="accentcolor" d="M599,567.5l89.4,6.1l42.3,22.8c2.1,1.1,4.7,0.3,5.7-1.9l17.6-38c0.5-1.2,0.5-2.4,0-3.5l-21.5-45.1
	c-0.8-1.6-2.3-2.5-4.1-2.3l-128.8,12.2c-2.1,0.2-3.7,1.9-3.7,4l-0.7,41.5C595.1,565.5,596.8,567.4,599,567.5z"/>
<path class="accentcolor" d="M726.4,606.9l-41.2-22.2l-86-5.9c-2.4-0.2-4.4,1.7-4.4,4L594,638c0,2,1.3,3.7,3.3,4.1l103.8,21.2
	c1.9,0.4,3.7-0.5,4.6-2.3l22.6-48.7C729.1,610.3,728.3,607.9,726.4,606.9z"/>
<path class="accentcolor" d="M920.6,455.2l-89.4-6.1l-42.3-22.8c-2.1-1.1-4.7-0.3-5.7,1.9l-17.6,38c-0.5,1.2-0.5,2.4,0,3.5l21.5,45.1
	c0.8,1.6,2.3,2.5,4.1,2.3L920,505c2.1-0.2,3.7-1.9,3.7-4l0.7-41.5C924.4,457.2,922.8,455.4,920.6,455.2z"/>
<path class="accentcolor" d="M793.2,415.9l41.2,22.2l86,5.9c2.4,0.2,4.4-1.7,4.4-4l0.9-55.1c0-2-1.3-3.7-3.3-4.1l-103.8-21.2
	c-1.9-0.4-3.7,0.5-4.6,2.3l-22.6,48.7C790.5,412.5,791.3,414.8,793.2,415.9z"/>
</svg>
