<?xml version="1.0" encoding="utf-8"?>
<!-- Generator: Adobe Illustrator 27.9.1, SVG Export Plug-In . SVG Version: 6.00 Build 0)  -->
<svg class="v" version="1.1" xmlns="http://www.w3.org/2000/svg" xmlns:xlink="http://www.w3.org/1999/xlink" x="0px" y="0px"
	 viewBox="0 0 1900.9 2608.8" style="enable-background:new 0 0 1900.9 2608.8;" xml:space="preserve">
     $gradientDefs

	<path class="maincolor" d="M950.5,71.3C649.2,71,421.4,50.5,115.1,8.8L130,753.3c1.5,73.7-12.4,136.7-44.7,203l-63,129.2
	c-18.8,38.7-25.5,76.1-21,118.9c0,0,68.2,742.7,117.1,1127.9c13.6,107.4,133.3,220.5,214,228.4c161.3,15.6,402.2,34.3,618.1,34.3
	s456.7-18.7,618.1-34.3c80.7-7.8,200.3-121,214-228.4c49-385.2,117.1-1127.9,117.1-1127.9c4.4-42.8-2.2-80.2-21-118.9l-63-129.2
	c-32.3-66.3-46.2-129.2-44.7-203l14.9-744.5C1479.6,50.5,1251.8,71,950.5,71.3z"/>
<path class="accentoutline" d="M1143.4,2608.8c31.5-1.3,62.9-2.8,93.6-4.5c51.7-2.9,103.4-6.3,155.1-10.2c59.5-4.5,118.9-9.7,178.2-15.4
	c6.7-0.7,14-2,20.7-3.8c6.4-1.7,12.8-3.8,18.9-6.2l21.7-37.1c0.5,2.1,1.1,4.3,1.6,6.4c0.9,3.5,2.4,7.5,3.9,10.9
	c0.1,0.1,0.1,0.3,0.2,0.4c0.8,1.7,1.6,3.4,2.5,5c3.7-2.1,7.4-4.3,11-6.6c11.7-7.4,23.3-15.9,34.1-24.8c21.9-18.2,41.8-39,59.1-61.7
	c8.9-11.7,17.1-24,24.5-36.8c1.2-2.1,2.3-4.1,3.5-6.2l-21.7,6.7l-99.1-10.4c-5.9-0.5-12.4,1.3-17.4,4.2c-0.5-5.1-2.1-10-4.8-14.3
	c5.1,2.7,10.9,4,16.7,3.8l88.7-3c3.4-0.1,6.8-0.8,10-2.1l42.9-17.6c6.3-16.4,11-33.4,13.2-50.8c3.8-29.6,7.6-61.2,11.5-94.1
	l-0.6-1.5c-5.6-15.4-21.7-24.4-37.7-21.1l-80,16.1l-47.4-4.2c-4.4-0.4-8.9,0.1-13.1,1.5c-3.5-5.6-8.6-10.1-14.6-12.8
	c2.5-0.8,4.8-2,7-3.4c6.8,2.7,14.3,2.9,21.2,0.7l82.4-24.8c17.1-5.1,26-23.8,19.9-40.3l-35.3-95.8c-5.7-15.4-22.4-23.7-38.1-18.9
	l-61.6,18.9l-99.1-10.4c-5.9-0.3-11.8,1-17,3.9c-0.5-6.9-2.4-12.9-6.5-18.4c5,2.6,10.7,3.9,16.4,3.7l88.7-3c3.4-0.1,6.8-0.8,10-2.1
	l81.1-33.3c16.5-6.8,24.7-25.4,18.5-42.2l-32.6-88.5c-5.6-15.4-21.7-24.4-37.7-21.1l-80,16.1l-47.4-4.2c-4.3-0.4-8.6,0.1-12.7,1.3
	c-1.5-3.1-3.5-5.9-5.9-8.4c0.2-0.1,0.4-0.2,0.5-0.4c6.8,2.7,14.3,2.9,21.2,0.7l82.4-24.8c17.1-5.1,26-23.8,19.9-40.3l-35.3-95.8
	c-5.7-15.4-22.4-23.7-38.1-18.9l-61.6,18.9l-99.1-10.4c-5.9-0.5-12.4,1.3-17.4,4.2c-0.5-5.1-2.1-10-4.8-14.3
	c5.1,2.7,10.9,4,16.7,3.8l88.7-3c3.4-0.1,6.8-0.8,10-2.1l81.1-33.3c16.5-6.8,24.7-25.4,18.5-42.2l-32.6-88.5
	c-5.6-15.4-21.7-24.4-37.7-21.1l-80,16.1l-47.4-4.2c-4.4-0.4-8.9,0.1-13.1,1.5c-3.5-5.6-8.6-10.1-14.6-12.8c2.5-0.8,4.8-2,7-3.4
	c6.8,2.7,14.3,2.9,21.2,0.7l82.4-24.8c17.1-5.1,26-23.8,19.9-40.3l-35.3-95.8c-5.7-15.4-22.4-23.7-38.1-18.9l-61.6,18.9l-99.1-10.4
	c-5.9-0.3-11.8,1-17,3.9c-0.5-6.9-2.4-12.9-6.5-18.4c5,2.6,10.7,3.9,16.4,3.7l88.7-3c3.4-0.1,6.8-0.8,10-2.1l81.1-33.3
	c16.5-6.8,24.7-25.4,18.5-42.2l-32.6-88.5c-5.6-15.4-21.7-24.4-37.7-21.1l-80,16.1l-47.4-4.2c-4.3-0.4-8.6,0.1-12.7,1.3
	c-2.1-4.2-5-7.9-8.7-10.9c0.7-0.4,1.4-0.8,2-1.2c6.8,2.7,14.3,2.9,21.2,0.7l82.4-24.8c17.1-5.1,26-23.8,19.9-40.3l-35.3-95.8
	c-5.7-15.4-22.4-23.7-38.1-18.9l-61.6,18.9l-99.1-10.4c-5.9-0.5-12.4,1.3-17.4,4.2c-0.5-5.1-2.1-10-4.8-14.3
	c5.1,2.7,10.9,4,16.7,3.8l88.7-3c3.4-0.1,6.8-0.8,10-2.1l81.1-33.3c16.5-6.8,24.7-25.4,18.5-42.2l-32.6-88.5
	c-5.6-15.4-21.7-24.4-37.7-21.1l-80,16.1l-47.4-4.2c-4.4-0.4-8.9,0.1-13.1,1.5c-3.5-5.6-8.6-10.1-14.6-12.8c2.5-0.8,4.8-2,7-3.4
	c6.8,2.7,14.3,2.9,21.2,0.7l82.4-24.8c17.1-5.1,26-23.8,19.9-40.3l-35.3-95.8c-5.7-15.4-22.4-23.7-38.1-18.9l-61.6,18.9l-99.1-10.4
	c-5.9-0.3-11.8,1-17,3.9c-0.5-6.9-2.4-12.9-6.5-18.4c5,2.6,10.7,3.9,16.4,3.7l88.7-3c3.4-0.1,6.8-0.8,10-2.1l81.1-33.3
	c16.5-6.8,24.7-25.4,18.5-42.2l-32.6-88.5c-5.6-15.4-21.7-24.4-37.7-21.1l-80,16.1l-47.4-4.2c-4.3-0.4-8.6,0.1-12.7,1.3
	c-1.5-3.1-3.5-5.9-5.9-8.4c0.2-0.1,0.4-0.2,0.5-0.4c6.8,2.7,14.3,2.9,21.2,0.7l82.4-24.8c17.1-5.1,26-23.8,19.9-40.3l-35.3-95.8
	c-5.7-15.4-22.4-23.7-38.1-18.9L934.1,210L835,199.6c-5.9-0.5-12.4,1.3-17.4,4.2c-0.5-5.1-2.1-10-4.8-14.3c5.1,2.7,10.9,4,16.7,3.8
	l88.7-3c3.4-0.1,6.8-0.8,10-2.1l81.1-33.3c16.5-6.8,24.7-25.4,18.5-42.2l-22-59.6c-18.5,0.2-36.9,0.3-55.4,0.3
	c-29.7,0-59.3-0.3-89-0.7c-33-0.5-66.1-1.3-99.1-2.4c-69.9-2.3-139.8-6.1-209.5-11.3c-33.1-2.5-66.2-5.3-99.3-8.4
	c-72.5-6.8-145.3-15-217.6-24c-16.9-2.1-33.9-4.3-50.8-6.5c-0.3,4.3,0.2,8.7,1.8,13l31,84.1c5.1,13.9,19.3,22.2,33.9,19.9l69.7-7.4
	l101.9,10.7c5.6,0.3,11.2-0.9,16.2-3.5c0.5,4.4,2,8.6,4.1,12.4c-4.8-2.3-10.1-3.4-15.5-3.2l-88.7,3c-3.4,0.1-6.8,0.8-10,2.1
	l-81.1,33.3c-16.5,6.8-24.7,25.4-18.5,42.2l32.6,88.5c5.6,15.4,21.7,24.4,37.7,21.1l80-16.1l47.4,4.2c3,0.3,5.9,0.1,8.8-0.4
	c3.1,7.1,8.7,12.9,15.7,16.3c-0.5,0.3-1,0.6-1.5,0.9c-6.7-3-14.2-3.6-21.2-1.6L344,339.5c-18.1,4.3-27.9,23.7-21.6,40.7l31,84.1
	c5.1,13.9,19.3,22.2,33.9,19.9l69.7-7.4l101.9,10.7c0.3,0,0.6,0,0.8,0l-86.8,3c-3.4,0.1-6.8,0.8-10,2.1l-81.1,33.3
	c-16.5,6.8-24.7,25.4-18.5,42.2l32.6,88.5c5.6,15.4,21.7,24.4,37.7,21.1l80-16.1l47.4,4.2c3.2,0.3,6.5,0.1,9.7-0.6
	c4.8,7.2,12.3,12.2,20.8,13.9l37.6,7.7l-25.2-0.5c-5.9-0.1-11.8,1.4-16.8,4.5c-6.7-3-14.2-3.6-21.2-1.6l-85.7,20.2
	c-18.1,4.3-27.9,23.7-21.6,40.7l31,84.1c5.1,13.9,19.3,22.2,33.9,19.9l69.7-7.4l101.9,10.7c5.6,0.3,11.2-0.9,16.2-3.5
	c0.5,4.4,2,8.6,4.1,12.4c-4.8-2.3-10.1-3.4-15.5-3.2l-88.7,3c-3.4,0.1-6.8,0.8-10,2.1l-81.1,33.3c-16.5,6.8-24.7,25.4-18.5,42.2
	l32.6,88.5c5.6,15.4,21.7,24.4,37.7,21.1l80-16.1l47.4,4.2c3,0.3,5.9,0.1,8.8-0.4c3.1,7.1,8.7,12.9,15.7,16.3
	c-0.5,0.3-1,0.6-1.5,0.9c-6.7-3-14.2-3.6-21.2-1.6l-85.7,20.2c-18.1,4.3-27.9,23.7-21.6,40.7l31,84.1c5.1,13.9,19.3,22.2,33.9,19.9
	l69.7-7.4l101.9,10.7c5.8,0.3,11.6-1,16.8-3.8c0.2,3.6,0.9,6.7,2.1,10.1c-4.7-2.1-9.8-3.1-14.9-3l-88.7,3c-3.4,0.1-6.8,0.8-10,2.1
	l-81.1,33.3c-16.5,6.8-24.7,25.4-18.5,42.2l32.6,88.5c5.6,15.4,21.7,24.4,37.7,21.1l80-16.1l47.4,4.2c3.2,0.3,6.5,0.1,9.7-0.6
	c4.8,7.2,12.3,12.2,20.8,13.9l37.6,7.7l-25.2-0.5c-5.9-0.1-11.8,1.4-16.8,4.5c-6.7-3-14.2-3.6-21.2-1.6l-85.7,20.2
	c-18.1,4.3-27.9,23.7-21.6,40.7l31,84.1c5.1,13.9,19.3,22.2,33.9,19.9l69.7-7.4l101.9,10.7c5.6,0.3,11.2-0.9,16.2-3.5
	c0.5,4.4,2,8.6,4.1,12.4c-4.8-2.3-10.1-3.4-15.5-3.2l-88.7,3c-3.4,0.1-6.8,0.8-10,2.1l-81.1,33.3c-16.5,6.8-24.7,25.4-18.5,42.2
	l32.6,88.5c5.6,15.4,21.7,24.4,37.7,21.1l80-16.1l47.4,4.2c3,0.3,5.9,0.1,8.8-0.4c3.1,7.1,8.7,12.9,15.7,16.3
	c-0.5,0.3-1,0.6-1.5,0.9c-6.7-3-14.2-3.6-21.2-1.6l-85.7,20.2c-18.1,4.3-27.9,23.7-21.6,40.7l31,84.1c5.1,13.9,19.3,22.2,33.9,19.9
	l69.7-7.4l101.9,10.7c0.3,0,0.6,0,0.8,0l-86.8,3c-3.4,0.1-6.8,0.8-10,2.1l-81.1,33.3c-16.5,6.8-24.7,25.4-18.5,42.2l32.6,88.5
	c5.6,15.4,21.7,24.4,37.7,21.1l80-16.1l47.4,4.2c3.2,0.3,6.5,0.1,9.7-0.6c4.8,7.2,12.3,12.2,20.8,13.9l37.6,7.7l-25.2-0.5
	c-5.9-0.1-11.8,1.4-16.8,4.5c-6.7-3-14.2-3.6-21.2-1.6l-85.7,20.2c-18.1,4.3-27.9,23.7-21.6,40.7l31,84.1
	c5.1,13.9,19.3,22.2,33.9,19.9l69.7-7.4l101.9,10.7c5.6,0.3,11.2-0.9,16.2-3.5c0.5,4.4,2,8.6,4.1,12.4c-4.8-2.3-10.1-3.4-15.5-3.2
	l-88.7,3c-3.4,0.1-6.8,0.8-10,2.1l-81.1,33.3c-16.5,6.8-24.7,25.4-18.5,42.2l32.6,88.5c5.6,15.4,21.7,24.4,37.7,21.1l80-16.1
	l47.4,4.2c3,0.3,5.9,0.1,8.8-0.4c3.1,7.1,8.7,12.9,15.7,16.3c-0.5,0.3-1,0.6-1.5,0.9c-6.7-3-14.2-3.6-21.2-1.6l-85.7,20.2
	c-18.1,4.3-27.9,23.7-21.6,40.7L1143.4,2608.8z"/>
<g>
	<path class="accentcolor" d="M1245,1800.2l29.9-71.2l-2-43.8c-0.1-2.5-2.2-4.5-4.8-4.5l-49.3,0.7c-1.9,0-3.5,1.1-4.3,2.9l-39.8,93.3
		c-1.1,2.6,0.3,5.5,2.9,6.3l61.5,19C1241.6,1803.6,1244.1,1802.4,1245,1800.2z"/>
	<path class="accentcolor" d="M1284.3,1685.3l2.1,45.6l-30.1,71.7c-1.1,2.6,0.3,5.5,2.9,6.3l46.3,14.3c2.1,0.7,4.3-0.2,5.5-2.1l29-49.8
		l-6.6-87.2c-0.2-2.5-2.3-4.4-4.8-4.4l-39.7,0.5C1286.3,1680.5,1284.2,1682.7,1284.3,1685.3z"/>
	<path class="accentcolor" d="M1101.8,1475.2l-30.4,71l1.8,43.8c0.1,2.5,2.2,4.5,4.7,4.5l49.3-0.3c1.9,0,3.5-1.1,4.3-2.8l40.4-93
		c1.1-2.6-0.2-5.5-2.9-6.4l-61.4-19.4C1105.3,1471.8,1102.8,1473,1101.8,1475.2z"/>
	<path class="accentcolor" d="M1061.8,1589.8l-1.8-45.6l30.6-71.5c1.1-2.6-0.3-5.5-2.9-6.3l-46.2-14.6c-2.1-0.7-4.3,0.2-5.5,2.1l-29.4,49.6
		l6,87.3c0.2,2.5,2.2,4.4,4.7,4.4l39.7-0.3C1059.8,1594.7,1061.9,1592.4,1061.8,1589.8z"/>
	<path class="accentcolor" d="M1450.2,1423.4l-35.3-95.8c-0.4-1.1-1.6-1.6-2.6-1.3l-67.2,20.6l-103.4-10.9c-1-0.1-2.5,0.7-2.5,1.6
		c0.3,3.1,5.2,53.8,13.9,85.9c3.2,11.8,13.8,24.6,13.8,24.6l69.8,6c0.9,0,1.7-0.5,2-1.3l13.7-42.9c0.4-1,2-0.8,2.2,0.2l8.6,39.5
		c0.3,1.3,1.7,2.1,2.9,1.6l82.9-25C1450.1,1425.7,1450.6,1424.5,1450.2,1423.4z"/>
	<path class="accentcolor" d="M893.8,1848l31,84.1c0.4,1.1,1.6,1.6,2.6,1.3l73.9-7.8l103.4,10.9c1,0.1,2.5-0.7,2.5-1.6
		c-0.3-3.1-5.2-53.8-13.9-85.9c-3.2-11.8-13.8-24.6-13.8-24.6l-68-1.4c-0.9,0-1.7,0.5-2,1.3l-15.4,38.3c-0.4,1-2,0.8-2.2-0.2
		l-7.3-36c-0.3-1.3-1.7-2.1-2.9-1.6l-86.6,20.4C893.9,1845.7,893.4,1846.9,893.8,1848z"/>
	<path class="accentcolor" d="M1586.6,1793.4l-35.3-95.8c-0.4-1.1-1.6-1.6-2.6-1.3l-67.2,20.6L1378,1706c-1-0.1-2.5,0.7-2.5,1.6
		c0.3,3.1,5.2,53.8,13.9,85.9c3.2,11.8,13.8,24.6,13.8,24.6l69.8,6c0.9,0,1.7-0.5,2-1.3l13.7-42.9c0.4-1,2-0.8,2.2,0.2l8.6,39.5
		c0.3,1.3,1.7,2.1,2.9,1.6l82.9-25C1586.4,1795.7,1587,1794.5,1586.6,1793.4z"/>
	<path class="accentcolor" d="M758.5,1480.7l31,84.1c0.4,1.1,1.6,1.6,2.6,1.3l73.9-7.8l103.4,10.9c1,0.1,2.5-0.7,2.5-1.6
		c-0.3-3.1-5.2-53.8-13.9-85.9c-3.2-11.8-13.8-24.6-13.8-24.6l-68-1.4c-0.9,0-1.7,0.5-2,1.3l-15.4,38.3c-0.4,1-2,0.8-2.2-0.2
		l-7.3-36c-0.3-1.3-1.7-2.1-2.9-1.6l-86.6,20.4C758.6,1478.4,758.1,1479.6,758.5,1480.7z"/>
	<path class="accentcolor" d="M1108.3,1427.7l30.4-71l-1.8-43.8c-0.1-2.5-2.2-4.5-4.7-4.5l-49.3,0.3c-1.9,0-3.5,1.1-4.3,2.8l-40.4,93
		c-1.1,2.6,0.2,5.5,2.9,6.4l61.4,19.4C1104.8,1431.1,1107.3,1430,1108.3,1427.7z"/>
	<path class="accentcolor" d="M1148.3,1313.1l1.8,45.6l-30.6,71.5c-1.1,2.6,0.3,5.5,2.9,6.3l46.2,14.6c2.1,0.7,4.3-0.2,5.5-2.1l29.4-49.6
		l-6-87.3c-0.2-2.5-2.2-4.4-4.7-4.4l-39.7,0.3C1150.3,1308.3,1148.1,1310.5,1148.3,1313.1z"/>
	<path class="accentcolor" d="M1237.9,1844.6l-30.4,71l1.8,43.8c0.1,2.5,2.2,4.5,4.7,4.5l49.3-0.3c1.9,0,3.5-1.1,4.3-2.8l40.4-93
		c1.1-2.6-0.2-5.5-2.9-6.4l-61.4-19.4C1241.4,1841.2,1238.9,1842.3,1237.9,1844.6z"/>
	<path class="accentcolor" d="M1197.9,1959.2l-1.8-45.6l30.6-71.5c1.1-2.6-0.3-5.5-2.9-6.3l-46.2-14.6c-2.1-0.7-4.3,0.2-5.5,2.1l-29.4,49.6
		l6,87.3c0.2,2.5,2.2,4.4,4.7,4.4l39.7-0.3C1195.9,1964,1198,1961.8,1197.9,1959.2z"/>
	<path class="accentcolor" d="M1545.3,1600.3l-32.6-88.5c-0.8-2-2.8-3.2-5-2.8l-84.2,16.9l-51.6-4.6c-2.6-0.2-4.8,1.8-4.8,4.4l1.3,112.1
		c0,2.5,2.1,4.4,4.5,4.3l88.7-3l81.1-33.3C1545,1605,1546.1,1602.5,1545.3,1600.3z"/>
	<path class="accentcolor" d="M801.5,1674.3l32.6,88.5c0.8,2,2.8,3.2,5,2.8l84.2-16.9l51.6,4.6c2.6,0.2,4.8-1.8,4.8-4.4l-1.3-112.1
		c0-2.5-2.1-4.4-4.5-4.3l-88.7,3l-81.1,33.3C801.8,1669.6,800.7,1672.1,801.5,1674.3z"/>
	<path class="accentcolor" d="M1332.5,1582l-89.4-6.1l-42.3-22.8c-2.1-1.1-4.7-0.3-5.7,1.9l-17.6,38c-0.5,1.2-0.5,2.4,0,3.5l21.5,45.1
		c0.8,1.6,2.3,2.5,4.1,2.3l128.8-12.2c2.1-0.2,3.7-1.9,3.7-4l0.7-41.5C1336.3,1584,1334.7,1582.1,1332.5,1582z"/>
	<path class="accentcolor" d="M1205.1,1542.6l41.2,22.2l86,5.9c2.4,0.2,4.4-1.7,4.4-4l0.9-55.1c0-2-1.3-3.7-3.3-4.1l-103.8-21.2
		c-1.9-0.4-3.7,0.5-4.6,2.3l-22.6,48.7C1202.4,1539.2,1203.2,1541.6,1205.1,1542.6z"/>
	<path class="accentcolor" d="M1012.2,1697.7l89.4,6.1l42.3,22.8c2.1,1.1,4.7,0.3,5.7-1.9l17.6-38c0.5-1.2,0.5-2.4,0-3.5l-21.5-45.1
		c-0.8-1.6-2.3-2.5-4.1-2.3l-128.8,12.2c-2.1,0.2-3.7,1.9-3.7,4l-0.7,41.5C1008.3,1695.7,1010,1697.5,1012.2,1697.7z"/>
	<path class="accentcolor" d="M1139.5,1737.1l-41.2-22.2l-86-5.9c-2.4-0.2-4.4,1.7-4.4,4l-0.9,55.1c0,2,1.3,3.7,3.3,4.1l103.8,21.2
		c1.9,0.4,3.7-0.5,4.6-2.3l22.6-48.7C1142.3,1740.4,1141.5,1738.1,1139.5,1737.1z"/>
	<path class="accentcolor" d="M1407.3,1225.8l-32.6-88.5c-0.8-2-2.8-3.2-5-2.8l-84.2,16.9l-51.6-4.6c-2.6-0.2-4.8,1.8-4.8,4.4l1.3,112.1
		c0,2.5,2.1,4.4,4.5,4.3l88.7-3l81.1-33.3C1407,1230.4,1408.1,1228,1407.3,1225.8z"/>
	<path class="accentcolor" d="M663.2,1298.7l32.6,88.5c0.8,2,2.8,3.2,5,2.8l84.2-16.9l51.6,4.6c2.6,0.2,4.8-1.8,4.8-4.4l-1.3-112.1
		c0-2.5-2.1-4.4-4.5-4.3l-88.7,3l-81.1,33.3C663.4,1294,662.3,1296.5,663.2,1298.7z"/>
	<path class="accentcolor" d="M871.9,1316.9l89.4,6.1l42.3,22.8c2.1,1.1,4.7,0.3,5.7-1.9l17.6-38c0.5-1.2,0.5-2.4,0-3.5l-21.5-45.1
		c-0.8-1.6-2.3-2.5-4.1-2.3l-128.8,12.2c-2.1,0.2-3.7,1.9-3.7,4l-0.7,41.5C868,1314.9,869.7,1316.7,871.9,1316.9z"/>
	<path class="accentcolor" d="M999.3,1356.3l-41.2-22.2l-86-5.9c-2.4-0.2-4.4,1.7-4.4,4l-0.9,55.1c0,2,1.3,3.7,3.3,4.1l103.8,21.2
		c1.9,0.4,3.7-0.5,4.6-2.3l22.6-48.7C1002,1359.7,1001.2,1357.3,999.3,1356.3z"/>
	<path class="accentcolor" d="M1193.4,1204.6l-89.4-6.1l-42.3-22.8c-2.1-1.1-4.7-0.3-5.7,1.9l-17.6,38c-0.5,1.2-0.5,2.4,0,3.5l21.5,45.1
		c0.8,1.6,2.3,2.5,4.1,2.3l128.8-12.2c2.1-0.2,3.7-1.9,3.7-4l0.7-41.5C1197.3,1206.6,1195.6,1204.8,1193.4,1204.6z"/>
	<path class="accentcolor" d="M1066,1165.2l41.2,22.2l86,5.9c2.4,0.2,4.4-1.7,4.4-4l0.9-55.1c0-2-1.3-3.7-3.3-4.1l-103.8-21.2
		c-1.9-0.4-3.7,0.5-4.6,2.3l-22.6,48.7C1063.3,1161.9,1064.1,1164.2,1066,1165.2z"/>
	<path class="accentcolor" d="M1516.6,2537.3l29.9-71.2l-2-43.8c-0.1-2.5-2.2-4.5-4.8-4.5l-49.3,0.7c-1.9,0-3.5,1.1-4.3,2.9l-39.8,93.3
		c-1.1,2.6,0.3,5.5,2.9,6.3l61.5,19C1513.2,2540.7,1515.7,2539.6,1516.6,2537.3z"/>
	<path class="accentcolor" d="M1575,2559.8c2.5-0.4,5-0.9,7.5-1.5c0,0,0,0,0,0l29-49.8l-6.6-87.2c-0.2-2.5-2.3-4.4-4.8-4.4l-39.7,0.5
		c-2.7,0-4.8,2.3-4.6,4.9l2.1,45.6l-30.1,71.7c-1.1,2.6,0.3,5.5,2.9,6.3L1575,2559.8z"/>
	<path class="accentcolor" d="M1373.4,2212.3l-30.4,71l1.8,43.8c0.1,2.5,2.2,4.5,4.7,4.5l49.3-0.3c1.9,0,3.5-1.1,4.3-2.8l40.4-93
		c1.1-2.6-0.2-5.5-2.9-6.4l-61.4-19.4C1376.9,2209,1374.4,2210.1,1373.4,2212.3z"/>
	<path class="accentcolor" d="M1333.4,2326.9l-1.8-45.6l30.6-71.5c1.1-2.6-0.3-5.5-2.9-6.3l-46.2-14.6c-2.1-0.7-4.3,0.2-5.5,2.1l-29.4,49.6
		l6,87.3c0.2,2.5,2.2,4.4,4.7,4.4l39.7-0.3C1331.4,2331.8,1333.5,2329.6,1333.4,2326.9z"/>
	<path class="accentcolor" d="M1721.8,2160.5l-35.3-95.8c-0.4-1.1-1.6-1.6-2.6-1.3l-67.2,20.6l-103.4-10.9c-1-0.1-2.5,0.7-2.5,1.6
		c0.3,3.1,5.2,53.8,13.9,85.9c3.2,11.8,13.8,24.6,13.8,24.6l69.8,6c0.9,0,1.7-0.5,2-1.3l13.7-42.9c0.4-1,2-0.8,2.2,0.2l8.6,39.5
		c0.3,1.3,1.7,2.1,2.9,1.6l82.9-25C1721.7,2162.8,1722.2,2161.6,1721.8,2160.5z"/>
	<path class="accentcolor" d="M1167.1,2589.7c31.4-1.4,62.7-3.1,93.4-4.9l-4.3-21.3c-0.3-1.3-1.7-2.1-2.9-1.6l-86.6,20.4
		c-1.1,0.4-1.6,1.6-1.2,2.7L1167.1,2589.7z"/>
	<path class="accentcolor" d="M1272,2584.2c30.6-1.9,60.7-3.9,90-6c-4.4-9-10.8-16.7-10.8-16.7l-68-1.4c-0.9,0-1.7,0.5-2,1.3L1272,2584.2z"
		/>
	<path class="accentcolor" d="M1658.5,2520.6c25.2-18.6,49.7-42.4,70.1-69.1l-79.1-8.3c-1-0.1-2.5,0.7-2.5,1.6
		C1647.4,2447.6,1651.4,2488.9,1658.5,2520.6z"/>
	<path class="accentcolor" d="M1030.1,2217.9l31,84.1c0.4,1.1,1.6,1.6,2.6,1.3l73.9-7.8l103.4,10.9c1,0.1,2.5-0.7,2.5-1.6
		c-0.3-3.1-5.2-53.8-13.9-85.9c-3.2-11.8-13.8-24.6-13.8-24.6l-68-1.4c-0.9,0-1.7,0.5-2,1.3l-15.4,38.3c-0.4,1-2,0.8-2.2-0.2
		l-7.3-36c-0.3-1.3-1.7-2.1-2.9-1.6l-86.6,20.4C1030.2,2215.6,1029.7,2216.8,1030.1,2217.9z"/>
	<path class="accentcolor" d="M1379.9,2164.9l30.4-71l-1.8-43.8c-0.1-2.5-2.2-4.5-4.7-4.5l-49.3,0.3c-1.9,0-3.5,1.1-4.3,2.8l-40.4,93
		c-1.1,2.6,0.2,5.5,2.9,6.4l61.4,19.4C1376.4,2168.2,1378.9,2167.1,1379.9,2164.9z"/>
	<path class="accentcolor" d="M1419.9,2050.3l1.8,45.6l-30.6,71.5c-1.1,2.6,0.3,5.5,2.9,6.3l46.2,14.6c2.1,0.7,4.3-0.2,5.5-2.1l29.4-49.6
		l-6-87.3c-0.2-2.5-2.2-4.4-4.7-4.4l-39.7,0.3C1421.9,2045.4,1419.7,2047.6,1419.9,2050.3z"/>
	<path class="accentcolor" d="M1436.6,2572.4c15.6-1.3,30.8-2.5,45.6-3.8l-32.9-10.4c-2.1-0.7-4.3,0.2-5.5,2.1L1436.6,2572.4z"/>
	<path class="accentcolor" d="M1777.2,2358.3c2.4-8.7,4.2-17.3,5.3-26c2.7-21,5.4-43.1,8.2-66.1l-6.4-17.3c-0.8-2-2.8-3.2-5-2.8l-84.2,16.9
		l-51.6-4.6c-2.6-0.2-4.8,1.8-4.8,4.4l1.3,112.1c0,2.5,2.1,4.4,4.5,4.3l88.7-3C1733.3,2376.3,1757.1,2366.6,1777.2,2358.3z"/>
	<path class="accentcolor" d="M1073.1,2411.4l32.6,88.5c0.8,2,2.8,3.2,5,2.8l84.2-16.9l51.6,4.6c2.6,0.2,4.8-1.8,4.8-4.4l-1.3-112.1
		c0-2.5-2.1-4.4-4.5-4.3l-88.7,3l-81.1,33.3C1073.4,2406.8,1072.3,2409.2,1073.1,2411.4z"/>
	<path class="accentcolor" d="M1604.1,2319.1l-89.4-6.1l-42.3-22.8c-2.1-1.1-4.7-0.3-5.7,1.9l-17.6,38c-0.5,1.2-0.5,2.4,0,3.5l21.5,45.1
		c0.8,1.6,2.3,2.5,4.1,2.3l128.8-12.2c2.1-0.2,3.7-1.9,3.7-4l0.7-41.5C1607.9,2321.1,1606.3,2319.3,1604.1,2319.1z"/>
	<path class="accentcolor" d="M1476.7,2279.7l41.2,22.2l86,5.9c2.4,0.2,4.4-1.7,4.4-4l0.9-55.1c0-2-1.3-3.7-3.3-4.1l-103.8-21.2
		c-1.9-0.4-3.7,0.5-4.6,2.3l-22.6,48.7C1474,2276.4,1474.8,2278.7,1476.7,2279.7z"/>
	<path class="accentcolor" d="M1283.8,2434.8l89.4,6.1l42.3,22.8c2.1,1.1,4.7,0.3,5.7-1.9l17.6-38c0.5-1.2,0.5-2.4,0-3.5l-21.5-45.1
		c-0.8-1.6-2.3-2.5-4.1-2.3l-128.8,12.2c-2.1,0.2-3.7,1.9-3.7,4l-0.7,41.5C1279.9,2432.8,1281.6,2434.7,1283.8,2434.8z"/>
	<path class="accentcolor" d="M1411.2,2474.2L1370,2452l-86-5.9c-2.4-0.2-4.4,1.7-4.4,4l-0.9,55.1c0,2,1.3,3.7,3.3,4.1l103.8,21.2
		c1.9,0.4,3.7-0.5,4.6-2.3l22.6-48.7C1413.9,2477.6,1413.1,2475.2,1411.2,2474.2z"/>
	<path class="accentcolor" d="M1678.9,1962.9l-32.6-88.5c-0.8-2-2.8-3.2-5-2.8l-84.2,16.9l-51.6-4.6c-2.6-0.2-4.8,1.8-4.8,4.4l1.3,112.1
		c0,2.5,2.1,4.4,4.5,4.3l88.7-3l81.1-33.3C1678.6,1967.6,1679.7,1965.1,1678.9,1962.9z"/>
	<path class="accentcolor" d="M934.8,2035.8l32.6,88.5c0.8,2,2.8,3.2,5,2.8l84.2-16.9l51.6,4.6c2.6,0.2,4.8-1.8,4.8-4.4l-1.3-112.1
		c0-2.5-2.1-4.4-4.5-4.3l-88.7,3l-81.1,33.3C935,2031.2,933.9,2033.6,934.8,2035.8z"/>
	<path class="accentcolor" d="M1143.5,2054l89.4,6.1l42.3,22.8c2.1,1.1,4.7,0.3,5.7-1.9l17.6-38c0.5-1.2,0.5-2.4,0-3.5l-21.5-45.1
		c-0.8-1.6-2.3-2.5-4.1-2.3l-128.8,12.2c-2.1,0.2-3.7,1.9-3.7,4l-0.7,41.5C1139.6,2052.1,1141.3,2053.9,1143.5,2054z"/>
	<path class="accentcolor" d="M1270.9,2093.4l-41.2-22.2l-86-5.9c-2.4-0.2-4.4,1.7-4.4,4l-0.9,55.1c0,2,1.3,3.7,3.3,4.1l103.8,21.2
		c1.9,0.4,3.7-0.5,4.6-2.3l22.6-48.7C1273.6,2096.8,1272.8,2094.5,1270.9,2093.4z"/>
	<path class="accentcolor" d="M1465,1941.8l-89.4-6.1l-42.3-22.8c-2.1-1.1-4.7-0.3-5.7,1.9l-17.6,38c-0.5,1.2-0.5,2.4,0,3.5l21.5,45.1
		c0.8,1.6,2.3,2.5,4.1,2.3l128.8-12.2c2.1-0.2,3.7-1.9,3.7-4l0.7-41.5C1468.9,1943.7,1467.2,1941.9,1465,1941.8z"/>
	<path class="accentcolor" d="M1337.6,1902.4l41.2,22.2l86,5.9c2.4,0.2,4.4-1.7,4.4-4l0.9-55.1c0-2-1.3-3.7-3.3-4.1L1363,1846
		c-1.9-0.4-3.7,0.5-4.6,2.3l-22.6,48.7C1334.9,1899,1335.7,1901.3,1337.6,1902.4z"/>
	<path class="accentcolor" d="M700.6,322.5l29.9-71.2l-2-43.8c-0.1-2.5-2.2-4.5-4.8-4.5l-49.3,0.7c-1.9,0-3.5,1.1-4.3,2.9l-39.8,93.3
		c-1.1,2.6,0.3,5.5,2.9,6.3l61.5,19C697.2,325.9,699.6,324.7,700.6,322.5z"/>
	<path class="accentcolor" d="M739.8,207.6l2.1,45.6L711.8,325c-1.1,2.6,0.3,5.5,2.9,6.3l46.3,14.3c2.1,0.7,4.3-0.2,5.5-2.1l29-49.8
		l-6.6-87.2c-0.2-2.5-2.3-4.4-4.8-4.4l-39.7,0.5C741.8,202.8,739.7,205,739.8,207.6z"/>
	<path class="accentcolor" d="M609.9,60.9c-25.8-1.6-51.6-3.5-77.3-5.5L527,68.5l1.8,43.8c0.1,2.5,2.2,4.5,4.7,4.5l49.3-0.3
		c1.9,0,3.5-1.1,4.3-2.8L609.9,60.9z"/>
	<path class="accentcolor" d="M520.7,54.5c-18.9-1.5-37.8-3.2-56.8-4.9l4.4,63.3c0.2,2.5,2.2,4.4,4.7,4.4l39.7-0.3c2.7,0,4.8-2.2,4.7-4.9
		l-1.8-45.6L520.7,54.5z"/>
	<path class="accentcolor" d="M349.4,370.3l31,84.1c0.4,1.1,1.6,1.6,2.6,1.3l73.9-7.8l103.4,10.9c1,0.1,2.5-0.7,2.5-1.6
		c-0.3-3.1-5.2-53.8-13.9-85.9c-3.2-11.8-13.8-24.6-13.8-24.6l-68-1.4c-0.9,0-1.7,0.5-2,1.3l-15.4,38.3c-0.4,1-2,0.8-2.2-0.2
		l-7.3-36c-0.3-1.3-1.7-2.1-2.9-1.6l-86.6,20.4C349.5,368,349,369.2,349.4,370.3z"/>
	<path class="accentcolor" d="M1042.1,315.7l-35.3-95.8c-0.4-1.1-1.6-1.6-2.6-1.3l-67.2,20.6l-103.4-10.9c-1-0.1-2.5,0.7-2.5,1.6
		c0.3,3.1,5.2,53.8,13.9,85.9c3.2,11.8,13.8,24.6,13.8,24.6l69.8,6c0.9,0,1.7-0.5,2-1.3l13.7-42.9c0.4-1,2-0.8,2.2,0.2l8.6,39.5
		c0.3,1.3,1.7,2.1,2.9,1.6l82.9-25C1042,318,1042.5,316.8,1042.1,315.7z"/>
	<path class="accentcolor" d="M421.9,45.6c-64.8-6.4-130.9-14-200.6-22.8L245,87.1c0.4,1.1,1.6,1.6,2.6,1.3l73.9-7.8L425,91.5
		c1,0.1,2.5-0.7,2.5-1.6C427.3,88,425.4,68.1,421.9,45.6z"/>
	<path class="accentcolor" d="M693.5,366.9l-30.4,71l1.8,43.8c0.1,2.5,2.2,4.5,4.7,4.5l49.3-0.3c1.9,0,3.5-1.1,4.3-2.8l40.4-93
		c1.1-2.6-0.2-5.5-2.9-6.4l-61.4-19.4C696.9,363.5,694.4,364.6,693.5,366.9z"/>
	<path class="accentcolor" d="M653.5,481.5l-1.8-45.6l30.6-71.5c1.1-2.6-0.3-5.5-2.9-6.3l-46.2-14.6c-2.1-0.7-4.3,0.2-5.5,2.1L598.3,395
		l6,87.3c0.2,2.5,2.2,4.4,4.7,4.4l39.7-0.3C651.5,486.3,653.6,484.1,653.5,481.5z"/>
	<path class="accentcolor" d="M981.9,71.2c-10.4,0.1-20.9,0.1-31.4,0.1c-43.9-0.1-86.2-0.5-127.5-1.4l1,90.3c0,2.5,2.1,4.4,4.5,4.3l88.7-3
		l81.1-33.3c2.2-0.9,3.3-3.3,2.4-5.6L981.9,71.2z"/>
	<path class="accentcolor" d="M257.1,196.6l32.6,88.5c0.8,2,2.8,3.2,5,2.8l84.2-16.9l51.6,4.6c2.6,0.2,4.8-1.8,4.8-4.4L433.9,159
		c0-2.5-2.1-4.4-4.5-4.3l-88.7,3L259.5,191C257.3,191.9,256.3,194.4,257.1,196.6z"/>
	<path class="accentcolor" d="M788,104.3l-89.4-6.1l-42.3-22.8c-2.1-1.1-4.7-0.3-5.7,1.9l-17.6,38c-0.5,1.2-0.5,2.4,0,3.5l21.5,45.1
		c0.8,1.6,2.3,2.5,4.1,2.3L787.4,154c2.1-0.2,3.7-1.9,3.7-4l0.7-41.5C791.9,106.3,790.2,104.4,788,104.3z"/>
	<path class="accentcolor" d="M792.5,69.1c-45.4-1.3-89.6-3-133.2-5.4c0.3,0.5,0.8,0.8,1.3,1.1l41.2,22.2l86,5.9c2.4,0.2,4.4-1.7,4.4-4
		L792.5,69.1z"/>
	<path class="accentcolor" d="M467.7,220l89.4,6.1l42.3,22.8c2.1,1.1,4.7,0.3,5.7-1.9l17.6-38c0.5-1.2,0.5-2.4,0-3.5l-21.5-45.1
		c-0.8-1.6-2.3-2.5-4.1-2.3l-128.8,12.2c-2.1,0.2-3.7,1.9-3.7,4l-0.7,41.5C463.8,218,465.5,219.8,467.7,220z"/>
	<path class="accentcolor" d="M595.1,259.4l-41.2-22.2l-86-5.9c-2.4-0.2-4.4,1.7-4.4,4l-0.9,55.1c0,2,1.3,3.7,3.3,4.1l103.8,21.2
		c1.9,0.4,3.7-0.5,4.6-2.3l22.6-48.7C597.8,262.7,597,260.4,595.1,259.4z"/>
	<path class="accentcolor" d="M972.2,1059.6l29.9-71.2l-2-43.8c-0.1-2.5-2.2-4.5-4.8-4.5l-49.3,0.7c-1.9,0-3.5,1.1-4.3,2.9L902,1037
		c-1.1,2.6,0.3,5.5,2.9,6.3l61.5,19C968.8,1063,971.2,1061.9,972.2,1059.6z"/>
	<path class="accentcolor" d="M1011.4,944.8l2.1,45.6l-30.1,71.7c-1.1,2.6,0.3,5.5,2.9,6.3l46.3,14.3c2.1,0.7,4.3-0.2,5.5-2.1l29-49.8
		l-6.6-87.2c-0.2-2.5-2.3-4.4-4.8-4.4l-39.7,0.5C1013.4,939.9,1011.3,942.1,1011.4,944.8z"/>
	<path class="accentcolor" d="M829,734.6l-30.4,71l1.8,43.8c0.1,2.5,2.2,4.5,4.7,4.5l49.3-0.3c1.9,0,3.5-1.1,4.3-2.8l40.4-93
		c1.1-2.6-0.2-5.5-2.9-6.4L834.7,732C832.4,731.3,829.9,732.4,829,734.6z"/>
	<path class="accentcolor" d="M789,849.2l-1.8-45.6l30.6-71.5c1.1-2.6-0.3-5.5-2.9-6.3l-46.2-14.6c-2.1-0.7-4.3,0.2-5.5,2.1l-29.4,49.6
		l6,87.3c0.2,2.5,2.2,4.4,4.7,4.4l39.7-0.3C787,854.1,789.1,851.9,789,849.2z"/>
	<path class="accentcolor" d="M1177.4,682.8l-35.3-95.8c-0.4-1.1-1.6-1.6-2.6-1.3l-67.2,20.6l-103.4-10.9c-1-0.1-2.5,0.7-2.5,1.6
		c0.3,3.1,5.2,53.8,13.9,85.9c3.2,11.8,13.8,24.6,13.8,24.6l69.8,6c0.9,0,1.7-0.5,2-1.3l13.7-42.9c0.4-1,2-0.8,2.2,0.2l8.6,39.5
		c0.3,1.3,1.7,2.1,2.9,1.6l82.9-25C1177.3,685.1,1177.8,683.9,1177.4,682.8z"/>
	<path class="accentcolor" d="M621,1107.4l31,84.1c0.4,1.1,1.6,1.6,2.6,1.3l73.9-7.8l103.4,10.9c1,0.1,2.5-0.7,2.5-1.6
		c-0.3-3.1-5.2-53.8-13.9-85.9c-3.2-11.8-13.8-24.6-13.8-24.6l-68-1.4c-0.9,0-1.7,0.5-2,1.3l-15.4,38.3c-0.4,1-2,0.8-2.2-0.2
		l-7.3-36c-0.3-1.3-1.7-2.1-2.9-1.6l-86.6,20.4C621.1,1105.2,620.6,1106.4,621,1107.4z"/>
	<path class="accentcolor" d="M1313.7,1052.8l-35.3-95.8c-0.4-1.1-1.6-1.6-2.6-1.3l-67.2,20.6l-103.4-10.9c-1-0.1-2.5,0.7-2.5,1.6
		c0.3,3.1,5.2,53.8,13.9,85.9c3.2,11.8,13.8,24.6,13.8,24.6l69.8,6c0.9,0,1.7-0.5,2-1.3l13.7-42.9c0.4-1,2-0.8,2.2,0.2l8.6,39.5
		c0.3,1.3,1.7,2.1,2.9,1.6l82.9-25C1313.6,1055.1,1314.1,1053.9,1313.7,1052.8z"/>
	<path class="accentcolor" d="M485.6,740.2l31,84.1c0.4,1.1,1.6,1.6,2.6,1.3l73.9-7.8l103.4,10.9c1,0.1,2.5-0.7,2.5-1.6
		c-0.3-3.1-5.2-53.8-13.9-85.9c-3.2-11.8-13.8-24.6-13.8-24.6l-68-1.4c-0.9,0-1.7,0.5-2,1.3l-15.4,38.3c-0.4,1-2,0.8-2.2-0.2
		l-7.3-36c-0.3-1.3-1.7-2.1-2.9-1.6l-86.6,20.4C485.8,737.9,485.2,739.1,485.6,740.2z"/>
	<path class="accentcolor" d="M835.4,687.2l30.4-71l-1.8-43.8c-0.1-2.5-2.2-4.5-4.7-4.5l-49.3,0.3c-1.9,0-3.5,1.1-4.3,2.8l-40.4,93
		c-1.1,2.6,0.2,5.5,2.9,6.4l61.4,19.4C832,690.5,834.4,689.4,835.4,687.2z"/>
	<path class="accentcolor" d="M875.4,572.6l1.8,45.6l-30.6,71.5c-1.1,2.6,0.3,5.5,2.9,6.3l46.2,14.6c2.1,0.7,4.3-0.2,5.5-2.1l29.4-49.6
		l-6-87.3c-0.2-2.5-2.2-4.4-4.7-4.4l-39.7,0.3C877.4,567.7,875.3,569.9,875.4,572.6z"/>
	<path class="accentcolor" d="M965.1,1104l-30.4,71l1.8,43.8c0.1,2.5,2.2,4.5,4.7,4.5l49.3-0.3c1.9,0,3.5-1.1,4.3-2.8l40.4-93
		c1.1-2.6-0.2-5.5-2.9-6.4l-61.4-19.4C968.5,1100.6,966,1101.8,965.1,1104z"/>
	<path class="accentcolor" d="M925.1,1218.6l-1.8-45.6l30.6-71.5c1.1-2.6-0.3-5.5-2.9-6.3l-46.2-14.6c-2.1-0.7-4.3,0.2-5.5,2.1l-29.4,49.6
		l6,87.3c0.2,2.5,2.2,4.4,4.7,4.4l39.7-0.3C923.1,1223.5,925.2,1221.3,925.1,1218.6z"/>
	<path class="accentcolor" d="M1272.4,859.8l-32.6-88.5c-0.8-2-2.8-3.2-5-2.8l-84.2,16.9l-51.6-4.6c-2.6-0.2-4.8,1.8-4.8,4.4l1.3,112.1
		c0,2.5,2.1,4.4,4.5,4.3l88.7-3l81.1-33.3C1272.2,864.4,1273.2,862,1272.4,859.8z"/>
	<path class="accentcolor" d="M528.7,933.7l32.6,88.5c0.8,2,2.8,3.2,5,2.8l84.2-16.9l51.6,4.6c2.6,0.2,4.8-1.8,4.8-4.4l-1.3-112.1
		c0-2.5-2.1-4.4-4.5-4.3l-88.7,3l-81.1,33.3C528.9,929.1,527.9,931.5,528.7,933.7z"/>
	<path class="accentcolor" d="M1059.6,841.4l-89.4-6.1l-42.3-22.8c-2.1-1.1-4.7-0.3-5.7,1.9l-17.6,38c-0.5,1.2-0.5,2.4,0,3.5l21.5,45.1
		c0.8,1.6,2.3,2.5,4.1,2.3l128.8-12.2c2.1-0.2,3.7-1.9,3.7-4l0.7-41.5C1063.5,843.4,1061.8,841.6,1059.6,841.4z"/>
	<path class="accentcolor" d="M932.2,802l41.2,22.2l86,5.9c2.4,0.2,4.4-1.7,4.4-4l0.9-55.1c0-2-1.3-3.7-3.3-4.1l-103.8-21.2
		c-1.9-0.4-3.7,0.5-4.6,2.3l-22.6,48.7C929.5,798.7,930.3,801,932.2,802z"/>
	<path class="accentcolor" d="M739.3,957.1l89.4,6.1L871,986c2.1,1.1,4.7,0.3,5.7-1.9l17.6-38c0.5-1.2,0.5-2.4,0-3.5l-21.5-45.1
		c-0.8-1.6-2.3-2.5-4.1-2.3l-128.8,12.2c-2.1,0.2-3.7,1.9-3.7,4l-0.7,41.5C735.4,955.1,737.1,957,739.3,957.1z"/>
	<path class="accentcolor" d="M866.7,996.5l-41.2-22.2l-86-5.9c-2.4-0.2-4.4,1.7-4.4,4l-0.9,55.1c0,2,1.3,3.7,3.3,4.1l103.8,21.2
		c1.9,0.4,3.7-0.5,4.6-2.3l22.6-48.7C869.4,999.9,868.6,997.5,866.7,996.5z"/>
	<path class="accentcolor" d="M1134.4,485.2l-32.6-88.5c-0.8-2-2.8-3.2-5-2.8l-84.2,16.9l-51.6-4.6c-2.6-0.2-4.8,1.8-4.8,4.4l1.3,112.1
		c0,2.5,2.1,4.4,4.5,4.3l88.7-3l81.1-33.3C1134.2,489.9,1135.2,487.4,1134.4,485.2z"/>
	<path class="accentcolor" d="M390.3,558.1l32.6,88.5c0.8,2,2.8,3.2,5,2.8l84.2-16.9l51.6,4.6c2.6,0.2,4.8-1.8,4.8-4.4l-1.3-112.1
		c0-2.5-2.1-4.4-4.5-4.3l-88.7,3l-81.1,33.3C390.6,553.5,389.5,555.9,390.3,558.1z"/>
	<path class="accentcolor" d="M599,576.3l89.4,6.1l42.3,22.8c2.1,1.1,4.7,0.3,5.7-1.9l17.6-38c0.5-1.2,0.5-2.4,0-3.5l-21.5-45.1
		c-0.8-1.6-2.3-2.5-4.1-2.3l-128.8,12.2c-2.1,0.2-3.7,1.9-3.7,4l-0.7,41.5C595.1,574.4,596.8,576.2,599,576.3z"/>
	<path class="accentcolor" d="M726.4,615.7l-41.2-22.2l-86-5.9c-2.4-0.2-4.4,1.7-4.4,4l-0.9,55.1c0,2,1.3,3.7,3.3,4.1l103.8,21.2
		c1.9,0.4,3.7-0.5,4.6-2.3l22.6-48.7C729.1,619.1,728.3,616.8,726.4,615.7z"/>
	<path class="accentcolor" d="M920.6,464.1l-89.4-6.1l-42.3-22.8c-2.1-1.1-4.7-0.3-5.7,1.9l-17.6,38c-0.5,1.2-0.5,2.4,0,3.5l21.5,45.1
		c0.8,1.6,2.3,2.5,4.1,2.3L920,513.8c2.1-0.2,3.7-1.9,3.7-4l0.7-41.5C924.4,466,922.8,464.2,920.6,464.1z"/>
	<path class="accentcolor" d="M793.2,424.7l41.2,22.2l86,5.9c2.4,0.2,4.4-1.7,4.4-4l0.9-55.1c0-2-1.3-3.7-3.3-4.1l-103.8-21.2
		c-1.9-0.4-3.7,0.5-4.6,2.3l-22.6,48.7C790.5,421.3,791.3,423.6,793.2,424.7z"/>
</g>
</svg>
