<?xml version="1.0" encoding="utf-8"?>
<!-- Generator: Adobe Illustrator 27.9.1, SVG Export Plug-In . SVG Version: 6.00 Build 0)  -->
<svg class="v" version="1.1" xmlns="http://www.w3.org/2000/svg" xmlns:xlink="http://www.w3.org/1999/xlink" x="0px" y="0px"
	 viewBox="0 0 1900.9 2586.2" style="enable-background:new 0 0 1900.9 2586.2;" xml:space="preserve">
     $gradientDefs

<path class="accentcolor" d="M950.5,62.5C649.2,62.1,421.4,41.7,115.1,0L130,744.5c1.5,73.7-12.4,136.7-44.7,203l-63,129.2
	c-18.8,38.7-25.5,76.1-21,118.9c0,0,68.2,742.7,117.1,1127.9c13.6,107.4,133.3,220.5,214,228.4c161.3,15.6,402.2,34.3,618.1,34.3
	s456.7-18.7,618.1-34.3c80.7-7.8,200.3-121,214-228.4c49-385.2,117.1-1127.9,117.1-1127.9c4.4-42.8-2.2-80.2-21-118.9l-63-129.2
	c-32.3-66.3-46.2-129.2-44.7-203L1785.8,0C1479.6,41.7,1251.8,62.1,950.5,62.5z M950.5,91.3c273.2,0.4,529.2-20,805.8-58.1
	l-14.2,710.6c-2.3,75,14,149.4,47.7,216.5l63.1,129.4c16.7,33.6,21.7,66,18.1,103.3c-27.6,299.6-57.7,599.1-90.1,898.2
	c-8.4,76.2-17.3,152.3-26.9,228.3c-4,25.6-12.9,50.3-26,72.6c-25.1,42.7-60.5,80.6-102.2,107.3c-17.6,11.2-40.7,21.8-60.2,23.8
	c-110.2,10.7-220.6,19.2-331.1,25.5c-94.5,5.4-189.2,8.3-283.9,8.7c-105.5-0.4-211-3.9-316.3-10.5c-99.6-6.2-199.2-14-298.6-23.6
	c-13.8-1.9-27.2-6-39.7-12.3c-67.8-33.8-138.7-115-149-191.3c-12.5-100.2-24.1-200.6-34.9-301c-29.3-275-56.7-550.3-82.1-825.7
	c-3.7-37.2,1.4-69.6,18.1-103.3l63.1-129.4c33.6-67.1,50-141.5,47.7-216.5L144.6,33.2C279.1,51.5,414,66,549.3,76.7
	C682.8,86.9,816.6,91.8,950.5,91.3z"/>
<path class="maincolor" d="M950.5,2528.6C950.5,2528.6,950.5,2528.6,950.5,2528.6c104.9-0.4,209.8-3.9,314.5-10.5
	c99.1-6.2,198.1-14,297-23.5c10.6-1.5,20.8-4.8,30.4-9.5c28.8-14.3,84.6-118.5,86.5-201.3c8.9-395.5,34.5-1537.5,34.6-1540.7
	l13.5-676.9c-123.9,16.3-248.3,29.4-372.9,39.3c-134.2,10.4-268.8,15.3-403.5,14.6c-134.6,0.7-269.2-4.2-403.5-14.6
	c-124.6-9.9-249-22.9-372.9-39.3L187.6,743c0.1,3.3,25.7,1145.3,34.6,1540.7c1.9,82.8,57.7,187,86.5,201.3c9.5,4.8,19.8,8,30.4,9.5
	c98.9,9.5,197.9,17.3,297,23.5C740.7,2524.7,845.6,2528.2,950.5,2528.6C950.5,2528.6,950.5,2528.6,950.5,2528.6z"/>

	<text  class="textcolor" transform="matrix(135.2766 0 0 157.2984 260.0555 2424.1328)" textLength="10" lengthAdjust="spacingAndGlyphs"  style="font-family:'Square721BT-BoldExtended'; font-size:1.6505px;">
		<tspan x="0" y="0">TEXT / LOGO</tspan>
	</text>

</svg>
