<svg xmlns="http://www.w3.org/2000/svg" viewBox="0 0 460 84.81"><defs><style>.cls-1{fill-rule:evenodd;}</style></defs><g id="Layer_2" data-name="Layer 2"><g id="Layer_1-2" data-name="Layer 1"><path class="cls-1" d="M140.85,62.22a1.52,1.52,0,0,0,.46-.45.2.2,0,0,0,0-.13,1.83,1.83,0,0,0-.14-.32l-.09-.15a.45.45,0,0,0-.34-.24,4.27,4.27,0,0,0-1.63.19,1,1,0,0,0-.49,1,1,1,0,0,0,.67.87.86.86,0,0,0,.56-.14l1-.62Zm-4.39.22a1.25,1.25,0,0,0-.18-2.07,1.33,1.33,0,0,0-1.53-.17,1.32,1.32,0,0,0-.64,1.4,1.42,1.42,0,0,0,1.13.8,3.69,3.69,0,0,0,.93.15.44.44,0,0,0,.29-.11Zm13.91-2.81a.42.42,0,0,0-.32-.24.87.87,0,0,0-.7.51c-.08.15-.17.29-.26.43a1.17,1.17,0,0,0-.08.88.67.67,0,0,0,.24.42.17.17,0,0,0,.19,0,3.65,3.65,0,0,0,1-1.37.68.68,0,0,0-.1-.63Zm-18.22,0a3,3,0,0,0-.6-.76.57.57,0,0,0-.76.14,1,1,0,0,0-.17.24.36.36,0,0,0,0,.27A5.07,5.07,0,0,0,131.76,61a4.48,4.48,0,0,0,.4.36.15.15,0,0,0,.11,0,.21.21,0,0,0,.11-.07,1.11,1.11,0,0,0,.05-1.22c-.09-.17-.18-.33-.28-.49Zm6.95.25a.33.33,0,0,0,.16-.15.15.15,0,0,0,0-.16,2.34,2.34,0,0,0-.37-.4c-.14-.16-.28-.32-.41-.49a.24.24,0,0,0-.2-.11l-.09,0a1.1,1.1,0,0,0-.21.14,9.35,9.35,0,0,1-1,.54.45.45,0,0,0-.2.16.14.14,0,0,0,0,.09.19.19,0,0,0,0,.13c.24.27.48.53.71.8l.15.11a.35.35,0,0,0,.3,0l.16-.12c.31-.2.63-.38,1-.55Zm-4.43-1.32a8.29,8.29,0,0,1-.61-.72.52.52,0,0,0-.22-.17.34.34,0,0,0-.24,0l-.69.43a.33.33,0,0,0-.14.22l0,.11a1.71,1.71,0,0,0,.44.45c.13.11.26.22.38.34a.48.48,0,0,0,.26.12.57.57,0,0,0,.29,0l.62-.19A.46.46,0,0,0,135,59a.12.12,0,0,0,0-.14l-.06-.07a2.55,2.55,0,0,1-.3-.26Zm6.8.62a1.36,1.36,0,0,0,.28-2.42,1.4,1.4,0,0,0-2.23.26,1.28,1.28,0,0,0-.26,1.19,1.3,1.3,0,0,0,.86.86,1.44,1.44,0,0,0,1.35.11Zm-4.6-.82a1.47,1.47,0,0,0-1.1-2.7,1.46,1.46,0,0,0,1.1,2.7Zm14.58-1.61a1.35,1.35,0,0,0,0-1,.39.39,0,0,0-.32-.25.5.5,0,0,0-.54.26,6.37,6.37,0,0,0-.42,2.2.42.42,0,0,0,.16.36.17.17,0,0,0,.19,0,1.73,1.73,0,0,0,.46-.39,1.08,1.08,0,0,0,.39-.67c0-.18.09-.36.13-.54Zm-19.18.68a1,1,0,0,0,1-.66,1.05,1.05,0,0,0-.28-1.19,14,14,0,0,1-.94-1.1l-.09,0a.47.47,0,0,0-.17,0c-.33.16-.66.34-1,.53a.86.86,0,0,0-.3.69,6.62,6.62,0,0,0,0,.77,1.47,1.47,0,0,0,1.76,1ZM139.41,56l.51-.49.08-.11a.31.31,0,0,0,0-.25,13.2,13.2,0,0,1-.65-1.16l-.09-.09a.15.15,0,0,0-.19,0,2,2,0,0,0-.4.42c-.26.26-.52.5-.79.74a.35.35,0,0,0-.08.13.12.12,0,0,0,0,.1.88.88,0,0,0,.12.26,8.57,8.57,0,0,1,.52.81.56.56,0,0,0,.22.21.18.18,0,0,0,.2,0c.13-.12.25-.24.37-.37l.21-.2Zm-3.87-1.27a.15.15,0,0,0,0-.17l-.08-.08a6.56,6.56,0,0,1-.72-.77.23.23,0,0,0-.2-.08.62.62,0,0,0-.26.12,3.48,3.48,0,0,1-1,.44l-.13.05a.15.15,0,0,0-.11.14.44.44,0,0,0,.11.24c.29.32.6.64.92.94a.24.24,0,0,0,.14,0,.21.21,0,0,0,.15,0l.56-.39.42-.27a.57.57,0,0,0,.22-.19Zm7.13-.81a5.66,5.66,0,0,0-1.3-1.58.74.74,0,0,0-.72,0,.77.77,0,0,0-.34.63,1.51,1.51,0,0,0,2.39,1.5.35.35,0,0,0,.07-.4l-.1-.18Zm-31.25-2.26c1.39-.41,2.78-.85,4.16-1.3a.19.19,0,0,0,.1-.12.18.18,0,0,0,0-.16c-.19-.23-.4-.44-.61-.65a.43.43,0,0,0-.29-.1,4.11,4.11,0,0,0-.68.14q-7.35,1.38-14.69,2.84l-.28.1a.18.18,0,0,0-.07.19.55.55,0,0,0,.15.24,4.76,4.76,0,0,0,5.46.89q3.38-1,6.77-2.07ZM138,53.72a2,2,0,0,0,.7-.88.55.55,0,0,0-.08-.51,4.54,4.54,0,0,0-.7-.93.34.34,0,0,0-.36-.07l-1.58.6a.47.47,0,0,0-.28.38c0,.21,0,.42,0,.64a1.07,1.07,0,0,0,1,.89l.55.14a1.1,1.1,0,0,0,.82-.26Zm.35-8.46a.4.4,0,0,0-.3.26.75.75,0,0,0,.23.64,2.69,2.69,0,0,0,.54.33c1,.71,2,1.47,3,2.27a1.28,1.28,0,0,0,.8.22c.57,0,1.15,0,1.72,0a.39.39,0,0,0,.25-.71q-2.17-1.55-4.43-3a1.38,1.38,0,0,0-.8-.14,4.59,4.59,0,0,0-1,.1Zm11.52,0c-.79-.4-1.59-.77-2.41-1.1a1,1,0,0,0-.54,0c-1.16.17-2.32.3-3.49.4a1.17,1.17,0,0,0-.38.17.33.33,0,0,0-.12.4.77.77,0,0,0,.26.28A25.08,25.08,0,0,1,146.9,48a1.25,1.25,0,0,0,.8.29l.27-.07c1.58-.25,3.16-.56,4.72-.93A.38.38,0,0,0,153,47a.4.4,0,0,0-.25-.35l-2.87-1.36Zm-14.58,33.5a18.12,18.12,0,0,1-8.56-7.94,50.76,50.76,0,0,1-3.12-6.53,20.26,20.26,0,0,1-1.49-4.14l-.08-.27a.16.16,0,0,0-.08-.06h-.14a4.29,4.29,0,0,0-1,.56l-.4.25a.44.44,0,0,1-.31.06.26.26,0,0,1-.16-.18.74.74,0,0,1,0-.33q.87-4.57,2-9.12a1.15,1.15,0,0,1,.62-.79c.23-.12.46-.24.68-.37a.73.73,0,0,1,.35-.09.37.37,0,0,1,.31.29,1.7,1.7,0,0,1,0,.71q-.52,3.51-1.07,7a14.2,14.2,0,0,0,.66,4.84l.19.46.21.21a21.18,21.18,0,0,1,1.84,3.95,28.27,28.27,0,0,0,4.46,7,14.83,14.83,0,0,0,7,4.27,8.52,8.52,0,0,1,2.3.44.48.48,0,0,0,.17,0,.2.2,0,0,0,.11,0,.59.59,0,0,0,.22-.25,106.49,106.49,0,0,0,5-13.62,1.77,1.77,0,0,1,.32-.51.31.31,0,0,1,.34-.07.28.28,0,0,1,.18.29,2.13,2.13,0,0,1-.1.56q-.94,4.68-2.27,9.27a.05.05,0,0,0,0,0,.08.08,0,0,0,.07,0,12.32,12.32,0,0,0,1.7-2.57,28.74,28.74,0,0,0,3-7.58c.28-.65.53-1.32.75-2a.43.43,0,0,1,.23-.25.42.42,0,0,1,.33,0l.11,0a.24.24,0,0,1,.06.23,3.93,3.93,0,0,1-.19.67,22.85,22.85,0,0,0-1.35,4.3,28.45,28.45,0,0,1-5.72,9.61,6.49,6.49,0,0,0-2.17,2.59.62.62,0,0,0,0,.33c.47,1.38.94,2.75,1.44,4.11a.39.39,0,0,0,.17.19.26.26,0,0,0,.24,0A12.27,12.27,0,0,0,147,78.66a27.31,27.31,0,0,0,1.29-3.51,55.5,55.5,0,0,0,1.33-5.67q.44-3.11.64-6.23a1.74,1.74,0,0,0-.2-.66.65.65,0,0,1,0-.2.31.31,0,0,1,0-.13l.53-.7a22.28,22.28,0,0,0,1.92-4.11.49.49,0,0,1,.12-.13.14.14,0,0,1,.11,0,.51.51,0,0,1,.3.15l1.5,1.7a8.94,8.94,0,0,0,2.78,2.18.36.36,0,0,0,.27,0,1.68,1.68,0,0,0,.48-.36,33.73,33.73,0,0,0,6.13-7.24A8.39,8.39,0,0,0,165,48.6a3.4,3.4,0,0,0-1.87-1.94A95.8,95.8,0,0,1,152,44.23c-.42-.1-.84-.21-1.25-.35a.34.34,0,0,1-.24-.31c0-.46,0-.93,0-1.39a.43.43,0,0,0-.25-.37h-.14l-.58.12a103.91,103.91,0,0,1-14.33,1,15.33,15.33,0,0,1-4.06,0,75.52,75.52,0,0,1-12.75-.81c-1.25-.4-2.49-.85-3.7-1.35l-.3-.05a.19.19,0,0,0-.13.14,2,2,0,0,0,0,.55c0,.84,0,1.67,0,2.51a.46.46,0,0,1-.34.44,17.14,17.14,0,0,0-1.73.36,23.21,23.21,0,0,0-9,3.65c-.86.74-1.68,1.52-2.47,2.34A3.91,3.91,0,0,1,99.5,51a23.53,23.53,0,0,0-2.36.66.43.43,0,0,0-.25.53,5,5,0,0,0,2.33,2.39,107.92,107.92,0,0,1,13.53,8q1.47.91,3,1.74a2.13,2.13,0,0,0,1.43,0l.15,0a.32.32,0,0,1,.37.16,30.52,30.52,0,0,1,1.46,3.9c.48,1.27,1,2.53,1.56,3.77a39.75,39.75,0,0,0,3.75,5.7,16.55,16.55,0,0,0,10,6.42,23.52,23.52,0,0,0,4.59.39,4.92,4.92,0,0,1,2,.13.07.07,0,0,0,.07,0,0,0,0,0,0,0-.06c-.58-1.72-1.2-3.41-1.85-5.1a.41.41,0,0,0-.07-.11l-.09,0a3.65,3.65,0,0,0-.66,0,7.4,7.4,0,0,1-3.21-.67Z"/><path class="cls-1" d="M20.67,75.29q14.22,0,28.44-.31L61,74.88a.77.77,0,0,0,.57-.25.79.79,0,0,0,.21-.58q0-10-.14-19.95a.79.79,0,0,0-.89-.71l-17.78.22a.8.8,0,0,0-.64.76L42.07,64.6l0,.55a.9.9,0,0,1-.79.66q-7.17.15-14.35,0a13.35,13.35,0,0,1-4.08-.38,1.17,1.17,0,0,1-.5-.38,8.09,8.09,0,0,1-2.48-6.14,37.09,37.09,0,0,1,.36-8.68,7.31,7.31,0,0,1,2.9-3.9A18.16,18.16,0,0,1,28,46.06q13.41,0,26.82-.27,2.94-.21,5.88-.19a.87.87,0,0,0,.86-.85c0-2.59,0-5.18-.1-7.77a.88.88,0,0,0-.57-.76c-.94,0-1.88,0-2.82,0-5.42.06-10.84.07-16.25,0q-11.52,0-23,.22-3.8.21-7.59.49A8.62,8.62,0,0,0,5.53,40,19.41,19.41,0,0,0,.67,46.17a21.75,21.75,0,0,0-.58,7.32q0,5.43.15,10.84a12.22,12.22,0,0,0,3.38,6A14.73,14.73,0,0,0,9,74.7a14.5,14.5,0,0,0,5.16.54q3.24.12,6.5.05Z"/><path class="cls-1" d="M78.09,75.05q13.55-.08,27.09-.27a1.73,1.73,0,0,0,1.19-.71,1.75,1.75,0,0,0,.29-1.35c-.07-2.07-.16-4.15-.28-6.22a1,1,0,0,0-.92-.88q-9.88,0-19.77,0a.8.8,0,0,1-.76-.81q-.11-12.17-.14-24.32a1,1,0,0,0-.22-.55.86.86,0,0,0-.55-.21q-7.71-.1-15.41.16A2,2,0,0,0,67,42.12Q67,58,67.27,73.81a1.44,1.44,0,0,0,.55,1,1.4,1.4,0,0,0,1.06.3q4.61,0,9.21,0Z"/><path class="cls-1" d="M457.06,68.35q-3-3.13-6.12-6.22a1.23,1.23,0,0,1-.36-.79,1.22,1.22,0,0,1,.17-.56c1.25-1.38,2.42-2.82,3.53-4.32a10,10,0,0,0,.93-5.68,38.8,38.8,0,0,0-.27-5.7,16.15,16.15,0,0,0-4.49-5.3,8.08,8.08,0,0,0-6.17-2.28,60.26,60.26,0,0,0-8.39-.46l-27.62.08a6,6,0,0,0-3.22.56,2.82,2.82,0,0,0-1.14,2.81l.24,31.35a.86.86,0,0,0,.9.76q8,0,15.95-.14a.87.87,0,0,0,.72-.33,1,1,0,0,0,.17-.49l0-.28q-.41-10.27-.4-20.58c0-1.34-.08-2.68-.1-4a.87.87,0,0,1,.2-.55.81.81,0,0,1,.55-.21q6.61-.15,13.24-.16a3.35,3.35,0,0,1,2.62,3.6,4.84,4.84,0,0,1-2.08,5,26.78,26.78,0,0,1-7.31.53,6.81,6.81,0,0,0-2.69.33.83.83,0,0,0-.55.84,4.91,4.91,0,0,0,1.31,1.78L442.17,74a6.58,6.58,0,0,0,.76.49l.16,0,.38,0q5.83,0,11.67.07a24.84,24.84,0,0,0,3.76,0A1.48,1.48,0,0,0,460,73a3.51,3.51,0,0,0-1.3-3c-.54-.54-1.08-1.08-1.63-1.61Z"/><path class="cls-1" d="M194.3,65.15a5.1,5.1,0,0,0,5.16-4.62c0-2.62,0-5.23-.1-7.85a6.49,6.49,0,0,0-2.9-4.12,12.27,12.27,0,0,0-4.89-.48c-2.51,0-5,.05-7.52.12a.9.9,0,0,0-.71,1q0,7.7.15,15.4a.85.85,0,0,0,.3.66,1.24,1.24,0,0,0,.75.21c3.25,0,6.51-.15,9.76-.31Zm-15.18,9.21q13.14,0,26.26-.31A9.76,9.76,0,0,0,210,72.83a23.08,23.08,0,0,0,5.8-6.61,21.82,21.82,0,0,0,.8-6.77q0-4.89-.39-9.75A10.42,10.42,0,0,0,213,44a14.23,14.23,0,0,0-12.5-5.27q-15.32.06-30.61.32a3.7,3.7,0,0,0-3.08,1.21,3.42,3.42,0,0,0-.36,1.86l.32,30.62a1.72,1.72,0,0,0,1.78,1.55q5,.21,10,.09Z"/><path class="cls-1" d="M232.21,74c2,0,4.11,0,6.16-.08a.72.72,0,0,0,.64-.65q-.13-17-.42-34a.92.92,0,0,0-1-.73q-7.56,0-15.12.16a.81.81,0,0,0-.59.26.87.87,0,0,0-.22.61q.08,16.88.28,33.75a.79.79,0,0,0,.81.74q4.73.06,9.45,0Z"/><path class="cls-1" d="M272.3,56.65c2.14,0,4.28,0,6.42-.1a.89.89,0,0,0,.69-.91,46,46,0,0,0-.07-5.12,5.2,5.2,0,0,0-4.06-3.19,19.81,19.81,0,0,0-11.13.61A4.31,4.31,0,0,0,262,51.88a16.23,16.23,0,0,0-.12,4.06.87.87,0,0,0,.92.73q4.74,0,9.48,0ZM255.24,73.81q3,0,5.89-.12a.92.92,0,0,0,.74-1c0-2,0-4.09,0-6.13a1,1,0,0,1,1-.82q6.88,0,13.77-.2a7.78,7.78,0,0,1,2.36,0,.61.61,0,0,1,.46.47c.11,1.5.15,3,.12,4.52,0,.76,0,1.51.05,2.27a.75.75,0,0,0,.69.64q7.79,0,15.56-.13a.84.84,0,0,0,.79-.88q.06-11-.09-21.94a10.36,10.36,0,0,0-1.12-5.16,24.23,24.23,0,0,0-6.09-6.07,13.07,13.07,0,0,0-6.23-1.07q-3.53,0-7-.28-6.24,0-12.47.2-4.19.24-8.39.54A9.8,9.8,0,0,0,251.16,40,15.45,15.45,0,0,0,245,47.82a30.75,30.75,0,0,0-.45,7.3c0,6,.06,11.91.12,17.87a.81.81,0,0,0,.23.57.79.79,0,0,0,.57.25q4.88.06,9.75,0Z"/><path class="cls-1" d="M323.76,73.18c2.16,0,4.33,0,6.49,0a.89.89,0,0,0,.71-1q0-9.6-.22-19.22c0-2,0-4,0-6a1,1,0,0,1,.38-.72,1.07,1.07,0,0,1,.79-.22c2.8,0,5.59-.1,8.39-.18a1.42,1.42,0,0,0,1-.57c1.59-1.63,3.12-3.33,4.56-5.09a1.62,1.62,0,0,0,.23-1.88,1.25,1.25,0,0,0-1-.5q-22.47,0-45,.27a8.57,8.57,0,0,0-1.34.13,1.62,1.62,0,0,0-1.1,1.25,1.66,1.66,0,0,0,.58,1.56,43.67,43.67,0,0,0,4.85,5.05,6.14,6.14,0,0,0,3,.4q3.11,0,6.21,0a.85.85,0,0,1,.62.24.87.87,0,0,1,.26.61l.25,25.22a.77.77,0,0,0,.82.63c3.15,0,6.3,0,9.45,0Z"/><path class="cls-1" d="M379,62.88a4.3,4.3,0,0,0,3.15-4.78,68.79,68.79,0,0,0-.15-7.32,5.4,5.4,0,0,0-5.17-4.32,26.92,26.92,0,0,0-9.21.58A5.73,5.73,0,0,0,365,52.68a50.83,50.83,0,0,0,.29,6.76,5.5,5.5,0,0,0,6.19,4,39.23,39.23,0,0,0,6.5-.24c.37-.1.73-.21,1.09-.33Zm-10.84,10q9.48,0,19-.22a20.42,20.42,0,0,0,4.33-.66,16.41,16.41,0,0,0,5.92-5.27,11,11,0,0,0,2-7.58c0-3.43-.09-6.86-.34-10.29a8.61,8.61,0,0,0-3-6.25,25.86,25.86,0,0,0-4.35-4,14.6,14.6,0,0,0-4.06-1q-12.31-.3-24.65.08a20.81,20.81,0,0,0-8.13,1.18,14.37,14.37,0,0,0-6.82,8.39,26.22,26.22,0,0,0-.32,5.16,95.49,95.49,0,0,0,.32,10.83A13.52,13.52,0,0,0,352.45,70a7.05,7.05,0,0,0,4.63,2.6,62.42,62.42,0,0,0,9.47.3l1.63,0Z"/><path class="cls-1" d="M118.62,37.43a.51.51,0,0,0-.53.24l-.08.22a2.39,2.39,0,0,0-.14,1,.59.59,0,0,0,.62.51.62.62,0,0,0,.58-.58,3.16,3.16,0,0,0-.07-1.06.57.57,0,0,0-.38-.36ZM146,30.15a5.76,5.76,0,0,0-2.87-2.3,3.67,3.67,0,0,0-3.5,1.79,5.83,5.83,0,0,0-.6,4.61,7,7,0,0,0,2.81,3.87,2.25,2.25,0,0,0,.76.2,4.65,4.65,0,0,0,1.18.14.67.67,0,0,0,.3-.13A5.94,5.94,0,0,0,146.76,34a4.08,4.08,0,0,0-.79-3.84Zm-8.29,11.93A79.67,79.67,0,0,0,150.11,41a1.51,1.51,0,0,0,.35-.14.29.29,0,0,0,.13-.22,38.71,38.71,0,0,0-.48-9.85,17.92,17.92,0,0,0-2.36-5.7A14,14,0,0,0,145,22a11.09,11.09,0,0,1-1.37-1,.53.53,0,0,1-.12-.64l7-15.82a.6.6,0,0,0,0-.49.45.45,0,0,0-.24-.19q-3.3-.66-6.63-1Q134.42,1.73,125.22.46A10.22,10.22,0,0,0,121.41,0,5.61,5.61,0,0,0,116.79,4a6.52,6.52,0,0,0-.52,4.3q.26,3.12.54,6.24l.66,8.63a2.8,2.8,0,0,0,.08.57.25.25,0,0,0,.12.13.14.14,0,0,0,.14,0,3.46,3.46,0,0,0,.85-.94,24.92,24.92,0,0,1,5.76-5.37,10.17,10.17,0,0,1,9.77.51,23,23,0,0,1,6.15,7.27.71.71,0,0,0,.66.35,11.57,11.57,0,0,1,7.75,2.13.36.36,0,0,1,.13.32.34.34,0,0,1-.22.26.45.45,0,0,1-.3,0,13.34,13.34,0,0,0-5.53-2,31.5,31.5,0,0,0-14.92,4.11q-4.8,2.7-9.74,5.15a9.65,9.65,0,0,1-3.44,1,.49.49,0,0,0-.39.26,1.35,1.35,0,0,0-.07.66q0,.86,0,1.71a.53.53,0,0,0,.22.4,15.88,15.88,0,0,0,8.26,2.19q3.93.22,7.86.35a41.53,41.53,0,0,0,4.6,0,11.71,11.71,0,0,1,2.44-.05Z"/><path class="cls-1" d="M143.9,29.23a1.9,1.9,0,0,0-1.89,0,4.33,4.33,0,0,0-.67,5.83,5.14,5.14,0,0,0,2.3,2.05,1.27,1.27,0,0,0,1.35-.74,8.57,8.57,0,0,0,1.11-4.56,1,1,0,0,0-.3-.66q-.56-.74-1.14-1.44l-.49-.41-.27-.09Z"/><path class="cls-1" d="M125,31.17a46.58,46.58,0,0,1,11.37-4.84c.94-.15,1.88-.33,2.81-.55l.28-.12a.2.2,0,0,0,.06-.14.65.65,0,0,0-.08-.28,19.43,19.43,0,0,0-6.6-7.2,10.21,10.21,0,0,0-7.3-.19,15,15,0,0,0-5.15,4.21c-.74.87-1.48,1.73-2.23,2.59a1.51,1.51,0,0,1-.58.25l-.12,0a.63.63,0,0,0-.2.23,30,30,0,0,0-2.65,9.89,1,1,0,0,0,.08.38.45.45,0,0,0,.37.25,5.3,5.3,0,0,0,2.9-.79q3.6-1.7,7-3.72Z"/></g></g></svg>