<svg xmlns="http://www.w3.org/2000/svg" viewBox="0 0 460 32.47"><defs><style>.cls-1{fill-rule:evenodd;}</style></defs><g id="Layer_2" data-name="Layer 2"><g id="Layer_1-2" data-name="Layer 1"><path d="M24.56,32.41l37.25,0a.67.67,0,0,0,.61-.39,2.53,2.53,0,0,0,.1-1.06V16a.55.55,0,0,0-.25-.45,2,2,0,0,0-.83-.09q-8.74,0-17.5,0a.5.5,0,0,0-.44.31,2.41,2.41,0,0,0-.08.85c0,2.49,0,5,0,7.48a.67.67,0,0,1-.39.61,2.9,2.9,0,0,1-1.06.1q-9.1.18-18.22.15a5.6,5.6,0,0,1-4.12-6.27q-.07-3.63.18-7.24a5.25,5.25,0,0,1,6.06-3.91L61,8.11a1,1,0,0,0,.5-.14.34.34,0,0,0,.12-.12,1.09,1.09,0,0,0,.1-.25c.06-.84.08-1.68.06-2.53,0-1.46,0-2.93,0-4.39a.49.49,0,0,0-.29-.43,2.15,2.15,0,0,0-.84-.07Q34.93.11,9.28.26a10.39,10.39,0,0,0-5.1,3.17A9.32,9.32,0,0,0,.11,8.9q-.25,7.64.08,15.27a7.54,7.54,0,0,0,3.16,4.21A33.25,33.25,0,0,0,8,32a22.63,22.63,0,0,0,6.36.42Z"/><path d="M422.41,32.3a.47.47,0,0,0,.2-.33,4.53,4.53,0,0,0,0-1q0-11.38,0-22.78a1,1,0,0,1,.28-.72.83.83,0,0,1,.44-.19q6.45,0,12.89.1a4.47,4.47,0,0,1,3.46,5.36,4.21,4.21,0,0,1-5.15,4.09q-3.57-.09-7.14-.29a1,1,0,0,0-.53.11.39.39,0,0,0-.19.35.87.87,0,0,0,.2.47q7.14,7.23,14.47,14.28a1.24,1.24,0,0,0,.52.18q8.73.12,17.45.08l.46-.08a.35.35,0,0,0,.19-.32.75.75,0,0,0-.21-.47l-9.19-8.86a1,1,0,0,1-.26-.44.14.14,0,0,1,0-.14.43.43,0,0,1,.16-.14,7.84,7.84,0,0,0,4.28-5.42A15.9,15.9,0,0,0,453,3,5.74,5.74,0,0,0,447.3.61l-39.62,0a.51.51,0,0,0-.33.13.57.57,0,0,0-.13.33q-.11,15.32,0,30.63a.71.71,0,0,0,.42.62,3.25,3.25,0,0,0,1,0c4,0,7.89,0,11.84,0a9.19,9.19,0,0,0,1.66-.06l.2-.06Z"/><path d="M83.56,28.27q12.6,0,25.2,0a.57.57,0,0,0,.48-.3,2.23,2.23,0,0,0,.07-.85c0-1.59,0-3.19,0-4.78l-.12-.47a.54.54,0,0,0-.37-.25,4.87,4.87,0,0,0-1.08-.07l-20.08,0a.56.56,0,0,1-.52-.56q0-10.13,0-20.27a.53.53,0,0,0-.21-.45,1.45,1.45,0,0,0-.82-.15Q77.23,0,68.4,0a1.07,1.07,0,0,0-.47.14.43.43,0,0,0-.21.28,3,3,0,0,0,0,.85l0,26.19a1.08,1.08,0,0,0,.2.55.7.7,0,0,0,.47.21q7.57,0,15.16,0Z"/><path class="cls-1" d="M147.64,15.81l1.19,0a1.08,1.08,0,0,0,.53-.15.44.44,0,0,0,.13-.14.8.8,0,0,0,.11-.25,12.68,12.68,0,0,0,.07-2.54c0-1.41,0-2.83-.07-4.24a2.23,2.23,0,0,0-2.4-2q-6.78-.09-13.55.06a2.66,2.66,0,0,0-1.89,2.78c-.06,1.95-.06,3.9,0,5.85a.73.73,0,0,0,.43.61,4,4,0,0,0,1,0ZM131,28.23a1.59,1.59,0,0,0,.48-.07.37.37,0,0,0,.23-.23,2.16,2.16,0,0,0,0-.84c0-1.36,0-2.73.06-4.09a.67.67,0,0,1,.39-.62,2.76,2.76,0,0,1,1.07-.09h15.83a.56.56,0,0,1,.48.26,1.74,1.74,0,0,1,.12.84c0,1.36,0,2.72,0,4.07a.77.77,0,0,0,.3.63,1.76,1.76,0,0,0,.45.12q7.38.11,14.75,0a.61.61,0,0,0,.59-.49,10.51,10.51,0,0,0,0-1.86q.09-9.35-.13-18.68a2.38,2.38,0,0,0-.84-1.65q-2.56-2.62-5.36-5a2.19,2.19,0,0,0-1.25-.4Q140.43,0,122.6.11a6.55,6.55,0,0,0-2.51,1.7,35.23,35.23,0,0,0-4.65,4.49,5.21,5.21,0,0,0-.38,2.17q0,9.63,0,19.25a.48.48,0,0,0,.34.44,2.85,2.85,0,0,0,.87.07q7.35.06,14.69,0Z"/><path class="cls-1" d="M205.1,19a9.71,9.71,0,0,0,1.16-6.31,5.46,5.46,0,0,0-6.41-5.42q-4,0-8,0a9.58,9.58,0,0,0-1.69.09l-.22.08a.52.52,0,0,0-.24.37,5.45,5.45,0,0,0-.07,1.07c-.05,3.78,0,7.57,0,11.35a1.3,1.3,0,0,0,.16.53.34.34,0,0,0,.12.12.92.92,0,0,0,.23.09c1.83.06,3.66.08,5.49.07a51.46,51.46,0,0,0,6.8-.23A6.12,6.12,0,0,0,205.1,19ZM188,28.27q12.1,0,24.2-.11a12,12,0,0,0,10.71-12,17.4,17.4,0,0,0-1.37-8.95A15,15,0,0,0,212.59.62q-20-.15-40.05,0a.44.44,0,0,0-.39.3,2.57,2.57,0,0,0-.05.83q0,12.89,0,25.77a.82.82,0,0,0,.4.67,2.75,2.75,0,0,0,1,.08q7.2,0,14.4,0Z"/><path class="cls-1" d="M243.54,28.26c.35,0,.7,0,1.05,0a.57.57,0,0,0,.49-.3,1.36,1.36,0,0,0,.08-.49V1.09a.52.52,0,0,0-.33-.49,2.38,2.38,0,0,0-.88,0q-7.91,0-15.8,0a.53.53,0,0,0-.43.3,2.11,2.11,0,0,0-.05.83v26a.55.55,0,0,0,.27.48,1.08,1.08,0,0,0,.47.07l15.13,0Z"/><path class="cls-1" d="M283.46,15.81c.39,0,.79,0,1.18,0a1,1,0,0,0,.52-.16.37.37,0,0,0,.12-.13,1.3,1.3,0,0,0,.1-.25,16.58,16.58,0,0,0,.05-2.54,39.82,39.82,0,0,0-.1-4.23,2.16,2.16,0,0,0-2.31-2q-6.78-.1-13.56,0a2.63,2.63,0,0,0-1.92,2.81c0,1.9,0,3.79,0,5.69a1.71,1.71,0,0,0,.14.49.57.57,0,0,0,.36.28,3.62,3.62,0,0,0,1,0q7.2,0,14.39,0Zm-17,12.4a1.81,1.81,0,0,0,.65-.11.52.52,0,0,0,.31-.34,3.5,3.5,0,0,0,.08-1.07c0-1.31,0-2.63.06-3.94a.52.52,0,0,1,.29-.42,2.64,2.64,0,0,1,.84,0l16.23,0a.48.48,0,0,1,.34.11.56.56,0,0,1,.15.33c0,1.57.05,3.14.1,4.72a1,1,0,0,0,.15.5.36.36,0,0,0,.14.11.77.77,0,0,0,.25.1q3.39.09,6.78.06l8.22,0a.51.51,0,0,0,.53-.49q.09-10.28-.08-20.54a5.55,5.55,0,0,0-2.26-3.07A35.31,35.31,0,0,0,294.9.33a6.2,6.2,0,0,0-2.09-.27Q275.6,0,258.42.12a2.77,2.77,0,0,0-1.28.64c-2,1.65-3.91,3.4-5.75,5.22a4.91,4.91,0,0,0-.56,2.91q0,9.45,0,18.89a.43.43,0,0,0,.2.32l.21.06c3.52.09,7.05.11,10.57.08q2.31,0,4.62,0Z"/><path class="cls-1" d="M334.14,28.28a1.94,1.94,0,0,0,.33-.07l.15-.06a.58.58,0,0,0,.26-.38,3.91,3.91,0,0,0,.07-1.08Q335,16.87,335,7a.54.54,0,0,1,.52-.53q4.53,0,9.07-.11a1.88,1.88,0,0,0,.87-.51c1.64-1.54,3.22-3.15,4.74-4.81a.71.71,0,0,0,.15-.64.63.63,0,0,0-.5-.35Q326.69,0,303.54.08a1.33,1.33,0,0,0-.48.14.41.41,0,0,0-.22.26.45.45,0,0,0,0,.34,6.8,6.8,0,0,0,1.48,1.64c1.21,1.3,2.48,2.55,3.78,3.76a1.36,1.36,0,0,0,.86.23l9,.06a.52.52,0,0,1,.44.32,2.2,2.2,0,0,1,.07.85q0,10,0,20.05a.55.55,0,0,0,.25.47,1.27,1.27,0,0,0,.47.09q7.45,0,14.9,0Z"/><path class="cls-1" d="M384.43,16.53c.05-2.26,0-4.53-.09-6.8a3.65,3.65,0,0,0-4.14-3q-3.58-.13-7.17,0a9.1,9.1,0,0,0-2.14.28,4.4,4.4,0,0,0-2.27,4.41,45,45,0,0,0,.23,6.77A3.76,3.76,0,0,0,373,20.63q4.46.07,8.91-.14a3.71,3.71,0,0,0,2.49-4Zm-9.28,11.81c5.94,0,11.88,0,17.82-.09a7.23,7.23,0,0,0,3.84-2.59c1.28-1.3,2.52-2.64,3.7-4a6.58,6.58,0,0,0,.49-3q.11-5.75-.13-11.47a11.59,11.59,0,0,0-3.66-4.65c-.67-.67-1.38-1.31-2.11-1.92A9.61,9.61,0,0,0,390.85,0q-15.5,0-31,.07a7,7,0,0,0-4,2.76,14.88,14.88,0,0,0-3.33,3.91,34.62,34.62,0,0,0-.26,6.36c-.05,2.54,0,5.09.2,7.63a5.14,5.14,0,0,0,1.83,2.59,64.68,64.68,0,0,0,4.72,4.5,6.08,6.08,0,0,0,2.95.47Z"/></g></g></svg>