<svg xmlns="http://www.w3.org/2000/svg" viewBox="0 0 1303.94 405.76"><defs><style>.cls-1{fill:#221f20;fill-rule:evenodd;}</style></defs><g id="Layer_2" data-name="Layer 2"><g id="Layer_1-2" data-name="Layer 1"><path class="cls-1" d="M35.6,293.92c-5.7,26.19-17.17,47.16-35.6,67.4l76.25-28c-8,92,116.72,108.91,192.55-23.49L326,223c41.79-9.07.12,26.49-4.38,59.77C313.47,344,391.53,321,413.8,269.11,425,243,440.52,215.83,446.1,184.6c10.75,3.9,20.78,5.16,29.84,3.18l8.29,13.34c-27.32,10.93-36.45,33.34-31.22,51.12,12.91,44,78,20.66,104.29,3.06,29.48-19.82,54.34-53,78.47-103.44a20.18,20.18,0,0,0,14,1c-20.59,48.36-27,81.64,4.15,84.22,26.59-2.58,47.67-15.56,61.6-46.08,11.88,50.1,66.46,21.63,89.52-10.33,2-2.7,6.66-13.64,7.44-13.51l4.57.48c1.26.12-8.41,28.89,17.11,32.19,13.81,1.87,35.78-2.58,52.29-30.33,2.35,19.94,28.58,25.17,50.68-1.08,3.18-3.73,7.32-9.43,11.71-15.74C959.75,137,969.3,120.5,980.11,104.7c6.66-9.73,16.51-2.22,14.71,4.09-7.15,28.05-19.94,50.52-35.13,71.84,14.53-3.66,28.16-6.19,40.17-6.85,4.5-25.89,18.25-54,30-72.8,8-12.92,22.58-9.43,14.71,11.11-32.9,50.4,1,68.42,37,44.27,9.06-6.06,14.77-15.62,21-26.13,5.47,19.58,16.15,26.19,30.92,24.63,17.59-2,28.58-8.17,36.81-23.79l4.68-.24c-2,19.53,24.92,16.46,71.09,2.41,2.46-.72,11.65-4.15,13.63-1.93,2.4,2.71,3.12,8.17-1.26,12.92-7.51,8.11-26.3,8.29-37.11,9.61-117.26,14.24-233.5,36-347,56.35C630,254,399,310.74,204.62,403.91c52.35-13.45,104.65-16.21,157-2.52,99.9-86.44,445.38-162.61,887.7-232,63-11.48,70.31-60,28.34-59.41-22.39.3-55.3,15.74-74.09,6.31-16.87-4.45,33.92-79.18,33.2-114.74-21.19-.3-45.15-3.84-58.12,1.14-11.71,4.45-14.71,18.26,5.89,18.5,3,.06,6.42.12,10.44-.12.25,10.88-3.66,23.13-9.84,36.11-26.12-23.37-62.26,2.16-74.81,30.69-6.25,14.12-14.23,30.1-22.64,37.19-12.73,10.87-27.08,7.32-16.45-10l13.51-28.29c10.51-33.34-30.08-33.58-60.82-3.36-1.08-22.17-38.31-18.44-55.12,5.88L946.19,121c-5.05,6.49-20.48,31.84-28.7,28.23-3.19-1.38-3.73-6-1.27-14.41,5.89-20,20.9-40.43,31.89-58.33l-36.87,5.11-2,6-1.56,4.63c-1.44,4.32-6.49,1.5-6.55,1.26C897.61,78.15,879.36,79,864.47,88.6c-13.27,8.53-22.94,20.79-28.46,27.76l-29,36.76c-21.07,20.12-60.16,35.86-53.26-8.89.6-3.67,6.91-5.35,11.29-7.93,47.79-28.23,57-41.81,77.27-68.36,10.15-16,6.61-28.83-3.3-34.9-32.12-19.58-76.85,33.58-90.72,58.45C726,131.61,701.76,190,678.64,191.56c-18,2.47,7.27-42.05,12-53.88,6-14.66-3.66-21.38-13.81-21.86-7.62-.36-18.79-2.53-31.76,8.94-.6.55-4.32,2.53-4.8.67.72-15.86,4.32-21.21-2.47-25-25.27-13.88-55.71,7-52.77,35.86,1.68,16.46,11,21.14,23.29,23.49C582.94,213.07,553.7,234.93,523,238.6c-29.78,5-29-29.32,6.78-41l.24-1.92c-44.79-14.66,12.49-15.38,26.66-12.08,4.08-16.75,10-30.21,18.31-45.29-39.93-7.09-67.12-3.3-82.31,8.35-9,6.91-14.47,15.5-15.44,29C466,174.74,455.59,173.42,446,166c-2.4-1.86-1.74-8.35-4.56-10.15-4.38-2.82-6.9,1.14-7.38,3.85C428.93,189,398.31,284.07,369.91,279c-5.88-1.08-6.9-10.15-1.32-24.81,22.52-45.72,31.64-68.06,19.63-77.07-9.78-7.33-36.86-8.89-55.17,16.28l-17.24,17.24,9.25-39.41c1.08-10,1.68-19.22,1.14-27.45-4-66-84.3-33.64-111.91,1.62-11.95,15.26-25.34,31.48-36.69,51.9C175,172,160.85,164.35,148.06,167.12c-22,4.8-47.19,39.88-55.66,65.59-5.82,17.78-11.65,37.07-14.53,58.69-15.43,4.57-30.26,6.37-42.27,2.52Zm180.19-92.68c-33.15,54.3,24.85,74.9,48.75,23.66,19.75-34.78,10.81-54.36-3.42-58.93-12.31-4-30.62,6.85-45.33,35.27ZM119.6,304.74c16.57-12.74,29.84-30.46,41.31-50.82,1.92,52.26,29.06,61.81,77.51,35.26-19.39,51.66-115,89.74-118.82,15.56ZM619,131.25c11.35-24.63-17.47-17.84-12.55-5.22,1.38,3.6,10.93,8.71,12.55,5.22ZM511,168.86c26.06-35.5,54.94-8,26.6-1.87a82.3,82.3,0,0,1-26.6,1.87Zm-370.93,38.5c-4.93-.78-11,5-17.42,21.57-16.33,53.64-1.74,40.73,12.43,21.86,12.61-16.88,28.28-39.82,5-43.43Zm663-147.17c-4.69-.78-12.55,5-24,21.44-32.84,53.53-14.29,40.67,5.65,21.81,17.83-16.76,40.52-39.65,18.31-43.25ZM1139.4,94.43c-16.57,29.07,15.37,38.87,26.77,11.59,12.37-22.58,6.91-30.45-.12-32.31s-18.79,4.8-26.65,20.72ZM855.7,131.37c-22.75,35,11.77,47.1,28.46,14.12,13.63-22.41,13.69-32.86,1.32-36.4-7.92-2.28-19.57,4-29.78,22.28Z"/></g></g></svg>