<svg xmlns="http://www.w3.org/2000/svg" viewBox="0 0 460 73.01"><defs><style>.cls-1{fill-rule:evenodd;}</style></defs><g id="Layer_2" data-name="Layer 2"><g id="Layer_1-2" data-name="Layer 1"><path class="cls-1" d="M394.77,51.45,389.15,65.6c12.8,6.53,29.52,10.15,46.65,4.88L422.07,57A54.66,54.66,0,0,1,394.77,51.45Z"/><path class="cls-1" d="M394,14l50.11,52.41a41.11,41.11,0,0,0,13.34-9.1L408.69,5.69A47.35,47.35,0,0,0,394,14Z"/><polygon class="cls-1" points="301.45 2.41 331.99 45.97 331.99 70.16 349.59 70.16 349.59 41.24 322.68 2.41 301.45 2.41"/><polygon class="cls-1" points="159.67 2.41 159.64 70.15 159.64 70.15 172.31 70.15 175.71 70.16 175.71 70.15 213.12 70.16 213.12 52.94 175.71 52.94 175.71 2.41 159.67 2.41"/><polygon class="cls-1" points="242.81 2.41 242.78 70.15 242.78 70.15 255.44 70.15 258.85 70.16 258.85 70.15 296.26 70.16 296.26 52.94 258.85 52.94 258.85 2.41 242.81 2.41"/><polygon class="cls-1" points="110.2 2.41 110.17 70.15 126.24 70.16 126.24 2.41 110.2 2.41"/><polygon class="cls-1" points="80.19 2.41 70.76 28.29 78.77 49.3 97.9 2.41 80.19 2.41"/><polygon class="cls-1" points="30.17 2.41 56.99 70.16 73.93 70.16 47.89 2.41 30.17 2.41"/><polygon class="cls-1" points="0 2.41 26.51 70.16 43.55 70.16 17.12 2.41 0 2.41"/><path class="cls-1" d="M416.61,2l14.11,14.3c9.1-.15,16.51,1.21,23.32,4.26l6-13.41C448-.31,432.05-1.74,416.61,2Z"/><polygon class="cls-1" points="345.65 23.61 355.5 36.51 383.43 2.41 362.34 2.41 345.65 23.61"/></g></g></svg>