<?xml version="1.0" encoding="utf-8"?>
<!-- Generator: Adobe Illustrator 27.9.1, SVG Export Plug-In . SVG Version: 6.00 Build 0)  -->
<svg class="w" version="1.1" xmlns="http://www.w3.org/2000/svg" xmlns:xlink="http://www.w3.org/1999/xlink" x="0px" y="0px"
	 viewBox="0 0 8550 2285.4" style="enable-background:new 0 0 8550 2285.4;" xml:space="preserve">
     $gradientDefs

     <path class="maincolor" d="M4275,1498.2c569.2,0,1141.5,6.2,1152.6,6.7c97.1,4.2,130.3,54.4,136.1,130.8c5.8,76.4,7,223.7,5.7,316.5
	c-0.4,25.8,12.7,33,26.8,32.6c162.5-4.6,1067.1-9.4,1680.5-2.9c340.6,3.6,445.4,76.3,578.4,284.7c9.7,15.2,19.6,19.2,39.4,18.8
	c112.8-2.2,406.9-0.2,484.4-2.1c-9.3-754.4-32-1458.8-3.6-2033.6c4.4-88.1,3.9-103.8,78.9-161.8c71.4-55.1,95.1-44.4,95.7-73.6
	C8530.7,13.1,5249.9,0,4275,0S19.3,13.1,0,14.3c0.6,29.2,24.4,18.5,95.7,73.6c75,57.9,74.6,73.7,78.9,161.8
	c28.4,574.8,5.7,1279.2-3.6,2033.6c77.6,1.8,371.7-0.1,484.4,2.1c19.7,0.4,29.6-3.6,39.4-18.8c133-208.4,237.8-281.1,578.4-284.7
	c613.4-6.5,1518.1-1.7,1680.5,2.9c14.1,0.4,27.2-6.9,26.8-32.6c-1.4-92.8-0.1-240.1,5.7-316.5c5.8-76.4,39.1-126.6,136.1-130.8
	C3133.5,1504.3,3705.8,1498.2,4275,1498.2z M4275,165.5c202.6,0,3457.9,2.1,3542.1,4.6c169.3,4.9,187.6,96,190,187.9
	c2.9,111.4-12.6,347.1-63.3,435.1c-86.1,149.4-216.9,299.7-521.2,312.1c-414.1,16.8-2452.4,4.4-3147.5,4.4s-2733.4,12.4-3147.5-4.4
	C823.2,1092.7,692.4,942.5,606.3,793C555.5,705,540,469.3,543,357.9c2.4-91.8,20.7-182.9,190-187.9
	C817.1,167.6,4072.4,165.5,4275,165.5z M970.4,1353.5c245.7-0.3,444.9,85.3,445.1,191.3c0.1,106-198.9,192.1-444.6,192.5
	c-245.7,0.3-444.9-85.3-445.1-191.3C525.7,1440,724.8,1353.8,970.4,1353.5z"/>
<path class="maincolor" d="M3159.7,1941.8c5.9-0.1,18.2-0.2,18.2-0.2c119.5-1.1,1112.4-5.6,1114.1-5.6l1037.5,5.5l60.8,0.3
	c4.8,0,8.7-3.6,8.6-8.1c-0.2-6.9-1.1-46-1.1-46c-1.9-78.4-5.2-215.2-5-222.7c0.4-18.4-25.3-23.6-25.3-23.6s-543.1-5.9-1088.5-5.9
	c-550.1,0-1102.6,5.9-1102.6,5.9s-24.1-1.9-25.3,23.6v268.8C3151,1938.3,3154.9,1941.9,3159.7,1941.8z"/>

<text class="textcolor" transform="matrix(0.9 0 0 1 4300 1443.6686)" style="font-family:'Ford-Bronco-Font-Main-Regular'; font-size:404.0045px; text-anchor: middle;">
	<tspan>BADASS</tspan>
</text>
</svg>
