<?xml version="1.0" encoding="utf-8"?>
<!-- Generator: Adobe Illustrator 27.9.1, SVG Export Plug-In . SVG Version: 6.00 Build 0)  -->
<svg class="v" version="1.1" xmlns="http://www.w3.org/2000/svg" xmlns:xlink="http://www.w3.org/1999/xlink" x="0px" y="0px"
	 viewBox="0 0 1670.7 2843.3" style="enable-background:new 0 0 1670.7 2843.3;" xml:space="preserve">
     $gradientDefs

<path class="maincolor" d="M835.3,2843.3c108.9,0,223.7-3.6,306.8-7l26.4-1.2c58.2-2.7,98.8-40.5,127.4-91.3
	c129.3-229.8,259-593.1,289.1-682.4c30.4-90.2,42.5-168.9,44.2-246.4C1646.6,1004.3,1670.7,0,1670.7,0
	c-306.2,41.7-534,62.1-835.3,62.5C534,62.1,306.2,41.7,0,0c0,0,24,1004.3,41.5,1815.1c1.7,77.5,13.7,156.2,44.2,246.4
	c30.1,89.3,159.8,452.6,289.1,682.4c28.6,50.8,69.2,88.6,127.4,91.3l26.4,1.2C611.6,2839.7,726.5,2843.3,835.3,2843.3z"/>
<path class="accentcolor" d="M835.3,2828.9c102.1-0.3,204.1-2.7,306.1-6.9l26.4-1.2c25.4-1.2,49.8-10.6,69.4-26.8
	c9.9-8.2,18.8-17.4,26.6-27.6c7.2-9.3,13.7-19.2,19.4-29.5c28.3-50.9,54.7-102.9,79.2-155.8c21.9-47.2,43-94.7,63.2-142.7
	c52.8-125.5,101.4-252.8,145.7-381.6c13.8-40.6,24.6-82.2,32.1-124.4c6.7-38.9,10.5-78.2,11.3-117.6
	c13.1-599.4,27.3-1214.4,41.5-1813.8c-10.2,1.4-20.3,2.7-30.3,4.1c-14.1,578.2-27.6,1172.1-40,1750.3
	c-1.7,78.9-16.2,158.4-41.8,233.3c-44.1,128.2-92.4,254.8-145,379.8c-20.1,47.6-41.1,94.9-62.8,141.8
	c-24.2,52.2-50.3,103.6-78.2,153.9c-19.7,35.4-48.3,67.1-91.6,69.2c-110.3,5.2-220.7,8-331.2,8.2c0,0,0,0,0,0c0,0,0,0,0,0
	c-110.4-0.2-220.9-2.9-331.2-8.2c-43.2-2.1-71.9-33.8-91.6-69.2c-28-50.3-54-101.6-78.2-153.9c-21.7-46.9-42.7-94.2-62.8-141.8
	c-52.5-124.9-100.9-251.6-145-379.8c-25.7-74.9-40.2-154.3-41.8-233.3C72.4,1177.1,58.8,583.2,44.7,5C34.7,3.7,24.6,2.3,14.4,0.9
	c14.3,599.4,28.4,1214.4,41.5,1813.8c0.8,39.4,4.6,78.8,11.3,117.6c7.5,42.2,18.2,83.8,32.1,124.4
	c44.3,128.8,92.9,256.1,145.7,381.6c20.2,47.9,41.3,95.5,63.2,142.7c24.5,52.9,50.9,104.9,79.2,155.8c5.7,10.3,12.2,20.2,19.4,29.5
	c7.8,10.2,16.7,19.4,26.6,27.6c19.6,16.2,44,25.6,69.4,26.8l26.4,1.2C631.2,2826.2,733.2,2828.6,835.3,2828.9z"/>
<g>
	<path class="accentcolor2" d="M78.8,157.8h1513.1l5-148.2c-267.5,34.6-513.2,52.5-761.5,52.5C587,62.1,341.3,44.2,73.8,9.6L78.8,157.8z"/>
	<polygon class="accentcolor2" points="1590.7,193.2 80,193.2 84.6,331.9 1586.1,331.9 	"/>
	<polygon class="accentcolor2" points="1584.6,376.7 86.1,376.7 90.4,506.1 1580.2,506.1 	"/>
	<polygon class="accentcolor2" points="1578.4,560.3 92.2,560.3 96.3,680.3 1574.4,680.3 	"/>
	<polygon class="accentcolor2" points="1572.3,743.9 98.4,743.9 102.1,854.4 1568.6,854.4 	"/>
	<polygon class="accentcolor2" points="1566.1,927.4 104.5,927.4 107.9,1028.6 1562.8,1028.6 	"/>
	<polygon class="accentcolor2" points="1560,1111 110.7,1111 113.7,1202.8 1556.9,1202.8 	"/>
	<polygon class="accentcolor2" points="1553.9,1294.5 116.8,1294.5 119.6,1376.9 1551.1,1376.9 	"/>
	<polygon class="accentcolor2" points="1547.7,1478.1 122.9,1478.1 125.4,1551.1 1545.3,1551.1 	"/>
	<path class="accentcolor2" d="M1538.7,1661.7H131.9c3.4,21.5,8.4,42.8,14.9,63.6h1377C1530.4,1704.4,1535.3,1683.2,1538.7,1661.7z"/>
	<path class="accentcolor2" d="M1471.6,1845.2H199.1c7.9,16.3,16.8,34.6,26.6,54.2h1219.2C1454.8,1879.8,1463.7,1861.5,1471.6,1845.2z"/>
	<path class="accentcolor2" d="M1377.2,2028.8H293.4c8.3,15,16.7,30,25.3,44.8h1033.2C1360.5,2058.8,1368.9,2043.8,1377.2,2028.8z"/>
	<path class="accentcolor2" d="M1262.3,2212.4H408.4c8.4,12.1,16.8,23.9,25,35.4h803.8C1245.5,2236.3,1253.8,2224.4,1262.3,2212.4z"/>
	<path class="accentcolor2" d="M1084.4,2395.9H586.2c24.8,11.8,51.9,19,82.3,20.6c69.2,3.6,93.6,5.3,166.8,5.4c73.2,0,97.6-1.7,166.8-5.4
		C1032.6,2414.9,1059.7,2407.7,1084.4,2395.9z"/>
</g>
<text class="textcolor" transform="matrix(1 0 0 1 835.4639 2713.9375)" style="font-size:215.9424px; font-family:'Ford-Mach-1-Regular'; text-anchor: middle">
	<tspan>$textRef</tspan>
</text>
</svg>
