<?xml version="1.0" encoding="utf-8"?>
<!-- Generator: Adobe Illustrator 27.9.1, SVG Export Plug-In . SVG Version: 6.00 Build 0)  -->
<svg class="v" version="1.1" xmlns="http://www.w3.org/2000/svg" xmlns:xlink="http://www.w3.org/1999/xlink" x="0px" y="0px"
	 viewBox="0 0 1670.7 2852.1" style="enable-background:new 0 0 1670.7 2852.1;" xml:space="preserve">
     $gradientDefs

<path class="maincolor" d="M835.3,2843.3c108.9,0,223.7-3.6,306.8-7l26.4-1.2c58.2-2.7,98.8-40.5,127.4-91.3
	c129.3-229.8,259-593.1,289.1-682.4c30.4-90.2,42.5-168.9,44.2-246.4C1646.6,1004.3,1670.7,0,1670.7,0
	c-306.2,41.7-534,62.1-835.3,62.5C534,62.1,306.2,41.7,0,0c0,0,24,1004.3,41.5,1815.1c1.7,77.5,13.7,156.2,44.2,246.4
	c30.1,89.3,159.8,452.6,289.1,682.4c28.6,50.8,69.2,88.6,127.4,91.3l26.4,1.2C611.6,2839.7,726.5,2843.3,835.3,2843.3z"/>
<path class="accentcolor" d="M835.3,2828.9c102.1-0.3,204.1-2.7,306.1-6.9l26.4-1.2c25.4-1.2,49.8-10.6,69.4-26.8
	c9.9-8.2,18.8-17.4,26.6-27.6c7.2-9.3,13.7-19.2,19.4-29.5c28.3-50.9,54.7-102.9,79.2-155.8c21.9-47.2,43-94.7,63.2-142.7
	c52.8-125.5,101.4-252.8,145.7-381.6c13.8-40.6,24.6-82.2,32.1-124.4c6.7-38.9,10.5-78.2,11.3-117.6
	c13.1-599.4,27.3-1214.4,41.5-1813.8c-10.2,1.4-20.3,2.7-30.3,4.1c-14.1,578.2-27.6,1172.1-40,1750.3
	c-1.7,78.9-16.2,158.4-41.8,233.3c-44.1,128.2-252,476.5-286,522.9c-23.9,32.7-48.3,67.1-91.6,69.2c-110.3,5.2-216.3,8.2-331.2,8.2
	s-220.9-2.9-331.2-8.2c-43.2-2.1-67.7-36.5-91.6-69.2c-45.8-62.5-241.9-394.8-286-522.9c-25.7-74.9-40.2-154.3-41.8-233.3
	C72.4,1177.1,58.8,583.2,44.7,5C34.7,3.7,24.6,2.3,14.4,0.9c14.3,599.4,28.4,1214.4,41.5,1813.8c0.8,39.4,4.6,78.8,11.3,117.6
	c7.5,42.2,18.2,83.8,32.1,124.4c44.3,128.8,92.9,256.1,145.7,381.6c20.2,47.9,41.3,95.5,63.2,142.7c24.5,52.9,50.9,104.9,79.2,155.8
	c5.7,10.3,12.2,20.2,19.4,29.5c7.8,10.2,16.7,19.4,26.6,27.6c19.6,16.2,44,25.6,69.4,26.8l26.4,1.2
	C631.2,2826.2,733.2,2828.6,835.3,2828.9z"/>
<path class="accentcolor2" d="M835.3,2416.5c73.2,0,97.4,0,166.8,0c129.3,0,197.6-114.7,285.8-241c99.9-142.9,218.3-403.7,218.3-403.7
	c25.6-57.7,38.5-120.3,37.8-183.5L1596.8,9.6c-267.5,34.6-513.2,52.5-761.5,52.5C587,62.1,341.3,44.2,73.8,9.6l52.8,1578.7
	c-0.7,63.2,12.2,125.8,37.8,183.5c0,0,118.4,260.8,218.3,403.7c88.3,126.3,156.5,241,285.8,241
	C737.9,2416.5,762.1,2416.5,835.3,2416.5z"/>

<text class="textcolor" transform="matrix(1 0 0 1 835.4639 2791.0791)" style="font-size:215.9424px; font-family:'Ford-Mach-1-Regular'; text-anchor: middle">
	<tspan>CUSTOMTEXT</tspan>
</text>
</svg>
