<svg xmlns="http://www.w3.org/2000/svg" viewBox="0 0 807.1 119.16"><defs><style>.cls-1,.cls-2{fill:#121212;}.cls-1{fill-rule:evenodd;}</style></defs><title>2_4L-Hybrid</title><g id="Layer_2" data-name="Layer 2"><g id="Layer_1-2" data-name="Layer 1"><path class="cls-1" d="M508.34,21.24H486.89l-19.75,42.5-18.69-42.5H418.71l30.55,56.43S454,91.79,421.62,91.79V103c0,.72,44.24,3.15,53.21-13.51l33.51-62.18V83h52.72q13.17,0,20.88-5t7.7-13.57a14.47,14.47,0,0,0-3.45-9.52,21.44,21.44,0,0,0-9-7,14.29,14.29,0,0,0,5.67-4.7,11.45,11.45,0,0,0,2-6.61,12.64,12.64,0,0,0-6.4-11.5q-6.4-3.9-18.89-3.89H508.34Zm21.9,24.4V33H559a5.52,5.52,0,0,1,5.52,5.52v1.63A5.52,5.52,0,0,1,559,45.64Zm0,26.59V56.76H561.5a6.56,6.56,0,0,1,6.56,6.55v2.36a6.56,6.56,0,0,1-6.56,6.56Zm-192.58-9.3,32,16.12H357.41a2.8,2.8,0,0,0-2.7,2.88V99.58a19.17,19.17,0,0,0,19.58,19.57h15.13A19.15,19.15,0,0,0,409,99.57V19.91A19.43,19.43,0,0,0,389.42,0H374.28a19.42,19.42,0,0,0-19.57,19.91V37.56a2.8,2.8,0,0,0,2.7,2.88h12.22l-32,16.12-32-16.12h11.42a2.8,2.8,0,0,0,2.7-2.88V19.91A19.29,19.29,0,0,0,300.41,0H285.27A19.42,19.42,0,0,0,265.7,19.91V99.58a19.16,19.16,0,0,0,19.58,19.57h15.13a19,19,0,0,0,19.4-19.58V81.93a2.8,2.8,0,0,0-2.7-2.88H305.68ZM601.54,83h21.15V58h13.22L657.22,83h21L657.56,56.55c6.07-.79,18.08-.85,17.72-18.13C675,24.3,658.75,21.24,650.41,21.24H601.54ZM622.69,47.7V32.31h22.79a7.92,7.92,0,0,1,7.89,7.57,7.82,7.82,0,0,1-7.89,7.82ZM695,83h20.87V20.9H695Zm69.68-61.79h-31.5V83h31.5q19.45,0,30.93-8.39T807.1,52.3q0-13.81-11.66-22.44T764.69,21.24Zm0,11.73c9.75,0,21.55,6.43,21.55,19.22S774.63,71,764.69,71H752.14V33ZM344,59.74l38.84-19.58a3,3,0,0,0,1.29-3.83,2.7,2.7,0,0,0-2.44-1.65H360.11V19.86a14,14,0,0,1,3.68-9.69,14.22,14.22,0,0,1,10.44-4.41h15.25a14.28,14.28,0,0,1,9.68,3.66,13.92,13.92,0,0,1,4.44,10.47V99.6a13.48,13.48,0,0,1-3.65,9.53,14.34,14.34,0,0,1-10.45,4.26H374.22a14.52,14.52,0,0,1-9.7-3.53,13.37,13.37,0,0,1-4.41-10.22V84.81h21.55a2.79,2.79,0,0,0,2.7-2.88,2.91,2.91,0,0,0-1.55-2.6Zm-12.63,0L292.51,79.33a3,3,0,0,0-1.29,3.83,2.67,2.67,0,0,0,2.44,1.65h20.75V99.64a13.63,13.63,0,0,1-3.59,9.51,14.08,14.08,0,0,1-10.33,4.24H285.21a14.57,14.57,0,0,1-9.71-3.53,13.42,13.42,0,0,1-4.4-10.26V19.89a14,14,0,0,1,3.68-9.72,14.19,14.19,0,0,1,10.43-4.41h15.26a14,14,0,0,1,9.58,3.65,14,14,0,0,1,4.36,10.44V34.68H293.66a2.79,2.79,0,0,0-2.7,2.88,2.9,2.9,0,0,0,1.55,2.6Z"/><path class="cls-1" d="M71.11,52.08q1.67-3.73,1.67-11.84a44.13,44.13,0,0,0-.67-8.5A12,12,0,0,0,69.28,26a13.66,13.66,0,0,0-6.39-3.66,40.72,40.72,0,0,0-11.24-1.27H2.38V35.24H45.85a46.84,46.84,0,0,1,4.92.31,6.82,6.82,0,0,1,2.7.84,3,3,0,0,1,1.31,1.82,13,13,0,0,1,.36,3.46q0,3.73-2.7,4.81c-1.8.71-5,1.18-9.53,1.39l-4.73.28c-2.41.13-4.76.27-7,.43l-8.82.6c-3.61.24-6.28.44-8,.6A17.36,17.36,0,0,0,6,52.16a15,15,0,0,0-3.42,3.42,27.48,27.48,0,0,0-1.39,2.7,11.76,11.76,0,0,0-.67,2.18,18.22,18.22,0,0,0-.32,2.86c0,1.14-.08,2.9-.08,5.29L0,83.23H72.94V69.16H17.32q0-4.22,1.91-5.4A6.48,6.48,0,0,1,21.49,63c.88-.13,2.32-.27,4.33-.43s3.37-.21,4.37-.32c1.91-.16,4.32-.34,7.23-.56q7.63-.55,11.84-.91c2.81-.24,5.3-.46,7.47-.68a28.76,28.76,0,0,0,7.91-1.47,9.82,9.82,0,0,0,4.88-3.69l.88-1.43a2.51,2.51,0,0,0,.39-.72C71,52.42,71.06,52.19,71.11,52.08Z"/><rect class="cls-2" x="79.93" y="66.54" width="18.12" height="16.69"/><path class="cls-1" d="M179.73,58.28H170V21.73H148.82l-44,28.2V71.07H153V83.23H170V71.07h9.78Zm-26.7,0H118.39L153,36.43Z"/><polygon class="cls-1" points="205.23 68.13 205.23 20.77 185.76 20.77 185.76 83.23 186.88 83.23 206.58 83.23 247.42 83.23 247.42 68.13 205.23 68.13"/></g></g></svg>