<svg xmlns="http://www.w3.org/2000/svg" viewBox="0 0 245.04 62.53"><defs><style>.cls-1,.cls-2{fill:#121212;}.cls-1{fill-rule:evenodd;}</style></defs><title>2_5L</title><g id="Layer_2" data-name="Layer 2"><g id="Layer_1-2" data-name="Layer 1"><path class="cls-1" d="M71.11,31.31q1.67-3.73,1.67-11.84A44.24,44.24,0,0,0,72.11,11a12,12,0,0,0-2.83-5.72,13.66,13.66,0,0,0-6.39-3.65A40.34,40.34,0,0,0,51.65.32H2.38V14.46H45.85a46.33,46.33,0,0,1,4.92.32,7,7,0,0,1,2.7.83,3,3,0,0,1,1.31,1.83,12.9,12.9,0,0,1,.36,3.46q0,3.74-2.7,4.8t-9.53,1.39c-.75.06-2.32.15-4.73.28s-4.76.28-7,.44-5.22.36-8.82.59-6.28.44-8,.6A17.47,17.47,0,0,0,6,31.38,15,15,0,0,0,2.54,34.8a27.48,27.48,0,0,0-1.39,2.7,11.86,11.86,0,0,0-.67,2.19,18.22,18.22,0,0,0-.32,2.86c0,1.14-.08,2.9-.08,5.28L0,62.45H72.94V48.39H17.32q0-4.22,1.91-5.41a6.27,6.27,0,0,1,2.26-.75c.88-.13,2.32-.28,4.33-.44s3.37-.21,4.37-.31q2.86-.24,7.23-.56,7.63-.56,11.84-.91t7.47-.68a28.76,28.76,0,0,0,7.91-1.47,9.87,9.87,0,0,0,4.88-3.69l.88-1.43a2.67,2.67,0,0,0,.39-.72C71,31.65,71.06,31.41,71.11,31.31Z"/><rect class="cls-2" x="79.93" y="45.77" width="18.12" height="16.69"/><path class="cls-1" d="M154.3,20.5H122V15h52.68V.4H106.55V32.89h43.3q5.64.09,7.47,1.87c1.22,1.19,1.83,3.17,1.83,5.92a17,17,0,0,1-.28,3.42,4.78,4.78,0,0,1-1.15,2.3c-1.33,1.38-3.92,2.07-7.79,2.07H104.64V62.53h44.42a75.93,75.93,0,0,0,13.58-1.07q5.81-1.08,8.74-3.62a17,17,0,0,0,3.1-4.41,20.15,20.15,0,0,0,1.71-4.88,35.23,35.23,0,0,0,.68-4.61c.1-1.43.16-3,.16-4.69a31.81,31.81,0,0,0-.92-8.22,12.21,12.21,0,0,0-3.34-5.72,15.65,15.65,0,0,0-7-3.58A45,45,0,0,0,154.3,20.5Z"/><polygon class="cls-1" points="202.85 47.35 202.85 0 183.38 0 183.38 62.45 184.49 62.45 204.2 62.45 245.04 62.45 245.04 47.35 202.85 47.35"/></g></g></svg>