<svg xmlns="http://www.w3.org/2000/svg" viewBox="0 0 470.47 252.1"><defs><style>.cls-1{fill:#231f20;fill-rule:evenodd;}</style></defs><title>Impala-Deer-Logo</title><g id="Layer_2" data-name="Layer 2"><g id="Layer_1-2" data-name="Layer 1"><path class="cls-1" d="M353.51,180c-27,41.1-83.78,69.19-144.94,71.82-80.48,3.7-152.86-26.09-183.23-75.42,0,0-17.77-7-21.62-9.48-4.77-3.1-4.85-7.16-.81-9.39s11.28-6,11.28-6a98.51,98.51,0,0,1-2.81-12.62C-.56,61.82,81.65,4.83,180.88.26s185.72,52,189,122.52A91.46,91.46,0,0,1,365.22,156a39.37,39.37,0,0,1,8.87-1.81c4.8-.39,9.41.2,17.12,2.65s70.66,23.79,76.23,25.66c4.95,1.67,3.73,8.29-2.82,6.75-5.79-1.37-76.6-18.21-81.34-19.28s-8.25-.31-13.23,2.07ZM60.05,157.46a118.93,118.93,0,0,0-23,4.31c-1.23.54-1.92,1.19-.63,2a75.24,75.24,0,0,0,16.45,7.69c8.85,2.91,15.24,4.21,28.26,5.91,20.6,2.68,42.28.51,43.42.41a5.2,5.2,0,0,1,4.28,1.08c1.64,1.34,7.58,7.6,8.21,8.39s.36,1.54-1.06,1.93c-6.44,1.75-41.87,3.61-76.32-2.86,19.89,14.17,58.1,35.87,132.72,37.13,43,.72,104.12-12.86,135.71-41.52-9.81-1-25.49-13.43-31.83-16.58-25.15-12.47-37-13.93-68.07-12-22.2,1.38-48.08,10.29-55.38,13.09s-18.68,5.13-31.52,6.93-21.62-1-32-3.85-10.68-3.39-26.49-10.27C81.33,158.66,71.81,156.57,60.05,157.46ZM104.86,91c-4,1-19.78,3.89-30.26,3.47-5.33-.22-3.3-3.15-1.68-4.5C75.08,88.15,82,84,87,81.33c21-11.12,74-27.23,131-21.1,51.34,5.52,80.86,25.11,92.41,37.46,1.94,2.08.08,4.14-2.75,1.92C297.34,91.45,263.15,76,221,73.42c-30.68-1.87-51.57,1.75-65.69,6.52-37.15,12.54-30.28,37.29-10.85,42.22a149,149,0,0,0,35.38,4.48c23.84.12,73.74-13.4,85.39-15.44s27-1.42,37.6,6.43c10.45-1,25.3-5.59,28.63-8.74,2.51-2.38,3.7.06,2.85,2s-7.77,16.31-16,21.29c4.48,21.93,20.16,29.46,29.3,28.15,7.47-14.23,12.17-25.15,8.93-44.41-3.66-21.75-22.75-43.17-45.5-56-23-13-76-39.78-158.22-28.21C39.73,47.71,26.11,102.08,22.72,118.37,20,131.26,26.2,146.78,26.2,146.78c7.33-2.91,23.13-6.59,23.74-6.8a2.05,2.05,0,0,0,1.32-1.54c5.24-16.59,17.51-23.91,22.91-27.88C81.78,105,95.12,97.9,107,93,109.25,92.09,108.88,90,104.86,91Z"/></g></g></svg>