<svg xmlns="http://www.w3.org/2000/svg" viewBox="0 0 617.71 72.01"><defs><style>.cls-1,.cls-2{fill:#121212;}.cls-2{fill-rule:evenodd;}</style></defs><title>Impala-LT</title><g id="Layer_2" data-name="Layer 2"><g id="Layer_1-2" data-name="Layer 1"><rect class="cls-1" width="15.57" height="72"/><path class="cls-2" d="M62.22,29.1,37.84,0h-16V72H37.34V23.8L62.22,53.3q6-7.12,12.35-14.73T87,23.7V72h15.57V0H86.49Z"/><path class="cls-2" d="M114.56.2V72H130V48.93a.37.37,0,0,0,.19.09h.11q0-.6-.3-.6l41.56-.1A14.86,14.86,0,0,0,182.09,44a14.69,14.69,0,0,0,4.37-10.42V15a14.69,14.69,0,0,0-4.37-10.42A14.86,14.86,0,0,0,171.59.2ZM130,15.67h40.76V32.76H130Z"/><path class="cls-2" d="M208.53,0a14.75,14.75,0,0,0-14.77,14.77V72h15.47V48.83H250V72h15.66V14.77A14.61,14.61,0,0,0,261.3,4.32,14.85,14.85,0,0,0,250.79,0Zm.7,33.26V15.57H250V33.26Z"/><polygon class="cls-2" points="277.16 72 349.06 72 349.06 56.43 292.63 56.43 292.63 0 277.16 0 277.16 72"/><path class="cls-2" d="M369.84,0a14.73,14.73,0,0,0-14.77,14.77V72h15.47V48.83H411.3V72H427V14.77A14.62,14.62,0,0,0,422.6,4.32,14.83,14.83,0,0,0,412.1,0Zm.7,33.26V15.57H411.3V33.26Z"/><polygon class="cls-2" points="504.13 54.6 504.13 0.01 481.68 0.01 481.68 72.01 482.97 72.01 505.68 72.01 552.77 72.01 552.77 54.6 504.13 54.6"/><polygon class="cls-2" points="587.12 16.68 617.71 16.68 617.71 0.01 533.07 0.01 533.07 16.68 564.68 16.68 564.68 72.01 587.12 72.01 587.12 16.68"/></g></g></svg>