<svg xmlns="http://www.w3.org/2000/svg" viewBox="0 0 2497.48 562.29"><defs><style>.cls-1{stroke:#000;stroke-width:0.03px;}.cls-2{fill:#fff;}</style></defs><title>Vortec</title><g id="Layer_2" data-name="Layer 2"><g id="Layer_1-2" data-name="Layer 1"><path class="cls-1" d="M1625.38,562.28H1921l19.59-38.47c10.74,25.2,39.82,38.47,54.65,38.47h335.5l111.39-218.66H2193c-8.25-.18,15.47-126.08,29-126.26h170.81L2497.46,0H1391.82l-19.59,41.18C1371.91,23.94,1348.76.09,1321.6,0H1007.08L998.3,42.54C988.73,4.07,954.21.12,936.89,0H418.51L385.4,108.7,360.44,0H150.53L0,227.49l140.37.68,74.91,280.77c23,45.34,34.95,53.34,57.39,52H445.46c32.85-2.64,44.65-11.92,56.71-29,6.61,19.77,45,29,59.41,29h541.35l11.45-46.58,35.77,47.93h380.72l16.18-62.12c3.8,12.41,37.26,61.12,78.33,62.12Z"/><path class="cls-2" d="M178.87,60.1,106,167.44h93.83L275.4,459c2.59,11.76,11.84,35.62,38.47,35.76H446.2c30.79,1.18,49.35-33.31,57.35-58.7L592,60.14H471.8L385.4,372.63,309.85,60.1Zm957.84,178.84L1111,347l94.5,146.45h132.94L1229.79,319.3h48c27,0,34.8-18.88,41.84-48l37.12-160c5-23.78-13.54-50.31-56-51.27H1036.13L934.87,493.44H1053l78.29-338.16h66.13c31.65-.07,7.79,83.48-10.81,83.7h-49.88ZM911.9,60.1c42.38,1,60.94,27.49,55.36,51.27L891.67,436.06c-10.31,44-44.87,57.24-63.43,57.35H615c-55.75-1.43-55.75-57.1-49.28-81L635.85,110c14.83-58.24,77-50.27,89.1-49.92Z"/><path d="M767.48,155.92c-3.24-.35-23.33,0-28.34,25.67l-37.8,172.8c-3.45,13.69-8.21,46.11,13.51,47.93h56.71c5.16-.18,15.83-7.61,21.59-32.39L833,188.35c2.95-13.94.74-33.14-14.87-33.07l-50.62.64Z"/><path class="cls-2" d="M2053.31,118.13l-68.87,307.79c-13.22,64.43,52.41,67.42,70.22,67.49h239.61l46.61-89.74h-245l60-254.47h199.78l42.52-89.1H2141.7c-29-.35-74.38-5.65-88.39,58Zm-91.12,31.07,47.25-89.1H1422.86L1375,149.2h77.65L1375,493.44h115.41l83-344.24h97.21l-62.79,276.72c-12.8,64.43,52.8,67.42,70.86,67.49h203.84l46.57-89.74h-214l29.72-115.45h154.59l50-89.1H1809.66l-64.11,85.08,34.42-135Z"/></g></g></svg>