<svg xmlns="http://www.w3.org/2000/svg" viewBox="0 0 194.13 63.52"><defs><style>.cls-1,.cls-2{fill:#121212;}.cls-2{fill-rule:evenodd;}</style></defs><title>1_4L</title><g id="Layer_2" data-name="Layer 2"><g id="Layer_1-2" data-name="Layer 1"><path class="cls-1" d="M35.78,0V63.52H18.23V21.9A54.65,54.65,0,0,1,10,27.14,65.15,65.15,0,0,1,0,31V16.74q8.87-2.85,13.76-6.86A28,28,0,0,0,21.43,0Z"/><rect class="cls-1" x="56.36" y="46.14" width="18.53" height="17.38"/><path class="cls-2" d="M113.53,51.84H81.92V37.57L113.53,0h15.12V38.38h7.84V51.84h-7.84V63.52H113.53Zm0-13.46V18.73L96.83,38.38Z"/><polygon class="cls-2" points="144.71 1.06 164.01 1.06 164.01 48.14 194.13 48.14 194.13 63.52 144.71 63.52 144.71 1.06"/></g></g></svg>