<svg xmlns="http://www.w3.org/2000/svg" viewBox="0 0 194.13 64.58"><defs><style>.cls-1,.cls-2{fill:#121212;}.cls-1{fill-rule:evenodd;}</style></defs><title>1_6L</title><g id="Layer_2" data-name="Layer 2"><g id="Layer_1-2" data-name="Layer 1"><path class="cls-1" d="M35.78,0V63.52H18.23V21.9A54.65,54.65,0,0,1,10,27.14,65.15,65.15,0,0,1,0,31V16.74q8.87-2.85,13.76-6.86A28,28,0,0,0,21.43,0Z"/><rect class="cls-2" x="56.36" y="46.14" width="18.53" height="17.38"/><path class="cls-1" d="M133.93,15.12l-17.25,2.13a9.2,9.2,0,0,0-2.28-5.11,5.57,5.57,0,0,0-3.94-1.49q-4.21,0-6.56,4.26Q102.2,18,101.39,28a21.85,21.85,0,0,1,6.39-4.66,17.87,17.87,0,0,1,7.58-1.52,18.88,18.88,0,0,1,14.12,6q5.78,6,5.77,15.12a22.42,22.42,0,0,1-2.91,11.29,19,19,0,0,1-8.1,7.73,28.53,28.53,0,0,1-13,2.62q-9.37,0-15-3.19a22.47,22.47,0,0,1-9-10.21q-3.39-7-3.39-18.55,0-16.91,7.12-24.77T110.63,0q7.45,0,11.78,1.73a18.19,18.19,0,0,1,7.18,5A22.42,22.42,0,0,1,133.93,15.12ZM102,42.94c0,3.38.86,6,2.56,8a8.07,8.07,0,0,0,6.26,2.87,7.33,7.33,0,0,0,5.71-2.6q2.3-2.59,2.3-7.75c0-3.52-.79-6.21-2.38-8a7.51,7.51,0,0,0-5.93-2.77,7.9,7.9,0,0,0-6.07,2.68Q102,38,102,42.94Z"/><polygon class="cls-1" points="144.71 1.06 164.01 1.06 164.01 48.14 194.13 48.14 194.13 63.52 144.71 63.52 144.71 1.06"/></g></g></svg>