<svg xmlns="http://www.w3.org/2000/svg" viewBox="0 0 194.13 64.58"><defs><style>.cls-1,.cls-2{fill:#121212;}.cls-1{fill-rule:evenodd;}</style></defs><title>1_8L</title><g id="Layer_2" data-name="Layer 2"><g id="Layer_1-2" data-name="Layer 1"><path class="cls-1" d="M35.78,0V63.52H18.23V21.9A54.65,54.65,0,0,1,10,27.14,65.15,65.15,0,0,1,0,31V16.74q8.87-2.85,13.76-6.86A28,28,0,0,0,21.43,0Z"/><rect class="cls-2" x="56.36" y="46.14" width="18.53" height="17.38"/><path class="cls-1" d="M94.15,30a16.58,16.58,0,0,1-6-4.86,14.38,14.38,0,0,1-2.55-8.43q0-7.85,7.37-12.83Q98.75,0,108.2,0q12.52,0,18.51,4.77a14.76,14.76,0,0,1,6,12,14.21,14.21,0,0,1-2.39,7.89A19.64,19.64,0,0,1,124.69,30a17.47,17.47,0,0,1,7.56,6.43,16.44,16.44,0,0,1,2.49,8.86A18.43,18.43,0,0,1,132.59,54a17.51,17.51,0,0,1-5.28,6.28,21.54,21.54,0,0,1-7.8,3.26,45.79,45.79,0,0,1-9.94,1q-9.93,0-15.17-2.34a17.08,17.08,0,0,1-8-6.9,19.45,19.45,0,0,1-2.73-10.18,16.35,16.35,0,0,1,2.55-9.31A16.32,16.32,0,0,1,94.15,30Zm7.79-12.27a7,7,0,0,0,2,5.22,7.34,7.34,0,0,0,5.38,2,6.55,6.55,0,0,0,4.9-2,7,7,0,0,0,1.92-5.07,7.17,7.17,0,0,0-2-5.26,7.09,7.09,0,0,0-12.23,5.09ZM101,44.56a9.35,9.35,0,0,0,2.52,6.75,7.74,7.74,0,0,0,5.75,2.62,7.48,7.48,0,0,0,5.58-2.66,9.54,9.54,0,0,0,2.47-6.75,9.48,9.48,0,0,0-2.49-6.78,7.72,7.72,0,0,0-5.77-2.64,7.52,7.52,0,0,0-5.65,2.56A9.67,9.67,0,0,0,101,44.56Z"/><polygon class="cls-1" points="144.71 1.06 164.01 1.06 164.01 48.14 194.13 48.14 194.13 63.52 144.71 63.52 144.71 1.06"/></g></g></svg>