<svg xmlns="http://www.w3.org/2000/svg" viewBox="0 0 869.67 57.04"><defs><style>.cls-1{fill:#121212;fill-rule:evenodd;}</style></defs><title>Sonic-LTZ</title><g id="Layer_2" data-name="Layer 2"><g id="Layer_1-2" data-name="Layer 1"><path class="cls-1" d="M154.2,5.64l3.33-4.41c.33-.44.13-1.23-.41-1.23H68.68C50.84,0,37.78.48,26.84,17.7c-.07.14-.13.29-.2.44l-3,6.82-1.93,4.37a4.67,4.67,0,0,0,4.26,6.56H78.77c.67,0,1.07-1,.48-1.37L58.48,23.13c-2.39-1.32-3.33-2.45-1.92-5.12.32-.59,3.43-6.45,3.43-6.45a10.32,10.32,0,0,1,9.34-5.62h84.26A.73.73,0,0,0,154.2,5.64Z"/><path class="cls-1" d="M136.73,21.15H84c-.69,0-1.1,1.07-.5,1.4l20.73,11.37c2.4,1.31,3.34,2.45,1.92,5.12l-3.42,6.44a10.33,10.33,0,0,1-9.35,5.62h-89a.74.74,0,0,0-.6.29L.18,55.78C-.17,56.22,0,57,.57,57H94c17.83,0,30.9-.47,41.84-17.69.06-.15.13-.3.2-.44l3-6.83L141,27.72A4.67,4.67,0,0,0,136.73,21.15Z"/><path class="cls-1" d="M380.85,8.1l-25,39.08a.77.77,0,0,0,.65,1.18h19.22a.73.73,0,0,0,.64-.36l25-39.07a.77.77,0,0,0-.65-1.19H381.49A.73.73,0,0,0,380.85,8.1Z"/><path class="cls-1" d="M413.32,48.72h58.12a.76.76,0,0,0,.68-.39l1.58-2.83a.81.81,0,0,0-.64-1.16c-.9-.14-24.77-.17-41.32-.08-8.23,0-10.67-.57-8-7.57,2.44-6.39,8.82-17.19,13.75-22,2.3-2.24,5-2.85,12.49-2.85h41.94c.29,0,.51.1.65-.15l1.58-2.83a.78.78,0,0,0-.68-1.16H435.23q-15.25,0-20,7.12c-5.31,8-12.06,17.32-14.79,25.69C397.58,49.34,403.1,48.72,413.32,48.72Z"/><path class="cls-1" d="M219,48.4a13.25,13.25,0,0,0,11.45-6.3l18.49-29a3.5,3.5,0,0,0-3-5.38l-15.58.06h-58a8.43,8.43,0,0,0-7.29,4l-20.5,31.9a3,3,0,0,0,2.61,4.7Zm-27.61-4.19h7.46l6.29-.07a6.79,6.79,0,0,0,5.81-3.2L226.6,16.68A3.11,3.11,0,0,0,224,11.89H188.86a6.9,6.9,0,0,0-5.68,3.41L167.71,39.4a3.21,3.21,0,0,0,2.6,4.81Z"/><path class="cls-1" d="M334.65,47,359.14,8.92a.78.78,0,0,0-.65-1.2H347a.75.75,0,0,0-.65.36l-20.07,31.4a2.06,2.06,0,0,1-3.47-.14L308.06,11.87l-2-3.73a.75.75,0,0,0-.68-.42H272.9a.75.75,0,0,0-.65.36l-1.71,2.66L247.19,47.18a.77.77,0,0,0,.65,1.19h11.49A.76.76,0,0,0,260,48L278.9,18.61a2.06,2.06,0,0,1,3.46.13l15.45,28.12a2.84,2.84,0,0,0,2.55,1.51H332.2A2.82,2.82,0,0,0,334.65,47Z"/><polygon class="cls-1" points="583.62 39.03 603.09 8.18 575.71 8.18 550.04 48.86 551.61 48.86 579.32 48.86 636.75 48.86 642.95 39.03 583.62 39.03"/><polygon class="cls-1" points="714.56 17.6 751.88 17.6 757.83 8.18 654.59 8.18 648.64 17.6 687.19 17.6 667.47 48.86 694.84 48.86 714.56 17.6"/><polygon class="cls-1" points="785.83 39.23 786.61 39.23 863.56 17.86 869.67 8.18 765.65 8.18 759.54 17.86 823.78 17.86 822.55 17.86 746.05 39.23 739.98 48.86 844 48.86 850.07 39.23 785.83 39.23"/></g></g></svg>