<svg xmlns="http://www.w3.org/2000/svg" viewBox="0 0 801.8 57.1"><defs><style>.cls-1,.cls-2{fill-rule:evenodd;}.cls-2{fill:#121212;}</style></defs><title>Sonic-RS</title><g id="Layer_2" data-name="Layer 2"><g id="Layer_1-2" data-name="Layer 1"><path class="cls-1" d="M665.15,55.12a6.78,6.78,0,0,0,4.48,2h74.64c10.22,0,24.73-.59,32.54-5.25a10.1,10.1,0,0,0,4.43-5.11l7.37-13.41a7.06,7.06,0,0,0,.23-7.31c-3-5.56-10-6.2-14.31-6.14H715l1.32-2a22.76,22.76,0,0,1,12.21-2.27h65.56a3.19,3.19,0,0,0,2.72-1.26L801.27,8c1.22-1.75.26-4.67-2.15-6.52A6.54,6.54,0,0,0,795.26,0H724.43q-8.68,0-17.07.72c-8.68.64-17.94,3-22.27,9.57l-1.47,2.44C680.76,6,672.83,1.76,666.35.92,661.58.38,656.86.08,652.22,0H580.29a3.11,3.11,0,0,0-2.84,1.47L555.26,40.05l-4.87,9.4c-1,1.91.24,4.83,2.75,6.5a6.36,6.36,0,0,0,3.45,1.14h22.16a3.12,3.12,0,0,0,2.84-1.45l4.5-7.71a3.19,3.19,0,0,0,.4-1.81l6.32-10.48h33.36L634.09,53a7.24,7.24,0,0,0,6.07,4.14h21.91A3,3,0,0,0,665.15,55.12Zm12.92-25a10.23,10.23,0,0,0,2.81,3,12.29,12.29,0,0,0,3.9,1.84,44.35,44.35,0,0,0,6.34.77H751.6L749.19,40c-1,1.23-4.89,1.54-7.12,1.55l-70-.09a3.3,3.3,0,0,0-2.52,1l-5.74,6.39a2.18,2.18,0,0,0-.26.34l-6.14-13.4C665.18,36,674,35.47,678.07,30.07ZM648.18,15.6l2.11.32-.81,1.5c-1.13,1.92-4.34,2.46-7,2.44H602.16L605,15.6ZM646.78,11H601.42l-1.93,3-6.93,10.46H644q7.65,0,9.94-3.9l3.44-6.39Q653.9,11.53,646.78,11Zm-28,20H589.2l-7.62,12.59-.13.26a1.39,1.39,0,0,0,.15.89l-4.49,7.71H554.94l4.87-9.39L581.94,4.61h71.85q7.73.18,13.66.89,7.86,1.59,10.91,6c.44.94.84,1.83,1.22,2.65L673.8,26.6Q671,31,659.35,31.21h-8.67l9.75,21.27H638.52L628.69,31ZM753.54,43.44,760.34,31H689.76q-10.46,0-7.27-5.85l7-11.53q4.83-7.26,19.89-8.33c5.38-.47,11-.71,16.74-.71h70.84L792.44,11H727.21q-9.59-.35-14.93,3l-6.93,10.46h70.58q11.48,0,8.21,5.67L778.48,40.6l-1.85,3.2q-2.77,8.69-34,8.68H668l5.74-6.38h27l43,.09q7.72-.09,9.48-2.39Z"/><path class="cls-2" d="M154.2,5.66l3.33-4.41c.33-.43.13-1.22-.41-1.22H68.68C50.84,0,37.78.5,26.84,17.72c-.07.15-.13.3-.2.44l-3,6.83-1.93,4.36a4.67,4.67,0,0,0,4.26,6.57H78.77c.67,0,1.07-1.05.48-1.37L58.48,23.15c-2.39-1.31-3.33-2.45-1.92-5.12.32-.59,3.43-6.44,3.43-6.44A10.32,10.32,0,0,1,69.33,6h84.26A.74.74,0,0,0,154.2,5.66Z"/><path class="cls-2" d="M136.73,21.18H84c-.69,0-1.1,1.06-.5,1.39L104.19,34c2.4,1.31,3.34,2.44,1.92,5.11l-3.42,6.45a10.33,10.33,0,0,1-9.35,5.62h-89a.74.74,0,0,0-.6.29L.18,55.81c-.35.43-.16,1.26.39,1.26H94c17.83,0,30.9-.48,41.84-17.7l.2-.44,3-6.82L141,27.74A4.67,4.67,0,0,0,136.73,21.18Z"/><path class="cls-2" d="M380.85,8.12l-25,39.09a.77.77,0,0,0,.65,1.18h19.22a.72.72,0,0,0,.64-.35L401.36,9a.77.77,0,0,0-.65-1.18H381.49A.74.74,0,0,0,380.85,8.12Z"/><path class="cls-2" d="M413.32,48.75h58.12a.75.75,0,0,0,.68-.4l1.58-2.83a.8.8,0,0,0-.64-1.15c-.9-.14-24.77-.17-41.32-.09-8.23,0-10.67-.57-8-7.56,2.44-6.4,8.82-17.19,13.75-22,2.3-2.24,5-2.84,12.49-2.84h41.94c.29,0,.51.1.65-.16l1.58-2.82a.78.78,0,0,0-.68-1.16H435.23q-15.25,0-20,7.12c-5.31,8-12.06,17.32-14.79,25.69C397.58,49.37,403.1,48.75,413.32,48.75Z"/><path class="cls-2" d="M219,48.42a13.22,13.22,0,0,0,11.45-6.3l18.49-29a3.5,3.5,0,0,0-3-5.38l-15.58.06h-58a8.41,8.41,0,0,0-7.29,4l-20.5,31.9a3,3,0,0,0,2.61,4.69Zm-27.61-4.18h7.46l6.29-.07A6.83,6.83,0,0,0,211,41L226.6,16.71A3.11,3.11,0,0,0,224,11.92H188.86a6.89,6.89,0,0,0-5.68,3.4L167.71,39.43a3.21,3.21,0,0,0,2.6,4.81Z"/><path class="cls-2" d="M334.65,47.06,359.14,9a.78.78,0,0,0-.65-1.2H347a.75.75,0,0,0-.65.36L326.24,39.5a2.06,2.06,0,0,1-3.47-.13L308.06,11.89l-2-3.73a.75.75,0,0,0-.68-.41H272.9a.75.75,0,0,0-.65.36l-1.71,2.65L247.19,47.2a.78.78,0,0,0,.65,1.2h11.49A.76.76,0,0,0,260,48l18.91-29.4a2.06,2.06,0,0,1,3.46.13l15.45,28.11a2.84,2.84,0,0,0,2.55,1.51H332.2A2.82,2.82,0,0,0,334.65,47.06Z"/></g></g></svg>