<svg xmlns="http://www.w3.org/2000/svg" viewBox="0 0 441.21 62.93"><defs><style>.cls-1,.cls-2{fill:#121212;}.cls-2{fill-rule:evenodd;}</style></defs><title>3_0L-V6</title><g id="Layer_2" data-name="Layer 2"><g id="Layer_1-2" data-name="Layer 1"><path class="cls-1" d="M0,48.07V62.45H34q9.45,0,14.46-.16t8.42-.59a23.6,23.6,0,0,0,5.68-1.35,13.71,13.71,0,0,0,4.17-2.67,12.62,12.62,0,0,0,1.87-2.1,8.05,8.05,0,0,0,1.07-2.42,20.47,20.47,0,0,0,.6-3.66c.13-1.48.2-3.39.2-5.72a28.14,28.14,0,0,0-.32-4.53,8.53,8.53,0,0,0-1.39-3.46,9,9,0,0,0-3.26-2.7,19.92,19.92,0,0,0-5.76-1.78c-1-.16-1.51-.3-1.51-.4s0-.08.16-.08l.79-.24A24.13,24.13,0,0,0,65,28.72a7.55,7.55,0,0,0,3-2.46,7.4,7.4,0,0,0,1.16-2.94,31,31,0,0,0,.23-4.25V18c0-2.33,0-4.19-.15-5.57a14.54,14.54,0,0,0-.56-3.25,6.51,6.51,0,0,0-1.07-2,16.88,16.88,0,0,0-2-1.95,15.88,15.88,0,0,0-4-2.7,19,19,0,0,0-5.33-1.39A76.2,76.2,0,0,0,48.39.52Q43.69.4,34,.4,30.67.4,17.08.32H5.48C3.26.32,1.43.34,0,.4v14H44.1a11.79,11.79,0,0,1,5.24,1,4,4,0,0,1,2.07,3.78A5.79,5.79,0,0,1,50,23.44q-1.4,1.35-5.6,1.35H12.87V37.26H45.05c2.6,0,4.46.41,5.6,1.24a4.25,4.25,0,0,1,1.71,3.69c0,2.28-.42,3.83-1.27,4.65s-3,1.23-6.36,1.23Z"/><rect class="cls-1" x="77.31" y="45.77" width="18.12" height="16.69"/><path class="cls-2" d="M177.1,31.7c0-1.53,0-3.48-.15-5.84s-.24-4.86-.4-7.51a23.54,23.54,0,0,0-1.35-6.75,13.59,13.59,0,0,0-3.26-5.32A17.88,17.88,0,0,0,167.45,3a20.32,20.32,0,0,0-5.56-1.67,62.39,62.39,0,0,0-8.26-.71q-5-.16-14.19-.16T125.26.64a63.4,63.4,0,0,0-8.3.71A20.31,20.31,0,0,0,111.36,3a17.88,17.88,0,0,0-4.49,3.26,14.4,14.4,0,0,0-3.22,5.32,22.33,22.33,0,0,0-1.39,6.75c-.16,2.65-.29,5.16-.4,7.51s-.16,4.31-.16,5.84.06,3.56.16,5.92.24,4.84.4,7.43a25.49,25.49,0,0,0,1.43,6.79,13.17,13.17,0,0,0,3.18,5.29,18.13,18.13,0,0,0,4.49,3.26,20.33,20.33,0,0,0,5.56,1.66,63.17,63.17,0,0,0,8.14.72q4.84.16,14.38.16t14.34-.16a62.34,62.34,0,0,0,8.15-.72,20.35,20.35,0,0,0,5.52-1.66,18.13,18.13,0,0,0,4.49-3.26,12.84,12.84,0,0,0,3.26-5.29,23.87,23.87,0,0,0,1.35-6.79q.24-3.88.4-7.43T177.1,31.7Zm-17.95-7.23c.1,1.59.18,2.93.24,4s.08,2.14.08,3.14,0,2-.08,3.06-.14,2.43-.24,4a12.65,12.65,0,0,1-.72,3.58,6.79,6.79,0,0,1-1.75,2.86,11.4,11.4,0,0,1-2.38,1.75,9.26,9.26,0,0,1-2.94.91,33.58,33.58,0,0,1-4.33.36q-2.58.08-7.67.08t-7.7-.08a32.8,32.8,0,0,1-4.33-.36,9.78,9.78,0,0,1-2.94-.91A11.39,11.39,0,0,1,122,45.13a7.54,7.54,0,0,1-1.67-2.82,12.37,12.37,0,0,1-.71-3.62c-.11-1.21-.19-2.46-.24-3.73s-.08-2.38-.08-3.34,0-2.14.08-3.41.13-2.52.24-3.74a12.3,12.3,0,0,1,.71-3.61A7.38,7.38,0,0,1,122,18a11,11,0,0,1,2.39-1.75,9.27,9.27,0,0,1,3-.92A36.83,36.83,0,0,1,131.7,15c1.72-.06,4.27-.08,7.66-.08s6,0,7.71.08a34.86,34.86,0,0,1,4.33.35,9.77,9.77,0,0,1,2.94.92A9.16,9.16,0,0,1,156.68,18a6.73,6.73,0,0,1,1.75,2.86A12.59,12.59,0,0,1,159.15,24.47Z"/><polygon class="cls-2" points="202.13 47.35 202.13 0 182.67 0 182.67 62.45 183.78 62.45 203.48 62.45 244.32 62.45 244.32 47.35 202.13 47.35"/><polygon class="cls-2" points="317.1 46.8 292.15 0 270.54 0 304.55 62.21 329.42 62.21 363.66 0 342.05 0 317.1 46.8"/><path class="cls-2" d="M417.93,37.34H418a8,8,0,0,1,5,1.71,5.11,5.11,0,0,1,2.22,4.17,5,5,0,0,1-2.3,4.41,9.15,9.15,0,0,1-5.25,1.55H394a9.15,9.15,0,0,1-5.25-1.55,5,5,0,0,1-2.3-4.41,5.33,5.33,0,0,1,2.3-4.17,7.92,7.92,0,0,1,4.93-1.71h24.23Zm-30.75-13.9a17.43,17.43,0,0,1,.56-5,4.53,4.53,0,0,1,1.79-2.54,7.1,7.1,0,0,1,3.17-1c1.3-.13,3.22-.2,5.77-.2h27.09l13.75.08V.4H392.9a47.79,47.79,0,0,0-10.17,1,18.94,18.94,0,0,0-7.27,3.18,13.93,13.93,0,0,0-4.53,6,24.93,24.93,0,0,0-1.54,9.41V44.57a24.25,24.25,0,0,0,1.07,7.12,9.75,9.75,0,0,0,3.3,5.2,28.43,28.43,0,0,0,4.84,3.18,20.8,20.8,0,0,0,5.4,1.71,62.91,62.91,0,0,0,8.07.83q4.89.24,13.39.24h.08q8.65,0,13.82-.16a68.7,68.7,0,0,0,8.42-.68,20.2,20.2,0,0,0,5.41-1.51,15.65,15.65,0,0,0,4.05-2.74,10.79,10.79,0,0,0,3-5.48,41.21,41.21,0,0,0,.87-9.53h.08a37,37,0,0,0-1.07-9.62c-.72-2.59-1.68-4.37-2.9-5.32a15.72,15.72,0,0,0-4-2.27,26.8,26.8,0,0,0-5.64-1.31,85.5,85.5,0,0,0-8.74-.63q-5.3-.17-13.71-.16Z"/></g></g></svg>