<svg xmlns="http://www.w3.org/2000/svg" viewBox="0 0 260.39 83.23"><defs><style>.cls-1{fill-rule:evenodd;}</style></defs><title>Bow_Tie_Logo</title><g id="Layer_2" data-name="Layer 2"><g id="Layer_1-2" data-name="Layer 1"><path class="cls-1" d="M130.2,0H88.54l-.06,17.86.07,0-.07,0v.05H25.18L.06,66H.15L0,66.07l88.4,0,.08-.08V83.23h83.38l0-17.86-.07,0,.07,0v-.05h63.3l25.12-48.1h-.09l.15-.06-88.4,0-.08.08V0Zm0,74.08H98V56.76H26.28L43,26.5l0,0H98V9.19h0v0h64.31V26.47h71.76l-16.7,30.26,0,0h-55V74h0v0Z"/></g></g></svg>