<svg xmlns="http://www.w3.org/2000/svg" viewBox="0 0 430.76 72"><defs><style>.cls-1,.cls-2{fill:#121212;}.cls-1{fill-rule:evenodd;}</style></defs><title>Malibu</title><g id="Layer_2" data-name="Layer 2"><g id="Layer_1-2" data-name="Layer 1"><path class="cls-1" d="M40.34,29.1,16,0H0V72H15.47V23.8L40.34,53.3q6-7.12,12.36-14.73T65.12,23.7V72H80.69V0H64.62Z"/><path class="cls-1" d="M107.66,0A14.73,14.73,0,0,0,92.89,14.77V72h15.47V48.83h40.76V72h15.67V14.77a14.66,14.66,0,0,0-4.37-10.45A14.83,14.83,0,0,0,149.92,0Zm.7,33.26V15.57h40.76V33.26Z"/><polygon class="cls-1" points="176.29 72 248.19 72 248.19 56.43 191.75 56.43 191.75 0 176.29 0 176.29 72"/><rect class="cls-2" x="254.09" width="15.57" height="72"/><path class="cls-1" d="M345.37,14.77A14.82,14.82,0,0,0,330.6,0H276.26V72h57a14.87,14.87,0,0,0,10.51-4.32,14.61,14.61,0,0,0,4.36-10.45V42.34a14.12,14.12,0,0,0-1-5,16.86,16.86,0,0,0-2.5-4.35,10,10,0,0,0,.54-2.15,17.45,17.45,0,0,0,.16-2.44ZM291.73,43.23H332.5v13.2H291.73Zm0-27.66h38v12.1h-38Z"/><path class="cls-1" d="M374.33,0H358.86V57.23A14.75,14.75,0,0,0,373.63,72H416a14.8,14.8,0,0,0,14.77-14.77V0H415.1V56.43H374.33Z"/></g></g></svg>