<svg xmlns="http://www.w3.org/2000/svg" viewBox="0 0 648.87 72.01"><defs><style>.cls-1,.cls-2{fill:#121212;}.cls-1{fill-rule:evenodd;}</style></defs><title>Malibu-LS</title><g id="Layer_2" data-name="Layer 2"><g id="Layer_1-2" data-name="Layer 1"><path class="cls-1" d="M40.34,29.1,16,0H0V72H15.47V23.8L40.34,53.3q6-7.12,12.36-14.73T65.12,23.7V72H80.69V0H64.62Z"/><path class="cls-1" d="M107.66,0A14.73,14.73,0,0,0,92.89,14.77V72h15.47V48.83h40.76V72h15.67V14.77a14.66,14.66,0,0,0-4.37-10.45A14.83,14.83,0,0,0,149.92,0Zm.7,33.26V15.57h40.76V33.26Z"/><polygon class="cls-1" points="176.29 72 248.19 72 248.19 56.43 191.75 56.43 191.75 0 176.29 0 176.29 72"/><rect class="cls-2" x="254.09" width="15.57" height="72"/><path class="cls-1" d="M345.37,14.77A14.82,14.82,0,0,0,330.6,0H276.26V72h57a14.87,14.87,0,0,0,10.51-4.32,14.61,14.61,0,0,0,4.36-10.45V42.34a14.12,14.12,0,0,0-1-5,16.86,16.86,0,0,0-2.5-4.35,10,10,0,0,0,.54-2.15,17.49,17.49,0,0,0,.16-2.45ZM291.73,43.23H332.5v13.2H291.73Zm0-27.66h38v12.1h-38Z"/><path class="cls-1" d="M374.33,0H358.86V57.23A14.75,14.75,0,0,0,373.63,72H416a14.8,14.8,0,0,0,14.77-14.77V0H415.1V56.43H374.33Z"/><polygon class="cls-1" points="507.52 54.6 507.52 0.01 485.08 0.01 485.08 72.01 486.36 72.01 509.08 72.01 556.16 72.01 556.16 54.6 507.52 54.6"/><path class="cls-1" d="M645.93,36q-4-6.78-14.1-7.33c-1.28-.12-2.9-.23-4.86-.32L619.78,28q-4.26-.2-15.25-.55-8-.28-9.62-.37h-3.75a17.32,17.32,0,0,1-6.87-1.1q-2.47-1.1-2.48-4.58a5.58,5.58,0,0,1,.78-3.11,4.89,4.89,0,0,1,2.06-1.79,9.07,9.07,0,0,1,2.75-.78,27.34,27.34,0,0,1,3.3-.18h55.51V0H578.7q-10,0-14.29,5.58T560.1,22.36q0,9.06,3.12,13.65,4.39,6.14,14.56,6.68c1.35.13,3,.23,4.86.32s3.91.19,6,.28,7.42.29,15.85.59q8.06.28,9.8.37c1.89,0,3.5,0,4.81.14a15.59,15.59,0,0,1,3.8.73,6.54,6.54,0,0,1,3,1.92,5.26,5.26,0,0,1,1.14,3.53,5.4,5.4,0,0,1-.82,3.12,5.08,5.08,0,0,1-2.2,1.78,10.21,10.21,0,0,1-3,.78,31.55,31.55,0,0,1-3.52.18H562V72h65q11.46,0,16.63-5.23t5.18-16.85Q648.87,41.59,645.93,36Z"/></g></g></svg>