<svg xmlns="http://www.w3.org/2000/svg" viewBox="0 0 955.34 404.7"><defs><style>.cls-1{fill:#121212;}</style></defs><title>100th</title><g id="Layer_2" data-name="Layer 2"><g id="Layer_1-2" data-name="Layer 1"><path class="cls-1" d="M542,190.31V155.57a59.51,59.51,0,0,1,59.51-59.51h24.82L699,14.88C706.34,6.66,705.63,0,697.42,0H544.17C536,0,523.34,6.66,516,14.88L443.34,96.06h.58a59.51,59.51,0,0,1,59.51,59.51v77.86Z"/><path class="cls-1" d="M438.64,305.84h-183l-75.14,84c-7.35,8.22-6.65,14.88,1.57,14.88H335.31c8.22,0,20.84-6.66,28.19-14.88Z"/><path class="cls-1" d="M284.78,273.28a29.61,29.61,0,0,0,12.63,2.81h75.8A29.76,29.76,0,0,0,403,246.33V155.57a29.71,29.71,0,0,0-2.4-11.71Z"/><path class="cls-1" d="M689.91,305.84H601.52a59.54,59.54,0,0,1-56.93-42.12L431.77,389.82c-7.36,8.22-6.65,14.88,1.56,14.88H586.58c8.21,0,20.83-6.66,28.19-14.88Z"/><path class="cls-1" d="M694.61,96.06H818.74a59.33,59.33,0,0,1,42.71,18.07l88.8-99.25C957.6,6.66,956.9,0,948.68,0H795.44c-8.22,0-20.84,6.66-28.19,14.88Z"/><path class="cls-1" d="M642.5,154.3c0,.42,0,.85,0,1.27v90.76a29.77,29.77,0,0,0,29.76,29.76h44.3l61.26-68.47V155.57A29.75,29.75,0,0,0,748,125.82h-75.8a31.18,31.18,0,0,0-4.56.34Z"/><path class="cls-1" d="M217.42,305.12c15.3-17.3,32.36-36.55,50.3-56.74,0-.68-.07-1.36-.07-2V155.57a29.75,29.75,0,0,1,29.76-29.75h75.8a30.69,30.69,0,0,1,3.48.2c9.19-10.29,18.14-20.33,26.75-30H226.7a59.51,59.51,0,0,0-59.51,59.51v90.76A59.52,59.52,0,0,0,217.42,305.12Z"/><path class="cls-1" d="M876.49,141.15c-31.31,35.29-66.18,74.46-99.43,111.74a29.79,29.79,0,0,1-19.21,21.54l-28,31.41h88.93a59.51,59.51,0,0,0,59.51-59.51V155.57A59.63,59.63,0,0,0,876.49,141.15Z"/><path class="cls-1" d="M93.73,96.06H0v29.76H.48a24.32,24.32,0,0,1,24.23,24.23v126a29.76,29.76,0,0,0,29.76,29.75h54.14A14.88,14.88,0,0,0,123.49,291V125.82A29.75,29.75,0,0,0,93.73,96.06Z"/></g></g></svg>