<svg xmlns="http://www.w3.org/2000/svg" viewBox="0 0 1503.62 271.04"><defs><style>.cls-1{fill:#121212;fill-rule:evenodd;}</style></defs><title>392-Logo</title><g id="Layer_2" data-name="Layer 2"><g id="Layer_1-2" data-name="Layer 1"><path class="cls-1" d="M479.05,0H127.81a8.62,8.62,0,0,0-8,5L104.7,36.8A5.05,5.05,0,0,0,109.26,44H357.91c9.92,0,23.85,11,19.66,20l-5.22,21.83c-7,15-11.15,23-37.57,24H152.92a8.63,8.63,0,0,0-8,5.09L129.78,147.4a5,5,0,0,0,4.57,7.17H321.64c10.25,0,17.26,11.84,12.33,20.83l-15.73,25.09C310.75,214.15,286.62,222,271,222H26.85A8.62,8.62,0,0,0,19,226.87L.54,263.53a5.05,5.05,0,0,0,4.51,7.31H346.24c28.06,0,66.67-13.95,81.64-37.69C464,176,510.13,59.87,512.52,42,515.25,21.59,509.55,0,479.05,0Z"/><path class="cls-1" d="M1463.1,0H1174.63c-29.19,0-54,15.85-66.25,42.33l-7.61,16.45a6.47,6.47,0,0,0,5.87,9.19h99.8a11.55,11.55,0,0,0,9-4.16l5.2-6.06a31.87,31.87,0,0,1,25.09-11.5l112.4.19c13.33,0,17.09,21.84,4.53,26.32L1074.39,175.65c-19.17,6.84-33.27,19-42.83,37l-26.3,49.48a5.93,5.93,0,0,0,5.23,8.71H1386c3.54,0,8.15,1.15,9.63-2.07,2.11-4.61,7.62-16.66,15.08-32.84,3-6.49,4.3-13.92-2.84-13.92H1191.6c-11.48,0-19.86-18.65-9.14-22.74l250.24-95.6c36.13-13.8,67.94-32.86,70.84-71.42C1504.78,15.89,1491.43,0,1463.1,0Z"/><path class="cls-1" d="M987.84,0h-322c-29.19,0-57.94,15.85-70.2,42.33L561.1,125.46c-6.29,13.59,7.58,29.11,22.56,29.11H825.24c7.24,0,12.11,8.51,8.46,14.75L822,189.22c-12.33,21-32.84,32.79-57.23,32.79H531.55a9.56,9.56,0,0,0-8.88,5.67l-15.38,33.21a7,7,0,0,0,6.36,9.95H850.87c36.69,0,67.86-19.93,83.26-53.22L1015.38,42C1024,23.31,1010.29,0,987.84,0ZM863.07,41.93H745.26c-11.87,0-26,9.63-31.5,21.51L703,86.69c-5.53,11.87-.38,21.5,11.5,21.5h126.7c11.88,0,21.22-4.54,26.74-16.42l11.45-26.11C884.86,53.78,875,41.93,863.07,41.93Z"/></g></g></svg>