<svg xmlns="http://www.w3.org/2000/svg" viewBox="0 0 763.67 103.8"><defs><style>.cls-1{fill:#121212;fill-rule:evenodd;}</style></defs><title>485HP</title><g id="Layer_2" data-name="Layer 2"><g id="Layer_1-2" data-name="Layer 1"><path class="cls-1" d="M86.16,103.8l8.43-23.16H0L11.26,49.71,123.92.06h41.24L144.55,56.69l18.55-.16-8.78,24.11H136.68l-8.43,23.16Zm17.21-47.27,9.87-27.13L53.63,56.53Z"/><path class="cls-1" d="M230.36.06h66.43q12.73,0,19.51,5.86a22.41,22.41,0,0,1,5.56,6.59q1.53,3.09-.15,7.69l-5,13.89A39,39,0,0,1,308,43.4a60.52,60.52,0,0,1-8.55,5.37q-1.83.94-5.17,2.52c1.43.75,2.49,1.34,3.19,1.76a15.3,15.3,0,0,1,4.65,4.17A17.26,17.26,0,0,1,304.87,63a15.88,15.88,0,0,1,.16,4.8l-5.12,14.09a19.79,19.79,0,0,1-6,8.4,62.79,62.79,0,0,1-11.36,7.29,51.67,51.67,0,0,1-18.92,5.92H194.42a73.62,73.62,0,0,1-12.66-1.09A22.39,22.39,0,0,1,172,98.63q-4.58-3.76-5.39-8.22t1.52-10.88l4.46-12.27a26,26,0,0,1,4.16-5.57A37.84,37.84,0,0,1,183,56.75a58.87,58.87,0,0,1,8.52-4.14c.64-.21,1.54-.53,2.68-1q-2.35-1.12-4.84-2.47a9.69,9.69,0,0,1-3.45-2.79q-3.93-4.93-1.33-12.1l5.1-14a21.72,21.72,0,0,1,6.1-8.6,49.73,49.73,0,0,1,10.68-7.17q3.18-1.74,11.8-3.26T230.36.06ZM277,27.5H228.51l-5.09,14h48.47ZM264.38,62.08H215.92l-5.78,15.86h48.47Z"/><path class="cls-1" d="M344.35.06H464.66l-10,27.44H376.45l-5.37,14.75h63.56q10.94,2.07,14.54,9.68A19.74,19.74,0,0,1,451,57.16a11,11,0,0,1-.8,5.4l-6.87,18.87q-2.82,7.77-12.15,14.12a52.23,52.23,0,0,1-11.6,6.19,35.48,35.48,0,0,1-12.23,2.06H306.59l10-27.44h84l4.39-12.06H321Z"/><polygon class="cls-1" points="622.17 0.06 584.41 103.8 542.33 103.8 557.63 61.76 504.91 61.76 489.61 103.8 447.52 103.8 485.28 0.06 527.37 0.06 513.05 39.4 565.77 39.4 580.08 0.06 622.17 0.06"/><path class="cls-1" d="M635.35.06h104.8q11.26,0,18.74,6.33,4.29,3.94,4.72,8.62T761.5,26.65l-7,19.3q-2.93,8.09-12.7,15a47.85,47.85,0,0,1-15.32,7.36,72.48,72.48,0,0,1-18.05,2H651.86L639.68,103.8H597.59ZM659.77,48.6h50l7.68-21.1H667.45Z"/></g></g></svg>