<svg xmlns="http://www.w3.org/2000/svg" viewBox="0 0 686.06 135.66"><defs><style>.cls-1,.cls-2{fill:#121212;}.cls-2{fill-rule:evenodd;}</style></defs><title>6_2L</title><g id="Layer_2" data-name="Layer 2"><g id="Layer_1-2" data-name="Layer 1"><path class="cls-1" d="M510.24,1.53Q440,2,370.34,2.33c-14,.06-26.94,7.89-34.43,20.9l-4.65,8.08c-1.21,2.11,0,4.51,2.26,4.5l48-.21a6.34,6.34,0,0,0,4.62-2.06l2.88-3a17.52,17.52,0,0,1,12.82-5.7l54.44-.2c6.47,0,7,10.67.59,12.91q-73,25.62-145.35,51.1a43.41,43.41,0,0,0-22.72,18.2Q281,119,273.29,131.15c-1.24,1.94-.16,4.27,2,4.26q89.88-.25,180.8-.68c1.73,0,3.89.55,4.81-1,1.3-2.28,4.72-8.2,9.34-16.17,1.85-3.19,3-6.84-.53-6.82Q417.2,111,365,111.2c-5.52,0-8.43-9.11-3-11.14q63.27-23.72,127-47.52c18.46-6.89,35.17-16.35,39-35.3C529.61,9.2,524.07,1.44,510.24,1.53Z"/><path class="cls-2" d="M12.36,135.47q75,.18,150.92.19A42.15,42.15,0,0,0,199,114.89q10.66-20.37,21.36-40.75c3.8-6.66-1.87-14.26-9-14.24Q154.16,60,97.35,60c-3.4,0-5.18-4.17-3.1-7.22L100.9,43c7-10.3,17.36-16.05,28.84-16.05q55,0,110.49-.17A5.31,5.31,0,0,0,244.8,24q4.65-8.14,9.32-16.29c1.3-2.28,0-4.87-2.44-4.87q-80.19.21-159.52.23c-17.19,0-32.94,9.73-42.09,26C38.87,49,2,114.9,2,114.9-3.09,124,1.93,135.43,12.36,135.47ZM73,115.08c-5.55,0-9.49-5.81-6.22-11.62l6.89-12.77c3.28-5.8,7.93-8,13.49-8q29.73,0,59.58,0c5.61,0,7.47,4.72,4.16,10.53l-6.48,11.39c-3.31,5.82-10.53,10.53-16.12,10.53Q100.6,115.12,73,115.08Z"/><path class="cls-2" d="M266.32,103.38l-37.69.08c-3.38,0-7.7,2.84-9.66,6.33q-5.44,9.76-10.91,19.52c-1.95,3.49-.79,6.31,2.58,6.31l37.62-.06c3.39,0,7.73-2.84,9.69-6.34q5.48-9.77,11-19.53C270.88,106.2,269.72,103.37,266.32,103.38Z"/><path class="cls-2" d="M612.61,0c-17,35.82-34.18,72.38-51.16,108.18,41.44-.28,82.88.18,124.61-.13l-12.24,26.12c-62.15.44-123.83.09-185.32.45C509.43,90.16,530.58,44.74,551.6.25,571.91.11,592.22.15,612.61,0Z"/></g></g></svg>