<svg xmlns="http://www.w3.org/2000/svg" viewBox="0 0 3415.7 623.27"><defs><style>.cls-1{fill:#121212;fill-rule:evenodd;}</style></defs><title>AirGrabber-SP-Bee-Solid</title><g id="Layer_2" data-name="Layer 2"><g id="Layer_1-2" data-name="Layer 1"><path class="cls-1" d="M0,106.71l193.42,69,51,199.42L84,424.59l167.93,3,15,73.47-45,46.48,160.44-73.47-13.5-55.48,52.48-6,18,34.49,88.46-24L331.37,132.2Zm299.88,99,10.5-3,75,142.44-46.48,12Z"/><polygon class="cls-1" points="382.35 145.7 544.29 394.6 632.75 381.11 494.81 144.2 382.35 145.7"/><path class="cls-1" d="M830.73,357.55c-9.61-27.41-18.57-73.63,9-113.54a89.67,89.67,0,0,1-39.6-70.24A130.38,130.38,0,0,0,755.7,153.2c-33.77-8.45-226.41-7.5-226.41-7.5l132,229.41,90-9-43.48-81,111,73.47ZM658.24,195.18s69-9,87,27-57,30-57,30Z"/><path class="cls-1" d="M1260.37,150.81l-1.3,24.81a88.59,88.59,0,0,1-4.75,20.18,39.85,39.85,0,0,1,9.63,8.35c7.53,11.44,10.92,24.65-1.83,34.9a225.06,225.06,0,0,1,34.31,35.7c18.67,22.48,34.86,43.21,42.12,70.37h214.84v-111H1416.94v40.49h51v31.49h-55.48c-81,0-81-118.46-13.49-118.46,33.06,0,154.44-1.5,154.44-1.5v-48H1307.48A100.34,100.34,0,0,0,1260.37,150.81Z"/><path class="cls-1" d="M1580.38,150.2V330.13h84l1.48-73.48,57,75h194.93l13.49-27,76.47,3v31.49l91.46,7.5,9-190.43-205.42-3-75,172.43-48-55.48c36.85-15.28,52.23-32.17,60.79-48.34,20-37.79-17.29-71.61-48.8-71.61Zm87,37.48h64.48c34.48,0,34.61,43.48,0,43.48h-64.48Zm281.89,79.47,37.49-79.47h22.49v79.47Z"/><path class="cls-1" d="M2159.15,154.69l-49.48,193.43,188.14,16.42c42,6,98.25-50.91,71.26-100.39,85.46-84,13.49-108,13.49-108Zm83.49,49.15h60.88c32.57,0,19.39,41.06-13.3,41.06h-60.88Zm-21.31,67h57.17c30.59,0,18.21,38.56-12.49,38.56h-57.17Z"/><path class="cls-1" d="M2459.32,158.33l-90.91,214.91,181.05,24.52c58.19,8.35,110.31-60.7,94.67-116.34,97-83.65,30.17-121.4,30.17-121.4Zm71.21,55.27h60.88c32.57,0,10,46.17-22.72,46.17h-60.88ZM2494.86,294H2552c30.58,0,9.36,43.36-21.34,43.36h-57.17Z"/><polygon class="cls-1" points="2749.93 161.84 2627.5 408.83 2834.63 451.54 2870.93 385.34 2744.94 368.26 2774.13 308.47 2901.54 324.13 2925.03 277.86 2795.48 269.32 2813.99 228.75 2949.23 235.16 2988.38 164.69 2749.93 161.84"/><path class="cls-1" d="M2871.05,468.54l84.59,34L3034,343.72l8.25,217.66,140.29,61.89L3147.5,583l2.07-220.75c124.81-20.63,142.35-149.57,142.35-149.57l123.78-58.8s-103.15,17.54-164,16.51-223.84-3.1-223.84-3.1ZM3096.66,228.9h60.89c32.56,0-1.39,65.77-34.07,65.77H3062.6Z"/><path class="cls-1" d="M853,243.85s-44.72,46.49-3.76,130.58c15.75,32.32,65.41,33.5,89.83,35.61,26.68,2.31,156,1.32,156,1.32s28.56,14.51,39.83,15.83,82.69,3.29,107.87,2.63,59.76-4.61,75.54-8.57,16-4.81,16.91-13.19c1.15-10.85-3.62-2.1-3-29.68.86-38.42-16.1-63-43.8-97s-40-38.88-46-44.82c34.16-8.7,12.22-32.25-.91-35.17,1.27-6.78,5-10.17,7.25-27,3.13-23.21,1.37-35.41,3.11-59.42,1.64-22.71,12.37-29.79,12-33.4s-34.67,22.23-33.69,20.46c.88-1.6,53.87-79.67,51.13-92.3-2.35-10.83-53.09-18-107.35,8.42s-89.92,96.08-93.45,102.61a350.61,350.61,0,0,0-63.28,4c-2.94-6.7,8.62-5.84,8.43-20.62s-37-77.52-54.86-83.53C959.19,16.72,930,21,912.91,40.55s-17.82,39.7-17.82,46.06c-21.16,2.06-79,21.31-84.24,75.8s42.51,77.51,42.51,77.51Zm137.92-21.21c-2.24,5.24,7.39,7.8,1.24,15.05-15.9,18.75-68.1,20.93-61.88,19.62a275.47,275.47,0,0,0,32.93-9.59c13.09-4.67,21.88-13.34,22.49-15.05,1.24-3.49-1.49-7.41-5.22-8.28s-3,1.09-2.23,5.67-18.89,11.34-33.06,15-29.83,3.93-39.27.87S891,225.48,897,217.63s16.65,4.58,62.14,4.58c10.5,0,19.49-1.4,24.75-4.5,11.9-7,11.79-19.18,9.55-18-3.23,1.75-4.23,7.64-12.18,8.07s-3.48-7.19-11.93-7.41c-5.24-.14-8.2,10.68-16.66,10.68s-26.34-6.76-32.06-8.5-35.66-14.51-48.26-.58,19.37,56.72,39.2,75.76,50.18,43.41,88.22,49.75c-52.74-20.88-76.31-51.59-76.31-51.59s34.43,20.21,72.46,20.21,34.8-.65,45.49-2.83-2.49-12.43.25-39.91,28.33-38.82,25.6-46.89-4.23,4.15-25.11,3.93-22.37-1.31-28.33-3.93,29.37-11.33,33.55-33.36c1-5.23-11.18,5.45-23.86,7.41s-18.39,1.31-21.13,4.8-.74,13.52-3.72,22.68S993.15,217.41,990.91,222.64Zm218.66-101.33s23.57,8.11,30.33,26.77c7.11,19.64-3.37,49.77-4.57,51.31-4.75,6.09,3.66-24.85-10.59-46.33-9.91-14.93-31.25-21-31.25-21Zm-27.48,101.5c-9.44-1.21-20.48.81-24.49,11.82-2.65,7.29.29,19.31,2.48,26.38,2.68,8.7,6.94,16.64,11.62,24.64,8.14,14,18.94,25.84,30.07,38.11a214.83,214.83,0,0,0,41.07,35.72c8.18,5.53,17,11,26.39,14.82,6.92,2.81,15.72,5.12,23,4.51s13.49-4.74,15.58-10.71c2.65-7.31.8-16.88-1.43-23.93A120.93,120.93,0,0,0,1295.11,319a238.22,238.22,0,0,0-29.18-39.74,234.48,234.48,0,0,0-42.57-37.72C1212.15,233.66,1195.68,223.88,1182.09,222.81Zm-8,11.11a18.84,18.84,0,0,1,14.19-1.73c14.85,3.5,24.06,9,36,17.89a235.05,235.05,0,0,1,36.1,33c17.41,19.66,33.84,38.35,39.11,62.33,1.34,6.15,2.63,17-3,20.95-4.56,2.43-13.65,2.86-18.43,1.58-27.54-7.43-52.87-30.71-70-49.72s-34-42.83-38.9-65.89C1167.83,246.05,1168.59,238.12,1174,233.92ZM901.41,183.49c-27.34-1.76-69.92-10.11-81.06-36.78,14.45,13.45,29.08,19.92,32.81,21.3a131.93,131.93,0,0,0,18.2,5.27A213.88,213.88,0,0,0,902,177.47c29.78,2.31,61.13,1.83,87.66-11.85a3.71,3.71,0,0,1,4.71,1.07,2.83,2.83,0,0,1-1.22,4.14,117.37,117.37,0,0,1-41,12.21A256.35,256.35,0,0,1,901.41,183.49Zm-39.56,16.3c4.79,1.7,3.9,7.27-2.19,5.35-23-7.24-37-19.37-41.15-37.47,12,15.22,25.31,23.57,28.75,25.43C851.94,195.62,852.82,196.61,861.85,199.79Zm268.27-20.63c-1.44,1.25-3.24-.13-2-4,.38-1.14.72-2.54,1-3.77a7.13,7.13,0,0,0-2.15-5.55c-6.41-6.62-17.17-9.46-26.77-10.56a61.37,61.37,0,0,0-18.45.7,31.47,31.47,0,0,0-8.86,3.08,8.78,8.78,0,0,0-5.08,5.92,34,34,0,0,0-.41,4.84c.15,3.33-1.26,5.63-3.32,2.83-4.12-5.58-2.95-12.79,3.76-17a32.45,32.45,0,0,1,10.3-4.37,70.9,70.9,0,0,1,42.53,3.71,35.77,35.77,0,0,1,9.26,5.73C1136.9,166.18,1136.67,173.49,1130.12,179.16Zm55,10.28c-1.27.76-2.4-.49-.86-3.24.45-.81.92-1.82,1.31-2.71a5.22,5.22,0,0,0-.76-4.4c-3.78-5.7-11.39-9.09-18.4-11a46.49,46.49,0,0,0-13.91-1.65,24.92,24.92,0,0,0-7.09,1.27,7.11,7.11,0,0,0-4.7,3.83,26.81,26.81,0,0,0-1,3.57c-.39,2.51-1.8,4.06-2.91,1.73-2.23-4.66-.26-9.91,5.4-12.26a25.78,25.78,0,0,1,8.37-2.06,50.14,50.14,0,0,1,17.26,1.7,48.92,48.92,0,0,1,14,6.06,25.39,25.39,0,0,1,6,5.37C1192.21,180.52,1190.92,186,1185.16,189.44ZM1222.84,207c-1,.38-1.61-.64-.08-2.38.44-.51.94-1.16,1.36-1.73a3.69,3.69,0,0,0,.17-3.18c-1.72-4.46-6.51-7.78-11.11-10a32.22,32.22,0,0,0-9.47-2.88,18.35,18.35,0,0,0-5.18,0,5.45,5.45,0,0,0-3.91,2.11,19.33,19.33,0,0,0-1.31,2.37c-.68,1.7-1.92,2.62-2.32.85-.81-3.55,1.42-7,5.76-7.92a18.71,18.71,0,0,1,6.2-.4,34.62,34.62,0,0,1,11.82,3.34,32.24,32.24,0,0,1,8.81,6,16.72,16.72,0,0,1,3.37,4.52C1229.22,201.65,1227.44,205.3,1222.84,207Zm26.82,20.55c-.9.16-1.2-.75.37-2,.46-.35,1-.81,1.43-1.22a3.16,3.16,0,0,0,.74-2.58c-.59-3.9-3.89-7.3-7.24-9.78a25.45,25.45,0,0,0-7.22-3.71,14.79,14.79,0,0,0-4.24-.73,4.76,4.76,0,0,0-3.59,1.16,20.43,20.43,0,0,0-1.51,1.75c-.87,1.3-2.05,1.87-2.05.37,0-3,2.45-5.51,6.18-5.66a15.59,15.59,0,0,1,5.14.55,27.9,27.9,0,0,1,9.06,4.42,25.26,25.26,0,0,1,6.1,6.15,13.1,13.1,0,0,1,1.92,4.18C1255.87,224.08,1253.74,226.81,1249.66,227.57Zm-243.93-94.24c-4.13.83-8.09,1.7-11.79,2.57l2.63,8.57a383.47,383.47,0,0,1,58.06-9c4.12-.21,13.81-.87,18.23.37l3.08-8.46c-4.39-1.23-7-1.36-11.91-1.28-15.45.24-35.55,2.92-53.32,6.29a7.59,7.59,0,0,0,2.45-5.76c0-3.88-2.58-7-5.76-7s-5.76,3.15-5.76,7C1001.64,129.77,1003.37,132.45,1005.73,133.33Zm182.59,2.28c19.9,9.59,34.88,25.31,34.63,50.39l-7-3.05c-.57-18.87-15.36-35.09-33.46-43.82Zm19.62,44.8-8.75-.66c-2-15.74-14.14-25.36-28.27-33.44l7.16-4.6C1193.68,150.63,1205.67,161.52,1207.94,180.41Zm-21.41-15.18a95.62,95.62,0,0,0-31.43-9.76l11.13-6.32S1184.24,159.49,1186.53,165.23Zm33.31,90.18-22.73,35.74s9.09,19.94,43.1,48.18c4.87,4.05,40.92,34.62,51.83,19.47s-18.08-51.34-23.46-58.56C1250.39,275.83,1219.84,255.41,1219.84,255.41Zm59.46,33.94c13.3,13.56,58.35,75.54,31.09,94.12-32.17,21.91-86.79-29.32-99.55-42.09,47.08,36.88,79.46,51.57,96.31,36.1C1326.2,360,1295.29,311.9,1279.3,289.35Zm-72.77-71.09c-3.77,0-39.35-19.39-62.53-3-7.65,5.41-6.65,27.59,4.49,58.17s65.77,82.76,61.45,82.61-39-32.64-62.17-62.11-19.58-38.94-30.72-55.65-38.27-21.13-39.89-22.07,25-11.83,67.56-12.93S1210.3,218.26,1206.53,218.26Zm-153.63,91c-4.67-15.93-.89,23.17,12.4,45.08s31.09,41.94,37.55,43.51-14.19-17.81-27.31-40.2C1069.76,347.75,1060.81,336.17,1052.9,309.22Zm-127.81,40c-9.07-10.7,7.43,17.64,25.08,30.51s38,23.11,43.4,22.55-16.88-9.55-34.56-22.83C951.22,373.64,940.46,367.36,925.09,349.26ZM856.83,250c3-.07,21.1,13.63,21.72,18.31s.7,2.92-2.71,3.39-26.44-9.76-26-13.22S853.81,250.08,856.83,250Zm54,75.95c1.87,6.63-8.31-5.07-12-15.3s-10.87-22.59-3.76-24.94,5,9,8.82,19.29A203.06,203.06,0,0,1,910.86,326Zm54.91-100.38c-.14-1.49-17.64.87-32.59-.62s-30-9.65-31.89-3,1.41,7.92,4.94,8.79,19,1.61,29.49.62S966.23,230.39,965.77,225.58Zm2.11,5.37c-.4-1.45-7.47,1.31-33.57,3.17s-32-3.09-30.62,3.47c1.46,6.75,2.69,6.31,6.32,6.68s21.5-.31,31.63-2.72S969.2,235.63,967.88,231ZM1056,175.74c1.33,3.94,5.43,14.64,4.3,17.3s-14.79,12-23.13,12.42-19,1.77-6.07-5.66,18.2-13.86,19.84-19C1052.47,176.23,1053.38,167.87,1056,175.74Zm-67.23,16.1a32.06,32.06,0,0,0,3.29-10.78,2.47,2.47,0,0,1,2.78-2,2.3,2.3,0,0,1,2.25,2.44,36.1,36.1,0,0,1-3.74,12.21l0,.07a33,33,0,0,1-9,9.61,2.78,2.78,0,0,1-3.56-.32,2,2,0,0,1,.36-3.12A28.6,28.6,0,0,0,988.81,191.84Zm-26.29,7.46a35,35,0,0,1-10.5,8.15,2.73,2.73,0,0,1-3.46-.79,2.08,2.08,0,0,1,.91-3,30.28,30.28,0,0,0,9-7,2.76,2.76,0,0,1,3.54-.43A2.05,2.05,0,0,1,962.52,199.3Zm-63.75-66.88c0-.72,1.48-21.94-7.72-18.71s-15.8,8.39-22.42,21.29-7.36,25.8-3.31,31.29,39,7.42,68,7.09S990,164,991.06,156.29s-4-19.68-9.56-25.81c-2.68-3-6.39-8.24-9.17-10.95-3-2.89-5.58-4.87-4.07-9.69,2.94-9.36,12.5-28.71,16.18-30.32s5.51,1.61,10.29-2.26-1.84-7.74-6.62-6.45S969.73,88.55,964.58,104s-3.67,20-5.88,21.94,2.94-18.71-14-22.26-29,1.82-27.28-3c3.26-9.27,12.73-25.46,16.46-27s5.46,1.76,10.37-2-1.58-7.78-6.4-6.62S915.1,88.69,909.44,104,898.77,145,898.77,132.42ZM1128.19,186l-1.47,14.52s-16.18.32-25,1.93-19.12,7.1-24.27,4.52l-11.39-27.1s11.76,9,32.35,9.68A107.77,107.77,0,0,0,1128.19,186Zm52.7,7.69-4.17,7.15s-8.46-.32-18.75-1.29-16.93.75-20.22-1.61c-.61-2.81,0-15.05,0-15.05s7.1,7.62,21.59,10.21A78,78,0,0,0,1180.89,193.65Zm40.62,17.13L1212,216s-3.68-2.26-11.4-6.13-10.68-2.78-12.87-5.09c0-2.3,1.55-8.35,1.55-8.35s4.28,7,15.27,11A62,62,0,0,0,1221.51,210.78ZM1246,231.5l-10.39,3.1a37.36,37.36,0,0,0-7.3-8.13c-5.23-4.57-8.17-3.72-9.35-6,.58-1.85,4.78-6.66,4.78-6.66s1.7,6.41,9.52,11.73A48.67,48.67,0,0,0,1246,231.5ZM1069.1,139.59a213,213,0,0,0-32.53,1.85c-17.17,2.38-32.24,3.17-35.25,6.87s-2.71,9.78-.3,13.21,5.72-1.58,8.74,7.14c1.68,4.86,18.07,2.64,18.07-5.29s.9-8.19,11.45-9.78,9,2.12,10.54,4.5,6.33,2.38,8.13-3.44,0-1.85-4.52-4.49,4.82-4.76,9.34-3.7S1069.1,139.59,1069.1,139.59Zm-52.42,15.33c3.5,0,6.33,1.53,6.33,3.43s-2.83,3.44-6.33,3.44-6.32-1.54-6.32-3.44S1013.19,154.92,1016.68,154.92ZM1273.47,12.59c0,3.62-25,49.27-57.45,89.19-13.43,16.55-60.59,39.54-83.83,53.57-9.36-7.68-31.7-10.59-31.7-10.59s26.65-65.44,70.64-101.18c35.55-28.88,89.85-29.39,92.68-30.46,6.34-2.38-73.66-10.59-121,41.58-39.79,43.81-56.76,86.35-58.57,90.59l-12.38,2.38c39-64.36,58.27-93.23,85.44-112a162.09,162.09,0,0,1,86-29.13C1259,5.71,1273.47,7.29,1273.47,12.59Zm-315.21,87c-12-7.8-29.8-10.32-29.8-10.32s2.36-8,6.8-10.78,13-.24,15.16-7.33c2.35-7.57-4.19-10.55-11-10.55s-12,4.58-17,11.92l-9.14,14h-10.2s4.45-38.29,22.74-48.38,25.61-14.22,38.94-12.61,53.56,65.48,52.53,77.27c-.53,6,1,13.52-9.93,13.07S998,125,998,127.53s-3.4,4.36-7.32,2.52-4.18-5.5-8.36-10.09-7.84-6-7.32-12.38,8.1-22,12-23.61,9.67,0,12.55-6-.53-8.94-4.45-10.54a12.45,12.45,0,0,0-11.23,1.37c-2.36,1.84-11.24,8.94-14.9,17.43S961.52,101.67,958.26,99.56Z"/></g></g></svg>