<svg xmlns="http://www.w3.org/2000/svg" viewBox="0 0 3312.81 767.7"><defs><style>.cls-1{fill:#121212;fill-rule:evenodd;}</style></defs><title>AirGrabber-Demon-Outline</title><g id="Layer_2" data-name="Layer 2"><g id="Layer_1-2" data-name="Layer 1"><path class="cls-1" d="M544.28,548.4l.26,0,84.77-12.93a20,20,0,0,0,13.58-8.61c7.31,4.62,85-4.24,98.89-5.62a20,20,0,0,0,15.64-29.39l-4-7.52,40,26.5a20,20,0,0,0,12.8,3.25l97.7-8.62A20.09,20.09,0,0,0,914.73,501c6.31,28.15,28.9,55.76,53.51,71.35a314.62,314.62,0,0,0,199.37,45.9,30,30,0,0,0,27.57-24.93,47.7,47.7,0,0,0-17.75-46.2,100.7,100.7,0,0,1-14.8-26.67,164.5,164.5,0,0,0,40.9-46.21,111.53,111.53,0,0,0,68.5,26.9H1508.4a20,20,0,0,0,19.48-15.4,20,20,0,0,0,6.38,1h80.47a20,20,0,0,0,20-19.61l.26-12.93,19.81,26.08a20,20,0,0,0,15.94,7.9h186.77a20,20,0,0,0,17.9-11.07l7.15-14.31,41.13,1.62c0,14.15,1.38,29.48,18.38,30.87l87.63,7.18a19.75,19.75,0,0,1,10,1.43l180.09,15.72a75.2,75.2,0,0,0,43.79-8.8q2.92-1.53,5.76-3.25a20,20,0,0,0,17.32,20.3l174.16,23.57A98,98,0,0,0,2517.68,540a20,20,0,0,0,15.85,21.87L2732,602.74a20,20,0,0,0,19.19-6.52A20,20,0,0,0,2763.46,618l81.05,32.62a20,20,0,0,0,25.41-9.71l40.17-81.39L2915,689.14a20,20,0,0,0,11.92,17.55L3061.34,766a20,20,0,0,0,23.16-31.46l-28.6-32.81,1.75-187.78c69.35-17.78,120.81-77.05,134.51-146l109.22-51.88a20,20,0,0,0-12-37.8,1108.54,1108.54,0,0,1-153.93,15.52l-214-3a20,20,0,0,0-18,10.77l-.76,1.45a20,20,0,0,0-19.07-14.75l-228.47-2.73a20,20,0,0,0-18.17,11.12l-14.88,30c-4.09-16.49-20.59-42.76-39.49-42.91l-206-1.61c-15-.12-23.38,23.56-29.2,37.31-5.84-18.93-23.74-37.62-44.37-39.36L2089,278.7a20,20,0,0,0-19.52,15.05l-11.19,43.74,1.72-36.4a20,20,0,0,0-19-20.93l-.65,0-196.82-2.87a20,20,0,0,0-18.65,12l-18.19,41.84a69.05,69.05,0,0,0-70.11-56.75H1534.26a20,20,0,0,0-7.18,1.33,20,20,0,0,0-18.68-12.82l-243,.32c1.77-8.78,8.22-43.65,6.6-59.36a62.27,62.27,0,0,1,24.58-59.37c2.34-2,7.76-8.45,10.26-11.73a32.92,32.92,0,0,0,1.21-37c-10.38-16.77-29.34-16.27-46-11.6-73.5-104.1-246.42-100.79-349.81-48.53a30,30,0,0,0-57.73-1.13A149.1,149.1,0,0,0,848,81.92L835.16,96.13a89.34,89.34,0,0,1-52.75-51.4,30,30,0,0,0-56.77,3.41c-16.22,62.7,16.68,132.91,53.27,182.16-6.23,16.43-8.7,37.85-4.49,55.08-9.55-3.95-40.88-10.31-57.13-11.45L527,270.08a20,20,0,0,0-15.89,8,20,20,0,0,0-17.28-9.46L386.1,270.08a20,20,0,0,0-19.1,15L354.1,266a20,20,0,0,0-15.05-8.75L21.55,232.79a20,20,0,0,0-8.26,38.8l175.3,62.51,41.49,162.3L94.57,538.19a20,20,0,0,0,5.54,39.13L245,579.91,254,624.25l-35.76,37A20,20,0,0,0,241,693.32l153.73-70.4A20,20,0,0,0,405.81,600l-7.57-31.12,14.09-1.61,10.88,20.86a20,20,0,0,0,23,10.06l84.76-23A20,20,0,0,0,545,550.64,19.68,19.68,0,0,0,544.28,548.4ZM1198.49,438c24.53,43,74.3,43.21,74.3,43.21H1508.4V374.86H1377.66v38.79h48.85v30.17h-53.16c-77.58,0-77.58-113.5-12.93-113.5,31.69,0,148-1.44,148-1.44v-46H1272.79a95.23,95.23,0,0,0-33.1,6.42c8.55-28.15,14.52-67.74,12.49-82.49-4.17-30.28,7.72-60.52,32.48-78.45a32.32,32.32,0,0,0,6.54-8.14,15.82,15.82,0,0,0-.56-14.58c-8.08-10.5-32.28.23-40.92,2.74,1.82-21.87-51.42-56.31-56.76-58.6A309.41,309.41,0,0,0,901.44,64.45,83.26,83.26,0,0,1,893,41.33a10,10,0,0,0-19.37-.95,128.59,128.59,0,0,0-5.22,48.78,325,325,0,0,0-26.83,29.67c-36.5-6.87-63.39-34-77.84-66.8A10,10,0,0,0,745,53.4c-16.2,59.47,23.06,131.14,57.16,174.21-19.7,41.91-9.49,71.79,26.19,101.73a158,158,0,0,1,31.43,36.2l.17.9-.39,2.07-12.76,29.05c-5.13,12.41-4.7,29.75,6.8,38.67,6.81,5.29,32.08,9.57,43.64,11.79,4.47,6.76,22.67,30.67,35.5,29.9-2.57,42.73,37.32,71.63,46.56,77.75,52.06,34.44,123.83,45.93,186.84,42.65a10,10,0,0,0,9.38-8.4,27.7,27.7,0,0,0-12-28.16,120.52,120.52,0,0,1-24.1-49.41C1165.89,498.14,1185,470.14,1198.49,438ZM20,252.74l185.33,66.09L254.19,509.9,100.47,557.31l160.9,2.88,14.37,70.39-43.1,44.54,153.72-70.4-12.93-53.15,50.29-5.75,17.24,33,84.76-23L337.52,277.16Zm287.34,94.82,10-2.87,71.84,136.48L344.7,492.66Zm79-57.47L541.52,528.58l84.77-12.93-132.18-227Zm140.8,0L653.58,509.9l86.2-8.62L698.12,423.7l106.31,70.4,97.7-8.62L814.49,428c43.1-18.67,10.06-110.62-70.4-130.73C711.74,289.19,527.16,290.09,527.16,290.09ZM650.71,337.5s66.09-8.62,83.33,25.86-54.6,28.74-54.6,28.74Zm1438.11-38.79L2041.41,484l180.26,15.73c40.23,5.75,94.14-48.77,68.28-96.18,81.89-80.45,12.93-103.44,12.93-103.44Zm80,47.09h58.33c31.2,0,18.57,39.34-12.75,39.34h-58.33ZM2148.39,410h54.79c29.3,0,17.44,36.94-12,36.94h-54.79Zm228-107.78-87.11,205.92,173.47,23.49c55.76,8,105.7-58.16,90.71-111.47,93-80.15,28.91-116.33,28.91-116.33Zm68.23,52.95H2503c31.2,0,9.55,44.24-21.77,44.24h-58.33Zm-34.18,77h54.78c29.31,0,9,41.55-20.44,41.55H2390Zm244.39-126.6-117.3,236.66L2736,583.14l34.78-63.43L2650.1,503.34l28-57.29,122.08,15,22.51-44.33-124.13-8.19,17.73-38.87,129.58,6.14,37.51-67.52Zm116.06,293.87L2852,632l75.11-152.21L2935,688.38l134.42,59.3-33.61-38.54,2-211.52c119.59-19.76,136.4-143.31,136.4-143.31L3292.79,298s-98.84,16.8-157.15,15.82-214.48-3-214.48-3ZM2987.1,369.81h58.34c31.2,0-1.33,63-32.65,63h-58.33ZM1534.26,294.4V466.81h80.47l1.42-70.4,54.6,71.84h186.77l12.92-25.87,73.27,2.87v30.17l87.64,7.19L2040,300.15l-196.82-2.87-71.84,165.21-46-53.15c35.31-14.64,50-30.83,58.25-46.32,19.16-36.21-16.58-68.62-46.76-68.62Zm83.33,35.92h61.78c33,0,33.16,41.66,0,41.66h-61.78Zm270.09,76.14,35.92-76.14h21.55v76.14ZM991.44,431.87c-15.17,3.74-52.71,6.3-52.71,6.3l-6.63,29.76C917,462.27,903.33,439,903.33,439l-34.14-6.55c-16.33-3.24-17.85-16.75-13.11-31.29,4.64-14.24,17.55-31.08,13.11-39.35-26.36-49.16-93.87-60.44-55.23-135.46C730.53,123,754.6,56,754.6,56c31.36,70.3,91.27,73.6,91.27,73.6,9.52-14.15,33-36.66,33-36.66-3.35-28.49,4.32-49.65,4.32-49.65s8,30.64,16.06,34.24c148.13-90.38,279.26-24.22,289.41-18.7,4.58,2.5,3.25,10.39-4.33,8.74-176.47-38.23-263.88,38.67-263.88,38.67C972,155,1016.3,142,1022.56,148c10.84,10.47,6.52,16.79,6.52,16.79-46.54,7.13-99-27.31-99-27.31,21.17,79,90.77,82,90.77,82C1010.31,244.5,989.63,245.34,975,242c-59.54-13.77-87.74-103-87.74-103-46.4,59.26-22.51,138.77-23.48,145.41-16.6-.79-35.51-29.86-35.51-29.86-7.45,42.91,45.74,64.45,47.21,57,2-10.24,9.55-11.29,9.55-11.29s-5.33,18.21,6,17.95c26.35-.62,71.52-19.37,85.21-26.14,43.23-21.38,75.17-29.53,112.3-15.31l-7.94,7.56-13.73-5s-24.22,53.56-68.08,71.52c-10-13.73-26.53-15.83-26.53-15.83l-77.06.53c-1.25,33.26-11.69,74.5-11.69,74.5,12.22,2.64,21.92,2.38,32.28,1.89,17.84-.83,44.23-21.61,44.23-21.61,2.5,17.42-10.37,31.68-10.37,31.68,37.59,6.86,59.2-15.66,59.2-15.66-40.73-12.93-34.14-27.31-34.14-27.31,98.73,45.59,142.18-23.37,145.92-27.56-7.81,86.55-44.15,133-63.77,177.07C1015,513.42,992,517,992,517s45.55,45.78,108.83,38.65c2-.22,6.49-2.3,10.16-6.82,1.74-2.15-10.79-56.53,20.22-106.69a171.78,171.78,0,0,0-4.33,42.32c39.42-33.6,51.5-93.8,52.24-108.26,1.28-24.86,1.62-45.7,1.62-45.7-17.65,6.05-34.57,29.86-34.57,29.86,21.24-85-1.11-110.08-12.53-111.42-9.7-1.14-29.82,22.21-29.82,22.21-52.28-96.5,40.48-146.24,40.48-146.24s2,6.56-.56,9.77c-3.55,4.51-53,41.82-29.11,92.62,90.14-108.52,153.65-108.76,159.86-113.36,11.89-8.78,9,3.32,4.3,6.35-46.68,29.78-36.5,88.14-36.5,88.14-6.72,8.49-12.34,21.44-12.34,21.44a91.82,91.82,0,0,1-1.47-34.63c-34.72,26-47.63,78.73-47.63,78.73,1.35-61.15,44-90.48,48.56-97.75s9.45-24.1,9.45-24.1c-65.29,24.78-68,68.9-68.26,70.25-3.36,18.4,7.86,41.73-.54,85.14,39.19,16.51,61-42.46,61-42.46.56,41.05-14.56,48.12-14.56,48.12-15.12,170.33-88.47,193.45-88.47,193.45,8.4,46.71,30.8,60.87,36.58,75.4,1.79,4.5.94,6.31.94,6.31-165.31,4.75-214.48-64.76-221.66-92.37-4.86-18.71,3.29-37.9,3.29-37.9,23.64,58.9,48.19,7.05,43-17.73l10.74,12c1.4,14.75-4.78,38.4-21.63,44.59l38.6.6s-13-20.41-7.74-37.78c4.07,4,31.15,28.39,47.48,29.76,5.6.48,13.44-16.83,15-25,0,0-19.1-15.22-16.85-29.13,49.33,5.85,28.08-48.06-27.23-16,0,0,1.31,36.12-13.56,39.65C1015.08,459,992.41,434,991.44,431.87ZM835.09,146.17s-38-11.87-50.16-21.77c2.16,6.56,14.74,30.35,39.3,44.09C824.23,168.49,830.52,152,835.09,146.17ZM965.87,312.93c15.37-6.36,34.24-25.22,51-23.85-8.63,8.63-7.85,16.52-25.89,22.49C983.39,314.07,976.65,313.84,965.87,312.93Z"/></g></g></svg>