<svg xmlns="http://www.w3.org/2000/svg" viewBox="0 0 3272.78 717.34"><defs><style>.cls-1{fill:#121212;fill-rule:evenodd;}</style></defs><title>AirGrabber-Demon-Solid</title><g id="Layer_2" data-name="Layer 2"><g id="Layer_1-2" data-name="Layer 1"><path class="cls-1" d="M0,222.4l185.33,66.08,48.85,191.08L80.45,527l160.91,2.87,14.37,70.4-43.1,44.54,153.72-70.4-12.93-53.16,50.28-5.74,17.24,33,84.77-23L317.5,246.82Zm287.33,94.82,10.06-2.88,71.83,136.49-44.53,11.49Z"/><polygon class="cls-1" points="366.35 259.75 521.51 498.24 606.27 485.31 474.1 258.31 366.35 259.75"/><path class="cls-1" d="M507.14,259.75,633.57,479.56l86.2-8.62-41.66-77.58,106.31,70.4,97.69-8.62-87.63-57.47c43.1-18.68,10-110.62-70.4-130.74C691.72,258.84,507.14,259.75,507.14,259.75ZM630.7,307.16S696.78,298.54,714,333s-54.59,28.73-54.59,28.73Z"/><path class="cls-1" d="M1219.67,259c-4.1,13.5-8.8,24.37-13.49,28.61-3,34.37-11.07,80.37-27.7,120,24.53,42.95,74.29,43.21,74.29,43.21h235.62V344.51H1357.65V383.3h48.85v30.17h-53.16c-77.58,0-77.58-113.49-12.93-113.49,31.68,0,148-1.44,148-1.44v-46H1252.77A95.27,95.27,0,0,0,1219.67,259Z"/><path class="cls-1" d="M1514.25,264.06V436.47h80.46l1.43-70.41,54.59,71.84H1837.5L1850.43,412l73.27,2.87v30.17l87.64,7.18L2020,269.81l-196.83-2.88L1751.3,432.15l-46-53.16c35.3-14.64,50-30.82,58.24-46.32,19.17-36.2-16.57-68.61-46.75-68.61ZM1597.58,300h61.77c33.05,0,33.17,41.66,0,41.66h-61.77Zm270.09,76.14L1903.59,300h21.55v76.14Z"/><path class="cls-1" d="M2068.8,268.37,2021.39,453.7l180.27,15.73c40.23,5.75,94.14-48.77,68.28-96.18,81.89-80.46,12.93-103.44,12.93-103.44Zm80,47.09h58.34c31.2,0,18.57,39.34-12.75,39.34h-58.33Zm-20.42,64.17h54.78c29.3,0,17.44,36.95-12,36.95h-54.78Z"/><path class="cls-1" d="M2356.41,271.85l-87.1,205.92,173.47,23.5c55.76,8,105.69-58.16,90.71-111.48,93-80.14,28.91-116.32,28.91-116.32Zm68.23,53H2483c31.2,0,9.55,44.24-21.77,44.24h-58.34Zm-34.17,77h54.78c29.3,0,9,41.55-20.44,41.55H2370Z"/><polygon class="cls-1" points="2634.86 275.22 2517.55 511.87 2716.02 552.79 2750.8 489.37 2630.09 473 2658.05 415.71 2780.13 430.72 2802.63 386.39 2678.51 378.2 2696.24 339.33 2825.82 345.46 2863.33 277.95 2634.86 275.22"/><path class="cls-1" d="M2750.92,569.08l81,32.62,75.12-152.21L2915,658l134.42,59.3-33.61-38.55,2-211.51C3137.37,447.51,3154.17,324,3154.17,324l118.61-56.34s-98.84,16.8-157.15,15.81-214.48-3-214.48-3Zm216.17-229.61h58.33c31.2,0-1.32,63-32.64,63h-58.33Z"/><path class="cls-1" d="M971.43,401.53c-15.17,3.73-52.72,6.29-52.72,6.29l-6.62,29.77c-15.12-5.66-28.77-28.92-28.77-28.92l-34.14-6.55c-16.33-3.24-17.85-16.75-13.12-31.29,4.65-14.25,17.55-31.09,13.12-39.36C822.82,282.32,755.31,271,793.94,196,710.51,92.68,734.59,25.68,734.59,25.68,766,96,825.86,99.29,825.86,99.29c9.52-14.16,33-36.66,33-36.66C855.55,34.14,863.22,13,863.22,13s8,30.63,16,34.24C1027.4-43.17,1158.54,23,1168.68,28.52c4.59,2.49,3.26,10.38-4.32,8.74C987.89-1,900.48,75.93,900.48,75.93c51.54,48.72,95.8,35.7,102.07,41.76,10.84,10.47,6.51,16.79,6.51,16.79-46.53,7.13-98.95-27.31-98.95-27.31,21.17,79,90.76,82,90.76,82-10.57,25-31.26,25.8-45.91,22.41-59.54-13.77-87.74-103-87.74-103C820.82,167.83,844.7,247.34,843.74,254c-16.6-.78-35.52-29.85-35.52-29.85-7.44,42.9,45.74,64.45,47.22,56.95,2-10.23,9.54-11.29,9.54-11.29s-5.32,18.22,6,18c26.35-.61,71.52-19.36,85.2-26.13,43.24-21.38,75.18-29.53,112.3-15.31l-7.93,7.55-13.73-5s-24.22,53.57-68.08,71.52c-10-13.72-26.53-15.82-26.53-15.82l-77.06.53c-1.26,33.26-11.69,74.5-11.69,74.5,12.22,2.64,21.92,2.37,32.28,1.89,17.84-.84,44.22-21.61,44.22-21.61,2.51,17.42-10.37,31.68-10.37,31.68,37.59,6.86,59.2-15.66,59.2-15.66C948,363,954.62,348.59,954.62,348.59c98.72,45.59,142.18-23.37,145.91-27.56-7.8,86.55-44.14,133-63.76,177.07C995,483.08,972,486.66,972,486.66s45.54,45.78,108.82,38.65c2-.23,6.49-2.3,10.16-6.82,1.75-2.15-10.78-56.53,20.23-106.69a172.11,172.11,0,0,0-4.34,42.32c39.43-33.61,51.51-93.81,52.25-108.27,1.27-24.86,1.62-45.69,1.62-45.69-17.66,6-34.57,29.86-34.57,29.86,21.24-85-1.12-110.08-12.54-111.43-9.69-1.14-29.81,22.22-29.81,22.22-52.29-96.5,40.48-146.24,40.48-146.24s2,6.56-.56,9.77c-3.55,4.5-53,41.82-29.12,92.62C1184.77,88.44,1248.28,88.2,1254.49,83.6c11.89-8.78,9,3.32,4.29,6.34-46.67,29.79-36.49,88.14-36.49,88.14-6.72,8.5-12.34,21.45-12.34,21.45a91.81,91.81,0,0,1-1.47-34.63c-34.72,25.95-47.63,78.73-47.63,78.73,1.35-61.16,44-90.48,48.56-97.76s9.44-24.1,9.44-24.1c-65.29,24.78-68,68.91-68.25,70.25-3.36,18.4,7.85,41.74-.55,85.15,39.2,16.51,61-42.47,61-42.47.56,41.05-14.56,48.13-14.56,48.13-15.12,170.33-88.47,193.45-88.47,193.45,8.4,46.71,30.8,60.87,36.58,75.4,1.79,4.5.94,6.3.94,6.3-165.31,4.76-214.49-64.75-221.66-92.36-4.86-18.72,3.28-37.9,3.28-37.9,23.65,58.9,48.19,7,43.06-17.74L981,422c1.4,14.75-4.78,38.4-21.63,44.59l38.59.59s-13-20.4-7.74-37.78c4.08,4,31.15,28.39,47.49,29.77,5.59.47,13.44-16.83,15-25,0,0-19.1-15.22-16.86-29.13,49.34,5.85,28.09-48.07-27.22-16,0,0,1.31,36.12-13.57,39.65C995.06,428.66,972.39,403.7,971.43,401.53ZM815.08,115.83s-38-11.87-50.16-21.77c2.16,6.56,14.73,30.35,39.3,44.09C804.22,138.15,810.51,121.69,815.08,115.83ZM945.85,282.59c15.37-6.36,34.25-25.22,51-23.86-8.62,8.64-7.84,16.53-25.88,22.5C963.38,283.73,956.64,283.5,945.85,282.59Z"/></g></g></svg>