<svg xmlns="http://www.w3.org/2000/svg" viewBox="0 0 3272.78 732.09"><defs><style>.cls-1{fill:#121212;fill-rule:evenodd;}</style></defs><title>AirGrabber-Hellcat-Solid</title><g id="Layer_2" data-name="Layer 2"><g id="Layer_1-2" data-name="Layer 1"><path class="cls-1" d="M0,237.15l185.33,66.08,48.85,191.08L80.45,541.72l160.91,2.87L255.73,615l-43.1,44.54,153.72-70.4L353.42,536l50.28-5.74,17.24,33,84.77-23L317.5,261.57ZM287.33,332l37.36,145.1,44.53-11.49L297.39,329.09Z"/><polygon class="cls-1" points="366.35 274.5 521.51 512.99 606.27 500.06 474.1 273.06 366.35 274.5"/><path class="cls-1" d="M507.14,274.5,633.57,494.31l86.2-8.62-41.66-77.58,106.31,70.4,97.69-8.62-87.63-57.47c43.1-18.68,10-110.62-70.4-130.74C691.72,273.59,507.14,274.5,507.14,274.5ZM630.7,321.91l28.73,54.59s71.83,5.75,54.59-28.73S630.7,321.91,630.7,321.91Z"/><path class="cls-1" d="M1488.39,267.32v46s-116.3,1.44-148,1.44c-64.65,0-64.65,113.49,12.93,113.49h53.16V398.05h-48.85V359.26h130.74V465.58H1252.78s-87.64-.46-87.64-100.52,87.64-97.74,87.64-97.74Z"/><path class="cls-1" d="M1514.25,278.81V451.22h80.46l1.43-70.41,54.59,71.84H1837.5l12.93-25.86,73.27,2.87v30.17l87.64,7.18L2020,284.56l-196.83-2.88L1751.3,446.9l-46-53.16c35.3-14.64,50-30.82,58.24-46.32,19.17-36.2-16.57-68.61-46.75-68.61Zm83.33,35.92v41.66h61.77c33.17,0,33.05-41.66,0-41.66Zm270.09,76.14h57.47V314.73h-21.55Z"/><path class="cls-1" d="M2068.8,283.12l-47.41,185.33,180.27,15.73c40.23,5.75,94.14-48.77,68.28-96.18,81.89-80.46,12.93-103.44,12.93-103.44Zm80,47.09-12.74,39.34h58.33c31.32,0,44-39.34,12.75-39.34Zm-20.42,64.17-12,36.95h54.78c29.41,0,41.27-36.95,12-36.95Z"/><path class="cls-1" d="M2356.41,286.6l-87.1,205.92L2442.78,516c55.76,8,105.69-58.16,90.71-111.48,93-80.14,28.91-116.32,28.91-116.32Zm68.23,53-21.77,44.24h58.34c31.32,0,53-44.24,21.77-44.24Zm-34.17,77L2370,458.12h54.79c29.41,0,49.74-41.55,20.44-41.55Z"/><polygon class="cls-1" points="2634.86 289.97 2517.55 526.62 2716.02 567.54 2750.8 504.12 2630.09 487.75 2658.05 430.46 2780.13 445.46 2802.63 401.13 2678.51 392.95 2696.24 354.08 2825.82 360.21 2863.33 292.7 2634.86 289.97"/><path class="cls-1" d="M2750.92,583.83l150.23-288.6s156.16,2,214.48,3,157.15-15.81,157.15-15.81l-118.61,56.34S3137.37,462.26,3017.78,482l-2,211.51,33.61,38.55L2915,672.79l-7.91-208.55L2832,616.45Zm216.17-229.61-32.64,63h58.33c31.32,0,63.84-63,32.64-63Z"/><path class="cls-1" d="M1012.26,50.2l-3,15c-10.72,3.19-26.16,10.38-39.81,17.76C989.06,61.43,998,58.53,1012.26,50.2ZM857.06,389.79c-6.15-11.14-11.94-20.63-13-33.19,5.86,4.52,10.44,8.38,15.35,11.77,7.58,5.23,8,6.31,3.22,14.33C861.34,384.78,859.6,386.56,857.06,389.79Zm146.19-198c-3.82,24.34-24.73,38.63-46.37,38.64C973.11,218.29,982.56,199.34,1003.25,191.83Zm208.48,298.6,1.8-.32a.77.77,0,0,0,.36-1.3l-1.43-1.34c-4.92-4.62-8.92-8.44-13-12.12-56.39-50.5-54.1-138.94-15.89-184,22.18-26.2,49.76-45,81-58.63l11-4.79a.71.71,0,0,0,.11-1.26c-38.35-29-79.13-47-127.24-40s-89.3,27.33-119.49,66.48a1.17,1.17,0,0,0-.14,1.3l0,.05a1.18,1.18,0,0,0,1.63.47c2.91-1.65,5.86-3.26,8.7-5,23.44-14.57,47.94-26.5,75.77-29.8,18.65-2.2,37.18-1.82,54.88,5.35,11.59,4.68,12.59,8.75,4.85,18.38-15.34,19.07-29.27,38.87-37.37,62.36-12,34.85-12.84,70.15-3.09,105.27,5.2,18.72,13.48,36.61,20.86,54.67,3.49,8.52,2.55,13.27-6.09,14.59-30.55,4.68-61.09,5.15-90.65-5.61-7-2.55-13.18-7.52-19.41-12.38,19.77-5.78,39.33-9.39,59.49-6.88,5,.62,7.4-.71,8.53-5.69,11-48.48,11.31-96.63-4.5-144.21-9.2-27.68-18.1-32.68-46.72-27.11-13.5,2.62-26.13,7.35-36.3,17.07C993,321.05,966.52,346,940.67,371.64c-9.79,9.71-20.09,13.63-33.25,9.17-5.93-2-11.95-3.8-17.72-6.18-4.93-2-6.19-5.56-2.41-10,5.19-6.13,10.46-12.21,15.51-18.46,8.63-10.68,17.14-21.46,25-33.32a.77.77,0,0,0-.85-1.14c-28.21,9.69-55.86,19.46-86,16.83C838.72,300,851.67,280,878.19,272c27.67-8.37,55.68-15.56,84.79-16.7,12.7-.49,13.53-.26,15.53,11.3.2,1.14.8,2.29,1.71,1.57,35-27.55,59.44-61.28,73.2-104a1,1,0,0,0-1-1.25c-23.5,1.56-43.43,10-61.33,23.18A150.75,150.75,0,0,0,966,208.73c-22.65,26.33-52.35,39-85.19,46a69.68,69.68,0,0,1-15.66,1.8c-10.2-.17-15-5.93-11.22-15.28,6.19-15.55,12.4-31.43,21.17-45.58C907.1,144,955.21,113,1011.41,93.28c11.59-4.08,23.68-6.71,35.34-10.59a118.56,118.56,0,0,0,19.18-8.52c30-16.31,59.44-33.61,91.88-44.86,2.25-.78,4.57-1.35,8.1-2.39-2.72,24.8-12.4,46.12-21.92,69.23l-.88,2.15c-.23.58.55,1.11,1.05.74l1.54-1.16c4.23-3.15,7.63-5.7,11-8.25C1175.84,75.33,1198,72,1221,72.18c24.32.2,56.17,4.45,78.3,8.76l3.62.75a.9.9,0,0,0,.66-1.59c-1-.61-1.9-1.22-2.85-1.81-34.5-21.58-73-30.3-113.41-33.33L1196.72.88a.71.71,0,0,0-.88-.86c-14.68,3.43-27.22,6.06-39.6,9.34-37.15,9.86-70.91,27.86-105.44,44.05-7.54,3.53-16,5.1-25.44,8L1031.48,32a.81.81,0,0,0-1-.86,25.41,25.41,0,0,0-4.22,1.84C964,63.07,909.09,103,863.47,155c-21.63,24.66-36.17,53.59-45,85.3-2.9,10.44-3.09,20.32,4.09,29.22,6.24,7.72,5.75,16.71,5.36,25.84q-1,23.3-1.41,46.63c-.47,24.38,9.25,45.34,24.71,63.08,10.8,12.4,24.29,22.46,36.65,33.48.5.45.84.58,4.59,2a.66.66,0,0,0,.85-.84s-.66-1.85-.75-2.14c-3.91-13.43.43-29.16-18.35-34.75,3.43-.89,6.82-2.28,10.3-2.57,10.26-.88,20.57-1.09,30.82-2,5.36-.48,8.64,1.39,12,5.59,10.5,13,25.07,20.69,38.59,29.74a1.49,1.49,0,0,0,1.72,0h0a1.46,1.46,0,0,0,.56-1.64c-3.86-13-7.12-26.2-11.88-38.85-4-10.65-4.48-12.44,4.13-21.64L985.43,389a.75.75,0,0,0,1.18-.61s0-23.67,0-30.11a3.23,3.23,0,0,0-.39-1.44c-1.4-2.76-4.73-6.45-3.92-8.08,3.22-6.43,7.73-12.22,12.53-17.71,1.23,12.3,2.44,13.82,17.78,17.69.74.19,1.34.3,1.39-.46.49-6.52,1.8-13,1-19.16-2-15.69,7.51-22.89,19.78-26.84a177.84,177.84,0,0,1,18.21-4.64c24.16-5,23.67,2.87,31.48,15.42,1.6,2.55,3,5.2,4.44,7.86,3.15,6,2.92,7.47-3.27,12.22-1.27,1-2.46,1.58-4.24,3.13a.75.75,0,0,0,0,1.22,53.11,53.11,0,0,1,6,5.1c3.31,3.67,7.12,7.21,9.33,11.52,6.06,11.83,3.94,17.25-7.83,23.12-1.93,1-3.76,2.11-6.29,3.59-.52.31-.66.88-.19,1.25,5,4,9.3,7.65,13.87,10.91,5,3.57,7,7.63,5.89,14.09-3.58,21.73-2.44,22.78-25.93,15.76-10.61-3.17-20-10.42-29.87-15.95a.66.66,0,0,0-.94.49c-2.17,13.8,11.43,22.26,17.3,35.2l-34.47,8.82c12.48-5.6,11.5-16.86,12.1-27.26,1.07-18.53,2.87-37.11-2.59-55.34a85,85,0,0,0-15.7-29.45c-.3-.38-1.13-.08-1.06.4.92,6.61,7.51,12.42.68,16.79-.36.23-.61.56-.45,1,3.57,8.83,7.56,17,10,25.54,1.71,6.12,1.52,12.71-8.05,13.16a1.06,1.06,0,0,0-1,1.63c7.92,11.95,6.4,22,.89,32.67-6.13,11.89-11.86,13-21.47,3.91-3.87-3.64-7.22-7.81-11.21-12.31a.7.7,0,0,0-1.21.34c-3.65,16.95-.51,32.41,12,43.31,25.22,21.92,48,33.66,80.28,36.78C1115.18,505.77,1127.11,505.37,1211.73,490.43Z"/></g></g></svg>