<svg xmlns="http://www.w3.org/2000/svg" viewBox="0 0 3315.98 786.82"><defs><style>.cls-1{fill:#121212;fill-rule:evenodd;}</style></defs><title>AirGrabber-Hellcat-Outline</title><g id="Layer_2" data-name="Layer 2"><g id="Layer_1-2" data-name="Layer 1"><path class="cls-1" d="M548,567.21l83.13-12.68a21.58,21.58,0,0,0,13.79-8.08,21.62,21.62,0,0,0,12.4,2.48l86.2-8.62a21.61,21.61,0,0,0,16.88-31.72l-1-2,34.75,23a21.58,21.58,0,0,0,13.82,3.51l97.69-8.62a21.6,21.6,0,0,0,19.6-19.43A33.76,33.76,0,0,0,947.39,480q11,7.2,22,14.45a34.6,34.6,0,0,0,13.47,5.28A70.43,70.43,0,0,0,1001,523.75C1033,552,1061,564.69,1099.78,568.59a257.1,257.1,0,0,0,66-.66q36.87-5,73.47-11.8c1.21-.2,2.41-.44,3.61-.7A33.9,33.9,0,0,0,1268.75,520c1.53.13,3,.23,4.58.31l236.66,0a21.6,21.6,0,0,0,20.57-15,21.48,21.48,0,0,0,5.29.66h80.47a21.6,21.6,0,0,0,21.59-21.16l.17-8.38,17.06,22.45a21.59,21.59,0,0,0,17.19,8.53h186.78a21.61,21.61,0,0,0,19.32-11.95l6.69-13.39,38.58,1.51V493a21.6,21.6,0,0,0,19.84,21.53l87.63,7.19a22.28,22.28,0,0,0,3.83,0,21.44,21.44,0,0,0,6.12,1.45l179.82,15.69a68.4,68.4,0,0,0,22.74-1,87.63,87.63,0,0,0,25.74-9.92A21.6,21.6,0,0,0,2288,547.05l173.45,23.49c19.68,2.69,38.49-1.12,56.1-10.56a21.58,21.58,0,0,0,17.23,20.92l198.47,40.92a21.6,21.6,0,0,0,17.67-4.14A21.6,21.6,0,0,0,2764.45,637l81.05,32.62a21.59,21.59,0,0,0,27.43-10.48l37.4-75.77L2915,706.73a21.61,21.61,0,0,0,12.87,18.94L3062.29,785a21.6,21.6,0,0,0,25-34l-28.21-32.36,1.74-186a182.61,182.61,0,0,0,43-17.42c47-26.54,79-76.27,91-128.56L3303.65,335a21.6,21.6,0,0,0-12.8-40.82q-55.45,9.19-111.5,14-20.89,1.73-41.88,1.57-107.22-1.64-214.45-3a21.61,21.61,0,0,0-18.49,10,21.58,21.58,0,0,0-19.34-12.53l-228.47-2.73a21.61,21.61,0,0,0-19.61,12l-13.06,26.33A67,67,0,0,0,2595.34,303a21.7,21.7,0,0,0-11.17-3.22l-206-1.61a21.6,21.6,0,0,0-20.06,13.18l-8.88,21a55.15,55.15,0,0,0-11-17.31,68.74,68.74,0,0,0-26.18-17.53,21.81,21.81,0,0,0-7.46-1.38l-214.06-1.44a21.61,21.61,0,0,0-21.07,16.25l-7.33,28.65,1-20.84a21.6,21.6,0,0,0-20.55-22.6l-.71,0-196.82-2.87a21.61,21.61,0,0,0-20.13,13l-15.48,35.62c-9-29.49-40-51.15-70.56-51.47h-203a21.65,21.65,0,0,0-6.3.94A21.62,21.62,0,0,0,1510,278.84H1325.14a33.85,33.85,0,0,0-7.9-45.47c-44.42-34-96.45-52.8-151.32-46.51-2.54.3-5.08.66-7.6,1.09,12.69-15.94,36-41.26,57-46.78a102.15,102.15,0,0,1,26.37-2.75,443.18,443.18,0,0,1,72.72,8.13c2.1.47,4.21.87,6.35,1.17a34,34,0,0,0,24.88-60.53l-2.24-1.61c-27.2-18.83-61.92-30.09-94.52-36l1.82-8.52a33.82,33.82,0,0,0-41-40.13L1169,10.56a381.27,381.27,0,0,0-55.81,20.19l-32.76,15.4a33.93,33.93,0,0,0-38.24-13.49c-2.44.81-6.31,2.47-8.54,3.52a539.81,539.81,0,0,0-173.39,130,238.71,238.71,0,0,0-52.11,98.38c-5.6,20.24-3.88,40.22,8.41,56.62.06,1.29-.14,7-.19,8.58a145.66,145.66,0,0,0-65.51-35.93c-9-2.23-23.81-3.54-33.15-4.07q-19-1.29-38-1.87-75.5-2.19-151-1.88a21.64,21.64,0,0,0-15.83,7,21.61,21.61,0,0,0-17.42-8.43L387.66,286a21.6,21.6,0,0,0-19.54,13L357,282.61a21.58,21.58,0,0,0-16.25-9.45L23.26,248.73a21.6,21.6,0,0,0-8.91,41.89l174.5,62.22,40.91,160L95.69,554.2a21.6,21.6,0,0,0,6,42.24L245.26,599l8.63,42.27-35.18,36.35a21.6,21.6,0,0,0,24.51,34.66l153.72-70.4a21.59,21.59,0,0,0,12-24.74l-7.15-29.37L413,586.5l10.37,19.89a21.61,21.61,0,0,0,24.81,10.85l84.76-23a21.59,21.59,0,0,0,15.19-26.5C548.11,567.57,548.05,567.39,548,567.21Zm644.81-128c19.86,59.22,81.57,59.54,81.57,59.54H1510V392.39H1379.25v38.79h48.85v30.17h-53.16c-77.58,0-77.58-113.5-12.93-113.5,31.68,0,148-1.44,148-1.44v-46H1274.38a96.07,96.07,0,0,0-36.16,7.65,207.12,207.12,0,0,1,52.35-31.67l11.09-4.84a12.24,12.24,0,0,0,2.46-21c-42.47-32.42-89.61-47.7-135.78-42.21-33,3.93-63.53,22.23-63.53,22.23s34.16-67.1,80.42-98.56c7.57-5.15,15.7-9.45,24.57-11.71a124,124,0,0,1,32.45-3.46,465.72,465.72,0,0,1,76.39,8.55l-.11,0,4.65.91a12.41,12.41,0,0,0,9.08-22.09l-.85-.6c-31-21.18-71.45-31.85-108.53-35.84l6.69-31.23A12.22,12.22,0,0,0,1214.7,22l-39.92,9.42a361.56,361.56,0,0,0-52.65,19.05l-54.26,25.5Q1065,77,1062.13,78l2.4-11.55a12.33,12.33,0,0,0-15.9-13.2l-5.72,2.42A518.1,518.1,0,0,0,876.45,180.52,220,220,0,0,0,829,270.35c-4.2,15-3,28.16,6.26,39.62,3.41,4.2,3.11,12.11,2.8,17.63l-1.45,47.2a100.55,100.55,0,0,0,27.8,71.29,360.44,360.44,0,0,0,37.85,34.6,30.25,30.25,0,0,0,7.64,3.79,12.17,12.17,0,0,0,15.81-15.61,30.39,30.39,0,0,1-1.9-9A58.52,58.52,0,0,0,920.63,444l17.75-1.17a.89.89,0,0,1,.28,0,3.81,3.81,0,0,1,1.05,1A81.84,81.84,0,0,0,959.45,462l21.78,14.34a13,13,0,0,0,16.91-2.19c1.38,13.6,7,24.52,17.07,33.35,28.73,25.06,52.47,36.2,86.73,39.56a235,235,0,0,0,60.94-.56q36.4-4.95,72.55-11.65l-.1,0,2.51-.47a12.29,12.29,0,0,0,5.73-20.71L1228.87,500A122.79,122.79,0,0,1,1192.81,439.16ZM21.6,270.27l185.33,66.09,48.85,191.07L102.05,574.84,263,577.72l14.37,70.39-43.1,44.54L388,622.25,375,569.1l50.28-5.75,17.24,33,84.77-23L339.1,294.69Zm287.33,94.82L319,362.22,390.82,498.7l-44.53,11.49Zm79-57.47L543.11,546.11l84.76-12.93-132.17-227Zm140.79,0L655.17,527.43l86.2-8.62-41.66-77.58L806,511.63l97.7-8.62-87.64-57.47c43.1-18.67,10-110.62-70.4-130.73C713.32,306.72,528.74,307.62,528.74,307.62ZM652.3,355s66.08-8.62,83.32,25.86S681,409.63,681,409.63Zm1438.1-38.79L2043,501.57l180.27,15.73c40.23,5.75,94.14-48.77,68.28-96.18,81.89-80.45,12.93-103.44,12.93-103.44Zm80,47.09h58.34c31.2,0,18.57,39.35-12.75,39.35h-58.33ZM2150,427.51h54.78c29.31,0,17.45,36.94-12,36.94H2138Zm228-107.78-87.11,205.92,173.47,23.49c55.76,8,105.7-58.16,90.71-111.47,93-80.15,28.91-116.33,28.91-116.33Zm68.22,52.95h58.34c31.2,0,9.55,44.24-21.77,44.24h-58.34Zm-34.17,77h54.78c29.3,0,9,41.55-20.44,41.55h-54.79Zm244.39-126.6-117.3,236.66,198.46,40.92,34.78-63.43-120.71-16.37,28-57.28,122.08,15,22.5-44.33-124.12-8.18,17.73-38.88,129.58,6.14,37.51-67.52ZM2772.52,617l81,32.61,75.12-152.21,7.91,208.55L3071,765.21l-33.61-38.54,2-211.52c119.59-19.76,136.39-143.31,136.39-143.31l118.61-56.34s-98.84,16.8-157.15,15.82-214.48-3-214.48-3Zm216.17-229.62H3047c31.2,0-1.32,63-32.64,63h-58.33ZM1535.85,311.93V484.34h80.47l1.42-70.4,54.59,71.84h186.78L1872,459.91l73.27,2.87V493l87.64,7.19,8.62-182.46-196.83-2.87L1772.9,480l-46-53.15c35.3-14.64,50-30.83,58.24-46.32,19.17-36.21-16.57-68.62-46.75-68.62Zm83.33,35.92H1681c33,0,33.17,41.66,0,41.66h-61.77ZM1889.27,424l35.92-76.14h21.55V424ZM1033.86,83.32l-3,15c-10.72,3.18-26.16,10.37-39.81,17.76C1010.66,94.55,1019.58,91.66,1033.86,83.32ZM878.66,422.91c-6.15-11.14-11.94-20.63-13-33.19,5.86,4.52,10.44,8.38,15.35,11.77,7.58,5.23,8,6.31,3.22,14.33C882.94,417.9,881.2,419.68,878.66,422.91Zm146.19-198c-3.82,24.34-24.73,38.63-46.37,38.63C994.71,251.41,1004.16,232.47,1024.85,225Zm208.48,298.59,1.8-.32a.77.77,0,0,0,.36-1.3l-1.43-1.34c-4.92-4.61-8.92-8.43-13-12.12-56.39-50.49-54.1-138.94-15.89-184,22.18-26.19,49.76-44.95,81-58.63l10.95-4.78a.72.72,0,0,0,.11-1.27c-38.35-29-79.13-47-127.24-40s-89.3,27.34-119.49,66.48a1.19,1.19,0,0,0-.14,1.31l0,.05a1.19,1.19,0,0,0,1.63.46c2.91-1.65,5.86-3.25,8.7-5,23.44-14.58,47.94-26.51,75.77-29.8,18.65-2.21,37.18-1.82,54.88,5.34,11.59,4.69,12.59,8.75,4.85,18.38-15.33,19.08-29.27,38.87-37.37,62.36-12,34.85-12.84,70.15-3.09,105.28,5.2,18.72,13.48,36.6,20.86,54.67,3.49,8.51,2.55,13.26-6.09,14.59-30.55,4.68-61.09,5.14-90.65-5.61-7-2.56-13.18-7.53-19.41-12.38,19.77-5.79,39.33-9.4,59.49-6.88,5,.62,7.4-.71,8.53-5.7,11-48.47,11.31-96.63-4.5-144.2-9.2-27.69-18.1-32.68-46.72-27.12-13.5,2.62-26.13,7.35-36.3,17.07-26.3,25.16-52.81,50.13-78.66,75.75-9.79,9.71-20.09,13.64-33.25,9.17-5.93-2-11.95-3.79-17.72-6.18-4.93-2-6.19-5.55-2.41-10,5.19-6.13,10.46-12.2,15.51-18.45,8.63-10.69,17.14-21.47,25-33.33a.78.78,0,0,0-.86-1.14c-28.21,9.7-55.86,19.46-86,16.84-2.23-28.48,10.72-48.56,37.24-56.58,27.67-8.36,55.68-15.56,84.79-16.69,12.7-.5,13.53-.27,15.53,11.3.2,1.14.81,2.28,1.71,1.57,35-27.55,59.44-61.29,73.2-104a1,1,0,0,0-1-1.26c-23.5,1.57-43.43,10-61.33,23.18a151.63,151.63,0,0,0-25.1,22.68c-22.65,26.33-52.35,39-85.19,46a69.6,69.6,0,0,1-15.66,1.79c-10.2-.17-15-5.92-11.22-15.27,6.19-15.56,12.4-31.43,21.17-45.58,32-51.66,80.13-82.66,136.33-102.42,11.59-4.08,23.68-6.7,35.34-10.59a118.52,118.52,0,0,0,19.18-8.51c30-16.32,59.44-33.62,91.88-44.86,2.25-.78,4.57-1.36,8.1-2.4-2.72,24.8-12.4,46.12-21.92,69.24l-.88,2.15c-.23.57.55,1.11,1,.73l1.54-1.15,11-8.26c19.1-14.3,41.24-17.62,64.22-17.44,24.32.19,56.17,4.44,78.3,8.76l3.62.75a.91.91,0,0,0,.66-1.59c-1-.62-1.9-1.22-2.85-1.82-34.5-21.58-73-30.29-113.41-33.33L1218.32,34a.7.7,0,0,0-.88-.85c-14.67,3.42-27.22,6.05-39.6,9.34-37.15,9.85-70.9,27.86-105.44,44-7.54,3.54-16,5.1-25.44,8l6.13-29.38a.81.81,0,0,0-1-.86,26.32,26.32,0,0,0-4.22,1.83c-62.21,30.08-117.14,70-162.76,122-21.63,24.67-36.17,53.59-45,85.31-2.9,10.43-3.09,20.31,4.1,29.21,6.23,7.72,5.74,16.71,5.35,25.84q-1,23.31-1.41,46.63c-.47,24.39,9.25,45.34,24.71,63.08,10.8,12.4,24.29,22.46,36.65,33.49.5.44.85.58,4.59,2a.66.66,0,0,0,.85-.84s-.66-1.86-.75-2.14c-3.91-13.44.43-29.16-18.35-34.76,3.43-.89,6.82-2.27,10.3-2.57,10.26-.87,20.57-1.09,30.82-2,5.36-.48,8.64,1.4,12,5.59,10.5,13,25.07,20.7,38.59,29.74a1.49,1.49,0,0,0,1.72,0h0a1.48,1.48,0,0,0,.56-1.65c-3.86-13-7.12-26.2-11.88-38.85-4-10.65-4.48-12.44,4.13-21.64L1007,422.11a.75.75,0,0,0,1.18-.61s0-23.66,0-30.1a3.23,3.23,0,0,0-.39-1.44c-1.4-2.76-4.73-6.46-3.91-8.09,3.21-6.43,7.72-12.21,12.52-17.71,1.23,12.3,2.44,13.82,17.78,17.7.74.18,1.34.29,1.39-.46.49-6.53,1.8-13,1-19.16-2-15.69,7.5-22.89,19.77-26.84a177.88,177.88,0,0,1,18.21-4.65c24.16-5,23.67,2.87,31.48,15.42,1.6,2.56,3,5.2,4.44,7.87,3.15,6,2.92,7.47-3.26,12.21-1.28,1-2.47,1.59-4.25,3.14a.75.75,0,0,0,0,1.22,53.12,53.12,0,0,1,6,5.09c3.31,3.68,7.12,7.22,9.33,11.52,6.07,11.83,3.94,17.26-7.83,23.13-1.93.95-3.76,2.11-6.29,3.59-.52.3-.66.87-.19,1.24,5,4,9.3,7.66,13.88,10.91,5,3.57,7,7.63,5.88,14.09-3.58,21.73-2.43,22.78-25.93,15.76-10.61-3.17-20-10.42-29.87-15.95a.67.67,0,0,0-.94.49c-2.17,13.81,11.43,22.26,17.3,35.21l-34.47,8.82c12.48-5.61,11.5-16.87,12.1-27.27,1.07-18.52,2.87-37.1-2.59-55.33a85.14,85.14,0,0,0-15.7-29.46c-.3-.38-1.13-.07-1.06.41.92,6.6,7.51,12.42.68,16.79-.36.23-.61.55-.45,1,3.57,8.83,7.56,17,10,25.54,1.71,6.11,1.52,12.7-8,13.15-.91,0-1.49.87-1,1.63,7.92,11.95,6.41,22,.89,32.68-6.13,11.88-11.86,12.95-21.47,3.91-3.87-3.64-7.22-7.82-11.21-12.31a.69.69,0,0,0-1.21.34c-3.65,16.94-.51,32.4,12,43.3,25.22,21.92,48,33.66,80.28,36.79C1136.78,538.89,1148.71,538.5,1233.33,523.55Z"/></g></g></svg>