<svg xmlns="http://www.w3.org/2000/svg" viewBox="0 0 3457.48 676.69"><defs><style>.cls-1{fill:#121212;fill-rule:evenodd;}</style></defs><title>AirGrabber-SP-Bee-Outline</title><g id="Layer_2" data-name="Layer 2"><g id="Layer_1-2" data-name="Layer 1"><path class="cls-1" d="M383,173c-21.51-31.86-22.81-28.58-29.16-29.07L22.49,118.41a20.89,20.89,0,0,0-8.62,40.5l183,65.24,43.3,169.39L98.7,437.15A20.89,20.89,0,0,0,104.48,478l151.19,2.7L265.12,527l-37.33,38.57a20.89,20.89,0,0,0,23.71,33.52l160.43-73.48a20.87,20.87,0,0,0,11.6-23.92l-7.9-32.48,14.71-1.68,11.36,21.77a20.88,20.88,0,0,0,24,10.49l88.47-24a20.85,20.85,0,0,0,13.9-28l.27,0,88.47-13.49a20.89,20.89,0,0,0,14.18-9,20.9,20.9,0,0,0,13.23,3.13l90-9a20.9,20.9,0,0,0,16.32-30.67l-4.21-7.85L828,408.55A20.89,20.89,0,0,0,838.28,412a81.75,81.75,0,0,0,56.53,51.67,261.06,261.06,0,0,0,64.08,10.22l150.57,1.33,28.9,12.29,14.73,3.42a729,729,0,0,0,191.56-6.3c20.72-4.74,40.44-13,42.06-37.53q-2.16-24.24-3.16-48.56h190.73a20.88,20.88,0,0,0,20.32-16.08,20.7,20.7,0,0,0,6.66,1.09h84a20.88,20.88,0,0,0,20.89-20.46l.27-13.5,20.68,27.21a20.88,20.88,0,0,0,16.63,8.25h194.93a20.88,20.88,0,0,0,18.68-11.55l7.46-14.93,42.93,1.68c0,14.77,1.44,30.77,19.18,32.22l91.46,7.5a20.4,20.4,0,0,1,10.39,1.49l188,16.4a78.54,78.54,0,0,0,45.7-9.17c2-1.07,4-2.2,6-3.4a20.9,20.9,0,0,0,18.08,21.19l181.77,24.6A102.28,102.28,0,0,0,2627.63,439a20.89,20.89,0,0,0,16.54,22.82l207.13,42.71a20.88,20.88,0,0,0,20-6.8,20.88,20.88,0,0,0,12.82,22.72l84.59,34a20.89,20.89,0,0,0,26.53-10.13l41.91-84.94,5.13,135.28A20.9,20.9,0,0,0,3054.74,613L3195,674.9a20.89,20.89,0,0,0,24.18-32.83l-29.86-34.25,1.83-196c72.38-18.55,126.09-80.41,140.39-152.39l114-54.14a20.89,20.89,0,0,0-12.5-39.45,1155.89,1155.89,0,0,1-160.65,16.2L3049,179a20.88,20.88,0,0,0-18.81,11.24l-.79,1.52a20.89,20.89,0,0,0-19.91-15.4l-238.45-2.85a20.9,20.9,0,0,0-19,11.61l-15.54,31.34a68.24,68.24,0,0,0-30.4-41.66c-6.47-4-212-4.69-225.79-4.8a20.88,20.88,0,0,0-19.4,12.75l-11.08,26.2a60.64,60.64,0,0,0-39.92-40l-229.79-2.55A20.9,20.9,0,0,0,2159.8,182l-11.67,45.65,1.79-38A20.88,20.88,0,0,0,2130,167.86l-.68,0-205.42-3a20.87,20.87,0,0,0-19.46,12.55l-18,41.42c-7.47-32.35-40.26-56.4-73.06-57-9.17-.16-215.34-.28-219.65,1.38a20.88,20.88,0,0,0-19.49-13.39H1328a121.32,121.32,0,0,0-24.25,2.85,30.66,30.66,0,0,1,4.14-15.61c8.37-12.77,11.72-27.65,2.62-41l16.23-27.34c10.07-20.63,9.84-46.61-13.41-58.06A106.86,106.86,0,0,0,1238,4a227.24,227.24,0,0,0-156.32,118.48l-7,.31c-2.25-6.62-13.39-32.52-19-42-26-44.1-55.43-74.3-102.85-55.61-32.43,12.79-55.25,32.92-64.62,67.47a120.34,120.34,0,0,0-83.48,80.6c-13.15-5.64-40.17-10.52-57.6-12q-98.46-4.54-197.07-3.89a20.85,20.85,0,0,0-16.59,8.38,20.89,20.89,0,0,0-18-9.88L403,157.34A20.88,20.88,0,0,0,383,173Zm976.42,204.67h214.84V266.69H1437.83v40.48h51v31.49h-55.48c-81,0-81-118.45-13.49-118.45,33.06,0,154.44-1.5,154.44-1.5v-48H1328.37a100.34,100.34,0,0,0-47.11,12.61l1.85-35.25a44.57,44.57,0,0,1,7.81-23.14c2.34-3.63,4.12-6.91,4.17-11.33.08-6.72-7.23-11.53-13.33-10l25.59-42.58c10.55-21.47,4.8-31.25-16.24-36.73a126.21,126.21,0,0,0-49,.14c-69.89,13.11-114.29,57.72-147,118.31a362.85,362.85,0,0,0-39,1.72c5.52-22.22-38.46-93.3-61.75-101.44-21.59-7.55-54.6,7.13-68.27,23a80.23,80.23,0,0,0-19.95,44.15c-43.62,9.11-80.65,39.43-84.74,83.7a88,88,0,0,0-.27,12.35,130.49,130.49,0,0,0-44.48-20.58c-33.77-8.44-226.41-7.5-226.41-7.5l132,229.41,90-9-43.48-81,110.95,73.47,12.05-1.06a172.94,172.94,0,0,0,9.18,21.57,63.44,63.44,0,0,0,39.67,31.9A240.4,240.4,0,0,0,959.59,453q77.08,2.4,154.22,1.36l29.55,12.87c1.54.53,11.2,2.84,11.8,2.91,41.89,4.72,139.21,5.7,186.06-6.13l13.16-4a16.66,16.66,0,0,0,10.09-9.18,82.88,82.88,0,0,0,1.86-8.32,39.62,39.62,0,0,0-1.17-12.64c-1.38-3.86-1.69-13.64-1.65-18.88A124,124,0,0,0,1359.44,377.64ZM679.13,227.7s69-9,87,27-57,30-57,30ZM20.89,139.24l193.42,69,51,199.42L104.85,457.11l167.94,3,15,73.47-45,46.49,160.44-73.48-13.5-55.47,52.48-6,18,34.48,88.47-24L352.26,164.73Zm299.88,99,10.49-3,75,142.44-46.49,12Zm82.47-60L565.17,427.13l88.47-13.5L515.69,176.72Zm1776.8,9-49.48,193.42,188.13,16.42c42,6,98.25-50.9,71.26-100.38,85.47-84,13.5-108,13.5-108Zm83.49,49.15h60.88c32.57,0,19.39,41.06-13.3,41.06h-60.88Zm-21.31,67h57.17c30.58,0,18.2,38.56-12.49,38.56h-57.18Zm238-112.48L2389.3,405.77l181,24.52c58.2,8.34,110.32-60.7,94.68-116.34,97-83.65,30.17-121.41,30.17-121.41Zm71.21,55.26h60.88c32.56,0,10,46.18-22.72,46.18H2528.7Zm-35.67,80.38h57.18c30.58,0,9.35,43.36-21.34,43.36h-57.18Zm255.06-132.13-122.42,247,207.13,42.71,36.3-66.2-126-17.08L2795,341l127.41,15.66,23.49-46.27-129.54-8.54,18.5-40.57,135.24,6.4,39.15-70.47Zm121.13,306.69,84.59,34.05,78.39-158.86,8.25,217.65,140.29,61.9-35.07-40.23,2.06-220.75c124.82-20.63,142.36-149.58,142.36-149.58l123.78-58.79s-103.15,17.53-164,16.5-223.85-3.09-223.85-3.09Zm225.61-239.63h60.88c32.57,0-1.38,65.77-34.07,65.77h-60.88ZM1601.26,182.72V362.66h84l1.49-73.48,57,75h194.93l13.49-27,76.47,3v31.49l91.46,7.49,9-190.42-205.42-3-75,172.43-48-55.48c36.85-15.27,52.23-32.17,60.79-48.34,20-37.78-17.3-71.61-48.8-71.61Zm87,37.49h64.48c34.48,0,34.61,43.48,0,43.48h-64.48Zm281.89,79.47,37.48-79.47h22.5v79.47ZM873.88,276.37s-44.73,46.5-3.76,130.58c15.75,32.33,65.41,33.5,89.82,35.61,26.69,2.31,156,1.32,156,1.32s28.57,14.51,39.84,15.83,82.69,3.3,107.87,2.64,59.75-4.62,75.54-8.58,16-4.8,16.91-13.18c1.15-10.86-3.63-2.11-3-29.68.87-38.42-16.09-63-43.79-97s-40-38.88-46-44.82c34.16-8.7,12.21-32.25-.91-35.17,1.26-6.78,5-10.17,7.25-27,3.13-23.2,1.37-35.4,3.1-59.41,1.64-22.72,12.37-29.79,12-33.4S1250,136.38,1251,134.6c.88-1.6,53.87-79.66,51.13-92.3-2.35-10.82-53.09-18-107.36,8.43s-89.92,96.08-93.44,102.61a350.61,350.61,0,0,0-63.28,3.95c-2.94-6.7,8.62-5.84,8.42-20.63s-37-77.51-54.85-83.53c-11.51-3.88-40.75.35-57.79,19.94S916,112.77,916,119.13c-21.15,2.07-79,21.32-84.23,75.8s42.51,77.52,42.51,77.52Zm137.92-21.2c-2.24,5.23,7.39,7.79,1.24,15-15.91,18.76-68.1,20.94-61.89,19.63a277.33,277.33,0,0,0,32.93-9.6c13.09-4.67,21.89-13.34,22.5-15,1.24-3.49-1.49-7.42-5.22-8.29s-3,1.09-2.24,5.67-18.89,11.34-33,15.05-29.83,3.92-39.28.87-14.91-20.5-8.94-28.35,16.65,4.58,62.13,4.58c10.51,0,19.5-1.4,24.75-4.5,11.9-7,11.8-19.17,9.55-18-3.23,1.74-4.22,7.63-12.17,8.07s-3.48-7.2-11.94-7.42c-5.24-.13-8.2,10.69-16.65,10.69s-26.34-6.76-32.06-8.51-35.66-14.5-48.27-.58,19.37,56.72,39.21,75.76,50.18,43.41,88.22,49.76c-52.74-20.89-76.32-51.6-76.32-51.6s34.44,20.22,72.47,20.22,34.8-.66,45.48-2.84-2.48-12.43.25-39.91,28.34-38.81,25.6-46.88-4.22,4.14-25.1,3.92-22.37-1.3-28.34-3.92,29.37-11.33,33.56-33.36c1-5.24-11.19,5.45-23.86,7.41s-18.39,1.31-21.13,4.8-.74,13.52-3.73,22.68S1014,249.93,1011.8,255.17Zm218.66-101.33s23.57,8.1,30.33,26.77c7.11,19.63-3.37,49.77-4.57,51.3-4.75,6.1,3.66-24.85-10.6-46.33-9.9-14.93-31.25-21-31.25-21ZM1203,255.33c-9.43-1.2-20.47.81-24.48,11.83-2.66,7.28.29,19.31,2.47,26.38,2.69,8.69,6.94,16.64,11.63,24.64,8.14,14,18.93,25.83,30.06,38.11A215.19,215.19,0,0,0,1263.73,392c8.17,5.52,17,11,26.39,14.81,6.92,2.81,15.71,5.13,23,4.52s13.49-4.74,15.59-10.71c2.65-7.31.8-16.88-1.43-23.93A121.22,121.22,0,0,0,1316,351.48a238.22,238.22,0,0,0-29.18-39.74A234.53,234.53,0,0,0,1244.25,274C1233,266.18,1216.56,256.4,1203,255.33Zm-8,11.12a18.79,18.79,0,0,1,14.19-1.73c14.84,3.5,24.06,9,36,17.88a235.11,235.11,0,0,1,36.1,33c17.41,19.66,33.84,38.34,39.1,62.32,1.34,6.15,2.63,17-3,21-4.56,2.43-13.66,2.85-18.43,1.57-27.55-7.42-52.87-30.71-70-49.71s-34-42.83-38.9-65.89C1188.72,278.58,1189.48,270.64,1194.93,266.45ZM922.3,216c-27.34-1.76-69.92-10.1-81.06-36.78,14.45,13.45,29.08,19.93,32.81,21.31a130.78,130.78,0,0,0,18.19,5.26,214.23,214.23,0,0,0,30.67,4.2c29.78,2.31,61.12,1.83,87.66-11.86a3.72,3.72,0,0,1,4.71,1.08,2.82,2.82,0,0,1-1.23,4.13,117.16,117.16,0,0,1-41,12.21A254.73,254.73,0,0,1,922.3,216Zm-39.57,16.31c4.8,1.69,3.91,7.26-2.18,5.34-23-7.24-37-19.37-41.15-37.46,12,15.22,25.3,23.56,28.75,25.43C872.83,228.15,873.71,229.13,882.73,232.32ZM1151,211.69c-1.44,1.25-3.24-.14-2-4,.37-1.14.72-2.55,1-3.78a7,7,0,0,0-2.15-5.54c-6.4-6.63-17.16-9.47-26.76-10.56a61.44,61.44,0,0,0-18.46.69,31.61,31.61,0,0,0-8.85,3.08,8.79,8.79,0,0,0-5.08,5.93,35.15,35.15,0,0,0-.42,4.83c.16,3.33-1.25,5.63-3.31,2.84-4.12-5.59-3-12.8,3.75-17a32.52,32.52,0,0,1,10.31-4.38,70.75,70.75,0,0,1,42.52,3.72,35.41,35.41,0,0,1,9.26,5.72C1157.79,198.7,1157.56,206,1151,211.69Zm55,10.27c-1.27.77-2.4-.48-.87-3.24.45-.81.93-1.82,1.32-2.7a5.21,5.21,0,0,0-.76-4.4c-3.78-5.71-11.4-9.09-18.41-11a46.38,46.38,0,0,0-13.9-1.64,24.51,24.51,0,0,0-7.09,1.26,7.1,7.1,0,0,0-4.7,3.84,26.81,26.81,0,0,0-1.05,3.57c-.39,2.5-1.8,4.06-2.91,1.73-2.23-4.66-.26-9.92,5.39-12.26a25.65,25.65,0,0,1,8.37-2.06,50.17,50.17,0,0,1,17.27,1.7,48.49,48.49,0,0,1,14,6.06,25.18,25.18,0,0,1,6,5.37C1213.1,213.05,1211.81,218.48,1206.05,222Zm37.68,17.59c-1,.37-1.61-.64-.08-2.38.44-.51.93-1.16,1.35-1.73a3.7,3.7,0,0,0,.18-3.18c-1.73-4.47-6.51-7.79-11.11-10a32,32,0,0,0-9.48-2.88,17.57,17.57,0,0,0-5.17,0,5.45,5.45,0,0,0-3.91,2.1,21,21,0,0,0-1.31,2.37c-.68,1.71-1.92,2.62-2.32.85-.81-3.54,1.42-7,5.76-7.92a19,19,0,0,1,6.2-.4,35.08,35.08,0,0,1,11.82,3.34,32.58,32.58,0,0,1,8.81,6,16.68,16.68,0,0,1,3.37,4.51C1250.11,234.18,1248.33,237.82,1243.73,239.55Zm26.81,20.54c-.89.17-1.19-.75.38-2,.46-.35,1-.81,1.43-1.22a3.14,3.14,0,0,0,.73-2.57c-.58-3.91-3.89-7.3-7.24-9.79a25.44,25.44,0,0,0-7.22-3.71,14.67,14.67,0,0,0-4.23-.73,4.8,4.8,0,0,0-3.59,1.16,17.82,17.82,0,0,0-1.51,1.76c-.87,1.3-2,1.87-2.06.36,0-3,2.46-5.51,6.18-5.66a15.66,15.66,0,0,1,5.15.56,27.53,27.53,0,0,1,9,4.41,25,25,0,0,1,6.1,6.16,13,13,0,0,1,1.93,4.17C1276.76,256.61,1274.63,259.34,1270.54,260.09Zm-243.92-94.24c-4.13.84-8.1,1.7-11.79,2.57l2.63,8.58a383.29,383.29,0,0,1,58.06-9.05c4.12-.21,13.81-.86,18.23.38l3.08-8.46c-4.39-1.23-7-1.36-11.92-1.29-15.44.24-35.55,2.92-53.32,6.3a7.6,7.6,0,0,0,2.45-5.76c0-3.89-2.57-7-5.75-7s-5.76,3.14-5.76,7C1022.53,162.29,1024.25,165,1026.62,165.85Zm182.59,2.28c19.9,9.6,34.87,25.32,34.63,50.4l-7-3.05c-.57-18.87-15.36-35.1-33.47-43.82Zm19.62,44.8-8.75-.65c-2-15.75-14.14-25.36-28.28-33.45l7.17-4.6C1214.57,183.16,1226.56,194,1228.83,212.93Zm-21.41-15.17A95.49,95.49,0,0,0,1176,188l11.13-6.32S1205.12,192,1207.42,197.76Zm33.31,90.17L1218,323.67s9.09,19.95,43.1,48.19c4.87,4,40.92,34.62,51.83,19.46s-18.08-51.33-23.46-58.55C1271.28,308.36,1240.73,287.93,1240.73,287.93Zm59.46,33.95c13.29,13.56,58.34,75.54,31.08,94.11-32.16,21.91-86.78-29.32-99.54-42.09,47.08,36.89,79.46,51.58,96.31,36.1C1347.08,392.5,1316.18,344.42,1300.19,321.88Zm-72.77-71.1c-3.78,0-39.35-19.39-62.53-3-7.65,5.4-6.65,27.58,4.49,58.17s65.76,82.76,61.45,82.6-39-32.63-62.17-62.11-19.58-38.94-30.72-55.65-38.28-21.12-39.89-22.07,25-11.82,67.56-12.93S1231.19,250.78,1227.42,250.78Zm-153.63,91c-4.67-15.92-.9,23.18,12.4,45.09s31.08,41.93,37.55,43.51-14.19-17.82-27.31-40.2C1090.65,380.27,1081.7,368.7,1073.79,341.74ZM946,381.78c-9.07-10.69,7.43,17.64,25.07,30.51s38,23.11,43.41,22.56S997.57,425.29,979.9,412C972.11,406.17,961.34,399.89,946,381.78Zm-68.27-99.25c3-.06,21.11,13.64,21.73,18.32s.69,2.91-2.71,3.39-26.44-9.77-26-13.23S874.7,282.6,877.71,282.53Zm54,76c1.88,6.63-8.31-5.07-12-15.3s-10.88-22.6-3.76-24.94,5,9,8.82,19.29A201.35,201.35,0,0,1,931.74,358.49ZM986.66,258.1c-.14-1.48-17.64.87-32.59-.61s-30.05-9.66-31.89-3,1.41,7.92,4.94,8.78,19,1.61,29.49.62S987.11,262.92,986.66,258.1Zm2.11,5.37c-.4-1.45-7.47,1.32-33.58,3.18s-32-3.1-30.61,3.46c1.45,6.76,2.68,6.32,6.32,6.69s21.5-.31,31.63-2.73S990.08,268.16,988.77,263.47Zm88.16-55.2c1.32,3.93,5.43,14.63,4.29,17.29s-14.78,12-23.13,12.42-18.95,1.78-6.06-5.65,18.2-13.86,19.84-19C1073.36,208.75,1074.27,200.39,1076.93,208.27Zm-67.24,16.09a32.31,32.31,0,0,0,3.3-10.78,2.47,2.47,0,0,1,2.78-2A2.31,2.31,0,0,1,1018,214a35.9,35.9,0,0,1-3.75,12.21l0,.07a32.93,32.93,0,0,1-9,9.61,2.77,2.77,0,0,1-3.56-.31,2.05,2.05,0,0,1,.36-3.13A28.2,28.2,0,0,0,1009.69,224.36Zm-26.28,7.46a35,35,0,0,1-10.5,8.16,2.73,2.73,0,0,1-3.46-.8,2.07,2.07,0,0,1,.9-3,30.18,30.18,0,0,0,9-7,2.79,2.79,0,0,1,3.55-.42A2,2,0,0,1,983.41,231.82Zm-63.75-66.88c0-.72,1.47-21.93-7.72-18.71s-15.81,8.39-22.43,21.29-7.35,25.81-3.3,31.29,39,7.42,68,7.1,56.62-9.36,57.72-17.1-4-19.67-9.56-25.8c-2.67-3-6.38-8.24-9.16-11-3-2.88-5.59-4.87-4.07-9.69,2.94-9.35,12.5-28.71,16.18-30.32s5.51,1.61,10.29-2.26-1.84-7.74-6.62-6.45-18.38,17.74-23.53,33.23-3.67,20-5.88,21.93,2.94-18.71-14-22.26-29,1.83-27.28-2.95c3.26-9.27,12.73-25.47,16.46-27s5.46,1.75,10.37-2-1.58-7.79-6.4-6.62S936,121.21,930.32,136.56,919.66,177.52,919.66,164.94Zm229.42,53.55L1147.61,233s-16.18.33-25,1.94-19.12,7.1-24.27,4.51l-11.4-27.09s11.77,9,32.36,9.68A108.3,108.3,0,0,0,1149.08,218.49Zm52.69,7.68-4.16,7.16s-8.46-.33-18.75-1.29-16.93.74-20.22-1.62c-.61-2.81,0-15,0-15s7.1,7.61,21.58,10.21A78.24,78.24,0,0,0,1201.77,226.17Zm40.63,17.13-9.5,5.19s-3.67-2.26-11.39-6.13-10.68-2.78-12.87-5.09c0-2.31,1.55-8.35,1.55-8.35s4.27,7,15.27,11A62.2,62.2,0,0,0,1242.4,243.3ZM1266.93,264l-10.39,3.1a37.21,37.21,0,0,0-7.3-8.12c-5.24-4.58-8.17-3.72-9.35-6,.58-1.84,4.78-6.66,4.78-6.66s1.7,6.42,9.52,11.74A48.84,48.84,0,0,0,1266.93,264ZM1090,172.11a213.07,213.07,0,0,0-32.54,1.85c-17.17,2.38-32.23,3.17-35.24,6.87s-2.71,9.78-.3,13.22,5.72-1.59,8.73,7.13c1.68,4.87,18.08,2.65,18.08-5.28s.9-8.2,11.44-9.78,9,2.11,10.55,4.49,6.32,2.38,8.13-3.43,0-1.85-4.52-4.5,4.82-4.75,9.34-3.7S1090,172.11,1090,172.11Zm-52.42,15.33c3.49,0,6.33,1.54,6.33,3.44s-2.84,3.43-6.33,3.43-6.32-1.54-6.32-3.43S1034.08,187.44,1037.57,187.44ZM1294.36,45.12c0,3.61-25.06,49.26-57.45,89.18-13.43,16.56-60.59,39.54-83.83,53.58-9.36-7.68-31.7-10.6-31.7-10.6S1148,111.85,1192,76.11c35.55-28.89,89.85-29.4,92.68-30.46,6.34-2.39-73.66-10.6-121.06,41.58-39.78,43.8-56.75,86.35-58.56,90.58l-12.38,2.39c38.94-64.36,58.26-93.24,85.43-112a162.26,162.26,0,0,1,86-29.14C1279.87,38.23,1294.36,39.82,1294.36,45.12Zm-315.22,87c-12-7.79-29.79-10.32-29.79-10.32s2.35-8,6.8-10.77,13-.25,15.15-7.34c2.35-7.57-4.18-10.55-11-10.55s-12,4.59-17,11.93l-9.15,14H924s4.44-38.29,22.74-48.38S972.35,56.42,985.68,58s53.56,65.49,52.52,77.27c-.52,6,1,13.53-9.93,13.07s-9.41,9.17-9.41,11.69-3.39,4.36-7.31,2.53-4.18-5.51-8.37-10.09-7.84-6-7.31-12.38,8.1-22,12-23.62,9.67,0,12.54-6-.52-8.94-4.44-10.55a12.47,12.47,0,0,0-11.24,1.38c-2.35,1.83-11.23,8.94-14.89,17.42S982.4,134.2,979.14,132.08Z"/></g></g></svg>