<svg xmlns="http://www.w3.org/2000/svg" viewBox="0 0 354.47 190.1"><defs><style>.a{fill-rule:evenodd;}</style></defs><title>Angry-Bee</title><path class="a" d="M293,43.48c-2.18-.52-4.18,0-4.46,1.19s1.28,2.54,3.47,3,4.18,0,4.45-1.19S295.22,44,293,43.48ZM328,48.53c-1.77-.42-3.38,0-3.61,1s1,2.08,2.79,2.5,3.38,0,3.61-1S329.72,48.94,328,48.53ZM299.33,170.92c.76-1,16.49-21.56,18.18-25.29s3-5.84-.52-7.4l-3.93-1.33s-1.44-.46-.92,1.45,0,5.26-1.51,8.44c0,0-7,13.55-12.5,23.27a.78.78,0,0,0,.22,1A.67.67,0,0,0,299.33,170.92ZM286,51.74a73.37,73.37,0,0,0-14-.11C251.89,54,243.37,64.75,243.17,65a.45.45,0,0,0,.05.47.52.52,0,0,0,.5,0,52.88,52.88,0,0,1,27.75-10.36c18.71-1.53,26.85,5.19,31.63,5A112.15,112.15,0,0,1,311.51,75a1.26,1.26,0,0,1,0,1,10.67,10.67,0,0,0-.75,1.36,1.39,1.39,0,0,0,0,1.13s.58,1.56.71,1.8a1.26,1.26,0,0,1-.3,1.35c-1.42,1.85-4.86,5.3-12.71,8.17-1,.37-1.39-.18-1.24-.73,1.06-3.79.4-9.54-3.4-15.33-4.82-7.32-9.15-10.81-17-12.85-.52-.14-.86.34-.44.67,3.79,3,7.13,5.32,11.23,13.3,3.84,7.47,3.59,13,3,16.53-.09.53-.05,1,1,.9,12.37-.92,18.91-8.12,22-11.18a.69.69,0,0,0,.16-1,7,7,0,0,1-.69-1,3.3,3.3,0,0,1,.21-2.62l.52-1.11a.86.86,0,0,0-.05-.78c-4.75-9.11-10.73-19-14.66-22.61a1,1,0,0,0-.94-.24c-.77.27-5.24,1-8.05-.14s-5.91-2.88-4.08-6.89c1.67-3.66,6.7-2.41,9.31-1.4,3.5,1.34,5.17,3.74,7.59,6.78a183.62,183.62,0,0,1,14.63,23.19c2.69,6.08,1.72,7-1.18,10.6-3.28,4.09-7.49,10.18-21,13.67a20.63,20.63,0,0,1-7.05.48c-1.18-.11-1.38.81.65,1.35,5.87,1.56,11.73-1,17.58-4.25A36.58,36.58,0,0,0,318.58,84c1.39-2.08,1.83-.65,2.32.16a48.26,48.26,0,0,1,2.53,7.8c.16,1.35.33,2.12,2.26,1.94,12.91-1.22,17.49-7.58,20.48-10.12.83-.71,1.1-1,.5-1.82-1.22-1.66-1.39-2.88-.56-4.2.44-.7.73-.64-.05-2.21-1.94-3.87-11-17.69-12.27-19.62-.48-.73-.61-.94-1.44-.61s-6.8,2.76-9.39-.39-1.94-6.18.72-7.51c2.3-1.15,5.69-1.05,11.16,4.48s13.26,19.72,15.91,24,2.76,6.8-.66,10.61c-4.25,4.75-10.89,10.28-18,12.27A23.54,23.54,0,0,1,325,99.88c-.83,0-1.33.33-.22.88s2.87.67,5.69,0c1.9-.45,2.82,0,3,1.27s.61,6.64.61,6.64c-9.18,2.81-25.05,3.22-39.6-1.52-12.34-4-25.73-12.13-42.3-22.3-1.15-.7-1.47-.5-1.88.07s-2,2.66-2.4,3.22-.77,1,.12,1.84,5.88,5.69,6.89,6.77c1.55,1.64,2.08,1.74,1.6,4.79a61.55,61.55,0,0,0-.73,8.58c0,2.51-.41,4.23,3,7.12,4.75,4.07,19.11,15.9,26.16,19.52,9.25,4.74,19.52,2.9,23.5-.2,3.66-2.86,5.28-1.26,7-1s7.17,1.11,10.56.24c2.32-.6,2.6-1.06,2.13.63-1.05,3.75-9.85,22.28-18.41,30.56-1,.93-1.21,1.4-1,1.57s.88-.27,1.63-.9a2.76,2.76,0,0,1,2.89-.67c2.64.44,4.92-.51,8-3.65a45.47,45.47,0,0,0,8.32-13c1.65-4.16.37-5.6-.39-6.36-1.18-1.17-1.66-1.1-.78-3.22,4.79-11.62,10.52-20.81,7.46-39.73-.35-2.13-.42-1.63.86-2.2,5.58-2.52,13.51-10.13,15.94-12.8,3.14-3.46,1.94-6.75.32-10A137.29,137.29,0,0,0,336,50.53c-3.38-3.77-8.64-6.67-12.8-5s-4.3,6.18-3.06,8.72c1.65,3.38,5.42,4.63,10.44,3.61,2.13-.43,1.55-.76,2.67.71,2,2.67,8.72,13.11,10.53,17.12.91,2,.62,1.73.23,2.91a3.43,3.43,0,0,0,.08,2.9c.47,1.34.37,1.31-.39,2a37.5,37.5,0,0,1-9.27,6.29c-1.42.6-1.42.29-1.88-1.1C329,78.1,319.69,67.42,314.66,62.86c-2.1-1.9-.86-.31-3.3-3.93s-6.75-10.13-10-13.43-8-5.73-13.12-4.79a5.92,5.92,0,0,0-4.71,5c-.1,1.12-.07,1.08-1.57.94-17.59-1.57-31,2.75-45.23,16.65-1,1-1,1-2-.16C223.07,50,210,38.68,204.64,24.69a20.43,20.43,0,0,1-1.21-12.62c.4-2.62.85-6.26-3.85-7.8C193.87,2.4,173.71-.21,166.64,0c-9.77.32-15,8.68-8.73,15.8a346.84,346.84,0,0,0,33.46,32.56c.62.52.15.92-.6.62-.2-.08-88.1-39.36-107.48-45.2C64.64-1.82,53.72-.41,42.83,3.51c-6.5,2.34-23,12.14-26.1,14.81-2.29,2-4.09,3.44-4.1,6.31s1.52,3.16,5.73,3.44c32.21,2.2,63.29,5.22,82.79,10.76,1.29.37,1.29,1-.06,1.05-10.33.35-48.47,1.8-77.67,5.31-8.66,1-21.37,1.35-23,1.39-.54,0-.58.53-.09.75,2,.9,18.06,8,20.09,10.25,13.29,13.07,57.71,63.78,58.07,64.18a2.51,2.51,0,0,1,.59,2.74c-5.36,10.3-26.32,49.1,9.19,62.71,6.88,2.64,32.92,3.84,54,2,29.76-2.55,44.13-22,47.63-26.12.67,7.36,2.63,21.49,25.9,23.15,5.35.38,22.91-.21,33.61-1,9.61-.74,18.56-8.42,22.63-11.83,15.06,7.29,19.71,6.47,25.87,3.07.29-.16,0-.61-.28-.51-8,2.57-10.74,1.2-27.58-10.52-.66-.46-.23-1,.41-1,2.23.11,8.22,1,11.09-1.45,5.93-5,4.29-16.8-3-25.38a24.16,24.16,0,0,0-15.5-8.27,10.11,10.11,0,0,0-9.28,3.91c-.95,1.13-1.18.84-2.29-.39-2-2.2-6.18-9-8.8-13.47a.65.65,0,0,0-.66-.34c-.31.06-.42.45-.32.75,1.74,5.32,5.51,14.31,11.78,25.93,1,1.78-.73,2.29-1.5,1.14-4.57-6.81-10-17.45-15.09-30.38-5.15-13.1-9.21-26.06-5.1-40.24,3.41-11.79,12.71-18.12,23.25-23.06,11-5.16,18.39-4.52,25.75-4.34a5.54,5.54,0,0,1,3.73,1.57C285,50.86,285.49,51.31,286,51.74Zm-57.25,28.2s-45.44-18.45-94.41-36C83.05,25.59,29.57,24.39,19.25,23.87c-2.07-.1-2.07-.69-.52-1.89S43.16,4.78,58.12,4.27c19.57-.68,45.57,10.83,83.82,28.05,40.23,18.12,77.91,35.15,79.56,35.92,2.93,1.38,2.93.69.18-1.37S173.52,28.69,161,13.21c-3.4-4.2-1-7.52,1.9-8.26C174.38,2,194.67,7,197.08,7.88s2.57.64,2.07,3.09c-4,19.09,15.47,37,34.39,56.93A56.25,56.25,0,0,0,228.73,79.94ZM75.33,48.88a42.19,42.19,0,0,0-15.6,15c-7.36,12.24-6.46,22.28-6.46,22.28L58,91.57a.54.54,0,0,0,1-.21c.19-1,2.71-14.78,8.6-23.4,6.69-9.77,18.4-17.76,20.81-19.34,5.31,0,10.55,0,15.51.19,1,0,2.06.08,3,.14-2,1.16-18.78,11.33-27.28,23.46-8.87,12.66-9.3,18.71-11.79,28,0,0,15.59,15,16.37,15.91a.81.81,0,0,0,1.45-.33c.46-5,2.58-18.67,16.32-34.82,14.2-16.69,32.63-25.41,35.19-26.57l.17.06,2.59-1.45c-6.83-2.88-16.44-6-34.73-7.24-25.66-1.8-59.7,1-85.43,2.88a.52.52,0,0,0-.25.94l10.67,6.35c.41.24.92-.36.61-.72l-2.6-3c-.34-.38,0-.74.56-.77C33.19,51.34,53.48,49.57,75.33,48.88Zm135.8,51.76c10.13,12.46,19.09,29.05,19.52,29.7.81,1.21.49,1.87-.17,1.5s-.48.11-2.24-1.94-8.83-12.22-9.13-12.65c-.06-.1-.29,0-.4,0a.36.36,0,0,0-.17.42,146.85,146.85,0,0,0,6.54,13.29,14.12,14.12,0,0,0,3.48,3.66,9.79,9.79,0,0,0,8.22,2.26c.88-.15,1.38-.06.74-1.15a139.07,139.07,0,0,1-13.32-32.34,6.73,6.73,0,0,0-1.73-3.72c-1.46-2-19.91-24.16-34.91-26.66-4.51-.75-8.37-.24-10.1,1.81a.3.3,0,0,1-.5-.11c-.87-3.5-6.52-6.42-13.49-6.76-6.36-.31-11.84,1.63-13.66,4.55a.27.27,0,0,1-.44,0c-1.69-3.12-7.83-4.38-14.51-2.79-6.49,1.54-11.32,5.25-11.69,8.71a.26.26,0,0,1-.38.17c-2.92-1.7-8.09-1.17-13,1.6-6.1,3.48-9.42,9.16-7.41,12.7s8.59,3.58,14.7.1c4.84-2.75,7.92-6.89,8-10.25a.28.28,0,0,1,.39-.22c2.72,1.68,7.51,2.12,12.62.91,5.33-1.26,9.54-4,11.07-6.84a.28.28,0,0,1,.46,0c1.57,3.06,6.8,5.49,13.12,5.8,6,.29,11.26-1.43,13.35-4.1a.3.3,0,0,1,.5.12c.65,3.39,4.61,7.95,10.42,9.93C196.57,91.53,202,89.39,211.13,100.64Zm-58.76-26a.42.42,0,0,1-.81-.06,2.75,2.75,0,0,1,0-.81c.36-3.14,5.78-5.12,12.11-4.41s11.17,3.84,10.82,7c-.31,2.76-4.55,4.62-9.88,4.54-.28,0-.53-.11-.57-.39h0a.46.46,0,0,1,.32-.51,6,6,0,0,0,1.11-.54,11,11,0,0,1-2.22,0c-3.89-.44-6.82-2.79-6.54-5.25a3.66,3.66,0,0,1,1.92-2.65C155.5,71.58,153,72.81,152.37,74.63Zm-26.31,5.6a.43.43,0,0,1-.79.22,3.46,3.46,0,0,1-.3-.75c-.75-3.08,3.66-6.81,9.86-8.32s11.84-.25,12.59,2.83c.66,2.71-2.68,5.92-7.72,7.68-.26.09-.54.08-.67-.16h0a.48.48,0,0,1,.13-.6,6,6,0,0,0,.86-.89,10.31,10.31,0,0,1-2.09.74c-3.81.94-7.38-.26-8-2.67a3.66,3.66,0,0,1,.89-3.16C128,76.27,126,78.31,126.06,80.23Zm-21.87,12a.4.4,0,0,1-.19.45.41.41,0,0,1-.5-.06,2.84,2.84,0,0,1-.45-.64c-1.42-2.72,1.88-7.23,7.35-10.08s11.06-3,12.47-.23c1.25,2.39-1.16,6.18-5.48,9-.23.15-.49.2-.67,0h0a.47.47,0,0,1,0-.59,7,7,0,0,0,.61-1,11,11,0,0,1-1.8,1.18c-3.37,1.75-7,1.44-8.1-.69a3.57,3.57,0,0,1,.11-3.16C105.06,88.09,103.7,90.45,104.19,92.24Zm74.75-14.47a.42.42,0,0,1-.49.13.41.41,0,0,1-.27-.44,2.59,2.59,0,0,1,.24-.76c1.34-2.81,7.14-3,13-.31s9.43,7.06,8.08,9.87c-1.18,2.48-5.82,2.89-10.87,1.15-.27-.09-.47-.28-.43-.54v0a.47.47,0,0,1,.47-.37,7.66,7.66,0,0,0,1.23-.15,11.45,11.45,0,0,1-2.11-.72c-3.57-1.62-5.61-4.72-4.55-6.93a3.67,3.67,0,0,1,2.68-1.86C182.9,75.91,180.11,76.28,178.94,77.77ZM166.08,63.83c-.47-.24-9.37-5.16-12.67-6.47a3.89,3.89,0,0,0-2.69.12L139,64.33c-.46.27,0,.64.51.79,1.44.42,6.91,2,9.56,3.56a.92.92,0,0,0,1.11-.1c2.83-2.28,6.4-4,15.61-3.64C167.06,65,166.56,64.07,166.08,63.83Zm36.32,85.3c17.61,8.89,31.31,8.19,48.6,5.76.19,0,.31-.2.18-.35a57.92,57.92,0,0,1-7.16-8.33.67.67,0,0,0-.86-.39c-7,1.52-16.28,3.18-34.9.32a1.18,1.18,0,0,0-.85.11l-5.07,2.47C202.14,148.82,202.21,149,202.4,149.13Zm124-3s-7.08,12.07-12.06,17.75c-.53.6-.39.94.35.61,2.88-1.31,11.1-9.35,12.41-18.1C327.24,145.86,326.85,145.53,326.45,146.17Zm-8.72-76.7c.49.63,8.21,11,11,20.75.38,1.33.5,1.09,1,1a2.83,2.83,0,0,0,.94-.25c.44-.15.52-.4.25-1.13-3.36-9.2-9.05-17.7-12.75-20.81C317.56,68.55,317.24,68.83,317.73,69.47ZM251.36,87.56c-.83.81-.62,2.37.46,3.47s2.64,1.34,3.47.53.62-2.37-.47-3.48S252.19,86.74,251.36,87.56Zm34.52,18.74c.53.29,24,11.56,46.2,5.24,2.05-.58,2.36-.06,2.4,1.35a30.85,30.85,0,0,1-7.6,19.37c-1.71,1.87-5.62,2.52-5.8,0-.14-2,.67-3.48,1-4.68.7-2.58.45-6.36-4.63-7.08-9.42-1.35-22.55-2.33-32-13.62C284.85,106.21,285.35,106,285.88,106.3Zm22.43,25.5a30,30,0,0,1-21.46-2c-8.39-4-16.85-10.65-24-17.6a7,7,0,0,1-2.35-5.52c0-1.81-.3-6.12-.3-6.72s-.55-.62-.62,0-1,6.81-1,8.78a6.37,6.37,0,0,0,2.27,5.44c7.1,7,17.15,15.41,26.9,19.87,8.35,3.82,11.63,2.87,20.78-1.51C309.53,132,309.37,131.49,308.31,131.8ZM256.36,133c-4.08,3.48-3.12,14.39,3,21.54,6.56,7.71,15.87,10.56,20.79,6.37s3.6-13.84-3-21.55C271.07,132.19,260.45,129.5,256.36,133Zm24.34,20.54A8.28,8.28,0,0,1,279,158a2.21,2.21,0,0,0-.47-.07c-.83,0-1.52.35-1.55.85a.79.79,0,0,0,.42.66,7.19,7.19,0,0,1-1.61.76.42.42,0,0,0,0-.25c-.12-.33-.65-.43-1.18-.23s-.81.56-.75.87a12.47,12.47,0,0,1-5.22-.81c.36-.09.63-.29.67-.57.07-.43-.42-.87-1.1-1s-1.28.16-1.35.59a.69.69,0,0,0,0,.2c-.35-.17-.7-.36-1-.56a1.58,1.58,0,0,0-.73-1.46,1.44,1.44,0,0,0-1.76-.2,25.15,25.15,0,0,1-3.75-3.58l-.39-.47a1.57,1.57,0,0,0-.25-1.62,1.61,1.61,0,0,0-1.37-.78,20.1,20.1,0,0,1-2.22-5.72.76.76,0,0,0,.54-.22c.38-.39.19-1.18-.41-1.75a2.38,2.38,0,0,0-.51-.36c0-.41-.07-.81-.08-1.21a.72.72,0,0,0,.52.31c.47.06.91-.4,1-1a1,1,0,0,0-.74-1.2.81.81,0,0,0-.73.37c.16-2.5.93-4.53,2.2-5.57,3-2.41,10.72-1.12,16.25,3.57a.83.83,0,0,0-.88,0c-.38.32-.21,1.14.37,1.82s1.36,1,1.74.64.26-.85-.09-1.43c.34.34.66.69,1,1.06a23.12,23.12,0,0,1,4.66,8.43,1.56,1.56,0,0,0-.21,1.6,2,2,0,0,0,.75,1.06c0,.36.07.71.08,1.06a.87.87,0,0,0-.76-.39,1.23,1.23,0,0,0,.17,2.38A.82.82,0,0,0,280.7,153.52Zm-16-18.8c-.33.42-.12,1.14.48,1.61s1.35.52,1.67.1.12-1.13-.48-1.6S265,134.31,264.71,134.72Zm-.12,7.39a1.85,1.85,0,1,0,2.15.39A1.57,1.57,0,0,0,264.59,142.11Zm4.37,1.76a1.85,1.85,0,1,0,2.15.38A1.58,1.58,0,0,0,269,143.87ZM263.82,146a1.81,1.81,0,1,0,2.11.38A1.56,1.56,0,0,0,263.82,146Zm4.35,1.72a1.56,1.56,0,0,0,.28,2.13,1.33,1.33,0,1,0-.28-2.13Zm-3.42-9.58a1.76,1.76,0,1,0,2.05.37A1.51,1.51,0,0,0,264.75,138.1Zm4.23,1.67a1.76,1.76,0,1,0,2,.37A1.51,1.51,0,0,0,269,139.77Zm-8-2.6a1.48,1.48,0,1,0,1.86.23A1.35,1.35,0,0,0,261,137.17Zm-.22,3.72a1.62,1.62,0,1,0,1.92.41A1.41,1.41,0,0,0,260.77,140.89Zm-.54,3.6a1.61,1.61,0,0,0,1.71,2.54,1.39,1.39,0,0,0,.07-1.9A1.36,1.36,0,0,0,260.23,144.49Zm3.52,5.63a1.38,1.38,0,0,0,.32,1.87,1.17,1.17,0,1,0-.32-1.87Zm4.1,1.67a1.66,1.66,0,0,0,2.27,2.22,1.67,1.67,0,0,0-2.27-2.22Zm4.57-2.61a1.7,1.7,0,1,0,1.94.51A1.45,1.45,0,0,0,272.42,149.18Zm.8-3.75a1.7,1.7,0,0,0,2,2.52,1.7,1.7,0,0,0-2-2.52Zm-13.06,3c-.47.33-.44,1.15,0,1.84s1.26,1,1.72.65.44-1.16-.05-1.85S260.62,148.09,260.16,148.42Zm12.92-7.14c-.46.33-.4,1.21.13,1.95s1.35,1.09,1.81.76.4-1.2-.13-2S273.55,141,273.08,141.28ZM268.64,136c-.36.36-.15,1.14.47,1.76s1.4.82,1.75.47.15-1.15-.46-1.76S269,135.66,268.64,136Zm8,7c-.37.24-.3,1,.16,1.71s1.13,1.08,1.5.84.3-1-.16-1.71S277,142.78,276.61,143Zm.43,3.78c-.45.22-.51,1-.13,1.75s1,1.16,1.49.94.51-1,.13-1.76S277.48,146.57,277,146.8Zm-13.38,7c-.37.39-.18,1.17.42,1.75s1.4.72,1.77.32.18-1.17-.42-1.74S264,153.4,263.66,153.79Zm-6.4-10.62c-.48.18-.64.92-.36,1.65s.88,1.19,1.35,1,.64-.91.36-1.65S257.73,143,257.26,143.17Zm.05,3.72c-.4.18-.47.9-.15,1.6s.9,1.14,1.29,1,.47-.9.15-1.6S257.71,146.71,257.31,146.89Zm3,5.22c-.34.28-.21,1,.29,1.58s1.17.85,1.5.57.21-1-.29-1.58S260.67,151.83,260.34,152.11Zm7.13,3.58c-.26.46.06,1.14.72,1.52s1.41.31,1.67-.15-.06-1.14-.72-1.52S267.74,155.23,267.47,155.69Zm-9.6-16c-.5.18-.7.9-.45,1.62s.85,1.16,1.35,1,.7-.9.46-1.62S258.37,139.53,257.87,139.7ZM261.3,134a1.12,1.12,0,1,0,1.54-.14A1.09,1.09,0,0,0,261.3,134Zm-2.84,2.34a1.13,1.13,0,1,0,1.29.85A1.08,1.08,0,0,0,258.46,136.37Zm17.25,17.89a1.13,1.13,0,1,0,1.53.2A1.09,1.09,0,0,0,275.71,154.26Zm-3.89-.94a1.39,1.39,0,1,0,1.8-.06A1.29,1.29,0,0,0,271.82,153.32Zm4.69-3a1.3,1.3,0,0,0-.5,1.73,1.17,1.17,0,1,0,2.12-.93A1.29,1.29,0,0,0,276.51,150.35Zm-5.42,7a1.12,1.12,0,0,0,1.18,1,1,1,0,1,0-1.18-1Zm-14.49-21c-.31-.15-.75.11-1,.58s-.17,1,.14,1.13.75-.11,1-.58S256.91,136.48,256.6,136.33Zm3.2-2.63c-.26-.24-.75-.11-1.11.28s-.43.89-.18,1.13.75.1,1.11-.29S260.05,133.93,259.8,133.7Zm20,21.25c-.29-.27-.84-.15-1.22.27a.76.76,0,1,0,1.06,1C280,155.77,280.11,155.21,279.82,155Zm-3.48,2.56c-.12-.33-.65-.43-1.17-.23s-.86.61-.75.93.65.43,1.18.24S276.46,157.83,276.34,157.51Zm-3.88,2c0-.35-.49-.61-1-.58s-1,.32-1,.66.48.6,1,.58S272.47,159.81,272.46,159.47Zm-107-12a105.14,105.14,0,0,1-9.37,13.33c-.12.13,0,.3.15.34l.5,0c.6,0,1,.08,1.3-.15a95.79,95.79,0,0,0,14.1-13,.36.36,0,0,1,.32-.14h.05c.3,0,.37.37.21.63a89.65,89.65,0,0,1-8.63,12.58c-.11.12,0,.28.13.32l.47,0a4.4,4.4,0,0,0,1.87-.14c3.43-2.46,6.92-7.24,12.25-11.75.29-.25.58-.5.87-.77a.36.36,0,0,1,.28-.1H180c.29,0,.36.36.22.62-2.87,5.29-5.39,9.65-8,12.76a.19.19,0,0,0,.13.3l.44,0a1.86,1.86,0,0,0,1.17-.5c3.3-2.49,6.8-7.19,11.27-11.41.35-.33.69-.66,1-1a.35.35,0,0,1,.29-.1h.06c.29,0,.37.35.23.61A72.28,72.28,0,0,1,179.06,162a.16.16,0,0,0,.1.26h.38a1.82,1.82,0,0,0,1.08-.28c5.36-4.09,11.93-12.43,16.55-22.95,5.45-12.41,5.5-21.53,4.5-24.5a.16.16,0,0,0-.19-.12c-.12,0-.13.14-.15.22a66.82,66.82,0,0,1-2.58,9.16.66.66,0,0,1-.56.42c-.33,0-.47-.42-.44-.75a46.65,46.65,0,0,0-1.48-15.16.19.19,0,0,0-.23-.14.21.21,0,0,0-.16.24c.09,2-.44,6.91-2.35,13.25-.14.47-.43.85-.9.69l-.21-.07c-.38-.13-.45-.51-.4-.91.83-7.76-.5-13.55-1.38-15.9a.21.21,0,0,0-.24-.15c-.15,0-.17.15-.17.25a50.35,50.35,0,0,1-2.62,14.06c-.14.47-.43.85-.9.69h0c-.37-.13-.44-.5-.41-.89A43.66,43.66,0,0,0,183.47,100a.23.23,0,0,0-.27-.16c-.15,0-.18.16-.18.27a50.94,50.94,0,0,1-1.93,18c-.09.32-.26.59-.58.55h0c-.35,0-.44-.37-.43-.71a36.86,36.86,0,0,0-3.19-16.74.24.24,0,0,0-.28-.14.21.21,0,0,0-.19.25c.13,3.55-.07,14.7-6.39,28.09-5.64,11.94-16.63,23.7-22.2,29.39-.12.12,0,.28.16.31l.54,0a2.81,2.81,0,0,0,1.53-.29,102.14,102.14,0,0,0,15.25-11.72.18.18,0,0,1,.07-.05C165.51,147.05,165.56,147.3,165.48,147.43Zm-27.82-10.37.1,0a.42.42,0,0,1,.27.45,3.68,3.68,0,0,0,.3,1.91c.89,1.42,2.79,2.56,7.13-.82,2.92-2.27,3.95-5.5,2.95-7.09-1.14-1.81-4.66-1.17-8.32,1.23s-5.7,5.82-4.56,7.63a2.3,2.3,0,0,0,.35.41.29.29,0,0,0,.36,0,.3.3,0,0,0,.1-.33,3.58,3.58,0,0,1,.88-3.27A.39.39,0,0,1,137.66,137.06Zm62.64,25.86c2.18,3.82,6.3,5.92,12.81,5.07,5.22-.68,9.33-2.34,14.66-5.66,1.41-.88.72-1.45-.65-.82-2.51,1.14-8.37,3.44-12.7,3.31-4-.12-6.59-2.47-8-3.39a1.82,1.82,0,0,0-1.47-.21c-.07,0-2.27.41-4.32.82C200.65,162,200,162.4,200.3,162.92Zm-6.19-.26c.83,2.57,1.79,10.15,11.85,11.9s21.61-3.1,22.52-3.45,1.18.35.31.83-11.5,7.28-23.31,5.49-12.11-12.59-12.24-13.33a1.65,1.65,0,0,1,.3-1.39C193.76,162.36,193.93,162.11,194.11,162.66ZM97.22,117.12C85,133.48,73.9,162.5,88.68,169.52c18.13,8.61,43.14-8.37,55.85-21.64,1.3-1.35,2.79-1.53.84,1s-15.22,15.33-16.9,16.47-1.53,1.33-.13,1.14,1.57.28.51,1c-3,2.14-9.27,3.59-10.53,3.87s-1.82.93,0,1.07,6.15.09,7.13,0,2.11.12.33.89a32.13,32.13,0,0,1-20.37,1.77c-1-.25-2-.1-.46.79a49.76,49.76,0,0,0,9.92,4.29c1.12.3,1.92,1,.1,1.16-10.54.84-20.46-6.2-21.26-6.71s-1.35-.14-.79.61,3.78,4.56,6.29,6c1,.6.83,1.33-.37,1.07-7.83-1.68-13.24-8-13.89-8.58s-1.26-.65-.88.52a23.24,23.24,0,0,0,5.4,7.41c.75.69.84,1.68-.79.79-5.36-2.94-9.46-8.86-9.83-9.55s-1-.61-.84.32a21.94,21.94,0,0,0,1.63,4.15c.46.84.28,2-1.12.37-.71-.83-9.5-7.26-5.33-28.59,3.91-20,18.09-34,18.73-34.61,1.31-1.26,2.48-1.66.65,1.22s-1.61,4.1.89,1.11,2.78-2.52.94.33-.76,2.76,1.57-.15S99,114.79,97.22,117.12Zm48.15-12.64a61.66,61.66,0,0,1,2.31,22.16c-.08,1.24-.24,1.6.71,2.13s.89.77,1.72-.47,7.76-13.63,5.21-18.72a11.26,11.26,0,0,0-9.06-6.4C145.19,103.12,144.92,103,145.37,104.48Zm-8.65-1.3c.89-.3,1-.3,1.48.24s7.11,9.06,8.83,23.81c.11.94.23.89-.48.89s-.76.24-1-.89a59.57,59.57,0,0,0-9.53-22.75C135.59,103.83,135.83,103.48,136.72,103.18Zm-33.16,43.09a227.46,227.46,0,0,0,28.55-3.35c1.64-.34,1.9-.07,3,.86s1.72,1.42.89,2.23c-10.4,10.29-18.41,14.76-19.56,15.39a3.24,3.24,0,0,1-2.16.67c-.9,0-2-.14-.45-1.15,6.48-4.14,17.55-12.6,18.07-13s.67-1.11-.52-.59-23.74,11.06-24.89,11.59-1.39.32-1.9-.75a21.94,21.94,0,0,1-2.5-10.66C102.1,146.53,102,146.34,103.56,146.27Zm30.87-44.2c-14.45,6.81-22.16,14.55-29.14,26.27-9,15-12.54,32.25-.71,37.62,1.89.87,2.07,1.1.23,1.67-17.55,5.5-20.78-22.33-1-46.93,13.61-16.89,30.81-27,41.56-23.53,2.37.77,2.86,1.72-.12,1.32-11.46-1.55-21.74,4.06-32.24,14.45s-20.55,26.27-19.71,39.77c.15,2.39.79,3.1,1.19-.24a61.61,61.61,0,0,1,14.57-32.37c5.74-6.8,15.29-15.88,24.84-18.87C136.89,100.32,136.22,101.23,134.43,102.07Z"/></svg>