<svg xmlns="http://www.w3.org/2000/svg" viewBox="0 0 440.4 277.86"><defs><style>.a{fill-rule:evenodd;}</style></defs><title>Angry-Bee-1320-Stacked</title><path class="a" d="M342.84,274.79q10.88.1,21.75-.21c7.13.06,14.26-.23,21.35-.87a23.1,23.1,0,0,0,13.9-7.29q7-7.23,13.28-15.1,10.71-12.65,21.19-25.47a12.83,12.83,0,0,0,3.06-7.76,6.63,6.63,0,0,0-5.87-5.46,78.53,78.53,0,0,0-9.44-.78l-23.4-.41q-19.91-.13-39.81.27-6,.36-11.91.64a22.42,22.42,0,0,0-15,7.79q-7.25,8-14.05,16.42-9.69,11.34-19,22.95a16.61,16.61,0,0,0-3.81,8.64,5.86,5.86,0,0,0,5.49,5.51c3.41.39,6.84.64,10.27.76q12.51.15,25,.37Zm-13.54,3h39a18.17,18.17,0,0,0,4.93-.4q4.45,0,8.91-.12a15.35,15.35,0,0,1,4.17-.35A23.67,23.67,0,0,0,398.23,272a69.82,69.82,0,0,0,7-6.55c1.71-1.86,3.35-3.77,4.94-5.74q10.06-11.88,20.09-23.82,3.53-4.28,6.95-8.65a19.13,19.13,0,0,0,3.08-6.76,12,12,0,0,0-.63-5.87,10,10,0,0,0-6.93-5,10.68,10.68,0,0,0-4.05-.46,12.72,12.72,0,0,0-1.72-.33q-4,0-8.07-.14a26.11,26.11,0,0,0-5.86-.3l-52.89.05a12.72,12.72,0,0,1-1.72.33c-3,0-5.93,0-8.89.14a15,15,0,0,1-4.17.35,25.42,25.42,0,0,0-15.23,8.16,46.07,46.07,0,0,0-4.92,5.34q-2.81,3.54-5.76,7-9.15,10.77-18.17,21.64a78.12,78.12,0,0,0-7.53,10.12,13.32,13.32,0,0,0-1.55,8.23l.05.77.15.26a8.78,8.78,0,0,0,7.57,6c1.36.17,2.73.3,4.1.42,2.79.21,5.6.28,8.4.21a56,56,0,0,0,9.86.4Z"/><path class="a" d="M72.78,273.71q36.73,0,73.47-.1a20.5,20.5,0,0,0,12.61-7.16Q166,258.4,172.68,250a14.82,14.82,0,0,0,1.36-4.39,2,2,0,0,1,.94-1.12,36.71,36.71,0,0,0,11.07-10.17,93.87,93.87,0,0,0,8.7-11.26,7.14,7.14,0,0,0,.06-8.26,8.56,8.56,0,0,0-7.11-2.24H127.37q-12.32,0-24.63.08a24.55,24.55,0,0,0-11.87,7.17,83.6,83.6,0,0,0-7.37,8.36,1.27,1.27,0,0,0-.22.78.53.53,0,0,0,.34.48,4.47,4.47,0,0,0,1.88.25l71.4.06a1.19,1.19,0,0,1,1.28,1.08,1.16,1.16,0,0,1-.31.66,6.29,6.29,0,0,1-6.29,2.84l-62.38,0a2,2,0,0,0-1.23.63q-6.21,7.23-12.28,14.6a1.36,1.36,0,0,0-.28,1.12.63.63,0,0,0,.5.47l62.93.13a1.55,1.55,0,0,1,1.34.9,1,1,0,0,1-.25.88,8.29,8.29,0,0,1-7.64,2.94L60.87,256a1.87,1.87,0,0,0-1.44.69,25.45,25.45,0,0,0-5.71,10.18,5.36,5.36,0,0,0,1.86,5.61,8.24,8.24,0,0,0,5.71,1.19Zm.41,3.26,72.19-.05a14,14,0,0,1,1.71-.33,21.45,21.45,0,0,0,13.52-7.41,39.73,39.73,0,0,0,4.5-4.94q4.77-5.52,9.33-11.2a11.83,11.83,0,0,0,2.42-5.37l.19-.64a17.57,17.57,0,0,1,2.6-1.91q2.55-2,4.95-4.08,5.37-6.53,10.77-13A23.26,23.26,0,0,0,199,221a8.69,8.69,0,0,0-5.24-10.76,22,22,0,0,0-8.91-.93l-81.63.05a25,25,0,0,0-14,7.73,5.89,5.89,0,0,0-2.26,2.25,39,39,0,0,0-4.08,4.54,33.9,33.9,0,0,1-2.21,2.71,3.24,3.24,0,0,0-.35.89,3.88,3.88,0,0,0,4.29,5.22,1.14,1.14,0,0,1,.45.06.41.41,0,0,1,.12.66c-.4.46-.83.91-1.27,1.34l-4.71,5.56q-3.14,4-6.49,7.87a5.39,5.39,0,0,0-.3,3.75l.15.44a.34.34,0,0,1-.22.38,2.75,2.75,0,0,1-.81.06q-5.89,0-11.8,0a5.1,5.1,0,0,0-3,2.28,31.07,31.07,0,0,0-5.78,9.81,9,9,0,0,0,4.61,11.3,21.4,21.4,0,0,0,8.27.76Z"/><path class="a" d="M182.36,273.7l90.32-.07a2,2,0,0,0,1.14-.68q6.71-7.74,13.18-15.68a.81.81,0,0,0,0-.68.79.79,0,0,0-.52-.44,3,3,0,0,0-1.12-.11q-23.81-.15-47.62.25-9.7.3-19.43,0a.07.07,0,0,1,0-.06,0,0,0,0,1,0,0q23.91-1.29,47.78-3.37,9-.78,18-1.68a33.72,33.72,0,0,0,17.92-11.76q5.91-6.73,11.29-13.92a11.7,11.7,0,0,0,2.49-8.21,6.63,6.63,0,0,0-7.07-4.72l-85.78.07a22.32,22.32,0,0,0-10.69,6.17,90.59,90.59,0,0,0-9.35,10.7.71.71,0,0,0-.16.48.7.7,0,0,0,.35.55,2.24,2.24,0,0,0,1.38.33l71.81.08a1.26,1.26,0,0,1,1.27.86.92.92,0,0,1-.17.75,6.36,6.36,0,0,1-5.21,2.37q-36.33,3.07-72.64,6.48a29.58,29.58,0,0,0-16.26,11.28q-8.16,9.72-16.27,19.48a1.44,1.44,0,0,0-.24.48,1,1,0,0,0,.6,1,2.36,2.36,0,0,0,1,.1q7,0,13.92,0Zm-1.23,2.86h90.3c.94,0,1.89,0,2.83,0a2.76,2.76,0,0,0,1.33-.72q4.2-4.64,8.15-9.5,3.11-3.66,6.13-7.41a1.11,1.11,0,0,0,.2-.61,16.85,16.85,0,0,0-.08-2.75,4.73,4.73,0,0,0-1.08-1.71l-.29-.32a.14.14,0,0,1,0-.14.25.25,0,0,1,.13-.14,42.15,42.15,0,0,0,11.74-7.52,19.74,19.74,0,0,0,3.78-4q6.14-6.85,11.61-14.24a17.39,17.39,0,0,0,3.35-8.94,9,9,0,0,0-5.93-8.42c-1.5-.33-3-.6-4.54-.79l-84.88,0a29.26,29.26,0,0,0-4.36,1,26.47,26.47,0,0,0-8.33,5.21,49.11,49.11,0,0,0-7.89,8.53c-.85.93-1.67,1.89-2.45,2.88a3.66,3.66,0,0,0-.8,1.25,3.9,3.9,0,0,0-.22,1.82c0,.4,0,.79,0,1.18a3.76,3.76,0,0,0,4.26,2.72h41.19a.58.58,0,0,1,.31.11.13.13,0,0,1,0,.09.12.12,0,0,1,0,.08.51.51,0,0,1-.31.11A87.41,87.41,0,0,0,236,235c-1.4.07-2.8.17-4.2.32s-3.07.28-4.61.32A15.35,15.35,0,0,1,223,236a12.29,12.29,0,0,1-1.71.33,20.22,20.22,0,0,0-4.91.43c-2.44.15-4.89.3-7.33.47a12.72,12.72,0,0,1-1.72.33q-4,.16-8,.65a29.71,29.71,0,0,0-15.8,9.23q-7.74,9.29-15.59,18.48-2,2.32-3.82,4.8a4,4,0,0,0,1.3,5.49l.28.13a3.89,3.89,0,0,0,1.82.23Z"/><path class="a" d="M19,273.15q6.36.06,12.73-.12a1.87,1.87,0,0,0,1.35-.76l49.44-59a1.72,1.72,0,0,0,.25-.53.93.93,0,0,0-.81-1q-20-.11-40,.11a25.13,25.13,0,0,0-13.56,7.84,78.77,78.77,0,0,0-6.25,7.73,1.28,1.28,0,0,0-.2.52,1,1,0,0,0,.8.89,33.08,33.08,0,0,0,4.45.13q4.88,0,9.74,0a.79.79,0,0,1,.6.38,1.24,1.24,0,0,1-.17,1.48L3.26,271.74a1.15,1.15,0,0,0-.18.52l0,.2a1,1,0,0,0,.77.59q7.56.15,15.13.1Zm-1.64,3q7.77,0,15.55,0a5.08,5.08,0,0,0,3-2.29L53,253.53q5.44-6.65,11-13.21,8.16-9.51,16.13-19.16c1.89-2.11,3.66-4.3,5.34-6.57a9.19,9.19,0,0,0,.38-.85,4.15,4.15,0,0,0-3.78-5.19q-6.09-.17-12.19-.11-13.32,0-26.63.05a12.72,12.72,0,0,1-1.72.33,21.8,21.8,0,0,0-10.66,4.52,27.75,27.75,0,0,0-5.85,5.23,60.3,60.3,0,0,0-6,8,3.73,3.73,0,0,0-.21,1.81q0,.4,0,.81a.83.83,0,0,0,.07.27,1.41,1.41,0,0,0,.17.32,3.89,3.89,0,0,0,4.05,2.09c2.92,0,5.84,0,8.76,0a.47.47,0,0,1,.31.11.1.1,0,0,1,0,.09.27.27,0,0,1,0,.12,5.79,5.79,0,0,1-.48.51L1.78,268.36A5.13,5.13,0,0,0,.29,274a7,7,0,0,0,1.71,2,1.26,1.26,0,0,0,.62.2q7.38,0,14.75,0Z"/><path class="a" d="M351.05,261a153.74,153.74,0,0,0,23.79-1,21.89,21.89,0,0,0,13-9.12q8.43-10,16.74-20.08a5.75,5.75,0,0,0,1.17-3.71,1.89,1.89,0,0,0-1.38-1.41,33.59,33.59,0,0,0-9.42-1,295.5,295.5,0,0,0-33.67.41,20.47,20.47,0,0,0-15.58,8.77q-8.93,10.47-17.56,21.16a6.41,6.41,0,0,0-1,2.87,1.9,1.9,0,0,0,1.31,1.84,50.6,50.6,0,0,0,10.27,1.17q6.15.07,12.31.06Zm-24.63,9.91q24.63.25,49.24-.31a72.81,72.81,0,0,0,11.52-.88,22.65,22.65,0,0,0,11.05-6.92q6.76-7.38,13.09-15.15,10.2-12,20.11-24.22a12.35,12.35,0,0,0,2.21-4.53,2.09,2.09,0,0,0-1.34-2,21.1,21.1,0,0,0-8.19-1.09q-10-.45-20.12-.49-6.56.1-13.13-.21-5.75-.09-11.49.21-16-.1-32,.81A19,19,0,0,0,334.42,223q-7.21,8-14,16.43-9.31,11-18.39,22.14a16.51,16.51,0,0,0-3.16,6.18,2,2,0,0,0,1.76,2.08,74.91,74.91,0,0,0,10.25.8c5.19.15,10.39.23,15.58.27Z"/><path class="a" d="M73.6,270h68.54a15.72,15.72,0,0,0,13.48-5.58q7.19-7.93,13.8-16.33a8.4,8.4,0,0,0,.77-4.13,1.54,1.54,0,0,1,.72-1.43,35,35,0,0,0,12-10.4,92.78,92.78,0,0,0,8.42-10.74,8,8,0,0,0,1-2.89,2,2,0,0,0-1.81-2q-4.71-.34-9.44-.22h-74.7a11.84,11.84,0,0,0-9,2.86,35.59,35.59,0,0,0-5.46,5,1.06,1.06,0,0,0-.18.75,1,1,0,0,0,.82.83q18.23.15,36.44.1,17.66-.08,35.3.14a10.23,10.23,0,0,1,1.1.23.76.76,0,0,1,.46.42.75.75,0,0,1,0,.62,22.38,22.38,0,0,1-3.48,4.83,16.91,16.91,0,0,1-6.29,5.43,22,22,0,0,1-7,.52q-29.15,0-58.29.07a2,2,0,0,0-1.09.62q-3,3.31-5.77,6.85a1.53,1.53,0,0,0-.22,1.25.85.85,0,0,0,.6.5,34.56,34.56,0,0,0,4.44.13q28.72-.06,57.45.11a2.4,2.4,0,0,1,1.2.52.89.89,0,0,1,.14.92,29.44,29.44,0,0,1-4.15,5.63,12.85,12.85,0,0,1-5.79,4.64,35.16,35.16,0,0,1-8.63.5l-66.49,0a1.61,1.61,0,0,0-.78.31l-.31.31a18.58,18.58,0,0,0-4,7.35,2,2,0,0,0,.28,1.63,2,2,0,0,0,1.59.57q7.17.06,14.35,0Z"/><path class="a" d="M191,269.93l79.61-.06a2.6,2.6,0,0,0,2.17-1.3q2.94-3.49,5.79-7.06a1.16,1.16,0,0,0,.23-.78,1.35,1.35,0,0,0-1.21-.92l-72.37-.09a.91.91,0,0,1-.43-1.68,12.69,12.69,0,0,1,9.6-4.3q34.5-3,68.95-6.26a29.06,29.06,0,0,0,15.18-9.67q6.12-7,11.72-14.39a9.84,9.84,0,0,0,2-4.93,1.78,1.78,0,0,0-1.36-1.83,28.66,28.66,0,0,0-7-.41q-40.22,0-80.44.09a18.34,18.34,0,0,0-8.69,5.37,39,39,0,0,0-3.48,3.68,1,1,0,0,0-.1,1,1,1,0,0,0,.81.56c3.13.11,6.27.15,9.4.11q31.2,0,62.4.08c.38,0,.75.12,1.12.2a.91.91,0,0,1,.61.4.93.93,0,0,1,0,.73,28.37,28.37,0,0,1-3.56,4.74,13.25,13.25,0,0,1-6.41,4.95q-5.5.84-11.06,1.17-32,2.77-64,5.74a25.37,25.37,0,0,0-14.1,9.87q-5.51,6.48-10.92,13a1.21,1.21,0,0,0,.8,1.94q7.38.06,14.77,0Z"/><path class="a" d="M26.81,269.31c1.1,0,2.19,0,3.28-.07a2,2,0,0,0,1.17-.73l43-51.18a1.89,1.89,0,0,0,.25-.49.8.8,0,0,0-.29-.85,1.82,1.82,0,0,0-1.45-.52q-15.18-.14-30.35.11a22,22,0,0,0-12.34,8,.84.84,0,0,0,.2,1,2,2,0,0,0,1.45.52l13.7.09a.76.76,0,0,1,.55.4.77.77,0,0,1,0,.68,12.38,12.38,0,0,1-1.56,2q-16.37,19.47-32.64,39a1.37,1.37,0,0,0-.09,1.64.79.79,0,0,0,.46.24q7.33.12,14.66.08Z"/><path class="a" d="M353.51,254q7.33.06,14.67-.12a14.32,14.32,0,0,1,3.75-.34c.56-.14,1.13-.26,1.69-.36.23,0,.46-.07.68-.12a1.75,1.75,0,0,0,.32-.12,17,17,0,0,0,7.5-6.05q6.11-7,12-14.24c.29-.29.58-.59.86-.9a.19.19,0,0,0,0-.12.1.1,0,0,0,0-.09.49.49,0,0,0-.31-.11q-13.8,0-27.6,0a12.43,12.43,0,0,1-1.72.33,21.92,21.92,0,0,0-4.28.24,6,6,0,0,1-1.79.25,1.59,1.59,0,0,0-.3.06,2.37,2.37,0,0,0-.34.13,15.53,15.53,0,0,0-7.83,6.13q-6.31,7.5-12.56,15.06a.2.2,0,0,0,0,.13.12.12,0,0,0,0,.08.51.51,0,0,0,.31.11q7.46,0,14.92,0Zm0,3.26a137.1,137.1,0,0,0,20.95-1,17.6,17.6,0,0,0,9.9-7l14.48-17.36a2.06,2.06,0,0,0-1.82-3.33,303.61,303.61,0,0,0-35.31.26,17.19,17.19,0,0,0-13.4,7.79q-7.21,8.51-14.27,17.14a2,2,0,0,0,1.82,3.15q8.82.49,17.65.33Z"/><path class="a" d="M336,43.48c-2.19-.52-4.19,0-4.46,1.19s1.27,2.54,3.46,3,4.18,0,4.46-1.19S338.18,44,336,43.48Zm34.91,5.05c-1.76-.42-3.38,0-3.61,1s1,2.08,2.79,2.5,3.38,0,3.61-1S372.68,48.94,370.91,48.53ZM342.29,170.92c.76-1,16.5-21.56,18.19-25.29s3-5.84-.52-7.4L356,136.9s-1.45-.46-.93,1.45,0,5.26-1.5,8.44c0,0-7,13.55-12.51,23.27a.78.78,0,0,0,.22,1A.67.67,0,0,0,342.29,170.92ZM328.94,51.74A73.28,73.28,0,0,0,315,51.63C294.86,54,286.33,64.75,286.14,65a.43.43,0,0,0,0,.47.54.54,0,0,0,.51,0,52.83,52.83,0,0,1,27.75-10.36c18.71-1.53,26.84,5.19,31.62,5A110.88,110.88,0,0,1,354.47,75a1.21,1.21,0,0,1,0,1,12.15,12.15,0,0,0-.75,1.36,1.48,1.48,0,0,0,0,1.13s.59,1.56.71,1.8a1.22,1.22,0,0,1-.3,1.35c-1.41,1.85-4.86,5.3-12.71,8.17-1,.37-1.39-.18-1.23-.73,1.06-3.79.4-9.54-3.41-15.33-4.81-7.32-9.14-10.81-17-12.85-.52-.14-.86.34-.43.67,3.78,3,7.13,5.32,11.22,13.3,3.84,7.47,3.59,13,3,16.53-.08.53-.05,1,1,.9,12.37-.92,18.92-8.12,22.05-11.18a.68.68,0,0,0,.16-1,6.17,6.17,0,0,1-.68-1,3.29,3.29,0,0,1,.2-2.62l.53-1.11a.86.86,0,0,0-.06-.78c-4.75-9.11-10.72-19-14.66-22.61a1,1,0,0,0-.93-.24c-.77.27-5.25,1-8.06-.14s-5.9-2.88-4.08-6.89c1.67-3.66,6.7-2.41,9.31-1.4,3.5,1.34,5.17,3.74,7.59,6.78a185.07,185.07,0,0,1,14.64,23.19c2.69,6.08,1.71,7-1.19,10.6-3.28,4.09-7.49,10.18-21,13.67a20.64,20.64,0,0,1-7,.48c-1.19-.11-1.38.81.64,1.35,5.87,1.56,11.73-1,17.58-4.25A36.53,36.53,0,0,0,361.55,84c1.38-2.08,1.83-.65,2.31.16a46.67,46.67,0,0,1,2.53,7.8c.16,1.35.33,2.12,2.26,1.94,12.91-1.22,17.5-7.58,20.48-10.12.84-.71,1.11-1,.5-1.82-1.22-1.66-1.38-2.88-.55-4.2.44-.7.73-.64-.06-2.21-1.93-3.87-11-17.69-12.27-19.62-.48-.73-.6-.94-1.43-.61s-6.8,2.76-9.4-.39-1.93-6.18.72-7.51c2.3-1.15,5.69-1.05,11.16,4.48s13.27,19.72,15.92,24,2.75,6.8-.66,10.61c-4.26,4.75-10.89,10.28-18,12.27a23.54,23.54,0,0,1-7.13,1.16c-.83,0-1.33.33-.22.88s2.87.67,5.69,0c1.91-.45,2.82,0,3,1.27s.61,6.64.61,6.64c-9.17,2.81-25,3.22-39.6-1.52-12.33-4-25.72-12.13-42.3-22.3-1.14-.7-1.47-.5-1.87.07s-2,2.66-2.41,3.22-.77,1,.12,1.84,5.88,5.69,6.89,6.77c1.55,1.64,2.08,1.74,1.6,4.79a63.13,63.13,0,0,0-.73,8.58c0,2.51-.41,4.23,3,7.12,4.75,4.07,19.1,15.9,26.16,19.52,9.25,4.75,19.52,2.9,23.49-.2,3.67-2.86,5.28-1.26,7-1s7.17,1.11,10.56.24c2.33-.6,2.61-1.06,2.14.63-1.06,3.75-9.85,22.28-18.41,30.56-1,.93-1.22,1.4-1,1.57s.88-.27,1.63-.9a2.77,2.77,0,0,1,2.9-.67c2.63.44,4.91-.51,8-3.65a45.5,45.5,0,0,0,8.33-13c1.65-4.16.36-5.6-.39-6.36-1.18-1.17-1.66-1.1-.79-3.22,4.79-11.62,10.52-20.81,7.46-39.73-.34-2.13-.42-1.63.87-2.2,5.57-2.52,13.51-10.13,15.94-12.8,3.14-3.46,1.94-6.75.31-10A137.37,137.37,0,0,0,379,50.53c-3.38-3.77-8.64-6.67-12.81-5s-4.3,6.18-3.06,8.72c1.65,3.38,5.42,4.63,10.45,3.61,2.13-.43,1.54-.76,2.67.71,2,2.67,8.71,13.11,10.52,17.12.91,2,.63,1.73.24,2.91a3.4,3.4,0,0,0,.07,2.9c.48,1.34.37,1.31-.39,2a37.63,37.63,0,0,1-9.26,6.29c-1.43.6-1.43.29-1.89-1.1C372,78.1,362.65,67.42,357.62,62.86c-2.09-1.9-.86-.31-3.29-3.93s-6.76-10.13-10-13.43-8-5.73-13.11-4.79a5.89,5.89,0,0,0-4.71,5c-.1,1.12-.08,1.08-1.57.94-17.6-1.57-31,2.75-45.24,16.65-1,1-1.05,1-2-.16C266,50,252.94,38.68,247.6,24.69a20.43,20.43,0,0,1-1.21-12.62c.4-2.62.85-6.26-3.84-7.8C236.83,2.4,216.68-.21,209.6,0c-9.77.32-15,8.68-8.73,15.8a346.9,346.9,0,0,0,33.47,32.56c.61.52.14.92-.6.62-.21-.08-88.11-39.36-107.48-45.2-18.65-5.61-29.57-4.2-40.47-.28-6.5,2.34-23,12.14-26.09,14.81-2.29,2-4.1,3.44-4.11,6.31s1.52,3.16,5.73,3.44c32.21,2.2,63.29,5.22,82.79,10.76,1.29.37,1.29,1-.05,1.05-10.34.35-48.48,1.8-77.67,5.31-8.67,1-21.38,1.35-23,1.39-.53,0-.57.53-.08.75,2,.9,18,8,20.08,10.25,13.3,13.07,57.71,63.78,58.07,64.18a2.52,2.52,0,0,1,.6,2.74c-5.36,10.3-26.33,49.1,9.18,62.71,6.89,2.64,32.93,3.84,54,2,29.77-2.55,44.13-22,47.64-26.12.66,7.36,2.63,21.49,25.89,23.15,5.36.38,22.92-.21,33.62-1,9.6-.74,18.56-8.42,22.63-11.83,15,7.29,19.7,6.47,25.86,3.07.29-.16,0-.61-.27-.51-8.05,2.57-10.74,1.2-27.59-10.52-.66-.46-.23-1,.41-1,2.24.11,8.22,1,11.09-1.45,5.93-5,4.29-16.8-3-25.38a24.16,24.16,0,0,0-15.49-8.27,10.1,10.1,0,0,0-9.28,3.91c-.95,1.13-1.19.84-2.3-.39-2-2.2-6.17-9-8.79-13.47a.67.67,0,0,0-.67-.34c-.31.06-.41.45-.31.75,1.73,5.32,5.5,14.31,11.78,25.93,1,1.78-.73,2.29-1.5,1.14-4.57-6.81-10-17.45-15.1-30.38-5.15-13.1-9.2-26.06-5.1-40.23,3.42-11.8,12.71-18.13,23.25-23.07,11-5.16,18.4-4.52,25.75-4.34a5.57,5.57,0,0,1,3.74,1.57C328,50.86,328.46,51.31,328.94,51.74Zm-57.25,28.2s-45.43-18.45-94.41-36C126,25.59,72.53,24.39,62.21,23.87c-2.07-.1-2.06-.69-.51-1.89S86.12,4.78,101.08,4.27c19.57-.68,45.58,10.83,83.82,28.05,40.23,18.12,77.92,35.15,79.57,35.92,2.92,1.38,2.92.69.17-1.37s-48.16-38.18-60.71-53.66c-3.4-4.19-1-7.52,1.89-8.26C217.34,2,237.64,7,240.05,7.88s2.57.64,2.06,3.09c-4,19.09,15.48,37,34.4,56.93A56.58,56.58,0,0,0,271.69,79.94ZM118.3,48.88a42,42,0,0,0-15.6,15c-7.36,12.24-6.47,22.28-6.47,22.28l4.7,5.44a.54.54,0,0,0,1-.21c.19-1,2.7-14.78,8.6-23.4,6.69-9.77,18.4-17.76,20.81-19.34,5.31,0,10.54,0,15.51.19,1,0,2.05.08,3,.14-2,1.16-18.78,11.33-27.28,23.46-8.87,12.66-9.31,18.71-11.79,28,0,0,15.58,15,16.36,15.91a.82.82,0,0,0,1.46-.33c.46-5,2.57-18.67,16.31-34.82,14.2-16.69,32.64-25.41,35.2-26.57l.16.06,2.6-1.45c-6.83-2.88-16.45-6-34.73-7.24-25.66-1.8-59.7,1-85.44,2.88a.52.52,0,0,0-.25.94l10.68,6.35a.49.49,0,0,0,.6-.72l-2.6-3c-.33-.38,0-.74.56-.77C76.15,51.34,96.44,49.57,118.3,48.88Zm135.79,51.76c10.14,12.46,19.1,29.05,19.53,29.7.8,1.21.48,1.87-.18,1.5s-.47.11-2.23-1.94-8.84-12.22-9.13-12.65c-.07-.1-.29,0-.41,0a.35.35,0,0,0-.16.42A145.7,145.7,0,0,0,268,130.94a14.28,14.28,0,0,0,3.48,3.66,9.81,9.81,0,0,0,8.22,2.26c.88-.15,1.38-.06.75-1.15a139,139,0,0,1-13.33-32.34,6.71,6.71,0,0,0-1.72-3.72c-1.46-2-19.92-24.16-34.92-26.66-4.51-.75-8.37-.24-10.09,1.81a.3.3,0,0,1-.5-.11c-.88-3.5-6.52-6.42-13.49-6.76-6.37-.31-11.85,1.63-13.67,4.55a.27.27,0,0,1-.44,0c-1.69-3.12-7.82-4.38-14.5-2.79-6.5,1.54-11.33,5.25-11.69,8.71a.28.28,0,0,1-.39.17c-2.91-1.7-8.09-1.17-13,1.6-6.11,3.48-9.43,9.16-7.41,12.7s8.59,3.58,14.69.1c4.84-2.75,7.93-6.89,8-10.25a.28.28,0,0,1,.39-.22c2.73,1.68,7.51,2.12,12.62.91,5.33-1.26,9.54-4,11.08-6.84a.27.27,0,0,1,.45,0c1.57,3.06,6.8,5.49,13.12,5.8,6,.29,11.27-1.43,13.35-4.1a.3.3,0,0,1,.5.12c.65,3.39,4.61,7.95,10.42,9.93C239.53,91.53,244.94,89.39,254.09,100.64Zm-58.76-26a.42.42,0,0,1-.81-.06,3.14,3.14,0,0,1,0-.81c.35-3.14,5.77-5.12,12.1-4.41s11.17,3.84,10.82,7c-.31,2.76-4.55,4.62-9.88,4.54-.27,0-.53-.11-.57-.39h0a.48.48,0,0,1,.33-.51,6.35,6.35,0,0,0,1.11-.54,11,11,0,0,1-2.22,0c-3.89-.44-6.82-2.79-6.55-5.25a3.69,3.69,0,0,1,1.92-2.65C198.47,71.58,196,72.81,195.33,74.63ZM169,80.23a.41.41,0,0,1-.3.4.42.42,0,0,1-.49-.18,3,3,0,0,1-.29-.75c-.76-3.08,3.66-6.81,9.86-8.32s11.83-.25,12.58,2.83c.67,2.71-2.68,5.92-7.72,7.68-.26.09-.54.08-.67-.16h0a.47.47,0,0,1,.13-.6,7.18,7.18,0,0,0,.86-.89,10.63,10.63,0,0,1-2.1.74c-3.81.94-7.38-.26-8-2.67a3.72,3.72,0,0,1,.89-3.16C170.92,76.27,169,78.31,169,80.23Zm-21.87,12a.41.41,0,0,1-.68.39A2.89,2.89,0,0,1,146,92c-1.41-2.72,1.88-7.23,7.35-10.08s11.06-3,12.48-.23c1.24,2.39-1.16,6.18-5.49,9a.49.49,0,0,1-.67,0h0a.45.45,0,0,1,0-.59,6.86,6.86,0,0,0,.6-1,10.18,10.18,0,0,1-1.8,1.18c-3.36,1.75-7,1.44-8.09-.69a3.5,3.5,0,0,1,.11-3.16C148,88.09,146.67,90.45,147.15,92.24ZM221.9,77.77a.43.43,0,0,1-.76-.31,3.36,3.36,0,0,1,.24-.76c1.35-2.81,7.15-3,13-.31s9.43,7.06,8.09,9.87c-1.19,2.48-5.82,2.89-10.88,1.15-.26-.09-.47-.28-.42-.54v0a.48.48,0,0,1,.48-.37,8,8,0,0,0,1.23-.15,11,11,0,0,1-2.11-.72c-3.57-1.62-5.61-4.72-4.56-6.93a3.67,3.67,0,0,1,2.68-1.86C225.87,75.91,223.07,76.28,221.9,77.77ZM209.05,63.83c-.48-.24-9.37-5.16-12.67-6.47a3.92,3.92,0,0,0-2.7.12L182,64.33c-.46.27,0,.64.51.79,1.44.42,6.91,2,9.56,3.56a.92.92,0,0,0,1.11-.1c2.84-2.28,6.41-4,15.61-3.64C210,65,209.53,64.08,209.05,63.83Zm36.32,85.3c17.6,8.89,31.3,8.19,48.59,5.76.19,0,.32-.2.19-.35a57.25,57.25,0,0,1-7.16-8.33.67.67,0,0,0-.86-.39c-7,1.52-16.29,3.18-34.9.32a1.21,1.21,0,0,0-.86.11l-5.07,2.47C245.11,148.82,245.18,149,245.37,149.13Zm124.05-3s-7.09,12.07-12.07,17.75c-.53.6-.38.94.35.61,2.89-1.31,11.1-9.35,12.41-18.1C370.2,145.86,369.82,145.53,369.42,146.17Zm-8.72-76.7c.49.63,8.2,11,11,20.75.38,1.33.49,1.09,1,1a2.84,2.84,0,0,0,.93-.25c.45-.15.52-.4.25-1.13-3.36-9.2-9-17.7-12.75-20.81C360.52,68.55,360.2,68.83,360.7,69.47ZM294.32,87.56c-.83.81-.62,2.37.46,3.47s2.64,1.34,3.47.53.62-2.37-.46-3.48S295.15,86.74,294.32,87.56Zm34.52,18.74c.53.29,24,11.56,46.21,5.24,2.05-.58,2.35-.06,2.4,1.35a30.82,30.82,0,0,1-7.61,19.37c-1.71,1.87-5.62,2.52-5.79,0a12.18,12.18,0,0,1,1-4.68c.7-2.57.46-6.36-4.62-7.08-9.43-1.35-22.55-2.33-32-13.62C327.82,106.21,328.32,106,328.84,106.3Zm22.43,25.5a30,30,0,0,1-21.46-2c-8.38-4-16.85-10.65-23.95-17.6a7,7,0,0,1-2.34-5.52c0-1.81-.31-6.12-.31-6.72s-.55-.62-.62,0-1,6.81-1,8.78a6.36,6.36,0,0,0,2.26,5.44c7.11,7,17.15,15.41,26.91,19.87,8.35,3.82,11.63,2.87,20.78-1.51C352.5,132,352.33,131.49,351.27,131.8ZM299.33,133c-4.09,3.48-3.13,14.39,3,21.54,6.56,7.71,15.88,10.56,20.8,6.37s3.6-13.84-3-21.55C314,132.19,303.42,129.5,299.33,133Zm24.34,20.54A8.36,8.36,0,0,1,322,158a2.41,2.41,0,0,0-.48-.07c-.83,0-1.52.35-1.54.85a.8.8,0,0,0,.41.66,7.19,7.19,0,0,1-1.61.76.42.42,0,0,0,0-.25c-.12-.33-.64-.43-1.17-.23s-.82.56-.76.87a12.52,12.52,0,0,1-5.22-.81.81.81,0,0,0,.68-.57c.07-.43-.42-.87-1.1-1s-1.28.16-1.35.59a.46.46,0,0,0,0,.2c-.35-.17-.7-.36-1.05-.56A1.58,1.58,0,0,0,308,157a1.44,1.44,0,0,0-1.76-.2,24.62,24.62,0,0,1-3.74-3.58c-.14-.16-.27-.31-.39-.47a1.58,1.58,0,0,0-.26-1.62,1.61,1.61,0,0,0-1.37-.78,20.71,20.71,0,0,1-2.22-5.72.81.81,0,0,0,.55-.22c.37-.39.18-1.18-.42-1.75a2.16,2.16,0,0,0-.51-.36c0-.41-.06-.81-.07-1.21a.72.72,0,0,0,.51.31c.48.06.91-.4,1-1a1,1,0,0,0-.74-1.2.82.82,0,0,0-.73.37c.16-2.5.93-4.53,2.2-5.57,3-2.41,10.73-1.12,16.25,3.57a.81.81,0,0,0-.87,0c-.38.32-.22,1.14.37,1.82s1.36,1,1.73.64.26-.85-.09-1.43c.34.34.67.69,1,1.06a23.12,23.12,0,0,1,4.66,8.43,1.56,1.56,0,0,0-.2,1.6,2,2,0,0,0,.74,1.06c0,.36.07.71.09,1.06a.88.88,0,0,0-.76-.39,1.23,1.23,0,0,0,.16,2.38A.86.86,0,0,0,323.67,153.52Zm-16-18.8c-.33.42-.11,1.14.48,1.61s1.35.52,1.68.1.11-1.13-.49-1.6A1.23,1.23,0,0,0,307.67,134.72Zm-.12,7.39a1.85,1.85,0,1,0,2.16.39A1.58,1.58,0,0,0,307.55,142.11Zm4.38,1.76a1.85,1.85,0,0,0,2.42,2.55,1.84,1.84,0,0,0-2.42-2.55ZM306.79,146a1.81,1.81,0,1,0,2.1.38A1.54,1.54,0,0,0,306.79,146Zm4.35,1.72a1.82,1.82,0,1,0,2.1.39A1.55,1.55,0,0,0,311.14,147.68Zm-3.42-9.58a1.49,1.49,0,0,0,.26,2.06,1.29,1.29,0,1,0,1.78-1.69A1.5,1.5,0,0,0,307.72,138.1Zm4.23,1.67a1.49,1.49,0,0,0,.26,2.06,1.29,1.29,0,1,0-.26-2.06Zm-8-2.6a1.48,1.48,0,1,0,1.85.23A1.34,1.34,0,0,0,304,137.17Zm-.23,3.72a1.62,1.62,0,1,0,1.92.41A1.43,1.43,0,0,0,303.73,140.89Zm-.53,3.6a1.35,1.35,0,0,0-.07,1.89,1.17,1.17,0,1,0,1.85-1.25C304.5,144.43,303.71,144.14,303.2,144.49Zm3.52,5.63a1.61,1.61,0,1,0,1.87.27A1.38,1.38,0,0,0,306.72,150.12Zm4.09,1.67a1.67,1.67,0,0,0,2.27,2.22,1.41,1.41,0,0,0-.32-1.93A1.43,1.43,0,0,0,310.81,151.79Zm4.57-2.61a1.7,1.7,0,1,0,1.94.51A1.46,1.46,0,0,0,315.38,149.18Zm.8-3.75a1.7,1.7,0,1,0,1.94.52A1.46,1.46,0,0,0,316.18,145.43Zm-13.06,3c-.46.33-.44,1.15.05,1.84s1.26,1,1.73.65.44-1.16,0-1.85S303.58,148.09,303.12,148.42Zm12.93-7.14c-.47.33-.41,1.21.13,1.95s1.34,1.09,1.8.76.41-1.2-.13-2S316.51,141,316.05,141.28ZM311.6,136c-.35.36-.14,1.14.47,1.76s1.4.82,1.76.47.14-1.15-.47-1.76S312,135.66,311.6,136Zm8,7c-.37.24-.3,1,.16,1.71s1.12,1.08,1.49.84.3-1-.15-1.71S320,142.78,319.58,143Zm.42,3.78c-.45.23-.51,1-.13,1.75s1.05,1.16,1.49.94.51-1,.13-1.76S320.45,146.57,320,146.8Zm-13.37,7c-.38.39-.19,1.17.42,1.75s1.39.72,1.76.32.19-1.17-.42-1.74S307,153.4,306.63,153.79Zm-6.41-10.62c-.47.18-.64.92-.36,1.65s.88,1.19,1.35,1,.64-.91.36-1.65S300.69,143,300.22,143.17Zm0,3.72c-.4.18-.46.9-.14,1.6s.89,1.14,1.29,1,.46-.9.14-1.6S300.67,146.71,300.27,146.89Zm3,5.22c-.33.28-.2,1,.29,1.58s1.17.85,1.51.57.2-1-.29-1.58S303.64,151.83,303.3,152.11Zm7.14,3.58c-.27.46.06,1.14.71,1.52a1.25,1.25,0,0,0,1.68-.15c.26-.46-.06-1.14-.72-1.52S310.7,155.23,310.44,155.69Zm-9.6-16a1.24,1.24,0,0,0-.46,1.62c.25.72.85,1.16,1.35,1a1.24,1.24,0,0,0,.46-1.62C301.94,140,301.34,139.53,300.84,139.7Zm3.43-5.67a1.07,1.07,0,0,0,.22,1.52,1.06,1.06,0,1,0-.22-1.52Zm-2.85,2.34a1.13,1.13,0,0,0,.53,2.19,1.13,1.13,0,0,0-.53-2.19Zm17.25,17.89a1.13,1.13,0,1,0,1.54.2A1.1,1.1,0,0,0,318.67,154.26Zm-3.88-.94a1.39,1.39,0,1,0,1.79-.06A1.27,1.27,0,0,0,314.79,153.32Zm4.69-3a1.4,1.4,0,1,0,1.61.8A1.28,1.28,0,0,0,319.48,150.35Zm-5.42,7a1.24,1.24,0,0,0,2.42.09,1.24,1.24,0,0,0-2.42-.09Zm-14.5-21c-.31-.15-.75.11-1,.58s-.17,1,.14,1.13.75-.11,1-.58S299.87,136.48,299.56,136.33Zm3.2-2.63c-.26-.24-.75-.11-1.1.28s-.44.89-.18,1.13.75.1,1.1-.29S303,133.93,302.76,133.7Zm20,21.25c-.29-.27-.83-.15-1.21.27a.92.92,0,0,0-.16,1.24c.29.26.83.14,1.21-.28S323.07,155.21,322.78,155Zm-3.48,2.56c-.12-.33-.64-.43-1.17-.23s-.86.61-.74.93.64.43,1.17.24S319.42,157.83,319.3,157.51Zm-3.88,2c0-.35-.48-.61-1.05-.58s-1,.32-1,.66.48.6,1.05.58S315.43,159.81,315.42,159.47Zm-107-12a106.11,106.11,0,0,1-9.38,13.33c-.11.13,0,.3.15.34l.5,0c.6,0,1,.08,1.3-.15a95.29,95.29,0,0,0,14.1-13,.39.39,0,0,1,.33-.14h0c.3,0,.37.37.22.63a90.47,90.47,0,0,1-8.64,12.58.2.2,0,0,0,.14.32l.46,0a4.4,4.4,0,0,0,1.87-.14c3.43-2.46,6.92-7.24,12.25-11.75.3-.25.59-.5.87-.77a.38.38,0,0,1,.29-.1H223c.29,0,.36.36.23.62-2.88,5.29-5.4,9.65-8,12.76-.1.12,0,.27.14.3l.44,0a1.84,1.84,0,0,0,1.16-.5c3.3-2.49,6.81-7.19,11.27-11.41.36-.33.69-.66,1-1a.35.35,0,0,1,.29-.1h.07c.29,0,.36.35.23.61A72.92,72.92,0,0,1,222,162a.16.16,0,0,0,.1.26h.37a1.8,1.8,0,0,0,1.08-.28c5.37-4.09,11.94-12.43,16.55-22.95,5.45-12.41,5.5-21.53,4.5-24.5a.15.15,0,0,0-.19-.12c-.12,0-.13.14-.14.22a66.81,66.81,0,0,1-2.59,9.16.65.65,0,0,1-.56.42c-.33,0-.46-.42-.43-.75a46.34,46.34,0,0,0-1.49-15.16.18.18,0,0,0-.23-.14.2.2,0,0,0-.15.24,47,47,0,0,1-2.36,13.25c-.14.47-.43.85-.9.69l-.21-.07c-.38-.13-.44-.51-.4-.91.83-7.76-.5-13.55-1.38-15.9a.21.21,0,0,0-.24-.15.23.23,0,0,0-.17.25,50.21,50.21,0,0,1-2.61,14.06c-.15.47-.44.85-.9.69h0c-.37-.13-.45-.5-.41-.89A43.62,43.62,0,0,0,226.43,100a.22.22,0,0,0-.26-.16.22.22,0,0,0-.18.27,50.79,50.79,0,0,1-1.94,18c-.09.32-.25.59-.58.55h0c-.34,0-.44-.37-.42-.71a36.68,36.68,0,0,0-3.2-16.74.23.23,0,0,0-.28-.14.22.22,0,0,0-.19.25c.14,3.55-.06,14.7-6.39,28.09-5.63,11.94-16.63,23.7-22.2,29.39-.12.12,0,.28.17.31l.54,0a2.83,2.83,0,0,0,1.53-.29,102.64,102.64,0,0,0,15.24-11.72l.08-.05C208.47,147.05,208.53,147.3,208.45,147.43Zm-27.83-10.37.11,0a.42.42,0,0,1,.26.45,3.78,3.78,0,0,0,.3,1.91c.89,1.42,2.79,2.56,7.13-.82,2.92-2.27,4-5.5,3-7.09-1.14-1.81-4.66-1.17-8.32,1.23s-5.69,5.82-4.55,7.63a1.69,1.69,0,0,0,.35.41.27.27,0,0,0,.35,0,.3.3,0,0,0,.11-.33,3.6,3.6,0,0,1,.87-3.27A.39.39,0,0,1,180.62,137.06Zm62.65,25.86c2.17,3.82,6.3,5.92,12.8,5.07,5.22-.68,9.33-2.34,14.67-5.66,1.41-.88.71-1.45-.66-.82-2.51,1.14-8.37,3.44-12.7,3.31-4-.12-6.59-2.47-8-3.39a1.82,1.82,0,0,0-1.47-.21c-.08,0-2.28.41-4.33.82C243.62,162,243,162.4,243.27,162.92Zm-6.2-.26c.83,2.57,1.79,10.15,11.85,11.9s21.61-3.1,22.53-3.45,1.17.35.3.83-11.5,7.28-23.31,5.49-12.11-12.59-12.24-13.33a1.63,1.63,0,0,1,.31-1.39C236.73,162.36,236.9,162.11,237.07,162.66Zm-96.89-45.54c-12.21,16.36-23.31,45.38-8.53,52.4,18.12,8.61,43.14-8.37,55.84-21.64,1.3-1.35,2.8-1.53.84,1s-15.22,15.33-16.89,16.47-1.54,1.33-.14,1.14,1.57.28.52,1c-3,2.14-9.28,3.59-10.54,3.87s-1.82.93,0,1.07,6.15.09,7.13,0,2.11.12.32.89a32.1,32.1,0,0,1-20.36,1.77c-1-.25-2-.1-.47.79a49.63,49.63,0,0,0,9.93,4.29c1.11.3,1.91,1,.09,1.16-10.53.84-20.46-6.2-21.25-6.71s-1.35-.14-.8.61,3.78,4.56,6.3,6c1,.6.82,1.33-.38,1.07-7.83-1.68-13.23-8-13.88-8.58s-1.26-.65-.89.52a23.16,23.16,0,0,0,5.41,7.41c.75.69.83,1.68-.8.79-5.36-2.94-9.46-8.85-9.83-9.55s-1-.61-.84.32a23.37,23.37,0,0,0,1.63,4.15c.47.84.28,2-1.12.37-.71-.83-9.5-7.26-5.33-28.59,3.92-20,18.09-34,18.74-34.61,1.3-1.26,2.48-1.66.64,1.22s-1.6,4.1.9,1.11,2.77-2.52.94.33-.77,2.76,1.56-.15S141.93,114.79,140.18,117.12Zm48.15-12.64a61.44,61.44,0,0,1,2.31,22.16c-.08,1.24-.24,1.6.71,2.13s.89.77,1.72-.47,7.76-13.63,5.21-18.72a11.23,11.23,0,0,0-9.06-6.4C188.15,103.12,187.89,103,188.33,104.48Zm-8.65-1.3c.89-.3,1-.3,1.48.24s7.11,9.06,8.83,23.81c.11.94.24.89-.47.89s-.76.24-1-.89A59.68,59.68,0,0,0,179,104.48C178.56,103.83,178.79,103.48,179.68,103.18Zm-33.15,43.09a227.19,227.19,0,0,0,28.54-3.35c1.64-.34,1.9-.07,3,.86s1.72,1.42.89,2.23c-10.39,10.29-18.4,14.76-19.56,15.39a3.23,3.23,0,0,1-2.16.67c-.9,0-2-.14-.45-1.15,6.49-4.14,17.55-12.6,18.08-13s.67-1.11-.53-.59-23.73,11.06-24.89,11.59-1.39.32-1.9-.75a22.05,22.05,0,0,1-2.5-10.66C145.06,146.53,145,146.34,146.53,146.27Zm30.87-44.2c-14.45,6.81-22.17,14.55-29.14,26.27-9,15-12.54,32.25-.72,37.62,1.9.87,2.08,1.1.24,1.68-17.56,5.49-20.78-22.34-1-46.94,13.61-16.89,30.82-27,41.56-23.53,2.38.77,2.86,1.72-.12,1.32-11.46-1.55-21.73,4.06-32.24,14.45s-20.54,26.27-19.71,39.77c.15,2.39.79,3.1,1.2-.24a61.53,61.53,0,0,1,14.57-32.37c5.73-6.8,15.28-15.88,24.84-18.87C179.85,100.32,179.18,101.23,177.4,102.07Z"/></svg>