<svg xmlns="http://www.w3.org/2000/svg" viewBox="0 0 664.99 131.94"><defs><style>.a{fill-rule:evenodd;}</style></defs><title>Agnry-Bee-1320-Inline</title><path class="a" d="M42.64,30.17c1.52-.35,2.9,0,3.1.83s-.89,1.76-2.41,2.12-2.9,0-3.09-.83S41.12,30.53,42.64,30.17ZM18.41,33.68c1.22-.29,2.35,0,2.5.69s-.7,1.45-1.93,1.74-2.35,0-2.51-.7S17.18,34,18.41,33.68Zm19.86,84.94c-.52-.69-11.44-15-12.62-17.55s-2.09-4,.36-5.13L28.74,95s1-.32.64,1a9.61,9.61,0,0,0,1.05,5.85s4.84,9.41,8.68,16.16a.53.53,0,0,1-.16.67A.46.46,0,0,1,38.27,118.62ZM35.66,41.73c3.31.14,9-4.52,21.94-3.46a36.56,36.56,0,0,1,19.26,7.19.34.34,0,0,0,.35,0,.29.29,0,0,0,0-.32c-.13-.18-6-7.63-20-9.29a50.76,50.76,0,0,0-9.68.08l1-.92a3.89,3.89,0,0,1,2.59-1.09c5.11-.13,10.24-.57,17.87,3,7.32,3.43,13.77,7.83,16.14,16,2.85,9.84,0,18.84-3.54,27.93A115.8,115.8,0,0,1,71.1,101.93c-.53.8-1.7.44-1-.79a118.24,118.24,0,0,0,8.18-18,.4.4,0,0,0-.22-.53.46.46,0,0,0-.46.24,88.43,88.43,0,0,1-6.11,9.35c-.77.85-.93,1.05-1.59.27a7,7,0,0,0-6.44-2.72A16.83,16.83,0,0,0,52.67,95.5c-5.06,6-6.19,14.14-2.08,17.62,2,1.68,6.15,1.08,7.7,1,.44,0,.74.37.28.69C46.88,123,45,123.9,39.43,122.12c-.22-.07-.4.24-.19.35,4.27,2.37,7.5,2.93,17.95-2.12,2.82,2.36,9,7.69,15.7,8.21,7.43.57,19.62,1,23.33.71,16.15-1.15,17.51-11,18-16.06,2.43,2.85,12.4,16.36,33.05,18.13,14.64,1.25,32.72.42,37.5-1.41,24.64-9.45,10.09-36.37,6.37-43.52a1.75,1.75,0,0,1,.41-1.91c.25-.27,31.08-35.47,40.31-44.54,1.4-1.55,12.52-6.49,13.93-7.12.34-.15.32-.5-.06-.51-1.12,0-9.94-.25-16-1-20.26-2.43-46.74-3.44-53.91-3.68-.93,0-.93-.47,0-.73,13.54-3.85,35.11-5.94,57.46-7.47,2.92-.2,4-.39,4-2.38s-1.26-3-2.85-4.38c-2.13-1.86-13.6-8.66-18.11-10.29-7.56-2.71-15.14-3.69-28.08.2C174.76,6.68,113.75,33.94,113.61,34c-.52.21-.84-.07-.41-.43A241.53,241.53,0,0,0,136.42,11c4.37-4.94.72-10.74-6.06-11-4.91-.16-18.9,1.66-22.86,3-3.26,1.06-3,3.59-2.67,5.41a14.18,14.18,0,0,1-.84,8.76c-3.71,9.7-12.79,17.57-20.87,26.7-.69.78-.73.79-1.42.11C71.83,34.31,62.51,31.31,50.3,32.4c-1,.09-1,.12-1.09-.66a4.07,4.07,0,0,0-3.27-3.48,10.31,10.31,0,0,0-9.1,3.32,79.64,79.64,0,0,0-6.92,9.32c-1.69,2.51-.83,1.41-2.29,2.73-3.49,3.16-10,10.57-12.43,18-.32,1-.31,1.18-1.3.77A26.59,26.59,0,0,1,7.46,58c-.52-.51-.59-.5-.27-1.42a2.39,2.39,0,0,0,.06-2c-.28-.82-.47-.61.16-2a105,105,0,0,1,7.3-11.89c.79-1,.38-.79,1.86-.49,3.49.71,6.1-.16,7.25-2.5a4.36,4.36,0,0,0-2.13-6c-2.89-1.2-6.54.81-8.88,3.43A94.61,94.61,0,0,0,1.14,52.84c-1.13,2.24-2,4.52.22,6.92,1.69,1.86,7.19,7.14,11.06,8.88.89.4.84,0,.6,1.53C10.9,83.31,14.88,89.68,18.2,97.75c.61,1.47.27,1.42-.54,2.23-.53.53-1.42,1.53-.28,4.42a32,32,0,0,0,5.78,9c2.13,2.18,3.71,2.84,5.54,2.53a1.92,1.92,0,0,1,2,.47c.52.44,1,.77,1.13.62s-.05-.44-.72-1.09c-5.94-5.74-12-18.61-12.78-21.21-.32-1.17-.13-.85,1.48-.44,2.36.61,6.16,0,7.33-.16s2.3-1.32,4.84.67c2.76,2.15,9.89,3.43,16.31.13,4.89-2.51,14.86-10.72,18.15-13.55,2.34-2,2-3.19,2-4.94a44.17,44.17,0,0,0-.5-6c-.34-2.12,0-2.18,1.11-3.33.7-.74,4.16-4.09,4.78-4.69s.39-.9.08-1.28-1.38-1.84-1.67-2.23-.5-.54-1.3,0c-11.5,7-20.79,12.69-29.36,15.47-10.09,3.29-21.11,3-27.48,1.06,0,0,.34-3.72.43-4.61s.78-1.19,2.11-.88c1.95.46,3.18.39,3.95,0s.42-.61-.16-.61a16.35,16.35,0,0,1-4.95-.81C10.6,67.13,6,63.3,3,60c-2.37-2.65-2.3-4.41-.46-7.37S9.83,39.82,13.63,36s6.15-3.91,7.74-3.11c1.85.92,2.31,3,.5,5.22s-5.94.5-6.52.27-.66-.09-1,.42c-.89,1.34-7.18,10.93-8.52,13.61-.54,1.09-.34,1.05,0,1.54.58.92.46,1.76-.38,2.91-.42.58-.23.78.34,1.27,2.08,1.76,5.26,6.17,14.22,7,1.34.13,1.46-.41,1.57-1.35a33.36,33.36,0,0,1,1.75-5.41c.34-.56.65-1.55,1.61-.11A25.49,25.49,0,0,0,33.14,66c4.06,2.28,8.13,4,12.2,3,1.4-.38,1.27-1,.44-.94a14.07,14.07,0,0,1-4.89-.33C31.53,65.26,28.61,61,26.33,58.19c-2-2.5-2.69-3.13-.82-7.35a127.84,127.84,0,0,1,10.15-16.1C37.34,32.63,38.5,31,40.93,30c1.81-.7,5.3-1.57,6.46,1,1.27,2.78-.88,4-2.83,4.78a10.49,10.49,0,0,1-5.59.1.75.75,0,0,0-.65.16c-2.73,2.5-6.88,9.37-10.17,15.7a.53.53,0,0,0,0,.53l.36.78a2.3,2.3,0,0,1,.15,1.81,4.39,4.39,0,0,1-.48.7.48.48,0,0,0,.11.69C30.43,58.39,35,63.38,43.55,64c.76,0,.78-.26.73-.63-.39-2.46-.56-6.29,2.1-11.48a23.23,23.23,0,0,1,7.8-9.22c.29-.23,0-.57-.31-.47-5.44,1.42-8.45,3.84-11.79,8.92-2.64,4-3.1,8-2.36,10.64.11.38-.16.76-.86.51-5.45-2-7.84-4.39-8.82-5.68a.86.86,0,0,1-.21-.93c.09-.17.5-1.25.5-1.25a1,1,0,0,0,0-.79,8.11,8.11,0,0,0-.52-.94.86.86,0,0,1,0-.69A77,77,0,0,1,35.66,41.73ZM87.27,55.48a39,39,0,0,0-3.34-8.36c13.13-13.84,26.62-26.26,23.87-39.5-.35-1.71-.24-1.56,1.43-2.15S125,1.41,133,3.44c2,.51,3.67,2.82,1.31,5.73C125.59,19.91,94.07,45,92.16,46.41s-1.9,1.91.12,1c1.15-.54,27.31-12.35,55.22-24.93C174.05,10.48,192.1,2.49,205.68,3c10.38.36,26.26,11.46,27.33,12.29s1.08,1.25-.36,1.32c-7.16.36-44.28,1.19-79.86,13.93C118.8,42.68,87.27,55.48,87.27,55.48ZM184.7,33.74c1.67,1.1,9.8,6.64,14.44,13.43,4.1,6,5.84,15.55,6,16.24a.38.38,0,0,0,.67.14L209,59.78s.62-7-4.48-15.47a29.4,29.4,0,0,0-10.83-10.39c15.17.48,29.25,1.71,32.34,1.92.37,0,.62.27.39.54l-1.81,2.09c-.21.25.14.67.42.51l7.41-4.41a.36.36,0,0,0-.17-.65c-17.86-1.31-41.49-3.25-59.3-2-12.69.88-19.36,3-24.1,5l1.8,1,.12,0a75.92,75.92,0,0,1,24.42,18.44c9.54,11.21,11,20.7,11.32,24.16a.56.56,0,0,0,1,.23c.55-.63,11.36-11,11.36-11-1.72-6.46-2-10.66-8.18-19.44-5.9-8.42-17.57-15.48-18.93-16.29l2.11-.1C177.38,33.75,181,33.71,184.7,33.74ZM99.48,69.85c6.36-7.81,10.11-6.32,16.72-8.57,4-1.37,6.78-4.54,7.23-6.89a.21.21,0,0,1,.35-.09c1.45,1.86,5.08,3.06,9.27,2.85,4.38-.21,8-1.9,9.1-4a.2.2,0,0,1,.32,0c1.07,2,4,3.86,7.69,4.74,3.54.84,6.86.53,8.76-.63a.18.18,0,0,1,.26.15c.06,2.34,2.2,5.21,5.56,7.12,4.23,2.41,8.8,2.38,10.2-.08s-.91-6.39-5.15-8.81c-3.38-1.92-7-2.29-9-1.11a.18.18,0,0,1-.27-.11c-.26-2.41-3.61-5-8.12-6s-8.89-.23-10.06,1.94a.2.2,0,0,1-.31,0c-1.26-2-5.06-3.38-9.48-3.17-4.84.24-8.76,2.27-9.36,4.7a.21.21,0,0,1-.35.07c-1.2-1.42-3.88-1.77-7-1.25-10.41,1.73-23.22,17.12-24.23,18.5a4.71,4.71,0,0,0-1.2,2.58,96.94,96.94,0,0,1-9.24,22.45c-.44.75-.1.69.51.79a6.79,6.79,0,0,0,5.71-1.57,9.85,9.85,0,0,0,2.41-2.53c2.29-4,4.22-8.5,4.54-9.23a.24.24,0,0,0-.11-.29c-.08,0-.24,0-.29,0-.2.3-5.14,7.39-6.33,8.78s-1.1,1.1-1.55,1.35-.69-.2-.13-1C86.23,90,92.45,78.49,99.48,69.85Zm40.79-18.06c-.43-1.26-2.18-2.11-4.33-2.16a2.51,2.51,0,0,1,1.33,1.84c.2,1.71-1.84,3.34-4.54,3.64a8,8,0,0,1-1.54,0,5,5,0,0,0,.77.37.35.35,0,0,1,.23.36h0a.36.36,0,0,1-.4.27c-3.7.06-6.64-1.23-6.85-3.15-.25-2.18,3.11-4.35,7.51-4.85s8.15.88,8.39,3.06a1.75,1.75,0,0,1,0,.56.3.3,0,0,1-.27.24A.29.29,0,0,1,140.27,51.79Zm18.26,3.89c0-1.33-1.32-2.74-3.32-3.53a2.54,2.54,0,0,1,.61,2.19c-.4,1.67-2.88,2.5-5.52,1.86a7.41,7.41,0,0,1-1.46-.52,4.36,4.36,0,0,0,.6.62.33.33,0,0,1,.09.41h0a.35.35,0,0,1-.46.12c-3.5-1.23-5.82-3.46-5.36-5.34.52-2.13,4.43-3,8.73-2s7.37,3.63,6.85,5.77a2.36,2.36,0,0,1-.21.52.29.29,0,0,1-.34.13A.28.28,0,0,1,158.53,55.68ZM173.7,64c.34-1.25-.6-2.88-2.3-4.08a2.45,2.45,0,0,1,.07,2.2c-.77,1.48-3.28,1.69-5.62.47a7.37,7.37,0,0,1-1.24-.81,4.88,4.88,0,0,0,.42.71.32.32,0,0,1,0,.41h0a.36.36,0,0,1-.47,0c-3-2-4.67-4.58-3.8-6.24,1-1.89,4.85-1.82,8.65.16s6.09,5.11,5.1,7a2,2,0,0,1-.31.45.3.3,0,0,1-.35,0A.28.28,0,0,1,173.7,64ZM121.83,54c-.81-1-2.76-1.29-4.82-.66a2.51,2.51,0,0,1,1.86,1.29c.73,1.53-.69,3.68-3.16,4.81a7.69,7.69,0,0,1-1.47.49,4.7,4.7,0,0,0,.86.11.32.32,0,0,1,.33.26h0c0,.18-.11.31-.29.37-3.51,1.21-6.73.93-7.55-.79-.94-1.95,1.58-5,5.61-6.85s8-1.74,9,.21a2,2,0,0,1,.16.53.28.28,0,0,1-.18.3A.29.29,0,0,1,121.83,54Zm8.92-9.68c-.34.17-.68.8.17.77,6.39-.25,8.87,1,10.84,2.52a.63.63,0,0,0,.77.08,38.72,38.72,0,0,1,6.63-2.48c.36-.1.68-.36.36-.55l-8.11-4.75a2.71,2.71,0,0,0-1.87-.08C137.25,40.72,131.08,44.13,130.75,44.3Zm-25.21,59.2c.13-.07.18-.22,0-.28l-3.52-1.72a.82.82,0,0,0-.6-.07c-12.92,2-19.38.83-24.22-.23a.46.46,0,0,0-.59.27,40.4,40.4,0,0,1-5,5.78c-.08.11,0,.23.14.25C83.81,109.18,93.32,109.67,105.54,103.5Zm-86.09-2s4.91,8.37,8.37,12.31c.37.42.27.66-.24.43-2-.91-7.71-6.49-8.62-12.56C18.9,101.23,19.17,101,19.45,101.45ZM25.5,48.21c-.34.44-5.69,7.61-7.65,14.41-.26.91-.34.75-.69.72a2,2,0,0,1-.65-.18c-.31-.1-.35-.28-.17-.78C18.67,56,22.62,50.1,25.19,47.94,25.62,47.58,25.84,47.77,25.5,48.21ZM71.56,60.77a2,2,0,0,1-2.72,2.77,2,2,0,0,1,2.72-2.77Zm-24,13c-.37.21-16.68,8-32.07,3.64-1.42-.4-1.64,0-1.67.94a21.43,21.43,0,0,0,5.28,13.44c1.19,1.3,3.9,1.75,4,0a8.58,8.58,0,0,0-.7-3.25c-.48-1.78-.31-4.41,3.21-4.91,6.54-.94,15.65-1.61,22.24-9.45C48.32,73.71,48,73.57,47.61,73.77ZM32,91.47a20.84,20.84,0,0,0,14.89-1.41c5.82-2.78,11.7-7.4,16.63-12.22A4.84,4.84,0,0,0,65.18,74c0-1.26.21-4.25.21-4.67s.39-.43.43,0,.67,4.72.72,6.09A4.43,4.43,0,0,1,65,79.21C60,84,53.07,89.9,46.3,93c-5.8,2.65-8.07,2-14.42-1C31.19,91.62,31.31,91.26,32,91.47Zm36.05.82c-2.84-2.41-10.21-.55-14.43,4.42-4.56,5.35-5.48,12-2.06,15s9.88.93,14.43-4.42C70.26,102.28,70.93,94.71,68.09,92.29ZM51.16,105.36c0-.24,0-.49.06-.74a1.33,1.33,0,0,0,.52-.73,1.09,1.09,0,0,0-.14-1.11,16,16,0,0,1,3.23-5.85c.22-.26.45-.5.68-.74-.24.4-.28.81-.06,1s.8,0,1.2-.45.52-1,.26-1.26a.57.57,0,0,0-.61,0c3.84-3.25,9.23-4.15,11.28-2.47a5.42,5.42,0,0,1,1.53,3.86.56.56,0,0,0-.51-.25.79.79,0,0,0,.17,1.52.52.52,0,0,0,.36-.21q0,.41-.06.84a1.33,1.33,0,0,0-.35.25c-.42.39-.55.94-.29,1.21a.5.5,0,0,0,.38.15,14.19,14.19,0,0,1-1.54,4,1.13,1.13,0,0,0-1,.54,1.11,1.11,0,0,0-.18,1.13l-.27.32a16.85,16.85,0,0,1-2.6,2.49,1,1,0,0,0-1.22.14,1.09,1.09,0,0,0-.51,1q-.36.21-.72.39a.33.33,0,0,0,0-.14c0-.3-.46-.48-.93-.41s-.81.38-.77.68a.54.54,0,0,0,.47.39,8.64,8.64,0,0,1-3.62.57c0-.22-.18-.48-.52-.61s-.74-.06-.82.16a.37.37,0,0,0,0,.18,4.93,4.93,0,0,1-1.11-.53.53.53,0,0,0,.28-.46c0-.35-.49-.61-1.07-.59l-.33,0a5.75,5.75,0,0,1-1.19-3.09.56.56,0,0,0,.38.19.85.85,0,0,0,.11-1.65A.61.61,0,0,0,51.16,105.36ZM62.3,93.5c-.23-.29-.75-.25-1.16.07s-.57.83-.34,1.12.75.25,1.16-.07S62.53,93.79,62.3,93.5Zm.08,5.13a1.1,1.1,0,0,0-1.49.27.94.94,0,1,0,1.3,1.24A1.1,1.1,0,0,0,62.38,98.63Zm-3,1.22a1.28,1.28,0,0,0-1.68,1.77,1.28,1.28,0,0,0,1.68-1.77Zm3.57,1.45a1.08,1.08,0,0,0-1.46.26.92.92,0,1,0,1.28,1.21A1.07,1.07,0,0,0,62.91,101.3Zm-3,1.2a1.07,1.07,0,0,0-1.46.26,1.08,1.08,0,0,0-.19,1.47,1.25,1.25,0,0,0,1.65-1.73Zm2.38-6.66a1.22,1.22,0,0,0-1.6,1.69,1.22,1.22,0,0,0,1.6-1.69ZM59.33,97a1.06,1.06,0,0,0-1.42.26A.89.89,0,1,0,59.33,97Zm5.55-1.8a.92.92,0,0,0-1.29.16.84.84,0,1,0,1.19,1.13A.91.91,0,0,0,64.88,95.2ZM65,97.78A1.12,1.12,0,1,0,65,99.14,1,1,0,0,0,65,97.78Zm.38,2.5A1.12,1.12,0,0,0,64.22,102a1.12,1.12,0,0,0,1.19-1.76ZM63,104.19a1.12,1.12,0,1,0-.22,1.29A.95.95,0,0,0,63,104.19Zm-2.84,1.16a1.16,1.16,0,1,0-.23,1.34A1,1,0,0,0,60.12,105.35ZM57,103.53a1.18,1.18,0,1,0-.07,1.39A1,1,0,0,0,57,103.53Zm-.56-2.6A1.18,1.18,0,0,0,55,102.68a1.18,1.18,0,0,0,1.41-1.75ZM65.46,103c-.32-.23-.86,0-1.2.45s-.36,1,0,1.28.85,0,1.19-.45S65.78,103.23,65.46,103Zm-9-5c-.32-.23-.89,0-1.26.53s-.41,1.13-.09,1.36.88,0,1.26-.53S56.81,98.28,56.49,98.05Zm3.08-3.65c-.25-.25-.79-.1-1.22.33s-.57,1-.32,1.21.79.11,1.22-.32S59.82,94.65,59.57,94.4ZM54,99.26c-.26-.17-.73.09-1,.58s-.37,1-.11,1.19.72-.09,1-.58S54.29,99.43,54,99.26Zm-.3,2.62c-.31-.16-.77.13-1,.65s-.22,1.06.09,1.22.77-.14,1-.65S54.05,102,53.74,101.88ZM63,106.73c-.26-.27-.81-.17-1.23.23s-.55.94-.29,1.21.81.17,1.22-.22S63.28,107,63,106.73Zm4.44-7.37c-.33-.12-.75.19-.94.7s-.08,1,.25,1.15.75-.19.94-.7S67.8,99.49,67.47,99.36Zm0,2.59c-.27-.13-.67.17-.89.66s-.18,1,.1,1.11.68-.17.9-.66S67.71,102.07,67.43,102Zm-2.1,3.62c-.23-.19-.7,0-1,.39s-.44.91-.2,1.1.69,0,1-.39S65.56,105.76,65.33,105.57Zm-4.95,2.48c-.18-.32-.7-.36-1.16-.1s-.68.73-.5,1a.84.84,0,0,0,1.16.1C60.34,108.84,60.56,108.37,60.38,108.05ZM67,97c-.34-.12-.76.18-.94.68s0,1,.32,1.12.77-.18.94-.68S67.39,97.08,67,97ZM64.66,93a.77.77,0,1,0-.15,1.06A.76.76,0,0,0,64.66,93Zm2,1.62a.76.76,0,0,0-.9.59.75.75,0,0,0,.53.93.76.76,0,0,0,.9-.58A.77.77,0,0,0,66.64,94.64Zm-12,12.42a.78.78,0,1,0,.07,1.07A.75.75,0,0,0,54.66,107.06Zm2.7-.66a1,1,0,0,0-1.5,1.19,1,1,0,0,0,1.5-1.19Zm-3.25-2.05a1,1,0,1,0,.34,1.2A.89.89,0,0,0,54.11,104.35Zm3.76,4.87a.77.77,0,0,0-.87-.63.68.68,0,1,0,0,1.33A.77.77,0,0,0,57.87,109.22Zm10.06-14.6c-.22.1-.26.45-.1.78s.47.51.68.4.26-.46.1-.78S68.14,94.51,67.93,94.62Zm-2.22-1.83c-.18.16-.12.51.12.78s.59.36.77.2.12-.52-.13-.79S65.89,92.63,65.71,92.79Zm-13.9,14.75c-.2.18-.15.56.11.85s.64.38.85.19.15-.56-.11-.85S52,107.35,51.81,107.54Zm2.42,1.77c-.09.23.15.52.51.65s.73.07.82-.16-.15-.51-.52-.65S54.31,109.09,54.23,109.31Zm2.69,1.36c0,.24.3.45.69.46s.72-.16.73-.4-.3-.44-.69-.46S56.93,110.44,56.92,110.67Zm74.24-8.35a73.49,73.49,0,0,0,6.51,9.25c.08.09,0,.21-.1.24l-.35,0c-.42,0-.67,0-.9-.11a66.18,66.18,0,0,1-9.79-9,.27.27,0,0,0-.22-.1h0c-.2,0-.25.26-.14.43a62.15,62.15,0,0,0,6,8.74c.07.08,0,.19-.1.22l-.32,0a3.31,3.31,0,0,1-1.3-.1c-2.38-1.71-4.8-5-8.5-8.16l-.6-.53a.25.25,0,0,0-.2-.07h0c-.2,0-.25.25-.15.42a56,56,0,0,0,5.54,8.86.13.13,0,0,1-.09.21h-.31a1.21,1.21,0,0,1-.8-.34c-2.29-1.73-4.72-5-7.83-7.92l-.7-.69a.24.24,0,0,0-.2-.07h0c-.2,0-.26.24-.16.42a49.52,49.52,0,0,0,5.42,8.37.11.11,0,0,1-.07.18h-.26a1.26,1.26,0,0,1-.75-.19c-3.72-2.84-8.28-8.63-11.49-15.93-3.78-8.62-3.81-14.94-3.12-17,0-.05,0-.1.13-.08s.09.09.1.14a45.42,45.42,0,0,0,1.8,6.36.44.44,0,0,0,.39.29c.23,0,.32-.28.3-.51a32.18,32.18,0,0,1,1-10.53.12.12,0,0,1,.16-.09.13.13,0,0,1,.1.16,33,33,0,0,0,1.64,9.2c.1.32.3.59.62.48l.15-.05c.26-.09.31-.36.28-.63a25.6,25.6,0,0,1,1-11,.13.13,0,0,1,.16-.1.16.16,0,0,1,.12.17A34.66,34.66,0,0,0,115.81,83c.1.32.3.59.62.48h0c.26-.09.31-.35.28-.62a30.23,30.23,0,0,1,2-13.51.17.17,0,0,1,.19-.11.16.16,0,0,1,.12.18A35.22,35.22,0,0,0,120.33,82c.07.22.18.41.41.38h0c.24,0,.31-.25.3-.49a25.44,25.44,0,0,1,2.21-11.61.17.17,0,0,1,.2-.11c.12,0,.13.11.13.18A43.58,43.58,0,0,0,128,89.83c3.92,8.29,11.55,16.45,15.41,20.4.09.09,0,.19-.11.22h-.38a2,2,0,0,1-1.06-.2,71.7,71.7,0,0,1-10.58-8.13.1.1,0,0,0,0,0C131.15,102.05,131.11,102.23,131.16,102.32Zm19.31-7.2-.07,0a.29.29,0,0,0-.18.31,2.61,2.61,0,0,1-.21,1.33c-.62,1-1.94,1.78-4.95-.57-2-1.57-2.74-3.81-2.05-4.92s3.24-.81,5.78.86,4,4,3.16,5.29a1.68,1.68,0,0,1-.24.29.2.2,0,0,1-.25,0,.2.2,0,0,1-.07-.23,2.48,2.48,0,0,0-.61-2.27A.29.29,0,0,0,150.47,95.12ZM107,113.07c-1.51,2.65-4.37,4.11-8.89,3.52a23.82,23.82,0,0,1-10.18-3.93c-1-.61-.49-1,.46-.57,1.74.8,5.81,2.39,8.81,2.3a9.76,9.76,0,0,0,5.53-2.35,1.25,1.25,0,0,1,1-.15s1.58.29,3,.57C106.75,112.46,107.2,112.71,107,113.07Zm4.3-.18c-.58,1.79-1.24,7-8.23,8.26s-15-2.15-15.63-2.39-.82.24-.21.57,8,5,16.17,3.81,8.41-8.74,8.5-9.25a1.15,1.15,0,0,0-.21-1C111.54,112.68,111.42,112.51,111.3,112.89Zm67.24-31.6c8.48,11.35,16.18,31.49,5.92,36.36-12.57,6-29.94-5.81-38.75-15-.91-.94-1.94-1.06-.59.68s10.57,10.64,11.73,11.44,1.06.92.09.79-1.09.19-.35.71c2.1,1.49,6.43,2.49,7.31,2.68s1.26.65,0,.75-4.27.06-5,0-1.46.08-.23.61a22.24,22.24,0,0,0,14.14,1.23c.68-.17,1.36-.06.32.55a34.73,34.73,0,0,1-6.89,3c-.77.21-1.33.7-.06.8,7.31.59,14.2-4.3,14.75-4.65s.94-.1.55.42a20.13,20.13,0,0,1-4.37,4.17c-.72.42-.57.92.26.74,5.43-1.16,9.19-5.53,9.64-6s.87-.45.61.36a15.92,15.92,0,0,1-3.75,5.14c-.52.48-.58,1.17.55.55a21.72,21.72,0,0,0,6.83-6.63c.26-.48.71-.42.58.23a16.39,16.39,0,0,1-1.13,2.88c-.33.58-.2,1.39.77.25.5-.57,6.6-5,3.7-19.84-2.71-13.91-12.55-23.58-13-24-.91-.88-1.72-1.15-.45.84s1.12,2.85-.62.78-1.93-1.75-.65.23.53,1.91-1.09-.11S177.33,79.67,178.54,81.29Zm-33.42-8.78a42.75,42.75,0,0,0-1.6,15.38c.06.86.17,1.11-.49,1.48s-.62.53-1.19-.33-5.39-9.46-3.62-13a7.79,7.79,0,0,1,6.29-4.44C145.25,71.57,145.43,71.5,145.12,72.51Zm6-.9c-.62-.21-.7-.21-1,.16S145.17,78.06,144,88.3c-.07.65-.16.62.33.62s.53.17.66-.62a41.39,41.39,0,0,1,6.62-15.79C151.91,72.06,151.74,71.81,151.13,71.61Zm23,29.91a160.58,160.58,0,0,1-19.81-2.33,1.87,1.87,0,0,0-2.1.59c-.77.65-1.19,1-.62,1.56,7.22,7.13,12.78,10.24,13.58,10.68a2.26,2.26,0,0,0,1.5.46c.62,0,1.41-.1.31-.8-4.5-2.87-12.18-8.74-12.54-9s-.47-.77.36-.41,16.47,7.68,17.27,8,1,.23,1.32-.51a15.41,15.41,0,0,0,1.74-7.4C175.16,101.69,175.23,101.57,174.14,101.52ZM152.71,70.84c10,4.72,15.38,10.1,20.23,18.23,6.21,10.45,8.7,22.38.49,26.11-1.31.6-1.44.76-.16,1.16,12.18,3.81,14.42-15.5.66-32.57C164.49,72.05,152.55,65,145.09,67.44c-1.65.53-2,1.19.08.91,8-1.07,15.09,2.82,22.38,10s14.26,18.24,13.68,27.6c-.11,1.66-.55,2.15-.83-.16a42.76,42.76,0,0,0-10.12-22.47c-4-4.72-10.6-11-17.24-13.09C151,69.62,151.47,70.25,152.71,70.84Z"/><path class="a" d="M567.43,97.64q10.88.09,21.75-.21c7.13.06,14.26-.23,21.35-.88a23.12,23.12,0,0,0,13.9-7.28q7-7.23,13.28-15.1Q648.42,61.52,658.9,48.7A12.85,12.85,0,0,0,662,40.93a6.61,6.61,0,0,0-5.87-5.45,78.55,78.55,0,0,0-9.44-.79l-23.4-.4q-19.9-.13-39.81.27-6,.34-11.91.64a22.4,22.4,0,0,0-15,7.78q-7.24,8-14,16.42-9.69,11.35-19,23A16.61,16.61,0,0,0,519.66,91a5.85,5.85,0,0,0,5.49,5.5c3.41.39,6.84.65,10.27.76q12.51.17,25,.38Zm-13.54,3h39a18.58,18.58,0,0,0,4.93-.4c3,0,5.94,0,8.91-.13a15.35,15.35,0,0,1,4.17-.34,23.76,23.76,0,0,0,11.93-4.89,72.14,72.14,0,0,0,7-6.55c1.71-1.86,3.35-3.78,4.94-5.74q10.07-11.9,20.09-23.82,3.52-4.27,6.95-8.65a19.21,19.21,0,0,0,3.08-6.76,12,12,0,0,0-.63-5.88,10,10,0,0,0-6.93-5,10.68,10.68,0,0,0-4-.46,12.72,12.72,0,0,0-1.72-.33q-4,0-8.07-.15a25.53,25.53,0,0,0-5.86-.29l-52.89,0a14.52,14.52,0,0,1-1.72.34c-3,0-5.93,0-8.89.14a15,15,0,0,1-4.17.34,25.52,25.52,0,0,0-15.23,8.16,46.16,46.16,0,0,0-4.92,5.35q-2.81,3.53-5.76,7-9.15,10.77-18.17,21.63a78.12,78.12,0,0,0-7.53,10.12,13.35,13.35,0,0,0-1.55,8.24l.05.76.15.26a8.79,8.79,0,0,0,7.56,6c1.37.16,2.74.3,4.11.41,2.79.21,5.6.29,8.4.22a57,57,0,0,0,9.86.4Z"/><path class="a" d="M297.37,96.56q36.74,0,73.47-.1a20.54,20.54,0,0,0,12.61-7.17q7.14-8.06,13.82-16.49a14.64,14.64,0,0,0,1.36-4.39,2,2,0,0,1,.94-1.12,36.81,36.81,0,0,0,11.07-10.16,94,94,0,0,0,8.7-11.27,7.12,7.12,0,0,0,.06-8.25,8.53,8.53,0,0,0-7.11-2.24H352q-12.31,0-24.63.07a24.51,24.51,0,0,0-11.87,7.17A83.72,83.72,0,0,0,308.09,51a1.26,1.26,0,0,0-.22.77.51.51,0,0,0,.34.48,4.31,4.31,0,0,0,1.88.25l71.4.06a1.21,1.21,0,0,1,1.28,1.08,1.16,1.16,0,0,1-.31.66,6.28,6.28,0,0,1-6.29,2.84l-62.38,0a2,2,0,0,0-1.24.62q-6.19,7.24-12.27,14.6A1.39,1.39,0,0,0,300,73.5a.62.62,0,0,0,.5.46l62.93.13a1.57,1.57,0,0,1,1.34.9,1,1,0,0,1-.25.88,8.29,8.29,0,0,1-7.64,2.95l-71.42.06a1.88,1.88,0,0,0-1.44.7,25.38,25.38,0,0,0-5.71,10.18,5.36,5.36,0,0,0,1.86,5.61,8.24,8.24,0,0,0,5.71,1.19Zm.41,3.26,72.19,0a14,14,0,0,1,1.71-.34A21.36,21.36,0,0,0,385.2,92a38.94,38.94,0,0,0,4.5-4.93q4.77-5.52,9.33-11.2a11.93,11.93,0,0,0,2.42-5.37l.19-.64a16.25,16.25,0,0,1,2.6-1.91c1.69-1.31,3.35-2.67,4.95-4.08q5.35-6.54,10.77-13a23.09,23.09,0,0,0,3.61-7.05A8.7,8.7,0,0,0,418.33,33a21.86,21.86,0,0,0-8.91-.93l-81.63,0a25.1,25.1,0,0,0-14,7.73,5.84,5.84,0,0,0-2.26,2.26,38.21,38.21,0,0,0-4.08,4.54c-.69.94-1.43,1.84-2.21,2.71a3.17,3.17,0,0,0-.35.88,3.88,3.88,0,0,0,4.29,5.22,1.68,1.68,0,0,1,.45.06.46.46,0,0,1,.23.31.44.44,0,0,1-.11.36c-.4.46-.83.91-1.27,1.34l-4.71,5.55q-3.13,4-6.49,7.87a5.4,5.4,0,0,0-.3,3.75l.15.45a.32.32,0,0,1-.22.37,2.21,2.21,0,0,1-.81.06c-3.93,0-7.86,0-11.8,0a5.08,5.08,0,0,0-3,2.29,31,31,0,0,0-5.78,9.81,9,9,0,0,0,4.61,11.3,21.59,21.59,0,0,0,8.27.76Z"/><path class="a" d="M407,96.54l90.32-.06a2,2,0,0,0,1.14-.68q6.7-7.76,13.18-15.68a.81.81,0,0,0,0-.68.83.83,0,0,0-.52-.45,3,3,0,0,0-1.12-.1q-23.81-.15-47.62.25-9.7.28-19.43,0s0,0,0,0a.07.07,0,0,1,0,0q23.91-1.29,47.78-3.36,9-.78,18.05-1.69a33.65,33.65,0,0,0,17.92-11.75q5.91-6.75,11.29-13.92a11.65,11.65,0,0,0,2.48-8.22,6.63,6.63,0,0,0-7.06-4.72l-85.78.08a22.38,22.38,0,0,0-10.69,6.16,91.39,91.39,0,0,0-9.35,10.7.78.78,0,0,0-.17.48.75.75,0,0,0,.36.56,2.31,2.31,0,0,0,1.38.33l71.81.07a1.26,1.26,0,0,1,1.27.86.91.91,0,0,1-.17.75,6.36,6.36,0,0,1-5.21,2.37q-36.33,3.07-72.64,6.48A29.65,29.65,0,0,0,407.92,75.5Q399.76,85.22,391.65,95a1.4,1.4,0,0,0-.24.47,1,1,0,0,0,.6,1,2.36,2.36,0,0,0,1,.11q7,0,13.92,0Zm-1.23,2.87H496c.94,0,1.89,0,2.83,0a2.94,2.94,0,0,0,1.33-.72q4.19-4.65,8.15-9.5,3.1-3.68,6.13-7.41a1.2,1.2,0,0,0,.2-.61,16.82,16.82,0,0,0-.08-2.75,4.55,4.55,0,0,0-1.09-1.71l-.29-.32a.14.14,0,0,1,0-.14.24.24,0,0,1,.13-.15,41.7,41.7,0,0,0,11.74-7.52,19.24,19.24,0,0,0,3.78-4q6.14-6.84,11.61-14.24a17.36,17.36,0,0,0,3.35-8.94,9,9,0,0,0-5.94-8.41c-1.5-.34-3-.6-4.53-.79H448.45a30.74,30.74,0,0,0-4.35,1,26.83,26.83,0,0,0-8.33,5.21,49.84,49.84,0,0,0-7.89,8.53c-.85.93-1.67,1.9-2.45,2.89a3.66,3.66,0,0,0-.8,1.25,3.88,3.88,0,0,0-.22,1.82c0,.39,0,.79,0,1.18a3.75,3.75,0,0,0,4.26,2.71l41.19,0a.51.51,0,0,1,.31.11.12.12,0,0,1,0,.08.13.13,0,0,1,0,.09.5.5,0,0,1-.31.1,87.42,87.42,0,0,0-9.29.73c-1.4.06-2.8.17-4.2.32s-3.07.28-4.61.32a15.35,15.35,0,0,1-4.17.34,14.14,14.14,0,0,1-1.72.34,19.7,19.7,0,0,0-4.9.43c-2.45.14-4.89.3-7.33.46a14.52,14.52,0,0,1-1.72.34q-4,.16-8,.64a29.71,29.71,0,0,0-15.8,9.23q-7.74,9.28-15.59,18.48-2,2.34-3.82,4.8a4,4,0,0,0,1.3,5.5l.28.13a3.88,3.88,0,0,0,1.82.22Z"/><path class="a" d="M243.6,96q6.36.06,12.73-.11a1.9,1.9,0,0,0,1.35-.76l49.44-59a1.72,1.72,0,0,0,.25-.53,1,1,0,0,0-.81-1q-20-.11-40,.11A25.2,25.2,0,0,0,253,42.54a77.33,77.33,0,0,0-6.25,7.73,1.18,1.18,0,0,0-.2.52,1,1,0,0,0,.8.89,34.82,34.82,0,0,0,4.45.13q4.88,0,9.74,0a.78.78,0,0,1,.6.37,1.25,1.25,0,0,1-.17,1.49L227.85,94.58a1.24,1.24,0,0,0-.18.52l0,.21a1,1,0,0,0,.77.59q7.56.15,15.13.09ZM242,99q7.77,0,15.55,0a5.08,5.08,0,0,0,3-2.29l17.07-20.28q5.44-6.66,11-13.21,8.16-9.51,16.13-19.17,2.82-3.15,5.33-6.57a7.07,7.07,0,0,0,.39-.84,4.15,4.15,0,0,0-3.78-5.19q-6.09-.16-12.19-.11-13.32,0-26.63,0a14.52,14.52,0,0,1-1.72.34,21.61,21.61,0,0,0-10.66,4.52,27.75,27.75,0,0,0-5.85,5.23,59.65,59.65,0,0,0-6,7.95,3.71,3.71,0,0,0-.21,1.81q0,.41,0,.81a.9.9,0,0,0,.07.27,1.82,1.82,0,0,0,.16.31,3.92,3.92,0,0,0,4.06,2.1q4.38,0,8.76,0a.55.55,0,0,1,.31.1.12.12,0,0,1,0,.09.21.21,0,0,1,0,.12c-.15.18-.31.35-.48.52L226.37,91.21a5.11,5.11,0,0,0-1.49,5.58,6.91,6.91,0,0,0,1.71,2,1.07,1.07,0,0,0,.62.2c4.91,0,9.83,0,14.75,0Z"/><path class="a" d="M575.64,83.83a151.29,151.29,0,0,0,23.79-1,21.87,21.87,0,0,0,13-9.11q8.43-10,16.74-20.08A5.77,5.77,0,0,0,630.36,50,1.89,1.89,0,0,0,629,48.54a32.87,32.87,0,0,0-9.42-1,297.8,297.8,0,0,0-33.67.4,20.46,20.46,0,0,0-15.58,8.78q-8.92,10.45-17.56,21.16a6.37,6.37,0,0,0-1,2.86,1.88,1.88,0,0,0,1.31,1.84,49.22,49.22,0,0,0,10.27,1.17q6.15.09,12.31.06ZM551,93.74q24.63.27,49.24-.3a72.61,72.61,0,0,0,11.51-.89,22.62,22.62,0,0,0,11.06-6.91q6.76-7.38,13.09-15.15,10.2-12,20.11-24.22a12.39,12.39,0,0,0,2.21-4.54,2.08,2.08,0,0,0-1.34-2,20.94,20.94,0,0,0-8.2-1.09q-10-.46-20.11-.5-6.55.1-13.13-.2-5.75-.09-11.49.2-16-.1-32,.81a19.09,19.09,0,0,0-13,6.92q-7.21,8-14,16.42-9.33,11-18.39,22.15a16.43,16.43,0,0,0-3.16,6.18,2,2,0,0,0,1.76,2.07,73.37,73.37,0,0,0,10.25.81q7.79.21,15.58.26Z"/><path class="a" d="M298.19,92.83h68.54a15.72,15.72,0,0,0,13.48-5.59q7.19-7.92,13.8-16.33a8.34,8.34,0,0,0,.77-4.12,1.54,1.54,0,0,1,.71-1.43A35,35,0,0,0,407.54,55,92,92,0,0,0,416,44.21a8,8,0,0,0,1-2.88,2,2,0,0,0-1.81-2,92.89,92.89,0,0,0-9.44-.22H331A11.75,11.75,0,0,0,322,42a35.09,35.09,0,0,0-5.46,5,1,1,0,0,0-.18.75,1,1,0,0,0,.82.83q18.22.13,36.44.09,17.65-.06,35.3.14c.37.06.74.14,1.1.23a.75.75,0,0,1,.45.42.71.71,0,0,1,0,.62A22.14,22.14,0,0,1,387,54.89a16.74,16.74,0,0,1-6.29,5.43,22.33,22.33,0,0,1-7,.53q-29.15,0-58.3.07a2,2,0,0,0-1.08.62q-3,3.32-5.77,6.84a1.58,1.58,0,0,0-.23,1.25.89.89,0,0,0,.61.51,36.47,36.47,0,0,0,4.44.13q28.72-.06,57.45.11a2.24,2.24,0,0,1,1.2.52.88.88,0,0,1,.14.92A29.68,29.68,0,0,1,368,77.44a12.88,12.88,0,0,1-5.79,4.65,36.2,36.2,0,0,1-8.63.5l-66.49,0a1.59,1.59,0,0,0-.78.3l-.31.32a18.54,18.54,0,0,0-4,7.34,2.06,2.06,0,0,0,.28,1.64,2,2,0,0,0,1.59.57q7.17.06,14.35,0Z"/><path class="a" d="M415.57,92.77l79.61,0a2.61,2.61,0,0,0,2.17-1.31q2.94-3.5,5.79-7a1.13,1.13,0,0,0,.22-.79,1.36,1.36,0,0,0-1.2-.92l-72.37-.08a.91.91,0,0,1-.82-.69.89.89,0,0,1,.39-1,12.65,12.65,0,0,1,9.6-4.3q34.49-3,69-6.27a29.11,29.11,0,0,0,15.18-9.66q6.12-7,11.72-14.39a9.87,9.87,0,0,0,2-4.93,1.79,1.79,0,0,0-1.36-1.84,28.65,28.65,0,0,0-7-.4Q488.23,39,448,39.19a18.4,18.4,0,0,0-8.69,5.36,39,39,0,0,0-3.48,3.68,1,1,0,0,0,.71,1.55c3.13.11,6.27.14,9.4.1q31.2,0,62.4.09c.38.05.75.11,1.12.19a.93.93,0,0,1,.61.41.86.86,0,0,1,0,.72A28.25,28.25,0,0,1,506.51,56,13.17,13.17,0,0,1,500.1,61q-5.5.85-11.06,1.18-32,2.78-64,5.74a25.27,25.27,0,0,0-14.1,9.87q-5.51,6.48-10.92,13a1.2,1.2,0,0,0,.8,1.93q7.38.06,14.77,0Z"/><path class="a" d="M251.4,92.16c1.1,0,2.19,0,3.28-.07a2,2,0,0,0,1.17-.74l43-51.18a1.83,1.83,0,0,0,.25-.48.8.8,0,0,0-.29-.85,1.83,1.83,0,0,0-1.45-.52q-15.18-.15-30.35.1a22.1,22.1,0,0,0-12.35,8,.87.87,0,0,0,.21,1.06,2.09,2.09,0,0,0,1.45.52l13.7.08a.75.75,0,0,1,.55.41.79.79,0,0,1,0,.67A12.46,12.46,0,0,1,269,51.21q-16.36,19.46-32.64,39a1.37,1.37,0,0,0-.09,1.64.79.79,0,0,0,.46.24q7.33.12,14.66.08Z"/><path class="a" d="M578.1,76.84q7.33.06,14.66-.11a14.45,14.45,0,0,1,3.76-.35c.56-.14,1.13-.26,1.69-.36.23,0,.46-.07.68-.12a1.73,1.73,0,0,0,.32-.11,17,17,0,0,0,7.5-6.05q6.1-7,12-14.24c.29-.29.58-.6.86-.91a.16.16,0,0,0,0-.12.12.12,0,0,0,0-.09.57.57,0,0,0-.31-.1q-13.8-.06-27.6,0a12.43,12.43,0,0,1-1.72.33,21.92,21.92,0,0,0-4.28.24,6.41,6.41,0,0,1-1.8.25l-.29,0a2.44,2.44,0,0,0-.34.14,15.51,15.51,0,0,0-7.83,6.12Q569.12,69,562.87,76.51a.19.19,0,0,0,0,.12.15.15,0,0,0,0,.09.5.5,0,0,0,.31.1q7.46,0,14.92,0Zm0,3.27a137.11,137.11,0,0,0,20.95-1,17.6,17.6,0,0,0,9.9-7l14.48-17.35a2.06,2.06,0,0,0-1.82-3.33,303.61,303.61,0,0,0-35.31.25,17.24,17.24,0,0,0-13.4,7.79Q565.69,68,558.62,76.63a2,2,0,0,0-.06,2.14,2,2,0,0,0,1.89,1q8.82.51,17.65.34Z"/></svg>