<svg xmlns="http://www.w3.org/2000/svg" viewBox="0 0 1403.28 268.24"><defs><style>.cls-1{fill-rule:evenodd;}</style></defs><title>Challenger-Script-Logo</title><g id="Layer_2" data-name="Layer 2"><g id="Layer_1-2" data-name="Layer 1"><path class="cls-1" d="M1275.18,115.75c-20.23,0-57.51,30.67-59.76,48.64C1238.55,161.34,1274.83,130.91,1275.18,115.75Zm-342.29,3.38-1.83-2.76c-4.59,1.61-9.61,2.5-13.69,4.95a152,152,0,0,0-47,44.72c-1.56,2.27-1.94,5.35-2.86,8.05,3.11-.19,6.79.64,9.25-.73,18.73-10.43,35.13-23.76,48-41.08C927.84,128.16,930.21,123.53,932.89,119.13ZM699.18,118l-1.78-1.68c-2.53.68-5.21,1-7.56,2.07-24.31,11.07-45.57,26.22-62.1,47.41-3.8,4.87-10.87,10.88-5.61,16.39,2.5,2.63,13.75.77,17.94-2.75,18.36-15.4,35.77-31.95,53-48.6C696.3,127.8,697.22,122.37,699.18,118Zm387.19,69.8,2.61,2.32c6.74-3.38,14.72-5.44,20-10.41a495.52,495.52,0,0,0,36-38.45c4.41-5.15,7-12,9.72-18.37,1-2.4-.15-5.71-.32-8.6-2.87.34-6.35-.24-8.53,1.18-23.73,15.47-44.21,34.19-57.09,59.95C1086.9,179.06,1087.1,183.67,1086.37,187.83Zm18.27,6.82c-32.09,7.19-38.37,4.88-40-16.9-2.84,2.07-5.1,3.79-7.43,5.4-12.12,8.36-24.82,15.44-40,15.88-6.49.18-13.27-.4-16.55-7.44-3.16-6.78-1.65-13.42,2.84-18.91,9.57-11.71,19.77-22.91,29.38-34.59,6.08-7.38,11.58-15.24,17.34-22.89-.75-.88-1.49-1.76-2.24-2.63-4.61,2.16-9.43,4-13.8,6.55a275.38,275.38,0,0,0-78.94,69.67c-8,10.37-16.26,10.3-27.37,8.1l16.91-23.64c-15.21,7.07-29.67,15-45,20.57-15.9,5.77-32.57,8.69-48.36-1.9-1.35-.91-4.19.12-6.26.6-10.89,2.52-21.64,5.87-32.64,7.58-16.12,2.5-23.76-3.58-25.55-19.36-5.49,3-10.64,6.21-16.06,8.81-6,2.91-12.12,6-18.52,7.8-18,5.1-26.27-1.47-26.59-20.67-11.44,5.61-22.69,11.36-34.16,16.63a60.94,60.94,0,0,1-14.33,4.46c-15.81,2.87-19.81-.22-21.37-15.36-9.54,4.71-19.07,9.72-28.89,14.1a56.76,56.76,0,0,1-13.74,3.67c-13,2.16-20.3-2.9-23.35-14.81-12.92,4.75-25.89,9.7-39,14.21-3,1-6.66,1-10,.75-10.55-.78-16.24-9.34-11.86-19A83.4,83.4,0,0,1,541,163.2c10.69-13,22-25.43,32.86-38.24,2.21-2.6,3.6-5.89,5.37-8.86l-1.42-1.64c-2.81,1.37-5.74,2.55-8.42,4.13-29.75,17.5-55.29,40-78.42,65.48-13.45,14.8-13.51,14.75-35.22,11.43l47.31-57.4-.92-1.11c-10.8,6.19-21.64,12.3-32.39,18.57-46.94,27.35-97.57,44.49-150.55,55.64C267.28,222.14,215.15,231,161.87,230.48c-37.92-.37-75.68-2.24-111.62-16.28a94.9,94.9,0,0,1-38.41-27.84C-1.87,170.06-3.28,151.92,5.58,133c12-25.61,32.54-43.1,55.74-58,48-30.8,101.15-49.36,156.3-61.63C293-3.41,368.71-6.36,443.73,16c11.83,3.51,23.36,9.63,33.6,16.64,18.19,12.47,18.43,29.86,1.18,43.74A84.56,84.56,0,0,1,456,89.18C406,108.31,354.53,114,301.68,103c-1.61-.33-3.18-.93-5-1.48-.81-9,4.3-9.15,10.95-8.2,33.24,4.7,66.57,6,99.4-2.06,16.77-4.13,33.2-10,49.28-16.42,8.72-3.46,18-9,17.89-20.14s-10.09-15.59-18.57-18.08c-19.52-5.74-39.31-11.5-59.4-14.15-79.48-10.47-156.18,2-231,29.65C128.66,65.66,94.31,82.93,62.83,105.69a147,147,0,0,0-25.51,24.17C10.44,161.55,28.1,189.75,56.87,203c20.57,9.45,42.84,12.78,65.3,14.53,94.05,7.3,185.21-8.29,273.43-39C462.12,155.27,522.21,120,568.83,65.21a205.74,205.74,0,0,1,16.33-16.95c3.22-3,7-6,11.05-7.35,3.59-1.2,7.94-.13,11.95,0-.74,3.81-.24,8.65-2.41,11.26-11.28,13.49-23.25,26.4-35,39.54C564.88,98.31,559,105,554,113c7.72-2.4,15.41-5,23.19-7.16,6-1.69,13.73-3.69,16.68,2.73,2.31,5,2.28,13.61-.61,18.11-7.65,11.91-17.28,22.56-26.38,33.5-5.37,6.46-11.56,12.24-16.66,18.88-1.84,2.41-1.58,6.45-2.27,9.74,3.43.28,7.4,1.83,10.2.64,19-8.07,36.46-18.71,50.77-33.68,16-16.72,32.89-32.27,53.81-42.44a95.34,95.34,0,0,1,26.34-7.85c10-1.59,15.25,2.47,19.31,13.34,8.42-12.24,18.77-18.83,34.09-12.13-1.64,2.18-3.26,4.58-5.11,6.76-15.41,18.17-31,36.17-46.14,54.58-2.66,3.24-3.31,8.13-4.89,12.26,4.46-.61,9.42-.17,13.28-2,26.89-12.82,47.56-32.72,65.67-56.23,20.66-26.82,42.1-53.2,69.13-74.21,1.54-1.2,3.12-3,4.81-3.2,3.88-.36,7.85.14,11.78.29-.63,3.71,0,8.59-2.08,11-28.28,31.42-56.92,62.52-85.55,93.63-5.49,6-11.44,11.52-16.92,17.51-4.15,4.53-6.06,10.76-1.66,15.08,2.37,2.34,9.34,2.38,12.9.67,8.22-4,17-8.32,23.12-14.79,27.57-29,54.06-59,81.47-88.22C872.77,68.54,884.65,58.64,896,48.24c1.42-1.31,3.16-2.74,4.95-3.08A115.56,115.56,0,0,1,912.71,44c-.55,3.84.19,8.67-1.87,11.38-12.85,17-25.53,34.17-39.8,49.91-17.47,19.26-36.62,37-54.64,55.76a77.38,77.38,0,0,0-12.23,17.63c-3,5.85.33,10.93,6.41,10.28,11.29-1.19,22.41-4.06,33.52-6.59,1.41-.31,3-2.58,3.39-4.2,6.25-28.44,25.66-46.58,48.73-61.49,7.89-5.11,16.75-8.92,25.53-12.38,6.18-2.43,14.14-2.75,17.51,3.55,2.67,5,3.77,13.3,1.37,18a129.26,129.26,0,0,1-20.28,28.44c-13.56,14.55-30.85,23.87-50.84,30.93,9.3,5.56,18.42,4.13,25.66.63,18.56-9,37.51-17.94,54.07-30,16.86-12.25,32.16-27.2,46-42.83,8.79-9.9,17.74-10.43,29.55-8.8-1.83,3.59-3.38,6.65-5.19,10.21,10.26-3.56,19.87-7,29.58-10.18a27.51,27.51,0,0,1,8.29-1.1c8.07,0,12.31,4.35,10.75,12.24a33.3,33.3,0,0,1-6.17,13.53c-11,14.16-22.77,27.71-33.7,41.91-3.13,4.06-4.39,9.55-6.5,14.39,5.77-.68,13,.6,17-2.39a341.7,341.7,0,0,0,35.46-30.61c16.2-15.91,31.4-32.9,52.25-43.06a87.72,87.72,0,0,1,14.8-5.84c15.62-4.34,22.65.26,25.6,17.8,3.92-4.31,7.6-7.54,10.26-11.46,3.88-5.72,8.51-8.17,15.5-6.9,4.56.84,9.32.58,15.88.9l-72.53,86.18c11.85-4.45,21.41-8.73,31.38-11.61,14.14-4.1,24.88-9.3,32.19-24.77,12.39-26.21,36.77-40.68,63.69-50.24,7.16-2.55,14.54-3.37,20.1,3.34s3.89,14.59-.23,20.42c-6.71,9.51-14.26,18.87-23.13,26.29-13.25,11.07-27.44,21.32-45.58,25.33,1.36,6.29,5.66,8.82,10.83,8.41a50.93,50.93,0,0,0,16.91-4c37.84-17.29,68.9-43.75,97.26-73.58,5.24-5.51,10.4-8.31,18.17-7.82,10.33.65,20.77-.37,31.1.24,3.68.22,8.47,2.25,10.34,5.06,1.16,1.74-1.46,7.17-3.7,9.8-14.73,17.27-29.93,34.13-44.66,51.4-2.49,2.92-3.43,7.15-5.09,10.77,4.44.61,9.57,2.94,13.21,1.5,12.17-4.8,23.91-10.74,35.6-16.67,4.43-2.25,7.16-2.42,8.76,3.3-17.08,12-34.74,22.5-55.67,26.2a15.89,15.89,0,0,1-1.65.3c-8.48.59-17.81,1.62-22.66-6.95-4.41-7.8.21-15.39,5.06-21.66,9.42-12.19,19.38-23.95,29.12-35.88,1.89-2.31,3.81-4.59,7.2-8.68-12.3.29-21.49-2.59-30.68,7.17-24.93,26.44-53.15,49.07-87.1,63.24a93.43,93.43,0,0,1-25.86,6.54c-12.65,1.34-24.08-1.79-30-15.36-40.57,10.69-77.65,26-103,61.75-6,8.46-14.82,15-22.83,21.88-2.26,1.94-6.22,2.62-9.41,2.63-8.69,0-12-5.77-6.7-12.66,11.07-14.28,20.64-29.77,36.47-40.16C1093.14,210.41,1098.34,201.69,1104.64,194.65Z"/></g></g></svg>