<?xml version="1.0" encoding="UTF-8"?><svg xmlns="http://www.w3.org/2000/svg" viewBox="0 0 460 52.27"><defs><style>.d{fill-rule:evenodd;}</style></defs><g id="a"/><g id="b"><g id="c"><g><path class="d" d="M107.77,25.81c-4.71,3-7.66,5.57-4.6,6.2,1.25,.25,4.76-.7,9.47-3.9,5.23-3.55,5.92-5.09,4.67-5.64-1.25-.56-6.27,1.25-9.54,3.34Zm60.56-2.38c1.54-1.28,1.15-2.26-.64-1.98-5.41,.85-11.24,6.4-8.71,6.47,1.61,.04,7.04-2.56,9.36-4.48Zm100.7,7.07c-3.01,1.59-9.52,3.56-14.55,2.68-4.4-.76,4.16-6.95,9.24-9.57,.62-.32,1.27-.55,1.37-.89,.27-.91-.06-1.24-.88-1.35-.65-.09-2.13,0-3.23-.11s-1.6,.09-2.35,.71c-3.17,2.63-11.55,7.27-13.25,8.08-10.48,4.99-17.33,3.59-18.34,2.71-1.05-.91-.84-.84-2.53-.28-1.29,.43-14.82,5.03-17.29,6.18-2.46,1.15-2.41,1.04-3.88,2.73-1.48,1.7-9.13,8.42-10.12,9.08-.98,.66-2.3,1.86-4.16,1.8-1.86-.05-4.27-.67-2.3-2.9,2.95-3.34,8.23-6.4,14.55-10.06,3.77-2.19,3.77-2.13,7.49-6.02,1.1-1.15,1.37-2.9-.77-1.42-2.13,1.48-6.78,3.28-8.92,.77-.43-.5-.67-.68-1.89-.07-1.23,.61-9.32,3.51-11.58,1.61-2.67-2.25,3.89-7.64,4.91-8.57,.91-.84,1.74-2.65-.77-1.39-2.51,1.25-12.61,7.74-15.12,9.9-1.1,.95-1.88,.98-2.79,.42-.91-.56-1.48-1.12-.77-1.74,.65-.57,1.5-1.38,2.27-2.13,.54-.52,1.7-2.37-2.13-.49-9,4.43-16.84,4.11-17.85,3.23-1.05-.91-.82-.77-2.53-.28-7.87,2.27-11.07,1.05-11.17-.19-.14-1.69-1.01-1.09-1.83-.75-10.39,4.33-11.83,1.9-11.87,1.03-.07-1.43-.31-1.59-1.57-.89-2.26,1.26-12.46,3.58-11.32,.81,.49-1.18,.31-2.04-1.18-1.25-2.51,1.32-13.31,4.6-13.93,1.46-.19-.95-.35-1.39-1.6-1.05-1.25,.35-8.99,4.25-11.91,1.88-2.71-2.2,4.28-7.7,5.29-8.64,.91-.84,1.74-2.65-.77-1.39-2.51,1.25-12.61,7.8-15.12,9.96-1.1,.95-1.88,.98-2.79,.42-.91-.56-1.48-1.12-.77-1.74,1.11-.98,2.8-2.65,3.69-3.48,.77-.98,1.26-1.81-1.6-.7-6.61,2.57-18.03,6.2-30,8.65C22.65,41.29,1.58,42.33,.06,31.73-1.46,21.09,25.63,10.49,31.13,8.47c5.03-1.85,30.72-11.36,52.67-7.59,4.08,.7,3.48,2.86,2.44,3.9-1.04,1.05-10.31,9.2-37.13,15.88-1.08,.27-1.49-.21-1.66-.86-.21-.8-.17-1.52,.96-1.78,10.38-2.38,30.03-8.88,29.8-13.32-.25-4.67-28.74,.82-41.13,5.49C17.75,17.49,.66,28.5,9.38,33.8c5.5,3.34,21.19,3.42,36.92,.47,10.69-2.01,21.07-5.98,29.56-9,5.26-1.87,6.8-3.15,11.28-7.31,7.73-7.17,13.84-12.11,17.4-14.66,1.64-1.17,5.44-.12,3.22,2.34-.17,.18-15.07,12.27-19.51,15.66-1.77,1.35-.52,1.8,.82,1.17,6.35-3.01,8.7-3.89,11.45-3.9,2.92-.02,1.42,1.84-.35,3.06-8.15,5.6-11.48,10.37-8.61,10.25,5.66-.23,12.15-6.89,17.06-9.29,7.36-3.59,11.5-3.96,13.02-3.13,1.07,.58,0,2.71,.59,3.04,.8,.43,3.08-2.25,4.09-2.85s2.21-.14,2.76,0c.55,.14,.78,.74,.09,1.29-.49,.39-8.33,5.8-10.99,8.88-.87,1.01-.32,1.86,1.7,1.79,1.37-.04,5.09-.88,7.84-3.59,9.43-9.3,22.53-20.65,28.18-24.53,3.12-2.14,5.17-.36,3.55,1.37-9.82,10.45-22.95,18.35-26.33,23.27-3.54,5.14,3.41,4.3,8.13-.34,14.19-13.92,22.18-20.65,27.83-24.53,3.12-2.14,5.17-.36,3.55,1.37-9.82,10.45-22.77,18.32-26.12,23.27-1.46,2.16-2.63,4.5,4.79,3.12,1.06-.2,1.07-.72,1.26-1.05,0,0,4.99-11.24,20.1-12.09,2.19-.12,5.2,.77,2.11,3.51s-7.38,5.69-14.62,8.22c-1.47,.51-2.25,1.83,.21,1.9s9.25-1.73,14.83-4.76c6.2-3.37,7.75-5.04,11.41-8.33,1.06-.95,2.48-.83,3.38-.53,1.57,.54,1.29,1.53-1.1,3.35-1.77,1.35-.52,1.8,.82,1.17,6.35-3.01,8.83-3.82,11.58-3.84,2.92-.02,1.42,1.84-.35,3.06-8.15,5.6-11.44,10.78-8.61,10.25,3.54-.66,6.89-1.78,8.97-4.16,1.83-2.09,7.59-7.38,14.55-9.35,5.66-1.61,6.36,.77,6.24,2.19-.13,1.41,.26,1.35,1.61,.19,1.35-1.16,1.86-1.54,2.57-2.06s1.35-.06,1.99,0,1.41,.64,.58,1.41-10.03,7.78-15.56,12.6c-.79,.69-2.7,2.76,.13,1.74,2.83-1.03,10.87-3.75,12.15-4.05,.75-.18,1.12-.74,1.36-1.27,1.13-2.43,7.32-11.02,19.16-11.81,2.18-.15,5.2,.91,2.11,3.65s-7.17,5.69-14.41,8.22c-1.47,.51-2,1.91,.21,1.9,3.53-.02,11.46-1.77,25.78-12.11,1.34-.96,1.98-1.42,3.56-1.42,2.35,0,1.48,.93,4.38,.88,2.9-.05,2.9-.93,4.27-.93,.82,0,1.46,.6,1.89,1.04s1.17,1.2,.22,1.64c-4.33,2-7.57,3.81-9.89,5.36-5.45,3.65-6.21,6.24-3.44,6.07,3.42-.21,5.07-.54,7.94-1.77,1.58-.67,3.34-.91,.33,.67Zm-27.5-7.43c1.54-1.28,1.15-2.26-.64-1.98-5.41,.85-11.24,6.4-8.71,6.47,1.61,.04,7.04-2.56,9.36-4.48Zm-32.35,1.38c-4.4,3.43-7.21,6.26-4.09,6.6,1.26,.14,5.22-.95,9.45-4.77,3.85-3.47,3.22-4.27,1.92-4.71-1.3-.44-4.21,.49-7.27,2.88Z"/><g><path class="d" d="M380.45,1.04h-71.15c-.36,0-.67,.12-.93,.37l-16.43,15.65c-.18,.17-.06,.48,.19,.48l10.49,.12c.34,0,.64-.1,.9-.33h0c1.13-.98,2.4-1.11,3.89-1.17,3.42-.14,39.16-.28,41.72-.16,1.92,.09,3.36,2.62,2.12,4.1l-1.41,1.69c-4.64,5.57-10.92,7.97-18.17,7.97h-34.8c-2.27,0-3.59-2.74-2.04-4.4l.57-.62c.17-.18,.04-.47-.21-.47l-10.25,.12c-.36,0-.74-.04-.99,.22-.78,.78-3.54,3.54-3.66,3.71-2.74,3.92-1.22,5.16,2.44,5.57,1.51,.17,47.53,.4,51.57,.27,8.54-.27,18.03-3.3,25.14-9.77,1.93-1.75,6.45-7.13,6.87-7.98,1-2.04,.44-3.44-1.42-3.83-5.27-1.1-40.74-.82-54.09-.41-.56,.02-.87-.76-.48-1.15l5.74-5.74c.26-.26,.58-.39,.95-.39h60.01c.4,0,.74-.15,1-.45l2.62-2.93c.16-.18,.03-.47-.21-.47Z"/><path class="d" d="M455.91,1.31c-12.15-1.12-42.94-.82-48.93-.27-11.72,1.08-17.39,3.16-26.31,11.79-3.86,3.74-11.98,12.41-12.96,14.08-1.76,3-1.4,6.24,2.58,6.62,13.81,1.33,44.1,.9,49.48,.69,11.34-.46,18.49-4.03,26.58-11.79,6.26-6.01,11.46-12.81,12.41-14.49,2.18-3.87,1.63-6.21-2.85-6.62Zm-13.46,4.04c-8.31-.84-29.36-.62-33.45-.21-8.01,.81-11.89,2.37-17.99,8.84-2.64,2.8-8.19,9.31-8.86,10.56-1.2,2.25-.96,4.68,1.76,4.97,9.44,1,30.15,.68,33.83,.52,7.75-.34,12.64-3.02,18.18-8.84,4.28-4.51,7.84-9.61,8.49-10.87,1.49-2.9,1.11-4.66-1.95-4.97Z"/></g></g></g></g></svg>