<svg xmlns="http://www.w3.org/2000/svg" viewBox="0 0 1158.12 180.01"><defs><style>.cls-1{fill:#121212;fill-rule:evenodd;}</style></defs><title>Challenger_Script_with_Hash</title><g id="Layer_2" data-name="Layer 2"><g id="Layer_1-2" data-name="Layer 1"><path class="cls-1" d="M861.18,58.52c9.55,3.6,15,14.38,12.7,24.57a203.27,203.27,0,0,0,16.81-16.66,25,25,0,0,1,20.8-9l21.29.19a22,22,0,0,1,7.55,2,15.17,15.17,0,0,1,9,9.6c1.75,5.58-1.64,12.09-4.83,16.25L932.12,99.75c7.26-3.09,15.75-1.38,18.92,6.65,2.13,5.4,2,10.42-2.75,14.22-14.48,11.69-38.08,23.56-56.69,19.63a20.08,20.08,0,0,1-15.4-22.52c-17.81,13.23-59.45,38.61-80.64,18l-31.49,37c-3.43,4-2.94,7.31,1.09,7.31H894.29c4,0,10.1-3.27,13.53-7.31L1048.49,7.31c3.43-4,2.94-7.31-1.1-7.31H918.26c-4,0-10.09,3.27-13.52,7.31Z"/><path class="cls-1" d="M1154.74,0H1090.3c-4,0-10.09,3.27-13.53,7.31L936.11,172.7c-3.44,4-3,7.31,1.09,7.31h64.44c4,0,10.09-3.27,13.53-7.31L1155.83,7.31C1159.27,3.27,1158.78,0,1154.74,0Z"/><path class="cls-1" d="M855.68,77.68c-13.57,0-38.58,20.58-40.1,32.63C831.11,108.27,855.45,87.85,855.68,77.68ZM626,79.94l-1.23-1.85c-3.08,1.08-6.45,1.68-9.18,3.33a102,102,0,0,0-31.53,30c-1,1.53-1.29,3.59-1.92,5.41,2.09-.13,4.56.43,6.21-.49,12.58-7,23.58-16,32.21-27.57C622.61,86,624.2,82.89,626,79.94Zm-156.83-.73L468,78.08a32.54,32.54,0,0,0-5.06,1.39c-16.32,7.43-30.58,17.59-41.68,31.82-2.55,3.26-7.29,7.29-3.76,11,1.68,1.76,9.23.52,12-1.84,12.32-10.34,24-21.45,35.59-32.61C467.24,85.76,467.85,82.12,469.17,79.21ZM729,126l1.75,1.56c4.52-2.27,9.88-3.65,13.4-7a334.79,334.79,0,0,0,24.15-25.8c3-3.46,4.72-8,6.51-12.33.68-1.61-.09-3.83-.2-5.78-1.93.24-4.27-.15-5.73.8C753,87.89,739.2,100.45,730.56,117.74,729.35,120.16,729.48,123.26,729,126Zm12.26,4.58c-21.53,4.83-25.75,3.27-26.81-11.34-1.91,1.39-3.43,2.54-5,3.62-8.13,5.62-16.66,10.37-26.84,10.66-4.36.12-8.9-.27-11.11-5-2.12-4.55-1.1-9,1.91-12.69,6.42-7.86,13.26-15.37,19.71-23.21,4.09-5,7.77-10.23,11.64-15.36l-1.5-1.77c-3.09,1.45-6.33,2.67-9.26,4.4a184.74,184.74,0,0,0-53,46.75c-5.35,7-10.92,6.91-18.37,5.44L634,116.26c-10.21,4.75-19.91,10.08-30.19,13.81-10.68,3.87-21.86,5.83-32.46-1.28-.9-.61-2.81.08-4.2.4-7.3,1.69-14.51,3.94-21.9,5.09-10.82,1.68-15.94-2.4-17.15-13-3.68,2-7.13,4.16-10.77,5.91a78.94,78.94,0,0,1-12.43,5.24c-12.08,3.41-17.63-1-17.84-13.88-7.68,3.77-15.23,7.63-22.92,11.16a41,41,0,0,1-9.62,3c-10.61,1.92-13.29-.15-14.34-10.31-6.4,3.16-12.8,6.52-19.38,9.46a38.11,38.11,0,0,1-9.23,2.46c-8.71,1.46-13.62-1.94-15.66-9.93-8.68,3.18-17.38,6.51-26.18,9.53a17.17,17.17,0,0,1-6.68.5c-7.08-.52-10.91-6.26-8-12.72A55.87,55.87,0,0,1,363,109.52c7.17-8.7,14.75-17.06,22-25.66,1.48-1.75,2.41-4,3.6-6l-1-1.1c-1.88.92-3.84,1.71-5.65,2.77-19.95,11.75-37.1,26.87-52.62,43.94-9,9.93-9.06,9.9-23.63,7.67,10.77-13.07,21.26-25.79,31.74-38.52l-.61-.74c-7.25,4.15-14.52,8.25-21.74,12.46-31.49,18.36-65.47,29.85-101,37.34-34.85,7.34-69.83,13.29-105.58,12.94-25.45-.25-50.78-1.51-74.9-10.93A63.64,63.64,0,0,1,8,125.06C-1.26,114.12-2.2,102,3.74,89.22c8-17.19,21.84-28.92,37.4-38.9C73.39,29.65,109,17.2,146,9,196.59-2.28,247.42-4.26,297.76,10.71A82.08,82.08,0,0,1,320.3,21.88c12.21,8.36,12.37,20,.79,29.34A56.7,56.7,0,0,1,306,59.85c-33.61,12.83-68.12,16.62-103.58,9.29-1.09-.23-2.14-.63-3.36-1-.54-6.05,2.89-6.14,7.35-5.51,22.3,3.15,44.67,4,66.7-1.38a260.09,260.09,0,0,0,33.07-11c5.85-2.32,12.06-6,12-13.52s-6.77-10.46-12.46-12.13c-13.09-3.85-26.38-7.71-39.86-9.49-53.33-7-104.8,1.32-155,19.9-24.52,9.06-47.58,20.66-68.7,35.93A99.18,99.18,0,0,0,25,87.15c-18,21.26-6.18,40.18,13.12,49,13.8,6.34,28.75,8.58,43.82,9.75,63.11,4.9,124.28-5.56,183.48-26.19,44.64-15.55,85-39.23,116.24-76a138.36,138.36,0,0,1,11-11.37,21.56,21.56,0,0,1,7.42-4.93c2.41-.81,5.32-.09,8,0-.49,2.56-.15,5.81-1.61,7.56C398.91,44,390.87,52.7,383,61.51a110.7,110.7,0,0,0-11.28,14.3c5.18-1.61,10.34-3.33,15.56-4.8,4-1.14,9.21-2.48,11.19,1.83C400,76.22,400,82,398.09,85c-5.14,8-11.6,15.14-17.71,22.48-3.6,4.33-7.76,8.21-11.17,12.67-1.25,1.62-1.07,4.33-1.53,6.54,2.3.19,5,1.23,6.85.42,12.71-5.41,24.46-12.55,34.06-22.59C419.32,93.29,430.66,82.85,444.7,76a63.65,63.65,0,0,1,17.68-5.27c6.7-1.07,10.23,1.66,12.95,8.95,5.65-8.22,12.6-12.63,22.88-8.14-1.1,1.47-2.19,3.07-3.43,4.54-10.34,12.19-20.81,24.27-31,36.62-1.78,2.17-2.22,5.46-3.28,8.23,3-.41,6.32-.11,8.91-1.35,18-8.6,31.91-22,44.06-37.73,13.87-18,28.25-35.7,46.39-49.8,1-.8,2.09-2,3.23-2.15a61.6,61.6,0,0,1,7.91.2c-.42,2.49,0,5.77-1.4,7.35-19,21.09-38.2,42-57.41,62.83-3.68,4-7.67,7.73-11.35,11.75-2.79,3-4.07,7.22-1.12,10.12,1.6,1.57,6.27,1.6,8.66.45,5.51-2.65,11.39-5.59,15.51-9.93,18.51-19.47,36.28-39.62,54.68-59.2,7-7.5,15-14.14,22.61-21.13a7.74,7.74,0,0,1,3.33-2.06,77,77,0,0,1,7.91-.75c-.37,2.58.12,5.82-1.25,7.64-8.63,11.38-17.14,22.93-26.71,33.48-11.72,12.93-24.58,24.82-36.67,37.42a51.66,51.66,0,0,0-8.2,11.83c-2,3.93.22,7.34,4.3,6.9,7.57-.8,15-2.73,22.49-4.42,1-.21,2-1.73,2.27-2.82,4.2-19.09,17.22-31.25,32.7-41.26A96.18,96.18,0,0,1,618.53,70c4.14-1.63,9.48-1.84,11.74,2.38,1.79,3.34,2.54,8.93.92,12.06a86,86,0,0,1-13.61,19.08c-9.09,9.77-20.7,16-34.11,20.76,6.24,3.74,12.36,2.77,17.22.43,12.45-6,25.17-12,36.28-20.12,11.32-8.22,21.58-18.25,30.89-28.74,5.9-6.64,11.91-7,19.83-5.9l-3.49,6.85c6.89-2.39,13.34-4.71,19.86-6.83a18.52,18.52,0,0,1,5.56-.74c5.41,0,8.26,2.92,7.21,8.21a22.3,22.3,0,0,1-4.14,9.08c-7.37,9.51-15.28,18.59-22.62,28.12-2.09,2.73-2.94,6.41-4.36,9.66,3.87-.45,8.72.41,11.43-1.61a229.94,229.94,0,0,0,23.8-20.53C731.81,91.5,742,80.1,756,73.28a59.93,59.93,0,0,1,9.93-3.92c10.48-2.91,15.2.18,17.18,12,2.63-2.89,5.1-5.06,6.88-7.69,2.61-3.84,5.71-5.49,10.4-4.63,3.06.56,6.26.39,10.66.6l-48.67,57.83c8-3,14.37-5.86,21-7.79,9.5-2.75,16.7-6.24,21.61-16.62,8.31-17.59,24.67-27.3,42.73-33.71,4.81-1.71,9.76-2.27,13.49,2.24s2.61,9.78-.15,13.7c-4.5,6.38-9.57,12.67-15.52,17.64-8.89,7.43-18.41,14.31-30.59,17,.92,4.22,3.8,5.92,7.27,5.64a34.13,34.13,0,0,0,11.35-2.68c25.39-11.6,46.23-29.36,65.26-49.37,3.52-3.7,7-5.58,12.2-5.25,6.93.44,13.93-.25,20.86.16,2.47.15,5.69,1.51,6.94,3.4.78,1.17-1,4.81-2.48,6.58-9.88,11.59-20.09,22.9-30,34.49-1.67,2-2.3,4.79-3.42,7.23,3,.4,6.43,2,8.87,1,8.17-3.22,16-7.21,23.89-11.19,3-1.51,4.8-1.62,5.88,2.22-11.46,8-23.32,15.09-37.36,17.58a10.31,10.31,0,0,1-1.11.2c-5.69.39-11.95,1.08-15.2-4.66-3-5.24.14-10.33,3.39-14.54,6.32-8.17,13-16.07,19.54-24.08,1.27-1.54,2.56-3.07,4.84-5.82-8.26.2-14.42-1.74-20.6,4.81-16.72,17.74-35.66,32.93-58.44,42.44a63,63,0,0,1-17.35,4.39c-8.49.9-16.16-1.2-20.14-10.31-27.23,7.17-52.11,17.45-69.15,41.44-4,5.67-10,10.07-15.32,14.68-1.52,1.3-4.18,1.76-6.32,1.77-5.82,0-8.08-3.88-4.49-8.5,7.43-9.59,13.85-20,24.47-26.95C733.53,141.19,737,135.34,741.25,130.62Z"/></g></g></svg>