<svg xmlns="http://www.w3.org/2000/svg" viewBox="0 0 1030.42 148.2"><defs><style>.cls-1{fill:#121212;fill-rule:evenodd;}</style></defs><title>CUDACat</title><g id="Layer_2" data-name="Layer 2"><g id="Layer_1-2" data-name="Layer 1"><path class="cls-1" d="M100.54,128.48l11.38-30.57c.86-2.33-2.35-4.68-7.18-5.24a20.55,20.55,0,0,0-2.08-.11H76.27c-4.09,0-7.49,1.36-8.24,3.31L54.34,131.42a5.69,5.69,0,0,1-1.72,1.7,26.43,26.43,0,0,1-9,.6l0-.4L85.18,20.49c1.34-4,3.56-6.21,12.32-5.79.06.67-11.14,31.89-11.48,32.85-.84,2.34,2.41,4.67,7.25,5.22a19.19,19.19,0,0,0,2,.11h26.39c4.11,0,7.52-1.38,8.25-3.34L140.17,22a14.41,14.41,0,0,0,1-7.47c-.21-3.68-3.67-7.22-9.48-9.72-10-4.09-24-3.8-35.95-4.17-29.57-.91-50.43,4.7-55,19.42L1.07,126.56a13.67,13.67,0,0,0-.91,7.37c.36,3.54,3.62,6.94,9.06,9.43,10.25,4.55,22.21,4.25,34.55,4.73C72,149.2,98.62,142.23,100.54,128.48Zm115.77.1L261.52,7.12c.87-2.33-2.35-4.67-7.18-5.23a17.87,17.87,0,0,0-2.08-.12H225.87c-4.1,0-7.51,1.37-8.24,3.33L170.15,131.43c-1.29,2.57-6.25,2.52-10.68,2.29,0-.53,46.22-125.84,46.51-126.6.86-2.34-2.36-4.68-7.2-5.23a17.66,17.66,0,0,0-2.06-.12H170.33c-4.11,0-7.52,1.38-8.25,3.33L116.84,126.65A13.4,13.4,0,0,0,116,134c.39,3.52,3.66,6.9,9.07,9.36,10.27,4.55,22.19,4.25,34.54,4.73C187.73,149.19,214.32,142.29,216.31,128.58Zm114.37,7.28a22.6,22.6,0,0,0,5.52-8.51L375.12,22.63c1.54-6,2.16-12.2-8.3-16.46-9.94-4-25.5-4.19-37.52-4.39H289.76c-4.11,0-7.52,1.38-8.25,3.33L230.8,141.33c-.86,2.34,2.35,4.68,7.18,5.24a18.13,18.13,0,0,0,2.08.12h39.48C298.9,146.39,321.64,145.69,330.68,135.86Zm.86-115.93L291.66,127.14c-.63,3.27-6.22,5.64-13,5.5l43.4-116.59,8.51.12c.32,0,1.41.2,1.59.26C332.19,16.5,331.56,19.81,331.54,19.93ZM494.84,22C504.23-.89,461.71,1,450.41.64c-29.57-.91-50.43,4.7-55,19.42L350.23,141.33c-.87,2.34,2.35,4.68,7.18,5.24a18,18,0,0,0,2.08.12h26.39c4.11,0,7.52-1.38,8.24-3.34L418.41,78.1h10.9l-23.53,63.23c-.87,2.34,2.34,4.68,7.18,5.24a17.83,17.83,0,0,0,2.07.12h26.39c4.11,0,7.52-1.38,8.25-3.34Zm-43.43-3.25L435,62.89h-10.9l15.78-42.4c1.37-4.09,3.58-6.19,12.47-5.8A12.75,12.75,0,0,1,451.41,18.75ZM76.07,140.55Q65.72,143.76,44,143.76q-20.85,0-28.92-3.5Q6.47,136.59,9.8,127.6L49.5,21q3.27-8.79,14.08-12.66Q74.59,5,95.67,5,118,5,126,8q8.91,3.5,5.4,13L121.17,48.53H94.78l10.76-28.91q2.07-5.57-.39-7.65-3-1.8-11.43-1.79-13.81,0-17.34,9.44L35.66,129c-1.38,3.72-1.29,6.17.29,7.37s4.94,1.8,10.13,1.8q8.2,0,12.72-1.71,4-2,6-7.46l12-32.12h26.39L91.74,127.6Q88.29,136.87,76.07,140.55Zm115.81,0q-10.35,3.21-32.06,3.21-20.85,0-28.92-3.5-8.62-3.67-5.32-12.56L170.83,6.11h26.39L151.47,129c-1.38,3.72-1.28,6.17.29,7.37s4.94,1.8,10.13,1.8q8.21,0,12.72-1.71,4-2,6-7.46L226.38,6.11h26.39L207.51,127.7Q204.11,136.87,191.88,140.55Zm121.25-1.47q-10.8,3.27-34.63,3.26H239.56L290.26,6.11h38.95q23.4,0,32,3.26t5.06,12.71l-38.82,104.3Q323.92,135.82,313.13,139.08ZM340.36,20.76q1.93-5.21-1.33-7.18t-14.92-2h-9.5L268,137h9.94q19.22,0,22.63-9.17Zm74.17,121.58,25.53-68.58H410.9l-25.53,68.58H359L404.17,21q3.27-8.79,14.07-12.66Q429.27,5,450.33,5q22.35,0,30.38,3,8.91,3.5,5.39,13L440.92,142.34ZM460.21,19.62q2.07-5.57-.36-7.74-3-1.71-11.46-1.7-13.83,0-17.34,9.44L413.33,67.24h29.15Z"/><path class="cls-1" d="M848.62,25.4C850.78-2,823.63.23,794,.23H748.8c-22,1.09-43.1-2.44-57.64,18.45-4.28,6.15-6.32,13.47-9.13,21.81-14.64,43.33-34,101.17-36.16,107.35h46.92l12.6-36.9h69.16L762,147.84h47.18l31-91.75C843.42,45.9,848,35.6,848.62,25.4ZM785,80h-69.1L729,41.1c3.37-9.91,10.9-11.62,35.2-11.62,27.63,0,37.9-.49,33.83,11.62Z"/><path class="cls-1" d="M686,0l-9.81,28.89H565.58c-2.11,0-5.35.81-7.78,6.75l-24.12,71.68c-1.57,4.68.29,9.56,3.63,9.56H647.18l-10.33,30.7-128.18,0c-13.43,0-27.07-3.61-27.8-16-.51-8.61,4-20.39,6.93-29.18l18-53.35c5.26-15.61,8.59-29,17-37.51C529.6,4.7,539.85.79,547.72,0H686Z"/><polygon class="cls-1" points="917.64 25.54 877.24 147.57 921.4 147.57 961.8 25.54 1022.02 25.54 1030.42 0.19 865.81 0.19 857.41 25.54 917.64 25.54"/></g></g></svg>