<svg xmlns="http://www.w3.org/2000/svg" viewBox="0 0 1890.12 2355.69"><defs><style>.cls-1{fill:#121212;fill-rule:evenodd;}</style></defs><title>Asset 1</title><g id="Layer_2" data-name="Layer 2"><g id="Layer_1-2" data-name="Layer 1"><path class="cls-1" d="M1036.45,1694.45c54,15.77,187.45,26.58,187.45,26.58l23.57,125.61c53.76-23.89,102.31-122,102.31-122s115.81-26.35,121.39-27.66c58.06-13.66,63.48-70.68,46.64-132-16.51-60.13-62.41-131.19-46.64-166.09,93.74-207.44,333.81-255.06,196.43-571.65,296.67-436.06,211.06-718.8,211.06-718.8C1767.15,405.06,1554.1,419,1554.1,419c-33.85-59.74-117.48-154.7-117.48-154.7,11.9-120.23-15.37-209.54-15.37-209.54s-28.43,129.28-57.1,144.5C837.4-182.17,371.06,97.07,335,120.36c-16.31,10.52-11.58,43.81,15.39,36.88C977.91-4.12,1288.76,320.42,1288.76,320.42c-183.31,205.6-340.7,150.68-363,176.22-38.54,44.19-23.16,70.87-23.16,70.87,165.48,30.08,351.89-115.25,351.89-115.25-75.29,333.45-322.76,346.18-322.76,346.18C969.35,903.75,1042.9,907.31,1095,893c211.74-58.13,312-434.87,312-434.87,165,250.09,80.06,585.63,83.5,613.63,59-3.32,126.29-126,126.29-126,26.47,181.06-162.65,272-167.91,240.36-7.17-43.21-33.94-47.66-33.94-47.66s18.94,76.86-21.16,75.75c-93.71-2.6-254.34-81.72-303-110.29-153.73-90.23-267.31-124.62-399.34-64.61l28.23,31.89,48.82-21s86.13,226.06,242.09,301.82c35.64-57.93,94.34-66.77,94.34-66.77l274,2.23c4.46,140.36,41.56,314.38,41.56,314.38-43.44,11.14-78,10-114.78,8-63.45-3.53-157.27-91.2-157.27-91.2-8.92,73.52,36.88,133.69,36.88,133.69-133.68,29-210.52-66.08-210.52-66.08,144.81-54.58,121.39-115.25,121.39-115.25-351.09,192.39-505.62-98.62-518.9-116.29,27.76,365.23,157,561.29,226.75,747.22,148.58-63.39,230.34-48.26,230.34-48.26s-162,193.19-387,163.11c-7.19-1-23.07-9.73-36.12-28.81-6.21-9.06,38.35-238.55-71.93-450.2,18.93,99.14,15.42,178.58,15.42,178.58C414.6,1774.58,371.64,1520.53,369,1459.51c-4.54-104.91-5.76-192.83-5.76-192.83,62.78,25.52,122.93,126,122.93,126-75.54-358.82,4-464.55,44.57-470.22,34.48-4.81,106,93.74,106,93.74C822.71,609,492.83,399.09,492.83,399.09s-7,27.66,2,41.22c12.62,19,188.36,176.5,103.53,390.85C277.79,373.2,52,372.19,29.86,352.8c-42.27-37.08-32.15,14-15.27,26.77,166,125.68,129.79,372,129.79,372C168.27,787.36,188.24,842,188.24,842c15.93-77.66,5.25-146.12,5.25-146.12,123.45,109.51,169.36,332.24,169.36,332.24-4.79-258.08-156.38-381.84-172.69-412.54s-33.58-101.7-33.58-101.7C388.76,618.46,398.44,804.67,399.31,810.35c11.95,77.65-27.94,176.12,1.93,359.31-139.38,69.69-217-179.21-217-179.21-2,173.23,51.77,203.1,51.77,203.1,53.76,718.8,314.6,816.36,314.6,816.36C520.7,2207,441.06,2266.77,420.49,2328.09c-6.37,19-3.33,26.62-3.33,26.62,587.85,20.05,762.72-273.28,788.22-389.78,17.3-79-11.67-159.94-11.67-159.94-84.08,248.57-171.37,29.73-153.11-74.85l-38.18,50.63c-5,62.25,17,162,76.91,188.16l-137.25,2.52s46.23-86.1,27.52-159.43c-14.49,16.89-110.77,119.8-168.86,125.61-19.89,2-47.78-71-53.33-105.47,0,0,67.92-64.22,59.93-122.93-175.43,24.68-99.88-202.83,96.81-67.61,0,0-4.65,152.43,48.25,167.35C952.4,1809,1033,1703.61,1036.45,1694.45Zm556-1205.66s135.08-50.1,178.38-91.85C1763.13,424.6,1718.41,525,1631,583,1631,583,1608.68,513.53,1592.44,488.79Zm-465.06,703.75c-54.65-26.84-121.76-106.42-181.21-100.67,30.68,36.43,27.91,69.72,92.05,94.92C1065.06,1197.34,1089,1196.38,1127.38,1192.54Z"/></g></g></svg>