<svg xmlns="http://www.w3.org/2000/svg" viewBox="0 0 515.3 665.03"><defs><style>.cls-1{fill-rule:evenodd;}</style></defs><title>Demon-Face</title><g id="Layer_2" data-name="Layer 2"><g id="Layer_1-2" data-name="Layer 1"><path class="cls-1" d="M269.2,643.65a37.1,37.1,0,0,0,12.08.25,60.2,60.2,0,0,0,41.87-20.84,84.23,84.23,0,0,0,16.6-40.51q1.63-11.73,2.81-23.51a64.89,64.89,0,0,1,7.54-14.91,381.68,381.68,0,0,0,25-46.21c.62-1.56,1.19-3.15,1.71-4.75a1.86,1.86,0,0,0,.09-.81.34.34,0,0,0-.28-.29l-.2.07a4.67,4.67,0,0,0-.82.9,75.86,75.86,0,0,1-20.39,18.19,7.86,7.86,0,0,1-9.85-1,18.24,18.24,0,0,1-2.14-4.53,13.76,13.76,0,0,0-4.34-4.82c-.74-.68-1.5-1.33-2.29-1.95a1,1,0,0,0-.74-.22.62.62,0,0,0-.47.4,7,7,0,0,0-.41,1.69q-4.85,25.06-11.38,49.75a42,42,0,0,1-8.91,16.76,40.53,40.53,0,0,1-17.74,6.88,273.45,273.45,0,0,1-64.68,1.93,92,92,0,0,1-27-5.82,19.14,19.14,0,0,1-10.37-11.23,166.71,166.71,0,0,1-9.14-32q-3-14-6-28a.76.76,0,0,0-.23-.3.52.52,0,0,0-.29-.09,1.46,1.46,0,0,0-.8.3,78.66,78.66,0,0,0-10.23,9.16,12.09,12.09,0,0,1-15.6-.51,67.91,67.91,0,0,1-13.58-15l-.46-.53a.28.28,0,0,0-.18-.06.14.14,0,0,0-.12.06.76.76,0,0,0-.09.55c.48,1.53,1,3.05,1.62,4.54a343.18,343.18,0,0,0,24,44.82,117.48,117.48,0,0,1,8.42,15.62q1.53,10.27,2.53,20.6a91.91,91.91,0,0,0,14.49,41.26,59.43,59.43,0,0,0,44.43,24.35,46.51,46.51,0,0,0,11.37,0,119.85,119.85,0,0,1,12.09-3.28,50.73,50.73,0,0,1,10.65,2.63l1.44.44Zm-7.11-71.09a180.52,180.52,0,0,0,39.12-4,25.31,25.31,0,0,0,11.11-5.36A49.44,49.44,0,0,0,319.94,547a225.26,225.26,0,0,0,5.89-23.73.6.6,0,0,0-.21-.53.43.43,0,0,0-.46,0,9.32,9.32,0,0,0-1.23,1A132.4,132.4,0,0,1,313,531.68a1.78,1.78,0,0,0-.67,1.25,41.59,41.59,0,0,1-15.42,30.3l-.64.34a.37.37,0,0,1-.36-.32,1.93,1.93,0,0,1,.07-.86,29.15,29.15,0,0,0,1.61-14.71A24.44,24.44,0,0,0,296,542.9a1.93,1.93,0,0,0-.58-.72.91.91,0,0,0-.7-.12,5.23,5.23,0,0,0-1.46.67,97.28,97.28,0,0,1-29,6.13,84.69,84.69,0,0,1-22-1,69.06,69.06,0,0,1-21.66-5.84.82.82,0,0,0-1,.15,3.63,3.63,0,0,0-.76,1.37,22.17,22.17,0,0,0-.18,16.93,21.25,21.25,0,0,1,.55,2.39.76.76,0,0,1-.15.5.33.33,0,0,1-.3.14l-.34-.16a41.8,41.8,0,0,1-15.68-30.87,1.3,1.3,0,0,0-.59-.9A109.1,109.1,0,0,1,190.23,523l-.61-.33a.34.34,0,0,0-.35.28,1.8,1.8,0,0,0,0,.8,169.93,169.93,0,0,0,10.29,34.62,16.61,16.61,0,0,0,12,9.58,155.19,155.19,0,0,0,39.1,4.61q5.68.06,11.38,0Zm-33.44-32.11A101.42,101.42,0,0,0,280.56,542a31.36,31.36,0,0,0,13.5-5.31q.58-.55,1.14-1.14a.9.9,0,0,1,1-.25,3.45,3.45,0,0,1,1.13,1.15,26.64,26.64,0,0,1,5,11.54l.23.71a.33.33,0,0,0,.21.11.41.41,0,0,0,.26-.09,1.48,1.48,0,0,0,.46-.7,111.93,111.93,0,0,0,4.19-17.61,3,3,0,0,1,1.6-1.86,77.93,77.93,0,0,0,17.86-14.23,3.38,3.38,0,0,0,.66-1.39q1.82-8.28,2.94-16.67a.89.89,0,0,0-.21-.63.25.25,0,0,0-.23-.1.48.48,0,0,0-.3.11q-11.43,14.32-23.89,27.79a30.53,30.53,0,0,1-17.69,7.11,276.21,276.21,0,0,1-51.91,1.16,80,80,0,0,1-21.34-4.12,37,37,0,0,1-12.07-10.41q-8.54-10.14-17-20.38a11,11,0,0,0-1.15-1.21.63.63,0,0,0-.32-.1.27.27,0,0,0-.19.11,1.09,1.09,0,0,0-.15.66q1.31,8.71,3.15,17.33a4.33,4.33,0,0,0,1,1.39,83.81,83.81,0,0,0,18,14,2.26,2.26,0,0,1,.82,1l.16.72a104.5,104.5,0,0,0,3.8,16.3,5.82,5.82,0,0,0,.82,1.79.19.19,0,0,0,.12.07.19.19,0,0,0,.13,0,1.05,1.05,0,0,0,.33-.55,27.62,27.62,0,0,1,5.85-12.7.87.87,0,0,1,.62-.33.89.89,0,0,1,.66.22c.56.57,1.15,1.12,1.76,1.64a21,21,0,0,0,7.1,3.43Zm34.86-12.79a130.19,130.19,0,0,0,32-3.39,20.72,20.72,0,0,0,10.87-7.71q12.81-15.19,25.69-30.32a1.1,1.1,0,0,0,.16-.41.74.74,0,0,0,0-.36,6,6,0,0,0-1.49-1.75q-6.84-6.83-13.78-13.56a24.45,24.45,0,0,0-2.54-2.34.6.6,0,0,0-.32-.07.19.19,0,0,0-.17.1,1.06,1.06,0,0,0-.05.68,10.74,10.74,0,0,1-4.16,10.9,39.56,39.56,0,0,1-11.4,8.84,26.29,26.29,0,0,0-12.1,4.6,30.31,30.31,0,0,0-3.73,9.33A18.22,18.22,0,0,1,266.35,518a40.45,40.45,0,0,1-24.91-2.58,16.46,16.46,0,0,1-8.65-12.5,38.42,38.42,0,0,0-3.68-9.82,16,16,0,0,0-8.26-3.86,17.55,17.55,0,0,1-11.43-6,44.09,44.09,0,0,1-7.42-8,9.75,9.75,0,0,1-.84-6.22l0-.83a.35.35,0,0,0-.23-.24.43.43,0,0,0-.38,0,8.67,8.67,0,0,0-1.2,1.07q-8.24,7.88-16.23,16a1.18,1.18,0,0,0-.16,1.2l.43.52,26.34,31a21.87,21.87,0,0,0,14.65,7.76,206.3,206.3,0,0,0,39.1,2.17Zm10.09-26.19q-3.6-21.93-5.45-44.07A369.22,369.22,0,0,1,277.88,374a1.35,1.35,0,0,1,.37-.68.35.35,0,0,1,.26-.1.39.39,0,0,1,.27.11q1.59,2.25,3.21,4.49a34.89,34.89,0,0,0,14.95,11.68,25.11,25.11,0,0,0,14.94-4.7A344.76,344.76,0,0,0,341,363a113.5,113.5,0,0,1,35.61-20.46,47.93,47.93,0,0,1,14.08-2.05,6.75,6.75,0,0,1,1.49.1.54.54,0,0,1,.33.28.25.25,0,0,1-.07.28,7.69,7.69,0,0,1-1.77.76q-9.93,3.45-19.6,7.6a1.76,1.76,0,0,0-.93,1.43,94.09,94.09,0,0,1-11.76,36.8,31.22,31.22,0,0,1-38,13.71,28,28,0,0,1-11-9,1.49,1.49,0,0,0-1.05-.58,4.71,4.71,0,0,0-1.51.5,31.68,31.68,0,0,1-10.58,2,3.63,3.63,0,0,0-1.44.62,19.11,19.11,0,0,0-9.53,11.18,90.85,90.85,0,0,0,4.29,39.1,13.3,13.3,0,0,0,8.82,7.49,57.27,57.27,0,0,1,18.47,11.89,49,49,0,0,0,30.58,10.72,59.66,59.66,0,0,0,29.19-6.29A25.47,25.47,0,0,0,388.5,451a39.84,39.84,0,0,1,1.85-5.76,3.28,3.28,0,0,1,1.19-1.18A150.61,150.61,0,0,0,410.72,430a64.83,64.83,0,0,0,13.39-24.46,83.28,83.28,0,0,0,6.51-42.7A396.92,396.92,0,0,0,418.19,296q-2.69-10.82-5.22-21.66a1.67,1.67,0,0,0-1-1q-11.9-2.81-24-4.61a44.81,44.81,0,0,1-39.09-25.28,128.62,128.62,0,0,0-8.94-15.58,8.49,8.49,0,0,0-3.11-2.69,1.44,1.44,0,0,0-1.17.06,83.72,83.72,0,0,1-47.93,9.15,116.55,116.55,0,0,1-21.62-3.87,1.71,1.71,0,0,1-.59-.36.21.21,0,0,1,0-.23.45.45,0,0,1,.26-.23A238.47,238.47,0,0,0,326,212a53.73,53.73,0,0,0,20.41-15.59,44.19,44.19,0,0,0-1.59-45.5,105.74,105.74,0,0,0-23.73-26.36c-12.46-3.17-66.92-11.62-126.62,2.32a139.55,139.55,0,0,0-37.77,14.67.86.86,0,0,0-.37.5.43.43,0,0,0,0,.25,1,1,0,0,0,.23.28c.55.35,1.11.68,1.68,1a21.1,21.1,0,0,1,8.16,13,123.9,123.9,0,0,1,2.07,34.85c-.34,5.43-.84,10.86-1.5,16.26l-.21,1.08a.16.16,0,0,1-.15.09.27.27,0,0,1-.2-.12,1.54,1.54,0,0,1-.27-.72,293.55,293.55,0,0,0-3.38-33,128.26,128.26,0,0,1-5.25-14.89,5.14,5.14,0,0,0-1.41-2.08,1.41,1.41,0,0,0-1.69,0,13.73,13.73,0,0,0-3.54,4.23,25,25,0,0,0-2.39,21.29,95.45,95.45,0,0,1,5.11,25.63,87.29,87.29,0,0,1-7.17,36.94,49.22,49.22,0,0,1-23.77,21.45,23.81,23.81,0,0,0-11.52,17.67,79.87,79.87,0,0,0,3,34.85,115.26,115.26,0,0,0,4,11.7,5.93,5.93,0,0,0,3.07,2.18q16.08,7.23,32,14.83a278.11,278.11,0,0,1,36.39,26.43,79.51,79.51,0,0,0,22.61,13.59,22.86,22.86,0,0,0,17.77-3.58,88.54,88.54,0,0,0,8.15-6.43.58.58,0,0,1,.5,0,.92.92,0,0,1,.47.38l.15.42A289,289,0,0,1,246.86,457a1.17,1.17,0,0,1-.26.65.3.3,0,0,1-.23.11.45.45,0,0,1-.29-.1,2.77,2.77,0,0,1-.81-1.13,292.56,292.56,0,0,1-15.12-48.2,15.65,15.65,0,0,0-7.88-12,10.07,10.07,0,0,0-7.14-2.17,36.19,36.19,0,0,1-8.1-2.17,1,1,0,0,0-1,.21,9.47,9.47,0,0,0-1.08,1.29A26.78,26.78,0,0,1,174.6,402a73.87,73.87,0,0,0-39.78-3.27A18.36,18.36,0,0,0,122,407.63a10.61,10.61,0,0,0-.07,9.28,114,114,0,0,1,2.33,20.59,29.55,29.55,0,0,0,2,12.09,29,29,0,0,0,9.34,17.49A46.36,46.36,0,0,0,159,475,55.68,55.68,0,0,0,193.86,468q6.49-4.82,12.77-10a95.36,95.36,0,0,1,11.21-5.73l.77-.15a.33.33,0,0,1,.25.22.56.56,0,0,1-.05.44,28.66,28.66,0,0,0-5.36,19.56,6.76,6.76,0,0,0,2.49,3.39,19,19,0,0,0,8.46,4.16,18.87,18.87,0,0,1,7.14,7.34,90.48,90.48,0,0,1,6.18,14.93,23.15,23.15,0,0,0,21.54,12.94,25.59,25.59,0,0,0,14.55-7.51,2.5,2.5,0,0,0,.39-2.15q-.33-2-.6-4ZM195.22,385q-9-7-18.47-13.28A68.74,68.74,0,0,0,162,365.33a1.49,1.49,0,0,0-.81,0,.5.5,0,0,0-.31.47,2.19,2.19,0,0,0,.18.87,83.24,83.24,0,0,0,13.64,25.92,18.16,18.16,0,0,0,24.07-.36,18.43,18.43,0,0,0,2.05-2l.35-.36a.65.65,0,0,0-.06-.9,15.64,15.64,0,0,0-1.74-1.12c-1.42-.9-2.81-1.83-4.19-2.8Zm153.28-5.11a81.86,81.86,0,0,0,5.6-13.81.69.69,0,0,0-.38-.81,1.53,1.53,0,0,0-.82,0,77.1,77.1,0,0,0-27.55,15.73q-5.43,4.16-11.24,7.74a.66.66,0,0,0-.32.46,1.18,1.18,0,0,0,.23.68,18.49,18.49,0,0,0,24.83,3.91,42.53,42.53,0,0,0,8.52-11.82c.39-.7.77-1.41,1.13-2.12Zm119-25a230,230,0,0,0,21-21.89,81.16,81.16,0,0,0,11.4-32,445.87,445.87,0,0,0,4.1-54.75q.16-6.18.17-12.35a.89.89,0,0,0-.21-.54.2.2,0,0,0-.15-.06.27.27,0,0,0-.17.06,2.63,2.63,0,0,0-.38.56,422.23,422.23,0,0,1-60.45,73.27,2.37,2.37,0,0,0-.5,1.81,351.66,351.66,0,0,1,1,50.28q-.29,7.07-.34,14.14a6.09,6.09,0,0,0,.12,1.48.69.69,0,0,0,.34.39.43.43,0,0,0,.41,0q.84-.63,1.65-1.32,11.4-9.06,22-19.06ZM72.22,336.5a163.4,163.4,0,0,1,.45-28,2,2,0,0,0-.51-1.39,429.58,429.58,0,0,1-60.4-73.28l-.45-.57a.31.31,0,0,0-.19-.06.21.21,0,0,0-.15.07,1.12,1.12,0,0,0-.17.59A293.68,293.68,0,0,0,19.27,301,78.81,78.81,0,0,0,36,333.69a144.91,144.91,0,0,0,33.4,26.41q1.61,1.06,3.18,2.16a.62.62,0,0,0,.35.08.39.39,0,0,0,.26-.09.74.74,0,0,0,.27-.57q-.23-12.6-1.25-25.18Zm357-98.8a191,191,0,0,0,38-80.34,159.67,159.67,0,0,0-7.39-78.93,291.88,291.88,0,0,0-30.46-57.59,77,77,0,0,0-6.93-8.46l-.68-.5a.31.31,0,0,0-.25,0,.26.26,0,0,0-.15.16,1.43,1.43,0,0,0,0,.74,408.22,408.22,0,0,1,2.09,82,124.61,124.61,0,0,1-10.45,42,36.13,36.13,0,0,1-19.37,19,32,32,0,0,1-5.22,1.16,1.64,1.64,0,0,0-1.4,1.3A416.6,416.6,0,0,0,374.36,205a72.69,72.69,0,0,0,5,36.24,27.49,27.49,0,0,0,17.07,14.12,62.88,62.88,0,0,0,8.52,2.36,3.18,3.18,0,0,0,2.1-.64,85.75,85.75,0,0,0,22.09-19.41Zm-294-5.68A46,46,0,0,0,141,202.16a214.85,214.85,0,0,0-6.34-37.7,19.33,19.33,0,0,1,1-5.48,1.8,1.8,0,0,0,.09-.8.62.62,0,0,0-.34-.42,8.26,8.26,0,0,0-1.39-.42,43.73,43.73,0,0,0-8.47-.58,29.86,29.86,0,0,1-20.15-14.32,93,93,0,0,1-12.07-34.85,315.28,315.28,0,0,1-1.59-72.52q.72-11.17,2-22.32a1.08,1.08,0,0,0-.14-.68.28.28,0,0,0-.2-.12.6.6,0,0,0-.32.07A20.39,20.39,0,0,0,90,15.17a216.55,216.55,0,0,0-33,56.2,156.48,156.48,0,0,0-10.75,68.22,140,140,0,0,0,19.94,68.26,372.87,372.87,0,0,0,23.24,35.38,3,3,0,0,0,1.3.77q13.61,4.55,27.29,8.8a1.63,1.63,0,0,0,1.35-.26,33.88,33.88,0,0,0,11.69-13.43c1.43-2.32,2.8-4.68,4.08-7.09Zm133.3,432.73A81.28,81.28,0,0,0,314,645.17a202.78,202.78,0,0,0,44.65-54.82,393.51,393.51,0,0,0,33.94-74.64,392.62,392.62,0,0,1,5.82-46.24,82,82,0,0,1,8.67-25.55,47.6,47.6,0,0,1,10.67-10.15,61.11,61.11,0,0,0,14.34-22.58,96.67,96.67,0,0,0,6.52-24.94,3.23,3.23,0,0,1,1.22-2.09A340.72,340.72,0,0,0,491,337.24,96,96,0,0,0,503.45,306,491.37,491.37,0,0,0,514,222.77q1-19,1.3-37.94l-.08-.55a.12.12,0,0,0-.14-.08.35.35,0,0,0-.22.08,11.29,11.29,0,0,0-1.82,2.94,331.2,331.2,0,0,1-44.27,61.12q-13.12,15-27.23,29.08a6.83,6.83,0,0,1-1.3,1.1.48.48,0,0,1-.42,0,.63.63,0,0,1-.32-.34,18.49,18.49,0,0,1-.29-2.87q-.69-10.27-1.31-20.56a3,3,0,0,1,.65-1.45,231.07,231.07,0,0,0,37.32-78.92,163.27,163.27,0,0,0,.69-74.65A192.1,192.1,0,0,0,416,.09a.57.57,0,0,0-.32-.09.27.27,0,0,0-.2.09.78.78,0,0,0-.18.59,469.58,469.58,0,0,1,4.28,84.87,138.94,138.94,0,0,1-9.29,46.24,38,38,0,0,1-15.27,18.43,16.87,16.87,0,0,1-7.43,2.07,2.09,2.09,0,0,1-1.55-1,75.91,75.91,0,0,0-34.44-26.49,230.46,230.46,0,0,0-65.37-15.24,283.47,283.47,0,0,0-78.94,3.24,177.76,177.76,0,0,0-54.74,17.58,66.25,66.25,0,0,0-23.93,21.45,1.51,1.51,0,0,1-1.15.45A23.5,23.5,0,0,1,110,141.12a84.31,84.31,0,0,1-12.16-33.55,307.35,307.35,0,0,1-1.81-69.65Q97.38,19.26,99.69.68a.68.68,0,0,0-.23-.55.27.27,0,0,0-.22-.08.56.56,0,0,0-.32.11A193.42,193.42,0,0,0,38.51,99.79,171.46,171.46,0,0,0,50.24,207.13,262.55,262.55,0,0,0,77,254.06a2.32,2.32,0,0,1,.24,1.44q-.8,11.16-1.54,22.32a1,1,0,0,1-.35.64.53.53,0,0,1-.32.12.53.53,0,0,1-.35-.1A496.75,496.75,0,0,1,12.63,205,184.15,184.15,0,0,1,.84,184.81l-.29-.57a.25.25,0,0,0-.16-.06.23.23,0,0,0-.16.06,1.05,1.05,0,0,0-.23.58A674.69,674.69,0,0,0,8.51,291a155.43,155.43,0,0,0,12.12,40.57,61,61,0,0,0,12.52,15.58,363.59,363.59,0,0,0,42.57,37.29,2.86,2.86,0,0,1,.88,1.84,89.74,89.74,0,0,0,16.8,43.36,80.12,80.12,0,0,0,10.95,9.87,40.22,40.22,0,0,1,9.41,17.84A303.12,303.12,0,0,1,122.42,515a304.74,304.74,0,0,0,13,34.12,321.25,321.25,0,0,0,44.89,75.37,123.45,123.45,0,0,0,41.3,33.65,71.3,71.3,0,0,0,36.92,6.59,86.92,86.92,0,0,0,10,0Z"/><path class="cls-1" d="M282,593.94q12,1,24,2.43l.73-.06a.14.14,0,0,0,.08-.09.13.13,0,0,0,0-.12,1.09,1.09,0,0,0-.37-.43,69.62,69.62,0,0,0-30.11-8.33q-19.19-.54-38.39.1a69.73,69.73,0,0,0-27.65,7.3,9.36,9.36,0,0,0-1.75,1.1.27.27,0,0,0-.09.24.25.25,0,0,0,.12.19,1.08,1.08,0,0,0,.65.15A275.76,275.76,0,0,1,245,593.63a6.36,6.36,0,0,1,3.56,1.09,11.64,11.64,0,0,0,17.82,0,7.76,7.76,0,0,1,4.92-1.2,97.48,97.48,0,0,1,10.67.38Z"/><path class="cls-1" d="M187.78,302.41a74.1,74.1,0,0,0,18-32,18.72,18.72,0,0,0,.47-2.46,1,1,0,0,0-.18-.65.23.23,0,0,0-.21-.1.36.36,0,0,0-.27.12q-8.47,13.54-17.82,26.51a72.81,72.81,0,0,1-25.33,20.52.14.14,0,0,0-.06.11.09.09,0,0,0,.05.08,1.61,1.61,0,0,0,1,0A119,119,0,0,0,176,311.12a69,69,0,0,0,11.76-8.71Z"/><path class="cls-1" d="M328.47,295.26Q319,282.52,310.62,269a16,16,0,0,0-1.27-1.7.38.38,0,0,0-.27-.1.24.24,0,0,0-.2.12,1,1,0,0,0-.1.66,84.47,84.47,0,0,0,9.5,23A54,54,0,0,0,341,311.88q5.46,1.49,11,2.77a1.22,1.22,0,0,0,.6-.06.11.11,0,0,0,.06-.11.16.16,0,0,0-.06-.13,7.88,7.88,0,0,0-1.1-.61,71.26,71.26,0,0,1-23-18.48Z"/></g></g></svg>