<svg xmlns="http://www.w3.org/2000/svg" viewBox="0 0 1335.48 177.68"><defs><style>.cls-1,.cls-2{fill:#121212;}.cls-1{stroke:#f3370c;stroke-width:0.36px;}.cls-2{fill-rule:evenodd;}</style></defs><title>Dodge-with-Hash</title><g id="Layer_2" data-name="Layer 2"><g id="Layer_1-2" data-name="Layer 1"><path class="cls-1" d="M-17016.21-4018h-77.89l-39.77,46.77c-3.39,4-2.9,7.2,1.07,7.2h63.48c4,0,9.94-3.22,13.32-7.2Z" transform="translate(18144.74 4141.54)"/><path class="cls-1" d="M-17019.45-4105.78h1.67a9.11,9.11,0,0,1,9.1,9.09v11.92a9.11,9.11,0,0,1-9.1,9.09h-4.37a9.09,9.09,0,0,1,7,8.84v10.17a9.1,9.1,0,0,1-7,8.87h6.85a9.1,9.1,0,0,1,9.08,9.1v9.05l88.88-104.5c3.39-4,2.9-7.2-1.07-7.2H-16982c-4,0-9.94,3.22-13.32,7.2Z" transform="translate(18144.74 4141.54)"/><path class="cls-1" d="M-16812.77-4141.36h-63.48c-4,0-9.94,3.22-13.32,7.2l-138.56,162.91c-3.39,4-2.9,7.2,1.07,7.2h63.48c4,0,9.94-3.22,13.32-7.2l138.56-162.91C-16808.32-4138.14-16808.8-4141.36-16812.77-4141.36Z" transform="translate(18144.74 4141.54)"/><path class="cls-2" d="M-18138-4024.47a6.74,6.74,0,0,1-6.69-6.79v-61.29a6.74,6.74,0,0,1,6.69-6.79h130.14c36.67,0,66.4,17,66.4,37.5s-29.73,37.37-66.4,37.37Zm111.53-17.35c18.8,0,34-9,34-20s-15.23-20.05-34-20.05l-66.71-.17a3.55,3.55,0,0,0-3.43,3.66v33a3.47,3.47,0,0,0,3.43,3.56Z" transform="translate(18144.74 4141.54)"/><path class="cls-2" d="M-17665.7-4024.47a6.74,6.74,0,0,1-6.69-6.79v-61.29a6.74,6.74,0,0,1,6.69-6.79h130.14c36.67,0,66.4,17,66.4,37.5s-29.73,37.37-66.4,37.37Zm111.53-17.35c18.8,0,34-9,34-20s-15.23-20.05-34-20.05l-66.71-.17a3.55,3.55,0,0,0-3.43,3.66v33a3.47,3.47,0,0,0,3.43,3.56Z" transform="translate(18144.74 4141.54)"/><path class="cls-2" d="M-17833.57-4022.82c-45.92-1.48-83.2-17.38-83.2-38.83s37.27-37.49,83.2-38.84c8.46-.25,17.53-.5,26.1-.5s17.65.25,26.1.5c45.93,1.35,83.2,17.39,83.2,38.84s-37.27,37.35-83.2,38.83c-7.72.25-15.31.5-26.1.5s-18.38-.25-26.1-.5Zm26.1-16.72c5.87,0,10-.14,14.21-.28,25-.83,45.27-9.78,45.27-21.83s-20.28-21.07-45.27-21.84c-4.61-.14-9.54-.28-14.21-.28s-9.6.14-14.2.28c-25,.77-45.27,9.78-45.27,21.84s20.28,21,45.27,21.83c4.2.14,8.34.28,14.2.28Z" transform="translate(18144.74 4141.54)"/><path class="cls-2" d="M-17234.24-4095.43a3.74,3.74,0,0,0-3.57-3.89l-106.78,0c-7.84,0-16.13-.19-23.87.05-42,1.31-76.09,16.78-76.09,37.48s19.34,37.21,76.09,37.47c5.18,0,19.81-.06,23.87-.06h103.16a6.75,6.75,0,0,0,6.74-6.76v-30.62a6.75,6.75,0,0,0-6.74-6.76h-103.37a3.75,3.75,0,0,0-3.57,3.9v8.87a3.75,3.75,0,0,0,3.57,3.9l57.91.06a3.73,3.73,0,0,1,3.57,3.89v4.47a3.74,3.74,0,0,1-3.57,3.9l-56.78,0c-5.09,0-8.68-.14-12.33-.29-21.68-.85-39.28-9.51-39.28-21.95s17.6-18.82,39.28-19.6c4-.15,8.28-.29,12.33-.29l105.86,0c2,0,3.57-2.61,3.57-4.76v-9Z" transform="translate(18144.74 4141.54)"/><path class="cls-2" d="M-17196.19-4024.48a6.62,6.62,0,0,1-6.62-6.62v-61.59a6.61,6.61,0,0,1,6.62-6.61h178.41a2.62,2.62,0,0,1,2.62,2.61v11.91a2.63,2.63,0,0,1-2.62,2.62l-131.07.07a5,5,0,0,0-5,5v2.68a5,5,0,0,0,5,4.95l124.56.05a2.61,2.61,0,0,1,2.61,2.62v10.17a2.61,2.61,0,0,1-2.61,2.62h-124.81a5,5,0,0,0-5,4.95v2.87a5,5,0,0,0,5,4.95l133.69-.06a2.62,2.62,0,0,1,2.61,2.62v11.59a2.61,2.61,0,0,1-2.61,2.61l-180.78,0Z" transform="translate(18144.74 4141.54)"/></g></g></svg>