<svg xmlns="http://www.w3.org/2000/svg" viewBox="0 0 1131.94 78.67"><defs><style>.cls-1{fill:#121212;fill-rule:evenodd;}</style></defs><title>DODGE-Logo</title><g id="Layer_2"><g id="Layer_1-2"><path class="cls-1" d="M-18318.56-4123.2a6.75,6.75,0,0,1-6.69-6.8v-61.28a6.74,6.74,0,0,1,6.69-6.79h130.14c36.67,0,66.4,17,66.4,37.5s-29.73,37.37-66.4,37.37Zm111.53-17.35c18.8,0,34-9,34-20.05s-15.24-20-34-20l-66.71-.18a3.56,3.56,0,0,0-3.43,3.67v33.05a3.47,3.47,0,0,0,3.43,3.56Z" transform="translate(18325.25 4199.72)"/><path class="cls-1" d="M-17846.21-4123.2a6.75,6.75,0,0,1-6.69-6.8v-61.28a6.74,6.74,0,0,1,6.69-6.79h130.14c36.68,0,66.4,17,66.4,37.5s-29.72,37.37-66.4,37.37Zm111.53-17.35c18.8,0,34-9,34-20.05s-15.24-20-34-20l-66.71-.18a3.55,3.55,0,0,0-3.42,3.67v33.05a3.46,3.46,0,0,0,3.42,3.56Z" transform="translate(18325.25 4199.72)"/><path class="cls-1" d="M-18014.07-4121.55c-45.93-1.48-83.2-17.39-83.2-38.83s37.27-37.49,83.2-38.84c8.45-.25,17.52-.5,26.1-.5s17.64.25,26.1.5c45.93,1.35,83.2,17.38,83.2,38.84s-37.28,37.35-83.2,38.83c-7.72.25-15.32.5-26.1.5s-18.38-.25-26.1-.5Zm26.1-16.72c5.86,0,10-.14,14.2-.28,25-.83,45.27-9.78,45.27-21.83s-20.28-21.08-45.27-21.84c-4.6-.14-9.54-.28-14.2-.28s-9.6.14-14.21.28c-25,.76-45.27,9.78-45.27,21.84s20.28,21,45.27,21.83c4.21.14,8.34.28,14.21.28Z" transform="translate(18325.25 4199.72)"/><path class="cls-1" d="M-17414.74-4194.16a3.74,3.74,0,0,0-3.57-3.89l-106.78,0c-7.85,0-16.14-.19-23.87,0-42,1.3-76.09,16.78-76.09,37.47s19.33,37.22,76.09,37.48c5.18,0,19.81-.06,23.87-.06h103.15a6.75,6.75,0,0,0,6.74-6.76v-30.63a6.75,6.75,0,0,0-6.74-6.75h-103.36a3.74,3.74,0,0,0-3.57,3.9v8.87a3.74,3.74,0,0,0,3.57,3.9l57.91.05a3.75,3.75,0,0,1,3.57,3.9v4.47a3.74,3.74,0,0,1-3.57,3.89h-56.79c-5.09,0-8.68-.14-12.32-.29-21.69-.86-39.28-9.51-39.28-22s17.59-18.81,39.28-19.6c4-.14,8.27-.29,12.32-.29l105.87,0c2,0,3.57-2.61,3.57-4.76v-9Z" transform="translate(18325.25 4199.72)"/><path class="cls-1" d="M-17376.7-4123.22a6.61,6.61,0,0,1-6.61-6.61v-61.59a6.61,6.61,0,0,1,6.61-6.61h178.41a2.62,2.62,0,0,1,2.62,2.62v11.91a2.62,2.62,0,0,1-2.62,2.61l-131.06.07a5,5,0,0,0-5,5v2.68a5,5,0,0,0,5,4.95l124.55.05a2.61,2.61,0,0,1,2.61,2.62v10.17a2.61,2.61,0,0,1-2.61,2.62h-124.81a5,5,0,0,0-5,5v2.86a5,5,0,0,0,5,5l133.69-.06a2.61,2.61,0,0,1,2.61,2.62v11.58a2.61,2.61,0,0,1-2.61,2.62l-180.78,0Z" transform="translate(18325.25 4199.72)"/></g></g></svg>