<svg xmlns="http://www.w3.org/2000/svg" viewBox="0 0 1103.41 198.58"><defs><style>.a{fill-rule:evenodd;}</style></defs><title>GT-AWD</title><path class="a" d="M436.51,0H168.64C104.8,0,69.23,23,31.57,78.56c-51.47,75.87-39.91,120,34,120l277,0a13,13,0,0,0,11.67-6.95l57.23-104.1a6.79,6.79,0,0,0-5.84-9.8H267.33a12.76,12.76,0,0,0-11.42,6.72L245.32,103.3a7.75,7.75,0,0,0,6.61,11.27h40.24l-25.36,44.58A12.93,12.93,0,0,1,255.22,166H154c-22,0-36.41-14-36.85-33.24-.86-36.81,41.1-97.87,97.18-97.87H414.76a5.62,5.62,0,0,0,1.1.11H563.92c2.8,0,4.15,3,1.91,6.33L481.18,188.2c-2.88,4.21-.48,10.22,3.12,10.38h114c2.55.12,4.79-1.3,6.82-4.31L692.76,39.15c1.9-2.82,4-4.19,6.38-4.19H808.33c2.55,0,4.78-1.6,6.71-4.84L826.27,8c2.24-3.78.9-8-2.08-8Z"/><path class="a" d="M1035,198.58c13.11.07,27.88-2.35,38.82-10.55,12-8.94,18.17-21.19,24.61-34.22,4.46-9,7-19.94,3-29.63a29.46,29.46,0,0,0-14-15.12,46.07,46.07,0,0,0-20.58-5.06l-342,.14c-15,.12-29,1.08-40.81,11.78a34.4,34.4,0,0,0-6.05,7.24L646,178.69a13.27,13.27,0,0,0,11.52,19.89ZM883.29,117.13h-.19L859.36,157.9c-5.83,10.39-12.73,13-21.23,13s-13-4.86-10.21-9.7l26.14-44.07H821.18c-1.75,3-16,27.23-28.32,48.39-2.37,4.07-4.77,7.65-4.93,10.65-.54,10.2,15.47,9,30.86,9,26.55,0,35.09-.44,46.08-7.33,4.43,6.89,13.94,7,38.52,7.33,16,.21,30,1.19,41.38-9,3.34-3,5.11-6.58,7.48-10.65,12.34-21.16,26.36-45.37,28.13-48.39h-34l-25.1,43.72c-5.38,9-10.47,10.05-18.14,10.05-8.49,0-15.71-2.73-9.5-13l23.82-40.77H883.29Zm-83,11.74c2.4-12.63-16.23-11.59-36.47-11.59H732.91c-15.08.5-29.39-1.13-40,8.5-3.13,2.83-4.77,6.2-7,10.05-11.48,20-26.7,46.62-28.35,49.47h32.08l9.85-17h47.29l-9.84,17h32.25L793.45,143C796.05,138.32,799.54,133.58,800.3,128.87ZM755,154H707.71L718,136.11c2.64-4.57,7.85-5.36,24.46-5.36,18.89,0,25.93-.22,22.73,5.36Zm262.85-22.57h30.59c19.55,0,6.51,17.92,4.54,21.42-.68,1.2-9.41,19.13-28.14,19.13H994.61ZM955.16,185.3H1035c32.38,0,40-14.53,51.46-37.38,12.57-25.14-10.59-30.64-19.77-30.64H993.29Z"/></svg>