<svg xmlns="http://www.w3.org/2000/svg" viewBox="0 0 886.17 198.58"><defs><style>.a{fill-rule:evenodd;}</style></defs><title>GT</title><path class="a" d="M442.35,9.77l-10,18.09a13,13,0,0,1-11.7,7H214.28c-56.08,0-98,61.06-97.18,97.87C117.54,152,132,166,154,166H255.22a12.93,12.93,0,0,0,11.59-6.81l25.36-44.58H251.93a7.75,7.75,0,0,1-6.61-11.27l10.59-18.92a12.76,12.76,0,0,1,11.42-6.72H405.65a6.79,6.79,0,0,1,5.84,9.8l-57.23,104.1a13,13,0,0,1-11.67,6.95l-277,0c-73.93,0-85.49-44.12-34-120C69.23,23,104.8,0,168.64,0H436.51A6.78,6.78,0,0,1,442.35,9.77Z"/><path class="a" d="M883,0H489c-2.93,0-3.93,1.73-6.22,5.26L471.14,27.14C468.33,31.6,471,35,474.64,35H622.7c2.81,0,4.16,3,1.91,6.33L540,188.2c-2.88,4.21-.48,10.21,3.12,10.38h114c2.55.12,4.79-1.3,6.82-4.31L751.54,39.15c1.91-2.82,4-4.19,6.38-4.19H867.11c2.55,0,4.78-1.6,6.72-4.84L885.05,8C887.29,4.25,886,0,883,0Z"/></svg>