<svg xmlns="http://www.w3.org/2000/svg" viewBox="0 0 1069.99 302.28"><defs><style>.cls-1{fill:#121212;fill-rule:evenodd;}</style></defs><title>GTX-Solid</title><g id="Layer_2" data-name="Layer 2"><g id="Layer_1-2" data-name="Layer 1"><path class="cls-1" d="M790,163.4l-158.32-92c-3.9-2.26-2-9.13,2.46-9.13h88a14,14,0,0,1,7.17,1.88L860,137.76a4.69,4.69,0,0,0,4.63.07L1004.92,64a13.93,13.93,0,0,1,6.8-1.68h53.73c4.58,0,6.32,7.13,2.25,9.24l-164.3,85.2a4.85,4.85,0,0,0-.19,8.5l155.54,89.44c3.91,2.24,2.07,9.13-2.44,9.13H971.12a14,14,0,0,1-7.36-2L839,189a4.72,4.72,0,0,0-4.7-.11L694.64,262.14a13.94,13.94,0,0,1-6.78,1.66H631.67c-4.59,0-6.32-7.14-2.24-9.24L789.78,171.9A4.85,4.85,0,0,0,790,163.4Z"/><path class="cls-1" d="M536.41,302.28h55.88c5.53,0,7.06-1.72,6.77-4.34s-5.18-49.14-5.18-248.24a9.52,9.52,0,0,1,9.78-9.65c59.57-.42,136.34-8,164.35,5.89,5.42,2.69,10.74-5.23,9.62-11.18L772.69,8.41c-.85-4.52-5-9.48-9.29-7.71C752.23,5.36,715.88,6.46,561,6.46S374.15,6.64,366.49.7c-3.43-2.66-8,2.79-9.12,7L350.25,34c-1.66,6.14,3.51,14.16,9.46,11.9,22.24-8.43,114-6.27,165-5.85a9.7,9.7,0,0,1,9.79,9.65c0,213.08-4.71,246.22-5,248.24C529,300.7,530.32,302.28,536.41,302.28Z"/><path class="cls-1" d="M428.69,192.13C371.31,261.62,70.4,264.53,70.4,164.34c0-49.47,103.7-78,206.49-75.94C411.09,91.1,439.68,126,443,128.14c3.54,2.37,7.11-.08,8.41-2.69l9.88-19.75c1.11-2.22,2.86-6.76-7.77-9.08-24.51-5.36-79.93-30.75-181.4-33.4C146.81,59.94,0,100.6,0,169.09c0,71.2,120.82,105.33,245.44,105.17,157.85-.19,177.46-44.06,244.88-44.14,2.13,0,3.44-2.29,3.44-4.42V154.35a4.78,4.78,0,0,0-5.07-4.23c-125.45,0-126.86,4-159.49-9a5,5,0,0,0-6.69,4.86v35.46a5.6,5.6,0,0,0,6.34,5.19c2.36-.18,15.78-2.46,78.73-1.13C418.29,185.76,435.5,183.87,428.69,192.13Z"/></g></g></svg>