<svg xmlns="http://www.w3.org/2000/svg" viewBox="0 0 1158.76 350.89"><defs><style>.cls-1{fill:#121212;fill-rule:evenodd;}</style></defs><title>GTX-Outline</title><g id="Layer_2" data-name="Layer 2"><g id="Layer_1-2" data-name="Layer 1"><path class="cls-1" d="M550.22,330c-.48,17.06,7.28,21.33,24.13,20.9l61.23-.2c14.5-.46,21.59-6.53,20.47-21-.32-6.61-.64-10.26-.93-16.87l76.91-1c5.8,0,11.5-3.58,16.61-6.31L888.71,232l126,75.61a34.66,34.66,0,0,0,18,4.87h90.53c10.5-.38,26.29.82,29.44-9.2,3.7-10.86-7.15-25.06-16.81-31.25L982.56,186.93l150-77.79c9.3-5.27,25.1-10.56,26.17-26.38.8-11.93-13.88-16.35-25.51-16.94l-57.63,0a34.68,34.68,0,0,0-16.65,4.11L918,144.06,816.59,89c17.88.2,34.29-18.45,31.54-35.14l-5.35-28.67a32.42,32.42,0,0,0-8.53-16.46C825.44.92,816.8-1.86,806.18,2.1c-3.53,1.32-40,3.45-47,3.66-35.14,1.08-252.89,1.49-296.93.79L416.92,5.21,404.74,3.64C395.11-2.46,384-.51,375.65,6.59a34.09,34.09,0,0,0-10,15.94L358,50.65a31.22,31.22,0,0,0,1.77,20.9,591,591,0,0,0-64.58-4.78A623.67,623.67,0,0,0,136.77,83.12C85.79,94.92,1.61,126.33,0,196.3c-.29,29.31,13.84,51.78,29.62,64.5,21.44,17.27,46.93,28.81,73.42,36.3,54.3,15.49,110.58,26.6,167,25.77a499.77,499.77,0,0,0,191-31.17,217.32,217.32,0,0,1,68.28-15.45c21.94-1.9,13.18-16.13,22.42-15.75S552.07,306.29,550.22,330ZM652.1,270V106.8a5.78,5.78,0,0,1,8.48-4.89l147.49,85.38a5.79,5.79,0,0,1-.2,9.89L660.39,275A5.77,5.77,0,0,1,652.1,270ZM547.88,174.86C545,163.8,534.75,158.17,523,158.5H503.24l9-18c1.65-4.08,3.49-10.07,2.85-14.61C508.11,95.61,462,93.15,462,93.15c-8.29-3.83-5.19-16.05,4-16.13l83.76-.72A9.18,9.18,0,0,1,559,85.58c.09,5.12,3.91,68.55,1.69,91.51C560.43,179.77,550.8,185.92,547.88,174.86ZM413,225.47c3.25-.17,4.39,6.79,1.24,7.61-5.41,1.4-10.85,5.59-16.32,6.73C295.54,268.51,183,262,122.17,221.29,110,213.16,98.1,193.78,109.09,180c31.62-39.53,133.09-52.47,190.19-51.19q34.07.71,67.94,4.77c13.21,1.67,32.15,5.53,45.1,8.66,4.8,1.31,10.73,2.94,16.77,4.86,3.75,1.19,2.74,11.35-1.21,11.35H400.12c-10.75-.7-18.36-.39-28.2-4.79-12.69-5.56-24.56-2-30.12,10.73a25.23,25.23,0,0,0-2.1,10.77l0,38.35c.92,14.26,19.3,12.63,42.8,10.29.37,0,13.14.67,13.5.63C401.94,224,407.12,225.78,413,225.47Zm428.41-33L674.32,95.37c-4.11-2.39-2.16-9.64,2.6-9.64h92.92a14.68,14.68,0,0,1,7.57,2L915.29,165.4a5,5,0,0,0,4.9.07l148.12-78a14.78,14.78,0,0,1,7.18-1.78h56.71c4.84,0,6.68,7.53,2.38,9.76L961.15,185.42a5.11,5.11,0,0,0-.2,9l164.19,94.4c4.12,2.37,2.18,9.65-2.58,9.65h-89.93a14.72,14.72,0,0,1-7.76-2.1L893.15,219.52a5,5,0,0,0-4.95-.12L740.78,296.69a14.77,14.77,0,0,1-7.16,1.76H674.31c-4.84,0-6.67-7.54-2.37-9.76l169.27-87.25A5.12,5.12,0,0,0,841.44,192.46ZM573.75,339.07c-6.42,0-7.79-1.67-7.35-4.59.32-2.13,5.29-37.11,5.29-262a10.23,10.23,0,0,0-10.33-10.18c-53.8-.45-150.65-2.73-174.12,6.18-6.28,2.38-11.74-6.09-10-12.58l7.52-27.77c1.19-4.42,6-10.18,9.62-7.37,8.09,6.26,41.73,6.08,205.27,6.08s201.91-1.17,213.71-6.08c4.49-1.87,8.91,3.36,9.8,8.14l5.22,27.81C829.57,63,824,71.31,818.23,68.48c-29.56-14.65-110.6-6.67-173.48-6.22a10.05,10.05,0,0,0-10.33,10.18c0,210.17,5.17,259.21,5.47,262s-1.3,4.59-7.15,4.59ZM460.05,222.79c7.19-8.72-11-6.72-22.28-7-66.45-1.41-80.62,1-83.11,1.2a5.92,5.92,0,0,1-6.69-5.49V174.12A5.27,5.27,0,0,1,355,169c34.45,13.7,35.93,9.45,168.36,9.45a5,5,0,0,1,5.35,4.47v75.32c0,2.25-1.38,4.65-3.63,4.66-71.17.09-91.87,46.39-258.5,46.6-131.54.16-259.08-35.87-259.08-111,0-72.3,155-115.22,287.2-111.76,107.1,2.8,165.61,29.6,191.48,35.26,11.22,2.45,9.37,7.24,8.2,9.59L484,152.4c-1.38,2.76-5.14,5.35-8.87,2.85-3.46-2.31-33.64-39.11-175.29-42-108.51-2.19-218,27.94-218,80.16C81.84,299.22,399.48,296.14,460.05,222.79Z"/></g></g></svg>