<svg xmlns="http://www.w3.org/2000/svg" viewBox="0 0 927.47 158.63"><defs><style>.cls-1,.cls-2{fill-rule:evenodd;}.cls-2{fill:#121212;}</style></defs><title>Hurst-HEMI-Logo</title><g id="Layer_2" data-name="Layer 2"><g id="Layer_1-2" data-name="Layer 1"><path class="cls-1" d="M186.8,45.06H118.23L130.15,0H41.37L0,158.63H88.72l11.53-43.76h68.58L157.3,158.63h88.3L287,0H198.73Zm3.49,4.53L202.21,4.53h78.9l-39,149.58H163.17l11.53-43.77H96.76L85.23,154.11H5.86l39-149.58h79.4L112.35,49.59Z"/><path class="cls-1" d="M105.49,60.21H75.87l-3,11.29H69.54l3-11.29H51.68L41,100H61.92L65.12,88h3.31L65.24,100H85.93l2-7.69c1.29,3.36,4.18,5.28,7.59,6.41l-1.84,7.14h86.85l-11.53,43.77H238.6L275.25,9.06H205.7L193.78,54.12H107.06Zm27.88,4.53-5.43,20.32a12.36,12.36,0,0,1-6.7,8.31,24.27,24.27,0,0,1-11.55,2.53c-5,0-12.38-.81-15-2.43s-3.45-4.25-2.47-7.91l5.57-20.82h11.13l-5.28,19.72q-.59,2.21.36,3.21c.63.68,4.55,1,6.33,1a9.15,9.15,0,0,0,3.83-.73,4.46,4.46,0,0,0,2.14-1.65,17.58,17.58,0,0,0,1.24-3.6l4.81-18Zm34,30.69H155.88l-2.71-11.74h-6.6l-3.14,11.74H132.9l8.21-30.69h18.76c4.62,0,6.81.83,8.92,2.49a5.76,5.76,0,0,1,2.07,6.55c-.47,1.77-.19,3.33-1.49,4.69a10.83,10.83,0,0,1-6.65,3.58ZM170.43,85l9.88,0c.3,2.48.5,3.37,4.45,3.71,4.27.37,6.55-.43,6.89-1.69.17-.66,0-2.15-.66-2.51a11.11,11.11,0,0,0-3.57-1c-6.74-1-9.71-3.55-11.26-5.21a5.87,5.87,0,0,1-1.42-5.87c.77-2.89.27-3,3.31-5.27a19.73,19.73,0,0,1,13.12-3.27c10.12.84,12.65,2.2,13,9.09l-8.67,0c-.5-2-3.15-2.49-6.37-2.49-2.68,0-4,.83-4.34,2.1a1.78,1.78,0,0,0,.75,1.72,6.56,6.56,0,0,0,2.7.9,77.08,77.08,0,0,1,9.65,2.06,7.75,7.75,0,0,1,4.22,3.06,6,6,0,0,1,.65,5.12,13.42,13.42,0,0,1-6.94,8.33c-3.8,1.92-8.37,2.11-13.7,2.11C172.34,95.9,171.05,91.22,170.43,85ZM90.66,64.74,82.45,95.43H71.14l3.19-11.94H61.64L58.45,95.43H46.94l8.21-30.69H66.66L63.64,76H76.33l3-11.29Zm135.92,6.58-6.44,24.11H210.06l6.44-24.11H205.28l1.77-6.58H240l-1.78,6.58Z"/><path class="cls-1" d="M148.33,77.13h5.25a9.39,9.39,0,0,0,3.92-.74,3.36,3.36,0,0,0,2-2.18c.53-2-.79-2.95-3.93-2.95H149.9Z"/><polygon class="cls-2" points="307.26 0 268.09 158.63 483.48 158.63 492.84 122.7 353.28 122.7 361.41 91.45 500.46 91.45 508.88 59.1 369.84 59.1 376.41 33.87 515.65 33.87 524.47 0 307.26 0"/><polygon class="cls-2" points="545.28 0 503.97 158.63 582.11 158.63 600.74 89.12 616.57 158.63 670.13 158.63 722.13 91.57 706.91 158.63 781.12 158.63 822.43 0 718.32 0 662.29 89.98 649.19 0 545.28 0"/><polygon class="cls-2" points="846.81 0 805.5 158.63 886.15 158.63 927.47 0 846.81 0"/></g></g></svg>