<svg xmlns="http://www.w3.org/2000/svg" viewBox="0 0 492.83 562.64"><defs><style>.cls-1{fill:#121212;}</style></defs><title>MOPAR Devil Horns and Tail</title><g id="Layer_2" data-name="Layer 2"><g id="Layer_1-2" data-name="Layer 1"><path class="cls-1" d="M-17007.19,285.8c-38.91-18.78-67.9-49.18-79.28-85.09a178.16,178.16,0,0,0-7.11,50,177.35,177.35,0,0,0,17.44,77,245.34,245.34,0,0,0-85.8,186.6,244.56,244.56,0,0,0,51.85,151l79.71-62.2a144.64,144.64,0,0,1-30.27-88.8,145,145,0,0,1,96.4-136.65V646.22h97.44c29.38,0,50.15,7.67,62.45,32.26,5.45,10.91-1.58,31.21-18.31,31.21-21.44,0-32.38-33.3-74.89-33.08-47.24.25-42.25,29.45-58.94,26.77-7.35-1.19-14.57-16.45-16.61-19.54-1,50-10.53,79.51-10.53,79.51a350.75,350.75,0,0,1,80-3.37s-17.87-12.91-18-19c-.23-9.16,5.25-22.9,27.42-22.9,30.17,0,37.08,25.83,66.89,25.09,43.62-1.09,51-41.83,45.44-61.8-16.14-58.43-81.23-50.06-84.86-63.45V377.61a145,145,0,0,1,96.42,136.65,144.36,144.36,0,0,1-30.29,88.69l80.06,61.91a245.45,245.45,0,0,0,51.51-150.6,245.32,245.32,0,0,0-85.79-186.59,177.42,177.42,0,0,0,17.44-77,178.16,178.16,0,0,0-7.11-50c-11.38,35.92-40.37,66.31-79.29,85.1a246,246,0,0,0-91.67-17.59A246.14,246.14,0,0,0-17007.19,285.8Z" transform="translate(17161.94 -200.71)"/></g></g></svg>