<svg xmlns="http://www.w3.org/2000/svg" viewBox="0 0 1245.96 106.6"><defs><style>.a{fill-rule:evenodd;}</style></defs><title>REDEYE</title><path d="M44.89,72c9.08,0,13.31-3.79,17.7-7.94,4.73-4.48,40.22-39.17,40.22-39.17,5.65-5.49,11.07-6.6,19.51-6.6h61.41c5.52,0,8.25.28,9.19,2.32.66,1.42,0,2.94-2.4,5.55A102.73,102.73,0,0,1,182,34.41a39.68,39.68,0,0,1-14.76,8c-6.95,2-16.49,2.14-18.33,2.14l-48.34,0a2.07,2.07,0,0,0-1.51,3.6l51.39,52.41c.79.82,6.65,6,13.77,6l37.66,0h2.24c2.11,0,2.64-2.47,1.28-3.79-.1-.1-1-1-1.13-1.14-4.31-4.38-39.75-39.3-39.94-39.49-.49-.48-1.06-1-.92-1.41a.92.92,0,0,1,.92-.58h13.82c5.76,0,16.43-.82,22.85-2.66,12.7-3.66,18.08-7.56,22.89-11.25,2.81-2.17,6.15-5,16.23-14.08C246.05,26.87,254,18,255.38,15.83c1.29-2,3.19-5.45,2-8.64C256.07,3.5,252.49,0,238.76,0c-8,0-157.35,0-157.35,0-6.23,0-11,1.3-15.38,5C63.63,7,1.18,67.69,1,67.89c-.38.43-1.26,1.58-.91,2.62A2.28,2.28,0,0,0,2.35,72Z"/><path class="a" d="M575.35,18H503.41a3.05,3.05,0,0,0-2.2.89L470,49a3.18,3.18,0,0,0,2.21,5.46h71.21q14.9,0,24.7-2.83a37.82,37.82,0,0,0,16.08-8.88l13-12.58q6.51-6.28,1.19-9.24T575.35,18ZM607.84.37q35.07,0,45.07,5.74t-3,18.25L624.5,48.93q-12.33,11.91-30.79,17.42t-46.22,5.5h-140a3.27,3.27,0,0,1-2.2-5.46L472.72,1.27a3.06,3.06,0,0,1,2.21-.9Z"/><path class="a" d="M435.36,17.78H317.53a3,3,0,0,0-2.2.89l-4.62,4.46a3.17,3.17,0,0,0,2.2,5.46H410.6a3.27,3.27,0,0,1,2.2,5.46l-9,8.69a3,3,0,0,1-2.2.89H290.76a3.09,3.09,0,0,0-2.21.89l-4.72,4.56A3.18,3.18,0,0,0,286,54.55H392.55A3.28,3.28,0,0,1,394.76,60L383.42,71a3.09,3.09,0,0,1-2.21.89H221.41a3.28,3.28,0,0,1-2.21-5.46L286.64,1.27a3.06,3.06,0,0,1,2.21-.9h158A3.28,3.28,0,0,1,449,5.84l-11.44,11A3.06,3.06,0,0,1,435.36,17.78Z"/><path class="a" d="M839.71,17.78H721.89a3,3,0,0,0-2.21.89l-4.62,4.46a3.18,3.18,0,0,0,2.21,5.46H815a3.28,3.28,0,0,1,2.21,5.46l-9,8.69a3,3,0,0,1-2.21.89H695.11a3.05,3.05,0,0,0-2.2.89l-4.73,4.56a3.18,3.18,0,0,0,2.21,5.47H796.9A3.27,3.27,0,0,1,799.11,60L787.77,71a3.07,3.07,0,0,1-2.2.89H625.76a3.27,3.27,0,0,1-2.2-5.46L691,1.27a3.06,3.06,0,0,1,2.21-.9H851.15a3.28,3.28,0,0,1,2.21,5.47l-11.44,11A3.06,3.06,0,0,1,839.71,17.78Z"/><path class="a" d="M917.37,71.85H879.8a3.27,3.27,0,0,1-2.2-5.46l18.85-18.2a3.16,3.16,0,0,0,.26-4.28l-31-38.36A3.27,3.27,0,0,1,868.23.37h49.18A3.09,3.09,0,0,1,920,1.67L938.44,26.9A3.12,3.12,0,0,0,942.05,28L1021.36.55a3,3,0,0,1,1-.18h36c3.14,0,4,5.15,1,6.18L945.9,45.94a3.16,3.16,0,0,0-1.16.71L919.57,71A3.07,3.07,0,0,1,917.37,71.85Z"/><path class="a" d="M1231.44,17.78H1113.62a3,3,0,0,0-2.21.89l-4.62,4.46a3.18,3.18,0,0,0,2.21,5.46h97.68a3.28,3.28,0,0,1,2.21,5.46l-9,8.69a3,3,0,0,1-2.21.89H1086.84a3.05,3.05,0,0,0-2.2.89l-4.73,4.56a3.18,3.18,0,0,0,2.21,5.47h106.52a3.27,3.27,0,0,1,2.2,5.46L1179.5,71a3.07,3.07,0,0,1-2.2.89H1017.49a3.27,3.27,0,0,1-2.2-5.46l67.43-65.12a3.06,3.06,0,0,1,2.21-.9h158a3.28,3.28,0,0,1,2.21,5.47l-11.44,11A3.06,3.06,0,0,1,1231.44,17.78Z"/></svg>