<svg xmlns="http://www.w3.org/2000/svg" viewBox="0 0 1088.23 773.69"><defs><style>.cls-1{fill:#121212;fill-rule:evenodd;}</style></defs><title>Retro-Demon-Logo</title><g id="Layer_2" data-name="Layer 2"><g id="Layer_1-2" data-name="Layer 1"><path class="cls-1" d="M564.7,773.69c7.64-1.27,10.56-8.8,16.51-12.91,5.28-3.66,9.11-9.89,13.53-14.64,5.3-6.84,8.29-17.64,15.76-21.66,11.87,14.81,17.91,32.19,30.69,45.79,2.49-2,7-.79,8,0,6.11-2,10.84-9.55,15.66-14.82,4.48-4.91,10.21-10,13.77-15.6,7.91-12.33,14.92-24.54,22.3-37.29,14.72-25.44,29.11-48.45,46.47-74.22,12,2.71,21.4,6.93,32.89,8.83,15.28,3.58,33.36,2.35,46.9-3.42,6-2.55,12.81-6.35,18.22-8.85s14.3-10.58,17.27-3c1.87,1.71,1.31,5.83,3.43,8-1.91,8,4,8.51,10.74,8.1,7.43-.44,13.41,0,20.65,0,14.29-.14,25.46-1.41,38.52.21,3.84-3.1,6.9-3.72,10.09-8,3.85-.18,8.5-8.17,12.47-3.73,2.23.65.35,4.38,2.29,5.71,0,7.57,7.07,5.36,13.14,5.47s12.55-.72,18.28-.6c11.78.22,27.12-.72,37.64-.76,1.1.72,2.84-1.49,4.68-.45,13.77-11.72,26-22.37,36.41-34.83,8.13-34,15.64-68.56,17-105,1.26-33.43-2-67.08-37.11-81.23-8.51-5.71-19.22-12.95-31.49-14.22-14-1.46-28.44,2.57-40.44,6-1.24-4.14-1.84-4.15-.29-6.14,1.77-2.26-.7-3.76-2.43-3.52-12.72,1.76-29.18,1.12-42.83,4s-30.13,2-41.07,8.64c.74,2.68-3,3.5-3.43,5.71-8.89,3.28-17.86-8.39-25.73-12.23-8.6-4.2-18.76-6.6-30.21-8.32-2.48-.58-6.81,1.26-8-1.14-16.63.8-34.81,4.26-50.23,11.41-1.26,1.14-3.39,3.51-5.71,3.43.19,1.34-1.37,1.19-2.28,1.14-3.52,5-9.2,8.32-13.67,12.21-3.41,3-5.16,6.09-9.17,8.34a1,1,0,0,1-1.14,1.14,38.45,38.45,0,0,1-11.41,11.42c-2.18,7.11-10,5.95-11.2-.86-1.25-7.08-3-11.06-5.25-18.38,7.81-13.46,12.83-31.85,5.57-47.2C714.1,362.66,703.65,354,691,345.25c-13.06-9.08-25.8-13.83-40.5-20.2-7.63-3.31-10.71-10.9-8.13-19.09,3-9.57.91-19,1.12-28-5.9-9.13-8.94-18.6-19.48-23.68-1.81-12.94-1.24-27-1-40.56s-1-27.5-1.41-39.49c-.41-11.8.76-25.17-.62-38.4a226.93,226.93,0,0,1-1.1-33.13c.95-14.37.25-24.72-.59-38.51-.87-14.13.42-28.41-6.21-39.1-6.45-10.24-15.81-16-26.75-17.44h-13.7c-6.18,2.24-14.26,6-18.45,11.31-5.44,8.62-6,16.29-7.81,26.37.54,1.82,2,4.87-1.14,4.56C547.93,51.14,543.43,62,545,65a134.5,134.5,0,0,1-3.94,23.6c-8.8-.62-19.39-7.4-27.72,1.32-4.48,2.22-8.44,8.33-13.88,9.28-3.6-2.83-6.14-6.66-9.66-9-18.3-34.54-53.07-65.09-87.63-81.9-3.77-1.33-8.26-4-11.33-5.2s-10.56-5.21-11.49-1.54,2.67,8.21,4.83,11.76c2.07,3.37,3.06,7.71,4.7,10.92,3.38,6.56,6.71,15.55,10.39,22.72,3.91,7.64,5.41,22.71-8.09,16.66-1.31,1.85-7.82,1.85-9.14,0H367.19c-1,1.84-7,1.84-8,0-16,3-33.16,3.26-48,13C298,85.29,286.67,94.5,276.6,107.15c-2.07,4.41-6.28,7-8.57,11.92-4.73,2.38-7.52-2.41-11.29-3.21-.47-1.72-1.5-3-2.09-4.66-11.18-5.56-18-17-26.93-24-2.27,2.72,0,7.42-1.46,8.33C224.7,110,228.61,125,228,139.36c-.15,3.47,2.12,7,1.81,10.37s1.12,7.1,1.14,10.56c.05,7.26,1.74,14.06,3.43,21.59,3.35,15,6.83,29.74,12.42,43.84.63,1.58-.81,3.86.41,4.23s1,3.37,1.77,5c1.54,3.12,3.25,5.75,4.09,9.53,1.52,6.86,5.75,12.08,8.72,18.27,1,.44-.17,1.94.62,2.52a73.71,73.71,0,0,1,7,14.17,37.71,37.71,0,0,1,3.28,3.09c12.9,23.27,31,38.91,49.88,56.45,6.83,3.9,12.28,9,18.43,13.8,21.11,15.41,45.27,23.58,71.81,25.93,2.85.61,7.6-1.31,9.13,1.14,9.65,1.15,16-2.86,25.7-1.81,8.39.9,8.81,10.24,14.08,16.5,10.6,12.59.83,26.21-6.73,38.94-3.68,0-4.12-7-5.94-9.84-5.08-2.77-11-3.1-16.83-3.84-2.13-.52-6,1.19-6.85-1.14h-6.85c-2.13-.52-6,1.19-6.85-1.14-2.13-.52-6,1.19-6.85-1.14H394.59c-2.48-.57-6.81,1.26-8-1.14H363.77c-5-.31-8.94,1.94-14.12,1.18-5,3-11.14,3.29-16.18,6.21-.8.46-1.9.27-2.5,1.2-5.54,3.62-11.18,6.7-16.43,11.14s-7.13,12.61-13.28,14.82c-6.44,2.31-11.11-8-16.83-10.8S273.93,429.3,268,427c-34.07-29.89-72.55-48.37-111.39-66.78C136.19,350.6,115.09,343,95,335.07c-10.22-4-21.77-8.51-32.24-11.73C52,320,40,311.74,28.19,318.36c-1.5,4.87-7.25,7.56-10.12,11.95A62.38,62.38,0,0,1,7.72,342.72c-9.4,8.86-8.62,20.44-6,31.39-.84,13.41,2.36,26.81,3,40.28a262.48,262.48,0,0,0,5.69,41.18c9.57,3,19,1.05,27.8,6.57.87,18.05,7.31,38.08,2.77,55-1.93,7.17-10.81,10.61-15.92,16.66a97.8,97.8,0,0,1-15.93,15c-.38,2.11-.81,3.87-2.88,5.41,5,9.68,8.75,19.66,13.26,29.46.81,1-.33,1.54,1.67,2.77,9.25,17.69,21.83,41.43,43.69,47.36,26.1,7.09,52.81,5.76,82,6.33h12.55c22.43.41,40.48-3.27,59.82-9.31,17.44-5.45,31.31-17.55,49.38-22.21,10.17,12.5,21.12,20.59,35.2,27.2,15.57,6.14,32.88,8.26,51.4,7.89a244.13,244.13,0,0,0,27.93-1.83c4.38-.59,8.92-1.61,13-1.7,3.71-.08,11.33-1.16,8.74,3.39-.21,2.19-1.21,4.9-3.43,5.7v1.15c-1.6,1.5-1.88,5-4.56,4.56,1.52,12.11,10.56,21.26,15.73,31.82,5,10.13,11.52,19.92,16.85,29.82a390.29,390.29,0,0,0,37,56.64c10.86-7.44,20-17.8,31.68-25.59s16-22.28,25.6-30.4c8.93,9.43,11.46,19.74,18.39,29.12,3.41,4.61,5.43,9.88,8.73,14.12,3.52,4.55,5,12.64,11.54,12.06C565.16,770.54,568.28,771.63,564.7,773.69ZM503.05,728c-11.89-15.14-20.74-32.86-31.54-49-5.55-8.31-10.18-17.11-15.41-25.73-2.64-4.36-4.34-8.52-7.73-13.09-3.62-4.88-4.49-10.16,4.45-8,3.5,1.88,12.47,1.88,16,0,1.11-31.46-2.37-74.8-3.62-105.88-1.21-30,.05-71.24,14.36-99.27,20-26.38,48.86-36.25,79.16-39.3.89-4.21-.34-8.84.62-12.64.37-5.28,5.72-7.22,9.94-4.35.08,6.24-.16,11.48.12,18.33-22.9,3.93-44.17,8.24-63.16,22.13s-25.16,36.18-25.62,59.63c-1.07,54.78-.87,112.83,3.47,164.37-8.25,1-10.53.89-19.2,2.55,5.05,11.59,12.56,23.27,19.91,33.61s12,22.21,22.08,32.1c14.4-22.71,25.8-45.3,38.89-68.4-8.23-1.47-15.13,0-23.09-.73a12,12,0,0,0-1.18-4.53C519.86,600,516,568,517.61,537.86c1.43-27.22-3.54-59.85,22.82-74.45,2.64,2,4.88.54,7.3.71,12.72,4.92,16.41,18.88,18.66,31.46a228.47,228.47,0,0,1,3.86,43.54c-.5,30.61,1.66,62.73,1.33,93.86-6.53.12-10,1.14-16.53,1.92,12.27,22.1,24.17,40.67,38.34,63.12,16-18.6,23.92-43.24,37.93-63.8-6.68-4.76-12.34-1-21-.89-3.08-30.32-2.77-61.91-3.35-93.08-.3-16-.58-32.74,1.43-47.83.87-6.54,2.16-13.18,5-18.75,2.5-4.86,7.29-7.15,12.32-11.69,32.69,7.64,29.7,46,30.79,72.28,1.19,28.81-1.83,64.35-.29,95.82-6,2.54-8.52,1.77-14.2,2.36,11.75,22.76,21.28,42.87,35.73,65.57,16.22-18,25.14-42,39.33-61.61,1.23-1.63.36-3.41.43-5.32-5.87-.2-11.6-.05-17.45-.08-1-1.37-2.44-.9-3.71-2.26,1.58-52.88,3.36-108.74.11-161.7-1.38-22.58-10-44.64-30.22-55.79-20.68-11.37-40.61-16.49-64.52-19.49a71,71,0,0,1-1.66-19.92c4.89-1.23,9.87-3,15.54-1.76,1,5.52-2.11,9.88-.33,16.14,23.39,4.68,45,8.09,65,21.51,18.77,12.58,28.84,32.94,30.54,55,2,26.29,4,53.41,3.76,80.09s-3,54.21-3.6,80.69c4.65,2.14,9.68-1.11,12.4,1.81,1.32,1.85,7.83,1.85,9.14,0,9.48-1.82,3.06,6.35.74,10.85-2.15,4.14-5.82,8.66-8.2,13.15-4.68,8.86-10.33,17.69-16,26.21-5.77,8.74-10.11,18.5-16.2,26.92s-9.44,19.33-17.69,24.85c-14.93-23.9-25.17-47.52-38.6-71.65C622.56,679.1,608,701.17,594.53,725c-16.14-19.63-27-42-43.71-61.3C534.88,684.8,525.9,708.8,507.61,728ZM356.92,609.3c-14.24-1.14-26.36-4.85-37.32-14.76-10.71-9.69-11.88-23.1-15.68-35.91C278.28,581.51,249.24,588,218.3,593.4c-18.16,3.16-37.7,5.11-57.07,4.39-19.73-.74-41.46,2.42-58.9-2.19,4.68-.22-1.47-2-3.65-2.69s-4.8-3.47-7.76-3a1,1,0,0,1-1.15-1.14c2.16-.66-2.56-5.12-4.56-4.57-3.47-1.58-4.07-5.82-7.39-8-6.49-12-13.28-23.74-17.73-36.53,1.78-.46,5.21,1.08,5.71-1.14,4.33.68,10.7-1.42,13.7,1.14-9.16-.58,1.16,3.29,3.42,0,8.15-1.55,17,2.68,23.63-.18C98.27,500.87,91.24,462.21,88.48,420c-9.17-2.56-18.37-3.83-27.84-6.62-3.12-24.39-7.55-47.91-7.33-73.64,7.92,2.21,15,4.44,21.62,7-5.16.54,3.68,2.21,5.71,2.28,47.63,12.72,91.32,36.38,135.08,57.53,37.09,24.16,94.58,56.71,97.93,109.46,6.45-2.35,9.88-5.65,14.74-9.89-2.49-3.65-4.56-8.14-8.7-10.65C311,478,316.92,456.39,331.84,444.6a67.07,67.07,0,0,1,41.06-11.12H382c20-.41,38.66,2.2,57.09,5.74.1,11.82-.19,22.26.12,33.71.05,1.84-1.07,3.61-2.79,2.82-4-1.84-16.9-1.78-19-2.31-12.89.84-27.57-2.61-38,4.19a10.3,10.3,0,0,0-1.83,8.53c10.64,8.36,31,7.39,44.39,7.83,8.6-2.42,6.3,6.4,7.41,11.49s1.11,11.78-1.4,16.47c-17.52,3.74-36,4.57-51.71,12.5a56.23,56.23,0,0,1-5.15,5.1c-1.11,3.09-2.31,3.74-3.37,7.94,26.63,12.53,59.15,2.48,84.12-4.38,1.11-.31,1,1.85,1.07,3.08.43,12.86,2.64,27.42-.65,40.95-27.05,8-51.22,22.58-81.69,22.16ZM1011.08,591c-6,3.77-6.9-1.65-6-6.27,1-5.14,1.58-10,2.19-15,1.2-9.83,2.85-20.54,3.27-29.75.86-18.71,5.45-43.71-3.1-61-3-2-4.25-4.1-6.71-6.26-1.55-.83-3.77-1.69-5.14-2.63a37,37,0,0,0-22,3.94c-13.71,7.91-6.51,28.4-9,38.22-1.17,24.22,1,51.3-1.36,77.65a260.56,260.56,0,0,1-53.51-.27c-1.86-11.6-1.7-24.75-2.28-35.19-.64-7.47,1.55-12.37.87-21.47-.16-2-2.17-1.06-2.58.37-6.41,21.82-22.9,44.24-44.07,54.52-24.63,12-59,12.16-82.38-.35,2.2-1.85-4.26-4.19-6.85-3.43a22.15,22.15,0,0,1-6.84-4.57c2.36-.9-2.45-4.55-4.57-3.42-5.66-3.87-9.77-10-14.13-14.85-2.43-3.47-3-7.32-6-10.53.25-.23-2-2.65,0-1.85-28.46-48.08-1.39-109.81,46.82-128.11,26-9.88,57.29-9.8,80.85,5.39,20.61,13.29,33.14,37.58,39.77,59,.43,1.4,2,2,2.07.3,1.2-22.3,2.78-43.13,5.79-64.66,15.65-3.21,30.25-5.61,46.78-5.77.84,6.07-1,8.87-1.19,14.44-.19,5.26.63,9.65,5.93,5.1,3.31.28,6.31-2.25,8-4.57s4.68-4.85,8-4.57c2.23.27,4.82-.63,5.71-2.28,23.1-11.48,55.21-5.88,70.75,17.58a64.26,64.26,0,0,1,6.32,7.91c10.54,21.12,7.69,47.44,5.27,72.22a242.12,242.12,0,0,1-16,67.1c-10.9,2.91-27.26,3.34-37.77,3C1017.3,589.21,1011.71,589.21,1011.08,591Zm-443-336.78c-4.12.91-10.29,4.81-10.83-1.32-.48-5.49.57-7.39.4-11.92-.37-10.13-1-16.9-1-27.11-.12-22.47-.07-43.64,1.24-65.26,2.48-40.86.59-79.07,9.11-118.45,3.08-1,4.34-4.59,6.84-5.64,7.89-6.95,19-3.88,26.88.59,1,1.71,2.19,4.06,5,5.06C615.43,59.72,613,91.59,614.3,124c2.24,41.54-1.14,87.73-.47,128.43-5.33,2-9.29-.06-13.74-.46,0-36.91,1.8-72.64,1.23-109.23-.56-36.2,1.58-74-7-107.14a74,74,0,0,1-8.43-3c-4.06,1.72-6.77,1.24-11.14,4.62-6.78,33.27-4.57,72.25-5.91,107.51S568.41,217.58,568.12,254.25ZM344,229.22c-4.39-.09-7,.17-10.77-1.86-17.5-6.56-30.89-31.91-20.23-49.76,13.41-1.14,19.36,5.67,27.28,14.4-4.86,11.35-2.76,25.66,4.41,35.28C345.29,228.15,345.38,229.24,344,229.22Zm35.8-27.49c4.66.66-1.24-5.23-3.42-4.56-7.22-7.46-8.94-18.77-7.84-30.14a13.56,13.56,0,0,0,2.41-7.3c3.37-4.55,8.77-3.82,13.81-3.51a43.54,43.54,0,0,1,15.08,11.31c1.93,4.5,4.77,9,5.21,14.19-2.94,2.51-3.5,5.23-5.79,7.83.75,1.79-1.49,3.24-.92,4.61,0,5.93,3.34,10.46,3.09,16.4C393.35,213.87,385,208,379.75,201.73Zm454.9,336.18c24.27-5.31,26.13-44.13,8.66-57.72C826.86,464.72,796.94,473.35,791,495c-1.11,12.82.54,26,9.52,35.57C809.25,539.81,822.31,540.61,834.65,537.91ZM196,537.37c2.38-.77,3.54,1.41,5.7,1.15,8.86-2.33,18.7-2.26,26.88-6.24a14.72,14.72,0,0,0,2.3-.91c18.54-10.07,14-32.95,1.65-46.51.05-1.48-2.33-1.95-2.28-3.43-9.66-7.61-19.19-15.54-29.59-21.34-11-6.11-21.46-13.36-34.08-15.36-1.08,18.14.66,34.23,1.8,51,.56,8.12,1.57,16,2.67,23.77.46,3.28.79,5.52,1.07,9.05.32,4.07-.14,9.35,4.47,8.77Zm348.2,87.91c5.42-.17,10.24.35,16-.26.18-27.56-2.41-55-2.75-82.15-.16-12.85-1.17-24.58-1.81-38.1-.33-6.95-.22-13-2.81-19.28-2.15-5.24-9.27-6.36-13.41-3.17-9.34,20.87-6.36,45.16-5.73,67.22.35,12.21.18,27,.18,39.82,0,5.94-.1,12.54,1,17.32s-2,14.08,2.42,17.46C539.43,624.66,543.32,623,544.15,625.28Zm89.65-1.12c3.7.26,6.54-.67,11,.49,1.37-25.49,1.27-48.18,2.08-72a242.06,242.06,0,0,0-2.43-39.9c-1.53-10.92.84-24.07-9.69-31.9s-14.38,12-13.51,23.33c.94,12.25,1.13,24.79,1.44,37.41.67,26.66-.2,55.28.31,82.22C626.78,624.55,630.07,623.89,633.8,624.16ZM363.09,594.35c11.26,1.16,20.85-.75,30.87-2.31,17.5-2.73,32.94-9.12,49.21-15.61.59-7.66,2.15-15.67-1.08-22.9-28.72,4.18-62.83,17.29-86.75-1.9C351.93,538.55,360,529.3,371,523.2c8-4.66,17.8-5.63,26.75-8.2,8.12-1.26,17.28,0,24.15-4.18.31-3.24-.2-3.86.24-8.37-15.91-6.47-37.07,1-51.44-9.47-6.35-3.33-12.51-11.71-7.53-20.09.22-1.7,1.9-2.56,2.42-4.17,18-12.05,42.87-5.92,63.9-5.54,1.29-6.94,4.58-15-2.57-20.49-32.82-2.68-82.52-14-99.53,19.83-2.53,8.87-3.8,17.75.63,26.11,1.14,6.74,8.79,12,11.65,17.56.76,1.49-.72,2.9-2,3.71-11.68,7.26-26.18,22.25-24.31,40.35,1.84,17.83,13.63,32.4,26.61,39.16,2,1,5.1,1.3,5.72,2.58.53,1.1,2.23,1.3,4.88,1.46C355.85,593.77,358.14,593.84,363.09,594.35Zm-193-7.09c13.39-1,28.73-1.85,41.54-3,22.87-2,43.8-9.7,65-22.88,20.6-12.8,30.5-37.94,23-61.22-18.45-43.83-61.85-70.27-99.3-92.54C180.94,396.12,156.34,386,135,377.19c-11-4.52-23.55-9.51-34.64-13.1-3.19-1-4.93-3.25-9.33-3.37-3.85-.1-3.26-2-6.47-2.51-6.76-1-11.75-5.24-19.53-4.74-2,.12-2.57.59-2.77,2.77-.7,7.74,1.44,10.92,2.19,17.28.85,7.26-.4,14.49.23,21.73.54,6.23,9.49,5.84,13.77,7.71s11.77,1.79,16.07,5.28c5.58,5.35,1.93,15.84,3.67,24.14,2,9.4,1.65,19.39,2.78,29.15,2.22,19.35,3.59,38.33,7.75,56-.69,9.9,4.47,17.29,2.2,27.31-4.51.86-9.53,1.23-12.74-1.85-7.63.31-15.1-.33-22.74.28-1.36.11-1.48,1.49-1,2.69,4.86,11.37,7.64,22.21,15.46,31.29,8.17,9.47,23,9.11,35.53,9.71C139.61,587.66,156,588.33,170.07,587.26Zm53.84-46.63c-19.53,4.86-43,8.85-64.19,6-2.9-24.7-5.1-44.66-5.47-69-.18-11.9-1.13-22.49.82-33.2.51-2.8-.93-6.36-.14-9.3s-2.68-6.67,1.44-6.44c3.77.22,5.5.22,7.43,1.85s5.26,1.28,7.77,2.47c17.47,8.3,34.85,17.46,47.88,27.39,12.46,9.5,30.1,21.6,35.39,39C259.72,520.68,241.94,536.14,223.91,540.63Zm587.2,44.15c27.31,1.86,52.64-9.84,67.5-29.24,3.55-4.64,7.73-10.68,9.85-16.32,2.36-6.3,3.69-12.54,5.3-19,3.27-13.2,5-29.18-.68-42.71-9.69-23.2-20.64-41.8-43.81-51.22-20-9.09-46.12-5.23-64.55,3.06-25.57,12.84-38.82,39.27-41.09,65.49-2.37,18.73,1.56,35.56,7.57,51C762.48,568.92,785.14,583,811.11,584.78Zm8.94-33c-12.28-.95-25.62-3.73-31.6-13.85-2.89-4.89-7.06-8.65-8.92-14.2-2.09-6.25-2.09-12.64-2.54-20-1.65-26.71,19.8-45.32,45.47-46.53C848.36,456,866.6,481.41,864.2,506c-1.23,12.54-4,23.14-12.36,32.5C843.83,547.43,832,552.69,820.05,551.77ZM941.27,582c3.28-1.71,4.81,0,10.59-2.25,0-32.47-.58-70.77,1.43-106,8.76-9.14,20.35-13.9,32.43-15.48,13.5-1.77,24.22,5.66,31.52,17.47,8.31,14.89,5.66,34.78,4.14,51.22s-4.13,34.72-7.17,51c10.53,2.32,18.51,1.44,29.37,1.75,8-21.16,11.68-39.08,14.76-59.18,3.27-21.32,5.82-46.37-2.07-65.73a48.28,48.28,0,0,0-46.78-29.65c-21.32,1-37.71,11.78-55.45,23.08-1.06.67-2.3-.25-2.38-1.58-.44-7.21,1.21-14.28,1-19.61.67-1.5-1.87-2.59-.88-3.4-8.93-2-13.56,1-21.63,1.2-7.84.24-9.55,6.21-9.85,13.16-.67,15.76-3.7,30.42-4.24,46.16-.56,16.29-.71,32.8-1.2,49-.46,15.21-1.82,31.08,1,44.94.32,1.6.08,2.53,1.9,2.8C926.37,582.23,932.6,580.93,941.27,582ZM710.55,414.36c-6.23-7.53-15.09-17.73-25.52-21.07-17.94-10.94-38.72-15-58.88-20.58,0-7.9,1.05-10.17-.62-17-17.29,4.51-35.1,9.54-54.53,4.95-7.44-.52-25.19-6.35-20.31-17.36,5-11.23,21.25-4.81,30.58-7.31,1.32-1.87.09-4.91.63-7.24-10-3.95-21.42,0-30.26.93-9.51-6.65-6.78-16.67-.12-23,7.24-6.89,17.24-6.55,26.25-9.26,1.27-.38,3.09,1,3.12-1.41.05-3-1-2.6-2.94-2.86-10.56-1.42-18.33,2.86-27.89,3.36-4.89-4.86-3.65-12.19,1.13-16.43s10.89-5.34,16.6-7.45c12.59-4.67,27.82-5,41.47-2.13,12.53,2.62,25.28,10.94,24.69,24.94s-2.51,25.43-8.41,37.56c32.31,12.81,72.41,25.93,90.26,61.42-1,7.06,1.25,14.55-5.25,19.95ZM535,320c.35,2-2.63,3.31-4.24,2.13-6.85-5-7-17.06.13-22.72,3.71-2.94,8.53,2.59,5.49,6.76-3.29,4.51-2.22,9-1.38,13.83Zm-25.18,63.63c10.84-3,21.22-7.56,32.94-8.54.35-.95,2.13-1.65,1.76-2.3,6-13.41-12.9-22-5.27-33.87,1.33-2.08,2.37-5.33.11-5.2-11.43.63-21.7-5.13-24.61-16.71a33.29,33.29,0,0,1,0-10.35c2.46-12,18-12.69,15.65-26.74,2.47-3.81,4.49-10,9.6-12.2,6.18-2.67,5.14-11.12,5-17.06C536.83,231,526,215.33,517,196.46a2.1,2.1,0,0,1,2.3-3.09c16.17,3,27.08-8.06,26.25-23-.91-16.54-.1-30.5,1.46-47.07,1.36-14.51-16.89-23-27.32-12.55-4.87,4.9-6.33,8.83-9.2,14.52a78.84,78.84,0,0,0-3.81,9.08c-1.16,3.07-4-1.19-5.37-3.49C479.1,92.66,447,56.72,409.63,29.42c-1.12-.82-2.11.57-1.62,1.79,7.56,19,24.23,35.65,26.38,56.1-30.21-3.4-61.36-8-91.33-2.28-32.36,3.56-60,31.35-70,61-7.4-4.43-13.05-10.3-19.41-14.75-1.06-.74-4.53-.33-4.35,1,8.94,67.48,23.34,132,69.1,182.74,21.28,23.57,48.24,40.35,77.88,47.6,17.63,4.31,37.36,7.4,56.1,1.69,8.28-2.52,12.18,6.7,16.56,13.54,4,6.29,8.16,11.73,12.5,19.23C491.68,395.38,499.68,386.44,509.83,383.61ZM451.4,298.9c-12.29,15.22-32.91,26.66-51.73,14.11-1.09-.72.34-2.3,1.3-1.86,8.34,3.83,20.83,3.37,28.85-.44,9.95-7.12,14.29-17.17,19.12-27.31,3.91-10.33,7.2-21.11,6-33.6a14.37,14.37,0,0,1-6.77-8.26c.8-.81,1-2.2,1.91-3.27,7.77-11.3,29.85-.17,25.94,11.9C463.77,263.86,463.25,284.23,451.4,298.9Zm-58.49-12.47c-7.47,10.73-21.1,18.33-34.08,16.71-9-4.46-8.63-12.45-7.87-20.94.84-9.35.71-18.43,4.38-26.41,1.63-3.55,2.93-7.16,4.67-10.53.83-1.62,1.69-3.7,3.36-4.48,1.94-.91.5,3,.12,5-1.49,7.82-5,16.67-5.49,24.93-.5,8-2.27,16.06,3.18,23.48,5,6.85,15.16,2,19.67-4S390,277.87,393,271s4.92-13.83,9.48-21C412.27,263.83,400.44,275.62,392.91,286.43ZM337.06,236.7c-14.89-3.28-26.32-17.31-31.13-31.1-2.76-7.92-5.49-17.48-2.33-26,2.94-8,13.45-11.13,20.71-8.24,13.18,5.24,25,19.19,30.35,32.1,3,7.43,7.41,16.06,5,25S345.44,238.54,337.06,236.7ZM480,229.47c-9.05-4.69-19.66-6.91-29.55-3-1.46.57-2.83-.41-1.69-1.78a19,19,0,0,1,9.43-6.6C467.76,216.11,479.77,217.86,480,229.47ZM414.3,211.88c-5.68,7.79-18.13,9.68-25.6,5.48-17.81-7.59-23.81-23.34-27.27-40.48-3.64-18,14.83-38.93,32.27-22.66,9,4,15.27,15,19.34,24.15C417.54,188.55,420.66,201.07,414.3,211.88ZM329,161.74c-7.92-9.25-18.23-13.59-27.64-17.1-1.35-.5-1.65-1.69-.17-2.75,6.22-4.43,11.73,1.9,17.26,4s12.16,6.19,13.77,12.87C332.65,160.47,330.24,163.16,329,161.74ZM358.91,146c-3.61-1.32-4.62-2.42-8.66-3.22-.46-9.05,2.36-17.44,4.82-25.5,2.69-.33,4.17,1.19,6.21,2.39.89,2.57-1.06,4.39-2,6.29C358.9,132.62,359.63,139.33,358.91,146Z"/></g></g></svg>