<svg xmlns="http://www.w3.org/2000/svg" viewBox="0 0 738.82 212.71"><defs><style>.cls-1{fill:#121212;fill-rule:evenodd;}</style></defs><title>RT Logo</title><g id="Layer_2" data-name="Layer 2"><g id="Layer_1-2" data-name="Layer 1"><path class="cls-1" d="M736.21,118.87H426.79c-2.3,0-3,.75-4.76,2.28l-6,6.19c-2.09,1.93-.68,4.63,2.17,4.63H526c2.21,0,3.34,1.32,1.65,2.73l-64,64.62a3.07,3.07,0,0,0,1.9,5.42H572.08a7.52,7.52,0,0,0,5.26-1.87l66.94-69.09a7.26,7.26,0,0,1,4.91-1.81h77.26a7.13,7.13,0,0,0,5.16-2.1l6.42-7.52C739.7,120.71,738.54,118.87,736.21,118.87Z"/><path class="cls-1" d="M87,8.5l280.76.35c26.05,0,30.24,1,33.61,5.85S404.77,25.35,393,37c-14.25,14.1-20.1,15.34-43,16.54l-28.49,1.61c-4,.21-4.54,4.25-.84,6.76l39.74,29.43c2.59,1.76,2,5.55-.8,5.55h-123L193.72,64.58c-1.85-1.46-2.33-3.83-1-5.16l2-2.73c2.75-2.84,5.36-2.11,9.91-2.18l53-1.3c5.55-.09,9.8-2,12.81-5.74l16.23-17.55c2.51-3.11-.42-7.1-5.05-7.1H184.5a8,8,0,0,0-6.14,2.42L113,93a8,8,0,0,1-6.24,2.42S4.87,94.34,3.25,94.34c-3.6,0-4-1.77-2.13-3.81l79-79.31A9,9,0,0,1,87,8.5Z"/><path class="cls-1" d="M613,0H574.55a27,27,0,0,0-10.72,2.76L172.5,210c-2.87,1.52-2.73,2.76.31,2.76h38.44A27.21,27.21,0,0,0,222,210L613.3,2.76C616.17,1.23,616,0,613,0Z"/></g></g></svg>