<svg xmlns="http://www.w3.org/2000/svg" viewBox="0 0 395.57 324"><defs><style>.cls-1{fill:#121212;fill-rule:evenodd;}</style></defs><title>Scat Pack (Bee) logo</title><g id="Layer_2" data-name="Layer 2"><g id="Layer_1-2" data-name="Layer 1"><path class="cls-1" d="M-9186.55,639.54s33.7,35,2.83,98.4c-11.87,24.36-49.29,25.24-67.69,26.83-20.1,1.74-117.53,1-117.53,1s-21.53,10.93-30,11.92-62.31,2.49-81.28,2-45-3.48-56.93-6.46-12.08-3.62-12.75-9.94c-.86-8.17,2.74-1.58,2.27-22.36-.65-28.95,12.13-47.48,33-73.08s30.16-29.3,34.69-33.77c-25.74-6.56-9.21-24.3.69-26.5-1-5.11-3.76-7.67-5.47-20.34-2.36-17.48-1-26.68-2.34-44.77-1.23-17.12-9.32-22.45-9-25.17S-9470,534-9470.71,532.7s-40.6-60-38.53-69.55c1.77-8.16,40-13.6,80.9,6.35s67.76,72.4,70.41,77.32a264.4,264.4,0,0,1,47.69,3c2.21-5-6.5-4.4-6.35-15.54s27.9-58.42,41.33-62.95c8.68-2.93,30.71.26,43.55,15s13.44,29.92,13.44,34.72c15.94,1.55,59.49,16.06,63.48,57.12s-32,58.41-32,58.41Zm-103.93-16c1.68,3.94-5.57,5.87-.94,11.34,12,14.13,51.32,15.77,46.64,14.79a210.66,210.66,0,0,1-24.82-7.24c-9.86-3.51-16.49-10.05-16.95-11.33-.94-2.63,1.12-5.59,3.93-6.25s2.25.82,1.69,4.27,14.23,8.55,24.91,11.34,22.48,3,29.59.66,11.24-15.45,6.75-21.36-12.55,3.45-46.83,3.45c-7.92,0-14.69-1.06-18.65-3.39-9-5.29-8.88-14.45-7.2-13.54,2.44,1.32,3.19,5.75,9.18,6.08s2.62-5.42,9-5.58c4-.11,6.18,8.05,12.55,8.05s19.86-5.1,24.16-6.41,26.88-10.93,36.37-.44-14.59,42.74-29.54,57.09-37.81,32.71-66.48,37.5c39.75-15.74,57.51-38.89,57.51-38.89s-25.95,15.24-54.61,15.24-26.22-.5-34.27-2.14,1.87-9.37-.19-30.07S-9350,617.48-9348,611.4s3.18,3.12,18.91,3,16.86-1,21.36-3-22.14-8.54-25.29-25.15c-.75-3.94,8.43,4.11,18,5.59s13.86,1,15.92,3.62.56,10.19,2.81,17.09S-9292.17,619.61-9290.48,623.56Zm-164.78-76.36s-17.76,6.11-22.86,20.17c-5.35,14.8,2.54,37.51,3.45,38.66,3.58,4.6-2.76-18.72,8-34.91,7.47-11.25,23.55-15.83,23.55-15.83Zm20.71,76.48c-10.24.81-22.65,8.18-31.1,14.08a176.73,176.73,0,0,0-32.08,28.43,179.79,179.79,0,0,0-22,29.94,91.53,91.53,0,0,0-8.46,19c-1.68,5.31-3.07,12.52-1.08,18,1.58,4.5,6.4,7.68,11.75,8.07s12.08-1.28,17.29-3.4a110.44,110.44,0,0,0,19.89-11.16,161.93,161.93,0,0,0,31-26.92c8.39-9.25,16.52-18.17,22.66-28.72,3.53-6,6.74-12,8.76-18.57,1.65-5.33,3.86-14.39,1.87-19.88C-9419.12,624.29-9427.44,622.77-9434.55,623.68Zm6.07,8.38c4.1,3.16,4.67,9.14,3.68,13.85-3.73,17.37-16.33,35.24-29.32,49.65s-32,31.87-52.74,37.47c-3.6,1-10.45.64-13.89-1.19-4.23-3-3.26-11.16-2.25-15.79,4-18.07,16.35-32.15,29.47-47a177.14,177.14,0,0,1,27.2-24.85c9-6.7,16-10.84,27.15-13.48A14.19,14.19,0,0,1-9428.48,632.06Zm205.44-38c20.6-1.32,52.69-7.61,61.09-27.72a82.43,82.43,0,0,1-24.73,16.06,99.77,99.77,0,0,1-13.71,4,162.38,162.38,0,0,1-23.11,3.16c-22.44,1.74-46.06,1.38-66-8.93a2.8,2.8,0,0,0-3.55.8,2.13,2.13,0,0,0,.92,3.12,88.24,88.24,0,0,0,30.89,9.2A191.73,191.73,0,0,0-9223,594.05Zm29.82,12.29c-3.62,1.27-3,5.47,1.64,4,17.35-5.46,27.88-14.6,31-28.24a78.27,78.27,0,0,1-21.66,19.17A51.72,51.72,0,0,1-9193.22,606.34Zm-202.17-15.55c1.09,1,2.45-.1,1.49-3-.28-.86-.54-1.91-.75-2.84a5.4,5.4,0,0,1,1.62-4.18c4.83-5,12.94-7.13,20.17-8a46.34,46.34,0,0,1,13.91.53,23.74,23.74,0,0,1,6.68,2.32,6.58,6.58,0,0,1,3.82,4.46,26.33,26.33,0,0,1,.32,3.65c-.12,2.51.94,4.24,2.49,2.13,3.11-4.21,2.23-9.64-2.83-12.8a24.69,24.69,0,0,0-7.76-3.29,50,50,0,0,0-17.2-1,50,50,0,0,0-14.85,3.78,26.76,26.76,0,0,0-7,4.31C-9400.5,581-9400.32,586.51-9395.39,590.79Zm-41.47,7.75c1,.57,1.81-.37.65-2.45-.34-.6-.7-1.37-1-2a3.91,3.91,0,0,1,.57-3.32c2.85-4.3,8.59-6.85,13.87-8.31a35.18,35.18,0,0,1,10.48-1.25,18.85,18.85,0,0,1,5.34,1,5.34,5.34,0,0,1,3.54,2.89,18.62,18.62,0,0,1,.79,2.69c.3,1.89,1.36,3.06,2.2,1.3,1.68-3.51.19-7.47-4.07-9.24a19.29,19.29,0,0,0-6.31-1.55,38,38,0,0,0-13,1.28,36.43,36.43,0,0,0-10.52,4.57,18.88,18.88,0,0,0-4.56,4C-9442.18,591.82-9441.21,595.91-9436.86,598.54Zm-28.4,13.25c.76.28,1.21-.49.06-1.8-.33-.38-.7-.87-1-1.3a2.81,2.81,0,0,1-.13-2.4c1.3-3.36,4.91-5.86,8.37-7.55a24.54,24.54,0,0,1,7.14-2.17,13.77,13.77,0,0,1,3.9,0,4.11,4.11,0,0,1,3,1.59,17.64,17.64,0,0,1,1,1.78c.51,1.29,1.44,2,1.74.64.61-2.67-1.07-5.26-4.34-6a14.35,14.35,0,0,0-4.67-.31,26.54,26.54,0,0,0-8.91,2.52,24.58,24.58,0,0,0-6.63,4.51,12.75,12.75,0,0,0-2.54,3.4C-9470.07,607.74-9468.72,610.49-9465.26,611.79Zm-20.21,15.48c.68.12.91-.57-.28-1.48-.34-.26-.74-.61-1.08-.92a2.39,2.39,0,0,1-.55-1.94c.44-2.94,2.93-5.5,5.46-7.37a19.2,19.2,0,0,1,5.44-2.8,11,11,0,0,1,3.19-.55,3.59,3.59,0,0,1,2.7.88,13,13,0,0,1,1.14,1.32c.66,1,1.55,1.41,1.55.27,0-2.27-1.85-4.15-4.66-4.26a11.72,11.72,0,0,0-3.87.42,20.59,20.59,0,0,0-6.83,3.33,18.85,18.85,0,0,0-4.59,4.63,9.58,9.58,0,0,0-1.45,3.15C-9490.15,624.64-9488.54,626.7-9485.47,627.27Zm180.07-71.75c-13.39-2.54-28.54-4.56-40.18-4.74a26.6,26.6,0,0,0-9,1l2.32,6.38c3.33-.94,10.64-.44,13.74-.29a289.23,289.23,0,0,1,43.75,6.82l2-6.46c-2.78-.66-5.77-1.31-8.88-1.94a5.28,5.28,0,0,0,3.08-5.07c0-2.93-1.94-5.3-4.34-5.3s-4.34,2.37-4.34,5.3A5.71,5.71,0,0,0-9305.4,555.52ZM-9439.24,558c-15,7.23-26.29,19.08-26.1,38l5.3-2.3c.44-14.22,11.58-26.45,25.22-33ZM-9454,591.73l6.59-.49c1.49-11.87,10.66-19.11,21.31-25.21l-5.4-3.46C-9443.29,569.29-9452.32,577.5-9454,591.73Zm16.14-11.43a71.75,71.75,0,0,1,23.68-7.36l-8.39-4.77S-9436.17,576-9437.89,580.3Zm-25.11,68,17.13,26.93s-6.85,15-32.48,36.31c-3.67,3-30.83,26.09-39,14.67s13.62-38.68,17.67-44.13C-9486,663.64-9463,648.25-9463,648.25Zm-44.8,25.58c-10,10.22-44,56.92-23.43,70.92,24.24,16.51,65.4-22.1,75-31.72-35.47,27.8-59.88,38.87-72.57,27.21C-9543.14,727.05-9519.85,690.82-9507.8,673.83Zm54.83-53.58c2.85,0,29.66-14.61,47.12-2.26,5.77,4.08,5,20.79-3.38,43.84s-49.56,62.37-46.31,62.25,29.38-24.59,46.85-46.81,14.76-29.34,23.15-41.93,28.84-15.92,30.06-16.63-18.82-8.91-50.91-9.74S-9455.81,620.25-9453,620.25Zm115.77,68.55c3.52-12,.68,17.46-9.34,34s-23.43,31.6-28.3,32.79,10.7-13.42,20.58-30.29C-9349.9,717.83-9343.16,709.11-9337.2,688.8Zm96.32,30.17c6.83-8.06-5.6,13.29-18.9,23s-28.63,17.42-32.71,17,12.73-7.2,26-17.2C-9260.57,737.35-9252.46,732.62-9240.88,719Zm51.44-74.79c-2.27,0-15.91,10.27-16.37,13.8s-.53,2.2,2,2.56,19.92-7.36,19.57-10S-9187.17,644.23-9189.44,644.18Zm-40.71,57.24c-1.42,5,6.26-3.82,9-11.53s8.19-17,2.83-18.8-3.74,6.77-6.65,14.54A155.6,155.6,0,0,0-9230.15,701.42Zm-41.39-75.65c.11-1.12,13.29.65,24.56-.47s22.65-7.27,24-2.23-1.06,6-3.72,6.62-14.35,1.21-22.22.47S-9271.88,629.4-9271.54,625.77Zm-1.59,4c.3-1.09,5.63,1,25.3,2.4s24.14-2.33,23.07,2.61-2,4.76-4.76,5-16.2-.24-23.84-2.06S-9274.12,633.35-9273.13,629.81Zm-66.43-41.6c-1,3-4.1,11-3.24,13s11.14,9,17.43,9.36,14.29,1.33,4.57-4.26-13.71-10.45-15-14.29C-9336.87,588.58-9337.56,582.28-9339.56,588.21Zm50.66,12.13a24.11,24.11,0,0,1-2.48-8.12,1.86,1.86,0,0,0-2.09-1.49,1.74,1.74,0,0,0-1.7,1.84,27.35,27.35,0,0,0,2.82,9.2l0,.05a24.7,24.7,0,0,0,6.79,7.24,2.08,2.08,0,0,0,2.68-.24,1.53,1.53,0,0,0-.27-2.35A21.3,21.3,0,0,1-9288.9,600.34Zm19.81,5.62a26.16,26.16,0,0,0,7.91,6.15,2.05,2.05,0,0,0,2.61-.6,1.57,1.57,0,0,0-.68-2.29,22.82,22.82,0,0,1-6.81-5.28,2.08,2.08,0,0,0-2.67-.32A1.53,1.53,0,0,0-9269.09,606Zm48-50.39c0-.55-1.11-16.53,5.82-14.1s11.91,6.32,16.9,16,5.54,19.45,2.49,23.58-29.37,5.59-51.25,5.35-42.67-7.05-43.5-12.89,3-14.82,7.2-19.44c2-2.24,4.81-6.21,6.91-8.26s4.21-3.67,3.07-7.3c-2.22-7-9.42-21.63-12.19-22.85s-4.16,1.22-7.76-1.7,1.38-5.83,5-4.86,13.86,13.37,17.74,25,2.77,15.07,4.43,16.53-2.22-14.1,10.53-16.78,21.82,1.38,20.55-2.22c-2.45-7-9.59-19.19-12.4-20.34s-4.11,1.33-7.81-1.5,1.19-5.86,4.82-5,17.16,17.73,21.43,29.3S-9221,565.05-9221,555.57Zm-172.88,40.35,1.11,10.94s12.19.24,18.84,1.45,14.4,5.35,18.28,3.41l8.59-20.42s-8.87,6.8-24.38,7.29A81.63,81.63,0,0,1-9393.93,595.92Zm-39.71,5.79,3.14,5.39s6.37-.24,14.13-1,12.75.56,15.23-1.22c.46-2.12,0-11.34,0-11.34s-5.35,5.74-16.26,7.7A59,59,0,0,1-9433.64,601.71Zm-30.61,12.91,7.15,3.9s2.77-1.7,8.59-4.62,8.05-2.09,9.7-3.83a43.92,43.92,0,0,0-1.17-6.29s-3.22,5.26-11.51,8.29A47,47,0,0,1-9464.25,614.62Zm-18.49,15.61,7.83,2.34a28.09,28.09,0,0,1,5.5-6.13c3.94-3.45,6.16-2.8,7-4.51-.44-1.39-3.61-5-3.61-5s-1.28,4.83-7.17,8.84A36.69,36.69,0,0,1-9482.74,630.23ZM-9349.4,561s1.36,6,4.77,5.18,10.44.79,7,2.79-4.76-1-3.4,3.38,5,4.38,6.13,2.59,0-4.58,7.94-3.39,8.63,1.4,8.63,7.37,12.35,7.65,13.62,4c2.27-6.58,4.76-2.79,6.58-5.38s2-7.17-.23-10-13.62-3.38-26.56-5.18A160.64,160.64,0,0,0-9349.4,561Zm39.5,11.55c2.63,0,4.76,1.16,4.76,2.59s-2.13,2.59-4.76,2.59-4.77-1.16-4.77-2.59S-9312.54,572.52-9309.9,572.52Zm-193.51-107.25c0,2.73,18.88,37.12,43.29,67.21,10.12,12.47,45.66,29.79,63.17,40.37,7.06-5.79,23.89-8,23.89-8s-20.08-49.31-53.23-76.25c-26.79-21.76-67.71-22.15-69.84-22.95-4.78-1.8,55.51-8,91.22,31.33,30,33,42.77,65.07,44.14,68.27l9.32,1.79c-29.34-48.5-43.9-70.25-64.38-84.43a122.15,122.15,0,0,0-64.83-21.95C-9492.49,460.08-9503.41,461.28-9503.41,465.27Zm237.54,65.53c9.05-5.87,22.45-7.77,22.45-7.77s-1.78-6-5.12-8.12-9.76-.19-11.43-5.53c-1.77-5.7,3.15-7.95,8.27-7.95s9.06,3.46,12.81,9L-9232,521h7.68s-3.35-28.86-17.13-36.46-19.3-10.71-29.35-9.5-40.36,49.34-39.58,58.22c.39,4.49-.79,10.2,7.48,9.85s7.09,6.91,7.09,8.81,2.56,3.29,5.52,1.9,3.15-4.14,6.3-7.6,5.91-4.49,5.51-9.33-6.1-16.59-9.06-17.8-7.28,0-9.45-4.49.39-6.74,3.35-7.95a9.44,9.44,0,0,1,8.47,1c1.77,1.38,8.46,6.74,11.22,13.13S-9268.33,532.4-9265.87,530.8Z" transform="translate(9550.05 -455.78)"/></g></g></svg>