<svg xmlns="http://www.w3.org/2000/svg" viewBox="0 0 1019.68 301.78"><defs><style>.a{fill-rule:evenodd;}</style></defs><title>SRT-SUPERCHARGED-HC-Logo</title><path d="M33.07,217h-22L9.5,223.22H36c1.52,0,3.34-2.31,4.06-5.16l3.22-12.77c.72-2.86.07-5.17-1.45-5.17H22.23l1.78-7H46.39L48,186.82H21.45c-1.52,0-3.34,2.3-4.06,5.15l-3.22,12.78c-.72,2.85-.07,5.16,1.45,5.16H34.85Z"/><path d="M60.61,186.67H52.2L46.39,209.5a43.38,43.38,0,0,0-1.62,7.64c-.47,6.83,4.38,6.27,9.66,6.27h8.06c3.93-.28,7.68.6,10.34-4.6a26.86,26.86,0,0,0,1.7-5.42l6.78-26.72H73l-6.8,26.57c-.63,2.46-2,2.89-6.31,2.89-4.93,0-6.76.12-6-2.89Z"/><path d="M92.38,194h9.54c1.3,0,2.55.36,1.86,3l-1.69,6.34a4.14,4.14,0,0,1-4.56,3.14H91.91l-2,7.67h12.37c3.91-.09,5.56-3.92,6.76-6.92a73.08,73.08,0,0,0,2.56-8.3,25.29,25.29,0,0,0,1.23-7.66,4.13,4.13,0,0,0-3.51-4.27c-2.87-.44-7.33-.26-11.16-.26H85.9l-9.72,36.54h8.4Z"/><polygon points="147.1 186.76 120.01 186.76 110.54 223.33 137.63 223.33 139.54 215.96 120.55 215.96 122.45 208.64 137.65 208.64 139.5 201.51 124.3 201.51 126.25 193.98 145.15 193.98 147.1 186.76"/><path class="a" d="M278.12,192.94c.57-6.82-3.87-6.26-8.69-6.26h-9.51c-3.6.27-7-.61-9.54,4.59a28.89,28.89,0,0,0-1.67,5.43c-2.74,10.78-6.38,25.18-6.77,26.72h7.64l2.36-9.19h13.41L263,223.42h7.68l5.8-22.84A48.49,48.49,0,0,0,278.12,192.94ZM267.3,206.52H253.9l2.46-9.67c.63-2.47,2.39-2.89,6.34-2.89,4.5,0,7.81-.12,7.05,2.89Z"/><path class="a" d="M306.49,228.71c-1.86-5.29-5.55-15.61-5.57-15.65a1.93,1.93,0,0,1-.15-.71c0-.24.08-.29.12-.29h2a5,5,0,0,0,3.25-1.34,14,14,0,0,0,3.13-5.66,43.72,43.72,0,0,0,1.32-4.37c.76-2.67,1.31-4.8,1.48-5.91a16,16,0,0,0,.16-4.34c-.25-1.86-.82-3.6-2.8-3.62-1.16,0-1.41,0-3.3-.08-3.11-.06-7.51-.1-9-.1-2.46,0-10.34.22-10.34.22-.9,0-1.56.62-2.14,2.48-.32,1-.67,2.32-.94,3.39s-7.44,28.14-7.47,28.25a4.32,4.32,0,0,0-.09,1.32c.08.59.24.76.35.76h6.13c1.31,0,1.86-1.91,2.43-4,.62-2.25,5.2-19.71,5.2-19.71.73-2.76,1.49-3.32,2.71-3.32h8.85c.8,0,1.19.14,1.36,1.17a13.68,13.68,0,0,1-.55,4.22,10.63,10.63,0,0,1-2,4,3.75,3.75,0,0,1-2.61,1.08l-7,0c-.24,0-.42,1-.16,1.81l9.33,28.82h68.94l2.17-8.43Z"/><path class="a" d="M346.51,186.64H324a6.6,6.6,0,0,0-4.14,2.88,30.31,30.31,0,0,0-4.24,9.33l-3.32,13.28a18.82,18.82,0,0,0-.13,7.27c.61,2.75,2.23,4,4.41,4h12.9c1.55,0,5.86.35,7.2-.64s5.3-16.86,5.3-16.86h-7.92l-2.2,8.7c-.18.71-.51,1.16-.84,1.16h-9.55c-.55,0-.81-1.22-.53-2.38L325.46,195c.18-.74.52-1.2.86-1.2h18.39Z"/><polygon class="a" points="378.84 186.76 351.75 186.76 342.28 223.33 369.37 223.33 371.28 215.96 352.3 215.96 354.19 208.64 369.39 208.64 371.24 201.51 356.04 201.51 357.99 193.98 376.89 193.98 378.84 186.76"/><path class="a" d="M403.14,186.76c-.92,0-1.9,0-2.91,0h-17.1l-9.47,36.57,19.15,0c3.62,0,7.23.65,9.93-4.84a30.09,30.09,0,0,0,1.93-5.72c1-3.92,2.08-8,3.06-11.82a42.93,42.93,0,0,0,1.49-6.74L426,214.65a33.17,33.17,0,0,0,3.6,3.61c5.55,4.78,12.06,8,19,8l42.73,0c5.65,0,10.59-4.05,12.54-10.2a18.9,18.9,0,0,0-3.16-17.54c-.41-.51-.83-1-1.25-1.51q-3.11-3.74-6.24-7.44l-19.75-23.37A82.93,82.93,0,0,0,491,162.73c2.13-.73,4.23-1.53,6.32-2.4a67.48,67.48,0,0,0,18.32-11.05q1.86-1.59,3.68-3.27,2.31-2.13,4.53-4.39c1.5-1.52,3-3.07,4.47-4.63q4.59-4.83,9.1-9.74,3.62-4,7-8.21c2.73-3.4,6.39-8.14,9-12,2.51,3.79,6.44,6.24,10.48,6.33l59.22,0-35.44,41-.32.43A19,19,0,0,0,586,174.31l.18.34.2.33c2.6,4.37,6.83,6.94,11.31,6.9l47.2,0a37.52,37.52,0,0,0,5.61-.27,21.55,21.55,0,0,0,11.55-5.1,55.48,55.48,0,0,0,5.26-5.44q3.66-4.23,7.3-8.51l42.24-49.13h66.67a16.75,16.75,0,0,0,6.88-1.58h0a21.86,21.86,0,0,0,6-4.19c1.35-1.33,4.55-5,5.71-6.36q4.47-5.17,8.91-10.4a18.35,18.35,0,0,0,2.47-19.71c-2.64-5.44-7.29-8.22-12.42-8.2H740.8c9.59-7.33,22.5-16.25,44.27-18.61,13-1.4,25.7.49,36.94,8.53l6.5,4.64.91.65a.39.39,0,0,0,.57-.48l-.56-1.27c-6-13.66-12.15-26.22-14.39-41.11,2,.52,3.37.79,4.67,1.19,18.73,5.78,35.94,15.3,53.41,24.22a65.23,65.23,0,0,0,11.12,4.54c6.74,2,13.67,3.19,20.37,5.29,32.45,10.17,60.63,27.38,80.25,57.57,5.38,8.27,9.35,17.65,13.31,26.85,2.37,5.53-.16,9.15-5.95,9.57a37.23,37.23,0,0,1-8.93-.59c-18.84-3.23-36.06-9.94-49.65-25.13a86.54,86.54,0,0,0-14.89-12.9c-10.53-7.4-22.08-11.87-35.46-12.08a.58.58,0,0,0-.54.78,126.77,126.77,0,0,0,44.47,60.5c.54.41.85-.31.93-1,.81-7,1.28-7.21,8.5-7.31,16.55-.22,32.65,3.25,48.59,7.44,15.28,4,23.2,15.72,22.73,33-17,2.52-33-2.51-49.26-7.48-.36-.12-.68.38-.46.71,4.78,6.92,9.91,13.16,15.11,19.34,3,3.61,6.2,7.12,9.32,10.66,2.28,2.57,1.66,4.74-1.08,6.12-3.21,1.62-6.58,2.89-9.88,4.28-7.35,3.11-13.31,1.06-19.14-4.5-15.39-14.66-31.14-28.9-46.78-43.27-6-5.55-13.34-8-21.08-9.17-16.4-2.47-21.31.83-25.76,17.83C851.32,211,852.85,240,860.46,269c.78,3,2.2,3.7,5,3.17,11.38-2.15,22.58-.58,34,2.3-3.4,3.12-6.75,6.31-10.66,8.07-16.48,7.42-33.83,8.09-51.3,6.22-4.94-.53-5.61-3.37-3.87-8.62,3.68-11.13,7.88-22.19,10.31-33.65A111.41,111.41,0,0,0,839.18,183c-5.25-13.93-13.72-25.45-23-36.48-4.67-5.57-4.21-8.06,2.23-11.25,9.85-4.88,20.36-5.69,31-4.94,15.9,1.12,30.14,7.56,43.85,15.63,1.66,1,3.38,1.85,5.08,2.76a.66.66,0,0,0,.91-.33l0,0a.78.78,0,0,0-.12-.79C881,124.87,857,113.85,829.5,111.16s-50.15,9.44-71.1,28.12a.44.44,0,0,0,.1.76l6.35,2.55c18.12,7.28,34.3,17.74,47.63,32.86,22.95,26,26.74,79.36-3.85,111.6-2.24,2.36-4.4,4.79-7.07,7.73l-.77.85a.47.47,0,0,0,.24.77l1,.14c48.46,6.38,55.24,6.25,74.28,3.23,18.22-2.9,30.84-10.7,44.54-24.71,6.81-7,8.16-16.41,5.61-26.52a.38.38,0,0,0-.69-.17c-2.14,2.84-3.93,5.46-6,7.78-5.2,5.76-8.48,5.3-12.3-1.69-3.43-6.27-4.57-12.29-.41-19.75a.63.63,0,0,0-.61-1c-5.45,0-5.74-3.95-4.94-7.69,1.13-5.26,3.17-10.29,4.94-15.73.08-.25-.07-.43-.28-.56-4-2.43-.42-6.14-.09-10.16,0-.29-.45-.45-.61-.21a53.16,53.16,0,0,0-8.08,18.27c-2.59,11.18-1,22.34.08,33.49.64,6.25.4,13.08,7.64,16.08L885.3,263c3-8,10.46-13.53,8.83-21.79a.36.36,0,0,0-.54-.27c-5.45,3.65-10.57,8.31-16.51,10.56-13.14,5-12.52,4.3-15.16-8.71-.79-3.86.2-6.37,2.94-8.68,2.51-2.11,4.84-4.45,7.57-7a.45.45,0,0,0-.14-.75c-1.48-.81-2.55-1.45-3.67-2-6.85-3.18-8.21-6.39-5.09-13.71,1.13-2.67,3.19-4.93,5-7.25a30.63,30.63,0,0,1,3.28-3.26.47.47,0,0,0-.06-.74c-1.05-.88-1.74-1.21-2.49-1.76-3.65-2.67-3.82-3.54-2.2-7.27.71-1.65,1.46-3.3,2.3-4.89,4.08-7.82,3.58-12.56,17.43-10.29a95.06,95.06,0,0,1,10.47,2.24c7.08,2,12.68,6.05,12,15.58-.28,3.76.65,7.61,1.11,11.54,0,.45.39.37.8.23,8.6-2.82,9.24-3.77,9.6-11.23a51,51,0,0,1,7.6,10.3c.51,1-1.28,3.29-2,5a2.08,2.08,0,0,0-.19.88c.19,3.89.84,18.17.84,18.17a.42.42,0,0,0,.68.34l13.65-11.36c5.15,5.28,4.93,6.38,3,12.93-2.34,7.78-3.82,15.86-5.65,23.82a.92.92,0,0,0,.36,1h0a.8.8,0,0,0,1,0c7.42-5.88,15.47-11,21.07-19.15,1.81-2.64,3.62-3.88,6.67-3.76,5.85.24,11.71,0,17.55.26a34.24,34.24,0,0,1,5.92,1.23c-10.5,4-7.6,13.32-9.44,21.55,0,.17-.36,1.31-.36,1.31a.38.38,0,0,0,.51.48c2.08-1,2.27-1.08,2.55-1.36,6.7-7,14.08-13.54,19.86-21.36,8.27-11.19,13.2-24.14,12.25-38.85q-.9-14.07-2.11-28.11c-.48-5.49-1-10.91,2.31-15.76,3.83-5.6,3.44-11.56,1.5-17.76-5.89-18.88-15-35.88-27.93-50.1-27.35-30-59.66-52.37-95.81-68.59a13.44,13.44,0,0,0-2.45-1,.47.47,0,0,0-.56.55l4.3,17.54c-5.43-1.45-10.28-2.13-14.67-4C861.07,19,841.4,9.2,820,4.41,812.92,2.82,805.72,1.62,797.3,0a.42.42,0,0,0-.48.54c2.43,9.7,4.52,18,6.6,26.32C761.14,29.8,739.15,51.05,728.54,63H580.68a14.84,14.84,0,0,0-3.69.44l-.43.12a13.4,13.4,0,0,0-5.2,3,22.86,22.86,0,0,0-2,2.13L558.94,80.75A23.17,23.17,0,0,0,547.66,66.5a26.85,26.85,0,0,0-4.29-1.83A38.83,38.83,0,0,0,535.64,63a62.78,62.78,0,0,0-7.25-.39l-8.56-.06c-20.86-.23-60.06-.39-83.12-.41q-6.4,0-12.83,0-32.06.2-64.12.51a42.23,42.23,0,0,0-5,.28,30.41,30.41,0,0,0-18.63,9.17c-2.08,2.08-3.58,3.7-5.62,6a17.31,17.31,0,0,0-.95-6.68,13.73,13.73,0,0,0-5.47-7.13,13.31,13.31,0,0,0-7.11-2c-1,0-2,0-3,0l-193.85,0a64.74,64.74,0,0,0-18.8,2.72,53.22,53.22,0,0,0-13.73,6.36,40.09,40.09,0,0,0-10.31,9.62,33.34,33.34,0,0,0-6.69,20c0,10.25,4.87,19.15,11.22,25.51a47.47,47.47,0,0,0,8.58,6.84l1.16.7-58.42,0a29,29,0,0,0-3.61.2,22.93,22.93,0,0,0-13.94,7A81.92,81.92,0,0,0,10,147.44q-2.52,2.88-5.09,5.72a18.77,18.77,0,0,0-3.07,4.57,19,19,0,0,0-1.59,5.16,18.38,18.38,0,0,0,1.21,10.05,15,15,0,0,0,6.22,7.3,11.75,11.75,0,0,0,4.83,1.54,17.72,17.72,0,0,0,2.06.06h211.6a64.78,64.78,0,0,0,19-2.75A53,53,0,0,0,259,172.68c1-.66,2-1.38,3-2.14,1.86,7.05,7.28,11.35,13.16,11.33h45.52a30.34,30.34,0,0,0,14.24-3.28,32.1,32.1,0,0,0,7-4.91,69.18,69.18,0,0,0,5.5-5.71q2.7-3.11,5.38-6.22l15.66-18.25a16.45,16.45,0,0,0,2.45,3.86ZM389.41,216h-5.73l5.69-22h5.74c4.62,0,6.22.37,5.41,3.51l-3,11.66h0l-.89,3.44C395.93,215.18,394.38,215.91,389.41,216Zm401-104.14h0ZM276.05,141.62a32.8,32.8,0,0,0-1-6.85,33.4,33.4,0,0,0-3-7.65,37.35,37.35,0,0,0-8.67-10.65,47.09,47.09,0,0,0-9.63-6.33c-.66-.33-1.32-.64-2-.94l45.05,0A25.65,25.65,0,0,0,305,108ZM388.7,119.78l.94-1.09c2.24-2.64,3.76-4,5.53-4.65a13.59,13.59,0,0,1,3.3-.8,39.06,39.06,0,0,1,5.07-.27h53.51a29.28,29.28,0,0,1-8.38,4.63c-4.67,1.63-11.82,2.2-16.53,2.21ZM659.46,161.4c-2.31,2.67-4.07,4.46-5.49,5.26-2.12,1.24-4.41,1.84-9,1.76l-47.39,0a2.46,2.46,0,0,1-2.12-1.28,3.48,3.48,0,0,1,.41-3.62s52-60.08,53.48-61.78a1.33,1.33,0,0,0,.12-1.2c-.22-.35-.36-.66-1.3-.66l-84,0a2.78,2.78,0,0,1-2.15-1.7,2.75,2.75,0,0,1,.54-3l14.61-17c1.68-1.94,2-1.88,4.62-1.88h219.3a2.69,2.69,0,0,1,2.69,1.53,3,3,0,0,1-.57,3.33c-.81.94-12.34,14.52-14,16.11a8.92,8.92,0,0,1-5.77,2.63H713.2a2,2,0,0,0-1.43.65c-.25.3-.67.67-1,1s-30.67,35.66-44.06,51.26C665.14,154.79,662.4,158,659.46,161.4Zm-338.81,7H275.07a2.46,2.46,0,0,1-2.43-1.94,4.36,4.36,0,0,1,1-3.36c.21-.27,59.87-69.44,62-72a110.19,110.19,0,0,1,7.74-8.66c4.73-4.73,9.8-6.31,16.48-6.31,0,0,58.67-.56,76.91-.56,11.36,0,44.1.1,67.22.27,14,.09,15.89.18,24.48.2,14.71,0,18.55,4.47,20,9.21,1.24,4.09-.8,8.53-2.18,11.08-1.52,2.81-10,14.16-16.31,21-10.8,11.68-14.38,15.28-17.39,18-5.16,4.73-10.92,9.75-24.53,14.43-6.88,2.37-18.31,3.42-24.48,3.42H448.68a1,1,0,0,0-1,.74c-.15.54.46,1.2,1,1.81.21.24,38.19,45,42.8,50.65.16.18,1.11,1.33,1.22,1.47,1.45,1.69.88,4.86-1.37,4.86h-2.41l-40.35,0c-7.63,0-13.91-6.71-14.76-7.76s-55.07-67.24-55.07-67.24a2.73,2.73,0,0,1,1.62-4.61l51.8,0c2,0,12.2-.14,19.64-2.75a41,41,0,0,0,15.82-10.29,120.22,120.22,0,0,0,9.08-10.55c2.52-3.35,3.28-5.3,2.58-7.12-1-2.62-3.93-3-9.85-3h-65.8c-9,0-14.85,1.42-20.91,8.46,0,0-38,44.5-43.1,50.25C334.92,163.58,330.38,168.44,320.65,168.44ZM240.7,119.21l.09.05c14.12,3.8,24.08,13,24.08,23.64,0,14.1-17.33,25.52-38.72,25.52H14.38c-.93,0-2.18.18-3-1.56s.94-3.7,1-3.81c1.73-1.89,5.4-6.08,5.4-6.08a71.31,71.31,0,0,1,4.88-5.44c3-3,6-4.06,10.31-4.06l137.16.08c2.11,0,3.08-.75,3.08-1.69,0-.7-.65-1.29-1.58-1.55-3.65-1-62-16.76-62-16.76l-6.27-2.21c-12.35-4.46-21.69-14.46-21.69-24.28,0-14,17.16-25.26,38.32-25.26l194,0c2.38,0,4.81-.25,5.21.94s-.46,2.1-3.3,5.23c-2,2.21-6,6.75-8.74,9.68-2.93,3.16-6,4-10.31,4l-131.48.08c-1.37,0-2.49.74-2.49,1.64,0,.66.59,1.23,1.44,1.49C164.34,99,238.84,118.66,240.7,119.21ZM902.91,24.57c8.34,4.58,13.49,6.05,25.24,18.43-7.95-4-16.92-7.89-23.09-9.48Zm97.64,200.15a50.22,50.22,0,0,1-3.33-4.1c-3-4.7-2.73-5.36,1.42-8.76,2.7-2.2,5.19-4.67,8.38-7.58C1006.75,211.9,1003.73,217.81,1000.55,224.72ZM912,109.79c12,3.89,17.85,15,27.4,21.87C927.13,132.34,914.86,124.36,912,109.79Z"/><path class="a" d="M172.65,228.71c-1.86-5.29-5.55-15.61-5.57-15.65a1.93,1.93,0,0,1-.15-.71c0-.24.08-.29.12-.29h2a5,5,0,0,0,3.25-1.34,14,14,0,0,0,3.13-5.66,42.84,42.84,0,0,0,1.31-4.37,59.25,59.25,0,0,0,1.49-5.91,16,16,0,0,0,.16-4.34c-.25-1.86-.82-3.6-2.8-3.62-1.16,0-1.41,0-3.3-.08-3.11-.06-7.51-.1-9-.1-2.46,0-10.34.22-10.34.22-.9,0-1.56.62-2.14,2.48-.32,1-.67,2.32-.94,3.39s-7.44,28.14-7.47,28.25a4.32,4.32,0,0,0-.09,1.32c.08.59.24.76.35.76h6.13c1.31,0,1.86-1.91,2.43-4,.62-2.25,5.2-19.71,5.2-19.71.73-2.76,1.49-3.32,2.71-3.32h8.85c.8,0,1.19.14,1.36,1.17a13.68,13.68,0,0,1-.55,4.22,10.63,10.63,0,0,1-2,4,3.75,3.75,0,0,1-2.61,1.08l-7,0c-.24,0-.42,1-.16,1.81l9.33,28.82h68.94l2.17-8.43Z"/><polygon class="a" points="232.85 208.37 229.19 223.02 236.77 223.02 245.97 186.28 238.38 186.28 234.68 201.02 221.42 201.02 225.14 186.28 217.51 186.28 208.32 223.02 215.94 223.02 219.6 208.37 232.85 208.37"/><path class="a" d="M212.28,186.67H189.76a6.8,6.8,0,0,0-4.2,2.88c-1.47,2.11-2.18,5.45-3.23,9.33l-3.6,13.28a34.72,34.72,0,0,0-1.49,7.26c0,3.09,2.15,4,4.33,4h20.88l2.06-7.64H186.62c-.55,0-.79-1.21-.48-2.38L191,195.54c.47-1.47,1-1.68,1.35-1.68h18Z"/></svg>