<svg xmlns="http://www.w3.org/2000/svg" viewBox="0 0 13204.01 808.13"><defs><style>.cls-1,.cls-2{fill:#121212;}.cls-2{fill-rule:evenodd;}</style></defs><title>SUPERCHARGED-Logo</title><g id="Layer_2" data-name="Layer 2"><g id="Layer_1-2" data-name="Layer 1"><path class="cls-1" d="M22.34-6077.7h315c42.78-.32,84.13,7.78,61.42,65.78L343-5874.15c-30.26,70.1-118.23,68.45-150.63,68.45H6.77L-60.7-5638.88l408.54,0C477-5640.65,531.41-5724,571.05-5789.2s61-123.87,84.75-180.56c21.19-50.65,43.36-106.64,40.58-166.62s-62.52-87.48-116.1-92.81c-94.66-9.45-241.9-5.54-368.38-5.54H-191.76l-321,794.48h277.54Z" transform="translate(2714.65 6245.83)"/><polygon class="cls-1" points="4543.98 10.3 4479.38 167.33 3855.35 167.33 3790.89 331.24 4292.83 331.24 4231.93 486.11 3729.99 486.11 3667.33 645.44 4294.2 645.44 4231.22 805.58 3336.47 805.58 3649.23 10.3 4543.98 10.3"/><path class="cls-2" d="M9623.71-6235.78,9311-5440.5l632.38-.26c119.81.69,238.87,13.95,328.14-105.26,26.25-35.08,44.89-76.81,63.6-124.41,33.53-85.3,68.89-174.85,101.07-257,34.48-88,45.41-109.83,51.76-164.54,18-154.84-131.47-143.56-299.31-143.56Zm207.6,635.13h-189.5l188-478.1h189.5c152.6-.06,205.42,8.09,178.68,76.36l-99.66,253.54h.08l-29.59,75C10046.49-5617.38,9995.18-5601.54,9831.31-5600.65Z" transform="translate(2714.65 6245.83)"/><path class="cls-2" d="M2311.73-5437.71H2610.3c-61.56-115.05-120.68-224.87-121.19-225.89-2.55-5.21-5.51-10.81-5.09-15.46.44-5.21,2.87-6.32,4.08-6.32l65.82.09c27.4,0,77.78-8.93,107.38-29.12,58.64-40,82.24-82.73,103.25-123.07,12.31-23.69,0,4.68,43.4-95,25.35-58.13,43.38-104.52,49-128.51,5.13-21.79,12.43-59.6,5.31-94.52-8.28-40.4-27.11-78.3-92.48-78.58-38.13-.17-46.54-.88-108.82-1.71-102.75-1.42-248.26-2.27-298.69-2.27-81.06,0-341.44,4.74-341.44,4.74-29.68,0-51.59,13.53-70.73,53.87-10.39,21.58-22.18,50.48-30.94,73.85-8.27,22-245.83,612-246.66,614.28-1.56,4.64-5.18,17.23-3,28.68,2.44,13,7.94,16.58,11.58,16.58l202.47-.09c43.23,0,61.46-41.5,80.23-86.88,20.24-49,171.54-428.55,171.54-428.55,24.09-60.06,49.35-72.21,89.51-72.21h292.32c26.29,0,39.38,3,44.92,25.36,3.85,15.5-4.91,63.19-18.06,91.7-16.21,35.11-37.64,67.77-66.22,87.77-32,22.24-77.41,23.43-86.13,23.43l-230.16-.34c-7.85,0-14,21.89-5.35,39.36Z" transform="translate(2714.65 6245.83)"/><path class="cls-2" d="M6155.91-6101c19.06-148.39-127.57-136.19-286.8-136.19H5554.86c-118.63,5.9-231.16-13.24-315,99.86-24.66,33.28-37.61,72.86-55,118-90.49,234.54-210.58,547.56-223.61,581.05h252.39L5291.33-5638h443l-77.59,199.75h253.77l191.39-496.6C6122.36-5990.07,6149.89-6045.79,6155.91-6101Zm-357.1,295.24H5356.16l81.22-210.26c20.82-53.61,78.83-62.88,209.54-62.88,148.56,0,257.91-2.63,232.72,62.88Z" transform="translate(2714.65 6245.83)"/><path class="cls-2" d="M8414.48-6238l-59.56,156.38H7747.84c-11.35,0-22.39,10.18-28.4,26.18L7569.9-5657.12c-9.51,25.32-.69,51.75,17.27,51.75h315.3c11.11,0,21.89-9.69,28-25.2l72.42-189.19h261.61s-128.66,343.95-175.07,366.63c-44.1,21.58-186.34,14.07-237.81,14.07H7425.92c-72.23,0-125.5-26.72-145.75-86.7-13.75-40.72-13.24-110.37,4.39-157.92l109.51-288.78c32-84.46,92.76-157,140-203,38.09-37.1,94.13-58.22,136.65-62.52h743.75Z" transform="translate(2714.65 6245.83)"/><path class="cls-2" d="M-1026.83-6237.48h-277.82l-191.9,496.59c-20.47,55.18-48.64,110.9-53.26,166.15-15.61,148.39,144.48,136.19,318.79,136.19h266.31c129.65-5.9,253.51,13.24,341.33-99.86,25.81-33.28,38.58-72.87,56-118,90.75-234.54,211.11-547.57,224.18-581H-619.44L-844-5659.72c-20.88,53.61-65.42,62.88-208.5,62.88-162.64,0-223.19,2.63-197.94-62.88Z" transform="translate(2714.65 6245.83)"/><polygon class="cls-2" points="7375.87 480.27 7254.79 798.93 7505.3 798.93 7808.86 0 7558.43 0 7436.16 320.46 6998.3 320.46 7121 0 6869.13 0 6565.57 798.93 6817.37 798.93 6938.01 480.27 7375.87 480.27"/><path class="cls-2" d="M3981.81-6237.36,3917.25-6081H3322.3c-11.35,0-29.07,4.39-44.6,36.53l-159,388c-10.32,25.32-2.34,51.76,15.61,51.76h591l-68.14,166.14-689.4.16c-72.22,0-144.13-19.54-143-86.7.79-46.63,30-110.37,49.18-157.92l118.73-288.78c34.65-84.46,58-157,106.75-203,39.27-37.1,96-58.22,138.65-62.52h743.75Z" transform="translate(2714.65 6245.83)"/><path class="cls-2" d="M6731.59-5437.71h298.56c-61.56-115.05-120.68-224.87-121.18-225.89-2.56-5.21-5.52-10.81-5.1-15.46.45-5.21,2.87-6.32,4.08-6.32l65.82.09c27.41,0,77.78-8.93,107.39-29.12,58.64-40,82.23-82.73,103.25-123.07,12.3-23.69.05,4.68,43.39-95,25.35-58.13,43.38-104.52,49-128.51,5.13-21.79,12.43-59.6,5.31-94.52-8.27-40.4-27.11-78.3-92.48-78.58-38.13-.17-46.54-.88-108.82-1.71-102.75-1.42-248.26-2.27-298.69-2.27-81.06,0-341.44,4.74-341.44,4.74-29.68,0-51.58,13.53-70.73,53.87-10.39,21.58-22.18,50.48-30.94,73.85-8.27,22-245.83,612-246.66,614.28-1.56,4.64-5.18,17.23-3,28.68,2.43,13,7.93,16.58,11.58,16.58l202.47-.09c43.22,0,61.45-41.5,80.22-86.88,20.24-49,171.54-428.55,171.54-428.55,24.09-60.06,49.35-72.21,89.52-72.21H6937c26.3,0,39.38,3,44.92,25.36,3.85,15.5-4.91,63.19-18.06,91.7-16.2,35.11-37.64,67.77-66.22,87.77-32,22.24-77.4,23.43-86.13,23.43l-230.15-.34c-7.86,0-14,21.89-5.36,39.36Z" transform="translate(2714.65 6245.83)"/><path class="cls-2" d="M-1936.28-5578.81h-726.14l-52.23,136.2H-1839c50.28,0,110.31-50.25,134.07-112.23l106.52-277.78c23.77-62,2.28-112.23-48-112.23H-2294.2l58.76-153.22h738.82l52.23-136.2h-875.7c-50.25,0-110.24,50.22-134,112.16l-106.54,277.84c-23.77,62-2.28,112.23,48,112.23h635.1Z" transform="translate(2714.65 6245.83)"/><polygon class="cls-2" points="12196.84 10.3 12132.25 167.33 11508.22 167.33 11443.76 331.24 11945.7 331.24 11884.8 486.11 11382.86 486.11 11320.2 645.44 11947.07 645.44 11884.09 805.58 10989.34 805.58 11302.1 10.3 12196.84 10.3"/></g></g></svg>