<svg xmlns="http://www.w3.org/2000/svg" viewBox="0 0 4071.06 107.33"><defs><style>.cls-1{fill:#121212;fill-rule:evenodd;}</style></defs><title>Yellow-Jacket-Lettering</title><g id="Layer_2" data-name="Layer 2"><g id="Layer_1-2" data-name="Layer 1"><path class="cls-1" d="M1545.61,0H1291a45.55,45.55,0,0,0-45.56,45.55V61.78A45.55,45.55,0,0,0,1291,107.33h254.65a45.55,45.55,0,0,0,45.55-45.55V45.56A45.55,45.55,0,0,0,1545.61,0Zm-37.22,22.52a23,23,0,0,1,23,23V61.78a23,23,0,0,1-23,23H1328.18a23,23,0,0,1-23-23V45.56a23,23,0,0,1,23-23Z"/><path class="cls-1" d="M172.49,52,58.06.94A10.24,10.24,0,0,0,53.66,0h-52A1.62,1.62,0,0,0,.91,3.08l137.46,67.1v35.53a1.61,1.61,0,0,0,1.62,1.62h65a1.62,1.62,0,0,0,1.62-1.62V70.18L344.07,3.08A1.62,1.62,0,0,0,343.36,0h-52a10.3,10.3,0,0,0-4.4.94Z"/><path class="cls-1" d="M431.22,64.07H634.83a.73.73,0,0,0,.71-.74V44a.73.73,0,0,0-.71-.74H431.22a.85.85,0,0,1-.85-.86V21.67a.86.86,0,0,1,.85-.86H646.3a.73.73,0,0,0,.71-.74V.75A.73.73,0,0,0,646.3,0H363a.85.85,0,0,0-.85.85V106.48a.85.85,0,0,0,.85.85H646.3a.73.73,0,0,0,.71-.74V87.27a.73.73,0,0,0-.71-.74H431.22a.85.85,0,0,1-.85-.86V64.93A.86.86,0,0,1,431.22,64.07Z"/><path class="cls-1" d="M940.3,107.33a.73.73,0,0,0,.72-.74V87.27a.73.73,0,0,0-.72-.74H733.11A1.09,1.09,0,0,1,732,85.45V1.09A1.08,1.08,0,0,0,731,0H664.86a1.08,1.08,0,0,0-1.08,1.08V106.25a1.08,1.08,0,0,0,1.08,1.08Z"/><path class="cls-1" d="M1234.28,107.33a.73.73,0,0,0,.72-.74V87.27a.73.73,0,0,0-.72-.74H1027.09a1.08,1.08,0,0,1-1.08-1.08V1.09A1.08,1.08,0,0,0,1024.93,0H958.84a1.08,1.08,0,0,0-1.08,1.08V106.25a1.08,1.08,0,0,0,1.08,1.08Z"/><path class="cls-1" d="M1961.1,106.43,2079.47,1.89a1.08,1.08,0,0,0-.72-1.89h-57.12a3.5,3.5,0,0,0-2.38.9l-83.18,73.47A3.6,3.6,0,0,1,1931,74L1868.28,1.25A3.49,3.49,0,0,0,1865.56,0h-62.32a3.49,3.49,0,0,0-2.73,1.25L1738,73.89a3.6,3.6,0,0,1-5.11.35L1649.8.9a3.5,3.5,0,0,0-2.39-.9h-57.12a1.08,1.08,0,0,0-.71,1.89L1708,106.43a3.46,3.46,0,0,0,2.39.9h58.49a3.46,3.46,0,0,0,2.73-1.25l60.11-69.79a3.63,3.63,0,0,1,5.46,0l60.11,69.79a3.46,3.46,0,0,0,2.72,1.25h58.75A3.46,3.46,0,0,0,1961.1,106.43Z"/><path class="cls-1" d="M3579.79,64.07H3783.4a.73.73,0,0,0,.71-.74V44a.73.73,0,0,0-.71-.74H3579.79a.85.85,0,0,1-.85-.86V21.67a.86.86,0,0,1,.85-.86h215.08a.73.73,0,0,0,.71-.74V.75a.73.73,0,0,0-.71-.74H3511.54a.85.85,0,0,0-.85.85V106.48a.85.85,0,0,0,.85.85h283.33a.73.73,0,0,0,.71-.74V87.27a.73.73,0,0,0-.71-.74H3579.79a.85.85,0,0,1-.85-.86V64.93A.86.86,0,0,1,3579.79,64.07Z"/><path class="cls-1" d="M2193,107.33a.73.73,0,0,1-.71-.74V82.83a.73.73,0,0,1,.71-.74h164.05a21.4,21.4,0,0,0,21.4-21.4V2A1.94,1.94,0,0,1,2380.43,0h61.2A1.94,1.94,0,0,1,2443.57,2V61.38a46,46,0,0,1-46,45.95Z"/><path class="cls-1" d="M2612.91.6,2455.52,105.36a1.07,1.07,0,0,0,.6,2h56.67a3.46,3.46,0,0,0,2-.6L2643,21.41a3.51,3.51,0,0,1,4,0l128.2,85.32a3.45,3.45,0,0,0,2,.6h56.68a1.07,1.07,0,0,0,.6-2L2677.05.6a3.46,3.46,0,0,0-2-.6H2614.9A3.45,3.45,0,0,0,2612.91.6Z"/><path class="cls-1" d="M3126.55,84.81H2920.49a23,23,0,0,1-23-23V45.56a23,23,0,0,1,23-23h206.06a1.8,1.8,0,0,0,1.8-1.8V1.81a1.79,1.79,0,0,0-1.8-1.8H2883.27a45.55,45.55,0,0,0-45.55,45.55V61.78a45.55,45.55,0,0,0,45.55,45.55h243.28a1.79,1.79,0,0,0,1.8-1.8V86.61A1.8,1.8,0,0,0,3126.55,84.81Z"/><path class="cls-1" d="M3274.44,57.71l154.4,49.62h56.34a1.8,1.8,0,0,0,.57-3.5L3322.31,48.65,3483.87,6.94a1.8,1.8,0,0,0-.45-3.54h-64.89L3273.88,40.74h-30.37a1.8,1.8,0,0,1-1.8-1.8V1.81a1.79,1.79,0,0,0-1.8-1.8h-64.65a1.8,1.8,0,0,0-1.8,1.8V105.53a1.8,1.8,0,0,0,1.8,1.8h64.65a1.79,1.79,0,0,0,1.8-1.8v-46a1.81,1.81,0,0,1,1.8-1.8Z"/><path class="cls-1" d="M3808.43,0a.73.73,0,0,0-.71.74V20.07a.73.73,0,0,0,.71.74h96.84v84.72a1.79,1.79,0,0,0,1.8,1.8h64.64a1.79,1.79,0,0,0,1.8-1.8V20.81h96.84a.73.73,0,0,0,.71-.74V.75a.73.73,0,0,0-.71-.74Z"/></g></g></svg>