<svg xmlns="http://www.w3.org/2000/svg" viewBox="0 0 977.6 425.07"><defs><style>.cls-1{fill:#121212;fill-rule:evenodd;}</style></defs><title>Yellow-Jacket-Logo</title><g id="Layer_2" data-name="Layer 2"><g id="Layer_1-2" data-name="Layer 1"><path class="cls-1" d="M371.41,250.65a127.28,127.28,0,0,0,7.44-29,86.72,86.72,0,0,0-6.17-43.07,70.34,70.34,0,0,1-4.61-24.71,3.12,3.12,0,0,0-1.67-2.35,47.77,47.77,0,0,0-11.79-6,3.45,3.45,0,0,0-4.59,3.21,78.71,78.71,0,0,0,4.67,20.87,39.54,39.54,0,0,1,1.71,23,25.78,25.78,0,0,1-19.79,12.91,165,165,0,0,1-30.06,3.27l-4.71.47a3.35,3.35,0,0,0,.8,6.57,232.44,232.44,0,0,1,35,3.72,31.86,31.86,0,0,1,16.75,9.09,24.1,24.1,0,0,1,2.44,18q-3,12.59-6.64,25a28.14,28.14,0,0,0,0,5.73,2.83,2.83,0,0,0,3.46,2.09,32.57,32.57,0,0,0,13.79-6.93,2.3,2.3,0,0,0,.49-1.16,67.12,67.12,0,0,1,3.45-20.75ZM258,222.71c1.47-2,2.92-4,4.33-6a3.82,3.82,0,0,0,.47-2,12.61,12.61,0,0,0-3.86-11.07,13.52,13.52,0,0,1-2.45-14.92,13,13,0,0,0-9.7-17.29,12,12,0,0,0-2-.61l-.53,0a1,1,0,0,0-.78.58,3.44,3.44,0,0,0-.33,1.48,138.22,138.22,0,0,1-2.2,23.85,13.29,13.29,0,0,1-11.33,10.61q-8.81,1.38-17.73,1.94a3.39,3.39,0,0,0,.79,6.69,84.54,84.54,0,0,1,19.94,2.9,12.27,12.27,0,0,1,8.59,10.87,122.61,122.61,0,0,1,1.93,23.42,1.93,1.93,0,0,0,.44,1,.89.89,0,0,0,.82.35,10.43,10.43,0,0,0,2.31-.7,13,13,0,0,0,10.47-12.06,118.5,118.5,0,0,0-1.94-12,11.56,11.56,0,0,1,2.78-6.95Zm-102.29-26a5.47,5.47,0,0,0-6,1,50.09,50.09,0,0,1-25,11.17q-7,.84-13.94,1.43a2.25,2.25,0,0,0-1.11,4.2,16.24,16.24,0,0,0,4,.54,66.73,66.73,0,0,1,25,5.31q6.69,3.85,13,8.34a4.48,4.48,0,0,0,3.81-.38,3.35,3.35,0,0,0,2.34-2.79,62.28,62.28,0,0,0-.35-26.8,5.32,5.32,0,0,0-1.68-2Zm140,228A402.56,402.56,0,0,0,351.58,420a1255.36,1255.36,0,0,0,330.94-94.28,704.71,704.71,0,0,0,102.09-53.57,158.72,158.72,0,0,0,15.73-12.22,3.45,3.45,0,0,0-3.73-5.06,205.87,205.87,0,0,1-21,5.23,136,136,0,0,1-48-1.62,353.6,353.6,0,0,0-64-8.06c-3.66.09-7.33.11-11,.06a4,4,0,0,0-3.43,2.17,1.27,1.27,0,0,0,0,1,2.25,2.25,0,0,0,1.67,1.63q10.38.9,20.76,1.93,23.67,4.09,47,10l20.84,4.22a2.81,2.81,0,0,1,.89,5.08,781.2,781.2,0,0,1-114.77,55.95,1195.35,1195.35,0,0,1-269,72.4,571.52,571.52,0,0,1-126,6.07,582.7,582.7,0,0,1-128.07-27.61q-20.61-6.48-41-13.71a4.77,4.77,0,0,1-3.08-5.42,2.54,2.54,0,0,1,1.33-1.57,69,69,0,0,1,14.79-3.53q131.81-24.45,261.06-60.51,55.83-15.82,113-26.35,18.43-2.79,37-4.7a28.09,28.09,0,0,0,5-.91l1-.16a7.69,7.69,0,0,0,4.73-7.8q1.28-15,1.08-30a5.47,5.47,0,0,0-2.82-3.47,74,74,0,0,0-29-7.29q-12-1.07-24-2a4.47,4.47,0,0,1-3.49-2.22,3.6,3.6,0,0,1,3.6-4.53,280.09,280.09,0,0,0,43.85-5.42,28.34,28.34,0,0,0,10.58-5.18,5.22,5.22,0,0,0,1.23-3.86A264.06,264.06,0,0,0,496,163.61a6.74,6.74,0,0,0-6.38-5.49,664.08,664.08,0,0,1-105-19.06l-139-36.15Q154.25,80.27,61.57,63.51a4.12,4.12,0,0,1,.07-8.08,877.66,877.66,0,0,1,116-33.86,468.38,468.38,0,0,1,51-7.41,473.56,473.56,0,0,1,98,2.17,1132.08,1132.08,0,0,1,199,41.35A1008.75,1008.75,0,0,1,718.67,136q11,6,21.73,12.38a2.9,2.9,0,0,1-.89,5.24q-31.49,6.6-62.92,13.47a154.29,154.29,0,0,1-24.74,2.25,2.8,2.8,0,0,0-1.84.74,2.47,2.47,0,0,0,1.85,4.34,275.26,275.26,0,0,0,65.71-6.09,200.66,200.66,0,0,1,48-4.73,128.44,128.44,0,0,1,30.94,6.7,3.36,3.36,0,0,0,3.08-5.87,314.65,314.65,0,0,0-52-33.59,1105.8,1105.8,0,0,0-150-65.19,1294,1294,0,0,0-219-56.56q-34.31-5.59-69-8.29a546.37,546.37,0,0,0-66,.39,532.9,532.9,0,0,0-145,31.06q-33.65,12.57-68,23.05a123.87,123.87,0,0,1-28.73,3.9,2,2,0,0,0-1.52,1,2.74,2.74,0,0,0-.08,2.19A2.82,2.82,0,0,0,1.77,64a21.22,21.22,0,0,0,4.8.8q32.71,3.63,65,10.07,67.91,13.11,135.06,29.79,56.49,13.55,112.66,28.4a2.73,2.73,0,0,1,.2,5.35,1056.45,1056.45,0,0,0-117,34.85q-44.55,15.92-90,29.09a375.55,375.55,0,0,1-36.76,8.16,2.35,2.35,0,0,0-2,2.76,1.54,1.54,0,0,0,1,1q11.94,2.42,23.91,4.64,46.14,11.35,91,27.26,52.07,18.43,105,34.19,12.53,3.07,25,6.46a2.56,2.56,0,0,1-.08,5q-76.12,20.37-152.88,38.34-60.18,14-121,24.74-21.54,3.92-43.35,6a2.67,2.67,0,0,0,.64,5.3,138.92,138.92,0,0,1,46.76,9.44q40.26,14.49,81,27.58a504.08,504.08,0,0,0,165,21.55Z"/><path class="cls-1" d="M290.57,386.45a1151.24,1151.24,0,0,0,180-35.88,1026.81,1026.81,0,0,0,122-44.58,303.42,303.42,0,0,1,56-19.2,140.47,140.47,0,0,1,21-2,4.13,4.13,0,0,0,2.15-.85,1.13,1.13,0,0,0,.4-.81,2.74,2.74,0,0,0-.59-2.35,2.8,2.8,0,0,0-2.21-1,135.45,135.45,0,0,0-63.74,10.4l-77,31.28a1075.27,1075.27,0,0,1-197,51.88q-38.32,6.6-76.85,11.89a3.29,3.29,0,0,0-2.73,2.4,1.5,1.5,0,0,0,.38,1.49,5.43,5.43,0,0,0,1.31,1.08,2,2,0,0,0,1.2.25q17.86-1.94,35.71-4Z"/><path class="cls-1" d="M170.59,372.84q73.42-7.38,146-21.42a548.47,548.47,0,0,0,90.86-24.94,6.63,6.63,0,0,0,1.69-1.22,1.25,1.25,0,0,0,.16-1.45,3.59,3.59,0,0,0-2.72-1.49,174.47,174.47,0,0,0-53.95,8.89,1341.37,1341.37,0,0,1-185,36.65q-17.26,2.16-34.48,4.59a2,2,0,0,0,.53,4q18.47-2,37-3.64Z"/><path class="cls-1" d="M935.64,267.85A77.54,77.54,0,0,0,955,252.3a1.82,1.82,0,0,0,.47-1.14,1.25,1.25,0,0,0-.59-.93,4.4,4.4,0,0,0-2.34-.71,43.08,43.08,0,0,0-6.62-.26,2.33,2.33,0,0,1-1.47-.45,1.42,1.42,0,0,1-.45-1.18,3,3,0,0,1,1.2-2.58,26.87,26.87,0,0,0,10-13.39,9.8,9.8,0,0,0-3.66-9.28,8.65,8.65,0,0,0-6.93.67q-8.62,5.87-17,12-20.26,13.4-41,26-2.17,1.46-4.29,3a3.67,3.67,0,0,0,.65,5.49,39.88,39.88,0,0,0,24.68,6.49,60.59,60.59,0,0,0,28-8.29Zm-188,72.49a682.45,682.45,0,0,0,144-29.23,283.28,283.28,0,0,0,66.94-31.45,87.18,87.18,0,0,0,18.16-16,5.09,5.09,0,0,0-1.28-7,19.11,19.11,0,0,1-7.2-11,199.6,199.6,0,0,1,2.43-21q.15-2.5.09-5a4.23,4.23,0,0,0-4.19-3.45q-19-.41-38,.15a41.31,41.31,0,0,0-15,10,223.91,223.91,0,0,1-46.83,36.81,6,6,0,0,0-2.33,3.58,4.94,4.94,0,0,0,2.27,3.75,82.4,82.4,0,0,0,49,10.69,78.72,78.72,0,0,0,33-14.47,66.58,66.58,0,0,1,12-6.47,3.27,3.27,0,0,1,2.85,5.5A68.39,68.39,0,0,1,942.54,280a411.78,411.78,0,0,1-76.94,26.56,889.63,889.63,0,0,1-136,20.58,52.35,52.35,0,0,0-18.92,10.25,15.62,15.62,0,0,0-1.62,1.3,1.93,1.93,0,0,0-.75,1.39,1.91,1.91,0,0,0,.56,1.47,3.3,3.3,0,0,0,2.85,1.36q18-.9,35.87-2.56Z"/><path class="cls-1" d="M535.66,195.72a36.13,36.13,0,0,0-3.48,3.3,2.9,2.9,0,0,0,3.51,4.45A107,107,0,0,0,547.55,194c.47-.37.93-.72,1.41-1.07a3.2,3.2,0,0,0-4.33-4.68q-4.65,3.56-9,7.47Zm1-16.37q-2.45,2.16-4.86,4.35a3.13,3.13,0,0,0,4.46,4.36q6.53-5.19,12.75-10.73a2,2,0,0,0,.51-1.78,3.2,3.2,0,0,0-4.87-2.58q-4.11,3.06-8,6.38Zm-43,110.27q36-5,72-10.72a173,173,0,0,0,33.06-8.64,36.47,36.47,0,0,0,20-16.6,25.4,25.4,0,0,0-13-34q-4.92-2.24-10-4.08a6.36,6.36,0,0,1-1.62-1.15l-.39-.83a3.76,3.76,0,0,1,2.3-4.39,33,33,0,0,0,24-19.53,25.21,25.21,0,0,0-11.29-29.47,85.59,85.59,0,0,0-31.06-11.68q-48.3-8.62-97-15-11.05-1.86-22.09-3.84a3.56,3.56,0,0,0-2.82,1,2,2,0,0,0,.41,2.88,13.07,13.07,0,0,0,4.49,2.28,465.52,465.52,0,0,0,71.06,16.76,502.7,502.7,0,0,1,56.44,11.8,1.84,1.84,0,0,1-1.11,3.44q-33.71-3-67.4-6.23a32.34,32.34,0,0,0-8,.35,3.53,3.53,0,0,0-2.66,3.73,53.53,53.53,0,0,0,8.38,28,52.67,52.67,0,0,1,.34,37,80.94,80.94,0,0,0-7.32,17A75.77,75.77,0,0,0,508.88,260a3.92,3.92,0,0,0,3.82,3.27,318,318,0,0,0,36.86-2.66q18.83-2.38,37.78-3.25a1.82,1.82,0,0,1,1.9,1.75,1.44,1.44,0,0,1-.5.93,9.75,9.75,0,0,1-4.17,1.5q-31.16,7.86-63,12.76a369.48,369.48,0,0,0-64.47,16,2.55,2.55,0,0,0-1.57,1.44,2.59,2.59,0,0,0,0,2.13,3.25,3.25,0,0,0,3,1.47q17.44-3.21,35-5.79Z"/><path class="cls-1" d="M781.51,246.51a46.15,46.15,0,0,1-33.08-16.7,82.12,82.12,0,0,0-14.83-12.9l-2-.81-1,0q-19.2-.17-38.41-.06a2.41,2.41,0,0,0-1.48,4,97.15,97.15,0,0,0,92.57,31,1.25,1.25,0,0,0,1-1l0-.65a6.32,6.32,0,0,0,0-1.15l-.08-.55a1.62,1.62,0,0,0-.83-.74,5.14,5.14,0,0,0-1.79-.49Z"/><path class="cls-1" d="M865.61,242.25A117.35,117.35,0,0,0,899,219.75a3.69,3.69,0,0,0,.78-1.92,1,1,0,0,0-.34-.74,5.4,5.4,0,0,0-3.85-1q-15-.15-30,.1a3.4,3.4,0,0,0-2,.78,132.25,132.25,0,0,1-22,20.11,50.77,50.77,0,0,1-15.77,7.28,3.25,3.25,0,0,0-1.79,2.73,2.11,2.11,0,0,0,.74,1.17,9.82,9.82,0,0,0,5.81,1.8,80.28,80.28,0,0,0,35-7.81Z"/><path class="cls-1" d="M728.59,209a8.52,8.52,0,0,0,7-2.34q10.41-8.76,20-18.42a50.07,50.07,0,0,1,26.78-10,3.15,3.15,0,0,0,1.24-.48,1.41,1.41,0,0,0,.5-.8,5,5,0,0,0,0-1.73,1.18,1.18,0,0,0-.47-.88,4.85,4.85,0,0,0-2.22-.89A97.59,97.59,0,0,0,694.66,201a55.75,55.75,0,0,0-4.1,4.18,2.12,2.12,0,0,0,1.14,3.45,4.3,4.3,0,0,0,1.91.32q17.49.19,35,.11Z"/><path class="cls-1" d="M899.4,207.69a2.5,2.5,0,0,0-.29-2.31,103,103,0,0,0-22.64-17A88.59,88.59,0,0,0,831.59,175a17.13,17.13,0,0,0-5.88,1.11,4.2,4.2,0,0,0-1.23,1,2.65,2.65,0,0,0-.09,2.3,2.61,2.61,0,0,0,1.77,1.48,68.61,68.61,0,0,1,32.31,21.76,64,64,0,0,0,5.25,5.55,4,4,0,0,0,1.89.7q15.89.24,31.78,0a2.17,2.17,0,0,0,2-1.29Z"/><path class="cls-1" d="M944.71,176.14a4.07,4.07,0,0,1,2-.27,56.77,56.77,0,0,0,6.65-.22,2.94,2.94,0,0,0,1.94-1.14,1.44,1.44,0,0,0-.06-1.46,32.72,32.72,0,0,0-6.72-6.47,61.16,61.16,0,0,0-52.9-16.78A25.43,25.43,0,0,0,882,156.55a3.16,3.16,0,0,0,.94,5.07q25.77,15.62,50.64,32.62a53.5,53.5,0,0,0,13.1,8.48,6.16,6.16,0,0,0,8.28-5,13.45,13.45,0,0,0-4.62-12.9,72.5,72.5,0,0,0-5.93-5.69,2,2,0,0,1,.35-3ZM965.58,209a5.16,5.16,0,0,0,3-.61,4.54,4.54,0,0,0,2.21-4.7q-.79-11.06-2.64-22a12.72,12.72,0,0,1,5.27-11.14,17.42,17.42,0,0,0,3.76-4.89,4.61,4.61,0,0,0-1.14-5,127.07,127.07,0,0,0-36.49-26.73,433.37,433.37,0,0,0-98.92-34.13A736.07,736.07,0,0,0,711.7,82.11a3.5,3.5,0,0,0-2.15.63,2.47,2.47,0,0,0-.41,3.62,73.08,73.08,0,0,0,18.44,11.07q24.52,2.44,49,5.14a692.06,692.06,0,0,1,130.06,27.81,226.32,226.32,0,0,1,49.93,22.78,21.32,21.32,0,0,1,7.44,7.48,4.64,4.64,0,0,1,.25,2.39,1.65,1.65,0,0,1-1.06,1.21,4.67,4.67,0,0,1-4.63-.16l-24-14a63.92,63.92,0,0,0-52-2.53,122.39,122.39,0,0,0-15.88,6.74,4.44,4.44,0,0,0,0,7.78A188.87,188.87,0,0,1,909.54,195a98.84,98.84,0,0,0,16,12.66,40.2,40.2,0,0,0,15,1.39q12.49,0,25-.07Z"/><path class="cls-1" d="M661.58,139.9a183,183,0,0,1-55.05-15.12q-55-23.82-111.9-43A1107.12,1107.12,0,0,0,287.57,38.4q-16.43-2-32.89-3.49a2.52,2.52,0,0,0-.58,5c2.84.34,5.69.72,8.52,1.11a1431.21,1431.21,0,0,1,189,37.37,1037.9,1037.9,0,0,1,137,49.81,220.38,220.38,0,0,0,52,16.32,110.47,110.47,0,0,0,28.89.68,3.31,3.31,0,0,0,2.5-1.64,2.59,2.59,0,0,0-.37-2.3,2.64,2.64,0,0,0-2.06-1.1l-8-.24Z"/><path class="cls-1" d="M377.58,88.46a950.21,950.21,0,0,0-131-26.74q-56.16-8.11-112.73-12.9a2.33,2.33,0,0,0-2.29,1.4,1.24,1.24,0,0,0,0,.87A2.61,2.61,0,0,0,134,52.61q76.81,9.22,152.66,24.85,42.19,9.71,84,21a133.33,133.33,0,0,0,36.67,4.2,1.91,1.91,0,0,0,1-3.68q-15.09-6-30.68-10.55Z"/></g></g></svg>