<?xml version="1.0" encoding="utf-8"?>
<!-- Generator: Adobe Illustrator 21.0.2, SVG Export Plug-In . SVG Version: 6.00 Build 0)  -->
<svg version="1.1" id="Capa_1" xmlns="http://www.w3.org/2000/svg" xmlns:xlink="http://www.w3.org/1999/xlink" x="0px" y="0px"
	 viewBox="0 0 94 94" style="enable-background:new 0 0 94 94;" xml:space="preserve">
<style type="text/css">
	.st0{fill:#CCCCCC;}
</style>
<g>
	<g>
		<path class="st0" d="M51.6,50.9c0,1.7,1.2,3.1,4.2,3.1c5.3,0,6.2-3.6,6.2-5.1v-1.1C55.8,47.8,51.6,47.9,51.6,50.9z"/>
		<path class="st0" d="M37.8,41c-4.1,0-6,3.3-6,6.5c0,3.4,2.1,6.5,6.1,6.5c3.3,0,6-2.6,6-6.5C43.8,43.7,41.5,41,37.8,41z"/>
		<path class="st0" d="M89,0H5C2.2,0,0,2.2,0,5v84c0,2.8,2.2,5,5,5h84c2.8,0,5-2.2,5-5V5C94,2.2,91.8,0,89,0z M73.6,62.5h-4.4
			l3.4-6.5l-7.3-13.8c0.3,0.8,0.5,1.7,0.5,2.9v8.5c0,1,0.1,2.5,0.1,2.5h-3.6c0,0-0.1-1.2-0.1-2.5c0,0-1.8,3.2-7.5,3.2
			c-4.2,0-7.3-2-7.3-5.7c0-0.2,0-0.4,0-0.6c-1.1,3.8-4.3,6.3-8.7,6.3c-5.2,0-7.1-3-7.1-3c0,1.1-0.1,2.4-0.1,2.4h-3.8
			c0,0,0.1-1.7,0.1-2.9v-4.6H12.4c0,3.2,2.5,5.6,5.9,5.6c4.2,0,5.1-2.9,5.1-2.9h4c0,0-0.5,5.5-8.9,5.5c-7.1,0-10.1-3.5-10.1-9
			c0-7,4.5-9.3,10-9.3c7.3,0,9.4,4.8,9.4,8V31.5h3.9v9.7c0,0,1.7-2.9,7-2.9c5.7,0,9.1,4,9.1,9.1c0,0.6-0.1,1.2-0.1,1.8
			c0.9-2.6,4.1-3.9,9.4-3.9H62v-0.8c0-2.4-2.1-3.6-4.8-3.6c-4.1,0-4.4,2.6-4.4,2.6h-4.1c0-0.7,0.5-5.2,8.7-5.2
			c2.8,0,5.9,0.6,7.4,2.9L63.7,39h4.6l6.6,13.2L81.4,39h4.2L73.6,62.5z"/>
		<path class="st0" d="M18.3,40.9c-2.9,0-5.8,1.8-5.8,5h11.2C23.7,42.9,21.5,40.9,18.3,40.9z"/>
	</g>
</g>
</svg>
