<?xml version="1.0" encoding="utf-8"?>
<!-- Generator: Adobe Illustrator 21.0.2, SVG Export Plug-In . SVG Version: 6.00 Build 0)  -->
<svg version="1.1" id="Capa_1" xmlns="http://www.w3.org/2000/svg" xmlns:xlink="http://www.w3.org/1999/xlink" x="0px" y="0px"
	 viewBox="0 0 510 510" style="enable-background:new 0 0 510 510;" xml:space="preserve">
<style type="text/css">
	.st0{fill:#CCCCCC;}
</style>
<g>
	<g id="post-gplus">
		<path class="st0" d="M234.6,175.9c0-25.5-15.3-76.5-53.6-76.5c-15.3,0-33.2,10.2-33.2,43.3c0,30.6,15.3,73.9,51,73.9
			C198.9,216.8,234.6,214.2,234.6,175.9z M219.3,300.9c-2.6,0-5.1,0-7.6,0l0,0c-7.6,0-30.6,2.5-45.9,7.6
			c-17.9,5.1-38.3,17.9-38.3,43.4c0,28,25.5,56.1,76.5,56.1c38.3,0,61.2-25.5,61.2-51C265.2,339.1,252.4,326.4,219.3,300.9z M459,0
			H51C23,0,0,23,0,51v408c0,28,23,51,51,51h408c28,0,51-23,51-51V51C510,23,487,0,459,0z M181.1,438.6
			c-71.4,0-104.6-40.8-104.6-76.5c0-12.8,2.6-40.8,38.3-61.2c20.4-12.8,45.9-20.4,79.1-23c-5.1-5.1-7.6-12.8-7.6-25.5
			c0-5.1,0-7.6,2.6-12.8h-10.2c-51,0-81.6-38.3-81.6-76.5c0-43.3,33.2-91.8,104.5-91.8h107.1l-7.6,7.7L283,96.9l-2.5,2.6h-17.9
			c10.2,10.2,22.9,28,22.9,56.1c0,35.7-17.9,53.6-40.8,68.8c-5.1,2.6-10.2,10.2-10.2,17.9s5.1,12.8,10.2,15.3
			c2.6,2.5,7.6,5.1,12.8,7.6c20.4,15.3,48.5,33.1,48.5,73.9C306,385,272.9,438.6,181.1,438.6z M433.5,255h-51v51H357v-51h-51v-25.5
			h51v-51h25.5v51h51V255z"/>
	</g>
</g>
</svg>
