<?xml version="1.0" encoding="UTF-8"?><svg xmlns="http://www.w3.org/2000/svg" viewBox="0 0 460 61.08"><defs><style>.d{fill-rule:evenodd;}</style></defs><g id="a"/><g id="b"><g id="c"><g><path class="d" d="M1.25,8.86H44.07c.71,0,1.3,.42,1.77,1.25,6.56,8.04,10.02,12.36,10.38,12.95v.82c0,.1-2.01,2.13-6.02,6.08-.18,.2-.27,.45-.27,.73,.02,.33,.07,.49,.15,.49l-.09,.15v.09l.15-.09c4.05,3.99,6.08,6.07,6.08,6.23v.79c-6.47,8.14-10.26,12.81-11.36,13.99-.12,.1-.19,.15-.21,.15H.79c-.53-.24-.79-.71-.79-1.4V10.11c.12-.83,.54-1.25,1.25-1.25Zm11.33,10.47v6.6c0,.43,.19,.64,.58,.64h24.55c.37,0,1.14-.73,2.32-2.2,.83-.75,1.25-1.28,1.25-1.59,0-.2-1.1-1.55-3.3-4.03H13.16c-.39,0-.58,.19-.58,.58Zm0,16.09v6.69c0,.39,.19,.58,.58,.58h24.55c.37,0,1.07-.73,2.11-2.2,.98-1.02,1.47-1.65,1.47-1.89s-.91-1.3-2.72-3.18c-.26-.39-.53-.58-.79-.58H13.16c-.39,0-.58,.19-.58,.58Z"/><path class="d" d="M69.02,8.86h32.86c.67,0,1.37,.5,2.11,1.5,4.26,4.62,6.64,7.25,7.15,7.88V51.7c-.24,.53-.74,.79-1.5,.79h-9.53c-1.04,0-1.56-.52-1.56-1.56v-11.36c0-.41-.2-.61-.61-.61h-25.1c-.41,.06-.61,.26-.61,.61v12.4c0,.51-1.13,1.51-3.39,2.99-5.48,4.07-8.32,6.11-8.52,6.11h-.18c-.37,0-.55-.18-.55-.55V18.84c0-.61,.34-1.15,1.01-1.62,0-.1,2.59-2.82,7.76-8.15,.31-.14,.53-.21,.67-.21Zm3.21,10.47v10.75c0,.41,.2,.61,.61,.61h25.1c.41,0,.61-.2,.61-.61v-10.75c0-.41-.2-.61-.61-.61h-25.1c-.41,.06-.61,.26-.61,.61Z"/><path class="d" d="M115.77,8.73h40.8c.65,0,1.3,.69,1.95,2.08,7.72,12.89,11.57,19.4,11.57,19.54h-.06l.06,.15v.34c0,.06-.02,.09-.06,.09,.04,.08,.06,.15,.06,.21-1.55,2.65-5.72,9.64-12.52,20.98-.29,.29-.52,.43-.7,.43h-41.53c-.53-.31-.79-.69-.79-1.16V9.96c.14-.81,.55-1.22,1.22-1.22Zm11.51,10.47v23.21c.12,.24,.32,.37,.58,.37h20.09c4.54-7.82,6.81-11.77,6.81-11.85v-.37c0-.22-1.66-3.15-4.98-8.76-1.22-2.04-1.83-3.09-1.83-3.18h-20.09c-.39,0-.58,.19-.58,.58Z"/><path class="d" d="M187.57,0c.37,.14,.55,.42,.55,.82V42.08c0,.41,.2,.61,.61,.61h34.14c.47,0,.76,.12,.89,.37v.4c0,.26-1.32,1.95-3.97,5.07-1.61,2.14-2.75,3.48-3.42,4.03h-40.16c-.55-.24-.82-.74-.82-1.5V9.44c0-.69,.92-1.58,2.75-2.66,6.01-4.52,9.13-6.78,9.38-6.78h.06Z"/><path class="d" d="M237.19,8.86h32.86c.67,0,1.37,.5,2.11,1.5,4.26,4.62,6.64,7.25,7.15,7.88V51.7c-.24,.53-.74,.79-1.5,.79h-9.53c-1.04,0-1.56-.52-1.56-1.56v-11.36c0-.41-.2-.61-.61-.61h-25.1c-.41,.06-.61,.26-.61,.61v12.4c0,.51-1.13,1.51-3.39,2.99-5.48,4.07-8.32,6.11-8.52,6.11h-.18c-.37,0-.55-.18-.55-.55V18.84c0-.61,.34-1.15,1.01-1.62,0-.1,2.59-2.82,7.76-8.15,.31-.14,.53-.21,.67-.21Zm3.21,10.47v10.75c0,.41,.2,.61,.61,.61h25.1c.41,0,.61-.2,.61-.61v-10.75c0-.41-.2-.61-.61-.61h-25.1c-.41,.06-.61,.26-.61,.61Z"/><path class="d" d="M323.62,8.86h9.59c.63,0,1.09,.27,1.37,.82V51.64c-.31,.53-.71,.79-1.22,.79-.41,0-3.58-.02-9.53-.06-.49,0-1.41-.7-2.78-2.11l-25.29-22.51h-.21c-.18,.04-.27,.17-.27,.4v24.34c-7.7,5.72-11.65,8.58-11.85,8.58h-.34c-.26-.14-.4-.39-.4-.73V10.41c0-.96,.52-1.44,1.56-1.44h9.13c.67,0,1.49,.55,2.44,1.65l25.77,22.96h.18c.18-.04,.27-.17,.27-.4V10.41c0-1.04,.52-1.56,1.56-1.56Z"/><path class="d" d="M340.35,8.73h40.8c.65,0,1.3,.69,1.95,2.08,7.72,12.89,11.57,19.4,11.57,19.54h-.06l.06,.15v.34c0,.06-.02,.09-.06,.09,.04,.08,.06,.15,.06,.21-1.55,2.65-5.72,9.64-12.52,20.98-.29,.29-.52,.43-.7,.43h-41.53c-.53-.31-.79-.69-.79-1.16V9.96c.14-.81,.55-1.22,1.22-1.22Zm11.51,10.47v23.21c.12,.24,.32,.37,.58,.37h20.09c4.54-7.82,6.81-11.77,6.81-11.85v-.37c0-.22-1.66-3.15-4.98-8.76-1.22-2.04-1.83-3.09-1.83-3.18h-20.09c-.39,0-.58,.19-.58,.58Z"/><path class="d" d="M411.38,8.86h47.76c.41,0,.66,.15,.76,.46v.24c0,.28-1.17,1.8-3.51,4.55-1.91,2.5-3.22,4.04-3.91,4.61-.29,.04-.52,.06-.7,.06h-31.73c-.9,0-1.5,.37-1.8,1.1-1.57,1.87-2.35,3.07-2.35,3.6,.18,.65,.78,1.54,1.8,2.66,.2,.1,.49,.15,.86,.15h32.46c.9,0,1.47,.37,1.71,1.1,4.85,6.76,7.27,10.22,7.27,10.38v.55c0,.33-1.3,2.18-3.91,5.56-3.4,4.74-5.51,7.58-6.32,8.52-.14,.1-.22,.15-.24,.15h-49.11c-.06,0-.16-.13-.31-.4v-.21c0-.29,1.17-1.8,3.51-4.55,1.93-2.52,3.24-4.06,3.91-4.61,.28-.06,.52-.09,.7-.09h31.76c.88,0,1.48-.36,1.8-1.07,1.55-1.91,2.32-3.11,2.32-3.6,0-.31-.52-1.14-1.56-2.5-.18-.2-.57-.31-1.16-.31h-32.83c-.51,0-1.39-1.02-2.66-3.05-3.79-5.29-5.74-8.11-5.86-8.46-.06-.08-.09-.2-.09-.37,0-.41,1.57-2.63,4.7-6.66,2.73-3.89,4.6-6.41,5.62-7.57,.18-.16,.55-.24,1.1-.24Z"/></g></g></g></svg>