<?xml version="1.0" encoding="UTF-8"?><svg xmlns="http://www.w3.org/2000/svg" viewBox="0 0 460 254.91"><defs><style>.d{fill:#231f20;fill-rule:evenodd;}</style></defs><g id="a"/><g id="b"><g id="c"><g><path class="d" d="M118.72,235.91c0,.64-.52,1.16-1.16,1.16h-18.06v-5.95h18.06c.64,0,1.16,.52,1.16,1.16v3.63Zm15.95,2.63c1.7-.51,2.94-2.08,2.94-3.94v-5.31c0-2.27-1.84-4.11-4.11-4.11h-52.88v29.74h18.89v-10.73c0-.64,.52-1.16,1.16-1.16h16.9c.64,0,1.16,.52,1.16,1.16v10.73h18.89v-9.42c0-1.86-1.24-3.43-2.94-3.94-.66-.19-1.13-.79-1.13-1.51s.47-1.32,1.13-1.5Z"/><path class="d" d="M441.11,232.28v15.52c0,.64-.52,1.16-1.16,1.16h-16.9c-.64,0-1.16-.52-1.16-1.16v-15.52c0-.64,.52-1.16,1.16-1.16h16.9c.64,0,1.16,.52,1.16,1.16Zm14.78-7.11h-48.77c-2.27,0-4.11,1.84-4.11,4.11v21.51c0,2.27,1.84,4.11,4.11,4.11h48.77c2.27,0,4.11-1.84,4.11-4.11v-21.51c0-2.27-1.84-4.11-4.11-4.11Z"/><path class="d" d="M360.5,243.72v4.08c0,.64-.52,1.16-1.16,1.16h-16.9c-.64,0-1.16-.52-1.16-1.16v-15.52c0-.64,.52-1.16,1.16-1.16h16.9c.64,0,1.16,.52,1.16,1.16v4.08h18.89v-7.08c0-2.27-1.84-4.11-4.11-4.11h-48.78c-2.27,0-4.11,1.84-4.11,4.11v21.51c0,2.27,1.84,4.11,4.11,4.11h48.78c2.27,0,4.11-1.84,4.11-4.11v-7.08h-18.89Z"/><path class="d" d="M241.79,254.91v-29.74h19.56l17.11,17.51c.53,.54,1.44,.17,1.44-.59v-16.93h18.89v29.74h-19.56l-17.11-17.51c-.53-.54-1.44-.17-1.44,.59v16.92h-18.89Z"/><path class="d" d="M38.11,235.91c0,.64-.52,1.16-1.16,1.16H18.89v-5.95h18.06c.64,0,1.16,.52,1.16,1.16v3.63Zm0,11.89c0,.64-.52,1.16-1.16,1.16H18.89v-5.95h18.06c.64,0,1.16,.52,1.16,1.16v3.63Zm15.95-9.26c1.7-.51,2.94-2.08,2.94-3.94v-5.31c0-2.27-1.84-4.11-4.11-4.11H0v29.74H52.89c2.27,0,4.11-1.84,4.11-4.11v-5.31c0-1.86-1.24-3.43-2.94-3.94-.66-.19-1.13-.79-1.13-1.51s.47-1.32,1.13-1.5Z"/><path class="d" d="M199.29,232.28v15.52c0,.64-.52,1.16-1.16,1.16h-16.9c-.64,0-1.16-.52-1.16-1.16v-15.52c0-.64,.52-1.16,1.16-1.16h16.9c.64,0,1.16,.52,1.16,1.16Zm14.78-7.11h-48.78c-2.27,0-4.11,1.84-4.11,4.11v21.51c0,2.27,1.84,4.11,4.11,4.11h48.78c2.27,0,4.11-1.84,4.11-4.11v-21.51c0-2.27-1.84-4.11-4.11-4.11Z"/><path class="d" d="M252.88,97.06c-1.55,4.46-4.19,14.43-9.43,19.26-5.91,5.43-14.46,6.72-15.15,8.96-.99,3.17-3.88,18.2-4.09,19.31-.21,1.11,.81,1.85,.87,4.14,.06,2.29-1.5,3.96-1.46,5.24,.04,1.28,.64,19.43,.87,21.29,.32,2.63,2.55,4.1,2.55,7.74,0,2.04-2.5,4.23-2.68,5.68-.18,1.46,1.43,2.4,1.41,2.96-.02,.56-.41,3.78-.64,4.96-.23,1.18-1.13,1.53-5.89,3.15-4.76,1.62-10.28,2.42-10.67,1.86-.52-.72,.83-5.23,1.86-7.86,1.03-2.64,3.02-3.59,3.91-4.9,.89-1.32,.2-2.94,.08-5.34-.12-2.4,1.23-5.53,1-7.68-.14-1.38-.92-9.22-1.71-14.94-1.78,4.1-5.28,12.18-5.66,13.33-.5,1.55,0,3.28-.09,4.55-.09,1.28-1.19,2.31-2.28,3.32-1.09,1.01-.83,2.2-.9,2.97-.07,.77,.73,1.28,1.06,1.85,.33,.57-.15,6.12-1.49,6.45-7.67,1.88-15.02,2.01-15.21,1.68-.36-.61,1.37-5.12,2.7-6.52,1.33-1.39,4.44-3.96,4.24-6.98-.2-3.02,.67-4.85,2.08-5.83,1.41-.99,1.88-4.13,3.02-8.21,1.14-4.07,2.3-12.17,2.14-15.19-.16-3.01-.21-6.11,.41-8.28,.62-2.17,.23-4.91,0-6.92-.23-2-1.72-8.65-2.62-9.99-.74-1.12-7.39-8.84-8.67-9.26-1.27-.42-4.23-.48-6.36,.43-2.13,.91-1.93,1.99-1.7,2.35,.23,.37,1.96,2.23,1.96,3.05s-.82,10.11-.64,11.93c.18,1.82,2.41,5.43,2.86,6.27,1.02,1.92,.83,3.42,1.17,4.84,.34,1.43,2.94,3.46,3.31,4.46,.36,1-2.7,5.04-3.01,4.69-.32-.35-2.61-3.44-3.07-4.02-.45-.58-.09-1.82-.39-2.15-.17-.19-2.5-.33-2.91-.02-.41,.32-.32,3.46-.05,3.87,.27,.41,3.64,4.01,3.87,4.41,.23,.41-1.09,1.68-2.19,1.78-1.1,.09-5.78,.87-7.42,0-1.64-.87-1.09-2.68-2.09-4.6-1-1.91-10.42-12.06-12.06-13.75-1.64-1.68-4.46-3.91-5.37-5.51-.91-1.59-1.25-5.99-1.67-7.13-.41-1.14-5.66-3.16-7.39-8.21-1.73-5.05-1-8.69-1-8.69,2.19-.33,4.43,.82,5.32,1.27-.45-6.1,1.55-15.93,1.69-18.71,.34-6.96-1.96-14.93-1.96-14.93,5.82,1.65,9.29,9.56,9.29,9.56,2.96-6.28,11.7-15.12,13.77-17.79,3.83-4.92,4.44-11.78,4.44-11.78,2.46,2.16,3.34,5.78,3.16,9.41-.1,2.04,.48,2.09,1.17,1.21,6.42-8.34,11.82-8.49,11.82-8.49,0,0-2.29,7.96-.65,8.26,4.74,.83,16.28-13.4,16.28-13.4,1.18,7.97-2.35,14.36-2.35,14.36,9.62-3.99,29.89-20.74,37.46-25.86,7.58-5.12,12.95-4.38,17.32-4.88,4.37-.5,26-4.38,26.95-11.06,1.14-7.92-11.3-11.29-11.3-11.29,.73-1.85,2.82-2.41,2.82-2.41-.95-1.16-6.32-3.74-10.99-1.96-5.47,2.1-7.25-.13-7.25-.13,2.32-1.05,3.89-2.17,4.32-2.98,.37-.69,0-1.35-.66-1.29-1.45,.13-2.33,1.23-3.8,1.59-4.23,1.04-5.85-.76-5.85-.76,7.1-1.98,7.5-12.63,27.14-9.03,11.9,2.18,17.8,11.29,17.8,11.29,.53-1.32,1.59-2.27,1.59-2.27,4.23,5.74,8.02,12.73,4.92,21.9-2.85,8.43-14.56,10.36-23.04,13.04-1.56,.5-1.06,1.73-.89,2.39,.18,.65,4.13,9.45,5.68,14.17,1.55,4.72,1.58,8.14-.02,11.29-1.38,2.71-9.61,10.54-9.57,11.14,.03,.47,3.24,.12,6.76,.34,4.48,.28,16.99-.12,17.11,1.85,.1,1.5-.85,3.82-2.12,6.06-1.27,2.25-2.79,4.43-4.37,5.67-3.46,2.71-22.51,15.35-24.56,17.08-2.05,1.73-1.46,3.36-2.32,4.28-.86,.91-2.46,.73-2.37,1.73,.09,1,4.1,.96,4.23,2.55,.42,4.9-.68,17.35-2.45,16.84-2.55-.72-4.94-3.26-5.78-5.79-.53,1.88-1.55,5.01-2.24,4.62-4.07-2.34-4.75-6.77-5.42-8.09-.67-1.33-1.96-2.26-2.45-3.8-.5-1.54,1.17-2.94,1.53-5.59,.6-4.4,1.34-6.08,3.11-7.84,1.77-1.76,4.99-3.94,8.41-6.95,1.53-1.35,2.72-2.93,3.57-4.25,0,0-8.32,1.3-9.16,1.41-.84,.11-2.36,.17-3.14-.05-.78-.22-4.31-2.19-6.89-4.77-.25-.25-1.49-1.91-1.49-1.91Z"/></g></g></g></svg>