<?xml version="1.0" encoding="UTF-8"?><svg xmlns="http://www.w3.org/2000/svg" viewBox="0 0 460 29.74"><defs><style>.d{fill:#231f20;fill-rule:evenodd;}</style></defs><g id="a"/><g id="b"><g id="c"><g><path class="d" d="M118.72,10.74c0,.64-.52,1.16-1.16,1.16h-18.06V5.95h18.06c.64,0,1.16,.52,1.16,1.16v3.63Zm15.95,2.63c1.7-.51,2.94-2.08,2.94-3.94V4.11C137.6,1.84,135.77,0,133.49,0h-52.88V29.74h18.89v-10.73c0-.64,.52-1.16,1.16-1.16h16.9c.64,0,1.16,.52,1.16,1.16v10.73h18.89v-9.42c0-1.86-1.24-3.43-2.94-3.94-.66-.19-1.13-.79-1.13-1.51s.47-1.32,1.13-1.5Z"/><path class="d" d="M441.11,7.11v15.52c0,.64-.52,1.16-1.16,1.16h-16.9c-.64,0-1.16-.52-1.16-1.16V7.11c0-.64,.52-1.16,1.16-1.16h16.9c.64,0,1.16,.52,1.16,1.16ZM455.89,0h-48.77c-2.27,0-4.11,1.84-4.11,4.11V25.63c0,2.27,1.84,4.11,4.11,4.11h48.77c2.27,0,4.11-1.84,4.11-4.11V4.11C460,1.84,458.16,0,455.89,0Z"/><path class="d" d="M360.5,18.55v4.08c0,.64-.52,1.16-1.16,1.16h-16.9c-.64,0-1.16-.52-1.16-1.16V7.11c0-.64,.52-1.16,1.16-1.16h16.9c.64,0,1.16,.52,1.16,1.16v4.08h18.89V4.11c0-2.27-1.84-4.11-4.11-4.11h-48.78c-2.27,0-4.11,1.84-4.11,4.11V25.63c0,2.27,1.84,4.11,4.11,4.11h48.78c2.27,0,4.11-1.84,4.11-4.11v-7.08h-18.89Z"/><path class="d" d="M241.79,29.74V0h19.56l17.11,17.51c.53,.54,1.44,.17,1.44-.59V0h18.89V29.74h-19.56l-17.11-17.51c-.53-.54-1.44-.17-1.44,.59V29.74h-18.89Z"/><path class="d" d="M38.11,10.74c0,.64-.52,1.16-1.16,1.16H18.89V5.95h18.06c.64,0,1.16,.52,1.16,1.16v3.63Zm0,11.89c0,.64-.52,1.16-1.16,1.16H18.89v-5.95h18.06c.64,0,1.16,.52,1.16,1.16v3.63Zm15.95-9.26c1.7-.51,2.94-2.08,2.94-3.94V4.11C57,1.84,55.16,0,52.89,0H0V29.74H52.89c2.27,0,4.11-1.84,4.11-4.11v-5.31c0-1.86-1.24-3.43-2.94-3.94-.66-.19-1.13-.79-1.13-1.51s.47-1.32,1.13-1.5Z"/><path class="d" d="M199.29,7.11v15.52c0,.64-.52,1.16-1.16,1.16h-16.9c-.64,0-1.16-.52-1.16-1.16V7.11c0-.64,.52-1.16,1.16-1.16h16.9c.64,0,1.16,.52,1.16,1.16ZM214.07,0h-48.78c-2.27,0-4.11,1.84-4.11,4.11V25.63c0,2.27,1.84,4.11,4.11,4.11h48.78c2.27,0,4.11-1.84,4.11-4.11V4.11C218.18,1.84,216.34,0,214.07,0Z"/></g></g></g></svg>