<?xml version="1.0" encoding="UTF-8"?><svg xmlns="http://www.w3.org/2000/svg" viewBox="0 0 460 65.52"><defs><style>.d{fill-rule:evenodd;}</style></defs><g id="a"/><g id="b"><g id="c"><g><path class="d" d="M57.53,0h71.07c.9,.07,1.34,.32,1.34,.73V4.78c-.25,.34-.7,.51-1.34,.51h-46.04c-1.15,0-1.72,.41-1.72,1.25v2.95c0,.56,.41,.84,1.24,.84h45.66c.79,0,1.24,.33,1.34,.99v3.59c-.11,.66-.56,.99-1.34,.99h-45.66c-.82,0-1.24,.28-1.24,.84v8.7c0,.34-.22,.6-.67,.79h-23.21c-.45-.18-.67-.45-.67-.79V.86c.07-.57,.48-.86,1.24-.86Z"/><path class="d" d="M138.19,0h21.97c.63,0,1.03,.16,1.21,.48V25.71c0,.22-.25,.39-.75,.51h-22.88c-.41,0-.68-.23-.81-.68V.86c0-.57,.42-.86,1.26-.86Z"/><path class="d" d="M170.13,0h66.48c2.9,0,4.82,.83,5.75,2.49,.13,.28,.19,.48,.19,.59v5.82c0,1.03-1.08,1.96-3.25,2.8-.9,.34-1.5,.67-1.83,.99-.21,.21-.28,.45-.19,.71,.05,.27,.28,.51,.67,.71,3.06,.89,4.59,2.03,4.59,3.41v8.31c0,.06-.19,.19-.56,.38h-23.21c-.45-.18-.67-.45-.67-.79v-8.42c0-.83-.52-1.25-1.56-1.25h-21.38c-1.15,0-1.72,.43-1.72,1.3v8.37c0,.34-.22,.6-.67,.79h-23.21c-.45-.18-.67-.45-.67-.79V.86c.07-.57,.48-.86,1.24-.86Zm23.31,5.29v5.18h22.91c1.16,0,1.75-.4,1.75-1.19v-2.75c0-.83-.58-1.25-1.75-1.25h-22.91Z"/><path class="d" d="M255.52,.07h61.75c2.72,0,4.58,.83,5.56,2.49,.2,.37,.3,.91,.3,1.63v3c-.11,.48-.46,.71-1.05,.71h-22.45c-.7-.07-1.05-.31-1.05-.71v-.53c0-.87-.57-1.3-1.72-1.3h-21.11c-1.22,0-1.83,.41-1.83,1.25v1.7c0,.78,.58,1.17,1.75,1.17h44.4c1.59,0,2.58,.46,2.95,1.37l.11,.38v10.93c0,1.88-1.08,3.14-3.25,3.79-.61,.17-1.06,.26-1.34,.26h-64.54c-1.34,0-2.66-.65-3.95-1.96-.38-.44-.56-1.14-.56-2.09v-2.87c.11-.57,.46-.86,1.05-.86h22.35c.7,0,1.05,.46,1.05,1.37,0,.78,.61,1.17,1.83,1.17h21.11c1.15,0,1.72-.43,1.72-1.3v-1.5c0-.78-.55-1.17-1.64-1.17h-44.29c-1.41,0-2.41-.48-2.98-1.45-.13-.17-.19-.41-.19-.71V4.19c0-1.98,1.22-3.28,3.65-3.92,.54-.13,1.33-.2,2.39-.2Z"/><path class="d" d="M331.29,0h71.07c.9,.07,1.34,.32,1.34,.73V4.78c-.25,.34-.7,.51-1.34,.51h-21.3c-1.2,0-1.8,.41-1.8,1.25V25.56c-.09,.44-.38,.66-.89,.66h-22.91c-.45-.18-.67-.45-.67-.79V6.08c0-.52-.38-.79-1.15-.79h-22.35c-.82-.04-1.24-.32-1.24-.84V.86c.07-.57,.48-.86,1.24-.86Z"/><path class="d" d="M1.24,39.3H72.31c.9,.07,1.34,.32,1.34,.73v4.05c-.25,.34-.7,.51-1.34,.51H26.27c-1.15,0-1.72,.41-1.72,1.25v2.95c0,.56,.41,.84,1.24,.84h45.66c.79,0,1.24,.33,1.34,.99v3.59c-.11,.66-.56,.99-1.34,.99H25.79c-.82,0-1.24,.28-1.24,.84v3.02c0,.82,.57,1.23,1.72,1.23h45.85c.73,0,1.24,.15,1.53,.46v4.12c-.13,.44-.45,.66-.97,.66H.67c-.45-.18-.67-.45-.67-.79v-24.57c.07-.57,.48-.86,1.24-.86Z"/><path class="d" d="M81.81,39.3h66.48c2.9,0,4.82,.83,5.75,2.49,.13,.28,.19,.48,.19,.59v19.94c0,1.27-1.18,2.29-3.55,3.08-.41,.09-.7,.13-.86,.13H81.25c-.45-.18-.67-.45-.67-.79v-24.57c.07-.57,.48-.86,1.24-.86Zm23.31,5.29v15.69h23.1c1.04,0,1.56-.41,1.56-1.23v-13.22c0-.83-.58-1.25-1.75-1.25h-22.91Z"/><path class="d" d="M162.47,39.3h21.97c.63,0,1.03,.16,1.21,.48v25.23c0,.22-.25,.39-.75,.51h-22.88c-.41,0-.68-.23-.81-.68v-24.68c0-.57,.42-.86,1.26-.86Z"/><path class="d" d="M194.41,39.3h71.07c.9,.07,1.34,.32,1.34,.73v4.05c-.25,.34-.7,.51-1.34,.51h-21.3c-1.2,0-1.8,.41-1.8,1.25v19.02c-.09,.44-.39,.66-.89,.66h-22.91c-.45-.18-.67-.45-.67-.79v-19.35c0-.52-.39-.79-1.15-.79h-22.35c-.82-.04-1.24-.32-1.24-.84v-3.59c.07-.57,.48-.86,1.24-.86Z"/><path class="d" d="M275.07,39.3h21.97c.63,0,1.03,.16,1.21,.48v25.23c0,.22-.25,.39-.75,.51h-22.88c-.41,0-.68-.23-.81-.68v-24.68c0-.57,.42-.86,1.26-.86Z"/><path class="d" d="M311.52,39.3h61.97c2.9,0,4.82,.83,5.75,2.49,.13,.28,.19,.48,.19,.59v19.94c0,1.27-1.18,2.29-3.55,3.08-.41,.09-.7,.13-.86,.13h-64.73c-1.34,0-2.62-.63-3.84-1.9-.45-.45-.67-1.08-.67-1.89v-18.49c0-1.86,1.28-3.12,3.84-3.81,.64-.09,1.28-.13,1.91-.13Zm18.8,6.54v13.22c0,.82,.57,1.23,1.72,1.23h21.38c1.04,0,1.56-.41,1.56-1.23v-13.22c0-.83-.58-1.25-1.75-1.25h-21.19c-1.15,0-1.72,.41-1.72,1.25Z"/><path class="d" d="M387.59,39.3h24.09c14.9,10.42,22.41,15.64,22.54,15.64h.38c.64-.09,.97-.31,.97-.66v-14.12c.05-.57,.47-.86,1.24-.86h22.05c.5,0,.89,.15,1.15,.46v25.38c0,.06-.19,.19-.56,.38h-24.76c-14.9-10.41-22.41-15.62-22.54-15.62h-.27c-.52,0-.84,.24-.97,.71v14.12c0,.34-.22,.6-.67,.79h-23.21c-.45-.18-.67-.45-.67-.79v-24.57c.07-.57,.48-.86,1.24-.86Z"/></g></g></g></svg>