<?xml version="1.0" encoding="UTF-8"?><svg xmlns="http://www.w3.org/2000/svg" viewBox="0 0 460 44.14"><defs><style>.d{fill:#231f20;fill-rule:evenodd;}</style></defs><g id="a"/><g id="b"><g id="c"><g><polygon class="d" points="74 6.7 54.8 30.29 61.72 6.7 46.51 6.7 20.18 24.93 38.51 0 20.18 0 0 28.25 6.53 38.29 20.38 38.29 41.93 23.27 36.27 44.14 45.56 44.14 68.73 35.67 91.65 6.7 74 6.7"/><polygon class="d" points="97.6 6.7 73.61 35.67 92.23 35.67 116.22 6.7 97.6 6.7"/><path class="d" d="M203.19,6.7h-35.98l-13.84,16.37h16.57l7.12-9.26h14.82l5.77,6.32c.56,.61,.61,1.53,.12,2.2l-4.42,6.01H122.17l18.04-21.64h-18.72l-20.35,24.57c-1.45,1.75-.2,4.39,2.07,4.39h101.45l10.18-12.4c.98-1.19,.93-2.93-.12-4.06l-11.53-12.5Z"/><path class="d" d="M376.89,16.46l-1.91,2.03h-21.55l3.61-4.68h18.7c1.38,0,2.09,1.64,1.15,2.65Zm17.2-1.96l-4.97-7.8h-44.36l-22.99,27.32-7.33-6.95h6.43l10.73-12.97-6.73-7.4h-115.44l6.11,7.11h19.53l-18.04,21.85h19.11l17.55-21.76h59.57l-5.65,6.34h-37.54l-12.87,15.42h18.33l7.02-8.59h11.31l8.97,8.59h36.27l7.99-9.57h21.74l-8.09,9.57h18.91l14.17-17.07c.97-1.16,1.07-2.82,.26-4.09Z"/><polygon class="d" points="460 6.7 438.06 6.7 418.17 16.94 426.36 6.7 408.03 6.7 383.85 35.67 402.96 35.67 410.57 25.91 434.75 44.14 453.76 44.14 426.66 24.05 460 6.7"/></g></g></g></svg>