<?xml version="1.0" encoding="utf-8"?>
<!-- Generator: Adobe Illustrator 27.9.1, SVG Export Plug-In . SVG Version: 6.00 Build 0)  -->
<svg class="w" version="1.1" xmlns="http://www.w3.org/2000/svg" xmlns:xlink="http://www.w3.org/1999/xlink" x="0px" y="0px"
	 viewBox="0 0 5084.7 877.2" style="enable-background:new 0 0 5084.7 877.2;" xml:space="preserve">
     $gradientDefs

 <path class="maincolor" d="M0.1,488.1c15.6,92.4,129.2,118.3,293.7,170.4c145.1,45.9,312.6,44.3,390.5,47s1451.9,11.9,1451.9,11.9h21.8
	c0,0,1236.4,8.8,1268.7,9.7c119.3,3.3,129.7,0.9,286.5,72.2c137.9,62.7,128.7,75.2,346.9,77.6c82.9,0.9,809-0.1,875.8,0
	c80.2,0.1,111.7-19.6,112.2-95.9c0.5-70.2,7.4-171-17.5-256.7c-0.8-2.6-3.6-4.1-6.1-3.1l-1,0.4c-2.2,0.9-3.3,3.1-2.8,5.4
	c0.1,0.3,0.1,0.7,0.2,1c1.7,8.9,2.3,16.6,1.2,22.5c-2.5,12.9-4.6,42.2-12.1,69.8c-6.3,23.3-11.9,26.6-39,29.8
	c-27,3.1-352.9,2.8-390.7,2.8c-21.6,0-18.2-2-22.9-8.7c-4.7-6.7-4.3-5.8-19.8-5.7c-377,1.6-1474.4-4.8-2396.4-10.7l-21.9-0.2
	c-630.8-4.1-1177.2-7.8-1352.7-8.5c-183.6-0.7-262.3,11-475.9-32.8C165.7,560.6,43,540.3,13.6,484.9c-1-1.8-3.1-2.3-5.2-2.3l-2.2,0
	C3,482.6-0.5,485,0.1,488.1z"/>


<path class="accentcolor" d="M5031.3,651.7c0.1,42.9-1.2,93.7-1.3,129.4c-0.1,20-2.2,46.8-18.4,61.5c-15.8,14.3-52,16.4-75.5,16.2
	l-152.4,0.1c-241.2,0.3-482.4,0.3-723.6-0.1c-41.1-0.2-86.9-1.4-128.8-4.5c-16.9-1.3-33.8-3.4-50.5-6.5
	c-25.8-5.1-50.8-13.5-74.6-24.8c-60.8-28.8-90.6-42.8-149.3-68.3c-49.7-21.7-96.4-39.1-150.8-42.4c-26.4-1.7-52.8-2.7-79.3-3.1
	c-20.6-0.2-2505.9-18.9-2523.6-19c-72.9-0.5-145.8-1.3-218.7-2.6c-33.2-0.9-66.3-1.9-99.5-3c-33.3-1.3-66.6-3.7-99.7-7
	c-30.2-3-60.2-7.3-90-12.6c-64.6-11.6-112.1-28.7-173.8-47.7c-29.2-8.9-58.1-18.7-86.6-29.4c-23.5-8.9-54.2-22.4-76.9-39.7l-1.2-0.9
	c-0.6-0.4-0.6-1.3-0.1-1.8l0,0c0.4-0.4,1-0.5,1.4-0.2c0.5,0.3,1.5,0.9,1.5,0.9c23.7,14,53.5,29.8,246.3,85.6
	c118,34.1,257.1,35.2,378.8,37.8c72.8,1.3,145.6,2.2,218.4,2.6c28.7,0.2,2492.2,18.7,2523.6,19c26.8,0.3,53.5,1.3,80.2,3.1
	c56.9,3.5,104.9,21.3,156.9,43.9c56.9,24.7,91.6,41,149.9,68.6c22.3,10.7,45.9,18.6,70.2,23.4c48.1,9.2,132,10.5,175.9,10.7
	c241.2,0.3,482.3,0.3,723.5,0.1l152.7-0.1c17.9,0.1,52.1-0.7,63.4-10.9c11.6-10.6,15.3-19.3,18.6-45.7c1.4-10.7,9.2-132.7,9.2-132.7
	c0.1-0.9,0.6-1.6,1.4-1.9C5030.2,649.2,5031.3,650.5,5031.3,651.7z"/>

<path class="maincolor" d="M5049.9,5.4c-15.6,92.4-129.2,118.3-293.7,170.4c-145.1,45.9-312.6,44.3-390.5,47
	c-77.8,2.7-1451.9,11.9-1451.9,11.9H2892c0,0-1236.4,8.8-1268.7,9.7c-119.3,3.3-129.7,0.9-286.5,72.2
	c-137.9,62.7-128.7,75.2-346.9,77.6c-82.9,0.9-809-0.1-875.8,0C33.9,394.2,2.5,374.5,2,298.3c-0.5-70.2-7.4-171,17.5-256.7
	c0.8-2.6,3.6-4.1,6.1-3.1l1,0.4c2.2,0.9,3.3,3.1,2.8,5.4c-0.1,0.3-0.1,0.7-0.2,1c-1.7,8.9-2.3,16.6-1.2,22.5
	c2.5,12.9,4.6,42.2,12.1,69.8c6.3,23.3,11.9,26.6,39,29.8c27,3.1,352.9,2.8,390.7,2.8c21.6,0,18.2-2,22.9-8.7
	c4.7-6.7,4.3-5.8,19.8-5.7c377,1.6,1474.4-4.8,2396.4-10.7l21.9-0.2c630.8-4.1,1177.2-7.8,1352.7-8.5c183.6-0.7,262.3,11,475.9-32.8
	C4884.3,78,5007,57.6,5036.4,2.3c1-1.8,3.1-2.3,5.2-2.3l2.2,0C5047,0,5050.4,2.3,5049.9,5.4z"/>

<path class="accentcolor" d="M18.7,169c-0.1,42.9,1.2,93.7,1.3,129.4c0.1,20,2.2,46.8,18.4,61.5c15.8,14.3,52,16.4,75.5,16.2l152.4,0.1
	c241.2,0.3,482.4,0.3,723.6-0.1c41.1-0.2,86.9-1.4,128.8-4.5c16.9-1.3,33.8-3.4,50.5-6.5c25.8-5.1,50.8-13.5,74.6-24.8
	c60.8-28.8,90.6-42.8,149.3-68.3c49.7-21.7,96.4-39.1,150.8-42.4c26.4-1.7,52.8-2.7,79.3-3.1c20.6-0.2,2505.9-18.9,2523.6-19
	c72.9-0.5,145.8-1.3,218.7-2.6c33.2-0.9,66.3-1.9,99.5-3c33.3-1.3,66.6-3.7,99.7-7c30.2-3,60.2-7.3,90-12.6
	c64.6-11.6,112.1-28.7,173.8-47.7c29.2-8.9,58.1-18.7,86.6-29.4c23.5-8.9,54.2-22.4,76.9-39.7l1.2-0.9c0.6-0.4,0.6-1.3,0.1-1.8l0,0
	c-0.4-0.4-1-0.5-1.4-0.2c-0.5,0.3-1.5,0.9-1.5,0.9c-23.7,14-53.5,29.8-246.3,85.6c-118,34.1-257.1,35.2-378.8,37.8
	c-72.8,1.3-145.6,2.2-218.4,2.6c-28.7,0.2-2492.2,18.7-2523.6,19c-26.8,0.3-53.5,1.3-80.2,3.1c-56.9,3.5-104.9,21.3-156.9,43.9
	c-56.9,24.7-91.6,41-149.9,68.6c-22.3,10.7-45.9,18.6-70.2,23.4c-48.1,9.2-132,10.5-175.9,10.7c-241.2,0.3-482.3,0.3-723.5,0.1
	l-152.7-0.1c-17.9,0.1-52.1-0.7-63.4-10.9c-11.6-10.6-15.3-19.3-18.6-45.7c-1.4-10.7-9.2-132.7-9.2-132.7c-0.1-0.9-0.6-1.6-1.4-1.9
	C19.8,166.6,18.7,167.9,18.7,169z"/>

<text class="textcolor" textLength="850" lengthAdjust="spacingAndGlyphs" transform="matrix(1.2536 0 0 1 95.1431 336.3031)" style="font-family:'Square721-Cn-Bold'; font-size:155.1121px;">
	<tspan x="0" y="0">$textRef</tspan>
</text>

<text class="textcolor" textLength="850" lengthAdjust="spacingAndGlyphs" transform="matrix(1.2536 0 0 1 3907.9192 818.9528)" style="font-family:'Square721-Cn-Bold'; font-size:155.1121px;">
	<tspan x="0" y="0">$textRef</tspan>
</text>


</svg>
