<?xml version="1.0" encoding="utf-8"?>
<!-- Generator: Adobe Illustrator 27.9.1, SVG Export Plug-In . SVG Version: 6.00 Build 0)  -->
<svg class="w" version="1.1" xmlns="http://www.w3.org/2000/svg" xmlns:xlink="http://www.w3.org/1999/xlink" x="0px" y="0px"
	 viewBox="0 0 5084.7 882.5" style="enable-background:new 0 0 5084.7 882.5;" xml:space="preserve">
     $gradientDefs

     <path class="maincolor" d="M5049.9,5.4c-15.6,92.4-129.2,118.3-293.7,170.4c-145.1,45.9-312.6,44.3-390.5,47
	c-77.8,2.7-1451.9,11.9-1451.9,11.9H2892c0,0-1236.4,8.8-1268.7,9.7c-119.3,3.3-129.7,0.9-286.5,72.2
	c-137.9,62.7-128.7,75.2-346.9,77.6c-82.9,0.9-809-0.1-875.8,0C33.9,394.2,2.5,374.5,2,298.3c-0.5-70.2-7.4-171,17.5-256.7
	c0.8-2.6,3.6-4.1,6.1-3.1l1,0.4c2.2,0.9,3.3,3.1,2.8,5.4c-0.1,0.3-0.1,0.7-0.2,1c-1.7,8.9-2.3,16.6-1.2,22.5
	c2.5,12.9,4.6,42.2,12.1,69.8c6.3,23.3,11.9,26.6,39,29.8c27,3.1,352.9,2.8,390.7,2.8c21.6,0,18.2-2,22.9-8.7
	c4.7-6.7,4.3-5.8,19.8-5.7c377,1.6,1474.4-4.8,2396.4-10.7l21.9-0.2c630.8-4.1,1177.2-7.8,1352.7-8.5c183.6-0.7,262.3,11,475.9-32.8
	C4884.3,78,5007,57.6,5036.4,2.3c1-1.8,3.1-2.3,5.2-2.3l2.2,0C5047,0,5050.4,2.3,5049.9,5.4z"/>

<text class="textcolor" textLength="850" lengthAdjust="spacingAndGlyphs" transform="matrix(1.2536 0 0 1 95.1431 361.0334)" style="font-family:'Square721-Cn-Bold'; font-size:155.1121px;">
	<tspan x="0" y="0">CUSTOM TEXT</tspan>
</text>

<path class="maincolor" d="M0.1,488.1c15.6,92.4,129.2,118.3,293.7,170.4c145.1,45.9,312.6,44.3,390.5,47s1451.9,11.9,1451.9,11.9h21.8
	c0,0,1236.4,8.8,1268.7,9.7c119.3,3.3,129.7,0.9,286.5,72.2c137.9,62.7,128.7,75.2,346.9,77.6c82.9,0.9,809-0.1,875.8,0
	c80.2,0.1,111.7-19.6,112.2-95.9c0.5-70.2,7.4-171-17.5-256.7c-0.8-2.6-3.6-4.1-6.1-3.1l-1,0.4c-2.2,0.9-3.3,3.1-2.8,5.4
	c0.1,0.3,0.1,0.7,0.2,1c1.7,8.9,2.3,16.6,1.2,22.5c-2.5,12.9-4.6,42.2-12.1,69.8c-6.3,23.3-11.9,26.6-39,29.8
	c-27,3.1-352.9,2.8-390.7,2.8c-21.6,0-18.2-2-22.9-8.7c-4.7-6.7-4.3-5.8-19.8-5.7c-377,1.6-1474.4-4.8-2396.4-10.7l-21.9-0.2
	c-630.8-4.1-1177.2-7.8-1352.7-8.5c-183.6-0.7-262.3,11-475.9-32.8C165.7,560.6,43,540.3,13.6,484.9c-1-1.8-3.1-2.3-5.2-2.3l-2.2,0
	C3,482.6-0.5,485,0.1,488.1z"/>

<text class="textcolor" textLength="850" lengthAdjust="spacingAndGlyphs" transform="matrix(1.2536 0 0 1 3913.9192 843.6831)" style="font-family:'Square721-Cn-Bold'; font-size:155.1121px;">
	<tspan x="0" y="0">CUSTOM TEXT</tspan>
</text>
	
</svg>
