<?xml version="1.0" encoding="utf-8"?>
<!-- Generator: Adobe Illustrator 27.9.1, SVG Export Plug-In . SVG Version: 6.00 Build 0)  -->
<svg class="w" version="1.1" xmlns="http://www.w3.org/2000/svg" xmlns:xlink="http://www.w3.org/1999/xlink" x="0px" y="0px"
	 viewBox="0 0 5050 877.2" style="enable-background:new 0 0 5050 877.2;" xml:space="preserve">
     $gradientDefs

     <path class="maincolor" d="M5049.9,5.4c0.5-3.1-3-5.4-6.1-5.4l-2.2,0c-2.1,0-4.2,0.4-5.2,2.3C5007,57.6,4884.3,78,4759.5,103.5
	c-213.6,43.8-292.3,32-475.9,32.8c-175.6,0.7-722,4.5-1352.7,8.5l-21.9,0.2c-922,5.9-2019.5,12.3-2396.4,10.7
	c-15.5-0.1-15.1-1-19.8,5.7c-4.7,6.7-1.3,8.7-22.9,8.7c-37.8,0-363.7,0.3-390.7-2.8c-27-3.1-32.6-6.5-39-29.8
	C32.7,110,30.6,80.7,28,67.7c-1.1-5.8-0.6-13.6,1.2-22.5c0.1-0.3,0.1-0.7,0.2-1c0.5-2.3-0.7-4.5-2.8-5.4l-1-0.4
	c-2.5-1-5.3,0.5-6.1,3.1C-5.4,127.3,1.5,228.1,2,298.3c0.5,76.3,31.9,95.9,112.2,95.9c66.8-0.1,792.8,0.9,875.8,0
	c218.1-2.4,209-14.9,346.9-77.6c156.8-71.3,167.3-68.8,286.5-72.2c32.3-0.9,1268.7-9.7,1268.7-9.7h21.8c0,0,1374.1-9.2,1451.9-11.9
	c77.8-2.7,245.3-1,390.5-47C4920.7,123.7,5034.3,97.8,5049.9,5.4z"/>
<path class="accentcolor" d="M48.4,211.4c216.2-0.4,1549.9-2.7,1574.5-3c31.5-0.3,2495-18.8,2523.6-19c72.8-0.5,145.6-1.3,218.4-2.6
	c121.7-2.7,260.8-3.7,378.8-37.8c192.9-55.7,222.6-71.6,246.3-85.6c0,0,1-0.6,1.5-0.9c0.5-0.3,1-0.2,1.4,0.2l0,0
	c0.5,0.5,0.5,1.3-0.1,1.8l-1.2,0.9c-22.6,17.2-53.4,30.7-76.9,39.7c-28.6,10.7-57.4,20.5-86.6,29.4c-61.7,19-109.1,36.1-173.8,47.7
	c-29.8,5.4-59.9,9.6-90,12.6c-33.2,3.3-66.4,5.6-99.7,7c-33.2,1.1-66.3,2.1-99.5,3c-72.9,1.3-145.8,2.2-218.7,2.6
	c-17.7,0.1-2503,18.8-2523.6,19c-26.4,0.4-52.9,1.4-79.3,3.1c-54.4,3.4-101.1,20.8-150.8,42.4c-58.7,25.6-88.5,39.5-149.3,68.3
	c-23.7,11.4-48.8,19.7-74.6,24.8c-16.7,3.1-33.5,5.3-50.5,6.5c-41.9,3.2-87.6,4.3-128.8,4.5c-241.2,0.4-482.4,0.4-723.6,0.1
	l-152.4-0.1c-23.5,0.2-59.7-2-75.5-16.2C22.2,345.3,20,318.5,20,298.4l-0.9-76.1c-0.1-6,4.8-10.9,10.8-10.9
	C36.7,211.4,48.4,211.4,48.4,211.4z"/>
<path class="maincolor" d="M0.1,488.1c-0.5-3.1,3-5.4,6.1-5.4l2.2,0c2.1,0,4.2,0.4,5.2,2.3c29.4,55.3,152.1,75.7,276.9,101.2
	c213.6,43.8,292.3,32,475.9,32.8c175.6,0.7,722,4.5,1352.7,8.5l21.9,0.2c922,5.9,2019.5,12.3,2396.4,10.7c15.5-0.1,15.1-1,19.8,5.7
	c4.7,6.7,1.3,8.7,22.9,8.7c37.8,0,363.7,0.3,390.7-2.8c27-3.1,32.6-6.5,39-29.8c7.5-27.6,9.6-56.9,12.1-69.8
	c1.1-5.8,0.6-13.6-1.2-22.5c-0.1-0.3-0.1-0.7-0.2-1c-0.5-2.3,0.7-4.5,2.8-5.4l1-0.4c2.5-1,5.3,0.5,6.1,3.1
	c24.9,85.8,18,186.5,17.5,256.7c-0.5,76.3-31.9,95.9-112.2,95.9c-66.8-0.1-792.8,0.9-875.8,0c-218.1-2.4-209-14.9-346.9-77.6
	c-156.8-71.3-167.3-68.8-286.5-72.2c-32.3-0.9-1268.7-9.7-1268.7-9.7h-21.8c0,0-1374.1-9.2-1451.9-11.9s-245.3-1-390.5-47
	C129.2,606.3,15.7,580.5,0.1,488.1z"/>
<path class="accentcolor" d="M5001.6,694.1c-216.2-0.4-1549.9-2.7-1574.5-3c-31.5-0.3-2495-18.8-2523.6-19c-72.8-0.5-145.6-1.3-218.4-2.6
	c-121.7-2.7-260.8-3.7-378.8-37.8C113.4,575.8,83.7,560,59.9,546c0,0-1-0.6-1.5-0.9c-0.5-0.3-1-0.2-1.4,0.2l0,0
	c-0.5,0.5-0.5,1.3,0.1,1.8l1.2,0.9c22.6,17.2,53.4,30.7,76.9,39.7c28.6,10.7,57.4,20.5,86.6,29.4c61.7,19,109.1,36.1,173.8,47.7
	c29.8,5.4,59.9,9.6,90,12.6c33.2,3.3,66.4,5.6,99.7,7c33.2,1.1,66.3,2.1,99.5,3c72.9,1.3,145.8,2.2,218.7,2.6
	c17.7,0.1,2503,18.8,2523.6,19c26.4,0.4,52.9,1.4,79.3,3.1c54.4,3.4,101.1,20.8,150.8,42.4c58.7,25.6,88.5,39.5,149.3,68.3
	c23.7,11.4,48.8,19.7,74.6,24.8c16.7,3.1,33.5,5.3,50.5,6.5c41.9,3.2,87.6,4.3,128.8,4.5c241.2,0.4,482.4,0.4,723.6,0.1l152.4-0.1
	c23.5,0.2,59.7-2,75.5-16.2c16.2-14.6,18.3-41.4,18.4-61.5l0.9-76.1c0.1-6-4.8-10.9-10.8-10.9
	C5013.3,694.1,5001.6,694.1,5001.6,694.1z"/>

<text class="textcolor" textLength="900" lengthAdjust="spacingAndGlyphs" transform="matrix(1.2355 0 0 1 68.1114 346.1558)" style="font-family:'Square721-Cn-Bold'; font-size:157.4062px;">
	<tspan x="0" y="0">CUSTOM TEXT</tspan>
</text>

<text class="textcolor" textLength="900" lengthAdjust="spacingAndGlyphs" transform="matrix(1.2355 0 0 1 3880.3333 832.5615)" style="font-family:'Square721-Cn-Bold'; font-size:157.4062px;">
	<tspan x="0" y="0">CUSTOM TEXT</tspan>
</text>
</svg>
