<?xml version="1.0" encoding="utf-8"?>
<!-- Generator: Adobe Illustrator 27.9.1, SVG Export Plug-In . SVG Version: 6.00 Build 0)  -->
<svg class="w" version="1.1" xmlns="http://www.w3.org/2000/svg" xmlns:xlink="http://www.w3.org/1999/xlink" x="0px" y="0px"
	 viewBox="0 0 5084 844.3" style="enable-background:new 0 0 5084 844.3;" xml:space="preserve">
     $gradientDefs

 <g>
<path class="maincolor" d="M3401.6,597c-53.6-0.3-108-0.6-163.1-0.9l209.6,93.4c99,2.7,117.8,5,264.3,71.6c101.3,46,123.2,65,214.1,72.8
	c32.9,2.8,74.8,4.2,132.8,4.8c82.9,0.9,809-0.1,875.8,0c80.2,0.1,111.7-19.6,112.2-95.9c0.5-70.2,7.4-171-17.5-256.7
	c-0.8-2.6-3.6-4.1-6.1-3.1l-1,0.4c-2.2,0.9-3.3,3.1-2.8,5.4c0.1,0.3,0.1,0.7,0.2,1c1.7,8.9,2.3,16.6,1.2,22.5
	c-2.5,12.9-4.6,42.2-12.1,69.8c-6.3,23.3-11.9,26.6-39,29.8c-27,3.1-352.9,2.8-390.7,2.8c-21.6,0-18.2-2-22.9-8.7
	c-4.7-6.7-4.3-5.8-19.8-5.7C4328.3,601.1,3899.4,599.6,3401.6,597z"/>
<path class="maincolor" d="M3211.8,596c-51.1-0.3-102.7-0.6-154.6-0.9l207.1,92.3c80.3,0.7,137.4,1.2,155.8,1.4L3211.8,596z"/>
<path class="maincolor" d="M3021.8,594.9c-48.5-0.3-97.3-0.6-146.2-0.8l206.3,91.9c53.1,0.4,102.7,0.8,146.8,1.1L3021.8,594.9z"/>
<path class="maincolor" d="M2831.8,593.8c-45.8-0.3-91.8-0.5-137.7-0.8l205.6,91.6c47.3,0.4,93.7,0.7,138.2,1L2831.8,593.8z"/>
<path class="maincolor" d="M2641.6,592.7c-43.1-0.3-86.2-0.5-129.2-0.8l205.1,91.4c43,0.3,86.5,0.6,129.6,1L2641.6,592.7z"/>
<path class="maincolor" d="M2451.4,591.5c-40.4-0.3-80.7-0.5-120.7-0.8l204.6,91.2c39,0.3,79.6,0.6,121,0.9L2451.4,591.5z"/>
<path class="maincolor" d="M2261.2,590.3c-37.7-0.2-75.1-0.5-112.2-0.7l204.2,91c34.4,0.2,72.2,0.5,112.4,0.8L2261.2,590.3z"/>
<path class="maincolor" d="M2070.8,589c-34.9-0.2-69.5-0.4-103.7-0.7l204,90.9c18.6,0.1,54.9,0.4,103.9,0.7L2070.8,589z"/>
<path class="maincolor" d="M1880.4,587.8c-32.1-0.2-63.8-0.4-95.2-0.6l204.2,91c38.6,0.3,71,0.5,95.3,0.7L1880.4,587.8z"/>
<path class="maincolor" d="M1690.1,586.6c-29.3-0.2-58.2-0.4-86.6-0.6l204,90.9c30.4,0.2,59.4,0.4,86.7,0.6L1690.1,586.6z"/>
<path class="maincolor" d="M1499.7,585.3c-26.5-0.2-52.5-0.3-78.1-0.5l203.8,90.8c26.6,0.2,52.7,0.4,78.2,0.6L1499.7,585.3z"/>
<path class="maincolor" d="M1309.3,584.1c-23.7-0.2-46.9-0.3-69.6-0.5l203.4,90.6c23.3,0.2,46.6,0.3,69.7,0.5L1309.3,584.1z"/>
<path class="maincolor" d="M1119,582.8c-21-0.1-41.3-0.3-61-0.4l202.9,90.4c20.3,0.2,40.7,0.3,61.2,0.5L1119,582.8z"/>
<path class="maincolor" d="M928.8,581.7c-18.5-0.1-36-0.2-52.4-0.3l202.1,90c17.3,0.1,34.8,0.3,52.7,0.4L928.8,581.7z"/>
<path class="maincolor" d="M739.2,580.8c-14.9,0-29.1,0.1-42.8,0.2l199.3,88.8c14.2,0.1,29,0.3,44.2,0.4L739.2,580.8z"/>
<path class="maincolor" d="M552.1,581c-12.7-0.4-25.5-0.9-38.6-1.6l198.5,88.5c9.9,0.1,22,0.3,36,0.5L552.1,581z"/>
<path class="maincolor" d="M291.3,548.4c-0.5-0.1-1.1-0.2-1.6-0.3c-15.7-3.2-31.4-6.4-46.9-9.5l273,121.6c10.7,0.9,21.2,1.6,31.4,2.2
	L291.3,548.4z"/>
<path class="maincolor" d="M42.9,521.2c35.1,28.3,89,48.2,156.7,69.8L42.9,521.2z"/>
</g>
<g>
	<path class="maincolor" d="M1121.9,351.2c90.9-7.8,112.8-26.7,214.1-72.8c146.4-66.6,165.2-68.8,264.3-71.6l209.6-93.4
		c-55,0.3-109.4,0.6-163.1,0.9c-497.7,2.6-926.6,4.1-1135.1,3.2c-15.5-0.1-15.1-1-19.8,5.7c-4.7,6.7-1.3,8.7-22.9,8.7
		c-37.8,0-363.7,0.3-390.7-2.8c-27-3.1-32.6-6.5-39-29.8c-7.5-27.6-9.6-56.9-12.1-69.8c-1.1-5.8-0.6-13.6,1.2-22.5
		c0.1-0.3,0.1-0.7,0.2-1c0.5-2.3-0.7-4.5-2.8-5.4l-1-0.4c-2.5-1-5.3,0.5-6.1,3.1C-6.1,89.2,0.8,189.9,1.2,260.1
		c0.5,76.3,31.9,95.9,112.2,95.9c66.8-0.1,792.8,0.9,875.8,0C1047.1,355.4,1089,354,1121.9,351.2z"/>
	<path class="maincolor" d="M1836.7,113.3l-208.3,92.8c18.4-0.2,75.5-0.8,155.8-1.4l207.1-92.3C1939.3,112.8,1887.8,113.1,1836.7,113.3z"
		/>
	<path class="maincolor" d="M2026.6,112.3l-206.9,92.2c44.1-0.4,93.8-0.7,146.8-1.1l206.3-91.9C2123.9,111.7,2075.1,112,2026.6,112.3z"/>
	<path class="maincolor" d="M2216.7,111.2L2010.6,203c44.5-0.3,90.9-0.7,138.2-1l205.6-91.6C2308.5,110.6,2262.5,110.9,2216.7,111.2z"/>
	<path class="maincolor" d="M2406.8,110l-205.4,91.5c43.1-0.3,86.6-0.6,129.6-1l205.1-91.4C2493.1,109.5,2450,109.8,2406.8,110z"/>
	<path class="maincolor" d="M2597,108.8l-204.9,91.3c41.4-0.3,82-0.6,121-0.9l204.6-91.2C2677.7,108.3,2637.4,108.6,2597,108.8z"/>
	<path class="maincolor" d="M2787.3,107.7l-204.5,91.1c40.2-0.3,78-0.6,112.4-0.8l204.2-91C2862.4,107.2,2824.9,107.4,2787.3,107.7z"/>
	<path class="maincolor" d="M2977.7,106.4l-204.2,91c49-0.4,85.3-0.6,103.9-0.7l204-90.9C3047.1,105.9,3012.5,106.2,2977.7,106.4z"/>
	<path class="maincolor" d="M3168,105.2l-204.3,91c24.3-0.2,56.6-0.4,95.3-0.7l204.2-91C3231.8,104.7,3200.1,104.9,3168,105.2z"/>
	<path class="maincolor" d="M3358.4,103.9l-204.1,90.9c27.3-0.2,56.4-0.4,86.7-0.6l204-90.9C3416.6,103.5,3387.7,103.7,3358.4,103.9z"/>
	<path class="maincolor" d="M3548.8,102.7l-203.9,90.8c25.5-0.2,51.7-0.4,78.2-0.6l203.8-90.8C3601.3,102.3,3575.3,102.5,3548.8,102.7z"/>
	<path class="maincolor" d="M3739.1,101.4l-203.6,90.7c23.1-0.2,46.4-0.3,69.7-0.5l203.4-90.6C3786,101.1,3762.8,101.3,3739.1,101.4z"/>
	<path class="maincolor" d="M3929.4,100.2l-203.1,90.5c20.5-0.2,40.9-0.3,61.2-0.5l202.9-90.4C3970.8,99.9,3950.4,100.1,3929.4,100.2z"/>
	<path class="maincolor" d="M4119.6,99l-202.4,90.2c17.8-0.1,35.4-0.3,52.7-0.4l202.1-90C4155.6,98.8,4138.1,98.9,4119.6,99z"/>
	<path class="maincolor" d="M4309.2,98.1l-200.7,89.4c15.2-0.1,30-0.3,44.2-0.4L4352,98.4C4338.3,98.2,4324.1,98.2,4309.2,98.1z"/>
	<path class="maincolor" d="M4496.3,98.3l-195.9,87.3c14-0.2,26-0.3,36-0.5l198.5-88.5C4521.8,97.4,4509,98,4496.3,98.3z"/>
	<path class="maincolor" d="M4757.1,65.7l-255.9,114c10.2-0.6,20.7-1.4,31.4-2.2l273-121.6c-15.5,3.1-31.2,6.3-46.9,9.5
		C4758.2,65.5,4757.7,65.6,4757.1,65.7z"/>
	<path class="maincolor" d="M5005.6,38.6l-156.7,69.8C4916.6,86.8,4970.5,66.9,5005.6,38.6z"/>
</g>
<text class="textcolor" textLength="850" lengthAdjust="spacingAndGlyphs" transform="matrix(1.2536 0 0 1 94.3926 322.8756)" style="font-family:'Square721-Cn-Bold'; font-size:155.1121px;">
	<tspan x="0" y="0">CUSTOM TEXT</tspan>
</text>

<text class="textcolor" textLength="850" lengthAdjust="spacingAndGlyphs" transform="matrix(1.2536 0 0 1 3933.1687 805.5251)" style="font-family:'Square721-Cn-Bold'; font-size:155.1121px;">
	<tspan x="0" y="0">CUSTOM TEXT</tspan>
</text>
</svg>
