<svg xmlns="http://www.w3.org/2000/svg" viewBox="0 0 1655.3 139.56"><defs><style>.cls-1,.cls-2{fill:#121212;}.cls-1{fill-rule:evenodd;}</style></defs><title>Caliber-Logo</title><g id="Layer_2" data-name="Layer 2"><g id="Layer_1-2" data-name="Layer 1"><path class="cls-1" d="M1642.67,17.38c6.88,10.51,7,20.33,6.81,29.2-.22,9.94.67,23.08-4,31.65s-15.84,15-39.52,15l49.3,46.12H1578l-37.74-34.82H1477V139.4h-70.68V.14h102.8c32.21,0,69.31-.68,94.39,1C1617.74,2.05,1635.79,6.87,1642.67,17.38Zm-63,46,0-24.15c-.19-10.16-11.55-11.58-22.41-11.53H1477V75.34h71.29C1556.58,75.34,1579.15,75.63,1579.65,63.34Z"/><path class="cls-1" d="M502.47,23.82C492.1-2,452.94.08,409,.08h-67.1c-32.1,1-65.15-2.3-76.37,17.41-3.3,5.8-3.2,12.7-3.25,20.57-.27,40.88.07,95.44,0,101.28h70V104.52H434.56v34.82h70.5V52.78C504.9,43.16,506.63,33.45,502.47,23.82ZM434.56,75.28H332.33V38.63c.1-9.34,10.91-11,47-11,41,0,55.32-.46,55.27,11Z"/><polygon class="cls-1" points="1385.23 0.14 1385.23 27.66 1212.29 27.66 1212.29 56.39 1385.23 56.39 1385.23 83.54 1212.29 83.54 1212.29 111.47 1385.23 111.47 1385.23 139.4 1142.2 139.4 1142.2 0.14 1385.23 0.14"/><path class="cls-1" d="M243.37.08V27.34H79c-3.13,0-7.53.76-8.2,6.37v67.62c0,4.41,4.87,9,9.82,9H243.37v29l-190,0c-19.92,0-41.95-3.41-49.17-15.11C-.81,116.1.1,105,0,96.7V46.36C.12,31.64-1.26,19,7,11,13.68,4.51,27,.83,38.23.08H243.37Z"/><polygon class="cls-1" points="595.21 0.08 595.21 111.41 767.64 111.41 767.84 139.34 525.12 139.34 525.12 0.08 595.21 0.08"/><rect class="cls-2" x="787.91" y="0.08" width="71.35" height="139.26"/><path class="cls-1" d="M1049.32,42.21c.06-10.15-8.33-14.54-19.2-14.49H950V53.08h71.12C1029.41,53.08,1049.25,52.36,1049.32,42.21ZM1094.75,65c12.81-3.4,18.7-7.4,23.3-13.72,6.29-8.66,4.37-30.76-4.63-40.13s-25.67-9-39.87-9.95c-25.09-1.65-59.23-1-91.46-1H879.55V139.52s171.7.09,204.4,0c9.14,0,20.81-1.68,29.92-11.05s11.32-37.11,5.12-45.76c-4.53-6.33-12-11.41-24.27-13.73C1091.75,68.42,1092.93,65.44,1094.75,65ZM1049,93c.07-11-8.33-14.41-19.19-14.35H950V105.9h70.82C1029.11,105.9,1048.94,106.22,1049,93Z"/></g></g></svg>