<svg xmlns="http://www.w3.org/2000/svg" viewBox="0 0 847.47 86.91"><defs><style>.cls-1{fill:#121212;fill-rule:evenodd;}</style></defs><title>SRT-4-Logo</title><g id="Layer_2" data-name="Layer 2"><g id="Layer_1-2" data-name="Layer 1"><path class="cls-1" d="M418.3.48c-1.55,0-1.85,0-3,1.17h0L404.77,12.18a1.64,1.64,0,0,0-.38,1.91h0a2,2,0,0,0,1.56,1h0l60.52,0h0c.67,0,.78.2.95.41h0s.17.47-.09.73h0c-1.1,1.08-38.65,38.35-38.65,38.35h0a2,2,0,0,0-.3,2.25h0a1.86,1.86,0,0,0,1.55.79h0l34.22,0h0c3.31.06,5-.31,6.52-1.08h0a17,17,0,0,0,4-3.26h0c2.13-2.1,4.1-4.09,5.27-5.27h0c9.66-9.67,31.62-31.61,31.81-31.8h0a7.61,7.61,0,0,1,.7-.62h0a1.57,1.57,0,0,1,1-.42h50.71a7,7,0,0,0,4.16-1.62h0c1.22-1,9.54-9.42,10.13-10h0a1.68,1.68,0,0,0,.4-2.06h0A2,2,0,0,0,576.9.48H418.3Z"/><path class="cls-1" d="M257.39.34c-4.83,0-8.48,1-11.9,3.92h0c-1.84,1.58-4,3.67-5.6,5.36h0c-1.5,1.61-44.57,44.52-44.71,44.69h0a2.42,2.42,0,0,0-.71,2.09h0a1.75,1.75,0,0,0,1.76,1.2h32.91c7,0,10.3-3,13.69-6.31h0C246.48,47.73,274,20.11,274,20.11h0c4.39-4.37,8.57-5.24,15.09-5.24h47.51c4.26,0,6.35.21,7.08,1.82h0c.49,1.13-.05,2.36-1.85,4.43h0a77.8,77.8,0,0,1-6.56,6.54h0A30.23,30.23,0,0,1,323.82,34h0c-5.37,1.64-12.76,1.71-14.18,1.71h0l-37.41,0h0a1.68,1.68,0,0,0-1.17,2.89h0S311.5,81.45,312.13,82.1h0c.59.65,5.13,4.81,10.64,4.81h0l29.07,0h1.74c1.62,0,2-1.95,1-3h0c-.06-.09-.75-.82-.87-.95h0c-3.33-3.47-32-33.05-32.13-33.16h0c-.36-.42-.82-.83-.72-1.16h0a.73.73,0,0,1,.72-.44h10.71c4.43,0,12.68-.66,17.62-2.12h0c9.79-2.91,13.95-6,17.66-8.95h0c2.19-1.72,4.76-4,12.58-11.21h0c4.53-4.21,10.68-11.26,11.77-13h0c1-1.56,2.47-4.32,1.56-6.86h0c-1-2.94-3.81-5.67-14.44-5.72h0c-6.17,0-7.56,0-17.67-.11h0C344.72.06,321.12,0,312.91,0h0c-13.17,0-55.52.34-55.52.34Z"/><path class="cls-1" d="M50.92,15.79c0,6.1,6.74,12.31,15.66,15.07h0c2.22.68,4.52,1.36,4.52,1.36h0S113.24,42,115.88,42.63h0c.68.17,1.15.53,1.15.95h0c0,.6-.7,1.07-2.24,1.07h0l-99-.06h0a10.47,10.47,0,0,0-7.47,2.5h0c-1.19,1-2.5,2.31-3.51,3.39h0S2.15,53.08.91,54.27h0c-.08.06-1.35,1.18-.75,2.33h0c.55,1.1,1.46,1,2.13,1H155.18c15.45,0,28-7.08,28-15.83h0c0-6.63-7.19-12.3-17.4-14.66h0L110.55,14.5h0c-.6-.17-1-.53-1-.92h0c0-.57.81-1,1.8-1h0l94.93-.08h0c3.08,0,5.32-.52,7.43-2.5h0c2-1.82,4.87-4.63,6.31-6h0c2-1.95,2.67-2.52,2.38-3.24h0c-.29-.74-2-.57-3.75-.57h0l-140,0h0c-15.27,0-27.66,7-27.66,15.66Z"/><path class="cls-1" d="M702.52,43.92l-.12.17h76.42l16-22.6h0L702.52,43.92ZM675,34.51,797.18,5.32h50.29l-27.4,38.77h21L830.45,59.18h-21l-9.54,13.48H758.64l9.53-13.48H657.57L675,34.51Z"/><polygon class="cls-1" points="636.56 30.32 563.62 30.32 548.75 48.56 621.68 48.56 636.56 30.32"/></g></g></svg>