<?xml version="1.0" encoding="utf-8"?>
<!-- Generator: Adobe Illustrator 27.4.1, SVG Export Plug-In . SVG Version: 6.00 Build 0)  -->
<svg version="1.1" id="Layer_1" xmlns="http://www.w3.org/2000/svg" xmlns:xlink="http://www.w3.org/1999/xlink" x="0px" y="0px"
     viewBox="0 0 2194.8 2308.9" style="enable-background:new 0 0 2194.8 2308.9;" xml:space="preserve">
	<title>$design_title</title>
    <desc>$design_desc</desc>
    <defs>
		<linearGradient id="mainGradient_13" y2='1'>
        </linearGradient>
        <linearGradient id="accentGradient_13" y2='1'>
        </linearGradient>
        <linearGradient id="accent2Gradient_13" y2='1'>
        </linearGradient>
        <linearGradient id="textGradient_13" y2='1'>
        </linearGradient>
        <linearGradient id="text2Gradient_13" y2='1'>
        </linearGradient>
        <linearGradient id="text3Gradient_13" y2='1'>
        </linearGradient>
    </defs>

    <path class="maincolor" d="M1133.4 108.6v2127.1c264.9 1.6 518.4 20.1 550.7 24.9 27.3 4 50 14.3 61.9 32.6 1.1 1.7 4.9 12.4 4.9 12.4 1.1 4.3 7.2 4.5 8.6.2l4.2-13c7.1-22.2 13.9-44.5 20.4-66.7 9.5-32.3 18.5-64.7 27.2-97.2 7.6-28.5 14.9-57 22-85.6 7.3-29.3 14.3-58.7 21.1-88.1 6.1-26.1 12-52.2 17.7-78.4 10.7-48.7 21-97.5 30.8-146.3 10-49.8 19.7-99.7 29-149.7 23.4-125.8 45.1-254.4 64.9-380.8 9.2-59.1 18-118.2 26.2-177.4 7.6-54.1 14.8-108.3 21.7-162.5 7-55.1 13.8-110.3 20.3-165.4 6-50.8 11.9-101.7 17.7-152.6 4.7-41.1 9.4-82.2 14.2-123.3 4.2-35.6 9.3-78.9 13.9-114.7 9.7-75.6 28.5-150.7 54.4-222.3 6.7-18.5 13.9-36.7 21.6-54.8 1-2.3 7.4-16.6 7.4-16.6 2.5-5.4-2.4-11.4-8.2-10l-23 5.3c-58 13.1-145.9 30.9-263.5 48.7-250.4 37.6-491.9 53-766.1 54.2zM1061.4 2235.7V108.6c-274.2-1.2-515.7-16.6-766-54.4C177.7 36.5 89.8 18.6 31.8 5.5L8.8.2C3-1.2-1.8 4.8.7 10.2c0 0 6.4 14.3 7.4 16.6C15.8 44.9 23 63.1 29.7 81.6 55.5 153.2 74.4 228.4 84 303.9c4.6 35.8 9.8 79.1 13.9 114.7 4.8 41.1 9.5 82.2 14.2 123.3 5.8 50.9 11.7 101.7 17.7 152.6 6.5 55.2 13.3 110.3 20.3 165.4 6.9 54.2 14.1 108.4 21.7 162.5 8.3 59.2 17 118.4 26.2 177.4 19.8 126.5 41.5 255.1 64.9 380.8 9.3 50 18.9 99.9 29 149.7 9.8 48.9 20.1 97.6 30.8 146.3 5.8 26.2 11.7 52.3 17.7 78.4 6.8 29.4 13.9 58.8 21.1 88.1 7.1 28.6 14.4 57.2 22 85.6 8.7 32.5 17.7 64.9 27.2 97.2 6.5 22.2 13.3 44.4 20.4 66.7l4.2 13c1.4 4.3 7.5 4.1 8.6-.2 0 0 3.8-10.7 4.9-12.4 11.9-18.3 34.6-28.6 61.9-32.6 32.3-4.6 285.8-23.1 550.7-24.7z"/>

	<path class="accentcolor" d="M1155 2210.5c55.2.5 110.4 1.7 165.5 3.5 72.8 2.3 145.5 5.7 218.1 9.9 49.3 2.5 98.5 6.3 147.6 11.3 21.1 2.3 46.6 11.2 63.2 25.7 24.3-76.7 43.4-149.6 62.8-226.9 83.4-332 167.1-830.1 210.9-1180.7l20.3-165.3 31.9-275.9 14-114.9c10.2-77.4 28.8-153.5 55.5-226.8 5.6-15.7 11.6-31.3 18-46.6-329.6 72.9-671 100.7-1007.8 102.5v2084.2zm-115.2 0c-150.2 1.5-275.9 7-426.7 16.1-35 2-69.9 4.9-104.7 8.7-21.7 2.5-47.8 12.2-63.3 25.9-24.3-78.8-41.3-142.5-62.6-227.1-83.4-331.1-167.2-830.9-210.9-1180.7l-20.3-165.3-31.9-275.9-14-114.9C95.3 219.9 76.7 143.9 49.9 70.5c-5.6-15.7-11.6-31.3-18-46.6 329 72.6 671.8 100.7 1007.9 102.5v2084.1zm136.8-21.3V147.8c248.2-2.2 483.6-17.8 729.2-54.6 74.4-11 148.6-24.3 222.2-39.7-1.2 3.2-2.4 6.5-3.5 9.7-27.2 74.8-46.2 152.4-56.6 231.3l-14 115.1-31.9 276-20.3 165.2c-43.7 350.1-127.2 846.4-210.4 1178.1-16.5 65.8-34.3 134.2-54.1 198.7-15.8-7.2-31.5-12-48.7-13.8-49.4-5.1-99-8.9-148.7-11.4-132.7-7.2-214.8-11.4-363.2-13.2zM1018.2 147.8c-317-2.8-640.4-29.1-951.5-94.3 1.2 3.2 2.4 6.5 3.5 9.7 27.2 74.8 46.2 152.4 56.6 231.3l14 115.1 31.9 275.9L193 850.8c27.3 218.2 69.5 487.9 112.4 718.2 25.8 138.3 61.7 315.8 98 459.9 18.7 74.1 33.4 130.1 54 198.9 15.1-7 31.1-11.6 47.6-13.8 35.5-4.3 71.1-7.3 106.7-8.9 74.9-4.9 149.9-8.7 224.9-11.4 60.5-2.3 120.9-3.8 181.4-4.5V147.8z"/>

    <path id="text2_x5F_A" class="textpath" d="M1718.4,2194.2
	c5.9-20.1,11.6-40.2,17.1-60.4c5.8-21.4,11.5-42.9,17-64.3c10.3-40.4,20.1-80.8,29.6-121.4c17.9-76.7,34.8-155.2,50.2-231.8
	c44.4-221.5,89-485.8,119.3-703.7c15.1-108.6,29-217.4,41.7-326.3l32-276l14-115.5c8.9-67.6,23.9-134.2,44.9-199"/>
    <text class="textcolor2" style=" font-size:110px; text-anchor:middle; font-family:'Square721BT-BoldExtended';">
		<textPath  xlink:href="#text2_x5F_A" startOffset="50%">
			<tspan>$text2Ref</tspan>
		</textPath>
	</text>

    <path id="text2_x5F_B" class="textpath" d="M110.5,95.5
	c21,64.8,36,131.5,44.9,199c0,0.1,0,0.1,0,0.2c2.7,21.3,5.3,42.7,7.8,64c2.1,17.9,4.3,35.9,6.4,53.8c3.3,27.8,8.8,75.4,11.2,95.8
	L197,648.2l4.4,38c12.8,108.9,26.7,217.7,41.7,326.3c31.2,224.9,75.9,486.4,119.3,703.7c17.2,86.1,37.4,177.9,57.2,261.1
	c16.6,70,36.7,148.8,56.7,216.8"/>
    <text class="textcolor2" style=" font-size:110px; text-anchor:middle; font-family:'Square721BT-BoldExtended';">
		<textPath  xlink:href="#text2_x5F_B" startOffset="50%">
			<tspan>$text2Ref</tspan>
		</textPath>
	</text>
</svg>
