<?xml version="1.0" encoding="utf-8"?>
<!-- Generator: Adobe Illustrator 27.4.1, SVG Export Plug-In . SVG Version: 6.00 Build 0)  -->
<svg version="1.1" id="Layer_1" xmlns="http://www.w3.org/2000/svg" xmlns:xlink="http://www.w3.org/1999/xlink" x="0px" y="0px"
	 viewBox="0 0 2194.8 2308.9" style="enable-background:new 0 0 2194.8 2308.9;" xml:space="preserve">
	<title>$design_title</title>
	<desc>$design_desc</desc>
	<defs>
		<linearGradient id="mainGradient_06" y2='1'>
        </linearGradient>
		<linearGradient id="accentGradient_06" y2='1'>
        </linearGradient>
		<linearGradient id="accent2Gradient_06" y2='1'>
        </linearGradient>
		<linearGradient id="textGradient_06" y2='1'>
        </linearGradient>
		<linearGradient id="text2Gradient_06" y2='1'>
        </linearGradient>
		<linearGradient id="text3Gradient_06" y2='1'>
        </linearGradient>
    </defs>

	<path class="maincolor" d="M1097.4,2235.6c277.5,0,552.9,20,586.7,25c27.3,4,50,14.3,61.9,32.6c1.1,1.7,4.9,12.4,4.9,12.4 c1.1,4.3,7.2,4.5,8.6,0.2l4.2-13c7.1-22.2,13.9-44.5,20.4-66.7c9.5-32.3,18.5-64.7,27.2-97.2c7.6-28.5,14.9-57,22-85.6
	c7.3-29.3,14.3-58.7,21.1-88.1c6.1-26.1,12-52.2,17.7-78.4c10.7-48.7,21-97.5,30.8-146.3c10-49.8,19.7-99.7,29-149.7
	c23.4-125.8,45.1-254.4,64.9-380.8c9.2-59.1,18-118.2,26.2-177.4c7.6-54.1,14.8-108.3,21.7-162.5c7-55.1,13.8-110.3,20.3-165.4
	c6-50.8,11.9-101.7,17.7-152.6c4.7-41.1,9.4-82.2,14.2-123.3c4.2-35.6,9.3-78.9,13.9-114.7c9.7-75.6,28.5-150.7,54.4-222.3
	c6.7-18.5,13.9-36.7,21.6-54.8c1-2.3,7.4-16.6,7.4-16.6c2.5-5.4-2.4-11.4-8.2-10l-23,5.3c-58,13.1-145.9,30.9-263.5,48.7
	c-261.2,39.4-512.9,54.4-802,54.4c-289.1,0-540.8-15-802-54.4C177.7,36.5,89.8,18.6,31.8,5.5l-23-5.3C3-1.2-1.8,4.8,0.7,10.2
	c0,0,6.4,14.3,7.4,16.6c7.7,18.1,14.9,36.3,21.6,54.8C55.5,153.2,74.4,228.4,84,303.9c4.6,35.8,9.8,79.1,13.9,114.7
	c4.8,41.1,9.5,82.2,14.2,123.3c5.8,50.9,11.7,101.7,17.7,152.6c6.5,55.2,13.3,110.3,20.3,165.4c6.9,54.2,14.1,108.4,21.7,162.5
	c8.3,59.2,17,118.4,26.2,177.4c19.8,126.5,41.5,255.1,64.9,380.8c9.3,50,18.9,99.9,29,149.7c9.8,48.9,20.1,97.6,30.8,146.3
	c5.8,26.2,11.7,52.3,17.7,78.4c6.8,29.4,13.9,58.8,21.1,88.1c7.1,28.6,14.4,57.2,22,85.6c8.7,32.5,17.7,64.9,27.2,97.2
	c6.5,22.2,13.3,44.4,20.4,66.7l4.2,13c1.4,4.3,7.5,4.1,8.6-0.2c0,0,3.8-10.7,4.9-12.4c11.9-18.3,34.6-28.6,61.9-32.6
	C544.4,2255.6,819.9,2235.6,1097.4,2235.6z"/>

	<path class="accentcolor" d="M1097.4,2199.6c122.6,0.1,244.3,3.9,386.6,10.7c68,2.9,135.9,7.8,203.6,14.5
	c17.5,1.9,38.8,8.6,53.9,17c49.2-159.9,92.6-355.5,126.1-518.6c35.1-175.5,66.3-351.8,93.5-528.8c25.6-167.6,48.3-335.7,68-504.1
	l45.9-391c10.1-81.3,32.3-166.3,61-243c-39.3,78.8-71.2,64.2-151.7,628.2c-25.3,177.5-47.6,335.3-73.1,502.3
	c-27.1,176.1-58.1,351.6-93.1,526.4c-29.7,146.5-68.5,319.2-110.2,463.9c-36-7.3-180.1-15-221.5-17
	c-129.6-7.2-259.4-10.7-389.1-10.7c-129.8,0-259.5,3.5-389.1,10.7c-41.4,2-185.5,9.7-221.5,17c-41.6-144.7-80.5-317.4-110.2-463.9
	c-34.9-174.8-66-350.3-93.1-526.4c-25.5-167-47.8-324.9-73.1-502.3C129.9,120.4,98,135.1,58.7,56.2c28.7,76.7,50.9,161.7,61,243
	l45.9,391c19.7,168.4,42.4,336.5,68,504.1c27.2,176.9,58.4,353.2,93.5,528.8c33.5,163.2,76.9,358.7,126.1,518.6
	c15.1-8.4,36.4-15.1,53.9-17c67.7-6.7,135.6-11.5,203.6-14.5C853.1,2203.5,974.8,2199.8,1097.4,2199.6z"/>

	<text class="textcolor" style="font-size:110px; font-family:'Square721BT-BoldExtended';  text-anchor:middle;" transform="matrix(1 0 0 1 1100 1968.897)">
		<tspan>$textRef</tspan>
	</text>

	<path id="text2a_x5F_A" class="textpath" d="M100.1,75.2
	c12.1,20.6,20.9,38,29.6,60.3c6.8,17.5,12.7,35.8,17.8,53.7c4.4,15.4,8.5,30.9,12.2,46.4c3.2,13.4,6.3,26.8,9.2,40.3
	c5.3,24.4,10.3,48.9,14.9,73.5c6,31.8,11.7,63.7,17.1,95.7c13.1,78.2,25.1,157.2,36.2,235.6l19.6,137.6c6,41.8,12,83.6,18,125.4
	c11.5,79.7,23.3,159.4,35.4,239c27,175.7,58,350.8,92.9,525.2c8.7,43.1,17.8,86.1,27.2,129.1c8.4,38.4,17.1,76.8,26.1,115.1
	c9,38.2,18.4,76.2,28.2,114.2c7,27,14.2,53.9,21.7,80.7"/>
	<text class="textcolor2" style=" font-size:110px; text-anchor:middle; font-family:'Square721BT-BoldExtended';">
		<textPath  xlink:href="#text2a_x5F_A" startOffset="50%">
			<tspan>$text2Ref</tspan>
		</textPath>
	</text>

	<path id="text2b_x5F_B" class="textpath" d="M1688.5,2146.9
	c9.5-34,19.1-70.1,27.7-104.2c9.6-38.1,18.9-76.3,27.7-114.5c8.9-38.3,17.5-76.6,25.7-115c7.6-35.1,14.9-70.2,22-105.4
	c34.9-174.3,65.8-349.4,92.9-525.2c16.3-106.1,33.5-224.9,48.5-329.7l8.5-59.5l16.1-112.8c4.7-33.1,9.6-66.1,14.5-99.1
	c4.6-30.7,9.4-61.4,14.4-92.1c5.1-31.7,10.5-63.3,16.1-94.9c2.8-15.5,5.6-31,8.5-46.4c7.5-39.6,16.1-80.8,25.8-120
	c3.2-12.8,6.6-25.5,10.2-38.2c3.4-12.1,7.2-24.1,11.3-36c3.7-10.9,7.9-21.6,12.4-32.1c4.2-9.9,9.2-20.1,14.3-29.5
	c2.2-4.1,4.5-8.3,6.9-12.3"/>
	<text class="textcolor2" style=" font-size:110px; text-anchor:middle; font-family:'Square721BT-BoldExtended';">
		<textPath  xlink:href="#text2b_x5F_B" startOffset="50%">
			<tspan>$text2Ref</tspan>
		</textPath>
	</text>
</svg>
