<?xml version="1.0" encoding="utf-8"?>
<!-- Generator: Adobe Illustrator 27.4.1, SVG Export Plug-In . SVG Version: 6.00 Build 0)  -->
<svg version="1.1" id="Layer_1" xmlns="http://www.w3.org/2000/svg" xmlns:xlink="http://www.w3.org/1999/xlink" x="0px" y="0px"
	 viewBox="0 0 2145.2 2466.3" style="enable-background:new 0 0 2145.2 2466.3;" xml:space="preserve">
  <defs>
    <linearGradient id="mainGradient_01" y2='1'>
    </linearGradient>
	  <linearGradient id="accentGradient_01" y2='1'>
    </linearGradient>
	  <linearGradient id="accent2Gradient_01" y2='1'>
    </linearGradient>
	  <linearGradient id="textGradient_01" y2='1'>
    </linearGradient>
	  <linearGradient id="text2Gradient_01" y2='1'>
    </linearGradient>
	  <linearGradient id="text3Gradient_01" y2='1'>
    </linearGradient>
  </defs>

	<style type="text/css">
		.maincolor{fill:#BCBDBE;}
		.accentcolor{fill:#A4081D;}
	</style>

	<g class="maincolor">
		<path d="M1108.6,102.7v2324.5c253.6-0.7,479.5-8.3,595.6-13c53.6-2.2,86.6,13.5,100.4,49.6c1.2,3.2,5.4,3.2,6-0.2
			C2021.9,1178.5,2144.9,11.8,2145.2,8.3c0.4-7.2-2.6-9.2-8.4-7.9C1814.1,71.6,1397.3,100.5,1108.6,102.7z"/>
		<path d="M1036.6,2427.2V102.7C748,100.5,331.2,71.7,8.5,0.4C2.6-0.9-0.4,1.1,0,8.3c0.2,3.5,123.3,1170.2,334.6,2455.4
			c0.6,3.4,4.8,3.3,6,0.2c13.8-36.1,46.8-51.8,100.4-49.6C557.2,2418.9,782.9,2426.5,1036.6,2427.2z"/>
	</g>

	<g class="accentcolor">
		<path d="M1131.1,124.9v2279.7c190.7-1,381.3-5.2,571.9-12.8c31.4-1.7,67.9,3.4,92.9,22.9
			c120.6-740.4,242.4-1632.6,324.7-2387.9C1823.1,89.7,1452.6,120.5,1131.1,124.9z M1153.5,147c305.9-5.3,657.2-34.6,941.3-92
			c-80.5,733.4-199.7,1606.4-316.1,2324.7c-24.8-9.1-50.8-11.9-77-10.4c-182.6,7.3-365.4,11.5-548.2,12.7V147z"/>
		<path d="M1014.1,2404.7V124.9c-306.5-4.2-680.3-33.1-989.5-98.1c82.4,755.5,201.4,1630.9,324.7,2387.9
			c25.9-20.1,61.2-24.3,92.6-22.9C632.6,2399.4,823.4,2403.7,1014.1,2404.7z M991.7,2382.1c-182.9-1.2-365.9-5.4-548.7-12.7
			c-25.7-1.1-52.6,1.4-76.5,10.5C246.4,1639.4,131.8,794.4,50.4,55c294.4,59.3,650.9,87,941.3,92V2382.1z"/>
	</g>

	<path id="SVGID_x5F_1_13b" class="textpath" d="M1760.5,2368.6c17-105.6,33.6-211.3,49.8-317.1c15.6-102.3,30.9-204.6,45.8-307
	c28.2-193.5,55.2-387.1,81.2-581c47.7-356.6,93.5-727.9,132-1080.4"/>
	<text class="textcolor2" style=" font-size:110px; text-anchor:middle; font-family:'Square721BT-BoldExtended';">
    <textPath  xlink:href="#SVGID_x5F_1_13b" startOffset="50%">
      <tspan  class="st2 text_color">SIDE TXT/LOGO</tspan>
    </textPath>
  </text>

	<path id="SVGID_x5F_2_13b" class="textpath" d="M76,83.1
	c43.6,398,94.6,807.9,148.3,1202.6c26.4,193.6,53.9,387.1,82.6,580.4c24.7,166.2,51.4,339,77.8,502.5"/>
	<text class="textcolor2" style=" font-size:110px; text-anchor:middle; font-family:'Square721BT-BoldExtended';">
    <textPath  xlink:href="#SVGID_x5F_2_13b" startOffset="50%">
      <tspan  class="st2 text_color">SIDE TXT/LOGO</tspan>
    </textPath>
  </text>
</svg>
