<?xml version="1.0" encoding="utf-8"?>
<!-- Generator: Adobe Illustrator 27.4.1, SVG Export Plug-In . SVG Version: 6.00 Build 0)  -->
<svg version="1.1" id="Layer_1" xmlns="http://www.w3.org/2000/svg" xmlns:xlink="http://www.w3.org/1999/xlink" x="0px" y="0px"
	 viewBox="0 0 2145.2 2483.7" style="enable-background:new 0 0 2145.2 2483.7;" xml:space="preserve">
    <defs>
        <linearGradient id="mainGradient_01" y2='1'>
        </linearGradient>
		<linearGradient id="accentGradient_01" y2='1'>
        </linearGradient>
		<linearGradient id="accent2Gradient_01" y2='1'>
        </linearGradient>
		<linearGradient id="textGradient_01" y2='1'>
        </linearGradient>
		<linearGradient id="text2Gradient_01" y2='1'>
        </linearGradient>
		<linearGradient id="text3Gradient_01" y2='1'>
        </linearGradient>
    </defs>

	<path class="maincolor" d="M1072.4,2444.6C1072.5,2444.6,1072.3,2444.6,1072.4,2444.6
		C1072.4,2444.6,1072.4,2444.6,1072.4,2444.6c268.2,0,510.2-8.1,631.8-13c53.6-2.2,86.6,13.5,100.4,49.6c1.2,3.2,5.4,3.2,6-0.2
		C2021.9,1195.9,2144.9,11.8,2145.2,8.3c0.4-7.2-2.6-9.2-8.4-7.9c-336.4,74.3-775.2,108.3-1064.3,108.3
		c-289.1,0-727.6-34-1063.9-108.3C2.6-0.9-0.4,1.1,0,8.3c0.2,3.5,123.3,1187.6,334.6,2472.8c0.6,3.4,4.8,3.3,6,0.2
		c13.8-36.1,46.8-51.8,100.4-49.6C562.6,2436.5,804.2,2444.6,1072.4,2444.6C1072.4,2444.6,1072.4,2444.6,1072.4,2444.6z"/>

	<path class="accentcolor" d="M1072.6,176.1c0.2,0,0.4,0,0.6,0c174.2-1,348.3-9.9,521.7-26.7c156-14.9,319.9-36.1,474.4-66.3
		c-79.3,725-120.5,1184-271,2286.6c-0.4,2.7,0.1,5.3,2.8,5.9c2.1,0.4,4.2-0.9,4.5-3c120.7-748.8,235.4-1604.4,315.2-2345.8
		c-176.9,37.4-346,60.2-530,77.8c-172.1,16.7-344.8,25.5-517.6,26.5l-0.2,0c0,0-0.1,0-0.1,0c0,0-0.1,0-0.1,0l-0.2,0
		c-172.9-1-345.6-9.8-517.6-26.5c-184-17.6-353.1-40.4-530-77.8c79.8,741.4,194.5,1597.1,315.2,2345.8c0.3,2.1,2.4,3.4,4.5,3
		c2.7-0.5,3.1-3.2,2.8-5.9C196.5,1267.2,155.4,808.1,76,83.1c154.4,30.1,318.3,51.3,474.4,66.3c173.4,16.8,347.5,25.7,521.7,26.7
		C1072.2,176.1,1072.4,176.1,1072.6,176.1z"/>

	<text class="textcolor" style="font-size:110px; font-family:'Square721BT-BoldExtended';  text-anchor:middle;"  transform="matrix(1 0 0 1 1070 2145.4854)">TXT/LOGO</text>

	<path id="SVGID_x5F_1_x5F_07b" class="textpath" d="M1776.9,2380c-1.3-4.3-1.6-8.7-1-13.3c14.7-107.7,29.2-215.4,43.5-323.2
		c13.2-99.7,26.2-199.5,38.9-299.3c12.9-101.1,25.5-202.3,37.7-303.5c11.3-93.4,22.4-186.9,33.2-280.4
		c12.8-111.1,25.2-222.2,37.4-333.4c11-101.3,22-202.7,32.8-304c6.7-62.7,21.1-197.5,25-233.2c6.4-59.6,12.8-119.2,19.4-178.8"/>
	<text class="textcolor2" style=" font-size:110px; text-anchor:middle; font-family:'Square721BT-BoldExtended';">
		<textPath  xlink:href="#SVGID_x5F_1_x5F_07b" startOffset="50%">
			<tspan>SIDE TXT/LOGO</tspan>
		</textPath>
	</text>

	<path id="SVGID_x5F_00000033362570484826228150000012101178317280192433_x5F_07b" class="textpath" d="M101.6,110.9
		c9.8,89.5,19.4,179,29,268.5l22.6,211.4l12,112c10.7,99.3,21.6,198.5,32.7,297.8c10,88.9,20.2,177.8,30.6,266.7
		c12.2,104,24.8,207.9,37.7,311.8c22.8,183.3,45.9,362.3,70.6,547.1c10.7,80.2,21.5,160.4,32.5,240.5"/>
	<text class="textcolor2" style=" font-size:110px; text-anchor:middle; font-family:'Square721BT-BoldExtended';">
		<textPath  xlink:href="#SVGID_x5F_00000033362570484826228150000012101178317280192433_x5F_07b" startOffset="50%">
			<tspan>SIDE TXT/LOGO</tspan>
		</textPath>
	</text>
</svg>
