<?xml version="1.0" encoding="utf-8"?>
<!-- Generator: Adobe Illustrator 27.4.1, SVG Export Plug-In . SVG Version: 6.00 Build 0)  -->
<svg version="1.1" id="Layer_1" xmlns="http://www.w3.org/2000/svg" xmlns:xlink="http://www.w3.org/1999/xlink" x="0px" y="0px"
	 viewBox="0 0 2147.2 3021.5" style="enable-background:new 0 0 2147.2 3021.5;" xml:space="preserve">
    <defs>
        <linearGradient id="mainGradient_01" y2='1'>
        </linearGradient>
		<linearGradient id="accentGradient_01" y2='1'>
        </linearGradient>
		<linearGradient id="accent2Gradient_01" y2='1'>
        </linearGradient>
		<linearGradient id="textGradient_01" y2='1'>
        </linearGradient>
		<linearGradient id="text2Gradient_01" y2='1'>
        </linearGradient>
		<linearGradient id="text3Gradient_01" y2='1'>
        </linearGradient>
    </defs>

	<path class="maincolor" d="M1073.6,2425.3c0,0,424.7-1.7,638.8-13.8c50.1-2.8,98.7,24.3,94.9,74.3
		c-9.5,124.9-76.5,418.4-97.9,510c0,0-1.7,7.1-3.3,14.1c-1.5,6.5,4.1,12.6,10.7,11.5c5.8-0.9,17.6-2.9,20.7-3.4
		c3.9-0.6,6.8-3.4,7.7-7.2c1.1-4.8,4.8-21,4.8-21c76.5-337.1,132.1-681.5,185.8-1031.6C2089.9,953,2147,10.3,2147,10.3
		c1-6-2.2-11.3-8.2-10.1c-61.8,12.4-126.3,26.5-263.2,47.1c-261.2,39.4-512.9,54.4-802,54.4c-289.1,0-540.8-15-802-54.4
		C134.7,26.6,70.2,12.5,8.4,0.2C2.4-1-0.8,4.3,0.2,10.3c0,0,57.1,942.7,211.2,1947.8c53.7,350.2,109.3,694.6,185.8,1031.6
		c0,0,3.7,16.2,4.8,21c0.9,3.8,3.8,6.6,7.7,7.2c3.2,0.5,14.9,2.5,20.7,3.4c6.6,1.1,12.2-4.9,10.7-11.5c-1.6-7-3.3-14.1-3.3-14.1
		c-21.4-91.6-88.4-385.1-97.9-510c-3.8-50,44.8-77.2,94.9-74.3C648.9,2423.6,1073.6,2425.3,1073.6,2425.3z"/>

	<text class="textcolor" style="font-size:110px; font-family:'Square721BT-BoldExtended';  text-anchor:middle;" transform="matrix(1 0 0 1 1070 2231.2344)">
		<tspan>TXT/LOGO</tspan>
	</text>

	<path id="SVGID_x5F_1_x5F_9b" class="textpath" d="M105.2,118.3C157,832.7,248.5,1626,367.7,2322.3"/>
	<text class="textcolor2" style=" font-size:110px; text-anchor:middle; font-family:'Square721BT-BoldExtended';">
		<textPath  xlink:href="#SVGID_x5F_1_x5F_9b" startOffset="50%">
			<tspan>SIDE TXT/LOGO</tspan>
		</textPath>
	</text>

	<path id="SVGID_x5F_9b" class="textpath" d="M1779.5,2322.5
		c118.7-693.4,209.9-1482.8,261.8-2194.9"/>
	<text class="textcolor2" style=" font-size:110px; text-anchor:middle; font-family:'Square721BT-BoldExtended';"><textPath  xlink:href="#SVGID_x5F_9b" startOffset="50%">
	<tspan>SIDE TXT/LOGO </tspan></textPath>
	</text>
</svg>
