<?xml version="1.0" encoding="utf-8"?>
<!-- Generator: Adobe Illustrator 27.4.1, SVG Export Plug-In . SVG Version: 6.00 Build 0)  -->
<svg version="1.1" id="Layer_1" xmlns="http://www.w3.org/2000/svg" xmlns:xlink="http://www.w3.org/1999/xlink" x="0px" y="0px"
     viewBox="0 0 2123.4 2299.5" style="enable-background:new 0 0 2123.4 2299.5;" xml:space="preserve">
	<title>$design_title</title>
    <desc>$design_desc</desc>
    <defs>
		<linearGradient id="mainGradient_14" y2='1'>
        </linearGradient>
        <linearGradient id="accentGradient_14" y2='1'>
        </linearGradient>
        <linearGradient id="accent2Gradient_14" y2='1'>
        </linearGradient>
        <linearGradient id="textGradient_14" y2='1'>
        </linearGradient>
        <linearGradient id="text2Gradient_14" y2='1'>
        </linearGradient>
        <linearGradient id="text3Gradient_14" y2='1'>
        </linearGradient>
    </defs>

    <path class="maincolor" d="M1061.7,2226.2c277.5,0,552.9,20,586.7,25c27.3,4,50,14.3,61.9,32.6c1.1,1.7,4.9,12.4,4.9,12.4
	c1.1,4.3,7.2,4.5,8.6,0.2l4.2-13c7.1-22.2,13.9-44.5,20.4-66.7c9.5-32.3,18.5-64.7,27.2-97.2c7.6-28.5,14.9-57,22-85.6
	c7.3-29.3,14.3-58.7,21.1-88.1c6.1-26.1,12-52.2,17.7-78.4c10.7-48.7,21-97.5,30.8-146.3c10-49.8,19.7-99.7,29-149.7
	c23.4-125.8,45.1-254.4,64.9-380.8c9.2-59.1,18-118.2,26.2-177.4c7.6-54.1,14.8-108.3,21.7-162.5c7-55.1,13.8-110.3,20.3-165.4
	c6-50.8,28.1-347.9,32.5-383.7c29.7-239.6,42.9-246.2,53.6-274.5c0.9-2.4,7.4-16.6,7.4-16.6c2.5-5.4-2.4-11.4-8.2-10l-23,3.4
	c-58,13.1-141.1,28.5-258.8,45.9c-210.7,31.1-481.9,49.7-771.1,49.8c-289.1,0-560.4-18.7-771.1-49.8C172.9,32.1,89.8,16.6,31.8,3.6
	l-23-3.4C3-1.2-1.8,4.8,0.7,10.2c0,0,6.5,14.3,7.4,16.6c10.7,28.2,23.9,34.8,53.6,274.5c4.4,35.8,26.5,332.9,32.5,383.7
	c6.5,55.2,13.3,110.3,20.3,165.4c6.9,54.2,14.1,108.4,21.7,162.5c8.3,59.2,17,118.4,26.2,177.4c19.8,126.5,41.5,255.1,64.9,380.8
	c9.3,50,18.9,99.9,29,149.7c9.8,48.9,20.1,97.6,30.8,146.3c5.8,26.2,11.7,52.3,17.7,78.4c6.8,29.4,13.9,58.8,21.1,88.1
	c7.1,28.6,14.4,57.2,22,85.6c8.7,32.5,17.7,64.9,27.2,97.2c6.5,22.2,13.3,44.4,20.4,66.7l4.2,13c1.4,4.3,7.5,4.1,8.6-0.2
	c0,0,3.8-10.7,4.9-12.4c11.9-18.3,34.6-28.6,61.9-32.6C508.8,2246.2,784.2,2226.2,1061.7,2226.2z"/>

    <text class="textcolor" style="font-size:428px; font-family:'Square721BT-BoldExtended';  text-anchor:middle;" textLength="1660" lengthAdjust="spacingAndGlyphs" transform="matrix(6.016144e-11 -1.34 1 4.489659e-11 1216.475 1160)">
        <tspan>HEMI</tspan>
    </text>
</svg>
