<?xml version="1.0" encoding="utf-8"?>
<!-- Generator: Adobe Illustrator 27.4.1, SVG Export Plug-In . SVG Version: 6.00 Build 0)  -->
<svg version="1.1" id="Layer_1" xmlns="http://www.w3.org/2000/svg" xmlns:xlink="http://www.w3.org/1999/xlink" x="0px" y="0px"
	 viewBox="0 0 2194.8 2308.9" style="enable-background:new 0 0 2194.8 2308.9;" xml:space="preserve">
	<title>$design_title</title>
	<desc>$design_desc</desc>
    <defs>
		<linearGradient id="mainGradient_04" y2='1'>
        </linearGradient>
		<linearGradient id="accentGradient_04" y2='1'>
        </linearGradient>
		<linearGradient id="accent2Gradient_04" y2='1'>
        </linearGradient>
		<linearGradient id="textGradient_04" y2='1'>
        </linearGradient>
		<linearGradient id="text2Gradient_04" y2='1'>
        </linearGradient>
		<linearGradient id="text3Gradient_04" y2='1'>
        </linearGradient>
    </defs>

	<g class="maincolor">
		<path d="M1133.4,1192c207.8,18.2,370.7,192.7,370.7,405.1s-163,386.9-370.7,405.1v233.5
			c264.9,1.6,518.4,20.1,550.7,24.9c27.3,4,50,14.3,61.9,32.6c1.1,1.7,4.9,12.4,4.9,12.4c1.1,4.3,7.2,4.5,8.6,0.2l4.2-13
			c7.1-22.2,13.9-44.5,20.4-66.7c9.5-32.3,18.5-64.7,27.2-97.2c7.6-28.5,14.9-57,22-85.6c7.3-29.3,14.3-58.7,21.1-88.1
			c6.1-26.1,12-52.2,17.7-78.4c10.7-48.7,21-97.5,30.8-146.3c10-49.8,19.7-99.7,29-149.7c23.4-125.8,45.1-254.4,64.9-380.8
			c9.2-59.1,18-118.2,26.2-177.4c7.6-54.1,14.8-108.3,21.7-162.5c7-55.1,13.8-110.3,20.3-165.4c6-50.8,11.9-101.7,17.7-152.6
			c4.7-41.1,9.4-82.2,14.2-123.3c4.2-35.6,9.3-78.9,13.9-114.7c9.7-75.6,28.5-150.7,54.4-222.3c6.7-18.5,13.9-36.7,21.6-54.8
			c1-2.3,7.4-16.6,7.4-16.6c2.5-5.4-2.4-11.4-8.2-10l-23,5.3c-58,13.1-145.9,30.9-263.5,48.7c-250.3,37.8-491.9,53.1-766,54.4V1192z"/>
		<path d="M1061.4,2002.3c-207.8-18.2-370.7-192.7-370.7-405.1s163-386.9,370.7-405.1V108.6
		c-274.2-1.2-515.7-16.6-766-54.4C177.7,36.5,89.8,18.6,31.8,5.5l-23-5.3C3-1.2-1.8,4.8,0.7,10.2c0,0,6.4,14.3,7.4,16.6
		c7.7,18.1,14.9,36.3,21.6,54.8C55.5,153.2,74.4,228.4,84,303.9c4.6,35.8,9.8,79.1,13.9,114.7c4.8,41.1,9.5,82.2,14.2,123.3
		c5.8,50.9,11.7,101.7,17.7,152.6c6.5,55.2,13.3,110.3,20.3,165.4c6.9,54.2,14.1,108.4,21.7,162.5c8.3,59.2,17,118.4,26.2,177.4
		c19.8,126.5,41.5,255.1,64.9,380.8c9.3,50,18.9,99.9,29,149.7c9.8,48.9,20.1,97.6,30.8,146.3c5.8,26.2,11.7,52.3,17.7,78.4
		c6.8,29.4,13.9,58.8,21.1,88.1c7.1,28.6,14.4,57.2,22,85.6c8.7,32.5,17.7,64.9,27.2,97.2c6.5,22.2,13.3,44.4,20.4,66.7l4.2,13
		c1.4,4.3,7.5,4.1,8.6-0.2c0,0,3.8-10.7,4.9-12.4c11.9-18.3,34.6-28.6,61.9-32.6c32.3-4.8,285.8-23.3,550.7-24.9V2002.3z"/>
	</g>

	<g class="accentcolor">
			<path d="M1155,1172.7c212.3,28.8,370.7,210.2,370.7,424.4c0,214.3-158.4,395.6-370.7,424.4v192.8
	c55.2,0.5,110.4,1.7,165.5,3.5c72.8,2.3,145.5,5.7,218.1,9.9c49.3,2.5,98.5,6.3,147.6,11.3c21.1,2.3,46.6,11.2,63.2,25.7
	c24.3-76.7,43.4-149.6,62.8-226.9c83.4-332,167.1-830.1,210.9-1180.7l20.3-165.3l31.9-275.9l14-114.9
	c10.2-77.4,28.8-153.5,55.5-226.8c5.6-15.7,11.6-31.3,18-46.6c-329.7,72.8-671.1,100.7-1007.9,102.5V1172.7z M1176.6,1154.2V151.6
	c248.2-2.2,483.6-17.8,729.2-54.6c74.4-11,148.6-24.3,222.2-39.7c-1.2,3.2-2.4,6.5-3.5,9.7c-27.2,74.8-46.2,152.4-56.6,231.3
	l-14,115.1L2022,689.4l-20.3,165.2c-43.7,350.1-127.2,846.4-210.4,1178.1c-16.5,65.8-34.3,134.2-54.1,198.7
	c-15.8-7.2-31.5-12-48.7-13.8c-49.4-5.1-99-8.9-148.7-11.4c-132.7-7.2-214.8-11.4-363.3-13.2V2040
	c185.4-33.2,330.5-178.3,363.7-363.7C1584,1431.7,1421.2,1198,1176.6,1154.2z"/>
		<path d="M1039.8,130.1C703,128.3,361.6,100.4,31.9,27.7c6.4,15.4,12.5,30.9,18,46.6c26.7,73.4,45.3,149.4,55.5,226.8
	l14,114.9l31.9,275.9l20.3,165.3c43.8,350.6,127.4,848.7,210.9,1180.7c19.4,77.3,38.5,150.2,62.8,226.9
	c16.5-14.5,42.1-23.4,63.2-25.7c49.1-5.1,98.3-8.9,147.6-11.3c72.7-4.3,145.4-7.6,218.1-9.9c55.2-1.8,110.4-3,165.5-3.5v-192.8
	c-212.3-28.8-370.7-210.2-370.7-424.4c0-214.3,158.4-395.6,370.7-424.4V130.1z M654.5,1676.3c33.2,185.4,178.3,330.5,363.7,363.7
	V2193c-148.4,1.9-230.6,6-363.3,13.2c-49.7,2.5-99.2,6.3-148.7,11.4c-17.3,1.8-32.9,6.6-48.7,13.8c-19.8-64.6-37.6-133-54.1-198.7
	C320.2,1701,236.8,1204.7,193,854.6l-20.3-165.2l-31.9-275.9l-14-115.1C116.5,219.4,97.5,141.8,70.3,67c-1.2-3.3-2.3-6.5-3.5-9.7
	C140.4,72.7,214.5,85.9,289,97c245.6,36.8,481.1,52.4,729.2,54.6v1002.6C773.6,1198,610.7,1431.7,654.5,1676.3z"/>
	</g>

	<text class="textcolor" style="font-size:110px; font-family:'Square721BT-BoldExtended';  text-anchor:middle;" transform="matrix(0.7118 0 0 1 1100 1638.6859)">
		<tspan>$textRef</tspan>
	</text>
</svg>
