<?xml version="1.0" encoding="utf-8"?>
<!-- Generator: Adobe Illustrator 27.4.1, SVG Export Plug-In . SVG Version: 6.00 Build 0)  -->
<svg version="1.1" id="Layer_1" xmlns="http://www.w3.org/2000/svg" xmlns:xlink="http://www.w3.org/1999/xlink" x="0px" y="0px"
	 viewBox="0 0 2145.2 2466.3" style="enable-background:new 0 0 2145.2 2466.3;" xml:space="preserve">
    <defs>
        <linearGradient id="mainGradient_01" y2='1'>
        </linearGradient>
		<linearGradient id="accentGradient_01" y2='1'>
        </linearGradient>
		<linearGradient id="accent2Gradient_01" y2='1'>
        </linearGradient>
		<linearGradient id="textGradient_01" y2='1'>
        </linearGradient>
		<linearGradient id="text2Gradient_01" y2='1'>
        </linearGradient>
		<linearGradient id="text3Gradient_01" y2='1'>
        </linearGradient>
    </defs>

	<path class="accentcolor" d="M1072.4,2427.3C1072.5,2427.3,1072.3,2427.3,1072.4,2427.3
		C1072.4,2427.3,1072.4,2427.3,1072.4,2427.3c268.2,0,510.2-8.1,631.8-13c53.6-2.2,86.6,13.5,100.4,49.6c1.2,3.2,5.4,3.2,6-0.2
		C2021.9,1178.5,2144.9,11.8,2145.2,8.3c0.4-7.2-2.6-9.2-8.4-7.9c-336.4,74.3-775.2,102.5-1064.3,102.5
		C783.3,102.8,344.8,74.7,8.5,0.4C2.6-0.9-0.4,1.1,0,8.3c0.2,3.5,123.3,1170.2,334.6,2455.4c0.6,3.4,4.8,3.3,6,0.2
		c13.8-36.1,46.8-51.8,100.4-49.6C562.6,2419.1,804.2,2427.3,1072.4,2427.3C1072.4,2427.3,1072.4,2427.3,1072.4,2427.3z"/>
	
	<g class="maincolor">
		<path d="M1072.4,2427.3C1072.4,2427.3,1072.4,2427.3,1072.4,2427.3c268.2,0,510.2-8.1,631.8-13
			c53.6-2.2,86.6,13.5,100.4,49.6c1.2,3.2,5.4,3.2,6-0.2c5.2-31.8,10.4-63.6,15.5-95.2c11.5-70.9,22.7-141.3,33.6-211.1H285.5
			c10.9,69.8,22.1,140.2,33.6,211.1c5.1,31.7,10.3,63.4,15.5,95.2c0.6,3.4,4.8,3.3,6,0.2c13.8-36.1,46.8-51.8,100.4-49.6
			C562.6,2419.1,804.2,2427.3,1072.4,2427.3C1072.4,2427.3,1072.4,2427.3,1072.4,2427.3C1072.4,2427.3,1072.4,2427.3,1072.4,2427.3
			C1072.4,2427.3,1072.4,2427.3,1072.4,2427.3C1072.4,2427.3,1072.4,2427.3,1072.4,2427.3C1072.4,2427.3,1072.4,2427.3,1072.4,2427.3
			C1072.4,2427.3,1072.4,2427.3,1072.4,2427.3C1072.4,2427.3,1072.4,2427.3,1072.4,2427.3C1072.4,2427.3,1072.4,2427.3,1072.4,2427.3
			C1072.4,2427.3,1072.4,2427.3,1072.4,2427.3C1072.4,2427.3,1072.4,2427.3,1072.4,2427.3L1072.4,2427.3
			C1072.4,2427.3,1072.4,2427.3,1072.4,2427.3C1072.4,2427.3,1072.4,2427.3,1072.4,2427.3C1072.4,2427.3,1072.4,2427.3,1072.4,2427.3
			z"/>
		<path d="M1072.4,2427.3C1072.4,2427.3,1072.4,2427.3,1072.4,2427.3C1072.4,2427.3,1072.4,2427.3,1072.4,2427.3z"/>
		<path d="M1.6,23.5H124C84.5,16.3,45.8,8.6,8.5,0.4C2.6-0.9-0.4,1.1,0,8.3C0.1,8.5,0.6,13.7,1.6,23.5z"/>
		<path d="M2021.2,23.5h122.4c1-9.8,1.6-14.9,1.6-15.2c0.4-7.2-2.6-9.2-8.4-7.9C2099.4,8.6,2060.7,16.3,2021.2,23.5z"/>
		<path d="M2122.2,215.7H23c1.5,13.5,3.2,27.6,4.9,42.2h2089.4C2119,243.3,2120.6,229.2,2122.2,215.7z"/>
		<path d="M2096.9,431.5H48.3c2.4,19.7,4.8,40.1,7.3,61h2033.9C2092.1,471.6,2094.5,451.2,2096.9,431.5z"/>
		<path d="M2070.6,647.2H74.6c3.2,26,6.5,52.5,10,79.7h1976C2064,699.8,2067.4,673.2,2070.6,647.2z"/>
		<path d="M2043.3,863H101.9c4.1,32.2,8.4,65,12.8,98.5h1915.9C2034.9,928,2039.2,895.1,2043.3,863z"/>
		<path d="M2015.1,1078.7H130.1c5.1,38.4,10.3,77.5,15.7,117.3h1853.7C2004.8,1156.2,2010.1,1117.1,2015.1,1078.7z"/>
		<path d="M1986,1294.5H159.2c6.1,44.6,12.4,90,18.8,136h1789.2C1973.6,1384.5,1979.9,1339.1,1986,1294.5z"/>
		<path d="M1956,1510.2H189.2c7.2,50.9,14.6,102.5,22.2,154.8h1722.4C1941.4,1612.7,1948.8,1561.1,1956,1510.2z"/>
		<path d="M1924.9,1726H220.3c8.4,57.1,16.9,115,25.7,173.5h1653.2C1908,1841,1916.6,1783.1,1924.9,1726z"/>
		<path d="M1892.8,1941.7H252.4c9.6,63.5,19.4,127.6,29.5,192.3h1581.5C1873.4,2069.3,1883.2,2005.2,1892.8,1941.7z"/>
	</g>
</svg>
