<?xml version="1.0" encoding="utf-8"?>
<!-- Generator: Adobe Illustrator 27.4.1, SVG Export Plug-In . SVG Version: 6.00 Build 0)  -->
<svg version="1.1" id="Layer_1" xmlns="http://www.w3.org/2000/svg" xmlns:xlink="http://www.w3.org/1999/xlink" x="0px" y="0px"
	 viewBox="0 0 2284.5 3044.9" style="enable-background:new 0 0 2284.5 3044.9;" xml:space="preserve">
	<title>$design_title</title>
	<desc>$design_desc</desc>
    <defs>
		<linearGradient id="mainGradient_10" y2='1'>
        </linearGradient>
		<linearGradient id="accentGradient_10" y2='1'>
        </linearGradient>
		<linearGradient id="accent2Gradient_10" y2='1'>
        </linearGradient>
		<linearGradient id="textGradient_10" y2='1'>
        </linearGradient>
		<linearGradient id="text2Gradient_10" y2='1'>
        </linearGradient>
		<linearGradient id="text3Gradient_10" y2='1'>
        </linearGradient>
    </defs>

	<path class="maincolor" d="M1142.2,119.5c-289.1,0-540.8-15-802-54.4C203.4,44.4,106.7,23.6,50.7,10.4c-4-0.9-7.7-1.8-11.3-2.7
	L8.9,0.2C3-1.2-1.9,4.9,0.7,10.3l8.9,18.4l3.7,8.1c24,53.7,63.9,156.9,79.9,282.6c27.4,214.5,58.1,538.6,114.2,896.9
	c141.5,903.3,263.1,1184.9,296.7,1273.1c7,18.5,15.4,36.5,23.7,54.5c9.1,19.7,19.2,40.4,29.3,59.1c2.1,3.9,4.3,7.8,6.5,11.7
	c2.6,4.7,5.4,9.3,8.2,13.9c8.8,13.9,17.6,27.8,26.4,41.7c10.1,15.9,20.3,31.8,30.5,47.7c4.6,7.2,9.3,14.5,13.9,21.8
	c16.1,25.4,31.2,49.9,45.4,76.4c4.4,8.2,8.7,16.5,12.8,24.8c4.5,9.1,8.9,18.3,13.2,27.5c8.8,19,17.5,38.9,25.7,58.1
	c8.4,19.8,16.7,39.7,24.9,59.6c6.9,16.9,13.9,33.9,20.7,50.9c2.4,6,9,9.2,15.2,7.4l0,0c13.4-3.9,10.1-12,4.8-24.9
	c-95.7-236-97.4-221.7-212.2-404.3c-26.8-42.6-89.9-175.9-106.6-261.9c-9.9-50.6,23.2-75,69.1-81.8c33.7-5,309.2-25,586.7-25
	c277.5,0,552.9,20,586.7,25c45.9,6.8,78.9,31.2,69.1,81.8c-16.8,86-79.9,219.3-106.6,261.9c-114.8,182.6-116.5,168.3-212.2,404.3
	c-5.2,12.9-8.5,21,4.8,24.9l0,0c6.3,1.8,12.8-1.3,15.2-7.4c6.9-17,13.8-33.9,20.7-50.9c8.2-19.9,16.4-39.8,24.9-59.6
	c8.2-19.2,16.9-39.1,25.7-58.1c4.3-9.2,8.7-18.4,13.2-27.5c4.1-8.3,8.4-16.6,12.8-24.8c14.2-26.5,29.3-51,45.4-76.4
	c4.6-7.3,9.2-14.5,13.9-21.8c10.2-15.9,20.3-31.8,30.5-47.7c8.8-13.9,17.6-27.8,26.4-41.7c2.9-4.6,5.6-9.2,8.2-13.9
	c2.2-3.9,4.4-7.8,6.5-11.7c10.1-18.7,20.2-39.4,29.3-59.1c8.3-18,16.7-36,23.7-54.5c33.6-88.3,155.2-369.9,296.7-1273.1
	c56.1-358.3,86.8-682.4,114.2-896.9c16.1-125.7,55.9-228.8,79.9-282.6l3.7-8.1l8.9-18.4c2.7-5.5-2.3-11.6-8.2-10.1l-30.5,7.5
	c-3.6,0.9-7.3,1.7-11.3,2.7c-56.1,13.2-152.7,34-289.5,54.7C1683.1,104.5,1431.4,119.5,1142.2,119.5z"/>

	<path class="accentcolor" d="M464.7 2315.9s-164.4-712.2-262.5-1446c-14.1-105.8-26.1-211.8-38-317.9C119.6 154.9 79.1 108 33.6 29.3c39.6 89.4 68.7 190.3 81 287.4 9.9 79.2 19.2 158.4 28.1 237.7 12 106.1 24.7 212.2 38 318.2 53.6 423.2 160.6 1059.9 284 1443.3z"/>

	<path class="accentcolor" d="M1820.3 2315.9s164.4-712.2 262.5-1446c14.1-105.8 26.1-211.8 38-317.9 44.6-397.1 85.1-444 130.6-522.7-39.6 89.4-68.7 190.3-81 287.4-9.9 79.2-19.2 158.4-28.1 237.7-12 106.1-24.7 212.2-38 318.2-53.6 423.2-160.7 1059.9-284 1443.3z"/>

	<text class="textcolor" style="font-size:110px; font-family:'Square721BT-BoldExtended';  text-anchor:middle;" transform="matrix(1 0 0 1 1140 2031.9595)">
		<tspan>$textRef</tspan>
	</text>

	<path id="text2l_x5F" class="textpath" d="M133.6,115.2
	c20.2,62.9,34.7,127.5,43.5,192.9c0,0,0,0,0,0.1c10.5,79.7,19.9,159.5,28.3,239.5c9.1,84.7,19,169.3,29.6,253.8
	c26.8,213,58.7,430.8,95.4,642.5c23.7,136.8,50.5,277.1,80,412.2c24.8,113.6,53.6,232.7,85.3,343.9"/>
	<text class="textcolor2" style="font-size:110px; text-anchor:middle; font-family:'Square721BT-BoldExtended';">
		<textPath  xlink:href="#text2l_x5F" startOffset="50%">
			<tspan>$text2Ref</tspan>
		</textPath>
	</text>

	<path id="textr_x5F" class="textpath" d="M1789.1,2200.2
	c56.8-199.2,105.5-431.3,142.4-631.5c11.7-63.6,22.9-127.3,33.6-191.1c33.4-198.9,63.2-404.4,87.9-604.7c7.5-60.9,14.6-122,21.2-183
	c9.8-94,20.9-187.9,33.2-281.6c0,0,0,0,0-0.1c8.8-65.7,23.4-130.4,43.6-193.5"/>
	<text class="textcolor2" style="font-size:110px; text-anchor:middle; font-family:'Square721BT-BoldExtended';">
		<textPath  xlink:href="#textr_x5F" startOffset="50%">
			<tspan>$text2Ref</tspan>
		</textPath>
	</text>
</svg>
