<?xml version="1.0" encoding="utf-8"?>
<!-- Generator: Adobe Illustrator 27.4.1, SVG Export Plug-In . SVG Version: 6.00 Build 0)  -->
<svg version="1.1" id="Layer_1" xmlns="http://www.w3.org/2000/svg" xmlns:xlink="http://www.w3.org/1999/xlink" x="0px" y="0px"
	 viewBox="0 0 2284.5 3044.9" style="enable-background:new 0 0 2284.5 3044.9;" xml:space="preserve">
	<title>$design_title</title>
	<desc>$design_desc</desc>
    <defs>
		<linearGradient id="mainGradient_08" y2='1'>
        </linearGradient>
		<linearGradient id="accentGradient_08" y2='1'>
        </linearGradient>
		<linearGradient id="accent2Gradient_08" y2='1'>
        </linearGradient>
		<linearGradient id="textGradient_08" y2='1'>
        </linearGradient>
		<linearGradient id="text2Gradient_08" y2='1'>
        </linearGradient>
		<linearGradient id="text3Gradient_08" y2='1'>
        </linearGradient>
    </defs>

	<path class="maincolor" d="M1142.2,119.5c-289.1,0-540.8-15-802-54.4C203.4,44.4,106.7,23.6,50.7,10.4c-4-0.9-7.7-1.8-11.3-2.7
	L8.9,0.2C3-1.2-1.9,4.9,0.7,10.3l8.9,18.4l3.7,8.1c24,53.7,63.9,156.9,79.9,282.6c27.4,214.5,58.1,538.6,114.2,896.9
	c141.5,903.3,263.1,1184.9,296.7,1273.1c7,18.5,15.4,36.5,23.7,54.5c9.1,19.7,19.2,40.4,29.3,59.1c2.1,3.9,4.3,7.8,6.5,11.7
	c2.6,4.7,5.4,9.3,8.2,13.9c8.8,13.9,17.6,27.8,26.4,41.7c10.1,15.9,20.3,31.8,30.5,47.7c4.6,7.2,9.3,14.5,13.9,21.8
	c16.1,25.4,31.2,49.9,45.4,76.4c4.4,8.2,8.7,16.5,12.8,24.8c4.5,9.1,8.9,18.3,13.2,27.5c8.8,19,17.5,38.9,25.7,58.1
	c8.4,19.8,16.7,39.7,24.9,59.6c6.9,16.9,13.9,33.9,20.7,50.9c2.4,6,9,9.2,15.2,7.4l0,0c13.4-3.9,10.1-12,4.8-24.9
	c-95.7-236-97.4-221.7-212.2-404.3c-26.8-42.6-89.9-175.9-106.6-261.9c-9.9-50.6,23.2-75,69.1-81.8c33.7-5,309.2-25,586.7-25
	c277.5,0,552.9,20,586.7,25c45.9,6.8,78.9,31.2,69.1,81.8c-16.8,86-79.9,219.3-106.6,261.9c-114.8,182.6-116.5,168.3-212.2,404.3
	c-5.2,12.9-8.5,21,4.8,24.9l0,0c6.3,1.8,12.8-1.3,15.2-7.4c6.9-17,13.8-33.9,20.7-50.9c8.2-19.9,16.4-39.8,24.9-59.6
	c8.2-19.2,16.9-39.1,25.7-58.1c4.3-9.2,8.7-18.4,13.2-27.5c4.1-8.3,8.4-16.6,12.8-24.8c14.2-26.5,29.3-51,45.4-76.4
	c4.6-7.3,9.2-14.5,13.9-21.8c10.2-15.9,20.3-31.8,30.5-47.7c8.8-13.9,17.6-27.8,26.4-41.7c2.9-4.6,5.6-9.2,8.2-13.9
	c2.2-3.9,4.4-7.8,6.5-11.7c10.1-18.7,20.2-39.4,29.3-59.1c8.3-18,16.7-36,23.7-54.5c33.6-88.3,155.2-369.9,296.7-1273.1
	c56.1-358.3,86.8-682.4,114.2-896.9c16.1-125.7,55.9-228.8,79.9-282.6l3.7-8.1l8.9-18.4c2.7-5.5-2.3-11.6-8.2-10.1l-30.5,7.5
	c-3.6,0.9-7.3,1.7-11.3,2.7c-56.1,13.2-152.7,34-289.5,54.7C1683.1,104.5,1431.4,119.5,1142.2,119.5z"/>

	<path class="accentcolor" d="M1142.2,155.5c-127.8,0.3-255.5-3.2-383-10.6c-142-8.3-283.5-23.1-424.2-44.3
	C241.9,87.4,149.3,70.2,57.7,49c35.1,85.1,59,174.4,71.2,265.6c10.2,79.3,19.6,158.8,28.2,238.3c24,219.9,52.7,439.2,85.9,657.9
	c46.8,305.1,127.1,748.7,225,1067.4c19.4-24.9,53.2-39.2,84.1-42.6c67.7-6.7,135.6-11.5,203.6-14.5c281.6-13.4,446.7-14.1,723.1-2.5
	c84.7,3.2,169.3,8.8,253.6,16.9c30.8,2.9,65.1,18.1,84.5,42.6c13-42.2,25-84.6,36.3-127.3c28.1-105.3,53.3-211.4,75.7-318.1
	c43.2-206.3,80.8-413.7,112.8-622.1c31.2-204.7,58.3-410,81.1-615.7c10-93.6,21-187.1,33-280.4c12.2-91.3,36.1-180.6,71.2-265.7
	C1875.1,128.8,1501.1,156.6,1142.2,155.5z M1142.2,177.1c192.1,1,384-7.6,575.2-25.7c159.5-15.1,318-39.4,474.6-72.8
	c-27.8,75.3-47.2,153.5-57.9,233.1c-12.2,93.5-23.3,187.2-33.1,281c-49.7,461.7-158.1,1181.2-295.2,1646.7
	c-20.5-13.9-46.4-22.8-71.4-25.3c-84.8-8.3-169.8-14-254.9-17c-265.3-10.8-416.4-12.2-725,2.5c-68.4,3-136.6,7.8-204.7,14.5
	c-24.4,2.5-51,11.6-71,25.1c-142.6-485-247.7-1198.3-300.3-1688.6c-8.4-79.7-17.8-159.3-28.2-238.8c-10.6-79.5-30-157.5-57.7-232.8
	c79.2,17.3,159,31.7,239.3,43.1c141.3,21.3,283.4,36.1,426.1,44.4C885.9,174,1014,177.5,1142.2,177.1z"/>

	<text class="textcolor" style="font-size:110px; font-family:'Square721BT-BoldExtended';  text-anchor:middle;" transform="matrix(1 0 0 1 1140 2031.9595)">
		<tspan>$textRef</tspan>
	</text>

	<path id="text2l_x5F" class="textpath" d="M133.6,115.2
	c20.2,62.9,34.7,127.5,43.5,192.9c0,0,0,0,0,0.1c10.5,79.7,19.9,159.5,28.3,239.5c9.1,84.7,19,169.3,29.6,253.8
	c26.8,213,58.7,430.8,95.4,642.5c23.7,136.8,50.5,277.1,80,412.2c24.8,113.6,53.6,232.7,85.3,343.9"/>
	<text class="textcolor2" style="font-size:110px; text-anchor:middle; font-family:'Square721BT-BoldExtended';">
		<textPath  xlink:href="#text2l_x5F" startOffset="50%">
			<tspan>$text2Ref</tspan>
		</textPath>
	</text>

	<path id="textr_x5F" class="textpath" d="M1789.1,2200.2
	c56.8-199.2,105.5-431.3,142.4-631.5c11.7-63.6,22.9-127.3,33.6-191.1c33.4-198.9,63.2-404.4,87.9-604.7c7.5-60.9,14.6-122,21.2-183
	c9.8-94,20.9-187.9,33.2-281.6c0,0,0,0,0-0.1c8.8-65.7,23.4-130.4,43.6-193.5"/>
	<text class="textcolor2" style="font-size:110px; text-anchor:middle; font-family:'Square721BT-BoldExtended';">
		<textPath  xlink:href="#textr_x5F" startOffset="50%">
			<tspan>$text2Ref</tspan>
		</textPath>
	</text>
</svg>
