<?xml version="1.0" encoding="utf-8"?>
<!-- Generator: Adobe Illustrator 27.4.1, SVG Export Plug-In . SVG Version: 6.00 Build 0)  -->
<svg version="1.1" id="Layer_1" xmlns="http://www.w3.org/2000/svg" xmlns:xlink="http://www.w3.org/1999/xlink" x="0px" y="0px" viewBox="0 0 2145.2 2483.7" style="enable-background:new 0 0 2145.2 2483.7;" xml:space="preserve">
  <defs>
    <linearGradient id="mainGradient_01" y2='1'>
    </linearGradient>
    <linearGradient id="accentGradient_01" y2='1'>
    </linearGradient>
    <linearGradient id="accent2Gradient_01" y2='1'>
    </linearGradient>
    <linearGradient id="textGradient_01" y2='1'>
    </linearGradient>
    <linearGradient id="text2Gradient_01" y2='1'>
    </linearGradient>
    <linearGradient id="text3Gradient_01" y2='1'>
    </linearGradient>
  </defs>

  <path class="maincolor" d="M1072.4,2444.6C1072.5,2444.6,1072.3,2444.6,1072.4,2444.6
	C1072.4,2444.6,1072.4,2444.6,1072.4,2444.6c268.2,0,510.2-8.1,631.8-13c53.6-2.2,86.6,13.5,100.4,49.6c1.2,3.2,5.4,3.2,6-0.2
	C2021.9,1195.9,2144.9,11.8,2145.2,8.3c0.4-7.2-2.6-9.2-8.4-7.9c-336.4,74.3-775.2,108.3-1064.3,108.3
	c-289.1,0-727.6-34-1063.9-108.3C2.6-0.9-0.4,1.1,0,8.3c0.2,3.5,123.3,1187.6,334.6,2472.8c0.6,3.4,4.8,3.3,6,0.2
	c13.8-36.1,46.8-51.8,100.4-49.6C562.6,2436.5,804.2,2444.6,1072.4,2444.6C1072.4,2444.6,1072.4,2444.6,1072.4,2444.6z"/>

  <text class="textcolor" style="font-size:110px; font-family:'Square721BT-BoldExtended';  text-anchor:middle;" transform="matrix(1 0 0 1 1050 2224.4226)">
    <tspan>TXT/LOGO</tspan>
  </text>

  <path id="SVGID_x5F_A_05b" class="textpath" d="M1760.5,2368.6c17-105.6,33.6-211.3,49.8-317.1c15.6-102.3,30.9-204.6,45.8-307
	c28.2-193.5,55.2-387.1,81.2-581c47.7-356.6,93.5-727.9,132-1080.4"/>
  <text class="textcolor2" style=" font-size:110px; text-anchor:middle; font-family:'Square721BT-BoldExtended';">
    <textPath  xlink:href="#SVGID_x5F_A_05b" startOffset="50%">
      <tspan>SIDE TXT/LOGO</tspan>
    </textPath>
  </text>

  <path id="SVGID_x5F_B_o5b" class="textpath" d="M76,83.1
	c43.6,398,94.6,807.9,148.3,1202.6c26.4,193.6,53.9,387.1,82.6,580.4c24.7,166.2,51.4,339,77.8,502.5"/>
  <text class="textcolor2" style=" font-size:110px; text-anchor:middle; font-family:'Square721BT-BoldExtended';">
    <textPath  xlink:href="#SVGID_x5F_B_o5b" startOffset="50%">
      <tspan>SIDE TXT/LOGO</tspan>
    </textPath>
  </text>
</svg>
