<?xml version="1.0" encoding="utf-8"?>
<!-- Generator: Adobe Illustrator 27.4.1, SVG Export Plug-In . SVG Version: 6.00 Build 0)  -->
<svg version="1.1" id="Layer_1" xmlns="http://www.w3.org/2000/svg" xmlns:xlink="http://www.w3.org/1999/xlink" x="0px" y="0px"
	 viewBox="0 0 2194.8 2308.9" style="enable-background:new 0 0 2194.8 2308.9;" xml:space="preserve">
	<title>$design_title</title>
	<desc>$design_desc</desc>
    <defs>
		<linearGradient id="mainGradient_07" y2='1'>
        </linearGradient>
		<linearGradient id="accentGradient_07" y2='1'>
        </linearGradient>
		<linearGradient id="accent2Gradient_07" y2='1'>
        </linearGradient>
		<linearGradient id="textGradient_07" y2='1'>
        </linearGradient>
		<linearGradient id="text2Gradient_07" y2='1'>
        </linearGradient>
		<linearGradient id="text3Gradient_07" y2='1'>
        </linearGradient>
    </defs>

	<path class="maincolor" d="M1097.4,2235.6c277.5,0,552.9,20,586.7,25c27.3,4,50,14.3,61.9,32.6c1.1,1.7,4.9,12.4,4.9,12.4 c1.1,4.3,7.2,4.5,8.6,0.2l4.2-13c7.1-22.2,13.9-44.5,20.4-66.7c9.5-32.3,18.5-64.7,27.2-97.2c7.6-28.5,14.9-57,22-85.6
	c7.3-29.3,14.3-58.7,21.1-88.1c6.1-26.1,12-52.2,17.7-78.4c10.7-48.7,21-97.5,30.8-146.3c10-49.8,19.7-99.7,29-149.7
	c23.4-125.8,45.1-254.4,64.9-380.8c9.2-59.1,18-118.2,26.2-177.4c7.6-54.1,14.8-108.3,21.7-162.5c7-55.1,13.8-110.3,20.3-165.4
	c6-50.8,11.9-101.7,17.7-152.6c4.7-41.1,9.4-82.2,14.2-123.3c4.2-35.6,9.3-78.9,13.9-114.7c9.7-75.6,28.5-150.7,54.4-222.3
	c6.7-18.5,13.9-36.7,21.6-54.8c1-2.3,7.4-16.6,7.4-16.6c2.5-5.4-2.4-11.4-8.2-10l-23,5.3c-58,13.1-145.9,30.9-263.5,48.7
	c-261.2,39.4-512.9,54.4-802,54.4c-289.1,0-540.8-15-802-54.4C177.7,36.5,89.8,18.6,31.8,5.5l-23-5.3C3-1.2-1.8,4.8,0.7,10.2
	c0,0,6.4,14.3,7.4,16.6c7.7,18.1,14.9,36.3,21.6,54.8C55.5,153.2,74.4,228.4,84,303.9c4.6,35.8,9.8,79.1,13.9,114.7
	c4.8,41.1,9.5,82.2,14.2,123.3c5.8,50.9,11.7,101.7,17.7,152.6c6.5,55.2,13.3,110.3,20.3,165.4c6.9,54.2,14.1,108.4,21.7,162.5
	c8.3,59.2,17,118.4,26.2,177.4c19.8,126.5,41.5,255.1,64.9,380.8c9.3,50,18.9,99.9,29,149.7c9.8,48.9,20.1,97.6,30.8,146.3
	c5.8,26.2,11.7,52.3,17.7,78.4c6.8,29.4,13.9,58.8,21.1,88.1c7.1,28.6,14.4,57.2,22,85.6c8.7,32.5,17.7,64.9,27.2,97.2
	c6.5,22.2,13.3,44.4,20.4,66.7l4.2,13c1.4,4.3,7.5,4.1,8.6-0.2c0,0,3.8-10.7,4.9-12.4c11.9-18.3,34.6-28.6,61.9-32.6
	C544.4,2255.6,819.9,2235.6,1097.4,2235.6z"/>

	<path class="accentcolor" d="M1097.4,187.9C1097.4,187.9,1097.4,187.9,1097.4,187.9c332.2-0.2,650.3-20.4,976.6-83.2	c-19.1,61.6-33,124.8-41.7,188.7c0,0-16.1,125.7-42,391.8c-52.1,535.3-243.6,1564.5-243.6,1564.5l9.8-31.9
	c86.7-289.3,166.4-727.2,211.8-1022.4c25.7-167.7,48.4-335.9,68.1-504.4c11.9-102.5,35.9-311.6,45.9-390.9
	c10.2-77.9,29-154.5,55.9-228.3c4.1-11.5,8.4-22.9,12.9-34.2c-347.8,75.4-697.9,99.8-1053.6,99.8c0,0,0,0,0,0s0,0,0,0
	c-355.7,0-705.8-24.4-1053.6-99.8c4.5,11.3,8.9,22.7,12.9,34.2c26.9,73.8,45.6,150.4,55.9,228.3c10,79.3,34,288.4,45.9,390.9
	c19.7,168.5,42.3,336.7,68.1,504.4c45.4,295.2,125.1,733.1,211.8,1022.4l9.8,31.9c0,0-191.5-1029.1-243.6-1564.5
	c-25.9-266.1-42-391.8-42-391.8c-8.7-63.9-22.6-127.1-41.7-188.7C447.1,167.4,765.2,187.6,1097.4,187.9
	C1097.4,187.9,1097.4,187.9,1097.4,187.9z"/>

	<text class="textcolor" style="font-size:110px; font-family:'Square721BT-BoldExtended';  text-anchor:middle;" transform="matrix(1 0 0 1 1100 2079.1152)">
		<tspan>$textRef</tspan>
	</text>

	<path id="SVGID_x5F_A" class="textpath" d="M158.9,139.3c13.3,49.5,23.5,99.7,30.4,150.5c0,0.1,0,0.2,0,0.3
	c1.6,12.7,3.1,25.4,4.6,38.2c3.3,27.9,6.5,55.8,9.5,83.8c10.2,92.3,18.8,176.8,27.9,270.6c3.9,39.4,8.1,78.7,12.8,118
	c4.1,34.9,8.4,69.8,12.9,104.7c8.4,65.1,17.4,130.1,26.8,195.1c9.1,63.3,18.6,126.6,28.4,189.9c8.8,57.1,17.8,114.3,27,171.3
	c34.6,214.4,73.3,439.4,111.9,653.9c7.8,43.1,15.6,86.2,23.6,129.3"/>
	<text class="textcolor2" style=" font-size:110px; text-anchor:middle; font-family:'Square721BT-BoldExtended';">
		<textPath  xlink:href="#SVGID_x5F_A" startOffset="50%">
			<tspan>$text2Ref</tspan>
		</textPath>
	</text>

	<path id="SVGID_x5F_B" class="textpath" d="M1719.7,2247.6
	c0.1-0.9,0.2-1.9,0.4-2.8c15.3-82.9,32.1-176.1,46.7-259c39.8-225.2,80-464.2,115-690.3c8-51.6,15.7-103.2,23.3-154.8
	c6.9-46.9,13.6-93.9,20-140.9c7.5-54.8,14.7-109.7,21.4-164.7c3.2-26.5,6.3-53,9.3-79.6c2.7-24.3,5.2-48.6,7.6-73
	c5.1-52.9,10.5-105.8,15.9-158.6c3.3-31.4,6.6-62.8,10-94.3c3.3-30.6,6.5-58.2,10.1-89.6c1.9-16.7,3.9-33.4,6-50c0-0.1,0-0.2,0-0.3
	c6.9-50.8,17-101,30.4-150.5"/>
	<text class="textcolor2" style=" font-size:110px; text-anchor:middle; font-family:'Square721BT-BoldExtended';">
		<textPath  xlink:href="#SVGID_x5F_B" startOffset="50%">
			<tspan  class="st3 st4">$text2Ref</tspan>
		</textPath>
	</text>
</svg>