<?xml version="1.0" encoding="utf-8"?>
<!-- Generator: Adobe Illustrator 27.4.1, SVG Export Plug-In . SVG Version: 6.00 Build 0)  -->
<svg version="1.1" id="Layer_1" xmlns="http://www.w3.org/2000/svg" xmlns:xlink="http://www.w3.org/1999/xlink" x="0px" y="0px"
	 viewBox="0 0 2194.8 2308.9" style="enable-background:new 0 0 2194.8 2308.9;" xml:space="preserve">
	<title>$design_title</title>
	<desc>$design_desc</desc>
    <defs>
		<linearGradient id="mainGradient_03" y2='1'>
        </linearGradient>
		<linearGradient id="accentGradient_03" y2='1'>
        </linearGradient>
		<linearGradient id="accent2Gradient_03" y2='1'>
        </linearGradient>
		<linearGradient id="textGradient_03" y2='1'>
        </linearGradient>
		<linearGradient id="text2Gradient_03" y2='1'>
        </linearGradient>
		<linearGradient id="text3Gradient_03" y2='1'>
        </linearGradient>
    </defs>

	<path class="maincolor" d="M1097.4,2235.6c277.5,0,552.9,20,586.7,25c27.3,4,50,14.3,61.9,32.6c1.1,1.7,4.9,12.4,4.9,12.4
	c1.1,4.3,7.2,4.5,8.6,0.2l4.2-13c7.1-22.2,13.9-44.5,20.4-66.7c9.5-32.3,18.5-64.7,27.2-97.2c7.6-28.5,14.9-57,22-85.6
	c7.3-29.3,14.3-58.7,21.1-88.1c6.1-26.1,12-52.2,17.7-78.4c10.7-48.7,21-97.5,30.8-146.3c10-49.8,19.7-99.7,29-149.7
	c23.4-125.8,45.1-254.4,64.9-380.8c9.2-59.1,18-118.2,26.2-177.4c7.6-54.1,14.8-108.3,21.7-162.5c7-55.1,13.8-110.3,20.3-165.4
	c6-50.8,11.9-101.7,17.7-152.6c4.7-41.1,9.4-82.2,14.2-123.3c4.2-35.6,9.3-78.9,13.9-114.7c9.7-75.6,28.5-150.7,54.4-222.3
	c6.7-18.5,13.9-36.7,21.6-54.8c1-2.3,7.4-16.6,7.4-16.6c2.5-5.4-2.4-11.4-8.2-10l-23,5.3c-58,13.1-145.9,30.9-263.5,48.7
	c-261.2,39.4-512.9,54.4-802,54.4c-289.1,0-540.8-15-802-54.4C177.7,36.5,89.8,18.6,31.8,5.5l-23-5.3C3-1.2-1.8,4.8,0.7,10.2
	c0,0,6.4,14.3,7.4,16.6c7.7,18.1,14.9,36.3,21.6,54.8C55.5,153.2,74.4,228.4,84,303.9c4.6,35.8,9.8,79.1,13.9,114.7
	c4.8,41.1,9.5,82.2,14.2,123.3c5.8,50.9,11.7,101.7,17.7,152.6c6.5,55.2,13.3,110.3,20.3,165.4c6.9,54.2,14.1,108.4,21.7,162.5
	c8.3,59.2,17,118.4,26.2,177.4c19.8,126.5,41.5,255.1,64.9,380.8c9.3,50,18.9,99.9,29,149.7c9.8,48.9,20.1,97.6,30.8,146.3
	c5.8,26.2,11.7,52.3,17.7,78.4c6.8,29.4,13.9,58.8,21.1,88.1c7.1,28.6,14.4,57.2,22,85.6c8.7,32.5,17.7,64.9,27.2,97.2
	c6.5,22.2,13.3,44.4,20.4,66.7l4.2,13c1.4,4.3,7.5,4.1,8.6-0.2c0,0,3.8-10.7,4.9-12.4c11.9-18.3,34.6-28.6,61.9-32.6
	C544.4,2255.6,819.9,2235.6,1097.4,2235.6z"/>

	<path class="accentcolor" d="M1097.4,2213.1c157-0.1,304.3,5.7,475.9,15.9c37.8,2.1,75.5,5.2,113.2,9.2
	c14.4,1.6,30.2,6.4,43.3,12.7l-0.1-0.1c6.9,3.4,13.4,7.6,19.3,12.6l13.5-43.8c44.1-147.1,90.4-353.9,118.4-493.7
	c44.5-222.3,88.7-483,119.8-706.6c15.1-109,29.1-218.1,41.9-327.4c12.3-105.5,35.2-306.1,45.9-390.9c10.2-77.5,28.8-153.6,55.6-227
	c5-14.2,10.4-28.3,16.2-42.2c0,0-78.8,98.6-105.2,257.4c-21,126-24.3,151.1-47.6,344.1c-59,487.6-159.5,1138.1-284.7,1568.7
	c-32.1-9.7-108-13.9-146.8-16c-99.2-6.6-198.5-11.2-297.9-13.6c2.6-1.2,5.3-2.3,7.9-3.5c54-24.8,102.5-60.1,142.9-103.7
	c59.8-64.6,99.5-144.9,114-231.7c4.2-24.8,6.2-50,6.2-75.1c0-31.9-3.3-63.7-10-94.9c3.1,20.8,4.6,42.2,4.6,63.8
	c0,243.8-199.8,441.5-446.2,441.5S651.2,1971,651.2,1727.1c0-21.7,1.6-43,4.6-63.8c-6.7,31.2-10,63-10,94.9
	c0,25.2,2.1,50.3,6.2,75.1c14.5,86.8,54.2,167.2,114,231.7c40.4,43.6,88.9,78.8,142.9,103.7c2.6,1.2,5.2,2.4,7.9,3.5
	c-99.4,2.5-198.7,7-297.9,13.6c-38.7,2.2-114.7,6.3-146.8,16C346.9,1771.3,246.4,1120.8,187.5,633.3
	c-23.3-193-26.6-218.1-47.6-344.1C113.4,130.4,34.6,31.8,34.6,31.8c5.8,13.9,11.2,28,16.2,42.2c26.7,73.4,45.4,149.5,55.6,227
	c10.7,84.8,33.6,285.3,45.9,390.9c12.8,109.3,26.8,218.4,41.9,327.4c31.1,223.6,75.4,484.3,119.8,706.6
	c27.9,139.8,74.2,346.6,118.4,493.7l13.5,43.8c5.9-5,12.4-9.2,19.3-12.6l-0.1,0.1c13.1-6.2,28.9-11,43.3-12.7
	c37.6-4.1,75.4-7.1,113.2-9.2C793.1,2218.8,940.4,2213,1097.4,2213.1z"/>

	<text class="textcolor" style="font-size:110px; font-family:'Square721BT-BoldExtended';  text-anchor:middle;" transform="matrix(0.7718 0 0 1 1100 1761.5088)">
		<tspan>$textRef</tspan>
	</text>
</svg>
