<?xml version="1.0" encoding="utf-8"?>
<!-- Generator: Adobe Illustrator 27.4.1, SVG Export Plug-In . SVG Version: 6.00 Build 0)  -->
<svg version="1.1" id="Layer_1" xmlns="http://www.w3.org/2000/svg" xmlns:xlink="http://www.w3.org/1999/xlink" x="0px" y="0px"
	 viewBox="0 0 2145.2 2483.7" style="enable-background:new 0 0 2145.2 2483.7;" xml:space="preserve">

	<defs>
		<linearGradient id="mainGradient_01" y2='1'>
		</linearGradient>
		<linearGradient id="accentGradient_01" y2='1'>
		</linearGradient>
		<linearGradient id="accent2Gradient_01" y2='1'>
		</linearGradient>
		<linearGradient id="textGradient_01" y2='1'>
		</linearGradient>
		<linearGradient id="text2Gradient_01" y2='1'>
		</linearGradient>
		<linearGradient id="text3Gradient_01" y2='1'>
		</linearGradient>
	</defs>

	<path class="maincolor" d="M1072.4,2444.6C1072.5,2444.6,1072.3,2444.6,1072.4,2444.6
		C1072.4,2444.6,1072.4,2444.6,1072.4,2444.6c268.2,0,510.2-8.1,631.8-13c53.6-2.2,86.6,13.5,100.4,49.6c1.2,3.2,5.4,3.2,6-0.2
		C2021.9,1195.9,2144.9,11.8,2145.2,8.3c0.4-7.2-2.6-9.2-8.4-7.9c-336.4,74.3-775.2,108.3-1064.3,108.3
		c-289.1,0-727.6-34-1063.9-108.3C2.6-0.9-0.4,1.1,0,8.3c0.2,3.5,123.3,1187.6,334.6,2472.8c0.6,3.4,4.8,3.3,6,0.2
		c13.8-36.1,46.8-51.8,100.4-49.6C562.6,2436.5,804.2,2444.6,1072.4,2444.6C1072.4,2444.6,1072.4,2444.6,1072.4,2444.6z"/>

	<path class="accentcolor" d="M1103,2444.6c5.6,0,11.1,0,16.7,0l-15.5-26.8l19.8-34.2h39.5l19.7,34.2l-15.4,26.6
		c5.6,0,11.1-0.1,16.6-0.1l11.2-19.3h39.5l10.8,18.7c5.5-0.1,11-0.1,16.4-0.2l-14.8-25.7l19.7-34.2h39.5l19.7,34.2l-14.4,24.9
		c5.6-0.1,11.2-0.2,16.7-0.3l10.1-17.5h39.5l9.4,16.4c5.5-0.1,10.9-0.2,16.4-0.3l-13.4-23.2l19.7-34.2h39.5l19.7,34.2l-12.7,21.9
		c5.7-0.1,11.3-0.3,16.8-0.4l8.3-14.3h39.5l7.4,12.8c5.5-0.2,10.9-0.3,16.3-0.5l-11.3-19.5l19.7-34.2h39.5l19.7,34.2l-10.2,17.7
		c5.7-0.2,11.4-0.4,16.9-0.6l5.7-9.9h39.5l4.7,8.1c5.6-0.2,11-0.4,16.2-0.6l-8.5-14.6l19.7-34.2h39.5l19.7,34.2l-9.7,16.9
		c5,1.1,9.8,2.4,14.2,4l7.9-13.7h39.5l8.8,15.2c1.2-7.5,2.4-14.9,3.6-22.4l0,0l0-0.1c2.2-13.3,4.3-26.6,6.5-39.9l-18.9,32.8H1769
		l-19.7-34.2l19.8-34.2h39.5l19.3,33.4c1.2-7.5,2.4-15,3.6-22.4l-10.5-18.1l18.5-32.1c0.9-5.5,1.8-11,2.6-16.5h-1.4l-19.8-34.2
		l19.7-34.2h12.2c0.8-4.8,1.5-9.6,2.3-14.3h-14.4l-19.8-34.2l19.7-34.2h25.1c0.7-4.8,1.5-9.6,2.2-14.3h-27.3l-19.8-34.2l19.7-34.2
		h37.9c0.8-5.2,1.6-10.5,2.4-15.7l-0.8,1.3h-39.5l-19.8-34.2l19.7-34.2h39.5l8.7,15c3-20.1,6.1-40.1,9-60.1l-17.7,30.7h-39.5
		l-19.7-34.2l19.7-34.1h39.5l18.5,32.1c1.1-7.6,2.3-15.2,3.4-22.8l-9.5-16.5l16.1-27.9c1.1-7.1,2.1-14.3,3.2-21.4l-19.3-33.4
		l19.8-34.2h9.5c0.7-4.8,1.4-9.6,2.1-14.3h-11.6l-19.7-34.2l19.8-34.2h21.5c0.7-4.8,1.4-9.6,2.1-14.3h-23.6l-19.7-34.2l19.8-34.2
		h33.3c0.7-4.8,1.4-9.6,2-14.3h-35.4l-19.7-34.2l19.8-34.2h39.5l4.5,7.8c1.9-13.2,3.7-26.3,5.5-39.4l-10,17.3h-39.5l-19.7-34.2
		l19.8-34.2h39.5l13.8,23.9c1.1-7.7,2.1-15.4,3.2-23.1l-4.6-7.9l7.5-13c2.1-15.4,4.2-30.7,6.3-45.9l-13.8-23.9l19.7-34.2h2
		c0.7-4.8,1.3-9.6,1.9-14.3h-4l-19.8-34.2l19.7-34.2h13.2c0.6-4.8,1.3-9.6,1.9-14.3H1984l-19.8-34.2l19.7-34.2h24.3
		c0.6-4.8,1.3-9.6,1.9-14.3H1984l-19.8-34.2l19.7-34.2h35.2c0.6-4.8,1.3-9.6,1.9-14.3H1984l-19.8-34.2l19.7-34.2h39.5l5.3,9.2
		c1.8-14.1,3.6-28.2,5.4-42.1l-10.7,18.6H1984l-19.8-34.2L1984,894h39.5l14,24.3c1-7.9,2-15.7,3-23.5l-4.6-8l7.2-12.5
		c2-16,4-31.8,6-47.4l-13.2-22.9l19.8-34.2h0.6c0.6-4.8,1.2-9.6,1.8-14.3h-2.4l-19.7-34.2l19.8-34.2h10.9c0.6-4.8,1.2-9.6,1.8-14.3
		h-12.7l-19.7-34.2l19.7-34.1h21.1c0.6-4.8,1.2-9.7,1.8-14.4h-22.9l-19.7-34.1l19.7-34.2h31.1c0.6-4.8,1.2-9.6,1.7-14.3h-32.8
		l-19.7-34.2l19.8-34.2h39.5l1.2,2.1c0.9-7.9,1.9-15.7,2.8-23.4l-4,6.9h-39.5l-19.7-34.2l19.8-34.2h39.5l9.3,16.1
		c2.4-20.2,4.6-39.6,6.8-58.3l-16.1,27.9h-39.5l-19.7-34.2l19.8-34.2h39.5l17.3,30c0.9-8.1,1.9-16.1,2.8-23.9l-7.6-13.2l11.4-19.7
		c1.4-12.5,2.8-24.6,4.1-36.2l-15.5-26.8l19.7-34.2h2.6c0.5-4.9,1.1-9.7,1.6-14.3h-4.2l-19.8-34.2l19.7-34.2h11.7
		c0.6-5.1,1.1-9.9,1.5-14.3h-13.2L2107.6,18l7.5-12.9c-6.2,1.3-12.5,2.7-18.8,4l-1,1.8h-7.7c-14.9,3-30,6-45.2,8.9l-18.8,32.5H1984
		l-11.5-20c-5,0.9-10,1.7-15.1,2.5l14.2,24.6l-19.7,34.2h-39.5l-19.7-34.2l9-15.6c-6,0.9-12.1,1.8-18.2,2.8l-3.3,5.7h-35.9
		c-6.2,0.9-12.4,1.7-18.6,2.6l2.6,4.6l-19.7,34.2H1769l-16.8-29.2c-5.9,0.7-11.8,1.4-17.7,2.2h2.4l19.7,34.2l-19.8,34.2h-39.5
		l-19.8-34.2l17.1-29.6c-5.9,0.7-11.8,1.3-17.7,2l-11.8,20.4h-39.5l-8.2-14.2c-5.2,0.5-10.5,1-15.7,1.5l11.4,19.8l-19.8,34.2H1554
		l-19.8-34.2l8.3-14.4c-5.8,0.5-11.6,1-17.4,1.5l-3.3,5.7h-39.5l-1.2-2.1c-5.3,0.4-10.6,0.8-15.9,1.2l4.7,8.1l-19.8,34.2h-39.5
		l-19.8-34.2l1.8-3.1c-22.5,1.4-44.7,2.7-66.6,3.8l-19.3,33.5h-39.5l-17.3-30c-24.1,0.9-47.6,1.7-70.5,2.3l-16,27.7H1124l-15.3-26.5
		c-5.6,0.1-11.2,0.1-16.7,0.1l19.4,33.5l-19.8,34.2h-39.5l-19.7-34.2l19.4-33.5c-5.4,0-10.9-0.1-16.5-0.1l-15.3,26.5h-39.5l-16-27.8
		c-22.9-0.6-46.4-1.3-70.5-2.3l-17.3,30h-39.5l-19.3-33.5c-21.9-1.1-44.1-2.4-66.6-3.9l1.8,3.1L733.3,135h-39.5L674,100.8l4.7-8.2
		c-5.3-0.4-10.6-0.8-15.9-1.2l-1.3,2.2h-39.5l-3.3-5.8c-5.8-0.5-11.6-1-17.4-1.5l8.3,14.5L589.9,135h-39.5l-19.8-34.2l11.5-19.9
		c-5.2-0.5-10.4-1-15.7-1.5l-8.2,14.3h-39.5L466.9,73c-5.9-0.6-11.8-1.3-17.7-2l17.1,29.7L446.6,135h-39.5l-19.8-34.2l19.7-34.2h3.6
		c-6.3-0.8-12.5-1.5-18.8-2.3l-16.9,29.3h-39.5l-19.7-34.2l2.7-4.7c-5.8-0.8-11.7-1.6-17.5-2.4h-37.1l-3.4-5.9
		c-6.1-0.9-12.1-1.8-18.2-2.8l9.1,15.8l-19.7,34.2h-39.5l-19.7-34.2l14.3-24.8c-5-0.8-10.1-1.7-15.1-2.6l-11.6,20.1h-39.5l-18.9-32.8
		c-14.7-2.8-29.3-5.7-43.7-8.6h-9l-1.2-2.1c-6.3-1.3-12.6-2.6-18.9-4L36.3,18L16.6,52.2H4.7c0.5,4.4,1,9.2,1.5,14.3h10.4l19.7,34.2
		L16.6,135h-2.9c0.5,4.7,1,9.4,1.6,14.3h1.3l19.7,34.2l-14.4,25c1.5,13,3,26.6,4.6,40.8l9.8,17l-6.6,11.4c0.9,7.8,1.8,15.8,2.7,23.9
		l16.2-28.1h39.5l19.8,34.2l-19.7,34.2H48.8l-14.5-25.1c2,17.3,4.1,35.2,6.2,53.7l8.2-14.3h39.5l19.8,34.2l-19.7,34.2H48.8l-2.4-4.1
		c0.7,6.2,1.5,12.4,2.2,18.7l0.2-0.3h39.5l19.8,34.2l-19.7,34.2H56.7c0.6,4.7,1.1,9.5,1.7,14.3h29.8l19.7,34.2L88.3,590H66.7
		c0.6,4.8,1.2,9.6,1.8,14.4h19.9l19.7,34.1l-19.7,34.2H76.8c0.6,4.8,1.2,9.5,1.8,14.3h9.6l19.8,34.2l-19.7,34.2h-1.2
		c0.7,5.2,1.3,10.5,2,15.8l18.9,32.8l-12.2,21.1c2.2,17.2,4.4,34.5,6.6,52.1l5.5,9.6l-3.5,6.1c1,7.8,2,15.6,3,23.5l13-22.4h39.5
		l19.7,34.2l-19.8,34.2h-39.5l-9.1-15.7c1.6,12.4,3.2,24.8,4.8,37.4l4.2-7.3h39.5l19.7,34.2l-19.8,34.2h-35.8
		c0.6,4.8,1.2,9.5,1.9,14.3h33.9l19.7,34.2l-19.8,34.2H135c0.6,4.8,1.3,9.5,1.9,14.3h23l19.7,34.2l-19.8,34.2h-13.8
		c0.6,4.8,1.3,9.5,1.9,14.3h11.9l19.7,34.2l-19.8,34.2h-2.7c0.6,4.8,1.3,9.5,1.9,14.3h0.7l19.7,34.2l-12.8,22.1
		c2.3,16.8,4.6,33.6,7,50.6l5.8,10l-3.6,6.1c1.1,7.7,2.1,15.4,3.2,23.1l12.8-22.1h39.5l19.8,34.2l-19.7,34.2h-39.5l-8.3-14.4
		c1.6,11.5,3.2,23.1,4.9,34.7l3.4-6h39.5l19.8,34.2l-19.7,34.2h-34.1c0.7,4.8,1.4,9.5,2,14.3h32.1l19.8,34.2l-19.7,34.2h-22.3
		c0.7,4.8,1.4,9.6,2.1,14.3h20.2l19.8,34.2l-19.7,34.2h-10.3c0.7,4.8,1.4,9.6,2.1,14.3h8.2l19.8,34.2l-18.3,31.6
		c1.3,8.7,2.6,17.4,3.9,26.2l14.4,24.9l-8.5,14.7c1.1,7.6,2.3,15.2,3.4,22.8l17.5-30.3h39.5l19.7,34.1l-19.7,34.2h-39.5l-16-27.7
		c2.8,18.4,5.5,36.8,8.3,55.3l7.7-13.3h39.5l19.7,34.2l-19.8,34.2h-38.8c0.7,4.8,1.5,9.6,2.2,14.3h36.6l19.7,34.2l-19.8,34.2h-26
		c0.7,4.8,1.5,9.6,2.2,14.3h23.8l19.7,34.2l-19.8,34.2h-13.2c0.7,4.8,1.5,9.6,2.3,14.3h10.9l19.7,34.2l-19.8,34.2h-0.1
		c1,6.5,2.1,13,3.1,19.6l16.7,29l-9.5,16.4c1.2,7.5,2.4,14.9,3.6,22.4l18.3-31.7h39.5l19.8,34.2l-19.7,34.2h-39.5l-17.1-29.7
		c3.1,19.1,6.2,38.3,9.3,57.5l7.8-13.5h39.5l8.2,14.1c4.4-1.7,9.1-3.1,14.1-4.2l-9.9-17.1l19.7-34.2h39.5l19.7,34.2l-8.4,14.6
		c5.2,0.2,10.6,0.4,16.2,0.6l4.7-8.1h39.5l5.7,9.9c5.5,0.2,11.2,0.4,16.9,0.6l-10.2-17.6l19.7-34.2h39.5l19.7,34.2l-11.2,19.5
		c5.4,0.2,10.8,0.3,16.3,0.5l7.4-12.8h39.5l8.3,14.3c5.5,0.1,11.2,0.3,16.8,0.4l-12.6-21.9l19.7-34.2h39.5l19.7,34.2l-13.4,23.1
		c5.4,0.1,10.9,0.2,16.4,0.4l9.4-16.3h39.5l10.1,17.5c5.5,0.1,11.1,0.2,16.7,0.3l-14.4-24.9l19.7-34.2h39.5l19.7,34.2l-14.8,25.6
		c5.5,0.1,10.9,0.1,16.4,0.2l10.8-18.7h39.5l11.2,19.3c5.5,0,11.1,0.1,16.6,0.1l-15.4-26.6l19.7-34.2h39.5l19.7,34.2l-15.5,26.9
		c5.5,0,11,0,16.5,0l11.4-19.7h39.5L1103,2444.6z M100.7,597.2l19.7-34.1h39.5l19.7,34.1l-19.7,34.2h-39.5L100.7,597.2z M192,604.5
		h39.6l19.7,34.1l-19.7,34.2h-39.5l-19.7-34.2L192,604.5z M244,597.2l19.7-34.1h39.5l19.7,34.1l-19.7,34.2h-39.5L244,597.2z
		 M335.4,604.5H375l19.7,34.1l-19.7,34.2h-39.5l-19.7-34.2L335.4,604.5z M387.4,597.2l19.7-34.1h39.5l19.7,34.1l-19.7,34.2h-39.5
		L387.4,597.2z M478.7,604.5h39.6l19.7,34.1l-19.7,34.2h-39.5L459,638.6L478.7,604.5z M530.7,597.2l19.7-34.1H590l19.7,34.1
		l-19.7,34.2h-39.5L530.7,597.2z M622.1,604.5h39.6l19.7,34.1l-19.7,34.2h-39.5l-19.7-34.2L622.1,604.5z M674.1,597.2l19.7-34.1h39.5
		l19.7,34.1l-19.7,34.2h-39.5L674.1,597.2z M765.4,604.5H805l19.7,34.1l-19.7,34.2h-39.5l-19.7-34.2L765.4,604.5z M817.4,597.2
		l19.7-34.1h39.5l19.7,34.1l-19.7,34.2h-39.5L817.4,597.2z M908.7,604.5h39.6l19.7,34.1l-19.7,34.2h-39.5L889,638.6L908.7,604.5z
		 M960.7,597.2l19.7-34.1h39.5l19.7,34.1l-19.7,34.2h-39.5L960.7,597.2z M1052.1,604.5h39.6l19.7,34.1l-19.8,34.2h-39.5l-19.7-34.2
		L1052.1,604.5z M980.4,548.7l-19.7-34.1l19.7-34.2h39.5l19.7,34.2l-19.7,34.1H980.4z M837.1,548.7l-19.7-34.1l19.7-34.2h39.5
		l19.7,34.2l-19.7,34.1H837.1z M693.7,548.7L674,514.5l19.7-34.2h39.5l19.7,34.2l-19.7,34.1H693.7z M550.4,548.7l-19.7-34.1
		l19.7-34.2h39.5l19.7,34.2L590,548.7H550.4z M407,548.7l-19.7-34.1l19.7-34.2h39.5l19.7,34.2l-19.7,34.1H407z M263.7,548.7
		L244,514.5l19.7-34.2h39.5l19.7,34.2l-19.7,34.1H263.7z M120.4,548.7l-19.7-34.1l19.7-34.2h39.5l19.7,34.2L160,548.7H120.4z
		 M889.1,555.9l19.7-34.2h39.5l19.7,34.2L948.3,590h-39.5L889.1,555.9z M745.7,555.9l19.7-34.2h39.5l19.7,34.2L805,590h-39.5
		L745.7,555.9z M602.4,555.9l19.7-34.2h39.5l19.7,34.2L661.6,590h-39.5L602.4,555.9z M1032.4,555.9l19.7-34.2h39.5l19.8,34.2
		l-19.7,34.1h-39.6L1032.4,555.9z M459,555.9l19.7-34.2h39.5l19.7,34.2L518.3,590h-39.5L459,555.9z M315.7,555.9l19.7-34.2h39.5
		l19.7,34.2L374.9,590h-39.5L315.7,555.9z M172.4,555.9l19.7-34.2h39.5l19.7,34.2L231.6,590h-39.5L172.4,555.9z M172.3,473.2
		l19.8-34.2h39.5l19.8,34.2l-19.7,34.2h-39.5L172.3,473.2z M315.7,473.2l19.8-34.2h39.5l19.8,34.2l-19.7,34.2h-39.5L315.7,473.2z
		 M459,473.2l19.8-34.2h39.5l19.8,34.2l-19.7,34.2h-39.5L459,473.2z M602.4,473.2l19.8-34.2h39.5l19.8,34.2l-19.7,34.2h-39.5
		L602.4,473.2z M745.7,473.2l19.8-34.2h39.5l19.8,34.2l-19.7,34.2h-39.5L745.7,473.2z M889,473.2l19.8-34.2h39.5l19.8,34.2
		l-19.7,34.2h-39.5L889,473.2z M1032.4,473.2l19.8-34.2h39.5l19.8,34.2l-19.8,34.2h-39.5L1032.4,473.2z M100.7,431.8l19.7-34.2h39.5
		l19.7,34.2L159.9,466h-39.5L100.7,431.8z M231.6,424.6h-39.5l-19.7-34.2l19.8-34.2h39.5l19.8,34.2L231.6,424.6z M244,431.8
		l19.7-34.2h39.5l19.7,34.2L303.3,466h-39.5L244,431.8z M374.9,424.6h-39.5l-19.7-34.2l19.8-34.2h39.5l19.8,34.2L374.9,424.6z
		 M387.4,431.8l19.7-34.2h39.5l19.7,34.2L446.6,466h-39.5L387.4,431.8z M518.3,424.6h-39.5L459,390.4l19.8-34.2h39.5l19.8,34.2
		L518.3,424.6z M530.7,431.8l19.7-34.2h39.5l19.7,34.2L589.9,466h-39.5L530.7,431.8z M661.6,424.6h-39.5l-19.7-34.2l19.8-34.2h39.5
		l19.8,34.2L661.6,424.6z M674,431.8l19.7-34.2h39.5l19.7,34.2L733.3,466h-39.5L674,431.8z M804.9,424.6h-39.5l-19.7-34.2l19.8-34.2
		h39.5l19.8,34.2L804.9,424.6z M817.4,431.8l19.7-34.2h39.5l19.7,34.2L876.6,466h-39.5L817.4,431.8z M948.3,424.6h-39.5L889,390.4
		l19.8-34.2h39.5l19.8,34.2L948.3,424.6z M960.7,431.8l19.7-34.2h39.5l19.7,34.2l-19.8,34.2h-39.5L960.7,431.8z M1091.6,424.6h-39.5
		l-19.7-34.2l19.8-34.2h39.5l19.8,34.2L1091.6,424.6z M1032.4,307.7l19.8-34.2h39.5l19.8,34.2l-19.8,34.2h-39.5L1032.4,307.7z
		 M948.3,273.4l19.8,34.2l-19.7,34.2h-39.5L889,307.7l19.8-34.2H948.3z M960.7,266.3l19.7-34.2h39.5l19.7,34.2l-19.8,34.2h-39.5
		L960.7,266.3z M980.4,314.8h39.5l19.7,34.2l-19.8,34.2h-39.5L960.7,349L980.4,314.8z M804.9,273.4l19.8,34.2l-19.7,34.2h-39.5
		l-19.7-34.2l19.8-34.2H804.9z M817.4,266.3l19.7-34.2h39.5l19.7,34.2l-19.8,34.2h-39.5L817.4,266.3z M837.1,314.8h39.5l19.7,34.2
		l-19.8,34.2h-39.5L817.4,349L837.1,314.8z M661.6,273.4l19.8,34.2l-19.7,34.2h-39.5l-19.7-34.2l19.8-34.2H661.6z M674,266.3
		l19.7-34.2h39.5l19.7,34.2l-19.8,34.2h-39.5L674,266.3z M693.8,314.8h39.5L753,349l-19.8,34.2h-39.5L674,349L693.8,314.8z
		 M518.3,273.4l19.8,34.2l-19.7,34.2h-39.5L459,307.7l19.8-34.2H518.3z M530.7,266.3l19.7-34.2h39.5l19.7,34.2l-19.8,34.2h-39.5
		L530.7,266.3z M550.4,314.8h39.5l19.7,34.2l-19.8,34.2h-39.5L530.7,349L550.4,314.8z M407.1,300.5l-19.8-34.2l19.7-34.2h39.5
		l19.7,34.2l-19.8,34.2H407.1z M374.9,273.4l19.8,34.2l-19.7,34.2h-39.5l-19.7-34.2l19.8-34.2H374.9z M407.1,314.8h39.5l19.7,34.2
		l-19.8,34.2h-39.5L387.4,349L407.1,314.8z M231.6,273.4l19.8,34.2l-19.7,34.2h-39.5l-19.7-34.2l19.8-34.2H231.6z M244,266.3
		l19.7-34.2h39.5l19.7,34.2l-19.8,34.2h-39.5L244,266.3z M263.8,314.8h39.5L323,349l-19.8,34.2h-39.5L244,349L263.8,314.8z
		 M100.7,266.3l19.7-34.2h39.5l19.7,34.2l-19.8,34.2h-39.5L100.7,266.3z M120.4,314.8h39.5l19.7,34.2l-19.8,34.2h-39.5L100.7,349
		L120.4,314.8z M1039.7,183.5l-19.8,34.2h-39.5l-19.8-34.2l19.7-34.2h39.5L1039.7,183.5z M1091.6,190.7l19.8,34.2l-19.8,34.2h-39.5
		l-19.7-34.2l19.8-34.2H1091.6z M896.4,183.5l-19.8,34.2h-39.5l-19.8-34.2l19.7-34.2h39.5L896.4,183.5z M968,224.9l-19.7,34.2h-39.5
		L889,224.9l19.8-34.2h39.5L968,224.9z M948.3,176.3h-39.5L889,142.1l19.8-34.2h39.5l19.8,34.2L948.3,176.3z M753,183.5l-19.8,34.2
		h-39.5L674,183.5l19.7-34.2h39.5L753,183.5z M824.7,224.9l-19.7,34.2h-39.5l-19.7-34.2l19.8-34.2h39.5L824.7,224.9z M804.9,176.3
		h-39.5l-19.7-34.2l19.8-34.2h39.5l19.8,34.2L804.9,176.3z M609.7,183.5l-19.8,34.2h-39.5l-19.8-34.2l19.7-34.2h39.5L609.7,183.5z
		 M681.4,224.9l-19.7,34.2h-39.5l-19.7-34.2l19.8-34.2h39.5L681.4,224.9z M661.6,176.3h-39.5l-19.7-34.2l19.8-34.2h39.5l19.8,34.2
		L661.6,176.3z M466.3,183.5l-19.8,34.2h-39.5l-19.8-34.2l19.7-34.2h39.5L466.3,183.5z M538,224.9l-19.7,34.2h-39.5L459,224.9
		l19.8-34.2h39.5L538,224.9z M518.3,176.3h-39.5L459,142.1l19.8-34.2h39.5l19.8,34.2L518.3,176.3z M263.8,66.6h39.5l19.7,34.2
		L303.3,135h-39.5L244,100.8L263.8,66.6z M323,183.5l-19.8,34.2h-39.5L244,183.5l19.7-34.2h39.5L323,183.5z M394.7,224.9l-19.7,34.2
		h-39.5l-19.7-34.2l19.8-34.2h39.5L394.7,224.9z M374.9,176.3h-39.5l-19.7-34.2l19.8-34.2h39.5l19.8,34.2L374.9,176.3z M88.2,25.2
		L108,59.4L88.3,93.6H48.8L29,59.4l19.8-34.2H88.2z M120.4,66.6h39.5l19.7,34.2L159.9,135h-39.5l-19.8-34.2L120.4,66.6z M179.7,183.5
		l-19.8,34.2h-39.5l-19.8-34.2l19.7-34.2h39.5L179.7,183.5z M251.3,224.9l-19.7,34.2h-39.5l-19.7-34.2l19.8-34.2h39.5L251.3,224.9z
		 M231.6,176.3h-39.5l-19.7-34.2l19.8-34.2h39.5l19.8,34.2L231.6,176.3z M88.2,190.7l19.8,34.2l-19.7,34.2H48.8L29,224.9l19.8-34.2
		H88.2z M88.2,107.9l19.8,34.2l-19.7,34.2H48.8L29,142.1l19.8-34.2H88.2z M1123.9,563.1h39.6l19.7,34.1l-19.7,34.2H1124l-19.8-34.2
		L1123.9,563.1z M1195.6,604.5h39.6l19.7,34.1l-19.7,34.2h-39.5l-19.7-34.2L1195.6,604.5z M1247.6,597.2l19.7-34.1h39.5l19.7,34.1
		l-19.7,34.2h-39.5L1247.6,597.2z M1338.9,604.5h39.6l19.7,34.1l-19.7,34.2H1339l-19.7-34.2L1338.9,604.5z M1390.9,597.2l19.7-34.1
		h39.5l19.7,34.1l-19.7,34.2h-39.5L1390.9,597.2z M1482.3,604.5h39.6l19.7,34.1l-19.7,34.2h-39.5l-19.7-34.2L1482.3,604.5z
		 M1534.3,597.2l19.7-34.1h39.5l19.7,34.1l-19.7,34.2H1554L1534.3,597.2z M1625.6,604.5h39.6l19.7,34.1l-19.7,34.2h-39.5l-19.7-34.2
		L1625.6,604.5z M1677.6,597.2l19.7-34.1h39.5l19.7,34.1l-19.7,34.2h-39.5L1677.6,597.2z M1768.9,604.5h39.6l19.7,34.1l-19.7,34.2
		H1769l-19.7-34.2L1768.9,604.5z M1820.9,597.2l19.7-34.1h39.5l19.7,34.1l-19.7,34.2h-39.5L1820.9,597.2z M1912.3,604.5h39.6
		l19.7,34.1l-19.7,34.2h-39.5l-19.7-34.2L1912.3,604.5z M1964.3,597.2l19.7-34.1h39.5l19.7,34.1l-19.7,34.2H1984L1964.3,597.2z
		 M1983.9,548.7l-19.7-34.1l19.7-34.2h39.5l19.7,34.2l-19.7,34.1H1983.9z M1840.6,548.7l-19.7-34.1l19.7-34.2h39.5l19.7,34.2
		l-19.7,34.1H1840.6z M1697.3,548.7l-19.7-34.1l19.7-34.2h39.5l19.7,34.2l-19.7,34.1H1697.3z M1553.9,548.7l-19.7-34.1l19.7-34.2
		h39.5l19.7,34.2l-19.7,34.1H1553.9z M1410.6,548.7l-19.7-34.1l19.7-34.2h39.5l19.7,34.2l-19.7,34.1H1410.6z M1267.3,548.7
		l-19.7-34.1l19.7-34.2h39.5l19.7,34.2l-19.7,34.1H1267.3z M1123.9,548.7l-19.7-34.1l19.8-34.2h39.5l19.7,34.2l-19.7,34.1H1123.9z
		 M1892.6,555.9l19.7-34.2h39.5l19.7,34.2l-19.7,34.1h-39.5L1892.6,555.9z M1749.3,555.9l19.7-34.2h39.5l19.7,34.2l-19.7,34.1H1769
		L1749.3,555.9z M1605.9,555.9l19.7-34.2h39.5l19.7,34.2l-19.7,34.1h-39.5L1605.9,555.9z M1462.6,555.9l19.7-34.2h39.5l19.7,34.2
		l-19.7,34.1h-39.5L1462.6,555.9z M1319.3,555.9l19.7-34.2h39.5l19.7,34.2l-19.7,34.1H1339L1319.3,555.9z M1175.9,555.9l19.7-34.2
		h39.5l19.7,34.2l-19.7,34.1h-39.5L1175.9,555.9z M1175.9,473.2l19.8-34.2h39.5l19.8,34.2l-19.7,34.2h-39.5L1175.9,473.2z
		 M1319.2,473.2l19.8-34.2h39.5l19.8,34.2l-19.7,34.2H1339L1319.2,473.2z M1462.6,473.2l19.8-34.2h39.5l19.8,34.2l-19.7,34.2h-39.5
		L1462.6,473.2z M1605.9,473.2l19.8-34.2h39.5l19.8,34.2l-19.7,34.2h-39.5L1605.9,473.2z M1749.2,473.2l19.8-34.2h39.5l19.8,34.2
		l-19.7,34.2H1769L1749.2,473.2z M1892.6,473.2l19.8-34.2h39.5l19.8,34.2l-19.7,34.2h-39.5L1892.6,473.2z M1247.6,431.8l19.7-34.2
		h39.5l19.7,34.2l-19.8,34.2h-39.5L1247.6,431.8z M1378.5,424.6H1339l-19.7-34.2l19.8-34.2h39.5l19.8,34.2L1378.5,424.6z
		 M1390.9,431.8l19.7-34.2h39.5l19.7,34.2l-19.8,34.2h-39.5L1390.9,431.8z M1521.8,424.6h-39.5l-19.7-34.2l19.8-34.2h39.5l19.8,34.2
		L1521.8,424.6z M1534.2,431.8l19.7-34.2h39.5l19.7,34.2l-19.8,34.2H1554L1534.2,431.8z M1665.2,424.6h-39.5l-19.7-34.2l19.8-34.2
		h39.5l19.8,34.2L1665.2,424.6z M1677.6,431.8l19.7-34.2h39.5l19.7,34.2l-19.8,34.2h-39.5L1677.6,431.8z M1808.5,424.6H1769
		l-19.7-34.2l19.8-34.2h39.5l19.8,34.2L1808.5,424.6z M1820.9,431.8l19.7-34.2h39.5l19.7,34.2l-19.8,34.2h-39.5L1820.9,431.8z
		 M1951.8,424.6h-39.5l-19.7-34.2l19.8-34.2h39.5l19.8,34.2L1951.8,424.6z M1964.2,431.8l19.7-34.2h39.5l19.7,34.2l-19.8,34.2H1984
		L1964.2,431.8z M1235.1,424.6h-39.5l-19.7-34.2l19.8-34.2h39.5l19.8,34.2L1235.1,424.6z M1124,466l-19.8-34.2l19.8-34.2h39.5
		l19.7,34.2l-19.8,34.2H1124z M1951.8,273.4l19.8,34.2l-19.7,34.2h-39.5l-19.7-34.2l19.8-34.2H1951.8z M1964.2,266.3l19.7-34.2h39.5
		l19.7,34.2l-19.8,34.2H1984L1964.2,266.3z M1984,314.8h39.5l19.7,34.2l-19.8,34.2H1984l-19.8-34.2L1984,314.8z M1808.5,273.4
		l19.8,34.2l-19.7,34.2H1769l-19.7-34.2l19.8-34.2H1808.5z M1820.9,266.3l19.7-34.2h39.5l19.7,34.2l-19.8,34.2h-39.5L1820.9,266.3z
		 M1840.7,314.8h39.5l19.7,34.2l-19.8,34.2h-39.5l-19.8-34.2L1840.7,314.8z M1665.1,273.4l19.8,34.2l-19.7,34.2h-39.5l-19.7-34.2
		l19.8-34.2H1665.1z M1677.6,266.3l19.7-34.2h39.5l19.7,34.2l-19.8,34.2h-39.5L1677.6,266.3z M1697.3,314.8h39.5l19.7,34.2
		l-19.8,34.2h-39.5l-19.8-34.2L1697.3,314.8z M1554,300.5l-19.8-34.2l19.7-34.2h39.5l19.7,34.2l-19.8,34.2H1554z M1521.8,273.4
		l19.8,34.2l-19.7,34.2h-39.5l-19.7-34.2l19.8-34.2H1521.8z M1554,314.8h39.5l19.7,34.2l-19.8,34.2H1554l-19.8-34.2L1554,314.8z
		 M1378.5,273.4l19.8,34.2l-19.7,34.2H1339l-19.7-34.2l19.8-34.2H1378.5z M1390.9,266.3l19.7-34.2h39.5l19.7,34.2l-19.8,34.2h-39.5
		L1390.9,266.3z M1410.6,314.8h39.5l19.7,34.2l-19.8,34.2h-39.5l-19.8-34.2L1410.6,314.8z M1235.1,273.4l19.8,34.2l-19.7,34.2h-39.5
		l-19.7-34.2l19.8-34.2H1235.1z M1247.6,266.3l19.7-34.2h39.5l19.7,34.2l-19.8,34.2h-39.5L1247.6,266.3z M1267.3,314.8h39.5
		l19.7,34.2l-19.8,34.2h-39.5l-19.8-34.2L1267.3,314.8z M1124,300.5l-19.8-34.2l19.8-34.2h39.5l19.7,34.2l-19.8,34.2H1124z
		 M1124,314.8h39.5l19.7,34.2l-19.8,34.2H1124l-19.8-34.2L1124,314.8z M2043.2,183.5l-19.8,34.2H1984l-19.8-34.2l19.7-34.2h39.5
		L2043.2,183.5z M2114.9,224.9l-19.7,34.2h-39.5l-19.7-34.2l19.8-34.2h39.5L2114.9,224.9z M2095.2,176.3h-39.5l-19.7-34.2l19.8-34.2
		h39.5l19.8,34.2L2095.2,176.3z M1840.7,66.6h39.5l19.7,34.2l-19.8,34.2h-39.5l-19.8-34.2L1840.7,66.6z M2095.2,25.2l19.8,34.2
		l-19.7,34.2h-39.5l-19.7-34.2l19.8-34.2H2095.2z M1984,66.6h39.5l19.7,34.2l-19.8,34.2H1984l-19.8-34.2L1984,66.6z M1899.9,183.5
		l-19.8,34.2h-39.5l-19.8-34.2l19.7-34.2h39.5L1899.9,183.5z M1971.6,224.9l-19.7,34.2h-39.5l-19.7-34.2l19.8-34.2h39.5L1971.6,224.9
		z M1951.8,176.3h-39.5l-19.7-34.2l19.8-34.2h39.5l19.8,34.2L1951.8,176.3z M1756.6,183.5l-19.8,34.2h-39.5l-19.8-34.2l19.7-34.2
		h39.5L1756.6,183.5z M1828.2,224.9l-19.7,34.2H1769l-19.7-34.2l19.8-34.2h39.5L1828.2,224.9z M1808.5,176.3H1769l-19.7-34.2
		l19.8-34.2h39.5l19.8,34.2L1808.5,176.3z M1613.2,183.5l-19.8,34.2H1554l-19.8-34.2l19.7-34.2h39.5L1613.2,183.5z M1684.9,224.9
		l-19.7,34.2h-39.5l-19.7-34.2l19.8-34.2h39.5L1684.9,224.9z M1665.2,176.3h-39.5l-19.7-34.2l19.8-34.2h39.5l19.8,34.2L1665.2,176.3z
		 M1469.9,183.5l-19.8,34.2h-39.5l-19.8-34.2l19.7-34.2h39.5L1469.9,183.5z M1541.6,224.9l-19.7,34.2h-39.5l-19.7-34.2l19.8-34.2
		h39.5L1541.6,224.9z M1521.8,176.3h-39.5l-19.7-34.2l19.8-34.2h39.5l19.8,34.2L1521.8,176.3z M1326.6,183.5l-19.8,34.2h-39.5
		l-19.8-34.2l19.7-34.2h39.5L1326.6,183.5z M1398.2,224.9l-19.7,34.2H1339l-19.7-34.2l19.8-34.2h39.5L1398.2,224.9z M1378.5,176.3
		H1339l-19.7-34.2l19.8-34.2h39.5l19.8,34.2L1378.5,176.3z M1235.1,190.7l19.8,34.2l-19.7,34.2h-39.5l-19.7-34.2l19.8-34.2H1235.1z
		 M1235.1,107.9l19.8,34.2l-19.7,34.2h-39.5l-19.7-34.2l19.8-34.2H1235.1z M1124,149.3h39.5l19.7,34.2l-19.8,34.2H1124l-19.8-34.2
		L1124,149.3z M192.1,1266.4h39.5l19.8,34.2l-19.7,34.2h-39.5l-19.7-34.2L192.1,1266.4z M263.8,1225h39.5l19.7,34.2l-19.8,34.2h-39.5
		l-19.8-34.2L263.8,1225z M335.4,1266.4h39.5l19.8,34.2l-19.7,34.2h-39.5l-19.7-34.2L335.4,1266.4z M407.1,1225h39.5l19.7,34.2
		l-19.8,34.2h-39.5l-19.8-34.2L407.1,1225z M478.8,1266.4h39.5l19.8,34.2l-19.7,34.2h-39.5l-19.7-34.2L478.8,1266.4z M550.4,1225
		h39.5l19.7,34.2l-19.8,34.2h-39.5l-19.8-34.2L550.4,1225z M622.1,1266.4h39.5l19.8,34.2l-19.7,34.2h-39.5l-19.7-34.2L622.1,1266.4z
		 M693.8,1225h39.5l19.7,34.2l-19.8,34.2h-39.5l-19.8-34.2L693.8,1225z M765.5,1266.4h39.5l19.8,34.2l-19.7,34.2h-39.5l-19.7-34.2
		L765.5,1266.4z M837.1,1225h39.5l19.7,34.2l-19.8,34.2h-39.5l-19.8-34.2L837.1,1225z M908.8,1266.4h39.5l19.8,34.2l-19.7,34.2h-39.5
		l-19.7-34.2L908.8,1266.4z M980.4,1225h39.5l19.7,34.2l-19.8,34.2h-39.5l-19.8-34.2L980.4,1225z M1052.1,1266.4h39.5l19.8,34.2
		l-19.8,34.2h-39.5l-19.7-34.2L1052.1,1266.4z M980.5,1210.7l-19.8-34.2l19.7-34.2h39.5l19.7,34.2l-19.8,34.2H980.5z M837.1,1210.7
		l-19.8-34.2l19.7-34.2h39.5l19.7,34.2l-19.8,34.2H837.1z M693.8,1210.7l-19.8-34.2l19.7-34.2h39.5l19.7,34.2l-19.8,34.2H693.8z
		 M550.4,1210.7l-19.8-34.2l19.7-34.2h39.5l19.7,34.2l-19.8,34.2H550.4z M407.1,1210.7l-19.8-34.2l19.7-34.2h39.5l19.7,34.2
		l-19.8,34.2H407.1z M263.8,1210.7l-19.8-34.2l19.7-34.2h39.5l19.7,34.2l-19.8,34.2H263.8z M908.8,1252.1l-19.7-34.2l19.8-34.2h39.5
		l19.8,34.2l-19.7,34.2H908.8z M765.4,1252.1l-19.7-34.2l19.8-34.2h39.5l19.8,34.2l-19.7,34.2H765.4z M622.1,1252.1l-19.7-34.2
		l19.8-34.2h39.5l19.8,34.2l-19.7,34.2H622.1z M1052.1,1252.1l-19.7-34.2l19.8-34.2h39.5l19.8,34.2l-19.8,34.2H1052.1z M478.8,1252.1
		l-19.7-34.2l19.8-34.2h39.5l19.8,34.2l-19.7,34.2H478.8z M335.4,1252.1l-19.7-34.2l19.8-34.2h39.5l19.8,34.2l-19.7,34.2H335.4z
		 M192.1,1252.1l-19.7-34.2l19.8-34.2h39.5l19.8,34.2l-19.7,34.2H192.1z M172.3,1135.1l19.8-34.2h39.5l19.8,34.2l-19.7,34.2h-39.5
		L172.3,1135.1z M315.7,1135.1l19.8-34.2h39.5l19.8,34.2l-19.7,34.2h-39.5L315.7,1135.1z M459,1135.1l19.8-34.2h39.5l19.8,34.2
		l-19.7,34.2h-39.5L459,1135.1z M602.4,1135.1l19.8-34.2h39.5l19.8,34.2l-19.7,34.2h-39.5L602.4,1135.1z M745.7,1135.1l19.8-34.2
		h39.5l19.8,34.2l-19.7,34.2h-39.5L745.7,1135.1z M889,1135.1l19.8-34.2h39.5l19.8,34.2l-19.7,34.2h-39.5L889,1135.1z M1032.4,1135.1
		l19.8-34.2h39.5l19.8,34.2l-19.8,34.2h-39.5L1032.4,1135.1z M231.6,1086.5h-39.5l-19.7-34.2l19.8-34.2h39.5l19.8,34.2L231.6,1086.5z
		 M244,1093.7l19.7-34.2h39.5l19.7,34.2l-19.8,34.2h-39.5L244,1093.7z M374.9,1086.5h-39.5l-19.7-34.2l19.8-34.2h39.5l19.8,34.2
		L374.9,1086.5z M387.4,1093.7l19.7-34.2h39.5l19.7,34.2l-19.8,34.2h-39.5L387.4,1093.7z M518.3,1086.5h-39.5l-19.7-34.2l19.8-34.2
		h39.5l19.8,34.2L518.3,1086.5z M530.7,1093.7l19.7-34.2h39.5l19.7,34.2l-19.8,34.2h-39.5L530.7,1093.7z M661.6,1086.5h-39.5
		l-19.7-34.2l19.8-34.2h39.5l19.8,34.2L661.6,1086.5z M674,1093.7l19.7-34.2h39.5l19.7,34.2l-19.8,34.2h-39.5L674,1093.7z
		 M804.9,1086.5h-39.5l-19.7-34.2l19.8-34.2h39.5l19.8,34.2L804.9,1086.5z M817.4,1093.7l19.7-34.2h39.5l19.7,34.2l-19.8,34.2h-39.5
		L817.4,1093.7z M948.3,1086.5h-39.5l-19.7-34.2l19.8-34.2h39.5l19.8,34.2L948.3,1086.5z M960.7,1093.7l19.7-34.2h39.5l19.7,34.2
		l-19.8,34.2h-39.5L960.7,1093.7z M1091.6,1086.5h-39.5l-19.7-34.2l19.8-34.2h39.5l19.8,34.2L1091.6,1086.5z M1032.4,969.6l19.8-34.2
		h39.5l19.8,34.2l-19.8,34.2h-39.5L1032.4,969.6z M948.3,935.4l19.8,34.2l-19.7,34.2h-39.5L889,969.6l19.8-34.2H948.3z M960.7,928.2
		l19.7-34.2h39.5l19.7,34.2l-19.8,34.2h-39.5L960.7,928.2z M980.4,976.8h39.5l19.7,34.2l-19.8,34.2h-39.5l-19.8-34.2L980.4,976.8z
		 M804.9,935.4l19.8,34.2l-19.7,34.2h-39.5l-19.7-34.2l19.8-34.2H804.9z M817.4,928.2l19.7-34.2h39.5l19.7,34.2l-19.8,34.2h-39.5
		L817.4,928.2z M837.1,976.8h39.5l19.7,34.2l-19.8,34.2h-39.5l-19.8-34.2L837.1,976.8z M661.6,935.4l19.8,34.2l-19.7,34.2h-39.5
		l-19.7-34.2l19.8-34.2H661.6z M674,928.2l19.7-34.2h39.5l19.7,34.2l-19.8,34.2h-39.5L674,928.2z M693.8,976.8h39.5L753,1011
		l-19.8,34.2h-39.5L674,1011L693.8,976.8z M518.3,935.4l19.8,34.2l-19.7,34.2h-39.5L459,969.6l19.8-34.2H518.3z M530.7,928.2
		l19.7-34.2h39.5l19.7,34.2l-19.8,34.2h-39.5L530.7,928.2z M550.4,976.8h39.5l19.7,34.2l-19.8,34.2h-39.5l-19.8-34.2L550.4,976.8z
		 M407.1,962.4l-19.8-34.2l19.7-34.2h39.5l19.7,34.2l-19.8,34.2H407.1z M374.9,935.4l19.8,34.2l-19.7,34.2h-39.5l-19.7-34.2
		l19.8-34.2H374.9z M407.1,976.8h39.5l19.7,34.2l-19.8,34.2h-39.5l-19.8-34.2L407.1,976.8z M231.6,935.4l19.8,34.2l-19.7,34.2h-39.5
		l-19.7-34.2l19.8-34.2H231.6z M244,928.2l19.7-34.2h39.5l19.7,34.2l-19.8,34.2h-39.5L244,928.2z M263.8,976.8h39.5L323,1011
		l-19.8,34.2h-39.5L244,1011L263.8,976.8z M1039.7,845.5l-19.8,34.2h-39.5l-19.8-34.2l19.7-34.2h39.5L1039.7,845.5z M1091.6,852.6
		l19.8,34.2l-19.8,34.2h-39.5l-19.7-34.2l19.8-34.2H1091.6z M1091.6,838.3h-39.5l-19.7-34.2l19.8-34.2h39.5l19.8,34.2L1091.6,838.3z
		 M837.1,645.7h39.5l19.7,34.2l-19.8,34.2h-39.5l-19.8-34.2L837.1,645.7z M896.4,845.5l-19.8,34.2h-39.5l-19.8-34.2l19.7-34.2h39.5
		L896.4,845.5z M968,886.8L948.3,921h-39.5L889,886.8l19.8-34.2h39.5L968,886.8z M948.3,838.3h-39.5L889,804.1l19.8-34.2h39.5
		l19.8,34.2L948.3,838.3z M693.8,645.7h39.5l19.7,34.2l-19.8,34.2h-39.5L674,679.9L693.8,645.7z M745.7,721.3l19.8-34.2h39.5
		l19.8,34.2l-19.7,34.2h-39.5L745.7,721.3z M661.6,687.1l19.8,34.2l-19.7,34.2h-39.5l-19.7-34.2l19.8-34.2H661.6z M693.8,728.5h39.5
		l19.7,34.2l-19.8,34.2h-39.5L674,762.7L693.8,728.5z M980.4,645.7h39.5l19.7,34.2l-19.8,34.2h-39.5l-19.8-34.2L980.4,645.7z
		 M1052.1,687.1h39.5l19.8,34.2l-19.8,34.2h-39.5l-19.7-34.2L1052.1,687.1z M948.3,687.1l19.8,34.2l-19.7,34.2h-39.5L889,721.3
		l19.8-34.2H948.3z M980.4,728.5h39.5l19.7,34.2l-19.8,34.2h-39.5l-19.8-34.2L980.4,728.5z M837.1,728.5h39.5l19.7,34.2l-19.8,34.2
		h-39.5l-19.8-34.2L837.1,728.5z M753,845.5l-19.8,34.2h-39.5L674,845.5l19.7-34.2h39.5L753,845.5z M824.7,886.8L804.9,921h-39.5
		l-19.7-34.2l19.8-34.2h39.5L824.7,886.8z M804.9,838.3h-39.5l-19.7-34.2l19.8-34.2h39.5l19.8,34.2L804.9,838.3z M550.4,645.7h39.5
		l19.7,34.2l-19.8,34.2h-39.5l-19.8-34.2L550.4,645.7z M518.3,687.1l19.8,34.2l-19.7,34.2h-39.5L459,721.3l19.8-34.2H518.3z
		 M550.4,728.5h39.5l19.7,34.2l-19.8,34.2h-39.5l-19.8-34.2L550.4,728.5z M609.7,845.5l-19.8,34.2h-39.5l-19.8-34.2l19.7-34.2h39.5
		L609.7,845.5z M681.4,886.8L661.6,921h-39.5l-19.7-34.2l19.8-34.2h39.5L681.4,886.8z M661.6,838.3h-39.5l-19.7-34.2l19.8-34.2h39.5
		l19.8,34.2L661.6,838.3z M407.1,645.7h39.5l19.7,34.2l-19.8,34.2h-39.5l-19.8-34.2L407.1,645.7z M374.9,687.1l19.8,34.2l-19.7,34.2
		h-39.5l-19.7-34.2l19.8-34.2H374.9z M407.1,728.5h39.5l19.7,34.2l-19.8,34.2h-39.5l-19.8-34.2L407.1,728.5z M466.3,845.5l-19.8,34.2
		h-39.5l-19.8-34.2l19.7-34.2h39.5L466.3,845.5z M538,886.8L518.3,921h-39.5L459,886.8l19.8-34.2h39.5L538,886.8z M518.3,838.3h-39.5
		L459,804.1l19.8-34.2h39.5l19.8,34.2L518.3,838.3z M263.8,645.7h39.5l19.7,34.2l-19.8,34.2h-39.5L244,679.9L263.8,645.7z
		 M231.6,687.1l19.8,34.2l-19.7,34.2h-39.5l-19.7-34.2l19.8-34.2H231.6z M263.8,728.5h39.5l19.7,34.2l-19.8,34.2h-39.5L244,762.7
		L263.8,728.5z M323,845.5l-19.8,34.2h-39.5L244,845.5l19.7-34.2h39.5L323,845.5z M394.7,886.8L374.9,921h-39.5l-19.7-34.2l19.8-34.2
		h39.5L394.7,886.8z M374.9,838.3h-39.5l-19.7-34.2l19.8-34.2h39.5l19.8,34.2L374.9,838.3z M120.4,645.7h39.5l19.7,34.2l-19.8,34.2
		h-39.5l-19.8-34.2L120.4,645.7z M120.4,728.5h39.5l19.7,34.2l-19.8,34.2h-39.5l-19.8-34.2L120.4,728.5z M179.7,845.5l-19.8,34.2
		h-39.5l-19.8-34.2l19.7-34.2h39.5L179.7,845.5z M251.3,886.8L231.6,921h-39.5l-19.7-34.2l19.8-34.2h39.5L251.3,886.8z M231.6,838.3
		h-39.5l-19.7-34.2l19.8-34.2h39.5l19.8,34.2L231.6,838.3z M1951.8,1252.1h-39.5l-19.7-34.2l19.8-34.2h39.5l19.8,34.2L1951.8,1252.1z
		 M1880.1,1210.7h-39.5l-19.8-34.2l19.7-34.2h39.5l19.7,34.2L1880.1,1210.7z M1808.5,1252.1H1769l-19.7-34.2l19.8-34.2h39.5
		l19.8,34.2L1808.5,1252.1z M1736.8,1210.7h-39.5l-19.8-34.2l19.7-34.2h39.5l19.7,34.2L1736.8,1210.7z M1665.2,1252.1h-39.5
		l-19.7-34.2l19.8-34.2h39.5l19.8,34.2L1665.2,1252.1z M1593.5,1210.7H1554l-19.8-34.2l19.7-34.2h39.5l19.7,34.2L1593.5,1210.7z
		 M1521.8,1252.1h-39.5l-19.7-34.2l19.8-34.2h39.5l19.8,34.2L1521.8,1252.1z M1450.1,1210.7h-39.5l-19.8-34.2l19.7-34.2h39.5
		l19.7,34.2L1450.1,1210.7z M1378.5,1252.1H1339l-19.7-34.2l19.8-34.2h39.5l19.8,34.2L1378.5,1252.1z M1306.8,1210.7h-39.5
		l-19.8-34.2l19.7-34.2h39.5l19.7,34.2L1306.8,1210.7z M1235.1,1252.1h-39.5l-19.7-34.2l19.8-34.2h39.5l19.8,34.2L1235.1,1252.1z
		 M1163.5,1210.7H1124l-19.8-34.2l19.8-34.2h39.5l19.7,34.2L1163.5,1210.7z M1123.9,1887.1h39.6l19.7,34.1l-19.7,34.2H1124
		l-19.8-34.2L1123.9,1887.1z M1195.6,1928.4h39.6l19.7,34.1l-19.7,34.2h-39.5l-19.7-34.2L1195.6,1928.4z M1247.6,1921.2l19.7-34.1
		h39.5l19.7,34.1l-19.7,34.2h-39.5L1247.6,1921.2z M1338.9,1928.4h39.6l19.7,34.1l-19.7,34.2H1339l-19.7-34.2L1338.9,1928.4z
		 M1390.9,1921.2l19.7-34.1h39.5l19.7,34.1l-19.7,34.2h-39.5L1390.9,1921.2z M1482.3,1928.4h39.6l19.7,34.1l-19.7,34.2h-39.5
		l-19.7-34.2L1482.3,1928.4z M1534.3,1921.2l19.7-34.1h39.5l19.7,34.1l-19.7,34.2H1554L1534.3,1921.2z M1625.6,1928.4h39.6l19.7,34.1
		l-19.7,34.2h-39.5l-19.7-34.2L1625.6,1928.4z M1677.6,1921.2l19.7-34.1h39.5l19.7,34.1l-19.7,34.2h-39.5L1677.6,1921.2z
		 M1768.9,1928.4h39.6l19.7,34.1l-19.7,34.2H1769l-19.7-34.2L1768.9,1928.4z M1840.6,1872.6l-19.7-34.1l19.7-34.2h39.5l19.7,34.2
		l-19.7,34.1H1840.6z M1697.3,1872.6l-19.7-34.1l19.7-34.2h39.5l19.7,34.2l-19.7,34.1H1697.3z M1553.9,1872.6l-19.7-34.1l19.7-34.2
		h39.5l19.7,34.2l-19.7,34.1H1553.9z M1410.6,1872.6l-19.7-34.1l19.7-34.2h39.5l19.7,34.2l-19.7,34.1H1410.6z M1267.3,1872.6
		l-19.7-34.1l19.7-34.2h39.5l19.7,34.2l-19.7,34.1H1267.3z M1123.9,1872.6l-19.7-34.1l19.8-34.2h39.5l19.7,34.2l-19.7,34.1H1123.9z
		 M1749.3,1879.9l19.7-34.2h39.5l19.7,34.2l-19.7,34.1H1769L1749.3,1879.9z M1605.9,1879.9l19.7-34.2h39.5l19.7,34.2l-19.7,34.1
		h-39.5L1605.9,1879.9z M1462.6,1879.9l19.7-34.2h39.5l19.7,34.2l-19.7,34.1h-39.5L1462.6,1879.9z M1319.3,1879.9l19.7-34.2h39.5
		l19.7,34.2l-19.7,34.1H1339L1319.3,1879.9z M1175.9,1879.9l19.7-34.2h39.5l19.7,34.2l-19.7,34.1h-39.5L1175.9,1879.9z
		 M1951.8,1266.4l19.8,34.2l-19.7,34.2h-39.5l-19.7-34.2l19.8-34.2H1951.8z M1808.5,1266.4l19.8,34.2l-19.7,34.2H1769l-19.7-34.2
		l19.8-34.2H1808.5z M1880.2,1225l19.7,34.2l-19.8,34.2h-39.5l-19.8-34.2l19.7-34.2H1880.2z M1665.1,1266.4l19.8,34.2l-19.7,34.2
		h-39.5l-19.7-34.2l19.8-34.2H1665.1z M1736.8,1225l19.7,34.2l-19.8,34.2h-39.5l-19.8-34.2l19.7-34.2H1736.8z M1521.8,1266.4
		l19.8,34.2l-19.7,34.2h-39.5l-19.7-34.2l19.8-34.2H1521.8z M1593.5,1225l19.7,34.2l-19.8,34.2H1554l-19.8-34.2l19.7-34.2H1593.5z
		 M1378.5,1266.4l19.8,34.2l-19.7,34.2H1339l-19.7-34.2l19.8-34.2H1378.5z M1450.1,1225l19.7,34.2l-19.8,34.2h-39.5l-19.8-34.2
		l19.7-34.2H1450.1z M1235.1,1266.4l19.8,34.2l-19.7,34.2h-39.5l-19.7-34.2l19.8-34.2H1235.1z M1306.8,1225l19.7,34.2l-19.8,34.2
		h-39.5l-19.8-34.2l19.7-34.2H1306.8z M1163.5,1225l19.7,34.2l-19.8,34.2H1124l-19.8-34.2l19.8-34.2H1163.5z M1175.9,1797.1
		l19.8-34.2h39.5l19.8,34.2l-19.7,34.2h-39.5L1175.9,1797.1z M1319.2,1797.1l19.8-34.2h39.5l19.8,34.2l-19.7,34.2H1339L1319.2,1797.1
		z M1462.6,1797.1l19.8-34.2h39.5l19.8,34.2l-19.7,34.2h-39.5L1462.6,1797.1z M1605.9,1797.1l19.8-34.2h39.5l19.8,34.2l-19.7,34.2
		h-39.5L1605.9,1797.1z M1749.2,1797.1l19.8-34.2h39.5l19.8,34.2l-19.7,34.2H1769L1749.2,1797.1z M1247.6,1755.8l19.7-34.2h39.5
		l19.7,34.2l-19.8,34.2h-39.5L1247.6,1755.8z M1378.5,1748.6H1339l-19.7-34.2l19.8-34.2h39.5l19.8,34.2L1378.5,1748.6z
		 M1390.9,1755.8l19.7-34.2h39.5l19.7,34.2l-19.8,34.2h-39.5L1390.9,1755.8z M1521.8,1748.6h-39.5l-19.7-34.2l19.8-34.2h39.5
		l19.8,34.2L1521.8,1748.6z M1534.2,1755.8l19.7-34.2h39.5l19.7,34.2l-19.8,34.2H1554L1534.2,1755.8z M1665.2,1748.6h-39.5
		l-19.7-34.2l19.8-34.2h39.5l19.8,34.2L1665.2,1748.6z M1677.6,1755.8l19.7-34.2h39.5l19.7,34.2l-19.8,34.2h-39.5L1677.6,1755.8z
		 M1808.5,1748.6H1769l-19.7-34.2l19.8-34.2h39.5l19.8,34.2L1808.5,1748.6z M1820.9,1755.8l19.7-34.2h39.5l19.7,34.2l-19.8,34.2
		h-39.5L1820.9,1755.8z M1235.1,1748.6h-39.5l-19.7-34.2l19.8-34.2h39.5l19.8,34.2L1235.1,1748.6z M1124,1790l-19.8-34.2l19.8-34.2
		h39.5l19.7,34.2l-19.8,34.2H1124z M1808.5,1597.4l19.8,34.2l-19.7,34.2H1769l-19.7-34.2l19.8-34.2H1808.5z M1820.9,1590.3l19.7-34.2
		h39.5l19.7,34.2l-19.8,34.2h-39.5L1820.9,1590.3z M1840.7,1638.8h39.5l19.7,34.2l-19.8,34.2h-39.5l-19.8-34.2L1840.7,1638.8z
		 M1665.1,1597.4l19.8,34.2l-19.7,34.2h-39.5l-19.7-34.2l19.8-34.2H1665.1z M1677.6,1590.3l19.7-34.2h39.5l19.7,34.2l-19.8,34.2
		h-39.5L1677.6,1590.3z M1697.3,1638.8h39.5l19.7,34.2l-19.8,34.2h-39.5l-19.8-34.2L1697.3,1638.8z M1554,1624.5l-19.8-34.2
		l19.7-34.2h39.5l19.7,34.2l-19.8,34.2H1554z M1521.8,1597.4l19.8,34.2l-19.7,34.2h-39.5l-19.7-34.2l19.8-34.2H1521.8z M1554,1638.8
		h39.5l19.7,34.2l-19.8,34.2H1554l-19.8-34.2L1554,1638.8z M1378.5,1597.4l19.8,34.2l-19.7,34.2H1339l-19.7-34.2l19.8-34.2H1378.5z
		 M1390.9,1590.3l19.7-34.2h39.5l19.7,34.2l-19.8,34.2h-39.5L1390.9,1590.3z M1410.6,1638.8h39.5l19.7,34.2l-19.8,34.2h-39.5
		l-19.8-34.2L1410.6,1638.8z M1235.1,1597.4l19.8,34.2l-19.7,34.2h-39.5l-19.7-34.2l19.8-34.2H1235.1z M1247.6,1590.3l19.7-34.2h39.5
		l19.7,34.2l-19.8,34.2h-39.5L1247.6,1590.3z M1267.3,1638.8h39.5l19.7,34.2l-19.8,34.2h-39.5l-19.8-34.2L1267.3,1638.8z
		 M1124,1624.5l-19.8-34.2l19.8-34.2h39.5l19.7,34.2l-19.8,34.2H1124z M1124,1638.8h39.5l19.7,34.2l-19.8,34.2H1124l-19.8-34.2
		L1124,1638.8z M1840.7,1307.8h39.5l19.7,34.2l-19.8,34.2h-39.5l-19.8-34.2L1840.7,1307.8z M1892.6,1383.4l19.8-34.2h39.5l19.8,34.2
		l-19.7,34.2h-39.5L1892.6,1383.4z M1808.5,1349.1l19.8,34.2l-19.7,34.2H1769l-19.7-34.2l19.8-34.2H1808.5z M1840.7,1390.5h39.5
		l19.7,34.2l-19.8,34.2h-39.5l-19.8-34.2L1840.7,1390.5z M1899.9,1507.5l-19.8,34.2h-39.5l-19.8-34.2l19.7-34.2h39.5L1899.9,1507.5z
		 M1697.3,1307.8h39.5l19.7,34.2l-19.8,34.2h-39.5l-19.8-34.2L1697.3,1307.8z M1665.1,1349.1l19.8,34.2l-19.7,34.2h-39.5l-19.7-34.2
		l19.8-34.2H1665.1z M1697.3,1390.5h39.5l19.7,34.2l-19.8,34.2h-39.5l-19.8-34.2L1697.3,1390.5z M1756.6,1507.5l-19.8,34.2h-39.5
		l-19.8-34.2l19.7-34.2h39.5L1756.6,1507.5z M1828.2,1548.9l-19.7,34.2H1769l-19.7-34.2l19.8-34.2h39.5L1828.2,1548.9z
		 M1808.5,1500.3H1769l-19.7-34.2l19.8-34.2h39.5l19.8,34.2L1808.5,1500.3z M1554,1307.8h39.5l19.7,34.2l-19.8,34.2H1554l-19.8-34.2
		L1554,1307.8z M1521.8,1349.1l19.8,34.2l-19.7,34.2h-39.5l-19.7-34.2l19.8-34.2H1521.8z M1554,1390.5h39.5l19.7,34.2l-19.8,34.2
		H1554l-19.8-34.2L1554,1390.5z M1613.2,1507.5l-19.8,34.2H1554l-19.8-34.2l19.7-34.2h39.5L1613.2,1507.5z M1684.9,1548.9l-19.7,34.2
		h-39.5l-19.7-34.2l19.8-34.2h39.5L1684.9,1548.9z M1665.2,1500.3h-39.5l-19.7-34.2l19.8-34.2h39.5l19.8,34.2L1665.2,1500.3z
		 M1410.6,1307.8h39.5l19.7,34.2l-19.8,34.2h-39.5l-19.8-34.2L1410.6,1307.8z M1378.5,1349.1l19.8,34.2l-19.7,34.2H1339l-19.7-34.2
		l19.8-34.2H1378.5z M1410.6,1390.5h39.5l19.7,34.2l-19.8,34.2h-39.5l-19.8-34.2L1410.6,1390.5z M1469.9,1507.5l-19.8,34.2h-39.5
		l-19.8-34.2l19.7-34.2h39.5L1469.9,1507.5z M1541.6,1548.9l-19.7,34.2h-39.5l-19.7-34.2l19.8-34.2h39.5L1541.6,1548.9z
		 M1521.8,1500.3h-39.5l-19.7-34.2l19.8-34.2h39.5l19.8,34.2L1521.8,1500.3z M1267.3,1307.8h39.5l19.7,34.2l-19.8,34.2h-39.5
		l-19.8-34.2L1267.3,1307.8z M1235.1,1349.1l19.8,34.2l-19.7,34.2h-39.5l-19.7-34.2l19.8-34.2H1235.1z M1267.3,1390.5h39.5l19.7,34.2
		l-19.8,34.2h-39.5l-19.8-34.2L1267.3,1390.5z M1124,1307.8h39.5l19.7,34.2l-19.8,34.2H1124l-19.8-34.2L1124,1307.8z M1124,1390.5
		h39.5l19.7,34.2l-19.8,34.2H1124l-19.8-34.2L1124,1390.5z M1326.6,1507.5l-19.8,34.2h-39.5l-19.8-34.2l19.7-34.2h39.5L1326.6,1507.5
		z M1398.2,1548.9l-19.7,34.2H1339l-19.7-34.2l19.8-34.2h39.5L1398.2,1548.9z M1378.5,1500.3H1339l-19.7-34.2l19.8-34.2h39.5
		l19.8,34.2L1378.5,1500.3z M1235.1,1514.7l19.8,34.2l-19.7,34.2h-39.5l-19.7-34.2l19.8-34.2H1235.1z M1235.1,1431.9l19.8,34.2
		l-19.7,34.2h-39.5l-19.7-34.2l19.8-34.2H1235.1z M1124,1473.3h39.5l19.7,34.2l-19.8,34.2H1124l-19.8-34.2L1124,1473.3z M1091.7,1914
		h-39.6l-19.7-34.1l19.7-34.2h39.5l19.8,34.2L1091.7,1914z M1020,1872.6h-39.6l-19.7-34.1l19.7-34.2h39.5l19.7,34.2L1020,1872.6z
		 M968,1879.9l-19.7,34.1h-39.5l-19.7-34.1l19.7-34.2h39.5L968,1879.9z M876.7,1872.6h-39.6l-19.7-34.1l19.7-34.2h39.5l19.7,34.2
		L876.7,1872.6z M824.7,1879.9L805,1914h-39.5l-19.7-34.1l19.7-34.2h39.5L824.7,1879.9z M733.3,1872.6h-39.6l-19.7-34.1l19.7-34.2
		h39.5l19.7,34.2L733.3,1872.6z M681.3,1879.9l-19.7,34.1h-39.5l-19.7-34.1l19.7-34.2h39.5L681.3,1879.9z M590,1872.6h-39.6
		l-19.7-34.1l19.7-34.2h39.5l19.7,34.2L590,1872.6z M538,1879.9l-19.7,34.1h-39.5l-19.7-34.1l19.7-34.2h39.5L538,1879.9z
		 M446.7,1872.6H407l-19.7-34.1l19.7-34.2h39.5l19.7,34.2L446.7,1872.6z M394.7,1879.9l-19.7,34.1h-39.5l-19.7-34.1l19.7-34.2h39.5
		L394.7,1879.9z M303.3,1872.6h-39.6l-19.7-34.1l19.7-34.2h39.5l19.7,34.2L303.3,1872.6z M948.3,1928.4l19.7,34.1l-19.7,34.2h-39.5
		l-19.7-34.2l19.7-34.1H948.3z M805,1928.4l19.7,34.1l-19.7,34.2h-39.5l-19.7-34.2l19.7-34.1H805z M896.3,1921.2l-19.7,34.2h-39.5
		l-19.7-34.2l19.7-34.1h39.5L896.3,1921.2z M661.7,1928.4l19.7,34.1l-19.7,34.2h-39.5l-19.7-34.2l19.7-34.1H661.7z M753,1921.2
		l-19.7,34.2h-39.5l-19.7-34.2l19.7-34.1h39.5L753,1921.2z M1091.7,1928.4l19.7,34.1l-19.8,34.2h-39.5l-19.7-34.2l19.7-34.1H1091.7z
		 M1039.7,1921.2l-19.7,34.2h-39.5l-19.7-34.2l19.7-34.1h39.5L1039.7,1921.2z M518.3,1928.4l19.7,34.1l-19.7,34.2h-39.5l-19.7-34.2
		l19.7-34.1H518.3z M609.7,1921.2l-19.7,34.2h-39.5l-19.7-34.2l19.7-34.1H590L609.7,1921.2z M375,1928.4l19.7,34.1l-19.7,34.2h-39.5
		l-19.7-34.2l19.7-34.1H375z M466.3,1921.2l-19.7,34.2h-39.5l-19.7-34.2l19.7-34.1h39.5L466.3,1921.2z M518.3,2410.5h-39.5
		l-19.7-34.2l19.8-34.2h39.5l19.8,34.2L518.3,2410.5z M661.6,2410.5h-39.5l-19.7-34.2l19.8-34.2h39.5l19.8,34.2L661.6,2410.5z
		 M804.9,2410.5h-39.5l-19.7-34.2l19.8-34.2h39.5l19.8,34.2L804.9,2410.5z M948.3,2410.5h-39.5l-19.7-34.2l19.8-34.2h39.5l19.8,34.2
		L948.3,2410.5z M1091.6,2410.5h-39.5l-19.7-34.2l19.8-34.2h39.5l19.8,34.2L1091.6,2410.5z M1032.4,2293.6l19.8-34.2h39.5l19.8,34.2
		l-19.8,34.2h-39.5L1032.4,2293.6z M948.3,2259.3l19.8,34.2l-19.7,34.2h-39.5l-19.7-34.2l19.8-34.2H948.3z M960.7,2252.2l19.7-34.2
		h39.5l19.7,34.2l-19.8,34.2h-39.5L960.7,2252.2z M980.4,2300.7h39.5l19.7,34.2l-19.8,34.2h-39.5l-19.8-34.2L980.4,2300.7z
		 M804.9,2259.3l19.8,34.2l-19.7,34.2h-39.5l-19.7-34.2l19.8-34.2H804.9z M817.4,2252.2l19.7-34.2h39.5l19.7,34.2l-19.8,34.2h-39.5
		L817.4,2252.2z M837.1,2300.7h39.5l19.7,34.2l-19.8,34.2h-39.5l-19.8-34.2L837.1,2300.7z M661.6,2259.3l19.8,34.2l-19.7,34.2h-39.5
		l-19.7-34.2l19.8-34.2H661.6z M674,2252.2l19.7-34.2h39.5l19.7,34.2l-19.8,34.2h-39.5L674,2252.2z M693.8,2300.7h39.5l19.7,34.2
		l-19.8,34.2h-39.5l-19.8-34.2L693.8,2300.7z M518.3,2259.3l19.8,34.2l-19.7,34.2h-39.5l-19.7-34.2l19.8-34.2H518.3z M530.7,2252.2
		l19.7-34.2h39.5l19.7,34.2l-19.8,34.2h-39.5L530.7,2252.2z M550.4,2300.7h39.5l19.7,34.2l-19.8,34.2h-39.5l-19.8-34.2L550.4,2300.7z
		 M407.1,2286.4l-19.8-34.2l19.7-34.2h39.5l19.7,34.2l-19.8,34.2H407.1z M374.9,2259.3l19.8,34.2l-19.7,34.2h-39.5l-19.7-34.2
		l19.8-34.2H374.9z M407.1,2300.7h39.5l19.7,34.2l-19.8,34.2h-39.5l-19.8-34.2L407.1,2300.7z M1039.7,2169.4l-19.8,34.2h-39.5
		l-19.8-34.2l19.7-34.2h39.5L1039.7,2169.4z M1091.6,2176.6l19.8,34.2l-19.8,34.2h-39.5l-19.7-34.2l19.8-34.2H1091.6z M1091.6,2162.3
		h-39.5l-19.7-34.2l19.8-34.2h39.5l19.8,34.2L1091.6,2162.3z M837.1,1969.7h39.5l19.7,34.2l-19.8,34.2h-39.5l-19.8-34.2L837.1,1969.7
		z M896.4,2169.4l-19.8,34.2h-39.5l-19.8-34.2l19.7-34.2h39.5L896.4,2169.4z M968,2210.8l-19.7,34.2h-39.5l-19.7-34.2l19.8-34.2h39.5
		L968,2210.8z M948.3,2162.3h-39.5l-19.7-34.2l19.8-34.2h39.5l19.8,34.2L948.3,2162.3z M693.8,1969.7h39.5l19.7,34.2l-19.8,34.2
		h-39.5l-19.8-34.2L693.8,1969.7z M745.7,2045.3l19.8-34.2h39.5l19.8,34.2l-19.7,34.2h-39.5L745.7,2045.3z M661.6,2011.1l19.8,34.2
		l-19.7,34.2h-39.5l-19.7-34.2l19.8-34.2H661.6z M693.8,2052.5h39.5l19.7,34.2l-19.8,34.2h-39.5l-19.8-34.2L693.8,2052.5z
		 M980.4,1969.7h39.5l19.7,34.2l-19.8,34.2h-39.5l-19.8-34.2L980.4,1969.7z M1052.1,2011.1h39.5l19.8,34.2l-19.8,34.2h-39.5
		l-19.7-34.2L1052.1,2011.1z M948.3,2011.1l19.8,34.2l-19.7,34.2h-39.5l-19.7-34.2l19.8-34.2H948.3z M980.4,2052.5h39.5l19.7,34.2
		l-19.8,34.2h-39.5l-19.8-34.2L980.4,2052.5z M837.1,2052.5h39.5l19.7,34.2l-19.8,34.2h-39.5l-19.8-34.2L837.1,2052.5z M753,2169.4
		l-19.8,34.2h-39.5l-19.8-34.2l19.7-34.2h39.5L753,2169.4z M824.7,2210.8l-19.7,34.2h-39.5l-19.7-34.2l19.8-34.2h39.5L824.7,2210.8z
		 M804.9,2162.3h-39.5l-19.7-34.2l19.8-34.2h39.5l19.8,34.2L804.9,2162.3z M550.4,1969.7h39.5l19.7,34.2l-19.8,34.2h-39.5l-19.8-34.2
		L550.4,1969.7z M518.3,2011.1l19.8,34.2l-19.7,34.2h-39.5l-19.7-34.2l19.8-34.2H518.3z M550.4,2052.5h39.5l19.7,34.2l-19.8,34.2
		h-39.5l-19.8-34.2L550.4,2052.5z M609.7,2169.4l-19.8,34.2h-39.5l-19.8-34.2l19.7-34.2h39.5L609.7,2169.4z M681.4,2210.8l-19.7,34.2
		h-39.5l-19.7-34.2l19.8-34.2h39.5L681.4,2210.8z M661.6,2162.3h-39.5l-19.7-34.2l19.8-34.2h39.5l19.8,34.2L661.6,2162.3z
		 M407.1,1969.7h39.5l19.7,34.2l-19.8,34.2h-39.5l-19.8-34.2L407.1,1969.7z M374.9,2011.1l19.8,34.2l-19.7,34.2h-39.5l-19.7-34.2
		l19.8-34.2H374.9z M407.1,2052.5h39.5l19.7,34.2l-19.8,34.2h-39.5l-19.8-34.2L407.1,2052.5z M466.3,2169.4l-19.8,34.2h-39.5
		l-19.8-34.2l19.7-34.2h39.5L466.3,2169.4z M538,2210.8l-19.7,34.2h-39.5l-19.7-34.2l19.8-34.2h39.5L538,2210.8z M518.3,2162.3h-39.5
		l-19.7-34.2l19.8-34.2h39.5l19.8,34.2L518.3,2162.3z M394.7,2210.8l-19.7,34.2h-39.5l-19.7-34.2l19.8-34.2h39.5L394.7,2210.8z
		 M374.9,2162.3h-39.5l-19.7-34.2l19.8-34.2h39.5l19.8,34.2L374.9,2162.3z M1378.5,2410.5H1339l-19.7-34.2l19.8-34.2h39.5l19.8,34.2
		L1378.5,2410.5z M1521.8,2410.5h-39.5l-19.7-34.2l19.8-34.2h39.5l19.8,34.2L1521.8,2410.5z M1665.2,2410.5h-39.5l-19.7-34.2
		l19.8-34.2h39.5l19.8,34.2L1665.2,2410.5z M1235.1,2410.5h-39.5l-19.7-34.2l19.8-34.2h39.5l19.8,34.2L1235.1,2410.5z M1808.5,2259.3
		l19.8,34.2l-19.7,34.2H1769l-19.7-34.2l19.8-34.2H1808.5z M1665.1,2259.3l19.8,34.2l-19.7,34.2h-39.5l-19.7-34.2l19.8-34.2H1665.1z
		 M1677.6,2252.2l19.7-34.2h39.5l19.7,34.2l-19.8,34.2h-39.5L1677.6,2252.2z M1697.3,2300.7h39.5l19.7,34.2l-19.8,34.2h-39.5
		l-19.8-34.2L1697.3,2300.7z M1554,2286.4l-19.8-34.2l19.7-34.2h39.5l19.7,34.2l-19.8,34.2H1554z M1521.8,2259.3l19.8,34.2
		l-19.7,34.2h-39.5l-19.7-34.2l19.8-34.2H1521.8z M1554,2300.7h39.5l19.7,34.2l-19.8,34.2H1554l-19.8-34.2L1554,2300.7z
		 M1378.5,2259.3l19.8,34.2l-19.7,34.2H1339l-19.7-34.2l19.8-34.2H1378.5z M1390.9,2252.2l19.7-34.2h39.5l19.7,34.2l-19.8,34.2h-39.5
		L1390.9,2252.2z M1410.6,2300.7h39.5l19.7,34.2l-19.8,34.2h-39.5l-19.8-34.2L1410.6,2300.7z M1235.1,2259.3l19.8,34.2l-19.7,34.2
		h-39.5l-19.7-34.2l19.8-34.2H1235.1z M1247.6,2252.2l19.7-34.2h39.5l19.7,34.2l-19.8,34.2h-39.5L1247.6,2252.2z M1267.3,2300.7h39.5
		l19.7,34.2l-19.8,34.2h-39.5l-19.8-34.2L1267.3,2300.7z M1124,2286.4l-19.8-34.2l19.8-34.2h39.5l19.7,34.2l-19.8,34.2H1124z
		 M1124,2300.7h39.5l19.7,34.2l-19.8,34.2H1124l-19.8-34.2L1124,2300.7z M1808.5,2011.1l19.8,34.2l-19.7,34.2H1769l-19.7-34.2
		l19.8-34.2H1808.5z M1697.3,1969.7h39.5l19.7,34.2l-19.8,34.2h-39.5l-19.8-34.2L1697.3,1969.7z M1665.1,2011.1l19.8,34.2l-19.7,34.2
		h-39.5l-19.7-34.2l19.8-34.2H1665.1z M1697.3,2052.5h39.5l19.7,34.2l-19.8,34.2h-39.5l-19.8-34.2L1697.3,2052.5z M1756.6,2169.4
		l-19.8,34.2h-39.5l-19.8-34.2l19.7-34.2h39.5L1756.6,2169.4z M1828.2,2210.8l-19.7,34.2H1769l-19.7-34.2l19.8-34.2h39.5
		L1828.2,2210.8z M1808.5,2162.3H1769l-19.7-34.2l19.8-34.2h39.5l19.8,34.2L1808.5,2162.3z M1554,1969.7h39.5l19.7,34.2l-19.8,34.2
		H1554l-19.8-34.2L1554,1969.7z M1521.8,2011.1l19.8,34.2l-19.7,34.2h-39.5l-19.7-34.2l19.8-34.2H1521.8z M1554,2052.5h39.5
		l19.7,34.2l-19.8,34.2H1554l-19.8-34.2L1554,2052.5z M1613.2,2169.4l-19.8,34.2H1554l-19.8-34.2l19.7-34.2h39.5L1613.2,2169.4z
		 M1684.9,2210.8l-19.7,34.2h-39.5l-19.7-34.2l19.8-34.2h39.5L1684.9,2210.8z M1665.2,2162.3h-39.5l-19.7-34.2l19.8-34.2h39.5
		l19.8,34.2L1665.2,2162.3z M1410.6,1969.7h39.5l19.7,34.2l-19.8,34.2h-39.5l-19.8-34.2L1410.6,1969.7z M1378.5,2011.1l19.8,34.2
		l-19.7,34.2H1339l-19.7-34.2l19.8-34.2H1378.5z M1410.6,2052.5h39.5l19.7,34.2l-19.8,34.2h-39.5l-19.8-34.2L1410.6,2052.5z
		 M1469.9,2169.4l-19.8,34.2h-39.5l-19.8-34.2l19.7-34.2h39.5L1469.9,2169.4z M1541.6,2210.8l-19.7,34.2h-39.5l-19.7-34.2l19.8-34.2
		h39.5L1541.6,2210.8z M1521.8,2162.3h-39.5l-19.7-34.2l19.8-34.2h39.5l19.8,34.2L1521.8,2162.3z M1267.3,1969.7h39.5l19.7,34.2
		l-19.8,34.2h-39.5l-19.8-34.2L1267.3,1969.7z M1235.1,2011.1l19.8,34.2l-19.7,34.2h-39.5l-19.7-34.2l19.8-34.2H1235.1z
		 M1267.3,2052.5h39.5l19.7,34.2l-19.8,34.2h-39.5l-19.8-34.2L1267.3,2052.5z M1124,1969.7h39.5l19.7,34.2l-19.8,34.2H1124
		l-19.8-34.2L1124,1969.7z M1124,2052.5h39.5l19.7,34.2l-19.8,34.2H1124l-19.8-34.2L1124,2052.5z M1326.6,2169.4l-19.8,34.2h-39.5
		l-19.8-34.2l19.7-34.2h39.5L1326.6,2169.4z M1398.2,2210.8l-19.7,34.2H1339l-19.7-34.2l19.8-34.2h39.5L1398.2,2210.8z
		 M1378.5,2162.3H1339l-19.7-34.2l19.8-34.2h39.5l19.8,34.2L1378.5,2162.3z M1235.1,2176.6l19.8,34.2l-19.7,34.2h-39.5l-19.7-34.2
		l19.8-34.2H1235.1z M1235.1,2093.8l19.8,34.2l-19.7,34.2h-39.5l-19.7-34.2l19.8-34.2H1235.1z M1124,2135.2h39.5l19.7,34.2
		l-19.8,34.2H1124l-19.8-34.2L1124,2135.2z M315.7,1797.1l19.8-34.2h39.5l19.8,34.2l-19.7,34.2h-39.5L315.7,1797.1z M459,1797.1
		l19.8-34.2h39.5l19.8,34.2l-19.7,34.2h-39.5L459,1797.1z M602.4,1797.1l19.8-34.2h39.5l19.8,34.2l-19.7,34.2h-39.5L602.4,1797.1z
		 M745.7,1797.1l19.8-34.2h39.5l19.8,34.2l-19.7,34.2h-39.5L745.7,1797.1z M889,1797.1l19.8-34.2h39.5l19.8,34.2l-19.7,34.2h-39.5
		L889,1797.1z M1032.4,1797.1l19.8-34.2h39.5l19.8,34.2l-19.8,34.2h-39.5L1032.4,1797.1z M244,1755.8l19.7-34.2h39.5l19.7,34.2
		l-19.8,34.2h-39.5L244,1755.8z M374.9,1748.6h-39.5l-19.7-34.2l19.8-34.2h39.5l19.8,34.2L374.9,1748.6z M387.4,1755.8l19.7-34.2
		h39.5l19.7,34.2l-19.8,34.2h-39.5L387.4,1755.8z M518.3,1748.6h-39.5l-19.7-34.2l19.8-34.2h39.5l19.8,34.2L518.3,1748.6z
		 M530.7,1755.8l19.7-34.2h39.5l19.7,34.2l-19.8,34.2h-39.5L530.7,1755.8z M661.6,1748.6h-39.5l-19.7-34.2l19.8-34.2h39.5l19.8,34.2
		L661.6,1748.6z M674,1755.8l19.7-34.2h39.5l19.7,34.2l-19.8,34.2h-39.5L674,1755.8z M804.9,1748.6h-39.5l-19.7-34.2l19.8-34.2h39.5
		l19.8,34.2L804.9,1748.6z M817.4,1755.8l19.7-34.2h39.5l19.7,34.2l-19.8,34.2h-39.5L817.4,1755.8z M948.3,1748.6h-39.5l-19.7-34.2
		l19.8-34.2h39.5l19.8,34.2L948.3,1748.6z M960.7,1755.8l19.7-34.2h39.5l19.7,34.2l-19.8,34.2h-39.5L960.7,1755.8z M1091.6,1748.6
		h-39.5l-19.7-34.2l19.8-34.2h39.5l19.8,34.2L1091.6,1748.6z M1032.4,1631.6l19.8-34.2h39.5l19.8,34.2l-19.8,34.2h-39.5
		L1032.4,1631.6z M948.3,1597.4l19.8,34.2l-19.7,34.2h-39.5l-19.7-34.2l19.8-34.2H948.3z M960.7,1590.3l19.7-34.2h39.5l19.7,34.2
		l-19.8,34.2h-39.5L960.7,1590.3z M980.4,1638.8h39.5l19.7,34.2l-19.8,34.2h-39.5l-19.8-34.2L980.4,1638.8z M804.9,1597.4l19.8,34.2
		l-19.7,34.2h-39.5l-19.7-34.2l19.8-34.2H804.9z M817.4,1590.3l19.7-34.2h39.5l19.7,34.2l-19.8,34.2h-39.5L817.4,1590.3z
		 M837.1,1638.8h39.5l19.7,34.2l-19.8,34.2h-39.5l-19.8-34.2L837.1,1638.8z M661.6,1597.4l19.8,34.2l-19.7,34.2h-39.5l-19.7-34.2
		l19.8-34.2H661.6z M674,1590.3l19.7-34.2h39.5l19.7,34.2l-19.8,34.2h-39.5L674,1590.3z M693.8,1638.8h39.5L753,1673l-19.8,34.2
		h-39.5L674,1673L693.8,1638.8z M518.3,1597.4l19.8,34.2l-19.7,34.2h-39.5l-19.7-34.2l19.8-34.2H518.3z M530.7,1590.3l19.7-34.2h39.5
		l19.7,34.2l-19.8,34.2h-39.5L530.7,1590.3z M550.4,1638.8h39.5l19.7,34.2l-19.8,34.2h-39.5l-19.8-34.2L550.4,1638.8z M407.1,1624.5
		l-19.8-34.2l19.7-34.2h39.5l19.7,34.2l-19.8,34.2H407.1z M374.9,1597.4l19.8,34.2l-19.7,34.2h-39.5l-19.7-34.2l19.8-34.2H374.9z
		 M407.1,1638.8h39.5l19.7,34.2l-19.8,34.2h-39.5l-19.8-34.2L407.1,1638.8z M244,1590.3l19.7-34.2h39.5l19.7,34.2l-19.8,34.2h-39.5
		L244,1590.3z M263.8,1638.8h39.5L323,1673l-19.8,34.2h-39.5L244,1673L263.8,1638.8z M1039.7,1507.5l-19.8,34.2h-39.5l-19.8-34.2
		l19.7-34.2h39.5L1039.7,1507.5z M1091.6,1514.7l19.8,34.2l-19.8,34.2h-39.5l-19.7-34.2l19.8-34.2H1091.6z M1091.6,1500.3h-39.5
		l-19.7-34.2l19.8-34.2h39.5l19.8,34.2L1091.6,1500.3z M837.1,1307.8h39.5l19.7,34.2l-19.8,34.2h-39.5l-19.8-34.2L837.1,1307.8z
		 M896.4,1507.5l-19.8,34.2h-39.5l-19.8-34.2l19.7-34.2h39.5L896.4,1507.5z M968,1548.9l-19.7,34.2h-39.5l-19.7-34.2l19.8-34.2h39.5
		L968,1548.9z M948.3,1500.3h-39.5l-19.7-34.2l19.8-34.2h39.5l19.8,34.2L948.3,1500.3z M693.8,1307.8h39.5L753,1342l-19.8,34.2h-39.5
		L674,1342L693.8,1307.8z M745.7,1383.4l19.8-34.2h39.5l19.8,34.2l-19.7,34.2h-39.5L745.7,1383.4z M661.6,1349.1l19.8,34.2
		l-19.7,34.2h-39.5l-19.7-34.2l19.8-34.2H661.6z M693.8,1390.5h39.5l19.7,34.2l-19.8,34.2h-39.5l-19.8-34.2L693.8,1390.5z
		 M980.4,1307.8h39.5l19.7,34.2l-19.8,34.2h-39.5l-19.8-34.2L980.4,1307.8z M1052.1,1349.1h39.5l19.8,34.2l-19.8,34.2h-39.5
		l-19.7-34.2L1052.1,1349.1z M948.3,1349.1l19.8,34.2l-19.7,34.2h-39.5l-19.7-34.2l19.8-34.2H948.3z M980.4,1390.5h39.5l19.7,34.2
		l-19.8,34.2h-39.5l-19.8-34.2L980.4,1390.5z M837.1,1390.5h39.5l19.7,34.2l-19.8,34.2h-39.5l-19.8-34.2L837.1,1390.5z M753,1507.5
		l-19.8,34.2h-39.5l-19.8-34.2l19.7-34.2h39.5L753,1507.5z M824.7,1548.9l-19.7,34.2h-39.5l-19.7-34.2l19.8-34.2h39.5L824.7,1548.9z
		 M804.9,1500.3h-39.5l-19.7-34.2l19.8-34.2h39.5l19.8,34.2L804.9,1500.3z M550.4,1307.8h39.5l19.7,34.2l-19.8,34.2h-39.5l-19.8-34.2
		L550.4,1307.8z M518.3,1349.1l19.8,34.2l-19.7,34.2h-39.5l-19.7-34.2l19.8-34.2H518.3z M550.4,1390.5h39.5l19.7,34.2l-19.8,34.2
		h-39.5l-19.8-34.2L550.4,1390.5z M609.7,1507.5l-19.8,34.2h-39.5l-19.8-34.2l19.7-34.2h39.5L609.7,1507.5z M681.4,1548.9l-19.7,34.2
		h-39.5l-19.7-34.2l19.8-34.2h39.5L681.4,1548.9z M661.6,1500.3h-39.5l-19.7-34.2l19.8-34.2h39.5l19.8,34.2L661.6,1500.3z
		 M407.1,1307.8h39.5l19.7,34.2l-19.8,34.2h-39.5l-19.8-34.2L407.1,1307.8z M374.9,1349.1l19.8,34.2l-19.7,34.2h-39.5l-19.7-34.2
		l19.8-34.2H374.9z M407.1,1390.5h39.5l19.7,34.2l-19.8,34.2h-39.5l-19.8-34.2L407.1,1390.5z M466.3,1507.5l-19.8,34.2h-39.5
		l-19.8-34.2l19.7-34.2h39.5L466.3,1507.5z M538,1548.9l-19.7,34.2h-39.5l-19.7-34.2l19.8-34.2h39.5L538,1548.9z M518.3,1500.3h-39.5
		l-19.7-34.2l19.8-34.2h39.5l19.8,34.2L518.3,1500.3z M263.8,1307.8h39.5L323,1342l-19.8,34.2h-39.5L244,1342L263.8,1307.8z
		 M231.6,1349.1l19.8,34.2l-19.7,34.2h-39.5l-19.7-34.2l19.8-34.2H231.6z M263.8,1390.5h39.5l19.7,34.2l-19.8,34.2h-39.5l-19.8-34.2
		L263.8,1390.5z M323,1507.5l-19.8,34.2h-39.5l-19.8-34.2l19.7-34.2h39.5L323,1507.5z M394.7,1548.9l-19.7,34.2h-39.5l-19.7-34.2
		l19.8-34.2h39.5L394.7,1548.9z M374.9,1500.3h-39.5l-19.7-34.2l19.8-34.2h39.5l19.8,34.2L374.9,1500.3z M1175.9,1135.1l19.8-34.2
		h39.5l19.8,34.2l-19.7,34.2h-39.5L1175.9,1135.1z M1319.2,1135.1l19.8-34.2h39.5l19.8,34.2l-19.7,34.2H1339L1319.2,1135.1z
		 M1462.6,1135.1l19.8-34.2h39.5l19.8,34.2l-19.7,34.2h-39.5L1462.6,1135.1z M1605.9,1135.1l19.8-34.2h39.5l19.8,34.2l-19.7,34.2
		h-39.5L1605.9,1135.1z M1749.2,1135.1l19.8-34.2h39.5l19.8,34.2l-19.7,34.2H1769L1749.2,1135.1z M1892.6,1135.1l19.8-34.2h39.5
		l19.8,34.2l-19.7,34.2h-39.5L1892.6,1135.1z M1247.6,1093.7l19.7-34.2h39.5l19.7,34.2l-19.8,34.2h-39.5L1247.6,1093.7z
		 M1378.5,1086.5H1339l-19.7-34.2l19.8-34.2h39.5l19.8,34.2L1378.5,1086.5z M1390.9,1093.7l19.7-34.2h39.5l19.7,34.2l-19.8,34.2
		h-39.5L1390.9,1093.7z M1521.8,1086.5h-39.5l-19.7-34.2l19.8-34.2h39.5l19.8,34.2L1521.8,1086.5z M1534.2,1093.7l19.7-34.2h39.5
		l19.7,34.2l-19.8,34.2H1554L1534.2,1093.7z M1665.2,1086.5h-39.5l-19.7-34.2l19.8-34.2h39.5l19.8,34.2L1665.2,1086.5z
		 M1677.6,1093.7l19.7-34.2h39.5l19.7,34.2l-19.8,34.2h-39.5L1677.6,1093.7z M1808.5,1086.5H1769l-19.7-34.2l19.8-34.2h39.5
		l19.8,34.2L1808.5,1086.5z M1820.9,1093.7l19.7-34.2h39.5l19.7,34.2l-19.8,34.2h-39.5L1820.9,1093.7z M1951.8,1086.5h-39.5
		l-19.7-34.2l19.8-34.2h39.5l19.8,34.2L1951.8,1086.5z M1235.1,1086.5h-39.5l-19.7-34.2l19.8-34.2h39.5l19.8,34.2L1235.1,1086.5z
		 M1124,1127.9l-19.8-34.2l19.8-34.2h39.5l19.7,34.2l-19.8,34.2H1124z M1951.8,935.4l19.8,34.2l-19.7,34.2h-39.5l-19.7-34.2
		l19.8-34.2H1951.8z M1808.5,935.4l19.8,34.2l-19.7,34.2H1769l-19.7-34.2l19.8-34.2H1808.5z M1820.9,928.2l19.7-34.2h39.5l19.7,34.2
		l-19.8,34.2h-39.5L1820.9,928.2z M1840.7,976.8h39.5l19.7,34.2l-19.8,34.2h-39.5l-19.8-34.2L1840.7,976.8z M1665.1,935.4l19.8,34.2
		l-19.7,34.2h-39.5l-19.7-34.2l19.8-34.2H1665.1z M1677.6,928.2l19.7-34.2h39.5l19.7,34.2l-19.8,34.2h-39.5L1677.6,928.2z
		 M1697.3,976.8h39.5l19.7,34.2l-19.8,34.2h-39.5l-19.8-34.2L1697.3,976.8z M1554,962.4l-19.8-34.2L1554,894h39.5l19.7,34.2
		l-19.8,34.2H1554z M1521.8,935.4l19.8,34.2l-19.7,34.2h-39.5l-19.7-34.2l19.8-34.2H1521.8z M1554,976.8h39.5l19.7,34.2l-19.8,34.2
		H1554l-19.8-34.2L1554,976.8z M1378.5,935.4l19.8,34.2l-19.7,34.2H1339l-19.7-34.2l19.8-34.2H1378.5z M1390.9,928.2l19.7-34.2h39.5
		l19.7,34.2l-19.8,34.2h-39.5L1390.9,928.2z M1410.6,976.8h39.5l19.7,34.2l-19.8,34.2h-39.5l-19.8-34.2L1410.6,976.8z M1235.1,935.4
		l19.8,34.2l-19.7,34.2h-39.5l-19.7-34.2l19.8-34.2H1235.1z M1247.6,928.2l19.7-34.2h39.5l19.7,34.2l-19.8,34.2h-39.5L1247.6,928.2z
		 M1267.3,976.8h39.5l19.7,34.2l-19.8,34.2h-39.5l-19.8-34.2L1267.3,976.8z M1124,962.4l-19.8-34.2L1124,894h39.5l19.7,34.2
		l-19.8,34.2H1124z M1124,976.8h39.5l19.7,34.2l-19.8,34.2H1124l-19.8-34.2L1124,976.8z M1984,645.7h39.5l19.7,34.2l-19.8,34.2H1984
		l-19.8-34.2L1984,645.7z M2043.2,845.5l-19.8,34.2H1984l-19.8-34.2l19.7-34.2h39.5L2043.2,845.5z M1840.7,645.7h39.5l19.7,34.2
		l-19.8,34.2h-39.5l-19.8-34.2L1840.7,645.7z M1892.6,721.3l19.8-34.2h39.5l19.8,34.2l-19.7,34.2h-39.5L1892.6,721.3z M1808.5,687.1
		l19.8,34.2l-19.7,34.2H1769l-19.7-34.2l19.8-34.2H1808.5z M1840.7,728.5h39.5l19.7,34.2l-19.8,34.2h-39.5l-19.8-34.2L1840.7,728.5z
		 M1984,728.5h39.5l19.7,34.2l-19.8,34.2H1984l-19.8-34.2L1984,728.5z M1899.9,845.5l-19.8,34.2h-39.5l-19.8-34.2l19.7-34.2h39.5
		L1899.9,845.5z M1971.6,886.8l-19.7,34.2h-39.5l-19.7-34.2l19.8-34.2h39.5L1971.6,886.8z M1951.8,838.3h-39.5l-19.7-34.2l19.8-34.2
		h39.5l19.8,34.2L1951.8,838.3z M1697.3,645.7h39.5l19.7,34.2l-19.8,34.2h-39.5l-19.8-34.2L1697.3,645.7z M1665.1,687.1l19.8,34.2
		l-19.7,34.2h-39.5l-19.7-34.2l19.8-34.2H1665.1z M1697.3,728.5h39.5l19.7,34.2l-19.8,34.2h-39.5l-19.8-34.2L1697.3,728.5z
		 M1756.6,845.5l-19.8,34.2h-39.5l-19.8-34.2l19.7-34.2h39.5L1756.6,845.5z M1828.2,886.8l-19.7,34.2H1769l-19.7-34.2l19.8-34.2h39.5
		L1828.2,886.8z M1808.5,838.3H1769l-19.7-34.2l19.8-34.2h39.5l19.8,34.2L1808.5,838.3z M1554,645.7h39.5l19.7,34.2l-19.8,34.2H1554
		l-19.8-34.2L1554,645.7z M1521.8,687.1l19.8,34.2l-19.7,34.2h-39.5l-19.7-34.2l19.8-34.2H1521.8z M1554,728.5h39.5l19.7,34.2
		l-19.8,34.2H1554l-19.8-34.2L1554,728.5z M1613.2,845.5l-19.8,34.2H1554l-19.8-34.2l19.7-34.2h39.5L1613.2,845.5z M1684.9,886.8
		l-19.7,34.2h-39.5l-19.7-34.2l19.8-34.2h39.5L1684.9,886.8z M1665.2,838.3h-39.5l-19.7-34.2l19.8-34.2h39.5l19.8,34.2L1665.2,838.3z
		 M1410.6,645.7h39.5l19.7,34.2l-19.8,34.2h-39.5l-19.8-34.2L1410.6,645.7z M1378.5,687.1l19.8,34.2l-19.7,34.2H1339l-19.7-34.2
		l19.8-34.2H1378.5z M1410.6,728.5h39.5l19.7,34.2l-19.8,34.2h-39.5l-19.8-34.2L1410.6,728.5z M1469.9,845.5l-19.8,34.2h-39.5
		l-19.8-34.2l19.7-34.2h39.5L1469.9,845.5z M1541.6,886.8l-19.7,34.2h-39.5l-19.7-34.2l19.8-34.2h39.5L1541.6,886.8z M1521.8,838.3
		h-39.5l-19.7-34.2l19.8-34.2h39.5l19.8,34.2L1521.8,838.3z M1267.3,645.7h39.5l19.7,34.2l-19.8,34.2h-39.5l-19.8-34.2L1267.3,645.7z
		 M1235.1,687.1l19.8,34.2l-19.7,34.2h-39.5l-19.7-34.2l19.8-34.2H1235.1z M1267.3,728.5h39.5l19.7,34.2l-19.8,34.2h-39.5l-19.8-34.2
		L1267.3,728.5z M1124,645.7h39.5l19.7,34.2l-19.8,34.2H1124l-19.8-34.2L1124,645.7z M1124,728.5h39.5l19.7,34.2l-19.8,34.2H1124
		l-19.8-34.2L1124,728.5z M1326.6,845.5l-19.8,34.2h-39.5l-19.8-34.2l19.7-34.2h39.5L1326.6,845.5z M1398.2,886.8l-19.7,34.2H1339
		l-19.7-34.2l19.8-34.2h39.5L1398.2,886.8z M1378.5,838.3H1339l-19.7-34.2l19.8-34.2h39.5l19.8,34.2L1378.5,838.3z M1235.1,852.6
		l19.8,34.2l-19.7,34.2h-39.5l-19.7-34.2l19.8-34.2H1235.1z M1235.1,769.9l19.8,34.2l-19.7,34.2h-39.5l-19.7-34.2l19.8-34.2H1235.1z
		 M1124,811.3h39.5l19.7,34.2l-19.8,34.2H1124l-19.8-34.2L1124,811.3z"/>
</svg>
