<?xml version="1.0" encoding="utf-8"?>
<!-- Generator: Adobe Illustrator 27.4.1, SVG Export Plug-In . SVG Version: 6.00 Build 0)  -->
<svg version="1.1" id="Layer_1" xmlns="http://www.w3.org/2000/svg" xmlns:xlink="http://www.w3.org/1999/xlink" x="0px" y="0px"
	 viewBox="0 0 2145.2 2483.7" style="enable-background:new 0 0 2145.2 2483.7;" xml:space="preserve">
<style type="text/css">
	.st0{fill:#BCBDBE;}
	.st1{fill-rule:evenodd;clip-rule:evenodd;fill:#C4454B;}
	.st2{font-family:'Square721BT-BoldExtended';}
	.st3{font-size:110px;}
</style>
<g id="main">
	<path class="st0" d="M1108.6,1403.5c211.8,18.2,378,195.9,378,412.5s-166.2,394.2-378,412.5v216.1c253.6-0.7,479.5-8.3,595.6-13
		c53.6-2.2,86.6,13.5,100.4,49.6c1.2,3.2,5.4,3.2,6-0.2C2021.9,1195.9,2144.9,11.8,2145.2,8.3c0.4-7.2-2.6-9.2-8.4-7.9
		c-322.6,71.3-739.5,105.4-1028.1,108.1V1403.5z"/>
	<path class="st0" d="M1036.6,2228.5c-211.8-18.2-378-195.9-378-412.5s166.2-394.2,378-412.5V108.5C748,105.8,331.2,71.7,8.5,0.4
		C2.6-0.9-0.4,1.1,0,8.3c0.2,3.5,123.3,1187.6,334.6,2472.8c0.6,3.4,4.8,3.3,6,0.2c13.8-36.1,46.8-51.8,100.4-49.6
		c116.2,4.7,341.8,12.3,595.6,13V2228.5z"/>
</g>
<g id="accent">
	<path class="st1" d="M1131.1,1383.4c216.5,29.3,378,214.1,378,432.6c0,218.5-161.5,403.3-378,432.6V2422
		c190.7-1,381.3-5.2,571.9-12.8c31.4-1.7,67.9,3.4,92.9,22.9c121.5-746.3,242.9-1644.2,324.8-2405.3
		c-148.8,31.6-306.2,54.3-459.2,70.6c-176.2,19-353.2,30.1-530.4,33.2V1383.4z M1153.5,1364.2V152.6
		c170.5-3.6,340.7-14.6,510.3-32.8c143.1-15.3,292-36.4,431.1-64.7c-80,739.2-198.8,1617.8-316.2,2342.1
		c-24.8-9.1-50.8-11.8-77-10.4c-182.6,7.3-365.4,11.5-548.2,12.7v-131.7c189-33.9,336.9-181.8,370.8-370.8
		C1569,1647.5,1403,1409,1153.5,1364.2z"/>
	<path class="st1" d="M1014.1,2248.6c-216.5-29.3-378-214.1-378-432.6c0-218.5,161.5-403.3,378-432.6V130.6
		C707.1,125.4,334,92.2,24.6,26.8c81.9,761.1,200.6,1642.6,324.8,2405.3c25.9-20,61.2-24.3,92.6-22.9
		c190.6,7.6,381.3,11.9,572.1,12.9V2248.6z M991.7,2267.8v131.7c-182.9-1.2-365.9-5.4-548.7-12.7c-25.7-1.1-52.6,1.4-76.5,10.5
		C245.6,1651.3,131.2,799.8,50.3,55.1c294.7,59.9,650.4,91.5,941.4,97.6v1211.6c-189,33.9-336.9,181.8-370.8,370.8
		C576.2,1984.5,742.2,2223.1,991.7,2267.8z"/>
</g>
<text transform="matrix(1 0 0 1 674.4191 1855.2412)" class="st2 st3">TXT/LOGO</text>
</svg>
