<?xml version="1.0" encoding="utf-8"?>
<!-- Generator: Adobe Illustrator 27.4.1, SVG Export Plug-In . SVG Version: 6.00 Build 0)  -->
<svg version="1.1" id="Layer_1" xmlns="http://www.w3.org/2000/svg" xmlns:xlink="http://www.w3.org/1999/xlink" x="0px" y="0px"
	 viewBox="0 0 2145.2 2483.7" style="enable-background:new 0 0 2145.2 2483.7;" xml:space="preserve">

	<style type="text/css">
		.maincolor{fill:#BCBDBE;}
		.accentcolor{fill:#57A643;}
		.st2{font-family:'Square721BT-BoldExtended';}
		.st3{font-size:110px;}
	</style>

	<path id="main" class="maincolor" d="M1072.4,2444.6C1072.5,2444.6,1072.3,2444.6,1072.4,2444.6
		C1072.4,2444.6,1072.4,2444.6,1072.4,2444.6c268.2,0,510.2-8.1,631.8-13c53.6-2.2,86.6,13.5,100.4,49.6c1.2,3.2,5.4,3.2,6-0.2
		C2021.9,1195.9,2144.9,11.8,2145.2,8.3c0.4-7.2-2.6-9.2-8.4-7.9c-336.4,74.3-775.2,108.3-1064.3,108.3
		c-289.1,0-727.6-34-1063.9-108.3C2.6-0.9-0.4,1.1,0,8.3c0.2,3.5,123.3,1187.6,334.6,2472.8c0.6,3.4,4.8,3.3,6,0.2
		c13.8-36.1,46.8-51.8,100.4-49.6C562.6,2436.5,804.2,2444.6,1072.4,2444.6C1072.4,2444.6,1072.4,2444.6,1072.4,2444.6z"/>

	<path id="accent" class="accentcolor" d="M1500.6,1804.7c11.8,40.1,18.1,82.4,18.1,126.3c0,246.4-199.8,446.2-446.2,446.2
		S626.4,2177.4,626.4,1931c0-43.9,6.3-86.3,18.1-126.3c-18.7,49.9-28.9,103.9-28.9,160.4c0,180.3,104.5,336.3,256.2,410.6
		c-142.6-1.9-285.2-5.8-427.8-11.5c-19.4-0.8-40.5,0.2-59.3,4.2C235.8,1451.1,71.2,347.8,24.6,26.8
		c81.9,761.1,200.6,1642.6,324.8,2405.3c25.9-20,61.2-24.3,92.6-22.9c210,8.4,420.2,12.7,630.4,13c0.1,0,0.1,0,0.2,0
		c0.1,0,0.1,0,0.2,0c210.2-0.3,420.3-4.6,630.4-13c31.4-1.4,66.8,2.8,92.6,22.9C1920,1669.4,2038.7,787.9,2120.6,26.8
		c-46.6,321-211.2,1424.3-360.1,2341.7c-18.8-4-39.9-5.1-59.3-4.2c-142.6,5.7-285.2,9.5-427.8,11.5
		c151.7-74.3,256.2-230.3,256.2-410.6C1529.6,1908.6,1519.3,1854.6,1500.6,1804.7z"/>

	<text class="textcolor" style="font-size:110px; font-family:'Square721BT-BoldExtended';  text-anchor:middle;" transform="matrix(1 0 0 1 1070 1984.5095)">
		<tspan>TXT/LOGO</tspan>
	</text>
</svg>
