<svg xmlns="http://www.w3.org/2000/svg" viewBox="0 0 2194.8 2308.9" style="enable-background:new 0 0 2194.8 2308.9" xml:space="preserve">
	<title>$design_title</title>
    <desc>$design_desc</desc>
    <defs>
		<linearGradient id="mainGradient_18" y2='1'>
        </linearGradient>
            <linearGradient id="accentGradient_18" y2='1'>
        </linearGradient>
            <linearGradient id="accent2Gradient_18" y2='1'>
        </linearGradient>
            <linearGradient id="textGradient_18" y2='1'>
        </linearGradient>
            <linearGradient id="text2Gradient_18" y2='1'>
        </linearGradient>
            <linearGradient id="text3Gradient_18" y2='1'>
        </linearGradient>
    </defs>

    <path class="maincolor" d="M1097.4 2235.6c277.5 0 552.9 20 586.7 25 27.3 4 50 14.3 61.9 32.6 1.1 1.7 4.9 12.4 4.9 12.4 1.1 4.3 7.2 4.5 8.6.2l4.2-13c7.1-22.2 13.9-44.5 20.4-66.7 9.5-32.3 18.5-64.7 27.2-97.2 7.6-28.5 14.9-57 22-85.6 7.3-29.3 14.3-58.7 21.1-88.1 6.1-26.1 12-52.2 17.7-78.4 10.7-48.7 21-97.5 30.8-146.3 10-49.8 19.7-99.7 29-149.7 23.4-125.8 45.1-254.4 64.9-380.8 9.2-59.1 18-118.2 26.2-177.4 7.6-54.1 14.8-108.3 21.7-162.5 7-55.1 13.8-110.3 20.3-165.4 6-50.8 11.9-101.7 17.7-152.6 4.7-41.1 9.4-82.2 14.2-123.3 4.2-35.6 9.3-78.9 13.9-114.7 9.7-75.6 28.5-150.7 54.4-222.3 6.7-18.5 13.9-36.7 21.6-54.8 1-2.3 7.4-16.6 7.4-16.6 2.5-5.4-2.4-11.4-8.2-10l-23 5.3c-58 13.1-145.9 30.9-263.5 48.7-261.2 39.4-512.9 54.4-802 54.4s-540.8-15-802-54.4C177.7 36.5 89.8 18.6 31.8 5.5L8.8.2C3-1.2-1.8 4.8.7 10.2c0 0 6.4 14.3 7.4 16.6C15.8 44.9 23 63.1 29.7 81.6 55.5 153.2 74.4 228.4 84 303.9c4.6 35.8 9.8 79.1 13.9 114.7 4.8 41.1 9.5 82.2 14.2 123.3 5.8 50.9 11.7 101.7 17.7 152.6 6.5 55.2 13.3 110.3 20.3 165.4 6.9 54.2 14.1 108.4 21.7 162.5 8.3 59.2 17 118.4 26.2 177.4 19.8 126.5 41.5 255.1 64.9 380.8 9.3 50 18.9 99.9 29 149.7 9.8 48.9 20.1 97.6 30.8 146.3 5.8 26.2 11.7 52.3 17.7 78.4 6.8 29.4 13.9 58.8 21.1 88.1 7.1 28.6 14.4 57.2 22 85.6 8.7 32.5 17.7 64.9 27.2 97.2 6.5 22.2 13.3 44.4 20.4 66.7l4.2 13c1.4 4.3 7.5 4.1 8.6-.2 0 0 3.8-10.7 4.9-12.4 11.9-18.3 34.6-28.6 61.9-32.6 33.7-4.8 309.2-24.8 586.7-24.8z"/>
	<path class="accentcolor" d="M1114.2 2235.9c16.2 0 32.3.2 48.4.3l17.4-10.1 18.3 10.5c15 .2 29.9.5 44.7.9l19.7-11.4 21.5 12.4c12.7.4 25.3.7 37.7 1.1l23.5-13.6 26.6 15.4c9.3.4 18.6.7 27.6 1.1l28.5-16.5 33.4 19.3c5.1.3 10.1.5 15.1.8v-.3l34.2-19.7 34.2 19.8v4.1c4.9.3 9.7.6 14.3.9v-5l34.2-19.7 34.2 19.8v9.7c5.1.4 9.9.8 14.3 1.1v-10.9l34.2-19.7 34.2 19.8v21.6c5.1 1.9 9.9 4.1 14.3 6.7V2246l34.2-19.7 21.1 12.2c1.2-4 2.4-8 3.5-12 .2-.7.4-1.5.6-2.2l-18.1-10.4v-39.5l34.2-19.8 3.1 1.8c1.4-5 2.7-10.1 4.1-15.1v-38.6l12-6.9c1.7-6.5 3.3-13 5-19.4l-24.2 14-34.2-19.8v-39.5l34.2-19.8 34.2 19.7v5.4c1.6-6.4 3.2-12.8 4.7-19.3l-31.7-18.3v-39.5l34.2-19.7 14 8.1c1.1-4.9 2.2-9.7 3.4-14.6l-10.2-5.9v-39.5l23.4-13.5c5.4-24.5 10.6-48.9 15.8-73.4l-4.9 2.9-34.2-19.8v-39.5l34.2-19.8 18.4 10.6.9-4.5c.7-3.4 1.4-6.9 2.1-10.3l-14.2-8.2v-39.5l26.6-15.4c4.7-24.1 9.2-48.2 13.7-72.3l-6.2 3.6-34.2-19.7v-39.5l34.2-19.7 18.1 10.4 2.7-15-13.6-7.9v-39.5l24.5-14.1c4.1-23.8 8.2-47.6 12.2-71.4l-2.5 1.4-34.2-19.8v-39.5l34.2-19.8 14 8.1c.8-5 1.6-10.1 2.5-15.1l-9.3-5.4v-39.5l18.2-10.5c1-6.1 1.9-12.2 2.9-18.2l-28.2 16.3-34.2-19.8v-39.5l34.2-19.8 34.2 19.8v4.7c1-6.6 2-13.1 3-19.7l-30-17.3V1099l34.2-19.7 6.7 3.8c.7-5.1 1.5-10.2 2.2-15.3l-1.7-1v-39.5l8.1-4.7c.8-6 1.7-12 2.5-18l-17.8 10.2-34.2-19.7v-39.5l34.2-19.7 25.1 14.5c.7-5.1 1.4-10.3 2.1-15.4l-20-11.6V884l28.8-16.7.9-7.2 7.8-62.1-3.3 1.9-34.2-19.8v-39.5l34.2-19.8 11.9 6.9c.6-5.2 1.2-10.3 1.9-15.5l-6.6-3.8V669l12.5-7.2c.7-5.9 1.4-11.8 2.1-17.8l-21.8 12.6-34.2-19.8v-39.5l34.2-19.8 27.6 16c.6-5.2 1.2-10.4 1.8-15.5l-22.3-12.8v-39.5l30.3-17.5c2.6-23 5.3-46 8-68.9l-4 2.3-34.2-19.7v-39.5l34.2-19.7 12.2 7.1c.6-5.2 1.2-10.3 1.9-15.5l-6.9-4v-39.5l13.3-7.7c.8-6 1.6-12 2.5-18l-23 13.3-34.2-19.7V239l34.2-19.7 31.2 18c1-4.9 2-9.9 3.1-14.8l-27.1-15.7v-39.5l34.2-19.8 10.2 5.9c1.4-4.7 2.7-9.5 4.2-14.2l-7.2-4.1V95.6l26.8-15.5c4.6-12.7 9.5-25.3 14.6-37.9V23.9l10.4-6c1.7-3.9 3.4-7.6 3.4-7.6 1.7-3.6 0-7.5-3-9.2l-18 10.4-10.1-5.8h-.1c-6.5 1.5-13.4 3-20.6 4.6l23.7 13.7v39.5l-34.2 19.7-34.2-19.8V23.9l11.4-6.6c-8.8 1.8-18 3.7-27.6 5.6l1.8 1v39.5l-34 19.8-34.2-19.8v-28c-4.7.8-9.5 1.7-14.3 2.5v25.5l-34.2 19.7-34.2-19.8V49.4c-4.7.7-9.5 1.5-14.3 2.2v11.8l-34.2 19.7-34.2-19.8v-1.7c-5 .7-9.9 1.4-14.9 2.1l-33.7 19.4-21.3-12.3c-16.9 2.1-33.7 4.1-50.6 6l-10.9 6.3-7.4-4.3c-8.1.9-16.2 1.7-24.2 2.6l24.5 14.1V135l-34.2 19.8-34.2-19.7V95.6l20.4-11.8c-15.8 1.5-31.6 3-47.4 4.4l12.7 7.4v39.5l-34.2 19.8-34.2-19.7V95.6l5.6-3.2c-7.5.6-15 1.1-22.5 1.7l2.7 1.5v39.5l-34.2 19.8-34.2-19.7V98.4c-4.8.3-9.6.6-14.3.8V135l-34.2 19.8-34.2-19.7v-32.4c-4.8.2-9.5.4-14.3.6v31.8l-34.2 19.8-34.2-19.7v-29.3c-4.8.1-9.5.3-14.3.4v28.9l-34.2 19.8-34.2-19.7v-27.4c-4.8.1-9.5.2-14.3.2v27.1l-34.2 19.8-34.2-19.7v-26.4c-4.8 0-9.6.1-14.4.1v26.3l-34.2 19.7-34.2-19.7V109c-4.8 0-9.6 0-14.4-.1v26.4L1015 155l-34.2-19.8V108c-4.8-.1-9.6-.2-14.3-.2v27.4l-34.2 19.7-34.2-19.8v-28.9c-4.8-.1-9.6-.3-14.3-.4v29.3l-34.2 19.7-34.2-19.8v-31.8c-4.8-.2-9.6-.4-14.3-.6V135l-34.2 19.7-34.2-19.8V99.3c-4.8-.3-9.6-.6-14.3-.8v36.7l-34.2 19.7-34.2-19.8V95.6l2.7-1.5c-7.5-.5-15-1.1-22.5-1.7l5.6 3.2v39.5l-34.2 19.7-34.2-19.8V95.6l12.7-7.4c-15.8-1.4-31.6-2.9-47.4-4.4l20.4 11.8v39.5l-34.2 19.7-34.2-19.8V95.6l24.5-14.1c-8.1-.8-16.2-1.7-24.2-2.6l-7.4 4.3-10.9-6.3c-16.9-1.9-33.7-3.9-50.6-6L394 83.2l-33.7-19.4c-5-.7-9.9-1.4-14.9-2.1v1.7l-34.2 19.8L277 63.5V51.6c-4.8-.7-9.6-1.5-14.3-2.2v14.1l-34.2 19.8-34.2-19.7V38c-4.8-.8-9.6-1.7-14.3-2.5v28l-34.2 19.8-34.2-19.7V23.9l1.8-1c-9.6-1.9-18.8-3.8-27.6-5.6l11.4 6.6v39.5L63 83.2 28.8 63.5V23.9l23.7-13.7c-7.2-1.6-14.1-3.1-20.6-4.6h-.1l-10.1 5.8L3.6 1.2C.6 2.9-1 6.8.6 10.4c0 0 1.6 3.6 3.4 7.6l10.4 6v18.4c5.1 12.5 10 25.1 14.6 37.9l26.8 15.5v39.5l-7.2 4.1c1.4 4.7 2.8 9.4 4.2 14.2l10.2-5.9 34.2 19.8V207L70 222.4c1.1 4.9 2.1 9.9 3.1 14.8l31.2-18 34.2 19.7v39.5l-34.2 19.7-23-13.3c.9 6 1.7 12 2.5 18l13.3 7.7V350l-6.9 4c.6 5.2 1.3 10.3 1.9 15.5l12.2-7.1 34.2 19.7v39.5l-34.2 19.7-4-2.3c2.7 23 5.3 46 8 68.9l30.3 17.5v39.5L116.3 578c.6 5.2 1.2 10.4 1.8 15.5l27.6-16 34.2 19.8v39.5l-34.2 19.8-21.8-12.6c.7 5.9 1.4 11.8 2.1 17.8l12.5 7.2v39.5l-6.6 3.8c.6 5.2 1.2 10.3 1.9 15.5l11.9-6.9 34.2 19.8v39.5L145.7 800l-3.3-1.9 7.8 62.1.9 7.2 28.8 16.7v39.5l-20 11.6c.7 5.1 1.4 10.3 2.1 15.4l25.1-14.5 34.2 19.7v39.5l-34.2 19.7-17.8-10.2c.8 6 1.7 12 2.5 18l8.1 4.7v39.5l-1.7 1c.7 5.1 1.5 10.2 2.2 15.3l6.7-3.8 34.2 19.7v39.5l-30 17.3c1 6.6 2 13.1 3 19.7v-4.7l34.2-19.8 34.2 19.8v39.5l-34.2 19.8-28.2-16.3c1 6.1 1.9 12.1 2.9 18.2l18.2 10.5v39.5l-9.3 5.4c.8 5 1.6 10.1 2.5 15.1l14-8.1 34.2 19.8v39.5l-34.2 19.8-2.5-1.4c4 23.8 8.1 47.6 12.2 71.4l24.5 14.1v39.5l-13.6 7.9 2.7 15 18.1-10.4 34.2 19.7v39.5l-34.2 19.7-6.2-3.6c4.5 24.1 9.1 48.2 13.7 72.3l26.6 15.4v39.5l-14.2 8.2c.7 3.4 1.4 6.9 2.1 10.3l.9 4.5 18.4-10.6 34.2 19.8v39.5l-34.2 19.8-4.9-2.9c5.1 24.5 10.4 49 15.8 73.4l23.4 13.5v39.5l-10.2 5.9c1.1 4.9 2.2 9.8 3.4 14.6l14-8.1 34.2 19.7v39.5l-31.7 18.3c1.6 6.4 3.1 12.8 4.7 19.3v-5.4l34.2-19.7 34.2 19.8v39.5l-34.2 19.8-24.2-14c1.7 6.5 3.3 13 5 19.4l12 6.9v38.6c1.4 5 2.7 10.1 4.1 15.1l3.1-1.8 34.2 19.8v39.5l-18.1 10.4c.2.7.4 1.5.6 2.2 1.2 4 2.3 8 3.5 12l21.1-12.2 34.2 19.7v28.3c4.4-2.6 9.2-4.8 14.3-6.7v-21.6l34.2-19.8 34.2 19.7v10.9c4.5-.4 9.3-.7 14.3-1.1v-9.7l34.2-19.8 34.2 19.7v5c4.7-.3 9.5-.6 14.3-.9v-4.1l34.2-19.8 34.2 19.7v.3c5-.3 10-.5 15.1-.8l33.4-19.3 28.5 16.5c9.1-.4 18.3-.8 27.6-1.1l26.6-15.4 23.5 13.6c12.4-.4 25-.8 37.7-1.1l21.5-12.4 19.7 11.4c14.8-.3 29.7-.6 44.7-.9l18.3-10.5 17.4 10.1c16.1-.2 32.3-.3 48.4-.3l16.8-9.7 17.2 9.6zm638-2068.6v39.5l-34.2 19.7-34.2-19.8v-39.5l34.2-19.8 34.2 19.9zm-41.3 71.7v39.5l-34.2 19.8-34.2-19.7V239l34.2-19.7 34.2 19.7zm41.3 71.6v39.5l-34.2 19.7-34.2-19.8v-39.5l34.2-19.8 34.2 19.9zm-41.3 71.7v39.5l-34.2 19.8-34.2-19.7v-39.5l34.2-19.7 34.2 19.6zm41.3 71.7v39.5l-34.2 19.7-34.2-19.8V454l34.2-19.8 34.2 19.8zm-41.3 71.6v39.5l-34.2 19.8-34.2-19.7v-39.5l34.2-19.7 34.2 19.6zm41.3 71.7v39.5l-34.2 19.7-34.2-19.8v-39.5l34.2-19.8 34.2 19.9zm-41.3 71.7v39.5l-34.2 19.8-34.2-19.7V669l34.2-19.7 34.2 19.7zm41.3 71.6v39.5l-34.2 19.7-34.2-19.8v-39.5l34.2-19.8 34.2 19.9zm-41.3 71.7v39.5l-34.2 19.8-34.2-19.7v-39.5l34.2-19.7 34.2 19.6zm41.3 71.7v39.5l-34.2 19.7-34.2-19.8V884l34.2-19.8 34.2 19.8zm-41.3 71.6v39.5l-34.2 19.8-34.2-19.7v-39.5l34.2-19.7 34.2 19.6zm41.3 71.7v39.5l-34.2 19.7-34.2-19.8v-39.5l34.2-19.8 34.2 19.9zm-41.3 71.7v39.5l-34.2 19.8-34.2-19.8V1099l34.2-19.7 34.2 19.7zm55.7-71.7 34.2-19.8 34.2 19.7v39.5l-34.2 19.7-34.2-19.8v-39.3zm0-143.3 34.2-19.8L1835 884v39.5l-34.2 19.7-34.2-19.8V884zm0-143.4 34.2-19.8 34.2 19.7V780l-34.2 19.7-34.2-19.8v-39.3zm0-143.3 34.2-19.8 34.2 19.7v39.5l-34.2 19.7-34.2-19.8v-39.3zm0-143.3 34.2-19.8L1835 454v39.5l-34.2 19.7-34.2-19.8V454zm0-143.4 34.2-19.8 34.2 19.7V350l-34.2 19.7-34.2-19.8v-39.3zm0-143.3 34.2-19.8 34.2 19.7v39.5l-34.2 19.7-34.2-19.8v-39.3zm-41.4 788.3 34.2-19.7 34.2 19.8v39.5l-34.2 19.8-34.2-19.7v-39.7zm0-143.3 34.2-19.7 34.2 19.8v39.5l-34.2 19.8-34.2-19.7v-39.7zm0-143.3 34.2-19.7 34.2 19.8v39.5l-34.2 19.8-34.2-19.7V669zm0 430 34.2-19.7 34.2 19.8v39.5l-34.2 19.8-34.2-19.8V1099zm0-573.4 34.2-19.7 34.2 19.8v39.5l-34.2 19.8-34.2-19.7v-39.7zm0-143.3 34.2-19.7 34.2 19.8v39.5l-34.2 19.8-34.2-19.7v-39.7zm0-143.3 34.2-19.7 34.2 19.8v39.5l-34.2 19.8-34.2-19.7V239zm0-143.4 34.2-19.7 34.2 19.8v39.5l-34.2 19.8-34.2-19.7V95.6zm117-19.7 34.2 19.8v39.5l-34.2 19.8-34.2-19.7V95.6l34.2-19.7zm0 143.3 34.2 19.8v39.5l-34.2 19.8-34.2-19.7V239l34.2-19.8zm0 143.3 34.2 19.8v39.5l-34.2 19.8-34.2-19.7v-39.5l34.2-19.9zm0 143.4 34.2 19.8v39.5l-34.2 19.8-34.2-19.7v-39.5l34.2-19.9zm0 143.3 34.2 19.8v39.5l-34.2 19.8-34.2-19.7V669l34.2-19.8zm0 143.4 34.2 19.8v39.5l-34.2 19.8L1808 852v-39.5l34.2-19.9zm0 143.3 34.2 19.8v39.5l-34.2 19.8-34.2-19.7v-39.5l34.2-19.9zm0 143.3 34.2 19.8v39.5l-34.2 19.8-34.2-19.8V1099l34.2-19.8zm41.3-931.7 34.2 19.7v39.5l-34.2 19.7-34.2-19.8v-39.5l34.2-19.6zm7.2 131V239l34.2-19.7 34.2 19.8v39.5l-34.2 19.8-34.2-19.9zm-7.2 12.4 34.2 19.7v39.5l-34.2 19.7-34.2-19.8v-39.5l34.2-19.6zm7.2 130.9v-39.5l34.2-19.7 34.2 19.8v39.5l-34.2 19.8-34.2-19.9zm-7.2 12.4 34.2 19.7v39.5l-34.2 19.7-34.2-19.8V454l34.2-19.8zm7.2 130.9v-39.5l34.2-19.7 34.2 19.8v39.5l-34.2 19.8-34.2-19.9zm-7.2 12.4 34.2 19.7v39.5l-34.2 19.7-34.2-19.8v-39.5l34.2-19.6zm7.2 131V669l34.2-19.7 34.2 19.8v39.5l-34.2 19.8-34.2-19.9zm-7.2 12.4 34.2 19.7v39.5l-34.2 19.7-34.2-19.8v-39.5l34.2-19.6zm7.2 130.9v-39.5l34.2-19.7 34.2 19.8v39.5l-34.2 19.8-34.2-19.9zm-7.2 12.4 34.2 19.7v39.5l-34.2 19.7-34.2-19.8V884l34.2-19.8zm7.2 130.9v-39.5l34.2-19.7 34.2 19.8v39.5l-34.2 19.8-34.2-19.9zm-7.2 12.5 34.2 19.7v39.5l-34.2 19.7-34.2-19.8v-39.5l34.2-19.6zm7.2 130.9V1099l34.2-19.7 34.2 19.8v39.5l-34.2 19.8-34.2-19.9zm0-1003.4V95.6l34.2-19.7 34.2 19.8v39.5l-34.2 19.8-34.2-19.9zm109.8 892.2v39.5l-34.2 19.7-34.2-19.8v-39.5l34.2-19.8 34.2 19.9zm41.4-175.5-34.2 19.8-34.2-19.7v-39.5l34.2-19.7 34.2 19.8v39.3zm-41.4 32.2v39.5l-34.2 19.7-34.2-19.8V884l34.2-19.8 34.2 19.8zm41.4-175.5-34.2 19.8-34.2-19.7V669l34.2-19.7 34.2 19.8v39.4zm-41.4 32.1v39.5l-34.2 19.7-34.2-19.8v-39.5l34.2-19.8 34.2 19.9zm41.4-175.5-34.2 19.8-34.2-19.7v-39.5l34.2-19.7 34.2 19.8v39.3zm-41.4 32.2v39.5l-34.2 19.7-34.2-19.8v-39.5l34.2-19.8 34.2 19.9zm14.3-143.3 34.2-19.8 34.2 19.7v39.5l-34.2 19.7-34.2-19.8V454zm27.1-32.2-34.2 19.8-34.2-19.7v-39.5l34.2-19.7 34.2 19.8v39.3zm-41.4 32.2v39.5l-34.2 19.7-34.2-19.8V454l34.2-19.8 34.2 19.8zm41.4-175.6-34.2 19.8-34.2-19.7V239l34.2-19.7 34.2 19.8v39.3zm7.1 12.5 34.2 19.7v39.5l-34.2 19.7-34.2-19.8v-39.5l34.2-19.6zm-48.5 19.7v39.5l-34.2 19.7-34.2-19.8v-39.5l34.2-19.8 34.2 19.9zm41.4-175.5-34.2 19.8-34.2-19.7V95.6l34.2-19.7 34.2 19.8v39.4zm7.1 12.4 34.2 19.7v39.5l-34.2 19.7-34.2-19.8v-39.5l34.2-19.6zm-48.5 19.8v39.5l-34.2 19.7-34.2-19.8v-39.5l34.2-19.8 34.2 19.9zm124.1-32.2-34.2 19.8-34.2-19.7V95.6l34.2-19.7 34.2 19.8v39.4zM1090.2 1170.8v39.6l-34.2 19.7-34.2-19.7v-39.5l34.2-19.8 34.2 19.7zm-41.4 71.7v39.5l-34.2 19.7-34.2-19.8v-39.5l34.2-19.8 34.2 19.9zm7.2 51.9 34.2 19.7v39.5l-34.2 19.7-34.2-19.7v-39.5l34.2-19.7zm-7.2 91.4v39.5l-34.2 19.7-34.2-19.8v-39.5l34.2-19.8 34.2 19.9zm7.2 52 34.2 19.7v39.5l-34.2 19.7-34.2-19.7v-39.5l34.2-19.7zm-7.2 91.4v39.5l-34.2 19.7-34.2-19.8v-39.5l34.2-19.8 34.2 19.9zm7.2 51.9 34.2 19.7v39.5L1056 1660l-34.2-19.7v-39.5l34.2-19.7zm-7.2 91.4v39.5l-34.2 19.7-34.2-19.8v-39.5l34.2-19.8 34.2 19.9zm7.2 51.9 34.2 19.7v39.5l-34.2 19.7-34.2-19.7v-39.5l34.2-19.7zm-7.2 91.4v39.5l-34.2 19.7-34.2-19.8v-39.5l34.2-19.8 34.2 19.9zm7.2 52 34.2 19.7v39.5l-34.2 19.7-34.2-19.7v-39.5l34.2-19.7zm-7.2 91.4v39.5l-34.2 19.7-34.2-19.8v-39.5l34.2-19.8 34.2 19.9zm7.2 51.9 34.2 19.7v39.5L1056 2090l-34.2-19.7v-39.5l34.2-19.7zm-7.2 91.4v39.5l-34.2 19.7-34.2-19.8v-39.5l34.2-19.8 34.2 19.9zm7.2 52 34.2 19.7v39.5l-34.2 19.7-34.2-19.7v-39.5l34.2-19.7zm669.2-12.5v-39.5l34.2-19.7 34.2 19.8v39.5l-34.2 19.8-34.2-19.9zm0-143.3v-39.5l34.2-19.7 34.2 19.8v39.5l-34.2 19.8-34.2-19.9zm41.4-71.7v-39.5l34.2-19.8 34.2 19.7v39.5l-34.2 19.7-34.2-19.6zm-41.4-71.6v-39.5l34.2-19.7 34.2 19.8v39.5l-34.2 19.8-34.2-19.9zm41.4-71.7v-39.5l34.2-19.8 34.2 19.7v39.5l-34.2 19.7-34.2-19.6zm-41.4-71.7v-39.5l34.2-19.7 34.2 19.8v39.5l-34.2 19.8-34.2-19.9zm41.4-71.7v-39.5l34.2-19.8 34.2 19.7v39.5l-34.2 19.7-34.2-19.6zm-41.4-71.6v-39.5l34.2-19.7 34.2 19.8v39.5l-34.2 19.8-34.2-19.9zm41.4-71.7v-39.5l34.2-19.8 34.2 19.7v39.5l-34.2 19.7-34.2-19.6zm-41.4-71.7v-39.5l34.2-19.7 34.2 19.8v39.5l-34.2 19.8-34.2-19.9zm41.4-71.6v-39.5l34.2-19.8 34.2 19.7v39.5l-34.2 19.7-34.2-19.6zm-41.4-71.7v-39.5l34.2-19.7 34.2 19.8v39.5l-34.2 19.8-34.2-19.9zm41.4-71.7v-39.5l34.2-19.8 34.2 19.8v39.5l-34.2 19.7-34.2-19.7zm-620.7 32.2 34.2-19.7 34.2 19.8v39.5l-34.2 19.8-34.2-19.7v-39.7zm0 143.3 34.2-19.7 34.2 19.8v39.5l-34.2 19.8-34.2-19.7v-39.7zm0 143.4 34.2-19.7 34.2 19.8v39.5l-34.2 19.8-34.2-19.7v-39.7zm0 143.3 34.2-19.7 34.2 19.8v39.5l-34.2 19.8-34.2-19.7v-39.7zm0 143.3 34.2-19.7 34.2 19.8v39.5l-34.2 19.8-34.2-19.7v-39.7zm0 143.4 34.2-19.7 34.2 19.8v39.5l-34.2 19.8-34.2-19.7v-39.7zm0 143.3 34.2-19.7 34.2 19.8v39.5l-34.2 19.8-34.2-19.7v-39.7zm-7.2 52 34.2 19.7v39.5l-34.2 19.7-34.2-19.7v-39.5l34.2-19.7zm0-143.4 34.2 19.7v39.5l-34.2 19.7-34.2-19.7v-39.5l34.2-19.7zm0-143.3 34.2 19.7v39.5l-34.2 19.7-34.2-19.7v-39.5l34.2-19.7zm0-143.4 34.2 19.7v39.5l-34.2 19.7-34.2-19.7v-39.5l34.2-19.7zm0-143.3 34.2 19.7v39.5l-34.2 19.7-34.2-19.7v-39.5l34.2-19.7zm0-143.3 34.2 19.7v39.5l-34.2 19.7-34.2-19.7v-39.5l34.2-19.7zm0-143.4 34.2 19.7v39.5l-34.2 19.7-34.2-19.7v-39.5l34.2-19.7zm-34.1-123.6 34.1-19.7 34.2 19.8v39.5l-34.2 19.7-34.2-19.7v-39.6zm606.3 971.2-34.2 19.8-34.2-19.7v-39.5l34.2-19.7 34.2 19.8v39.3zm0-143.3-34.2 19.8-34.2-19.7v-39.5l34.2-19.7 34.2 19.8v39.3zm41.3 71.7-34.2 19.7-34.2-19.8v-39.5l34.2-19.8 34.2 19.7v39.7zm-41.3-215.1-34.2 19.8-34.2-19.7v-39.5l34.2-19.7 34.2 19.8v39.3zm41.3 71.7-34.2 19.7-34.2-19.8v-39.5l34.2-19.8 34.2 19.7v39.7zm0 286.7-34.2 19.7-34.2-19.8v-39.5l34.2-19.8 34.2 19.7v39.7zm-41.3-501.7-34.2 19.8-34.2-19.7v-39.5l34.2-19.7 34.2 19.8v39.3zm41.3 71.7-34.2 19.7-34.2-19.8v-39.5l34.2-19.8 34.2 19.7v39.7zm-41.3-215-34.2 19.8-34.2-19.7v-39.5l34.2-19.7 34.2 19.8v39.3zm41.3 71.6L1718 1660l-34.2-19.8v-39.5l34.2-19.8 34.2 19.7v39.7zm-41.3-215-34.2 19.8-34.2-19.7v-39.5l34.2-19.7 34.2 19.8v39.3zm41.3 71.7-34.2 19.7-34.2-19.8v-39.5l34.2-19.8 34.2 19.7v39.7zm-41.3-215-34.2 19.8-34.2-19.7v-39.5l34.2-19.7 34.2 19.8v39.3zm41.3 71.7-34.2 19.7-34.2-19.8v-39.5l34.2-19.8 34.2 19.7v39.7zm0-143.4L1718 1230l-34.2-19.8v-39.5l34.2-19.8 34.2 19.8v39.6zm-530.7 84.1 34.2 19.7v39.5l-34.2 19.7-34.2-19.8V1314l34.2-19.6zm7.2 130.9v-39.5l34.2-19.7 34.2 19.8v39.5l-34.2 19.8-34.2-19.9zm-7.2 12.5 34.2 19.7v39.5l-34.2 19.7-34.2-19.8v-39.5l34.2-19.6zm7.2 130.9v-39.5l34.2-19.7 34.2 19.8v39.5l-34.2 19.8-34.2-19.9zm-7.2 12.4 34.2 19.7v39.5l-34.2 19.7-34.2-19.8v-39.5l34.2-19.6zm7.2 130.9v-39.5l34.2-19.7 34.2 19.8v39.5l-34.2 19.8-34.2-19.9zm-7.2 12.4 34.2 19.7v39.5l-34.2 19.7-34.2-19.8V1744l34.2-19.6zm7.2 131v-39.5l34.2-19.7 34.2 19.8v39.5l-34.2 19.8-34.2-19.9zm-7.2 12.4 34.2 19.7v39.5l-34.2 19.7-34.2-19.8v-39.5l34.2-19.6zm7.2 130.9v-39.5l34.2-19.7 34.2 19.8v39.5l-34.2 19.8-34.2-19.9zm-7.2 12.4 34.2 19.7v39.5l-34.2 19.7-34.2-19.8v-39.5l34.2-19.6zm7.2 130.9v-39.5l34.2-19.7 34.2 19.8v39.5l-34.2 19.8-34.2-19.9zm-7.2 12.4 34.2 19.7v39.5l-34.2 19.7-34.2-19.8V2174l34.2-19.6zm7.2-872.4v-39.5l34.2-19.7 34.2 19.8v39.5l-34.2 19.8-34.2-19.9zm-41.4-111.2 34.2-19.8 34.2 19.8v39.5l-34.2 19.7-34.2-19.8v-39.4zm192.5 971.2-34.2 19.8-34.2-19.7v-39.5l34.2-19.7 34.2 19.8v39.3zm7.2 12.4 34.2 19.7v39.5l-34.2 19.7-34.2-19.8V2174l34.2-19.6zm-48.6 19.8v39.5l-34.2 19.7-34.2-19.8v-39.5l34.2-19.8 34.2 19.9zm41.4-175.5-34.2 19.8-34.2-19.7v-39.5l34.2-19.7 34.2 19.8v39.3zm7.2 12.4 34.2 19.7v39.5L1387 2090l-34.2-19.8v-39.5l34.2-19.6zm-48.6 19.8v39.5l-34.2 19.7-34.2-19.8v-39.5l34.2-19.8 34.2 19.9zm41.4-175.6-34.2 19.8-34.2-19.7v-39.5l34.2-19.7 34.2 19.8v39.3zm7.2 12.5 34.2 19.7v39.5l-34.2 19.7-34.2-19.8v-39.5l34.2-19.6zm-48.6 19.7v39.5l-34.2 19.7-34.2-19.7v-39.5l34.2-19.8 34.2 19.8zm41.4-175.5-34.2 19.8-34.2-19.7v-39.5l34.2-19.7 34.2 19.8v39.3zm7.2 12.4 34.2 19.7v39.5l-34.2 19.7-34.2-19.8V1744l34.2-19.6zm-48.6 19.8v39.5l-34.2 19.7-34.2-19.8v-39.5l34.2-19.8 34.2 19.9zm14.4-143.3 34.2-19.8 34.2 19.7v39.5L1387 1660l-34.2-19.8v-39.3zm27-32.2-34.2 19.8-34.2-19.7v-39.5l34.2-19.7 34.2 19.8v39.3zm-41.4 32.1v39.5l-34.2 19.7-34.2-19.8v-39.5l34.2-19.8 34.2 19.9zm41.4-175.5-34.2 19.8-34.2-19.7v-39.5l34.2-19.7 34.2 19.8v39.3zm7.2 12.5 34.2 19.7v39.5l-34.2 19.7-34.2-19.8v-39.5l34.2-19.6zm-48.6 19.7v39.5l-34.2 19.7-34.2-19.7v-39.5l34.2-19.8 34.2 19.8zm41.4-175.5-34.2 19.8-34.2-19.7v-39.5l34.2-19.7 34.2 19.8v39.3zm7.2 12.4 34.2 19.7v39.5l-34.2 19.7-34.2-19.8V1314l34.2-19.6zm-48.6 19.8v39.5l-34.2 19.7-34.2-19.8v-39.5l34.2-19.8 34.2 19.9zm14.4-143.4 34.2-19.8 34.2 19.8v39.5L1387 1230l-34.2-19.8v-39.4zm-14.4 0v39.5l-34.2 19.7-34.2-19.8v-39.5l34.2-19.8 34.2 19.9zm131.4 1062.6-34.2-19.8v-39.5l34.2-19.8 34.2 19.7v39.5l-34.2 19.9zm199.7-202.5v39.5l-34.2 19.7-34.2-19.8v-39.5l34.2-19.8 34.2 19.9zm-199.7 59.2-34.2-19.8v-39.5l34.2-19.8 34.2 19.7v39.5l-34.2 19.9zm-41.4 71.7-34.2-19.7v-39.5l34.2-19.7 34.2 19.8v39.5l-34.2 19.6zm48.5-19.8v-39.5l34.2-19.7 34.2 19.8v39.5l-34.2 19.8-34.2-19.9zm192.6-254.5v39.5l-34.2 19.7-34.3-19.7v-39.5l34.2-19.8 34.3 19.8zm-75.6 51.9 34.2 19.8v39.5l-34.2 19.8-34.2-19.7v-39.5l34.2-19.9zm34.2-84.1-34.2 19.8-34.2-19.7v-39.5l34.2-19.7 34.2 19.8v39.3zm-41.4 32.2v39.5l-34.2 19.7-34.2-19.8v-39.5l34.2-19.8 34.2 19.9zm82.8 286.7v39.5l-34.2 19.7-34.2-19.8v-39.5l34.2-19.8 34.2 19.9zm-41.4-32.2-34.2 19.8-34.2-19.7v-39.5l34.2-19.7 34.2 19.8v39.3zm-41.4 32.2v39.5l-34.2 19.7-34.2-19.8v-39.5l34.2-19.8 34.2 19.9zm0-143.3v39.5l-34.2 19.7-34.2-19.8v-39.5l34.2-19.8 34.2 19.9zm-116.9-84.1-34.2-19.8v-39.5l34.2-19.8 34.2 19.7v39.5l-34.2 19.9zm-41.4 71.6-34.2-19.7v-39.5l34.2-19.7 34.2 19.8v39.5l-34.2 19.6zm48.5-19.7v-39.5l34.2-19.7 34.2 19.8v39.5l-34.2 19.8-34.2-19.9zm192.6-254.5v39.5l-34.2 19.7-34.2-19.8v-39.5l34.2-19.8 34.2 19.9zm-41.4-32.2-34.2 19.8-34.2-19.7v-39.5l34.2-19.7 34.2 19.8v39.3zm-41.4 32.2v39.5l-34.2 19.7-34.2-19.8v-39.5l34.2-19.8 34.2 19.9zm-116.9 59.2-34.2-19.8v-39.5l34.2-19.8 34.2 19.7v39.5l-34.2 19.9zm-41.4 71.7-34.2-19.7v-39.5l34.2-19.7 34.2 19.8v39.5l-34.2 19.6zm48.5-19.7v-39.5l34.2-19.7 34.2 19.8v39.5l-34.2 19.8-34.2-19.9zm192.6-254.6v39.5l-34.2 19.7-34.2-19.8v-39.5l34.2-19.8 34.2 19.9zm-41.4-32.1-34.2 19.8-34.2-19.7v-39.5l34.2-19.7 34.2 19.8v39.3zm-41.4 32.1v39.5l-34.2 19.7-34.2-19.8v-39.5l34.2-19.8 34.2 19.9zm-116.9 59.3-34.2-19.8v-39.5l34.2-19.8 34.2 19.7v39.5l-34.2 19.9zm-41.4 71.7-34.2-19.7v-39.5l34.2-19.7 34.2 19.8v39.5l-34.2 19.6zm48.5-19.8v-39.5l34.2-19.7 34.2 19.8v39.5l-34.2 19.8-34.2-19.9zm192.6-254.5v39.5l-34.2 19.7-34.3-19.7v-39.5l34.2-19.8 34.3 19.8zm-41.4-32.2-34.2 19.8-34.2-19.7v-39.5l34.2-19.7 34.2 19.8v39.3zm-41.4 32.2v39.5l-34.2 19.7-34.2-19.8v-39.5l34.2-19.8 34.2 19.9zm-116.9 59.3-34.2-19.8v-39.5l34.2-19.8 34.2 19.7v39.5l-34.2 19.9zm-41.4 71.6-34.2-19.7v-39.5l34.2-19.7 34.2 19.8v39.5l-34.2 19.6zm48.5-19.7v-39.5l34.2-19.7 34.2 19.8v39.5l-34.2 19.8-34.2-19.9zm192.6-254.5v39.5l-34.2 19.7-34.2-19.8v-39.5l34.2-19.8 34.2 19.9zm-41.4-32.2-34.2 19.8-34.2-19.7v-39.5l34.2-19.7 34.2 19.8v39.3zm-41.4 32.2v39.5l-34.2 19.7-34.2-19.8v-39.5l34.2-19.8 34.2 19.9zm82.8-143.4v39.5l-34.2 19.7-34.2-19.8v-39.5l34.2-19.8 34.2 19.9zm-82.8 0v39.5l-34.2 19.7-34.2-19.8v-39.5l34.2-19.8 34.2 19.9zm-116.9 202.6-34.2-19.8v-39.5l34.2-19.8 34.2 19.7v39.5l-34.2 19.9zm-41.4 71.7-34.2-19.7v-39.5l34.2-19.7 34.2 19.8v39.5l-34.2 19.6zm48.5-19.8v-39.5l34.2-19.7 34.2 19.8v39.5l-34.2 19.8-34.2-19.9zm-14.3-143.3-34.2 19.8-34.2-19.7v-39.5l34.2-19.7 34.2 19.8v39.3zm82.8 0-34.2 19.8-34.2-19.7v-39.5l34.2-19.7 34.2 19.8v39.3zm-41.4-111.2v39.5l-34.2 19.7-34.2-19.8v-39.5l34.2-19.8 34.2 19.9zm-358.1-32.3V1099l34.2-19.7 34.2 19.8v39.5l-34.2 19.8-34.2-19.9zm-7.2-52-34.2-19.7v-39.5l34.2-19.7 34.2 19.7v39.5l-34.2 19.7zm7.2-91.3v-39.5l34.2-19.7 34.2 19.8v39.5l-34.2 19.8-34.2-19.9zm-7.2-52-34.2-19.7V884l34.2-19.7 34.2 19.7v39.5l-34.2 19.7zm7.2-91.4v-39.5l34.2-19.7 34.2 19.8v39.5l-34.2 19.8-34.2-19.9zm-7.2-51.9-34.2-19.7v-39.5l34.2-19.7 34.2 19.7v39.5l-34.2 19.7zm7.2-91.4V669l34.2-19.7 34.2 19.8v39.5l-34.2 19.8-34.2-19.9zm-7.2-52-34.2-19.7v-39.5l34.2-19.7 34.2 19.7v39.5l-34.2 19.7zm7.2-91.3v-39.5l34.2-19.7 34.2 19.8v39.5l-34.2 19.8-34.2-19.9zm-7.2-52-34.2-19.7V454l34.2-19.7 34.2 19.7v39.5l-34.2 19.7zm7.2-91.4v-39.5l34.2-19.7 34.2 19.8v39.5l-34.2 19.8-34.2-19.9zm-7.2-51.9-34.2-19.7v-39.5l34.2-19.7 34.2 19.7v39.5l-34.2 19.7zm7.2-91.4V239l34.2-19.7 34.2 19.8v39.5l-34.2 19.8-34.2-19.9zm-7.2-52-34.2-19.7v-39.5l34.2-19.7 34.2 19.7v39.5l-34.2 19.7zM469.6 95.6v39.5l-34.2 19.7-34.2-19.8V95.6l34.2-19.8 34.2 19.8zm-41.4 71.7v39.5L394 226.5l-34.2-19.7v-39.5l34.2-19.7 34.2 19.7zm41.4 71.7v39.5l-34.2 19.7-34.2-19.8V239l34.2-19.8 34.2 19.8zm-41.4 71.6v39.5L394 369.9l-34.2-19.7v-39.5L394 291l34.2 19.6zm41.4 71.7v39.5l-34.2 19.7-34.2-19.8v-39.5l34.2-19.8 34.2 19.9zM428.2 454v39.5L394 513.2l-34.2-19.7V454l34.2-19.7 34.2 19.7zm41.4 71.6v39.5l-34.2 19.7-34.2-19.8v-39.5l34.2-19.8 34.2 19.9zm-41.4 71.7v39.5L394 656.5l-34.2-19.7v-39.5l34.2-19.7 34.2 19.7zm41.4 71.7v39.5l-34.2 19.7-34.2-19.8V669l34.2-19.8 34.2 19.8zm-41.4 71.6v39.5L394 799.9l-34.2-19.7v-39.5L394 721l34.2 19.6zm41.4 71.7v39.5l-34.2 19.7-34.2-19.8v-39.5l34.2-19.8 34.2 19.9zM428.2 884v39.5L394 943.2l-34.2-19.7V884l34.2-19.7 34.2 19.7zm41.4 71.6v39.5l-34.2 19.7-34.2-19.8v-39.5l34.2-19.8 34.2 19.9zm-41.4 71.7v39.5l-34.2 19.8-34.2-19.7v-39.5l34.2-19.7 34.2 19.6zm41.4 71.7v39.5l-34.2 19.8-34.2-19.8V1099l34.2-19.8 34.2 19.8zm579.2-820.5-34.2 19.7-34.2-19.8V239l34.2-19.8 34.2 19.7v39.6zm0 143.3-34.2 19.7-34.2-19.8v-39.5l34.2-19.8 34.2 19.7v39.7zm0 143.4-34.2 19.7-34.2-19.8v-39.5l34.2-19.8 34.2 19.7v39.7zm0 143.3-34.2 19.7-34.2-19.8V669l34.2-19.8 34.2 19.7v39.6zm0 143.3-34.2 19.7-34.2-19.8v-39.5l34.2-19.8 34.2 19.7v39.7zm0 143.4-34.2 19.7-34.2-19.8v-39.5l34.2-19.8 34.2 19.7v39.7zm0 143.3-34.2 19.7-34.2-19.8V1099l34.2-19.8 34.2 19.7v39.6zm7.2-52-34.2-19.7v-39.5l34.2-19.7 34.2 19.7v39.5l-34.2 19.7zm0-143.3-34.2-19.7V884l34.2-19.7 34.2 19.7v39.5l-34.2 19.7zm0-143.3-34.2-19.7v-39.5L1056 721l34.2 19.7v39.5l-34.2 19.7zm0-143.4-34.2-19.7v-39.5l34.2-19.7 34.2 19.7v39.5l-34.2 19.7zm0-143.3-34.2-19.7V454l34.2-19.7 34.2 19.7v39.5l-34.2 19.7zm0-143.3-34.2-19.7v-39.5L1056 291l34.2 19.7v39.5l-34.2 19.7zm0-143.4-34.2-19.7v-39.5l34.2-19.7 34.2 19.7v39.5l-34.2 19.7zM483.9 955.6l34.2-19.8 34.2 19.7V995l-34.2 19.7-34.2-19.8v-39.3zm0-143.3 34.2-19.8 34.2 19.7v39.5l-34.2 19.7-34.2-19.8v-39.3zM442.5 884l34.2-19.7L511 884v39.5l-34.2 19.8-34.2-19.7V884zm41.4-215 34.2-19.8 34.2 19.7v39.5l-34.2 19.7-34.2-19.8V669zm-41.4 71.6 34.2-19.7 34.2 19.8v39.5L476.7 800l-34.2-19.7v-39.7zm41.4 358.4 34.2-19.8 34.2 19.7v39.5l-34.2 19.8-34.2-19.8V1099zm-41.4-71.7 34.2-19.7 34.2 19.8v39.5l-34.2 19.8-34.2-19.7v-39.7zm41.4-501.7 34.2-19.8 34.2 19.7V565l-34.2 19.7-34.2-19.8v-39.3zm-41.4 71.7 34.2-19.7 34.2 19.8v39.5l-34.2 19.8-34.2-19.7v-39.7zm41.4-215 34.2-19.8 34.2 19.7v39.5l-34.2 19.7-34.2-19.8v-39.3zM442.5 454l34.2-19.7L511 454v39.5l-34.2 19.8-34.2-19.7V454zm41.4-215 34.2-19.8 34.2 19.7v39.5l-34.2 19.7-34.2-19.8V239zm-41.4 71.6 34.2-19.7 34.2 19.8v39.5L476.7 370l-34.2-19.7v-39.7zm0-143.3 34.2-19.7 34.2 19.8v39.5l-34.2 19.8-34.2-19.7v-39.7zm530.8-19.8 34.2 19.8v39.5l-34.2 19.8-34.2-19.7v-39.5l34.2-19.9zm-7.2 131-34.2 19.7-34.2-19.8V239l34.2-19.8 34.2 19.7v39.6zm7.2 12.4 34.2 19.8v39.5L973.3 370l-34.2-19.7v-39.5l34.2-19.9zm-7.2 130.9-34.2 19.7-34.2-19.8v-39.5l34.2-19.8 34.2 19.7v39.7zm7.2 12.4 34.2 19.8v39.5l-34.2 19.8-34.2-19.7V454l34.2-19.8zm-7.2 130.9-34.2 19.7-34.2-19.8v-39.5l34.2-19.8 34.2 19.7v39.7zm7.2 12.4 34.2 19.8v39.5l-34.2 19.8-34.2-19.7v-39.5l34.2-19.9zm-7.2 131-34.2 19.7-34.2-19.8V669l34.2-19.8 34.2 19.7v39.6zm7.2 12.4 34.2 19.8v39.5L973.3 800l-34.2-19.7v-39.5l34.2-19.9zm-7.2 130.9-34.2 19.7-34.2-19.8v-39.5l34.2-19.8 34.2 19.7v39.7zm7.2 12.4 34.2 19.8v39.5l-34.2 19.8-34.2-19.7V884l34.2-19.8zm-7.2 130.9-34.2 19.7-34.2-19.8v-39.5l34.2-19.8 34.2 19.7v39.7zm7.2 12.5 34.2 19.8v39.5l-34.2 19.8-34.2-19.7v-39.5l34.2-19.9zm-7.2 130.9-34.2 19.8-34.2-19.8V1099l34.2-19.8 34.2 19.7v39.6zm-117-59.3 34.2 19.7v39.5l-34.2 19.8-34.2-19.8V1099l34.2-19.8zm-34.2-84.1v-39.5l34.2-19.8 34.2 19.7V995l-34.2 19.7-34.2-19.6zm-7.1 12.5 34.2 19.8v39.5l-34.2 19.8-34.2-19.7v-39.5l34.2-19.9zm48.5 19.7 34.2-19.7 34.2 19.8v39.5l-34.2 19.8-34.2-19.7v-39.7zm-41.4-175.5v-39.5l34.2-19.8 34.2 19.7v39.5l-34.2 19.7-34.2-19.6zm-7.1 12.4L842 884v39.5l-34.2 19.8-34.2-19.7V884l34.2-19.8zm48.5 19.8 34.2-19.7 34.2 19.8v39.5l-34.2 19.8-34.2-19.7V884zm-41.4-175.5V669l34.2-19.8 34.2 19.7v39.5l-34.2 19.7-34.2-19.6zm-7.1 12.4 34.2 19.8v39.5L807.8 800l-34.2-19.7v-39.5l34.2-19.9zm48.5 19.7 34.2-19.7 34.2 19.8v39.5L890.5 800l-34.2-19.7v-39.7zm-41.4-175.5v-39.5l34.2-19.8 34.2 19.7V565l-34.2 19.7-34.2-19.6zm-7.1 12.4 34.2 19.8v39.5l-34.2 19.8-34.2-19.7v-39.5l34.2-19.9zm48.5 19.8 34.2-19.7 34.2 19.8v39.5l-34.2 19.8-34.2-19.7v-39.7zM842 454v39.5l-34.2 19.8-34.2-19.7V454l34.2-19.7L842 454zm-27.1-32.2v-39.5l34.2-19.8 34.2 19.7v39.5l-34.2 19.7-34.2-19.6zm41.4 32.2 34.2-19.7 34.2 19.8v39.5l-34.2 19.8-34.2-19.7V454zm-41.4-175.6V239l34.2-19.8 34.2 19.7v39.5l-34.2 19.7-34.2-19.7zm-7.1 12.5 34.2 19.8v39.5L807.8 370l-34.2-19.7v-39.5l34.2-19.9zm48.5 19.7 34.2-19.7 34.2 19.8v39.5L890.5 370l-34.2-19.7v-39.7zm-48.5-163.1 34.2 19.8v39.5l-34.2 19.8-34.2-19.7v-39.5l34.2-19.9zm48.5 19.8 34.2-19.7 34.2 19.8v39.5l-34.2 19.8-34.2-19.7v-39.7zM725 1086.6l-34.2-19.7v-39.5l34.2-19.7 34.2 19.8v39.5l-34.2 19.6zm7.2 51.9V1099l34.2-19.8 34.2 19.7v39.5l-34.2 19.8-34.2-19.7zm-14.4 0-34.2 19.8-34.2-19.8V1099l34.2-19.8 34.2 19.7v39.6zM525.3 884l34.2-19.7 34.2 19.8v39.5l-34.2 19.8-34.2-19.7V884zM725 943.2l-34.2-19.7V884l34.2-19.7 34.2 19.8v39.5L725 943.2zm41.4 71.7-34.2-19.8v-39.5l34.2-19.8 34.2 19.7V995l-34.2 19.9zm-48.6-19.8-34.2 19.7-34.2-19.8v-39.5l34.2-19.8 34.2 19.7v39.7zM525.3 740.6l34.2-19.7 34.2 19.8v39.5L559.5 800l-34.2-19.7v-39.7zm75.6 52 34.2 19.7v39.5l-34.2 19.7-34.2-19.8v-39.5l34.2-19.6zm-34.2-84.1V669l34.2-19.8 34.2 19.7v39.5l-34.2 19.7-34.2-19.6zm41.4 32.1 34.2-19.7 34.2 19.8v39.5L642.3 800l-34.2-19.7v-39.7zm-82.8 286.7 34.2-19.7 34.2 19.8v39.5l-34.2 19.8-34.2-19.7v-39.7zm41.4 71.7 34.2-19.8 34.2 19.7v39.5l-34.2 19.8-34.2-19.8V1099zm0-103.9v-39.5l34.2-19.8 34.2 19.7V995l-34.2 19.7-34.2-19.6zm41.4 32.2 34.2-19.7 34.2 19.8v39.5l-34.2 19.8-34.2-19.7v-39.7zm0-143.3 34.2-19.7 34.2 19.8v39.5l-34.2 19.8-34.2-19.7V884zM725 799.9l-34.2-19.7v-39.5L725 721l34.2 19.8v39.5L725 799.9zm41.4 71.6-34.2-19.8v-39.5l34.2-19.8 34.2 19.7v39.5l-34.2 19.9zm-48.6-19.7-34.2 19.7-34.2-19.8v-39.5l34.2-19.8 34.2 19.7v39.7zM525.3 597.3l34.2-19.7 34.2 19.8v39.5l-34.2 19.8-34.2-19.7v-39.7zm41.4-32.2v-39.5l34.2-19.8 34.2 19.7V565l-34.2 19.7-34.2-19.6zm41.4 32.2 34.2-19.7 34.2 19.8v39.5l-34.2 19.8-34.2-19.7v-39.7zM725 656.5l-34.2-19.7v-39.5l34.2-19.7 34.2 19.8v39.5L725 656.5zm41.4 71.7-34.2-19.8V669l34.2-19.8 34.2 19.7v39.5l-34.2 19.8zm-48.6-19.7-34.2 19.7-34.2-19.8V669l34.2-19.8 34.2 19.7v39.6zM525.3 454l34.2-19.7 34.2 19.8v39.5l-34.2 19.8-34.2-19.7V454zm41.4-32.2v-39.5l34.2-19.8 34.2 19.7v39.5l-34.2 19.7-34.2-19.6zm41.4 32.2 34.2-19.7 34.2 19.8v39.5l-34.2 19.8-34.2-19.7V454zM725 513.2l-34.2-19.7V454l34.2-19.7 34.2 19.8v39.5L725 513.2zm41.4 71.7-34.2-19.8v-39.5l34.2-19.8 34.2 19.7V565l-34.2 19.9zm-48.6-19.8-34.2 19.7-34.2-19.8v-39.5l34.2-19.8 34.2 19.7v39.7zM525.3 310.6l34.2-19.7 34.2 19.8v39.5L559.5 370l-34.2-19.7v-39.7zm41.4-32.2V239l34.2-19.8 34.2 19.7v39.5l-34.2 19.7-34.2-19.7zm41.4 32.2 34.2-19.7 34.2 19.8v39.5L642.3 370l-34.2-19.7v-39.7zM725 369.9l-34.2-19.7v-39.5L725 291l34.2 19.8v39.5L725 369.9zm41.4 71.6-34.2-19.8v-39.5l34.2-19.8 34.2 19.7v39.5l-34.2 19.9zm-48.6-19.7-34.2 19.7-34.2-19.8v-39.5l34.2-19.8 34.2 19.7v39.7zM525.3 167.3l34.2-19.7 34.2 19.8v39.5l-34.2 19.8-34.2-19.7v-39.7zm82.8 0 34.2-19.7 34.2 19.8v39.5l-34.2 19.8-34.2-19.7v-39.7zM725 226.5l-34.2-19.7v-39.5l34.2-19.7 34.2 19.8v39.5L725 226.5zm41.4 71.7-34.2-19.8V239l34.2-19.8 34.2 19.7v39.5l-34.2 19.8zm-48.6-19.7-34.2 19.7-34.2-19.8V239l34.2-19.8 34.2 19.7v39.6zM442.5 2213.7v-39.5l34.2-19.7 34.2 19.8v39.5l-34.2 19.8-34.2-19.9zm41.4-71.7v-39.5l34.2-19.8 34.2 19.7v39.5l-34.2 19.7-34.2-19.6zm-41.4-71.6v-39.5l34.2-19.7 34.2 19.8v39.5l-34.2 19.8-34.2-19.9zm41.4-71.7v-39.5l34.2-19.8 34.2 19.7v39.5l-34.2 19.7-34.2-19.6zm-41.4-71.7v-39.5l34.2-19.7 34.2 19.8v39.5l-34.2 19.8-34.2-19.9zm41.4-71.7v-39.5l34.2-19.8 34.2 19.7v39.5l-34.2 19.7-34.2-19.6zm-41.4-71.6v-39.5l34.2-19.7 34.2 19.8v39.5l-34.2 19.8-34.2-19.9zm41.4-71.7v-39.5l34.2-19.8 34.2 19.7v39.5l-34.2 19.7-34.2-19.6zm-41.4-71.7v-39.5l34.2-19.7 34.2 19.8v39.5l-34.2 19.8-34.2-19.9zm41.4-71.6v-39.5l34.2-19.8 34.2 19.7v39.5l-34.2 19.7-34.2-19.6zm-41.4-71.7v-39.5l34.2-19.7 34.2 19.8v39.5l-34.2 19.8-34.2-19.9zm41.4-71.7v-39.5l34.2-19.8 34.2 19.7v39.5l-34.2 19.7-34.2-19.6zm-41.4-71.6v-39.5l34.2-19.7 34.2 19.8v39.5l-34.2 19.8-34.2-19.9zm41.4-71.7v-39.5l34.2-19.8 34.2 19.7v39.5l-34.2 19.7-34.2-19.6zm-41.4-71.7v-39.5l34.2-19.8 34.2 19.8v39.5l-34.2 19.8-34.2-19.8zM428.2 1927l-34.2 19.8-34.2-19.7v-39.5l34.2-19.7 34.2 19.8v39.3zm0-143.3-34.2 19.8-34.2-19.7v-39.5l34.2-19.7 34.2 19.8v39.3zm0-143.4-34.2 19.8-34.2-19.7v-39.5l34.2-19.7 34.2 19.8v39.3zm0-143.3-34.2 19.8-34.2-19.7v-39.5l34.2-19.7 34.2 19.8v39.3zm0-143.3-34.2 19.8-34.2-19.7v-39.5l34.2-19.7 34.2 19.8v39.3zm0-143.4-34.2 19.8-34.2-19.7v-39.5l34.2-19.8 34.2 19.8v39.4zm41.4 931.7-34.2 19.7-34.2-19.8v-39.5l34.2-19.8 34.2 19.7v39.7zm0-143.3-34.2 19.7-34.2-19.8v-39.5l34.2-19.8 34.2 19.7v39.7zm0-143.3-34.2 19.7-34.2-19.8v-39.5l34.2-19.8 34.2 19.7v39.7zm0-143.4-34.2 19.7-34.2-19.8v-39.5l34.2-19.8 34.2 19.7v39.7zm0-143.3-34.2 19.7-34.2-19.8v-39.5l34.2-19.8 34.2 19.7v39.7zm0-143.4-34.2 19.7-34.2-19.8v-39.5l34.2-19.8 34.2 19.7v39.7zm0-143.3-34.2 19.7-34.2-19.8v-39.5l34.2-19.8 34.2 19.7v39.7zm-117-59.2 34.2 19.7v39.5l-34.2 19.7-34.2-19.8v-39.5l34.2-19.6zm0 143.3 34.2 19.7v39.5l-34.2 19.7-34.2-19.8v-39.5l34.2-19.6zm0 143.3 34.2 19.7v39.5l-34.2 19.7-34.2-19.8V1529l34.2-19.6zm0 143.4 34.2 19.7v39.5l-34.2 19.7-34.2-19.8v-39.5l34.2-19.6zm0 143.3 34.2 19.7v39.5l-34.2 19.7-34.2-19.8v-39.5l34.2-19.6zm-41.4-501.7 34.2 19.8v39.5l-34.2 19.8-34.2-19.7v-39.5l34.2-19.9zm-7.1 130.9-34.2 19.7-34.2-19.8v-39.5l34.2-19.8 34.2 19.7v39.7zm7.1 12.5 34.2 19.8v39.5l-34.2 19.8L277 1497v-39.5l34.2-19.7zm0 143.3 34.2 19.8v39.5l-34.2 19.8-34.2-19.7V1601l34.2-19.9zm-7.1-299.1-34.2 19.7-34.2-19.8v-39.5l34.2-19.8 34.2 19.7v39.7zm41.4-111.2v39.5l-34.2 19.8-34.2-19.7v-39.5l34.2-19.8 34.2 19.7zm7.1-1094.9 34.2 19.7v39.5l-34.2 19.7-34.2-19.8V95.6l34.2-19.7zm0 143.3 34.2 19.7v39.5l-34.2 19.7-34.2-19.8V239l34.2-19.8zm0 143.3 34.2 19.7v39.5l-34.2 19.7-34.2-19.8v-39.5l34.2-19.6zm0 143.4 34.2 19.7v39.5l-34.2 19.7-34.2-19.8v-39.5l34.2-19.6zm0 143.3 34.2 19.7v39.5l-34.2 19.7-34.2-19.8V669l34.2-19.8zm0 143.4 34.2 19.7v39.5l-34.2 19.7-34.2-19.8v-39.5l34.2-19.6zm0 143.3 34.2 19.7v39.5l-34.2 19.7-34.2-19.8v-39.5l34.2-19.6zm0 143.3 34.2 19.7v39.5l-34.2 19.8-34.2-19.8V1099l34.2-19.8zm-41.4-931.7 34.2 19.8v39.5l-34.2 19.8-34.2-19.8v-39.5l34.2-19.8zm-7.1 131-34.2 19.7-34.2-19.8V239l34.2-19.8 34.2 19.7v39.6zm7.1 12.4 34.2 19.8v39.5L311.2 370 277 350.1v-39.5l34.2-19.7zm-7.1 130.9-34.2 19.7-34.2-19.8v-39.5l34.2-19.8 34.2 19.7v39.7zm7.1 12.4 34.2 19.8v39.5l-34.2 19.8-34.2-19.8V454l34.2-19.8zm-7.1 130.9-34.2 19.7-34.2-19.8v-39.5l34.2-19.8 34.2 19.7v39.7zm7.1 12.4 34.2 19.8v39.5l-34.2 19.8-34.2-19.8v-39.5l34.2-19.8zm-7.1 131-34.2 19.7-34.2-19.8V669l34.2-19.8 34.2 19.7v39.6zm7.1 12.4 34.2 19.8v39.5L311.2 800 277 780.1v-39.5l34.2-19.7zm-7.1 130.9-34.2 19.7-34.2-19.8v-39.5l34.2-19.8 34.2 19.7v39.7zm7.1 12.4 34.2 19.8v39.5l-34.2 19.8-34.2-19.8V884l34.2-19.8zm-7.1 130.9-34.2 19.7-34.2-19.8v-39.5l34.2-19.8 34.2 19.7v39.7zm7.1 12.5 34.2 19.8v39.5l-34.2 19.8L277 1067v-39.5l34.2-19.9zm-7.1 130.9-34.2 19.8-34.2-19.8V1099l34.2-19.8 34.2 19.7v39.6zm0-1003.4-34.2 19.7-34.2-19.8V95.6l34.2-19.8 34.2 19.7v39.6zm-109.8 892.2 34.2-19.7 34.2 19.8v39.5l-34.2 19.8-34.2-19.7v-39.7zm-41.4-175.5v-39.5l34.2-19.8 34.2 19.7v39.5l-34.2 19.7-34.2-19.6zm41.4 32.2 34.2-19.7 34.2 19.8v39.5l-34.2 19.8-34.2-19.7V884zm-41.4-175.5V669l34.2-19.8 34.2 19.7v39.5l-34.2 19.7-34.2-19.6zm41.4 32.1 34.2-19.7 34.2 19.8v39.5L228.5 800l-34.2-19.7v-39.7zm-41.4-175.5v-39.5l34.2-19.8 34.2 19.7V565l-34.2 19.7-34.2-19.6zm41.4 32.2 34.2-19.7 34.2 19.8v39.5l-34.2 19.8-34.2-19.7v-39.7zM179.9 454v39.5l-34.2 19.8-34.2-19.7V454l34.2-19.7 34.2 19.7zm-27-32.2v-39.5l34.2-19.8 34.2 19.7v39.5l-34.2 19.7-34.2-19.6zm41.4 32.2 34.2-19.7 34.2 19.8v39.5l-34.2 19.8-34.2-19.7V454zm-41.4-175.6V239l34.2-19.8 34.2 19.7v39.5l-34.2 19.7-34.2-19.7zm-7.2 12.5 34.2 19.8v39.5L145.7 370l-34.2-19.7v-39.5l34.2-19.9zm48.6 19.7 34.2-19.7 34.2 19.8v39.5L228.5 370l-34.2-19.7v-39.7zm-41.4-175.5V95.6l34.2-19.8 34.2 19.7V135l-34.2 19.7-34.2-19.6zm-7.2 12.4 34.2 19.8v39.5l-34.2 19.8-34.2-19.7v-39.5l34.2-19.9zm48.6 19.8 34.2-19.7 34.2 19.8v39.5l-34.2 19.8-34.2-19.7v-39.7zM70.1 135.1V95.6l34.2-19.8 34.2 19.7V135l-34.2 19.7-34.2-19.6zm903.2 1159.3 34.2 19.8v39.5l-34.2 19.8-34.2-19.7v-39.5l34.2-19.9zm-7.2 130.9-34.2 19.7-34.2-19.8v-39.5l34.2-19.8 34.2 19.7v39.7zm7.2 12.5 34.2 19.8v39.5l-34.2 19.8-34.2-19.7v-39.5l34.2-19.9zm-7.2 130.9-34.2 19.7-34.2-19.8v-39.5l34.2-19.8 34.2 19.7v39.7zm7.2 12.4 34.2 19.8v39.5l-34.2 19.8-34.2-19.7V1601l34.2-19.9zm-7.2 130.9-34.2 19.7-34.2-19.8v-39.5l34.2-19.8 34.2 19.7v39.7zm7.2 12.4 34.2 19.8v39.5l-34.2 19.8-34.2-19.7v-39.5l34.2-19.9zm-7.2 131-34.2 19.7-34.2-19.8v-39.5l34.2-19.8 34.2 19.7v39.7zm7.2 12.4 34.2 19.8v39.5l-34.2 19.8-34.2-19.7v-39.5l34.2-19.9zm-7.2 130.9-34.2 19.7-34.2-19.8v-39.5l34.2-19.8 34.2 19.7v39.7zm7.2 12.4 34.2 19.8v39.5l-34.2 19.8-34.2-19.7V2031l34.2-19.9zm-7.2 130.9-34.2 19.7-34.2-19.8v-39.5l34.2-19.8 34.2 19.7v39.7zm7.2 12.4 34.2 19.8v39.5l-34.2 19.8-34.2-19.7v-39.5l34.2-19.9zm-7.2-872.4-34.2 19.7-34.2-19.8v-39.5l34.2-19.8 34.2 19.7v39.7zm41.4-111.2v39.5l-34.2 19.8-34.2-19.7v-39.5l34.2-19.8 34.2 19.7zM814.9 2142v-39.5l34.2-19.8 34.2 19.7v39.5l-34.2 19.7-34.2-19.6zm-7.1 12.4 34.2 19.8v39.5l-34.2 19.8-34.2-19.7v-39.5l34.2-19.9zm48.5 19.8 34.2-19.7 34.2 19.8v39.5l-34.2 19.8-34.2-19.7v-39.7zm-41.4-175.5v-39.5l34.2-19.8 34.2 19.7v39.5l-34.2 19.7-34.2-19.6zm-7.1 12.4 34.2 19.8v39.5l-34.2 19.8-34.2-19.7V2031l34.2-19.9zm48.5 19.8 34.2-19.7 34.2 19.8v39.5l-34.2 19.8-34.2-19.7v-39.7zm-41.4-175.6v-39.5l34.2-19.8 34.2 19.7v39.5l-34.2 19.7-34.2-19.6zm-7.1 12.5 34.2 19.8v39.5l-34.2 19.8-34.2-19.7v-39.5l34.2-19.9zm48.5 19.7 34.2-19.7 34.2 19.8v39.5l-34.2 19.8-34.2-19.7v-39.7zM814.9 1712v-39.5l34.2-19.8 34.2 19.7v39.5l-34.2 19.7-34.2-19.6zm-7.1 12.4 34.2 19.8v39.5l-34.2 19.8-34.2-19.7v-39.5l34.2-19.9zm48.5 19.8 34.2-19.7 34.2 19.8v39.5l-34.2 19.8-34.2-19.7v-39.7zM842 1600.9v39.5l-34.2 19.8-34.2-19.7V1601l34.2-19.7 34.2 19.6zm-27.1-32.2v-39.5l34.2-19.8 34.2 19.7v39.5l-34.2 19.7-34.2-19.6zm41.4 32.1 34.2-19.7 34.2 19.8v39.5l-34.2 19.8-34.2-19.7v-39.7zm-41.4-175.5v-39.5l34.2-19.8 34.2 19.7v39.5l-34.2 19.7-34.2-19.6zm-7.1 12.5 34.2 19.8v39.5l-34.2 19.8-34.2-19.7v-39.5l34.2-19.9zm48.5 19.7 34.2-19.7 34.2 19.8v39.5l-34.2 19.8-34.2-19.7v-39.7zM814.9 1282v-39.5l34.2-19.8 34.2 19.7v39.5l-34.2 19.7-34.2-19.6zm-7.1 12.4 34.2 19.8v39.5l-34.2 19.8-34.2-19.7v-39.5l34.2-19.9zm48.5 19.8 34.2-19.7 34.2 19.8v39.5l-34.2 19.8-34.2-19.7v-39.7zM842 1170.8v39.5l-34.2 19.8-34.2-19.7v-39.5l34.2-19.8 34.2 19.7zm14.3 0 34.2-19.8 34.2 19.8v39.5l-34.2 19.8-34.2-19.7v-39.6zM725 2233.4l-34.2-19.7v-39.5l34.2-19.7 34.2 19.8v39.5l-34.2 19.6zm-199.7-202.5 34.2-19.7 34.2 19.8v39.5l-34.2 19.8-34.2-19.7v-39.7zm199.7 59.2-34.2-19.7v-39.5l34.2-19.7 34.2 19.8v39.5l-34.2 19.6zm41.4 71.7-34.2-19.8v-39.5l34.2-19.8 34.2 19.7v39.5l-34.2 19.9zm-48.6-19.8-34.2 19.7-34.2-19.8v-39.5l34.2-19.8 34.2 19.7v39.7zm-192.5-254.5 34.2-19.7 34.2 19.8v39.5l-34.2 19.8-34.2-19.7v-39.7zm75.6 51.9 34.2 19.7v39.5l-34.2 19.7-34.2-19.8V1959l34.2-19.6zm-34.2-84.1v-39.5l34.2-19.8 34.2 19.7v39.5l-34.2 19.7-34.2-19.6zm41.4 32.2 34.2-19.7 34.2 19.8v39.5l-34.2 19.8-34.2-19.7v-39.7zm-82.8 286.7 34.2-19.7 34.2 19.8v39.5l-34.2 19.8-34.2-19.7v-39.7zm41.4-32.2v-39.5l34.2-19.8 34.2 19.7v39.5l-34.2 19.7-34.2-19.6zm41.4 32.2 34.2-19.7 34.2 19.8v39.5l-34.2 19.8-34.2-19.7v-39.7zm0-143.3 34.2-19.7 34.2 19.8v39.5l-34.2 19.8-34.2-19.7v-39.7zm116.9-84.1-34.2-19.7v-39.5l34.2-19.7 34.2 19.8v39.5l-34.2 19.6zm41.4 71.6-34.2-19.8v-39.5l34.2-19.8 34.2 19.7v39.5l-34.2 19.9zm-48.6-19.7-34.2 19.7-34.2-19.8v-39.5l34.2-19.8 34.2 19.7v39.7zm-192.5-254.5 34.2-19.7 34.2 19.8v39.5l-34.2 19.8-34.2-19.7v-39.7zm41.4-32.2v-39.5l34.2-19.8 34.2 19.7v39.5l-34.2 19.7-34.2-19.6zm41.4 32.2 34.2-19.7 34.2 19.8v39.5l-34.2 19.8-34.2-19.7v-39.7zm116.9 59.2-34.2-19.7v-39.5l34.2-19.7 34.2 19.8v39.5l-34.2 19.6zm41.4 71.7-34.2-19.8v-39.5l34.2-19.8 34.2 19.7v39.5l-34.2 19.9zm-48.6-19.7-34.2 19.7-34.2-19.8v-39.5l34.2-19.8 34.2 19.7v39.7zm-192.5-254.6 34.2-19.7 34.2 19.8v39.5l-34.2 19.8-34.2-19.7v-39.7zm41.4-32.1v-39.5l34.2-19.8 34.2 19.7v39.5l-34.2 19.7-34.2-19.6zm41.4 32.1 34.2-19.7 34.2 19.8v39.5l-34.2 19.8-34.2-19.7v-39.7zm116.9 59.3-34.2-19.7v-39.5l34.2-19.7 34.2 19.8v39.5l-34.2 19.6zm41.4 71.7-34.2-19.8v-39.5l34.2-19.8 34.2 19.7v39.5l-34.2 19.9zm-48.6-19.8-34.2 19.7-34.2-19.8v-39.5l34.2-19.8 34.2 19.7v39.7zm-192.5-254.5 34.2-19.7 34.2 19.8v39.5l-34.2 19.8-34.2-19.7v-39.7zm41.4-32.2v-39.5l34.2-19.8 34.2 19.7v39.5l-34.2 19.7-34.2-19.6zm41.4 32.2 34.2-19.7 34.2 19.8v39.5l-34.2 19.8-34.2-19.7v-39.7zm116.9 59.3-34.2-19.7v-39.5l34.2-19.7 34.2 19.8v39.5l-34.2 19.6zm41.4 71.6-34.2-19.8v-39.5l34.2-19.8 34.2 19.7v39.5l-34.2 19.9zm-48.6-19.7-34.2 19.7-34.2-19.8v-39.5l34.2-19.8 34.2 19.7v39.7zm-192.5-254.5 34.2-19.7 34.2 19.8v39.5l-34.2 19.8-34.2-19.7v-39.7zm41.4-32.2v-39.5l34.2-19.8 34.2 19.7v39.5l-34.2 19.7-34.2-19.6zm41.4 32.2 34.2-19.7 34.2 19.8v39.5l-34.2 19.8-34.2-19.7v-39.7zm-82.8-143.4 34.2-19.8 34.2 19.8v39.5l-34.2 19.8-34.2-19.7v-39.6zm82.8 0 34.2-19.8 34.2 19.8v39.5l-34.2 19.8-34.2-19.7v-39.6zM725 1373.4l-34.2-19.7v-39.5l34.2-19.7 34.2 19.8v39.5l-34.2 19.6zm41.4 71.7-34.2-19.8v-39.5l34.2-19.8 34.2 19.7v39.5l-34.2 19.9zm-48.6-19.8-34.2 19.7-34.2-19.8v-39.5l34.2-19.8 34.2 19.7v39.7zm14.4-143.3v-39.5l34.2-19.8 34.2 19.7v39.5l-34.2 19.7-34.2-19.6zm-82.8 0v-39.5l34.2-19.8 34.2 19.7v39.5l-34.2 19.7-34.2-19.6zm41.4-111.2L725 1151l34.2 19.8v39.5l-34.2 19.8-34.2-19.7v-39.6zm530.7-1023.3 34.2 19.7v39.5l-34.2 19.7-34.2-19.8v-39.5l34.2-19.6zm7.2 131V239l34.2-19.7 34.2 19.8v39.5l-34.2 19.8-34.2-19.9zm-7.2 12.4 34.2 19.7v39.5l-34.2 19.7-34.2-19.8v-39.5l34.2-19.6zm7.2 130.9v-39.5l34.2-19.7 34.2 19.8v39.5l-34.2 19.8-34.2-19.9zm-7.2 12.4 34.2 19.7v39.5l-34.2 19.7-34.2-19.8V454l34.2-19.8zm7.2 130.9v-39.5l34.2-19.7 34.2 19.8v39.5l-34.2 19.8-34.2-19.9zm-7.2 12.4 34.2 19.7v39.5l-34.2 19.7-34.2-19.8v-39.5l34.2-19.6zm7.2 131V669l34.2-19.7 34.2 19.8v39.5l-34.2 19.8-34.2-19.9zm-7.2 12.4 34.2 19.7v39.5l-34.2 19.7-34.2-19.8v-39.5l34.2-19.6zm7.2 130.9v-39.5l34.2-19.7 34.2 19.8v39.5l-34.2 19.8-34.2-19.9zm-7.2 12.4 34.2 19.7v39.5l-34.2 19.7-34.2-19.8V884l34.2-19.8zm7.2 130.9v-39.5l34.2-19.7 34.2 19.8v39.5l-34.2 19.8-34.2-19.9zm-7.2 12.5 34.2 19.7v39.5l-34.2 19.7-34.2-19.8v-39.5l34.2-19.6zm7.2 130.9V1099l34.2-19.7 34.2 19.8v39.5l-34.2 19.8-34.2-19.9zm116.9-59.3 34.2 19.8v39.5l-34.2 19.8-34.2-19.8V1099l34.2-19.8zm34.2-84.1-34.2 19.8-34.2-19.7v-39.5l34.2-19.7 34.2 19.8v39.3zm7.2 12.5 34.2 19.7v39.5l-34.2 19.7-34.2-19.8v-39.5l34.2-19.6zm-48.6 19.7v39.5l-34.2 19.7-34.2-19.8v-39.5l34.2-19.8 34.2 19.9zm41.4-175.5-34.2 19.8-34.2-19.7v-39.5l34.2-19.7 34.2 19.8v39.3zm7.2 12.4 34.2 19.7v39.5l-34.2 19.7-34.2-19.8V884l34.2-19.8zm-48.6 19.8v39.5l-34.2 19.7-34.2-19.8V884l34.2-19.8 34.2 19.8zm41.4-175.5-34.2 19.8-34.2-19.7V669l34.2-19.7 34.2 19.8v39.4zm7.2 12.4 34.2 19.7v39.5l-34.2 19.7-34.2-19.8v-39.5l34.2-19.6zm-48.6 19.7v39.5l-34.2 19.7L1270 780v-39.5l34.2-19.8 34.2 19.9zm41.4-175.5-34.2 19.8-34.2-19.7v-39.5l34.2-19.7 34.2 19.8v39.3zm7.2 12.4 34.2 19.7v39.5l-34.2 19.7-34.2-19.8v-39.5l34.2-19.6zm-48.6 19.8v39.5l-34.2 19.7-34.2-19.8v-39.5l34.2-19.8 34.2 19.9zm14.4-143.3 34.2-19.8 34.2 19.7v39.5l-34.2 19.7-34.2-19.8V454zm27-32.2-34.2 19.8-34.2-19.7v-39.5l34.2-19.7 34.2 19.8v39.3zm-41.4 32.2v39.5l-34.2 19.7-34.2-19.8V454l34.2-19.8 34.2 19.8zm41.4-175.6-34.2 19.8-34.2-19.7V239l34.2-19.7 34.2 19.8v39.3zm7.2 12.5 34.2 19.7v39.5l-34.2 19.7-34.2-19.8v-39.5l34.2-19.6zm-48.6 19.7v39.5l-34.2 19.7L1270 350v-39.5l34.2-19.8 34.2 19.9zm48.6-163.1 34.2 19.7v39.5l-34.2 19.7-34.2-19.8v-39.5l34.2-19.6zm-48.6 19.8v39.5l-34.2 19.7-34.2-19.8v-39.5l34.2-19.8 34.2 19.9zm131.4 919.3-34.2-19.8v-39.5l34.2-19.8 34.2 19.7v39.5l-34.2 19.9zm-7.2 51.9-34.2 19.8-34.2-19.8V1099l34.2-19.7 34.2 19.8v39.4zm14.3 0V1099l34.2-19.7 34.2 19.8v39.5l-34.2 19.8-34.2-19.9zM1669.5 884v39.5l-34.2 19.7-34.2-19.8V884l34.2-19.8 34.2 19.8zm-199.7 59.2-34.2-19.8V884l34.2-19.8L1504 884v39.5l-34.2 19.7zm-41.4 71.7-34.2-19.7v-39.5l34.2-19.7 34.2 19.8v39.5l-34.2 19.6zm48.5-19.8v-39.5l34.2-19.7 34.2 19.8v39.5l-34.2 19.8-34.2-19.9zm192.6-254.5v39.5l-34.2 19.7-34.2-19.8v-39.5l34.2-19.8 34.2 19.9zm-75.6 52 34.2 19.8v39.5l-34.2 19.8-34.2-19.7v-39.5l34.2-19.9zm34.2-84.1-34.2 19.8-34.2-19.7V669l34.2-19.7 34.2 19.8v39.4zm-41.4 32.1v39.5l-34.2 19.7-34.2-19.8v-39.5l34.2-19.8 34.2 19.9zm82.8 286.7v39.5l-34.2 19.7-34.2-19.8v-39.5l34.2-19.8 34.2 19.9zm-41.4 71.7v39.5l-34.2 19.8-34.2-19.8V1099l34.2-19.7 34.2 19.7zm0-103.9-34.2 19.8-34.2-19.7v-39.5l34.2-19.7 34.2 19.8v39.3zm-41.4 32.2v39.5l-34.2 19.7-34.2-19.8v-39.5l34.2-19.8 34.2 19.9zm0-143.3v39.5l-34.2 19.7-34.2-19.8V884l34.2-19.8 34.2 19.8zm-116.9-84.1-34.2-19.8v-39.5l34.2-19.8 34.2 19.7V780l-34.2 19.9zm-41.4 71.6-34.2-19.7v-39.5l34.2-19.7 34.2 19.8v39.5l-34.2 19.6zm48.5-19.7v-39.5l34.2-19.7 34.2 19.8v39.5l-34.2 19.8-34.2-19.9zm192.6-254.5v39.5l-34.2 19.7-34.2-19.8v-39.5l34.2-19.8 34.2 19.9zm-41.4-32.2-34.2 19.8-34.2-19.7v-39.5l34.2-19.7 34.2 19.8v39.3zm-41.4 32.2v39.5l-34.2 19.7-34.2-19.8v-39.5l34.2-19.8 34.2 19.9zm-116.9 59.2-34.2-19.8v-39.5l34.2-19.8 34.2 19.7v39.5l-34.2 19.9zm-41.4 71.7-34.2-19.7V669l34.2-19.7 34.2 19.8v39.5l-34.2 19.6zm48.5-19.7V669l34.2-19.7 34.2 19.8v39.5l-34.2 19.8-34.2-19.9zM1669.5 454v39.5l-34.2 19.7-34.2-19.8V454l34.2-19.8 34.2 19.8zm-41.4-32.2-34.2 19.8-34.2-19.7v-39.5l34.2-19.7 34.2 19.8v39.3zm-41.4 32.2v39.5l-34.2 19.7-34.2-19.8V454l34.2-19.8 34.2 19.8zm-116.9 59.2-34.2-19.8V454l34.2-19.8L1504 454v39.5l-34.2 19.7zm-41.4 71.7-34.2-19.7v-39.5l34.2-19.7 34.2 19.8v39.5l-34.2 19.6zm48.5-19.8v-39.5l34.2-19.7 34.2 19.8v39.5l-34.2 19.8-34.2-19.9zm192.6-254.5v39.5l-34.2 19.7-34.2-19.8v-39.5l34.2-19.8 34.2 19.9zm-41.4-32.2-34.2 19.8-34.2-19.7V239l34.2-19.7 34.2 19.8v39.3zm-41.4 32.2v39.5l-34.2 19.7-34.2-19.8v-39.5l34.2-19.8 34.2 19.9zm-116.9 59.3-34.2-19.8v-39.5l34.2-19.8 34.2 19.7V350l-34.2 19.9zm-41.4 71.6-34.2-19.7v-39.5l34.2-19.7 34.2 19.8v39.5l-34.2 19.6zm48.5-19.7v-39.5l34.2-19.7 34.2 19.8v39.5l-34.2 19.8-34.2-19.9zm192.6-254.5v39.5l-34.2 19.7-34.2-19.8v-39.5l34.2-19.8 34.2 19.9zm-82.8 0v39.5l-34.2 19.7-34.2-19.8v-39.5l34.2-19.8 34.2 19.9zm-116.9 59.2-34.2-19.8v-39.5l34.2-19.8 34.2 19.7v39.5l-34.2 19.9zm-41.4 71.7-34.2-19.7V239l34.2-19.7 34.2 19.8v39.5l-34.2 19.6zm48.5-19.7V239l34.2-19.7 34.2 19.8v39.5l-34.2 19.8-34.2-19.9zm-379.5 736.4-34.2-19.7v-39.5l34.2-19.7 34.2 19.7v39.5l-34.2 19.7zm0-143.4-34.2-19.7v-39.5l34.2-19.7 34.2 19.7v39.5l-34.2 19.7zm0-143.3-34.2-19.7V669l34.2-19.7 34.2 19.7v39.5l-34.2 19.7zm0 430-34.2-19.7V1099l34.2-19.7 34.2 19.7v39.5l-34.2 19.7zm0-573.3-34.2-19.7v-39.5l34.2-19.7 34.2 19.7v39.5l-34.2 19.7zm0-143.4-34.2-19.7v-39.5l34.2-19.7 34.2 19.7v39.5l-34.2 19.7zm0-143.3-34.2-19.7V239l34.2-19.7 34.2 19.7v39.5l-34.2 19.7zm744.8 924.6 34.2 19.8v39.5l-34.2 19.8-34.2-19.9v-39.5l34.2-19.7zm0 143.3 34.2 19.8v39.5l-34.2 19.8-34.2-19.7V1386l34.2-19.9zm0 143.3 34.2 19.8v39.5l-34.2 19.8-34.2-19.7v-39.5l34.2-19.9zm0 143.4 34.2 19.8v39.5l-34.2 19.8-34.2-19.9v-39.5l34.2-19.7zm0 143.3 34.2 19.8v39.5l-34.2 19.8-34.2-19.7V1816l34.2-19.9zm41.3-501.7 34.2 19.7v39.5l-34.2 19.7-34.2-19.8V1314l34.2-19.6zm7.2 130.9v-39.5l34.2-19.7 34.2 19.8v39.5l-34.2 19.8-34.2-19.9zm-7.2 12.5 34.2 19.7v39.5l-34.2 19.7-34.2-19.8v-39.5l34.2-19.6zm0 143.3 34.2 19.7v39.5l-34.2 19.7-34.2-19.8v-39.5l34.2-19.6zm7.2-299.1v-39.5l34.2-19.7 34.2 19.8v39.5l-34.2 19.8-34.2-19.9zm-41.4-111.2 34.2-19.8 34.2 19.8v39.5l-34.2 19.7-34.2-19.8v-39.4zm-751.9 912 34.2 19.7v39.5l-34.2 19.7-34.2-19.7v-39.5l34.2-19.7zm0-143.3 34.2 19.7v39.5l-34.2 19.7-34.2-19.7v-39.5l34.2-19.7zm0-143.4 34.2 19.7v39.5l-34.2 19.7-34.2-19.7v-39.5l34.2-19.7zm0-143.3 34.2 19.7v39.5l-34.2 19.7-34.2-19.7v-39.5l34.2-19.7zm0-143.4 34.2 19.7v39.5l-34.2 19.7-34.2-19.7v-39.5l34.2-19.7zm0-143.3 34.2 19.7v39.5l-34.2 19.7-34.2-19.7v-39.5l34.2-19.7zm0-143.3 34.2 19.7v39.5l-34.2 19.7-34.2-19.7v-39.5l34.2-19.7z"/>
</svg>
