<?xml version="1.0" encoding="utf-8"?>
<!-- Generator: Adobe Illustrator 27.4.1, SVG Export Plug-In . SVG Version: 6.00 Build 0)  -->
<svg version="1.1" id="Layer_1" xmlns="http://www.w3.org/2000/svg" xmlns:xlink="http://www.w3.org/1999/xlink" x="0px" y="0px"
	 viewBox="0 0 2147.2 3021.5" style="enable-background:new 0 0 2147.2 3021.5;" xml:space="preserve">
    <defs>
        <linearGradient id="mainGradient_01" y2='1'>
        </linearGradient>
		<linearGradient id="accentGradient_01" y2='1'>
        </linearGradient>
		<linearGradient id="accent2Gradient_01" y2='1'>
        </linearGradient>
		<linearGradient id="textGradient_01" y2='1'>
        </linearGradient>
		<linearGradient id="text2Gradient_01" y2='1'>
        </linearGradient>
		<linearGradient id="text3Gradient_01" y2='1'>
        </linearGradient>
    </defs>
	
	<path class="accentcolor" d="M1073.6,2425.3c0,0,424.7-1.7,638.8-13.8c50.1-2.8,98.7,24.3,94.9,74.3
		c-9.5,124.9-76.5,418.4-97.9,510c0,0-1.7,7.1-3.3,14.1c-1.5,6.5,4.1,12.6,10.7,11.5c5.8-0.9,17.6-2.9,20.7-3.4
		c3.9-0.6,6.8-3.4,7.7-7.2c1.1-4.8,4.8-21,4.8-21c76.5-337.1,132.1-681.5,185.8-1031.6C2089.9,953,2147,10.3,2147,10.3
		c1-6-2.2-11.3-8.2-10.1c-61.8,12.4-126.3,26.5-263.2,47.1c-261.2,39.4-512.9,54.4-802,54.4c-289.1,0-540.8-15-802-54.4
		C134.7,26.6,70.2,12.5,8.4,0.2C2.4-1-0.8,4.3,0.2,10.3c0,0,57.1,942.7,211.2,1947.8c53.7,350.2,109.3,694.6,185.8,1031.6
		c0,0,3.7,16.2,4.8,21c0.9,3.8,3.8,6.6,7.7,7.2c3.2,0.5,14.9,2.5,20.7,3.4c6.6,1.1,12.2-4.9,10.7-11.5c-1.6-7-3.3-14.1-3.3-14.1
		c-21.4-91.6-88.4-385.1-97.9-510c-3.8-50,44.8-77.2,94.9-74.3C648.9,2423.6,1073.6,2425.3,1073.6,2425.3z"/>

	<g class="maincolor">
		<path d="M276.8,2368.5c35.3,209.6,74,416.8,120.4,621.3c0,0,3.7,16.2,4.8,21c0.9,3.8,3.8,6.6,7.7,7.2
			c3.2,0.5,14.9,2.5,20.7,3.4c6.6,1.1,12.2-4.9,10.7-11.5c-1.6-7-3.3-14.1-3.3-14.1c-21.4-91.6-88.4-385.1-97.9-510
			c-3.8-50,44.8-77.2,94.9-74.3c214.1,12.1,638.8,13.8,638.8,13.8s424.7-1.7,638.8-13.8c50.1-2.8,98.7,24.3,94.9,74.3
			c-9.5,124.9-76.5,418.4-97.9,510c0,0-1.7,7.1-3.3,14.1c-1.5,6.5,4.1,12.6,10.7,11.5c5.8-0.9,17.6-2.9,20.7-3.4
			c3.9-0.6,6.8-3.4,7.7-7.2c1.1-4.8,4.8-21,4.8-21c46.4-204.5,85.1-411.7,120.4-621.3c11.8-70.1,23.2-140.5,34.4-211.1H242.4
			C253.6,2228.1,265,2298.4,276.8,2368.5z"/>
		<path d="M1,23.5h126.1C78.5,14.6,43,7.1,8.4,0.2C2.4-1-0.8,4.3,0.2,10.3C0.2,10.3,0.5,14.8,1,23.5z"/>
		<path d="M2020,23.5h126.1c0.6-8.7,0.8-13.2,0.8-13.2c1-6-2.2-11.3-8.2-10.1C2104.1,7.1,2068.6,14.6,2020,23.5z"/>
		<path d="M2132.4,215.7H14.7c1,13.5,2.1,27.6,3.3,42.2h2111.1C2130.3,243.3,2131.4,229.2,2132.4,215.7z"/>
		<path d="M2114.9,431.5H32.3c1.7,19.8,3.5,40.1,5.3,61h2072C2111.4,471.6,2113.2,451.3,2114.9,431.5z"/>
		<path d="M2095.4,647.2H51.7c2.5,26,5,52.6,7.6,79.7h2028.4C2090.4,699.8,2093,673.2,2095.4,647.2z"/>
		<path d="M2074.1,863H73c3.3,32.2,6.7,65.1,10.3,98.5h1980.5C2067.4,928.1,2070.8,895.2,2074.1,863z"/>
		<path d="M2051.1,1078.7H96.1c4.3,38.5,8.7,77.6,13.3,117.3h1928.3C2042.3,1156.3,2046.8,1117.2,2051.1,1078.7z"/>
		<path d="M2026.1,1294.5h-1905c5.4,44.8,11,90.1,16.8,136h1871.4C2015.1,1384.6,2020.7,1339.2,2026.1,1294.5z"/>
		<path d="M1999.1,1510.2h-1851c6.6,51.1,13.5,102.7,20.7,154.8h1809.5C1985.5,1613,1992.4,1561.3,1999.1,1510.2z"/>
		<path d="M1969.9,1726H177.3c8.1,57.5,16.5,115.4,25.2,173.5h1742.1C1953.4,1841.3,1961.8,1783.4,1969.9,1726z"/>
		<path d="M1938.3,1941.7H208.9c0.8,5.5,1.7,10.9,2.5,16.4c9,58.8,18.1,117.4,27.3,175.9h1669.8
			c9.2-58.5,18.3-117.1,27.3-175.9C1936.6,1952.7,1937.4,1947.2,1938.3,1941.7z"/>
	</g>

</svg>
