<svg xmlns="http://www.w3.org/2000/svg" viewBox="0 0 2284.5 3044.9" style="enable-background:new 0 0 2284.5 3044.9" xml:space="preserve">
	<title>$design_title</title>
    <desc>$design_desc</desc>
    <defs>
		<linearGradient id="mainGradient_11" y2='1'>
        </linearGradient>
        <linearGradient id="accentGradient_11" y2='1'>
        </linearGradient>
        <linearGradient id="accent2Gradient_11" y2='1'>
        </linearGradient>
        <linearGradient id="textGradient_11" y2='1'>
        </linearGradient>
        <linearGradient id="text2Gradient_11" y2='1'>
        </linearGradient>
        <linearGradient id="text3Gradient_11" y2='1'>
        </linearGradient>
    </defs>

    <path class="accentcolor" d="M1142.2 119.5c-289.1 0-540.8-15-802-54.4C203.4 44.4 106.7 23.6 50.7 10.4c-4-.9-7.7-1.8-11.3-2.7L8.9.2C3-1.2-1.9 4.9.7 10.3l8.9 18.4 3.7 8.1c24 53.7 63.9 156.9 79.9 282.6 27.4 214.5 58.1 538.6 114.2 896.9 141.5 903.3 263.1 1184.9 296.7 1273.1 7 18.5 15.4 36.5 23.7 54.5 9.1 19.7 19.2 40.4 29.3 59.1 2.1 3.9 4.3 7.8 6.5 11.7 2.6 4.7 5.4 9.3 8.2 13.9l26.4 41.7c10.1 15.9 20.3 31.8 30.5 47.7 4.6 7.2 9.3 14.5 13.9 21.8 16.1 25.4 31.2 49.9 45.4 76.4 4.4 8.2 8.7 16.5 12.8 24.8 4.5 9.1 8.9 18.3 13.2 27.5 8.8 19 17.5 38.9 25.7 58.1 8.4 19.8 16.7 39.7 24.9 59.6 6.9 16.9 13.9 33.9 20.7 50.9 2.4 6 9 9.2 15.2 7.4 13.4-3.9 10.1-12 4.8-24.9-95.7-236-97.4-221.7-212.2-404.3-26.8-42.6-89.9-175.9-106.6-261.9-9.9-50.6 23.2-75 69.1-81.8 33.7-5 309.2-25 586.7-25 277.5 0 552.9 20 586.7 25 45.9 6.8 78.9 31.2 69.1 81.8-16.8 86-79.9 219.3-106.6 261.9-114.8 182.6-116.5 168.3-212.2 404.3-5.2 12.9-8.5 21 4.8 24.9 6.3 1.8 12.8-1.3 15.2-7.4 6.9-17 13.8-33.9 20.7-50.9 8.2-19.9 16.4-39.8 24.9-59.6 8.2-19.2 16.9-39.1 25.7-58.1 4.3-9.2 8.7-18.4 13.2-27.5 4.1-8.3 8.4-16.6 12.8-24.8 14.2-26.5 29.3-51 45.4-76.4 4.6-7.3 9.2-14.5 13.9-21.8 10.2-15.9 20.3-31.8 30.5-47.7l26.4-41.7c2.9-4.6 5.6-9.2 8.2-13.9 2.2-3.9 4.4-7.8 6.5-11.7 10.1-18.7 20.2-39.4 29.3-59.1 8.3-18 16.7-36 23.7-54.5 33.6-88.3 155.2-369.9 296.7-1273.1 56.1-358.3 86.8-682.4 114.2-896.9 16.1-125.7 55.9-228.8 79.9-282.6l3.7-8.1 8.9-18.4c2.7-5.5-2.3-11.6-8.2-10.1l-30.5 7.5c-3.6.9-7.3 1.7-11.3 2.7-56.1 13.2-152.7 34-289.5 54.7-261.3 39.4-513 54.4-802.2 54.4z"/>
	<path class="maincolor" d="M409.1 2205.5c45.7 162.5 79.6 243.5 95 283.9 7 18.5 15.4 36.5 23.7 54.5 9.1 19.7 19.2 40.4 29.3 59.1 2.1 3.9 4.3 7.8 6.5 11.7 2.6 4.7 5.4 9.3 8.2 13.9l26.4 41.7c10.1 15.9 20.3 31.8 30.5 47.7 4.6 7.2 9.3 14.5 13.9 21.8 16.1 25.4 31.2 49.9 45.4 76.4 4.4 8.2 8.7 16.5 12.8 24.8 4.5 9.1 8.9 18.3 13.2 27.5 8.8 19 17.5 38.9 25.7 58.1 8.4 19.8 16.7 39.7 24.9 59.6 6.9 16.9 13.9 33.9 20.7 50.9 2.4 6 9 9.2 15.2 7.4 13.4-3.9 10.1-12 4.8-24.9-95.7-236-97.4-221.7-212.2-404.3-26.8-42.6-89.9-175.9-106.6-261.9-9.9-50.6 23.2-75 69.1-81.8 33.7-5 309.2-25 586.7-25 277.5 0 552.9 20 586.7 25 45.9 6.8 78.9 31.2 69.1 81.8-16.8 86-79.9 219.3-106.6 261.9-114.8 182.6-116.5 168.3-212.2 404.3-5.2 12.9-8.5 21 4.8 24.9 6.3 1.8 12.8-1.3 15.2-7.4 6.9-17 13.8-33.9 20.7-50.9 8.2-19.9 16.4-39.8 24.9-59.6 8.2-19.2 16.9-39.1 25.7-58.1 4.3-9.2 8.7-18.4 13.2-27.5 4.1-8.3 8.4-16.6 12.8-24.8 14.2-26.5 29.3-51 45.4-76.4 4.6-7.3 9.2-14.5 13.9-21.8 10.2-15.9 20.3-31.8 30.5-47.7l26.4-41.7c2.9-4.6 5.6-9.2 8.2-13.9 2.2-3.9 4.4-7.8 6.5-11.7 10.1-18.7 20.2-39.4 29.3-59.1 8.3-18 16.7-36 23.7-54.5 15.4-40.4 49.2-121.3 95-283.9 15.6-55.5 32.6-120.4 50.7-196.5H358.4c18.1 76.1 35.1 141 50.7 196.5zM6.3 21.8h95.1c-19.5-4.2-36.4-8-50.7-11.4-4-.9-7.7-1.8-11.3-2.7L8.9.2C3-1.2-1.9 4.9.7 10.3l5.6 11.5zM2183.1 21.8h95.1l5.6-11.5c2.7-5.5-2.3-11.6-8.2-10.1l-30.5 7.5c-3.6.9-7.3 1.7-11.3 2.7-14.3 3.4-31.2 7.2-50.7 11.4zM2214.2 200.9H70.3c3.3 12.7 6.4 25.8 9.3 39.3h2125.3c2.9-13.5 6-26.6 9.3-39.3zM2181.2 401.8H103.3c2.2 18.3 4.4 37.3 6.7 56.8h2064.6c2.2-19.5 4.4-38.5 6.6-56.8zM2157.9 602.7H126.5c2.8 24.2 5.7 48.9 8.6 74.2h2014.2c3-25.3 5.9-50 8.6-74.2zM2134.1 803.6H150.3c3.7 30 7.5 60.6 11.5 91.7h1960.7c4.1-31.1 7.9-61.7 11.6-91.7zM2108.1 1004.5H176.4c4.9 35.9 10.1 72.3 15.5 109.2h1900.8c5.3-36.9 10.5-73.3 15.4-109.2zM2078.8 1205.4H205.7c.6 3.6 1.1 7.2 1.7 10.9 6.2 39.8 12.4 78.4 18.6 115.8h1832.6c6.1-37.4 12.3-76 18.6-115.8.5-3.7 1-7.3 1.6-10.9zM2046.1 1406.3H238.4c8.5 50.3 17 98.3 25.3 144.1h1757.2c8.3-45.9 16.7-93.9 25.2-144.1zM2010.4 1607.2H274.1c10.7 57.4 21.2 111.1 31.5 161.6h1673.3c10.3-50.5 20.8-104.3 31.5-161.6zM1970.8 1808.1H313.7c13.6 65.4 26.9 125 39.5 179.1h1578c12.7-54.2 25.9-113.7 39.6-179.1z"/>
</svg>
