<?xml version="1.0" encoding="utf-8"?>
<!-- Generator: Adobe Illustrator 27.4.1, SVG Export Plug-In . SVG Version: 6.00 Build 0)  -->
<svg version="1.1" id="Layer_1" xmlns="http://www.w3.org/2000/svg" xmlns:xlink="http://www.w3.org/1999/xlink" x="0px" y="0px"
	 viewBox="0 0 2194.8 2308.9" style="enable-background:new 0 0 2194.8 2308.9;" xml:space="preserve">
	<title>$design_title</title>
	<desc>$design_desc</desc>
    <defs>
		<linearGradient id="mainGradient_16" y2='1'>
        </linearGradient>
		<linearGradient id="accentGradient_16" y2='1'>
        </linearGradient>
		<linearGradient id="accent2Gradient_16" y2='1'>
        </linearGradient>
		<linearGradient id="textGradient_16" y2='1'>
        </linearGradient>
		<linearGradient id="text2Gradient_16" y2='1'>
        </linearGradient>
		<linearGradient id="text3Gradient_16" y2='1'>
        </linearGradient>
    </defs>

	<path class="maincolor" d="M1133,112.5l-35.6,1410.3l-35.6-1410.3c-0.1-2.3-2-3.9-4.2-3.9C785,107.2,544.5,91.9,295.4,54.2
	C177.7,36.5,89.8,18.6,31.8,5.5l-23-5.3C3-1.2-1.8,4.8,0.7,10.2c0,0,6.4,14.3,7.4,16.6c7.7,18.1,14.9,36.3,21.6,54.8
	C55.5,153.2,74.4,228.4,84,303.9c4.6,35.8,9.8,79.1,13.9,114.7c4.8,41.1,9.5,82.2,14.2,123.3c5.8,50.9,11.7,101.7,17.7,152.6
	c6.5,55.2,13.3,110.3,20.3,165.4c6.9,54.2,14.1,108.4,21.7,162.5c8.3,59.2,17,118.4,26.2,177.4c19.8,126.5,41.5,255.1,64.9,380.8
	c9.3,50,18.9,99.9,29,149.7c9.8,48.9,20.1,97.6,30.8,146.3c5.8,26.2,11.7,52.3,17.7,78.4c6.8,29.4,13.9,58.8,21.1,88.1
	c7.1,28.6,14.4,57.2,22,85.6c8.7,32.5,17.7,64.9,27.2,97.2c6.5,22.2,13.3,44.4,20.4,66.7l4.2,13c1.4,4.3,7.5,4.1,8.6-0.2
	c0,0,3.8-10.7,4.9-12.4c11.9-18.3,34.6-28.6,61.9-32.6c33.7-5,309.2-25,586.7-25c277.5,0,552.9,20,586.7,25
	c27.3,4,50,14.3,61.9,32.6c1.1,1.7,4.9,12.4,4.9,12.4c1.1,4.3,7.2,4.5,8.6,0.2l4.2-13c7.1-22.2,13.9-44.5,20.4-66.7
	c9.5-32.3,18.5-64.7,27.2-97.2c7.6-28.5,14.9-57,22-85.6c7.3-29.3,14.3-58.7,21.1-88.1c6.1-26.1,12-52.2,17.7-78.4
	c10.7-48.7,21-97.5,30.8-146.3c10-49.8,19.7-99.7,29-149.7c23.4-125.8,45.1-254.4,64.9-380.8c9.2-59.1,18-118.2,26.2-177.4
	c7.6-54.1,14.8-108.3,21.7-162.5c7-55.1,13.8-110.3,20.3-165.4c6-50.8,11.9-101.7,17.7-152.6c4.7-41.1,9.4-82.2,14.2-123.3
	c4.2-35.6,9.3-78.9,13.9-114.7c9.7-75.6,28.5-150.7,54.4-222.3c6.7-18.5,13.9-36.7,21.6-54.8c1-2.3,7.4-16.6,7.4-16.6
	c2.5-5.4-2.4-11.4-8.2-10l-23,5.3c-58,13.1-145.9,30.9-263.5,48.7c-249.1,37.6-489.6,53-762.2,54.3
	C1135,108.6,1133,110.2,1133,112.5z"/>

	<g class="accentcolor">
	<path d="M1117.5,1494L1117.5,1494c-0.5,0-0.9-0.5-0.9-1l37.5-1361.1c0-1,0.8-1.7,1.8-1.8
		c335.4-2,675.3-29.6,1003.6-101.7c1.4-0.3,2.6,1.2,2,2.5c-5.9,14.3-11.5,28.8-16.7,43.4c-26.7,73.4-45.3,149.4-55.5,226.8l-14,115
		l-31.9,275.8l-20.3,165.3c-43.7,349.8-127.5,849.6-210.9,1180.7c-17.5,69.6-32.1,125.2-50.3,186.6c-0.2,0.7-0.8,1.1-1.5,1.1
		c-0.6,0-1.2-0.9-1.1-1.5c34.5-149.2,158.3-696,242.4-1369.6l20.3-165.2l31.9-275.8l14-115.3c10.4-78.9,29.4-156.5,56.6-231.3
		c0.8-2.2,1.6-4.5,2.4-6.7c0.5-1.3-0.7-2.7-2.1-2.4c-310.7,64.8-631.2,90.7-947.9,93.6c-1,0-1.7,0.8-1.8,1.7
		c-0.1,1.7-56.7,1339.8-56.7,1339.8C1118.4,1493.6,1118,1494,1117.5,1494z"/>
		<path d="M1077.3,1494L1077.3,1494c0.5,0,0.9-0.5,0.9-1l-37.5-1361.1c0-1-0.8-1.7-1.8-1.8
		c-335.3-2-675.3-29.6-1003.6-101.7c-1.4-0.3-2.6,1.2-2,2.5c5.9,14.3,11.5,28.8,16.7,43.4c26.7,73.4,45.3,149.4,55.5,226.8l14,115
		l31.9,275.8l20.3,165.3c43.7,349.8,127.5,849.6,210.9,1180.7c17.5,69.6,32.1,125.2,50.3,186.6c0.2,0.7,0.8,1.1,1.5,1.1
		c0.6,0,1.2-0.9,1.1-1.5c-34.5-149.2-158.3-696-242.4-1369.6l-20.3-165.2l-31.9-275.8l-14-115.3C116.5,219.4,97.5,141.8,70.3,67
		c-0.8-2.2-1.6-4.5-2.4-6.7c-0.5-1.3,0.7-2.7,2.1-2.4c310.7,64.8,631.2,90.7,947.9,93.6c1,0,1.7,0.8,1.8,1.7
		c0.1,1.7,56.7,1339.8,56.7,1339.8C1076.3,1493.6,1076.8,1494,1077.3,1494z"/>
	</g>

	<text class="textcolor" style="font-size:110px; font-family:'Square721BT-BoldExtended';  text-anchor:middle;" transform="matrix(1 0 0 1 1100 2114.3086)">
		<tspan>$textRef</tspan>
	</text>

	<path id="SVGID_x5F_A" class="textpath" d="M110.6,95.9c20.9,64.7,35.9,131.2,44.8,198.7l66.2,556.6
	c36.6,289.8,83.5,578.3,140.8,864.7c33.9,165.1,68.6,315.4,114.2,478.2"/>
	<text class="textcolor2" style=" font-size:110px; text-anchor:middle; font-family:'Square721BT-BoldExtended';">
		<textPath  xlink:href="#SVGID_x5F_A" startOffset="50%">
			<tspan>$text2Ref</tspan>
		</textPath>
	</text>

	<path id="SVGID_x5F_B" class="textpath" d="M1718.2,2193.9
	c40.1-143.2,51.1-188.8,83.6-333.1c48.4-222.5,89.7-446.5,123.6-671.7c67-448.4,68-528.1,113.9-894.6
	c8.9-67.4,23.9-133.9,44.8-198.7"/>
	<text class="textcolor2" style=" font-size:110px; text-anchor:middle; font-family:'Square721BT-BoldExtended';">
		<textPath  xlink:href="#SVGID_x5F_B" startOffset="50%">
			<tspan>$text2Ref</tspan>
		</textPath>
</text>
</svg>
