<?xml version="1.0" encoding="utf-8"?>
<!-- Generator: Adobe Illustrator 27.9.1, SVG Export Plug-In . SVG Version: 6.00 Build 0)  -->
<svg class="w" version="1.1" xmlns="http://www.w3.org/2000/svg" xmlns:xlink="http://www.w3.org/1999/xlink" x="0px" y="0px"
	 viewBox="0 0 8136.8 1149.6" style="enable-background:new 0 0 8136.8 1149.6;" xml:space="preserve">
	     $gradientDefs

<path class="maincolor" d="M2729.2,735.1c18.7,44.8,48.7,119.9,62,193.5l27.9,0.7l446.6-2c0,0,32.7-1.4,50.4,7.1
	c39.8,19,207.5,105.2,299.5,147.6c171.4,78.9,238.2,67.8,360.5,66.2c451.6-5.7,918.5-9.6,1371.4-13.7l71.5-0.9
	c956.1-8.7,1848.5-18.5,2404.5-48.8c63.5-3.5,282.3-9.7,282.3-9.7c-0.6-168.2,30.8-339.6,30.8-339.6l-276.8-0.6
	c0,0-1114.7,7.3-2711.2,4.8C4149.4,738.1,3358.5,736.6,2729.2,735.1z"/>
<path class="maincolor" d="M689.3,878.4c16-55,35.1-106.5,55-149.6c-494-2.3-580.8-3.8-739.6-3.9c-4.5,0-6.3,6.7-2.8,9.5
	c92.7,74.1,100.4,108.8,319.8,121.1c92,5.2,337.6,22.2,337.6,22.2L689.3,878.4z"/>
<path class="maincolor" d="M7392.5,3.9c19.9,43.1,39,94.6,55,149.6l30-0.7c0,0,245.6-17,337.6-22.2c219.5-12.4,227.1-47,319.8-121.1
	c3.5-2.8,1.7-9.5-2.8-9.5C7973.4,0.1,7886.6,1.6,7392.5,3.9z"/>
<path class="maincolor" d="M5345.5,203.8c13.3-73.7,43.3-148.8,62-193.5c-629.2,1.5-1420.2,3-2419.4,4.6
	c-1596.5,2.5-2711.2-4.8-2711.2-4.8L0.1,10.7c0,0,31.5,171.4,30.8,339.6c0,0,218.7,6.3,282.3,9.7
	c555.9,30.3,1448.3,40.1,2404.5,48.8l71.5,0.9c453,4.1,919.8,8,1371.4,13.7c122.3,1.6,189,12.7,360.5-66.2
	c92.1-42.4,259.8-128.6,299.5-147.6c17.8-8.5,50.4-7.1,50.4-7.1l446.6,2L5345.5,203.8z"/>

<text class="textcolor" transform="matrix(1 2.570000e-03 -2.570000e-03 1 367.324 240.3712)" style="font-family:'Square721-Cn-Bold'; font-size:251.9225px; text-anchor: start;">
	<tspan x="0" y="0">CUSTOM TEXT / LOGO</tspan>
</text>

<text class="textcolor" transform="matrix(1 -2.570000e-03 2.570000e-03 1 7764.1968 964.5538)" style="font-family:'Square721-Cn-Bold'; font-size:251.9225px; text-anchor: end;">
	<tspan x="0" y="0">CUSTOM TEXT / LOGO</tspan>
</text>
</svg>
