<?xml version="1.0" encoding="utf-8"?>
<!-- Generator: Adobe Illustrator 27.9.1, SVG Export Plug-In . SVG Version: 6.00 Build 0)  -->
<svg class="w" version="1.1" xmlns="http://www.w3.org/2000/svg" xmlns:xlink="http://www.w3.org/1999/xlink" x="0px" y="0px"
	 viewBox="0 0 5092.3 1238.2" style="enable-background:new 0 0 5092.3 1238.2;" xml:space="preserve">
     $gradientDefs

     <g>
	<path class="maincolor" d="M118.8,864.6l15.7,0c3.6,0,6.6,0.9,9.9,2.5c7.2,3.6,15.9,7.9,15.9,7.9c15.5,7.7,29.6,14.7,39.7,19.7
		c41,20.4,82.2,40.2,123.6,59.5c36,16.8,74.8,32.6,112.4,45.4c35.6,12.2,75.4,22.2,111.4,27.7c36.8,5.6,72.3,7.3,110.2,7.3
		c15.6,0,31.3-0.1,46.9-0.4c17.1-0.2,34.2-0.4,51.3-0.3c310.1,0.8,620.3,1.1,930.4,0.8c230.4-0.1,460.9-0.1,691.3,0.2l2665.9-1.6
		c3.9,0,6.7,3.7,5.7,7.5l-51.4,184.2c-2.2,7.9-9.1,13.2-17.3,13.2l-858.7-0.1c-36.5,0-67.3-5.4-101.7-17.7l-285.5-102.5
		c-34.3-12.3-65.2-17.7-101.7-17.7l-1296.5,0c-536.7-0.9-1074.4,0.6-1621.7-1.1c-144.6-0.4-223.5,15-426.2-78.3
		C211.6,985.4,90.2,921.2,8.9,880.4L4,877.9c-6.8-3.4-4.4-13.6,3.2-13.6l11.8,0C52,864.4,85.2,864.5,118.8,864.6z"/>
	<g>
		<path class="accentcolor" d="M226.8,864.9l-2.9,10.3c-3.7-1.8-7.5-3.7-11.3-5.6c-2.4-1.2-1.5-4.8,1.1-4.8c0.3,0,0.7,0,1,0
			C218.8,864.8,222.8,864.8,226.8,864.9z"/>
		<path class="accentcolor" d="M370.6,944.4l22.4-79c7,0,14,0,21,0.1l-24.6,86.7C383.1,949.6,376.8,947,370.6,944.4z"/>
		<path class="accentcolor" d="M537,997.1l37.2-131c9,0,18,0.1,27.1,0.1l-38.3,134.9c-3.7-0.5-7.4-1-11.1-1.6
			C546.8,998.8,541.9,998,537,997.1z"/>
		<path class="accentcolor" d="M715.8,1006l39.5-139.2c11,0,22,0.1,33.1,0.1L749,1005.8C738.4,1005.8,726.6,1005.9,715.8,1006z"/>
		<path class="accentcolor" d="M897.1,1006.1l39.3-138.6c13,0.1,26.1,0.1,39.2,0.2l-39.3,138.5C923.3,1006.2,910.2,1006.2,897.1,1006.1z"/>
		<path class="accentcolor" d="M1078.3,1006.4l39.2-138.2c15,0.1,30.1,0.1,45.2,0.2l-39.2,138.1C1108.5,1006.5,1093.4,1006.5,1078.3,1006.4z
			"/>
		<path class="accentcolor" d="M1259.6,1006.6l39.1-137.7c17,0.1,34.1,0.1,51.3,0.2l-39,137.6C1293.8,1006.7,1276.7,1006.6,1259.6,1006.6z"
			/>
		<path class="accentcolor" d="M1440.9,1006.7l38.9-137.2c19,0.1,38.1,0.1,57.3,0.2l-38.9,137C1479,1006.7,1459.9,1006.7,1440.9,1006.7z"/>
		<path class="accentcolor" d="M1622.3,1006.7l38.8-136.6c21,0.1,42.2,0.1,63.4,0.2l-38.7,136.4C1664.3,1006.6,1643.2,1006.6,1622.3,1006.7z
			"/>
		<path class="accentcolor" d="M1803.6,1006.6l38.6-136.1c23,0,46.2,0.1,69.4,0.1l-38.6,135.9C1849.9,1006.6,1826.8,1006.6,1803.6,1006.6z"
			/>
		<path class="accentcolor" d="M1985,1006.6l38.5-135.7c25.3,0,50.4,0.1,75.5,0.1l-38.5,135.6C2035.3,1006.6,2010.1,1006.6,1985,1006.6z"/>
		<path class="accentcolor" d="M2166.3,1006.6l38.5-135.6c27.3,0,54.5,0.1,81.6,0.1l-38.5,135.5C2220.7,1006.7,2193.5,1006.7,2166.3,1006.6z
			"/>
		<path class="accentcolor" d="M2347.6,1006.8l38.5-135.6c29.4,0,58.6,0,87.6,0.1l-38.5,135.5l-57.6,0
			C2367.6,1006.8,2357.6,1006.8,2347.6,1006.8z"/>
		<path class="accentcolor" d="M2528.9,1006.8l38.4-135.4c31.4,0,62.7,0,93.7,0l-38.4,135.3L2528.9,1006.8z"/>
		<path class="accentcolor" d="M2710.3,1006.7l38.4-135.2c33.5,0,66.8,0,99.8,0l-38.4,135.2L2710.3,1006.7z"/>
		<path class="accentcolor" d="M2891.6,1006.5l38.3-135.1c35.6,0,70.9,0,105.8,0l-38.3,135.1L2891.6,1006.5z"/>
		<path class="accentcolor" d="M3073,1006.4l38.3-135.1c37.7,0,75,0,111.9-0.1l-38.3,135.1L3073,1006.4z"/>
		<path class="accentcolor" d="M3254.4,1006.3l38.3-135.1c39.8,0,79.1-0.1,118-0.1l-38.4,135.2L3254.4,1006.3z"/>
		<path class="accentcolor" d="M3435.8,1006.2l38.4-135.2c42-0.1,83.3-0.1,124-0.2l-38.4,135.3L3435.8,1006.2z"/>
		<path class="accentcolor" d="M3617.1,1006.1l38.4-135.4c44.1-0.1,87.5-0.2,130.1-0.2l-38.5,135.5L3617.1,1006.1z"/>
		<path class="accentcolor" d="M3798.5,1006l38.5-135.6c46.4-0.1,91.8-0.2,136.2-0.3l-38.6,135.8L3798.5,1006z"/>
		<path class="accentcolor" d="M3979.9,1005.9l38.6-135.9c48.7-0.1,96.1-0.2,142.2-0.4l-38.7,136.2L3979.9,1005.9z"/>
		<path class="accentcolor" d="M4161.2,1005.8l38.7-136.3c51.1-0.1,100.6-0.3,148.3-0.5l-38.8,136.7L4161.2,1005.8z"/>
		<path class="accentcolor" d="M4342.6,1005.7l38.8-136.7c53.8-0.2,105.3-0.4,154.4-0.5l-38.9,137.2L4342.6,1005.7z"/>
		<path class="accentcolor" d="M4524,1005.5l39-137.3c56.9-0.2,110.5-0.4,160.5-0.6l-39.1,137.8L4524,1005.5z"/>
		<path class="accentcolor" d="M4705.3,1005.4l39.1-137.9c61.1-0.3,116.7-0.5,166.6-0.7l-39.3,138.5L4705.3,1005.4z"/>
		<path class="accentcolor" d="M4886.7,1005.3l39.3-138.6c49.4-0.2,92.8-0.5,129.9-0.7l18.2-0.1c12-0.1,20.6,11.3,17.4,22.8l-30.4,109
			c-1.2,4.5-5.2,7.4-9.8,7.4L4886.7,1005.3z"/>
	</g>
</g>
<g>
	<path class="maincolor" d="M4973.5,0.3l-15.7,0c-3.6,0-6.6,0.9-9.9,2.5c-7.2,3.6-15.9,7.9-15.9,7.9c-15.5,7.7-29.6,14.7-39.7,19.7
		c-41,20.4-82.2,40.2-123.6,59.5c-36,16.8-74.8,32.6-112.4,45.4c-35.6,12.2-75.4,22.2-111.4,27.7c-36.8,5.6-72.3,7.3-110.2,7.3
		c-15.6,0-31.3-0.1-46.9-0.4c-17.1-0.2-34.2-0.4-51.3-0.3c-310.1,0.8-620.3,1.1-930.4,0.8c-230.4-0.1-460.9-0.1-691.3,0.2
		L48.8,169.1c-3.9,0-6.7,3.7-5.7,7.5l51.4,184.2c2.2,7.9,9.1,13.2,17.3,13.2l858.7-0.1c36.5,0,67.3-5.4,101.7-17.7l285.5-102.5
		c34.3-12.3,65.2-17.7,101.7-17.7l1296.5,0c536.7-0.9,1074.4,0.6,1621.7-1.1c144.6-0.4,223.5,15,426.2-78.3
		c76.8-35.4,198.3-99.5,279.6-140.4l4.9-2.5c6.8-3.4,4.4-13.6-3.2-13.6l-11.8,0C5040.3,0.1,5007.1,0.2,4973.5,0.3z"/>
	<g>
		<path class="accentcolor" d="M4865.5,0.6l2.9,10.3c3.7-1.8,7.5-3.7,11.3-5.6c2.4-1.2,1.5-4.8-1.1-4.8c-0.3,0-0.7,0-1,0
			C4873.6,0.5,4869.5,0.5,4865.5,0.6z"/>
		<path class="accentcolor" d="M4721.7,80.1l-22.4-79c-7,0-14,0-21,0.1l24.6,86.7C4709.2,85.3,4715.5,82.7,4721.7,80.1z"/>
		<path class="accentcolor" d="M4555.3,132.8l-37.2-131c-9,0-18,0.1-27.1,0.1l38.3,134.9c3.7-0.5,7.4-1,11.1-1.6
			C4545.5,134.5,4550.4,133.7,4555.3,132.8z"/>
		<path class="accentcolor" d="M4376.5,141.7L4337,2.5c-11,0-22,0.1-33.1,0.1l39.4,138.9C4353.9,141.5,4365.7,141.6,4376.5,141.7z"/>
		<path class="accentcolor" d="M4195.2,141.8L4155.9,3.2c-13,0.1-26.1,0.1-39.2,0.2l39.3,138.5C4169,141.9,4182.1,141.9,4195.2,141.8z"/>
		<path class="accentcolor" d="M4014,142.1L3974.8,3.9c-15,0.1-30.1,0.1-45.2,0.2l39.2,138.1C3983.8,142.2,3998.9,142.2,4014,142.1z"/>
		<path class="accentcolor" d="M3832.7,142.3L3793.6,4.6c-17,0.1-34.1,0.1-51.3,0.2l39,137.6C3798.5,142.3,3815.6,142.3,3832.7,142.3z"/>
		<path class="accentcolor" d="M3651.4,142.4L3612.5,5.2c-19,0.1-38.1,0.1-57.3,0.2l38.9,137C3613.3,142.4,3632.4,142.4,3651.4,142.4z"/>
		<path class="accentcolor" d="M3470,142.3L3431.3,5.8c-21,0.1-42.2,0.1-63.4,0.2l38.7,136.4C3428,142.3,3449.2,142.3,3470,142.3z"/>
		<path class="accentcolor" d="M3288.7,142.3L3250.1,6.2c-23,0-46.2,0.1-69.4,0.1l38.6,135.9C3242.4,142.3,3265.5,142.3,3288.7,142.3z"/>
		<path class="accentcolor" d="M3107.3,142.3L3068.8,6.5c-25.3,0-50.4,0.1-75.5,0.1l38.5,135.6C3057,142.3,3082.2,142.3,3107.3,142.3z"/>
		<path class="accentcolor" d="M2926,142.3L2887.6,6.8c-27.3,0-54.5,0.1-81.6,0.1l38.5,135.5C2871.7,142.4,2898.8,142.4,2926,142.3z"/>
		<path class="accentcolor" d="M2744.7,142.5L2706.3,7c-29.4,0-58.6,0-87.6,0.1l38.5,135.5l57.6,0C2724.7,142.5,2734.7,142.5,2744.7,142.5z"
			/>
		<path class="accentcolor" d="M2563.4,142.5L2525,7.1c-31.4,0-62.7,0-93.7,0l38.4,135.3L2563.4,142.5z"/>
		<path class="accentcolor" d="M2382,142.4L2343.6,7.1c-33.5,0-66.8,0-99.8,0l38.4,135.2L2382,142.4z"/>
		<path class="accentcolor" d="M2200.7,142.2L2162.3,7.1c-35.6,0-70.9,0-105.8,0l38.3,135.1L2200.7,142.2z"/>
		<path class="accentcolor" d="M2019.3,142.1L1981,7c-37.7,0-75,0-111.9-0.1l38.3,135.1L2019.3,142.1z"/>
		<path class="accentcolor" d="M1837.9,142L1799.6,6.9c-39.8,0-79.1-0.1-118-0.1L1720,142L1837.9,142z"/>
		<path class="accentcolor" d="M1656.6,141.9L1618.2,6.7c-42-0.1-83.3-0.1-124-0.2l38.4,135.3L1656.6,141.9z"/>
		<path class="accentcolor" d="M1475.2,141.8L1436.8,6.4c-44.1-0.1-87.5-0.2-130.1-0.2l38.5,135.5L1475.2,141.8z"/>
		<path class="accentcolor" d="M1293.8,141.7L1255.3,6.1c-46.4-0.1-91.8-0.2-136.2-0.3l38.6,135.8L1293.8,141.7z"/>
		<path class="accentcolor" d="M1112.5,141.6L1073.9,5.7c-48.7-0.1-96.1-0.2-142.2-0.4l38.7,136.2L1112.5,141.6z"/>
		<path class="accentcolor" d="M931.1,141.5L892.4,5.2C841.3,5,791.8,4.9,744.1,4.7l38.8,136.7L931.1,141.5z"/>
		<path class="accentcolor" d="M749.7,141.4L710.9,4.6c-53.8-0.2-105.3-0.4-154.4-0.5l38.9,137.2L749.7,141.4z"/>
		<path class="accentcolor" d="M568.4,141.2L529.4,4c-56.9-0.2-110.5-0.4-160.5-0.6L408,141.2L568.4,141.2z"/>
		<path class="accentcolor" d="M387,141.1L347.9,3.3C286.8,3,231.1,2.8,181.3,2.5L220.6,141L387,141.1z"/>
		<path class="accentcolor" d="M205.6,141L166.3,2.4C116.9,2.2,73.5,2,36.3,1.8L18.1,1.7C6.2,1.6-2.5,13,0.7,24.5l30.4,109
			c1.2,4.5,5.2,7.4,9.8,7.4L205.6,141z"/>
	</g>
</g>
</svg>
