<?xml version="1.0" encoding="utf-8"?>
<!-- Generator: Adobe Illustrator 27.9.1, SVG Export Plug-In . SVG Version: 6.00 Build 0)  -->
<svg class="w" version="1.1" xmlns="http://www.w3.org/2000/svg" xmlns:xlink="http://www.w3.org/1999/xlink" x="0px" y="0px"
	 viewBox="0 0 8357.5 1180.1" style="enable-background:new 0 0 8357.5 1180.1;" xml:space="preserve">
	 $gradientDefs

<path class="maincolor" d="M437.1,160.9c10.8-30.2,39.8-51.8,73.7-51.8l2028.5,4.1c34,0.1,62.9,21.8,73.5,52.2
	c143.9-0.1,292.6-0.2,445.6-0.5c1003.5-1.6,1802.3-3.1,2441.3-4.6c10.9-38.8,27.8-90.9,52.9-149.7c-645.4,1.5-1456.2,3.1-2480.2,4.7
	c-1638.8,2.6-2783-4.9-2783-4.9L0.1,11c0,0,12.5,62.5,21.6,149.5c30.4-0.1,253.7-0.5,253.7-0.5S331.7,160.3,437.1,160.9z"/>

<path class="maincolor" d="M7592,4c29.8,65.8,46.7,119.6,55,149.3c32.7-0.2,63.5-0.3,92.6-0.5c80.4-5.5,222.1-15,287.7-18.7
	c225.3-12.7,233.1-48.2,328.3-124.3c3.6-2.9,1.7-9.8-2.9-9.8C8189.6,0.1,8100.5,1.6,7592,4z"/>

<path class="maincolor" d="M2613.2,216.3c-10.4,30.9-39.7,53.2-74.2,53.1l-2028.5-4.1c-34.5-0.1-63.7-22.5-74-53.5
	c-105-0.5-161.1-0.9-161.1-0.9s-215,0.4-248.9,0.5c3.8,46.6,5.4,97.5,5.2,148.1c0,0,229.8,6.4,295,10
	c570.7,31.1,1486.7,41.2,2468.2,50.1l73.4,0.9c465,4.2,944.2,8.2,1407.8,14.1c125.5,1.6,194,13,370-68
	c89.1-41,247.1-122,299.2-147.5c3.5-1.5,2.4-6.7-1.4-6.7c-0.7,0-0.8,0-0.8,0c-531.1,1.1-1153.6,2.3-1884.6,3.4
	C2905.6,216.1,2757,216.2,2613.2,216.3z"/>
<path class="maincolor" d="M710.5,897.3c8.3-29.7,25.2-83.4,55-149.3c-508.5-2.4-597.6-4-760.7-4c-4.6,0-6.5,6.9-2.9,9.8

	c95.2,76.1,103,111.6,328.3,124.3c65.6,3.7,207.3,13.3,287.7,18.7C647,897,677.8,897.2,710.5,897.3z"/>
<path class="maincolor" d="M5744.6,909.4c10.7-30.3,39.6-52.1,73.5-52.2l2028.5-4.1c34-0.1,62.9,21.5,73.7,51.8
	c105.4-0.5,161.7-0.9,161.7-0.9s223.3,0.5,253.7,0.5c9.1-87,21.6-149.5,21.6-149.5l-289.4-0.6c0,0-1144.3,7.5-2783,4.9
	c-1023.9-1.6-1834.8-3.2-2480.2-4.7c25.1,58.8,42,110.9,52.9,149.7c639,1.5,1437.8,3.1,2441.3,4.6
	C5452.1,909.1,5600.8,909.3,5744.6,909.4z"/>

<path class="maincolor" d="M7921,955.9c-10.3,31-39.5,53.5-74,53.5l-2028.5,4.1c-34.5,0.1-63.8-22.2-74.2-53.1
	c-143.8-0.1-292.4-0.2-445.3-0.5c-731-1.1-1353.4-2.3-1884.6-3.4c0,0,0,0-0.8,0c-3.8,0-4.9,5.2-1.4,6.7
	c52,25.5,210.1,106.5,299.2,147.5c176,81,244.5,69.6,370,68c463.6-5.9,942.8-9.9,1407.8-14.1l73.4-0.9
	c981.5-8.9,1897.5-19,2468.2-50.1c65.2-3.6,295-10,295-10c-0.2-50.6,1.4-101.4,5.2-148.1c-33.9-0.1-248.9-0.5-248.9-0.5
	S8026,955.3,7921,955.9z"/>

	<text class="textcolor" transform="matrix(0.86 2.211019e-03 -2.570952e-03 1 1520.6084 242.0496)" textLength="2400" lengthAdjust="spacingAndGlyphs" style="font-family:'Square721-Cn-Bold'; font-size:147.1255px; text-anchor: middle;">
	<tspan x="0" y="0">CUSTOM TEXT / LOGO</tspan>
</text>

<text class="textcolor" transform="matrix(0.86 -2.206331e-03 2.565501e-03 1 6830.6987 987.307)" textLength="2400" lengthAdjust="spacingAndGlyphs" style="font-family:'Square721-Cn-Bold'; font-size:147.1255px; text-anchor: middle;">
	<tspan x="0" y="0">CUSTOM TEXT / LOGO</tspan>
</text>
</svg>
