<?xml version="1.0" encoding="utf-8"?>
<!-- Generator: Adobe Illustrator 27.9.1, SVG Export Plug-In . SVG Version: 6.00 Build 0)  -->
<svg class="w" version="1.1" xmlns="http://www.w3.org/2000/svg" xmlns:xlink="http://www.w3.org/1999/xlink" x="0px" y="0px"
	 viewBox="0 0 5092.3 1238.2" style="enable-background:new 0 0 5092.3 1238.2;" xml:space="preserve">
     $gradientDefs

 <g>
	<path class="maincolor" d="M118.8,864.6l15.7,0c3.6,0,6.6,0.9,9.9,2.5c7.2,3.6,15.9,7.9,15.9,7.9c15.5,7.7,29.6,14.7,39.7,19.7
		c41,20.4,82.2,40.2,123.6,59.5c36,16.8,74.8,32.6,112.4,45.4c35.6,12.2,75.4,22.2,111.4,27.7c36.8,5.6,72.3,7.3,110.2,7.3
		c15.6,0,31.3-0.1,46.9-0.4c17.1-0.2,34.2-0.4,51.3-0.3c310.1,0.8,620.3,1.1,930.4,0.8c230.4-0.1,460.9-0.1,691.3,0.2l2665.9-1.6
		c3.9,0,6.7,3.7,5.7,7.5l-51.4,184.2c-2.2,7.9-9.1,13.2-17.3,13.2l-858.7-0.1c-36.5,0-67.3-5.4-101.7-17.7l-285.5-102.5
		c-34.3-12.3-65.2-17.7-101.7-17.7l-1296.5,0c-536.7-0.9-1074.4,0.6-1621.7-1.1c-144.6-0.4-223.5,15-426.2-78.3
		C211.6,985.4,90.2,921.2,8.9,880.4L4,877.9c-6.8-3.4-4.4-13.6,3.2-13.6l11.8,0C52,864.4,85.2,864.5,118.8,864.6z"/>
	<path class="accentcolor" d="M5051.5,1005.2l-2673.8,1.6c-230.4-0.3-460.9-0.4-691.3-0.2c-332.9,0.2-597.4,0-930.3-0.8
		c-15.9,0-35.9,0.1-51.7,0.3c-32.7,0.5-64.7,0.8-97.4-1c-18.4-1-36.8-2.9-55.1-5.6c-17.4-2.6-34.6-6.1-51.7-10.3
		c-18.5-4.6-36.8-10-54.8-16.1c-37.5-12.9-73.6-27.5-109.6-44.3c-43.9-20.5-79.7-37.7-123-59.2c-2.4-1.2-1.5-4.8,1.1-4.8
		c0.3,0,0.7,0,1,0c524.5,1.6,1119.1,4.9,1794.1,6c1501.9,2.4,2643.3-2.6,3047.1-4.7l18.2-0.1c12-0.1,20.6,11.3,17.4,22.8l-30.4,109
		C5060,1002.3,5056.1,1005.2,5051.5,1005.2z"/>
</g>
<g>
	<path class="maincolor" d="M4973.5,0.3l-15.7,0c-3.6,0-6.6,0.9-9.9,2.5c-7.2,3.6-15.9,7.9-15.9,7.9c-15.5,7.7-29.6,14.7-39.7,19.7
		c-41,20.4-82.2,40.2-123.6,59.5c-36,16.8-74.8,32.6-112.4,45.4c-35.6,12.2-75.4,22.2-111.4,27.7c-36.8,5.6-72.3,7.3-110.2,7.3
		c-15.6,0-31.3-0.1-46.9-0.4c-17.1-0.2-34.2-0.4-51.3-0.3c-310.1,0.8-620.3,1.1-930.4,0.8c-230.4-0.1-460.9-0.1-691.3,0.2
		L48.8,169.1c-3.9,0-6.7,3.7-5.7,7.5l51.4,184.2c2.2,7.9,9.1,13.2,17.3,13.2l858.7-0.1c36.5,0,67.3-5.4,101.7-17.7l285.5-102.5
		c34.3-12.3,65.2-17.7,101.7-17.7l1296.5,0c536.7-0.9,1074.4,0.6,1621.7-1.1c144.6-0.4,223.5,15,426.2-78.3
		c76.8-35.4,198.3-99.5,279.6-140.4l4.9-2.5c6.8-3.4,4.4-13.6-3.2-13.6l-11.8,0C5040.3,0.1,5007.1,0.2,4973.5,0.3z"/>
	<path class="accentcolor" d="M40.9,140.9l2673.8,1.6c230.4-0.3,460.9-0.4,691.3-0.2c332.9,0.2,597.4,0,930.3-0.8c15.9,0,35.9,0.1,51.7,0.3
		c32.7,0.5,64.6,0.8,97.4-1c18.4-1,36.8-2.9,55.1-5.6c17.4-2.6,34.6-6.1,51.7-10.3c18.5-4.6,36.8-10,54.8-16.1
		c37.5-12.9,73.6-27.5,109.6-44.3c43.9-20.5,79.7-37.7,123-59.2c2.4-1.2,1.5-4.8-1.1-4.8c-0.3,0-0.7,0-1,0
		c-524.5,1.6-1119.1,4.9-1794.1,6C1581.5,8.9,440.2,3.9,36.3,1.8L18.1,1.7C6.2,1.6-2.5,13,0.7,24.5l30.4,109
		C32.3,138,36.2,140.9,40.9,140.9z"/>
</g>
</svg>
