<?xml version="1.0" encoding="utf-8"?>
<!-- Generator: Adobe Illustrator 27.9.1, SVG Export Plug-In . SVG Version: 6.00 Build 0)  -->
<svg class="w" version="1.1" xmlns="http://www.w3.org/2000/svg" xmlns:xlink="http://www.w3.org/1999/xlink" x="0px" y="0px"
	 viewBox="0 0 5223.3 1256.3" style="enable-background:new 0 0 5223.3 1256.3;" xml:space="preserve">
     $gradientDefs
     	
 <style type="text/css">
	.accentcolor2, .accentcolor{fill-rule:evenodd;clip-rule:evenodd;}
</style>
<path class="maincolor" d="M5172.9,771.5l-92.2,331.6c-5.9,22.1-25.6,37.7-48.4,38.2l-243.9,9c-376.6,10.8-753.3,18.7-1130,23.6
	c-401,5.3-802.1,9.7-1203.1,13.1l-84.7,1c-540.6,4.5-1081.2,9.9-1621.8,16.3l-98.4,1.7c-33.3,0.4-66.6-1.8-99.5-6.7
	c-34-5.5-67.5-14-100.1-25.4c-36.1-12.6-71.6-27-106.3-43.2c-44.5-21-173.5-84.4-243-118.7l-4.1-2c-2.6-1.3-1.7-5.2,1.2-5.2l4.5,0
	l3550.3-3.7c24.4,0,44.8-15.6,51.3-39.1c0,0,48-174.9,50.1-182.5c1.3-4.8,5.4-7.9,10.4-7.9l1404.2-4.7
	C5171.8,766.8,5173.6,769.2,5172.9,771.5z"/>
<path class="accentcolor" d="M40.2,1005.7c93.3,46.5,231.4,114.4,295.2,144.6c35.4,16.5,71.5,31.2,108.3,44c33.8,11.8,68.5,20.6,103.9,26.3
	c34.1,5.1,68.6,7.4,103.2,6.9l98.3-1.7c540.6-6.4,1081.2-11.8,1621.8-16.3l84.6-1c401.1-3.4,802.2-7.8,1203.2-13.1
	c376.9-4.8,753.7-12.7,1130.5-23.6l243.7-9c32.4-0.8,60.4-22.9,68.8-54.3l94.2-338.8c0.5-1.9,2.2-3.1,4.1-3.1l12.5,0
	c7,0,12.3,6.9,10.4,13.7l-93.4,335.7c-12.3,44.2-50,74-95.9,75.7l-243.5,9c-634.5,20-1462,28.7-2334.4,36.7l-84.6,1
	c-535.6,4.9-1087.6,9.5-1621.7,16.3c-144.6,1.8-223.5,15-426.2-78.3c-89.8-41.3-240.5-118-316.9-156.1c0,0-0.3-0.1-0.8-0.4
	c-7.2-3.6-7.5-15,0.5-15l30.4,0C37.8,1004.8,39,1005.1,40.2,1005.7z"/>
<g>
	<path class="accentcolor2" d="M4806.1,850.8l-7,25.7h-78.8L4806.1,850.8z M4420.7,874.9h26.7l-99,55h-28L4420.7,874.9z M4511.4,876.9h-12.7
		l68.1,53h11.8L4511.4,876.9z M4266.2,874.4h-168.9l-46.9,9.4l-0.5,1.9h213.2L4266.2,874.4z M4616.3,930.3h167.5l-7,25.8
		c-0.5,1.8,0.6,3.3,2.4,3.3l88.4,0.6c1.8,0,3.7-1.5,4.2-3.3l7.2-26.4h11.4c1.8,0,3.7-1.5,4.2-3.3l13-47.9c0.5-1.8-0.6-3.3-2.4-3.3
		h-11.4L4914,801c0.5-1.8-0.5-3.4-2.3-3.4h-100.3c-0.5,0-1,0.1-1.6,0.2l-188.2,55.8c-2.3,0.7-4.1,2.5-4.7,4.7l-16.2,59.6l-52.3-41.5
		l106.2-58.3c1.7-0.9,2.9-2.4,3.4-4.1l3.6-13.2c0.5-1.8-0.6-3.3-2.4-3.3h-129.3c-1,0-2,0.3-3,0.8l-53.3,30.4l-36.8-30.4
		c-0.7-0.6-1.5-0.8-2.5-0.8h-379.4c-0.8,0-1.4,0.1-2.2,0.5l-45.2,18.6c-2,0.8-3.5,2.5-4.1,4.5l-48.2,177.7c-0.5,1.8,0.6,3.3,2.4,3.3
		H4076c1.8,0,3.7-1.5,4.2-3.3l18.3-67.3h168.3c1.8,0,3.7-1.5,4.2-3.3l16.4-60.3c0.5-1.8-0.6-3.3-2.4-3.3h-168.3l2.9-10.5h173.6
		c1.8,0,3.7-1.5,4.2-3.3l9.8-36.1l79.3,61.6l-113.7,63c-1.9,1-2.4,3.4-1,4.2l23.3,14.5c0.6,0.4,1.3,0.6,2.2,0.6h101.1
		c1,0,2-0.3,3-0.8l60.1-34l43.1,34c0.7,0.5,1.5,0.8,2.5,0.8h105.3c1.8,0,3.7-1.5,4.2-3.3l5.6-20.6L4616.3,930.3z M4287.1,815.9
		h-231.4l-36.3,15.5l-38.6,142.2h33.3l35-129.1c0.5-1.7,1.7-3.1,3.4-3.8l29.1-12.2c0.7-0.3,1.3-0.4,1.9-0.4h200.2L4287.1,815.9z
		 M4407.4,815.7h12.2l43.5,35.4c0.5,0.4,1.3,0.4,2,0l62.1-35.4h27l-86.3,48.6L4407.4,815.7z M4823.6,891.7h-185.2
		c-0.8,0-1.6,0.3-2.3,0.8l-23.8,17.3l13.8-50.8l183.5-54.1h43l-37.1,136.9h-24.8l8.7-32.1l23.7-13.9c0.5-0.3,0.8-0.7,1-1.2
		c0.1-0.5,0.5-1.8,0.5-1.8C4824.7,892.3,4824.3,891.7,4823.6,891.7z M4638.8,885.6l5.6-20.6c0.2-0.6,0.6-1,1.2-1.2l155.6-46.2
		c0.4-0.1,0.7-0.2,1-0.2h41.6c0.7,0,1.1,0.6,0.9,1.3l-0.3,1.2c-0.2,0.6-0.6,1.1-1.2,1.4l-22.5,9.8l-13.8,50.8
		c-0.2,0.7-0.9,1.3-1.6,1.3h-129.5l-35.9,3.8C4639.1,887,4638.6,886.4,4638.8,885.6z M4896.5,882.7l-2.5,9.3h-53.4l0.7-2.7l39.9-6.6
		H4896.5z"/>
	<g>
		<path class="accentcolor2" d="M4504.7,979.2h-29.4c-4,0-8.1,3.2-9.2,7.2l-2.8,10.4c-1.1,4,1.3,7,5.3,7h28.2c4,0,9.3-3,10.3-7l2.8-10.4
			C4511,982.4,4508.7,979.2,4504.7,979.2z M4496.7,983.3h-15.6c-0.7,0-1.5,0.6-1.7,1.3l-3.6,13.5c-0.2,0.7,0.2,1.3,1,1.3h15.6
			c0.7,0,1.5-0.6,1.7-1.3l3.6-13.5C4497.8,983.9,4497.4,983.3,4496.7,983.3z"/>
		<path class="accentcolor2" d="M4751,979.2h-29.4c-4,0-8.1,3.2-9.2,7.2l-2.8,10.4c-1.1,4,1.3,7,5.3,7h28.2c4,0,9.3-3,10.3-7l2.8-10.4
			C4757.4,982.4,4755,979.2,4751,979.2z M4743,983.3h-15.6c-0.7,0-1.5,0.6-1.7,1.3l-3.6,13.5c-0.2,0.7,0.2,1.3,1,1.3h15.6
			c0.7,0,1.5-0.6,1.7-1.3l3.6-13.5C4744.2,983.9,4743.7,983.3,4743,983.3z"/>
		<path class="accentcolor2" d="M4852.5,983.3h-16.9l-5,18.3h16.9c0.7,0,1.5-0.6,1.7-1.3l4.3-15.7C4853.7,983.9,4853.3,983.3,4852.5,983.3z
			 M4860.5,979.2h-35.4c-0.5,0-1.1,0.4-1.3,1l-6.1,22.6c-0.1,0.5,0.2,1,0.7,1h34.2c4,0,9.3-3,10.3-7l2.8-10.4
			C4866.9,982.4,4864.5,979.2,4860.5,979.2z"/>
		<path class="accentcolor2" d="M4782.3,983.3h16.9l-2.1,7.8h-17.8c-0.2,0-0.4-0.2-0.3-0.4c0.1-0.4,1.6-6.1,1.6-6.1
			C4780.8,983.9,4781.6,983.3,4782.3,983.3z M4776.5,979.2h35.4c0.5,0,0.9,0.4,0.7,1l-6.1,22.6c-0.1,0.5-0.7,1-1.3,1h-10.6
			c-0.5,0-0.9-0.4-0.7-1l2.1-7.7h-17.8c-0.3,0-0.7,0.3-0.8,0.6l-1.9,7.1c-0.1,0.5-0.7,1-1.3,1h-10.6c-0.5,0-0.9-0.4-0.7-1
			c0.3-0.9,4.4-16.4,4.4-16.4C4768.4,982.4,4772.6,979.2,4776.5,979.2z"/>
		<path class="accentcolor2" d="M4688.5,983.3h-16.9l-2.1,7.8h17.8c0.2,0,0.5-0.2,0.5-0.4c0.1-0.4,1.6-6.1,1.6-6.1
			C4689.7,983.9,4689.2,983.3,4688.5,983.3z M4696.5,979.2h-35.4c-0.5,0-1.1,0.4-1.3,1l-6.1,22.6c-0.1,0.5,0.2,1,0.7,1h10.6
			c0.5,0,1.1-0.4,1.3-1l1.9-6.9l11.6,7.6c0.3,0.2,0.6,0.3,1,0.3h16.7c0.7,0,1-0.7,0.5-1.1l-10.5-7.7h5.5c3.4,0,7.2-3,8.2-6.4
			l0.6-2.2C4702.9,982.4,4700.5,979.2,4696.5,979.2z"/>
		<path class="accentcolor2" d="M4562.2,994.1l0.7-2.4c0.1-0.5-0.2-1-0.7-1H4532l1.6-5.9c0.2-0.7,0.9-1.2,1.6-1.2h28.9c0.5,0,1.1-0.4,1.3-1
			l0.6-2.4c0.1-0.5-0.2-1-0.7-1h-35.6c-4,0-8.1,3.2-9.2,7.2l-4.4,16.4c-0.1,0.5,0.2,1,0.7,1h10.7c0.5,0,1.1-0.4,1.3-1l1.8-6.5
			c0.2-0.7,0.9-1.2,1.6-1.2h28.9C4561.5,995.1,4562.1,994.6,4562.2,994.1z"/>
		<path class="accentcolor2" d="M4616.6,994.1l0.7-2.4c0.1-0.5-0.2-1-0.7-1h-30.1l1.6-5.9c0.2-0.7,0.9-1.2,1.6-1.2h28.9c0.5,0,1.1-0.4,1.3-1
			l0.6-2.4c0.1-0.5-0.2-1-0.7-1h-35.6c-4,0-8.1,3.2-9.2,7.2l-4.4,16.4c-0.1,0.5,0.2,1,0.7,1h10.7c0.5,0,1.1-0.4,1.3-1l1.8-6.5
			c0.2-0.7,0.9-1.2,1.6-1.2h28.9C4615.9,995.1,4616.4,994.6,4616.6,994.1z"/>
	</g>
</g>
<path class="maincolor" d="M50.3,4.8l92.2,331.6c5.9,22.1,25.6,37.7,48.4,38.2l243.9,9c376.6,10.8,753.3,18.7,1130,23.6
	c401,5.3,802.1,9.7,1203.1,13.1l84.7,1c540.6,4.5,1081.2,9.9,1621.8,16.3l98.4,1.7c33.3,0.4,66.6-1.8,99.5-6.7
	c34-5.5,67.5-14,100.1-25.4c36.1-12.6,71.6-27,106.3-43.2c44.5-21,173.5-84.4,243-118.7l4.1-2c2.6-1.3,1.7-5.2-1.2-5.2l-4.5,0
	l-3550.3-3.7c-24.4,0-44.8-15.6-51.3-39.1c0,0-48-174.9-50.1-182.5c-1.3-4.8-5.4-7.9-10.4-7.9L53.9,0.1C51.5,0.1,49.7,2.5,50.3,4.8z
	"/>
<path class="accentcolor" d="M5183.1,239c-93.3,46.5-231.4,114.4-295.2,144.6c-35.4,16.5-71.5,31.2-108.3,44
	c-33.8,11.8-68.5,20.6-103.9,26.3c-34.1,5.1-68.6,7.4-103.2,6.9l-98.3-1.7c-540.6-6.4-1081.2-11.8-1621.8-16.3l-84.6-1
	c-401.1-3.4-802.2-7.8-1203.2-13.1c-376.9-4.8-753.7-12.7-1130.5-23.6l-243.7-9c-32.4-0.8-60.4-22.9-68.8-54.3L27.5,3.2
	C26.9,1.3,25.3,0,23.4,0L10.8,0C3.8,0-1.5,6.9,0.4,13.7l93.4,335.7c12.3,44.2,50,74,95.9,75.7l243.5,9
	c634.5,20,1462,28.7,2334.4,36.7l84.6,1c535.6,4.9,1087.6,9.5,1621.7,16.3c144.6,1.8,223.5,15,426.2-78.3
	c89.8-41.3,240.5-118,316.9-156.1c0,0,0.3-0.1,0.8-0.4c7.2-3.6,7.5-15-0.5-15l-30.4,0C5185.5,238.1,5184.3,238.4,5183.1,239z"/>
<g>
	<path class="accentcolor2" d="M1118.4,80.7l7,25.7h-78.9L1118.4,80.7z M746,104.9h26.8l-69.2,55h-28L746,104.9z M837.8,106.8H825l96.8,53
		h11.8L837.8,106.8z M591.1,104.3H422.2l-41.8,9.4l0.5,1.9h213.3L591.1,104.3z M971.6,160.3h167.6l7,25.8c0.5,1.8,2.3,3.3,4.1,3.3
		l88.7,0.6c1.8,0,2.9-1.5,2.4-3.3l-7.2-26.4h11.4c1.8,0,2.9-1.5,2.4-3.3l-13-48c-0.5-1.8-2.4-3.3-4.2-3.3h-11.4l-20.3-74.8
		c-0.5-1.8-2.4-3.4-4.2-3.4h-100.3c-0.6,0-1,0.1-1.5,0.2l-158,55.8c-1.9,0.7-2.7,2.5-2.1,4.7l16.2,59.6l-74.8-41.5L949,48.1
		c1.2-0.9,1.6-2.4,1.1-4.1l-3.6-13.2c-0.5-1.8-2.4-3.3-4.2-3.3H813.1c-1,0-1.8,0.3-2.5,0.8l-36.9,30.4l-53.3-30.4
		c-1-0.6-2-0.8-3-0.8H338c-0.8,0-1.3,0.1-1.9,0.5L301,46.6c-1.6,0.8-2.2,2.5-1.6,4.5l48.2,177.7c0.5,1.8,2.4,3.3,4.2,3.3h118.6
		c1.8,0,2.9-1.5,2.4-3.3l-18.3-67.3h168.4c1.8,0,2.9-1.5,2.4-3.3l-16.4-60.3c-0.5-1.8-2.4-3.3-4.2-3.3H436.3l-2.9-10.5h173.7
		c1.8,0,2.9-1.5,2.4-3.3l-9.8-36.1l112.8,61.6l-79.5,63c-1.3,1-0.6,3.4,1.3,4.2l31.1,14.5c0.9,0.4,1.6,0.6,2.5,0.6H769
		c1,0,1.8-0.3,2.5-0.8l41.7-34l61.5,34c1,0.5,1.9,0.8,2.9,0.8h105.3c1.8,0,2.9-1.5,2.4-3.3l-5.6-20.6L971.6,160.3z M580.3,45.8
		H348.9L321,61.3l38.6,142.2h33.3l-35-129.1c-0.5-1.7,0.1-3.1,1.4-3.8l22.4-12.3c0.5-0.3,1-0.4,1.7-0.4h200.3L580.3,45.8z
		 M700.6,45.6h12.2L775.5,81c0.7,0.4,1.5,0.4,2,0l42.9-35.4h27l-60,48.6L700.6,45.6z M1158,121.6H972.9c-0.8,0-1.4,0.3-1.9,0.8
		l-14.4,17.3L942.8,89L1097,34.9h43l37.1,136.9h-24.8l-8.7-32.1l16.2-13.9c0.3-0.3,0.4-0.7,0.3-1.2c-0.1-0.5-0.5-1.8-0.5-1.8
		C1159.5,122.2,1158.8,121.6,1158,121.6z M969.9,115.6L964.3,95c-0.2-0.6,0.1-1,0.6-1.2l130.5-46.2c0.3-0.1,0.6-0.2,0.9-0.2h41.6
		c0.7,0,1.4,0.6,1.6,1.3l0.3,1.2c0.2,0.6,0,1.1-0.5,1.4l-17.2,9.8l13.8,50.8c0.2,0.7-0.2,1.3-0.9,1.3h-129.5l-33.9,3.8
		C970.9,116.9,970.1,116.3,969.9,115.6z M1226.1,112.6l2.5,9.3h-53.4l-0.7-2.7l36.3-6.6H1226.1z"/>
	<g>
		<path class="accentcolor2" d="M886.5,209.1h-29.4c-4,0-6.3,3.2-5.3,7.2l2.8,10.4c1.1,4,5.1,7,9.1,7H892c4,0,7.6-3,6.5-7l-2.8-10.4
			C894.6,212.3,890.5,209.1,886.5,209.1z M880.8,213.2h-15.6c-0.7,0-1.2,0.6-1,1.3l3.6,13.5c0.2,0.7,0.9,1.3,1.7,1.3h15.6
			c0.7,0,1.2-0.6,1-1.3l-3.6-13.5C882.2,213.8,881.5,213.2,880.8,213.2z"/>
		<path class="accentcolor2" d="M1132.9,209.1h-29.4c-4,0-6.3,3.2-5.3,7.2l2.8,10.4c1.1,4,5.1,7,9.1,7h28.2c4,0,7.6-3,6.5-7l-2.8-10.4
			C1141,212.3,1136.9,209.1,1132.9,209.1z M1127.2,213.2h-15.6c-0.7,0-1.2,0.6-1,1.3l3.6,13.5c0.2,0.7,0.9,1.3,1.7,1.3h15.6
			c0.7,0,1.2-0.6,1-1.3l-3.6-13.5C1128.6,213.8,1127.9,213.2,1127.2,213.2z"/>
		<path class="accentcolor2" d="M1236.7,213.2h-16.9l5,18.3h16.9c0.7,0,1.2-0.6,1-1.3l-4.3-15.7C1238.2,213.8,1237.4,213.2,1236.7,213.2z
			 M1242.5,209.1H1207c-0.5,0-0.9,0.4-0.7,1l6.1,22.6c0.1,0.5,0.7,1,1.3,1h34.2c4,0,7.6-3,6.5-7l-2.8-10.4
			C1250.5,212.3,1246.4,209.1,1242.5,209.1z"/>
		<path class="accentcolor2" d="M1166.5,213.2h16.9l2.1,7.8h-17.8c-0.2,0-0.5-0.2-0.5-0.4c-0.1-0.4-1.6-6.1-1.6-6.1
			C1165.3,213.8,1165.7,213.2,1166.5,213.2z M1158.4,209.1h35.4c0.5,0,1.1,0.4,1.3,1l6.1,22.6c0.1,0.5-0.2,1-0.7,1h-10.6
			c-0.5,0-1.1-0.4-1.3-1l-2.1-7.7h-17.8c-0.3,0-0.5,0.3-0.4,0.6l1.9,7.1c0.1,0.5-0.2,1-0.7,1h-10.6c-0.5,0-1.1-0.4-1.3-1
			c-0.3-0.9-4.4-16.4-4.4-16.4C1152.1,212.3,1154.5,209.1,1158.4,209.1z"/>
		<path class="accentcolor2" d="M1072.6,213.2h-16.9l2.1,7.8h17.8c0.2,0,0.4-0.2,0.3-0.4c-0.1-0.4-1.6-6.1-1.6-6.1
			C1074.1,213.8,1073.4,213.2,1072.6,213.2z M1078.4,209.1H1043c-0.5,0-0.9,0.4-0.7,1l6.1,22.6c0.1,0.5,0.7,1,1.3,1h10.6
			c0.5,0,0.9-0.4,0.7-1l-1.9-6.9l15.7,7.6c0.4,0.2,0.8,0.3,1.2,0.3h16.7c0.7,0,0.6-0.7-0.1-1.1L1078,225h5.5c3.4,0,5.6-3,4.7-6.4
			l-0.6-2.2C1086.5,212.3,1082.4,209.1,1078.4,209.1z"/>
		<path class="accentcolor2" d="M952.2,224l-0.7-2.4c-0.1-0.5-0.7-1-1.3-1h-30.1l-1.6-5.9c-0.2-0.7,0.2-1.2,0.9-1.2h28.9c0.5,0,0.9-0.4,0.7-1
			l-0.6-2.4c-0.1-0.5-0.7-1-1.3-1h-35.6c-4,0-6.3,3.2-5.3,7.2l4.4,16.4c0.1,0.5,0.7,1,1.3,1h10.7c0.5,0,0.9-0.4,0.7-1l-1.8-6.5
			c-0.2-0.7,0.2-1.2,0.9-1.2h28.9C952,225,952.3,224.6,952.2,224z"/>
		<path class="accentcolor2" d="M1006.6,224l-0.7-2.4c-0.1-0.5-0.7-1-1.3-1h-30.1l-1.6-5.9c-0.2-0.7,0.2-1.2,0.9-1.2h28.9
			c0.5,0,0.9-0.4,0.7-1l-0.6-2.4c-0.1-0.5-0.7-1-1.3-1H966c-4,0-6.3,3.2-5.3,7.2l4.4,16.4c0.1,0.5,0.7,1,1.3,1h10.7
			c0.5,0,0.9-0.4,0.7-1l-1.8-6.5c-0.2-0.7,0.2-1.2,0.9-1.2h28.9C1006.4,225,1006.7,224.6,1006.6,224z"/>
	</g>
</g>
</svg>
