<?xml version="1.0" encoding="utf-8"?>
<!-- Generator: Adobe Illustrator 27.9.1, SVG Export Plug-In . SVG Version: 6.00 Build 0)  -->
<svg class="w" version="1.1" xmlns="http://www.w3.org/2000/svg" xmlns:xlink="http://www.w3.org/1999/xlink" x="0px" y="0px"
	 viewBox="0 0 6088.1 700" style="enable-background:new 0 0 6088.1 700;" xml:space="preserve">
     $gradientDefs

     <g>
	<polygon class="maincolor" points="5709.2,0 5185.6,252 5236.9,252 5760.5,0 	"/>
	<polygon class="maincolor" points="5883.2,0 5359.5,252 5400.6,252 5924.3,0 	"/>
	<polygon class="maincolor" points="6057.2,0 5533.5,252 5564.4,252 6088.1,0 	"/>
	<path class="maincolor" d="M3793.8,252h132.9L4450.3,0h-132.9H0c0,0,19.8,90.9,31.5,252H3793.8z"/>
	<polygon class="maincolor" points="5187.3,0 4663.6,252 4745.5,252 5269.2,0 	"/>
	<polygon class="maincolor" points="5361.3,0 4837.6,252 4909.3,252 5433,0 	"/>
	<polygon class="maincolor" points="5535.3,0 5011.6,252 5073.1,252 5596.7,0 	"/>
	<polygon class="maincolor" points="4665.4,0 4141.7,252 4254.2,252 4777.9,0 	"/>
	<polygon class="maincolor" points="4839.4,0 4315.7,252 4418,252 4941.6,0 	"/>
	<polygon class="maincolor" points="4491.4,0 3967.7,252 4090.4,252 4614.1,0 	"/>
	<polygon class="maincolor" points="5013.3,0 4489.7,252 4581.8,252 5105.4,0 	"/>
</g>
	
<text class="textcolor" transform="matrix(1 0 0 1 439.2495 197.9509)" style="font-family:'Square721-Cn-Bold'; font-size:198.5904px; text-anchor: start;">
	<tspan x="0" y="0">$textRef</tspan>
</text>
	
<g>
	<polygon class="maincolor" points="378.8,448 327.5,448 851.2,700 902.5,700 	"/>
	<polygon class="maincolor" points="204.9,448 163.8,448 687.4,700 728.5,700 	"/>
	<polygon class="maincolor" points="30.9,448 0,448 523.7,700 554.6,700 	"/>
	<path class="maincolor" d="M1770.6,448h-132.9l523.7,252h132.9h3762.3c11.7-161.2,31.5-252,31.5-252H1770.6z"/>
	<polygon class="maincolor" points="900.8,448 818.9,448 1342.5,700 1424.4,700 	"/>
	<polygon class="maincolor" points="726.8,448 655.1,448 1178.8,700 1250.5,700 	"/>
	<polygon class="maincolor" points="552.8,448 491.3,448 1015,700 1076.5,700 	"/>
	<polygon class="maincolor" points="1422.7,448 1310.2,448 1833.9,700 1946.3,700 	"/>
	<polygon class="maincolor" points="1248.7,448 1146.4,448 1670.1,700 1772.4,700 	"/>
	<polygon class="maincolor" points="1596.7,448 1474,448 1997.6,700 2120.3,700 	"/>
	<polygon class="maincolor" points="1074.7,448 982.6,448 1506.3,700 1598.4,700 	"/>
</g>
	
<text class="textcolor" transform="matrix(1 0 0 1 5625.0254 645.9588)" style="font-family:'Square721-Cn-Bold'; font-size:198.5904px; text-anchor: end;">
	<tspan x="0" y="0">$textRef</tspan>
</text>
</svg>
