<?xml version="1.0" encoding="utf-8"?>
<!-- Generator: Adobe Illustrator 27.9.1, SVG Export Plug-In . SVG Version: 6.00 Build 0)  -->
<svg class="w" version="1.1" xmlns="http://www.w3.org/2000/svg" xmlns:xlink="http://www.w3.org/1999/xlink" x="0px" y="0px"
	 viewBox="0 0 8430 1572" style="enable-background:new 0 0 8430 1572;" xml:space="preserve">
	     $gradientDefs


<style type="text/css">
	.maincolor{fill:#363636;}
	.accentcolor{fill:#4E9B03;}
	.accent2color{fill:green}
</style>
<g>
	<g>
		<polygon class="maincolor" points="6612,1427.5 6508.4,1368 6546.5,1456 		"/>
		<path class="maincolor" d="M6507.8,1366.5l160.8,0c1.3,0.1,2.7-0.3,3.8-1.1c0-0.1-5.1-11.8-5.2-12c-3.2-6.5-12-10.4-18.4-10.4h-151.2
			L6507.8,1366.5z"/>
		<path class="maincolor" d="M6205.2,1342.7h-152.1l5.7,13.2l161.2,0l-3-6.7c-1.2-2.1-3-3.7-5.1-4.8
			C6209.8,1343.4,6207.5,1342.8,6205.2,1342.7z"/>
		<path class="maincolor" d="M6240,1411.6h-157.1l5.7,13.2l166.2,0l-3-6.7c-1.2-2.1-3-3.7-5.1-4.8
			C6244.7,1412.3,6242.4,1411.6,6240,1411.6z"/>
		<path class="maincolor" d="M6489.9,1480.6l-83.8-193.5l236.1,0c20.9,0.2,40.8,8.9,57.2,21.5c20.5,15.7,35.3,38.1,38.7,64.2l126.7-55
			l-13.3-30.7h67.2l2.6,6.1l223.5-97.1h-207.6H585.7V986.4H0V1572h427.8c-53.8-94.4-244.8-161.8-390-165.5
			c-9.6-1.2-16.7-9.5-16.4-19.1c0.3-9.6,7.8-17.5,17.4-18.2c141.3-9,267.8-90.8,333.9-216.1c-37.5,105.1-117.8,189.3-221,231.8
			c184.9,21.2,362.2,85.3,517.8,187.1h5402.2h207.7L6489.9,1480.6z M5319.7,1411.9h-155.3l29.9,69H5127l-84-194.1h67.2l29.9,69
			h155.3l-29.9-69h67.2l84,194.1h-67.2L5319.7,1411.9z M5734.2,1409.3l31.1,71.7h-67.2l-28.4-65.5L5457,1286.9h106l121,77.4l54-77.4
			h92.8L5734.2,1409.3z M6273.4,1481.1l-227.6,0l-84-194.1l231.8,0c18.4,0.4,36.3,5.8,51.8,15.8c26,16,42.6,41.7,41.8,74.5l5.3,3.7
			c11.8,9.4,22.3,28.3,27.3,41.3c2.9,7.4,3.8,15.5,2.6,23.4C6321.1,1454,6312.5,1481.2,6273.4,1481.1z"/>
		<polygon class="maincolor" points="8183.1,1196 7317.7,1572 7522,1572 8390.7,1196 		"/>
		<path class="maincolor" d="M248.6,1426.6c32.2,7.3,63.6,17.3,93.8,30.1l19-8c-33.7-11.5-68.2-20.9-103.2-28.1L248.6,1426.6z"/>
		<path class="maincolor" d="M401.2,1485.6c30.5,17.3,59.5,37.5,86.4,60.4h69.7c-40.1-27-82.4-50.3-126.3-69.9L401.2,1485.6z"/>
	</g>
	<g>
		<polygon class="maincolor" points="5326.3,1401.8 5356.2,1470.8 5401.3,1470.8 5326.1,1297.1 5281,1297.1 5310.9,1366.1 5133.5,1366.1 
			5103.6,1297.1 5058.5,1297.1 5133.7,1470.8 5178.8,1470.8 5148.9,1401.8 		"/>
		<polygon class="maincolor" points="5722.5,1407.7 5809.8,1297.1 5743.3,1297.1 5686.7,1378.1 5560,1297.1 5493.4,1297.1 5677.8,1408.5 
			5704.8,1470.8 5749.8,1470.8 		"/>
		<path class="maincolor" d="M6273.4,1470.9c13.7-0.1,25.1-4.3,31.7-11.9c7.9-8.7,9.7-20.5,5.2-33.1c-2.3-6.2-7.5-16.9-12.4-23.6l-4.6-6
			c-5.9-7.2-7.7-8-16.7-14l0.3-5.4c0.7-11.1-2-23-7.8-34.9c-5.6-11.4-15.9-22.3-29.2-30.8c-14.3-9.1-31.2-14.2-46.6-14.2l-216.2,0
			l75.2,173.8L6273.4,1470.9z M6205.3,1332.6c8.6,0,17.9,5.5,20.9,12.2l4,8.9c3,6.8-1.5,12.4-10.1,12.5c0,0-0.1,0-0.1,0h-167.8
			l-14.5-33.6H6205.3z M6240.1,1401.4c8.6,0,17.9,5.5,20.9,12.2l4,8.9c3,6.8-1.5,12.4-10.1,12.5c0,0-0.1,0-0.1,0H6082l-14.5-33.6
			H6240.1z"/>
		<polygon class="maincolor" points="6942.2,1470.9 6987.2,1470.9 6912,1297.2 6866.9,1297.2 		"/>
		<path class="maincolor" d="M6774.7,1470.9l-102.4-57.3l25-2.5c14.2-1.4,24.6-7.9,28.5-17.7c2.2-5.4,3-11.4,2.5-17.7
			c-0.7-7.1-2.6-14.3-5.6-21.7c-5.5-13.5-14.9-26.1-29.4-37.5c-14.8-11.6-33.7-19.4-51.2-19.4l-220.4,0l75.2,173.8h45.1l-59.8-138.1
			h166.8c11.3,0,23.6,7.2,27.4,16.2l5,11.5c3.9,8.9-2.2,16.2-13.4,16.2h-124l164,94.2H6774.7z"/>
		<path class="maincolor" d="M7394.9,1456.4c9.4-10.5,10.9-25,4.2-40.2l-0.1-0.3c-4.8-11.9-9.8-23.9-14.9-35.8
			c-4.2-9.6-8.6-19.3-13.1-28.9c-12.3-29.5-52.6-53.7-90-54.1c-0.4,0-0.8,0-1.3,0l-200.8,0l75.2,173.8h200.7
			C7372.2,1471,7386.5,1465.8,7394.9,1456.4z M7354.6,1430.9c-2.7,3-7.1,4.7-12.4,4.9l-159.3,0l-44.7-103.3h160.2
			c11.2,0,23.4,7.2,27.3,16.1l30.7,71C7358.1,1423.9,7357.4,1428,7354.6,1430.9z"/>
	</g>
</g>
<g>
	<polygon class="accentcolor" points="8420.4,986.4 630.7,986.4 630.7,1155.9 8409.2,1155.9 	"/>
	<g>
		<polygon class="accentcolor" points="7109,1392 7076.1,1316.1 6954.2,1369 6987.1,1445 		"/>
		<path class="accentcolor" d="M7143,1287l138.3,0c15.8,0.4,31.2,4,45.6,10.3l233.3-101.4h-207.7L7143,1287z"/>
		<polygon class="accentcolor" points="7222.6,1342.7 7153.7,1342.7 7164.6,1367.9 		"/>
		<polygon class="accentcolor" points="6762.4,1452.4 6813.7,1481.1 6705.2,1481.1 6701.4,1478.9 6487.1,1572 6694.7,1572 6930.5,1469.6
			6897.6,1393.6 		"/>
		<polygon class="accentcolor" points="7319.3,1481.1 7147.5,1481.1 7141.8,1468 6902.4,1572 7110,1572 		"/>
		<path class="accentcolor" d="M7386.8,1361.5l6.6,14.6l15,36c4,8.4,5.6,17.7,4.7,27c0,0.4-0.1,0.8-0.1,1.2l562.4-244.4h-207.7
			L7386.8,1361.5z"/>
		<path class="accentcolor" d="M7239.1,1425.7l103.3,0c1.7,0,3.4-0.6,4.8-1.7c0-0.1-8.4-19.6-16.4-38.1L7239.1,1425.7z"/>

		<g>
				<path class="accent2color" d="M252.8,1354.5c66-49.2,112.4-120.3,130.8-200.4c4.7-8.9,9.6-18.5,14.9-28.8c23.8-44.5,59.8-82.9,104.5-111.7l30.2-18.6
				l-16.9,28.2c-8.1,13.3-13.8,27.7-17.1,42.6c0,0.1-8.6,66.3-8.6,66.3c-1.2,45.7-16.3,90.1-43.8,128.5
				c-45.6,52.3-112.9,85.8-186.6,92.9L252.8,1354.5z"/>

				<path class="accent2color" d="M350.3,1178.8c-39.5,46.9-88.9,84.8-144.6,110.8c1.3-6.7,2.5-13.5,3.6-20.5c6.4-42.6,15.1-75.2,34.9-114.6l0-0.1l1.3-2.5l0,0
				c26.8-49.4,61.2-80,111.5-110.5c36.1-22.6,76.7-38.9,119.7-47.9c14.4-2.9,29.1-4.9,43.8-5.8l-39.7,20.4
				c-5.5,3.1-48.1,41.2-57.8,51.9c-15.2,17.6-28.6,36.4-40.1,56.2L350.3,1178.8L350.3,1178.8z"/>
		</g>
	</g>
</g>
<g>
	<path class="maincolor" d="M1931.5,490.5l82.2-189.9l222.8,0c7.9-0.1,15.7,1.2,23.1,4c15.6,5.2,26.2,19.6,26.6,36.1
		c0.4,19.2-14,42.5-27.6,56.7c0.3,0.6,0.6,1.3,0.9,2c4.6,12.8-3.4,35.4-8.7,45.1c-8.8,15.7-21.9,28.6-37.8,37
		c-14.2,8.2-30.3,12.7-46.7,13.1c0,0-214.2,0-225.2,0l209.3,90.9h207.7h5402.2c155.6-101.8,333-165.9,517.8-187.1
		c-103.2-42.5-183.5-126.7-221-231.8c66.1,125.2,192.6,207.1,333.9,216.1c9.6,0.7,17.2,8.6,17.4,18.2c0.3,9.6-6.9,17.9-16.4,19.1
		c-145.2,3.7-336.2,71.1-390,165.5H8430V0h-585.7v209.6H1492.8h-207.6l241.7,105l-11.1-14.1h92.8l49.7,71.2l8.3,3.6l117-74.8h106
		l-165.3,99.9L1931.5,490.5z M2819.4,494.7l84-194.1h67.2l-84,194.1H2819.4z M2691.9,415.1c-14.2,11.1-31.2,18-49.1,19.8l-6.8,0.6
		l54.6,59.2H2596l-100.1-114.6h146.2c7-0.2,15.6-4.3,18.4-10.3l5.3-12.2c-1.2-0.8-2.5-1.2-3.9-1.1l-160.7,0l-59.8,138.1h-67.2
		l84-194.1l227,0c18.2-0.2,36.8,7.9,43.9,25.8c6,15,3.6,30.7-3.3,45.5c-3.8,8.4-8.7,16.4-14.3,23.6
		C2705.7,402.9,2699.1,409.4,2691.9,415.1z M3305.2,478.9c-17.5,10.1-37.3,15.5-57.4,15.8l-216.4,0l84-194.1l208.7,0
		c9,0,18,1.5,26.5,4.6c8.8,3,16.5,8.5,22.2,15.7c11,13.8,11,31.7,3.8,48.1l-11.9,28.9l-16.3,36.2c-4.7,10.5-11.5,19.9-19.9,27.6
		C3321.5,468.4,3313.7,474.1,3305.2,478.9z"/>
	<g>
		<path class="maincolor" d="M3264.9,439.3c0.1,0,0.2,0,0.3,0c7.2-0.7,16.2-4.3,19.4-10.6l29.7-68.5c0.8-1.8-0.6-4-2.6-3.9c0,0,0,0,0,0
			l-152.3,0c-1.1,0-2.1,0.7-2.5,1.7l-33.5,77.5c-0.8,1.8,0.6,3.9,2.5,3.9L3264.9,439.3z"/>
		<path class="maincolor" d="M2213.8,356.3l-155.2,0c-1.1,0-2.1,0.7-2.5,1.7l-3.3,7.7c-0.8,1.8,0.6,3.9,2.5,3.9l148,0
			c4.4-0.1,10.1-2.8,11.8-6.5l1.2-2.9C2217.1,358.4,2215.8,356.3,2213.8,356.3z"/>
		<path class="maincolor" d="M2189,425.2l-160.2,0c-1.1,0-2.1,0.7-2.5,1.7l-3.3,7.7c-0.8,1.8,0.6,3.9,2.5,3.9l153,0
			c4.4-0.1,10.1-2.8,11.8-6.5l1.2-2.9C2192.3,427.2,2191,425.2,2189,425.2z"/>
	</g>
	<polygon class="maincolor" points="246.9,209.6 39.2,209.6 908,585.7 1112.3,585.7 	"/>
	<g>
		<path class="maincolor" d="M8181.4,440.2l-9.7-6c-35,7.2-69.5,16.6-103.2,28.1l19,8C8117.8,457.6,8149.2,447.5,8181.4,440.2z"/>
		<path class="maincolor" d="M8028.7,499.2l-29.8-9.5c-43.9,19.6-86.2,42.9-126.3,69.9h69.7C7969.3,536.7,7998.2,516.5,8028.7,499.2z"/>
	</g>
	<g>
		<polygon class="maincolor" points="1278.9,415.4 1249,484.5 1294.1,484.5 1369.3,310.7 1324.2,310.7 1294.3,379.8 1116.9,379.8 
			1146.8,310.7 1101.7,310.7 1026.5,484.5 1071.6,484.5 1101.5,415.4 		"/>
		<polygon class="maincolor" points="1670,421.4 1853.1,310.7 1786.5,310.7 1659.8,391.7 1603.2,310.7 1536.7,310.7 1624.6,422.1 
			1597.6,484.5 1642.6,484.5 		"/>
		<path class="maincolor" d="M2166.1,484.6c13.8-0.1,28.8-4.3,42-11.9c15.4-8.7,27.5-20.5,33.8-33.1c3.1-6.2,7.1-16.9,8-23.6l0.6-6
			c0.3-7.2-0.8-8-4.6-14l5-5.4c10.3-11.1,17.9-23,22.4-34.9c4.3-11.4,3.4-22.3-2.6-30.8c-6.4-9.1-18.9-14.2-34.3-14.2l-216.2,0
			l-75.2,173.8L2166.1,484.6z M2217.8,346.2c8.6,0,13.2,5.5,10.3,12.2l-3.7,8.9c-2.9,6.8-12.2,12.4-20.8,12.5c0,0-0.1,0-0.1,0
			h-167.8l14.5-33.6H2217.8z M2193,415.1c8.6,0,13.2,5.5,10.3,12.2l-3.7,8.9c-2.9,6.8-12.2,12.4-20.8,12.5c0,0-0.1,0-0.1,0h-172.8
			l14.5-33.6H2193z"/>
		<polygon class="maincolor" points="2834.9,484.6 2880,484.6 2955.2,310.8 2910.1,310.8 		"/>
		<path class="maincolor" d="M2667.5,484.6l-52.8-57.3l27.1-2.5c15.4-1.4,31.4-7.9,43.9-17.7c6.9-5.4,12.9-11.4,17.8-17.7
			c5.4-7.1,9.8-14.3,13.1-21.7c6.2-13.5,7.7-26.1,3.1-37.5c-4.7-11.6-16.9-19.4-34.4-19.4l-220.4,0l-75.2,173.8h45.1l59.8-138.1
			h166.8c11.3,0,17.3,7.2,13.4,16.2l-5,11.5c-3.9,8.9-16.2,16.2-27.4,16.2h-124l82.4,94.2H2667.5z"/>
		<path class="maincolor" d="M3300.2,470.1c18.4-10.5,32.6-25,39-40.2l0.1-0.3c5.5-11.9,10.9-23.9,16.1-35.8c4.1-9.6,8.1-19.3,11.9-28.9
			c13.3-29.5-6.1-53.7-43.2-54.1c-0.4,0-0.8,0-1.3,0l-200.8,0l-75.2,173.8h200.7C3264.8,484.6,3283.7,479.4,3300.2,470.1z
			 M3282,444.6c-5.2,3-11.2,4.7-16.7,4.9l-159.3,0l44.7-103.3H3311c11.2,0,17.2,7.2,13.4,16.1l-30.7,71
			C3291.5,437.5,3287.3,441.6,3282,444.6z"/>
	</g>
</g>
<g>
	<polygon class="accentcolor" points="9.6,0 7799.3,0 7799.3,169.5 20.7,169.5 	"/>
	<polygon class="accentcolor" points="1092.5,306.4 1095.1,300.6 1162.3,300.6 1149.1,331 1238,369.6 1287.7,369.6 1312.7,311.8
		1077.5,209.6 869.8,209.6 	"/>
	<polygon class="accentcolor" points="1662.6,463.9 1649.3,494.6 1582.1,494.6 1606,439.3 1369.3,336.4 1336.4,412.4 1735.2,585.7
		1942.9,585.7 	"/>
	<polygon class="accentcolor" points="1026.8,458.3 1059.7,382.3 662.2,209.6 454.5,209.6 	"/>
	<polygon class="accentcolor" points="1159.1,425.6 1108.2,425.6 1083.4,482.9 1319.9,585.7 1527.6,585.7 1303.5,488.3 1300.8,494.6
		1233.6,494.6 1246.9,463.7 	"/>
	<g>
			<path class="accent2color" d="
			M8177.2,368.2c-66-49.2-112.4-120.3-130.8-200.4c-4.7-8.9-9.6-18.5-14.9-28.8c-23.8-44.5-59.8-82.9-104.5-111.7l-30.2-18.6
			l16.9,28.2c8.1,13.3,13.8,27.7,17.1,42.6c0,0.1,8.6,66.3,8.6,66.3c1.2,45.7,16.3,90.1,43.8,128.5c45.6,52.3,112.9,85.8,186.6,92.9
			L8177.2,368.2z"/>

			<path class="accent2color" d="
			M8079.6,192.4c39.5,46.9,88.9,84.8,144.6,110.8c-1.3-6.7-2.5-13.5-3.6-20.5c-6.4-42.6-15.1-75.2-34.9-114.6l0-0.1l-1.3-2.5l0,0
			c-26.8-49.4-61.2-80-111.5-110.5c-36.1-22.6-76.7-38.9-119.7-47.9c-14.4-2.9-29.1-4.9-43.8-5.8l39.7,20.4
			c5.5,3.1,48.1,41.2,57.8,51.9c15.2,17.6,28.6,36.4,40.1,56.2L8079.6,192.4L8079.6,192.4z"/>
	</g>
</g>
</svg>
