<?xml version="1.0" encoding="utf-8"?>
<!-- Generator: Adobe Illustrator 27.9.1, SVG Export Plug-In . SVG Version: 6.00 Build 0)  -->
<svg class="w" version="1.1" xmlns="http://www.w3.org/2000/svg" xmlns:xlink="http://www.w3.org/1999/xlink" x="0px" y="0px"
	 viewBox="0 0 8492.8 1199.9" style="enable-background:new 0 0 8492.8 1199.9;" xml:space="preserve">
     $gradientDefs

	<path class="maincolor" d="M7716,4.1c20.7,45,40.7,98.7,57.4,156.2l31.3-0.7c0,0,256.3-17.8,352.4-23.2c229.1-12.9,237-49,333.8-126.4
	c3.7-2.9,1.7-9.9-2.9-9.9C8322.3,0.1,8231.7,1.6,7716,4.1z"/>
	<path class="maincolor" d="M5579.4,212.7c13.9-76.9,45.2-155.3,64.7-202c-656.8,1.5-1482.3,3.2-2525.3,4.8c-1666.4,2.6-2829.9-5-2829.9-5
	L0.1,11.1c0,0,32.8,178.9,32.2,354.4c0,0,228.3,6.5,294.6,10.1c580.3,31.6,1511.7,41.9,2509.7,50.9l74.7,0.9
	c472.8,4.3,960,8.4,1431.5,14.4c127.6,1.6,197.3,13.2,376.2-69.1c96.1-44.2,271.1-134.2,312.6-154c18.5-8.9,52.7-7.4,52.7-7.4
	l466.1,2L5579.4,212.7z"/>
	<path class="accentcolor" d="M7721.7,16.8c2.7,6.2,5.5,12.5,8.2,19c172.9-0.9,345.8-1.9,518.7-3c55.4-0.4,110.8-0.7,166.3-0.9
	c-5.7,4.6-11.4,9.1-17.2,13.6c-34.1,26.1-70.6,38.3-114.3,45.8c-14.8,2.6-29.6,4.7-44.4,6.4c-27.9,2.9-55.8,5.2-83.7,6.8
	c-117.3,7.2-234.6,15-351.9,23.1l-39.4,0.9c2,6.3,4,12.6,5.9,18.9l34.4-0.8c117.4-8.2,234.8-15.9,352.2-23.2
	c28.3-1.6,56.5-3.9,84.7-6.9c15.3-1.8,30.5-3.9,45.6-6.6c47-8.1,86-21.4,122.7-49.5c10.9-8.3,21.6-17,32-25.9
	c8.6-7.4,17.4-14.8,26.1-22c-73,0.2-145.9,0.5-218.9,1C8072.9,14.9,7897.3,15.9,7721.7,16.8z"/>
	<path class="accentcolor" d="M5581.9,199.9c1.3-6.4,2.7-12.8,4.2-19.2l-36.1,0.9l-465.1-2c-21.9-0.5-47.6,1.1-67.2,10.5
	c-29.4,14.2-58.6,28.8-87.7,43.7c-38.7,19.5-77.5,38.8-116.4,58.1c-35.8,17.8-71.9,35.1-108.2,52.1c-31,14.4-62.7,27.3-95.1,38.6
	c-29.5,10.3-59.8,18-90.6,23c-29.8,4.4-59.9,6.5-90,6.1l-86.8-1.5c-477.2-5.6-954.3-10.4-1431.5-14.4l-74.7-0.9
	c-423.2-3.5-846.4-8.3-1269.6-14.6c-212-3.3-424-7.7-636-13.2c-198.2-5.3-409.9-12.8-602.7-23c-50.8-2.7-199.1-7.3-264.8-9.3
	C62.2,241.4,52.1,137,37.5,42.8L289,42.3c668.3,3.7,1336.5,5.5,2004.8,5.5c275.1,0.1,550.1-0.1,825.2-0.5
	c940.9-1.5,1698.6-2.9,2512.3-4.9c2.7-6.7,5.3-13.1,7.7-19.1c-816.6,2-1576.2,3.4-2520,4.9c-275,0.4-550.1,0.6-825.1,0.5
	C1625.5,28.8,957.3,27,289,23.2L15.1,23.8c17.6,106.3,29.2,224.1,29.8,329.4c69.4,2,228.1,6.9,282.6,9.8
	c195.3,10.3,404,17.7,603.2,23.1c212,5.6,424.1,10,636.2,13.2c423.2,6.3,846.5,11.2,1269.7,14.6l74.7,0.9
	c477.2,3.9,954.3,8.7,1431.5,14.4l86.7,1.5c31.2,0.4,62.4-1.7,93.2-6.3c31.9-5.2,63.4-13.1,93.9-23.8c32.9-11.5,65.2-24.6,96.8-39.3
	c36.4-17,72.6-34.4,108.6-52.3c38.9-19.3,77.7-38.7,116.5-58.2c29-14.7,58.1-29.2,87.3-43.5c15.7-7.6,40.4-9,58.5-8.7l465.8,2
	L5581.9,199.9z"/>

	<text class="textcolor" transform="matrix(1 2.570823e-03 -2.570823e-03 1 383.3981 280.7154)" style="font-family:'Square721-Cn-Bold'; font-size:262.946px; text-anchor: start;">
		<tspan x="0" y="0">CUSTOM TEXT/LOGO</tspan>
	</text>


<path class="maincolor" d="M776.8,760.6c-20.7,45-40.7,98.7-57.4,156.2l-31.3-0.7c0,0-256.3-17.8-352.4-23.2
	c-229.1-12.9-237-49-333.8-126.4c-3.7-2.9-1.7-9.9,2.9-9.9C170.6,756.6,261.2,758.2,776.8,760.6z"/>
<path class="maincolor" d="M2913.4,969.3c-13.9-76.9-45.2-155.3-64.7-202c656.8,1.5,1482.3,3.2,2525.3,4.8c1666.4,2.6,2829.9-5,2829.9-5
	l288.9,0.6c0,0-32.8,178.9-32.2,354.4c0,0-228.3,6.5-294.6,10.1c-580.3,31.6-1511.7,41.9-2509.7,50.9l-74.7,0.9
	c-472.8,4.3-960,8.4-1431.5,14.4c-127.6,1.6-197.3,13.2-376.2-69.1c-96.1-44.2-271.1-134.2-312.6-154c-18.5-8.9-52.7-7.4-52.7-7.4
	l-466.1,2L2913.4,969.3z"/>
<path class="accentcolor" d="M771.1,773.3c-2.7,6.2-5.5,12.5-8.2,19c-172.9-0.9-345.8-1.9-518.7-3c-55.4-0.4-110.8-0.7-166.3-0.9
	c5.7,4.6,11.4,9.1,17.2,13.6c34.1,26.1,70.6,38.3,114.3,45.8c14.8,2.6,29.6,4.7,44.4,6.4c27.9,2.9,55.8,5.2,83.7,6.8
	c117.3,7.2,234.6,15,351.9,23.1l39.4,0.9c-2,6.3-4,12.6-5.9,18.9l-34.4-0.8c-117.4-8.2-234.8-15.9-352.2-23.2
	c-28.3-1.6-56.5-3.9-84.7-6.9c-15.3-1.8-30.5-3.9-45.6-6.6c-47-8.1-86-21.4-122.7-49.5c-10.9-8.3-21.6-17-32-25.9
	c-8.6-7.4-17.4-14.8-26.1-22c73,0.2,145.9,0.5,218.9,1C419.9,771.5,595.5,772.5,771.1,773.3z"/>
<path class="accentcolor" d="M2910.9,956.5c-1.3-6.4-2.7-12.8-4.2-19.2l36.1,0.9l465.1-2c21.9-0.5,47.6,1.1,67.2,10.5
	c29.4,14.2,58.6,28.8,87.7,43.7c38.7,19.5,77.5,38.8,116.4,58.1c35.8,17.8,71.9,35.1,108.2,52.1c31,14.4,62.7,27.3,95.1,38.6
	c29.5,10.3,59.8,18,90.6,23c29.8,4.4,59.9,6.5,90,6.1l86.8-1.5c477.2-5.6,954.3-10.4,1431.5-14.4l74.7-0.9
	c423.2-3.5,846.4-8.3,1269.6-14.6c212-3.3,424-7.7,636-13.2c198.2-5.3,409.9-12.8,602.7-23c50.8-2.7,199.1-7.3,264.8-9.3
	c1.5-93.3,11.7-197.6,26.3-291.8l-251.5-0.5c-668.3,3.7-1336.5,5.5-2004.8,5.5c-275.1,0.1-550.1-0.1-825.2-0.5
	c-940.9-1.5-1698.6-2.9-2512.3-4.9c-2.7-6.7-5.3-13.1-7.7-19.1c816.6,2,1576.2,3.4,2520,4.9c275,0.4,550.1,0.6,825.1,0.5
	c668.3,0.1,1336.5-1.8,2004.8-5.5l273.9,0.6c-17.6,106.3-29.2,224.1-29.8,329.4c-69.4,2-228.1,6.9-282.6,9.8
	c-195.3,10.3-404,17.7-603.2,23.1c-212,5.6-424.1,10-636.2,13.2c-423.2,6.3-846.5,11.2-1269.7,14.6l-74.7,0.9
	c-477.2,3.9-954.3,8.7-1431.5,14.4l-86.7,1.5c-31.2,0.4-62.4-1.7-93.2-6.3c-31.9-5.2-63.4-13.1-93.9-23.8
	c-32.9-11.5-65.2-24.6-96.8-39.3c-36.4-17-72.6-34.4-108.6-52.3c-38.9-19.3-77.7-38.7-116.5-58.2c-29-14.7-58.1-29.2-87.3-43.5
	c-15.7-7.6-40.4-9-58.5-8.7l-465.8,2L2910.9,956.5z"/>

	<text class="textcolor" transform="matrix(1 2.570823e-03 -2.570823e-03 1 8120.9297 1037.2816)" style="font-family:'Square721-Cn-Bold'; font-size:262.946px; text-anchor: end;">
		<tspan x="0" y="0">CUSTOM TEXT/LOGO</tspan>
	</text>

</svg>
