<?xml version="1.0" encoding="UTF-8"?>
<svg id="Layer_2" data-name="Layer 2" xmlns="http://www.w3.org/2000/svg" viewBox="0 0 1121 773">
  <defs>
    <style>
      .cls-1, .cls-2 {
        fill: #fff;
      }

      .cls-2, .cls-3, .cls-4 {
        fill-rule: evenodd;
      }

      .cls-5 {
        opacity: .3;
      }

      .cls-3 {
        fill: #0fa0ea;
      }

      .cls-6 {
        mask: url(#mask-2-2);
      }

      .cls-7 {
        mask: url(#mask-1);
      }

      .cls-8 {
        mask: url(#mask);
      }

      .cls-4 {
        fill: #060809;
      }
    </style>
    <mask id="mask" x="147" y="384.12" width="121.96" height="139.08" maskUnits="userSpaceOnUse">
      <g id="mask-2">
        <polygon id="path-1" class="cls-2" points="147 384.12 268.96 384.12 268.96 523.19 147 523.19 147 384.12"/>
      </g>
    </mask>
    <mask id="mask-1" x="146.99" y="204.77" width="798.02" height="318.42" maskUnits="userSpaceOnUse">
      <g id="mask-4">
        <polygon id="path-3" class="cls-2" points="146.99 523.19 945.01 523.19 945.01 204.77 146.99 204.77 146.99 523.19"/>
      </g>
    </mask>
    <mask id="mask-2-2" x="146.99" y="204.77" width="798.02" height="318.42" maskUnits="userSpaceOnUse">
      <g id="mask-4-2">
        <polygon id="path-3-2" class="cls-2" points="146.99 523.19 945.01 523.19 945.01 204.77 146.99 204.77 146.99 523.19"/>
      </g>
    </mask>
  </defs>
  <g id="payment_methods">
    <g>
      <rect class="cls-1" x="75.18" y="75.19" width="940.72" height="592.13" rx="61.52" ry="61.52"/>
    </g>
    <g>
      <g class="cls-8">
        <path id="Fill-1" class="cls-4" d="m199.33,495.76c-9.87,0-14.79-4.85-14.79-12.86,0-14.82,16.59-19.9,46.88-23.1,0,19.83-13.41,35.96-32.09,35.96m13.06-111.64c-21.63,0-46.54,10.21-60.06,20.98l12.35,25.99c10.84-9.92,28.37-18.4,44.19-18.4s23.32,5.02,23.32,15.13c0,6.83-5.5,10.26-15.9,11.6-38.81,5.06-69.27,15.76-69.27,45.69,0,23.72,16.89,38.09,43.29,38.09,18.82,0,35.59-10.47,43.57-24.29v20.41h35.1v-85.53c0-35.33-24.55-49.67-56.57-49.67"/>
      </g>
      <path id="Fill-4" class="cls-4" d="m564.84,387.98v131.35h37.57v-63.28c0-30.09,18.2-38.92,30.9-38.92,4.95,0,11.64,1.43,16.06,4.74l6.85-34.73c-5.8-2.48-11.87-3.02-16.84-3.02-19.32,0-31.45,8.56-39.47,25.93v-22.08h-35.08Z"/>
      <path id="Fill-6" class="cls-4" d="m830.39,384.12c-19.87,0-34.71,11.75-42.44,23.07-7.18-14.63-22.4-23.07-40.6-23.07-19.87,0-33.61,11.04-39.96,23.72v-19.87h-36.21v131.35h37.59v-67.61c0-24.29,12.7-35.91,24.57-35.91,10.74,0,20.61,6.95,20.61,24.87v78.65h37.54v-67.61c0-24.55,12.42-35.91,24.84-35.91,9.92,0,20.4,7.22,20.4,24.61v78.92h37.54v-90.79c0-29.52-19.87-44.42-43.87-44.42"/>
      <path id="Fill-8" class="cls-4" d="m473.4,387.98h-34.04v-13.36c0-17.37,9.92-22.34,18.49-22.34,9.45,0,16.81,4.19,16.81,4.19l11.59-26.48s-11.75-7.68-33.1-7.68c-24.01,0-51.32,13.53-51.32,56.01v9.66h-56.98v-13.36c0-17.37,9.92-22.34,18.47-22.34,4.86,0,11.41,1.13,16.82,4.19l11.59-26.48c-6.92-4.07-18.03-7.68-33.1-7.68-24.01,0-51.32,13.53-51.32,56.01v9.66h-21.79v28.98h21.79v102.37h37.54v-102.37h56.98v102.37h37.54v-102.37h34.04v-28.98Z"/>
      <g class="cls-7">
        <polygon id="Fill-10" class="cls-4" points="495.81 519.33 533.31 519.33 533.31 387.98 495.81 387.98 495.81 519.33"/>
      </g>
      <g class="cls-6">
        <path id="Fill-12" class="cls-3" d="m714.6,204.77c-101.4,0-191.78,70.39-217.43,160.89h36.76c21.42-67.4,94.15-126.56,180.67-126.56,105.17,0,196.06,80.07,196.06,204.71,0,27.99-3.63,53.21-10.49,75.5h35.66l.35-1.22c5.84-23,8.81-47.98,8.81-74.28,0-139.01-101.29-239.05-230.4-239.05"/>
      </g>
    </g>
  </g>
</svg>