<?xml version="1.0" encoding="UTF-8"?>
<svg id="Layer_2" data-name="Layer 2" xmlns="http://www.w3.org/2000/svg" viewBox="0 0 1122 773">
  <defs>
    <style>
      .cls-1 {
        fill: #fff;
      }
    </style>
  </defs>
  <g id="payment_methods">
    <g>
      <rect class="cls-1" x="75.31" y="75.19" width="940.72" height="592.13" rx="61.52" ry="61.52"/>
    </g>
    <g>
      <path d="m204.02,383.01c0-13.57-10.21-23.11-22.74-23.11s-22.74,9.7-22.74,23.11,10.21,23.11,22.74,23.11c12.55-.01,22.74-9.54,22.74-23.11Zm.18,40.39v-10.5c-6.19,7.27-15.39,11.79-26.42,11.79-22.91,0-40.3-17.78-40.3-41.68s18.06-41.84,40.81-41.84c10.71,0,19.74,4.53,25.92,11.63v-10.18h20.57v80.78h-20.58Z"/>
      <path d="m324.69,405.47c-7.2,0-9.2-2.59-9.2-9.36v-35.86h13.22v-17.62h-13.22v-19.71h-21.08v19.71h-27.15v-4.91c0-6.79,2.68-9.38,10.04-9.38h4.62v-15.67h-10.14c-17.39,0-25.59,5.49-25.59,22.29v7.66h-11.71v17.62h11.71v63.16h21.08v-63.16h27.15v39.59c0,16.48,6.52,23.59,23.58,23.59h10.87v-17.94h-4.19Z"/>
      <path d="m400.28,375.74c-1.5-10.5-10.37-16.8-20.73-16.8s-18.9,6.14-21.07,16.8h41.8Zm-41.98,12.61c1.51,11.95,10.37,18.74,21.58,18.74,8.86,0,15.73-4.05,19.73-10.5h21.58c-5.02,17.12-20.91,28.11-41.81,28.11-25.25,0-42.98-17.12-42.98-41.52s18.74-42.01,43.49-42.01,42.98,17.78,42.98,42.01c0,1.78-.17,3.55-.5,5.17h-64.07Z"/>
      <path d="m556.9,383.01c0-13.09-10.21-23.11-22.74-23.11s-22.74,9.7-22.74,23.11,10.21,23.11,22.74,23.11c12.54-.01,22.74-10.02,22.74-23.11Zm-66.24-40.39h20.57v10.5c6.19-7.43,15.38-11.95,26.42-11.95,22.58,0,40.3,17.94,40.3,41.68s-18.06,41.85-40.8,41.85c-10.54,0-19.24-4.05-25.25-10.82v42.77h-21.23v-114.02Z"/>
      <path d="m652.09,383.01c0-13.57-10.19-23.11-22.75-23.11s-22.74,9.7-22.74,23.11,10.21,23.11,22.74,23.11c12.55-.01,22.75-9.54,22.75-23.11Zm.18,40.39v-10.5c-6.19,7.27-15.4,11.79-26.42,11.79-22.91,0-40.3-17.78-40.3-41.68s18.06-41.84,40.8-41.84c10.71,0,19.74,4.53,25.92,11.63v-10.18h20.57v80.78h-20.57Z"/>
      <path d="m453.59,350.54s5.24-9.36,18.06-9.36c5.48,0,9.03,1.82,9.03,1.82v20.61s-7.74-4.61-14.84-3.69c-7.11.93-11.6,7.24-11.58,15.67v47.82h-21.23v-80.78h20.57v7.9Z"/>
      <path d="m768.89,342.62l-51.93,113.76h-21.9l20.39-43.98-34.47-69.78h24.82l20.17,46.62,20.7-46.62h22.23Z"/>
      <path d="m934.66,340.79l-51.48-28.7c-15.11-8.42-34,2.1-34,18.96v2.94c0,2.66,1.47,5.12,3.85,6.45l9.72,5.42c2.85,1.6,6.41-.4,6.41-3.58v-7.32c0-3.66,4.1-5.95,7.38-4.12l44.59,24.86c3.28,1.83,3.28,6.41,0,8.23l-44.59,24.86c-3.28,1.83-7.38-.46-7.38-4.12v-3.9c0-16.86-18.89-27.4-34.01-18.96l-51.48,28.7c-15.11,8.42-15.11,29.5,0,37.93l51.48,28.7c15.11,8.42,34.01-2.1,34.01-18.96v-2.94c0-2.66-1.47-5.11-3.85-6.45l-9.72-5.43c-2.85-1.6-6.41.4-6.41,3.58v7.32c0,3.66-4.1,5.95-7.38,4.12l-44.59-24.86c-3.28-1.83-3.28-6.41,0-8.24l44.59-24.87c3.28-1.83,7.38.46,7.38,4.12v3.9c0,16.86,18.89,27.4,34,18.96l51.48-28.7c15.11-8.4,15.11-29.48,0-37.9Z"/>
    </g>
  </g>
</svg>