<?xml version="1.0" encoding="UTF-8"?>
<svg id="Layer_2" data-name="Layer 2" xmlns="http://www.w3.org/2000/svg" viewBox="0 0 1122 773">
  <defs>
    <style>
      .cls-1 {
        fill: #fff;
      }

      .cls-3 {
        fill: #1a1a1a;
      }

      .cls-4 {
        fill: #f90;
      }
    </style>
  </defs>
  <g id="payment_methods">
    <g id="amazon_pay">
      <g>
        <rect class="cls-1" x="75.88" y="75.84" width="940.72" height="592.13" rx="61.52" ry="61.52"/>
      </g>
      <path class="cls-3" d="m516.31,368.97c10.56,5.86,22.01,6.57,33.63,4.79,13.4-2.04,25.29-7.72,35.76-16.33.36-.35.8-.62,1.42-.98.53,3.37.98,6.57,1.6,9.76.53,2.75,2.22,4.53,4.79,4.61,4.79.09,9.67.09,14.46,0,2.4-.09,3.99-1.69,4.26-4.17.09-.8.09-1.69.09-2.48v-94.07c0-3.82-.18-7.63-.8-11.45-1.69-11.45-6.57-20.85-16.86-26.98-5.95-3.55-12.51-5.32-19.35-6.3-3.19-.44-6.39-.71-9.58-1.15-3.46.09-7.01.09-10.56.09h0c-.89.09-1.77.27-2.57.35-8.7.44-17.22,1.51-25.65,3.64-5.41,1.42-10.65,3.37-15.89,5.15-3.19,1.06-4.79,3.37-4.7,6.83.09,2.93-.09,5.86,0,8.79.09,4.26,1.86,5.41,6.03,4.35,6.92-1.77,13.84-3.73,20.85-5.06,10.92-2.04,21.92-2.93,33.01-1.24,5.77.89,11.18,2.57,14.91,7.45,3.28,4.26,4.53,9.32,4.7,14.55.27,7.37.18,14.73.27,22.1,0,.35-.09.8-.18,1.24-.44-.09-.8,0-1.15-.09-9.32-2.22-18.72-3.82-28.4-4.35-10.03-.53-19.97.09-29.55,3.46-11.45,3.99-20.68,10.92-26.09,22.1-4.17,8.7-4.79,17.93-3.46,27.24,1.78,12.42,7.99,22.01,18.99,28.13Zm9.41-46.06c2.22-7.37,7.45-11.54,14.55-13.84,7.19-2.31,14.64-2.66,22.01-1.95,7.45.62,14.73,2.04,22.19,3.02,1.42.18,1.86.89,1.86,2.31-.09,4.26,0,8.43,0,12.69-.09,4.17-.18,8.34-.09,12.51,0,1.15-.36,1.95-1.33,2.66-9.94,7.19-20.85,11.98-33.19,13.22-5.06.53-10.12.35-14.91-1.6-5.59-2.22-9.23-6.12-11-11.8-1.77-5.68-1.77-11.54-.09-17.22Z"/>
      <path class="cls-3" d="m349.56,428.78c6.21.09,12.51.09,18.72,0,2.57,0,4.17-1.77,4.44-4.44.09-.89.09-1.77.09-2.66v-64.25c.98.8,1.51,1.24,1.95,1.69,15.88,13.22,34.17,17.57,54.13,13.67,18.1-3.55,30.71-14.64,38.87-30.97,6.21-12.34,8.79-25.47,9.14-39.14.44-15.18-1.07-30.08-7.19-44.19-7.54-17.39-20.06-28.84-38.96-32.75-2.84-.62-5.77-.89-8.7-1.33-2.48-.09-4.88-.09-7.37-.09h0c-1.24.18-2.57.35-3.82.53-12.42,1.51-23.61,6.12-33.72,13.4-2.13,1.51-4.08,3.11-6.3,4.79-.18-.44-.36-.89-.36-1.24-.35-2.4-.71-4.88-1.15-7.28-.62-4.08-2.66-5.86-6.74-5.86h-10.21c-6.12,0-7.28,1.15-7.28,7.28v185.74c0,.89,0,1.77.09,2.66.18,2.66,1.77,4.35,4.35,4.44Zm23.07-129.92c0-12.42.09-24.85,0-37.36h0c0-1.33.35-2.13,1.51-2.93,12.16-8.43,25.56-12.87,40.47-11.71,13.22.98,24.05,7.45,29.73,22.98,3.46,9.5,4.35,19.35,4.35,29.29,0,9.23-.71,18.28-3.55,27.16-6.03,18.9-19.88,26.09-37.8,25.29-12.42-.53-23.25-5.32-33.19-12.34-1.06-.8-1.51-1.51-1.51-2.93.09-12.51,0-24.94,0-37.45Z"/>
      <path class="cls-3" d="m632.57,238.07c17.39,43.04,34.88,86.17,52.45,129.12,1.51,3.64,1.86,6.74.18,10.47-2.93,6.48-5.24,13.31-8.25,19.79-2.66,5.77-7.1,10.12-13.49,11.8-4.53,1.24-9.05,1.42-13.67.98-2.22-.18-4.44-.71-6.66-.89-3.02-.18-4.53,1.15-4.61,4.26-.09,2.93-.09,5.86,0,8.79.09,4.88,1.77,7.1,6.57,7.9,4.97.89,10.03,1.69,15,1.77,15.18.35,27.24-5.77,35.05-18.99,3.11-5.24,5.95-10.74,8.16-16.33,21.03-53.07,41.8-106.23,62.65-159.38.62-1.6,1.15-3.19,1.42-4.88.36-2.48-.8-3.9-3.28-3.9-5.86-.09-11.8,0-17.66,0-3.28,0-5.59,1.42-6.83,4.61-.44,1.24-.98,2.4-1.42,3.64-10.29,29.55-20.59,59.1-30.88,88.74-2.22,6.39-4.53,12.87-6.83,19.7-.36-.98-.53-1.51-.8-2.13h0c-11.45-31.68-22.9-63.45-34.34-95.13-1.77-5.06-3.73-10.03-5.59-15-.98-2.57-2.84-4.26-5.68-4.26-6.74-.09-13.49-.18-20.32-.09-2.22,0-3.28,1.77-2.84,3.99.44,1.86.98,3.64,1.69,5.41Z"/>
      <path class="cls-4" d="m808.81,445.11c-6.03-2.04-12.34-2.93-18.64-3.46-11.63-.98-23.25-.44-34.79,1.69-12.69,2.4-24.76,6.48-35.5,13.84-1.24.89-2.48,1.86-3.28,3.11-.62.98-.8,2.48-.44,3.55.35,1.33,1.86,1.69,3.19,1.6.62,0,1.33,0,1.95-.09,6.92-.71,13.76-1.51,20.68-2.22,10.12-.98,20.32-1.6,30.44-.8,4.26.27,8.61,1.24,12.78,2.4,4.53,1.24,6.57,4.61,6.74,9.23.36,7.1-1.24,13.93-3.11,20.68-3.64,13.67-8.87,26.89-14.02,40.02-.36.89-.71,1.77-.89,2.66-.44,2.57,1.07,4.26,3.64,3.64,1.51-.35,3.19-1.15,4.26-2.22,3.9-3.82,7.9-7.63,11.27-11.89,11.36-14.55,18.01-31.33,21.92-49.34.71-3.19,1.24-6.48,1.86-9.67v-15.35c-.89-4.44-4.26-6.12-8.08-7.37Zm-45.35,36.47c-2.84-.71-5.5,0-8.08,1.06-46.5,19.52-94.87,32.04-144.92,37.98-15.35,1.77-30.79,3.02-46.24,3.37-28.22.71-56.35-.89-84.31-4.61-18.9-2.48-37.54-6.03-56.09-10.47-39.22-9.5-76.94-22.98-113.06-41.09-9.41-4.7-18.46-9.85-27.69-14.82-3.99-2.13-6.57-1.51-8.61,2.22v1.77c1.24,1.69,2.31,3.64,3.9,5.06,38.16,34.08,81.2,59.81,129.21,77.21,23.25,8.43,47.03,14.55,71.35,18.55,14.82,2.4,29.73,4.08,44.73,4.7,3.11.09,6.3.18,9.5.35.71,0,1.51.18,2.22.27h18.72c.71-.09,1.51-.27,2.22-.27,15.8-.35,31.59-1.95,47.21-4.26,22.63-3.37,44.82-8.61,66.65-15.62,31.41-10.21,61.14-23.78,88.39-42.51,2.93-2.04,6.03-4.08,8.52-6.57,4.35-4.35,2.31-10.74-3.64-12.34Z"/>
    </g>
  </g>
</svg>