<?xml version="1.0" encoding="UTF-8"?>
<svg id="Layer_2" data-name="Layer 2" xmlns="http://www.w3.org/2000/svg" viewBox="0 0 1122 773">
  <defs>
    <style>
      .cls-1 {
        fill: #fff;
      }

      .cls-3 {
        fill: #2478bc;
      }
    </style>
  </defs>
  <g id="payment_methods">
    <g id="amex">
      <g>
        <rect class="cls-1" x="75.88" y="75" width="940.72" height="592.13" rx="61.52" ry="61.52"/>
      </g>
      <path class="cls-3" d="m250.53,275.31l-86.9,192.31h104.03l12.9-30.66h29.48l12.9,30.66h114.51v-23.4l10.2,23.4h59.23l10.2-23.9v23.9h238.15l28.96-29.87,27.12,29.87,122.32.25-87.18-95.87,87.18-96.69h-120.42l-28.19,29.31-26.26-29.31h-259.08l-22.25,49.64-22.77-49.64h-103.82v22.61l-11.55-22.61s-88.77,0-88.77,0Zm20.13,27.31h50.71l57.64,130.41v-130.41h55.55l44.52,93.5,41.03-93.5h55.27v138h-33.63l-.27-108.13-49.03,108.13h-30.09l-49.31-108.13v108.13h-69.19l-13.12-30.94h-70.87l-13.09,30.91h-37.07s60.94-137.97,60.94-137.97Zm335.5,0h136.76l41.83,45.18,43.18-45.18h41.83l-63.55,69.36,63.55,68.56h-43.73l-41.83-45.71-43.4,45.71h-134.64v-137.91h0Zm-310.83,23.35l-23.35,55.11h46.67l-23.32-55.11Zm344.6,5.22v25.19h74.61v28.08h-74.61v27.5h83.68l38.88-40.51-37.23-40.29h-85.33v.02Z"/>
    </g>
  </g>
</svg>