<?xml version="1.0" encoding="UTF-8"?>
<svg id="Layer_2" data-name="Layer 2" xmlns="http://www.w3.org/2000/svg" viewBox="0 0 1121 773">
  <defs>
    <style>
      .cls-1 {
        fill: #fff;
      }
      .cls-3 {
        fill: #1a1a1a;
      }
    </style>
  </defs>
  <g id="payment_methods">
    <g id="apple_pay">
      <g>
        <rect class="cls-1" x="75.18" y="75.84" width="940.72" height="592.13" rx="61.52" ry="61.52"/>
      </g>
      <path class="cls-3" d="m394.08,378.95c-10.38-14.08-13.89-29.77-10.59-46.89,2.38-12.35,9.15-22.27,18.16-30.79,2.54-2.41,5.15-4.74,7.72-7.11-.1-.2-.15-.36-.25-.48-1.09-1.28-2.17-2.56-3.28-3.82-8.84-10.04-19.39-17.23-32.75-19.82-10.32-2-20.48-1.15-30.48,1.82-6.73,2-13.39,4.24-20.13,6.22-4.78,1.4-9.66,1.97-14.6.72-3.46-.88-6.95-1.62-10.37-2.62-8.21-2.39-16.39-4.87-24.95-5.72-17.2-1.7-31.86,3.48-43.77,16.1-11.5,12.18-17.59,26.92-20.07,43.26-2.81,18.52-1.41,36.82,3.59,54.85,5.62,20.28,14.79,38.87,26.83,56.06,4.8,6.86,10.35,13.09,17.36,17.83,6.95,4.7,14.53,7.29,22.91,5.3,5.33-1.27,10.5-3.23,15.66-5.13,6.77-2.5,13.58-4.7,20.92-4.52,5.93.14,11.62,1.54,17.25,3.28,5.46,1.69,10.88,3.48,16.36,5.08,10.98,3.2,20.73.49,29.43-6.55,2.56-2.07,5.06-4.28,7.28-6.71,11.91-13.05,20.64-28.1,27.35-44.36,1.15-2.79,2.1-5.66,3.17-8.58-1.19-.45-2.16-.8-3.12-1.19-8.24-3.36-14.43-9.2-19.62-16.24Zm-67.76-108.61c6.32-2.5,11.43-6.76,16.06-11.62,10.26-10.76,16.1-23.54,17.14-38.4.19-2.72-.22-5.49-.36-8.42-32.37,6.67-49.12,28.13-49.92,61.31.09.05.19.15.27.14,5.71-.42,11.43-.88,16.81-3Zm266.64-5.45c-12.61-11.35-32.48-17.66-59.6-17.66-22.07,0-39.42,1.89-52.66,4.1v210.02h27.43v-85.14c6.31,1.58,13.88,1.89,22.07,1.89,26.8,0,50.45-7.88,64.96-23.33,10.72-11.04,16.4-26.17,16.4-45.41s-6.94-34.37-18.61-44.46Zm-62.12,91.13c-9.14,0-16.71-.63-22.71-2.21v-82.62c4.73-1.26,13.88-2.21,25.86-2.21,30.27,0,50.14,13.56,50.14,41.63s-20.18,45.41-53.29,45.41Zm323.17-47.3l-30.27,89.56c-3.78,11.04-6.94,22.7-9.78,31.85h-.63c-2.52-9.15-6.31-21.13-9.78-31.22l-33.42-90.19h-30.27l56.45,140.64c1.26,3.47,1.89,5.68,1.89,7.25s-.94,3.78-2.21,6.62c-6.31,14.19-15.77,24.91-23.34,30.9-8.2,6.94-17.34,11.35-24.28,13.56l6.94,23.34c6.94-1.26,20.5-5.99,34.06-17.97,18.92-16.4,32.48-43.2,52.35-95.55l41.63-108.79h-29.33Zm-120.74,58.97c0-30.59-11.35-62.44-58.02-62.44-19.24,0-37.52,5.36-50.14,13.56l6.31,18.29c10.72-6.94,25.54-11.35,39.73-11.35,31.22,0,34.69,22.7,34.69,35.32v3.15c-58.97-.32-91.77,19.87-91.77,56.76,0,22.07,15.77,43.83,46.67,43.83,21.76,0,38.16-10.72,46.67-22.7h.95l2.21,19.24h25.23c-1.89-10.41-2.52-23.34-2.52-36.58v-57.08Zm-26.8,42.26c0,2.84-.63,5.99-1.58,8.83-4.41,12.93-17.03,25.54-36.89,25.54-14.19,0-26.17-8.51-26.17-26.49,0-29.64,34.37-35,64.65-34.37v26.49Z"/>
    </g>
  </g>
</svg>