<?xml version="1.0" encoding="UTF-8"?>
<svg id="company-logo-car" class="company-logo-car" xmlns="http://www.w3.org/2000/svg" viewBox="0 0 380.86 134">
  <defs>
    <style>
      .company-logo-car-graphic {
        fill: #ed1c24;
        opacity: .6;
        stroke: #b3b3b3;
        stroke-miterlimit: 10;
      }

      .company-logo-car-main {
        fill: #0052ff;
      }

      .company-logo-car-trim {
        fill: #999;
      }
    </style>
  </defs>
  <path class="company-logo-car-graphic" d="M39.14,81.51c6.57-5.47,9.93-7.56,13.91-9.6,2.67-1.37,6.96-3.47,12.74-3.63,11.56-.32,21.08,2.35,27.29,5.01,0,0-10.8-8.56-31.47-7.25-5.88,.37-11.02,3.09-13.16,4.37-2.96,1.77-10.06,6.08-15.09,10.67-1.99,1.81-7.42,7.16,1.71,10.56,9.74,3.63,22.6,5.89,25.47,6.19,2.03,.21,12.63,.85,29.75-.21,.21,0-18.84-1.07-22.05-1.28-3.21-.21-11.24-2.14-14.77-2.99-3.1-.75-9.53-2.77-12.84-4.05-1.85-.72-8.03-2.35-1.5-7.79Z"/>
  <g>
    <path class="company-logo-car-trim" d="M77.46,28.39c2.19-.11,11.13,0,15.41,.11,.76,.02,1.73,.11,2.89,.96,1.82,1.33,3.64,4.53,4.39,6.19,0,0-.37-5.49-3.42-8-1.07-.75-2.14-1.11-3.64-1.17-2.35-.11-12.25-.21-17.45-.11-1.1,.02-4.17,.11-2.78,3.41,1.39,3.31,4.98,4.59,5.78,4.8-.64-.64-2.16-2.58-2.78-4.37-.48-1.39,.32-1.75,1.6-1.81Z"/>
    <path class="company-logo-car-trim" d="M199.58,77.56c-3.96,4.8,.11,7.68,1.39,8.32,3,1.28,8.56,3.41,8.56,3.41,0,0-5.46-3.2-7.71-4.91-2.25-1.71-.91-4.33,.19-5.25,1.28-1.07,6.44-4.85,9.65-6.77,1.99-1.19,5.99-3.66,17.55-4.41,11.56-.75,29.97-.21,38.21,.21,8.24,.43,13.81,2.56,16.06,4.37,3.55,2.87,4.53,3.8,7.49,7.15,2.44,2.75,1.34,5.49,.43,6.4-.75,.75-4.39,3.88-4.39,3.88,0,0,1.02-.36,5.35-2.82,4.44-2.51,2.39-6.53,1.28-8.32-1.95-3.16-5.89-8.11-9.74-11.2-1.67-1.34-5.24-3.52-10.38-4.16-10.81-.64-25.76-1.27-48.59-.77-5.78,.13-10.85,2.78-12.84,4.18-3.96,2.77-10.12,7.75-12.52,10.67Z"/>
    <path class="company-logo-car-trim" d="M252.88,27.4c.64,.02,1.36,.07,1.69,1.06,.39,1.19-.21,3.25-.21,3.25,.51-.48,1.42-1.2,1.5-2.48,.11-1.76-.52-2.84-2.01-2.99-3.25-.32-10.03-.13-10.03-.13l1.77,1.12s4.95,.08,7.3,.17Z"/>
    <path class="company-logo-car-trim" d="M160.94,92.92c1.43,1.92,1.93,2.77,6.64,6.83,4.71,4.05,9.17,3.88,12.41,3.84,5.92-.07,22.48-1.71,22.48-1.71,0,0-17.34-.85-21.83-1.28-4.49-.43-5.35-.77-6.64-1.92-1.07-.96-2.21-2.13-3.85-4.27-2.12-2.76,2.57-1.92,2.57-1.92,0,0,32.11,2.77,36.18,3.41,4.07,.64,10.69,1.14,14.27,1.14,15.13,0,54.44-.3,55.73-.3s10.21-.45,13.49-1.27c3.85-.96,8.81-2.19,13.27-3.2,4.71-1.07,3.85,1.17,3.85,1.17,0,0-.43,3.09-1.07,5.44-.64,2.35-2.12,3.22-3.3,3.41-4.69,.78-14.68,.5-14.68,.5,0,0,14.1,1.81,17.12,1.64,3.71-.21,5.48-3.63,5.48-3.63,0,0,1.65-2.79,2.23-7.89,.71-6.33-4.99-4.91-4.99-4.91,0,0-14.98,4.69-19.12,5.4-4.14,.71-11.7,.8-11.7,.8,0,0-55.3,.2-57.94,.2-2.36,0-9.42-.43-13.49-1.07-11.34-1.71-43.45-5.97-43.45-5.97-6.92-.71-4.36,4.58-3.64,5.55Z"/>
    <path class="company-logo-car-trim" d="M121.59,85.51c.62-.39,1.34-.66,2.1-.77,.89-.13,1.76-.03,2.57,.26,.03,0,.05,.02,.08,.03-.04,0-5.21-18.53-5.21-18.53,0,0-.39-1.46-1.5-1.1-.74,.24-.92,.79-.79,1.64,.15,.85,2.5,18.56,2.5,18.56,0,0,.09-.03,.25-.09Z"/>
    <path class="company-logo-car-trim" d="M101.15,83.06c-1.15-.29-2,0-2.29,.85-.28,1.28,1.28,1.84,1.28,1.84l18.87,7.13c-.09-.32-.17-.66-.22-1.01-.24-1.72,.17-3.37,1.04-4.66-.46-.1-17.56-3.87-18.68-4.16Z"/>
    <path class="company-logo-car-trim" d="M127.87,85.88c1.3,.99,2.24,2.53,2.5,4.36,.03,.23,.05,.46,.06,.68,2.91-3.08,12.1-11.52,12.1-11.52,0,0-.16-.69-.35-1.34-.19-.64-.51-1.36-.51-1.36l-13.8,9.17Z"/>
    <path class="company-logo-car-trim" d="M127.23,96.81c2.76,1.95,15.09,11.04,15.09,11.04,0,0,.33-.53,.64-1.32,.25-.64,.36-1.21,.36-1.21l-13.01-12.76c-.37,1.85-1.5,3.42-3.07,4.24Z"/>
    <path class="company-logo-car-trim" d="M120.18,95.11c-.92,1.8-8.11,17.94-8.11,17.94,0,0-.79,1.57,.35,2.28,1,.43,1.79-.21,2.22-.92,.39-.66,9-14.62,10.45-16.98-1.92,.13-3.72-.78-4.91-2.31Z"/>
    <path class="company-logo-car-trim" d="M7.82,66.87s-.3-1.09-1.08-.53c-.55,.39-.49,.93-.4,1.48,.12,.73,3.17,17.42,3.41,18.71,.44-.94,1.01-1.52,1.65-1.52,.41,0,.8,.24,1.15,.66l-4.72-18.8Z"/>
    <path class="company-logo-car-trim" d="M2.62,88.31c-.95,.13-.81,.81-.95,.81,0,.67,.54,1.21,.54,1.21,0,0,5.12,1.95,6.85,2.53-.11-.62-.15-1.3-.15-2,0-.77,.06-1.5,.18-2.17-1.15-.11-5.65-.5-6.47-.38Z"/>
    <path class="company-logo-car-trim" d="M11.39,96.7c-.59,0-1.13-.49-1.55-1.31-.78,3.13-4.09,16.26-4.28,16.97-.19,.81-.3,1.31,.1,1.92,.4,.6,1.11-.21,1.11-.21,0,0,4.39-14.33,5.37-17.65-.23,.19-.49,.28-.75,.28Z"/>
  </g>
  <g>
    <path class="company-logo-car-main" d="M3.84,61.16s1.52-2.65,3.1-3.9c1.2-.94,3.61-1.7,5.8,1.61,3.03,4.6,5.8,12.23,8.63,33.33-.03-6.85-.54-24.94-6.07-34.67-1.71-3.02-7.21-8.77-11.46,3.63Z"/>
    <g>
      <path class="company-logo-car-main" d="M120.91,25.93c24.54,.07,88.62,1.21,117.52,2.56-62.93-5.33-117.52-2.56-117.52-2.56Z"/>
      <path class="company-logo-car-main" d="M277.17,48.33c-33.5-6.4-70.32-2.24-70.32-2.24,29.22-.64,44.84-.85,70.32,2.24Z"/>
      <path class="company-logo-car-main" d="M293.01,106.06c-2.78-1.07-9.56-2.1-13.83-2.13-16.57-.11-61.09-.13-63.87-.13s-8.99,.85-8.99,.85c0,0-4.49,.64-7.06,.85-2.57,.21-9.85,1.28-9.85,1.28l-41.53-.85c.86,2.99,5.14,4.27,5.14,4.27,0,0,26.76,.21,34.04,.21s12.41-1.49,12.41-1.49c0,0,5.14-1.49,6.85-2.13,1.71-.64,9.42-1.49,9.42-1.49,0,0,59.79,.06,63.44,.08,3.77,.03,11.05,2.9,12.55,3.54,3.21,1.49,7.71,1.36,7.71,1.36l13.4-.13c2.64-1.55,3.21-3.63,3.21-3.63,0,0-15.22,.11-16.83,.21-1.55,.1-4.92-.26-6.21-.68Z"/>
      <path class="company-logo-car-main" d="M142.53,64.33c-4.92-8.96-11.06-11.95-16.7-12.16-10.7-.43-14.98,8.96-14.98,8.96,4.14-4.62,8.35-6.03,13.7-6.19,5.94-.18,10.49,4.05,12.63,6.61,7.55,8.53,11.99,30.3,11.99,30.3-.43-9.39-2.84-20.05-6.64-27.52Z"/>
      <polygon class="company-logo-car-main" points="161.37 117.04 157.09 119.41 273.96 119.41 270.54 117.04 161.37 117.04"/>
      <path class="company-logo-car-main" d="M380.86,118.37s-56.88-1.2-57.45-1.2c4-9.39,4-15.93,3.42-22.19-2.2-19.54-11.98-27.54-14.7-29.41-3.73-12.78-10.01-16.68-12.06-18.09-14.41-9.96-40.67-14.51-40.67-14.51,25.76,6.54,40.81,17,40.81,17-5.76,.23-9.42,1.59-12.77,3.75,6.67-2.75,15.41-1.62,15.41-1.62,2.93,2.56,5.14,6.36,6.82,10.44-2.49,.08-12.52,.4-15.39,.17-3.02-.24-6.79-4.14-7.96-6.7-.92-2-2.95-6.19-4.67-8.32-7.06-10.03-26.44-14.51-29.75-16-2.1-.95-5.71-2.22-10.27-5.76-8.35-6.47-21.09-14.86-28.3-18.35-6.17-2.99-15.08-5.05-31.21-6.02C135.68-1.2,75.85,.54,75.85,.54c.26,0,.54,.03,.82,.05-1,.03-2.01,.07-3.06,.17-20.05,1.78-33.46,7.18-54.37,24.96C7.61,35.53,4.25,50.68,3.18,56.23c.64-2.13,1.85-5.9,4.49-8.75,1.93-1.92,5.57-3.36,11.77-3.63,7.37-.32,34.92,1.28,47.26,3.62-1.4-.29-33.55-7.86-55.6-6.6,0,0,1.78-8.93,15.41-19.41C41.5,9.93,53.91,3.21,74.25,2.04c5.35-.21,10.7-.64,18.84,3.41,7.49,3.84,13.48,11.88,16.05,15.57,3.57,5.12,6.21,7.68,13.27,8.53,7.06,.85,24.9,2.85,32.11,4.05,9.77,1.64,36.18,8.96,46.66,16.64,2.14,1.71,1.45,3.17,.86,4.27-.7,1.28-1.41,2.58-1.93,3.41-.66,1.06-1.34,2.13-4.5,2.18-2.8,.04-24.25-.86-29.75-1.03-.82-.03-1.9-.14-2.8-.44-1.63-.53-3.72-1.45-4.69-1.99-1.46-.8-4.6-3.13-6.42-5.76-.86-1.24-.43-1.71,1.07-2.13,1.5-.43,21.9-.85,42.1,3.41,0,0-25.88-8.74-51.73-5.59-12.72-2.6-48.76-9.48-92.04-13.4-2.03-.21-6.78-.68-8.78-2.35-2.44-2.04-3.48-3.36-4.57-5.12-.64-1.03-.84-2.23,1.71-4.55,3.21-2.92,14.98-14.37,35.39-14.79,4.92-.07,10.51,.84,15.13,3.84,5.35,3.48,11.52,14.01,15.27,24.25,0,0-4.49-19.36-14.56-25.82-4.54-2.91-9.85-4.23-16.05-4.05-7.71,.21-23.12,2.35-38.89,15.86-2,1.85-3.2,4.76-1,7.11,2.21,2.36,5.15,4.39,6.28,5.12,2,1.28,6.37,2.13,9.13,2.42,12.97,1.36,68.25,7.54,93.94,14.23,1.6,2.73,4.98,6.94,11.8,9.8,1.28,.53,3.75,1.24,5.42,1.42,2.03,.21,35.96,1,35.96,1,0,0,3.99,.28,6.28-2.28,2.28-2.56,5-5.83,5-5.83,0,0,1.52-2.56-.62-3.73-2.02-1.11-22.36-14.01-53.46-18.17-11.96-1.6-29.4-3.34-31.68-3.47-2.57-.14-6.78-1.22-11.13-7.48-2.89-4.15-7.94-11.56-16.92-16.11,24.46-1.4,66.59-1.76,89.27-.1,15.55,1.14,24.08,3.63,27.18,5.19,7.56,3.63,22.76,13.73,25.47,16.14,1.13,1.01,7.75,5.42,12.63,7.04,5.46,1.81,18.73,6.51,23.55,9.6,7.16,4.6,8.52,8.66,11.56,14.72,2.36,4.69,6.68,6.91,9.63,7,3.09,.09,12.64-.31,15.73-.69,3.1,7.93,4.27,16.67,4.82,19.51-.31-5.78-1.03-10.61-2-14.66,10.4,8.97,11.86,22.63,12.28,26.82,.21,17.28-6.85,24.53-6.85,24.53l62.59-1.22Z"/>
      <path class="company-logo-car-main" d="M11.39,88.31c-.6,0-1.08,1.14-1.08,2.55s.48,2.55,1.08,2.55,1.08-1.14,1.08-2.55-.48-2.55-1.08-2.55Z"/>
      <path class="company-logo-car-main" d="M111.19,118.04c-7.92-4.16-13.92-12.38-15.36-22.49-.34-2.38-.4-4.73-.22-7.02,0,0,0-.02,0-.03,.92-11.5,8.11-21.29,18.34-24.65,1.37-.45,2.79-.79,4.26-1,7.21-1.02,14.2,1.2,19.71,5.64,.21,.17,.41,.34,.61,.51-.5-.97-5.96-9.8-21.6-7.77-3.51,.46-6.73,1.72-9.61,3.53-9.42,5.9-14.96,18.02-13.11,31,.52,3.7,1.62,7.16,3.15,10.3l-75.63,.06c.14,1.28,3.71,3.44,4.85,3.87,1.14,.43,3.71,.28,3.71,.28l12.48,.03c-1.01,.03-2.35,.03-2.35,.03,0,0-1.29,5.97-3,8.39,0,.13,55.71,.15,71.23,.15h4.3c-.59-.26-1.17-.53-1.74-.83,0,0-.02,0-.03-.02Zm-69.2-1.01s1.52-4.79,1.84-6.72l56.07,.11c.37,.54,.76,1.07,1.16,1.58,1.46,1.89,3.13,3.56,4.95,5-8.87-.09-64.02,.03-64.02,.03Z"/>
      <path class="company-logo-car-main" d="M127.55,90.64c-.25-1.78-1.78-3.04-3.42-2.81-1.63,.23-2.75,1.87-2.5,3.65,.25,1.78,1.78,3.04,3.42,2.81,1.63-.23,2.75-1.86,2.5-3.65Z"/>
      <path class="company-logo-car-main" d="M4.32,63.48C1.82,67.98,.11,75.4,0,86.49c-.2,20.81,3.99,29.53,4.37,30.6-.06-.24-.11-.47-.16-.71-2.03-5.01-3.46-14.04-3.61-24.36-.12-7.91,.53-15.08,1.7-20.28,.66-2.91,1.8-6,3.19-7.71,.48-.47,.99-.74,1.51-.74,3.77-.06,7.02,12.72,7.25,28.54,.12,8.03-2.46,26.32-2.46,26.32,3.27-6.38,4.14-24.83,4.14-28.15-.57-18.95-3.09-24.05-5.34-27.01-2.27-2.98-5.3-1.23-6.27,.5Z"/>
    </g>
  </g>
</svg>