<?xml version="1.0" encoding="UTF-8"?>
<svg xmlns="http://www.w3.org/2000/svg" viewBox="0 0 1162.31 189.81">
  <defs>
    <style>
      .cls-1 {
        fill: #ed1c24;
        opacity: .6;
        stroke: #b3b3b3;
        stroke-miterlimit: 10;
      }

      .cls-2 {
        fill: #0052ff;
      }

      .cls-3 {
        fill: blue;
      }

      .cls-4 {
        fill: #999;
      }
    </style>
  </defs>
  <g id="Vinyl_Imagination" data-name="Vinyl Imagination">
    <g>
      <path class="cls-2" d="M358.79,64.33l-.6-1.55c7.97-9.54,14.73-14.31,20.29-14.31,4.36,0,7.69,3.5,10,10.49,1.2,3.36,2.23,8.02,3.08,13.99,.75,5.75,1.13,11.85,1.13,18.3,0,7.21-.58,15.02-1.73,23.42,.5-.87,1.78-3.33,3.83-7.4,2.05-4.12,4.56-8.51,7.52-13.17,3.26-5.2,6.44-9.89,9.55-14.07,4.11-5.58,7.92-10.33,11.42-14.23,3.71-4.17,7.62-8.05,11.73-11.63,2.96-2.6,5.92-5.08,8.91-7.44,2.98-2.36,5.9-4.46,8.76-6.3,5.81-3.85,11.45-6.94,16.91-9.27,3.61-1.63,6.06-2.44,7.37-2.44,1.6,0,2.4,.62,2.4,1.87,0,.98-.25,2.01-.75,3.09-.05,.22-.2,.62-.45,1.22-2.71,.33-5.89,1.11-9.54,2.36-3.61,1.25-7.34,2.87-11.2,4.88-3.76,1.95-7.67,4.36-11.72,7.24-3.76,2.6-7.49,5.53-11.2,8.78-6.16,5.37-12.28,11.82-18.34,19.35-5.76,7.21-11.15,15.04-16.16,23.5-4.61,7.92-8.42,15.89-11.42,23.91l-.9,2.52c-.9,2.33-1.4,3.8-1.5,4.39-.8,2.82-1.5,4.64-2.1,5.45-.7,.92-1.55,1.38-2.56,1.38-.65,0-1.55-.16-2.71-.49,5.66-13.01,8.49-27.35,8.49-43.02,0-4.72-.3-9.87-.9-15.45-.6-5.42-1.4-10.11-2.4-14.07-1.15-4.55-2.51-8-4.06-10.33-1.55-2.33-3.26-3.5-5.11-3.5-3.56,0-8.89,4.18-16.01,12.52Z"/>
      <path class="cls-2" d="M428.84,101.74l-.75,1.22c-3.61,6.13-6.14,11.01-7.59,14.64-1.5,3.74-2.25,7.02-2.25,9.84s1.08,4.31,3.23,4.31c1.8,0,4.18-.95,7.14-2.85,3.11-1.95,6.46-4.66,10.07-8.13,3.86-3.69,7.37-7.43,10.52-11.22,1.3-1.57,2.1-2.36,2.41-2.36,.45,0,.68,.24,.68,.73,0,.22-1.3,1.82-3.91,4.8-4.46,4.99-8.34,9-11.65,12.04-3.76,3.42-7.24,6.1-10.45,8.05-3.11,1.84-5.64,2.77-7.59,2.77-1.7,0-3.03-.6-3.98-1.79-1-1.19-1.5-2.74-1.5-4.64,0-4.93,2.08-11.28,6.24-19.03,1.15-2.28,2.56-4.69,4.21-7.24,2.15-.7,3.88-1.08,5.19-1.14Zm12.55-19.19c-.3,.22-.53,.41-.68,.57l-2.41,1.95c-3.16,2.66-5.59,4.99-7.29,6.99l-.3,.33c-.85-.33-1.28-.76-1.28-1.3,0-.92,1.08-2.63,3.23-5.12,2.5-2.77,4.63-4.15,6.39-4.15,.75,0,1.53,.24,2.33,.73Z"/>
      <path class="cls-2" d="M459.88,100.43c-3.91,6.83-6.97,12.82-9.17,17.97-1.6,3.58-2.41,5.75-2.41,6.51,0,.54,.23,.81,.68,.81,.3,0,1.35-.73,3.16-2.2,4.61-3.79,8.32-6.72,11.12-8.78,2.5-1.84,5.16-3.63,7.97-5.37,2.1-1.3,4.28-2.49,6.54-3.58,1.9-.81,3.33-1.22,4.28-1.22,1.85,0,2.78,1.14,2.78,3.42,0,1.14-.35,3.47-1.05,6.99-1.05,5.37-1.58,8.89-1.58,10.57,0,1.41,.35,2.58,1.05,3.5,.7,.92,1.6,1.38,2.71,1.38,3.66,0,9.92-4.85,18.79-14.56,1.9-2.06,4.16-4.66,6.76-7.81,.65-.87,1.13-1.3,1.43-1.3,.4,0,.6,.24,.6,.73,0,.43-.78,1.49-2.33,3.17l-4.66,5.45c-5.11,5.96-9.62,10.38-13.53,13.26-3.96,2.87-7.34,4.31-10.15,4.31-1.6,0-2.91-.62-3.91-1.87-1-1.25-1.5-2.9-1.5-4.96,0-1.63,.1-2.98,.3-4.07,.45-2.55,1.08-5.66,1.88-9.35,.25-1.19,.38-2.11,.38-2.76,0-1.57-.63-2.36-1.88-2.36-1.5,0-4.23,1.36-8.19,4.07-10.07,6.72-17.69,13.01-22.85,18.87-1.7,2.01-2.83,3.01-3.38,3.01-.8,0-1.2-.84-1.2-2.52,0-2.66,1.23-6.99,3.68-13.01,2.45-6.18,5.19-11.63,8.19-16.35,1.25-.7,3.08-1.35,5.49-1.95Z"/>
      <path class="cls-2" d="M520.99,101.57c-7.37,10.14-11.05,17.81-11.05,23.01,0,1.63,.48,2.96,1.43,3.99,.9,1.08,2.03,1.63,3.38,1.63,2.96,0,6.06-1.76,9.32-5.29,3.16-3.47,5.81-7.83,7.97-13.09,2.15-5.2,3.23-10.25,3.23-15.13v-1.06l3.31-2.28c.15,1.14,.23,2.47,.23,3.98,0,3.96-.75,8.78-2.25,14.48-2,7.37-3.83,12.9-5.49,16.59l-1.5,3.42c-.05,.05-.08,.11-.08,.16s-.03,.11-.08,.16c-.05,.05-.08,.16-.08,.33-.05,.05-.13,.22-.23,.49,0,.11-.04,.2-.11,.28-.08,.08-.14,.18-.19,.29,3.66-2.44,8.09-6.23,13.3-11.39,5.21-5.04,9.62-9.92,13.23-14.64,.45-.54,.8-.81,1.05-.81,.5,0,.75,.24,.75,.73,0,.33-.18,.68-.53,1.06l-1.43,1.71-3.76,4.39c-3.46,4.12-7.97,8.7-13.53,13.74-2.61,2.28-6.19,5.15-10.75,8.62-.05,.05-.15,.3-.3,.73-.15,.27-.3,.49-.45,.65l-2.18,4.07c-1.9,3.58-4.28,7.35-7.14,11.3-5.51,7.81-11.7,14.61-18.56,20.41-5.06,4.17-9.47,6.26-13.23,6.26-1.45,0-2.68-.54-3.68-1.63-1-1.08-1.5-2.41-1.5-3.99,0-4.07,2.48-8.46,7.44-13.17,2.06-1.95,5.04-4.31,8.94-7.08,2.15-1.41,5.66-3.58,10.52-6.51,7.57-4.72,11.55-7.21,11.95-7.48,.7-.38,2.41-1.49,5.11-3.33,.8-1.36,1.8-3.71,3.01-7.08l1.73-4.64c.85-2.33,1.6-4.8,2.25-7.4-6.26,9.87-12.2,14.8-17.81,14.8-2.15,0-3.93-.84-5.34-2.52-1.4-1.57-2.1-3.6-2.1-6.1,0-2.87,.9-6.29,2.71-10.25,1.85-4.07,4.21-7.89,7.06-11.47,1.35-.6,3.16-.92,5.41-.98Zm1.88,38.22l-1.35,.89-5.34,3.33-6.46,4.15c-6.06,3.85-10.82,7.1-14.28,9.76-3.71,2.87-6.36,5.48-7.97,7.81-1.6,2.38-2.41,4.58-2.41,6.59,0,1.14,.4,2.11,1.2,2.93,.8,.81,1.7,1.22,2.71,1.22,2.61,0,6.14-1.87,10.6-5.61,4.21-3.58,8.62-8.35,13.23-14.31,4.41-5.8,7.77-11.39,10.07-16.75Z"/>
      <path class="cls-2" d="M558.49,104.91c-.35,2.06-.53,4.53-.53,7.4,0,6.62,.78,11.68,2.33,15.21,1.6,3.58,3.83,5.37,6.69,5.37,5.21,0,12.3-5.01,21.27-15.04,3.36-3.63,6.11-6.86,8.27-9.68,.7-.92,1.23-1.38,1.58-1.38,.45,0,.68,.27,.68,.81,0,.33-.93,1.57-2.78,3.74-7.62,9.22-13.83,15.78-18.64,19.68s-9.14,5.86-13,5.86c-3.46,0-6.14-1.71-8.04-5.12-1.91-3.36-2.86-8.19-2.86-14.48,0-10.03,2.13-20.9,6.39-32.61,5.56-15.4,11.12-26.7,16.69-33.91,2.56-3.31,4.86-4.96,6.92-4.96,.95,0,1.75,.41,2.4,1.22,.6,.87,.9,2.03,.9,3.5,0,6.07-4.36,16.64-13.08,31.72-1.95,3.42-4.33,7.18-7.14,11.3-2.4,3.52-3.66,5.34-3.76,5.45l-3.01,4.15-1.28,1.79Zm.45-3.25c1.9-2.28,4.01-5.2,6.31-8.78,1.75-2.66,3.88-6.04,6.39-10.17,2.35-4.07,4.13-7.26,5.34-9.6,1.5-3.09,2.68-5.66,3.53-7.73,2.71-6.34,4.06-10.87,4.06-13.58,0-.92-.2-1.68-.6-2.28-.35-.54-.9-.81-1.65-.81-1.7,0-4.03,2.36-6.99,7.08-2.86,4.61-5.74,10.63-8.64,18.05-.75,2.06-1.85,5.31-3.31,9.76-.95,2.98-1.83,6.05-2.63,9.19-.7,2.71-1.3,5.67-1.8,8.86Z"/>
      <path class="cls-2" d="M674.01,106.37l1.05,1.22-1.28,1.54c-8.42,10.3-16.38,18.6-23.9,24.88-9.72,7.92-17.11,11.87-22.17,11.87-2.66,0-4.81-1.03-6.46-3.09-1.65-2.01-2.48-4.69-2.48-8.05,0-2.82,.4-5.86,1.2-9.11,.85-3.42,2.23-7.48,4.13-12.2,3.31-8.46,7.49-17.27,12.55-26.43,4.11-7.26,8.69-14.77,13.75-22.53l.83-1.22c-3.86,1.3-7.22,2.2-10.07,2.68-2.91,.49-4.79,.73-5.64,.73-.6,0-.9-.22-.9-.65,0-.54,.4-1.33,1.2-2.36,1.2,.11,2.25,.16,3.16,.16,5.01,0,9.62-.98,13.83-2.93l.9-1.22,2.03-2.77c5.01-6.78,9.8-12.39,14.36-16.83,4.71-4.61,7.99-6.91,9.85-6.91,1.1,0,1.65,.57,1.65,1.71,0,3.47-4.51,9.16-13.53,17.08-3.56,3.15-7.92,6.34-13.08,9.6-1.85,2.6-4.54,6.94-8.04,13.01-2.16,3.74-4.28,7.7-6.39,11.87-2,4.01-3.66,7.56-4.96,10.65-1.4,3.31-2.83,6.86-4.28,10.65-3.51,9.76-5.26,17.13-5.26,22.12,0,3.04,.65,5.42,1.95,7.16,1.3,1.79,3.03,2.68,5.19,2.68,2.81,0,6.49-1.49,11.05-4.47,4.76-3.14,9.77-7.24,15.03-12.28,5.51-5.37,10.42-10.9,14.73-16.59Z"/>
      <path class="cls-2" d="M680.17,100.6l-.75,1.3c-1.95,3.52-3.88,7.48-5.79,11.87-1.8,4.01-3.36,7.97-4.66,11.87l.6-.49c4.51-4.07,9.34-7.89,14.51-11.47,8.47-5.8,14.08-8.7,16.84-8.7,.85,0,1.55,.3,2.1,.89,.5,.6,.75,1.44,.75,2.52,0,1.3-.63,4.15-1.88,8.54-1.15,4.12-1.93,7.62-2.33,10.49l1.13-1.14,3.98-3.9c3.66-3.52,7.04-6.42,10.15-8.7,3.31-2.49,6.34-4.42,9.09-5.77,2.91-1.41,5.19-2.11,6.84-2.11,2.15,0,3.23,1.06,3.23,3.17,0,1.09-.18,2.39-.53,3.9-1.55,6.89-2.33,11.09-2.33,12.6s.35,2.66,1.05,3.58c.7,.92,1.58,1.38,2.63,1.38,1.55,0,3.58-.87,6.09-2.6,2.5-1.79,5.66-4.58,9.47-8.38,3.61-3.69,6.89-7.26,9.85-10.73,1.05-1.3,1.7-1.95,1.95-1.95,.45,0,.68,.24,.68,.73,0,.27-.65,1.19-1.96,2.77l-3.16,3.74c-.9,1.03-3.01,3.25-6.31,6.67-3.21,3.2-5.36,5.29-6.46,6.26-5.21,4.45-9.47,6.67-12.78,6.67-1.7,0-3.08-.68-4.13-2.03-1.1-1.35-1.65-3.06-1.65-5.12,0-2.39,.48-5.53,1.43-9.43,.75-3.25,1.13-5.18,1.13-5.77,0-1.57-.65-2.36-1.96-2.36-1.85,0-5.41,1.95-10.67,5.85-4.26,3.09-8.17,6.56-11.72,10.41-2.81,2.93-4.76,5.1-5.86,6.51-1.1,1.3-1.91,1.95-2.41,1.95-1.3,0-1.95-1.03-1.95-3.09,0-1.14,.23-2.77,.68-4.88,.5-2.38,1.2-5.18,2.1-8.38l1.28-4.15c.45-1.46,.68-2.57,.68-3.33,0-1.25-.53-1.87-1.58-1.87-1.4,0-4.94,1.95-10.6,5.86-4.61,3.25-8.73,6.46-12.36,9.64s-6.68,6.25-9.13,9.23c-.65,.81-1.18,1.22-1.58,1.22-.7,0-1.05-.49-1.05-1.46,0-1.08,.58-3.42,1.73-6.99,1.05-3.25,2.45-6.78,4.21-10.57,1.85-4.23,3.91-8.24,6.16-12.04,1.55-.81,3.31-1.54,5.26-2.2Z"/>
      <path class="cls-2" d="M789.68,111.25l-.3-.98c3.76-2.39,5.64-5.12,5.64-8.21,0-2-.73-3.55-2.18-4.64-1.45-1.03-3.53-1.55-6.24-1.55-3.91,0-8.17,1.33-12.78,3.98-4.71,2.66-8.67,5.96-11.88,9.92-2.3,2.82-4.11,5.61-5.41,8.38-1.35,2.82-2.03,5.18-2.03,7.08s.55,3.36,1.65,4.39c1.05,1.14,2.41,1.71,4.06,1.71,3.06,0,6.71-2.06,10.97-6.18,4.26-4.12,8.09-9.35,11.5-15.7,.8-.43,1.45-.65,1.95-.65,.55,0,1.15,.41,1.8,1.22-3.66,6.56-5.49,12.2-5.49,16.92,0,1.63,.38,2.9,1.13,3.82,.7,.98,1.68,1.46,2.93,1.46,2.75,0,7.14-2.85,13.15-8.54,4.16-4.01,7.92-8,11.27-11.95l1.8-2.28c1.35-1.63,2.18-2.44,2.48-2.44,.4,0,.6,.24,.6,.73s-1.38,2.31-4.13,5.45c-3.61,4.23-7.39,8.32-11.35,12.28-3.61,3.58-6.76,6.24-9.47,7.97-2.76,1.79-5.01,2.68-6.76,2.68s-3.26-.76-4.36-2.28c-1.15-1.57-1.73-3.52-1.73-5.86,0-1.52,.27-3.93,.83-7.24l-1.05,1.22c-8.17,9.33-14.98,13.99-20.44,13.99-1.95,0-3.48-.68-4.58-2.03-1.2-1.3-1.8-3.09-1.8-5.37,0-2.44,.7-5.15,2.1-8.13,1.4-3.09,3.31-6.1,5.71-9.03,2.4-2.98,5.06-5.61,7.97-7.89,3.86-3.09,7.87-5.5,12.03-7.24,4.21-1.79,7.94-2.68,11.2-2.68s5.81,.6,7.52,1.79c1.7,1.19,2.56,2.96,2.56,5.29,0,4.45-2.96,7.97-8.87,10.57Z"/>
      <path class="cls-2" d="M838.76,94.82c-.15,5.37-.98,10.98-2.48,16.83-1.55,5.85-3.96,12.55-7.21,20.09l-.9,2.2c2.15-1.35,4.91-3.6,8.27-6.75,3.16-2.87,6.49-6.21,10-10,3.11-3.25,5.79-6.34,8.04-9.27,.6-.81,1.05-1.22,1.35-1.22,.5,0,.75,.24,.75,.73,0,.38-1.5,2.33-4.51,5.85-4.66,5.37-8.39,9.41-11.2,12.12-3.21,3.04-6.99,6.24-11.35,9.6-1.1,.7-2.08,1.46-2.93,2.28-2.86,5.64-5.41,10.17-7.67,13.58-2.31,3.58-5.21,7.45-8.72,11.63-10.32,12.2-18.76,18.3-25.33,18.3-1.6,0-2.88-.52-3.83-1.54-1-.98-1.5-2.25-1.5-3.82,0-3.36,1.7-7.05,5.11-11.06,1.75-2.01,4.33-4.28,7.74-6.83,3.56-2.71,8.09-5.77,13.6-9.19,3.86-2.33,7.19-4.39,10-6.18,.4-.27,.99-.65,1.77-1.14,.78-.49,1.3-.83,1.58-1.02,.27-.19,.51-.34,.71-.45,.45-.33,.8-.56,1.05-.69,.25-.14,.75-.45,1.5-.93l1.2-.81c3.06-6.34,5.76-13.69,8.12-22.04l-.75,1.3c-3.71,5.8-7.49,10.3-11.35,13.5-3.86,3.2-7.34,4.8-10.45,4.8-2,0-3.58-.7-4.74-2.12-1.2-1.41-1.8-3.17-1.8-5.29,0-2.93,.95-6.23,2.86-9.92,1.85-3.63,4.33-6.91,7.44-9.84,2.55-2.44,5.19-4.36,7.89-5.77,2.86-1.41,5.34-2.11,7.44-2.11,1.9,0,3.91,.52,6.01,1.54,.4-2.06,.63-4.12,.68-6.18v-.81c.4-.27,.85-.41,1.35-.41,.7,0,1.45,.35,2.25,1.06Zm-16.38,45.46c-1.35,.76-3.31,1.9-5.86,3.42l-4.28,2.68c-7.17,4.5-12.6,8.13-16.31,10.9-3.91,2.93-6.71,5.58-8.42,7.97-1.7,2.33-2.56,4.58-2.56,6.75,0,1.3,.43,2.41,1.28,3.33,.85,.92,1.91,1.38,3.16,1.38,1.95,0,4.54-1.25,7.74-3.74,3.16-2.39,6.61-5.77,10.37-10.17,2.8-3.25,5.41-6.71,7.82-10.37,2.4-3.66,4.76-7.71,7.06-12.16Zm11.35-35.13c-1.75-2.06-3.93-3.09-6.54-3.09-2.81,0-5.81,1.11-9.02,3.33-3.16,2.22-5.76,5.04-7.82,8.46-2.05,3.47-3.08,6.72-3.08,9.76,0,1.68,.53,3.15,1.58,4.39,.95,1.19,2.2,1.79,3.76,1.79,2.56,0,5.29-1.22,8.19-3.66,2.81-2.22,5.49-5.37,8.04-9.43,2.41-3.85,4.03-7.7,4.88-11.55Z"/>
      <path class="cls-2" d="M862.81,101.74l-.75,1.22c-3.61,6.13-6.14,11.01-7.59,14.64-1.5,3.74-2.25,7.02-2.25,9.84s1.08,4.31,3.23,4.31c1.8,0,4.18-.95,7.14-2.85,3.11-1.95,6.46-4.66,10.07-8.13,3.86-3.69,7.37-7.43,10.52-11.22,1.3-1.57,2.1-2.36,2.41-2.36,.45,0,.68,.24,.68,.73,0,.22-1.3,1.82-3.91,4.8-4.46,4.99-8.34,9-11.65,12.04-3.76,3.42-7.24,6.1-10.45,8.05-3.11,1.84-5.64,2.77-7.59,2.77-1.7,0-3.03-.6-3.98-1.79-1-1.19-1.5-2.74-1.5-4.64,0-4.93,2.08-11.28,6.24-19.03,1.15-2.28,2.56-4.69,4.21-7.24,2.15-.7,3.88-1.08,5.19-1.14Zm12.55-19.19c-.3,.22-.53,.41-.68,.57l-2.41,1.95c-3.16,2.66-5.59,4.99-7.29,6.99l-.3,.33c-.85-.33-1.28-.76-1.28-1.3,0-.92,1.08-2.63,3.23-5.12,2.5-2.77,4.63-4.15,6.39-4.15,.75,0,1.53,.24,2.33,.73Z"/>
      <path class="cls-2" d="M893.85,100.43c-3.91,6.83-6.96,12.82-9.17,17.97-1.6,3.58-2.41,5.75-2.41,6.51,0,.54,.23,.81,.68,.81,.3,0,1.35-.73,3.16-2.2,4.61-3.79,8.32-6.72,11.12-8.78,2.5-1.84,5.16-3.63,7.97-5.37,2.1-1.3,4.28-2.49,6.54-3.58,1.9-.81,3.33-1.22,4.28-1.22,1.85,0,2.78,1.14,2.78,3.42,0,1.14-.35,3.47-1.05,6.99-1.05,5.37-1.58,8.89-1.58,10.57,0,1.41,.35,2.58,1.05,3.5,.7,.92,1.6,1.38,2.71,1.38,3.66,0,9.92-4.85,18.79-14.56,1.9-2.06,4.16-4.66,6.76-7.81,.65-.87,1.13-1.3,1.43-1.3,.4,0,.6,.24,.6,.73,0,.43-.78,1.49-2.33,3.17l-4.66,5.45c-5.11,5.96-9.62,10.38-13.53,13.26-3.96,2.87-7.34,4.31-10.15,4.31-1.6,0-2.91-.62-3.91-1.87-1-1.25-1.5-2.9-1.5-4.96,0-1.63,.1-2.98,.3-4.07,.45-2.55,1.08-5.66,1.88-9.35,.25-1.19,.38-2.11,.38-2.76,0-1.57-.63-2.36-1.88-2.36-1.5,0-4.23,1.36-8.19,4.07-10.07,6.72-17.69,13.01-22.85,18.87-1.7,2.01-2.83,3.01-3.38,3.01-.8,0-1.2-.84-1.2-2.52,0-2.66,1.23-6.99,3.68-13.01,2.45-6.18,5.19-11.63,8.19-16.35,1.25-.7,3.08-1.35,5.49-1.95Z"/>
      <path class="cls-2" d="M974.34,111.25l-.3-.98c3.76-2.39,5.64-5.12,5.64-8.21,0-2-.73-3.55-2.18-4.64-1.45-1.03-3.53-1.55-6.24-1.55-3.91,0-8.17,1.33-12.78,3.98-4.71,2.66-8.67,5.96-11.88,9.92-2.3,2.82-4.11,5.61-5.41,8.38-1.35,2.82-2.03,5.18-2.03,7.08s.55,3.36,1.65,4.39c1.05,1.14,2.41,1.71,4.06,1.71,3.06,0,6.71-2.06,10.97-6.18,4.26-4.12,8.09-9.35,11.5-15.7,.8-.43,1.45-.65,1.95-.65,.55,0,1.15,.41,1.8,1.22-3.66,6.56-5.49,12.2-5.49,16.92,0,1.63,.38,2.9,1.13,3.82,.7,.98,1.68,1.46,2.93,1.46,2.75,0,7.14-2.85,13.15-8.54,4.16-4.01,7.92-8,11.27-11.95l1.8-2.28c1.35-1.63,2.18-2.44,2.48-2.44,.4,0,.6,.24,.6,.73s-1.38,2.31-4.13,5.45c-3.61,4.23-7.39,8.32-11.35,12.28-3.61,3.58-6.76,6.24-9.47,7.97-2.76,1.79-5.01,2.68-6.76,2.68s-3.26-.76-4.36-2.28c-1.15-1.57-1.73-3.52-1.73-5.86,0-1.52,.27-3.93,.83-7.24l-1.05,1.22c-8.17,9.33-14.98,13.99-20.44,13.99-1.95,0-3.48-.68-4.58-2.03-1.2-1.3-1.8-3.09-1.8-5.37,0-2.44,.7-5.15,2.1-8.13,1.4-3.09,3.31-6.1,5.71-9.03,2.4-2.98,5.06-5.61,7.97-7.89,3.86-3.09,7.87-5.5,12.03-7.24,4.21-1.79,7.94-2.68,11.2-2.68s5.81,.6,7.52,1.79c1.7,1.19,2.56,2.96,2.56,5.29,0,4.45-2.96,7.97-8.87,10.57Z"/>
      <path class="cls-2" d="M1009.97,84.09l5.41-.98-1.88,3.25c-2.76,4.88-5.31,9.6-7.67,14.15l-1.35,2.68,18.94-.89-1.2,2.11-1.88-.08c-1.1-.05-3.41-.08-6.91-.08-1.95,0-4.69,.05-8.19,.16l-1.43,.08c-4.61,9.38-6.92,16.35-6.92,20.9,0,2.06,.5,3.71,1.5,4.96,1,1.25,2.35,1.87,4.06,1.87,3.61,0,8.17-2.49,13.68-7.48,2.1-1.95,4.33-4.17,6.69-6.67,2.3-2.44,4.91-5.37,7.82-8.78l1.35-1.63c.5-.7,.9-1.06,1.2-1.06,.45,0,.68,.22,.68,.65,0,.38-.7,1.41-2.1,3.09-13.93,16.86-24.38,25.29-31.34,25.29-2.46,0-4.43-.89-5.94-2.68-1.55-1.73-2.33-4.04-2.33-6.91,0-2.55,.42-5.26,1.28-8.13,.85-2.82,2.43-6.78,4.74-11.87l.68-1.38-9.62,.57,1.73-2.03,8.64,.08,.68-1.38c1.45-2.93,3.16-6.13,5.11-9.6l2.41-4.31,1.5-2.68,.68-1.22Z"/>
      <path class="cls-2" d="M1040.18,101.74l-.75,1.22c-3.61,6.13-6.14,11.01-7.59,14.64-1.5,3.74-2.25,7.02-2.25,9.84s1.08,4.31,3.23,4.31c1.8,0,4.18-.95,7.14-2.85,3.11-1.95,6.46-4.66,10.07-8.13,3.86-3.69,7.37-7.43,10.52-11.22,1.3-1.57,2.1-2.36,2.41-2.36,.45,0,.68,.24,.68,.73,0,.22-1.3,1.82-3.91,4.8-4.46,4.99-8.34,9-11.65,12.04-3.76,3.42-7.24,6.1-10.45,8.05-3.11,1.84-5.64,2.77-7.59,2.77-1.7,0-3.03-.6-3.98-1.79-1-1.19-1.5-2.74-1.5-4.64,0-4.93,2.08-11.28,6.24-19.03,1.15-2.28,2.56-4.69,4.21-7.24,2.15-.7,3.88-1.08,5.19-1.14Zm12.55-19.19c-.3,.22-.53,.41-.68,.57l-2.41,1.95c-3.16,2.66-5.59,4.99-7.29,6.99l-.3,.33c-.85-.33-1.28-.76-1.28-1.3,0-.92,1.08-2.63,3.23-5.12,2.5-2.77,4.63-4.15,6.39-4.15,.75,0,1.53,.24,2.33,.73Z"/>
      <path class="cls-2" d="M1080.77,113.2c-.05-.05-.13-.11-.23-.16-.1-.05-.2-.11-.3-.16-.3-.16-.53-.24-.68-.24-2.46-1.03-3.68-2.17-3.68-3.42,0-.87,.5-1.3,1.5-1.3,1.6,0,3.08,1.33,4.43,3.98,2.2,.87,4.33,1.3,6.39,1.3,4.76,0,8.79-1.98,12.1-5.94,.45-.54,.8-.81,1.05-.81,.4,0,.6,.24,.6,.73,0,.54-.65,1.44-1.95,2.68-3.41,3.2-7.34,4.8-11.8,4.8-1.45,0-3.33-.3-5.64-.89,.15,1.95,.22,3.25,.22,3.9,0,3.36-.85,6.62-2.55,9.76-1.75,3.25-3.98,5.88-6.69,7.89-2.76,2.06-5.49,3.09-8.19,3.09-3.01,0-5.54-1.22-7.59-3.66-2-2.38-3.01-5.39-3.01-9.03,0-4.23,1.15-8.4,3.46-12.52,2.2-4.07,5.14-7.45,8.79-10.17,3.51-2.66,7.07-3.98,10.67-3.98,1.35,0,2.58,.16,3.68,.49,1.1,.38,1.65,.84,1.65,1.38,0,.43-.35,1.03-1.05,1.79-.55,.54-.98,.81-1.28,.81-.05,0-.14-.04-.26-.12-.12-.08-.29-.15-.49-.2-1.6-1.03-3.03-1.55-4.28-1.55-4.26,0-8.09,2.09-11.5,6.26-3.36,4.12-5.04,8.81-5.04,14.07,0,3.25,.88,5.99,2.63,8.21,1.7,2.17,3.91,3.25,6.61,3.25,3.41,0,6.44-1.6,9.09-4.8,2.56-3.2,3.83-6.91,3.83-11.14,0-1.41-.18-2.85-.53-4.31Z"/>
      <path class="cls-2" d="M1108.65,100.43c-3.91,6.83-6.96,12.82-9.17,17.97-1.6,3.58-2.41,5.75-2.41,6.51,0,.54,.23,.81,.68,.81,.3,0,1.35-.73,3.16-2.2,4.61-3.79,8.32-6.72,11.12-8.78,2.5-1.84,5.16-3.63,7.97-5.37,2.1-1.3,4.28-2.49,6.54-3.58,1.9-.81,3.33-1.22,4.28-1.22,1.85,0,2.78,1.14,2.78,3.42,0,1.14-.35,3.47-1.05,6.99-1.05,5.37-1.58,8.89-1.58,10.57,0,1.41,.35,2.58,1.05,3.5,.7,.92,1.6,1.38,2.71,1.38,3.66,0,9.92-4.85,18.79-14.56,1.9-2.06,4.16-4.66,6.76-7.81,.65-.87,1.13-1.3,1.43-1.3,.4,0,.6,.24,.6,.73,0,.43-.78,1.49-2.33,3.17l-4.66,5.45c-5.11,5.96-9.62,10.38-13.53,13.26-3.96,2.87-7.34,4.31-10.15,4.31-1.6,0-2.91-.62-3.91-1.87-1-1.25-1.5-2.9-1.5-4.96,0-1.63,.1-2.98,.3-4.07,.45-2.55,1.08-5.66,1.88-9.35,.25-1.19,.38-2.11,.38-2.76,0-1.57-.63-2.36-1.88-2.36-1.5,0-4.23,1.36-8.19,4.07-10.07,6.72-17.69,13.01-22.85,18.87-1.7,2.01-2.83,3.01-3.38,3.01-.8,0-1.2-.84-1.2-2.52,0-2.66,1.23-6.99,3.68-13.01,2.45-6.18,5.19-11.63,8.19-16.35,1.25-.7,3.08-1.35,5.49-1.95Z"/>
    </g>
  </g>
  <g id="Car">
    <path class="cls-3" d="M66.71,85.15s.05,0,.05,0h-.05Z"/>
    <path class="cls-1" d="M39.14,119.31c6.57-5.49,9.93-7.58,13.91-9.63,2.67-1.37,6.96-3.48,12.74-3.64,11.56-.32,21.08,2.35,27.29,5.03,0,0-10.8-8.59-31.47-7.28-5.88,.37-11.02,3.1-13.16,4.39-2.96,1.78-10.06,6.1-15.09,10.7-1.99,1.82-7.42,7.18,1.71,10.6,9.74,3.64,22.6,5.91,25.47,6.21,2.03,.21,12.63,.86,29.75-.21,.21,0-18.84-1.07-22.05-1.28-3.21-.21-11.24-2.14-14.77-3-3.1-.75-9.53-2.78-12.84-4.07-1.85-.72-8.03-2.35-1.5-7.81Z"/>
    <g>
      <path class="cls-4" d="M77.46,66.01c2.19-.11,11.13,0,15.41,.11,.76,.02,1.73,.11,2.89,.96,1.82,1.34,3.64,4.55,4.39,6.21,0,0-.37-5.51-3.42-8.03-1.07-.75-2.14-1.11-3.64-1.18-2.35-.11-12.25-.21-17.45-.11-1.1,.02-4.17,.11-2.78,3.43,1.39,3.32,4.98,4.6,5.78,4.82-.64-.64-2.16-2.59-2.78-4.39-.48-1.39,.32-1.76,1.6-1.82Z"/>
      <path class="cls-4" d="M199.58,115.35c-3.96,4.82,.11,7.71,1.39,8.35,3,1.28,8.56,3.43,8.56,3.43,0,0-5.46-3.21-7.71-4.92-2.25-1.71-.91-4.34,.19-5.27,1.28-1.07,6.44-4.87,9.65-6.79,1.99-1.19,5.99-3.68,17.55-4.42,11.56-.75,29.97-.21,38.21,.21,8.24,.43,13.81,2.57,16.06,4.39,3.55,2.88,4.53,3.82,7.49,7.17,2.44,2.76,1.34,5.51,.43,6.42-.75,.75-4.39,3.9-4.39,3.9,0,0,1.02-.36,5.35-2.82,4.44-2.52,2.39-6.55,1.28-8.35-1.95-3.17-5.89-8.13-9.74-11.24-1.67-1.34-5.24-3.53-10.38-4.17-10.81-.64-25.76-1.27-48.59-.77-5.78,.13-10.85,2.79-12.84,4.2-3.96,2.78-10.12,7.78-12.52,10.7Z"/>
      <path class="cls-4" d="M252.88,65.02c.64,.02,1.36,.07,1.69,1.06,.39,1.19-.21,3.26-.21,3.26,.51-.48,1.42-1.2,1.5-2.49,.11-1.77-.52-2.85-2.01-3-3.25-.32-10.03-.13-10.03-.13l1.77,1.12s4.95,.08,7.3,.17Z"/>
      <path class="cls-4" d="M160.94,130.76c1.43,1.93,1.93,2.78,6.64,6.85,4.71,4.07,9.17,3.89,12.41,3.85,5.92-.07,22.48-1.71,22.48-1.71,0,0-17.34-.86-21.83-1.28-4.49-.43-5.35-.77-6.64-1.93-1.07-.96-2.21-2.14-3.85-4.28-2.12-2.77,2.57-1.93,2.57-1.93,0,0,32.11,2.78,36.18,3.43,4.07,.64,10.69,1.14,14.27,1.14,15.13,0,54.44-.3,55.73-.3s10.21-.45,13.49-1.27c3.85-.96,8.81-2.2,13.27-3.21,4.71-1.07,3.85,1.18,3.85,1.18,0,0-.43,3.1-1.07,5.46-.64,2.35-2.12,3.23-3.3,3.43-4.69,.78-14.68,.5-14.68,.5,0,0,14.1,1.82,17.12,1.64,3.71-.21,5.48-3.64,5.48-3.64,0,0,1.65-2.8,2.23-7.92,.71-6.35-4.99-4.92-4.99-4.92,0,0-14.98,4.71-19.12,5.42-4.14,.71-11.7,.8-11.7,.8,0,0-55.3,.2-57.94,.2-2.36,0-9.42-.43-13.49-1.07-11.34-1.71-43.45-5.99-43.45-5.99-6.92-.71-4.36,4.59-3.64,5.57Z"/>
      <path class="cls-4" d="M121.59,123.32c.62-.39,1.34-.66,2.1-.77,.89-.13,1.76-.03,2.57,.27,.03,0,.05,.02,.08,.03-.04,0-5.21-18.59-5.21-18.59,0,0-.39-1.46-1.5-1.1-.74,.24-.92,.79-.79,1.64,.15,.86,2.5,18.62,2.5,18.62,0,0,.09-.03,.25-.09Z"/>
      <path class="cls-4" d="M101.15,120.86c-1.15-.29-2,0-2.29,.86-.28,1.28,1.28,1.85,1.28,1.85l18.87,7.15c-.09-.33-.17-.66-.22-1.01-.24-1.73,.17-3.38,1.04-4.67-.46-.1-17.56-3.89-18.68-4.17Z"/>
      <path class="cls-4" d="M127.87,123.69c1.3,.99,2.24,2.54,2.5,4.38,.03,.23,.05,.46,.06,.69,2.91-3.09,12.1-11.55,12.1-11.55,0,0-.16-.7-.35-1.35-.19-.64-.51-1.36-.51-1.36l-13.8,9.2Z"/>
      <path class="cls-4" d="M127.23,134.66c2.76,1.96,15.09,11.08,15.09,11.08,0,0,.33-.53,.64-1.32,.25-.64,.36-1.21,.36-1.21l-13.01-12.8c-.37,1.86-1.5,3.43-3.07,4.26Z"/>
      <path class="cls-4" d="M120.18,132.95c-.92,1.81-8.11,18-8.11,18,0,0-.79,1.58,.35,2.29,1,.43,1.79-.21,2.22-.92,.39-.66,9-14.67,10.45-17.04-1.92,.13-3.72-.79-4.91-2.32Z"/>
      <path class="cls-4" d="M7.82,104.62s-.3-1.09-1.08-.53c-.55,.39-.49,.93-.4,1.48,.12,.74,3.17,17.47,3.41,18.78,.44-.95,1.01-1.52,1.65-1.52,.41,0,.8,.24,1.15,.66l-4.72-18.87Z"/>
      <path class="cls-4" d="M2.62,126.13c-.95,.13-.81,.81-.95,.81,0,.67,.54,1.21,.54,1.21,0,0,5.12,1.96,6.85,2.54-.11-.62-.15-1.3-.15-2.01,0-.77,.06-1.5,.18-2.18-1.15-.11-5.65-.5-6.47-.38Z"/>
      <path class="cls-4" d="M11.39,134.55c-.59,0-1.13-.49-1.55-1.32-.78,3.14-4.09,16.32-4.28,17.03-.19,.81-.3,1.31,.1,1.93,.4,.6,1.11-.21,1.11-.21,0,0,4.39-14.38,5.37-17.71-.23,.19-.49,.28-.75,.28Z"/>
    </g>
    <g>
      <path class="cls-2" d="M3.84,98.89s1.52-2.66,3.1-3.91c1.2-.94,3.61-1.71,5.8,1.62,3.03,4.62,5.8,12.27,8.63,33.44-.03-6.88-.54-25.03-6.07-34.79-1.71-3.03-7.21-8.8-11.46,3.64Z"/>
      <g>
        <path class="cls-2" d="M120.91,63.54c24.54,.07,88.62,1.21,117.52,2.57-62.93-5.35-117.52-2.57-117.52-2.57Z"/>
        <path class="cls-2" d="M277.17,86.02c-33.5-6.42-70.32-2.25-70.32-2.25,29.22-.64,44.84-.86,70.32,2.25Z"/>
        <path class="cls-2" d="M293.01,143.94c-2.78-1.07-9.56-2.11-13.83-2.14-16.57-.11-61.09-.13-63.87-.13s-8.99,.86-8.99,.86c0,0-4.49,.64-7.06,.86-2.57,.21-9.85,1.28-9.85,1.28l-41.53-.86c.86,3,5.14,4.28,5.14,4.28,0,0,26.76,.21,34.04,.21s12.41-1.5,12.41-1.5c0,0,5.14-1.5,6.85-2.14,1.71-.64,9.42-1.5,9.42-1.5,0,0,59.79,.06,63.44,.08,3.77,.03,11.05,2.91,12.55,3.55,3.21,1.5,7.71,1.37,7.71,1.37l13.4-.13c2.64-1.55,3.21-3.64,3.21-3.64,0,0-15.22,.11-16.83,.21-1.55,.1-4.92-.26-6.21-.68Z"/>
        <path class="cls-2" d="M142.53,102.07c-4.92-8.99-11.06-11.99-16.7-12.2-10.7-.43-14.98,8.99-14.98,8.99,4.14-4.64,8.35-6.05,13.7-6.21,5.94-.18,10.49,4.07,12.63,6.64,7.55,8.56,11.99,30.4,11.99,30.4-.43-9.42-2.84-20.12-6.64-27.61Z"/>
        <polygon class="cls-2" points="161.37 154.95 157.09 157.34 273.96 157.34 270.54 154.95 161.37 154.95"/>
        <path class="cls-2" d="M380.86,156.29s-56.88-1.21-57.45-1.21c4-9.42,4-15.98,3.42-22.26-2.2-19.6-11.98-27.63-14.7-29.51-3.73-12.82-10.01-16.73-12.06-18.15-14.41-9.99-40.67-14.56-40.67-14.56,25.76,6.56,40.81,17.05,40.81,17.05-5.76,.23-9.42,1.59-12.77,3.76,6.67-2.76,15.41-1.62,15.41-1.62,2.93,2.57,5.14,6.38,6.82,10.47-2.49,.08-12.52,.4-15.39,.17-3.02-.24-6.79-4.15-7.96-6.72-.92-2-2.95-6.21-4.67-8.35-7.06-10.06-26.44-14.56-29.75-16.05-2.1-.95-5.71-2.23-10.27-5.78-8.35-6.49-21.09-14.91-28.3-18.41-6.17-3-15.08-5.07-31.21-6.04-46.45-2.78-106.28-1.03-106.28-1.03,.26,0,.54,.03,.82,.05-1,.03-2.01,.07-3.06,.17-20.05,1.78-33.46,7.21-54.37,25.04-11.63,9.85-14.98,25.04-16.05,30.61,.64-2.14,1.85-5.92,4.49-8.78,1.93-1.93,5.57-3.37,11.77-3.64,7.37-.32,34.92,1.28,47.26,3.63-1.4-.29-33.55-7.89-55.6-6.63,0,0,1.78-8.96,15.41-19.48,14.98-11.56,27.4-18.3,47.73-19.48,5.35-.21,10.7-.64,18.84,3.43,7.49,3.85,13.48,11.92,16.05,15.63,3.57,5.14,6.21,7.71,13.27,8.56,7.06,.86,24.9,2.86,32.11,4.07,9.77,1.64,36.18,8.99,46.66,16.7,2.14,1.71,1.45,3.18,.86,4.28-.7,1.28-1.41,2.59-1.93,3.42-.66,1.06-1.34,2.14-4.5,2.18-2.8,.04-24.25-.86-29.75-1.03-.82-.03-1.9-.15-2.8-.44-1.63-.54-3.72-1.46-4.69-2-1.46-.81-4.6-3.14-6.42-5.78-.86-1.25-.43-1.71,1.07-2.14,1.5-.43,21.9-.86,42.1,3.43,0,0-25.88-8.76-51.73-5.61-12.72-2.61-48.76-9.51-92.04-13.44-2.03-.21-6.78-.68-8.78-2.35-2.44-2.05-3.48-3.37-4.57-5.14-.64-1.04-.84-2.24,1.71-4.57,3.21-2.93,14.98-14.41,35.39-14.84,4.92-.07,10.51,.84,15.13,3.85,5.35,3.5,11.52,14.06,15.27,24.33,0,0-4.49-19.42-14.56-25.9-4.54-2.92-9.85-4.24-16.05-4.07-7.71,.21-23.12,2.35-38.89,15.91-2,1.85-3.2,4.77-1,7.14,2.21,2.37,5.15,4.41,6.28,5.14,2,1.28,6.37,2.13,9.13,2.43,12.97,1.37,68.25,7.56,93.94,14.28,1.6,2.74,4.98,6.96,11.8,9.83,1.28,.54,3.75,1.25,5.42,1.43,2.03,.22,35.96,1,35.96,1,0,0,3.99,.29,6.28-2.28,2.28-2.57,5-5.85,5-5.85,0,0,1.52-2.57-.62-3.75-2.02-1.11-22.36-14.06-53.46-18.23-11.96-1.61-29.4-3.36-31.68-3.48-2.57-.14-6.78-1.23-11.13-7.51-2.89-4.16-7.94-11.6-16.92-16.17,24.46-1.4,66.59-1.77,89.27-.1,15.55,1.14,24.08,3.64,27.18,5.21,7.56,3.64,22.76,13.77,25.47,16.2,1.13,1.01,7.75,5.44,12.63,7.06,5.46,1.82,18.73,6.53,23.55,9.63,7.16,4.62,8.52,8.69,11.56,14.77,2.36,4.71,6.68,6.93,9.63,7.02,3.09,.09,12.64-.31,15.73-.69,3.1,7.95,4.27,16.73,4.82,19.57-.31-5.8-1.03-10.64-2-14.71,10.4,9,11.86,22.71,12.28,26.91,.21,17.34-6.85,24.62-6.85,24.62l62.59-1.22Z"/>
        <path class="cls-2" d="M11.39,126.13c-.6,0-1.08,1.15-1.08,2.56s.48,2.56,1.08,2.56,1.08-1.15,1.08-2.56-.48-2.56-1.08-2.56Z"/>
        <path class="cls-2" d="M111.19,155.96c-7.92-4.17-13.92-12.42-15.36-22.56-.34-2.39-.4-4.74-.22-7.04,0,0,0-.02,0-.03,.92-11.53,8.11-21.36,18.34-24.73,1.37-.45,2.79-.8,4.26-1,7.21-1.02,14.2,1.21,19.71,5.66,.21,.17,.41,.34,.61,.51-.5-.97-5.96-9.83-21.6-7.79-3.51,.46-6.73,1.72-9.61,3.54-9.42,5.92-14.96,18.07-13.11,31.11,.52,3.71,1.62,7.19,3.15,10.33l-75.63,.06c.14,1.28,3.71,3.45,4.85,3.88,1.14,.43,3.71,.29,3.71,.29l12.48,.03c-1.01,.03-2.35,.04-2.35,.04,0,0-1.29,5.99-3,8.42,0,.13,55.71,.15,71.23,.15h4.3c-.59-.26-1.17-.53-1.74-.83,0,0-.02,0-.03-.02Zm-69.2-1.01s1.52-4.81,1.84-6.74l56.07,.11c.37,.54,.76,1.07,1.16,1.58,1.46,1.89,3.13,3.57,4.95,5.02-8.87-.09-64.02,.03-64.02,.03Z"/>
        <path class="cls-2" d="M127.55,128.47c-.25-1.79-1.78-3.05-3.42-2.82-1.63,.23-2.75,1.87-2.5,3.66,.25,1.79,1.78,3.05,3.42,2.82,1.63-.23,2.75-1.87,2.5-3.66Z"/>
        <path class="cls-2" d="M4.32,101.22C1.82,105.73,.11,113.18,0,124.3c-.2,20.88,3.99,29.63,4.37,30.7-.06-.24-.11-.47-.16-.71-2.03-5.03-3.46-14.08-3.61-24.44-.12-7.94,.53-15.13,1.7-20.35,.66-2.92,1.8-6.02,3.19-7.74,.48-.47,.99-.74,1.51-.74,3.77-.06,7.02,12.76,7.25,28.63,.12,8.06-2.46,26.41-2.46,26.41,3.27-6.4,4.14-24.91,4.14-28.25-.57-19.01-3.09-24.13-5.34-27.1-2.27-2.99-5.3-1.24-6.27,.51Z"/>
      </g>
    </g>
    <path class="cls-3" d="M5.53,185.87s.02,.1,.03,.14c.01,0,0-.06-.03-.14Z"/>
  </g>
</svg>