<?xml version="1.0" encoding="UTF-8"?>
<svg id="Layer_2" data-name="Layer 2" xmlns="http://www.w3.org/2000/svg" viewBox="0 0 1121 773">
  <defs>
    <style>
      .cls-1 {
        fill: #fff;
      }
      .cls-4 {
        fill: #f48120;
      }
      .cls-7 {
        fill: #1a1a1a;
      }
      .cls-8 {
        fill: url(#Dégradé_sans_nom_19);
      }
    </style>
    <linearGradient id="Dégradé_sans_nom_19" x1="521.01" y1="284.14" x2="616.44" y2="379.57" gradientUnits="userSpaceOnUse">
      <stop offset="0" stop-color="#dc370d"/>
      <stop offset="1" stop-color="#f99d21"/>
    </linearGradient>
    <clipPath id="clippath">
      <path class="cls-6" d="m568.73,399.32c37.21,0,67.46-30.1,67.46-67.47s-30.1-67.47-67.46-67.47-67.47,30.1-67.47,67.47,30.1,67.47,67.47,67.47Z"/>
    </clipPath>
  </defs>
  <g id="payment_methods">
    <g id="discover">
      <g>
        <rect class="cls-1" x="75.01" y="75.28" width="940.72" height="592.13" rx="61.52" ry="61.52"/>
      </g>
      <polygon class="cls-7" points="925.71 417.4 925.71 417.25 925.6 417.25 925.71 417.4"/>
      <path class="cls-7" d="m494.15,388.89v-28.74c-29.19,29.19-70.79,8.77-70.79-29.04,0-35.85,40.39-59.15,70.79-28.74v-28.74c-45.68-22.69-95.75,10.29-95.75,57.48s50.83,79.42,95.75,57.78Z"/>
      <path class="cls-7" d="m193.58,268.93h-35.4v124.04h35.4c46.74,0,66.71-33.88,66.71-61.87,0-36.46-27.23-62.17-66.71-62.17Zm28.29,93.48c-7.41,6.66-17.55,9.68-33.13,9.68h-6.35v-81.99h6.35c15.58,0,25.26,2.57,33.13,9.98,8.62,7.56,13.46,19.06,13.46,31.01s-4.84,23.45-13.46,31.31Z"/>
      <polygon class="cls-7" points="825.73 372.1 781.41 372.1 781.41 338.51 824.22 338.51 824.22 317.64 781.41 317.64 781.41 290.11 825.73 290.11 825.73 268.93 757.2 268.93 757.2 392.97 825.73 392.97 825.73 372.1"/>
      <rect class="cls-7" x="271.48" y="268.93" width="24.2" height="124.04"/>
      <path class="cls-8" d="m568.73,399.32c37.21,0,67.46-30.1,67.46-67.47s-30.1-67.47-67.46-67.47-67.47,30.1-67.47,67.47,30.1,67.47,67.47,67.47Z"/>
      <polygon class="cls-7" points="692.77 396.3 746.47 268.93 719.99 268.93 686.41 352.43 653.28 268.93 626.81 268.93 679.76 396.3 692.77 396.3"/>
      <path class="cls-7" d="m347.12,373.91h0c-11.5,0-20.88-5.6-26.47-16.34l-15.58,14.98c26.93,39.48,85.62,27.53,85.62-17.09,0-19.82-8.17-28.74-35.7-38.72-14.52-5.14-18.61-8.92-18.61-15.58,0-13.16,21.93-21.33,37.67-3.78l12.71-16.34c-28.89-25.87-75.18-13.46-75.18,21.63,0,17.09,7.86,26.02,30.55,34.34,38.88,13.77,22.24,36.91,4.99,36.91Z"/>
      <path class="cls-7" d="m921.78,305.69c0-43.11-45.83-36.91-80.02-36.91v124.04h24.2v-49.62h3.33l33.58,49.62h29.69l-39.07-52.04c18.3-3.78,28.29-16.03,28.29-35.09Zm-48.71,20.57h-7.11v-37.67h7.41c15.28,0,23.6,6.35,23.6,18.3,0,12.71-8.32,19.36-23.9,19.36Z"/>
      <g class="cls-5">
      </g>
      <path class="cls-4" d="m954.19,667.94c34.25,0,62.02-27.77,62.02-62.02v-183.19s-240.06,169.39-679.72,245.21h617.7Z"/>
    </g>
  </g>
</svg>