<?xml version="1.0" encoding="UTF-8"?>
<svg id="Layer_2" data-name="Layer 2" xmlns="http://www.w3.org/2000/svg" viewBox="0 0 1000 1000">
  <defs>
    <style>
      .cls-1 {
        fill: #fff;
      }

      .cls-2 {
        fill: #122cd0;
      }

      .vinyl-imagination-grey {
        fill: #b3b3b3;
      }
    </style>
  </defs>
  <g id="Layer_1-2">
    <rect width="1000" height="1000" rx="58.55" ry="58.55"/>
    <g>
      <g>
        <path class="vinyl-imagination-grey" d="m338.16,721.6l68.94-49.88h24.43l-96.09,68.9h-21.99l8.69-69.41h23.34l-7.33,50.39Z"/>
        <path class="vinyl-imagination-grey" d="m399.23,740.11h-22.26l35.29-46.53h22.53l-35.56,46.53Z"/>
        <path class="vinyl-imagination-grey" d="m489.48,702.58h-27.96l-2.17,3.08-17.37,22.62-8.96,11.83h-22.53l7.6-9.64,21.71-28.67,6.24-8.23h56.32c17.64,0,26.64,3,27.01,9l-20.63,28.28-6.51,9.26h-23.34l25.79-34.45c-.36-2.06-2.35-3.08-5.97-3.08h-9.23Z"/>
        <path class="vinyl-imagination-grey" d="m616.24,693.58h21.17l-5.7,9-20.63,28.02-7.06,9.25-7.33,9.51c-4.89,6.34-12.31,9.51-22.26,9.51h-76l7.06-8.48h57.81c6.69-.17,11.67-1.72,14.93-4.63l4.34-5.66-41.12.13c-14.66,0-21.99-2.27-21.99-6.81,0-.86.32-1.84.95-2.96l21.71-28.67,6.24-8.23h22.8l-9.5,12.08-17.37,22.62c.18,1.89,2.62,2.83,7.33,2.83l30.67.13,6.79-.13,17.91-25.45,9.23-12.08Z"/>
        <path class="vinyl-imagination-grey" d="m637.41,740.11h-22.26l49.67-65.04h21.71l-49.13,65.04Z"/>
      </g>
      <g>
        <g>
          <path class="vinyl-imagination-grey" d="m76.98,826.21l-13.71,17.74-.27.39c-.18.34-.27.77-.27,1.29l-8.82,11.18h-23.89l10.31-13.63,32.3-42.68,10.31-13.11h23.89l-10.04,13.63-19.81,25.19Z"/>
          <path class="vinyl-imagination-grey" d="m128.82,824.16l4.07-5.4h-12.49l-2.44,3.08-17.37,22.62-8.96,11.83h-22.53l7.6-9.64,21.71-28.67,6.24-8.23h56.32c17.64,0,26.64,3,27.01,9l-20.63,28.28-6.51,9.26h-23.34l25.79-34.45c-.36-2.06-2.35-3.08-5.97-3.08h-5.16l-4.07,5.4-23.34,32.14h-20.09l24.16-32.14Z"/>
          <path class="vinyl-imagination-grey" d="m255.58,828.27h4.89l5.16-6.43c-.36-2.06-2.35-3.08-5.97-3.08h-59.99l6.51-9h57.14c17.64,0,26.64,3,27.01,9l-20.63,28.28c-4.16,6.26-14.79,9.38-31.89,9.38h-37.73c-14.66,0-21.99-2.27-21.99-6.81,0-.86.32-1.84.95-2.96l10.86-14.27c2.17-2.74,5.88-4.11,11.13-4.11h54.56Zm-1.36,9.25h-45.87l-5.43,6.94c.18,1.89,2.62,2.83,7.33,2.83l30.67.13c2.89-.26,5.43-1.24,7.6-2.96l5.7-6.94Z"/>
          <path class="vinyl-imagination-grey" d="m392.65,818.76l-20.63,28.02-7.06,9.25-7.33,9.51c-4.88,6.34-12.3,9.51-22.26,9.51h-76l7.06-8.48h57.81c6.69-.17,11.67-1.72,14.93-4.63l4.34-5.66-41.12.13c-14.66,0-21.99-2.27-21.99-6.81,0-.86.32-1.84.95-2.96l21.71-28.67c3.26-5.66,11.4-8.4,24.43-8.23h38.14c17.64,0,26.64,3,27.01,9Zm-39.9,0h-19c-4.89,0-8.6,1.03-11.13,3.08l-17.37,22.62c.18,1.89,2.62,2.83,7.33,2.83l30.67.13,6.79-.13,17.91-25.45c-.36-2.06-2.35-3.08-5.97-3.08h-9.23Z"/>
          <path class="vinyl-imagination-grey" d="m398.62,856.29h-22.26l35.29-46.53h22.53l-35.56,46.53Z"/>
          <path class="vinyl-imagination-grey" d="m487.92,818.76h-27.96l-2.17,3.08-17.37,22.62-8.96,11.83h-22.53l7.6-9.64,21.71-28.67,6.24-8.23h56.32c17.64,0,26.64,3,27.01,9l-20.63,28.28-6.51,9.26h-23.34l25.79-34.45c-.36-2.06-2.35-3.08-5.97-3.08h-9.23Z"/>
          <path class="vinyl-imagination-grey" d="m595.41,828.27h4.89l5.16-6.43c-.36-2.06-2.35-3.08-5.97-3.08h-59.99l6.51-9h57.14c17.64,0,26.64,3,27.01,9l-20.63,28.28c-4.16,6.26-14.79,9.38-31.89,9.38h-37.73c-14.66,0-21.99-2.27-21.99-6.81,0-.86.32-1.84.95-2.96l10.86-14.27c2.17-2.74,5.88-4.11,11.13-4.11h54.56Zm-1.36,9.25h-45.87l-5.43,6.94c.18,1.89,2.62,2.83,7.33,2.83l30.67.13c2.89-.26,5.43-1.24,7.6-2.96l5.7-6.94Z"/>
          <path class="vinyl-imagination-grey" d="m692.58,818.76h-27.14l-2.98,3.08-17.37,22.62c.18,2.23,2.62,3.26,7.33,3.08h22.8l-9.23,8.74h-24.16c-14.3,0-21.17-3.21-20.63-9.64l21.71-28.67,20.36-26.74h21.71l-13.57,18.51h67.59l-6.51,9h-39.9Z"/>
          <path class="vinyl-imagination-grey" d="m738.45,856.29h-22.26l35.29-46.53h22.53l-35.56,46.53Z"/>
          <path class="vinyl-imagination-grey" d="m867.65,818.76l-20.63,28.28c-4.16,6.26-14.79,9.38-31.89,9.38h-37.73c-14.66,0-21.99-2.27-21.99-6.81,0-.86.32-1.84.95-2.96l21.71-28.67c3.26-5.66,11.4-8.4,24.43-8.23h38.14c17.64,0,26.64,3,27.01,9Zm-39.9,0h-19c-4.89,0-8.6,1.03-11.13,3.08l-17.37,22.62c.18,1.89,2.62,2.83,7.33,2.83l30.67.13c2.89-.26,5.25-1.24,7.06-2.96l17.64-22.62c-.36-2.06-2.35-3.08-5.97-3.08h-9.23Z"/>
          <path class="vinyl-imagination-grey" d="m930.08,818.76h-27.96l-2.17,3.08-17.37,22.62-8.96,11.83h-22.53l7.6-9.64,21.71-28.67,6.24-8.23h56.32c17.64,0,26.64,3,27.01,9l-20.63,28.28-6.51,9.26h-23.34l25.79-34.45c-.36-2.06-2.35-3.08-5.97-3.08h-9.23Z"/>
        </g>
        <g>
          <path class="vinyl-imagination-grey" d="m76.98,826.21l-13.71,17.74-.27.39c-.18.34-.27.77-.27,1.29l-8.82,11.18h-23.89l10.31-13.63,32.3-42.68,10.31-13.11h23.89l-10.04,13.63-19.81,25.19Z"/>
          <path class="vinyl-imagination-grey" d="m128.82,824.16l4.07-5.4h-12.49l-2.44,3.08-17.37,22.62-8.96,11.83h-22.53l7.6-9.64,21.71-28.67,6.24-8.23h56.32c17.64,0,26.64,3,27.01,9l-20.63,28.28-6.51,9.26h-23.34l25.79-34.45c-.36-2.06-2.35-3.08-5.97-3.08h-5.16l-4.07,5.4-23.34,32.14h-20.09l24.16-32.14Z"/>
          <path class="vinyl-imagination-grey" d="m255.58,828.27h4.89l5.16-6.43c-.36-2.06-2.35-3.08-5.97-3.08h-59.99l6.51-9h57.14c17.64,0,26.64,3,27.01,9l-20.63,28.28c-4.16,6.26-14.79,9.38-31.89,9.38h-37.73c-14.66,0-21.99-2.27-21.99-6.81,0-.86.32-1.84.95-2.96l10.86-14.27c2.17-2.74,5.88-4.11,11.13-4.11h54.56Zm-1.36,9.25h-45.87l-5.43,6.94c.18,1.89,2.62,2.83,7.33,2.83l30.67.13c2.89-.26,5.43-1.24,7.6-2.96l5.7-6.94Z"/>
          <path class="vinyl-imagination-grey" d="m392.65,818.76l-20.63,28.02-7.06,9.25-7.33,9.51c-4.88,6.34-12.3,9.51-22.26,9.51h-76l7.06-8.48h57.81c6.69-.17,11.67-1.72,14.93-4.63l4.34-5.66-41.12.13c-14.66,0-21.99-2.27-21.99-6.81,0-.86.32-1.84.95-2.96l21.71-28.67c3.26-5.66,11.4-8.4,24.43-8.23h38.14c17.64,0,26.64,3,27.01,9Zm-39.9,0h-19c-4.89,0-8.6,1.03-11.13,3.08l-17.37,22.62c.18,1.89,2.62,2.83,7.33,2.83l30.67.13,6.79-.13,17.91-25.45c-.36-2.06-2.35-3.08-5.97-3.08h-9.23Z"/>
          <path class="vinyl-imagination-grey" d="m398.62,856.29h-22.26l35.29-46.53h22.53l-35.56,46.53Z"/>
          <path class="vinyl-imagination-grey" d="m487.92,818.76h-27.96l-2.17,3.08-17.37,22.62-8.96,11.83h-22.53l7.6-9.64,21.71-28.67,6.24-8.23h56.32c17.64,0,26.64,3,27.01,9l-20.63,28.28-6.51,9.26h-23.34l25.79-34.45c-.36-2.06-2.35-3.08-5.97-3.08h-9.23Z"/>
          <path class="vinyl-imagination-grey" d="m595.41,828.27h4.89l5.16-6.43c-.36-2.06-2.35-3.08-5.97-3.08h-59.99l6.51-9h57.14c17.64,0,26.64,3,27.01,9l-20.63,28.28c-4.16,6.26-14.79,9.38-31.89,9.38h-37.73c-14.66,0-21.99-2.27-21.99-6.81,0-.86.32-1.84.95-2.96l10.86-14.27c2.17-2.74,5.88-4.11,11.13-4.11h54.56Zm-1.36,9.25h-45.87l-5.43,6.94c.18,1.89,2.62,2.83,7.33,2.83l30.67.13c2.89-.26,5.43-1.24,7.6-2.96l5.7-6.94Z"/>
          <path class="vinyl-imagination-grey" d="m692.58,818.76h-27.14l-2.98,3.08-17.37,22.62c.18,2.23,2.62,3.26,7.33,3.08h22.8l-9.23,8.74h-24.16c-14.3,0-21.17-3.21-20.63-9.64l21.71-28.67,20.36-26.74h21.71l-13.57,18.51h67.59l-6.51,9h-39.9Z"/>
          <path class="vinyl-imagination-grey" d="m738.45,856.29h-22.26l35.29-46.53h22.53l-35.56,46.53Z"/>
          <path class="vinyl-imagination-grey" d="m867.65,818.76l-20.63,28.28c-4.16,6.26-14.79,9.38-31.89,9.38h-37.73c-14.66,0-21.99-2.27-21.99-6.81,0-.86.32-1.84.95-2.96l21.71-28.67c3.26-5.66,11.4-8.4,24.43-8.23h38.14c17.64,0,26.64,3,27.01,9Zm-39.9,0h-19c-4.89,0-8.6,1.03-11.13,3.08l-17.37,22.62c.18,1.89,2.62,2.83,7.33,2.83l30.67.13c2.89-.26,5.25-1.24,7.06-2.96l17.64-22.62c-.36-2.06-2.35-3.08-5.97-3.08h-9.23Z"/>
          <path class="vinyl-imagination-grey" d="m930.08,818.76h-27.96l-2.17,3.08-17.37,22.62-8.96,11.83h-22.53l7.6-9.64,21.71-28.67,6.24-8.23h56.32c17.64,0,26.64,3,27.01,9l-20.63,28.28-6.51,9.26h-23.34l25.79-34.45c-.36-2.06-2.35-3.08-5.97-3.08h-9.23Z"/>
        </g>
      </g>
      <g>
        <path class="cls-2" d="m566.93,512.8l-66.93-.35-66.93.35c-25.14.13-27.63,3.87-41.55-19.38-20.82-34.75-37.85-66.78-74.07-87.77l-125.56-72.77,121.01,76.66c31.39,19.89,38.22,42.37,56.39,75.4l-49.05,108.73-72.76.82-120.18-41.69,117.72,62.95,99.74.82,54.78-89.11c33.68.51,67.08.78,100.45.82,33.38-.04,66.77-.31,100.45-.82l54.77,89.11,99.74-.82,117.73-62.95-120.18,41.69-72.76-.82-49.05-108.73c18.17-33.03,25-55.51,56.39-75.4l121.01-76.66-125.56,72.77c-36.22,20.99-53.25,53.02-74.07,87.77-13.93,23.25-16.41,19.51-41.55,19.38Z"/>
        <path class="cls-1" d="m356.22,480.85l-20.7-26.87c-13.92-18.07-16.49-22.73-39.78-27.96l-132.75-29.87c-21.02-7.33-32.64-18.34-44.67-35.48,14.2,40.02,19.59,85.64,70.01,93.62l167.89,26.56Z"/>
        <path class="cls-1" d="m643.78,480.85l20.7-26.87c13.92-18.07,16.49-22.73,39.78-27.96l132.75-29.87c21.02-7.33,32.64-18.34,44.67-35.48-14.2,40.02-19.6,85.64-70.01,93.62l-167.89,26.56Z"/>
        <path class="vinyl-imagination-grey" d="m500,318.18c-61.85.59-256.89,2.43-296.66,2.43-47.42,0-80.94,27.8-80.94,27.8l26.16-27.8c39.24-73.17,79.3-122.22,134.89-176.59,0,0-72.5,92.06-93.95,144.16-3.33,8.08-13.37,16.72,18.55,16.72,17.34,0,240.22-5.11,291.94-6.3,51.72,1.19,274.6,6.3,291.94,6.3,31.92,0,21.88-8.63,18.55-16.72-21.45-52.1-93.95-144.16-93.95-144.16,55.59,54.37,95.65,103.42,134.89,176.59l26.16,27.8s-33.52-27.8-80.94-27.8c-39.77,0-234.81-1.84-296.66-2.43Z"/>
        <path class="vinyl-imagination-grey" d="m500,149.01c-71.68.17-142.85,2.69-213.65,7.46l7.97-13.49c65.02-13.05,133.58-19.02,205.68-17.91,72.1-1.11,140.66,4.86,205.68,17.91l7.97,13.49c-70.8-4.76-141.97-7.29-213.65-7.46Z"/>
        <path class="vinyl-imagination-grey" d="m134.67,298.54l23.71-28.61s-108.73,0-115.27,2.45c-6.54,2.45-13.08,2.45-13.08,10.63s6.13,29.84,6.13,29.84l82.16,17.17,12.67-19.62-69.08-7.36s0-9.81,72.76-4.5Z"/>
        <path class="vinyl-imagination-grey" d="m865.33,298.54l-23.71-28.61s108.73,0,115.27,2.45c6.54,2.45,13.08,2.45,13.08,10.63s-6.13,29.84-6.13,29.84l-82.16,17.17-12.67-19.62,69.08-7.36s0-9.81-72.76-4.5Z"/>
      </g>
    </g>
  </g>
</svg>