<?xml version="1.0" encoding="UTF-8"?>
<svg id="Layer_2" data-name="Layer 2" xmlns="http://www.w3.org/2000/svg" xmlns:xlink="http://www.w3.org/1999/xlink" viewBox="0 0 1122 773">
  <defs>
    <style>
      .cls-1 {
        fill: #fabb05;
      }
      .cls-2 {
        fill: #fff;
      }
      .cls-3 {
        fill: #4285f4;
      }
      .cls-5 {
        fill: #34a853;
      }

      .cls-6 {
        fill: #1a1a1a;
      }

      .cls-7 {
        fill: #e94235;
      }
    </style>
  </defs>
  <g id="payment_methods">
    <g id="google_pay">
      <g>
        <rect class="cls-2" x="75.49" y="75.84" width="940.72" height="592.13" rx="61.52" ry="61.52"/>
      </g>
      <g>
        <g>
          <g id="Fill-1">
            <path class="cls-6" d="m536.66,292.13v65.16h40.19c9.57,0,17.49-3.22,23.75-9.65,6.44-6.42,9.65-14.08,9.65-22.94s-3.21-16.25-9.65-22.68c-6.27-6.6-14.18-9.91-23.75-9.91h-40.19v.02Zm0,88.11v75.59h-24v-186.64h63.67c16.18,0,29.89,5.39,41.21,16.16,11.5,10.77,17.24,23.89,17.24,39.35s-5.73,29.03-17.24,39.62c-11.13,10.61-24.87,15.9-41.21,15.9h-39.67v.02Z"/>
          </g>
          <path id="Fill-3" class="cls-6" d="m659.04,416.72c0,6.27,2.65,11.47,7.96,15.65,5.32,4.16,11.52,6.25,18.66,6.25,10.1,0,19.08-3.74,26.99-11.21,7.92-7.48,11.88-16.24,11.88-26.31-7.48-5.92-17.92-8.87-31.31-8.87-9.74,0-17.88,2.35-24.39,7.04-6.52,4.69-9.79,10.49-9.79,17.44m31.06-92.79c17.75,0,31.75,4.73,42.02,14.21,10.27,9.48,15.38,22.46,15.38,38.96v78.72h-22.96v-17.72h-1.04c-9.91,14.59-23.13,21.88-39.65,21.88-14.09,0-25.9-4.16-35.36-12.5-9.49-8.35-14.23-18.76-14.23-31.3,0-13.2,4.99-23.71,14.99-31.52,10.01-7.82,23.36-11.74,40.06-11.74,14.26,0,26.01,2.61,35.22,7.82v-5.48c0-8.34-3.3-15.41-9.91-21.24-6.62-5.83-14.34-8.73-23.22-8.73-13.4,0-24,5.64-31.83,16.95l-21.15-13.3c11.67-16.68,28.88-25.02,51.68-25.02"/>
          <g id="Fill-5">
            <polygon class="cls-6" points="879.28 328.1 799.15 512.12 774.37 512.12 804.12 447.74 751.41 328.1 777.52 328.1 815.61 419.85 816.12 419.85 853.17 328.1 879.28 328.1"/>
          </g>
        </g>
        <path id="Fill-12" class="cls-1" d="m276.3,382.02c-2.17-6.48-3.37-13.39-3.37-20.53s1.19-14.04,3.37-20.53v-27.63h-35.65c-7.3,14.48-11.43,30.83-11.43,48.15s4.13,33.69,11.43,48.15l35.65-27.63Z"/>
        <g>
          <path id="Fill-8" class="cls-3" d="m439.66,363.94c0-7.55-.64-14.84-1.85-21.81h-101.24v41.3h57.99c-2.49,13.47-10.01,24.92-21.44,32.59v26.82h34.61c20.26-18.67,31.93-46.27,31.93-78.9"/>
          <path id="Fill-10" class="cls-5" d="m336.57,468.74c28.97,0,53.36-9.51,71.16-25.9l-34.61-26.82c-9.63,6.48-22.04,10.27-36.55,10.27-28,0-51.77-18.86-60.27-44.27h-35.65v27.63c17.67,35.04,53.98,59.1,95.92,59.1"/>
          <path id="Fill-14" class="cls-7" d="m336.57,296.7c15.82,0,30,5.43,41.19,16.08v.02l30.64-30.61c-18.61-17.31-42.87-27.94-71.83-27.94-41.94,0-78.26,24.05-95.92,59.08l35.65,27.63c8.5-25.41,32.27-44.26,60.27-44.26"/>
        </g>
      </g>
    </g>
  </g>
</svg>