<?xml version="1.0" encoding="UTF-8"?>
<svg id="Layer_2" data-name="Layer 2" xmlns="http://www.w3.org/2000/svg" viewBox="0 0 1122 773">
  <defs>
    <style>
      .cls-1 {
        fill: #ffb3c7;
      }
    </style>
  </defs>
  <g id="payment_methods">
    <g>
      <rect class="cls-1" x="75.34" y="75.19" width="940.72" height="592.13" rx="61.52" ry="61.52"/>
    </g>
  </g>
  <g id="background">
    <path d="m914.14,420.26c-12.12.05-21.91,9.91-21.86,22.03,0,.01,0,.03,0,.04-.07,12.12,9.7,22,21.82,22.07.01,0,.03,0,.04,0,12.06,0,21.86-9.89,21.86-22.07.07-12.12-9.7-22-21.82-22.07-.01,0-.03,0-.04,0Zm-71.95-17.04c0-16.7-14.13-30.21-31.56-30.21s-31.56,13.54-31.56,30.21,14.15,30.19,31.59,30.19,31.54-13.52,31.54-30.19h0Zm.12-58.72h34.83v117.42h-34.83v-7.51c-10.15,7.01-22.2,10.76-34.54,10.75-33.9,0-61.39-27.73-61.39-61.94s27.48-61.94,61.39-61.94c12.82,0,24.69,3.96,34.54,10.75v-7.53Zm-278.77,15.3v-15.28h-35.67v117.4h35.75v-54.82c0-18.5,19.85-28.43,33.64-28.43h.41v-34.15c-14.15,0-27.13,6.11-34.13,15.28Zm-88.85,43.42c0-16.7-14.13-30.21-31.56-30.21s-31.56,13.54-31.56,30.21,14.15,30.19,31.59,30.19,31.54-13.52,31.54-30.19h0Zm.12-58.72h34.85v117.42h-34.85v-7.51c-9.84,6.77-21.72,10.75-34.54,10.75-33.9,0-61.39-27.73-61.39-61.94s27.48-61.94,61.39-61.94c12.82,0,24.69,3.96,34.54,10.75v-7.53Zm209.67-3.14c-13.91,0-27.07,4.35-35.89,16.37v-13.21h-34.68v117.4h35.11v-61.69c0-17.84,11.85-26.6,26.15-26.6,15.3,0,24.12,9.23,24.12,26.36v61.94h34.78v-74.66c0-27.32-21.54-45.9-49.59-45.9h0Zm-356.34,120.56h36.47v-169.72h-36.47v169.72Zm-160.18.04h38.62v-169.8h-38.6l-.02,169.8Zm135.08-169.8c0,36.75-14.19,70.96-39.5,96.38l53.37,73.43h-47.69l-57.98-79.78,14.97-11.32c24.72-18.59,39.18-47.77,39.01-78.7h37.82Z"/>
  </g>
</svg>