<?xml version="1.0" encoding="UTF-8"?><svg id="Layer_1" xmlns="http://www.w3.org/2000/svg" viewBox="0 0 1281.72 371.27"><defs><style>.cls-1{fill:#a6a8ab;}.cls-2{fill:none;stroke:#b3b3b3;stroke-width:5px;}.cls-3{fill:#ec1c24;}.cls-4{fill:#122cd0;}.cls-5{fill:#b3b3b3;}</style></defs><path id="Car_Body" class="cls-5" d="m928.21,93.22h0s-.07,0-.1,0c-26.56-.11-53.48.75-80.49,2.46-1.46.09-2.9.19-4.34.28h0c-69.83-39.86-142.73-73.74-214.92-86.87C432.02-26.61,207.75,49.76,35.59,117.33v32.42l12.03-28.76h0c131.97-26.17,293.65-54.32,409.39-14.56-39.6-23.38-126.3-38.68-185.58-36.48,104.75-48.04,253.64-61.77,330.6-47.83,67.79,12.28,133.13,35.49,191.52,77.76h0c-108.62,9.85-192.18,25.24-335.25,24.27,84.14,5.07,163.27,1.87,238.81-2.38-162.43,26.02-328.28,53.27-460.22,7.04,207.67,78.35,445.01-8.51,687.9-15.49,73.08,1.61,144.47,8.71,213.9,34.92,29.89,11.29,45.89,24.7,60.43,35.56,11.22,8.38,50.73,9.28,69.93.91-79.96-65.38-205.72-90.91-340.82-91.47Z"/><path id="Tail_Light" class="cls-1" d="m35.99,174.68c16.25-16.25,37.83-26.86,60.74-32.51-21.29-1.11-41.36.5-61.14,7.57-.91,8.42-.86,16.14.4,24.94Z"/><path id="Window_Accents" class="cls-4" d="m486.75,102.75c86.14,7.25,169.99,4.36,254.99-7.19-82.34,4.37-167.79,5.9-248.14-.85l-21.6-60.22,11.45,57.87h0c-52.82-21.45-94.25-26.63-141.86-29.49,48.38,5.94,94.31,15.96,145.15,39.88Z"/><path id="Fender_Accent" class="cls-4" d="m1128.13,167.35s-117.31-64.74-386.39-16.41c0,0,216.49-30.1,386.39,16.41Z"/><g><g><path d="m50.64,229.93l63.99-46.29h22.67l-89.18,63.95h-20.41l8.06-64.43h21.67l-6.8,46.77Z"/><path d="m107.32,247.11h-20.66l32.75-43.19h20.91l-33,43.19Z"/><path d="m191.09,212.27h-25.95l-2.02,2.86-16.12,21-8.31,10.98h-20.91l7.05-8.95,20.15-26.61,5.79-7.64h52.28c16.38,0,24.73,2.79,25.07,8.35l-19.15,26.25-6.05,8.59h-21.67l23.93-31.98c-.34-1.91-2.18-2.86-5.54-2.86h-8.57Z"/><path d="m308.74,203.92h19.65l-5.29,8.35-19.15,26.01-6.55,8.59-6.8,8.83c-4.53,5.89-11.42,8.83-20.66,8.83h-70.54l6.55-7.87h53.66c6.21-.16,10.83-1.59,13.86-4.3l4.03-5.25-38.17.12c-13.6,0-20.41-2.11-20.41-6.32,0-.79.29-1.71.88-2.74l20.15-26.61,5.79-7.64h21.16l-8.82,11.21-16.12,21c.17,1.75,2.43,2.62,6.8,2.62l28.47.12,6.3-.12,16.63-23.62,8.57-11.21Z"/><path d="m328.39,247.11h-20.66l46.1-60.37h20.15l-45.6,60.37Z"/><path d="m445.15,219.19l-12.72,16.46-.25.36c-.17.32-.25.72-.25,1.19l-8.19,10.38h-22.17l9.57-12.65,29.98-39.61,9.57-12.17h22.17l-9.32,12.65-18.39,23.38Z"/><path d="m493.27,217.28l3.78-5.01h-11.59l-2.27,2.86-16.12,21-8.31,10.98h-20.91l7.05-8.95,20.15-26.61,5.79-7.64h52.28c16.38,0,24.73,2.79,25.07,8.35l-19.15,26.25-6.05,8.59h-21.67l23.93-31.98c-.34-1.91-2.18-2.86-5.54-2.86h-4.79l-3.78,5.01-21.67,29.83h-18.64l22.42-29.83Z"/><path d="m610.92,221.1h4.53l4.79-5.97c-.34-1.91-2.18-2.86-5.54-2.86h-55.68l6.05-8.35h53.03c16.38,0,24.73,2.79,25.07,8.35l-19.15,26.25c-3.86,5.81-13.73,8.71-29.6,8.71h-35.02c-13.6,0-20.41-2.11-20.41-6.32,0-.79.29-1.71.88-2.74l10.08-13.24c2.02-2.54,5.46-3.82,10.33-3.82h50.64Zm-1.26,8.59h-42.58l-5.04,6.44c.17,1.75,2.43,2.62,6.8,2.62l28.47.12c2.69-.24,5.04-1.15,7.05-2.74l5.29-6.44Z"/><path d="m738.15,212.27l-19.15,26.01-6.55,8.59-6.8,8.83c-4.53,5.89-11.42,8.83-20.66,8.83h-70.54l6.55-7.87h53.66c6.21-.16,10.83-1.59,13.86-4.3l4.03-5.25-38.17.12c-13.6,0-20.41-2.11-20.41-6.32,0-.79.29-1.71.88-2.74l20.15-26.61c3.02-5.25,10.58-7.79,22.67-7.64h35.4c16.38,0,24.73,2.79,25.07,8.35Zm-37.03,0h-17.63c-4.54,0-7.98.95-10.33,2.86l-16.12,21c.17,1.75,2.43,2.62,6.8,2.62l28.47.12,6.3-.12,16.63-23.62c-.34-1.91-2.19-2.86-5.54-2.86h-8.56Z"/><path d="m743.69,247.11h-20.66l32.75-43.19h20.91l-33,43.19Z"/><path d="m826.57,212.27h-25.95l-2.01,2.86-16.12,21-8.31,10.98h-20.91l7.05-8.95,20.15-26.61,5.79-7.64h52.28c16.38,0,24.73,2.79,25.07,8.35l-19.15,26.25-6.05,8.59h-21.67l23.93-31.98c-.34-1.91-2.18-2.86-5.54-2.86h-8.57Z"/><path d="m926.33,221.1h4.54l4.79-5.97c-.34-1.91-2.18-2.86-5.54-2.86h-55.68l6.05-8.35h53.03c16.38,0,24.73,2.79,25.07,8.35l-19.15,26.25c-3.86,5.81-13.73,8.71-29.6,8.71h-35.02c-13.6,0-20.41-2.11-20.41-6.32,0-.79.3-1.71.88-2.74l10.08-13.24c2.02-2.54,5.46-3.82,10.33-3.82h50.64Zm-1.26,8.59h-42.58l-5.04,6.44c.17,1.75,2.43,2.62,6.8,2.62l28.47.12c2.69-.24,5.04-1.15,7.05-2.74l5.29-6.44Z"/><path d="m1016.53,212.27h-25.19l-2.77,2.86-16.12,21c.17,2.07,2.43,3.02,6.8,2.86h21.16l-8.57,8.11h-22.42c-13.27,0-19.65-2.98-19.15-8.95l20.15-26.61,18.89-24.82h20.15l-12.6,17.18h62.73l-6.05,8.35h-37.03Z"/><path d="m1059.1,247.11h-20.66l32.75-43.19h20.91l-33,43.19Z"/><path d="m1179.02,212.27l-19.15,26.25c-3.86,5.81-13.73,8.71-29.6,8.71h-35.02c-13.6,0-20.41-2.11-20.41-6.32,0-.79.3-1.71.88-2.74l20.15-26.61c3.02-5.25,10.58-7.79,22.67-7.64h35.4c16.38,0,24.73,2.79,25.07,8.35Zm-37.03,0h-17.63c-4.54,0-7.98.95-10.33,2.86l-16.12,21c.17,1.75,2.43,2.62,6.8,2.62l28.47.12c2.69-.24,4.87-1.15,6.55-2.74l16.38-21c-.34-1.91-2.18-2.86-5.54-2.86h-8.57Z"/><path d="m1236.96,212.27h-25.95l-2.01,2.86-16.12,21-8.31,10.98h-20.91l7.05-8.95,20.15-26.61,5.79-7.64h52.28c16.38,0,24.73,2.79,25.07,8.35l-19.15,26.25-6.05,8.59h-21.67l23.93-31.98c-.34-1.91-2.18-2.86-5.54-2.86h-8.57Z"/></g><g><path class="cls-4" d="m50.64,229.93l63.99-46.29h22.67l-89.18,63.95h-20.41l8.06-64.43h21.67l-6.8,46.77Z"/><path class="cls-4" d="m107.32,247.11h-20.66l32.75-43.19h20.91l-33,43.19Z"/><path class="cls-4" d="m191.09,212.27h-25.95l-2.02,2.86-16.12,21-8.31,10.98h-20.91l7.05-8.95,20.15-26.61,5.79-7.64h52.28c16.38,0,24.73,2.79,25.07,8.35l-19.15,26.25-6.05,8.59h-21.67l23.93-31.98c-.34-1.91-2.18-2.86-5.54-2.86h-8.57Z"/><path class="cls-4" d="m308.74,203.92h19.65l-5.29,8.35-19.15,26.01-6.55,8.59-6.8,8.83c-4.53,5.89-11.42,8.83-20.66,8.83h-70.54l6.55-7.87h53.66c6.21-.16,10.83-1.59,13.86-4.3l4.03-5.25-38.17.12c-13.6,0-20.41-2.11-20.41-6.32,0-.79.29-1.71.88-2.74l20.15-26.61,5.79-7.64h21.16l-8.82,11.21-16.12,21c.17,1.75,2.43,2.62,6.8,2.62l28.47.12,6.3-.12,16.63-23.62,8.57-11.21Z"/><path class="cls-4" d="m328.39,247.11h-20.66l46.1-60.37h20.15l-45.6,60.37Z"/><path class="cls-4" d="m445.15,219.19l-12.72,16.46-.25.36c-.17.32-.25.72-.25,1.19l-8.19,10.38h-22.17l9.57-12.65,29.98-39.61,9.57-12.17h22.17l-9.32,12.65-18.39,23.38Z"/><path class="cls-4" d="m493.27,217.28l3.78-5.01h-11.59l-2.27,2.86-16.12,21-8.31,10.98h-20.91l7.05-8.95,20.15-26.61,5.79-7.64h52.28c16.38,0,24.73,2.79,25.07,8.35l-19.15,26.25-6.05,8.59h-21.67l23.93-31.98c-.34-1.91-2.18-2.86-5.54-2.86h-4.79l-3.78,5.01-21.67,29.83h-18.64l22.42-29.83Z"/><path class="cls-4" d="m610.92,221.1h4.53l4.79-5.97c-.34-1.91-2.18-2.86-5.54-2.86h-55.68l6.05-8.35h53.03c16.38,0,24.73,2.79,25.07,8.35l-19.15,26.25c-3.86,5.81-13.73,8.71-29.6,8.71h-35.02c-13.6,0-20.41-2.11-20.41-6.32,0-.79.29-1.71.88-2.74l10.08-13.24c2.02-2.54,5.46-3.82,10.33-3.82h50.64Zm-1.26,8.59h-42.58l-5.04,6.44c.17,1.75,2.43,2.62,6.8,2.62l28.47.12c2.69-.24,5.04-1.15,7.05-2.74l5.29-6.44Z"/><path class="cls-4" d="m738.15,212.27l-19.15,26.01-6.55,8.59-6.8,8.83c-4.53,5.89-11.42,8.83-20.66,8.83h-70.54l6.55-7.87h53.66c6.21-.16,10.83-1.59,13.86-4.3l4.03-5.25-38.17.12c-13.6,0-20.41-2.11-20.41-6.32,0-.79.29-1.71.88-2.74l20.15-26.61c3.02-5.25,10.58-7.79,22.67-7.64h35.4c16.38,0,24.73,2.79,25.07,8.35Zm-37.03,0h-17.63c-4.54,0-7.98.95-10.33,2.86l-16.12,21c.17,1.75,2.43,2.62,6.8,2.62l28.47.12,6.3-.12,16.63-23.62c-.34-1.91-2.19-2.86-5.54-2.86h-8.56Z"/><path class="cls-4" d="m743.69,247.11h-20.66l32.75-43.19h20.91l-33,43.19Z"/><path class="cls-4" d="m826.57,212.27h-25.95l-2.01,2.86-16.12,21-8.31,10.98h-20.91l7.05-8.95,20.15-26.61,5.79-7.64h52.28c16.38,0,24.73,2.79,25.07,8.35l-19.15,26.25-6.05,8.59h-21.67l23.93-31.98c-.34-1.91-2.18-2.86-5.54-2.86h-8.57Z"/><path class="cls-4" d="m926.33,221.1h4.54l4.79-5.97c-.34-1.91-2.18-2.86-5.54-2.86h-55.68l6.05-8.35h53.03c16.38,0,24.73,2.79,25.07,8.35l-19.15,26.25c-3.86,5.81-13.73,8.71-29.6,8.71h-35.02c-13.6,0-20.41-2.11-20.41-6.32,0-.79.3-1.71.88-2.74l10.08-13.24c2.02-2.54,5.46-3.82,10.33-3.82h50.64Zm-1.26,8.59h-42.58l-5.04,6.44c.17,1.75,2.43,2.62,6.8,2.62l28.47.12c2.69-.24,5.04-1.15,7.05-2.74l5.29-6.44Z"/><path class="cls-4" d="m1016.53,212.27h-25.19l-2.77,2.86-16.12,21c.17,2.07,2.43,3.02,6.8,2.86h21.16l-8.57,8.11h-22.42c-13.27,0-19.65-2.98-19.15-8.95l20.15-26.61,18.89-24.82h20.15l-12.6,17.18h62.73l-6.05,8.35h-37.03Z"/><path class="cls-4" d="m1059.1,247.11h-20.66l32.75-43.19h20.91l-33,43.19Z"/><path class="cls-4" d="m1179.02,212.27l-19.15,26.25c-3.86,5.81-13.73,8.71-29.6,8.71h-35.02c-13.6,0-20.41-2.11-20.41-6.32,0-.79.3-1.71.88-2.74l20.15-26.61c3.02-5.25,10.58-7.79,22.67-7.64h35.4c16.38,0,24.73,2.79,25.07,8.35Zm-37.03,0h-17.63c-4.54,0-7.98.95-10.33,2.86l-16.12,21c.17,1.75,2.43,2.62,6.8,2.62l28.47.12c2.69-.24,4.87-1.15,6.55-2.74l16.38-21c-.34-1.91-2.18-2.86-5.54-2.86h-8.57Z"/><path class="cls-4" d="m1236.96,212.27h-25.95l-2.01,2.86-16.12,21-8.31,10.98h-20.91l7.05-8.95,20.15-26.61,5.79-7.64h52.28c16.38,0,24.73,2.79,25.07,8.35l-19.15,26.25-6.05,8.59h-21.67l23.93-31.98c-.34-1.91-2.18-2.86-5.54-2.86h-8.57Z"/></g></g><line id="Divider" class="cls-2" x1="24" y1="286.27" x2="1277" y2="286.27"/><circle id="Bullet_Right" class="cls-5" cx="870" cy="330.27" r="9.82"/><circle id="Bullet_Left" class="cls-5" cx="449.82" cy="330.27" r="9.82"/><g><g><path class="cls-3" d="m29.82,351.74v-42.73h9.86v42.73h-9.86Z"/><path class="cls-3" d="m66.45,351.74v-35.01h6.77l17,20.78,16.92-20.78h6.81v35.01h-7.86v-24.09l-15.51,19.89h-1.64l-15.71-19.32v23.53h-6.77Z"/><path class="cls-3" d="m132.34,351.74l20.6-35.01h8.14l20.92,35.01h-9.5l-4.37-7.68h-22.97l-4.37,7.68h-8.46Zm16.43-14.07h15.91l-8.1-14.59-7.82,14.59Z"/><path class="cls-3" d="m232.9,323.16h-26.42v21.87h26.42v-7.44h-13.79v-6.23h22.09v12.09c0,3.21-.62,5.39-1.86,6.55-1.24,1.16-3.63,1.74-7.15,1.74h-25.13c-3.53,0-5.91-.58-7.15-1.74-1.24-1.16-1.86-3.34-1.86-6.55v-18.47c0-3.18.62-5.35,1.86-6.51,1.24-1.16,3.63-1.74,7.15-1.74h25.13c3.5,0,5.88.57,7.13,1.7,1.26,1.13,1.88,3.18,1.88,6.14v.93l-8.3,1.42v-3.76Z"/><path class="cls-3" d="m263.88,351.74v-35.01h8.42v35.01h-8.42Z"/><path class="cls-3" d="m295.97,351.74v-35.01h5.81l29.46,23.24v-23.24h7.66v35.01h-5.85l-29.38-23.61v23.61h-7.7Z"/><path class="cls-3" d="m362.62,351.74v-35.01h37.24v6.18h-28.7v7.64h16.71v6.02h-16.71v8.61h29.14v6.55h-37.68Z"/></g><g><path class="cls-5" d="m29.82,351.74v-42.73h9.86v42.73h-9.86Z"/><path class="cls-5" d="m66.45,351.74v-35.01h6.77l17,20.78,16.92-20.78h6.81v35.01h-7.86v-24.09l-15.51,19.89h-1.64l-15.71-19.32v23.53h-6.77Z"/><path class="cls-5" d="m132.34,351.74l20.6-35.01h8.14l20.92,35.01h-9.5l-4.37-7.68h-22.97l-4.37,7.68h-8.46Zm16.43-14.07h15.91l-8.1-14.59-7.82,14.59Z"/><path class="cls-5" d="m232.9,323.16h-26.42v21.87h26.42v-7.44h-13.79v-6.23h22.09v12.09c0,3.21-.62,5.39-1.86,6.55-1.24,1.16-3.63,1.74-7.15,1.74h-25.13c-3.53,0-5.91-.58-7.15-1.74-1.24-1.16-1.86-3.34-1.86-6.55v-18.47c0-3.18.62-5.35,1.86-6.51,1.24-1.16,3.63-1.74,7.15-1.74h25.13c3.5,0,5.88.57,7.13,1.7,1.26,1.13,1.88,3.18,1.88,6.14v.93l-8.3,1.42v-3.76Z"/><path class="cls-5" d="m263.88,351.74v-35.01h8.42v35.01h-8.42Z"/><path class="cls-5" d="m295.97,351.74v-35.01h5.81l29.46,23.24v-23.24h7.66v35.01h-5.85l-29.38-23.61v23.61h-7.7Z"/><path class="cls-5" d="m362.62,351.74v-35.01h37.24v6.18h-28.7v7.64h16.71v6.02h-16.71v8.61h29.14v6.55h-37.68Z"/></g></g><g><g><path class="cls-3" d="m499.34,351.74v-42.73h26.03c7.43,0,13.14,1.83,17.13,5.5,3.99,3.67,5.99,8.87,5.99,15.6,0,3.99-.78,7.58-2.33,10.77-1.56,3.19-3.75,5.71-6.58,7.54-1.76,1.16-3.95,2-6.57,2.53-2.62.53-5.97.79-10.05.79h-23.62Zm9.42-8.04h12.17c6.48,0,11.08-1.06,13.78-3.19,2.7-2.13,4.06-5.65,4.06-10.55,0-4.37-1.12-7.67-3.37-9.92-2.25-2.25-5.56-3.38-9.95-3.38h-16.69v27.04Z"/><path class="cls-3" d="m570.65,351.74v-35.01h35.57v6.18h-27.41v7.64h15.96v6.02h-15.96v8.61h27.83v6.55h-35.99Z"/><path class="cls-3" d="m656.78,323h-22.82v7.4h21.59c3.39,0,5.68.57,6.85,1.72,1.17,1.15,1.76,3.32,1.76,6.53v4.81c0,3.21-.6,5.39-1.8,6.55-1.2,1.16-3.47,1.74-6.81,1.74h-21.52c-3.42,0-5.74-.58-6.95-1.74-1.21-1.16-1.82-3.34-1.82-6.55v-.97l7.2-1.41v4.12h24.39v-8h-21.48c-3.4,0-5.69-.59-6.89-1.76-1.2-1.17-1.8-3.35-1.8-6.53v-3.92c0-3.15.6-5.32,1.8-6.49,1.2-1.17,3.5-1.76,6.89-1.76h19.68c3.34,0,5.63.56,6.87,1.68,1.24,1.12,1.86,3.09,1.86,5.92v.85l-7.01,1.58v-3.76Z"/><path class="cls-3" d="m685.99,351.74v-35.01h8.04v35.01h-8.04Z"/><path class="cls-3" d="m749.15,323.16h-25.23v21.87h25.23v-7.44h-13.17v-6.23h21.09v12.09c0,3.21-.59,5.39-1.78,6.55-1.19,1.16-3.46,1.74-6.83,1.74h-24c-3.37,0-5.65-.58-6.83-1.74-1.19-1.16-1.78-3.34-1.78-6.55v-18.47c0-3.18.59-5.35,1.78-6.51,1.19-1.16,3.46-1.74,6.83-1.74h24c3.34,0,5.62.57,6.81,1.7,1.2,1.13,1.8,3.18,1.8,6.14v.93l-7.92,1.42v-3.76Z"/><path class="cls-3" d="m778.73,351.74v-35.01h5.55l28.14,23.24v-23.24h7.31v35.01h-5.59l-28.06-23.61v23.61h-7.35Z"/></g><g><path class="cls-5" d="m499.34,351.74v-42.73h26.03c7.43,0,13.14,1.83,17.13,5.5,3.99,3.67,5.99,8.87,5.99,15.6,0,3.99-.78,7.58-2.33,10.77-1.56,3.19-3.75,5.71-6.58,7.54-1.76,1.16-3.95,2-6.57,2.53-2.62.53-5.97.79-10.05.79h-23.62Zm9.42-8.04h12.17c6.48,0,11.08-1.06,13.78-3.19,2.7-2.13,4.06-5.65,4.06-10.55,0-4.37-1.12-7.67-3.37-9.92-2.25-2.25-5.56-3.38-9.95-3.38h-16.69v27.04Z"/><path class="cls-5" d="m570.65,351.74v-35.01h35.57v6.18h-27.41v7.64h15.96v6.02h-15.96v8.61h27.83v6.55h-35.99Z"/><path class="cls-5" d="m656.78,323h-22.82v7.4h21.59c3.39,0,5.68.57,6.85,1.72,1.17,1.15,1.76,3.32,1.76,6.53v4.81c0,3.21-.6,5.39-1.8,6.55-1.2,1.16-3.47,1.74-6.81,1.74h-21.52c-3.42,0-5.74-.58-6.95-1.74-1.21-1.16-1.82-3.34-1.82-6.55v-.97l7.2-1.41v4.12h24.39v-8h-21.48c-3.4,0-5.69-.59-6.89-1.76-1.2-1.17-1.8-3.35-1.8-6.53v-3.92c0-3.15.6-5.32,1.8-6.49,1.2-1.17,3.5-1.76,6.89-1.76h19.68c3.34,0,5.63.56,6.87,1.68,1.24,1.12,1.86,3.09,1.86,5.92v.85l-7.01,1.58v-3.76Z"/><path class="cls-5" d="m685.99,351.74v-35.01h8.04v35.01h-8.04Z"/><path class="cls-5" d="m749.15,323.16h-25.23v21.87h25.23v-7.44h-13.17v-6.23h21.09v12.09c0,3.21-.59,5.39-1.78,6.55-1.19,1.16-3.46,1.74-6.83,1.74h-24c-3.37,0-5.65-.58-6.83-1.74-1.19-1.16-1.78-3.34-1.78-6.55v-18.47c0-3.18.59-5.35,1.78-6.51,1.19-1.16,3.46-1.74,6.83-1.74h24c3.34,0,5.62.57,6.81,1.7,1.2,1.13,1.8,3.18,1.8,6.14v.93l-7.92,1.42v-3.76Z"/><path class="cls-5" d="m778.73,351.74v-35.01h5.55l28.14,23.24v-23.24h7.31v35.01h-5.59l-28.06-23.61v23.61h-7.35Z"/></g></g><g><g><path class="cls-3" d="m963.33,316.65h-26.55v27.04h26.55v-9.18l9.85,2.06v5.05c0,3.91-.73,6.57-2.18,7.98s-4.22,2.12-8.31,2.12h-25.26c-4.11,0-6.89-.71-8.33-2.12s-2.16-4.08-2.16-7.98v-22.52c0-3.88.72-6.54,2.16-7.96,1.44-1.43,4.22-2.14,8.33-2.14h25.26c4.08,0,6.85.71,8.31,2.14,1.46,1.43,2.18,4.08,2.18,7.96v4.04l-9.85,1.58v-8.08Z"/><path class="cls-3" d="m998.59,351.74v-35.01h31.23c2.86,0,4.92.53,6.21,1.6s1.92,2.8,1.92,5.19v8.25c0,2.37-.64,4.08-1.92,5.13s-3.35,1.58-6.21,1.58h-4.76l16.5,13.26h-12.13l-14.53-13.26h-7.97v13.26h-8.33Zm27.63-28.98h-19.3v9.7h19.3c1.47,0,2.48-.21,3.02-.65.55-.43.82-1.16.82-2.18v-4.04c0-1.02-.27-1.75-.82-2.18-.55-.43-1.56-.65-3.02-.65Z"/><path class="cls-3" d="m1060.09,351.74v-35.01h37.2v6.18h-28.67v7.64h16.7v6.02h-16.7v8.61h29.11v6.55h-37.64Z"/><path class="cls-3" d="m1112.85,351.74l20.58-35.01h8.13l20.9,35.01h-9.49l-4.36-7.68h-22.94l-4.36,7.68h-8.45Zm16.42-14.07h15.9l-8.09-14.59-7.81,14.59Z"/><path class="cls-3" d="m1195.49,323v28.74h-8.45v-28.74h-16.74v-6.27h41.96v6.27h-16.78Z"/><path class="cls-3" d="m1231.4,351.74v-35.01h37.2v6.18h-28.67v7.64h16.7v6.02h-16.7v8.61h29.11v6.55h-37.64Z"/></g><g><path class="cls-5" d="m963.33,316.65h-26.55v27.04h26.55v-9.18l9.85,2.06v5.05c0,3.91-.73,6.57-2.18,7.98s-4.22,2.12-8.31,2.12h-25.26c-4.11,0-6.89-.71-8.33-2.12s-2.16-4.08-2.16-7.98v-22.52c0-3.88.72-6.54,2.16-7.96,1.44-1.43,4.22-2.14,8.33-2.14h25.26c4.08,0,6.85.71,8.31,2.14,1.46,1.43,2.18,4.08,2.18,7.96v4.04l-9.85,1.58v-8.08Z"/><path class="cls-5" d="m998.59,351.74v-35.01h31.23c2.86,0,4.92.53,6.21,1.6s1.92,2.8,1.92,5.19v8.25c0,2.37-.64,4.08-1.92,5.13s-3.35,1.58-6.21,1.58h-4.76l16.5,13.26h-12.13l-14.53-13.26h-7.97v13.26h-8.33Zm27.63-28.98h-19.3v9.7h19.3c1.47,0,2.48-.21,3.02-.65.55-.43.82-1.16.82-2.18v-4.04c0-1.02-.27-1.75-.82-2.18-.55-.43-1.56-.65-3.02-.65Z"/><path class="cls-5" d="m1060.09,351.74v-35.01h37.2v6.18h-28.67v7.64h16.7v6.02h-16.7v8.61h29.11v6.55h-37.64Z"/><path class="cls-5" d="m1112.85,351.74l20.58-35.01h8.13l20.9,35.01h-9.49l-4.36-7.68h-22.94l-4.36,7.68h-8.45Zm16.42-14.07h15.9l-8.09-14.59-7.81,14.59Z"/><path class="cls-5" d="m1195.49,323v28.74h-8.45v-28.74h-16.74v-6.27h41.96v6.27h-16.78Z"/><path class="cls-5" d="m1231.4,351.74v-35.01h37.2v6.18h-28.67v7.64h16.7v6.02h-16.7v8.61h29.11v6.55h-37.64Z"/></g></g></svg>