<?xml version="1.0" encoding="UTF-8"?>
<svg id="Layer_2" data-name="Layer 2" xmlns="http://www.w3.org/2000/svg" viewBox="0 0 1234.06 190.54">
  <defs>
    <style>
      .cls-1 {
        fill: #122cd0;
      }

      .vinyl-imagination-grey {
        fill: #b3b3b3;
      }
    </style>
  </defs>
  <g id="Layer_1-2">
    <path id="Car_Body" class="vinyl-imagination-grey" d="m893.24,93.22h0s-.07,0-.1,0c-26.56-.11-53.48.75-80.49,2.46-1.46.09-2.9.19-4.34.28h0c-69.83-39.86-142.73-73.74-214.92-86.87C397.05-26.61,172.78,49.76.62,117.33v32.42l12.03-28.76h0c131.97-26.17,293.65-54.32,409.39-14.56-39.6-23.38-126.3-38.68-185.58-36.48,104.75-48.04,253.64-61.77,330.6-47.83,67.79,12.28,133.13,35.49,191.52,77.76h0c-108.62,9.85-192.18,25.24-335.25,24.27,84.14,5.07,163.27,1.87,238.81-2.38-162.43,26.02-328.28,53.27-460.22,7.04,207.67,78.35,445.01-8.51,687.9-15.49,73.08,1.61,144.47,8.71,213.9,34.92,29.89,11.29,45.89,24.7,60.43,35.56,11.22,8.38,50.73,9.28,69.93.91-79.96-65.38-205.72-90.91-340.82-91.47Z"/>
    <path id="Tail_Light" class="vinyl-imagination-grey" d="m1.02,174.68c16.25-16.25,37.83-26.86,60.74-32.51-21.29-1.11-41.36.5-61.14,7.57-.91,8.42-.86,16.14.4,24.94Z"/>
    <g id="Window_Accents">
      <path class="cls-1" d="m451.78,102.75c86.14,7.25,169.99,4.36,254.99-7.19-82.34,4.37-167.79,5.9-248.14-.85l-21.6-60.22,11.45,57.87h0c-52.82-21.45-94.25-26.63-141.86-29.49,48.38,5.94,94.31,15.96,145.15,39.88Z"/>
    </g>
    <g id="Fender_Accent">
      <path class="cls-1" d="m1093.16,167.35s-117.31-64.74-386.39-16.41c0,0,216.49-30.1,386.39,16.41Z"/>
    </g>
  </g>
</svg>