<?xml version="1.0" encoding="UTF-8"?>
<svg enable-background="new 0 0 1246.3 264.5" version="1.1" viewBox="0 0 1246.3 264.5" xml:space="preserve" xmlns="http://www.w3.org/2000/svg">
<style type="text/css">
	.vinyl-imagination-blue{fill:#122CD0;}
	.vinyl-imagination-grey{fill:#B3B3B3;}
</style>
	<path class="vinyl-imagination-grey" d="m900.5 93.2h-0.1c-26.6-0.1-53.5 0.7-80.5 2.5-1.5 0.1-2.9 0.2-4.3 0.3-69.9-39.9-142.8-73.8-215-86.9-196.3-35.7-420.6 40.7-592.7 108.2v32.4l12-28.8c132-26.2 293.6-54.3 409.4-14.6-39.6-23.2-126.3-38.6-185.6-36.4 104.8-48 253.6-61.8 330.6-47.8 67.8 12.3 133.1 35.5 191.5 77.8-108.6 9.8-192.2 25.2-335.3 24.3 84.1 5.1 163.3 1.9 238.8-2.4-162.4 26-328.3 53.3-460.2 7 207.7 78.3 445-8.5 687.9-15.5 73.1 1.6 144.5 8.7 213.9 34.9 29.9 11.3 45.9 24.7 60.4 35.6 11.2 8.4 50.7 9.3 69.9 0.9-79.8-65.4-205.6-90.9-340.7-91.5z"/>
	<path class="vinyl-imagination-grey" d="m8.3 174.7c16.2-16.2 37.8-26.9 60.7-32.5-21.3-1.1-41.4 0.5-61.1 7.6-0.9 8.4-0.9 16.1 0.4 24.9z"/>
	<path class="vinyl-imagination-blue" d="m459 102.7c86.1 7.2 170 4.4 255-7.2-82.3 4.4-167.8 5.9-248.1-0.9l-21.6-60.2 11.5 57.9c-52.8-21.5-94.3-26.6-141.9-29.5 48.4 6 94.3 16 145.1 39.9z"/>
	<path class="vinyl-imagination-blue" d="m1100.4 167.3s-117.3-64.7-386.4-16.4c0 0 216.5-30.1 386.4 16.4z"/>
	<path class="vinyl-imagination-blue" d="M22.9,229.9l64-46.3h22.7l-89.2,64H0l8.1-64.4h21.7L22.9,229.9z"/>
	<path class="vinyl-imagination-blue" d="M79.6,247.1H59l32.8-43.2h20.9L79.6,247.1z"/>
	<path class="vinyl-imagination-blue" d="m163.4 212.3h-25.9l-2 2.9-16.1 21-8.3 11h-21l7.1-8.9 20.2-26.6 5.8-7.6h52.3c16.4 0 24.7 2.8 25.1 8.4l-19.1 26.2-6 8.6h-21.7l23.9-32c-0.3-1.9-2.2-2.9-5.5-2.9h-8.8z"/>
	<path class="vinyl-imagination-blue" d="m281 203.9h19.7l-5.3 8.4-19.1 26-6.6 8.6-6.8 8.8c-4.5 5.9-11.4 8.8-20.7 8.8h-70.5l6.5-7.9h53.7c6.2-0.2 10.8-1.6 13.9-4.3l4-5.2-38.2 0.1c-13.6 0-20.4-2.1-20.4-6.3 0-0.8 0.3-1.7 0.9-2.7l20.2-26.6 5.8-7.6h21.2l-8.8 11.2-16.1 21c0.2 1.8 2.4 2.6 6.8 2.6l28.5 0.1 6.3-0.1 16.6-23.6 8.4-11.3z"/>
	<path class="vinyl-imagination-blue" d="M300.7,247.1H280l46.1-60.4h20.2L300.7,247.1z"/>
	<path class="vinyl-imagination-blue" d="m417.4 219.2-12.7 16.5-0.3 0.4c-0.2 0.3-0.3 0.7-0.3 1.2l-8.2 10.4h-22.2l9.6-12.6 30-39.6 9.6-12.2h22.2l-9.3 12.6-18.4 23.3z"/>
	<path class="vinyl-imagination-blue" d="m465.6 217.3 3.8-5h-11.6l-2.3 2.9-16.1 21-8.3 11h-20.9l7.1-8.9 20.2-26.6 5.8-7.6h52.1c16.4 0 24.7 2.8 25.1 8.4l-19.1 26.2-6 8.6h-21.7l23.9-32c-0.3-1.9-2.2-2.9-5.5-2.9h-4.8l-3.8 5-21.7 29.8h-18.6l22.4-29.9z"/>
	<path class="vinyl-imagination-blue" d="m583.2 221.1h4.5l4.8-6c-0.3-1.9-2.2-2.9-5.5-2.9h-55.7l6-8.4h53.1c16.4 0 24.7 2.8 25.1 8.4l-19.1 26.2c-3.9 5.8-13.7 8.7-29.6 8.7h-35c-13.6 0-20.4-2.1-20.4-6.3 0-0.8 0.3-1.7 0.9-2.7l10.1-13.2c2-2.5 5.5-3.8 10.3-3.8h50.5zm-1.2 8.6h-42.5l-5 6.4c0.2 1.8 2.4 2.6 6.8 2.6l28.5 0.1c2.7-0.2 5-1.2 7.1-2.7l5.1-6.4z"/>
	<path class="vinyl-imagination-blue" d="m710.4 212.3-19.1 26-6.6 8.6-6.8 8.8c-4.5 5.9-11.4 8.8-20.7 8.8h-70.5l6.5-7.9h53.7c6.2-0.2 10.8-1.6 13.9-4.3l4-5.2-38.2 0.1c-13.6 0-20.4-2.1-20.4-6.3 0-0.8 0.3-1.7 0.9-2.7l20.2-26.6c3-5.2 10.6-7.8 22.7-7.6h35.4c16.3-0.1 24.7 2.7 25 8.3zm-37 0h-17.6c-4.5 0-8 1-10.3 2.9l-16.1 21c0.2 1.8 2.4 2.6 6.8 2.6l28.5 0.1 6.3-0.1 16.6-23.6c-0.3-1.9-2.2-2.9-5.5-2.9h-8.7z"/>
	<path class="vinyl-imagination-blue" d="m716 247.1h-20.7l32.8-43.2h20.9l-33 43.2z"/>
	<path class="vinyl-imagination-blue" d="m798.9 212.3h-25.9l-2 2.9-16.1 21-8.3 11h-20.9l7.1-8.9 20.2-26.6 5.8-7.6h52.3c16.4 0 24.7 2.8 25.1 8.4l-19.1 26.2-6 8.6h-22.1l23.9-32c-0.3-1.9-2.2-2.9-5.5-2.9h-8.5z"/>
	<path class="vinyl-imagination-blue" d="m898.6 221.1h4.5l4.8-6c-0.3-1.9-2.2-2.9-5.5-2.9h-55.7l6-8.4h53c16.4 0 24.7 2.8 25.1 8.4l-19.1 26.2c-3.9 5.8-13.7 8.7-29.6 8.7h-35c-13.6 0-20.4-2.1-20.4-6.3 0-0.8 0.3-1.7 0.9-2.7l10.1-13.2c2-2.5 5.5-3.8 10.3-3.8h50.6zm-1.2 8.6h-42.6l-5 6.4c0.2 1.8 2.4 2.6 6.8 2.6l28.5 0.1c2.7-0.2 5-1.2 7.1-2.7l5.2-6.4z"/>
	<path class="vinyl-imagination-blue" d="m988.8 212.3h-25.2l-2.8 2.9-16.1 21c0.2 2.1 2.4 3 6.8 2.9h21.2l-8.6 8.1h-22.4c-13.3 0-19.7-3-19.1-8.9l20.2-26.6 18.9-24.8h20.2l-12.6 17.2h62.7l-6 8.4h-37.2z"/>
	<path class="vinyl-imagination-blue" d="m1031.4 247.1h-20.7l32.8-43.2h20.9l-33 43.2z"/>
	<path class="vinyl-imagination-blue" d="m1151.3 212.3-19.1 26.2c-3.9 5.8-13.7 8.7-29.6 8.7h-35c-13.6 0-20.4-2.1-20.4-6.3 0-0.8 0.3-1.7 0.9-2.7l20.2-26.6c3-5.2 10.6-7.8 22.7-7.6h35.4c16.2-0.1 24.6 2.7 24.9 8.3zm-37 0h-17.6c-4.5 0-8 1-10.3 2.9l-16.1 21c0.2 1.8 2.4 2.6 6.8 2.6l28.5 0.1c2.7-0.2 4.9-1.2 6.5-2.7l16.4-21c-0.3-1.9-2.2-2.9-5.5-2.9h-8.7z"/>
	<path class="vinyl-imagination-blue" d="m1209.2 212.3h-25.9l-2 2.9-16.1 21-8.3 11h-20.9l7.1-8.9 20.2-26.6 5.8-7.6h52.3c16.4 0 24.7 2.8 25.1 8.4l-19.1 26.2-6 8.6h-21.7l23.9-32c-0.3-1.9-2.2-2.9-5.5-2.9h-8.9z"/>
</svg>
