<?xml version="1.0" encoding="UTF-8"?>
<svg enable-background="new 0 0 710.1 309.7" version="1.1" viewBox="0 0 710.1 309.7" xml:space="preserve" xmlns="http://www.w3.org/2000/svg">
<style type="text/css">
	.st0{fill-rule:evenodd;clip-rule:evenodd;fill:#666666;}
	.st1{fill-rule:evenodd;clip-rule:evenodd;fill:#FFFFFF;}
</style>
	<path class="st0" d="m29.2 116.6 0.6-0.4v0.2h0.2c3-1.8 6.7-3.6 9.9-4.9 3.9-1.5 7.4-3.3 10.5-6 1.7-1.8 3.1-3.7 4.5-5.8l11-16.8c6.2-9.3 9.5-13.8 16.5-21.4 2.3-2.6 4.6-5.2 7-7.7 2.7-2.9 5.6-5.7 8.6-8.3 3.3-2.9 6.7-5.8 10.2-8.5 8.2-6.6 15.6-11.5 24.6-16 10.2-5.2 20.7-9.7 31.8-12.5 4.1-1.1 11.3-2.6 16-2.2h2.1c14-2.5 28.8-4 43.1-4.7 11.8-0.7 23.5-1.1 35.3-1.4 32.3-0.9 74.9 0.6 106.6 4.3 10.5 1.3 21.1 2.6 31.6 3.8 1.2 0.2 12.7 2.2 13.8 2.5 0.9 0.3 1.6 0.3 2.5 0.4 1.7 0 3.3 0.3 4.9 0.6 7.2 1.3 13.7 3.5 20 7 5.7 3 11.2 6.1 16.6 9.5 5.8 3.6 11.6 7.3 17.3 11.1 9.9 6.5 18.3 12.6 27.7 19.7 0.4 0.3 0.8 0.5 1.2 0.6l9.6 0.9 6.4 0.9h2.3c5 0 8.7 0 13.2 1 4.5 0.9 8.2 2.4 11.5 5.5l0.9 0.8c0.5 1.4 1 3 0.2 4.1 1.3 0.6 2.6 1 4.1 1.2 10.1 0.7 20.2 1.5 30.2 2.6l13.7 1.2c1.5 0 3.9 1.2 5.4 2 5.7-0.2 16.1 0.3 22.8 0.6 3 0 10.6 0.6 13.4 1.1 3.3 0.5 6.5 1.1 9.7 2l8.7 2.4c2.3 0.7 5 1.7 7.2 2.7 6.3 2.9 11.2 7.2 15.2 12.7l6.7 9.4c0.5 0.8 0.7 1.5 0.2 2.2l-1.3 2 0.9 1.5c2.6 3.6 4.2 6.1 5.1 10.4 1 4.4 0.8 7.5-0.5 11.6l6 13.5 2.8 1.9c0.6 0.6 1 1.7 1 2.6l0.5 3.9c0.2 0.9 2.8 10 3.8 13l2.7 8c0.6 1.9 1.1 4.3 1.2 6.4 0 0.3 0.1 0.6 0.1 0.9 0.2 3.8 0.3 7.7 0.1 11.5 4.9 17.8 3.9 36.9-1.6 54.4 1.5 1.5 2.5 2.4 4.1 3.7l0.4 0.4 0.5 0.6c1.1 3-7.7 6.4-9.5 7-4.8 10-11.6 18.9-20 26.2-2.7 2.1-7.4 4.6-10.5 6-3.4 1.5-6.8 2.7-10.4 3.8-0.5 0.3-1.1 0.6-1.6 0.9l-0.2-0.3c-2.8 0.8-5.7 1.5-8.5 2-0.4 0.2-0.7 0.4-1.1 0.6l-0.2-0.3c-3.8 0.7-7.7 1.3-11.7 1.8-0.6 0.2-1.3 0.4-2 0.6v-0.4c-5 0.5-9.9 0.9-14.7 1.2-0.9 0.2-1.9 0.4-2.8 0.5v-0.4h-0.2c-8.6 0.6-17.1 0-25.1-1.9-1 0-2.1-0.2-3.1-0.4v-0.4c-16.3-4.3-30.8-13.6-41.6-27.4-24 0.7-83.3 1.7-109.9 1.7l-59.3-0.4c-1.7 4.4-3.5 8.1-6.6 11.7-1.5 1.8-3.2 3.3-5.1 4.6-2.3 1.6-4.9 2.6-7.7 3-1.2 0.2-2.5 0.4-3.9 0.5-0.5 0.2-1.1 0.3-1.6 0.5v-0.3c-1.8 0.1-3.7 0.2-5.6 0.3-0.4 0.1-0.9 0.3-1.3 0.4v-0.3h-6.8c-0.5 0.2-1.1 0.3-1.7 0.3v-0.3h-8.7c-0.8 0.2-1.6 0.3-2.5 0.3v-0.4h-1.3c-2.5 0-6-0.3-9-0.9h-1.5v-0.3l-2.1-0.6c-2.4-0.8-5.8-2.9-8-4.5-2.5 2.8-5.2 5.5-8.1 7.9-2.6 2.2-6.7 5.8-10.7 5.8l-4.2 0.2s-0.2 0.1-0.3 0.2v-0.2c-0.1 0-2 0.1-2 0.1l-10.2 0.2s-0.2 0.1-0.3 0.2c0-0.1-13 0.2-13 0.2-0.3 0.1-0.7 0.2-1 0.3v-0.3h-0.2l-14.2 0.5c-0.5 0-0.9 0.2-1.4 0.2v-0.2c-5.5 0.3-11.1 0.4-16.6 0.4-7 0.2-13.2-1.1-19.7-3.9-0.6-0.2-1.2-0.4-1.7-0.6v-0.2c-11.9-4.3-19.6-13.6-25.4-24.2-4.6 0.1-10.3 0.1-14.8-0.1l-17.1-1c-6.6-0.4-12.7-0.6-19.3-0.6-6.3 0.1-11.8 0.4-18.2 0.7-6.9 0.4-13.8 0.4-20.7 0.2-1 4-2.2 7.9-3.7 11.7-1.2 3.2-3.3 7.5-6.1 9.9-0.4 0.3-0.9 0.6-1.4 0.6l-8.5 0.5h-0.3l-9.8 0.3h-0.2l-10.5 0.3c-0.1 0-0.3 0-0.4 0.1l-10.5 0.2c-4.8 0.2-9.6 0.2-14.4 0-1.7 0-3.4-0.4-4.9-1h-0.3v-0.1h-0.2c-1.8-0.7-3.4-2.1-4.3-3.8-4.4-6.6-7-19.5-8.1-28.5-1.2-10.2-1.7-20.6-1.5-30.9 0.1-9.1 0.8-18.1 2.1-27.1v-0.4c-0.3-3.5-0.9-12.1-1-15.1s0-8.7 0.4-11.6l1.2-9.5 1.2-14.4 1.1-9c0.7-5.7 3.9-19.8 7.7-24.9l0.6-0.8c-0.7-0.2-1.4-0.8-1.3-1.6 0.3-1.7 1.3-3.3 2.7-4.2 1.7-1.1 3.5-2 5.5-2.5 1.6-0.5 3.3-0.8 5-1l2.8-0.4 0.7 0.3zm421.5 34 129.8 0.2h23.7c0 0.1 3.1 0.3 3.1 0.3 0.9 0 1.9 0.3 2.7 0.7s8.2 4 11.4 5.6l-0.5-1.1c-0.8-1.5-1.8-2.9-2.9-4.1-1.4-1.4-3.2-2.3-5.1-2.6-4-0.5-6.8-0.6-10.8-0.5l-72.7-0.3h-61.2l-8.1 0.3c-2.6 0-4.3 0-6.8 0.5-0.8 0.2-1.6 0.5-2.3 0.9 0 0-0.2 0.1-0.2 0.2l-0.1-0.1zm171.6 8.6c-4.3-2-8.6-4.1-12.9-6.2-0.7-0.3-1.4-0.5-2.2-0.5l-3-0.2c-3.2 0-137.7-0.3-155-0.3-0.6 0.7-1.1 1.4-1.5 2.2-0.8 1.7-1.3 3.4-1.7 5.3l-0.2 0.5-0.5 0.3h-1.4c-2.2-0.2-5.1-0.5-7.3-0.9l-26.2-5.2c-0.9 0.4-1.9 0.6-2.9 0.6-1.2 0.1-3.5 0.2-4.7 0-0.3 0-0.7-0.3-1-0.5l-0.5-0.6c-1.7-2.1-4.4-7.8-5.6-10.5-1.3-2.9-2.5-5.9-3.5-8.8-0.6-1.6-1.1-3.2-1.5-4.9-0.2-0.7-0.3-1.3-0.3-2l-0.2-2v-0.8l0.7-3c0.3-1.6 0.6-3.1 1.1-4.7l0.3-0.7 0.7-0.6c0.6-0.2 1.1-0.3 1.7-0.3l85.2 0.2 45.8 0.6c14.8 0 29.6 0 44.4-0.1 5.5 0 30-0.2 35.5 0h1.1 9.7c9 0.3 18 0.5 27 0.6h0.4l0.5 0.2 0.5 0.6c0.1 0.2 0.3 0.4 0.4 0.7v-0.4l0.5-0.4c1.5-0.7 5.3-1.3 8.3-1.7-4.2 0.3-8.2 0.6-10.7 0.7l-15.4-0.3c-29.9-0.6-33.8-0.4-63.7-0.4l-82.2-0.6c-34.1 0-75.9-0.5-108.4-2.3-19.7-0.9-27.6-1.2-47.3-2-12.7-0.5-16.6-0.5-29.4-0.5-3.6 0-6 0.2-9.6 0.7-1.6 0.2-2.6 0.5-4.1 1.1-1.7 0.7-2.4 1-4 2-5.1 3.2-8.8 6.6-12.8 10.7-1.9 1.9-2.4 2.5-4.1 4.6-0.8 0.9-1.1 1.5-1.5 2.6-0.2 0.5-0.2 1 0 1.4l0.5 1.7c1.7 5.1 4.5 10.6 9.2 13.5 2 1.1 4.1 2 6.3 2.5 5.7 1.3 29.3 3.8 37.8 4.6 14.2 1.2 56.5 4.7 73.7 5.8 11.5 0.7 23 1.2 34.6 1.4 27.6 0.4 93.1 0.3 129.9 0.4l71.9 0.3 20.2-0.2c6.3 0 12.5-0.4 18.8-0.9 10.4-1 24.3-3.3 33.5-6.7 0-0.1-0.2-0.3-0.3-0.4l-2.7-1.9c-1.8-0.9-6.6-3.1-8.5-3.9-0.2 0-0.6 0.2-0.8 0.3l-2.2 0.5c-8.2 1.6-34.5 5.9-39.7 5.1l-0.7-0.2-0.4-0.3-0.2-0.4c0-0.3 0-0.6 0.1-0.9l0.5-1.2c-0.4 0.9-0.9 1.6-1.3 2.1-1 1.1-2.5 1.9-4 1.4l-1.8 1.6c-0.8 0.7-1.8 1.1-2.8 1.4-1.5 0.4-3 0.6-4.6 0.7-1.2 0.2-3.7 0.4-4.9 0.1-0.3 0-0.5-0.2-0.7-0.4l0.1-0.2zm-239.6-98.4c5 0 10 0 14.4 0.2 5.6 0.2 13.1 0.9 18.6 1.8 3.1 0.5 6.3 1.4 9.3 2.4 1.1-1.3 14.7-2 17-2 32.5-1.2 50.7-1.4 82.1 1.6 1.3 0.1 2.6 0.2 3.8 0.4-2.1-0.6-4.3-1.1-6.4-1.5v-0.7h-2.1l-6.4-0.9-9.8-0.9v0.7c-8.6-0.5-17.2-0.8-25.8-1l-36.1-0.5c-10.2 0-30-0.2-41.1 0l-17.6 0.4h0.1zm43.2 6.2c-3.4-1.2-6.9-2.2-10.5-2.8-6.1-0.9-12.2-1.5-18.4-1.8-12.3-0.3-24.7-0.3-37 0.2-12.8 1.8-15.2 2.3-29.3 4.6-4.8 0.8-11.8 1.6-18.4 2.3-3.2 2.1-7.7 3-11.6 3.2-6.6 0.6-13.2 1.1-19.8 1.4l-19.6 1.4c-0.6 0-1.3 0.1-2 0.2 4.2 0 8.3-0.1 12.5-0.1h6.6l28.4-0.4c26.4 0 52.8-0.3 79.2-0.8 22.3-0.4 12.2-0.4 34.6-1.1 4.7-0.2 8.4-0.5 13-1.4 2.2-0.5 4.4-1 6.5-1.6-3.4-0.8-7.3-1.7-12.3-2.9-0.4-0.1-0.8-0.2-1.3-0.3-0.2 0-0.4-0.1-0.6-0.2v0.1zm-396.3 50.9-1.9 1.1c2.2-0.7 4.5-1.4 6.8-1.9 1.7-0.4 3.6-0.8 5.5-1.1 1.7-1.4 4.3-3.2 6.2-4.2l11.3-5.7c1-0.8 2.5-4.1 3.1-5.5l2.8-6.9c1.2-3.1 3.3-8.3 5.1-12.2-0.5 0.7-1 1.4-1.5 2.2l-11 16.8c-3 4.6-5.5 7.5-10.4 9.9-1.7 0.9-3.4 1.7-5.2 2.4-2.6 1.1-5.2 2.4-7.7 3.7l-2.2 1.3-0.9 0.1zm-10.3 5.9c-0.8 0.5-1.5 1-2.2 1.7l-2.2 2.6c-1.2 1.9-2.3 4-3 6.1-1.1 3.1-2 6.2-2.8 9.3-0.7 2.9-1.3 5.8-1.7 8.8l-1.1 9-0.5 6.5c1.8-9 5.6-16.1 13.2-22.6 1.8-1.6 4.3-3.2 6.5-3.9 3.9-1.3 6.8 1.5 8.5 4.6 0-1.5 0.2-2.9 0.4-4.4 0.3-3.1 0.7-6.1 1.3-9.2 0.6-3.3 1.4-6.5 2.2-9.8 0.5-1.7 0.9-3.3 1.5-4.9-1.5 0.3-3.1 0.6-4.6 0.9-5.3 1.3-10.5 3.1-15.5 5.3zm-4 1.3c1.5-1.6 3.2-2.8 5.2-3.7l4.8-2.6 0.4-0.2c-3.3 0.5-6.3 1.3-9 3.2-0.9 0.6-1.5 1.5-1.9 2.5l-0.2 0.7c0.1 0 0.4 0.1 0.7 0.1zm534-50c2.3 1.9 4.5 4 6.6 6.2 2.3 2.5 5.5 6.9 7.4 9.8 3.4 0.1 6.7 0.2 9.7 0.4 5.2 0.2 14.5 0.5 19.7 0.9 6.8 0.5 21.7 1.8 28.4 2.5l9.4 0.7h0.2c-1.6-0.6-3.1-1.2-3.7-1.4-9.4-3.7-18.1-7.3-26.8-12.3l0.3-0.5c-1.2-0.6-2.3-1.1-3.5-1.6-0.4-0.2-0.8-0.2-1.3-0.3l-13.9-1.2c-10-1.1-20.1-1.9-30.2-2.6-0.9 0-1.8-0.2-2.5-0.5l0.2-0.1zm12.2 15.9c-2.1-3.1-4.3-6-6.7-8.8-2.8-2.9-5.7-5.6-8.9-8l-3.8-2.8c-1.5-0.9-3-1.8-4.7-2.6 0.8 1.1 1.2 2.4 0.7 3.8-0.2 0.5-0.5 1-0.9 1.3-1.4 1.1-3.2 2.1-4.9 2.7-1.6 0.6-3.2 0.9-4.9 0.9-4.7 0.2-9.5 0.2-14.3 0.1l-45.1-0.5c6.9 2.7 15.3 6.5 20.3 8.9 1.9 0.8 4.4 2.3 5.8 3.8 23.9 0 48.1 0.5 67.4 1.2zm-351.6-11.1v-1.6l-10.8 1.5h-0.4v0.2l-3.3 0.7c-4.2 0.4-8.4 1.4-12.3 2.9 0.1 0.5 0.2 0.9 0.4 1.4 5.6-1.7 16.7-3.6 26.6-5.1h-0.2zm1.4-1.8v1.6c5.6-0.8 10.8-1.5 14.2-1.9 1-0.1 27.7-2.9 35.6-3.6l19.6-1.4c6.6-0.3 13.2-0.8 19.8-1.4 2.9-0.2 5.1-0.5 7.8-1.4-1.8 0.2-3.5 0.3-5.1 0.4l-38 2.6c-15.2 1.2-30.4 2.6-45.6 4.2h-0.2c-2.7 0.3-5.4 0.6-8.1 0.9zm282.6-18.2c-4.5-3.9-15.9-11.8-20.3-14.8-10.8-7.2-11.8-7.8-22.8-14.8-10.2-6.5-5.2-3.3-15.5-9.6-0.6-0.4-1.1-0.7-1.7-1 6.6 4.6 11.9 8.1 18.9 12.7 4.8 3.1 12.2 8.1 16.9 11.4l22.1 15.9c0.8 0.1 1.6 0.1 2.3 0.2h0.1zm-64.4-43.6c2.3 0.9 4.5 2 6.5 3.3 5.2 3.1 10.4 6.3 15.5 9.6 14.1 8.9 26.8 17.1 40 27.1 1.6 1.1 3.1 2.4 4.5 3.8 1.8 0 3.7 0.2 5.4 0.3l-12.8-9.4c-14.3-10.2-33.4-22.6-48.8-30.8-3.5-1.9-6.7-3.3-10.5-4.6-2-0.7-6-1.7-9.5-2.4l7.4 2.2c0.7 0.2 1.6 0.5 2.2 0.9h0.1zm-3.1 0.3-11-3.3 0.2-0.7c-1 0-1.9-0.1-2.9-0.4-4.5-0.9-9.1-1.7-13.6-2.5l-31.6-3.8c-12.7-1.4-25.4-2.4-38.2-3.2-12-0.7-24-1.1-36-1.3-11.4-0.2-20.9-0.1-32.3 0.2-26.5 0.7-47.7 1.4-72.5 5.1 0 0-2.5 0.4-3.8 0.7l1.3 0.7c0.6 0.4 1.4 1.3 1.8 1.9l1.2 1.8c0.3 0 0.5-0.1 0.8-0.1 0.2 0 44.2-3.8 54.8-4.6s23.8-1.4 34.4-1.6c12.9-0.3 25.9-0.2 38.8 0.2 39.5 1 70.3 3.1 108.2 10.9h0.4zm-358.9 83.9 5.9-16.3c2.6-7.2 5.9-11.4 11.2-17l4.1-4.5 1.8-1.2-0.6 2.2-5.5 11.8c-3.1 7.8-5.9 15.7-8.5 23.7 0.2 0 0.5 0 0.7-0.1l4.9-13.9c1.3-3.5 3.2-8.4 4.7-11.8 1.5-3.6 3-7.2 4.7-10.7 0.8-1.8 1.7-3.7 3.3-4.9 5.1-4.2 10.3-8.3 15.6-12.2 2.9-2.2 5.9-4.3 9.1-6.2 2.5-1.6 5-3.1 7.5-4.5 1.1-0.7 2.3-1.2 3.5-1.6l0.4-0.7c-0.6 0.3-1.1 0.6-1.9 1.1-4.1 2.3-8.1 4.6-12 7.1-3.5 2.2-6.6 4.3-9.9 6.8l-10 7.8c-5.5 4.6-15.4 13.8-19.8 20.3-1.8 2.9-2.8 5-4 8.2-2.3 5.6-4.6 11.3-6.7 16.9 0.5 0 1-0.2 1.5-0.3zm6.8-1c2.6-8.3 5.6-16.4 8.7-24.5l3.7-8-1.1 1.2c-2.5 2.7-4.2 4.6-6.3 7.5-1.9 2.8-3.4 5.8-4.5 8.9l-5.7 15.6c1.9-0.3 3.6-0.5 5.2-0.8v0.1zm78.8-80.4c10.9-3 15-3.3 18.7-2.7 2.9 0.5 4.2 2.2 4.9 4.3-0.6-2.5-2.2-4.7-4.9-5-4.6-0.5-11.7 1.1-16.6 2.7-0.7 0.2-1.4 0.4-2.1 0.7zm25.6 11.1v0.1c0.4 7.7 0.7 10.6 1.4 21.9 0.5 8.1 1.1 16.3 1.8 24.4 0.1 2.1 0.3 3.8 0.6 5.6 3.8-1.4 7.8-2.4 11.8-2.8l-2.5-23-1.8-17.8-1.6-14.1c-0.6-4.3-0.8-5.5-1.6-9.8-0.3-1.7-1-4.4-2.1-5.5l-1.3-1-0.5-0.3-0.2-0.2h-2.3c-2 0-4.1 0-6.1 0.3-7.5 1-16.5 3.6-23.9 6.5-9.2 3.7-21.6 9.6-30.2 15.2-9.5 6.4-22.1 16.6-30.1 25.1-3.7 4-3.4 3.6-7 7.7-1 1-1.9 2.1-2.8 3.2 8.6-9.2 18.8-19 27.6-25.1 9.8-6.8 20.4-13 31.4-17.7 8.1-3.6 17.2-7 26.1-8.3 2.1-0.4 4.3-0.4 6.4-0.2 1.3 0.1 2.5 0.6 3.5 1.5 0.8 0.7 1.5 1.5 1.9 2.6 0.7 1.3 1 2.8 1.1 4.3 0.1 3 0.3 5.5 0.4 7.6v-0.2zm-1.5 0-1-5.5-1-3.8c-0.2-0.7-0.6-1.4-1.1-1.9-1.8-1.7-5.7-1.8-8.3-1.4-3.8 0.6-7.5 1.3-11.1 2.4-5.2 1.5-10.4 3-15.5 4.6-3.5 6-6.9 12.1-10.2 18.2-2.7 5.1-5.3 10.3-7.8 15.5 0.5-0.1 1-0.3 1.6-0.4l13.4-25.9 2.3-4.1c0.7-1.3 1.6-2 3-2.4 3-1 6.1-1.9 9.2-2.7 4-1 8.1-1.8 12.2-2.3 2.4-0.3 5.3-0.3 7.7 0.3 0.9 0.2 1.8 0.9 2.4 1.6 0.4 0.6 0.8 1.6 0.9 2.4v0.6c0.4 3.2 0.7 7.7 0.8 10.8l1.4 19.6v0.2c0 0.1 1.3 14 1.3 14l1.4 10.5 2-0.7c-0.1-1.1-0.2-2.2-0.3-3.4-0.7-8.1-1.3-16.3-1.8-24.4-0.3-4.3-1-14.4-1.4-22l-0.1 0.2zm-57.8 28.8c2.7-5.6 5.5-11.2 8.4-16.7 2.6-4.8 6.4-11.7 9.4-16.9-4.1 1.9-8.2 3.9-12 6.1-5.6 3.2-11 6.6-16.3 10.3-4 2.8-7.8 5.9-11.4 9.1-8 7.3-15.3 14.8-22.4 23-1.5 1.8-2.9 3.6-4 5.7-2.7 5.5-4.1 9-6.4 14.7l-2.8 6.9v0.2c0.9-0.2 1.9-0.3 2.7-0.4 2.2-5.9 4.6-11.9 7-17.7 2.1-5.6 4.7-9.8 8.6-14.1 2.3-2.5 4.6-4.9 7-7.2 2.1-2.1 6.2-5.9 8.5-7.7l10-7.8c2.9-2.2 6.9-4.9 10.1-6.8 3.9-2.5 7.9-4.8 12-7.1 1.2-0.8 2.5-1.4 3.8-2 0.4-0.2 1 0.1 1 0.6v0.2c0 0.4-8.5 15.7-8.8 16.4-2 3.9-3.9 7.8-5.7 11.8 0.4-0.2 0.9-0.3 1.3-0.6zm55.6 1.2-3.3 11.6h2.2c1 0 1.8 0.2 2.4 0.8l-0.3-2.3-0.9-10.2-0.1 0.1zm-4.8 11.7 4.4-15.7c0-0.1-1.4-19.8-1.4-19.8-0.1-3.5-0.4-6.9-0.8-10.3-0.5-0.6-1-1.2-1.7-1.7-0.4-0.2-0.9-0.4-1.4-0.5h-1.9c-6 0-12.5 1.7-18.4 3.3-1.5 0.4-6.7 1.8-7.8 2.8l-0.8 1.2c-0.6 1-10.1 20.4-12.8 26 2.4-0.3 4.7-0.6 6.9-0.7 4.8-0.3 9.6-0.4 14.5-0.2 3 0 6.8 0.5 9.7 1.3 1.7 0.5 3.4 1.6 4.6 2.9 2.7 2.7 1.2 6 1.5 9.2l0.2 1.2c0.2 0.5 0.8 0.9 1.4 0.9h3.8v0.1zm-56.9-7.7c0.9 0.5 1.8 0.9 2.7 1.4l0.7 0.2 32.3-0.8c4.5 0 7.5-0.2 11.9-0.9 0.8-0.2 1.6-0.5 2.2-1-0.8-1.9-3-3.4-4.9-4-8.8-2.3-26.3-1.3-34.9 0.3-2.3 0.4-7.3 1.8-9.4 3.9-0.3 0.3-0.5 0.6-0.7 1l0.1-0.1zm50.1 0.4c-0.7 0.4-1.4 0.7-2.2 0.9-3.7 0.7-8.4 1-12.1 0.9l-32.5 0.8c-1 0-2.7-1-3.9-1.6-0.1 0.3-0.2 0.6-0.2 1-0.4 2.8-0.3 3.3-0.3 6.2v0.2 0.2 2h10.2l18.8-0.5c4.4-0.2 8.8-0.4 13.2-0.7 2.4 0 3.8-0.2 6.1-0.8 1.1-0.4 2.2-0.9 3.1-1.5-0.2-0.5-0.3-1.1-0.3-1.7v-5.3l0.1-0.1zm-45.7 21-2.4 9.5c10.9-1 25.2-3.7 33.4-5.6 5.8-1.3 11.6-2.9 17.4-4.6h0.4v-0.3c-1.6 0.2-3.3 0.2-4.9 0.1-0.9 0-1.8 0.1-2.6 0.4-0.6 0.2-1.2 0.5-1.8 0.8l-0.9 0.6c-1.4 0.7-4.1 1.1-5.7 1.1-8 0.5-16 0.5-24 0-1.6 0-3.3-0.3-4.9-0.6-1.3-0.2-2.6-0.7-3.8-1.4h-0.2zm-4 9.6 2.7-10.4h-0.1s-0.2-0.2-0.3-0.2l-2.5 10.8h0.3l-0.1-0.2zm-1.8 0.1 2.8-11.9c-0.6-0.6-1.2-1.3-1.7-2l-4 14.1c0.9 0 1.9 0 2.9-0.2zm-4.4 0.2 4.5-15.9c-0.4-0.9-0.8-1.9-1-3l-6.3 18.9c0.9 0 1.8-0.1 2.5 0h0.3zm54.5-18.2-36.3 0.9c-4.1 0-8.6 0-12.8-0.4 0 0.2 0.2 0.5 0.3 0.7 0.9 2.2 2.2 3.7 4.1 5.1 1.3 1 2.5 1.6 4.1 1.9 1.8 0.4 3.4 0.6 5.2 0.7 6.5 0.4 13 0.4 19.4 0.2l3.9-0.2c1.7 0 3.1-0.2 4.7-0.7l0.9-0.3c0.8-0.5 1.6-0.9 2.3-1.2v-0.2c-0.2-1.7 0.2-2.5 1.3-3.8 0.5-0.6 1.8-1.7 2.9-2.7zm-46-0.8c3.2 0.2 6.4 0.3 9.7 0.2l38.4-0.9c0.2 0 0.5 0 0.7-0.2 0.7-0.4 1.7-1.3 2.6-2.2h-0.8c-0.5 0-1.1-0.2-1.6-0.5-0.1 0-0.2-0.1-0.3-0.2-1.1 0.7-2.5 1.4-3.6 1.8-1.8 0.5-4.6 0.8-6.5 0.8-10.3 0.7-26.7 1-38.6 1.2zm53.5-3.1-1.8 1.7c-0.8 0.8-2.1 1.9-3.3 2.1-1.5 1.2-2.9 2.4-4.2 3.7l-0.8 1.1c-0.1 0.3-0.2 0.6-0.2 0.9v0.7c0.8-0.2 1.6-0.3 2.4-0.2 2.6 0.2 5.2 0 7.7-0.6 2.1-0.5 3.9-1.7 5.2-3.4 0.8-1.1 1.2-2.4 1.3-3.7v-1.1c-0.1-0.4-0.4-1-0.9-1.1-0.3 0-0.6-0.1-0.9-0.1h-4.5zm-66.2 22.5 7.6-22.8v-0.2c-0.3-5.3 0-10.4 5.4-12.5 2-4.5 4.1-8.9 6.4-13.2l6.4-11.7c-0.6 0.3-1.2 0.6-1.7 0.9-2.5 1.4-5 2.9-7.5 4.5-3.7 2.3-5.5 3.5-9 6.2-5.3 3.9-10.5 8-15.6 12.2-0.6 0.5-1 0.9-1.5 1.5-2.4 3.9-9 20.4-10.8 25.3l-4.7 13.1c6.3-0.9 11.5-1.5 21.7-2.8 0.9-0.1 2-0.3 3.3-0.5zm68.3-72.6c-0.3-0.3-0.8-0.6-1.3-0.7-2.4-0.5-4.7-0.6-7.1-0.3-9.5 1.3-12.5 2.4-21.2 5-0.5 0.1-0.8 0.3-1.2 0.5-0.4 0.3-0.7 0.7-1 1.2-2.6 4.8-11.3 21.6-15.1 28.9 0.4 0 0.8-0.1 1.2-0.2l11.4-23.3 1.9-3.6c0.7-1.1 1.1-1.9 2.4-2.4 2.3-0.9 4.7-1.7 7.1-2.3 3.6-1 7.3-1.8 10.9-2.5 2-0.4 5.8-0.9 7.8-0.9 1.7 0 3 0.2 4 0.8l0.2-0.2zm5.9 58-0.5-3.9c-0.3 1.1-0.8 2.1-1.3 2.9-0.7 0.9-1.7 1.8-2.7 2.5l4.5-1.5zm-4.6 5.5c2.8-0.9 5.6-1.9 8.4-3 0-0.3-0.1-0.5 0-0.7 0-0.4-0.2-0.9-0.2-1.4l-14.7 4.8c-11.2 3.5-25.1 6.5-37.4 8.4-4.9 0.8-9.8 1.5-14.7 1.9-2.3 0.2-4.6 0.3-7 0.3h-0.8c-0.2 0.3-0.3 0.6-0.5 1l-0.3 0.9v0.7c2.2 0 4.4-0.2 6.7-0.5 10.8-1.3 21.5-2.8 32.1-4.7 8.1-1.7 19.4-5.1 27.4-7.4 0.3 0 0.6-0.2 0.8-0.3h0.2zm0.5 1.6c-1.9 2-2.8 3.9-3.7 6.6-1.1 2.8-1.9 5.7-2.7 8.6-1.6 6.3-2.4 11.2-3 17.7-0.8 8.2-1.1 13.3-1.3 21.5-0.2 11.6-0.1 23.1 0.3 34.7 0.4 10.4 1.2 20.8 2.4 31.1 0 0.4 0.1 0.8 0.2 1.2 0.7-5.8 1.8-11.6 3.3-17.3 0.9-3.6 1.9-7.2 3.2-10.7 0.2-5 0.4-10 0.8-14.9 0.7-10.5 3.1-20.2 7.3-29.7 1.7-4.1 3.7-8 6.1-11.7 2-3.3 4.3-6.4 6.8-9.3 2.4-2.9 5.1-5.5 8.1-7.8 2.9-2.2 5.9-4.3 9.1-6.1 4.7-2.9 9.6-4 15.1-4 2.1 0 4.4 0.1 6.4 0.6 2.3 0.5 4.6 1.7 6.4 3.1 2.4 1.9 4.8 4.4 6.7 6.8 1.5 1.9 2.9 3.8 4.2 5.9 5.3-4.7 8.3-7.6 13.1-12.1 1.9-1.9 6.2-5.7 8.4-7.4l5-3.4c3.9-2.5 7.4-4.2 11.9-4.3 8.1-0.4 16.2-0.5 24.2-0.3h5.9c2.8 0 5.6 0.3 8.4 0.6l17.7 2.2 15.1 1.6c-16-3.8-29.2-6.8-29.2-6.8-10.2-2.3-20.5-4.3-30.9-5.9-6.8-1-13.4-1.6-20.1-1.8h-0.6-5.9c-10.8 0-19.8 0.2-30.6 0.6v-0.2c-5.8 0.6-11.4 1.2-15.4 1.7-11.8 1.4-14.1 1.9-25.5 3.7-5.7 1-11.4 2.2-17.1 3.7-3.1 1.2-6.5 1.6-9.8 1.7l-0.3 0.1zm-8.4 126.5c-0.4-2-0.8-4.1-1-6.1-2.9-23.3-3.9-63.2-1.4-87.7 0.5-6 1.5-12 3-17.9 0.7-2.9 1.6-5.8 2.7-8.6 0.6-2.1 1.5-4 2.8-5.7l-11.8 3.4c-4.1 1.2-10.2 2.8-14.4 3.6-7.8 1.5-24.4 3.8-32.3 4.7-2.4 0.3-5.4 0.4-7.8 0.5l-3.1 1.9c-3.4 2.5-6.7 5.6-9.5 8.9l-2.4 3.1c4.5 0.3 9 0.8 13.5 1.4 7.8 0.9 15.6 2.1 23.3 3.8 5.1 1.1 10 2.8 14.7 5.2 1.1 0.5 2.2 1.2 3.2 1.9 1.1 0.7 2.3 1.9 3 3.1 1.2 2.3 2 5.4 2.1 8 0.3 4.6 0.2 9.2-0.3 13.8-0.7 8.2-1.5 16.3-2.3 24.5-1 13-2.2 26-3.4 39-0.3 2.9-0.8 5.7-1.5 8.5-1 4.5-3.4 6.9-7.8 7.7-4 0.7-9.5 1.2-13.5 1.3-8.6 0.5-17.2 0.7-25.8 0.8 1 4.7 4.6 19.4 5.3 22.4 16.9 0 33.7 0 50.6-0.3 5.5 0 11 0 16.5 0.3-0.1-0.6-0.2-1.2-0.4-1.8-1.9-9.8-2.7-19.8-2.5-29.8 0-3.3 0.3-6.5 0.5-9.7v-0.2zm-60.1-117.7c-10.3 0.8-36.1 4.7-43.7 5.9-0.4 0.7-0.7 1.5-1.1 2.2 2.2-0.5 4.5-0.9 6.8-1.3l15.2-2.1 13.9-1.7c2-0.2 6-0.5 8.3-0.6 0-0.7 0.3-1.7 0.5-2.2 0-0.1 0-0.2 0.1-0.2zm189.5-20.2c1.5 0.2 2.9 0.4 4.4 0.6 9.6 1.5 21.5 3.8 31 5.9l23.1 5.3 14.6 3.6c1.8 0 3.6 0.2 5.4 0.2 6.8 0.1 13.6 0 20.4-0.2l30.6-1.4c18.1-0.8 43-1.1 68.4-1 0 0-0.2-0.1-0.3-0.2-4.5-3.3-24-11.1-30.4-13.5-8-2.5-12.9-3.8-18.5-5.1-13.4 3.9-21.1 3.7-22.4 3.7-11.5 0.5-23.1 0.9-34.6 1.1-26.4 0.5-52.8 0.8-79.2 0.8l-12.4 0.2h-0.1zm165.6-2.7 60.5-0.2c2.7 0 4.5 0 7.2-0.4 1.3-0.2 2.4-0.6 3.5-1.2 0.6-0.4 1.1-0.9 1.4-1.6v-0.6c0-0.3-0.4-0.7-0.7-0.8l-0.9-0.3c-1.7-0.4-2.8-0.5-4.5-0.6-4.2-0.4-8.4-0.7-12.6-0.9-20.8-1.2-32.1-1.6-50.5-1.5-8.7 0-22.2 0.2-31.5 1 1.2 0.3 2.2 0.6 2.5 0.6 6.8 1.4 18.1 4.1 25.4 6.5h0.2zm-32-8.1c3.1-0.4 6.2-0.6 9.3-0.8 8.7-0.4 17.5-0.6 26.2-0.6 9.1 0 18.3 0 27.4 0.4 7.7 0.3 15.4 0.6 23.1 1.1 4.2 0.2 8.4 0.5 12.6 0.9 1.3 0 3.4 0.3 4.7 0.6l1 0.3c0.5 0.1 0.9 0.5 1.2 0.9 1.5 1.6 0 3.9-1.6 4.8-1.2 0.7-2.6 1.2-4.1 1.4-2.4 0.3-4.9 0.4-7.4 0.4l-56.4 0.2c0.3 0.1 0.6 0.2 0.9 0.3v-0.3l48.2 0.5c5.4 0.1 8.8 0.1 14.2 0 1.5 0 3-0.4 4.5-0.9 1.6-0.6 3.1-1.4 4.5-2.5 0.2-0.2 0.4-0.4 0.5-0.7 0.2-0.7 0-1.5-0.2-2.1-0.5-0.8-1.1-1.3-2-1.7-2.8-1.2-7.2-1.7-10.5-2-13.6-1.2-22.4-1.9-36.1-2.3-7.2-0.1-14.4-0.1-21.7 0-11.4 0.2-12.8 0.3-24.2 0.7-5.2 0.2-9.6 0.5-14.8 1.2h-0.1c0.2 0 0.4 0.1 0.7 0.2h0.1zm-212 10c-1.9-0.7-3.8-1.5-5.3-2.3-2.7-1.5-4.8-4.3-5.9-7.2-1.8-4.7-3.1-9.6-3.7-14.5-1.5-8.9-2.6-17.9-3.3-26.9-0.2-1.6 0-3.9 0.6-5.4 0.8-2 3-3.6 4.9-4.2 1.9-0.7 3.8-1.1 5.8-1.3 9.9-1.1 23.8-2.1 34.1-2.9 23-1.6 44.3-2.9 67.2-2.8 0.7 0 2.5 0 3.2 0.2 1.2 0.4 3.1 1.9 4 2.8l7.4 6.9c2.3 2.1 4.1 3.6 6.6 5.3 0.8 0.5 1.6 0.8 2.6 1 2.7 0.3 10 0.7 13.3 0.4h1c0-0.1 0-0.1 0.1-0.2-0.2-0.3-0.6-0.9-0.6-1-3.2-4.7-6.7-9.2-10.5-13.4l-0.3-0.5-0.1-0.4c0-1.4 2.7-1 3.3-1l33.8 2.7c14.9 1.3 30.5 3.5 45.2 6.7 5.2 1 10.3 2.4 15.3 4-1.2-0.9-2.5-1.7-3.7-2.6-1-0.6-2.1-1-3.2-1.2-10.7-2.2-21.4-4.1-32.2-5.7-10.9-1.5-21.9-2.6-32.8-3.4-38.8-2.7-78.7-3.5-117.5-0.7l-32.8 2.7-21.9 1.9h-0.2c0.5 1.5 0.9 3.6 1.1 4.9 0.9 5.3 2 12.1 2.7 17.5l2.8 22.2 1.8 15.6s0.3 3.7 0.4 4.8h0.1l10.7-1.5c1.8-0.2 3.9-0.5 6.2-0.7l-0.2 0.2zm222.9-51.1c-6.4-2.3-13.1-4.1-19.8-5.5-7.6-1.6-12.4-2.5-20.1-3.7-8.3-1.2-16.6-2.2-25-3l-33.7-2.7h-1.3c2.9 3.3 9.5 11.3 11 14.3 0.2 0.4 0.2 0.7 0.2 1l-0.3 0.5-0.4 0.3c-1.2 0.5-10.4 0-12.4 0-1 0-2 0-3-0.1-1.1-0.1-2.3-0.6-3.2-1.2-2.3-1.6-4.7-3.5-6.8-5.5l-7.4-6.9c-1.1-1.1-2-1.8-3.4-2.4-3.5-0.6-26 0.1-30.4 0.3-20.9 0.9-47.1 2.7-68.5 4.6l-5.1 0.6c-3.4 0.3-7.9 1.2-9.6 4.6-0.5 1.6-0.6 3-0.5 4.7 0.8 11.2 1.6 15.8 3.2 26.8 0.8 5.4 1.7 9.2 3.7 14.2 1 2.7 2.8 4.9 5.3 6.4 2.6 1.4 5.3 2.4 8.1 3.2 14.6-1.6 35.7-3.5 45.7-4.2l38-2.6c2.9-0.2 5.7-0.5 8.6-0.7 0 0 0.1 0 0.2-0.1 2-0.1 3.9-0.3 5.9-0.5 4.2-0.5 8.4-1 12.6-1.7 6.6-1.1 25-4.1 31.7-5 4.6-0.6 13.3-1.3 18-1.4l20.1-0.5h41.1l36.1 0.5c3.8 0 7.7 0.2 11.7 0.3l-20.5-14.7c-5.6-3.9-11.2-7.7-16.9-11.4-4.4-2.8-8.7-5.7-12.9-8.5zm86.2 38c7.7 1.8 11.4 3.7 11.5 3.8 4.9 2.2 6 3.2 9.6 5.8h0.1c0.2-0.2 0.3-0.3 0.4-0.5v-0.3c0.3-0.9 0-1.4-0.3-2.2-1.5-1.3-3.1-2.5-4.8-3.5-4-1.9-9.1-2.9-13.5-3.1h-3zm77.3 18.3c2.8 1.6 5.7 3.1 8.7 4.5 6.9 3.1 17 7.3 23.5 9.6h0.7 1.2c6.2-1.3 6.4-1.5 12.5-3.1 2-0.5 4.4-0.8 6.6-1l-7.2-3.5c-1.8-0.8-3.6-1.6-5.5-2.2l-6.7-2 0.2-0.6c-6.4-0.8-18.6-1.2-26.5-1.6h-7.4l-0.1-0.1zm63 10.3v0.8h-7.6-0.2l-2.4 0.2c-2 0.2-4 0.5-6 1-2.9 0.8-9.7 2.6-12.7 3.1-1.8 0.3-4.4 0.3-6.2 0.2l-9.4-0.7c-9.5-0.9-18.9-1.8-28.4-2.5-13.4-0.8-36.8-1.6-52.5-1.9-28.5-0.5-57.1-0.6-85.6-0.3-10.3 0.1-20.5 0.4-30.8 0.8l-30.6 1.4c-20.8 0.9-30 0-50-2.3l-17.7-2.2c-3-0.4-5.2-0.5-8.2-0.5h-5.9c-10-0.3-14.2-0.2-24.2 0.2-2.2 0-4.2 0.5-6.2 1.4-1.7 0.8-3.3 1.7-4.9 2.7l-5 3.4c-5.5 4.4-11.5 10.3-16.9 15.4l-4.6 4.1c0.2 0.3 0.4 0.6 0.6 1 7.6 12.4 11.9 23.3 16.3 37.2 2.1 6.6 4 13.3 5.6 20 2.8 11 5.2 22 7.3 33.1 2 10.3 3.6 20.6 4.9 30.9 0.3 2.2 1.8 15 1.8 17.6l13.9 1.7h0.5l-3.6-6.6c-1.2-2.2-2.5-5.1-3.3-7.4-3.1-8.4 0-17.4 2.6-25.5 2.4-8.1 7.6-23.3 15-29.2 1.9-1.5 4.6-2.5 7.1-2.7 5.2-0.7 10.4-1.1 15.6-1 20.6-0.1 41.2 0 61.8 0.4h22.7c2.1-0.2 4.2-0.8 6.1-1.7 2-1.1 3.9-2.3 5.8-3.6 0.8-0.6 2.5-1.6 3.5-1.9 1.5-0.5 4.4-0.7 6-0.6 14.8-0.6 38.3-0.9 53.7-1l135.1-0.9c9.5-0.4 11.6 2 18 8.7 0.4 0.4 0.8 0.7 1.4 0.9 0.5 0.1 1.1 0.2 1.7 0.3h4.1c8.2 0 16.4 0 24.7-0.3l22.4-0.8c0.9 0 1.8 0 2.7 0.2 0.8 0.1 1.7 0.6 2.2 1.3-0.2-1.3-0.5-2.5-0.9-3.8-1.2-3.4-5.7-16.9-6.5-21.2l-0.5-3.9c-3.2 1.2-6.5 2.2-9.9 2.9-22.2 5.1-40.5 4.9-63 4.9l-71.9-0.3h-76.2c-27.9 0-60 0-88.3-1.8-8.9-0.6-21.9-1.6-30.8-2.3-9.4-0.7-33.5-2.6-42.9-3.5-8.1-0.7-20.8-2.2-28.9-3.2-8.4-0.7-17-2.3-21.7-10.1-1.5-2.4-3-5.6-3.9-8.3l-0.5-1.7c-0.2-0.8-0.2-1.6 0.1-2.3 0.4-1.1 1-2.1 1.7-3 1.3-1.6 2.7-3.2 4.1-4.6 2.1-2.2 4.4-4.3 6.7-6.3 1.9-1.7 4.1-3.2 6.3-4.6 1.3-0.9 2.7-1.6 4.2-2.2 1.4-0.6 2.9-0.9 4.4-1.1 3.2-0.5 6.5-0.7 9.8-0.7 9.8 0 19.6 0 29.4 0.5 9.7 0.4 37.6 1.5 47.3 2 10 0.5 20.1 1 30.1 1.3 30.9 0.8 47.4 0.9 78.3 1l82.2 0.6c21.2-0.2 42.5 0 63.7 0.4l15.4 0.3c8.9-0.4 16.5-1.1 25.4-2.1 5-0.6 9.9-1 14.8-0.8-1.3-2-6-8.5-6.7-9.5-1.5-2.1-2.5-3.2-4.2-5-2-2.2-4.6-4.1-7.4-5.7l0.1-0.3zm-22.5-7.6c4.5 1.4 5 1.8 6.1 2.3l7.9 3.9c0.3 0.2 0.8 0.5 1.1 0.8h6.2c-2.9-1.5-5.9-2.7-8.8-3.6l-8.7-2.4c-1.6-0.4-2.8-0.7-3.8-1zm-6 221.8c7.6-2.7 14.5-6.8 20.5-12.1 6.7-6.1 12.4-13.3 16.8-21.3-3.3 0.4-6.6 0.7-9.8 1-4.5 8.5-10.5 16-17.7 22.3-5.6 4.9-12.2 8.6-19.3 11 2.6-0.2 5.1-0.4 7.7-0.7 0.6 0 1.2-0.1 1.8-0.2zm39.1-33.7c-7.6 14.2-18.8 26.2-33.3 32.8 2.4-0.4 4.7-0.8 7.1-1.3 6.5-3.6 12.4-8 17.6-13.3 5.7-5.8 10.7-12.2 14.9-19.1-2.1 0.3-4.2 0.6-6.3 0.9zm-20.7 1.9c-2.7 5.2-6 10-9.9 14.4-4.3 4.9-9.7 9.2-15.6 12.2-7.8 4.1-16.8 6.1-25.9 6.6 2.4 0.2 4.9 0.3 7.3 0.3 3.1 0 6.1-0.2 9.2-0.3 9.3-2 18-6.3 25.3-12.6 6.8-6 12.6-13.1 17-21.1-1.2 0-2.4 0.2-3.5 0.3-1.3 0-2.6 0.2-3.9 0.2zm-62.5 31.5c6 0.6 12 0.5 18-0.3 6.4-0.9 12.6-2.8 18.4-5.8 5.7-3 10.8-7.1 15.1-11.9 3.6-4.1 6.7-8.5 9.3-13.3-10.4 0.7-20.7 1.3-31.1 1.8-6.3 4.6-13.8 7.5-21.6 8.3-8.5 0.7-17.6-1.7-24.9-6.1-8.6 0.4-17.3 0.7-25.9 1 10.2 12.6 23.9 21.5 39.6 25.6 1 0.3 2.1 0.5 3.1 0.7zm91.4-34.4c-7.5 12.7-17.4 23.8-29.8 31.7 1.4-0.3 2.8-0.7 4.2-1.1 0.5-0.1 1.1-0.3 1.6-0.5 6.1-3.3 11.6-7.5 16.4-12.5 5.4-5.6 10-11.9 13.8-18.7-0.3 0-0.7 0.1-1 0.2-1.6 0.3-3.4 0.6-5.1 0.9h-0.1zm8-1.5c-6.3 11.8-15 22.2-26 29.7 5.2-1.9 9.9-4.3 14.5-7.5 7.8-6.8 14.1-14.8 18.7-24-2.3 0.7-4.8 1.3-7.2 1.9v-0.1zm-143.2 8.1c18.5-0.7 36.9-1.5 55.4-2.4 23.5-1.1 31.3-1.5 54.8-3 10.2-0.7 19.9-1.8 29.9-3.6 3.8-0.7 7.5-1.7 11.2-2.8 0-0.1 0.1-0.3 0.2-0.4l3.6-1.4c1.4-0.6 2.7-1.3 3.9-2.3-0.9 0.2-1.9 0.3-2.8 0.4-4.6 0.5-9.3 0.8-13.9 1.1-6.2 0.5-12.1 0.5-18.1-1.2-1.9-0.5-3.9-1-5.8-1.4l-7.7-1.1c-2.3-0.3-4.7-0.4-7.1-0.4l-14.3 0.4-35.1 0.5-60.4 1.4c-17.4 0.5-43.7 0.9-61.1 0.9l-67-0.4c-3.6 0-6.9 0.2-10.5 1-4.1 1-8.1 2.1-12.2 3.3-3.6 1-7.9 1.3-11.6 1.1h-67.8c-10 0-20 0-30-0.3-5.1 0-10.6-0.4-15.6-1.2-2.1-0.3-4.1-1.1-5.9-2.2-0.3-0.3-0.4-0.7-0.5-1.2l-0.8-4.2c-4-23.1-6-34.8-10.9-57.8-2.3-10.4-4.6-19.6-7.5-29.9-2.9-10.2-6.7-22.8-12.4-32.3-1.5-2.5-3.3-5.3-5.4-8l-2.5 5c0.9 1.2 1.7 2.3 2.4 3.6 1.4 2.2 2.8 4.5 4 6.8 0.4 0.7 0.7 1.4 1.1 2.2 5.2 10.5 8.9 23.3 12.1 34.4 0.3 0.9 0.6 2 0.9 3.1h0.4c0 0.3-0.1 0.5-0.2 0.7 1.4 5.2 3.1 11.8 4.1 16.1v0.2h0.1v0.3c0.2 0.8 0.4 1.8 0.6 2.7h0.2v0.6c0.9 4.3 1.8 9.4 2.4 12.9 1.7 8.8 3.5 17.6 5.3 26.4 0.5-0.5 0.9-1 1.4-1.6-0.4 1.2-0.7 2.3-1.1 3.4l2.3 9.1c0.3 1.5 0.6 4.2 0.7 5.7 0.1 1.4 0.5 2.7 1 4 0.7 1.3 1.7 2.3 3 3.1 5 3 9.8 5.2 15.4 6.1 5.9 0.7 7.9 0.6 13.8 0.8l32 1.6 34.9 1.5 19.7 0.2c0-0.1 0-0.3 0.1-0.4l60.3 0.4c32-0.2 63.9-0.6 95.9-1.3l14.7-0.4c0.1 0.1 0.2 0.3 0.3 0.4l0.1-0.2zm70.8-1.6c-5.1 0.3-10.2 0.5-15.3 0.7l-25.8 1.2c6.8 3.6 14.4 5.3 22.1 4.8 6.8-0.7 13.3-3 19-6.7zm-294.3 2.8c-1.1 3.1-2.9 5.9-5.3 8.2-1.2 1.2-3.1 2-4.8 2-1.6 0-3.3-0.4-4.7-1.2-1.3 1.8-2.7 3.6-4.2 5.4 2.3 1.6 4.5 2.9 7.2 4l1.7 0.5c0.5 0.1 1.1 0.2 1.6 0.3 9.9-0.3 15.3-10.3 17.5-18.8l-9.2-0.4h0.2zm-13.9 7.8c1.2 0.6 2.5 1 3.8 1 1.4 0 2.8-0.7 3.8-1.6 2.1-2 3.7-4.5 4.8-7.2h-1l-6.5-0.4c-1.2 2.4-2.5 4.7-4 6.9-0.3 0.4-0.6 0.9-0.9 1.3zm24.6-7.3c-1.2 4.8-3.4 9.3-6.2 13.3-2 2.9-4.9 5-8.2 6 1.4 0.1 2.8 0.2 4.2 0.2h3.7c1.6-0.3 3-1.1 4.3-2.2 1.7-1.5 3.2-3.3 4.3-5.3 2-3.7 3.6-7.7 4.6-11.9l-6.6-0.3-0.1 0.2zm11.8 19.6c1.4-0.5 2.6-1.2 3.7-2.2 1.6-1.4 3-3.1 4.1-4.9 2.2-3.6 4-7.5 5.3-11.6h-3.3l-4.3-0.2c-1.7 6.1-5 14-9.3 18-0.4 0.4-0.8 0.7-1.2 1 1.8 0 3.2 0 5-0.1zm14.7-18.7c-1.9 6.1-5.5 13.6-10 17.5-0.4 0.3-0.8 0.7-1.2 1h2.2c0.5 0 0.9 0 1.3-0.1 3.4-1.2 6.2-3.5 8.1-6.6 2.4-3.8 4.1-7.4 5.4-11.7h-5.9l0.1-0.1zm7.4 0c-1.3 4.4-3.2 8.6-5.7 12.4-1.3 2.1-3 3.9-5 5.2 7-1.2 12.3-6.5 15.5-12.6 0.9-1.7 1.6-3.3 2.2-5h-7.1 0.1zm-30.2 18.7c1.3-0.4 2.5-1.1 3.5-2 1.6-1.5 2.9-3.2 3.9-5.1 2.1-3.8 3.7-7.8 4.9-12l-7.9-0.3c-1 4.4-2.7 8.6-4.8 12.5-1.6 2.9-3.7 5.3-6.3 6.9h5.2 1.5zm249.1-181.7-1.5 1.6c0.6 0.7 1.1 1.3 1.6 2h8.5l1.4-1.7-1.2-1.9h-8.6-0.2zm-8.4 1.6-1-1.6h-9.5l-1.2 1.3h0.1l1.5 2h8.6l1.5-1.7zm0.7-1.6v0.2h5.5l0.3-0.3h-5.7l-0.1 0.1zm-19.3 1.3-0.8-1.1h-10.3l-0.8 0.9h-7c0-0.1-0.5-0.9-0.5-0.9h-11.2l-0.6 0.6h0.1l1.6 2.1h9l1.6-1.9h7.1c0 0.1 1.5 2.1 1.5 2.1h8.7l1.6-1.9v0.1zm-38.3-0.5-0.5-0.6h-11.4c-0.2 0-0.5 0.3-0.6 0.4h0.2c0.5 0.8 0.9 1.4 1.5 2.1h9.1l1.6-1.9h0.1zm-19.6-0.3-0.3-0.6-11.8-0.2-0.4 0.5 1.6 2.1h9.3l1.6-1.8zm-19.9-0.3-0.3-0.5h-12.3l-0.3 0.3h-7.4c0-0.1-0.2-0.3-0.2-0.3h-39.4 5.6l1.8 2.1h9.8l1.6-2h7.7c0 0.1 1.7 2.2 1.7 2.2h9.7l1.7-2h7.5c0 0.1 1.7 2.2 1.7 2.2h9.5l1.6-2zm145.3 11.7h-5.7l-1.4-2.1h-5.2l-1.4 1.6h-10.1c0-0.1-1.2-1.9-1.2-1.9h-5.3l-1.5 1.9h-9.8c0-0.1-1.5-2.1-1.5-2.1h-5.4l-1.6 1.9-10.1-0.3-1.4-1.9h-5.6c-0.6 0.6-0.9 1.1-1.4 1.9h-10.2l-1.6-2.1h-5.7l-1.6 1.9h-10.4c0-0.1-1.6-2.1-1.6-2.1h-5.8l-1.6 1.9h-10.5c0-0.1-1.6-2.2-1.6-2.2h-5.8l-1.6 1.9h-10.7c0-0.1-1.6-2.2-1.6-2.2h-6l-1.6 1.9h-10.9c0-0.1-1.7-2.2-1.7-2.2h-6.1l-1.7 2h-11.1c0-0.1-1.7-2.2-1.7-2.2h-6.3l-1.7 2h-11.3c-0.6-1-1.1-1.6-1.7-2.3h-6.4l-1.8 2h-11.4c0-0.1-1.8-2.3-1.8-2.3h-6.5l-1.7 2h-7.6v0.2h7.5l1.6 2.3h6.4l2-2h11.4c0 0.1 1.6 2.2 1.6 2.2h6.3l1.9-2h11.2c0 0.1 1.6 2.2 1.6 2.2h6.1l1.9-2h11.1c0 0.1 1.5 2.2 1.5 2.2h6l1.9-2h10.9c0 0.1 1.5 2.2 1.5 2.2h5.9l1.9-2h10.7c0 0.1 1.4 2.2 1.4 2.2h5.8l1.9-1.9h10.5c0 0.1 1.4 2.2 1.4 2.2h5.7l1.9-1.9h10.4c0.5 0.9 0.8 1.4 1.3 2.1h5.6l1.8-1.9h10.2c0.5 0.9 0.8 1.4 1.3 2.1h5.5l1.7-1.9h10.1c0 0.1 1.3 2.1 1.3 2.1h5.4l1.8-1.9h9.8c0 0.1 1.3 2.1 1.3 2.1h5.3l1.7-1.8h9.7l1.2 2h5.2l1.8-1.8h5.7 0.3zm-237.8-4.5h6.9l1.5-1.7-1.4-1.9h-6.3c0 0.3-0.1 0.6-0.2 0.8l-0.6 2.9 0.1-0.1zm16.7-1.7 1.6 2h10l1.6-1.7-1.5-1.9h-10l-1.7 1.6zm21.2 0.3c0.7 0.7 1.2 1.3 1.7 2h9.9l1.4-1.7-1.5-2.1h-9.9l-1.7 1.7 0.1 0.1zm21 0.1 1.7 2.1h9.7l1.4-1.7-1.5-2.1h-9.7l-1.6 1.7zm20.6 0.2 1.7 2.1h9.5l1.4-1.7-1.5-2.1h-9.5l-1.6 1.7zm20.1 0.3h0.1l1.6 2.1h9.3l1.5-1.8h-0.1l-1.4-2.1h-9.3l-1.7 1.8zm19.7 0.3h0.1l1.6 2.1h9.1l1.5-1.8-1.4-2.1h-9.1l-1.8 1.8zm19.5 0.3 1.6 2h9l1.4-1.7-1.4-2.1h-9c-0.6 0.5-1.1 1.1-1.6 1.8zm19.4 0.2 1.6 2.1h8.6c0.4-0.7 0.9-1.2 1.4-1.9l-1.3-1.9h-8.7l-1.7 1.7h0.1zm18.9 0.2 1.4 1.9 8.7 0.3 1.5-1.9-1.3-2h-8.6l-1.7 1.7zm18.4 0.3 1.5 2h8.4l1.4-1.8-1.3-2h-8.4l-1.7 1.8h0.1zm18.2 0.2 1.2 1.8h8.7l1.4-1.6-1.3-1.9h-8.3l-1.7 1.7zm17.9 0.3 1.4 2h8.1l1.2-1.4v-0.4h0.4l-1.3-2h-8.1l-1.7 1.8zm17.5 0.3 1.4 1.9h4.1c0-1.2-0.2-2.4-0.4-3.7h-3.3l-1.7 1.8h-0.1zm0.6 3.2-1.4-1.9h-5.1c-0.5 0.6-1.3 1.6-1.5 1.8h-0.5l1.7 2h5l1.7-1.9h0.1zm-99.4 1.9c-0.4-0.5-0.8-1-1.1-1.6h-9l-1.7 1.7 1.4 1.7h8.9l1.6-1.9-0.1 0.1zm-19.3-0.1-1.2-1.8h-9.1l-1.7 1.7 1.4 1.8h9.1l1.5-1.8v0.1zm-19.6-0.3-1.2-1.8h-9.3l-1.7 1.8c0.4 0.7 0.8 1.2 1.3 1.8h9.3l1.6-1.8zm-19.9-0.3-1.2-1.7h-9.5l-1.7 1.8 1.4 1.8h9.4l1.6-1.9zm-20.3-0.2-1.2-1.7h-9.7l-1.8 1.8 1.5 1.7h9.6l1.6-1.8zm-20.7-0.3-1.3-1.6h-9.8l-1.8 1.9 1.4 1.7h9.8l1.7-2zm-21-0.2-1.3-1.6h-10l-1.9 1.9 1.4 1.7h10l1.8-2zm-21.4-0.3-1.2-1.7h-6.5c0 0.3 0.1 0.7 0.2 1.1 0.2 0.8 0.4 1.6 0.7 2.5h5.1l1.7-1.9zm246.5 1.2h-4.3l-1.5 1.6 1.2 1.7h4.2l0.3-3.3h0.1zm-12.6 1.5-1.4-1.7h-7.8l-1.6 1.7 1.2 1.6h8.2l1.4-1.6zm-17.7-0.1-1-1.7h-8.3l-1.6 1.8 1.2 1.7h8.2c0.4-0.6 0.9-1.1 1.4-1.7l0.1-0.1zm-18-0.4-1-1.6h-8.4l-1.8 1.9 1.2 1.6h8.5l1.5-1.9zm-18.3-0.2-1-1.6h-8.7l-1.7 1.9 1.2 1.6h8.6l1.6-1.9zm-18.6-0.2c-0.4-0.5-0.7-1-1.1-1.6h-8.8l-1.7 1.8 1.2 1.7h8.7c0.5-0.6 0.9-1.2 1.6-1.9h0.1zm44.2 3.6-1.2-1.6h-5.4l-1.3 1.7 1 1.7h5.3l1.6-1.8zm-18.3-0.1-1.3-1.7h-5.4l-1.5 1.8 1.2 1.8h5.3l1.7-1.9zm-18.4 0-1.3-1.8h-5.6c-0.5 0.5-0.9 1.1-1.4 1.8l1.2 1.9h5.5l1.6-1.9zm-18.7 0-1.4-1.9h-5.7l-1.5 1.8 1.3 2h5.7l1.7-1.9h-0.1zm-19.1-0.2-1.6-1.9h-5.8l-1.6 1.9 1.4 2h5.8l1.7-1.9 0.1-0.1zm-19.5-0.1-1.6-2.1h-5.9l-1.6 1.9h-10.7c-0.7-0.8-1.2-1.4-1.7-2.2h-6l-1.7 2h-10.8c0-0.1-1.7-2.2-1.7-2.2h-6.1l-1.7 2h-11c0-0.1-1.8-2.2-1.8-2.2h-6.2l-1.7 2h-11.2c0-0.1-1.8-2.2-1.8-2.2h-6.3l-1.8 2h-11.4c0-0.1-1.8-2.2-1.8-2.2h-6.5l-1.7 2h-5.3s0 0.2 0.2 0.4h5.3c0.5 0.8 0.9 1.4 1.5 2.1h6.6l2-2.1h11.4c0 0.1 1.6 2.3 1.6 2.3h6.3l1.9-2.1h11.2c0 0.1 1.5 2.2 1.5 2.2h6.2l1.9-2.1h11c0 0.1 1.5 2.2 1.5 2.2h6.1l1.9-2.1h10.8c0 0.1 1.4 2.2 1.4 2.2h6l1.9-2h10.7c0 0.1 1.4 2.2 1.4 2.2h5.9l1.8-2zm129.4 0.9-1.2-1.6h-5.2l-1.4 1.8 1 1.6h5.2l1.6-1.8zm-17.7 0-1.2-1.6h-5.2c-0.5 0.5-0.9 1.1-1.4 1.8l1 1.6h5.2l1.6-1.7v-0.1zm-202.9 5.5 1.4 1.9h5.5c0.5-0.3 1-0.5 1.6-0.8l1.1-1.2-1.7-1.9h-6.3l-1.6 1.9v0.1zm0.6 3.3-1.6-2.2h-10l-2 2h-7.8c-0.7-0.7-1.1-1.3-1.7-2.1h-1c0.5 1.2 1.1 2.4 1.6 3.5l1-1.2h7.8l1.9 2.1h10l1.7-2.1h0.1zm-22.1-3.4c0.4 0.7 0.8 1.2 1.3 1.8h6.6l1.8-1.9-1.6-1.9h-6.4l-1.8 2h0.1zm-3.1-1.4h2.4l1.8-2.1h7.8l1.8 2.2h10l1.7-2h7.7l1.8 2.1h4.9c1-0.1 2.1-0.3 3.1-0.4 0.8 0 1.6-0.1 2.4-0.2l1.2-1.5-1.5-2.1h-9.8l-1.9 2h-7.7l-1.6-2.2h-10l-2 2h-7.8c-0.7-0.7-1.1-1.3-1.7-2.1h-4.1c0.5 1.4 1.1 2.8 1.7 4.3h-0.2zm11.3 11.7 1.8 2h0.6c0.2 0 0.4 0 0.6-0.1 2-1 2.9-1.6 4.8-2.8 0.6-0.4 1.1-0.7 1.7-1.1h-7.5l-2 2zm0.2 2.4-1-1.1h-4l0.2 0.3 0.5 0.5s0.2 0.2 0.3 0.2c0.5 0 0.9 0.1 1.4 0h2.6v0.1zm-6.6-3.9h5.8l2-2.1-1.8-2h-6.4l-1 1.2c0.5 1 1 2 1.5 2.9h-0.1zm21.5-4.1h-0.6l-0.5 0.6c0.4-0.2 0.7-0.4 1.1-0.6zm175.2-6.6 0.5-0.6h6.6l0.4 0.6c3.2 0 6.8 0.3 9.9 0.7l0.9-1.2-1.3-2h-8.3l-1.8 1.8h-6.7l-1.2-2h-8.5l-1.4 1.5v0.5h-0.2l0.5 0.6c3.3 0 6.8 0 10.6 0.1zm-18.4 0 0.5-0.5h5.7-5.9l-1.3-2h-8.6l-1.7 1.9h-6.9l-1.3-2h-8.8l-1.8 1.9h-7.1l-1.3-2h-8.9l-1.8 1.9 0.6 0.8h10.8c0.2-0.2 0.4-0.4 0.6-0.7h6.8c0.3 0.2 0.5 0.4 0.7 0.7h10.9c0.1-0.2 0.3-0.4 0.5-0.6h6.9l0.5 0.6h10.7 0.2zm-56.9-0.1 0.7-0.8h-0.1l-1.4-2h-9.1l-1.8 1.9 0.7 0.9h11.1-0.1zm-19.8 0 0.7-0.9-1.4-2.1h-9.3l-1.9 1.9h-7.4l-1.4-2.1h-9.4l-1.9 2 0.9 1.2h11.2l0.9-1h7.3l0.7 1h11zm-40.3 0 1-1.1h-0.1l-1.5-2.1h-9.6l-1.9 2 1 1.3c3.9 0 7.6 0 11.1-0.1zm180.3 10.7h-1.5l-1.6 1.8 1.3 1.7h0.2c0.7-1.2 1.2-2.3 1.7-3.6l-0.1 0.1zm-10.1-1.3 1.1 1.8h5.1l1.7-1.9-1.3-1.8h-5.1l-1.5 1.9zm7.3 6.1-1.3-1.7h-3.1l1.2 1.1 0.9 0.7c0.3 0.2 0.6 0.3 0.9 0.3s0.7 0 1-0.3c0.1 0 0.2-0.1 0.4-0.1zm-226.9-1c2 0.4 24.4 4.9 24.4 4.9 1.6 0.3 5.9 0.9 7.7 0.9 0.9-3.6 2.2-7.5 5.5-9.6 2.2-1.5 7-1.8 9.9-1.7 24.1-0.5 102.7-0.1 142 0 3.4-0.1 7.7 0 11.1 0.5 2.1 0.3 4.5 1.5 5.9 3 0.9 1 2.5 3.2 3.1 4.5 0 0 1 2.2 1.1 2.6 2.1 0.2 8.9-0.2 11-1.9l1.5-1.3c-2.5-2.1-11.5-9.9-12.5-10.8-1.2-0.9-2.4-1.6-3.8-2.2-1.8-0.6-3.6-1-5.4-1.2-5.1-0.5-9.2-0.6-14.3-0.6l-78.7-0.2h-70.6c-4.1 0-7.8 0-11.9 0.4-2.4 0.2-4.7 0.8-6.9 1.7-4.9 2-11.3 5.8-16.3 9-0.8 0.6-2 1.3-3.1 1.9l0.3 0.1zm215.6-6.5h3.2l1.4-1.8-1.1-1.8h-7.4s0.1 0 0.2 0.1l3.8 3.4-0.1 0.1zm11.3-1.8 1.3 1.8h2.3c0.4-1.2 0.7-2.4 1-3.6h-3.1l-1.5 1.8zm-17-2.9 0.3-0.3-1.3-1.8h-5.1c1.5 0.2 2.8 0.5 3.8 0.9 0.6 0.2 1.5 0.7 2.3 1.2zm10-0.1 1.1 1.7h5.1l1.6-1.8-1.3-1.7h-5.1l-1.4 1.8zm-10.2-3.4 1.4 2h8.1l1.5-1.9-1.2-2h-8.1s-1.7 1.9-1.7 1.9zm17.5 0.1 1.4 1.9h3.6c0.1-0.5 0.2-1 0.3-1.4 0.2-0.8 0.3-1.5 0.5-2.3h-4.1l-1.7 1.8zm-14.5-20.7-1.6 1.7 1.4 2h8.1l1.5-1.8-1.1-1.7-8.3-0.2zm-8.3 1.7-1.2-1.9-8.4-0.2-1.6 1.8h0.1l1.4 2h8.2c0.5-0.6 0.9-1.1 1.5-1.7zm-17.6-2.1 0.3 0.5h5.3l0.5-0.5h-6.1zm18.1 0.2 0.3 0.4h5.2l0.4-0.3-5.9-0.1zm-75.2 4 1.1 1.7h5.6l1.7-1.7-1.3-1.7h-5.7l-1.5 1.8 0.1-0.1zm18.9 0.2 1.2 1.7h5.5l1.6-1.7-1.3-1.7h-5.6l-1.5 1.7h0.1zm18.7 0.2 1.1 1.7h5.4l1.6-1.7c-0.4-0.7-0.8-1.2-1.3-1.7h-5.4l-1.5 1.7h0.1zm18.3 0.3 1.1 1.7h5.3l1.6-1.6-1.2-1.7h-5.4l-1.4 1.6zm18.1 0.3 1.1 1.6h5.2l1.5-1.6-1.3-1.8h-5.2c-0.5 0.5-0.9 1.1-1.3 1.8zm17.6 0.1 1.2 1.8h5.1l1.5-1.6-1.3-1.8h-5.1l-1.4 1.6zm-234.3-2.8 1.4 1.9h6.4l2-2-1.5-1.9h-6.5l-1.8 2zm21.4 0.4 1.3 1.7h6.3l1.9-2-1.4-1.7h-6.3l-1.8 2zm21.1 0.2 1.2 1.7h6.2l1.9-2-1.4-1.7h-6.3l-1.6 2zm20.7 0.2 1.2 1.7h6.1l1.9-2-1.4-1.7h-6.1l-1.7 2zm20.4 0.2 1.2 1.7h5.9l1.8-1.9-1.3-1.7h-6l-1.6 1.9zm20 0.2 1.1 1.7h5.8l1.7-1.7c-0.5-0.6-0.9-1.1-1.3-1.7h-5.9l-1.5 1.8 0.1-0.1zm19.6 0.3 1.1 1.7h5.7l1.8-1.8-1.3-1.7h-5.8l-1.5 1.8zm120-3.4-1.6 1.8 1.3 1.8h2.7c-0.4-1.2-0.9-2.3-1.5-3.4v-0.2h-0.9zm-7.6-0.1 0.3 0.4h5.1l0.3-0.3-5.7-0.1zm-242.3 0.4h6l1.4-1.6h-5.3l-1.4 0.1h-0.1c-0.1 0.2-0.3 0.8-0.5 1.4l-0.1 0.1zm15.8-1.6 1.6 1.9 10 0.2 1.8-2.1h-13.4zm236.9 25.3c-0.6 2.2-1.2 4.5-2 6.7 0 0.2-0.1 0.3-0.2 0.5 0.8-2.3 1.6-4.7 2.1-7.2h0.1zm3.1-14.9 11.6-0.3h3.5c0.7 0.1 1.3 0.4 1.7 0.8 0.4-1.3 1.1-2.5 1.9-3.5 2.5-3.2 7.1-3.8 10.3-1.4 0.6 0.5 1.2 1 1.6 1.7 1.5 2.1 2.3 4.6 2.3 7.1 0 2.3-0.6 4.6-1.9 6.5-1.3 2.1-3.9 3.9-6.5 3.8-2.3 0-4.5-1.2-5.9-3l-0.3 0.2c-0.9 0.4-15.7 1.2-19.5 1.4-0.2 1.1-0.5 2.1-0.7 3.1-0.6 2.6-2.2 7.5-3.5 10.3h0.4c3.1 0 6.2-0.2 9.3-0.5 9.9-1.2 19.7-2.8 29.4-4.6l2.1-0.4h0.3c0.5-1 0.6-1.8 0.8-2.9 0.2-2.1 1-4.1 1.7-6.1l0.6 0.2-0.3-0.8c0.4-1.2 0.7-2.2 1-3.4 0.2-1.1 0.3-2.3 0.3-3.4-0.1-3.1-0.8-6.2-2-9-1.2-2.5-2.1-3.3-3.5-5.5l-1-1.7-0.6 0.4c-0.3-0.4-0.5-0.7-0.6-0.8h-0.2-1.5c-8.6 0.1-23.2 1-31.6 2.7l-0.9 0.3h-0.2v0.2c0.6 1.2 1 2.5 1.2 3.8 0.3 1.5 0.6 3.2 0.7 4.8v0.1-0.1zm17.7 2.4c0.7 1.9 1.6 5.9 1.7 7.9 1.1 1.7 3 2.8 5.1 2.9 4.6-0.2 6.8-4.9 6.9-8.9 0-2.4-0.7-4.3-2-6.3-1.8-2.7-5.5-3.4-8.2-1.5-0.5 0.4-1 0.8-1.4 1.3-1.1 1.4-1.8 2.8-2.1 4.6zm-18.7 9.4 15.8-0.9c0.6 0 2.8-0.3 3.1-0.5v-0.5c-0.3-1.9-0.7-3.9-1.3-5.7l-0.5-1.5-0.3-0.7c0-0.2-0.2-0.3-0.3-0.4-0.2-0.1-0.4-0.2-0.6-0.2-3.9-0.1-10.4 0-14.9 0.2 0 3.2-0.4 6.9-1 10.3v-0.1zm38.7 9.1 6.7 3-4.8-10.7-0.8 2.2c-0.3 0.9-0.5 1.8-0.6 2.7 0 0.8-0.2 1.8-0.6 2.7l0.1 0.1zm-3.3-34.8h-5.1c-3.1 0.2-6.1 0.4-9.2 0.8-0.8 0-1.7 0.2-2.8 0.3 1.4 0 2.7-0.2 4.1-0.2 3.1-0.2 6.1-0.3 9.2-0.3h1.5c0.3 0 0.8 0 1 0.2 0.1 0 0.3 0.2 0.4 0.4l0.8-1.2h0.1zm-413.8 193.7c5.5-3.3 10.4-7.5 14.4-12.5 4.3-5.3 7.9-11 11-17.1l-3.9-0.2c-1.5 0-3.3 0-5.2-0.1-5.1 9.4-12.9 20.6-20.6 26.9-1.5 1.3-3.1 2.3-4.9 3.2l9.2-0.2zm26.9-29.5c-3.1 6.4-7 12.4-11.4 17.9-3.6 4.5-7.9 8.4-12.7 11.6l7.7-0.2h1.8c5-3.5 9.4-7.7 13.1-12.6 4-5.3 7.3-10.3 10.4-16.1l-8.9-0.4v-0.2zm10.5 0.5c-3.1 5.9-6.7 11.6-10.8 16.9-3.3 4.4-7.2 8.3-11.5 11.6 1.4 0 2.7-0.2 3.5-0.3 2.3-0.4 6.3-3.6 8.2-5.3 3.1-2.6 5-4.3 7.7-7.4l1.1-1.3s0.2 0.1 0.3 0.2c3.6-4.2 6.9-9.1 9.4-14l-7.9-0.4zm-241.9 0.8c-0.8 4-1.7 7.9-2.7 11.8-0.6 2.7-2.1 7.4-3.5 9.8-0.2 0.4-0.5 0.8-0.8 1.2l5.7-0.2c0.4 0 1.3 0 2.4-0.1 0.6-0.4 1.2-1 1.5-1.7 0.6-1.1 1-1.7 1.4-2.8 1.9-4.7 3.5-11.8 4.5-17.4-2.9-0.2-5.7-0.4-8.6-0.7l0.1 0.1zm-9.1 22.9c0.3-0.1 0.5-0.3 0.7-0.6l0.9-1.4c1.6-3.2 2.5-6 3.4-9.5 1-3.8 1.9-7.7 2.7-11.6h-0.4l-4.1-0.6c-1.3-0.1-2.5-0.6-3.5-1.2-0.8 4.5-1.8 9-3 13.4-0.6 2.5-1.4 4.9-2.4 7.3-0.6 1.4-1.4 3.1-2.5 4.4l8.2-0.2zm-10.6 0.3c0.3-0.1 0.5-0.3 0.7-0.5 0.4-0.4 0.8-0.8 1.1-1.3 3.1-4.9 5.8-17 7.1-24.4-1.5-1.4-2.7-3.2-3.5-5-1.2-2.5-2.2-5.1-2.9-7.8-0.7 5.5-1.6 11-2.6 16.4-1 5.2-3.5 17.4-8.4 22.8l8.5-0.2zm-10.7 0.3c0.9-0.7 1.8-1.6 2.4-2.6l1.7-3.1c0.9-2 1.7-4 2.3-6.1 2.7-8.9 4.7-21.2 5.8-31-0.7-2.5-1.3-5-1.8-7.5l-7.2-28.9-5.9-26.5c-1.5-6.1-4.1-15.1-7.7-22.4-0.8 0.1-1.6 0.3-2.3 0.5-0.9 0.3-1.8 0.8-2.7 1.2 1.3 0 2.6 0.6 3.5 1.6 2.8 2.6 5.1 7.7 6.3 11.6 1.7 5.7 3 11.4 3.7 17.3 1.4 10.9 2.1 22 1.8 33-0.1 9.6-0.9 19.2-2.3 28.7-0.8 5.8-2 11.5-3.6 17.1-0.9 3.2-2.1 6.4-3.5 9.5-1.1 2.4-2.9 5.3-5.1 7-0.2 0.2-0.5 0.4-0.8 0.5h1.2c4.7 0.2 9.5 0.2 14.2 0.1zm-20.3-124.2c2.4-2.6 5.7-4.7 9.3-5.3-1.1-2.1-2.2-3.9-3.4-5.5l-1.4-1.5c-0.5-0.4-1.1-0.7-1.7-0.8-1.3-0.2-2.7 0.2-3.7 1-1.8 1.5-3.3 3.4-4.2 5.6-1.4 3.6-2.2 6.8-2.6 10.6-0.8 6.5-1.2 11.9-1.3 17.7 0.4-1.8 0.9-3.7 1.4-5.5 0.9-3.4 2.1-6.7 3.5-9.9 1-2.2 2.4-4.6 4.1-6.4zm217 60.6c-1.7-0.1-2.9-1.3-3.4-2.9-0.1-0.4-0.2-0.8-0.3-1.3-0.9 0.8-1.8 1.6-2.6 2.3l-5.2 5c0.3 0 0.5 0.1 0.8 0.2 0.9 0.3 3.9 1.5 4.7 2 0.3 0.2 0.5 0.4 0.7 0.7 1-1 1.9-2 2.8-3l2.6-3.1-0.1 0.1zm-2.5-5.1c0.1 1.3 0.5 2.7 1.6 3.4 0.3 0.2 0.7 0.3 1.1 0.3h1l1.1-1.3 1.7-2.3 0.3-1.2v-0.3l-0.2-0.1h-0.6c0-0.1-1.5-0.8-1.5-0.8h-0.4l-0.8 0.2c-1.1 0.5-2.3 1.2-3.5 2.1h0.2zm-4.1-7.1c-0.4-0.4-0.7-0.9-1-1.4-0.6-1-0.9-2.3-0.9-3.5 0-2.1 0.7-3.8 2.1-5-13.5-1.8-18.2-2.5-30.2-4.2-3.2-0.4-6.4-0.8-9.6-1.1l-4.7-0.6c0.7 0.4 1.4 0.7 2.1 1.1 2.1 0.7 3.7 1 5.9 1.2l10.4 1 10.6 1.3 2.4 0.5c1.4 0.2 3.2 0.9 3.5 2.6 0.3 1.5 0 5.3-0.7 6.8-0.4 0.8-1.5 1.1-2.4 1.1l-17.2-0.1c-3.1-0.2-6.3-0.2-9.4-0.2-1.5 0-2.9 0.3-4.3 0.8-0.9 0.3-1.7 0.7-2.5 1 11-0.9 34.2-1.4 45.7-1.2l0.2-0.1zm2.3-9.6c-0.8 0.4-1.5 1-2 1.7-1 1.7-1.1 4 0 5.7 0.5 0.8 1.1 1.5 1.7 2.1 1.3 0 2.8-0.3 3.4-0.7h0.1c-0.2-1.6-0.2-4.9 0-6.7v-0.2c-0.2-0.3-0.4-0.6-0.7-0.8-0.5-0.3-1.7-1-2.4-1.2l-0.1 0.1zm-218.5-54.1c1.3-3.6 5-6.5 9-6.1 3.1 0.3 5.8 3.6 7.4 6.4 2.7 4.8 5 12.2 6.6 18 2.8 9.4 9.7 37.8 12.7 50.2 1.2 5 2.6 9.9 4.2 14.8 1.1 3.6 2.4 7.1 3.7 10.6 1.4 0 5.2-0.2 8-0.3l-5.5-23c-0.1-0.1-0.2-0.3-0.2-0.4v-0.2l-7.7-32.1-4.2-19.6-3.6-15.6c-1-4.5-2.3-8.9-3.8-13.2-1-2.7-2.4-5.9-4.4-8-1.2-1.3-3.1-1.7-4.8-1.2-4.6 1.7-9.1 6.1-12.2 10.2-2.1 2.7-3.7 5.8-4.9 9l-0.3 0.9v-0.4zm42 93.8c-1.3-3.3-2.4-6.7-3.5-10.1-1.4-4.4-3.1-10.4-4.2-14.8l-9.3-37.8c-1.3-5-4.8-17.6-6.6-22.8-1.3-3.8-3.4-8.3-6.3-11.2-0.9-0.8-2-1.4-3.2-1.6-1.4 0-2.8 0.3-4.1 1-1.7 1-2.8 2.5-3.5 4.3-1.3 3.3-2.5 6.7-3.5 10.1 0 0.4-0.1 0.8-0.2 1.3 0 0.6-0.2 1.1-0.2 1.7 1-4.5 2.9-9 6.5-11.8 1.3-1 3.2-1.5 4.9-1.2 1.8 0.3 2.8 1.4 3.9 2.7 1.5 1.7 3.4 5.2 4.3 7.3 1.6 3.3 3 6.7 4.1 10.2 1.3 3.8 2.7 8.6 3.6 12.5l5.9 26.5 7.2 28.9c0.3 1.6 0.7 3.1 1.1 4.7 1 0.1 2 0.2 3 0.2l0.1-0.1zm24.5 23c-0.7 3.9-1.5 7.8-2.5 11.6-0.7 2.8-1.9 6.5-3.6 9.2l-0.6 0.9c2.8-0.1 5.8-0.3 6.4-0.4 0.3 0 0.5-0.1 0.8-0.3 0.6-0.5 1.1-1.1 1.6-1.7 0.8-0.9 1.4-1.9 2-3 2.2-4.1 4.2-10.6 5.6-15.8-3.2-0.1-6.4-0.3-9.6-0.5h-0.1zm-69.8-72.3v0.6h-0.1c-0.2 1.4-0.4 2.7-0.6 3.9v0.5c-1.3 9-1.9 18-2.1 27-0.3 15.5 0.9 37 6.1 51.9 1.3 3.7 2.8 7 5.8 9.4 0.4 0.3 0.9 0.5 1.3 0.7h0.9c1.8 0 3.4-1.3 4.5-2.7 9.4-12.1 11.8-44.2 12.1-59.3 0.3-14.4-0.8-43.8-8.9-57.7-1.1-1.9-3-4.2-5.4-4.3-2 0-3.6 1.6-4.7 3-4.4 5.9-7.4 17.4-9 26.9l0.1 0.1zm42.7 50.6c0.4 1.4 0.7 2.7 1.1 4.1 1 3.7 1.5 4.8 3.1 8.3 0.9 2 1.8 3.5 3.5 4.9 1.1 0.9 2.3 1.3 3.7 1.5l4 0.6c7.2 0.7 14.5 1.2 21.7 1.5 7.4 0.3 14.3 0.2 21.7-0.2 14.6-0.8 24.4-0.9 37.6 0l17.1 1c4.8 0.2 9.2 0.3 13.9 0.1-1.6-3.2-3-6.5-4.3-9.9-3.2-0.8-6.4-1.5-9.7-2.2-4-0.6-8.1-1.1-12.1-1.5-5-0.3-9.9-0.5-14.9-0.5-7 0-14 0.2-21 0.6-9.5 0.5-19.1 0.9-28.6 1.3-9.2 0.4-18.5 0.5-27.8 0.2-1.3 0-5-0.1-6-0.7-0.4-0.2-0.6-0.6-0.5-1v-0.3c0.5-0.4 1.3-0.9 1.8-1.2 1.5-1 2.9-2.2 4.3-3.4 1-1 2-2.1 2.9-3.2l-7.8 0.3c-1 0-2.5 0-3.7-0.3zm204.5-14.7c0 0.4-0.2 0.7-0.2 1.1-0.2 1-0.3 2.1-0.3 3.1 0.4-0.3 0.8-0.7 1.2-1.1-0.2-0.7-0.4-1.8-0.7-3.1zm-2 4.5c0-2.6 0.4-5 1.4-7.4-1.6-7.9-4-19.8-4.3-21.4-0.5-3.1-1.1-6.2-1.7-9.3-0.7 4.2-1.3 8.4-1.7 12.6 0 0.1-0.5 1.8-0.5 1.8-0.2 0.5-0.5 0.9-0.8 1.3l-0.2 2.2h0.2c0.6 4.5 1.4 8.9 2.6 13.3 0.3 1 0.7 1.9 1.3 2.7 0.7 0.9 2.5 3.2 3.6 4.2h0.1zm-5.5 13.9-1.5-4.5c-1.1-3.8-0.7-8.2-0.5-12.2-1-1.8-1.9-6-1.9-8.6l0.2-6.4v-0.2l-2.3 5.3c-0.6 1.3-0.9 1.9-1.4 3.3-1.1 4-0.8 9.3-1 13.6 0 1.9 0 3.3 0.3 5.2 0.3 1.7 0.9 3.4 1.7 5s1.7 3.1 2.7 4.5l0.2 0.3c1.2-1.7 2.4-3.5 3.5-5.3zm-0.7-14.8c0 1.1-0.1 2.3-0.1 2.3-0.1 2.5 0.1 5.1 0.7 7.6l1.1 3.3c0.3-0.5 0.5-0.9 0.8-1.4 0.7-1.4 1.3-2.8 1.9-4.3l0.2-0.9v-0.8c0-0.2-0.1-0.4-0.2-0.5l-3.3-4.1c-0.3-0.3-0.7-0.7-1-1.2h-0.1zm-25.9 33.7c-1.6 0.8-3.2 1.6-4.7 2.5-1.3 0.8-2.5 1.8-3.5 2.9-0.7 0.9-1.3 1.8-1.9 2.7 1.4 0.3 2.9 0.3 4.3 0.2 3.8-0.5 8.5-1.5 11.9-3.2 2.4-1.2 4.4-2.6 6.5-4.3 2.9-2.4 3.4-3 5.9-5.6 0.8-0.8 1.3-1.5 1.7-2.5-1 1.1-2.1 2.1-3.2 3.1-4.3 3.8-11.4 4.7-17 4.2zm-11.1 6.9c2.9-4.4 5.2-5.6 10.4-8.2v-0.2c0-0.3 0-1.1 0.1-1.5 0.5-2.1 4-9.1 5.2-11.5l4.7-10.6c1.6-3.9 2.9-5.7 5.6-8.6v-0.9l0.3-3.5v-1h-0.5c-0.7 0.6-4.8 5.2-5.2 5.6-4.2 5.1-9.4 12.6-13.4 18.7l-3.9 6.1c-0.8 1.3-1.5 2.7-2.1 4.2-0.6 1.4-1 2.8-1.4 4.3-0.3 2.1-0.3 4.3 0 6.4 0 0.2 0 0.3 0.1 0.4l0.1 0.3zm25.9-38.2c-0.5 0.6-1.1 1.3-1.6 1.9-1.1 1.7-1.8 3.1-2.6 5l-4.7 10.6c-1.7 3.3-3.2 6.6-4.7 9.9l-0.4 1.2c-0.2 0.9-0.1 0.7 0 1.3h3.7c2.2-0.1 4.4-0.5 6.5-1.2 1.8-0.6 3.5-1.5 4.9-2.8s2.8-2.7 4.2-4.2c-0.2-0.5-0.4-1.1-0.7-1.5l-2.2-4.1c-0.7-1.3-1.7-3.4-2-4.9-0.4-2-0.7-6.7-0.6-8.7v-2.7l0.2 0.2zm-27.6 25.6-4.9 1.9c-1.8 0.7-4 2.2-5.6 3.4 2 1.6 6.1 4.2 7.1 4.7l0.7 0.3h0.3v-0.3l0.7-4.6c0.3-1.5 1-3.6 1.5-5.1 0-0.1 0.1-0.3 0.2-0.4v0.1zm-11.6 4.3c0.8-0.7 1.7-1.3 2.6-1.9 1.1-0.8 2.3-1.4 3.5-1.9l5.6-2.1h0.6c1.5-3.4 3.4-6.6 5.4-9.6 3.2-4.9 6.7-9.5 10.4-14l2.5-3c0.2-0.2 0.3-0.5 0.3-0.9l-0.4-0.3c-1.1-0.6-3.1-1.3-4.3-1.8-0.4-0.2-0.9-0.2-1.4-0.3-4.2 3.7-5.3 4.7-9.1 9.1-11 12.6-13.3 18.3-15.3 23.4-0.3 0.8-0.6 2.4-0.4 3.3zm31.6-86.7-0.3 0.5c-3.3-2.5-6-4.8-6.8-8.7-0.8-3.1-1.3-6.2-1.8-9.3-0.4-0.9-0.7-1.7-1-2.3-0.4-1-0.9-2.7-1.4-4.5-0.6-0.8-1.3-1.5-2.2-2.1l-9.3-4.7v1.1c0 1.5 0.2 3 0.5 4.4 1.6 5.8 7.5 16.1 10.9 21.6 2 3.2 1.7 2.5 4 5.6 1 1.3 2 2.5 3.2 3.6 0.5 0.6 1.2 1.2 1.9 1.5 1.7 0.7 4 0.4 4.9-1.3v-0.3l-0.4-0.8-2.2-4.3zm-6.6-12.8 0.9 4.2c0.4 1.7 1.1 3.1 2.2 4.4 0.8 0.8 1.6 1.6 2.5 2.3-1.3-2.4-3.6-6.8-5.6-10.9zm10.4-13.2c0.2 2.8 0.5 5.6 0.8 8.4 0.5 2.5 1.1 4 2.2 6.3l4.6 10.1c0.4-3 1.2-5.9 2.3-8.7-1.6-5.6-3.2-11.1-5-16.6-0.6-0.2-1.2-0.3-1.8-0.2-1.1 0.1-2 0.4-3 0.8h-0.2l0.1-0.1zm8.9 27.4c0 1.2-0.1 2.4 0 3.6l0.2 5.3c0 1-0.4 1.4-1.4 1.5-1.3-0.5-3.3-2.8-4.2-4.1-1.2-1.6-2.5-3.6-3.5-5.4l-6.9-13.4c-1.1-2.2-2.6-5.3-3.5-7.6-0.9-2.1-3-8.2-3.5-10.4-0.4-1.5-0.6-4.1-0.6-5.6 0-0.9 0-3.5 0.1-4.4 0.2-0.9 0.5-1.6 1.2-2 0.4-0.2 0.8-0.4 1.3-0.4 1.8-0.3 3.6-0.3 5.4 0 2.7 0.2 4.3 0.5 6.5 1.2-0.5-1-0.9-2.1-1.4-3.1-2.8-0.9-5.8-1.4-8.8-1.3-6.4 0.3-12.4 2.6-17.5 6.6-5.7 4.4-10.2 9.4-14 15.5-14.6 23.6-18.2 52.7-13.1 79.7 2.8 14.5 10.4 31.1 24.1 38.9 5.7 3.1 12.5 4 18.8 2.4 6.5-1.8 12.2-5.2 17-10.1-0.7 0.7-1.5 1.3-2.3 2-3.7 3.1-7.9 5.6-12.7 6.6-4 1-7 1.7-11 1h-0.7c0-0.1-0.5-0.4-0.5-0.4-1.2-1.4-1.5-4-1.5-5.9-0.2-7.1 4.1-13 7.8-18.6 2.3-3.5 4.6-6.9 7-10.2 1.4-2.1 4.7-6.4 7.6-9.9l-1.7 1.7c-0.1 0.3-0.3 0.6-0.5 0.8l-7.4 9.1c-3.1 4.1-6.7 9.3-9.2 13.9-1.5 2.8-3.2 6.8-3.8 10l-0.6 4.6c-0.1 0.5-0.4 0.9-0.7 1.2l-0.7 0.2c-1.5-0.2-4.3-2-5.8-3.1-1.4-0.8-2.7-1.8-3.9-2.9-0.8-0.6-1.1-1.5-1.1-2.5 0.1-2.1 1.1-4.5 2.1-6.5 2.3-5.1 4.8-8.9 8.2-13.1 1.9-2.4 3.8-4.7 5.8-7l3.2-3.6c0.5-0.5 4.2-4 5.6-5.2l6.9-6.7c1.4-1.4 3-2.7 4.6-3.9 0.9-0.7 3.1-2.3 4.8-2.2-0.1 0-0.3-0.2-0.4-0.3-0.9-0.6-1.3-1.5-1.5-2.5 0-0.1 0-0.3-0.1-0.4-0.7 0.6-1.3 0.9-2.2 1-1.3 0.3-2.7 0.4-4.1 0.4-14.8-0.2-25.6 0.2-40.9 0.8-2.7 0.1-5.4 0.4-8 0.7h-0.4c-0.1 0-0.5-0.2-0.6-0.2-1-0.6-1.2-2.9-1.1-4.1l0.3-5.9 0.7-7.5c0-0.7 0.4-1.8 0.9-2.3 0.3-0.2 0.6-0.4 1-0.4h0.4v-0.2c0.2 0 0.3 0.1 0.4 0.2 2.1 0.2 6.8 0.8 7.6 0.9 3.2 0.3 6.4 0.7 9.6 1.1l19 2.7 13.1 1.8c0.6 0 1.2 0.3 1.7 0.6 0.8 0.4 2.1 1.2 2.6 2.2 0-0.3 0.2-0.7 0.4-1 0.4-0.9 0.9-1.7 1.5-2.5 0.1-0.2 0.3-0.3 0.4-0.4-0.6 0-1.2-0.2-1.8-0.7l-2.9-2.9c-2.7-2.9-7-9-9.8-12.9h0.1c-1-1.1-1.8-2.1-2.6-3.2-1.5-1.8-2.8-3.7-4-5.7-1.8-2.8-3.6-6-5.2-8.9-1.4-2.4-2.7-4.9-3.8-7.4-1.5-3.3-2.6-6.7-2.7-10.4 0-1.6 0.3-2.9 1.6-3.7 2-1.4 7-4.7 9.8-4.7l0.6 0.3 0.3 0.5c0 0.2 0.3 1.1 0.3 1.4v3.8c0 0.9 0 1.4 0.3 2.2 0.8 3.3 1.8 6.6 2.9 9.8 3 6.7 5.4 11.5 8.9 17.9l3.3 6.2 4.6 6.1c1.3 1.5 4.7 5.9 5.3 7.5l0.2 0.7c0.2 1.1-1 2.2-2 2.7-0.2 0.1-0.3 0.2-0.5 0.3 0.5 0 1.1 0 1.6 0.2 1.9 0.5 3.2 2.5 3.8 4.4 0.4 1.1 0.6 2.3 0.5 3.5v1.3l0.2-0.6c0.2-1.7 0.4-3.3 0.6-5-0.4 0.3-0.6 0.4-1.1 0.1l-0.2-0.3-0.7-1.6-1.2-2.1c-0.2-0.4-0.3-0.8-0.4-1.2l-0.8-8.1c-0.2-2-0.3-4-0.2-6 0-4.5 0.5-7.8 1.5-12-0.1-0.4-0.2-0.9-0.4-1.3-0.7 2-1.2 4-1.5 6.1-0.1 1-0.2 1.9-0.3 2.9l-0.3-0.2zm-1.5 0.2-5.6-12.3c-1-1.9-2-4.5-2.4-6.7s-0.8-6.9-0.9-9.2c0 0-0.1-0.2-0.2-0.3-0.5-1.2-1.1-2.4-1.9-3.4-2.2-2.8-6.7-6.6-9.4-9.1l-0.2 0.6c-0.3 2.9 0 6.4 0.5 9.4 1 3.5 2.2 6.9 3.5 10.2 1.7 4.2 7.5 15.3 10.4 20.8 1.6 2.9 3.8 6.2 6.3 8.5l-0.2-5v-3.5h0.1zm-49.9 30.6c-0.2-1.8-0.2-3.7-0.1-5.5 0.1-1.3 0.6-3.2 1-4.6-4.2-0.4-6.8-1.5-10.3-3.9h-0.3l-0.2 0.3c-0.1 0.3-0.2 0.7-0.3 1-0.6 4-0.8 9.3-1 13.4 0 0.8 0 1.7 0.3 2.5 1.8-0.9 3.6-1.6 5.4-2.3 1.3-0.4 3.4-0.8 4.7-0.8 0.2 0 0.5 0 0.8-0.1zm2.4-10c-0.5 1.5-0.9 3-1.1 4.6 0 1.8 0 3.6 0.1 5.4 2.5 0 5.6 0.1 7.4 0.2h17c0.4 0 0.7 0 1-0.1l0.2-0.6c0.3-1.3 0.5-2.7 0.5-4.1v-1.2c-0.2-0.3-0.4-0.5-0.6-0.7-0.6-0.4-1.2-0.6-1.9-0.7l-2.4-0.5c-5.4-0.9-14.7-1.7-20.4-2.2l0.2-0.1zm50.8 14.3c-0.3 0.4-0.7 0.7-1.1 1-0.9 0.7-1.9 0.9-2.8 0.8h0.2l0.7 0.4c0.8 1 0.2 2.3-0.1 3.3-1.9 2.6-3.9 4.9-5.9 7.2 0.5-0.5 0.9-0.9 1.3-1.2 0.1 0 0.5-0.3 0.8-0.3h0.8c1.3 0 1.5 1.6 1.3 2.6-0.6 5-0.6 10.1-0.2 15.1l0.3 2.4c0.1 0.6 0.3 1.2 0.6 1.7 1.5 3.2 2.1 4.2 3.5 6.8 0.4 0.7 0.8 1.5 1 2.3 0.2 0.9 0.1 1.8-0.2 2.7 5.7-7.5 9.9-16.2 12.8-25.2-0.6 0.5-1.2 0.9-1.6 0.9-0.8 0.2-1.6-0.7-2.1-1.3-1-1.1-2.3-2.6-3.2-3.8-0.7-0.9-1.2-2-1.5-3.1-0.7-2.5-1.2-5-1.7-7.6v2.6c0 1.6 0.2 3.2 0.5 4.8 0.2 1.1 0.6 2.2 1.1 3.2 0.8 1.3 1.2 1.6 2.2 2.8l3.3 4.1c0.9 1.2 0.6 2.3 0.2 3.6-0.8 2.5-3.3 7.3-5.2 10.1l-2.2 3.3-0.4 0.4h-0.6c0 0.1-0.5 0-0.5 0l-0.5-0.6c-0.3-0.4-2.9-4.7-3.1-5.1-1.8-3.3-2.4-7.3-2.2-11l0.2-8.1c0-3.3 0.8-6.5 2.3-9.4l2.1-4.9c0-0.2 0.2-0.4 0.3-0.5h-0.4zm-6.9-2.1 0.3 1.1c0.5 0.9 1.8 1.4 2.8 1.5 2.5 0.2 4.1-3.3 4.7-5 0.9-2.9 0.5-6.1-1.4-8.5-1.3-1.5-3.6-1.2-4.9 0-0.5 0.7-0.9 1.3-1.3 2.1-0.2 0.6-0.4 1.1-0.4 1.8-0.4 2.8-0.5 4.4 0.2 7.1v-0.1zm12-21.3c0 0.1-0.7 3.6-0.7 3.6l-0.6 3.9v2.7c0.3-3.2 0.8-6.4 1.4-9.7 0-0.2 0-0.3-0.1-0.5zm-3.9-16.3c-0.1 0.7-0.3 1.5-0.4 2.2-1.1 8.1-0.3 12.3 0.5 20.6 0 0.2 0 0.5 0.2 0.7l0.8 1.4v-1.3c0.2-1.4 1-6.2 1.4-7.6l0.8-2.6v-0.1c-1-4.4-2.1-8.9-3.3-13.3zm0 118.9c4.2-0.8 7.9-2.7 11.3-5.4 3.5-2.9 6.1-5.2 9-8.7 4.8-5.6 9.1-11.6 13-17.8-2.1-0.5-4.3-1.3-6-2-2.5-1.1-5-2.3-7.3-3.7-0.8-0.5-1.5-1-2.1-1.6l-1.6 3.2c-5.3 10.8-13.5 21.5-23.6 28.4-4 2.7-8.5 4.8-13.1 6-2.9 0.8-5.9 1.1-8.9 1 3.8 0.9 7.4 1.2 11.5 1.1 5.5 0 11.1 0 16.6-0.4h1.3l-0.1-0.1zm34.8-31.7c-4 6.5-8.4 12.6-13.3 18.4-2.8 3.2-5.9 6.2-9.2 8.9-2.1 1.7-4.3 3.1-6.8 4.2l8.9-0.3h1c2.9-1 5.6-2.5 7.9-4.5 3-2.5 5.5-4.9 7.9-7.9 4.5-5.6 8.6-11.7 12.1-18-2.6-0.1-5.2-0.3-7.2-0.6-0.4 0-0.8-0.1-1.3-0.2zm-58.3-124.1 4.3 3.9c3 2.5 5.6 5.2 7.1 8.8h0.2c1.5-0.6 3-1 4.6-0.7-1-3.1-2.2-6.2-3.4-9.2-0.2-0.4-0.3-0.8-0.5-1.2-1-0.4-2.1-0.7-3.1-1-0.7-0.1-6.4-1.1-9.1-0.6h-0.1zm2.7-15.6h-0.8c-3.3 0.5-7.7 1.8-11 3.1s-6.4 2.9-9.4 4.8c-3.1 2.1-6 4.3-8.8 6.7-2.1 2.4-4.1 5.1-5.9 8-3.2 5.1-5.9 10.4-8.2 15.9v0.1c-0.3 0.7-0.6 1.4-0.9 2.1-0.6 1.6-1.2 3.1-1.8 4.7v0.4h-0.1c-1.2 3.4-2.2 6.8-3.1 10.4-6.8 27.5-6.4 60.7 6.8 86.6 1.5 2.7 2.9 5.1 4.6 7.6 2.4 3.5 5.2 6.7 8.4 9.5 4 3.6 7.2 5.2 12.1 7.2 0.6 0.3 1.1 0.5 1.7 0.8 14.6 4.3 28.8-3.3 38.5-13.7 5.4-5.9 10-12.5 13.6-19.7l1.9-3.8c-1-1.5-1.5-3.4-1.6-5.4-0.1-1.8-0.4-3.7-0.7-5.5l-1.7-6.9c-1.6 4.7-3.2 8.8-5.7 13.7-3.3 6.7-7.7 12.9-13 18.2-4.7 4.9-11 8.7-17.6 10.5-13.6 3.6-26.2-4.1-33.5-15.1-5.5-8.2-9.3-17.5-11.2-27.2-3.6-18.3-2.9-37.2 2.1-55.2 2.5-9 6.2-17.6 11.1-25.5 3.8-6.1 8.6-11.5 14.3-15.9 7.4-5.8 17.2-8.4 26.3-5.9-0.1-0.3-0.3-0.6-0.5-0.9-1.7-3.2-3.7-6.6-6-9.7l0.1 0.1zm-23.6 7.9c0.6-0.4 1.1-0.8 1.7-1.2 5.2-3.4 11.4-6 17.4-7.4 1.2-0.3 2.3-0.5 3.5-0.7-0.5-0.7-1.1-1.3-1.6-1.9-7.5 1.6-14.2 5-19.9 10.2-0.4 0.3-0.7 0.6-1.1 1zm51.6-27.8c-0.6 0.2-1.3 0.3-1.9 0.5-4.6 1.3-12.2 5.3-16.6 8.1-0.6 0.4-4 2.6-5.3 3.8 2.1 2.7 4.1 5.6 5.8 8.6 2.2 3.7 4.1 7.6 5.7 11.6 2.6 6.9 4.9 13.9 6.9 21.1 2.7 9.5 5.4 20.2 7.5 29.9 4 18.4 7.9 39.3 10.9 57.8l0.7 4.2v0.4c3.5 0 6.9-0.5 10.1-1.5 3.9-1.3 7.9-2.7 11.7-4.3l0.5-0.2s0.1 0 0.2-0.1v-0.3c0.2-0.2 0-1.3 0-1.7-2.8-32.7-12.3-82-24.4-113.8-1.5-3.9-3.2-7.7-5-11.4-2.2-4.5-3.7-7-6.3-11.3-0.2-0.4-0.4-0.8-0.7-1.1l0.2-0.3zm-28.1 17.3c0.3-0.7 2.4-4.8 2.5-5-3.3-4.2-7.3-8.1-11.6-10.1-2-1-3.9-1.5-6.1-1.7-2.2 0-4.3 0.3-6.3 1.1-1.9 0.8-3.6 1.8-5.1 3.1s-2.9 2.8-4.1 4.5c-2 2.9-4.5 8.4-6 11.6-3.8 8.1-6 16.2-6.9 25.1v0.6c1.1-5.2 2.4-10.4 4.1-15.4 2-6.6 5.4-13.6 10.6-18.4 2.8-2.6 6.3-4.8 10.2-5.3 5.7-1.2 11 2 15 5.8 1.3 1.2 2.5 2.4 3.6 3.8 0.1 0.1 0.2 0.3 0.3 0.4l-0.2-0.1zm3.4-6.1s0.1 0 0.2-0.1c5-3.8 8.6-5.8 14-8.7 2.3-1.2 5.7-2.7 8.3-3.4l1.5-0.3c-2.9-4.5-6.2-8.6-10.5-12.1-1.7-1.4-3.7-2.3-5.8-2.9-4-0.9-9-0.8-13.2 0.2-2.7 0.7-4.8 1.6-7.2 3-10.7 6.2-16.9 12.1-23.5 22.7-2.6 4.1-4.1 7.1-5.9 11.5-2.2 5.2-3.7 9.5-5.1 15-1.6 6.9-2.3 16.3-2.7 24.7 0-0.2 0.1-0.3 0.2-0.5 0.2-4.9 0.6-9.8 1.2-14.7 0.9-8.7 3.3-17.6 7.1-25.5l2.8-5.8c0.9-1.9 2.1-4.2 3.4-6 3.7-5.3 10-9.7 16.7-9.3 2.2 0.1 4.7 0.9 6.7 1.9 2 0.9 3.9 2.1 5.6 3.6 2.3 2 4.3 4.1 6.2 6.5l0.2 0.2h-0.2zm-45.3-41.3h0.4c1.8-0.3 2.1-0.5 3.4-0.9 0-0.1 0-0.3-0.1-0.4-1.1 0.4-2.4 0.9-3.7 1.3zm9.7-74.2c0.2 0.7 0.4 1.5 0.5 2.3 0.5 2.7 1.3 7.1 1.6 9.8l1.6 14.1 1.8 17.8 2.5 22.9 1.6-0.3c-0.8-9.6-3.4-30.2-5-42.8-0.7-5.3-2.6-18.6-3.9-22.5 0 0-0.4-0.5-0.8-1.2l0.1-0.1zm-86 88.9c-1.9 0.1-3.9 0.3-5.8 0.5-15.5 1.9-17.3 2.2-29.1 3.8-2.7 0.4-5.4 0.9-8.1 1.6-0.2 0.1-0.4 0.3-0.6 0.4l-11.3 5.7c-1.3 0.8-2.6 1.6-3.9 2.5 4.1-0.6 8.2-0.9 11.9-1.1 8.7-0.4 17.4-0.5 26.2-0.2 2.3 0 4.7 0.2 7 0.3 0-0.1 0.1-0.2 0.2-0.3l2.9-3.6c1.3-1.6 3.6-3.9 5.2-5.3 2.8-2.6 3.7-3.3 5.6-4.4l-0.2 0.1zm-12.5 15.1 0.5 2.7c7.3 1.1 14.8 2.5 21.8 4.1 6.1 1.3 13.2 3.4 18.9 5.8 4.1 1.8 8.1 4.8 10.9 8.3 1.4 1.7 2.2 3.8 2.3 5.9 0.2 1.9 0.2 3.9 0.2 5.8-0.2 9.2-0.6 18.4-1 27.6-0.2 8.3-0.7 16.6-1.4 24.9-0.3 4.4-1.5 9.4-3.5 13.5-0.8 1.6-2.3 3.3-3.8 4.3-1.3 0.9-3.1 1.8-4.7 2.2-5.5 1.7-12.2 3.2-17.9 4.1-5 0.9-11.1 1.7-16.3 2.1v0.1l-0.9 4.3c12.7-0.1 13.3-0.3 26-0.8 4.9-0.2 8.5-0.5 13.3-1.3 0.9-0.2 1.8-0.5 2.7-0.9 0.7-0.3 1.4-0.8 1.9-1.5 1-1.3 1.7-2.7 2.1-4.3 0.8-3.1 1.2-5.1 1.5-8.3 1.2-13 2.4-26 3.4-39 0.8-8.2 1.6-16.3 2.3-24.5 0.6-5.8 1.3-15.1-1.6-21-1.2-2.1-3.4-3.4-5.6-4.4-4.7-2.3-9.2-3.9-14.3-5-8.6-1.9-14.4-2.7-23.1-3.8-4.8-0.6-9.3-1-13.7-1.3v0.4zm0.5 4.2c0 0.9-0.1 1.9-0.2 2.2-0.9 6-1.6 12.1-2 18.1-0.3 9.5-0.5 22 0.1 31.7 0.5 6.1 1.6 18.5 2.5 24.8 1.2 8.2 2.8 16.3 4.6 24.3l0.8 4.7c11.3-1 22.7-2.8 33.6-6.2 1.5-0.5 3-1.2 4.3-2.1 1.4-1 2.5-2.3 3.3-3.8 2-4.2 3-8.3 3.3-12.9 0.7-8.3 1.2-16.6 1.4-24.9 0.4-9.2 0.8-18.4 1-27.6 0-2.2 0-3.5-0.2-5.7-0.1-1.9-0.8-3.6-2-5.1-2.8-3.4-6.3-6.1-10.3-7.9-6.4-2.7-11.9-4.3-18.7-5.8-8.2-1.8-12.4-2.7-20.7-4-0.3 0-0.6 0-0.9-0.1l0.1 0.3zm8.8 135.7-5.4-22.3c-11 0.1-22.1-0.1-33.1-0.7l-4 0.2 5.5 22.8h1.9 19.1 16zm-5.5-23.8v-0.2l0.8-4.1c-5.7 0.4-11.4 1-17 1.7-4.4 0.6-8.7 1.3-13.1 2 9.7 0.4 19.5 0.6 29.2 0.5l0.1 0.1zm1.1-5.8-0.8-4.6c-2.7-11.7-4.9-24.2-5.9-36-1.1-10.6-1.7-18.2-1.6-28 0-13.9 0.3-23.1 2.3-35.6 0-0.7 0.1-1.5 0.2-2.2-4.3-0.6-8.5-1-12.9-1.4l-27.8-2.1v-0.3c-2.2 0.2-4.4 0.5-6.7 0.9-3.2 9.3-5.3 21-5.7 30.8h-0.2c3.5 8 7 24.2 8.8 32.2l4.2 19.6 7.6 31.8c14.6-2.7 23.9-4.1 38.4-5.2l0.1 0.1zm-5.8-107.8-0.5-2.7c-10.8-0.7-20.8-0.7-32.1-0.2l19.8 1.5c4.2 0.3 8.5 0.8 12.8 1.4zm79.2 138.7c-5.6-0.3-11.2-0.4-16.8-0.3-21.7 0.3-46.4 0.4-68.1 0.2h-19.1-2.2c-2.8 3.4-4.6 5.4-8.4 7.9l-0.4 0.2c10.6 1.6 50.8-0.6 60.6-1.1 14.8-0.8 33.3-1.3 48.4 1.4 2.2 0.4 6.1 1.3 8.9 1.9-1.2-3.4-2.2-6.8-2.9-10.2zm9-87.2c1.9-4.1 4.1-8.2 6.5-12 3.7-5.9 8.4-11.5 13.6-16.1 5.6-5.1 12.4-8.7 19.8-10.3-1.7-1.7-3.5-3.3-5.5-4.6-1.5-1-3.2-1.7-5-2.1-2.6-0.6-6.5 0.1-8.9 1.3-1.9 1-3.6 2.2-5.1 3.6-2.1 2-3.9 4.2-5.4 6.7-4.8 8.2-8.6 22.6-10 33.5zm528.3 85.1-0.4 0.3c-1.4-1.6-2.3-3.5-2.6-5.6-0.3-2.7-0.4-7.9-0.2-10.6l2.4-19c0.8-6.6 1.4-13.2 1.9-19.9h0.3v-0.3-0.2c0.2-3.8 0.1-7.7 0-11.5l-0.2 0.1-1.4-2.5c-0.7-0.8-2.5-1-3.7-0.9l-22.4 0.8c-6.3 0.2-18.4 0.5-24.7 0.4h-4.1c-1.6-0.1-3-0.5-4-1.6-1.7-1.7-3.5-3.5-5.3-5.2-1.5-1.3-3.2-2.2-5.1-2.6-2.4-0.4-4.2-0.5-6.6-0.4l-135.1 0.9c-16.5 0.1-32 0.4-48.6 0.8l-5.1 0.2c-2.2 0-3.5 0-5.6 0.6-1.2 0.5-2 1-3.1 1.7-3.9 2.6-7.8 5.2-12.7 5.5-2.2 0.1-20.6 0.1-22.9 0.1-33.3-0.7-28.5-0.3-61.8-0.4-6.4 0-9.1 0.2-15.4 1-2.4 0.3-4.4 1-6.3 2.5-2.1 1.8-3.9 3.9-5.3 6.2-2 3.4-3.8 6.9-5.2 10.6-2.2 5.5-5.6 16.5-7.1 22.4-0.6 2.5-0.9 5-0.8 7.5 0 2.1 0.5 4.3 1.3 6.3 0.9 2.5 2 4.9 3.3 7.2l3.8 7v0.6c0 1.1-1.3 1.2-2 1.2l-14.5-1.7c-0.3 0.3-0.7 0.5-1.1 0.7-2.4 1.1-9.3 3.5-11.9 4.3-2 0.6-5.1 1.3-7.8 1.5 0.8 0.3 1.6 0.5 2.4 0.6 5.5 0.8 9.9 1.1 15.4 1.2 10 0.2 20 0.3 30 0.3 22.6 0 45.2 0.1 67.8 0 4.1 0.1 7.2 0 11.2-1.1 2.4-0.7 9.8-2.8 12.2-3.3 3.2-0.7 7.5-1.1 10.9-1l67 0.4c22.1 0 39-0.3 61.1-0.9l60.4-1.4 35.1-0.5 14.3-0.4c2.2 0 5.1 0.1 7.3 0.4l7.7 1.1c1.6 0.3 4.5 1 6 1.4 2.3 0.6 4.7 1 7.2 1.3 8.1 0.5 16.3-0.5 24.4-1.2 1.6-0.1 2.9-0.3 4.4-0.8-1.2-1-3.5-3-4.7-4.3l-0.1 0.2zm2.3-51.2c-1.1 13.7-2.2 20.9-4 35.6-0.2 3.4-0.1 6.9 0.2 10.3 0.2 1.4 0.7 2.7 1.4 3.8 2.5-8.1 4-16.2 4.5-24.7 0.5-8.4-0.2-16.7-2.1-24.9v-0.1zm-472.6 0.9c-0.6 0-1.2 0-1.7 0.2-0.5 0.1-0.9 0.4-1.2 0.7-0.6 0.8-0.8 2.1-0.6 3.1l0.3 1.3 1.8 1.8c0.2 0.1 0.4 0.3 0.6 0.4h0.4c1.1-0.4 2.9-1.3 3.7-2.3v-0.1c-0.2-0.5-0.4-0.9-0.6-1.4-0.4-0.6-1.4-2-2.7-3.7zm-5 3.3v-0.6c0-1.8 1.1-3.6 3-4 0.3 0 0.7-0.1 1-0.2-1.4-1.8-2.9-3.8-4.1-5.4-0.3 0.5-0.7 0.9-1.2 1.3-0.7 0.5-1.6 0.9-2.6 0.9-0.9 0-1.7 0-2.5-0.3l3.2 4.4 3.2 3.9zm-26-48.9 9.3 4.7c0.2 0.1 0.4 0.3 0.6 0.4-0.3-1-0.5-2-0.7-2.6-0.2-0.8-0.3-1.7-0.2-2.6v-3.6l-0.2-0.6v-0.2c-1.3 0.3-2.5 0.8-3.7 1.4l-4.9 3-0.2 0.1zm15.6 70.7c1.2 1 1.7 2.6 1.4 4.1-0.2 2.2-1.4 4.2-2.9 5.9l-4.8 5.5c-4.5 4.7-8.9 9.6-13.2 14.6-2.2 2.9-4.9 6.9-6.1 10.5l-1.2 4.2c-0.4 1.1-1.3 2.6-2.7 2.3-1.6-0.4-2.5-1.2-3.5-2.3-5.7-6.2-9.6-18.7-11.3-26.2-1.1-4.7-1.5-8.2-1.9-13.2-0.1-1.2 0-2.8 0.7-3.9 0.5-0.9 1.6-1.1 2.5-1.2l7.9-0.9c0.8 0 24.9-0.7 25.6-0.7h5.8c0.6 0 1.2 0.1 1.8 0.3s1.2 0.6 1.7 1h0.2zm-23.7 33.7c-6.5-12.8-7.4-21.8-7.6-26.4l-0.7 0.3c-1.2 0.6-2.5 0.6-3.6 0l-5.1-2.8c-1.2-0.5-2.5-0.9-3.9-1.2 0 0.5-0.1 0.9 0 1.5 0.5 8.3 2.2 16 4.8 23.8 1.1 3.2 2.4 6.2 4 9.2 1.1 2.1 2.5 4 4 5.8l1 1c0.3 0.3 0.7 0.6 1.1 0.7l0.6 0.2c0.3 0 0.5-0.2 0.7-0.5l0.4-0.9 1.2-4.2c0.5-1.5 1.3-3.4 2.2-4.8 0.3-0.5 0.6-1.1 1-1.7h-0.1zm-6.2-26.9c0.1 2.6 0.4 5.3 0.9 7.9 0.7 3.5 1.7 6.9 3 10.3 1 2.5 2 5 3.2 7.4 0.7-1.1 1.5-2.2 2.2-3.1 3-3.7 9.9-11.2 13.2-14.6l4.6-5.3c0.6-4.9 0.6-5.6 0.5-6 0-0.1 0-0.2-0.1-0.3s-0.6-0.2-0.8-0.2c-6.3-0.2-16.8 1-23.2 2.8l-3.5 1.1zm-14.3-4.6c1.4 0.3 3 0.8 4.1 1.3l5.1 2.8c0.4 0.2 0.7 0.3 1.2 0.3s0.7-0.2 1.2-0.4l5.8-2c3.2-0.9 6.5-1.5 9.8-1.9 3-0.4 5.9-0.7 8.9-0.8 1.7-0.1 5.2-0.3 6.5 0.3 0.7 0.7 0.8 1.1 0.8 2.1 0 0.7-0.1 1.8-0.3 3 0.1-0.2 0.3-0.5 0.4-0.7 0.4-0.9 0.8-2.7 0.5-3.8-0.5-1.5-2.1-2.2-3.5-2.3h-5.8c-8.5 0.2-17 0.4-25.6 0.7l-7.6 0.9-1.4 0.3s-0.2 0.1-0.3 0.2h0.2zm27.6-60.2c1.2 3.4 3.5 7.6 5.5 10.8l4.9 7.6 4.7 6.8 3.6 4.6c1.2 1.5 2.2 3.3 2.1 5.4 0 1.7-1.1 3.3-2.6 4.1-0.8 0.5-1.6 0.7-2.5 0.8-1.7 0.2-3.4 0.1-5.2-0.1l-33.6-4.6-1.2-0.2c-1.8-0.4-2.8-1.9-2.7-3.5 0-1.5 0.3-3.1 0.7-4.6 0.6-2.2 1.3-4.5 2.1-6.6 3-8.9 6.2-16.1 11.8-23.6l4-5.1c0.9-1.1 2-2.2 3.1-3.1 0.6-0.5 1.6-0.7 2.2 0l0.5 0.6c0.2 0.3 0.5 1.1 0.5 1.5l0.9 5.1 1.2 4.1zm1.2 6.3c-1 1-1.9 2-2.8 3.1-1.5 1.9-2.7 4-3.7 6.2-1.4 3-2.6 6-3.7 9.1-0.6 2.1-1.2 4.1-1.7 6.3 0.2 0 0.4 0.2 0.6 0.3 2.1 0.9 4.2 1.6 6.3 2.2 3.8 1 12.9 2.9 17.5 3.5 0.4 0 0.8 0 1.2-0.1 0.3 0 0.6-0.3 0.8-0.5l1.9-1.9 1.1-1.6c-0.9-1.9-3.5-4.8-4.9-6.6-1.5-2.1-7.1-10.5-9.6-14.4-1.1-1.7-2.1-3.5-3.1-5.3l0.1-0.3zm-13.3 24.4c1.7-7.1 5-16.3 9.4-22.1 1-1.3 2-2.5 3.2-3.6-1.5-2.9-2.4-5.6-3.1-8.9l-0.8-5c0-0.4-0.2-0.8-0.4-1.1l-0.3-0.3h-0.2c-1.1 0.9-2.1 1.9-2.9 2.9l-4 5.1c-1.5 2-2.9 4.1-4.2 6.2-1.6 2.8-3 5.7-4.3 8.6-1.6 3.9-5.6 14-5.9 19.2v0.3l1.5-0.9c0.6-0.3 1.8-0.6 2.4-0.7 2.1-0.2 7 0.1 9.1 0.3h0.5zm-13 2.7c0.3 0.2 0.5 0.3 0.8 0.4l23 3.2 11.9 1.6c2.2 0.3 6.5 0.7 8-1.7 0.3-0.5 0.5-1.1 0.6-1.8v-0.6l-0.5 0.7-2 2c-0.7 0.7-2 1.1-3.1 1-1.6-0.1-5.7-0.9-7.3-1.2-4.4-0.8-12.4-2.5-17-4.6-1.6-0.7-8.6-0.8-10.9-0.7-0.6 0-1.2 0.3-1.8 0.5l-1.7 1v0.2zm87-71c-1.1-2.1-1.1-3.4 0.3-5.3 2.6-3.4 8.1-8.7 11.4-11.5 4.1-3.5 8.4-6.9 14.1-7 5.8-0.4 12.2-0.6 18.1-0.5 27 0.8 53.9 2.1 80.8 3.9h0.1c0.5 0.1 0.9 0.6 0.8 1.1l-0.2 0.7c-0.6 1.5-1 3.1-1.2 4.7-0.3 2.6-0.3 5.3 0.2 7.9s1.3 5.2 2.4 7.6l3.9 8.9c1.2 2.5 2.4 4.9 3.8 7.3l2 3.3-3.7-0.2-40.3-3-34.9-2.4c-7.2-0.6-22.7-2.1-29.8-2.9-4.7-0.5-9.4-1-14-1.7-1.6-0.2-3.1-0.6-4.5-1.2l-2.3-1.2c-1-0.6-3-2.7-3.8-3.5-1.2-1.4-2.3-3.3-3.1-5h-0.1zm9.8 8.4c1.3 0.5 2.7 0.9 4.1 1 14.9 1.9 29 3.3 43.8 4.6l61 4.3 15.1 1.1c-1.7-2.7-3.1-5.5-4.4-8.4l-3.9-8.9c-2.8-6.4-4.1-14.4-1.4-21.1h-0.7c-26.5-1.8-53-3-79.5-3.9-9.1-0.2-8.8 0.1-17.9 0.5-2.4 0.1-4.3 0.5-6.5 1.7-4.8 2.9-9.8 7.3-13.8 11.6l-4.2 4.7-0.6 0.8c-0.1 0.2-0.2 0.4-0.2 0.6 0.1 2.1 2.1 5.2 3.5 7 1 1.2 2.2 2.3 3.4 3.3l2.1 1.2 0.1-0.1zm105.4-17.4 1.6-3.2 1.7-4.3c-1.4 0-5.2-0.1-5.4-0.1v-1.4l6 0.1c0.7 0 1.2 0.6 0.9 1.4l-2 4.9-1.8 3.5c0 0.1 0.2 0.3 0.2 0.4l1 3.8 0.7 3.2 1.3 3.8 0.2 1.1c0 0.5 0 1-0.1 1.5 0 0.1 0 0.3-0.1 0.4l6.4 7.6c0.1 0.2 1.1 1.5 1.2 1.7 0.2 0.5-0.2 1-0.7 1.1-0.3 0-6.3-1-6.9-1.1l0.2-1.4 5.3 0.9-0.2-0.2-6.3-7.5c-1.3 0.5-3.1 0.3-4.2 0.3l-4.5-0.2c-4.8-0.3-31.8-2.5-34.3-2.7-3.5-0.2-7.3-0.7-9.7-3.5l-0.6-0.8c-0.2-0.3-0.3-0.8-0.2-1.1 0.1-0.4 0.8-1.3 1.1-1.7 1.5-1.7 3.1-3.2 4.9-4.7 1.8-1.6 4.2-2.1 6.6-2.1 5.5-0.1 11.1 0 16.6 0h17.4c1 0 2 0 2.9 0.2 0.2 0 0.4 0 0.6 0.1h0.2zm0.2 2.1-3.6 2.9-0.9-1.1 3.3-2.6c-0.8-0.2-1.9-0.2-2.4-0.2h-17.4c-6.5-0.2-10.1-0.2-16.6 0-1.1 0-2 0.1-3 0.3-1 0.3-1.8 0.7-2.6 1.4-1.9 1.7-3 2.7-4.7 4.5-0.1 0.2-0.3 0.3-0.4 0.5l3.5-0.7 0.3 1.4-3.6 0.8c0.7 0.8 1.5 1.4 2.6 1.8 1.8 0.6 3.3 0.8 5.2 1l5.9 0.6 29.1 2.2c0.7 0 5.2 0.2 7 0.2l-3.9-2.6 0.8-1.2 4.5 3v-0.6l-0.2-1-1.3-3.8c-0.4-2.1-0.9-4.2-1.4-6.2 0-0.1 0-0.2-0.1-0.4l-0.1-0.2zm-83.3 7.9c0.3-0.6 0.5-1.2 0.7-1.8 0.1-0.5 0.3-1.5 0.2-2.1l-13-0.7h-4.5c-0.4-0.2-0.9-0.4-1.1-0.9-0.2-0.4 0-0.9 0.2-1.3l0.8-1 3.1-3 0.5-0.3h17.7c0.4-0.6 0.7-1.2 0.9-1.9 0-0.3 0-0.5-0.2-0.7h-0.2c-5.1 0-11.9-0.3-17.3-0.5v-1.4l13 0.5h4.6l0.8 0.3c0.5 0.6 0.9 1.4 0.6 2.3-0.2 0.8-0.9 2.8-2.2 3h-17.4c-0.5 0.4-2.6 2.7-3.4 3.5h4l13.2 0.8c0.4 0 0.6 0.3 0.9 0.5l0.2 0.5v0.3c0.2 1.8-0.3 3.2-1 4.8l-0.5 0.5-0.8 0.2h-0.6l-14.8-1c1.1 1.2 3 3.2 3.1 3.2l-1 1-4-4.2c-0.5-0.6-0.3-1.1 0.4-1.5h0.9l15.5 0.9h0.7zm94.5 61.3c0.5 0.8 0.7 1.8 0.5 2.9-0.4 2.7-3.1 8.7-4.5 11.5-2.2 4.4-4.5 8.8-7 13.1-2.2 4-4.5 7.9-6.9 11.8-2 3.3-3.9 6.2-6.3 8.8l4.1 1.4c4.6 1.7 7.5 2.7 12.3 3.7 9.3 1.8 18.7 3.4 28 4.8-1.4-1.1-2.8-2.8-3.6-4.2-1.2-2.1-2.3-4.3-3.2-6.5l-1-2.8c-0.4-1.1 0-2.2 0.2-3.3 0.5-2.2 1.7-6.5 2.4-8.7 2.4-7.7 4.8-12.9 9-19.7 2.5-4.7 6.1-7.7 11.1-8.7 3.2-0.8 6.9-1.4 10.2-1.6 4.7-0.3 10.7-0.4 15.5-0.3 27.6-0.5 40.3-0.8 64.7-1.4 12.5-0.3 25.8-0.4 38.2-0.2l79.4 1.3 3.9 0.2c1.5 0 3.1 0.2 4.5 0.6 2.6 0.6 4.5 2.2 5.8 4.4 2.5 3.6 4.3 9.7 5.3 14.3s1.9 9.3 2.6 14c0.9 3.5 0.8 5.5-0.4 8.8l-1.8 5.8c-0.4 1.3-1.5 4-2.2 5.2l-0.4 0.5c1.7 0.4 3.4 0.7 5.2 0.8 2.9 0 5.8 0 8.7-0.5 2-0.3 4-0.9 5.9-1.7l3-1.5c-0.8-1-1.5-2.1-2-3.5-0.8-2.1-1.4-4.2-1.9-6.4l-0.6-2.1c-1-4.2-2.2-9.7-2.9-13.9-1.5-7-2.7-14-3.7-21.1-0.3-1.7-0.4-3.6 0-5.2-2-1-4-1.9-6-2.8l-6.7-2.6c-0.4-0.2-0.8-0.4-0.7-0.9 0-0.3 0.3-0.6 0.5-0.7l1.9-0.3 28.4-1.2c6-0.3 15-0.5 20.7 0 2.3 0.2 3.9 1.3 4.2 3.7v2.4c0.3 9.3-2.4 29-4.3 40.3-0.6 5.4-0.4 6.1-0.4 11.5 0 1-0.1 4.1-0.5 4.8l-0.3 0.4c-0.3 0.4-1.7 0.7-2.4 0.8-2 0.4-6.4 0.8-8.5 0.9-2.6 0.2-5.2 0-7.8-0.4-2.4-0.4-4.5-1.3-6.1-2.7l-3.4 1.8c-1.7 0.8-4.4 1.6-6.3 1.9-2.5 0.4-6.4 0.6-8.9 0.5-1.9 0-4.2-0.5-6.1-1-1.1 0.9-3.1 1.3-4.5 1.3l-10.3 0.4-103 1.7-46.7 0.3c-9.5 0-55.9 0-65.4-0.4l-3.9-0.3h-0.6c-6.7-0.2-13.4-0.2-20.1 0l-32.8 1.5c-9.1 0.4-32 0.9-41.1 0.7l-7.2-0.3-3.7-0.5c-4.2-0.7-7.9-4.3-9.8-8.1-1.4-3-2.4-6.3-2.9-9.6-1-6.2-0.7-11 0.9-17.1 2.2-8.6 5.5-16.9 9.9-24.7 1.3-2.3 3-4.4 5.1-6.1 1-0.9 2.3-1.5 3.6-1.8 2-0.6 4.1-0.8 6.2-0.8 6.6-0.2 13.3-0.4 19.9-0.4 11-0.2 22.1-0.2 33.1 0 14 0.1 26.3 0.4 40.4 0.9l-1.6 1.2c-1.5 1.1-3.2 2-5.1 2.4-2.5 0.6-7.1 1.2-9.6 1.4-3.4 0.5-6.7 1-10.1 1.6l-0.1-0.3zm305.1 16.8c-4.2 0.2-27.5 0.9-28.2 1v-1.4c-0.1 0 17.5-2.1 17.5-2.1 2.9-0.3 4.8-0.6 7.6-1.3l0.6-0.3v-0.1-0.6c0.1 0 0.1-0.6 0.1-0.6 0-0.9-0.2-4.5-0.9-5.1-0.2-0.1-0.4-0.2-0.7-0.2l-13.8-1.2c-2.5-0.2-5.6-0.8-8-1.4h-0.8c-0.5-0.1-1.4-0.4-1.8-0.6l-0.3-0.3-0.2-0.4v-0.5l0.5-0.4 0.3-0.2c2.2-1 7-2.2 9.4-2.5 3-0.4 9.2-0.8 12.2-0.8h1.9c0.9 0.2 1.6 0.3 2.2 0.9 0.7 0.6 1.4 1.3 2.1 2 1.1 1.2 1.8 2.8 2 4.5 0.2 1.8 0.2 3.6 0 5.4-0.5 5.9-4.6 38.9-5.7 40.3-0.7 0.3-4.3 0.7-5.2 0.8-2 0.3-5 0.2-7-0.4-1.6-0.5-3.8-1.7-5.7-2.8 0.7 1 1.6 1.8 2.7 2.2 1.8 0.7 3.7 1.1 5.7 1.1 2.7 0 5.5 0 8.2-0.2h1.3c0.3-0.2 0.7-0.3 0.9-0.5 0.3-0.2 0.5-0.5 0.6-0.9l0.5-1.4c2.3-9.8 4.7-28.8 5.8-41l0.2-4.4-0.2-2.3c0-0.8-0.4-1.5-0.8-2.1-0.3-0.3-0.7-0.5-1.1-0.6l-1.8-0.3c-7.3-0.5-14.6-0.8-21.8-0.8h-3.5c-1.3 0.2-4.5 0.5-5.8 1.8-0.6 0.6-0.9 1.4-1 2.2-0.1 1.2 0 2.3 0.1 3.5 0.7 5.3 1.6 10.5 2.6 15.7 0.8-1.4 1.6-1.7 3.9-1.7l21 0.2c0.6 0 2.9 0.1 3.8 0.3l0.3-2.5h0.3zm-14.5-13 10.9 0.9c1.1 0.1 2 0.7 2.2 1.7 0.4 1.6 0.8 4.1 0.6 5.7v0.5c-0.1 0 1 1.5 1 1.5 0.1-1.2 0.4-3.8 0.4-3.8 0.2-1.8 0.2-3.2 0-5-0.3-0.5-0.7-1-1.1-1.4l-0.3-0.2c-0.5-0.1-1.3-0.2-1.9-0.2-1.5 0-6.9 0-11.8 0.1v0.2zm12.7 10.2c-0.3 0.2-0.5 0.3-0.8 0.4-1.7 0.6-6.1 1.2-8 1.3h-0.4l10.2-0.3c-0.3-0.4-0.7-1-1-1.4zm-375.1 0.4c0.1 0 0.2 0 0.4 0.1 4.3 0.7 5.1 0.7 8.6 1 17.6 1 16.9 0.8 34.6 1.5l14.4 0.7c0.5 0 1 0.3 1.4 0.5v0.4c0.1 0.3 0 0.5-0.3 0.8h-0.4l-30.6 0.7c-7.6 0.1-20.8 0-27.9-0.6-0.9 0-1.9-0.2-2.7-0.5-0.4 0.8-0.9 1.7-1.3 2.6 1.2-0.2 2.4-0.3 3.7-0.4 9.4-0.5 48.6-1.3 57.8-0.9 2 0 3.4 1.3 3.9 3 3.8-7 7.2-14 9-18.8l0.5-1.9c0.1-0.6 0-1.2-0.1-1.8-0.6-1-2-2.2-3.3-2.4-2.3-0.3-4.2-0.3-6.4-0.4-16.9 0-40.7 0.4-57.7 1.2l-5.7 0.5c-1.2 0.1-2.5 0.8-3.3 1.7l-1.4 1.8c-1.8 2.9-3.5 5.9-4.8 9.1-1.8 4.3-3 7.9-4.3 12.4-1.9 6.8-2.5 13.7-0.8 20.6 0.6 2.1 1.7 5.1 3 7.4-0.5-2.6-1-5.2-1.4-7.9-1.4-9-0.2-18.1 3.3-26.4 1.9-4.8 4.4-9.4 7.5-13.5 1-1.4 2.6-2.8 4.2-3.5 1.7-0.8 4-1.3 5.8-1.4 6.8-0.7 13.6-1 20.4-0.9 7.5-0.1 15.1 0 22.6 0.3 3.7 0 8.1 0.5 11.7 1.5 1.3 0.4 2.7 1.2 3.8 2 0.6 0.5 1 1 0.2 1.6h-0.3l-37.8 0.3c-5.4 0-9.9 0.1-15.4 0.5-0.9 0-1.7 0.2-2.6 0.4-2.5 0.7-5.7 4.6-7.3 7-0.3 0.5-0.7 1-1 1.7zm-1.9 3.3c0.7 0.2 1.4 0.3 2.1 0.4l3.8 0.3c8 0.3 16 0.4 24.1 0.3l14.2-0.3c-9-0.3-32-1.1-38.3-1.9l-3.9-0.6c-0.3 0-0.6-0.1-0.8-0.3-0.4 0.7-0.8 1.4-1.1 2.1h-0.1zm-2.1 27.1 1.4 1.7h7.3l2.3-1.9-1.7-1.7h-7.2l-2.1 1.9zm23.7 0 1.4 1.7h4.4c1.1-1.1 2.1-2.3 3.1-3.6h-6.7l-2.2 1.9zm0.7 3.1-1.6-1.9h-11.3l-2.3 1.9 1.8 1.8h11.3l2-1.8h0.1zm-23.7 0-1.6-1.9h-4.4v1.3c0 0.8 0.1 1.5 0.2 2.3h3.7l2.1-1.7zm-6-4.5h4.8l1.9-1.8h-0.1l-1.6-1.9h-4.9c0 1.2-0.2 2.4-0.2 3.7h0.1zm15.3-1.8 1.8 1.8h11.3l1.9-1.8-1.6-1.9h-11.3l-2.2 1.8 0.1 0.1zm-9.3-2.9 1.3 1.6h7.4l2-1.7-1.6-1.6h-7.3l-1.9 1.7h0.1zm23.8 0 1.3 1.6h7.2l2-1.7-1.6-1.6h-7.1l-1.9 1.7h0.1zm-29.4-1.2h4.8l2-1.8-1.6-1.9h-4.6c-0.2 0.8-0.4 1.6-0.5 2.4 0 0.4-0.1 0.8-0.2 1.3h0.1zm15.5-1.8 1.8 1.8h11.3l2-1.8-1.5-1.8h-11.3l-2.3 1.8zm23.7 0 1.7 1.7h0.6c0.8-1.2 1.5-2.4 2.3-3.6h-2.4l-2.2 1.8v0.1zm-33.2-3.3 1.6 1.9h7.4l2.3-1.9-1.8-1.8h-7.4l-2 1.8h-0.1zm23.9 0.2 1.5 1.8h7.2l2.2-1.8-1.7-1.7h-7.3l-2 1.8 0.1-0.1zm-28.4-1.6h4l2-1.9-1.5-1.8h-3.4c-0.5 1.2-0.9 2.5-1.2 3.7h0.1zm14.8-1.6 1.7 1.7h11.2l2-1.8h0.1l-1.5-1.7h-11.3l-2.2 1.8zm23.6 0.2 1.6 1.7h3.8s0-0.2 0.1-0.2c0.6-1.1 1.2-2.2 1.7-3.2h-4.9l-2.3 1.8v-0.1zm-33.1-3.6 1.6 1.9h7.3l2.1-1.6-1.8-1.8h-7.4l-1.8 1.5zm23.7 0.2 1.6 1.8h7.2l2.1-1.6-1.8-1.8h-7.3l-1.8 1.6zm-26.9-1.5h2.3l2-1.9h8.6c0 0.1 1.9 2 1.9 2h11.3l2-1.8h8.5c0 0.1 1.9 2 1.9 2h6c0-0.1 0.1-0.3 0.2-0.5l0.8-2.7c-12 0-23.9 0.3-35.9 0.7l-4.5 0.2c-1.6 0-2.9 0.2-4.5 0.6l-0.6 1.5v-0.1zm65.7 0.8v-1.7c-0.2-0.8-0.8-1.4-1.5-1.7-0.4-0.2-0.7-0.2-1.1-0.3h-4.8-11.1c-1.2 4-1.9 6.5-4 9.9-2.5 4.4-5.3 8.6-8.5 12.6-2.2 2.8-4.7 5.4-7.4 7.6-1.1 1-2.6 1.7-4.1 2.1-3.5 0.8-14.3 1.4-21.6 1.6 5.3 0.2 10.7 0.4 16 0.4 6.5 0 10.1-0.2 16.5-0.7 3.3-0.2 6.1-0.8 9.2-1.9 3.6-1.7 7.4-4.7 10-7.8 2.8-3.7 7.8-11.7 12.4-20.1zm-68.7 28.8c1.4 0 2.9 0 4.3-0.1l-1.5-1.7h-3.2l0.3 1.8h0.1zm13.7-0.5c2.7-0.2 5.4-0.3 8.2-0.5 1.3-0.1 2.7-0.3 4-0.6 0.2 0 0.3 0 0.5-0.1h-11.1l-1.6 1.2zm14.2-2c0.5-0.3 1-0.6 1.4-1 0.6-0.5 1.2-1 1.7-1.5h-1.7l-2.1 1.9 0.6 0.7 0.1-0.1zm-13.2-0.7-1.8-1.8h-7.2l-2.1 1.9 1.5 1.8h7.3l2.3-1.9zm-15.9 4.2c-2.2-10.3-1.3-21.6 3.1-31.2 2.6-6.3 6.2-13.5 11.6-18.1 0.8-0.7 1.8-1.2 2.8-1.5 3-0.8 14.4-1 18.3-1l35.7-0.2c-0.6-0.4-1.2-0.7-2-0.9-4-1-7.2-1.4-11.3-1.5-7.5-0.3-15.1-0.4-22.6-0.3-9.6 0-10.7 0.1-20.3 0.9-1.9 0.2-3.5 0.5-5.3 1.2-1.4 0.7-2.7 1.8-3.6 3.1-5.5 7.4-9.9 17.7-10.9 26.9-0.8 7.5 0.6 14.9 2.2 22.2 0.5 0 1.5 0.2 2.4 0.2l-0.1 0.2zm56.2-6.1c-0.6 0.6-1.2 1.1-1.9 1.6-1.6 1.3-4.2 3.1-6.2 3.9-2.7 1.1-6.7 1.9-9.6 2.1-11.2 1-24.9 0.7-36.8 0l-3.9-0.3h-0.7c-1.2-0.4-2.3-2.4-2.8-3.6-2.9-5.5-4.1-11.2-3.9-17.2 0.2-3.8 0.8-7.6 1.8-11.3 1.7-6.6 5.2-16.1 9.3-21.9 1-1.5 1.9-2.6 3.5-3.4 1.1-0.6 2.6-0.8 3.8-0.9 5.7-0.6 25.1-1.1 32-1.2 8-0.2 29.8-0.6 36.1 0 0.9 0 1.7 0.3 2.4 0.8 0.4 0.2 0.8 0.5 1.1 0.8 2.6-0.5 9.2-1.6 11-1.8 3.2-0.3 6.3-0.8 9.4-1.4 0.9-0.2 1.7-0.5 2.6-1-23.5-0.7-45.5-0.9-69-0.7-6.6 0-13.3 0.2-19.9 0.4-2.2 0-3.7 0.2-5.8 0.8-3.2 0.9-6.1 4.3-7.8 7.3-5.2 9.4-10.3 22.2-11.1 32.5-0.3 7.5 1.4 18.9 8.4 23.5 1.1 0.7 2.3 1.2 3.6 1.4l3.6 0.5 7.1 0.3c13.7 0 27.3-0.1 41-0.7l32.8-1.5c2.1 0 4.5-0.1 7-0.1-6.7-1.1-13.4-2.3-19.8-3.5-4.3-0.8-8.5-2.1-12.5-3.7l-4.7-1.7h-0.1zm75.7-32.2v-0.2h0.4l0.2 0.2c6.4-0.2 12.7-0.3 19-0.3 27.4-0.3 56.8-0.3 84.2-0.2l89.6 0.5 5.6 0.3c0.7 0 1.2 0.2 1.7 0.6 0.8 0.6 1.1 1.5 1.3 2.4 0.3 1.3 1.8 14 1.6 16.3-0.1 1.1-1.6 4.2-2.2 5.3-1.7 3.1-3.5 6.2-5.5 9.2-0.8 1.3-1.9 2-3.3 2.4-1.2 0.3-2.6 0.5-3.8 0.6l-8 0.5c-31.6 1.7-78.3 3.2-110.1 3.3h-54.3c-11.5 0.2-29.2 0-40.2-0.7-1.6 0-3.5-0.5-5-1.3-0.9-0.5-2.1-1.2-3.2-1.9 1.8 2.6 2.9 3.2 3.3 3.4 1.1 0.6 2.2 0.9 3.4 1h0.1 0.1l4.1 0.3c23.2 0.4 42.1 0.5 65.4 0.4 31.4 0 43.5-0.2 61.1-0.5v-0.3l67.9-3.1c10.4-0.4 13.7-0.5 24.1-1.5 1 0 1.8-0.3 2.8-0.6 0.7-0.3 1.2-0.8 1.6-1.4 3.4-5.3 4.2-7.1 7-12.7 0.3-0.5 0.4-1 0.5-1.6l-0.2-1.8-1.7-10.3c-0.8-5.3-1.1-6.4-2.3-11.7-0.4-1.9-0.9-2.8-2-4.5-0.6-0.9-1.1-1.5-2.1-1.9-1.7-0.7-3.5-1.1-5.4-1.2-14.9-0.9-95.7-0.8-115.3-0.7-19.1 0.1-61.3 0.6-84 1.6l-6.3 0.5c-1.9 0.2-3.8 0.6-5.6 1.2-2.1 0.8-4 2.1-5.4 3.8-1.5 1.8-2.9 3.8-4.2 5.8 8.3-0.5 16.7-0.8 25.2-1l-0.1-0.2zm2 1.4 0.4 0.5h8.2l1-0.7c-3.3 0-6.5 0.1-9.7 0.2h0.1zm26.1-0.4 1 1.1h8.1l1.6-1.2h-10.8l0.1 0.1zm25.9-0.2 1.4 1.6h8l2.1-1.6h-11.6 0.1zm25.6 0c0.7 0.6 1.2 1.2 1.8 1.8h7.8l2.3-1.8h-11.9zm25.3 0 1.8 2h7.8l2.4-1.9h-12v-0.1zm18.1 0h6.9l1.8 2.1h7.5l2.4-1.8h12.9c0 0.1 1.7 2.1 1.7 2.1h7.4l2.4-1.8h12.7c0 0.1 1.7 2.1 1.7 2.1h7.3l2.3-1.8h9.8-0.3c-0.8-0.1-5.1-0.4-6.2-0.4l-70.4-0.4 0.1-0.1zm77.6 2.4h-10l-2.3 1.8h-0.1l1.9 1.9h11.2c0-0.4-0.1-1-0.2-1.5l-0.3-2v-0.2h-0.2zm-20.9 1.7-1.7-2h-11.5l-2.4 1.8c0.7 0.7 1.3 1.2 1.9 2h11.5l2-1.8h0.2zm-24.2-0.3-1.7-2h-11.7l-2.4 1.8h-8.7c0-0.1-1.8-2.1-1.8-2.1h-11.9l-2.4 1.9h-9c0-0.1-1.8-2.1-1.8-2.1h-12.1l-2.4 1.9h-9c-0.6-0.9-1.2-1.5-1.8-2.1h-12.4l-2.5 1.9h-9.2c0-0.1-1.9-2.2-1.9-2.2h-12.6l-2.5 1.9h-9.3c0-0.1-1.9-2.2-1.9-2.2h-12.8l-2.6 1.9h-9.4c0-0.1-1.8-2-1.8-2-4.6 0.1-9.2 0.3-13.8 0.4l-1.8 1.5 2.1 2h13l2.2-1.9h9.5c0 0.1 2.2 2.2 2.2 2.2h12.8l2.2-1.9h9.4c0 0.1 2.2 2.1 2.2 2.1h12.6l2.1-1.9h9.3c0 0.1 2.1 2.1 2.1 2.1h12.3l2.1-1.9h9.1c0 0.1 2 2.1 2 2.1h12.2l2.1-1.9h9c0 0.1 2 2.1 2 2.1h11.9l2.1-1.9h8.8c0 0.1 2 2.1 2 2.1h11.7l2.2-1.8zm-19.3 33.1h-7.5l-0.3 0.3c2.6 0 5.3-0.2 7.9-0.3h-0.1zm-10.1 0.3 1.9-1.8-1.7-1.9h-11.9l-1.9 1.6v0.5h-0.3l1.8 1.8h5.2 5 1.9v-0.2zm10.7-1.8 1.4 1.4c4.4-0.2 8.8-0.3 13.1-0.5l1.1-1-1.5-1.8h-11.7l-2.4 1.9zm-49.1 2.7-1.3-1.3h-7.8l-1.6 1.4c3.6 0 7.1 0 10.7-0.1zm-25.4 0.2-1.6-1.5h-7.9l-1.6 1.5h11.1zm-25.9 0-1.7-1.5h-8.2l-1.8 1.5h11.7zm-26.4 0-1.7-1.6h-8.2l-1.7 1.5h11.6v0.1zm-27.3-0.4-1.4-1.2h-8.5c1.1 0.5 2.2 0.7 3.4 0.8l5.6 0.4h0.9zm-11.3-1.8 0.7-0.6-1.8-2h-3.1c1.4 0.9 2.8 1.8 4.2 2.6zm10.7-0.7 2.1 1.8h13.1l2.1-1.9-1.8-1.9h-13l-2.3 2h-0.2zm26.8 0 2 1.8h12.8l2.2-1.9-1.8-1.9h-12.7l-2.4 1.9-0.1 0.1zm26.5 0 2 1.8h12.5l2.1-1.9-1.7-1.9h-12.5l-2.4 2zm26 0 2 1.8h12.3l2-1.8-1.7-1.9h-12.2l-2.4 1.9zm25.7 0 1.9 1.9h12.1l2.1-1.9-1.7-1.9h-12.1l-2.3 1.9zm25.2 2.1-0.7-0.7h-7.8l-1 0.9c3.2 0 6.4-0.1 9.6-0.2h-0.1zm-60.5-11.7 1.6 1.8h8l2.2-1.9-1.9-1.7h-8l-2 1.8h0.1zm25.8 0.1 1.4 1.7h7.9l2.2-1.9-1.7-1.7h-7.8l-2.1 1.9h0.1zm25.3 0 1.4 1.7h7.6c0.9-0.7 1.5-1.1 2.4-2l-1.6-1.5h-7.8l-2 1.8zm24.8 0 1.4 1.6h7.6l2.3-1.9-1.7-1.7h-7.6l-2 2zm24.4 0 1.4 1.7h7.4l2.3-1.9h0.2l-1.7-1.7h-7.5l-2.1 1.9h-0.1 0.1zm24 0 1.4 1.7h7.3l2.3-1.9h0.2l-1.7-1.7h-7.2l-2.1 1.9h-0.2zm21.7 1.2h-10.2l-2.1 1.8 1.9 1.9h8.1c0.7-1.1 1.5-2.4 2.3-3.7zm-20.8 1.9h-0.2l-1.6-1.9h-11.5l-2.1 1.8 1.9 1.9h11.5l2-1.8zm-24.1 0-1.8-2h-11.6l-2.1 1.8 2 2h11.6l1.9-1.8zm-24.4 0-1.7-2h-11.8l-1.8 1.5c0 0.2 0.2 0.4 0.2 0.5h-0.6l1.8 1.8h11.9l2-1.8zm-24.9 0-1.7-2h-12.1l-2.3 1.9c0.7 0.6 1.4 1.2 2 1.9h12.1l1.9-1.8h0.1zm-25.3 0-1.7-1.9h-12.3l-2.3 1.9 2 1.8h12.2l2-1.8h0.1zm-25.6 0-1.7-1.9h-12.6l-2.3 1.9 2.1 1.9h12.5l2.1-1.9h-0.1zm-26.2 0c-0.7-0.7-1.3-1.2-1.9-1.9h-12.7l-2.3 1.9 2.2 1.9h12.8l2-1.8-0.1-0.1zm-26.6 0-1.8-1.9h-13l-2.3 1.9 2.1 1.9h13.1l2.1-1.8-0.2-0.1zm-27.3 0-1.8-2h-7.1l0.6 1.7c0.3 0.8 0.7 1.5 1 2.1h5.3l2.1-1.9-0.1 0.1zm-1-3.3 1.8 2h8.6l2.2-1.8-2.2-2h-8.5l-2 1.8h0.1zm27.2 0 1.8 1.9h8.3l2.2-1.8-2.1-1.9h-8.3l-2 1.8h0.1zm26.7 0c0.6 0.7 1 1.2 1.7 1.8h8.3l2.2-1.8-2-1.8h-8.2l-2 1.8zm-62.1-1.3h7.3l2.3-2-1.7-1.9h-7c-0.2 0.9-0.5 1.8-0.7 2.7l-0.2 1.2zm19.6-1.8 2 1.8h13.1l2.2-1.9-1.7-1.8h-12.9l-2.5 2-0.2-0.1zm26.9 0 2 1.9h12.7l2.2-2-1.7-1.9h-12.8l-2.5 2h0.1zm26.5 0 2 1.9h12.6l2.2-2-1.7-1.9h-12.5l-2.5 2h-0.1zm26.2 0 2 1.9h12.3l2.1-1.9-1.7-1.9h-12.2l-2.5 2v-0.1zm25.7 0 1.9 1.9h12.1l2.1-2-1.7-1.9h-12.1l-2.3 2zm25.2 0 1.8 1.8h11.8l2-1.9-1.7-1.9h-11.8l-1.9 1.6v0.5h-0.3l0.1-0.1zm24.6-0.2 1.9 1.9h11.7l1.9-1.8-1.7-1.9h-11.7l-2.1 1.8zm24.4 0 1.8 1.8h11.5l1.9-1.8-1.6-1.9h-11.5l-2.2 1.8 0.1 0.1zm23.9 0 1.8 1.8h11.2c0.5-0.9 1-1.8 1.4-2.6l-0.8-1h-11.3l-2.3 1.8zm-211.7-20.6-0.7-0.7-2.8 0.2c-0.4 0.8-0.8 1.7-1.3 2.5h2.4l2.2-2h0.2zm214.5 5.1-1.6-1.6h-7.4l-1.7 1.5 1.4 1.7h7.3l2-1.6zm-24-0.3c-0.5-0.6-1-1.1-1.6-1.7h-7.4l-1.8 1.6 1.3 1.6h7.5l2-1.5zm-24.4-0.3-1.6-1.6h-7.6l-1.8 1.6 1.3 1.6h7.6l2-1.6h0.1zm-24.8-0.2-1.6-1.6h-7.8l-1.8 1.6 1.3 1.6h7.8l2-1.6h0.1zm-25.3-0.2-1.6-1.6h-7.9l-1.8 1.6 1.4 1.5h7.8l2-1.6 0.1 0.1zm-25.6-0.2-1.6-1.5h-8.1l-1.9 1.7 1.4 1.5h8l2.2-1.7zm-26.2-0.2-1.6-1.5h-8.2l-1.9 1.6 1.4 1.6h8.1l2.2-1.7zm-26.6-0.2-1.6-1.6h-8.3l-1.9 1.6 1.4 1.5h8.2l2.2-1.6v0.1zm-26.9-0.3-1.6-1.5h-8.6l-2 1.7 1.5 1.6h8.4l2.3-1.7v-0.1zm216.2 3.5-0.2-0.3h-11.3l-2.3 1.8 1.8 1.8h11.2l1-0.8c0-0.8-0.2-1.6-0.2-2.5zm-22.4 1.3-1.6-1.9h-11.5l-2.3 1.8 1.9 1.9h11.5l2-1.8zm-24.1-0.2-1.7-2h-11.7l-2.4 1.9 2 2h11.6l2.2-1.9zm-24.6-0.2-1.7-2h-11.9l-2.4 1.9 2 2h11.9l2-1.9h0.1zm-25-0.2-1.7-2h-12.2l-2.4 1.9 2 2h12.1l2.2-1.9zm-25.3-0.2-1.9-2h-12.3l-2.5 1.9 2.1 2h12.3l2.1-1.9h0.2zm-25.9-0.2-1.9-2h-12.6l-2.5 1.9 2.2 2h12.5l2.2-1.9h0.1zm-26.3-0.2-1.9-2.1h-12.8l-2.5 1.9 2.2 2.1h12.8l2.2-1.9zm-26.7-0.3-2-2.1h-13l-2.4 1.9c0.7 0.8 1.4 1.4 2.1 2.1h13.1l2.2-1.9zm-27.3-0.3-1.9-2h-3c-0.6 1.3-1.1 2.7-1.6 4.1h4.2l2.3-2.1zm228 4.7-0.6 0.5 0.7 0.8c0-0.4 0-0.9-0.1-1.3zm-13.1 0.3-1.8-1.8h-7.4l-2 1.8h-0.1l1.6 1.9h7.4l2.3-1.9zm-23.9 0-1.9-1.9h-7.5l-2.1 1.9 1.6 1.9h7.5l2.3-1.9h0.1zm-24.4-0.2-1.9-1.9h-7.7l-2 1.9 1.6 1.9h7.6l2.4-1.9zm-24.8-0.2-1.9-1.9h-7.8l-2.1 1.9h-13.3c0-0.1-2-2.1-2-2.1h-8l-2.1 1.9h-13.5c0-0.1-2.1-2.1-2.1-2.1h-8.1l-2.2 1.9h-13.7c0-0.1-2.2-2.1-2.2-2.1h-8.2l-2.2 1.9h-14c0-0.1-2.2-2.2-2.2-2.2h-8.4l-2.2 1.9h-14.1c-0.8-0.8-1.5-1.4-2.3-2.2h-8.6l-2.3 2h-5.3c0 0.2-0.1 0.3-0.2 0.5h5.3l2 2.1h8.5l2.6-2h14.2c0 0.1 1.9 2.2 1.9 2.2h8.4l2.5-2h13.9c0 0.1 1.9 2.1 1.9 2.1h8.2l2.5-2h13.7c0 0.1 1.8 2.1 1.8 2.1h8.1l2.5-2h13.5c0 0.1 1.7 2.1 1.7 2.1h7.9l2.4-2h13.3c0 0.1 1.8 2.1 1.8 2.1h7.7l2.5-2.1h0.2zm-11.1 3.3-1.6-1.8h-12.1l-2.2 1.7 1.9 1.8h12.1l1.9-1.8v0.1zm-25.3 0-1.6-1.9h-12.3l-2.3 1.8 2.1 1.9h12.2l1.9-1.8zm-25.7 0-1.7-1.9h-12.5l-2.3 1.8 2.1 1.9h12.5l2-1.7-0.1-0.1zm-26.2-0.1-1.8-1.9h-12.7l-2.3 1.7 2 1.9h12.8l2-1.7zm-26.8-0.2-1.8-2h-13l-2.3 1.7 2.2 2h13l2-1.7h-0.1zm-27.2-0.2-1.9-2h-5.2l-1.2 3.9h6.3l2-1.9zm228.4 0.6-1.2-1.5h-11.3l-2 1.6 1.5 1.5h11.3l1.8-1.6h-0.1zm-23.8 0-1.3-1.5h-11.5l-2 1.5 1.5 1.6h11.4l1.9-1.6zm-24.1 0-1.4-1.6h-11.6l-2.2 1.6 1.6 1.6h11.7l1.8-1.6h0.1zm-24.5-0.1-1.4-1.7h-11.9l-1.9 1.5v0.4l1.6 1.6h11.8l1.9-1.8h-0.1zm72.7 1.9-1.6 1.5h-12.5l-1.9-1.9h-7.3l-2.1 1.9h-12.6l-1.9-2h-7.5l-2.1 1.9h-12.9l-2-2h-7.5l-2.1 2 1.7 2h7.6l2.3-1.9h12.9l1.7 2h7.5l2.3-1.9h12.7l1.6 1.9h7.4l2.3-1.9h12.5l0.8 1c0.2-0.5 0.5-1.1 0.6-1.6v-0.5c0.1-0.2 0-0.3 0-0.5h0.1zm-87 1.3-1.9-1.9h-7.9l-2.1 2 1.8 2h7.6l2.5-2.1zm-25.2 0-2.1-2h-7.8l-2.2 2 1.8 2h7.9l2.3-2h0.1zm-25.5 0-2.2-2h-8l-2.2 2 1.8 2h8.1l2.5-2zm-18 0h-8.1l-2.2-2.1h-8.1l-2.2 2h-14c0-0.1-2.2-2.2-2.2-2.2h-8.3l-2.3 2h-14c0-0.1-2.3-2.2-2.3-2.2h-8.5l-2.4 2.1h-7.2v0.3h7.2l1.9 2.1h8.6l2.6-2h14.1l1.9 2h8.4l2.5-2h14l1.8 2h8.3l2.5-2h8.1-0.1zm114.7 16.1 0.3 0.3c4.9-0.2 9.8-0.4 14.7-0.7l-1.3-1.6h-11.4l-2.3 1.9v0.1zm-190.1-3.2 1.8 2h8.5l2.5-2.1-2.1-2h-8.4l-2.3 2.1zm27.1 0 1.8 1.9h8.3l2.5-2h0.1l-2.1-1.9h-8.3l-2.3 2zm26.6 0 1.8 1.9h8.2l2.5-2-2-1.9h-8.1l-2.2 2h-0.2zm26.3 0 1.7 1.9h8l2.5-2-2-1.9h-7.9l-2.2 2h-0.1zm25.7 0 1.7 1.9h7.9l2.4-2c-0.7-0.7-1.2-1.3-1.9-1.9h-7.9l-2.2 2zm25.4 0 1.7 1.9h7.6l2.4-2-1.7-1.7h-7.8l-2.2 1.8zm25 0 1.6 1.7h7.6l2.2-1.8-1.8-1.8h-7.5l-2.1 1.9zm24.5 0 1.6 1.9h7.4l2.2-1.8-1.8-1.8h-7.4l-2 1.7zm24 0 1.5 1.8h7.3l2.3-1.9-1.8-1.8h-7.2l-2.1 1.9zm17.4 1.3h-5.8l-1.2 1 2.5-0.2c1.3 0 3.3-0.3 4.5-0.8zm-221.2-33.4h1.1c1.5-2.4 3.1-4.6 4.9-6.8 3-3.6 7.5-5.2 12-5.5l6.4-0.5c6.3-0.4 25.3-0.8 31.6-0.9 50.2-1 103.9-1 154.8-0.4 3.9 0 9.2 0.1 13 0.4 1.7 0.1 4.2 0.6 5.8 1.4 1.1 0.5 2.1 1.5 2.7 2.5 1.1 1.5 1.8 3.2 2.2 4.9 1 3.9 1.7 7.8 2.3 11.8l1.7 10.3c0.2 1.7 0.2 2.8-0.5 4.2-2 4.4-4.4 8.8-7 12.9-1.2 1.8-3.4 2.6-5.4 2.7-8 0.8-16.1 1.3-24.1 1.5l-27.1 1.2c15.9-0.2 31.8-0.4 47.7-0.8l9.4-0.4c1.3 0 2.3-0.1 3.6-0.5 0.4-0.1 0.8-0.4 1.1-0.6 0.4-0.4 0.7-0.8 0.9-1.2 1.8-3.4 3.6-9.7 4.7-14 0-1.9-0.1-2.9-0.5-4.7-0.7-4.7-1.6-9.4-2.6-14-0.7-3.3-1.6-6.4-2.8-9.5-0.8-1.9-2.7-5.4-4.5-6.9-2.9-2-7.8-1.9-11-2l-79.4-1.3c-28.9-0.4-51.7 0.6-78.9 1.2l-24 0.4c-5.1 0-10.3 0-15.4 0.3-3.8 0.2-6.2 0.7-10 1.6-2.3 0.5-4.2 1.4-6.1 2.8-1.8 1.6-2.9 3.1-4 5.2-0.9 1.6-1.9 3.1-2.7 4.7h0.1zm257.5 20.9 1.9 1.8 11.5-0.3 1.9-1.9-1.6-1.8-11.5 0.3-2.2 2v-0.1zm19.8 0.8h-3.8l-2 2.1 1.5 1.7 4.2-0.2 0.1-3.6zm-18.5 2.3-0.9-0.8c0 0.2 0.1 0.4 0.2 0.6v0.3s0 0.2 0.1 0.4l0.4-0.4 0.2-0.1zm-1.8-4.5 2.1-1.9-1.7-1.6h-1.2c0.2 1.2 0.5 2.4 0.8 3.5zm15.1-2.1 1.5 1.7h3.8v-3.6h-3.5l-1.8 1.9zm-14-2.8 1.8 1.7 11.4-0.3 1.9-1.9-1.5-1.8-11.5 0.3-2.1 1.9v0.1zm-2.5-1.3h1.8l2.1-2-1.8-1.7h-2.8c0.2 1.3 0.5 2.5 0.7 3.7zm16.9-2.2 1.5 1.7h3.5v-3.7h-3.2l-1.8 2zm-14.1-2.9 1.9 1.8 11.5-0.3 1.8-1.9-1.6-1.7-11.5 0.3-2.1 1.9v-0.1zm-4-1.2h3.3l1.6-1.6h-2l-3.3-0.1c0.1 0.6 0.2 1.1 0.4 1.7zm18.9-1.7 1.1 1.2h3.2l0.2-1.2h-4.5zm8.7-2.3-2.4 1.6c-0.1 0.1-0.4 2-0.5 2.4l-0.4 20 1.3-8.5 2-15.5zm-4.8 28.7v-3.9l-4.1 0.2-2 2-7.5 0.2c1.1 0.6 2.3 1.1 3.5 1.6 2.1 0.5 4.2 0.6 6.4 0.4l3.7-0.4v-0.1zm1.2-27.9c0-0.1 0.2-0.2 0.3-0.3l1.7-1.1c-5-0.1-21-0.3-22.8-0.3-0.6 0-1.5 0.1-1.9 0.2 0 0-0.2 0-0.2 0.2-0.5 0.7-0.6 0.9-0.8 1.4 3.4 0.2 20.9 0 23.9 0l-0.2-0.1zm-6 22.9-1.5-1.7-11.5 0.4-0.5 0.4c0.3 0.7 0.5 1.4 0.9 2 0.6 0.4 1.1 0.8 1.7 1.1 0-0.1 9.1-0.4 9.1-0.4s1.8-1.8 1.8-1.8zm9.9-42.3c-0.7-1-1.6-1.8-2.6-2.7-0.2-0.2-0.4-0.3-0.6-0.3-1-0.2-1.7-0.2-2.7-0.2-4 0-8 0.3-12 0.8-2.7 0.4-5.4 1.1-8 2l3 0.3c6.8 0 13.6 0 20.5-0.1l1.7 0.1h0.6l0.1 0.1zm-32-3.5c0.6-1.1 1.6-1.9 3-2.2 1.3-0.4 2.6-0.6 3.9-0.7l4-0.2c7.2 0 14.4 0.3 21.5 0.7 2.7 0.3 4.7 0.7 5.3 3.8 0.2 0.8 0.3 1.6 0.3 2.5 0 1.7 0 3.4-0.2 5.1-0.7 8.2-1.7 16.3-2.9 24.4-0.4 3.9-1.8 13.1-2.9 16.9-0.9 3.2-1.9 3.5-4.6 3.8-1.7 0.2-6.7 0.3-8.4 0.2-1.9 0-4.3-0.5-6.1-1.2-0.5-0.2-1-0.5-1.5-0.8 0.7 1 1.3 1.3 1.4 1.4 5.6 3.9 14.9 2.5 21 1.7l1.3-0.3h0.2c0-0.1 0-0.2 0.1-0.3 0.2-1.3 0.3-2.7 0.3-4-0.1-3 0-8.8 0.4-11.7 1.4-8.7 2.6-17.5 3.6-26.3 0.5-4.6 0.8-9.2 0.8-13.8v-2.3c-0.1 0-0.4-1-0.4-1-0.1-0.3-0.3-0.5-0.5-0.6-0.6-0.4-1.4-0.7-2.1-0.8l-3-0.2c-6 0-11.5 0-17.5 0.3l-27.5 1.2 4.6 1.7c1.6 0.6 4.2 1.9 5.9 2.7zm-616.1-62.6-1.8 5.8c-0.6 1.9-3 2.8-4.7 2.3-0.9-0.2-1.6-1-1.7-1.9-0.2-1-0.2-1.9-0.1-2.9 0-0.7 0.2-1.4 0.4-2.1l-0.5-0.1c-1.3-0.5-0.6-2.2-0.4-3.1 0.2-1.2 0.7-2.9 1.3-4 0.3-0.5 0.9-1 1.5-1.2 0.5-0.1 1.2-0.2 1.7-0.1l4.1-0.2c0.8 0 0.7 0 1.3 0.1 1 0.6 1.1 1.2 0.9 2.3l-0.9 3-0.5 1.6-0.4 0.5h-0.2zm-6.5 1.2c-0.4 1.5-0.6 3.2-0.3 4.7 0 0.4 0.3 0.6 0.7 0.7 0.5 0.1 1.1 0.1 1.6 0 0.4-0.2 0.8-0.4 1.1-0.7 0.2-0.2 1.1-3.2 1.7-5-1.5 0.2-3.2 0.4-4.8 0.3zm6.9-7.1v-0.2c-0.5-0.1-5.2 0.2-6.2 0.2-0.2 0-0.4 0.2-0.6 0.4-0.8 1.8-1 2.9-1.4 5 1.7 0.1 3.4 0 5-0.2h1c0-0.1 0.4-0.3 0.4-0.3 0.4-0.2 0.7-1.3 0.9-1.8l0.9-2.9v-0.5 0.3zm52.3 8c0 0.8-0.1 1.7-0.3 2.5-0.2 0.9-0.7 2.1-1.1 2.9-0.9 2.1-3.4 3-5.5 2.8-2.6-0.2-3.8-2.8-3.7-5.1v-3.5c-0.7-0.4-0.7-1.5-0.6-2.2 0.1-1.1 0.5-3.7 0.9-4.8 0.6-1.6 1.8-1.9 3.4-1.9 1.8 0 4.7-0.1 6.5 0.1 0.8 0 1.8 0.5 2.2 1.3 0.1 0.3 0.2 0.7 0.2 1l-1.2 6.1-0.4 0.6-0.3 0.2h-0.1zm-9.2 0c-0.1 1.7-0.2 4.4 0.6 5.7 0.4 0.6 1 1 1.7 1 1 0 1.9-0.1 2.8-0.5 1.1-0.6 1.9-2.7 2.3-4 0.1-0.6 0.2-1.3 0.3-1.9-1.5 0-4-0.2-4.9-0.2h-2.5c0-0.1-0.2-0.1-0.3-0.1zm9.6-7.3c-0.3-0.2-0.6-0.3-1-0.3-1.9-0.2-6.2-0.3-7.8 0.1-0.1 0-0.2 0.1-0.3 0.2-0.1 0.2-0.2 0.3-0.3 0.5-0.4 1.4-0.7 2.9-0.9 4.4v0.9c0.5 0.2 2.9 0.2 3.5 0.3l5.4 0.2 0.1-0.2c0.1-0.3 1.1-5 1.1-6l0.2-0.1zm-74.5 144.9c-0.3 1.4-0.6 2.9-1 4.3-0.7 2.7-1.6 5.4-2.6 8-0.9 2.1-2.2 4.6-4 6.2-1.9 1.8-4.7 1.5-6.3-0.4-0.8-0.9-1.6-1.9-2.1-3.1-1.1-2.2-2-4.6-2.6-7-1.3-4.7-2.2-9.5-2.7-14.4-1-8.9-1.5-17.9-1.3-26.9 0.1-7.8 0.7-15.6 1.7-23.3 0.6-4.8 1.5-9.5 2.7-14.2 0.7-2.7 1.6-5.4 2.6-8 0.9-2.1 2.2-4.6 4-6.2 1.9-1.8 4.7-1.5 6.3 0.4 0.8 0.9 1.6 1.9 2.1 3.1 0 0.2 0.2 0.4 0.3 0.5l0.1 0.1c1 2.1 1.7 4.2 2.3 6.4 1.3 4.7 2.2 9.5 2.7 14.4 0.1 1.2 0.3 2.4 0.4 3.5 0.4 4.2 0.7 8.4 0.8 12.6l0.4 0.4c-0.1 0-0.2 0.1-0.4 0.2 0.1 3.4 0.1 6.8 0 10.2 0 3.8-0.2 7.6-0.5 11.5-0.3 4-0.7 7.9-1.2 11.9-0.4 3.3-1 6.6-1.7 9.9v-0.1zm-1.5 0-0.6-1.6c-0.2-0.5-0.3-1.2-0.3-1.8v-0.5l-0.1 1c-0.1 0.8 0 1.6 0.2 2.4 0.2 0.6 0.4 1.3 0.6 1.9 0.1-0.5 0.2-0.9 0.3-1.4h-0.1zm-0.6-6.2c0.2-0.4 0.4-0.8 0.7-1.3l1.7-2.9c0-0.6 0.2-1.1 0.2-1.7 0 0 0 0.2-0.2 0.2l-3.7 5-3.6 5.4-2.7 4.6-1.1 2.6c-0.1 0.4-0.3 0.8-0.3 1.2 0.1-0.4 0.2-0.7 0.4-1.1 1.2-2.6 4.6-8.5 6.2-10.9l0.7-1.1v-0.2l0.4-0.2 0.7-0.2 0.3 0.3s0.1 0.2 0.3 0.3zm1.9-0.5c-0.4 0.5-0.6 0.9-0.8 1.5v2.4c0.2-1.3 0.5-2.6 0.8-3.9zm-9.7-13.6c0 3 0 7 0.3 10 0 0.5 0.1 0.9 0.2 1.3l8-10.1 3-3.3v-0.9c0-0.2 0-0.3-0.1-0.5-1.7 0-3.5 0.3-5.2 0.8-1.3 0.4-1.9 0.7-3.1 1.3-1.1 0.6-2.1 1.1-3.1 1.4zm-0.7 12.8c-0.2-0.9-0.4-1.8-0.5-2.7-0.2-1.6-0.3-3.2-0.3-4.8v-5c-0.9 0.2-1.8 0.2-2.9 0l-2.6-0.5h-1c-1.2-0.1-1.8-0.6-2.2-1.3-0.1 4.1 1.6 18 1.9 20.1 0.5 2.5 1.1 4.9 1.7 7.3 0.2-1.1 0.4-2.2 0.7-3.3 0.4-1.8 1-3.5 2-5 0.9-1.7 2-3.3 3.2-4.8zm-8.6-15.9 0.3 0.7c0.1 0.2 0.3 0.4 0.5 0.6 0.5 0.3 1.2 0.2 1.8 0.3l2.6 0.5c1.1 0.1 2.2 0 3.2-0.2 1.2-0.4 2.3-0.9 3.3-1.4 2.4-1.4 5.4-2.1 8.3-2.2-0.1-0.1-0.3-0.2-0.5-0.2-4.5-0.3-14.9 1-19.4 2.1l-0.1-0.2zm15.9-39.9 0.3-2.6c0.2-1.4 0.6-2.9 1.3-4.2-0.3-0.6-0.7-1.3-0.9-1.9l-0.3-1.1v-3.3c-1.1-0.6-2.2-1.3-3.2-2.2-0.7-0.6-1.6-1.7-2.4-2.7v4.6c0 2.1 0.8 4.2 1.7 6.1 1.4 2.8 2.5 5.1 3.7 7.3h-0.2zm2.6-5.6c-0.4 1-0.7 2.1-0.9 3.2v0.2c0.2-0.8 0.6-1.6 1.1-2.2 0-0.4-0.1-0.7-0.2-1.2zm0.6 3.3c-0.2 0.5-0.3 1-0.3 1.6l-0.7 4.9c0.5 0.9 1.1 1.9 1.6 2.9 0.2-0.3 0.3-0.6 0.5-0.8-0.3-2.9-0.7-5.7-1.1-8.6zm-19.5 21.2c2-2.2 5.4-2.6 8.2-2.8 0-1.2 0.2-2.8 0.3-3.6l1.4-7.8c-0.3-0.5-0.6-1.1-0.9-1.6-1.1-1.9-2.1-4-2.9-6.1-0.7-1.5-1.3-3.1-1.6-4.6-1 4.5-1.9 8.9-2.8 13.4-0.6 4.1-1.1 8.1-1.5 12.2 0 0.4 0 0.7-0.1 1l-0.1-0.1zm8.5-1.4c-1.2 0-2.5 0.2-3.7 0.4-1.1 0.2-2.2 0.6-3.1 1.3-0.5 0.4-0.9 0.9-1.2 1.4 0.7 0.2 1.4 0.4 2 0.5l5.1 0.7 10.6 0.9c0.4 0 0.9 0 1.3-0.2 0.7-0.3 1.3-0.7 2-1.1v-1.2c-0.9 0.3-1.8 0.6-2.5 0.7-1 0.1-2.8-0.1-3.8-0.4-1.3-0.3-2.6-0.7-3.8-1.2-0.8-0.3-1.6-0.7-2.4-1.2-0.2-0.1-0.4-0.4-0.6-0.6h0.1zm-8.3-11.7v-0.4c0.3-1.6 3-14.5 3.4-16.1l0.3-1.1c0.1-0.3 0.3-0.6 0.7-0.6 0.3 0 0.5 0.2 0.8 0.4v0.2 0.5c0 0.8 0 1.5 0.1 2.2l-0.2-3.1c0-2.7 0.7-4 2.6-5.7h0.1c0.4-0.4 1-0.3 1.2 0.2v-2.2c0-0.4 0-0.5 0.2-0.8l0.7-0.4c0.8-0.1 1.4 0 2 0-0.5-0.3-1-0.6-1.6-0.6-0.9 0-1.7 0.5-2.3 1.2-2.1 2.3-3.8 6.3-4.8 9.5-1.6 5.2-2.7 11-3.6 16.9l0.4-0.1zm9.7-4.3c2 3.7 4.4 7.4 6.7 10.4 0.7 0.9 1.4 1.8 2.1 2.6-1.6-2-5.4-7.8-6.3-9.1-0.7-1-1.6-2.4-2.5-3.9zm9.2 13.5c0.7 0.9 1.5 1.7 2.3 2.5 0-1.7-0.2-3.5-0.3-5.2-0.2 0.4-0.3 0.9-0.4 1.4v0.8c-0.2 0.3-0.3 0.5-0.5 0.7-0.1 0.1-0.3 0.2-0.5 0.2-0.3 0-0.5 0-0.7-0.3l0.1-0.1zm2.5 8.1c-0.5 0.3-0.9 0.5-1.4 0.7-0.6 0.3-1.4 0.4-2 0.3l-10.7-0.9-5.1-0.7c-0.7-0.1-2.3-0.5-2.9-0.8l-0.5-0.4c-0.1-0.2-0.2-0.5-0.3-0.8 0 1-0.1 2-0.2 3 0.1-0.5 0.5-0.8 1.1-0.8l2.5 0.7c4.2 0.6 12.1 1 17 1 0.8 0 1.6-0.2 2.3-0.4v-0.8l0.2-0.1zm-10.5-16.7-1.1 6.2c-0.2 1.2-0.3 2.4-0.3 3.6v0.5c0.4 0.4 1.8 1 2.2 1.1 2.1 0.8 4.6 1.7 7 1.6 0.6-0.1 1.3-0.3 1.9-0.5-3.7-3.7-6.9-8-9.7-12.5zm0.2-26.3c0.9 1.2 1.9 2.4 3 3.4 0.6 0.5 1.3 1 2 1.4-0.3-0.8-0.6-1.5-0.9-2.2l-1.5-1.6c-0.3-0.3-0.8-0.6-1.2-0.8-0.4-0.1-0.8-0.2-1.4-0.2zm-3.8 53.9c-0.2-2.9-0.2-5.8 0.2-8.7h-0.2c-1.3 0-4.4-0.3-5.6-0.5l-1.9-0.5v3.3l-0.2 8.1 0.7-0.3c0.4-0.2 1-0.3 1.4-0.3h1.2c1.5-0.5 2.9-0.8 4.4-1.1zm1.6-8.6c-0.3 2.8-0.4 5.6-0.2 8.3 1.2-0.2 2.5-0.3 3.7-0.3l3.9-0.5c0.6-0.1 1.1-0.3 1.5-0.7 0.8-0.9 0.4-4.3 0.2-5l-0.6-1.5c-2.4 0-6.1-0.2-8.5-0.3zm10.2 0.4c0.2 0.3 0.3 0.7 0.4 1.1 0.2 0.7 0.3 1.6 0.3 2.3 0 0.8 0 1.6-0.1 2.4-0.2 1.5-1.6 2.6-3.1 2.8h-0.3c1.6 0 3.2 0 4.8-0.1 0-1.5 0-3 0.1-4.5v-4.3c-0.7 0.2-1.5 0.3-2.1 0.3zm1.6 17.2-1.7 1.9-8.8 11.2c-3 3.9-4.4 6.2-5.2 9.6 0.6-2 1.5-3.8 2.7-5.7 1.3-2.2 3-4.6 4.5-6.6l5.1-6.4 0.6-0.6c0.4-0.3 1-0.4 1.3 0 0 0.1 0.6 2.4 0.7 3.3 0.3-2.3 0.5-4.5 0.7-6.8l0.1 0.1zm-17.1 29.4c-0.4 0.2-0.9 0-1.1-0.3 0.8 2.3 1.7 4.8 3 6.7 0.7 1.2 1.9 2.5 3.4 2.6 0.9 0 1.7-0.5 2.3-1.2l0.4-0.4-2.4 0.8h-0.6l-0.7-0.3-0.2-0.9v-0.9c-0.2 0.2-0.5 0.2-0.8 0.1h-0.3c-0.3-0.3-1.6-1.9-1.9-2.4-0.7-0.7-1.1-1.7-1-2.8v-0.9l-0.1-0.1zm-5.4-32.8c0.7-1.2 2.4-1.5 4.1-1.9 0.6-0.1 8.3-1.1 10.5-1.3l5.6-0.3h1.4c0.5 0.1 1 0.4 1.3 0.7v-1.2c-5.6 0-4.7 0.2-11 0.6-2.8 0-5.6 0.2-8.4 0.2-0.3 0-0.7 0-1 0.2l-1.4 0.6c-0.6 0.2-1.1 0-1.2-0.5v2.8l0.1 0.1zm12.6 38.8 2.1-0.7c0.4-0.6 0.7-1.3 1.1-2-1.2 0.9-2.3 1.9-3.2 2.7zm6.1-11.5c-2-4.8-1.8-6.4-1.7-6.8-1.9 3-3.6 6.2-5.2 9.4-0.5 1.2-0.7 2.3-0.7 3.6l-0.3 5.1 2.2-2.1c1.7-1.5 2-1.6 3.8-2.7 0.3-0.9 0.6-1.8 0.9-2.6 0.4-1.2 0.7-2.5 1-3.7v-0.2zm-11.8 7.5c0.1 0.3 0.3 0.5 0.5 0.7l0.9 1.2v-2.8-0.2l-1.4 1.1zm1.6-2.7v-1.7c0.1-0.6 0.3-1.4 0.5-1.9l1.1-2.6c2.3-4.5 7.2-11.3 10.1-15.3 0 0-0.2-1.1-0.3-2l-0.4 0.4c-3.5 4.2-11.1 13.3-12.1 19.9l-0.7 4v0.2l0.9-0.6 0.8-0.4h0.1zm13.8-63.1v0.2c-0.5 0.7-1.2 0.9-1.7 0.3l-2-2.8c-1-1.5-3.6-5.9-4.4-7.6-0.4-0.8-3.8-7.6-4-8.5l-0.3-3.6c-0.4 0-0.8 0-1.2-0.2h-0.2v1.2l0.2 3.8 0.3 1.5c0.4 1.4 1 2.7 1.6 4 2.5 4.8 6.7 11.1 10.3 16 0.1-0.6 0.3-1.3 0.6-1.9l0.9-1.8v-0.7l-0.1 0.1zm-12.5-23.4v-1.3c-0.4 0.3-0.6 0.5-0.5 0.5-0.2 0.2-0.3 0.4-0.4 0.6 0.3 0.1 0.6 0.2 0.9 0.2zm-9.8 38.7c0 1.9-0.1 3.9-0.2 5.7v6.2l0.2-8.5v-3.5 0.1zm296.9-104.7c0.2-5.8 4.9-12.2 11.4-11.4 2.7 0.3 5.1 1.8 6.6 4 1.6 2.3 2.4 5 2.3 7.8 0 5.4-3.8 11.5-9.8 11.8-2.9 0.2-5.7-1-7.6-3.3-2.2-2.5-3.2-5.7-3-9l0.1 0.1zm11.2-9.9c-2.4-0.2-4.8 0.7-6.5 2.4-2.1 2.1-3.1 4.7-3.3 7.6-0.2 3 0.6 5.7 2.6 8 1.6 1.9 4 2.9 6.4 2.7s4.5-1.4 6-3.3c3.1-4.1 3.3-9.8 0.4-14.1-1.3-1.9-3.3-3.1-5.6-3.3zm23.6 6.7c-2.7 1.9-3.9 3.2-6.2 5.6-0.8 0.8-1.5 1.7-2.2 2.6 0 0.2-0.1 0.3-0.1 0.5 0 0.4 0.5 0.8 0.8 1.1l1.1 0.7c0.7 0.4 1.2 0.8 0.7 1.6-0.2 0.5-4.3 3.9-5 4.5l-0.9-1.1 4.4-3.8c-0.7-0.4-1.5-1-2-1.6-0.6-0.7-0.7-1.8-0.2-2.6s1.7-2.1 2.4-2.8c4.2-4.9 8-7.5 14.3-8.8 1.2-0.3 2.4-0.7 3.5-1.2 1-0.6 1.8-1.3 2.7-2.1l1 1c-0.9 0.9-1.9 1.6-2.9 2.3-1 0.6-2.8 1.2-3.9 1.4-2.6 0.5-5.1 1.5-7.5 2.7z"/>
	<path class="st1" d="m651.6 121.9-0.9-0.2-0.5-0.5-0.2-0.6v-1.7c-0.1-0.5 0.3-0.8 0.7-0.9l1.2-0.3 14-1.4 13.6-0.9h1c0.4 0 1 0.2 1.4 0.4 0.8 0.5 1.8 2 2.3 2.8 2.2 3.4 3.7 6.3 4.3 10 0.4 1.7 0.5 3.5 0.4 5.3 0 1.5-0.3 3.3-0.8 4.7l-2.7 6.7c-0.1 0.3-0.3 0.7-0.6 1-0.9 0.8-7.7 1.5-9.3 1.6l-24 2.4h-2.2c-0.7 0-0.9 0-1.5-0.5l0.6-2.9c0-0.3 0.2-0.5 0.4-0.7l0.4-0.2 0.8-0.2 12.9-1.5c6.3-0.7 6.3-0.9 12.6-2 2.1-0.4 3.8-1.1 5.4-2.4 1.1-1.1 2-2.5 2.6-4 0.7-2 1.3-5.2 0.5-7.4-0.5-1.3-1-2.5-1.7-3.7-0.6-1-1.3-1.9-2.1-2.7l-1.2-1c-1.6-0.2-17.4 0.6-20.3 0.8-7.8 0.3-6.6 0.1-6.9 0h-0.2zm-2.9 11.7 0.2-3.7c1.5 0 12.6-0.5 14-0.1l0.6 0.3c0.4 0.6 1.9 4.9 1.7 5.6-0.1 0.7-0.9 1-1.4 1.1-2.5 0.5-12.6 0.9-15.5 0.9l0.5-4-0.1-0.1zm28.5 2.5c-0.9 1.5-2.7 2.8-4.5 2.7-1.7 0-3.2-0.9-4.2-2.3s-1.6-3.1-1.5-4.8c0-1.5 0.4-3.1 1.3-4.4 1.3-2.4 4.4-3.4 6.8-2.1 0.7 0.4 1.4 1 1.8 1.6 1 1.4 1.6 3.1 1.5 4.8 0 1.6-0.4 3.1-1.3 4.4l0.1 0.1zm-378.2-23.3c7.9 0 15.8 0 23.7 0.3 10.4 0.3 20.7 0.8 31.1 1.4 3.7 0.2 21 1.1 23.3 1.8 0.7 0.2 1.3 0.6 1.2 1.4-0.1 1.3-1.4 3.6-2.8 3.7h-2.9l-15.7-0.9-46.2-2.2c-6-0.2-8.7-0.1-14.6 0.1-3 0.1-5.5 0.5-8.4 1.5-2 0.8-3.4 1.9-5 3.3l-5.1 4.7c-1.9 1.6-2.8 2.8-3.3 5.1 0 0.6 0.9 1.8 1.3 2.2 1.3 1.2 3.3 3 5.1 3.6 1.4 0.4 2.4 0.5 3.8 0.6 12.3 0.9 24.6 1.7 36.9 2.2l52 2.9c1.9 0 5.9 0.4 7.8 0.8 1 0.2 1.9 0.8 2.3 1.7l1.1 2.2c0.1 0.3 0.1 0.5 0.1 0.8l-0.3 0.4-0.5 0.2h-5.1l-61.3-3.9-23.2-1.4c-4.3-0.2-8.8-0.7-13.1-1.3-2-0.3-4-0.9-5.8-1.9-1-0.5-2.3-1.4-3-2.2-0.9-1-1.9-1.9-2.9-2.7-1.2-1.2-2.9-3.8-3-5.6l0.3-0.7c0.7-1.2 5-5.3 6.4-6.5 2.4-2.2 5-4.5 7.5-6.6 1.6-1.3 3.7-2.7 5.7-3.5 3.2-1.4 8.8-1.7 12.7-1.6l-0.1 0.1zm36.6 18.9c3.9-3.8 3.6-3.2 4-3.3l1.4-0.2c5.2-0.5 26.5 0.3 32.7 0.6 2 0 3.2 0.5 3.7 2.4l1.5 5.4c0.2 1-0.3 1.7-1.4 1.7-9.3-0.2-18.5-0.7-27.7-1.4-3.3-0.2-6.6-0.5-9.8-1-1.6-0.2-3.1-0.7-4.6-1.4-0.6-0.3-1.2-0.7-0.9-1.4 0.2-0.4 0.8-1.1 1.2-1.4h-0.1zm-28-7.8c1.3-1.4 3.3-2.3 5.2-2s3.6 1.3 4.6 2.9c1.1 1.6 1.7 3.5 1.6 5.5 0 2-0.6 3.9-1.8 5.5-2.5 3.5-7.6 3.6-10.1 0.4-1.4-1.8-2.2-4-2.1-6.3 0-2.3 1-4.5 2.6-6.1v0.1z"/>
</svg>
