<?xml version="1.0" encoding="utf-8"?>
<!-- Generator: Adobe Illustrator 27.2.0, SVG Export Plug-In . SVG Version: 6.00 Build 0)  -->
<svg version="1.1" id="a" xmlns="http://www.w3.org/2000/svg" xmlns:xlink="http://www.w3.org/1999/xlink" x="0px" y="0px"
	 viewBox="0 0 710.1 309.7" style="enable-background:new 0 0 710.1 309.7;" xml:space="preserve">
<style type="text/css">
	.st0{fill-rule:evenodd;clip-rule:evenodd;fill:#666666;}
	.st1{fill-rule:evenodd;clip-rule:evenodd;fill:#FFFFFF;}
</style>
<path class="st0" d="M29.2,116.6l0.6-0.4v0.2c0.1,0,0.2,0,0.2,0c3-1.8,6.7-3.6,9.9-4.9c3.9-1.5,7.4-3.3,10.5-6
	c1.7-1.8,3.1-3.7,4.5-5.8l11-16.8c6.2-9.3,9.5-13.8,16.5-21.4c2.3-2.6,4.6-5.2,7-7.7c2.7-2.9,5.6-5.7,8.6-8.3
	c3.3-2.9,6.7-5.8,10.2-8.5c8.2-6.6,15.6-11.5,24.6-16c10.2-5.2,20.7-9.7,31.8-12.5c4.1-1.1,11.3-2.6,16-2.2l0,0c0.7,0,1.4,0,2.1,0
	c14-2.5,28.8-4,43.1-4.7c11.8-0.7,23.5-1.1,35.3-1.4c32.3-0.9,74.9,0.6,106.6,4.3c10.5,1.3,21.1,2.6,31.6,3.8
	c1.2,0.2,12.7,2.2,13.8,2.5c0.9,0.3,1.6,0.3,2.5,0.4c1.7,0,3.3,0.3,4.9,0.6c7.2,1.3,13.7,3.5,20,7c5.7,3,11.2,6.1,16.6,9.5
	c5.8,3.6,11.6,7.3,17.3,11.1c9.9,6.5,18.3,12.6,27.7,19.7c0.4,0.3,0.8,0.5,1.2,0.6l9.6,0.9l6.4,0.9h2.3c5,0,8.7,0,13.2,1
	c4.5,0.9,8.2,2.4,11.5,5.5l0.9,0.8c0.5,1.4,1,3,0.2,4.1c1.3,0.6,2.6,1,4.1,1.2c10.1,0.7,20.2,1.5,30.2,2.6l13.7,1.2
	c1.5,0,3.9,1.2,5.4,2c5.7-0.2,16.1,0.3,22.8,0.6c3,0,10.6,0.6,13.4,1.1c3.3,0.5,6.5,1.1,9.7,2l8.7,2.4c2.3,0.7,5,1.7,7.2,2.7
	c6.3,2.9,11.2,7.2,15.2,12.7l6.7,9.4c0.5,0.8,0.7,1.5,0.2,2.2l-1.3,2l0.9,1.5c2.6,3.6,4.2,6.1,5.1,10.4c1,4.4,0.8,7.5-0.5,11.6
	l6,13.5l2.8,1.9c0.6,0.6,1,1.7,1,2.6l0.5,3.9c0.2,0.9,2.8,10,3.8,13l2.7,8c0.6,1.9,1.1,4.3,1.2,6.4c0,0.3,0.1,0.6,0.1,0.9
	c0.2,3.8,0.3,7.7,0.1,11.5c4.9,17.8,3.9,36.9-1.6,54.4l0,0c1.5,1.5,2.5,2.4,4.1,3.7l0.4,0.4l0.5,0.6c1.1,3-7.7,6.4-9.5,7
	c-4.8,10-11.6,18.9-20,26.2l0,0c-2.7,2.1-7.4,4.6-10.5,6c-3.4,1.5-6.8,2.7-10.4,3.8c-0.5,0.3-1.1,0.6-1.6,0.9l-0.2-0.3
	c-2.8,0.8-5.7,1.5-8.5,2c-0.4,0.2-0.7,0.4-1.1,0.6l-0.2-0.3l0,0c-3.8,0.7-7.7,1.3-11.7,1.8c-0.6,0.2-1.3,0.4-2,0.6v-0.4
	c-5,0.5-9.9,0.9-14.7,1.2c-0.9,0.2-1.9,0.4-2.8,0.5v-0.4c-0.1,0-0.1,0-0.2,0c-8.6,0.6-17.1,0-25.1-1.9c-1,0-2.1-0.2-3.1-0.4v-0.4
	c-16.3-4.3-30.8-13.6-41.6-27.4c-24,0.7-83.3,1.7-109.9,1.7l-59.3-0.4c-1.7,4.4-3.5,8.1-6.6,11.7c-1.5,1.8-3.2,3.3-5.1,4.6
	c-2.3,1.6-4.9,2.6-7.7,3c-1.2,0.2-2.5,0.4-3.9,0.5c-0.5,0.2-1.1,0.3-1.6,0.5v-0.3c-1.8,0.1-3.7,0.2-5.6,0.3
	c-0.4,0.1-0.9,0.3-1.3,0.4v-0.3c-2.3,0-4.5,0-6.8,0c-0.5,0.2-1.1,0.3-1.7,0.3v-0.3c-3.1,0-6.1,0-8.7,0c-0.8,0.2-1.6,0.3-2.5,0.3V300
	c-0.5,0-0.9,0-1.3,0c-2.5,0-6-0.3-9-0.9c-0.5,0-1,0-1.5,0v-0.3c-0.7-0.2-1.4-0.4-2.1-0.6c-2.4-0.8-5.8-2.9-8-4.5
	c-2.5,2.8-5.2,5.5-8.1,7.9c-2.6,2.2-6.7,5.8-10.7,5.8l-4.2,0.2c0,0-0.2,0.1-0.3,0.2v-0.2c-0.1,0-2,0.1-2,0.1l-10.2,0.2
	c0,0-0.2,0.1-0.3,0.2l0,0c0-0.1-13,0.2-13,0.2c-0.3,0.1-0.7,0.2-1,0.3v-0.3h-0.2l-14.2,0.5c-0.5,0-0.9,0.2-1.4,0.2v-0.2
	c-5.5,0.3-11.1,0.4-16.6,0.4c-7,0.2-13.2-1.1-19.7-3.9c-0.6-0.2-1.2-0.4-1.7-0.6v-0.2l0,0c-11.9-4.3-19.6-13.6-25.4-24.2
	c-4.6,0.1-10.3,0.1-14.8-0.1l-17.1-1c-6.6-0.4-12.7-0.6-19.3-0.6c-6.3,0.1-11.8,0.4-18.2,0.7c-6.9,0.4-13.8,0.4-20.7,0.2
	c-1,4-2.2,7.9-3.7,11.7c-1.2,3.2-3.3,7.5-6.1,9.9c-0.4,0.3-0.9,0.6-1.4,0.6l-8.5,0.5l0,0l0,0h-0.3l-9.8,0.3c0,0-0.1,0-0.2,0l0,0
	l-10.5,0.3c-0.1,0-0.3,0-0.4,0.1l0,0l-10.5,0.2c-4.8,0.2-9.6,0.2-14.4,0c-1.7,0-3.4-0.4-4.9-1h-0.3V302c0,0-0.1,0-0.2,0
	c-1.8-0.7-3.4-2.1-4.3-3.8c-4.4-6.6-7-19.5-8.1-28.5c-1.2-10.2-1.7-20.6-1.5-30.9c0.1-9.1,0.8-18.1,2.1-27.1l0,0l0,0
	c0-0.1,0-0.3,0-0.4c-0.3-3.5-0.9-12.1-1-15.1s0-8.7,0.4-11.6l1.2-9.5l1.2-14.4l1.1-9c0.7-5.7,3.9-19.8,7.7-24.9l0.6-0.8l0,0
	c-0.7-0.2-1.4-0.8-1.3-1.6c0.3-1.7,1.3-3.3,2.7-4.2c1.7-1.1,3.5-2,5.5-2.5c1.6-0.5,3.3-0.8,5-1l2.8-0.4L29.2,116.6z M450.7,150.6
	l129.8,0.2h23.7c0,0.1,3.1,0.3,3.1,0.3c0.9,0,1.9,0.3,2.7,0.7c0.8,0.4,8.2,4,11.4,5.6l-0.5-1.1c-0.8-1.5-1.8-2.9-2.9-4.1
	c-1.4-1.4-3.2-2.3-5.1-2.6c-4-0.5-6.8-0.6-10.8-0.5l-72.7-0.3h-61.2l-8.1,0.3c-2.6,0-4.3,0-6.8,0.5c-0.8,0.2-1.6,0.5-2.3,0.9
	c0,0-0.2,0.1-0.2,0.2L450.7,150.6z M622.3,159.2L622.3,159.2c-4.3-2-8.6-4.1-12.9-6.2c-0.7-0.3-1.4-0.5-2.2-0.5l-3-0.2
	c-3.2,0-137.7-0.3-155-0.3c-0.6,0.7-1.1,1.4-1.5,2.2c-0.8,1.7-1.3,3.4-1.7,5.3l0,0l-0.2,0.5l-0.5,0.3c-0.6,0-0.8,0-1.4,0
	c-2.2-0.2-5.1-0.5-7.3-0.9l-26.2-5.2c-0.9,0.4-1.9,0.6-2.9,0.6c-1.2,0.1-3.5,0.2-4.7,0c-0.3,0-0.7-0.3-1-0.5l-0.5-0.6
	c-1.7-2.1-4.4-7.8-5.6-10.5c-1.3-2.9-2.5-5.9-3.5-8.8c-0.6-1.6-1.1-3.2-1.5-4.9c-0.2-0.7-0.3-1.3-0.3-2l-0.2-2v-0.8l0.7-3
	c0.3-1.6,0.6-3.1,1.1-4.7l0.3-0.7l0.7-0.6c0.6-0.2,1.1-0.3,1.7-0.3l85.2,0.2l45.8,0.6c14.8,0,29.6,0,44.4-0.1c5.5,0,30-0.2,35.5,0
	c0.4,0,0.8,0,1.1,0l0,0h9.7l0,0c9,0.3,18,0.5,27,0.6h0.4l0.5,0.2l0.5,0.6c0.1,0.2,0.3,0.4,0.4,0.7v-0.4l0.5-0.4
	c1.5-0.7,5.3-1.3,8.3-1.7c-4.2,0.3-8.2,0.6-10.7,0.7l-15.4-0.3c-29.9-0.6-33.8-0.4-63.7-0.4l-82.2-0.6c-34.1,0-75.9-0.5-108.4-2.3
	c-19.7-0.9-27.6-1.2-47.3-2c-12.7-0.5-16.6-0.5-29.4-0.5c-3.6,0-6,0.2-9.6,0.7c-1.6,0.2-2.6,0.5-4.1,1.1c-1.7,0.7-2.4,1-4,2
	c-5.1,3.2-8.8,6.6-12.8,10.7c-1.9,1.9-2.4,2.5-4.1,4.6c-0.8,0.9-1.1,1.5-1.5,2.6c-0.2,0.5-0.2,1,0,1.4l0.5,1.7
	c1.7,5.1,4.5,10.6,9.2,13.5c2,1.1,4.1,2,6.3,2.5c5.7,1.3,29.3,3.8,37.8,4.6c14.2,1.2,56.5,4.7,73.7,5.8c11.5,0.7,23,1.2,34.6,1.4
	c27.6,0.4,93.1,0.3,129.9,0.4l71.9,0.3l20.2-0.2c6.3,0,12.5-0.4,18.8-0.9c10.4-1,24.3-3.3,33.5-6.7c0-0.1-0.2-0.3-0.3-0.4l-2.7-1.9
	c-1.8-0.9-6.6-3.1-8.5-3.9l0,0c-0.2,0-0.6,0.2-0.8,0.3l-2.2,0.5c-8.2,1.6-34.5,5.9-39.7,5.1l-0.7-0.2l-0.4-0.3l-0.2-0.4
	c0-0.3,0-0.6,0.1-0.9l0.5-1.2c-0.4,0.9-0.9,1.6-1.3,2.1c-1,1.1-2.5,1.9-4,1.4l-1.8,1.6c-0.8,0.7-1.8,1.1-2.8,1.4
	c-1.5,0.4-3,0.6-4.6,0.7c-1.2,0.2-3.7,0.4-4.9,0.1c-0.3,0-0.5-0.2-0.7-0.4L622.3,159.2z M382.7,60.8c5,0,10,0,14.4,0.2
	c5.6,0.2,13.1,0.9,18.6,1.8c3.1,0.5,6.3,1.4,9.3,2.4l0,0c1.1-1.3,14.7-2,17-2c32.5-1.2,50.7-1.4,82.1,1.6c1.3,0.1,2.6,0.2,3.8,0.4
	c-2.1-0.6-4.3-1.1-6.4-1.5V63c0.1,0-2.1,0-2.1,0l-6.4-0.9l-9.8-0.9l0,0v0.7c-8.6-0.5-17.2-0.8-25.8-1l-36.1-0.5
	c-10.2,0-30-0.2-41.1,0l-17.6,0.4H382.7z M425.9,67L425.9,67c-3.4-1.2-6.9-2.2-10.5-2.8c-6.1-0.9-12.2-1.5-18.4-1.8
	c-12.3-0.3-24.7-0.3-37,0.2l0,0c-12.8,1.8-15.2,2.3-29.3,4.6c-4.8,0.8-11.8,1.6-18.4,2.3c-3.2,2.1-7.7,3-11.6,3.2
	c-6.6,0.6-13.2,1.1-19.8,1.4l-19.6,1.4c-0.6,0-1.3,0.1-2,0.2c4.2,0,8.3-0.1,12.5-0.1c2.2,0,4.4,0,6.6,0l28.4-0.4
	c26.4,0,52.8-0.3,79.2-0.8c22.3-0.4,12.2-0.4,34.6-1.1c4.7-0.2,8.4-0.5,13-1.4c2.2-0.5,4.4-1,6.5-1.6c-3.4-0.8-7.3-1.7-12.3-2.9l0,0
	l0,0c-0.4-0.1-0.8-0.2-1.3-0.3c-0.2,0-0.4-0.1-0.6-0.2L425.9,67z M29.6,117.9l-1.9,1.1c2.2-0.7,4.5-1.4,6.8-1.9
	c1.7-0.4,3.6-0.8,5.5-1.1c1.7-1.4,4.3-3.2,6.2-4.2l11.3-5.7c1-0.8,2.5-4.1,3.1-5.5l2.8-6.9c1.2-3.1,3.3-8.3,5.1-12.2
	c-0.5,0.7-1,1.4-1.5,2.2l-11,16.8c-3,4.6-5.5,7.5-10.4,9.9c-1.7,0.9-3.4,1.7-5.2,2.4c-2.6,1.1-5.2,2.4-7.7,3.7l-2.2,1.3L29.6,117.9
	L29.6,117.9z M19.3,123.8c-0.8,0.5-1.5,1-2.2,1.7l0,0l-2.2,2.6c-1.2,1.9-2.3,4-3,6.1c-1.1,3.1-2,6.2-2.8,9.3
	c-0.7,2.9-1.3,5.8-1.7,8.8l-1.1,9l-0.5,6.5c1.8-9,5.6-16.1,13.2-22.6c1.8-1.6,4.3-3.2,6.5-3.9c3.9-1.3,6.8,1.5,8.5,4.6
	c0-1.5,0.2-2.9,0.4-4.4c0.3-3.1,0.7-6.1,1.3-9.2c0.6-3.3,1.4-6.5,2.2-9.8c0.5-1.7,0.9-3.3,1.5-4.9c-1.5,0.3-3.1,0.6-4.6,0.9
	C29.5,119.8,24.3,121.6,19.3,123.8L19.3,123.8L19.3,123.8z M15.3,125.1c1.5-1.6,3.2-2.8,5.2-3.7l4.8-2.6l0.4-0.2
	c-3.3,0.5-6.3,1.3-9,3.2c-0.9,0.6-1.5,1.5-1.9,2.5l-0.2,0.7C14.7,125,15,125.1,15.3,125.1L15.3,125.1z M549.3,75.1
	c2.3,1.9,4.5,4,6.6,6.2c2.3,2.5,5.5,6.9,7.4,9.8c3.4,0.1,6.7,0.2,9.7,0.4c5.2,0.2,14.5,0.5,19.7,0.9c6.8,0.5,21.7,1.8,28.4,2.5
	l9.4,0.7h0.2c-1.6-0.6-3.1-1.2-3.7-1.4c-9.4-3.7-18.1-7.3-26.8-12.3l0.3-0.5c-1.2-0.6-2.3-1.1-3.5-1.6c-0.4-0.2-0.8-0.2-1.3-0.3
	l-13.9-1.2c-10-1.1-20.1-1.9-30.2-2.6c-0.9,0-1.8-0.2-2.5-0.5L549.3,75.1z M561.5,91c-2.1-3.1-4.3-6-6.7-8.8c-2.8-2.9-5.7-5.6-8.9-8
	l-3.8-2.8c-1.5-0.9-3-1.8-4.7-2.6c0.8,1.1,1.2,2.4,0.7,3.8c-0.2,0.5-0.5,1-0.9,1.3c-1.4,1.1-3.2,2.1-4.9,2.7
	c-1.6,0.6-3.2,0.9-4.9,0.9c-4.7,0.2-9.5,0.2-14.3,0.1L468,77.1c6.9,2.7,15.3,6.5,20.3,8.9c1.9,0.8,4.4,2.3,5.8,3.8
	C518,89.8,542.2,90.3,561.5,91L561.5,91z M209.9,79.9v-1.6l-10.8,1.5c-0.1,0-0.3,0-0.4,0V80l-3.3,0.7l0,0c-4.2,0.4-8.4,1.4-12.3,2.9
	c0.1,0.5,0.2,0.9,0.4,1.4c5.6-1.7,16.7-3.6,26.6-5.1H209.9z M211.3,78.1v1.6c5.6-0.8,10.8-1.5,14.2-1.9c1-0.1,27.7-2.9,35.6-3.6
	l19.6-1.4c6.6-0.3,13.2-0.8,19.8-1.4c2.9-0.2,5.1-0.5,7.8-1.4c-1.8,0.2-3.5,0.3-5.1,0.4l-38,2.6c-15.2,1.2-30.4,2.6-45.6,4.2l0,0
	c0,0-0.1,0-0.2,0C216.7,77.5,214,77.8,211.3,78.1L211.3,78.1z M493.9,59.9c-4.5-3.9-15.9-11.8-20.3-14.8
	c-10.8-7.2-11.8-7.8-22.8-14.8c-10.2-6.5-5.2-3.3-15.5-9.6c-0.6-0.4-1.1-0.7-1.7-1c6.6,4.6,11.9,8.1,18.9,12.7
	c4.8,3.1,12.2,8.1,16.9,11.4l22.1,15.9l0,0c0.8,0.1,1.6,0.1,2.3,0.2H493.9z M429.5,16.3L429.5,16.3c2.3,0.9,4.5,2,6.5,3.3
	c5.2,3.1,10.4,6.3,15.5,9.6c14.1,8.9,26.8,17.1,40,27.1c1.6,1.1,3.1,2.4,4.5,3.8c1.8,0,3.7,0.2,5.4,0.3L488.6,51
	c-14.3-10.2-33.4-22.6-48.8-30.8c-3.5-1.9-6.7-3.3-10.5-4.6c-2-0.7-6-1.7-9.5-2.4l7.4,2.2c0.7,0.2,1.6,0.5,2.2,0.9L429.5,16.3z
	 M426.4,16.6l-11-3.3l0.2-0.7l0,0c-1,0-1.9-0.1-2.9-0.4c-4.5-0.9-9.1-1.7-13.6-2.5l-31.6-3.8c-12.7-1.4-25.4-2.4-38.2-3.2
	c-12-0.7-24-1.1-36-1.3c-11.4-0.2-20.9-0.1-32.3,0.2c-26.5,0.7-47.7,1.4-72.5,5.1c0,0-2.5,0.4-3.8,0.7l1.3,0.7
	c0.6,0.4,1.4,1.3,1.8,1.9l1.2,1.8c0.3,0,0.5-0.1,0.8-0.1c0.2,0,44.2-3.8,54.8-4.6c10.6-0.8,23.8-1.4,34.4-1.6
	c12.9-0.3,25.9-0.2,38.8,0.2c39.5,1,70.3,3.1,108.2,10.9H426.4z M67.5,100.5l5.9-16.3c2.6-7.2,5.9-11.4,11.2-17l4.1-4.5l1.8-1.2
	l-0.6,2.2l-5.5,11.8c-3.1,7.8-5.9,15.7-8.5,23.7c0.2,0,0.5,0,0.7-0.1l4.9-13.9c1.3-3.5,3.2-8.4,4.7-11.8c1.5-3.6,3-7.2,4.7-10.7
	c0.8-1.8,1.7-3.7,3.3-4.9c5.1-4.2,10.3-8.3,15.6-12.2c2.9-2.2,5.9-4.3,9.1-6.2c2.5-1.6,5-3.1,7.5-4.5c1.1-0.7,2.3-1.2,3.5-1.6
	l0.4-0.7c-0.6,0.3-1.1,0.6-1.9,1.1c-4.1,2.3-8.1,4.6-12,7.1c-3.5,2.2-6.6,4.3-9.9,6.8l-10,7.8C91,60,81.1,69.2,76.7,75.7
	c-1.8,2.9-2.8,5-4,8.2c-2.3,5.6-4.6,11.3-6.7,16.9C66.5,100.8,67,100.6,67.5,100.5L67.5,100.5z M74.3,99.5
	c2.6-8.3,5.6-16.4,8.7-24.5l0,0l3.7-8l-1.1,1.2c-2.5,2.7-4.2,4.6-6.3,7.5c-1.9,2.8-3.4,5.8-4.5,8.9l-5.7,15.6
	c1.9-0.3,3.6-0.5,5.2-0.8L74.3,99.5z M153.1,19.1c10.9-3,15-3.3,18.7-2.7c2.9,0.5,4.2,2.2,4.9,4.3c-0.6-2.5-2.2-4.7-4.9-5
	c-4.6-0.5-11.7,1.1-16.6,2.7C154.5,18.6,153.8,18.8,153.1,19.1L153.1,19.1z M178.7,30.2L178.7,30.2c0,0.1,0,0.1,0,0.1
	c0.4,7.7,0.7,10.6,1.4,21.9c0.5,8.1,1.1,16.3,1.8,24.4c0.1,2.1,0.3,3.8,0.6,5.6c3.8-1.4,7.8-2.4,11.8-2.8l-2.5-23L190,38.6
	l-1.6-14.1c-0.6-4.3-0.8-5.5-1.6-9.8c-0.3-1.7-1-4.4-2.1-5.5l-1.3-1l-0.5-0.3l0,0l-0.2-0.2c-0.7,0-1.6,0-2.3,0c-2,0-4.1,0-6.1,0.3
	c-7.5,1-16.5,3.6-23.9,6.5c-9.2,3.7-21.6,9.6-30.2,15.2c-9.5,6.4-22.1,16.6-30.1,25.1c-3.7,4-3.4,3.6-7,7.7c-1,1-1.9,2.1-2.8,3.2
	c8.6-9.2,18.8-19,27.6-25.1c9.8-6.8,20.4-13,31.4-17.7c8.1-3.6,17.2-7,26.1-8.3c2.1-0.4,4.3-0.4,6.4-0.2c1.3,0.1,2.5,0.6,3.5,1.5
	c0.8,0.7,1.5,1.5,1.9,2.6c0.7,1.3,1,2.8,1.1,4.3c0.1,3,0.3,5.5,0.4,7.6L178.7,30.2z M177.2,30.2l-1-5.5l-1-3.8
	c-0.2-0.7-0.6-1.4-1.1-1.9c-1.8-1.7-5.7-1.8-8.3-1.4c-3.8,0.6-7.5,1.3-11.1,2.4c-5.2,1.5-10.4,3-15.5,4.6c-3.5,6-6.9,12.1-10.2,18.2
	c-2.7,5.1-5.3,10.3-7.8,15.5c0.5-0.1,1-0.3,1.6-0.4L136.2,32l2.3-4.1c0.7-1.3,1.6-2,3-2.4c3-1,6.1-1.9,9.2-2.7c4-1,8.1-1.8,12.2-2.3
	c2.4-0.3,5.3-0.3,7.7,0.3c0.9,0.2,1.8,0.9,2.4,1.6c0.4,0.6,0.8,1.6,0.9,2.4c0,0.2,0,0.4,0,0.6l0,0l0,0c0.4,3.2,0.7,7.7,0.8,10.8
	l1.4,19.6V56l0,0l0,0c0,0.1,1.3,14,1.3,14l1.4,10.5l2-0.7c-0.1-1.1-0.2-2.2-0.3-3.4c-0.7-8.1-1.3-16.3-1.8-24.4
	c-0.3-4.3-1-14.4-1.4-22L177.2,30.2z M119.4,59c2.7-5.6,5.5-11.2,8.4-16.7c2.6-4.8,6.4-11.7,9.4-16.9c-4.1,1.9-8.2,3.9-12,6.1
	c-5.6,3.2-11,6.6-16.3,10.3c-4,2.8-7.8,5.9-11.4,9.1c-8,7.3-15.3,14.8-22.4,23c-1.5,1.8-2.9,3.6-4,5.7c-2.7,5.5-4.1,9-6.4,14.7
	l-2.8,6.9c0,0,0,0.1,0,0.2c0.9-0.2,1.9-0.3,2.7-0.4c2.2-5.9,4.6-11.9,7-17.7c2.1-5.6,4.7-9.8,8.6-14.1c2.3-2.5,4.6-4.9,7-7.2
	c2.1-2.1,6.2-5.9,8.5-7.7l10-7.8c2.9-2.2,6.9-4.9,10.1-6.8c3.9-2.5,7.9-4.8,12-7.1c1.2-0.8,2.5-1.4,3.8-2c0.4-0.2,1,0.1,1,0.6v0.2
	c0,0.4-8.5,15.7-8.8,16.4c-2,3.9-3.9,7.8-5.7,11.8C118.5,59.4,119,59.3,119.4,59L119.4,59z M175,60.2l-3.3,11.6h2.2
	c1,0,1.8,0.2,2.4,0.8l-0.3-2.3l-0.9-10.2L175,60.2z M170.2,71.9l4.4-15.7l0,0c0-0.1-1.4-19.8-1.4-19.8c-0.1-3.5-0.4-6.9-0.8-10.3
	c-0.5-0.6-1-1.2-1.7-1.7c-0.4-0.2-0.9-0.4-1.4-0.5h-1.9c-6,0-12.5,1.7-18.4,3.3c-1.5,0.4-6.7,1.8-7.8,2.8l-0.8,1.2
	c-0.6,1-10.1,20.4-12.8,26c2.4-0.3,4.7-0.6,6.9-0.7c4.8-0.3,9.6-0.4,14.5-0.2c3,0,6.8,0.5,9.7,1.3c1.7,0.5,3.4,1.6,4.6,2.9
	c2.7,2.7,1.2,6,1.5,9.2l0.2,1.2c0.2,0.5,0.8,0.9,1.4,0.9h3.8V71.9z M113.3,64.2c0.9,0.5,1.8,0.9,2.7,1.4l0.7,0.2L149,65
	c4.5,0,7.5-0.2,11.9-0.9c0.8-0.2,1.6-0.5,2.2-1c-0.8-1.9-3-3.4-4.9-4c-8.8-2.3-26.3-1.3-34.9,0.3c-2.3,0.4-7.3,1.8-9.4,3.9
	c-0.3,0.3-0.5,0.6-0.7,1L113.3,64.2z M163.4,64.6c-0.7,0.4-1.4,0.7-2.2,0.9c-3.7,0.7-8.4,1-12.1,0.9l-32.5,0.8c-1,0-2.7-1-3.9-1.6
	c-0.1,0.3-0.2,0.6-0.2,1c-0.4,2.8-0.3,3.3-0.3,6.2c0,0,0,0.1,0,0.2l0,0v0.2c0,0.7,0,1.4,0,2h10.2l18.8-0.5c4.4-0.2,8.8-0.4,13.2-0.7
	l0,0c2.4,0,3.8-0.2,6.1-0.8c1.1-0.4,2.2-0.9,3.1-1.5c-0.2-0.5-0.3-1.1-0.3-1.7v-5.3L163.4,64.6z M117.7,85.6l-2.4,9.5
	c10.9-1,25.2-3.7,33.4-5.6c5.8-1.3,11.6-2.9,17.4-4.6h0.4c0-0.1,0-0.3,0-0.3c-1.6,0.2-3.3,0.2-4.9,0.1c-0.9,0-1.8,0.1-2.6,0.4
	c-0.6,0.2-1.2,0.5-1.8,0.8l-0.9,0.6c-1.4,0.7-4.1,1.1-5.7,1.1c-8,0.5-16,0.5-24,0c-1.6,0-3.3-0.3-4.9-0.6c-1.3-0.2-2.6-0.7-3.8-1.4
	H117.7z M113.7,95.2l2.7-10.4c0,0,0,0-0.1,0s-0.2-0.2-0.3-0.2l-2.5,10.8c0,0,0.2,0,0.3,0L113.7,95.2z M111.9,95.3l2.8-11.9
	c-0.6-0.6-1.2-1.3-1.7-2l-4,14.1C109.9,95.5,110.9,95.5,111.9,95.3L111.9,95.3z M107.5,95.5l4.5-15.9c-0.4-0.9-0.8-1.9-1-3
	l-6.3,18.9c0.9,0,1.8-0.1,2.5,0C107.2,95.5,107.3,95.5,107.5,95.5L107.5,95.5z M162,77.3l-36.3,0.9c-4.1,0-8.6,0-12.8-0.4
	c0,0.2,0.2,0.5,0.3,0.7c0.9,2.2,2.2,3.7,4.1,5.1c1.3,1,2.5,1.6,4.1,1.9c1.8,0.4,3.4,0.6,5.2,0.7c6.5,0.4,13,0.4,19.4,0.2l3.9-0.2
	c1.7,0,3.1-0.2,4.7-0.7l0.9-0.3c0.8-0.5,1.6-0.9,2.3-1.2v-0.2c-0.2-1.7,0.2-2.5,1.3-3.8C159.6,79.4,160.9,78.3,162,77.3L162,77.3z
	 M116,76.5c3.2,0.2,6.4,0.3,9.7,0.2l38.4-0.9c0.2,0,0.5,0,0.7-0.2c0.7-0.4,1.7-1.3,2.6-2.2h-0.8c-0.5,0-1.1-0.2-1.6-0.5
	c-0.1,0-0.2-0.1-0.3-0.2c-1.1,0.7-2.5,1.4-3.6,1.8c-1.8,0.5-4.6,0.8-6.5,0.8C144.3,76,127.9,76.3,116,76.5L116,76.5z M169.5,73.4
	l-1.8,1.7c-0.8,0.8-2.1,1.9-3.3,2.1c-1.5,1.2-2.9,2.4-4.2,3.7l-0.8,1.1c-0.1,0.3-0.2,0.6-0.2,0.9v0.7c0.8-0.2,1.6-0.3,2.4-0.2
	c2.6,0.2,5.2,0,7.7-0.6c2.1-0.5,3.9-1.7,5.2-3.4c0.8-1.1,1.2-2.4,1.3-3.7v-1.1c-0.1-0.4-0.4-1-0.9-1.1c-0.3,0-0.6-0.1-0.9-0.1H169.5
	z M103.3,95.9l7.6-22.8c0,0,0-0.1,0-0.2c-0.3-5.3,0-10.4,5.4-12.5c2-4.5,4.1-8.9,6.4-13.2l6.4-11.7c-0.6,0.3-1.2,0.6-1.7,0.9
	c-2.5,1.4-5,2.9-7.5,4.5c-3.7,2.3-5.5,3.5-9,6.2c-5.3,3.9-10.5,8-15.6,12.2c-0.6,0.5-1,0.9-1.5,1.5c-2.4,3.9-9,20.4-10.8,25.3
	l-4.7,13.1c6.3-0.9,11.5-1.5,21.7-2.8C100.9,96.3,102,96.1,103.3,95.9L103.3,95.9z M171.6,23.3c-0.3-0.3-0.8-0.6-1.3-0.7
	c-2.4-0.5-4.7-0.6-7.1-0.3c-9.5,1.3-12.5,2.4-21.2,5c-0.5,0.1-0.8,0.3-1.2,0.5c-0.4,0.3-0.7,0.7-1,1.2c-2.6,4.8-11.3,21.6-15.1,28.9
	c0.4,0,0.8-0.1,1.2-0.2l11.4-23.3l1.9-3.6c0.7-1.1,1.1-1.9,2.4-2.4c2.3-0.9,4.7-1.7,7.1-2.3c3.6-1,7.3-1.8,10.9-2.5
	c2-0.4,5.8-0.9,7.8-0.9c1.7,0,3,0.2,4,0.8L171.6,23.3z M177.5,81.3l-0.5-3.9c-0.3,1.1-0.8,2.1-1.3,2.9c-0.7,0.9-1.7,1.8-2.7,2.5
	L177.5,81.3L177.5,81.3z M172.9,86.8L172.9,86.8L172.9,86.8c2.8-0.9,5.6-1.9,8.4-3c0-0.3-0.1-0.5,0-0.7c0-0.4-0.2-0.9-0.2-1.4
	l-14.7,4.8C155.2,90,141.3,93,129,94.9c-4.9,0.8-9.8,1.5-14.7,1.9c-2.3,0.2-4.6,0.3-7,0.3c-0.2,0-0.5,0-0.8,0
	c-0.2,0.3-0.3,0.6-0.5,1l-0.3,0.9v0.7c2.2,0,4.4-0.2,6.7-0.5c10.8-1.3,21.5-2.8,32.1-4.7c8.1-1.7,19.4-5.1,27.4-7.4
	c0.3,0,0.6-0.2,0.8-0.3L172.9,86.8z M173.4,88.4c-1.9,2-2.8,3.9-3.7,6.6l0,0c-1.1,2.8-1.9,5.7-2.7,8.6c-1.6,6.3-2.4,11.2-3,17.7
	c-0.8,8.2-1.1,13.3-1.3,21.5c-0.2,11.6-0.1,23.1,0.3,34.7c0.4,10.4,1.2,20.8,2.4,31.1c0,0.4,0.1,0.8,0.2,1.2
	c0.7-5.8,1.8-11.6,3.3-17.3c0.9-3.6,1.9-7.2,3.2-10.7c0.2-5,0.4-10,0.8-14.9c0.7-10.5,3.1-20.2,7.3-29.7c1.7-4.1,3.7-8,6.1-11.7
	c2-3.3,4.3-6.4,6.8-9.3c2.4-2.9,5.1-5.5,8.1-7.8c2.9-2.2,5.9-4.3,9.1-6.1c4.7-2.9,9.6-4,15.1-4c2.1,0,4.4,0.1,6.4,0.6
	c2.3,0.5,4.6,1.7,6.4,3.1c2.4,1.9,4.8,4.4,6.7,6.8c1.5,1.9,2.9,3.8,4.2,5.9c5.3-4.7,8.3-7.6,13.1-12.1c1.9-1.9,6.2-5.7,8.4-7.4
	l5-3.4c3.9-2.5,7.4-4.2,11.9-4.3c8.1-0.4,16.2-0.5,24.2-0.3h5.9c2.8,0,5.6,0.3,8.4,0.6l17.7,2.2l15.1,1.6c-16-3.8-29.2-6.8-29.2-6.8
	c-10.2-2.3-20.5-4.3-30.9-5.9c-6.8-1-13.4-1.6-20.1-1.8H278l0,0c-2,0-3.9,0-5.9,0c-10.8,0-19.8,0.2-30.6,0.6v-0.2
	c-5.8,0.6-11.4,1.2-15.4,1.7c-11.8,1.4-14.1,1.9-25.5,3.7c-5.7,1-11.4,2.2-17.1,3.7c-3.1,1.2-6.5,1.6-9.8,1.7L173.4,88.4z
	 M165,214.9c-0.4-2-0.8-4.1-1-6.1c-2.9-23.3-3.9-63.2-1.4-87.7c0.5-6,1.5-12,3-17.9c0.7-2.9,1.6-5.8,2.7-8.6c0.6-2.1,1.5-4,2.8-5.7
	l-11.8,3.4c-4.1,1.2-10.2,2.8-14.4,3.6c-7.8,1.5-24.4,3.8-32.3,4.7c-2.4,0.3-5.4,0.4-7.8,0.5l-3.1,1.9c-3.4,2.5-6.7,5.6-9.5,8.9
	l-2.4,3.1c4.5,0.3,9,0.8,13.5,1.4c7.8,0.9,15.6,2.1,23.3,3.8c5.1,1.1,10,2.8,14.7,5.2c1.1,0.5,2.2,1.2,3.2,1.9
	c1.1,0.7,2.3,1.9,3,3.1c1.2,2.3,2,5.4,2.1,8c0.3,4.6,0.2,9.2-0.3,13.8c-0.7,8.2-1.5,16.3-2.3,24.5c-1,13-2.2,26-3.4,39
	c-0.3,2.9-0.8,5.7-1.5,8.5c-1,4.5-3.4,6.9-7.8,7.7c-4,0.7-9.5,1.2-13.5,1.3c-8.6,0.5-17.2,0.7-25.8,0.8c1,4.7,4.6,19.4,5.3,22.4
	c16.9,0,33.7,0,50.6-0.3c5.5,0,11,0,16.5,0.3c-0.1-0.6-0.2-1.2-0.4-1.8c-1.9-9.8-2.7-19.8-2.5-29.8c0-3.3,0.3-6.5,0.5-9.7L165,214.9
	z M104.9,97.2c-10.3,0.8-36.1,4.7-43.7,5.9c-0.4,0.7-0.7,1.5-1.1,2.2c2.2-0.5,4.5-0.9,6.8-1.3l15.2-2.1l13.9-1.7
	c2-0.2,6-0.5,8.3-0.6c0-0.7,0.3-1.7,0.5-2.2l0,0C104.8,97.3,104.8,97.2,104.9,97.2L104.9,97.2z M294.4,77c1.5,0.2,2.9,0.4,4.4,0.6
	c9.6,1.5,21.5,3.8,31,5.9l23.1,5.3l14.6,3.6c1.8,0,3.6,0.2,5.4,0.2c6.8,0.1,13.6,0,20.4-0.2l30.6-1.4c18.1-0.8,43-1.1,68.4-1
	c0,0-0.2-0.1-0.3-0.2c-4.5-3.3-24-11.1-30.4-13.5c-8-2.5-12.9-3.8-18.5-5.1l0,0c-13.4,3.9-21.1,3.7-22.4,3.7
	c-11.5,0.5-23.1,0.9-34.6,1.1c-26.4,0.5-52.8,0.8-79.2,0.8L294.5,77H294.4z M460,74.3l60.5-0.2c2.7,0,4.5,0,7.2-0.4
	c1.3-0.2,2.4-0.6,3.5-1.2c0.6-0.4,1.1-0.9,1.4-1.6c0-0.2,0-0.4,0-0.6c0-0.3-0.4-0.7-0.7-0.8l-0.9-0.3c-1.7-0.4-2.8-0.5-4.5-0.6
	c-4.2-0.4-8.4-0.7-12.6-0.9c-20.8-1.2-32.1-1.6-50.5-1.5c-8.7,0-22.2,0.2-31.5,1c1.2,0.3,2.2,0.6,2.5,0.6c6.8,1.4,18.1,4.1,25.4,6.5
	H460z M428,66.2c3.1-0.4,6.2-0.6,9.3-0.8c8.7-0.4,17.5-0.6,26.2-0.6c9.1,0,18.3,0,27.4,0.4c7.7,0.3,15.4,0.6,23.1,1.1
	c4.2,0.2,8.4,0.5,12.6,0.9c1.3,0,3.4,0.3,4.7,0.6l1,0.3c0.5,0.1,0.9,0.5,1.2,0.9c1.5,1.6,0,3.9-1.6,4.8c-1.2,0.7-2.6,1.2-4.1,1.4
	c-2.4,0.3-4.9,0.4-7.4,0.4L464,75.8c0.3,0.1,0.6,0.2,0.9,0.3v-0.3l48.2,0.5c5.4,0.1,8.8,0.1,14.2,0c1.5,0,3-0.4,4.5-0.9
	c1.6-0.6,3.1-1.4,4.5-2.5c0.2-0.2,0.4-0.4,0.5-0.7c0.2-0.7,0-1.5-0.2-2.1c-0.5-0.8-1.1-1.3-2-1.7c-2.8-1.2-7.2-1.7-10.5-2
	c-13.6-1.2-22.4-1.9-36.1-2.3c-7.2-0.1-14.4-0.1-21.7,0c-11.4,0.2-12.8,0.3-24.2,0.7c-5.2,0.2-9.6,0.5-14.8,1.2h-0.1
	c0.2,0,0.4,0.1,0.7,0.2H428z M216,76.2c-1.9-0.7-3.8-1.5-5.3-2.3c-2.7-1.5-4.8-4.3-5.9-7.2c-1.8-4.7-3.1-9.6-3.7-14.5
	c-1.5-8.9-2.6-17.9-3.3-26.9c-0.2-1.6,0-3.9,0.6-5.4c0.8-2,3-3.6,4.9-4.2c1.9-0.7,3.8-1.1,5.8-1.3c9.9-1.1,23.8-2.1,34.1-2.9
	c23-1.6,44.3-2.9,67.2-2.8c0.7,0,2.5,0,3.2,0.2c1.2,0.4,3.1,1.9,4,2.8l7.4,6.9c2.3,2.1,4.1,3.6,6.6,5.3c0.8,0.5,1.6,0.8,2.6,1
	c2.7,0.3,10,0.7,13.3,0.4h1c0-0.1,0-0.1,0.1-0.2c-0.2-0.3-0.6-0.9-0.6-1c-3.2-4.7-6.7-9.2-10.5-13.4l0,0l-0.3-0.5l-0.1-0.4
	c0-1.4,2.7-1,3.3-1l33.8,2.7c14.9,1.3,30.5,3.5,45.2,6.7c5.2,1,10.3,2.4,15.3,4c-1.2-0.9-2.5-1.7-3.7-2.6c-1-0.6-2.1-1-3.2-1.2
	c-10.7-2.2-21.4-4.1-32.2-5.7c-10.9-1.5-21.9-2.6-32.8-3.4C324,6.6,284.1,5.8,245.3,8.6l-32.8,2.7l-21.9,1.9c0,0-0.1,0-0.2,0
	c0.5,1.5,0.9,3.6,1.1,4.9c0.9,5.3,2,12.1,2.7,17.5l2.8,22.2l1.8,15.6c0,0,0.3,3.7,0.4,4.8h0.1l10.7-1.5c1.8-0.2,3.9-0.5,6.2-0.7
	L216,76.2z M438.9,25.1L438.9,25.1c-6.4-2.3-13.1-4.1-19.8-5.5c-7.6-1.6-12.4-2.5-20.1-3.7c-8.3-1.2-16.6-2.2-25-3l-33.7-2.7
	c-0.1,0-0.8,0-1.3,0c2.9,3.3,9.5,11.3,11,14.3c0.2,0.4,0.2,0.7,0.2,1l-0.3,0.5l-0.4,0.3c-1.2,0.5-10.4,0-12.4,0c-1,0-2,0-3-0.1
	c-1.1-0.1-2.3-0.6-3.2-1.2c-2.3-1.6-4.7-3.5-6.8-5.5l-7.4-6.9c-1.1-1.1-2-1.8-3.4-2.4c-3.5-0.6-26,0.1-30.4,0.3
	c-20.9,0.9-47.1,2.7-68.5,4.6l-5.1,0.6c-3.4,0.3-7.9,1.2-9.6,4.6c-0.5,1.6-0.6,3-0.5,4.7c0.8,11.2,1.6,15.8,3.2,26.8
	c0.8,5.4,1.7,9.2,3.7,14.2c1,2.7,2.8,4.9,5.3,6.4c2.6,1.4,5.3,2.4,8.1,3.2c14.6-1.6,35.7-3.5,45.7-4.2l38-2.6
	c2.9-0.2,5.7-0.5,8.6-0.7c0,0,0.1,0,0.2-0.1l0,0c2-0.1,3.9-0.3,5.9-0.5c4.2-0.5,8.4-1,12.6-1.7c6.6-1.1,25-4.1,31.7-5
	c4.6-0.6,13.3-1.3,18-1.4l20.1-0.5c4.1,0,31.3,0,41.1,0l36.1,0.5c3.8,0,7.7,0.2,11.7,0.3L468.7,45c-5.6-3.9-11.2-7.7-16.9-11.4
	C447.4,30.8,443.1,27.9,438.9,25.1L438.9,25.1z M525.1,63.1c7.7,1.8,11.4,3.7,11.5,3.8c4.9,2.2,6,3.2,9.6,5.8h0.1
	c0.2-0.2,0.3-0.3,0.4-0.5v-0.3c0.3-0.9,0-1.4-0.3-2.2c-1.5-1.3-3.1-2.5-4.8-3.5c-4-1.9-9.1-2.9-13.5-3.1
	C527.1,63.1,526.1,63.1,525.1,63.1L525.1,63.1z M602.4,81.4c2.8,1.6,5.7,3.1,8.7,4.5c6.9,3.1,17,7.3,23.5,9.6h0.2h0.5l0,0
	c0.4,0,0.8,0,1.2,0c6.2-1.3,6.4-1.5,12.5-3.1c2-0.5,4.4-0.8,6.6-1l-7.2-3.5c-1.8-0.8-3.6-1.6-5.5-2.2l-6.7-2l0.2-0.6
	c-6.4-0.8-18.6-1.2-26.5-1.6c-2.5,0-4.9,0-7.4,0L602.4,81.4z M665.4,91.7v0.8h-4.2h-3.4c0,0-0.1,0-0.2,0l0,0l-2.4,0.2
	c-2,0.2-4,0.5-6,1c-2.9,0.8-9.7,2.6-12.7,3.1c-1.8,0.3-4.4,0.3-6.2,0.2l-9.4-0.7c-9.5-0.9-18.9-1.8-28.4-2.5
	c-13.4-0.8-36.8-1.6-52.5-1.9c-28.5-0.5-57.1-0.6-85.6-0.3c-10.3,0.1-20.5,0.4-30.8,0.8L393,93.8c-20.8,0.9-30,0-50-2.3l-17.7-2.2
	c-3-0.4-5.2-0.5-8.2-0.5h-5.9c-10-0.3-14.2-0.2-24.2,0.2c-2.2,0-4.2,0.5-6.2,1.4c-1.7,0.8-3.3,1.7-4.9,2.7l-5,3.4
	c-5.5,4.4-11.5,10.3-16.9,15.4l-4.6,4.1c0.2,0.3,0.4,0.6,0.6,1c7.6,12.4,11.9,23.3,16.3,37.2c2.1,6.6,4,13.3,5.6,20
	c2.8,11,5.2,22,7.3,33.1c2,10.3,3.6,20.6,4.9,30.9c0.3,2.2,1.8,15,1.8,17.6l13.9,1.7c0,0,0.3,0,0.5,0l-3.6-6.6
	c-1.2-2.2-2.5-5.1-3.3-7.4c-3.1-8.4,0-17.4,2.6-25.5c2.4-8.1,7.6-23.3,15-29.2c1.9-1.5,4.6-2.5,7.1-2.7c5.2-0.7,10.4-1.1,15.6-1
	c20.6-0.1,41.2,0,61.8,0.4c7.6,0,15.2,0,22.7,0c2.1-0.2,4.2-0.8,6.1-1.7c2-1.1,3.9-2.3,5.8-3.6c0.8-0.6,2.5-1.6,3.5-1.9
	c1.5-0.5,4.4-0.7,6-0.6c14.8-0.6,38.3-0.9,53.7-1l135.1-0.9c9.5-0.4,11.6,2,18,8.7c0.4,0.4,0.8,0.7,1.4,0.9c0.5,0.1,1.1,0.2,1.7,0.3
	h4.1c8.2,0,16.4,0,24.7-0.3l22.4-0.8c0.9,0,1.8,0,2.7,0.2c0.8,0.1,1.7,0.6,2.2,1.3c-0.2-1.3-0.5-2.5-0.9-3.8
	c-1.2-3.4-5.7-16.9-6.5-21.2l-0.5-3.9c-3.2,1.2-6.5,2.2-9.9,2.9c-22.2,5.1-40.5,4.9-63,4.9l-71.9-0.3h-76.2c-27.9,0-60,0-88.3-1.8
	c-8.9-0.6-21.9-1.6-30.8-2.3c-9.4-0.7-33.5-2.6-42.9-3.5c-8.1-0.7-20.8-2.2-28.9-3.2c-8.4-0.7-17-2.3-21.7-10.1
	c-1.5-2.4-3-5.6-3.9-8.3l-0.5-1.7c-0.2-0.8-0.2-1.6,0.1-2.3c0.4-1.1,1-2.1,1.7-3c1.3-1.6,2.7-3.2,4.1-4.6c2.1-2.2,4.4-4.3,6.7-6.3
	c1.9-1.7,4.1-3.2,6.3-4.6c1.3-0.9,2.7-1.6,4.2-2.2c1.4-0.6,2.9-0.9,4.4-1.1c3.2-0.5,6.5-0.7,9.8-0.7c9.8,0,19.6,0,29.4,0.5
	c9.7,0.4,37.6,1.5,47.3,2c10,0.5,20.1,1,30.1,1.3c30.9,0.8,47.4,0.9,78.3,1l82.2,0.6c21.2-0.2,42.5,0,63.7,0.4l15.4,0.3
	c8.9-0.4,16.5-1.1,25.4-2.1c5-0.6,9.9-1,14.8-0.8c-1.3-2-6-8.5-6.7-9.5c-1.5-2.1-2.5-3.2-4.2-5c-2-2.2-4.6-4.1-7.4-5.7L665.4,91.7z
	 M642.9,84.1c4.5,1.4,5,1.8,6.1,2.3l7.9,3.9c0.3,0.2,0.8,0.5,1.1,0.8h3.2h3c-2.9-1.5-5.9-2.7-8.8-3.6l-8.7-2.4
	C645.1,84.7,643.9,84.4,642.9,84.1z M636.9,305.9c7.6-2.7,14.5-6.8,20.5-12.1c6.7-6.1,12.4-13.3,16.8-21.3c-3.3,0.4-6.6,0.7-9.8,1
	c-4.5,8.5-10.5,16-17.7,22.3c-5.6,4.9-12.2,8.6-19.3,11c2.6-0.2,5.1-0.4,7.7-0.7C635.7,306.1,636.3,306,636.9,305.9L636.9,305.9z
	 M676,272.2c-7.6,14.2-18.8,26.2-33.3,32.8c2.4-0.4,4.7-0.8,7.1-1.3c6.5-3.6,12.4-8,17.6-13.3c5.7-5.8,10.7-12.2,14.9-19.1
	C680.2,271.6,678.1,271.9,676,272.2z M655.3,274.1c-2.7,5.2-6,10-9.9,14.4c-4.3,4.9-9.7,9.2-15.6,12.2c-7.8,4.1-16.8,6.1-25.9,6.6
	c2.4,0.2,4.9,0.3,7.3,0.3c3.1,0,6.1-0.2,9.2-0.3c9.3-2,18-6.3,25.3-12.6c6.8-6,12.6-13.1,17-21.1c-1.2,0-2.4,0.2-3.5,0.3
	C657.9,273.9,656.6,274.1,655.3,274.1L655.3,274.1z M592.8,305.6c6,0.6,12,0.5,18-0.3c6.4-0.9,12.6-2.8,18.4-5.8
	c5.7-3,10.8-7.1,15.1-11.9c3.6-4.1,6.7-8.5,9.3-13.3c-10.4,0.7-20.7,1.3-31.1,1.8c-6.3,4.6-13.8,7.5-21.6,8.3
	c-8.5,0.7-17.6-1.7-24.9-6.1c-8.6,0.4-17.3,0.7-25.9,1c10.2,12.6,23.9,21.5,39.6,25.6C590.7,305.2,591.8,305.4,592.8,305.6
	L592.8,305.6z M684.2,271.2c-7.5,12.7-17.4,23.8-29.8,31.7c1.4-0.3,2.8-0.7,4.2-1.1c0.5-0.1,1.1-0.3,1.6-0.5
	c6.1-3.3,11.6-7.5,16.4-12.5c5.4-5.6,10-11.9,13.8-18.7c-0.3,0-0.7,0.1-1,0.2c-1.6,0.3-3.4,0.6-5.1,0.9H684.2z M692.2,269.7
	c-6.3,11.8-15,22.2-26,29.7c5.2-1.9,9.9-4.3,14.5-7.5c7.8-6.8,14.1-14.8,18.7-24c-2.3,0.7-4.8,1.3-7.2,1.9V269.7z M549,277.8
	c18.5-0.7,36.9-1.5,55.4-2.4c23.5-1.1,31.3-1.5,54.8-3c10.2-0.7,19.9-1.8,29.9-3.6c3.8-0.7,7.5-1.7,11.2-2.8c0-0.1,0.1-0.3,0.2-0.4
	l3.6-1.4c1.4-0.6,2.7-1.3,3.9-2.3c-0.9,0.2-1.9,0.3-2.8,0.4c-4.6,0.5-9.3,0.8-13.9,1.1c-6.2,0.5-12.1,0.5-18.1-1.2
	c-1.9-0.5-3.9-1-5.8-1.4l-7.7-1.1c-2.3-0.3-4.7-0.4-7.1-0.4l-14.3,0.4l-35.1,0.5l-60.4,1.4c-17.4,0.5-43.7,0.9-61.1,0.9l-67-0.4
	c-3.6,0-6.9,0.2-10.5,1c-4.1,1-8.1,2.1-12.2,3.3c-3.6,1-7.9,1.3-11.6,1.1c-22.6,0-45.2,0-67.8,0c-10,0-20,0-30-0.3
	c-5.1,0-10.6-0.4-15.6-1.2c-2.1-0.3-4.1-1.1-5.9-2.2l0,0c-0.3-0.3-0.4-0.7-0.5-1.2l-0.8-4.2c-4-23.1-6-34.8-10.9-57.8
	c-2.3-10.4-4.6-19.6-7.5-29.9c-2.9-10.2-6.7-22.8-12.4-32.3c-1.5-2.5-3.3-5.3-5.4-8l-2.5,5c0.9,1.2,1.7,2.3,2.4,3.6
	c1.4,2.2,2.8,4.5,4,6.8c0.4,0.7,0.7,1.4,1.1,2.2l0,0l0,0c5.2,10.5,8.9,23.3,12.1,34.4c0.3,0.9,0.6,2,0.9,3.1h0.4
	c0,0.3-0.1,0.5-0.2,0.7c1.4,5.2,3.1,11.8,4.1,16.1v0.2h0.1v0.3c0.2,0.8,0.4,1.8,0.6,2.7h0.2c0,0.2,0,0.4,0,0.6
	c0.9,4.3,1.8,9.4,2.4,12.9c1.7,8.8,3.5,17.6,5.3,26.4c0.5-0.5,0.9-1,1.4-1.6c-0.4,1.2-0.7,2.3-1.1,3.4l2.3,9.1
	c0.3,1.5,0.6,4.2,0.7,5.7c0.1,1.4,0.5,2.7,1,4c0.7,1.3,1.7,2.3,3,3.1c5,3,9.8,5.2,15.4,6.1c5.9,0.7,7.9,0.6,13.8,0.8l32,1.6
	l34.9,1.5l19.7,0.2c0-0.1,0-0.3,0.1-0.4l60.3,0.4c32-0.2,63.9-0.6,95.9-1.3l14.7-0.4c0.1,0.1,0.2,0.3,0.3,0.4L549,277.8z
	 M619.8,276.2c-5.1,0.3-10.2,0.5-15.3,0.7c-8.6,0.4-17.2,0.8-25.8,1.2c6.8,3.6,14.4,5.3,22.1,4.8
	C607.6,282.2,614.1,279.9,619.8,276.2z M325.5,279c-1.1,3.1-2.9,5.9-5.3,8.2c-1.2,1.2-3.1,2-4.8,2c-1.6,0-3.3-0.4-4.7-1.2
	c-1.3,1.8-2.7,3.6-4.2,5.4c2.3,1.6,4.5,2.9,7.2,4l1.7,0.5c0.5,0.1,1.1,0.2,1.6,0.3c9.9-0.3,15.3-10.3,17.5-18.8l-9.2-0.4H325.5z
	 M311.6,286.8c1.2,0.6,2.5,1,3.8,1c1.4,0,2.8-0.7,3.8-1.6c2.1-2,3.7-4.5,4.8-7.2h-1l-6.5-0.4c-1.2,2.4-2.5,4.7-4,6.9
	C312.2,285.9,311.9,286.4,311.6,286.8L311.6,286.8z M336.2,279.5c-1.2,4.8-3.4,9.3-6.2,13.3c-2,2.9-4.9,5-8.2,6
	c1.4,0.1,2.8,0.2,4.2,0.2h3.7c1.6-0.3,3-1.1,4.3-2.2c1.7-1.5,3.2-3.3,4.3-5.3c2-3.7,3.6-7.7,4.6-11.9l-6.6-0.3L336.2,279.5z
	 M348,299.1c1.4-0.5,2.6-1.2,3.7-2.2c1.6-1.4,3-3.1,4.1-4.9c2.2-3.6,4-7.5,5.3-11.6h-3.3l-4.3-0.2c-1.7,6.1-5,14-9.3,18
	c-0.4,0.4-0.8,0.7-1.2,1C344.8,299.2,346.2,299.2,348,299.1L348,299.1z M362.7,280.4c-1.9,6.1-5.5,13.6-10,17.5
	c-0.4,0.3-0.8,0.7-1.2,1c0.7,0,1.4,0,2.2,0c0.5,0,0.9,0,1.3-0.1c3.4-1.2,6.2-3.5,8.1-6.6c2.4-3.8,4.1-7.4,5.4-11.7h-5.9L362.7,280.4
	z M370.1,280.4c-1.3,4.4-3.2,8.6-5.7,12.4c-1.3,2.1-3,3.9-5,5.2c7-1.2,12.3-6.5,15.5-12.6c0.9-1.7,1.6-3.3,2.2-5H370H370.1z
	 M339.9,299.1c1.3-0.4,2.5-1.1,3.5-2c1.6-1.5,2.9-3.2,3.9-5.1c2.1-3.8,3.7-7.8,4.9-12l-7.9-0.3c-1,4.4-2.7,8.6-4.8,12.5
	c-1.6,2.9-3.7,5.3-6.3,6.9h5.2C338.9,299.1,339.4,299.1,339.9,299.1L339.9,299.1z M589,117.4l-1.5,1.6c0.6,0.7,1.1,1.3,1.6,2h8.5
	l1.4-1.7l0,0l-1.2-1.9c-3,0-5.8,0-8.6,0H589z M580.6,119L580.6,119l-1-1.6c-3,0-6.1,0-9.5,0l-1.2,1.3h0.1l1.5,2h8.6L580.6,119
	L580.6,119z M581.3,117.4v0.2h5.5l0.3-0.3c-1.9,0-3.8,0-5.7,0L581.3,117.4z M562,118.7L562,118.7l-0.8-1.1c-3.2,0-6.8,0-10.3,0
	l-0.8,0.9h-7c0-0.1-0.5-0.9-0.5-0.9c-3.9,0-7.8,0-11.2,0l-0.6,0.6h0.1l1.6,2.1h9l1.6-1.9h7.1c0,0.1,1.5,2.1,1.5,2.1h8.7l1.6-1.9
	V118.7z M523.7,118.2l-0.5-0.6h-11.4c-0.2,0-0.5,0.3-0.6,0.4h0.2c0.5,0.8,0.9,1.4,1.5,2.1h9.1l1.6-1.9H523.7z M504.1,117.9
	L504.1,117.9l-0.3-0.6l-11.8-0.2l-0.4,0.5l0,0l1.6,2.1h9.3L504.1,117.9L504.1,117.9z M484.2,117.6L484.2,117.6l-0.3-0.5h-4h-8.3
	l-0.3,0.3h-7.4c0-0.1-0.2-0.3-0.2-0.3h-39.4h5.6l1.8,2.1h9.8l1.6-2h7.7c0,0.1,1.7,2.2,1.7,2.2h9.7l1.7-2h7.5c0,0.1,1.7,2.2,1.7,2.2
	h9.5L484.2,117.6L484.2,117.6z M629.5,129.3h-5.7l-1.4-2.1h-5.2l-1.4,1.6h-10.1c0-0.1-1.2-1.9-1.2-1.9h-5.3l-1.5,1.9h-9.8
	c0-0.1-1.5-2.1-1.5-2.1H581l-1.6,1.9l-10.1-0.3l-1.4-1.9h-5.6c-0.6,0.6-0.9,1.1-1.4,1.9h-10.2l-1.6-2.1h-5.7l-1.6,1.9h-10.4
	c0-0.1-1.6-2.1-1.6-2.1H524l-1.6,1.9h-10.5c0-0.1-1.6-2.2-1.6-2.2h-5.8l-1.6,1.9h-10.7c0-0.1-1.6-2.2-1.6-2.2h-6l-1.6,1.9h-10.9
	c0-0.1-1.7-2.2-1.7-2.2h-6.1l-1.7,2h-11.1c0-0.1-1.7-2.2-1.7-2.2h-6.3l-1.7,2h-11.3c-0.6-1-1.1-1.6-1.7-2.3h-6.4l-1.8,2h-11.4
	c0-0.1-1.8-2.3-1.8-2.3h-6.5l-1.7,2h-7.6c0,0,0,0,0,0.2h7.5l1.6,2.3h6.4l2-2h11.4c0,0.1,1.6,2.2,1.6,2.2h6.3l1.9-2h11.2
	c0,0.1,1.6,2.2,1.6,2.2h6.1l1.9-2h11.1c0,0.1,1.5,2.2,1.5,2.2h6l1.9-2h10.9c0,0.1,1.5,2.2,1.5,2.2h5.9l1.9-2h10.7
	c0,0.1,1.4,2.2,1.4,2.2h5.8l1.9-1.9h10.5c0,0.1,1.4,2.2,1.4,2.2h5.7l1.9-1.9h10.4c0.5,0.9,0.8,1.4,1.3,2.1h5.6l1.8-1.9h10.2
	c0.5,0.9,0.8,1.4,1.3,2.1h5.5l1.7-1.9H579c0,0.1,1.3,2.1,1.3,2.1h5.4l1.8-1.9h9.8c0,0.1,1.3,2.1,1.3,2.1h5.3l1.7-1.8h9.7l1.2,2h5.2
	l1.8-1.8h5.7L629.5,129.3z M391.7,124.8h6.9l1.5-1.7l-1.4-1.9h-6.3c0,0.3-0.1,0.6-0.2,0.8l-0.6,2.9L391.7,124.8z M408.4,123.1l1.6,2
	h10l1.6-1.7l-1.5-1.9h-10L408.4,123.1L408.4,123.1z M429.6,123.4c0.7,0.7,1.2,1.3,1.7,2h9.9l1.4-1.7l-1.5-2.1h-9.9l-1.7,1.7
	L429.6,123.4z M450.6,123.5L450.6,123.5l1.7,2.1h9.7l1.4-1.7l0,0l-1.5-2.1h-9.7L450.6,123.5z M471.2,123.7L471.2,123.7l1.7,2.1h9.5
	l1.4-1.7l0,0l-1.5-2.1h-9.5L471.2,123.7L471.2,123.7z M491.3,124h0.1l1.6,2.1h9.3l1.5-1.8h-0.1l-1.4-2.1H493L491.3,124L491.3,124z
	 M511,124.3h0.1l1.6,2.1h9.1l1.5-1.8l0,0l-1.4-2.1h-9.1L511,124.3L511,124.3z M530.5,124.6L530.5,124.6l1.6,2h9l1.4-1.7l-1.4-2.1h-9
	C531.5,123.3,531,123.9,530.5,124.6L530.5,124.6z M549.9,124.8L549.9,124.8l1.6,2.1h8.6c0.4-0.7,0.9-1.2,1.4-1.9l-1.3-1.9h-8.7
	l-1.7,1.7L549.9,124.8z M568.8,125l1.4,1.9l8.7,0.3l1.5-1.9l0,0l-1.3-2h-8.6L568.8,125L568.8,125z M587.2,125.3L587.2,125.3l1.5,2
	h8.4l1.4-1.8l-1.3-2h-8.4l-1.7,1.8H587.2z M605.4,125.5l1.2,1.8h8.7l1.4-1.6l0,0l-1.3-1.9h-8.3C607.1,123.8,605.4,125.5,605.4,125.5
	z M623.3,125.8l1.4,2h8.1l1.2-1.4V126c0.1,0,0.4,0,0.4,0l-1.3-2H625L623.3,125.8L623.3,125.8z M640.8,126.1l1.4,1.9h4.1
	c0-1.2-0.2-2.4-0.4-3.7h-3.3l-1.7,1.8C640.9,126.1,640.8,126.1,640.8,126.1z M641.4,129.3l-1.4-1.9h-5.1c-0.5,0.6-1.3,1.6-1.5,1.8
	h-0.5l1.7,2h5l1.7-1.9l0,0H641.4z M542,131.2c-0.4-0.5-0.8-1-1.1-1.6h-9l-1.7,1.7l1.4,1.7h8.9l1.6-1.9L542,131.2z M522.7,131.1
	l-1.2-1.8h-9.1l-1.7,1.7l1.4,1.8h9.1l1.5-1.8V131.1z M503.1,130.8l-1.2-1.8h-9.3l-1.7,1.8c0.4,0.7,0.8,1.2,1.3,1.8h9.3L503.1,130.8
	L503.1,130.8z M483.2,130.5l-1.2-1.7h-9.5l-1.7,1.8l1.4,1.8h9.4L483.2,130.5L483.2,130.5z M462.9,130.3l-1.2-1.7H452l-1.8,1.8
	l1.5,1.7h9.6L462.9,130.3L462.9,130.3z M442.2,130l-1.3-1.6h-9.8l-1.8,1.9l1.4,1.7h9.8L442.2,130L442.2,130z M421.2,129.8l-1.3-1.6
	h-10l-1.9,1.9l1.4,1.7h10L421.2,129.8L421.2,129.8z M399.8,129.5l-1.2-1.7h-6.5c0,0.3,0.1,0.7,0.2,1.1c0.2,0.8,0.4,1.6,0.7,2.5h5.1
	L399.8,129.5L399.8,129.5z M646.3,130.7H642l-1.5,1.6l1.2,1.7h4.2c0.1-1.1,0.2-2.2,0.3-3.3H646.3z M633.7,132.2l-1.4-1.7h-7.8
	l-1.6,1.7l1.2,1.6h8.2L633.7,132.2L633.7,132.2z M616,132.1l-1-1.7h-8.3l-1.6,1.8l1.2,1.7h8.2c0.4-0.6,0.9-1.1,1.4-1.7L616,132.1z
	 M598,131.7l-1-1.6h-8.4l-1.8,1.9l1.2,1.6h8.5C596.5,133.6,598,131.7,598,131.7z M579.7,131.5l-1-1.6H570l-1.7,1.9l1.2,1.6h8.6
	L579.7,131.5L579.7,131.5z M561.1,131.3c-0.4-0.5-0.7-1-1.1-1.6h-8.8l-1.7,1.8l1.2,1.7h8.7c0.5-0.6,0.9-1.2,1.6-1.9l0,0H561.1z
	 M605.3,134.9l-1.2-1.6h-5.4l-1.3,1.7l1,1.7h5.3L605.3,134.9L605.3,134.9z M587,134.8l-1.3-1.7h-5.4l-1.5,1.8l1.2,1.8h5.3L587,134.8
	L587,134.8z M568.6,134.8l-1.3-1.8h-5.6c-0.5,0.5-0.9,1.1-1.4,1.8l1.2,1.9h5.5L568.6,134.8z M549.9,134.8l-1.4-1.9h-5.7l-1.5,1.8
	l1.3,2h5.7l1.7-1.9L549.9,134.8z M530.8,134.6l-1.6-1.9h-5.8l-1.6,1.9l0,0l1.4,2h5.8l1.7-1.9L530.8,134.6z M511.3,134.5L511.3,134.5
	l-1.6-2.1h-5.9l-1.6,1.9h-10.7c-0.7-0.8-1.2-1.4-1.7-2.2h-6l-1.7,2h-10.8c0-0.1-1.7-2.2-1.7-2.2h-6.1l-1.7,2h-11
	c0-0.1-1.8-2.2-1.8-2.2h-6.2l-1.7,2h-11.2c0-0.1-1.8-2.2-1.8-2.2h-6.3l-1.8,2h-11.4c0-0.1-1.8-2.2-1.8-2.2h-6.5l-1.7,2h-5.3
	c0,0,0,0.2,0.2,0.4h5.3c0.5,0.8,0.9,1.4,1.5,2.1h6.6l2-2.1h11.4c0,0.1,1.6,2.3,1.6,2.3h6.3l1.9-2.1h11.2c0,0.1,1.5,2.2,1.5,2.2h6.2
	l1.9-2.1h11c0,0.1,1.5,2.2,1.5,2.2h6.1l1.9-2.1h10.8c0,0.1,1.4,2.2,1.4,2.2h6l1.9-2h10.7c0,0.1,1.4,2.2,1.4,2.2h5.9L511.3,134.5
	L511.3,134.5z M640.7,135.4l-1.2-1.6h-5.2l-1.4,1.8l1,1.6h5.2L640.7,135.4z M623,135.4l-1.2-1.6h-5.2c-0.5,0.5-0.9,1.1-1.4,1.8
	l1,1.6h5.2l1.6-1.7V135.4z M420.1,140.9l1.4,1.9h5.5c0.5-0.3,1-0.5,1.6-0.8l0,0l1.1-1.2l-1.7-1.9h-6.3l-1.6,1.9V140.9z M420.7,144.2
	l-1.6-2.2h-10l-2,2h-7.8c-0.7-0.7-1.1-1.3-1.7-2.1h-1c0.5,1.2,1.1,2.4,1.6,3.5l1-1.2h7.8l1.9,2.1h10l1.7-2.1l0,0H420.7z
	 M398.6,140.8c0.4,0.7,0.8,1.2,1.3,1.8h6.6l1.8-1.9l-1.6-1.9h-6.4l-1.8,2L398.6,140.8z M395.5,139.4h2.4l1.8-2.1h7.8l1.8,2.2h10
	l1.7-2h7.7l1.8,2.1h4.9c1-0.1,2.1-0.3,3.1-0.4c0.8,0,1.6-0.1,2.4-0.2l1.2-1.5l0,0l-1.5-2.1h-9.8l-1.9,2h-7.7l-1.6-2.2h-10l-2,2h-7.8
	c-0.7-0.7-1.1-1.3-1.7-2.1H394c0.5,1.4,1.1,2.8,1.7,4.3H395.5z M406.8,151.1l1.8,2h0.6c0.2,0,0.4,0,0.6-0.1c2-1,2.9-1.6,4.8-2.8
	c0.6-0.4,1.1-0.7,1.7-1.1h-7.5L406.8,151.1L406.8,151.1z M407,153.5l-1-1.1h-4l0.2,0.3l0.5,0.5c0,0,0.2,0.2,0.3,0.2
	c0.5,0,0.9,0.1,1.4,0h2.6V153.5z M400.4,149.6h5.8l2-2.1l-1.8-2H400l-1,1.2c0.5,1,1,2,1.5,2.9L400.4,149.6z M421.9,145.5h-0.6
	l-0.5,0.6C421.2,145.9,421.5,145.7,421.9,145.5z M597.1,138.9l0.5-0.6h6.6l0.4,0.6c3.2,0,6.8,0.3,9.9,0.7l0.9-1.2l0,0l-1.3-2h-8.3
	l-1.8,1.8h-6.7l-1.2-2h-8.5l-1.4,1.5v0.5H586l0.5,0.6C589.8,138.8,593.3,138.8,597.1,138.9L597.1,138.9z M578.7,138.9l0.5-0.5h5.7
	H579l-1.3-2h-8.6l-1.7,1.9h-6.9l-1.3-2h-8.8l-1.8,1.9h-7.1l-1.3-2h-8.9l-1.8,1.9l0,0l0.6,0.8c3.7,0,7.2,0,10.8,0
	c0.2-0.2,0.4-0.4,0.6-0.7h6.8c0.3,0.2,0.5,0.4,0.7,0.7c3.6,0,7.2,0,10.9,0c0.1-0.2,0.3-0.4,0.5-0.6h6.9l0.5,0.6c3.4,0,6.9,0,10.7,0
	L578.7,138.9z M521.8,138.8l0.7-0.8h-0.1l-1.4-2h-9.1l-1.8,1.9l0,0l0.7,0.9c3.9,0,7.5,0,11.1,0L521.8,138.8z M502,138.8l0.7-0.9l0,0
	l-1.4-2.1H492l-1.9,1.9h-7.4l-1.4-2.1h-9.4l-1.9,2l0.9,1.2c3.9,0,7.6,0,11.2,0l0.9-1h7.3l0.7,1C494.9,138.8,498.5,138.8,502,138.8
	L502,138.8z M461.7,138.8L461.7,138.8l1-1.1h-0.1l-1.5-2.1h-9.6l-1.9,2l1,1.3C454.5,138.9,458.2,138.9,461.7,138.8L461.7,138.8z
	 M642,149.5h-1.5l-1.6,1.8l1.3,1.7h0.2c0.7-1.2,1.2-2.3,1.7-3.6L642,149.5z M631.9,148.2l1.1,1.8h5.1l1.7-1.9l-1.3-1.8h-5.1
	C633.4,146.3,631.9,148.2,631.9,148.2z M639.2,154.3l-1.3-1.7h-3.1l1.2,1.1l0.9,0.7c0.3,0.2,0.6,0.3,0.9,0.3c0.3,0,0.7,0,1-0.3
	C638.9,154.4,639,154.3,639.2,154.3L639.2,154.3z M412.3,153.3c2,0.4,24.4,4.9,24.4,4.9c1.6,0.3,5.9,0.9,7.7,0.9
	c0.9-3.6,2.2-7.5,5.5-9.6c2.2-1.5,7-1.8,9.9-1.7c24.1-0.5,102.7-0.1,142,0c3.4-0.1,7.7,0,11.1,0.5c2.1,0.3,4.5,1.5,5.9,3
	c0.9,1,2.5,3.2,3.1,4.5c0,0,1,2.2,1.1,2.6c2.1,0.2,8.9-0.2,11-1.9l1.5-1.3c-2.5-2.1-11.5-9.9-12.5-10.8c-1.2-0.9-2.4-1.6-3.8-2.2
	c-1.8-0.6-3.6-1-5.4-1.2c-5.1-0.5-9.2-0.6-14.3-0.6l-78.7-0.2h-70.6c-4.1,0-7.8,0-11.9,0.4c-2.4,0.2-4.7,0.8-6.9,1.7
	c-4.9,2-11.3,5.8-16.3,9c-0.8,0.6-2,1.3-3.1,1.9L412.3,153.3z M627.9,146.8h3.2l1.4-1.8l-1.1-1.8H624c0,0,0.1,0,0.2,0.1l3.8,3.4
	L627.9,146.8z M639.2,145l1.3,1.8h2.3c0.4-1.2,0.7-2.4,1-3.6h-3.1L639.2,145L639.2,145z M622.2,142.1c0,0,0.2-0.2,0.3-0.3l-1.3-1.8
	h-5.1c1.5,0.2,2.8,0.5,3.8,0.9C620.5,141.1,621.4,141.6,622.2,142.1L622.2,142.1z M632.2,142l1.1,1.7h5.1l1.6-1.8l-1.3-1.7h-5.1
	C633.6,140.2,632.2,142,632.2,142z M622,138.6L622,138.6l1.4,2h8.1l1.5-1.9l0,0l-1.2-2h-8.1C623.7,136.7,622,138.6,622,138.6z
	 M639.5,138.7l1.4,1.9h3.6c0.1-0.5,0.2-1,0.3-1.4c0.2-0.8,0.3-1.5,0.5-2.3h-4.1L639.5,138.7L639.5,138.7L639.5,138.7z M625,118
	l-1.6,1.7l1.4,2h8.1l1.5-1.8l0,0l-1.1-1.7L625,118L625,118z M616.7,119.7l-1.2-1.9l-8.4-0.2l-1.6,1.8h0.1l1.4,2h8.2
	C615.7,120.8,616.1,120.3,616.7,119.7L616.7,119.7z M599.1,117.6l0.3,0.5h5.3l0.5-0.5C603.1,117.6,601,117.6,599.1,117.6z
	 M617.2,117.8l0.3,0.4h5.2l0.4-0.3L617.2,117.8L617.2,117.8z M542,121.8l1.1,1.7h5.6l1.7-1.7l-1.3-1.7h-5.7l-1.5,1.8L542,121.8z
	 M560.9,122l1.2,1.7h5.5l1.6-1.7l-1.3-1.7h-5.6l-1.5,1.7H560.9z M579.6,122.2l1.1,1.7h5.4l1.6-1.7c-0.4-0.7-0.8-1.2-1.3-1.7H581
	l-1.5,1.7H579.6z M597.9,122.5l1.1,1.7h5.3l1.6-1.6l-1.2-1.7h-5.4L597.9,122.5L597.9,122.5z M616,122.8l1.1,1.6h5.2l1.5-1.6
	l-1.3-1.8h-5.2C616.8,121.5,616.4,122.1,616,122.8z M633.6,122.9l1.2,1.8h5.1l1.5-1.6l-1.3-1.8H635L633.6,122.9L633.6,122.9z
	 M399.3,120.1l1.4,1.9h6.4l2-2l-1.5-1.9h-6.5L399.3,120.1L399.3,120.1L399.3,120.1z M420.7,120.5l1.3,1.7h6.3l1.9-2l0,0l-1.4-1.7
	h-6.3L420.7,120.5z M441.8,120.7l1.2,1.7h6.2l1.9-2l-1.4-1.7h-6.3L441.8,120.7L441.8,120.7z M462.5,120.9l1.2,1.7h6.1l1.9-2
	l-1.4-1.7h-6.1L462.5,120.9z M482.9,121.1l1.2,1.7h5.9l1.8-1.9l-1.3-1.7h-6L482.9,121.1L482.9,121.1z M502.9,121.3l1.1,1.7h5.8
	l1.7-1.7c-0.5-0.6-0.9-1.1-1.3-1.7h-5.9l-1.5,1.8L502.9,121.3z M522.5,121.6l1.1,1.7h5.7c0.6-0.6,1.1-1.1,1.8-1.8l-1.3-1.7H524
	L522.5,121.6z M642.5,118.2l-1.6,1.8l0,0l1.3,1.8h2.7c-0.4-1.2-0.9-2.3-1.5-3.4v-0.2C643.3,118.2,642.5,118.2,642.5,118.2z
	 M634.9,118.1l0.3,0.4h5.1l0.3-0.3L634.9,118.1L634.9,118.1z M392.6,118.5h6l1.4-1.6h-5.3l-1.4,0.1h-0.1c-0.1,0.2-0.3,0.8-0.5,1.4
	L392.6,118.5z M408.4,116.9l1.6,1.9l10,0.2l1.8-2.1H408.4z M645.3,142.2c-0.6,2.2-1.2,4.5-2,6.7c0,0.2-0.1,0.3-0.2,0.5l0,0
	c0.8-2.3,1.6-4.7,2.1-7.2H645.3z M648.4,127.3L660,127h3.5c0.7,0.1,1.3,0.4,1.7,0.8c0.4-1.3,1.1-2.5,1.9-3.5
	c2.5-3.2,7.1-3.8,10.3-1.4c0.6,0.5,1.2,1,1.6,1.7c1.5,2.1,2.3,4.6,2.3,7.1c0,2.3-0.6,4.6-1.9,6.5c-1.3,2.1-3.9,3.9-6.5,3.8
	c-2.3,0-4.5-1.2-5.9-3l-0.3,0.2c-0.9,0.4-15.7,1.2-19.5,1.4c-0.2,1.1-0.5,2.1-0.7,3.1c-0.6,2.6-2.2,7.5-3.5,10.3c0.1,0,0.3,0,0.4,0
	c3.1,0,6.2-0.2,9.3-0.5c9.9-1.2,19.7-2.8,29.4-4.6l2.1-0.4c0,0,0.2,0,0.3,0c0.5-1,0.6-1.8,0.8-2.9c0.2-2.1,1-4.1,1.7-6.1l0.6,0.2
	l-0.3-0.8c0.4-1.2,0.7-2.2,1-3.4c0.2-1.1,0.3-2.3,0.3-3.4c-0.1-3.1-0.8-6.2-2-9c-1.2-2.5-2.1-3.3-3.5-5.5l-1-1.7
	c-0.3,0.2-0.6,0.4-0.6,0.4c-0.3-0.4-0.5-0.7-0.6-0.8c0,0-0.1,0-0.2,0h-1.5c-8.6,0.1-23.2,1-31.6,2.7l-0.9,0.3c0,0-0.1,0-0.2,0v0.2
	c0.6,1.2,1,2.5,1.2,3.8C648,124,648.3,125.7,648.4,127.3c0-0.1,0,0,0,0.1V127.3z M666.1,129.7c0.7,1.9,1.6,5.9,1.7,7.9
	c1.1,1.7,3,2.8,5.1,2.9c4.6-0.2,6.8-4.9,6.9-8.9c0-2.4-0.7-4.3-2-6.3c-1.8-2.7-5.5-3.4-8.2-1.5c-0.5,0.4-1,0.8-1.4,1.3
	C667.1,126.5,666.4,127.9,666.1,129.7z M647.4,139.1l15.8-0.9c0.6,0,2.8-0.3,3.1-0.5l0,0c0-0.1,0-0.5,0-0.5
	c-0.3-1.9-0.7-3.9-1.3-5.7l-0.5-1.5l-0.3-0.7c0-0.2-0.2-0.3-0.3-0.4c-0.2-0.1-0.4-0.2-0.6-0.2c-3.9-0.1-10.4,0-14.9,0.2
	c0,3.2-0.4,6.9-1,10.3V139.1z M686.1,148.2l6.7,3l-4.8-10.7l-0.8,2.2c-0.3,0.9-0.5,1.8-0.6,2.7c0,0.8-0.2,1.8-0.6,2.7L686.1,148.2z
	 M682.8,113.4c-1.7,0-3.4,0-5.1,0c-3.1,0.2-6.1,0.4-9.2,0.8c-0.8,0-1.7,0.2-2.8,0.3c1.4,0,2.7-0.2,4.1-0.2c3.1-0.2,6.1-0.3,9.2-0.3
	h1.5c0.3,0,0.8,0,1,0.2c0.1,0,0.3,0.2,0.4,0.4l0.8-1.2L682.8,113.4z M269,307.1c5.5-3.3,10.4-7.5,14.4-12.5c4.3-5.3,7.9-11,11-17.1
	l-3.9-0.2c-1.5,0-3.3,0-5.2-0.1c-5.1,9.4-12.9,20.6-20.6,26.9c-1.5,1.3-3.1,2.3-4.9,3.2L269,307.1L269,307.1z M295.9,277.6
	c-3.1,6.4-7,12.4-11.4,17.9c-3.6,4.5-7.9,8.4-12.7,11.6l7.7-0.2c0.5,0,1.1,0,1.8,0c5-3.5,9.4-7.7,13.1-12.6
	c4-5.3,7.3-10.3,10.4-16.1l-8.9-0.4V277.6z M306.4,278.1c-3.1,5.9-6.7,11.6-10.8,16.9c-3.3,4.4-7.2,8.3-11.5,11.6
	c1.4,0,2.7-0.2,3.5-0.3c2.3-0.4,6.3-3.6,8.2-5.3c3.1-2.6,5-4.3,7.7-7.4l1.1-1.3c0,0,0.2,0.1,0.3,0.2c3.6-4.2,6.9-9.1,9.4-14
	L306.4,278.1L306.4,278.1z M64.5,278.9c-0.8,4-1.7,7.9-2.7,11.8c-0.6,2.7-2.1,7.4-3.5,9.8c-0.2,0.4-0.5,0.8-0.8,1.2l5.7-0.2
	c0.4,0,1.3,0,2.4-0.1c0.6-0.4,1.2-1,1.5-1.7c0.6-1.1,1-1.7,1.4-2.8c1.9-4.7,3.5-11.8,4.5-17.4c-2.9-0.2-5.7-0.4-8.6-0.7L64.5,278.9z
	 M55.4,301.8c0.3-0.1,0.5-0.3,0.7-0.6l0.9-1.4c1.6-3.2,2.5-6,3.4-9.5c1-3.8,1.9-7.7,2.7-11.6c-0.1,0-0.3,0-0.4,0l-4.1-0.6
	c-1.3-0.1-2.5-0.6-3.5-1.2c-0.8,4.5-1.8,9-3,13.4c-0.6,2.5-1.4,4.9-2.4,7.3c-0.6,1.4-1.4,3.1-2.5,4.4L55.4,301.8L55.4,301.8z
	 M44.8,302.1c0.3-0.1,0.5-0.3,0.7-0.5c0.4-0.4,0.8-0.8,1.1-1.3c3.1-4.9,5.8-17,7.1-24.4c-1.5-1.4-2.7-3.2-3.5-5
	c-1.2-2.5-2.2-5.1-2.9-7.8c-0.7,5.5-1.6,11-2.6,16.4c-1,5.2-3.5,17.4-8.4,22.8L44.8,302.1L44.8,302.1z M34.1,302.4
	c0.9-0.7,1.8-1.6,2.4-2.6l1.7-3.1c0.9-2,1.7-4,2.3-6.1c2.7-8.9,4.7-21.2,5.8-31l0,0c-0.7-2.5-1.3-5-1.8-7.5l-7.2-28.9l-5.9-26.5
	c-1.5-6.1-4.1-15.1-7.7-22.4c-0.8,0.1-1.6,0.3-2.3,0.5c-0.9,0.3-1.8,0.8-2.7,1.2c1.3,0,2.6,0.6,3.5,1.6c2.8,2.6,5.1,7.7,6.3,11.6
	c1.7,5.7,3,11.4,3.7,17.3c1.4,10.9,2.1,22,1.8,33c-0.1,9.6-0.9,19.2-2.3,28.7c-0.8,5.8-2,11.5-3.6,17.1c-0.9,3.2-2.1,6.4-3.5,9.5
	c-1.1,2.4-2.9,5.3-5.1,7c-0.2,0.2-0.5,0.4-0.8,0.5c0.4,0,0.8,0,1.2,0C24.6,302.5,29.4,302.5,34.1,302.4L34.1,302.4z M13.8,178.2
	L13.8,178.2c2.4-2.6,5.7-4.7,9.3-5.3c-1.1-2.1-2.2-3.9-3.4-5.5l-1.4-1.5c-0.5-0.4-1.1-0.7-1.7-0.8c-1.3-0.2-2.7,0.2-3.7,1
	c-1.8,1.5-3.3,3.4-4.2,5.6c-1.4,3.6-2.2,6.8-2.6,10.6c-0.8,6.5-1.2,11.9-1.3,17.7c0.4-1.8,0.9-3.7,1.4-5.5c0.9-3.4,2.1-6.7,3.5-9.9
	C10.7,182.4,12.1,180,13.8,178.2L13.8,178.2z M230.8,238.8c-1.7-0.1-2.9-1.3-3.4-2.9c-0.1-0.4-0.2-0.8-0.3-1.3
	c-0.9,0.8-1.8,1.6-2.6,2.3l-5.2,5c0.3,0,0.5,0.1,0.8,0.2c0.9,0.3,3.9,1.5,4.7,2c0.3,0.2,0.5,0.4,0.7,0.7c1-1,1.9-2,2.8-3l2.6-3.1
	L230.8,238.8z M228.3,233.7c0.1,1.3,0.5,2.7,1.6,3.4c0.3,0.2,0.7,0.3,1.1,0.3h1l1.1-1.3l1.7-2.3l0.3-1.2v-0.3l-0.2-0.1h-0.6
	c0-0.1-1.5-0.8-1.5-0.8c-0.1,0-0.3,0-0.4,0l-0.8,0.2c-1.1,0.5-2.3,1.2-3.5,2.1L228.3,233.7z M224.2,226.6c-0.4-0.4-0.7-0.9-1-1.4
	c-0.6-1-0.9-2.3-0.9-3.5c0-2.1,0.7-3.8,2.1-5c-13.5-1.8-18.2-2.5-30.2-4.2c-3.2-0.4-6.4-0.8-9.6-1.1l-4.7-0.6
	c0.7,0.4,1.4,0.7,2.1,1.1c2.1,0.7,3.7,1,5.9,1.2l10.4,1l10.6,1.3l2.4,0.5c1.4,0.2,3.2,0.9,3.5,2.6c0.3,1.5,0,5.3-0.7,6.8
	c-0.4,0.8-1.5,1.1-2.4,1.1l-17.2-0.1c-3.1-0.2-6.3-0.2-9.4-0.2c-1.5,0-2.9,0.3-4.3,0.8c-0.9,0.3-1.7,0.7-2.5,1
	c11-0.9,34.2-1.4,45.7-1.2L224.2,226.6z M226.5,217c-0.8,0.4-1.5,1-2,1.7c-1,1.7-1.1,4,0,5.7c0.5,0.8,1.1,1.5,1.7,2.1
	c1.3,0,2.8-0.3,3.4-0.7h0.1c-0.2-1.6-0.2-4.9,0-6.7c0,0,0-0.1,0-0.2c-0.2-0.3-0.4-0.6-0.7-0.8c-0.5-0.3-1.7-1-2.4-1.2L226.5,217z
	 M8,162.9c1.3-3.6,5-6.5,9-6.1c3.1,0.3,5.8,3.6,7.4,6.4c2.7,4.8,5,12.2,6.6,18c2.8,9.4,9.7,37.8,12.7,50.2c1.2,5,2.6,9.9,4.2,14.8
	c1.1,3.6,2.4,7.1,3.7,10.6c1.4,0,5.2-0.2,8-0.3l-5.5-23c-0.1-0.1-0.2-0.3-0.2-0.4v-0.2l-7.7-32.1L42,181.2l-3.6-15.6
	c-1-4.5-2.3-8.9-3.8-13.2c-1-2.7-2.4-5.9-4.4-8c-1.2-1.3-3.1-1.7-4.8-1.2c-4.6,1.7-9.1,6.1-12.2,10.2c-2.1,2.7-3.7,5.8-4.9,9
	c-0.1,0.3-0.2,0.6-0.3,0.9V162.9z M50,256.7c-1.3-3.3-2.4-6.7-3.5-10.1c-1.4-4.4-3.1-10.4-4.2-14.8c-3.1-12.6-6.2-25.2-9.3-37.8
	c-1.3-5-4.8-17.6-6.6-22.8c-1.3-3.8-3.4-8.3-6.3-11.2c-0.9-0.8-2-1.4-3.2-1.6c-1.4,0-2.8,0.3-4.1,1c-1.7,1-2.8,2.5-3.5,4.3
	c-1.3,3.3-2.5,6.7-3.5,10.1l0,0c0,0.4-0.1,0.8-0.2,1.3c0,0.6-0.2,1.1-0.2,1.7c1-4.5,2.9-9,6.5-11.8c1.3-1,3.2-1.5,4.9-1.2
	c1.8,0.3,2.8,1.4,3.9,2.7c1.5,1.7,3.4,5.2,4.3,7.3c1.6,3.3,3,6.7,4.1,10.2c1.3,3.8,2.7,8.6,3.6,12.5l5.9,26.5l7.2,28.9
	c0.3,1.6,0.7,3.1,1.1,4.7c1,0.1,2,0.2,3,0.2L50,256.7z M74.5,279.7c-0.7,3.9-1.5,7.8-2.5,11.6c-0.7,2.8-1.9,6.5-3.6,9.2
	c-0.2,0.3-0.4,0.6-0.6,0.9c2.8-0.1,5.8-0.3,6.4-0.4c0.3,0,0.5-0.1,0.8-0.3c0.6-0.5,1.1-1.1,1.6-1.7c0.8-0.9,1.4-1.9,2-3
	c2.2-4.1,4.2-10.6,5.6-15.8c-3.2-0.1-6.4-0.3-9.6-0.5L74.5,279.7z M4.7,207.4c0,0.2,0,0.4,0,0.6H4.6c-0.2,1.4-0.4,2.7-0.6,3.9v0.5
	l0,0c-1.3,9-1.9,18-2.1,27c-0.3,15.5,0.9,37,6.1,51.9c1.3,3.7,2.8,7,5.8,9.4c0.4,0.3,0.9,0.5,1.3,0.7H16c1.8,0,3.4-1.3,4.5-2.7
	c9.4-12.1,11.8-44.2,12.1-59.3c0.3-14.4-0.8-43.8-8.9-57.7c-1.1-1.9-3-4.2-5.4-4.3c-2,0-3.6,1.6-4.7,3c-4.4,5.9-7.4,17.4-9,26.9
	L4.7,207.4z M47.4,258c0.4,1.4,0.7,2.7,1.1,4.1c1,3.7,1.5,4.8,3.1,8.3c0.9,2,1.8,3.5,3.5,4.9c1.1,0.9,2.3,1.3,3.7,1.5l4,0.6
	c7.2,0.7,14.5,1.2,21.7,1.5l0,0c7.4,0.3,14.3,0.2,21.7-0.2c14.6-0.8,24.4-0.9,37.6,0l17.1,1c4.8,0.2,9.2,0.3,13.9,0.1
	c-1.6-3.2-3-6.5-4.3-9.9c-3.2-0.8-6.4-1.5-9.7-2.2c-4-0.6-8.1-1.1-12.1-1.5c-5-0.3-9.9-0.5-14.9-0.5c-7,0-14,0.2-21,0.6
	c-9.5,0.5-19.1,0.9-28.6,1.3c-9.2,0.4-18.5,0.5-27.8,0.2c-1.3,0-5-0.1-6-0.7c-0.4-0.2-0.6-0.6-0.5-1v-0.3c0.5-0.4,1.3-0.9,1.8-1.2
	c1.5-1,2.9-2.2,4.3-3.4c1-1,2-2.1,2.9-3.2c-2.6,0.1-5.2,0.2-7.8,0.3C50.1,258.3,48.6,258.3,47.4,258L47.4,258z M251.9,243.3
	c0,0.4-0.2,0.7-0.2,1.1c-0.2,1-0.3,2.1-0.3,3.1c0.4-0.3,0.8-0.7,1.2-1.1C252.4,245.7,252.2,244.6,251.9,243.3z M249.9,247.8
	c0-2.6,0.4-5,1.4-7.4c-1.6-7.9-4-19.8-4.3-21.4c-0.5-3.1-1.1-6.2-1.7-9.3c-0.7,4.2-1.3,8.4-1.7,12.6l0,0c0,0.1-0.5,1.8-0.5,1.8
	c-0.2,0.5-0.5,0.9-0.8,1.3l-0.2,2.2h0.2c0.6,4.5,1.4,8.9,2.6,13.3c0.3,1,0.7,1.9,1.3,2.7c0.7,0.9,2.5,3.2,3.6,4.2L249.9,247.8z
	 M244.4,261.7l-1.5-4.5c-1.1-3.8-0.7-8.2-0.5-12.2c-1-1.8-1.9-6-1.9-8.6l0.2-6.4v-0.2l-2.3,5.3c-0.6,1.3-0.9,1.9-1.4,3.3
	c-1.1,4-0.8,9.3-1,13.6c0,1.9,0,3.3,0.3,5.2c0.3,1.7,0.9,3.4,1.7,5c0.8,1.6,1.7,3.1,2.7,4.5l0.2,0.3
	C242.1,265.3,243.3,263.5,244.4,261.7L244.4,261.7z M243.7,246.9c0,1.1-0.1,2.3-0.1,2.3c-0.1,2.5,0.1,5.1,0.7,7.6l1.1,3.3
	c0.3-0.5,0.5-0.9,0.8-1.4c0.7-1.4,1.3-2.8,1.9-4.3l0.2-0.9c0-0.2,0-0.5,0-0.8c0-0.2-0.1-0.4-0.2-0.5l-3.3-4.1
	c-0.3-0.3-0.7-0.7-1-1.2H243.7z M217.8,280.6c-1.6,0.8-3.2,1.6-4.7,2.5c-1.3,0.8-2.5,1.8-3.5,2.9c-0.7,0.9-1.3,1.8-1.9,2.7
	c1.4,0.3,2.9,0.3,4.3,0.2c3.8-0.5,8.5-1.5,11.9-3.2c2.4-1.2,4.4-2.6,6.5-4.3c2.9-2.4,3.4-3,5.9-5.6c0.8-0.8,1.3-1.5,1.7-2.5
	c-1,1.1-2.1,2.1-3.2,3.1C230.5,280.2,223.4,281.1,217.8,280.6L217.8,280.6z M206.7,287.5c2.9-4.4,5.2-5.6,10.4-8.2c0,0,0-0.1,0-0.2
	c0-0.3,0-1.1,0.1-1.5c0.5-2.1,4-9.1,5.2-11.5l4.7-10.6c1.6-3.9,2.9-5.7,5.6-8.6V246l0.3-3.5c0-0.3,0-0.6,0-1h-0.5
	c-0.7,0.6-4.8,5.2-5.2,5.6c-4.2,5.1-9.4,12.6-13.4,18.7l-3.9,6.1c-0.8,1.3-1.5,2.7-2.1,4.2c-0.6,1.4-1,2.8-1.4,4.3
	c-0.3,2.1-0.3,4.3,0,6.4c0,0.2,0,0.3,0.1,0.4L206.7,287.5z M232.6,249.3c-0.5,0.6-1.1,1.3-1.6,1.9c-1.1,1.7-1.8,3.1-2.6,5l-4.7,10.6
	c-1.7,3.3-3.2,6.6-4.7,9.9l-0.4,1.2c-0.2,0.9-0.1,0.7,0,1.3c1.2,0,2.4,0,3.7,0c2.2-0.1,4.4-0.5,6.5-1.2c1.8-0.6,3.5-1.5,4.9-2.8
	s2.8-2.7,4.2-4.2c-0.2-0.5-0.4-1.1-0.7-1.5l-2.2-4.1c-0.7-1.3-1.7-3.4-2-4.9c-0.4-2-0.7-6.7-0.6-8.7v-2.7L232.6,249.3z M205,274.9
	l-4.9,1.9c-1.8,0.7-4,2.2-5.6,3.4c2,1.6,6.1,4.2,7.1,4.7l0.7,0.3c0,0,0.2,0,0.3,0l0,0v-0.3l0.7-4.6c0.3-1.5,1-3.6,1.5-5.1
	c0-0.1,0.1-0.3,0.2-0.4L205,274.9z M193.4,279.2c0.8-0.7,1.7-1.3,2.6-1.9c1.1-0.8,2.3-1.4,3.5-1.9l5.6-2.1h0.6
	c1.5-3.4,3.4-6.6,5.4-9.6c3.2-4.9,6.7-9.5,10.4-14l2.5-3c0.2-0.2,0.3-0.5,0.3-0.9l0,0l-0.4-0.3c-1.1-0.6-3.1-1.3-4.3-1.8
	c-0.4-0.2-0.9-0.2-1.4-0.3l0,0c-4.2,3.7-5.3,4.7-9.1,9.1c-11,12.6-13.3,18.3-15.3,23.4C193.5,276.7,193.2,278.3,193.4,279.2
	L193.4,279.2L193.4,279.2z M225,192.5l-0.3,0.5c-3.3-2.5-6-4.8-6.8-8.7c-0.8-3.1-1.3-6.2-1.8-9.3c-0.4-0.9-0.7-1.7-1-2.3
	c-0.4-1-0.9-2.7-1.4-4.5c-0.6-0.8-1.3-1.5-2.2-2.1l-9.3-4.7l0,0v1.1c0,1.5,0.2,3,0.5,4.4c1.6,5.8,7.5,16.1,10.9,21.6
	c2,3.2,1.7,2.5,4,5.6c1,1.3,2,2.5,3.2,3.6l0,0l0,0c0.5,0.6,1.2,1.2,1.9,1.5c1.7,0.7,4,0.4,4.9-1.3l0,0c0-0.1,0-0.3,0-0.3l-0.4-0.8
	l0,0l0,0L225,192.5L225,192.5z M218.4,179.7c0.3,1.4,0.6,2.8,0.9,4.2c0.4,1.7,1.1,3.1,2.2,4.4c0.8,0.8,1.6,1.6,2.5,2.3
	C222.7,188.2,220.4,183.8,218.4,179.7L218.4,179.7z M228.8,166.5c0.2,2.8,0.5,5.6,0.8,8.4c0.5,2.5,1.1,4,2.2,6.3l4.6,10.1
	c0.4-3,1.2-5.9,2.3-8.7c-1.6-5.6-3.2-11.1-5-16.6c-0.6-0.2-1.2-0.3-1.8-0.2c-1.1,0.1-2,0.4-3,0.8h-0.2L228.8,166.5z M237.7,193.9
	L237.7,193.9L237.7,193.9c0,1.2-0.1,2.4,0,3.6l0.2,5.3c0,1-0.4,1.4-1.4,1.5c-1.3-0.5-3.3-2.8-4.2-4.1c-1.2-1.6-2.5-3.6-3.5-5.4
	l-6.9-13.4c-1.1-2.2-2.6-5.3-3.5-7.6c-0.9-2.1-3-8.2-3.5-10.4c-0.4-1.5-0.6-4.1-0.6-5.6c0-0.9,0-3.5,0.1-4.4c0.2-0.9,0.5-1.6,1.2-2
	c0.4-0.2,0.8-0.4,1.3-0.4c1.8-0.3,3.6-0.3,5.4,0c2.7,0.2,4.3,0.5,6.5,1.2c-0.5-1-0.9-2.1-1.4-3.1c-2.8-0.9-5.8-1.4-8.8-1.3
	c-6.4,0.3-12.4,2.6-17.5,6.6c-5.7,4.4-10.2,9.4-14,15.5c-14.6,23.6-18.2,52.7-13.1,79.7c2.8,14.5,10.4,31.1,24.1,38.9
	c5.7,3.1,12.5,4,18.8,2.4c6.5-1.8,12.2-5.2,17-10.1l0,0c-0.7,0.7-1.5,1.3-2.3,2c-3.7,3.1-7.9,5.6-12.7,6.6c-4,1-7,1.7-11,1h-0.7
	c0-0.1-0.5-0.4-0.5-0.4c-1.2-1.4-1.5-4-1.5-5.9c-0.2-7.1,4.1-13,7.8-18.6c2.3-3.5,4.6-6.9,7-10.2c1.4-2.1,4.7-6.4,7.6-9.9
	c-0.6,0.6-1.1,1.1-1.7,1.7c-0.1,0.3-0.3,0.6-0.5,0.8L218,257c-3.1,4.1-6.7,9.3-9.2,13.9c-1.5,2.8-3.2,6.8-3.8,10l-0.6,4.6
	c-0.1,0.5-0.4,0.9-0.7,1.2l-0.7,0.2c-1.5-0.2-4.3-2-5.8-3.1c-1.4-0.8-2.7-1.8-3.9-2.9c-0.8-0.6-1.1-1.5-1.1-2.5
	c0.1-2.1,1.1-4.5,2.1-6.5c2.3-5.1,4.8-8.9,8.2-13.1c1.9-2.4,3.8-4.7,5.8-7l3.2-3.6c0.5-0.5,4.2-4,5.6-5.2l0,0l6.9-6.7
	c1.4-1.4,3-2.7,4.6-3.9c0.9-0.7,3.1-2.3,4.8-2.2c-0.1,0-0.3-0.2-0.4-0.3c-0.9-0.6-1.3-1.5-1.5-2.5c0-0.1,0-0.3-0.1-0.4
	c-0.7,0.6-1.3,0.9-2.2,1c-1.3,0.3-2.7,0.4-4.1,0.4c-14.8-0.2-25.6,0.2-40.9,0.8c-2.7,0.1-5.4,0.4-8,0.7l0,0h-0.4
	c-0.1,0-0.5-0.2-0.6-0.2c-1-0.6-1.2-2.9-1.1-4.1l0.3-5.9l0.7-7.5c0-0.7,0.4-1.8,0.9-2.3c0.3-0.2,0.6-0.4,1-0.4c0,0,0.2,0,0.4,0v-0.2
	c0.2,0,0.3,0.1,0.4,0.2c2.1,0.2,6.8,0.8,7.6,0.9c3.2,0.3,6.4,0.7,9.6,1.1l19,2.7l13.1,1.8c0.6,0,1.2,0.3,1.7,0.6
	c0.8,0.4,2.1,1.2,2.6,2.2c0-0.3,0.2-0.7,0.4-1c0.4-0.9,0.9-1.7,1.5-2.5l0,0c0.1-0.2,0.3-0.3,0.4-0.4c-0.6,0-1.2-0.2-1.8-0.7
	l-2.9-2.9c-2.7-2.9-7-9-9.8-12.9h0.1c-1-1.1-1.8-2.1-2.6-3.2c-1.5-1.8-2.8-3.7-4-5.7c-1.8-2.8-3.6-6-5.2-8.9
	c-1.4-2.4-2.7-4.9-3.8-7.4c-1.5-3.3-2.6-6.7-2.7-10.4c0-1.6,0.3-2.9,1.6-3.7c2-1.4,7-4.7,9.8-4.7l0.6,0.3l0.3,0.5
	c0,0.2,0.3,1.1,0.3,1.4v3.8c0,0.9,0,1.4,0.3,2.2c0.8,3.3,1.8,6.6,2.9,9.8c3,6.7,5.4,11.5,8.9,17.9l3.3,6.2l4.6,6.1
	c1.3,1.5,4.7,5.9,5.3,7.5l0.2,0.7c0.2,1.1-1,2.2-2,2.7c-0.2,0.1-0.3,0.2-0.5,0.3c0.5,0,1.1,0,1.6,0.2c1.9,0.5,3.2,2.5,3.8,4.4
	c0.4,1.1,0.6,2.3,0.5,3.5c0,0.4,0,0.9,0,1.3l0.2-0.6c0.2-1.7,0.4-3.3,0.6-5c-0.4,0.3-0.6,0.4-1.1,0.1l-0.2-0.3l-0.7-1.6l-1.2-2.1
	c-0.2-0.4-0.3-0.8-0.4-1.2l-0.8-8.1c-0.2-2-0.3-4-0.2-6c0-4.5,0.5-7.8,1.5-12c-0.1-0.4-0.2-0.9-0.4-1.3c-0.7,2-1.2,4-1.5,6.1
	c-0.1,1-0.2,1.9-0.3,2.9L237.7,193.9z M236.2,194.1l-5.6-12.3c-1-1.9-2-4.5-2.4-6.7s-0.8-6.9-0.9-9.2c0,0-0.1-0.2-0.2-0.3
	c-0.5-1.2-1.1-2.4-1.9-3.4c-2.2-2.8-6.7-6.6-9.4-9.1l-0.2,0.6c-0.3,2.9,0,6.4,0.5,9.4c1,3.5,2.2,6.9,3.5,10.2
	c1.7,4.2,7.5,15.3,10.4,20.8c1.6,2.9,3.8,6.2,6.3,8.5l0,0l-0.2-5c0-1.2,0-2.3,0-3.5H236.2z M186.3,224.7c-0.2-1.8-0.2-3.7-0.1-5.5
	l0,0c0.1-1.3,0.6-3.2,1-4.6c-4.2-0.4-6.8-1.5-10.3-3.9h-0.3l-0.2,0.3c-0.1,0.3-0.2,0.7-0.3,1c-0.6,4-0.8,9.3-1,13.4
	c0,0.8,0,1.7,0.3,2.5c1.8-0.9,3.6-1.6,5.4-2.3c1.3-0.4,3.4-0.8,4.7-0.8C185.7,224.8,186,224.8,186.3,224.7L186.3,224.7z
	 M188.7,214.7c-0.5,1.5-0.9,3-1.1,4.6c0,1.8,0,3.6,0.1,5.4c2.5,0,5.6,0.1,7.4,0.2h17c0.4,0,0.7,0,1-0.1l0,0l0.2-0.6
	c0.3-1.3,0.5-2.7,0.5-4.1v-1.2c-0.2-0.3-0.4-0.5-0.6-0.7c-0.6-0.4-1.2-0.6-1.9-0.7l-2.4-0.5c-5.4-0.9-14.7-1.7-20.4-2.2L188.7,214.7
	z M239.5,229c-0.3,0.4-0.7,0.7-1.1,1c-0.9,0.7-1.9,0.9-2.8,0.8h0.2l0.7,0.4c0.8,1,0.2,2.3-0.1,3.3c-1.9,2.6-3.9,4.9-5.9,7.2
	c0.5-0.5,0.9-0.9,1.3-1.2c0.1,0,0.5-0.3,0.8-0.3h0.8c1.3,0,1.5,1.6,1.3,2.6c-0.6,5-0.6,10.1-0.2,15.1l0.3,2.4
	c0.1,0.6,0.3,1.2,0.6,1.7c1.5,3.2,2.1,4.2,3.5,6.8c0.4,0.7,0.8,1.5,1,2.3c0.2,0.9,0.1,1.8-0.2,2.7c5.7-7.5,9.9-16.2,12.8-25.2
	c-0.6,0.5-1.2,0.9-1.6,0.9c-0.8,0.2-1.6-0.7-2.1-1.3c-1-1.1-2.3-2.6-3.2-3.8c-0.7-0.9-1.2-2-1.5-3.1c-0.7-2.5-1.2-5-1.7-7.6v2.6
	c0,1.6,0.2,3.2,0.5,4.8c0.2,1.1,0.6,2.2,1.1,3.2c0.8,1.3,1.2,1.6,2.2,2.8l3.3,4.1c0.9,1.2,0.6,2.3,0.2,3.6
	c-0.8,2.5-3.3,7.3-5.2,10.1l-2.2,3.3l-0.4,0.4h-0.6c0,0.1-0.5,0-0.5,0l-0.5-0.6c-0.3-0.4-2.9-4.7-3.1-5.1c-1.8-3.3-2.4-7.3-2.2-11
	l0.2-8.1c0-3.3,0.8-6.5,2.3-9.4l2.1-4.9l0,0c0-0.2,0.2-0.4,0.3-0.5L239.5,229z M232.6,226.9l0.3,1.1c0.5,0.9,1.8,1.4,2.8,1.5
	c2.5,0.2,4.1-3.3,4.7-5c0.9-2.9,0.5-6.1-1.4-8.5c-1.3-1.5-3.6-1.2-4.9,0c-0.5,0.7-0.9,1.3-1.3,2.1c-0.2,0.6-0.4,1.1-0.4,1.8l0,0
	c-0.4,2.8-0.5,4.4,0.2,7.1L232.6,226.9z M244.6,205.6L244.6,205.6c0,0.1-0.7,3.6-0.7,3.6l-0.6,3.9v2.7c0.3-3.2,0.8-6.4,1.4-9.7
	C244.7,205.9,244.7,205.8,244.6,205.6L244.6,205.6z M240.7,189.3c-0.1,0.7-0.3,1.5-0.4,2.2c-1.1,8.1-0.3,12.3,0.5,20.6
	c0,0.2,0,0.5,0.2,0.7l0.8,1.4v-1.3c0.2-1.4,1-6.2,1.4-7.6l0.8-2.6c0,0,0,0,0-0.1C243,198.2,241.9,193.7,240.7,189.3L240.7,189.3z
	 M240.7,308.2c4.2-0.8,7.9-2.7,11.3-5.4c3.5-2.9,6.1-5.2,9-8.7c4.8-5.6,9.1-11.6,13-17.8c-2.1-0.5-4.3-1.3-6-2
	c-2.5-1.1-5-2.3-7.3-3.7c-0.8-0.5-1.5-1-2.1-1.6l-1.6,3.2c-5.3,10.8-13.5,21.5-23.6,28.4c-4,2.7-8.5,4.8-13.1,6
	c-2.9,0.8-5.9,1.1-8.9,1c3.8,0.9,7.4,1.2,11.5,1.1c5.5,0,11.1,0,16.6-0.4h1.3L240.7,308.2z M275.5,276.5c-4,6.5-8.4,12.6-13.3,18.4
	c-2.8,3.2-5.9,6.2-9.2,8.9c-2.1,1.7-4.3,3.1-6.8,4.2l8.9-0.3h1c2.9-1,5.6-2.5,7.9-4.5c3-2.5,5.5-4.9,7.9-7.9
	c4.5-5.6,8.6-11.7,12.1-18c-2.6-0.1-5.2-0.3-7.2-0.6C276.4,276.7,276,276.6,275.5,276.5L275.5,276.5z M217.2,152.4l4.3,3.9
	c3,2.5,5.6,5.2,7.1,8.8h0.2c1.5-0.6,3-1,4.6-0.7c-1-3.1-2.2-6.2-3.4-9.2c-0.2-0.4-0.3-0.8-0.5-1.2c-1-0.4-2.1-0.7-3.1-1
	c-0.7-0.1-6.4-1.1-9.1-0.6H217.2z M219.9,136.8h-0.8c-3.3,0.5-7.7,1.8-11,3.1s-6.4,2.9-9.4,4.8c-3.1,2.1-6,4.3-8.8,6.7l0,0
	c-2.1,2.4-4.1,5.1-5.9,8c-3.2,5.1-5.9,10.4-8.2,15.9c0,0,0,0,0,0.1l0,0c-0.3,0.7-0.6,1.4-0.9,2.1l0,0l0,0c-0.6,1.6-1.2,3.1-1.8,4.7
	c0,0.1,0,0.3,0,0.4H173c-1.2,3.4-2.2,6.8-3.1,10.4c-6.8,27.5-6.4,60.7,6.8,86.6l0,0c1.5,2.7,2.9,5.1,4.6,7.6
	c2.4,3.5,5.2,6.7,8.4,9.5c4,3.6,7.2,5.2,12.1,7.2l0,0c0.6,0.3,1.1,0.5,1.7,0.8c14.6,4.3,28.8-3.3,38.5-13.7
	c5.4-5.9,10-12.5,13.6-19.7l1.9-3.8c-1-1.5-1.5-3.4-1.6-5.4c-0.1-1.8-0.4-3.7-0.7-5.5l-1.7-6.9c-1.6,4.7-3.2,8.8-5.7,13.7
	c-3.3,6.7-7.7,12.9-13,18.2c-4.7,4.9-11,8.7-17.6,10.5c-13.6,3.6-26.2-4.1-33.5-15.1c-5.5-8.2-9.3-17.5-11.2-27.2
	c-3.6-18.3-2.9-37.2,2.1-55.2c2.5-9,6.2-17.6,11.1-25.5c3.8-6.1,8.6-11.5,14.3-15.9c7.4-5.8,17.2-8.4,26.3-5.9
	c-0.1-0.3-0.3-0.6-0.5-0.9c-1.7-3.2-3.7-6.6-6-9.7L219.9,136.8z M196.3,144.7c0.6-0.4,1.1-0.8,1.7-1.2c5.2-3.4,11.4-6,17.4-7.4
	c1.2-0.3,2.3-0.5,3.5-0.7c-0.5-0.7-1.1-1.3-1.6-1.9c-7.5,1.6-14.2,5-19.9,10.2C197,144,196.7,144.3,196.3,144.7L196.3,144.7z
	 M247.9,116.9c-0.6,0.2-1.3,0.3-1.9,0.5c-4.6,1.3-12.2,5.3-16.6,8.1c-0.6,0.4-4,2.6-5.3,3.8c2.1,2.7,4.1,5.6,5.8,8.6
	c2.2,3.7,4.1,7.6,5.7,11.6c2.6,6.9,4.9,13.9,6.9,21.1c2.7,9.5,5.4,20.2,7.5,29.9c4,18.4,7.9,39.3,10.9,57.8l0.7,4.2v0.4
	c3.5,0,6.9-0.5,10.1-1.5c3.9-1.3,7.9-2.7,11.7-4.3l0.5-0.2c0,0,0.1,0,0.2-0.1v-0.3c0.2-0.2,0-1.3,0-1.7
	c-2.8-32.7-12.3-82-24.4-113.8c-1.5-3.9-3.2-7.7-5-11.4c-2.2-4.5-3.7-7-6.3-11.3c-0.2-0.4-0.4-0.8-0.7-1.1L247.9,116.9z
	 M219.8,134.2c0.3-0.7,2.4-4.8,2.5-5c-3.3-4.2-7.3-8.1-11.6-10.1c-2-1-3.9-1.5-6.1-1.7c-2.2,0-4.3,0.3-6.3,1.1
	c-1.9,0.8-3.6,1.8-5.1,3.1c-1.5,1.3-2.9,2.8-4.1,4.5c-2,2.9-4.5,8.4-6,11.6c-3.8,8.1-6,16.2-6.9,25.1c0,0.2,0,0.4,0,0.6
	c1.1-5.2,2.4-10.4,4.1-15.4c2-6.6,5.4-13.6,10.6-18.4c2.8-2.6,6.3-4.8,10.2-5.3c5.7-1.2,11,2,15,5.8c1.3,1.2,2.5,2.4,3.6,3.8
	c0.1,0.1,0.2,0.3,0.3,0.4L219.8,134.2z M223.2,128.1c0,0,0.1,0,0.2-0.1c5-3.8,8.6-5.8,14-8.7c2.3-1.2,5.7-2.7,8.3-3.4l1.5-0.3
	c-2.9-4.5-6.2-8.6-10.5-12.1c-1.7-1.4-3.7-2.3-5.8-2.9c-4-0.9-9-0.8-13.2,0.2c-2.7,0.7-4.8,1.6-7.2,3c-10.7,6.2-16.9,12.1-23.5,22.7
	c-2.6,4.1-4.1,7.1-5.9,11.5c-2.2,5.2-3.7,9.5-5.1,15c-1.6,6.9-2.3,16.3-2.7,24.7c0-0.2,0.1-0.3,0.2-0.5c0.2-4.9,0.6-9.8,1.2-14.7
	c0.9-8.7,3.3-17.6,7.1-25.5l2.8-5.8c0.9-1.9,2.1-4.2,3.4-6c3.7-5.3,10-9.7,16.7-9.3c2.2,0.1,4.7,0.9,6.7,1.9c2,0.9,3.9,2.1,5.6,3.6
	c2.3,2,4.3,4.1,6.2,6.5c0,0,0.1,0.1,0.2,0.2L223.2,128.1z M177.9,86.8c0.1,0,0.3,0,0.4,0c1.8-0.3,2.1-0.5,3.4-0.9
	c0-0.1,0-0.3-0.1-0.4C180.5,85.9,179.2,86.4,177.9,86.8L177.9,86.8z M187.6,12.6c0.2,0.7,0.4,1.5,0.5,2.3c0.5,2.7,1.3,7.1,1.6,9.8
	l1.6,14.1l1.8,17.8l2.5,22.9l1.6-0.3l0,0c-0.8-9.6-3.4-30.2-5-42.8c-0.7-5.3-2.6-18.6-3.9-22.5l0,0c0,0-0.4-0.5-0.8-1.2L187.6,12.6z
	 M101.6,101.5c-1.9,0.1-3.9,0.3-5.8,0.5c-15.5,1.9-17.3,2.2-29.1,3.8c-2.7,0.4-5.4,0.9-8.1,1.6l0,0c-0.2,0.1-0.4,0.3-0.6,0.4
	l-11.3,5.7c-1.3,0.8-2.6,1.6-3.9,2.5c4.1-0.6,8.2-0.9,11.9-1.1c8.7-0.4,17.4-0.5,26.2-0.2c2.3,0,4.7,0.2,7,0.3
	c0-0.1,0.1-0.2,0.2-0.3l2.9-3.6c1.3-1.6,3.6-3.9,5.2-5.3c2.8-2.6,3.7-3.3,5.6-4.4L101.6,101.5z M89.1,116.6l0.5,2.7l0,0
	c7.3,1.1,14.8,2.5,21.8,4.1c6.1,1.3,13.2,3.4,18.9,5.8c4.1,1.8,8.1,4.8,10.9,8.3c1.4,1.7,2.2,3.8,2.3,5.9c0.2,1.9,0.2,3.9,0.2,5.8
	c-0.2,9.2-0.6,18.4-1,27.6c-0.2,8.3-0.7,16.6-1.4,24.9c-0.3,4.4-1.5,9.4-3.5,13.5c-0.8,1.6-2.3,3.3-3.8,4.3
	c-1.3,0.9-3.1,1.8-4.7,2.2c-5.5,1.7-12.2,3.2-17.9,4.1c-5,0.9-11.1,1.7-16.3,2.1c0,0,0,0,0,0.1l-0.9,4.3l0,0
	c12.7-0.1,13.3-0.3,26-0.8c4.9-0.2,8.5-0.5,13.3-1.3c0.9-0.2,1.8-0.5,2.7-0.9c0.7-0.3,1.4-0.8,1.9-1.5c1-1.3,1.7-2.7,2.1-4.3
	c0.8-3.1,1.2-5.1,1.5-8.3c1.2-13,2.4-26,3.4-39c0.8-8.2,1.6-16.3,2.3-24.5c0.6-5.8,1.3-15.1-1.6-21c-1.2-2.1-3.4-3.4-5.6-4.4
	c-4.7-2.3-9.2-3.9-14.3-5c-8.6-1.9-14.4-2.7-23.1-3.8c-4.8-0.6-9.3-1-13.7-1.3L89.1,116.6z M89.6,120.8c0,0.9-0.1,1.9-0.2,2.2
	c-0.9,6-1.6,12.1-2,18.1c-0.3,9.5-0.5,22,0.1,31.7c0.5,6.1,1.6,18.5,2.5,24.8c1.2,8.2,2.8,16.3,4.6,24.3l0.8,4.7
	c11.3-1,22.7-2.8,33.6-6.2c1.5-0.5,3-1.2,4.3-2.1c1.4-1,2.5-2.3,3.3-3.8c2-4.2,3-8.3,3.3-12.9c0.7-8.3,1.2-16.6,1.4-24.9
	c0.4-9.2,0.8-18.4,1-27.6c0-2.2,0-3.5-0.2-5.7c-0.1-1.9-0.8-3.6-2-5.1c-2.8-3.4-6.3-6.1-10.3-7.9c-6.4-2.7-11.9-4.3-18.7-5.8
	c-8.2-1.8-12.4-2.7-20.7-4c-0.3,0-0.6,0-0.9-0.1L89.6,120.8z M98.4,256.5L93,234.2l0,0c-11,0.1-22.1-0.1-33.1-0.7l-4,0.2l5.5,22.8
	c1,0,1.7,0,1.9,0h19.1C87.7,256.5,93.1,256.5,98.4,256.5z M92.9,232.7c0,0,0-0.1,0-0.2l0.8-4.1c-5.7,0.4-11.4,1-17,1.7
	c-4.4,0.6-8.7,1.3-13.1,2c9.7,0.4,19.5,0.6,29.2,0.5L92.9,232.7z M94,226.9l-0.8-4.6c-2.7-11.7-4.9-24.2-5.9-36
	c-1.1-10.6-1.7-18.2-1.6-28c0-13.9,0.3-23.1,2.3-35.6c0-0.7,0.1-1.5,0.2-2.2c-4.3-0.6-8.5-1-12.9-1.4L47.5,117v-0.3
	c-2.2,0.2-4.4,0.5-6.7,0.9c-3.2,9.3-5.3,21-5.7,30.8h-0.2c3.5,8,7,24.2,8.8,32.2l4.2,19.6l7.6,31.8c14.6-2.7,23.9-4.1,38.4-5.2
	L94,226.9z M88.2,119.1l-0.5-2.7c-10.8-0.7-20.8-0.7-32.1-0.2l19.8,1.5C79.6,118,83.9,118.5,88.2,119.1z M167.4,257.8
	c-5.6-0.3-11.2-0.4-16.8-0.3c-21.7,0.3-46.4,0.4-68.1,0.2H63.4c-0.7,0-1.4,0-2.2,0c-2.8,3.4-4.6,5.4-8.4,7.9l-0.4,0.2
	c10.6,1.6,50.8-0.6,60.6-1.1c14.8-0.8,33.3-1.3,48.4,1.4c2.2,0.4,6.1,1.3,8.9,1.9C169.1,264.6,168.1,261.2,167.4,257.8L167.4,257.8z
	 M176.4,170.6c1.9-4.1,4.1-8.2,6.5-12c3.7-5.9,8.4-11.5,13.6-16.1c5.6-5.1,12.4-8.7,19.8-10.3c-1.7-1.7-3.5-3.3-5.5-4.6
	c-1.5-1-3.2-1.7-5-2.1c-2.6-0.6-6.5,0.1-8.9,1.3c-1.9,1-3.6,2.2-5.1,3.6c-2.1,2-3.9,4.2-5.4,6.7
	C181.6,145.3,177.8,159.7,176.4,170.6L176.4,170.6z M704.7,255.7l-0.4,0.3c-1.4-1.6-2.3-3.5-2.6-5.6c-0.3-2.7-0.4-7.9-0.2-10.6
	l2.4-19c0.8-6.6,1.4-13.2,1.9-19.9c0,0,0,0,0.3,0c0,0,0-0.2,0-0.3l0,0c0-0.1,0-0.2,0-0.2c0.2-3.8,0.1-7.7,0-11.5l0,0l-0.2,0.1
	l-1.4-2.5c-0.7-0.8-2.5-1-3.7-0.9l-22.4,0.8c-6.3,0.2-18.4,0.5-24.7,0.4h-4.1c-1.6-0.1-3-0.5-4-1.6c-1.7-1.7-3.5-3.5-5.3-5.2
	c-1.5-1.3-3.2-2.2-5.1-2.6c-2.4-0.4-4.2-0.5-6.6-0.4l-135.1,0.9c-16.5,0.1-32,0.4-48.6,0.8l-5.1,0.2c-2.2,0-3.5,0-5.6,0.6
	c-1.2,0.5-2,1-3.1,1.7c-3.9,2.6-7.8,5.2-12.7,5.5c-2.2,0.1-20.6,0.1-22.9,0.1c-33.3-0.7-28.5-0.3-61.8-0.4c-6.4,0-9.1,0.2-15.4,1
	c-2.4,0.3-4.4,1-6.3,2.5c-2.1,1.8-3.9,3.9-5.3,6.2c-2,3.4-3.8,6.9-5.2,10.6c-2.2,5.5-5.6,16.5-7.1,22.4c-0.6,2.5-0.9,5-0.8,7.5
	c0,2.1,0.5,4.3,1.3,6.3c0.9,2.5,2,4.9,3.3,7.2l3.8,7v0.6c0,1.1-1.3,1.2-2,1.2l-14.5-1.7c-0.3,0.3-0.7,0.5-1.1,0.7
	c-2.4,1.1-9.3,3.5-11.9,4.3c-2,0.6-5.1,1.3-7.8,1.5c0.8,0.3,1.6,0.5,2.4,0.6c5.5,0.8,9.9,1.1,15.4,1.2c10,0.2,20,0.3,30,0.3
	c22.6,0,45.2,0.1,67.8,0c4.1,0.1,7.2,0,11.2-1.1c2.4-0.7,9.8-2.8,12.2-3.3c3.2-0.7,7.5-1.1,10.9-1l67,0.4c22.1,0,39-0.3,61.1-0.9
	l60.4-1.4l35.1-0.5l14.3-0.4c2.2,0,5.1,0.1,7.3,0.4l7.7,1.1c1.6,0.3,4.5,1,6,1.4c2.3,0.6,4.7,1,7.2,1.3c8.1,0.5,16.3-0.5,24.4-1.2
	c1.6-0.1,2.9-0.3,4.4-0.8c-1.2-1-3.5-3-4.7-4.3L704.7,255.7z M707,204.5c-1.1,13.7-2.2,20.9-4,35.6c-0.2,3.4-0.1,6.9,0.2,10.3
	c0.2,1.4,0.7,2.7,1.4,3.8c2.5-8.1,4-16.2,4.5-24.7c0.5-8.4-0.2-16.7-2.1-24.9V204.5z M234.4,205.4c-0.6,0-1.2,0-1.7,0.2
	c-0.5,0.1-0.9,0.4-1.2,0.7c-0.6,0.8-0.8,2.1-0.6,3.1l0.3,1.3l1.8,1.8c0.2,0.1,0.4,0.3,0.6,0.4c0.1,0,0.2,0,0.4,0
	c1.1-0.4,2.9-1.3,3.7-2.3c0,0,0,0,0-0.1c-0.2-0.5-0.4-0.9-0.6-1.4C236.7,208.5,235.7,207.1,234.4,205.4L234.4,205.4z M229.4,208.7
	c0-0.2,0-0.4,0-0.6c0-1.8,1.1-3.6,3-4c0.3,0,0.7-0.1,1-0.2c-1.4-1.8-2.9-3.8-4.1-5.4c-0.3,0.5-0.7,0.9-1.2,1.3
	c-0.7,0.5-1.6,0.9-2.6,0.9c-0.9,0-1.7,0-2.5-0.3l3.2,4.4L229.4,208.7L229.4,208.7z M203.4,159.8l9.3,4.7c0.2,0.1,0.4,0.3,0.6,0.4
	c-0.3-1-0.5-2-0.7-2.6c-0.2-0.8-0.3-1.7-0.2-2.6v-3.6l-0.2-0.6v-0.2l0,0c-1.3,0.3-2.5,0.8-3.7,1.4l-4.9,3
	C203.6,159.7,203.4,159.8,203.4,159.8L203.4,159.8z M219,230.5c1.2,1,1.7,2.6,1.4,4.1c-0.2,2.2-1.4,4.2-2.9,5.9l-4.8,5.5
	c-4.5,4.7-8.9,9.6-13.2,14.6c-2.2,2.9-4.9,6.9-6.1,10.5l-1.2,4.2c-0.4,1.1-1.3,2.6-2.7,2.3c-1.6-0.4-2.5-1.2-3.5-2.3
	c-5.7-6.2-9.6-18.7-11.3-26.2c-1.1-4.7-1.5-8.2-1.9-13.2c-0.1-1.2,0-2.8,0.7-3.9c0.5-0.9,1.6-1.1,2.5-1.2l7.9-0.9
	c0.8,0,24.9-0.7,25.6-0.7c1.9,0,3.9,0,5.8,0c0.6,0,1.2,0.1,1.8,0.3c0.6,0.2,1.2,0.6,1.7,1L219,230.5z M195.3,264.2
	c-6.5-12.8-7.4-21.8-7.6-26.4l-0.7,0.3c-1.2,0.6-2.5,0.6-3.6,0l-5.1-2.8c-1.2-0.5-2.5-0.9-3.9-1.2c0,0.5-0.1,0.9,0,1.5
	c0.5,8.3,2.2,16,4.8,23.8c1.1,3.2,2.4,6.2,4,9.2c1.1,2.1,2.5,4,4,5.8l1,1c0.3,0.3,0.7,0.6,1.1,0.7l0.6,0.2c0.3,0,0.5-0.2,0.7-0.5
	l0.4-0.9l1.2-4.2c0.5-1.5,1.3-3.4,2.2-4.8c0.3-0.5,0.6-1.1,1-1.7L195.3,264.2z M189.1,237.3c0.1,2.6,0.4,5.3,0.9,7.9
	c0.7,3.5,1.7,6.9,3,10.3c1,2.5,2,5,3.2,7.4c0.7-1.1,1.5-2.2,2.2-3.1c3-3.7,9.9-11.2,13.2-14.6l4.6-5.3c0.6-4.9,0.6-5.6,0.5-6
	c0-0.1,0-0.2-0.1-0.3l0,0c-0.1-0.1-0.6-0.2-0.8-0.2c-6.3-0.2-16.8,1-23.2,2.8L189.1,237.3L189.1,237.3z M174.8,232.7
	c1.4,0.3,3,0.8,4.1,1.3l5.1,2.8c0.4,0.2,0.7,0.3,1.2,0.3s0.7-0.2,1.2-0.4l5.8-2c3.2-0.9,6.5-1.5,9.8-1.9c3-0.4,5.9-0.7,8.9-0.8
	c1.7-0.1,5.2-0.3,6.5,0.3c0.7,0.7,0.8,1.1,0.8,2.1c0,0.7-0.1,1.8-0.3,3c0.1-0.2,0.3-0.5,0.4-0.7c0.4-0.9,0.8-2.7,0.5-3.8
	c-0.5-1.5-2.1-2.2-3.5-2.3c-2.1,0-3.6,0-5.8,0c-8.5,0.2-17,0.4-25.6,0.7l-7.6,0.9l-1.4,0.3c0,0-0.2,0.1-0.3,0.2L174.8,232.7z
	 M202.4,172.5c1.2,3.4,3.5,7.6,5.5,10.8l4.9,7.6l4.7,6.8l3.6,4.6c1.2,1.5,2.2,3.3,2.1,5.4c0,1.7-1.1,3.3-2.6,4.1
	c-0.8,0.5-1.6,0.7-2.5,0.8c-1.7,0.2-3.4,0.1-5.2-0.1l-33.6-4.6l-1.2-0.2c-1.8-0.4-2.8-1.9-2.7-3.5c0-1.5,0.3-3.1,0.7-4.6
	c0.6-2.2,1.3-4.5,2.1-6.6c3-8.9,6.2-16.1,11.8-23.6l4-5.1c0.9-1.1,2-2.2,3.1-3.1c0.6-0.5,1.6-0.7,2.2,0l0.5,0.6
	c0.2,0.3,0.5,1.1,0.5,1.5l0.9,5.1L202.4,172.5L202.4,172.5z M203.6,178.8c-1,1-1.9,2-2.8,3.1c-1.5,1.9-2.7,4-3.7,6.2
	c-1.4,3-2.6,6-3.7,9.1c-0.6,2.1-1.2,4.1-1.7,6.3c0.2,0,0.4,0.2,0.6,0.3c2.1,0.9,4.2,1.6,6.3,2.2c3.8,1,12.9,2.9,17.5,3.5
	c0.4,0,0.8,0,1.2-0.1c0.3,0,0.6-0.3,0.8-0.5l1.9-1.9l1.1-1.6c-0.9-1.9-3.5-4.8-4.9-6.6c-1.5-2.1-7.1-10.5-9.6-14.4
	c-1.1-1.7-2.1-3.5-3.1-5.3L203.6,178.8z M190.3,203.2c1.7-7.1,5-16.3,9.4-22.1c1-1.3,2-2.5,3.2-3.6c-1.5-2.9-2.4-5.6-3.1-8.9l-0.8-5
	c0-0.4-0.2-0.8-0.4-1.1l-0.3-0.3l0,0c0,0-0.1,0-0.2,0c-1.1,0.9-2.1,1.9-2.9,2.9l-4,5.1c-1.5,2-2.9,4.1-4.2,6.2
	c-1.6,2.8-3,5.7-4.3,8.6c-1.6,3.9-5.6,14-5.9,19.2c0,0,0,0.2,0,0.3l1.5-0.9c0.6-0.3,1.8-0.6,2.4-0.7c2.1-0.2,7,0.1,9.1,0.3
	C190,203.2,190.1,203.2,190.3,203.2L190.3,203.2z M177.3,205.9L177.3,205.9c0.3,0.2,0.5,0.3,0.8,0.4l23,3.2l11.9,1.6
	c2.2,0.3,6.5,0.7,8-1.7c0.3-0.5,0.5-1.1,0.6-1.8c0-0.2,0-0.4,0-0.6l-0.5,0.7l-2,2c-0.7,0.7-2,1.1-3.1,1c-1.6-0.1-5.7-0.9-7.3-1.2
	c-4.4-0.8-12.4-2.5-17-4.6c-1.6-0.7-8.6-0.8-10.9-0.7c-0.6,0-1.2,0.3-1.8,0.5l-1.7,1L177.3,205.9z M264.3,134.9
	c-1.1-2.1-1.1-3.4,0.3-5.3c2.6-3.4,8.1-8.7,11.4-11.5c4.1-3.5,8.4-6.9,14.1-7c5.8-0.4,12.2-0.6,18.1-0.5c27,0.8,53.9,2.1,80.8,3.9
	h0.1c0.5,0.1,0.9,0.6,0.8,1.1l-0.2,0.7l0,0c-0.6,1.5-1,3.1-1.2,4.7c-0.3,2.6-0.3,5.3,0.2,7.9c0.5,2.6,1.3,5.2,2.4,7.6l3.9,8.9
	c1.2,2.5,2.4,4.9,3.8,7.3l2,3.3l-3.7-0.2l-40.3-3l-34.9-2.4c-7.2-0.6-22.7-2.1-29.8-2.9c-4.7-0.5-9.4-1-14-1.7
	c-1.6-0.2-3.1-0.6-4.5-1.2l-2.3-1.2c-1-0.6-3-2.7-3.8-3.5c-1.2-1.4-2.3-3.3-3.1-5L264.3,134.9z M274.1,143.3c1.3,0.5,2.7,0.9,4.1,1
	c14.9,1.9,29,3.3,43.8,4.6l61,4.3l15.1,1.1c-1.7-2.7-3.1-5.5-4.4-8.4l-3.9-8.9c-2.8-6.4-4.1-14.4-1.4-21.1h-0.7
	c-26.5-1.8-53-3-79.5-3.9c-9.1-0.2-8.8,0.1-17.9,0.5c-2.4,0.1-4.3,0.5-6.5,1.7c-4.8,2.9-9.8,7.3-13.8,11.6l-4.2,4.7l-0.6,0.8
	c-0.1,0.2-0.2,0.4-0.2,0.6c0.1,2.1,2.1,5.2,3.5,7c1,1.2,2.2,2.3,3.4,3.3l2.1,1.2L274.1,143.3z M379.5,125.9l1.6-3.2l1.7-4.3
	c-1.4,0-5.2-0.1-5.4-0.1v-1.4l6,0.1c0.7,0,1.2,0.6,0.9,1.4l-2,4.9l-1.8,3.5c0,0.1,0.2,0.3,0.2,0.4l1,3.8l0.7,3.2l1.3,3.8l0.2,1.1
	c0,0.5,0,1-0.1,1.5c0,0.1,0,0.3-0.1,0.4l6.4,7.6c0.1,0.2,1.1,1.5,1.2,1.7c0.2,0.5-0.2,1-0.7,1.1c-0.3,0-6.3-1-6.9-1.1l0.2-1.4
	l5.3,0.9l-0.2-0.2l-6.3-7.5c-1.3,0.5-3.1,0.3-4.2,0.3l-4.5-0.2c-4.8-0.3-31.8-2.5-34.3-2.7c-3.5-0.2-7.3-0.7-9.7-3.5l-0.6-0.8
	c-0.2-0.3-0.3-0.8-0.2-1.1c0.1-0.4,0.8-1.3,1.1-1.7c1.5-1.7,3.1-3.2,4.9-4.7c1.8-1.6,4.2-2.1,6.6-2.1c5.5-0.1,11.1,0,16.6,0
	c5.8,0,11.6,0,17.4,0c1,0,2,0,2.9,0.2c0.2,0,0.4,0,0.6,0.1L379.5,125.9z M379.7,128l-3.6,2.9l-0.9-1.1l3.3-2.6
	c-0.8-0.2-1.9-0.2-2.4-0.2c-5.8,0-11.6,0-17.4,0l0,0c-6.5-0.2-10.1-0.2-16.6,0c-1.1,0-2,0.1-3,0.3c-1,0.3-1.8,0.7-2.6,1.4
	c-1.9,1.7-3,2.7-4.7,4.5c-0.1,0.2-0.3,0.3-0.4,0.5l3.5-0.7l0.3,1.4l-3.6,0.8c0.7,0.8,1.5,1.4,2.6,1.8c1.8,0.6,3.3,0.8,5.2,1l5.9,0.6
	l29.1,2.2c0.7,0,5.2,0.2,7,0.2l-3.9-2.6l0.8-1.2l4.5,3c0-0.2,0-0.4,0-0.6l-0.2-1l-1.3-3.8l0,0c-0.4-2.1-0.9-4.2-1.4-6.2
	c0-0.1,0-0.2-0.1-0.4L379.7,128z M296.4,135.9c0.3-0.6,0.5-1.2,0.7-1.8c0.1-0.5,0.3-1.5,0.2-2.1l0,0l-13-0.7h-4.5
	c-0.4-0.2-0.9-0.4-1.1-0.9c-0.2-0.4,0-0.9,0.2-1.3l0.8-1l3.1-3l0.5-0.3h6.4h10.7h0.6l0,0c0.4-0.6,0.7-1.2,0.9-1.9
	c0-0.3,0-0.5-0.2-0.7h-0.2c-5.1,0-11.9-0.3-17.3-0.5v-1.4l13,0.5h4.6l0.8,0.3c0.5,0.6,0.9,1.4,0.6,2.3c-0.2,0.8-0.9,2.8-2.2,3h-0.7
	h-10.7h-6l0,0c-0.5,0.4-2.6,2.7-3.4,3.5h4l13.2,0.8c0.4,0,0.6,0.3,0.9,0.5l0.2,0.5v0.3c0.2,1.8-0.3,3.2-1,4.8l-0.5,0.5l-0.8,0.2
	h-0.6l-14.8-1c1.1,1.2,3,3.2,3.1,3.2l-1,1l-4-4.2c-0.5-0.6-0.3-1.1,0.4-1.5h0.9l15.5,0.9C296.1,135.9,296,135.9,296.4,135.9
	L296.4,135.9z M390.9,197.2c0.5,0.8,0.7,1.8,0.5,2.9c-0.4,2.7-3.1,8.7-4.5,11.5c-2.2,4.4-4.5,8.8-7,13.1c-2.2,4-4.5,7.9-6.9,11.8
	c-2,3.3-3.9,6.2-6.3,8.8l4.1,1.4c4.6,1.7,7.5,2.7,12.3,3.7c9.3,1.8,18.7,3.4,28,4.8c-1.4-1.1-2.8-2.8-3.6-4.2
	c-1.2-2.1-2.3-4.3-3.2-6.5l-1-2.8c-0.4-1.1,0-2.2,0.2-3.3c0.5-2.2,1.7-6.5,2.4-8.7c2.4-7.7,4.8-12.9,9-19.7
	c2.5-4.7,6.1-7.7,11.1-8.7c3.2-0.8,6.9-1.4,10.2-1.6c4.7-0.3,10.7-0.4,15.5-0.3c27.6-0.5,40.3-0.8,64.7-1.4
	c12.5-0.3,25.8-0.4,38.2-0.2l79.4,1.3l3.9,0.2c1.5,0,3.1,0.2,4.5,0.6c2.6,0.6,4.5,2.2,5.8,4.4c2.5,3.6,4.3,9.7,5.3,14.3
	s1.9,9.3,2.6,14c0.9,3.5,0.8,5.5-0.4,8.8l-1.8,5.8c-0.4,1.3-1.5,4-2.2,5.2l-0.4,0.5c1.7,0.4,3.4,0.7,5.2,0.8c2.9,0,5.8,0,8.7-0.5
	c2-0.3,4-0.9,5.9-1.7l3-1.5c-0.8-1-1.5-2.1-2-3.5c-0.8-2.1-1.4-4.2-1.9-6.4c-0.2-0.7-0.4-1.4-0.6-2.1c-1-4.2-2.2-9.7-2.9-13.9
	c-1.5-7-2.7-14-3.7-21.1c-0.3-1.7-0.4-3.6,0-5.2c-2-1-4-1.9-6-2.8l-6.7-2.6c-0.4-0.2-0.8-0.4-0.7-0.9c0-0.3,0.3-0.6,0.5-0.7l1.9-0.3
	l28.4-1.2c6-0.3,15-0.5,20.7,0c2.3,0.2,3.9,1.3,4.2,3.7v2.4c0.3,9.3-2.4,29-4.3,40.3c-0.6,5.4-0.4,6.1-0.4,11.5c0,1-0.1,4.1-0.5,4.8
	l-0.3,0.4c-0.3,0.4-1.7,0.7-2.4,0.8c-2,0.4-6.4,0.8-8.5,0.9c-2.6,0.2-5.2,0-7.8-0.4c-2.4-0.4-4.5-1.3-6.1-2.7l-3.4,1.8
	c-1.7,0.8-4.4,1.6-6.3,1.9c-2.5,0.4-6.4,0.6-8.9,0.5c-1.9,0-4.2-0.5-6.1-1c-1.1,0.9-3.1,1.3-4.5,1.3l-10.3,0.4l-103,1.7l-46.7,0.3
	c-9.5,0-55.9,0-65.4-0.4l-3.9-0.3c-0.2,0-0.4,0-0.6,0c-6.7-0.2-13.4-0.2-20.1,0l-32.8,1.5c-9.1,0.4-32,0.9-41.1,0.7l-7.2-0.3
	l-3.7-0.5c-4.2-0.7-7.9-4.3-9.8-8.1c-1.4-3-2.4-6.3-2.9-9.6c-1-6.2-0.7-11,0.9-17.1c2.2-8.6,5.5-16.9,9.9-24.7
	c1.3-2.3,3-4.4,5.1-6.1c1-0.9,2.3-1.5,3.6-1.8c2-0.6,4.1-0.8,6.2-0.8c6.6-0.2,13.3-0.4,19.9-0.4c11-0.2,22.1-0.2,33.1,0
	c14,0.1,26.3,0.4,40.4,0.9l-1.6,1.2c-1.5,1.1-3.2,2-5.1,2.4c-2.5,0.6-7.1,1.2-9.6,1.4c-3.4,0.5-6.7,1-10.1,1.6L390.9,197.2z
	 M696,214c-4.2,0.2-27.5,0.9-28.2,1v-1.4c-0.1,0,17.5-2.1,17.5-2.1c2.9-0.3,4.8-0.6,7.6-1.3l0.6-0.3c0,0,0,0,0-0.1v-0.6
	c0.1,0,0.1-0.6,0.1-0.6c0-0.9-0.2-4.5-0.9-5.1c-0.2-0.1-0.4-0.2-0.7-0.2l-13.8-1.2c-2.5-0.2-5.6-0.8-8-1.4h-0.8
	c-0.5-0.1-1.4-0.4-1.8-0.6l-0.3-0.3l-0.2-0.4v-0.5l0.5-0.4l0.3-0.2c2.2-1,7-2.2,9.4-2.5c3-0.4,9.2-0.8,12.2-0.8h1.9
	c0.9,0.2,1.6,0.3,2.2,0.9c0.7,0.6,1.4,1.3,2.1,2c1.1,1.2,1.8,2.8,2,4.5c0.2,1.8,0.2,3.6,0,5.4c-0.5,5.9-4.6,38.9-5.7,40.3
	c-0.7,0.3-4.3,0.7-5.2,0.8c-2,0.3-5,0.2-7-0.4c-1.6-0.5-3.8-1.7-5.7-2.8c0.7,1,1.6,1.8,2.7,2.2c1.8,0.7,3.7,1.1,5.7,1.1
	c2.7,0,5.5,0,8.2-0.2h1.3c0.3-0.2,0.7-0.3,0.9-0.5c0.3-0.2,0.5-0.5,0.6-0.9l0.5-1.4c2.3-9.8,4.7-28.8,5.8-41l0.2-4.4l-0.2-2.3
	c0-0.8-0.4-1.5-0.8-2.1c-0.3-0.3-0.7-0.5-1.1-0.6l-1.8-0.3c-7.3-0.5-14.6-0.8-21.8-0.8h-3.5c-1.3,0.2-4.5,0.5-5.8,1.8
	c-0.6,0.6-0.9,1.4-1,2.2c-0.1,1.2,0,2.3,0.1,3.5c0.7,5.3,1.6,10.5,2.6,15.7c0.8-1.4,1.6-1.7,3.9-1.7l21,0.2c0.6,0,2.9,0.1,3.8,0.3
	l0.3-2.5L696,214z M681.5,201l10.9,0.9c1.1,0.1,2,0.7,2.2,1.7c0.4,1.6,0.8,4.1,0.6,5.7v0.5c-0.1,0,1,1.5,1,1.5
	c0.1-1.2,0.4-3.8,0.4-3.8c0.2-1.8,0.2-3.2,0-5c-0.3-0.5-0.7-1-1.1-1.4l-0.3-0.2c-0.5-0.1-1.3-0.2-1.9-0.2c-1.5,0-6.9,0-11.8,0.1V201
	z M694.2,211.2c-0.3,0.2-0.5,0.3-0.8,0.4c-1.7,0.6-6.1,1.2-8,1.3H685l10.2-0.3C694.9,212.2,694.5,211.6,694.2,211.2z M319.1,211.6
	c0.1,0,0.2,0,0.4,0.1c4.3,0.7,5.1,0.7,8.6,1c17.6,1,16.9,0.8,34.6,1.5l14.4,0.7c0.5,0,1,0.3,1.4,0.5v0.4c0.1,0.3,0,0.5-0.3,0.8h-0.4
	l-30.6,0.7c-7.6,0.1-20.8,0-27.9-0.6c-0.9,0-1.9-0.2-2.7-0.5c-0.4,0.8-0.9,1.7-1.3,2.6c1.2-0.2,2.4-0.3,3.7-0.4
	c9.4-0.5,48.6-1.3,57.8-0.9c2,0,3.4,1.3,3.9,3c3.8-7,7.2-14,9-18.8l0.5-1.9c0.1-0.6,0-1.2-0.1-1.8c-0.6-1-2-2.2-3.3-2.4
	c-2.3-0.3-4.2-0.3-6.4-0.4c-16.9,0-40.7,0.4-57.7,1.2l-5.7,0.5c-1.2,0.1-2.5,0.8-3.3,1.7l-1.4,1.8c-1.8,2.9-3.5,5.9-4.8,9.1
	c-1.8,4.3-3,7.9-4.3,12.4c-1.9,6.8-2.5,13.7-0.8,20.6c0.6,2.1,1.7,5.1,3,7.4c-0.5-2.6-1-5.2-1.4-7.9c-1.4-9-0.2-18.1,3.3-26.4
	c1.9-4.8,4.4-9.4,7.5-13.5c1-1.4,2.6-2.8,4.2-3.5c1.7-0.8,4-1.3,5.8-1.4c6.8-0.7,13.6-1,20.4-0.9c7.5-0.1,15.1,0,22.6,0.3
	c3.7,0,8.1,0.5,11.7,1.5c1.3,0.4,2.7,1.2,3.8,2c0.6,0.5,1,1,0.2,1.6h-0.3l-37.8,0.3c-5.4,0-9.9,0.1-15.4,0.5c-0.9,0-1.7,0.2-2.6,0.4
	c-2.5,0.7-5.7,4.6-7.3,7C319.8,210.4,319.4,210.9,319.1,211.6L319.1,211.6z M317.2,214.9c0.7,0.2,1.4,0.3,2.1,0.4l3.8,0.3
	c8,0.3,16,0.4,24.1,0.3l14.2-0.3c-9-0.3-32-1.1-38.3-1.9l-3.9-0.6c-0.3,0-0.6-0.1-0.8-0.3c-0.4,0.7-0.8,1.4-1.1,2.1H317.2z
	 M315.1,242l1.4,1.7h7.3l2.3-1.9l0,0l-1.7-1.7h-7.2L315.1,242L315.1,242L315.1,242z M338.8,242l1.4,1.7h4.4c1.1-1.1,2.1-2.3,3.1-3.6
	H341L338.8,242L338.8,242L338.8,242z M339.5,245.1l-1.6-1.9h-11.3l-2.3,1.9l1.8,1.8h11.3l2-1.8H339.5z M315.8,245.1l-1.6-1.9h-4.4
	c0,0.4,0,0.9,0,1.3c0,0.8,0.1,1.5,0.2,2.3h3.7L315.8,245.1L315.8,245.1z M309.8,240.6h4.8l1.9-1.8h-0.1l-1.6-1.9h-4.9
	c0,1.2-0.2,2.4-0.2,3.7H309.8z M325.1,238.8l1.8,1.8h11.3l1.9-1.8l0,0l-1.6-1.9h-11.3l-2.2,1.8L325.1,238.8z M315.8,235.9l1.3,1.6
	h7.4l2-1.7l-1.6-1.6h-7.3l-1.9,1.7H315.8z M339.6,235.9l1.3,1.6h7.2l2-1.7l-1.6-1.6h-7.1l-1.9,1.7H339.6z M310.2,234.7h4.8l2-1.8
	l-1.6-1.9h-4.6c-0.2,0.8-0.4,1.6-0.5,2.4c0,0.4-0.1,0.8-0.2,1.3H310.2z M325.7,232.9l1.8,1.8h11.3l2-1.8l-1.5-1.8H328L325.7,232.9z
	 M349.4,232.9l1.7,1.7h0.6c0.8-1.2,1.5-2.4,2.3-3.6h-2.4l-2.2,1.8V232.9z M316.2,229.6l1.6,1.9h7.4l2.3-1.9l0,0l-1.8-1.8h-7.4
	l-2,1.8H316.2z M340.1,229.8l1.5,1.8h7.2l2.2-1.8l-1.7-1.7H342l-2,1.8L340.1,229.8z M311.7,228.2h4l2-1.9l0,0l-1.5-1.8h-3.4
	c-0.5,1.2-0.9,2.5-1.2,3.7H311.7z M326.5,226.6l1.7,1.7h11.2l2-1.8h0.1l-1.5-1.7h-11.3L326.5,226.6L326.5,226.6z M350.1,226.8
	l1.6,1.7h3.8c0,0,0-0.2,0.1-0.2c0.6-1.1,1.2-2.2,1.7-3.2h-4.9l-2.3,1.8l0,0L350.1,226.8z M317,223.2l1.6,1.9h7.3l2.1-1.6l-1.8-1.8
	h-7.4L317,223.2L317,223.2z M340.7,223.4l1.6,1.8h7.2l2.1-1.6l-1.8-1.8h-7.3L340.7,223.4L340.7,223.4z M313.8,221.9h2.3l2-1.9h8.6
	c0,0.1,1.9,2,1.9,2h11.3l2-1.8h8.5c0,0.1,1.9,2,1.9,2h6c0-0.1,0.1-0.3,0.2-0.5l0.8-2.7c-12,0-23.9,0.3-35.9,0.7l-4.5,0.2
	c-1.6,0-2.9,0.2-4.5,0.6c-0.2,0.5-0.4,1-0.6,1.5L313.8,221.9z M379.5,222.7L379.5,222.7c0-0.6,0-1.1,0-1.7c-0.2-0.8-0.8-1.4-1.5-1.7
	c-0.4-0.2-0.7-0.2-1.1-0.3h-4.8c-3.7,0-7.4,0-11.1,0c-1.2,4-1.9,6.5-4,9.9c-2.5,4.4-5.3,8.6-8.5,12.6c-2.2,2.8-4.7,5.4-7.4,7.6
	c-1.1,1-2.6,1.7-4.1,2.1c-3.5,0.8-14.3,1.4-21.6,1.6c5.3,0.2,10.7,0.4,16,0.4c6.5,0,10.1-0.2,16.5-0.7c3.3-0.2,6.1-0.8,9.2-1.9
	c3.6-1.7,7.4-4.7,10-7.8C369.9,239.1,374.9,231.1,379.5,222.7L379.5,222.7z M310.8,251.5c1.4,0,2.9,0,4.3-0.1l-1.5-1.7h-3.2
	c0.1,0.6,0.2,1.2,0.3,1.8H310.8z M324.5,251c2.7-0.2,5.4-0.3,8.2-0.5c1.3-0.1,2.7-0.3,4-0.6c0.2,0,0.3,0,0.5-0.1h-11.1L324.5,251
	L324.5,251z M338.7,249c0.5-0.3,1-0.6,1.4-1c0.6-0.5,1.2-1,1.7-1.5h-1.7l-2.1,1.9l0.6,0.7L338.7,249z M325.5,248.3l-1.8-1.8h-7.2
	l-2.1,1.9l1.5,1.8h7.3L325.5,248.3L325.5,248.3z M309.6,252.5c-2.2-10.3-1.3-21.6,3.1-31.2c2.6-6.3,6.2-13.5,11.6-18.1
	c0.8-0.7,1.8-1.2,2.8-1.5c3-0.8,14.4-1,18.3-1l35.7-0.2c-0.6-0.4-1.2-0.7-2-0.9c-4-1-7.2-1.4-11.3-1.5c-7.5-0.3-15.1-0.4-22.6-0.3
	c-9.6,0-10.7,0.1-20.3,0.9c-1.9,0.2-3.5,0.5-5.3,1.2c-1.4,0.7-2.7,1.8-3.6,3.1c-5.5,7.4-9.9,17.7-10.9,26.9
	c-0.8,7.5,0.6,14.9,2.2,22.2c0.5,0,1.5,0.2,2.4,0.2L309.6,252.5z M365.8,246.4c-0.6,0.6-1.2,1.1-1.9,1.6c-1.6,1.3-4.2,3.1-6.2,3.9
	c-2.7,1.1-6.7,1.9-9.6,2.1c-11.2,1-24.9,0.7-36.8,0l-3.9-0.3h-0.7c-1.2-0.4-2.3-2.4-2.8-3.6c-2.9-5.5-4.1-11.2-3.9-17.2
	c0.2-3.8,0.8-7.6,1.8-11.3c1.7-6.6,5.2-16.1,9.3-21.9c1-1.5,1.9-2.6,3.5-3.4c1.1-0.6,2.6-0.8,3.8-0.9c5.7-0.6,25.1-1.1,32-1.2
	c8-0.2,29.8-0.6,36.1,0c0.9,0,1.7,0.3,2.4,0.8c0.4,0.2,0.8,0.5,1.1,0.8c2.6-0.5,9.2-1.6,11-1.8c3.2-0.3,6.3-0.8,9.4-1.4
	c0.9-0.2,1.7-0.5,2.6-1c-23.5-0.7-45.5-0.9-69-0.7c-6.6,0-13.3,0.2-19.9,0.4c-2.2,0-3.7,0.2-5.8,0.8c-3.2,0.9-6.1,4.3-7.8,7.3
	c-5.2,9.4-10.3,22.2-11.1,32.5c-0.3,7.5,1.4,18.9,8.4,23.5c1.1,0.7,2.3,1.2,3.6,1.4l3.6,0.5l7.1,0.3c13.7,0,27.3-0.1,41-0.7
	l32.8-1.5c2.1,0,4.5-0.1,7-0.1c-6.7-1.1-13.4-2.3-19.8-3.5c-4.3-0.8-8.5-2.1-12.5-3.7l-4.7-1.7L365.8,246.4z M441.5,214.2V214h0.4
	l0.2,0.2c6.4-0.2,12.7-0.3,19-0.3c27.4-0.3,56.8-0.3,84.2-0.2l89.6,0.5l5.6,0.3c0.7,0,1.2,0.2,1.7,0.6c0.8,0.6,1.1,1.5,1.3,2.4
	c0.3,1.3,1.8,14,1.6,16.3c-0.1,1.1-1.6,4.2-2.2,5.3c-1.7,3.1-3.5,6.2-5.5,9.2c-0.8,1.3-1.9,2-3.3,2.4c-1.2,0.3-2.6,0.5-3.8,0.6
	l-8,0.5c-31.6,1.7-78.3,3.2-110.1,3.3h-54.3c-11.5,0.2-29.2,0-40.2-0.7c-1.6,0-3.5-0.5-5-1.3c-0.9-0.5-2.1-1.2-3.2-1.9
	c1.8,2.6,2.9,3.2,3.3,3.4c1.1,0.6,2.2,0.9,3.4,1h0.1c0,0,0,0,0.1,0l0,0l4.1,0.3c23.2,0.4,42.1,0.5,65.4,0.4
	c31.4,0,43.5-0.2,61.1-0.5v-0.3l67.9-3.1c10.4-0.4,13.7-0.5,24.1-1.5c1,0,1.8-0.3,2.8-0.6c0.7-0.3,1.2-0.8,1.6-1.4
	c3.4-5.3,4.2-7.1,7-12.7c0.3-0.5,0.4-1,0.5-1.6l-0.2-1.8l-1.7-10.3c-0.8-5.3-1.1-6.4-2.3-11.7c-0.4-1.9-0.9-2.8-2-4.5
	c-0.6-0.9-1.1-1.5-2.1-1.9c-1.7-0.7-3.5-1.1-5.4-1.2c-14.9-0.9-95.7-0.8-115.3-0.7c-19.1,0.1-61.3,0.6-84,1.6l-6.3,0.5
	c-1.9,0.2-3.8,0.6-5.6,1.2c-2.1,0.8-4,2.1-5.4,3.8c-1.5,1.8-2.9,3.8-4.2,5.8c8.3-0.5,16.7-0.8,25.2-1L441.5,214.2z M443.5,215.6
	l0.4,0.5h8.2l1-0.7c-3.3,0-6.5,0.1-9.7,0.2H443.5z M469.6,215.2l1,1.1h8.1l1.6-1.2c-3.6,0-7.2,0-10.8,0L469.6,215.2z M495.5,215
	l1.4,1.6h8l2.1-1.6c-3.9,0-7.7,0-11.6,0H495.5z M521.1,215c0.7,0.6,1.2,1.2,1.8,1.8h7.8l2.3-1.8C529,215,525.1,215,521.1,215
	L521.1,215z M546.4,215l1.8,2h7.8l2.4-1.9h-12V215z M564.5,215h6.9l1.8,2.1h7.5l2.4-1.8H596c0,0.1,1.7,2.1,1.7,2.1h7.4l2.4-1.8h12.7
	c0,0.1,1.7,2.1,1.7,2.1h7.3l2.3-1.8h9.8c-0.1,0-0.2,0-0.3,0c-0.8-0.1-5.1-0.4-6.2-0.4l-70.4-0.4L564.5,215z M642.1,217.4h-10
	l-2.3,1.8h-0.1l1.9,1.9h11.2c0-0.4-0.1-1-0.2-1.5l-0.3-2v-0.2H642.1z M621.2,219.1l-1.7-2H608l-2.4,1.8l0,0c0.7,0.7,1.3,1.2,1.9,2
	H619l2-1.8H621.2z M597,218.8l-1.7-2h-11.7l-2.4,1.8h-8.7c0-0.1-1.8-2.1-1.8-2.1h-11.9l-2.4,1.9h-9c0-0.1-1.8-2.1-1.8-2.1h-12.1
	l-2.4,1.9h-9c-0.6-0.9-1.2-1.5-1.8-2.1h-12.4l-2.5,1.9h-9.2c0-0.1-1.9-2.2-1.9-2.2h-12.6l-2.5,1.9h-9.3c0-0.1-1.9-2.2-1.9-2.2h-12.8
	l-2.6,1.9h-9.4c0-0.1-1.8-2-1.8-2c-4.6,0.1-9.2,0.3-13.8,0.4l-1.8,1.5l2.1,2h13l2.2-1.9h9.5c0,0.1,2.2,2.2,2.2,2.2h12.8l2.2-1.9h9.4
	c0,0.1,2.2,2.1,2.2,2.1H494l2.1-1.9h9.3c0,0.1,2.1,2.1,2.1,2.1h12.3l2.1-1.9h9.1c0,0.1,2,2.1,2,2.1h12.2l2.1-1.9h9
	c0,0.1,2,2.1,2,2.1h11.9l2.1-1.9h8.8c0,0.1,2,2.1,2,2.1h11.7L597,218.8L597,218.8L597,218.8z M577.7,251.9L577.7,251.9h-7.5
	l-0.3,0.3c2.6,0,5.3-0.2,7.9-0.3H577.7z M567.6,252.2l1.9-1.8l0,0l-1.7-1.9h-11.9l-1.9,1.6v0.5h-0.3l1.8,1.8h5.2c1.7,0,3.3,0,5,0
	c0.6,0,1.3,0,1.9,0V252.2z M578.3,250.4l1.4,1.4c4.4-0.2,8.8-0.3,13.1-0.5l0,0l1.1-1l0,0l-1.5-1.8h-11.7L578.3,250.4L578.3,250.4
	L578.3,250.4z M529.2,253.1l-1.3-1.3h-7.8l-1.6,1.4C522.1,253.2,525.6,253.2,529.2,253.1L529.2,253.1z M503.8,253.3l-1.6-1.5h-7.9
	l-1.6,1.5H503.8L503.8,253.3z M477.9,253.3l-1.7-1.5H468l-1.8,1.5h11.6H477.9z M451.5,253.3l-1.7-1.6h-8.2l-1.7,1.5
	c3.8,0,7.6,0,11.6,0L451.5,253.3z M424.2,252.9l-1.4-1.2h-8.5c1.1,0.5,2.2,0.7,3.4,0.8l5.6,0.4C423.6,252.9,423.9,252.9,424.2,252.9
	z M412.9,251.1l0.7-0.6l-1.8-2h-3.1C410.1,249.4,411.5,250.3,412.9,251.1L412.9,251.1z M423.6,250.4l2.1,1.8h13.1l2.1-1.9l-1.8-1.9
	h-13l-2.3,2L423.6,250.4z M450.4,250.4l2,1.8h12.8l2.2-1.9l-1.8-1.9h-12.7l-2.4,1.9L450.4,250.4z M476.9,250.4l2,1.8h12.5l2.1-1.9
	l-1.7-1.9h-12.5L476.9,250.4L476.9,250.4z M502.9,250.4l2,1.8h12.3l2-1.8l-1.7-1.9h-12.2L502.9,250.4L502.9,250.4z M528.6,250.4
	l1.9,1.9h12.1l2.1-1.9l-1.7-1.9h-12.1L528.6,250.4L528.6,250.4z M553.8,252.5l-0.7-0.7h-7.8l-1,0.9c3.2,0,6.4-0.1,9.6-0.2H553.8z
	 M493.3,240.8l1.6,1.8h8l2.2-1.9l-1.9-1.7h-8l-2,1.8L493.3,240.8z M519.1,240.9l1.4,1.7h7.9l2.2-1.9l-1.7-1.7h-7.8l-2.1,1.9H519.1z
	 M544.4,240.9l1.4,1.7h7.6c0.9-0.7,1.5-1.1,2.4-2l-1.6-1.5h-7.8L544.4,240.9L544.4,240.9z M569.2,240.9l1.4,1.6h7.6l2.3-1.9l0,0
	l-1.7-1.7h-7.6L569.2,240.9L569.2,240.9z M593.6,240.9l1.4,1.7h7.4l2.3-1.9h0.2l-1.7-1.7h-7.5L593.6,240.9h-0.1H593.6z M617.6,240.9
	l1.4,1.7h7.3l2.3-1.9h0.2l-1.7-1.7h-7.2l-2.1,1.9H617.6L617.6,240.9z M639.3,242.1h-10.2l-2.1,1.8l0,0l1.9,1.9h8.1
	C637.7,244.7,638.5,243.4,639.3,242.1z M618.5,244h-0.2l-1.6-1.9h-11.5l-2.1,1.8l0,0l1.9,1.9h11.5L618.5,244L618.5,244z M594.4,244
	L594.4,244l-1.8-2H581l-2.1,1.8l2,2h11.6C592.5,245.8,594.4,244,594.4,244z M570,244L570,244l-1.7-2h-11.8c-0.6,0.5-1.2,1-1.8,1.5
	c0,0.2,0.2,0.4,0.2,0.5c-0.1,0-0.3,0-0.6,0l1.8,1.8H568L570,244L570,244z M545.1,244L545.1,244l-1.7-2h-12.1l-2.3,1.9
	c0.7,0.6,1.4,1.2,2,1.9h12.1l1.9-1.8L545.1,244z M519.8,244l-1.7-1.9h-12.3l-2.3,1.9l2,1.8h12.2l2-1.8H519.8z M494.2,244l-1.7-1.9
	h-12.6l-2.3,1.9l2.1,1.9h12.5l2.1-1.9H494.2z M468,244c-0.7-0.7-1.3-1.2-1.9-1.9h-12.7l-2.3,1.9l2.2,1.9h12.8l2-1.8L468,244z
	 M441.4,244l-1.8-1.9h-13l-2.3,1.9l2.1,1.9h13.1l2.1-1.8L441.4,244z M414.1,244l-1.8-2h-7.1l0.6,1.7c0.3,0.8,0.7,1.5,1,2.1h5.3
	l2.1-1.9L414.1,244z M413.1,240.7l1.8,2h8.6l2.2-1.8l-2.2-2H415l-2,1.8H413.1z M440.3,240.7l1.8,1.9h8.3l2.2-1.8l-2.1-1.9h-8.3
	l-2,1.8H440.3z M467,240.7c0.6,0.7,1,1.2,1.7,1.8h8.3l2.2-1.8l-2-1.8H469L467,240.7z M404.9,239.4h7.3l2.3-2l-1.7-1.9h-7
	c-0.2,0.9-0.5,1.8-0.7,2.7L404.9,239.4L404.9,239.4z M424.5,237.6l2,1.8h13.1l2.2-1.9l-1.7-1.8h-12.9l-2.5,2L424.5,237.6z
	 M451.4,237.6l2,1.9h12.7l2.2-2l0,0l-1.7-1.9h-12.8l-2.5,2l0,0H451.4z M477.9,237.6l2,1.9h12.6l2.2-2l-1.7-1.9h-12.5l-2.5,2H477.9z
	 M504.1,237.6l2,1.9h12.3l2.1-1.9l-1.7-1.9h-12.2l-2.5,2l0,0L504.1,237.6z M529.8,237.6l1.9,1.9h12.1l2.1-2l-1.7-1.9h-12.1
	L529.8,237.6z M555,237.6l1.8,1.8h11.8l2-1.9l-1.7-1.9h-11.8l-1.9,1.6v0.5h-0.3L555,237.6z M579.6,237.4l1.9,1.9h11.7l1.9-1.8
	l-1.7-1.9h-11.7L579.6,237.4L579.6,237.4z M604,237.4l1.8,1.8h11.5l1.9-1.8l0,0l-1.6-1.9h-11.5l-2.2,1.8L604,237.4z M627.9,237.4
	l1.8,1.8h11.2c0.5-0.9,1-1.8,1.4-2.6l-0.8-1h-11.3L627.9,237.4L627.9,237.4z M416.2,216.8l-0.7-0.7l-2.8,0.2
	c-0.4,0.8-0.8,1.7-1.3,2.5h2.4l2.2-2H416.2L416.2,216.8z M630.7,221.9l-1.6-1.6h-7.4l-1.7,1.5l1.4,1.7h7.3L630.7,221.9L630.7,221.9z
	 M606.7,221.6c-0.5-0.6-1-1.1-1.6-1.7h-7.4l-1.8,1.6l1.3,1.6h7.5L606.7,221.6L606.7,221.6z M582.3,221.3l-1.6-1.6h-7.6l-1.8,1.6
	l1.3,1.6h7.6l2-1.6H582.3z M557.5,221.1l-1.6-1.6h-7.8l-1.8,1.6l1.3,1.6h7.8l2-1.6H557.5z M532.2,220.9l-1.6-1.6h-7.9l-1.8,1.6
	l1.4,1.5h7.8l2-1.6L532.2,220.9z M506.6,220.7l-1.6-1.5h-8.1l-1.9,1.7l1.4,1.5h8L506.6,220.7L506.6,220.7z M480.4,220.5l-1.6-1.5
	h-8.2l-1.9,1.6l1.4,1.6h8.1L480.4,220.5L480.4,220.5z M453.8,220.3l-1.6-1.6h-8.3l-1.9,1.6l1.4,1.5h8.2l2.2-1.6L453.8,220.3z
	 M426.9,220l-1.6-1.5h-8.6l-2,1.7l1.5,1.6h8.4l2.3-1.7L426.9,220z M643.1,223.5l-0.2-0.3h-11.3l-2.3,1.8l1.8,1.8h11.2l1-0.8
	C643.3,225.2,643.1,224.4,643.1,223.5z M620.7,224.8l-1.6-1.9h-11.5l-2.3,1.8l0,0l1.9,1.9h11.5L620.7,224.8L620.7,224.8z
	 M596.6,224.6l-1.7-2h-11.7l-2.4,1.9l2,2h11.6L596.6,224.6L596.6,224.6L596.6,224.6z M572,224.4l-1.7-2h-11.9l-2.4,1.9l2,2h11.9
	l2-1.9l0,0H572z M547,224.2L547,224.2l-1.7-2h-12.2l-2.4,1.9l0,0l2,2h12.1L547,224.2L547,224.2z M521.7,224l-1.9-2h-12.3l-2.5,1.9
	l0,0l2.1,2h12.3l2.1-1.9l0,0H521.7z M495.8,223.8l-1.9-2h-12.6l-2.5,1.9l0,0l2.2,2h12.5l2.2-1.9H495.8z M469.5,223.6L469.5,223.6
	l-1.9-2.1h-12.8l-2.5,1.9l0,0l2.2,2.1h12.8L469.5,223.6L469.5,223.6z M442.8,223.3l-2-2.1h-13l-2.4,1.9c0.7,0.8,1.4,1.4,2.1,2.1
	h13.1L442.8,223.3L442.8,223.3L442.8,223.3z M415.5,223l-1.9-2h-3c-0.6,1.3-1.1,2.7-1.6,4.1h4.2L415.5,223z M643.5,227.7l-0.6,0.5
	l0.7,0.8C643.6,228.6,643.6,228.1,643.5,227.7L643.5,227.7z M630.4,228l-1.8-1.8h-7.4l-2,1.8h-0.1l1.6,1.9h7.4L630.4,228L630.4,228z
	 M606.5,228l-1.9-1.9h-7.5L595,228l0,0l1.6,1.9h7.5l2.3-1.9H606.5z M582.1,227.8l-1.9-1.9h-7.7l-2,1.9l0,0l1.6,1.9h7.6L582.1,227.8
	L582.1,227.8L582.1,227.8z M557.3,227.6l-1.9-1.9h-7.8l-2.1,1.9h-13.3c0-0.1-2-2.1-2-2.1h-8l-2.1,1.9h-13.5c0-0.1-2.1-2.1-2.1-2.1
	h-8.1l-2.2,1.9h-13.7c0-0.1-2.2-2.1-2.2-2.1h-8.2l-2.2,1.9h-14c0-0.1-2.2-2.2-2.2-2.2h-8.4l-2.2,1.9H427c-0.8-0.8-1.5-1.4-2.3-2.2
	h-8.6l-2.3,2h-5.3c0,0.2-0.1,0.3-0.2,0.5h5.3l2,2.1h8.5l2.6-2h14.2c0,0.1,1.9,2.2,1.9,2.2h8.4l2.5-2h13.9c0,0.1,1.9,2.1,1.9,2.1h8.2
	l2.5-2h13.7c0,0.1,1.8,2.1,1.8,2.1h8.1l2.5-2h13.5c0,0.1,1.7,2.1,1.7,2.1h7.9l2.4-2h13.3c0,0.1,1.8,2.1,1.8,2.1h7.7l2.5-2.1l0,0
	L557.3,227.6z M546.2,230.9l-1.6-1.8h-12.1l-2.2,1.7l1.9,1.8h12.1l1.9-1.8L546.2,230.9z M520.9,230.9l-1.6-1.9H507l-2.3,1.8l2.1,1.9
	H519L520.9,230.9L520.9,230.9z M495.2,230.9l-1.7-1.9H481l-2.3,1.8l2.1,1.9h12.5l2-1.7L495.2,230.9z M469,230.8l-1.8-1.9h-12.7
	l-2.3,1.7l2,1.9H467L469,230.8L469,230.8z M442.2,230.6l-1.8-2h-13l-2.3,1.7l2.2,2h13l2-1.7H442.2z M415,230.4l-1.9-2h-5.2
	c-0.4,1.3-0.8,2.6-1.2,3.9h6.3L415,230.4L415,230.4z M643.4,231l-1.2-1.5h-11.3l-2,1.6l1.5,1.5h11.3l1.8-1.6H643.4z M619.6,231
	l-1.3-1.5h-11.5l-2,1.5l1.5,1.6h11.4L619.6,231L619.6,231z M595.5,231l-1.4-1.6h-11.6l-2.2,1.6l1.6,1.6h11.7l1.8-1.6H595.5z
	 M571,230.9l-1.4-1.7h-11.9l-1.9,1.5v0.4l1.6,1.6h11.8l1.9-1.8H571z M643.7,232.8l-1.6,1.5h-12.5l-1.9-1.9h-7.3l-2.1,1.9h-12.6
	l-1.9-2h-7.5l-2.1,1.9h-12.9l-2-2h-7.5l-2.1,2l0,0l1.7,2h7.6l2.3-1.9h12.9l1.7,2h7.5l2.3-1.9h12.7l1.6,1.9h7.4l2.3-1.9h12.5l0.8,1
	c0.2-0.5,0.5-1.1,0.6-1.6v-0.5c0.1-0.2,0-0.3,0-0.5H643.7z M556.7,234.1l-1.9-1.9c-2.3,0-6.5,0-7.9,0l-2.1,2l0,0l1.8,2h7.6
	L556.7,234.1L556.7,234.1L556.7,234.1z M531.5,234.1l-2.1-2h-7.8l-2.2,2l1.8,2h7.9l2.3-2l0,0H531.5z M506,234.1l-2.2-2h-8l-2.2,2
	l1.8,2h8.1L506,234.1L506,234.1z M488,234.1h-8.1l-2.2-2.1h-8.1l-2.2,2h-14c0-0.1-2.2-2.2-2.2-2.2h-8.3l-2.3,2h-14
	c0-0.1-2.3-2.2-2.3-2.2h-8.5l-2.4,2.1h-7.2c0,0,0,0.2,0,0.3h7.2l1.9,2.1h8.6l2.6-2h14.1l1.9,2h8.4l2.5-2h14l1.8,2h8.3l2.5-2h8.1
	L488,234.1z M602.7,250.2l0.3,0.3c4.9-0.2,9.8-0.4,14.7-0.7l-1.3-1.6H605l-2.3,1.9l0,0L602.7,250.2z M412.6,247l1.8,2h8.5l2.5-2.1
	l0,0l-2.1-2h-8.4L412.6,247z M439.7,247l1.8,1.9h8.3l2.5-2h0.1l-2.1-1.9H442L439.7,247L439.7,247z M466.3,247l1.8,1.9h8.2l2.5-2l0,0
	l-2-1.9h-8.1l-2.2,2H466.3L466.3,247z M492.6,247l1.7,1.9h8l2.5-2l0,0l-2-1.9h-7.9l-2.2,2l0,0H492.6z M518.3,247l1.7,1.9h7.9l2.4-2
	l0,0c-0.7-0.7-1.2-1.3-1.9-1.9h-7.9L518.3,247L518.3,247z M543.7,247l1.7,1.9h7.6l2.4-2l-1.7-1.7h-7.8L543.7,247L543.7,247
	L543.7,247z M568.7,247l1.6,1.7h7.6l2.2-1.8l-1.8-1.8h-7.5L568.7,247L568.7,247z M593.2,247l1.6,1.9h7.4l2.2-1.8l-1.8-1.8h-7.4
	L593.2,247L593.2,247z M617.2,247l1.5,1.8h7.3l2.3-1.9l-1.8-1.8h-7.2C619.3,245.1,617.2,247,617.2,247z M634.6,248.3h-5.8l-1.2,1
	l2.5-0.2C631.4,249.1,633.4,248.8,634.6,248.3L634.6,248.3z M413.4,214.9c0.4,0,0.7,0,1.1,0c1.5-2.4,3.1-4.6,4.9-6.8
	c3-3.6,7.5-5.2,12-5.5l6.4-0.5c6.3-0.4,25.3-0.8,31.6-0.9c50.2-1,103.9-1,154.8-0.4c3.9,0,9.2,0.1,13,0.4c1.7,0.1,4.2,0.6,5.8,1.4
	c1.1,0.5,2.1,1.5,2.7,2.5c1.1,1.5,1.8,3.2,2.2,4.9c1,3.9,1.7,7.8,2.3,11.8l1.7,10.3c0.2,1.7,0.2,2.8-0.5,4.2c-2,4.4-4.4,8.8-7,12.9
	c-1.2,1.8-3.4,2.6-5.4,2.7c-8,0.8-16.1,1.3-24.1,1.5l-27.1,1.2c15.9-0.2,31.8-0.4,47.7-0.8l9.4-0.4c1.3,0,2.3-0.1,3.6-0.5
	c0.4-0.1,0.8-0.4,1.1-0.6c0.4-0.4,0.7-0.8,0.9-1.2c1.8-3.4,3.6-9.7,4.7-14c0-1.9-0.1-2.9-0.5-4.7l0,0c-0.7-4.7-1.6-9.4-2.6-14
	c-0.7-3.3-1.6-6.4-2.8-9.5c-0.8-1.9-2.7-5.4-4.5-6.9c-2.9-2-7.8-1.9-11-2l-79.4-1.3c-28.9-0.4-51.7,0.6-78.9,1.2l-24,0.4
	c-5.1,0-10.3,0-15.4,0.3c-3.8,0.2-6.2,0.7-10,1.6c-2.3,0.5-4.2,1.4-6.1,2.8c-1.8,1.6-2.9,3.1-4,5.2c-0.9,1.6-1.9,3.1-2.7,4.7
	L413.4,214.9z M670.9,235.8l1.9,1.8l11.5-0.3l1.9-1.9l-1.6-1.8l-11.5,0.3l-2.2,2V235.8z M690.7,236.6h-3.8l-2,2.1l1.5,1.7l4.2-0.2
	L690.7,236.6L690.7,236.6z M672.2,238.9l-0.9-0.8c0,0.2,0.1,0.4,0.2,0.6l0,0c0,0,0,0.2,0,0.3s0,0.2,0.1,0.4l0.4-0.4l0,0L672.2,238.9
	z M670.4,234.4L670.4,234.4l2.1-1.9l-1.7-1.6h-1.2C669.8,232.1,670.1,233.3,670.4,234.4z M685.5,232.3l1.5,1.7h3.8v-3.6h-3.5
	L685.5,232.3L685.5,232.3z M671.5,229.5l1.8,1.7l11.4-0.3l1.9-1.9l-1.5-1.8l-11.5,0.3l-2.1,1.9V229.5z M669,228.2h1.8l2.1-2
	l-1.8-1.7h-2.8C668.5,225.8,668.8,227,669,228.2z M685.9,226l1.5,1.7h3.5V224h-3.2L685.9,226z M671.8,223.1l1.9,1.8l11.5-0.3
	l1.8-1.9l-1.6-1.7l-11.5,0.3l-2.1,1.9V223.1z M667.8,221.9h3.3l1.6-1.6h-2l-3.3-0.1l0,0C667.5,220.8,667.6,221.3,667.8,221.9
	L667.8,221.9z M686.7,220.2l1.1,1.2h3.2l0.2-1.2C691.2,220.2,686.7,220.2,686.7,220.2z M695.4,217.9l-2.4,1.6
	c-0.1,0.1-0.4,2-0.5,2.4l-0.4,20l1.3-8.5C693.4,233.4,695.4,217.9,695.4,217.9z M690.6,246.6v-3.9l-4.1,0.2l-2,2l-7.5,0.2
	c1.1,0.6,2.3,1.1,3.5,1.6c2.1,0.5,4.2,0.6,6.4,0.4l3.7-0.4V246.6z M691.8,218.7c0-0.1,0.2-0.2,0.3-0.3l1.7-1.1
	c-5-0.1-21-0.3-22.8-0.3c-0.6,0-1.5,0.1-1.9,0.2c0,0-0.2,0-0.2,0.2c-0.5,0.7-0.6,0.9-0.8,1.4c3.4,0.2,20.9,0,23.9,0L691.8,218.7z
	 M685.8,241.6l-1.5-1.7l-11.5,0.4l-0.5,0.4c0.3,0.7,0.5,1.4,0.9,2c0.6,0.4,1.1,0.8,1.7,1.1l0,0c0-0.1,9.1-0.4,9.1-0.4
	S685.8,241.6,685.8,241.6z M695.7,199.3c-0.7-1-1.6-1.8-2.6-2.7c-0.2-0.2-0.4-0.3-0.6-0.3c-1-0.2-1.7-0.2-2.7-0.2c-4,0-8,0.3-12,0.8
	c-2.7,0.4-5.4,1.1-8,2l3,0.3c6.8,0,13.6,0,20.5-0.1l0,0l1.7,0.1h0.6L695.7,199.3z M663.7,195.8c0.6-1.1,1.6-1.9,3-2.2
	c1.3-0.4,2.6-0.6,3.9-0.7l4-0.2c7.2,0,14.4,0.3,21.5,0.7l0,0c2.7,0.3,4.7,0.7,5.3,3.8c0.2,0.8,0.3,1.6,0.3,2.5c0,1.7,0,3.4-0.2,5.1
	c-0.7,8.2-1.7,16.3-2.9,24.4c-0.4,3.9-1.8,13.1-2.9,16.9c-0.9,3.2-1.9,3.5-4.6,3.8c-1.7,0.2-6.7,0.3-8.4,0.2c-1.9,0-4.3-0.5-6.1-1.2
	c-0.5-0.2-1-0.5-1.5-0.8c0.7,1,1.3,1.3,1.4,1.4l0,0c5.6,3.9,14.9,2.5,21,1.7l1.3-0.3c0,0,0.1,0,0.2,0c0-0.1,0-0.2,0.1-0.3
	c0.2-1.3,0.3-2.7,0.3-4c-0.1-3,0-8.8,0.4-11.7c1.4-8.7,2.6-17.5,3.6-26.3c0.5-4.6,0.8-9.2,0.8-13.8v-2.3c-0.1,0-0.4-1-0.4-1
	c-0.1-0.3-0.3-0.5-0.5-0.6c-0.6-0.4-1.4-0.7-2.1-0.8l-3-0.2c-6,0-11.5,0-17.5,0.3l-27.5,1.2l4.6,1.7
	C659.4,193.7,662,195,663.7,195.8L663.7,195.8z M47.6,133.2L47.6,133.2l-1.8,5.8c-0.6,1.9-3,2.8-4.7,2.3c-0.9-0.2-1.6-1-1.7-1.9
	c-0.2-1-0.2-1.9-0.1-2.9c0-0.7,0.2-1.4,0.4-2.1l0,0l-0.5-0.1c-1.3-0.5-0.6-2.2-0.4-3.1c0.2-1.2,0.7-2.9,1.3-4c0.3-0.5,0.9-1,1.5-1.2
	c0.5-0.1,1.2-0.2,1.7-0.1l4.1-0.2c0.8,0,0.7,0,1.3,0.1c1,0.6,1.1,1.2,0.9,2.3l-0.9,3l-0.5,1.6l-0.4,0.5L47.6,133.2z M41.1,134.4
	c-0.4,1.5-0.6,3.2-0.3,4.7c0,0.4,0.3,0.6,0.7,0.7c0.5,0.1,1.1,0.1,1.6,0c0.4-0.2,0.8-0.4,1.1-0.7c0.2-0.2,1.1-3.2,1.7-5
	C44.4,134.3,42.7,134.5,41.1,134.4z M48,127.3c0,0,0-0.1,0-0.2c-0.5-0.1-5.2,0.2-6.2,0.2c-0.2,0-0.4,0.2-0.6,0.4
	c-0.8,1.8-1,2.9-1.4,5l0,0c1.7,0.1,3.4,0,5-0.2h1c0-0.1,0.4-0.3,0.4-0.3c0.4-0.2,0.7-1.3,0.9-1.8l0.9-2.9V127L48,127.3z
	 M100.3,135.3c0,0.8-0.1,1.7-0.3,2.5l0,0c-0.2,0.9-0.7,2.1-1.1,2.9c-0.9,2.1-3.4,3-5.5,2.8c-2.6-0.2-3.8-2.8-3.7-5.1
	c0-1.2,0-2.3,0-3.5l0,0c-0.7-0.4-0.7-1.5-0.6-2.2c0.1-1.1,0.5-3.7,0.9-4.8c0.6-1.6,1.8-1.9,3.4-1.9c1.8,0,4.7-0.1,6.5,0.1
	c0.8,0,1.8,0.5,2.2,1.3c0.1,0.3,0.2,0.7,0.2,1l-1.2,6.1l-0.4,0.6l-0.3,0.2H100.3z M91.1,135.3c-0.1,1.7-0.2,4.4,0.6,5.7
	c0.4,0.6,1,1,1.7,1c1,0,1.9-0.1,2.8-0.5c1.1-0.6,1.9-2.7,2.3-4c0.1-0.6,0.2-1.3,0.3-1.9c-1.5,0-4-0.2-4.9-0.2h-2.5
	C91.4,135.3,91.2,135.3,91.1,135.3L91.1,135.3z M100.7,128L100.7,128c-0.3-0.2-0.6-0.3-1-0.3c-1.9-0.2-6.2-0.3-7.8,0.1
	c-0.1,0-0.2,0.1-0.3,0.2c-0.1,0.2-0.2,0.3-0.3,0.5c-0.4,1.4-0.7,2.9-0.9,4.4v0.9c0.5,0.2,2.9,0.2,3.5,0.3l5.4,0.2l0,0l0.1-0.2
	c0.1-0.3,1.1-5,1.1-6L100.7,128z M26.2,272.9L26.2,272.9L26.2,272.9c-0.3,1.4-0.6,2.9-1,4.3c-0.7,2.7-1.6,5.4-2.6,8
	c-0.9,2.1-2.2,4.6-4,6.2c-1.9,1.8-4.7,1.5-6.3-0.4c-0.8-0.9-1.6-1.9-2.1-3.1c-1.1-2.2-2-4.6-2.6-7c-1.3-4.7-2.2-9.5-2.7-14.4
	c-1-8.9-1.5-17.9-1.3-26.9c0.1-7.8,0.7-15.6,1.7-23.3c0.6-4.8,1.5-9.5,2.7-14.2c0.7-2.7,1.6-5.4,2.6-8c0.9-2.1,2.2-4.6,4-6.2
	c1.9-1.8,4.7-1.5,6.3,0.4c0.8,0.9,1.6,1.9,2.1,3.1c0,0.2,0.2,0.4,0.3,0.5c0,0,0,0,0.1,0.1l0,0c1,2.1,1.7,4.2,2.3,6.4
	c1.3,4.7,2.2,9.5,2.7,14.4c0.1,1.2,0.3,2.4,0.4,3.5l0,0l0,0c0.4,4.2,0.7,8.4,0.8,12.6c0.1,0.1,0.3,0.3,0.4,0.4
	c-0.1,0-0.2,0.1-0.4,0.2c0.1,3.4,0.1,6.8,0,10.2c0,3.8-0.2,7.6-0.5,11.5l0,0l0,0c-0.3,4-0.7,7.9-1.2,11.9c-0.4,3.3-1,6.6-1.7,9.9
	V272.9z M24.7,272.9l-0.6-1.6c-0.2-0.5-0.3-1.2-0.3-1.8c0-0.2,0-0.4,0-0.5l0,0l-0.1,1c-0.1,0.8,0,1.6,0.2,2.4
	c0.2,0.6,0.4,1.3,0.6,1.9c0.1-0.5,0.2-0.9,0.3-1.4H24.7z M24.1,266.7c0.2-0.4,0.4-0.8,0.7-1.3l1.7-2.9c0-0.6,0.2-1.1,0.2-1.7
	c0,0,0,0.2-0.2,0.2l-3.7,5l-3.6,5.4l-2.7,4.6l-1.1,2.6c-0.1,0.4-0.3,0.8-0.3,1.2c0.1-0.4,0.2-0.7,0.4-1.1c1.2-2.6,4.6-8.5,6.2-10.9
	l0.7-1.1v-0.2l0.4-0.2l0.7-0.2l0.3,0.3C23.8,266.4,23.9,266.6,24.1,266.7L24.1,266.7z M26,266.2c-0.4,0.5-0.6,0.9-0.8,1.5
	c0,0.6,0,1.6,0,2.4C25.4,268.8,25.7,267.5,26,266.2L26,266.2z M16.3,252.6c0,3,0,7,0.3,10c0,0.5,0.1,0.9,0.2,1.3l8-10.1l3-3.3
	c0-0.3,0-0.6,0-0.9c0-0.2,0-0.3-0.1-0.5c-1.7,0-3.5,0.3-5.2,0.8c-1.3,0.4-1.9,0.7-3.1,1.3C18.3,251.8,17.3,252.3,16.3,252.6
	L16.3,252.6z M15.6,265.4c-0.2-0.9-0.4-1.8-0.5-2.7c-0.2-1.6-0.3-3.2-0.3-4.8c0-1.7,0-3.3,0-5c-0.9,0.2-1.8,0.2-2.9,0l-2.6-0.5h-1
	c-1.2-0.1-1.8-0.6-2.2-1.3c-0.1,4.1,1.6,18,1.9,20.1c0.5,2.5,1.1,4.9,1.7,7.3c0.2-1.1,0.4-2.2,0.7-3.3c0.4-1.8,1-3.5,2-5
	C13.3,268.5,14.4,266.9,15.6,265.4L15.6,265.4z M7,249.5l0.3,0.7c0.1,0.2,0.3,0.4,0.5,0.6c0.5,0.3,1.2,0.2,1.8,0.3l2.6,0.5
	c1.1,0.1,2.2,0,3.2-0.2c1.2-0.4,2.3-0.9,3.3-1.4c2.4-1.4,5.4-2.1,8.3-2.2c-0.1-0.1-0.3-0.2-0.5-0.2c-4.5-0.3-14.9,1-19.4,2.1
	L7,249.5z M22.9,209.6l0.3-2.6c0.2-1.4,0.6-2.9,1.3-4.2c-0.3-0.6-0.7-1.3-0.9-1.9l0,0l-0.3-1.1v-3.3c-1.1-0.6-2.2-1.3-3.2-2.2l0,0
	c-0.7-0.6-1.6-1.7-2.4-2.7v4.6c0,2.1,0.8,4.2,1.7,6.1c1.4,2.8,2.5,5.1,3.7,7.3L22.9,209.6z M25.5,204c-0.4,1-0.7,2.1-0.9,3.2v0.2
	c0.2-0.8,0.6-1.6,1.1-2.2C25.7,204.8,25.6,204.5,25.5,204L25.5,204z M26.1,207.3c-0.2,0.5-0.3,1-0.3,1.6l0,0l-0.7,4.9
	c0.5,0.9,1.1,1.9,1.6,2.9c0.2-0.3,0.3-0.6,0.5-0.8C26.9,213,26.5,210.2,26.1,207.3L26.1,207.3z M6.6,228.5c2-2.2,5.4-2.6,8.2-2.8
	c0-1.2,0.2-2.8,0.3-3.6l1.4-7.8l0,0c-0.3-0.5-0.6-1.1-0.9-1.6c-1.1-1.9-2.1-4-2.9-6.1c-0.7-1.5-1.3-3.1-1.6-4.6
	c-1,4.5-1.9,8.9-2.8,13.4c-0.6,4.1-1.1,8.1-1.5,12.2l0,0c0,0.4,0,0.7-0.1,1L6.6,228.5z M15.1,227.1c-1.2,0-2.5,0.2-3.7,0.4
	c-1.1,0.2-2.2,0.6-3.1,1.3c-0.5,0.4-0.9,0.9-1.2,1.4c0.7,0.2,1.4,0.4,2,0.5l5.1,0.7l10.6,0.9c0.4,0,0.9,0,1.3-0.2
	c0.7-0.3,1.3-0.7,2-1.1c0-0.4,0-0.8,0-1.2c-0.9,0.3-1.8,0.6-2.5,0.7c-1,0.1-2.8-0.1-3.8-0.4c-1.3-0.3-2.6-0.7-3.8-1.2
	c-0.8-0.3-1.6-0.7-2.4-1.2c-0.2-0.1-0.4-0.4-0.6-0.6L15.1,227.1z M6.8,215.4c0-0.2,0-0.3,0-0.4c0.3-1.6,3-14.5,3.4-16.1l0.3-1.1
	c0.1-0.3,0.3-0.6,0.7-0.6c0.3,0,0.5,0.2,0.8,0.4l0,0c0,0.1,0,0.2,0,0.2v0.2v0.3l0,0c0,0.8,0,1.5,0.1,2.2l-0.2-3.1
	c0-2.7,0.7-4,2.6-5.7h0.1c0.4-0.4,1-0.3,1.2,0.2v-2.2c0-0.4,0-0.5,0.2-0.8l0.7-0.4c0.8-0.1,1.4,0,2,0c-0.5-0.3-1-0.6-1.6-0.6
	c-0.9,0-1.7,0.5-2.3,1.2c-2.1,2.3-3.8,6.3-4.8,9.5c-1.6,5.2-2.7,11-3.6,16.9L6.8,215.4z M16.5,211.1c2,3.7,4.4,7.4,6.7,10.4
	c0.7,0.9,1.4,1.8,2.1,2.6c-1.6-2-5.4-7.8-6.3-9.1C18.3,214,17.4,212.6,16.5,211.1z M25.7,224.6c0.7,0.9,1.5,1.7,2.3,2.5
	c0-1.7-0.2-3.5-0.3-5.2c-0.2,0.4-0.3,0.9-0.4,1.4v0.8c-0.2,0.3-0.3,0.5-0.5,0.7c-0.1,0.1-0.3,0.2-0.5,0.2c-0.3,0-0.5,0-0.7-0.3l0,0
	L25.7,224.6z M28.2,232.7c-0.5,0.3-0.9,0.5-1.4,0.7l0,0c-0.6,0.3-1.4,0.4-2,0.3l-10.7-0.9L9,232.1c-0.7-0.1-2.3-0.5-2.9-0.8
	l-0.5-0.4c-0.1-0.2-0.2-0.5-0.3-0.8c0,1-0.1,2-0.2,3c0.1-0.5,0.5-0.8,1.1-0.8l2.5,0.7c4.2,0.6,12.1,1,17,1c0.8,0,1.6-0.2,2.3-0.4
	c0-0.3,0-0.6,0-0.8L28.2,232.7z M17.7,216l-1.1,6.2c-0.2,1.2-0.3,2.4-0.3,3.6v0.5c0.4,0.4,1.8,1,2.2,1.1c2.1,0.8,4.6,1.7,7,1.6
	c0.6-0.1,1.3-0.3,1.9-0.5C23.7,224.8,20.5,220.5,17.7,216L17.7,216z M17.9,189.7c0.9,1.2,1.9,2.4,3,3.4c0.6,0.5,1.3,1,2,1.4
	c-0.3-0.8-0.6-1.5-0.9-2.2l-1.5-1.6c-0.3-0.3-0.8-0.6-1.2-0.8C18.9,189.8,18.5,189.7,17.9,189.7L17.9,189.7z M14.1,243.6
	c-0.2-2.9-0.2-5.8,0.2-8.7h-0.2c-1.3,0-4.4-0.3-5.6-0.5l-1.9-0.5v3.3l-0.2,8.1l0.7-0.3c0.4-0.2,1-0.3,1.4-0.3c0.2,0,0.6,0,1.2,0l0,0
	C11.2,244.2,12.6,243.9,14.1,243.6L14.1,243.6z M15.7,235c-0.3,2.8-0.4,5.6-0.2,8.3c1.2-0.2,2.5-0.3,3.7-0.3l3.9-0.5
	c0.6-0.1,1.1-0.3,1.5-0.7c0.8-0.9,0.4-4.3,0.2-5c-0.2-0.5-0.4-1-0.6-1.5C21.8,235.3,18.1,235.1,15.7,235L15.7,235z M25.9,235.4
	c0.2,0.3,0.3,0.7,0.4,1.1c0.2,0.7,0.3,1.6,0.3,2.3c0,0.8,0,1.6-0.1,2.4c-0.2,1.5-1.6,2.6-3.1,2.8h-0.3c1.6,0,3.2,0,4.8-0.1
	c0-1.5,0-3,0.1-4.5c0-1.4,0-2.9,0-4.3C27.3,235.3,26.5,235.4,25.9,235.4L25.9,235.4z M27.5,252.6l-1.7,1.9L17,265.7
	c-3,3.9-4.4,6.2-5.2,9.6c0.6-2,1.5-3.8,2.7-5.7c1.3-2.2,3-4.6,4.5-6.6l5.1-6.4l0.6-0.6c0.4-0.3,1-0.4,1.3,0c0,0.1,0.6,2.4,0.7,3.3
	c0.3-2.3,0.5-4.5,0.7-6.8L27.5,252.6z M10.4,282c-0.4,0.2-0.9,0-1.1-0.3l0,0c0.8,2.3,1.7,4.8,3,6.7c0.7,1.2,1.9,2.5,3.4,2.6
	c0.9,0,1.7-0.5,2.3-1.2c0.1-0.1,0.3-0.3,0.4-0.4l-2.4,0.8h-0.6l-0.7-0.3l-0.2-0.9v-0.6v-0.3c-0.2,0.2-0.5,0.2-0.8,0.1h-0.3
	c-0.3-0.3-1.6-1.9-1.9-2.4c-0.7-0.7-1.1-1.7-1-2.8v-0.9l0,0L10.4,282z M5,249.2c0.7-1.2,2.4-1.5,4.1-1.9c0.6-0.1,8.3-1.1,10.5-1.3
	l5.6-0.3h1.4c0.5,0.1,1,0.4,1.3,0.7c0-0.4,0-0.8,0-1.2c-5.6,0-4.7,0.2-11,0.6l0,0c-2.8,0-5.6,0.2-8.4,0.2c-0.3,0-0.7,0-1,0.2
	l-1.4,0.6c-0.6,0.2-1.1,0-1.2-0.5c0,0.9,0,1.9,0,2.8L5,249.2z M17.6,288l2.1-0.7l0,0c0.4-0.6,0.7-1.3,1.1-2
	C19.6,286.2,18.5,287.2,17.6,288L17.6,288z M23.7,276.5c-2-4.8-1.8-6.4-1.7-6.8c-1.9,3-3.6,6.2-5.2,9.4c-0.5,1.2-0.7,2.3-0.7,3.6
	l-0.3,5.1l2.2-2.1c1.7-1.5,2-1.6,3.8-2.7c0.3-0.9,0.6-1.8,0.9-2.6c0.4-1.2,0.7-2.5,1-3.7V276.5z M11.9,284c0.1,0.3,0.3,0.5,0.5,0.7
	l0.9,1.2c0-1,0-2.6,0-2.8v-0.2l0,0L11.9,284L11.9,284z M13.5,281.3v-1.7c0.1-0.6,0.3-1.4,0.5-1.9l1.1-2.6
	c2.3-4.5,7.2-11.3,10.1-15.3c0,0-0.2-1.1-0.3-2c-0.2,0.2-0.4,0.4-0.4,0.4c-3.5,4.2-11.1,13.3-12.1,19.9l-0.7,4c0,0,0,0.1,0,0.2
	l0.9-0.6l0.8-0.4H13.5z M27.3,218.2v0.2c-0.5,0.7-1.2,0.9-1.7,0.3l-2-2.8c-1-1.5-3.6-5.9-4.4-7.6c-0.4-0.8-3.8-7.6-4-8.5l-0.3-3.6
	c-0.4,0-0.8,0-1.2-0.2c0,0-0.1,0-0.2,0c0,0.4,0,0.8,0,1.2l0.2,3.8l0.3,1.5c0.4,1.4,1,2.7,1.6,4c2.5,4.8,6.7,11.1,10.3,16
	c0.1-0.6,0.3-1.3,0.6-1.9c0.3-0.6,0.6-1.2,0.9-1.8c0-0.2,0-0.5,0-0.7L27.3,218.2z M14.8,194.8v-1.3c-0.4,0.3-0.6,0.5-0.5,0.5
	c-0.2,0.2-0.3,0.4-0.4,0.6C14.2,194.7,14.5,194.8,14.8,194.8z M5,233.5c0,1.9-0.1,3.9-0.2,5.7c0,2.1,0,4.1,0,6.2l0.2-8.5v-3.5V233.5
	z M301.9,128.8c0.2-5.8,4.9-12.2,11.4-11.4c2.7,0.3,5.1,1.8,6.6,4c1.6,2.3,2.4,5,2.3,7.8c0,5.4-3.8,11.5-9.8,11.8
	c-2.9,0.2-5.7-1-7.6-3.3c-2.2-2.5-3.2-5.7-3-9L301.9,128.8z M313.1,118.9c-2.4-0.2-4.8,0.7-6.5,2.4c-2.1,2.1-3.1,4.7-3.3,7.6
	c-0.2,3,0.6,5.7,2.6,8c1.6,1.9,4,2.9,6.4,2.7s4.5-1.4,6-3.3c3.1-4.1,3.3-9.8,0.4-14.1C317.4,120.3,315.4,119.1,313.1,118.9
	L313.1,118.9z M336.7,125.6c-2.7,1.9-3.9,3.2-6.2,5.6l0,0c-0.8,0.8-1.5,1.7-2.2,2.6c0,0.2-0.1,0.3-0.1,0.5c0,0.4,0.5,0.8,0.8,1.1
	l1.1,0.7c0.7,0.4,1.2,0.8,0.7,1.6c-0.2,0.5-4.3,3.9-5,4.5l-0.9-1.1l4.4-3.8l0,0c-0.7-0.4-1.5-1-2-1.6c-0.6-0.7-0.7-1.8-0.2-2.6
	s1.7-2.1,2.4-2.8c4.2-4.9,8-7.5,14.3-8.8c1.2-0.3,2.4-0.7,3.5-1.2c1-0.6,1.8-1.3,2.7-2.1l1,1c-0.9,0.9-1.9,1.6-2.9,2.3l0,0
	c-1,0.6-2.8,1.2-3.9,1.4C341.6,123.4,339.1,124.4,336.7,125.6L336.7,125.6z"/>
<path class="st1" d="M651.6,121.9l-0.9-0.2l-0.5-0.5l-0.2-0.6v-1.7c-0.1-0.5,0.3-0.8,0.7-0.9l1.2-0.3l14-1.4l13.6-0.9h1
	c0.4,0,1,0.2,1.4,0.4c0.8,0.5,1.8,2,2.3,2.8c2.2,3.4,3.7,6.3,4.3,10c0.4,1.7,0.5,3.5,0.4,5.3c0,1.5-0.3,3.3-0.8,4.7l-2.7,6.7
	c-0.1,0.3-0.3,0.7-0.6,1c-0.9,0.8-7.7,1.5-9.3,1.6l-24,2.4h-2.2c-0.7,0-0.9,0-1.5-0.5l0.6-2.9c0-0.3,0.2-0.5,0.4-0.7l0.4-0.2
	l0.8-0.2l12.9-1.5c6.3-0.7,6.3-0.9,12.6-2c2.1-0.4,3.8-1.1,5.4-2.4c1.1-1.1,2-2.5,2.6-4c0.7-2,1.3-5.2,0.5-7.4
	c-0.5-1.3-1-2.5-1.7-3.7c-0.6-1-1.3-1.9-2.1-2.7l-1.2-1c-1.6-0.2-17.4,0.6-20.3,0.8c-7.8,0.3-6.6,0.1-6.9,0L651.6,121.9z
	 M648.7,133.6l0.2-3.7c1.5,0,12.6-0.5,14-0.1l0.6,0.3c0.4,0.6,1.9,4.9,1.7,5.6c-0.1,0.7-0.9,1-1.4,1.1c-2.5,0.5-12.6,0.9-15.5,0.9
	l0.5-4L648.7,133.6z M677.2,136.1c-0.9,1.5-2.7,2.8-4.5,2.7c-1.7,0-3.2-0.9-4.2-2.3c-1-1.4-1.6-3.1-1.5-4.8c0-1.5,0.4-3.1,1.3-4.4
	c1.3-2.4,4.4-3.4,6.8-2.1c0.7,0.4,1.4,1,1.8,1.6c1,1.4,1.6,3.1,1.5,4.8c0,1.6-0.4,3.1-1.3,4.4L677.2,136.1z M299,112.8
	c7.9,0,15.8,0,23.7,0.3c10.4,0.3,20.7,0.8,31.1,1.4c3.7,0.2,21,1.1,23.3,1.8c0.7,0.2,1.3,0.6,1.2,1.4c-0.1,1.3-1.4,3.6-2.8,3.7h-2.9
	l-15.7-0.9l-46.2-2.2c-6-0.2-8.7-0.1-14.6,0.1c-3,0.1-5.5,0.5-8.4,1.5c-2,0.8-3.4,1.9-5,3.3l-5.1,4.7c-1.9,1.6-2.8,2.8-3.3,5.1
	c0,0.6,0.9,1.8,1.3,2.2c1.3,1.2,3.3,3,5.1,3.6c1.4,0.4,2.4,0.5,3.8,0.6c12.3,0.9,24.6,1.7,36.9,2.2l52,2.9c1.9,0,5.9,0.4,7.8,0.8
	c1,0.2,1.9,0.8,2.3,1.7l1.1,2.2c0.1,0.3,0.1,0.5,0.1,0.8l-0.3,0.4l-0.5,0.2h-0.4h-4.7l-61.3-3.9l-23.2-1.4
	c-4.3-0.2-8.8-0.7-13.1-1.3c-2-0.3-4-0.9-5.8-1.9c-1-0.5-2.3-1.4-3-2.2c-0.9-1-1.9-1.9-2.9-2.7l0,0c-1.2-1.2-2.9-3.8-3-5.6l0.3-0.7
	c0.7-1.2,5-5.3,6.4-6.5c2.4-2.2,5-4.5,7.5-6.6c1.6-1.3,3.7-2.7,5.7-3.5c3.2-1.4,8.8-1.7,12.7-1.6L299,112.8z M335.6,131.7
	c3.9-3.8,3.6-3.2,4-3.3l1.4-0.2c5.2-0.5,26.5,0.3,32.7,0.6c2,0,3.2,0.5,3.7,2.4l1.5,5.4c0.2,1-0.3,1.7-1.4,1.7
	c-9.3-0.2-18.5-0.7-27.7-1.4c-3.3-0.2-6.6-0.5-9.8-1c-1.6-0.2-3.1-0.7-4.6-1.4c-0.6-0.3-1.2-0.7-0.9-1.4c0.2-0.4,0.8-1.1,1.2-1.4
	L335.6,131.7z M307.6,123.9c1.3-1.4,3.3-2.3,5.2-2c1.9,0.3,3.6,1.3,4.6,2.9c1.1,1.6,1.7,3.5,1.6,5.5c0,2-0.6,3.9-1.8,5.5
	c-2.5,3.5-7.6,3.6-10.1,0.4c-1.4-1.8-2.2-4-2.1-6.3c0-2.3,1-4.5,2.6-6.1L307.6,123.9z"/>
</svg>
