<?xml version="1.0" encoding="UTF-8"?><svg id="a" xmlns="http://www.w3.org/2000/svg" viewBox="0 0 710.1 309.7"><path d="m681.9,116.6l-.6-.4v.2c-.1,0-.2,0-.2,0-3-1.8-6.7-3.6-9.9-4.9-3.9-1.5-7.4-3.3-10.5-6-1.7-1.8-3.1-3.7-4.5-5.8,0,0-11-16.8-11-16.8-6.2-9.3-9.5-13.8-16.5-21.4-2.3-2.6-4.6-5.2-7-7.7-2.7-2.9-5.6-5.7-8.6-8.3-3.3-2.9-6.7-5.8-10.2-8.5-8.2-6.6-15.6-11.5-24.6-16-10.2-5.2-20.7-9.7-31.8-12.5-4.1-1.1-11.3-2.6-16-2.2h0c-.7,0-1.4,0-2.1,0-14-2.5-28.8-4-43.1-4.7-11.8-.7-23.5-1.1-35.3-1.4-32.3-.9-74.9.6-106.6,4.3-10.5,1.3-21.1,2.6-31.6,3.8-1.2.2-12.7,2.2-13.8,2.5-.9.3-1.6.3-2.5.4-1.7,0-3.3.3-4.9.6-7.2,1.3-13.7,3.5-20,7-5.7,3-11.2,6.1-16.6,9.5-5.8,3.6-11.6,7.3-17.3,11.1-9.9,6.5-18.3,12.6-27.7,19.7-.4.3-.8.5-1.2.6l-9.6.9-6.4.9h-2.3c-5,0-8.7,0-13.2,1-4.5.9-8.2,2.4-11.5,5.5l-.9.8c-.5,1.4-1,3-.2,4.1-1.3.6-2.6,1-4.1,1.2-10.1.7-20.2,1.5-30.2,2.6l-13.7,1.2c-1.5,0-3.9,1.2-5.4,2-5.7-.2-16.1.3-22.8.6-3,0-10.6.6-13.4,1.1-3.3.5-6.5,1.1-9.7,2l-8.7,2.4c-2.3.7-5,1.7-7.2,2.7-6.3,2.9-11.2,7.2-15.2,12.7l-6.7,9.4c-.5.8-.7,1.5-.2,2.2l1.3,2-.9,1.5c-2.6,3.6-4.2,6.1-5.1,10.4-1,4.4-.8,7.5.5,11.6l-6,13.5-2.8,1.9c-.6.6-1,1.7-1,2.6l-.5,3.9c-.2.9-2.8,10-3.8,13l-2.7,8c-.6,1.9-1.1,4.3-1.2,6.4,0,.3-.1.6-.1.9-.2,3.8-.3,7.7-.1,11.5-4.9,17.8-3.9,36.9,1.6,54.4h0c-1.5,1.5-2.5,2.4-4.1,3.7l-.4.4-.5.6c-1.1,3,7.7,6.4,9.5,7,4.8,10,11.6,18.9,20,26.2h0c2.7,2.1,7.4,4.6,10.5,6,3.4,1.5,6.8,2.7,10.4,3.8.5.3,1.1.6,1.6.9l.2-.3c2.8.8,5.7,1.5,8.5,2,.4.2.7.4,1.1.6l.2-.3s0,0,0,0c3.8.7,7.7,1.3,11.7,1.8.6.2,1.3.4,2,.6v-.4c5,.5,9.9.9,14.7,1.2.9.2,1.9.4,2.8.5v-.4c.1,0,.1,0,.2,0,8.6.6,17.1,0,25.1-1.9,1,0,2.1-.2,3.1-.4v-.4c16.3-4.3,30.8-13.6,41.6-27.4,24,.7,83.3,1.7,109.9,1.7l59.3-.4c1.7,4.4,3.5,8.1,6.6,11.7,1.5,1.8,3.2,3.3,5.1,4.6,2.3,1.6,4.9,2.6,7.7,3,1.2.2,2.5.4,3.9.5.5.2,1.1.3,1.6.5v-.3c1.8.1,3.7.2,5.6.3.4.1.9.3,1.3.4v-.3c2.3,0,4.5,0,6.8,0,.5.2,1.1.3,1.7.3v-.3c3.1,0,6.1,0,8.7,0,.8.2,1.6.3,2.5.3v-.4c.5,0,.9,0,1.3,0,2.5,0,6-.3,9-.9.5,0,1,0,1.5,0v-.3c.7-.2,1.4-.4,2.1-.6,2.4-.8,5.8-2.9,8-4.5,2.5,2.8,5.2,5.5,8.1,7.9,2.6,2.2,6.7,5.8,10.7,5.8l4.2.2c0,0,.2.1.3.2v-.2c.1,0,2,.1,2,.1l10.2.2c0,0,.2.1.3.2h0c0-.1,13,.2,13,.2.3.1.7.2,1,.3v-.3c0,0,.2,0,.2,0l14.2.5c.5,0,.9.2,1.4.2v-.2c5.5.3,11.1.4,16.6.4,7,.2,13.2-1.1,19.7-3.9.6-.2,1.2-.4,1.7-.6v-.2s0,0,0,0c11.9-4.3,19.6-13.6,25.4-24.2,4.6.1,10.3.1,14.8-.1l17.1-1c6.6-.4,12.7-.6,19.3-.6,6.3.1,11.8.4,18.2.7,6.9.4,13.8.4,20.7.2,1,4,2.2,7.9,3.7,11.7,1.2,3.2,3.3,7.5,6.1,9.9.4.3.9.6,1.4.6l8.5.5s0,0,0,0h0s.3,0,.3,0l9.8.3c0,0,.1,0,.2,0,0,0,0,0,0,0l10.5.3c.1,0,.3,0,.4.1h0c0,0,10.5.2,10.5.2,4.8.2,9.6.2,14.4,0,1.7,0,3.4-.4,4.9-1h.3s0-.1,0-.1c0,0,.1,0,.2,0,1.8-.7,3.4-2.1,4.3-3.8,4.4-6.6,7-19.5,8.1-28.5,1.2-10.2,1.7-20.6,1.5-30.9-.1-9.1-.8-18.1-2.1-27.1,0,0,0,0,0,0h0c0-.1,0-.3,0-.4.3-3.5.9-12.1,1-15.1.1-3,0-8.7-.4-11.6l-1.2-9.5-1.2-14.4-1.1-9c-.7-5.7-3.9-19.8-7.7-24.9l-.6-.8h0c.7-.2,1.4-.8,1.3-1.6-.3-1.7-1.3-3.3-2.7-4.2-1.7-1.1-3.5-2-5.5-2.5-1.6-.5-3.3-.8-5-1l-2.8-.4Zm-421.5,34l-129.8.2h-23.7c0,.1-3.1.3-3.1.3-.9,0-1.9.3-2.7.7-.8.4-8.2,4-11.4,5.6l.5-1.1c.8-1.5,1.8-2.9,2.9-4.1,1.4-1.4,3.2-2.3,5.1-2.6,4-.5,6.8-.6,10.8-.5l72.7-.3h61.2c0,0,8.1.3,8.1.3,2.6,0,4.3,0,6.8.5.8.2,1.6.5,2.3.9,0,0,.2.1.2.2Zm-171.6,8.6h0c4.3-2,8.6-4.1,12.9-6.2.7-.3,1.4-.5,2.2-.5l3-.2c3.2,0,137.7-.3,155-.3.6.7,1.1,1.4,1.5,2.2.8,1.7,1.3,3.4,1.7,5.3h0c0,0,.2.5.2.5l.5.3c.6,0,.8,0,1.4,0,2.2-.2,5.1-.5,7.3-.9l26.2-5.2c.9.4,1.9.6,2.9.6,1.2.1,3.5.2,4.7,0,.3,0,.7-.3,1-.5l.5-.6c1.7-2.1,4.4-7.8,5.6-10.5,1.3-2.9,2.5-5.9,3.5-8.8.6-1.6,1.1-3.2,1.5-4.9.2-.7.3-1.3.3-2l.2-2v-.8s-.7-3-.7-3c-.3-1.6-.6-3.1-1.1-4.7l-.3-.7-.7-.6c-.6-.2-1.1-.3-1.7-.3l-85.2.2-45.8.6c-14.8,0-29.6,0-44.4-.1-5.5,0-30-.2-35.5,0-.4,0-.8,0-1.1,0h0s-9.7,0-9.7,0h0c-9,.3-18,.5-27,.6h-.4s-.5.2-.5.2l-.5.6c-.1.2-.3.4-.4.7v-.4c0,0-.5-.4-.5-.4-1.5-.7-5.3-1.3-8.3-1.7,4.2.3,8.2.6,10.7.7l15.4-.3c29.9-.6,33.8-.4,63.7-.4l82.2-.6c34.1,0,75.9-.5,108.4-2.3,19.7-.9,27.6-1.2,47.3-2,12.7-.5,16.6-.5,29.4-.5,3.6,0,6,.2,9.6.7,1.6.2,2.6.5,4.1,1.1,1.7.7,2.4,1,4,2,5.1,3.2,8.8,6.6,12.8,10.7,1.9,1.9,2.4,2.5,4.1,4.6.8.9,1.1,1.5,1.5,2.6.2.5.2,1,0,1.4l-.5,1.7c-1.7,5.1-4.5,10.6-9.2,13.5-2,1.1-4.1,2-6.3,2.5-5.7,1.3-29.3,3.8-37.8,4.6-14.2,1.2-56.5,4.7-73.7,5.8-11.5.7-23,1.2-34.6,1.4-27.6.4-93.1.3-129.9.4l-71.9.3-20.2-.2c-6.3,0-12.5-.4-18.8-.9-10.4-1-24.3-3.3-33.5-6.7,0-.1.2-.3.3-.4l2.7-1.9c1.8-.9,6.6-3.1,8.5-3.9,0,0,0,0,0,0,.2,0,.6.2.8.3l2.2.5c8.2,1.6,34.5,5.9,39.7,5.1l.7-.2.4-.3.2-.4c0-.3,0-.6-.1-.9l-.5-1.2c.4.9.9,1.6,1.3,2.1,1,1.1,2.5,1.9,4,1.4l1.8,1.6c.8.7,1.8,1.1,2.8,1.4,1.5.4,3,.6,4.6.7,1.2.2,3.7.4,4.9.1.3,0,.5-.2.7-.4Zm239.6-98.4c-5,0-10,0-14.4.2-5.6.2-13.1.9-18.6,1.8-3.1.5-6.3,1.4-9.3,2.4h0c-1.1-1.3-14.7-2-17-2-32.5-1.2-50.7-1.4-82.1,1.6-1.3.1-2.6.2-3.8.4,2.1-.6,4.3-1.1,6.4-1.5v-.7c-.1,0,2.1,0,2.1,0l6.4-.9,9.8-.9s0,0,0,0v.7c8.6-.5,17.2-.8,25.8-1l36.1-.5c10.2,0,30-.2,41.1,0l17.6.4Zm-43.2,6.2h0c3.4-1.2,6.9-2.2,10.5-2.8,6.1-.9,12.2-1.5,18.4-1.8,12.3-.3,24.7-.3,37,.2h0c12.8,1.8,15.2,2.3,29.3,4.6,4.8.8,11.8,1.6,18.4,2.3,3.2,2.1,7.7,3,11.6,3.2,6.6.6,13.2,1.1,19.8,1.4l19.6,1.4c.6,0,1.3.1,2,.2-4.2,0-8.3-.1-12.5-.1-2.2,0-4.4,0-6.6,0l-28.4-.4c-26.4,0-52.8-.3-79.2-.8-22.3-.4-12.2-.4-34.6-1.1-4.7-.2-8.4-.5-13-1.4-2.2-.5-4.4-1-6.5-1.6,3.4-.8,7.3-1.7,12.3-2.9,0,0,0,0,0,0h0c.4-.1.8-.2,1.3-.3.2,0,.4-.1.6-.2Zm396.3,50.9l1.9,1.1c-2.2-.7-4.5-1.4-6.8-1.9-1.7-.4-3.6-.8-5.5-1.1-1.7-1.4-4.3-3.2-6.2-4.2l-11.3-5.7c-1-.8-2.5-4.1-3.1-5.5l-2.8-6.9c-1.2-3.1-3.3-8.3-5.1-12.2.5.7,1,1.4,1.5,2.2l11,16.8c3,4.6,5.5,7.5,10.4,9.9,1.7.9,3.4,1.7,5.2,2.4,2.6,1.1,5.2,2.4,7.7,3.7l2.2,1.3h.9Zm10.3,5.9c.8.5,1.5,1,2.2,1.7,0,0,0,0,0,0l2.2,2.6c1.2,1.9,2.3,4,3,6.1,1.1,3.1,2,6.2,2.8,9.3.7,2.9,1.3,5.8,1.7,8.8l1.1,9,.5,6.5c-1.8-9-5.6-16.1-13.2-22.6-1.8-1.6-4.3-3.2-6.5-3.9-3.9-1.3-6.8,1.5-8.5,4.6,0-1.5-.2-2.9-.4-4.4-.3-3.1-.7-6.1-1.3-9.2-.6-3.3-1.4-6.5-2.2-9.8-.5-1.7-.9-3.3-1.5-4.9,1.5.3,3.1.6,4.6.9,5.3,1.3,10.5,3.1,15.5,5.3h0Zm4,1.3c-1.5-1.6-3.2-2.8-5.2-3.7l-4.8-2.6-.4-.2c3.3.5,6.3,1.3,9,3.2.9.6,1.5,1.5,1.9,2.5l.2.7c-.1,0-.4.1-.8.2ZM161.8,75.1c-2.3,1.9-4.5,4-6.6,6.2-2.3,2.5-5.5,6.9-7.4,9.8-3.4.1-6.7.2-9.7.4-5.2.2-14.5.5-19.7.9-6.8.5-21.7,1.8-28.4,2.5l-9.4.7c0,0-.2,0-.2,0,1.6-.6,3.1-1.2,3.7-1.4,9.4-3.7,18.1-7.3,26.8-12.3l-.3-.5c1.2-.6,2.3-1.1,3.5-1.6.4-.2.8-.2,1.3-.3l13.9-1.2c10-1.1,20.1-1.9,30.2-2.6.9,0,1.8-.2,2.5-.5Zm-12.2,15.9c2.1-3.1,4.3-6,6.7-8.8,2.8-2.9,5.7-5.6,8.9-8l3.8-2.8c1.5-.9,3-1.8,4.7-2.6-.8,1.1-1.2,2.4-.7,3.8.2.5.5,1,.9,1.3,1.4,1.1,3.2,2.1,4.9,2.7,1.6.6,3.2.9,4.9.9,4.7.2,9.5.2,14.3.1l45.1-.5c-6.9,2.7-15.3,6.5-20.3,8.9-1.9.8-4.4,2.3-5.8,3.8-23.9,0-48.1.5-67.4,1.1Zm351.6-11.1v-1.6s10.8,1.5,10.8,1.5c.1,0,.3,0,.4,0v.2s3.3.7,3.3.7h0c4.2.4,8.4,1.4,12.3,2.9-.1.5-.2.9-.4,1.4-5.6-1.7-16.7-3.6-26.6-5.1Zm-1.4-1.8v1.6c-5.6-.8-10.8-1.5-14.2-1.9-1-.1-27.7-2.9-35.6-3.6,0,0-19.6-1.4-19.6-1.4-6.6-.3-13.2-.8-19.8-1.4-2.9-.2-5.1-.5-7.8-1.4,1.8.2,3.5.3,5.1.4l38,2.6c15.2,1.2,30.4,2.6,45.6,4.2h0c0,0,.1,0,.2,0,2.7.3,5.4.6,8.1.9Zm-282.6-18.2c4.5-3.9,15.9-11.8,20.3-14.8,10.8-7.2,11.8-7.8,22.8-14.8,10.2-6.5,5.2-3.3,15.5-9.6.6-.4,1.1-.7,1.7-1-6.6,4.6-11.9,8.1-18.9,12.7-4.8,3.1-12.2,8.1-16.9,11.4l-22.1,15.9h0c-.8.1-1.6.1-2.3.2Zm64.4-43.6c0,0,0,0,0,0-2.3.9-4.5,2-6.5,3.3-5.2,3.1-10.4,6.3-15.5,9.6-14.1,8.9-26.8,17.1-40,27.1-1.6,1.1-3.1,2.4-4.5,3.8-1.8,0-3.7.2-5.4.3l12.8-9.4c14.3-10.2,33.4-22.6,48.8-30.8,3.5-1.9,6.7-3.3,10.5-4.6,2-.7,6-1.7,9.5-2.4l-7.4,2.2c-.7.2-1.6.5-2.2.9Zm3.1.3l11-3.3-.2-.7s0,0,0,0c1,0,1.9-.1,2.9-.4,4.5-.9,9.1-1.7,13.6-2.5l31.6-3.8c12.7-1.4,25.4-2.4,38.2-3.2,12-.7,24-1.1,36-1.3,11.4-.2,20.9-.1,32.3.2,26.5.7,47.7,1.4,72.5,5.1,0,0,2.5.4,3.8.7l-1.3.7c-.6.4-1.4,1.3-1.8,1.9l-1.2,1.8c-.3,0-.5-.1-.8-.1-.2,0-44.2-3.8-54.8-4.6-10.6-.8-23.8-1.4-34.4-1.6-12.9-.3-25.9-.2-38.8.2-39.5,1-70.3,3.1-108.2,10.9Zm358.9,83.9l-5.9-16.3c-2.6-7.2-5.9-11.4-11.2-17l-4.1-4.5-1.8-1.2.6,2.2,5.5,11.8c3.1,7.8,5.9,15.7,8.5,23.7-.2,0-.5,0-.7-.1l-4.9-13.9c-1.3-3.5-3.2-8.4-4.7-11.8-1.5-3.6-3-7.2-4.7-10.7-.8-1.8-1.7-3.7-3.3-4.9-5.1-4.2-10.3-8.3-15.6-12.2-2.9-2.2-5.9-4.3-9.1-6.2-2.5-1.6-5-3.1-7.5-4.5-1.1-.7-2.3-1.2-3.5-1.6l-.4-.7c.6.3,1.1.6,1.9,1.1,4.1,2.3,8.1,4.6,12,7.1,3.5,2.2,6.6,4.3,9.9,6.8l10,7.8c5.5,4.6,15.4,13.8,19.8,20.3,1.8,2.9,2.8,5,4,8.2,2.3,5.6,4.6,11.3,6.7,16.9-.5,0-1-.2-1.5-.2Zm-6.8-1c-2.6-8.3-5.6-16.4-8.7-24.5h0s-3.7-8-3.7-8l1.1,1.2c2.5,2.7,4.2,4.6,6.3,7.5,1.9,2.8,3.4,5.8,4.5,8.9l5.7,15.6c-1.9-.3-3.6-.5-5.2-.8Zm-78.8-80.4c-10.9-3-15-3.3-18.7-2.7-2.9.5-4.2,2.2-4.9,4.3.6-2.5,2.2-4.7,4.9-5,4.6-.5,11.7,1.1,16.6,2.7.7.2,1.4.4,2.1.7Zm-25.6,11.1h0c0,.1,0,.1,0,.1-.4,7.7-.7,10.6-1.4,21.9-.5,8.1-1.1,16.3-1.8,24.4-.1,2.1-.3,3.8-.6,5.6-3.8-1.4-7.8-2.4-11.8-2.8l2.5-23,1.8-17.8,1.6-14.1c.6-4.3.8-5.5,1.6-9.8.3-1.7,1-4.4,2.1-5.5l1.3-1,.5-.3h0c0,0,.2-.2.2-.2.7,0,1.6,0,2.3,0,2,0,4.1,0,6.1.3,7.5,1,16.5,3.6,23.9,6.5,9.2,3.7,21.6,9.6,30.2,15.2,9.5,6.4,22.1,16.6,30.1,25.1,3.7,4,3.4,3.6,7,7.7,1,1,1.9,2.1,2.8,3.2-8.6-9.2-18.8-19-27.6-25.1-9.8-6.8-20.4-13-31.4-17.7-8.1-3.6-17.2-7-26.1-8.3-2.1-.4-4.3-.4-6.4-.2-1.3.1-2.5.6-3.5,1.5-.8.7-1.5,1.5-1.9,2.6-.7,1.3-1,2.8-1.1,4.3-.1,3-.3,5.5-.4,7.6Zm1.5,0l1-5.5,1-3.8c.2-.7.6-1.4,1.1-1.9,1.8-1.7,5.7-1.8,8.3-1.4,3.8.6,7.5,1.3,11.1,2.4,5.2,1.5,10.4,3,15.5,4.6,3.5,6,6.9,12.1,10.2,18.2,2.7,5.1,5.3,10.3,7.8,15.5-.5-.1-1-.3-1.6-.4l-13.4-25.9-2.3-4.1c-.7-1.3-1.6-2-3-2.4-3-1-6.1-1.9-9.2-2.7-4-1-8.1-1.8-12.2-2.3-2.4-.3-5.3-.3-7.7.3-.9.2-1.8.9-2.4,1.6-.4.6-.8,1.6-.9,2.4,0,.2,0,.4,0,.6,0,0,0,0,0,0h0c-.4,3.2-.7,7.7-.8,10.8l-1.4,19.6v.2s0,0,0,0h0c0,.1-1.3,14-1.3,14l-1.4,10.5-2-.7c.1-1.1.2-2.2.3-3.4.7-8.1,1.3-16.3,1.8-24.4.3-4.3,1-14.4,1.4-22Zm57.8,28.8c-2.7-5.6-5.5-11.2-8.4-16.7-2.6-4.8-6.4-11.7-9.4-16.9,4.1,1.9,8.2,3.9,12,6.1,5.6,3.2,11,6.6,16.3,10.3,4,2.8,7.8,5.9,11.4,9.1,8,7.3,15.3,14.8,22.4,23,1.5,1.8,2.9,3.6,4,5.7,2.7,5.5,4.1,9,6.4,14.7,0,0,2.8,6.9,2.8,6.9,0,0,0,.1,0,.2-.9-.2-1.9-.3-2.7-.4-2.2-5.9-4.6-11.9-7-17.7-2.1-5.6-4.7-9.8-8.6-14.1-2.3-2.5-4.6-4.9-7-7.2-2.1-2.1-6.2-5.9-8.5-7.7l-10-7.8c-2.9-2.2-6.9-4.9-10.1-6.8-3.9-2.5-7.9-4.8-12-7.1-1.2-.8-2.5-1.4-3.8-2-.4-.2-1,.1-1,.6v.2c0,.4,8.5,15.7,8.8,16.4,2,3.9,3.9,7.8,5.7,11.8-.4-.2-.9-.3-1.4-.5Zm-55.6,1.2l3.3,11.6h-2.2c-1,0-1.8.2-2.4.8l.3-2.3.9-10.2Zm4.8,11.7l-4.4-15.7h0c0-.1,1.4-19.8,1.4-19.8.1-3.5.4-6.9.8-10.3.5-.6,1-1.2,1.7-1.7.4-.2.9-.4,1.4-.5h1.9c6,0,12.5,1.7,18.4,3.3,1.5.4,6.7,1.8,7.8,2.8l.8,1.2c.6,1,10.1,20.4,12.8,26-2.4-.3-4.7-.6-6.9-.7-4.8-.3-9.6-.4-14.5-.2-3,0-6.8.5-9.7,1.3-1.7.5-3.4,1.6-4.6,2.9-2.7,2.7-1.2,6-1.5,9.2l-.2,1.2c-.2.5-.8.9-1.4.9h-3.8Zm56.9-7.7c-.9.5-1.8.9-2.7,1.4l-.7.2-32.3-.8c-4.5,0-7.5-.2-11.9-.9-.8-.2-1.6-.5-2.2-1,.8-1.9,3-3.4,4.9-4,8.8-2.3,26.3-1.3,34.9.3,2.3.4,7.3,1.8,9.4,3.9.3.3.5.6.7,1Zm-50.1.4c.7.4,1.4.7,2.2.9,3.7.7,8.4,1,12.1.9l32.5.8c1,0,2.7-1,3.9-1.6.1.3.2.6.2,1,.4,2.8.3,3.3.3,6.2,0,0,0,.1,0,.2h0s0,.2,0,.2c0,.7,0,1.4,0,2h-10.2c0,0-18.8-.5-18.8-.5-4.4-.2-8.8-.4-13.2-.7h0c-2.4,0-3.8-.2-6.1-.8-1.1-.4-2.2-.9-3.1-1.5.2-.5.3-1.1.3-1.7v-5.3Zm45.7,21l2.4,9.5c-10.9-1-25.2-3.7-33.4-5.6-5.8-1.3-11.6-2.9-17.4-4.6h-.4c0-.1,0-.3,0-.3,1.6.2,3.3.2,4.9.1.9,0,1.8.1,2.6.4.6.2,1.2.5,1.8.8l.9.6c1.4.7,4.1,1.1,5.7,1.1,8,.5,16,.5,24,0,1.6,0,3.3-.3,4.9-.6,1.3-.2,2.6-.7,3.8-1.4Zm4,9.6l-2.7-10.4s0,0,.1,0c.1,0,.2-.2.3-.2l2.5,10.8c0,0-.2,0-.3,0Zm1.8.1l-2.8-11.9c.6-.6,1.2-1.3,1.7-2l4,14.1c-.9,0-1.9,0-2.9-.1Zm4.4.2l-4.5-15.9c.4-.9.8-1.9,1-3l6.3,18.9c-.9,0-1.8-.1-2.5,0,0,0-.1,0-.2,0Zm-54.5-18.2l36.3.9c4.1,0,8.6,0,12.8-.4,0,.2-.2.5-.3.7-.9,2.2-2.2,3.7-4.1,5.1-1.3,1-2.5,1.6-4.1,1.9-1.8.4-3.4.6-5.2.7-6.5.4-13,.4-19.4.2l-3.9-.2c-1.7,0-3.1-.2-4.7-.7l-.9-.3c-.8-.5-1.6-.9-2.3-1.2v-.2c.2-1.7-.2-2.5-1.3-3.8-.5-.6-1.8-1.7-2.9-2.7Zm46-.8c-3.2.2-6.4.3-9.7.2l-38.4-.9c-.2,0-.5,0-.7-.2-.7-.4-1.7-1.3-2.6-2.2h.8c.5,0,1.1-.2,1.6-.5.1,0,.2-.1.3-.2,1.1.7,2.5,1.4,3.6,1.8,1.8.5,4.6.8,6.5.8,10.3.7,26.7,1,38.6,1.2Zm-53.5-3.1l1.8,1.7c.8.8,2.1,1.9,3.3,2.1,1.5,1.2,2.9,2.4,4.2,3.7l.8,1.1c.1.3.2.6.2.9v.7c-.8-.2-1.6-.3-2.4-.2-2.6.2-5.2,0-7.7-.6-2.1-.5-3.9-1.7-5.2-3.4-.8-1.1-1.2-2.4-1.3-3.7v-1.1c.1-.4.4-1,.9-1.1.3,0,.6-.1.9-.1h4.5Zm66.2,22.5l-7.6-22.8c0,0,0-.1,0-.2.3-5.3,0-10.4-5.4-12.5-2-4.5-4.1-8.9-6.4-13.2l-6.4-11.7c.6.3,1.2.6,1.7.9,2.5,1.4,5,2.9,7.5,4.5,3.7,2.3,5.5,3.5,9,6.2,5.3,3.9,10.5,8,15.6,12.2.6.5,1,.9,1.5,1.5,2.4,3.9,9,20.4,10.8,25.3l4.7,13.1c-6.3-.9-11.5-1.5-21.7-2.8-.9-.1-2-.3-3.2-.4Zm-68.3-72.6c.3-.3.8-.6,1.3-.7,2.4-.5,4.7-.6,7.1-.3,9.5,1.3,12.5,2.4,21.2,5,.5.1.8.3,1.2.5.4.3.7.7,1,1.2,2.6,4.8,11.3,21.6,15.1,28.9-.4,0-.8-.1-1.2-.2l-11.4-23.3-1.9-3.6c-.7-1.1-1.1-1.9-2.4-2.4-2.3-.9-4.7-1.7-7.1-2.3-3.6-1-7.3-1.8-10.9-2.5-2-.4-5.8-.9-7.8-.9-1.7,0-3,.2-4,.8Zm-5.9,58l.5-3.9c.3,1.1.8,2.1,1.3,2.9.7.9,1.7,1.8,2.7,2.5l-4.6-1.5Zm4.6,5.5s0,0,0,0h0c-2.8-.9-5.6-1.9-8.4-3,0-.3.1-.5,0-.7,0-.4.2-.9.2-1.4l14.7,4.8c11.2,3.5,25.1,6.5,37.4,8.4,4.9.8,9.8,1.5,14.7,1.9,2.3.2,4.6.3,7,.3.2,0,.5,0,.8,0,.2.3.3.6.5,1l.3.9v.7c-2.2,0-4.4-.2-6.7-.5-10.8-1.3-21.5-2.8-32.1-4.7-8.1-1.7-19.4-5.1-27.4-7.4-.3,0-.6-.2-.8-.3Zm-.5,1.6c1.9,2,2.8,3.9,3.7,6.6h0c1.1,2.8,1.9,5.7,2.7,8.6,1.6,6.3,2.4,11.2,3,17.7.8,8.2,1.1,13.3,1.3,21.5.2,11.6.1,23.1-.3,34.7-.4,10.4-1.2,20.8-2.4,31.1,0,.4-.1.8-.2,1.2-.7-5.8-1.8-11.6-3.3-17.3-.9-3.6-1.9-7.2-3.2-10.7-.2-5-.4-10-.8-14.9-.7-10.5-3.1-20.2-7.3-29.7-1.7-4.1-3.7-8-6.1-11.7-2-3.3-4.3-6.4-6.8-9.3-2.4-2.9-5.1-5.5-8.1-7.8-2.9-2.2-5.9-4.3-9.1-6.1-4.7-2.9-9.6-4-15.1-4-2.1,0-4.4.1-6.4.6-2.3.5-4.6,1.7-6.4,3.1-2.4,1.9-4.8,4.4-6.7,6.8-1.5,1.9-2.9,3.8-4.2,5.9-5.3-4.7-8.3-7.6-13.1-12.1-1.9-1.9-6.2-5.7-8.4-7.4l-5-3.4c-3.9-2.5-7.4-4.2-11.9-4.3-8.1-.4-16.2-.5-24.2-.3h-5.9c-2.8,0-5.6.3-8.4.6l-17.7,2.2-15.1,1.6c16-3.8,29.2-6.8,29.2-6.8,10.2-2.3,20.5-4.3,30.9-5.9,6.8-1,13.4-1.6,20.1-1.8h.6s0,0,0,0c2,0,3.9,0,5.9,0,10.8,0,19.8.2,30.6.6v-.2c5.8.6,11.4,1.2,15.4,1.7,11.8,1.4,14.1,1.9,25.5,3.7,5.7,1,11.4,2.2,17.1,3.7,3.1,1.2,6.5,1.6,9.8,1.7Zm8.4,126.5c.4-2,.8-4.1,1-6.1,2.9-23.3,3.9-63.2,1.4-87.7-.5-6-1.5-12-3-17.9-.7-2.9-1.6-5.8-2.7-8.6-.6-2.1-1.5-4-2.8-5.7l11.8,3.4c4.1,1.2,10.2,2.8,14.4,3.6,7.8,1.5,24.4,3.8,32.3,4.7,2.4.3,5.4.4,7.8.5l3.1,1.9c3.4,2.5,6.7,5.6,9.5,8.9l2.4,3.1c-4.5.3-9,.8-13.5,1.4-7.8.9-15.6,2.1-23.3,3.8-5.1,1.1-10,2.8-14.7,5.2-1.1.5-2.2,1.2-3.2,1.9-1.1.7-2.3,1.9-3,3.1-1.2,2.3-2,5.4-2.1,8-.3,4.6-.2,9.2.3,13.8.7,8.2,1.5,16.3,2.3,24.5,1,13,2.2,26,3.4,39,.3,2.9.8,5.7,1.5,8.5,1,4.5,3.4,6.9,7.8,7.7,4,.7,9.5,1.2,13.5,1.3,8.6.5,17.2.7,25.8.8-1,4.7-4.6,19.4-5.3,22.4-16.9,0-33.7,0-50.6-.3-5.5,0-11,0-16.5.3.1-.6.2-1.2.4-1.8,1.9-9.8,2.7-19.8,2.5-29.8,0-3.3-.3-6.5-.5-9.7Zm60.1-117.7c10.3.8,36.1,4.7,43.7,5.9.4.7.7,1.5,1.1,2.2-2.2-.5-4.5-.9-6.8-1.3l-15.2-2.1-13.9-1.7c-2-.2-6-.5-8.3-.6,0-.7-.3-1.7-.5-2.2h0c0-.1,0-.2,0-.2Zm-189.5-20.2c-1.5.2-2.9.4-4.4.6-9.6,1.5-21.5,3.8-31,5.9l-23.1,5.3-14.6,3.6c-1.8,0-3.6.2-5.4.2-6.8.1-13.6,0-20.4-.2l-30.6-1.4c-18.1-.8-43-1.1-68.4-1,0,0,.2-.1.3-.2,4.5-3.3,24-11.1,30.4-13.5,8-2.5,12.9-3.8,18.5-5.1h0c13.4,3.9,21.1,3.7,22.4,3.7,11.5.5,23.1.9,34.6,1.1,26.4.5,52.8.8,79.2.8l12.4.2Zm-165.6-2.7l-60.5-.2c-2.7,0-4.5,0-7.2-.4-1.3-.2-2.4-.6-3.5-1.2-.6-.4-1.1-.9-1.4-1.6,0-.2,0-.4,0-.6,0-.3.4-.7.7-.8l.9-.3c1.7-.4,2.8-.5,4.5-.6,4.2-.4,8.4-.7,12.6-.9,20.8-1.2,32.1-1.6,50.5-1.5,8.7,0,22.2.2,31.5,1-1.2.3-2.2.6-2.5.6-6.8,1.4-18.1,4.1-25.4,6.5Zm32-8.1c-3.1-.4-6.2-.6-9.3-.8-8.7-.4-17.5-.6-26.2-.6-9.1,0-18.3,0-27.4.4-7.7.3-15.4.6-23.1,1.1-4.2.2-8.4.5-12.6.9-1.3,0-3.4.3-4.7.6l-1,.3c-.5.1-.9.5-1.2.9-1.5,1.6,0,3.9,1.6,4.8,1.2.7,2.6,1.2,4.1,1.4,2.4.3,4.9.4,7.4.4l56.4.2c-.3.1-.6.2-.9.3v-.3s-48.2.5-48.2.5c-5.4.1-8.8.1-14.2,0-1.5,0-3-.4-4.5-.9-1.6-.6-3.1-1.4-4.5-2.5-.2-.2-.4-.4-.5-.7-.2-.7,0-1.5.2-2.1.5-.8,1.1-1.3,2-1.7,2.8-1.2,7.2-1.7,10.5-2,13.6-1.2,22.4-1.9,36.1-2.3,7.2-.1,14.4-.1,21.7,0,11.4.2,12.8.3,24.2.7,5.2.2,9.6.5,14.8,1.2h.1c-.2,0-.4.1-.7.2Zm212,10c1.9-.7,3.8-1.5,5.3-2.3,2.7-1.5,4.8-4.3,5.9-7.2,1.8-4.7,3.1-9.6,3.7-14.5,1.5-8.9,2.6-17.9,3.3-26.9.2-1.6,0-3.9-.6-5.4-.8-2-3-3.6-4.9-4.2-1.9-.7-3.8-1.1-5.8-1.3-9.9-1.1-23.8-2.1-34.1-2.9-23-1.6-44.3-2.9-67.2-2.8-.7,0-2.5,0-3.2.2-1.2.4-3.1,1.9-4,2.8l-7.4,6.9c-2.3,2.1-4.1,3.6-6.6,5.3-.8.5-1.6.8-2.6,1-2.7.3-10,.7-13.3.4h-1c0-.1,0-.1-.1-.2.2-.3.6-.9.6-1,3.2-4.7,6.7-9.2,10.5-13.4h0s.3-.5.3-.5c0,0,.1-.4.1-.4,0-1.4-2.7-1-3.3-1l-33.8,2.7c-14.9,1.3-30.5,3.5-45.2,6.7-5.2,1-10.3,2.4-15.3,4,1.2-.9,2.5-1.7,3.7-2.6,1-.6,2.1-1,3.2-1.2,10.7-2.2,21.4-4.1,32.2-5.7,10.9-1.5,21.9-2.6,32.8-3.4,38.8-2.7,78.7-3.5,117.5-.7l32.8,2.7,21.9,1.9s.1,0,.2,0c-.5,1.5-.9,3.6-1.1,4.9-.9,5.3-2,12.1-2.7,17.5l-2.8,22.2-1.8,15.6c0,0-.3,3.7-.4,4.8h-.1s-10.7-1.5-10.7-1.5c-1.8-.2-3.9-.5-6.2-.7Zm-222.9-51.1h0c6.4-2.3,13.1-4.1,19.8-5.5,7.6-1.6,12.4-2.5,20.1-3.7,8.3-1.2,16.6-2.2,25-3l33.7-2.7c.1,0,.8,0,1.3,0-2.9,3.3-9.5,11.3-11,14.3-.2.4-.2.7-.2,1l.3.5.4.3c1.2.5,10.4,0,12.4,0,1,0,2,0,3-.1,1.1-.1,2.3-.6,3.2-1.2,2.3-1.6,4.7-3.5,6.8-5.5l7.4-6.9c1.1-1.1,2-1.8,3.4-2.4,3.5-.6,26,.1,30.4.3,20.9.9,47.1,2.7,68.5,4.6l5.1.6c3.4.3,7.9,1.2,9.6,4.6.5,1.6.6,3,.5,4.7-.8,11.2-1.6,15.8-3.2,26.8-.8,5.4-1.7,9.2-3.7,14.2-1,2.7-2.8,4.9-5.3,6.4-2.6,1.4-5.3,2.4-8.1,3.2-14.6-1.6-35.7-3.5-45.7-4.2l-38-2.6c-2.9-.2-5.7-.5-8.6-.7,0,0-.1,0-.2-.1h0c-2-.1-3.9-.3-5.9-.5-4.2-.5-8.4-1-12.6-1.7-6.6-1.1-25-4.1-31.7-5-4.6-.6-13.3-1.3-18-1.4l-20.1-.5c-4.1,0-31.3,0-41.1,0l-36.1.5c-3.8,0-7.7.2-11.7.3l20.5-14.7c5.6-3.9,11.2-7.7,16.9-11.4,4.4-2.8,8.7-5.7,13-8.6Zm-86.2,38c-7.7,1.8-11.4,3.7-11.5,3.8-4.9,2.2-6,3.2-9.6,5.8h-.1c-.2-.2-.3-.3-.4-.5v-.3c-.3-.9,0-1.4.3-2.2,1.5-1.3,3.1-2.5,4.8-3.5,4-1.9,9.1-2.9,13.5-3.1,1,0,2,0,3.1,0Zm-77.3,18.3c-2.8,1.6-5.7,3.1-8.7,4.5-6.9,3.1-17,7.3-23.5,9.6h-.2s-.5,0-.5,0h0c-.4,0-.8,0-1.2,0-6.2-1.3-6.4-1.5-12.5-3.1-2-.5-4.4-.8-6.6-1l7.2-3.5c1.8-.8,3.6-1.6,5.5-2.2l6.7-2-.2-.6c6.4-.8,18.6-1.2,26.5-1.6,2.5,0,4.9,0,7.4,0Zm-63,10.3v.8s4.2,0,4.2,0h3.4c0,0,.1,0,.2,0h0s2.4.2,2.4.2c2,.2,4,.5,6,1,2.9.8,9.7,2.6,12.7,3.1,1.8.3,4.4.3,6.2.2l9.4-.7c9.5-.9,18.9-1.8,28.4-2.5,13.4-.8,36.8-1.6,52.5-1.9,28.5-.5,57.1-.6,85.6-.3,10.3.1,20.5.4,30.8.8l30.6,1.4c20.8.9,30,0,50-2.3l17.7-2.2c3-.4,5.2-.5,8.2-.5h5.9c10-.3,14.2-.2,24.2.2,2.2,0,4.2.5,6.2,1.4,1.7.8,3.3,1.7,4.9,2.7l5,3.4c5.5,4.4,11.5,10.3,16.9,15.4l4.6,4.1c-.2.3-.4.6-.6,1-7.6,12.4-11.9,23.3-16.3,37.2-2.1,6.6-4,13.3-5.6,20-2.8,11-5.2,22-7.3,33.1-2,10.3-3.6,20.6-4.9,30.9-.3,2.2-1.8,15-1.8,17.6l-13.9,1.7c0,0-.3,0-.5,0l3.6-6.6c1.2-2.2,2.5-5.1,3.3-7.4,3.1-8.4,0-17.4-2.6-25.5-2.4-8.1-7.6-23.3-15-29.2-1.9-1.5-4.6-2.5-7.1-2.7-5.2-.7-10.4-1.1-15.6-1-20.6-.1-41.2,0-61.8.4-7.6,0-15.2,0-22.7,0-2.1-.2-4.2-.8-6.1-1.7-2-1.1-3.9-2.3-5.8-3.6-.8-.6-2.5-1.6-3.5-1.9-1.5-.5-4.4-.7-6-.6-14.8-.6-38.3-.9-53.7-1l-135.1-.9c-9.5-.4-11.6,2-18,8.7-.4.4-.8.7-1.4.9-.5.1-1.1.2-1.7.3h-4.1c-8.2,0-16.4,0-24.7-.3l-22.4-.8c-.9,0-1.8,0-2.7.2-.8.1-1.7.6-2.2,1.3.2-1.3.5-2.5.9-3.8,1.2-3.4,5.7-16.9,6.5-21.2l.5-3.9c3.2,1.2,6.5,2.2,9.9,2.9,22.2,5.1,40.5,4.9,63,4.9l71.9-.3h76.2c27.9,0,60,0,88.3-1.8,8.9-.6,21.9-1.6,30.8-2.3,9.4-.7,33.5-2.6,42.9-3.5,8.1-.7,20.8-2.2,28.9-3.2,8.4-.7,17-2.3,21.7-10.1,1.5-2.4,3-5.6,3.9-8.3l.5-1.7c.2-.8.2-1.6-.1-2.3-.4-1.1-1-2.1-1.7-3-1.3-1.6-2.7-3.2-4.1-4.6-2.1-2.2-4.4-4.3-6.7-6.3-1.9-1.7-4.1-3.2-6.3-4.6-1.3-.9-2.7-1.6-4.2-2.2-1.4-.6-2.9-.9-4.4-1.1-3.2-.5-6.5-.7-9.8-.7-9.8,0-19.6,0-29.4.5-9.7.4-37.6,1.5-47.3,2-10,.5-20.1,1-30.1,1.3-30.9.8-47.4.9-78.3,1l-82.2.6c-21.2-.2-42.5,0-63.7.4l-15.4.3c-8.9-.4-16.5-1.1-25.4-2.1-5-.6-9.9-1-14.8-.8,1.3-2,6-8.5,6.7-9.5,1.5-2.1,2.5-3.2,4.2-5,2-2.2,4.6-4.1,7.4-5.7Zm22.5-7.6c-4.5,1.4-5,1.8-6.1,2.3l-7.9,3.9c-.3.2-.8.5-1.1.8h-3.2c0,0-3,0-3,0,2.9-1.5,5.9-2.7,8.8-3.6l8.7-2.4c1.6-.4,2.8-.7,3.8-1Zm6,221.8c-7.6-2.7-14.5-6.8-20.5-12.1-6.7-6.1-12.4-13.3-16.8-21.3,3.3.4,6.6.7,9.8,1,4.5,8.5,10.5,16,17.7,22.3,5.6,4.9,12.2,8.6,19.3,11-2.6-.2-5.1-.4-7.7-.7-.6,0-1.2-.1-1.8-.2Zm-39.1-33.7c7.6,14.2,18.8,26.2,33.3,32.8-2.4-.4-4.7-.8-7.1-1.3-6.5-3.6-12.4-8-17.6-13.3-5.7-5.8-10.7-12.2-14.9-19.1,2.1.3,4.2.6,6.3.9Zm20.7,1.9c2.7,5.2,6,10,9.9,14.4,4.3,4.9,9.7,9.2,15.6,12.2,7.8,4.1,16.8,6.1,25.9,6.6-2.4.2-4.9.3-7.3.3-3.1,0-6.1-.2-9.2-.3-9.3-2-18-6.3-25.3-12.6-6.8-6-12.6-13.1-17-21.1,1.2,0,2.4.2,3.5.3,1.3,0,2.6.2,3.9.3Zm62.5,31.5c-6,.6-12,.5-18-.3-6.4-.9-12.6-2.8-18.4-5.8-5.7-3-10.8-7.1-15.1-11.9-3.6-4.1-6.7-8.5-9.3-13.3,10.4.7,20.7,1.3,31.1,1.8,6.3,4.6,13.8,7.5,21.6,8.3,8.5.7,17.6-1.7,24.9-6.1,8.6.4,17.3.7,25.9,1-10.2,12.6-23.9,21.5-39.6,25.6-1,.3-2.1.5-3.1.7Zm-91.4-34.4c7.5,12.7,17.4,23.8,29.8,31.7-1.4-.3-2.8-.7-4.2-1.1-.5-.1-1.1-.3-1.6-.5-6.1-3.3-11.6-7.5-16.4-12.5-5.4-5.6-10-11.9-13.8-18.7.3,0,.7.1,1,.2,1.6.3,3.4.6,5.1.9Zm-8-1.5c6.3,11.8,15,22.2,26,29.7-5.2-1.9-9.9-4.3-14.5-7.5-7.8-6.8-14.1-14.8-18.7-24,2.3.7,4.8,1.3,7.2,1.9Zm143.2,8.1c-18.5-.7-36.9-1.5-55.4-2.4-23.5-1.1-31.3-1.5-54.8-3-10.2-.7-19.9-1.8-29.9-3.6-3.8-.7-7.5-1.7-11.2-2.8,0-.1-.1-.3-.2-.4l-3.6-1.4c-1.4-.6-2.7-1.3-3.9-2.3.9.2,1.9.3,2.8.4,4.6.5,9.3.8,13.9,1.1,6.2.5,12.1.5,18.1-1.2,1.9-.5,3.9-1,5.8-1.4l7.7-1.1c2.3-.3,4.7-.4,7.1-.4l14.3.4,35.1.5,60.4,1.4c17.4.5,43.7.9,61.1.9l67-.4c3.6,0,6.9.2,10.5,1,4.1,1,8.1,2.1,12.2,3.3,3.6,1,7.9,1.3,11.6,1.1,22.6,0,45.2,0,67.8,0,10,0,20,0,30-.3,5.1,0,10.6-.4,15.6-1.2,2.1-.3,4.1-1.1,5.9-2.2h0c.3-.3.4-.7.5-1.2l.8-4.2c4-23.1,6-34.8,10.9-57.8,2.3-10.4,4.6-19.6,7.5-29.9,2.9-10.2,6.7-22.8,12.4-32.3,1.5-2.5,3.3-5.3,5.4-8l2.5,5c-.9,1.2-1.7,2.3-2.4,3.6-1.4,2.2-2.8,4.5-4,6.8-.4.7-.7,1.4-1.1,2.2,0,0,0,0,0,0h0c-5.2,10.5-8.9,23.3-12.1,34.4-.3.9-.6,2-.9,3.1h-.4c0,.3.1.5.2.7-1.4,5.2-3.1,11.8-4.1,16.1,0,0,0,.2,0,.2h-.1s0,.3,0,.3c-.2.8-.4,1.8-.6,2.7h-.2c0,.2,0,.4,0,.6-.9,4.3-1.8,9.4-2.4,12.9-1.7,8.8-3.5,17.6-5.3,26.4-.5-.5-.9-1-1.4-1.6.4,1.2.7,2.3,1.1,3.4l-2.3,9.1c-.3,1.5-.6,4.2-.7,5.7-.1,1.4-.5,2.7-1,4-.7,1.3-1.7,2.3-3,3.1-5,3-9.8,5.2-15.4,6.1-5.9.7-7.9.6-13.8.8l-32,1.6-34.9,1.5-19.7.2c0-.1,0-.3-.1-.4l-60.3.4c-32-.2-63.9-.6-95.9-1.3l-14.7-.4c-.1.1-.2.3-.3.4Zm-70.8-1.6c5.1.3,10.2.5,15.3.7,8.6.4,17.2.8,25.8,1.2-6.8,3.6-14.4,5.3-22.1,4.8-6.8-.7-13.3-3-19-6.7Zm294.3,2.8c1.1,3.1,2.9,5.9,5.3,8.2,1.2,1.2,3.1,2,4.8,2,1.6,0,3.3-.4,4.7-1.2,1.3,1.8,2.7,3.6,4.2,5.4-2.3,1.6-4.5,2.9-7.2,4l-1.7.5c-.5.1-1.1.2-1.6.3-9.9-.3-15.3-10.3-17.5-18.8l9.2-.4Zm13.9,7.8c-1.2.6-2.5,1-3.8,1-1.4,0-2.8-.7-3.8-1.6-2.1-2-3.7-4.5-4.8-7.2h1s6.5-.4,6.5-.4c1.2,2.4,2.5,4.7,4,6.9.3.4.6.9.9,1.3Zm-24.6-7.3c1.2,4.8,3.4,9.3,6.2,13.3,2,2.9,4.9,5,8.2,6-1.4.1-2.8.2-4.2.2h-3.7c-1.6-.3-3-1.1-4.3-2.2-1.7-1.5-3.2-3.3-4.3-5.3-2-3.7-3.6-7.7-4.6-11.9l6.6-.3Zm-11.8,19.6c-1.4-.5-2.6-1.2-3.7-2.2-1.6-1.4-3-3.1-4.1-4.9-2.2-3.6-4-7.5-5.3-11.6h3.3s4.3-.2,4.3-.2c1.7,6.1,5,14,9.3,18,.4.4.8.7,1.2,1-1.8,0-3.2,0-4.9-.1Zm-14.7-18.7c1.9,6.1,5.5,13.6,10,17.5.4.3.8.7,1.2,1-.7,0-1.4,0-2.2,0-.5,0-.9,0-1.3-.1-3.4-1.2-6.2-3.5-8.1-6.6-2.4-3.8-4.1-7.4-5.4-11.7h5.9Zm-7.4,0c1.3,4.4,3.2,8.6,5.7,12.4,1.3,2.1,3,3.9,5,5.2-7-1.2-12.3-6.5-15.5-12.6-.9-1.7-1.6-3.3-2.2-5h7.1Zm30.2,18.7c-1.3-.4-2.5-1.1-3.5-2-1.6-1.5-2.9-3.2-3.9-5.1-2.1-3.8-3.7-7.8-4.9-12l7.9-.3c1,4.4,2.7,8.6,4.8,12.5,1.6,2.9,3.7,5.3,6.3,6.9h-5.2c-.5,0-1,0-1.5,0ZM122.1,117.4l1.5,1.6c-.6.7-1.1,1.3-1.6,2h-8.5c0,0-1.4-1.7-1.4-1.7h0s1.2-1.9,1.2-1.9c3,0,5.8,0,8.6,0Zm8.4,1.6h0s1-1.6,1-1.6c3,0,6.1,0,9.5,0l1.2,1.3h-.1s-1.5,2-1.5,2h-8.6c0,0-1.5-1.8-1.5-1.8Zm-.7-1.6v.2c0,0-5.5,0-5.5,0l-.3-.3c1.9,0,3.8,0,5.7,0Zm19.3,1.3h0s.8-1.1.8-1.1c3.2,0,6.8,0,10.3,0l.8.9h7c0-.1.5-.9.5-.9,3.9,0,7.8,0,11.2,0l.6.6h-.1s-1.6,2.1-1.6,2.1h-9c0,0-1.6-1.9-1.6-1.9h-7.1c0,.1-1.5,2.1-1.5,2.1h-8.7c0,0-1.6-1.9-1.6-1.9Zm38.3-.5l.5-.6h11.4c.2,0,.5.3.6.4h-.2c-.5.8-.9,1.4-1.5,2.1h-9.1c0,0-1.6-1.9-1.6-1.9Zm19.6-.3h0s.3-.6.3-.6l11.8-.2.4.5h0s-1.6,2.1-1.6,2.1h-9.3c0,0-1.6-1.9-1.6-1.9Zm19.9-.3h0s.3-.5.3-.5h4c0,0,8.3,0,8.3,0l.3.3h7.4c0-.1.2-.3.2-.3h39.4c0,0-5.6,0-5.6,0l-1.8,2.1h-9.8c0,0-1.6-2-1.6-2h-7.7c0,.1-1.7,2.2-1.7,2.2h-9.7c0,0-1.7-2-1.7-2h-7.5c0,.1-1.7,2.2-1.7,2.2h-9.5c0,0-1.6-1.9-1.6-1.9Zm-145.3,11.7h5.7c0,0,1.4-2.1,1.4-2.1h5.2c0,0,1.4,1.6,1.4,1.6h10.1c0-.1,1.2-1.9,1.2-1.9h5.3c0,0,1.5,1.9,1.5,1.9h9.8c0-.1,1.5-2.1,1.5-2.1h5.4c0,0,1.6,1.9,1.6,1.9l10.1-.3,1.4-1.9h5.6c.6.6.9,1.1,1.4,1.9h10.2l1.6-2.1h5.7c0,0,1.6,1.9,1.6,1.9h10.4c0-.1,1.6-2.1,1.6-2.1h5.8c0,0,1.6,1.9,1.6,1.9h10.5c0-.1,1.6-2.2,1.6-2.2h5.8c0,0,1.6,1.9,1.6,1.9h10.7c0-.1,1.6-2.2,1.6-2.2h6c0,0,1.6,1.9,1.6,1.9h10.9c0-.1,1.7-2.2,1.7-2.2h6.1c0,0,1.7,2,1.7,2h11.1c0-.1,1.7-2.2,1.7-2.2h6.3c0,0,1.7,2,1.7,2h11.3c.6-1,1.1-1.6,1.7-2.3h6.4c0,0,1.8,2,1.8,2h11.4c0-.1,1.8-2.3,1.8-2.3h6.5c0,0,1.7,2,1.7,2h7.6s0,0,0,.2h-7.5c0,0-1.6,2.3-1.6,2.3h-6.4c0,0-2-2-2-2h-11.4c0,.1-1.6,2.2-1.6,2.2h-6.3c0,0-1.9-2-1.9-2h-11.2c0,.1-1.6,2.2-1.6,2.2h-6.1c0,0-1.9-2-1.9-2h-11.1c0,.1-1.5,2.2-1.5,2.2h-6c0,0-1.9-2-1.9-2h-10.9c0,.1-1.5,2.2-1.5,2.2h-5.9c0,0-1.9-2-1.9-2h-10.7c0,.1-1.4,2.2-1.4,2.2h-5.8c0,0-1.9-1.9-1.9-1.9h-10.5c0,.1-1.4,2.2-1.4,2.2h-5.7c0,0-1.9-1.9-1.9-1.9h-10.4c-.5.9-.8,1.4-1.3,2.1h-5.6c0,0-1.8-1.9-1.8-1.9h-10.2c-.5.9-.8,1.4-1.3,2.1h-5.5c0,0-1.7-1.9-1.7-1.9h-10.1c0,.1-1.3,2.1-1.3,2.1h-5.4c0,0-1.8-1.9-1.8-1.9h-9.8c0,.1-1.3,2.1-1.3,2.1h-5.3c0,0-1.7-1.8-1.7-1.8h-9.7l-1.2,2h-5.2c0,0-1.8-1.8-1.8-1.8h-5.7Zm237.8-4.5h-6.9c0,0-1.5-1.7-1.5-1.7l1.4-1.9h6.3c0,.3.1.6.2.8l.6,2.9Zm-16.7-1.7l-1.6,2h-10c0,0-1.6-1.7-1.6-1.7l1.5-1.9h10c0,0,1.7,1.7,1.7,1.7Zm-21.2.3c-.7.7-1.2,1.3-1.7,2h-9.9c0,0-1.4-1.7-1.4-1.7l1.5-2.1h9.9c0,0,1.7,1.7,1.7,1.7Zm-21,.1h0s-1.7,2.1-1.7,2.1h-9.7c0,0-1.4-1.7-1.4-1.7h0s1.5-2.1,1.5-2.1h9.7c0,0,1.6,1.7,1.6,1.7Zm-20.6.2h0s-1.7,2.1-1.7,2.1h-9.5c0,0-1.4-1.7-1.4-1.7h0s1.5-2.1,1.5-2.1h9.5c0,0,1.6,1.7,1.6,1.7Zm-20.1.3h-.1s-1.6,2.1-1.6,2.1h-9.3c0,0-1.5-1.8-1.5-1.8h.1s1.4-2.1,1.4-2.1h9.3c0,0,1.7,1.8,1.7,1.8Zm-19.7.3h-.1s-1.6,2.1-1.6,2.1h-9.1c0,0-1.5-1.8-1.5-1.8h0s1.4-2.1,1.4-2.1h9.1c0,0,1.8,1.8,1.8,1.8Zm-19.5.3h0s-1.6,2-1.6,2h-9c0,0-1.4-1.7-1.4-1.7l1.4-2.1h9c.6.5,1.1,1.1,1.7,1.8Zm-19.4.2h0s-1.6,2.1-1.6,2.1h-8.6c-.4-.7-.9-1.2-1.4-1.9l1.3-1.9h8.7c0,0,1.7,1.7,1.7,1.7Zm-18.9.2l-1.4,1.9-8.7.3-1.5-1.9h0s1.3-2,1.3-2h8.6c0,0,1.6,1.7,1.6,1.7Zm-18.4.3h0s-1.5,2-1.5,2h-8.4c0,0-1.4-1.8-1.4-1.8l1.3-2h8.4c0,0,1.7,1.8,1.7,1.8Zm-18.2.2l-1.2,1.8h-8.7c0,0-1.4-1.6-1.4-1.6h0s1.3-1.9,1.3-1.9h8.3c0,0,1.7,1.7,1.7,1.7Zm-17.9.3l-1.4,2h-8.1c0,0-1.2-1.4-1.2-1.4v-.4c-.1,0-.4,0-.4,0l1.3-2h8.1c0,0,1.7,1.8,1.7,1.8h0Zm-17.5.3l-1.4,1.9h-4.1c0-1.2.2-2.4.4-3.7h3.3c0,0,1.7,1.8,1.7,1.8h.1Zm-.6,3.2l1.4-1.9h5.1c.5.6,1.3,1.6,1.5,1.8h.5s-1.7,2-1.7,2h-5l-1.7-1.9h0Zm99.4,1.9c.4-.5.8-1,1.1-1.6h9c0,0,1.7,1.7,1.7,1.7l-1.4,1.7h-8.9c0,0-1.6-1.9-1.6-1.9Zm19.3-.1l1.2-1.8h9.1c0,0,1.7,1.7,1.7,1.7l-1.4,1.8h-9.1c0,0-1.5-1.8-1.5-1.8Zm19.6-.3l1.2-1.8h9.3c0,0,1.7,1.8,1.7,1.8-.4.7-.8,1.2-1.3,1.8h-9.3c0,0-1.5-1.8-1.5-1.8Zm19.9-.3l1.2-1.7h9.5c0,0,1.7,1.8,1.7,1.8l-1.4,1.8h-9.4c0,0-1.6-1.9-1.6-1.9Zm20.3-.2l1.2-1.7h9.7c0,0,1.8,1.8,1.8,1.8l-1.5,1.7h-9.6c0,0-1.6-1.9-1.6-1.9Zm20.7-.3l1.3-1.6h9.8c0,0,1.8,1.9,1.8,1.9l-1.4,1.7h-9.8c0,0-1.6-1.9-1.6-1.9Zm21-.2l1.3-1.6h10c0,0,1.9,1.9,1.9,1.9l-1.4,1.7h-10c0,0-1.7-1.9-1.7-1.9Zm21.4-.3l1.2-1.7h6.5c0,.3-.1.7-.2,1.1-.2.8-.4,1.6-.7,2.5h-5.1c0,0-1.7-2-1.7-2Zm-246.5,1.2h4.3c0,0,1.5,1.6,1.5,1.6l-1.2,1.7h-4.2c-.1-1.1-.2-2.2-.3-3.3Zm12.6,1.5l1.4-1.7h7.8l1.6,1.7-1.2,1.6h-8.2c0,0-1.4-1.7-1.4-1.7Zm17.7-.1l1-1.7h8.3l1.6,1.8-1.2,1.7h-8.2c-.4-.6-.9-1.1-1.4-1.7Zm18-.4l1-1.6h8.4c0,0,1.8,1.9,1.8,1.9l-1.2,1.6h-8.5c0,0-1.5-1.9-1.5-1.9Zm18.3-.2l1-1.6h8.7c0,0,1.7,1.9,1.7,1.9l-1.2,1.6h-8.6c0,0-1.6-1.9-1.6-1.9Zm18.6-.2c.4-.5.7-1,1.1-1.6h8.8c0,0,1.7,1.8,1.7,1.8l-1.2,1.7h-8.7c-.5-.6-.9-1.2-1.6-1.9h0Zm-44.2,3.6l1.2-1.6h5.4c0,0,1.3,1.7,1.3,1.7l-1,1.7h-5.3l-1.7-1.7Zm18.3-.1l1.3-1.7h5.4c0,0,1.5,1.8,1.5,1.8l-1.2,1.8h-5.3l-1.7-1.9Zm18.4,0l1.3-1.8h5.6c.5.5.9,1.1,1.4,1.8l-1.2,1.9h-5.5l-1.6-1.9Zm18.7,0l1.4-1.9h5.7c0,0,1.5,1.8,1.5,1.8l-1.3,2h-5.7l-1.7-1.9Zm19.1-.2l1.6-1.9h5.8c0,0,1.6,1.9,1.6,1.9h0l-1.4,2h-5.8l-1.7-1.9Zm19.5-.1h0l1.6-2.1h5.9c0,0,1.6,1.9,1.6,1.9h10.7c.7-.8,1.2-1.4,1.7-2.2h6c0,0,1.7,2,1.7,2h10.8c0-.1,1.7-2.2,1.7-2.2h6.1c0,0,1.7,2,1.7,2h11c0-.1,1.8-2.2,1.8-2.2h6.2c0,0,1.7,2,1.7,2h11.2c0-.1,1.8-2.2,1.8-2.2h6.3c0,0,1.8,2,1.8,2h11.4c0-.1,1.8-2.2,1.8-2.2h6.5c0,0,1.7,2,1.7,2h5.3c0,0,0,.2-.2.4h-5.3c-.5.8-.9,1.4-1.5,2.1h-6.6l-2-2.1h-11.4c0,.1-1.6,2.3-1.6,2.3h-6.3l-1.9-2.1h-11.2c0,.1-1.5,2.2-1.5,2.2h-6.2l-1.9-2.1h-11c0,.1-1.5,2.2-1.5,2.2h-6.1l-1.9-2.1h-10.8c0,.1-1.4,2.2-1.4,2.2h-6l-1.9-2h-10.7c0,.1-1.4,2.2-1.4,2.2h-5.9l-1.8-2Zm-129.4.9l1.2-1.6h5.2l1.4,1.8-1,1.6h-5.2l-1.6-1.8Zm17.7,0l1.2-1.6h5.2c.5.5.9,1.1,1.4,1.8l-1,1.6h-5.2l-1.6-1.7Zm202.9,5.5l-1.4,1.9h-5.5c-.5-.3-1-.5-1.6-.8h0s-1.1-1.2-1.1-1.2l1.7-1.9h6.3l1.6,1.9Zm-.6,3.3l1.6-2.2h10c0,0,2,2,2,2h7.8c.7-.7,1.1-1.3,1.7-2.1h1c-.5,1.2-1.1,2.4-1.6,3.5l-1-1.2h-7.8l-1.9,2.1h-10l-1.7-2.1h0Zm22.1-3.4c-.4.7-.8,1.2-1.3,1.8h-6.6l-1.8-1.9,1.6-1.9h6.4l1.8,2Zm3.1-1.4h-2.4l-1.8-2.1h-7.8l-1.8,2.2h-10c0,0-1.7-2-1.7-2h-7.7l-1.8,2.1h-4.9c-1-.1-2.1-.3-3.1-.4-.8,0-1.6-.1-2.4-.2l-1.2-1.5h0l1.5-2.1h9.8c0,0,1.9,2,1.9,2h7.7l1.6-2.2h10c0,0,2,2,2,2h7.8c.7-.7,1.1-1.3,1.7-2.1h4.1c-.5,1.4-1.1,2.8-1.7,4.3Zm-11.3,11.7l-1.8,2h-.6c-.2,0-.4,0-.6-.1-2-1-2.9-1.6-4.8-2.8-.6-.4-1.1-.7-1.7-1.1h7.5l2,2.1Zm-.2,2.4l1-1.1h4l-.2.3-.5.5c0,0-.2.2-.3.2-.5,0-.9.1-1.4,0h-2.6Zm6.6-3.9h-5.8l-2-2.1,1.8-2h6.4l1,1.2c-.5,1-1,2-1.5,2.9Zm-21.5-4.1h.6l.5.6c-.4-.2-.7-.4-1.1-.6Zm-175.2-6.6l-.5-.6h-6.6l-.4.6c-3.2,0-6.8.3-9.9.7l-.9-1.2h0l1.3-2h8.3c0,0,1.8,1.8,1.8,1.8h6.7l1.2-2h8.5c0,0,1.4,1.5,1.4,1.5v.5h.2l-.5.6c-3.3,0-6.8,0-10.6,0Zm18.4,0l-.5-.5h-5.7c0,0,5.9,0,5.9,0l1.3-2h8.6c0,0,1.7,1.9,1.7,1.9h6.9l1.3-2h8.8c0,0,1.8,1.9,1.8,1.9h7.1l1.3-2h8.9c0,0,1.8,1.9,1.8,1.9h0l-.6.8c-3.7,0-7.2,0-10.8,0-.2-.2-.4-.4-.6-.7h-6.8c-.3.2-.5.4-.7.7-3.6,0-7.2,0-10.9,0-.1-.2-.3-.4-.5-.6h-6.9l-.5.6c-3.4,0-6.9,0-10.7,0Zm56.9-.1l-.7-.8h.1l1.4-2h9.1c0,0,1.8,1.9,1.8,1.9h0l-.7.9c-3.9,0-7.5,0-11.1,0Zm19.8,0l-.7-.9h0l1.4-2.1h9.3c0,0,1.9,1.9,1.9,1.9h7.4l1.4-2.1h9.4c0,0,1.9,2,1.9,2l-.9,1.2c-3.9,0-7.6,0-11.2,0l-.9-1h-7.3l-.7,1c-3.9,0-7.5,0-11,0Zm40.3,0h0s-1-1.1-1-1.1h.1l1.5-2.1h9.6c0,0,1.9,2,1.9,2l-1,1.3c-3.9,0-7.6,0-11.1,0Zm-180.3,10.7h1.5l1.6,1.8-1.3,1.7h-.2c-.7-1.2-1.2-2.3-1.7-3.6Zm10.1-1.3l-1.1,1.8h-5.1l-1.7-1.9,1.3-1.8h5.1l1.5,1.9Zm-7.3,6.1l1.3-1.7h3.1l-1.2,1.1-.9.7c-.3.2-.6.3-.9.3-.3,0-.7,0-1-.3-.1,0-.2-.1-.3-.2Zm226.9-1c-2,.4-24.4,4.9-24.4,4.9-1.6.3-5.9.9-7.7.9-.9-3.6-2.2-7.5-5.5-9.6-2.2-1.5-7-1.8-9.9-1.7-24.1-.5-102.7-.1-142,0-3.4-.1-7.7,0-11.1.5-2.1.3-4.5,1.5-5.9,3-.9,1-2.5,3.2-3.1,4.5,0,0-1,2.2-1.1,2.6-2.1.2-8.9-.2-11-1.9l-1.5-1.3c2.5-2.1,11.5-9.9,12.5-10.8,1.2-.9,2.4-1.6,3.8-2.2,1.8-.6,3.6-1,5.4-1.2,5.1-.5,9.2-.6,14.3-.6l78.7-.2h70.6c4.1,0,7.8,0,11.9.4,2.4.2,4.7.8,6.9,1.7,4.9,2,11.3,5.8,16.3,9,.8.6,2,1.3,3.1,1.9Zm-215.6-6.5h-3.2l-1.4-1.8,1.1-1.8h7.4c0,0-.1,0-.2.1l-3.8,3.4Zm-11.3-1.8l-1.3,1.8h-2.3c-.4-1.2-.7-2.4-1-3.6h3.1l1.6,1.8Zm17-2.9c0,0-.2-.2-.3-.3l1.3-1.8h5.1c-1.5.2-2.8.5-3.8.9-.6.2-1.5.7-2.3,1.2Zm-10-.1l-1.1,1.7h-5.1l-1.6-1.8,1.3-1.7h5.1l1.4,1.8Zm10.2-3.4h0l-1.4,2h-8.1l-1.5-1.9h0l1.2-2h8.1l1.7,1.9Zm-17.5.1l-1.4,1.9h-3.6c-.1-.5-.2-1-.3-1.4-.2-.8-.3-1.5-.5-2.3h4.1l1.7,1.9h0Zm14.5-20.7l1.6,1.7-1.4,2h-8.1c0,0-1.5-1.8-1.5-1.8h0s1.1-1.7,1.1-1.7l8.4-.2Zm8.3,1.7l1.2-1.9,8.4-.2,1.6,1.8h-.1s-1.4,2-1.4,2h-8.2c-.5-.6-.9-1.1-1.5-1.8Zm17.6-2.1l-.3.5h-5.3c0,0-.5-.5-.5-.5,2.1,0,4.2,0,6.1,0Zm-18.1.2l-.3.4h-5.2c0,0-.4-.3-.4-.3h5.9Zm75.2,4l-1.1,1.7h-5.6c0,0-1.7-1.7-1.7-1.7l1.3-1.7h5.7c0,0,1.5,1.8,1.5,1.8Zm-18.9.2l-1.2,1.7h-5.5c0,0-1.6-1.7-1.6-1.7l1.3-1.7h5.6c0,0,1.5,1.7,1.5,1.7Zm-18.7.2l-1.1,1.7h-5.4c0,0-1.6-1.7-1.6-1.7.4-.7.8-1.2,1.3-1.7h5.4c0,0,1.5,1.7,1.5,1.7Zm-18.3.3l-1.1,1.7h-5.3c0,0-1.6-1.6-1.6-1.6l1.2-1.7h5.4c0,0,1.4,1.7,1.4,1.7Zm-18.1.3l-1.1,1.6h-5.2c0,0-1.5-1.6-1.5-1.6l1.3-1.8h5.2c.5.5.9,1.1,1.3,1.8Zm-17.6.1l-1.2,1.8h-5.1c0,0-1.5-1.6-1.5-1.6l1.3-1.8h5.1c0,0,1.3,1.6,1.3,1.6Zm234.3-2.8l-1.4,1.9h-6.4c0,0-2-2-2-2l1.5-1.9h6.5c0,0,1.7,2,1.7,2h0Zm-21.4.4l-1.3,1.7h-6.3c0,0-1.9-2-1.9-2h0s1.4-1.7,1.4-1.7h6.3c0,0,1.8,2,1.8,2Zm-21.1.2l-1.2,1.7h-6.2c0,0-1.9-2-1.9-2l1.4-1.7h6.3c0,0,1.6,2,1.6,2Zm-20.7.2l-1.2,1.7h-6.1c0,0-1.9-2-1.9-2l1.4-1.7h6.1c0,0,1.7,2,1.7,2Zm-20.4.2l-1.2,1.7h-5.9c0,0-1.8-1.9-1.8-1.9l1.3-1.7h6c0,0,1.6,1.9,1.6,1.9Zm-20,.2l-1.1,1.7h-5.8c0,0-1.7-1.7-1.7-1.7.5-.6.9-1.1,1.3-1.7h5.9c0,0,1.5,1.8,1.5,1.8Zm-19.6.3l-1.1,1.7h-5.7c-.6-.6-1.1-1.1-1.8-1.8l1.3-1.7h5.8c0,0,1.5,1.8,1.5,1.8Zm-120-3.4l1.6,1.8h0s-1.3,1.8-1.3,1.8h-2.7c.4-1.2.9-2.3,1.5-3.4v-.2c.1,0,.9,0,.9,0Zm7.6-.1l-.3.4h-5.1c0,0-.3-.3-.3-.3h5.7Zm242.3.4h-6c0,0-1.4-1.6-1.4-1.6h5.3s1.4.1,1.4.1c0,0,.1,0,.1,0,.1.2.3.8.5,1.4Zm-15.8-1.6l-1.6,1.9-10,.2-1.8-2.1h13.4Zm-236.9,25.3c.6,2.2,1.2,4.5,2,6.7,0,.2.1.3.2.5h0c-.8-2.3-1.6-4.7-2.1-7.2Zm-3.1-14.9l-11.6-.3h-3.5c-.7.1-1.3.4-1.7.8-.4-1.3-1.1-2.5-1.9-3.5-2.5-3.2-7.1-3.8-10.3-1.4-.6.5-1.2,1-1.6,1.7-1.5,2.1-2.3,4.6-2.3,7.1,0,2.3.6,4.6,1.9,6.5,1.3,2.1,3.9,3.9,6.5,3.8,2.3,0,4.5-1.2,5.9-3l.3.2c.9.4,15.7,1.2,19.5,1.4.2,1.1.5,2.1.7,3.1.6,2.6,2.2,7.5,3.5,10.3-.1,0-.3,0-.4,0-3.1,0-6.2-.2-9.3-.5-9.9-1.2-19.7-2.8-29.4-4.6l-2.1-.4c0,0-.2,0-.3,0-.5-1-.6-1.8-.8-2.9-.2-2.1-1-4.1-1.7-6.1l-.6.2.3-.8c-.4-1.2-.7-2.2-1-3.4-.2-1.1-.3-2.3-.3-3.4.1-3.1.8-6.2,2-9,1.2-2.5,2.1-3.3,3.5-5.5l1-1.7c.3.2.6.4.6.4.3-.4.5-.7.6-.8,0,0,.1,0,.2,0h1.5c8.6.1,23.2,1,31.6,2.7l.9.3c0,0,.1,0,.2,0v.2c-.6,1.2-1,2.5-1.2,3.8-.3,1.5-.6,3.2-.7,4.7,0,0,0,.1,0,.2Zm-17.7,2.4c-.7,1.9-1.6,5.9-1.7,7.9-1.1,1.7-3,2.8-5.1,2.9-4.6-.2-6.8-4.9-6.9-8.9,0-2.4.7-4.3,2-6.3,1.8-2.7,5.5-3.4,8.2-1.5.5.4,1,.8,1.4,1.3,1.1,1.4,1.8,2.8,2.1,4.6Zm18.7,9.4l-15.8-.9c-.6,0-2.8-.3-3.1-.5h0c0-.1,0-.5,0-.5.3-1.9.7-3.9,1.3-5.7l.5-1.5.3-.7c0-.2.2-.3.3-.4.2-.1.4-.2.6-.2,3.9-.1,10.4,0,14.9.2,0,3.2.4,6.9,1,10.3Zm-38.7,9.1l-6.7,3,4.8-10.7.8,2.2c.3.9.5,1.8.6,2.7,0,.8.2,1.8.6,2.7Zm3.3-34.8c1.7,0,3.4,0,5.1,0,3.1.2,6.1.4,9.2.8.8,0,1.7.2,2.8.3-1.4,0-2.7-.2-4.1-.2-3.1-.2-6.1-.3-9.2-.3h-1.5c-.3,0-.8,0-1,.2-.1,0-.3.2-.4.4l-.8-1.2Zm413.8,193.7c-5.5-3.3-10.4-7.5-14.4-12.5-4.3-5.3-7.9-11-11-17.1l3.9-.2c1.5,0,3.3,0,5.2-.1,5.1,9.4,12.9,20.6,20.6,26.9,1.5,1.3,3.1,2.3,4.9,3.2l-9.3-.2Zm-26.9-29.5c3.1,6.4,7,12.4,11.4,17.9,3.6,4.5,7.9,8.4,12.7,11.6l-7.7-.2c-.5,0-1.1,0-1.8,0-5-3.5-9.4-7.7-13.1-12.6-4-5.3-7.3-10.3-10.4-16.1l8.9-.4Zm-10.5.5c3.1,5.9,6.7,11.6,10.8,16.9,3.3,4.4,7.2,8.3,11.5,11.6-1.4,0-2.7-.2-3.5-.3-2.3-.4-6.3-3.6-8.2-5.3-3.1-2.6-5-4.3-7.7-7.4l-1.1-1.3c0,0-.2.1-.3.2-3.6-4.2-6.9-9.1-9.4-14l8-.4Zm241.9.8c.8,4,1.7,7.9,2.7,11.8.6,2.7,2.1,7.4,3.5,9.8.2.4.5.8.8,1.2l-5.7-.2c-.4,0-1.3,0-2.4-.1-.6-.4-1.2-1-1.5-1.7-.6-1.1-1-1.7-1.4-2.8-1.9-4.7-3.5-11.8-4.5-17.4,2.9-.2,5.7-.4,8.6-.7Zm9.1,22.9c-.3-.1-.5-.3-.7-.6l-.9-1.4c-1.6-3.2-2.5-6-3.4-9.5-1-3.8-1.9-7.7-2.7-11.6.1,0,.3,0,.4,0l4.1-.6c1.3-.1,2.5-.6,3.5-1.2.8,4.5,1.8,9,3,13.4.6,2.5,1.4,4.9,2.4,7.3.6,1.4,1.4,3.1,2.5,4.4l-8.2-.2Zm10.6.3c-.3-.1-.5-.3-.7-.5-.4-.4-.8-.8-1.1-1.3-3.1-4.9-5.8-17-7.1-24.4,1.5-1.4,2.7-3.2,3.5-5,1.2-2.5,2.2-5.1,2.9-7.8.7,5.5,1.6,11,2.6,16.4,1,5.2,3.5,17.4,8.4,22.8l-8.6-.2Zm10.7.3c-.9-.7-1.8-1.6-2.4-2.6l-1.7-3.1c-.9-2-1.7-4-2.3-6.1-2.7-8.9-4.7-21.2-5.8-31h0c.7-2.5,1.3-5,1.8-7.5l7.2-28.9,5.9-26.5c1.5-6.1,4.1-15.1,7.7-22.4.8.1,1.6.3,2.3.5.9.3,1.8.8,2.7,1.2-1.3,0-2.6.6-3.5,1.6-2.8,2.6-5.1,7.7-6.3,11.6-1.7,5.7-3,11.4-3.7,17.3-1.4,10.9-2.1,22-1.8,33,.1,9.6.9,19.2,2.3,28.7.8,5.8,2,11.5,3.6,17.1.9,3.2,2.1,6.4,3.5,9.5,1.1,2.4,2.9,5.3,5.1,7,.2.2.5.4.8.5-.4,0-.8,0-1.2,0-4.7.2-9.5.2-14.2,0Zm20.3-124.2h0c-2.4-2.6-5.7-4.7-9.3-5.3,1.1-2.1,2.2-3.9,3.4-5.5l1.4-1.5c.5-.4,1.1-.7,1.7-.8,1.3-.2,2.7.2,3.7,1,1.8,1.5,3.3,3.4,4.2,5.6,1.4,3.6,2.2,6.8,2.6,10.6.8,6.5,1.2,11.9,1.3,17.7-.4-1.8-.9-3.7-1.4-5.5-.9-3.4-2.1-6.7-3.5-9.9-1-2.2-2.4-4.6-4.2-6.4Zm-217,60.6c1.7-.1,2.9-1.3,3.4-2.9.1-.4.2-.8.3-1.3.9.8,1.8,1.6,2.6,2.3l5.2,5c-.3,0-.5.1-.8.2-.9.3-3.9,1.5-4.7,2-.3.2-.5.4-.7.7-1-1-1.9-2-2.8-3l-2.6-3.1Zm2.5-5.1c-.1,1.3-.5,2.7-1.6,3.4-.3.2-.7.3-1.1.3h-1s-1.1-1.3-1.1-1.3l-1.7-2.3-.3-1.2v-.3s.2-.1.2-.1h.6c0-.1,1.5-.8,1.5-.8.1,0,.3,0,.4,0l.8.2c1.1.5,2.3,1.2,3.5,2.1Zm4.1-7.1c.4-.4.7-.9,1-1.4.6-1,.9-2.3.9-3.5,0-2.1-.7-3.8-2.1-5,13.5-1.8,18.2-2.5,30.2-4.2,3.2-.4,6.4-.8,9.6-1.1l4.7-.6c-.7.4-1.4.7-2.1,1.1-2.1.7-3.7,1-5.9,1.2l-10.4,1-10.6,1.3-2.4.5c-1.4.2-3.2.9-3.5,2.6-.3,1.5,0,5.3.7,6.8.4.8,1.5,1.1,2.4,1.1,0,0,17.2-.1,17.2-.1,3.1-.2,6.3-.2,9.4-.2,1.5,0,2.9.3,4.3.8.9.3,1.7.7,2.5,1-11-.9-34.2-1.4-45.7-1.2Zm-2.3-9.6c.8.4,1.5,1,2,1.7,1,1.7,1.1,4,0,5.7-.5.8-1.1,1.5-1.7,2.1-1.3,0-2.8-.3-3.4-.7h-.1c.2-1.6.2-4.9,0-6.7,0,0,0-.1,0-.2.2-.3.4-.6.7-.8.5-.3,1.7-1,2.4-1.2Zm218.5-54.1c-1.3-3.6-5-6.5-9-6.1-3.1.3-5.8,3.6-7.4,6.4-2.7,4.8-5,12.2-6.6,18-2.8,9.4-9.7,37.8-12.7,50.2-1.2,5-2.6,9.9-4.2,14.8-1.1,3.6-2.4,7.1-3.7,10.6-1.4,0-5.2-.2-8-.3l5.5-23c.1-.1.2-.3.2-.4,0,0,0-.2,0-.2l7.7-32.1,4.2-19.6,3.6-15.6c1-4.5,2.3-8.9,3.8-13.2,1-2.7,2.4-5.9,4.4-8,1.2-1.3,3.1-1.7,4.8-1.2,4.6,1.7,9.1,6.1,12.2,10.2,2.1,2.7,3.7,5.8,4.9,9,.1.3.2.6.3.9Zm-42,93.8c1.3-3.3,2.4-6.7,3.5-10.1,1.4-4.4,3.1-10.4,4.2-14.8,3.1-12.6,6.2-25.2,9.3-37.8,1.3-5,4.8-17.6,6.6-22.8,1.3-3.8,3.4-8.3,6.3-11.2.9-.8,2-1.4,3.2-1.6,1.4,0,2.8.3,4.1,1,1.7,1,2.8,2.5,3.5,4.3,1.3,3.3,2.5,6.7,3.5,10.1h0c0,.4.1.8.2,1.3,0,.6.2,1.1.2,1.7-1-4.5-2.9-9-6.5-11.8-1.3-1-3.2-1.5-4.9-1.2-1.8.3-2.8,1.4-3.9,2.7-1.5,1.7-3.4,5.2-4.3,7.3-1.6,3.3-3,6.7-4.1,10.2-1.3,3.8-2.7,8.6-3.6,12.5l-5.9,26.5-7.2,28.9c-.3,1.6-.7,3.1-1.1,4.7-1,.1-2,.2-3,.2Zm-24.5,23c.7,3.9,1.5,7.8,2.5,11.6.7,2.8,1.9,6.5,3.6,9.2.2.3.4.6.6.9-2.8-.1-5.8-.3-6.4-.4-.3,0-.5-.1-.8-.3-.6-.5-1.1-1.1-1.6-1.7-.8-.9-1.4-1.9-2-3-2.2-4.1-4.2-10.6-5.6-15.8,3.2-.1,6.4-.3,9.6-.5Zm69.8-72.3c0,.2,0,.4,0,.6h.1c.2,1.4.4,2.7.6,3.9v.5s0,0,0,0c1.3,9,1.9,18,2.1,27,.3,15.5-.9,37-6.1,51.9-1.3,3.7-2.8,7-5.8,9.4-.4.3-.9.5-1.3.7h-.9c-1.8,0-3.4-1.3-4.5-2.7-9.4-12.1-11.8-44.2-12.1-59.3-.3-14.4.8-43.8,8.9-57.7,1.1-1.9,3-4.2,5.4-4.3,2,0,3.6,1.6,4.7,3,4.4,5.9,7.4,17.4,9,26.9Zm-42.7,50.6c-.4,1.4-.7,2.7-1.1,4.1-1,3.7-1.5,4.8-3.1,8.3-.9,2-1.8,3.5-3.5,4.9-1.1.9-2.3,1.3-3.7,1.5l-4,.6c-7.2.7-14.5,1.2-21.7,1.5,0,0,0,0,0,0-7.4.3-14.3.2-21.7-.2-14.6-.8-24.4-.9-37.6,0l-17.1,1c-4.8.2-9.2.3-13.9.1,1.6-3.2,3-6.5,4.3-9.9,3.2-.8,6.4-1.5,9.7-2.2,4-.6,8.1-1.1,12.1-1.5,5-.3,9.9-.5,14.9-.5,7,0,14,.2,21,.6,9.5.5,19.1.9,28.6,1.3,9.2.4,18.5.5,27.8.2,1.3,0,5-.1,6-.7.4-.2.6-.6.5-1v-.3c-.5-.4-1.3-.9-1.8-1.2-1.5-1-2.9-2.2-4.3-3.4-1-1-2-2.1-2.9-3.2,2.6.1,5.2.2,7.8.3,1,0,2.5,0,3.8-.2Zm-204.5-14.7c0,.4.2.7.2,1.1.2,1,.3,2.1.3,3.1-.4-.3-.8-.7-1.2-1.1.2-.7.4-1.8.7-3.1Zm2,4.5c0-2.6-.4-5-1.4-7.4,1.6-7.9,4-19.8,4.3-21.4.5-3.1,1.1-6.2,1.7-9.3.7,4.2,1.3,8.4,1.7,12.6h0c0,.1.5,1.8.5,1.8.2.5.5.9.8,1.3l.2,2.2h-.2c-.6,4.5-1.4,8.9-2.6,13.3-.3,1-.7,1.9-1.3,2.7-.7.9-2.5,3.2-3.6,4.2Zm5.5,13.9l1.5-4.5c1.1-3.8.7-8.2.5-12.2,1-1.8,1.9-6,1.9-8.6l-.2-6.4v-.2s2.3,5.3,2.3,5.3c.6,1.3.9,1.9,1.4,3.3,1.1,4,.8,9.3,1,13.6,0,1.9,0,3.3-.3,5.2-.3,1.7-.9,3.4-1.7,5-.8,1.6-1.7,3.1-2.7,4.5l-.2.3c-1.2-1.7-2.4-3.5-3.4-5.3Zm.7-14.8c0,1.1.1,2.3.1,2.3.1,2.5-.1,5.1-.7,7.6l-1.1,3.3c-.3-.5-.5-.9-.8-1.4-.7-1.4-1.3-2.8-1.9-4.3l-.2-.9c0-.2,0-.5,0-.8,0-.2.1-.4.2-.5l3.3-4.1c.3-.3.7-.7,1-1.2Zm25.9,33.7c1.6.8,3.2,1.6,4.7,2.5,1.3.8,2.5,1.8,3.5,2.9.7.9,1.3,1.8,1.9,2.7-1.4.3-2.9.3-4.3.2-3.8-.5-8.5-1.5-11.9-3.2-2.4-1.2-4.4-2.6-6.5-4.3-2.9-2.4-3.4-3-5.9-5.6-.8-.8-1.3-1.5-1.7-2.5,1,1.1,2.1,2.1,3.2,3.1,4.3,3.8,11.4,4.7,17,4.2Zm11.1,6.9c-2.9-4.4-5.2-5.6-10.4-8.2,0,0,0-.1,0-.2,0-.3,0-1.1-.1-1.5-.5-2.1-4-9.1-5.2-11.5l-4.7-10.6c-1.6-3.9-2.9-5.7-5.6-8.6v-.9s-.3-3.5-.3-3.5c0-.3,0-.6,0-1h.5c.7.6,4.8,5.2,5.2,5.6,4.2,5.1,9.4,12.6,13.4,18.7l3.9,6.1c.8,1.3,1.5,2.7,2.1,4.2.6,1.4,1,2.8,1.4,4.3.3,2.1.3,4.3,0,6.4,0,.2,0,.3-.1.4Zm-25.9-38.2c.5.6,1.1,1.3,1.6,1.9,1.1,1.7,1.8,3.1,2.6,5l4.7,10.6c1.7,3.3,3.2,6.6,4.7,9.9l.4,1.2c.2.9.1.7,0,1.3-1.2,0-2.4,0-3.7,0-2.2-.1-4.4-.5-6.5-1.2-1.8-.6-3.5-1.5-4.9-2.8-1.4-1.3-2.8-2.7-4.2-4.2.2-.5.4-1.1.7-1.5l2.2-4.1c.7-1.3,1.7-3.4,2-4.9.4-2,.7-6.7.6-8.7v-2.7Zm27.6,25.6l4.9,1.9c1.8.7,4,2.2,5.6,3.4-2,1.6-6.1,4.2-7.1,4.7l-.7.3c0,0-.2,0-.3,0h0c0,0,0-.3,0-.3l-.7-4.6c-.3-1.5-1-3.6-1.5-5.1,0-.1-.1-.3-.2-.4Zm11.6,4.3c-.8-.7-1.7-1.3-2.6-1.9-1.1-.8-2.3-1.4-3.5-1.9l-5.6-2.1h-.6c-1.5-3.4-3.4-6.6-5.4-9.6-3.2-4.9-6.7-9.5-10.4-14l-2.5-3c-.2-.2-.3-.5-.3-.9,0,0,0,0,0,0l.4-.3c1.1-.6,3.1-1.3,4.3-1.8.4-.2.9-.2,1.4-.3,0,0,0,0,0,0,4.2,3.7,5.3,4.7,9.1,9.1,11,12.6,13.3,18.3,15.3,23.4.3.8.6,2.4.4,3.2,0,0,0,0,0,0Zm-31.6-86.7l.3.5c3.3-2.5,6-4.8,6.8-8.7.8-3.1,1.3-6.2,1.8-9.3.4-.9.7-1.7,1-2.3.4-1,.9-2.7,1.4-4.5.6-.8,1.3-1.5,2.2-2.1l9.3-4.7s0,0,0,0v1.1c0,1.5-.2,3-.5,4.4-1.6,5.8-7.5,16.1-10.9,21.6-2,3.2-1.7,2.5-4,5.6-1,1.3-2,2.5-3.2,3.6h0s0,0,0,0c-.5.6-1.2,1.2-1.9,1.5-1.7.7-4,.4-4.9-1.3h0c0-.1,0-.3,0-.3l.4-.8s0,0,0,0h0s2.3-4.4,2.3-4.4Zm6.6-12.8c-.3,1.4-.6,2.8-.9,4.2-.4,1.7-1.1,3.1-2.2,4.4-.8.8-1.6,1.6-2.5,2.3,1.3-2.4,3.6-6.8,5.6-10.8Zm-10.4-13.2c-.2,2.8-.5,5.6-.8,8.4-.5,2.5-1.1,4-2.2,6.3l-4.6,10.1c-.4-3-1.2-5.9-2.3-8.7,1.6-5.6,3.2-11.1,5-16.6.6-.2,1.2-.3,1.8-.2,1.1.1,2,.4,3,.8h.2Zm-8.9,27.4h0c0,0,0,0,0,0,0,1.2.1,2.4,0,3.6l-.2,5.3c0,1,.4,1.4,1.4,1.5,1.3-.5,3.3-2.8,4.2-4.1,1.2-1.6,2.5-3.6,3.5-5.4l6.9-13.4c1.1-2.2,2.6-5.3,3.5-7.6.9-2.1,3-8.2,3.5-10.4.4-1.5.6-4.1.6-5.6,0-.9,0-3.5-.1-4.4-.2-.9-.5-1.6-1.2-2-.4-.2-.8-.4-1.3-.4-1.8-.3-3.6-.3-5.4,0-2.7.2-4.3.5-6.5,1.2.5-1,.9-2.1,1.4-3.1,2.8-.9,5.8-1.4,8.8-1.3,6.4.3,12.4,2.6,17.5,6.6,5.7,4.4,10.2,9.4,14,15.5,14.6,23.6,18.2,52.7,13.1,79.7-2.8,14.5-10.4,31.1-24.1,38.9-5.7,3.1-12.5,4-18.8,2.4-6.5-1.8-12.2-5.2-17-10.1,0,0,0,0,0,0,.7.7,1.5,1.3,2.3,2,3.7,3.1,7.9,5.6,12.7,6.6,4,1,7,1.7,11,1h.7c0-.1.5-.4.5-.4,1.2-1.4,1.5-4,1.5-5.9.2-7.1-4.1-13-7.8-18.6-2.3-3.5-4.6-6.9-7-10.2-1.4-2.1-4.7-6.4-7.6-9.9.6.6,1.1,1.1,1.7,1.7.1.3.3.6.5.8l7.4,9.1c3.1,4.1,6.7,9.3,9.2,13.9,1.5,2.8,3.2,6.8,3.8,10l.6,4.6c.1.5.4.9.7,1.2l.7.2c1.5-.2,4.3-2,5.8-3.1,1.4-.8,2.7-1.8,3.9-2.9.8-.6,1.1-1.5,1.1-2.5-.1-2.1-1.1-4.5-2.1-6.5-2.3-5.1-4.8-8.9-8.2-13.1-1.9-2.4-3.8-4.7-5.8-7l-3.2-3.6c-.5-.5-4.2-4-5.6-5.2h0c0,0-6.9-6.7-6.9-6.7-1.4-1.4-3-2.7-4.6-3.9-.9-.7-3.1-2.3-4.8-2.2.1,0,.3-.2.4-.3.9-.6,1.3-1.5,1.5-2.5,0-.1,0-.3.1-.4.7.6,1.3.9,2.2,1,1.3.3,2.7.4,4.1.4,14.8-.2,25.6.2,40.9.8,2.7.1,5.4.4,8,.7h0s.4,0,.4,0c.1,0,.5-.2.6-.2,1-.6,1.2-2.9,1.1-4.1l-.3-5.9-.7-7.5c0-.7-.4-1.8-.9-2.3-.3-.2-.6-.4-1-.4,0,0-.2,0-.4,0v-.2c-.2,0-.3.1-.4.2-2.1.2-6.8.8-7.6.9-3.2.3-6.4.7-9.6,1.1l-19,2.7-13.1,1.8c-.6,0-1.2.3-1.7.6-.8.4-2.1,1.2-2.6,2.2,0-.3-.2-.7-.4-1-.4-.9-.9-1.7-1.5-2.5h0c-.1-.2-.3-.3-.4-.4.6,0,1.2-.2,1.8-.7l2.9-2.9c2.7-2.9,7-9,9.8-12.9h-.1c1-1.1,1.8-2.1,2.6-3.2,1.5-1.8,2.8-3.7,4-5.7,1.8-2.8,3.6-6,5.2-8.9,1.4-2.4,2.7-4.9,3.8-7.4,1.5-3.3,2.6-6.7,2.7-10.4,0-1.6-.3-2.9-1.6-3.7-2-1.4-7-4.7-9.8-4.7l-.6.3-.3.5c0,.2-.3,1.1-.3,1.4v3.8c0,.9,0,1.4-.3,2.2-.8,3.3-1.8,6.6-2.9,9.8-3,6.7-5.4,11.5-8.9,17.9l-3.3,6.2-4.6,6.1c-1.3,1.5-4.7,5.9-5.3,7.5l-.2.7c-.2,1.1,1,2.2,2,2.7.2.1.3.2.5.3-.5,0-1.1,0-1.6.2-1.9.5-3.2,2.5-3.8,4.4-.4,1.1-.6,2.3-.5,3.5,0,.4,0,.9,0,1.3l-.2-.6c-.2-1.7-.4-3.3-.6-5,.4.3.6.4,1.1.1l.2-.3.7-1.6,1.2-2.1c.2-.4.3-.8.4-1.2l.8-8.1c.2-2,.3-4,.2-6,0-4.5-.5-7.8-1.5-12,.1-.4.2-.9.4-1.3.7,2,1.2,4,1.5,6.1.1,1,.2,1.9.3,2.9Zm1.5.2l5.6-12.3c1-1.9,2-4.5,2.4-6.7.4-2.2.8-6.9.9-9.2,0,0,.1-.2.2-.3.5-1.2,1.1-2.4,1.9-3.4,2.2-2.8,6.7-6.6,9.4-9.1l.2.6c.3,2.9,0,6.4-.5,9.4-1,3.5-2.2,6.9-3.5,10.2-1.7,4.2-7.5,15.3-10.4,20.8-1.6,2.9-3.8,6.2-6.3,8.5h0s.2-5,.2-5c0-1.2,0-2.3,0-3.5Zm49.9,30.6c.2-1.8.2-3.7.1-5.5h0c-.1-1.3-.6-3.2-1-4.6,4.2-.4,6.8-1.5,10.3-3.9h.3s.2.3.2.3c.1.3.2.7.3,1,.6,4,.8,9.3,1,13.4,0,.8,0,1.7-.3,2.5-1.8-.9-3.6-1.6-5.4-2.3-1.3-.4-3.4-.8-4.7-.8-.2,0-.5,0-.7,0Zm-2.4-10c.5,1.5.9,3,1.1,4.6,0,1.8,0,3.6-.1,5.4-2.5,0-5.6.1-7.4.2h-17c-.4,0-.7,0-1-.1,0,0,0,0,0,0l-.2-.6c-.3-1.3-.5-2.7-.5-4.1v-1.2c.2-.3.4-.5.6-.7.6-.4,1.2-.6,1.9-.7l2.4-.5c5.4-.9,14.7-1.7,20.4-2.2Zm-50.8,14.3c.3.4.7.7,1.1,1,.9.7,1.9.9,2.8.8h-.2s-.7.4-.7.4c-.8,1-.2,2.3.1,3.3,1.9,2.6,3.9,4.9,5.9,7.2-.5-.5-.9-.9-1.3-1.2-.1,0-.5-.3-.8-.3h-.8c-1.3,0-1.5,1.6-1.3,2.6.6,5,.6,10.1.2,15.1l-.3,2.4c-.1.6-.3,1.2-.6,1.7-1.5,3.2-2.1,4.2-3.5,6.8-.4.7-.8,1.5-1,2.3-.2.9-.1,1.8.2,2.7-5.7-7.5-9.9-16.2-12.8-25.2.6.5,1.2.9,1.6.9.8.2,1.6-.7,2.1-1.3,1-1.1,2.3-2.6,3.2-3.8.7-.9,1.2-2,1.5-3.1.7-2.5,1.2-5,1.7-7.6v2.6c0,1.6-.2,3.2-.5,4.8-.2,1.1-.6,2.2-1.1,3.2-.8,1.3-1.2,1.6-2.2,2.8,0,0-3.3,4.1-3.3,4.1-.9,1.2-.6,2.3-.2,3.6.8,2.5,3.3,7.3,5.2,10.1l2.2,3.3.4.4h.6c0,.1.5,0,.5,0l.5-.6c.3-.4,2.9-4.7,3.1-5.1,1.8-3.3,2.4-7.3,2.2-11l-.2-8.1c0-3.3-.8-6.5-2.3-9.4l-2.1-4.9h0c0-.2-.2-.4-.3-.5Zm6.9-2.1l-.3,1.1c-.5.9-1.8,1.4-2.8,1.5-2.5.2-4.1-3.3-4.7-5-.9-2.9-.5-6.1,1.4-8.5,1.3-1.5,3.6-1.2,4.9,0,.5.7.9,1.3,1.3,2.1.2.6.4,1.1.4,1.8h0c.4,2.8.5,4.4-.2,7.1Zm-12-21.3h0c0,.1.7,3.6.7,3.6l.6,3.9v2.7c-.3-3.2-.8-6.4-1.4-9.7,0-.2,0-.3.1-.5Zm3.9-16.3c.1.7.3,1.5.4,2.2,1.1,8.1.3,12.3-.5,20.6,0,.2,0,.5-.2.7l-.8,1.4v-1.3c-.2-1.4-1-6.2-1.4-7.6l-.8-2.6s0,0,0-.1c1-4.4,2.1-8.9,3.3-13.3Zm0,118.9c-4.2-.8-7.9-2.7-11.3-5.4-3.5-2.9-6.1-5.2-9-8.7-4.8-5.6-9.1-11.6-13-17.8,2.1-.5,4.3-1.3,6-2,2.5-1.1,5-2.3,7.3-3.7.8-.5,1.5-1,2.1-1.6l1.6,3.2c5.3,10.8,13.5,21.5,23.6,28.4,4,2.7,8.5,4.8,13.1,6,2.9.8,5.9,1.1,8.9,1-3.8.9-7.4,1.2-11.5,1.1-5.5,0-11.1,0-16.6-.4h-1.3Zm-34.8-31.7c4,6.5,8.4,12.6,13.3,18.4,2.8,3.2,5.9,6.2,9.2,8.9,2.1,1.7,4.3,3.1,6.8,4.2l-8.9-.3h-1c-2.9-1-5.6-2.5-7.9-4.5-3-2.5-5.5-4.9-7.9-7.9-4.5-5.6-8.6-11.7-12.1-18,2.6-.1,5.2-.3,7.2-.6.4,0,.8-.1,1.2-.2Zm58.3-124.1l-4.3,3.9c-3,2.5-5.6,5.2-7.1,8.8h-.2c-1.5-.6-3-1-4.6-.7,1-3.1,2.2-6.2,3.4-9.2.2-.4.3-.8.5-1.2,1-.4,2.1-.7,3.1-1,.7-.1,6.4-1.1,9.1-.6Zm-2.7-15.6h.8c3.3.5,7.7,1.8,11,3.1,3.3,1.3,6.4,2.9,9.4,4.8,3.1,2.1,6,4.3,8.8,6.7h0c2.1,2.4,4.1,5.1,5.9,8,3.2,5.1,5.9,10.4,8.2,15.9,0,0,0,0,0,.1h0c.3.7.6,1.4.9,2.1,0,0,0,0,0,0h0c.6,1.6,1.2,3.1,1.8,4.7,0,.1,0,.3,0,.4h.1c1.2,3.4,2.2,6.8,3.1,10.4,6.8,27.5,6.4,60.7-6.8,86.6,0,0,0,0,0,0-1.5,2.7-2.9,5.1-4.6,7.6-2.4,3.5-5.2,6.7-8.4,9.5-4,3.6-7.2,5.2-12.1,7.2h0c-.6.3-1.1.5-1.7.8-14.6,4.3-28.8-3.3-38.5-13.7-5.4-5.9-10-12.5-13.6-19.7l-1.9-3.8c1-1.5,1.5-3.4,1.6-5.4.1-1.8.4-3.7.7-5.5l1.7-6.9c1.6,4.7,3.2,8.8,5.7,13.7,3.3,6.7,7.7,12.9,13,18.2,4.7,4.9,11,8.7,17.6,10.5,13.6,3.6,26.2-4.1,33.5-15.1,5.5-8.2,9.3-17.5,11.2-27.2,3.6-18.3,2.9-37.2-2.1-55.2-2.5-9-6.2-17.6-11.1-25.5-3.8-6.1-8.6-11.5-14.3-15.9-7.4-5.8-17.2-8.4-26.3-5.9.1-.3.3-.6.5-.9,1.7-3.2,3.7-6.6,6-9.7Zm23.6,7.9c-.6-.4-1.1-.8-1.7-1.2-5.2-3.4-11.4-6-17.4-7.4-1.2-.3-2.3-.5-3.5-.7.5-.7,1.1-1.3,1.6-1.9,7.5,1.6,14.2,5,19.9,10.2.4.3.7.6,1.1,1Zm-51.6-27.8c.6.2,1.3.3,1.9.5,4.6,1.3,12.2,5.3,16.6,8.1.6.4,4,2.6,5.3,3.8-2.1,2.7-4.1,5.6-5.8,8.6-2.2,3.7-4.1,7.6-5.7,11.6-2.6,6.9-4.9,13.9-6.9,21.1-2.7,9.5-5.4,20.2-7.5,29.9-4,18.4-7.9,39.3-10.9,57.8l-.7,4.2v.4c-3.5,0-6.9-.5-10.1-1.5-3.9-1.3-7.9-2.7-11.7-4.3l-.5-.2c0,0-.1,0-.2-.1v-.3c-.2-.2,0-1.3,0-1.7,2.8-32.7,12.3-82,24.4-113.8,1.5-3.9,3.2-7.7,5-11.4,2.2-4.5,3.7-7,6.3-11.3.2-.4.4-.8.7-1.1Zm28.1,17.3c-.3-.7-2.4-4.8-2.5-5,3.3-4.2,7.3-8.1,11.6-10.1,2-1,3.9-1.5,6.1-1.7,2.2,0,4.3.3,6.3,1.1,1.9.8,3.6,1.8,5.1,3.1,1.5,1.3,2.9,2.8,4.1,4.5,2,2.9,4.5,8.4,6,11.6,3.8,8.1,6,16.2,6.9,25.1,0,.2,0,.4,0,.6-1.1-5.2-2.4-10.4-4.1-15.4-2-6.6-5.4-13.6-10.6-18.4-2.8-2.6-6.3-4.8-10.2-5.3-5.7-1.2-11,2-15,5.8-1.3,1.2-2.5,2.4-3.6,3.8-.1.1-.2.3-.3.4Zm-3.4-6.1c0,0-.1,0-.2-.1-5-3.8-8.6-5.8-14-8.7-2.3-1.2-5.7-2.7-8.3-3.4l-1.5-.3c2.9-4.5,6.2-8.6,10.5-12.1,1.7-1.4,3.7-2.3,5.8-2.9,4-.9,9-.8,13.2.2,2.7.7,4.8,1.6,7.2,3,10.7,6.2,16.9,12.1,23.5,22.7,2.6,4.1,4.1,7.1,5.9,11.5,2.2,5.2,3.7,9.5,5.1,15,1.6,6.9,2.3,16.3,2.7,24.7,0-.2-.1-.3-.2-.5-.2-4.9-.6-9.8-1.2-14.7-.9-8.7-3.3-17.6-7.1-25.5l-2.8-5.8c-.9-1.9-2.1-4.2-3.4-6-3.7-5.3-10-9.7-16.7-9.3-2.2.1-4.7.9-6.7,1.9-2,.9-3.9,2.1-5.6,3.6-2.3,2-4.3,4.1-6.2,6.5,0,0-.1.1-.2.2Zm45.3-41.3c-.1,0-.3,0-.4,0-1.8-.3-2.1-.5-3.4-.9,0-.1,0-.3.1-.4,1.1.4,2.4.9,3.7,1.4Zm-9.7-74.2c-.2.7-.4,1.5-.5,2.3-.5,2.7-1.3,7.1-1.6,9.8l-1.6,14.1-1.8,17.8-2.5,22.9-1.6-.3s0,0,0,0c.8-9.6,3.4-30.2,5-42.8.7-5.3,2.6-18.6,3.9-22.5h0s.4-.5.8-1.2Zm86,88.9c1.9.1,3.9.3,5.8.5,15.5,1.9,17.3,2.2,29.1,3.8,2.7.4,5.4.9,8.1,1.6h0c.2.1.4.3.6.4l11.3,5.7c1.3.8,2.6,1.6,3.9,2.5-4.1-.6-8.2-.9-11.9-1.1-8.7-.4-17.4-.5-26.2-.2-2.3,0-4.7.2-7,.3,0-.1-.1-.2-.2-.3l-2.9-3.6c-1.3-1.6-3.6-3.9-5.2-5.3-2.8-2.6-3.7-3.3-5.6-4.4Zm12.5,15.1l-.5,2.7s0,0,0,0c-7.3,1.1-14.8,2.5-21.8,4.1-6.1,1.3-13.2,3.4-18.9,5.8-4.1,1.8-8.1,4.8-10.9,8.3-1.4,1.7-2.2,3.8-2.3,5.9-.2,1.9-.2,3.9-.2,5.8.2,9.2.6,18.4,1,27.6.2,8.3.7,16.6,1.4,24.9.3,4.4,1.5,9.4,3.5,13.5.8,1.6,2.3,3.3,3.8,4.3,1.3.9,3.1,1.8,4.7,2.2,5.5,1.7,12.2,3.2,17.9,4.1,5,.9,11.1,1.7,16.3,2.1,0,0,0,0,0,.1l.9,4.3s0,0,0,0c-12.7-.1-13.3-.3-26-.8-4.9-.2-8.5-.5-13.3-1.3-.9-.2-1.8-.5-2.7-.9-.7-.3-1.4-.8-1.9-1.5-1-1.3-1.7-2.7-2.1-4.3-.8-3.1-1.2-5.1-1.5-8.3-1.2-13-2.4-26-3.4-39-.8-8.2-1.6-16.3-2.3-24.5-.6-5.8-1.3-15.1,1.6-21,1.2-2.1,3.4-3.4,5.6-4.4,4.7-2.3,9.2-3.9,14.3-5,8.6-1.9,14.4-2.7,23.1-3.8,4.8-.6,9.3-1,13.7-1.3Zm-.5,4.2c0,.9.1,1.9.2,2.2.9,6,1.6,12.1,2,18.1.3,9.5.5,22-.1,31.7-.5,6.1-1.6,18.5-2.5,24.8-1.2,8.2-2.8,16.3-4.6,24.3l-.8,4.7c-11.3-1-22.7-2.8-33.6-6.2-1.5-.5-3-1.2-4.3-2.1-1.4-1-2.5-2.3-3.3-3.8-2-4.2-3-8.3-3.3-12.9-.7-8.3-1.2-16.6-1.4-24.9-.4-9.2-.8-18.4-1-27.6,0-2.2,0-3.5.2-5.7.1-1.9.8-3.6,2-5.1,2.8-3.4,6.3-6.1,10.3-7.9,6.4-2.7,11.9-4.3,18.7-5.8,8.2-1.8,12.4-2.7,20.7-4,.3,0,.6,0,.9-.1Zm-8.8,135.7l5.4-22.3s0,0,0,0c11,.1,22.1-.1,33.1-.7l4,.2-5.5,22.8c-1,0-1.7,0-1.9,0h-19.1c-5.3,0-10.7,0-16,0Zm5.5-23.8c0,0,0-.1,0-.2l-.8-4.1c5.7.4,11.4,1,17,1.7,4.4.6,8.7,1.3,13.1,2-9.7.4-19.5.6-29.2.5Zm-1.1-5.8l.8-4.6c2.7-11.7,4.9-24.2,5.9-36,1.1-10.6,1.7-18.2,1.6-28,0-13.9-.3-23.1-2.3-35.6,0-.7-.1-1.5-.2-2.2,4.3-.6,8.5-1,12.9-1.4l27.8-2.1v-.3c2.2.2,4.4.5,6.7.9,3.2,9.3,5.3,21,5.7,30.8h.2c-3.5,8-7,24.2-8.8,32.2l-4.2,19.6-7.6,31.8c-14.6-2.7-23.9-4.1-38.4-5.2Zm5.8-107.8l.5-2.7c10.8-.7,20.8-.7,32.1-.2l-19.8,1.5c-4.2.3-8.5.8-12.8,1.4Zm-79.2,138.7c5.6-.3,11.2-.4,16.8-.3,21.7.3,46.4.4,68.1.2h19.1c.7,0,1.4,0,2.2,0,2.8,3.4,4.6,5.4,8.4,7.9l.4.2c-10.6,1.6-50.8-.6-60.6-1.1-14.8-.8-33.3-1.3-48.4,1.4-2.2.4-6.1,1.3-8.9,1.9,1.2-3.4,2.2-6.8,3-10.3Zm-9-87.2c-1.9-4.1-4.1-8.2-6.5-12-3.7-5.9-8.4-11.5-13.6-16.1-5.6-5.1-12.4-8.7-19.8-10.3,1.7-1.7,3.5-3.3,5.5-4.6,1.5-1,3.2-1.7,5-2.1,2.6-.6,6.5.1,8.9,1.3,1.9,1,3.6,2.2,5.1,3.6,2.1,2,3.9,4.2,5.4,6.7,4.8,8.2,8.6,22.6,10,33.5ZM6.4,255.7l.4.3c1.4-1.6,2.3-3.5,2.6-5.6.3-2.7.4-7.9.2-10.6l-2.4-19c-.8-6.6-1.4-13.2-1.9-19.9,0,0,0,0-.3,0,0,0,0-.2,0-.3h0c0-.1,0-.2,0-.2-.2-3.8-.1-7.7,0-11.5h0s.2.1.2.1l1.4-2.5c.7-.8,2.5-1,3.7-.9,0,0,22.4.8,22.4.8,6.3.2,18.4.5,24.7.4h4.1c1.6-.1,3-.5,4-1.6,1.7-1.7,3.5-3.5,5.3-5.2,1.5-1.3,3.2-2.2,5.1-2.6,2.4-.4,4.2-.5,6.6-.4l135.1.9c16.5.1,32,.4,48.6.8l5.1.2c2.2,0,3.5,0,5.6.6,1.2.5,2,1,3.1,1.7,3.9,2.6,7.8,5.2,12.7,5.5,2.2.1,20.6.1,22.9.1,33.3-.7,28.5-.3,61.8-.4,6.4,0,9.1.2,15.4,1,2.4.3,4.4,1,6.3,2.5,2.1,1.8,3.9,3.9,5.3,6.2,2,3.4,3.8,6.9,5.2,10.6,2.2,5.5,5.6,16.5,7.1,22.4.6,2.5.9,5,.8,7.5,0,2.1-.5,4.3-1.3,6.3-.9,2.5-2,4.9-3.3,7.2l-3.8,7v.6c0,1.1,1.3,1.2,2,1.2l14.5-1.7c.3.3.7.5,1.1.7,2.4,1.1,9.3,3.5,11.9,4.3,2,.6,5.1,1.3,7.8,1.5-.8.3-1.6.5-2.4.6-5.5.8-9.9,1.1-15.4,1.2-10,.2-20,.3-30,.3-22.6,0-45.2.1-67.8,0-4.1.1-7.2,0-11.2-1.1-2.4-.7-9.8-2.8-12.2-3.3-3.2-.7-7.5-1.1-10.9-1l-67,.4c-22.1,0-39-.3-61.1-.9l-60.4-1.4-35.1-.5-14.3-.4c-2.2,0-5.1.1-7.3.4l-7.7,1.1c-1.6.3-4.5,1-6,1.4-2.3.6-4.7,1-7.2,1.3-8.1.5-16.3-.5-24.4-1.2-1.6-.1-2.9-.3-4.4-.8,1.2-1,3.5-3,4.7-4.3Zm-2.3-51.2c1.1,13.7,2.2,20.9,4,35.6.2,3.4.1,6.9-.2,10.3-.2,1.4-.7,2.7-1.4,3.8-2.5-8.1-4-16.2-4.5-24.7-.5-8.4.2-16.7,2.1-24.9Zm472.6.9c.6,0,1.2,0,1.7.2.5.1.9.4,1.2.7.6.8.8,2.1.6,3.1l-.3,1.3-1.8,1.8c-.2.1-.4.3-.6.4-.1,0-.2,0-.4,0-1.1-.4-2.9-1.3-3.7-2.3,0,0,0,0,0-.1.2-.5.4-.9.6-1.4.4-.6,1.4-2,2.7-3.7Zm5,3.3c0-.2,0-.4,0-.6,0-1.8-1.1-3.6-3-4-.3,0-.7-.1-1-.2,1.4-1.8,2.9-3.8,4.1-5.4.3.5.7.9,1.2,1.3.7.5,1.6.9,2.6.9.9,0,1.7,0,2.5-.3l-3.2,4.4-3.2,3.9Zm26-48.9l-9.3,4.7c-.2.1-.4.3-.6.4.3-1,.5-2,.7-2.6.2-.8.3-1.7.2-2.6v-3.6c0,0,.2-.6.2-.6v-.2c0,0,0,0,0,0,1.3.3,2.5.8,3.7,1.4l4.9,3c0,0,.2.1.2.2Zm-15.6,70.7c-1.2,1-1.7,2.6-1.4,4.1.2,2.2,1.4,4.2,2.9,5.9l4.8,5.5c4.5,4.7,8.9,9.6,13.2,14.6,2.2,2.9,4.9,6.9,6.1,10.5l1.2,4.2c.4,1.1,1.3,2.6,2.7,2.3,1.6-.4,2.5-1.2,3.5-2.3,5.7-6.2,9.6-18.7,11.3-26.2,1.1-4.7,1.5-8.2,1.9-13.2.1-1.2,0-2.8-.7-3.9-.5-.9-1.6-1.1-2.5-1.2l-7.9-.9c-.8,0-24.9-.7-25.6-.7-1.9,0-3.9,0-5.8,0-.6,0-1.2.1-1.8.3-.6.2-1.2.6-1.7,1Zm23.7,33.7c6.5-12.8,7.4-21.8,7.6-26.4l.7.3c1.2.6,2.5.6,3.6,0l5.1-2.8c1.2-.5,2.5-.9,3.9-1.2,0,.5.1.9,0,1.5-.5,8.3-2.2,16-4.8,23.8-1.1,3.2-2.4,6.2-4,9.2-1.1,2.1-2.5,4-4,5.8l-1,1c-.3.3-.7.6-1.1.7l-.6.2c-.3,0-.5-.2-.7-.5l-.4-.9-1.2-4.2c-.5-1.5-1.3-3.4-2.2-4.8-.3-.5-.6-1.1-1-1.7Zm6.2-26.9c-.1,2.6-.4,5.3-.9,7.9-.7,3.5-1.7,6.9-3,10.3-1,2.5-2,5-3.2,7.4-.7-1.1-1.5-2.2-2.2-3.1-3-3.7-9.9-11.2-13.2-14.6l-4.6-5.3c-.6-4.9-.6-5.6-.5-6,0-.1,0-.2.1-.3h0c.1-.1.6-.2.8-.2,6.3-.2,16.8,1,23.2,2.8l3.5,1.2Zm14.3-4.6c-1.4.3-3,.8-4.1,1.3l-5.1,2.8c-.4.2-.7.3-1.2.3-.5,0-.7-.2-1.2-.4,0,0-5.8-2-5.8-2-3.2-.9-6.5-1.5-9.8-1.9-3-.4-5.9-.7-8.9-.8-1.7-.1-5.2-.3-6.5.3-.7.7-.8,1.1-.8,2.1,0,.7.1,1.8.3,3-.1-.2-.3-.5-.4-.7-.4-.9-.8-2.7-.5-3.8.5-1.5,2.1-2.2,3.5-2.3,2.1,0,3.6,0,5.8,0,8.5.2,17,.4,25.6.7l7.6.9,1.4.3c0,0,.2.1.3.2Zm-27.6-60.2c-1.2,3.4-3.5,7.6-5.5,10.8l-4.9,7.6-4.7,6.8-3.6,4.6c-1.2,1.5-2.2,3.3-2.1,5.4,0,1.7,1.1,3.3,2.6,4.1.8.5,1.6.7,2.5.8,1.7.2,3.4.1,5.2-.1l33.6-4.6,1.2-.2c1.8-.4,2.8-1.9,2.7-3.5,0-1.5-.3-3.1-.7-4.6-.6-2.2-1.3-4.5-2.1-6.6-3-8.9-6.2-16.1-11.8-23.6l-4-5.1c-.9-1.1-2-2.2-3.1-3.1-.6-.5-1.6-.7-2.2,0l-.5.6c-.2.3-.5,1.1-.5,1.5l-.9,5.1-1.2,4.2Zm-1.2,6.3c1,1,1.9,2,2.8,3.1,1.5,1.9,2.7,4,3.7,6.2,1.4,3,2.6,6,3.7,9.1.6,2.1,1.2,4.1,1.7,6.3-.2,0-.4.2-.6.3-2.1.9-4.2,1.6-6.3,2.2-3.8,1-12.9,2.9-17.5,3.5-.4,0-.8,0-1.2-.1-.3,0-.6-.3-.8-.5l-1.9-1.9-1.1-1.6c.9-1.9,3.5-4.8,4.9-6.6,1.5-2.1,7.1-10.5,9.6-14.4,1.1-1.7,2.1-3.5,3.1-5.3Zm13.3,24.4c-1.7-7.1-5-16.3-9.4-22.1-1-1.3-2-2.5-3.2-3.6,1.5-2.9,2.4-5.6,3.1-8.9l.8-5c0-.4.2-.8.4-1.1l.3-.3s0,0,0,0c0,0,.1,0,.2,0,1.1.9,2.1,1.9,2.9,2.9l4,5.1c1.5,2,2.9,4.1,4.2,6.2,1.6,2.8,3,5.7,4.3,8.6,1.6,3.9,5.6,14,5.9,19.2,0,0,0,.2,0,.3l-1.5-.9c-.6-.3-1.8-.6-2.4-.7-2.1-.2-7,.1-9.1.3-.2,0-.3,0-.5,0Zm13,2.7s0,0,0,0c-.3.2-.5.3-.8.4l-23,3.2-11.9,1.6c-2.2.3-6.5.7-8-1.7-.3-.5-.5-1.1-.6-1.8,0-.2,0-.4,0-.6l.5.7,2,2c.7.7,2,1.1,3.1,1,1.6-.1,5.7-.9,7.3-1.2,4.4-.8,12.4-2.5,17-4.6,1.6-.7,8.6-.8,10.9-.7.6,0,1.2.3,1.8.5l1.7,1Zm-87-71c1.1-2.1,1.1-3.4-.3-5.3-2.6-3.4-8.1-8.7-11.4-11.5-4.1-3.5-8.4-6.9-14.1-7-5.8-.4-12.2-.6-18.1-.5-27,.8-53.9,2.1-80.8,3.9h-.1c-.5.1-.9.6-.8,1.1l.2.7h0c.6,1.5,1,3.1,1.2,4.7.3,2.6.3,5.3-.2,7.9-.5,2.6-1.3,5.2-2.4,7.6l-3.9,8.9c-1.2,2.5-2.4,4.9-3.8,7.3l-2,3.3,3.7-.2,40.3-3,34.9-2.4c7.2-.6,22.7-2.1,29.8-2.9,4.7-.5,9.4-1,14-1.7,1.6-.2,3.1-.6,4.5-1.2l2.3-1.2c1-.6,3-2.7,3.8-3.5,1.2-1.4,2.3-3.3,3.1-5Zm-9.8,8.4c-1.3.5-2.7.9-4.1,1-14.9,1.9-29,3.3-43.8,4.6l-61,4.3-15.1,1.1c1.7-2.7,3.1-5.5,4.4-8.4l3.9-8.9c2.8-6.4,4.1-14.4,1.4-21.1h.7c26.5-1.8,53-3,79.5-3.9,9.1-.2,8.8.1,17.9.5,2.4.1,4.3.5,6.5,1.7,4.8,2.9,9.8,7.3,13.8,11.6l4.2,4.7.6.8c.1.2.2.4.2.6-.1,2.1-2.1,5.2-3.5,7-1,1.2-2.2,2.3-3.4,3.3l-2.1,1.2Zm-105.4-17.4l-1.6-3.2-1.7-4.3c1.4,0,5.2-.1,5.4-.1v-1.4s-6,.1-6,.1c-.7,0-1.2.6-.9,1.4l2,4.9,1.8,3.5c0,.1-.2.3-.2.4l-1,3.8-.7,3.2-1.3,3.8s-.2,1.1-.2,1.1c0,.5,0,1,.1,1.5,0,.1,0,.3.1.4l-6.4,7.6c-.1.2-1.1,1.5-1.2,1.7-.2.5.2,1,.7,1.1.3,0,6.3-1,6.9-1.1l-.2-1.4-5.3.9.2-.2,6.3-7.5c1.3.5,3.1.3,4.2.3l4.5-.2c4.8-.3,31.8-2.5,34.3-2.7,3.5-.2,7.3-.7,9.7-3.5l.6-.8c.2-.3.3-.8.2-1.1-.1-.4-.8-1.3-1.1-1.7-1.5-1.7-3.1-3.2-4.9-4.7-1.8-1.6-4.2-2.1-6.6-2.1-5.5-.1-11.1,0-16.6,0-5.8,0-11.6,0-17.4,0-1,0-2,0-2.9.2-.2,0-.4,0-.6.1Zm-.2,2.1l3.6,2.9.9-1.1-3.3-2.6c.8-.2,1.9-.2,2.4-.2,5.8,0,11.6,0,17.4,0h0c6.5-.2,10.1-.2,16.6,0,1.1,0,2,.1,3,.3,1,.3,1.8.7,2.6,1.4,1.9,1.7,3,2.7,4.7,4.5.1.2.3.3.4.5l-3.5-.7-.3,1.4,3.6.8c-.7.8-1.5,1.4-2.6,1.8-1.8.6-3.3.8-5.2,1l-5.9.6-29.1,2.2c-.7,0-5.2.2-7,.2l3.9-2.6-.8-1.2-4.5,3c0-.2,0-.4,0-.6l.2-1,1.3-3.8h0c.4-2.1.9-4.2,1.4-6.2,0-.1,0-.2.1-.4Zm83.3,7.9c-.3-.6-.5-1.2-.7-1.8-.1-.5-.3-1.5-.2-2.1h0s13-.7,13-.7h4.5c.4-.2.9-.4,1.1-.9.2-.4,0-.9-.2-1.3l-.8-1-3.1-3-.5-.3h-6.4s-10.7,0-10.7,0h-.6c0,0,0,0,0,0-.4-.6-.7-1.2-.9-1.9,0-.3,0-.5.2-.7h.2c5.1,0,11.9-.3,17.3-.5v-1.4c0,0-13,.5-13,.5h-4.6c0,0-.8.3-.8.3-.5.6-.9,1.4-.6,2.3.2.8.9,2.8,2.2,3h.7c0,0,10.7,0,10.7,0h6s0,0,0,0c.5.4,2.6,2.7,3.4,3.5h-4c0,0-13.2.8-13.2.8-.4,0-.6.3-.9.5l-.2.5v.3c-.2,1.8.3,3.2,1,4.8l.5.5.8.2h.6s14.8-1,14.8-1c-1.1,1.2-3,3.2-3.1,3.2l1,1,4-4.2c.5-.6.3-1.1-.4-1.5h-.9c0,0-15.5.9-15.5.9-.4,0-.3,0-.6,0Zm-94.5,61.3c-.5.8-.7,1.8-.5,2.9.4,2.7,3.1,8.7,4.5,11.5,2.2,4.4,4.5,8.8,7,13.1,2.2,4,4.5,7.9,6.9,11.8,2,3.3,3.9,6.2,6.3,8.8l-4.1,1.4c-4.6,1.7-7.5,2.7-12.3,3.7-9.3,1.8-18.7,3.4-28,4.8,1.4-1.1,2.8-2.8,3.6-4.2,1.2-2.1,2.3-4.3,3.2-6.5l1-2.8c.4-1.1,0-2.2-.2-3.3-.5-2.2-1.7-6.5-2.4-8.7-2.4-7.7-4.8-12.9-9-19.7-2.5-4.7-6.1-7.7-11.1-8.7-3.2-.8-6.9-1.4-10.2-1.6-4.7-.3-10.7-.4-15.5-.3-27.6-.5-40.3-.8-64.7-1.4-12.5-.3-25.8-.4-38.2-.2l-79.4,1.3-3.9.2c-1.5,0-3.1.2-4.5.6-2.6.6-4.5,2.2-5.8,4.4-2.5,3.6-4.3,9.7-5.3,14.3-1,4.6-1.9,9.3-2.6,14-.9,3.5-.8,5.5.4,8.8l1.8,5.8c.4,1.3,1.5,4,2.2,5.2l.4.5c-1.7.4-3.4.7-5.2.8-2.9,0-5.8,0-8.7-.5-2-.3-4-.9-5.9-1.7l-3-1.5c.8-1,1.5-2.1,2-3.5.8-2.1,1.4-4.2,1.9-6.4.2-.7.4-1.4.6-2.1,1-4.2,2.2-9.7,2.9-13.9,1.5-7,2.7-14,3.7-21.1.3-1.7.4-3.6,0-5.2,2-1,4-1.9,6-2.8l6.7-2.6c.4-.2.8-.4.7-.9,0-.3-.3-.6-.5-.7l-1.9-.3-28.4-1.2c-6-.3-15-.5-20.7,0-2.3.2-3.9,1.3-4.2,3.7v2.4c-.3,9.3,2.4,29,4.3,40.3.6,5.4.4,6.1.4,11.5,0,1,.1,4.1.5,4.8l.3.4c.3.4,1.7.7,2.4.8,2,.4,6.4.8,8.5.9,2.6.2,5.2,0,7.8-.4,2.4-.4,4.5-1.3,6.1-2.7l3.4,1.8c1.7.8,4.4,1.6,6.3,1.9,2.5.4,6.4.6,8.9.5,1.9,0,4.2-.5,6.1-1,1.1.9,3.1,1.3,4.5,1.3l10.3.4,103,1.7,46.7.3c9.5,0,55.9,0,65.4-.4l3.9-.3c.2,0,.4,0,.6,0,6.7-.2,13.4-.2,20.1,0l32.8,1.5c9.1.4,32,.9,41.1.7l7.2-.3,3.7-.5c4.2-.7,7.9-4.3,9.8-8.1,1.4-3,2.4-6.3,2.9-9.6,1-6.2.7-11-.9-17.1-2.2-8.6-5.5-16.9-9.9-24.7-1.3-2.3-3-4.4-5.1-6.1-1-.9-2.3-1.5-3.6-1.8-2-.6-4.1-.8-6.2-.8-6.6-.2-13.3-.4-19.9-.4-11-.2-22.1-.2-33.1,0-14,.1-26.3.4-40.4.9l1.6,1.2c1.5,1.1,3.2,2,5.1,2.4,2.5.6,7.1,1.2,9.6,1.4,3.4.5,6.7,1,10.1,1.6ZM15.1,214c4.2.2,27.5.9,28.2,1v-1.4c.1,0-17.5-2.1-17.5-2.1-2.9-.3-4.8-.6-7.6-1.3l-.6-.3s0,0,0-.1v-.6c-.1,0-.1-.6-.1-.6,0-.9.2-4.5.9-5.1.2-.1.4-.2.7-.2l13.8-1.2c2.5-.2,5.6-.8,8-1.4h.8c.5-.1,1.4-.4,1.8-.6l.3-.3.2-.4v-.5c0,0-.5-.4-.5-.4l-.3-.2c-2.2-1-7-2.2-9.4-2.5-3-.4-9.2-.8-12.2-.8h-1.9c-.9.2-1.6.3-2.2.9-.7.6-1.4,1.3-2.1,2-1.1,1.2-1.8,2.8-2,4.5-.2,1.8-.2,3.6,0,5.4.5,5.9,4.6,38.9,5.7,40.3.7.3,4.3.7,5.2.8,2,.3,5,.2,7-.4,1.6-.5,3.8-1.7,5.7-2.8-.7,1-1.6,1.8-2.7,2.2-1.8.7-3.7,1.1-5.7,1.1-2.7,0-5.5,0-8.2-.2h-1.3c-.3-.2-.7-.3-.9-.5-.3-.2-.5-.5-.6-.9l-.5-1.4c-2.3-9.8-4.7-28.8-5.8-41l-.2-4.4.2-2.3c0-.8.4-1.5.8-2.1.3-.3.7-.5,1.1-.6l1.8-.3c7.3-.5,14.6-.8,21.8-.8h3.5c1.3.2,4.5.5,5.8,1.8.6.6.9,1.4,1,2.2.1,1.2,0,2.3-.1,3.5-.7,5.3-1.6,10.5-2.6,15.7-.8-1.4-1.6-1.7-3.9-1.7l-21,.2c-.6,0-2.9.1-3.8.3l-.3-2.5Zm14.5-13l-10.9.9c-1.1.1-2,.7-2.2,1.7-.4,1.6-.8,4.1-.6,5.7v.5c.1,0-1,1.5-1,1.5-.1-1.2-.4-3.8-.4-3.8-.2-1.8-.2-3.2,0-5,.3-.5.7-1,1.1-1.4l.3-.2c.5-.1,1.3-.2,1.9-.2,1.5,0,6.9,0,11.8.1Zm-12.7,10.2c.3.2.5.3.8.4,1.7.6,6.1,1.2,8,1.3h.4s-10.2-.3-10.2-.3c.3-.4.7-1,1-1.4Zm375.1.4c-.1,0-.2,0-.4.1-4.3.7-5.1.7-8.6,1-17.6,1-16.9.8-34.6,1.5l-14.4.7c-.5,0-1,.3-1.4.5v.4c-.1.3,0,.5.3.8h.4c0,0,30.6.7,30.6.7,7.6.1,20.8,0,27.9-.6.9,0,1.9-.2,2.7-.5.4.8.9,1.7,1.3,2.6-1.2-.2-2.4-.3-3.7-.4-9.4-.5-48.6-1.3-57.8-.9-2,0-3.4,1.3-3.9,3-3.8-7-7.2-14-9-18.8l-.5-1.9c-.1-.6,0-1.2.1-1.8.6-1,2-2.2,3.3-2.4,2.3-.3,4.2-.3,6.4-.4,16.9,0,40.7.4,57.7,1.2l5.7.5c1.2.1,2.5.8,3.3,1.7l1.4,1.8c1.8,2.9,3.5,5.9,4.8,9.1,1.8,4.3,3,7.9,4.3,12.4,1.9,6.8,2.5,13.7.8,20.6-.6,2.1-1.7,5.1-3,7.4.5-2.6,1-5.2,1.4-7.9,1.4-9,.2-18.1-3.3-26.4-1.9-4.8-4.4-9.4-7.5-13.5-1-1.4-2.6-2.8-4.2-3.5-1.7-.8-4-1.3-5.8-1.4-6.8-.7-13.6-1-20.4-.9-7.5-.1-15.1,0-22.6.3-3.7,0-8.1.5-11.7,1.5-1.3.4-2.7,1.2-3.8,2-.6.5-1,1-.2,1.6h.3c0,0,37.8.3,37.8.3,5.4,0,9.9.1,15.4.5.9,0,1.7.2,2.6.4,2.5.7,5.7,4.6,7.3,7,.3.5.7,1,1,1.6Zm1.9,3.3c-.7.2-1.4.3-2.1.4l-3.8.3c-8,.3-16,.4-24.1.3l-14.2-.3c9-.3,32-1.1,38.3-1.9l3.9-.6c.3,0,.6-.1.8-.3.4.7.8,1.4,1.1,2.1Zm2.1,27.1l-1.4,1.7h-7.3l-2.3-1.9h0l1.7-1.7h7.2l2.1,1.9h0Zm-23.7,0l-1.4,1.7h-4.4c-1.1-1.1-2.1-2.3-3.1-3.6h6.7l2.1,1.9h0Zm-.7,3.1l1.6-1.9h11.3l2.3,1.9-1.8,1.8h-11.3l-2-1.8Zm23.7,0l1.6-1.9h4.4c0,.4,0,.9,0,1.3,0,.8-.1,1.5-.2,2.3h-3.7l-2-1.8Zm6-4.5h-4.8l-1.9-1.8h.1l1.6-1.9h4.9c0,1.2.2,2.4.2,3.7Zm-15.3-1.8l-1.8,1.8h-11.3l-1.9-1.8h0l1.6-1.9h11.3l2.2,1.8Zm9.3-2.9l-1.3,1.6h-7.4l-2-1.7,1.6-1.6h7.3l1.9,1.7Zm-23.8,0l-1.3,1.6h-7.2l-2-1.7,1.6-1.6h7.1l1.9,1.7Zm29.4-1.2h-4.8l-2-1.8,1.6-1.9h4.6c.2.8.4,1.6.5,2.4,0,.4.1.8.2,1.3Zm-15.5-1.8l-1.8,1.8h-11.3l-2-1.8,1.5-1.8h11.3c0,0,2.3,1.8,2.3,1.8Zm-23.7,0l-1.7,1.7h-.6c-.8-1.2-1.5-2.4-2.3-3.6h2.4l2.2,1.8Zm33.2-3.3l-1.6,1.9h-7.4l-2.3-1.9h0s1.8-1.8,1.8-1.8h7.4c0,0,2,1.8,2,1.8h.1Zm-23.9.2l-1.5,1.8h-7.2l-2.2-1.8,1.7-1.7h7.3c0,0,2,1.8,2,1.8Zm28.4-1.6h-4l-2-1.9h0s1.5-1.8,1.5-1.8h3.4c.5,1.2.9,2.5,1.2,3.7Zm-14.8-1.6l-1.7,1.7h-11.2c0,0-2-1.8-2-1.8h-.1s1.5-1.7,1.5-1.7h11.3c0,0,2.3,1.8,2.3,1.8Zm-23.6.2l-1.6,1.7h-3.8c0,0,0-.2-.1-.2-.6-1.1-1.2-2.2-1.7-3.2h4.9c0,0,2.3,1.8,2.3,1.8h0Zm33.1-3.6l-1.6,1.9h-7.3c0,0-2.1-1.6-2.1-1.6l1.8-1.8h7.4c0,0,1.8,1.6,1.8,1.6Zm-23.7.2l-1.6,1.8h-7.2c0,0-2.1-1.6-2.1-1.6l1.8-1.8h7.3c0,0,1.8,1.6,1.8,1.6Zm26.9-1.5h-2.3l-2-1.9h-8.6c0,.1-1.9,2-1.9,2h-11.3c0,0-2-1.8-2-1.8h-8.5c0,.1-1.9,2-1.9,2h-6c0-.1-.1-.3-.2-.5l-.8-2.7c12,0,23.9.3,35.9.7l4.5.2c1.6,0,2.9.2,4.5.6.2.5.4,1,.6,1.5Zm-65.7.8c0,0,0,0,0,0,0-.6,0-1.1,0-1.7.2-.8.8-1.4,1.5-1.7.4-.2.7-.2,1.1-.3h4.8c3.7,0,7.4,0,11.1,0,1.2,4,1.9,6.5,4,9.9,2.5,4.4,5.3,8.6,8.5,12.6,2.2,2.8,4.7,5.4,7.4,7.6,1.1,1,2.6,1.7,4.1,2.1,3.5.8,14.3,1.4,21.6,1.6-5.3.2-10.7.4-16,.4-6.5,0-10.1-.2-16.5-.7-3.3-.2-6.1-.8-9.2-1.9-3.6-1.7-7.4-4.7-10-7.8-2.8-3.7-7.8-11.7-12.4-20.1Zm68.7,28.8c-1.4,0-2.9,0-4.3-.1l1.5-1.7h3.2c-.1.6-.2,1.2-.3,1.8Zm-13.7-.5c-2.7-.2-5.4-.3-8.2-.5-1.3-.1-2.7-.3-4-.6-.2,0-.3,0-.5-.1h11.1l1.6,1.3Zm-14.2-2c-.5-.3-1-.6-1.4-1-.6-.5-1.2-1-1.7-1.5h1.7l2.1,1.9-.6.7Zm13.2-.7l1.8-1.8h7.2l2.1,1.9-1.5,1.8h-7.3l-2.3-1.9Zm15.9,4.2c2.2-10.3,1.3-21.6-3.1-31.2-2.6-6.3-6.2-13.5-11.6-18.1-.8-.7-1.8-1.2-2.8-1.5-3-.8-14.4-1-18.3-1l-35.7-.2c.6-.4,1.2-.7,2-.9,4-1,7.2-1.4,11.3-1.5,7.5-.3,15.1-.4,22.6-.3,9.6,0,10.7.1,20.3.9,1.9.2,3.5.5,5.3,1.2,1.4.7,2.7,1.8,3.6,3.1,5.5,7.4,9.9,17.7,10.9,26.9.8,7.5-.6,14.9-2.2,22.2-.5,0-1.5.2-2.4.2Zm-56.2-6.1c.6.6,1.2,1.1,1.9,1.6,1.6,1.3,4.2,3.1,6.2,3.9,2.7,1.1,6.7,1.9,9.6,2.1,11.2,1,24.9.7,36.8,0l3.9-.3h.7c1.2-.4,2.3-2.4,2.8-3.6,2.9-5.5,4.1-11.2,3.9-17.2-.2-3.8-.8-7.6-1.8-11.3-1.7-6.6-5.2-16.1-9.3-21.9-1-1.5-1.9-2.6-3.5-3.4-1.1-.6-2.6-.8-3.8-.9-5.7-.6-25.1-1.1-32-1.2-8-.2-29.8-.6-36.1,0-.9,0-1.7.3-2.4.8-.4.2-.8.5-1.1.8-2.6-.5-9.2-1.6-11-1.8-3.2-.3-6.3-.8-9.4-1.4-.9-.2-1.7-.5-2.6-1,23.5-.7,45.5-.9,69-.7,6.6,0,13.3.2,19.9.4,2.2,0,3.7.2,5.8.8,3.2.9,6.1,4.3,7.8,7.3,5.2,9.4,10.3,22.2,11.1,32.5.3,7.5-1.4,18.9-8.4,23.5-1.1.7-2.3,1.2-3.6,1.4l-3.6.5-7.1.3c-13.7,0-27.3-.1-41-.7l-32.8-1.5c-2.1,0-4.5-.1-7-.1,6.7-1.1,13.4-2.3,19.8-3.5,4.3-.8,8.5-2.1,12.5-3.7l4.7-1.7Zm-75.7-32.2v-.2h-.4l-.2.2c-6.4-.2-12.7-.3-19-.3-27.4-.3-56.8-.3-84.2-.2l-89.6.5-5.6.3c-.7,0-1.2.2-1.7.6-.8.6-1.1,1.5-1.3,2.4-.3,1.3-1.8,14-1.6,16.3.1,1.1,1.6,4.2,2.2,5.3,1.7,3.1,3.5,6.2,5.5,9.2.8,1.3,1.9,2,3.3,2.4,1.2.3,2.6.5,3.8.6l8,.5c31.6,1.7,78.3,3.2,110.1,3.3h54.3c11.5.2,29.2,0,40.2-.7,1.6,0,3.5-.5,5-1.3.9-.5,2.1-1.2,3.2-1.9-1.8,2.6-2.9,3.2-3.3,3.4-1.1.6-2.2.9-3.4,1h-.1s0,0-.1,0h0s-4.1.3-4.1.3c-23.2.4-42.1.5-65.4.4-31.4,0-43.5-.2-61.1-.5v-.3s-67.9-3.1-67.9-3.1c-10.4-.4-13.7-.5-24.1-1.5-1,0-1.8-.3-2.8-.6-.7-.3-1.2-.8-1.6-1.4-3.4-5.3-4.2-7.1-7-12.7-.3-.5-.4-1-.5-1.6l.2-1.8,1.7-10.3c.8-5.3,1.1-6.4,2.3-11.7.4-1.9.9-2.8,2-4.5.6-.9,1.1-1.5,2.1-1.9,1.7-.7,3.5-1.1,5.4-1.2,14.9-.9,95.7-.8,115.3-.7,19.1.1,61.3.6,84,1.6l6.3.5c1.9.2,3.8.6,5.6,1.2,2.1.8,4,2.1,5.4,3.8,1.5,1.8,2.9,3.8,4.2,5.8-8.3-.5-16.7-.8-25.2-1Zm-2,1.4l-.4.5h-8.2c0,0-1-.7-1-.7,3.3,0,6.5.1,9.7.2Zm-26.1-.4l-1,1.1h-8.1c0,0-1.6-1.2-1.6-1.2,3.6,0,7.2,0,10.8,0Zm-25.9-.2l-1.4,1.6h-8c0,0-2.1-1.6-2.1-1.6,3.9,0,7.7,0,11.6,0Zm-25.6,0c-.7.6-1.2,1.2-1.8,1.8h-7.8c0,0-2.3-1.8-2.3-1.8,4,0,7.9,0,11.9,0Zm-25.3,0l-1.8,2h-7.8c0,0-2.4-1.9-2.4-1.9h12Zm-18.1,0h-6.9c0,0-1.8,2.1-1.8,2.1h-7.5c0,0-2.4-1.8-2.4-1.8h-12.9c0,.1-1.7,2.1-1.7,2.1h-7.4c0,0-2.4-1.8-2.4-1.8h-12.7c0,.1-1.7,2.1-1.7,2.1h-7.3c0,0-2.3-1.8-2.3-1.8h-9.8c.1,0,.2,0,.3,0,.8-.1,5.1-.4,6.2-.4l70.4-.4Zm-77.6,2.4h10c0,0,2.3,1.8,2.3,1.8h.1s-1.9,1.9-1.9,1.9h-11.2c0-.4.1-1,.2-1.5l.3-2v-.2Zm20.9,1.7l1.7-2h11.5c0,0,2.4,1.8,2.4,1.8h0c-.7.7-1.3,1.2-1.9,2h-11.5c0,0-2-1.8-2-1.8h-.2Zm24.2-.3l1.7-2h11.7c0,0,2.4,1.8,2.4,1.8h8.7c0-.1,1.8-2.1,1.8-2.1h11.9c0,0,2.4,1.9,2.4,1.9h9c0-.1,1.8-2.1,1.8-2.1h12.1c0,0,2.4,1.9,2.4,1.9h9c.6-.9,1.2-1.5,1.8-2.1h12.4c0,0,2.5,1.9,2.5,1.9h9.2c0-.1,1.9-2.2,1.9-2.2h12.6c0,0,2.5,1.9,2.5,1.9h9.3c0-.1,1.9-2.2,1.9-2.2h12.8c0,0,2.6,1.9,2.6,1.9h9.4c0-.1,1.8-2,1.8-2,4.6.1,9.2.3,13.8.4l1.8,1.5-2.1,2h-13c0,0-2.2-1.9-2.2-1.9h-9.5c0,.1-2.2,2.2-2.2,2.2h-12.8c0,0-2.2-1.9-2.2-1.9h-9.4c0,.1-2.2,2.1-2.2,2.1h-12.6c0,0-2.1-1.9-2.1-1.9h-9.3c0,.1-2.1,2.1-2.1,2.1h-12.3c0,0-2.1-1.9-2.1-1.9h-9.1c0,.1-2,2.1-2,2.1h-12.2c0,0-2.1-1.9-2.1-1.9h-9c0,.1-2,2.1-2,2.1h-11.9c0,0-2.1-1.9-2.1-1.9h-8.8c0,.1-2,2.1-2,2.1h-11.7c0,0-2.1-1.9-2.1-1.9h0Zm19.3,33.1h0s7.5,0,7.5,0l.3.3c-2.6,0-5.3-.2-7.9-.3Zm10.1.3l-1.9-1.8h0l1.7-1.9h11.9l1.9,1.6v.5h.3l-1.8,1.8h-5.2c-1.7,0-3.3,0-5,0-.6,0-1.3,0-1.9,0Zm-10.7-1.8l-1.4,1.4c-4.4-.2-8.8-.3-13.1-.5h0s-1.1-1-1.1-1h0l1.5-1.8h11.7l2.3,1.9h.1Zm49.1,2.7l1.3-1.3h7.8l1.6,1.4c-3.6,0-7.1,0-10.7-.1Zm25.4.2l1.6-1.5h7.9l1.6,1.5h-11.2Zm25.9,0l1.7-1.5h8.2l1.8,1.5h-11.6Zm26.4,0l1.7-1.6h8.2l1.7,1.5c-3.8,0-7.6,0-11.6,0Zm27.3-.4l1.4-1.2h8.5c-1.1.5-2.2.7-3.4.8l-5.6.4c-.3,0-.6,0-.9,0Zm11.3-1.8l-.7-.6,1.8-2h3.1c-1.4.9-2.8,1.8-4.2,2.6Zm-10.7-.7l-2.1,1.8h-13.1l-2.1-1.9,1.8-1.9h13l2.3,2Zm-26.8,0l-2,1.8h-12.8l-2.2-1.9,1.8-1.9h12.7l2.4,1.9Zm-26.5,0l-2,1.8h-12.5l-2.1-1.9,1.7-1.9h12.5l2.4,1.9Zm-26,0l-2,1.8h-12.3l-2-1.8,1.7-1.9h12.2l2.4,1.9Zm-25.7,0l-1.9,1.9h-12.1l-2.1-1.9,1.7-1.9h12.1l2.2,1.9Zm-25.2,2.1l.7-.7h7.8l1,.9c-3.2,0-6.4-.1-9.6-.2Zm60.5-11.7l-1.6,1.8h-8l-2.2-1.9,1.9-1.7h8l2,1.8Zm-25.8.1l-1.4,1.7h-7.9l-2.2-1.9,1.7-1.7h7.8l2.1,1.9Zm-25.3,0l-1.4,1.7h-7.6c-.9-.7-1.5-1.1-2.4-2l1.6-1.5h7.8l2,1.9Zm-24.8,0l-1.4,1.6h-7.6l-2.3-1.9h0l1.7-1.7h7.6l2,1.9Zm-24.4,0l-1.4,1.7h-7.4l-2.3-1.9h-.2l1.7-1.7h7.5l2,1.9h.2Zm-24,0l-1.4,1.7h-7.3l-2.3-1.9h-.2l1.7-1.7h7.2l2.1,1.9h.2Zm-21.7,1.2h10.2l2.1,1.8h0l-1.9,1.9h-8.1c-.7-1.1-1.5-2.4-2.3-3.7Zm20.8,1.9h.2l1.6-1.9h11.5l2.1,1.8h0l-1.9,1.9h-11.5l-1.9-1.8Zm24.1,0h.1l1.7-2h11.6l2.1,1.8-2,2h-11.6l-1.9-1.8Zm24.4,0h0l1.7-2h11.8c.6.5,1.2,1,1.8,1.5,0,.2-.2.4-.2.5.1,0,.3,0,.6,0l-1.8,1.8h-11.9l-2-1.9Zm24.9,0h0l1.7-2h12.1l2.3,1.9c-.7.6-1.4,1.2-2,1.9h-12.1l-1.9-1.8Zm25.3,0l1.7-1.9h12.3l2.3,1.9-2,1.8h-12.2l-2-1.8Zm25.6,0l1.7-1.9h12.6l2.3,1.9-2.1,1.9h-12.5l-2.1-1.9Zm26.2,0c.7-.7,1.3-1.2,1.9-1.9h12.7l2.3,1.9-2.2,1.9h-12.8l-2-1.8Zm26.6,0l1.8-1.9h13l2.3,1.9-2.1,1.9h-13.1l-2.1-1.8Zm27.3,0l1.8-2h7.1l-.6,1.7c-.3.8-.7,1.5-1,2.1h-5.3l-2.1-1.9Zm1-3.3l-1.8,2h-8.6l-2.2-1.8,2.2-2h8.5l2,1.8Zm-27.2,0l-1.8,1.9h-8.3l-2.2-1.8,2.1-1.9h8.3l2,1.8Zm-26.7,0c-.6.7-1,1.2-1.7,1.8h-8.3l-2.2-1.8,2-1.8h8.2l2,1.8Zm62.1-1.3h-7.3l-2.3-2,1.7-1.9h7c.2.9.5,1.8.7,2.7l.2,1.1Zm-19.6-1.8l-2,1.8h-13.1l-2.2-1.9,1.7-1.8h12.9l2.5,2Zm-26.9,0l-2,1.9h-12.7l-2.2-2h0l1.7-1.9h12.8l2.5,2h0Zm-26.5,0l-2,1.9h-12.6l-2.2-2,1.7-1.9h12.5l2.5,2h.1Zm-26.2,0l-2,1.9h-12.3l-2.1-1.9,1.7-1.9h12.2l2.5,2h0Zm-25.7,0l-1.9,1.9h-12.1l-2.1-2,1.7-1.9h12.1l2.3,2Zm-25.2,0l-1.8,1.8h-11.8l-2-1.9,1.7-1.9h11.8l1.9,1.6v.5h.3Zm-24.6-.2l-1.9,1.9h-11.7l-1.9-1.8,1.7-1.9h11.7l2.2,1.8Zm-24.4,0l-1.8,1.8h-11.5l-1.9-1.8h0l1.6-1.9h11.5l2.2,1.8Zm-23.9,0l-1.8,1.8h-11.2c-.5-.9-1-1.8-1.4-2.6l.8-1h11.3l2.3,1.9Zm211.7-20.6l.7-.7,2.8.2c.4.8.8,1.7,1.3,2.5h-2.4l-2.2-2h-.1Zm-214.5,5.1l1.6-1.6h7.4c0,0,1.7,1.5,1.7,1.5l-1.4,1.7h-7.3c0,0-2-1.5-2-1.5Zm24-.3c.5-.6,1-1.1,1.6-1.7h7.4c0,0,1.8,1.6,1.8,1.6l-1.3,1.6h-7.5c0,0-1.9-1.5-1.9-1.5Zm24.4-.3l1.6-1.6h7.6c0,0,1.8,1.6,1.8,1.6l-1.3,1.6h-7.6c0,0-2-1.6-2-1.6Zm24.8-.2l1.6-1.6h7.8c0,0,1.8,1.6,1.8,1.6l-1.3,1.6h-7.8c0,0-2-1.6-2-1.6Zm25.3-.2l1.6-1.6h7.9c0,0,1.8,1.6,1.8,1.6l-1.4,1.5h-7.8c0,0-2-1.6-2-1.6Zm25.6-.2l1.6-1.5h8.1c0,0,1.9,1.7,1.9,1.7l-1.4,1.5h-8c0,0-2.2-1.6-2.2-1.6Zm26.2-.2l1.6-1.5h8.2c0,0,1.9,1.6,1.9,1.6l-1.4,1.6h-8.1c0,0-2.2-1.7-2.2-1.7Zm26.6-.2l1.6-1.6h8.3c0,0,1.9,1.6,1.9,1.6l-1.4,1.5h-8.2c0,0-2.2-1.6-2.2-1.6Zm26.9-.3l1.6-1.5h8.6c0,0,2,1.7,2,1.7l-1.5,1.6h-8.4c0,0-2.3-1.7-2.3-1.7Zm-216.2,3.5l.2-.3h11.3c0,0,2.3,1.8,2.3,1.8l-1.8,1.8h-11.2c0,0-1-.8-1-.8,0-.8.2-1.6.2-2.5Zm22.4,1.3l1.6-1.9h11.5c0,0,2.3,1.8,2.3,1.8h0s-1.9,1.9-1.9,1.9h-11.5c0,0-2-1.8-2-1.8h0Zm24.1-.2l1.7-2h11.7c0,0,2.4,1.9,2.4,1.9l-2,2h-11.6c0,0-2.1-1.9-2.1-1.9h0Zm24.6-.2l1.7-2h11.9c0,0,2.4,1.9,2.4,1.9l-2,2h-11.9c0,0-2-1.9-2-1.9h0Zm25-.2h0s1.7-2,1.7-2h12.2c0,0,2.4,1.9,2.4,1.9h0s-2,2-2,2h-12.1c0,0-2.1-1.9-2.1-1.9Zm25.3-.2l1.9-2h12.3c0,0,2.5,1.9,2.5,1.9h0s-2.1,2-2.1,2h-12.3c0,0-2.1-1.9-2.1-1.9h0Zm25.9-.2l1.9-2h12.6c0,0,2.5,1.9,2.5,1.9h0s-2.2,2-2.2,2h-12.5c0,0-2.2-1.9-2.2-1.9Zm26.3-.2h0l1.9-2.1h12.8c0,0,2.5,1.9,2.5,1.9h0s-2.2,2.1-2.2,2.1h-12.8c0,0-2.2-1.9-2.2-1.9Zm26.7-.3l2-2.1h13c0,0,2.4,1.9,2.4,1.9-.7.8-1.4,1.4-2.1,2.1h-13.1c0,0-2.2-1.9-2.2-1.9h0Zm27.3-.3l1.9-2h3c.6,1.3,1.1,2.7,1.6,4.1h-4.2l-2.3-2.1Zm-228,4.7l.6.5-.7.8c0-.4,0-.9,0-1.3Zm13.1.3l1.8-1.8h7.4c0,0,2,1.8,2,1.8h.1s-1.6,1.9-1.6,1.9h-7.4l-2.3-1.9h0Zm23.9,0l1.9-1.9h7.5c0,0,2.1,1.9,2.1,1.9h0s-1.6,1.9-1.6,1.9h-7.5l-2.3-1.9h-.1Zm24.4-.2l1.9-1.9h7.7c0,0,2,1.9,2,1.9h0s-1.6,1.9-1.6,1.9h-7.6l-2.4-1.9h0Zm24.8-.2l1.9-1.9h7.8c0,0,2.1,1.9,2.1,1.9h13.3c0-.1,2-2.1,2-2.1h8c0,0,2.1,1.9,2.1,1.9h13.5c0-.1,2.1-2.1,2.1-2.1h8.1c0,0,2.2,1.9,2.2,1.9h13.7c0-.1,2.2-2.1,2.2-2.1h8.2c0,0,2.2,1.9,2.2,1.9h14c0-.1,2.2-2.2,2.2-2.2h8.4c0,0,2.2,1.9,2.2,1.9h14.1c.8-.8,1.5-1.4,2.3-2.2h8.6c0,0,2.3,2,2.3,2h5.3c0,.2.1.3.2.5h-5.3l-2,2.1h-8.5l-2.6-2h-14.2c0,.1-1.9,2.2-1.9,2.2h-8.4l-2.5-2h-13.9c0,.1-1.9,2.1-1.9,2.1h-8.2l-2.5-2h-13.7c0,.1-1.8,2.1-1.8,2.1h-8.1l-2.5-2h-13.5c0,.1-1.7,2.1-1.7,2.1h-7.9l-2.4-2h-13.3c0,.1-1.8,2.1-1.8,2.1h-7.7l-2.5-2.1h0Zm11.1,3.3l1.6-1.8h12.1c0,0,2.2,1.7,2.2,1.7l-1.9,1.8h-12.1l-1.9-1.8Zm25.3,0l1.6-1.9h12.3c0,0,2.3,1.8,2.3,1.8l-2.1,1.9h-12.2l-1.9-1.8Zm25.7,0l1.7-1.9h12.5c0,0,2.3,1.8,2.3,1.8l-2.1,1.9h-12.5c0,0-2-1.7-2-1.7Zm26.2-.1l1.8-1.9h12.7c0,0,2.3,1.7,2.3,1.7l-2,1.9h-12.8c0,0-2-1.7-2-1.7Zm26.8-.2l1.8-2h13c0,0,2.3,1.7,2.3,1.7l-2.2,2h-13c0,0-2-1.7-2-1.7Zm27.2-.2l1.9-2h5.2c.4,1.3.8,2.6,1.2,3.9h-6.3l-2.1-1.8Zm-228.4.6l1.2-1.5h11.3c0,0,2,1.6,2,1.6l-1.5,1.5h-11.3l-1.8-1.6Zm23.8,0l1.3-1.5h11.5c0,0,2,1.5,2,1.5l-1.5,1.6h-11.4l-1.8-1.6Zm24.1,0l1.4-1.6h11.6c0,0,2.2,1.6,2.2,1.6l-1.6,1.6h-11.7l-1.8-1.6Zm24.5-.1l1.4-1.7h11.9c0,0,1.9,1.5,1.9,1.5v.4l-1.6,1.6h-11.8l-1.9-1.8Zm-72.7,1.9l1.6,1.5h12.5l1.9-1.9h7.3l2.1,1.9h12.6l1.9-2h7.5l2.1,1.9h12.9l2-2h7.5l2.1,2h0l-1.7,2h-7.6l-2.3-1.9h-12.9l-1.7,2h-7.5l-2.3-1.9h-12.7l-1.6,1.9h-7.4l-2.3-1.9h-12.5l-.8,1c-.2-.5-.5-1.1-.6-1.6v-.5c-.1-.2,0-.3,0-.5Zm87,1.3l1.9-1.9c2.3,0,6.5,0,7.9,0l2.1,2h0l-1.8,2h-7.6l-2.5-2.1h0Zm25.2,0l2.1-2h7.8l2.2,2-1.8,2h-7.9l-2.3-2h0Zm25.5,0l2.2-2h8l2.2,2-1.8,2h-8.1l-2.5-2Zm18,0h8.1c0,0,2.2-2.1,2.2-2.1h8.1l2.2,2h14c0-.1,2.2-2.2,2.2-2.2h8.3l2.3,2h14c0-.1,2.3-2.2,2.3-2.2h8.5l2.4,2.1h7.2c0,0,0,.2,0,.3h-7.2l-1.9,2.1h-8.6l-2.6-2h-14.1l-1.9,2h-8.4l-2.5-2h-14l-1.8,2h-8.3l-2.5-2h-8.1Zm-114.7,16.1l-.3.3c-4.9-.2-9.8-.4-14.7-.7l1.3-1.6h11.4l2.3,1.9h0Zm190.1-3.2l-1.8,2h-8.5l-2.5-2.1h0l2.1-2h8.4l2.3,2.1Zm-27.1,0l-1.8,1.9h-8.3l-2.5-2h-.1l2.1-1.9h8.3l2.3,2h0Zm-26.6,0l-1.8,1.9h-8.2l-2.5-2h0l2-1.9h8.1l2.2,2h.1Zm-26.3,0l-1.7,1.9h-8l-2.5-2h0l2-1.9h7.9l2.2,2h0Zm-25.7,0l-1.7,1.9h-7.9l-2.4-2h0c.7-.7,1.2-1.3,1.9-1.9h7.9l2.2,2h0Zm-25.4,0l-1.7,1.9h-7.6l-2.4-2,1.7-1.7h7.8l2.1,1.9h0Zm-25,0l-1.6,1.7h-7.6l-2.2-1.8,1.8-1.8h7.5l2,1.9Zm-24.5,0l-1.6,1.9h-7.4l-2.2-1.8,1.8-1.8h7.4l2,1.8Zm-24,0l-1.5,1.8h-7.3l-2.3-1.9,1.8-1.8h7.2l2.1,1.9Zm-17.4,1.3h5.8l1.2,1-2.5-.2c-1.3,0-3.3-.3-4.5-.9Zm221.2-33.4c-.4,0-.7,0-1.1,0-1.5-2.4-3.1-4.6-4.9-6.8-3-3.6-7.5-5.2-12-5.5l-6.4-.5c-6.3-.4-25.3-.8-31.6-.9-50.2-1-103.9-1-154.8-.4-3.9,0-9.2.1-13,.4-1.7.1-4.2.6-5.8,1.4-1.1.5-2.1,1.5-2.7,2.5-1.1,1.5-1.8,3.2-2.2,4.9-1,3.9-1.7,7.8-2.3,11.8l-1.7,10.3c-.2,1.7-.2,2.8.5,4.2,2,4.4,4.4,8.8,7,12.9,1.2,1.8,3.4,2.6,5.4,2.7,8,.8,16.1,1.3,24.1,1.5l27.1,1.2c-15.9-.2-31.8-.4-47.7-.8l-9.4-.4c-1.3,0-2.3-.1-3.6-.5-.4-.1-.8-.4-1.1-.6-.4-.4-.7-.8-.9-1.2-1.8-3.4-3.6-9.7-4.7-14,0-1.9.1-2.9.5-4.7h0c.7-4.7,1.6-9.4,2.6-14,.7-3.3,1.6-6.4,2.8-9.5.8-1.9,2.7-5.4,4.5-6.9,2.9-2,7.8-1.9,11-2l79.4-1.3c28.9-.4,51.7.6,78.9,1.2l24,.4c5.1,0,10.3,0,15.4.3,3.8.2,6.2.7,10,1.6,2.3.5,4.2,1.4,6.1,2.8,1.8,1.6,2.9,3.1,4,5.2.9,1.6,1.9,3.1,2.7,4.7Zm-257.5,20.9l-1.9,1.8-11.5-.3-1.9-1.9,1.6-1.8,11.5.3,2.2,2Zm-19.8.8h3.8c0,0,2,2.1,2,2.1l-1.5,1.7-4.2-.2v-3.6Zm18.5,2.3l.9-.8c0,.2-.1.4-.2.6,0,0,0,0,0,0,0,0,0,.2,0,.3,0,.1,0,.2-.1.4l-.4-.4h0Zm1.8-4.5h0l-2.1-1.9,1.7-1.6h1.2c-.2,1.2-.5,2.4-.8,3.5Zm-15.1-2.1l-1.5,1.7h-3.8c0,0,0-3.6,0-3.6h3.5c0,0,1.9,2,1.9,2Zm14-2.8l-1.8,1.7-11.4-.3-1.9-1.9,1.5-1.8,11.5.3,2.1,1.9Zm2.5-1.3h-1.8c0,0-2.1-2-2.1-2l1.8-1.7h2.8c-.2,1.3-.5,2.5-.7,3.7Zm-16.9-2.2l-1.5,1.7h-3.5c0,0,0-3.7,0-3.7h3.2c0,0,1.8,2,1.8,2Zm14.1-2.9l-1.9,1.8-11.5-.3-1.8-1.9,1.6-1.7,11.5.3,2.1,1.9Zm4-1.2h-3.3c0,0-1.6-1.6-1.6-1.6h2s3.3-.1,3.3-.1c0,0,0,0,0,0-.1.6-.2,1.1-.3,1.7Zm-18.9-1.7l-1.1,1.2h-3.2c0,0-.2-1.2-.2-1.2h4.5Zm-8.7-2.3l2.4,1.6c.1.1.4,2,.5,2.4l.4,20-1.3-8.5-2-15.5Zm4.8,28.7v-3.9c0,0,4.1.2,4.1.2l2,2,7.5.2c-1.1.6-2.3,1.1-3.5,1.6-2.1.5-4.2.6-6.4.4l-3.7-.4Zm-1.2-27.9c0-.1-.2-.2-.3-.3l-1.7-1.1c5-.1,21-.3,22.8-.3.6,0,1.5.1,1.9.2,0,0,.2,0,.2.2.5.7.6.9.8,1.4-3.4.2-20.9,0-23.9,0Zm6,22.9l1.5-1.7,11.5.4.5.4c-.3.7-.5,1.4-.9,2-.6.4-1.1.8-1.7,1.1h0c0-.1-9.1-.4-9.1-.4l-1.8-1.8Zm-9.9-42.3c.7-1,1.6-1.8,2.6-2.7.2-.2.4-.3.6-.3,1-.2,1.7-.2,2.7-.2,4,0,8,.3,12,.8,2.7.4,5.4,1.1,8,2l-3,.3c-6.8,0-13.6,0-20.5-.1h0s-1.7.1-1.7.1h-.6Zm32-3.5c-.6-1.1-1.6-1.9-3-2.2-1.3-.4-2.6-.6-3.9-.7l-4-.2c-7.2,0-14.4.3-21.5.7h0c-2.7.3-4.7.7-5.3,3.8-.2.8-.3,1.6-.3,2.5,0,1.7,0,3.4.2,5.1.7,8.2,1.7,16.3,2.9,24.4.4,3.9,1.8,13.1,2.9,16.9.9,3.2,1.9,3.5,4.6,3.8,1.7.2,6.7.3,8.4.2,1.9,0,4.3-.5,6.1-1.2.5-.2,1-.5,1.5-.8-.7,1-1.3,1.3-1.4,1.4h0c-5.6,3.9-14.9,2.5-21,1.7l-1.3-.3c0,0-.1,0-.2,0,0-.1,0-.2-.1-.3-.2-1.3-.3-2.7-.3-4,.1-3,0-8.8-.4-11.7-1.4-8.7-2.6-17.5-3.6-26.3-.5-4.6-.8-9.2-.8-13.8v-2.3c.1,0,.4-1,.4-1,.1-.3.3-.5.5-.6.6-.4,1.4-.7,2.1-.8l3-.2c6,0,11.5,0,17.5.3l27.5,1.2-4.6,1.7c-1.6.6-4.2,1.9-6,2.8Zm616.1-62.6h0s1.8,5.8,1.8,5.8c.6,1.9,3,2.8,4.7,2.3.9-.2,1.6-1,1.7-1.9.2-1,.2-1.9.1-2.9,0-.7-.2-1.4-.4-2.1h0c0,0,.5-.1.5-.1,1.3-.5.6-2.2.4-3.1-.2-1.2-.7-2.9-1.3-4-.3-.5-.9-1-1.5-1.2-.5-.1-1.2-.2-1.7-.1l-4.1-.2c-.8,0-.7,0-1.3.1-1,.6-1.1,1.2-.9,2.3l.9,3,.5,1.6.4.5Zm6.5,1.2c.4,1.5.6,3.2.3,4.7,0,.4-.3.6-.7.7-.5.1-1.1.1-1.6,0-.4-.2-.8-.4-1.1-.7-.2-.2-1.1-3.2-1.7-5,1.5.2,3.2.4,4.8.3Zm-6.9-7.1c0,0,0-.1,0-.2.5-.1,5.2.2,6.2.2.2,0,.4.2.6.4.8,1.8,1,2.9,1.4,5,0,0,0,0,0,0-1.7.1-3.4,0-5-.2h-1c0-.1-.4-.3-.4-.3-.4-.2-.7-1.3-.9-1.8l-.9-2.9v-.5Zm-52.3,8c0,.8.1,1.7.3,2.5h0c.2.9.7,2.1,1.1,2.9.9,2.1,3.4,3,5.5,2.8,2.6-.2,3.8-2.8,3.7-5.1,0-1.2,0-2.3,0-3.5,0,0,0,0,0,0,.7-.4.7-1.5.6-2.2-.1-1.1-.5-3.7-.9-4.8-.6-1.6-1.8-1.9-3.4-1.9-1.8,0-4.7-.1-6.5.1-.8,0-1.8.5-2.2,1.3-.1.3-.2.7-.2,1l1.2,6.1.4.6.3.2Zm9.2,0c.1,1.7.2,4.4-.6,5.7-.4.6-1,1-1.7,1-1,0-1.9-.1-2.8-.5-1.1-.6-1.9-2.7-2.3-4-.1-.6-.2-1.3-.3-1.9,1.5,0,4-.2,4.9-.2h2.5c0-.1.2-.1.3-.1Zm-9.6-7.3s0,0,0,0c.3-.2.6-.3,1-.3,1.9-.2,6.2-.3,7.8.1.1,0,.2.1.3.2.1.2.2.3.3.5.4,1.4.7,2.9.9,4.4v.9c-.5.2-2.9.2-3.5.3l-5.4.2h0s-.1-.2-.1-.2c-.1-.3-1.1-5-1.1-6Zm74.5,144.9h0s0,0,0,0c.3,1.4.6,2.9,1,4.3.7,2.7,1.6,5.4,2.6,8,.9,2.1,2.2,4.6,4,6.2,1.9,1.8,4.7,1.5,6.3-.4.8-.9,1.6-1.9,2.1-3.1,1.1-2.2,2-4.6,2.6-7,1.3-4.7,2.2-9.5,2.7-14.4,1-8.9,1.5-17.9,1.3-26.9-.1-7.8-.7-15.6-1.7-23.3-.6-4.8-1.5-9.5-2.7-14.2-.7-2.7-1.6-5.4-2.6-8-.9-2.1-2.2-4.6-4-6.2-1.9-1.8-4.7-1.5-6.3.4-.8.9-1.6,1.9-2.1,3.1,0,.2-.2.4-.3.5,0,0,0,0-.1.1h0c-1,2.1-1.7,4.2-2.3,6.4-1.3,4.7-2.2,9.5-2.7,14.4-.1,1.2-.3,2.4-.4,3.5h0s0,0,0,0c-.4,4.2-.7,8.4-.8,12.6-.1.1-.3.3-.4.4.1,0,.2.1.4.2-.1,3.4-.1,6.8,0,10.2,0,3.8.2,7.6.5,11.5h0s0,0,0,0c.3,4,.7,7.9,1.2,11.9.4,3.3,1,6.6,1.7,9.9Zm1.5,0l.6-1.6c.2-.5.3-1.2.3-1.8,0-.2,0-.4,0-.5h0s.1,1,.1,1c.1.8,0,1.6-.2,2.4-.2.6-.4,1.3-.6,1.9-.1-.5-.2-.9-.3-1.4Zm.6-6.2c-.2-.4-.4-.8-.7-1.3l-1.7-2.9c0-.6-.2-1.1-.2-1.7,0,0,0,.2.2.2l3.7,5,3.6,5.4,2.7,4.6,1.1,2.6c.1.4.3.8.3,1.2-.1-.4-.2-.7-.4-1.1-1.2-2.6-4.6-8.5-6.2-10.9l-.7-1.1v-.2c0,0-.4-.2-.4-.2l-.7-.2-.3.3c0,0-.1.2-.2.3Zm-1.9-.5c.4.5.6.9.8,1.5,0,.6,0,1.6,0,2.4-.2-1.3-.5-2.6-.7-3.9Zm9.7-13.6c0,3,0,7-.3,10,0,.5-.1.9-.2,1.3l-8-10.1-3-3.3c0-.3,0-.6,0-.9,0-.2,0-.3.1-.5,1.7,0,3.5.3,5.2.8,1.3.4,1.9.7,3.1,1.3,1.1.6,2.1,1.1,3.1,1.4Zm.7,12.8c.2-.9.4-1.8.5-2.7.2-1.6.3-3.2.3-4.8,0-1.7,0-3.3,0-5,.9.2,1.8.2,2.9,0l2.6-.5h1c1.2-.1,1.8-.6,2.2-1.3.1,4.1-1.6,18-1.9,20.1-.5,2.5-1.1,4.9-1.7,7.3-.2-1.1-.4-2.2-.7-3.3-.4-1.8-1-3.5-2-5-.9-1.7-2-3.3-3.2-4.8Zm8.6-15.9l-.3.7c-.1.2-.3.4-.5.6-.5.3-1.2.2-1.8.3l-2.6.5c-1.1.1-2.2,0-3.2-.2-1.2-.4-2.3-.9-3.3-1.4-2.4-1.4-5.4-2.1-8.3-2.2.1-.1.3-.2.5-.2,4.5-.3,14.9,1,19.4,2.1Zm-15.9-39.9l-.3-2.6c-.2-1.4-.6-2.9-1.3-4.2.3-.6.7-1.3.9-1.9h0s.3-1.1.3-1.1v-3.3c1.1-.6,2.2-1.3,3.2-2.2h0c.7-.6,1.6-1.7,2.4-2.7v4.6c0,2.1-.8,4.2-1.7,6.1-1.4,2.8-2.5,5.1-3.7,7.3Zm-2.6-5.6c.4,1,.7,2.1.9,3.2v.2c-.2-.8-.6-1.6-1.1-2.2,0-.4.1-.7.2-1.1Zm-.6,3.3c.2.5.3,1,.3,1.6h0s.7,4.9.7,4.9c-.5.9-1.1,1.9-1.6,2.9-.2-.3-.3-.6-.5-.8.3-2.9.7-5.7,1.1-8.5Zm19.5,21.2c-2-2.2-5.4-2.6-8.2-2.8,0-1.2-.2-2.8-.3-3.6l-1.4-7.8h0c.3-.5.6-1.1.9-1.6,1.1-1.9,2.1-4,2.9-6.1.7-1.5,1.3-3.1,1.6-4.6,1,4.5,1.9,8.9,2.8,13.4.6,4.1,1.1,8.1,1.5,12.2h0c0,.4,0,.7.1,1Zm-8.5-1.4c1.2,0,2.5.2,3.7.4,1.1.2,2.2.6,3.1,1.3.5.4.9.9,1.2,1.4-.7.2-1.4.4-2,.5l-5.1.7-10.6.9c-.4,0-.9,0-1.3-.2-.7-.3-1.3-.7-2-1.1,0-.4,0-.8,0-1.2.9.3,1.8.6,2.5.7,1,.1,2.8-.1,3.8-.4,1.3-.3,2.6-.7,3.8-1.2.8-.3,1.6-.7,2.4-1.2.2-.1.4-.4.6-.6Zm8.3-11.7c0-.2,0-.3,0-.4-.3-1.6-3-14.5-3.4-16.1l-.3-1.1c-.1-.3-.3-.6-.7-.6-.3,0-.5.2-.8.4h0c0,.1,0,.2,0,.2v.2c0,0,0,.3,0,.3h0c0,.8,0,1.5-.1,2.2l.2-3.1c0-2.7-.7-4-2.6-5.7h-.1c-.4-.4-1-.3-1.2.2v-2.2c0-.4,0-.5-.2-.8l-.7-.4c-.8-.1-1.4,0-2,0,.5-.3,1-.6,1.6-.6.9,0,1.7.5,2.3,1.2,2.1,2.3,3.8,6.3,4.8,9.5,1.6,5.2,2.7,11,3.6,16.9Zm-9.7-4.3c-2,3.7-4.4,7.4-6.7,10.4-.7.9-1.4,1.8-2.1,2.6,1.6-2,5.4-7.8,6.3-9.1.7-1,1.6-2.4,2.5-3.9Zm-9.2,13.5c-.7.9-1.5,1.7-2.3,2.5,0-1.7.2-3.5.3-5.2.2.4.3.9.4,1.4v.8c.2.3.3.5.5.7.1.1.3.2.5.2.3,0,.5,0,.7-.3,0,0,0,0,0,0Zm-2.5,8.1c.5.3.9.5,1.4.7h0c.6.3,1.4.4,2,.3l10.7-.9,5.1-.7c.7-.1,2.3-.5,2.9-.8l.5-.4c.1-.2.2-.5.3-.8,0,1,.1,2,.2,3-.1-.5-.5-.8-1.1-.8l-2.5.7c-4.2.6-12.1,1-17,1-.8,0-1.6-.2-2.3-.4,0-.3,0-.6,0-.8Zm10.5-16.7l1.1,6.2c.2,1.2.3,2.4.3,3.6v.5c-.4.4-1.8,1-2.2,1.1-2.1.8-4.6,1.7-7,1.6-.6-.1-1.3-.3-1.9-.5,3.7-3.7,6.9-8,9.7-12.5Zm-.2-26.3c-.9,1.2-1.9,2.4-3,3.4-.6.5-1.3,1-2,1.4.3-.8.6-1.5.9-2.2l1.5-1.6c.3-.3.8-.6,1.2-.8.4-.1.8-.2,1.3-.2Zm3.8,53.9c.2-2.9.2-5.8-.2-8.7,0,0,.2,0,.2,0,1.3,0,4.4-.3,5.6-.5l1.9-.5v3.3s.2,8.1.2,8.1l-.7-.3c-.4-.2-1-.3-1.4-.3-.2,0-.6,0-1.2,0h0c-1.5-.5-2.9-.8-4.4-1.1Zm-1.6-8.6c.3,2.8.4,5.6.2,8.3-1.2-.2-2.5-.3-3.7-.3l-3.9-.5c-.6-.1-1.1-.3-1.5-.7-.8-.9-.4-4.3-.2-5,.2-.5.4-1,.6-1.5,2.4,0,6.1-.2,8.6-.4Zm-10.2.4c-.2.3-.3.7-.4,1.1-.2.7-.3,1.6-.3,2.3,0,.8,0,1.6.1,2.4.2,1.5,1.6,2.6,3.1,2.8h.3c-1.6,0-3.2,0-4.8-.1,0-1.5,0-3-.1-4.5,0-1.4,0-2.9,0-4.3.7.2,1.5.3,2.2.4Zm-1.6,17.2l1.7,1.9,8.8,11.2c3,3.9,4.4,6.2,5.2,9.6-.6-2-1.5-3.8-2.7-5.7-1.3-2.2-3-4.6-4.5-6.6l-5.1-6.4-.6-.6c-.4-.3-1-.4-1.3,0,0,.1-.6,2.4-.7,3.3-.3-2.3-.5-4.5-.7-6.8Zm17.1,29.4c.4.2.9,0,1.1-.3h0c-.8,2.3-1.7,4.8-3,6.7-.7,1.2-1.9,2.5-3.4,2.6-.9,0-1.7-.5-2.3-1.2-.1-.1-.3-.3-.4-.4l2.4.8h.6s.7-.3.7-.3l.2-.9v-.6s0-.3,0-.3c.2.2.5.2.8.1h.3c.3-.3,1.6-1.9,1.9-2.4.7-.7,1.1-1.7,1-2.8v-.9c0,0,0,0,0,0Zm5.4-32.8c-.7-1.2-2.4-1.5-4.1-1.9-.6-.1-8.3-1.1-10.5-1.3l-5.6-.3h-1.4c-.5.1-1,.4-1.3.7,0-.4,0-.8,0-1.2,5.6,0,4.7.2,11,.6h0c2.8,0,5.6.2,8.4.2.3,0,.7,0,1,.2l1.4.6c.6.2,1.1,0,1.2-.5,0,.9,0,1.9,0,2.8Zm-12.6,38.8l-2.1-.7h0c-.4-.6-.7-1.3-1.1-2,1.2.9,2.3,1.9,3.2,2.7Zm-6.1-11.5c2-4.8,1.8-6.4,1.7-6.8,1.9,3,3.6,6.2,5.2,9.4.5,1.2.7,2.3.7,3.6l.3,5.1-2.2-2.1c-1.7-1.5-2-1.6-3.8-2.7-.3-.9-.6-1.8-.9-2.6-.4-1.2-.7-2.5-1-3.7Zm11.8,7.5c-.1.3-.3.5-.5.7l-.9,1.2c0-1,0-2.6,0-2.8v-.2s0,0,0,0l1.5,1Zm-1.6-2.7v-1.7c-.1-.6-.3-1.4-.5-1.9l-1.1-2.6c-2.3-4.5-7.2-11.3-10.1-15.3,0,0,.2-1.1.3-2,.2.2.4.4.4.4,3.5,4.2,11.1,13.3,12.1,19.9l.7,4c0,0,0,.1,0,.2l-.9-.6-.8-.4Zm-13.8-63.1v.2c.5.7,1.2.9,1.7.3l2-2.8c1-1.5,3.6-5.9,4.4-7.6.4-.8,3.8-7.6,4-8.5l.3-3.6c.4,0,.8,0,1.2-.2,0,0,.1,0,.2,0,0,.4,0,.8,0,1.2l-.2,3.8-.3,1.5c-.4,1.4-1,2.7-1.6,4-2.5,4.8-6.7,11.1-10.3,16-.1-.6-.3-1.3-.6-1.9-.3-.6-.6-1.2-.9-1.8,0-.2,0-.5,0-.7Zm12.5-23.4v-1.3c.4.3.6.5.5.5.2.2.3.4.4.6-.3.1-.6.2-.9.2Zm9.8,38.7c0,1.9.1,3.9.2,5.7,0,2.1,0,4.1,0,6.2l-.2-8.5v-3.5Zm-296.9-104.7c-.2-5.8-4.9-12.2-11.4-11.4-2.7.3-5.1,1.8-6.6,4-1.6,2.3-2.4,5-2.3,7.8,0,5.4,3.8,11.5,9.8,11.8,2.9.2,5.7-1,7.6-3.3,2.2-2.5,3.2-5.7,3-9Zm-11.2-9.9c2.4-.2,4.8.7,6.5,2.4,2.1,2.1,3.1,4.7,3.3,7.6.2,3-.6,5.7-2.6,8-1.6,1.9-4,2.9-6.4,2.7-2.4-.2-4.5-1.4-6-3.3-3.1-4.1-3.3-9.8-.4-14.1,1.3-1.9,3.3-3.1,5.6-3.4Zm-23.6,6.7c2.7,1.9,3.9,3.2,6.2,5.6h0c.8.8,1.5,1.7,2.2,2.6,0,.2.1.3.1.5,0,.4-.5.8-.8,1.1l-1.1.7c-.7.4-1.2.8-.7,1.6.2.5,4.3,3.9,5,4.5l.9-1.1-4.4-3.8s0,0,0,0c.7-.4,1.5-1,2-1.6.6-.7.7-1.8.2-2.6-.5-.8-1.7-2.1-2.4-2.8-4.2-4.9-8-7.5-14.3-8.8-1.2-.3-2.4-.7-3.5-1.2-1-.6-1.8-1.3-2.7-2.1l-1,1c.9.9,1.9,1.6,2.9,2.3h0c1,.6,2.8,1.2,3.9,1.4,2.6.5,5.1,1.5,7.4,2.8Z" fill="#666" fill-rule="evenodd"/><path d="m59.5,121.9l.9-.2.5-.5.2-.6v-1.7c.1-.5-.3-.8-.7-.9l-1.2-.3-14-1.4-13.6-.9s-1,0-1,0c-.4,0-1,.2-1.4.4-.8.5-1.8,2-2.3,2.8-2.2,3.4-3.7,6.3-4.3,10-.4,1.7-.5,3.5-.4,5.3,0,1.5.3,3.3.8,4.7l2.7,6.7c.1.3.3.7.6,1,.9.8,7.7,1.5,9.3,1.6l24,2.4h2.2c.7,0,.9,0,1.5-.5l-.6-2.9c0-.3-.2-.5-.4-.7l-.4-.2-.8-.2-12.9-1.5c-6.3-.7-6.3-.9-12.6-2-2.1-.4-3.8-1.1-5.4-2.4-1.1-1.1-2-2.5-2.6-4-.7-2-1.3-5.2-.5-7.4.5-1.3,1-2.5,1.7-3.7.6-1,1.3-1.9,2.1-2.7l1.2-1c1.6-.2,17.4.6,20.3.8,7.8.3,6.6.1,6.9,0Zm2.9,11.7l-.2-3.7c-1.5,0-12.6-.5-14-.1l-.6.3c-.4.6-1.9,4.9-1.7,5.6.1.7.9,1,1.4,1.1,2.5.5,12.6.9,15.5.9l-.5-4Zm-28.5,2.5c.9,1.5,2.7,2.8,4.5,2.7,1.7,0,3.2-.9,4.2-2.3,1-1.4,1.6-3.1,1.5-4.8,0-1.5-.4-3.1-1.3-4.4-1.3-2.4-4.4-3.4-6.8-2.1-.7.4-1.4,1-1.8,1.6-1,1.4-1.6,3.1-1.5,4.8,0,1.6.4,3.1,1.3,4.4Zm378.2-23.3c-7.9,0-15.8,0-23.7.3-10.4.3-20.7.8-31.1,1.4-3.7.2-21,1.1-23.3,1.8-.7.2-1.3.6-1.2,1.4.1,1.3,1.4,3.6,2.8,3.7h2.9s15.7-.9,15.7-.9l46.2-2.2c6-.2,8.7-.1,14.6.1,3,.1,5.5.5,8.4,1.5,2,.8,3.4,1.9,5,3.3l5.1,4.7c1.9,1.6,2.8,2.8,3.3,5.1,0,.6-.9,1.8-1.3,2.2-1.3,1.2-3.3,3-5.1,3.6-1.4.4-2.4.5-3.8.6-12.3.9-24.6,1.7-36.9,2.2l-52,2.9c-1.9,0-5.9.4-7.8.8-1,.2-1.9.8-2.3,1.7l-1.1,2.2c-.1.3-.1.5-.1.8l.3.4.5.2h.4c0,0,4.7,0,4.7,0l61.3-3.9,23.2-1.4c4.3-.2,8.8-.7,13.1-1.3,2-.3,4-.9,5.8-1.9,1-.5,2.3-1.4,3-2.2.9-1,1.9-1.9,2.9-2.7h0c1.2-1.2,2.9-3.8,3-5.6l-.3-.7c-.7-1.2-5-5.3-6.4-6.5-2.4-2.2-5-4.5-7.5-6.6-1.6-1.3-3.7-2.7-5.7-3.5-3.2-1.4-8.8-1.7-12.7-1.6Zm-36.6,18.9c-3.9-3.8-3.6-3.2-4-3.3l-1.4-.2c-5.2-.5-26.5.3-32.7.6-2,0-3.2.5-3.7,2.4l-1.5,5.4c-.2,1,.3,1.7,1.4,1.7,9.3-.2,18.5-.7,27.7-1.4,3.3-.2,6.6-.5,9.8-1,1.6-.2,3.1-.7,4.6-1.4.6-.3,1.2-.7.9-1.4-.2-.4-.8-1.1-1.2-1.4Zm28-7.8c-1.3-1.4-3.3-2.3-5.2-2-1.9.3-3.6,1.3-4.6,2.9-1.1,1.6-1.7,3.5-1.6,5.5,0,2,.6,3.9,1.8,5.5,2.5,3.5,7.6,3.6,10.1.4,1.4-1.8,2.2-4,2.1-6.3,0-2.3-1-4.5-2.6-6.1Z" fill="#fff" fill-rule="evenodd"/></svg>