<?xml version="1.0" encoding="utf-8"?>
<!-- Generator: Adobe Illustrator 27.2.0, SVG Export Plug-In . SVG Version: 6.00 Build 0)  -->
<svg version="1.1" id="Layer_1" xmlns="http://www.w3.org/2000/svg" xmlns:xlink="http://www.w3.org/1999/xlink" x="0px" y="0px"
	 viewBox="0 0 1246.3 264.5" style="enable-background:new 0 0 1246.3 264.5;" xml:space="preserve">
<style type="text/css">
	.vinyl_x002D_imagination_x002D_blue{fill:#122CD0;}
	.vinyl_x002D_imagination_x002D_grey{fill:#B3B3B3;}
	.st0{fill:#122CD0;}
</style>
<path id="Car_Body" class="vinyl_x002D_imagination_x002D_grey" d="M900.5,93.2L900.5,93.2c0,0-0.1,0-0.1,0
	c-26.6-0.1-53.5,0.7-80.5,2.5c-1.5,0.1-2.9,0.2-4.3,0.3l0,0C745.7,56.1,672.8,22.2,600.6,9.1C404.3-26.6,180,49.8,7.9,117.3v32.4
	l12-28.8l0,0c132-26.2,293.6-54.3,409.4-14.6C389.7,83.1,303,67.7,243.7,69.9c104.8-48,253.6-61.8,330.6-47.8
	c67.8,12.3,133.1,35.5,191.5,77.8l0,0c-108.6,9.8-192.2,25.2-335.3,24.3c84.1,5.1,163.3,1.9,238.8-2.4c-162.4,26-328.3,53.3-460.2,7
	c207.7,78.3,445-8.5,687.9-15.5c73.1,1.6,144.5,8.7,213.9,34.9c29.9,11.3,45.9,24.7,60.4,35.6c11.2,8.4,50.7,9.3,69.9,0.9
	C1161.4,119.3,1035.6,93.8,900.5,93.2z"/>
<path id="Tail_Light" class="vinyl_x002D_imagination_x002D_grey" d="M8.3,174.7c16.2-16.2,37.8-26.9,60.7-32.5
	c-21.3-1.1-41.4,0.5-61.1,7.6C7,158.2,7,165.9,8.3,174.7z"/>
<g id="Window_Accents">
	<path class="vinyl_x002D_imagination_x002D_blue" d="M459,102.7c86.1,7.2,170,4.4,255-7.2c-82.3,4.4-167.8,5.9-248.1-0.9
		l-21.6-60.2l11.5,57.9l0,0c-52.8-21.5-94.3-26.6-141.9-29.5C362.3,68.8,408.2,78.8,459,102.7z"/>
</g>
<g id="Fender_Accent">
	<path class="vinyl_x002D_imagination_x002D_blue" d="M1100.4,167.3c0,0-117.3-64.7-386.4-16.4C714,150.9,930.5,120.8,1100.4,167.3z
		"/>
</g>
<g>
	<path class="st0" d="M22.9,229.9l64-46.3h22.7l-89.2,64H0l8.1-64.4h21.7L22.9,229.9z"/>
	<path class="st0" d="M79.6,247.1H59l32.8-43.2h20.9L79.6,247.1z"/>
	<path class="st0" d="M163.4,212.3h-17.6h-8.3l-2,2.9l-16.1,21l-8.3,11H90.1l7.1-8.9l20.2-26.6l5.8-7.6h16.9h35.4
		c16.4,0,24.7,2.8,25.1,8.4l-19.1,26.2l-6,8.6h-21.7l23.9-32c-0.3-1.9-2.2-2.9-5.5-2.9H163.4z"/>
	<path class="st0" d="M281,203.9h19.7l-5.3,8.4l-19.1,26l-6.6,8.6l-6.8,8.8c-4.5,5.9-11.4,8.8-20.7,8.8h-70.5l6.5-7.9h53.7
		c6.2-0.2,10.8-1.6,13.9-4.3l4-5.2l-38.2,0.1c-13.6,0-20.4-2.1-20.4-6.3c0-0.8,0.3-1.7,0.9-2.7l20.2-26.6l5.8-7.6h21.2l-8.8,11.2
		l-16.1,21c0.2,1.8,2.4,2.6,6.8,2.6l28.5,0.1l6.3-0.1l16.6-23.6L281,203.9z"/>
	<path class="st0" d="M300.7,247.1H280l46.1-60.4h20.2L300.7,247.1z"/>
	<path class="st0" d="M417.4,219.2l-12.7,16.5l-0.3,0.4c-0.2,0.3-0.3,0.7-0.3,1.2l-8.2,10.4h-22.2l9.6-12.6l30-39.6l9.6-12.2h22.2
		l-9.3,12.6L417.4,219.2z"/>
	<path class="st0" d="M465.6,217.3l3.8-5h-11.6l-2.3,2.9l-16.1,21l-8.3,11h-20.9l7.1-8.9l20.2-26.6l5.8-7.6H460h35.4
		c16.4,0,24.7,2.8,25.1,8.4l-19.1,26.2l-6,8.6h-21.7l23.9-32c-0.3-1.9-2.2-2.9-5.5-2.9h-4.8l-3.8,5l-21.7,29.8h-18.6L465.6,217.3z"
		/>
	<path class="st0" d="M583.2,221.1h4.5l4.8-6c-0.3-1.9-2.2-2.9-5.5-2.9h-8.6h-17.6h-12.6h-16.9l6-8.4H555h35.4
		c16.4,0,24.7,2.8,25.1,8.4l-19.1,26.2c-3.9,5.8-13.7,8.7-29.6,8.7h-35c-13.6,0-20.4-2.1-20.4-6.3c0-0.8,0.3-1.7,0.9-2.7l10.1-13.2
		c2-2.5,5.5-3.8,10.3-3.8h43.3H583.2z M582,229.7h-12.3h-30.2l-5,6.4c0.2,1.8,2.4,2.6,6.8,2.6l28.5,0.1c2.7-0.2,5-1.2,7.1-2.7
		L582,229.7z"/>
	<path class="st0" d="M710.4,212.3l-19.1,26l-6.6,8.6l-6.8,8.8c-4.5,5.9-11.4,8.8-20.7,8.8h-70.5l6.5-7.9h53.7
		c6.2-0.2,10.8-1.6,13.9-4.3l4-5.2l-38.2,0.1c-13.6,0-20.4-2.1-20.4-6.3c0-0.8,0.3-1.7,0.9-2.7l20.2-26.6c3-5.2,10.6-7.8,22.7-7.6
		h35.4C701.7,203.9,710.1,206.7,710.4,212.3z M673.4,212.3h-17.6c-4.5,0-8,1-10.3,2.9l-16.1,21c0.2,1.8,2.4,2.6,6.8,2.6l28.5,0.1
		l6.3-0.1l16.6-23.6c-0.3-1.9-2.2-2.9-5.5-2.9H673.4z"/>
	<path class="st0" d="M716,247.1h-20.7l32.8-43.2H749L716,247.1z"/>
	<path class="st0" d="M798.9,212.3h-17.6h-8.3l-2,2.9l-16.1,21l-8.3,11h-20.9l7.1-8.9l20.2-26.6l5.8-7.6h16.9h35.4
		c16.4,0,24.7,2.8,25.1,8.4l-19.1,26.2l-6,8.6H789l23.9-32c-0.3-1.9-2.2-2.9-5.5-2.9H798.9z"/>
	<path class="st0" d="M898.6,221.1h4.5l4.8-6c-0.3-1.9-2.2-2.9-5.5-2.9h-8.6h-17.6h-12.6h-16.9l6-8.4h17.6h35.4
		c16.4,0,24.7,2.8,25.1,8.4l-19.1,26.2c-3.9,5.8-13.7,8.7-29.6,8.7h-35c-13.6,0-20.4-2.1-20.4-6.3c0-0.8,0.3-1.7,0.9-2.7l10.1-13.2
		c2-2.5,5.5-3.8,10.3-3.8h43.3H898.6z M897.4,229.7H885h-30.2l-5,6.4c0.2,1.8,2.4,2.6,6.8,2.6l28.5,0.1c2.7-0.2,5-1.2,7.1-2.7
		L897.4,229.7z"/>
	<path class="st0" d="M988.8,212.3h-17.6h-7.6l-2.8,2.9l-16.1,21c0.2,2.1,2.4,3,6.8,2.9h21.2l-8.6,8.1h-22.4
		c-13.3,0-19.7-3-19.1-8.9l20.2-26.6l18.9-24.8h20.2l-12.6,17.2h31.6h31.1l-6,8.4h-20.7h-7.8H988.8z"/>
	<path class="st0" d="M1031.4,247.1h-20.7l32.8-43.2h20.9L1031.4,247.1z"/>
	<path class="st0" d="M1151.3,212.3l-19.1,26.2c-3.9,5.8-13.7,8.7-29.6,8.7h-35c-13.6,0-20.4-2.1-20.4-6.3c0-0.8,0.3-1.7,0.9-2.7
		l20.2-26.6c3-5.2,10.6-7.8,22.7-7.6h35.4C1142.6,203.9,1151,206.7,1151.3,212.3z M1114.3,212.3h-17.6c-4.5,0-8,1-10.3,2.9l-16.1,21
		c0.2,1.8,2.4,2.6,6.8,2.6l28.5,0.1c2.7-0.2,4.9-1.2,6.5-2.7l16.4-21c-0.3-1.9-2.2-2.9-5.5-2.9H1114.3z"/>
	<path class="st0" d="M1209.2,212.3h-17.6h-8.3l-2,2.9l-16.1,21l-8.3,11h-20.9l7.1-8.9l20.2-26.6l5.8-7.6h16.9h35.4
		c16.4,0,24.7,2.8,25.1,8.4l-19.1,26.2l-6,8.6h-21.7l23.9-32c-0.3-1.9-2.2-2.9-5.5-2.9H1209.2z"/>
</g>
</svg>
