<?xml version="1.0" encoding="UTF-8"?>
<svg id="Layer_2" data-name="Layer 2" xmlns="http://www.w3.org/2000/svg" xmlns:xlink="http://www.w3.org/1999/xlink" viewBox="0 0 1122 773">
  <defs>
    <style>
      .cls-1 {
        fill: #fff;
      }

      .cls-2 {
        fill: #1a1f71;
      }
    </style>
  </defs>
  <g id="payment_methods">
    <g id="visa">
      <g>
        <rect class="cls-1" x="75.31" y="75.28" width="940.72" height="592.13" rx="61.52" ry="61.52"/>
      </g>
      <path id="path4163" class="cls-2" d="m524.2,277.34l-40.32,188.5h-48.77l40.32-188.5h48.76Zm205.16,121.72l25.67-70.79,14.77,70.79s-40.44,0-40.44,0Zm54.43,66.78h45.09l-39.4-188.5h-41.6c-9.37,0-17.27,5.44-20.77,13.82l-73.18,174.68h51.21l10.17-28.15h62.56s5.91,28.15,5.91,28.15Zm-127.31-61.54c.22-49.75-68.77-52.5-68.31-74.73.15-6.76,6.59-13.95,20.68-15.79,6.99-.9,26.25-1.63,48.1,8.44l8.54-39.99c-11.73-4.24-26.83-8.33-45.61-8.33-48.21,0-82.13,25.61-82.4,62.31-.31,27.14,24.23,42.27,42.67,51.31,19.02,9.24,25.39,15.17,25.3,23.42-.13,12.65-15.17,18.24-29.16,18.46-24.54.38-38.75-6.63-50.09-11.91l-8.85,41.32c11.41,5.22,32.44,9.77,54.21,10,51.25,0,84.76-25.31,84.91-64.5m-201.97-126.96l-79.02,188.5h-51.54l-38.89-150.44c-2.36-9.25-4.41-12.65-11.58-16.56-11.73-6.37-31.09-12.33-48.11-16.03l1.15-5.47h82.98c10.57,0,20.08,7.03,22.5,19.21l20.54,109.09,50.73-128.3h51.23Z"/>
    </g>
  </g>
</svg>