<?xml version="1.0" encoding="utf-8"?>
<!-- Generator: Adobe Illustrator 27.9.1, SVG Export Plug-In . SVG Version: 6.00 Build 0)  -->
<svg version="1.1" xmlns="http://www.w3.org/2000/svg" xmlns:xlink="http://www.w3.org/1999/xlink" x="0px" y="0px"
	 viewBox="0 0 8558.9 3190.3" style="enable-background:new 0 0 8558.9 3190.3;" xml:space="preserve">
     $gradientDefs

<g>
	<path class="maincolor" d="M4063.2,1022.1c-118.2,37.2-211.5,87.3-288.7,144.8l-15.7-49l59.2-43.9h-73.2l-23.1-72.1l-22.2,72.1h-71.9
		l58.5,43.4l-21.8,70.5l58.5-43.3l41,30.4C3631.4,1277,3547,1401.1,3464,1518.8c-40.6,57.5-98.3,142.7-167.4,251
		c-14.2,6.3-24.2,17.6-39.1,24.5c-25.5,11.8-58.1,10.1-85.1,6.7c-88.7-11.4-177.4-12.3-266.4-7.3c-151.7,8.5-303.8,0.4-455.2-11.3
		c-138.1-10.6-285.8-40-422.3-4.8c-13.7,3.5-28.8,9.1-41.8,6.4c-38.9-8.2-78.3-11.4-117.5-16.6c-42-5.6-124.7,9.1-129.2-52.4
		c-1.8-24.6,7.8-56.9,15.9-79.9c18.4-52.3,18-125.3,0.8-178.2c-8.7-26.6-23.5-48.6-28.5-77.6c-5-29-4.6-58.8-4.7-88.2
		c-0.5-96.2,7.5-191,27-284.5c16-76.5,10.2-154.5,3.6-231.7c-3.3-38.7-7-77.4-7.8-116.2c-0.7-33.7-10.1-71.5-7-104.3
		c2.2-23.3,7.7-50.2-6.1-67.9c-0.6-0.8-1.3-1.5-1.9-2.3c-4-4.3-9.2-7.6-12.6-12.4c-12.5-17.5,12.6-71.3,17.5-89.5
		c11.6-43,29.7-59.8,53.1-94.1c10.7-15.6,23.7-28.1,38.1-39.8c6-4.8,21.2-12.4,32.5-20c8.9-6,20.4-6,29.1,0.5l19.6,14.6l-21.7,70.5
		l58.5-43.3l58.4,43.3l-22.4-70l59.2-43.9h-73.2l-23.1-72.1l-22.2,72.1h-22.7c-9,0-14.8-10.1-10.3-18.2c3.4-6.3,7-12.5,10.7-18.6
		c13.3-22.4,7.2-57,24.3-82.1c14.9-21.8,44.2-51.3,72.1-44.7c12.4,3,24,9.6,36.7,11.4c28.8,4.1,51.4-16.2,80.9-12.5
		c98.3,12.3,196.5,11,295.2,4.7c47.4-3,95.6-18.9,142.9-1.1c25.5,9.6,52,10.1,76.3,3.7c43.9-11.5,88-12.3,132.3-12
		c69,0.5,137-17.8,206.1-14.7c36.4,1.6,64.9,17.9,99.1,24.6c35.3,6.9,66.3-3.2,100.2,16.5c33.9,19.7,44.1,17,79.1,8.9
		c34.9-8.1,71.2,6.6,105.5-5.2c56.8-19.4,74.1-55.6,126.3-4.8c39.8,38.7,81.6,34.3,113.1-11.9c3.1-4.5,5.9-9.3,8.9-13.9
		c25.6-39.5,46.1-40.2,72.8-0.7c9,13.2,16.8,17.9,32.5,13.1c68.4-20.5,142.8-35,215.6-37.5c56.4-1.9,167.6-10.3,204.8,41.6
		c17.6,24.5-25.3,36.4-19.3,59.2c2.1,8.1,7.9,14.4,11.9,21.6c9.2,16.4,9,37,3.7,55.2c-12.8,43.6-29.1,67.9-28.9,116.5
		c0,8.6,0.7,17.9,6,24.5c13.6,17.1,45.9,11.9,27.3,48.5c-2,4-4.7,7.5-7.5,10.9c-44.9,52.7-19.5,103.9-17.8,162
		c1.3,43.7-9.7,65.5-50.3,78c-20.4,6.3-26.1,18.2-15.5,37.3c15,27.1,31.4,53.3,45.9,80.8c14.4,27.3-1.3,21.2-13.9,36.3
		c-22.2,26.7-35.9,59.5-47,93c-3.5,10.7-13.1,17.9-23.9,17.9h-48.8l-23.1-72.1l-22.2,72.1h-71.9l58.5,43.4l-21.7,70.5l58.4-43.3
		l58.5,43.3l-22.4-70l38.5-28.5c4-3,9.5,0.9,8.1,5.8l-0.9,3.5c-3.4,11.2-6.7,22.3-10.1,33.5c-10,31.6,9.7,26.3,31.9,27.7
		c10.1,0.7,64-3.3,52.3,20.5C4075,1004.3,4069.5,1013.5,4063.2,1022.1z M3887.3,587.6l-21.7,70.5l58.4-43.3l58.5,43.3l-22.4-70
		l59.2-43.9h-73.2l-23.1-72.1l-22.2,72.1h-71.9L3887.3,587.6z M4019.2,200h-73.2l-23.1-72.1l-22.2,72.1h-71.9l58.5,43.4l-21.7,70.5
		l58.4-43.3l58.5,43.3l-22.4-70L4019.2,200z M3818,730.2h-73.2l-23.1-72.1l-22.2,72.1h-71.9l58.5,43.4l-21.8,70.5l58.5-43.3
		l58.4,43.3l-22.4-70L3818,730.2z M3818,386h-73.2l-23.1-72.1l-22.2,72.1h-71.9l58.5,43.4l-21.8,70.5l58.5-43.3l58.4,43.3l-22.4-70
		L3818,386z M3616.9,1232.3h-73.2l-23.1-72.1l-22.2,72.1h-71.9l58.5,43.4l-21.7,70.5l58.4-43.3l58.5,43.3l-22.4-70L3616.9,1232.3z
		 M3616.9,888.1h-73.2l-23.1-72.1l-22.2,72.1h-71.9l58.5,43.4l-21.7,70.5l58.4-43.3l58.5,43.3l-22.4-70L3616.9,888.1z M3616.9,544.3
		h-73.2l-23.1-72.1l-22.2,72.1h-71.9l58.5,43.4l-21.7,70.5l58.4-43.3l58.5,43.3l-22.4-70L3616.9,544.3z M3616.9,200h-73.2
		l-23.1-72.1l-22.2,72.1h-71.9l58.5,43.4l-21.7,70.5l58.4-43.3l58.5,43.3l-22.4-70L3616.9,200z M3422.4,1418.3h-73.2l-23.1-72.1
		l-22.2,72.1H3232l58.5,43.4l-21.7,70.5l58.4-43.3l58.5,43.3l-22.4-70L3422.4,1418.3z M3422.4,1074h-73.2l-23.1-72.1l-22.2,72.1
		H3232l58.5,43.4l-21.7,70.5l58.4-43.3l58.5,43.3l-22.4-70L3422.4,1074z M3422.4,730.2h-73.2l-23.1-72.1l-22.2,72.1H3232l58.5,43.4
		l-21.7,70.5l58.4-43.3l58.5,43.3l-22.4-70L3422.4,730.2z M3422.4,386h-73.2l-23.1-72.1l-22.2,72.1H3232l58.5,43.4l-21.7,70.5
		l58.4-43.3l58.5,43.3l-22.4-70L3422.4,386z M3226.5,1576.1h-73.2l-23.1-72.1l-22.2,72.1h-71.9l58.5,43.4l-21.7,70.5l58.5-43.3
		l58.5,43.3l-22.4-70L3226.5,1576.1z M3226.5,1232.3h-73.2l-23.1-72.1l-22.2,72.1h-71.9l58.5,43.4l-21.7,70.5l58.5-43.3l58.5,43.3
		l-22.4-70L3226.5,1232.3z M3226.5,888.1h-73.2l-23.1-72.1l-22.2,72.1h-71.9l58.5,43.4l-21.7,70.5l58.5-43.3l58.5,43.3l-22.4-70
		L3226.5,888.1z M3226.5,544.3h-73.2l-23.1-72.1l-22.2,72.1h-71.9l58.5,43.4l-21.7,70.5l58.5-43.3l58.5,43.3l-22.4-70L3226.5,544.3z
		 M3226.5,200h-73.2l-23.1-72.1L3108,200h-71.9l58.5,43.4l-21.7,70.5l58.5-43.3l58.5,43.3l-22.4-70L3226.5,200z M3025.3,1418.3
		h-73.2l-23.1-72.1l-22.2,72.1H2835l58.5,43.4l-21.8,70.5l58.5-43.3l58.5,43.3l-22.4-70L3025.3,1418.3z M3025.3,1074h-73.2
		L2929,1002l-22.2,72.1H2835l58.5,43.4l-21.8,70.5l58.5-43.3l58.5,43.3l-22.4-70L3025.3,1074z M3025.3,730.2h-73.2l-23.1-72.1
		l-22.2,72.1H2835l58.5,43.4l-21.8,70.5l58.5-43.3l58.5,43.3l-22.4-70L3025.3,730.2z M3025.3,386h-73.2l-23.1-72.1l-22.2,72.1H2835
		l58.5,43.4l-21.8,70.5l58.5-43.3l58.5,43.3l-22.4-70L3025.3,386z M2828.6,1576.1h-73.2l-23.1-72.1l-22.2,72.1h-71.9l58.5,43.4
		l-21.7,70.5l58.4-43.3l58.5,43.3l-22.4-70L2828.6,1576.1z M2828.6,1232.3h-73.2l-23.1-72.1l-22.2,72.1h-71.9l58.5,43.4l-21.7,70.5
		l58.4-43.3l58.5,43.3l-22.4-70L2828.6,1232.3z M2828.6,888.1h-73.2l-23.1-72.1l-22.2,72.1h-71.9l58.5,43.4L2675,1002l58.4-43.3
		l58.5,43.3l-22.4-70L2828.6,888.1z M2828.6,544.3h-73.2l-23.1-72.1l-22.2,72.1h-71.9l58.5,43.4l-21.7,70.5l58.4-43.3l58.5,43.3
		l-22.4-70L2828.6,544.3z M2828.6,200h-73.2l-23.1-72.1l-22.2,72.1h-71.9l58.5,43.4l-21.7,70.5l58.4-43.3l58.5,43.3l-22.4-70
		L2828.6,200z M2627.5,1418.3h-73.2l-23.1-72.1l-22.2,72.1h-71.9l58.5,43.4l-21.7,70.5l58.5-43.3l58.4,43.3l-22.4-70L2627.5,1418.3z
		 M2627.5,1074h-73.2l-23.1-72.1L2509,1074h-71.9l58.5,43.4l-21.7,70.5l58.5-43.3l58.4,43.3l-22.4-70L2627.5,1074z M2627.5,730.2
		h-73.2l-23.1-72.1l-22.2,72.1h-71.9l58.5,43.4l-21.7,70.5l58.5-43.3l58.4,43.3l-22.4-70L2627.5,730.2z M2627.5,386h-73.2
		l-23.1-72.1L2509,386h-71.9l58.5,43.4l-21.7,70.5l58.5-43.3l58.4,43.3l-22.4-70L2627.5,386z M2440.5,200h-73.2l-23.1-72.1
		l-22.2,72.1h-71.9l58.5,43.4l-21.7,70.5l58.5-43.3l58.4,43.3l-22.4-70L2440.5,200z M2239.3,1418.3h-73.2l-23.1-72.1l-22.2,72.1
		h-71.9l58.5,43.4l-21.8,70.5l58.5-43.3l58.5,43.3l-22.4-70L2239.3,1418.3z M2239.3,1074h-73.2L2143,1002l-22.2,72.1h-71.9
		l58.5,43.4l-21.8,70.5l58.5-43.3l58.5,43.3l-22.4-70L2239.3,1074z M2239.3,730.2h-73.2l-23.1-72.1l-22.2,72.1h-71.9l58.5,43.4
		l-21.8,70.5l58.5-43.3l58.5,43.3l-22.4-70L2239.3,730.2z M2239.3,386h-73.2l-23.1-72.1l-22.2,72.1h-71.9l58.5,43.4l-21.8,70.5
		l58.5-43.3l58.5,43.3l-22.4-70L2239.3,386z M2040.4,1576.1h-73.2l-23.1-72.1l-22.2,72.1H1850l58.5,43.4l-21.7,70.5l58.5-43.3
		l58.4,43.3l-22.4-70L2040.4,1576.1z M2040.4,1232.3h-73.2l-23.1-72.1l-22.2,72.1H1850l58.5,43.4l-21.7,70.5l58.5-43.3l58.4,43.3
		l-22.4-70L2040.4,1232.3z M2040.4,888.1h-73.2l-23.1-72.1l-22.2,72.1H1850l58.5,43.4l-21.7,70.5l58.5-43.3l58.4,43.3l-22.4-70
		L2040.4,888.1z M2040.4,544.3h-73.2l-23.1-72.1l-22.2,72.1H1850l58.5,43.4l-21.7,70.5l58.5-43.3l58.4,43.3l-22.4-70L2040.4,544.3z
		 M2250.1,544.3l58.5,43.4l-21.7,70.5l58.5-43.3l58.4,43.3l-22.4-70l59.2-43.9h-73.2l-23.1-72.1l-22.2,72.1H2250.1z M2250.1,888.1
		l58.5,43.4l-21.7,70.5l58.5-43.3l58.4,43.3l-22.4-70l59.2-43.9h-73.2l-23.1-72.1l-22.2,72.1H2250.1z M2250.1,1232.3l58.5,43.4
		l-21.7,70.5l58.5-43.3l58.4,43.3l-22.4-70l59.2-43.9h-73.2l-23.1-72.1l-22.2,72.1H2250.1z M2308.6,1619.5l-21.7,70.5l58.5-43.3
		l58.4,43.3l-22.4-70l59.2-43.9h-73.2l-23.1-72.1l-22.2,72.1h-71.9L2308.6,1619.5z"/>
	<path class="maincolor" d="M1055.8,1722.8c1.6-16.5,2.8-34.1,3.6-52.9c2.2-53.7,4.4-114,6.5-176.7c17.4-2,33.6-3.5,51.9,0.9
		c20.8,5.1,35.7,13.4,57.7,5.8c23.5-8.1,48.2-11.5,72.7-14.8c58.6-7.9,115-15.6,172.3-18.8c24.4-1.4,48.9-1.9,73.8-1.3
		c44.1,1.1,56,20.1,37.3,60.4c-12.9,27.9-3.6,53.9,22.9,64.2c12.4,4.8,22.3,13.5,25.1,26.6c4.5,20.6-22.2,28-32.3,40.6
		c-12.3,15.3-15.8,34-16.3,53.7c-0.2,8.7-0.2,17.8-4.1,25.5c-8.4,16.6-30.2,19-48,16.3c-64.3-9.7-135.5,0.5-201.1,0.9
		c-57.6,0.3-104.3-0.6-160-18.3C1098.1,1728.6,1077.3,1724.9,1055.8,1722.8z"/>
	<path class="maincolor" d="M1073.1,1250.6c2.6-96.3,4.8-184.7,6.4-248.9c39.3,0,78.6-0.2,117.6-0.5c105.1-1,212.9-12,316.6,10.9
		c19.4,4.3,28.9,15,34.2,33.5c9.4,32.7,9,65.9,7.5,99.5c-0.4,9.7-2.8,19.5,5.4,28.7c25.3,28.1,22.2,44.9-10.8,62.1
		c-88.7,46.3-181.7,4.7-273.8,21.4c-34,6.2-65.1,10.3-100.9,4.4C1141.4,1256.2,1107.3,1252.8,1073.1,1250.6z"/>
	<path class="maincolor" d="M1048.9,734.6c-12.2-25-26.7-44-41.6-57.9c-30.6-28.5-84.8-63.9-302.9-75.3c-90.5-4.7-505.1-10.9-669.6-32.7
		c-19-2.5-33.5-21.4-33.9-40.5c-0.4-23.1-0.7-46-0.8-68.8c17.7,2.3,34.7,4.7,50.7,6.5c125.8,14.8,259.4,2.4,386.4,1.7
		c52.4-0.3,106.6-8.1,158.7-5.8c50.8,2.3,102.8,16.6,153.6,22.3c132.1,15,265.5,17.3,398,6.7c66.5-5.3,131.7-17.5,197.8-25.3
		c57.2-6.8,118,0.6,176.3,1c46.2,0.3,66.2,31.6,57.3,79.3c-4.5,24-6,47.6-4.1,71.9c1.8,22,4.9,47.5,0.9,69.3
		c-2.7,14.8-10.4,29.3-23.2,36.4c-10.3,5.7-22.5,5.8-34.1,6.1c-48.6,1.1-96.9,12.4-145.3,11.5c-51.6-1.1-103.3-5.6-154.7-3.6
		C1163,739.6,1105.2,735.1,1048.9,734.6z"/>
	<path class="maincolor" d="M0.6,345.2c1.2-77,4.1-148.3,8-208.2c58.7,0,123.1-20.2,180.7-29.8c39.1-6.6,72.6-18.7,109.9-29.3
		c43.4-12.3,91.9-1.9,136.4-1.9c21.5,0.3,43.3,1.7,62.1,13c35.9,21.6,76.7,24.9,116.6,15.3c41.2-9.9,68.3-5.7,110.8-5
		c29.1,0.5,56.7-12.1,84.1-22.1c86.4-31.5,163-21.8,251.4-23.6c92-1.9,183.5-7.2,276.1-3.8c78.4,2.9,155.4,6.4,232.5-11.2
		c23.9-5.5,47.9,0.7,70.5,10.3c47.7,20.3,61.1,52.5,56.6,105.8c-4,47.5-50.9,110.9-90,133.2c-14.2,8.1-29.8,13-45.4,17.2
		c-122.1,32.7-259,22.9-383.5,12.1c-73.1-6.3-134.7-18.4-208.2-10c-191.1,21.9-383.5-10.9-575.1,17.2c-39.5,5.8-80.8,9.7-120.2,1.3
		c-42-9-67.4-25.2-111.8-24.4c-48.4,0.9-101.2,31.7-149.2,41.5C8.8,343.7,4.7,344.5,0.6,345.2z"/>
	<path class="maincolor" d="M2664.1,2931.7c-38.4,84.2-76.2,170.5-112.9,258.7c-14.3-0.2-28.6-0.5-42.9-0.8c-110.1-2.4-221.7,0.7-330.7-17
		c-73.7-12-149.2-12.4-222.6,1.8c-72.1,14-142,20.2-212.2-8.7c-85.2-35-176.9-31.3-266.8-32.7c-90.3-1.3-175.9-30.6-265.4-26
		c-81.6,4.2-163.6,9.2-245-0.6c-47.2-5.7-94.2-9-141.2-5.3c-19.8-130.1-98.3-165-199.4-175.6c117.7,0.4,235.4,1.3,353.1-0.9
		c135-2.5,269.9,4.4,405.1-5.4c50.4-3.6,104.2,4.8,156.4,6.4C1914.4,2936.8,2289.4,2934,2664.1,2931.7z"/>
	<path class="maincolor" d="M2908.1,2437.6c-44.4,83.6-89.2,171.1-133.8,261.8c-118.8-2.6-236.4-15.9-355.8-4.4
		c-14.2,1.4-28.5,2.7-42.7,4.1c-135.2,13-271,7.1-406.9,5.9c-119.5-1.1-239-1.9-358.5,3.1c-105,4.4-210.2,5.8-314.6-8.8
		c-100.4-14-206.1,0-307.2,3.9c-117.8,4.5-238,34.1-354.6,30.7c-145.3-4.3-294.1-10.2-438.4,0.1c-28.7,2.1-57.5,3.4-86.3,4.1
		c-7.1-31.3-13.4-67.1-18.7-107.6c-5-38.2-11.2-129.1-15.2-213c80.6,6.1,161.2,12.1,241.9,18.2c38.4,2.9,75.3,8.2,112.3,0.4
		c41.1-8.7,82.9-13.7,125-13.7c59.4-3.5,119-5.6,178.5-3c48.4,2.2,99.5,27.2,147.4,36.6c52,10.3,105.1,15.6,157.9,10.5
		c46.6-4.5,91.9-17.1,138-24.4c47.2-7.5,88.1,0.6,135.3,3.4c104.5,6.1,209.2,5.6,313.8,3.5c92.8-1.9,186.1,25.7,278.4-2.6
		c30.2-9.2,78.9,1.3,110.9,0.8c41.4-0.7,82.7-2.1,124.1-2.2c55.7-0.1,111,11,166.7,9.3c56.8-1.7,108.9-16.8,166.5-9.5
		c116.2,14.8,232.1-11.9,348.5-9.2C2849.9,2436.5,2879,2437.1,2908.1,2437.6z"/>
</g>
<path class="accentcolor" d="M433.3,2257L433.3,2257c0-1,0.8-1.9,1.9-1.9c2.1-0.1,4.2-0.2,6.3-0.3c95.9-4.6,176.2-31.8,219.7-55.8
	c82.4-45.4,141.3-95.6,260.3-203.3c21.9,1.3,43.7,1.4,65.8-4.6c19.1-5.2,40.5-9.1,57.7,1c11,6.4,19.6,18.2,32,20
	c17.1,2.4,18.5-11.8,26.6-21.9c11.1-13.9,24.2-19.1,40.6-23.8c41.7-12.1,84.4-9.7,127.1-9.8c70.5-0.3,139.9,13.3,210.2,13.5
	c70.4,0.2,140.3-8.7,210.5-10.9c246.1-7.6,492.3-6.8,738.5-2.8c65.9,1.1,134-6,195.8,29.1c4.6,2.6,12.7,1.8,18-0.6
	c24.8-11,50.8-9.9,76.3-8.2c34.5,2.3,68.8,10.7,103.3,11c112.3,0,224.6,0.7,336.9,1.8c-45.7,76.3-93.9,159.2-143.6,247.8
	c-36.4,0.1-72.9,0.5-109.3-0.7c-127.6-4.2-254.9,2.4-383-8.3c-121.6-10.1-245.4-3-368.8,5.8c-179.8,12.8-361.1,5.7-541.7,11.6
	c-157.5,5.1-315.1,4.4-472.6,6.7c-14.7,0.2-32.4,2.8-46.7-0.6c-18.9-4.5-36.7-16.8-55.7-22.1c-37.6-10.6-79.7-4.5-118.3-4.4
	c-39.1,0.1-77.6,0.4-116.3-3c-40.5-3.6-79.9,12.5-118.7,21.7c-80.1,18.9-167.4,16.4-251.2,15.3C434.1,2258.9,433.3,2258,433.3,2257z
	"/>
<g>
	<path class="maincolor" d="M4495.7,1022.1c118.2,37.2,211.5,87.3,288.7,144.8l15.7-49l-59.2-43.9h73.2l23.1-72.1l22.2,72.1h71.9
		l-58.5,43.4l21.8,70.5l-58.5-43.3l-41,30.4c132.5,101.9,216.9,226.1,299.9,343.7c40.6,57.5,98.3,142.7,167.4,251
		c14.2,6.3,24.2,17.6,39.1,24.5c25.5,11.8,58.1,10.1,85.1,6.7c88.7-11.4,177.4-12.3,266.4-7.3c151.7,8.5,303.8,0.4,455.2-11.3
		c138.1-10.6,285.8-40,422.3-4.8c13.7,3.5,28.8,9.1,41.8,6.4c38.9-8.2,78.3-11.4,117.5-16.6c42-5.6,124.7,9.1,129.2-52.4
		c1.8-24.6-7.8-56.9-15.9-79.9c-18.4-52.3-18-125.3-0.8-178.2c8.7-26.6,23.5-48.6,28.5-77.6c5-29,4.6-58.8,4.7-88.2
		c0.5-96.2-7.5-191-27-284.5c-16-76.5-10.2-154.5-3.6-231.7c3.3-38.7,7-77.4,7.8-116.2c0.7-33.7,10.1-71.5,7-104.3
		c-2.2-23.3-7.7-50.2,6.1-67.9c0.6-0.8,1.3-1.5,1.9-2.3c4-4.3,9.2-7.6,12.6-12.4c12.5-17.5-12.6-71.3-17.5-89.5
		c-11.6-43-29.7-59.8-53.1-94.1c-10.7-15.6-23.7-28.1-38.1-39.8c-6-4.8-21.2-12.4-32.5-20c-8.9-6-20.4-6-29.1,0.5l-19.6,14.6
		l21.7,70.5l-58.5-43.3l-58.4,43.3l22.4-70l-59.2-43.9h73.2l23.1-72.1L6637,200h22.7c9,0,14.8-10.1,10.3-18.2
		c-3.4-6.3-7-12.5-10.7-18.6c-13.3-22.4-7.2-57-24.3-82.1c-14.9-21.8-44.2-51.3-72.1-44.7c-12.4,3-24,9.6-36.7,11.4
		c-28.8,4.1-51.4-16.2-80.9-12.5c-98.3,12.3-196.5,11-295.2,4.7c-47.4-3-95.6-18.9-142.9-1.1c-25.5,9.6-52,10.1-76.3,3.7
		c-43.9-11.5-88-12.3-132.3-12c-69,0.5-137-17.8-206.1-14.7c-36.4,1.6-64.9,17.9-99.1,24.6c-35.3,6.9-66.3-3.2-100.2,16.5
		c-33.9,19.7-44.1,17-79.1,8.9c-34.9-8.1-71.2,6.6-105.5-5.2c-56.8-19.4-74.1-55.6-126.3-4.8c-39.8,38.7-81.6,34.3-113.1-11.9
		c-3.1-4.5-5.9-9.3-8.9-13.9c-25.6-39.5-46.1-40.2-72.8-0.7c-9,13.2-16.8,17.9-32.5,13.1c-68.4-20.5-142.8-35-215.6-37.5
		c-56.4-1.9-167.6-10.3-204.8,41.6c-17.6,24.5,25.3,36.4,19.3,59.2c-2.1,8.1-7.9,14.4-11.9,21.6c-9.2,16.4-9,37-3.7,55.2
		c12.8,43.6,29.1,67.9,28.9,116.5c0,8.6-0.7,17.9-6,24.5c-13.6,17.1-45.9,11.9-27.3,48.5c2,4,4.7,7.5,7.5,10.9
		c44.9,52.7,19.5,103.9,17.8,162c-1.3,43.7,9.7,65.5,50.3,78c20.4,6.3,26.1,18.2,15.5,37.3c-15,27.1-31.4,53.3-45.9,80.8
		c-14.4,27.3,1.3,21.2,13.9,36.3c22.2,26.7,35.9,59.5,47,93c3.5,10.7,13.1,17.9,23.9,17.9h48.8l23.1-72.1l22.2,72.1h71.9l-58.5,43.4
		l21.7,70.5l-58.4-43.3l-58.5,43.3l22.4-70l-38.5-28.5c-4-3-9.5,0.9-8.1,5.8l0.9,3.5c3.4,11.2,6.7,22.3,10.1,33.5
		c10,31.6-9.7,26.3-31.9,27.7c-10.1,0.7-64-3.3-52.3,20.5C4484,1004.3,4489.5,1013.5,4495.7,1022.1z M4671.6,587.6l21.7,70.5
		l-58.4-43.3l-58.5,43.3l22.4-70l-59.2-43.9h73.2l23.1-72.1l22.2,72.1h71.9L4671.6,587.6z M4539.7,200h73.2l23.1-72.1l22.2,72.1
		h71.9l-58.5,43.4l21.7,70.5l-58.4-43.3l-58.5,43.3l22.4-70L4539.7,200z M4740.9,730.2h73.2l23.1-72.1l22.2,72.1h71.9l-58.5,43.4
		l21.8,70.5l-58.5-43.3l-58.4,43.3l22.4-70L4740.9,730.2z M4740.9,386h73.2l23.1-72.1l22.2,72.1h71.9l-58.5,43.4l21.8,70.5
		l-58.5-43.3l-58.4,43.3l22.4-70L4740.9,386z M4942,1232.3h73.2l23.1-72.1l22.2,72.1h71.9l-58.5,43.4l21.7,70.5l-58.4-43.3
		l-58.5,43.3l22.4-70L4942,1232.3z M4942,888.1h73.2l23.1-72.1l22.2,72.1h71.9l-58.5,43.4l21.7,70.5l-58.4-43.3l-58.5,43.3l22.4-70
		L4942,888.1z M4942,544.3h73.2l23.1-72.1l22.2,72.1h71.9l-58.5,43.4l21.7,70.5l-58.4-43.3l-58.5,43.3l22.4-70L4942,544.3z
		 M4942,200h73.2l23.1-72.1l22.2,72.1h71.9l-58.5,43.4l21.7,70.5l-58.4-43.3l-58.5,43.3l22.4-70L4942,200z M5136.5,1418.3h73.2
		l23.1-72.1l22.2,72.1h71.9l-58.5,43.4l21.7,70.5l-58.4-43.3l-58.5,43.3l22.4-70L5136.5,1418.3z M5136.5,1074h73.2l23.1-72.1
		l22.2,72.1h71.9l-58.5,43.4l21.7,70.5l-58.4-43.3l-58.5,43.3l22.4-70L5136.5,1074z M5136.5,730.2h73.2l23.1-72.1l22.2,72.1h71.9
		l-58.5,43.4l21.7,70.5l-58.4-43.3l-58.5,43.3l22.4-70L5136.5,730.2z M5136.5,386h73.2l23.1-72.1L5255,386h71.9l-58.5,43.4
		l21.7,70.5l-58.4-43.3l-58.5,43.3l22.4-70L5136.5,386z M5332.4,1576.1h73.2l23.1-72.1l22.2,72.1h71.9l-58.5,43.4l21.7,70.5
		l-58.5-43.3l-58.5,43.3l22.4-70L5332.4,1576.1z M5332.4,1232.3h73.2l23.1-72.1l22.2,72.1h71.9l-58.5,43.4l21.7,70.5l-58.5-43.3
		l-58.5,43.3l22.4-70L5332.4,1232.3z M5332.4,888.1h73.2l23.1-72.1l22.2,72.1h71.9l-58.5,43.4l21.7,70.5l-58.5-43.3l-58.5,43.3
		l22.4-70L5332.4,888.1z M5332.4,544.3h73.2l23.1-72.1l22.2,72.1h71.9l-58.5,43.4l21.7,70.5l-58.5-43.3l-58.5,43.3l22.4-70
		L5332.4,544.3z M5332.4,200h73.2l23.1-72.1L5451,200h71.9l-58.5,43.4l21.7,70.5l-58.5-43.3l-58.5,43.3l22.4-70L5332.4,200z
		 M5533.6,1418.3h73.2l23.1-72.1l22.2,72.1h71.9l-58.5,43.4l21.8,70.5l-58.5-43.3l-58.5,43.3l22.4-70L5533.6,1418.3z M5533.6,1074
		h73.2l23.1-72.1l22.2,72.1h71.9l-58.5,43.4l21.8,70.5l-58.5-43.3l-58.5,43.3l22.4-70L5533.6,1074z M5533.6,730.2h73.2l23.1-72.1
		l22.2,72.1h71.9l-58.5,43.4l21.8,70.5l-58.5-43.3l-58.5,43.3l22.4-70L5533.6,730.2z M5533.6,386h73.2l23.1-72.1l22.2,72.1h71.9
		l-58.5,43.4l21.8,70.5l-58.5-43.3l-58.5,43.3l22.4-70L5533.6,386z M5730.3,1576.1h73.2l23.1-72.1l22.2,72.1h71.9l-58.5,43.4
		l21.7,70.5l-58.4-43.3l-58.5,43.3l22.4-70L5730.3,1576.1z M5730.3,1232.3h73.2l23.1-72.1l22.2,72.1h71.9l-58.5,43.4l21.7,70.5
		l-58.4-43.3l-58.5,43.3l22.4-70L5730.3,1232.3z M5730.3,888.1h73.2l23.1-72.1l22.2,72.1h71.9l-58.5,43.4l21.7,70.5l-58.4-43.3
		L5767,1002l22.4-70L5730.3,888.1z M5730.3,544.3h73.2l23.1-72.1l22.2,72.1h71.9l-58.5,43.4l21.7,70.5l-58.4-43.3l-58.5,43.3
		l22.4-70L5730.3,544.3z M5730.3,200h73.2l23.1-72.1l22.2,72.1h71.9l-58.5,43.4l21.7,70.5l-58.4-43.3l-58.5,43.3l22.4-70L5730.3,200
		z M5931.4,1418.3h73.2l23.1-72.1l22.2,72.1h71.9l-58.5,43.4l21.7,70.5l-58.5-43.3l-58.4,43.3l22.4-70L5931.4,1418.3z M5931.4,1074
		h73.2l23.1-72.1l22.2,72.1h71.9l-58.5,43.4l21.7,70.5l-58.5-43.3l-58.4,43.3l22.4-70L5931.4,1074z M5931.4,730.2h73.2l23.1-72.1
		l22.2,72.1h71.9l-58.5,43.4l21.7,70.5l-58.5-43.3l-58.4,43.3l22.4-70L5931.4,730.2z M5931.4,386h73.2l23.1-72.1l22.2,72.1h71.9
		l-58.5,43.4l21.7,70.5l-58.5-43.3l-58.4,43.3l22.4-70L5931.4,386z M6118.5,200h73.2l23.1-72.1L6237,200h71.9l-58.5,43.4l21.7,70.5
		l-58.5-43.3l-58.4,43.3l22.4-70L6118.5,200z M6319.6,1418.3h73.2l23.1-72.1l22.2,72.1h71.9l-58.5,43.4l21.8,70.5l-58.5-43.3
		l-58.5,43.3l22.4-70L6319.6,1418.3z M6319.6,1074h73.2l23.1-72.1l22.2,72.1h71.9l-58.5,43.4l21.8,70.5l-58.5-43.3l-58.5,43.3
		l22.4-70L6319.6,1074z M6319.6,730.2h73.2l23.1-72.1l22.2,72.1h71.9l-58.5,43.4l21.8,70.5l-58.5-43.3l-58.5,43.3l22.4-70
		L6319.6,730.2z M6319.6,386h73.2l23.1-72.1l22.2,72.1h71.9l-58.5,43.4l21.8,70.5l-58.5-43.3l-58.5,43.3l22.4-70L6319.6,386z
		 M6518.5,1576.1h73.2l23.1-72.1l22.2,72.1h71.9l-58.5,43.4l21.7,70.5l-58.5-43.3l-58.4,43.3l22.4-70L6518.5,1576.1z M6518.5,1232.3
		h73.2l23.1-72.1l22.2,72.1h71.9l-58.5,43.4l21.7,70.5l-58.5-43.3l-58.4,43.3l22.4-70L6518.5,1232.3z M6518.5,888.1h73.2l23.1-72.1
		l22.2,72.1h71.9l-58.5,43.4l21.7,70.5l-58.5-43.3l-58.4,43.3l22.4-70L6518.5,888.1z M6518.5,544.3h73.2l23.1-72.1l22.2,72.1h71.9
		l-58.5,43.4l21.7,70.5l-58.5-43.3l-58.4,43.3l22.4-70L6518.5,544.3z M6308.8,544.3l-58.5,43.4l21.7,70.5l-58.5-43.3l-58.4,43.3
		l22.4-70l-59.2-43.9h73.2l23.1-72.1l22.2,72.1H6308.8z M6308.8,888.1l-58.5,43.4l21.7,70.5l-58.5-43.3l-58.4,43.3l22.4-70
		l-59.2-43.9h73.2l23.1-72.1l22.2,72.1H6308.8z M6308.8,1232.3l-58.5,43.4l21.7,70.5l-58.5-43.3l-58.4,43.3l22.4-70l-59.2-43.9h73.2
		l23.1-72.1l22.2,72.1H6308.8z M6250.3,1619.5l21.7,70.5l-58.5-43.3l-58.4,43.3l22.4-70l-59.2-43.9h73.2l23.1-72.1l22.2,72.1h71.9
		L6250.3,1619.5z"/>
	<path class="maincolor" d="M7503.2,1722.8c-1.6-16.5-2.8-34.1-3.6-52.9c-2.2-53.7-4.4-114-6.5-176.7c-17.4-2-33.6-3.5-51.9,0.9
		c-20.8,5.1-35.7,13.4-57.7,5.8c-23.5-8.1-48.2-11.5-72.7-14.8c-58.6-7.9-115-15.6-172.3-18.8c-24.4-1.4-48.9-1.9-73.8-1.3
		c-44.1,1.1-56,20.1-37.3,60.4c12.9,27.9,3.6,53.9-22.9,64.2c-12.4,4.8-22.3,13.5-25.1,26.6c-4.5,20.6,22.2,28,32.3,40.6
		c12.3,15.3,15.8,34,16.3,53.7c0.2,8.7,0.2,17.8,4.1,25.5c8.4,16.6,30.2,19,48,16.3c64.3-9.7,135.5,0.5,201.1,0.9
		c57.6,0.3,104.3-0.6,160-18.3C7460.8,1728.6,7481.7,1724.9,7503.2,1722.8z"/>
	<path class="maincolor" d="M7485.8,1250.6c-2.6-96.3-4.8-184.7-6.4-248.9c-39.3,0-78.6-0.2-117.6-0.5c-105.1-1-212.9-12-316.6,10.9
		c-19.4,4.3-28.9,15-34.2,33.5c-9.4,32.7-9,65.9-7.5,99.5c0.4,9.7,2.8,19.5-5.4,28.7c-25.3,28.1-22.2,44.9,10.8,62.1
		c88.7,46.3,181.7,4.7,273.8,21.4c34,6.2,65.1,10.3,100.9,4.4C7417.5,1256.2,7451.6,1252.8,7485.8,1250.6z"/>
	<path class="maincolor" d="M7510,734.6c12.2-25,26.7-44,41.6-57.9c30.6-28.5,84.8-63.9,302.9-75.3c90.5-4.7,505.1-10.9,669.6-32.7
		c19-2.5,33.5-21.4,33.9-40.5c0.4-23.1,0.7-46,0.8-68.8c-17.7,2.3-34.7,4.7-50.7,6.5c-125.8,14.8-259.4,2.4-386.4,1.7
		c-52.4-0.3-106.6-8.1-158.7-5.8c-50.8,2.3-102.8,16.6-153.6,22.3c-132.1,15-265.5,17.3-398,6.7c-66.5-5.3-131.7-17.5-197.8-25.3
		c-57.2-6.8-118,0.6-176.3,1c-46.2,0.3-66.2,31.6-57.3,79.3c4.5,24,6,47.6,4.1,71.9c-1.8,22-4.9,47.5-0.9,69.3
		c2.7,14.8,10.4,29.3,23.2,36.4c10.3,5.7,22.5,5.8,34.1,6.1c48.6,1.1,96.9,12.4,145.3,11.5c51.6-1.1,103.3-5.6,154.7-3.6
		C7395.9,739.6,7453.7,735.1,7510,734.6z"/>
	<path class="maincolor" d="M8558.3,345.2c-1.2-77-4.1-148.3-8-208.2c-58.7,0-123.1-20.2-180.7-29.8c-39.1-6.6-72.6-18.7-109.9-29.3
		c-43.4-12.3-91.9-1.9-136.4-1.9c-21.5,0.3-43.3,1.7-62.1,13c-35.9,21.6-76.7,24.9-116.6,15.3c-41.2-9.9-68.3-5.7-110.8-5
		c-29.1,0.5-56.7-12.1-84.1-22.1c-86.4-31.5-163-21.8-251.4-23.6c-92-1.9-183.5-7.2-276.1-3.8c-78.4,2.9-155.4,6.4-232.5-11.2
		c-23.9-5.5-47.9,0.7-70.5,10.3c-47.7,20.3-61.1,52.5-56.6,105.8c4,47.5,50.9,110.9,90,133.2c14.2,8.1,29.8,13,45.4,17.2
		c122.1,32.7,259,22.9,383.5,12.1c73.1-6.3,134.7-18.4,208.2-10c191.1,21.9,383.5-10.9,575.1,17.2c39.5,5.8,80.8,9.7,120.2,1.3
		c42-9,67.4-25.2,111.8-24.4c48.4,0.9,101.2,31.7,149.2,41.5C8550.1,343.7,8554.2,344.5,8558.3,345.2z"/>
	<path class="maincolor" d="M5894.8,2931.7c38.4,84.2,76.2,170.5,112.9,258.7c14.3-0.2,28.6-0.5,42.9-0.8c110.1-2.4,221.7,0.7,330.7-17
		c73.7-12,149.2-12.4,222.6,1.8c72.1,14,142,20.2,212.2-8.7c85.2-35,176.9-31.3,266.8-32.7c90.2-1.3,175.9-30.6,265.4-26
		c81.6,4.2,163.6,9.2,245-0.6c47.2-5.7,94.2-9,141.2-5.3c19.8-130.1,98.3-165,199.4-175.6c-117.7,0.4-235.4,1.3-353.1-0.9
		c-135-2.5-269.9,4.4-405.1-5.4c-50.4-3.6-104.2,4.8-156.4,6.4C6644.5,2936.8,6269.5,2934,5894.8,2931.7z"/>
	<path class="maincolor" d="M5650.9,2437.6c44.4,83.6,89.2,171.1,133.8,261.8c118.8-2.6,236.4-15.9,355.8-4.4c14.2,1.4,28.5,2.7,42.7,4.1
		c135.2,13,271,7.1,406.9,5.9c119.5-1.1,239-1.9,358.5,3.1c105,4.4,210.2,5.8,314.6-8.8c100.4-14,206.1,0,307.2,3.9
		c117.8,4.5,238,34.1,354.6,30.7c145.3-4.3,294.1-10.2,438.4,0.1c28.7,2.1,57.5,3.4,86.3,4.1c7.1-31.3,13.4-67.1,18.7-107.6
		c5-38.2,11.2-129.1,15.2-213c-80.6,6.1-161.2,12.1-241.9,18.2c-38.4,2.9-75.3,8.2-112.3,0.4c-41.1-8.7-82.9-13.7-125-13.7
		c-59.4-3.5-119-5.6-178.5-3c-48.4,2.2-99.5,27.2-147.4,36.6c-52,10.3-105.1,15.6-157.9,10.5c-46.6-4.5-91.9-17.1-138-24.4
		c-47.2-7.5-88.1,0.6-135.3,3.4c-104.5,6.1-209.2,5.6-313.8,3.5c-92.8-1.9-186.1,25.7-278.4-2.6c-30.2-9.2-78.9,1.3-110.9,0.8
		c-41.4-0.7-82.7-2.1-124.1-2.2c-55.7-0.1-111,11-166.7,9.3c-56.8-1.7-108.9-16.8-166.5-9.5c-116.2,14.8-232.1-11.9-348.5-9.2
		C5709.1,2436.5,5680,2437.1,5650.9,2437.6z"/>
</g>
<path class="accentcolor" d="M8125.6,2257L8125.6,2257c0-1-0.8-1.9-1.9-1.9c-2.1-0.1-4.2-0.2-6.3-0.3c-95.9-4.6-176.2-31.8-219.7-55.8
	c-82.5-45.4-141.3-95.6-260.3-203.3c-21.9,1.3-43.7,1.4-65.8-4.6c-19.1-5.2-40.5-9.1-57.7,1c-11,6.4-19.6,18.2-32,20
	c-17.1,2.4-18.5-11.8-26.6-21.9c-11.1-13.9-24.2-19.1-40.6-23.8c-41.7-12.1-84.4-9.7-127.1-9.8c-70.5-0.3-139.9,13.3-210.2,13.5
	c-70.4,0.2-140.3-8.7-210.5-10.9c-246.1-7.6-492.3-6.8-738.5-2.8c-65.9,1.1-134-6-195.8,29.1c-4.6,2.6-12.7,1.8-18-0.6
	c-24.8-11-50.8-9.9-76.3-8.2c-34.5,2.3-68.8,10.7-103.3,11c-112.3,0-224.6,0.7-336.9,1.8c45.7,76.3,93.9,159.2,143.6,247.8
	c36.4,0.1,72.9,0.5,109.3-0.7c127.6-4.2,254.9,2.4,383-8.3c121.6-10.1,245.4-3,368.8,5.8c179.8,12.8,361.1,5.7,541.7,11.6
	c157.5,5.1,315.1,4.4,472.6,6.7c14.7,0.2,32.4,2.8,46.7-0.6c18.9-4.5,36.7-16.8,55.7-22.1c37.6-10.6,79.7-4.5,118.3-4.4
	c39.1,0.1,77.6,0.4,116.3-3c40.5-3.6,79.9,12.5,118.7,21.7c80.1,18.9,167.4,16.4,251.2,15.3C8124.8,2258.9,8125.6,2258,8125.6,2257z
	"/>
</svg>
