<?xml version="1.0" encoding="utf-8"?>
<!-- Generator: Adobe Illustrator 27.9.1, SVG Export Plug-In . SVG Version: 6.00 Build 0)  -->
<svg class="w" version="1.1" xmlns="http://www.w3.org/2000/svg" xmlns:xlink="http://www.w3.org/1999/xlink" x="0px" y="0px"
	 viewBox="0 0 8562.5 3271.6" style="enable-background:new 0 0 8562.5 3271.6;" xml:space="preserve">
     $gradientDefs

 <path class="maincolor" d="M111,0.2C72.6-2.5,21.4,20.4,13.8,102.6C3.8,210.5-2.4,381.3,0.9,558.6c0.4,19.2,14.9,38,33.9,40.6
	c164.5,21.7,579.1,27.9,669.7,32.7c218.1,11.4,272.3,46.8,302.9,75.3c40.2,37.4,77.2,111.9,74.2,239.4
	c-2.1,88.9-11.4,497.5-22.1,753.9c-9.3,222.8-79.9,273.1-111.8,302.1c-136.9,124.3-198.1,178.3-286.4,227
	c-43.6,24-123.8,51.3-219.8,55.8c-147.9,7-321.1,9.1-331.9,9.4c-21.5,0.6-38.4,18.5-38.1,40c1.4,93.1,11.6,269,19.1,326.4
	c23.7,181.3,66.8,269,119.5,272c137.7,7.8,242.8,16.2,254.4,16.6c182.3,5.8,351.6-14.2,364.1,223.4c1.5,28.7,13.3,56.3,42.1,57
	c0,0,1547.9,39.9,1602,41.3c34.6,0.9,65-17.9,78.3-49.9c331.1-795.8,754.1-1447.1,913.1-1672.3c140.4-199,284.7-416.5,659.1-513.8
	c7.8-2,12.9-9,12.9-17.1c0-13.1,0-959.6,0-977.1c0-10-8.1-18.1-18.1-18.1C1969.1,25.3,371.6,19,111,0.2z"/>
<g>
	<path class="accentcolor" d="M1181.9,2780.5c12.8,10.1,25.6,20.1,38.5,30.1c31.8,22.1,64.1,43.5,97,64.1
		c136.2,88.6,286.4,153.6,444.8,192.5c48.6,11.3,97.5,21.2,146.8,29.7c11.7,2.3,23.7,2.9,35.6,1.6c1.4-0.3,2.5-1.5,2.7-3
		c0.5-7.6-0.9-15.1-3.9-22c-12.3-41.7-24.2-83.5-35.6-125.5c-3-16.4-9.8-31.9-19.7-45.2c-7.1-5.7-14.9-10.5-23.2-14.3
		c-9-3.4-15.9-10.6-19-19.7c-1.2-10.8-8.2-19.9-18.2-23.9c-3.9-2.5-8.9-2.2-12.7,0.6c-2.9,3-5.7,6.1-8.4,9.2c-1.5,2-4.3,2.5-6.3,1.2
		c-11.3-8.9-23.1-17.1-35.3-24.6c-49.2-18.6-97.7-39-145.3-61.2c-66.5-29.8-130.4-65.1-190.9-105.6c-24.8-16.3-48.4-34.2-70.7-53.7
		c-13.1-9.7-26.5-19-40.1-28c-24.3-20.9-47.8-42.8-70.5-65.6c-27.8-25.9-53.4-54.1-76.8-84.1c-7.3-11.4-20.6-17.3-34.1-14.9
		c-1.2,0.2-2.3-0.1-3.3-0.8c-6.7-6.5-12.3-13.9-16.7-22.2c-0.5-0.9-0.3-2.1,0.5-2.8c0.7-0.5,1.5-1,2.3-1.2c2.4-0.7,4.6-1.7,6.8-3
		c1.4-0.9,1.9-2.6,1.4-4.1c-2.9-6.3-6.3-12.3-10.2-18c-34.3-47.8-64.7-98.4-91-151.1c-4.5-10.9-14.9-18.1-26.7-18.6
		c-75.4-1.6-150.9-2.9-226.4-4c-3.4-0.7-7,0.7-9,3.7c-0.8,0.8-1.3,1.9-1.2,3c0.9,4.4,2.1,8.7,3.8,12.8
		c29.9,69.9,64.6,137.4,103.9,202.3c47.6,77.5,102.4,150.2,163.7,217.1C1080.4,2684,1129.7,2733.8,1181.9,2780.5z M1622.9,2864.9
		c0.8-4.4,3.6-8.3,7.7-10.2c4.3-0.6,8.7,0.7,12,3.6c6.1,6.7,13.1,12.6,20.8,17.5c9.6,5.4,18.1,12.5,25,20.9
		c9.2,8,19.6,14.5,30.8,19.4c14.7,10.5,29.1,21.6,42.9,33.2c1.4,1.2,2,3,1.6,4.8c-1.2,6.9-3.1,13.7-5.8,20.2
		c-0.3,0.6-0.8,1.1-1.3,1.5c-0.5,0.2-1,0.2-1.4-0.1c-1.1-0.6-2-1.5-2.8-2.5c-16.4-16.1-34.9-29.9-55.1-41
		c-12.3-4.4-24.3-9.7-35.9-15.7c-16.3-11.4-29.6-26.6-38.8-44.4C1621.8,2869.9,1621.9,2867.3,1622.9,2864.9z"/>
	<path class="accentcolor" d="M1008.3,1931.4c-21.8,39.1-45.5,57.5-60.5,71.1c-57.5,52.2-101.7,92-140.1,124.3l855,32
		c22.3-0.1,44.5,0.9,66.6,3.1c1.7,0.4,3.2,1.4,4,3c2.9,6.5,5.5,13.2,7.6,20c35.7,120.5,72.1,240.7,109.1,360.8
		c2.4,13.2,9.4,25.1,19.9,33.4c13.9,8.9,26.2,20,36.5,32.9c3.8,8.7,9.7,16.1,17.3,21.7c9.6,2.8,17.9,8.9,23.5,17.3
		c9.9,7.9,19.6,16.1,29.1,24.5c8.3,6.8,13.6,16.7,14.6,27.5c0,1.6-0.4,3.2-1.2,4.6c-0.3,0.5-0.9,0.8-1.5,0.8c-0.7,0-1.3-0.2-1.8-0.6
		c-2.7-1.9-5.1-4-7.4-6.4c-6.9-10.2-15.7-18.9-25.8-25.9c-22.9-11.7-42.7-28.6-57.8-49.5c-6.3-9.7-13-19.2-20.1-28.4
		c-0.4-0.4-1-0.7-1.6-0.8c-0.3,0-0.5,0-0.8,0.2c-0.2,0.1-0.4,0.3-0.5,0.6l-0.4,3.3c0,4.1,0.4,8.2,1.3,12.2
		c8.9,38.4,20,76.3,33.3,113.4c17.5,60.9,36,121.5,55.4,181.8c17.2,55,33.9,110.3,50.1,165.6c0.6,7.7,3.6,15,8.6,20.8
		c0.9,0.9,1.9,1.5,3.1,1.9c0.5,0.1,1.1,0,1.6-0.2c0.6-0.4,1.1-0.9,1.5-1.5c3.1-5.3,5.8-10.8,8.1-16.5l178.9-478.8
		c4.2-15.7,8.1-31.4,11.6-47.2c10.6-27.3,20.5-54.9,29.7-82.7c10-31.6,21.2-62.8,33.6-93.6c9.6-19.5,16.5-40.2,20.4-61.6
		c1-4.2,0-8.7-2.7-12c-7.1-6.7-13.9-13.7-20.3-21c-2.7-2.8-4.3-6.6-4.3-10.6c0.1-0.5,0.4-1,0.8-1.3c0.5-0.4,1.1-0.6,1.8-0.7
		c2.1,0,4.3,0.4,6.2,1.2c6.9,3.7,13,8.5,18.2,14.3c1.4,1.2,3.2,1.9,5,1.7c5.9-2,10.4-6.7,12.2-12.7c12-25.9,22.1-52.6,30.3-79.9
		c1.5-7,6.6-12.8,13.3-15.3c13.2-0.9,26.5-0.5,39.6,1.2c67.1,2.6,134.3,4.9,201.5,6.7c9.6,1.2,19.4,0.6,28.9-1.9
		c4.6-3.3,8.2-7.8,10.3-13c1.5-3.6,4.6-6.3,8.4-7.1c4.4,0.3,8.4,2.3,11.2,5.6c7.9,9.8,19,16.5,31.4,18.9l354.7,12.2
		c38.4-67.3,75.7-130.9,111.5-190.5l-184-145.1c-31.9-26.8-64.1-53.3-96.6-79.3c-45.9-31.3-90.2-64.9-132.8-100.6
		c-26.9-24.2-55-47.2-84.1-68.9c-19.2-11.6-37.7-24.2-55.5-37.7c-7-4.5-12.5-10.8-16.1-18.4c-0.8-1.8-0.8-3.8-0.2-5.7
		c0.4-2,0.9-3.9,1.3-5.9c1.2-3.2,1.5-6.7,0.8-10.1l-0.6-1c-0.8-0.9-1.9-1.5-3.1-1.6c-4.8-0.3-9.5-0.1-14.3,0.5
		c-1.8,0.2-3.7-0.2-5.2-1.2c-7.8-5.9-14.8-12.9-20.7-20.8c-2.8-2.9-4.8-6.5-5.8-10.4c-0.1-0.9,0.3-1.8,1-2.3c1.5-1,3.2-1.4,4.9-1.2
		c15,2.8,29.7,6.7,43.9,11.9c1.9,0.3,3.8-0.6,5-2.1c6.5-9.2,11.4-19.4,14.4-30.2c4.7-11,10.3-21.7,16.5-32l55.7-151.6
		c29.9-82.3,60.4-164.4,91.3-246.3c5.1-11.6,5.4-24.6,0.8-36.2c-15.1-17.8-30.6-35.3-46.3-52.5c-1.4-2-3.1-3.8-5-5.3
		c-0.8-0.6-1.9-0.7-2.8-0.2c-4.3,2.4-8.7,4.8-13.1,7.1c-1.7,0.8-3.6,1.3-5.4,1.5l-1-0.3c-0.7-0.3-1.3-0.9-1.7-1.6
		c-3.3-8.1-5.8-16.5-7.4-25.1c-0.8-3.3-0.3-6.8,1.3-9.9c0.6-0.8,1.6-1.1,2.6-0.9c1.2,0.4,2.4,1,3.4,1.7c2,1.2,4,2.5,5.9,3.8
		c2.1,1.7,4.4,3.1,6.8,4.3c0.3,0.1,0.7,0.1,1,0c0.3-0.1,0.5-0.2,0.7-0.5c0.6-1,1-2.1,1.1-3.2c0.4-3.6,2.4-6.7,5.5-8.6
		c0.4-0.2,0.9-0.4,1.4-0.5c0.5-0.1,1.1,0,1.6,0.1c1.2,0.3,2.3,0.8,3.2,1.6c4,2,7.1,5.5,8.6,9.8c0.4,4,0.7,7.9,0.8,11.9
		c0.1,1.1,0.5,2.2,1.3,3l1.4,1.1c1.4,1.1,2.9,2.1,4.3,3.2c10.7,5.8,20.1,13.5,28,22.8c3.6,7.8,8.4,15,14.2,21.3
		c0.4,0.4,0.9,0.6,1.4,0.7c0.5-0.1,1-0.3,1.4-0.7c4.8-6.1,8.7-12.7,11.8-19.8l48.2-136.3c27.3-71.3,54.3-142.8,80.9-214.3
		c11.1-28.9,20.4-58.4,27.8-88.3c0.1-0.9,0.1-1.8-0.2-2.6c-0.2-0.6-0.8-1-1.4-1c-0.8,0-1.6,0.3-2.3,0.7
		c-14.5,8.5-28.6,17.7-42.3,27.5c-67,48.2-134.1,96.1-201.4,143.7c-6.9,3.6-10.9,11.1-10.1,18.8c0.2,1.3-0.1,2.7-0.9,3.8
		c-2.3,2.4-5.5,3.9-8.8,4c-7.5-0.7-15.1,0.8-21.9,4.3c-25.2,16.9-50.2,34.2-74.9,52c-145.9,101-290.9,203.4-434.9,307.2
		c-31.4,22.8-63.6,44.5-96.6,65c-1.6,0.8-3.5,0.8-5-0.2c-20.5-14.7-40.2-30.4-59.3-46.9c-37-30.1-74.9-59.1-113.7-86.8
		c-51.8-40.5-103.6-81.2-155.2-122l-227.2-171c-54.1-43.6-109.4-85.5-165.9-125.8c-23.2-18.3-46.1-37.1-68.4-56.5
		c-12.1-10-24.9-19.1-38.2-27.3c-0.3-0.1-0.7-0.2-1.1-0.2c-0.2,0-0.4,0.1-0.6,0.2c-0.6,0.4-1,1.1-1.2,1.8c-1.4,4-1,8.4,1,12.1
		c24,79.7,47.5,159.4,70.6,239.4c2.3,13.6,8.3,26.2,17.4,36.4c10,7.8,20.1,15.6,30.2,23.4c8.4,5.6,11.2,16.7,6.4,25.8
		c-2.1,3.6-2.4,7.8-1,11.6c19.5,41.4,50.6,76.1,89.5,99.9c14.7,7.5,28.9,15.8,42.6,24.9c9.8,9.9,20,19.5,30.5,28.6
		c13.2,9.7,27.2,18.4,41.8,26c10.5,5.5,18.9,14.4,23.7,25.3c0.6,1.8,0.3,3.8-0.8,5.3c-2.4,3.1-5.6,5.4-9.2,6.8
		c-10.5,1.4-21.1,0.1-30.9-3.5c-18.1-10.2-34.1-23.7-47.1-39.9c-6.3-9.2-13.3-17.9-20.9-26.1c-26.2-19.6-50.7-41.2-73.5-64.7
		c-14.9-12.4-28.9-25.9-41.8-40.3c-0.9-1.3-2.2-2.3-3.6-2.9c-0.6-0.3-1.4-0.1-1.9,0.3c-0.8,0.6-1.4,1.4-1.8,2.2
		c-4.6,8.3-4.2,18.3,0.9,26.1c15.5,50.2,30.5,100.6,45.1,151c4.2,19.1,10.5,37.6,18.8,55.2c5.7,12.7,16.2,22.6,29.1,27.6
		c6.9,1.1,13,4.9,17,10.5c1.6,4.9,2.5,10,2.7,15.1c1.5,7.2-0.7,14.9-5.9,20.3c-0.8,0.6-1.8,0.8-2.7,0.5c-0.8-0.2-1.6-0.6-2.4-0.9
		c-0.4-0.2-0.7-0.4-1-0.7c-0.5-0.6-0.9-1.3-1-2.1c-0.2-1.7-0.9-3.2-2-4.5c-0.8-1.4-1.9-2.4-3.3-3.1c-0.7-0.3-1.4-0.2-2,0.1
		c-4.8,3.4-7.3,9.2-6.4,14.9c3.8,16.2,8.1,32.3,13,48.3c0.8,1.7,2.3,2.9,4.1,3.4l2,0.4c9,0.8,17.5,4.2,24.6,9.6
		c1.9,2,3.3,4.4,4.2,7.1l2.3,2.4c4.4,3.2,8.7,6.5,12.9,9.8c8.9,9.1,18.2,17.8,27.8,26.2c13.1,6.7,24.5,16.1,33.6,27.7
		c1.1,1.6,2.7,2.7,4.6,3c6.1-0.1,12.3-0.6,18.3-1.6c1.4-0.2,2.9-0.2,4.3-0.1c0.8,0.1,1.4,0.5,2,1.1c1.4,1.8,2.5,3.7,3.2,5.8
		c2.3,11.1,9.2,20.5,19,25.9c17.5,8.6,33.4,19.9,47.3,33.6c17.4,18.8,38.4,33.8,61.9,44.3c12.6,3.6,24.2,9.7,34.2,18.1
		c9.6,15.9,22.1,29.8,37.1,40.8c15.5,12.5,31.6,24.3,48.2,35.4c17.3,9.1,34.2,18.8,50.9,29c8.3,4.5,14.5,12.1,17.3,21.1
		c0.3,1.2,0.2,2.4-0.3,3.6c-0.4,0.8-1.3,1.3-2.2,1.2c-1-0.1-1.9-0.3-2.8-0.6c-19.9-9.2-38.9-20.1-56.7-32.8
		c-15.2-10.7-32-18.8-49.9-24.1c-9.8-2.1-18.9-6.8-26.2-13.5c-9-11.6-19.5-22-31.2-30.8c-10-5.8-19.8-11.8-29.5-18.1
		c-7.7-8.7-16.5-16.2-26.3-22.3c-11.5-4.3-20.2-14.1-23.1-26.1c-4.9-9.5-12.8-17-22.4-21.4c-5.9-0.5-11.7-2.1-17.1-4.5
		c-11.1-8.1-21.7-16.8-31.9-26c-0.9-0.6-2.1-0.8-3.1-0.4c-2.1,0.9-4.2,1.8-6.4,2.6c-1.1,0.6-2.4,0.9-3.6,0.9l-1.7-0.1l-2.8-2.1
		c-9.9-10-19.4-20.4-28.4-31.3c-15.8-20.2-34.3-38-55-53.2c-3.4-2.2-7.2-3.8-11.1-4.6c-1.2-0.1-2.3,0.5-3,1.4
		c-4.5,7-6.3,15.3-5.2,23.5c4.1,17.1,11.4,33.2,21.5,47.4c5.3,6.3,7.2,14.7,5.2,22.8c-1.1,3.2-1.9,6.5-2.3,9.8
		c1.6,11.6,4.9,22.9,10,33.4c8,12.5,15.6,25.3,22.9,38.2c1.7,2.8,2.1,6.3,1.1,9.5c-1,2.2-2.1,4.5-3.2,6.6c-2,5.2-2,11,0.1,16
		c1.9,5.2,2.7,10.7,2.2,16.3c-3.7,9.5-10.4,17.5-19.1,22.8c-54.1,38.4-108,77-161.6,116c-15,10.4-28.7,22.7-40.7,36.4
		c-2.1,2.5-2.7,6-1.3,9c1.3,3,4.2,4.9,7.5,4.9c4.6,0.1,9.2,0.1,13.8,0.1c1.9-0.1,3.7,0.8,4.8,2.4c2.9,6.2,5.7,12.4,8.5,18.7
		c7.7,10.5,15.9,20.5,24.5,30.2c6.3,6.9,9.7,16.1,9.4,25.6c-0.2,1.5-1.5,2.6-3,2.7c-2.8-0.3-5.3-1.5-7.4-3.3
		c-22.2-24.1-46.5-46.1-72.6-65.8c-2.1-1.7-4.3-3.2-6.6-4.4c-0.7-0.3-1.4-0.3-2.1,0c-2,0.9-3.8,2.2-5.2,3.8
		c-3.2,4.8-7.7,8.6-13,10.9c-2.1,0.6-4.3,0.9-6.5,1c-1.8,0-3.5,0.7-4.9,1.9c-3.4,3.5-6.1,7.5-8.1,12c-0.5,1.1-1.4,1.9-2.5,2.3
		c-15.3,4.9-29.8,12.2-43,21.6c-45.2,32.7-90.2,65.8-134.9,99.1C1048.4,1902.9,1028.3,1917.1,1008.3,1931.4z M1474.1,1856.1
		c-7.8-10.3-14.5-21.4-20.2-33.1c-5.1-6.9-10.7-13.5-16.7-19.7c-0.8-1.2-1.3-2.7-1.4-4.1c-1.8-7.7-4.1-15.3-6.9-22.8
		c-0.4-3,0-6.2,1.1-9.1c0.3-0.6,0.7-1.2,1.2-1.6c0.4-0.3,0.9-0.3,1.3-0.1c1.1,0.5,2.1,1.2,2.9,2c18.6,15.4,36.5,31.6,53.8,48.4
		c14.3,19,31.8,35.5,51.6,48.7c2.9,2.2,5.8,4.6,8.6,6.9c1.2,1.1,1.9,2.7,1.9,4.4c-0.3,1.2-0.6,2.4-1,3.6c-4.5,10.5-4.9,22.2-1,32.8
		c0.3,1.4,0.4,2.8,0.4,4.2c-0.1,0.5-0.3,0.9-0.7,1.2c-0.4,0.3-0.8,0.5-1.3,0.5c-20.9-1.5-39.4-13.2-49.6-31.4
		c-5.6-10.5-12.9-20-21.5-28.1C1475.7,1858,1474.9,1857,1474.1,1856.1z"/>
	<path class="accentcolor" d="M1015.4,715.1c37,39.6,69,112.4,66.2,231.4c-0.4,18.2-1.2,49.7-2.1,90.5c3.8,0.4,7.7-1,10.4-4
		c13.2-15.5,25.3-32,36.2-49.3c9.3-13.9,19-27.5,29.3-40.6c19.5-21.6,39.1-43.2,58.8-64.7c10.6-9.7,18.8-21.8,24.1-35.1
		c3.8-9.4,6.4-19.3,8-29.3c-1.1-16.4-4.5-32.4-10.2-47.7c-9.2-24.1-17-48.7-23.2-73.8c-0.2-1.3-0.9-2.4-1.7-3.3
		c-5.8-5.8-10.6-12.6-14.1-20.1c-5.3-18.8-9.1-38-11.3-57.5c-1.4-17.3-6.7-33.9-15.5-48.7c-1-1.7-3.1-2.4-5-1.5
		c-2.6,1.3-5.1,2.9-7.4,4.7c-13.1,11.5-24.6,24.8-34.1,39.4c-2,2.7-2.4,6.2-1.1,9.3l0.5,2c1.1,3.1,1.9,6.4,2.5,9.7
		c0.1,0.8-0.1,1.7-0.6,2.3c-0.5,0.7-1.3,1.1-2.1,1.2c-2.7,0.3-5.3,0.4-8,0.1c-7.7-1.7-15.7-0.9-23,2.3c-9,7.7-17.5,16-25.4,24.8
		C1049.5,676.7,1032.5,696,1015.4,715.1z"/>
	<path class="accentcolor" d="M2647.6,2999.4c63-139.7,127.9-273.7,192.6-400.3c-28.9,24.3-58.9,47.4-89.8,69.2
		c-28.2,17.1-55.6,35.5-82.1,55.2c-1.3,0.9-1.7,2.7-1,4.1c4.8,9.7,9.9,19.2,15.4,28.5c4.1,10.2,13.4,17.3,24.3,18.6
		c9,0,17.5,4.2,22.9,11.3c1.2,1.1,1.4,3,0.4,4.4c-4.4,4.8-11,7-17.3,5.8c-14.4-3.9-27.5-11.2-38.3-21.4c-10-9.7-21.4-17.9-33.9-24.3
		c-11.1-3.3-23.2-2.2-33.7,3.3c-31.2,16-63.1,30.3-95.7,42.9c-68.5,19.8-137.1,39.2-205.8,57.9c-39.8,5.4-79.8,9.9-119.8,13.6
		c-1.2,0.2-2.2,0.8-3,1.8c-2.1,2.9-3.9,6-5.4,9.2c-24.6,53.8-46.7,108.7-66.3,164.5c-7.3,19.7-13.7,39.8-18.9,60.1
		c-0.3,1.2-0.3,2.5,0.2,3.6c2,2.9,5.2,4.6,8.7,4.6c21.7,1.3,43.6,0.9,65.3-1.2c19.1-0.8,38.1-2.4,57-4.8c35.2-3.2,70.2-8.1,105-14.8
		c62-15.6,123.9-31.4,185.7-47.6c40.8-8.9,80.7-21.9,119.1-38.7C2638.2,3003.2,2642.9,3001.3,2647.6,2999.4z"/>
	<path class="accentcolor" d="M1299,479.7c27.1,21.2,54.4,42.1,82,62.7c37.9,30,77.3,58.2,117.9,84.4c6.5,5.5,15.3,7.6,23.7,5.5
		c11.4-5.9,22.8-11.9,34.1-18c43.1-21.1,87.6-39,133.2-53.5c56.9-18.8,115.4-32.1,174.6-39.7c13.6-0.6,26.9-5,38.3-12.8
		c9.4-3.3,18.8-6.9,27.9-11c2.9-1.2,5.2-3.6,6.3-6.6c1-3,0.7-6.3-1-9c-5-7-11.6-12.6-19.2-16.4c-0.9-0.6-1.7-1.4-2.3-2.3
		c-1.6-2.2-1.1-5.3,1.1-7c3.4-1.2,7.1-1,10.2,0.6c13.5,5.9,26.4,13,38.5,21.3c10.6,9.1,23.7,14.8,37.7,16.5
		c26-1.8,51.9,0.8,76.9,7.5c8.1,4.5,17.6,6.2,26.9,4.9c1.7-0.8,3.3-1.9,4.7-3.2c6-8,15.4-12.7,25.3-12.7c14.1-1.5,28.2-2.8,42.3-4.1
		c13.8,2.3,27.7,3.9,41.7,5c12.2-0.4,24.3-0.2,36.4,0.6c9.9,4.9,20.6,7.8,31.6,8.8c1.4,0.2,2.8,0.2,4.2,0c0.7-0.2,1.4-0.6,1.8-1.3
		c1.1-2.3,1.6-4.8,1.5-7.3c-0.3-3,0.5-6.1,2.3-8.6c0.9-0.8,2.2-1,3.3-0.6c2.6,1.1,5.1,2.6,7.4,4.2c14,12.1,30.3,21.2,48,26.9
		c13.3,5.3,27.1,9.3,41.2,12.1c20.9,1.1,41.5,5.4,61,12.8c3.7,1.5,7.7,2.4,11.7,2.7c0.6-0.1,1.1-0.3,1.6-0.7c0.3-0.3,0.4-0.7,0.4-1
		c-0.4-1.6-1.1-3-2.1-4.2c-6.1-6.1-11.7-12.5-16.9-19.3c-2.2-3.2-2-7.5,0.5-10.6c0.7-1,1.9-1.5,3.1-1.2c1,0.2,1.9,0.6,2.7,1
		c10.5,7.4,19.6,16.6,26.7,27.3c4.8,8,10.8,15.2,17.9,21.3c26.9,14.1,54.4,26.9,82.6,38.2c25.6,10.8,50.6,23,74.9,36.6
		c4.5,3.6,10.4,5,16.2,3.9c10.3-4.8,20.2-10.3,29.6-16.6c58.2-41.1,115.7-83.2,172.5-126.3c11.5-8.5,22.8-17.2,33.8-26.3
		c1-1.1,1.3-2.8,0.6-4.1c-3.2-4.9-7.5-8.8-12.6-11.5c-17.1-9.4-33.7-19.6-49.8-30.5c-41.7-26.8-85.1-50.9-129.9-72
		c-18-9.4-36.7-17.6-55.8-24.4c-2.4-0.9-5.2,0-6.7,2.2c-2,2.5-4.5,4.7-7.2,6.4c-1.1,0.4-2.3,0.4-3.2-0.2c-3-1.8-5.7-3.9-8.1-6.4
		c-9-14.3-22.9-24.7-39.1-29.2c-35.9-12-72.5-22.2-109.5-30.4c-13.2,1-26.2-3.4-35.9-12.3c-0.9-0.8-2.1-1-3.3-0.7
		c-1,0.3-2,0.7-3,1.1c-5.4,1.8-11.3,1.1-16.1-1.9c-50.9-16.4-103.5-26.9-157-31.4c-39.5-4.8-79.5-4.1-119,2.2
		c-8.6,0.7-17.1,2-25.6,3.7c-9.5,6.4-19,12.9-28.5,19.3c-1.3,1.1-1.8,2.7-1.5,4.3c0.8,2.5,2,5,3.4,7.2c1,1.4,1.5,3.1,1.4,4.9
		c-0.3,1.1-1,2-2,2.5c-4.7,1.7-9.5,3.2-14.4,4.5c-2.3,0.4-4.1,2.3-4.3,4.6c-0.2,6.7,0.8,13.3,3,19.5c5,10.6,7.7,22.2,7.9,34
		c-0.1,1.7-1.2,3.2-2.7,4c-9.3,4.3-18.8,7.9-28.7,10.7c-1.1,0.4-2.3,0.5-3.4,0.2c-1.7-0.7-3.4-1.4-5.1-2.2
		c-38-23.6-73.7-50.7-106.7-81c-7.6-8.8-17.4-15.5-28.3-19.6c-10.8-0.6-21.7-0.4-32.6,0.6c-9.5-0.5-19.1,2.1-27.2,7.4
		c-0.6,0.5-0.9,1.4-0.6,2.1c0.5,1.1,1.2,2.2,1.9,3.3c5.3,5.5,7.4,13.4,5.5,21c-0.2,1-0.9,1.9-1.9,2.2c-0.8,0.3-1.7,0.4-2.6,0.3
		c-8.7-1.6-17.6-2.6-26.5-3.2c-1.4-0.2-2.7-0.6-3.8-1.3c-0.8-0.6-1.2-1.5-1.1-2.5c0.3-2.4,0.6-4.7,0.9-7.1c0.3-1.4,0.1-2.8-0.6-4.1
		c-1.2-1.5-2.8-2.5-4.6-2.9c-15.6-1.4-31.3-0.8-46.8,1.6l-50.6,12.2c-43.7,12.2-87,26.3-129.6,42.2c-14.1,5.9-28.8,10.3-43.8,13.1
		c-10.4,4.9-20.7,10-31,15.2c-35.1,11-69,25.5-101.4,43.2c-36.2,20.6-71.8,42.2-106.8,64.9c-9.8,5-19,11.1-27.6,18.2
		c-1.9,1.6-2.4,4.3-1.3,6.5C1292.8,474,1295.6,477.2,1299,479.7z"/>
	<path class="accentcolor" d="M3262.3,1855.1c84.4-134.6,154.8-238.9,202-305.8c25.5-36.1,51-72.8,78.1-109.2c-1.5-7.2-3.5-14.3-6.1-21.1
		c-14.2-65.2-30.8-129.9-49.7-193.8c-2.2-10.2-6.4-19.8-12.4-28.2l-1.2-1.4l-1.4-4.4c-0.9-8.2-2.3-16.3-4.3-24.3
		c-5.3-10.5-7-22.6-5.1-34.3l0.5-2.1l-0.6-4.2c-1.2-4-2.7-8-4.3-11.9c-2.5-9.6-7.9-18.1-15.5-24.3c-10.8-3.6-19.6-11.4-24.4-21.7
		c-17.3-35.9-36-71-55.9-105.4c-13.9-26.2-28.2-52.1-43-77.7c-10.8-11.4-19-25.1-24-40.1c-9.5-13.2-17.8-27.3-24.7-42.1
		c-23.1-29.2-46.5-58.1-70.3-86.7c-6.1-6.8-12.8-13.1-19.8-18.8c-16.8-21.3-34.5-41.8-53.1-61.6c-23.4-21.8-47.5-42.9-72.3-63.2
		c-0.9-0.8-1.9-1.5-3-2c-0.7-0.2-1.6,0.1-2,0.7c-4.4,6.4-8.3,13.1-11.6,20.1c-36.2,82.3-69.6,165.8-100.2,250.3
		c-3.6,6.7-3.5,14.8,0.5,21.2c32.1,32,62.7,65.5,91.9,100.2c27.1,31.1,50.9,64.9,71.1,101c4.1,11.5,11.5,21.4,21.3,28.5
		c11,6.4,21.5,13.6,31.3,21.7c15.1,15,32.6,27.3,51.9,36.3c3.7,2.3,6.7,5.5,9,9.3c6.6,5.5,14.1,9.8,22.2,12.6
		c3.5,1.3,6.4,3.9,7.9,7.3c1.5,3.4,1.6,7.4,0.2,10.9c-0.1,0.3-0.4,0.6-0.7,0.8c-0.3,0.2-0.7,0.3-1.1,0.4c-1,0.1-2,0-2.9-0.4
		c-6.1-2.8-12.4-5.4-18.7-7.7c-14.7-2.9-29.4-6.3-43.8-10.3c-1.9-0.4-4,0.2-5.4,1.7c-4.2,6.1-4.6,14-1.1,20.3
		c7.9,18.9,15.3,38,22.3,57.3c6.2,26.6,18.6,51.2,36.1,71.8c5.9,6.3,10.3,13.9,12.8,22.2c3,11.2,5.6,22.6,7.8,34
		c-2.3,16.1-1.8,32.5,1.6,48.3c2,23.6,13.7,45,32.2,59.2c11.9,9.4,23.1,19.6,33.5,30.6c5,4.4,6.8,11.5,4.3,17.8
		c-0.4,0.9-1.3,1.4-2.2,1.4c-5.3-0.7-10.2-2.9-14.2-6.3c-7.7-8.6-16.1-16.5-25.3-23.5c-1-0.5-2.2-0.8-3.3-0.8
		c-3.1,0.5-5.6,3-6.2,6.1c-2.7,13.5-2.9,27.3-0.6,40.8c-0.4,9.4,3.5,18.4,10.5,24.5c2.8,1.7,4.4,5,3.9,8.4
		c-5.6,20.9-7.3,42.6-5.1,64c0.2,1.1,1,2.1,2,2.6c2.7,0.9,5.5,1.7,8.4,2.2c12.5,0.8,23.7,7.7,30,18.5c0.3,0.6,0.4,1.4,0.2,2.1
		c-2.1,4.4-7,6.8-11.6,5.7c-5.4-2.2-10.9-4-16.6-5.3c-1.1-0.3-2.3,0.1-3.2,0.9c-1.6,1.6-2.7,3.6-3.1,5.8c-1.5,9.8-2.9,19.7-4.2,29.5
		c0.3,8.9-1.8,17.7-6.2,25.6c-7.6,13.5-8.6,29.7-2.8,43.8c2.3,5.1,2.9,10.8,1.6,16.2c-2.2,4.7-4.1,9.5-5.6,14.4L3262.3,1855.1z
		 M3337.5,1365.6c-10.2-13.4-15.8-29.9-16-47c-3.5-18.4-10.2-36-19.7-52c-6.3-12.3-16.2-22.2-28.4-28.4c-8.4-7-14.7-16.1-18.2-26.5
		c-0.4-3,0.4-6,2.2-8.4c0.5-0.5,1.2-0.9,2-0.9c4.1,0.2,8.1,1.3,11.7,3.4c4.8,2.2,10.1,3.4,15.4,3.6c2.9,0,5.8,0,8.8,0.1
		c1.1,0.2,2.1,0.9,2.7,1.9c1.9,5.5,4.3,10.7,7.2,15.7c3,4.4,8,6.8,13.3,6.4c5.4-0.3,10.7,0.6,15.6,2.6c1.5,0.9,2.6,2.4,2.8,4.2
		c0.5,2.6,0.8,5.2,0.8,7.8c-0.1,1.3-0.8,2.4-1.8,3.1c-3,1.9-5.9,3.9-8.7,6c-0.9,0.7-1.5,1.6-1.7,2.7c-0.1,0.6,0,1.3,0.3,1.8
		c0.8,1.3,1.7,2.4,2.8,3.5c7.8,11.8,18.6,21.3,31.2,27.6c6.9,4.5,12.3,10.8,15.6,18.4c6.4,8.3,13.4,16,21.1,23
		c4.6,9.2,6.3,19.6,4.7,29.9c-0.7,1.9-2,3.4-3.7,4.3c-3.8,2.1-7.5,4.5-11,7.1c-0.9,0.8-1.3,1.8-1.3,3c0.7,3.5,2,6.9,3.8,10.1
		c3.9,6,6.3,13,6.8,20.3c-0.1,2.5-1,4.9-2.4,6.9c-0.6,0.8-1.7,1.3-2.7,1.1c-7-2.2-12.3-7.8-14.4-14.8c-2.6-9.6-7.8-18.3-15-25
		c-5.3-3.8-11.5-6.1-18-6.5c-1.8-0.5-3.3-1.6-4.4-3.1L3337.5,1365.6z"/>
</g>
<path class="maincolor" d="M8451.5,0.2c38.4-2.8,89.6,20.2,97.2,102.4c10,107.9,16.2,278.8,12.9,456.1c-0.4,19.2-14.9,38-33.9,40.6
	c-164.5,21.7-579.1,27.9-669.7,32.7c-218.1,11.4-272.3,46.8-302.9,75.3c-40.2,37.4-77.2,111.9-74.2,239.4
	c2.1,88.9,11.4,497.5,22.1,753.9c9.3,222.8,79.9,273.1,111.8,302.1c136.9,124.3,198.1,178.3,286.4,227
	c43.6,24,123.8,51.3,219.8,55.8c147.9,7,321.1,9.1,331.9,9.4c21.5,0.6,38.4,18.5,38.1,40c-1.4,93.1-11.6,269-19.1,326.4
	c-23.7,181.3-66.8,269-119.5,272c-137.7,7.8-242.8,16.2-254.4,16.6c-182.3,5.8-351.6-14.2-364.1,223.4c-1.5,28.7-13.3,56.3-42.1,57
	c0,0-1547.9,39.9-1602,41.3c-34.6,0.9-65-17.9-78.3-49.9c-331.1-795.8-754.1-1447.1-913.1-1672.3
	c-140.4-199-284.7-416.5-659.1-513.8c-7.8-2-12.9-9-12.9-17.1c0-13.1,0-959.6,0-977.1c0-10,8.1-18.1,18.1-18.1
	C6593.4,25.3,8190.9,19,8451.5,0.2z"/>
<g>
	<path class="accentcolor" d="M7380.6,2780.5c52.2-46.7,101.5-96.4,147.8-149.1c61.3-66.9,116.1-139.6,163.7-217.1
		c39.3-64.8,74-132.4,103.9-202.3c1.6-4.1,2.9-8.4,3.8-12.8c0.1-1.1-0.4-2.2-1.2-3c-2-2.9-5.6-4.4-9-3.7c-75.5,1-150.9,2.3-226.4,4
		c-11.8,0.5-22.2,7.7-26.7,18.6c-26.3,52.8-56.8,103.3-91,151.1c-3.9,5.7-7.3,11.7-10.2,18c-0.6,1.5,0,3.2,1.4,4.1
		c2.1,1.3,4.4,2.3,6.8,3c0.8,0.3,1.6,0.7,2.3,1.2c0.8,0.7,1,1.8,0.5,2.8c-4.4,8.3-10,15.8-16.7,22.2c-0.9,0.7-2.1,1-3.3,0.8
		c-13.5-2.4-26.9,3.5-34.1,14.9c-23.3,30.1-49,58.2-76.8,84.1c-22.6,22.8-46.1,44.7-70.5,65.6c-13.6,8.9-27,18.2-40.1,28
		c-22.3,19.5-46,37.4-70.7,53.7c-60.5,40.5-124.3,75.9-190.9,105.6c-47.7,22.1-96.1,42.5-145.3,61.2c-12.3,7.4-24.1,15.6-35.3,24.6
		c-2.1,1.3-4.8,0.8-6.3-1.2c-2.7-3.1-5.6-6.2-8.4-9.2c-3.8-2.8-8.8-3-12.7-0.6c-10,3.9-17,13.1-18.2,23.9c-3,9.2-10,16.4-19,19.7
		c-8.3,3.8-16.1,8.6-23.2,14.3c-9.9,13.3-16.6,28.7-19.7,45.2c-11.4,42-23.3,83.8-35.6,125.5c-3.1,6.9-4.4,14.4-3.9,22
		c0.2,1.4,1.3,2.6,2.7,3c11.9,1.2,23.9,0.7,35.6-1.6c49.2-8.5,98.2-18.4,146.8-29.7c158.4-38.8,308.6-103.9,444.8-192.5
		c32.8-20.6,65.1-42,97-64.1C7355,2800.6,7367.8,2790.5,7380.6,2780.5z M6939.6,2864.9c1,2.3,1.2,4.9,0.4,7.3
		c-9.2,17.8-22.5,33-38.8,44.4c-11.6,6-23.6,11.3-35.9,15.7c-20.1,11.2-38.6,25-55.1,41c-0.8,1-1.7,1.8-2.8,2.5
		c-0.4,0.3-1,0.3-1.4,0.1c-0.6-0.4-1-0.9-1.3-1.5c-2.7-6.5-4.7-13.3-5.8-20.2c-0.4-1.8,0.2-3.6,1.6-4.8
		c13.9-11.6,28.2-22.7,42.9-33.2c11.2-4.9,21.5-11.5,30.8-19.4c7-8.5,15.4-15.6,25-20.9c7.7-4.9,14.7-10.8,20.8-17.5
		c3.3-2.8,7.6-4.1,12-3.6C6935.9,2856.7,6938.8,2860.5,6939.6,2864.9z"/>
	<path class="accentcolor" d="M5395.4,2010.3c35.8,59.6,73.1,123.2,111.5,190.5l354.7-12.2c12.4-2.4,23.5-9,31.4-18.9
		c2.8-3.3,6.9-5.3,11.2-5.6c3.8,0.8,6.9,3.5,8.4,7.1c2.2,5.2,5.8,9.7,10.3,13c9.5,2.5,19.3,3.1,28.9,1.9c67.2-1.8,134.4-4,201.5-6.7
		c13.1-1.7,26.4-2.1,39.6-1.2c6.7,2.5,11.8,8.3,13.3,15.3c8.2,27.3,18.3,54,30.3,79.9c1.8,5.9,6.4,10.7,12.2,12.7
		c1.9,0.2,3.7-0.4,5-1.7c5.2-5.8,11.3-10.7,18.2-14.3c2-0.8,4.1-1.2,6.2-1.2c0.6,0.1,1.3,0.3,1.8,0.7c0.4,0.3,0.7,0.8,0.8,1.3
		c0,4-1.5,7.8-4.3,10.6c-6.4,7.3-13.2,14.3-20.3,21c-2.7,3.3-3.7,7.8-2.7,12c3.9,21.3,10.8,42,20.4,61.6
		c12.4,30.8,23.6,62,33.6,93.6c9.2,27.8,19.1,55.4,29.7,82.7c3.6,15.8,7.4,31.6,11.6,47.2l178.9,478.8c2.3,5.7,5,11.2,8.1,16.5
		c0.4,0.6,0.9,1.1,1.5,1.5c0.5,0.3,1,0.4,1.6,0.2c1.2-0.4,2.2-1,3.1-1.9c4.9-5.8,7.9-13.1,8.6-20.8c16.2-55.4,32.9-110.6,50.1-165.6
		c19.4-60.3,37.9-120.9,55.4-181.8c13.2-37.1,24.4-74.9,33.3-113.4c0.8-4,1.3-8.1,1.3-12.2l-0.4-3.3c-0.1-0.2-0.3-0.5-0.5-0.6
		c-0.2-0.1-0.5-0.2-0.8-0.2c-0.6,0.1-1.2,0.3-1.6,0.8c-7.1,9.2-13.8,18.7-20.1,28.4c-15.2,20.8-34.9,37.7-57.8,49.5
		c-10.1,6.9-18.9,15.7-25.8,25.9c-2.3,2.3-4.8,4.5-7.4,6.4c-0.5,0.4-1.2,0.6-1.8,0.6c-0.6,0-1.2-0.3-1.5-0.8c-0.8-1.4-1.2-3-1.2-4.6
		c1-10.8,6.3-20.7,14.6-27.5c9.4-8.5,19.1-16.6,29.1-24.5c5.6-8.3,13.8-14.4,23.5-17.3c7.6-5.6,13.5-13.1,17.3-21.7
		c10.3-12.9,22.6-24,36.5-32.9c10.4-8.3,17.5-20.1,19.9-33.4c37-120,73.3-240.3,109.1-360.8c2.2-6.8,4.7-13.5,7.6-20
		c0.8-1.5,2.3-2.6,4-3c22.1-2.2,44.3-3.3,66.6-3.1l855-32c-38.4-32.2-82.6-72-140.1-124.3c-15-13.7-38.7-32.1-60.5-71.1
		c-20-14.3-40.1-28.4-60.3-42.6c-44.8-33.3-89.8-66.4-134.9-99.1c-13.2-9.4-27.7-16.7-43-21.6c-1.1-0.4-2-1.3-2.5-2.3
		c-2-4.4-4.7-8.5-8.1-12c-1.4-1.2-3.1-1.9-4.9-1.9c-2.2-0.1-4.4-0.4-6.5-1c-5.3-2.3-9.8-6.1-13-10.9c-1.5-1.7-3.2-3-5.2-3.8
		c-0.7-0.2-1.4-0.2-2.1,0c-2.4,1.2-4.6,2.7-6.6,4.4c-26.1,19.7-50.4,41.7-72.6,65.8c-2.1,1.8-4.6,3-7.4,3.3c-1.5,0-2.8-1.2-3-2.7
		c-0.3-9.5,3.1-18.7,9.4-25.6c8.6-9.7,16.8-19.7,24.5-30.2c2.8-6.3,5.6-12.5,8.5-18.7c1.1-1.5,2.9-2.4,4.8-2.4c4.6,0,9.2,0,13.8-0.1
		c3.3,0,6.2-1.9,7.5-4.9c1.3-3,0.8-6.5-1.3-9c-12-13.8-25.7-26-40.7-36.4c-53.7-39-107.6-77.6-161.6-116
		c-8.7-5.3-15.4-13.3-19.1-22.8c-0.5-5.5,0.3-11.1,2.2-16.3c2.1-5.1,2.2-10.8,0.1-16c-1.2-2.2-2.2-4.4-3.2-6.6
		c-1.1-3.2-0.7-6.7,1.1-9.5c7.3-12.9,14.9-25.7,22.9-38.2c5.1-10.5,8.4-21.8,10-33.4c-0.4-3.3-1.2-6.6-2.3-9.8
		c-2-8.1-0.1-16.5,5.2-22.8c10.1-14.2,17.4-30.3,21.5-47.4c1.1-8.1-0.7-16.5-5.2-23.5c-0.7-0.9-1.8-1.5-3-1.4
		c-4,0.8-7.8,2.4-11.1,4.6c-20.7,15.1-39.2,33-55,53.2c-9,10.9-18.5,21.3-28.4,31.3l-2.8,2.1l-1.7,0.1c-1.3,0-2.5-0.3-3.6-0.9
		c-2.1-0.8-4.3-1.7-6.4-2.6c-1.1-0.4-2.2-0.2-3.1,0.4c-10.1,9.3-20.8,18-31.9,26c-5.4,2.5-11.2,4-17.1,4.5
		c-9.6,4.5-17.5,12-22.4,21.4c-3,12.1-11.6,21.8-23.1,26.1c-9.8,6.1-18.6,13.6-26.3,22.3c-9.7,6.3-19.5,12.3-29.5,18.1
		c-11.7,8.9-22.2,19.2-31.2,30.8c-7.4,6.8-16.4,11.4-26.2,13.5c-17.8,5.3-34.7,13.4-49.9,24.1c-17.8,12.7-36.8,23.7-56.7,32.8
		c-0.9,0.3-1.9,0.5-2.8,0.6c-0.9,0.1-1.8-0.4-2.2-1.2c-0.5-1.1-0.6-2.4-0.3-3.6c2.8-9.1,9-16.6,17.3-21.1
		c16.7-10.2,33.6-19.8,50.9-29c16.5-11.1,32.6-23,48.2-35.4c14.9-11,27.5-24.8,37.1-40.8c10-8.4,21.6-14.5,34.2-18.1
		c23.4-10.4,44.5-25.4,61.9-44.3c13.9-13.6,29.8-25,47.3-33.6c9.8-5.4,16.7-14.8,19-25.9c0.8-2.1,1.9-4.1,3.2-5.8
		c0.5-0.6,1.2-0.9,2-1.1c1.4-0.1,2.9-0.1,4.3,0.1c6.1,1,12.2,1.6,18.3,1.6c1.9-0.3,3.6-1.4,4.6-3c9-11.6,20.5-21.1,33.6-27.7
		c9.6-8.4,18.8-17.2,27.8-26.2c4.2-3.4,8.5-6.6,12.9-9.8l2.3-2.4c0.9-2.6,2.4-5,4.2-7.1c7.1-5.4,15.7-8.7,24.6-9.6l2-0.4
		c1.8-0.5,3.3-1.7,4.1-3.4c4.8-16,9.1-32.1,13-48.3c0.8-5.7-1.7-11.5-6.4-14.9c-0.6-0.4-1.4-0.4-2-0.1c-1.4,0.7-2.5,1.8-3.3,3.1
		c-1.1,1.3-1.8,2.8-2,4.5c-0.1,0.8-0.4,1.5-1,2.1c-0.3,0.3-0.6,0.5-1,0.7c-0.8,0.4-1.6,0.7-2.4,0.9c-0.9,0.3-1.9,0.1-2.7-0.5
		c-5.2-5.4-7.4-13-5.9-20.3c0.2-5.2,1.1-10.3,2.7-15.1c4-5.7,10.1-9.4,17-10.5c13-5,23.4-14.9,29.1-27.6
		c8.3-17.6,14.6-36.1,18.8-55.2c14.6-50.5,29.7-100.8,45.1-151c5.1-7.7,5.5-17.8,0.9-26.1c-0.4-0.9-1-1.6-1.8-2.2
		c-0.6-0.4-1.3-0.5-1.9-0.3c-1.4,0.6-2.7,1.6-3.6,2.9c-12.9,14.4-26.9,27.9-41.8,40.3c-22.8,23.5-47.3,45.1-73.5,64.7
		c-7.6,8.2-14.6,16.9-20.9,26.1c-13,16.2-29,29.8-47.1,39.9c-9.8,3.7-20.4,4.9-30.9,3.5c-3.6-1.4-6.8-3.7-9.2-6.8
		c-1.1-1.6-1.4-3.6-0.8-5.3c4.9-10.9,13.2-19.8,23.7-25.3c14.6-7.6,28.5-16.3,41.8-26c10.5-9.1,20.7-18.7,30.5-28.6
		c13.7-9.1,27.9-17.4,42.6-24.9c38.9-23.8,69.9-58.5,89.5-99.9c1.4-3.8,1-8.1-1-11.6c-4.7-9.2-2-20.3,6.4-25.8
		c10.1-7.8,20.1-15.6,30.2-23.4c9.1-10.2,15.1-22.8,17.4-36.4c23.1-79.9,46.7-159.7,70.6-239.4c2-3.7,2.4-8,1-12.1
		c-0.2-0.7-0.6-1.3-1.2-1.8c-0.2-0.1-0.4-0.2-0.6-0.2c-0.4,0-0.7,0.1-1.1,0.2c-13.4,8.2-26.1,17.3-38.2,27.3
		c-22.4,19.4-45.2,38.2-68.4,56.5c-56.5,40.3-111.9,82.3-165.9,125.8l-227.2,171c-51.6,40.8-103.3,81.4-155.2,122
		c-38.8,27.7-76.7,56.7-113.7,86.8c-19.1,16.5-38.9,32.1-59.3,46.9c-1.5,1-3.4,1-5,0.2c-33-20.5-65.2-42.1-96.6-65
		c-144-103.8-289-206.2-434.9-307.2c-24.7-17.8-49.6-35.1-74.9-52c-6.8-3.5-14.4-5-21.9-4.3c-3.3-0.2-6.5-1.6-8.8-4
		c-0.8-1.1-1.1-2.5-0.9-3.8c0.8-7.7-3.2-15.2-10.1-18.8c-67.3-47.7-134.5-95.6-201.4-143.7c-13.7-9.8-27.8-19-42.3-27.5
		c-0.7-0.4-1.5-0.6-2.3-0.7c-0.6,0-1.2,0.4-1.4,1c-0.3,0.8-0.3,1.7-0.2,2.6c7.4,30,16.7,59.5,27.8,88.3
		c26.6,71.6,53.6,143,80.9,214.3l48.2,136.3c3,7.1,7,13.7,11.8,19.8c0.3,0.4,0.8,0.7,1.4,0.7c0.5,0,1.1-0.3,1.4-0.7
		c5.8-6.3,10.6-13.5,14.2-21.3c7.8-9.3,17.3-17,28-22.8c1.5-1,2.9-2.1,4.4-3.2l1.4-1.1c0.7-0.8,1.2-1.9,1.3-3c0.1-4,0.3-8,0.8-11.9
		c1.5-4.3,4.6-7.8,8.6-9.8c0.9-0.8,2-1.3,3.2-1.6c0.5-0.1,1.1-0.2,1.6-0.1c0.5,0.1,1,0.2,1.4,0.5c3.1,1.8,5.1,5,5.5,8.6
		c0.1,1.1,0.5,2.2,1.1,3.2c0.2,0.2,0.4,0.4,0.7,0.5c0.3,0.1,0.7,0.1,1,0c2.4-1.2,4.7-2.6,6.8-4.3c1.9-1.4,3.9-2.6,5.9-3.8
		c1.1-0.7,2.2-1.3,3.4-1.7c1-0.2,2,0.1,2.6,0.9c1.6,3.1,2.1,6.6,1.3,9.9c-1.6,8.6-4.1,17-7.4,25.1c-0.4,0.7-1,1.2-1.7,1.6l-1,0.3
		c-1.9-0.2-3.7-0.7-5.4-1.5c-4.4-2.3-8.8-4.6-13.1-7.1c-0.9-0.5-2-0.4-2.8,0.2c-1.9,1.6-3.5,3.4-5,5.3
		c-15.8,17.2-31.2,34.7-46.3,52.5c-4.6,11.6-4.3,24.6,0.8,36.2c30.9,81.9,61.4,164,91.3,246.3l55.7,151.6
		c6.2,10.3,11.8,20.9,16.5,32c3,10.8,7.9,21.1,14.4,30.2c1.2,1.5,3.1,2.3,5,2.1c14.3-5.1,29-9.1,43.9-11.9c1.7-0.2,3.5,0.2,4.9,1.2
		c0.7,0.6,1.1,1.4,1,2.3c-0.9,4-2.9,7.6-5.8,10.4c-5.9,7.9-12.8,14.9-20.7,20.8c-1.5,1-3.3,1.4-5.2,1.2c-4.7-0.6-9.5-0.7-14.3-0.5
		c-1.2,0.1-2.4,0.6-3.1,1.6l-0.6,1c-0.6,3.3-0.4,6.8,0.8,10.1c0.4,2,0.9,3.9,1.3,5.9c0.7,1.9,0.6,3.9-0.2,5.7
		c-3.6,7.5-9.1,13.9-16.1,18.4c-17.8,13.5-36.4,26.1-55.5,37.7c-29.1,21.7-57.1,44.7-84.1,68.9c-42.5,35.7-86.8,69.3-132.8,100.6
		c-32.5,26.1-64.7,52.5-96.6,79.3L5395.4,2010.3z M7088.4,1856.1c-0.8,0.9-1.6,1.9-2.4,2.8c-8.6,8.1-15.9,17.6-21.5,28.1
		c-10.2,18.2-28.8,29.9-49.6,31.4c-0.5,0-0.9-0.2-1.3-0.5c-0.4-0.3-0.6-0.8-0.7-1.2c-0.1-1.4,0-2.8,0.4-4.2
		c3.9-10.5,3.5-22.3-1-32.8c-0.4-1.2-0.7-2.4-1-3.6c-0.1-1.7,0.6-3.3,1.9-4.4c2.8-2.4,5.7-4.7,8.6-6.9
		c19.8-13.2,37.3-29.6,51.6-48.7c17.3-16.8,35.2-33,53.8-48.4c0.9-0.8,1.9-1.5,2.9-2c0.4-0.2,0.9-0.1,1.3,0.1c0.5,0.4,1,1,1.2,1.6
		c1.1,2.9,1.5,6,1.1,9.1c-2.7,7.4-5,15-6.9,22.8c-0.1,1.5-0.6,2.9-1.4,4.1c-5.9,6.2-11.5,12.8-16.7,19.7
		C7103,1834.7,7096.2,1845.8,7088.4,1856.1z"/>
	<path class="accentcolor" d="M7483,1037.1c-1-40.9-1.7-72.4-2.1-90.5c-2.8-119,29.2-191.8,66.2-231.4c-17.1-19.2-34.1-38.4-51-57.7
		c-7.9-8.8-16.4-17.1-25.4-24.8c-7.3-3.2-15.3-4.1-23-2.3c-2.7,0.3-5.3,0.2-8-0.1c-0.8-0.1-1.6-0.5-2.1-1.2
		c-0.5-0.7-0.8-1.5-0.6-2.3c0.5-3.3,1.4-6.5,2.5-9.7l0.5-2c1.3-3,0.9-6.6-1.1-9.3c-9.5-14.6-21-27.9-34.1-39.4
		c-2.3-1.8-4.8-3.4-7.4-4.7c-1.8-0.9-4-0.2-5,1.5c-8.8,14.7-14.1,31.4-15.5,48.7c-2.2,19.5-6,38.7-11.3,57.5
		c-3.5,7.5-8.2,14.3-14.1,20.1c-0.9,0.9-1.5,2.1-1.7,3.3c-6.2,25.1-14,49.7-23.2,73.8c-5.7,15.3-9.1,31.3-10.2,47.7
		c1.5,10,4.2,19.8,8,29.3c5.2,13.4,13.5,25.4,24.1,35.1c19.7,21.5,39.3,43,58.8,64.7c10.3,13.2,20.1,26.7,29.3,40.6
		c10.8,17.3,22.9,33.8,36.2,49.3C7475.3,1036.1,7479.2,1037.5,7483,1037.1z"/>
	<path class="accentcolor" d="M5722.2,2599.1c64.7,126.6,129.6,260.6,192.6,400.3c4.7,1.9,9.4,3.8,14.1,5.6c38.4,16.9,78.3,29.8,119.1,38.7
		c61.8,16.2,123.8,32,185.7,47.6c34.8,6.7,69.8,11.6,105,14.8c19,2.4,38,4,57,4.8c21.7,2.1,43.6,2.5,65.3,1.2c3.5,0,6.8-1.7,8.7-4.6
		c0.5-1.1,0.6-2.4,0.2-3.6c-5.2-20.3-11.6-40.4-18.9-60.1c-19.5-55.8-41.6-110.7-66.3-164.5c-1.5-3.2-3.3-6.3-5.4-9.2
		c-0.7-0.9-1.8-1.6-3-1.8c-40-3.7-79.9-8.3-119.8-13.6c-68.7-18.8-137.4-38.1-205.8-57.9c-32.6-12.6-64.6-26.9-95.7-42.9
		c-10.5-5.4-22.6-6.6-33.7-3.3c-12.4,6.4-23.8,14.6-33.9,24.3c-10.8,10.2-23.9,17.5-38.3,21.4c-6.3,1.2-12.9-1-17.3-5.8
		c-0.9-1.4-0.8-3.3,0.4-4.4c5.4-7.1,13.9-11.3,22.9-11.3c10.9-1.3,20.2-8.4,24.3-18.6c5.5-9.3,10.6-18.8,15.4-28.5
		c0.7-1.4,0.3-3.2-1-4.1c-26.5-19.7-53.9-38.1-82.1-55.2C5781.1,2646.5,5751.2,2623.4,5722.2,2599.1z"/>
	<path class="accentcolor" d="M7263.5,479.7c3.4-2.6,6.2-5.7,8.5-9.3c1.1-2.2,0.5-4.9-1.3-6.5c-8.5-7-17.8-13.1-27.6-18.2
		c-35-22.7-70.6-44.3-106.8-64.9c-32.4-17.7-66.3-32.2-101.4-43.2c-10.2-5.2-20.6-10.3-31-15.2c-15-2.8-29.7-7.2-43.8-13.1
		c-42.6-15.9-85.9-30-129.6-42.2l-50.6-12.2c-15.5-2.4-31.2-3-46.8-1.6c-1.8,0.5-3.4,1.5-4.6,2.9c-0.7,1.2-0.9,2.7-0.6,4.1
		c0.3,2.4,0.6,4.7,0.9,7.1c0.1,1-0.3,1.9-1.1,2.5c-1.2,0.7-2.5,1.1-3.8,1.3c-8.9,0.5-17.7,1.6-26.5,3.2c-0.9,0.1-1.8-0.1-2.6-0.3
		c-1-0.4-1.7-1.2-1.9-2.2c-1.9-7.6,0.2-15.5,5.5-21c0.7-1,1.4-2.1,1.9-3.3c0.3-0.7,0.1-1.6-0.6-2.1c-8.1-5.3-17.6-7.9-27.2-7.4
		c-10.8-0.9-21.7-1.1-32.6-0.6c-10.9,4.1-20.7,10.8-28.3,19.6c-33,30.3-68.7,57.4-106.7,81c-1.7,0.8-3.4,1.5-5.1,2.2
		c-1.1,0.3-2.3,0.2-3.4-0.2c-9.8-2.8-19.4-6.4-28.7-10.7c-1.6-0.8-2.6-2.3-2.7-4c0.2-11.8,2.9-23.4,7.9-34c2.2-6.2,3.2-12.9,3-19.5
		c-0.2-2.3-2-4.3-4.3-4.6c-4.9-1.2-9.7-2.7-14.4-4.5c-1-0.4-1.8-1.4-2-2.5c-0.1-1.7,0.4-3.5,1.4-4.9c1.4-2.3,2.6-4.7,3.4-7.2
		c0.3-1.6-0.3-3.2-1.5-4.3c-9.5-6.4-19-12.8-28.5-19.3c-8.5-1.8-17-3-25.6-3.7c-39.5-6.2-79.6-7-119-2.2
		c-53.5,4.5-106.1,15-157,31.4c-4.8,3-10.7,3.7-16.1,1.9c-1-0.4-2-0.7-3-1.1c-1.2-0.3-2.4-0.1-3.3,0.7c-9.7,8.9-22.6,13.4-35.9,12.3
		c-37,8.3-73.6,18.4-109.5,30.4c-16.2,4.6-30.1,15-39.1,29.2c-2.4,2.5-5.1,4.7-8.1,6.4c-1,0.6-2.2,0.7-3.2,0.2
		c-2.8-1.7-5.2-3.8-7.2-6.4c-1.5-2.2-4.3-3.1-6.7-2.2c-19.2,6.8-37.8,15-55.8,24.4c-44.8,21.2-88.2,45.2-129.9,72
		c-16.1,10.9-32.7,21.1-49.8,30.5c-5.1,2.7-9.5,6.7-12.6,11.5c-0.6,1.4-0.4,3,0.6,4.1c11,9.1,22.3,17.9,33.8,26.3
		c56.8,43.1,114.3,85.2,172.5,126.3c9.4,6.3,19.3,11.9,29.6,16.6c5.8,1.1,11.7-0.3,16.2-3.9c24.2-13.6,49.2-25.8,74.9-36.6
		c28.2-11.3,55.8-24,82.6-38.2c7.1-6.1,13.1-13.3,17.9-21.3c7.1-10.7,16.2-19.9,26.7-27.3c0.9-0.5,1.8-0.8,2.7-1
		c1.2-0.2,2.4,0.2,3.1,1.2c2.5,3.1,2.7,7.4,0.5,10.6c-5.2,6.8-10.8,13.3-16.9,19.3c-1,1.2-1.8,2.6-2.1,4.2c0,0.4,0.1,0.8,0.4,1
		c0.4,0.4,1,0.6,1.6,0.7c4-0.3,8-1.2,11.7-2.7c19.5-7.4,40.1-11.8,61-12.8c14.1-2.8,27.9-6.8,41.2-12.1c17.6-5.7,33.9-14.9,48-26.9
		c2.3-1.7,4.8-3.1,7.4-4.2c1.1-0.4,2.3-0.2,3.3,0.6c1.8,2.5,2.6,5.6,2.3,8.6c-0.1,2.5,0.4,5,1.5,7.3c0.4,0.6,1,1.1,1.8,1.3
		c1.4,0.2,2.8,0.2,4.2,0c11-1,21.7-3.9,31.6-8.8c12.1-0.8,24.3-1,36.4-0.6c14-1,27.9-2.7,41.7-5c14.1,1.3,28.2,2.7,42.3,4.1
		c9.9,0,19.3,4.7,25.3,12.7c1.4,1.3,3,2.4,4.7,3.2c9.3,1.4,18.8-0.3,26.9-4.9c24.9-6.8,50.9-9.3,76.9-7.5c14-1.7,27-7.4,37.7-16.5
		c12.2-8.2,25.1-15.4,38.5-21.3c3.2-1.6,6.9-1.8,10.2-0.6c2.2,1.7,2.7,4.8,1.1,7c-0.6,0.9-1.4,1.7-2.3,2.3
		c-7.7,3.8-14.3,9.4-19.2,16.4c-1.6,2.7-2,5.9-1,9c1,3,3.3,5.4,6.3,6.6c9.2,4,18.5,7.7,27.9,11c11.4,7.8,24.6,12.2,38.3,12.8
		c59.2,7.6,117.7,20.9,174.6,39.7c45.6,14.5,90.1,32.4,133.1,53.5c11.3,6.1,22.7,12.1,34.1,18c8.4,2.1,17.2,0.1,23.7-5.5
		c40.6-26.3,79.9-54.5,117.9-84.4C7209.1,521.8,7236.4,500.9,7263.5,479.7z"/>
	<path class="accentcolor" d="M5020.1,1440.1c27.1,36.5,52.6,73.2,78.1,109.2c47.2,66.8,117.6,171.2,202,305.8l-6-41.7
		c-1.6-4.9-3.4-9.7-5.6-14.4c-1.2-5.5-0.6-11.2,1.6-16.2c5.8-14.1,4.8-30.3-2.8-43.8c-4.3-7.9-6.5-16.7-6.2-25.6
		c-1.3-9.9-2.7-19.7-4.2-29.5c-0.5-2.2-1.6-4.2-3.1-5.8c-0.9-0.8-2.1-1.1-3.2-0.9c-5.7,1.3-11.2,3.1-16.6,5.3
		c-4.7,1.1-9.5-1.3-11.6-5.7c-0.2-0.7-0.1-1.5,0.2-2.1c6.3-10.8,17.5-17.7,30-18.5c2.8-0.6,5.6-1.3,8.4-2.2c1-0.5,1.8-1.5,2-2.6
		c2.2-21.4,0.4-43.1-5.1-64c-0.5-3.4,1-6.6,3.9-8.4c7.1-6,10.9-15,10.5-24.5c2.3-13.5,2.1-27.3-0.6-40.8c-0.6-3.1-3.1-5.6-6.2-6.1
		c-1.2,0-2.3,0.2-3.3,0.8c-9.1,7-17.6,14.9-25.3,23.5c-4,3.4-9,5.6-14.2,6.3c-0.9,0-1.8-0.5-2.2-1.4c-2.5-6.4-0.7-13.5,4.3-17.8
		c10.4-11,21.6-21.2,33.5-30.6c18.6-14.2,30.3-35.6,32.2-59.2c3.4-15.8,3.9-32.2,1.6-48.3c2.1-11.4,4.7-22.8,7.8-34
		c2.5-8.3,6.9-15.9,12.8-22.2c17.5-20.6,29.9-45.2,36.1-71.8c7-19.3,14.5-38.4,22.3-57.3c3.5-6.4,3.1-14.2-1.1-20.3
		c-1.4-1.4-3.5-2.1-5.4-1.7c-14.5,4-29.1,7.4-43.8,10.3c-6.3,2.3-12.6,4.9-18.7,7.7c-0.9,0.4-1.9,0.5-2.9,0.4
		c-0.4,0-0.7-0.2-1.1-0.4c-0.3-0.2-0.5-0.5-0.7-0.8c-1.4-3.6-1.3-7.5,0.2-10.9c1.5-3.4,4.4-6.1,7.9-7.3c8.1-2.8,15.6-7.1,22.2-12.6
		c2.2-3.8,5.3-6.9,9-9.3c19.3-9,36.9-21.3,51.9-36.3c9.8-8.1,20.2-15.4,31.3-21.7c9.8-7.1,17.2-17.1,21.3-28.5
		c20.2-36.1,44-69.9,71.1-101c29.1-34.8,59.8-68.2,91.9-100.2c3.9-6.4,4.1-14.5,0.5-21.2c-30.6-84.5-64-167.9-100.2-250.3
		c-3.3-7-7.2-13.7-11.6-20.1c-0.5-0.6-1.3-0.9-2-0.7c-1.1,0.5-2.1,1.1-3,2c-24.7,20.3-48.8,41.4-72.3,63.2
		c-18.6,19.7-36.3,40.3-53.1,61.6c-7.1,5.8-13.7,12.1-19.8,18.8c-23.7,28.6-47.2,57.6-70.3,86.7c-7,14.8-15.2,28.9-24.7,42.1
		c-5.1,15-13.3,28.7-24,40.1c-14.8,25.6-29.1,51.6-43,77.7c-20,34.4-38.6,69.5-55.9,105.4c-4.9,10.3-13.7,18.1-24.4,21.7
		c-7.6,6.2-13,14.7-15.5,24.3c-1.6,3.9-3.1,7.9-4.3,11.9l-0.6,4.2l0.5,2.1c2,11.8,0.2,23.8-5.1,34.3c-1.9,8-3.4,16.1-4.3,24.3
		l-1.4,4.4l-1.2,1.4c-6,8.4-10.2,18-12.4,28.2c-18.9,63.9-35.4,128.6-49.7,193.8C5023.6,1425.8,5021.5,1432.9,5020.1,1440.1z
		 M5225,1365.6l-1.1,1.4c-1.1,1.5-2.6,2.6-4.4,3.1c-6.5,0.5-12.7,2.7-18,6.5c-7.2,6.8-12.4,15.4-15,25c-2,7.1-7.4,12.6-14.4,14.8
		c-1,0.1-2.1-0.3-2.7-1.1c-1.4-2-2.3-4.4-2.4-6.9c0.5-7.3,2.8-14.2,6.8-20.3c1.8-3.1,3.1-6.5,3.8-10.1c0-1.1-0.5-2.2-1.3-3
		c-3.5-2.6-7.2-5-11-7.1c-1.8-0.9-3.1-2.4-3.8-4.3c-1.6-10.3,0.1-20.8,4.7-29.9c7.7-7,14.7-14.7,21.1-23c3.3-7.5,8.7-13.9,15.6-18.4
		c12.6-6.3,23.4-15.8,31.2-27.6c1.1-1,2-2.2,2.8-3.5c0.3-0.5,0.4-1.2,0.3-1.8c-0.3-1.1-0.9-2-1.7-2.7c-2.8-2.1-5.7-4.1-8.7-6
		c-1-0.7-1.7-1.9-1.8-3.1c0-2.6,0.2-5.2,0.8-7.8c0.2-1.8,1.2-3.3,2.8-4.2c4.9-2,10.3-2.8,15.6-2.6c5.3,0.4,10.4-2,13.3-6.4
		c2.9-5,5.3-10.2,7.2-15.7c0.6-1,1.6-1.7,2.7-1.9c2.9-0.1,5.8-0.1,8.8-0.1c5.3-0.2,10.6-1.4,15.4-3.6c3.5-2.1,7.5-3.3,11.7-3.4
		c0.7,0,1.5,0.3,2,0.9c1.8,2.4,2.6,5.5,2.2,8.4c-3.5,10.4-9.8,19.6-18.2,26.5c-12.2,6.2-22.2,16.1-28.4,28.4
		c-9.5,16-16.2,33.6-19.7,52C5240.8,1335.7,5235.2,1352.1,5225,1365.6z"/>
</g>
</svg>
