<?xml version="1.0" encoding="utf-8"?>
<!-- Generator: Adobe Illustrator 27.9.1, SVG Export Plug-In . SVG Version: 6.00 Build 0)  -->
<svg class="w" version="1.1" xmlns="http://www.w3.org/2000/svg" xmlns:xlink="http://www.w3.org/1999/xlink" x="0px" y="0px"
	 viewBox="0 0 8571.1 1988.5" style="enable-background:new 0 0 8571.1 1988.5;" xml:space="preserve">
     $gradientDefs

     <path class="maincolor" d="M8533.2,1976.6c47.5-0.7,49.7-22.2,10.2-45c-94.7-54.8-236.5-150.9-376.9-299.4
	c-34.4-36.4-90.5-92.4-106.3-351.3c-12.5-204.4-40.9-854.1-32.9-957.2c9.9-128.2,54.7-220.1,101.5-263.5c35.6-33,2.5-51.8-40.7-52
	c-126.1-0.6-5539.3-24.8-6758,12.4c-232.1,7.1-598.4,56.3-757.4,95C460,143.1,184.7,232.1,74,305c-142.3,93.7-51.2,103.3,38.4,96.5
	c609.2-46.4,1591.7-68.3,2447.6-69.3c856-1,1706.9,30.1,2278,46c807.4,22.5,1419.9,56.2,1482.6,58.9
	c120.1,5.1,144.8,19.6,147.5,104.7c8.3,267.1,28.1,642.7,32.8,771.5c10.3,283.3,69.4,313.3,105.2,347.5
	c239.5,229.2,421.6,327.6,421.6,327.6S8361.3,1979.3,8533.2,1976.6z"/>
<path class="accentcolor" d="M8404.4,1902L8404.4,1902c1.6-2.9,0.8-6.3-1.9-8.1c-96.8-67.6-186.4-144.9-267.6-230.8
	c-24.2-24-44.2-51.9-59-82.7c-14.7-30.9-25.8-63.3-33.1-96.7c-14.8-65.9-23.7-133.1-26.8-200.6c-13.9-245.8-24.4-491.8-31.5-737.9
	c-3.1-74.5-3.5-149.2-1.4-223.8c3.4-47.1,12.1-93.7,26-138.8c7.9-25.6,18.1-50.4,30.4-74.1c10-20,22.3-38.9,36.5-56.2
	c-1103.9-4.7-2207.9-7.4-3311.9-8.2c-804.9-1.2-1609.8,0.8-2414.7,6C2010.3,52,1671,56.9,1331.8,64.9
	c-283.4,6.7-582.2,54-748.8,93.8c-82.3,19.7-162.8,46.3-242.4,75.1c-39,14-77.6,28.9-115.8,44.7c-40.6,16.5-87.4,38.6-126.1,63.3
	c-1.7,1.1-2.3,3.3-1.5,5.2c0.6,1.4,1.8,3.2,4.8,2.2c100.5-35.8,490.7-168.4,1233.1-196c338.1-12.6,676.6-12.8,1015-14.6
	c804.7-4.7,1609.4-6.7,2414.1-6c1055.3,0.7,2110.7,3.2,3166,7.5c-17.4,50.6-32.5,122.2-35.2,177c-2.3,77.1-1.8,154.2,1.3,231.3
	c7.1,246.6,17.7,493,31.6,739.3c3.3,72.4,21.6,146.6,40.2,216.6c53.8,203.2,307.6,343.7,427.5,399.9
	C8399.5,1906.2,8403.1,1904.4,8404.4,1902z"/>

<text class="textcolor" transform="matrix(1 0 0 1 6522.3486 1059.7133)" textLength="1350" lengthAdjust="spacingAndGlyphs" style="font-family:'Arial-Black'; font-size:290.7986px;">
	<tspan>Custom</tspan>
</text>
</svg>
