<?xml version="1.0" encoding="utf-8"?>
<!-- Generator: Adobe Illustrator 27.9.1, SVG Export Plug-In . SVG Version: 6.00 Build 0)  -->
<svg version="1.1" xmlns="http://www.w3.org/2000/svg" xmlns:xlink="http://www.w3.org/1999/xlink" x="0px" y="0px"
	 viewBox="0 0 8603 1995.9" style="enable-background:new 0 0 8603 1995.9;" xml:space="preserve">
     $gradientDefs

 <path class="maincolor" d="M8565,1984c47.7-0.8,49.9-22.2,10.2-45.2c-95.1-55-237.4-151.5-378.3-300.5c-34.5-36.5-90.9-92.8-106.7-352.6
	c-12.5-205.1-41-857.3-33-960.8c10-128.6,54.9-220.9,101.9-264.5c35.8-33.2,2.5-52-40.9-52.2c-126.6-0.6-5559.9-24.9-6783.1,12.5
	c-126.6,3.9-600.6,56.5-760.2,95.3C461.7,143.7,185.4,233,74.3,306.1c-142.8,94-51.4,103.7,38.5,96.9
	c611.4-46.6,1597.6-68.6,2456.8-69.6c859.2-1,1713.3,30.2,2286.4,46.2c810.4,22.6,1425.1,56.5,1488.1,59.2
	c120.6,5.2,145.4,19.7,148,105.1c8.4,268,28.2,645.1,32.9,774.4c10.4,284.3,69.7,314.5,105.6,348.8
	c240.4,230.1,423.2,328.9,423.2,328.9S8392.4,1986.7,8565,1984z M6661.3,109.6l1247.9,4.3c45.4,0.2,79,42.4,68.9,86.7
	c-5,22.1-26.2,56.9-27.2,119.7c-2.1,125.7-0.1,251.4,6.1,377l8.8,224.7l18.1,368.8c3.2,71.4,12.7,142.4,28.3,212.2
	c18,81.3,50,149.7,108.6,209.8l49.1,45.3c47.3,43.6,16.8,122.6-47.5,123.1l-1039.5,8.2c-92.9-56.7-180.6-121.5-262.1-193.6
	c-50.3-42.4-98.6-87-144.9-133.6c-36.3-43.4-43.5-223.2-44.4-247.5c-7.4-163.4-23.1-605.2-33.5-906c0,0-5.8-170.1-7.8-225.6
	C6588.8,142.7,6621.1,109.4,6661.3,109.6z"/>
	
<g>
<path class="accentcolor" d="M6651,1351c0.9,14.8,2.1,30.2,3.5,45.6l8.6,9.2l60.5,0.3l29.3-33l-31.2-33.3l-60.5-0.3L6651,1351z"/>
	<polygon class="accentcolor" points="6980.5,1373.8 6949.3,1340.5 6888.8,1340.2 6859.5,1373.3 6890.7,1406.6 6951.2,1406.8 	"/>
	<polygon class="accentcolor" points="7208.1,1374.6 7176.9,1341.3 7116.4,1341 7087.1,1374 7118.3,1407.3 7178.8,1407.6 	"/>
	<polygon class="accentcolor" points="7435.6,1375.4 7404.5,1342.1 7344,1341.8 7314.7,1374.8 7345.9,1408.1 7406.4,1408.4 	"/>
	<polygon class="accentcolor" points="6867.9,1412.7 6836.7,1379.4 6776.3,1379.1 6747,1412.2 6778.2,1445.5 6838.6,1445.7 	"/>
	<polygon class="accentcolor" points="7095.5,1413.5 7064.3,1380.2 7003.8,1379.9 6974.6,1412.9 7005.8,1446.3 7066.2,1446.5 	"/>
	<polygon class="accentcolor" points="7323.1,1414.3 7291.9,1381 7231.4,1380.7 7202.2,1413.7 7233.3,1447 7293.8,1447.3 	"/>
	<path class="accentcolor" d="M6647.5,1273.6c0.6,13.4,1.1,26.8,1.7,40.3c0,0.4,0,0.7,0,1.1l11.5,12.3l60.5,0.3l29.3-33l-31.2-33.3
	l-60.5-0.3L6647.5,1273.6z"/>
	<polygon class="accentcolor" points="6978,1295.2 6946.8,1261.9 6886.4,1261.6 6857.1,1294.7 6888.3,1328 6948.7,1328.2 	"/>
	<polygon class="accentcolor" points="7205.6,1296 7174.4,1262.7 7114,1262.4 7084.7,1295.5 7115.9,1328.8 7176.3,1329 	"/>
	<polygon class="accentcolor" points="7433.2,1296.8 7402,1263.5 7341.6,1263.2 7312.3,1296.2 7343.5,1329.5 7403.9,1329.8 	"/>
	<polygon class="accentcolor" points="6865.4,1334.1 6834.3,1300.8 6773.8,1300.5 6744.5,1333.6 6775.7,1366.9 6836.2,1367.2 	"/>
	<polygon class="accentcolor" points="7093,1334.9 7061.8,1301.6 7001.4,1301.3 6972.1,1334.4 7003.3,1367.7 7063.8,1367.9 	"/>
	<polygon class="accentcolor" points="7320.6,1335.7 7289.4,1302.4 7229,1302.1 7199.7,1335.1 7230.9,1368.4 7291.3,1368.7 	"/>
	<path class="accentcolor" d="M6644.3,1195.8c0.5,13.2,1.1,26.4,1.6,39.7l12.3,13.1l60.5,0.3l29.3-33l-31.2-33.3l-60.5-0.3L6644.3,1195.8z"
	/>
	<polygon class="accentcolor" points="6975.5,1216.6 6944.4,1183.3 6883.9,1183.1 6854.6,1216.1 6885.8,1249.4 6946.3,1249.7 	"/>
	<polygon class="accentcolor" points="7203.1,1217.4 7172,1184.1 7111.5,1183.8 7082.2,1216.9 7113.4,1250.2 7173.9,1250.4 	"/>
	<polygon class="accentcolor" points="7430.7,1218.2 7399.5,1184.9 7339.1,1184.6 7309.8,1217.7 7341,1251 7401.5,1251.2 	"/>
	<polygon class="accentcolor" points="6863,1255.5 6831.8,1222.2 6771.3,1222 6742.1,1255 6773.2,1288.3 6833.7,1288.6 	"/>
	<polygon class="accentcolor" points="7090.6,1256.3 7059.4,1223 6998.9,1222.7 6969.7,1255.8 7000.8,1289.1 7061.3,1289.3 	"/>
	<polygon class="accentcolor" points="7318.2,1257.1 7287,1223.8 7226.5,1223.5 7197.2,1256.6 7228.4,1289.9 7288.9,1290.1 	"/>
	<path class="accentcolor" d="M6641.2,1117.9c0.5,12.7,1,25.4,1.5,38.1l13,13.9l60.5,0.3l29.3-33l-31.2-33.3l-60.5-0.3L6641.2,1117.9z"/>
	<polygon class="accentcolor" points="6973.1,1138 6941.9,1104.7 6881.4,1104.5 6852.2,1137.5 6883.3,1170.8 6943.8,1171.1 	"/>
	<polygon class="accentcolor" points="7200.7,1138.8 7169.5,1105.5 7109,1105.3 7079.8,1138.3 7110.9,1171.6 7171.4,1171.9 	"/>
	<polygon class="accentcolor" points="7428.3,1139.6 7397.1,1106.3 7336.6,1106 7307.4,1139.1 7338.5,1172.4 7399,1172.6 	"/>
	<polygon class="accentcolor" points="6860.5,1176.9 6829.3,1143.6 6768.9,1143.4 6739.6,1176.4 6770.8,1209.7 6831.2,1210 	"/>
	<polygon class="accentcolor" points="7088.1,1177.7 7056.9,1144.4 6996.5,1144.2 6967.2,1177.2 6998.4,1210.5 7058.8,1210.8 	"/>
	<polygon class="accentcolor" points="7315.7,1178.5 7284.5,1145.2 7224.1,1144.9 7194.8,1178 7226,1211.3 7286.4,1211.5 	"/>
	<path class="accentcolor" d="M6638.2,1040c0.5,12.3,0.9,24.6,1.4,36.8l13.7,14.6l60.5,0.3l29.3-33l-31.2-33.3l-60.5-0.3L6638.2,1040z"/>
	<polygon class="accentcolor" points="6970.6,1059.5 6939.4,1026.2 6879,1025.9 6849.7,1058.9 6880.9,1092.2 6941.3,1092.5 	"/>
	<polygon class="accentcolor" points="7198.2,1060.2 7167,1026.9 7106.6,1026.7 7077.3,1059.7 7108.5,1093 7168.9,1093.3 	"/>
	<polygon class="accentcolor" points="7425.8,1061 7394.6,1027.7 7334.2,1027.5 7304.9,1060.5 7336.1,1093.8 7396.5,1094.1 	"/>
	<polygon class="accentcolor" points="6858.1,1098.4 6826.9,1065.1 6766.4,1064.8 6737.1,1097.8 6768.3,1131.1 6828.8,1131.4 	"/>
	<polygon class="accentcolor" points="7085.6,1099.1 7054.5,1065.8 6994,1065.6 6964.7,1098.6 6995.9,1131.9 7056.4,1132.2 	"/>
	<polygon class="accentcolor" points="7313.2,1099.9 7282.1,1066.6 7221.6,1066.4 7192.3,1099.4 7223.5,1132.7 7284,1133 	"/>
	<path class="accentcolor" d="M6635.3,961.9c0.4,11.9,0.9,23.8,1.3,35.7l14.2,15.2l60.5,0.3l29.3-33l-31.2-33.3l-60.5-0.3L6635.3,961.9z"/>
	<polygon class="accentcolor" points="6968.2,980.9 6937,947.6 6876.5,947.3 6847.2,980.3 6878.4,1013.6 6938.9,1013.9 	"/>
	<polygon class="accentcolor" points="7195.8,981.7 7164.6,948.4 7104.1,948.1 7074.8,981.1 7106,1014.4 7166.5,1014.7 	"/>
	<polygon class="accentcolor" points="7423.3,982.4 7392.2,949.1 7331.7,948.9 7302.4,981.9 7333.6,1015.2 7394.1,1015.5 	"/>
	<polygon class="accentcolor" points="6855.6,1019.8 6824.4,986.5 6764,986.2 6734.7,1019.2 6765.9,1052.5 6826.3,1052.8 	"/>
	<polygon class="accentcolor" points="7083.2,1020.6 7052,987.3 6991.5,987 6962.3,1020 6993.5,1053.3 7053.9,1053.6 	"/>
	<polygon class="accentcolor" points="7310.8,1021.3 7279.6,988 7219.1,987.8 7189.9,1020.8 7221,1054.1 7281.5,1054.4 	"/>
	<path class="accentcolor" d="M6632.4,883.8c0.4,11.6,0.8,23.2,1.3,34.8l14.7,15.7l60.5,0.3l29.3-33l-31.2-33.3l-60.5-0.3L6632.4,883.8z"/>
	<polygon class="accentcolor" points="6965.7,902.3 6934.5,869 6874.1,868.7 6844.8,901.7 6876,935 6936.4,935.3 	"/>
	<polygon class="accentcolor" points="7193.3,903.1 7162.1,869.8 7101.7,869.5 7072.4,902.5 7103.6,935.8 7164,936.1 	"/>
	<polygon class="accentcolor" points="7420.9,903.9 7389.7,870.6 7329.2,870.3 7300,903.3 7331.2,936.6 7391.6,936.9 	"/>
	<polygon class="accentcolor" points="6853.1,941.2 6822,907.9 6761.5,907.6 6732.2,940.6 6763.4,973.9 6823.9,974.2 	"/>
	<polygon class="accentcolor" points="7080.7,942 7049.5,908.7 6989.1,908.4 6959.8,941.4 6991,974.7 7051.4,975 	"/>
	<polygon class="accentcolor" points="7308.3,942.8 7277.1,909.5 7216.7,909.2 7187.4,942.2 7218.6,975.5 7279,975.8 	"/>
	<path class="accentcolor" d="M6629.7,805.5c0.4,11.3,0.8,22.7,1.2,34l15.1,16.1l60.5,0.3l29.3-33l-31.2-33.3l-60.5-0.3L6629.7,805.5z"/>
	<polygon class="accentcolor" points="6963.2,823.7 6932.1,790.4 6871.6,790.1 6842.3,823.2 6873.5,856.5 6934,856.7 	"/>
	<polygon class="accentcolor" points="7190.8,824.5 7159.7,791.2 7099.2,790.9 7069.9,823.9 7101.1,857.2 7161.6,857.5 	"/>
	<polygon class="accentcolor" points="7418.4,825.3 7387.2,792 7326.8,791.7 7297.5,824.7 7328.7,858 7389.2,858.3 	"/>
	<polygon class="accentcolor" points="6850.7,862.6 6819.5,829.3 6759,829 6729.8,862.1 6760.9,895.4 6821.4,895.6 	"/>
	<polygon class="accentcolor" points="7078.3,863.4 7047.1,830.1 6986.6,829.8 6957.4,862.8 6988.5,896.1 7049,896.4 	"/>
	<polygon class="accentcolor" points="7305.9,864.2 7274.7,830.9 7214.2,830.6 7184.9,863.6 7216.1,896.9 7276.6,897.2 	"/>
	<polygon class="accentcolor" points="6626.9,727.3 6628.1,760.7 6643.5,777.1 6703.9,777.4 6733.2,744.3 6702,711 6641.5,710.8 	"/>
	<polygon class="accentcolor" points="6960.8,745.1 6929.6,711.8 6869.1,711.5 6839.9,744.6 6871,777.9 6931.5,778.1 	"/>
	<polygon class="accentcolor" points="7188.4,745.9 7157.2,712.6 7096.7,712.3 7067.5,745.4 7098.6,778.7 7159.1,778.9 	"/>
	<polygon class="accentcolor" points="7416,746.7 7384.8,713.4 7324.3,713.1 7295.1,746.1 7326.2,779.4 7386.7,779.7 	"/>
	<polygon class="accentcolor" points="6848.2,784 6817,750.7 6756.6,750.4 6727.3,783.5 6758.5,816.8 6818.9,817 	"/>
	<polygon class="accentcolor" points="7075.8,784.8 7044.6,751.5 6984.2,751.2 6954.9,784.3 6986.1,817.6 7046.5,817.8 	"/>
	<polygon class="accentcolor" points="7303.4,785.6 7272.2,752.3 7211.8,752 7182.5,785 7213.7,818.3 7274.1,818.6 	"/>
	<polygon class="accentcolor" points="6624.2,649 6625.3,681.8 6641,698.5 6701.4,698.8 6730.7,665.7 6699.5,632.4 6639.1,632.2 	"/>
	<polygon class="accentcolor" points="6958.3,666.5 6927.1,633.2 6866.7,633 6837.4,666 6868.6,699.3 6929,699.6 	"/>
	<polygon class="accentcolor" points="7185.9,667.3 7154.7,634 7094.3,633.7 7065,666.8 7096.2,700.1 7156.6,700.3 	"/>
	<polygon class="accentcolor" points="7413.5,668.1 7382.3,634.8 7321.9,634.5 7292.6,667.6 7323.8,700.9 7384.2,701.1 	"/>
	<polygon class="accentcolor" points="6845.8,705.4 6814.6,672.1 6754.1,671.9 6724.8,704.9 6756,738.2 6816.5,738.5 	"/>
	<polygon class="accentcolor" points="7073.3,706.2 7042.2,672.9 6981.7,672.6 6952.4,705.7 6983.6,739 7044.1,739.2 	"/>
	<polygon class="accentcolor" points="7300.9,707 7269.8,673.7 7209.3,673.4 7180,706.5 7211.2,739.8 7271.7,740 	"/>
	<polygon class="accentcolor" points="6621.5,570.7 6622.6,602.9 6638.5,619.9 6699,620.2 6728.3,587.2 6697.1,553.9 6636.6,553.6 	"/>
	<polygon class="accentcolor" points="6955.9,587.9 6924.7,554.6 6864.2,554.4 6834.9,587.4 6866.1,620.7 6926.6,621 	"/>
	<polygon class="accentcolor" points="7183.5,588.7 7152.3,555.4 7091.8,555.2 7062.5,588.2 7093.7,621.5 7154.2,621.8 	"/>
	<polygon class="accentcolor" points="7411,589.5 7379.9,556.2 7319.4,555.9 7290.1,589 7321.3,622.3 7381.8,622.5 	"/>
	<polygon class="accentcolor" points="6843.3,626.8 6812.1,593.5 6751.7,593.3 6722.4,626.3 6753.6,659.6 6814,659.9 	"/>
	<polygon class="accentcolor" points="7070.9,627.6 7039.7,594.3 6979.2,594.1 6950,627.1 6981.2,660.4 7041.6,660.7 	"/>
	<polygon class="accentcolor" points="7298.5,628.4 7267.3,595.1 7206.8,594.8 7177.6,627.9 7208.7,661.2 7269.2,661.4 	"/>
	<polygon class="accentcolor" points="6618.7,492.4 6619.8,524 6636.1,541.3 6696.5,541.6 6725.8,508.6 6694.6,475.3 6634.2,475 	"/>
	<polygon class="accentcolor" points="6953.4,509.4 6922.2,476.1 6861.8,475.8 6832.5,508.8 6863.7,542.1 6924.1,542.4 	"/>
	<polygon class="accentcolor" points="7181,510.1 7149.8,476.8 7089.4,476.6 7060.1,509.6 7091.3,542.9 7151.7,543.2 	"/>
	<polygon class="accentcolor" points="7408.6,510.9 7377.4,477.6 7316.9,477.4 7287.7,510.4 7318.9,543.7 7379.3,544 	"/>
	<polygon class="accentcolor" points="6840.8,548.3 6809.7,515 6749.2,514.7 6719.9,547.7 6751.1,581 6811.6,581.3 	"/>
	<polygon class="accentcolor" points="7068.4,549 7037.2,515.7 6976.8,515.5 6947.5,548.5 6978.7,581.8 7039.1,582.1 	"/>
	<polygon class="accentcolor" points="7296,549.8 7264.8,516.5 7204.4,516.3 7175.1,549.3 7206.3,582.6 7266.7,582.9 	"/>
	<polygon class="accentcolor" points="6616,414.1 6617.1,445.1 6633.6,462.7 6694.1,463 6723.3,430 6692.2,396.7 6631.7,396.4 	"/>
	<polygon class="accentcolor" points="6950.9,430.8 6919.8,397.5 6859.3,397.2 6830,430.2 6861.2,463.5 6921.7,463.8 	"/>
	<polygon class="accentcolor" points="7178.5,431.6 7147.4,398.3 7086.9,398 7057.6,431 7088.8,464.3 7149.3,464.6 	"/>
	<polygon class="accentcolor" points="7406.1,432.3 7374.9,399 7314.5,398.8 7285.2,431.8 7316.4,465.1 7376.9,465.4 	"/>
	<polygon class="accentcolor" points="6838.4,469.7 6807.2,436.4 6746.7,436.1 6717.5,469.1 6748.6,502.4 6809.1,502.7 	"/>
	<polygon class="accentcolor" points="7066,470.5 7034.8,437.2 6974.3,436.9 6945.1,469.9 6976.2,503.2 7036.7,503.5 	"/>
	<polygon class="accentcolor" points="7293.6,471.2 7262.4,437.9 7201.9,437.7 7172.6,470.7 7203.8,504 7264.3,504.3 	"/>
	<polygon class="accentcolor" points="6613.3,335.9 6614.3,366.2 6631.1,384.2 6691.6,384.4 6720.9,351.4 6689.7,318.1 6629.2,317.8 	"/>
	<polygon class="accentcolor" points="6948.5,352.2 6917.3,318.9 6856.8,318.6 6827.6,351.6 6858.7,384.9 6919.2,385.2 	"/>
	<polygon class="accentcolor" points="7176.1,353 7144.9,319.7 7084.4,319.4 7055.2,352.4 7086.3,385.7 7146.8,386 	"/>
	<polygon class="accentcolor" points="7403.7,353.8 7372.5,320.4 7312,320.2 7282.8,353.2 7313.9,386.5 7374.4,386.8 	"/>
	<polygon class="accentcolor" points="6835.9,391.1 6804.7,357.8 6744.3,357.5 6715,390.5 6746.2,423.8 6806.6,424.1 	"/>
	<polygon class="accentcolor" points="7063.5,391.9 7032.3,358.6 6971.9,358.3 6942.6,391.3 6973.8,424.6 7034.2,424.9 	"/>
	<polygon class="accentcolor" points="7291.1,392.7 7259.9,359.4 7199.5,359.1 7170.2,392.1 7201.4,425.4 7261.8,425.7 	"/>
	<polygon class="accentcolor" points="6610.5,257.6 6611.6,287.3 6628.7,305.6 6689.1,305.8 6718.4,272.8 6687.2,239.5 6626.8,239.2 	"/>
	<polygon class="accentcolor" points="6946,273.6 6914.8,240.3 6854.4,240 6825.1,273.1 6856.3,306.4 6916.7,306.6 	"/>
	<polygon class="accentcolor" points="7173.6,274.4 7142.4,241.1 7082,240.8 7052.7,273.8 7083.9,307.1 7144.3,307.4 	"/>
	<polygon class="accentcolor" points="7401.2,275.2 7370,241.9 7309.6,241.6 7280.3,274.6 7311.5,307.9 7371.9,308.2 	"/>
	<polygon class="accentcolor" points="6833.5,312.5 6802.3,279.2 6741.8,278.9 6712.5,312 6743.7,345.3 6804.2,345.5 	"/>
	<polygon class="accentcolor" points="7061,313.3 7029.9,280 6969.4,279.7 6940.1,312.7 6971.3,346 7031.8,346.3 	"/>
	<polygon class="accentcolor" points="7288.6,314.1 7257.5,280.8 7197,280.5 7167.7,313.5 7198.9,346.8 7259.4,347.1 	"/>
	<path class="accentcolor" d="M6607.9,179.2c0,0.4,0,0.8,0,1.1c0,0.7,0,1.3,0,2l0.9,26l17.4,18.6l60.5,0.3l29.3-33l-31.2-33.3l-60.5-0.3
	L6607.9,179.2z"/>
	<polygon class="accentcolor" points="6943.6,195 6912.4,161.7 6851.9,161.4 6822.6,194.5 6853.8,227.8 6914.3,228 	"/>
	<polygon class="accentcolor" points="7171.2,195.8 7140,162.5 7079.5,162.2 7050.2,195.3 7081.4,228.6 7141.9,228.8 	"/>
	<polygon class="accentcolor" points="7398.7,196.6 7367.6,163.3 7307.1,163 7277.8,196 7309,229.3 7369.5,229.6 	"/>
	<polygon class="accentcolor" points="6831,233.9 6799.8,200.6 6739.4,200.3 6710.1,233.4 6741.3,266.7 6801.7,266.9 	"/>
	<polygon class="accentcolor" points="7058.6,234.7 7027.4,201.4 6966.9,201.1 6937.7,234.2 6968.9,267.5 7029.3,267.7 	"/>
	<polygon class="accentcolor" points="7286.2,235.5 7255,202.2 7194.5,201.9 7165.3,234.9 7196.4,268.2 7256.9,268.5 	"/>
	<path class="accentcolor" d="M6703,127.4l-41.8-0.1c-16,0-30.4,7-40.2,18.2l2.7,2.9l60.5,0.3L6703,127.4z"/>
	<polygon class="accentcolor" points="6930.6,128.2 6831.4,127.9 6851.4,149.2 6911.8,149.5 	"/>
	<polygon class="accentcolor" points="7158.2,129 7059,128.7 7079,150 7139.4,150.2 	"/>
	<polygon class="accentcolor" points="7385.8,129.8 7286.6,129.5 7306.6,150.8 7367,151 	"/>
	<polygon class="accentcolor" points="6802.8,127.8 6731.8,127.5 6707.6,154.8 6738.8,188.1 6799.3,188.4 6828.5,155.3 	"/>
	<polygon class="accentcolor" points="7030.3,128.6 6959.3,128.3 6935.2,155.6 6966.4,188.9 7026.8,189.1 7056.1,156.1 	"/>
	<polygon class="accentcolor" points="7257.9,129.4 7186.9,129.1 7162.8,156.4 7194,189.7 7254.4,189.9 7283.7,156.9 	"/>
	<path class="accentcolor" d="M6657.5,1425c2.4,20.9,5.4,41.2,9,59.4l59.6,0.3l29.3-33l-31.2-33.3l-60.5-0.3L6657.5,1425z"/>
	<polygon class="accentcolor" points="6982.9,1452.4 6951.7,1419.1 6891.3,1418.8 6862,1451.8 6893.2,1485.2 6953.6,1485.4 	"/>
	<polygon class="accentcolor" points="7210.5,1453.2 7179.3,1419.9 7118.9,1419.6 7089.6,1452.6 7120.8,1485.9 7181.2,1486.2 	"/>
	<polygon class="accentcolor" points="7438.1,1454 7406.9,1420.7 7346.5,1420.4 7317.2,1453.4 7348.4,1486.7 7408.8,1487 	"/>
	<polygon class="accentcolor" points="6870.4,1491.3 6839.2,1458 6778.7,1457.7 6749.4,1490.8 6780.6,1524.1 6841.1,1524.3 	"/>
	<polygon class="accentcolor" points="7097.9,1492.1 7066.8,1458.8 7006.3,1458.5 6977,1491.5 7008.2,1524.8 7068.7,1525.1 	"/>
	<polygon class="accentcolor" points="7325.5,1492.9 7294.4,1459.6 7233.9,1459.3 7204.6,1492.3 7235.8,1525.6 7296.3,1525.9 	"/>
	<polygon class="accentcolor" points="7125.9,1871.2 7201.1,1870.6 7222.8,1846.1 7191.6,1812.8 7131.2,1812.5 7101.9,1845.6 	"/>
	<polygon class="accentcolor" points="7351.1,1869.4 7431,1868.8 7450.4,1846.9 7419.2,1813.6 7358.8,1813.3 7329.5,1846.4 	"/>
	<path class="accentcolor" d="M7056.1,1851.6c10.5,6.7,21.1,13.4,31.7,19.9l9.7-0.1l-18.5-19.7L7056.1,1851.6z"/>
	<polygon class="accentcolor" points="7230.1,1870.4 7322.7,1869.7 7306.7,1852.5 7246.2,1852.2 	"/>
	<path class="accentcolor" d="M6897.5,1737.3c23.7,19,47.8,37.5,72.3,55.3l22.9-25.9l-31.2-33.3l-60.5-0.3L6897.5,1737.3z"/>
	<polygon class="accentcolor" points="7220.4,1767.5 7189.2,1734.2 7128.7,1733.9 7099.4,1767 7130.6,1800.3 7191.1,1800.6 	"/>
	<polygon class="accentcolor" points="7447.9,1768.3 7416.8,1735 7356.3,1734.7 7327,1767.8 7358.2,1801.1 7418.7,1801.3 	"/>
	<path class="accentcolor" d="M6987.4,1805.2c16.4,11.6,33,23,49.7,34l41.3,0.2l29.3-33l-31.2-33.3l-60.5-0.3L6987.4,1805.2z"/>
	<polygon class="accentcolor" points="7335.4,1807.2 7304.2,1773.9 7243.7,1773.6 7214.5,1806.7 7245.6,1840 7306.1,1840.2 	"/>
	<polygon class="accentcolor" points="6990.3,1688.2 6959.1,1654.9 6898.7,1654.6 6869.4,1687.6 6900.6,1720.9 6961,1721.2 	"/>
	<polygon class="accentcolor" points="7217.9,1688.9 7186.7,1655.6 7126.3,1655.4 7097,1688.4 7128.2,1721.7 7188.6,1722 	"/>
	<polygon class="accentcolor" points="7445.5,1689.7 7414.3,1656.4 7353.9,1656.1 7324.6,1689.2 7355.8,1722.5 7416.2,1722.8 	"/>
	<path class="accentcolor" d="M6845.4,1693.7c2,1.7,4,3.4,5.9,5.1l-4.8-5.1L6845.4,1693.7z"/>
	<polygon class="accentcolor" points="7105.3,1727.8 7074.1,1694.5 7013.7,1694.3 6984.4,1727.3 7015.6,1760.6 7076.1,1760.9 	"/>
	<polygon class="accentcolor" points="7332.9,1728.6 7301.7,1695.3 7241.3,1695 7212,1728.1 7243.2,1761.4 7303.6,1761.7 	"/>
	<path class="accentcolor" d="M6714.5,1575.4c13.5,13.1,27.1,26.1,40.9,38.9l4.9-5.5l-31.2-33.3L6714.5,1575.4z"/>
	<polygon class="accentcolor" points="6987.8,1609.6 6956.7,1576.3 6896.2,1576 6866.9,1609 6898.1,1642.3 6958.6,1642.6 	"/>
	<polygon class="accentcolor" points="7215.4,1610.3 7184.3,1577 7123.8,1576.8 7094.5,1609.8 7125.7,1643.1 7186.2,1643.4 	"/>
	<polygon class="accentcolor" points="7443,1611.1 7411.8,1577.8 7351.4,1577.6 7322.1,1610.6 7353.3,1643.9 7413.8,1644.2 	"/>
	<path class="accentcolor" d="M6771.3,1628.9c19.7,17.9,39.7,35.4,60.1,52.6l14.7,0.1l29.3-33l-31.2-33.3l-60.5-0.3L6771.3,1628.9z"/>
	<polygon class="accentcolor" points="7102.9,1649.3 7071.7,1615.9 7011.2,1615.7 6982,1648.7 7013.1,1682 7073.6,1682.3 	"/>
	<polygon class="accentcolor" points="7330.5,1650 7299.3,1616.7 7238.8,1616.5 7209.5,1649.5 7240.7,1682.8 7301.2,1683.1 	"/>
	<path class="accentcolor" d="M6669.1,1496.6c0.6,2.6,1.2,5.1,1.8,7.6c3.1,12.4,9.7,36.1,18.4,46.3c4.2,4.2,8.4,8.4,12.7,12.6l26.6,0.1
	l29.3-33l-31.2-33.3L6669.1,1496.6z"/>
	<polygon class="accentcolor" points="6985.4,1531 6954.2,1497.7 6893.7,1497.4 6864.5,1530.4 6895.6,1563.7 6956.1,1564 	"/>
	<polygon class="accentcolor" points="7213,1531.8 7181.8,1498.5 7121.3,1498.2 7092.1,1531.2 7123.2,1564.5 7183.7,1564.8 	"/>
	<polygon class="accentcolor" points="7440.6,1532.5 7409.4,1499.2 7348.9,1499 7319.7,1532 7350.8,1565.3 7411.3,1565.6 	"/>
	<polygon class="accentcolor" points="6872.8,1569.9 6841.6,1536.6 6781.2,1536.3 6751.9,1569.3 6783.1,1602.6 6843.5,1602.9 	"/>
	<polygon class="accentcolor" points="7100.4,1570.7 7069.2,1537.4 7008.8,1537.1 6979.5,1570.1 7010.7,1603.4 7071.1,1603.7 	"/>
	<polygon class="accentcolor" points="7328,1571.4 7296.8,1538.1 7236.4,1537.9 7207.1,1570.9 7238.3,1604.2 7298.7,1604.5 	"/>
	<polygon class="accentcolor" points="7521.5,550.9 7490.3,517.6 7429.9,517.3 7400.6,550.4 7431.8,583.7 7492.2,583.9 	"/>
	<polygon class="accentcolor" points="7749.1,551.7 7717.9,518.4 7657.5,518.1 7628.2,551.1 7659.4,584.4 7719.8,584.7 	"/>
	<path class="accentcolor" d="M7934.8,585.4c-0.6-22.1-1.2-44.2-1.6-66.3l-48.2-0.2l-29.3,33l31.2,33.3L7934.8,585.4z"/>
	<polygon class="accentcolor" points="7636.5,590.6 7605.4,557.3 7544.9,557 7515.6,590 7546.8,623.3 7607.3,623.6 	"/>
	<polygon class="accentcolor" points="7864.1,591.4 7833,558.1 7772.5,557.8 7743.2,590.8 7774.4,624.1 7834.9,624.4 	"/>
	<polygon class="accentcolor" points="7519.1,472.3 7487.9,439 7427.4,438.7 7398.1,471.8 7429.3,505.1 7489.8,505.3 	"/>
	<polygon class="accentcolor" points="7746.7,473.1 7715.5,439.8 7655,439.5 7625.7,472.6 7656.9,505.9 7717.4,506.1 	"/>
	<path class="accentcolor" d="M7933.1,506.9c-0.3-22.1-0.6-44.2-0.7-66.3l-49.8-0.2l-29.3,33l31.2,33.3L7933.1,506.9z"/>
	<polygon class="accentcolor" points="7634.1,512 7602.9,478.7 7542.5,478.4 7513.2,511.5 7544.4,544.8 7604.8,545 	"/>
	<polygon class="accentcolor" points="7861.7,512.8 7830.5,479.5 7770,479.2 7740.8,512.2 7771.9,545.5 7832.4,545.8 	"/>
	<polygon class="accentcolor" points="7516.6,393.7 7485.4,360.4 7425,360.2 7395.7,393.2 7426.9,426.5 7487.3,426.8 	"/>
	<polygon class="accentcolor" points="7744.2,394.5 7713,361.2 7652.6,360.9 7623.3,394 7654.5,427.3 7714.9,427.5 	"/>
	<path class="accentcolor" d="M7932.4,428.3c0-22.1,0-44.2,0.2-66.3l-52.5-0.2l-29.3,33l31.2,33.3L7932.4,428.3z"/>
	<polygon class="accentcolor" points="7631.6,433.4 7600.4,400.1 7540,399.8 7510.7,432.9 7541.9,466.2 7602.4,466.4 	"/>
	<polygon class="accentcolor" points="7859.2,434.2 7828,400.9 7767.6,400.6 7738.3,433.7 7769.5,467 7829.9,467.2 	"/>
	<polygon class="accentcolor" points="7514.1,315.1 7483,281.8 7422.5,281.6 7393.2,314.6 7424.4,347.9 7484.9,348.2 	"/>
	<polygon class="accentcolor" points="7741.7,315.9 7710.6,282.6 7650.1,282.4 7620.8,315.4 7652,348.7 7712.5,349 	"/>
	<path class="accentcolor" d="M7932.7,349.7c0.1-9.9,0.3-19.8,0.4-29.7c0.2-12.3,1.2-24.5,3-36.6l-58.4-0.3l-29.3,33l31.2,33.3L7932.7,349.7
	z"/>
	<polygon class="accentcolor" points="7629.2,354.8 7598,321.5 7537.5,321.3 7508.3,354.3 7539.4,387.6 7599.9,387.9 	"/>
	<polygon class="accentcolor" points="7856.8,355.6 7825.6,322.3 7765.1,322 7735.8,355.1 7767,388.4 7827.5,388.6 	"/>
	<polygon class="accentcolor" points="7511.7,236.6 7480.5,203.3 7420,203 7390.8,236 7421.9,269.3 7482.4,269.6 	"/>
	<polygon class="accentcolor" points="7739.3,237.3 7708.1,204 7647.6,203.8 7618.4,236.8 7649.5,270.1 7710,270.4 	"/>
	<path class="accentcolor" d="M7938.3,270.3c3.2-16.4,7.7-32.4,13.7-48.1l-16.3-17.5l-60.5-0.3l-29.3,33l31.2,33.3l60.5,0.3L7938.3,270.3z"
	/>
	<polygon class="accentcolor" points="7626.7,276.2 7595.5,242.9 7535.1,242.7 7505.8,275.7 7537,309 7597.4,309.3 	"/>
	<polygon class="accentcolor" points="7854.3,277 7823.1,243.7 7762.7,243.5 7733.4,276.5 7764.6,309.8 7825,310.1 	"/>
	<polygon class="accentcolor" points="7483.2,130.1 7412.7,129.9 7388.3,157.4 7419.5,190.7 7479.9,191 7509.2,158 	"/>
	<polygon class="accentcolor" points="7710.8,130.9 7640.3,130.7 7615.9,158.2 7647.1,191.5 7707.5,191.8 7736.8,158.8 	"/>
	<path class="accentcolor" d="M7958.7,166c-6.2-16.2-20.2-29.2-38.4-33.1c-3.7-0.8-7.4-1.2-11.2-1.2l-41.2-0.1l-24.4,27.5l31.2,33.3
	l60.5,0.3L7958.7,166z"/>
	<polygon class="accentcolor" points="7624.2,197.7 7593.1,164.4 7532.6,164.1 7503.3,197.1 7534.5,230.4 7595,230.7 	"/>
	<polygon class="accentcolor" points="7851.8,198.4 7820.7,165.1 7760.2,164.9 7730.9,197.9 7762.1,231.2 7822.6,231.5 	"/>
	<path class="accentcolor" d="M7959.8,200c0.4-1.3,0.8-2.5,1.1-3.8c0-0.1,0-0.2,0.1-0.3l-2.4,2.7L7959.8,200z"/>
	<polygon class="accentcolor" points="7611.6,130.6 7511.8,130.2 7532.1,151.8 7592.5,152.1 	"/>
	<polygon class="accentcolor" points="7839.2,131.4 7739.4,131 7759.6,152.6 7820.1,152.9 	"/>
	<polygon class="accentcolor" points="7524,629.5 7492.8,596.2 7432.3,595.9 7403.1,628.9 7434.2,662.2 7494.7,662.5 	"/>
	<polygon class="accentcolor" points="7751.6,630.3 7720.4,597 7659.9,596.7 7630.7,629.7 7661.8,663 7722.3,663.3 	"/>
	<path class="accentcolor" d="M7937.7,664c-1-22.1-1.8-44.2-2.5-66.3l-47.7-0.2l-29.3,33l31.2,33.3L7937.7,664z"/>
	<polygon class="accentcolor" points="7639,669.2 7607.8,635.9 7547.4,635.6 7518.1,668.6 7549.3,701.9 7609.7,702.2 	"/>
	<polygon class="accentcolor" points="7866.6,670 7835.4,636.7 7775,636.4 7745.7,669.4 7776.9,702.7 7837.3,703 	"/>
	<polygon class="accentcolor" points="7458.2,1868.6 7545.6,1867.9 7532.2,1853.6 7471.7,1853.3 	"/>
	<polygon class="accentcolor" points="7688.1,1866.8 7770.8,1866.1 7759.8,1854.4 7699.3,1854.1 	"/>
	<polygon class="accentcolor" points="7918,1865 7996,1864.3 7987.4,1855.1 7926.9,1854.9 	"/>
	<polygon class="accentcolor" points="7560.9,1808.3 7529.7,1775 7469.2,1774.7 7440,1807.7 7471.1,1841 7531.6,1841.3 	"/>
	<polygon class="accentcolor" points="7788.5,1809.1 7757.3,1775.8 7696.8,1775.5 7667.6,1808.5 7698.7,1841.8 7759.2,1842.1 	"/>
	<polygon class="accentcolor" points="8016.1,1809.9 7984.9,1776.6 7924.4,1776.3 7895.2,1809.3 7926.3,1842.6 7986.8,1842.9 	"/>
	<path class="accentcolor" d="M8163.4,1843.4c2.7-3.5,5-7.3,7-11.5c8.5-18.3,5.7-39.5-6.7-54.8l-11.6-0.1l-29.3,33l31.2,33.3L8163.4,1843.4z
	"/>
	<polygon class="accentcolor" points="7574,1867.7 7659,1867 7675.9,1848 7644.7,1814.7 7584.3,1814.4 7555,1847.4 	"/>
	<polygon class="accentcolor" points="7799.1,1865.9 7888.9,1865.2 7903.5,1848.8 7872.3,1815.5 7811.9,1815.2 7782.6,1848.2 	"/>
	<polygon class="accentcolor" points="8024.3,1864.1 8118.8,1863.4 8131.1,1849.5 8099.9,1816.2 8039.5,1816 8010.2,1849 	"/>
	<polygon class="accentcolor" points="7558.4,1729.7 7527.2,1696.4 7466.8,1696.1 7437.5,1729.2 7468.7,1762.5 7529.1,1762.7 	"/>
	<polygon class="accentcolor" points="7786,1730.5 7754.8,1697.2 7694.4,1696.9 7665.1,1729.9 7696.3,1763.2 7756.7,1763.5 	"/>
	<polygon class="accentcolor" points="8013.6,1731.3 7982.4,1698 7922,1697.7 7892.7,1730.7 7923.9,1764 7984.3,1764.3 	"/>
	<polygon class="accentcolor" points="7673.5,1769.4 7642.3,1736.1 7581.8,1735.8 7552.5,1768.8 7583.7,1802.1 7644.2,1802.4 	"/>
	<polygon class="accentcolor" points="7901,1770.2 7869.9,1736.9 7809.4,1736.6 7780.1,1769.6 7811.3,1802.9 7871.8,1803.2 	"/>
	<polygon class="accentcolor" points="8128.6,1771 8097.5,1737.7 8037,1737.4 8007.7,1770.4 8038.9,1803.7 8099.4,1804 	"/>
	<polygon class="accentcolor" points="7556,1651.1 7524.8,1617.8 7464.3,1617.5 7435,1650.6 7466.2,1683.9 7526.7,1684.1 	"/>
	<polygon class="accentcolor" points="7783.6,1651.9 7752.4,1618.6 7691.9,1618.3 7662.6,1651.4 7693.8,1684.7 7754.3,1684.9 	"/>
	<polygon class="accentcolor" points="8011.2,1652.7 7980,1619.4 7919.5,1619.1 7890.2,1652.1 7921.4,1685.4 7981.9,1685.7 	"/>
	<polygon class="accentcolor" points="7671,1690.8 7639.8,1657.5 7579.4,1657.2 7550.1,1690.3 7581.3,1723.6 7641.7,1723.8 	"/>
	<polygon class="accentcolor" points="7898.6,1691.6 7867.4,1658.3 7806.9,1658 7777.7,1691 7808.9,1724.3 7869.3,1724.6 	"/>
	<path class="accentcolor" d="M8102.4,1719.2c-17.5-18.6-33.2-38.8-46.9-60.3l-21-0.1l-29.3,33l31.2,33.3l60.5,0.3L8102.4,1719.2z"/>
	<polygon class="accentcolor" points="7553.5,1572.5 7522.3,1539.2 7461.9,1539 7432.6,1572 7463.8,1605.3 7524.2,1605.6 	"/>
	<polygon class="accentcolor" points="7781.1,1573.3 7749.9,1540 7689.5,1539.7 7660.2,1572.8 7691.4,1606.1 7751.8,1606.3 	"/>
	<polygon class="accentcolor" points="8008.7,1574.1 7977.5,1540.8 7917.1,1540.5 7887.8,1573.6 7919,1606.9 7979.4,1607.1 	"/>
	<polygon class="accentcolor" points="7668.5,1612.2 7637.4,1578.9 7576.9,1578.6 7547.6,1611.7 7578.8,1645 7639.3,1645.2 	"/>
	<polygon class="accentcolor" points="7896.1,1613 7864.9,1579.7 7804.5,1579.4 7775.2,1612.5 7806.4,1645.8 7866.8,1646 	"/>
	<path class="accentcolor" d="M8048,1646.6c-3.3-5.6-6.5-11.4-9.6-17.2c-6.3-12.1-12-24.4-17.2-37l-18.4,20.8l31.2,33.3L8048,1646.6z"/>
	<polygon class="accentcolor" points="7551,1493.9 7519.9,1460.6 7459.4,1460.4 7430.1,1493.4 7461.3,1526.7 7521.8,1527 	"/>
	<polygon class="accentcolor" points="7778.6,1494.7 7747.5,1461.4 7687,1461.2 7657.7,1494.2 7688.9,1527.5 7749.4,1527.8 	"/>
	<path class="accentcolor" d="M7995.2,1508c-0.1-0.4-0.2-0.9-0.3-1.3c-2.2-10-4.3-20-6.3-30l-13.5-14.4l-60.5-0.3l-29.3,33l31.2,33.3
	l60.5,0.3L7995.2,1508z"/>
	<polygon class="accentcolor" points="7666.1,1533.6 7634.9,1500.3 7574.4,1500.1 7545.2,1533.1 7576.3,1566.4 7636.8,1566.7 	"/>
	<polygon class="accentcolor" points="7893.7,1534.4 7862.5,1501.1 7802,1500.8 7772.8,1533.9 7803.9,1567.2 7864.4,1567.4 	"/>
	<path class="accentcolor" d="M8002,1536.5c-0.3-0.9-0.5-1.9-0.8-2.8l-0.9,1L8002,1536.5z"/>
	<polygon class="accentcolor" points="7548.6,1415.4 7517.4,1382.1 7456.9,1381.8 7427.7,1414.8 7458.8,1448.1 7519.3,1448.4 	"/>
	<polygon class="accentcolor" points="7776.2,1416.1 7745,1382.8 7684.5,1382.6 7655.3,1415.6 7686.4,1448.9 7746.9,1449.2 	"/>
	<path class="accentcolor" d="M7982.1,1441.3c-3.1-18.7-5.9-37.4-8.1-56.2l-1.4-1.5l-60.5-0.3l-29.3,33l31.2,33.3l60.5,0.3L7982.1,1441.3z"
	/>
	<polygon class="accentcolor" points="7663.6,1455 7632.4,1421.7 7572,1421.5 7542.7,1454.5 7573.9,1487.8 7634.3,1488.1 	"/>
	<polygon class="accentcolor" points="7891.2,1455.8 7860,1422.5 7799.6,1422.3 7770.3,1455.3 7801.5,1488.6 7861.9,1488.9 	"/>
	<polygon class="accentcolor" points="7546.1,1336.8 7514.9,1303.5 7454.5,1303.2 7425.2,1336.2 7456.4,1369.5 7516.8,1369.8 	"/>
	<polygon class="accentcolor" points="7773.7,1337.6 7742.5,1304.3 7682.1,1304 7652.8,1337 7684,1370.3 7744.4,1370.6 	"/>
	<path class="accentcolor" d="M7972.4,1371c-2.4-21.9-4.2-43.9-5.5-66l-57.2-0.3l-29.3,33l31.2,33.3l60.5,0.3L7972.4,1371z"/>
	<polygon class="accentcolor" points="7661.2,1376.5 7630,1343.2 7569.5,1342.9 7540.2,1375.9 7571.4,1409.2 7631.9,1409.5 	"/>
	<polygon class="accentcolor" points="7888.7,1377.2 7857.6,1343.9 7797.1,1343.7 7767.8,1376.7 7799,1410 7859.5,1410.3 	"/>
	<polygon class="accentcolor" points="7543.7,1258.2 7512.5,1224.9 7452,1224.6 7422.7,1257.6 7453.9,1290.9 7514.4,1291.2 	"/>
	<polygon class="accentcolor" points="7771.3,1259 7740.1,1225.7 7679.6,1225.4 7650.3,1258.4 7681.5,1291.7 7742,1292 	"/>
	<path class="accentcolor" d="M7966.3,1292.8c0-0.4,0-0.8-0.1-1.2l-3.2-65.2l-55.8-0.3l-29.3,33l31.2,33.3L7966.3,1292.8z"/>
	<polygon class="accentcolor" points="7658.7,1297.9 7627.5,1264.6 7567.1,1264.3 7537.8,1297.3 7569,1330.6 7629.4,1330.9 	"/>
	<polygon class="accentcolor" points="7886.3,1298.7 7855.1,1265.4 7794.6,1265.1 7765.4,1298.1 7796.6,1331.4 7857,1331.7 	"/>
	<polygon class="accentcolor" points="7541.2,1179.6 7510,1146.3 7449.6,1146 7420.3,1179.1 7451.5,1212.4 7511.9,1212.6 	"/>
	<polygon class="accentcolor" points="7768.8,1180.4 7737.6,1147.1 7677.2,1146.8 7647.9,1179.8 7679.1,1213.1 7739.5,1213.4 	"/>
	<polygon class="accentcolor" points="7962.4,1214.2 7959.1,1147.8 7904.8,1147.6 7875.5,1180.6 7906.7,1213.9 	"/>
	<polygon class="accentcolor" points="7656.2,1219.3 7625,1186 7564.6,1185.7 7535.3,1218.7 7566.5,1252 7627,1252.3 	"/>
	<polygon class="accentcolor" points="7883.8,1220.1 7852.6,1186.8 7792.2,1186.5 7762.9,1219.5 7794.1,1252.8 7854.5,1253.1 	"/>
	<polygon class="accentcolor" points="7538.7,1101 7507.6,1067.7 7447.1,1067.4 7417.8,1100.5 7449,1133.8 7509.5,1134 	"/>
	<polygon class="accentcolor" points="7766.3,1101.8 7735.2,1068.5 7674.7,1068.2 7645.4,1101.3 7676.6,1134.6 7737.1,1134.8 	"/>
	<polygon class="accentcolor" points="7958.5,1135.6 7955.3,1069.2 7902.3,1069 7873,1102 7904.2,1135.3 	"/>
	<polygon class="accentcolor" points="7653.8,1140.7 7622.6,1107.4 7562.1,1107.1 7532.9,1140.2 7564,1173.5 7624.5,1173.7 	"/>
	<polygon class="accentcolor" points="7881.4,1141.5 7850.2,1108.2 7789.7,1107.9 7760.4,1140.9 7791.6,1174.2 7852.1,1174.5 	"/>
	<polygon class="accentcolor" points="7536.3,1022.4 7505.1,989.1 7444.6,988.9 7415.4,1021.9 7446.5,1055.2 7507,1055.5 	"/>
	<polygon class="accentcolor" points="7763.9,1023.2 7732.7,989.9 7672.2,989.6 7643,1022.7 7674.1,1056 7734.6,1056.2 	"/>
	<polygon class="accentcolor" points="7954.7,1057 7951.4,990.7 7899.8,990.4 7870.6,1023.4 7901.7,1056.8 	"/>
	<polygon class="accentcolor" points="7651.3,1062.1 7620.1,1028.8 7559.7,1028.5 7530.4,1061.6 7561.6,1094.9 7622,1095.1 	"/>
	<polygon class="accentcolor" points="7878.9,1062.9 7847.7,1029.6 7787.3,1029.3 7758,1062.4 7789.2,1095.7 7849.6,1095.9 	"/>
	<polygon class="accentcolor" points="7533.8,943.8 7502.6,910.5 7442.2,910.3 7412.9,943.3 7444.1,976.6 7504.5,976.9 	"/>
	<polygon class="accentcolor" points="7761.4,944.6 7730.2,911.3 7669.8,911 7640.5,944.1 7671.7,977.4 7732.1,977.7 	"/>
	<polygon class="accentcolor" points="7950.8,978.4 7948.1,922.8 7947.7,912.1 7897.4,911.8 7868.1,944.9 7899.3,978.2 	"/>
	<polygon class="accentcolor" points="7648.9,983.5 7617.7,950.2 7557.2,949.9 7527.9,983 7559.1,1016.3 7619.6,1016.6 	"/>
	<polygon class="accentcolor" points="7876.4,984.3 7845.3,951 7784.8,950.7 7755.5,983.8 7786.7,1017.1 7847.2,1017.3 	"/>
	<polygon class="accentcolor" points="7531.4,865.3 7500.2,831.9 7439.7,831.7 7410.4,864.7 7441.6,898 7502.1,898.3 	"/>
	<polygon class="accentcolor" points="7759,866 7727.8,832.7 7667.3,832.5 7638,865.5 7669.2,898.8 7729.7,899.1 	"/>
	<polygon class="accentcolor" points="7947.2,899.8 7944.6,833.5 7894.9,833.2 7865.6,866.3 7896.8,899.6 	"/>
	<polygon class="accentcolor" points="7646.4,904.9 7615.2,871.6 7554.8,871.4 7525.5,904.4 7556.7,937.7 7617.1,938 	"/>
	<polygon class="accentcolor" points="7874,905.7 7842.8,872.4 7782.3,872.1 7753.1,905.2 7784.2,938.5 7844.7,938.8 	"/>
	<polygon class="accentcolor" points="7528.9,786.7 7497.7,753.4 7437.3,753.1 7408,786.1 7439.2,819.4 7499.6,819.7 	"/>
	<polygon class="accentcolor" points="7756.5,787.4 7725.3,754.1 7664.9,753.9 7635.6,786.9 7666.8,820.2 7727.2,820.5 	"/>
	<polygon class="accentcolor" points="7944.1,821.2 7941.5,754.9 7892.5,754.7 7863.2,787.7 7894.4,821 	"/>
	<polygon class="accentcolor" points="7643.9,826.3 7612.7,793 7552.3,792.8 7523,825.8 7554.2,859.1 7614.7,859.4 	"/>
	<polygon class="accentcolor" points="7871.5,827.1 7840.3,793.8 7779.9,793.6 7750.6,826.6 7781.8,859.9 7842.2,860.2 	"/>
	<polygon class="accentcolor" points="7526.4,708.1 7495.3,674.8 7434.8,674.5 7405.5,707.5 7436.7,740.8 7497.2,741.1 	"/>
	<polygon class="accentcolor" points="7754,708.9 7722.9,675.6 7662.4,675.3 7633.1,708.3 7664.3,741.6 7724.8,741.9 	"/>
	<path class="accentcolor" d="M7941,742.6l-1.8-44.6c-0.4-7.2-0.7-14.5-1-21.7l-48.2-0.2l-29.3,33l31.2,33.3L7941,742.6z"/>
	<polygon class="accentcolor" points="7641.5,747.8 7610.3,714.5 7549.8,714.2 7520.6,747.2 7551.7,780.5 7612.2,780.8 	"/>
	<polygon class="accentcolor" points="7869.1,748.5 7837.9,715.2 7777.4,715 7748.1,748 7779.3,781.3 7839.8,781.6 	"/>
</g>
</svg>
