<?xml version="1.0" encoding="utf-8"?>
<!-- Generator: Adobe Illustrator 27.9.1, SVG Export Plug-In . SVG Version: 6.00 Build 0)  -->
<svg class="w" version="1.1" xmlns="http://www.w3.org/2000/svg" xmlns:xlink="http://www.w3.org/1999/xlink" x="0px" y="0px"
	 viewBox="0 0 8587.8 1992.4" style="enable-background:new 0 0 8587.8 1992.4;" xml:space="preserve">
     $gradientDefs

<path class="maincolor" d="M8549.8,1980.5c47.6-0.7,49.8-22.2,10.2-45.1c-94.9-54.9-237-151.2-377.7-300c-34.4-36.4-90.7-92.6-106.5-352
	c-12.5-204.8-40.9-855.8-32.9-959.1c10-128.4,54.8-220.5,101.7-264c35.7-33.1,2.5-51.9-40.8-52.1
	c-126.3-0.6-5550.1-24.8-6771.1,12.5c-126.4,3.9-599.6,56.4-758.9,95.2c-113,27.5-388.8,116.6-499.7,189.6
	c-142.6,93.9-51.3,103.5,38.5,96.7C723,355.8,1707.4,333.8,2565,332.8c857.7-1,1710.3,30.1,2282.4,46.1
	c809,22.6,1422.6,56.4,1485.5,59.1c120.3,5.2,145.1,19.7,147.8,104.9c8.4,267.6,28.1,643.9,32.8,773
	c10.4,283.8,69.5,313.9,105.4,348.2c240,229.7,422.4,328.3,422.4,328.3S8377.5,1983.2,8549.8,1980.5z"/>
<text class="textcolor" transform="matrix(1 0 0 1 6567.5352 1061.7738)" textLength="1420" lengthAdjust="spacingAndGlyphs" style="font-family:'Arial-Black'; font-size:291.3641px; ">
	<tspan>Custom</tspan>
</text>
</svg>
