<?xml version="1.0" encoding="utf-8"?>
<!-- Generator: Adobe Illustrator 27.9.1, SVG Export Plug-In . SVG Version: 6.00 Build 0)  -->
<svg class="w" version="1.1" xmlns="http://www.w3.org/2000/svg" xmlns:xlink="http://www.w3.org/1999/xlink" x="0px" y="0px"
	 viewBox="0 0 8582.2 1991.1" style="enable-background:new 0 0 8582.2 1991.1;" xml:space="preserve">
     $gradientDefs

<g>
	<path class="maincolor" d="M8544.3,1979.2c47.5-0.7,49.7-22.2,10.2-45.1c-94.9-54.9-236.8-151.1-377.4-299.8
		c-34.4-36.4-90.6-92.6-106.4-351.8c-12.5-204.7-40.9-855.2-32.9-958.4c10-128.3,54.8-220.3,101.7-263.8c35.7-33.1,2.5-51.8-40.8-52
		c-126.3-0.6-5546.5-24.8-6766.7,12.5c-126.3,3.9-599.2,56.3-758.4,95.1C460.6,143.3,184.9,232.4,74.1,305.4
		c-142.5,93.8-51.3,103.5,38.4,96.6c610-46.4,1593.7-68.4,2450.8-69.4c857.1-1,1709.2,30.1,2280.9,46.1
		c808.5,22.6,1421.7,56.3,1484.5,59c120.3,5.2,145,19.7,147.7,104.8c8.4,267.4,28.1,643.5,32.8,772.5
		c10.4,283.6,69.5,313.7,105.3,348c239.8,229.5,422.1,328.1,422.1,328.1S8372.1,1981.9,8544.3,1979.2z M7946,1109.2
		c0,365.7-296.4,662.1-662.1,662.1c-365.7,0-662.1-296.4-662.1-662.1s296.4-662.1,662.1-662.1C7649.6,447.1,7946,743.5,7946,1109.2z
		"/>
	<path class="maincolor" d="M7482.6,1569.2l-204.2-146.4l-204.9,141.1c63.8,30.2,135.1,47.1,210.4,47.1
		C7354.6,1610.9,7421.8,1596,7482.6,1569.2z"/>
	<path class="maincolor" d="M6940.5,1471.5l76.7-241.8l-223-164.8c-1.9,17.5-2.9,35.4-2.9,53.4C6791.3,1256.8,6848.5,1382,6940.5,1471.5z"
		/>
	<path class="maincolor" d="M6836.9,911l281.5-0.1l90.7-279.5C7043.6,656.6,6905.1,764.1,6836.9,911z"/>
	<path class="maincolor" d="M7368,632.8l85.8,281.8l280,2.7C7667.9,770,7531.7,661,7368,632.8z"/>
	<path class="maincolor" d="M7774.4,1072l-225.6,159.9l71.1,246.8c96.4-89.9,156.7-218.1,156.7-360.3
		C7776.5,1102.7,7775.8,1087.2,7774.4,1072z"/>
</g>
<g>
	<path class="accentcolor" d="M7127.1,1654.9c0.9-1.7,1-3.8,0.1-5.6c-1.4-1.4-3.2-2.1-5.1-2c-3.9,0.7-7.9,0.8-11.9,0.4
		c-4.8-0.7-9.6-0.6-14.3,0.5c-5.3,0.3-10.7-0.3-15.9-1.6c-7.9-0.3-15.9-0.4-23.8-0.1c-0.8,0-1.5,0.5-1.9,1.2
		c-1.5,2.7-2.6,5.6-3.4,8.6c-0.1,0.3,0,0.6,0.1,0.9c0.1,0.2,0.3,0.3,0.5,0.4c0.5,0.1,1.1,0,1.6-0.1c10-1.1,20.2-0.9,30.1,0.7
		c5.5,1.8,11,3.2,16.7,4.3c8.7,0.5,17.4-1.2,25.4-4.9C7126.2,1656.9,7126.8,1656,7127.1,1654.9L7127.1,1654.9z M7302.5,1744.8
		c30.7-2,61.2-5.9,91.4-11.7c39.3-6.6,77.9-16.9,115.2-30.9c31.1-11.8,61.4-25.8,90.6-41.9c1.7-1,3.3-2.1,4.8-3.4
		c0.3-0.4,0.5-0.9,0.4-1.4c0.1-1.6-0.8-3-2.1-3.7c-26.4-20-52.8-40-79.4-59.8c-4.2-3-9.7-3.3-14.2-0.8
		c-23.4,11.2-47.5,20.4-72.3,27.7c-2.9,0.9-5.7,2.1-8.4,3.5c-0.6,0.4-0.9,1.1-0.6,1.8c0.4,1,0.9,2,1.5,2.9c0.2,0.3,0.4,0.7,0.5,1
		c0.1,0.5-0.2,0.9-0.6,1.1c-3.7,1.7-7.7,2.8-11.8,3.2c-0.5,0-1-0.2-1.4-0.6c-4-4.5-10.2-6.1-15.8-4.1c-16.2,4.1-32.7,6.9-49.3,8.4
		c-14,1.8-28,3-42.1,3.7c-7.1-0.6-14.3-1-21.4-1.2c-13,0.7-26,0.5-39-0.5c-31.9-2.3-63.5-7.3-94.5-15c-22.5-5.2-44.7-11.2-66.8-18.1
		c-6.3-0.7-12.6-1.1-18.9-1.1c-1.1-0.1-1.9-1-1.9-2.1c-0.1-1.8-0.2-3.6-0.4-5.5c-0.6-2-2.2-3.4-4.3-3.6c-4.5-1.3-9.4-0.1-12.7,3.3
		c-3.5,2.3-7.9,3-11.9,1.7c-3.9-0.9-7.9-1.3-11.9-1.3c-7,1.9-13.5,5.4-19,10.3c-15.3,11.4-30.7,22.7-46.2,33.8
		c-2.9,1.5-5.4,3.8-7.3,6.5c-0.3,0.6-0.3,1.3,0.1,1.8c3.8,3.6,8.1,6.7,12.7,9c19.3,10.3,38.9,20.1,58.8,29.4
		c65.3,29.3,134.8,47.4,205.8,53.6c16.9,1.7,33.9,3.1,50.9,4C7288.2,1744.8,7295.3,1744.8,7302.5,1744.8L7302.5,1744.8z"/>
	<path class="accentcolor" d="M7451,1346.2c5.5-1.5,10.8-3.5,15.9-6c3.6-1,7.4-1.8,11.1-2.3c0.6-0.2,1.2-0.6,1.6-1c2.7-2.2,5.6-4.2,8.5-6
		c1-0.9,1.7-2.1,2.1-3.4c0.1-0.3,0.1-0.6,0-0.9c-0.1-0.2-0.2-0.3-0.4-0.4c-0.5-0.1-1-0.1-1.6-0.1c-10.6,0.3-21.2,1.1-31.7,2.2
		c-10.1,2.7-20.6,3.7-31,2.9c-1.6,0-3.2,0-4.8,0.1c-0.7,0-1.4,0.4-1.8,1c-0.2,0.5-0.4,1-0.6,1.5c-1.3,4.8-4.3,9-8.5,11.6
		c-0.5,0.4-0.9,0.8-1.3,1.3c-0.1,0.2-0.1,0.4-0.1,0.6c0,0.2,0.1,0.4,0.3,0.5c7.6,5.1,17.2,6.1,25.6,2.6c4.8-2.1,9.9-3.4,15-3.9
		C7450,1346.4,7450.5,1346.3,7451,1346.2L7451,1346.2z M7621.9,1602.9c-12.5-45.5-25.7-90.8-39.4-135.9
		c-6.5-23.6-13.1-47.2-19.9-70.7c-2-6.8-5.1-13.2-9-19.1c-0.3-0.4-0.3-1-0.2-1.5c0.5-2.1,0.7-4.2,0.4-6.3c-0.1-0.8-0.6-1.5-1.2-2
		c-0.7-0.6-1.4-1.3-2-2.1c-1.2-2.2-1.8-4.7-1.6-7.3c-0.1-1-0.3-1.9-0.8-2.7c-0.2-0.3-0.4-0.5-0.7-0.5c-1.2-0.2-2.3-0.3-3.5-0.3
		c-14.4-0.2-28.7,0.8-42.9,3.1c-1.2,0.1-2.4-0.2-3.5-0.9c-0.5-0.4-0.6-1.2-0.3-1.7c2.5-3.4,6.1-5.6,10.2-6.3
		c5.6-1,11.1-2.3,16.6-3.8c2.6-1.4,5.3-2.8,8-4.2c0.8-0.2,1.7-0.1,2.3,0.5c1.6,1.3,3.2,2.5,4.8,3.7c1.1,0.9,2.7,1,3.9,0.3
		c1.3-0.7,2-2,2-3.5c-0.4-8-1.9-15.9-4.2-23.6c-8-28-16.2-55.9-24.6-83.8c-1.6-4.2-1.7-8.8-0.5-13c1.3-2,3.1-3.8,5.2-5
		c2.1-1.2,3.7-3.2,4.4-5.5c0.2-1.1,0.4-2.1,0.7-3.2c0.5-1.4,1.6-2.5,2.9-3c6-2.5,12.1-4.8,18.2-7c4.6-2.3,8.8-5.3,12.5-8.9
		c0.8-1.3,1.4-2.6,1.9-4c1.5-3.3,4.4-5.7,7.9-6.5c7.3-2.2,14.2-5.8,20.3-10.6c2.6-2.5,4.2-5.9,4.5-9.5c0-0.5-0.2-1-0.6-1.3
		c-1.6-0.8-3.3-1.3-5.1-1.4c-11.2-0.3-22.5,0.8-33.4,3.5c-6,1.3-12.1,2.4-18.3,3.1l-1.5,0l-0.6-0.4c-0.4-0.4-0.8-0.8-1-1.3
		c-0.5-0.9-1-1.7-1.5-2.6c-0.3-0.4-0.7-0.7-1.2-0.7c-6,0.5-12,0.6-18.1,0.4c-2.5-0.6-4.9-1.6-7.1-3c-4.5-1.1-9.3-0.6-13.5,1.4
		c-4.3,3.4-9.9,4.4-15.1,2.8c-5-0.5-10.1-0.3-15.1,0.6c-5-0.5-10.1-1-15.1-1.7c-6.4-0.1-12.9,0.7-19.1,2.2
		c-4.4,0.4-8.8-0.5-12.7-2.4c-7.6-3-15.6-4.7-23.8-5.1c-9.6-0.4-19.1-1.8-28.5-4c-0.4-0.1-0.8-0.3-1.1-0.6c-0.3-0.2-0.5-0.6-0.4-1
		c0.1-0.5,0.4-1,0.9-1.3c3.4-2.4,7.6-3.3,11.7-2.6c8.5,1,17,2.2,25.4,3.7c8.7,0.6,17.5,0.9,26.2,0.8c8.1,0.2,16.2-1.2,23.8-4.1
		c5.7-0.2,11.4,0.8,16.7,3c10.9,2.7,22.3,3.2,33.4,1.4c8.5-1,17.1-0.6,25.4,1.2c4.8,0.8,9.8-0.6,13.5-3.8c0.8-0.5,1.7-0.9,2.7-1.1
		c0.3-0.1,0.7,0,1,0.2c0.5,0.4,1,0.8,1.5,1.2c1.8,2,3.8,3.8,5.9,5.5c0.7,0.4,1.6,0.5,2.4,0.2c6.3-1.6,12.8-1.8,19.1-0.5
		c5.6-0.3,11.1-0.9,16.7-1.6c2.4,0,4.7,0,7.1,0.1l1.4-0.2c1-0.7,2.2-1.1,3.4-1.3c3.9,0.1,7.8,1.2,11.1,3.3l0.8,0.4
		c0.8,0.3,1.6,0.3,2.3-0.1c6-4.2,11.8-8.6,17.5-13.2c1.8-1.8,2.5-4.4,1.8-6.9c-0.1-0.3-0.4-0.5-0.7-0.6c-0.7-0.1-1.4-0.1-2,0.2
		c-0.7,0.2-1.4,0.5-1.9,1c-0.2,0.2-0.6,0.4-0.9,0.4c-0.2,0-0.4,0-0.5,0c-0.4-0.1-0.7-0.2-1.1-0.3c-0.4-0.1-0.7-0.5-0.8-0.9
		c-0.3-3.3,1-6.5,3.4-8.6c1.5-1.7,3.2-3.2,5-4.5c2.9-0.9,6-0.5,8.7,0.9c5.8,1.8,12.1,1.2,17.5-1.7c7.6-3.8,14.8-8.5,21.4-14
		c18.7-13.5,37.5-26.9,56.4-40.1c3.9-1.3,6.7-4.7,7.4-8.8c0.1-0.4,0.1-0.8,0-1.3c-0.1-0.3-0.3-0.5-0.6-0.6c-0.7-0.2-1.4-0.2-2,0
		c-8.4,1.5-16.8,2.4-25.3,2.6c-14.2,2-28.6,2.8-42.9,2.5c-4.8,0.8-9.6,1.9-14.3,3.4c-8.9,2.1-18.1,2.5-27.1,1.1
		c-4.4-1.4-8.4-3.8-11.6-7.1c-0.9-1.5-1.3-3.1-1.4-4.8c0.1-0.8,0.5-1.6,1.2-2.1c4.6-2.5,9.9-3.3,15-2.3c7.1,1.3,14.3,2.1,21.5,2.3
		c6.1-0.3,12.2-0.9,18.3-1.7c7.2,0.6,14.4,1.5,21.5,2.9c19.9,2.3,40-1.3,57.9-10.4c1.5-0.9,2.5-2.5,2.8-4.3c0.8-4.4,4.8-7.5,9.2-7.2
		c5.6,0,11.2,0.1,16.8,0.1c5.9-1.1,11.4-3.8,15.8-7.9c29.6-21.4,59.3-42.6,89.1-63.7c1.7-0.7,3-2.1,3.6-3.9c0.1-0.3,0.1-0.6,0.1-0.9
		c0-0.1-0.1-0.2-0.2-0.2c-0.1-0.1-0.3-0.2-0.4-0.2c-6.8-0.8-13.7-1.1-20.6-0.9c-13,0.7-26,1-38.9,1.1c-30.4-1.3-60.9-1.7-91.4-1.3
		l-124.8-2.2c-28.9,0.2-57.7,0.3-86.6,0.3c-20.9-0.9-41.8-1.1-62.8-0.7c-11.1,0.6-22.1,0.6-33.2,0.2c-0.8-0.1-1.4-0.6-1.8-1.3
		c-5.9-16-11.2-32.2-15.9-48.6c-21.8-74.8-44.3-149.4-67.5-223.7c-3.7-12.8-7.7-25.5-11.9-38.2c-1.4-3-3.6-5.6-6.4-7.4
		c-1.1-1-1.8-2.3-2-3.8c0-0.6,0.3-1.2,0.7-1.6c2.4-2.4,3-6.1,1.6-9.2c-10.4-34.7-20.7-69.4-30.9-104.1c-2.1-7.1-4.5-14.1-7.2-20.9
		c-0.1-0.3-0.3-0.6-0.6-0.8c-0.2-0.2-0.5-0.2-0.8,0c-0.3,0.2-0.6,0.5-0.8,0.8c-5.5,12.4-10.3,25.1-14.2,38.1
		c-10.1,32-20.1,64-29.9,96l-20.1,60.2c-0.9,3.3-1.3,6.6-1.3,10c0,0.2,0.1,0.5,0.3,0.6c0.2,0.1,0.4,0.2,0.7,0.2
		c3.7-0.6,7.3-1.8,10.7-3.5c5.2-1.1,10.6-1.2,15.8-0.3c0.8,0,1.6,0.1,2.4,0.1l0.8,0c0.5-0.1,0.9-0.3,1.3-0.7
		c1.1-1.4,2.3-2.7,3.5-3.9c1.7-1.1,3.7-1.4,5.6-1.1c0.5,0,1.1,0.1,1.5,0.3c0.2,0.1,0.4,0.2,0.6,0.4c0.2,0.2,0.3,0.3,0.4,0.5
		c0.6,1.5,0.4,3.1-0.4,4.5c-0.3,0.4-0.4,0.9-0.5,1.4c0,0.1,0,0.3,0.1,0.4c0.1,0.1,0.2,0.2,0.3,0.3c1.2,0.3,2.3,0.4,3.5,0.4
		c1,0,2.1,0.1,3.1,0.3c0.6,0,1.1,0.2,1.7,0.3c0.4,0.2,0.6,0.6,0.6,1c-0.3,1.5-1.1,2.8-2.2,3.8c-2.9,2.5-6,4.8-9.3,6.7
		c-0.3,0.1-0.7,0.2-1,0.1l-0.5-0.2c-0.6-0.6-1.1-1.3-1.5-2c-0.9-2-1.8-4-2.6-6c-0.2-0.4-0.6-0.7-1-0.7c-1.1,0-2.1,0.2-3.2,0.5
		c-10.1,1.7-20.2,3.6-30.2,5.6c-4.7,2.8-8.1,7.4-9.5,12.7c-11.4,36.7-23.1,73.3-34.9,109.8l-21.7,67.5c-0.6,5.2-1.6,10.4-2.9,15.5
		c-1.9,4.6-3,9.4-3.2,14.4c0,0.9,0.4,1.6,1.2,2.1c6.3,2.1,12.5,4.7,18.4,7.8c0.6,0.4,1.1,1,1.4,1.7c0.1,0.4,0,0.8-0.3,1.1
		c-1.4,1.1-3.1,1.8-4.8,2c-4.2,1.1-8.5,1.7-12.8,1.6c-0.8-0.1-1.5-0.4-2.1-1c-1.5-1.5-3.1-2.8-4.8-4c-0.4-0.3-1-0.4-1.5-0.3
		l-0.5,0.2c-1.1,1-2,2.3-2.4,3.7c-0.4,0.8-0.8,1.6-1.1,2.4c-0.3,0.8-0.8,1.5-1.6,1.9c-3.3,1.6-6.9,2.3-10.5,2
		c-9.8-0.1-19.6-0.8-29.4-2c-15.9-0.4-31.8,0-47.7,1.1c-24.4,0.9-48.8,0.5-73.1-1.1c-18.3,0.2-36.6,0.7-54.8,1.4l-132.7,0.7
		c-12.9,2.1-25.9,2.7-38.9,1.7c-18.3-1-36.5-1.6-54.8-1.9c-4.8-0.2-9.6,0.3-14.2,1.5c-0.3,0.1-0.5,0.4-0.5,0.7c0,0.5,0.2,1,0.6,1.4
		c5.6,6,12,11.3,18.9,15.6c25.8,18.4,51.5,36.9,77.1,55.7l154.9,112.6c4.9,2.5,10.6,3.2,16,2c1.9-0.4,3.8,0,5.4,1.1
		c1.1,1.3,1.5,3.1,1,4.7c-0.7,2.4-0.6,4.9,0.1,7.3c2.6,3.4,5.8,6.3,9.5,8.5c23.7,17.5,47.6,34.9,71.5,52.1c5,3,9.7,6.4,14,10.3
		c1.7,2.7,1.8,6,0.5,8.9c-4.5,11.7-8.2,23.6-11.1,35.8c-1,2.5-0.7,5.4,0.8,7.7c0.6,0.6,1.4,0.8,2.2,0.8c3.4-0.6,6.8-0.6,10.2,0
		c0.9,0.3,1.7,0.7,2.5,1.3c0.2,0.2,0.4,0.4,0.4,0.7c0.1,0.2,0,0.4-0.1,0.6c-1.1,1.4-2.6,2.3-4.3,2.5c-4.2,0.8-8.4,1.4-12.7,1.8
		c-1.8,0.4-3.4,1.7-4.2,3.4c-4.4,8.4-7.6,17.5-9.6,26.8c-4,14-8.6,27.8-13.7,41.4c-4.3,12.1-8.3,24.3-12.1,36.6
		c-3,6.4-6,12.9-8.7,19.5l-67.4,213.9c-0.7,2.6-1.3,5.2-1.7,7.9c0,0.3,0,0.6,0.1,0.9c0.1,0.2,0.3,0.4,0.5,0.5
		c0.5,0.2,1.1,0.3,1.6,0.2c3.3-0.7,6.3-2.4,8.6-4.9c20.6-14.8,41.2-29.4,62.1-43.8c23-15.6,45.8-31.6,68.3-47.9
		c14.6-9.2,28.7-19.3,42.1-30.2c1.4-1.2,2.6-2.4,3.7-3.9l0.8-1.3c0-0.1,0-0.2,0-0.3c0-0.1-0.1-0.2-0.2-0.3c-0.2-0.1-0.5-0.2-0.8-0.2
		c-4.9,1.3-9.8,2.7-14.6,4.4c-10.9,3.1-22.3,3.6-33.4,1.5c-5.4-0.3-10.8,0.3-15.9,2c-1.4,0.2-2.9,0.3-4.3,0.2
		c-0.3,0-0.6-0.1-0.8-0.3c-0.2-0.2-0.3-0.4-0.3-0.7c0.1-0.7,0.4-1.4,0.8-1.9c3.3-3.5,7.8-5.5,12.5-5.6c5.6-0.4,11.1-0.6,16.7-0.6
		c4.2-1.4,8.7-1.3,12.8,0.4c4.1,0.1,8.2-0.9,11.8-2.8c7-1.7,14.3-2.2,21.5-1.5c5.8-0.1,11.5-2.2,15.9-6.2
		c45.2-31.5,90.3-63.3,135.1-95.3c2.6-1.8,5.3-3.4,8-4.9c0.7-0.3,1.5-0.3,2.2,0.1c8.2,5.2,16.2,10.8,23.9,16.9l306,221
		c5.5,4.5,11.5,8.5,17.8,11.7c0.3,0.1,0.5,0.2,0.8,0.2c0.1,0,0.2,0,0.3-0.1c0.1-0.1,0.1-0.1,0.1-0.2c0-0.7-0.1-1.4-0.3-2
		C7626.7,1621.2,7624.4,1612,7621.9,1602.9L7621.9,1602.9z"/>
	<path class="accentcolor" d="M7690.2,1597.4c23.1-17.8,44.7-37.5,64.8-58.8c13.2-13.6,25.6-28,37.1-43.1c16.8-25.1,33.4-50.3,49.9-75.7
		c12.5-22.6,23.7-46,33.6-70c1.5-3.9,2.7-7.9,3.5-12c0.1-0.7-0.2-1.4-0.8-1.8c-2.6-2-6.1-2.5-9.2-1.3c-2.6,0.2-5.2-0.7-7.2-2.4
		c-2-1.3-4.1-2.5-6.1-3.9c-0.6-0.6-1-1.4-1.2-2.2c0-0.5,0.2-0.9,0.6-1.1c5.1-2.1,10.8-1.5,15.4,1.6c0.7,0.4,1.4,0.8,2.2,1.1
		c0.7,0.4,1.5,0.4,2.1,0c4.9-2.1,9-5.8,11.6-10.5c2.5-7.2,4.8-14.6,7-21.9c10.3-37,17.4-74.8,21.3-113.1c1.7-17.9,3.3-35.8,4.8-53.7
		c0.1-11.7,0-23.3-0.4-35c-1.2-17.3-2.3-34.7-3.3-52c-0.4-5.2-1.1-10.4-2.1-15.5c-1.6-3.1-4.2-5.5-7.3-7c-1-0.6-1.9-1.4-2.7-2.2
		c-0.3-0.3-0.4-0.6-0.4-1c0-0.4,0.1-0.7,0.4-1c1.1-1,2.2-1.9,3.5-2.7l0.7-0.5c1.3-0.7,2.1-2,2.1-3.5c0.7-7.6,0.3-15.3-1.2-22.8
		c-0.3-1.3-0.7-2.5-1.3-3.6c-0.4-0.8-1.3-1.2-2.1-0.8c-7,2.7-13.4,7-18.5,12.6c-6,6.1-12.5,11.8-19.4,16.8
		c-3.2,1.7-6.7,2.7-10.3,3.1c-0.6,0.1-1.1,0.3-1.5,0.7c-8.9,7-18.3,13.4-28,19.3c-6.1,3.8-11.6,8.4-16.4,13.7
		c-2.2,3.9-3.9,8-5.2,12.3c-1.8,6-2.2,12.4-1.2,18.7c1,12.7,2,25.5,2.9,38.2c0,7.3-0.3,14.7-0.8,22c-0.9,8.9-1.2,17.9-0.8,26.8
		c0.2,2,1.4,3.8,3.3,4.6c3.2,0.1,6.4,0.6,9.5,1.6c1.1,0.4,2,1.3,2.5,2.3c0.2,0.8,0.1,1.7-0.4,2.4s-1.3,1-2.2,1
		c-3.9-0.1-7.9-0.2-11.8-0.1c-0.7,0.1-1.4,0.6-1.7,1.3c-3.2,6.6-4.9,13.8-5,21.2c-2.2,17.4-5.9,34.6-11,51.3
		c-2.2,6.3-3.3,12.8-3.3,19.5c-1.8,7.2-4.1,14.3-6.8,21.1c-3.8,10.9-7.8,21.8-12,32.5c-6.7,10.4-13,20.9-19,31.7
		c-13,26.2-28.2,51.2-45.4,74.8c-15,21.8-31.7,42.2-50,61c-7.7,8.6-15.5,17-23.6,25.2c-1.4,1.5-1.8,3.8-1,5.7
		c3.7,12.4,7.8,24.6,12.4,36.6c5.5,18.2,11.8,36.1,19,53.7c0.4,0.7,0.8,1.5,1.2,2.2c0.3,0.5,0.7,0.8,1.3,0.8
		c1.2-0.2,2.5-0.7,3.6-1.3C7674.3,1609.4,7682.5,1603.7,7690.2,1597.4L7690.2,1597.4z"/>
	<path class="accentcolor" d="M6909.8,1584.9c8.3-24.6,15.5-49.5,21.5-74.8c0.3-1.5,0.5-3.1,0.6-4.6c0-0.5-0.2-1-0.5-1.4
		c-12.8-12.1-25.4-24.4-37.7-37.1c-18.7-25.1-37.2-50.3-55.6-75.6c-7.9-13.2-15.1-26.7-21.5-40.7c-2.2-4.7-6-8.4-10.8-10.2
		c-6-1.1-12.2-1.4-18.3-0.8c-6.5,0.6-13-0.4-19-2.9c-2.5-1.3-4.2-3.8-4.4-6.7c0.1-0.7,0.6-1.3,1.3-1.4c3.8-1,7.9-0.2,11,2.3
		c4.1,2.5,9.3,2.5,13.4,0.1c4.4-1.7,8.7-3.7,13-5.7c0.6-0.3,1-1,0.8-1.7c-3.8-14-8.3-27.7-13.5-41.3c-16.4-54-24.8-110.2-25-166.7
		c0-16.8,0.8-33.7,2.5-50.4c0.2-8.9-2.1-17.6-6.6-25.2c-5.1-5.6-11.2-10.1-17.9-13.4c-16.4-10.7-32.5-21.8-48.5-33.1
		c-8.6-5.8-17-11.8-25.3-18c-1.6-1.8-3.6-3.2-5.9-4c-0.3-0.1-0.7,0-1,0.2c-0.3,0.5-0.6,1-0.7,1.5c-5.1,19.9-8.2,40.4-9.3,60.9
		c0.9,4.1,1.8,8.1,2.8,12.2c0.5,6.3,0,12.7-1.7,18.8c-2.3,3.3-3.5,7.3-3.4,11.3c-0.7,5.4-1.3,10.9-1.8,16.3c-0.1,1,0.2,1.9,0.9,2.6
		c0.7,0.7,1.7,0.9,2.6,0.7c3.1-0.7,6.3-0.6,9.3,0.1c1,0.8,1.5,2.1,1.2,3.4c-0.3,1.3-1.4,2.2-2.7,2.3c-2.3,0.6-4.7,1.2-7,1.9
		c-0.2,0.1-0.3,0.3-0.4,0.5c-0.1,0.5-0.2,1.1-0.2,1.6c-0.5,5.1-0.3,10.3,0.6,15.3c2.8,5.2,3.4,11.4,1.7,17.1c-1.7,9.5-1,19.3,2,28.5
		c0.7,3.5,0.4,7.2-0.7,10.5c-0.2,6.8,0.5,13.7,2,20.3c4,21.8,8.3,43.5,13,65.1c0.4,4.1,1,8.2,1.8,12.2c1.1,1.8,2.7,3,4.7,3.5
		c1.6,0.6,3,1.4,4.4,2.4c0.6,0.6,0.9,1.4,0.8,2.2c-1,5.1-1.5,10.2-1.5,15.4c0.8,7.6,2.7,15,5.7,22c1.5,4.1,3.3,8,5.4,11.7
		c0.3,0.5,0.8,0.8,1.4,0.8c4.4,0.3,8.9,0.1,13.3-0.6c1.1-0.1,2.1,0.4,2.8,1.2c0.7,0.8,0.9,1.9,0.7,3c-0.1,0.3-0.3,0.5-0.6,0.6
		c-2.9,1.4-6,1.9-9.2,1.6c-1.1,0-2.1,0.3-3,0.8c-0.4,0.3-0.6,0.8-0.7,1.3c0.2,4.2,1.3,8.3,3.1,12.1c12,26.5,25.4,52.3,40.1,77.3
		c8.7,16.2,19,31.5,30.7,45.6c17,22.3,34.2,44.5,51.4,66.6c10.2,11.7,21,22.9,32.3,33.5c5.9,5.9,12.1,11.6,18.4,17.1
		c7,6.6,14.4,12.6,22.3,18.1c1.2,1,2.8,1.2,4.3,0.8c0.5-0.3,0.8-0.7,1-1.2C6903.8,1602.4,6907.1,1593.7,6909.8,1584.9L6909.8,1584.9
		z"/>
	<path class="accentcolor" d="M7883.3,917.4c1.9,0,3.7-0.3,5.4-0.9c1-0.5,1.5-1.5,1.3-2.6c-1-4.7-2.6-9.3-4.6-13.7
		c-6-17.3-12.5-34.4-19.4-51.3c-6.4-14.9-14.3-29-23.4-42.3c-2.1-4.6-4.3-9.1-6.6-13.6c-4.4-5-8.3-10.5-11.6-16.4
		c-10.5-17-21.6-33.6-33.4-49.6l-14.2-17.9c-4.7-5-10-9.5-15.8-13.2c-0.8-0.3-1.6-0.4-2.4-0.2c-0.6,0.2-1,0.7-1.3,1.3
		c-0.5,0.9-1.1,1.8-1.6,2.7c-0.2,0.4-0.6,0.6-1,0.6c-0.6-0.1-1.2-0.3-1.7-0.6c-3.2-2.2-6.6-4.2-10-6.1c-0.3-0.2-0.6-0.5-0.8-0.8
		c-0.2-0.4-0.2-0.9,0-1.3c1.4-3.1,4.3-5.3,7.6-5.8c0.5-0.2,1-0.4,1.5-0.6c0.3-0.2,0.5-0.5,0.4-0.9c-1.4-4-3.9-7.5-7.4-9.9
		c-3.5-3.3-7.2-6.3-11.1-9c-4.9-1.6-10.1-1.8-15.1-0.9c-19.6,1.6-39.3,1.3-58.8-0.8c-0.8-0.2-1.6-0.4-2.4-0.6
		c-0.5-0.2-0.9-0.5-1.1-1c-2.6-3.6-5-7.4-7-11.4c-0.3-0.7-0.3-1.5,0.1-2.1c3.3-4,7.3-7.3,11.9-9.6c2.4-1.6,4.6-3.6,6.3-5.9
		c0.6-0.9,0.5-2-0.2-2.8c-1.4-1.7-2.6-3.5-3.8-5.4c-0.2-0.4-0.3-1,0-1.4c0.4-0.6,1.1-1.1,1.8-1.3c1.1-0.4,2.2-0.9,3.1-1.6
		c0.5-0.5,0.8-1.2,0.6-1.9c-1.6-4.8-3.1-9.6-4.7-14.4c-2.4-2.9-5.1-5.6-7.8-8.2c-12-12.8-25.6-23.9-40.6-32.9
		c-19.7-12.9-40.8-23.5-62.8-31.5c-2.5-0.3-4.7-1.6-6.1-3.7c-0.2-0.4-0.5-0.8-0.7-1.2c-0.3-0.4-0.8-0.7-1.3-0.6
		c-5.8,0.5-11.4-1.5-15.7-5.4c-15-7.1-30.4-13.5-46.1-19c-6.9-2.8-14.5-3-21.4-0.4c-1.5,0.2-3,0.2-4.5,0c-0.5-0.1-0.9-0.4-1.2-0.8
		c-0.5-1.3-0.8-2.7-0.8-4.2c0.1-1.2-0.6-2.2-1.7-2.6c-8.5-2.8-17.1-5-25.9-6.6c-21.2-4.8-42.7-8.2-64.4-10.2
		c-8.5-0.6-17-1.5-25.4-2.9c-2.5-0.5-5.1-0.3-7.5,0.6c-0.6,0.3-0.9,0.9-0.9,1.6c1.4,6.1,2.9,12.2,4.6,18.2
		c8,30.2,16.5,60.3,25.5,90.3c1.6,4.7,3.5,9.3,5.8,13.8c1.7,1.9,4.1,3.1,6.7,3c12.1,1.8,24,4.4,35.8,7.6c12.8,3.7,25.8,6.7,38.9,9.1
		c4.1-0.2,8.1-1,11.9-2.5c5.4-1.8,11-2.5,16.6-2.2c0.4,0.1,0.8,0.2,1.2,0.4c0.5,0.2,0.8,0.7,0.7,1.3c0.1,1.7-1,3.3-2.7,3.8
		c-3.6,1-7.3,1.7-11.1,2.1c-0.7,0.1-1.3,0.4-1.9,0.9c-0.1,0.1-0.2,0.3-0.1,0.5c0,0.3,0.2,0.5,0.4,0.7c1.5,1,3.1,1.7,4.8,2.2
		c8.7,2.7,17,6.8,24.6,12c5.6,2.9,11.5,5.2,17.5,6.9c7.6,2.8,15.8,4,23.9,3.6c1.2,0.1,2.5,0.2,3.7,0.5c0.5,0.2,0.9,0.6,1,1.1
		c-0.1,1.4-0.6,2.6-1.5,3.6c-0.7,0.8-1.2,1.8-1.5,2.9c0,0.3,0.1,0.7,0.3,0.9c0.4,0.4,0.9,0.8,1.5,1.1c4.1,2.6,8.6,4.5,13.3,5.5
		c4.4,3,8.7,6.2,12.8,9.6c5.1,3.4,10.4,6.6,15.8,9.6c4.5,4.3,9,8.5,13.5,12.9c3.4,2.7,5.4,6.8,5.3,11.2c0.1,0.8,0.4,1.6,0.8,2.4
		c2.9,3,6.6,5,10.6,5.6c10.5,4.4,20.1,10.5,28.6,18.1c5.3,3.2,11.3,4.7,17.5,4.5c6.4,0.4,12.8,1.5,19.1,3c1.5,0.3,2.9,1.2,3.7,2.6
		c0.3,1.2-0.4,2.4-1.5,2.7c-0.5,0.2-0.9,0.2-1.4,0.2c-3.7-0.8-7.5-0.6-11.1,0.5c-1.3,0.5-2.3,1.5-2.8,2.8c-0.5,1.3-0.3,2.8,0.4,4
		c2.1,3.9,4.3,7.6,6.7,11.3c1.8,5.8,5.2,10.9,9.8,14.7c18.4,18.6,35.1,39,49.7,60.9c11.8,17.3,22.4,35.5,31.6,54.5
		c2.3,5.2,4.6,10.3,6.9,15.4c2.3,3,5.9,4.7,9.7,4.5c21.1,1.9,42.4,2.8,63.6,2.6C7853.1,917.2,7868.2,917.4,7883.3,917.4
		L7883.3,917.4z"/>
	<path class="accentcolor" d="M6938.9,673.2c7.2-1.9,13.5-6.1,18.2-11.9c6.2-5.4,13.2-9.7,20.9-12.7c5.5-2.5,11.6-3.3,17.5-2.1
		c4.8-0.2,9.4-1.6,13.5-4.3c0.9-0.9,1.5-2.2,1.5-3.5c0-0.3-0.2-0.6-0.4-0.8c-1.5-1.1-3.2-1.7-5-2c-2.3-0.5-4.4-1.5-6.3-2.9
		c-1-0.8-2-1.6-3-2.3c-0.4-0.2-1-0.3-1.4-0.1c-2.1,1.4-4.4,2.5-6.7,3.5c-2.2,0.7-4.6,0.2-6.3-1.4c-1.8-1.5-3.9-2.7-6.1-3.3
		c-0.8-0.1-1.5,0.1-2.1,0.7c-0.9,0.7-1.7,1.6-2.4,2.5c-0.3,0.5-0.4,1-0.2,1.6c0.5,1.5,1,2.9,1.4,4.4c0.1,0.5,0.1,1-0.1,1.4
		c-0.1,0.2-0.3,0.4-0.6,0.5c-0.6,0.2-1.3,0.4-1.9,0.4c-5.9,2-12.2,2.3-18.2,1.1c-3.6-0.3-7.2,0.4-10.4,2.1
		c-4.4,1.1-8.9,1.9-13.5,2.2c-4.1,1.9-7.5,5.1-9.7,9.1c-0.3,0.8-0.2,1.7,0.1,2.5c0.7,1.8,1.4,3.6,1.9,5.4c0.1,0.5,0,1-0.4,1.4
		c-1.2,1-2.6,1.9-4,2.5c-3,1-5.7,2.8-7.8,5.2c-0.6,0.9-1,2-1,3c0,0.5,0.2,0.9,0.6,1.1c3,1.1,6.4,0.6,9-1.2c3.5-2.6,7.6-4.2,12-4.6
		c2.8,0.1,5.6,1,8,2.6c0.8,0.3,1.6,0.3,2.4,0.1L6938.9,673.2L6938.9,673.2z M6718.7,913.1c23.6-1,47.2-1,70.7,0
		c4.5,0.2,9-0.1,13.5-1c3.1-2,5.4-5.1,6.5-8.7l32.5-56.7c0.8-2.1,1.4-4.3,1.9-6.5c1.1-2.2,2.8-4,5-5.2c5.8-3.3,9.8-9.2,10.8-15.9
		c0.6-3.9,2.3-7.5,4.8-10.5c2.2-3.7,4.4-7.5,6.5-11.3c0.4-0.9,0.6-1.9,0.5-2.9c-0.1-0.5-0.4-0.9-0.9-1.2c-2.3-1.1-4.7-1.9-7.2-2.6
		c-1.9-0.9-3-3-2.5-5.1c0.1-0.3,0.3-0.5,0.6-0.7c5.1-2.1,10.8-1.4,15.4,1.7c1.1,0.6,2.3,1.1,3.5,1.5c0.5,0.1,1,0,1.4-0.4
		c6.5-6.8,11.8-14.8,15.5-23.5c0.7-1.3,2.1-2,3.6-1.8c4.1-0.2,7.8-2.3,10.3-5.6c4.4-4,8.1-8.9,10.8-14.3c0.6-1.2,0.4-2.8-0.5-3.8
		c-0.4-0.3-0.9-0.5-1.4-0.6c-5.1,0-10.1,0.4-15.1,1.3c-2.3,0.1-4.6-0.5-6.6-1.7c-0.3-0.2-0.5-0.7-0.4-1.1c0.9-2.9,3.4-4.9,6.3-5
		c6.6-1,13.2-1.5,19.9-1.6c10.3,0.1,20.1-4.1,27.1-11.8c5.4-4.6,10-10.1,13.6-16.3c3.8-3.4,7.8-6.6,11.9-9.7
		c3.1-2.2,6.7-3.6,10.4-4.2c11.6-2.4,22.6-7.6,31.9-15.1c7.6-4.8,15.4-9.4,23.2-13.8c2.9-1.3,4.9-4.1,5.1-7.3
		c-0.1-0.9-0.6-1.6-1.4-2c-6.1-2.5-12.1-5.3-18-8.3c-2.8-0.9-5.7-1.7-8.6-2.4c-0.4-0.1-0.8-0.3-1.1-0.7c-0.1-0.1-0.2-0.3-0.3-0.4
		c0-0.1-0.1-0.3,0-0.4c0.5-1.6,1.6-2.9,3-3.7c1.5-0.8,3.1-0.9,4.7-0.4c3.6,1.2,7.3,1.7,11.1,1.6c1.8-0.7,3.7-1,5.6-0.8
		c9.1,2.1,18.5,2.6,27.8,1.5c5.6-0.2,11.2,0.1,16.7,0.9c5.3,0.2,10.6-1.3,15.1-4.1c16.7-7,34.1-12.3,51.9-15.7
		c19.5-4.2,39.1-7.4,58.8-9.9c3.1-1.2,5.3-3.9,5.9-7.2c12.2-37.5,23.2-75.4,32.9-113.6c0.7-3.3,1.2-6.7,1.4-10.1
		c0-0.3-0.2-0.7-0.5-0.8c-0.5-0.1-1-0.2-1.6-0.1c-14,0.4-28.1,1.1-42.1,2.3c-11.8,1.8-23.4,4.1-35,7c-4,0.1-8,0.5-11.9,1.2
		c-15.9,3.5-31.9,7.2-47.7,11c-6.4,3.2-13.1,5.9-19.9,7.9c-5.8,3.8-12.3,6.3-19.1,7.4c-12,4.9-24,10-35.9,15.3
		c-16.2,6.5-32.1,13.6-47.8,21.3c-4.5,2.2-9.6,2.6-14.3,0.9c-4.3,0.1-8.5,1.6-11.9,4.2c-1.6,0.9-3.2,1.9-4.7,3l-1.3,1.3l-0.4,0.8
		c-2.5,4.6-6.4,8.3-11,10.5c-2.8,2.2-5.5,4.7-8,7.3l-1.7,1.2l-0.8,0.2c-4.4,1.3-8.4,3.5-11.9,6.4c-23.8,17-47,34.9-69.5,53.6
		c-5.9,3.6-11.1,8.1-15.5,13.5c-3,3.7-7.1,6.5-11.7,7.8c-5.5,3.3-10.4,7.6-14.4,12.7c-28.5,31.7-53.8,66.3-75.5,103.2
		c-8.4,18.5-17.6,36.6-27.4,54.3c-6.4,12.5-11.9,25.5-16.2,39c-0.5,3.6-1.2,7.1-2.1,10.6c-4.9,8.2-8.4,17.3-10.3,26.7
		c-0.3,1.6,0,3.3,0.7,4.7c0.5,0.7,1.2,1.2,2,1.5c5.4,1.6,11,2.2,16.6,1.7C6707.6,913.7,6713.2,913.5,6718.7,913.1L6718.7,913.1z"/>
</g>
</svg>
