<?xml version="1.0" encoding="utf-8"?>
<!-- Generator: Adobe Illustrator 27.9.1, SVG Export Plug-In . SVG Version: 6.00 Build 0)  -->
<svg version="1.1" xmlns="http://www.w3.org/2000/svg" xmlns:xlink="http://www.w3.org/1999/xlink" x="0px" y="0px"
	 viewBox="0 0 8593.3 1993.7" style="enable-background:new 0 0 8593.3 1993.7;" xml:space="preserve">
     $gradientDefs

     <path class="maincolor" d="M8338.1,1890.7c-76.3-58.2-147.8-122.5-213.7-192.3c-56.1-57.5-86.7-123.4-103.9-201.3
	c-15.3-68.5-24.6-138.2-27.8-208.4c-13.9-246.7-24.5-493.6-31.6-740.5c-3.1-76-3.6-152.1-1.3-228.1c3.6-50.9,13-101.2,28-150
	c7.2-23.4,16.2-46.3,26.8-68.4c1.1-2.3-0.7-5.2-3.3-5.2C6933,92,5854.8,89.4,4776.6,88.6c-806.9-0.7-1613.8,1.3-2420.7,6
	c-339.7,1.8-679.4,6.7-1019,14.7c-149.7,5.6-595.9,57.9-742,92.9c-84.3,20.2-207.4,61.7-287.5,92.2c-3.5,1.3-1.8,6.4,2,6.2
	c127-7.8,254.2-14.3,381.3-19.5c925.9-38.1,2014.7-46.2,2924.5-24.6c412.7,10,825.3,21.3,1237.9,34.2c496.6,14,993,33.8,1489.1,59.2
	l50.4,3.4c28.9,1.9,57.4,8.3,84.4,19c73.8,29.5,95.9,99.2,96.5,170.3c6.1,177.2,13.5,354.3,22.1,531.4l10.7,240.7
	c1.4,41.9,8.6,204.9,47.9,256.4c8.9,11.6,19,19.8,29.8,29.7c38,36.4,77,71.7,116.9,105.9c78.3,66.8,178.6,144.5,268.8,198.3
	c422.3-2.8,844.7-6,1267-9.8C8338.8,1895.1,8339.8,1892,8338.1,1890.7z"/>
<path class="accentcolor" d="M8555.4,1981.8c47.6-0.7,49.8-22.2,10.2-45.1c-95-55-237.1-151.3-377.9-300.2c-34.5-36.4-90.8-92.7-106.6-352.2
	c-12.5-204.9-41-856.3-32.9-959.7c10-128.5,54.8-220.6,101.8-264.2c35.7-33.1,2.5-51.9-40.8-52.1
	c-126.4-0.6-5553.6-24.9-6775.5,12.5c-126.4,3.9-599.9,56.4-759.4,95.2C461.2,143.5,185.2,232.7,74.2,305.8
	c-142.7,93.9-51.3,103.6,38.5,96.8C723.4,356,1708.5,334,2566.7,333c858.2-1,1711.4,30.2,2283.9,46.1
	c809.5,22.6,1423.5,56.4,1486.5,59.1c120.4,5.2,145.2,19.7,147.9,105c8.4,267.7,28.1,644.3,32.8,773.5
	c10.4,284,69.6,314.1,105.4,348.4c240.1,229.8,422.7,328.5,422.7,328.5S8383,1984.5,8555.4,1981.8z M8472.4,1938.2
	c-471.6,4.3-943.2,8-1414.8,11.1c-96.8-56.6-201.1-137-285.5-209c-40.4-34.6-79.9-70.3-118.3-107.1c-13.6-12.6-23.6-20.6-34.8-35.3
	c-47-61.3-54.8-220.5-57-282.3l-10.7-239.7c-8.6-177.7-16-355.4-22.2-533.1c0.5-23.6-3.3-47.2-11.1-69.5
	c-9.7-27.3-30.7-49.1-57.5-60c-22.6-9-46.5-14.4-70.8-16l-50.1-3.4c-495.7-25.4-991.6-45.1-1487.8-59.1
	c-412.5-12.8-825-24.2-1237.6-34.2c-913.3-21.5-1993.4-13.7-2921.7,24.5c-194.5,7.9-388.9,18.9-583.1,33.1
	c-11.8,1-23.6,1.5-35.5,1.5c42.3-31.6,101.5-60.4,151.4-80.7c38.3-15.9,77-30.8,116.1-44.9c79.8-28.9,160.9-54,243.1-75.3
	c167-39.9,626-89.4,750.7-94c340.1-8,680.2-12.9,1020.4-14.7c807-5.1,1614-7.1,2420.9-6c1104.7,0.7,2209.3,3.4,3314,8.2
	c2.5,0,3.9,3.1,2.4,5.1c-12.6,15.9-23.5,33.1-32.6,51.3c-12.3,23.8-22.5,48.7-30.5,74.3c-14,45.3-22.7,92-26.1,139.2
	c-2.2,74.8-1.7,149.6,1.4,224.3c7.1,246.7,17.7,493.4,31.6,739.8c3.1,67.7,12,135,26.8,201.1c7.3,33.5,18.5,66,33.2,97
	c14.8,30.8,34.8,58.8,59.1,82.9c95.1,100.7,201.9,189.6,318.1,264.9C8476.6,1933.9,8475.3,1938.2,8472.4,1938.2z"/>
<text class="textcolor" transform="matrix(1 0 0 1 6641.8481 1062.4604)" textLength="1300" lengthAdjust="spacingAndGlyphs" style="font-family:'Arial-Black'; font-size:291.5526px;">
	<tspan>$textRef</tspan>
</text>
</svg>
