<?xml version="1.0" encoding="utf-8"?>
<!-- Generator: Adobe Illustrator 27.9.1, SVG Export Plug-In . SVG Version: 6.00 Build 0)  -->
<svg class="w" version="1.1" xmlns="http://www.w3.org/2000/svg" xmlns:xlink="http://www.w3.org/1999/xlink" x="0px" y="0px"
	 viewBox="0 0 8593.3 1993.7" style="enable-background:new 0 0 8593.3 1993.7;" xml:space="preserve">
     $gradientDefs

<path class="maincolor" d="M73.3,315.1c163.5-10,496.7-29.2,617.5-34.1c925.9-38.1,2014.7-46.2,2924.5-24.6
	c412.7,10,825.3,21.3,1237.9,34.2c496.6,14,993,33.8,1489.1,59.2l50.4,3.4c28.9,1.9,57.4,8.3,84.4,19
	c73.8,29.5,95.9,99.2,96.5,170.3c6.1,177.2,13.5,354.3,22.1,531.4l10.7,240.7c1.4,41.9,8.6,204.9,47.9,256.4
	c8.9,11.6,19,19.8,29.8,29.7c38,36.4,77,71.7,116.9,105.9c78.3,66.8,178.6,144.5,268.8,198.3c401-2.6,995.5-6.5,1418.1-10.1
	c2.2,0,4.3-3.5,2.5-4.7c-87.4-57.4-195.3-140.3-302.5-253.6c-34.5-36.4-90.8-92.7-106.6-352.2c-12.5-204.9-41-856.3-32.9-959.7
	c10-128.5,54.8-220.6,101.8-264.2c35.7-33.1,2.5-51.9-40.8-52.1c-126.4-0.6-5553.6-24.9-6775.5,12.5
	c-126.4,3.9-599.9,56.4-759.4,95.2c-113,27.5-389,116.7-500,189.8C70.7,308,69.1,315.3,73.3,315.1z"/>
<path class="accentcolor" d="M8561.2,1938.4c-464.1,4-1073,8.1-1503.6,10.9c-96.8-56.6-201.1-137-285.5-209
	c-40.4-34.6-79.9-70.3-118.3-107.1c-13.6-12.6-23.6-20.6-34.8-35.3c-47-61.3-54.8-220.5-57-282.3l-10.7-239.7
	c-8.6-177.7-16-355.4-22.2-533.1c0.5-23.6-3.3-47.2-11.1-69.5c-9.7-27.3-30.7-49.1-57.5-60c-22.6-9-46.5-14.4-70.8-16l-50.1-3.4
	c-495.7-25.4-991.6-45.1-1487.8-59.1c-412.5-12.8-825-24.2-1237.6-34.2c-913.3-21.5-1993.4-13.7-2921.7,24.5
	c-151.1,6.1-460.5,23.9-682.2,38.2c-2.9,0.2-5.5,1.6-6.9,4.2c-19.4,36.3,45.3,39.8,109.2,34.9C723.4,356,1708.5,334,2566.7,333
	c858.2-1,1711.4,30.2,2283.9,46.1c809.5,22.6,1423.5,56.4,1486.5,59.1c120.4,5.2,145.2,19.7,147.9,105
	c8.4,267.7,28.1,644.3,32.8,773.5c10.4,284,69.6,314.1,105.4,348.4c240.1,229.8,422.7,328.5,422.7,328.5s1337.1-9.2,1509.5-11.9
	c41.4-0.7,48.5-17,23.6-36.3C8573.5,1941.3,8568.1,1938.4,8561.2,1938.4z"/>
<text class="textcolor" transform="matrix(1 0 0 1 6671.8481 1062.4606)" textLength="1300" lengthAdjust="spacingAndGlyphs" style="font-family:'Arial-Black'; font-size:291.5526px;">
	<tspan>$textRef</tspan>
</text>
</svg>
