<svg xmlns="http://www.w3.org/2000/svg" viewBox="0 0 982.06 216"><defs><style>.cls-1,.cls-2{fill:#121212;}.cls-2{fill-rule:evenodd;}</style></defs><title>3_6L</title><g id="Layer_2" data-name="Layer 2"><g id="Layer_1-2" data-name="Layer 1"><path class="cls-1" d="M-25173.67-6537.89l20.8-57.14h169.06l10.22-28.07h-140.3l16.59-45.58h140.3l10.22-28.07h-166.41l20.8-57.14h191.19a121,121,0,0,1,28.73,3.14q12.8,3.14,19.29,12.05a26.33,26.33,0,0,1,5.53,15.19,40.9,40.9,0,0,1-2.35,16.19l-9,24.77a72.81,72.81,0,0,1-18.36,22.46,135.81,135.81,0,0,1-14.11,9.58l-8.44,4.95a37.36,37.36,0,0,1,5.52,4.29,31.63,31.63,0,0,1,7.26,9.25q5.28,12.23,0,26.75l-10.82,29.73q-6.54,11.88-22.78,22.46a83.31,83.31,0,0,1-26.52,12.05q-13.08,3.14-31.23,3.14Z" transform="translate(25173.67 6753.89)"/><polygon class="cls-1" points="373.97 216 289.44 216 308.31 164.15 392.4 164.15 373.97 216"/><path class="cls-2" d="M-24416.15-6753.89l-20.8,57.14h-194.28l-10.7,29.39h132q10.69-1.32,29.63,3.46t23.32,11q10.6,14.82,3.77,33.6l-12.11,33.27a47.64,47.64,0,0,1-8.88,15.32q-5.64,6.42-16.32,14a113.92,113.92,0,0,1-24.48,14,67.54,67.54,0,0,1-25.51,4.78H-24712q-23.49-3.64-35.7-17.58-7.82-9-10.12-17.24t1.81-19.57l38-104.47a68.64,68.64,0,0,1,14.09-23.51q9.1-9.8,25.59-18.61a120.73,120.73,0,0,1,58.57-15ZM-24668.26-6595h118.61l9.38-25.76H-24658Z" transform="translate(25173.67 6753.89)"/><polygon class="cls-2" points="720.5 216 799.12 0 892.94 0 835.12 158.86 982.06 158.86 961.26 216 720.5 216"/></g></g></svg>