<svg xmlns="http://www.w3.org/2000/svg" viewBox="0 0 941.86 138.49"><defs><style>.cls-1,.cls-2{fill:#121212;}.cls-2{fill-rule:evenodd;}</style></defs><title>DURANGO-with-Hash</title><g id="Layer_2" data-name="Layer 2"><g id="Layer_1-2" data-name="Layer 1"><path class="cls-1" d="M725.78,30.49h12.44a199.36,199.36,0,0,1,24.56.74c10.37.85,20.81,6.66,20.83,18.55a26.85,26.85,0,0,1-1.67,9.64l-2,5.36-9.27,25.73a22.89,22.89,0,0,1-4.15,6.68c-5.93,6.62-14.2,9.54-23.15,10.2q-9.58.64-19.18.61H694.93a199.3,199.3,0,0,1-24.56-.74,31.41,31.41,0,0,1-8.31-1.85L638.7,132.87c-2.64,3.1-2.26,5.62.84,5.62h99.35c3.1,0,7.76-2.52,10.4-5.62L857.51,5.62c2.65-3.1,2.27-5.62-.84-5.62H757.33c-3.11,0-7.76,2.52-10.41,5.62Z"/><path class="cls-1" d="M704.46,65.22,699.69,78.5c4.13.07,24.09.18,27.34-.66L733.46,60c-4.13-.07-24.1-.19-27.35.66Z"/><path class="cls-1" d="M939.26,0H889.68c-3.1,0-7.76,2.52-10.4,5.62L771.06,132.87c-2.65,3.1-2.27,5.62.84,5.62h49.57c3.11,0,7.77-2.52,10.41-5.62L940.1,5.62C942.74,2.52,942.36,0,939.26,0Z"/><path class="cls-2" d="M334.93,46.4c1.24,4.59-.2,8.87-1.62,12.75-1.59,4.34-3.22,10.08-6.42,13.82s-8.81,6.56-18.57,6.57l13.33,20.14H289.78L279.5,84.48h-26L248,99.68H219.08l21.23-60.81h42.23c13.27,0,28.66-.3,38.74.42C327,39.7,333.69,41.8,334.93,46.4ZM302,66.47l3.67-10.55c1.46-4.44-3-5.06-7.49-5h-33l-7.36,20.82h29.45C290.68,71.71,299.94,71.83,302,66.47Z"/><path class="cls-2" d="M666.11,38.79l-4.23,11.9h-69a2.92,2.92,0,0,0-2.8,2L579.55,83a3,3,0,0,0,2.81,3.93h35.83A2.9,2.9,0,0,0,621,85l3.61-9.57H596.2l4-12h57.34l-7,19.64c-1.78,5.25-3.73,13.76-8.64,15.48-4.66,1.65-20.94,1.07-26.79,1.07H566.73c-8.21,0-16.77-1.48-18-6.6-.83-3.55,1.22-8.4,2.46-12L559,59c2.26-6.43,3.47-12,8.1-15.45,3.72-2.83,9.75-4.43,14.51-4.76h84.52Z"/><path class="cls-2" d="M159.25,38.83H130.41l-13.32,37.8c-1.39,4.2-3.58,8.44-3.32,12.65.35,11.29,16.81,10.36,34.9,10.36h27.64c13.38-.45,26.5,1,34.11-7.6,2.24-2.53,3-5.55,4.25-9,6.3-17.86,14.64-41.68,15.55-44.23H201.54l-15.63,44c-1.46,4.08-6,4.78-20.81,4.78-16.88,0-23.13.2-21.38-4.78Z"/><path class="cls-2" d="M45.81,51.5H83.75a3,3,0,0,1,2.8,3.94L76,85.76a2.92,2.92,0,0,1-2.8,2H32.75ZM0,99.65H84.52c4.76-.32,10.78-1.93,14.51-4.76,4.62-3.5,5.84-9,8.1-15.45l7.76-22c1.23-3.62,3.29-8.47,2.46-12-1.21-5.12-9.77-6.6-18-6.6H21.22Z"/><path class="cls-2" d="M444.69,49.21c-.35-11.29-16.8-10.36-34.9-10.36H382.15c-13.38.44-26.49-1-34.11,7.6-2.23,2.53-3,5.54-4.25,9-6.3,17.86-14.64,41.68-15.55,44.23h28.68l5.45-15.2h42.27l-5.43,15.2h28.84l13.32-37.8C442.76,57.66,445,53.42,444.69,49.21ZM409.12,71.69H366.89l5.66-16c1.46-4.08,6-4.78,20.81-4.78,16.88,0,23.13-.21,21.38,4.78Z"/><path class="cls-2" d="M507.65,99.66h28.84l13.32-37.8c1.4-4.2,3.58-8.44,3.32-12.65-.35-11.29-16.8-10.36-34.9-10.36H490.59c-13.38.44-26.49-1-34.11,7.6-2.23,2.53-3,5.54-4.25,9-6.3,17.86-14.63,41.68-15.55,44.23h28.68l15.63-44c1.46-4.08,6-4.78,20.81-4.78,16.88,0,23.13-.21,21.38,4.78Z"/><path class="cls-2" d="M772,62.4c1.5-4.19,3.56-8.41,3.33-12.6-.29-12-17.75-11-36.95-11H709c-14.2.48-28.1-1.07-36.23,8.06-2.4,2.69-3.27,5.89-4.58,9.53-2.35,6.54-4.81,13.4-7.06,19.7h0c-1.5,4.19-3.55,8.41-3.33,12.6.3,12,17.76,11,37,11h29.33c14.19-.48,28.09,1.07,36.23-8.06,2.39-2.69,3.26-5.89,4.57-9.54,2.35-6.53,4.81-13.39,7.06-19.69Zm-75.33,0,2.08-5.74c1.58-4.33,6.35-5.08,22.11-5.08,17.91,0,24.54-.21,22.65,5.08l-7,19.43h0l-2.08,5.74c-1.57,4.33-6.35,5.08-22.1,5.08-17.92,0-24.55.21-22.66-5.08l7-19.43Z"/></g></g></svg>