<svg xmlns="http://www.w3.org/2000/svg" viewBox="0 0 1881.8 147.89"><defs><style>.cls-1{fill:#121212;fill-rule:evenodd;}</style></defs><title>Durango-Logo</title><g id="Layer_2" data-name="Layer 2"><g id="Layer_1-2" data-name="Layer 1"><path class="cls-1" d="M-24352.08-8913.12c3,11.15-.48,21.55-3.93,31-3.87,10.53-7.82,24.46-15.6,33.55s-21.36,15.91-45,16l32.34,48.88h-77.35l-24.94-36.9h-63.17l-13.27,36.9h-70.21l51.52-147.61h102.49c32.21,0,69.56-.73,94,1C-24371.37-8929.37-24355.09-8924.26-24352.08-8913.12Zm-79.92,48.72,8.9-25.59c3.55-10.78-7.29-12.28-18.17-12.22h-80.08l-17.86,50.53h71.48C-24459.48-8851.68-24437-8851.37-24432-8864.4Z" transform="translate(25165 8931.6)"/><path class="cls-1" d="M-23548.27-8931.58l-10.28,28.89H-23726a7.08,7.08,0,0,0-6.8,4.84l-25.56,73.59a7.2,7.2,0,0,0,6.8,9.56h87a7.06,7.06,0,0,0,6.73-4.65l8.77-23.21h-68.86l9.69-29.26h139.18l-17,47.66c-4.31,12.75-9,33.4-21,37.59-11.31,4-50.84,2.6-65,2.6h-117.42c-19.92,0-40.7-3.61-43.62-16-2-8.62,3-20.39,6-29.18l18.83-53.35c5.49-15.61,8.44-29,19.66-37.51,9-6.86,23.67-10.76,35.23-11.55h205.14Z" transform="translate(25165 8931.6)"/><path class="cls-1" d="M-24778.48-8931.49h-70l-32.33,91.75c-3.38,10.2-8.68,20.49-8.06,30.7.85,27.42,40.79,25.16,84.71,25.16h67.1c32.47-1.09,64.3,2.45,82.77-18.45,5.43-6.15,7.37-13.46,10.32-21.8,15.3-43.34,35.53-101.17,37.74-107.36h-69.61l-37.93,106.75c-3.54,9.91-14.46,11.62-50.51,11.62-41,0-56.14.48-51.89-11.62Z" transform="translate(25165 8931.6)"/><path class="cls-1" d="M-25053.81-8900.74h92.08a7.2,7.2,0,0,1,6.8,9.57l-25.56,73.59a7.08,7.08,0,0,1-6.8,4.83h-98.22ZM-25165-8783.85h205.13c11.56-.8,26.19-4.7,35.23-11.55,11.22-8.5,14.17-21.91,19.66-37.51l18.83-53.36c3-8.78,8-20.56,6-29.17-2.92-12.41-23.69-16-43.61-16h-189.69Z" transform="translate(25165 8931.6)"/><path class="cls-1" d="M-24085.67-8906.28c-.86-27.41-40.8-25.16-84.71-25.16h-67.1c-32.47,1.09-64.3-2.45-82.78,18.45-5.43,6.15-7.37,13.46-10.31,21.81-15.3,43.33-35.53,101.16-37.75,107.35h69.62l13.22-36.91h102.59l-13.17,36.91h70l32.34-91.75C-24090.35-8885.78-24085-8896.07-24085.67-8906.28Zm-86.33,54.55h-102.51l13.74-38.85c3.53-9.9,14.45-11.61,50.5-11.61,41,0,56.15-.49,51.9,11.61Z" transform="translate(25165 8931.6)"/><path class="cls-1" d="M-23932.86-8783.83h70l32.34-91.75c3.37-10.2,8.67-20.49,8.06-30.7-.86-27.41-40.8-25.16-84.71-25.16h-67.1c-32.48,1.09-64.3-2.45-82.78,18.45-5.43,6.15-7.37,13.46-10.31,21.81-15.3,43.33-35.53,101.16-37.75,107.35h69.61l37.94-106.75c3.53-9.9,14.45-11.61,50.5-11.61,41,0,56.15-.49,51.9,11.61Z" transform="translate(25165 8931.6)"/><path class="cls-1" d="M-23291.32-8874.26c3.64-10.17,8.63-20.43,8.08-30.6-.71-29.09-43.1-26.7-89.69-26.7h-71.19c-34.46,1.16-68.2-2.59-87.94,19.58-5.81,6.52-7.92,14.28-11.1,23.13-5.71,15.87-11.67,32.52-17.14,47.8h0c-3.64,10.16-8.63,20.42-8.08,30.59.71,29.09,43.1,26.7,89.69,26.7h71.18c34.46-1.16,68.2,2.59,88-19.58,5.81-6.52,7.92-14.28,11.1-23.13,5.7-15.86,11.67-32.52,17.13-47.79Zm-182.84,0,5-13.94c3.82-10.51,15.41-12.33,53.66-12.33,43.47,0,59.57-.51,55,12.33l-17,47.15h0l-5,13.93c-3.82,10.51-15.42,12.33-53.66,12.33-43.47,0-59.57.52-55-12.33l17-47.14Z" transform="translate(25165 8931.6)"/></g></g></svg>