<svg xmlns="http://www.w3.org/2000/svg" viewBox="0 0 492.83 397.04"><defs><style>.cls-1{fill:#121212;}</style></defs><title>(M)-MOPAR-Logo</title><g id="Layer_2" data-name="Layer 2"><g id="Layer_1-2" data-name="Layer 1"><path class="cls-1" d="M-16904.49-332.27c-136.09,0-246.41,110.16-246.41,246a244.55,244.55,0,0,0,51.84,151l79.72-62.21a144.54,144.54,0,0,1-30.28-88.79,145,145,0,0,1,96.4-136.65V45.72h97.45v-268.6a145,145,0,0,1,96.42,136.65,144.36,144.36,0,0,1-30.29,88.69l80.06,61.91a245.45,245.45,0,0,0,51.51-150.6C-16658.07-222.11-16768.4-332.27-16904.49-332.27Z" transform="translate(17150.9 332.27)"/></g></g></svg>