<svg xmlns="http://www.w3.org/2000/svg" viewBox="0 0 501.62 483.66"><defs><style>.cls-1,.cls-2{fill:#121212;}.cls-1{fill-rule:evenodd;}</style></defs><title>100th-Anniersary-Logo</title><g id="Layer_2" data-name="Layer 2"><g id="Layer_1-2" data-name="Layer 1"><path class="cls-1" d="M284.6,241.05V222.8a31.24,31.24,0,0,1,31.24-31.24h13L367,148.93c3.86-4.32,3.49-7.81-.82-7.81H285.73c-4.31,0-10.94,3.49-14.8,7.81l-38.14,42.63h.3a31.25,31.25,0,0,1,31.25,31.24v40.88Z"/><path class="cls-1" d="M230.32,301.71H134.23L94.78,345.8c-3.86,4.31-3.5,7.81.82,7.81h80.46c4.32,0,10.94-3.5,14.8-7.81Z"/><path class="cls-1" d="M149.53,284.61a15.62,15.62,0,0,0,6.63,1.47H196a15.62,15.62,0,0,0,15.63-15.62V222.8a15.58,15.58,0,0,0-1.26-6.15Z"/><path class="cls-1" d="M362.25,301.71H315.84A31.27,31.27,0,0,1,286,279.59L226.71,345.8c-3.86,4.31-3.49,7.81.82,7.81H308c4.31,0,10.94-3.5,14.8-7.81Z"/><path class="cls-1" d="M364.72,191.56H429.9A31.14,31.14,0,0,1,452.32,201L499,148.93c3.86-4.32,3.49-7.81-.82-7.81H417.66c-4.31,0-10.94,3.49-14.8,7.81Z"/><path class="cls-1" d="M337.36,222.14c0,.22,0,.44,0,.66v47.66A15.62,15.62,0,0,0,353,286.08h23.26l32.17-35.95V222.8a15.63,15.63,0,0,0-15.63-15.62H353a15.73,15.73,0,0,0-2.39.18Z"/><path class="cls-1" d="M89,64.37,66.17,86.15l21,21.94,22.79-21.77q4.51-4.32,4.88-7.58c.23-2.18-.85-4.52-3.25-7l-7.89-8.25c-2.53-2.65-4.83-3.92-6.89-3.79S92.12,61.36,89,64.37Zm-5.56-.71A61.83,61.83,0,0,1,91,57.26a15.53,15.53,0,0,1,5.3-2.4,10.27,10.27,0,0,1,6,.51,17.92,17.92,0,0,1,5.9,4.38l7.3,7.64a17.74,17.74,0,0,1,4.11,6.09,10.2,10.2,0,0,1,.23,6,14.83,14.83,0,0,1-2.63,5.2,62.76,62.76,0,0,1-6.74,7.24L86.15,115.06l-27-28.24Z"/><path class="cls-1" d="M165.07,57.27a57.59,57.59,0,0,1-9.52,3.16,12.77,12.77,0,0,1-5.68,0,9.35,9.35,0,0,1-4.68-2.87,21.11,21.11,0,0,1-3.61-6.29l-4-9.88a24.36,24.36,0,0,1-2-7.58,9.13,9.13,0,0,1,1.31-5.41,13,13,0,0,1,4.15-3.93,56.58,56.58,0,0,1,9-4.3l13.07-5.26a58.17,58.17,0,0,1,9.48-3.13,13.07,13.07,0,0,1,5.71,0A9.11,9.11,0,0,1,183,14.69a22.16,22.16,0,0,1,3.7,6.47l4.06,10.1a22,22,0,0,1,1.81,7.24,9.14,9.14,0,0,1-1.31,5.31,12.66,12.66,0,0,1-4.07,3.91A59.37,59.37,0,0,1,178.09,52Zm2-39.29L149.38,25.1a23.29,23.29,0,0,0-5.59,2.95,6.87,6.87,0,0,0-2.4,3.32,6.62,6.62,0,0,0-.21,2.89,24,24,0,0,0,1.53,4.8l.26.63,3.57,8.89a23.82,23.82,0,0,0,2.21,4.52,6.65,6.65,0,0,0,2.16,1.95,6.88,6.88,0,0,0,4,.73A23.84,23.84,0,0,0,161,54l17.7-7.12a23.39,23.39,0,0,0,5.6-3,6.87,6.87,0,0,0,2.39-3.31,6.41,6.41,0,0,0,.2-2.78,19.65,19.65,0,0,0-1.35-4.34l-.49-1.21-3.78-9.42a19.83,19.83,0,0,0-2-4.08A6.22,6.22,0,0,0,177.19,17a6.81,6.81,0,0,0-4-.74A23.68,23.68,0,0,0,167.09,18Z"/><path class="cls-1" d="M261.15,4.61l-31-.22L230,34.74l31,.22c4.1,0,7-.66,8.63-2.05s2.49-3.84,2.52-7.32l.08-11.41c0-3.67-.73-6.18-2.27-7.52S265.44,4.64,261.15,4.61ZM257.71.23a59,59,0,0,1,9.71.66,15,15,0,0,1,5.37,2,10.22,10.22,0,0,1,3.87,4.52,18,18,0,0,1,1.16,7.25l-.07,10.57a18,18,0,0,1-1.27,7.23,10.15,10.15,0,0,1-3.92,4.46,14.58,14.58,0,0,1-5.41,1.9,60.28,60.28,0,0,1-9.71.51l-32.94-.23L224.78,0Z"/><path class="cls-1" d="M340.87,55.87c3.75,1.58,6.45,2.08,8.13,1.52s3.26-2.64,4.77-6.22l.77-1.84-20-8.4,1.69-4,24.81,10.44-2.47,5.85q-2.21,5.25-3.74,6.92a7.66,7.66,0,0,1-3.78,2.27,10.51,10.51,0,0,1-5.13-.08A63.86,63.86,0,0,1,336.62,59l-13.9-5.85a50.66,50.66,0,0,1-8.39-4.22,11.75,11.75,0,0,1-3.74-3.9,9.42,9.42,0,0,1-1.12-5.2,22.31,22.31,0,0,1,1.92-7L315.52,23a25.58,25.58,0,0,1,3.89-6.79,9.22,9.22,0,0,1,4.56-3,11.61,11.61,0,0,1,5.39,0,51.23,51.23,0,0,1,8.83,3l13.95,5.86q9.53,4,12,7.62c1.64,2.41,1.64,5.53,0,9.39-.21.5-.38.88-.5,1.14s-.24.51-.36.74l-4.44-1.86.23-.54q1.77-4.2.48-6.72t-6.38-4.67l-18.57-7.81A19.93,19.93,0,0,0,329,17.73a6.15,6.15,0,0,0-5.89,2.67,25.27,25.27,0,0,0-2.26,4.49l-.28.67-3.74,8.88a25.53,25.53,0,0,0-1.63,4.75,6.65,6.65,0,0,0,.07,2.82,6.35,6.35,0,0,0,2.15,3.26,20.31,20.31,0,0,0,5.11,2.87Z"/><polygon class="cls-1" points="376.53 81.68 403.29 53.22 435.22 83.26 432.24 86.43 404.25 60.1 395.85 69.03 422.67 94.25 419.69 97.42 392.87 72.2 383.45 82.21 411.44 108.54 408.46 111.71 376.53 81.68"/><polygon class="cls-1" points="64.58 399.31 87.22 377.76 112.25 404.06 109.72 406.46 87.78 383.41 80.69 390.17 101.7 412.25 99.18 414.65 78.16 392.57 70.2 400.15 92.14 423.2 89.61 425.6 64.58 399.31"/><path class="cls-1" d="M111.62,430.64l3.75,2.32c-.1.12-.22.28-.37.49-.34.49-.57.84-.69,1a4.17,4.17,0,0,0-.21,4.67c.88,1.46,3.1,3.28,6.63,5.47l8.2,5.06q6.38,3.94,9,4.07t4.47-2.88c1-1.68,1.3-3.11.78-4.29s-2.16-2.64-5-4.36L125,434q-6.27-3.87-7.79-7.1c-1-2.14-.69-4.56,1-7.23s3.84-4.06,6.45-4,6.49,1.73,11.63,4.91l7.12,4.4a69.26,69.26,0,0,1,7.94,5.43,10.52,10.52,0,0,1,2.86,3.56,5.55,5.55,0,0,1,.31,3.05,10.12,10.12,0,0,1-1.46,3.52l-.48.77L148.75,439l.26-.41c1.08-1.75,1.31-3.23.7-4.46s-2.51-2.83-5.72-4.81l-10.7-6.61q-4.87-3-7.16-3.12c-1.52-.07-2.81.74-3.85,2.43s-1.24,3.23-.53,4.55,2.8,3.07,6.28,5.22l11.27,7a53.3,53.3,0,0,1,5.39,3.68,11,11,0,0,1,2.48,2.66,5.64,5.64,0,0,1,.91,3.68,12,12,0,0,1-1.92,4.63q-2.73,4.43-6.63,4.44c-2.59,0-6.34-1.5-11.22-4.52l-10.64-6.58q-6.32-3.9-8-7.18t.63-7c.2-.34.57-.89,1.11-1.66A1.69,1.69,0,0,1,111.62,430.64Z"/><polygon class="cls-1" points="177.02 474.53 172.74 473.13 181.36 446.74 164.31 441.17 165.39 437.86 203.78 450.4 202.69 453.71 185.64 448.14 177.02 474.53"/><rect class="cls-2" x="206.74" y="476.38" width="5.67" height="6.21" transform="translate(-298.2 605.96) rotate(-80.38)"/><polygon class="cls-1" points="279.64 483.66 276.42 456.61 262.81 467.53 259.8 465.37 274.96 452.74 280.59 452.07 284.28 483.1 279.64 483.66"/><path class="cls-1" d="M343.87,448.61a5.49,5.49,0,0,1-1.67,3.87,19.52,19.52,0,0,1-6.08,3.24l-14.79,5.68q-6.68,2.55-10,1.75t-5.12-5.59a12.91,12.91,0,0,1-1.18-5.47,6.8,6.8,0,0,1,1.83-3.7,15,15,0,0,1,3.94-3,52,52,0,0,1,6.82-3.1l9.81-3.76a56.83,56.83,0,0,1,8.3-2.67,14.79,14.79,0,0,1,5-.2,6.29,6.29,0,0,1,3.53,1.7c.9.9,1.92,2.82,3,5.76l4.32,11.24a7,7,0,0,1-1,7.31q-2.55,3.19-9.58,5.89L331,471.49q-5.46,2.1-8.14,2.86a17.45,17.45,0,0,1-4.39.76,7.73,7.73,0,0,1-4-.86,5,5,0,0,1-2.28-2.64l-.93-2.45,4.51-1.73a3.31,3.31,0,0,0,.12.42q.06.21.21.6a3.76,3.76,0,0,0,3.33,2.75c1.56.1,4.54-.69,9-2.38l11.36-4.36q5.06-1.95,6.51-3.88t.15-5.31Zm-16-6.28-8.23,3.15a63.53,63.53,0,0,0-6.07,2.62,8.74,8.74,0,0,0-2.74,2,3.57,3.57,0,0,0-.71,2.22,12.52,12.52,0,0,0,1,3.71,5.68,5.68,0,0,0,1.83,2.79,4.56,4.56,0,0,0,2.94.41,24.85,24.85,0,0,0,3.5-.91q2.51-.76,5.38-1.87l8.23-3.16a57.78,57.78,0,0,0,6.07-2.62,8.66,8.66,0,0,0,2.75-2,3.34,3.34,0,0,0,.71-2.22,12.54,12.54,0,0,0-1-3.71,5.69,5.69,0,0,0-1.83-2.78,4.51,4.51,0,0,0-2.94-.42,25.51,25.51,0,0,0-3.5.9C331.59,441,329.79,441.58,327.85,442.33Z"/><polygon class="cls-1" points="388.38 440.59 372.68 418.33 365.91 434.41 362.23 433.94 369.56 415.63 374.19 412.36 392.2 437.9 388.38 440.59"/><path class="cls-1" d="M429.91,387.18,416,375.23l-5.57,34.71Zm7.51,6.43-4.93-4.22-22.71,26.5-3.63-3.12,6.18-37.9,4.26-5,16.22,13.91,4.34-5.06,2.58,2.21L435.4,386l4.92,4.22Z"/><path class="cls-1" d="M114.16,301.33c8-9.09,17-19.19,26.41-29.8,0-.35,0-.71,0-1.07V222.8a15.62,15.62,0,0,1,15.62-15.62H196a15.78,15.78,0,0,1,1.83.11l14-15.73H119A31.24,31.24,0,0,0,87.79,222.8v47.66A31.25,31.25,0,0,0,114.16,301.33Z"/><path class="cls-1" d="M460.22,215.23c-16.44,18.53-34.75,39.1-52.2,58.67a15.66,15.66,0,0,1-10.09,11.31l-14.73,16.5h46.7a31.25,31.25,0,0,0,31.25-31.25V222.8A31,31,0,0,0,460.22,215.23Z"/><path class="cls-1" d="M49.22,191.56H0v15.62H.25A12.77,12.77,0,0,1,13,219.9v66.18A15.62,15.62,0,0,0,28.6,301.71H57a7.82,7.82,0,0,0,7.81-7.82V207.18A15.62,15.62,0,0,0,49.22,191.56Z"/></g></g></svg>