<svg xmlns="http://www.w3.org/2000/svg" viewBox="0 0 440.4 69.47"><defs><style>.a{fill-rule:evenodd;}</style></defs><title>1320</title><path class="a" d="M342.84,66.4q10.88.1,21.75-.21c7.13.06,14.26-.23,21.35-.87A23,23,0,0,0,399.84,58q7-7.23,13.28-15.1,10.71-12.64,21.19-25.47a12.8,12.8,0,0,0,3.06-7.76,6.63,6.63,0,0,0-5.87-5.46,78.53,78.53,0,0,0-9.44-.78l-23.4-.41q-19.91-.13-39.81.27-6,.36-11.91.64a22.42,22.42,0,0,0-15,7.79q-7.25,8-14.05,16.42-9.69,11.34-19,22.95a16.61,16.61,0,0,0-3.81,8.64,5.86,5.86,0,0,0,5.49,5.51c3.41.39,6.84.64,10.27.76q12.51.15,25,.37Zm-13.54,3h39a18.17,18.17,0,0,0,4.93-.4q4.45,0,8.91-.12a15.35,15.35,0,0,1,4.17-.35,23.67,23.67,0,0,0,11.93-4.89,69.82,69.82,0,0,0,7-6.55c1.71-1.86,3.35-3.77,4.94-5.74q10.06-11.88,20.09-23.82,3.53-4.28,6.95-8.64a19.26,19.26,0,0,0,3.08-6.77,12,12,0,0,0-.63-5.87,10,10,0,0,0-6.93-5,10.88,10.88,0,0,0-4.05-.46A12.72,12.72,0,0,0,427,.49q-4,0-8.07-.14A26.11,26.11,0,0,0,413,.05L360.13.1a12.72,12.72,0,0,1-1.72.33c-3,0-5.93,0-8.89.14a15,15,0,0,1-4.17.35,25.47,25.47,0,0,0-15.23,8.16,46.07,46.07,0,0,0-4.92,5.34q-2.81,3.54-5.76,7Q310.29,32.15,301.27,43a78.12,78.12,0,0,0-7.53,10.12,13.34,13.34,0,0,0-1.55,8.24l.05.76.15.26a8.78,8.78,0,0,0,7.57,6c1.36.17,2.73.31,4.1.42,2.79.21,5.6.28,8.4.21a55.1,55.1,0,0,0,9.86.4Z"/><path class="a" d="M72.78,65.32q36.73,0,73.47-.1a20.5,20.5,0,0,0,12.61-7.16Q166,50,172.68,41.57A14.73,14.73,0,0,0,174,37.18a2,2,0,0,1,.94-1.12,36.71,36.71,0,0,0,11.07-10.17,93.87,93.87,0,0,0,8.7-11.26,7.14,7.14,0,0,0,.06-8.26,8.56,8.56,0,0,0-7.11-2.24H127.37q-12.32,0-24.63.08a24.55,24.55,0,0,0-11.87,7.17,83.6,83.6,0,0,0-7.37,8.36,1.27,1.27,0,0,0-.22.78.53.53,0,0,0,.34.48,4.47,4.47,0,0,0,1.88.25l71.4.06a1.2,1.2,0,0,1,1.28,1.08,1.16,1.16,0,0,1-.31.66,6.29,6.29,0,0,1-6.29,2.84l-62.38,0a2,2,0,0,0-1.23.62q-6.21,7.25-12.28,14.6a1.36,1.36,0,0,0-.28,1.12.62.62,0,0,0,.5.47l62.93.13a1.57,1.57,0,0,1,1.34.9,1,1,0,0,1-.25.88,8.29,8.29,0,0,1-7.64,3l-71.42.06a1.87,1.87,0,0,0-1.44.69,25.45,25.45,0,0,0-5.71,10.18,5.36,5.36,0,0,0,1.86,5.61,8.24,8.24,0,0,0,5.71,1.19Zm.41,3.26,72.19,0a14,14,0,0,1,1.71-.33,21.45,21.45,0,0,0,13.52-7.41,39.73,39.73,0,0,0,4.5-4.94q4.77-5.51,9.33-11.19a11.91,11.91,0,0,0,2.42-5.38l.19-.63a17,17,0,0,1,2.6-1.92q2.55-1.95,4.95-4.08,5.37-6.52,10.77-13A23.26,23.26,0,0,0,199,12.56,8.69,8.69,0,0,0,193.74,1.8a22,22,0,0,0-8.91-.93L103.2.92a25,25,0,0,0-14,7.73,5.89,5.89,0,0,0-2.26,2.25,39,39,0,0,0-4.08,4.54c-.69.94-1.43,1.85-2.21,2.72a3.06,3.06,0,0,0-.35.88,3.88,3.88,0,0,0,4.29,5.22,1.36,1.36,0,0,1,.45.06.41.41,0,0,1,.12.66c-.4.47-.83.91-1.27,1.34l-4.71,5.56q-3.14,4-6.49,7.87a5.39,5.39,0,0,0-.3,3.75l.15.44a.34.34,0,0,1-.22.38,2.21,2.21,0,0,1-.81.06q-5.89,0-11.8,0a5.1,5.1,0,0,0-3,2.28,31.07,31.07,0,0,0-5.78,9.81,9,9,0,0,0,4.61,11.3,21.4,21.4,0,0,0,8.27.76Z"/><path class="a" d="M182.36,65.31l90.32-.07a2,2,0,0,0,1.14-.68q6.71-7.74,13.18-15.68a.81.81,0,0,0,0-.68.79.79,0,0,0-.52-.44,3.24,3.24,0,0,0-1.12-.11q-23.81-.15-47.62.25-9.7.3-19.43,0a.07.07,0,0,1,0,0,0,0,0,0,1,0,0q23.91-1.29,47.78-3.36,9-.8,18-1.69A33.66,33.66,0,0,0,302.07,31q5.91-6.73,11.29-13.92a11.7,11.7,0,0,0,2.49-8.21,6.63,6.63,0,0,0-7.07-4.72L223,4.22a22.32,22.32,0,0,0-10.69,6.17A90.59,90.59,0,0,0,203,21.09a.78.78,0,0,0-.17.48.73.73,0,0,0,.36.55,2.17,2.17,0,0,0,1.38.33l71.81.08a1.26,1.26,0,0,1,1.27.86.92.92,0,0,1-.17.75,6.36,6.36,0,0,1-5.21,2.37Q235.9,29.58,199.59,33a29.58,29.58,0,0,0-16.26,11.28Q175.17,54,167.06,63.75a1.44,1.44,0,0,0-.24.48,1,1,0,0,0,.6,1,2.36,2.36,0,0,0,1,.11Zm-1.23,2.86h90.3c.94,0,1.89,0,2.83,0a2.76,2.76,0,0,0,1.33-.72q4.2-4.64,8.15-9.5,3.11-3.66,6.13-7.41a1.11,1.11,0,0,0,.2-.61,16.89,16.89,0,0,0-.08-2.75,4.61,4.61,0,0,0-1.08-1.7l-.29-.33a.14.14,0,0,1,0-.14.25.25,0,0,1,.13-.14,42.15,42.15,0,0,0,11.74-7.52,19.74,19.74,0,0,0,3.78-4q6.14-6.84,11.61-14.24a17.39,17.39,0,0,0,3.35-8.94,9,9,0,0,0-5.93-8.41c-1.5-.34-3-.6-4.54-.8l-84.88,0a29.26,29.26,0,0,0-4.36,1,26.47,26.47,0,0,0-8.33,5.21,49.47,49.47,0,0,0-7.89,8.53c-.85.93-1.67,1.89-2.45,2.89a3.62,3.62,0,0,0-.8,1.24,3.9,3.9,0,0,0-.22,1.82c0,.4,0,.79,0,1.19a3.76,3.76,0,0,0,4.26,2.71l41.19,0a.5.5,0,0,1,.31.1.13.13,0,0,1,0,.09.12.12,0,0,1,0,.08.51.51,0,0,1-.31.11,87.42,87.42,0,0,0-9.29.73c-1.4.06-2.8.16-4.2.31s-3.07.28-4.61.32a15.35,15.35,0,0,1-4.17.35,12.29,12.29,0,0,1-1.71.33,20.22,20.22,0,0,0-4.91.43c-2.44.15-4.89.3-7.33.47a12.72,12.72,0,0,1-1.72.33q-4,.16-8,.65A29.71,29.71,0,0,0,183.6,39Q175.86,48.33,168,57.52q-2,2.32-3.82,4.8a4,4,0,0,0,1.3,5.49l.28.13a3.89,3.89,0,0,0,1.82.23Z"/><path class="a" d="M19,64.76q6.36.06,12.73-.12a1.84,1.84,0,0,0,1.35-.76l49.44-59a1.78,1.78,0,0,0,.25-.52.94.94,0,0,0-.81-1q-20-.11-40,.11A25.13,25.13,0,0,0,28.42,11.3,78.77,78.77,0,0,0,22.17,19a1.28,1.28,0,0,0-.2.52,1,1,0,0,0,.8.89,33.08,33.08,0,0,0,4.45.13c3.25,0,6.5,0,9.74.06a.75.75,0,0,1,.6.37,1.24,1.24,0,0,1-.17,1.48L3.26,63.35a1.15,1.15,0,0,0-.18.52l0,.2a1,1,0,0,0,.77.59q7.56.15,15.13.1Zm-1.64,3q7.77,0,15.55-.05a5.1,5.1,0,0,0,3-2.28L53,45.14q5.44-6.64,11-13.21,8.16-9.51,16.13-19.16c1.89-2.11,3.66-4.3,5.34-6.57a9.19,9.19,0,0,0,.38-.85A4.15,4.15,0,0,0,82.1.16Q76,0,69.91.05,56.59,0,43.28.1a14.52,14.52,0,0,1-1.72.34A21.61,21.61,0,0,0,30.9,5a27.48,27.48,0,0,0-5.85,5.23,59.55,59.55,0,0,0-6,7.94,3.73,3.73,0,0,0-.21,1.81q0,.4,0,.81a.83.83,0,0,0,.07.27,1.41,1.41,0,0,0,.17.32,3.88,3.88,0,0,0,4.05,2.09c2.92,0,5.84,0,8.76,0a.47.47,0,0,1,.31.11.1.1,0,0,1,0,.09.27.27,0,0,1,0,.12,5.79,5.79,0,0,1-.48.51L1.78,60A5.13,5.13,0,0,0,.29,65.56a7,7,0,0,0,1.71,2,1.26,1.26,0,0,0,.62.2q7.38,0,14.75,0Z"/><path class="a" d="M351.05,52.6a153.74,153.74,0,0,0,23.79-1,21.89,21.89,0,0,0,13-9.12q8.43-10,16.74-20.08a5.75,5.75,0,0,0,1.17-3.71,1.89,1.89,0,0,0-1.38-1.41,33.59,33.59,0,0,0-9.42-1,297.83,297.83,0,0,0-33.67.41,20.47,20.47,0,0,0-15.58,8.77Q336.79,36,328.16,46.67a6.33,6.33,0,0,0-1,2.86,1.9,1.9,0,0,0,1.31,1.84,50.6,50.6,0,0,0,10.27,1.17q6.15.08,12.31.06Zm-24.63,9.91q24.63.27,49.24-.31a71.65,71.65,0,0,0,11.52-.88,22.65,22.65,0,0,0,11.05-6.92Q405,47,411.32,39.25q10.2-12,20.11-24.21a12.47,12.47,0,0,0,2.21-4.54,2.07,2.07,0,0,0-1.34-2,20.92,20.92,0,0,0-8.19-1.1q-10-.45-20.12-.49-6.56.11-13.13-.21-5.75-.09-11.49.21-16-.1-32,.81a19,19,0,0,0-12.95,6.91q-7.21,8-14,16.43Q311.07,42,302,53.19a16.39,16.39,0,0,0-3.16,6.17,2,2,0,0,0,1.76,2.08,74.91,74.91,0,0,0,10.25.8q7.79.23,15.58.27Z"/><path class="a" d="M73.6,61.59h68.54A15.72,15.72,0,0,0,155.62,56q7.19-7.92,13.8-16.33a8.4,8.4,0,0,0,.77-4.13,1.54,1.54,0,0,1,.72-1.43,34.85,34.85,0,0,0,12-10.4A92.78,92.78,0,0,0,191.37,13a8,8,0,0,0,1-2.89,2,2,0,0,0-1.81-2,92.9,92.9,0,0,0-9.44-.23h-74.7a11.84,11.84,0,0,0-9,2.86,35.59,35.59,0,0,0-5.46,5,1,1,0,0,0,.64,1.59q18.23.14,36.44.09,17.66-.08,35.3.14a10.23,10.23,0,0,1,1.1.23.79.79,0,0,1,.46.42.75.75,0,0,1,0,.62,22.38,22.38,0,0,1-3.48,4.83,16.91,16.91,0,0,1-6.29,5.43,22,22,0,0,1-7,.52q-29.15,0-58.29.07a2.1,2.1,0,0,0-1.09.62q-3,3.31-5.77,6.85a1.54,1.54,0,0,0-.22,1.25.85.85,0,0,0,.6.5,34.56,34.56,0,0,0,4.44.13q28.72-.06,57.45.11a2.4,2.4,0,0,1,1.2.52.89.89,0,0,1,.14.92,29.44,29.44,0,0,1-4.15,5.63,12.85,12.85,0,0,1-5.79,4.64,35.66,35.66,0,0,1-8.63.51l-66.49,0a1.5,1.5,0,0,0-.78.3l-.31.31a18.58,18.58,0,0,0-4,7.35A2,2,0,0,0,57.66,61a2,2,0,0,0,1.59.57q7.17.06,14.35,0Z"/><path class="a" d="M191,61.54l79.61-.06a2.6,2.6,0,0,0,2.17-1.3q2.94-3.49,5.79-7.06a1.14,1.14,0,0,0,.23-.78,1.35,1.35,0,0,0-1.21-.92l-72.37-.09a.9.9,0,0,1-.82-.68.92.92,0,0,1,.39-1,12.69,12.69,0,0,1,9.6-4.3q34.5-3,68.95-6.26a29.06,29.06,0,0,0,15.18-9.67q6.12-7,11.72-14.39a9.84,9.84,0,0,0,2-4.93,1.78,1.78,0,0,0-1.36-1.83,28.66,28.66,0,0,0-7-.41q-40.22,0-80.44.1a18.25,18.25,0,0,0-8.69,5.36A39,39,0,0,0,211.24,17a1,1,0,0,0-.1,1,1,1,0,0,0,.81.56c3.13.11,6.27.15,9.4.11q31.2,0,62.4.09a10.47,10.47,0,0,1,1.12.19.91.91,0,0,1,.61.4.93.93,0,0,1,0,.73,28.37,28.37,0,0,1-3.56,4.74,13.25,13.25,0,0,1-6.41,4.95c-3.67.56-7.36,1-11.06,1.17q-32,2.78-64,5.74a25.37,25.37,0,0,0-14.1,9.87q-5.51,6.49-10.92,13a1.21,1.21,0,0,0,.8,1.94q7.38.06,14.77,0Z"/><path class="a" d="M26.81,60.92c1.1,0,2.19,0,3.28-.07a2,2,0,0,0,1.17-.73l43-51.18a2,2,0,0,0,.25-.48.81.81,0,0,0-.29-.86,1.89,1.89,0,0,0-1.45-.52q-15.18-.13-30.35.11a22,22,0,0,0-12.34,8,.86.86,0,0,0,.2,1.06,2.08,2.08,0,0,0,1.45.51l13.7.09a.76.76,0,0,1,.55.4.77.77,0,0,1,0,.68A12.9,12.9,0,0,1,44.42,20Q28.05,39.44,11.79,59a1.37,1.37,0,0,0-.1,1.65.84.84,0,0,0,.46.23q7.33.12,14.66.08Z"/><path class="a" d="M353.51,45.61q7.33.06,14.67-.12a14.76,14.76,0,0,1,3.75-.34c.56-.14,1.13-.26,1.69-.36.23,0,.46-.07.68-.12a1.75,1.75,0,0,0,.32-.12,17,17,0,0,0,7.5-6q6.11-7,12-14.24c.29-.3.58-.6.86-.91a.19.19,0,0,0,0-.12.1.1,0,0,0,0-.09.49.49,0,0,0-.31-.11q-13.8,0-27.6,0a14.14,14.14,0,0,1-1.72.34,21.16,21.16,0,0,0-4.28.23,6,6,0,0,1-1.79.25,1.59,1.59,0,0,0-.3.06,2.37,2.37,0,0,0-.34.13,15.53,15.53,0,0,0-7.83,6.13q-6.31,7.5-12.56,15.06a.2.2,0,0,0,0,.13.12.12,0,0,0,0,.08.51.51,0,0,0,.31.11q7.46,0,14.92,0Zm0,3.26a137.1,137.1,0,0,0,20.95-1,17.6,17.6,0,0,0,9.9-7l14.48-17.36A2.06,2.06,0,0,0,397,20.2a303.61,303.61,0,0,0-35.31.26,17.19,17.19,0,0,0-13.4,7.79Q341.1,36.76,334,45.4a2,2,0,0,0-.07,2.14,2,2,0,0,0,1.89,1q8.82.49,17.65.33Z"/></svg>