<svg xmlns="http://www.w3.org/2000/svg" viewBox="0 0 1565.06 216"><defs><style>.cls-1{fill:#121212;fill-rule:evenodd;}</style></defs><title>305HP</title><g id="Layer_2" data-name="Layer 2"><g id="Layer_1-2" data-name="Layer 1"><path class="cls-1" d="M0,216l20.8-57.14H189.86l10.22-28.07H59.78L76.37,85.21H216.66l10.22-28.07H60.48L81.27,0H272.46a121,121,0,0,1,28.73,3.14q12.81,3.14,19.29,12A26.28,26.28,0,0,1,326,30.39a41.06,41.06,0,0,1-2.35,16.18l-9,24.77A72.63,72.63,0,0,1,296.3,93.8a136.93,136.93,0,0,1-14.11,9.58l-8.44,5a38.49,38.49,0,0,1,5.52,4.29,31.4,31.4,0,0,1,7.25,9.25q5.3,12.23,0,26.75L275.7,178.35q-6.54,11.9-22.77,22.46a83.31,83.31,0,0,1-26.52,12.05Q213.32,216,195.17,216Z"/><path class="cls-1" d="M349.6,60.44a80.86,80.86,0,0,1,27.51-36.66A113.66,113.66,0,0,1,411.16,5.61Q428.68,0,450.38,0H574.29q16.14.66,25.07,1.65Q625.6,5,635,13.71t11,18.33q1.61,9.57-3.45,23.45L603.54,162.83q-6.6,18.16-29.28,33Q545.25,216,512.05,216H353.61q-11.94,0-19.05-3a61,61,0,0,1-14.94-9.42q-7.85-6.44-8.88-20t4.48-28.73Zm51.81,98.42h116l37-101.72H438.43Z"/><path class="cls-1" d="M692,0H942.51L921.72,57.14H758.85L747.67,87.85H880q22.77,4.31,30.28,20.15a41,41,0,0,1,3.78,10.9q.75,4.62-1.65,11.23l-14.31,39.3q-5.88,16.19-25.3,29.4a108.67,108.67,0,0,1-24.16,12.88A73.67,73.67,0,0,1,823.18,216H613.4l20.8-57.14H809l9.14-25.1H643.33Z"/><polygon class="cls-1" points="1270.45 0 1191.84 216 1104.21 216 1136.07 128.48 1026.31 128.48 994.45 216 906.82 216 985.44 0 1073.07 0 1043.26 81.91 1153.02 81.91 1182.83 0 1270.45 0"/><path class="cls-1" d="M1297.89,0h218.19q23.46,0,39,13.18,8.94,8.24,9.84,18t-4.39,24.22l-14.64,40.2q-6.11,16.81-26.44,31.31-16,11.2-31.91,15.32T1450,146.31H1332.27L1306.91,216h-87.63Zm50.85,101.06h104l16-43.92h-104Z"/></g></g></svg>