<svg xmlns="http://www.w3.org/2000/svg" viewBox="0 0 799.33 108.27"><defs><style>.cls-1,.cls-2{fill:#121212;}.cls-2{fill-rule:evenodd;}</style></defs><title>306HP</title><g id="Layer_2" data-name="Layer 2"><g id="Layer_1-2" data-name="Layer 1"><path class="cls-1" d="M0,108.27,10.42,79.63H95.16l5.13-14.07H30l8.32-22.85H108.6l5.12-14.07H30.31L40.74,0h95.83A60.56,60.56,0,0,1,151,1.57a16.22,16.22,0,0,1,9.67,6.05,13.14,13.14,0,0,1,2.77,7.61,20.62,20.62,0,0,1-1.17,8.11l-4.52,12.42A36.7,36.7,0,0,1,148.52,47a70.18,70.18,0,0,1-7.07,4.8l-4.24,2.48A18.84,18.84,0,0,1,140,56.45a15.84,15.84,0,0,1,3.64,4.64q2.64,6.12,0,13.41l-5.43,14.9q-3.27,6-11.41,11.25a41.62,41.62,0,0,1-13.29,6,67.91,67.91,0,0,1-15.66,1.58Z"/><path class="cls-2" d="M175.23,30.3A40.52,40.52,0,0,1,189,11.92a57.13,57.13,0,0,1,17.07-9.11A64.47,64.47,0,0,1,225.75,0h62.11q8.08.33,12.56.83,13.15,1.65,17.88,6t5.53,9.19q.81,4.8-1.73,11.75l-19.58,53.8q-3.31,9.11-14.68,16.56a53.66,53.66,0,0,1-31.18,10.1H177.24a25.31,25.31,0,0,1-9.55-1.49,31.12,31.12,0,0,1-7.49-4.72q-3.91-3.23-4.45-10A34.25,34.25,0,0,1,158,77.64Zm26,49.33h58.12l18.56-51H219.76Z"/><path class="cls-2" d="M487.73,0,477.31,28.64H379.92l-5.36,14.73h66.17q5.36-.66,14.85,1.74t11.69,5.53q5.31,7.43,1.89,16.84l-6.07,16.68a24,24,0,0,1-4.45,7.68,48.14,48.14,0,0,1-8.18,7,56.86,56.86,0,0,1-12.27,7,33.88,33.88,0,0,1-12.79,2.4h-86q-11.78-1.83-17.89-8.81a22.82,22.82,0,0,1-5.07-8.65q-1.16-4.16.9-9.81l19.06-52.36a34.34,34.34,0,0,1,7.06-11.78,48.53,48.53,0,0,1,12.83-9.33A60.48,60.48,0,0,1,385.69,0ZM361.36,79.63h59.45l4.7-12.91h-59Z"/><polygon class="cls-2" points="651.66 0 612.26 108.27 568.34 108.27 584.3 64.4 529.29 64.4 513.32 108.27 469.4 108.27 508.8 0 552.73 0 537.78 41.06 592.8 41.06 607.74 0 651.66 0"/><path class="cls-2" d="M665.42,0H774.78q11.76,0,19.56,6.61,4.49,4.12,4.93,9t-2.2,12.14L789.74,47.9q-3.07,8.43-13.26,15.69a49.69,49.69,0,0,1-16,7.68,75.51,75.51,0,0,1-18.83,2.07h-59l-12.72,34.93H626ZM690.9,50.66H743l8-22H698.92Z"/></g></g></svg>