<svg xmlns="http://www.w3.org/2000/svg" viewBox="0 0 771.38 108.27"><defs><style>.cls-1{fill:#121212;fill-rule:evenodd;}</style></defs><title>375HP</title><g id="Layer_2" data-name="Layer 2"><g id="Layer_1-2" data-name="Layer 1"><path class="cls-1" d="M0,108.27,10.42,79.63H95.16l5.13-14.07H30l8.32-22.85H108.6l5.12-14.07H30.31L40.74,0h95.83A60.56,60.56,0,0,1,151,1.57a16.22,16.22,0,0,1,9.67,6.05,13.14,13.14,0,0,1,2.77,7.61,20.62,20.62,0,0,1-1.17,8.11l-4.52,12.42A36.7,36.7,0,0,1,148.52,47a70.18,70.18,0,0,1-7.07,4.8l-4.24,2.48A18.84,18.84,0,0,1,140,56.45a15.84,15.84,0,0,1,3.64,4.64q2.64,6.12,0,13.41l-5.43,14.9q-3.27,6-11.41,11.25a41.62,41.62,0,0,1-13.29,6,67.91,67.91,0,0,1-15.66,1.58Z"/><polygon class="cls-1" points="186.26 0 319.8 0 309.38 28.64 228.04 108.27 178.8 108.27 263.46 28.64 175.84 28.64 186.26 0"/><path class="cls-1" d="M333.78,0H459.34L448.91,28.64H367.28L361.67,44H428q11.42,2.15,15.18,10.09a21.06,21.06,0,0,1,1.9,5.47,11.52,11.52,0,0,1-.83,5.63l-7.17,19.7q-3,8.1-12.69,14.73a54.32,54.32,0,0,1-12.11,6.46,37,37,0,0,1-12.76,2.15H294.37L304.8,79.63h87.62L397,67.05H309.38Z"/><polygon class="cls-1" points="623.71 0 584.31 108.27 540.38 108.27 556.35 64.4 501.34 64.4 485.37 108.27 441.45 108.27 480.85 0 524.78 0 509.83 41.06 564.85 41.06 579.79 0 623.71 0"/><path class="cls-1" d="M637.47,0H746.83q11.76,0,19.56,6.61,4.49,4.12,4.93,9t-2.2,12.14L761.78,47.9q-3.06,8.43-13.25,15.69a49.78,49.78,0,0,1-16,7.68,75.51,75.51,0,0,1-18.83,2.07h-59L642,108.27H598.06ZM663,50.66h52.13l8-22H671Z"/></g></g></svg>