<svg xmlns="http://www.w3.org/2000/svg" viewBox="0 0 1109.13 417.29"><defs><style>.cls-1{fill:#121212;fill-rule:evenodd;}</style></defs><title>400HP-RT-Shield-HEMI</title><g id="Layer_2" data-name="Layer 2"><g id="Layer_1-2" data-name="Layer 1"><path class="cls-1" d="M386.9,415.62,485.69,2.32h70.4l-36.48,152.6h20.92L577,2.32h71l-98.79,413.3h-71l46.22-193.35H503.51L457.3,415.62ZM705.57,151.74l13-54.53Q722,83.05,721.1,77.93T715,72.81a10.48,10.48,0,0,0-8.08,3.92q-3.45,3.92-5.25,11.44l-2.16,9-13,54.53ZM678.93,263.19h60.94l-11.37,47.6q-16.71,69.88-33,87.36t-62,17.47q-46.86,0-54.58-18.22t8.64-86.61l48.67-203.64q16.92-70.79,33.56-87.81t62.1-17c30.84,0,47.66,5.17,54,18.07s2.28,41-8.67,86.76L749.74,221.92h-80l-23.76,99.41q-3.31,13.86-2.4,19.28t6.15,5.43q4.43,0,8-4.37t5.5-12.5l1.88-7.84ZM876.78,415.62l74.3-310.88Q953.9,93,953,87.42c-.58-3.71-2.42-5.57-5.5-5.57a11.12,11.12,0,0,0-9.44,5q-3.6,5-6.7,17.92l-74.3,310.88H796.93l74.31-310.88q2.88-12,2.06-17.47t-5.64-5.42a11.06,11.06,0,0,0-9.54,5q-3.5,5-6.59,17.92L777.22,415.62H716.68L814.32,7.14h60.94l-5.19,21.69q11.07-12.66,20.59-18.38A37.22,37.22,0,0,1,910,4.73q11.25,0,18.7,6.33t13,20.78q12.69-13.56,24.77-20.33t23.34-6.78q24.14,0,29.32,23.35T1011.34,106l-2.81,11.75L937.32,415.62Zm73.77,0L1048.19,7.14h60.94l-97.64,408.48ZM402.41,403.38h45.23L493.86,210h46.08L493.73,403.38h45.82L632.49,14.56H586.66l-36.47,152.6H504.1l36.48-152.6H495.35Zm272.71-71.59a43.5,43.5,0,0,1-7.52,17c-6.55,9.08-20.11,12.93-29.43,5.65-10.83-8.45-6.65-24.66-4.19-35.78l26-109h80.05l25.2-105.43C769.7,86,777,54.67,776.56,34.94a26.67,26.67,0,0,0-1.84-9.42c-2-4.35-9.07-7.32-14-8.36-17.12-3.64-40-3.2-57.25-.31-7.9,1.32-19.11,4.9-24.89,10.94a58.61,58.61,0,0,0-9.89,16.14q-4.56,10.68-8.31,21.68Q653.31,87.53,648.1,110L599.4,313.68c-3.8,15.78-9,39.79-10.34,57.4-.41,5.25-1.09,16.34,1.15,21.66,1.68,4,9.81,7,14.37,7.95a126.89,126.89,0,0,0,28.63,2.69c14.75-.16,41.93-1.24,53.2-13.5a61.77,61.77,0,0,0,9.77-16.27q4.5-10.62,8.2-21.55c7.52-22.78,14.26-52.68,20-76.63H688.59ZM689.7,85.57a38.68,38.68,0,0,1,7.62-16.45C703.9,60.83,717,57.52,726,63.94c11.53,8.21,7,24.72,4.56,35.93L715.23,164H671Zm316.49-16.24c4.14-28.38,2.37-43.22-4.24-48.91-7.19-6.2-21.08-3.12-29.12,1.58-15.06,8.82-24.11,20.42-35.39,33l-7.12-18.79a66.09,66.09,0,0,0-4.1-8.78,27.94,27.94,0,0,0-5.49-7.07c-6-5.16-16.82-3.75-23.51.45a79.58,79.58,0,0,0-17.71,15.85c-2.37,2.86-14.16,16.07-14.16,16.07H852.19l7.56-33.32H824l-91.79,384h35.37l72.11-301.69L842.06,93c3.76-13.39,11.76-23.39,25.55-23.42,9.84,0,16.88,6.94,17.88,16.57V86c.77,7.52-.7,14.12-2.28,21.35l-70.76,296h35l72.11-301.7c3.82-14.8,9-31.9,27.85-32.07,9.72-.1,16.87,7.12,17.82,16.55.78,7.78-.53,13.74-2.14,21.18l-70.76,296h35.37l71.78-300.33Q1003.52,86.34,1006.19,69.33ZM966.06,403.38h35.78l91.78-384h-35.77ZM5.12,305a102.71,102.71,0,0,0-3.64,49.43C5,374,21.19,390.75,40.53,395.46c.34.09,84.2,16.27,84.79,16.38a301.35,301.35,0,0,0,95.09,3l84.2-7.39c23.12-1.39,45.94-13.92,51.37-37.25L443.33,7.5A6.07,6.07,0,0,0,438.85.17,6.2,6.2,0,0,0,437.43,0H348.58a6.05,6.05,0,0,0-3.86,1.39L321.23,20.73H171.46L161.36,3.06A6.08,6.08,0,0,0,156.09,0H80.57a6.08,6.08,0,0,0-5.92,4.7ZM85.39,12.15h67.17l10.1,17.67a6.07,6.07,0,0,0,5.27,3.06H323.41a6.05,6.05,0,0,0,3.86-1.39l23.49-19.34h79L344.16,367.44A31.06,31.06,0,0,1,338.8,379a33.39,33.39,0,0,1-6.64,6.58,57.13,57.13,0,0,1-28.41,9.82l-84.52,7.42-.24,0a288.85,288.85,0,0,1-91.37-2.9L43.45,383.67a45.19,45.19,0,0,1-19.27-11,38.19,38.19,0,0,1-8.29-12.56,50.53,50.53,0,0,1-3.21-11.89c-1.83-16.11.23-24.56,4.21-40.17ZM49.8,221.63l48.54.06a2.21,2.21,0,0,0,1.84-.93L118.67,196a2.23,2.23,0,0,1,1.84-.92h17.15a2.22,2.22,0,0,1,1.83.92l15.86,21.1a10.92,10.92,0,0,0,9,4.5h49.21a2.21,2.21,0,0,0,1.86-.95l5.78-8a.89.89,0,0,0-.72-1.42H203.68a7.21,7.21,0,0,1-6-3l-8.58-11.71a.91.91,0,0,1,.71-1.42h17.93a17.78,17.78,0,0,0,14.65-7.3l19.2-25.5c5.94-8.22.33-13.29-5.49-13.29l-132.57-.21a2.23,2.23,0,0,0-1.84.92L49.08,220.21A.89.89,0,0,0,49.8,221.63Zm93.25-58.06-12.57,16.76a.9.9,0,0,0,.72,1.43l47-.09a9.72,9.72,0,0,0,8-4l3.89-5.21a6.1,6.1,0,0,0-4.89-9.76H144.89A2.23,2.23,0,0,0,143.05,163.57Zm42.82,128.26L174,307.68a1,1,0,0,0,.8,1.6h56.06a1,1,0,0,1,.8,1.59L194,361.34a1,1,0,0,0,.8,1.6h49.41a2.31,2.31,0,0,0,1.91-1l38.58-51.75a2.33,2.33,0,0,1,1.91-1h47.28a2.28,2.28,0,0,0,1.89-.95l12.05-15.85a1,1,0,0,0-.79-1.6H187.78A2.32,2.32,0,0,0,185.87,291.83Zm123-122H286.26a2,2,0,0,0-1.4.53L85.27,347.26a1,1,0,0,0,.67,1.77h22.57a2.09,2.09,0,0,0,1.4-.53L309.5,171.55A1,1,0,0,0,308.83,169.79ZM76.57,122.2H386.62L409.07,29H356.48l-19,15.65a22.21,22.21,0,0,1-14.15,5.08H167.84A22.28,22.28,0,0,1,148.5,38.48L143.07,29H98.17Zm31.08-31.07h6.21l5.66-20.83Zm-1.58,26.76,4.54-16.73H88.67l2.73-10,22.87-35h26.85l-9.5,35h5.24l-2.73,10h-5.24l-4.54,16.73Zm60.51-48.73L156.85,105a3.29,3.29,0,0,0,0,2.36q.42.69,1.89.69a4,4,0,0,0,2.13-.51,2.31,2.31,0,0,0,1.06-1.39l.31-1.15,9.72-35.8a3.34,3.34,0,0,0,.07-2.45A2.15,2.15,0,0,0,170.1,66a4,4,0,0,0-2.13.5,2.29,2.29,0,0,0-1.06,1.39Zm-18.28-.45q2.35-8.65,6.56-10.79t17.92-2.14q14,0,16.95,2.27t.71,10.66l-9.92,36.55q-2.31,8.51-6.5,10.72t-18.09,2.21q-14.07,0-17-2.26t-.61-10.67Zm67.27.45L205.84,105a3.22,3.22,0,0,0,0,2.36c.27.46.9.69,1.88.69a4,4,0,0,0,2.13-.51,2.27,2.27,0,0,0,1.06-1.39l.31-1.15,9.73-35.8a3.38,3.38,0,0,0,.06-2.45c-.28-.44-.91-.67-1.89-.67a4.07,4.07,0,0,0-2.13.5,2.29,2.29,0,0,0-1.06,1.39Zm-18.28-.45q2.36-8.65,6.57-10.79t17.91-2.14q14,0,17,2.27t.71,10.66l-9.93,36.55Q227.2,113.77,223,116t-18.1,2.21q-14.05,0-16.95-2.26t-.61-10.67ZM258,117.89l16.76-61.73H293L286.82,79h5.46l6.19-22.81h18.4L300.1,117.89H281.7L289.55,89h-5.46l-7.84,28.89Zm53.52-11.18h15.73l-3,11.18H308.45ZM365,66.12l-5.75,21.13.89,0c.37,0,.65,0,.82,0a6.31,6.31,0,0,0,3-.52,3,3,0,0,0,1.29-1.93l.45-1.67,3.74-13.75q.61-2.31,0-2.82a4.92,4.92,0,0,0-2.85-.52Zm-32.47,51.77,16.77-61.73h21q13.67,0,16.82,2.21T388,68.94l-4.19,15.42Q381.48,92.79,377.1,95t-17.9,2.21h-2.67l-5.62,20.68Zm35.24-11.18h15.72l-3,11.18H364.71Z"/></g></g></svg>