<svg xmlns="http://www.w3.org/2000/svg" viewBox="0 0 1605.05 216"><defs><style>.cls-1{fill:#121212;fill-rule:evenodd;}</style></defs><title>470HP</title><g id="Layer_2" data-name="Layer 2"><g id="Layer_1-2" data-name="Layer 1"><path class="cls-1" d="M179.39,216l17.55-48.22H0l23.44-64.4L258,0h85.86L301,117.91l38.63-.33-18.28,50.2H284.57L267,216Zm35.83-98.42L235.77,61.1,111.65,117.58Z"/><polygon class="cls-1" points="410.25 0 676.68 0 655.88 57.14 493.62 216 395.37 216 564.27 57.14 389.46 57.14 410.25 0"/><path class="cls-1" d="M682.56,60.44a80.86,80.86,0,0,1,27.51-36.66,113.66,113.66,0,0,1,34-18.17Q761.66,0,783.34,0H907.26q16.13.66,25.07,1.65Q958.57,5,968,13.71T979,32q1.61,9.57-3.44,23.45L936.51,162.83q-6.62,18.16-29.28,33Q878.21,216,845,216H686.58q-12,0-19.06-3a61,61,0,0,1-14.94-9.42q-7.83-6.44-8.88-20t4.48-28.73Zm51.81,98.42h116l37-101.72h-116Z"/><polygon class="cls-1" points="1310.44 0 1231.82 216 1144.19 216 1176.05 128.48 1066.29 128.48 1034.43 216 946.81 216 1025.42 0 1113.05 0 1083.24 81.91 1193 81.91 1222.81 0 1310.44 0"/><path class="cls-1" d="M1337.88,0h218.18q23.46,0,39,13.18,9,8.24,9.84,18t-4.39,24.22l-14.63,40.2q-6.12,16.81-26.45,31.31-16,11.2-31.91,15.32T1490,146.31H1372.25L1346.89,216h-87.63Zm50.84,101.06h104l16-43.92h-104Z"/></g></g></svg>