<svg xmlns="http://www.w3.org/2000/svg" viewBox="0 0 1096.82 417.29"><defs><style>.cls-1{fill:#121212;fill-rule:evenodd;}</style></defs><title>AAR-Cuda-Shield</title><g id="Layer_2"><g id="Layer_1-2"><path class="cls-1" d="M537.44,359.87l20.42-85.44a12.14,12.14,0,0,0-9-14.64,12.29,12.29,0,0,0-2.83-.33H509.94a12.16,12.16,0,0,0-11.8,9.25L473.75,368.1a17.4,17.4,0,0,1-2.63,4.75c-4.15,2.24-7.45,2.18-12.35,1.66l0-1.11L533.6,58c2.47-11.22,5.85-17.35,17.78-16.2,0,1.89-20.32,89.14-20.94,91.84a12.13,12.13,0,0,0,11.83,14.88h36.11a12.13,12.13,0,0,0,11.81-9.32l18.42-77a81.23,81.23,0,0,0,2.55-20.88A35.59,35.59,0,0,0,599.73,14.2C586.68,2.77,567.42,3.58,551.2,2.55,510.88,0,481.45,15.67,472.81,56.82L401.62,354.49a76.57,76.57,0,0,0-2.4,20.61,36.6,36.6,0,0,0,10.88,26.35c13.31,12.73,29.73,11.88,46.54,13.23C495.11,417.78,532.62,398.32,537.44,359.87Zm158.4.27L777,20.67A12.15,12.15,0,0,0,768,6a12.31,12.31,0,0,0-2.83-.34H729.09A12.16,12.16,0,0,0,717.28,15L632.21,368.12c-2.16,7.18-8.94,7-15,6.39,0-1.47,83.27-351.72,83.77-353.86a12.15,12.15,0,0,0-11.81-15H653.09A12.16,12.16,0,0,0,641.27,15L560,354.76a75.31,75.31,0,0,0-2.36,20.55,36.52,36.52,0,0,0,10.92,26.16c13.34,12.71,29.7,11.86,46.52,13.21C653.45,417.77,690.94,398.47,695.84,360.14Zm155.33,20.35a91.43,91.43,0,0,0,8.91-23.77L930,64c3-16.76,4.9-34.12-8.74-46C908.3,6.69,887,6.28,870.62,5.72l-54.11,0A12.16,12.16,0,0,0,804.69,15L713.64,395.79a12.14,12.14,0,0,0,11.82,15l54,0C806,409.93,837.25,408,851.17,380.49Zm19.62-324L799.18,356.13a18.12,18.12,0,0,1-18.64,15.38L858.47,45.6l11.62.36a10.13,10.13,0,0,1,2.14.71C872.23,46.87,870.84,56.14,870.79,56.46Zm223.13,5.77c16.49-64-42-58.7-57.4-59.68C996.2,0,966.76,15.67,958.12,56.82l-81.06,339a12.15,12.15,0,0,0,9,14.64,12.29,12.29,0,0,0,2.83.33H925a12.14,12.14,0,0,0,11.81-9.32l43.61-182.38h14.92L953.07,395.79a12.14,12.14,0,0,0,11.81,15H1001a12.15,12.15,0,0,0,11.82-9.32ZM1035,53.15l-29.5,123.39H990.58L1018.91,58c2.53-11.43,5.89-17.31,18-16.22A70.11,70.11,0,0,1,1035,53.15ZM502,393.6q-14.67,9-44.38,9-28.53,0-39-9.77-11.22-10.31-5.23-35.39L484.7,59.3Q490.58,34.75,506,23.91q15.6-9.24,44.43-9.24,30.58,0,41.08,8.45,11.64,9.78,5.33,36.18l-18.44,77.1H542.27l19.32-80.8q3.72-15.57.68-21.39-3.82-5-15.35-5Q528,29.2,521.7,55.6L448.58,361.39Q444.85,377,447.79,382t13.58,5q11.22,0,17.68-4.75,5.76-5.55,9.42-20.86l21.47-89.79h36.11l-20.52,85.82Q519.34,383.31,502,393.6Zm158.47,0q-14.67,9-44.37,9-28.54,0-39-9.77-11.22-10.31-5.29-35.12L653.09,17.84H689.2L607.05,361.39Q603.31,377,606.26,382t13.58,5q11.22,0,17.68-4.75,5.76-5.55,9.42-20.86L729.09,17.84H765.2L683.94,357.69Q677.81,383.29,660.5,393.6Zm166.15-4.09q-15.28,9.11-47.9,9.11H725.46l91-380.78H869.8q32,0,43.25,9.11T918,62.47L848.24,354Q841.93,380.41,826.65,389.51ZM882.73,58.77q3.46-14.52-.67-20.07T862,33.16H849L765.16,383.57h13.6q26.29,0,32.43-25.62Zm82.15,339.85,45.84-191.71H970.83L925,398.62H888.88L970,59.3q5.87-24.55,21.27-35.39,15.6-9.24,44.44-9.24,30.57,0,41.07,8.45,11.65,9.78,5.33,36.18L1001,398.62Zm82-343q3.72-15.57.74-21.65-3.89-4.76-15.41-4.75-18.91,0-25.23,26.4L975.19,188.69h39.89Z"/><path class="cls-1" d="M5.12,305a102.71,102.71,0,0,0-3.64,49.43C5,374,21.19,390.75,40.53,395.46c.34.09,84.2,16.27,84.79,16.38a301.35,301.35,0,0,0,95.09,3l84.2-7.39c23.12-1.39,45.94-13.92,51.37-37.25L443.33,7.5A6.07,6.07,0,0,0,438.85.17,6.2,6.2,0,0,0,437.43,0H348.58a6.05,6.05,0,0,0-3.86,1.39L321.23,20.73H171.46L161.36,3.06A6.08,6.08,0,0,0,156.09,0H80.57a6.08,6.08,0,0,0-5.92,4.7ZM85.39,12.15h67.17l10.1,17.67a6.07,6.07,0,0,0,5.27,3.06H323.41a6.05,6.05,0,0,0,3.86-1.39l23.49-19.34h79L344.16,367.44A31.06,31.06,0,0,1,338.8,379a33.39,33.39,0,0,1-6.64,6.58,57.13,57.13,0,0,1-28.41,9.82l-84.52,7.42-.24,0a288.85,288.85,0,0,1-91.37-2.9L43.45,383.67a45.19,45.19,0,0,1-19.27-11,38.19,38.19,0,0,1-8.29-12.56,50.53,50.53,0,0,1-3.21-11.89c-1.83-16.11.23-24.56,4.21-40.17Z"/><path class="cls-1" d="M78.45,368.5l27.92,6,48-208.93c3-12.29.45-20.61-7.58-24.86q-8.26-4.2-29.78-3.91-21.15.28-31.29,4.63-14.84,6.17-18.76,23L24.61,350.88l27.92,10,24-109.24,26.92,2.66ZM125,163l-18.37,77.68-27-2.3L97.3,162.65q3.3-14,16.89-14.08,8.28,0,11,2.56C126.45,153.29,126.39,157.24,125,163Z"/><path class="cls-1" d="M178.88,384.12l27.92-1.34L261.69,167c3.37-13.47,1.12-22.59-6.76-27.25q-8.13-4.6-29.65-4.31-21.15.27-31.43,5.05-15,6.79-19.56,25.39L125,379.88,153,384.56,180.83,262l26.93,2.66Zm53.58-220-21,85.44-27.05-2.3,20.34-83.43q3.79-15.47,17.37-15.5,8.29,0,10.93,2.81C234.21,153.5,234,157.83,232.46,164.1Z"/><path class="cls-1" d="M287.56,378.94l29-7.82L343,271.68c3.64-12.7,1.2-20.55-7.37-23.71a38,38,0,0,0,7-3.91q10.37-6.76,14.91-21.78L370,170.13c3.6-10.87-.3-20.4-9.08-24.69-6.29-3-12-5.46-27.72-6.09l-45,.86L231.6,385.33l29-3.14,28.64-123.12,8.65-.91q12.25-1.29,15.37.86t.67,11.35Zm55.27-211.32L325,229.43q-2.46,8.88-8.51,12.26-4.36,2.46-14.51,3.36l-9.43.84,21.19-91.63,12.41-.44q12.45.31,16.41,2.91C344.36,158.64,344.45,162.26,342.83,167.62Z"/><path class="cls-1" d="M76.57,122.2H386.62L409.07,29H356.48l-19,15.65a22.21,22.21,0,0,1-14.15,5.08H167.84A22.28,22.28,0,0,1,148.5,38.48L143.07,29H98.17ZM225,76.32,211.3,86.8,216,103.34,201.85,93.6l-14.27,9.62,4.89-16.5L178.9,76.13l17.21-.46L202,59.5l5.75,16.22Zm-73,0L138.25,86.8,143,103.34,128.8,93.6l-14.27,9.62,4.89-16.5L105.85,76.13l17.21-.46L129,59.5l5.75,16.22Zm146.1,0L284.35,86.8l4.74,16.54L274.9,93.6l-14.27,9.62,4.89-16.5L252,76.13l17.21-.46,5.89-16.17,5.75,16.22Zm73.05,0L357.4,86.8l4.74,16.54L348,93.6l-14.27,9.62,4.89-16.5L325,76.13l17.21-.46L348.1,59.5l5.75,16.22Z"/></g></g></svg>