<svg xmlns="http://www.w3.org/2000/svg" viewBox="0 0 1578.43 88.54"><defs><style>.cls-1{fill:#121212;fill-rule:evenodd;}</style></defs><title>Challenger-Logo</title><g id="Layer_2" data-name="Layer 2"><g id="Layer_1-2" data-name="Layer 1"><polygon class="cls-1" points="956.02 0.19 950 17.65 846.5 17.65 839.97 35.87 943.48 35.87 937.47 53.08 833.84 53.08 827.62 70.79 931.21 70.79 925.19 88.5 779.98 88.5 811.02 0.19 956.02 0.19"/><path class="cls-1" d="M1577.74,11c1.8,6.67-.29,12.89-2.35,18.52-2.32,6.3-4.68,14.64-9.33,20.07s-12.78,9.52-27,9.54l19.35,29.25h-46.27l-14.92-22.08h-37.8l-7.93,22.08h-42L1440.34.09h61.32c19.27,0,41.62-.44,56.26.62C1566.2,1.3,1575.94,4.35,1577.74,11Zm-47.82,29.15,5.33-15.31c2.13-6.45-4.36-7.35-10.87-7.32h-47.91l-10.69,30.24h42.77C1513.48,47.78,1526.93,48,1529.92,40.17Z"/><path class="cls-1" d="M477.83,15.25C477.32-1.16,453.42.19,427.15.19H387c-19.43.65-38.47-1.46-49.52,11-3.25,3.68-4.41,8.05-6.18,13.05C322.16,50.2,310.06,84.8,308.73,88.5h41.65l7.91-22.08h61.38L411.79,88.5h41.87L473,33.61C475,27.51,478.2,21.35,477.83,15.25ZM426.18,47.88H364.85l8.22-23.24c2.12-5.93,8.65-6.95,30.22-6.95,24.51,0,33.59-.29,31,7Z"/><path class="cls-1" d="M1270.46.09l-6.15,17.28H1164.14a4.25,4.25,0,0,0-4.07,2.9l-15.29,44a4.31,4.31,0,0,0,4.07,5.72h52a4.24,4.24,0,0,0,4-2.79l5.24-13.88H1169l5.79-17.51H1258l-10.17,28.51c-2.58,7.63-5.41,20-12.54,22.49-6.76,2.39-30.41,1.56-38.9,1.56h-70.25c-11.92,0-24.35-2.16-26.09-9.58-1.22-5.16,1.77-12.2,3.56-17.46l11.27-31.92c3.28-9.34,5-17.36,11.76-22.44,5.41-4.1,14.16-6.44,21.07-6.91h122.73Z"/><polygon class="cls-1" points="1427.52 0.09 1421.51 17.54 1318 17.54 1311.47 35.76 1414.98 35.76 1408.97 52.98 1305.34 52.98 1299.12 70.69 1402.71 70.69 1396.69 88.4 1251.48 88.4 1282.52 0.09 1427.52 0.09"/><path class="cls-1" d="M1040.55,88.4h41.87l19.35-54.89c2-6.1,5.19-12.26,4.82-18.37-.51-16.4-24.41-15-50.68-15h-40.14c-19.43.65-38.47-1.46-49.53,11-3.24,3.68-4.41,8-6.17,13C950.92,50.1,938.82,84.7,937.49,88.4h41.65l22.69-63.86c2.12-5.93,8.65-6.95,30.22-6.95,24.51,0,33.59-.3,31,7Z"/><polygon class="cls-1" points="695.47 0.19 670.47 70.79 774.06 70.79 768.03 88.5 622.82 88.5 653.86 0.19 695.47 0.19"/><polygon class="cls-1" points="538.32 0.07 513.31 70.67 616.9 70.67 610.88 88.38 465.67 88.38 496.7 0.07 538.32 0.07"/><polygon class="cls-1" points="267.68 53.28 255.3 88.5 296.64 88.5 327.68 0.19 286.35 0.19 273.82 35.61 211.41 35.61 224.01 0.19 182.45 0.19 151.41 88.5 192.96 88.5 205.27 53.28 267.68 53.28"/><path class="cls-1" d="M170.68.05l-6.15,17.29H66.36a6.44,6.44,0,0,0-6.31,4L45,64.26A4.3,4.3,0,0,0,49.06,70h97.52l-6.45,18.36-113.76,0C14.46,88.36,2,86.2.28,78.78c-1.21-5.16,1.78-12.2,3.57-17.46L15.11,29.4C18.4,20.07,20.16,12.05,26.88,7,32.29,2.86,41,.53,48,.05H170.68Z"/></g></g></svg>