<svg xmlns="http://www.w3.org/2000/svg" viewBox="0 0 1629.09 180.08"><defs><style>.cls-1{fill:#121212;fill-rule:evenodd;}</style></defs><title>CHALLENGER_with_Hash</title><g id="Layer_2" data-name="Layer 2"><g id="Layer_1-2" data-name="Layer 1"><path class="cls-1" d="M1348.16,39.59q23.34-.5,46.66.68a44.32,44.32,0,0,1,14.27,3.26,20.85,20.85,0,0,1,13.3,14.06,28,28,0,0,1,.21,14.17,153.75,153.75,0,0,1-6.41,19c-3.83,9.74-10.43,17-20.58,20.57l8.07,12.2a10.81,10.81,0,0,1-9,16.77h-41.42a10.81,10.81,0,0,1-9-4.76l-10.14-15h-20.48l-4.54,12.61a10.8,10.8,0,0,1-10.17,7.15h-36.49l-27.58,32.43c-3.44,4-3,7.31,1.09,7.31h129.17c4,0,10.1-3.28,13.54-7.31L1519.41,7.31c3.44-4,2.95-7.31-1.09-7.31H1389.15c-4,0-10.1,3.27-13.54,7.31Z"/><path class="cls-1" d="M1359.42,81.41l1.57-4.5h-32L1327,82.38h23.42A34.86,34.86,0,0,0,1359.42,81.41Z"/><path class="cls-1" d="M1625.71,0h-64.47c-4,0-10.09,3.27-13.53,7.31L1407,172.77c-3.43,4-2.94,7.31,1.1,7.31h64.46c4,0,10.1-3.28,13.53-7.31L1626.8,7.31C1630.23,3.27,1629.74,0,1625.71,0Z"/><polygon class="cls-1" points="855.54 50.59 850.16 66.21 757.53 66.21 751.7 82.52 844.33 82.52 838.94 97.92 746.2 97.92 740.64 113.77 833.35 113.77 827.96 129.62 698.01 129.62 725.78 50.59 855.54 50.59"/><path class="cls-1" d="M1411.93,60.28c1.61,6-.26,11.54-2.11,16.58-2.07,5.64-4.18,13.1-8.35,18s-11.44,8.52-24.12,8.54l17.32,26.17h-41.42l-13.35-19.76h-33.82L1299,129.53h-37.59l27.59-79h54.87c17.25,0,37.24-.39,50.34.55C1401.6,51.58,1410.31,54.32,1411.93,60.28Zm-42.8,26.09,4.77-13.71c1.9-5.76-3.9-6.57-9.73-6.54H1321.3l-9.56,27.06H1350C1354.42,93.18,1366.45,93.34,1369.13,86.37Z"/><path class="cls-1" d="M427.61,64.06c-.46-14.67-21.84-13.47-45.35-13.47H346.34c-17.39.59-34.43-1.31-44.32,9.88-2.91,3.29-3.95,7.21-5.53,11.68-8.19,23.2-19,54.16-20.2,57.47h37.27l7.07-19.76h54.93l-7.05,19.76H406L423.3,80.5C425.1,75,427.94,69.53,427.61,64.06ZM381.39,93.27H326.51l7.36-20.8c1.89-5.3,7.73-6.22,27-6.22,21.94,0,30.07-.26,27.79,6.22Z"/><path class="cls-1" d="M1136.94,50.5,1131.44,66h-89.65a3.8,3.8,0,0,0-3.64,2.59L1024.47,108a3.86,3.86,0,0,0,3.64,5.12h46.56a3.77,3.77,0,0,0,3.6-2.49l4.7-12.43H1046.1l5.19-15.66h74.52l-9.1,25.51c-2.31,6.83-4.85,17.88-11.22,20.13-6.06,2.13-27.22,1.39-34.82,1.39H1007.8c-10.66,0-21.78-1.93-23.35-8.58-1.08-4.61,1.59-10.91,3.19-15.62l10.08-28.56c2.94-8.36,4.52-15.54,10.53-20.09,4.84-3.66,12.67-5.75,18.86-6.18h109.83Z"/><polygon class="cls-1" points="1277.49 50.5 1272.11 66.12 1179.48 66.12 1173.64 82.42 1266.27 82.42 1260.89 97.83 1168.15 97.83 1162.59 113.68 1255.29 113.68 1249.9 129.53 1119.95 129.53 1147.73 50.5 1277.49 50.5"/><path class="cls-1" d="M931.19,129.53h37.47L986,80.41c1.81-5.46,4.65-11,4.32-16.44-.46-14.67-21.84-13.47-45.35-13.47H909c-17.38.59-34.42-1.31-44.31,9.88-2.91,3.29-4,7.21-5.53,11.67-8.19,23.2-19,54.17-20.21,57.48h37.27l20.31-57.15c1.9-5.3,7.74-6.22,27-6.22,21.94,0,30.06-.26,27.79,6.22Z"/><polygon class="cls-1" points="622.38 50.59 600 113.77 692.71 113.77 687.32 129.62 557.37 129.62 585.14 50.59 622.38 50.59"/><polygon class="cls-1" points="481.74 50.49 459.36 113.67 552.07 113.67 546.67 129.52 416.73 129.52 444.5 50.49 481.74 50.49"/><polygon class="cls-1" points="239.55 98.1 228.47 129.62 265.46 129.62 293.24 50.59 256.26 50.59 245.04 82.29 189.19 82.29 200.47 50.59 163.28 50.59 135.5 129.62 172.68 129.62 183.7 98.1 239.55 98.1"/><path class="cls-1" d="M152.74,50.47l-5.5,15.47H59.39a5.76,5.76,0,0,0-5.65,3.61L40.27,107.93a3.86,3.86,0,0,0,3.64,5.12h87.27l-5.78,16.43-101.8,0c-10.66,0-21.78-1.94-23.35-8.58C-.83,116.31,1.84,110,3.44,105.3L13.52,76.73C16.46,68.38,18,61.2,24.05,56.65c4.84-3.67,12.67-5.76,18.86-6.18H152.74Z"/></g></g></svg>