<svg xmlns="http://www.w3.org/2000/svg" viewBox="0 0 998.28 109.55"><defs><style>.cls-1{fill:#121212;fill-rule:evenodd;}</style></defs><title>HEMI</title><g id="Layer_2" data-name="Layer 2"><g id="Layer_1-2" data-name="Layer 1"><path class="cls-1" d="M48.81,0,0,109.55H84l19.74-44.3h91.19l-19.74,44.3h86.6L310.55,0H224L206.87,38.34H115.68L132.76,0Zm285,0L287.26,109.55H518l11.06-24.82H379.56l9.61-21.57h149l10-22.35h-149l7.76-17.42H556.08L566.5,0Zm255,0L540,109.55H623.7l22-48,15,48H718l57.65-46.31-18.24,46.31h79.51L885.74,0H774.19L711.58,62.14,700.13,0ZM911.86,0,863.05,109.55h86.42L998.28,0Z"/></g></g></svg>