<svg xmlns="http://www.w3.org/2000/svg" viewBox="0 0 286.93 128.9"><defs><style>.cls-1{fill:#121212;fill-rule:evenodd;}</style></defs><title>M92-(Mopar-92)-Outline</title><g id="Layer_2" data-name="Layer 2"><g id="Layer_1-2" data-name="Layer 1"><path class="cls-1" d="M-21732.86,6079.23l23.77-.26-.42-3.94a12.91,12.91,0,0,1,11.47-14.21,12.26,12.26,0,0,1,1.36-.08,12.91,12.91,0,0,1,12.89,12.92,12.89,12.89,0,0,1-2.92,8.17l-63.47,71.13h109.11v-35.22h-31.35c6.31-6.63,17.4-19,20.66-25.85a39.27,39.27,0,0,0,3.5-18.12,48.42,48.42,0,0,0-48.45-48.39,48.44,48.44,0,0,0-42.41,25.1,48.58,48.58,0,0,0-66.37-17.79,48.56,48.56,0,0,0-22,27.4,64.79,64.79,0,0,0-57.7-33.53c-16.92.33-29.73,6.56-42.77,17.13l21.85,27.59c7-5.53,13.67-9.4,22.72-9.48a28.25,28.25,0,0,1,22.43,11.54h-43.78v34.3h43.87a27.62,27.62,0,0,1-22.68,11.55c-9.2-.09-15.22-3.57-22.37-9.39l-21.62,27.77c12.86,10.31,25.73,16.31,42.31,16.7a64.4,64.4,0,0,0,64.45-51.7,48.26,48.26,0,0,0,18.53,15.5L-21834,6153h47.09q20.21-20.31,39.06-41.91C-21739.4,6101.46-21734.06,6091.56-21732.86,6079.23Zm-3.38-3.56c-.6,12.73-5.61,23.13-14.31,33q-18.26,21-37.85,40.69h-37.46l29.71-32.68a44.53,44.53,0,0,1-26.94-25.79,61.21,61.21,0,0,1-62.08,59.78,62.35,62.35,0,0,1-37.38-13.69l17.18-22.07c16.16,13.17,41.53,10,50.63-10.87h-46.43v-27.1h46.43a31.86,31.86,0,0,0-28.72-18.74,37.27,37.27,0,0,0-22.09,8l-17.41-22a63.28,63.28,0,0,1,37.79-14.08,61.2,61.2,0,0,1,59,42.13,45,45,0,0,1,44.92-42.51,45,45,0,0,1,42.17,29.32,44.83,44.83,0,0,1,42.35-30.12,44.82,44.82,0,0,1,44.82,44.82,41.47,41.47,0,0,1-3.13,16.5c-3.44,7.61-18.78,23.9-26,31h36.33v28h-97.48l58.18-65.19a16.52,16.52,0,0,0,3.78-10.51,16.51,16.51,0,0,0-16.49-16.52c-.59,0-1.17,0-1.75.1a16.51,16.51,0,0,0-14.66,18.17Z" transform="translate(21927.99 -6025.38)"/><path class="cls-1" d="M-21764.64,6074.61a16.55,16.55,0,0,0-16.56-16.56,16.55,16.55,0,0,0-16.56,16.56,16.55,16.55,0,0,0,16.56,16.56A16.55,16.55,0,0,0-21764.64,6074.61Zm-3.6,0a13,13,0,0,1-13,13,13,13,0,0,1-13-13,13,13,0,0,1,13-13A13,13,0,0,1-21768.24,6074.61Z" transform="translate(21927.99 -6025.38)"/></g></g></svg>