<svg xmlns="http://www.w3.org/2000/svg" viewBox="0 0 956.79 706.68"><defs><style>.cls-1{fill:#121212;fill-rule:evenodd;}</style></defs><title>MOPAR-Racing</title><g id="Layer_2" data-name="Layer 2"><g id="Layer_1-2" data-name="Layer 1"><path class="cls-1" d="M394.37,623.14s-67.61,0-68.37.07c-17,.41-25.57,8.32-25.57,23.78v35.82c0,8.37,2,14.46,6.59,18.21,4.29,3.73,11.14,5.66,20.76,5.66,0,0,67.35-.08,68.09-.1,17-.43,25.57-8.32,25.57-23.77V647C421.44,631.05,412.33,623.14,394.37,623.14Zm4.29,26.13v37.06H323.21V643.51h75.45Zm58-5.81H526c4,0,5.81,1.88,5.81,5.6v4.7c0,3.88-1.78,5.76-5.81,5.76H456.65Zm-22.8,62.81h22.8V679.89h70.89q27.32,0,27.32-23.92v-9q0-23.87-27.32-23.87H433.85Zm156.2-46.07V649.45c0-4,2-6,5.83-6h63.3c4,0,5.81,2,5.81,6V660.2ZM688,647c0-15.91-8.35-23.82-25.32-23.82H594.36c-18,0-27.09,7.91-27.09,23.82V706.6h22.78v-26H665v26h23Zm35.21-3.5H792.6c3.81,0,5.81,1.88,5.81,5.6v4.7c0,3.88-2,5.76-5.81,5.76H723.24Zm-23.06,62.81h23.06V679.89H765l29.86,26.54h23.82c6.32,0,9.11-.08,8.35-.16q-30.37-26.22-30.37-26.43c16.44,0,24.79-7.92,24.79-23.75v-9q0-24-27.33-24H700.18Zm-567.85.33V623.29h23.29l54.44,54.54L265,623.14h23V706.6H265V652L210.06,706.5,155.36,652V706.6Z"/><path class="cls-1" d="M132.2,269.79l-.54.38c-21.33,14.35-34.94,30.37-50.39,50.16q11.42-22.11,24.54-43.26a25.39,25.39,0,0,0,4.42-12,8.9,8.9,0,0,0-2-6,6,6,0,0,0-7.52-1.54c-.54.36-3.36,2.95-3.49,3.11A290,290,0,0,0,78,289.21a642.27,642.27,0,0,0-58.35,123q-8.73,23.93-15.89,48.36A95.86,95.86,0,0,0,0,487.92l1,9.3A8.36,8.36,0,0,0,3.35,502a6.3,6.3,0,0,0,8.89.1.23.23,0,0,1,.07-.07,16.23,16.23,0,0,0,4.31-9.4q3-9.29,5.35-18.76,7.74-23.34,17.32-46A374.33,374.33,0,0,1,70,370.27a490,490,0,0,1,42.86-55.43,120.82,120.82,0,0,1,12.66-12,359.6,359.6,0,0,0-4.22,55.06q0,5.49.17,10.94-6.84,6.12-13.89,12-14.61,12.48-29.4,24.73c-3.53,2.89-7.5,9.75-9.18,14A6.37,6.37,0,0,0,72.87,428a71.46,71.46,0,0,0,11.19,2.58A50,50,0,0,0,95,431.89l26.88,4.72a18.88,18.88,0,0,0,.05,11.91,68.31,68.31,0,0,0,2.23,9.05c1.29,4,5.81,6.43,9.6,4.19a8.52,8.52,0,0,0,2.21-2,356.2,356.2,0,0,0,60.74,117.9l116-90.5q-5.2-6.72-9.86-13.86c3.85,0,7.31-2.8,7.12-6.73-.29-5.81-8.71-12.85-14.39-14.79L289.64,450a210.38,210.38,0,0,1-20.95-85.85C282.22,344.32,298,324,314.1,307.45c-2.38,7.13-7.9,25.77-3.46,36.13a10.46,10.46,0,0,0,13.73,5.49l.25-.12A52.76,52.76,0,0,0,337,341a587.74,587.74,0,0,0,52.86-52.19l4.16-4.72A75.19,75.19,0,0,0,392.82,295c-.75,6.37.41,14.53,8.61,14.72a13.84,13.84,0,0,0,7.41-1.46V549.91H550.61V383.68q8.07-10,15.25-20.76,18.46-26.28,34.36-54.25,11.84-20.1,22.42-40.88l15.24-28.68c1.47-2,8-6.56,9.9-7.89l.53-.38A211,211,0,0,1,646.81,487L763.28,577a357.7,357.7,0,0,0,12.39-421.16C804,141.93,834.12,128.42,861,118.28l28.69-10.59L934.59,93l17-4.46a7.41,7.41,0,0,0,4.64-4.24A9.74,9.74,0,0,0,950.17,72a9.9,9.9,0,0,0-2.75-.51c-3.74-.23-17.09,4-21.55,5a110.28,110.28,0,0,0-16.42,4.61,67.79,67.79,0,0,0-15,4.81,102.35,102.35,0,0,0-16.35,4.77q-24.43,8-48.31,17.59c-22.12,8.92-44.77,18.87-67.22,29.68A358.06,358.06,0,0,0,479.73,0C312.21,0,171.53,114.73,132.2,269.79Zm276.64-31.05L377,271.29q-16.8,17.23-34.57,33.48-5.44,4.77-11,9.39a90.68,90.68,0,0,1,17.07-31.48l.18-.23a82.78,82.78,0,0,1,22.27-21,21,21,0,0,1,6.28-2.05c4.42-.71,7.15-4.7,7.79-8.77.74-4.68.82-12.34-5.32-13.77A20.09,20.09,0,0,0,365.06,239a88.08,88.08,0,0,0-17.66,10.42,254.79,254.79,0,0,0-29.26,23,316.45,316.45,0,0,0-38,39.91c1.53-4,0-9.76-3.53-12.21a211.33,211.33,0,0,1,132.22-141ZM125.37,412.39l-15.46-2.79.13-.11q6.75-6,13.34-12.25Q124.22,404.86,125.37,412.39Zm425.24-144.5a8.76,8.76,0,0,0,2.91.62,32.24,32.24,0,0,0,18.4-4.38,111.85,111.85,0,0,0,25.33-17.94q4-3.31,7.86-6.73-12,11.5-23.46,23.6l-.12.13A369.27,369.27,0,0,0,550.61,303Zm38.65-90.38a213.85,213.85,0,0,0-17.52,14.13q-10.51,9.08-21.13,18V159.14A210.49,210.49,0,0,1,589.26,177.51Zm28.75,21q-10.46,10-21.76,19.12-7.34,6.12-14.84,12c-3.39,2.78-14.26,11.27-18.5,11.64a12.18,12.18,0,0,1,2.29-5.2,6.62,6.62,0,0,0,.46-.71,87.49,87.49,0,0,1,15.63-20.84q9-8.9,18.69-17.07,4.46-3.28,9.09-6.28Q613.65,194.68,618,198.46Zm-166.61,9q-9.33,11.9-19.15,23.4a2.34,2.34,0,0,1-2.28.82l-.37,0-.74-.6a6.2,6.2,0,0,1-1.35-3.39A32.64,32.64,0,0,1,432,212.83a57.18,57.18,0,0,1,13.78-14.36,23.61,23.61,0,0,1,6.75-4.7,27.66,27.66,0,0,1,4.9-.08,1.76,1.76,0,0,1,1.22,2.6Q455.22,202,451.4,207.44ZM16.85,472.35q-2.4,9.67-5.48,19.16a12.32,12.32,0,0,1-2.85,6.73.94.94,0,0,1-.69.28,1,1,0,0,1-.69-.3,3.29,3.29,0,0,1-.88-1.56l-.93-8.79a93.26,93.26,0,0,1,1.45-17c.73-2.95,1.42-5.9,2.07-8.87q7.26-24.23,15.79-48A637.38,637.38,0,0,1,82.53,292a284.86,284.86,0,0,1,18.88-28.06,7.38,7.38,0,0,1,1.75-1.64.7.7,0,0,1,.87.19,4.14,4.14,0,0,1,.9,2.08,20.18,20.18,0,0,1-3.57,9.62q-11.49,18.48-21.68,37.73-9.17,17.34-18.17,34.75l-9.23,19.77a1.78,1.78,0,0,0,0,2,.71.71,0,0,0,.6.28,1.49,1.49,0,0,0,.78-.44,28.7,28.7,0,0,0,3.77-4.59,479.17,479.17,0,0,1,47.69-63.56,149.89,149.89,0,0,1,29.55-25.51,82.84,82.84,0,0,1,23.66-11.28,26,26,0,0,1,12.55-2.25,19.54,19.54,0,0,1,15.48,5.23,29.58,29.58,0,0,1,7.11,23.43,80.09,80.09,0,0,1-4.87,18.45,137.83,137.83,0,0,1-21.88,36.2,674.57,674.57,0,0,1-60.19,61.15,16.88,16.88,0,0,0-5,5.43,1.68,1.68,0,0,0-.09,1.28,1.63,1.63,0,0,0,.85.95,14.56,14.56,0,0,0,4.23,1.22q5.56.83,11.09,1.9,7.74,1.56,15.51,2.91a3.42,3.42,0,0,0,3-.85q5.9-6.8,11.21-14.06,18.52-23.73,38.14-46.58A346,346,0,0,1,247,299.55a58.83,58.83,0,0,1,14-8.13,8.14,8.14,0,0,1,6.66.2,4.81,4.81,0,0,1,2.95,2.4,4.73,4.73,0,0,1,.28,3.79,32.76,32.76,0,0,1-4.29,5,78.53,78.53,0,0,1-10.77,6.24,70.09,70.09,0,0,0-19.31,16.62,102,102,0,0,0-18.78,29.78,64.79,64.79,0,0,0-4.91,13.35,3.54,3.54,0,0,0,1.26,4.36,1.05,1.05,0,0,0,.83.12,3.18,3.18,0,0,0,1.05-.54q6.47-6.93,12.4-14.32,21.09-26.41,41.8-53.13a2.64,2.64,0,0,1,1.85-1.08,2.61,2.61,0,0,1,2,.64,6.39,6.39,0,0,1,1.08,5.54Q271,320,266.81,329.69a69.17,69.17,0,0,0-2.85,7.92,1.26,1.26,0,0,0,.57,1.3,1.25,1.25,0,0,0,1.42-.05q7.73-10.37,16.05-20.27a311.52,311.52,0,0,1,39.69-42.22,251.1,251.1,0,0,1,28.82-22.66,82.4,82.4,0,0,1,17-10,15.63,15.63,0,0,1,10.9-1.73,1.63,1.63,0,0,1,1.08.87,13.32,13.32,0,0,1,.25,6.92,4.83,4.83,0,0,1-3.35,4.32,26.44,26.44,0,0,0-8.11,2.69,88.16,88.16,0,0,0-23.91,22.53,101.78,101.78,0,0,0-17.81,32.55L324,320a4.85,4.85,0,0,0-.61,3.64,2.09,2.09,0,0,0,3.13,1.33q9.93-7.87,19.46-16.23,17.91-16.35,34.83-33.73,18.53-18.84,37-37.77a12.42,12.42,0,0,1,3.73-3.07A5.59,5.59,0,0,1,428,241.7a96.91,96.91,0,0,0-20.73,38.4,3.81,3.81,0,0,0,.32,3.5.81.81,0,0,0,1,.21,5.76,5.76,0,0,0,1.15-.67q13.61-13.09,26.84-26.6,18.57-19.14,38.09-37.31a180.19,180.19,0,0,1,20.67-16.38,6.43,6.43,0,0,1,10.45,6.25q-1.53,3.06-3.28,6a9.67,9.67,0,0,0-1.7,4.32,1.63,1.63,0,0,0,.56,1.4,1.15,1.15,0,0,0,1.15-.08,44.73,44.73,0,0,0,5.19-5.11A67.66,67.66,0,0,1,532.33,199a4.09,4.09,0,0,1,3,0,5.33,5.33,0,0,1,2.34,5,23.52,23.52,0,0,1-2,4.41,166.23,166.23,0,0,0-12,22.91,8.71,8.71,0,0,0-1.26,6.39,1,1,0,0,0,1.08.79,3.42,3.42,0,0,0,1.47-.58q25.41-20.79,50.27-42.25a206.51,206.51,0,0,1,29.58-22.14A153.46,153.46,0,0,1,644,154.12a15,15,0,0,1,9.54.06,11.54,11.54,0,0,1,4,4.2,1.13,1.13,0,0,1,0,.92,14.92,14.92,0,0,1-11.32,7.84,185.21,185.21,0,0,0-49.52,26.1q-9.95,8.3-19.12,17.46A92.2,92.2,0,0,0,561,232.81a17.4,17.4,0,0,0-3.53,11.74,2.09,2.09,0,0,0,1.19,1.71,16.3,16.3,0,0,0,7.76-.26,95.43,95.43,0,0,0,18.48-12.34,182.21,182.21,0,0,0,14.76-12A403.55,403.55,0,0,0,633,191q10.24-11.06,20.25-22.33a3.05,3.05,0,0,1,5.36,1.32,21.83,21.83,0,0,1-1.38,7.37q-3.88,11.44-7.84,22.87a47.9,47.9,0,0,0-2.18,6.48,1.72,1.72,0,0,0,.52,1.61,2,2,0,0,0,2.23,0l11.76-7.79q9.87-6.54,20-12.66,28.13-17.4,57.62-32.37,45.27-23.16,92.44-42.27,23.78-9.47,48.09-17.5A97.46,97.46,0,0,1,896.07,91a62.61,62.61,0,0,1,14.81-4.76,105.57,105.57,0,0,1,16.26-4.58q9.17-2.68,18.5-4.74a3.25,3.25,0,0,1,1.45-.16,4.44,4.44,0,0,1,3.55,1.86,4.39,4.39,0,0,1,.58,4,2.53,2.53,0,0,1-1.23.88q-8.4,2.41-16.91,4.41Q921,92,908.7,95.73q-10.34,3.6-20.74,6.92-14.48,5.16-28.82,10.64-44.94,17.31-88,39Q743.42,165.91,716.45,181q-7.89,4.37-15.55,9.18-28.85,17.16-56.19,36.67a74.3,74.3,0,0,0-11.14,9q-7.7,14.81-15.65,29.46Q607.39,286,595.61,306q-15.76,27.75-34.14,53.91a292,292,0,0,1-33.54,41.34,6.63,6.63,0,0,1-8,1.94,4.65,4.65,0,0,1-1.63-4,40.47,40.47,0,0,1,.89-12.56q1.08-4.39,1.79-8.87a178.07,178.07,0,0,1,17.89-45.12,374.58,374.58,0,0,1,46.68-65.88q20.46-21.65,42.82-41.36a55,55,0,0,0,6.77-12.47,70.29,70.29,0,0,0,5.66-14.41.91.91,0,0,0-.28-.88.89.89,0,0,0-.9-.18,3.25,3.25,0,0,0-1.43.84,66,66,0,0,1-4.82,5.61q-10.26,11.5-21.42,22.17-8.85,8.37-18.21,16.17a106.81,106.81,0,0,1-24.37,17.26,27,27,0,0,1-15.57,3.72,3.29,3.29,0,0,1-1.5-.4,12.31,12.31,0,0,1-3.93-4.88,20.7,20.7,0,0,1-.74-8.85q1.89-7.83,4.42-15.49a19.29,19.29,0,0,0,.9-2,1.67,1.67,0,0,0-.2-1.63.84.84,0,0,0-.26-.27.35.35,0,0,0-.22-.06,1.83,1.83,0,0,0-.84.37,169.3,169.3,0,0,0-16.08,14.68,75.08,75.08,0,0,1-15.56,12.45c-.73.36-1.47.71-2.21,1a1.36,1.36,0,0,1-.53.07,5,5,0,0,1-.94-.13c-.49-.11-1-.24-1.46-.39a3.17,3.17,0,0,1-2.31-1.9c-.29-.75-.56-1.51-.79-2.28a8.84,8.84,0,0,1,.13-3.69,78.83,78.83,0,0,1,5.69-22.18,4.45,4.45,0,0,0,.43-4,.8.8,0,0,0-1-.39,3.54,3.54,0,0,0-.91.46q-5.54,5.07-10.61,10.59a234.16,234.16,0,0,0-25.21,30.22,8.42,8.42,0,0,1-1.3,1.67,1.09,1.09,0,0,1-.74.3,2.88,2.88,0,0,1-2.09-1.38A10.43,10.43,0,0,1,476,258q5.25-12.51,10.11-25.18,2-4.5,3.65-9.14a.87.87,0,0,0-.45-.93,6.71,6.71,0,0,0-.83-.36,1.34,1.34,0,0,0-1.15.32q-8.61,7.93-17,16.1Q439.89,270.38,409,301.5a8.45,8.45,0,0,1-7.45,2.84,2.7,2.7,0,0,1-2.62-1.32,11.08,11.08,0,0,1-.76-7.39,68.9,68.9,0,0,1,2.56-17,29.89,29.89,0,0,0,2.84-10.31,1.16,1.16,0,0,0-1.27-1.3,1.75,1.75,0,0,0-.82.52q-7.65,9-15.59,17.69A645.56,645.56,0,0,1,333.47,337a48.52,48.52,0,0,1-11.08,7.16,5.12,5.12,0,0,1-6.85-2.63,33.57,33.57,0,0,1-.68-15.53A127.77,127.77,0,0,1,326,292.7a3.18,3.18,0,0,0,.19-2.51.63.63,0,0,0-.59-.4,4.35,4.35,0,0,0-2.06.74q-10.09,9.69-19.69,19.87a489.17,489.17,0,0,0-47,62,2.35,2.35,0,0,1-2.8.9,5.18,5.18,0,0,1-2.39-2.26,14.86,14.86,0,0,1-1-8.85,30.37,30.37,0,0,1,1.51-11.43,1.58,1.58,0,0,0-2.71-1.43q-4.83,6.75-9.53,13.6a217.35,217.35,0,0,1-27.74,33,4.84,4.84,0,0,1-5.92,1.62,11.19,11.19,0,0,1-4.12-8,78.35,78.35,0,0,1,1.72-17,109.67,109.67,0,0,1,6.2-20.66,17.64,17.64,0,0,0,1.48-3.25,1.28,1.28,0,0,0-.49-1.37l-.34-.16a1.61,1.61,0,0,0-.89.13,12.31,12.31,0,0,0-1.13.61q-20.31,21.72-38.38,45.37a285.15,285.15,0,0,0-18.9,25.89,2.62,2.62,0,0,0,1.87,4q6.21.92,12.36,2.21,7.77,1.44,15.53,3.05a66.25,66.25,0,0,0,7.39,1.24,15.7,15.7,0,0,0,6.67,1.5q9.19,2.19,18.44,4.15Q229,438.66,244,442.87q15,3.35,29.59,8,9.94,3,19.92,5.81a22.32,22.32,0,0,1,10.24,8.16,3.47,3.47,0,0,1,.78,1.91.81.81,0,0,1-.36.73,3,3,0,0,1-1.74.41q-3.33-.67-6.67-1.27a237.7,237.7,0,0,1-24.4-6.1q-10.59-3.07-21.42-5.26-10.64-2.76-21.47-4.72a60.84,60.84,0,0,0-8.13-1.82q-8.06-1.87-16.25-3-8.82-2-17.77-3.32a37.87,37.87,0,0,0-11.08-1.68,34.53,34.53,0,0,0-8.88-1.81q-11-2.13-22.16-3.78a3.84,3.84,0,0,0-3.72,1.68,41.32,41.32,0,0,0-4.34,9.63A30.89,30.89,0,0,1,131.31,457a1.34,1.34,0,0,1-.44.27.58.58,0,0,1-.32,0,2.31,2.31,0,0,1-1.35-1.35,63.89,63.89,0,0,1-2.12-8.76,13.54,13.54,0,0,1,.72-11,8.56,8.56,0,0,0,.49-1.85,1.22,1.22,0,0,0-.22-.87,4.71,4.71,0,0,0-3.06-1.89,68.41,68.41,0,0,1-11.8-2q-8.92-1.31-17.77-3a44.27,44.27,0,0,1-10.38-1.26,66,66,0,0,1-10.57-2.41,1.09,1.09,0,0,1-.6-1.33,37.35,37.35,0,0,1,7.59-11.8q15-12.11,29.46-24.79a513.12,513.12,0,0,0,56.16-54.56,71.76,71.76,0,0,0,12.78-20.73,30.64,30.64,0,0,0,2.2-22.9,17,17,0,0,0-17.88-9.69,58.58,58.58,0,0,0-13.31,3.69,130.42,130.42,0,0,0-42,30.48A495.39,495.39,0,0,0,65.5,367.35a380.35,380.35,0,0,0-31.12,58.38Q24.69,448.68,16.85,472.35Z"/><path class="cls-1" d="M550.27,358.44q10.71-14.6,20.93-29.56,7.54-12.13,14.85-24.4,12.35-21.53,24.08-43.4a1.89,1.89,0,0,0,.13-.91l-.14-.35a1.08,1.08,0,0,0-1.67-.33,178.05,178.05,0,0,0-20.13,21.24,322.68,322.68,0,0,0-42.88,60.76q-7.23,13-13.49,26.59-2.7,6.41-5.24,12.87a1.72,1.72,0,0,0,3,1.37A276.06,276.06,0,0,0,550.27,358.44Zm.34-15.29a316.93,316.93,0,0,1,39.13-56q-4.1,7.33-8.28,14.61L566.72,326q-7.9,11.58-16.11,22.94Z"/></g></g></svg>