<svg xmlns="http://www.w3.org/2000/svg" viewBox="0 0 2440.64 227.98"><defs><style>.cls-1{fill:#121212;fill-rule:evenodd;}</style></defs><title>Plum Crazy</title><g id="Layer_2" data-name="Layer 2"><g id="Layer_1-2" data-name="Layer 1"><path class="cls-1" d="M291.5,24.07H206.59q-24.74-1.34-42.79,11.36L133.05,74.88H259.41q28.74,0,39.44-14.71L315.57,36.1Q309.56,26.08,291.5,24.07ZM269.44,99.62H116.33l-35.1,47.47-.67,1a7.52,7.52,0,0,0-.67,3.34L58.83,180.52H0l24.74-35.44,79.56-111Q127,11.36,166.48,2.67A372.41,372.41,0,0,1,211.27,0h106.3a243.22,243.22,0,0,1,34.77,3.34q18.72,6,21.39,22.73v10L343.65,82.9q-12.7,16.72-51.48,16.72Z"/><polygon class="cls-1" points="487.39 10.03 366.38 179.18 311.56 179.18 433.91 10.03 487.39 10.03"/><path class="cls-1" d="M648.52,58.17H702l-15.37,23.4-50.81,73.54q-15.39,24.4-78.56,24.4H464.33q-54.16,0-54.16-17.71a16.64,16.64,0,0,1,2.34-7.69L466,79.56l15.37-21.39h57.5L514.13,89.59l-42.78,58.83q.66,7.37,18,7.36l75.55.33q10.69-1,17.38-7.69l43.46-58.83Z"/><path class="cls-1" d="M792.93,95.61l10-14H772.21l-6,8L723.4,148.42l-22.06,30.76h-55.5l18.72-25.07,53.49-74.55,15.38-21.39H872.16q65.18,0,66.52,23.4l-50.81,73.54-16,24.07H814.33l63.51-89.59q-1.33-8-14.71-8h-12.7l-10,14-57.5,83.57H733.43Z"/><path class="cls-1" d="M1356.88,24.07H1272q-24.75-1.34-42.79,11.36l-82.57,111.66a9.87,9.87,0,0,0-1.17,5.51q.16,3.18,15.54,3.85l112,.33,87.25-.33-21.4,24.07H1154.3q-59.17,0-65.52-20.06a18.56,18.56,0,0,1,1.33-15.38l79.56-111q22.74-22.74,62.18-31.43A372.57,372.57,0,0,1,1276.65,0h186.53l-22.73,24.07h-83.57Z"/><path class="cls-1" d="M1571.49,81.57h-46.8q-18.06,0-27.41,8l-42.79,58.83-22.07,30.76h-55.49l18.72-25.07,51.48-71.88q14-24.74,62.18-24.06h177.84l-17.38,23.4h-98.28Z"/><path class="cls-1" d="M1833.57,130.37h-113l-13.37,18q.66,7.37,18,7.36l75.55.33a33.43,33.43,0,0,0,18.72-7.69Zm3.34-24.07h12l12.7-16.71q-1.34-8-14.71-8H1699.19l16-23.4H1856q65.17,0,66.52,23.4l-50.81,73.54q-15.37,24.4-78.56,24.4h-92.93q-54.15,0-54.16-17.71a16.64,16.64,0,0,1,2.34-7.69L1675.12,117q8-10.69,27.41-10.7h134.38Z"/><polygon class="cls-1" points="2174.54 81.57 1969.96 155.78 2123.73 155.78 2108.35 179.51 2045.17 179.51 1952.24 179.51 1883.71 179.18 1902.43 155.78 2113.03 79.56 2098.33 79.56 2075.59 79.56 2027.46 79.56 1954.58 79.56 1970.63 58.17 2014.09 58.17 2108.02 58.17 2189.92 58.17 2174.54 81.57"/><path class="cls-1" d="M2388.49,58.17h52.15l-14,23.4-50.82,72.87-17.38,24.07-18.05,24.74q-18,24.74-54.82,24.73h-187.2l17.38-22.06h142.41q24.74-.66,36.77-12l10.69-14.71-101.28.33q-54.16,0-54.16-17.71a16.64,16.64,0,0,1,2.34-7.69L2206,79.56l15.37-21.39h56.16l-23.4,31.42-42.78,58.83q.66,7.37,18,7.36l75.55.33,16.71-.33,44.13-66.19Z"/></g></g></svg>