<svg xmlns="http://www.w3.org/2000/svg" viewBox="0 0 1109.13 417.29"><defs><style>.cls-1{fill:#121212;fill-rule:evenodd;}</style></defs><title>RT-400-Shield-HEMI</title><g id="Layer_2" data-name="Layer 2"><g id="Layer_1-2" data-name="Layer 1"><path class="cls-1" d="M5.12,305a102.83,102.83,0,0,0-3.64,49.43C5,374,21.19,390.75,40.53,395.46c.34.09,84.2,16.27,84.79,16.38a301.35,301.35,0,0,0,95.09,3l84.2-7.39c23.12-1.39,45.94-13.92,51.37-37.25L443.33,7.5A6.07,6.07,0,0,0,438.85.17,6.2,6.2,0,0,0,437.43,0H348.58a6.05,6.05,0,0,0-3.86,1.39L321.23,20.73H171.46L161.36,3.06A6.08,6.08,0,0,0,156.09,0H80.57a6.08,6.08,0,0,0-5.92,4.7ZM85.39,12.15h67.17l10.1,17.67a6.07,6.07,0,0,0,5.27,3.06H323.41a6.05,6.05,0,0,0,3.86-1.39l23.49-19.34h79L344.16,367.44A31.06,31.06,0,0,1,338.8,379a33.39,33.39,0,0,1-6.64,6.58,57.13,57.13,0,0,1-28.41,9.82l-84.52,7.42-.24,0a288.85,288.85,0,0,1-91.37-2.9L43.45,383.67a45.19,45.19,0,0,1-19.27-11,38.19,38.19,0,0,1-8.29-12.56,50.53,50.53,0,0,1-3.21-11.89c-1.83-16.11.23-24.56,4.21-40.17ZM386.9,415.62,485.69,2.32h70.4l-36.48,152.6h20.92L577,2.32h71l-98.79,413.3h-71l46.22-193.35H503.51L457.3,415.62ZM705.57,151.74l13-54.53Q722,83.05,721.1,77.93T715,72.81a10.48,10.48,0,0,0-8.08,3.92q-3.45,3.92-5.25,11.44l-2.16,9-13,54.53ZM678.93,263.19h60.94l-11.37,47.6q-16.71,69.88-33,87.36t-62,17.47q-46.86,0-54.58-18.22t8.64-86.61l48.67-203.64q16.92-70.79,33.56-87.81t62.1-17c30.84,0,47.66,5.17,54,18.07s2.28,41-8.67,86.76L749.74,221.92h-80l-23.76,99.41q-3.31,13.86-2.4,19.28t6.15,5.43q4.43,0,8-4.37t5.5-12.5l1.88-7.84ZM876.78,415.62l74.3-310.88Q953.9,93,953,87.42c-.58-3.71-2.42-5.57-5.5-5.57a11.12,11.12,0,0,0-9.44,5q-3.6,5-6.7,17.92l-74.3,310.88H796.93l74.31-310.88q2.88-12,2.06-17.47t-5.64-5.42a11.06,11.06,0,0,0-9.54,5q-3.5,5-6.59,17.92L777.22,415.62H716.68L814.32,7.14h60.94l-5.19,21.69q11.07-12.66,20.59-18.38A37.22,37.22,0,0,1,910,4.73q11.25,0,18.7,6.33t13,20.78q12.69-13.56,24.77-20.33t23.34-6.78q24.14,0,29.32,23.35T1011.34,106l-2.81,11.75L937.32,415.62Zm73.77,0L1048.19,7.14h60.94l-97.64,408.48ZM402.41,403.38h45.23L493.86,210h46.08L493.73,403.38h45.82L632.49,14.56H586.66l-36.47,152.6H504.1l36.48-152.6H495.35Zm272.71-71.59a43.5,43.5,0,0,1-7.52,17c-6.55,9.08-20.11,12.93-29.43,5.65-10.83-8.45-6.65-24.66-4.19-35.78l26-109h80.05l25.2-105.43C769.7,86,777,54.67,776.56,34.94a26.67,26.67,0,0,0-1.84-9.42c-2-4.35-9.07-7.32-14-8.36-17.12-3.64-40-3.2-57.25-.31-7.9,1.32-19.11,4.9-24.89,10.94a58.61,58.61,0,0,0-9.89,16.14q-4.56,10.68-8.31,21.68Q653.31,87.53,648.1,110L599.4,313.68c-3.8,15.78-9,39.79-10.34,57.4-.41,5.25-1.09,16.34,1.15,21.65,1.68,4,9.81,7,14.37,8a126.89,126.89,0,0,0,28.63,2.69c14.75-.16,41.93-1.24,53.2-13.5a61.67,61.67,0,0,0,9.77-16.28q4.5-10.61,8.2-21.54c7.52-22.78,14.26-52.68,20-76.63H688.59ZM689.7,85.57a38.68,38.68,0,0,1,7.62-16.45C703.9,60.83,717,57.52,726,63.94c11.53,8.21,7,24.72,4.56,35.93L715.23,164H671Zm316.49-16.24c4.14-28.38,2.37-43.22-4.24-48.91-7.19-6.2-21.08-3.12-29.12,1.58-15.06,8.82-24.11,20.42-35.39,33l-7.12-18.79a66.09,66.09,0,0,0-4.1-8.78,27.94,27.94,0,0,0-5.49-7.07c-6-5.16-16.82-3.75-23.51.45a79.58,79.58,0,0,0-17.71,15.85c-2.37,2.86-14.16,16.07-14.16,16.07H852.19l7.56-33.32H824l-91.79,384h35.37l72.11-301.69L842.06,93c3.76-13.39,11.76-23.39,25.55-23.42,9.84,0,16.88,6.94,17.88,16.57V86c.77,7.52-.7,14.12-2.28,21.35l-70.76,296h35l72.11-301.7c3.82-14.8,9-31.9,27.85-32.07,9.72-.1,16.87,7.12,17.82,16.55.78,7.78-.53,13.74-2.14,21.18l-70.76,296h35.37l71.78-300.33Q1003.52,86.34,1006.19,69.33ZM966.06,403.38h35.78l91.78-384h-35.77ZM75.54,371,92.62,313.4l-56.55-9.49L40.71,280,109,135.51h56.47L124.14,292.73l10.57,1.81-7.16,26.2-9.14-2.36-15.73,58ZM174.4,186.27q9.24-35,19.16-43.65T232.3,134q29.37,0,34.54,9.16t-3.79,43.13L224.06,334q-9.08,34.41-19,43.35t-39.15,8.94q-29.58,0-34.54-9.17t4-43.12ZM62.58,283l36.26,6.27,42.28-139.92H124.84Zm109.85,90.21A16.86,16.86,0,0,0,185,366.77a30.09,30.09,0,0,0,6-12.25l46.35-175.71,1.92-9.23c2.12-11.68-4.17-21.69-14.09-21.14-9.37.52-15.81,8.54-18.33,18.66l-47.6,181C156.31,359.86,159.74,373.88,172.43,373.18ZM277.9,365.5a16.84,16.84,0,0,0,12.48-6.2,28.33,28.33,0,0,0,5.86-11.83l44.47-169.7,1.82-8.91c2-11.29-4.41-21-14.32-20.42-9.37.5-15.72,8.25-18.13,18L264.42,341.32C261.63,352.63,265.22,366.17,277.9,365.5Zm-.45-179.23q9.24-35,19.16-43.65T335.35,134q29.37,0,34.55,9.16t-3.79,43.13L329.38,325.9q-9.08,34.41-19,43.34c-6.6,6-14.6,8-39.6,11.66-19.53,2.82-33.05,2.37-36.35-3.74s-2-20.48,4-43.12ZM76.57,122.2H386.62L409.07,29H356.48l-19,15.65a22.21,22.21,0,0,1-14.15,5.08H167.84A22.28,22.28,0,0,1,148.5,38.48L143.07,29H98.17ZM269.94,76.42h34.84l-8,31.72h34.48l8-31.72h35.17L377.06,66H272.23v0L205.75,106l-10.58-10a21.19,21.19,0,0,0-4-2.61,27,27,0,0,0-4.7-2.22,57.91,57.91,0,0,0-8.19-1.55,94.84,94.84,0,0,0,12-1.67,41.06,41.06,0,0,0,11.44-4.12q4.42-2.54,5.31-6.05,1-4-3.23-6.82t-12-3.83a190.05,190.05,0,0,0-23.08-1H113.83l-10.62,42.12h33.08L140.6,91h2.9a27.9,27.9,0,0,1,7.83,1,13.93,13.93,0,0,1,5.14,3.25l14.36,12.87h45.92ZM142.6,83.09l2.16-8.56h14.47q9,0,12,1.09c2,.72,2.82,1.77,2.48,3.13-.23.92-1.13,1.73-2.69,2.44a16.77,16.77,0,0,1-5.67,1.32c-4.41.38-7.37.58-8.87.58Z"/></g></g></svg>