<svg xmlns="http://www.w3.org/2000/svg" viewBox="0 0 914.21 377.09"><defs><style>.cls-1{fill:#121212;fill-rule:evenodd;}</style></defs><title>RT-Logo-Outline</title><g id="Layer_2" data-name="Layer 2"><g id="Layer_1-2" data-name="Layer 1"><path class="cls-1" d="M117.35,188.91a12.88,12.88,0,0,0,10.51-5.26L167.94,130h35.14l34.25,45.57a32.12,32.12,0,0,0,26.38,13.18h108.9a12.87,12.87,0,0,0,10.62-5.43L396,165.7A9.89,9.89,0,0,0,388,150H350.61a8,8,0,0,1-6.68-3.39L331.77,130h27.92a47.26,47.26,0,0,0,38.86-19.37l42.83-56.88C446,46.67,450,38,447.52,29.28a25.3,25.3,0,0,0-25.16-17.16L129,11.65a12.88,12.88,0,0,0-10.52,5.27L2,173a9.89,9.89,0,0,0,7.91,15.81ZM221.94,58.15h88a5.62,5.62,0,0,1,4.49,9l-8.7,11.64a13.7,13.7,0,0,1-11.28,5.67l-92.38.17ZM645.57,0a12,12,0,0,0-8.15,3.09L235.17,359.69a10,10,0,0,0,6.6,17.4h45.44a12,12,0,0,0,8.15-3.09L697.61,17.4A10,10,0,0,0,691,0ZM549,197.31l-25.62,34.24a10.08,10.08,0,0,0,8.07,16.12H641.27l-74.59,100a10.07,10.07,0,0,0,8.08,16.1H681.62a12.89,12.89,0,0,0,10.55-5.29l82.62-110.81H875.64a12.91,12.91,0,0,0,10.48-5.21l26-34.26a10.07,10.07,0,0,0-8-16.17H559.56A12.89,12.89,0,0,0,549,197.31ZM9.89,180.87l107.52.12a4.94,4.94,0,0,0,4.08-2l41-54.78a5,5,0,0,1,4.08-2h38a4.91,4.91,0,0,1,4.07,2L243.7,170.9a24.18,24.18,0,0,0,19.95,10h109a5,5,0,0,0,4.13-2.11l12.8-17.7a2,2,0,0,0-1.61-3.14H350.74a15.94,15.94,0,0,1-13.27-6.72l-19-25.93a2,2,0,0,1,1.59-3.14h39.71A39.37,39.37,0,0,0,392.19,106l42.53-56.47C447.88,31.26,435.46,20,422.56,20l-293.62-.47a4.94,4.94,0,0,0-4.09,2.05L8.31,177.72A2,2,0,0,0,9.89,180.87ZM216.45,52.27a5,5,0,0,1,4.07-2H310A13.53,13.53,0,0,1,320.8,71.87l-8.63,11.55a21.58,21.58,0,0,1-17.81,8.94l-104.17.2a2,2,0,0,1-1.58-3.16ZM555.38,202,529.73,236.3a2.16,2.16,0,0,0,1.73,3.45H652.75a2.22,2.22,0,0,1,1.73,3.45L573,352.4a2.16,2.16,0,0,0,1.73,3.45h106.9a5,5,0,0,0,4.14-2.08l83.48-111.95a5,5,0,0,1,4.13-2.07H875.69a5,5,0,0,0,4.1-2l26.07-34.3a2.16,2.16,0,0,0-1.72-3.47H559.51A5,5,0,0,0,555.38,202ZM691,7.92H645.52A4.09,4.09,0,0,0,642.7,9L240.42,365.62a2,2,0,0,0,1.35,3.55h45.49a4.09,4.09,0,0,0,2.82-1.07L692.36,11.47A2,2,0,0,0,691,7.92Z"/></g></g></svg>