<svg xmlns="http://www.w3.org/2000/svg" viewBox="0 0 1871.18 262.68"><defs><style>.cls-1{fill:#121212;fill-rule:evenodd;}</style></defs><title>SRT-8-Logo</title><g id="Layer_2" data-name="Layer 2"><g id="Layer_1-2" data-name="Layer 1"><path class="cls-1" d="M1718,110.69l-21.59,27.92H1594l21.59-27.92ZM1772.29,43,1753,68H1650.62L1669.9,43ZM1679.66,0C1610,0,1590,30.52,1585.76,36l-19.3,24.94c-21.21,27.44,6.83,29.57,9.69,30.9-2.68.75-37.16,4.63-55.06,27.78l-16.88,21.82c-25.42,32.87-5.25,42.71,54.74,42.71h132.1c42.31,0,70.67-13.79,89.71-38.41l19.36-25c17.16-22.19-10-28-12.61-29.31,5.34-1.88,38.15-5.25,57.85-30.72l19.18-24.8C1888.28,5.17,1842.1,0,1824.17,0Z"/><path class="cls-1" d="M1136.47,164.27c5.08-6.48,9.82-12.65,12.59-16.24,23.15-29.87,75.7-97.56,76.14-98.13s1.23-1.43,1.67-2a3.24,3.24,0,0,1,2.47-1.25h121.33c3.64,0,7.24-2.21,10-5,2.91-3,22.83-29,24.24-30.86a6.28,6.28,0,0,0,1-6.36,4.57,4.57,0,0,0-4.64-2.93h-379c-4.47,0-5.07-.12-8,3.59,0,0-25,32.31-25.24,32.56a5.66,5.66,0,0,0-.94,5.78c.77,2,2.59,3.25,3.72,3.25l145.15-.1c1.62,0,1.88.59,2.26,1.28a2.86,2.86,0,0,1-.21,2.29c-2.61,3.26-92.43,118.27-92.43,118.27a7.32,7.32,0,0,0-.71,6.94,4.28,4.28,0,0,0,3.67,2.45l81.89-.07c7.93.14,11.88-1,15.56-3.37C1129.44,172.81,1132.47,169.39,1136.47,164.27Z"/><path class="cls-1" d="M546.94,177.76c16.81,0,24.66-9.32,32.78-19.5,8.76-11,74.47-96.2,74.47-96.2,10.46-13.48,20.51-16.21,36.13-16.21H804c10.23,0,15.26.68,17,5.69,1.22,3.48-.09,7.23-4.44,13.62a226.72,226.72,0,0,1-15.69,20.22,71,71,0,0,1-27.35,19.7c-12.86,5-30.53,5.26-33.93,5.26l-89.52-.08c-3.06,0-5.84,4.92-2.8,8.84l95.17,128.73c1.46,2,12.31,14.85,25.5,14.85,12.3,0,62.36-.07,69.72-.07h4.16c3.9,0,4.88-6.06,2.37-9.31-.19-.25-1.82-2.47-2.1-2.81-8-10.74-73.6-96.52-74-97-.9-1.16-1.95-2.42-1.7-3.47a1.74,1.74,0,0,1,1.7-1.42l25.6,0c10.66,0,30.42-2,42.3-6.53,23.53-9,33.49-18.57,42.39-27.63,5.22-5.31,11.39-12.2,30-34.57,10.92-13,25.56-34.78,28.19-40.16,2.38-4.89,5.91-13.38,3.77-21.22C938,9.46,931.34,1,905.92.89c-14.83,0-291.35.17-291.35.17-11.54,0-20.31,3-28.49,12.1a210.55,210.55,0,0,0-13.37,16.57C569.1,34.67,466,167.11,465.65,167.62c-.69,1-2.33,3.87-1.68,6.44.72,2.91,2.79,3.72,4.21,3.72Z"/><path class="cls-1" d="M396.55,83.5c-3.21-1-131.95-38.77-131.95-38.77a3.27,3.27,0,0,1-2.48-2.85c0-1.73,1.93-3.15,4.31-3.15l227.19-.14c7.38,0,12.75-1.72,17.81-7.76,4.71-5.61,11.66-14.32,15.1-18.53,4.92-6,6.38-7.73,5.7-10s-4.88-1.8-9-1.8L188.09.38C151.52.38,121.88,22,121.88,48.74c0,18.81,16.14,38,37.48,46.48,5.3,2.11,10.84,4.24,10.84,4.24s100.85,30.13,107.16,32.1c1.61.49,2.73,1.62,2.73,3,0,1.79-1.67,3.22-5.32,3.22l-237-.14c-7.38,0-12.58,2-17.82,7.76-2.82,3.12-6,7-8.42,10.42,0,0-6.35,8-9.34,11.64C2,167.64-1,171.12.38,174.72c1.33,3.33,3.5,3,5.1,3H371.42c36.95,0,66.9-21.87,66.9-48.86,0-20.48-17.2-38-41.6-45.26Z"/><path class="cls-1" d="M1505.42,77.12H1386.71A9.08,9.08,0,0,0,1380.6,80l-24.08,28.7c-1.32,1.57-.72,2.85,1.33,2.85h118.71a9.06,9.06,0,0,0,6.11-2.85L1506.75,80C1508.07,78.4,1507.48,77.12,1505.42,77.12Z"/></g></g></svg>