<svg xmlns="http://www.w3.org/2000/svg" viewBox="0 0 3024 432"><defs><style>.cls-1{fill:#121212;}</style></defs><title>SRT-Logo</title><g id="Layer_2"><g id="Layer_1-2"><path class="cls-1" d="M-6086.74-7643.38c11.08-10.67,21.41-20.81,27.46-26.71,50.48-49.13,165.12-160.45,166.07-161.39,1.12-1.18,2.69-2.34,3.64-3.28a8,8,0,0,1,5.38-2h264.67c7.93,0,15.8-3.64,21.74-8.29,6.35-5,49.81-47.75,52.87-50.74,1.7-1.63,4.88-5.73,2.13-10.47-2.27-4-6.43-4.81-10.13-4.81h-826.6c-9.77,0-11.08-.2-17.42,5.9,0,0-54.61,53.14-55.06,53.55s-4.84,4.11-2,9.51c1.68,3.26,5.65,5.35,8.11,5.35l316.62-.18c3.53,0,4.09,1,4.91,2.11,0,0,1,2.35-.45,3.77-5.68,5.35-201.61,194.51-201.61,194.51-3.26,3.85-3.53,8.37-1.55,11.41a9.66,9.66,0,0,0,8,4l178.62-.11c17.28.22,25.91-1.67,33.94-5.55C-6102.09-7629.34-6095.47-7635-6086.74-7643.38Z" transform="translate(8565.7 7913.54)"/><path class="cls-1" d="M-7372.68-7621.21c36.68,0,53.78-15.32,71.5-32.07,19.1-18.09,162.45-158.2,162.45-158.2,22.82-22.17,44.73-26.66,78.81-26.66h248c22.32,0,33.3,1.12,37.12,9.37,2.66,5.72-.21,11.87-9.7,22.39a407.36,407.36,0,0,1-34.23,33.25,160.55,160.55,0,0,1-59.65,32.4c-28,8.21-66.6,8.65-74,8.65l-195.27-.12c-6.66,0-12.74,8.07-6.09,14.52L-6946.15-7506c3.17,3.31,26.84,24.43,55.62,24.43,26.83,0,136-.12,152.09-.12h9.07c8.49,0,10.64-10,5.16-15.31-.41-.42-4-4.06-4.58-4.62-17.38-17.67-160.55-158.74-161.32-159.49-2-1.92-4.25-4-3.72-5.7.59-1.93,2.69-2.34,3.72-2.34l55.84,0c23.26,0,66.35-3.29,92.27-10.75,51.33-14.75,73-30.54,92.46-45.43,11.38-8.74,24.84-20.06,65.56-56.86,23.8-21.46,55.75-57.19,61.47-66,5.21-8.05,12.89-22,8.23-34.9-5.43-14.91-19.91-28.9-75.36-29-32.35-.07-39.46-.33-92.27-.64-87.13-.52-210.56-.83-253.35-.83-68.78,0-289.9,1.75-289.9,1.75-25.18,0-44.3,5-62.13,19.88a384.38,384.38,0,0,0-29.17,27.27c-7.89,8.11-232.73,225.92-233.52,226.76-1.52,1.71-5.09,6.36-3.67,10.58,1.55,4.79,6.07,6.12,9.17,6.12Z" transform="translate(8565.7 7913.54)"/><path class="cls-1" d="M-7700.72-7776.22c-7-1.73-287.82-63.76-287.82-63.76-3.19-.83-5.4-2.63-5.4-4.69,0-2.85,4.21-5.19,9.39-5.19l495.57-.22c16.1,0,27.8-2.83,38.86-12.76,10.26-9.22,25.43-23.54,32.92-30.48,10.74-9.86,13.92-12.7,12.45-16.48s-10.66-2.95-19.63-2.95l-731-.17c-79.77,0-144.42,35.62-144.42,79.53,0,30.94,35.2,62.42,81.73,76.45,11.58,3.46,23.65,7,23.65,7s220,49.55,233.75,52.79c3.51.81,6,2.67,6,4.89,0,2.95-3.65,5.3-11.62,5.3l-517-.23c-16.11,0-27.44,3.27-38.87,12.77a248.59,248.59,0,0,0-18.37,17.13s-13.84,13.21-20.37,19.13c-.35.36-7,6.08-3.9,12,2.91,5.48,7.62,4.94,11.12,4.94h798.22c80.59,0,145.93-36,145.93-80.37,0-33.67-37.53-62.47-90.74-74.43Z" transform="translate(8565.7 7913.54)"/></g></g></svg>