<svg xmlns="http://www.w3.org/2000/svg" viewBox="0 0 428.18 51.34"><defs><style>.cls-1{fill-rule:evenodd;}</style></defs><title>Super Bee Lettering</title><g id="Layer_2" data-name="Layer 2"><g id="Layer_1-2" data-name="Layer 1"><path d="M-21493.5-3189.47c-3.19-4.81-9.23-8.3-16.4-9.48a14.72,14.72,0,0,1-8.3-4.58,2.54,2.54,0,0,1-.09-2.84,4.52,4.52,0,0,1,3-1.88,11,11,0,0,1,8.17-.23c2.59,1,4.26,2.89,4.39,5q.33,1.36.54,2.76a2.17,2.17,0,0,0,1.32,1.53,5.72,5.72,0,0,0,4.82-.68c5-3.95,7.22-9.33,6.07-14.62a7.79,7.79,0,0,0-3.89-5.05,3.56,3.56,0,0,0-3-.07q-2.37,1-4.86,1.79a25.5,25.5,0,0,1-6.76-.06,49.43,49.43,0,0,0-26.09,4.59c-4.61,2.67-6.78,7-5.66,11.17s5.38,7.59,11,8.82q7,1.86,13.76,4.12c2.6.8,4,2.85,3.35,4.83s-3.19,3.35-6,3.22a7.3,7.3,0,0,1-4.92-.8,2.22,2.22,0,0,1-1.07-2.42,2.13,2.13,0,0,1,.93-.78c.9-.37,1.78-.76,2.65-1.17a2.67,2.67,0,0,0,1-.77.8.8,0,0,0-.37-1.18,5,5,0,0,0-2.6-.81c-6.84-1.34-14.12.51-18.33,4.64a7.89,7.89,0,0,0,.23,9.82c2.36,3,6.68,5,11.47,5.22,12.87,2.57,26.58-1.09,34.06-9.1a11.11,11.11,0,0,0,1.57-11Z" transform="translate(21542.43 3219.89)"/><path d="M-21456.8-3171.5a46.41,46.41,0,0,0,7.69-1.28,2.46,2.46,0,0,0,1.72-2.72,67.65,67.65,0,0,1,6.32-35.79,19.9,19.9,0,0,1,2.75-3.39,2.55,2.55,0,0,0,1-1.72,2.58,2.58,0,0,0-.56-1.89,6.33,6.33,0,0,0-3.91-1.31,38.18,38.18,0,0,0-18.68,3.58,5,5,0,0,0-1.27,1.15,1.64,1.64,0,0,0,.15,2.13,22.81,22.81,0,0,1,3.14,3.45,10.87,10.87,0,0,1,.4,6.94,30.92,30.92,0,0,1-5.61,16.08,5.44,5.44,0,0,1-5.17,1.87,3.44,3.44,0,0,1-2.23-4q2.88-9.95,5.54-19.95a18.59,18.59,0,0,0,.21-7.05,4.92,4.92,0,0,0-4.47-3.41,22.11,22.11,0,0,0-15.54,3.46,2.87,2.87,0,0,0-1,1.5,1.73,1.73,0,0,0,.59,1.53q1.83,1.28,3.75,2.39a4.24,4.24,0,0,1,1.06,5.57,86.29,86.29,0,0,0-8.21,19,15.75,15.75,0,0,0,1.61,13.73,13,13,0,0,0,15.69,0c1.4-.79,2.79-1.6,4.18-2.41l.5-.15a.55.55,0,0,1,.61.36,2,2,0,0,1,.09,1c-.17.72-.35,1.44-.56,2.16a2.59,2.59,0,0,0-.08,1.14l.12.41a.92.92,0,0,0,.78.31,14.69,14.69,0,0,0,4.45-1.2c1.63-.58,3.29-1.09,5-1.52Z" transform="translate(21542.43 3219.89)"/><path class="cls-1" d="M-21416.86-3198a2.67,2.67,0,0,0,1.5,3.28,3.47,3.47,0,0,0,4-.67,16.58,16.58,0,0,0,5.29-13.42,2.58,2.58,0,0,0-2.09-1.87,2.92,2.92,0,0,0-2.78.93,24.57,24.57,0,0,0-5.87,11.75Zm9.21,11.75c7-1.32,12.76-5.74,15.19-11.69a13.25,13.25,0,0,0-1.51-17.2,26.52,26.52,0,0,0-19.48-4.18,65,65,0,0,0-20.35,3.18,4,4,0,0,0-1.64,1.44,1.24,1.24,0,0,0,.36,1.51l2.05,1.67a10,10,0,0,1,2,9.53,55.09,55.09,0,0,1-10.26,26.37,24.35,24.35,0,0,0-1.25,2.76,1.9,1.9,0,0,0,.21,1.73,2,2,0,0,0,1.63.73,43.83,43.83,0,0,1,10,0,60.66,60.66,0,0,0,17.27,1.53,4.71,4.71,0,0,0,3.51-2.21,2,2,0,0,0-.74-2.28,16.58,16.58,0,0,0-2.76-1.8c-4.39-2.7-6.35-7.56-4.88-12.1a1.52,1.52,0,0,1,.89-.85,1.88,1.88,0,0,1,1.32,0c1,.36,1.94.73,2.9,1.12a11.88,11.88,0,0,0,5.58.75Z" transform="translate(21542.43 3219.89)"/><path class="cls-1" d="M-21348.11-3195a2.66,2.66,0,0,0-1.45,1.05,45.66,45.66,0,0,1-5.36,8.65,18.44,18.44,0,0,1-16.36,3.38,5.47,5.47,0,0,1-2.62-6.34,6.74,6.74,0,0,1,6-4.33,2.72,2.72,0,0,1,2.86,2.47c.08,1.25.16,2.49.22,3.74a1.91,1.91,0,0,0,1.08,1.54,4.32,4.32,0,0,0,4-.86c6-4.85,7-12.65,2.45-18.5a4.36,4.36,0,0,0-3.48-1.62,1.83,1.83,0,0,0-1.63.9,7.68,7.68,0,0,0-.79,2.5,6.45,6.45,0,0,1-1.73,3.51,3.07,3.07,0,0,1-2.53.77,2.77,2.77,0,0,1-2.12-1.41,6.18,6.18,0,0,1,1.49-8.23,9.23,9.23,0,0,1,9.7-1.08,15.19,15.19,0,0,1,5.32,5.08,4.29,4.29,0,0,0,1.44,1.4,1.44,1.44,0,0,0,1.08,0,5.25,5.25,0,0,0,2.81-3.2,26.08,26.08,0,0,0,1.39-7.06c-.89-3.87-4.92-6.64-9.56-6.56a92,92,0,0,0-32.24,2.39,4.71,4.71,0,0,0-1.42.8,1.23,1.23,0,0,0-.44.86,3.32,3.32,0,0,0,1.26,2.41,13.7,13.7,0,0,1,2.6,14.31,79.3,79.3,0,0,1-10.75,25.24,2.06,2.06,0,0,0-.05,1.81,1.7,1.7,0,0,0,1,.72,9.21,9.21,0,0,0,3,.24q16.75.35,33.45,1.64c7.76-1.16,13.63-6.62,14.3-13.3a18.92,18.92,0,0,0-.2-11.22l-.7-1.24-.48-.25a3.73,3.73,0,0,0-1-.31,1.25,1.25,0,0,0-.61.06Z" transform="translate(21542.43 3219.89)"/><path class="cls-1" d="M-21318.42-3197.6a5.16,5.16,0,0,0,5.4-3.09,11.36,11.36,0,0,0,1.25-8.26,2.46,2.46,0,0,0-1.67-1.42,2.53,2.53,0,0,0-2.16.48,15.12,15.12,0,0,0-4.36,10.51,2.19,2.19,0,0,0,1.54,1.78Zm16.67,5.8a27.72,27.72,0,0,0-2.67-3.16,1.74,1.74,0,0,1-.36-.75.4.4,0,0,1,.13-.38,3.24,3.24,0,0,1,1-.46,12.74,12.74,0,0,0,10.26-9,9.73,9.73,0,0,0-1.3-8.23,10.3,10.3,0,0,0-7.26-4.4,61.75,61.75,0,0,0-34.12,2.08,4.3,4.3,0,0,0-2.28,2.18,2,2,0,0,0,.69,2.16c1.06.84,2.09,1.7,3.1,2.59a10.08,10.08,0,0,1,1,8.52,57.44,57.44,0,0,1-11.87,26.84,1.72,1.72,0,0,0-.19,1.48,1.61,1.61,0,0,0,.76.72,23.69,23.69,0,0,0,12.74.62q4.71-1.27,9.51-2.11a1.55,1.55,0,0,0,1.22-1.66c-.29-2.1-.61-4.21-1-6.31a22.2,22.2,0,0,1,.72-8.5,2.81,2.81,0,0,1,2.06-1.76,1.18,1.18,0,0,1,.89.36,2.37,2.37,0,0,1,.85,1.4q-.09,5.74-.53,11.46a11.66,11.66,0,0,0,7.2,8.51,12.18,12.18,0,0,0,11.26-1.24,9.68,9.68,0,0,0,5.67-7,1.77,1.77,0,0,0-.49-1.54,14.12,14.12,0,0,0-1.29-.82,4,4,0,0,1-2.4-2.94,22.78,22.78,0,0,0-3.38-8.66Z" transform="translate(21542.43 3219.89)"/><path class="cls-1" d="M-21168.85-3195a2.63,2.63,0,0,0-1.45,1.05,45.71,45.71,0,0,1-5.37,8.65,18.42,18.42,0,0,1-16.35,3.38,5.47,5.47,0,0,1-2.62-6.34,6.72,6.72,0,0,1,6-4.33,2.72,2.72,0,0,1,2.87,2.47c.08,1.25.16,2.49.22,3.74a1.89,1.89,0,0,0,1.08,1.54,4.32,4.32,0,0,0,4-.86c6-4.85,7-12.65,2.45-18.5a4.38,4.38,0,0,0-3.48-1.62,1.8,1.8,0,0,0-1.63.9,7.68,7.68,0,0,0-.79,2.5,6.45,6.45,0,0,1-1.73,3.51,3.07,3.07,0,0,1-2.53.77,2.73,2.73,0,0,1-2.12-1.41,6.19,6.19,0,0,1,1.48-8.23,9.23,9.23,0,0,1,9.7-1.08,15.22,15.22,0,0,1,5.33,5.08,4.12,4.12,0,0,0,1.44,1.4,1.44,1.44,0,0,0,1.08,0,5.25,5.25,0,0,0,2.81-3.2,26.08,26.08,0,0,0,1.39-7.06c-.89-3.87-4.92-6.64-9.56-6.56a92,92,0,0,0-32.24,2.39,4.88,4.88,0,0,0-1.43.8,1.22,1.22,0,0,0-.43.86,3.32,3.32,0,0,0,1.26,2.41,13.7,13.7,0,0,1,2.6,14.31,79.1,79.1,0,0,1-10.76,25.24,2.05,2.05,0,0,0,0,1.81,1.7,1.7,0,0,0,1,.72,9.19,9.19,0,0,0,3,.24q16.74.35,33.45,1.64c7.76-1.16,13.63-6.62,14.3-13.3a18.92,18.92,0,0,0-.2-11.22l-.7-1.24-.48-.25a3.68,3.68,0,0,0-1-.31,1.22,1.22,0,0,0-.6.06Z" transform="translate(21542.43 3219.89)"/><path class="cls-1" d="M-21118-3195a2.66,2.66,0,0,0-1.45,1.05,45.66,45.66,0,0,1-5.36,8.65,18.44,18.44,0,0,1-16.36,3.38,5.47,5.47,0,0,1-2.62-6.34,6.74,6.74,0,0,1,6-4.33,2.72,2.72,0,0,1,2.86,2.47c.08,1.25.16,2.49.23,3.74a1.87,1.87,0,0,0,1.07,1.54,4.32,4.32,0,0,0,4-.86c6-4.85,7-12.65,2.45-18.5a4.36,4.36,0,0,0-3.48-1.62,1.83,1.83,0,0,0-1.63.9,7.68,7.68,0,0,0-.79,2.5,6.45,6.45,0,0,1-1.73,3.51,3.07,3.07,0,0,1-2.53.77,2.77,2.77,0,0,1-2.12-1.41,6.18,6.18,0,0,1,1.49-8.23,9.23,9.23,0,0,1,9.7-1.08,15.19,15.19,0,0,1,5.32,5.08,4.29,4.29,0,0,0,1.44,1.4,1.44,1.44,0,0,0,1.08,0,5.25,5.25,0,0,0,2.81-3.2,26.08,26.08,0,0,0,1.39-7.06c-.89-3.87-4.92-6.64-9.56-6.56a92,92,0,0,0-32.24,2.39,4.71,4.71,0,0,0-1.42.8,1.23,1.23,0,0,0-.44.86,3.32,3.32,0,0,0,1.26,2.41,13.7,13.7,0,0,1,2.6,14.31,79.3,79.3,0,0,1-10.75,25.24,2.06,2.06,0,0,0,0,1.81,1.7,1.7,0,0,0,1,.72,9.21,9.21,0,0,0,3,.24q16.75.35,33.45,1.64c7.76-1.16,13.63-6.62,14.3-13.3a18.92,18.92,0,0,0-.2-11.22l-.7-1.24-.48-.25a3.73,3.73,0,0,0-1-.31,1.25,1.25,0,0,0-.61.06Z" transform="translate(21542.43 3219.89)"/><path class="cls-1" d="M-21239.32-3180.85a7.8,7.8,0,0,0,5.34-4.4,6.43,6.43,0,0,0-.83-6.39,4.81,4.81,0,0,0-3.41-1.21,4.74,4.74,0,0,0-3.29,1.45,8.35,8.35,0,0,0-1.79,9.69,3.57,3.57,0,0,0,4,.86Zm4.32-20.64a7.92,7.92,0,0,0,3.29-8.39,3.76,3.76,0,0,0-3.27-1.87,3.85,3.85,0,0,0-3.36,1.74,12,12,0,0,0-1.87,6.8,2.63,2.63,0,0,0,2.65,2.62,4.61,4.61,0,0,0,2.56-.9Zm13.26,7.81c-1.29-.67-2.59-1.31-3.92-1.93l-.43-.36a.52.52,0,0,1,0-.72,3.86,3.86,0,0,1,1.09-.73,11.74,11.74,0,0,0,7.07-7.32,10.12,10.12,0,0,0-2-9.44,26.76,26.76,0,0,0-17.14-5.37,53.56,53.56,0,0,0-23.08,3.5,1.9,1.9,0,0,0-1.12,1.22,1.68,1.68,0,0,0,.34,1.54q1.6,1.68,3.38,3.23a3.73,3.73,0,0,1,1.16,3A76.31,76.31,0,0,1-21268-3171a1.18,1.18,0,0,0-.06.9,1,1,0,0,0,.67.52,8,8,0,0,0,2.35.14q14.64-.18,29.26.64c9.93.25,18.56-6,20.27-14.57.61-4.24-1.86-8.38-6.19-10.33Z" transform="translate(21542.43 3219.89)"/></g></g></svg>