<svg xmlns="http://www.w3.org/2000/svg" viewBox="0 0 2245.14 216"><defs><style>.cls-1{fill:#121212;}</style></defs><title>5_7L-HEMI</title><g id="Layer_2" data-name="Layer 2"><g id="Layer_1-2" data-name="Layer 1"><path class="cls-1" d="M-25086.38-5815.92h250.49l-20.79,57.14h-162.87l-11.18,30.71h132.33q22.77,4.31,30.28,20.15a41.16,41.16,0,0,1,3.78,10.9q.75,4.62-1.65,11.23l-14.31,39.3q-5.88,16.18-25.3,29.4a108.26,108.26,0,0,1-24.16,12.88,73.67,73.67,0,0,1-25.46,4.29H-25165l20.8-57.14h174.81l9.14-25.1h-174.82Z" transform="translate(25165 5815.92)"/><polygon class="cls-1" points="373.97 216 289.44 216 308.31 164.15 392.4 164.15 373.97 216"/><polygon class="cls-1" points="476.49 0 742.91 0 722.12 57.14 559.85 216 461.6 216 630.5 57.14 455.69 57.14 476.49 0"/><polygon class="cls-1" points="692.18 216 770.79 0 864.62 0 806.8 158.86 953.73 158.86 932.93 216 692.18 216"/><polygon class="cls-1" points="1487.47 0 1408.85 216 1321.22 216 1353.08 128.48 1243.32 128.48 1211.46 216 1123.83 216 1202.45 0 1290.08 0 1260.27 81.91 1370.03 81.91 1399.84 0 1487.47 0"/><polygon class="cls-1" points="1514.9 0 1764.96 0 1744.16 57.14 1581.74 57.14 1571.52 85.21 1733.94 85.21 1717.35 130.79 1554.93 130.79 1544.71 158.86 1707.14 158.86 1686.34 216 1436.29 216 1514.9 0"/><polygon class="cls-1" points="1914.1 0 1907.56 145.65 2006.6 0 2129.19 0 2050.57 216 1962.94 216 2018 64.73 1907.18 216 1854.96 216 1856.02 64.73 1800.96 216 1713.34 216 1791.95 0 1914.1 0"/><polygon class="cls-1" points="2157.51 0 2245.14 0 2166.53 216 2078.9 216 2157.51 0"/></g></g></svg>