<svg xmlns="http://www.w3.org/2000/svg" viewBox="0 0 461.06 162.56"><defs><style>.cls-1,.cls-2{fill:#121212;}.cls-2{fill-rule:evenodd;}</style></defs><title>Jeep-Logo</title><g id="Layer_2" data-name="Layer 2"><g id="Layer_1-2" data-name="Layer 1"><path class="cls-1" d="M63,0h39.47V69.24q0,21.8-3.87,33.18T83.06,121.71q-11.69,7.91-29.95,7.9-19.29,0-29.9-5.21A37.7,37.7,0,0,1,6.82,109.14Q1,99.11,0,84.32l37.64-5.13q.09,8.44,1.48,12.52a13.63,13.63,0,0,0,4.69,6.61A10.79,10.79,0,0,0,50.25,100q6.6,0,9.69-4.91T63,78.52Z"/><path class="cls-2" d="M224.26,90.06H153.32q1,8.52,4.61,12.69a16.77,16.77,0,0,0,13.39,6,20.09,20.09,0,0,0,9.91-2.61,23.3,23.3,0,0,0,6.17-5.82l34.86,3.21q-8,13.92-19.3,20t-32.42,6q-18.34,0-28.87-5.18t-17.42-16.43q-6.91-11.25-6.92-26.47,0-21.65,13.87-35T169.49,33q19.83,0,31.3,6a40.52,40.52,0,0,1,17.47,17.39q6,11.39,6,29.64Zm-36-17q-1.05-10.26-5.52-14.69T171,54a16,16,0,0,0-13.47,6.7q-3.23,4.17-4.09,12.43Z"/><path class="cls-2" d="M343,90.06H272.07q1,8.52,4.61,12.69a16.77,16.77,0,0,0,13.39,6,20.12,20.12,0,0,0,9.91-2.61,23.3,23.3,0,0,0,6.17-5.82L341,103.53q-8,13.92-19.3,20t-32.43,6q-18.34,0-28.86-5.18T243,107.92q-6.9-11.25-6.91-26.47,0-21.65,13.87-35T288.24,33q19.81,0,31.29,6A40.55,40.55,0,0,1,337,56.42q6,11.39,6,29.64Zm-36-17q-1-10.26-5.52-14.69T289.72,54a16,16,0,0,0-13.48,6.7q-3.21,4.17-4.08,12.43Z"/><path class="cls-2" d="M359.44,162.56V35.12h33.12V48.77q6.85-8.61,12.6-11.65A36.17,36.17,0,0,1,422.29,33q18.51,0,28.64,14.17t10.13,35q0,23-11,35.16t-27.91,12.13a38.63,38.63,0,0,1-14.91-2.79,35.49,35.49,0,0,1-12-8.25v44.07Zm35.46-81q0,11,4.61,16.26a14.79,14.79,0,0,0,11.65,5.3A12.88,12.88,0,0,0,421.5,98q4.19-5.08,4.18-17.25,0-11.22-4.35-16.48A13.3,13.3,0,0,0,410.72,59a14.24,14.24,0,0,0-11.3,5.3Q394.91,69.63,394.9,81.54Z"/></g></g></svg>