<svg xmlns="http://www.w3.org/2000/svg" viewBox="0 0 2626.23 86.4"><defs><style>.cls-1,.cls-2{fill:#121212;}.cls-2{fill-rule:evenodd;}</style></defs><title>SUPERCHARGED-6_2L</title><g id="Layer_2" data-name="Layer 2"><g id="Layer_1-2" data-name="Layer 1"><path class="cls-1" d="M-11908.07-3556.35q-44.73.29-89.1.5c-9,0-17.15,5-21.93,13.32-1,1.71-2,3.43-3,5.15a1.81,1.81,0,0,0,1.44,2.86l30.59-.14a4,4,0,0,0,2.94-1.31l1.83-1.9a11.19,11.19,0,0,1,8.17-3.63l34.67-.13c4.13,0,4.44,6.8.38,8.22q-46.5,16.32-92.57,32.55a27.65,27.65,0,0,0-14.48,11.59q-4.95,7.74-9.89,15.47a1.67,1.67,0,0,0,1.26,2.72q57.24-.16,115.15-.44c1.09,0,2.48.35,3.06-.66.83-1.44,3-5.22,6-10.29,1.18-2,1.88-4.36-.34-4.35q-33.42.18-66.64.31c-3.52,0-5.37-5.8-1.93-7.09q40.29-15.11,80.9-30.27c11.76-4.38,22.4-10.41,24.82-22.48C-11895.73-3551.47-11899.26-3556.41-11908.07-3556.35Z" transform="translate(14417.39 3557.33)"/><path class="cls-2" d="M-12218-3471q47.79.12,96.12.12a26.83,26.83,0,0,0,22.77-13.22q6.8-13,13.6-26c2.42-4.24-1.19-9.08-5.72-9.07q-36.46.06-72.64,0c-2.16,0-3.3-2.65-2-4.6l4.23-6.2c4.47-6.56,11.06-10.22,18.37-10.22q35,0,70.37-.11a3.41,3.41,0,0,0,2.91-1.78l5.93-10.38a2,2,0,0,0-1.55-3.1q-51.07.14-101.6.15c-10.95,0-21,6.19-26.8,16.56-7.14,12.72-30.62,54.66-30.62,54.66C-12227.85-3478.34-12224.65-3471.07-12218-3471Zm38.62-13c-3.54,0-6.05-3.7-4-7.4l4.39-8.14a9.19,9.19,0,0,1,8.59-5.1q18.93,0,38,0c3.57,0,4.75,3,2.64,6.71l-4.12,7.25c-2.11,3.71-6.71,6.71-10.27,6.71Z" transform="translate(14417.39 3557.33)"/><path class="cls-2" d="M-12059.38-3491.48l-24,.05c-2.15,0-4.91,1.81-6.15,4l-6.95,12.43c-1.24,2.22-.51,4,1.64,4l24,0c2.16,0,4.92-1.81,6.17-4l7-12.45C-12056.47-3489.69-12057.21-3491.49-12059.38-3491.48Z" transform="translate(14417.39 3557.33)"/><path class="cls-2" d="M-11837.94-3557.33c-10.85,22.81-21.77,46.1-32.58,68.9,26.39-.18,52.78.12,79.36-.08l-7.8,16.64c-39.58.28-78.86,0-118,.28,13.34-28.31,26.81-57.24,40.19-85.58C-11863.86-3557.26-11850.92-3557.23-11837.94-3557.33Z" transform="translate(14417.39 3557.33)"/><path class="cls-2" d="M-13980.56-3539.35h50.27c6.82,0,13.42.83,9.8,7l-8.9,14.73c-4.83,7.49-18.87,7.32-24,7.32H-13983l-10.77,17.83h65.21c20.6-.2,29.29-9.11,35.62-16.08s9.73-13.24,13.53-19.3c3.38-5.42,6.92-11.4,6.47-17.82s-10-9.35-18.53-9.92c-15.1-1-38.6-.59-58.79-.59h-64.42l-51.24,84.94h44.3Z" transform="translate(14417.39 3557.33)"/><polygon class="cls-2" points="725.22 1.1 714.91 17.89 615.32 17.89 605.03 35.41 685.14 35.41 675.42 51.97 595.31 51.97 585.31 69.01 685.36 69.01 675.31 86.13 532.5 86.13 582.42 1.1 725.22 1.1"/><path class="cls-2" d="M-12448.17-3556.25l-49.92,85,100.93,0c19.12.07,38.12,1.49,52.37-11.26,4.19-3.75,7.16-8.21,10.15-13.3,5.35-9.12,11-18.69,16.13-27.48,5.5-9.41,7.25-11.74,8.26-17.59,2.87-16.55-21-15.35-47.77-15.35Zm33.13,67.9h-30.25l30-51.12h30.25c24.35,0,32.78.87,28.51,8.17l-15.9,27.11h0l-4.72,8C-12380.7-3490.14-12388.89-3488.44-12415-3488.35Z" transform="translate(14417.39 3557.33)"/><path class="cls-2" d="M-13615.17-3470.93h47.65c-9.83-12.3-19.26-24-19.34-24.15-.41-.56-.88-1.16-.82-1.65a.68.68,0,0,1,.65-.68h10.51c4.37,0,12.41-.95,17.14-3.11a39,39,0,0,0,16.48-13.16c2-2.53,0,.5,6.92-10.16,4-6.21,6.93-11.17,7.82-13.74.82-2.33,2-6.37.85-10.1-1.32-4.32-4.33-8.37-14.76-8.4-6.08,0-7.43-.1-17.37-.19-16.39-.15-39.62-.24-47.67-.24-12.94,0-54.49.51-54.49.51-4.74,0-8.23,1.44-11.29,5.76a90,90,0,0,0-4.94,7.89c-1.32,2.35-39.23,65.44-39.37,65.68a4.57,4.57,0,0,0-.47,3.06c.39,1.39,1.26,1.78,1.85,1.78h32.31c6.9,0,9.81-4.44,12.8-9.29,3.23-5.24,27.38-45.82,27.38-45.82,3.85-6.42,7.88-7.72,14.29-7.72h46.65c4.2,0,6.29.32,7.17,2.71.62,1.66-.78,6.76-2.88,9.81a27,27,0,0,1-10.57,9.38c-5.11,2.38-12.35,2.5-13.75,2.5l-36.73,0c-1.25,0-2.23,2.34-.85,4.21Z" transform="translate(14417.39 3557.33)"/><path class="cls-2" d="M-13001.64-3541.85c3-15.86-20.36-14.56-45.77-14.56h-50.16c-18.93.63-36.89-1.41-50.28,10.68-3.93,3.56-6,7.79-8.78,12.62-14.44,25.07-33.61,58.54-35.69,62.12h40.28l12.41-21.36h70.7l-12.38,21.36h40.5l30.55-53.1C-13007-3530-13002.6-3535.94-13001.64-3541.85Zm-57,31.57h-70.65l13-22.48c3.32-5.73,12.58-6.73,33.44-6.73,23.72,0,41.17-.28,37.15,6.73Z" transform="translate(14417.39 3557.33)"/><path class="cls-2" d="M-12641.17-3556.49l-9.5,16.72h-96.9a5.33,5.33,0,0,0-4.53,2.8l-23.87,42.58c-1.51,2.71-.1,5.54,2.76,5.54h50.32a5.31,5.31,0,0,0,4.48-2.7l11.55-20.23h41.76s-20.54,36.78-27.94,39.2c-7,2.31-29.74,1.51-38,1.51h-67.94c-11.53,0-20-2.86-23.27-9.27-2.19-4.36-2.11-11.8.7-16.89l17.48-30.87c5.1-9,14.81-16.79,22.35-21.71,6.08-4,15-6.22,21.81-6.68h118.7Z" transform="translate(14417.39 3557.33)"/><path class="cls-2" d="M-14148-3556.44h-44.34l-30.63,53.1c-3.27,5.9-7.76,11.85-8.5,17.76-2.49,15.87,23.06,14.56,50.88,14.56h42.5c20.69-.63,40.46,1.42,54.48-10.68,4.12-3.55,6.16-7.79,8.94-12.61,14.49-25.08,33.7-58.55,35.78-62.13H-14083l-35.84,61.77c-3.33,5.74-10.44,6.73-33.27,6.73-26,0-35.63.28-31.59-6.73Z" transform="translate(14417.39 3557.33)"/><polygon class="cls-2" points="1177.2 51.35 1157.87 85.42 1197.86 85.42 1246.3 0 1206.33 0 1186.82 34.26 1116.94 34.26 1136.52 0 1096.32 0 1047.87 85.42 1088.06 85.42 1107.32 51.35 1177.2 51.35"/><path class="cls-2" d="M-13348.63-3556.42l-10.3,16.72h-95a8.35,8.35,0,0,0-7.11,3.9l-25.39,41.48c-1.64,2.71-.37,5.53,2.5,5.53h94.32l-10.88,17.77h-110c-11.52,0-23-2.09-22.82-9.27.13-5,4.8-11.8,7.85-16.88l19-30.87c5.53-9,9.26-16.79,17-21.71,6.27-4,15.32-6.22,22.13-6.68h118.7Z" transform="translate(14417.39 3557.33)"/><path class="cls-2" d="M-12909.76-3470.93h47.65c-9.82-12.3-19.26-24-19.34-24.15-.41-.56-.88-1.16-.81-1.65a.68.68,0,0,1,.65-.68h10.5c4.38,0,12.42-.95,17.14-3.11a39,39,0,0,0,16.48-13.16c2-2.53,0,.5,6.93-10.16,4-6.21,6.92-11.17,7.82-13.74.82-2.33,2-6.37.84-10.1-1.32-4.32-4.32-8.37-14.75-8.4-6.09,0-7.43-.1-17.37-.19-16.4-.15-39.63-.24-47.67-.24-12.94,0-54.5.51-54.5.51-4.74,0-8.23,1.44-11.29,5.76a89.89,89.89,0,0,0-4.93,7.89c-1.32,2.35-39.24,65.44-39.37,65.68a4.56,4.56,0,0,0-.48,3.06c.39,1.39,1.27,1.78,1.85,1.78h32.31c6.9,0,9.81-4.44,12.81-9.29,3.23-5.24,27.38-45.82,27.38-45.82,3.84-6.42,7.87-7.72,14.28-7.72h46.66c4.19,0,6.28.32,7.17,2.71.61,1.66-.79,6.76-2.89,9.81a26.86,26.86,0,0,1-10.56,9.38c-5.11,2.38-12.36,2.5-13.75,2.5l-36.73,0c-1.26,0-2.24,2.34-.86,4.21Z" transform="translate(14417.39 3557.33)"/><path class="cls-2" d="M-14293.16-3486h-115.9l-8.33,14.56h139.75c8,0,17.61-5.38,21.4-12l17-29.7c3.8-6.63.37-12-7.66-12h-103.39l9.38-16.38H-14223l8.33-14.56h-139.76c-8,0-17.59,5.37-21.39,12l-17,29.7c-3.79,6.63-.36,12,7.66,12h101.36Z" transform="translate(14417.39 3557.33)"/><polygon class="cls-2" points="1946.63 1.1 1936.32 17.89 1836.72 17.89 1826.44 35.41 1906.55 35.41 1896.83 51.97 1816.72 51.97 1806.72 69.01 1906.77 69.01 1896.71 86.13 1753.91 86.13 1803.83 1.1 1946.63 1.1"/></g></g></svg>