<svg xmlns="http://www.w3.org/2000/svg" viewBox="0 0 984.55 143.21"><defs><style>.cls-1{fill:#121212;fill-rule:evenodd;}</style></defs><title>Track-Hawk-(Hawk)-Logo</title><g id="Layer_2" data-name="Layer 2"><g id="Layer_1-2" data-name="Layer 1"><path class="cls-1" d="M471.46,39.16a6.8,6.8,0,0,0,3.9,8,14.9,14.9,0,0,0,6,1.19,1.28,1.28,0,0,0,0-2.55,12.48,12.48,0,0,1-5-1,4.23,4.23,0,0,1-2.43-5,1.28,1.28,0,1,0-2.47-.67Z"/><path class="cls-1" d="M494.28,142.69l45.31-24.16a5.71,5.71,0,0,0,2.12-2l5.08-9.52a5.61,5.61,0,0,1,4.53-2.8C631,99,821.25,82.72,839.51,80c18.61-2.81,45.1-10.26,61.16-20.07,15.87-9.68,82.57-54.56,82.57-54.56A2.74,2.74,0,0,0,981.79.27C980.41.28,797.25-.9,720.62,1.58c-29.27.94-122.84,15.34-182,16.43-1,0-3.63-.1-4.4-.67C512.78,1.49,492.27,2.93,492.27,2.93s-20.5-1.44-41.92,14.41c-.78.57-3.45.69-4.41.67-59.17-1.09-152.74-15.49-182-16.43C187.3-.9,4.14.28,2.76.27A2.74,2.74,0,0,0,1.3,5.34S68,50.22,83.87,59.9C99.94,69.71,126.43,77.16,145,80c18.26,2.75,208.48,19,288.19,24.19a5.58,5.58,0,0,1,4.52,2.8l5.09,9.52a5.61,5.61,0,0,0,2.11,2l45.32,24.16A4.14,4.14,0,0,0,494.28,142.69Zm-2-17.43h0l35.39-19.11a4.23,4.23,0,0,0,2.28-3.46l2.48-8.54c3.07-5.34,8.61-4.78,14.75-5.18,60.25-4.23,123.75-6.52,183.92-11.72,35.6-3,71.17-7.72,106.7-11.42,10.54-1.77,22.41-2.33,32.61-5.54a94.44,94.44,0,0,0,11.42-4.36c1.49-.75,1.41-3.37-.22-3.06C868.56,55.34,849.45,55,849.45,55c-1.12,0-1.44-2.24-.33-2.41,51.07-8,65.83-17.72,65.83-17.72,1.71-.51,1.37-3.18-.41-3.07-21,1.35-54,.31-54,.31-1.16,0-1.32-2.12-.16-2.22,65.29-5.68,87.37-13.28,87.37-13.28,1.81-1.15.69-4.64-1.45-4.65-37.49-.05-79.66.86-116.61,1q-54.21.12-108.42,1.46-30.33,2.09-60.5,6-31.53,3.9-63.17,6.74c-12.28,1.16-47.55,3.29-59.64,4-10,.56-21.12.11-24.7,1.65-4.35,1.86-6,10.31-11.94,10.58-4.11.19-5.71,5.43.54,7.34,3.09.94,13-1.63,8.14,1.62C499.8,59,494,69.59,492.27,72.13c-1.69-2.54-7.52-13.11-17.68-19.88-4.88-3.25,5.06-.68,8.15-1.62,6.24-1.91,4.65-7.15.54-7.34-6-.27-7.59-8.72-11.94-10.58-3.58-1.54-14.67-1.09-24.7-1.65-12.09-.68-47.36-2.81-59.64-4q-31.63-2.84-63.17-6.74-30.15-3.9-60.5-6Q209.12,13,154.91,12.9c-36.95-.12-79.13-1-116.61-1-2.14,0-3.26,3.5-1.45,4.65,0,0,22.08,7.6,87.37,13.28,1.16.1,1,2.19-.16,2.22,0,0-33,1-54-.31-1.78-.11-2.13,2.56-.42,3.07,0,0,14.77,9.74,65.84,17.72,1.11.17.79,2.42-.33,2.41,0,0-19.11.38-32.16-2.09-1.64-.31-1.71,2.31-.22,3.06a94.44,94.44,0,0,0,11.42,4.36c10.2,3.21,22.06,3.77,32.61,5.54,35.53,3.7,71.1,8.47,106.7,11.42,60.17,5.2,123.66,7.49,183.91,11.72,6.15.4,11.69-.16,14.76,5.18l2.48,8.54a4.21,4.21,0,0,0,2.28,3.46l35.39,19.11Z"/><path class="cls-1" d="M513,39.16a6.8,6.8,0,0,1-3.9,8,14.93,14.93,0,0,1-6,1.19,1.28,1.28,0,1,1,0-2.55,12.51,12.51,0,0,0,5-1,4.24,4.24,0,0,0,2.43-5,1.28,1.28,0,1,1,2.47-.67Z"/><path class="cls-1" d="M123,17.09l116.16,4a1.38,1.38,0,0,1,.6,2.51l-9.9,4.84a1.38,1.38,0,0,1-.69.17L192,27.55a1.34,1.34,0,0,0-1.38,1.34v31.2a1.34,1.34,0,0,1-1.46,1.33l-18.59-1.67a1.33,1.33,0,0,1-1.22-1.29l-.76-30a1.32,1.32,0,0,0-1.27-1.3l-34.1-1.57a1.27,1.27,0,0,1-.61-.17l-10.31-5.87A1.38,1.38,0,0,1,123,17.09Z"/><path class="cls-1" d="M200.11,32l49.41,1.73A10.88,10.88,0,0,1,260,44.57v6.71A4.72,4.72,0,0,1,255,56l-.79-.07a.25.25,0,0,0-.19.41,47.75,47.75,0,0,0,14.35,13.91c.53.34-.17,1.29-.72,1,0,0-22.44-2-39-20.19-.39-.43-.29-1.17.29-1.17h8A4.09,4.09,0,0,0,241,45.76V43.19a4.08,4.08,0,0,0-4-4.08l-13.29-.38a1.48,1.48,0,0,0-1.53,1.49V62.11a1.5,1.5,0,0,1-1.62,1.49l-16.62-1.39a1.48,1.48,0,0,1-1.37-1.48V36.5l-3.1-3.1A.88.88,0,0,1,200.11,32Z"/><path class="cls-1" d="M266,61.55l4.06,4.3a1.43,1.43,0,0,0,1,.47l11.86.85a1.5,1.5,0,0,0,1.6-1.49V60.8a1.49,1.49,0,0,1,1.54-1.49l17.93.61a1.37,1.37,0,0,1,1.44,1.35v5.59a1.63,1.63,0,0,0,1.42,1.64l16.5.85a1.49,1.49,0,0,0,1.56-1.49V45.68a8.46,8.46,0,0,0-8.19-8.47l-42.34-1.43a8.48,8.48,0,0,0-8.77,8.47V60.53A1.45,1.45,0,0,0,266,61.55ZM286,54.28a1.49,1.49,0,0,1-1.45-1.49V50a6.8,6.8,0,0,1,6.94-6.8l7.31.15a6.8,6.8,0,0,1,6.66,6.8v3.12a1.48,1.48,0,0,1-1.53,1.49Z"/><path class="cls-1" d="M379.81,40.37l-37.57-1.59a11.53,11.53,0,0,0-11.88,11.57l.05,8.64a12,12,0,0,0,11,11.85L379,73.12a1.49,1.49,0,0,0,1.16-2.53l-4.1-4.4a1.43,1.43,0,0,0-1-.45l-19.92-1a3.86,3.86,0,0,1-3.68-3.87V50a3.88,3.88,0,0,1,3.95-3.87l20,.62a1.46,1.46,0,0,0,1-.35L380.72,43A1.49,1.49,0,0,0,379.81,40.37Z"/><path class="cls-1" d="M381,48.17l7.76-6.43a1.23,1.23,0,0,1,.86-.3l11.26.36a1.28,1.28,0,0,1,1.23,1.28V72.56a1.28,1.28,0,0,1-1.31,1.28l-12.6-.36a1.27,1.27,0,0,1-.9-.4l-6.61-7a1.28,1.28,0,0,1-.35-.89l.2-16.06A1.25,1.25,0,0,1,381,48.17Z"/><path class="cls-1" d="M404.74,57.17l21.74-13.85a1.22,1.22,0,0,1,.74-.2l21,.85a1.32,1.32,0,0,1,.6,2.38L429.22,58a1.29,1.29,0,0,0,0,2.18l22.33,14.49a1.32,1.32,0,0,1-.77,2.35l-23.12-1.2a1.22,1.22,0,0,1-.69-.24L404.67,59.28A1.3,1.3,0,0,1,404.74,57.17Z"/><path class="cls-1" d="M539.17,44.94V75.82a1.28,1.28,0,0,0,1.36,1.28L559.06,76a1.28,1.28,0,0,0,1.2-1.28V64.22A1.27,1.27,0,0,1,561.44,63l24.45-1.79a1.27,1.27,0,0,1,1.37,1.27V72.85a1.28,1.28,0,0,0,1.36,1.28L606.86,73a1.27,1.27,0,0,0,1.2-1.27V41.19a1.27,1.27,0,0,0-1.35-1.28l-18.24,1a1.28,1.28,0,0,0-1.21,1.28v9.58a1.27,1.27,0,0,1-1.2,1.28l-24.45,1.54a1.29,1.29,0,0,1-1.35-1.28V43.87a1.28,1.28,0,0,0-1.36-1.28l-18.52,1.08A1.27,1.27,0,0,0,539.17,44.94Z"/><path class="cls-1" d="M673.3,68.07l.14-22.68a8.48,8.48,0,0,0-8.77-8.48l-42.88,1.92a8.47,8.47,0,0,0-8.2,8.48V70.62a1.5,1.5,0,0,0,1.57,1.49l16.5-.85a1.63,1.63,0,0,0,1.41-1.63V63.17a1.37,1.37,0,0,1,1.44-1.35l17.93-.61A1.49,1.49,0,0,1,654,62.7v5.74a1.5,1.5,0,0,0,1.6,1.49l16.74-.85A.94.94,0,0,0,673.3,68.07ZM652.53,56.18l-17.93.49a1.49,1.49,0,0,1-1.53-1.49V52.06a6.8,6.8,0,0,1,6.66-6.8l7.31-.15a6.8,6.8,0,0,1,6.94,6.8v2.78A1.49,1.49,0,0,1,652.53,56.18Z"/><path class="cls-1" d="M784.64,46.16l24.48,13.72a1.22,1.22,0,0,0,.74.2L831,58.68a1.32,1.32,0,0,0,.6-2.38L809.67,45a1.16,1.16,0,0,1,0-2l25.2-12.85a1.32,1.32,0,0,0-.76-2.35l-22.58,1.06a1.24,1.24,0,0,0-.69.25l-26.22,15A1.3,1.3,0,0,0,784.64,46.16Z"/><path class="cls-1" d="M760.93,32.48V62a1.49,1.49,0,0,0,1.58,1.49L780,62.47a1.49,1.49,0,0,0,1.4-1.49V31.52A1.49,1.49,0,0,0,779.84,30l-17.5,1A1.48,1.48,0,0,0,760.93,32.48Z"/><path class="cls-1" d="M678.7,37.17V59.4A8.65,8.65,0,0,0,687.86,68l21-1.24a8.47,8.47,0,0,0,2.82-.6l4.68-2.39a3.63,3.63,0,0,1,3.23,0l1.6.78a10.92,10.92,0,0,0,5.62,1.11l20.32-1.22a8.62,8.62,0,0,0,8.13-8.64V32.93a1.48,1.48,0,0,0-1.58-1.49l-15.94.94a1.49,1.49,0,0,0-1.4,1.49V54.55a4.08,4.08,0,0,1-3.88,4.09l-2.5.13a4.11,4.11,0,0,1-4.32-4.09v-20a1.49,1.49,0,0,0-1.57-1.49l-12.78.67a1.49,1.49,0,0,0-1.42,1.49v20a4.08,4.08,0,0,1-3.8,4.09l-2.61.19a4.12,4.12,0,0,1-4.4-4.09V36.19a1.49,1.49,0,0,0-1.57-1.49l-17.41,1A1.5,1.5,0,0,0,678.7,37.17Z"/></g></g></svg>