<svg xmlns="http://www.w3.org/2000/svg" viewBox="0 0 977.68 73.28"><defs><style>.cls-1{fill:#121212;fill-rule:evenodd;}</style></defs><title>Track-Hawk-Logo</title><g id="Layer_2" data-name="Layer 2"><g id="Layer_1-2" data-name="Layer 1"><path class="cls-1" d="M2,4,177.29,0c1.85,0,2.52,2.74.91,3.73l-14.95,8.16a2,2,0,0,1-1,.31l-56.14,1.63A2.17,2.17,0,0,0,104,16V63.06a2.17,2.17,0,0,1-2.2,2.14l-28.06-.92a1.86,1.86,0,0,1-1.84-1.85L70.75,17.26a1.88,1.88,0,0,0-1.93-1.86L17.35,16a1.83,1.83,0,0,1-.92-.21L.87,7.81C-.76,7,.07,4,2,4Z"/><path class="cls-1" d="M118.36,19.77l74.58-1.64A15.31,15.31,0,0,1,208.8,33.65V43.79a7.61,7.61,0,0,1-7.67,7.49l-1.18,0a.38.38,0,0,0-.29.63,66.46,66.46,0,0,0,21.66,19.77c.79.46-.26,1.95-1.1,1.56,0,0-33.86-1.07-58.87-27.12-.59-.61-.44-1.74.44-1.79l12.07-.69A6.61,6.61,0,0,0,180,37.09V33.22a5.74,5.74,0,0,0-6-5.82L154,28a2.41,2.41,0,0,0-2.32,2.38V63.39a2.41,2.41,0,0,1-2.44,2.38l-25.09-.66A2.08,2.08,0,0,1,122.08,63V26.43L117.4,22A1.38,1.38,0,0,1,118.36,19.77Z"/><path class="cls-1" d="M217.83,58.77,224,64.91a2.06,2.06,0,0,0,1.48.62l17.9.26a2.41,2.41,0,0,0,2.41-2.39V56a2.42,2.42,0,0,1,2.33-2.38L275.15,53A1.93,1.93,0,0,1,277.32,55v8.44a2.28,2.28,0,0,0,2.14,2.34l24.9-.13a2.42,2.42,0,0,0,2.36-2.39V29.75a11.93,11.93,0,0,0-12.37-12.09l-63.9,1.48a13.72,13.72,0,0,0-13.23,13.55V57.26A2.08,2.08,0,0,0,217.83,58.77Zm30.11-12.69A2.1,2.1,0,0,1,245.75,44V39.76A11,11,0,0,1,256.23,28.9l11-.41a9.59,9.59,0,0,1,10.06,9.7v4.7A2.42,2.42,0,0,1,275,45.28Z"/><path class="cls-1" d="M389.59,17l-56.71.83A18.61,18.61,0,0,0,315,36.32l.07,13a16.94,16.94,0,0,0,16.63,16.93l56.75.21a2.34,2.34,0,0,0,1.75-3.92L384,56.28a2.08,2.08,0,0,0-1.51-.59L352.41,56a5.45,5.45,0,0,1-5.56-5.53V34a6.26,6.26,0,0,1,6-6.18l30.2-.79a2.37,2.37,0,0,0,1.5-.62L391,20.89A2.19,2.19,0,0,0,389.59,17Z"/><path class="cls-1" d="M391.4,28.66l11.71-10.38a1.94,1.94,0,0,1,1.29-.51l17-.42a1.79,1.79,0,0,1,1.86,1.82v44.5a2.07,2.07,0,0,1-2,2l-19,.53a1.73,1.73,0,0,1-1.34-.52l-10-10a1.74,1.74,0,0,1-.52-1.32l.29-24.26A2,2,0,0,1,391.4,28.66Z"/><path class="cls-1" d="M427.23,40.2l32.82-22.78a1.86,1.86,0,0,1,1.11-.36l31.74-.52c1.74,0,2.41,2.56.91,3.53L464.18,39.29a1.94,1.94,0,0,0-.06,3.29l33.7,20c1.49.89.62,3.61-1.16,3.62l-34.9.18a1.82,1.82,0,0,1-1-.31L427.13,43.4A2,2,0,0,1,427.23,40.2Z"/><path class="cls-1" d="M530.31,15.33V62A2.1,2.1,0,0,0,532.36,64l28,.11a1.77,1.77,0,0,0,1.82-1.81V46.55A1.77,1.77,0,0,1,564,44.74l36.93-.28A2.11,2.11,0,0,1,603,46.53V62.27a2.09,2.09,0,0,0,2,2.06l27.56.16a1.78,1.78,0,0,0,1.81-1.81V16.51a2.1,2.1,0,0,0-2-2.07l-27.55-.27A1.78,1.78,0,0,0,603,16V30.46a1.78,1.78,0,0,1-1.81,1.81l-36.93-.12a2.09,2.09,0,0,1-2.05-2.06V15.79a2.09,2.09,0,0,0-2-2.06l-28-.21A1.77,1.77,0,0,0,530.31,15.33Z"/><path class="cls-1" d="M732.92,63.6l.21-34.25a13.87,13.87,0,0,0-13.25-13.68L655.1,14.31a11.82,11.82,0,0,0-12.38,12V61.51a2.44,2.44,0,0,0,2.37,2.41l24.92.36A2.27,2.27,0,0,0,672.15,62V52.2a1.92,1.92,0,0,1,2.18-1.9l27.08.86a2.45,2.45,0,0,1,2.33,2.41v8.67a2.44,2.44,0,0,0,2.41,2.41l25.29.38A1.31,1.31,0,0,0,732.92,63.6Zm-31.37-20-27.08-1a2.45,2.45,0,0,1-2.32-2.41V35.42a9.49,9.49,0,0,1,10.06-9.61l11,.5a11.13,11.13,0,0,1,10.49,11v4.2A2.09,2.09,0,0,1,701.55,43.58Z"/><path class="cls-1" d="M901.11,41.59l37,23.16a1.94,1.94,0,0,0,1.11.37h32c1.74,0,2.4-2.55.9-3.53L938.92,42.26a1.76,1.76,0,0,1-.07-3.08l38.07-16.91c1.49-.87.62-3.6-1.15-3.62L941.67,18a1.63,1.63,0,0,0-1,.3L901,38.4A2,2,0,0,0,901.11,41.59Z"/><path class="cls-1" d="M865.28,18.56V63.2a2.45,2.45,0,0,0,2.39,2.41l26.45.15a2.09,2.09,0,0,0,2.12-2.11V19.14a2.44,2.44,0,0,0-2.38-2.4l-26.45-.29A2.07,2.07,0,0,0,865.28,18.56Z"/><path class="cls-1" d="M741.08,17.47V51.05a14.14,14.14,0,0,0,13.83,14l31.77.23a12.64,12.64,0,0,0,4.26-.62L798,61.46a5.51,5.51,0,0,1,4.88.35l2.42,1.33a17.07,17.07,0,0,0,8.48,2.23l30.7.18a12,12,0,0,0,12.28-12.23V18.67a2.43,2.43,0,0,0-2.39-2.4l-24.07-.16a2.08,2.08,0,0,0-2.12,2.11V49.45a5.71,5.71,0,0,1-5.87,5.8l-3.77,0A6.73,6.73,0,0,1,812,48.59V18.46a2.44,2.44,0,0,0-2.37-2.41l-19.31-.27a2.07,2.07,0,0,0-2.14,2.11V48.13a5.69,5.69,0,0,1-5.74,5.79l-4,0a6.72,6.72,0,0,1-6.64-6.61V18a2.44,2.44,0,0,0-2.38-2.4l-26.29-.25A2.08,2.08,0,0,0,741.08,17.47Z"/></g></g></svg>