<svg xmlns="http://www.w3.org/2000/svg" viewBox="0 0 1073.26 58.42"><defs><style>.cls-1,.cls-3{fill:#231f20;}.cls-1,.cls-2{fill-rule:evenodd;}.cls-2,.cls-4{fill:none;stroke:#231f20;stroke-linecap:round;stroke-linejoin:round;stroke-width:0.1px;}</style></defs><title>Trail-Hawk-Logo</title><g id="Layer_2"><g id="Layer_1-2"><polygon class="cls-1" points="1.13 0.65 121.21 0.65 115.08 11.14 76.13 11.14 76.13 57.33 37.91 57.33 37.91 11.14 0.05 11.14 1.13 0.65"/><polygon class="cls-2" points="1.13 0.65 121.21 0.65 115.08 11.14 76.13 11.14 76.13 57.33 37.91 57.33 37.91 11.14 0.05 11.14 1.13 0.65"/><path class="cls-1" d="M238.81,58h-37L179.1,41.44l-3.47-15.71h16.56c4.87-2.9,4.83-11.06-.38-13.53l-67.38-.44L130,.93h86.83c14.18.2,20.81,20.1,10.41,30.92-1.65,2.56-4.06,4.83-6.94,5.23l.63,6.7,18.26,13.07A.66.66,0,0,1,238.81,58Z"/><path class="cls-2" d="M238.81,58h-37L179.1,41.44l-3.47-15.71h16.56c4.87-2.9,4.83-11.06-.38-13.53l-67.38-.44L130,.93h86.83c14.18.2,20.81,20.1,10.41,30.92-1.65,2.56-4.06,4.83-6.94,5.23l.63,6.7,18.26,13.07A.66.66,0,0,1,238.81,58Z"/><rect class="cls-3" x="125.7" y="24.39" width="38.27" height="33.15"/><rect class="cls-4" x="125.7" y="24.39" width="38.27" height="33.15"/><rect class="cls-3" x="387.95" y="0.05" width="37.84" height="57.96"/><rect class="cls-4" x="387.95" y="0.05" width="37.84" height="57.96"/><polygon class="cls-1" points="436.04 0.13 436.04 58.37 529.94 58.37 534.3 45.09 474.18 45.09 474.18 0.13 436.04 0.13"/><polygon class="cls-2" points="436.04 0.13 436.04 58.37 529.94 58.37 534.3 45.09 474.18 45.09 474.18 0.13 436.04 0.13"/><polygon class="cls-1" points="557.72 0.81 557.72 58.37 592.54 58.37 592.54 35.65 642.57 35.65 642.48 57.72 677.16 57.72 677.16 1.15 642.88 1.15 642.88 22.22 592.54 22.22 592.54 0.81 557.72 0.81"/><polygon class="cls-2" points="557.72 0.81 557.72 58.37 592.54 58.37 592.54 35.65 642.57 35.65 642.48 57.72 677.16 57.72 677.16 1.15 642.88 1.15 642.88 22.22 592.54 22.22 592.54 0.81 557.72 0.81"/><path class="cls-1" d="M689.07,24.94h38.59V37.51h48.55c-7.55-13.66-18.05-23.3-31-25.31H692.57L693.87.92h55.19c23.46,2,45.21,13.46,61.08,33.07a40.17,40.17,0,0,1,6.05,23.4H779.87L778.54,46.8H727.77V57.44h-38.7Z"/><path class="cls-2" d="M689.07,24.94h38.59V37.51h48.55c-7.55-13.66-18.05-23.3-31-25.31H692.57L693.87.92h55.19c23.46,2,45.21,13.46,61.08,33.07a40.17,40.17,0,0,1,6.05,23.4H779.87L778.54,46.8H727.77V57.44h-38.7Z"/><polygon class="cls-1" points="817.88 3.77 838.85 57.76 879.15 57.76 889.08 23.7 891.29 23.7 898.47 57.76 939.86 57.76 961.94 0.56 929.37 0.56 918.89 40.41 916.67 40.41 905.09 0.56 873.63 0.56 864.79 41.05 862.03 40.41 851 3.77 817.88 3.77"/><polygon class="cls-2" points="817.88 3.77 838.85 57.76 879.15 57.76 889.08 23.7 891.29 23.7 898.47 57.76 939.86 57.76 961.94 0.56 929.37 0.56 918.89 40.41 916.67 40.41 905.09 0.56 873.63 0.56 864.79 41.05 862.03 40.41 851 3.77 817.88 3.77"/><path class="cls-1" d="M971.43.58V57.79H1006l.08-26.95h8L1039,58h32.83a2.8,2.8,0,0,0,.76-4.18l-27.86-29.35,25.6-20.58a2.15,2.15,0,0,0,0-3.56h-26l-30.46,21.11h-7.53V.58Z"/><path class="cls-2" d="M971.43.58V57.79H1006l.08-26.95h8L1039,58h32.83a2.8,2.8,0,0,0,.76-4.18l-27.86-29.35,25.6-20.58a2.15,2.15,0,0,0,0-3.56h-26l-30.46,21.11h-7.53V.58Z"/><path class="cls-1" d="M251.4,25.49H290V38.06h48.55c-7.55-13.66-18.05-23.3-31-25.31H254.9l1.3-11.28h55.19c23.46,2,45.21,13.47,61.08,33.07a40.17,40.17,0,0,1,6,23.4H342.2l-1.32-10.59H290.1V58H251.4Z"/><path class="cls-2" d="M251.4,25.49H290V38.06h48.55c-7.55-13.66-18.05-23.3-31-25.31H254.9l1.3-11.28h55.19c23.46,2,45.21,13.47,61.08,33.07a40.17,40.17,0,0,1,6,23.4H342.2l-1.32-10.59H290.1V58H251.4Z"/></g></g></svg>