<svg xmlns="http://www.w3.org/2000/svg" viewBox="0 0 984.55 143.21"><defs><style>.cls-1{fill:#121212;fill-rule:evenodd;}</style></defs><title>Trail-Hawk-(Hawk)-Logo</title><g id="Layer_2" data-name="Layer 2"><g id="Layer_1-2" data-name="Layer 1"><path class="cls-1" d="M471.46,39.16a6.8,6.8,0,0,0,3.9,8,14.9,14.9,0,0,0,6,1.19,1.28,1.28,0,0,0,0-2.55,12.48,12.48,0,0,1-5-1,4.23,4.23,0,0,1-2.43-5,1.28,1.28,0,1,0-2.47-.67Z"/><path class="cls-1" d="M494.28,142.69l45.31-24.16a5.71,5.71,0,0,0,2.12-2l5.08-9.52a5.61,5.61,0,0,1,4.53-2.8C631,99,821.25,82.72,839.51,80c18.61-2.81,45.1-10.26,61.16-20.07,15.87-9.68,82.57-54.56,82.57-54.56A2.74,2.74,0,0,0,981.79.27C980.41.28,797.25-.9,720.62,1.58c-29.27.94-122.84,15.34-182,16.43-1,0-3.63-.1-4.4-.67C512.78,1.49,492.27,2.93,492.27,2.93s-20.5-1.44-41.92,14.41c-.78.57-3.45.69-4.41.67-59.17-1.09-152.74-15.49-182-16.43C187.3-.9,4.14.28,2.76.27A2.74,2.74,0,0,0,1.3,5.34S68,50.22,83.87,59.9C99.94,69.71,126.43,77.16,145,80c18.26,2.75,208.48,19,288.19,24.19a5.58,5.58,0,0,1,4.52,2.8l5.09,9.52a5.61,5.61,0,0,0,2.11,2l45.32,24.16A4.14,4.14,0,0,0,494.28,142.69Zm-2-17.43h0l35.39-19.11a4.23,4.23,0,0,0,2.28-3.46l2.48-8.54c3.07-5.34,8.61-4.78,14.75-5.18,60.25-4.23,123.75-6.52,183.92-11.72,35.6-3,71.17-7.72,106.7-11.42,10.54-1.77,22.41-2.33,32.61-5.54a94.44,94.44,0,0,0,11.42-4.36c1.49-.75,1.41-3.37-.22-3.06C868.56,55.34,849.45,55,849.45,55c-1.12,0-1.44-2.24-.33-2.41,51.07-8,65.83-17.72,65.83-17.72,1.71-.51,1.37-3.18-.41-3.07-21,1.35-54,.31-54,.31-1.16,0-1.32-2.12-.16-2.22,65.29-5.68,87.37-13.28,87.37-13.28,1.81-1.15.69-4.64-1.45-4.65-37.49-.05-79.66.86-116.61,1q-54.21.12-108.42,1.46-30.33,2.09-60.5,6-31.53,3.9-63.17,6.74c-12.28,1.16-47.55,3.29-59.64,4-10,.56-21.12.11-24.7,1.65-4.35,1.86-6,10.31-11.94,10.58-4.11.19-5.71,5.43.54,7.34,3.09.94,13-1.63,8.14,1.62C499.8,59,494,69.59,492.27,72.13c-1.69-2.54-7.52-13.11-17.68-19.88-4.88-3.25,5.06-.68,8.15-1.62,6.24-1.91,4.65-7.15.54-7.34-6-.27-7.59-8.72-11.94-10.58-3.58-1.54-14.67-1.09-24.7-1.65-12.09-.68-47.36-2.81-59.64-4q-31.63-2.84-63.17-6.74-30.15-3.9-60.5-6Q209.12,13,154.91,12.9c-36.95-.12-79.13-1-116.61-1-2.14,0-3.26,3.5-1.45,4.65,0,0,22.08,7.6,87.37,13.28,1.16.1,1,2.19-.16,2.22,0,0-33,1-54-.31-1.78-.11-2.13,2.56-.42,3.07,0,0,14.77,9.74,65.84,17.72,1.11.17.79,2.42-.33,2.41,0,0-19.11.38-32.16-2.09-1.64-.31-1.71,2.31-.22,3.06a94.44,94.44,0,0,0,11.42,4.36c10.2,3.21,22.06,3.77,32.61,5.54,35.53,3.7,71.1,8.47,106.7,11.42,60.17,5.2,123.66,7.49,183.91,11.72,6.15.4,11.69-.16,14.76,5.18l2.48,8.54a4.21,4.21,0,0,0,2.28,3.46l35.39,19.11Z"/><path class="cls-1" d="M513,39.16a6.8,6.8,0,0,1-3.9,8,14.93,14.93,0,0,1-6,1.19,1.28,1.28,0,1,1,0-2.55,12.51,12.51,0,0,0,5-1,4.24,4.24,0,0,0,2.43-5,1.28,1.28,0,1,1,2.47-.67Z"/><polygon class="cls-1" points="537.14 41.91 537.14 76.93 557.55 75.61 557.55 61.79 586.89 59.9 586.84 73.32 607.18 72 607.18 37.59 587.08 38.89 587.08 51.71 557.55 53.62 557.55 40.59 537.14 41.91"/><polygon class="cls-1" points="537.14 41.91 537.14 76.93 557.55 75.61 557.55 61.79 586.89 59.9 586.84 73.32 607.18 72 607.18 37.59 587.08 38.89 587.08 51.71 557.55 53.62 557.55 40.59 537.14 41.91"/><path class="cls-1" d="M614.16,51.61l22.63-1.46v7.64L665.26,56c-4.43-8-10.58-13.49-18.18-14.22l-30.86,2,.76-6.92,32.36-2.09c13.76.33,26.51,6.48,35.82,17.81a24.05,24.05,0,0,1,3.55,14l-21.3,1.38-.78-6.39-29.78,1.92v6.48l-22.69,1.46Z"/><path class="cls-1" d="M614.16,51.61l22.63-1.46v7.64L665.26,56c-4.43-8-10.58-13.49-18.18-14.22l-30.86,2,.76-6.92,32.36-2.09c13.76.33,26.51,6.48,35.82,17.81a24.05,24.05,0,0,1,3.55,14l-21.3,1.38-.78-6.39-29.78,1.92v6.48l-22.69,1.46Z"/><polygon class="cls-1" points="689.7 33.85 701.99 65.9 725.63 64.37 731.45 43.27 732.75 43.19 736.95 63.64 761.23 62.07 774.17 26.43 755.08 27.66 748.93 52.31 747.63 52.39 740.84 28.59 722.39 29.78 717.21 54.75 715.59 54.47 709.12 32.59 689.7 33.85"/><polygon class="cls-1" points="689.7 33.85 701.99 65.9 725.63 64.37 731.45 43.27 732.75 43.19 736.95 63.64 761.23 62.07 774.17 26.43 755.08 27.66 748.93 52.31 747.63 52.39 740.84 28.59 722.39 29.78 717.21 54.75 715.59 54.47 709.12 32.59 689.7 33.85"/><path class="cls-1" d="M779.74,26.08V60.89L800,59.58l0-16.4,4.71-.31,14.6,15.6,19.26-1.25a1.8,1.8,0,0,0,.44-2.58l-16.34-16.8,15-13.49a1.33,1.33,0,0,0,0-2.16l-15.26,1-17.87,14-4.41.29V24.76Z"/><path class="cls-1" d="M779.74,26.08V60.89L800,59.58l0-16.4,4.71-.31,14.6,15.6,19.26-1.25a1.8,1.8,0,0,0,.44-2.58l-16.34-16.8,15-13.49a1.33,1.33,0,0,0,0-2.16l-15.26,1-17.87,14-4.41.29V24.76Z"/><polygon class="cls-1" points="131.13 22.12 203.77 26.64 200.06 32.75 176.5 31.29 176.5 59.23 153.38 57.79 153.38 29.85 130.48 28.43 131.13 22.12"/><polygon class="cls-1" points="131.13 22.12 203.77 26.64 200.06 32.75 176.5 31.29 176.5 59.23 153.38 57.79 153.38 29.85 130.48 28.43 131.13 22.12"/><path class="cls-1" d="M274.91,65.76l-22.38-1.39L238.79,53.49l-2.09-9.63,10,.62c2.95-1.56,2.92-6.5-.23-8.19l-40.76-2.8,3.36-6.36,52.54,3.27c8.57.65,12.58,12.94,6.29,19.1a6,6,0,0,1-4.2,2.9l.38,4.07,11.05,8.6A.38.38,0,0,1,274.91,65.76Z"/><path class="cls-1" d="M274.91,65.76l-22.38-1.39L238.79,53.49l-2.09-9.63,10,.62c2.95-1.56,2.92-6.5-.23-8.19l-40.76-2.8,3.36-6.36,52.54,3.27c8.57.65,12.58,12.94,6.29,19.1a6,6,0,0,1-4.2,2.9l.38,4.07,11.05,8.6A.38.38,0,0,1,274.91,65.76Z"/><polygon class="cls-1" points="206.49 61.22 229.65 62.66 229.65 42.61 206.49 41.17 206.49 61.22"/><polygon class="cls-1" points="206.49 61.22 229.65 62.66 229.65 42.61 206.49 41.17 206.49 61.22"/><polygon class="cls-1" points="365.14 71.38 388.03 72.8 388.03 37.73 365.14 36.31 365.14 71.38"/><polygon class="cls-1" points="365.14 71.38 388.03 72.8 388.03 37.73 365.14 36.31 365.14 71.38"/><polygon class="cls-1" points="394.23 38.17 394.23 73.4 451.04 76.93 453.68 69.06 417.31 66.8 417.31 39.6 394.23 38.17"/><polygon class="cls-1" points="394.23 38.17 394.23 73.4 451.04 76.93 453.68 69.06 417.31 66.8 417.31 39.6 394.23 38.17"/><path class="cls-1" d="M282.53,46.56,305.88,48v7.61l29.37,1.82C330.68,48.9,324.33,42.67,316.49,41l-31.84-2,.79-6.78,33.38,2.08c14.2,2.1,27.36,9.85,37,22.3A25.4,25.4,0,0,1,359.44,71l-22-1.36-.8-6.46-30.72-1.91v6.44l-23.41-1.46Z"/><path class="cls-1" d="M282.53,46.56,305.88,48v7.61l29.37,1.82C330.68,48.9,324.33,42.67,316.49,41l-31.84-2,.79-6.78,33.38,2.08c14.2,2.1,27.36,9.85,37,22.3A25.4,25.4,0,0,1,359.44,71l-22-1.36-.8-6.46-30.72-1.91v6.44l-23.41-1.46Z"/></g></g></svg>