<svg xmlns="http://www.w3.org/2000/svg" viewBox="0 0 453.71 72"><defs><style>.cls-1{fill:#121212;fill-rule:evenodd;}</style></defs><title>323HP</title><g id="Layer_2" data-name="Layer 2"><g id="Layer_1-2" data-name="Layer 1"><path class="cls-1" d="M0,55.42V72H39.21q10.89,0,16.67-.18c3.85-.13,7.08-.35,9.71-.69a27.18,27.18,0,0,0,6.55-1.56A15.78,15.78,0,0,0,77,66.5a15,15,0,0,0,2.15-2.42,9.63,9.63,0,0,0,1.24-2.8A24.5,24.5,0,0,0,81,57.07c.16-1.71.23-3.91.23-6.6a32.86,32.86,0,0,0-.36-5.22,9.74,9.74,0,0,0-1.61-4,10.26,10.26,0,0,0-3.75-3.12,23.38,23.38,0,0,0-6.64-2.06c-1.16-.18-1.74-.33-1.74-.46s.06-.09.18-.09l.91-.27a28,28,0,0,0,6.65-2.16,8.89,8.89,0,0,0,3.48-2.84,8.35,8.35,0,0,0,1.32-3.38A33.08,33.08,0,0,0,80,22V20.7q0-4-.18-6.41a17.1,17.1,0,0,0-.64-3.76A7.48,7.48,0,0,0,77.91,8.2,19.66,19.66,0,0,0,75.66,6a17.78,17.78,0,0,0-4.58-3.11A21.53,21.53,0,0,0,65,1.24,85.78,85.78,0,0,0,55.79.6Q50.38.45,39.21.46,35.36.46,19.69.37H6.32Q2.48.37,0,.46V16.58H50.84a13.53,13.53,0,0,1,6,1.15c1.52.76,2.32,2.21,2.38,4.35S58.73,26,57.66,27s-3.22,1.56-6.45,1.56H14.84V43h37.1c3,0,5.14.48,6.46,1.42a4.92,4.92,0,0,1,2,4.26c0,2.63-.49,4.41-1.47,5.36s-3.42,1.42-7.33,1.42Z"/><path class="cls-1" d="M170.2,36.09q1.92-4.31,1.92-13.65a50.76,50.76,0,0,0-.78-9.8,13.71,13.71,0,0,0-3.25-6.59,15.73,15.73,0,0,0-7.37-4.22,46.53,46.53,0,0,0-13-1.46H91v16.3h50.11a52.79,52.79,0,0,1,5.68.37,7.87,7.87,0,0,1,3.11,1,3.48,3.48,0,0,1,1.51,2.11,14.65,14.65,0,0,1,.42,4q0,4.31-3.12,5.54t-11,1.61l-5.45.32q-4.17.23-8.11.5L114,32.75q-6.23.41-9.25.69a20.15,20.15,0,0,0-9.62,2.74,17.26,17.26,0,0,0-3.93,3.94,29.87,29.87,0,0,0-1.61,3.12,14.23,14.23,0,0,0-.78,2.52,21.83,21.83,0,0,0-.36,3.29q-.09,2-.09,6.09L88.21,72h84.1V55.79H108.18c0-3.24.74-5.32,2.2-6.23a7.17,7.17,0,0,1,2.61-.87c1-.16,2.67-.32,5-.51s3.88-.24,5-.36q3.3-.28,8.34-.64,8.79-.65,13.65-1.06t8.61-.78a33.27,33.27,0,0,0,9.11-1.69,11.49,11.49,0,0,0,5.64-4.26l1-1.65a2.73,2.73,0,0,0,.46-.82C170,36.49,170.14,36.21,170.2,36.09Z"/><path class="cls-1" d="M180.27,55.42V72h39.21q10.91,0,16.67-.18c3.85-.13,7.09-.35,9.71-.69a27.06,27.06,0,0,0,6.55-1.56,15.66,15.66,0,0,0,4.81-3.07,14.56,14.56,0,0,0,2.15-2.42,9.37,9.37,0,0,0,1.24-2.8,24.39,24.39,0,0,0,.69-4.21q.22-2.57.23-6.6a32.75,32.75,0,0,0-.37-5.22,9.72,9.72,0,0,0-1.6-4,10.38,10.38,0,0,0-3.76-3.12,23.27,23.27,0,0,0-6.64-2.06c-1.16-.18-1.74-.33-1.74-.46s.06-.09.18-.09l.92-.27a27.89,27.89,0,0,0,6.64-2.16,8.75,8.75,0,0,0,3.48-2.84A8.37,8.37,0,0,0,260,26.89a34.77,34.77,0,0,0,.27-4.91V20.7q0-4-.18-6.41a16,16,0,0,0-.64-3.76,7.48,7.48,0,0,0-1.24-2.33A19.45,19.45,0,0,0,255.94,6a18,18,0,0,0-4.58-3.11,21.61,21.61,0,0,0-6.14-1.6A85.59,85.59,0,0,0,236.06.6q-5.4-.15-16.58-.14Q215.64.46,200,.37H186.6q-3.85,0-6.33.09V16.58h50.84a13.5,13.5,0,0,1,6,1.15q2.29,1.14,2.38,4.35c0,2.26-.53,3.9-1.6,4.94s-3.22,1.56-6.46,1.56H195.11V43h37.1c3,0,5.15.48,6.46,1.42a4.92,4.92,0,0,1,2,4.26c0,2.63-.49,4.41-1.46,5.36s-3.42,1.42-7.33,1.42Z"/><polygon class="cls-1" points="339.85 45.16 339.85 72 362.29 72 362.29 0 339.85 0 339.85 25.92 291.85 25.92 291.85 0 269.4 0 269.4 72 291.85 72 291.85 45.16 339.85 45.16"/><path class="cls-1" d="M430.9,49q12.47,0,17.63-6.46t5.18-20.11a32.43,32.43,0,0,0-1.56-10.9,14.72,14.72,0,0,0-4.81-6.82,20.38,20.38,0,0,0-8.29-3.62A60.35,60.35,0,0,0,426.5,0H368.7V72h22.44V18.05h33.44a8.87,8.87,0,0,1,5.77,2.1,7,7,0,0,1,2.75,5.13,6.93,6.93,0,0,1-2.66,5.82,9.73,9.73,0,0,1-6.13,2.06H394.26L411.94,49Z"/></g></g></svg>