<svg xmlns="http://www.w3.org/2000/svg" viewBox="0 0 453.71 72.09"><defs><style>.cls-1{fill:#121212;fill-rule:evenodd;}</style></defs><title>335HP</title><g id="Layer_2" data-name="Layer 2"><g id="Layer_1-2" data-name="Layer 1"><path class="cls-1" d="M0,55.42V72H39.21q10.89,0,16.67-.18c3.85-.13,7.08-.35,9.71-.69a27.18,27.18,0,0,0,6.55-1.56A15.78,15.78,0,0,0,77,66.5a15,15,0,0,0,2.15-2.42,9.63,9.63,0,0,0,1.24-2.8A24.5,24.5,0,0,0,81,57.07c.16-1.71.23-3.91.23-6.6a32.86,32.86,0,0,0-.36-5.22,9.74,9.74,0,0,0-1.61-4,10.26,10.26,0,0,0-3.75-3.12,23.38,23.38,0,0,0-6.64-2.06c-1.16-.18-1.74-.33-1.74-.46s.06-.09.18-.09l.91-.27a28,28,0,0,0,6.65-2.16,8.89,8.89,0,0,0,3.48-2.84,8.35,8.35,0,0,0,1.32-3.38A33.08,33.08,0,0,0,80,22V20.7q0-4-.18-6.41a17.1,17.1,0,0,0-.64-3.76A7.48,7.48,0,0,0,77.91,8.2,19.66,19.66,0,0,0,75.66,6a17.78,17.78,0,0,0-4.58-3.11A21.53,21.53,0,0,0,65,1.24,85.78,85.78,0,0,0,55.79.6Q50.38.45,39.21.46,35.36.46,19.69.37H6.32Q2.48.37,0,.46V16.58H50.84a13.53,13.53,0,0,1,6,1.15c1.52.76,2.32,2.21,2.38,4.35S58.73,26,57.66,27s-3.22,1.56-6.45,1.56H14.84V43h37.1c3,0,5.14.48,6.46,1.42a4.92,4.92,0,0,1,2,4.26c0,2.63-.49,4.41-1.47,5.36s-3.42,1.42-7.33,1.42Z"/><path class="cls-1" d="M89,55.42V72h39.2q10.9,0,16.68-.18c3.84-.13,7.08-.35,9.71-.69a27.18,27.18,0,0,0,6.55-1.56A15.62,15.62,0,0,0,166,66.5a14.66,14.66,0,0,0,2.16-2.42,9.37,9.37,0,0,0,1.23-2.8,23.45,23.45,0,0,0,.69-4.21q.23-2.57.23-6.6a31.62,31.62,0,0,0-.37-5.22,9.72,9.72,0,0,0-1.6-4,10.3,10.3,0,0,0-3.76-3.12,23.17,23.17,0,0,0-6.64-2.06c-1.16-.18-1.74-.33-1.74-.46s.06-.09.19-.09l.91-.27a27.74,27.74,0,0,0,6.64-2.16,8.75,8.75,0,0,0,3.48-2.84,8.23,8.23,0,0,0,1.33-3.38A33.08,33.08,0,0,0,169,22V20.7q0-4-.19-6.41a16,16,0,0,0-.64-3.76A7.27,7.27,0,0,0,167,8.2,19.66,19.66,0,0,0,164.7,6a17.78,17.78,0,0,0-4.58-3.11A21.61,21.61,0,0,0,154,1.24,85.39,85.39,0,0,0,144.82.6q-5.4-.15-16.58-.14-3.84,0-19.51-.09H95.36c-2.57,0-4.67,0-6.32.09V16.58h50.84a13.46,13.46,0,0,1,6,1.15c1.53.76,2.32,2.21,2.39,4.35S147.77,26,146.7,27s-3.22,1.56-6.46,1.56H103.88V43H141c3,0,5.14.48,6.46,1.42a4.92,4.92,0,0,1,2,4.26c0,2.63-.48,4.41-1.46,5.36s-3.42,1.42-7.33,1.42Z"/><path class="cls-1" d="M235.05,23.63H197.77V17.31H258.5V.46H180V37.92h49.92q6.51.09,8.61,2.16c1.41,1.37,2.11,3.65,2.11,6.82a20.36,20.36,0,0,1-.32,3.94A5.5,5.5,0,0,1,239,53.5c-1.52,1.58-4.52,2.38-9,2.38H177.8V72.09H229a86.59,86.59,0,0,0,15.66-1.24q6.69-1.23,10.08-4.16a20.34,20.34,0,0,0,3.57-5.09,23.77,23.77,0,0,0,2-5.63,39.64,39.64,0,0,0,.78-5.31c.12-1.65.18-3.45.18-5.41a36.93,36.93,0,0,0-1.05-9.48,14.13,14.13,0,0,0-3.85-6.59,18.12,18.12,0,0,0-8-4.13A52.14,52.14,0,0,0,235.05,23.63Z"/><polygon class="cls-1" points="339.85 45.16 339.85 72 362.29 72 362.29 0 339.85 0 339.85 25.92 291.85 25.92 291.85 0 269.4 0 269.4 72 291.85 72 291.85 45.16 339.85 45.16"/><path class="cls-1" d="M430.9,49q12.47,0,17.63-6.46t5.18-20.11a32.43,32.43,0,0,0-1.56-10.9,14.72,14.72,0,0,0-4.81-6.82,20.38,20.38,0,0,0-8.29-3.62A60.35,60.35,0,0,0,426.5,0H368.7V72h22.44V18.05h33.44a8.87,8.87,0,0,1,5.77,2.1,7,7,0,0,1,2.75,5.13,6.93,6.93,0,0,1-2.66,5.82,9.73,9.73,0,0,1-6.13,2.06H394.26L411.94,49Z"/></g></g></svg>