<svg xmlns="http://www.w3.org/2000/svg" viewBox="0 0 460.95 72.09"><defs><style>.cls-1{fill:#121212;fill-rule:evenodd;}</style></defs><title>455HP</title><g id="Layer_2" data-name="Layer 2"><g id="Layer_1-2" data-name="Layer 1"><path class="cls-1" d="M86.38,43.24H75.11V1.1H50.75L0,33.62V58H55.6V72H75.11V58H86.38Zm-30.78,0H15.66L55.6,18.05Z"/><path class="cls-1" d="M151.05,23.63H113.77V17.31H174.5V.46H96V37.92h49.92q6.51.09,8.61,2.16c1.41,1.37,2.11,3.65,2.11,6.82a20.36,20.36,0,0,1-.32,3.94A5.5,5.5,0,0,1,155,53.5c-1.52,1.58-4.52,2.38-9,2.38H93.8V72.09H145a86.59,86.59,0,0,0,15.66-1.24q6.69-1.23,10.08-4.16a20.34,20.34,0,0,0,3.57-5.09,23.77,23.77,0,0,0,2-5.63,39.64,39.64,0,0,0,.78-5.31c.12-1.65.18-3.45.18-5.41a36.93,36.93,0,0,0-1.05-9.48,14.13,14.13,0,0,0-3.85-6.59,18.12,18.12,0,0,0-8-4.13A52.14,52.14,0,0,0,151.05,23.63Z"/><path class="cls-1" d="M242.29,23.63H205V17.31h60.73V.46h-78.5V37.92h49.92q6.51.09,8.61,2.16c1.41,1.37,2.11,3.65,2.11,6.82a20.36,20.36,0,0,1-.32,3.94,5.59,5.59,0,0,1-1.33,2.66c-1.53,1.58-4.52,2.38-9,2.38H185V72.09h51.2a86.63,86.63,0,0,0,15.67-1.24q6.69-1.23,10.07-4.16a20.12,20.12,0,0,0,3.58-5.09,24.22,24.22,0,0,0,2-5.63,43.16,43.16,0,0,0,.78-5.31c.12-1.65.18-3.45.18-5.41a36.93,36.93,0,0,0-1.05-9.48,14.21,14.21,0,0,0-3.85-6.59,18.16,18.16,0,0,0-8-4.13A52.05,52.05,0,0,0,242.29,23.63Z"/><polygon class="cls-1" points="347.08 45.16 347.08 72 369.53 72 369.53 0 347.08 0 347.08 25.92 299.08 25.92 299.08 0 276.64 0 276.64 72 299.08 72 299.08 45.16 347.08 45.16"/><path class="cls-1" d="M438.14,49q12.45,0,17.63-6.46T461,22.44a32.43,32.43,0,0,0-1.56-10.9,14.72,14.72,0,0,0-4.81-6.82,20.44,20.44,0,0,0-8.29-3.62A60.35,60.35,0,0,0,433.74,0h-57.8V72h22.44V18.05h33.44a8.89,8.89,0,0,1,5.77,2.1,7,7,0,0,1,2.75,5.13,6.93,6.93,0,0,1-2.66,5.82,9.76,9.76,0,0,1-6.14,2.06h-30L419.18,49Z"/></g></g></svg>