<svg xmlns="http://www.w3.org/2000/svg" viewBox="0 0 460.58 72.55"><defs><style>.cls-1{fill:#121212;fill-rule:evenodd;}</style></defs><title>505HP</title><g id="Layer_2" data-name="Layer 2"><g id="Layer_1-2" data-name="Layer 1"><path class="cls-1" d="M57.25,23.63H20V17.31H80.7V.46H2.2V37.92H52.12q6.51.09,8.61,2.16c1.41,1.37,2.11,3.65,2.11,6.82a20.36,20.36,0,0,1-.32,3.94,5.5,5.5,0,0,1-1.33,2.66c-1.53,1.58-4.52,2.38-9,2.38H0V72.09H51.21a86.59,86.59,0,0,0,15.66-1.24Q73.56,69.62,77,66.69a20.34,20.34,0,0,0,3.57-5.09,23.77,23.77,0,0,0,2-5.63,39.64,39.64,0,0,0,.78-5.31c.12-1.65.18-3.45.18-5.41a36.93,36.93,0,0,0-1-9.48,14.21,14.21,0,0,0-3.85-6.59,18.1,18.1,0,0,0-8-4.13A52,52,0,0,0,57.25,23.63Z"/><path class="cls-1" d="M177.8,36.55c0-1.77-.06-4-.18-6.73s-.28-5.61-.46-8.66a26.57,26.57,0,0,0-1.56-7.79,15.5,15.5,0,0,0-3.75-6.13,20.86,20.86,0,0,0-5.18-3.76,23.37,23.37,0,0,0-6.41-1.92,71.87,71.87,0,0,0-9.53-.83Q145,.55,134.38.55T118,.73a73,73,0,0,0-9.57.83A23.33,23.33,0,0,0,102,3.48a20.86,20.86,0,0,0-5.18,3.76,16.81,16.81,0,0,0-3.71,6.13,26,26,0,0,0-1.6,7.79q-.27,4.57-.46,8.66c-.12,2.71-.18,5-.18,6.73s.06,4.11.18,6.82.28,5.58.46,8.57a29.36,29.36,0,0,0,1.65,7.83,15.41,15.41,0,0,0,3.66,6.09A20.86,20.86,0,0,0,102,69.62a23.73,23.73,0,0,0,6.41,1.92,73,73,0,0,0,9.39.83q5.6.18,16.58.18t16.54-.18a72,72,0,0,0,9.39-.83,23.67,23.67,0,0,0,6.36-1.92,20.86,20.86,0,0,0,5.18-3.76,14.65,14.65,0,0,0,3.75-6.09,27,27,0,0,0,1.56-7.83c.18-3,.34-5.85.46-8.57S177.8,38.38,177.8,36.55Zm-20.7-8.34c.12,1.84.21,3.38.27,4.63s.1,2.46.1,3.62,0,2.27-.1,3.52-.15,2.8-.27,4.63a14.44,14.44,0,0,1-.83,4.12,7.88,7.88,0,0,1-2,3.3,13,13,0,0,1-2.75,2,10.84,10.84,0,0,1-3.39,1.05,41.06,41.06,0,0,1-5,.41c-2,.06-4.93.09-8.84.09s-6.87,0-8.89-.09a40.19,40.19,0,0,1-5-.41A11.55,11.55,0,0,1,117,54.05a12.5,12.5,0,0,1-2.79-2,8.52,8.52,0,0,1-1.92-3.25,14.17,14.17,0,0,1-.83-4.17c-.12-1.4-.21-2.84-.27-4.3s-.1-2.75-.1-3.85,0-2.48.1-3.94.15-2.9.27-4.31a14.11,14.11,0,0,1,.83-4.16,8.57,8.57,0,0,1,1.92-3.26,13.07,13.07,0,0,1,2.75-2,10.68,10.68,0,0,1,3.43-1.05,40.47,40.47,0,0,1,5-.42c2-.06,4.93-.09,8.84-.09s6.87,0,8.89.09a38.11,38.11,0,0,1,5,.42,10.23,10.23,0,0,1,6.09,3.06,8,8,0,0,1,2,3.3A14.51,14.51,0,0,1,157.1,28.21Z"/><path class="cls-1" d="M241.92,23.63H204.64V17.31h60.73V.46h-78.5V37.92h49.92q6.51.09,8.61,2.16c1.41,1.37,2.11,3.65,2.11,6.82a20.36,20.36,0,0,1-.32,3.94,5.5,5.5,0,0,1-1.33,2.66c-1.52,1.58-4.52,2.38-9,2.38H184.67V72.09h51.21a86.59,86.59,0,0,0,15.66-1.24q6.69-1.23,10.08-4.16a20.34,20.34,0,0,0,3.57-5.09,23.77,23.77,0,0,0,2-5.63,39.64,39.64,0,0,0,.78-5.31c.12-1.65.18-3.45.18-5.41a36.93,36.93,0,0,0-1.05-9.48,14.13,14.13,0,0,0-3.85-6.59,18.12,18.12,0,0,0-8-4.13A52.08,52.08,0,0,0,241.92,23.63Z"/><polygon class="cls-1" points="346.72 45.16 346.72 72 369.16 72 369.16 0 346.72 0 346.72 25.92 298.72 25.92 298.72 0 276.27 0 276.27 72 298.72 72 298.72 45.16 346.72 45.16"/><path class="cls-1" d="M437.77,49q12.47,0,17.63-6.46t5.18-20.11A32.43,32.43,0,0,0,459,11.54a14.72,14.72,0,0,0-4.81-6.82,20.38,20.38,0,0,0-8.29-3.62A60.35,60.35,0,0,0,433.37,0h-57.8V72H398V18.05h33.43a8.87,8.87,0,0,1,5.77,2.1A7,7,0,0,1,440,25.28a6.93,6.93,0,0,1-2.66,5.82,9.73,9.73,0,0,1-6.13,2.06H401.13L418.81,49Z"/></g></g></svg>