<svg xmlns="http://www.w3.org/2000/svg" viewBox="0 0 459.66 72.55"><defs><style>.cls-1{fill:#121212;fill-rule:evenodd;}</style></defs><title>650HP</title><g id="Layer_2" data-name="Layer 2"><g id="Layer_1-2" data-name="Layer 1"><path class="cls-1" d="M56,43.05h.09a9.25,9.25,0,0,1,5.77,2,5.9,5.9,0,0,1,2.57,4.81,5.78,5.78,0,0,1-2.66,5.09,10.6,10.6,0,0,1-6.05,1.78H28.4a10.6,10.6,0,0,1-6-1.78,5.78,5.78,0,0,1-2.66-5.09A6.2,6.2,0,0,1,22.35,45a9.12,9.12,0,0,1,5.68-2H56ZM20.52,27a20,20,0,0,1,.64-5.77,5.2,5.2,0,0,1,2.06-2.93,8.24,8.24,0,0,1,3.67-1.14C28.38,17,30.6,17,33.53,17H64.76L80.61,17V.46H27.11a54.23,54.23,0,0,0-11.72,1.1A21.61,21.61,0,0,0,7,5.22a16,16,0,0,0-5.22,6.92A28.72,28.72,0,0,0,0,23v28.4a27.94,27.94,0,0,0,1.24,8.2,11.27,11.27,0,0,0,3.8,6,32.63,32.63,0,0,0,5.59,3.66,23.59,23.59,0,0,0,6.22,2,70.07,70.07,0,0,0,9.3,1q5.64.28,15.44.28h.09q10,0,15.94-.19a81.31,81.31,0,0,0,9.71-.77,24.18,24.18,0,0,0,6.23-1.74,18.6,18.6,0,0,0,4.67-3.16,12.5,12.5,0,0,0,3.48-6.33,47.33,47.33,0,0,0,1-11h.09A42.12,42.12,0,0,0,81.57,38.2c-.82-3-1.94-5-3.34-6.14a17.76,17.76,0,0,0-4.63-2.61,30.4,30.4,0,0,0-6.5-1.51A96.2,96.2,0,0,0,57,27.21Q50.93,27,41.22,27Z"/><path class="cls-1" d="M147.57,23.63H110.29V17.31H171V.46H92.52V37.92h49.92q6.51.09,8.61,2.16c1.41,1.37,2.11,3.65,2.11,6.82a20.36,20.36,0,0,1-.32,3.94,5.5,5.5,0,0,1-1.33,2.66c-1.53,1.58-4.52,2.38-9,2.38H90.32V72.09h51.21a86.59,86.59,0,0,0,15.66-1.24q6.69-1.23,10.08-4.16a20.34,20.34,0,0,0,3.57-5.09,23.77,23.77,0,0,0,2-5.63,39.64,39.64,0,0,0,.78-5.31c.12-1.65.18-3.45.18-5.41a36.93,36.93,0,0,0-1.05-9.48,14.13,14.13,0,0,0-3.85-6.59,18.1,18.1,0,0,0-8-4.13A52,52,0,0,0,147.57,23.63Z"/><path class="cls-1" d="M268.12,36.55c0-1.77-.06-4-.18-6.73s-.28-5.61-.46-8.66a26.57,26.57,0,0,0-1.56-7.79,15.5,15.5,0,0,0-3.75-6.13A20.86,20.86,0,0,0,257,3.48a23.37,23.37,0,0,0-6.41-1.92,71.87,71.87,0,0,0-9.53-.83Q235.34.55,224.7.55T208.35.73a73,73,0,0,0-9.57.83,23.33,23.33,0,0,0-6.46,1.92,20.86,20.86,0,0,0-5.18,3.76,16.66,16.66,0,0,0-3.7,6.13,25.72,25.72,0,0,0-1.61,7.79q-.27,4.57-.46,8.66c-.12,2.71-.18,5-.18,6.73s.06,4.11.18,6.82.28,5.58.46,8.57a29.75,29.75,0,0,0,1.65,7.83,15.41,15.41,0,0,0,3.66,6.09,20.86,20.86,0,0,0,5.18,3.76,23.73,23.73,0,0,0,6.41,1.92,73,73,0,0,0,9.39.83q5.59.18,16.58.18t16.54-.18a72,72,0,0,0,9.39-.83A23.67,23.67,0,0,0,257,69.62a20.86,20.86,0,0,0,5.18-3.76,14.65,14.65,0,0,0,3.75-6.09,27,27,0,0,0,1.56-7.83c.18-3,.34-5.85.46-8.57S268.12,38.38,268.12,36.55Zm-20.7-8.34c.12,1.84.21,3.38.27,4.63s.1,2.46.1,3.62,0,2.27-.1,3.52-.15,2.8-.27,4.63a14.76,14.76,0,0,1-.82,4.12,7.89,7.89,0,0,1-2,3.3,13,13,0,0,1-2.75,2,10.84,10.84,0,0,1-3.39,1.05,40.88,40.88,0,0,1-5,.41q-3,.09-8.84.09t-8.88-.09a40.2,40.2,0,0,1-5-.41,11.55,11.55,0,0,1-3.39-1.05,12.73,12.73,0,0,1-2.79-2,8.52,8.52,0,0,1-1.92-3.25,14.17,14.17,0,0,1-.83-4.17c-.12-1.4-.21-2.84-.27-4.3s-.09-2.75-.09-3.85,0-2.48.09-3.94.15-2.9.27-4.31a14.11,14.11,0,0,1,.83-4.16,8.57,8.57,0,0,1,1.92-3.26,13.33,13.33,0,0,1,2.75-2,10.68,10.68,0,0,1,3.43-1.05,40.47,40.47,0,0,1,5-.42c2-.06,4.93-.09,8.84-.09s6.87,0,8.89.09a38,38,0,0,1,5,.42,11.26,11.26,0,0,1,3.39,1.05,11.08,11.08,0,0,1,2.7,2,8,8,0,0,1,2,3.3A14.83,14.83,0,0,1,247.42,28.21Z"/><polygon class="cls-1" points="345.8 45.16 345.8 72 368.24 72 368.24 0 345.8 0 345.8 25.92 297.8 25.92 297.8 0 275.36 0 275.36 72 297.8 72 297.8 45.16 345.8 45.16"/><path class="cls-1" d="M436.85,49q12.47,0,17.64-6.46t5.17-20.11a32.7,32.7,0,0,0-1.55-10.9,14.72,14.72,0,0,0-4.81-6.82A20.44,20.44,0,0,0,445,1.1,60.35,60.35,0,0,0,432.46,0h-57.8V72H397.1V18.05h33.43a8.89,8.89,0,0,1,5.78,2.1,7,7,0,0,1,2.74,5.13,6.93,6.93,0,0,1-2.65,5.82,9.76,9.76,0,0,1-6.14,2.06H400.21L417.89,49Z"/></g></g></svg>