<svg xmlns="http://www.w3.org/2000/svg" viewBox="0 0 1474.44 72.64"><defs><style>.cls-1,.cls-2{fill:#121212;}.cls-1{fill-rule:evenodd;}</style></defs><title>6_2L-SUPERCHARGED</title><g id="Layer_2" data-name="Layer 2"><g id="Layer_1-2" data-name="Layer 1"><path class="cls-1" d="M56,43.05h.09a9.25,9.25,0,0,1,5.77,2,5.9,5.9,0,0,1,2.57,4.81,5.78,5.78,0,0,1-2.66,5.09,10.6,10.6,0,0,1-6.05,1.78H28.4a10.6,10.6,0,0,1-6-1.78,5.78,5.78,0,0,1-2.66-5.09A6.2,6.2,0,0,1,22.35,45a9.12,9.12,0,0,1,5.68-2H56ZM20.52,27a20,20,0,0,1,.64-5.77,5.2,5.2,0,0,1,2.06-2.93,8.24,8.24,0,0,1,3.67-1.14C28.38,17,30.6,17,33.53,17H64.76L80.61,17V.46H27.11a54.23,54.23,0,0,0-11.72,1.1A21.61,21.61,0,0,0,7,5.22a16,16,0,0,0-5.22,6.92A28.72,28.72,0,0,0,0,23v28.4a27.94,27.94,0,0,0,1.24,8.2,11.27,11.27,0,0,0,3.8,6,32.63,32.63,0,0,0,5.59,3.66,23.59,23.59,0,0,0,6.22,2,70.07,70.07,0,0,0,9.3,1q5.64.28,15.44.28h.09q10,0,15.94-.19a81.31,81.31,0,0,0,9.71-.77,24.18,24.18,0,0,0,6.23-1.74,18.6,18.6,0,0,0,4.67-3.16,12.5,12.5,0,0,0,3.48-6.33,47.33,47.33,0,0,0,1-11h.09A42.12,42.12,0,0,0,81.57,38.2c-.82-3-1.94-5-3.34-6.14a17.76,17.76,0,0,0-4.63-2.61,30.4,30.4,0,0,0-6.5-1.51A96.2,96.2,0,0,0,57,27.21Q50.93,27,41.22,27Z"/><rect class="cls-2" x="90.69" y="52.76" width="20.89" height="19.24"/><path class="cls-1" d="M200.61,36.09q1.92-4.31,1.92-13.65a51.67,51.67,0,0,0-.77-9.8,13.73,13.73,0,0,0-3.26-6.59,15.68,15.68,0,0,0-7.37-4.22,46.53,46.53,0,0,0-13-1.46h-56.8v16.3h50.11a52.6,52.6,0,0,1,5.68.37,7.87,7.87,0,0,1,3.11,1,3.54,3.54,0,0,1,1.52,2.11,15.13,15.13,0,0,1,.41,4q0,4.31-3.12,5.54t-11,1.61c-.85.06-2.67.16-5.45.32s-5.48.32-8.11.5l-10.16.69c-4.16.27-7.24.5-9.26.69a20.11,20.11,0,0,0-9.61,2.74,17.1,17.1,0,0,0-3.94,3.94A29.87,29.87,0,0,0,120,43.24a13.43,13.43,0,0,0-.77,2.52,20.47,20.47,0,0,0-.37,3.29q-.09,2-.09,6.09L118.63,72h84.09V55.79H138.6q0-4.86,2.19-6.23a7.31,7.31,0,0,1,2.61-.87c1-.16,2.68-.32,5-.51s3.87-.24,5-.36q3.28-.28,8.33-.64,8.79-.65,13.65-1.06t8.61-.78a33.27,33.27,0,0,0,9.11-1.69,11.4,11.4,0,0,0,5.64-4.26l1-1.65a3,3,0,0,0,.45-.82C200.43,36.49,200.55,36.21,200.61,36.09Z"/><polygon class="cls-1" points="232.4 54.59 232.4 0 209.95 0 209.95 72 211.24 72 233.95 72 281.04 72 281.04 54.59 232.4 54.59"/><path class="cls-1" d="M416.61,36q-4-6.78-14.11-7.33c-1.28-.12-2.9-.23-4.85-.32L390.46,28q-4.26-.18-15.25-.55c-5.32-.18-8.52-.3-9.62-.37h-3.76A17.41,17.41,0,0,1,355,26c-1.65-.74-2.47-2.26-2.47-4.58a5.59,5.59,0,0,1,.78-3.12,4.9,4.9,0,0,1,2.06-1.79,9.27,9.27,0,0,1,2.75-.77,25.06,25.06,0,0,1,3.29-.19h55.52V0H349.37q-10,0-14.29,5.59t-4.3,16.76q0,9.07,3.11,13.65,4.39,6.14,14.57,6.69c1.34.12,3,.23,4.85.32l6.05.27,15.85.6q8.06.27,9.8.36c1.89,0,3.49,0,4.81.14a16.08,16.08,0,0,1,3.8.73,6.53,6.53,0,0,1,3,1.93,5.21,5.21,0,0,1,1.14,3.52,5.36,5.36,0,0,1-.82,3.12,5.16,5.16,0,0,1-2.2,1.79,10.62,10.62,0,0,1-3,.77,29.38,29.38,0,0,1-3.53.19H332.7V72h65q11.44,0,16.63-5.22t5.17-16.86Q419.54,41.6,416.61,36Z"/><path class="cls-1" d="M426.5,0V51.11a27.8,27.8,0,0,0,1.06,8.25,15.41,15.41,0,0,0,4,6.32,34.64,34.64,0,0,0,5.18,4,17.15,17.15,0,0,0,5.77,1.92,71.62,71.62,0,0,0,10,.83q6.41.18,19.51.18t19.56-.18a71.35,71.35,0,0,0,10-.83,16.84,16.84,0,0,0,5.68-1.87,35.67,35.67,0,0,0,5.18-4.08,15.41,15.41,0,0,0,4-6.32,28.13,28.13,0,0,0,1.06-8.25V0H495.39V48a4.12,4.12,0,0,1-1.79,3.44q-1.78,1.32-5.81,1.32H455.91c-2.51,0-4.35-.44-5.54-1.32A4.12,4.12,0,0,1,448.58,48V0Z"/><path class="cls-1" d="M586.08,49q12.45,0,17.63-6.46t5.18-20.11a32.43,32.43,0,0,0-1.56-10.9,14.72,14.72,0,0,0-4.81-6.82,20.44,20.44,0,0,0-8.29-3.62A60.35,60.35,0,0,0,581.68,0h-57.8V72h22.44V18.05h33.44a8.89,8.89,0,0,1,5.77,2.1,7,7,0,0,1,2.74,5.13,6.93,6.93,0,0,1-2.65,5.82,9.76,9.76,0,0,1-6.14,2.06h-30L567.11,49Z"/><polygon class="cls-1" points="636 55.24 636 43.33 689.04 43.33 689.04 28.76 636 28.76 636 16.67 692.52 16.67 692.52 0 637.28 0 614.47 0 613.56 0 613.56 72 615.11 72 637.28 72 692.52 72 692.52 55.24 636 55.24"/><path class="cls-1" d="M759.11,32.79H726.87L770.2,72h24.91l-29.4-25.56v-.36a37.43,37.43,0,0,0,10.67-1.29,14.93,14.93,0,0,0,6.83-4A16.57,16.57,0,0,0,787,33.53a43.73,43.73,0,0,0,1.19-11.09,33.33,33.33,0,0,0-1.51-10.9,14.56,14.56,0,0,0-4.72-6.82,20,20,0,0,0-8.24-3.62A60.88,60.88,0,0,0,761,0H701.31V72h22.45V18h35.63A8.71,8.71,0,0,1,765.16,20a6.52,6.52,0,0,1,2.47,5.26,6.54,6.54,0,0,1-2.56,5.59A9.68,9.68,0,0,1,759.11,32.79Z"/><path class="cls-1" d="M800.24,41.68V52.12q0,9.81,5.73,14.84t17.63,5h61.93V54.6H826.08a7.72,7.72,0,0,1-4.81-1.2,3.85,3.85,0,0,1-1.51-3.2l-.28-5.68v-17l.28-5.95a3.25,3.25,0,0,1,1.55-2.75,8.36,8.36,0,0,1,4.77-1.1h59.45V0H823.6Q811.69,0,806,5T800.24,20V41.68Z"/><polygon class="cls-1" points="962.93 45.16 962.93 72 985.37 72 985.37 0 962.93 0 962.93 25.92 914.93 25.92 914.93 0 892.49 0 892.49 72 914.93 72 914.93 45.16 962.93 45.16"/><path class="cls-1" d="M1064.43,59.73,1071,72h24.92L1056.82,0h-28.76L988.58,72h24.92l6.68-12.27Zm-22.17-41.41,13.92,25.92h-27.84Z"/><path class="cls-1" d="M1157.5,32.79h-32.25L1168.58,72h24.92l-29.41-25.56v-.36a37.38,37.38,0,0,0,10.67-1.29,14.93,14.93,0,0,0,6.83-4,16.57,16.57,0,0,0,3.75-7.23,43.73,43.73,0,0,0,1.19-11.09,33.33,33.33,0,0,0-1.51-10.9,14.55,14.55,0,0,0-4.71-6.82,20.07,20.07,0,0,0-8.25-3.62A60.88,60.88,0,0,0,1159.42,0h-59.73V72h22.45V18h35.63a8.71,8.71,0,0,1,5.77,2.07,6.53,6.53,0,0,1,2.48,5.26,6.55,6.55,0,0,1-2.57,5.59A9.65,9.65,0,0,1,1157.5,32.79Z"/><path class="cls-1" d="M1285.92,0h-67.23q-12,0-17.87,5T1195,19.88V53a24,24,0,0,0,1,7.56,12.21,12.21,0,0,0,3.76,5.35,16.72,16.72,0,0,0,5,3.53,25.82,25.82,0,0,0,7.06,1.83,98.7,98.7,0,0,0,10.53.78q6.23.18,18.14.18t18.18-.18a100.82,100.82,0,0,0,10.63-.78,27.72,27.72,0,0,0,7.23-1.83A17.36,17.36,0,0,0,1281.8,66a13.49,13.49,0,0,0,3.44-5.45,24.63,24.63,0,0,0,1-7.46V28.4h-46.72V42h27.21V50.2a3.55,3.55,0,0,1-1.56,3q-1.56,1.14-5.13,1.14h-38.84c-2.63,0-4.38-.26-5.27-.78s-1.33-1.63-1.33-3.34V21.44a3.19,3.19,0,0,1,1.56-2.66,9,9,0,0,1,5-1.1h64.76Z"/><polygon class="cls-1" points="1316.52 55.24 1316.52 43.33 1369.56 43.33 1369.56 28.76 1316.52 28.76 1316.52 16.67 1373.04 16.67 1373.04 0 1317.8 0 1294.99 0 1294.08 0 1294.08 72 1295.63 72 1317.8 72 1373.04 72 1373.04 55.24 1316.52 55.24"/><path class="cls-1" d="M1403,72h48q11.91,0,17.68-5t5.77-14.61V19.6q0-9.62-5.77-14.61T1451,0h-70.07V72H1403Zm-1.19-17V17.31h46.72a8,8,0,0,1,4.81,1.15,3.55,3.55,0,0,1,1.51,3v29.4a3.58,3.58,0,0,1-1.51,3,8.05,8.05,0,0,1-4.81,1.14H1401.8Z"/></g></g></svg>