<svg xmlns="http://www.w3.org/2000/svg" viewBox="0 0 284.61 72.55"><defs><style>.cls-1,.cls-2{fill:#121212;}.cls-1{fill-rule:evenodd;}</style></defs><title>7_0L</title><g id="Layer_2" data-name="Layer 2"><g id="Layer_1-2" data-name="Layer 1"><path class="cls-1" d="M85.28.64H0V18.69H57.89L11.82,72h26L85.28,17.22Z"/><rect class="cls-2" x="92.06" y="52.76" width="20.89" height="19.24"/><path class="cls-1" d="M207.11,36.55c0-1.77-.06-4-.18-6.73s-.27-5.61-.46-8.66a26.88,26.88,0,0,0-1.55-7.79,15.62,15.62,0,0,0-3.76-6.13A20.68,20.68,0,0,0,196,3.48a23.27,23.27,0,0,0-6.41-1.92,71.86,71.86,0,0,0-9.52-.83Q174.32.55,163.69.55T147.34.73a73.36,73.36,0,0,0-9.57.83,23.44,23.44,0,0,0-6.46,1.92,20.82,20.82,0,0,0-5.17,3.76,16.54,16.54,0,0,0-3.71,6.13,26,26,0,0,0-1.61,7.79q-.27,4.57-.45,8.66c-.13,2.71-.19,5-.19,6.73s.06,4.11.19,6.82.27,5.58.45,8.57a30.16,30.16,0,0,0,1.65,7.83,15.31,15.31,0,0,0,3.67,6.09,20.82,20.82,0,0,0,5.17,3.76,23.69,23.69,0,0,0,6.42,1.92,72.67,72.67,0,0,0,9.38.83q5.59.18,16.58.18t16.54-.18a72,72,0,0,0,9.39-.83A23.67,23.67,0,0,0,196,69.62a20.68,20.68,0,0,0,5.18-3.76,14.77,14.77,0,0,0,3.76-6.09,27.34,27.34,0,0,0,1.55-7.83q.28-4.48.46-8.57C207.05,40.66,207.11,38.38,207.11,36.55Zm-20.7-8.34c.12,1.84.22,3.38.28,4.63s.09,2.46.09,3.62,0,2.27-.09,3.52-.16,2.8-.28,4.63a14.41,14.41,0,0,1-.82,4.12,7.89,7.89,0,0,1-2,3.3,12.79,12.79,0,0,1-2.75,2,10.85,10.85,0,0,1-3.38,1.05,41.25,41.25,0,0,1-5,.41q-3,.09-8.84.09t-8.88-.09a39.85,39.85,0,0,1-5-.41,11.37,11.37,0,0,1-3.39-1.05,12.55,12.55,0,0,1-2.8-2,8.65,8.65,0,0,1-1.92-3.25,14.17,14.17,0,0,1-.83-4.17c-.12-1.4-.21-2.84-.27-4.3s-.09-2.75-.09-3.85,0-2.48.09-3.94.15-2.9.27-4.31a14.11,14.11,0,0,1,.83-4.16,8.69,8.69,0,0,1,1.92-3.26,13.33,13.33,0,0,1,2.75-2,10.74,10.74,0,0,1,3.44-1.05,40.13,40.13,0,0,1,5-.42c2-.06,4.93-.09,8.84-.09s6.87,0,8.89.09a38,38,0,0,1,5,.42,11.26,11.26,0,0,1,3.39,1.05,10.89,10.89,0,0,1,2.7,2,8,8,0,0,1,2,3.3A14.48,14.48,0,0,1,186.41,28.21Z"/><polygon class="cls-1" points="235.97 54.59 235.97 0 213.53 0 213.53 72 214.81 72 237.53 72 284.61 72 284.61 54.59 235.97 54.59"/></g></g></svg>