<svg xmlns="http://www.w3.org/2000/svg" viewBox="0 0 1059.24 52.65"><defs><style>.cls-1,.cls-2,.cls-3{fill-rule:evenodd;}.cls-2{fill:#121212;}.cls-3{fill:none;}</style></defs><title>Camaro-V6</title><g id="Layer_2" data-name="Layer 2"><g id="Layer_1-2" data-name="Layer 1"><path class="cls-1" d="M311.67,19.22V49a3.6,3.6,0,0,0,3.6,3.6h17.42a3.6,3.6,0,0,0,3.6-3.6V19.22H363.9V49a3.6,3.6,0,0,0,3.6,3.6h21.6a3.6,3.6,0,0,0,3.6-3.6V12a3.6,3.6,0,0,0-3.6-3.6h-133V9.69a3.56,3.56,0,0,0-.86,2.33V49a3.6,3.6,0,0,0,3.6,3.6h21.6a3.6,3.6,0,0,0,3.6-3.6V19.22Z"/><path class="cls-1" d="M28.8,52.56H99.66a3.6,3.6,0,0,0,3.6-3.6v-3.6a3.6,3.6,0,0,0-3.6-3.6H28.8V19.22H99.66a3.6,3.6,0,0,0,3.6-3.6V12a3.6,3.6,0,0,0-3.6-3.6H3.6A3.6,3.6,0,0,0,0,12V49a3.6,3.6,0,0,0,3.6,3.6H28.8Z"/><path class="cls-1" d="M779.07,52.56h3.44a3.6,3.6,0,0,0,3.6-3.6V12a3.6,3.6,0,0,0-3.6-3.6h-98a3.6,3.6,0,0,0-3.6,3.6V49a3.6,3.6,0,0,0,3.6,3.6h94.55ZM757.31,19.22V41.76H709.72V19.22Z"/><path class="cls-1" d="M613.2,38.59,632.06,51.9a3.46,3.46,0,0,0,2.08.66h23.55A3.6,3.6,0,0,0,659.76,46l-11.17-7.88H654a3.6,3.6,0,0,0,3.6-3.6V12a3.6,3.6,0,0,0-3.6-3.6H553a3.6,3.6,0,0,0-3.6,3.6V49a3.6,3.6,0,0,0,3.6,3.6h21.6a3.6,3.6,0,0,0,3.6-3.6V38.59Zm17.64-19.37v8.57H578.16V19.22Z"/><path class="cls-1" d="M424.49,8.42h-5.64a3.6,3.6,0,0,0-3.6,3.6V49a3.6,3.6,0,0,0,3.6,3.6h21.6a3.6,3.6,0,0,0,3.6-3.6V38.59h54V49a3.6,3.6,0,0,0,3.6,3.6h21.6a3.6,3.6,0,0,0,3.6-3.6V12a3.6,3.6,0,0,0-3.6-3.6H424.49Zm19.56,19.37V19.22h54v8.57Z"/><path class="cls-1" d="M128.09,8.42h-4.61a3.6,3.6,0,0,0-3.6,3.6V49a3.6,3.6,0,0,0,3.6,3.6h21.6a3.6,3.6,0,0,0,3.6-3.6V38.59h53.11V49a3.6,3.6,0,0,0,3.6,3.6H227a3.61,3.61,0,0,0,3.6-3.6V12a3.6,3.6,0,0,0-3.6-3.6h-98.9Zm20.59,19.37V19.22h53.11v8.57Z"/><path class="cls-2" d="M956.48,9.35a4.47,4.47,0,0,0-.6.63L934.85,37a7.05,7.05,0,0,0-1.21,5.09,9.74,9.74,0,0,0,5.55,7.06c6,3,16.58,3.49,24.12,3.46h38.36c8.07,0,17.79-.39,25.84-2.65a27.34,27.34,0,0,0,5.29-2.09,13.51,13.51,0,0,0,5.64-5.11c1.23-1.77,11.73-15.68,13.22-17.37a4.31,4.31,0,0,0-3.24-7.17H981.59l1.55-1.79a23.18,23.18,0,0,1,11.41-2l30.22,0,3.89.59a6.85,6.85,0,0,1,2.93,1.39,4.32,4.32,0,0,0,2.71,1h20.62a4.31,4.31,0,0,0,4.32-4.32,4.54,4.54,0,0,0-.14-1.1,11.8,11.8,0,0,0-6.5-8.82,22.51,22.51,0,0,0-6.89-2.36c-4.3-.49-8.63-.77-13-.84H995Q987,0,978.94.67c-6,.59-14.43,3.25-19.59,6.6A4.32,4.32,0,0,0,955.92.33H934.59a4.27,4.27,0,0,0-2.25.63l-45.72,27.9L885,4a4.31,4.31,0,0,0-4.31-4H860.33A4.32,4.32,0,0,0,856,4.32c0,.13,0,.27,0,.4l4.07,44a4.32,4.32,0,0,0,4.3,3.92h19.2a4.29,4.29,0,0,0,2.23-.62ZM882.77,36.27,934.59,4.65h21.33L883.6,48.33H864.4l-4.07-44h20.38Zm154.41,1.14-2.3,2.93a9.24,9.24,0,0,1-4,3.71c-7.78,3.89-20.93,4.32-29.18,4.28H963.29c-6.77,0-16.95-.42-22.18-3-1.77-.88-4.33-3.38-2.85-5.63l21-27.06c4.31-4.36,16.6-7.26,20-7.66q7.83-.66,15.71-.65h37.67c4.19.07,8.38.34,12.54.82,3.27.49,8,2.86,9,5.54l.65,2.44H1034.3a15.41,15.41,0,0,0-9.3-2.93H994.9A27.38,27.38,0,0,0,980.47,13l-8.36,9.62h76.31S1049,21.22,1037.18,37.41Z"/><path class="cls-2" d="M964.33,43.18l0,0Z"/><path class="cls-2" d="M964.33,43.18c4.4-.71,38.25-.66,39.49-.64,3,.06,7.57-.33,9.64-2.52l8.59-11.41H967.79l-9.55,11.82a1.19,1.19,0,0,0,0,.81c.21.65,1.5.94,2,1l1.92.24,3.33.11ZM967,38.6a4.14,4.14,0,0,0-1.43-.29h-.09l4.34-5.38h43.54l-3.1,4.12a1.61,1.61,0,0,1-.55.39,16.7,16.7,0,0,1-5.75.79l-23,.08Z"/><polygon class="cls-3" points="882.77 36.27 934.59 4.65 955.92 4.65 883.6 48.33 864.4 48.33 860.33 4.32 880.71 4.32 882.77 36.27"/><path class="cls-3" d="M1037.18,37.41l-2.3,2.93q-4.17,8-33.2,8H963.29q-21,0-24.51-4.89a3.31,3.31,0,0,1-.52-3.75l21-27.06q6.59-5.54,20-7.66Q987,4.33,995,4.32h37.67q7.15.16,12.54.82,7,1.46,9,5.54l.65,2.44H1034.3q-2.77-2.44-9.3-2.93H994.9q-8.85-.33-14.43,2.77l-8.36,9.62h76.31l-2.37,2.69ZM1013.46,40l8.59-11.41H967.79l-9.38,11.57-.17.25a1.16,1.16,0,0,0,0,.81c.24.92,2.65,1.39,7.24,1.39l-1.16.57q1.14-.66,39.52-.66c4.81,0,7.89-.78,9.26-2.2Z"/></g></g></svg>