<svg xmlns="http://www.w3.org/2000/svg" viewBox="0 0 1070.08 53.6"><defs><style>.cls-1,.cls-2,.cls-3{fill-rule:evenodd;}.cls-2{fill:#121212;}.cls-3{fill:none;}</style></defs><title>Camaro-LS</title><g id="Layer_2" data-name="Layer 2"><g id="Layer_1-2" data-name="Layer 1"><path d="M311.67,19.42V49.15a3.6,3.6,0,0,0,3.6,3.6h17.42a3.6,3.6,0,0,0,3.6-3.6V19.42H363.9V49.15a3.6,3.6,0,0,0,3.6,3.6h21.6a3.6,3.6,0,0,0,3.6-3.6V12.22a3.6,3.6,0,0,0-3.6-3.6h-133V9.89a3.54,3.54,0,0,0-.86,2.33V49.15a3.6,3.6,0,0,0,3.6,3.6h21.6a3.6,3.6,0,0,0,3.6-3.6V19.42Z"/><path d="M28.8,52.75H99.66a3.6,3.6,0,0,0,3.6-3.6v-3.6a3.6,3.6,0,0,0-3.6-3.6H28.8V19.42H99.66a3.6,3.6,0,0,0,3.6-3.6v-3.6a3.6,3.6,0,0,0-3.6-3.6H3.6A3.6,3.6,0,0,0,0,12.22V49.15a3.6,3.6,0,0,0,3.6,3.6H28.8Z"/><path class="cls-1" d="M779.07,52.75h3.44a3.6,3.6,0,0,0,3.6-3.6V12.22a3.6,3.6,0,0,0-3.6-3.6h-98a3.6,3.6,0,0,0-3.6,3.6V49.15a3.6,3.6,0,0,0,3.6,3.6h94.55ZM757.31,19.42V42H709.72V19.42Z"/><path class="cls-1" d="M613.2,38.78l18.86,13.31a3.46,3.46,0,0,0,2.08.66h23.55a3.6,3.6,0,0,0,2.07-6.54l-11.17-7.89H654a3.6,3.6,0,0,0,3.6-3.6V12.22a3.6,3.6,0,0,0-3.6-3.6H553a3.6,3.6,0,0,0-3.6,3.6V49.15a3.6,3.6,0,0,0,3.6,3.6h21.6a3.6,3.6,0,0,0,3.6-3.6V38.78Zm17.64-19.36V28H578.16V19.42Z"/><path class="cls-1" d="M424.49,8.62h-5.64a3.6,3.6,0,0,0-3.6,3.6V49.15a3.6,3.6,0,0,0,3.6,3.6h21.6a3.6,3.6,0,0,0,3.6-3.6V38.78h54V49.15a3.6,3.6,0,0,0,3.6,3.6h21.6a3.6,3.6,0,0,0,3.6-3.6V12.22a3.6,3.6,0,0,0-3.6-3.6H424.49ZM444.05,28V19.42h54V28Z"/><path class="cls-1" d="M128.09,8.62h-4.61a3.6,3.6,0,0,0-3.6,3.6V49.15a3.6,3.6,0,0,0,3.6,3.6h21.6a3.6,3.6,0,0,0,3.6-3.6V38.78h53.11V49.15a3.6,3.6,0,0,0,3.6,3.6H227a3.6,3.6,0,0,0,3.6-3.6V12.22a3.6,3.6,0,0,0-3.6-3.6h-98.9ZM148.68,28V19.42h53.11V28Z"/><path class="cls-2" d="M928.29,49.9a4.33,4.33,0,0,0,4.28,3.7h72.57c8.17,0,18-.41,26.15-2.75a27.27,27.27,0,0,0,5.32-2.14,14,14,0,0,0,5.66-5.14L1051.9,31a9.87,9.87,0,0,0,2-3.72c1.46-5.41-3.7-8.18-8-8.46l-3.54-.18H985.7l1.75-2a23.18,23.18,0,0,1,11.55-2h61.27a4.29,4.29,0,0,0,3.18-1.4l5.5-6A4.33,4.33,0,0,0,1065.76,0H999.61q-8.05,0-16.1.68c-8,.58-17.46,2.7-23.14,9.18l-9.06,11c-2.62,3.19-3.3,7.69.11,10.39,2.32,1.84,5.72,2,8.53,2.16h57.43l-3.33,4.35a1.78,1.78,0,0,1-.62.44,16.53,16.53,0,0,1-5.8.81l-70-.09c-2.45,0-3.51,1.78-4.87,3.39A4.32,4.32,0,0,0,928.54,39H859.66l19.08-23.19,6.73-8.83A4.32,4.32,0,0,0,882,0H860.86a4.31,4.31,0,0,0-3.39,1.64L828.83,37.77a4,4,0,0,0-.37.54c-2.62,4.6.26,9.56,4.49,11.73,5.94,3.05,16.64,3.59,24.2,3.56H923a4.32,4.32,0,0,0,3.17-1.38ZM882,4.32l-6.74,8.83L852.44,41c-.07,2.24,4.49,2.33,5.42,2.33h70.68l-5.57,6H857.13c-6.77,0-17-.43-22.21-3.08-1.69-.87-4.22-3.51-2.71-5.75L860.86,4.32Zm135.17,36.47,8.92-11.66H960.22c-1.84-.06-5-.38-6.12-1.23-1.45-1.14-.38-3.13.55-4.26l8.88-10.83c5-5.66,13.37-7.33,20.29-7.82q7.88-.68,15.79-.67h66.15l-5.49,6H999.35a27.63,27.63,0,0,0-14.57,2.84L976.14,23h65.92l3.45.18a7.89,7.89,0,0,1,3.22.94c1.72.9.79,3-.19,4.21l-9.84,12.82a9.64,9.64,0,0,1-4.06,3.74c-7.83,4-21.15,4.45-29.48,4.42H932.57l5-6,69.85.09a21,21,0,0,0,7.38-1A6.39,6.39,0,0,0,1017.21,40.79Z"/><path class="cls-3" d="M882,4.32l-6.74,8.83L852.44,41c-.06,1.45,1.75,2.22,5.42,2.33l40.12.09,30.56-.09-5.57,6H857.13q-21.06,0-24.5-5a3.42,3.42,0,0,1-.42-3.83l21.84-27.64,6.81-8.49H882Z"/><path class="cls-3" d="M1017.21,40.79l8.92-11.66H960.22q-9.76,0-5.57-5.49l8.88-10.83Q969.55,6,983.82,5q7.7-.68,15.79-.67h66.15l-5.49,6H999.35q-8.88-.33-14.57,2.84L976.14,23h65.92q10.71,0,6.48,5.33l-7.45,9.82-2.39,3q-4.4,8.16-33.54,8.16H932.57l5-6h29.73l40.12.09c4.83-.06,7.94-.81,9.35-2.25Z"/></g></g></svg>