<svg xmlns="http://www.w3.org/2000/svg" viewBox="0 0 313.89 143.07"><defs><style>.cls-1{fill-rule:evenodd;}</style></defs><title>Camaro-Script-B</title><g id="Layer_2"><g id="Layer_1-2"><path class="cls-1" d="M100.36,95.16A132.66,132.66,0,0,0,114,78.52a.86.86,0,0,0,0-.75,6,6,0,0,0-3-3.28,5.33,5.33,0,0,0-3.54,1A56.85,56.85,0,0,0,89.89,92.81a27.08,27.08,0,0,0-4.71,11.27,1.12,1.12,0,0,0,.06.45l.1.15a1.41,1.41,0,0,0,.39.19,5.78,5.78,0,0,0,4-.86,47.52,47.52,0,0,0,10.58-8.85Zm113.13-1.77q6.82-7.41,13.14-15.26a.86.86,0,0,0,.09-.75,3.74,3.74,0,0,0-3-2.75A5.58,5.58,0,0,0,221,75.91,67,67,0,0,0,201.7,97.12a14.59,14.59,0,0,0-1.77,5.65.45.45,0,0,0,.12.33.46.46,0,0,0,.33.13,7.6,7.6,0,0,0,4.07-1.63,65.19,65.19,0,0,0,9-8.21ZM29.68,140.76a96.76,96.76,0,0,0,23.92-14q10.57-8.11,20.4-17.13a13.3,13.3,0,0,1,1.39-1.2.34.34,0,0,1,.17,0,.11.11,0,0,1,.1.06.52.52,0,0,1,.07.35,15.61,15.61,0,0,0,.45,8,4.24,4.24,0,0,0,5.33,1.5,43.62,43.62,0,0,0,12.57-8.15c1.6-1.4,3.18-2.83,4.75-4.27l.33-.19a.17.17,0,0,1,.18.15.94.94,0,0,1-.08.43,15.94,15.94,0,0,0-1.19,8.94,4.59,4.59,0,0,0,2.59,2.56,4.54,4.54,0,0,0,3.63-.13,30.8,30.8,0,0,0,9-6.44c1.85-1.78,3.74-3.5,5.67-5.18a.86.86,0,0,1,.43-.2.15.15,0,0,1,.13,0,.21.21,0,0,1,.07.13.87.87,0,0,1-.1.42q-3.26,5.45-7,10.6a.89.89,0,0,0-.15.45.23.23,0,0,0,.19.2,2.54,2.54,0,0,0,.78,0q4.44,0,8.88,0a1.23,1.23,0,0,0,1-.57q7.17-10.45,14.59-20.75a44,44,0,0,1,16.69-12.18,5.1,5.1,0,0,1,2.32-.33,1,1,0,0,1,.62.38,1.05,1.05,0,0,1,.06.78A19,19,0,0,1,154,90.45,187.63,187.63,0,0,0,135.37,117a.4.4,0,0,0,.08.49.67.67,0,0,0,.39.12q4.93,0,9.85,0a1,1,0,0,0,.68-.48A113.15,113.15,0,0,1,161.68,94.8,82.07,82.07,0,0,1,176.2,82.7a13.31,13.31,0,0,1,3.48-1,1.66,1.66,0,0,1,.58.08.61.61,0,0,1,.37.69,5.06,5.06,0,0,1-.88,1.73q-5.37,7-11,13.75a42.47,42.47,0,0,0-7.46,14.15,7.49,7.49,0,0,0,.5,5.46,4.05,4.05,0,0,0,3.82.94,34.47,34.47,0,0,0,12.16-6q5.51-3.84,10.78-8a.33.33,0,0,1,.19,0,.16.16,0,0,1,.13.06.42.42,0,0,1,.11.35,4.44,4.44,0,0,1-.21,1,17.33,17.33,0,0,0-.25,8.64,4.17,4.17,0,0,0,5.38,2.17A34.92,34.92,0,0,0,206,109.9c1.7-1.33,3.34-2.73,4.9-4.22a.49.49,0,0,1,.17-.06.17.17,0,0,1,.12,0,.44.44,0,0,1,.11.33c-.09.84-.2,1.67-.31,2.51a9.76,9.76,0,0,0,1.29,7.09,5.67,5.67,0,0,0,6.68.74A54.3,54.3,0,0,0,237,103q9.71-10.73,18.76-22c.68-.78,1.38-1.54,2.09-2.3a1.94,1.94,0,0,1,1.17-.55q3.4-.34,6.83-.53a.52.52,0,0,1,.36.14.21.21,0,0,1,.07.15.33.33,0,0,1-.06.19,11,11,0,0,1-.95,1,99.41,99.41,0,0,0-18.8,25.11,18.63,18.63,0,0,0-1,9.06,3.8,3.8,0,0,0,4.54,3,25.61,25.61,0,0,0,10.62-4.48,63.23,63.23,0,0,0,8.42-6.42l.38-.22a.15.15,0,0,1,.13,0,.18.18,0,0,1,.09.1v.18a17.68,17.68,0,0,0,.45,7.45,6.7,6.7,0,0,0,7.79,4.5,25.94,25.94,0,0,0,14.53-8A83.47,83.47,0,0,0,311.86,83a19.41,19.41,0,0,0,1.7-12.18,9.37,9.37,0,0,0-11.3-7.27,15.68,15.68,0,0,0-10.12,6.12A23,23,0,0,0,290,72.52a.79.79,0,0,0,.25,1,31,31,0,0,0,5.49,2.77.69.69,0,0,0,.6-.14A8.81,8.81,0,0,1,299.9,74a3.67,3.67,0,0,1,4.58,3.5,18.55,18.55,0,0,1-3,10.64,62.91,62.91,0,0,1-12.6,14.76,10.92,10.92,0,0,1-9.77,2.41,2,2,0,0,1-.77-.37,1.52,1.52,0,0,1-.34-.79,12,12,0,0,1,2-9,64.93,64.93,0,0,1,12.09-13.64.78.78,0,0,0,.07-.91,7.09,7.09,0,0,0-5.62-2.84,1.82,1.82,0,0,0-1.17.39,37.15,37.15,0,0,0-9.28,10,41,41,0,0,1-14.7,14.42,5.06,5.06,0,0,1-3.05.64.94.94,0,0,1-.76-1.13A20.87,20.87,0,0,1,261,95.56a209.11,209.11,0,0,1,15.55-18.85,6,6,0,0,0,1.15-2.37A2.16,2.16,0,0,0,276,72.13a32.1,32.1,0,0,0-9.82-.7c-1.15,0-2.3,0-3.45,0A1.2,1.2,0,0,1,262,71q-1.6-2.06-3.27-4a1.22,1.22,0,0,0-.91-.18,9.16,9.16,0,0,0-7.13,4.45,7.07,7.07,0,0,0-.59,2.35,2.16,2.16,0,0,0,.47,1.17c.38.58.76,1.16,1.16,1.72a.63.63,0,0,1,0,.76c-.67.75-1.36,1.48-2.08,2.18q-10.09,10.8-20.75,21.05a5.68,5.68,0,0,1-5.42,1.54,2.29,2.29,0,0,1-1.1-2.1,13.31,13.31,0,0,1,2.8-7.45,151,151,0,0,1,17.85-20.77l.55-.61a.24.24,0,0,0,0-.18.21.21,0,0,0-.07-.15.61.61,0,0,0-.36-.15q-4-.37-8-.46a1.43,1.43,0,0,0-1,.42c-.46.41-.9.83-1.33,1.28a.79.79,0,0,1-.39.26.62.62,0,0,1-.39-.14c-.76-.77-1.54-1.51-2.35-2.22a9.29,9.29,0,0,0-10.22-.86,49.18,49.18,0,0,0-16.09,12.57q-6.6,7.23-13.37,14.33a80.8,80.8,0,0,1-13.32,9.86,10.41,10.41,0,0,1-1.89.69,1,1,0,0,1-.67-.07.85.85,0,0,1-.41-1,15.44,15.44,0,0,1,3-5q7.45-9,15.34-17.72a13.75,13.75,0,0,0,2.54-7.81,3.71,3.71,0,0,0-3.77-3.13,27.11,27.11,0,0,0-11,2.11,48.49,48.49,0,0,0-12.85,7,.22.22,0,0,1-.16,0,.16.16,0,0,1-.08-.13,1,1,0,0,1,.14-.45,10.55,10.55,0,0,0,1.84-6.16,2.84,2.84,0,0,0-3.43-1.84,32.16,32.16,0,0,0-11.81,4.74q-3.7,2.19-7.23,4.65l-.2.07a.23.23,0,0,1-.14,0,.18.18,0,0,1-.06-.14l.07-.19a8.57,8.57,0,0,1,.89-1q3.8-4.2,7.55-8.43l.25-.42a.29.29,0,0,0-.14-.29l-.2-.06c-2.84-.21-5.68-.3-8.53-.3a1.45,1.45,0,0,0-1,.62,225.82,225.82,0,0,1-31.51,32.07,9,9,0,0,1-2.94,1.36,1.56,1.56,0,0,1-1.28-.43,1.54,1.54,0,0,1-.45-1.28,19.15,19.15,0,0,1,3.76-9,140.41,140.41,0,0,1,19.43-21.62l1-1a.75.75,0,0,0,.21-.38.2.2,0,0,0,0-.13.3.3,0,0,0-.14-.11,3,3,0,0,0-.94-.13c-2.86-.33-5.72-.6-8.59-.83a1.15,1.15,0,0,0-.59.22l-.18.21-3.06,2.94a.3.3,0,0,1-.33,0,.65.65,0,0,1-.29-.3,7.32,7.32,0,0,0-5.4-4.88,15,15,0,0,0-9.42,2.9,95.56,95.56,0,0,0-19.7,17.91q-3.81,4.44-7.39,9.06a202.44,202.44,0,0,1-33.39,25.71,46.1,46.1,0,0,1-17.67,6.64,9.82,9.82,0,0,1-11.15-6.82,30.89,30.89,0,0,1,.28-15.34A49.5,49.5,0,0,1,20.8,92.39a224.87,224.87,0,0,1,53.71-67A81.78,81.78,0,0,1,97.23,11.51a16,16,0,0,1,10.2-1,8.45,8.45,0,0,1,4.09,8.81,43.87,43.87,0,0,1-6.81,17.29,153.69,153.69,0,0,1-38.48,41l-.44.43a.27.27,0,0,0,0,.33,3.93,3.93,0,0,0,.71.76c1.08,1.34,2.23,2.64,3.42,3.89a.69.69,0,0,0,.87,0A170.31,170.31,0,0,0,110,41.35a80.21,80.21,0,0,0,10.93-24,17.61,17.61,0,0,0-.85-12.15A11.5,11.5,0,0,0,109.79,0,50.19,50.19,0,0,0,89.74,5.58,157,157,0,0,0,55.17,29.09,210.5,210.5,0,0,0,16.35,71.18,97.68,97.68,0,0,0,1,105.76a64.4,64.4,0,0,0-.87,14.93A38.55,38.55,0,0,0,4,136.39a19.28,19.28,0,0,0,18.61,6.25,36.77,36.77,0,0,0,7.08-1.88Z"/></g></g></svg>