<svg xmlns="http://www.w3.org/2000/svg" viewBox="0 0 815.51 162.59"><defs><style>.cls-1,.cls-2{fill:#121212;}.cls-2{fill-rule:evenodd;}</style></defs><title>Camaro-Banner-FIFTY</title><g id="Layer_2"><g id="Layer_1-2"><path class="cls-1" d="M768.24,81.36h0Z"/><path class="cls-2" d="M814.41,0H306a5.35,5.35,0,0,0-3.72,2.16L263.69,55.63c-.86,1.19-.59,2.16.6,2.16H772.68a5.37,5.37,0,0,0,3.72-2.16L815,2.16C815.87,1,815.6,0,814.41,0Zm-640,90.7,6.09-9.76H40.71L0,137.69H36.69l13.1-18.84H154l6.85-9.76H57.11L70.49,90.7Zm108.28,47,13.1-18.84H398.45l6.43-9.76H303.06L316.45,90.7H413l7.24-9.76H210.8L169.68,138.1l38.59,24.49Zm301.3-56.33H438.75L432,90.7h57.81l-34.71,47h37.33L526,90.7h51.21Zm184.3,0h-36.3l-59,20.26L641.17,81.36H596.73L642.9,110.5l-20.37,27.19h38.1L680.94,111ZM491.67,22.22v17a2.05,2.05,0,0,0,2.06,2.05h9.94a2.05,2.05,0,0,0,2.05-2.05v-17h15.76v17a2.05,2.05,0,0,0,2.06,2.05h12.33a2.05,2.05,0,0,0,2-2.05V18.11a2.05,2.05,0,0,0-2-2.05H460v.72a2,2,0,0,0-.49,1.33V39.19a2.05,2.05,0,0,0,2,2.05h12.33a2.05,2.05,0,0,0,2.05-2.05v-17Zm-161.44,19h40.44a2.05,2.05,0,0,0,2.06-2.05V37.13a2.05,2.05,0,0,0-2.06-2.05H330.23V22.22h40.44a2.06,2.06,0,0,0,2.06-2.06V18.11a2.05,2.05,0,0,0-2.06-2.05H315.85a2.05,2.05,0,0,0-2.06,2.05V39.19a2.05,2.05,0,0,0,2.06,2.05h14.38Zm428.2,0h2a2.05,2.05,0,0,0,2.05-2.05V18.11a2.05,2.05,0,0,0-2.05-2.05H704.47a2.05,2.05,0,0,0-2.05,2.05V39.19a2.05,2.05,0,0,0,2.05,2.05h54ZM746,22.22V35.08H718.85V22.22ZM663.76,33.27l10.77,7.6a2,2,0,0,0,1.18.37h13.45a2.05,2.05,0,0,0,1.18-3.73L684,33H687a2.05,2.05,0,0,0,2.05-2V18.11A2.05,2.05,0,0,0,687,16.06H629.38a2.05,2.05,0,0,0-2,2.05V39.19a2.05,2.05,0,0,0,2,2.05h12.33a2.05,2.05,0,0,0,2.06-2.05V33.27Zm10.07-11.05v4.89H643.77V22.22ZM556.06,16.06h-3.21a2.05,2.05,0,0,0-2.06,2.05V39.19a2.05,2.05,0,0,0,2.06,2.05h12.32a2.05,2.05,0,0,0,2.06-2.05V33.27H598v5.92a2.05,2.05,0,0,0,2.06,2.05H612.4a2.05,2.05,0,0,0,2.06-2.05V18.11a2.05,2.05,0,0,0-2.06-2.05H556.06Zm11.17,11.05V22.22H598v4.89Zm-180.33-11h-2.63a2.05,2.05,0,0,0-2.06,2.05V39.19a2.05,2.05,0,0,0,2.06,2.05h12.32a2.05,2.05,0,0,0,2.06-2.05V33.27H429v5.92A2.05,2.05,0,0,0,431,41.24h12.33a2.05,2.05,0,0,0,2.06-2.05V18.11a2.05,2.05,0,0,0-2.06-2.05H386.9Zm11.75,11.05V22.22H429v4.89ZM208.54,159.67l-8.76-5.49,50.59-70.36h30.8l-48,67.53Z"/></g></g></svg>