<svg xmlns="http://www.w3.org/2000/svg" viewBox="0 0 1072.63 53.5"><defs><style>.cls-1{fill-rule:evenodd;}</style></defs><title>Asset 1</title><g id="Layer_2" data-name="Layer 2"><g id="Layer_1-2" data-name="Layer 1"><path class="cls-1" d="M928,51.66a4.32,4.32,0,0,0,3.54,1.84h69.94c9.56,0,23.37-.55,32.26-4.92a16.09,16.09,0,0,0,5.85-4.79L1051,31.22c1.75-1.85,3.12-4.19,2.65-6.84-.91-5.22-7.31-5.81-11.35-5.76h-55.8l1.91-1.87a25.56,25.56,0,0,1,12.2-2.13H1062a4.3,4.3,0,0,0,3-1.18l6.32-6a4.32,4.32,0,0,0-3-7.46h-66.37Q993.8,0,985.7.68c-8.35.59-17.8,2.77-24.07,9l-2.19,2.28C959,5.62,953,1.65,947.2.86c-4.29-.5-8.61-.79-12.93-.86h-67.4a4.33,4.33,0,0,0-3.16,1.37L830,37.53l-7.71,8.81a4.32,4.32,0,0,0,3.25,7.16h20.78a4.29,4.29,0,0,0,3.14-1.36l6.79-7.23a4.32,4.32,0,0,0,1-1.69l9.42-9.82h31.26l1.64,16.22a4.32,4.32,0,0,0,4.3,3.88h20.53A4.34,4.34,0,0,0,928,51.66Zm20.48-23.48a5.81,5.81,0,0,0,1.65,2.76,7.44,7.44,0,0,0,3,1.73,36.6,36.6,0,0,0,5.68.72h56.67l-3.72,4.11c-1.3,1.16-5.11,1.45-7.2,1.45L939,38.88a4.34,4.34,0,0,0-2.7.94l-7.51,6a3.73,3.73,0,0,0-.36.32l-1.27-12.56C934.37,33.76,942.77,33.24,948.44,28.18ZM925.27,14.62l1.87.3-1.27,1.4c-1.69,1.8-4.88,2.31-7.38,2.29H880.72l4-4Zm.22-4.32H883l-2.82,2.83-10,9.8h48.23q7.17,0,10.62-3.66l5.36-6C932.79,11.63,929.83,10.63,925.49,10.3Zm-33,18.78H864.84L853.49,40.87l-.21.25a1.25,1.25,0,0,0-.15.83l-6.79,7.23H825.56l7.71-8.8,33.6-36.06H934.2q7.18.16,12.5.83,6.84,1.5,8.21,5.65c.09.89.18,1.72.26,2.49L945.6,24.92q-4.12,4.16-15.09,4.32H922.4l2,19.94H903.88l-2-20.1Zm122.16,11.63,10.52-11.63H959.07q-9.78,0-4.85-5.49l10.37-10.8Q971.54,6,986,5q7.82-.66,15.93-.66h66.38l-6.32,6h-61.12q-8.86-.33-15,2.83l-10,9.8H1042q10.74,0,5.79,5.32l-8.8,9.8-2.8,3q-5.51,8.15-34.75,8.14h-70l7.51-6h25.31l40.24.08q7.28-.08,9.68-2.24Z"/><path class="cls-1" d="M311.67,20.17V49.9a3.6,3.6,0,0,0,3.6,3.6h17.42a3.6,3.6,0,0,0,3.6-3.6V20.17H363.9V49.9a3.6,3.6,0,0,0,3.6,3.6h21.6a3.6,3.6,0,0,0,3.6-3.6V13a3.6,3.6,0,0,0-3.6-3.6h-133v1.27a3.56,3.56,0,0,0-.86,2.33V49.9a3.6,3.6,0,0,0,3.6,3.6h21.6a3.6,3.6,0,0,0,3.6-3.6V20.17Z"/><path class="cls-1" d="M28.8,53.5H99.66a3.6,3.6,0,0,0,3.6-3.6V46.3a3.6,3.6,0,0,0-3.6-3.6H28.8V20.17H99.66a3.6,3.6,0,0,0,3.6-3.6V13a3.6,3.6,0,0,0-3.6-3.6H3.6A3.6,3.6,0,0,0,0,13V49.9a3.6,3.6,0,0,0,3.6,3.6H28.8Z"/><path class="cls-1" d="M779.07,53.5h3.44a3.6,3.6,0,0,0,3.6-3.6V13a3.6,3.6,0,0,0-3.6-3.6h-98a3.6,3.6,0,0,0-3.6,3.6V49.9a3.6,3.6,0,0,0,3.6,3.6h94.55ZM757.31,20.17V42.7H709.72V20.17Z"/><path class="cls-1" d="M613.2,39.54l18.86,13.31a3.51,3.51,0,0,0,2.08.65h23.55A3.6,3.6,0,0,0,659.76,47l-11.17-7.88H654a3.6,3.6,0,0,0,3.6-3.6V13a3.6,3.6,0,0,0-3.6-3.6H553a3.6,3.6,0,0,0-3.6,3.6V49.9a3.6,3.6,0,0,0,3.6,3.6h21.6a3.6,3.6,0,0,0,3.6-3.6V39.54Zm17.64-19.37v8.57H578.16V20.17Z"/><path class="cls-1" d="M424.49,9.37h-5.64a3.6,3.6,0,0,0-3.6,3.6V49.9a3.6,3.6,0,0,0,3.6,3.6h21.6a3.6,3.6,0,0,0,3.6-3.6V39.54h54V49.9a3.6,3.6,0,0,0,3.6,3.6h21.6a3.6,3.6,0,0,0,3.6-3.6V13a3.6,3.6,0,0,0-3.6-3.6H424.49Zm19.56,19.37V20.17h54v8.57Z"/><path class="cls-1" d="M128.09,9.37h-4.61a3.6,3.6,0,0,0-3.6,3.6V49.9a3.6,3.6,0,0,0,3.6,3.6h21.6a3.6,3.6,0,0,0,3.6-3.6V39.54h53.11V49.9a3.6,3.6,0,0,0,3.6,3.6H227a3.6,3.6,0,0,0,3.6-3.6V13a3.6,3.6,0,0,0-3.6-3.6h-98.9Zm20.59,19.37V20.17h53.11v8.57Z"/></g></g></svg>