<svg xmlns="http://www.w3.org/2000/svg" viewBox="0 0 768.69 81.65"><defs><style>.cls-1{fill:#121212;fill-rule:evenodd;}</style></defs><title>FIFTY</title><g id="Layer_2" data-name="Layer 2"><g id="Layer_1-2" data-name="Layer 1"><path class="cls-1" d="M768.24.41h0Z"/><path class="cls-1" d="M174.36,9.76,180.45,0H40.71L0,56.74H36.69l13.1-18.83H154l6.85-9.76H57.11L70.49,9.76Zm108.28,47,13.1-18.83H398.45l6.43-9.76H303.06L316.45,9.76H413L420.22,0H210.8L169.68,57.16l38.59,24.49ZM583.94.41H438.75L432,9.76h57.81l-34.71,47h37.33L526,9.76h51.21Zm184.3,0h-36.3l-59,20.26L641.17.41H596.73L642.9,29.56,622.53,56.74h38.1L680.94,30ZM208.54,78.73l-8.76-5.5L250.37,2.88h30.8l-48,67.53Z"/></g></g></svg>