<?xml version="1.0" encoding="UTF-8"?>
<svg id="Layer_2" data-name="Layer 2" xmlns="http://www.w3.org/2000/svg" viewBox="0 0 209.17 255.58">
  <defs>
    <style>
      .vinyl-imagination-orange {
        fill: #e57a00;
      }

      .vinyl-imagination-grey {
        fill: #b3b3b3;
      }
    </style>
  </defs>
  <g id="Layer_1-2">
    <path class="vinyl-imagination-grey" d="m158.69,144.2c-3.6-8.89-12.33-15.12-22.54-15.12h-24.72c-7.04,0-12.72-5.68-12.72-12.66v-1.2c0-16.09,4.69-32.19,14.9-44.58,7.42-8.95,11.24-20.95,9.38-33.83C120.27,17.76,104.56,2.53,85.4.29c-26.14-3-48.35,17.35-48.35,42.95,0,9.87,3.33,18.93,8.89,26.19,9.77,12.72,15.88,27.89,15.88,43.93v3.06c0,6.98-5.73,12.66-12.72,12.66h-24.72c-13.48,0-24.39,10.91-24.39,24.4v25.97h104.12c9.87-20.36,30.56-34.6,54.57-35.25Z"/>
    <path class="vinyl-imagination-grey" d="m9.99,195.55v16.37c0,3.54,2.89,6.44,6.44,6.44h82.34c-.65-3.71-1.03-7.53-1.03-11.4s.38-7.7,1.03-11.4H9.99Z"/>
    <path class="vinyl-imagination-orange" d="m160.53,158.3c-26.86,0-48.64,21.77-48.64,48.64s21.77,48.64,48.64,48.64,48.64-21.77,48.64-48.64-21.77-48.64-48.64-48.64Zm21.86,43.45l-23.62,23.62c-1.39,1.39-3.2,2.08-5.01,2.08s-3.63-.69-5.01-2.08l-11.73-11.73c-2.77-2.77-2.77-7.26,0-10.03,2.77-2.77,7.26-2.77,10.03,0l6.72,6.72,18.61-18.6c2.77-2.77,7.26-2.77,10.03,0,2.77,2.77,2.77,7.26,0,10.03Z"/>
  </g>
</svg>