<?xml version="1.0" encoding="utf-8"?>
<svg version="1.1" id="Layer_1" xmlns="http://www.w3.org/2000/svg" x="0px" y="0px"
	 viewBox="0 0 647.14 287.14" style="enable-background:new 0 0 647.14 287.14;" xml:space="preserve">
<style type="text/css">
	.st0{fill:#E31F26;}
	.st1{fill:none;}
</style>
<g>
	<rect x="447.22" y="189.9" class="st0" width="11.18" height="39.71"/>
	<polygon class="st0" points="348.37,137.29 383.87,137.29 383.87,145.63 359.03,145.63 359.03,152.77 381.89,152.77 381.89,160.68 
		359.03,160.68 359.03,168.67 383.87,168.67 383.87,177.01 348.37,177.01 	"/>
	<path class="st0" d="M492.77,198.76v-8.94c-3.26-0.77-7.22-1.21-11.77-1.21c-6.45-0.17-17.88,1.55-17.36,13.07
		c0.6,7.22,5.76,9.02,12.98,11.43c6.2,1.98,7.48,2.49,7.22,5.33c-0.52,2.93-3.96,3.1-6.11,3.18c-4.12,0-9.88-0.86-13.92-2.15v9.63
		c0,0,7.47,1.54,14.35,1.63c5.16,0,16.5-1.72,17.45-12.55c0.18-7.22-4.21-9.8-7.56-11.26c-8.77-3.61-11.09-3.44-12.21-5.16
		c-1.37-3.09,2.24-4.47,6.53-4.21C483.66,197.64,486.25,197.81,492.77,198.76z"/>
	<path class="st0" d="M323.42,162.38c0.36,0.94,0.66,1.83,0.86,2.77c0.18-0.94,0.44-1.83,0.8-2.76l10.01-25.1h12.07l-17.02,39.71
		h-11.86l-17.02-39.71h12.16L323.42,162.38z"/>
	<polygon class="st0" points="378.79,229.61 392.72,229.61 392.72,189.9 382.28,189.9 382.28,217.4 365.57,189.9 351.63,189.9 
		351.63,229.61 362.17,229.61 362.17,202.03 	"/>
	<path class="st0" d="M429.26,177.01l-13.24-16.24c4.04,0.17,10.4-3.09,10.57-10.57c0.26-10.06-4.73-12.9-12.38-12.9h-25.79v39.71
		h11.09v-31.37h10.66c2.06,0,5.5,0.17,5.5,4.73c0,3.96-2.84,4.64-5.59,4.64h-9.46l15.04,22H429.26z"/>
	<polygon class="st0" points="311.41,189.9 346.9,189.9 346.9,198.24 322.06,198.24 322.06,205.38 344.93,205.38 344.93,213.28 
		322.06,213.28 322.06,221.27 346.9,221.27 346.9,229.61 311.41,229.61 	"/>
	<path class="st0" d="M446.77,152.09l-9.03-14.79h-12.81l17.52,25.39v14.32l11.09,0v-14.32l17.78-25.39h-12.89l-9.21,14.8
		c-0.86,1.37-1.23,2.35-1.23,2.35S447.62,153.46,446.77,152.09z"/>
	<path class="st0" d="M288.45,150.36l3.96,10.23h-10.66l4.04-10.23c0,0,0.77-2.06,1.29-4.13
		C287.68,148.21,288.45,150.36,288.45,150.36z M278.57,168.5h16.85l3.35,8.5h11.86l-16.59-39.71h-14.01l-16.68,39.71h11.87
		L278.57,168.5z"/>
	<polygon class="st0" points="426.5,229.61 440.43,229.61 440.43,189.9 429.98,189.9 429.98,217.4 413.28,189.9 399.35,189.9 
		399.35,229.61 409.87,229.61 409.87,202.03 	"/>
	<polygon class="st0" points="575.8,229.61 589.74,229.61 589.74,189.9 579.29,189.9 579.29,217.4 562.59,189.9 548.65,189.9 
		548.65,229.61 559.18,229.61 559.18,202.03 	"/>
	<g>
		<g>
			<path class="st0" d="M239.63,182l-56.47-99.03c-3.87-6.96-3.78-6.53-4.81-8.16c-3.01-5.42-7.4-10.58-12.21-13.41
				c-6.02-3.52-14.53-5.33-23.64-2.84c-7.91,2.23-13.66,6.96-20.02,17.88l-7.66,13.32l-51.31,91.63c-3.18,6.19-2.49,4.9-3.61,7.22
				c-1.54,4.3-2.49,6.79-2.49,11.52c0,13.93,10.83,29.31,32.23,29.4c3.01,0.09-1.28,0.09,6.19,0.17c11,0.09,89.05,0,111.32,0
				c3.44-0.17,2.4,0.09,6.7-0.34c15.13-0.95,26.47-7.65,30.69-22.09C247.2,197.12,244.27,190.07,239.63,182z M135.45,81.42
				c3.35-5.93,6.53-8.34,10.49-9.46c9.2-2.84,18.22,2.49,20.8,11.26c1.12,3.95,0.69,8.34-2.4,14.27l-40.92,71.95H112.5l43.92-77.1
				c1.37-2.58,1.81-4.65,1.37-6.54c-1.03-3.69-4.63-6.19-9.02-4.9c-1.72,0.6-3.01,1.63-4.73,4.56l-47.36,83.81h-1.55
				c-2.92,0.09-6.45,0.52-9.97,1.72L135.45,81.42z M151.27,148.47l12.21,21.06h-24.07L151.27,148.47z M89.72,215.95
				c-5.07-0.26-8.59-0.6-12.98-4.21c-7.22-6.79-7.22-17.27-0.69-23.64c3.18-3.09,7.56-4.9,12.89-4.99h81.83l5.5,9.54H88
				c-1.72,0-4.04,0.77-5.41,2.07c-2.75,2.75-2.58,7.22,0.26,9.88c1.37,1.38,3.35,1.89,5.16,1.89h96.19
				c2.14,3.44,3.52,5.93,7.73,9.45H89.72z M230.86,203.4c-2.15,9.02-11.78,14.61-20.72,11.77c-4.99-1.63-7.73-5.07-10.49-9.54
				l-40.49-70.83l5.51-9.63l43.32,75.9c2.06,3.44,3.44,4.64,5.16,5.15c3.44,1.21,7.74-1.11,8.68-4.9c0.52-1.81,0.18-3.7-1.54-6.79
				l-47.62-83.38c1.46-3.26,3.35-6.88,3.95-11.78l51.74,90.6C230.56,193.83,232.16,197.81,230.86,203.4z"/>
		</g>
	</g>
	<g>
		<g>
			<path class="st0" d="M288.97,189.9h-24.24v39.71h24.5c13.83,0,17.96-10.57,18.14-19.77C307.45,201.51,303.15,189.9,288.97,189.9z
				 M284.5,220.76h-8.94v-22h9.2c6.36,0,11.52,2.58,11.52,11C296.28,219.13,290.95,220.76,284.5,220.76z"/>
		</g>
	</g>
	<g>
		<g>
			<path class="st0" d="M520.89,188.1c-14.71-0.34-22.87,8.08-22.95,21.41c-0.1,13.32,8.24,21.66,23.03,21.4
				c14.78,0.26,23.12-8.08,23.04-21.4C544.01,196.18,535.76,187.76,520.89,188.1z M520.97,220.93c-7.91,0-12.13-4.56-12.13-11.78
				c0-7.22,4.22-11.86,12.13-11.86c7.99,0,12.12,4.64,12.12,11.86C533.1,216.38,528.97,220.93,520.97,220.93z"/>
		</g>
	</g>
</g>
<rect class="st1" width="647.14" height="287.14"/>
</svg>
