<?xml version="1.0" encoding="utf-8"?>
<!-- Generator: Adobe Illustrator 27.2.0, SVG Export Plug-In . SVG Version: 6.00 Build 0)  -->
<svg version="1.1" id="Layer_1" xmlns="http://www.w3.org/2000/svg" xmlns:xlink="http://www.w3.org/1999/xlink" x="0px" y="0px"
	 viewBox="0 0 532.3 173.5" style="enable-background:new 0 0 532.3 173.5;" xml:space="preserve">
<style type="text/css">
	.st0{fill:#FFFFFF;stroke:#000000;stroke-width:0.25;stroke-miterlimit:10;}
	.st1{fill:#E31F26;}
	.st2{fill:none;}
</style>
<rect x="387.8" y="132.5" class="st0" width="11.2" height="39.7"/>
<polygon class="st0" points="289,79.9 324.5,79.9 324.5,88.2 299.6,88.2 299.6,95.4 322.5,95.4 322.5,103.3 299.6,103.3 
	299.6,111.3 324.5,111.3 324.5,119.6 289,119.6 "/>
<path class="st0" d="M433.4,141.4v-8.9c-3.3-0.8-7.2-1.2-11.8-1.2c-6.5-0.2-17.9,1.6-17.4,13.1c0.6,7.2,5.8,9,13,11.4
	c6.2,2,7.5,2.5,7.2,5.3c-0.5,2.9-4,3.1-6.1,3.2c-4.1,0-9.9-0.9-13.9-2.1v9.6c0,0,7.5,1.5,14.4,1.6c5.2,0,16.5-1.7,17.5-12.6
	c0.2-7.2-4.2-9.8-7.6-11.3c-8.8-3.6-11.1-3.4-12.2-5.2c-1.4-3.1,2.2-4.5,6.5-4.2C424.2,140.2,426.8,140.4,433.4,141.4z"/>
<path class="st0" d="M264,105c0.4,0.9,0.7,1.8,0.9,2.8c0.2-0.9,0.4-1.8,0.8-2.8l10-25.1h12.1l-17,39.7h-11.9l-17-39.7H254L264,105z"
	/>
<polygon class="st0" points="319.4,172.2 333.3,172.2 333.3,132.5 322.9,132.5 322.9,160 306.2,132.5 292.2,132.5 292.2,172.2 
	302.8,172.2 302.8,144.6 "/>
<path class="st0" d="M369.9,119.6l-13.2-16.2c4,0.2,10.4-3.1,10.6-10.6c0.3-10.1-4.7-12.9-12.4-12.9H329v39.7h11.1V88.2h10.7
	c2.1,0,5.5,0.2,5.5,4.7c0,4-2.8,4.6-5.6,4.6h-9.5l15,22L369.9,119.6L369.9,119.6z"/>
<polygon class="st0" points="252,132.5 287.5,132.5 287.5,140.8 262.7,140.8 262.7,148 285.5,148 285.5,155.9 262.7,155.9 
	262.7,163.9 287.5,163.9 287.5,172.2 252,172.2 "/>
<path class="st0" d="M387.4,94.7l-9-14.8h-12.8l17.5,25.4v14.3h11.1v-14.3l17.8-25.4H399l-9.2,14.8c-0.9,1.4-1.2,2.4-1.2,2.4
	S388.2,96.1,387.4,94.7z"/>
<path class="st0" d="M229,93l4,10.2h-10.7l4-10.2c0,0,0.8-2.1,1.3-4.1C228.3,90.8,229,93,229,93z M219.2,111.1H236l3.4,8.5h11.9
	l-16.6-39.7h-14l-16.7,39.7h11.9L219.2,111.1z"/>
<polygon class="st0" points="367.1,172.2 381,172.2 381,132.5 370.6,132.5 370.6,160 353.9,132.5 339.9,132.5 339.9,172.2 
	350.5,172.2 350.5,144.6 "/>
<polygon class="st0" points="516.4,172.2 530.3,172.2 530.3,132.5 519.9,132.5 519.9,160 503.2,132.5 489.2,132.5 489.2,172.2 
	499.8,172.2 499.8,144.6 "/>
<g>
	<g>
		<path class="st1" d="M182.2,124.6l-56.5-99c-3.9-7-3.8-6.5-4.8-8.2c-3-5.4-7.4-10.6-12.2-13.4c-6-3.5-14.5-5.3-23.6-2.8
			c-7.9,2.2-13.7,7-20,17.9l-7.7,13.3L6.1,124c-3.2,6.2-2.5,4.9-3.6,7.2C1,135.5,0,138,0,142.7c0,13.9,10.8,29.3,32.2,29.4
			c3,0.1-1.3,0.1,6.2,0.2c11,0.1,89.1,0,111.3,0c3.4-0.2,2.4,0.1,6.7-0.3c15.1-0.9,26.5-7.6,30.7-22.1
			C189.8,139.7,186.9,132.7,182.2,124.6z M78,24c3.4-5.9,6.5-8.3,10.5-9.5c9.2-2.8,18.2,2.5,20.8,11.3c1.1,3.9,0.7,8.3-2.4,14.3
			L66,112H55.1L99,34.9c1.4-2.6,1.8-4.7,1.4-6.5c-1-3.7-4.6-6.2-9-4.9c-1.7,0.6-3,1.6-4.7,4.6l-47.4,83.8h-1.6
			c-2.9,0.1-6.4,0.5-10,1.7L78,24z M93.9,91.1l12.2,21.1H82L93.9,91.1z M32.3,158.5c-5.1-0.3-8.6-0.6-13-4.2
			c-7.2-6.8-7.2-17.3-0.7-23.6c3.2-3.1,7.6-4.9,12.9-5h81.8l5.5,9.5H30.6c-1.7,0-4,0.8-5.4,2.1c-2.8,2.8-2.6,7.2,0.3,9.9
			c1.4,1.4,3.3,1.9,5.2,1.9h96.2c2.1,3.4,3.5,5.9,7.7,9.4L32.3,158.5L32.3,158.5z M173.5,146c-2.1,9-11.8,14.6-20.7,11.8
			c-5-1.6-7.7-5.1-10.5-9.5l-40.5-70.8l5.5-9.6l43.3,75.9c2.1,3.4,3.4,4.6,5.2,5.1c3.4,1.2,7.7-1.1,8.7-4.9c0.5-1.8,0.2-3.7-1.5-6.8
			l-47.6-83.4c1.5-3.3,3.4-6.9,3.9-11.8l51.7,90.6C173.2,136.4,174.8,140.4,173.5,146z"/>
	</g>
</g>
<g>
	<g>
		<path class="st0" d="M229.6,132.5h-24.2v39.7h24.5c13.8,0,18-10.6,18.1-19.8C248,144.1,243.7,132.5,229.6,132.5z M225.1,163.4
			h-8.9v-22h9.2c6.4,0,11.5,2.6,11.5,11C236.9,161.7,231.5,163.4,225.1,163.4z"/>
	</g>
</g>
<g>
	<g>
		<path class="st0" d="M461.5,130.7c-14.7-0.3-22.9,8.1-23,21.4c-0.1,13.3,8.2,21.7,23,21.4c14.8,0.3,23.1-8.1,23-21.4
			C484.6,138.8,476.4,130.4,461.5,130.7z M461.6,163.5c-7.9,0-12.1-4.6-12.1-11.8s4.2-11.9,12.1-11.9c8,0,12.1,4.6,12.1,11.9
			C473.7,159,469.6,163.5,461.6,163.5z"/>
	</g>
</g>
<rect x="-57.4" y="-57.4" class="st2" width="647.1" height="287.1"/>
</svg>
