<?xml version="1.0" encoding="UTF-8"?>
<svg id="Layer_2" data-name="Layer 2" xmlns="http://www.w3.org/2000/svg" viewBox="0 0 305.97 222.1">
  <defs>
    <style>
      .vinyl-imagination-orange {
        fill: #e57a00
      }

      .vinyl-imagination-grey {
        fill: #b3b3b3;
      }
    </style>
  </defs>
  <g id="Layer_1-2">
    <path class="vinyl-imagination-grey" d="m171.17,15.61c13.7-9.83,30.52-15.61,48.65-15.61,46.24,0,83.75,37.47,83.75,83.71,0,16.64-4.9,32.15-13.27,45.21l15.15,33.18c2.09,4.58-2.66,9.33-7.24,7.24l-33.18-15.15c-13.06,8.37-28.53,13.23-45.21,13.23-.75,0-1.49,0-2.24-.07,6.14-14.73,9.55-30.91,9.55-47.84,0-43.33-22.25-81.59-55.96-103.91Z"/>
    <path class="vinyl-imagination-orange" d="m9.21,221.49l39.54-18.06c15.5,10.03,33.99,15.79,53.84,15.79,55.04,0,99.71-44.59,99.71-99.7S157.63,19.8,102.59,19.8,2.88,64.46,2.88,119.51c0,19.84,5.83,38.33,15.79,53.83L.61,212.89c-2.49,5.48,3.13,11.09,8.61,8.6Zm127.93-101.91c0-9.37,7.63-17,17.07-17s17,7.63,17,17-7.63,17.07-17,17.07-17.07-7.63-17.07-17.07Zm-51.55,0c0-9.37,7.56-17,17-17s17,7.63,17,17-7.63,17.07-17,17.07-17-7.63-17-17.07Zm-51.62,0c0-9.37,7.63-17,17-17s17,7.63,17,17-7.63,17.07-17,17.07-17-7.63-17-17.07Z"/>
  </g>
</svg>