<?xml version="1.0" encoding="UTF-8"?>
<svg id="Layer_2" data-name="Layer 2" xmlns="http://www.w3.org/2000/svg" viewBox="0 0 336.18 244.82">
  <defs>
    <style>
      .vinyl-imagination-orange {
        fill: #e57a00;
      }

      .vinyl-imagination-grey {
        fill: #b3b3b3;
      }
    </style>
  </defs>
  <g id="Layer_1-2">
    <path class="vinyl-imagination-grey" d="m45.48,88.26c13.63,1.48,25.9-8.37,27.38-22.01,1.49-13.64-8.37-25.9-22.01-27.38-13.64-1.49-25.9,8.37-27.38,22.01-1.49,13.64,8.37,25.9,22.01,27.38Z"/>
    <path class="vinyl-imagination-grey" d="m48.1,187.63H9.7c-5.36,0-9.7,4.34-9.7,9.7v37.78c0,5.36,4.35,9.7,9.71,9.7l38.4-.03c5.35,0,9.69-4.35,9.69-9.7v-37.75c0-5.34-4.37-9.7-9.7-9.7Z"/>
    <path class="vinyl-imagination-grey" d="m326.47,187.63h-38.4c-5.36,0-9.7,4.34-9.7,9.7v37.78c0,5.36,4.35,9.7,9.71,9.7l38.4-.03c5.35,0,9.69-4.35,9.69-9.7v-37.75c0-5.34-4.37-9.7-9.7-9.7Z"/>
    <path class="vinyl-imagination-grey" d="m74.85,151.37h-22.6l5.88-26.88,15.94,7.69c1.56.75,3.27,1.14,4.99,1.14.17,0,.34,0,.51-.01l24.06-1.08c6.34-.29,11.25-5.66,10.97-12-.29-6.33-5.72-11.24-11.99-10.96l-21.17.95s-24.08-12.57-27.06-13.26c-3.34-.79-17.01-3.76-17.01-3.76-4.81-1.04-9.75-.15-13.89,2.54-4.13,2.69-6.96,6.82-7.97,11.65l-10.03,48.2c-1.1,5.3.22,10.75,3.64,14.95,3.42,4.2,8.48,6.61,13.9,6.61h39.89c2.57,0,4.66,2.08,4.66,4.66v49.67c0,7.11,5.76,12.88,12.88,12.88s12.88-5.77,12.88-12.88v-61.61c0-10.21-8.27-18.48-18.47-18.48Z"/>
    <path class="vinyl-imagination-grey" d="m290.69,88.26c13.64-1.48,23.49-13.75,22-27.38-1.48-13.64-13.74-23.49-27.38-22.01-13.64,1.48-23.49,13.74-22.01,27.38,1.48,13.64,13.74,23.49,27.38,22.01Z"/>
    <path class="vinyl-imagination-grey" d="m327.06,170.53c3.42-4.2,4.74-9.65,3.64-14.95l-10.04-48.2c-1.01-4.83-3.83-8.96-7.97-11.65-4.14-2.68-9.07-3.58-13.89-2.54,0,0-13.67,2.98-17.01,3.76-2.97.7-27.06,13.26-27.06,13.26l-21.16-.95c-6.28-.28-11.71,4.63-11.99,10.96-.29,6.34,4.62,11.71,10.96,12l24.06,1.08c.18,0,.34.01.52.01,1.72,0,3.43-.39,4.99-1.14l15.94-7.69,5.88,26.88h-22.6c-10.21,0-18.48,8.28-18.48,18.48v61.61c0,7.11,5.77,12.88,12.88,12.88s12.89-5.77,12.89-12.88v-49.67c0-2.57,2.09-4.66,4.66-4.66h39.89c5.42,0,10.48-2.41,13.9-6.61Z"/>
    <path class="vinyl-imagination-grey" d="m226.73,141.94h-117.28c-4.76,0-8.62,3.86-8.62,8.62s3.86,8.62,8.62,8.62h50.02v77.03c0,4.76,3.85,8.62,8.62,8.62s8.62-3.86,8.62-8.62v-77.03h50.02c4.76,0,8.62-3.86,8.62-8.62s-3.86-8.62-8.62-8.62Z"/>
    <path class="vinyl-imagination-orange" d="m199.43,51.26c.86.86,2.03,1.34,3.24,1.34s2.38-.48,3.24-1.34l18.59-18.59c1.79-1.79,1.79-4.69,0-6.48-1.79-1.79-4.69-1.79-6.48,0l-15.35,15.35-7.46-7.46c-1.79-1.79-4.69-1.79-6.48,0-1.79,1.79-1.79,4.69,0,6.48l10.7,10.7Z"/>
    <path class="vinyl-imagination-orange" d="m99.83,66.02c.24,2.26-1.11,4.69-2.77,7.36-1.44,2.32-3.41,5.5-1.1,8.55.8,1.06,2.43,1.85,3.75,1.94.11,0,.23,0,.36,0,4.06,0,17.17-3.71,23.68-8.37,2.61.36,5.22.54,7.8.54,14.76,0,27.93-5.57,36.53-14.24,8.6,8.67,21.77,14.24,36.53,14.24,2.59,0,5.22-.19,7.85-.55,6.11,4.7,12.03,7.96,17.65,9.7.89.27,1.83.42,2.75.42.48,0,.97-.04,1.44-.12,2.35-.38,4.45-1.65,5.9-3.57,2.38-3.13,2.53-7.28.4-10.57-1.26-1.94-2.27-4.04-3.02-6.29,8.9-7.12,13.93-16.82,13.93-27.04,0-20.97-21.04-38.02-46.9-38.02-14.76,0-27.93,5.57-36.53,14.24-8.6-8.67-21.77-14.24-36.53-14.24-25.86,0-46.9,17.06-46.9,38.02,0,10.68,5.51,20.8,15.17,27.99Zm73.9-44.52c6.83-7.44,18.12-12.33,30.89-12.33,20.81,0,37.73,12.94,37.73,28.86,0,8.13-4.6,15.95-12.62,21.45-1.55,1.06-2.29,2.96-1.88,4.79.99,4.38,2.69,8.45,4.96,12.17-4.98-1.54-10.44-4.69-16.21-9.34-.82-.66-1.84-1.02-2.88-1.02-.26,0-.52.02-.79.07-2.79.48-5.59.73-8.33.73-12.77,0-24.06-4.89-30.89-12.33,3-5.01,4.73-10.6,4.73-16.52s-1.73-11.52-4.73-16.52Zm-41.49,41.27c-2.8,0-5.06-2.27-5.06-5.06s2.26-5.06,5.06-5.06,5.06,2.27,5.06,5.06-2.27,5.06-5.06,5.06Zm-.52-48.58c6.12,0,11.29,2.99,13.83,8,2.39,4.71,1.97,10.22-1.08,14.37-1.98,2.69-3.98,4.1-5.45,5.13-1.66,1.16-2.37,1.66-2.57,4.39-.09,1.2-1.12,2.13-2.32,2.13h-3.64c-1.36,0-2.45-1.18-2.34-2.53.5-6.36,2.97-8.61,6.09-10.8,1.26-.89,2.36-1.65,3.52-3.24,1.18-1.61,1.32-3.78.36-5.68-.65-1.28-2.34-3.43-6.4-3.43-5.29,0-6.91,3.34-7.37,5.93-.2,1.13-1.15,1.95-2.3,1.95h-3.67c-1.42,0-2.54-1.25-2.33-2.65,1.01-6.95,6.01-13.56,15.68-13.56Z"/>
  </g>
</svg>