<?xml version="1.0" encoding="UTF-8"?>
<svg id="Layer_2" data-name="Layer 2" xmlns="http://www.w3.org/2000/svg" viewBox="0 0 216.08 251.33">
  <defs>
    <style>
      .vinyl-imagination-blue {
        fill: #122cd0;
      }

      .vinyl-imagination-grey {
        fill: #b3b3b3;
      }
    </style>
  </defs>
  <g id="Layer_1-2">
    <path class="vinyl-imagination-grey" d="m186.65,78.48c-8.82,6.74-19.82,10.7-31.71,10.7s-22.89-3.96-31.71-10.65c-12.04,6.04-21.5,16.6-26.16,29.43,10.5,3.77,20.16,9.86,28.29,17.98,6.74,6.74,12.14,14.76,15.95,23.43h65.94c4.86,0,8.82-3.91,8.82-8.82v-14.27c0-20.86-11.99-38.99-29.43-47.81Z"/>
    <path class="vinyl-imagination-grey" d="m154.91,73.37c20.26,0,36.68-16.42,36.68-36.68S175.18,0,154.91,0s-36.69,16.42-36.69,36.68,16.43,36.68,36.69,36.68Z"/>
    <path class="vinyl-imagination-grey" d="m126.25,215.35l-26.78-13.85c-3.78-1.95-8.42-.94-11.04,2.42l-9.83,12.6c-9.57-5.18-16.83-10.08-25.27-18.52-9-9-13.78-16.4-18.71-25.71l12.46-9.73c3.36-2.62,4.37-7.26,2.41-11.03l-13.77-26.64c-2.42-4.68-8.38-6.22-12.76-3.3l-17.05,11.37c-3.96,2.64-6.2,7.19-5.88,11.93.33,4.86.94,10.97,2.05,15.24,4.97,19.11,16.91,38.81,33.61,55.51,16.69,16.69,36.41,28.64,55.51,33.61,4.29,1.12,10.42,1.72,15.3,2.04,4.81.32,9.41-2,12.02-6.06l11.11-17.25c2.82-4.39,1.26-10.25-3.37-12.64Z"/>
    <circle class="vinyl-imagination-blue" cx="71.09" cy="180.28" r="10.5" transform="translate(-106.66 103.07) rotate(-45)"/>
    <path class="vinyl-imagination-blue" d="m71.12,118.3c-3.71,0-6.71,3-6.71,6.71,0,3.71,3,6.71,6.71,6.71,12.92,0,25.09,5.05,34.25,14.21,9.06,9.06,14.2,21.52,14.1,34.2-.03,3.71,2.95,6.73,6.65,6.76.02,0,.04,0,.05,0,3.68,0,6.68-2.97,6.71-6.65.13-16.25-6.44-32.21-18.03-43.79-11.7-11.7-27.23-18.14-43.73-18.14Z"/>
    <path class="vinyl-imagination-blue" d="m87.24,164.06c4.29,4.3,6.66,10.03,6.66,16.15,0,3.7,3.01,6.71,6.71,6.71,3.7,0,6.71-3,6.71-6.71,0-9.7-3.76-18.8-10.59-25.63-6.83-6.83-15.93-10.59-25.63-10.59-3.7,0-6.71,3-6.71,6.71,0,3.71,3.01,6.71,6.71,6.71,6.12,0,11.85,2.36,16.15,6.66Z"/>
  </g>
</svg>