<?xml version="1.0" encoding="UTF-8"?>
<svg id="Layer_2" data-name="Layer 2" xmlns="http://www.w3.org/2000/svg" viewBox="0 0 200.19 260.97">
  <defs>
    <style>
      .vinyl-imagination-orange {
        fill: #e57a00;
      }

      .vinyl-imagination-grey {
        fill: #b3b3b3;
      }
    </style>
  </defs>
  <g id="Layer_1-2">
    <path class="vinyl-imagination-orange" d="m187.49,85.32c0,2.17-1.45,4.03-3.41,4.76-2.07.62-4.34,0-5.58-1.76-4.24-5.79-10.55-9.2-17.37-9.2-7.45,0-14.38,4.03-18.2,10.44-.93,1.55-2.38,2.69-4.34,2.59-1.65,0-3.31-.93-4.24-2.48-3.83-6.62-10.76-10.55-18.1-10.55-5.48,0-10.76,2.28-14.69,6v13.24c-2.59-.52-5.17-.83-7.86-.83s-5.38.31-7.86.83v-13.24c-3.93-3.72-9.2-6-14.68-6-7.45,0-14.37,4.03-18.1,10.55-.93,1.55-2.59,2.48-4.24,2.48-1.86,0-3.52-.93-4.35-2.48-3.82-6.52-10.75-10.55-18.2-10.55-6.83,0-13.24,3.41-17.38,9.1-1.24,1.86-3.41,2.48-5.48,1.86-2.07-.62-3.41-2.59-3.41-4.76v-1.34C2.48,44.88,38.68,15.51,85.83,12.62v-4.76c0-4.34,3.52-7.86,7.86-7.86s7.86,3.52,7.86,7.86v4.76c47.05,2.9,83.45,32.26,85.83,70.53,0,1.34.1,1.76.1,2.17Z"/>
    <path class="vinyl-imagination-grey" d="m120.59,226.17c0,5.26.89,10.22,2.58,14.89-9.53,1.29-19.35,1.89-29.37,1.89-16.47,0-32.25-1.69-47.04-4.86-3.77-.79-6.35-4.47-5.86-8.34l3.57-29.87c1.69-13.3,10.22-24.21,21.83-29.28,7.44,6.15,16.97,9.82,27.39,9.82s20.05-3.67,27.49-9.82c8.34,3.67,15.18,10.32,18.86,18.76-11.71,7.94-19.45,21.53-19.45,36.82Z"/>
    <path class="vinyl-imagination-grey" d="m93.73,105.84c-17.4,0-31.51,14.11-31.51,31.51s14.11,31.52,31.51,31.52,31.52-14.11,31.52-31.52-14.11-31.51-31.52-31.51Z"/>
    <path class="vinyl-imagination-orange" d="m165.37,191.33c-19.23,0-34.82,15.59-34.82,34.82s15.59,34.82,34.82,34.82,34.82-15.59,34.82-34.82-15.59-34.82-34.82-34.82Zm15.65,31.11l-16.91,16.91c-.99.99-2.29,1.49-3.59,1.49s-2.6-.5-3.59-1.49l-8.4-8.4c-1.98-1.98-1.98-5.2,0-7.18,1.98-1.98,5.2-1.98,7.18,0l4.81,4.81,13.32-13.32c1.98-1.98,5.2-1.98,7.18,0,1.98,1.98,1.98,5.2,0,7.18Z"/>
  </g>
</svg>