<?xml version="1.0" encoding="UTF-8"?>
<svg id="Layer_2" data-name="Layer 2" xmlns="http://www.w3.org/2000/svg" viewBox="0 0 212.05 276.11">
  <defs>
    <style>
      .vinyl-imagination-orange {
        fill: #e57a00;
      }

      .vinyl-imagination-grey {
        fill: #b3b3b3;
      }
    </style>
  </defs>
  <g id="Layer_1-2">
    <path class="vinyl-imagination-grey" d="m89.32,210.6l-29.91,62.41c-1.86,4.02-7.32,4.12-9.49.31l-12.69-22.59-25.68,4.33c-4.23.73-7.53-3.71-5.67-7.74l32.08-66.84h.62c2.89,0,7.43,0,9.49.52,1.03,1.75,2.48,5.98,3.3,8.66,3.09,9.18,6.81,20.53,18.05,24.14,1.96.62,4.02,1.03,6.09,1.03,4.95,0,9.59-1.75,13.82-4.23Z"/>
    <path class="vinyl-imagination-grey" d="m200.42,255.06l-25.58-4.33-12.69,22.59c-2.17,3.82-7.63,3.71-9.59-.31l-29.91-62.41c4.23,2.37,8.87,4.23,13.93,4.23,2.06,0,4.13-.41,6.09-1.03,11.14-3.61,14.96-14.95,17.95-24.14.93-2.79,2.48-7.22,3.51-8.87,1.44-.31,6.29-.31,9.39-.41h.52l32.18,66.94c1.86,4.02-1.45,8.46-5.78,7.74Z"/>
    <path class="vinyl-imagination-orange" d="m106.02,50.48c-27.97,0-50.73,22.76-50.73,50.73s22.76,50.73,50.73,50.73,50.73-22.76,50.73-50.73-22.76-50.73-50.73-50.73Zm26.37,42.15l-28.01,28.01c-1.45,1.45-3.36,2.18-5.27,2.18s-3.81-.73-5.27-2.18l-15.11-15.11c-2.91-2.91-2.91-7.63,0-10.53,2.91-2.91,7.62-2.91,10.53,0l9.85,9.85,22.74-22.74c2.91-2.91,7.62-2.91,10.53,0,2.91,2.91,2.91,7.63,0,10.53Z"/>
    <path class="vinyl-imagination-grey" d="m212.05,101.21c0-10.36-21.07-17.27-24.11-26.62-3.15-9.69,9.73-27.64,3.86-35.71-5.93-8.15-27.02-1.41-35.17-7.34-8.07-5.87-8.15-28.04-17.84-31.19-9.35-3.04-22.41,14.75-32.77,14.75S82.6-2.69,73.25.35c-9.69,3.15-9.77,25.31-17.84,31.19-8.15,5.93-29.24-.8-35.17,7.34-5.87,8.07,7.01,26.02,3.86,35.71-3.04,9.35-24.11,16.26-24.11,26.62s21.07,17.27,24.11,26.62c3.15,9.69-9.73,27.64-3.86,35.71,5.93,8.15,27.02,1.41,35.17,7.34,8.07,5.87,8.15,28.04,17.84,31.19,9.35,3.04,22.41-14.75,32.77-14.75s23.42,17.79,32.77,14.75c9.69-3.15,9.77-25.31,17.84-31.19,8.15-5.93,29.24.8,35.17-7.35,5.87-8.07-7.01-26.02-3.86-35.71,3.04-9.35,24.11-16.26,24.11-26.62Zm-106.02,62.97c-34.72,0-62.97-28.25-62.97-62.97s28.25-62.97,62.97-62.97,62.97,28.25,62.97,62.97-28.25,62.97-62.97,62.97Z"/>
  </g>
</svg>