<?xml version="1.0" encoding="UTF-8"?>
<svg id="Layer_2" data-name="Layer 2" xmlns="http://www.w3.org/2000/svg" viewBox="0 0 242.36 242.2">
  <defs>
    <style>
      .vinyl-imagination-orange {
        fill: #e57a00;
      }

      .vinyl-imagination-grey {
        fill: #b3b3b3;
      }
    </style>
  </defs>
  <g id="Layer_1-2">
    <path class="vinyl-imagination-grey" d="m49.93,142.92l12.51,12.51c2.55,2.55,2.55,6.89,0,9.44-1.27,1.28-2.81,1.79-4.59,1.79s-3.57-.51-4.59-1.79l-12.51-12.51-15.57,15.57,12.51,12.51c2.55,2.55,2.55,6.89,0,9.44-1.27,1.28-2.81,1.79-4.59,1.79s-3.32-.76-4.59-1.79l-12.76-12.76-12.51,12.51c-4.34,4.34-4.34,11.48.26,15.82l33.43,33.43c2.3,2.04,5.1,3.32,7.91,3.32s5.61-1.02,7.91-3.32l64.57-64.57-49.51-49.26-17.86,17.86Z"/>
    <path class="vinyl-imagination-grey" d="m239.04,36.5L205.61,3.06c-4.08-4.08-11.48-4.08-15.82,0l-12.25,12.51,12.51,12.51c2.55,2.55,2.55,6.89,0,9.45-1.28,1.28-2.81,2.04-4.59,2.04s-3.57-.76-4.6-2.04l-12.51-12.51-15.57,15.56,12.51,12.51c2.55,2.55,2.55,6.89,0,9.44-1.28,1.28-2.81,1.79-4.59,1.79s-3.57-.51-4.6-1.79l-13.01-13.01-18.12,18.12,49.26,49.26,64.82-64.83c2.04-2.04,3.32-4.85,3.32-7.91s-1.28-5.61-3.32-7.65Z"/>
    <rect class="vinyl-imagination-orange" x="96.08" y="20.17" width="54.62" height="205.88" transform="translate(-50.91 123.3) rotate(-45)"/>
    <path class="vinyl-imagination-orange" d="m232.63,196.74c-.25-2.04-1.02-4.08-2.55-5.36l-5.1-5.1-38.79,38.54,5.1,5.1c1.53,1.53,3.32,2.3,5.36,2.8l29.61,4.85c6.63,1.02,12.25-4.6,11.23-11.23l-4.85-29.61Z"/>
    <path class="vinyl-imagination-orange" d="m21.88,60.26L60.42,21.73l-15.57-15.57c-3.83-3.83-9.95-3.83-13.78,0L6.32,30.91c-3.83,3.83-3.83,9.96,0,13.78l15.57,15.57Z"/>
  </g>
</svg>