<?xml version="1.0" encoding="UTF-8"?>
<svg id="Layer_2" data-name="Layer 2" xmlns="http://www.w3.org/2000/svg" viewBox="0 0 230.33 120.12">
  <defs>
    <style>
      .vinyl-imagination-orange {
        fill: #e57a00
      }

      .vinyl-imagination-grey {
        fill: #b3b3b3;
      }
    </style>
  </defs>
  <g id="Layer_1-2">
    <path class="vinyl-imagination-orange" d="m80.73,120.12h131.32c10.08,0,18.28-8.2,18.28-18.28V18.28c0-10.08-8.2-18.28-18.28-18.28H80.73c-10.08,0-18.28,8.2-18.28,18.28v83.57c0,10.08,8.2,18.28,18.28,18.28Zm7.43-87.46c-2.5-2.11-2.82-5.86-.7-8.36,2.11-2.51,5.87-2.82,8.36-.7l50.57,42.78,50.57-42.78c2.49-2.13,6.24-1.81,8.36.7,2.12,2.5,1.81,6.25-.7,8.36l-31.58,26.72,31.69,28.16c2.46,2.18,2.67,5.93.5,8.38-1.17,1.32-2.8,1.99-4.44,1.99-1.4,0-2.81-.49-3.94-1.49l-32.96-29.3-13.66,11.56c-1.1.94-2.47,1.41-3.83,1.41s-2.73-.46-3.83-1.41l-13.67-11.56-32.96,29.3c-1.13,1-2.53,1.49-3.94,1.49-1.64,0-3.27-.67-4.44-1.99-2.17-2.45-1.96-6.19.5-8.38l31.69-28.16-31.58-26.72Z"/>
    <path class="vinyl-imagination-grey" d="m43.6,80.55h-22.13c-4.24,0-7.68,3.44-7.68,7.68s3.43,7.68,7.68,7.68h22.13c4.24,0,7.68-3.44,7.68-7.68s-3.44-7.68-7.68-7.68Z"/>
    <path class="vinyl-imagination-grey" d="m7.67,67.74h35.92c4.24,0,7.68-3.44,7.68-7.68s-3.44-7.68-7.68-7.68H7.67c-4.24,0-7.67,3.44-7.67,7.68s3.43,7.68,7.67,7.68Z"/>
    <path class="vinyl-imagination-grey" d="m21.47,39.57h22.13c4.24,0,7.68-3.44,7.68-7.68s-3.44-7.68-7.68-7.68h-22.13c-4.24,0-7.68,3.44-7.68,7.68s3.43,7.68,7.68,7.68Z"/>
  </g>
</svg>