<?xml version="1.0" encoding="UTF-8"?>
<svg id="Layer_2" data-name="Layer 2" xmlns="http://www.w3.org/2000/svg" viewBox="0 0 372.79 268.28">
  <defs>
    <style>
      .vinyl-imagination-orange {
        fill: #e57a00;
      }

      .vinyl-imagination-grey {
        fill: #b3b3b3;
      }
    </style>
  </defs>
  <g id="Layer_1-2">
    <g>
      <circle class="vinyl-imagination-orange" cx="22.52" cy="186.4" r="22.52" transform="translate(-165.08 178.77) rotate(-80.78)"/>
      <circle class="vinyl-imagination-orange" cx="70.52" cy="70.52" r="22.52"/>
      <circle class="vinyl-imagination-orange" cx="186.39" cy="22.52" r="22.52"/>
      <circle class="vinyl-imagination-orange" cx="302.26" cy="70.52" r="22.52"/>
      <circle class="vinyl-imagination-orange" cx="350.27" cy="186.39" r="22.52" transform="translate(-44.67 148.23) rotate(-22.5)"/>
    </g>
    <g>
      <path class="vinyl-imagination-grey" d="m76.62,165.38l-16.79,16.79c-2.33,2.33-2.33,6.11,0,8.45l16.79,16.79c2.33,2.33,6.11,2.33,8.45,0,2.33-2.33,2.33-6.11,0-8.45l-6.59-6.59h43.2c3.3,0,5.97-2.67,5.97-5.97s-2.68-5.97-5.97-5.97h-43.2l6.59-6.59c1.17-1.17,1.75-2.7,1.75-4.22s-.58-3.06-1.75-4.22c-2.33-2.33-6.12-2.33-8.45,0Z"/>
      <path class="vinyl-imagination-grey" d="m123.63,93.91h-23.75c-3.3,0-5.97,2.67-5.97,5.97v23.75c0,3.3,2.67,5.97,5.97,5.97,3.3,0,5.97-2.67,5.97-5.97v-9.32s30.55,30.55,30.55,30.55c2.33,2.33,6.11,2.33,8.45,0s2.33-6.12,0-8.45l-30.55-30.55h9.32c1.65,0,3.14-.67,4.22-1.75,1.08-1.08,1.75-2.57,1.75-4.22,0-3.3-2.67-5.97-5.97-5.97Z"/>
      <path class="vinyl-imagination-grey" d="m207.41,76.62l-16.79-16.79c-2.33-2.33-6.11-2.33-8.45,0l-16.79,16.79c-2.33,2.33-2.33,6.11,0,8.45,2.33,2.33,6.11,2.33,8.45,0l6.59-6.59v43.2c0,3.3,2.67,5.97,5.97,5.97s5.97-2.68,5.97-5.97v-43.2l6.59,6.59c1.17,1.17,2.7,1.75,4.22,1.75s3.06-.58,4.22-1.75c2.33-2.33,2.33-6.12,0-8.45Z"/>
      <path class="vinyl-imagination-grey" d="m278.87,123.63v-23.75c0-3.3-2.67-5.97-5.97-5.97h-23.75c-3.3,0-5.97,2.67-5.97,5.97,0,3.3,2.67,5.97,5.97,5.97h9.32s-30.55,30.55-30.55,30.55c-2.33,2.33-2.33,6.11,0,8.45s6.12,2.33,8.45,0l30.55-30.55v9.32c0,1.65.67,3.14,1.75,4.22,1.08,1.08,2.57,1.75,4.22,1.75,3.3,0,5.97-2.67,5.97-5.97Z"/>
      <path class="vinyl-imagination-grey" d="m296.17,207.41l16.79-16.79c2.33-2.33,2.33-6.11,0-8.45l-16.79-16.79c-2.33-2.33-6.11-2.33-8.45,0-2.33,2.33-2.33,6.11,0,8.45l6.59,6.59h-43.2c-3.3,0-5.97,2.67-5.97,5.97s2.68,5.97,5.97,5.97h43.2l-6.59,6.59c-1.17,1.17-1.75,2.7-1.75,4.22s.58,3.06,1.75,4.22c2.33,2.33,6.12,2.33,8.45,0Z"/>
      <path class="vinyl-imagination-grey" d="m186.39,208.61c16.02,0,29.02-13,29.02-29.02s-13-29.02-29.02-29.02-29.01,13-29.01,29.02,12.99,29.02,29.01,29.02Z"/>
      <path class="vinyl-imagination-grey" d="m235.86,260.12c.47,4.36-2.94,8.16-7.4,8.16h-84.15c-4.36,0-7.78-3.8-7.4-8.16l2.28-22.2c1.52-12.05,9.01-22.2,19.35-27.04,7.4,6.55,17.17,10.63,27.89,10.63s20.4-4.08,27.8-10.72c10.44,4.93,17.93,15.08,19.45,27.22l2.18,22.1Z"/>
    </g>
  </g>
</svg>