<?xml version="1.0" encoding="UTF-8"?>
<svg id="Layer_2" data-name="Layer 2" xmlns="http://www.w3.org/2000/svg" viewBox="0 0 303.67 300">
  <defs>
    <style>
      .cls-1 {
        fill: #e57a00;
      }

      .vinyl-imagination-grey {
        fill: #b3b3b3;
      }
    </style>
  </defs>
  <g id="Layer_1-2">
    <path class="vinyl-imagination-grey" d="m243.2,0H45.42v241.25h197.78v-122.94c-4.05.65-8.4.84-12.65.78-.04,1.17-.19,2.35-.48,3.52-1.9,7.78-8.53,11.73-16.08,12.71-12.62,1.63-32.26-3.96-46.4-8.59-3.92,4.67-7.67,9.48-11.27,14.42-5.21,7.13-10.13,14.49-14.91,21.92-4.46,6.92-13.78,8.95-20.7,4.51-6.94-4.45-8.97-13.79-4.51-20.72,5.11-7.93,10.37-15.78,15.93-23.4,26.61-36.42,66.87-72.83,111.08-94.46V0h0ZM35.42,0h-18.28C7.71,0,0,7.71,0,17.14v234.29c6.23-6.28,14.86-10.18,24.37-10.18h11.05V0Z"/>
    <path class="vinyl-imagination-grey" d="m24.37,251.25h218.83v48.75H24.37C10.97,300,0,289.03,0,275.63H0c0-13.41,10.97-24.37,24.37-24.37Z"/>
    <path class="cls-1" d="m303.67,20.26c-61.35,8-125.6,57.25-163.47,109.08-5.03,6.88-10.08,14.34-15.6,22.91-1.49,2.32-.81,5.41,1.5,6.89,2.32,1.49,5.41.82,6.89-1.5,5.42-8.41,10.35-15.71,15.25-22.41,4.91-6.72,9.76-12.81,14.98-18.79.39-.44.68-.93.88-1.44,47.2,16.14,64.8,13.86,52.81-6.84,32.7,3.46,43.1-2.87,31.18-18.97,28.74-3.41,37.54-11.96,26.41-25.65,19.16-7.63,28.88-22.06,29.15-43.28Z"/>
  </g>
</svg>