<?xml version="1.0" encoding="UTF-8"?>
<svg id="Layer_2" data-name="Layer 2" xmlns="http://www.w3.org/2000/svg" viewBox="0 0 324.2 261.29">
  <defs>
    <style>
      .vinyl-imagination-orange {
        fill: #e57a00;
      }

      .vinyl-imagination-grey {
        fill: #b3b3b3;
      }
    </style>
  </defs>
  <g id="Layer_1-2">
    <path class="vinyl-imagination-orange" d="m318.04,45.24c-58.95-4.01-75.4-36.32-76.12-37.88-2.15-4.42-6.7-7.36-11.73-7.36s-9.58,2.87-11.73,7.36c-.66,1.38-17,33.87-76.12,37.88-3.47.24-6.16,3.11-6.16,6.59v14.36c11.55,5.33,19.99,16.04,22.08,28.91,1.44,8.44,1.8,16.4,1.02,23.76-.24,2.39-.6,4.84-1.08,7.36h26.75c-1.79-4.97-2.75-10.35-2.75-15.98,0-26.45,21.49-48,48-48s48,21.55,48,48-21.49,48.06-48,48.06c-2.93,0-5.8-.24-8.56-.78.12.65.12,1.32.12,1.97,0,2.76-.3,5.45-.96,8.08,3.41,5.27,5.27,11.49,5.27,17.9s-1.86,12.69-5.27,18.01c.66,2.57.96,5.27.96,7.96,0,2.22-.24,4.43-.66,6.52,3.59,1.79,5.92,2.81,6.46,3.05.84.36,1.74.54,2.63.54s1.8-.18,2.63-.54c3.71-1.61,91.38-40.4,91.38-110.95v-58.23c0-3.47-2.69-6.35-6.16-6.59Z"/>
    <path class="vinyl-imagination-orange" d="m228.12,129.49l25.27-25.26c2.8-2.81,2.81-7.35,0-10.16s-7.35-2.81-10.16,0l-20.19,20.19-7.47-7.47c-2.81-2.81-7.35-2.81-10.16,0-2.81,2.81-2.81,7.35,0,10.16l12.55,12.55c1.4,1.4,3.24,2.1,5.08,2.1s3.68-.7,5.08-2.1Z"/>
    <path class="vinyl-imagination-grey" d="m212.27,185.48c0-5.98-2.69-11.52-7.43-15.3,2.05-3.18,3.18-6.84,3.18-10.67,0-10.77-8.78-19.55-19.61-19.55h-47.73c1.78-5.71,3.99-13.95,4.9-22.57.65-6.03.38-12.72-.86-19.93-1.78-10.67-10.08-18.96-20.69-20.75-8.57-1.4-16.81,4.16-18.64,12.72l-4.04,18.86c-2.1,9.75-7.06,18.53-14.28,25.43l-22.19,21.12c-2.05,1.94-4.69,3.02-7.54,3.02h-5.71c-1.02-3.77-4.47-6.57-8.62-6.57H9c-4.96,0-9,3.98-9,8.99v75.21c0,5.01,4.04,9,9,9h34c4.15,0,7.6-2.81,8.62-6.57h10.18l1.51,2.37c8.13,12.99,22.09,20.85,37.34,21.02h3.77c14.17,0,35.13-.92,54.31-5.28,2.1.7,3.99,1.03,5.87,1.03h20.15c10.78,0,19.56-8.78,19.56-19.62,0-3.87-1.19-7.64-3.45-10.93,4.58-3.78,7.17-9.22,7.17-15.03,0-3.78-1.13-7.43-3.18-10.67,4.74-3.72,7.43-9.26,7.43-15.3ZM25.97,229.64c-4.45,0-8.06-3.61-8.06-8.11s3.61-8.12,8.06-8.12,8.12,3.66,8.12,8.12-3.61,8.11-8.12,8.11Zm134.91-76.48h27.53c3.56,0,6.41,2.86,6.41,6.35s-2.85,6.42-6.41,6.42h-27.53c-3.5,0-6.41-2.86-6.41-6.42s2.91-6.35,6.41-6.35Zm-14.33,91.8c-12.61,2.05-27.15,3.13-43.26,3.13h-2.48c-10.72-.11-20.58-5.66-26.29-14.82l-3.45-5.5c-1.19-1.93-3.29-3.07-5.6-3.07h-13.47v-53.66h5.34c6.25,0,12.17-2.37,16.65-6.63l22.2-21.17c9.16-8.73,15.41-19.88,18.05-32.22l4.04-18.8c.38-1.67,1.94-2.69,3.61-2.48,5.01.81,9,4.79,9.86,9.91.97,5.98,1.24,11.48.7,16.32-1.51,13.96-7.01,27.48-7.22,28.02-.86,2.05-.65,4.37.59,6.19,1.24,1.83,3.29,2.96,5.49,2.96h10.99l-.32,1.46c-8.14,34.38-35.88,31.79-37.07,31.68-1.78-.22-3.5.27-4.85,1.4-1.4,1.08-2.26,2.64-2.48,4.36-.16,1.78.32,3.51,1.4,4.91,1.08,1.34,2.64,2.26,4.37,2.43.11.05,1.18.16,3.01.16,5.44,0,19.13-1.13,30.98-11.1.7,4.85,3.29,9.32,7.17,12.34-2.1,3.24-3.18,6.9-3.18,10.67,0,5.82,2.59,11.26,7.11,15.03-2.26,3.28-3.45,7.05-3.45,10.93,0,2.54.54,5.07,1.56,7.55Zm38.2-1.13h-20.15c-3.55,0-6.41-2.91-6.41-6.42s2.86-6.35,6.41-6.35h20.15c3.5,0,6.36,2.86,6.36,6.35s-2.85,6.42-6.36,6.42Zm3.66-25.97h-27.53c-3.5,0-6.41-2.85-6.41-6.41s2.91-6.36,6.41-6.36h27.53c3.56,0,6.41,2.86,6.41,6.36s-2.85,6.41-6.41,6.41Zm4.31-25.96h-36.15c-3.5,0-6.36-2.86-6.36-6.42s2.85-6.35,6.36-6.35h36.15c3.5,0,6.41,2.85,6.41,6.35s-2.91,6.42-6.41,6.42Z"/>
  </g>
</svg>