<?xml version="1.0" encoding="UTF-8"?>
<svg id="Layer_2" data-name="Layer 2" xmlns="http://www.w3.org/2000/svg" viewBox="0 0 585.12 585.12">
  <defs>
    <style>
      .cls-1 {
        fill: #3f3d3b;
      }

      .cls-2 {
        fill: #e57a00;
      }

      .vinyl-imagination-grey {
        fill: #b3b3b3;
      }
    </style>
  </defs>
  <g id="Layer_1-2">
    <path class="vinyl-imagination-grey" d="m442.16,420.85c-3.29,3.81-6.69,7.52-10.3,11.07-35.62,35.63-84.89,57.71-139.3,57.71-39.64,0-76.6-11.74-107.49-31.92,4.32-2.11,8.7-4.07,13.23-5.77,27.59,16.37,59.87,25.74,94.26,25.74,48.91,0,93.38-18.95,126.49-49.94,7.77-2.01,15.5-4.27,23.11-6.9h0Z"/>
    <path class="vinyl-imagination-grey" d="m292.56,95.55c54.41,0,103.68,22.09,139.3,57.71,7.52,7.52,14.42,15.6,20.59,24.19-4.38.82-8.75,1.6-13.18,2.21-4.89-6.33-10.14-12.3-15.8-17.97-33.51-33.51-79.79-54.21-130.91-54.21-46.13,0-88.34,16.89-120.72,44.79-5.66-.41-11.27-.67-16.89-.72,35.52-34.65,84.07-56.01,137.61-56.01h0Z"/>
    <path class="vinyl-imagination-grey" d="m292.56,0c80.82,0,153.93,32.74,206.9,85.71,52.92,52.92,85.66,126.08,85.66,206.85s-32.74,153.93-85.66,206.9c-52.97,52.92-126.07,85.66-206.9,85.66s-153.93-32.74-206.85-85.66C32.74,446.54,0,373.39,0,292.56S32.74,138.64,85.71,85.71C138.64,32.74,211.79,0,292.56,0h0Zm198.46,94.16c-50.76-50.81-120.93-82.21-198.46-82.21s-147.65,31.4-198.46,82.21C43.35,144.92,11.94,215.08,11.94,292.56s31.4,147.7,82.16,198.46c50.81,50.81,120.98,82.21,198.46,82.21s147.7-31.4,198.46-82.21c50.81-50.76,82.21-120.93,82.21-198.46s-31.4-147.65-82.21-198.4h0Z"/>
    <path class="cls-1" d="m155.11,119.23l-7.62,7.82-19.56-14.67,10.3,24.2-3.04,3.09-24.14-9.94,14.93,19.46-7.62,7.83-25.28-34.49,7.57-7.77,22.08,9.57-9.88-22.14,7.62-7.82,34.65,24.86Zm43.04-25.79l-10.04,5.97-6.07-4.94-13.03,7.72,1.24,7.77-9.94,5.92-7.57-44.48,10.25-6.13,35.16,28.16Zm-22.91-4.63l-10.81-9.21,2.88,13.95,7.93-4.74Zm58.28-30.32c1.39,4.17,1.44,8.44.15,12.82-1.29,4.38-3.65,7.93-7.1,10.6-1.8,1.44-3.76,2.52-5.92,3.24l-15.29,5.2-13.59-39.9,15.29-5.2c3.76-1.29,7.57-1.39,11.48-.41,3.81.98,7.16,2.83,9.99,5.66,2.32,2.37,3.96,4.99,4.99,7.98h0Zm-10.76,3.66c-.98-2.73-2.57-4.89-4.79-6.43-2.99-2.01-6.49-2.37-10.55-.98l-2.37.82,7.72,22.65,2.37-.77c4.07-1.39,6.64-3.81,7.77-7.21.82-2.63.77-5.3-.15-8.08h0Zm51.07,11.07l-23.63,3.86-6.85-41.6,23.63-3.86,1.49,8.96-12.87,2.11,1.18,7.21,12.15-2.01,1.49,8.96-12.15,2.01,1.24,7.46,12.82-2.11,1.49,9.01Zm38.35.67l-10.91-.82,3.09-42.01,10.91.82-3.09,42.01Zm52.77,9.99l-10.66-2.42-13.9-29.65-5.71,25.12-10.66-2.42,9.37-41.08,10.66,2.42,13.9,29.65,5.77-25.12,10.66,2.42-9.42,41.08Zm67.39,15.6c-1.29,2.16-2.58,3.97-3.81,5.3-1.96,2.06-4.53,3.5-7.78,4.22-4.58,1.08-9.32.16-14.26-2.73-5.04-2.93-8.13-6.64-9.27-11.12-.62-2.37-.51-4.84.21-7.41.57-1.85,1.65-4.12,3.19-6.79l12.3-20.95,9.42,5.51-11.48,19.66c-.93,1.55-1.59,2.73-2.01,3.55-1.29,2.57-1.13,4.94.36,7.16.62.93,1.44,1.65,2.47,2.26,2.32,1.34,4.53,1.54,6.64.62,1.54-.67,3.35-2.73,5.35-6.13l11.48-19.61,9.42,5.51-12.25,20.95Zm30.58,33.36c-4.89,5.15-10.35,6.33-16.37,3.6-2.11-.98-4.07-2.32-5.87-4.07-3.81-3.6-6.23-8.13-7.31-13.54l9.47-3.14c.31,4.43,1.6,7.72,3.91,9.88.98.98,2.11,1.6,3.3,1.8,1.34.26,2.47-.15,3.45-1.13.82-.93,1.13-2.11.77-3.55-.26-1.13-.98-2.68-2.16-4.69-1.39-2.47-2.26-4.07-2.52-4.74-.52-1.13-.77-2.21-.93-3.19-.31-2.88.77-5.66,3.4-8.39,2.68-2.83,5.77-4.38,9.22-4.63,4.07-.31,7.72,1.13,10.96,4.22,3.29,3.14,5.71,7.05,7.26,11.69l-9.01,3.19c-.41-3.04-1.49-5.4-3.24-7.05-.88-.82-1.85-1.34-2.94-1.54-1.24-.21-2.21.05-2.98.93-.77.77-.98,1.96-.52,3.5.15.67,1.08,2.42,2.68,5.2,2.01,3.5,2.88,6.59,2.62,9.22-.21,2.27-1.24,4.38-3.19,6.43h0Zm20.08,50.04l-6.38-9.78,4.63-6.28-8.29-12.66-7.67,1.6-6.33-9.68,44.12-9.52,6.54,9.99-26.62,36.35Zm3.66-23.06l8.75-11.22-13.8,3.5,5.04,7.72Z"/>
    <path class="cls-2" d="m186.41,530.66l-9.58-5.3,9.01-22.75-20.64,16.32-3.81-2.11,3.24-25.89-14.83,19.46-9.58-5.25,26.62-33.41,9.52,5.25-3.45,23.78,18.79-15.34,9.52,5.3-14.83,39.95Zm47.26,16.16l-11.07-3.76-.26-7.78-14.31-4.84-5.1,6.02-10.97-3.65,28.78-34.8,11.27,3.81,1.65,44.99Zm-11.43-20.38l-.05-14.21-8.7,11.28,8.75,2.93Zm58.53,5.3c-.57,4.32-2.37,8.19-5.46,11.58-3.14,3.4-6.8,5.51-11.07,6.44-2.21.46-4.48.56-6.74.31l-16.01-2.06,5.3-41.8,16.01,2.06c3.91.46,7.41,2.01,10.45,4.63,3.04,2.52,5.2,5.71,6.49,9.47,1.08,3.14,1.39,6.23,1.03,9.37h0Zm-11.33-1.44c.36-2.88-.1-5.51-1.44-7.88-1.8-3.14-4.79-4.94-9.06-5.51l-2.47-.31-2.99,23.78,2.47.31c4.27.51,7.62-.51,10.14-3.09,1.85-1.95,2.99-4.37,3.35-7.31h0Zm42.57,21.62l-23.94.72-1.29-42.11,23.94-.72.31,9.11-13.02.36.21,7.26,12.3-.36.31,9.11-12.35.36.26,7.57,12.97-.36.31,9.06Zm37.79-6.02l-10.66,2.47-9.52-41.03,10.66-2.47,9.52,41.03Zm51.38-15.8l-10.35,3.45-27.33-18.02,8.24,24.45-10.35,3.5-13.44-39.95,10.35-3.5,27.28,18.02-8.19-24.45,10.35-3.45,13.44,39.95Zm45.36-50.15c1.49,2.06,2.57,3.97,3.29,5.67,1.08,2.62,1.29,5.56.67,8.85-.93,4.58-3.71,8.54-8.34,11.84-4.79,3.4-9.42,4.69-14,3.86-2.37-.41-4.63-1.49-6.64-3.24-1.44-1.24-3.09-3.14-4.89-5.71l-14.05-19.77,8.91-6.33,13.18,18.53c1.08,1.49,1.86,2.58,2.47,3.3,1.8,2.21,4.02,3.09,6.64,2.62,1.08-.21,2.11-.62,3.09-1.34,2.16-1.55,3.24-3.5,3.29-5.77,0-1.75-1.13-4.17-3.4-7.41l-13.18-18.53,8.91-6.33,14.05,19.77Zm30.27-23.68c4.94,5.1,5.97,10.61,2.98,16.48-1.03,2.11-2.47,4.02-4.27,5.71-3.76,3.71-8.39,5.92-13.85,6.79l-2.73-9.63c4.43-.1,7.77-1.28,10.04-3.45.98-.98,1.65-2.06,1.91-3.24.26-1.34-.05-2.47-.98-3.5-.87-.88-2.06-1.18-3.55-.93-1.13.21-2.73.88-4.79,1.96-2.52,1.34-4.12,2.11-4.84,2.37-1.13.46-2.16.72-3.19.77-2.88.26-5.66-.98-8.24-3.65-2.73-2.83-4.12-5.92-4.27-9.42-.15-4.07,1.39-7.67,4.63-10.81,3.29-3.14,7.26-5.41,12-6.8l2.78,9.17c-3.04.26-5.41,1.29-7.16,2.98-.82.77-1.39,1.75-1.65,2.83-.26,1.18,0,2.21.77,3.04.77.82,1.96,1.03,3.5.67.72-.21,2.47-1.03,5.35-2.47,3.55-1.9,6.64-2.68,9.26-2.32,2.26.31,4.33,1.44,6.28,3.45h0Zm39.28-30.22l-6.74,9.57-7.57-1.95-8.65,12.35,4.32,6.59-6.59,9.47-25.28-37.43,6.85-9.78,43.66,11.17Zm-22.81,5.2l-13.64-3.97,8.39,11.53,5.25-7.57Z"/>
    <path class="vinyl-imagination-grey" d="m112.38,401.29c27.23-23.17,58.84-36.19,93.13-41.65,34.59-5.56,71.4-3.66,108.88-.36,38.04,3.34,74.39.98,108.78-7.31,34.75-8.44,68.11-22.65,99.25-44.37,2.01,5.35,4.01,10.71,5.92,16.11-30.99,23.42-64.25,39.13-98.74,48.75-34.18,9.52-70.32,12.97-108.06,10.55-37.17-2.37-73.77-3.76-108.06,2.11-34.08,5.82-65.33,19.05-92.15,43.09-2.99-9.06-5.97-17.97-8.96-26.93h0Z"/>
    <path class="vinyl-imagination-grey" d="m129.42,452.66c26.41-24.87,57.35-38.35,91.17-44.53,34.08-6.23,70.42-5.3,107.39-3.71,37.43,1.65,73.2-2.88,107.23-13.54,34.29-10.76,67.44-27.59,98.38-52.56,1.8,5.36,3.76,10.71,5.61,16.06-30.73,26.56-63.73,44.79-97.86,56.83-33.82,11.94-69.34,17.66-106.46,16.94-36.55-.72-72.64-1.08-106.41,5.51-33.51,6.59-64.2,20.23-90.04,46.02-3.04-9.01-5.97-18.07-9.01-27.03h0Z"/>
    <path class="vinyl-imagination-grey" d="m510.94,276.6c-31.56,18.43-65.23,30.12-100.28,36.14-34.75,5.97-71.66,6.18-110.17,1.19-8.37-1.09-16.71-2.05-25-2.86-2.3-7.34-4.61-14.72-6.94-22.1,8.33.93,16.72,2.03,25.14,3.28,38.77,5.71,75.78,6.54,110.79,1.7,35.26-4.84,69.09-15.29,100.75-32.18-2.06-5.41-4.22-10.86-6.33-16.37-31.92,15.14-65.79,24.2-101.21,27.75-35.21,3.6-72.53,1.7-111.61-4.89-8.48-1.43-16.91-2.69-25.28-3.75-1.27-3.97-2.54-7.93-3.8-11.85-1.11-3.47-2.22-6.93-3.33-10.38,8.45,1.18,16.96,2.56,25.52,4.15,39.18,7.26,76.71,10.19,112.12,7.77,35.57-2.47,69.6-10.14,101.73-23.63-2.21-5.46-4.38-10.97-6.54-16.42-32.43,11.63-66.67,17.81-102.39,19-35.57,1.24-73.26-2.83-112.74-10.86-8.59-1.74-17.13-3.27-25.62-4.56-2.4-7.4-4.82-14.81-7.25-22.24,8.52,1.4,17.1,3.04,25.72,4.92,39.74,8.7,77.58,13.69,113.41,13.64,35.83-.1,70.22-4.94,102.7-15.03-2.21-5.51-4.53-11.07-6.79-16.68-32.84,8.29-67.34,11.74-103.32,10.5-36.14-1.18-74.03-7.21-114.03-16.63-8.66-2.03-17.26-3.8-25.81-5.31-34.9-7.05-69.28-13.12-100.78-8.23-26.45,4.06-50.87,14.99-74.21,28.1-4.01,1.89-7.98,3.87-11.91,5.92.09.27.18.54.27.81h-.02c1.58,4.7,3.18,9.39,4.78,14.08,1.35,3.96,2.7,7.92,4.03,11.88,0,0,.02,0,.02-.01,2.16,6.32,4.3,12.63,6.41,18.96,4.99,14.98,10.09,29.86,15.13,44.84,5.1,14.98,10.09,29.96,15.08,45,3.22,9.66,6.51,19.35,9.79,29.02,1.23,3.69,2.47,7.37,3.74,11.04.55,1.64,1.11,3.29,1.67,4.93,24.66-19.82,52.41-32.12,82.63-38.14,30.48-6.08,62.96-5.71,96.22-3.3-.05-.16-.1-.32-.15-.48,8.22.67,16.49,1.47,24.81,2.38,38.2,4.12,74.75,2.88,109.4-4.32,34.95-7.31,68.36-20.38,99.77-40.52-1.95-5.41-4.06-10.86-6.07-16.27Zm-264.45-27.39c1.39.31,3.04.67,4.53.93-.98.72-1.8,1.49-2.83,2.16,1.08,1.7,2.06,3.35,3.09,4.99-1.6-1.18-3.24-2.47-4.68-3.6-.82.77-1.8,1.59-2.68,2.42-.05-1.49-.1-3.04-.1-4.48-1.6-1.18-3.14-2.37-4.63-3.45,1.49.21,2.99.41,4.53.67-.1-1.49-.1-2.98-.15-4.53,1.03,1.65,1.96,3.3,2.93,4.89Zm-101-6.95c.98,1.54,1.9,3.04,2.83,4.48,1.39-.26,2.62-.46,3.96-.77-.82,1.18-1.49,2.37-2.32,3.55.98,1.44,1.91,2.99,2.78,4.53-1.34-.93-2.68-1.65-4.12-2.37-.82,1.18-1.49,2.37-2.32,3.45-.05-1.6-.26-3.24-.26-4.89-1.44-.72-2.83-1.49-4.22-2.21,1.29-.31,2.62-.51,4.07-.77-.21-1.65-.26-3.29-.41-4.99Zm3.5-9.68c1.34-.21,2.62-.46,4.07-.57-.21-1.7-.26-3.29-.41-4.99.88,1.49,1.96,3.14,2.83,4.58,1.49-.15,2.78-.31,4.07-.46-.67,1.18-1.49,2.21-2.26,3.35.88,1.54,1.85,2.98,2.78,4.58-1.44-.87-2.83-1.7-4.22-2.52-.88,1.08-1.54,2.21-2.32,3.29-.15-1.54-.15-3.29-.36-4.84-1.34-.82-2.78-1.6-4.17-2.42Zm14.98,33c-.15-1.6-.15-3.29-.31-4.94.93,1.59,1.85,3.09,2.73,4.68,1.44-.15,2.78-.26,4.17-.46-.72,1.08-1.54,2.16-2.37,3.29.98,1.54,1.85,3.09,2.83,4.63-1.44-.88-2.78-1.75-4.27-2.62-.82,1.13-1.49,2.26-2.32,3.4,0-1.65-.21-3.29-.31-4.99-1.34-.72-2.83-1.55-4.32-2.42,1.44-.15,2.78-.36,4.17-.57Zm5.51-13.69c0-1.6-.21-3.19-.21-4.79-1.44-.93-2.93-1.85-4.38-2.73,1.39-.1,2.83-.21,4.27-.21-.15-1.65-.21-3.24-.26-4.84.88,1.54,1.8,3.19,2.73,4.69,1.44-.05,2.83-.1,4.22-.21-.77,1.08-1.65,2.06-2.47,3.14.93,1.49,1.96,3.04,2.88,4.63-1.44-.93-2.83-1.9-4.32-2.73-.82.98-1.6,2.01-2.47,3.04Zm3.09-21.36c1.44-.1,2.78-.15,4.27-.26-.1-1.54-.21-3.14-.31-4.79.93,1.6,1.9,3.19,2.93,4.69,1.29-.05,2.68-.16,4.22-.1-.87.98-1.75,2.01-2.52,2.98.93,1.54,1.85,3.14,2.78,4.74-1.39-.98-2.93-1.9-4.22-2.83-.88,1.03-1.75,2.11-2.52,3.09-.1-1.59-.15-3.24-.26-4.79-1.39-.93-2.93-1.85-4.38-2.73Zm15.13,33.51c-.1-1.59-.15-3.19-.21-4.79.88,1.54,1.85,3.19,2.78,4.79,1.44-.1,2.93-.1,4.27-.1-.77,1.03-1.65,2.01-2.52,2.94.98,1.65,1.96,3.24,2.88,4.84-1.49-1.03-2.83-1.96-4.38-2.93-.82.98-1.7,2.01-2.42,3.04-.1-1.65-.21-3.14-.26-4.79-1.49-.98-2.83-1.85-4.38-2.78,1.44-.05,2.78-.15,4.22-.21Zm5.87-12.87c-.1-1.65-.16-3.24-.21-4.79-1.49-1.03-2.99-2.01-4.38-3.04,1.34.05,2.78.05,4.27.1-.1-1.54-.15-3.09-.15-4.68.98,1.65,1.8,3.3,2.88,4.89,1.39.05,2.83.16,4.27.26-.88.87-1.7,1.75-2.63,2.73.93,1.54,2.01,3.19,2.93,4.84-1.49-1.08-2.93-2.11-4.48-3.19-.93.87-1.75,1.85-2.52,2.88Zm3.5-20.54c1.39.1,2.88.26,4.38.36-.1-1.54-.26-3.14-.31-4.74,1.08,1.59,1.96,3.29,2.99,4.84,1.39.15,2.88.21,4.38.31-.88.93-1.85,1.75-2.68,2.73.93,1.6,1.9,3.19,2.83,4.79-1.39-.98-2.93-2.06-4.38-3.19-.93.98-1.75,1.86-2.57,2.78-.1-1.54-.1-3.14-.21-4.69-1.49-1.08-3.04-2.11-4.43-3.19Zm15.19,34.08c-.1-1.6-.15-3.04-.21-4.63,1.03,1.65,1.96,3.24,2.99,4.84,1.39.1,2.78.1,4.22.31-.82.82-1.75,1.8-2.57,2.62.88,1.65,1.85,3.24,2.88,4.89-1.54-1.08-2.99-2.16-4.38-3.14-.93.88-1.8,1.8-2.68,2.73-.05-1.6-.1-3.14-.15-4.68-1.49-1.08-2.99-2.11-4.38-3.14,1.39.05,2.78.16,4.27.21Zm6.13-12.05c-.1-1.6-.1-3.09-.15-4.63-1.44-1.08-2.99-2.16-4.53-3.29,1.49.15,2.93.31,4.43.41-.1-1.49-.05-3.04-.21-4.63,1.03,1.7,2.01,3.4,2.88,4.99,1.54.21,3.04.41,4.58.67-.93.77-1.8,1.54-2.73,2.42.93,1.65,1.91,3.3,2.88,4.89-1.49-1.08-3.04-2.32-4.48-3.4-.93.82-1.75,1.75-2.68,2.57Zm3.71-19.67c1.6.31,3.04.51,4.53.77-.1-1.55-.1-3.04-.15-4.58.93,1.65,2.01,3.4,3.04,5.04,1.44.16,2.88.41,4.43.67-.88.77-1.85,1.49-2.78,2.26.93,1.65,1.96,3.35,2.88,4.94-1.44-1.13-2.99-2.27-4.53-3.5-.88.77-1.75,1.65-2.57,2.47-.15-1.59-.15-3.04-.21-4.53-1.54-1.18-3.04-2.32-4.63-3.55Zm15.34,34.34c-.05-1.49-.05-3.04-.21-4.53,1.03,1.6,1.91,3.24,2.88,4.89,1.49.31,3.09.41,4.48.67-.82.72-1.7,1.59-2.68,2.32.98,1.7,2.01,3.35,3.04,4.94-1.7-1.13-3.14-2.21-4.68-3.4-.82.82-1.75,1.65-2.63,2.52,0-1.6-.05-3.09-.05-4.58-1.65-1.18-3.09-2.32-4.63-3.4,1.49.15,2.93.36,4.48.57Zm-4.68-56.42c.98,1.65,1.96,3.29,2.99,4.99,1.49.31,3.04.57,4.58.87-1.03.67-1.85,1.49-2.88,2.16,1.13,1.7,2.06,3.34,3.04,4.99-1.49-1.18-3.14-2.42-4.63-3.6-.93.77-1.85,1.54-2.73,2.37-.1-1.54-.05-2.98-.15-4.53-1.44-1.13-3.09-2.37-4.58-3.55,1.59.31,3.09.57,4.53.77-.05-1.49-.16-2.94-.16-4.48Zm-10.96-33.46c1.08,1.65,2.01,3.35,2.88,5.05,1.6.26,3.09.62,4.74.98-.98.72-1.96,1.34-2.93,2.01,1.13,1.65,2.11,3.4,3.14,5.1-1.65-1.34-3.19-2.47-4.74-3.71-.88.82-1.75,1.54-2.63,2.21-.05-1.49-.15-2.93-.15-4.43-1.65-1.18-3.19-2.32-4.74-3.6,1.49.36,3.04.62,4.53.88,0-1.44,0-2.99-.1-4.48Zm-6.18,18.12c.93,1.6,1.85,3.35,2.88,4.94,1.54.26,3.04.51,4.48.77-.77.77-1.7,1.54-2.68,2.26.98,1.7,2.06,3.4,3.04,5.04-1.65-1.18-3.14-2.42-4.69-3.55-.88.77-1.75,1.54-2.62,2.32-.05-1.44-.1-3.04-.15-4.53-1.6-1.23-3.14-2.32-4.63-3.5,1.39.21,2.93.52,4.53.77-.05-1.54-.15-2.99-.15-4.53Zm-5.66,16.06c1.49.36,3.04.57,4.58.82-.93.72-1.96,1.49-2.83,2.27.98,1.65,1.96,3.29,2.99,4.99-1.49-1.18-3.04-2.32-4.58-3.5-.82.93-1.7,1.75-2.52,2.63-.15-1.54-.1-3.14-.26-4.69-1.49-1.08-3.09-2.06-4.48-3.19,1.49.16,2.93.26,4.43.36-.15-1.54-.21-3.04-.26-4.63,1.03,1.75,2.01,3.35,2.93,4.94Zm-14-38.71c1.03,1.6,1.91,3.3,2.93,4.84,1.54.36,3.09.62,4.53.88-.88.72-1.8,1.54-2.68,2.21.98,1.7,2.01,3.34,2.93,5.04-1.49-1.18-3.04-2.47-4.58-3.5-.82.87-1.7,1.75-2.62,2.68-.1-1.65-.15-3.14-.21-4.69-1.44-1.03-2.93-2.11-4.48-3.19,1.44.1,2.93.26,4.38.36-.05-1.49-.1-3.09-.21-4.63Zm-5.82,19.51c.98,1.65,2.01,3.29,2.93,4.94,1.49.05,2.83.15,4.33.26-.82.88-1.75,1.75-2.52,2.68.93,1.6,1.96,3.19,2.88,4.84-1.49-1.08-2.93-2.16-4.48-3.24-.82.98-1.75,1.85-2.57,2.78-.1-1.59-.15-3.14-.21-4.68-1.49-1.03-2.99-2.16-4.43-3.14,1.34,0,2.88.21,4.32.26-.05-1.54-.21-3.14-.26-4.68Zm-5.15,17.35c1.44.1,2.88.15,4.27.31-.88.83-1.75,1.75-2.52,2.68.93,1.65,1.96,3.19,2.88,4.84-1.54-1.13-2.93-2.11-4.48-3.19-.88.93-1.7,1.8-2.52,2.88-.1-1.65-.1-3.3-.26-4.84-1.49-.98-2.93-2.01-4.38-2.93h4.22c-.05-1.49-.21-3.09-.21-4.63,1.03,1.59,2.01,3.24,2.99,4.89Zm-13.9-34.13c-.05-1.54,0-3.14-.15-4.63,1.03,1.6,1.9,3.19,2.88,4.84,1.44.1,2.93.21,4.43.31-.82.93-1.7,1.8-2.63,2.73.98,1.6,2.01,3.24,2.93,4.84-1.54-1.13-3.09-2.16-4.48-3.19-.93.87-1.75,1.8-2.52,2.78-.1-1.54-.15-3.19-.31-4.74-1.44-1.03-2.88-2.01-4.43-2.88,1.39-.1,2.83-.1,4.27-.05Zm-5.56,16.06c.98,1.6,1.91,3.19,2.83,4.69,1.44-.05,2.78-.1,4.32-.26-.93,1.08-1.7,2.11-2.57,3.09.98,1.65,1.96,3.19,2.88,4.74-1.49-.93-2.83-1.85-4.32-2.78-.88,1.08-1.65,2.11-2.47,3.14-.05-1.6-.26-3.24-.31-4.79-1.44-.93-2.83-1.91-4.38-2.83,1.44,0,2.93-.15,4.22-.15-.05-1.65-.15-3.19-.21-4.84Zm-4.79,18.53c1.39-.05,2.78-.1,4.22-.15-.88.98-1.7,2.06-2.42,3.04.93,1.6,1.85,3.19,2.83,4.74-1.44-.98-2.93-1.9-4.38-2.78-.93,1.03-1.7,2.06-2.47,3.09-.15-1.54-.15-3.19-.31-4.79-1.34-.87-2.83-1.8-4.27-2.78,1.44-.05,2.88-.1,4.17-.21-.05-1.54-.21-3.19-.26-4.84.93,1.59,1.91,3.19,2.88,4.68Zm-14-38.3c.93,1.49,1.91,3.14,2.88,4.63,1.39-.1,2.68-.15,4.17-.25-.88,1.08-1.54,2.11-2.47,3.14,1.03,1.54,2.01,3.14,2.99,4.63-1.54-.82-2.99-1.8-4.53-2.73-.67,1.03-1.6,2.06-2.32,3.09-.1-1.54-.16-3.19-.31-4.84-1.44-.87-2.83-1.75-4.32-2.68,1.34-.1,2.73-.15,4.27-.21-.15-1.6-.31-3.24-.36-4.79Zm-5.1,21.42c.98,1.54,1.9,3.14,2.88,4.58,1.34-.15,2.73-.31,4.02-.41-.72,1.03-1.6,2.21-2.32,3.29.98,1.54,1.9,3.04,2.93,4.58-1.49-.82-2.93-1.6-4.38-2.47-.82,1.13-1.49,2.21-2.26,3.45-.05-1.65-.31-3.29-.36-4.99-1.34-.77-2.83-1.49-4.17-2.27,1.29-.21,2.68-.51,3.91-.72.05-1.7-.1-3.35-.26-5.04Zm-7.05,15.49c.88,1.49,1.75,2.99,2.73,4.48,1.34-.26,2.68-.51,4.12-.82-.87,1.23-1.65,2.42-2.37,3.6.98,1.44,1.85,2.99,2.83,4.33-1.39-.67-2.88-1.39-4.27-2.21-.82,1.29-1.49,2.42-2.21,3.6-.1-1.65-.26-3.29-.31-4.94-1.44-.77-2.88-1.49-4.17-2.32,1.24-.26,2.62-.51,3.91-.72,0-1.7-.26-3.35-.26-4.99Zm-11.48,38.97c.93,1.39,1.8,2.78,2.68,4.22,1.29-.46,2.57-.82,3.86-1.13-.77,1.23-1.44,2.52-2.11,3.81.93,1.39,1.8,2.88,2.68,4.27-1.39-.57-2.63-1.23-4.02-1.9-.72,1.39-1.44,2.68-2.06,4.02-.15-1.65-.36-3.35-.41-5.1-1.34-.57-2.62-1.13-3.96-1.75,1.24-.41,2.47-.88,3.76-1.39-.15-1.7-.26-3.35-.41-5.04Zm3.14-10.4c1.29-.36,2.52-.72,3.86-1.13-.1-1.65-.26-3.29-.36-4.89.98,1.49,1.9,2.94,2.93,4.43,1.24-.26,2.62-.51,3.81-.77-.62,1.13-1.39,2.32-2.16,3.55.93,1.44,1.75,2.93,2.73,4.38-1.34-.72-2.78-1.54-4.12-2.21-.77,1.13-1.44,2.37-2.27,3.6-.15-1.65-.15-3.29-.26-4.94-1.44-.72-2.78-1.34-4.17-2.01Zm-2.73-61.93c.93,1.54,1.85,2.94,2.78,4.43,1.34-.26,2.62-.57,4.01-.88-.77,1.23-1.54,2.42-2.27,3.55.82,1.54,1.85,3.04,2.83,4.48-1.49-.77-2.83-1.44-4.27-2.21-.77,1.18-1.49,2.42-2.27,3.6-.1-1.65-.21-3.35-.41-5.05-1.34-.67-2.73-1.44-4.12-2.16,1.34-.26,2.63-.57,3.96-.88-.05-1.59-.15-3.24-.26-4.89Zm-4.74,22.55c.98,1.39,1.85,2.99,2.78,4.43,1.29-.21,2.73-.57,4.07-.77-.77,1.13-1.54,2.37-2.37,3.5.88,1.49,1.91,2.99,2.88,4.43-1.49-.67-2.83-1.44-4.27-2.21-.67,1.18-1.44,2.42-2.16,3.71-.1-1.65-.31-3.35-.36-4.99-1.39-.72-2.73-1.29-4.12-1.9,1.29-.41,2.63-.82,3.91-1.23-.1-1.7-.21-3.3-.36-4.94Zm-6.74,16.58c1.03,1.44,1.91,2.78,2.83,4.22,1.23-.51,2.47-.88,3.81-1.24-.77,1.29-1.54,2.57-2.21,3.81,1.03,1.49,1.85,2.88,2.78,4.38-1.34-.67-2.73-1.23-4.02-1.9-.77,1.44-1.34,2.73-2.06,4.12-.15-1.65-.26-3.4-.41-5.15-1.39-.51-2.68-1.13-4.02-1.65,1.34-.46,2.57-1.03,3.81-1.49-.1-1.7-.26-3.4-.51-5.1Zm-10.19,41.85c.82,1.34,1.75,2.68,2.68,4.12,1.18-.62,2.32-1.18,3.66-1.75-.72,1.39-1.34,2.83-2.01,4.27.88,1.39,1.7,2.83,2.73,4.07-1.39-.41-2.63-.93-3.91-1.39-.67,1.44-1.34,3.04-1.9,4.53-.21-1.75-.31-3.55-.51-5.3-1.34-.46-2.57-.87-3.76-1.39,1.08-.62,2.21-1.24,3.5-1.91-.21-1.75-.26-3.55-.46-5.25Zm6.79-9.37c-1.34-.62-2.57-1.13-3.86-1.75,1.18-.51,2.42-.98,3.71-1.44-.21-1.7-.36-3.4-.51-5.1.93,1.39,1.9,2.83,2.78,4.27,1.29-.57,2.52-1.03,3.81-1.44-.67,1.34-1.49,2.63-2.11,4.02.82,1.39,1.75,2.78,2.68,4.17-1.29-.57-2.63-1.18-3.96-1.75-.72,1.34-1.44,2.78-2.16,4.07-.05-1.65-.16-3.4-.36-5.04Zm-7.62-65.59c.98,1.39,1.85,2.78,2.83,4.22,1.24-.57,2.52-1.08,3.76-1.44-.72,1.29-1.39,2.68-2.11,4.02.82,1.39,1.8,2.78,2.78,4.12-1.39-.52-2.78-1.03-4.12-1.54-.72,1.24-1.34,2.68-2.11,4.02-.1-1.7-.16-3.4-.36-5.2-1.29-.51-2.63-1.03-3.91-1.6,1.18-.51,2.37-.98,3.71-1.44-.15-1.7-.26-3.45-.46-5.15Zm-3.91,24.2c.88,1.39,1.7,2.83,2.63,4.27,1.29-.57,2.42-1.03,3.81-1.49-.72,1.34-1.44,2.78-2.21,4.02.93,1.44,1.96,2.88,2.83,4.27-1.34-.57-2.68-1.13-4.02-1.8-.77,1.39-1.49,2.73-2.06,4.12-.15-1.7-.41-3.45-.41-5.1-1.34-.62-2.73-1.13-4.12-1.7,1.34-.46,2.62-.98,3.76-1.49-.05-1.7-.1-3.35-.21-5.1Zm-6.33,17.55c.93,1.29,1.75,2.62,2.68,4.12,1.18-.62,2.47-1.08,3.71-1.6-.72,1.24-1.34,2.73-2.06,4.12.93,1.39,1.8,2.83,2.73,4.17-1.34-.52-2.68-.98-3.96-1.54-.67,1.54-1.34,2.98-1.96,4.53-.15-1.8-.26-3.6-.41-5.41-1.29-.41-2.57-.82-3.91-1.23,1.29-.67,2.42-1.29,3.66-1.91-.15-1.85-.36-3.6-.46-5.25Zm-11.17-33.26c.93,1.39,1.8,2.73,2.78,4.22,1.18-.67,2.32-1.08,3.6-1.54-.62,1.34-1.39,2.73-2.01,4.07.82,1.44,1.8,2.78,2.68,4.22-1.29-.62-2.63-1.08-3.96-1.65-.57,1.44-1.24,2.94-1.96,4.33-.1-1.65-.26-3.4-.46-5.15-1.34-.46-2.57-.88-3.81-1.29,1.18-.72,2.32-1.34,3.6-1.91-.16-1.8-.31-3.55-.46-5.3Zm-16.94,21.67c-.57,1.65-1.13,3.19-1.7,4.84-.26-1.86-.41-3.71-.67-5.61-1.29-.31-2.47-.57-3.71-.98,1.08-.77,2.21-1.6,3.45-2.32-.26-1.85-.36-3.66-.57-5.46.93,1.34,1.8,2.68,2.73,4.07.98-.72,2.21-1.49,3.35-2.21-.57,1.54-1.13,3.09-1.8,4.69.93,1.39,1.91,2.73,2.73,4.07-1.34-.31-2.52-.67-3.81-1.08Zm11.48,34.03c-.51,1.6-1.13,3.3-1.65,5.1-.26-1.96-.41-3.86-.62-5.77-1.18-.26-2.42-.31-3.55-.41,1.08-1.08,2.11-2.21,3.24-2.99-.31-1.85-.46-3.6-.72-5.61.93,1.39,1.85,2.78,2.73,4.12,1.13-.88,2.26-1.65,3.4-2.47-.57,1.59-1.18,3.24-1.75,4.84.93,1.39,1.7,2.68,2.62,4.07-1.13-.36-2.42-.62-3.71-.87Zm3.45-15.44c-.21-1.91-.36-3.66-.57-5.51-1.29-.31-2.47-.51-3.81-.93,1.18-.77,2.37-1.65,3.55-2.42-.1-1.8-.31-3.6-.46-5.46.77,1.34,1.7,2.78,2.52,4.07,1.18-.67,2.37-1.44,3.6-2.16-.67,1.54-1.23,3.14-1.96,4.63.88,1.39,1.85,2.68,2.73,3.97-1.29-.26-2.52-.72-3.86-1.13-.52,1.65-1.29,3.3-1.75,4.94Zm8.03,49.47c-.57,1.75-1.13,3.45-1.54,5.3-.26-2.01-.46-3.91-.72-5.77-1.18-.15-2.26,0-3.35.05.88-1.34,1.85-2.68,3.04-3.55-.26-1.8-.41-3.71-.62-5.56.88,1.29,1.7,2.63,2.52,3.91,1.08-.98,2.16-1.9,3.29-2.73-.51,1.65-1.03,3.35-1.65,5.04.88,1.39,1.8,2.63,2.63,3.97-1.18-.21-2.42-.46-3.6-.67Zm3.19-16.01c-.15-1.9-.26-3.71-.52-5.51-1.18-.31-2.47-.46-3.71-.77,1.08-.88,2.21-1.75,3.4-2.68-.26-1.8-.41-3.71-.57-5.51.82,1.39,1.75,2.68,2.57,3.97,1.24-.67,2.32-1.39,3.5-2.16-.67,1.6-1.24,3.14-1.8,4.63.82,1.34,1.7,2.68,2.62,4.02-1.34-.36-2.57-.77-3.81-1.08-.57,1.65-1.13,3.4-1.7,5.1Zm8.29,50.14c-.62,1.8-1.08,3.55-1.54,5.61-.31-2.11-.46-4.06-.67-5.97-1.18-.05-2.16.31-3.19.67.82-1.65,1.75-3.24,2.78-4.22-.26-1.91-.51-3.76-.62-5.71.82,1.34,1.7,2.62,2.58,3.91,1.08-1.08,2.21-2.11,3.14-3.04-.52,1.8-1.13,3.55-1.54,5.35.82,1.29,1.65,2.53,2.52,3.86-1.18-.16-2.32-.36-3.45-.46Zm4.58-21.88c-.51,1.7-1.13,3.5-1.65,5.3-.26-1.85-.41-3.76-.67-5.61-1.03-.21-2.27-.41-3.5-.62,1.13-.93,2.21-1.91,3.24-2.88-.15-1.9-.36-3.76-.57-5.61.82,1.34,1.7,2.73,2.57,3.96,1.13-.67,2.32-1.44,3.5-2.16-.62,1.49-1.18,3.09-1.8,4.63.82,1.39,1.75,2.73,2.68,4.07-1.34-.36-2.57-.77-3.81-1.08Zm6.74,56.01c-.46,1.9-.93,3.86-1.39,5.87-.26-2.16-.52-4.07-.72-6.02-1.03.05-2.01.67-2.88,1.23.67-1.95,1.39-3.76,2.47-4.84-.21-1.96-.36-3.86-.67-5.76.88,1.23,1.65,2.47,2.52,3.81,1.03-1.13,2.01-2.21,3.04-3.35-.57,1.85-.98,3.76-1.44,5.61.82,1.24,1.7,2.52,2.47,3.66-1.08,0-2.21-.05-3.4-.21Zm4.32-22.65c-.51,1.9-.98,3.71-1.49,5.61-.21-2.06-.36-3.97-.62-5.77-1.24-.15-2.37-.26-3.55-.36,1.08-1.03,2.11-2.11,3.19-3.19-.21-1.91-.46-3.81-.62-5.67.82,1.29,1.75,2.68,2.57,4.02,1.18-.82,2.26-1.49,3.45-2.21-.62,1.49-1.29,3.14-1.8,4.58.82,1.34,1.75,2.73,2.57,4.07-1.29-.36-2.52-.77-3.71-1.08Zm3.19-26.26c-.67,1.54-1.23,3.04-1.85,4.53-.21-1.7-.26-3.55-.46-5.25-1.29-.36-2.57-.93-3.66-1.29,1.03-.67,2.26-1.39,3.4-2.01-.1-1.85-.31-3.5-.51-5.41.98,1.39,1.8,2.78,2.68,4.17,1.24-.62,2.42-1.13,3.65-1.75-.72,1.44-1.44,2.83-2.06,4.27.93,1.44,1.8,2.78,2.68,4.17-1.29-.51-2.47-1.03-3.86-1.44Zm3.71-18.95c-1.34-.57-2.68-1.13-4.02-1.65,1.18-.51,2.47-1.03,3.76-1.49-.1-1.75-.21-3.4-.36-5.1.93,1.39,1.75,2.78,2.63,4.27,1.29-.52,2.47-.98,3.81-1.39-.72,1.23-1.44,2.62-2.21,3.96.98,1.39,1.96,2.88,2.78,4.22-1.34-.57-2.57-1.13-3.96-1.75-.67,1.29-1.49,2.68-2.01,4.02-.21-1.7-.31-3.45-.41-5.1Zm7.36,52.31c-.67,1.49-1.24,3.09-1.91,4.58-.1-1.75-.36-3.55-.46-5.25-1.18-.46-2.57-.88-3.71-1.34,1.08-.62,2.21-1.29,3.45-1.96-.16-1.8-.26-3.65-.57-5.46.98,1.39,1.85,2.83,2.73,4.17,1.08-.67,2.32-1.34,3.55-1.96-.72,1.49-1.34,2.99-1.91,4.48.82,1.34,1.7,2.73,2.57,4.07-1.29-.41-2.47-.93-3.76-1.34Zm5.97-18.07c-.72,1.29-1.44,2.73-2.11,4.02-.15-1.65-.26-3.45-.31-5.09-1.49-.57-2.63-1.08-3.91-1.6,1.18-.62,2.47-1.13,3.66-1.55-.1-1.65-.26-3.4-.36-5.04.93,1.39,1.8,2.83,2.73,4.27,1.24-.51,2.47-.98,3.66-1.39-.62,1.29-1.34,2.67-2.01,3.96.88,1.39,1.7,2.83,2.57,4.27-1.18-.62-2.63-1.23-3.91-1.86Zm4.12-23.99c-.67,1.29-1.29,2.62-2.11,3.96-.1-1.7-.26-3.4-.26-5.1-1.44-.57-2.78-1.19-4.07-1.75,1.29-.46,2.47-.93,3.76-1.39-.1-1.65-.26-3.45-.36-5.15.93,1.49,1.8,2.98,2.73,4.38,1.29-.41,2.52-.77,3.86-1.13-.82,1.23-1.49,2.62-2.27,3.86.93,1.39,1.8,2.83,2.68,4.27-1.24-.67-2.63-1.29-3.96-1.96Zm.1-19.67c1.18-.31,2.57-.77,3.81-1.13,0-1.54-.21-3.24-.26-4.89.98,1.49,1.85,2.99,2.73,4.48,1.34-.26,2.68-.51,4.07-.72-.77,1.13-1.49,2.32-2.32,3.45.93,1.49,1.85,3.04,2.78,4.53-1.39-.72-2.78-1.49-4.17-2.32-.77,1.13-1.49,2.37-2.26,3.66-.05-1.7-.16-3.35-.36-5.05-1.24-.72-2.68-1.34-4.02-2.01Zm10.76,53.03c-.67,1.34-1.34,2.68-2.11,3.86-.1-1.7-.21-3.34-.31-4.99-1.39-.67-2.73-1.29-4.02-1.91,1.24-.46,2.52-.88,3.76-1.24-.15-1.7-.21-3.4-.36-5.04.98,1.44,1.8,2.83,2.78,4.27,1.24-.36,2.57-.83,3.66-1.18-.62,1.34-1.29,2.57-2.01,3.86.82,1.44,1.8,2.88,2.57,4.32-1.24-.62-2.52-1.28-3.96-1.96Zm6.8-16.22c-.88,1.13-1.54,2.37-2.32,3.55-.1-1.65-.21-3.25-.26-4.99-1.44-.72-2.78-1.34-4.12-1.96,1.29-.36,2.57-.77,3.86-1.08-.15-1.59-.15-3.34-.26-4.89.88,1.44,1.85,2.93,2.78,4.43,1.29-.21,2.68-.46,3.91-.67-.72,1.13-1.44,2.32-2.26,3.45.98,1.44,1.85,3.04,2.78,4.48-1.39-.72-2.78-1.54-4.12-2.32Zm2.52-18.89c-.1-1.65-.21-3.24-.31-4.94-1.39-.72-2.83-1.49-4.22-2.27,1.34-.26,2.68-.46,4.02-.77-.15-1.6-.21-3.35-.31-4.89.93,1.49,1.85,2.94,2.78,4.43,1.34-.21,2.73-.46,4.02-.67-.82,1.13-1.54,2.27-2.37,3.45.98,1.54,1.96,3.04,2.88,4.53-1.49-.77-2.93-1.55-4.33-2.37-.72,1.24-1.44,2.37-2.16,3.5Zm13.02,30.07c-.67,1.13-1.49,2.32-2.26,3.45-.1-1.6-.21-3.35-.31-4.89-1.39-.77-2.73-1.54-4.12-2.37,1.29-.26,2.68-.46,3.96-.62-.05-1.7-.15-3.34-.36-4.99.98,1.6,1.9,3.09,2.78,4.48,1.44-.21,2.78-.36,4.12-.56-.82,1.13-1.54,2.21-2.37,3.4.93,1.49,1.91,2.98,2.78,4.53-1.34-.88-2.78-1.65-4.22-2.42Zm7.31-14.83c-.82,1.03-1.54,2.21-2.37,3.3-.1-1.65-.15-3.3-.21-4.89-1.44-.82-2.93-1.65-4.27-2.47,1.44-.15,2.73-.31,4.01-.51-.05-1.7-.15-3.35-.26-4.94.98,1.6,1.85,3.14,2.78,4.63,1.44-.1,2.78-.26,4.07-.36-.77,1.03-1.49,2.06-2.26,3.25.98,1.49,1.8,3.09,2.78,4.63-1.49-.88-2.93-1.8-4.27-2.62Zm2.83-18.27c-.15-1.49-.21-3.14-.26-4.79-1.44-.93-2.83-1.85-4.27-2.78,1.34,0,2.73-.1,4.12-.15-.1-1.65-.16-3.19-.26-4.79.93,1.54,1.85,3.09,2.88,4.63,1.34-.05,2.78-.1,4.17-.15-.82.98-1.6,2.01-2.47,3.04.93,1.6,1.85,3.14,2.88,4.68-1.49-.93-2.88-1.8-4.43-2.73-.77,1.03-1.54,2.06-2.37,3.04Zm13.23,30.73c-.82,1.03-1.65,2.01-2.47,3.04,0-1.54-.1-3.19-.26-4.74-1.34-.98-2.88-1.91-4.22-2.83,1.29-.1,2.68-.1,4.22-.16-.21-1.6-.26-3.24-.31-4.84.93,1.6,1.91,3.19,2.78,4.74,1.44-.1,2.78-.25,4.22-.25-.93,1.08-1.75,2.01-2.52,3.14.93,1.6,1.9,3.14,2.83,4.74-1.39-.98-2.83-1.9-4.27-2.83Zm7.72-13.7c-.93.98-1.65,2.01-2.42,2.94-.15-1.55-.21-3.14-.26-4.74-1.49-1.03-2.99-2.01-4.38-2.83,1.39-.1,2.78-.1,4.17-.1.05-1.65-.05-3.19-.15-4.79.88,1.6,1.85,3.14,2.78,4.79,1.44-.05,2.83-.05,4.33-.1-.93,1.03-1.75,2.01-2.57,2.93.98,1.6,1.9,3.19,2.88,4.79-1.49-.98-2.93-1.9-4.38-2.88Zm2.99-17.66c-.05-1.54-.15-3.19-.15-4.74-1.49-.98-2.88-2.01-4.33-2.93,1.44-.05,2.73-.05,4.27.05-.1-1.6-.21-3.24-.21-4.74.93,1.65,1.9,3.25,2.88,4.89,1.44.05,2.83.15,4.27.26-.88.87-1.7,1.8-2.52,2.67.88,1.6,1.85,3.25,2.78,4.89-1.44-1.13-2.88-2.11-4.38-3.19-.93.93-1.75,1.86-2.63,2.83Zm13.28,31.04c-.77.93-1.7,1.85-2.47,2.78-.05-1.55-.1-3.14-.21-4.69-1.39-1.03-2.88-2.01-4.38-3.04,1.39.05,2.83.05,4.27.15,0-1.6-.1-3.09-.1-4.74.88,1.65,1.85,3.24,2.78,4.89,1.39,0,2.83,0,4.32.1-.93.93-1.8,1.91-2.68,2.83,1.03,1.6,1.96,3.19,2.93,4.74-1.49-1.03-2.99-1.95-4.48-3.04Zm8.24-12.66c-.93.93-1.75,1.8-2.62,2.73-.05-1.6-.05-3.14-.16-4.69-1.49-1.03-2.93-2.06-4.43-3.09,1.34.05,2.93.16,4.32.26-.05-1.6-.15-3.14-.15-4.74.98,1.65,1.85,3.24,2.83,4.89,1.49.1,2.88.1,4.43.26-.98.93-1.85,1.8-2.68,2.68.98,1.54,1.9,3.24,2.88,4.89-1.54-1.08-3.04-2.11-4.43-3.19Zm3.29-16.84c-.1-1.54,0-3.14-.1-4.69-1.6-1.08-3.04-2.11-4.48-3.24,1.39.15,2.88.31,4.33.41,0-1.54-.1-3.14-.21-4.69,1.03,1.7,2.01,3.35,2.93,4.94,1.49.15,3.04.41,4.48.62-.93.77-1.85,1.59-2.68,2.42.98,1.65,1.91,3.3,2.83,4.89-1.44-1.08-2.99-2.21-4.53-3.4-.82.98-1.7,1.8-2.57,2.73Zm13.23,31.04c-.82.93-1.8,1.8-2.68,2.73.05-1.59,0-3.14-.1-4.74-1.39-1.03-2.93-2.11-4.43-3.19,1.54.1,2.99.26,4.38.42-.1-1.6-.05-3.14-.1-4.64.98,1.6,1.85,3.25,2.78,4.84,1.44.15,2.99.31,4.48.46-.88.88-1.8,1.7-2.73,2.58.98,1.54,1.96,3.24,2.78,4.89-1.39-1.19-2.93-2.27-4.38-3.35Zm8.44-11.84c-.93.88-1.8,1.65-2.62,2.58-.05-1.6-.16-3.04-.16-4.58-1.49-1.18-3.04-2.21-4.43-3.34,1.49.15,2.88.36,4.43.51-.1-1.54-.1-2.99-.21-4.53.98,1.65,1.96,3.29,2.93,4.94,1.39.16,2.93.26,4.33.46-.88.82-1.7,1.65-2.63,2.47.98,1.6,1.91,3.25,2.88,4.84-1.54-1.08-2.99-2.22-4.53-3.35Zm3.6-16.32c-.05-1.44-.05-2.99-.05-4.43-1.49-1.13-3.04-2.27-4.53-3.35,1.54.16,2.99.36,4.48.62-.1-1.54-.1-3.14-.15-4.58.98,1.65,1.9,3.29,2.93,4.99,1.54.26,3.04.51,4.48.82-.88.72-1.75,1.49-2.73,2.16,1.03,1.7,2.01,3.35,2.88,4.99-1.44-1.23-3.04-2.42-4.58-3.55-.88.77-1.75,1.6-2.73,2.32Zm13.18,30.99c-.77.82-1.7,1.65-2.63,2.47-.05-1.49-.05-2.93-.05-4.48-1.65-1.13-3.14-2.32-4.58-3.45,1.39.31,2.93.41,4.43.67,0-1.49-.05-3.04-.05-4.58.93,1.6,1.8,3.34,2.78,4.89,1.54.25,2.93.51,4.48.72-.93.82-1.8,1.6-2.73,2.32.98,1.75,1.9,3.24,2.93,4.89-1.6-1.19-3.14-2.27-4.58-3.45Z"/>
    <path class="cls-2" d="m155.11,119.23l-7.62,7.82-19.56-14.67,10.3,24.2-3.04,3.09-24.14-9.94,14.93,19.46-7.62,7.83-25.28-34.49,7.57-7.77,22.08,9.57-9.88-22.14,7.62-7.82,34.65,24.86Zm43.04-25.79l-10.04,5.97-6.07-4.94-13.03,7.72,1.24,7.77-9.94,5.92-7.57-44.48,10.25-6.13,35.16,28.16Zm-22.91-4.63l-10.81-9.21,2.88,13.95,7.93-4.74Zm58.28-30.32c1.39,4.17,1.44,8.44.15,12.82-1.29,4.38-3.65,7.93-7.1,10.6-1.8,1.44-3.76,2.52-5.92,3.24l-15.29,5.2-13.59-39.9,15.29-5.2c3.76-1.29,7.57-1.39,11.48-.41,3.81.98,7.16,2.83,9.99,5.66,2.32,2.37,3.96,4.99,4.99,7.98h0Zm-10.76,3.66c-.98-2.73-2.57-4.89-4.79-6.43-2.99-2.01-6.49-2.37-10.55-.98l-2.37.82,7.72,22.65,2.37-.77c4.07-1.39,6.64-3.81,7.77-7.21.82-2.63.77-5.3-.15-8.08h0Zm51.07,11.07l-23.63,3.86-6.85-41.6,23.63-3.86,1.49,8.96-12.87,2.11,1.18,7.21,12.15-2.01,1.49,8.96-12.15,2.01,1.24,7.46,12.82-2.11,1.49,9.01Zm38.35.67l-10.91-.82,3.09-42.01,10.91.82-3.09,42.01Zm52.77,9.99l-10.66-2.42-13.9-29.65-5.71,25.12-10.66-2.42,9.37-41.08,10.66,2.42,13.9,29.65,5.77-25.12,10.66,2.42-9.42,41.08Zm67.39,15.6c-1.29,2.16-2.58,3.97-3.81,5.3-1.96,2.06-4.53,3.5-7.78,4.22-4.58,1.08-9.32.16-14.26-2.73-5.04-2.93-8.13-6.64-9.27-11.12-.62-2.37-.51-4.84.21-7.41.57-1.85,1.65-4.12,3.19-6.79l12.3-20.95,9.42,5.51-11.48,19.66c-.93,1.55-1.59,2.73-2.01,3.55-1.29,2.57-1.13,4.94.36,7.16.62.93,1.44,1.65,2.47,2.26,2.32,1.34,4.53,1.54,6.64.62,1.54-.67,3.35-2.73,5.35-6.13l11.48-19.61,9.42,5.51-12.25,20.95Zm30.58,33.36c-4.89,5.15-10.35,6.33-16.37,3.6-2.11-.98-4.07-2.32-5.87-4.07-3.81-3.6-6.23-8.13-7.31-13.54l9.47-3.14c.31,4.43,1.6,7.72,3.91,9.88.98.98,2.11,1.6,3.3,1.8,1.34.26,2.47-.15,3.45-1.13.82-.93,1.13-2.11.77-3.55-.26-1.13-.98-2.68-2.16-4.69-1.39-2.47-2.26-4.07-2.52-4.74-.52-1.13-.77-2.21-.93-3.19-.31-2.88.77-5.66,3.4-8.39,2.68-2.83,5.77-4.38,9.22-4.63,4.07-.31,7.72,1.13,10.96,4.22,3.29,3.14,5.71,7.05,7.26,11.69l-9.01,3.19c-.41-3.04-1.49-5.4-3.24-7.05-.88-.82-1.85-1.34-2.94-1.54-1.24-.21-2.21.05-2.98.93-.77.77-.98,1.96-.52,3.5.15.67,1.08,2.42,2.68,5.2,2.01,3.5,2.88,6.59,2.62,9.22-.21,2.27-1.24,4.38-3.19,6.43h0Zm20.08,50.04l-6.38-9.78,4.63-6.28-8.29-12.66-7.67,1.6-6.33-9.68,44.12-9.52,6.54,9.99-26.62,36.35Zm3.66-23.06l8.75-11.22-13.8,3.5,5.04,7.72Z"/>
  </g>
</svg>