<?xml version="1.0" encoding="UTF-8"?>
<svg id="Layer_2" data-name="Layer 2" xmlns="http://www.w3.org/2000/svg" viewBox="0 0 351.43 186.92">
  <defs>
    <style>
      .cls-1 {
        fill: #122cd0;
      }

      .vinyl-imagination-grey {
        fill: #b3b3b3;
      }
    </style>
  </defs>
  <g id="Layer_1-2">
    <path class="vinyl-imagination-grey" d="m219.77,93.61h-88.11c-4.32,0-7.82,3.5-7.82,7.82s3.5,7.82,7.82,7.82h36.24v69.86c0,4.32,3.5,7.82,7.82,7.82s7.82-3.5,7.82-7.82v-69.86h36.24c4.32,0,7.82-3.5,7.82-7.82s-3.5-7.82-7.82-7.82Z"/>
    <path class="cls-1" d="m277.66,44.93c12.37-1.35,21.31-12.47,19.96-24.84-1.34-12.37-12.46-21.31-24.83-19.96-12.37,1.35-21.31,12.47-19.96,24.84,1.34,12.37,12.46,21.31,24.83,19.96Z"/>
    <path class="cls-1" d="m310.64,119.54c3.1-3.81,4.3-8.75,3.3-13.56l-9.1-43.72c-.91-4.38-3.48-8.13-7.23-10.56-3.75-2.43-8.23-3.25-12.6-2.3,0,0-12.4,2.7-15.43,3.41-2.7.63-24.54,12.03-24.54,12.03l-19.2-.86c-5.69-.25-10.62,4.2-10.88,9.94-.26,5.75,4.19,10.62,9.94,10.88l21.82.98c.16,0,.31,0,.47,0,1.56,0,3.11-.35,4.52-1.03l14.46-6.97,5.33,24.38h-20.5c-9.26,0-16.76,7.5-16.76,16.76v55.88c0,6.45,5.23,11.68,11.68,11.68s11.68-5.23,11.68-11.68v-45.05c0-2.33,1.89-4.22,4.22-4.22h36.18c4.91,0,9.51-2.18,12.61-5.99Z"/>
    <path class="vinyl-imagination-grey" d="m351.32,62.01c0-5.08-2.29-8.65-6.98-9.15-4.05-.43-7.72,2.5-8.43,6.51l-11.09,62.68c-1.34,7.52-7.84,12.98-15.48,12.98h-32.46c-5.59,0-10.12,4.53-10.12,10.12v33.95c0,4.32,3.5,7.82,7.82,7.82h69.04c4.32,0,7.82-3.5,7.81-7.82l-.11-117.09Z"/>
    <path class="cls-1" d="m73.78,44.93c12.37,1.35,23.49-7.59,24.83-19.96,1.35-12.37-7.59-23.49-19.96-24.84-12.37-1.35-23.49,7.59-24.83,19.96-1.35,12.37,7.59,23.49,19.96,24.84Z"/>
    <path class="cls-1" d="m100.41,102.17h-20.5l5.33-24.38,14.46,6.97c1.41.68,2.96,1.03,4.52,1.03.16,0,.31,0,.47,0l21.82-.98c5.75-.26,10.2-5.13,9.94-10.88-.25-5.74-5.18-10.19-10.88-9.94l-19.2.86s-21.84-11.4-24.54-12.03c-3.03-.71-15.43-3.41-15.43-3.41-4.37-.95-8.84-.13-12.6,2.3-3.75,2.44-6.32,6.19-7.23,10.56l-9.1,43.72c-1,4.81.2,9.75,3.3,13.56,3.1,3.81,7.69,5.99,12.61,5.99h36.18c2.33,0,4.22,1.89,4.22,4.22v45.05c0,6.45,5.23,11.68,11.68,11.68s11.68-5.23,11.68-11.68v-55.88c0-9.26-7.51-16.76-16.76-16.76Z"/>
    <path class="vinyl-imagination-grey" d="m74.55,135.03h-32.46c-7.63,0-14.14-5.46-15.48-12.98l-11.09-62.68c-.71-4.01-4.39-6.94-8.43-6.51C2.41,53.37.11,56.93.11,62.01L0,179.1c0,4.32,3.5,7.82,7.81,7.82h69.04c4.32,0,7.82-3.5,7.82-7.82v-33.95c0-5.59-4.53-10.12-10.12-10.12Z"/>
  </g>
</svg>