<?xml version="1.0" encoding="UTF-8"?>
<svg id="Layer_2" data-name="Layer 2" xmlns="http://www.w3.org/2000/svg" viewBox="0 0 310.35 210">
  <defs>
    <style>
      .vinyl-imagination-orange {
        fill: #e57a00
      }

      .vinyl-imagination-grey {
        fill: #b3b3b3;
      }
    </style>
  </defs>
  <g id="Layer_1-2">
    <path class="vinyl-imagination-grey" d="m286.54,0H104.56c-13.1,0-23.81,10.72-23.81,23.81v103.46c0,13.1,10.72,23.81,23.81,23.81h21.38v47.92c0,9.99,12.27,14.78,19.04,7.42l50.92-55.35h90.64c13.1,0,23.81-10.72,23.81-23.81V23.81c0-13.1-10.72-23.81-23.81-23.81Zm-149.71,94.02c-10.2,0-18.48-8.27-18.48-18.47s8.27-18.47,18.48-18.47,18.47,8.27,18.47,18.47-8.27,18.47-18.47,18.47Zm58.72,0c-10.2,0-18.48-8.27-18.48-18.47s8.27-18.47,18.48-18.47,18.48,8.27,18.48,18.47-8.27,18.47-18.48,18.47Zm58.72,0c-10.2,0-18.47-8.27-18.47-18.47s8.27-18.47,18.47-18.47,18.48,8.27,18.48,18.47-8.27,18.47-18.48,18.47Z"/>
    <g>
      <g>
        <path class="vinyl-imagination-orange" d="m54.87,101.28h-27.85c-5.34,0-9.66,4.33-9.66,9.66s4.32,9.66,9.66,9.66h27.85c5.34,0,9.66-4.33,9.66-9.66s-4.33-9.66-9.66-9.66Z"/>
        <path class="vinyl-imagination-orange" d="m9.66,85.15h45.21c5.34,0,9.66-4.33,9.66-9.66s-4.33-9.66-9.66-9.66H9.66c-5.34,0-9.66,4.33-9.66,9.66s4.32,9.66,9.66,9.66Z"/>
        <path class="vinyl-imagination-orange" d="m27.02,49.7h27.85c5.34,0,9.66-4.32,9.66-9.66s-4.33-9.66-9.66-9.66h-27.85c-5.34,0-9.66,4.33-9.66,9.66s4.32,9.66,9.66,9.66Z"/>
      </g>
    </g>
  </g>
</svg>