<?xml version="1.0" encoding="UTF-8"?>
<svg id="Layer_2" data-name="Layer 2" xmlns="http://www.w3.org/2000/svg" viewBox="0 0 330 330">
  <defs>
    <style>
      .cls-1 {
        fill: #e57a00;
      }

      .vinyl-imagination-grey {
        fill: #b3b3b3;
      }
    </style>
  </defs>
  <g id="Layer_1-2">
    <path class="cls-1" d="m249.32,47.69l39.03-39.03,6.97,26.02,26.02,6.97-39.03,39.03-20.45-5.48-87.2,87.2c.22.83.34,1.69.34,2.59,0,5.52-4.48,10-10,10s-10-4.48-10-10,4.48-10,10-10c.9,0,1.76.12,2.59.34l87.2-87.2-5.48-20.44Z"/>
    <path class="vinyl-imagination-grey" d="m165,0c33.51,0,64.68,10,90.71,27.16l-17.54,17.54,5.48,20.44-7.85,7.85c-19.59-15.1-44.14-24.08-70.79-24.08-32.05,0-61.07,12.99-82.08,34-21.01,21.01-34,50.03-34,82.08s12.99,61.07,34,82.08c21.01,21.01,50.03,34,82.08,34s61.07-12.99,82.08-34c21.01-21.01,34-50.03,34-82.08,0-26.65-8.98-51.2-24.08-70.79l7.85-7.85,20.45,5.48,17.54-17.54c17.16,26.03,27.16,57.2,27.16,90.71,0,91.13-73.87,165-165,165S0,256.13,0,165,73.87,0,165,0h0Zm63.66,80.14c-17.73-13.32-39.77-21.22-63.66-21.22-29.29,0-55.81,11.87-75.01,31.07-19.19,19.2-31.07,45.72-31.07,75.01s11.87,55.82,31.07,75.01,45.72,31.07,75.01,31.07,55.82-11.87,75.01-31.07,31.07-45.72,31.07-75.01c0-23.89-7.9-45.93-21.22-63.66l-31.6,31.6c5.65,9.36,8.9,20.33,8.9,32.06,0,17.16-6.96,32.7-18.21,43.95s-26.79,18.21-43.95,18.21-32.7-6.96-43.95-18.21c-11.25-11.25-18.21-26.79-18.21-43.95s6.96-32.7,18.21-43.95c11.25-11.25,26.79-18.21,43.95-18.21,11.73,0,22.7,3.25,32.06,8.9l31.6-31.6h0Zm-38.93,38.93c-7.36-3.97-15.78-6.22-24.73-6.22-14.4,0-27.45,5.84-36.88,15.28-9.44,9.44-15.28,22.48-15.28,36.88s5.84,27.45,15.28,36.88c9.44,9.44,22.48,15.28,36.88,15.28s27.45-5.84,36.88-15.28c9.44-9.44,15.28-22.48,15.28-36.88,0-8.95-2.25-17.37-6.22-24.73l-25.98,25.98c-.65,10.46-9.34,18.75-19.96,18.75s-20-8.96-20-20,8.29-19.31,18.75-19.96l25.98-25.98Z"/>
  </g>
</svg>