<?xml version="1.0" encoding="UTF-8"?>
<svg id="Layer_2" data-name="Layer 2" xmlns="http://www.w3.org/2000/svg" viewBox="0 0 216.39 255.21">
  <defs>
    <style>
      .vinyl-imagination-orange {
        fill: #e57a00;
      }

      .vinyl-imagination-grey {
        fill: #b3b3b3;
      }
    </style>
  </defs>
  <g id="Layer_1-2">
    <path class="vinyl-imagination-orange" d="m108.28,44.97c5.19,0,9.4-4.21,9.4-9.4V9.4c0-5.19-4.21-9.4-9.4-9.4s-9.4,4.21-9.4,9.4v26.18c0,5.19,4.21,9.4,9.4,9.4Z"/>
    <path class="vinyl-imagination-orange" d="m142.99,52.01c1.2.51,2.44.75,3.67.75,3.66,0,7.14-2.15,8.66-5.73l10.22-24.1c2.03-4.78-.2-10.29-4.98-12.32-4.77-2.03-10.3.2-12.32,4.98l-10.22,24.1c-2.03,4.78.2,10.29,4.98,12.32Z"/>
    <path class="vinyl-imagination-orange" d="m61.08,47.03c1.52,3.58,5,5.73,8.66,5.73,1.22,0,2.47-.24,3.67-.75,4.78-2.03,7.01-7.55,4.98-12.32l-10.23-24.09c-2.04-4.78-7.54-7.01-12.32-4.98-4.78,2.03-7.01,7.55-4.98,12.32l10.23,24.1Z"/>
    <path class="vinyl-imagination-grey" d="m129.25,78.03c-9.51-15.93-32.59-15.93-42.1,0L3.5,218.13c-9.76,16.34,2.02,37.08,21.04,37.08h167.28c19.03,0,30.81-20.74,21.05-37.08l-83.64-140.1Zm-22.25,31.84c7.59-.66,14.28,4.95,14.94,12.54.07.79.06,1.64,0,2.4l-4.58,52.47c-.44,5.06-4.9,8.8-9.96,8.36-4.52-.4-7.98-4-8.36-8.36l-4.58-52.47c-.66-7.59,4.95-14.27,12.54-14.94Zm1.2,116.85c-8.12,0-14.7-6.58-14.7-14.7s6.58-14.7,14.7-14.7,14.7,6.58,14.7,14.7-6.59,14.7-14.7,14.7Z"/>
  </g>
</svg>