<svg version="1.1" xmlns="http://www.w3.org/2000/svg" width="66" height="32" viewBox="0 0 66 32">
<title>OracalLogo</title>
<path fill="red" d="M58.154 7.355c-0.206 0.327 0.237-0.868 0.904-1.907-0.592 0.647 0.287-0.536 1.403-1.437-7.763-0.012-15.537-0.036-23.316 0.007-1.048 0.086-2.112 0.063-3.172 0.806-0.202 0.017-0.942 0.746-1.396 1.644-0.368 0.973-0.794 1.982-1.185 2.959 1.030-0.453 2.23-0.716 3.491-0.716 0.335 0 0.666 0.019 0.992 0.055-0.137-0.082 1.046 0.142 2.155 0.526 0.235-0.059 1.461 0.65 2.384 1.645l0.813-1.951h4.779l1.6 3.864v-3.864h4.071v6.746h3.191zM49.675 18.634h-4.040l-0.274-0.947h-3.492l-0.274 0.947h-3.52c-0.188 0.138-1.386 0.479-2.645 0.614-0.119 0.006-0.201 0.007-0.283 0.007-0.888 0-1.752-0.102-2.581-0.295 0.73 0.232-0.138 0.003-0.934-0.357l-3.917 0.020-2.112 5.252h19.093c-0.002 0.455 0.251 1.329 0.672 2.099-0.211-0.19 0.322 0.584 1.021 1.168 0.51 0.365 1.136 0.58 1.813 0.58 0.089 0 0.176-0.004 0.263-0.011 0.613-0.023 1.276-0.332 1.764-0.817 0.981-0.974 1.2-1.99 1.408-3.011l2.065-5.252h-4.028zM36.73 12.525c-1.009-1.095-2.065-1.424-3.14-0.704-0.616 0.44-1.012 1.152-1.012 1.957 0 0.339 0.070 0.661 0.197 0.953-0.115-0.146 0.132 0.335 0.478 0.727 0.748 0.673 1.679 0.92 2.559 0.415 0.041 0.065 0.629-0.409 1.036-1.016l1.964-0.013 0.962-2.347h-3.043zM43.254 14.919h0.751l-0.376-1.158-0.376 1.158zM17.802 24.504h26.202c-0.001 0.035-0.002 0.075-0.002 0.116 0 0.728 0.232 1.401 0.627 1.951 0.556 0.772 1.092 1.257 1.823 1.425h-25.327c-0.024 0.001-0.053 0.001-0.081 0.001-0.861 0-1.64-0.354-2.198-0.923-0.646-0.623-1.046-1.496-1.046-2.461 0-0.038 0.001-0.076 0.002-0.114zM65.561 7.469h-6.621c-0.001-0.026-0.001-0.056-0.001-0.086 0-0.892 0.379-1.696 0.985-2.258 0.556-0.62 1.358-1.007 2.25-1.007 0.013 0 0.026 0 0.038 0 0.019-0 0.043-0.001 0.067-0.001 0.917 0 1.743 0.389 2.322 1.012 0.594 0.577 0.961 1.38 0.961 2.269 0 0.025-0 0.050-0.001 0.075zM6.073 9.283c-3.344 0-6.073 2.135-6.073 4.752s2.734 4.752 6.073 4.752c3.34 0 6.077-2.135 6.077-4.752s-2.73-4.752-6.077-4.752zM6.073 11.141c1.598 0 2.894 1.296 2.894 2.894s-1.296 2.894-2.894 2.894c-1.598 0-2.894-1.296-2.894-2.894s1.296-2.894 2.894-2.894zM13.844 11.282v1.74l3.655-0c0.011 0 0.023 0.001 0.034 0.001 0.489 0 0.889-0.384 0.914-0.871-0.025-0.483-0.425-0.867-0.914-0.867-0.011 0-0.023 0-0.032 0.001h-3.661zM14.232 9.541h4.302c1.717 0 3.129 1.173 3.101 2.64 0 1.208-0.989 2.229-2.307 2.542l2.984 3.379h-4.11l-1.955-3.265h-2.401v3.265h-3v-0.368l0.133-0.109 0.223-0.192 0.199-0.199 0.191-0.207 0.176-0.215 0.164-0.223 0.153-0.231 0.125-0.235 0.125-0.242 0.109-0.25 0.094-0.254 0.078-0.262 0.063-0.266 0.043-0.27 0.027-0.274v-0.555l-0.027-0.274-0.043-0.27-0.063-0.266-0.078-0.258-0.094-0.254-0.109-0.25-0.125-0.242-0.137-0.235-0.153-0.231-0.164-0.223-0.164-0.207-0.188-0.207-0.203-0.184-0.211-0.191-0.133-0.109v-0.782h3.387zM27.997 18.079h3.027l-3.52-8.549h-3.911l-2.593 6.203 2.045 2.315 0.278-0.911h4.4zM25.53 11.821l1.173 3.629h-2.347zM40.829 15.388c-0.892 1.924-3.285 3.328-5.995 3.328-0.020 0-0.043 0-0.067 0-1.147 0-2.229-0.276-3.184-0.766l-2.393-5.801c0.833-1.682 3.066-2.89 5.682-2.89 2.523 0 4.693 1.126 5.592 2.738h-3.453c-0.517-0.647-1.309-1.061-2.197-1.064-1.595 0-2.887 1.292-2.887 2.886s1.292 2.886 2.886 2.886c0.974-0.004 1.836-0.507 2.34-1.268l3.651-0.010zM46.097 18.079h3.039l-3.52-8.549h-3.911l-0.81 1.955c0.215 0.321 0.391 0.661 0.63 1.033h-1.056l-0.962 2.347h2.198c0.060 0.241-0.591 1.462-1.519 2.41 0.627-0.549-0.127 0.23-1.028 0.8l1.991 0.016 0.274-0.947h4.411zM43.629 11.821l1.173 3.629h-2.347zM48.197 9.518h2.894v6.746h5.827v1.815h-7.157l-1.564-3.79v-4.755z"></path>
</svg>
