<?xml version="1.0" encoding="UTF-8"?>
<svg id="Layer_2" data-name="Layer 2" xmlns="http://www.w3.org/2000/svg" viewBox="0 0 281.38 251.2">
  <defs>
    <style>
      .vinyl-imagination-orange {
      fill: #e57a00
      }

      .vinyl-imagination-grey {
        fill: #b3b3b3;
      }
    </style>
  </defs>
  <g id="Layer_1-2">
    <path class="vinyl-imagination-orange" d="m167.64,148.26l-11.21-14.22c-1.58-2.01-4.37-2.6-6.63-1.42l-8.51,4.45c-3.95-5.21-6.7-9.69-9.22-16.4-2.69-7.16-3.46-12.39-3.85-18.71l9.23-2.23c2.49-.6,4.19-2.88,4.06-5.43l-.92-17.99c-.16-3.16-3.03-5.48-6.16-4.97l-12.15,1.98c-2.82.46-5.17,2.39-6.18,5.07-1.03,2.74-2.21,6.23-2.67,8.84-2.03,11.68-.39,25.42,4.6,38.7,4.98,13.27,12.79,24.7,22.01,32.16,2.07,1.67,5.27,3.53,7.86,4.91,2.55,1.37,5.64,1.24,8.07-.33l10.36-6.67c2.63-1.7,3.23-5.29,1.3-7.75Z"/>
    <path class="vinyl-imagination-grey" d="m194.69,0h-108c-8.07,0-14.59,6.52-14.59,14.59v222.01c0,8.07,6.53,14.59,14.59,14.59h108c8.07,0,14.59-6.52,14.59-14.59V14.59c0-8.07-6.52-14.59-14.59-14.59Zm-69.97,13.91h31.42c2.49,0,4.46,2.06,4.46,4.47s-1.97,4.55-4.46,4.55h-31.42c-2.49,0-4.46-2.06-4.46-4.55s1.97-4.47,4.46-4.47Zm24.04,220.98h-10.39c-5.58,0-10.05-4.55-10.05-10.04s4.47-10.05,10.05-10.05h10.39c5.58,0,10.05,4.47,10.05,10.05s-4.47,10.04-10.05,10.04Zm42.58-42.41c0,3.26-2.66,5.92-6.01,5.92h-89.54c-3.26,0-6.01-2.66-6.01-5.92V42.84c0-3.35,2.75-6.01,6.01-6.01h89.54c3.35,0,6.01,2.66,6.01,6.01v149.64Z"/>
    <g>
      <g>
        <g>
          <path class="vinyl-imagination-orange" d="m235.69,87.47c-2.93-2.73-7.52-2.56-10.25.37-2.73,2.94-2.57,7.52.37,10.25,7.68,7.15,11.92,16.92,11.92,27.51s-4.23,20.36-11.92,27.51c-1.54,1.43-2.31,3.37-2.31,5.31,0,1.77.64,3.54,1.94,4.94,2.73,2.93,7.32,3.1,10.25.37,10.67-9.93,16.54-23.47,16.54-38.12s-5.87-28.2-16.54-38.12Z"/>
          <path class="vinyl-imagination-orange" d="m244.08,72.13c0,1.91.75,3.82,2.24,5.24,13.26,12.68,20.56,29.81,20.56,48.23s-7.28,35.47-20.51,48.26c-2.88,2.79-2.95,7.38-.17,10.26,2.78,2.88,7.38,2.95,10.26.17,16.07-15.55,24.93-36.39,24.93-58.68s-8.89-43.27-25.03-58.71c-2.9-2.77-7.49-2.67-10.26.23-1.35,1.41-2.01,3.21-2.01,5.01Z"/>
        </g>
        <g>
          <path class="vinyl-imagination-orange" d="m45.69,87.47c2.93-2.73,7.52-2.56,10.25.37,2.73,2.94,2.57,7.52-.37,10.25-7.68,7.15-11.92,16.92-11.92,27.51s4.23,20.36,11.92,27.51c1.54,1.43,2.31,3.37,2.31,5.31,0,1.77-.64,3.54-1.94,4.94-2.73,2.93-7.32,3.1-10.25.37-10.67-9.93-16.54-23.47-16.54-38.12s5.87-28.2,16.54-38.12Z"/>
          <path class="vinyl-imagination-orange" d="m37.3,72.13c0,1.91-.75,3.82-2.24,5.24-13.26,12.68-20.56,29.81-20.56,48.23s7.28,35.47,20.51,48.26c2.88,2.79,2.95,7.38.17,10.26-2.78,2.88-7.38,2.95-10.26.17C8.85,168.73,0,147.89,0,125.6s8.89-43.27,25.03-58.71c2.9-2.77,7.49-2.67,10.26.23,1.35,1.41,2.01,3.21,2.01,5.01Z"/>
        </g>
      </g>
    </g>
  </g>
</svg>