<?xml version="1.0" encoding="UTF-8"?>
<svg id="Layer_2" data-name="Layer 2" xmlns="http://www.w3.org/2000/svg" viewBox="0 0 266.12 270.12">
  <defs>
    <style>
      .vinyl-imagination-orange {
        fill: #e57a00;
      }

      .vinyl-imagination-grey {
        fill: #b3b3b3;
      }
    </style>
  </defs>
  <g id="Layer_1-2">
    <path class="vinyl-imagination-grey" d="m169.05,244.39c-10.93,5.22-23.12,8.11-36.02,8.11s-25.03-2.89-35.95-8.11v8.6c0,3.45-1.06,6.7-2.96,9.38,11.98,5,25.17,7.75,38.91,7.75s26.93-2.75,38.91-7.75c-1.83-2.68-2.89-5.92-2.89-9.38v-8.6Z"/>
    <path class="vinyl-imagination-grey" d="m186.6,104.04c12.55,10.43,22.06,24.32,26.79,40.32,3.52-1.06,7.33-1.62,11.21-1.62,2.33,0,4.58.21,6.77.63-6.35-24.81-21.92-46.03-42.79-59.78.07.28.07.56.07.85v11.63c0,2.89-.78,5.64-2.04,7.97Z"/>
    <path class="vinyl-imagination-grey" d="m52.66,144.36c4.86-16,14.31-29.96,26.86-40.32-1.27-2.33-2.04-5.08-2.04-7.97v-11.63c0-.28,0-.56.07-.85-20.87,13.68-36.45,34.9-42.86,59.78,2.26-.42,4.51-.63,6.84-.63,3.88,0,7.61.56,11.14,1.62Z"/>
    <circle class="vinyl-imagination-grey" cx="133.05" cy="25.05" r="25.05"/>
    <path class="vinyl-imagination-grey" d="m155.18,57.3c-6.3,4.34-13.92,6.89-22.13,6.89s-15.83-2.55-22.13-6.89c-11.24,3.96-19.35,14.56-19.35,27.15v11.65c0,1.45,1.17,2.62,2.62,2.62h77.72c1.45,0,2.62-1.17,2.62-2.62v-11.65c0-12.59-8.11-23.2-19.35-27.15Z"/>
    <path class="vinyl-imagination-grey" d="m63.8,214.08c-6.27,4.37-14.03,6.98-22.28,6.98s-16-2.61-22.35-6.98c-11.14,4.02-19.17,14.66-19.17,27.21v11.7c0,1.41,1.2,2.61,2.61,2.61h77.76c1.41,0,2.61-1.2,2.61-2.61v-11.7c0-12.55-8.04-23.19-19.17-27.21Z"/>
    <path class="vinyl-imagination-grey" d="m41.49,206.95c13.83,0,25.05-11.21,25.05-25.05s-11.21-25.05-25.05-25.05-25.05,11.21-25.05,25.05,11.21,25.05,25.05,25.05Z"/>
    <path class="vinyl-imagination-grey" d="m246.87,214.08c-6.34,4.44-14.03,6.98-22.28,6.98s-16-2.61-22.28-6.98c-11.21,4.02-19.17,14.66-19.17,27.21v11.7c0,1.41,1.13,2.61,2.61,2.61h77.69c1.48,0,2.68-1.2,2.68-2.61v-11.7c0-12.55-8.04-23.26-19.25-27.21Z"/>
    <path class="vinyl-imagination-grey" d="m199.57,181.9c0,13.83,11.21,25.05,25.05,25.05s25.05-11.21,25.05-25.05-11.21-25.05-25.05-25.05-25.05,11.21-25.05,25.05Z"/>
    <path class="vinyl-imagination-orange" d="m137.07,121.14h-8.02c-12.12,0-21.98,9.86-21.98,21.98v13.2h-2.73c-5.4,0-9.78,4.38-9.78,9.78v40.85c0,5.4,4.38,9.78,9.78,9.78h57.45c5.4,0,9.78-4.38,9.78-9.78v-40.85c0-5.4-4.38-9.78-9.78-9.78h-2.73v-13.2c0-12.12-9.86-21.98-21.98-21.98Zm2.46,78.08c.27,1.07-.53,2.1-1.63,2.1h-9.68c-1.1,0-1.9-1.04-1.63-2.1l3.24-12.59c-2.7-1.23-4.58-3.93-4.58-7.09,0-4.31,3.5-7.81,7.81-7.81s7.81,3.5,7.81,7.81c0,3.16-1.88,5.86-4.58,7.09l3.24,12.59Zm6.31-42.9h-25.55v-13.2c0-4.83,3.93-8.77,8.76-8.77h8.02c4.83,0,8.76,3.93,8.76,8.77v13.2Z"/>
  </g>
</svg>