<?xml version="1.0" encoding="UTF-8"?>
<svg id="Layer_2" data-name="Layer 2" xmlns="http://www.w3.org/2000/svg" viewBox="0 0 279.73 256.55">
  <defs>
    <style>
      .vinyl-imagination-orange {
        fill: #e57a00;
      }

      .vinyl-imagination-grey {
        fill: #b3b3b3;
      }
    </style>
  </defs>
  <g id="Layer_1-2">
    <polygon class="vinyl-imagination-grey" points="0 164.07 0 65.5 36.93 86.81 36.93 132.57 54.23 142.67 54.23 96.81 87.5 116.01 87.5 214.57 0 164.07"/>
    <polygon class="vinyl-imagination-grey" points="63.5 82.17 104.45 58.71 87.28 48.8 46.2 72.18 8.65 50.51 96.15 0 183.64 50.51 96.15 101.02 63.5 82.17"/>
    <path class="vinyl-imagination-grey" d="m104.83,116.01l87.48-50.53v53.61l-.83.28c-31.7,10.65-52.99,40.25-52.99,73.65,0,.46,0,.83.05,1.24l.1.8-33.81,19.54v-98.58Z"/>
    <path class="vinyl-imagination-orange" d="m216.19,129.47c-35.09,0-63.54,28.45-63.54,63.54s28.45,63.54,63.54,63.54,63.54-28.45,63.54-63.54-28.45-63.54-63.54-63.54Zm28.69,54l-28.61,30.2c-1.53,1.61-3.65,2.52-5.87,2.52s-4.34-.91-5.87-2.52l-17.04-17.99c-3.07-3.24-2.93-8.36.31-11.43,3.25-3.07,8.36-2.93,11.43.31l11.17,11.79,22.74-24c3.08-3.24,8.19-3.38,11.43-.31,3.24,3.07,3.38,8.19.31,11.43Z"/>
  </g>
</svg>