<?xml version="1.0" encoding="UTF-8"?>
<svg id="Layer_2" data-name="Layer 2" xmlns="http://www.w3.org/2000/svg" viewBox="0 0 216.48 256.68">
  <defs>
    <style>
      .vinyl-imagination-orange {
        fill: #e57a00;
      }

      .vinyl-imagination-grey {
        fill: #b3b3b3;
      }
    </style>
  </defs>
  <g id="Layer_1-2">
    <path class="vinyl-imagination-grey" d="m46.42,86.94h83.68c2.27,0,4.11,1.84,4.11,4.11v6.86c0,2.27-1.84,4.1-4.1,4.1H46.42c-2.27,0-4.1-1.84-4.1-4.1v-6.86c0-2.27,1.84-4.11,4.11-4.11Z"/>
    <path class="vinyl-imagination-grey" d="m46.42,125.22h83.69c2.27,0,4.1,1.84,4.1,4.1v6.86c0,2.27-1.84,4.11-4.11,4.11H46.42c-2.27,0-4.11-1.84-4.11-4.11v-6.86c0-2.27,1.84-4.1,4.1-4.1Z"/>
    <path class="vinyl-imagination-grey" d="m42.32,167.63v6.85c0,2.28,1.84,4.12,4.12,4.12h61.8v-11.8c0-1.14.13-2.22.25-3.3h-62.05c-2.28,0-4.12,1.84-4.12,4.12Z"/>
    <path class="vinyl-imagination-grey" d="m14.97,207.53V54.18h15.93v-14.91H14.28c-7.93,0-14.28,6.41-14.28,14.21v154.75c0,7.8,6.34,14.21,14.28,14.21h100.18c-2.28-4.63-4-9.58-5.08-14.91H14.97Z"/>
    <path class="vinyl-imagination-grey" d="m161.09,125.31c2.16-1.02,4.57-1.52,7.11-1.52,2.79,0,5.46.63,7.8,1.78V53.49c0-7.8-6.34-14.21-14.28-14.21h-17.51v14.91h16.88v71.12Z"/>
    <path class="vinyl-imagination-grey" d="m47.71,59.32h79.69c3.11,0,5.58-2.47,5.58-5.58v-22.65c0-3.05-2.48-5.58-5.58-5.58h-13.2c-.7-14.21-12.31-25.51-26.65-25.51s-25.95,11.29-26.65,25.51h-13.2c-3.05,0-5.58,2.54-5.58,5.58v22.65c0,3.11,2.54,5.58,5.58,5.58Zm39.84-42.76c5.65,0,10.22,4.57,10.22,10.22s-4.57,10.15-10.22,10.15-10.21-4.57-10.21-10.15,4.57-10.22,10.21-10.22Z"/>
    <path class="vinyl-imagination-orange" d="m209.93,159.56c-26.8-2.74-34.73-17.74-35.13-18.52-1.2-2.49-3.73-4.05-6.5-4.08-2.77,0-5.38,1.57-6.64,4.07-.32.64-8.2,15.77-35.13,18.53-3.72.38-6.55,3.52-6.55,7.26v29.22c0,36.34,43.09,58.88,44.92,59.82,1.05.54,2.19.81,3.33.81s2.29-.27,3.33-.81c1.83-.94,44.92-23.49,44.92-59.82v-29.22c0-3.74-2.83-6.88-6.55-7.26Zm-17.23,31.17l-25.36,25.36c-1.42,1.43-3.29,2.14-5.16,2.14s-3.73-.71-5.16-2.14l-13.26-13.26c-2.85-2.85-2.85-7.47,0-10.32,2.85-2.85,7.47-2.85,10.32,0l8.1,8.1,20.2-20.2c2.85-2.85,7.47-2.85,10.32,0,2.85,2.85,2.85,7.47,0,10.32Z"/>
  </g>
</svg>