<?xml version="1.0" encoding="UTF-8"?>
<svg id="Layer_2" data-name="Layer 2" xmlns="http://www.w3.org/2000/svg" viewBox="0 0 397.1 195.8">
  <defs>
    <style>
      .vinyl-imagination-orange {
        fill: #e57a00;
      }

      .vinyl-imagination-grey {
        fill: #b3b3b3;
      }
    </style>
  </defs>
  <g id="Layer_1-2">
    <path class="vinyl-imagination-orange" d="m385.25,88.73l-40.89-5.57-18.04-41.8c-4.89-11.34-15.96-18.33-29.02-18.33h-46.88l1.96-13.97c.7-5.01-2.78-9.06-7.79-9.06H105.29c-5,0-9.63,4.05-10.33,9.06l-20.46,145.57c-.62,4.44,2.47,8.04,6.91,8.04h15.41c-1.14,18.51,12.3,33.13,31.18,33.13s36.43-14.62,40.48-33.13h124.34c-1.14,18.51,12.3,33.13,31.17,33.13s36.43-14.62,40.49-33.13h8.26c8.86,0,17.06-7.19,18.3-16.05l5.9-41.98c1.13-8.04-3.86-14.85-11.69-15.91Zm-254.87,90.08c-10.49,0-17.8-8.5-16.32-18.99,1.47-10.49,11.17-18.98,21.66-18.98s17.79,8.5,16.32,18.98c-1.47,10.49-11.17,18.99-21.66,18.99Zm184.67-96.71h-51.96c-.89,0-1.51-.71-1.38-1.6l4.59-33.22c.12-.89.94-1.61,1.83-1.61h25.99c4.93,0,9.11,2.66,10.95,6.91l11.71,27.12c.46,1.07-.5,2.4-1.73,2.4Zm11.32,96.71c-10.49,0-17.8-8.5-16.32-18.99,1.47-10.49,11.17-18.98,21.66-18.98s17.8,8.5,16.32,18.98c-1.47,10.49-11.18,18.99-21.66,18.99Z"/>
    <rect class="vinyl-imagination-grey" x="9.58" y="35.54" width="66.3" height="15.5" rx="7.75" ry="7.75"/>
    <path class="vinyl-imagination-grey" d="m63.34,85.76H12.54c-4.28,0-7.75-3.47-7.75-7.75h0c0-4.28,3.47-7.75,7.75-7.75h50.79c4.28,0,7.75,3.47,7.75,7.75h0c0,4.28-3.47,7.75-7.75,7.75Z"/>
    <path class="vinyl-imagination-grey" d="m58.55,120.48H7.75c-4.28,0-7.75-3.47-7.75-7.75h0c0-4.28,3.47-7.75,7.75-7.75h50.79c4.28,0,7.75,3.47,7.75,7.75h0c0,4.28-3.47,7.75-7.75,7.75Z"/>
  </g>
</svg>