<?xml version="1.0" encoding="UTF-8"?>
<svg id="Layer_2" data-name="Layer 2" xmlns="http://www.w3.org/2000/svg" viewBox="0 0 257.89 249.68">
  <defs>
    <style>
      .cls-1 {
        fill: #e57a00;
      }

      .cls-1, .cls-2 {
        stroke-width: 0px;
      }

      .cls-2 {
        fill: #b3b3b3;
      }
    </style>
  </defs>
  <g id="Layer_1-2" data-name="Layer 1">
    <path class="cls-2" d="m222.08,119.29c11.31-15.5,35.81-52.05,35.81-77.89,0-22.86-18.54-41.4-41.4-41.4s-41.4,18.54-41.4,41.4c0,25.84,24.5,62.4,35.81,77.89,2.77,3.8,8.41,3.8,11.18,0Zm-25.44-78.1c0-11.08,8.98-20.06,20.06-20.06s20.06,8.98,20.06,20.06-8.98,20.06-20.06,20.06-20.06-8.98-20.06-20.06Z"/>
    <path class="cls-1" d="m172.04,145.01h-36.99c-9.3,0-16.86-7.56-16.86-16.86s7.56-16.86,16.86-16.86h32.07c5.07,0,9.19-4.11,9.19-9.19s-4.12-9.19-9.19-9.19h-32.07c-19.43,0-35.23,15.81-35.23,35.23s15.8,35.24,35.23,35.24h36.99c9.3,0,16.86,7.56,16.86,16.86s-7.57,16.86-16.86,16.86h-59.96c-5.07,0-9.19,4.11-9.19,9.19s4.12,9.19,9.19,9.19h59.96c19.43,0,35.24-15.81,35.24-35.23s-15.81-35.24-35.24-35.24Z"/>
    <path class="cls-2" d="m1.39,182.05c-.65-.3-1.39.18-1.39.9v49.07c0,.38.23.73.57.9l36.48,16.68c.65.3,1.39-.18,1.39-.9v-49.07c0-.39-.23-.74-.58-.9L1.39,182.05Z"/>
    <path class="cls-2" d="m80.23,170.51l-35.46-16.21c-.26-.12-.56-.12-.82,0l-35.46,16.21c-.77.35-.77,1.44,0,1.79l35.46,16.21c.26.12.56.12.82,0l35.46-16.21c.77-.35.77-1.44,0-1.79Z"/>
    <path class="cls-2" d="m87.33,182.05l-36.48,16.68c-.35.16-.57.51-.57.9v49.07c0,.72.74,1.2,1.39.9l36.49-16.68c.35-.16.57-.51.57-.9v-49.07c0-.72-.74-1.19-1.39-.9Z"/>
  </g>
</svg>