<?xml version="1.0" encoding="UTF-8"?>
<svg id="Layer_2" data-name="Layer 2" xmlns="http://www.w3.org/2000/svg" viewBox="0 0 303.56 231.2">
  <defs>
    <style>
      .cls-1 {
        fill: #e57a00;
      }

      .cls-1, .cls-2 {
        stroke-width: 0px;
      }

      .cls-2 {
        fill: #b3b3b3;
      }
    </style>
  </defs>
  <g id="Layer_1-2" data-name="Layer 1">
    <path class="cls-2" d="m293.24,133.6l-23.69-4.59-10.87-32.67c-3.88-11.64-14.75-19.5-27-19.5h-67.59c0,48.19-39.05,87.29-87.24,87.29v23.28c0,6.99,5.72,12.71,12.71,12.71h10.05c0,17.15,13.94,31.09,31.09,31.09s31.09-13.94,31.09-31.09h54.62c0,17.15,13.94,31.09,31.09,31.09s31.09-13.94,31.09-31.09h12.25c7.04,0,12.71-5.72,12.71-12.71v-41.3c0-6.07-4.29-11.33-10.31-12.51Zm-162.54,81.22c-8.12,0-14.7-6.64-14.7-14.7s6.59-14.7,14.7-14.7,14.7,6.59,14.7,14.7-6.64,14.7-14.7,14.7Zm82.6-88.57v-32.98h18.38c5.21,0,9.8,3.32,11.43,8.22l8.22,24.76h-38.03Zm34.2,88.57c-8.12,0-14.7-6.64-14.7-14.7s6.59-14.7,14.7-14.7,14.7,6.59,14.7,14.7-6.64,14.7-14.7,14.7Z"/>
    <path class="cls-1" d="m147.69,47.04c-9.41-22.28-29.07-39.15-53.01-44.87,6.45,10.56,10.86,26.75,13.14,44.87h39.87Z"/>
    <path class="cls-1" d="m59.03,2.17C35.09,7.89,15.44,24.76,6.02,47.04h39.86c2.28-18.12,6.69-34.3,13.14-44.87Z"/>
    <path class="cls-1" d="m97.21,47.04C93.21,17.66,83.83,0,76.86,0s-16.36,17.66-20.35,47.04h40.7Z"/>
    <path class="cls-1" d="m44.04,76.86c0-6.48.28-12.95.78-19.31H2.55c-1.61,6.18-2.55,12.63-2.55,19.31s.95,13.12,2.55,19.31h42.26c-.5-6.35-.78-12.83-.78-19.31Z"/>
    <path class="cls-1" d="m55.36,57.55c-.51,6.07-.81,12.48-.81,19.31s.3,13.24.81,19.31h42.99c.51-6.07.81-12.48.81-19.31s-.31-13.24-.81-19.31h-42.99Z"/>
    <path class="cls-1" d="m147.69,106.68h-39.87c-2.28,18.12-6.69,34.31-13.14,44.87,23.94-5.72,43.6-22.59,53.01-44.87Z"/>
    <path class="cls-1" d="m109.68,76.86c0,6.48-.28,12.95-.78,19.31h42.27c1.61-6.18,2.55-12.63,2.55-19.31s-.95-13.12-2.55-19.31h-42.27c.5,6.35.78,12.83.78,19.31Z"/>
    <path class="cls-1" d="m6.02,106.68c9.41,22.28,29.07,39.15,53,44.87-6.45-10.56-10.86-26.75-13.14-44.87H6.02Z"/>
    <path class="cls-1" d="m97.21,106.68h-40.7c4,29.38,13.38,47.04,20.35,47.04s16.35-17.66,20.35-47.04Z"/>
  </g>
</svg>