<?xml version="1.0" encoding="UTF-8"?>
<svg id="Layer_2" data-name="Layer 2" xmlns="http://www.w3.org/2000/svg" viewBox="0 0 208.34 228.36">
  <defs>
    <style>
      .cls-1 {
        fill: #e57a00;
      }

      .cls-1, .cls-2 {
        stroke-width: 0px;
      }

      .cls-2 {
        fill: #b3b3b3;
      }
    </style>
  </defs>
  <g id="Layer_1-2" data-name="Layer 1">
    <path class="cls-2" d="m75.36,160.82l-30.89-28.34c-1.4-1.28-3.22-1.94-5.16-1.86-1.9.09-3.66.94-4.93,2.35-2.15,2.41-2.41,5.97-.62,8.66l.95,1.44c4.94,7.5,10.53,14.56,16.69,21.09l6.01,6.38c.87.92,1.33,2.12,1.29,3.4-.04,1.26-.56,2.43-1.49,3.32-.93.87-2.13,1.32-3.4,1.29-1.26-.04-2.44-.57-3.31-1.5l-5.41-5.73c-6.89-7.29-13.13-15.17-18.65-23.54l-.6-.91c-4.09-6.21-3.66-14.45,1.26-20.01.45-.5.91-1,1.4-1.43l-12.82-24.01c-1.48-2.76-4.52-4.52-7.65-4.4-2.37.09-4.52,1.12-6.06,2.94-1.53,1.81-2.21,4.11-1.9,6.47l8.53,64.85c.79,6.04,3.88,11.55,8.61,15.39l24.72,20.03c1.51,1.22,2.49,2.98,2.74,4.91l1.75,13.57c.23,1.82,1.79,3.19,3.62,3.19h35.07c2.21,0,3.91-1.95,3.62-4.14l-6.93-51.57c-.77-4.52-3.05-8.73-6.44-11.83Z"/>
    <path class="cls-2" d="m206.37,99.97c-1.54-1.82-3.69-2.85-6.06-2.94-3.12-.12-6.16,1.63-7.65,4.4l-12.82,24.01c.48.43.95.93,1.4,1.43,4.92,5.57,5.34,13.81,1.26,20.01l-.6.91c-5.52,8.37-11.76,16.25-18.65,23.54l-5.41,5.73c-.87.93-2.04,1.46-3.31,1.5-1.27.03-2.47-.43-3.4-1.29-.93-.88-1.45-2.06-1.49-3.32-.04-1.28.42-2.48,1.29-3.4l5.79-6.14c6.31-6.69,12.02-13.91,17.08-21.59l.78-1.18c1.79-2.69,1.53-6.25-.62-8.66-1.27-1.42-3.03-2.27-4.93-2.35-1.94-.07-3.76.59-5.16,1.86l-30.89,28.34c-3.38,3.09-5.67,7.3-6.44,11.83l-6.93,51.57c-.29,2.19,1.41,4.14,3.62,4.14h35.07c1.84,0,3.39-1.36,3.62-3.19l1.75-13.57c.25-1.93,1.23-3.7,2.75-4.92l24.7-20c4.74-3.84,7.83-9.35,8.62-15.4l8.53-64.85c.31-2.35-.37-4.66-1.9-6.47Z"/>
    <path class="cls-1" d="m165.65,107.09V40.13c0-1.76-1.82-2.93-3.43-2.2l-48.72,22.26c-.86.39-1.42,1.26-1.42,2.21v66.95c0,1.76,1.83,2.94,3.43,2.2l48.72-22.27c.86-.39,1.42-1.25,1.42-2.2Z"/>
    <path class="cls-1" d="m151.08,21.21L105.18.21c-.64-.28-1.38-.28-2.01,0l-45.9,21c-1.89.85-1.89,3.54,0,4.4l45.9,20.98c.64.29,1.38.29,2.01,0l45.9-20.98c1.89-.86,1.89-3.54,0-4.4Z"/>
    <path class="cls-1" d="m94.84,60.19l-48.72-22.26c-1.61-.74-3.43.44-3.43,2.2v66.96c0,.95.55,1.81,1.42,2.2l48.72,22.27c1.6.74,3.43-.44,3.43-2.2V62.4c0-.95-.55-1.82-1.42-2.21Z"/>
  </g>
</svg>