<?xml version="1.0" encoding="UTF-8"?>
<svg id="Layer_2" data-name="Layer 2" xmlns="http://www.w3.org/2000/svg" viewBox="0 0 198.7 251.2">
  <defs>
    <style>
      .vinyl-imagination-orange {
        fill: #e57a00
      }

      .vinyl-imagination-grey {
        fill: #b3b3b3;
      }
    </style>
  </defs>
  <g id="Layer_1-2">
    <path class="vinyl-imagination-grey" d="m137.19,57.18V14.59c0-8.07-6.52-14.59-14.59-14.59H14.59C6.52,0,0,6.52,0,14.59v222.01c0,8.07,6.52,14.59,14.59,14.59h108c8.07,0,14.59-6.52,14.59-14.59v-70.48h-17.94v26.36c0,3.26-2.66,5.92-6.01,5.92H23.69c-3.26,0-6.01-2.66-6.01-5.92V42.84c0-3.35,2.75-6.01,6.01-6.01h89.54c3.35,0,6.01,2.66,6.01,6.01v14.34h17.94Zm-70.91,157.62h10.39c5.58,0,10.04,4.46,10.04,10.04s-4.46,10.04-10.04,10.04h-10.39c-5.58,0-10.04-4.55-10.04-10.04s4.46-10.04,10.04-10.04ZM84.05,22.92h-31.42c-2.49,0-4.46-2.06-4.46-4.55s1.97-4.46,4.46-4.46h31.42c2.49,0,4.46,2.06,4.46,4.46s-1.97,4.55-4.46,4.55Z"/>
    <path class="vinyl-imagination-orange" d="m187.29,71.54H52.12c-6.3,0-11.41,5.11-11.41,11.41v57.37c0,6.3,5.11,11.41,11.41,11.41h15.08v19.72c0,4.75,5.81,7.05,9.06,3.59l21.9-23.3h89.13c6.3,0,11.41-5.11,11.41-11.41v-57.37c0-6.3-5.11-11.41-11.41-11.41Zm-96.94,54.73c-1.2,1.79-2.94,3.18-5.21,4.18-2.27,1-5.01,1.5-8.23,1.5s-5.84-.48-8.13-1.45c-2.3-.97-4.09-2.38-5.38-4.24-1.29-1.86-1.98-4.12-2.09-6.79h7.16c.11,1.4.54,2.56,1.3,3.49.76.93,1.75,1.62,2.97,2.08,1.22.46,2.59.69,4.11.69s2.97-.24,4.17-.72c1.2-.48,2.14-1.15,2.82-2,.68-.86,1.03-1.86,1.04-3.01-.01-1.05-.32-1.91-.92-2.6-.6-.69-1.44-1.26-2.52-1.73-1.08-.46-2.34-.88-3.78-1.25l-4.57-1.18c-3.31-.85-5.92-2.14-7.84-3.88-1.92-1.73-2.88-4.04-2.88-6.92,0-2.37.64-4.44,1.93-6.22,1.29-1.78,3.04-3.16,5.27-4.15,2.22-.99,4.74-1.48,7.55-1.48s5.35.49,7.51,1.48c2.15.99,3.84,2.36,5.07,4.1,1.23,1.74,1.86,3.75,1.9,6.01h-7.01c-.18-1.71-.95-3.05-2.31-4-1.35-.95-3.11-1.43-5.27-1.43-1.52,0-2.82.23-3.9.69-1.09.46-1.92,1.08-2.49,1.86-.58.78-.87,1.68-.88,2.69,0,.84.19,1.56.58,2.18.39.61.91,1.14,1.58,1.56.67.43,1.41.78,2.22,1.07.81.29,1.63.53,2.45.73l3.77.94c1.52.35,2.98.83,4.39,1.43,1.41.6,2.67,1.36,3.79,2.28,1.12.92,2,2.02,2.66,3.32.65,1.3.98,2.81.98,4.55,0,2.36-.6,4.43-1.8,6.21Zm50.43,5.07h-6.99v-27.61h-.37l-11.11,27.49h-5.22l-11.11-27.55h-.37v27.67h-6.99v-40.19h8.91l11.93,29.12h.47l11.93-29.12h8.91v40.19Zm35.52-5.07c-1.2,1.79-2.94,3.18-5.21,4.18-2.27,1-5.01,1.5-8.23,1.5s-5.84-.48-8.13-1.45c-2.3-.97-4.09-2.38-5.38-4.24-1.29-1.86-1.99-4.12-2.09-6.79h7.16c.1,1.4.54,2.56,1.3,3.49.76.93,1.75,1.62,2.97,2.08,1.22.46,2.59.69,4.11.69s2.97-.24,4.17-.72c1.2-.48,2.14-1.15,2.82-2,.68-.86,1.03-1.86,1.04-3.01-.01-1.05-.32-1.91-.92-2.6-.6-.69-1.44-1.26-2.52-1.73-1.08-.46-2.34-.88-3.78-1.25l-4.57-1.18c-3.31-.85-5.92-2.14-7.84-3.88-1.92-1.73-2.88-4.04-2.88-6.92,0-2.37.64-4.44,1.93-6.22,1.29-1.78,3.04-3.16,5.27-4.15,2.22-.99,4.74-1.48,7.56-1.48s5.35.49,7.5,1.48c2.15.99,3.84,2.36,5.07,4.1,1.23,1.74,1.86,3.75,1.9,6.01h-7.01c-.18-1.71-.95-3.05-2.31-4-1.35-.95-3.11-1.43-5.27-1.43-1.52,0-2.82.23-3.9.69-1.09.46-1.92,1.08-2.49,1.86-.58.78-.87,1.68-.88,2.69,0,.84.19,1.56.58,2.18.39.61.91,1.14,1.58,1.56.67.43,1.41.78,2.22,1.07.81.29,1.63.53,2.45.73l3.77.94c1.52.35,2.98.83,4.39,1.43,1.41.6,2.67,1.36,3.79,2.28,1.12.92,2,2.02,2.66,3.32.65,1.3.98,2.81.98,4.55,0,2.36-.6,4.43-1.8,6.21Z"/>
  </g>
</svg>