<?xml version="1.0" encoding="UTF-8"?>
<svg id="Layer_2" data-name="Layer 2" xmlns="http://www.w3.org/2000/svg" viewBox="0 0 330.43 260.04">
  <defs>
    <style>
      .vinyl-imagination-orange {
        fill: #e57a00;
      }

      .vinyl-imagination-grey {
        fill: #b3b3b3;
      }
    </style>
  </defs>
  <g id="Layer_1-2">
    <path class="vinyl-imagination-orange" d="m91.71,74.09c-48.81,0-87.05,41.88-88.66,43.7-4.06,4.56-4.06,11.42,0,15.9,1.61,1.83,39.85,43.7,88.66,43.7s87.05-41.88,88.67-43.7c4.06-4.48,4.06-11.34,0-15.9-1.61-1.82-39.85-43.7-88.67-43.7Zm0,86.63c-19.33,0-35.01-15.61-35.01-34.95s15.69-35.02,35.01-35.02,35.02,15.69,35.02,35.02-15.69,34.95-35.02,34.95Z"/>
    <path class="vinyl-imagination-orange" d="m91.71,105.61c-.98,0-1.89.07-2.8.28.56,1.33.91,2.87.91,4.41,0,6.03-4.9,10.86-10.92,10.86-2.31,0-4.48-.71-6.23-1.9-.7,2.03-1.12,4.2-1.12,6.51,0,11.07,9.04,20.1,20.17,20.1s20.17-9.03,20.17-20.1-9.04-20.17-20.17-20.17Z"/>
    <path class="vinyl-imagination-orange" d="m164.04,34.62c-4.1,0-7.42,3.32-7.42,7.42s3.32,7.42,7.42,7.42c24.36,0,44.18,19.82,44.18,44.18,0,4.1,3.32,7.42,7.42,7.42s7.42-3.32,7.42-7.42c0-32.55-26.48-59.02-59.02-59.02Z"/>
    <path class="vinyl-imagination-grey" d="m325.35,228.8l-56.08-56.08c-3.02-3.12-8.03-3.12-11.26,0l-.94.94-20.64-20.64c13.34-16.15,21.26-36.79,21.26-59.31C257.7,42,215.69,0,164.09,0c-41.28,0-76.41,26.79-88.81,64l.94-.42c5.11-2.29,11.15-2.29,16.26,0h.1l2.29,1.04c11.26-27.1,38.05-46.07,69.21-46.07,41.38,0,75.05,33.67,75.05,75.15s-33.67,75.05-75.05,75.05c-5,0-9.9-.52-14.59-1.46-1.25,6.05-5.21,11.15-10.94,13.76l-3.65,1.67c9.17,3.02,19.08,4.59,29.19,4.59,22.51,0,43.15-7.92,59.31-21.26l20.64,20.64-.94.94c-3.13,3.23-3.13,8.24,0,11.26l56.08,56.08c6.67,6.77,17.51,6.77,24.29,0l1.88-1.88c6.77-6.77,6.77-17.62,0-24.29Z"/>
  </g>
</svg>