<?xml version="1.0" encoding="UTF-8"?>
<svg id="Layer_2" data-name="Layer 2" xmlns="http://www.w3.org/2000/svg" viewBox="0 0 308.44 360">
  <defs>
    <style>
      .cls-1 {
        fill: #e57a00;
      }

      .vinyl-imagination-grey {
        fill: #b3b3b3;
      }
    </style>
  </defs>
  <g id="Layer_1-2">
    <path class="vinyl-imagination-grey" d="m154.22,99.56c63.83,0,120.23,31.81,154.22,80.44-33.99,48.63-90.39,80.44-154.22,80.44S33.99,228.63,0,180c33.99-48.63,90.39-80.44,154.22-80.44h0Zm0,9c-19.73,0-37.59,8-50.52,20.93-12.93,12.93-20.93,30.79-20.93,50.52s8,37.59,20.93,50.52c12.93,12.93,30.79,20.93,50.52,20.93s37.59-8,50.52-20.93c12.93-12.93,20.93-30.79,20.93-50.52s-8-37.59-20.93-50.52c-12.93-12.93-30.79-20.93-50.52-20.93Z"/>
    <path class="cls-1" d="m197.67,136.55c-11.12-11.12-26.48-18-43.45-18s-32.33,6.88-43.45,18c-11.12,11.12-17.99,26.48-17.99,43.45s6.88,32.33,17.99,43.45c11.12,11.12,26.48,18,43.45,18s32.33-6.88,43.45-18c11.12-11.12,17.99-26.48,17.99-43.45s-6.88-32.33-17.99-43.45h0Zm-43.45-8.04l12.24,34.66,36.75.93-29.18,22.35,10.47,35.23-30.27-20.84-30.27,20.84,10.47-35.23-29.18-22.36,36.74-.93,12.24-34.66Z"/>
    <path class="cls-1" d="m149.22,5c0-2.76,2.24-5,5-5s5,2.24,5,5v48.63c0,2.76-2.24,5-5,5s-5-2.24-5-5V5Z"/>
    <path class="cls-1" d="m244.77,25.94c1.38-2.38,4.43-3.2,6.82-1.82,2.38,1.38,3.2,4.43,1.82,6.82l-24.32,42.12c-1.38,2.38-4.43,3.2-6.82,1.82-2.38-1.38-3.2-4.43-1.82-6.82l24.32-42.12Z"/>
    <path class="cls-1" d="m55.04,30.95c-1.38-2.38-.57-5.44,1.82-6.82,2.38-1.38,5.44-.57,6.82,1.82l24.32,42.12c1.38,2.38.57,5.44-1.82,6.82-2.38,1.38-5.44.57-6.82-1.82l-24.32-42.12Z"/>
    <path class="cls-1" d="m159.22,355c0,2.76-2.24,5-5,5s-5-2.24-5-5v-48.63c0-2.76,2.24-5,5-5s5,2.24,5,5v48.63Z"/>
    <path class="cls-1" d="m63.67,334.05c-1.38,2.38-4.43,3.2-6.82,1.82-2.38-1.38-3.2-4.43-1.82-6.82l24.32-42.12c1.38-2.38,4.43-3.2,6.82-1.82,2.38,1.38,3.2,4.43,1.82,6.82l-24.32,42.12Z"/>
    <path class="cls-1" d="m253.41,329.05c1.38,2.38.57,5.44-1.82,6.82-2.38,1.38-5.44.57-6.82-1.82l-24.32-42.12c-1.38-2.38-.57-5.44,1.82-6.82,2.38-1.38,5.44-.57,6.82,1.82l24.32,42.12Z"/>
  </g>
</svg>