<?xml version="1.0" encoding="UTF-8"?>
<svg id="Layer_2" data-name="Layer 2" xmlns="http://www.w3.org/2000/svg" viewBox="0 0 180 51.15">
  <defs>
    <style>
      .cls-1 {
        fill: #c7db24;
      }

      .cls-1, .cls-2, .cls-3, .cls-4, .cls-5, .cls-6, .cls-7, .cls-8, .cls-9, .cls-10, .cls-11, .cls-12, .cls-13, .cls-14, .cls-15 {
        fill-rule: evenodd;
      }

      .cls-2 {
        fill: #f9e723;
      }

      .cls-3 {
        fill: #518a3b;
      }

      .cls-4 {
        fill: #b22124;
      }

      .cls-5 {
        fill: #fff;
      }

      .cls-6 {
        fill: #7b4fa4;
      }

      .cls-7 {
        fill: #66bcea;
      }

      .cls-8 {
        fill: #86c140;
      }

      .cls-9 {
        fill: #416097;
      }

      .cls-10 {
        fill: #6dc8b6;
      }

      .cls-11 {
        fill: #e43299;
      }

      .cls-12 {
        fill: #f1b813;
      }

      .cls-13 {
        fill: #b24f9c;
      }

      .cls-14 {
        fill: #54579e;
      }

      .cls-15 {
        fill: #f06a2b;
      }
    </style>
  </defs>
  <g id="Layer_1-2" data-name="Layer 1">
    <polygon class="cls-15" points="4.27 7.45 12.32 7.45 12.32 0 4.27 0 4.27 7.45 4.27 7.45"/>
    <path class="cls-12" d="m14.29,7.45h8.04V0h-8.04v7.45h0Z"/>
    <path class="cls-2" d="m24.76,7.45h8.04V0h-8.04v7.45h0Z"/>
    <path class="cls-1" d="m35,7.45h8.04V0h-8.04v7.45h0Z"/>
    <path class="cls-8" d="m45.64,7.45h8.04V0h-8.04v7.45h0Z"/>
    <path class="cls-3" d="m56.24,7.45h8.04V0h-8.04v7.45h0Z"/>
    <path class="cls-10" d="m66.97,7.45h8.04V0h-8.04v7.45h0Z"/>
    <path class="cls-7" d="m87.59,7.45h8.04V0h-8.04v7.45h0Z"/>
    <path class="cls-9" d="m97.83,7.45h8.04V0h-8.04v7.45h0Z"/>
    <path class="cls-14" d="m108.29,7.45h8.04V0h-8.04v7.45h0Z"/>
    <path class="cls-6" d="m118.8,7.45h8.04V0h-8.04v7.45h0Z"/>
    <path class="cls-13" d="m139.77,7.45h8.04V0h-8.04v7.45h0Z"/>
    <path class="cls-11" d="m149.92,7.45h8.04V0h-8.04v7.45h0Z"/>
    <polygon class="cls-4" points="159.9 7.45 167.94 7.45 167.94 0 159.9 0 159.9 7.45 159.9 7.45"/>
    <g>
      <path class="cls-5" d="m77.08,7.45h8.04V0h-8.04v7.45h0Z"/>
      <path class="cls-5" d="m129.4,7.45h8.04V0h-8.04v7.45h0Z"/>
      <g>
        <polygon class="cls-5" points="76.9 51.15 84.94 51.15 84.94 21.07 76.9 21.07 76.9 51.15 76.9 51.15"/>
        <polygon class="cls-5" points="129.4 51.15 137.44 51.15 137.44 21.07 129.4 21.07 129.4 51.15 129.4 51.15"/>
        <path class="cls-5" d="m0,10.5h9.31l8,27.78c.12.43.63,2.27.67,2.66h.23c.04-.46.5-2.2.64-2.66l8.06-27.77h9.02l-13.94,40.66h-8.13L0,10.5h0Z"/>
        <path class="cls-5" d="m37.68,10.5h9.31l8,27.78c.12.43.63,2.27.67,2.66h.23c.04-.46.5-2.2.64-2.66l8.06-27.77h9.02l-13.94,40.66h-8.13l-13.86-40.66h0Z"/>
        <path class="cls-5" d="m90.02,10.5h9.31l8,27.78c.12.43.63,2.27.67,2.66h.23c.04-.46.5-2.2.64-2.66l8.06-27.77h9.02l-13.94,40.66h-8.13l-13.86-40.66h0Z"/>
        <path class="cls-5" d="m163.35,10.5c11.98,0,16.65,8.53,16.65,20.33,0,9.42-4.97,20.33-16.02,20.33h-18.5V10.5h17.87Zm-9.58,33.45h7.73c6.93,0,9.8-6.44,9.8-13.12,0-6.56-1.23-13.12-8.94-13.12h-8.59v26.25h0Z"/>
      </g>
    </g>
  </g>
</svg>