<svg xmlns="http://www.w3.org/2000/svg" viewBox="0 0 1294.2 219.75"><defs><style>.cls-1{fill:#121212;fill-rule:evenodd;}</style></defs><title>470HP</title><g id="Layer_2" data-name="Layer 2"><g id="Layer_1-2" data-name="Layer 1"><path class="cls-1" d="M-25036.91-1901h111.32v-42.83h36.66v-49.46h-36.66V-2117h-166l-75.74,129v44.14h130.39Zm-33.55-92.29,33.55-59.08v59.08Z" transform="translate(25167.3 2118.85)"/><polygon class="cls-1" points="279.11 217.87 390.46 217.87 478.63 57.98 478.63 1.87 279.11 1.87 279.11 51.06 370.4 51.06 279.11 217.87"/><path class="cls-1" d="M-24558.28-2053.95c-.05-5.32,1-9.26,3.16-11.85s5.73-3.87,10.7-3.86,8.61,1.28,10.87,3.86,3.37,6.53,3.33,11.85V-1964q.12,7.95-3.07,11.71t-11.13,3.72q-7.46,0-10.7-3.72t-3.16-11.71Zm-44.6,154.83h114.49q37.24.48,53.55-11.1t16-41v-121.08q.15-25.24-16.73-36t-52.77-10.5h-114.49q-34.11-.13-50.47,11.1t-16.25,35.43v121.08q-.35,28.56,15.34,40.51T-24602.88-1899.12Z" transform="translate(25167.3 2118.85)"/><polygon class="cls-1" points="772.32 217.87 881.91 217.87 881.91 124.22 909.97 124.22 909.97 217.87 1019.57 217.87 1019.57 1.87 909.97 1.87 909.97 75.03 881.91 75.03 881.91 1.87 772.32 1.87 772.32 217.87"/><path class="cls-1" d="M-24122.1-1901h109.6v-57.73h69.89q37.25.48,53.55-11.1t15.94-41v-59.62q.17-25.25-16.72-36t-52.77-10.5h-179.49Zm124.49-167.35q8.21,0,11.61,3.86t3.29,11.85v29.55q.12,8-3.34,11.71t-11.9,3.73h-14.55v-60.7Z" transform="translate(25167.3 2118.85)"/></g></g></svg>