<svg xmlns="http://www.w3.org/2000/svg" viewBox="0 0 953.73 216"><defs><style>.cls-1{fill:#121212;}</style></defs><title>5_7L</title><g id="Layer_2" data-name="Layer 2"><g id="Layer_1-2" data-name="Layer 1"><path class="cls-1" d="M-25086.38-6215.63h250.49l-20.79,57.14h-162.87l-11.18,30.72h132.33q22.77,4.29,30.28,20.14a41.16,41.16,0,0,1,3.78,10.9q.75,4.62-1.65,11.23l-14.31,39.3q-5.88,16.19-25.3,29.4a108.26,108.26,0,0,1-24.16,12.88,73.67,73.67,0,0,1-25.46,4.29H-25165l20.8-57.14h174.81l9.14-25.1h-174.82Z" transform="translate(25165 6215.63)"/><polygon class="cls-1" points="373.97 216 289.44 216 308.31 164.15 392.4 164.15 373.97 216"/><polygon class="cls-1" points="476.49 0 742.91 0 722.12 57.14 559.85 216 461.6 216 630.5 57.14 455.69 57.14 476.49 0"/><polygon class="cls-1" points="692.18 216 770.79 0 864.62 0 806.8 158.86 953.73 158.86 932.93 216 692.18 216"/></g></g></svg>