<svg xmlns="http://www.w3.org/2000/svg" viewBox="0 0 2156.55 216"><defs><style>.cls-1{fill:#121212;fill-rule:evenodd;}</style></defs><title>6_1L-HEMI</title><g id="Layer_2" data-name="Layer 2"><g id="Layer_1-2" data-name="Layer 1"><path class="cls-1" d="M-24822.52-6360.92l-20.79,57.14h-194.29l-10.7,29.39h132q10.69-1.32,29.63,3.46t23.32,11q10.6,14.82,3.77,33.6l-12.11,33.27a47.64,47.64,0,0,1-8.88,15.32q-5.64,6.42-16.32,14a113.92,113.92,0,0,1-24.48,14,67.54,67.54,0,0,1-25.51,4.78h-171.49q-23.49-3.65-35.7-17.58-7.81-9-10.11-17.24t1.8-19.57l38-104.47a68.64,68.64,0,0,1,14.09-23.51q9.1-9.79,25.59-18.61a120.62,120.62,0,0,1,58.57-15Zm-252.11,158.86H-24956l9.38-25.76h-117.73Z" transform="translate(25165 6360.92)"/><polygon class="cls-1" points="386.46 216 301.93 216 320.8 164.15 404.89 164.15 386.46 216"/><polygon class="cls-1" points="442.22 216 493.31 75.63 461.44 75.63 471.78 47.23 572.62 0 608.47 0 529.85 216 442.22 216"/><polygon class="cls-1" points="603.59 216 682.2 0 776.03 0 718.21 158.86 865.14 158.86 844.34 216 603.59 216"/><polygon class="cls-1" points="1398.87 0 1320.26 216 1232.63 216 1264.48 128.48 1154.73 128.48 1122.87 216 1035.24 216 1113.86 0 1201.49 0 1171.68 81.91 1281.43 81.91 1311.24 0 1398.87 0"/><polygon class="cls-1" points="1426.31 0 1676.37 0 1655.57 57.14 1493.14 57.14 1482.93 85.21 1645.35 85.21 1628.76 130.79 1466.34 130.79 1456.12 158.86 1618.54 158.86 1597.75 216 1347.7 216 1426.31 0"/><polygon class="cls-1" points="1825.51 0 1818.97 145.65 1918.01 0 2040.6 0 1961.98 216 1874.35 216 1929.41 64.73 1818.59 216 1766.37 216 1767.43 64.73 1712.37 216 1624.74 216 1703.36 0 1825.51 0"/><polygon class="cls-1" points="2068.92 0 2156.55 0 2077.93 216 1990.31 216 2068.92 0"/></g></g></svg>