<svg xmlns="http://www.w3.org/2000/svg" viewBox="0 0 1207.04 180"><defs><style>.cls-1{fill:#121212;fill-rule:evenodd;}</style></defs><title>CHARGERO_with_Hash</title><g id="Layer_2" data-name="Layer 2"><g id="Layer_1-2" data-name="Layer 1"><path class="cls-1" d="M926.24,39.57q23.32-.48,46.64.68a44.32,44.32,0,0,1,14.26,3.26,20.86,20.86,0,0,1,13.29,14.05,27.89,27.89,0,0,1,.21,14.17,155.81,155.81,0,0,1-6.4,19c-3.84,9.74-10.43,16.95-20.58,20.56l8.07,12.2a10.8,10.8,0,0,1-9,16.76h-41.4a10.8,10.8,0,0,1-8.94-4.76l-10.14-15H891.77l-4.54,12.61a10.79,10.79,0,0,1-10.16,7.15H840.59L813,172.69c-3.43,4-2.95,7.31,1.09,7.31H943.23c4,0,10.09-3.27,13.53-7.31L1097.42,7.31c3.43-4,2.94-7.31-1.1-7.31H967.2c-4,0-10.09,3.27-13.52,7.31Z"/><path class="cls-1" d="M937.49,81.38l1.57-4.5H907l-1.92,5.45h23.4A35.3,35.3,0,0,0,937.49,81.38Z"/><path class="cls-1" d="M1203.66,0h-64.43c-4,0-10.1,3.27-13.53,7.31L985,172.69c-3.43,4-2.94,7.31,1.09,7.31h64.44c4,0,10.09-3.27,13.53-7.31L1204.75,7.31C1208.19,3.27,1207.7,0,1203.66,0Z"/><path class="cls-1" d="M990,60.26c1.61,6-.26,11.53-2.1,16.57-2.07,5.63-4.18,13.09-8.35,18s-11.43,8.52-24.11,8.53l17.31,26.17h-41.4L918,109.72H884.17l-7.1,19.76H839.49l27.58-79h54.85c17.23,0,37.22-.39,50.32.55C979.65,51.56,988.36,54.29,990,60.26ZM947.2,86.33,952,72.63c1.91-5.76-3.9-6.57-9.72-6.54H899.39l-9.56,27.05h38.25C932.49,93.14,944.52,93.3,947.2,86.33Z"/><path class="cls-1" d="M427.43,64C427,49.37,405.6,50.57,382.09,50.57h-35.9c-17.38.59-34.41-1.31-44.3,9.88-2.91,3.29-3.95,7.2-5.52,11.67-8.19,23.19-19,54.14-20.2,57.45h37.25l7.08-19.75h54.9l-7,19.75h37.46l17.3-49.1C424.92,75,427.76,69.5,427.43,64Zm-46.2,29.19H326.37l7.35-20.79c1.89-5.3,7.74-6.22,27-6.22,21.93,0,30.05-.26,27.77,6.22Z"/><path class="cls-1" d="M715.1,50.48l-5.49,15.46H620a3.79,3.79,0,0,0-3.64,2.59l-13.68,39.38a3.85,3.85,0,0,0,3.64,5.12h46.54a3.77,3.77,0,0,0,3.6-2.49l4.69-12.42H624.31l5.18-15.66H704L694.88,108c-2.31,6.82-4.84,17.87-11.21,20.11-6.06,2.14-27.21,1.4-34.81,1.4H586c-10.66,0-21.78-1.94-23.34-8.58-1.08-4.61,1.59-10.91,3.19-15.61L576,76.73c2.94-8.35,4.52-15.52,10.52-20.07,4.84-3.67,12.67-5.76,18.85-6.18H715.1Z"/><polygon class="cls-1" points="855.59 50.48 850.22 66.09 757.63 66.09 751.79 82.39 844.38 82.39 839 97.79 746.3 97.79 740.74 113.63 833.41 113.63 828.02 129.47 698.13 129.47 725.89 50.48 855.59 50.48"/><polygon class="cls-1" points="239.45 98.06 228.37 129.57 265.35 129.57 293.11 50.57 256.15 50.57 244.94 82.26 189.11 82.26 200.38 50.57 163.21 50.57 135.44 129.57 172.61 129.57 183.62 98.06 239.45 98.06"/><path class="cls-1" d="M152.67,50.45l-5.49,15.46H59.36a5.74,5.74,0,0,0-5.64,3.61L40.25,107.88A3.86,3.86,0,0,0,43.89,113h87.23l-5.77,16.43H23.59c-10.66,0-21.78-1.93-23.34-8.57C-.83,116.26,1.84,110,3.44,105.25L13.52,76.7C16.46,68.35,18,61.18,24,56.63c4.84-3.67,12.67-5.76,18.85-6.18H152.67Z"/><path class="cls-1" d="M567.6,60.38c1.61,6-.26,11.53-2.1,16.57-2.07,5.64-4.18,13.09-8.35,18s-11.43,8.52-24.11,8.54l17.31,26.16H509l-13.34-19.75H461.8l-7.1,19.75H417.12l27.58-79h54.85c17.24,0,37.22-.38,50.32.56C557.28,51.69,566,54.42,567.6,60.38ZM524.83,86.46l4.76-13.7c1.91-5.77-3.9-6.57-9.72-6.54H477l-9.56,27h38.25C510.12,93.26,522.15,93.43,524.83,86.46Z"/></g></g></svg>