<svg xmlns="http://www.w3.org/2000/svg" viewBox="0 0 1851 147.99"><defs><style>.cls-1{fill:#121212;fill-rule:evenodd;}</style></defs><title>Charger Logo</title><g id="Layer_2"><g id="Layer_1-2"><path class="cls-1" d="M1849.85,18.42c3,11.15-.48,21.55-3.93,31-3.87,10.53-7.81,24.46-15.6,33.55s-21.36,15.91-45,15.94l32.35,48.89h-77.36l-24.94-36.91h-63.16l-13.28,36.91h-70.21L1620.19.15h102.49c32.22,0,69.56-.73,94,1C1830.57,2.17,1846.84,7.28,1849.85,18.42Zm-79.92,48.72,8.9-25.59c3.55-10.78-7.29-12.29-18.17-12.23h-80.08l-17.86,50.54h71.48C1742.45,79.86,1764.91,80.17,1769.93,67.14Z"/><path class="cls-1" d="M798.69,25.48C797.83-1.93,757.89.32,714,.32h-67.1c-32.47,1.09-64.3-2.44-82.78,18.45-5.43,6.15-7.37,13.46-10.31,21.81C538.49,83.91,518.26,141.74,516,147.93h69.62L598.88,111H701.47l-13.17,36.9h70l32.34-91.75C794,46,799.31,35.69,798.69,25.48ZM712.36,80H609.85l13.74-38.84c3.53-9.91,14.45-11.62,50.5-11.62,41,0,56.15-.49,51.9,11.62Z"/><path class="cls-1" d="M1336.23.15,1326,29H1158.52a7.08,7.08,0,0,0-6.8,4.84l-25.56,73.59A7.2,7.2,0,0,0,1133,117h87a7.06,7.06,0,0,0,6.73-4.65l8.76-23.21h-68.85l9.69-29.26h139.18l-17,47.66c-4.31,12.75-9,33.4-21,37.59-11.31,4-50.84,2.6-65,2.6H1095c-19.92,0-40.7-3.61-43.62-16-2-8.62,3-20.39,6-29.18l18.83-53.35c5.49-15.61,8.44-29,19.66-37.51C1104.92,4.84,1119.54.94,1131.1.15h205.13Z"/><polygon class="cls-1" points="1598.76 0.15 1588.7 29.32 1415.69 29.32 1404.79 59.78 1577.81 59.78 1567.75 88.55 1394.53 88.55 1384.14 118.15 1557.3 118.15 1547.23 147.76 1304.51 147.76 1356.39 0.15 1598.76 0.15"/><polygon class="cls-1" points="447.43 89.06 426.73 147.93 495.83 147.93 547.71 0.32 478.64 0.32 457.69 59.53 353.37 59.53 374.44 0.32 304.97 0.32 253.09 147.93 322.53 147.93 343.11 89.06 447.43 89.06"/><path class="cls-1" d="M285.28.09,275,29H110.92a10.74,10.74,0,0,0-10.54,6.75L75.21,107.41A7.2,7.2,0,0,0,82,117H245l-10.79,30.7-190.13,0c-19.93,0-40.7-3.61-43.62-16-2-8.62,3-20.39,6-29.18L25.26,49.15c5.49-15.61,8.44-29,19.66-37.51C54,4.78,68.59.88,80.15.09H285.28Z"/><path class="cls-1" d="M1060.62,18.65c3,11.15-.49,21.55-3.93,31-3.88,10.54-7.82,24.46-15.6,33.55s-21.37,15.91-45.06,16L1028.38,148H951l-24.94-36.9H862.92L849.65,148H779.43L831,.38H933.45c32.21,0,69.56-.72,94,1C1041.33,2.4,1057.6,7.51,1060.62,18.65ZM980.69,67.38l8.9-25.6c3.56-10.78-7.28-12.28-18.17-12.22H891.35L873.48,80.09H945C953.21,80.09,975.68,80.4,980.69,67.38Z"/></g></g></svg>