<svg xmlns="http://www.w3.org/2000/svg" viewBox="0 0 1575.71 212.76"><defs><style>.cls-1{fill:#121212;fill-rule:evenodd;}</style></defs><title>Daytona-RT-Logo</title><g id="Layer_2" data-name="Layer 2"><g id="Layer_1-2" data-name="Layer 1"><path class="cls-1" d="M133.73,55.49,69.2,156.91c.61,0,1.52,0,2.71.09s2,.09,2.55.09a25.25,25.25,0,0,0,8.8-1.17,10.26,10.26,0,0,0,4.92-4.22l2.45-3.86L143.84,64.2q3.84-6,2.54-7.37c-.86-.9-3.49-1.34-7.89-1.34Zm22.74-23.93q41.55,0,48.31,5.44t-5.87,25.31l-55.84,87.77q-12.93,20.32-26.69,25.63T61.69,181H0L95.09,31.56Z"/><path class="cls-1" d="M229.18,127.27h16.37l28.54-57.61ZM138.11,181,265.76,31.56h65.15L268.7,181H217.93l14.61-29.45H211L188.11,181Z"/><polygon class="cls-1" points="295 181.02 332.68 121.79 354.7 31.56 405.37 31.56 381.85 89.17 431.33 31.56 482.47 31.56 389.05 121.79 351.37 181.02 295 181.02"/><polygon class="cls-1" points="416.82 181.02 496.22 56.22 468.66 56.22 484.35 31.56 593.02 31.56 577.33 56.22 549.77 56.22 470.37 181.02 416.82 181.02"/><path class="cls-1" d="M641.61,62.49,586,149.91q-2.68,4.23-2,5.89c.48,1.1,2.15,1.66,5,1.66a16.48,16.48,0,0,0,6.6-1.21,9,9,0,0,0,4.14-3.37l1.89-3,55.62-87.42q2.75-4.32,1.88-5.85c-.59-1-2.56-1.52-5.94-1.52a13.53,13.53,0,0,0-5.91,1.21,9.12,9.12,0,0,0-3.91,3.37Zm-53.29-.9q13.27-20.88,26.9-25.92t54.18-5q41.49,0,48.31,5.39t-6,25.56l-56.77,89.22q-13.11,20.61-26.92,26t-54.69,5.35q-41.34,0-48-5.48t6.25-25.83Z"/><polygon class="cls-1" points="657.33 181.02 752.42 31.56 802.43 31.56 780.43 108.13 829.15 31.56 875.81 31.56 780.72 181.02 730.54 181.02 750.28 107.77 703.68 181.02 657.33 181.02"/><path class="cls-1" d="M888.08,127.27h16.36L933,69.66ZM797,181,924.66,31.56H989.8L927.59,181H876.83l14.6-29.45H869.87L847,181Z"/><path class="cls-1" d="M1047.77,101.86l63.32.07a2.92,2.92,0,0,0,2.41-1.2l24.12-32.26a2.89,2.89,0,0,1,2.4-1.21h22.36a2.92,2.92,0,0,1,2.4,1.2L1185.47,96a14.25,14.25,0,0,0,11.75,5.87h64.2a2.92,2.92,0,0,0,2.43-1.24l7.54-10.43a1.16,1.16,0,0,0-.94-1.84h-21.94a9.41,9.41,0,0,1-7.81-4l-11.2-15.28a1.19,1.19,0,0,1,.93-1.85h23.39a23.17,23.17,0,0,0,19.1-9.52l25-33.26c7.75-10.73.44-17.34-7.16-17.34l-172.92-.28a2.9,2.9,0,0,0-2.41,1.21L1046.84,100A1.17,1.17,0,0,0,1047.77,101.86Zm121.65-75.74L1153,48a1.16,1.16,0,0,0,.93,1.86l61.35-.12a12.72,12.72,0,0,0,10.49-5.27l5.08-6.79a8,8,0,0,0-6.38-12.74h-52.68A2.93,2.93,0,0,0,1169.42,26.12Z"/><path class="cls-1" d="M1369,114.31l-15.11,20.19a1.27,1.27,0,0,0,1,2h71.43a1.31,1.31,0,0,1,1,2l-48,64.31a1.27,1.27,0,0,0,1,2h63a2.92,2.92,0,0,0,2.43-1.22L1495,137.76a2.93,2.93,0,0,1,2.43-1.23h60.24a3,3,0,0,0,2.42-1.19l15.35-20.21a1.27,1.27,0,0,0-1-2h-203A3,3,0,0,0,1369,114.31Z"/><path class="cls-1" d="M1448.92,0h-26.79a2.4,2.4,0,0,0-1.66.63l-236.93,210a1.2,1.2,0,0,0,.8,2.09h26.79a2.44,2.44,0,0,0,1.66-.63l236.92-210A1.2,1.2,0,0,0,1448.92,0Z"/></g></g></svg>