<svg xmlns="http://www.w3.org/2000/svg" viewBox="0 0 898.38 361.26"><defs><style>.cls-1{fill:#121212;fill-rule:evenodd;}</style></defs><title>RT-Logo-Solid</title><g id="Layer_2"><g id="Layer_1-2"><path class="cls-1" d="M2,173l107.51.11a5,5,0,0,0,4.09-2l41-54.78a4.92,4.92,0,0,1,4.08-2h38a5,5,0,0,1,4.07,2L235.78,163a24.19,24.19,0,0,0,20,10h109a5,5,0,0,0,4.13-2.11l12.8-17.7a2,2,0,0,0-1.6-3.13H342.82a15.94,15.94,0,0,1-13.26-6.73l-19-25.93a2,2,0,0,1,1.6-3.14h39.71A39.35,39.35,0,0,0,384.27,98L426.8,41.56c13.16-18.22.74-29.43-12.16-29.44L121,11.65a4.92,4.92,0,0,0-4.09,2C115.42,15.72.4,169.8.4,169.8A2,2,0,0,0,2,173ZM208.53,44.36,180.69,81.48a2,2,0,0,0,1.58,3.16l104.18-.2a21.59,21.59,0,0,0,17.81-8.94L312.88,64A13.53,13.53,0,0,0,302,42.33H212.61A5,5,0,0,0,208.53,44.36Z"/><path class="cls-1" d="M547.47,194.09l-25.66,34.29a2.16,2.16,0,0,0,1.73,3.45H644.83a2.21,2.21,0,0,1,1.73,3.45l-81.45,109.2a2.16,2.16,0,0,0,1.74,3.45h106.9a5,5,0,0,0,4.13-2.08l83.48-112a5,5,0,0,1,4.13-2.07H867.77a5,5,0,0,0,4.11-2l26.06-34.3a2.15,2.15,0,0,0-1.72-3.46H551.59A5,5,0,0,0,547.47,194.09Z"/><path class="cls-1" d="M683.09,0H637.61a4.07,4.07,0,0,0-2.82,1.07L232.51,357.7a2,2,0,0,0,1.34,3.56h45.49a4.12,4.12,0,0,0,2.82-1.07L684.44,3.55A2,2,0,0,0,683.09,0Z"/></g></g></svg>