<svg xmlns="http://www.w3.org/2000/svg" viewBox="0 0 1415.68 249.46"><title>SXT-Logo</title><g id="Layer_2" data-name="Layer 2"><g id="Layer_1-2" data-name="Layer 1"><polygon points="614.49 137.78 406.35 249.46 474.98 249.45 631.44 166.46 680.5 249.45 818.55 249.46 736.52 110.71 945.23 0 871.27 0.01 719.29 81.56 671.08 0.01 533.03 0 614.49 137.78"/><polygon points="1116.24 43.28 1011.82 248.91 1129.32 248.91 1233.74 43.28 1393.98 43.28 1415.68 0.55 977.71 0.55 956.01 43.28 1116.24 43.28"/><path d="M-17850.79-1597.28h-280.84l-21.7,42.72h338.67c19.45,0,43.22-15.76,53.09-35.21l44.25-87.14c9.88-19.44,2.12-35.21-17.33-35.21h-250.53l24.41-48.07H-17675l21.7-42.73H-17992c-19.44,0-43.19,15.76-53.06,35.19l-44.27,87.17c-9.87,19.44-2.11,35.21,17.33,35.21h245.64Z" transform="translate(18153.33 1803.47)"/></g></g></svg>