<svg xmlns="http://www.w3.org/2000/svg" viewBox="0 0 720.14 144.39"><defs><style>.cls-1{fill-rule:evenodd;}</style></defs><g id="Layer_2" data-name="Layer 2"><g id="Layer_1-2" data-name="Layer 1"><path class="cls-1" d="M287.75,35.81V90.59a2.52,2.52,0,0,0,2.52,2.52H344a2.52,2.52,0,0,0,2.52-2.52V2.52A2.52,2.52,0,0,0,344,0H295.7a2.58,2.58,0,0,0-1.32.37l-18.7,11.46a2.55,2.55,0,0,0-1.2,2.15V33.29A2.52,2.52,0,0,0,277,35.81Z"/><path class="cls-1" d="M469.64,55.24v5.61l-4.71,3.82H358.44a2.52,2.52,0,0,0-2.52,2.52v23.4a2.52,2.52,0,0,0,2.52,2.52H491.15a2.56,2.56,0,0,0,1.15-.27l32-16.29a2.53,2.53,0,0,0,1.38-2.24V34a2.52,2.52,0,0,0-2.52-2.52H412.23V24.83h110.9a2.52,2.52,0,0,0,2.52-2.52V2.52A2.52,2.52,0,0,0,523.13,0H358.44a2.52,2.52,0,0,0-2.52,2.52v50.2a2.52,2.52,0,0,0,2.52,2.52Z"/><path class="cls-1" d="M104.58,73.21v50a2.52,2.52,0,0,1-2.52,2.52H45.35a2.52,2.52,0,0,1-2.52-2.52V33.89a2.53,2.53,0,0,1,1.75-2.4L83.79,18.82a2.53,2.53,0,0,1,.77-.12H211.85a2.52,2.52,0,0,1,2.52,2.52V36.91a2.52,2.52,0,0,1-2.52,2.52H104.58V53.09H211.85a2.52,2.52,0,0,1,2.52,2.52V70.69a2.52,2.52,0,0,1-2.52,2.52Zm41.62,19.9H254.08a2.52,2.52,0,0,0,2.52-2.52V2.52A2.52,2.52,0,0,0,254.08,0H51.38a2.52,2.52,0,0,0-.9.17L1.62,18.87A2.51,2.51,0,0,0,0,21.22V141.87a2.52,2.52,0,0,0,2.52,2.52H143.68a2.52,2.52,0,0,0,2.52-2.52Z"/><path class="cls-1" d="M47.87,120.65V35.72L85,23.74H209.33V34.39H102.06a2.51,2.51,0,0,0-2.52,2.52v18.7a2.52,2.52,0,0,0,2.52,2.52H209.33v10H102.06a2.52,2.52,0,0,0-2.52,2.52v50Z"/><path class="cls-1" d="M593.58,27.31a2.52,2.52,0,0,1,2.52-2.52h65a2.52,2.52,0,0,1,2.52,2.52V64.72a2.52,2.52,0,0,1-2.52,2.52h-65a2.52,2.52,0,0,1-2.52-2.52ZM538.24,2.53l.24,70.38a2.52,2.52,0,0,0,1.35,2.22l33.71,17.7a2.52,2.52,0,0,0,1.17.28H717.62a2.52,2.52,0,0,0,2.52-2.52V19.13a2.52,2.52,0,0,0-1.4-2.25L685.25.26c-.7-.35-143,0-144.49,0A2.31,2.31,0,0,0,538.24,2.53Z"/></g></g></svg>