<svg xmlns="http://www.w3.org/2000/svg" viewBox="0 0 1179.32 161.76"><defs><style>.cls-1{fill-rule:evenodd;}</style></defs><g id="Layer_2" data-name="Layer 2"><g id="Layer_1-2" data-name="Layer 1"><path class="cls-1" d="M62.33,28.72V39.81H127A2,2,0,0,0,129.16,38V30.49A2,2,0,0,0,127,28.72ZM272.77,48H308.3L290.57,29.5ZM440.35,28.72V39.81h63.5A2,2,0,0,0,506,38V30.49a2,2,0,0,0-2.1-1.77ZM785.26,83a3.66,3.66,0,0,1-3.65-3.65V29.8a3.67,3.67,0,0,1,3.65-3.66h83.49a3.67,3.67,0,0,1,3.66,3.66V79.37A3.67,3.67,0,0,1,868.75,83ZM939.42,0V109.16h57.12V70.51c42,.25,59.68,21.41,67.43,51,54.58,13.33,77.32,23.68,113.67,40a1.27,1.27,0,0,0,1.43-1.92c-27.42-31.43-58.51-61.34-90.28-89.15,18.77,0,37-4.62,37-19.2V19.94c-1.23-15-7.49-19.94-22.51-19.94Zm56,41.18V28h65.73V41.18Zm-556.94,68V71.71h85.1c22.45,0,47.81-5.59,47.81-22.41V25h46.31v84.14h59.38V25.77h78.43V0H377.73V51.84L323.28,0H257.35L173.68,84.17,160.36,73.39c-4.51-7,1.08-4.19,8.22-5.57,18.49.11,29.22-11.77,29.18-21.68V20.87C198.51,8.6,189.56,0,179.38,0H0V109.16H61.25V72.83h25c11.85,5.53,22.41,12.29,31,21a83.59,83.59,0,0,1,19.08,30.57c40.74,6.94,77.93,17.39,107.82,36.2,3.24,2,8.52,1.85,3.34-3.79l-38.7-42.12,33.45-33.41h96.38l28.15,27.91Zm473.26,0a19.54,19.54,0,0,0,18.81-19.48V19.49A19.55,19.55,0,0,0,911.1,0H759.61V29.83H723.43V89.67a19.55,19.55,0,0,0,19.49,19.49Z"/></g></g></svg>