<svg xmlns="http://www.w3.org/2000/svg" viewBox="0 0 984.46 182.47"><defs><style>.cls-1{fill-rule:evenodd;}</style></defs><g id="Layer_2" data-name="Layer 2"><g id="Layer_1-2" data-name="Layer 1"><path class="cls-1" d="M153.55,11.57H34.24c-2.9,8.84,5,8,4.81,15.51-.11,3.5,3,5.42,1.66,6.21-4.6,2.77-6.57-5.18-7.4-6-7.27-6.87-2.57-4.56-6.71-9.85-1.8-2.29-6.41-3.62-10.28-5.9H11.57V98H50.11c0-6-2.41-5.29-2.41-10.22,0-6.55-13.19-9.51-4-12.09a4,4,0,0,1,3.33.63c5.42,5.47,9.7,13.44,9.07,21.54,0,0,0,.1,0,.14h3.93V69.21H79.86c9.37,4.38,17.69,9.77,24.5,16.61,4.1,1.67,8.22,2.4,9.7-3.75,1.69-7,16.48-4.59,3.38,2.41-1.47.79-6.66,11.4,6.57,10.83,2.12-.09-1.38,2.06,4.07,4.76.44.22,2.23,3.21-3.11,3.49a25.93,25.93,0,0,0-7.56,1.24q1.11,2.51,2.06,5.21c32.24,5.49,61,14.44,83.95,29.26,4.8,2.37,8.71,1.84,3-5l-29.56-31.93c-1.77-4.35,1.42-4.35,5.47-5.7l9.27-9.12c-7.8-6.89-11.7,2.36-11.28-7.63,0-.66-1.63-7.64-1.72-7.66-8.16-1.6,2-8.42-2.21-15.22a34.74,34.74,0,0,1-2.26-4L149,78.19,138.5,69.66c-3.58-5.52.85-3.32,6.5-4.41,14.64.08,23.13-9.32,23.1-17.16v-20C168.69,18.38,161.61,11.57,153.55,11.57ZM36.85,65.64l-1.29-.92.69,0c11.82-1.14.46,10.6,2.12,6.15C39.49,67.89,35.17,71.65,36.85,65.64ZM32.62,55l-.92-.37c.31-.11,1.31-.51,1.61-.32C45.38,62.05,25,61.32,32.62,55ZM198.53,80.64c-3.86-1.66-6.81-3.83-5-5,6.77-4.39-6.09-.84-6.32-6.28-.26-6,24.95,3.52,25,3.61a14.11,14.11,0,0,0,2.14,2.89h-11Zm26.75-4.76a24.78,24.78,0,0,0-1.76-3.49c-1.06-1.78-25.92-8.31-28.44-8.25-13.86.37-9.5-2.76-12.11-6.82-2.2-3.42-.76-10.23-1.18-12.08l33.47-33.67h52.18l43.11,41V14.33c3,2.5,7.1,4.28,7.1,13.4,0,11.82,11,4.7,10.48,15.45-.23,5,5.12.55,2,5.49-2.32,3.65,7.14,4.72,5.24,9.52-.72,1.82,3.81.54,3.81,7.91,0,8.4-2.44,3.79,1.38,9.12,3.16,4.41-4.78,3.14,6.09,16,1.58,1.86.74,4.16,1.67,6.8H301.86L279.58,75.88ZM358.66,92.31v-24H426c17.68,1.71,37-7.5,37.84-17.74V31.37h36.65v3.76c4.39,1.68,8.9,7.21,10.36,9.75,0,0,8.72,5.13,6.16,11.91-.46,1.23-6.43,1.77-6.83-4.44-.25-4-6.33-1.64-9.69-2.67V98h7.84a16,16,0,0,0,1.83-8.15c-.23-6.64,5.62,3.29,11.38-.78,4.37-3.09-2,5.44,5.35,5.44,8.64,0,2.33-.23,8.1-2.48,1.34-.52-3.83-12.64-6.17-13.56-4-1.59,2-5-4.94-9.51-4.79-3.14-.42-4.34,6.14-.83,6.35,3.39-2,1.11,6.34,7.75,2,1.57,1.48,18.63,9,7,.88-1.35,1.43-1.91,2.12-1.66V32h62.08V11.57H371.45a8,8,0,0,0-.77,4.83c2.3,10.7-6.08,11-7.7,8-3.06-5.58-4.24,1-6.21-3.29-4.31-9.37-.21-5.36-9-7.44-19.38-4.58-4,5-8,7.92-3.12,2.31-.86,7.15-2.28,8.92-5.5,6.87,2.95,12,2.83,14.58-.34,7.27,4.72,16.36,5,22.66C346,85.94,353.71,84.89,358.66,92.31Zm-319-53c1.35-1.39,2.88.65,3.31.86,6.65,3.18,1.65,8.45-3.16,5.9C33.18,42.56,38.55,40.53,39.7,39.35ZM331.43,78.86c-4.39,7.36,9.69,3.66,2.63-.43C333.57,78.15,331.87,78.1,331.43,78.86Zm-8.54,5.56c0,.06-6.5,7.43,3.61,4.27C330,87.6,323.7,82.07,322.89,84.42ZM227.46,49.59h28.13l-14-14.67ZM60.91,34.31H112.1a1.57,1.57,0,0,1,1.7,1.39v6a1.57,1.57,0,0,1-1.7,1.4H60.91Zm299.2,0h50.25A1.55,1.55,0,0,1,412,35.7v6a1.56,1.56,0,0,1-1.67,1.4H360.11Zm372.6-22.74H685.86c2.31,4.88,3,10.47,7.73,10.62,3,.1,18.34,5.08,8.89,8.35a6.36,6.36,0,0,0-.88,3,3,3,0,0,1,.43,1,2,2,0,0,0,1.19.57c4.48.8,3.86,2.14,6.41,5.1,13.16,15.23-.1,18.68,7.88,23.72,10.34,6.53,5.85,11.7,9.25,15.79,6.09,7.35,7.19,13.82,6.48,18.17a15.47,15.47,0,0,0,14.89-15.41V27A15.47,15.47,0,0,0,732.71,11.57Zm-58.13,0c.87,5.08,5.59,8.25,3.17,11.2,0,0-1.89,6,0,9.49H633.11a2.9,2.9,0,0,0-2.89,2.89V74.39a2.9,2.9,0,0,0,2.89,2.89h66.08a2.9,2.9,0,0,0,2.89-2.89V62.2c3.37,2.55,9.11,7.91,10.19,10.45,1.4,3.27,15.2,12.63,16.11,25.32H599.59a15.48,15.48,0,0,1-15.43-15.42V35.18h28.65V11.57Zm80.54,0v1.81c1.7,4.45,2,8.64,5.34,8.56,4.44-.11,5.24.73,6.77.85,6.34.5,6.19-6.26,8.26-11.22Zm0,19.38c.71.7,2,1,5.59,1.17,3,.15,3.5,6.74,10.2,9.48,9.51,3.88,14.94,20.67,14-3-.54-14.24.64-5,2.49-14.46a45.34,45.34,0,0,0,.49-12.55h96.9c11.89,0,16.84,3.9,17.82,15.78V52.18c-4,10.82-14.42,15.23-29.28,15.2,26.26,23,51.94,47.79,74.33,73.88-31.13-10.87-62.84-22.61-94-33.48-6.14-23.46-20.1-40.21-53.37-40.4V77.74a29.77,29.77,0,0,0-2.6-2.59C794,72,795.51,56.3,788.22,58.35c-4.64,13.41,1.46,12.24,1.68,15.63.51,7.78,5.36,14.08,10.44,19.63V98H755.12Zm44.36,13.22h52V33.7h-52ZM667,21.39c-7.12,0,3.83,10,3.47,1.38C670.42,21.58,667.39,21.39,667,21.39Zm15.53,5c.1-.06.47.34.72.17,6.43-4.49,15.27,8.28,2.18,7.26C679.35,33.37,684.49,25.24,682.52,26.42Zm66.82-12.56V5.78H884.81c14.81,0,22.35,6.07,23.58,21.1l0,.24v26.1l-.36,1C904.28,64.36,896.3,69.5,887,71.73c22.95,20.6,45,42.39,65.1,65.77l14,16.31-20.29-7.09c-31.4-11-62.59-22.52-94-33.48l-2.91-1-.78-3C842,85.83,828.72,75,806.12,73.38v30.38H749.34V95.68a21.2,21.2,0,0,1-16.63,8.08H599.59a21.26,21.26,0,0,1-21.21-21.21V37.75H553.3v66H494.73V37.16H469.64V50.83l0,.24c-.66,7.89-7.48,13.7-14,17.16a55.4,55.4,0,0,1-25.41,6.09c-1.48,0-3-.08-4.44-.21H364.44v29.65h-65L277.2,81.66H205.74l-20.34,20-1,.33,26.31,28.41.09.11c3,3.57,6.29,9,2.59,13.31-3.28,3.85-8.64,2.54-12.53.62l-.31-.15-.28-.18c-24.09-15.58-53.76-23.64-81.78-28.42l-3.37-.57L114,111.91c-6.17-17.73-19-29-35.45-36.91H65.83v28.76h-60v-98H153.55c12.24,0,21,10.5,20.34,22.47V45l39-39.21h56.9l35,33.33V5.78h428A21.23,21.23,0,0,1,749.34,13.86ZM241,43.81h1l-.5-.53ZM636,71.5h60.3V38.05H636ZM743.55,2.28V0H884.81c17.83,0,27.87,8.35,29.35,26.41l0,.47V54.26l-.72,1.94a31.55,31.55,0,0,1-15.57,17.64,699.51,699.51,0,0,1,58.55,59.89l28,32.63-40.59-14.17c-31.4-11-62.58-22.53-94-33.49l-5.82-2-1.56-6c-4.89-18.7-14.35-28-30.6-30.81v29.65H743.55v-2.28a26.71,26.71,0,0,1-10.84,2.28H599.59a27,27,0,0,1-27-27v-39H559.08v66H488.94V42.94H475.43v8.13l0,.48c-1.66,19.76-28.52,28.61-45.22,28.55-1.56,0-3.12-.07-4.68-.2H370.23v29.64H297.1L274.82,87.45H208.11l-15.33,15.08,22.28,24.06.18.22c4.93,5.88,8.38,13.94,2.56,20.78-5.18,6.09-13.11,5.2-19.49,2.06l-.6-.3-.57-.36c-23.39-15.13-52.41-22.94-79.62-27.58l-6.73-1.15-2.25-6.45C103,98,91.72,88,77.22,80.78h-5.6v28.76H0V0H153.55C169,0,180.38,13.2,179.67,28.39V31L210.45,0h61.62L299,25.62V0H732.71A26.71,26.71,0,0,1,743.55,2.28ZM641.79,65.71h48.72V43.83H641.79ZM769.32,180.79l13.41-42.5H764.12l5.3-16.8-46.81,59.3H692.75l-15.44-53.68-10.86,11.37a37.31,37.31,0,0,0-8.76-3.69,34.75,34.75,0,0,0-9.26-1.27,17.36,17.36,0,0,0-5.8.8,3.93,3.93,0,0,0-2.69,2.22q-.86,2.67,12.76,4.7c1.44.23,2.57.39,3.35.51q9.39,1.49,13.61,6c2.81,3,3.52,6.67,2.13,10.95q-3.39,10.5-17,17.13t-32,6.64a92.54,92.54,0,0,1-18.23-1.77,86.44,86.44,0,0,1-17.08-5.3l16.69-17.68a61.76,61.76,0,0,0,11.55,5,35.83,35.83,0,0,0,10.3,1.58,16.43,16.43,0,0,0,5.83-.89,4.19,4.19,0,0,0,2.81-2.4c.56-1.75-2.37-3.07-8.82-4l-4.86-.74q-10.17-1.73-14.41-6.12t-2.13-11q3.3-10.18,16.39-16.57t31-6.39a83.07,83.07,0,0,1,15.71,1.43,76.46,76.46,0,0,1,7.53,1.82l-.52-1.83h34.73L715,153.81l23.35-36.19H841.32l-6.52,20.67H816.18l-13.41,42.5Z"/></g></g></svg>