<svg xmlns="http://www.w3.org/2000/svg" viewBox="0 0 936.11 129.69"><defs><style>.cls-1{fill-rule:evenodd;}</style></defs><g id="Layer_2" data-name="Layer 2"><g id="Layer_1-2" data-name="Layer 1"><path class="cls-1" d="M142,0H22.67c-2.9,8.84,5,8,4.82,15.51-.12,3.51,3,5.42,1.65,6.21-4.6,2.77-6.57-5.18-7.4-6C14.47,8.88,19.17,11.19,15,5.91,13.23,3.61,8.62,2.28,4.75,0H0V86.4H38.54c0-6-2.41-5.29-2.41-10.22,0-6.55-13.19-9.51-4-12.09a4,4,0,0,1,3.33.63c5.42,5.48,9.7,13.44,9.07,21.55a.57.57,0,0,0,0,.13h3.92V57.64H68.29C77.66,62,86,67.41,92.79,74.25c4.1,1.67,8.22,2.4,9.7-3.75,1.69-7,16.48-4.59,3.38,2.41-1.47.79-6.66,11.4,6.57,10.83,2.12-.09-1.38,2.06,4.07,4.76.44.22,2.23,3.21-3.1,3.49a25.94,25.94,0,0,0-7.57,1.24c.75,1.68,1.43,3.41,2.06,5.21,32.24,5.49,61,14.44,83.95,29.26,4.81,2.37,8.71,1.84,3-5L165.25,90.75c-1.77-4.35,1.43-4.35,5.47-5.7L180,75.93c-7.8-6.89-11.7,2.36-11.28-7.63,0-.66-1.63-7.64-1.72-7.66-8.16-1.6,2-8.42-2.21-15.21a36.31,36.31,0,0,1-2.26-4l-25.05,25.2-10.54-8.53c-3.57-5.52.85-3.32,6.5-4.41,14.64.08,23.13-9.31,23.1-17.16v-20C157.12,6.81,150,0,142,0ZM25.28,54.07,24,53.16h.69c11.82-1.14.46,10.6,2.12,6.15C27.92,56.32,23.6,60.08,25.28,54.07ZM21.05,43.41,20.13,43c.31-.11,1.31-.51,1.61-.32C33.81,50.48,13.38,49.75,21.05,43.41ZM187,69.07c-3.86-1.66-6.81-3.83-5-5,6.77-4.39-6.09-.84-6.32-6.28-.26-6,24.95,3.52,25,3.61a14.11,14.11,0,0,0,2.14,2.89h-11Zm26.75-4.76A24.78,24.78,0,0,0,212,60.82C210.89,59,186,52.51,183.51,52.57c-13.86.37-9.5-2.75-12.11-6.82-2.2-3.42-.76-10.23-1.18-12.08L203.69,0h52.18L299,41V2.76c3,2.5,7.1,4.28,7.1,13.4,0,11.83,11,4.7,10.48,15.45-.23,5,5.12.56,2,5.49-2.32,3.65,7.14,4.72,5.24,9.52-.72,1.82,3.81.54,3.81,7.91,0,8.4-2.44,3.79,1.38,9.12,3.16,4.41-4.78,3.14,6.1,16,1.57,1.85.73,4.15,1.66,6.79H290.29L268,64.31ZM347.09,80.74v-24h67.36c17.68,1.71,37-7.5,37.84-17.74V19.8h36.65v3.76c4.4,1.68,8.9,7.21,10.36,9.75,0,0,8.72,5.13,6.16,11.91C505,46.45,499,47,498.63,40.78c-.25-4-6.33-1.64-9.69-2.67V86.4h7.84a16,16,0,0,0,1.83-8.15c-.22-6.64,5.62,3.29,11.38-.78,4.37-3.09-2,5.44,5.35,5.44,8.64,0,2.33-.23,8.1-2.48,1.34-.52-3.83-12.64-6.17-13.56-4-1.59,2-5-4.94-9.51-4.79-3.14-.42-4.34,6.14-.83,6.35,3.39-2,1.11,6.35,7.75,2,1.57,1.47,18.63,9,7,.88-1.35,1.43-1.91,2.12-1.66V20.4H598V0H359.88a8,8,0,0,0-.77,4.83c2.3,10.7-6.08,11-7.7,8-3.05-5.58-4.24,1-6.21-3.29-4.31-9.37-.21-5.36-9-7.44-19.37-4.57-4,4.95-8,7.92-3.12,2.31-.86,7.15-2.28,8.93-5.5,6.86,2.95,12,2.83,14.57-.34,7.27,4.72,16.36,5,22.66C334.46,74.37,342.14,73.32,347.09,80.74Zm-319-53c1.35-1.39,2.88.65,3.31.86,6.65,3.18,1.65,8.46-3.16,5.9C21.61,31,27,29,28.13,27.78ZM319.86,67.29c-4.39,7.36,9.69,3.67,2.63-.43C322,66.58,320.31,66.53,319.86,67.29Zm-8.54,5.56c0,.06-6.5,7.43,3.61,4.27C318.44,76,312.13,70.5,311.32,72.85ZM215.89,38H244L230,23.35ZM49.34,22.74h51.19a1.57,1.57,0,0,1,1.7,1.39v6a1.57,1.57,0,0,1-1.7,1.4H49.34Zm299.2,0h50.25a1.55,1.55,0,0,1,1.67,1.39v6a1.56,1.56,0,0,1-1.67,1.4H348.54ZM721.14,0H674.29c2.31,4.88,3,10.47,7.73,10.62,3,.1,18.35,5.08,8.89,8.35a6.4,6.4,0,0,0-.88,3,2.78,2.78,0,0,1,.43,1.05,2.08,2.08,0,0,0,1.19.57c4.48.8,3.86,2.14,6.41,5.1,13.16,15.23-.1,18.68,7.88,23.72,10.34,6.53,5.85,11.7,9.25,15.79,6.09,7.35,7.19,13.82,6.48,18.17A15.47,15.47,0,0,0,736.56,71V15.43A15.47,15.47,0,0,0,721.14,0ZM663,0c.87,5.08,5.59,8.25,3.17,11.2,0,0-1.89,6,0,9.49H621.54a2.9,2.9,0,0,0-2.89,2.89V62.82a2.9,2.9,0,0,0,2.89,2.89h66.08a2.9,2.9,0,0,0,2.89-2.89V50.63c3.37,2.55,9.12,7.91,10.19,10.45,1.4,3.28,15.2,12.63,16.11,25.32H588A15.48,15.48,0,0,1,572.59,71V23.61h28.65V0Zm80.54,0V1.81c1.7,4.45,2,8.64,5.34,8.56,4.44-.11,5.24.73,6.77.85C762,11.73,761.86,5,763.92,0Zm0,19.38c.71.7,2,1,5.59,1.17,3,.15,3.5,6.74,10.21,9.48,9.5,3.88,14.93,20.67,14-3-.55-14.25.63-5.06,2.48-14.47A45.34,45.34,0,0,0,776.34,0h96.9c11.89,0,16.84,3.9,17.82,15.78V40.61c-4,10.82-14.42,15.23-29.28,15.2,26.26,23,51.94,47.79,74.33,73.88-31.13-10.87-62.84-22.61-94-33.48C836,72.75,822,56,788.77,55.81V66.17a29.77,29.77,0,0,0-2.6-2.59c-3.71-3.15-2.23-18.85-9.52-16.8C772,60.19,778.11,59,778.33,62.41c.51,7.78,5.36,14.08,10.44,19.63V86.4H743.55ZM787.91,32.6h52V22.13h-52ZM655.42,9.82c-7.12,0,3.83,10,3.47,1.38C658.85,10,655.82,9.82,655.42,9.82Zm15.53,5c.11-.06.47.34.72.17,6.43-4.48,15.27,8.28,2.18,7.26C667.78,21.8,672.92,13.68,671,14.85Z"/></g></g></svg>