<svg xmlns="http://www.w3.org/2000/svg" viewBox="0 0 729.7 190.52"><defs><style>.cls-1{fill-rule:evenodd;}</style></defs><g id="Layer_2" data-name="Layer 2"><g id="Layer_1-2" data-name="Layer 1"><path class="cls-1" d="M522.69,185.69,561.24,63.51H507.73L523,15.2,388.4,185.69H302.54L258.14,31.35,226.92,64.06a107.3,107.3,0,0,0-25.18-10.63,100.09,100.09,0,0,0-26.62-3.64q-10.38,0-16.69,2.29c-4.27,1.52-6.83,3.68-7.71,6.39Q148.23,66.15,187.4,72c4.14.68,7.38,1.15,9.64,1.49q27,4.25,39.12,17.23t6.13,31.5q-9.78,30.17-48.88,49.24t-91.88,19.09a266.17,266.17,0,0,1-52.41-5.08A248.74,248.74,0,0,1,0,170.2l48-50.85A177.19,177.19,0,0,0,81.2,133.66a103.25,103.25,0,0,0,29.6,4.53c6.72,0,12.38-.85,16.77-2.54s7.12-4,8.06-6.9c1.64-5-6.8-8.85-25.34-11.52-6-.89-10.63-1.6-14-2.11q-29.24-5-41.43-17.62T48.75,66q9.49-29.26,47.14-47.63T185,0a239.65,239.65,0,0,1,45.16,4.11,216.32,216.32,0,0,1,21.67,5.23l-1.52-5.28h99.87l16.48,104.06L433.75,4.06h296L710.94,63.51H657.42L618.86,185.69Z"/></g></g></svg>