<svg xmlns="http://www.w3.org/2000/svg" viewBox="0 0 394.63 72"><defs><style>.cls-1,.cls-2{fill:#121212;}.cls-2{fill-rule:evenodd;}</style></defs><title>312HP</title><g id="Layer_2" data-name="Layer 2"><g id="Layer_1-2" data-name="Layer 1"><path class="cls-1" d="M0,55.42V72H39.21q10.89,0,16.67-.18c3.85-.13,7.08-.35,9.71-.69a27.18,27.18,0,0,0,6.55-1.56A15.78,15.78,0,0,0,77,66.5a15,15,0,0,0,2.15-2.42,9.63,9.63,0,0,0,1.24-2.8A24.5,24.5,0,0,0,81,57.07c.16-1.71.23-3.91.23-6.6a32.86,32.86,0,0,0-.36-5.22,9.74,9.74,0,0,0-1.61-4,10.26,10.26,0,0,0-3.75-3.12,23.38,23.38,0,0,0-6.64-2.06c-1.16-.18-1.75-.33-1.75-.46s.07-.09.19-.09l.91-.27a28,28,0,0,0,6.65-2.16,8.89,8.89,0,0,0,3.48-2.84,8.35,8.35,0,0,0,1.32-3.38A33.08,33.08,0,0,0,80,22V20.7q0-4-.18-6.41a16.45,16.45,0,0,0-.65-3.76A7.27,7.27,0,0,0,77.91,8.2,19.66,19.66,0,0,0,75.66,6a17.78,17.78,0,0,0-4.58-3.11A21.53,21.53,0,0,0,65,1.24,85.78,85.78,0,0,0,55.79.6Q50.38.45,39.21.46,35.36.46,19.69.37H6.32Q2.48.37,0,.46V16.58H50.84a13.53,13.53,0,0,1,6,1.15c1.52.76,2.32,2.21,2.38,4.35S58.73,26,57.66,27s-3.22,1.56-6.45,1.56H14.84V43h37.1c3,0,5.14.48,6.46,1.42a4.92,4.92,0,0,1,2,4.26c0,2.63-.49,4.41-1.47,5.36s-3.42,1.42-7.33,1.42Z"/><path class="cls-2" d="M89,72h0Zm-.1-72V72H111.3V0Z"/><path class="cls-2" d="M200.15,36.09q1.93-4.31,1.93-13.65a50.76,50.76,0,0,0-.78-9.8,13.8,13.8,0,0,0-3.25-6.59,15.71,15.71,0,0,0-7.38-4.22,46.53,46.53,0,0,0-13-1.46H120.92v16.3H171a52.41,52.41,0,0,1,5.68.37,7.93,7.93,0,0,1,3.12,1,3.56,3.56,0,0,1,1.51,2.11,15.13,15.13,0,0,1,.41,4q0,4.31-3.11,5.54t-11,1.61c-.85.06-2.67.16-5.45.32s-5.48.32-8.1.5l-10.17.69c-4.15.27-7.24.5-9.25.69A20.12,20.12,0,0,0,125,36.18a17.1,17.1,0,0,0-3.94,3.94,29.45,29.45,0,0,0-1.6,3.12,12.75,12.75,0,0,0-.78,2.52,20.47,20.47,0,0,0-.37,3.29q-.09,2-.09,6.1L118.17,72h84.09V55.79H138.14q0-4.86,2.2-6.23a7.17,7.17,0,0,1,2.61-.87c1-.16,2.67-.32,5-.51s3.88-.24,5-.36c2.2-.19,5-.4,8.33-.64q8.81-.65,13.65-1.06t8.61-.78a33.35,33.35,0,0,0,9.12-1.69,11.42,11.42,0,0,0,5.63-4.26l1-1.65a3.26,3.26,0,0,0,.46-.82C200,36.49,200.09,36.21,200.15,36.09Z"/><polygon class="cls-2" points="280.76 45.16 280.76 72 303.21 72 303.21 0 280.76 0 280.76 25.92 232.76 25.92 232.76 0 210.32 0 210.32 72 232.76 72 232.76 45.16 280.76 45.16"/><path class="cls-2" d="M371.82,49q12.45,0,17.63-6.46t5.18-20.11a32.43,32.43,0,0,0-1.56-10.9,14.72,14.72,0,0,0-4.81-6.82A20.44,20.44,0,0,0,380,1.1,60.35,60.35,0,0,0,367.42,0h-57.8V72h22.44V18.05H365.5a8.89,8.89,0,0,1,5.77,2.1A7,7,0,0,1,374,25.28a6.93,6.93,0,0,1-2.66,5.82,9.76,9.76,0,0,1-6.14,2.06h-30L352.85,49Z"/></g></g></svg>