<svg xmlns="http://www.w3.org/2000/svg" viewBox="0 0 505.92 72.46"><defs><style>.cls-1,.cls-2{fill:#121212;}.cls-1{fill-rule:evenodd;}</style></defs><title>3_6L-V6</title><g id="Layer_2" data-name="Layer 2"><g id="Layer_1-2" data-name="Layer 1"><path class="cls-1" d="M0,55.42V72H39.21q10.89,0,16.67-.18c3.85-.13,7.08-.35,9.71-.69a27.18,27.18,0,0,0,6.55-1.56A15.78,15.78,0,0,0,77,66.5a15,15,0,0,0,2.15-2.42,9.63,9.63,0,0,0,1.24-2.8A24.5,24.5,0,0,0,81,57.07c.16-1.71.23-3.91.23-6.6a32.86,32.86,0,0,0-.36-5.22,9.74,9.74,0,0,0-1.61-4,10.26,10.26,0,0,0-3.75-3.12,23.38,23.38,0,0,0-6.64-2.06c-1.16-.18-1.74-.33-1.74-.46s.06-.09.18-.09l.91-.27a28,28,0,0,0,6.65-2.16,8.89,8.89,0,0,0,3.48-2.84,8.35,8.35,0,0,0,1.32-3.38A33.08,33.08,0,0,0,80,22V20.7q0-4-.18-6.41a17.1,17.1,0,0,0-.64-3.76A7.48,7.48,0,0,0,77.91,8.2,19.66,19.66,0,0,0,75.66,6a17.78,17.78,0,0,0-4.58-3.11A21.53,21.53,0,0,0,65,1.24,85.78,85.78,0,0,0,55.79.6Q50.38.45,39.21.46,35.36.46,19.69.37H6.32Q2.48.37,0,.46V16.58H50.84a13.53,13.53,0,0,1,6,1.15c1.52.76,2.32,2.21,2.38,4.35S58.73,26,57.66,27s-3.22,1.56-6.45,1.56H14.84V43h37.1c3,0,5.14.48,6.46,1.42a4.92,4.92,0,0,1,2,4.26c0,2.63-.49,4.41-1.47,5.36s-3.42,1.42-7.33,1.42Z"/><rect class="cls-2" x="89.13" y="52.76" width="20.89" height="19.24"/><path class="cls-1" d="M174,43.05h.1a9.27,9.27,0,0,1,5.77,2,5.89,5.89,0,0,1,2.56,4.81,5.77,5.77,0,0,1-2.65,5.09,10.62,10.62,0,0,1-6,1.78h-27.3a10.56,10.56,0,0,1-6-1.78,5.76,5.76,0,0,1-2.66-5.09A6.17,6.17,0,0,1,140.34,45a9.12,9.12,0,0,1,5.68-2H174ZM138.5,27a20.33,20.33,0,0,1,.64-5.77,5.21,5.21,0,0,1,2.07-2.93,8.15,8.15,0,0,1,3.66-1.14c1.5-.16,3.71-.23,6.64-.23h31.24L198.6,17V.46H145.1a54.26,54.26,0,0,0-11.73,1.1A21.67,21.67,0,0,0,125,5.22a16,16,0,0,0-5.22,6.92A28.72,28.72,0,0,0,118,23v28.4a28.27,28.27,0,0,0,1.24,8.2,11.32,11.32,0,0,0,3.8,6,33,33,0,0,0,5.59,3.66,23.67,23.67,0,0,0,6.23,2,69.7,69.7,0,0,0,9.3,1q5.63.28,15.43.28h.09q10,0,15.94-.19a81.13,81.13,0,0,0,9.71-.77,24.06,24.06,0,0,0,6.23-1.74,18.42,18.42,0,0,0,4.67-3.16,12.5,12.5,0,0,0,3.48-6.33,46.79,46.79,0,0,0,1-11h.09a42.59,42.59,0,0,0-1.23-11.08c-.83-3-1.94-5-3.35-6.14a17.54,17.54,0,0,0-4.62-2.61,30.51,30.51,0,0,0-6.51-1.51A95.77,95.77,0,0,0,175,27.21q-6.09-.2-15.8-.19Z"/><polygon class="cls-1" points="230.29 54.59 230.29 0 207.85 0 207.85 72 209.13 72 231.85 72 278.93 72 278.93 54.59 230.29 54.59"/><polygon class="cls-1" points="362.84 53.95 334.08 0 309.16 0 348.37 71.72 377.04 71.72 416.52 0 391.6 0 362.84 53.95"/><path class="cls-1" d="M479.08,43.05h.1A9.27,9.27,0,0,1,485,45a5.89,5.89,0,0,1,2.56,4.81,5.76,5.76,0,0,1-2.66,5.09,10.56,10.56,0,0,1-6,1.78h-27.3a10.56,10.56,0,0,1-6-1.78,5.76,5.76,0,0,1-2.66-5.09A6.17,6.17,0,0,1,445.47,45a9.11,9.11,0,0,1,5.67-2h27.94ZM443.63,27a20.33,20.33,0,0,1,.64-5.77,5.21,5.21,0,0,1,2.07-2.93A8.15,8.15,0,0,1,450,17.18c1.5-.16,3.71-.23,6.64-.23h31.24l15.85.09V.46h-53.5a54.26,54.26,0,0,0-11.73,1.1,21.67,21.67,0,0,0-8.38,3.66,16,16,0,0,0-5.22,6.92A28.72,28.72,0,0,0,423.11,23v28.4a28.27,28.27,0,0,0,1.24,8.2,11.32,11.32,0,0,0,3.8,6,33,33,0,0,0,5.59,3.66,23.67,23.67,0,0,0,6.23,2,69.7,69.7,0,0,0,9.3,1q5.63.28,15.43.28h.09q10,0,15.94-.19a81.13,81.13,0,0,0,9.71-.77,24.06,24.06,0,0,0,6.23-1.74,18.42,18.42,0,0,0,4.67-3.16,12.5,12.5,0,0,0,3.48-6.33,46.79,46.79,0,0,0,1-11h.09a42.59,42.59,0,0,0-1.23-11.08c-.83-3-1.94-5-3.35-6.14a17.54,17.54,0,0,0-4.62-2.61,30.51,30.51,0,0,0-6.51-1.51,95.77,95.77,0,0,0-10.07-.73q-6.09-.2-15.8-.19Z"/></g></g></svg>