<svg xmlns="http://www.w3.org/2000/svg" viewBox="0 0 460.4 72.46"><defs><style>.cls-1{fill:#121212;fill-rule:evenodd;}</style></defs><title>426HP_1</title><g id="Layer_2" data-name="Layer 2"><g id="Layer_1-2" data-name="Layer 1"><path class="cls-1" d="M86.38,43.24H75.11V1.1H50.75L0,33.62V58H55.6V72H75.11V58H86.38Zm-30.78,0H15.66L55.6,18.05Z"/><path class="cls-1" d="M175.24,36.09q1.92-4.31,1.92-13.65a50.76,50.76,0,0,0-.78-9.8,13.71,13.71,0,0,0-3.25-6.59,15.73,15.73,0,0,0-7.37-4.22,46.55,46.55,0,0,0-13-1.46H96v16.3h50.11a52.79,52.79,0,0,1,5.68.37,7.87,7.87,0,0,1,3.11,1,3.52,3.52,0,0,1,1.51,2.11,14.71,14.71,0,0,1,.41,4c0,2.87-1,4.72-3.11,5.54s-5.74,1.36-11,1.61l-5.45.32q-4.17.23-8.11.5L119,32.75q-6.22.41-9.25.69a20.15,20.15,0,0,0-9.62,2.74,17.29,17.29,0,0,0-3.94,3.94,31.51,31.51,0,0,0-1.6,3.12,12.75,12.75,0,0,0-.78,2.52,21.83,21.83,0,0,0-.36,3.29q-.1,2-.1,6.1L93.25,72h84.09V55.79H113.22q0-4.86,2.2-6.23a7.17,7.17,0,0,1,2.61-.87c1-.16,2.67-.32,5-.51s3.88-.24,5-.36q3.3-.28,8.34-.64,8.79-.65,13.65-1.06t8.61-.78a33.27,33.27,0,0,0,9.11-1.69,11.42,11.42,0,0,0,5.63-4.26l1-1.65a3,3,0,0,0,.46-.82C175.05,36.49,175.18,36.21,175.24,36.09Z"/><path class="cls-1" d="M241.37,43.05h.1a9.27,9.27,0,0,1,5.77,2,5.89,5.89,0,0,1,2.56,4.81,5.76,5.76,0,0,1-2.66,5.09,10.56,10.56,0,0,1-6,1.78H213.8a10.56,10.56,0,0,1-6-1.78,5.76,5.76,0,0,1-2.66-5.09A6.17,6.17,0,0,1,207.76,45a9.12,9.12,0,0,1,5.68-2h27.93ZM205.92,27a20.33,20.33,0,0,1,.64-5.77,5.21,5.21,0,0,1,2.07-2.93,8.15,8.15,0,0,1,3.66-1.14c1.5-.16,3.71-.23,6.64-.23h31.24L266,17V.46h-53.5a54.26,54.26,0,0,0-11.73,1.1,21.67,21.67,0,0,0-8.38,3.66,16,16,0,0,0-5.22,6.92A28.72,28.72,0,0,0,185.4,23v28.4a28.27,28.27,0,0,0,1.24,8.2,11.32,11.32,0,0,0,3.8,6A33,33,0,0,0,196,69.25a23.67,23.67,0,0,0,6.23,2,69.7,69.7,0,0,0,9.3,1q5.63.28,15.43.28h.09q10,0,15.94-.19a81.13,81.13,0,0,0,9.71-.77A24.06,24.06,0,0,0,259,69.76a18.42,18.42,0,0,0,4.67-3.16,12.5,12.5,0,0,0,3.48-6.33,46.79,46.79,0,0,0,1-11h.09A42.59,42.59,0,0,0,267,38.2c-.83-3-1.94-5-3.35-6.14A17.54,17.54,0,0,0,259,29.45a30.51,30.51,0,0,0-6.51-1.51,95.77,95.77,0,0,0-10.07-.73q-6.09-.2-15.8-.19Z"/><polygon class="cls-1" points="346.53 45.16 346.53 72 368.98 72 368.98 0 346.53 0 346.53 25.92 298.53 25.92 298.53 0 276.09 0 276.09 72 298.53 72 298.53 45.16 346.53 45.16"/><path class="cls-1" d="M437.59,49q12.45,0,17.63-6.46t5.18-20.11a32.43,32.43,0,0,0-1.56-10.9A14.72,14.72,0,0,0,454,4.72a20.44,20.44,0,0,0-8.29-3.62A60.35,60.35,0,0,0,433.19,0h-57.8V72h22.44V18.05h33.44a8.89,8.89,0,0,1,5.77,2.1,7,7,0,0,1,2.75,5.13,6.93,6.93,0,0,1-2.66,5.82A9.76,9.76,0,0,1,431,33.16H401L418.63,49Z"/></g></g></svg>