<svg xmlns="http://www.w3.org/2000/svg" viewBox="0 0 281.87 327.99"><defs><style>.cls-1{fill:#121212;fill-rule:evenodd;}</style></defs><title>45th Shield</title><g id="Layer_2" data-name="Layer 2"><g id="Layer_1-2" data-name="Layer 1"><path class="cls-1" d="M0,7.2v246a10.54,10.54,0,0,0,6,9.69l130.13,63.95a10.47,10.47,0,0,0,9.53,0l130.14-63.95a10.55,10.55,0,0,0,6-9.69V8.36a7.2,7.2,0,0,0-7.17-7.2L7.23,0A7.2,7.2,0,0,0,0,7.2ZM12.27,67.57H105.8V88.36h33.88V37.8H105.8V58.18H44.58V37.8h-32ZM196.73,10.69v5.37H210.4V30.78h9.83V16.06h14V30.78H245V23.15h15.19v7.63H270V10.69h-9.83V19H245V10.69Zm71.4,34.75V37.81H154.64V68.53h83V79.85h-83v8.58H268.13V58.83H188V45.44Zm-34.42,60.79V274.05l40.21-20.34V106.23Zm-6.43,171.13V106.23H187.07v191.3Zm-46.65,23.36V106.23H140.42V321Z"/></g></g></svg>