<svg xmlns="http://www.w3.org/2000/svg" viewBox="0 0 1069.44 52.96"><defs><style>.cls-1,.cls-2,.cls-3{fill-rule:evenodd;}.cls-2{fill:#121212;}.cls-3{fill:none;}</style></defs><title>Camaro-LT</title><g id="Layer_2" data-name="Layer 2"><g id="Layer_1-2" data-name="Layer 1"><path class="cls-1" d="M311.67,19.33V49.06a3.6,3.6,0,0,0,3.6,3.6h17.42a3.6,3.6,0,0,0,3.6-3.6V19.33H363.9V49.06a3.6,3.6,0,0,0,3.6,3.6h21.6a3.6,3.6,0,0,0,3.6-3.6V12.13a3.6,3.6,0,0,0-3.6-3.6h-133V9.8a3.56,3.56,0,0,0-.86,2.33V49.06a3.6,3.6,0,0,0,3.6,3.6h21.6a3.6,3.6,0,0,0,3.6-3.6V19.33Z"/><path class="cls-1" d="M28.8,52.66H99.66a3.6,3.6,0,0,0,3.6-3.6v-3.6a3.6,3.6,0,0,0-3.6-3.6H28.8V19.33H99.66a3.6,3.6,0,0,0,3.6-3.6v-3.6a3.6,3.6,0,0,0-3.6-3.6H3.6A3.6,3.6,0,0,0,0,12.13V49.06a3.6,3.6,0,0,0,3.6,3.6H28.8Z"/><path class="cls-1" d="M779.07,52.66h3.44a3.6,3.6,0,0,0,3.6-3.6V12.13a3.6,3.6,0,0,0-3.6-3.6h-98a3.6,3.6,0,0,0-3.6,3.6V49.06a3.6,3.6,0,0,0,3.6,3.6h94.55ZM757.31,19.33V41.86H709.72V19.33Z"/><path class="cls-1" d="M613.2,38.7,632.06,52a3.51,3.51,0,0,0,2.08.65h23.55a3.6,3.6,0,0,0,2.07-6.54l-11.17-7.88H654a3.6,3.6,0,0,0,3.6-3.6V12.13a3.6,3.6,0,0,0-3.6-3.6H553a3.6,3.6,0,0,0-3.6,3.6V49.06a3.6,3.6,0,0,0,3.6,3.6h21.6a3.6,3.6,0,0,0,3.6-3.6V38.7Zm17.64-19.37V27.9H578.16V19.33Z"/><path class="cls-1" d="M424.49,8.53h-5.64a3.6,3.6,0,0,0-3.6,3.6V49.06a3.6,3.6,0,0,0,3.6,3.6h21.6a3.6,3.6,0,0,0,3.6-3.6V38.7h54V49.06a3.6,3.6,0,0,0,3.6,3.6h21.6a3.6,3.6,0,0,0,3.6-3.6V12.13a3.6,3.6,0,0,0-3.6-3.6H424.49ZM444.05,27.9V19.33h54V27.9Z"/><path class="cls-1" d="M128.09,8.53h-4.61a3.6,3.6,0,0,0-3.6,3.6V49.06a3.6,3.6,0,0,0,3.6,3.6h21.6a3.6,3.6,0,0,0,3.6-3.6V38.7h53.11V49.06a3.6,3.6,0,0,0,3.6,3.6H227a3.6,3.6,0,0,0,3.6-3.6V12.13a3.6,3.6,0,0,0-3.6-3.6h-98.9ZM148.68,27.9V19.33h53.11V27.9Z"/><path class="cls-2" d="M829.74,46.45a11.13,11.13,0,0,0,3.88,3.06c6.11,3,16.94,3.48,24.64,3.45h64.92a4.33,4.33,0,0,0,3.06-1.27l5.91-5.91a4.32,4.32,0,0,0-3.06-7.37H860.43l18.68-22.78,6.59-8.7A4.32,4.32,0,0,0,882.26,0H860.64a4.34,4.34,0,0,0-3.39,1.64L829.14,37.26a7.07,7.07,0,0,0-1.23,5.17A8.36,8.36,0,0,0,829.74,46.45ZM882.26,4.32l-6.6,8.7L853.19,40.43a1.65,1.65,0,0,0,.9,1.4c1,.72,3.91.89,4.71.9h70.29l-5.91,5.91H858.24c-6.94,0-17.34-.42-22.74-3-1.78-.86-4.5-3.39-3-5.68L860.64,4.32Z"/><path class="cls-2" d="M993.47,14.55,968.71,46a4.32,4.32,0,0,0,3.4,7h20.4a4.32,4.32,0,0,0,3.37-1.61l29.69-36.8H1060a4.33,4.33,0,0,0,3.24-1.47l5.18-5.91A4.32,4.32,0,0,0,1065.12,0H967.71a4.31,4.31,0,0,0-3.38,1.63l-4.7,5.91a4.33,4.33,0,0,0,3.39,7Zm34.89-4.32h-4.85l-31,38.41h-20.4l30.26-38.41H963l4.69-5.91h97.41L1060,10.23Z"/><path class="cls-3" d="M882.26,4.32l-6.6,8.7L853.19,40.43q0,2.13,5.61,2.3l41,.08,29.33-.08-5.91,5.91H858.24q-21.5,0-25.16-4.93a3.28,3.28,0,0,1-.55-3.77L854,12.69l6.69-8.37h21.62Z"/><polygon class="cls-3" points="1028.37 10.23 1023.51 10.23 992.51 48.64 972.11 48.64 1002.37 10.23 997.51 10.23 980.51 10.23 963.02 10.23 967.71 4.32 997.59 4.32 1036.22 4.32 1065.13 4.32 1059.95 10.23 1036.87 10.23 1028.37 10.23"/></g></g></svg>