<svg xmlns="http://www.w3.org/2000/svg" viewBox="0 0 1247.01 52.7"><defs><style>.cls-1,.cls-2{fill-rule:evenodd;}.cls-2{fill:#121212;}</style></defs><title>Camaro-ZL1</title><g id="Layer_2" data-name="Layer 2"><g id="Layer_1-2" data-name="Layer 1"><path class="cls-1" d="M-8293.33-4307.07v29.73a3.6,3.6,0,0,0,3.6,3.6h17.42a3.6,3.6,0,0,0,3.6-3.6v-29.73h27.61v29.73a3.6,3.6,0,0,0,3.6,3.6h21.6a3.6,3.6,0,0,0,3.6-3.6v-36.93a3.6,3.6,0,0,0-3.6-3.6h-133v1.27a3.56,3.56,0,0,0-.86,2.33v36.93a3.6,3.6,0,0,0,3.6,3.6h21.6a3.6,3.6,0,0,0,3.6-3.6v-29.73Z" transform="translate(8605 4326.34)"/><path class="cls-1" d="M-8576.2-4273.74h70.86a3.6,3.6,0,0,0,3.6-3.6v-3.6a3.6,3.6,0,0,0-3.6-3.6h-70.86v-22.53h70.86a3.6,3.6,0,0,0,3.6-3.6v-3.6a3.6,3.6,0,0,0-3.6-3.6h-96.06a3.6,3.6,0,0,0-3.6,3.6v36.93a3.6,3.6,0,0,0,3.6,3.6h25.2Z" transform="translate(8605 4326.34)"/><path class="cls-1" d="M-7825.93-4273.74h3.44a3.6,3.6,0,0,0,3.6-3.6v-36.93a3.6,3.6,0,0,0-3.6-3.6h-98a3.6,3.6,0,0,0-3.6,3.6v36.93a3.6,3.6,0,0,0,3.6,3.6h94.55Zm-21.76-33.33v22.53h-47.59v-22.53Z" transform="translate(8605 4326.34)"/><path class="cls-1" d="M-7991.8-4287.7l18.86,13.3a3.46,3.46,0,0,0,2.08.66h23.55a3.6,3.6,0,0,0,2.07-6.54l-11.17-7.88h5.39a3.6,3.6,0,0,0,3.6-3.6v-22.51a3.6,3.6,0,0,0-3.6-3.6h-101a3.6,3.6,0,0,0-3.6,3.6v36.93a3.6,3.6,0,0,0,3.6,3.6h21.6a3.6,3.6,0,0,0,3.6-3.6v-10.36Zm17.64-19.37v8.57h-52.68v-8.57Z" transform="translate(8605 4326.34)"/><path class="cls-1" d="M-8180.51-4317.87h-5.64a3.6,3.6,0,0,0-3.6,3.6v36.93a3.6,3.6,0,0,0,3.6,3.6h21.6a3.6,3.6,0,0,0,3.6-3.6v-10.36h54v10.36a3.6,3.6,0,0,0,3.6,3.6h21.6a3.6,3.6,0,0,0,3.6-3.6v-36.93a3.6,3.6,0,0,0-3.6-3.6h-98.72Zm19.56,19.37v-8.57h54v8.57Z" transform="translate(8605 4326.34)"/><path class="cls-1" d="M-8476.91-4317.87h-4.61a3.6,3.6,0,0,0-3.6,3.6v36.93a3.6,3.6,0,0,0,3.6,3.6h21.6a3.6,3.6,0,0,0,3.6-3.6v-10.36h53.11v10.36a3.6,3.6,0,0,0,3.6,3.6h21.6a3.6,3.6,0,0,0,3.6-3.6v-36.93a3.6,3.6,0,0,0-3.6-3.6h-98.9Zm20.59,19.37v-8.57h53.11v8.57Z" transform="translate(8605 4326.34)"/><path class="cls-2" d="M-7731.7-4326.34h145.15l-8.49,10.13-103.08,32h75.81l-9.34,10.54H-7777.2l8.94-10.54,97.41-32h-69.74Zm115.46,52.7,43.78-52.3h49.87l-34.87,41.76h81.9l-8.52,10.54Zm141.2,0,34.06-39.73h-20.4l10.54-12.57H-7358l-43.38,52.3Zm21.08-2.51,32.53-40.15h-23.89l6-7.33h74.16l-39.28,47.48Z" transform="translate(8605 4326.34)"/></g></g></svg>