<svg xmlns="http://www.w3.org/2000/svg" viewBox="0 0 1069.49 52.04"><defs><style>.cls-1{fill-rule:evenodd;}</style></defs><title>Camaro-SS</title><g id="Layer_2" data-name="Layer 2"><g id="Layer_1-2" data-name="Layer 1"><path d="M311.67,18.7V48.44a3.6,3.6,0,0,0,3.6,3.6h17.42a3.6,3.6,0,0,0,3.6-3.6V18.7H363.9V48.44a3.6,3.6,0,0,0,3.6,3.6h21.6a3.6,3.6,0,0,0,3.6-3.6V11.5a3.6,3.6,0,0,0-3.6-3.6h-133V9.17a3.58,3.58,0,0,0-.86,2.33V48.44a3.6,3.6,0,0,0,3.6,3.6h21.6a3.6,3.6,0,0,0,3.6-3.6V18.7Z"/><path d="M28.8,52H99.66a3.6,3.6,0,0,0,3.6-3.6v-3.6a3.6,3.6,0,0,0-3.6-3.6H28.8V18.7H99.66a3.6,3.6,0,0,0,3.6-3.6V11.5a3.6,3.6,0,0,0-3.6-3.6H3.6A3.6,3.6,0,0,0,0,11.5V48.44A3.6,3.6,0,0,0,3.6,52H28.8Z"/><path class="cls-1" d="M779.07,52h3.44a3.6,3.6,0,0,0,3.6-3.6V11.5a3.6,3.6,0,0,0-3.6-3.6h-98a3.6,3.6,0,0,0-3.6,3.6V48.44a3.6,3.6,0,0,0,3.6,3.6h94.55ZM757.31,18.7V41.24H709.72V18.7Z"/><path class="cls-1" d="M613.2,38.07l18.86,13.31a3.46,3.46,0,0,0,2.08.66h23.55a3.6,3.6,0,0,0,2.07-6.54l-11.17-7.89H654a3.6,3.6,0,0,0,3.6-3.6V11.5A3.6,3.6,0,0,0,654,7.9H553a3.6,3.6,0,0,0-3.6,3.6V48.44A3.6,3.6,0,0,0,553,52h21.6a3.6,3.6,0,0,0,3.6-3.6V38.07ZM630.84,18.7v8.57H578.16V18.7Z"/><path class="cls-1" d="M424.49,7.9h-5.64a3.61,3.61,0,0,0-3.6,3.6V48.44a3.6,3.6,0,0,0,3.6,3.6h21.6a3.6,3.6,0,0,0,3.6-3.6V38.07h54V48.44a3.6,3.6,0,0,0,3.6,3.6h21.6a3.6,3.6,0,0,0,3.6-3.6V11.5a3.6,3.6,0,0,0-3.6-3.6H424.49Zm19.56,19.37V18.7h54v8.57Z"/><path class="cls-1" d="M128.09,7.9h-4.61a3.6,3.6,0,0,0-3.6,3.6V48.44a3.6,3.6,0,0,0,3.6,3.6h21.6a3.6,3.6,0,0,0,3.6-3.6V38.07h53.11V48.44a3.6,3.6,0,0,0,3.6,3.6H227a3.6,3.6,0,0,0,3.6-3.6V11.5A3.61,3.61,0,0,0,227,7.9h-98.9Zm20.59,19.37V18.7h53.11v8.57Z"/><path class="cls-1" d="M928,47.79a3.61,3.61,0,0,0,2.9,4.19,3.47,3.47,0,0,0,.64.06h73.92c9.15,0,22.87-.48,31.37-4.74a13.07,13.07,0,0,0,5.48-5l9.48-12.54c2.44-3.07,3-7.47-1-9.63-2.62-1.4-5.44-1.46-8.32-1.54H983.28l2.85-3.27a24.36,24.36,0,0,1,12.19-2.16h62.14a3.6,3.6,0,0,0,2.67-1.18l5.42-6a3.6,3.6,0,0,0-2.66-6H998.73q-8.15,0-16.27.67c-7.84.56-17.23,2.55-22.78,9l-8.9,11c-2.34,2.88-3,7.13.26,9.45,2.41,1.71,5.29,1.8,8.11,1.89h59.92l-4.18,5.55c-1.2,1.28-5.28,1.49-7,1.45l-70.7-.08L944,29.77c2.44-3.07,3-7.47-1-9.63-2.62-1.4-5.44-1.46-8.32-1.54h-59.2l2.85-3.27a24.36,24.36,0,0,1,12.19-2.16h62.14A3.6,3.6,0,0,0,955.3,12l5.43-6a3.6,3.6,0,0,0-2.67-6H890.9q-8.14,0-16.26.67c-7.84.56-17.23,2.55-22.79,9l-8.9,11c-2.34,2.88-3,7.13.27,9.45,2.4,1.71,5.29,1.8,8.11,1.89h59.92l-4.19,5.55c-1.2,1.28-5.27,1.49-7,1.45l-66.47-.08a3.63,3.63,0,0,0-2.42.92l-6.63,6a3.61,3.61,0,0,0-.27,5.09A3.65,3.65,0,0,0,826.91,52h70.77C906.1,52.07,920,51.58,928,47.79ZM909.71,40l8.76-11.63H851.55q-9.91,0-5.8-5.48l8.74-10.79q5.93-6.81,20.4-7.81,7.8-.66,16-.66h67.16l-5.42,6H890.79q-9-.33-14.71,2.82l-8.52,9.8h66.92q10.86,0,6.72,5.31l-7.31,9.8-2.35,3q-4.26,8.13-33.85,8.14H826.91l6.63-6h25.61l40.73.08c4.89,0,8-.8,9.43-2.24Zm107.82,0,8.76-11.63H959.37q-9.9,0-5.8-5.48l8.74-10.79q5.94-6.81,20.41-7.81,7.78-.66,16-.66h67.16l-5.43,6H998.62q-9-.33-14.72,2.82l-8.52,9.8h66.92q10.88,0,6.72,5.31l-7.31,9.8-2.35,3q-4.24,8.13-33.84,8.14H931.58l5.18-6H967l40.73.08q7.35-.07,9.43-2.24Z"/></g></g></svg>