<svg xmlns="http://www.w3.org/2000/svg" viewBox="0 0 1165.8 52.65"><defs><style>.cls-1,.cls-2,.cls-3{fill-rule:evenodd;}.cls-2{fill:#121212;}.cls-3{fill:none;}</style></defs><title>Camaro-L99</title><g id="Layer_2" data-name="Layer 2"><g id="Layer_1-2" data-name="Layer 1"><path d="M-8293.33-4626.49v29.73a3.6,3.6,0,0,0,3.6,3.6h17.42a3.6,3.6,0,0,0,3.6-3.6v-29.73h27.61v29.73a3.6,3.6,0,0,0,3.6,3.6h21.6a3.6,3.6,0,0,0,3.6-3.6v-36.93a3.6,3.6,0,0,0-3.6-3.6h-133v1.27a3.54,3.54,0,0,0-.86,2.33v36.93a3.6,3.6,0,0,0,3.6,3.6h21.6a3.6,3.6,0,0,0,3.6-3.6v-29.73Z" transform="translate(8605 4645.72)"/><path d="M-8576.2-4593.16h70.86a3.6,3.6,0,0,0,3.6-3.6v-3.6a3.6,3.6,0,0,0-3.6-3.6h-70.86v-22.53h70.86a3.6,3.6,0,0,0,3.6-3.6v-3.6a3.6,3.6,0,0,0-3.6-3.6h-96.06a3.6,3.6,0,0,0-3.6,3.6v36.93a3.6,3.6,0,0,0,3.6,3.6h25.2Z" transform="translate(8605 4645.72)"/><path class="cls-1" d="M-7825.93-4593.16h3.44a3.6,3.6,0,0,0,3.6-3.6v-36.93a3.6,3.6,0,0,0-3.6-3.6h-98a3.6,3.6,0,0,0-3.6,3.6v36.93a3.6,3.6,0,0,0,3.6,3.6h94.55Zm-21.76-33.33V-4604h-47.59v-22.53Z" transform="translate(8605 4645.72)"/><path class="cls-1" d="M-7991.8-4607.13l18.86,13.31a3.46,3.46,0,0,0,2.08.66h23.55a3.6,3.6,0,0,0,2.07-6.54l-11.17-7.89h5.39a3.6,3.6,0,0,0,3.6-3.6v-22.5a3.6,3.6,0,0,0-3.6-3.6h-101a3.6,3.6,0,0,0-3.6,3.6v36.93a3.6,3.6,0,0,0,3.6,3.6h21.6a3.6,3.6,0,0,0,3.6-3.6v-10.37Zm17.64-19.36v8.56h-52.68v-8.56Z" transform="translate(8605 4645.72)"/><path class="cls-1" d="M-8180.51-4637.29h-5.64a3.6,3.6,0,0,0-3.6,3.6v36.93a3.6,3.6,0,0,0,3.6,3.6h21.6a3.6,3.6,0,0,0,3.6-3.6v-10.37h54v10.37a3.6,3.6,0,0,0,3.6,3.6h21.6a3.6,3.6,0,0,0,3.6-3.6v-36.93a3.6,3.6,0,0,0-3.6-3.6h-98.72Zm19.56,19.36v-8.56h54v8.56Z" transform="translate(8605 4645.72)"/><path class="cls-1" d="M-8476.91-4637.29h-4.61a3.6,3.6,0,0,0-3.6,3.6v36.93a3.6,3.6,0,0,0,3.6,3.6h21.6a3.6,3.6,0,0,0,3.6-3.6v-10.37h53.11v10.37a3.6,3.6,0,0,0,3.6,3.6h21.6a3.6,3.6,0,0,0,3.6-3.6v-36.93a3.6,3.6,0,0,0-3.6-3.6h-98.9Zm20.59,19.36v-8.56h53.11v8.56Z" transform="translate(8605 4645.72)"/><path class="cls-2" d="M-7558.14-4617.24a4.32,4.32,0,0,0,2.42,5.61,4.18,4.18,0,0,0,1.6.31h66.83l-1.48,1.7a26.83,26.83,0,0,1-11.2,1.89h-30.91c-2,0-4.77-.49-6.4-1.8a4.36,4.36,0,0,0-2.73-1h-20.61a4.32,4.32,0,0,0-4.32,4.32,4.12,4.12,0,0,0,.14,1.11,15.74,15.74,0,0,0,1,3.35c2.08,4.39,7.77,7.21,12.39,7.82q6.45.73,12.95.85h37.75q8,0,16.07-.67a48.38,48.38,0,0,0,10.75-2.49,34.67,34.67,0,0,0,11.59-6.1,4.15,4.15,0,0,0,.72-.73l21-27.05a4.28,4.28,0,0,0,.37-.57c2.68-4.85-.56-9.72-4.85-11.65-6.43-2.9-16.32-3.43-24-3.4h-38.35c-9.14,0-22.66.48-31.13,4.74a13.69,13.69,0,0,0-5.65,5.12l-2.22,2.84-.88,1.2c1.58-4.58-1.45-8.74-5.36-10.5-6.43-2.9-16.32-3.43-24-3.4h-38.35c-9.14,0-22.67.48-31.13,4.74a13.69,13.69,0,0,0-5.65,5.12c-1.23,1.77-11.73,15.67-13.22,17.36a4.32,4.32,0,0,0,.39,6.1,4.29,4.29,0,0,0,2.85,1.08h66.83l-1.48,1.7a26.78,26.78,0,0,1-11.2,1.89h-30.91c-2,0-4.76-.49-6.39-1.8a4.38,4.38,0,0,0-2.73-1h-20.62a4.33,4.33,0,0,0-4.32,4.32,4.13,4.13,0,0,0,.15,1.11,15.19,15.19,0,0,0,1,3.35c2.08,4.39,7.77,7.21,12.38,7.82,4.3.49,8.63.77,13,.85h37.74q8.05,0,16.07-.67a48.46,48.46,0,0,0,10.76-2.49,34.72,34.72,0,0,0,11.58-6.1C-7569.36-4602.74-7558.9-4616.26-7558.14-4617.24Zm3.9-5a15.73,15.73,0,0,1-1.37,1.77Zm-96.23-8.22,2.31-2.94a9.28,9.28,0,0,1,4-3.71c7.78-3.89,20.93-4.31,29.18-4.28h38.39c6.9,0,16.61.43,22.18,3,1.85.85,4.33,3.38,2.85,5.62l-21,27.06c-4.31,4.37-16.6,7.26-20,7.66q-7.83.66-15.7.66H-7646c-4.19-.07-8.38-.35-12.54-.82-3.27-.49-8-2.86-9.05-5.54l-.65-2.45h20.62c2.54,2.07,5.75,2.7,9,2.77h30.8a31.15,31.15,0,0,0,14-2.6l8.36-9.62h-76.31S-7662.29-4614.28-7650.47-4630.47Zm107.59,0,2.3-2.94a9.36,9.36,0,0,1,4-3.71c7.78-3.89,20.93-4.31,29.17-4.28H-7469c6.91,0,16.61.43,22.19,3,1.84.85,4.33,3.38,2.85,5.62l-21,27.06c-4.3,4.37-16.59,7.26-20,7.66q-7.84.66-15.71.66h-37.68q-6.28-.1-12.54-.82c-3.26-.49-8-2.86-9-5.54l-.64-2.45H-7540c2.54,2.07,5.75,2.7,9,2.77h30.81a31.2,31.2,0,0,0,14-2.6l8.35-9.62h-76.3l2.37-2.69Z" transform="translate(8605 4645.72)"/><path class="cls-2" d="M-7775.36-4599.58a10.87,10.87,0,0,0,3.78,3.05c6,3,16.59,3.5,24.13,3.47h65.15a4.33,4.33,0,0,0,3.07-1.29l5.79-5.87a4.32,4.32,0,0,0,0-6.11,4.32,4.32,0,0,0-3-1.24h-68.63l18.3-22.59,6.48-8.64a4.32,4.32,0,0,0-.86-6.05,4.35,4.35,0,0,0-2.6-.87h-21.09a4.32,4.32,0,0,0-3.4,1.67l-27.6,35.37a7.11,7.11,0,0,0-1.22,5.09A8.28,8.28,0,0,0-7775.36-4599.58Zm51.54-41.82-6.48,8.64-22.05,27.23c0,2.19,4.51,2.27,5.46,2.28h70.38l-5.79,5.87h-65.17c-6.77,0-16.95-.42-22.19-3-1.76-.87-4.33-3.38-2.85-5.62l27.6-35.38Z" transform="translate(8605 4645.72)"/><path class="cls-2" d="M-7626.75-4633.08l-8.59,11.41h54.26l9.55-11.82a1.06,1.06,0,0,0-.33-1.23c-1.77-.93-8.9-1.27-9.7-1.3h-35.54c-2.81,0-7.3.85-9.26,2.61Zm3.17,3c1.31-1.13,5.12-1.57,6.53-1.59h35.38l3,.17-4.48,5.54h-43.54Z" transform="translate(8605 4645.72)"/><path class="cls-2" d="M-7519.17-4633.08l-8.59,11.41h54.27l9.55-11.82a1.06,1.06,0,0,0-.34-1.23c-1.77-.93-8.89-1.27-9.69-1.3h-35.55c-2.8,0-7.3.85-9.26,2.61Zm3.18,3c1.31-1.13,5.11-1.57,6.52-1.59h35.38l3,.17-4.47,5.54h-43.55Z" transform="translate(8605 4645.72)"/><path class="cls-3" d="M-7723.82-4641.4l-6.48,8.64-22.05,27.23q0,2.11,5.46,2.28l40,.08,30.43-.08-5.79,5.87h-65.17q-21,0-24.52-4.89a3.33,3.33,0,0,1-.52-3.75l21-27.06,6.56-8.32h21.09Z" transform="translate(8605 4645.72)"/><path class="cls-3" d="M-7650.47-4630.47l2.31-2.94q4.15-8,33.19-8h38.39q21,0,24.52,4.89a3.31,3.31,0,0,1,.51,3.75l-21,27.06q-6.59,5.55-20,7.66-7.65.66-15.7.66H-7646q-7.15-.16-12.54-.82-7-1.47-9.05-5.54l-.65-2.45h20.62c1.85,1.63,4.86,2.56,9,2.77h30.8a31.23,31.23,0,0,0,14-2.6l8.36-9.62h-76.31l2.37-2.69Zm23.72-2.61-8.59,11.41h54.26l9.38-11.58.17-.24a1.17,1.17,0,0,0,0-.81q-.36-1.39-10.05-1.72h-35.54q-7.21.5-9.26,2.61Z" transform="translate(8605 4645.72)"/><path class="cls-3" d="M-7542.88-4630.47l2.3-2.94q4.17-8,33.19-8H-7469q21,0,24.52,4.89a3.31,3.31,0,0,1,.52,3.75l-21,27.06q-6.59,5.55-20,7.66-7.65.66-15.71.66h-37.68c-4.77-.11-8.94-.38-12.54-.82q-7-1.47-9-5.54c-.23-.87-.44-1.69-.64-2.45H-7540c1.86,1.63,4.87,2.56,9,2.77h30.81a31.26,31.26,0,0,0,14-2.6l8.35-9.62h-76.3l2.37-2.69Zm23.71-2.61-8.59,11.41h54.27l9.38-11.58.17-.24a1.17,1.17,0,0,0,0-.81q-.37-1.39-10.05-1.72h-35.55q-7.21.5-9.26,2.61Z" transform="translate(8605 4645.72)"/></g></g></svg>