<svg xmlns="http://www.w3.org/2000/svg" viewBox="0 0 963.26 87.32"><defs><style>.cls-1,.cls-2{fill:#231f20;}.cls-2{fill-rule:evenodd;}</style></defs><title>Chevrolet</title><g id="Layer_2" data-name="Layer 2"><g id="Layer_1-2" data-name="Layer 1"><path class="cls-1" d="M34.35,14.71H92L92,.18H22.44C8,.18.18,5.28.18,23.32c0,0-.18,10.46-.18,20.38S.17,64.23.17,64.23c0,17.83,7.85,23,22.27,23H94.12V72.45H34.39c-4.15,0-5.13-1-5.13-5.18,0,0,0-46.4,0-47.55C29.24,15.72,30.22,14.71,34.35,14.71Z"/><polygon class="cls-1" points="180.12 0.15 180.12 34.35 133.53 34.35 133.53 0.18 104.19 0.18 104.19 87.24 133.53 87.24 133.53 48.27 180.12 48.27 180.12 87.24 209.47 87.24 209.47 0.19 180.12 0.15"/><path class="cls-1" d="M414.27.18,385.91,71.37c-.52,1.22-1.12,1.38-3.06,1.37s-2.53-.15-3-1.37L351.64.16l-105.4,0C231.86.19,224,5.28,224,23.32c0,0-.18,10.46-.18,20.39s.17,20.56.17,20.56c0,17.84,7.86,23,22.27,23h74V72.45h-62c-4.16,0-5.14-1-5.14-5.17V48.42h61.59V34h-61.6c0-7.8,0-13.9,0-14.31,0-4,1-5,5.13-5h66.18c9.11,21.87,25.3,59.53,26.74,62.78,2,4.52,5.56,9.73,13.19,9.73h27.36c7.63,0,10.23-5.12,12.23-9.64S436.61.19,436.61.19Z"/><path class="cls-2" d="M589.84,14.57h37.45c4.08,0,5.06,1,5.06,5,0,1.14,0,47.86,0,47.86,0,4.09-1,5.16-5,5.17H589.82c-4.05,0-5-1.08-5-5.17,0,0,0-46.72,0-47.86C584.79,15.6,585.75,14.59,589.84,14.57Zm71.57,8.66c0-18-7.87-23.14-22.27-23.14,0,0-17.36-.09-30.64-.09S578,.09,578,.09c-14.39,0-22.26,5.09-22.26,23.14,0,0-.17,10.46-.17,20.38s.16,20.7.16,20.7c0,17.83,7.86,23,22.27,23h61.16c14.42,0,22.28-5.17,22.28-23,0,0,.17-10.78.17-20.7S661.41,23.23,661.41,23.23Z"/><polygon class="cls-2" points="705.45 72.52 705.45 0.17 676.24 0.17 676.24 87.27 766.55 87.22 766.55 72.52 705.45 72.52"/><path class="cls-2" d="M791.84.19c-14.38,0-22.26,5.09-22.26,23.13,0,0-.18,10.46-.18,20.38s.17,20.53.17,20.53c0,17.83,7.85,23,22.27,23l74,0V72.54h-62c-4.15,0-5.14-1-5.14-5.17v-19H860V34H798.65V19.71c0-4,1-5,5.12-5l96.77-.09V87.19h29.22V14.63h33.5V.2Z"/><path class="cls-2" d="M510.64,49.93c-.89-.63-.39-1.08.45-1.08h13.13c9.76,0,18.87-3,19.52-16.34.62-3.54.16-12.32.16-12.32C543.9,5.77,536.49.47,525.36.47H439.5V87.25h28.92V14.69h42.82c2.66,0,3.38.77,3.48,2.32.13,1.84.21,5.54.21,8.75,0,3.67,0,6.5-.18,8s-1.65,2.32-3.55,2.32H476.69V49.36l42.64,37.93h40.19S511.05,50.23,510.64,49.93Z"/></g></g></svg>