<svg xmlns="http://www.w3.org/2000/svg" viewBox="0 0 792.79 150.83"><defs><style>.cls-1{fill:#121212;fill-rule:evenodd;}</style></defs><title>ZL1-Camaro-Banner</title><g id="Layer_2" data-name="Layer 2"><g id="Layer_1-2" data-name="Layer 1"><path class="cls-1" d="M527.21,82.57l13.34-17.15H412.24L466.87,0H388.74L320.15,82.57H296l14.64-16.51H191.88L353.37,15.88,366.67,0H139.28L125.35,15.88H234.59L82,66.06,68,82.57H1.44A1.43,1.43,0,0,0,0,84v65.38a1.44,1.44,0,0,0,1.44,1.44H791.35a1.44,1.44,0,0,0,1.44-1.44V84a1.43,1.43,0,0,0-1.44-1.44H656.78L724.74,0H579.29L562.77,19.69h32L541.37,82.57ZM574.4,78l51-62.9H587.92l9.45-11.48h116.2L652,78ZM318.16,104v33.59c0,2.24,1.55,4.06,3.46,4.06h16.75c1.91,0,3.46-1.82,3.46-4.06V104h26.54v33.59c0,2.24,1.55,4.06,3.46,4.06H392.6c1.91,0,3.46-1.82,3.46-4.06V95.84c0-2.25-1.55-4.07-3.46-4.07H264.75V93.2a4.52,4.52,0,0,0-.82,2.64v41.72c0,2.24,1.55,4.06,3.46,4.06h20.76c1.91,0,3.46-1.82,3.46-4.06V104ZM46.22,141.62h68.13c1.91,0,3.46-1.82,3.46-4.06v-4.07c0-2.25-1.55-4.07-3.46-4.07H46.22V104h68.13c1.91,0,3.46-1.82,3.46-4.06V95.84c0-2.25-1.55-4.07-3.46-4.07H22c-1.91,0-3.46,1.82-3.46,4.07v41.72c0,2.24,1.55,4.06,3.46,4.06H46.22Zm721.27,0h3.31c1.91,0,3.46-1.82,3.46-4.06V95.84c0-2.25-1.55-4.07-3.46-4.07H676.6c-1.92,0-3.47,1.82-3.47,4.07v41.72a3.8,3.8,0,0,0,3.47,4.06h90.89ZM746.57,104v25.45H700.82V104ZM608,125.85l18.13,15a3,3,0,0,0,2,.74H650.8c3.38,0,4.76-5.1,2-7.39l-10.75-8.9h5.18c1.92,0,3.47-1.82,3.47-4.07V95.84c0-2.25-1.55-4.07-3.47-4.07H550.12c-1.91,0-3.46,1.82-3.46,4.07v41.72c0,2.24,1.55,4.06,3.46,4.06h20.77c1.91,0,3.46-1.82,3.46-4.06V125.85ZM625,104v9.68H574.35V104ZM426.61,91.77H421.2c-1.91,0-3.46,1.82-3.46,4.07v41.72c0,2.24,1.55,4.06,3.46,4.06H442c1.91,0,3.46-1.82,3.46-4.06V125.85h51.87v11.71c0,2.24,1.55,4.06,3.46,4.06h20.77c1.91,0,3.46-1.82,3.46-4.06V95.84c0-2.25-1.55-4.07-3.46-4.07H426.61Zm18.81,21.88V104h51.87v9.68ZM141.68,91.77h-4.44c-1.91,0-3.46,1.82-3.46,4.07v41.72c0,2.24,1.55,4.06,3.46,4.06H158c1.91,0,3.46-1.82,3.46-4.06V125.85h51.05v11.71c0,2.24,1.55,4.06,3.46,4.06h20.77c1.91,0,3.46-1.82,3.46-4.06V95.84c0-2.25-1.55-4.07-3.46-4.07H141.68Zm19.79,21.88V104h51.05v9.68Z"/></g></g></svg>