<?xml version="1.0" encoding="utf-8"?>
<!-- Generator: Adobe Illustrator 27.9.1, SVG Export Plug-In . SVG Version: 6.00 Build 0)  -->
<svg class="w" version="1.1" xmlns="http://www.w3.org/2000/svg" xmlns:xlink="http://www.w3.org/1999/xlink" x="0px"
	 y="0px" viewBox="0 0 7200.7 3186.9" style="enable-background:new 0 0 7200.7 3186.9;" xml:space="preserve">
     $gradientDefs

	<style type="text/css">
		.accentcolor{fill-rule:evenodd;clip-rule:evenodd;}
	</style>
<path class="maincolor" d="M87.8,2.9c-2.4,0.8-4.9,1.8-7.2,3c-15.3,7.5-28.5,22.5-32,56.4c-6,57.2-14.8,217.5-13.6,259.6
	c1.4,46.4,3.9,93.1,29.5,150.3c25.6,57.2,77.4,134.1,92.8,153.7c15.4,19.6,36.7,58.9,93.1,62.3c56.4,3.1,109.1,4.1,109.1,4.1
	s5942.3-0.6,5958.7-0.6c185.2,0,303.8,28.8,387.2,66.4c27.2,12.3,486.6,229.7,493.2,231.8c0.3,0.1,0.6,0.1,1,0.2l1.2,0
	c-442.8,129.5-659.3,531.3-659.3,531.3S5418.8,921.9,5392,908.6c-97.3-48.6-140.1-94.8-364.9-94.8l-4776.4-4.4
	c-65.6-4-90.4-55.7-108.3-78.6C124.5,708,64.3,618.5,34.5,551.9S1.7,431,0.1,377C-1.3,328,9,141.5,15.9,74.9
	c5.9-56.7,35.2-68,61.5-73.2L87.1,0c0.8-0.1,1.8,0.4,1.8,1.2C89,2,88.5,2.6,87.8,2.9z"/>
<text class="textcolor" transform="matrix(1.46 1.960547e-03 -1.342841e-03 1 599.8055 793.0512)" style="font-family:'Square721BT-BoldExtended'; font-size:109.1441px; text-anchor:start;">
	<tspan x="0" y="0">CUSTOM TEXT</tspan>
</text>
<g>
	<path class="accentcolor" d="M6457.3,1200.9l-13.2,24.9l-76.5-40.4L6457.3,1200.9z M6077.3,1030l26,13.7l-109.8,10.2l-27.1-14.3
		L6077.3,1030z M6164.8,1078.7l-12.4-6.5l52.8,93.7l11.4,6L6164.8,1078.7z M5927.5,950.2l-163.9-86.6l-47.8-13.6l-1,1.8l206.9,109.3
		L5927.5,950.2z M6253.2,1191.7l162.6,85.9l-13.2,25c-0.9,1.8-0.3,3.9,1.5,4.9l85.6,46c1.8,0.9,4,0.3,4.9-1.5l13.5-25.6l11.1,5.8
		c1.8,0.9,3.9,0.3,4.9-1.5l24.6-46.5c0.9-1.8,0.3-3.9-1.5-4.9l-11.1-5.8l38.4-72.6c0.9-1.8,0.3-4-1.4-4.9l-97.3-51.4
		c-0.5-0.3-1-0.5-1.6-0.6l-196.6-34.6c-2.4-0.4-4.6,0.7-5.7,2.8l-30.6,57.9l-40.4-72.9l117.6-10.2c1.9-0.2,3.4-1.2,4.3-2.9l6.8-12.8
		c0.9-1.8,0.3-3.9-1.5-4.9l-125.5-66.3c-1-0.5-2-0.7-3.1-0.6l-59.3,6.3l-28.1-52.6c-0.5-1-1.2-1.7-2.2-2.2l-368.1-194.5
		c-0.7-0.4-1.4-0.6-2.2-0.6l-48.5-2.5c-2.2-0.1-4,1-5.1,2.9l-91.1,172.4c-0.9,1.8-0.3,3.9,1.5,4.9l115,60.8c1.8,0.9,3.9,0.3,4.9-1.5
		l34.5-65.3l163.3,86.3c1.8,0.9,3.9,0.3,4.9-1.5l30.9-58.5c0.9-1.8,0.3-3.9-1.5-4.9l-163.3-86.3l5.4-10.2l168.5,89
		c1.8,0.9,3.9,0.3,4.9-1.5l18.5-35l61.6,109l-126,11.6c-2.1,0.2-3.1,2.5-2,4.2l19,28c0.5,0.8,1.1,1.3,1.9,1.7l98.1,51.8
		c1,0.5,2,0.7,3.1,0.6l66.8-6.9l33.3,59.8c0.5,1,1.2,1.6,2.2,2.1l102.1,54c1.8,0.9,3.9,0.3,4.9-1.5l10.6-20L6253.2,1191.7z
		 M5962.5,896l-224.5-118.6l-39.1-1.4L5626,913.9l32.3,17.1l66.2-125.3c0.9-1.6,2.4-2.5,4.3-2.4l31.3,1.3c0.7,0,1.3,0.2,2,0.5
		l194.3,102.7L5962.5,896z M6079.2,957.5l11.9,6.3l33.4,61.5c0.4,0.7,1.1,1.1,1.9,1l69.1-7.4l26.2,13.8l-95.8,9.6L6079.2,957.5z
		 M6464.1,1255.2l-179.6-94.9c-0.8-0.4-1.6-0.5-2.5-0.3l-27.4,7l26-49.2l191.6,34.1l41.7,22.1l-70.2,132.8l-24.1-12.7l16.5-31.1
		l26.4-3.2c0.6-0.1,1-0.4,1.3-0.9c0.3-0.5,0.9-1.7,0.9-1.7C6465,1256.4,6464.7,1255.5,6464.1,1255.2z M6286.2,1153.7l10.5-19.9
		c0.3-0.5,0.9-0.8,1.5-0.7l162.5,28.5c0.4,0.1,0.7,0.2,1,0.3l40.3,21.3c0.7,0.4,0.9,1.2,0.6,1.9l-0.6,1.1c-0.3,0.6-0.9,0.9-1.5,0.9
		l-24.3-0.7l-26.1,49.3c-0.4,0.7-1.2,0.9-1.9,0.6l-125.6-66.4l-35.8-14.2C6286.2,1155.3,6285.8,1154.4,6286.2,1153.7z M6537,1282.6
		l-4.8,9l-51.8-27.4l1.4-2.6l40.4,13.1L6537,1282.6z"/>
	<g>
		<path class="accentcolor" d="M6132.8,1188.7l-28.5-15.1c-3.9-2-8.7-0.6-10.7,3.3l-5.3,10.1c-2,3.9-0.5,8.5,3.4,10.5l27.3,14.4
			c3.9,2,9.7,1.4,11.8-2.5l5.3-10.1C6138.2,1195.5,6136.7,1190.7,6132.8,1188.7z M6124,1189.2l-15.2-8c-0.7-0.4-1.6-0.1-1.9,0.6
			l-6.9,13.1c-0.4,0.7-0.1,1.6,0.6,1.9l15.2,8c0.7,0.4,1.6,0.1,1.9-0.6l6.9-13.1C6125,1190.4,6124.7,1189.5,6124,1189.2z"/>
		<path class="accentcolor" d="M6371.8,1315l-28.5-15.1c-3.9-2-8.7-0.6-10.7,3.3l-5.3,10.1c-2,3.9-0.5,8.5,3.4,10.5l27.3,14.4
			c3.9,2,9.7,1.4,11.8-2.5l5.3-10.1C6377.2,1321.8,6375.7,1317,6371.8,1315z M6363,1315.5l-15.2-8c-0.7-0.4-1.6-0.1-1.9,0.6
			l-6.9,13.1c-0.4,0.7-0.1,1.6,0.6,1.9l15.2,8c0.7,0.4,1.6,0.1,1.9-0.6l6.9-13.1C6364,1316.7,6363.7,1315.8,6363,1315.5z"/>
		<path class="accentcolor" d="M6469.3,1371.6l-16.4-8.7l-9.4,17.8l16.4,8.7c0.7,0.4,1.6,0.1,1.9-0.6l8-15.2
			C6470.2,1372.8,6470,1372,6469.3,1371.6z M6478.1,1371.1l-34.4-18.2c-0.5-0.3-1.2-0.1-1.5,0.5l-11.6,22c-0.3,0.5-0.1,1.2,0.5,1.5
			l33.2,17.5c3.9,2,9.7,1.4,11.8-2.5l5.3-10.1C6483.4,1378,6481.9,1373.2,6478.1,1371.1z"/>
		<path class="accentcolor" d="M6401.1,1335.6l16.4,8.7l-4,7.6l-17.3-9.1c-0.2-0.1-0.3-0.4-0.2-0.6c0.2-0.4,3.1-5.9,3.1-5.9
			C6399.6,1335.5,6400.4,1335.2,6401.1,1335.6z M6396.6,1328.1l34.4,18.2c0.5,0.3,0.7,0.9,0.5,1.5l-11.6,22
			c-0.3,0.5-0.9,0.7-1.5,0.5l-10.3-5.5c-0.5-0.3-0.7-0.9-0.5-1.5l3.9-7.5l-17.3-9.1c-0.3-0.2-0.7,0-0.9,0.3l-3.6,6.9
			c-0.3,0.5-0.9,0.7-1.5,0.5l-10.3-5.4c-0.5-0.3-0.7-0.9-0.5-1.5c0.5-0.9,8.4-15.9,8.4-15.9
			C6387.9,1327.5,6392.7,1326,6396.6,1328.1z"/>
		<path class="accentcolor" d="M6310.1,1287.5l-16.4-8.7l-4,7.6l17.3,9.1c0.2,0.1,0.5,0,0.6-0.2c0.2-0.4,3.1-5.9,3.1-5.9
			C6311.1,1288.8,6310.8,1287.9,6310.1,1287.5z M6318.9,1287.1l-34.4-18.2c-0.5-0.3-1.2-0.1-1.5,0.5l-11.6,22
			c-0.3,0.5-0.1,1.2,0.5,1.5l10.3,5.5c0.5,0.3,1.2,0.1,1.5-0.5l3.5-6.7l9.4,14.3c0.2,0.4,0.5,0.6,0.9,0.9l16.2,8.6
			c0.6,0.3,1.1-0.3,0.8-0.9l-8.3-13.9l5.3,2.8c3.3,1.8,7.8,0.4,9.5-2.9l1.1-2.2C6324.3,1293.9,6322.8,1289.1,6318.9,1287.1z"/>
		<path class="accentcolor" d="M6184.9,1234.7l1.2-2.4c0.3-0.5,0.1-1.2-0.5-1.5l-29.2-15.4l3-5.7c0.4-0.7,1.2-0.9,1.8-0.6l28,14.8
			c0.5,0.3,1.2,0.1,1.5-0.5l1.2-2.3c0.3-0.5,0.1-1.2-0.5-1.5l-34.5-18.2c-3.9-2-8.7-0.6-10.7,3.3l-8.4,15.9
			c-0.3,0.5-0.1,1.2,0.5,1.5l10.4,5.5c0.5,0.3,1.2,0.1,1.5-0.5l3.3-6.3c0.4-0.7,1.2-0.9,1.8-0.6l28,14.8
			C6184,1235.5,6184.6,1235.3,6184.9,1234.7z"/>
		<path class="accentcolor" d="M6237.7,1262.6l1.2-2.4c0.3-0.5,0.1-1.2-0.5-1.5l-29.2-15.4l3-5.7c0.4-0.7,1.2-0.9,1.8-0.6l28,14.8
			c0.5,0.3,1.2,0.1,1.5-0.5l1.2-2.3c0.3-0.5,0.1-1.2-0.5-1.5l-34.5-18.2c-3.9-2-8.7-0.6-10.7,3.3l-8.4,15.9
			c-0.3,0.5-0.1,1.2,0.5,1.5l10.4,5.5c0.5,0.3,1.2,0.1,1.5-0.5l3.3-6.3c0.4-0.7,1.2-0.9,1.8-0.6l28,14.8
			C6236.7,1263.3,6237.4,1263.1,6237.7,1262.6z"/>
	</g>
</g>
<path class="maincolor" d="M7112.9,1668.3c2.4,0.8,4.9,1.8,7.2,3c15.3,7.5,28.5,22.5,32,56.4c6,57.2,14.8,217.5,13.6,259.6
	c-1.4,46.4-3.9,93.1-29.5,150.3s-77.4,134.1-92.8,153.7c-15.4,19.6-36.7,58.9-93.1,62.3c-56.4,3.1-109.1,4.1-109.1,4.1
	s-5942.3-0.6-5958.7-0.6c-185.2,0-303.8,28.8-387.2,66.4C468.1,2436,8.8,2653.3,2.2,2655.5c-0.3,0.1-0.6,0.1-1,0.2l-1.2,0
	c442.8,129.5,659.3,531.3,659.3,531.3s1122.5-599.5,1149.3-612.9c97.3-48.6,140.1-94.8,364.9-94.8l4776.4-4.4
	c65.6-4,90.4-55.7,108.3-78.6c17.9-22.9,78.1-112.3,107.9-178.9s32.8-120.9,34.3-174.9c1.4-49-8.8-235.5-15.8-302.1
	c-5.9-56.7-35.2-68-61.5-73.2l-9.6-1.7c-0.8-0.1-1.8,0.4-1.8,1.2C7111.7,1667.4,7112.1,1668.1,7112.9,1668.3z"/>

<text class="textcolor" transform="matrix(1.46 1.960547e-03 -1.342841e-03 1 6627.0015 2453.7969)" style="font-family:'Square721BT-BoldExtended'; font-size:109.1441px; text-anchor:end;">
	<tspan x="0" y="0">CUSTOM TEXT</tspan>
</text>
<g>
	<path class="accentcolor" d="M1430.6,2503.2l13.2,24.9l-76.5,40.4L1430.6,2503.2z M1075.3,2720.9l26-13.7l-53.4,96.5l-27.1,14.3
		L1075.3,2720.9z M1164.8,2676l-12.4,6.5l107.2,9.2l11.4-6L1164.8,2676z M925,2799.6l-163.9,86.6l-38.2,31.8l1,1.8l206.9-109.3
		L925,2799.6z M1308,2666.6l162.6-85.9l13.2,25c0.9,1.8,3.1,2.4,4.8,1.5l86.2-44.8c1.8-0.9,2.5-3.1,1.5-4.9l-13.5-25.6l11.1-5.8
		c1.8-0.9,2.4-3.1,1.5-4.9l-24.6-46.5c-0.9-1.8-3.1-2.4-4.9-1.5l-11.1,5.8l-38.4-72.6c-0.9-1.8-3.1-2.5-4.9-1.6l-97.3,51.4
		c-0.5,0.3-1,0.6-1.4,1l-139.3,142.9c-1.7,1.7-2,4.2-0.9,6.3l30.6,57.9l-83-7.7l57.8-102.9c0.9-1.7,1-3.5,0.1-5.2l-6.8-12.8
		c-0.9-1.8-3.1-2.4-4.9-1.5l-125.5,66.3c-1,0.5-1.7,1.2-2.2,2.2l-28.2,52.6l-59.3-6.4c-1.1-0.1-2.1,0.1-3.1,0.6l-368.1,194.5
		c-0.7,0.4-1.3,0.8-1.8,1.5l-29.5,38.7c-1.3,1.7-1.5,3.9-0.5,5.8l91.1,172.4c0.9,1.8,3.1,2.4,4.9,1.5l115-60.8
		c1.8-0.9,2.4-3.1,1.5-4.9l-34.5-65.3l163.3-86.3c1.8-0.9,2.4-3.1,1.5-4.9l-30.9-58.5c-0.9-1.8-3.1-2.4-4.9-1.5l-163.3,86.3
		l-5.4-10.2l168.5-89c1.8-0.9,2.4-3.1,1.5-4.9l-18.5-35l124.8,10.6l-61.4,110.6c-1,1.8,0.3,4,2.4,4l33.8,0.1c0.9,0,1.7-0.2,2.5-0.6
		l98.1-51.8c1-0.5,1.7-1.2,2.2-2.2l32-59.1l68.2,6.2c1.1,0.1,2-0.1,3-0.6l102.1-54c1.8-0.9,2.4-3.1,1.5-4.9l-10.6-20L1308,2666.6z
		 M899.9,2740.2l-224.5,118.6l-23.2,31.5l72.9,137.9l32.3-17.1l-66.2-125.3c-0.9-1.6-0.7-3.4,0.4-4.9l18.7-25.1
		c0.4-0.6,0.9-1,1.5-1.3L906.1,2752L899.9,2740.2z M1016.5,2678.5l11.9-6.3l69.6,7.1c0.8,0.1,1.6-0.3,1.9-1l32.8-61.2l26.2-13.8
		l-46.1,84.6L1016.5,2678.5z M1479.2,2528.2l-179.6,94.9c-0.8,0.4-1.3,1-1.6,1.9l-9.6,26.6l-26-49.2l136.1-139l41.7-22.1l70.2,132.8
		l-24.1,12.7l-16.5-31.1l12.2-23.7c0.3-0.5,0.3-1,0-1.5c-0.3-0.5-0.9-1.7-0.9-1.7C1480.8,2528.1,1479.9,2527.9,1479.2,2528.2z
		 M1295.2,2617.9l-10.5-19.9c-0.3-0.5-0.2-1.2,0.2-1.6l115.1-118.2c0.3-0.3,0.5-0.5,0.9-0.6l40.3-21.3c0.7-0.4,1.5-0.1,1.9,0.6
		l0.6,1.1c0.3,0.6,0.3,1.2-0.1,1.7l-14.3,19.7l26.1,49.3c0.4,0.7,0.1,1.5-0.6,1.9l-125.6,66.4l-31.9,21.5
		C1296.5,2618.9,1295.6,2618.7,1295.2,2617.9z M1543,2483.4l4.8,9l-51.8,27.4l-1.4-2.6l33.6-26L1543,2483.4z"/>
	<g>
		<path class="accentcolor" d="M1237.7,2764.4l-28.5,15.1c-3.9,2-5.3,6.8-3.3,10.7l5.3,10.1c2,3.9,6.7,5.1,10.6,3.1l27.3-14.4
			c3.9-2,6.6-7.3,4.6-11.1l-5.3-10.1C1246.3,2763.9,1241.5,2762.4,1237.7,2764.4z M1233.1,2772l-15.2,8c-0.7,0.4-1,1.2-0.6,1.9
			l6.9,13.1c0.4,0.7,1.2,1,1.9,0.6l15.2-8c0.7-0.4,1-1.2,0.6-1.9l-6.9-13.1C1234.7,2771.9,1233.8,2771.6,1233.1,2772z"/>
		<path class="accentcolor" d="M1476.7,2638.1l-28.5,15.1c-3.9,2-5.3,6.8-3.3,10.7l5.3,10.1c2,3.9,6.7,5.1,10.6,3.1l27.3-14.4
			c3.9-2,6.6-7.3,4.6-11.1l-5.3-10.1C1485.3,2637.6,1480.5,2636.1,1476.7,2638.1z M1472.1,2645.7l-15.2,8c-0.7,0.4-1,1.2-0.6,1.9
			l6.9,13.1c0.4,0.7,1.2,1,1.9,0.6l15.2-8c0.7-0.4,1-1.2,0.6-1.9l-6.9-13.1C1473.7,2645.6,1472.8,2645.3,1472.1,2645.7z"/>
		<path class="accentcolor" d="M1578.4,2589.5l-16.4,8.7l9.4,17.8l16.4-8.7c0.7-0.4,1-1.2,0.6-1.9l-8-15.2
			C1579.9,2589.4,1579.1,2589.1,1578.4,2589.5z M1582.9,2582l-34.4,18.2c-0.5,0.3-0.7,0.9-0.5,1.5l11.6,22c0.3,0.5,0.9,0.7,1.5,0.5
			l33.2-17.5c3.9-2,6.6-7.3,4.6-11.1l-5.3-10.1C1591.6,2581.4,1586.8,2579.9,1582.9,2582z"/>
		<path class="accentcolor" d="M1510.2,2625.5l16.4-8.7l4,7.6l-17.3,9.1c-0.2,0.1-0.5,0-0.6-0.2c-0.2-0.4-3.1-5.9-3.1-5.9
			C1509.3,2626.8,1509.5,2625.9,1510.2,2625.5z M1501.4,2625l34.4-18.2c0.5-0.3,1.2-0.1,1.5,0.5l11.6,22c0.3,0.5,0.1,1.2-0.5,1.5
			l-10.3,5.5c-0.5,0.3-1.2,0.1-1.5-0.5l-3.9-7.5l-17.3,9.1c-0.3,0.2-0.4,0.6-0.3,0.9l3.6,6.9c0.3,0.5,0.1,1.2-0.5,1.5l-10.3,5.4
			c-0.5,0.3-1.2,0.1-1.5-0.5c-0.5-0.9-8.4-15.9-8.4-15.9C1496.1,2631.9,1497.6,2627.1,1501.4,2625z"/>
		<path class="accentcolor" d="M1419.2,2673.6l-16.4,8.7l4,7.6l17.3-9.1c0.2-0.1,0.3-0.4,0.2-0.6c-0.2-0.4-3.1-5.9-3.1-5.9
			C1420.8,2673.5,1419.9,2673.2,1419.2,2673.6z M1423.8,2666.1l-34.4,18.2c-0.5,0.3-0.7,0.9-0.5,1.5l11.6,22
			c0.3,0.5,0.9,0.7,1.5,0.5l10.3-5.5c0.5-0.3,0.7-0.9,0.5-1.5l-3.5-6.7l17.1,0.3c0.4,0,0.8-0.1,1.2-0.3l16.2-8.6
			c0.6-0.3,0.4-1.1-0.3-1.1l-16.1-1l5.3-2.8c3.3-1.8,4.7-6.2,2.9-9.5l-1.1-2.2C1432.5,2665.5,1427.7,2664,1423.8,2666.1z"/>
		<path class="accentcolor" d="M1305.1,2747.3l-1.2-2.4c-0.3-0.5-0.9-0.7-1.5-0.5l-29.2,15.4l-3-5.7c-0.4-0.7-0.1-1.5,0.6-1.8l28-14.8
			c0.5-0.3,0.7-0.9,0.5-1.5l-1.2-2.3c-0.3-0.5-0.9-0.7-1.5-0.5l-34.5,18.2c-3.9,2-5.3,6.8-3.3,10.7l8.4,15.9
			c0.3,0.5,0.9,0.7,1.5,0.5l10.4-5.5c0.5-0.3,0.7-0.9,0.5-1.5l-3.3-6.3c-0.4-0.7-0.1-1.5,0.6-1.8l28-14.8
			C1305.1,2748.5,1305.3,2747.9,1305.1,2747.3z"/>
		<path class="accentcolor" d="M1357.8,2719.4l-1.2-2.4c-0.3-0.5-0.9-0.7-1.5-0.5l-29.2,15.4l-3-5.7c-0.4-0.7-0.1-1.5,0.6-1.8l28-14.8
			c0.5-0.3,0.7-0.9,0.5-1.5l-1.2-2.3c-0.3-0.5-0.9-0.7-1.5-0.5l-34.5,18.2c-3.9,2-5.3,6.8-3.3,10.7l8.4,15.9
			c0.3,0.5,0.9,0.7,1.5,0.5l10.4-5.5c0.5-0.3,0.7-0.9,0.5-1.5l-3.3-6.3c-0.4-0.7-0.1-1.5,0.6-1.8l28-14.8
			C1357.9,2720.6,1358.1,2720,1357.8,2719.4z"/>
	</g>
</g>
</svg>
