<?xml version="1.0" encoding="utf-8"?>
<!-- Generator: Adobe Illustrator 27.9.1, SVG Export Plug-In . SVG Version: 6.00 Build 0)  -->
<svg class="w" version="1.1" xmlns="http://www.w3.org/2000/svg" xmlns:xlink="http://www.w3.org/1999/xlink" x="0px" y="0px"
	 viewBox="0 0 7200.7 3186.9" style="enable-background:new 0 0 7200.7 3186.9;" xml:space="preserve">
     $gradientDefs

<style type="text/css">
	.accentcolor{fill-rule:evenodd;clip-rule:evenodd;}
</style>
<g>
	<path class="maincolor" d="M29.2,31C24.4,48.7,19.7,66.4,15,84.1c-1,10.3-2,22.5-3,36.2c8.7-33.8,17.7-67.5,26.8-101.1
		C35.4,22.4,32.1,26.3,29.2,31z"/>
	<path class="maincolor" d="M81.3,1c-0.5,1.7-1,3.5-1.4,5.2c0.2-0.1,0.5-0.2,0.7-0.3c2.4-1.2,4.8-2.2,7.2-3C88.5,2.6,89,2,88.9,1.2
		c-0.1-0.8-1-1.4-1.8-1.2L81.3,1z"/>
	<path class="maincolor" d="M41.9,149.2C27.7,204.8,14.1,260.7,1.1,316.9c-0.7,20.4-1.1,38-1.1,50.7C12.3,312.7,25.3,258,38.8,203.5
		C39.7,185.4,40.8,166.9,41.9,149.2z"/>
	<path class="maincolor" d="M37.3,366.3c-8.9,39.3-17.5,78.7-25.7,118.2c2.3,9.7,5,19.7,8.4,29.9c7.4-36.2,15.1-72.3,23.1-108.3
		C40.3,392.4,38.5,379.3,37.3,366.3z"/>
	<path class="maincolor" d="M65.3,474c-7,33.2-13.9,66.4-20.5,99.7c4.2,8.4,8.8,17.1,13.6,25.7c6.4-33,13.1-66,20-98.8
		C73.6,491.5,69.2,482.5,65.3,474z"/>
	<path class="maincolor" d="M105.5,548.2c-6.7,32.8-13.1,65.7-19.4,98.6c5.9,9.7,11.8,19,17.5,27.8c6.2-33,12.5-66,19.1-98.9
		C117.2,567.1,111.3,557.8,105.5,548.2z"/>
	<path class="maincolor" d="M151.2,617.8c-6.5,33.1-12.7,66.3-18.7,99.5c4,5.6,7.4,10.2,9.9,13.4c3.5,4.5,7.3,10,11.5,16.2
		c6-33.7,12.2-67.2,18.6-100.7c-6-7.5-10.9-14.7-15.3-20.4C155.6,623.8,153.6,621.1,151.2,617.8z"/>
	<path class="maincolor" d="M204,674.6c-6.8,35.9-13.3,71.8-19.6,107.9c7.9,6.9,17,13.1,27.8,17.8c6.6-38.2,13.4-76.4,20.6-114.4
		C221.7,683.4,212.2,679.4,204,674.6z"/>
	<path class="maincolor" d="M268.9,689.2c-7.5,39.9-14.7,79.8-21.6,119.9c1.1,0.1,2.3,0.2,3.4,0.3l31.5,0c6.8-39.7,14-79.3,21.5-118.7
		C292.9,690.3,281.2,689.8,268.9,689.2z"/>
	<path class="maincolor" d="M340.2,691.9c-7.4,39.1-14.5,78.3-21.3,117.5l39,0c6.8-39.1,13.9-78.2,21.4-117.1c-19.8,0-19.9,0-19.9,0
		S352.2,692.2,340.2,691.9z"/>
	<path class="maincolor" d="M416.1,692.4c-7.5,38.9-14.6,78-21.5,117.1l43.1,0c6.9-39.2,14.1-78.2,21.6-117.2
		C417,692.4,392.6,692.4,416.1,692.4z"/>
	<path class="maincolor" d="M496.2,692.4c-7.6,39-14.8,78-21.8,117.2l47.3,0c7-39.2,14.3-78.3,21.9-117.3
		C498,692.4,463.6,692.4,496.2,692.4z"/>
	<path class="maincolor" d="M580.4,692.4c-7.7,39-15,78.1-22,117.3l51.4,0c7.1-39.2,14.5-78.4,22.2-117.4
		C583.3,692.4,543.2,692.4,580.4,692.4z"/>
	<path class="maincolor" d="M668.8,692.4c-7.8,39-15.2,78.1-22.3,117.4l55.5,0.1c7.2-39.3,14.7-78.4,22.5-117.5
		C672.9,692.4,628.6,692.4,668.8,692.4z"/>
	<path class="maincolor" d="M761.4,692.3c-7.9,39-15.4,78.2-22.7,117.5l59.6,0.1c7.3-39.3,14.9-78.5,22.9-117.6
		C767,692.3,719,692.3,761.4,692.3z"/>
	<path class="maincolor" d="M858.1,692.3c-8,39.1-15.7,78.3-23,117.6l63.8,0.1c7.4-39.3,15.2-78.6,23.3-117.7
		C865.4,692.3,814.2,692.3,858.1,692.3z"/>
	<path class="maincolor" d="M959,692.3c-8.1,39.1-15.9,78.3-23.4,117.7l67.9,0.1c7.5-39.4,15.4-78.6,23.7-117.8
		C968.2,692.3,914.3,692.3,959,692.3z"/>
	<path class="maincolor" d="M1064.1,692.3c-8.3,39.1-16.2,78.4-23.8,117.8l72,0.1c7.7-39.4,15.7-78.7,24.1-117.9
		C1075.4,692.3,1019,692.3,1064.1,692.3z"/>
	<path class="maincolor" d="M1173.4,692.3c-8.4,39.2-16.5,78.5-24.2,117.9l76.2,0.1c7.8-39.5,16-78.8,24.5-118
		C1187.1,692.3,1128.5,692.3,1173.4,692.3z"/>
	<path class="maincolor" d="M1286.9,692.3c-8.6,39.2-16.8,78.6-24.7,118l80.4,0.1c8-39.5,16.3-78.9,25-118.1
		C1303.3,692.3,1242.8,692.3,1286.9,692.3z"/>
	<path class="maincolor" d="M1404.6,692.3c-8.8,39.2-17.2,78.6-25.2,118.1l84.6,0.1c8.1-39.5,16.7-79,25.6-118.2
		C1424,692.3,1361.8,692.3,1404.6,692.3z"/>
	<path class="maincolor" d="M1526.6,692.3c-9,39.3-17.5,78.7-25.7,118.3l88.7,0.1c8.3-39.6,17-79.1,26.1-118.4
		C1549.2,692.3,1485.7,692.3,1526.6,692.3z"/>
	<path class="maincolor" d="M1652.9,692.3c-9.2,39.3-17.9,78.8-26.3,118.4l93,0.1c8.5-39.6,17.5-79.1,26.8-118.5
		C1679,692.2,1614.4,692.3,1652.9,692.3z"/>
	<path class="maincolor" d="M1783.4,692.2c-9.4,39.4-18.4,78.9-27,118.5l97.2,0.1c8.7-39.7,17.9-79.2,27.4-118.6
		C1813.3,692.2,1748,692.2,1783.4,692.2z"/>
	<path class="maincolor" d="M1918.3,692.2c-9.6,39.4-18.8,79-27.6,118.7l101.4,0.1c9-39.7,18.4-79.3,28.2-118.8
		C1952.4,692.2,1886.6,692.2,1918.3,692.2z"/>
	<path class="maincolor" d="M2057.5,692.2c-9.9,39.4-19.3,79-28.4,118.8l105.7,0.1c9.2-39.8,18.9-79.4,29-118.9
		C2096.1,692.2,2030.1,692.2,2057.5,692.2z"/>
	<path class="maincolor" d="M2201.1,692.2c-10.2,39.5-19.9,79.1-29.2,119l110,0.1c9.5-39.9,19.4-79.6,29.8-119.1
		C2244.5,692.2,2178.7,692.2,2201.1,692.2z"/>
	<path class="maincolor" d="M2349.1,692.2c-10.5,39.5-20.5,79.2-30.1,119.1l114.3,0.1c9.8-39.9,20.1-79.7,30.8-119.2
		C2397.8,692.2,2332.4,692.2,2349.1,692.2z"/>
	<path class="maincolor" d="M2501.5,692.2c-10.8,39.6-21.1,79.3-31,119.3l118.7,0.1c10.1-40,20.7-79.8,31.8-119.4
		C2555.9,692.2,2491.4,692.2,2501.5,692.2z"/>
	<path class="maincolor" d="M2658.5,692.1c-11.2,39.6-21.8,79.4-32.1,119.4l123.1,0.1c10.5-40,21.5-79.9,32.9-119.5
		C2739,692.1,2695.8,692.1,2658.5,692.1z"/>
	<path class="maincolor" d="M2820.1,692.1c-11.6,39.7-22.6,79.5-33.2,119.6l127.5,0.1c10.9-40.1,22.3-80,34.2-119.7
		C2903.9,692.1,2859.3,692.1,2820.1,692.1z"/>
	<path class="maincolor" d="M2986.3,692.1c-12,39.7-23.5,79.6-34.5,119.7l132,0.1c11.3-40.2,23.2-80.1,35.5-119.9
		C3073.5,692.1,3027.6,692.1,2986.3,692.1z"/>
	<path class="maincolor" d="M3157.3,692.1c-12.5,39.7-24.4,79.7-35.9,119.9l136.6,0.1c11.8-40.3,24.2-80.3,37.1-120.1
		C3228.2,692.1,3161.1,692.1,3157.3,692.1z"/>
	<path class="maincolor" d="M3333.1,692.1c-13,39.8-25.5,79.8-37.4,120.1l141.3,0.1c12.4-40.3,25.3-80.4,38.8-120.2
		C3428.3,692.1,3380.7,692.1,3333.1,692.1z"/>
	<path class="maincolor" d="M3513.9,692.1c-13.6,39.8-26.7,79.9-39.2,120.3l146,0.1c13-40.4,26.5-80.6,40.7-120.4
		C3613,692.1,3564.3,692.1,3513.9,692.1z"/>
	<path class="maincolor" d="M3699.9,692c-14.3,39.9-28,80-41.1,120.5l151,0.1c13.7-40.5,28-80.7,42.9-120.6
		C3803.1,692,3753.2,692,3699.9,692z"/>
	<path class="maincolor" d="M3891.2,692c-15.1,39.9-29.6,80.1-43.4,120.7l156,0.1c14.4-40.6,29.6-80.9,45.4-120.8
		C3998.8,692,3947.8,692,3891.2,692z"/>
	<path class="maincolor" d="M4088.1,692c-16,39.9-31.3,80.2-45.9,120.9l161.3,0.1c15.4-40.7,31.4-81.1,48.2-121
		C4200.4,692,4148.4,692,4088.1,692z"/>
	<path class="maincolor" d="M4291.1,692c-17,40-33.3,80.3-48.8,121.1l166.9,0.2c16.4-40.8,33.6-81.2,51.6-121.2
		C4408.5,692,4355.4,692,4291.1,692z"/>
	<path class="maincolor" d="M4500.4,692c-18.2,40-35.6,80.4-52.3,121.3l172.9,0.2c17.7-40.9,36.2-81.4,55.5-121.5
		C4623.5,691.9,4569.3,692,4500.4,692z"/>
	<path class="maincolor" d="M4716.8,691.9c-19.6,40-38.4,80.5-56.3,121.5l179.4,0.2c19.2-41.1,39.3-81.6,60.3-121.7
		C4846.3,691.9,4791.1,691.9,4716.8,691.9z"/>
	<path class="maincolor" d="M4941,691.9c-21.3,40-41.7,80.6-61.2,121.7l147.4,0.1c13.7,0,26.7,0.2,39,0.5c21.1-41.4,43.2-82.2,66.4-122.4
		C5078,691.9,5021.7,691.9,4941,691.9z"/>
	<path class="maincolor" d="M5174.4,691.9c-23.8,40.7-46.7,82.1-68.4,124.1c82,5.1,133.1,18.4,175.1,36c29.6-54.6,61.1-108,94.5-160.1
		C5320.3,691.9,5262.9,691.9,5174.4,691.9z"/>
	<path class="maincolor" d="M5418.6,691.9c-37.2,56.9-72.1,115.4-104.7,175.4c25.3,12.8,49.4,27,78.1,41.3c4,2,32.1,16.9,77.1,40.8
		c48.7-89.6,103.1-175.6,162.7-257.6C5576.1,691.9,5517.4,691.9,5418.6,691.9z"/>
	<path class="maincolor" d="M5676.8,691.8c-64.8,87-123.5,178.7-175.7,274.6c43.6,23.2,97.8,52.1,158.6,84.5
		c69.9-128.3,152.7-248.5,246.6-359.1C5838.7,691.8,5763.3,691.8,5676.8,691.8z"/>
	<path class="maincolor" d="M5953.9,691.8c-100.6,114.9-188.7,241-262.4,376.1c51,27.2,105.8,56.4,162.1,86.5
		c94-172,213.8-327.9,354.1-462.6C6149,691.8,6065.3,691.8,5953.9,691.8z"/>
	<path class="maincolor" d="M6260.5,691.8c-149.6,137.8-276.7,299.7-375,479.6c54.9,29.3,110.8,59.1,165.6,88.4
		c119.2-217.6,285.2-405.9,484.5-551.5c-60.3-10.4-131.8-16.5-217.6-16.5C6317.2,691.8,6297.6,691.8,6260.5,691.8z"/>
	<path class="maincolor" d="M6584.2,718.1c-207,144.8-379.1,336.1-501.1,558.7c59,31.5,116.3,62.1,169.2,90.3
		c128.9-234.4,320.7-429.3,552.6-562.2c-53.1-25-92.2-43.4-99.6-46.7C6671.4,742.9,6631.8,729.1,6584.2,718.1z"/>
	<path class="maincolor" d="M6845,823.9c-236,129.6-431,324.4-560.8,560.3c68.5,36.6,128.2,68.4,172.8,92.2
		c135.8-245.7,354-439.6,617.3-544.5C7004.4,899.1,6917.2,857.9,6845,823.9z"/>
	<path class="maincolor" d="M7119.6,953.3c-269.6,98.4-493.5,292-630.8,540.1c33.4,17.9,52.6,28.1,52.6,28.1s216.6-401.8,659.3-531.3
		l-1.2,0c-0.3,0-0.6-0.1-1-0.2C7196.8,989.5,7165.6,974.9,7119.6,953.3z"/>
</g>
	<text class="textcolor" transform="matrix(1.46 1.960547e-03 -1.342841e-03 1 599.8055 793.0512)" style="font-family:'Square721BT-BoldExtended'; font-size:109.1441px; text-anchor:start;">
	<tspan x="0" y="0">CUSTOM TEXT</tspan>
</text>
<g>
	<path class="accentcolor" d="M6457.3,1200.9l-13.2,24.9l-76.5-40.4L6457.3,1200.9z M6077.3,1030l26,13.7l-109.8,10.2l-27.1-14.3
		L6077.3,1030z M6164.8,1078.7l-12.4-6.5l52.8,93.7l11.4,6L6164.8,1078.7z M5927.5,950.2l-163.9-86.6l-47.8-13.6l-1,1.8l206.9,109.3
		L5927.5,950.2z M6253.2,1191.7l162.6,85.9l-13.2,25c-0.9,1.8-0.3,3.9,1.5,4.9l85.6,46c1.8,0.9,4,0.3,4.9-1.5l13.5-25.6l11.1,5.8
		c1.8,0.9,3.9,0.3,4.9-1.5l24.6-46.5c0.9-1.8,0.3-3.9-1.5-4.9l-11.1-5.8l38.4-72.6c0.9-1.8,0.3-4-1.4-4.9l-97.3-51.4
		c-0.5-0.3-1-0.5-1.6-0.6l-196.6-34.6c-2.4-0.4-4.6,0.7-5.7,2.8l-30.6,57.9l-40.4-72.9l117.6-10.2c1.9-0.2,3.4-1.2,4.3-2.9l6.8-12.8
		c0.9-1.8,0.3-3.9-1.5-4.9l-125.5-66.3c-1-0.5-2-0.7-3.1-0.6l-59.3,6.3l-28.1-52.6c-0.5-1-1.2-1.7-2.2-2.2l-368.1-194.5
		c-0.7-0.4-1.4-0.6-2.2-0.6l-48.5-2.5c-2.2-0.1-4,1-5.1,2.9l-91.1,172.4c-0.9,1.8-0.3,3.9,1.5,4.9l115,60.8c1.8,0.9,3.9,0.3,4.9-1.5
		l34.5-65.3l163.3,86.3c1.8,0.9,3.9,0.3,4.9-1.5l30.9-58.5c0.9-1.8,0.3-3.9-1.5-4.9l-163.3-86.3l5.4-10.2l168.5,89
		c1.8,0.9,3.9,0.3,4.9-1.5l18.5-35l61.6,109l-126,11.6c-2.1,0.2-3.1,2.5-2,4.2l19,28c0.5,0.8,1.1,1.3,1.9,1.7l98.1,51.8
		c1,0.5,2,0.7,3.1,0.6l66.8-6.9l33.3,59.8c0.5,1,1.2,1.6,2.2,2.1l102.1,54c1.8,0.9,3.9,0.3,4.9-1.5l10.6-20L6253.2,1191.7z
		 M5962.5,896l-224.5-118.6l-39.1-1.4L5626,913.9l32.3,17.1l66.2-125.3c0.9-1.6,2.4-2.5,4.3-2.4l31.3,1.3c0.7,0,1.3,0.2,2,0.5
		l194.3,102.7L5962.5,896z M6079.2,957.5l11.9,6.3l33.4,61.5c0.4,0.7,1.1,1.1,1.9,1l69.1-7.4l26.2,13.8l-95.8,9.6L6079.2,957.5z
		 M6464.1,1255.2l-179.6-94.9c-0.8-0.4-1.6-0.5-2.5-0.3l-27.4,7l26-49.2l191.6,34.1l41.7,22.1l-70.2,132.8l-24.1-12.7l16.5-31.1
		l26.4-3.2c0.6-0.1,1-0.4,1.3-0.9c0.3-0.5,0.9-1.7,0.9-1.7C6465,1256.4,6464.7,1255.5,6464.1,1255.2z M6286.2,1153.7l10.5-19.9
		c0.3-0.5,0.9-0.8,1.5-0.7l162.5,28.5c0.4,0.1,0.7,0.2,1,0.3l40.3,21.3c0.7,0.4,0.9,1.2,0.6,1.9l-0.6,1.1c-0.3,0.6-0.9,0.9-1.5,0.9
		l-24.3-0.7l-26.1,49.3c-0.4,0.7-1.2,0.9-1.9,0.6l-125.6-66.4l-35.8-14.2C6286.2,1155.3,6285.8,1154.4,6286.2,1153.7z M6537,1282.6
		l-4.8,9l-51.8-27.4l1.4-2.6l40.4,13.1L6537,1282.6z"/>
	<g>
		<path class="accentcolor" d="M6132.8,1188.7l-28.5-15.1c-3.9-2-8.7-0.6-10.7,3.3l-5.3,10.1c-2,3.9-0.5,8.5,3.4,10.5l27.3,14.4
			c3.9,2,9.7,1.4,11.8-2.5l5.3-10.1C6138.2,1195.5,6136.7,1190.7,6132.8,1188.7z M6124,1189.2l-15.2-8c-0.7-0.4-1.6-0.1-1.9,0.6
			l-6.9,13.1c-0.4,0.7-0.1,1.6,0.6,1.9l15.2,8c0.7,0.4,1.6,0.1,1.9-0.6l6.9-13.1C6125,1190.4,6124.7,1189.5,6124,1189.2z"/>
		<path class="accentcolor" d="M6371.8,1315l-28.5-15.1c-3.9-2-8.7-0.6-10.7,3.3l-5.3,10.1c-2,3.9-0.5,8.5,3.4,10.5l27.3,14.4
			c3.9,2,9.7,1.4,11.8-2.5l5.3-10.1C6377.2,1321.8,6375.7,1317,6371.8,1315z M6363,1315.5l-15.2-8c-0.7-0.4-1.6-0.1-1.9,0.6
			l-6.9,13.1c-0.4,0.7-0.1,1.6,0.6,1.9l15.2,8c0.7,0.4,1.6,0.1,1.9-0.6l6.9-13.1C6364,1316.7,6363.7,1315.8,6363,1315.5z"/>
		<path class="accentcolor" d="M6469.3,1371.6l-16.4-8.7l-9.4,17.8l16.4,8.7c0.7,0.4,1.6,0.1,1.9-0.6l8-15.2
			C6470.2,1372.8,6470,1372,6469.3,1371.6z M6478.1,1371.1l-34.4-18.2c-0.5-0.3-1.2-0.1-1.5,0.5l-11.6,22c-0.3,0.5-0.1,1.2,0.5,1.5
			l33.2,17.5c3.9,2,9.7,1.4,11.8-2.5l5.3-10.1C6483.4,1378,6481.9,1373.2,6478.1,1371.1z"/>
		<path class="accentcolor" d="M6401.1,1335.6l16.4,8.7l-4,7.6l-17.3-9.1c-0.2-0.1-0.3-0.4-0.2-0.6c0.2-0.4,3.1-5.9,3.1-5.9
			C6399.6,1335.5,6400.4,1335.2,6401.1,1335.6z M6396.6,1328.1l34.4,18.2c0.5,0.3,0.7,0.9,0.5,1.5l-11.6,22
			c-0.3,0.5-0.9,0.7-1.5,0.5l-10.3-5.5c-0.5-0.3-0.7-0.9-0.5-1.5l3.9-7.5l-17.3-9.1c-0.3-0.2-0.7,0-0.9,0.3l-3.6,6.9
			c-0.3,0.5-0.9,0.7-1.5,0.5l-10.3-5.4c-0.5-0.3-0.7-0.9-0.5-1.5c0.5-0.9,8.4-15.9,8.4-15.9
			C6387.9,1327.5,6392.7,1326,6396.6,1328.1z"/>
		<path class="accentcolor" d="M6310.1,1287.5l-16.4-8.7l-4,7.6l17.3,9.1c0.2,0.1,0.5,0,0.6-0.2c0.2-0.4,3.1-5.9,3.1-5.9
			C6311.1,1288.8,6310.8,1287.9,6310.1,1287.5z M6318.9,1287.1l-34.4-18.2c-0.5-0.3-1.2-0.1-1.5,0.5l-11.6,22
			c-0.3,0.5-0.1,1.2,0.5,1.5l10.3,5.5c0.5,0.3,1.2,0.1,1.5-0.5l3.5-6.7l9.4,14.3c0.2,0.4,0.5,0.6,0.9,0.9l16.2,8.6
			c0.6,0.3,1.1-0.3,0.8-0.9l-8.3-13.9l5.3,2.8c3.3,1.8,7.8,0.4,9.5-2.9l1.1-2.2C6324.3,1293.9,6322.8,1289.1,6318.9,1287.1z"/>
		<path class="accentcolor" d="M6184.9,1234.7l1.2-2.4c0.3-0.5,0.1-1.2-0.5-1.5l-29.2-15.4l3-5.7c0.4-0.7,1.2-0.9,1.8-0.6l28,14.8
			c0.5,0.3,1.2,0.1,1.5-0.5l1.2-2.3c0.3-0.5,0.1-1.2-0.5-1.5l-34.5-18.2c-3.9-2-8.7-0.6-10.7,3.3l-8.4,15.9
			c-0.3,0.5-0.1,1.2,0.5,1.5l10.4,5.5c0.5,0.3,1.2,0.1,1.5-0.5l3.3-6.3c0.4-0.7,1.2-0.9,1.8-0.6l28,14.8
			C6184,1235.5,6184.6,1235.3,6184.9,1234.7z"/>
		<path class="accentcolor" d="M6237.7,1262.6l1.2-2.4c0.3-0.5,0.1-1.2-0.5-1.5l-29.2-15.4l3-5.7c0.4-0.7,1.2-0.9,1.8-0.6l28,14.8
			c0.5,0.3,1.2,0.1,1.5-0.5l1.2-2.3c0.3-0.5,0.1-1.2-0.5-1.5l-34.5-18.2c-3.9-2-8.7-0.6-10.7,3.3l-8.4,15.9
			c-0.3,0.5-0.1,1.2,0.5,1.5l10.4,5.5c0.5,0.3,1.2,0.1,1.5-0.5l3.3-6.3c0.4-0.7,1.2-0.9,1.8-0.6l28,14.8
			C6236.7,1263.3,6237.4,1263.1,6237.7,1262.6z"/>
	</g>
</g>
<g>
	<path class="maincolor" d="M7171.4,1696.4c4.8,17.7,9.5,35.4,14.2,53.2c1,10.3,2,22.5,3,36.2c-8.7-33.8-17.7-67.5-26.8-101.1
		C7165.3,1687.9,7168.5,1691.8,7171.4,1696.4z"/>
	<path class="maincolor" d="M7119.4,1666.5c0.5,1.7,1,3.5,1.4,5.2c-0.2-0.1-0.5-0.2-0.7-0.3c-2.4-1.2-4.8-2.2-7.2-3
		c-0.7-0.2-1.2-0.9-1.1-1.7c0.1-0.8,1-1.4,1.8-1.2L7119.4,1666.5z"/>
	<path class="maincolor" d="M7158.8,1814.6c14.2,55.7,27.8,111.6,40.8,167.7c0.7,20.4,1.1,38,1.1,50.7c-12.3-54.9-25.3-109.6-38.8-164.1
		C7160.9,1850.8,7159.9,1832.3,7158.8,1814.6z"/>
	<path class="maincolor" d="M7163.3,2031.8c8.9,39.3,17.5,78.7,25.7,118.2c-2.3,9.7-5,19.7-8.4,29.9c-7.4-36.2-15.1-72.3-23.1-108.3
		C7160.4,2057.9,7162.2,2044.7,7163.3,2031.8z"/>
	<path class="maincolor" d="M7135.3,2139.5c7,33.2,13.9,66.4,20.5,99.7c-4.2,8.4-8.8,17.1-13.6,25.7c-6.4-33-13.1-66-20-98.8
		C7127,2156.9,7131.5,2148,7135.3,2139.5z"/>
	<path class="maincolor" d="M7095.2,2213.6c6.7,32.8,13.1,65.7,19.4,98.6c-5.9,9.7-11.8,19-17.5,27.8c-6.2-33-12.5-66-19.1-98.9
		C7083.5,2232.5,7089.3,2223.2,7095.2,2213.6z"/>
	<path class="maincolor" d="M7049.4,2283.3c6.5,33.1,12.7,66.3,18.7,99.5c-4,5.6-7.4,10.2-9.9,13.4c-3.5,4.5-7.3,10-11.5,16.2
		c-6-33.7-12.2-67.2-18.6-100.7c6-7.5,10.9-14.7,15.3-20.4C7045,2289.3,7047.1,2286.6,7049.4,2283.3z"/>
	<path class="maincolor" d="M6996.7,2340c6.8,35.9,13.3,71.8,19.6,107.9c-7.9,6.9-17,13.1-27.8,17.8c-6.6-38.2-13.4-76.4-20.6-114.4
		C6979,2348.9,6988.5,2344.9,6996.7,2340z"/>
	<path class="maincolor" d="M6931.7,2354.7c7.5,39.9,14.7,79.8,21.6,119.9c-1.1,0.1-2.3,0.2-3.4,0.3l-31.5,0c-6.8-39.7-14-79.3-21.5-118.7
		C6907.7,2355.8,6919.5,2355.3,6931.7,2354.7z"/>
	<path class="maincolor" d="M6860.4,2357.4c7.4,39.1,14.5,78.3,21.3,117.5l-39,0c-6.8-39.1-13.9-78.2-21.4-117.1c19.8,0,19.9,0,19.9,0
		S6848.5,2357.7,6860.4,2357.4z"/>
	<path class="maincolor" d="M6784.5,2357.8c7.5,38.9,14.6,78,21.5,117.1l-43.1,0c-6.9-39.2-14.1-78.2-21.6-117.2
		C6783.7,2357.8,6808.1,2357.8,6784.5,2357.8z"/>
	<path class="maincolor" d="M6704.5,2357.8c7.6,39,14.8,78,21.8,117.2l-47.3,0c-7-39.2-14.3-78.3-21.9-117.3
		C6702.7,2357.8,6737.1,2357.8,6704.5,2357.8z"/>
	<path class="maincolor" d="M6620.2,2357.8c7.7,39,15,78.1,22,117.3l-51.4,0c-7.1-39.2-14.5-78.4-22.2-117.4
		C6617.4,2357.8,6657.4,2357.8,6620.2,2357.8z"/>
	<path class="maincolor" d="M6531.8,2357.8c7.8,39,15.2,78.1,22.3,117.4l-55.5,0.1c-7.2-39.3-14.7-78.4-22.5-117.5
		C6527.7,2357.8,6572.1,2357.8,6531.8,2357.8z"/>
	<path class="maincolor" d="M6439.3,2357.8c7.9,39,15.4,78.2,22.7,117.5l-59.6,0.1c-7.3-39.3-14.9-78.5-22.9-117.6
		C6433.7,2357.8,6481.7,2357.8,6439.3,2357.8z"/>
	<path class="maincolor" d="M6342.5,2357.8c8,39.1,15.7,78.3,23,117.6l-63.8,0.1c-7.4-39.3-15.2-78.6-23.3-117.7
		C6335.3,2357.8,6386.4,2357.8,6342.5,2357.8z"/>
	<path class="maincolor" d="M6241.6,2357.8c8.1,39.1,15.9,78.3,23.4,117.7l-67.9,0.1c-7.5-39.4-15.4-78.6-23.7-117.8
		C6232.5,2357.8,6286.4,2357.8,6241.6,2357.8z"/>
	<path class="maincolor" d="M6136.6,2357.8c8.3,39.1,16.2,78.4,23.8,117.8l-72,0.1c-7.7-39.4-15.7-78.7-24.1-117.9
		C6125.2,2357.8,6181.6,2357.8,6136.6,2357.8z"/>
	<path class="maincolor" d="M6027.3,2357.8c8.4,39.2,16.5,78.5,24.2,117.9l-76.2,0.1c-7.8-39.5-16-78.8-24.5-118
		C6013.5,2357.8,6072.1,2357.8,6027.3,2357.8z"/>
	<path class="maincolor" d="M5913.8,2357.7c8.6,39.2,16.8,78.6,24.7,118l-80.4,0.1c-8-39.5-16.3-78.9-25-118.1
		C5897.4,2357.7,5957.9,2357.8,5913.8,2357.7z"/>
	<path class="maincolor" d="M5796,2357.7c8.8,39.2,17.2,78.6,25.2,118.1l-84.6,0.1c-8.1-39.5-16.7-79-25.6-118.2
		C5776.7,2357.7,5838.8,2357.7,5796,2357.7z"/>
	<path class="maincolor" d="M5674,2357.7c9,39.3,17.5,78.7,25.7,118.3l-88.7,0.1c-8.3-39.6-17-79.1-26.1-118.4
		C5651.5,2357.7,5715,2357.7,5674,2357.7z"/>
	<path class="maincolor" d="M5547.8,2357.7c9.2,39.3,17.9,78.8,26.3,118.4l-93,0.1c-8.5-39.6-17.5-79.1-26.8-118.5
		C5521.7,2357.7,5586.3,2357.7,5547.8,2357.7z"/>
	<path class="maincolor" d="M5417.2,2357.7c9.4,39.4,18.4,78.9,27,118.5l-97.2,0.1c-8.7-39.7-17.9-79.2-27.4-118.6
		C5387.3,2357.7,5452.7,2357.7,5417.2,2357.7z"/>
	<path class="maincolor" d="M5282.4,2357.7c9.6,39.4,18.8,79,27.6,118.7l-101.4,0.1c-9-39.7-18.4-79.3-28.2-118.8
		C5248.3,2357.7,5314.1,2357.7,5282.4,2357.7z"/>
	<path class="maincolor" d="M5143.2,2357.7c9.9,39.4,19.3,79,28.4,118.8l-105.7,0.1c-9.2-39.8-18.9-79.4-29-118.9
		C5104.6,2357.7,5170.6,2357.7,5143.2,2357.7z"/>
	<path class="maincolor" d="M4999.6,2357.7c10.2,39.5,19.9,79.1,29.2,119l-110,0.1c-9.5-39.9-19.4-79.6-29.8-119.1
		C4956.1,2357.7,5021.9,2357.7,4999.6,2357.7z"/>
	<path class="maincolor" d="M4851.6,2357.6c10.5,39.5,20.5,79.2,30.1,119.1l-114.3,0.1c-9.8-39.9-20.1-79.7-30.8-119.2
		C4802.9,2357.6,4868.2,2357.6,4851.6,2357.6z"/>
	<path class="maincolor" d="M4699.1,2357.6c10.8,39.6,21.1,79.3,31,119.3l-118.7,0.1c-10.1-40-20.7-79.8-31.8-119.4
		C4644.8,2357.6,4709.3,2357.6,4699.1,2357.6z"/>
	<path class="maincolor" d="M4542.1,2357.6c11.2,39.6,21.8,79.4,32.1,119.4l-123.1,0.1c-10.5-40-21.5-79.9-32.9-119.5
		C4461.6,2357.6,4504.9,2357.6,4542.1,2357.6z"/>
	<path class="maincolor" d="M4380.6,2357.6c11.6,39.7,22.6,79.5,33.2,119.6l-127.5,0.1c-10.9-40.1-22.3-80-34.2-119.7
		C4296.8,2357.6,4341.3,2357.6,4380.6,2357.6z"/>
	<path class="maincolor" d="M4214.4,2357.6c12,39.7,23.5,79.6,34.5,119.7l-132,0.1c-11.3-40.2-23.2-80.1-35.5-119.9
		C4127.2,2357.6,4173,2357.6,4214.4,2357.6z"/>
	<path class="maincolor" d="M4043.4,2357.6c12.5,39.7,24.4,79.7,35.9,119.9l-136.6,0.1c-11.8-40.3-24.2-80.3-37.1-120.1
		C3972.5,2357.6,4039.6,2357.6,4043.4,2357.6z"/>
	<path class="maincolor" d="M3867.6,2357.5c13,39.8,25.5,79.8,37.4,120.1l-141.3,0.1c-12.4-40.3-25.3-80.4-38.8-120.2
		C3772.4,2357.5,3819.9,2357.5,3867.6,2357.5z"/>
	<path class="maincolor" d="M3686.8,2357.5c13.6,39.8,26.7,79.9,39.2,120.3l-146,0.1c-13-40.4-26.5-80.6-40.7-120.4
		C3587.6,2357.5,3636.4,2357.5,3686.8,2357.5z"/>
	<path class="maincolor" d="M3500.8,2357.5c14.3,39.9,28,80,41.1,120.5l-151,0.1c-13.7-40.5-28-80.7-42.9-120.6
		C3397.6,2357.5,3447.4,2357.5,3500.8,2357.5z"/>
	<path class="maincolor" d="M3309.5,2357.5c15.1,39.9,29.6,80.1,43.4,120.7l-156,0.1c-14.4-40.6-29.6-80.9-45.4-120.8
		C3201.9,2357.5,3252.8,2357.5,3309.5,2357.5z"/>
	<path class="maincolor" d="M3112.5,2357.5c16,39.9,31.3,80.2,45.9,120.9l-161.3,0.1c-15.4-40.7-31.4-81.1-48.2-121
		C3000.2,2357.5,3052.3,2357.5,3112.5,2357.5z"/>
	<path class="maincolor" d="M2909.6,2357.4c17,40,33.3,80.3,48.8,121.1l-166.9,0.2c-16.4-40.8-33.6-81.2-51.6-121.2
		C2792.2,2357.4,2845.3,2357.4,2909.6,2357.4z"/>
	<path class="maincolor" d="M2700.2,2357.4c18.2,40,35.6,80.4,52.3,121.3l-172.9,0.2c-17.7-40.9-36.2-81.4-55.5-121.5
		C2577.2,2357.4,2631.3,2357.4,2700.2,2357.4z"/>
	<path class="maincolor" d="M2483.9,2357.4c19.6,40,38.4,80.5,56.3,121.5l-179.4,0.2c-19.2-41.1-39.3-81.6-60.3-121.7
		C2354.4,2357.4,2409.6,2357.4,2483.9,2357.4z"/>
	<path class="maincolor" d="M2259.6,2357.4c21.3,40,41.7,80.6,61.2,121.7l-147.4,0.1c-13.7,0-26.7,0.2-39,0.5
		c-21.1-41.4-43.2-82.2-66.4-122.4C2122.7,2357.4,2179,2357.4,2259.6,2357.4z"/>
	<path class="maincolor" d="M2026.3,2357.4c23.8,40.7,46.7,82.1,68.4,124.1c-82,5.1-133.1,18.4-175.1,36c-29.6-54.6-61.1-108-94.5-160.1
		C1880.3,2357.3,1937.7,2357.3,2026.3,2357.4z"/>
	<path class="maincolor" d="M1782,2357.3c37.2,56.9,72.1,115.4,104.7,175.4c-25.3,12.8-49.4,27-78.1,41.3c-4,2-32.1,16.9-77.1,40.8
		c-48.7-89.6-103.1-175.6-162.7-257.6C1624.6,2357.3,1683.2,2357.3,1782,2357.3z"/>
	<path class="maincolor" d="M1523.9,2357.3c64.8,87,123.5,178.7,175.7,274.6c-43.6,23.2-97.8,52.1-158.6,84.5
		c-69.9-128.3-152.7-248.5-246.6-359.1C1362,2357.3,1437.3,2357.3,1523.9,2357.3z"/>
	<path class="maincolor" d="M1246.7,2357.3c100.6,114.9,188.7,241,262.4,376.1c-51,27.2-105.8,56.4-162.1,86.5
		c-94-172-213.8-327.9-354.1-462.6C1051.7,2357.3,1135.4,2357.3,1246.7,2357.3z"/>
	<path class="maincolor" d="M940.2,2357.2c149.6,137.8,276.7,299.7,375,479.6c-54.9,29.3-110.8,59.1-165.6,88.4
		c-119.2-217.6-285.2-405.9-484.5-551.5c60.3-10.4,131.8-16.5,217.6-16.5C883.5,2357.2,903.1,2357.2,940.2,2357.2z"/>
	<path class="maincolor" d="M616.5,2383.5c207,144.8,379.1,336.1,501.1,558.7c-59,31.5-116.3,62.1-169.2,90.3
		c-128.9-234.4-320.7-429.3-552.6-562.2c53.1-25,92.2-43.4,99.6-46.7C529.2,2408.4,568.9,2394.6,616.5,2383.5z"/>
	<path class="maincolor" d="M355.7,2489.3c236,129.6,431,324.4,560.8,560.3c-68.5,36.6-128.2,68.4-172.8,92.2
		c-135.8-245.7-354-439.6-617.3-544.5C196.2,2564.5,283.4,2523.4,355.7,2489.3z"/>
	<path class="maincolor" d="M81.1,2618.7c269.6,98.4,493.5,292,630.8,540.1c-33.4,17.9-52.6,28.1-52.6,28.1S442.8,2785.1,0,2655.7l1.2,0
		c0.3,0,0.6-0.1,1-0.2C3.9,2654.9,35.1,2640.3,81.1,2618.7z"/>
</g>
	<text class="textcolor" transform="matrix(1.46 1.960547e-03 -1.342841e-03 1 6627.0015 2453.7969)" style="font-family:'Square721BT-BoldExtended'; font-size:109.1441px; text-anchor:end;">
	<tspan x="0" y="0">CUSTOM TEXT</tspan>
</text>
<g>
	<path class="accentcolor" d="M1430.6,2503.2l13.2,24.9l-76.5,40.4L1430.6,2503.2z M1075.3,2720.9l26-13.7l-53.4,96.5l-27.1,14.3
		L1075.3,2720.9z M1164.8,2676l-12.4,6.5l107.2,9.2l11.4-6L1164.8,2676z M925,2799.6l-163.9,86.6l-38.2,31.8l1,1.8l206.9-109.3
		L925,2799.6z M1308,2666.6l162.6-85.9l13.2,25c0.9,1.8,3.1,2.4,4.8,1.5l86.2-44.8c1.8-0.9,2.5-3.1,1.5-4.9l-13.5-25.6l11.1-5.8
		c1.8-0.9,2.4-3.1,1.5-4.9l-24.6-46.5c-0.9-1.8-3.1-2.4-4.9-1.5l-11.1,5.8l-38.4-72.6c-0.9-1.8-3.1-2.5-4.9-1.6l-97.3,51.4
		c-0.5,0.3-1,0.6-1.4,1l-139.3,142.9c-1.7,1.7-2,4.2-0.9,6.3l30.6,57.9l-83-7.7l57.8-102.9c0.9-1.7,1-3.5,0.1-5.2l-6.8-12.8
		c-0.9-1.8-3.1-2.4-4.9-1.5l-125.5,66.3c-1,0.5-1.7,1.2-2.2,2.2l-28.2,52.6l-59.3-6.4c-1.1-0.1-2.1,0.1-3.1,0.6l-368.1,194.5
		c-0.7,0.4-1.3,0.8-1.8,1.5l-29.5,38.7c-1.3,1.7-1.5,3.9-0.5,5.8l91.1,172.4c0.9,1.8,3.1,2.4,4.9,1.5l115-60.8
		c1.8-0.9,2.4-3.1,1.5-4.9l-34.5-65.3l163.3-86.3c1.8-0.9,2.4-3.1,1.5-4.9l-30.9-58.5c-0.9-1.8-3.1-2.4-4.9-1.5l-163.3,86.3
		l-5.4-10.2l168.5-89c1.8-0.9,2.4-3.1,1.5-4.9l-18.5-35l124.8,10.6l-61.4,110.6c-1,1.8,0.3,4,2.4,4l33.8,0.1c0.9,0,1.7-0.2,2.5-0.6
		l98.1-51.8c1-0.5,1.7-1.2,2.2-2.2l32-59.1l68.2,6.2c1.1,0.1,2-0.1,3-0.6l102.1-54c1.8-0.9,2.4-3.1,1.5-4.9l-10.6-20L1308,2666.6z
		 M899.9,2740.2l-224.5,118.6l-23.2,31.5l72.9,137.9l32.3-17.1l-66.2-125.3c-0.9-1.6-0.7-3.4,0.4-4.9l18.7-25.1
		c0.4-0.6,0.9-1,1.5-1.3L906.1,2752L899.9,2740.2z M1016.5,2678.5l11.9-6.3l69.6,7.1c0.8,0.1,1.6-0.3,1.9-1l32.8-61.2l26.2-13.8
		l-46.1,84.6L1016.5,2678.5z M1479.2,2528.2l-179.6,94.9c-0.8,0.4-1.3,1-1.6,1.9l-9.6,26.6l-26-49.2l136.1-139l41.7-22.1l70.2,132.8
		l-24.1,12.7l-16.5-31.1l12.2-23.7c0.3-0.5,0.3-1,0-1.5c-0.3-0.5-0.9-1.7-0.9-1.7C1480.8,2528.1,1479.9,2527.9,1479.2,2528.2z
		 M1295.2,2617.9l-10.5-19.9c-0.3-0.5-0.2-1.2,0.2-1.6l115.1-118.2c0.3-0.3,0.5-0.5,0.9-0.6l40.3-21.3c0.7-0.4,1.5-0.1,1.9,0.6
		l0.6,1.1c0.3,0.6,0.3,1.2-0.1,1.7l-14.3,19.7l26.1,49.3c0.4,0.7,0.1,1.5-0.6,1.9l-125.6,66.4l-31.9,21.5
		C1296.5,2618.9,1295.6,2618.7,1295.2,2617.9z M1543,2483.4l4.8,9l-51.8,27.4l-1.4-2.6l33.6-26L1543,2483.4z"/>
	<g>
		<path class="accentcolor" d="M1237.7,2764.4l-28.5,15.1c-3.9,2-5.3,6.8-3.3,10.7l5.3,10.1c2,3.9,6.7,5.1,10.6,3.1l27.3-14.4
			c3.9-2,6.6-7.3,4.6-11.1l-5.3-10.1C1246.3,2763.9,1241.5,2762.4,1237.7,2764.4z M1233.1,2772l-15.2,8c-0.7,0.4-1,1.2-0.6,1.9
			l6.9,13.1c0.4,0.7,1.2,1,1.9,0.6l15.2-8c0.7-0.4,1-1.2,0.6-1.9l-6.9-13.1C1234.7,2771.9,1233.8,2771.6,1233.1,2772z"/>
		<path class="accentcolor" d="M1476.7,2638.1l-28.5,15.1c-3.9,2-5.3,6.8-3.3,10.7l5.3,10.1c2,3.9,6.7,5.1,10.6,3.1l27.3-14.4
			c3.9-2,6.6-7.3,4.6-11.1l-5.3-10.1C1485.3,2637.6,1480.5,2636.1,1476.7,2638.1z M1472.1,2645.7l-15.2,8c-0.7,0.4-1,1.2-0.6,1.9
			l6.9,13.1c0.4,0.7,1.2,1,1.9,0.6l15.2-8c0.7-0.4,1-1.2,0.6-1.9l-6.9-13.1C1473.7,2645.6,1472.8,2645.3,1472.1,2645.7z"/>
		<path class="accentcolor" d="M1578.4,2589.5l-16.4,8.7l9.4,17.8l16.4-8.7c0.7-0.4,1-1.2,0.6-1.9l-8-15.2
			C1579.9,2589.4,1579.1,2589.1,1578.4,2589.5z M1582.9,2582l-34.4,18.2c-0.5,0.3-0.7,0.9-0.5,1.5l11.6,22c0.3,0.5,0.9,0.7,1.5,0.5
			l33.2-17.5c3.9-2,6.6-7.3,4.6-11.1l-5.3-10.1C1591.6,2581.4,1586.8,2579.9,1582.9,2582z"/>
		<path class="accentcolor" d="M1510.2,2625.5l16.4-8.7l4,7.6l-17.3,9.1c-0.2,0.1-0.5,0-0.6-0.2c-0.2-0.4-3.1-5.9-3.1-5.9
			C1509.3,2626.8,1509.5,2625.9,1510.2,2625.5z M1501.4,2625l34.4-18.2c0.5-0.3,1.2-0.1,1.5,0.5l11.6,22c0.3,0.5,0.1,1.2-0.5,1.5
			l-10.3,5.5c-0.5,0.3-1.2,0.1-1.5-0.5l-3.9-7.5l-17.3,9.1c-0.3,0.2-0.4,0.6-0.3,0.9l3.6,6.9c0.3,0.5,0.1,1.2-0.5,1.5l-10.3,5.4
			c-0.5,0.3-1.2,0.1-1.5-0.5c-0.5-0.9-8.4-15.9-8.4-15.9C1496.1,2631.9,1497.6,2627.1,1501.4,2625z"/>
		<path class="accentcolor" d="M1419.2,2673.6l-16.4,8.7l4,7.6l17.3-9.1c0.2-0.1,0.3-0.4,0.2-0.6c-0.2-0.4-3.1-5.9-3.1-5.9
			C1420.8,2673.5,1419.9,2673.2,1419.2,2673.6z M1423.8,2666.1l-34.4,18.2c-0.5,0.3-0.7,0.9-0.5,1.5l11.6,22
			c0.3,0.5,0.9,0.7,1.5,0.5l10.3-5.5c0.5-0.3,0.7-0.9,0.5-1.5l-3.5-6.7l17.1,0.3c0.4,0,0.8-0.1,1.2-0.3l16.2-8.6
			c0.6-0.3,0.4-1.1-0.3-1.1l-16.1-1l5.3-2.8c3.3-1.8,4.7-6.2,2.9-9.5l-1.1-2.2C1432.5,2665.5,1427.7,2664,1423.8,2666.1z"/>
		<path class="accentcolor" d="M1305.1,2747.3l-1.2-2.4c-0.3-0.5-0.9-0.7-1.5-0.5l-29.2,15.4l-3-5.7c-0.4-0.7-0.1-1.5,0.6-1.8l28-14.8
			c0.5-0.3,0.7-0.9,0.5-1.5l-1.2-2.3c-0.3-0.5-0.9-0.7-1.5-0.5l-34.5,18.2c-3.9,2-5.3,6.8-3.3,10.7l8.4,15.9
			c0.3,0.5,0.9,0.7,1.5,0.5l10.4-5.5c0.5-0.3,0.7-0.9,0.5-1.5l-3.3-6.3c-0.4-0.7-0.1-1.5,0.6-1.8l28-14.8
			C1305.1,2748.5,1305.3,2747.9,1305.1,2747.3z"/>
		<path class="accentcolor" d="M1357.8,2719.4l-1.2-2.4c-0.3-0.5-0.9-0.7-1.5-0.5l-29.2,15.4l-3-5.7c-0.4-0.7-0.1-1.5,0.6-1.8l28-14.8
			c0.5-0.3,0.7-0.9,0.5-1.5l-1.2-2.3c-0.3-0.5-0.9-0.7-1.5-0.5l-34.5,18.2c-3.9,2-5.3,6.8-3.3,10.7l8.4,15.9
			c0.3,0.5,0.9,0.7,1.5,0.5l10.4-5.5c0.5-0.3,0.7-0.9,0.5-1.5l-3.3-6.3c-0.4-0.7-0.1-1.5,0.6-1.8l28-14.8
			C1357.9,2720.6,1358.1,2720,1357.8,2719.4z"/>
	</g>
</g>
</svg>
