<?xml version="1.0" encoding="utf-8"?>
<!-- Generator: Adobe Illustrator 27.9.1, SVG Export Plug-In . SVG Version: 6.00 Build 0)  -->
<svg class="w" version="1.1" xmlns="http://www.w3.org/2000/svg" xmlns:xlink="http://www.w3.org/1999/xlink" x="0px" y="0px" viewBox="0 0 1000 233.3" style="enable-background:new 0 0 1000 233.3;" xml:space="preserve">
     $gradientDefs

<path class="maincolor" d="M947.1,1.2c-14.7-0.1-650.8-2.9-792.5,1.4c-14.7,0.4-69.6,6.5-88,11c-13.1,3.2-45.1,13.5-58,22
	c-16.5,10.9-6,12,4.5,11.2C127.2,38.3,350.7,39,447,43.4c113,5.1,138.3,52.3,162.9,88.9c33.2,49.4,61.3,100.8,61.3,100.8
	s271.2-1.6,324.4-2.4c5.5-0.1,5.8-2.6,1.2-5.2c-11-6.4-24-16.2-40.4-33.4c-4-4.2-10.1-10-12.9-40c-2.5-26.3-4.4-102.1-3.5-114.1
	c1.2-14.9,6.4-25.6,11.8-30.6C956,3.5,952.1,1.3,947.1,1.2z"/>
<path class="accentoutline" d="M880.9,0.6C809.2,0.3,737.4,0.1,665.6,0c-0.7,0-1.4,0-2.2,0c0.1,0.6,0.2,1.1,0.3,1.7c1.8,8.2,3.4,16.4,4.9,24.6
	c0.3,1.8,1.3,3.4,2.6,4.6c-2.1,2.3-2.1,5.1-1.4,7.9c1.8,8.1,3.4,16.3,4.9,24.5c0.3,1.6,1.3,3.2,2.6,4.3c-1.8,1.9-2.2,4.5-1.6,7
	c1.7,8.1,3.3,16.1,4.8,24.3c0.5,2.3,1,3.9,2.8,5.5c-2,2.2-2.1,4.9-1.4,7.5c1.8,8.2,3.4,16.4,4.9,24.6c0.3,1.8,1.3,3.4,2.6,4.6
	c-2,2.3-2,5.1-1.4,7.9c1.8,8,3.3,16.1,4.8,24.1c0.3,1.7,1.3,3.5,2.6,4.7c-2.1,2.2-2.1,4.9-1.4,7.6c1.8,8.2,3.4,16.4,4.9,24.6
	c0.3,1.8,1.3,3.4,2.6,4.6c-2.1,2.3-2.1,5.1-1.4,7.9c0.8,3.6,1.5,7.2,2.3,10.9l21.8-0.1c40.3-0.2,93.5-0.6,134.6-0.9l34.5-0.2
	c2.3,0,15.2-0.1,26.2-0.2c-0.1-1-0.3-2-0.6-3c-1.6-7.3-3.1-14.5-4.4-21.8c-0.4-2.1-1.6-3.9-3.4-5c2.7-2.2,2.8-5.2,2.1-8.2
	c-1.7-7.7-3.3-15.4-4.6-23.2c-0.4-2.2-1.7-4.3-3.6-5.4c2.7-2.2,2.9-5.4,2.1-8.5c-1.6-7.3-3-14.6-4.4-21.9c-0.5-2.7-1.5-4.8-3.7-6.3
	c3.7-2.9,2.5-7.1,1.6-10.9c-1.5-6.8-2.9-13.6-4.1-20.4c-0.4-2.1-1.6-4-3.4-5.3c2.6-2.1,2.7-5.1,2-8c-1.6-7.3-3-14.6-4.4-22
	c-0.6-2.9-1.4-5.2-3.8-6.9c3.6-3,2.4-7.1,1.5-11c-1.5-6.8-2.9-13.6-4-20.4c-0.4-2.2-1.7-4.1-3.5-5.3c2.6-2,2.9-5.1,2.1-8.2
	C882.2,6.9,881.6,3.7,880.9,0.6z"/>
<path class="accentcolor" d="M872.5,231.8c14-0.1,27.7-0.2,40.6-0.3c-0.1-0.4-0.2-0.8-0.3-1.2c-1.6-7.4-3.1-14.8-4.5-22.2
	c-0.1-0.4-0.4-0.8-0.8-1c-1.7-1-3.4-1.8-5.1-2.5c-0.5-0.2-1-0.2-1.5,0l-0.7,0.3c-4.8,1.1-9.7,2.4-14.4,3.8c-1.3,0.8-2.2,2-2.8,3.4
	c-0.9,1.7-1.9,3.4-2.9,5.1c-0.6,0.6-1.5,1-2.4,1.1c-0.7,0.1-1.4,0.3-2.1,0.6c-0.4,0.2-0.7,0.6-0.8,1L872.5,231.8z"/>
<path class="accentcolor" d="M839.9,232c7.2,0,14.4-0.1,21.5-0.1c0.7-3.3,1.3-6.6,2-9.9c0.1-0.5-0.1-1-0.5-1.2c-3.7-2.8-7.3-5.6-11-8.3
	c-0.4-0.3-0.9-0.4-1.4-0.3c-4.5,1.4-8.9,2.8-13.4,4.3c-1,0.4-2.1,0.8-3.1,1.2c-0.1,0.1-0.2,0.2-0.3,0.3c-0.1,0.1-0.1,0.2,0,0.3
	c0.3,0.9,0.8,1.7,1.4,2.4c2,3,4,6.1,6,9.2c0.2,0.3,0.3,0.6,0.2,0.9c-0.1,0.3-0.3,0.5-0.5,0.7C840.5,231.6,840.2,231.8,839.9,232z"/>
<path class="accentcolor" d="M808.8,232.2c5.5,0,11-0.1,16.6-0.1c0.9-0.9,1.7-1.9,2.5-2.9c0.3-0.5,0.4-1.2,0.1-1.7c-1.5-2.4-3.1-4.7-4.7-7
	c-0.2-0.3-0.6-0.6-1-0.6c-2,0.2-4.1,0.4-6.2,0.4c-1.5-0.4-2.9-1.2-4-2.2c-2.4-1.1-4.5-2.9-5.9-5.2c-0.2-0.2-0.5-0.3-0.8-0.3
	c-0.6,0-1.2,0.1-1.8,0.3c-3.4,0.2-6.6,1.7-8.8,4.4c-0.9,0.8-1.8,1.7-2.8,2.6c-0.3,0.4-0.3,0.9,0,1.4c1.6,2.5,3.3,4.9,5.1,7.3
	c0.3,0.4,0.8,0.6,1.2,0.6c1.7-0.2,3.3-0.3,5-0.4c0.7-0.1,1.5,0.1,2,0.6C806.4,230.3,807.6,231.2,808.8,232.2z"/>
<path class="accentcolor" d="M759.4,232.5c8.6-0.1,17.6-0.1,26.9-0.2c-1.1-1.6-2.1-3.2-3.2-4.7c-1.3-1.9-2.6-3.9-3.9-5.9
	c-0.2-0.3-0.2-0.6-0.2-0.9c0.1-0.3,0.3-0.6,0.6-0.8c4.4-3,8.8-6,13.3-8.8l1.3-0.7l0.7-0.1c3.3,0.1,6.6-0.2,9.8-1
	c0.2,0,0.4-0.1,0.5-0.3c0.1-0.2,0.2-0.4,0.1-0.6c-0.3-2.3-0.8-4.5-1.5-6.7c-0.8-1.3-2-2.5-3.4-3.3c-0.7-0.5-1.4-1-2.1-1.5
	c-1.3-0.5-2.8-0.6-4.1-0.2c-0.5,0-0.9,0.2-1.3,0.6c-0.4,0.6-0.8,1.1-1.2,1.7c-0.4,0.6-1,1.1-1.7,1.3c-9.4,3.6-18.7,7-28.1,10.4
	c-0.9,0.3-1.5,1.1-1.6,2c-1.2,5.6-2.4,11.1-3.5,16.7c0,0.5,0.1,0.9,0.4,1.3C758.1,231.4,758.8,232,759.4,232.5z"/>
<path class="accentcolor" d="M708.5,232.8c10.4-0.1,22.5-0.1,35.8-0.2c1.7-8.2,3.4-16.4,5-24.6l0.1-0.9c0-0.4-0.3-0.8-0.6-1.1
	c-1.4-0.9-2.9-1.8-4.4-2.5c-1.2-0.3-2.6-0.3-3.7,0.2c-1.8,0.4-3.6,1-5.3,1.7c-0.7,0.5-1.3,1.2-1.7,2c-1.1,1.9-2.3,3.7-3.6,5.5
	c-0.3,0.4-0.8,0.7-1.3,0.9c-4.9,1.9-9.8,3.5-14.9,5c-1.2,0.2-2.5,0.1-3.8-0.1c-1.1-0.1-2.2-0.2-3.4-0.3l-0.8,0.1
	c-0.2,0.1-0.4,0.3-0.4,0.6c0,0.6,0,1.2,0.2,1.8C706.9,224.9,707.7,228.9,708.5,232.8z"/>
<path class="accentcolor" d="M893,197.3c2.3-1,4.7-1.6,7.1-2c1.9,0.4,3.7,0.9,5.5,1.7c0.4,0.1,0.7,0.2,1.1,0.3l0.3,0
	c0.2-0.1,0.3-0.3,0.3-0.5c0-0.5-0.1-1-0.2-1.5c-1.8-7.8-3.3-15.7-4.7-23.6c-0.1-0.5-0.4-1-0.8-1.3c-1.2-0.7-2.4-1.3-3.6-1.8
	c-0.7-0.4-1.5-0.7-2.4-0.7l-0.7,0.2c-5.3,1.1-10.5,2.5-15.7,4.2c-0.4,0.3-0.8,0.6-1,1.1c-1.4,2.4-2.7,4.8-4.1,7.2
	c-0.2,0.4-0.6,0.6-1,0.7c-0.9,0.2-1.9,0.4-2.8,0.6c-0.7,0.1-1.2,0.6-1.4,1.3l-4.5,22.6c-0.1,0.4,0.1,0.9,0.4,1.2
	c1.6,1.5,3.3,3,5.1,4.3c0.3,0.1,0.6,0.2,1,0.1c2.3-0.4,4.7-1,6.9-1.7l1.1-0.6l0.3-0.5c1.5-2.5,3.1-5.1,4.8-7.5
	c0.3-0.4,0.8-0.7,1.3-0.9C887.8,199,890.4,198.1,893,197.3z"/>
<path class="accentcolor" d="M841.6,207.6c3.7-1.3,7.4-2.5,11.1-3.8c0.4-0.2,0.8-0.5,0.9-0.9c1.3-5.9,2.6-11.8,3.8-17.7
	c0.1-0.4-0.1-0.8-0.4-1c-3.6-2.9-7.3-5.7-11-8.4c-0.6-0.4-1.5-0.5-2.2-0.2l-15.4,5c-0.3,0.1-0.5,0.2-0.7,0.4
	c-0.1,0.2-0.2,0.4-0.1,0.6c0.1,0.3,0.2,0.6,0.4,0.8c2.5,3.7,4.9,7.4,7.3,11.1c0.2,0.4,0.1,0.8-0.1,1.1c-0.5,0.4-0.9,0.7-1.5,1
	c-4.3,2.5-8.6,5.1-12.9,7.5c-0.5,0.2-1,0.3-1.5,0.3c-3.3-0.2-6.6,0.1-9.8,0.9c-0.2,0-0.4,0.2-0.5,0.3c-0.1,0.2-0.1,0.4-0.1,0.6
	c0.3,2.3,0.9,4.6,1.6,6.8c0.8,1.3,1.9,2.4,3.3,3.2c0.7,0.5,1.4,1.1,2.1,1.5c0.9,0.4,1.9,0.5,2.8,0.3c0.7,0,1.5-0.1,2.2-0.4l0.4-0.2
	c0.2-0.2,0.4-0.5,0.6-0.8c0.5-1,1.2-1.8,2.2-2.3L841.6,207.6z"/>
<path class="accentcolor" d="M817.3,184.1c-0.2-0.4-0.6-0.7-1.1-0.8c-0.6-0.1-1.2,0-1.8,0.1c-1.5,0.2-2.9,0.4-4.4,0.5
	c-0.6-0.1-1.2-0.3-1.7-0.7c-2.4-1.5-4.8-3.2-7-5c-0.4-0.4-0.6-0.9-0.8-1.4c-0.1-0.3-0.4-0.6-0.7-0.6c-0.5,0-1,0-1.5,0.2
	c-3.4,0-6.7,1.5-9,4c-1.2,1-2.3,2.1-3.3,3.2c-0.1,0.1-0.1,0.3-0.2,0.4c0,0.1,0,0.3,0,0.4c0.9,1.5,1.8,2.9,2.9,4.3
	c0.8,1.1,1.5,2.2,2.4,3.2c0.2,0.2,0.3,0.3,0.6,0.5c0.2,0.1,0.4,0.2,0.6,0.2c1.2,0.1,2.4,0,3.6-0.3c0.7-0.1,1.3-0.2,2-0.2
	c0.5,0,1,0.2,1.4,0.6c2.7,2,5.2,4.1,7.5,6.5c0.2,0.4,0.4,0.8,0.6,1.2c0.1,0.3,0.3,0.6,0.5,0.8c0.2,0.2,0.5,0.2,0.8,0.2
	c4.6-0.4,8.7-2.8,11.3-6.6c0.7-0.7,1.4-1.5,2-2.4c0.2-0.3,0.2-0.8,0-1.1C820.6,188.7,819,186.4,817.3,184.1z"/>
<path class="accentcolor" d="M733.2,198.5c0.4-0.4,1-0.6,1.5-0.7c0.9-0.2,1.7-0.4,2.6-0.6c0.4-0.1,0.8-0.5,0.9-0.9
	c1.8-8.5,3.5-17.1,5.2-25.6c0.1-0.5-0.1-1-0.4-1.4c-1.4-0.9-2.9-1.8-4.5-2.6c-0.7-0.4-1.6-0.5-2.3-0.2c-2.2,0.5-4.3,1.1-6.4,1.8
	c-0.5,0.2-0.9,0.6-1.2,1.1c-1.5,2.1-3,4.3-4.3,6.5c-0.5,0.7-1.3,1.2-2.1,1.4c-4.9,1.8-9.9,3.3-14.9,4.7c-2.2-0.2-4.4-0.3-6.6-0.4
	l-0.8,0.1c-0.2,0.1-0.3,0.3-0.3,0.5c0,0.5,0.1,1,0.2,1.5c1.9,8.3,3.5,16.7,5,25.1c0.1,0.5,0.4,0.9,0.9,1.2c1.7,0.9,3.4,1.8,5.2,2.5
	c0.5,0.1,1,0.1,1.5,0l0.7-0.3c4.8-1.5,9.5-3.2,14.1-5l1.2-0.8l0.3-0.6c1.2-1.9,2.3-3.8,3.3-5.8C732.4,199.6,732.7,199,733.2,198.5z"
	/>
<path class="accentcolor" d="M777.3,191.2c-1.4-2.1-2.8-4.2-4.1-6.3c-0.2-0.3-0.2-0.7-0.1-1.1c0.1-0.2,0.3-0.4,0.5-0.5
	c4.8-3.2,9.6-6.4,14.4-9.4c0.6-0.2,1.3-0.3,1.9-0.1c3,0.1,6-0.3,8.9-1c0.2-0.1,0.4-0.3,0.5-0.5l0-0.4c-0.2-2.2-0.7-4.3-1.3-6.5
	l-0.6-1.3l-0.4-0.3c-1.6-1.4-3.3-2.6-5.1-3.7c-1.1-0.6-2.3-0.6-3.5-0.2c-1.1,0.4-2,1.3-2.4,2.5c-0.3,0.5-0.7,0.9-1.2,1.1
	c-9.8,3.7-19.6,7.3-29.3,11c-0.4,0.3-0.7,0.6-0.8,1.1c-1.3,5.8-2.6,11.5-3.7,17.3c-0.1,0.4,0.1,0.8,0.4,1.1
	c3.8,3.3,7.6,6.5,11.5,9.6c0.6,0.5,1.4,0.6,2,0.3c5.2-2.1,10.5-4.2,15.7-6.4c0.2-0.1,0.4-0.4,0.3-0.7l-0.2-0.4
	C779.7,194.7,778.5,192.9,777.3,191.2z"/>
<path class="accentcolor" d="M886.3,160.8c2.3-0.9,4.7-1.7,7.1-2.3c1.2,0,2.3,0.3,3.4,0.7l3.3,1.1c0.3,0.1,0.5,0.1,0.8,0.1
	c0.1,0,0.2-0.1,0.3-0.1c0.1-0.1,0.1-0.2,0.1-0.3c0-0.6,0-1.2-0.2-1.8c-1.6-7.4-3.1-14.9-4.5-22.4l-0.4-1.4c-0.2-0.4-0.6-0.8-1-1
	c-1.3-0.7-2.7-1.4-4-2l-1.6-0.4l-0.7,0.2c-5.1,1.1-10.1,2.4-15,3.9c-1.2,0.8-2.2,2-2.8,3.4c-1,1.9-2.1,3.8-3.3,5.5
	c-0.2,0.2-0.5,0.4-0.8,0.4c-1.1,0.3-2.1,0.5-3.2,0.8c-0.5,0.1-0.8,0.5-1,1l-4.4,22.6c-0.1,0.4,0,0.9,0.3,1.2
	c1.4,1.4,2.9,2.7,4.5,3.9c0.6,0.4,1.4,0.5,2.1,0.4c2.1-0.4,4.2-0.8,6.3-1.3c0.5-0.1,1-0.5,1.2-0.9c1.6-2.8,3.4-5.5,5.3-8.2
	c1.6-1.1,3.4-1.8,5.3-2.2C884.4,161.4,885.3,161.1,886.3,160.8z"/>
<path class="accentcolor" d="M836.3,170.6c3.3-1.1,6.6-2.2,9.9-3.2c0.9-0.3,1.6-1.1,1.7-2.1c1.3-5.6,2.4-11.2,3.5-16.8c0-0.5-0.2-1-0.6-1.3
	c-3.6-2.8-7.3-5.5-11-8.2c-0.4-0.3-0.9-0.4-1.4-0.2c-5.5,1.6-11,3.4-16.4,5.4c-0.1,0.1-0.2,0.2-0.3,0.3c-0.1,0.1-0.1,0.2-0.1,0.3
	c0.3,0.9,0.8,1.7,1.4,2.4c2,3,4,5.9,5.9,8.9l0.4,0.8c0,0.3,0,0.5-0.2,0.7c-0.4,0.5-0.9,0.9-1.5,1.2c-4.3,2.6-8.6,5.1-12.9,7.5
	l-1.4,0.4l-0.8-0.2c-3.1-0.1-6.2,0.2-9.2,0.9c-0.3,0.1-0.4,0.3-0.5,0.6c-0.1,0.4-0.1,0.7,0,1.1c0.3,1.9,0.7,3.8,1.2,5.7l0.6,1.3
	l0.5,0.4c1.6,1.4,3.3,2.6,5,3.6c1.5,0.4,3,0.3,4.4-0.1c0.3-0.1,0.5-0.4,0.7-0.6c0.3-0.5,0.6-1,0.9-1.5c0.2-0.5,0.6-0.8,1.1-1
	C823.6,174.7,830,172.6,836.3,170.6z"/>
<path class="accentcolor" d="M811.3,147.3c-0.1-0.2-0.3-0.4-0.5-0.6c-0.2-0.1-0.4-0.2-0.6-0.2c-2.1,0.2-4.1,0.4-6.2,0.4
	c-1.5-0.4-2.9-1.2-4-2.2c-2.3-1.1-4.3-2.7-5.7-4.9c-0.2-0.3-0.6-0.5-1-0.5c-2.3,0.3-4.6,0.8-6.8,1.5c-2.2,1.6-4.3,3.4-6.2,5.3
	c-0.3,0.3-0.5,0.8-0.5,1.3c0,0.3,0.2,0.6,0.3,0.9c1.6,2.3,3.2,4.6,4.8,6.8c0.3,0.4,0.8,0.6,1.3,0.6c1.9-0.2,3.8-0.3,5.7-0.4
	c0.5,0.1,0.9,0.2,1.3,0.5c2.4,2,4.8,4,7.2,6.1c0.4,0.6,0.8,1.2,1,1.9c0.1,0.3,0.3,0.5,0.6,0.6c0.3,0.1,0.5,0.1,0.8,0
	c2.3-0.5,4.6-1.2,6.8-2.1c2.2-2.1,4.3-4.3,6.2-6.7c0.4-0.5,0.4-1.2,0-1.7C814.4,151.8,812.9,149.6,811.3,147.3z"/>
<path class="accentcolor" d="M771,154.1c-1.3-1.9-2.6-3.9-3.9-5.9c-0.2-0.3-0.2-0.6-0.2-0.9c0.1-0.3,0.3-0.6,0.6-0.8c4.3-3,8.8-5.9,13.2-8.7
	l1.3-0.8c0.1,0,0.2-0.1,0.3-0.1c0.4,0,0.8,0,1.2,0c3-0.1,6.1-0.5,9-1.1c0.3,0,0.6-0.3,0.7-0.6c0-0.5,0-1-0.2-1.5
	c-0.3-1.9-0.8-3.8-1.4-5.7c-0.8-1.3-2-2.4-3.3-3.2c-0.7-0.5-1.4-1-2.1-1.5c-1.3-0.5-2.8-0.6-4.1-0.2c-0.5,0-0.9,0.2-1.2,0.6
	c-0.5,0.8-1.1,1.5-1.6,2.2c-0.6,0.5-1.2,0.9-2,1.1c-9.3,3.4-18.7,6.9-28,10.4c-0.6,0.3-1,1-1.1,1.6c-1.2,5.5-2.4,11.1-3.5,16.6
	c-0.1,0.5,0.1,1,0.4,1.4c3.8,3.3,7.7,6.6,11.6,9.7c0.6,0.3,1.2,0.4,1.8,0.1c4.9-1.9,9.7-3.8,14.5-5.8c0.5-0.2,1-0.4,1.4-0.7
	c0.2-0.1,0.2-0.3,0.2-0.5c-0.1-0.3-0.2-0.5-0.4-0.8C773.4,157.6,772.2,155.9,771,154.1z"/>
<path class="accentcolor" d="M727.4,161.8c0.4-0.3,0.8-0.5,1.3-0.5c0.8-0.2,1.7-0.5,2.5-0.6c0.6-0.2,1-0.7,1.1-1.3c1.7-8.1,3.4-16.2,5-24.3
	c0.1-0.5,0.2-1,0.2-1.5c0-0.3-0.1-0.5-0.3-0.7c-0.4-0.4-0.9-0.8-1.5-1c-1.1-0.6-2.1-1.2-3.2-1.8c-0.5-0.3-1-0.4-1.6-0.3l-0.7,0.2
	c-2.2,0.5-4.3,1.1-6.4,1.9c-0.5,0.3-1,0.7-1.3,1.2l-0.5,0.9c-1.2,1.9-2.5,3.7-3.7,5.6c-1.4,1.2-3,2-4.8,2.3
	c-3.8,1.1-7.6,2.4-11.4,3.6c-1.5,0-3-0.1-4.5-0.2c-1-0.1-2.1-0.2-3.1-0.2l-0.4,0.1c-0.2,0.1-0.4,0.3-0.4,0.6c0,0.6,0,1.2,0.2,1.8
	c1.8,8.2,3.4,16.4,4.9,24.6c0.2,0.7,0.7,1.3,1.3,1.6c1.3,0.6,2.6,1.3,3.9,1.8l1.6,0.4l0.7-0.2c4.7-1.4,9.4-3,14.1-4.7
	c0.5-0.2,1.1-0.4,1.6-0.6c0.5-0.5,0.9-1.1,1.2-1.7c1.1-1.9,2.2-3.8,3.2-5.7C726.6,162.5,727,162.1,727.4,161.8z"/>
<path class="accentcolor" d="M880.9,123.8c2.3-1,4.7-1.7,7.1-2c1.3,0.2,2.7,0.6,3.9,1.1c0.7,0.3,1.4,0.5,2.1,0.7c0.3,0.1,0.5,0.1,0.8-0.1
	c0.2-0.1,0.3-0.2,0.3-0.4c-0.2-1.5-0.4-2.9-0.8-4.3c-1.5-6.9-2.9-13.8-4.1-20.8c-0.2-0.7-0.7-1.3-1.4-1.6c-1.5-0.8-3-1.5-4.5-2.1
	c-0.5-0.1-1-0.1-1.5,0c-5.3,1.1-10.5,2.6-15.7,4.2c-0.4,0.3-0.7,0.6-1,1.1c-1.4,2.4-2.7,4.8-4.1,7.2c-0.3,0.4-0.6,0.6-1.1,0.7
	c-0.9,0.2-1.9,0.4-2.8,0.6c-0.7,0.1-1.2,0.6-1.4,1.3l-4.5,22.6c-0.1,0.4,0.1,0.9,0.3,1.2c1.5,1.4,3,2.7,4.7,4
	c0.4,0.3,0.9,0.5,1.4,0.4c2.4-0.3,4.7-0.9,7-1.6c0.5-0.2,0.8-0.5,1.1-0.9c1.6-2.3,3.1-4.7,4.6-7.1l1.1-1.2l0.7-0.3
	C875.7,125.5,878.3,124.6,880.9,123.8z"/>
<path class="accentcolor" d="M834.5,132.4c2.1-0.6,4.2-1.3,6.2-2.1c0.4-0.2,0.8-0.5,0.9-1c1.3-5.9,2.6-11.8,3.8-17.7c0-0.2,0-0.5-0.2-0.7
	c-0.4-0.4-0.8-0.8-1.2-1.1c-3.3-2.6-6.7-5.2-10.1-7.6c-0.6-0.4-1.4-0.5-2.1-0.2c-5.3,1.6-10.6,3.4-15.8,5.1
	c-0.3,0.1-0.5,0.4-0.5,0.8c0.1,0.3,0.2,0.6,0.4,0.8c2.5,3.7,4.9,7.4,7.3,11.1c0.2,0.4,0.2,0.8-0.1,1.1c-0.5,0.4-1,0.8-1.5,1
	c-4.2,2.6-8.5,5-12.8,7.4l-1.4,0.4l-0.8-0.1c-3.1-0.1-6.1,0.3-9.1,1c-0.2,0-0.4,0.1-0.5,0.3c-0.1,0.2-0.2,0.4-0.1,0.6
	c0.3,2.3,0.9,4.5,1.5,6.8c1.1,1.5,2.5,2.9,4.1,3.9c0.8,0.8,1.8,1.2,2.8,1.3c1.1,0,2.1-0.1,3.2-0.2c0.3-0.1,0.6-0.2,0.8-0.5
	c0.4-0.5,0.7-1,1-1.6c1.4-1.5,3.2-2.4,5.3-2.7L834.5,132.4z"/>
<path class="accentcolor" d="M805.2,110.6c-0.3-0.4-0.6-0.7-1.1-0.8c-0.6-0.1-1.2,0-1.8,0.1c-1.5,0.2-2.9,0.3-4.4,0.4
	c-0.6-0.1-1.2-0.3-1.7-0.6c-2.4-1.5-4.7-3.2-7-5c-0.3-0.3-0.5-0.7-0.7-1.1c-0.1-0.3-0.2-0.5-0.4-0.8c-0.1-0.2-0.3-0.3-0.6-0.3
	c-0.5,0-1,0-1.5,0.2c-3.7,0-7.2,1.7-9.6,4.6c-0.9,0.8-1.8,1.7-2.7,2.6c-0.2,0.2-0.2,0.5-0.2,0.8c0.2,0.6,0.6,1.2,1,1.7
	c1.4,2.1,2.8,4.1,4.3,6.1c0.3,0.4,0.7,0.6,1.2,0.5c1.6-0.2,3.3-0.4,4.9-0.6c0.5-0.1,1.1,0,1.5,0.3l0.7,0.5c2.6,1.9,5,3.9,7.2,6.2
	c0.3,0.6,0.6,1.1,0.9,1.7c0.1,0.3,0.4,0.4,0.6,0.5c0.6,0.1,1.2,0,1.8-0.2c3.9-0.4,7.4-2.5,9.5-5.8c0.9-0.9,1.7-1.9,2.5-2.9l0.2-0.4
	c0.1-0.3,0.1-0.6-0.1-0.9C808.5,115.2,806.9,112.9,805.2,110.6z"/>
<path class="accentcolor" d="M721.5,124.8c0.5-0.3,1.1-0.4,1.8-0.5c0.7-0.1,1.4-0.3,2.1-0.5c0.4-0.2,0.6-0.5,0.8-0.8
	c1.8-8.5,3.5-17.1,5.2-25.6c0.1-0.5-0.1-1-0.5-1.3c-1.7-1.1-3.4-2.1-5.2-3c-0.3-0.1-0.6-0.1-1,0c-2.3,0.6-4.6,1.3-6.8,2.1
	c-1.5,1-2.6,2.4-3.3,4c-0.8,1.3-1.6,2.6-2.4,3.8c-0.7,0.7-1.6,1.2-2.6,1.4c-4.7,1.6-9.4,3.1-14.2,4.4c-2.2,0-4.4-0.2-6.6-0.4
	c-0.3,0-0.6,0-0.8,0.1c-0.2,0.1-0.3,0.3-0.3,0.5c0,0.5,0,1,0.2,1.5c1.8,8.3,3.5,16.7,5,25.1c0.1,0.5,0.4,0.9,0.9,1.2
	c1.5,0.9,3.1,1.7,4.7,2.4c0.6,0.3,1.4,0.3,2,0c4.9-1.7,9.8-3.4,14.7-5.1c0.7-0.3,1.4-0.9,1.8-1.6c1.4-2.2,2.7-4.5,3.9-6.8
	C721,125.1,721.2,124.9,721.5,124.8z"/>
<path class="accentcolor" d="M765.2,117.7c-1.3-2-2.6-4-3.9-6c-0.2-0.3-0.3-0.7-0.3-1.1c0-0.2,0.1-0.5,0.2-0.6c0.4-0.4,0.9-0.7,1.5-1
	c4-2.7,8-5.3,12.1-7.9l1.4-0.8c0.1,0,0.3-0.1,0.4-0.1c0.4,0,0.8,0,1.1,0.1c3.1,0.1,6.1-0.2,9.1-1.1c0.3-0.1,0.5-0.3,0.5-0.6
	c0.1-0.4,0.1-0.8,0-1.1c-0.3-1.9-0.7-3.8-1.2-5.7c-0.7-1.2-1.7-2.2-2.9-2.9c-1-0.8-2.2-1.6-3.3-2.2c-1.3-0.3-2.7-0.3-4.1,0
	c-0.3,0.1-0.6,0.3-0.8,0.6c-0.4,0.5-0.7,1.1-1,1.6c-0.3,0.5-0.7,0.9-1.2,1c-9.8,3.7-19.6,7.4-29.4,11.1c-0.4,0.2-0.6,0.6-0.8,1
	c-1.3,5.7-2.6,11.5-3.7,17.3c-0.1,0.4,0.1,0.8,0.3,1.1c3.8,3.3,7.6,6.5,11.5,9.6c0.6,0.5,1.4,0.6,2.1,0.3c5.3-2,10.5-4.2,15.7-6.4
	c0.2-0.1,0.4-0.4,0.3-0.7l-0.2-0.4C767.6,121.2,766.4,119.4,765.2,117.7z"/>
<path class="accentcolor" d="M875.6,86.9c1.8-0.7,3.7-1.3,5.6-1.9c0.5-0.1,1,0,1.5,0.2c1.8,0.6,3.5,1.2,5.3,1.8l0.8,0.1
	c0.2,0,0.3-0.2,0.3-0.3c0-0.5,0-1-0.2-1.4c-1.6-7.4-3.1-14.9-4.4-22.4c-0.2-0.7-0.4-1.5-0.6-2.2c-0.2-0.4-0.6-0.7-1-0.9
	c-1.5-0.8-3.1-1.6-4.8-2.2c-0.5-0.1-1-0.1-1.5,0.1c-4.8,1-9.6,2.2-14.3,3.7l-1.4,0.6c-0.5,0.4-0.9,0.8-1.1,1.4
	c-1.3,2.4-2.7,4.7-4.3,7c-1,0.7-2.1,1.1-3.3,1.2c-0.5,0.1-1,0.3-1.4,0.7c-0.2,0.3-0.3,0.6-0.3,0.9l-4.3,22.4c0,0.3,0.1,0.6,0.3,0.9
	c0.5,0.6,1.1,1.1,1.7,1.6c0.9,0.8,1.9,1.6,2.9,2.3c0.6,0.3,1.4,0.5,2.1,0.4c2.1-0.4,4.2-0.8,6.3-1.3c0.5-0.1,1-0.5,1.3-0.9
	c1.6-2.6,3.2-5.2,4.9-7.8c0.6-0.6,1.3-1,2.1-1.3C870.4,88.6,873,87.7,875.6,86.9z"/>
<path class="accentcolor" d="M823.5,97.4c3.6-1.2,7.3-2.4,11-3.6c0.5-0.2,0.8-0.7,1-1.2c1.4-5.7,2.6-11.5,3.8-17.3c0.1-0.4,0-0.8-0.3-1.2
	c-0.9-0.9-2-1.8-3.1-2.5c-2.8-2-5.5-4.1-8.3-6.1c-0.4-0.3-0.9-0.3-1.4-0.2c-5.5,1.5-11,3.3-16.4,5.3c-0.1,0.1-0.2,0.2-0.3,0.3
	c-0.1,0.1-0.1,0.2-0.1,0.3c0.1,0.4,0.3,0.8,0.6,1.2l6.9,10.4c0.3,0.4,0.3,0.9,0.1,1.3c-0.3,0.4-0.6,0.7-1,0.9
	c-4.2,2.5-8.5,5-12.8,7.4l-1.4,0.7l-0.7,0.1c-3.3-0.2-6.6,0.1-9.9,0.9c-0.3,0.1-0.6,0.4-0.6,0.7c0,0.5,0,1,0.2,1.5
	c0.3,1.7,0.7,3.3,1.2,5l0.6,1.2l0.5,0.4c1.6,1.4,3.3,2.6,5.1,3.7c1.4,0.4,3,0.3,4.4-0.1c0.3-0.1,0.5-0.4,0.7-0.6
	c0.3-0.5,0.6-1,1-1.4c0.4-0.6,0.9-1,1.6-1.2C811.7,101.3,817.6,99.3,823.5,97.4z"/>
<path class="accentcolor" d="M799,73.6c-0.2-0.3-0.6-0.5-0.9-0.5c-2,0.3-4.1,0.5-6.2,0.5c-1.5-0.5-2.9-1.2-4.1-2.3c-1.6-1-3.1-2.1-4.6-3.2
	c-0.4-0.4-0.7-0.9-0.9-1.4l-0.1-0.3c-0.2-0.3-0.6-0.4-1-0.4c-2.3,0.3-4.6,0.8-6.8,1.4c-2.2,1.6-4.2,3.4-6.2,5.2
	c-0.3,0.3-0.5,0.8-0.6,1.2c0.1,0.5,0.3,1,0.7,1.5c1.5,2.1,2.9,4.2,4.5,6.3c0.3,0.4,0.8,0.6,1.3,0.6c1.8-0.1,3.5-0.2,5.3-0.4
	c0.8,0,1.6,0.4,2.2,1c2.3,1.8,4.4,3.7,6.6,5.6c0.5,0.6,0.8,1.2,1,1.9c0.1,0.4,0.4,0.7,0.8,0.8c0.3,0,0.7,0,1-0.1
	c1.9-0.5,3.8-1.1,5.7-1.6c1.5-1,2.8-2.3,4-3.7c1.1-1.1,2.1-2.3,3-3.5c0.3-0.5,0.3-1.2,0-1.7C802.2,78.2,800.7,75.9,799,73.6z"/>
<path class="accentcolor" d="M758.9,80.6c-1.3-1.9-2.6-3.9-3.9-5.9c-0.1-0.3-0.2-0.5-0.2-0.8c0.1-0.3,0.3-0.5,0.5-0.7
	c4.6-3.1,9.3-6.2,13.9-9.3c0.4-0.3,1-0.4,1.5-0.4l0.8,0.1c3,0,6.1-0.4,9.1-1.1c0.3-0.1,0.6-0.3,0.7-0.6c0-0.5,0-1-0.2-1.5
	c-0.3-1.9-0.8-3.8-1.4-5.7c-0.8-1.3-2-2.4-3.3-3.1c-0.7-0.5-1.4-1-2.1-1.5c-0.9-0.4-1.9-0.5-2.8-0.3c-0.6,0-1.2,0.1-1.8,0.2
	c-0.5,0.1-0.9,0.4-1.1,0.9c-0.6,1.1-1.5,2-2.5,2.6c-9.6,3.5-19.1,7.1-28.7,10.7c-0.4,0.2-0.8,0.6-0.9,1c-1.3,5.7-2.5,11.4-3.7,17.1
	c-0.1,0.5,0,0.9,0.2,1.3c3.6,3.3,7.3,6.4,11.2,9.3l1.1,0.7c0.4,0.1,0.9,0.1,1.3,0c5.1-2,10.2-4,15.2-6.1l0.8-0.5
	c0.1-0.1,0.2-0.3,0.2-0.5c-0.1-0.3-0.2-0.6-0.4-0.8C761.3,84.1,760.1,82.4,758.9,80.6z"/>
<path class="accentcolor" d="M714.8,88.8c0.3-0.4,0.7-0.6,1.1-0.8c1-0.3,2.1-0.6,3.1-0.8c0.5-0.1,0.8-0.4,1-0.8c1.8-8.2,3.5-16.5,5.1-24.7
	c0.1-0.4,0.1-0.7,0.2-1.1c0.1-0.4,0-0.8-0.3-1.1c-1.7-1.3-3.5-2.4-5.5-3.2c-0.5-0.1-1,0-1.5,0.2c-2,0.6-4.1,1.2-6.1,1.8
	c-0.5,0.2-0.9,0.5-1.2,0.9c-1.4,2.3-2.9,4.6-4.5,6.8c-0.5,0.7-1.2,1.1-2,1.4c-4.7,1.5-9.5,3.1-14.2,4.6c-2,0-4-0.1-6-0.3
	c-0.6-0.1-1.2-0.1-1.8,0c-0.1,0-0.3,0.1-0.3,0.2c-0.1,0.1-0.1,0.2-0.2,0.3c-0.1,0.4,0,0.8,0,1.1c1.8,8.1,3.4,16.3,4.9,24.5l0.4,1.4
	c0.2,0.4,0.6,0.8,1,1c1.3,0.7,2.6,1.3,4,2c0.7,0.4,1.5,0.4,2.3,0.2c4.9-1.5,9.8-3.2,14.7-4.9l1-0.5c0.5-0.5,0.9-1.1,1.2-1.7
	c0.9-1.6,1.8-3.2,2.7-4.9L714.8,88.8z"/>
<path class="accentcolor" d="M868.9,50.4c2.1-0.8,4.2-1.4,6.4-2c1.3,0,2.7,0.3,3.9,0.9c1.1,0.4,2.3,0.8,3.5,1.1c0.1,0,0.3,0,0.4-0.1
	c0.1-0.1,0.2-0.3,0.2-0.5c-0.2-1.5-0.4-2.9-0.8-4.3c-1.5-6.9-2.9-13.8-4.1-20.8c-0.1-0.5-0.4-0.9-0.9-1.2c-1.6-0.9-3.3-1.8-5.1-2.5
	c-0.5-0.1-1-0.1-1.5,0c-5.1,1.2-10.1,2.5-15.1,4c-0.7,0.2-1.3,0.7-1.6,1.3c-1.3,2.4-2.7,4.8-4,7.1c-0.3,0.4-0.6,0.6-1.1,0.8
	c-1,0.2-1.9,0.4-2.9,0.7c-0.7,0.1-1.2,0.6-1.4,1.2l-4.4,22.6c-0.1,0.4,0,0.9,0.3,1.2c1.5,1.4,3,2.7,4.6,4c0.4,0.3,1,0.5,1.5,0.4
	c2.3-0.4,4.6-0.9,6.9-1.5c0.6-0.2,1.1-0.6,1.4-1.2c1.6-2.5,3.2-5.1,4.8-7.6c0.4-0.4,0.8-0.7,1.3-0.8
	C863.6,52.1,866.2,51.1,868.9,50.4z"/>
<path class="accentcolor" d="M821.8,59.2c2.3-0.8,4.6-1.5,6.9-2.4c0.4-0.2,0.8-0.6,0.9-1c1.3-5.7,2.5-11.4,3.6-17.2c0.1-0.5,0-0.9-0.3-1.3
	c-2.5-2-5-3.9-7.5-5.8c-1.2-0.9-2.4-1.9-3.7-2.7c-0.4-0.3-1-0.4-1.5-0.3c-5.5,1.6-11,3.4-16.5,5.2c-0.3,0.1-0.5,0.4-0.5,0.7
	c0.1,0.3,0.2,0.6,0.4,0.8c2.5,3.7,4.9,7.4,7.3,11.1c0.2,0.4,0.2,0.8-0.1,1.1c-0.5,0.4-1,0.8-1.5,1.1c-4.3,2.5-8.6,5-12.9,7.4
	c-0.4,0.3-0.9,0.4-1.4,0.4c-3.2-0.3-6.3,0-9.4,0.8c-0.5,0.1-0.8,0.4-1,0.8c-0.1,0.6,0,1.2,0.2,1.8c0.1,3.7,2,7,5.2,8.8
	c1.1,1.1,2.7,1.6,4.2,1.4c0.6,0,1.3,0,1.9-0.1c0.3-0.1,0.6-0.3,0.8-0.5c0.5-0.7,0.9-1.4,1.3-2c0.4-0.4,0.9-0.8,1.4-0.9
	C807.1,64,814.4,61.6,821.8,59.2z"/>
<path class="accentcolor" d="M793.1,36.9c-0.2-0.3-0.6-0.6-1-0.6c-2,0.2-4.1,0.4-6.2,0.4c-1.5-0.4-2.9-1.2-4-2.2c-2.4-1.1-4.5-2.9-5.9-5.2
	c-0.2-0.2-0.5-0.3-0.8-0.3c-0.6,0-1.2,0.1-1.8,0.3c-3.4,0.2-6.6,1.7-8.8,4.4c-0.9,0.8-1.8,1.7-2.8,2.6c-0.3,0.4-0.3,0.9,0,1.4
	c1.6,2.5,3.3,4.9,5.1,7.3c0.3,0.4,0.8,0.6,1.2,0.6c1.7-0.2,3.3-0.3,5-0.4c0.7-0.1,1.5,0.1,2,0.6c2.5,2,5,4,7.3,6.2
	c0.4,0.5,0.6,1,0.8,1.6c0,0.2,0.1,0.4,0.3,0.6c0.2,0.1,0.4,0.2,0.6,0.2c0.6,0,1.2-0.1,1.8-0.3c3.5-0.2,6.8-2,8.9-4.9
	c1.1-1.1,2.1-2.3,3.1-3.4c0.3-0.5,0.4-1.2,0.1-1.7C796.3,41.5,794.7,39.2,793.1,36.9z"/>
<path class="accentcolor" d="M753,43.9c-1.3-1.9-2.6-3.9-3.9-5.9c-0.2-0.3-0.2-0.6-0.2-0.9c0.1-0.3,0.3-0.6,0.6-0.8c4.4-3,8.8-6,13.3-8.8
	l1.3-0.7l0.7-0.1c3.3,0.1,6.6-0.2,9.8-1c0.2,0,0.4-0.1,0.5-0.3c0.1-0.2,0.2-0.4,0.1-0.6c-0.3-2.3-0.8-4.5-1.5-6.7
	c-0.8-1.3-2-2.5-3.4-3.3c-0.7-0.5-1.4-1-2.1-1.5c-1.3-0.5-2.8-0.6-4.1-0.2c-0.5,0-0.9,0.2-1.3,0.6c-0.4,0.6-0.8,1.1-1.2,1.7
	c-0.4,0.6-1,1.1-1.7,1.3c-9.4,3.6-18.7,7-28.1,10.4c-0.9,0.3-1.5,1.1-1.6,2c-1.2,5.6-2.4,11.1-3.5,16.7c0,0.5,0.1,0.9,0.4,1.3
	c3.9,3.4,7.8,6.6,11.8,9.8c0.4,0.2,0.8,0.3,1.2,0.2c4.6-1.8,9.1-3.7,13.6-5.5c0.9-0.3,1.9-0.7,2.7-1.3c0.2-0.1,0.2-0.3,0.2-0.5
	l-0.1-0.3C755.5,47.7,754.2,45.8,753,43.9z"/>
<path class="accentcolor" d="M708.9,51.9c0.3-0.4,0.7-0.6,1.2-0.7c1.1-0.2,2.3-0.5,3.4-0.9c0.4-0.2,0.7-0.6,0.8-1.1
	c1.8-8.3,3.5-16.6,5.1-24.9l0.1-0.9c0-0.4-0.3-0.8-0.6-1.1c-1.4-0.9-2.9-1.8-4.4-2.5c-1.2-0.3-2.6-0.3-3.7,0.2
	c-1.8,0.4-3.6,1-5.3,1.7c-0.7,0.5-1.3,1.2-1.7,2c-1.1,1.9-2.3,3.7-3.6,5.5c-0.3,0.4-0.8,0.7-1.3,0.9c-4.9,1.9-9.8,3.5-14.9,5
	c-1.2,0.2-2.5,0.1-3.8-0.1c-1.1-0.1-2.2-0.2-3.4-0.3l-0.8,0.1c-0.2,0.1-0.4,0.3-0.4,0.6c0,0.6,0,1.2,0.2,1.8
	c1.8,8.3,3.5,16.6,5,24.9c0.2,0.5,0.7,1,1.2,1.2c1.5,0.8,3.1,1.6,4.7,2.2c0.5,0.1,1,0.1,1.5-0.1c4.7-1.4,9.4-3,14.1-4.7
	c0.5-0.2,1-0.4,1.5-0.6c0.5-0.5,0.9-1,1.2-1.7C706.3,56.3,707.6,54.1,708.9,51.9z"/>
<path class="accentcolor" d="M874.7,1c-11.1,0-23.3-0.1-36.3-0.1l-4.2,21.1c-0.1,0.4,0.1,0.9,0.4,1.2c1.6,1.5,3.3,3,5.1,4.3
	c0.3,0.1,0.6,0.2,1,0.1c2.3-0.4,4.7-1,6.9-1.7l1.1-0.6l0.3-0.5c1.5-2.5,3.1-5.1,4.8-7.5c0.3-0.4,0.8-0.7,1.3-0.9
	c2.6-1,5.2-1.9,7.8-2.7c2.3-1,4.7-1.6,7.1-2c1.9,0.4,3.7,0.9,5.5,1.7c0.4,0.1,0.7,0.2,1.1,0.3l0.3,0c0.2-0.1,0.3-0.3,0.3-0.5
	c0-0.5-0.1-1-0.2-1.5C876.2,8,875.4,4.5,874.7,1z"/>
<path class="accentcolor" d="M827.1,0.8c-8.9,0-18.3-0.1-27.9-0.1c2,3,4,6,5.9,9c0.2,0.4,0.1,0.8-0.1,1.1c-0.5,0.4-0.9,0.7-1.5,1
	c-4.3,2.5-8.6,5.1-12.9,7.5c-0.5,0.2-1,0.3-1.5,0.3c-3.3-0.2-6.6,0.1-9.8,0.9c-0.2,0-0.4,0.2-0.5,0.3c-0.1,0.2-0.1,0.4-0.1,0.6
	c0.3,2.3,0.9,4.6,1.6,6.8c0.8,1.3,1.9,2.4,3.3,3.2c0.7,0.5,1.4,1.1,2.1,1.5c0.9,0.4,1.9,0.5,2.8,0.3c0.7,0,1.5-0.1,2.2-0.4l0.4-0.2
	c0.2-0.2,0.4-0.5,0.6-0.8c0.5-1,1.2-1.8,2.2-2.3l17.7-5.8c3.7-1.3,7.4-2.5,11.1-3.8c0.4-0.2,0.8-0.5,0.9-0.9
	c1.3-5.9,2.6-11.8,3.8-17.7C827.3,1.3,827.2,1,827.1,0.8z"/>
<path class="accentcolor" d="M787.4,0.7c-10.3,0-20.9-0.1-31.8-0.1c0,0,0,0,0,0c0.9,1.5,1.8,2.9,2.9,4.3c0.8,1.1,1.5,2.2,2.4,3.2
	c0.2,0.2,0.3,0.3,0.6,0.5c0.2,0.1,0.4,0.2,0.6,0.2c1.2,0.1,2.4,0,3.6-0.3c0.7-0.1,1.3-0.2,2-0.2c0.5,0,1,0.2,1.4,0.6
	c2.7,2,5.2,4.1,7.5,6.5c0.2,0.4,0.4,0.8,0.6,1.2c0.1,0.3,0.3,0.6,0.5,0.8c0.2,0.2,0.5,0.2,0.8,0.2c4.6-0.4,8.7-2.8,11.3-6.6
	c0.7-0.7,1.4-1.5,2-2.4c0.2-0.3,0.2-0.8,0-1.1C790.5,5.2,789,2.9,787.4,0.7z"/>
<path class="accentcolor" d="M710.6,0.5c-13.3,0-26.9-0.1-40.8-0.1c1.8,8.2,3.5,16.5,4.9,24.8c0.1,0.5,0.4,0.9,0.9,1.2
	c1.7,0.9,3.4,1.8,5.2,2.5c0.5,0.1,1,0.1,1.5,0l0.7-0.3c4.8-1.5,9.5-3.2,14.1-5l1.2-0.8l0.3-0.6c1.2-1.9,2.3-3.8,3.3-5.8
	c0.3-0.6,0.6-1.2,1.1-1.7c0.4-0.4,1-0.6,1.5-0.7c0.9-0.2,1.7-0.4,2.6-0.6c0.4-0.1,0.8-0.5,0.9-0.9C708.9,8.6,709.8,4.6,710.6,0.5z"
	/>
<path class="accentcolor" d="M742.9,0.6c-6.7,0-13.4,0-20.2,0c-0.6,2.9-1.2,5.8-1.8,8.7c-0.1,0.4,0.1,0.8,0.4,1.1c3.8,3.3,7.6,6.5,11.5,9.6
	c0.6,0.5,1.4,0.6,2,0.3c5.2-2.1,10.5-4.2,15.7-6.4c0.2-0.1,0.4-0.4,0.3-0.7l-0.2-0.4c-1-1.9-2.2-3.6-3.4-5.4
	c-1.4-2.1-2.8-4.2-4.1-6.3C742.9,1,742.9,0.8,742.9,0.6z"/>
</svg>
