<?xml version="1.0" encoding="utf-8"?>
<!-- Generator: Adobe Illustrator 27.9.1, SVG Export Plug-In . SVG Version: 6.00 Build 0)  -->
<svg class="w" version="1.1" xmlns="http://www.w3.org/2000/svg" xmlns:xlink="http://www.w3.org/1999/xlink" x="0px" y="0px"
	 viewBox="0 0 1000 232.8" style="enable-background:new 0 0 1000 232.8;" xml:space="preserve">
     $gradientDefs

<path class="maincolor" d="M965.8,201.2l1.1,29.5c12.3-0.1,22.2-0.2,28.7-0.3c5.5-0.1,5.8-2.6,1.2-5.2C988,220.1,977.9,212.8,965.8,201.2z
	"/>
<path class="maincolor" d="M959,230.8l-1.3-37.8c-0.4-0.4-0.8-0.8-1.2-1.3c-4-4.2-10.1-10-12.9-40c-2.5-26.3-4.4-102.1-3.5-114.1
	c1.1-14.2,5.9-24.5,11-29.9l-0.2-6.3c-1.1-0.3-2.3-0.5-3.7-0.5c-1.7,0-11.7-0.1-28.4-0.1l8.2,230.2C938.5,231,949.3,230.9,959,230.8
	z"/>
<path class="maincolor" d="M917.9,231.1L909.7,0.8c-9,0-19.4-0.1-31-0.1l8.2,230.7C897.6,231.3,908,231.2,917.9,231.1z"/>
<path class="maincolor" d="M876.8,231.5L868.5,0.7c-9.3,0-19.3-0.1-29.9-0.1l8.2,231.1C856.9,231.6,867,231.5,876.8,231.5z"/>
<path class="maincolor" d="M835.7,231.7L827.4,0.5c-9.2,0-18.8-0.1-28.8-0.1l8.3,231.5C816.4,231.9,826,231.8,835.7,231.7z"/>
<path class="maincolor" d="M794.6,232L786.3,0.4c-9,0-18.2,0-27.7-0.1l8.3,231.9C775.8,232.1,785.1,232.1,794.6,232z"/>
<path class="maincolor" d="M753.5,232.3l-8.3-232c-8.7,0-17.6,0-26.6-0.1l8.3,232.2C735.1,232.4,744.1,232.3,753.5,232.3z"/>
<path class="maincolor" d="M712.4,232.5L704.1,0.2c-8.4,0-16.9,0-25.5,0l8.3,232.5C693.6,232.6,702.2,232.6,712.4,232.5z"/>
<path class="maincolor" d="M671.3,232.8L663,0.1c-8.1,0-16.2,0-24.4,0l6.7,187.9C660.8,213.9,671.2,232.8,671.3,232.8
	C671.2,232.8,671.2,232.8,671.3,232.8z"/>
<path class="maincolor" d="M627.5,159.2L621.9,0.1c-7.7,0-15.5,0-23.3,0l4.3,121.5c2.4,3.6,4.7,7.1,7,10.5
	C616,141.1,621.9,150.3,627.5,159.2z"/>
<path class="maincolor" d="M584.2,96.5L580.8,0c-7.4,0-14.8,0-22.2,0l2.7,75.5C570.3,82,577.8,89.1,584.2,96.5z"/>
<path class="maincolor" d="M541.9,63.9L539.7,0c-7,0-14.1,0-21.1,0l2,55.2C528.4,57.8,535.5,60.7,541.9,63.9z"/>
<path class="maincolor" d="M500.3,49.7L498.5,0c-6.7,0-13.4,0-20,0l1.6,46.1C487.3,47.1,494,48.3,500.3,49.7z"/>
<path class="maincolor" d="M459,43.8L457.4,0c-6.3,0-12.6,0-18.9,0l1.5,42.7c2.4,0.1,4.7,0.2,7,0.3C451.1,43.3,455.1,43.5,459,43.8z"/>
<path class="maincolor" d="M417.8,42l-1.5-41.9c-6,0-11.9,0-17.8,0l1.5,41.4C406.2,41.7,412.1,41.8,417.8,42z"/>
<path class="maincolor" d="M376.7,41l-1.5-40.8c-5.6,0-11.2,0-16.7,0.1l1.4,40.4C365.6,40.8,371.2,40.9,376.7,41z"/>
<path class="maincolor" d="M335.5,40.3l-1.4-40c-5.3,0-10.5,0-15.6,0.1l1.4,39.8C325.2,40.2,330.4,40.3,335.5,40.3z"/>
<path class="maincolor" d="M294.4,40L293,0.6c-4.9,0-9.7,0.1-14.5,0.1l1.4,39.3C284.8,40,289.6,40,294.4,40z"/>
<path class="maincolor" d="M253.3,39.9l-1.4-39.1c-4.6,0-9,0.1-13.4,0.1l1.4,39C244.4,40,248.9,40,253.3,39.9z"/>
<path class="maincolor" d="M212.2,40.1l-1.4-38.8c-4.2,0.1-8.3,0.1-12.3,0.2l1.4,38.8C204,40.2,208.1,40.2,212.2,40.1z"/>
<path class="maincolor" d="M171.1,40.6L169.7,2c-4,0.1-7.7,0.2-11.2,0.3l1.4,38.5C163.6,40.8,167.4,40.7,171.1,40.6z"/>
<path class="maincolor" d="M130,41.4l-1.3-36.9c-3.2,0.3-6.6,0.7-10.1,1.1l1.3,36.1C123.3,41.6,126.7,41.5,130,41.4z"/>
<path class="maincolor" d="M89,42.7l-1.2-33c-3.2,0.5-6.2,0.9-9,1.4L80,43C82.9,42.9,85.9,42.8,89,42.7z"/>
<path class="maincolor" d="M47.9,44.5L47,19.2c-2.5,0.8-5.2,1.7-7.8,2.7l0.8,23C42.6,44.7,45.3,44.6,47.9,44.5z"/>
<path class="maincolor" d="M6.9,46.8l-0.4-10C-4.1,44.4-0.1,46.6,6.9,46.8z"/>
</svg>
