<?xml version="1.0" encoding="utf-8"?>
<!-- Generator: Adobe Illustrator 27.9.1, SVG Export Plug-In . SVG Version: 6.00 Build 0)  -->
<svg class="w" version="1.1" id="Graphics" xmlns="http://www.w3.org/2000/svg" xmlns:xlink="http://www.w3.org/1999/xlink" x="0px" y="0px"
	 viewBox="0 0 1000 234" style="enable-background:new 0 0 1000 234;" xml:space="preserve">
     $gradientDefs

<path class="maincolor" d="M947.1,1c-14.7-0.1-650.8-2.9-792.5,1.4c-14.7,0.4-69.6,6.5-88,11c-13.1,3.2-45.1,13.5-58,22
	c-16.5,10.9-6,12,4.5,11.2C127.2,38,350.7,38.7,447,43.1c113,5.1,138.3,52.3,162.9,88.9c33.2,49.4,61.3,100.8,61.3,100.8
	s271.2-1.6,324.4-2.4c5.5-0.1,5.8-2.6,1.2-5.2c-11-6.4-24-16.2-40.4-33.4c-4-4.2-10.1-10-12.9-40c-2.5-26.3-4.4-102.1-3.5-114.1
	c1.2-14.9,6.4-25.6,11.8-30.6C956,3.2,952.1,1,947.1,1z"/>
<text class="textcolor" transform="matrix(1 0 0 1 618.527 128.7837)" textLength="310" lengthAdjust="spacingAndGlyphs" style="font-family:'Arial-Black'; font-size:46.4027px;">
	<tspan x="0" y="0">$textRef</tspan>
</text>
</svg>
