<?xml version="1.0" encoding="utf-8"?>
<!-- Generator: Adobe Illustrator 27.9.1, SVG Export Plug-In . SVG Version: 6.00 Build 0)  -->
<svg class="w" version="1.1" xmlns="http://www.w3.org/2000/svg" xmlns:xlink="http://www.w3.org/1999/xlink" x="0px" y="0px"
	 viewBox="0 0 1000 232.8" style="enable-background:new 0 0 1000 232.8;" xml:space="preserve">
     $gradientDefs

 <path class="maincolor" d="M947.1,1c-14.7-0.1-650.8-2.9-792.5,1.4c-39.3,1.2-69.6,6.5-88,11c-13.1,3.2-45.1,13.5-58,22
	c-16.5,10.9-6,12,4.5,11.2C127.2,38,350.7,38.7,447,43.1c113,5.1,138.3,52.3,162.9,88.9c33.2,49.4,61.3,100.8,61.3,100.8
	s271.2-1.6,324.4-2.4c5.5-0.1,5.8-2.6,1.2-5.2c-11-6.4-24-16.2-40.4-33.4c-4-4.2-10.1-10-12.9-40c-2.5-26.3-4.4-102.1-3.5-114.1
	c1.2-14.9,6.4-25.6,11.8-30.6C956,3.2,952.1,1,947.1,1z"/>
<path class="accentcolor" d="M943.6,7.1C751.3,6.3,559,6,366.7,6.4L274,6.9C234.2,7,194.5,7.6,154.8,8.6c-25.6,0.7-59.7,4.2-86.7,10.9
	c-13.4,3.3-29.5,9-41.5,13.9c-5,2-9.9,4.4-14.5,7.2l0.6,0c87.5-6.6,218.1-7.1,304.9-6.5c43.2,0.2,86.5,1.2,129.7,2.9
	c14.3,0.6,28.6,2.1,42.8,4.5c16.6,2.7,32.8,7.4,48.3,14c15.5,6.7,29.7,16.1,41.8,27.8c13.7,13.2,24.5,29.4,34.9,45.4
	c21.2,31.9,41.1,64.6,59.8,98c91.6-0.5,222.3-1.4,309.2-2.3c-4.2-2.9-8.2-6-12.1-9.3c-7-5.9-13.6-12.3-19.9-19
	c-2.8-2.7-5.1-5.9-6.9-9.4c-1.8-3.6-3.1-7.3-4-11.2c-1.9-7.6-3.1-15.4-3.7-23.2c-2.3-29-2.9-58.5-3.6-87.7
	c-0.3-9.1-0.2-18.2,0.1-27.2C934.4,27.6,937.7,15.1,943.6,7.1z M933.2,13.2c-2.8,6.6-5.1,16.2-5.5,23.7c-0.3,9.2-0.4,18.5-0.1,27.7
	c0.7,29.3,1.3,59,3.6,88.1c0.6,8.1,1.9,16.2,3.9,24.1c2.2,9.2,5.9,16.7,12.5,23.5c5.9,6.3,12.2,12.3,18.7,18
	c-69.8,0.7-212.6,1.6-288,2.1c-18.2-32.4-37.6-64.1-58.2-95.1c-5.5-8.5-11.2-16.9-17.1-25c-16.1-22.1-36.9-39.5-62.3-50.4
	C524.8,43,508.1,38.1,491,35.3c-14.4-2.4-28.9-3.9-43.5-4.5c-43.3-1.7-86.6-2.7-129.9-3c-78-0.6-189.3-0.1-270.6,4.4
	c7.4-2.5,15-4.8,22.6-6.8c26.6-6.6,60.3-10,85.4-10.7c39.7-1,79.4-1.5,119-1.7l92.7-0.5C555.5,12.2,744.4,12.4,933.2,13.2z"/>
<text class="textcolor" transform="matrix(1 0 0 1 625.527 128.7837)" textLength="295" lengthAdjust="spacingAndGlyphs" style="font-family:'Arial-Black'; font-size:46.4027px;">
	<tspan x="0" y="0">$textRef</tspan>
</text>
</svg>
