<?xml version="1.0" encoding="utf-8"?>
<!-- Generator: Adobe Illustrator 27.9.1, SVG Export Plug-In . SVG Version: 6.00 Build 0)  -->
<svg class="w" version="1.1" xmlns="http://www.w3.org/2000/svg" xmlns:xlink="http://www.w3.org/1999/xlink" x="0px" y="0px"
	 viewBox="0 0 1000 232.8" style="enable-background:new 0 0 1000 232.8;" xml:space="preserve">
     $gradientDefs

<path class="maincolor" d="M939.8,49.9c0-5.8,0.1-10.1,0.2-12.3c1.2-14.9,6.4-25.6,11.8-30.6c4.1-3.8,0.3-6-4.7-6
	c-14.7-0.1-650.8-2.9-792.5,1.4c-14.7,0.4-69.6,6.5-88,11c-13.1,3.2-45.1,13.5-58,22c-16.5,10.9-6,12,4.5,11.2
	C127.2,38,350.7,38.7,447,43.1c20.9,0.9,38.8,3.3,54.3,6.8c21.8,4.9,38.7,12.1,52.3,20.5l386.3-4.1
	C939.8,60.2,939.8,54.6,939.8,49.9z"/>
<path class="maincolor" d="M940.1,75.2l-374,3.9c7.4,5.8,13.6,12,19,18.4l355.5-3.8C940.4,87.4,940.2,81.1,940.1,75.2z"/>
<path class="maincolor" d="M941,105l-347,3.7c4,5.4,7.6,10.8,11.1,16l336.6-3.6C941.4,116,941.2,110.6,941,105z"/>
<path class="maincolor" d="M942.3,134.9l-328.2,3.5c3,4.6,6,9.1,8.9,13.6l320.3-3.4C942.9,144.7,942.6,140.1,942.3,134.9z"/>
<path class="maincolor" d="M945.2,164.8l-312.1,3.3c2.4,3.8,4.7,7.6,6.9,11.2l307.6-3.2C946.8,173,945.9,169.3,945.2,164.8z"/>
<path class="maincolor" d="M959.1,194.5l-308,3.3c1.8,3.1,3.6,6,5.2,8.8l311.7-3.3C965.1,200.6,962.2,197.7,959.1,194.5z"/>
<path class="maincolor" d="M994.8,224l-326.6,3.4c1.9,3.4,3,5.3,3,5.3s271.2-1.6,324.4-2.4c5.5-0.1,5.8-2.6,1.2-5.2
	C996.1,224.8,995.5,224.4,994.8,224z"/>
</svg>
