<?xml version="1.0" encoding="utf-8"?>
<!-- Generator: Adobe Illustrator 27.9.1, SVG Export Plug-In . SVG Version: 6.00 Build 0)  -->
<svg class="w" version="1.1" xmlns="http://www.w3.org/2000/svg" xmlns:xlink="http://www.w3.org/1999/xlink" x="0px" y="0px"
	 viewBox="0 0 1000 232.8" style="enable-background:new 0 0 1000 232.8;" xml:space="preserve">
     $gradientDefs

<path class="maincolor" d="M947.1,1c-14.7-0.1-650.8-2.9-792.5,1.4c-37.2,1.1-69.6,6.5-88,11c-13.1,3.2-45.1,13.5-58,22
	c-16.5,10.9-6,12,4.5,11.2C127.2,38,350.7,38.7,447,43.1c113,5.1,138.3,52.3,162.9,88.9c33.2,49.4,61.3,100.8,61.3,100.8
	s271.2-1.6,324.4-2.4c5.5-0.1,5.8-2.6,1.2-5.2c-11-6.4-24-16.2-40.4-33.4c-4-4.2-10.1-10-12.9-40c-2.5-26.3-4.4-102.1-3.5-114.1
	c1.2-14.9,6.4-25.6,11.8-30.6C956,3.2,952.1,1,947.1,1z"/>
<path class="accentcolor" d="M976.7,224.1L976.7,224.1c0-0.1-0.1-0.3-0.2-0.3c-40-1.5-230.5-3.8-298.1-3.4c-18.2-32.4-37.6-64.1-58.2-95.1
	c-5.5-8.5-11.2-16.9-17.1-25c-16.1-22.1-36.9-39.5-62.3-50.4C524.8,43,508.1,38.1,491,35.3c-14.4-2.4-28.9-3.9-43.5-4.5
	c-43.3-1.7-86.6-2.7-129.9-3C149.3,26.6,55,34,23.8,38.3c-0.4,0.1-0.5,0.4-0.5,0.7l0,0.1c0,0.4,0.3,0.7,0.7,0.7
	c87.2-5.8,210.4-6.3,293.5-5.7c43.2,0.2,86.5,1.2,129.7,2.9c14.3,0.6,28.6,2.1,42.8,4.5c16.6,2.7,32.8,7.4,48.3,14
	c15.5,6.7,29.7,16.1,41.8,27.8c13.7,13.2,24.5,29.4,34.9,45.4c21.2,31.9,41.1,64.6,59.8,98c88.9-0.5,214.9-1.3,301.7-2.2
	C976.6,224.4,976.7,224.3,976.7,224.1z"/>
<text class="textcolor" transform="matrix(1 0 0 1 625.527 128.7837)" textLength="295" lengthAdjust="spacingAndGlyphs" style="font-family:'Arial-Black'; font-size:46.4027px;">
	<tspan x="0" y="0">$textRef</tspan>
</text>
</svg>
