<?xml version="1.0" encoding="utf-8"?>
<!-- Generator: Adobe Illustrator 27.9.1, SVG Export Plug-In . SVG Version: 6.00 Build 0)  -->
<svg class="w" version="1.1" xmlns="http://www.w3.org/2000/svg" xmlns:xlink="http://www.w3.org/1999/xlink" x="0px" y="0px"
	 viewBox="0 0 1000 232.8" style="enable-background:new 0 0 1000 232.8;" xml:space="preserve">
     $gradientDefs

<path class="maincolor" d="M947.1,1c-14.7-0.1-650.8-2.9-792.5,1.4c-39.3,1.2-69.6,6.5-88,11c-13.1,3.2-45.1,13.5-58,22
	c-16.5,10.9-6,12,4.5,11.2C127.2,38,350.7,38.7,447,43.1c113,5.1,138.3,52.3,162.9,88.9c33.2,49.4,61.3,100.8,61.3,100.8
	s271.2-1.6,324.4-2.4c5.5-0.1,5.8-2.6,1.2-5.2c-11-6.4-24-16.2-40.4-33.4c-4-4.2-10.1-10-12.9-40c-2.5-26.3-4.4-102.1-3.5-114.1
	c1.2-14.9,6.4-25.6,11.8-30.6C956,3.2,952.1,1,947.1,1z"/>
<path class="accentcolor" d="M977.1,219.3c-1.8-1.4-3.5-2.8-5.2-4.3c-7-5.9-13.6-12.3-19.9-19c-2.8-2.7-5.1-5.9-6.9-9.4
	c-1.8-3.6-3.1-7.3-4-11.2c-1.9-7.6-3.1-15.4-3.7-23.2c-2.3-29-2.9-58.5-3.6-87.7c-0.3-9.1-0.2-18.2,0.1-27.2
	c0.5-9.7,3.9-22.2,9.7-30.2C751.3,6.3,559,6,366.7,6.4L274,6.9C234.2,7,194.5,7.6,154.8,8.6c-25.6,0.7-59.7,4.2-86.7,10.9
	c-13.4,3.3-29.5,9-41.5,13.9c-5,2-9.3,4-13.9,6.8c-0.1,0-0.1,0.1-0.1,0.2l0,0c0,0.1,0.1,0.1,0.2,0.1c9.1-3.9,49.5-23.2,142.2-25.7
	c39.7-1,79.4-1.5,119-1.7l92.7-0.5c188.8-0.4,377.7-0.1,566.5,0.7c-2.8,6.6-5.1,16.2-5.5,23.7c-0.3,9.2-0.4,18.5-0.1,27.7
	c0.7,29.3,1.3,59,3.6,88.1c3.1,39.6,16.8,51.3,45.3,67.4c0.3,0.2,0.6,0.1,0.8-0.1C977.4,219.8,977.4,219.4,977.1,219.3z"/>
<text class="textcolor" transform="matrix(1 0 0 1 620.527 128.7837)" textLength="295" lengthAdjust="spacingAndGlyphs" style="font-family:'Arial-Black'; font-size:46.4027px;">
	<tspan x="0" y="0">$textRef</tspan>
</text>
</svg>
