<svg xmlns="http://www.w3.org/2000/svg" viewBox="0 0 782.29 166"><defs><style>.cls-1{fill:#121212;fill-rule:evenodd;}</style></defs><title>2_4L</title><g id="Layer_2"><g id="Layer_1-2"><path class="cls-1" d="M88.94,110.41l-4.25,11.68H220.74l-16,43.91H0l20.23-55.59q8.06-13.69,25.56-23.6a87.22,87.22,0,0,1,15.94-7q8.26-2.67,19-5.2l100.7-23.1q4.93-.51,5.64-4.32c.12-2.2-1.62-3.3-5.24-3.3H58.72L74.71,0h156.8q17.87,5.07,23.88,16.63t.08,27.79a55.53,55.53,0,0,1-17.66,24.24Q225.22,78.94,207.08,83Z"/><polygon class="cls-1" points="294.55 166 229.59 166 244.09 126.15 308.72 126.15 294.55 166"/><path class="cls-1" d="M464.28,166l13.48-37.06H326.41l18-49.49L524.7,0h66l-33,90.62,29.68-.26-14,38.58H545.11L531.62,166Zm27.53-75.64L507.6,47l-95.38,43.4Z"/><polygon class="cls-1" points="581.28 166 641.7 0 713.81 0 669.37 122.09 782.29 122.09 766.31 166 581.28 166"/></g></g></svg>