<svg xmlns="http://www.w3.org/2000/svg" viewBox="0 0 1452.23 166"><defs><style>.cls-1{fill:#121212;fill-rule:evenodd;}</style></defs><title>3_5L-V6</title><g id="Layer_2" data-name="Layer 2"><g id="Layer_1-2" data-name="Layer 1"><path class="cls-1" d="M0,166l16-43.91H145.91l7.85-21.57H45.94l12.75-35H166.51l7.86-21.58H46.48L62.46,0H209.4a92.81,92.81,0,0,1,22.08,2.41q9.84,2.41,14.82,9.27a20.17,20.17,0,0,1,4.26,11.67,31.54,31.54,0,0,1-1.81,12.44l-6.93,19a55.94,55.94,0,0,1-14.1,17.26,105.05,105.05,0,0,1-10.85,7.36l-6.48,3.81a28.88,28.88,0,0,1,4.24,3.3,24,24,0,0,1,5.57,7.1q4.06,9.39,0,20.56l-8.31,22.85q-5,9.13-17.51,17.26A64,64,0,0,1,174,163.59,104,104,0,0,1,150,166Z"/><polygon class="cls-1" points="287.41 166 222.44 166 236.95 126.15 301.57 126.15 287.41 166"/><path class="cls-1" d="M366.2,0H558.71l-16,43.91H417.56L409,67.52h101.7q17.51,3.3,23.27,15.48a31.51,31.51,0,0,1,2.9,8.38,17.4,17.4,0,0,1-1.27,8.63l-11,30.2q-4.53,12.45-19.45,22.59a83.17,83.17,0,0,1-18.56,9.9A56.58,56.58,0,0,1,467,166H305.78l16-43.91H456.11l7-19.29H328.78Z"/><polygon class="cls-1" points="530.94 166 591.36 0 663.47 0 619.03 122.09 731.95 122.09 715.97 166 530.94 166"/><polygon class="cls-1" points="969.25 0 1038.63 0 1050.58 112.95 1144.75 0 1214.48 0 1070.05 166 992.84 166 969.25 0"/><path class="cls-1" d="M1452.23,0l-16,43.91H1286.93l-8.22,22.59h101.45q8.22-1,22.77,2.66t17.92,8.48q8.16,11.4,2.9,25.83l-9.3,25.57a36.58,36.58,0,0,1-6.83,11.77,73.25,73.25,0,0,1-12.54,10.76,87.12,87.12,0,0,1-18.81,10.76,52,52,0,0,1-19.61,3.67h-131.8q-18-2.81-27.43-13.51-6-6.87-7.78-13.25t1.39-15l29.22-80.29a52.74,52.74,0,0,1,10.83-18.06q7-7.53,19.66-14.31a92.86,92.86,0,0,1,45-11.54ZM1258.47,122.09h91.16l7.2-19.8h-90.47Z"/></g></g></svg>