<svg xmlns="http://www.w3.org/2000/svg" viewBox="0 0 1475.02 166"><defs><style>.cls-1{fill:#121212;fill-rule:evenodd;}</style></defs><title>3_6L-V6</title><g id="Layer_2" data-name="Layer 2"><g id="Layer_1-2" data-name="Layer 1"><path class="cls-1" d="M0,166l16-43.91H145.91l7.85-21.57H45.94l12.75-35H166.51l7.86-21.58H46.48L62.46,0H209.4a92.81,92.81,0,0,1,22.08,2.41q9.84,2.41,14.82,9.27a20.17,20.17,0,0,1,4.26,11.67,31.54,31.54,0,0,1-1.81,12.44l-6.93,19a55.94,55.94,0,0,1-14.1,17.26,105.05,105.05,0,0,1-10.85,7.36l-6.48,3.81a28.88,28.88,0,0,1,4.24,3.3,24,24,0,0,1,5.57,7.1q4.06,9.39,0,20.56l-8.31,22.85q-5,9.13-17.51,17.26A64,64,0,0,1,174,163.59,104,104,0,0,1,150,166Z"/><polygon class="cls-1" points="287.41 166 222.44 166 236.95 126.15 301.57 126.15 287.41 166"/><path class="cls-1" d="M582.18,0l-16,43.91H416.88L408.66,66.5H510.11q8.22-1,22.77,2.66t17.92,8.48Q559,89,553.7,103.47L544.4,129a36.58,36.58,0,0,1-6.83,11.77A73.25,73.25,0,0,1,525,151.57a87.12,87.12,0,0,1-18.81,10.76A52,52,0,0,1,486.61,166H354.81q-18-2.81-27.43-13.51-6-6.87-7.78-13.25t1.39-15l29.22-80.29A52.74,52.74,0,0,1,361,25.85q7-7.53,19.66-14.31A92.86,92.86,0,0,1,425.72,0ZM388.42,122.09h91.16l7.2-19.8H396.31Z"/><polygon class="cls-1" points="553.73 166 614.15 0 686.26 0 641.82 122.09 754.74 122.09 738.76 166 553.73 166"/><polygon class="cls-1" points="992.03 0 1061.42 0 1073.37 112.95 1167.54 0 1237.27 0 1092.84 166 1015.63 166 992.03 0"/><path class="cls-1" d="M1475,0l-16,43.91H1309.72L1301.5,66.5H1403q8.22-1,22.77,2.66t17.92,8.48q8.16,11.4,2.9,25.83L1437.23,129a36.38,36.38,0,0,1-6.82,11.77,73.25,73.25,0,0,1-12.54,10.76,87.12,87.12,0,0,1-18.81,10.76,52,52,0,0,1-19.61,3.67h-131.8q-18-2.81-27.43-13.51-6-6.87-7.78-13.25t1.39-15l29.22-80.29a52.74,52.74,0,0,1,10.83-18.06q7-7.53,19.66-14.31a92.86,92.86,0,0,1,45-11.54ZM1281.26,122.09h91.16l7.2-19.8h-90.47Z"/></g></g></svg>