<svg xmlns="http://www.w3.org/2000/svg" viewBox="0 0 698.4 55.91"><defs><style>.cls-1,.cls-2{fill:#121212;}.cls-2{fill-rule:evenodd;}</style></defs><title>Avenger-Logo</title><g id="Layer_2" data-name="Layer 2"><g id="Layer_1-2" data-name="Layer 1"><polygon class="cls-1" points="150.34 34.08 183.43 0.12 206.09 0.12 151.61 55.89 130.26 55.89 115.87 0.12 141.41 0.12 150.34 34.08"/><polygon class="cls-1" points="305.34 0.12 301.54 11.14 236.17 11.14 232.06 22.65 297.42 22.65 293.62 33.52 228.18 33.52 224.25 44.7 289.68 44.7 285.87 55.89 194.17 55.89 213.77 0.12 305.34 0.12"/><path class="cls-2" d="M698,7c1.14,4.21-.18,8.14-1.49,11.7-1.46,4-3,9.24-5.89,12.67s-8.07,6-17,6l12.22,18.47H656.56l-9.42-13.95H623.27l-5,13.95H591.73L611.2.06h38.72c12.17,0,26.28-.28,35.53.39C690.68.82,696.83,2.75,698,7Zm-30.2,18.41,3.36-9.67c1.35-4.07-2.75-4.64-6.86-4.62H634l-6.74,19.09h27C657.39,30.17,665.88,30.29,667.77,25.37Z"/><path class="cls-2" d="M106.79,9.63C106.46-.73,91.37.12,74.78.12H49.43c-12.27.41-24.29-.92-31.27,7-2.05,2.33-2.79,5.09-3.9,8.24C8.48,31.7.84,53.55,0,55.89H26.3l5-13.94H70.06l-5,13.94H91.53l12.21-34.66C105,17.37,107,13.48,106.79,9.63ZM74.17,30.24H35.44l5.19-14.68c1.34-3.74,5.46-4.39,19.08-4.39,15.48,0,21.22-.18,19.61,4.39Z"/><path class="cls-2" d="M503.91.06,500,11H436.77a2.68,2.68,0,0,0-2.57,1.83l-9.65,27.8a2.72,2.72,0,0,0,2.57,3.62H460a2.68,2.68,0,0,0,2.55-1.76l3.31-8.77h-26l3.66-11.06h52.59l-6.42,18c-1.63,4.82-3.42,12.62-7.92,14.2-4.27,1.51-19.21,1-24.57,1H412.79c-7.53,0-15.38-1.37-16.48-6.06-.77-3.25,1.12-7.7,2.25-11l7.11-20.16c2.08-5.89,3.19-11,7.43-14.17C416.52,1.83,422,.36,426.41.06h77.5Z"/><polygon class="cls-2" points="603.1 0.06 599.3 11.08 533.93 11.08 529.82 22.59 595.18 22.59 591.38 33.46 525.94 33.46 522.01 44.64 587.44 44.64 583.63 55.83 491.93 55.83 511.53 0.06 603.1 0.06"/><path class="cls-2" d="M358.72,55.83h26.45l12.21-34.67c1.28-3.85,3.28-7.74,3.05-11.6C400.1-.8,385,.06,368.42.06H343.07C330.8.47,318.78-.87,311.8,7c-2.05,2.32-2.79,5.08-3.9,8.24-5.78,16.37-13.42,38.22-14.26,40.56h26.3L334.27,15.5c1.34-3.75,5.46-4.39,19.08-4.39,15.48,0,21.22-.19,19.61,4.39Z"/></g></g></svg>