<svg xmlns="http://www.w3.org/2000/svg" viewBox="0 0 699.52 55.87"><defs><style>.cls-1{fill:#121212;fill-rule:evenodd;}</style></defs><title>Avenged</title><g id="Layer_2" data-name="Layer 2"><g id="Layer_1-2" data-name="Layer 1"><polygon class="cls-1" points="150.34 34.04 183.43 0.08 206.09 0.08 151.61 55.85 130.26 55.85 115.87 0.08 141.41 0.08 150.34 34.04"/><polygon class="cls-1" points="305.34 0.08 301.54 11.11 236.17 11.11 232.06 22.61 297.42 22.61 293.62 33.48 228.18 33.48 224.25 44.67 289.68 44.67 285.87 55.85 194.17 55.85 213.77 0.08 305.34 0.08"/><path class="cls-1" d="M106.79,9.59C106.46-.77,91.37.08,74.78.08H49.43c-12.27.41-24.29-.92-31.27,7-2.05,2.33-2.79,5.09-3.9,8.24C8.48,31.66.84,53.51,0,55.85H26.3l5-13.94H70.06l-5,13.94H91.53l12.21-34.66C105,17.34,107,13.45,106.79,9.59ZM74.17,30.2H35.44l5.19-14.68c1.34-3.74,5.46-4.39,19.08-4.39,15.48,0,21.22-.18,19.61,4.39Z"/><path class="cls-1" d="M503.91,0,500,10.93H436.77a2.68,2.68,0,0,0-2.57,1.83l-9.65,27.8a2.72,2.72,0,0,0,2.57,3.62H460a2.68,2.68,0,0,0,2.55-1.76l3.31-8.77h-26l3.66-11.06h52.59l-6.42,18c-1.63,4.82-3.42,12.62-7.92,14.2-4.27,1.51-19.21,1-24.57,1H412.79c-7.53,0-15.38-1.37-16.48-6.06-.77-3.25,1.12-7.7,2.25-11l7.11-20.16c2.08-5.89,3.19-11,7.43-14.17C416.52,1.79,422,.32,426.41,0h77.5Z"/><polygon class="cls-1" points="603.1 0.02 599.3 11.04 533.93 11.04 529.82 22.55 595.18 22.55 591.38 33.42 525.94 33.42 522.01 44.6 587.44 44.6 583.63 55.79 491.93 55.79 511.53 0.02 603.1 0.02"/><path class="cls-1" d="M358.72,55.79h26.45l12.21-34.67c1.28-3.85,3.28-7.74,3.05-11.6C400.1-.83,385,0,368.42,0H343.07C330.8.43,318.78-.91,311.8,7c-2.05,2.32-2.79,5.08-3.9,8.24-5.78,16.37-13.42,38.22-14.26,40.56h26.3l14.33-40.33c1.34-3.75,5.46-4.39,19.08-4.39,15.48,0,21.22-.19,19.61,4.39Z"/><path class="cls-1" d="M633.74,11.63h34.79a2.72,2.72,0,0,1,2.57,3.61L661.44,43a2.66,2.66,0,0,1-2.57,1.83h-37.1Zm-42,44.16h77.5c4.37-.3,9.9-1.78,13.31-4.37,4.24-3.21,5.36-8.27,7.43-14.17l7.12-20.16c1.13-3.32,3-7.77,2.25-11-1.1-4.69-9-6.05-16.48-6.05H611.19Z"/></g></g></svg>