<svg xmlns="http://www.w3.org/2000/svg" viewBox="0 0 793.94 55.86"><defs><style>.cls-1{fill:#121212;fill-rule:evenodd;}</style></defs><title>Revenger</title><g id="Layer_2" data-name="Layer 2"><g id="Layer_1-2" data-name="Layer 1"><polygon class="cls-1" points="248.07 34 281.15 0.04 303.81 0.04 249.34 55.81 227.99 55.81 213.6 0.04 239.14 0.04 248.07 34"/><polygon class="cls-1" points="402.33 0.04 398.54 11.07 333.17 11.07 329.05 22.57 394.42 22.57 390.62 33.44 325.18 33.44 321.25 44.63 386.67 44.63 382.87 55.81 291.17 55.81 310.77 0.04 402.33 0.04"/><path class="cls-1" d="M106.24,7c1.13,4.21-.19,8.14-1.49,11.69-1.46,4-3,9.24-5.89,12.68s-8.07,6-17,6L94.06,55.84H64.83L55.41,41.9H31.54l-5,13.94H0L19.47.07H58.19C70.36.07,84.47-.2,93.72.46,99,.84,105.1,2.77,106.24,7ZM76,25.38l3.36-9.67c1.35-4.07-2.75-4.64-6.86-4.61H42.28L35.53,30.19h27C65.66,30.19,74.15,30.3,76,25.38Z"/><path class="cls-1" d="M600.91,0,597,10.92H533.77a2.68,2.68,0,0,0-2.57,1.82l-9.66,27.81a2.72,2.72,0,0,0,2.57,3.61H557a2.67,2.67,0,0,0,2.54-1.76l3.31-8.77h-26l3.66-11.05h52.58l-6.41,18c-1.63,4.82-3.42,12.62-7.92,14.21-4.28,1.5-19.21,1-24.57,1H509.78c-7.52,0-15.37-1.36-16.48-6.05-.76-3.26,1.13-7.71,2.26-11l7.11-20.16c2.07-5.89,3.19-11,7.43-14.17C513.52,1.77,519,.3,523.41,0h77.5Z"/><polygon class="cls-1" points="700.1 0.04 696.3 11.07 630.93 11.07 626.81 22.57 692.18 22.57 688.38 33.44 622.94 33.44 619.01 44.63 684.43 44.63 680.63 55.81 588.92 55.81 608.53 0.04 700.1 0.04"/><path class="cls-1" d="M455.72,55.82h26.44l12.22-34.66c1.27-3.85,3.28-7.74,3-11.6C497.1-.8,482,.05,465.42.05H440.07c-12.27.41-24.29-.92-31.28,7-2.05,2.33-2.78,5.09-3.89,8.24-5.78,16.37-13.43,38.22-14.26,40.56h26.3l14.33-40.33c1.33-3.74,5.46-4.39,19.08-4.39,15.48,0,21.21-.18,19.61,4.39Z"/><polygon class="cls-1" points="209.17 0.04 205.37 11.07 140 11.07 135.88 22.57 201.25 22.57 197.45 33.44 132.01 33.44 128.08 44.63 193.5 44.63 189.7 55.81 98 55.81 117.6 0.04 209.17 0.04"/><path class="cls-1" d="M793.5,7c1.14,4.21-.18,8.14-1.48,11.69-1.46,4-2.95,9.24-5.89,12.68s-8.08,6-17,6l12.23,18.47H752.1L742.68,41.9H718.81l-5,13.94H687.27L706.74.07h38.72c12.17,0,26.28-.27,35.53.39C786.22.84,792.37,2.77,793.5,7Zm-30.19,18.4,3.36-9.67c1.34-4.07-2.75-4.64-6.86-4.61H729.55L722.8,30.19h27C752.93,30.19,761.41,30.3,763.31,25.38Z"/></g></g></svg>