<svg xmlns="http://www.w3.org/2000/svg" viewBox="0 0 529.81 83.98"><defs><style>.cls-1{fill:#121212;fill-rule:evenodd;}</style></defs><title>SXT-Logo</title><g id="Layer_2" data-name="Layer 2"><g id="Layer_1-2" data-name="Layer 1"><polygon class="cls-1" points="229.9 46.38 153.54 83.98 179.46 83.97 236.89 56.03 257.12 83.97 309.27 83.98 275.46 37.27 352.06 0 324.12 0 268.35 27.45 248.48 0 196.32 0 229.9 46.38"/><polygon class="cls-1" points="417.55 14.57 382.28 83.79 426.68 83.79 461.95 14.57 522.49 14.57 529.81 0.19 364.34 0.19 357.01 14.57 417.55 14.57"/><path class="cls-1" d="M113.44,69.41H7.33L0,83.79H128c7.35,0,16-5.3,19.35-11.85L162.24,42.6c3.34-6.54.09-11.85-7.26-11.85H60.32l8.25-16.18h108L183.86.19H55.9c-7.35,0-16,5.3-19.34,11.84l-15,29.34c-3.33,6.55-.08,11.86,7.27,11.86h92.8Z"/></g></g></svg>