<svg xmlns="http://www.w3.org/2000/svg" viewBox="0 0 740.12 166"><defs><style>.cls-1{fill:#121212;fill-rule:evenodd;}</style></defs><title>2_7L</title><g id="Layer_2" data-name="Layer 2"><g id="Layer_1-2" data-name="Layer 1"><path class="cls-1" d="M88.94,110.42l-4.25,11.67H220.74l-16,43.91H0l20.23-55.58q8.06-13.71,25.56-23.61a87.22,87.22,0,0,1,15.94-7q8.26-2.67,19-5.2l100.7-23.1q4.93-.51,5.64-4.32.19-3.3-5.24-3.3H58.72L74.71,0h156.8q17.87,5.07,23.88,16.63t.08,27.79a55.53,55.53,0,0,1-17.66,24.24Q225.22,78.94,207.08,83Z"/><polygon class="cls-1" points="294.55 166 229.59 166 244.09 126.15 308.72 126.15 294.55 166"/><polygon class="cls-1" points="373.34 0 578.1 0 562.11 43.91 437.41 166 361.9 166 491.71 43.91 357.36 43.91 373.34 0"/><polygon class="cls-1" points="539.11 166 599.52 0 671.63 0 627.2 122.09 740.12 122.09 724.13 166 539.11 166"/></g></g></svg>