<svg xmlns="http://www.w3.org/2000/svg" viewBox="0 0 1358.18 219.73"><defs><style>.cls-1{fill:#121212;fill-rule:evenodd;}</style></defs><title>425HP</title><g id="Layer_2" data-name="Layer 2"><g id="Layer_1-2" data-name="Layer 1"><path class="cls-1" d="M-25040.49-2192.67h111.33v-42.83h36.66v-49.45h-36.66v-123.72h-166l-75.74,129v44.14h130.39Zm-33.55-92.28,33.55-59.08v59.08Z" transform="translate(25170.88 2410.53)"/><path class="cls-1" d="M-24889.69-2192.67h250v-49.45h-94.73l76.75-53.49q10.43-7.29,14.3-16.73t3.68-22.12v-35.13q-.08-19.83-17.38-30.34t-51.08-10.6h-113.11q-33.76.09-51.08,10.6t-17.37,30.34V-2335h111.32v-13a12.87,12.87,0,0,1,3.86-9.64q3.78-3.59,10.35-3.66,7,0,10.09,3.79t3.07,11.38a17.46,17.46,0,0,1-2.64,9,26.06,26.06,0,0,1-7.06,7.46l-129,90.21Z" transform="translate(25170.88 2410.53)"/><path class="cls-1" d="M-24499.6-2255.7v-8.52H-24612v32.47q.06,20,17.37,30.44t51.08,10.51H-24430q34.91.08,51.73-11.3t16.72-35.23v-58q-.08-24.57-18.62-37.12t-54.67-12.6a186.72,186.72,0,0,0-33.29,2.86,178,178,0,0,0-31.76,8.84v-26.1h138.34v-49.19H-24612v127.41h112.36a16.75,16.75,0,0,1,5.07-8,13,13,0,0,1,8.44-2.62c5,0,8.54,1.22,10.7,3.72s3.21,6.41,3.16,11.72v20.76q.08,7.95-3.16,11.72t-10.7,3.72c-4.8,0-8.27-1.22-10.39-3.72S-24499.64-2250.4-24499.6-2255.7Z" transform="translate(25170.88 2410.53)"/><polygon class="cls-1" points="836.3 217.86 945.9 217.86 945.9 124.21 973.96 124.21 973.96 217.86 1083.56 217.86 1083.56 1.86 973.96 1.86 973.96 75.03 945.9 75.03 945.9 1.86 836.3 1.86 836.3 217.86"/><path class="cls-1" d="M-24061.69-2192.67h109.6v-57.73h69.89q37.25.48,53.55-11.1t15.94-41v-59.63q.17-25.24-16.72-36t-52.77-10.5h-179.49ZM-23937.2-2360q8.21,0,11.61,3.86t3.29,11.84v29.55q.12,8-3.34,11.71t-11.9,3.73h-14.55V-2360Z" transform="translate(25170.88 2410.53)"/></g></g></svg>