<svg xmlns="http://www.w3.org/2000/svg" viewBox="0 0 1948.74 446.54"><defs><style>.cls-1{fill:#121212;fill-rule:evenodd;}</style></defs><title>Charger-Script-Logo</title><g id="Layer_2" data-name="Layer 2"><g id="Layer_1-2" data-name="Layer 1"><path class="cls-1" d="M-17134.09-962.36c-21,15.57-41.36,43.3-58.15,70s-21.28,60.71,28.22,19.3c21.81-18.25,54.44-49.61,63.87-61.94s42.34-36.86,18.45-48C-17100.61-991.84-17113-977.93-17134.09-962.36Zm-765.18,85.89c87.61-17.44,89.74-37.43,96.12-45.94s83.36-118.66,91.87-131,26.37-8.08,34-8.08,14,2.13,7.23,11.06-64.22,89.32-85.48,117.81-1.28,21.27,6.8,13.19,88.89-68.9,102.93-80.81,28.07,5.53,32.75,8.93,6.38,13.61,0,20.84-57.85,80.39-63.8,88-31.77,49.38,10.73,19.79,90.42-88.82,104.56-102.28c17.73-16.89,48.23-44.35,74.45-44s37.69,25.6,44,26.87,7.67-16.07,15.27-17.34,32.21-4.15,37.17,1.8c4.22,5.07-62.63,90.25-85.46,127.54-13.35,21.81-1.94,33.34,29.46,12s106.17-103.58,105.2-109.08-14.24-.32-9.06-9.06,14.24-25.58,20.07-26.22,92.9,1,106.49.64-3.14,22.82-5.18,25.9c-8,12.08-54.06,75.42-73.8,106.82-16.75,26.63-.32,24,25.57-1.3,19.72-19.22,37.29-36.14,52.29-51.29,25-25.28,42.89-44.51,51.62-52.94,17.61-17,48.54-40.27,69.24-39.57s37.22,26,43.56,27.17,10-17,17.61-18.27,35.55-2.83,40.55,3.09c4.26,5-88.28,115.46-108.73,150.22,14.35-1.37,68-18.79,79.6-25,2.95-13.19,22-64,58-102.64s66-38.88,84.22-31.83,9.86,46.48-32.33,85.94c-43.21,40.41-73.08,55.39-74.34,57.09s-2,28.22,32.32,21.81c19-3.54,60.15-40.66,79.72-61.93,31.53-34.24,57-62.61,56.36-66.26-1-5.51-14.92,2.37-9.74-6.37s14.92-28.27,20.74-28.92,96.28,1.31,109.87,1-4.14,22.49-6.19,25.56c-40.09,60.15-60,75.68-70.47,99.64-11,25.22,5.07,25,48.6,24.64,18.91-.15,134,1,146.14-3s20.25,8.44,10.8,19.58-15.52,5.06-46.91,5.06-133-1.69-164.7-.34c-29.34,1.25-44.21-5.06-44.89-20.59-1-22.93,59-94.51,66.08-111.36,4.8-11.49-27.19-8.09-34.31-6.15-2.92.8-13.9,17.6-39.49,48.56-61.46,74.35-116.48,107.43-141.53,106.89-42.71-.91-43.52-30.67-46.5-34.45-1.95.48-60.39,21.35-94.42,22.62,0,0-78.86,110.19-105.15,142.89-17.43,21.68-86.82,54.53-63,22.28,23.41-32.57,139.87-181,137.72-186.21-3.43-8.42-36.5,40.78-75.42,31.34-41.82-10.13-2.12-64.85-21-47.83-7.23,6.51-13.31,12.23-28.2,24.53s-34.64,26.54-42.41,26.22-30.17-12.3-29.78-26.22c.65-23,59.24-105.53,67.33-116.86s-27.19-8.09-34.31-6.15c-2.92.8-12.23,19.06-39.49,48.56-39.49,42.73-99.94,104-133.36,104.55-19.43.33-31.08-19.42-31.47-26.22-.51-9,8.25-24.72,7.84-28.48-1-8.74-53.41,52.44-83.84,55.67-10,1.07-30.35-17.38-31.4-24.27-3.56-23.31,10.83-40.34-3.56-27.55-6.78,6-52.85,41.13-65.75,47.6s-18.71,6-29.77-3.83-19.14-10.63-6.38-31,45.51-70.6,51.46-80,7.66-23-12.76-7.65-120.36,102.07-123.76,111-10.64,10.2-17.44,10.2-44.66,6.38-29.77-14.46,39.55-39.55,3.82-26.37-119.1,60.52-343.69,53.28c-219.48-7.08-334.5-69-311.52-129.66,15.93-42,78.76-132.31,300.46-157.53,174.8-19.89,415.94,15.58,408,55.75-7.53,38.06-18.6,110.82-212.85,113.29-104.43,1.32-122.58-18.15-123.46-22.57s15-27.88,21.24-26.11,61.06,13.72,111.51,12.39,157.54-17.7,156.21-50-167.29-51.53-231-49.12c-292.95,11.06-390.74,90.27-389.41,125.23s126.11,82.75,336.75,82.75C-18041.7-853-17986.89-859-17899.27-876.47Zm383.76-80.42c-21,15.57-41.35,43.3-58.14,70s-21.29,60.71,28.22,19.3c21.81-18.24,54.43-49.61,63.86-61.94s42.35-36.86,18.46-48C-17482-986.36-17494.47-972.46-17515.51-956.89Zm524.73,62.47c57.56-35.44,93.42-85.74,86.17-88.24S-16966.24-948.64-16990.78-894.42Z" transform="translate(18522.5 1100.35)"/></g></g></svg>