<svg xmlns="http://www.w3.org/2000/svg" viewBox="0 0 477.6 57.42"><defs><style>.cls-1{fill:#121212;fill-rule:evenodd;}</style></defs><title>MOPAR-Lettering</title><g id="Layer_2"><g id="Layer_1-2"><path class="cls-1" d="M-16963.16,105s-46.48,0-47,0c-11.67.28-17.58,5.72-17.58,16.34V146c0,5.76,1.4,9.94,4.53,12.52,3,2.57,7.66,3.89,14.27,3.89,0,0,46.3-.05,46.8-.07,11.67-.29,17.58-5.72,17.58-16.34V121.34C-16944.56,110.39-16950.82,105-16963.16,105Zm2.94,18v25.48h-51.86V119h51.86Zm39.87-4h47.67c2.78,0,4,1.3,4,3.86V126c0,2.67-1.22,4-4,4h-47.67Zm-15.68,43.18h15.68V144h48.72q18.78,0,18.78-16.45v-6.15q0-16.41-18.78-16.41h-64.4Zm107.37-31.67V123c0-2.76,1.39-4.12,4-4.12h43.51c2.77,0,4,1.36,4,4.12v7.39Zm67.35-9.1c0-10.93-5.74-16.37-17.41-16.37h-47c-12.34,0-18.62,5.44-18.62,16.37v41h15.66V144.43h51.51v17.89h15.84Zm24.2-2.41h47.68c2.61,0,4,1.3,4,3.86V126c0,2.67-1.38,4-4,4h-47.68Zm-15.85,43.18h15.85V144h28.7l20.53,18.24h16.37a45.72,45.72,0,0,0,5.74-.11q-20.87-18-20.87-18.17c11.3,0,17-5.44,17-16.32v-6.19q0-16.48-18.79-16.46H-16753Zm-390.33.23V105.05h16l37.42,37.49,37.76-37.59h15.83v57.37h-15.83V124.76l-37.76,37.49-37.59-37.49v37.56Z" transform="translate(17143.29 -104.95)"/></g></g></svg>