<svg xmlns="http://www.w3.org/2000/svg" viewBox="0 0 460 81.4"><defs><style>.cls-1{fill-rule:evenodd;}</style></defs><g id="Layer_2"><g id="Layer_1-2" ><path class="cls-1" d="M132.82,48c0-1.46,0-2.93-.11-4.4a2.31,2.31,0,0,0-1.66-1.92c-2.56-.71-5.13-1.41-7.7-2.08a2.08,2.08,0,0,1-1.42-2,16.3,16.3,0,0,1,1-5.66,1.5,1.5,0,0,1,1.33-.89,13.29,13.29,0,0,1,4.34.57A41.62,41.62,0,0,1,136.77,34a2.38,2.38,0,0,1,1.34,2.17,34.72,34.72,0,0,1-2.4,8.76,2.25,2.25,0,0,0,.85,2.63,16,16,0,0,0,4,2.53,4.24,4.24,0,0,0,3.65-.91,13.07,13.07,0,0,0,2.93-2.52,1.81,1.81,0,0,0,.18-1.73,32.12,32.12,0,0,1-2.44-8.91,2.18,2.18,0,0,1,1.21-2A50.71,50.71,0,0,1,158.48,31a1.62,1.62,0,0,1,1.59,1,17.33,17.33,0,0,1,1,5.66,2.16,2.16,0,0,1-1.71,2.14,67.42,67.42,0,0,0-8.27,2.15,1.47,1.47,0,0,0-.84,1.12A274.77,274.77,0,0,0,152.35,80a2,2,0,0,0,.69,1.3.51.51,0,0,0,.6,0l.26-.29a53.34,53.34,0,0,0,9.22-15.51,92.94,92.94,0,0,0,.22-15.65c.53-1.84,1.07-3.69,1.62-5.53a113.86,113.86,0,0,0-1.73-26.71A26.5,26.5,0,0,0,149.81,4.32Q146,2.07,142,.08a2,2,0,0,0-1.65.24,119.26,119.26,0,0,0-15.8,9.86,25.32,25.32,0,0,0-6.32,17.53,112.61,112.61,0,0,0,0,17.52,17.16,17.16,0,0,1,1.48,6.46,38.8,38.8,0,0,0,1.09,16.6A60,60,0,0,0,128.48,80l1,1.09h.39a.71.71,0,0,0,.57-.52,7.6,7.6,0,0,0,.33-2.22q1.63-15.12,2-30.34Z"/><path class="cls-1" d="M42,52.25q9.57.06,19.13-.12a1.52,1.52,0,0,0,1.33-.93,6.38,6.38,0,0,0,.19-2.34q.09-6.24-.1-12.5a1.13,1.13,0,0,0-.87-1,24.54,24.54,0,0,0-4-.16q-6.32,0-12.63,0a2.17,2.17,0,0,0-1,.24.7.7,0,0,0-.21.21,2.48,2.48,0,0,0-.2.44,31.53,31.53,0,0,0-.16,4.45c0,.86-.06,1.71-.11,2.56a1.5,1.5,0,0,1-.93,1.31,7.29,7.29,0,0,1-2.33.2q-8.28.24-16.57,0a5,5,0,0,1-3.73-4.91,35.07,35.07,0,0,1,.11-8.38,5.18,5.18,0,0,1,5.5-3.92q17.42.15,34.82.52a1.5,1.5,0,0,0,1.4-.76,3.39,3.39,0,0,0,.21-1.41c0-1.42,0-2.85-.08-4.28a1.48,1.48,0,0,0-.9-1.31A6.72,6.72,0,0,0,58.49,20q-24.39-.09-48.78.1a3.32,3.32,0,0,0-1.85.47A30.47,30.47,0,0,0,.8,26.86a4.28,4.28,0,0,0-.69,2.72q-.25,6.9.09,13.81a5.39,5.39,0,0,0,2.11,3.75,34.87,34.87,0,0,0,3.76,3.32A6.35,6.35,0,0,0,8.78,52l.92.05q16.14.27,32.26.19Z"/><path class="cls-1" d="M423.11,33.26c0-1.65,0-3.31.05-5a1.19,1.19,0,0,1,.56-1,4.07,4.07,0,0,1,1.8-.18q5.48-.06,10.94.12a4.73,4.73,0,0,1-1.84,9.28q-3,0-5.91-.1a1.35,1.35,0,0,0-.86.31.47.47,0,0,0-.16.31.81.81,0,0,0,.11.45,21,21,0,0,0,3.1,3.29q5.13,5.3,10.54,10.3a2.77,2.77,0,0,0,1.73.65l15.76.2a1.47,1.47,0,0,0,.8-.18.6.6,0,0,0,.26-.58,1.47,1.47,0,0,0-.4-.83q-3.81-3.77-7.67-7.51a2.2,2.2,0,0,1-.57-1,.53.53,0,0,1,0-.3,1.17,1.17,0,0,1,.3-.4,14.31,14.31,0,0,0,.41-19.69,4.32,4.32,0,0,0-2.75-.91q-20.14-.29-40.29-.09a2.18,2.18,0,0,0-1,.28,1,1,0,0,0-.44.6,6.33,6.33,0,0,0-.09,1.84q0,13.68.09,27.36a1.67,1.67,0,0,0,.85,1.43,5.35,5.35,0,0,0,2.25.2q5.65,0,11.32,0a1,1,0,0,0,.91-.63,5.31,5.31,0,0,0,.14-1.82V33.26Z"/><path class="cls-1" d="M103.72,48.25c1.75,0,3.51,0,5.27-.09a1.51,1.51,0,0,0,1.29-.77,3.26,3.26,0,0,0,.2-1.35c0-1.1,0-2.2-.1-3.29A1.41,1.41,0,0,0,109,41.39q-9.72-.06-19.44,0a1.3,1.3,0,0,1-1.25-1.28q-.09-9.28-.14-18.56a1.51,1.51,0,0,0-.69-1.36,3.18,3.18,0,0,0-1.36-.27q-8-.11-15.92-.05a1.42,1.42,0,0,0-1.12.64,2.52,2.52,0,0,0-.2,1.05q-.19,12.49,0,25a1.74,1.74,0,0,0,.58,1.26,1.76,1.76,0,0,0,1.32.44l32.93,0Z"/><path class="cls-1" d="M195.89,27.16c-1.65,0-3.3,0-4.95.08a1.13,1.13,0,0,0-1,.62,4.52,4.52,0,0,0-.14,1.83q-.12,4.41,0,8.82a4.82,4.82,0,0,0,.33,1.76,1.17,1.17,0,0,0,.78.61,9,9,0,0,0,2.26.09,84.34,84.34,0,0,0,9.13-.23,5.82,5.82,0,0,0,4.09-6.56,8.8,8.8,0,0,0-.9-4.6,4.83,4.83,0,0,0-4.12-2.29c-1.83-.13-3.67-.18-5.51-.13ZM207,48.24a14,14,0,0,0,15.81-9.44A16.29,16.29,0,0,0,219.29,24a14.79,14.79,0,0,0-12.36-3.67q-16.45,0-32.92,0a2.16,2.16,0,0,0-1,.23.78.78,0,0,0-.26.25,2,2,0,0,0-.23.5,31.13,31.13,0,0,0-.16,5.46q-.09,10,.15,20.07a1.48,1.48,0,0,0,1,1.25,9,9,0,0,0,2.26.11Z"/><path class="cls-1" d="M245.42,32.33c.07-3,.08-6.07,0-9.1a11.46,11.46,0,0,0-.16-1.94,1.24,1.24,0,0,0-1.08-.89q-7.47-.09-14.95,0a1.3,1.3,0,0,0-1.18.65,3.48,3.48,0,0,0-.18,1.28q-.07,12.26,0,24.49a1.34,1.34,0,0,0,.83,1.22,7.41,7.41,0,0,0,2.25.16q6.31.06,12.62,0a2.44,2.44,0,0,0,1.12-.31.86.86,0,0,0,.26-.28,2.14,2.14,0,0,0,.23-.54q.3-6.44.19-12.87c0-.62,0-1.23,0-1.85Z"/><path class="cls-1" d="M278.85,26.26c-3,0-6,0-9,.2a2.5,2.5,0,0,0-2,2.44c-.07,1.69-.08,3.39,0,5.09a1.74,1.74,0,0,0,.55,1.3,1.69,1.69,0,0,0,.87.28q7.73,0,15.44,0a1,1,0,0,0,.9-.61,5.25,5.25,0,0,0,.15-1.81c0-1.48,0-3-.09-4.45a2.35,2.35,0,0,0-2.17-2.22c-1.55-.11-3.1-.17-4.65-.2Zm.92,15.87q2.19,0,4.38.06a1.52,1.52,0,0,1,1.37.82,5.55,5.55,0,0,1,.24,2.22c0,.53.05,1.07.1,1.6a1.31,1.31,0,0,0,.91,1.19,8.72,8.72,0,0,0,2.28.13q5.73.06,11.46-.11a1.58,1.58,0,0,0,1.36-1.46q.18-9.44.05-18.87a3.87,3.87,0,0,0-1.3-2.58,31,31,0,0,0-5.13-4.64,3.32,3.32,0,0,0-1.89-.5q-17.06-.25-34.11-.09a4.67,4.67,0,0,0-2.84,1.4A28.45,28.45,0,0,0,251.76,26a3.16,3.16,0,0,0-.57,1.77q-.28,9.51-.07,19a1.33,1.33,0,0,0,.77,1.14,5.63,5.63,0,0,0,2.16.21q6.17.13,12.34-.11a1.53,1.53,0,0,0,1.29-1.48c0-1,.1-2,.17-2.95a1.52,1.52,0,0,1,.65-1.22,2,2,0,0,1,1.19-.23q5,0,10.08,0Z"/><path class="cls-1" d="M335.38,29.64c0-.75,0-1.5,0-2.25a1,1,0,0,1,.68-.95,5.23,5.23,0,0,1,1.85-.11q3.17,0,6.31-.17a4.67,4.67,0,0,0,2.61-1.51,29.58,29.58,0,0,0,3.26-3.36,1,1,0,0,0,.13-.83.66.66,0,0,0-.48-.49,36.83,36.83,0,0,0-4.58-.14q-20.15,0-40.29,0l-1,.14a.51.51,0,0,0-.37.47,1.68,1.68,0,0,0,.36.83,37.16,37.16,0,0,0,4.4,4.47,3.33,3.33,0,0,0,2,.45q3.52,0,7,.15a1.47,1.47,0,0,1,1.33.92,6.54,6.54,0,0,1,.18,2.33q0,8.44.08,16.89a4.1,4.1,0,0,0,.28,1,1.3,1.3,0,0,0,.77.59,7.79,7.79,0,0,0,2.26.12q5.82,0,11.62-.12a1.4,1.4,0,0,0,1.4-1.35q.15-8.58.12-17.16Z"/><path class="cls-1" d="M376.55,26.52a19.19,19.19,0,0,0-5.34.57,2.9,2.9,0,0,0-1.94,2.56,25.45,25.45,0,0,0,.05,8.17,3.57,3.57,0,0,0,3.56,2.5,68.6,68.6,0,0,0,9.18-.1,2.79,2.79,0,0,0,2.05-1.6,19.18,19.18,0,0,0,.34-9.75,3.26,3.26,0,0,0-3.3-2.19,44.19,44.19,0,0,0-4.6-.16Zm18.41,21q2.75-2.44,5.25-5.1a4,4,0,0,0,1.05-2.7,84.55,84.55,0,0,0-.11-12.83,2.66,2.66,0,0,0-.7-1.31,33.55,33.55,0,0,0-4.57-4.66,4.28,4.28,0,0,0-2.73-.91Q377,19.7,360.86,20a10.68,10.68,0,0,0-6,4.09,6.2,6.2,0,0,0-2.17,5.48A89.54,89.54,0,0,0,353,40.67a3.7,3.7,0,0,0,1,1.6,25.62,25.62,0,0,0,5.92,5.51,14.59,14.59,0,0,0,4.65.52q14.3.08,28.6-.13a4.1,4.1,0,0,0,1.79-.7Z"/></g></g></svg>