<svg xmlns="http://www.w3.org/2000/svg" viewBox="0 0 460 369.41"><defs><style>.cls-1{fill-rule:evenodd;}</style></defs><g id="Layer_2" data-name="Layer 2"><g id="Layer_1-2" data-name="Layer 1"><path class="cls-1" d="M119.22,357.07q.34-14.64.23-29.29l-.09-98.41a14.91,14.91,0,0,0-29.64,3.31q-.14,61.65.13,123.29a14.82,14.82,0,0,0,29.37,1.1Z"/><path class="cls-1" d="M160.7,357.1q.41-16.32.25-32.64.08-47.82-.18-95.65a14.91,14.91,0,0,0-29.55,3.87q-.14,61.65.12,123.3a14.82,14.82,0,0,0,29.36,1.12Z"/><path class="cls-1" d="M202.22,357.07q.36-22.93.22-45.88.06-40.9-.13-81.82a14.89,14.89,0,0,0-29.59,3.31l.11,123.3a14.84,14.84,0,0,0,29.39,1.09Z"/><path class="cls-1" d="M243.73,357.09q.35-35.11.19-70.22.09-29-.2-58.06a14.88,14.88,0,0,0-29.49,3.87q-.09,61.94.15,123.86a14.85,14.85,0,0,0,29.35.55Z"/><path class="cls-1" d="M285.19,357.08q.33-13.53.23-27.09.18-50.6-.21-101.19a14.89,14.89,0,0,0-29.5,3.89l.07,122.73a14.82,14.82,0,0,0,29.41,1.66Z"/><path class="cls-1" d="M326.71,357.09q.38-26.54.19-53.08.06-37.33-.13-74.65a14.89,14.89,0,1,0-29.52,3.88L297.36,356a14.81,14.81,0,0,0,29.35,1.11Z"/><path class="cls-1" d="M368,358.21a88.85,88.85,0,0,0,.48-13.84q.06-57.51-.15-115a14.86,14.86,0,0,0-29.53,3.31q-.09,61.65.11,123.3A14.8,14.8,0,0,0,368,358.21Z"/><path class="cls-1" d="M56.67,291.44a39.47,39.47,0,1,0-5.52,2.17,35.34,35.34,0,0,0,5.52-2.17Z"/><path class="cls-1" d="M437.66,291.35a39.39,39.39,0,1,0-1.67.77c.56-.24,1.12-.49,1.67-.77Z"/><path class="cls-1" d="M26.27,173.92H450.33c1.18,0,2.36,0,3.55,0a.88.88,0,0,0,.81-.79q.09-9.69,0-19.37a.84.84,0,0,0-.4-.72,2.82,2.82,0,0,0-1.26-.14l-268.66-.06-2.76,0L6.48,152.42a1.35,1.35,0,0,0-1,.36,1.06,1.06,0,0,0-.24.58q0,9.75,0,19.5a1.17,1.17,0,0,0,.32.82.89.89,0,0,0,.54.21l20.13,0Zm-1.85-40.11a4.23,4.23,0,0,0,1-.87.31.31,0,0,0,0-.28.47.47,0,0,0-.27-.21,16,16,0,0,0-2.19,0,17.93,17.93,0,0,1-2.74-.09.9.9,0,0,1-.69-.59c-.42-1.32-.85-2.64-1.3-4a1.12,1.12,0,0,0-.35-.53.29.29,0,0,0-.37,0,1.24,1.24,0,0,0-.29.54c-.37,1.32-.81,2.63-1.3,3.91a1.48,1.48,0,0,1-1.39.71c-1.32,0-2.63,0-3.94,0l-.5.11a.16.16,0,0,0-.08.14.38.38,0,0,0,.06.23,2.8,2.8,0,0,0,.91.8c1,.7,2,1.43,2.9,2.18a1,1,0,0,1,.39.88,7.27,7.27,0,0,1-.39,1.36c-.31,1-.62,2-.94,3a.73.73,0,0,0,.05.56.28.28,0,0,0,.17.15.26.26,0,0,0,.21,0,8.72,8.72,0,0,0,.8-.55c1-.72,2-1.43,3-2.13A1.07,1.07,0,0,1,18,139a3.62,3.62,0,0,1,1.18.74,31,31,0,0,0,2.86,2,.42.42,0,0,0,.38,0,.31.31,0,0,0,.17-.28,3.43,3.43,0,0,0-.3-1.17c-.38-1.14-.75-2.3-1.09-3.45a.69.69,0,0,1,.11-.54,3.9,3.9,0,0,1,1.12-1l2-1.45Zm31.7-2.5c-.46-1.29-.9-2.59-1.34-3.88l-.21-.45a.16.16,0,0,0-.11,0,.17.17,0,0,0-.12,0,1.19,1.19,0,0,0-.21.44q-.72,2.25-1.58,4.44a.81.81,0,0,1-.65.53c-1.61,0-3.23.05-4.85.13a.36.36,0,0,0-.21.13.18.18,0,0,0,0,.17.9.9,0,0,0,.31.46l3.28,2.55a1.26,1.26,0,0,1,.53,1,5.09,5.09,0,0,1-.35,1.38c-.29,1-.59,2-.92,2.93l-.09.5a.22.22,0,0,0,.08.13.34.34,0,0,0,.17,0,1.2,1.2,0,0,0,.56-.22c1.11-.78,2.23-1.55,3.35-2.3a1.23,1.23,0,0,1,1.47,0c1.15.74,2.26,1.52,3.35,2.35a1.22,1.22,0,0,0,.57.25.26.26,0,0,0,.19,0,.21.21,0,0,0,.08-.17,1.11,1.11,0,0,0-.09-.57,43.38,43.38,0,0,1-1.3-4.3.94.94,0,0,1,.21-.65,12.41,12.41,0,0,1,2.35-1.92,10.83,10.83,0,0,0,1.72-1.36.24.24,0,0,0,.07-.18.16.16,0,0,0-.06-.13.8.8,0,0,0-.43-.12c-1.51,0-3,0-4.55,0a1.26,1.26,0,0,1-.73-.23.43.43,0,0,1-.13-.14c-.12-.24-.22-.48-.32-.72Zm39.82,3.14a15.18,15.18,0,0,0,1.62-1.25.65.65,0,0,0,.16-.46.28.28,0,0,0-.2-.24,5.89,5.89,0,0,0-1.11,0c-1.15,0-2.3,0-3.45-.05a1.41,1.41,0,0,1-1.16-1l-1.15-3.58a1.13,1.13,0,0,0-.32-.56.3.3,0,0,0-.4,0,1.26,1.26,0,0,0-.3.57c-.4,1.33-.83,2.65-1.3,4a1,1,0,0,1-.83.58q-2.25.13-4.5.12a.9.9,0,0,0-.48.12.17.17,0,0,0-.07.13.46.46,0,0,0,.06.23,3,3,0,0,0,.89.8c1,.72,1.92,1.45,2.87,2.2a1.08,1.08,0,0,1,.39.87c-.38,1.46-.82,2.9-1.31,4.33a.75.75,0,0,0,.05.55.27.27,0,0,0,.15.13.33.33,0,0,0,.22,0,4.46,4.46,0,0,0,.92-.64c.94-.68,1.89-1.33,2.84-2a1,1,0,0,1,1.2,0q1.5,1,3,2.1l.81.51a.45.45,0,0,0,.23,0,.29.29,0,0,0,.15-.14.76.76,0,0,0,0-.55c-.4-1.43-.85-2.84-1.33-4.25a.7.7,0,0,1,.08-.58,3.66,3.66,0,0,1,1.17-1l1.08-.78Zm31.29-4.06a22.19,22.19,0,0,0-1-3l-.29-.45a.15.15,0,0,0-.11,0,.13.13,0,0,0-.1,0,1.89,1.89,0,0,0-.2.46c-.47,1.5-1,3-1.55,4.45a.92.92,0,0,1-.72.54c-1.16,0-2.32,0-3.48,0a5.57,5.57,0,0,0-1.35.08.38.38,0,0,0-.21.14.18.18,0,0,0,0,.16.79.79,0,0,0,.29.43c1.27.9,2.5,1.86,3.69,2.86a.87.87,0,0,1,.26.62,4.31,4.31,0,0,1-.36,1.41q-.48,1.47-.9,3a.59.59,0,0,0,.11.5.25.25,0,0,0,.17.08.7.7,0,0,0,.32-.06q1.86-1.26,3.73-2.51a1,1,0,0,1,.87-.07c1.2.82,2.39,1.67,3.56,2.53l.56.27a.25.25,0,0,0,.19,0,.29.29,0,0,0,.1-.18,2.57,2.57,0,0,0-.16-.91c-.39-1.18-.76-2.36-1.12-3.54a1.12,1.12,0,0,1,.14-1,12.1,12.1,0,0,1,2.24-1.86c.45-.32.9-.64,1.34-1a.71.71,0,0,0,.29-.46.28.28,0,0,0-.05-.2.53.53,0,0,0-.23-.16,3.47,3.47,0,0,0-1.36-.07c-1.17,0-2.35,0-3.51-.06a.71.71,0,0,1-.61-.5,15.4,15.4,0,0,1-.48-1.5Zm41.5,3.1a2.71,2.71,0,0,0,.53-.48.36.36,0,0,0,.05-.3.31.31,0,0,0-.21-.19,13.73,13.73,0,0,0-2.4-.09l-2.43,0a1,1,0,0,1-.81-.58c-.55-1.45-1-2.91-1.49-4.39l-.18-.44a.12.12,0,0,0-.09,0,.16.16,0,0,0-.12,0,1.73,1.73,0,0,0-.45.76,41.65,41.65,0,0,1-1.41,4,1.16,1.16,0,0,1-.89.59c-1.05,0-2.1.08-3.15.1a7.66,7.66,0,0,0-1.35.09.42.42,0,0,0-.25.22.36.36,0,0,0,0,.32l.21.21q1.63,1.32,3.3,2.61a1.09,1.09,0,0,1,.43.9,6.09,6.09,0,0,1-.38,1.39l-.92,3a.74.74,0,0,0,0,.51.27.27,0,0,0,.32.14,2.5,2.5,0,0,0,.53-.3l3.27-2.32a1.19,1.19,0,0,1,.87-.24,3.11,3.11,0,0,1,1.13.61c1,.7,1.92,1.39,2.91,2a.57.57,0,0,0,.32.08.23.23,0,0,0,.17-.08.59.59,0,0,0,.12-.51,9.58,9.58,0,0,0-.43-1.38c-.28-.88-.56-1.77-.82-2.65a1,1,0,0,1,.16-1q1.65-1.38,3.42-2.6Zm30.91-3.09a30.58,30.58,0,0,0-1-3l-.28-.43a.15.15,0,0,0-.11,0,.11.11,0,0,0-.09,0,1.72,1.72,0,0,0-.21.43q-.57,1.77-1.2,3.51l-.44,1a.89.89,0,0,1-.3.24,2,2,0,0,1-.58.18c-1.41,0-2.83.08-4.24.13l-.57.1a.18.18,0,0,0-.08.11.26.26,0,0,0,0,.15,1.84,1.84,0,0,0,.64.63c1.08.78,2.14,1.58,3.19,2.4a1.2,1.2,0,0,1,.33,1.31c-.41,1.3-.8,2.6-1.17,3.91a.56.56,0,0,0,.13.51.24.24,0,0,0,.18.09.71.71,0,0,0,.32-.07c1.22-.87,2.46-1.72,3.7-2.55a1,1,0,0,1,.89,0q1.8,1.24,3.58,2.52l.55.28a.2.2,0,0,0,.21-.1.53.53,0,0,0,.07-.37l-1.32-4.21a1.06,1.06,0,0,1,.16-1,17.56,17.56,0,0,1,2.28-1.85l1.33-1a.76.76,0,0,0,.31-.47.21.21,0,0,0-.1-.23,1.18,1.18,0,0,0-.54-.17c-1.51,0-3,0-4.53-.08a.72.72,0,0,1-.43-.24,3.59,3.59,0,0,1-.51-1.21l-.17-.53Zm36.72.31H453c.28,0,.56,0,.84,0a.84.84,0,0,0,.7-.37,1.43,1.43,0,0,0,.15-.64q.11-9.7-.09-19.4a.65.65,0,0,0-.47-.55,3.58,3.58,0,0,0-1.13-.09l-236.43.07a.82.82,0,0,0-.75.54,4.27,4.27,0,0,0-.09,1.38q0,9,.08,18.06a1.29,1.29,0,0,0,.19.64.57.57,0,0,0,.16.15.91.91,0,0,0,.31.12,22.45,22.45,0,0,0,3.28.06q8.29.06,16.58,0ZM42.67,120a4.06,4.06,0,0,0,1-.87.28.28,0,0,0,0-.28.44.44,0,0,0-.28-.22,24.87,24.87,0,0,0-2.73,0c-.63,0-1.26,0-1.89-.07A1,1,0,0,1,38,118c-.45-1.18-.89-2.37-1.31-3.56l-.35-.8a.21.21,0,0,0-.17-.08.36.36,0,0,0-.24.09,1.21,1.21,0,0,0-.35.54c-.47,1.28-.91,2.57-1.31,3.86a.7.7,0,0,1-.6.52l-4.47,0-.63.07a.31.31,0,0,0-.19.18.36.36,0,0,0,0,.27,3,3,0,0,0,.85.77c1,.71,2.06,1.46,3.05,2.24a1.06,1.06,0,0,1,.29.88q-.54,2-1.23,4l-.18.66a.41.41,0,0,0,.14.31.3.3,0,0,0,.27,0,6,6,0,0,0,1.4-.92q1.31-1,2.7-1.86a.94.94,0,0,1,.89.06l3.71,2.52a.53.53,0,0,0,.37,0,.31.31,0,0,0,.2-.23,2.27,2.27,0,0,0-.21-1.15c-.32-1.06-.66-2.11-1-3.16a1.68,1.68,0,0,1-.07-.7.8.8,0,0,1,.31-.49L42.67,120Zm139.4-2.43c-.49-1.31-.95-2.64-1.39-4a.53.53,0,0,0-.2-.22.21.21,0,0,0-.17,0,.56.56,0,0,0-.38.32,7.17,7.17,0,0,0-.49,1.34c-.3,1-.64,2-1,2.94a1,1,0,0,1-.83.57c-1.5.07-3,.1-4.5.08a.9.9,0,0,0-.48.14.21.21,0,0,0-.07.15.39.39,0,0,0,.07.23,3,3,0,0,0,.9.79q1.52,1.06,3,2.25a.92.92,0,0,1,.33.54,1.44,1.44,0,0,1-.08.68c-.44,1.31-.87,2.63-1.29,4a.69.69,0,0,0,0,.51.33.33,0,0,0,.36.14,1.44,1.44,0,0,0,.55-.28c1.07-.81,2.15-1.59,3.25-2.36a1,1,0,0,1,1.21,0c1.29.81,2.54,1.68,3.76,2.59a.39.39,0,0,0,.26,0,.27.27,0,0,0,.18-.11.59.59,0,0,0,.07-.5q-.62-2.17-1.35-4.32a.62.62,0,0,1,.17-.69q2-1.57,4-3.21a.26.26,0,0,0,0-.27.38.38,0,0,0-.26-.2q-1.62-.09-3.24-.06c-.46,0-.92,0-1.37,0a.87.87,0,0,1-.8-.53l-.2-.44ZM78.18,120.25a14,14,0,0,0,1.15-.88,1,1,0,0,0,.26-.44.2.2,0,0,0-.08-.21.81.81,0,0,0-.5-.14q-2.15,0-4.29-.06a1.27,1.27,0,0,1-1.12-1c-.38-1.19-.79-2.37-1.22-3.54l-.31-.53a.3.3,0,0,0-.38,0,1.15,1.15,0,0,0-.31.53c-.43,1.32-.87,2.64-1.32,4a.87.87,0,0,1-.69.58q-1.89.06-3.78.06a7.39,7.39,0,0,0-1.15.06.4.4,0,0,0-.25.21.26.26,0,0,0,0,.27,10.64,10.64,0,0,0,1.87,1.49L67.92,122a1.16,1.16,0,0,1,.47.76,2.64,2.64,0,0,1-.23,1.14c-.37,1.14-.73,2.27-1.09,3.4a.83.83,0,0,0,0,.56.29.29,0,0,0,.36.14,2.68,2.68,0,0,0,.93-.59c.93-.72,1.89-1.43,2.88-2.1a1,1,0,0,1,1.22,0c1,.7,2,1.42,3,2.15l.8.53a.49.49,0,0,0,.24,0,.38.38,0,0,0,.18-.13.65.65,0,0,0,.07-.51q-.69-2.16-1.41-4.32a.88.88,0,0,1,.18-.85,5.9,5.9,0,0,1,1-.76l1.61-1.13Zm36.51.19,1.47-1.09a1.51,1.51,0,0,0,.35-.44.15.15,0,0,0,0-.18.74.74,0,0,0-.43-.14c-1.61,0-3.22,0-4.83,0a.86.86,0,0,1-.68-.55c-.44-1.48-.93-2.94-1.47-4.39l-.27-.43a.15.15,0,0,0-.13-.05.15.15,0,0,0-.11,0,1.43,1.43,0,0,0-.21.43c-.47,1.49-1,3-1.55,4.41a.87.87,0,0,1-.7.51c-1.5.07-3,.1-4.5.08a1.2,1.2,0,0,0-.59.15.14.14,0,0,0,0,.1.38.38,0,0,0,0,.19.86.86,0,0,0,.31.37c1,.7,1.91,1.41,2.84,2.15l.87.79a1.25,1.25,0,0,1,.08,1c-.35,1.2-.72,2.39-1.1,3.57l-.15.76a.36.36,0,0,0,.39.27l.31-.17c1.13-.77,2.25-1.56,3.36-2.36a1.57,1.57,0,0,1,1-.29,2.08,2.08,0,0,1,1,.52c1,.7,1.9,1.39,2.86,2.07a1.31,1.31,0,0,0,.56.23.26.26,0,0,0,.28-.21,1,1,0,0,0,0-.51c-.51-1.41-1-2.84-1.36-4.29a.72.72,0,0,1,.19-.59,19.46,19.46,0,0,1,2.32-1.93Zm35.7.06c.4-.31.82-.6,1.23-.89a1.56,1.56,0,0,0,.49-.53.3.3,0,0,0,0-.21.29.29,0,0,0-.13-.16,1.06,1.06,0,0,0-.58-.11c-1.42,0-2.85,0-4.28-.08a.82.82,0,0,1-.7-.51q-.83-2.19-1.56-4.41l-.2-.44a.18.18,0,0,0-.12,0,.21.21,0,0,0-.13,0,2.13,2.13,0,0,0-.42.82c-.44,1.3-.86,2.6-1.27,3.91a.89.89,0,0,1-.72.62c-1.61,0-3.22.09-4.83.11a.71.71,0,0,0-.43.11.17.17,0,0,0-.07.13.36.36,0,0,0,.08.19c.39.34.79.68,1.2,1,.87.62,1.73,1.27,2.58,1.93l.38.35a1.19,1.19,0,0,1,.13.64,7.24,7.24,0,0,1-.41,1.35c-.34,1-.65,1.94-.94,2.92l-.05.47a.24.24,0,0,0,.27.18,1.07,1.07,0,0,0,.55-.19c1.16-.78,2.3-1.59,3.41-2.43a1.14,1.14,0,0,1,1-.17,5.71,5.71,0,0,1,1.33.91c.79.62,1.61,1.21,2.45,1.76a.72.72,0,0,0,.48,0,.3.3,0,0,0,.24-.23l-.05-.32c-.5-1.42-.94-2.86-1.33-4.32a.85.85,0,0,1,.18-.65,5.14,5.14,0,0,1,1.31-1.15c.29-.23.58-.45.88-.66ZM23,104.8q1.21-.85,2.37-1.77a.31.31,0,0,0,.09-.22.29.29,0,0,0-.09-.2.83.83,0,0,0-.5-.18l-3,0a6.5,6.5,0,0,1-1.58-.19,1,1,0,0,1-.4-.25,1.27,1.27,0,0,1-.31-.42l-1.45-4a.48.48,0,0,0-.3-.26.32.32,0,0,0-.31,0,1.29,1.29,0,0,0-.33.59c-.43,1.31-.87,2.63-1.32,3.93a.73.73,0,0,1-.44.42,3.26,3.26,0,0,1-1.35.13c-1.16,0-2.33,0-3.49.07a.7.7,0,0,0-.45.17.18.18,0,0,0-.06.15.28.28,0,0,0,.08.2c1.2.93,2.41,1.84,3.61,2.76a1.25,1.25,0,0,1,.49.89,3.33,3.33,0,0,1-.31,1.19c-.39,1.14-.76,2.28-1.11,3.44a.52.52,0,0,0,.09.45.21.21,0,0,0,.16.08.48.48,0,0,0,.26-.06q2-1.41,4.07-2.72a1.29,1.29,0,0,1,1.15.2q1.77,1.25,3.53,2.52a.48.48,0,0,0,.26.06.25.25,0,0,0,.17-.08.54.54,0,0,0,.11-.46,6.58,6.58,0,0,0-.42-1.37l-.95-3a.89.89,0,0,1,.14-.82,4.57,4.57,0,0,1,1-.88l.54-.4Zm37.52-.59a14.69,14.69,0,0,0,1.18-.9.74.74,0,0,0,.21-.53.33.33,0,0,0-.24-.3,10.8,10.8,0,0,0-2.2-.08c-.69,0-1.38,0-2.07,0a1.15,1.15,0,0,1-1.12-.84c-.4-1.18-.81-2.36-1.24-3.53a6.41,6.41,0,0,0-.41-.93.24.24,0,0,0-.15-.09.13.13,0,0,0-.11.06c-.19.43-.36.88-.51,1.32-.38,1.06-.77,2.12-1.18,3.17a1.26,1.26,0,0,1-.69.76,4.41,4.41,0,0,1-1.4.13c-1,0-2.08,0-3.12,0l-.57.12a.23.23,0,0,0-.08.22.58.58,0,0,0,.19.34c1.19.83,2.38,1.69,3.54,2.57l.39.43a1.07,1.07,0,0,1,.05.64c-.37,1.34-.79,2.68-1.24,4l-.13.63a.31.31,0,0,0,.23.31.72.72,0,0,0,.51-.14q1.77-1.29,3.58-2.52a1,1,0,0,1,.89,0,36.33,36.33,0,0,1,3.44,2.32,2.44,2.44,0,0,0,.67.37l.24,0a.24.24,0,0,0,.24-.23l0-.24c-.52-1.49-1-3-1.4-4.51a.93.93,0,0,1,.25-.82,25.42,25.42,0,0,1,2.27-1.71Zm34.93.59a29.07,29.07,0,0,0,2.34-1.8.36.36,0,0,0,.09-.23.27.27,0,0,0-.08-.19.78.78,0,0,0-.5-.19c-1,0-2,0-3,0a7.5,7.5,0,0,1-1.57-.2,1.12,1.12,0,0,1-.4-.25,1.27,1.27,0,0,1-.31-.41c-.51-1.31-1-2.63-1.37-4l-.19-.45a.35.35,0,0,0-.14-.06.41.41,0,0,0-.19,0,1,1,0,0,0-.36.44c-.48,1.44-1,2.87-1.48,4.29a.75.75,0,0,1-.43.41,3.44,3.44,0,0,1-1.35.13c-1.17,0-2.33,0-3.49.06a.73.73,0,0,0-.44.19.15.15,0,0,0,0,.14.55.55,0,0,0,.12.24c1.16.94,2.35,1.84,3.56,2.72a1.14,1.14,0,0,1,.4,1.26c-.39,1.32-.8,2.62-1.25,3.92l-.09.62a.3.3,0,0,0,.17.22.38.38,0,0,0,.33,0l3.74-2.59a1.11,1.11,0,0,1,.9-.17,9,9,0,0,1,2.25,1.43q.91.67,1.86,1.32a.46.46,0,0,0,.26.06.25.25,0,0,0,.17-.08.47.47,0,0,0,.11-.44,7.93,7.93,0,0,0-.42-1.36l-1-3a1,1,0,0,1,.39-1.13,13.2,13.2,0,0,1,1.36-1Zm37-.91c.37-.26.74-.54,1.1-.82a.83.83,0,0,0,.17-.27.14.14,0,0,0,0-.15.71.71,0,0,0-.42-.17c-1.49-.07-3-.11-4.48-.12a1.09,1.09,0,0,1-.86-.51c-.43-1.17-.86-2.33-1.27-3.51A5.26,5.26,0,0,0,126,97a.15.15,0,0,0-.19,0,.87.87,0,0,0-.29.39l-1.41,4.09a1.3,1.3,0,0,1-1.2.87l-4,.1a.83.83,0,0,0-.51.18.26.26,0,0,0-.1.19.32.32,0,0,0,.08.21,15.49,15.49,0,0,0,1.3,1c.8.57,1.58,1.16,2.33,1.78a1,1,0,0,1,.34.82,37,37,0,0,1-1.27,4.25,1.07,1.07,0,0,0,0,.61.32.32,0,0,0,.33.2,1,1,0,0,0,.52-.22c1-.79,2.11-1.56,3.2-2.3a1.32,1.32,0,0,1,1-.21,9.31,9.31,0,0,1,2.38,1.53,10.79,10.79,0,0,0,1.84,1.24.42.42,0,0,0,.33,0,.24.24,0,0,0,.15-.21,3,3,0,0,0-.31-1.09c-.44-1.21-.82-2.44-1.17-3.68a1,1,0,0,1,.19-.84,7.26,7.26,0,0,1,1.24-.9l1.57-1.12Zm35.43.14a14.5,14.5,0,0,0,1.32-1,.34.34,0,0,0,.08-.23.26.26,0,0,0-.09-.19.87.87,0,0,0-.52-.16q-1.76,0-3.51,0l-1-.09-.37-.25a3.71,3.71,0,0,1-.46-1L162,97.58l-.2-.44a.11.11,0,0,0-.12,0,.37.37,0,0,0-.19.11,6.21,6.21,0,0,0-.93,2.22c-.28.82-.58,1.62-.91,2.41a1,1,0,0,1-.83.5c-1.49,0-3,.08-4.48.1a.79.79,0,0,0-.45.19.16.16,0,0,0,0,.15.57.57,0,0,0,.12.23c1.21.88,2.42,1.78,3.61,2.69a1.35,1.35,0,0,1,.39,1.61c-.36,1.2-.74,2.38-1.15,3.56l-.14.65a.25.25,0,0,0,.15.21.38.38,0,0,0,.33,0q1.86-1.26,3.67-2.61a1.15,1.15,0,0,1,1.27-.12q1.93,1.26,3.77,2.7a.44.44,0,0,0,.34,0,.34.34,0,0,0,.2-.22,1.2,1.2,0,0,0-.06-.65q-.65-2-1.23-4.08a.89.89,0,0,1,.06-.62l.23-.22a14.34,14.34,0,0,1,2.4-1.92Zm37-.19c.37-.25.72-.51,1.07-.78a.67.67,0,0,0,.19-.28.16.16,0,0,0,0-.16.75.75,0,0,0-.42-.18c-1.5,0-3,0-4.5,0a1.13,1.13,0,0,1-.89-.52c-.46-1.17-.88-2.34-1.26-3.53a4.85,4.85,0,0,0-.55-1.33.1.1,0,0,0-.08,0,.17.17,0,0,0-.1,0,.8.8,0,0,0-.27.4q-.74,2.37-1.69,4.67a.59.59,0,0,1-.35.27,4,4,0,0,1-1.09.06c-.88,0-1.75,0-2.63,0a5,5,0,0,0-1.15.11.49.49,0,0,0-.28.27.28.28,0,0,0,0,.29,13.92,13.92,0,0,0,1.37,1.06c.76.54,1.51,1.11,2.24,1.7a1,1,0,0,1,.32,1.12c-.38,1.32-.79,2.64-1.23,4a1.16,1.16,0,0,0,0,.61.31.31,0,0,0,.23.2.47.47,0,0,0,.35,0,42.41,42.41,0,0,1,3.86-2.64,1,1,0,0,1,.88,0c1.33.91,2.66,1.83,4,2.73a.4.4,0,0,0,.32,0,.25.25,0,0,0,.13-.22,4.3,4.3,0,0,0-.33-1.11c-.4-1.23-.77-2.47-1.12-3.72a.88.88,0,0,1,.18-.81c.93-.71,1.88-1.41,2.83-2.09Zm-162-14a8.87,8.87,0,0,0,.78-.59.51.51,0,0,0,.17-.4.24.24,0,0,0-.19-.23c-1.15-.07-2.3-.1-3.46-.1l-1,0a1.26,1.26,0,0,1-1.19-.84c-.48-1.3-.94-2.61-1.39-3.92l-.22-.42a.14.14,0,0,0-.13,0,.46.46,0,0,0-.21.13,6.6,6.6,0,0,0-1,2.23c-.26.8-.55,1.59-.88,2.37a.78.78,0,0,1-.47.4,3.89,3.89,0,0,1-1.36.13l-3.47,0a.78.78,0,0,0-.43.2.23.23,0,0,0,0,.3,3.09,3.09,0,0,0,.78.62c1,.74,2,1.48,3,2.2a.92.92,0,0,1,.41.7,3.79,3.79,0,0,1-.3,1.32c-.33,1-.67,2.08-1,3.12l-.12.65a.29.29,0,0,0,.15.22.35.35,0,0,0,.3,0l4-2.8a1.11,1.11,0,0,1,.94,0c1.27.89,2.52,1.79,3.77,2.71a.41.41,0,0,0,.36.05.3.3,0,0,0,.21-.21,1.12,1.12,0,0,0-.07-.65,34.43,34.43,0,0,1-1.27-4.12.93.93,0,0,1,.34-.91c1-.74,1.91-1.46,2.88-2.17Zm35.38.32a7.74,7.74,0,0,0,1.18-1A.58.58,0,0,0,79.5,89a.21.21,0,0,0,0-.17.66.66,0,0,0-.45-.21l-3.46,0a4.87,4.87,0,0,1-1.14-.08,1,1,0,0,1-.48-.39,5.3,5.3,0,0,1-.6-1.41c-.35-1-.69-2-1-2.94a.48.48,0,0,0-.29-.27.31.31,0,0,0-.31,0,1.25,1.25,0,0,0-.35.58C70.89,85.4,70.45,86.71,70,88a.74.74,0,0,1-.42.41,3.42,3.42,0,0,1-1.35.1l-3.5,0a.77.77,0,0,0-.5.18.24.24,0,0,0-.09.18.25.25,0,0,0,.06.18L68,91.9a1.1,1.1,0,0,1,.4.91,43.64,43.64,0,0,1-1.27,4.28,1.36,1.36,0,0,0-.07.6.3.3,0,0,0,.18.21.37.37,0,0,0,.31,0l3.79-2.65a1.12,1.12,0,0,1,1.26,0c1.24.86,2.48,1.74,3.72,2.62a.5.5,0,0,0,.24.06.19.19,0,0,0,.15-.08.53.53,0,0,0,.09-.44q-.69-2.13-1.29-4.29l-.06-.66a.92.92,0,0,1,.38-.56c.8-.6,1.61-1.19,2.42-1.77Zm36,.59c.64-.46,1.26-.94,1.88-1.43a.86.86,0,0,0,.25-.42.23.23,0,0,0-.08-.23l-.23-.09a6.65,6.65,0,0,0-1.34,0l-3.12,0a1.13,1.13,0,0,1-.88-.48,11.79,11.79,0,0,1-.91-2.42c-.19-.64-.41-1.27-.64-1.89a1.23,1.23,0,0,0-.3-.44.27.27,0,0,0-.17-.06.19.19,0,0,0-.15.08,1.3,1.3,0,0,0-.27.52q-.64,2-1.35,3.9a1.18,1.18,0,0,1-1.14.79l-4,.07a.85.85,0,0,0-.51.2.29.29,0,0,0-.09.2.43.43,0,0,0,.09.22c1.22.94,2.43,1.9,3.63,2.86a.88.88,0,0,1,.27.92c-.45,1.49-.9,3-1.36,4.47a.42.42,0,0,0,.11.32.33.33,0,0,0,.3.09,1.92,1.92,0,0,0,.65-.34c1.08-.8,2.17-1.57,3.27-2.34a.89.89,0,0,1,.76-.15,3.39,3.39,0,0,1,1,.6c1.07.82,2.17,1.58,3.3,2.3a.42.42,0,0,0,.31,0,.26.26,0,0,0,.14-.21,3.53,3.53,0,0,0-.3-1.1c-.42-1.22-.81-2.45-1.15-3.7a1,1,0,0,1,.17-.83,10.84,10.84,0,0,1,1.27-1l.53-.38Zm36.92-.84a9.63,9.63,0,0,0,.83-.73.33.33,0,0,0,.06-.33.36.36,0,0,0-.27-.22q-2.3-.1-4.59-.06a.72.72,0,0,1-.62-.31,9.66,9.66,0,0,1-.79-2.14L145,83.74l-.23-.45a.22.22,0,0,0-.32,0,1,1,0,0,0-.3.45c-.47,1.31-.92,2.62-1.35,4a1.14,1.14,0,0,1-.68.74,5,5,0,0,1-1.39.1c-1.17,0-2.33,0-3.49,0a.74.74,0,0,0-.42.17.22.22,0,0,0,0,.29,2.3,2.3,0,0,0,.41.35c1.21.89,2.42,1.78,3.61,2.69a.78.78,0,0,1,.21.52,7.64,7.64,0,0,1-.62,2.43c-.26.8-.52,1.62-.77,2.43a.48.48,0,0,0,.1.4.26.26,0,0,0,.31.06q2-1.41,4.08-2.75a1,1,0,0,1,.87,0c1.29.85,2.56,1.73,3.79,2.66a.43.43,0,0,0,.44,0,.41.41,0,0,0,.19-.38,9.14,9.14,0,0,0-.38-1.36c-.34-1-.66-2.1-1-3.15a.83.83,0,0,1,.28-.9c.95-.69,1.88-1.39,2.81-2.11Zm35.46.25c.44-.31.88-.64,1.3-1a.25.25,0,0,0,.05-.27.38.38,0,0,0-.25-.23,13.4,13.4,0,0,0-2.19-.12l-2.09,0a1.29,1.29,0,0,1-1.25-.81,34.58,34.58,0,0,1-1.33-4l-.22-.47a.27.27,0,0,0-.36,0,.79.79,0,0,0-.34.45q-.71,2.17-1.53,4.29a.89.89,0,0,1-.78.49c-1.48.07-3,.11-4.46.1a.56.56,0,0,0-.44.19.17.17,0,0,0,0,.15.47.47,0,0,0,.13.25c.9.72,1.82,1.41,2.78,2.06.3.23.6.45.92.66a.82.82,0,0,1,.37.71,14.48,14.48,0,0,1-.69,2.44c-.27.8-.52,1.6-.77,2.4a.5.5,0,0,0,.09.44.2.2,0,0,0,.15.07.45.45,0,0,0,.25,0q1.88-1.29,3.72-2.63a1.13,1.13,0,0,1,1.28-.12q1.74,1.28,3.52,2.52l.49.22a.26.26,0,0,0,.26-.22,1.49,1.49,0,0,0-.05-.63c-.42-1.2-.81-2.41-1.16-3.63a2,2,0,0,1-.17-.94,1,1,0,0,1,.38-.56c.8-.6,1.61-1.18,2.43-1.76Zm49.78-2.66,217.5-.06a.78.78,0,0,0,.67-.28,1.3,1.3,0,0,0,.17-.61q.07-9.73,0-19.47a.87.87,0,0,0-.83-.72H248.53q-15.67,0-31.34,0l-.73.07a.92.92,0,0,0-.61.68,56.27,56.27,0,0,0-.09,5.81q0,6.84,0,13.69a.9.9,0,0,0,.47.79,3.2,3.2,0,0,0,1.34.1l18.75,0ZM23.5,74.32,25.28,73a.64.64,0,0,0,.27-.41.3.3,0,0,0-.18-.31l-.26,0c-1.53,0-3.06,0-4.58-.06a1.13,1.13,0,0,1-1-.73c-.45-1.31-.89-2.63-1.33-4a1.08,1.08,0,0,0-.34-.52.29.29,0,0,0-.36,0,1.17,1.17,0,0,0-.27.53c-.38,1.32-.82,2.63-1.31,3.92a1.13,1.13,0,0,1-1,.74c-1.53,0-3,0-4.57,0a.38.38,0,0,0-.32.18.36.36,0,0,0,0,.36,1.52,1.52,0,0,0,.4.4q1.32.9,2.58,1.86l1,.81a.89.89,0,0,1,.16.34,2.18,2.18,0,0,1,0,.57c-.34,1.38-.74,2.74-1.2,4.07a.75.75,0,0,0,.05.57.28.28,0,0,0,.15.15.3.3,0,0,0,.21,0,3.27,3.27,0,0,0,.9-.57c.95-.7,1.91-1.37,2.88-2a1,1,0,0,1,1.14,0l3.41,2.42.56.34a.25.25,0,0,0,.31-.1.8.8,0,0,0,.06-.48c-.48-1.34-.91-2.7-1.31-4.08l-.09-.64a1,1,0,0,1,.36-.58c.62-.54,1.26-1,1.93-1.52Zm37-.21a15.51,15.51,0,0,0,1.29-1,.9.9,0,0,0,.33-.52.18.18,0,0,0-.05-.17.36.36,0,0,0-.22-.13c-1.61-.06-3.23-.1-4.84-.11a.71.71,0,0,1-.5-.28,3.67,3.67,0,0,1-.56-1.3c-.29-.89-.6-1.77-.93-2.65l-.39-.83a.16.16,0,0,0-.22,0,1,1,0,0,0-.35.4c-.47,1.29-.93,2.58-1.38,3.88l-.29.54a.91.91,0,0,1-.49.24l-4.86.15a.3.3,0,0,0-.24.21.4.4,0,0,0,.07.35A12.77,12.77,0,0,0,49,74.54a11.64,11.64,0,0,1,1.73,1.4,1,1,0,0,1,.19,1c-.37,1.18-.74,2.37-1.1,3.55a4.4,4.4,0,0,0-.21,1,.28.28,0,0,0,.09.19.19.19,0,0,0,.19,0,1.37,1.37,0,0,0,.57-.27c1.1-.82,2.21-1.61,3.34-2.4a1.22,1.22,0,0,1,1.42,0c1.14.79,2.28,1.56,3.43,2.33a1.06,1.06,0,0,0,.57.17.21.21,0,0,0,.2-.23,2.19,2.19,0,0,0-.24-.9c-.43-1.17-.8-2.36-1.13-3.56a1.05,1.05,0,0,1,.17-1,5.91,5.91,0,0,1,1.33-1.06l1-.74ZM96.44,74c.44-.3.86-.61,1.28-.93l.18-.2a.42.42,0,0,0,0-.29.39.39,0,0,0-.19-.23,1,1,0,0,0-.48-.08c-1.43,0-2.87,0-4.29,0a1.08,1.08,0,0,1-1-.71l-1.26-3.78-.22-.5a.29.29,0,0,0-.38,0,1,1,0,0,0-.39.48c-.39,1.3-.83,2.59-1.33,3.86a1.17,1.17,0,0,1-.86.66c-1.58.09-3.18.13-4.77.1a.4.4,0,0,0-.31.19.38.38,0,0,0,0,.37,1.35,1.35,0,0,0,.39.4q1.82,1.23,3.54,2.56a1,1,0,0,1,.3.77c-.37,1.32-.77,2.64-1.2,3.94a3,3,0,0,0-.23.93.27.27,0,0,0,.09.24.28.28,0,0,0,.25,0,3.62,3.62,0,0,0,1-.62l3-2.09a1,1,0,0,1,1.14,0l3.4,2.4.58.33h.19a.28.28,0,0,0,.18-.3,4.29,4.29,0,0,0-.22-1c-.39-1.19-.77-2.39-1.12-3.6a1,1,0,0,1,.27-1A24.89,24.89,0,0,1,96.44,74Zm30.76-3.83c-.28-.87-.59-1.73-.94-2.58a.94.94,0,0,0-.38-.41.19.19,0,0,0-.24,0,2.52,2.52,0,0,0-.41.95A36.67,36.67,0,0,1,124,71.65a1,1,0,0,1-.76.59l-4,0-.81.07-.21.12a.33.33,0,0,0,0,.41,3.25,3.25,0,0,0,1,.8l2.74,2a1.18,1.18,0,0,1,.37,1.26c-.31,1.2-.67,2.39-1.06,3.57a1.57,1.57,0,0,0-.07.68.55.55,0,0,0,.22.32.37.37,0,0,0,.31,0,6.45,6.45,0,0,0,1.37-1,26.11,26.11,0,0,1,2.41-1.63,1.13,1.13,0,0,1,1.08.11c1.12.8,2.25,1.59,3.39,2.36l.63.29a.17.17,0,0,0,.16-.06.33.33,0,0,0,.07-.23,5.59,5.59,0,0,0-.23-.87c-.39-1.2-.76-2.42-1.11-3.64a1.07,1.07,0,0,1,.16-1,13.41,13.41,0,0,1,2.25-1.79c.44-.31.87-.64,1.3-1a.83.83,0,0,0,.25-.55.32.32,0,0,0-.23-.31,4.08,4.08,0,0,0-1.35-.06c-1.17,0-2.34,0-3.5-.08a.66.66,0,0,1-.45-.25,4.91,4.91,0,0,1-.49-1.27l-.18-.53Zm41.13,3.51c.25-.18.5-.37.74-.57a.73.73,0,0,0,.25-.43.28.28,0,0,0-.06-.16.44.44,0,0,0-.2-.13,3.85,3.85,0,0,0-1.31-.08h-3.11a1.2,1.2,0,0,1-1.18-.69c-.47-1.19-.9-2.39-1.28-3.62l-.35-.8a.17.17,0,0,0-.23,0,1,1,0,0,0-.38.42l-1.5,4a1.12,1.12,0,0,1-.77.62,27.44,27.44,0,0,1-3.27.16,8,8,0,0,0-1.38.06.45.45,0,0,0-.3.24.35.35,0,0,0,0,.34l.32.28,3.25,2.47a1.14,1.14,0,0,1,.47.87,5,5,0,0,1-.34,1.37c-.26.87-.53,1.75-.78,2.63l-.19.91a.19.19,0,0,0,.15.19.5.5,0,0,0,.36-.05Q159.12,80.31,161,79A1.23,1.23,0,0,1,162,79a28.76,28.76,0,0,1,3.4,2.38,2.34,2.34,0,0,0,.58.36.29.29,0,0,0,.35-.09l.06-.23a3.45,3.45,0,0,0-.31-1.34c-.35-1-.67-2.11-1-3.18a1,1,0,0,1,.25-.95c1-.8,1.93-1.56,3-2.26Zm37.29-.45a1.69,1.69,0,0,0,.44-.52.3.3,0,0,0,0-.26.26.26,0,0,0-.19-.16,4.42,4.42,0,0,0-1.09,0,29.65,29.65,0,0,1-4-.08.71.71,0,0,1-.48-.3,4.11,4.11,0,0,1-.52-1.28c-.23-.7-.47-1.4-.74-2.09a4.89,4.89,0,0,0-.61-1.36.15.15,0,0,0-.21,0,1.08,1.08,0,0,0-.33.43c-.48,1.37-1,2.73-1.51,4.08a1.08,1.08,0,0,1-.75.63,7.5,7.5,0,0,1-1.34,0c-1.15,0-2.31,0-3.46,0a.35.35,0,0,0-.21.12.16.16,0,0,0,0,.16,1,1,0,0,0,.33.5c1.08.84,2.16,1.66,3.26,2.47a1.5,1.5,0,0,1,.58,1,4,4,0,0,1-.31,1.36c-.33,1-.62,2-.89,2.95a.65.65,0,0,0,.13.52.32.32,0,0,0,.2.12.44.44,0,0,0,.27,0l3.35-2.37A1.25,1.25,0,0,1,199,79c1.12.81,2.26,1.6,3.4,2.37l.63.3a.17.17,0,0,0,.15,0,.4.4,0,0,0,.08-.23,7.42,7.42,0,0,0-.38-1.4c-.34-1-.66-2.09-1-3.14a1.08,1.08,0,0,1,.14-.94,4.89,4.89,0,0,1,1.21-1l2.42-1.75ZM43.25,59.45a2,2,0,0,0,.52-.49.32.32,0,0,0,0-.31.27.27,0,0,0-.2-.19c-1.16-.08-2.32-.1-3.48-.07a12.55,12.55,0,0,1-1.37,0,1,1,0,0,1-.78-.62c-.46-1.18-.89-2.38-1.31-3.58l-.36-.81a.22.22,0,0,0-.25-.08.59.59,0,0,0-.35.27c-.36.91-.68,1.84-1,2.77-.16.49-.32,1-.5,1.45a.83.83,0,0,1-.6.56,17.6,17.6,0,0,1-2.41.07H28.82a.7.7,0,0,0-.43.19.28.28,0,0,0-.05.29,2.27,2.27,0,0,0,.83.8c.85.57,1.68,1.16,2.5,1.78a3.42,3.42,0,0,1,.77.7,1,1,0,0,1,.12.58,18.73,18.73,0,0,1-.71,2.46c-.21.63-.42,1.27-.61,1.91a.7.7,0,0,0,0,.53.3.3,0,0,0,.34.17l.23-.1q1.8-1.27,3.62-2.51a1.1,1.1,0,0,1,1.08-.1c.46.29.93.6,1.38.91.77.55,1.56,1.09,2.36,1.6a.72.72,0,0,0,.33.06.26.26,0,0,0,.16-.09.62.62,0,0,0,.08-.51c-.43-1.32-.85-2.65-1.27-4a1.14,1.14,0,0,1,.21-1,6.9,6.9,0,0,1,1.45-1.13l2-1.44Zm35.45.27a3.13,3.13,0,0,0,.69-.52.61.61,0,0,0,.21-.39.3.3,0,0,0-.14-.31,1,1,0,0,0-.46-.1q-2.15,0-4.29-.06a1.4,1.4,0,0,1-.84-.39,2.79,2.79,0,0,1-.47-1.14q-.48-1.56-1-3.09l-.3-.53a.29.29,0,0,0-.37,0,1.18,1.18,0,0,0-.31.54c-.42,1.33-.86,2.65-1.33,4a1,1,0,0,1-.7.6,31.71,31.71,0,0,1-4.25.11c-.23,0-.45,0-.68,0a.38.38,0,0,0-.26.2.26.26,0,0,0,0,.27,6.86,6.86,0,0,0,1.93,1.58c.65.45,1.28.92,1.88,1.43a1,1,0,0,1,.36,1.19c-.42,1.32-.84,2.64-1.25,4a.83.83,0,0,0,.05.56.32.32,0,0,0,.37.16,2.17,2.17,0,0,0,.53-.31c1.08-.79,2.16-1.56,3.25-2.33a1,1,0,0,1,1.18,0l3.24,2.37.57.29a.31.31,0,0,0,.37-.16.8.8,0,0,0,0-.57c-.39-1.28-.82-2.54-1.27-3.8A1.1,1.1,0,0,1,75.7,62a36.88,36.88,0,0,1,3-2.27Zm35.45,1c.62-.45,1.23-.92,1.84-1.38l.25-.26a.33.33,0,0,0,0-.39.72.72,0,0,0-.53-.26c-1.5,0-3,0-4.49-.09a.77.77,0,0,1-.48-.28,3.58,3.58,0,0,1-.52-1.26c-.22-.68-.45-1.36-.68-2.05a7.19,7.19,0,0,0-.44-1.17.39.39,0,0,0-.4-.17.56.56,0,0,0-.41.32c-.48,1.36-1,2.73-1.47,4.09a1,1,0,0,1-.72.55c-1.43,0-2.85,0-4.28,0l-.58.08a.36.36,0,0,0-.16.55,3.62,3.62,0,0,0,1,.8c.87.61,1.73,1.25,2.56,1.91a1.3,1.3,0,0,1,.5,1.38c-.38,1.32-.79,2.63-1.22,3.93l-.11.56a.3.3,0,0,0,.08.17.2.2,0,0,0,.16.07,1.13,1.13,0,0,0,.56-.21c1.1-.82,2.22-1.61,3.36-2.38A1.3,1.3,0,0,1,109,65a9.88,9.88,0,0,1,2.27,1.46,16.69,16.69,0,0,0,1.84,1.27.48.48,0,0,0,.37,0,.2.2,0,0,0,.14-.19,6.15,6.15,0,0,0-.37-1.4c-.36-1-.69-2.08-1-3.13a1.15,1.15,0,0,1,.13-1,5.23,5.23,0,0,1,1.24-1l.53-.4Zm36.46-.5a16.54,16.54,0,0,0,1.32-1,.9.9,0,0,0,.3-.45.19.19,0,0,0,0-.16.4.4,0,0,0-.21-.12c-1-.07-2-.09-3-.07a17,17,0,0,1-1.89-.05.93.93,0,0,1-.73-.54L145,53.91l-.33-.55a.27.27,0,0,0-.21-.09.25.25,0,0,0-.19.09,4.36,4.36,0,0,0-.39.85l-1.24,3.57a.78.78,0,0,1-.64.54l-4.86.15a.34.34,0,0,0-.25.24.37.37,0,0,0,.07.36,3.88,3.88,0,0,0,1,.85c.68.49,1.35,1,2,1.49a3.49,3.49,0,0,1,.81.72,1.19,1.19,0,0,1,.1,1c-.4,1.31-.81,2.61-1.24,3.91a1.1,1.1,0,0,0,0,.57.31.31,0,0,0,.11.18.21.21,0,0,0,.17,0,1.46,1.46,0,0,0,.55-.26c1.09-.79,2.19-1.57,3.31-2.32a1.22,1.22,0,0,1,1.08-.13,6.07,6.07,0,0,1,1.38.9l2.31,1.66a.94.94,0,0,0,.55.14.23.23,0,0,0,.2-.19,2.12,2.12,0,0,0-.17-1q-.57-1.77-1.11-3.57a1.05,1.05,0,0,1,.17-1A5.51,5.51,0,0,1,149.59,61l1-.77Zm34.93.68c.76-.55,1.51-1.11,2.26-1.67a.86.86,0,0,0,.29-.4.27.27,0,0,0-.16-.32l-.26-.06-4.59-.1a1.43,1.43,0,0,1-.82-.41,3.24,3.24,0,0,1-.46-1.12c-.26-.86-.53-1.72-.83-2.57a4.07,4.07,0,0,0-.39-.88.31.31,0,0,0-.19-.11.27.27,0,0,0-.21.06,1.16,1.16,0,0,0-.37.53c-.42,1.31-.85,2.62-1.29,3.92a.88.88,0,0,1-.57.6,4,4,0,0,1-1.34,0,31.76,31.76,0,0,0-3.52.08.37.37,0,0,0-.27.24.42.42,0,0,0,.05.39,3.37,3.37,0,0,0,1.13,1c.81.58,1.61,1.17,2.39,1.79a1.09,1.09,0,0,1,.39,1.24c-.42,1.32-.85,2.64-1.29,3.95a.73.73,0,0,0,0,.56.33.33,0,0,0,.36.17,1.86,1.86,0,0,0,.53-.3c1.06-.82,2.14-1.6,3.24-2.35a1,1,0,0,1,1.18,0c1,.62,1.92,1.27,2.85,1.94a6.66,6.66,0,0,0,1,.65.43.43,0,0,0,.25,0,.26.26,0,0,0,.15-.12.75.75,0,0,0,0-.53c-.42-1.32-.83-2.64-1.24-4a1.17,1.17,0,0,1,.22-1,6.63,6.63,0,0,1,1.43-1.15ZM56.14,41.16c-.38-1.28-.81-2.54-1.28-3.79l-.27-.51a.16.16,0,0,0-.13-.06.17.17,0,0,0-.14.06,1.3,1.3,0,0,0-.28.5c-.48,1.44-1,2.86-1.56,4.27a1.07,1.07,0,0,1-.91.52l-4.5.09a.86.86,0,0,0-.43.15.12.12,0,0,0,0,.1.28.28,0,0,0,0,.15,3.12,3.12,0,0,0,.76.64l2.91,2.16a1.36,1.36,0,0,1,.53,1.61c-.41,1.3-.82,2.6-1.24,3.91l-.05.47a.23.23,0,0,0,.26.17,1.14,1.14,0,0,0,.54-.23c1.14-.81,2.28-1.6,3.43-2.39a1.21,1.21,0,0,1,1.35,0l3.08,2.21a3.74,3.74,0,0,0,.92.55.29.29,0,0,0,.18,0,.16.16,0,0,0,.08-.13A1.12,1.12,0,0,0,59.3,51c-.47-1.42-.92-2.85-1.35-4.28a1.07,1.07,0,0,1,.26-.89c1-.84,2.07-1.65,3.14-2.43a2.39,2.39,0,0,0,.55-.55.28.28,0,0,0,0-.29.42.42,0,0,0-.28-.22,23.53,23.53,0,0,0-3.25-.1q-.68,0-1.35,0l-.29,0a.56.56,0,0,1-.32-.3c-.1-.23-.19-.45-.28-.68ZM96,44.22a22.68,22.68,0,0,0,1.83-1.44.28.28,0,0,0,0-.29.38.38,0,0,0-.26-.23,6.29,6.29,0,0,0-1.15-.07l-3.46,0a1,1,0,0,1-.8-.5,34.47,34.47,0,0,1-1.31-3.56,4.77,4.77,0,0,0-.31-.82l-.18-.22a.32.32,0,0,0-.42,0,1.19,1.19,0,0,0-.32.58C89.2,39,88.76,40.3,88.3,41.6a.84.84,0,0,1-.44.43,3.53,3.53,0,0,1-1.37.15l-3.49,0a.83.83,0,0,0-.48.18.26.26,0,0,0-.09.17.32.32,0,0,0,.08.21,9.38,9.38,0,0,0,1.26,1c.8.57,1.59,1.17,2.38,1.77a1.27,1.27,0,0,1,.5.84,5.3,5.3,0,0,1-.26,1.18c-.39,1.15-.75,2.29-1.1,3.45a.64.64,0,0,0,.08.49.25.25,0,0,0,.17.11.45.45,0,0,0,.25,0c1.21-.92,2.44-1.8,3.71-2.64a1.33,1.33,0,0,1,.93-.2,3.28,3.28,0,0,1,1.16.7c1,.7,1.92,1.41,2.87,2.12a.43.43,0,0,0,.27.06.25.25,0,0,0,.17-.11A.59.59,0,0,0,95,51c-.42-1.46-.87-2.9-1.37-4.33a.81.81,0,0,1,.21-.82A16,16,0,0,1,96,44.22Zm107.85.22c.76-.54,1.51-1.11,2.24-1.7a.27.27,0,0,0,.08-.19.18.18,0,0,0-.06-.14.83.83,0,0,0-.45-.17l-4.49-.1a1.09,1.09,0,0,1-.87-.52c-.58-1.43-1.11-2.87-1.59-4.33a1.23,1.23,0,0,0-.28-.43.17.17,0,0,0-.17,0,.43.43,0,0,0-.2.2c-.49,1.58-1,3.14-1.65,4.68a.89.89,0,0,1-.7.48h-3.49a6.93,6.93,0,0,0-1.36.11.4.4,0,0,0-.22.2.21.21,0,0,0,0,.23,4,4,0,0,0,1,.82,33.94,33.94,0,0,1,2.87,2.23,1,1,0,0,1,.26.88c-.46,1.47-.91,2.93-1.36,4.39l-.06.54a.18.18,0,0,0,.09.1.23.23,0,0,0,.16,0,2.8,2.8,0,0,0,.93-.54c1-.75,2-1.49,3-2.21a1.16,1.16,0,0,1,1-.21,6.05,6.05,0,0,1,1.36.87c.88.61,1.76,1.22,2.65,1.82a.49.49,0,0,0,.44.06.24.24,0,0,0,.17-.27c-.42-1.53-.86-3.06-1.32-4.58a1.06,1.06,0,0,1,.25-.92,7.85,7.85,0,0,1,1.21-.94l.5-.37Zm-180.86.18c.82-.6,1.62-1.21,2.4-1.84a.27.27,0,0,0,.05-.28.38.38,0,0,0-.26-.22A7.32,7.32,0,0,0,24,42.22c-1.15,0-2.29,0-3.44,0a1.26,1.26,0,0,1-1.12-1c-.42-1.32-.86-2.63-1.31-3.94a.82.82,0,0,0-.2-.25.27.27,0,0,0-.19,0,.55.55,0,0,0-.4.32,8.42,8.42,0,0,0-.47,1.36c-.31,1-.64,2-1,2.93a.89.89,0,0,1-.67.53q-2.31.1-4.62.09a.87.87,0,0,0-.51.17.24.24,0,0,0-.09.18.35.35,0,0,0,.08.22c1.22.94,2.44,1.86,3.68,2.77a1.37,1.37,0,0,1,.52.81A2.38,2.38,0,0,1,14,47.5c-.4,1.16-.79,2.34-1.16,3.52a.62.62,0,0,0,.09.49.25.25,0,0,0,.17.11.43.43,0,0,0,.25,0q1.88-1.32,3.69-2.71A1,1,0,0,1,18,48.7a4.92,4.92,0,0,1,1.17.74q1.24.93,2.55,1.8l.58.25a.27.27,0,0,0,.27-.24,1.45,1.45,0,0,0-.07-.62q-.63-1.82-1.14-3.66l-.06-.71.09-.21a1.59,1.59,0,0,1,.57-.66c.32-.27.65-.52,1-.77Zm109.42-.91c.24-.17.48-.35.71-.54a.85.85,0,0,0,.29-.43.34.34,0,0,0-.16-.37l-.24-.11c-.91-.07-1.83-.09-2.74-.07-.51,0-1,0-1.53,0a1.14,1.14,0,0,1-.88-.52c-.57-1.43-1.09-2.87-1.57-4.33a1.29,1.29,0,0,0-.29-.45.24.24,0,0,0-.14-.05.16.16,0,0,0-.13.06,1.42,1.42,0,0,0-.23.44c-.47,1.43-1,2.86-1.45,4.28a1,1,0,0,1-.78.61c-1.61,0-3.21,0-4.82.08a.87.87,0,0,0-.42.14.12.12,0,0,0,0,.09.2.2,0,0,0,0,.13,3.94,3.94,0,0,0,.74.61q1.33.92,2.61,1.92l.8.76.09.49a2.38,2.38,0,0,1-.14,1.09c-.28,1.06-.6,2.11-.95,3.15a1.1,1.1,0,0,0-.06.62.33.33,0,0,0,.23.23.5.5,0,0,0,.38,0c1.25-.9,2.52-1.78,3.8-2.62a1.18,1.18,0,0,1,1.21.15c1.07.8,2.15,1.59,3.23,2.37a1.23,1.23,0,0,0,.54.23.27.27,0,0,0,.26-.06.3.3,0,0,0,.1-.25,4.1,4.1,0,0,0-.3-1.09c-.39-1.17-.78-2.34-1.16-3.52a1,1,0,0,1,.31-.9c.88-.72,1.77-1.4,2.7-2.06Zm34.88.61c.55-.41,1.11-.84,1.65-1.28a.68.68,0,0,0,.22-.5.28.28,0,0,0-.22-.28,13.48,13.48,0,0,0-2.2-.06c-.8,0-1.61,0-2.41,0a.83.83,0,0,1-.71-.45c-.56-1.46-1.09-2.93-1.56-4.41l-.21-.44a.17.17,0,0,0-.12,0,.23.23,0,0,0-.14,0,1.44,1.44,0,0,0-.46.75c-.4,1.21-.8,2.42-1.22,3.63a1.42,1.42,0,0,1-.68.81,3.34,3.34,0,0,1-1.37.13c-.71,0-1.42,0-2.13,0a6.2,6.2,0,0,0-1.36.12.48.48,0,0,0-.22.15.17.17,0,0,0,0,.17.84.84,0,0,0,.31.45c1,.82,2.08,1.62,3.15,2.38a1.47,1.47,0,0,1,.54.86,2.45,2.45,0,0,1-.25,1.19l-1,3.1-.16.65a.33.33,0,0,0,.13.26.31.31,0,0,0,.28,0,3.07,3.07,0,0,0,1-.59c.92-.69,1.86-1.37,2.81-2a1.25,1.25,0,0,1,1.57,0c1.15.81,2.3,1.62,3.43,2.44a.44.44,0,0,0,.37,0,.33.33,0,0,0,.21-.23,1.45,1.45,0,0,0-.09-.65c-.43-1.34-.84-2.69-1.24-4a.88.88,0,0,1,.28-.79c.61-.5,1.24-1,1.88-1.46Zm69.68-.17H453.55a1.24,1.24,0,0,0,.89-.35,1.14,1.14,0,0,0,.25-.56q.17-9.94,0-19.89l-.14-.69a.84.84,0,0,0-.72-.46l-216.95,0q-9.64-.09-19.28,0a9,9,0,0,0-1.17.05.87.87,0,0,0-.62.64,5.55,5.55,0,0,0-.1,1.41q0,9.31.07,18.63a1.16,1.16,0,0,0,1,1.22l20.14,0ZM41.21,30.84c.74-.52,1.46-1.06,2.17-1.63a.67.67,0,0,0,.2-.48.27.27,0,0,0-.2-.27,32.08,32.08,0,0,0-3.25-.11l-1.36,0a1,1,0,0,1-.8-.57c-.51-1.41-1-2.84-1.45-4.27L36.3,23a.16.16,0,0,0-.14-.05.37.37,0,0,0-.2.12,5.91,5.91,0,0,0-.9,2.24c-.27.82-.57,1.64-.89,2.44a.88.88,0,0,1-.48.43,4.29,4.29,0,0,1-1.38.13l-3.49,0a.75.75,0,0,0-.46.18.19.19,0,0,0-.07.17.32.32,0,0,0,.08.2c1.07.83,2.16,1.63,3.27,2.42a2.5,2.5,0,0,1,.83.88,1.38,1.38,0,0,1,0,1c-.43,1.32-.84,2.64-1.24,4a.8.8,0,0,0,0,.53.21.21,0,0,0,.13.13.25.25,0,0,0,.19,0,8.71,8.71,0,0,0,1.32-.93c.85-.66,1.73-1.28,2.63-1.86a1.15,1.15,0,0,1,1-.06c1.31.83,2.57,1.72,3.8,2.66a.43.43,0,0,0,.35,0,.31.31,0,0,0,.21-.23,1.16,1.16,0,0,0-.08-.64c-.45-1.33-.88-2.66-1.29-4a.73.73,0,0,1,.13-.72,9.34,9.34,0,0,1,1.56-1.24Zm109.41-.71c.4-.28.78-.58,1.16-.9a.69.69,0,0,0,.21-.51.33.33,0,0,0-.24-.3,13.48,13.48,0,0,0-2.2-.06q-1.2,0-2.4,0a.79.79,0,0,1-.63-.35c-.28-.71-.55-1.43-.79-2.15s-.56-1.7-.87-2.54a.86.86,0,0,0-.27-.36.14.14,0,0,0-.17,0,9.14,9.14,0,0,0-.93,2.37c-.22.69-.46,1.38-.71,2.07a1.23,1.23,0,0,1-.71.77,4.11,4.11,0,0,1-1.39.13l-3.49.05a.79.79,0,0,0-.44.16.13.13,0,0,0-.05.12.24.24,0,0,0,.05.16,3.12,3.12,0,0,0,.81.68q1.53,1,3,2.16a1.39,1.39,0,0,1,.52.89,3.07,3.07,0,0,1-.3,1.19c-.36,1.17-.73,2.33-1.13,3.48a.78.78,0,0,0,0,.5.25.25,0,0,0,.12.11.25.25,0,0,0,.19,0,2.72,2.72,0,0,0,.86-.56c1-.79,2-1.52,3.12-2.21a1.2,1.2,0,0,1,1.41,0q1.51,1.11,3,2.19l.67.34a.33.33,0,0,0,.35-.21v-.27a9.09,9.09,0,0,0-.4-1.35q-.5-1.49-.93-3a.92.92,0,0,1,0-.57.81.81,0,0,1,.1-.18,2.11,2.11,0,0,1,.19-.23c.42-.34.86-.67,1.3-1l1-.74Zm36-.18a11.64,11.64,0,0,0,1.33-1,.27.27,0,0,0,0-.27.4.4,0,0,0-.27-.22c-.38,0-.76-.05-1.15-.05-1.21,0-2.42-.07-3.63-.16a1,1,0,0,1-.73-.52c-.5-1.4-1-2.82-1.39-4.24l-.2-.44a.16.16,0,0,0-.14-.05.38.38,0,0,0-.19.05,1,1,0,0,0-.35.45c-.47,1.43-1,2.86-1.48,4.28a1,1,0,0,1-.81.52c-1.49.06-3,.09-4.48.09a.61.61,0,0,0-.43.17.17.17,0,0,0,0,.15.51.51,0,0,0,.1.25,11.67,11.67,0,0,0,2.17,1.68A8.77,8.77,0,0,1,176.57,32a1.62,1.62,0,0,1,.14,1.27c-.32,1-.65,2.06-1,3.08a4.29,4.29,0,0,0-.29,1.16.4.4,0,0,0,.17.3.31.31,0,0,0,.31,0c1.31-1,2.66-1.94,4-2.84a1,1,0,0,1,.88.06c1.28.87,2.53,1.76,3.78,2.67a.58.58,0,0,0,.26.06.28.28,0,0,0,.18-.09.49.49,0,0,0,.11-.45,7.11,7.11,0,0,0-.41-1.36c-.32-1-.65-2-1-3a.93.93,0,0,1,.17-.86,11.71,11.71,0,0,1,2.12-1.65l.53-.38ZM78.23,30a11.49,11.49,0,0,0,1-.8l.22-.23a.3.3,0,0,0,0-.39.7.7,0,0,0-.48-.18q-2.23,0-4.47-.12a1,1,0,0,1-.77-.52c-.46-1.3-.91-2.61-1.32-3.92l-.34-.59a.35.35,0,0,0-.43,0,1.2,1.2,0,0,0-.33.59c-.41,1.32-.85,2.64-1.32,3.94a.8.8,0,0,1-.43.42,3.23,3.23,0,0,1-1.35.14l-3.5.06a.84.84,0,0,0-.5.17.23.23,0,0,0-.08.18.34.34,0,0,0,.08.21l3.69,2.76a1.25,1.25,0,0,1,.44,1.21c-.42,1.43-.88,2.86-1.37,4.27a.54.54,0,0,0,.1.46.28.28,0,0,0,.17.09.49.49,0,0,0,.27,0q1.84-1.3,3.72-2.59a1,1,0,0,1,1.25,0l3.75,2.56a.5.5,0,0,0,.24.06.22.22,0,0,0,.15-.08.5.5,0,0,0,.08-.43,7.91,7.91,0,0,0-.43-1.38c-.32-1-.62-2-.92-2.95a.88.88,0,0,1,.19-.85,12.37,12.37,0,0,1,2.11-1.63l.55-.39Zm36,.59c.71-.54,1.42-1.07,2.15-1.58a.72.72,0,0,0,.2-.29.16.16,0,0,0,0-.16.81.81,0,0,0-.46-.15c-1.61,0-3.22,0-4.83,0a.61.61,0,0,1-.57-.33q-.69-2.3-1.55-4.55l-.28-.45a.14.14,0,0,0-.16,0,.45.45,0,0,0-.22.23c-.52,1.38-1,2.78-1.5,4.17a1.27,1.27,0,0,1-1.17.9c-1.5,0-3,.06-4.5.11a.91.91,0,0,0-.42.17.12.12,0,0,0,0,.1.28.28,0,0,0,0,.13,3.49,3.49,0,0,0,.74.59c1.12.81,2.23,1.62,3.33,2.45a.91.91,0,0,1,.3,1c-.35,1.16-.73,2.32-1.12,3.48l-.23.84,0,.27a.31.31,0,0,0,.36.19,1.83,1.83,0,0,0,.67-.33L108,35.14a1.14,1.14,0,0,1,1-.2,13,13,0,0,1,2.44,1.57c.52.37,1,.72,1.56,1.07l.32.14a.28.28,0,0,0,.28-.15l0-.2a4.89,4.89,0,0,0-.29-1c-.4-1.15-.78-2.32-1.11-3.5a1.3,1.3,0,0,1,.56-1.21c.47-.36.94-.71,1.43-1.05ZM23,14.54c.67-.52,1.36-1,2.05-1.53a1,1,0,0,0,.3-.38.17.17,0,0,0,0-.19.78.78,0,0,0-.48-.21l-4.34-.14a1.23,1.23,0,0,1-1-.87c-.44-1.25-.86-2.5-1.24-3.77L18,7a.29.29,0,0,0-.38-.05.89.89,0,0,0-.38.45C16.85,8.67,16.41,10,16,11.25a1.24,1.24,0,0,1-1,.84c-1.45.09-2.91.11-4.36.07a.75.75,0,0,0-.47.23.29.29,0,0,0-.09.21.26.26,0,0,0,.07.18c.24.2.5.39.76.57,1,.74,2.06,1.46,3.11,2.17a1.08,1.08,0,0,1,.34.76,5.23,5.23,0,0,1-.37,1.37c-.35,1-.69,2.08-1,3.12l-.1.62a.26.26,0,0,0,.16.18.42.42,0,0,0,.31,0q1.89-1.35,3.8-2.67a1.54,1.54,0,0,1,1.64.22c1,.7,2,1.39,2.95,2.06l.6.32a.25.25,0,0,0,.23-.07.38.38,0,0,0,.1-.29,5,5,0,0,0-.35-1.36c-.12-.35-.23-.7-.35-1a12.94,12.94,0,0,1-.62-2.21l0-.29a1.2,1.2,0,0,1,.38-.56A16.11,16.11,0,0,1,23,14.54Zm37.78-.78L61.86,13a.55.55,0,0,0,.18-.43.3.3,0,0,0-.21-.28,4.58,4.58,0,0,0-1.33-.08c-1,0-2.09,0-3.13,0a1.11,1.11,0,0,1-.9-.41,4.66,4.66,0,0,1-.54-1.35c-.27-.85-.57-1.69-.88-2.52a4.69,4.69,0,0,0-.45-.93.26.26,0,0,0-.19-.1.21.21,0,0,0-.16.08,4.26,4.26,0,0,0-.36.82c-.4,1.22-.82,2.44-1.25,3.65a1.12,1.12,0,0,1-.71.7,6.38,6.38,0,0,1-1.38.06c-1,0-2,0-2.95.08a.73.73,0,0,0-.5.23.26.26,0,0,0-.08.21.36.36,0,0,0,.09.24c1,.88,2.14,1.73,3.25,2.53a1.29,1.29,0,0,1,.56.86,3.69,3.69,0,0,1-.3,1.39c-.29,1-.61,2-.95,3.07l-.16.57a.27.27,0,0,0,.09.22.29.29,0,0,0,.24,0,5.4,5.4,0,0,0,.8-.47c1-.75,2-1.49,3.09-2.21a1.15,1.15,0,0,1,1.06-.18,6.73,6.73,0,0,1,1.36.88c.78.54,1.56,1.08,2.35,1.61a.92.92,0,0,0,.58.17.18.18,0,0,0,.17-.14.91.91,0,0,0,0-.49c-.46-1.36-.87-2.74-1.25-4.12a1,1,0,0,1,.23-.93,18.05,18.05,0,0,1,2.16-1.64l.39-.29Zm35.67,0,1-.74a1,1,0,0,0,.3-.38.2.2,0,0,0,0-.21.77.77,0,0,0-.47-.22l-4.35-.12a1.05,1.05,0,0,1-.8-.55,42.37,42.37,0,0,1-1.44-4.1L90.45,7a.29.29,0,0,0-.36,0,.79.79,0,0,0-.38.44c-.43,1.43-.91,2.84-1.44,4.24a.81.81,0,0,1-.43.34,7.81,7.81,0,0,1-2.41.19c-.81,0-1.62,0-2.43,0a.69.69,0,0,0-.44.24.29.29,0,0,0,0,.36,2.16,2.16,0,0,0,.43.37c1.12.76,2.21,1.56,3.26,2.41a1.1,1.1,0,0,1,.37.95c-.34,1.39-.74,2.77-1.19,4.14a1,1,0,0,0,0,.53.3.3,0,0,0,.33.18,2,2,0,0,0,.91-.48c.8-.61,1.61-1.21,2.44-1.78a2.65,2.65,0,0,1,.94-.49.93.93,0,0,1,.61.13Q92.5,20,94.3,21.35l.47.22a.25.25,0,0,0,.25-.2,1.25,1.25,0,0,0-.06-.61c-.41-1.21-.79-2.42-1.14-3.65a2.07,2.07,0,0,1-.19-.95,1.14,1.14,0,0,1,.34-.59c.82-.61,1.64-1.22,2.47-1.81Zm34.88.62a17.59,17.59,0,0,0,1.83-1.5.43.43,0,0,0,.09-.26.24.24,0,0,0-.08-.2.85.85,0,0,0-.51-.21l-3.94-.09a1,1,0,0,1-.84-.42A10.49,10.49,0,0,1,127,9.32c-.22-.7-.48-1.4-.77-2.08a.84.84,0,0,0-.35-.35.17.17,0,0,0-.21,0,2.48,2.48,0,0,0-.41.94c-.36,1.17-.76,2.32-1.19,3.46a1.21,1.21,0,0,1-1.17.79l-3.95,0a.75.75,0,0,0-.51.24.27.27,0,0,0-.08.23.36.36,0,0,0,.09.24,15,15,0,0,0,1.28,1,24.28,24.28,0,0,1,2.35,1.83,1,1,0,0,1,.3.84c-.44,1.53-.9,3.07-1.36,4.6a.32.32,0,0,0,0,.23.18.18,0,0,0,.13.09.87.87,0,0,0,.53-.13l3.4-2.38a1.39,1.39,0,0,1,1-.26,2.61,2.61,0,0,1,1,.56c.92.71,1.86,1.39,2.81,2a.85.85,0,0,0,.54.19.22.22,0,0,0,.2-.14,1,1,0,0,0,0-.53c-.4-1.4-.84-2.8-1.32-4.17a.78.78,0,0,1,.19-.9c.57-.47,1.17-.92,1.78-1.34Zm35.15.45c.89-.65,1.75-1.32,2.6-2a.39.39,0,0,0,.1-.25.32.32,0,0,0-.08-.21.79.79,0,0,0-.51-.2l-4,0a1.19,1.19,0,0,1-1.18-.78c-.46-1.3-.92-2.6-1.37-3.91l-.25-.53a.25.25,0,0,0-.38,0,4.43,4.43,0,0,0-.6,1.35c-.35,1-.72,2.07-1.1,3.1a1.23,1.23,0,0,1-.63.68,4.12,4.12,0,0,1-1.31.09h-3.11a.86.86,0,0,0-.56.17.28.28,0,0,0-.07.26.9.9,0,0,0,.27.42c1.1.87,2.23,1.71,3.38,2.52a1,1,0,0,1,.38.77,9.55,9.55,0,0,1-.65,2.41c-.27.8-.53,1.61-.77,2.41a.42.42,0,0,0,.1.4.24.24,0,0,0,.3.06c1.13-.82,2.26-1.63,3.4-2.42a3,3,0,0,1,.94-.5.94.94,0,0,1,.59.11q2,1.35,4,2.78a.35.35,0,0,0,.28,0,.33.33,0,0,0,.21-.19,1.16,1.16,0,0,0,0-.61c-.44-1.35-.9-2.69-1.39-4a.75.75,0,0,1,.12-.76,10.35,10.35,0,0,1,1.31-1.16Zm37.3-.5c.63-.45,1.25-.9,1.86-1.36a.72.72,0,0,0,.26-.4.24.24,0,0,0-.08-.26l-.22-.11a5.45,5.45,0,0,0-1.34,0l-3.12,0a1,1,0,0,1-.84-.43,5.19,5.19,0,0,1-.53-1.37q-.42-1.35-.93-2.67l-.39-.77a.2.2,0,0,0-.17-.06.31.31,0,0,0-.19.11,2.52,2.52,0,0,0-.41.95c-.37,1.16-.77,2.31-1.21,3.44a1.22,1.22,0,0,1-1.15.8c-1.32,0-2.64,0-3.95.07a.78.78,0,0,0-.51.23.29.29,0,0,0-.09.22.32.32,0,0,0,.08.23,15.76,15.76,0,0,0,1.31,1,23.72,23.72,0,0,1,2.31,1.79,1,1,0,0,1,.32.84q-.66,2.31-1.35,4.62a.4.4,0,0,0,0,.24.17.17,0,0,0,.14.09.8.8,0,0,0,.52-.16l3.35-2.42a1.36,1.36,0,0,1,1-.24,4.66,4.66,0,0,1,1,.61c1.09.8,2.21,1.56,3.34,2.29a.29.29,0,0,0,.27,0,.2.2,0,0,0,.12-.18A3.18,3.18,0,0,0,203,20.3c-.4-1.22-.77-2.45-1.12-3.69a1,1,0,0,1,.19-.91,6,6,0,0,1,1.21-1l.53-.39Zm-183,181.75h256l15.48,0,166.81,0a1.65,1.65,0,0,0,.62-.14.55.55,0,0,0,.28-.35,3.84,3.84,0,0,0,.07-1.12V.8a.77.77,0,0,0-.34-.66A1.35,1.35,0,0,0,459,0H190.47c-.92,0-1.84,0-2.76,0L.63.1A.58.58,0,0,0,.12.53a4.13,4.13,0,0,0,0,1.11L0,194.46a7.27,7.27,0,0,0,.07,1.14.61.61,0,0,0,.54.47Z"/></g></g></svg>