<svg xmlns="http://www.w3.org/2000/svg" viewBox="0 0 460 178.78"><defs><style>.cls-1{fill-rule:evenodd;}</style></defs><g id="Layer_2" data-name="Layer 2"><g id="Layer_1-2" data-name="Layer 1"><path class="cls-1" d="M376.81,178.77c2.55,0,5.09,0,7.64,0a1.36,1.36,0,0,0,1.39-1.27q.18-6.26.11-12.52,0-16.33.05-32.66a.74.74,0,0,1,.31-.53.52.52,0,0,1,.55,0,1.81,1.81,0,0,1,.61.59,36.33,36.33,0,0,0,31.47,13,40.85,40.85,0,0,0,34.94-25.2,73.58,73.58,0,0,0,2.2-53.08A43.6,43.6,0,0,0,421.53,37a42.8,42.8,0,0,0-24,3.36A37.53,37.53,0,0,0,384.83,51a1.12,1.12,0,0,1-.62.38.31.31,0,0,1-.25,0,.55.55,0,0,1-.2-.25,2.67,2.67,0,0,1-.16-1l-.07-9.49a1.19,1.19,0,0,0-.59-1,2.71,2.71,0,0,0-1-.2q-14.19-.13-28.38,0a2.21,2.21,0,0,0-.87.27.8.8,0,0,0-.35.54c-.06,1.37-.09,2.75-.06,4.13l.08,132.79a1.89,1.89,0,0,0,.55,1.27,1.65,1.65,0,0,0,.76.27q11.56.09,23.15.06ZM201.17,140.32a12,12,0,0,0-9.08-10,17.86,17.86,0,0,1-11-12.63,59.34,59.34,0,0,0-3.77-11.72A13.39,13.39,0,0,0,155.76,104q-6,5.94-12.29,11.52A90.53,90.53,0,0,1,128,124.41a17.6,17.6,0,0,0-5.22,25.66,19.19,19.19,0,0,0,12.32,5.9,26,26,0,0,0,11-2.26,50.07,50.07,0,0,1,29.17.07,58.58,58.58,0,0,0,12.3,3.06,16.6,16.6,0,0,0,11.72-7.47,13.88,13.88,0,0,0,1.9-9.05Zm-133.55,3.1a35,35,0,0,0,26.65-24.56A90.58,90.58,0,0,0,97.8,87.8L97.72,1.1a1.09,1.09,0,0,0-.65-.93A4.6,4.6,0,0,0,95.46,0Q79.79,0,64.13,0A1.35,1.35,0,0,0,63,1.15Q63,48,62.74,94.93a37.78,37.78,0,0,1-2.69,12.95A12.76,12.76,0,0,1,46.9,115a11.25,11.25,0,0,1-10.6-4.55,29.65,29.65,0,0,1-2.83-16.19c0-1.67,0-3.35,0-5A1.47,1.47,0,0,0,33,88.12a1.49,1.49,0,0,0-1.15-.4q-15.06-.06-30.11,0A1.7,1.7,0,0,0,.21,89.27a77.08,77.08,0,0,0,4.08,31,37.6,37.6,0,0,0,30.28,24.13,81.43,81.43,0,0,0,33.05-1Zm240-20a18.1,18.1,0,0,0-3.86-14.3,60.93,60.93,0,0,1-8.85-24.6,23.38,23.38,0,0,0-4.32-11,14,14,0,0,0-20.73.67,28.05,28.05,0,0,1-14.28,8.91,25.86,25.86,0,0,1-9.7-1,13,13,0,0,0-12.73,16.7,23.83,23.83,0,0,0,3.85,7.54,23.41,23.41,0,0,0,10.16,4.23,55.05,55.05,0,0,1,31.16,21.27,17.85,17.85,0,0,0,19.47,4.9,16.92,16.92,0,0,0,9.83-13.33Zm-88.44-10.41a17,17,0,0,0-.25-10.32,4.37,4.37,0,0,0-1.56-1.46,10.93,10.93,0,0,0-9.77-.57,26.37,26.37,0,0,0-13.83,8.51A14.36,14.36,0,0,0,192,123.46a12.74,12.74,0,0,0,21.7,0,34.5,34.5,0,0,0,5.45-10.4Zm-80.42-9a23.63,23.63,0,0,0-8.07-16.93,19.52,19.52,0,0,0-8.61-5.91,9.77,9.77,0,0,0-10,5.33,77.66,77.66,0,0,0-1.74,16.86,17.27,17.27,0,0,0,7.88,12.71,14.69,14.69,0,0,0,16.32-3.38,12.22,12.22,0,0,0,4.22-8.68ZM337,96.9a47,47,0,0,0,3.29-7.81,9.64,9.64,0,0,0-12.79-9.33,31.47,31.47,0,0,0-14.89,5.57,13.1,13.1,0,0,0-5.81,13.49,15,15,0,0,0,12.93,12.73A18.43,18.43,0,0,0,331.71,106,31.57,31.57,0,0,0,337,96.9Zm-135.5-9.78a26.14,26.14,0,0,0,2.38-19.44,9.46,9.46,0,0,0-12.52-6.26,26.59,26.59,0,0,0-15,14.09,24.62,24.62,0,0,0-2.25,18.78,10,10,0,0,0,14.74,5.52,29.15,29.15,0,0,0,12.67-12.69Zm-34.78-4.47A36.76,36.76,0,0,0,166.4,60a12.46,12.46,0,0,0-11.3-9,13.55,13.55,0,0,0-9.78,6.38,34.57,34.57,0,0,0-5.72,17.55,26.58,26.58,0,0,0,5.81,18.8,10,10,0,0,0,13.52.75,23.89,23.89,0,0,0,7.83-11.75Zm92.45-20.13a26.67,26.67,0,0,0-12-17.38,6.68,6.68,0,0,0-8.66,3.14,29.7,29.7,0,0,0-3.22,20.09A12.62,12.62,0,0,0,253,77.08c.64-.39,1.26-.81,1.87-1.25a2.63,2.63,0,0,0,1.06-1,16.17,16.17,0,0,0,3.24-12.28Zm66.05-.62a27.1,27.1,0,0,0,2.83-17.51,10.65,10.65,0,0,0-9-9.32,18.67,18.67,0,0,0-14.35,7,32.72,32.72,0,0,0-8.87,26.22,10.93,10.93,0,0,0,9,9.71,18.68,18.68,0,0,0,13.31-6,37.86,37.86,0,0,0,7.08-10.19ZM292.14,47.61a34.85,34.85,0,0,0-1.4-16.89,13.25,13.25,0,0,0-10.52-9.18,11.85,11.85,0,0,0-8.42,4.05,28.44,28.44,0,0,0-6.87,18.79,24.19,24.19,0,0,0,6.62,18.14,9.76,9.76,0,0,0,13.89-1.3,25.69,25.69,0,0,0,6.7-13.61Zm131.79,59a50.61,50.61,0,0,0-1-33,19.47,19.47,0,0,0-29.24-8.06,25.39,25.39,0,0,0-8.47,17.15A53.61,53.61,0,0,0,387,107.23a19.45,19.45,0,0,0,31.26,8.26,23.15,23.15,0,0,0,5.71-8.92Z"/></g></g></svg>