<svg xmlns="http://www.w3.org/2000/svg" viewBox="0 0 460 188.86"><defs><style>.cls-1{fill-rule:evenodd;}</style></defs><g id="Layer_2" data-name="Layer 2"><g id="Layer_1-2" data-name="Layer 1"><path class="cls-1" d="M416.86,118.12a34.18,34.18,0,0,0,4.57-16.8,48.93,48.93,0,0,0-3-21.93,15.38,15.38,0,0,0-24.49-5.19,23.77,23.77,0,0,0-5.68,13.34,65.09,65.09,0,0,0,1.18,25,16.34,16.34,0,0,0,8.84,11.07,15.18,15.18,0,0,0,18.61-5.51Zm-50.1,70.73,21,0a.9.9,0,0,0,.69-.28l.11-.2a5.86,5.86,0,0,0,.09-1.72q-.07-22.32.07-44.64l.07-.61a.32.32,0,0,1,.35-.17l.22.15a12.93,12.93,0,0,1,1.35,1.77,32.84,32.84,0,0,0,29.9,12.7A36.55,36.55,0,0,0,452,135.36a75.9,75.9,0,0,0,7.68-30.58,82.9,82.9,0,0,0-8.5-43.95A39.83,39.83,0,0,0,428.37,40.6a43.64,43.64,0,0,0-28.45,1.83,30.33,30.33,0,0,0-11.34,10.2l-.49.61a.33.33,0,0,1-.19.06.23.23,0,0,1-.17-.08.55.55,0,0,1-.16-.39q0-5.2,0-10.39a.6.6,0,0,0-.37-.57,3.09,3.09,0,0,0-1.05-.07q-17.58,0-35.15,0a.7.7,0,0,0-.63.63q-.07,7.9-.05,15.8l0,130a.64.64,0,0,0,.37.56,3,3,0,0,0,1,.06Z"/><path class="cls-1" d="M180,119a16.37,16.37,0,0,0,2.62,10.48.74.74,0,0,0,1.28,0,4.46,4.46,0,0,0,.48-5.78,50.57,50.57,0,0,0-3.54-5.51l-.37-.43a.2.2,0,0,0-.2,0,.25.25,0,0,0-.16.17A3.81,3.81,0,0,0,180,119Zm-4.21-2.51a5.53,5.53,0,0,0-2.08,3.34,35.29,35.29,0,0,1-2.84,4.77,4.16,4.16,0,0,0,.55,3.8,2.62,2.62,0,0,0,.64.87.53.53,0,0,0,.63,0,3.76,3.76,0,0,0,1.12-1.7,29.27,29.27,0,0,0,3-10.68,1.2,1.2,0,0,0-.14-.49.39.39,0,0,0-.24-.19.39.39,0,0,0-.3,0l-.31.21Zm-4.69-5.87q-16.71-9.15-33.94-17.28-1-.37-2-.72a1.26,1.26,0,0,0-1.05.14,1.22,1.22,0,0,0-.56.91A20.49,20.49,0,0,0,135,103.5a17,17,0,0,0,4.29,7,35.7,35.7,0,0,0,7.33,2.39,66.54,66.54,0,0,0,12.91,2.21,31.88,31.88,0,0,0,11.82-3.37l.42-.32a.27.27,0,0,0,0-.19.41.41,0,0,0-.1-.21,3.39,3.39,0,0,0-.65-.41Zm40.17,1.82a16.87,16.87,0,0,0,6-3,21.21,21.21,0,0,0,4.88-15.07A1.64,1.64,0,0,0,220.3,93a26.68,26.68,0,0,0-10.75,3.61q-8,4.83-16,9.59-4.5,2.37-9,4.79l-.65.44a.23.23,0,0,0,0,.24.81.81,0,0,0,.34.32,32,32,0,0,0,14,3.07,72.28,72.28,0,0,0,12.94-2.64ZM176.88,175q-.13-15.3.29-30.59a11.33,11.33,0,0,1,.38-1.91.62.62,0,0,1,.54-.4.73.73,0,0,1,.61.44,7.29,7.29,0,0,1,.62,2.72q.48,18.53.33,37.06c0,.68,0,1.36,0,2a.73.73,0,0,0,.17.47.29.29,0,0,0,.14.08.86.86,0,0,0,.28,0,6.91,6.91,0,0,0,2.52-.65,5.68,5.68,0,0,0,1.82-3.71,161.67,161.67,0,0,0,1.08-21.1q.09-9.65.85-19.26a.74.74,0,0,1,.74-.6,5.17,5.17,0,0,1,2,.52.66.66,0,0,1,.3.82,5.46,5.46,0,0,1-.53.82,11.77,11.77,0,0,0-1.65,6.93q-.31,17.61.05,35.22a.9.9,0,0,0,.31.69.62.62,0,0,0,.46.09,18.34,18.34,0,0,0,4.1-1.56,7,7,0,0,0,1.9-4.29A160.87,160.87,0,0,0,196,154.75a41.8,41.8,0,0,1,2.64-12.09q1.14-4.69,1.93-9.46a6.47,6.47,0,0,1,6.84-4.11,4.9,4.9,0,0,1,4.44,1.6,8.37,8.37,0,0,1,.37,5.54,4.29,4.29,0,0,0,0,1.29,2.48,2.48,0,0,0,1.41,1.38,2.54,2.54,0,0,0,2-.08,16.65,16.65,0,0,0,9.65-9.92,4.73,4.73,0,0,0-.41-3.44,16,16,0,0,1,.1-7.77q2.57-10.71,4.57-21.53a52.36,52.36,0,0,0,.06-17.66,48.47,48.47,0,0,0-22.62-26.86,63.53,63.53,0,0,0-21.53-7.88,82.17,82.17,0,0,0-24.54,1.18,54.74,54.74,0,0,0-24.61,15.42,53.21,53.21,0,0,0-9.32,11.71,46.79,46.79,0,0,0-1.8,12.05,69.25,69.25,0,0,0,2,24.53A29.28,29.28,0,0,0,134,119a5.88,5.88,0,0,1,.79.93l.08.18a.49.49,0,0,1-.1.41,3.07,3.07,0,0,1-.72.52,9.55,9.55,0,0,0-2.87,1.81,8.86,8.86,0,0,0-.88,4.35,14.13,14.13,0,0,0,3,10.75,4.19,4.19,0,0,0,5.16.56,7.6,7.6,0,0,1,2.6-.78,2.31,2.31,0,0,1,.89.24A9.13,9.13,0,0,0,147,139.3a1.24,1.24,0,0,0,.76-2.22,4.08,4.08,0,0,0-2-.65,1.54,1.54,0,0,1-.9-.46.5.5,0,0,1-.08-.46,1.72,1.72,0,0,1,.6-.83,28.8,28.8,0,0,1,10.24-5.53,5.62,5.62,0,0,1,2,.07,1.52,1.52,0,0,1,.88,1.45,17.49,17.49,0,0,0,.67,5.14,1.58,1.58,0,0,1-.09.86,8.61,8.61,0,0,0,.2,6A139.1,139.1,0,0,1,161,164.66a107.35,107.35,0,0,0,1.32,15.5,5.09,5.09,0,0,0,4.71,3.29,1.11,1.11,0,0,0,.64-.31,1,1,0,0,0,.2-.5q.9-13.94.5-27.89c0-3.79,0-7.57,0-11.36a1.06,1.06,0,0,1,.12-.43.12.12,0,0,1,.1-.06.07.07,0,0,1,.08,0,5.45,5.45,0,0,1,.19,1.07q1.6,19.93,1.28,40a1.8,1.8,0,0,0,.11.56.43.43,0,0,0,.28.26,3.49,3.49,0,0,0,1.5.15c1.38,0,2.76,0,4.13,0a.65.65,0,0,0,.62-.63q.07-4.67,0-9.33Z"/><path class="cls-1" d="M290.91,119.45a15.84,15.84,0,0,0,2.79,10.1.78.78,0,0,0,.67.27,1,1,0,0,0,.43-.27,4.37,4.37,0,0,0,.54-5.83,48.27,48.27,0,0,0-3.28-5.15l-.49-.59a.28.28,0,0,0-.27,0,.32.32,0,0,0-.2.21l-.05.26a5.4,5.4,0,0,0-.14,1Zm-4.06-3a4.91,4.91,0,0,0-2,3,22.13,22.13,0,0,1-2.82,4.75,4.74,4.74,0,0,0,.92,5,.68.68,0,0,0,.94,0,7.31,7.31,0,0,0,1.3-2.41,31.31,31.31,0,0,0,2.56-9.4,2.56,2.56,0,0,0-.09-.87.36.36,0,0,0-.25-.23.39.39,0,0,0-.33,0l-.23.15ZM282.7,111q-16.93-9.34-34.42-17.64a17.7,17.7,0,0,0-2.46-.81,1,1,0,0,0-1.14.67,11,11,0,0,0,.15,6.38,26.45,26.45,0,0,0,4.39,9.87,7.92,7.92,0,0,0,4.67,2.46,105.65,105.65,0,0,0,16,3.21,30.47,30.47,0,0,0,12.43-3.39l.52-.35a.2.2,0,0,0,.05-.18.44.44,0,0,0-.15-.22Zm39.7,1.37a11.33,11.33,0,0,0,7.77-5.49A20.7,20.7,0,0,0,333,94.12a1.36,1.36,0,0,0-1.21-1,16.3,16.3,0,0,0-8.11,2,88.64,88.64,0,0,0-13.35,7.71q-7.5,4.45-15.26,8.43l-.33.25a.17.17,0,0,0,0,.23,1.31,1.31,0,0,0,.36.21,32.25,32.25,0,0,0,13.93,3.12,65.46,65.46,0,0,0,13.35-2.7ZM287.79,175q-.17-15.3.39-30.59a5.65,5.65,0,0,1,.32-1.87l.19-.38a.47.47,0,0,1,.53-.07,1,1,0,0,1,.49.44,25.84,25.84,0,0,1,.83,7.06q.18,17.52.17,35a.47.47,0,0,0,.16.31.48.48,0,0,0,.35.05,8.85,8.85,0,0,0,2.71-.77,4.83,4.83,0,0,0,1.45-2.78,115.74,115.74,0,0,0,1.25-17.64q-.08-11.62.81-23.21a1.41,1.41,0,0,1,.44-.81,1.15,1.15,0,0,1,.87-.14,3.64,3.64,0,0,1,1.75.71.51.51,0,0,1,.15.62,4.69,4.69,0,0,1-.65.93,9.84,9.84,0,0,0-1.53,5.53q-.54,18.39,0,36.78a.73.73,0,0,0,.13.4.36.36,0,0,0,.34.13,8.48,8.48,0,0,0,1.92-.5,4.93,4.93,0,0,0,3.82-3.2,106,106,0,0,0,2-22,43.74,43.74,0,0,1,2.83-16.37,75.41,75.41,0,0,0,1.79-9.05,6.32,6.32,0,0,1,6.72-4.54,5.6,5.6,0,0,1,4.69,1.5,7.55,7.55,0,0,1,.41,5.21,3.81,3.81,0,0,0,.15,2.14,3,3,0,0,0,3.8.68,16.3,16.3,0,0,0,9.18-10.16,3.88,3.88,0,0,0-.36-2.57,13.62,13.62,0,0,1,0-8.19q2.55-11,4.61-22a61.81,61.81,0,0,0,.22-16.36,46.48,46.48,0,0,0-19.68-25.73,65.73,65.73,0,0,0-24.1-9.8,85.92,85.92,0,0,0-24.12.89,52.2,52.2,0,0,0-23.28,13.34,64.31,64.31,0,0,0-11.42,13.53,33.66,33.66,0,0,0-1.9,9.93,104,104,0,0,0,.44,21.09,26.85,26.85,0,0,0,7.87,15.92c.35.41.71.81,1.07,1.21a.7.7,0,0,1,.17.53.56.56,0,0,1-.26.42,21.39,21.39,0,0,0-3.17,1.86,5,5,0,0,0-1,2.92,17.75,17.75,0,0,0,1.72,10.79,4.32,4.32,0,0,0,6.56,2.16,4,4,0,0,1,4.28,0,7.65,7.65,0,0,0,3.89.94,2,2,0,0,0,1.17-.6,1,1,0,0,0,.28-.76,1,1,0,0,0-.37-.73,3,3,0,0,0-1.9-.78,1.88,1.88,0,0,1-.89-.29.6.6,0,0,1-.22-.81,5.29,5.29,0,0,1,1.51-1.47,27.89,27.89,0,0,1,9.45-4.76,5.28,5.28,0,0,1,1.9.13,1.48,1.48,0,0,1,.8,1.39,17.94,17.94,0,0,0,.66,5.15,1.55,1.55,0,0,1-.11.85,10.94,10.94,0,0,0,.39,6.92,197.42,197.42,0,0,1,1.68,24.53,81.39,81.39,0,0,0,1.21,12.47,3.17,3.17,0,0,0,.83,1.15,5.71,5.71,0,0,0,3.4,1.78,1.11,1.11,0,0,0,1.24-.77c.08-.42.14-.85.19-1.27q.86-15.72.27-31.45c0-2.13,0-4.27.17-6.4l.16-.65a.13.13,0,0,1,.1-.06.09.09,0,0,1,.08.06,6.28,6.28,0,0,1,.14,1.06q1.43,19.53,1.25,39.13a6.36,6.36,0,0,0,.07,1.31.64.64,0,0,0,.48.45c1.84.08,3.68.07,5.51,0a.63.63,0,0,0,.49-.43,7.08,7.08,0,0,0,.06-1.72q0-3.87,0-7.74Z"/><path class="cls-1" d="M69.52,155.84a57.41,57.41,0,0,0,25.84-8.49,42.46,42.46,0,0,0,17.24-25.78,108.75,108.75,0,0,0,2.67-29.28V1.43c0-.25,0-.51,0-.76a.66.66,0,0,0-.36-.56,2.74,2.74,0,0,0-1-.1L68.33,0a.91.91,0,0,0-.71.3.78.78,0,0,0-.15.47l-.19,104A20.89,20.89,0,0,1,63.48,117a11.23,11.23,0,0,1-10.75,3.06A10.31,10.31,0,0,1,44,111.67a69.23,69.23,0,0,1-1.09-15.94q0-7.26,0-14.53a1,1,0,0,0-.3-.75l-.2-.12a4.65,4.65,0,0,0-.91-.07q-20.37-.06-40.75,0a.93.93,0,0,0-.46.12.59.59,0,0,0-.19.41q-.18,13.5.21,27a55.57,55.57,0,0,0,10,29.71,47,47,0,0,0,29.13,17.35,99.09,99.09,0,0,0,30.16,1Z"/></g></g></svg>