<svg xmlns="http://www.w3.org/2000/svg" viewBox="0 0 460.22 77.21"><defs><style>.cls-1{fill:#231f20;stroke:#00aeef;stroke-miterlimit:22.93;stroke-width:0.22px;fill-rule:evenodd;}</style></defs><g id="Layer_2" data-name="Layer 2"><g id="Layer_1-2" data-name="Layer 1"><path class="cls-1" d="M19.8,30.14C9.46,46.16,4.29,56.26,4.43,62.59c1.61,1.27,3.7-.94,5.12-1.74,4.77-2.73,7.83-4.61,10.3-3.21q-1.77,7.68,3.63,5.81,4.69-25.89,10.25-22.31Q49.15,51.55,56.62,65.42c1.23,1.06,3.52-.51,4.55-5.93.29-1.55,6.5-8.64,5.49,3.13.7,1.81,4.08,1.4,9.49-2.72.88-.67,3.54-.62,4.65-1.22,11.9-1.68,24.57-4.07,47.92-1.8q7.75,1.51,4.16,5.6-2.79,2.15-8.68-1.51-2.81-1.42-6.67,5.1c-2.53,2.14-5.2,2.7-14.17,1.9-6.21-.55-8.64,1.91-8.8,4.22-.23,3.25,5.56,6.15,25-.53,3.64-.84,5.75-.27,6.31,1.72q-6.67-1.32-5.2,1.33c.43,1.74,3.77,1.63,7.61,2,11.77,1.25,14.73-1,18.19-3.06,1.57-.93,4.6,0,7.31.08,21.29.91,35.91-5.12,53.83-3.91,6.91.46,7.36,2.15,11.65-1.95q5.46-5.22,18.49-4.49c64.39,5,66.72,8.76,94.8,8.36q15.67-.21,29.88-1.76c5.25-1.22,13.25-3,18.85-2.13,12.73,2,22.12,3.81,28.5-1.6q1.73-1.68-3.8-1.22-7.35.82-9.69-1.43-3.55-2.67,5.81-2.8,36.77-.26,47.06-1.58c3.8-.14,8.45-1.27,10.36-2.76.06-.05,1.73-3.52-1.14-3.08-4.75.71-8.7,1-8.57-1.19-.4-1.59,1-1.63,4.33-1.55,4.11.1,4.25-4.19.62-5.3a33.15,33.15,0,0,0-21.77,1c-6.16,1.39-12.61,2.92-14.75-1,.23-1.71,9.43-5.65,30.31-6.25,1.22,0,1.58-.83,1.77-1.69a2.9,2.9,0,0,0-.65-2.32c-2.25-1-3-1.4-2-3,.58-.47,1.35.22,2.44.3.88.07,1-.44,1.29-1,1.8-3.72-4.31-4.08-6.78-3.61-15.4,4.56-20.62,4.8-20.12,2,.73-3.92,8.15-5.47,15.24-5.65,8.39-.21,16.52,1.1,15.39-3Q456,8.79,451.51,8.6c-4.5-1.2-13.78,1.55-31.71,5.67-.76,0-4.14.68-8.29.69-4.6,0-10-.63-10,.34,0,3.37-1.13,5.43-4.46,3.31-15.77-7.42-26.63-12.36-28.12-14.45q-9.44.55-12.56,8.89,5.39,14.1,2.3,30.71-.87,8.52-6.21,13.52c.59-9.19,2.7-17.19,2.51-23.87-.06-2.36-.11-4.08-.18-6.15-.34-10-.82-17.07-2.26-19-.53-1.76-3.55-1.72-7.17,1.91-2.49,1.52-3.62,1.14-3.37-1.15q-2.1-5.55-11.84-2.37Q325,8,314.09,22.2q-10.81,8.76-22.17,8-18.57-.8-28.89,7.67c-6.15,5,10.62,2.06,11.93,1.69,3.48-.63,4.78-.08,6.92,1.87q2.37.28,1.54-2.51c-1.11-.12-1.53-.47-1.25-1,3.57-2.1,4.5.09,3.85,3.1-.82,3.75-4.09,8.77-7.76,8.31q-21.21-4.64-22.06-10.94Q257,30.84,280.63,24q13.25-6,14.7-2.61,4.11,7.81,8.22,3.22,2.06-2.43,1.83-9.82,0-4.59-3.3-4.92c-1.56-.49-2.42-.91-4.26-3.48-1.82-1.09-5.77-1.58-10.16.76-19.21,6.15-33.7,12.12-42.57,17.48-3.44,2.07-4,1.64-4.33,5.37-.68,7.45-2.26,10.56-6.61,8.73-3.51-1.42-7.71-.53-15.15,1.85q-6.27,2.18-8.53-1.87c-.31-.34.85-1,3.89-1.69,6.84-1.65,19.06-4.33,21.88-8.7a3.06,3.06,0,0,0-1.15-4.5c-2.42-1.38-7.12-.41-9.73.47-5.47,3.06-9,2.66-12.36,1.77-2.06-.55-.18-2.62,1.42-3.65,3.25-2.09,9.89-3.41,18.92-2.23,3.18.42,3.39-.15,5-2.67a24.86,24.86,0,0,1,7.26-7.69c6.83-4.49-4.4-3.07-6.62-2.14-6.66,2.8-11.73,6.29-16.41,4.18-2.21-1-1.78-1.27-2.57-3.23q-1.67-4.09-4.32-2.45c-3.43.86-4.28,2.11-2.58,3.75.72.68,1.26.66,1.41,1.68.26,1.93-1.62,2.58-3.62.51-2.23-2.31-4.75-2.86-6.8-1a13.57,13.57,0,0,1-10.54,2.23c-1-.09-.47.42-.35,2.68.05,1-.72,2.85-.44,4.35-1.66.12-1.86-1.45-2.74-3a11.68,11.68,0,0,1-1.46-3.29c-.47-2.79.23-4.14,3.48-6.28q3.67-4.85.64-7-3.34-1-15,14.42-8,11.24-10.19,13.56-2.88,1.36-7.53-8.47Q154.78,10,151.64,10c-.64,4.21-2,6.14-4.16,5.81q-3.12-6.28-6-3.37a23.28,23.28,0,0,0-10,10.26,77.09,77.09,0,0,0-16.16,2.49c-5.93,1.43-13,4.77-20.87,6.41-3.81.8-8-5.61-6.59-7.32,1.55-1.06,3.48-.2,5.82,2.58,1.41.42,3.37-.58,5.86-3,3.83-3.71,6.4-2.88,11.74-4q20.06-4.17,24.22-11.3.83-3-14.56-2.8c.28-.57.37-1.14.06-1.16-5.38-.34-11.46,5.84-13.26,4.68S105.5,7.92,102.92,9c-4.45,1.88-11.33,6.4-14.41,8.35q-3.08.38-2.44-2.15-1.86-6.78-20.88-9.9c-.68-.92-.58-1.59.29-2,.87-.22.47-1.71.51-2.09C66.17-.57,59.76.37,58.6.83c-1.52.07-3.24.5-4.74-.72-.75,0-3.06,1.34-6.92,4.16-9.59,3.31-14.75,5.45-21.38,6.49C13.54,13.6,3.33,20.34.25,24.67c-1.75,2.47,13-1.62,14.62-2.29,6.81-1.28,8.73-1.35,8.91.68.15,1.73-2,4-4,7.08ZM178,43.28a27.21,27.21,0,0,1-.15,6.67q7.27.34,11.91-12.05,1.3-7.11-1.15-11.2-1.41-.94-2.79,2.08Q179.5,36,178,43.28ZM384.18,35a20.13,20.13,0,0,1,.47,6q-2.52-.64-11.08,2.8-2.06.45.71-6a15.8,15.8,0,0,0,.51-6.93c0-2.94,1.31-4.55,3.87-4.8,3-.12,5.16,6.49,5.52,9Zm-69.33,9.87q-15.44,6.9-11.77,9.25,11.71-.66,19,3,4.49,2.7,21.45,1.07,1.69-18.18-.14-19.3a70.45,70.45,0,0,0-28.55,6Zm27.94-14.71c-3-.32-6.49-.82-10.69.65-3.54.55-4.71-.33-2.87-3.63,5.67-7.06,14.23-7.44,13.56,3ZM148.14,37.74a1.93,1.93,0,0,1,1.69-.9q4.88,3,7.71,11.94,2.27,8.78,6.82,8.32c1.95-.06,2.72.32,2.29,1.15,1.66.8,2.8-.42,3.45-3.66q1.36-1.43,36.8-4.8a90.05,90.05,0,0,1,29.84,2.15q4,2.07-1.93,2.22-47.48,3-58.4,5.81c-21.34,1.51-32.58,2-35.91,1.2-1.59-2.33,1.12-9.69,7.64-23.43ZM85.55,43.22q-3,.84-1.36,1.87,9.56.9,22.31-3.52c9.82-2.6,14.87-3.8,21.82-4.72.43-.06,1.39-1.07,1.3-1.66-.33-2.08,1.3-1.59-7.55-3.59-1.68-.7-4.59.36-8.76,3.16q-2.43,1.1-14.13,3.73a53.39,53.39,0,0,0-13.63,4.73ZM50.67,33A45.64,45.64,0,0,0,70.4,28.12c.6.71.27,1.95-1,3.73q-3.8,8.34-4.23,12.2c-.46,1.36-1.9.53-4.84-1.22-.77-.61-12.94-8.06-9.65-9.83Zm3-19.23a15.87,15.87,0,0,0-6,3.81C44.12,20.48,43.41,23,45.5,25A28.63,28.63,0,0,0,67,17.15q2.6-3.43-4.73-4.24a13,13,0,0,0-8.54.86Z"/></g></g></svg>