<svg xmlns="http://www.w3.org/2000/svg" viewBox="0 0 460 30.23"><defs><style>.cls-1{fill-rule:evenodd;}</style></defs><g id="Layer_2" data-name="Layer 2"><g id="Layer_1-2" data-name="Layer 1"><path class="cls-1" d="M219.88.94h13.91a.37.37,0,0,1,.37.37V28.92a.38.38,0,0,1-.37.37H219.88a.37.37,0,0,1-.37-.37V1.31A.36.36,0,0,1,219.88.94ZM.37.94H31.15C44.24.94,54.08,2,54.07,9.87c0,4.82-4.26,7.27-10.1,7.78-1.68.15-2.06.66-.38,1.68l16.4,10H42.56c-1.17,0-1.39,0-2-.39L17.79,13.67h8.59c9.91,0,12.89-1.4,12.88-3.95s-2-3.94-9.21-3.94H14.65V28.92a.38.38,0,0,1-.37.37H.37A.37.37,0,0,1,0,28.92V1.31A.36.36,0,0,1,.37.94ZM354.21,0C373.57,0,386,6,386,15.11s-12.37,15.12-31.79,15.12-31.78-6-31.78-15.12S334.86,0,354.21,0Zm-.08,5.31c10.36,0,17,3.86,17,9.75s-6.62,9.74-17,9.74-17-3.89-17-9.74S343.77,5.31,354.13,5.31ZM282.93,0c8.84,0,15.5.89,20.37,2.47a1.14,1.14,0,0,1,.95,1.29V8.43c0,.35-.14.39-.43.28-5.56-2.17-13.58-3.4-21-3.4s-16.76,3.31-16.76,9.8,9.39,9.69,16.76,9.69a67.15,67.15,0,0,0,21.06-3.69c.21-.08.35,0,.35.23v5.13c0,.75-.13,1-.81,1.23-4.88,1.63-11.59,2.53-20.51,2.53-19.15,0-31.34-6.48-31.34-15.12S263.84,0,282.93,0ZM113.83.94H127.5a.51.51,0,0,1,.51.51v16c0,4.88-4.44,12.78-27.79,12.78s-27.79-7.9-27.79-12.78v-16a.51.51,0,0,1,.51-.51H86.61a.51.51,0,0,1,.51.51v16c0,5.07,2.44,7.73,13.1,7.73s13.1-2.66,13.1-7.73v-16A.51.51,0,0,1,113.83.94Zm333.6,0h11.91a.67.67,0,0,1,.66.66v27a.67.67,0,0,1-.66.66H445.83a2.61,2.61,0,0,1-2-.65l-26-17.33c-1.19-.79-1.48-.77-1.48.43V28.57a.71.71,0,0,1-.71.72H402.76a.72.72,0,0,1-.72-.72V1.65a.72.72,0,0,1,.72-.71h14.32a2.54,2.54,0,0,1,1.84.53l26.47,17.65c1.05.7,1.37.73,1.37-.67V1.6A.67.67,0,0,1,447.43.94ZM148.26.94h20.11c14.4,0,27.36.33,27.34,6.56,0,4.91-4.5,4.89-4.5,6.21,0,1,10,1.75,10,7.2,0,8.38-13.24,8.38-32.83,8.38H148.26a.37.37,0,0,1-.36-.37V1.31A.36.36,0,0,1,148.26.94ZM163.1,5.77h12.5c5.34,0,6.56,1.59,6.56,3.71s-1.27,3.71-6.56,3.71H163.1a.56.56,0,0,1-.56-.56V6.33A.56.56,0,0,1,163.1,5.77ZM163.16,17H178c6.59,0,8.89,1.46,8.93,4.14s-2.37,4.14-8.93,4.14h-14.8a.62.62,0,0,1-.62-.62v-7A.62.62,0,0,1,163.16,17Z"/></g></g></svg>