<svg xmlns="http://www.w3.org/2000/svg" viewBox="0 0 460 39.5"><defs><style>.cls-1{fill-rule:evenodd;}</style></defs><g id="Layer_2" data-name="Layer 2"><g id="Layer_1-2" data-name="Layer 1"><path class="cls-1" d="M214,18.13c4.05,4,3.45,13.27-.71,17C210.06,38,205,39,200.72,39H148.3V0h50.27c4.18,0,9.92.94,13.5,3.84C215.93,7,216.59,14,214,18.13Zm92.79-9.56h-30.5a6.78,6.78,0,0,0-4,.91c-1.81,1.39-1.92,5.25-1.92,7.27v5.52c0,5,.39,8.2,6.09,8.2h36.3L306.74,39H264.88c-6.38,0-14.46-.94-17.49-7.5C246,28.48,246,25,246,21.67V17.55c0-3.37,0-7,1.45-10.06C250.48,1,258.5,0,264.88,0H312.4ZM361.6,0c8,0,21.44.46,24.6,9.75a23.87,23.87,0,0,1,.86,7.8v4.12a23.74,23.74,0,0,1-.83,7.65C383.1,38.61,369.61,39,361.6,39H338.82c-8,0-21.5-.43-24.63-9.72a23.74,23.74,0,0,1-.84-7.65V17.55a23.88,23.88,0,0,1,.87-7.8C317.38.46,330.78,0,338.82,0ZM437,19.4V0h23V39H435l-21-20.6V39H391V0h26.19ZM72.59,0h23V2.26q0,12.15,0,24.29c0,3.91,5.31,3.8,8.11,3.8h6.66c2.8,0,8.11.11,8.11-3.8l0-26.55h23l0,25.36c0,2.35.2,4.8-.69,7-1.23,3.13-4.12,4.63-7.19,5.5-5.28,1.49-12.24,1.6-17.7,1.6H98.18c-5.46,0-12.42-.11-17.71-1.6-3.08-.87-6-2.37-7.2-5.51-.88-2.23-.68-4.68-.68-7ZM56.85,27,74,39H44.46L23,23.16V39H0V0H50.88C55.85,0,61.8,1,65,5.19c3,3.88,3.17,12.85.55,17C63.62,25.24,60.3,26.5,56.85,27ZM23,18h18.2c3.05,0,6.25-1,6.25-4.62s-3.29-4.62-6.25-4.62H23ZM220.27,0h23V39h-23Zm-49,30.26h22.31c1.07,0,3.54-.52,3.54-2V25.34c0-1.8-1.16-2.13-2.73-2.13H171.32Zm0-15.84h21.82a2.24,2.24,0,0,0,2.37-2v-2c0-1.3-1.27-1.67-2.37-1.67H171.32ZM354.19,29.79c5.95,0,9.09-.6,9.09-7.15V16.52c0-6.61-3.06-7.26-9.09-7.26h-8c-6,0-9.09.65-9.09,7.26v6.12c0,6.55,3.13,7.15,9.09,7.15Z"/></g></g></svg>