<svg xmlns="http://www.w3.org/2000/svg" viewBox="0 0 460 114.92"><defs><style>.cls-1{fill-rule:evenodd;}</style></defs><g id="Layer_2" data-name="Layer 2"><g id="Layer_1-2" data-name="Layer 1"><path class="cls-1" d="M409.7,79.57c22.22-3.91,33.54-5.81,50.3-8.29-10.89-2.46-21.28-4.7-31.09-6.75-16.33-3.4-31.05-6.26-43.72-8.72-13.28-2.54-20.55-2.07-29.21,0-9.87,2.37-24.7,8.78-52.3,1.1-1.45-.55-2.81-1.06-4.11-1.53A76.58,76.58,0,0,0,291,52.7v0l-.7-.14c-5.83-1.33-11.66-1.33-20.55.4l-89,17.9c18.35,3.58,53.51,17.32,9.81,32.33,9.53,2.88,32.27,8.25,48.43,11.71,33.77-12.75,67.6-18.59,110.89-25.34,12.35-1.21,17.09-.63,11.6-5.65-3.84-3.48-16.74-10.15-30.71-16.28,32.35,3.12,55.47,8.37,51.2,16.85Zm-194-17-.08,0c7.33-1.56,15.57-3.67,24.58-6.27-5.08-2-10-3.71-15.4-3.94v0c-4.85-.23-10.11.7-16.35,3.6-10.43,4.88-41.57,9.31-63.84,3.24-4-1.46-7.25-2.66-10.17-3.52l.09.17c-9.79-2.94-16.14-2.91-35-.17L0,76.19c28.46.92,82.43,8.76,80.35,8.43,29.05,4.25,58.08,11.52,84.57,17.12,59.44-10.52,21.14-27.39-4.64-36.83C174,67.57,190.18,68,215.68,62.58Zm-.52-1.64c9-3.76,8.26-6.06,8.22-6.8-5.75.07-9.06,1.25-14.29,3.49-11.54,4.95-31.8,6.87-44.83,6.23C180.28,66.38,198.85,64.57,215.16,60.94Zm23.63,52.17,11.67-6.94c13-7.33,32-18.15,38.61-33.47a26.69,26.69,0,0,0,.69-18.49,47.62,47.62,0,0,0-19.57.44L188.8,71c7.25,2.07,21.45,7,24.21,14.84,3.1,8.87-11.49,15-16.66,17.1Q217.43,108.6,238.79,113.11ZM80.4,82.9a134.49,134.49,0,0,0,41-9.27c5.74-2.3,15.54-8.29,12-16.28a44.51,44.51,0,0,0-14.9-1.89,170.11,170.11,0,0,0-18.58,2L12.7,75.33Q46.65,78.19,80.4,82.9Zm321.53-3.68a30.94,30.94,0,0,0,2.89-7.31c.46-2.37-1.23-4.91-3.2-6.23a45,45,0,0,0-11.28-5.29l-13.5-4.29a59.79,59.79,0,0,0-20.39,1.36c-11.87,3.34-22.3,5.83-35.09,4.49l9.92,4q13.47,1.22,26.81,3.55c5.19.89,25.9,4.54,26.22,12.84ZM178,36.12a76.46,76.46,0,0,0-18.14-.06l-.78.11.14-.78a71.73,71.73,0,0,0,1.26-13.52c0-12.9-.39-15.66-1.26-20.68l-.14-.78.78.12a57.07,57.07,0,0,0,8.46.62,73,73,0,0,0,9.57-.63l.79-.1-.16.78a64.61,64.61,0,0,0-1.15,13.12h22.88a63.28,63.28,0,0,0-1.25-13l-.2-.8.82.1a73.44,73.44,0,0,0,9,.57,64.38,64.38,0,0,0,9.33-.68l.76-.11-.11.76a132.25,132.25,0,0,0-1.38,20.58,73.74,73.74,0,0,0,1.2,13.75l.14.76-.77-.09a78.4,78.4,0,0,0-9.34-.57,87.07,87.07,0,0,0-8.83.45l-.79.09.17-.78A65.67,65.67,0,0,0,200.26,20H177.32a76.8,76.8,0,0,0,1.32,15.44l.13.76ZM108.78,20.54c2.2.08,4.34.13,8.51.13,1.51,0,2.85,0,4.18,0l-6-9.63Zm39.36,15.58a53,53,0,0,0-8.79-.75,56.16,56.16,0,0,0-8.57.69l-.41.06-.19-.36c-2-3.8-4.23-7.83-5.41-9.75-4-.11-8.51-.22-12.32-.22-2.37,0-4.78.05-7.33.11h-.05c-2.92,4.25-5.23,7.91-6.33,9.77l-.2.33-.38-.06a40.12,40.12,0,0,0-5.57-.39,32.58,32.58,0,0,0-5.28.39l-1.71.28L86.81,35C93,28.7,101.56,19.14,113.64.89l.19-.28.34,0c2,.16,3.75.28,6.53.28,1.18,0,3.54,0,6.07-.23l.39,0,.17.35c4.91,10.1,11.7,21,21.37,34.21l.82,1.13ZM251.07,20.54c2.2.08,4.32.13,8.46.13,1.59,0,2.91,0,4.23,0L257.71,11Zm39.36,15.58a52.18,52.18,0,0,0-8.85-.75,57.41,57.41,0,0,0-8.57.69l-.42.06-.18-.37c-1.91-3.81-4.13-7.76-5.35-9.74-4-.11-8.51-.22-12.33-.22-2.38,0-4.91.06-7.37.11-2.91,4.25-5.23,7.91-6.33,9.77l-.2.33-.38-.06a40.12,40.12,0,0,0-5.57-.39,32.58,32.58,0,0,0-5.28.39l-1.71.28L229.1,35c6.15-6.29,14.75-15.84,26.83-34.09l.19-.28.34,0c2,.16,3.76.28,6.59.28.93,0,3.39,0,6-.23l.39,0,.17.35c4.91,10.09,11.7,21,21.36,34.21l.83,1.13Zm96.29-15.58c2.13.08,4.31.13,8.46.13,1.59,0,2.92,0,4.23,0L393.36,11ZM426,36.12a51.83,51.83,0,0,0-8.79-.75,56.26,56.26,0,0,0-8.57.69l-.41.07-.19-.38c-2-4.06-4.24-7.94-5.4-9.74-3.46-.09-8.36-.22-12.27-.22-2.39,0-4.84.05-7.43.11-3.2,4.65-5.37,8.16-6.28,9.76l-.19.34-.38,0a40.35,40.35,0,0,0-5.64-.4,32.58,32.58,0,0,0-5.28.39l-1.72.28L364.7,35c8.95-9.09,17.24-19.6,26.88-34.09l.19-.28.34,0c2.18.18,3.94.28,6.53.28,1.16,0,3.49,0,6-.23l.38,0,.17.35c4.91,10.1,11.7,21,21.37,34.21l.82,1.13ZM318.49,16.63a20.83,20.83,0,0,0,2.11.11,15.16,15.16,0,0,0,6.59-1.32,4.55,4.55,0,0,0,2.42-4.11c0-5.21-4.78-6.3-8.78-6.3a13.06,13.06,0,0,0-2.07.15,72.75,72.75,0,0,0-.3,7.3C318.46,13.32,318.46,15.64,318.49,16.63Zm35.06,19.61a87.52,87.52,0,0,0-11.13-.64,88.91,88.91,0,0,0-8.89.41l-.29,0-.19-.21A136.2,136.2,0,0,0,318.46,22c0,4.05.17,6.56.69,13.5l.05.7-.69-.09a67.55,67.55,0,0,0-8.3-.46A72,72,0,0,0,302,36l-.71.09.08-.72a136.3,136.3,0,0,0,.8-17,147,147,0,0,0-.8-17l-.08-.67.68,0c3.52.23,7.37.29,9.08.29,2.74,0,5.51-.11,8.19-.21s5.43-.2,8.15-.2a45.32,45.32,0,0,1,8.2.53c7.28,1.34,11.3,4.45,11.3,8.76,0,4.8-5.16,8.51-12.72,9.29,6.76,5.82,11.9,10,19.77,15.94l1.69,1.28ZM51.2,36.59a102.37,102.37,0,0,1-16.09-1.51L34.36,35l.34-.69a14.59,14.59,0,0,0,1.79-6.89l0-.58,4.39-.07L41,27c2,2.64,6.63,4.34,11.83,4.34,5.92,0,9-1.89,9-3.76,0-2.5-5.74-3.73-8.83-4.38-.66-.14-1.23-.27-1.66-.38l-1.2-.31c-3.94-1-9.33-2.37-12.11-4-3.25-1.92-4.84-4.23-4.84-7.07C33.25,4.57,42.14,0,55.36,0A56.17,56.17,0,0,1,72.28,2.8l.85.29-.62.65a9.89,9.89,0,0,0-3,5.52l-.07.46L66,9.87l-.18-.26c-1.63-2.37-5.92-4-10.67-4-5.31,0-7.74,1.76-7.74,3.41a2.32,2.32,0,0,0,1,1.7c1.18,1,3.21,1.58,5.17,2.14l1.37.4c1.49.42,3.07.81,4.6,1.19,2.4.6,4.89,1.21,7.2,2l.56.2c2.43.82,8.89,3,8.89,8.08C76.25,31.94,66.42,36.59,51.2,36.59ZM383.53,22.11l2.07.1c2.54.11,4.72.17,9.58.17,1.93,0,3.6,0,5.29-.06l2-.07-9-14.34Zm25.69,12.13c-2.06-4-4.23-7.82-5.3-9.42l-.33-.49-.59,0c-3.47-.1-8.56-.23-12.61-.23-2.44,0-4.94.05-7.59.11l-.76,0-.33.48c-2.93,4.25-5,7.59-6.13,9.46a42.74,42.74,0,0,0-5.11-.32c-.82,0-1.59,0-2.35.07,8.09-8.53,15.76-18.39,24.52-31.5,1.93.15,3.62.24,6,.24,1.07,0,3.09,0,5.37-.18C408.66,11.88,414.93,22,423.61,34a52.75,52.75,0,0,0-6.38-.38A59,59,0,0,0,409.22,34.24ZM105.59,22.11l2.07.1c2.66.11,4.78.17,9.63.17,1.9,0,3.55,0,5.24-.06l2-.07-9-14.34Zm25.74,12.13c-2-3.92-4.2-7.71-5.28-9.4l-.32-.51-.61,0c-4.06-.12-8.74-.23-12.67-.23-2.39,0-4.81.05-7.37.11l-.92,0-.33.48c-2.71,3.94-4.93,7.4-6.18,9.46a41.17,41.17,0,0,0-5.06-.32c-.82,0-1.6,0-2.36.07,5.94-6.27,13.87-15.55,24.47-31.5,1.78.14,3.47.24,6,.24,1.09,0,3.15,0,5.43-.18C130.78,11.88,137.05,22,145.73,34a52.87,52.87,0,0,0-6.38-.38A57.37,57.37,0,0,0,131.33,34.24ZM247.88,22.11l2.07.1c2.66.11,4.77.17,9.58.17,1.93,0,3.59,0,5.29-.06l2-.07-9-14.34Zm25.69,12.13c-1.93-3.79-4.09-7.61-5.23-9.4l-.32-.51-.61,0c-4.06-.12-8.75-.23-12.68-.23-2.49,0-5.14.06-7.7.11l-.58,0-.33.48c-2.71,3.93-4.93,7.4-6.18,9.46a41.17,41.17,0,0,0-5.06-.32c-.82,0-1.6,0-2.36.07,5.94-6.27,13.87-15.55,24.47-31.5,1.78.14,3.48.24,6.06.24.86,0,3,0,5.37-.18C273.07,11.88,279.33,22,288,34a52.85,52.85,0,0,0-6.43-.38A58.22,58.22,0,0,0,273.57,34.24ZM320.83,3.3a14.29,14.29,0,0,0-2.82.25l-.84.17-.08.85a77.72,77.72,0,0,0-.35,7.89c0,3.22,0,4.48.07,4.84l.12.86.86.11a21.63,21.63,0,0,0,2.81.18A17,17,0,0,0,328,16.93a6.29,6.29,0,0,0,3.31-5.62C331.32,6.22,327.5,3.3,320.83,3.3Zm13.1,30.94a145.17,145.17,0,0,0-15.31-14.4l-1.88-1.59v3.39c0,4,.15,6.43.6,12.57a70.93,70.93,0,0,0-7.13-.32c-1.82,0-4.4,0-7,.26a139.93,139.93,0,0,0,.66-15.74,151.1,151.1,0,0,0-.68-15.81c3.16.16,6.33.21,7.85.21,2.77,0,5.56-.1,8.26-.2s5.39-.2,8.08-.2a43.52,43.52,0,0,1,7.85.49c3.73.69,9.94,2.51,9.94,7.08,0,4.13-5.13,7.29-12.49,7.69l-2.82.15L332,19.68c6.34,5.47,11.14,9.4,17.71,14.46-2.31-.17-4.7-.25-7.32-.25C339.31,33.89,336.52,34,333.93,34.24Zm-117.46,0c-2.7-.27-5.45-.42-8-.42-1.81,0-4.47.06-7.46.32a72.45,72.45,0,0,0,1-14.73l0-1.12H175.62v1.14a76.78,76.78,0,0,0,1.09,14.79,74.93,74.93,0,0,0-7.8-.4c-2.87,0-5.46.12-7.73.35a71.83,71.83,0,0,0,1-12.31c0-11.69-.31-15.16-1-19.44a57.07,57.07,0,0,0,7.15.44,73.41,73.41,0,0,0,8.24-.46,67.51,67.51,0,0,0-.89,12.49V16H202V14.9a69.64,69.64,0,0,0-1-12.44c2.51.26,5.22.41,7.62.41a66.6,66.6,0,0,0,8.07-.5,135.33,135.33,0,0,0-1.19,19.33A74.84,74.84,0,0,0,216.47,34.25ZM51.2,34.87a98.59,98.59,0,0,1-14.33-1.24,15.45,15.45,0,0,0,1.31-5.15l1.87,0C42.5,31.23,47.45,33,52.87,33c6.42,0,10.73-2.2,10.73-5.47,0-3.89-6.13-5.2-10.18-6.06-.63-.13-1.18-.25-1.58-.36l-1.22-.31C47,19.88,41.53,18.49,39,17c-2.73-1.6-4-3.38-4-5.59,0-5.69,8.38-9.66,20.39-9.66A55.08,55.08,0,0,1,70.09,3.9,10.93,10.93,0,0,0,68,8.07l-1.16,0c-2.16-2.56-6.65-4.19-11.69-4.19-5.74,0-9.45,2-9.45,5.13a3.93,3.93,0,0,0,1.61,3c1.47,1.25,3.68,1.88,5.82,2.49l1.35.39c1.54.44,3.14.83,4.68,1.22,2.37.58,4.82,1.19,7.06,1.95l.56.19c2.11.71,7.72,2.61,7.72,6.46C74.53,30.81,65.16,34.87,51.2,34.87Z"/></g></g></svg>