<?xml version="1.0" encoding="UTF-8"?><svg xmlns="http://www.w3.org/2000/svg" viewBox="0 0 280.37 464.32"><g id="a"/><g id="b"><g id="c"><path d="M140.19,363.07l22.84-18.11-11.81-72.68,94.51-24.98-2.25,36.23-60.31,32.29v148.51s65.91-42.51,96.08-106.43c0,0-9.96-33.23-14.29-56.7l15.42,11.59s-11.64-58.31-2.36-104.52l-58.17,18.34,43.99-20.25s14.44-67.01-74.03-105.53l-23.96,55.69,27.9-122.63L140.19,0l-53.55,33.87,27.9,122.63-23.96-55.69C2.1,139.34,16.54,206.34,16.54,206.34l43.99,20.25L2.36,208.25c9.28,46.21-2.36,104.52-2.36,104.52l15.42-11.59c-4.33,23.47-14.29,56.7-14.29,56.7,30.17,63.92,96.08,106.43,96.08,106.43v-148.51l-60.31-32.29-2.25-36.23,94.51,24.98-11.81,72.68,22.84,18.11Z"/></g></g></svg>