<svg xmlns="http://www.w3.org/2000/svg" viewBox="0 0 504 183.98"><defs><style>.cls-1{fill-rule:evenodd;}</style></defs><g id="Layer_2" data-name="Layer 2"><g id="Layer_1-2" data-name="Layer 1"><path class="cls-1" d="M42.34,0l9.51,28.57H82.6L57.72,46.23l9.5,28.56L42.34,57.14,17.46,74.79,27,46.23,2.08,28.57H32.84L42.34,0Zm139.8,0,9.51,28.55H222.4L197.49,46.23,207,74.82,182.14,57.16,157.21,74.82l9.5-28.59L141.87,28.55h30.7L182.14,0ZM321.89,0l9.5,28.57h30.76L337.27,46.23l9.5,28.56L321.89,57.14,297,74.79l9.51-28.56L281.62,28.57h30.76L321.89,0ZM461.66,0l9.5,28.57h30.76L477,46.23l9.5,28.56L461.66,57.14,436.78,74.79l9.5-28.56L421.4,28.57h30.75L461.66,0ZM433,160.33l31.48.73c4.24.05,5.79-1.33,3.08-4.31l-31.67-34.88c-3.76-4.13-8.31-9.13-8.51-13.46-.47-10.06,5.5-16.9,15.26-16.15h56.43c6.32,0,6.86,21,0,21L468.42,113c-6.38.5-6.79,2-4.57,4.66l32.21,37.79c3.43,4,7,8.48,7.34,12.78S503.71,183,491.5,184H433c-7.75,0-7.48-23.82,0-23.65Zm-20.77-21.25c-1,7.62-9.36,13.4-19.36,13.53l-11.28-.09V184H350.75V152.37l-12.68-.05c-8.62-.06-17.69-9-18-15.52l0-44.54h30.5v39.4h30.75V92.26h31.07l-.13,46.82Zm-119-47.57v68.83h25.06c4.12,8.54,4.67,13.55,0,22.1a2.13,2.13,0,0,1-.71.79h-55l0-91.72Zm-73.14.75v68.83h25.62c4.12,8.54,4.67,13.55,0,22.1a2.11,2.11,0,0,1-.71.79H189.49l0-91.72Zm-45.34,0v91.67l-.21,0H144.47l-.21,0V92.26Zm-144.57,0v64.79c0,3.2,19.61,3.2,19.61,0V92.26H80.05v64.79c0,3.2,17.94,3.2,17.94,0V92.26h30.8v67.11c0,18.91-.3,24.61-21.57,24.61H76.05c-5.15,0-8.7-1.49-10.13-5.37-2,4-7.05,5.37-11.36,5.37H25.86C2.08,184,0,177.73,0,158.62V92.26Z"/></g></g></svg>