<svg xmlns="http://www.w3.org/2000/svg" viewBox="0 0 1342.84 197.52"><defs><style>.cls-1{fill-rule:evenodd;}</style></defs><title>BIG-HORN-EDITION</title><g id="Layer_2" data-name="Layer 2"><g id="Layer_1-2" data-name="Layer 1"><path class="cls-1" d="M608.33,182.4h-51.9V169h45.28a1,1,0,0,0,1-1V156a1,1,0,0,0-1-1H556.43v-11.5h49.28a1,1,0,0,0,1-1V130.47a1,1,0,0,0-1-1h-76a1,1,0,0,0-1,1v65a1,1,0,0,0,1,1h78.6a1,1,0,0,0,1-1V183.41A1,1,0,0,0,608.33,182.4Z"/><path class="cls-1" d="M691.86,181.49c-2.26,0-5,0-8.28,0V142.85c2.77,0,5.81.13,10.48,0,9.48-.21,17.51,0,22.53,2.88,6.37,3.7,10.2,9.18,10.2,16.29s-4.76,13.16-10.6,16.24-12.91,3.2-23.23,3.2Zm42.24-45.88c-10.05-4.85-23.6-6.15-42.43-6.15h-30c-1.34,0-1.6.53-1.6,1.45v64.56c0,.52.18,1,.92,1h25.9c20.4,0,36.66-2.25,47-7.8,7.79-4.31,16.15-12.51,16.15-27.09C750.08,150.52,745.6,141.1,734.1,135.61Z"/><rect x="798.07" y="129.74" width="27.69" height="66.72" rx="1" ry="1"/><path class="cls-1" d="M962.63,129.74H875.07a1,1,0,0,0-1,1V143a1,1,0,0,0,1,1h29.76v51.43a1,1,0,0,0,1,1h25.7a1,1,0,0,0,1-1V144h30.1a1,1,0,0,0,1-1V130.74A1,1,0,0,0,962.63,129.74Z"/><rect x="1012.66" y="129.74" width="27.69" height="66.72" rx="1" ry="1"/><path class="cls-1" d="M1145.16,183.9c-16.23,0-26.72-8.12-26.72-20.7,0-12.75,10.49-21,26.72-21,18.23,0,26.39,10.4,26.39,20.7C1171.55,175.66,1161.19,183.9,1145.16,183.9Zm.51-55.31c-33.23,0-56.44,14.35-56.44,34.9,0,20.35,21.93,34,54.58,34,34.6,0,57-13.77,57-35.09C1200.76,145.59,1183.73,128.59,1145.67,128.59Z"/><path class="cls-1" d="M1341.88,129.74H1319.4a.93.93,0,0,0-.67.3,1,1,0,0,0-.28.7v38.35a.71.71,0,0,1-1.32.45c-3.39-4.36-8.94-11.36-13.11-15.78L1281.54,130a.93.93,0,0,0-.67-.3h-28.59a1,1,0,0,0-.94,1v64.72a1,1,0,0,0,.94,1h22.48a1,1,0,0,0,1-1V154c0-1.38,1-1.19,1.38-.73,3.91,4.73,10.81,13.06,15.3,17.9l23.12,25a.94.94,0,0,0,.69.3h25.68a1,1,0,0,0,1-1V130.74A1,1,0,0,0,1341.88,129.74Z"/><path class="cls-1" d="M55.92,31.88V43.63s.54,1.5,1.5,1.5h56.36c1.37,0,3.45-2,3.45-3.46V33.83a3.89,3.89,0,0,0-3.45-3.45H57.42C56.46,30.38,55.92,31.88,55.92,31.88Zm0,38.75v14s.54,1.5,1.5,1.5h56.36c1.37,0,3.45-2,3.45-3.46V72.58a3.89,3.89,0,0,0-3.45-3.45H57.42C56.46,69.13,55.92,70.63,55.92,70.63ZM0,104.05V8.63A8.19,8.19,0,0,1,8.17.46h108.7c70.26,0,59.63,47.17,49.26,59.25,9.62,1.57,17.17,53.75-21.8,53.75H9.42C3.48,113.46,0,109.88,0,104.05Z"/><path class="cls-1" d="M248.25,8.63v95.42c0,3.16-4.46,9.41-9.42,9.41H201.92c-3.54,0-9.42-5.08-9.42-9.41V8.63C192.5,6,196,.46,200.67.46h39.41C243.87.46,248.25,4.3,248.25,8.63Z"/><path class="cls-1" d="M341.88,64.65V51.9c0-5.5,5.12-9.44,8.93-9.44H445.5c4.13,0,10.47,5.07,10.47,10.48s0,16.81,0,24.52c0,14.25-15.44,36-36,36H309.58c-24.54,0-41.33-21.2-41.33-41.33v-34c0-14.38,11.88-37.63,37.63-37.63H447.74c6,0,8.17,4.71,8.17,8.17s.06,13.83.06,16.58S453.11,33,448.22,33h-116c-4.61,0-5.92,3.32-5.92,6.57V76.3c0,2.66,3,5.66,5.5,5.66h65.12c1.29,0,2-2,2-2l.07-4.38s-.74-2.1-2.1-2.1h-46A9,9,0,0,1,341.88,64.65Z"/><path class="cls-1" d="M650.5,75.46h-70v28.59c0,4.66-5.53,9.41-9.45,9.41H535c-5.6,0-9.46-5.33-9.46-9.41V8.63c0-2.67,4-8.3,8.17-8.23s35-.09,38.47-.09,8.34,5.49,8.34,8.32V40.09h70V8.63c0-3.67,2.35-8.32,8.34-8.32s36,0,40.49.09,8.17,4.4,8.17,8.23v95.42c0,3.91-5.28,9.41-9.45,9.41H660c-4.57,0-9.45-6.08-9.45-9.41Z"/><path class="cls-1" d="M857.72,71.26c0,4.94-2.91,10.45-9.34,10.45H793.67c-6.43,0-9.86-5.39-9.86-10.33,0-5.29,0-26,0-33.58,0-3.18,5.17-8.47,9.84-8.47h54.71c5.37,0,9.34,4.25,9.34,8.46ZM866.18.46h-90.3c-13.8,0-48.17,0-48,56.5s33.88,56.81,47.67,56.5c15.12-.33,33.3,0,45.53,0s30.4-.33,45.52,0c13.79.31,47.54,0,47.67-56.5S880,.46,866.18.46Z"/><path class="cls-1" d="M992.75,50.2h47.38c8.34,0,18.11-.24,21.62-.24,4.94,0,6.17-8.5,6.17-12.08,0-3.88-2-11.17-7.67-11.17h-67.5Zm-53.41,52.43v-94c0-3.67,4.31-8.17,8.17-8.17h105.13c14,0,27.34-.22,36.86,1.75,10.88,2.26,16.47,4.15,21.51,7.5a28.86,28.86,0,0,1,9.7,9.91c2,3.48,2.52,9.67,2.52,12.74,0,4.16-.17,15.54-3.35,20.48-2.5,3.87-6.25,8.87-12.88,11.75,5.39,1.18,12.33,5.49,13.5,8.75s.88,9.37.88,14.6c0,2.85.16,10.78.3,17a8.12,8.12,0,0,1-8.5,8.39l-35.93.09c-5.75,0-9.1-5.34-10-8.63a49.11,49.11,0,0,1-1-12c0-6,1-8.36-.37-11.13s-3.69-2.87-9-2.87c-6.52,0-12.63.37-23.31.37H992.75v24.84c0,3.75-4.38,9.41-9.42,9.41H950.17A10.82,10.82,0,0,1,939.34,102.63Z"/><path class="cls-1" d="M1283.4,33.6c0-3.8.08-21.63.08-25s4.4-8.63,8.63-8.63h42.57c3.15,0,8.16,4.13,8.16,8.63v95.42c0,4.58-5.7,9.41-9.42,9.41H1297a17.69,17.69,0,0,1-8.78-2.9c-16.84-10.6-74.12-46.67-76.78-48.38-3.15-2-7.62.37-7.62,5.78s-.09,32.5-.09,36.09-3.47,9.41-9.42,9.41h-36.56c-5.21,0-8.42-4.83-9.42-9.41s0-91.59,0-95.42,4.14-8.57,8.57-8.57c3.55,0,36.07.26,48.93.36a18.61,18.61,0,0,1,9,2.31c13.64,8.18,59.72,35.79,62.39,37.07C1280.33,41.3,1283.4,37.4,1283.4,33.6Z"/></g></g></svg>