<svg xmlns="http://www.w3.org/2000/svg" viewBox="0 0 814.94 89.43"><defs><style>.cls-1{fill:#121212;fill-rule:evenodd;}</style></defs><title>HEMI-Logo</title><g id="Layer_2" data-name="Layer 2"><g id="Layer_1-2" data-name="Layer 1"><path class="cls-1" d="M-21452.7-24.84l-39.84,89.44h68.53l16.11-36.17h74.45l-16.12,36.17h70.69l39.85-89.44h-70.69l-13.94,31.3h-74.45l13.94-31.3Zm232.63,0-38,89.44h188.39l9-20.26h-122.07l7.85-17.62h121.61l8.13-18.24h-121.62l6.34-14.22h121.79l8.5-19.1Zm208.19,0-39.85,89.44h68.34l17.93-39.19,12.22,39.19h46.84l47.06-37.81-14.89,37.81h64.91l39.85-89.44h-91.07l-51.11,50.73-9.35-50.73Zm263.73,0L-20788,64.6h70.55l39.85-89.44Z" transform="translate(21492.54 24.84)"/></g></g></svg>