<svg xmlns="http://www.w3.org/2000/svg" viewBox="0 0 1467.69 250.19"><defs><style>.cls-1{fill:#121212;fill-rule:evenodd;}</style></defs><title>HEMI-SPORT</title><g id="Layer_2" data-name="Layer 2"><g id="Layer_1-2" data-name="Layer 1"><path class="cls-1" d="M557.29,160.13l-39.45,76,57.72,14.06h76.67c1.23-.06,51.68-9.94,53.71-10.34L700.48,250h90.41l11.86-22.48,42-.12,50.15-9.15-4.11,7.86,5.78,12.78,45.4,11.1,78,.21c1.22-.06,48.54-10.27,50.56-10.66l-4.84,10.66H1252.3l28.5-54.51h30l-28.5,54.51h92.92l28.5-54.51H1446l21.73-41.55H1290.37l-5.87,11.23-.13-.28-45.29-11h-124l-6.69,12.78-53.13-12.78H979l-57.45,11.05V0H688.92l-24,51.9L640.93,0H166.12V45.59H108.58V0H0V160.13H108.58v-51h57.54v51ZM180.47,94.72H94.18v51H14.4v-134H94.18V60h86.29V11.69h79.77v134H180.47Zm186.14,1.63v14.11H507.17v36.36H286.84v-134H507.17V49.13H366.61v13H507.17V96.35Zm261.67,50L605.4,97.32v49H527.25V14.4h39.49l-.06-.13h64.76L664.87,86l33.44-71.7h64.76l-.06.13H803V146.28H724.8V96.34l-23.33,50Zm278.86-132V146.82H826.83V14.4ZM545.57,214.17h60L601,223h39.41l7.28-13.91L595,208.07l-41-9.92,10.66-20.39,47-9.23h69l37.74,9.23-6.58,12.58H657.46l4.73-9.06H622.78l-7.08,13.54,52.65,1.05,41,9.91-10.86,20.77-47,9.24h-75.1l-37.34-9.24Zm176.59,21.62,35.17-67.26H866.08l41.39,9.23-13.61,26-51.1,9.33H794l-11.86,22.68Zm184.6-9.24,25.52-48.79,47.4-9.23h74.69l37.75,9.23-25.52,48.79-47.4,9.24H944.51Zm181.85,9.24,35.17-67.26H1238.2l35.92,8.85L1264.9,195l-35.52,6.67,33.06,6.57L1248,235.79h-60l14.4-27.54H1163l-14.4,27.54Zm217.51,0,28.5-54.51h-42.2l6.67-12.75h144.83l-6.68,12.75H1395l-28.5,54.51Z"/><polygon class="cls-1" points="1209 195.69 1216.53 181.28 1177.12 181.28 1169.59 195.69 1209 195.69"/><polygon class="cls-1" points="968.61 223.03 1008.43 223.03 1030.26 181.28 990.44 181.28 968.61 223.03"/><polygon class="cls-1" points="835.7 200.26 845.62 181.28 810.67 181.28 800.75 200.26 835.7 200.26"/></g></g></svg>