<svg xmlns="http://www.w3.org/2000/svg" viewBox="0 0 720 55.1"><defs><style>.cls-1{fill-rule:evenodd;}</style></defs><g id="Layer_2" data-name="Layer 2"><g id="Layer_1-2" data-name="Layer 1"><path class="cls-1" d="M1.85,55.1H92.9a1.85,1.85,0,0,0,1.85-1.85V36a1.85,1.85,0,0,0-1.85-1.85H79.4A1.85,1.85,0,0,0,77.55,36v4.27H40.82V13.7H46a1.84,1.84,0,0,0,1.84-1.85v-10A1.84,1.84,0,0,0,46,0H1.85A1.85,1.85,0,0,0,0,1.85v10A1.85,1.85,0,0,0,1.85,13.7H10.2V40.23H1.85A1.85,1.85,0,0,0,0,42.08V53.25A1.85,1.85,0,0,0,1.85,55.1Z"/><path class="cls-1" d="M582.48,55.1h41a1.85,1.85,0,0,0,1.85-1.85V42.08a1.85,1.85,0,0,0-1.85-1.85h-5.15V13.7h5.15a1.85,1.85,0,0,0,1.85-1.85v-10A1.85,1.85,0,0,0,623.48,0h-41a1.85,1.85,0,0,0-1.85,1.85v10a1.85,1.85,0,0,0,1.85,1.85h5.24V40.23h-5.24a1.85,1.85,0,0,0-1.85,1.85V53.25A1.85,1.85,0,0,0,582.48,55.1Z"/><path class="cls-1" d="M635.52,55.1h82.63A1.85,1.85,0,0,0,720,53.25V36a1.85,1.85,0,0,0-1.85-1.85H714a6.12,6.12,0,0,0-6.12,6.12H668.62V31h34.16a1.85,1.85,0,0,0,1.85-1.85v-5.5a1.85,1.85,0,0,0-1.85-1.85H668.62V13.7h39.29v1.8A6.12,6.12,0,0,0,714,21.62h4.12A1.85,1.85,0,0,0,720,19.77V1.85A1.85,1.85,0,0,0,718.15,0H635.52a1.84,1.84,0,0,0-1.84,1.85v10a1.84,1.84,0,0,0,1.84,1.85h5V40.23h-5a1.84,1.84,0,0,0-1.84,1.85V53.25A1.84,1.84,0,0,0,635.52,55.1Z"/><path class="cls-1" d="M102,53.25V42.08a1.85,1.85,0,0,1,1.85-1.85H107L128.39,1.89A3.59,3.59,0,0,1,131.61,0h50.08A3.62,3.62,0,0,1,185,2l19.09,38.19h5.2a1.84,1.84,0,0,1,1.84,1.85V53.25a1.84,1.84,0,0,1-1.84,1.85H163.94a1.85,1.85,0,0,1-1.85-1.85V42.08a1.85,1.85,0,0,1,1.85-1.85h4.37l-12-25.36L144.9,40.23h4.33a1.85,1.85,0,0,1,1.85,1.85V53.25a1.85,1.85,0,0,1-1.85,1.85H103.89A1.85,1.85,0,0,1,102,53.25Z"/><path class="cls-1" d="M337.06,53.25V42.08a1.85,1.85,0,0,1,1.85-1.85H342L363.41,1.89A3.61,3.61,0,0,1,366.63,0h50.08A3.62,3.62,0,0,1,420,2L439.1,40.23h5.2a1.84,1.84,0,0,1,1.84,1.85V53.25a1.84,1.84,0,0,1-1.84,1.85H399a1.85,1.85,0,0,1-1.85-1.85V42.08A1.85,1.85,0,0,1,399,40.23h4.37l-12-25.36L379.92,40.23h4.33a1.85,1.85,0,0,1,1.85,1.85V53.25a1.85,1.85,0,0,1-1.85,1.85H338.91A1.85,1.85,0,0,1,337.06,53.25Z"/><path class="cls-1" d="M452.75,11.85v-10A1.84,1.84,0,0,1,454.59,0h38.9a3.59,3.59,0,0,1,2.67,1.13l16.76,17.44L529.11,1.18A3.58,3.58,0,0,1,531.81,0h39.3A1.85,1.85,0,0,1,573,1.85v10a1.85,1.85,0,0,1-1.85,1.85H566V40.23h5.13A1.85,1.85,0,0,1,573,42.08V53.25a1.85,1.85,0,0,1-1.85,1.85H527.88A1.85,1.85,0,0,1,526,53.25V42.08a1.85,1.85,0,0,1,1.85-1.85h3.62V20.42L513.58,40.2a.93.93,0,0,1-1.35,0L492.86,20.42V40.23H497a1.84,1.84,0,0,1,1.84,1.85V53.25A1.84,1.84,0,0,1,497,55.1H454.59a1.84,1.84,0,0,1-1.84-1.85V42.08a1.84,1.84,0,0,1,1.84-1.85h5.6V13.7h-5.6A1.84,1.84,0,0,1,452.75,11.85Z"/><path class="cls-1" d="M220.41,42.08V53.25a1.84,1.84,0,0,0,1.84,1.85h44.12a1.85,1.85,0,0,0,1.85-1.85V42.08a1.85,1.85,0,0,0-1.85-1.85h-5.44V14.87h26.86a2.2,2.2,0,0,1,1.44,3.71L279.6,23.5a.93.93,0,0,0-.3,1.4l12.08,15.33h-9.89a1.85,1.85,0,0,0-1.85,1.85V53.25a1.85,1.85,0,0,0,1.85,1.85h45.27a1.85,1.85,0,0,0,1.85-1.85V42.08a1.85,1.85,0,0,0-1.85-1.85h-4.7c-2.18,0-8.82-9.18-6.78-9.93C323.9,27.11,331.12,0,303.91,0H222.25a1.85,1.85,0,0,0-1.85,1.85v10a1.85,1.85,0,0,0,1.85,1.85h7.19V40.23h-7.19A1.84,1.84,0,0,0,220.41,42.08Z"/></g></g></svg>