<svg xmlns="http://www.w3.org/2000/svg" viewBox="0 0 719.98 161.45"><defs><style>.cls-1{fill-rule:evenodd;}</style></defs><g id="Layer_2" data-name="Layer 2"><g id="Layer_1-2" data-name="Layer 1"><path class="cls-1" d="M536.85,140.53V161h-5.76l-10.86-11.65c-.14-.17-.43-.48-.85-.93s-.8-.89-1.13-1.3a11.56,11.56,0,0,1-.9-1.25V161h-5.08V140.53h5.57l11.39,12.22c.15.15.41.42.79.84s.71.79,1,1.14a7.91,7.91,0,0,1,.74,1V140.53Zm-70.48,17.91a11.27,11.27,0,0,0,4.9-.95,6.53,6.53,0,0,0,3-2.64,7.72,7.72,0,0,0,1-4,8.53,8.53,0,0,0-.94-4.08,6.48,6.48,0,0,0-2.86-2.71,10.61,10.61,0,0,0-4.77-1,11.59,11.59,0,0,0-4.95,1,6.53,6.53,0,0,0-3,2.64,7.72,7.72,0,0,0-1,4,7.48,7.48,0,0,0,2.18,5.66C461.4,157.75,463.54,158.44,466.37,158.44Zm0,3a19.08,19.08,0,0,1-7.59-1.35,10.22,10.22,0,0,1-4.7-3.76,10,10,0,0,1-1.59-5.62,9.16,9.16,0,0,1,1.92-5.93,11.25,11.25,0,0,1,5.13-3.53,21.22,21.22,0,0,1,7.14-1.14,19.07,19.07,0,0,1,7.58,1.35,9.64,9.64,0,0,1,6.25,9.38,9.16,9.16,0,0,1-1.92,5.93,11.24,11.24,0,0,1-5.11,3.53A21,21,0,0,1,466.37,161.45ZM412.51,161V140.53h5.95V161Zm-32.95-20.51v3.11H368.39V161h-5.95v-17.4H351.11v-3.11ZM312.16,161V140.53h5.95V161ZM257,158a36.42,36.42,0,0,0,7.29-.6,8.47,8.47,0,0,0,4.39-2.17,6,6,0,0,0,1.54-4.41,5.88,5.88,0,0,0-2.85-5.49q-2.85-1.7-8.8-1.7h-4.8V158Zm1.41-17.44q8.61,0,13.25,2.39a8.19,8.19,0,0,1,4.64,7.87,7.6,7.6,0,0,1-2.39,5.74,14.81,14.81,0,0,1-6.58,3.4,37,37,0,0,1-9.49,1.11h-9.95V140.53ZM190.67,158H211.1v3h-28V140.53h27.64v3h-20.1v5.63h17.46l-.86,2.91h-16.6ZM519.31,17.5H538v3H512.42V0h25.26V3H519.31V8.61h16l-.79,2.91H519.31Zm-43.09,3V0h5.95V20.5ZM446.65,0V20.5H440.7V6.11A25.35,25.35,0,0,1,438.58,9l-7.05,8.51h-5l-7-8.51a26.67,26.67,0,0,1-2.26-3V20.5h-6V0h6.63l7.57,9a34.53,34.53,0,0,1,3.55,4.9A30,30,0,0,1,432.61,9l7.62-9ZM362.28,12.15h10.8l-5.43-8.8ZM371.69,0l13.23,20.28v.22h-6.64l-3.38-5.44H360.51l-3.33,5.44h-6.47v-.22L363.88,0Zm-69,9.9h5.52a19.23,19.23,0,0,0,6.68-.9q2.31-.9,2.31-2.67c0-1.1-.69-1.93-2.08-2.5A16.7,16.7,0,0,0,309.08,3h-6.36Zm24.53,10.38v.22H319l-11.24-7.75h-5V20.5H295.4V0h13.74a39.75,39.75,0,0,1,8.64.79A13.51,13.51,0,0,1,323.05,3a4.07,4.07,0,0,1,1.76,3.23,4.6,4.6,0,0,1-2.4,3.81,17,17,0,0,1-7,2.3Zm-81.81-8.13h10.8l-5.42-8.8ZM254.86,0l13.23,20.28v.22h-6.64l-3.38-5.44h-14.4l-3.32,5.44h-6.48v-.22L247.05,0ZM189.68,17.37h20.75V20.5H182V0h7.69ZM590.49,111.2a3.39,3.39,0,0,1-.69,4.42l-2.22,1.88a2.7,2.7,0,0,0,1.68,4.61h34.31a2.69,2.69,0,0,0,1.61-4.67l-5-3.93c-.86-.67-1.85-1.6-1.85-2.69l-9.11-21.28a1.93,1.93,0,0,1,1.74-2.64c4.77,0,10.94-10.51,10.94-15.77V52a10.59,10.59,0,0,0-10.59-10.59H542.08a2.69,2.69,0,0,0-1.6,4.67l5,3.93a3.31,3.31,0,0,1,1.32,2.69v58c0,1.14,0,2.11-.89,2.78l-5.41,3.86a2.7,2.7,0,0,0,1.52,4.74h33.41a2.69,2.69,0,0,0,1.7-4.59l-4.31-3.71a3.37,3.37,0,0,1-1.26-2.59V58.69a4.14,4.14,0,0,1,4.14-4.15h16.11A4.15,4.15,0,0,1,596,58.69v9.62a4.15,4.15,0,0,1-4.15,4.15H582.7a2.58,2.58,0,0,0-2.48,3.3ZM358.58,29.38h39.17a2.78,2.78,0,0,1,1.7,4.78l-6.86,5.58a3.76,3.76,0,0,0-1.43,3v23a4.61,4.61,0,0,0,4.62,4.61h22.55a4.6,4.6,0,0,0,4.61-4.61v-23a3.78,3.78,0,0,0-1.48-3.06l-7.08-5.55A2.78,2.78,0,0,1,416,29.38H454.5a2.77,2.77,0,0,1,2,4.52L451,39.79a3.75,3.75,0,0,0-1,2.64v77.06a3.74,3.74,0,0,0,1.17,2.78l4.77,4.65a2.77,2.77,0,0,1-1.88,4.62H416.71c-2.39,0-3.51-3.51-1.56-4.89l6.16-4.36a3.78,3.78,0,0,0,1.63-3.17v-28a4.61,4.61,0,0,0-4.61-4.62H395.78a4.62,4.62,0,0,0-4.62,4.62v28a3.77,3.77,0,0,0,1.58,3.13l6,4.39a2.78,2.78,0,0,1-1.59,4.86h-38a2.77,2.77,0,0,1-1.68-4.79l5.56-4.46a3.74,3.74,0,0,0,1.46-3V42.66a3.74,3.74,0,0,0-1.31-2.91l-6.39-5.66A2.78,2.78,0,0,1,358.58,29.38Zm306.89,23a3.4,3.4,0,0,1,.68-4.42L668.38,46a2.69,2.69,0,0,0-1.68-4.6H632.39a2.69,2.69,0,0,0-1.61,4.67L635.83,50a3.31,3.31,0,0,1,1.32,2.69v58c0,1.14,0,2.11-.89,2.78l-5.41,3.86a2.7,2.7,0,0,0,1.52,4.74h33.41a2.69,2.69,0,0,0,1.71-4.59l-4.32-3.71a3.37,3.37,0,0,1-1.26-2.59V82.12A1.9,1.9,0,0,1,665.38,81l19,30.16a3.39,3.39,0,0,1-.68,4.42l-2.23,1.88a2.7,2.7,0,0,0,1.69,4.61h34.3a2.69,2.69,0,0,0,1.61-4.67L714,113.51c-.86-.67-1.85-1.6-1.85-2.69v-58A3.34,3.34,0,0,1,713.61,50L719,46.15a2.7,2.7,0,0,0-1.52-4.73H684.09a2.69,2.69,0,0,0-1.7,4.59l4.31,3.71a3.3,3.3,0,0,1,1.19,2.59V81.42a1.91,1.91,0,0,1-3.52,1Zm-447.88,0a3.4,3.4,0,0,1,.68-4.42L220.5,46a2.7,2.7,0,0,0-1.69-4.61h-34.3a2.69,2.69,0,0,0-1.61,4.67L188,50a3.31,3.31,0,0,1,1.32,2.7v58c0,1.14,0,2.11-.89,2.78L183,117.34a2.7,2.7,0,0,0,1.52,4.73H217.9a2.69,2.69,0,0,0,1.7-4.59l-4.31-3.71a3.37,3.37,0,0,1-1.26-2.59V82.08A1.9,1.9,0,0,1,217.5,81l19,30.16a3.4,3.4,0,0,1-.68,4.42l-2.23,1.89a2.69,2.69,0,0,0,1.69,4.6h34.3a2.69,2.69,0,0,0,1.61-4.67l-5-3.93c-.86-.67-1.85-1.6-1.85-2.69v-58A3.31,3.31,0,0,1,265.73,50l5.41-3.87a2.7,2.7,0,0,0-1.52-4.74H236.21a2.69,2.69,0,0,0-1.7,4.59l4.31,3.71A3.3,3.3,0,0,1,240,52.27V81.38a1.91,1.91,0,0,1-3.52,1Zm134.74,35,4.61-2.69a2.2,2.2,0,0,0-1.11-4.11h-46.6a2.21,2.21,0,0,0-1.17,4.08l15.77,9.88a3.19,3.19,0,0,1,1.53,2.77v4.31a5.54,5.54,0,0,1-5.54,5.54H305a5.54,5.54,0,0,1-5.55-5.54V58.79c0-3.06,1-3.95,4.07-3.95h16.26a5.54,5.54,0,0,1,5.54,5.55v1.55a1.94,1.94,0,0,0,1.94,1.94h21.45a1.94,1.94,0,0,0,1.94-1.94V57.86a16.4,16.4,0,0,0-16.4-16.4H290.56a16.4,16.4,0,0,0-16.4,16.4v47.81a16.4,16.4,0,0,0,16.4,16.4h43.73a16.4,16.4,0,0,0,16.4-16.4V90.14A3.18,3.18,0,0,1,352.33,87.31ZM506.11,56.44A5.54,5.54,0,0,1,511.65,62v39.57a5.54,5.54,0,0,1-5.54,5.54H491.32a5.54,5.54,0,0,1-5.54-5.54V62a5.54,5.54,0,0,1,5.54-5.54Zm14.47-15H476.85a16.4,16.4,0,0,0-16.4,16.4v47.81a16.4,16.4,0,0,0,16.4,16.4h43.73a16.4,16.4,0,0,0,16.4-16.4V57.86A16.4,16.4,0,0,0,520.58,41.46Zm-371.82,15A5.54,5.54,0,0,1,154.31,62v39.57a5.54,5.54,0,0,1-5.55,5.54H134a5.54,5.54,0,0,1-5.54-5.54V62A5.54,5.54,0,0,1,134,56.44Zm14.48-15H119.51a16.4,16.4,0,0,0-16.4,16.4v47.81a16.4,16.4,0,0,0,16.4,16.4h43.73a16.4,16.4,0,0,0,16.4-16.4V57.86A16.4,16.4,0,0,0,163.24,41.46ZM2.47,30.84H51.64c2.54,0,3.41,4,1.1,5.08l-7.27,3.31A5.17,5.17,0,0,0,42.37,44v68.12a5.29,5.29,0,0,0,5.29,5.29H58.88a5.28,5.28,0,0,0,5.28-5.29v-4.32a5.13,5.13,0,0,0-1.84-4l-4.15-3.55A2.74,2.74,0,0,1,59.9,95.6H98c2.36,0,3.46,3.46,1.53,4.83l-4,2.83a5.11,5.11,0,0,0-2.23,4.31v11.57a5.15,5.15,0,0,0,2.17,4.28l7.18,5.21a2.75,2.75,0,0,1-1.57,4.82H4c-2.47,0-3.44-3.81-1.28-5l9.37-5.15a5.15,5.15,0,0,0,2.73-4.63V46a5.17,5.17,0,0,0-2.87-4.71L1.25,35.86C-1,34.73,0,30.84,2.47,30.84Z"/></g></g></svg>