<svg xmlns="http://www.w3.org/2000/svg" viewBox="0 0 703.83 101.73"><defs><style>.cls-1{fill-rule:evenodd;}</style></defs><g id="Layer_2" data-name="Layer 2"><g id="Layer_1-2" data-name="Layer 1"><path class="cls-1" d="M145.43,26.45H131a5.42,5.42,0,0,0-5.42,5.42V70.55A5.42,5.42,0,0,0,131,76h14.45a5.42,5.42,0,0,0,5.42-5.42V31.87A5.42,5.42,0,0,0,145.43,26.45Zm349.32,0H480.3a5.42,5.42,0,0,0-5.42,5.42V70.55A5.42,5.42,0,0,0,480.3,76h14.45a5.42,5.42,0,0,0,5.42-5.42V31.87A5.42,5.42,0,0,0,494.75,26.45ZM577.24,80l-10-34.64a2.52,2.52,0,0,1,2.42-3.23h9a4.05,4.05,0,0,0,4.06-4V28.65a4.05,4.05,0,0,0-4.06-4H562.84a4.05,4.05,0,0,0-4.06,4V80A3.29,3.29,0,0,0,560,82.54l4.22,3.62a2.64,2.64,0,0,1-1.67,4.49H529.91A2.64,2.64,0,0,1,528.42,86l5.29-3.78c.9-.65.87-1.6.87-2.72V22.81a3.19,3.19,0,0,0-1.29-2.63l-4.93-3.84a2.64,2.64,0,0,1,1.57-4.57h67.61A10.35,10.35,0,0,1,607.9,22.12V40.81c0,5.14-6,15.42-10.69,15.42a1.88,1.88,0,0,0-1.7,2.58l8.9,20.8c0,1.06,1,2,1.81,2.63l4.93,3.84a2.64,2.64,0,0,1-1.56,4.57H576.05a2.63,2.63,0,0,1-1.65-4.5l2.17-1.85A3.3,3.3,0,0,0,577.24,80ZM350.53,0h38.3a2.72,2.72,0,0,1,1.66,4.67l-6.7,5.46a3.67,3.67,0,0,0-1.4,2.94V35.58a4.51,4.51,0,0,0,4.51,4.51H409a4.51,4.51,0,0,0,4.51-4.51V13.12a3.68,3.68,0,0,0-1.46-3L405.09,4.7A2.71,2.71,0,0,1,406.71,0h37.6a2.71,2.71,0,0,1,1.93,4.42l-5.33,5.76a3.63,3.63,0,0,0-1,2.58V88.09A3.69,3.69,0,0,0,441,90.81l4.66,4.54a2.71,2.71,0,0,1-1.83,4.52H407.36a2.72,2.72,0,0,1-1.52-4.78l6-4.27a3.69,3.69,0,0,0,1.6-3.09V60.37A4.51,4.51,0,0,0,409,55.86H386.9a4.51,4.51,0,0,0-4.51,4.51v27.4a3.7,3.7,0,0,0,1.54,3.06l5.84,4.28a2.72,2.72,0,0,1-1.56,4.76H351.09a2.72,2.72,0,0,1-1.64-4.69l5.44-4.35a3.69,3.69,0,0,0,1.42-3V13A3.63,3.63,0,0,0,355,10.14L348.79,4.6A2.71,2.71,0,0,1,350.53,0Zm300,22.43L669,51.86a1.86,1.86,0,0,0,3.44-1V22.41a3.24,3.24,0,0,0-1.16-2.53l-4.22-3.62a2.63,2.63,0,0,1,1.66-4.49H701.4a2.64,2.64,0,0,1,1.49,4.63l-5.28,3.78a3.23,3.23,0,0,0-1.4,2.71V79.61c0,1.06,1,2,1.81,2.63L703,86.08a2.64,2.64,0,0,1-1.57,4.57H667.85a2.63,2.63,0,0,1-1.65-4.5l2.18-1.85a3.31,3.31,0,0,0,.67-4.32L650.46,50.5a1.86,1.86,0,0,0-3.4,1V80a3.29,3.29,0,0,0,1.24,2.53l4.21,3.62a2.63,2.63,0,0,1-1.66,4.49H618.19A2.64,2.64,0,0,1,616.7,86L622,82.24c.91-.65.88-1.6.88-2.72V22.81a3.22,3.22,0,0,0-1.29-2.63l-4.94-3.84a2.64,2.64,0,0,1,1.57-4.57h33.54a2.63,2.63,0,0,1,1.65,4.5l-2.18,1.84A3.31,3.31,0,0,0,650.54,22.43Zm-437.83,0,18.48,29.42a1.86,1.86,0,0,0,3.43-1V22.37a3.21,3.21,0,0,0-1.16-2.53l-4.21-3.62a2.63,2.63,0,0,1,1.66-4.49h32.66a2.64,2.64,0,0,1,1.49,4.63l-5.29,3.78a3.25,3.25,0,0,0-1.39,2.71V79.57c0,1.07,1,2,1.81,2.63L265.12,86a2.64,2.64,0,0,1-1.56,4.57H230a2.63,2.63,0,0,1-1.65-4.5l2.18-1.84a3.31,3.31,0,0,0,.67-4.32L212.63,50.46a1.86,1.86,0,0,0-3.4,1V80a3.31,3.31,0,0,0,1.23,2.53l4.22,3.62A2.64,2.64,0,0,1,213,90.61H180.35A2.64,2.64,0,0,1,178.87,86l5.28-3.78c.91-.65.87-1.6.87-2.71V22.77a3.21,3.21,0,0,0-1.28-2.63L178.8,16.3a2.64,2.64,0,0,1,1.57-4.57h33.54a2.63,2.63,0,0,1,1.65,4.5l-2.18,1.85A3.31,3.31,0,0,0,212.71,22.4ZM344.42,56.63a3.11,3.11,0,0,0-1.59,2.77V74.58a16,16,0,0,1-16,16H284.05a16,16,0,0,1-16-16V27.84a16,16,0,0,1,16-16h42.74a16,16,0,0,1,16,16v4a1.9,1.9,0,0,1-1.9,1.9H320a1.9,1.9,0,0,1-1.89-1.9V30.31a5.42,5.42,0,0,0-5.42-5.42h-15.9c-3,0-4,.87-4,3.86v41.8A5.42,5.42,0,0,0,298.19,76h14.46a5.42,5.42,0,0,0,5.42-5.42V66.34a3.1,3.1,0,0,0-1.51-2.71L301.15,54a2.16,2.16,0,0,1,1.15-4h45.55a2.16,2.16,0,0,1,1.08,4ZM508.9,11.8a16,16,0,0,1,16,16V74.58a16,16,0,0,1-16,16H466.15a16,16,0,0,1-16-16V27.84a16,16,0,0,1,16-16Zm-349.33,0a16,16,0,0,1,16,16V74.58a16,16,0,0,1-16,16H116.83a16,16,0,0,1-16-16V27.84a16,16,0,0,1,16-16ZM2.41,1.42H50.48c2.48,0,3.34,3.94,1.08,5L44.45,9.63a5.06,5.06,0,0,0-3,4.7v66.6a5.17,5.17,0,0,0,5.17,5.16h11a5.16,5.16,0,0,0,5.16-5.16V76.7a5,5,0,0,0-1.8-3.92l-4.06-3.47a2.69,2.69,0,0,1,1.7-4.58H95.83a2.68,2.68,0,0,1,1.5,4.72l-3.91,2.77a5,5,0,0,0-2.18,4.21V87.75a5,5,0,0,0,2.13,4.18l7,5.1a2.68,2.68,0,0,1-1.53,4.7h-95c-2.41,0-3.37-3.72-1.25-4.88l9.16-5a5,5,0,0,0,2.67-4.52v-71a5,5,0,0,0-2.81-4.6L1.22,6.34C-.95,5.23,0,1.42,2.41,1.42Z"/></g></g></svg>