<svg xmlns="http://www.w3.org/2000/svg" viewBox="0 0 278.29 121.69"><defs><style>.cls-1{fill:#121212;fill-rule:evenodd;}</style></defs><title>M92-(Mopar-92)-Solid</title><g id="Layer_2" data-name="Layer 2"><g id="Layer_1-2" data-name="Layer 1"><path class="cls-1" d="M-21669.42,5877.91c3.47-6.9,6.15-14.43,6.15-22.71a45,45,0,0,0-45-45,45,45,0,0,0-45,45c0,19.54,12.63,35.7,30,41.91l-29.71,32.68h37.46S-21675,5889-21669.42,5877.91Zm-22.28-22.87a16.55,16.55,0,0,1-16.56,16.56,16.55,16.55,0,0,1-16.56-16.56,16.55,16.55,0,0,1,16.56-16.56A16.55,16.55,0,0,1-21691.7,5855Z" transform="translate(21850.02 -5809.41)"/><path class="cls-1" d="M-21582,5870.72a41.41,41.41,0,0,0,3.13-16.49,44.82,44.82,0,0,0-44.82-44.82,44.82,44.82,0,0,0-44.82,44.82c0,.65,0,1.29,0,1.93l28.37-.32a17.19,17.19,0,0,1-.09-1.77,16.5,16.5,0,0,1,16.5-16.5,16.5,16.5,0,0,1,16.5,16.5,16.44,16.44,0,0,1-3.79,10.53l-58.17,65.19h97.47v-28h-36.33S-21586.13,5880.17-21582,5870.72Z" transform="translate(21850.02 -5809.41)"/><path class="cls-1" d="M-21750.14,5870.84c0-33.27-27.8-60.25-62.09-60.25-14.36,0-27.26,6.12-37.79,14.08l17.41,22c6.19-4.63,13.65-8,22.1-8,8.75-.07,23.09,5.08,28.71,18.74h-46.43v27.1h46.43c-7.33,14.87-19.33,18.61-28.87,18.74-8.43.12-15.58-3.23-21.76-7.87l-17.18,22.07c10.51,7.87,23.06,13.68,37.38,13.68C-21777.94,5931.09-21750.14,5904.12-21750.14,5870.84Z" transform="translate(21850.02 -5809.41)"/></g></g></svg>