<svg xmlns="http://www.w3.org/2000/svg" viewBox="0 0 927.33 244.48"><defs><style>.cls-1{fill-rule:evenodd;}</style></defs><g id="Layer_2" data-name="Layer 2"><g id="Layer_1-2" data-name="Layer 1"><path class="cls-1" d="M109.65,19.67H32.72V55h76.93A13.22,13.22,0,0,0,122.87,41.8V32.89A13.22,13.22,0,0,0,109.65,19.67ZM131.74,0H0V104H32.67V76.26h99.07a26.18,26.18,0,0,0,26.18-26.18V26.2A26.18,26.18,0,0,0,131.74,0Z"/><path class="cls-1" d="M298,21H228a11.93,11.93,0,0,0-11.91,11.94V71.18A11.93,11.93,0,0,0,228,83.13H298a11.93,11.93,0,0,0,11.91-11.95V32.93A11.93,11.93,0,0,0,298,21ZM318.89,0H207.06a23.92,23.92,0,0,0-23.88,24V80.12a23.91,23.91,0,0,0,23.88,23.95H318.89a23.91,23.91,0,0,0,23.88-23.95V24A23.92,23.92,0,0,0,318.89,0Z"/><path class="cls-1" d="M464,93.67a23.83,23.83,0,0,0,19.69,10.4h52.42A23.91,23.91,0,0,0,560,80.12V0H527.1V69.89a11.93,11.93,0,0,1-11.9,12H495a11.93,11.93,0,0,1-11.91-12V0H445V69.89a11.93,11.93,0,0,1-11.9,12H412.87a11.93,11.93,0,0,1-11.91-12V0H368.05V80.12a23.91,23.91,0,0,0,23.87,23.95h52.42A23.83,23.83,0,0,0,464,93.67Z"/><path class="cls-1" d="M744.17,78.92H635.66a15,15,0,0,1-15-15V57.09H744.17V38.78H620.7V31.56a15,15,0,0,1,15-15H744.17V0H614.86a29.57,29.57,0,0,0-29.57,29.57V74.44A29.57,29.57,0,0,0,614.86,104H744.17Z"/><path class="cls-1" d="M879.05,19.67a13.22,13.22,0,0,1,13.22,13.22v7.23a13.22,13.22,0,0,1-13.22,13.22H802.12V19.67ZM769.4,104h32.72V68h76.93a13.22,13.22,0,0,1,13.22,13.22V104h35.06V86a26.18,26.18,0,0,0-26.18-26.18,26.18,26.18,0,0,0,26.18-26.18V26.2A26.18,26.18,0,0,0,901.15,0H769.4V104Z"/><path class="cls-1" d="M698.17,161.4H628.22a11.93,11.93,0,0,0-11.9,11.95v38.24a11.93,11.93,0,0,0,11.9,11.95h69.95a11.93,11.93,0,0,0,11.91-11.95V173.35A11.93,11.93,0,0,0,698.17,161.4Zm20.94-20.94H607.28a23.91,23.91,0,0,0-23.88,23.95v56.12a23.91,23.91,0,0,0,23.88,23.95H719.11A23.91,23.91,0,0,0,743,220.53V164.41A23.91,23.91,0,0,0,719.11,140.46Z"/><path class="cls-1" d="M559.32,161.4V140.46H423.61a23.91,23.91,0,0,0-23.87,23.95v56.12a23.91,23.91,0,0,0,23.87,23.95H535.45a23.91,23.91,0,0,0,23.87-23.95V182.24H466.2v15.19h60.21v14.16a11.93,11.93,0,0,1-11.91,11.95H444.55a11.93,11.93,0,0,1-11.9-11.95V173.35a11.93,11.93,0,0,1,11.9-11.95Z"/><path class="cls-1" d="M767.07,244.48H800V173.35a11.93,11.93,0,0,1,11.91-11.95h70a11.93,11.93,0,0,1,11.91,11.95v71.13h32.91V164.41a23.91,23.91,0,0,0-23.88-23.95H791a23.91,23.91,0,0,0-23.88,23.95Z"/><path class="cls-1" d="M342.74,216.49v28h32.91V164.41a23.91,23.91,0,0,0-23.87-23.95H239.94a23.91,23.91,0,0,0-23.87,23.95v80.07H249v-28ZM249,193.8V173.35a11.93,11.93,0,0,1,11.91-11.95h69.95a11.93,11.93,0,0,1,11.9,11.95V193.8Z"/><path class="cls-1" d="M96,234.08a23.84,23.84,0,0,0,19.69,10.4h52.42A23.9,23.9,0,0,0,192,220.53V140.46H159.07V210.3a11.93,11.93,0,0,1-11.9,11.95H127A11.93,11.93,0,0,1,115,210.3V140.46H77V210.3a11.93,11.93,0,0,1-11.9,11.95H44.84A11.93,11.93,0,0,1,32.93,210.3V140.46H0v80.07a23.91,23.91,0,0,0,23.87,23.95H76.31A23.83,23.83,0,0,0,96,234.08Z"/></g></g></svg>