<svg xmlns="http://www.w3.org/2000/svg" viewBox="0 0 1985.97 105.2"><defs><style>.cls-1{fill-rule:evenodd;}</style></defs><g id="Layer_2" data-name="Layer 2"><g id="Layer_1-2" data-name="Layer 1"><path class="cls-1" d="M110.83,19.88H33.07V55.62h77.76a13.36,13.36,0,0,0,13.36-13.36v-9A13.36,13.36,0,0,0,110.83,19.88ZM133.17,0H0V105.16H33V77.08H133.17a26.46,26.46,0,0,0,26.46-26.46V26.48A26.46,26.46,0,0,0,133.17,0Z"/><path class="cls-1" d="M301.17,21.21H230.46a12.06,12.06,0,0,0-12,12.08V72a12.06,12.06,0,0,0,12,12.08h70.71a12.06,12.06,0,0,0,12-12.08V33.29A12.06,12.06,0,0,0,301.17,21.21ZM322.34.05h-113a24.18,24.18,0,0,0-24.14,24.21V81A24.18,24.18,0,0,0,209.3,105.2h113A24.17,24.17,0,0,0,346.47,81V24.26A24.17,24.17,0,0,0,322.34.05Z"/><path class="cls-1" d="M469,94.68A24.11,24.11,0,0,0,489,105.2h53A24.17,24.17,0,0,0,566.06,81V.05H532.8V70.64a12.06,12.06,0,0,1-12,12.08H500.32a12.06,12.06,0,0,1-12-12.08V.05H449.8V70.64a12.06,12.06,0,0,1-12,12.08H417.33a12.06,12.06,0,0,1-12-12.08V.05H372V81a24.18,24.18,0,0,0,24.14,24.22h53A24.09,24.09,0,0,0,469,94.68Z"/><path class="cls-1" d="M752.21,79.77H642.53a15.12,15.12,0,0,1-15.12-15.12V57.71h124.8V39.2H627.41V31.9a15.12,15.12,0,0,1,15.12-15.12H752.21V0H621.51a29.89,29.89,0,0,0-29.89,29.89V75.25a29.89,29.89,0,0,0,29.89,29.88h130.7Z"/><path class="cls-1" d="M888.55,19.88a13.36,13.36,0,0,1,13.36,13.36v7.31a13.36,13.36,0,0,1-13.36,13.36H810.79v-34ZM777.72,105.13h33.07V68.73h77.76a13.36,13.36,0,0,1,13.36,13.36v23h35.44V86.93a26.46,26.46,0,0,0-26.47-26.46A26.47,26.47,0,0,0,937.35,34V26.48A26.47,26.47,0,0,0,910.88,0H777.72V105.13Z"/><path class="cls-1" d="M1755,21.19h-70.7a12.06,12.06,0,0,0-12,12.08V71.93a12.05,12.05,0,0,0,12,12.07H1755a12.05,12.05,0,0,0,12-12.07V33.27A12.06,12.06,0,0,0,1755,21.19ZM1776.18,0h-113A24.17,24.17,0,0,0,1639,24.23V81a24.17,24.17,0,0,0,24.13,24.21h113A24.17,24.17,0,0,0,1800.31,81V24.23A24.17,24.17,0,0,0,1776.18,0Z"/><path class="cls-1" d="M1614.66,21.19V0H1477.49a24.18,24.18,0,0,0-24.14,24.21V81a24.18,24.18,0,0,0,24.14,24.21h113A24.17,24.17,0,0,0,1614.66,81V42.26h-94.13V57.61h60.87V71.93a12.05,12.05,0,0,1-12,12.07h-70.7a12.05,12.05,0,0,1-12-12.07V33.27a12.06,12.06,0,0,1,12-12.08Z"/><path class="cls-1" d="M1824.66,105.17h33.26V33.27a12.06,12.06,0,0,1,12-12.08h70.71a12.06,12.06,0,0,1,12,12.08v71.9H1986V24.23A24.18,24.18,0,0,0,1961.83,0h-113a24.17,24.17,0,0,0-24.13,24.21Z"/><path class="cls-1" d="M1395.74,76.88v28.29H1429V24.23A24.17,24.17,0,0,0,1404.88,0H1291.83a24.17,24.17,0,0,0-24.13,24.21v80.94H1301V76.88ZM1301,53.94V33.27a12.06,12.06,0,0,1,12-12.08h70.71a12.06,12.06,0,0,1,12,12.08V53.94Z"/><path class="cls-1" d="M1146.34,94.66a24.08,24.08,0,0,0,19.9,10.51h53A24.18,24.18,0,0,0,1243.36,81V0h-33.27v70.6a12.06,12.06,0,0,1-12,12.08h-20.43a12.06,12.06,0,0,1-12-12.08V0h-38.49v70.6a12.06,12.06,0,0,1-12,12.08h-20.44a12.06,12.06,0,0,1-12-12.08V0h-33.26V81a24.17,24.17,0,0,0,24.13,24.21h53A24.08,24.08,0,0,0,1146.34,94.66Z"/></g></g></svg>