<svg xmlns="http://www.w3.org/2000/svg" viewBox="0 0 1488.52 221.62"><defs><style>.cls-1{fill:#121212;fill-rule:evenodd;}</style></defs><title>RAM</title><g id="Layer_2" data-name="Layer 2"><g id="Layer_1-2" data-name="Layer 1"><path class="cls-1" d="M0,0V221.62H160.42V154.1h29.81l49.43,67.52H410.48L340,143.19s52.45-12.93,52.45-69.09S340.05,0,294.9,0ZM160.42,58.14V101H197.5s23.26-5.26,23.26-23.26S197.5,58.14,197.5,58.14Z"/><polygon class="cls-1" points="960.66 221.62 961.87 0 1191.22 0 1225.19 68.25 1257.96 0 1488.52 0 1487.31 221.62 1327.13 221.62 1327.13 93.73 1260.39 221.62 1188.79 221.62 1124.48 93.73 1124.48 221.62 960.66 221.62"/><path class="cls-1" d="M440.08,221.62H608.26l20.88-47.8h108l19.43,47.8H927.17L803.15,0H555.36ZM651.47,119.84l31.65-71.08,30.67,71.08Z"/></g></g></svg>