<svg xmlns="http://www.w3.org/2000/svg" viewBox="0 0 1498.85 162.11"><defs><style>.cls-1,.cls-2{fill:#121212;}.cls-2{fill-rule:evenodd;}</style></defs><title>REBEL-Logo</title><g id="Layer_2" data-name="Layer 2"><g id="Layer_1-2" data-name="Layer 1"><path class="cls-1" d="M367.19,162.11H269.13a7,7,0,0,1-5.63-2.72L215.29,98.76a7.23,7.23,0,0,1,1.54-10.4L279,45.28a3.59,3.59,0,0,0-2.05-6.55H153.64A7,7,0,0,0,147,43l-42.4,97.06a7.05,7.05,0,0,1-6.6,4.32H3.58A3.67,3.67,0,0,1,.3,139.34L61,4.25A7.05,7.05,0,0,1,67.52,0H337.36a6.79,6.79,0,0,1,2.71.53l41.61,16.92a7.2,7.2,0,0,1,4,9.33L374.28,55.34a6.89,6.89,0,0,1-2.3,3l-46.1,35.37a7.2,7.2,0,0,0-1.06,10.43l45.09,52A3.71,3.71,0,0,1,367.19,162.11Z"/><path class="cls-1" d="M394.17,135.56l228.91.37a7.06,7.06,0,0,0,6.71-4.56l6.06-15.4a7.06,7.06,0,0,0-1.69-7.81l-4.58-4.43a6.91,6.91,0,0,0-5-2H458.51a3.67,3.67,0,0,1-3.37-4.89l4.1-10.72A7.07,7.07,0,0,1,466,81.46H603.69a7.06,7.06,0,0,0,6.71-4.61l4.28-11.09a3.6,3.6,0,0,0-3.35-4.9H474.07A3.66,3.66,0,0,1,470.71,56l4.49-11.61a7.08,7.08,0,0,1,6.72-4.61H650.59a6.81,6.81,0,0,0,3-.67l11.1-5.15A7,7,0,0,0,668.42,30l4-10.49a3.59,3.59,0,0,0-3.36-4.89h-244a7.05,7.05,0,0,0-6.73,4.65l-17,44.85a6.88,6.88,0,0,1-2.26,3.09L361.9,96.68a3.6,3.6,0,0,0-.47,5.19l27.33,31.23A7,7,0,0,0,394.17,135.56Z"/><path class="cls-2" d="M877.55,135.59,942,114.68a7,7,0,0,0,4.51-4.29l7.26-19.15a7,7,0,0,0-1-6.85l-8-10.76a3.59,3.59,0,0,1,.74-5l21.77-16.14a6.86,6.86,0,0,0,2.38-3.05l3.48-8.5A3.6,3.6,0,0,0,971,36.12L907.5,15a6.77,6.77,0,0,0-2.28-.37H708.07a7.07,7.07,0,0,0-6.73,4.64l-6.78,17.82a6.92,6.92,0,0,1-3.29,3.77L665,55.1a6.93,6.93,0,0,0-3.3,3.78l-8.24,21.74a7,7,0,0,0,1.48,7.48l11.4,12.13a7,7,0,0,1,1.5,7.45l-8.74,23.4a3.6,3.6,0,0,0,3.37,4.86h212.9A7,7,0,0,0,877.55,135.59Zm4.37-95.78H767a7.06,7.06,0,0,0-6.74,4.66L755.91,56a3.6,3.6,0,0,0,3.37,4.87H881.57A9.91,9.91,0,0,0,891,54.42l.34-.9A10.08,10.08,0,0,0,881.92,39.81ZM866.13,81.46H751.25a7.08,7.08,0,0,0-6.73,4.63l-4.09,10.72a3.6,3.6,0,0,0,3.37,4.89H866.1a9.91,9.91,0,0,0,9.39-6.41l0-.08A10.08,10.08,0,0,0,866.13,81.46Z"/><path class="cls-2" d="M983.93,86.33l-14.12,36.61a7,7,0,0,1-4.14,4.14l-14,5.38a1.8,1.8,0,0,0,.64,3.48h261.63a7.07,7.07,0,0,0,6.7-4.56l6.06-15.41a7.06,7.06,0,0,0-1.69-7.81l-4.58-4.43a6.91,6.91,0,0,0-5-2H1049.31a3.66,3.66,0,0,1-3.36-4.89L1050,86.09a7.07,7.07,0,0,1,6.72-4.63h137.73a7.06,7.06,0,0,0,6.71-4.61l4.29-11.09a3.6,3.6,0,0,0-3.36-4.9H1064.87a3.65,3.65,0,0,1-3.35-4.89L1066,44.36a7.06,7.06,0,0,1,6.71-4.61h168.67a6.81,6.81,0,0,0,3-.67l11.1-5.15a7,7,0,0,0,3.69-3.95l4-10.49a3.59,3.59,0,0,0-3.36-4.89H994.64a1.8,1.8,0,0,0-.53,3.52l6.67,2a7.23,7.23,0,0,1,4.63,9.42L995.2,56.76a6.9,6.9,0,0,1-2.07,3l-12.58,10.7a3.59,3.59,0,0,0-.58,4.85l3.08,4.26A7,7,0,0,1,983.93,86.33Z"/><path class="cls-2" d="M1364.08,14.6h-65.79a7.07,7.07,0,0,0-6.73,4.64l-6.78,17.82a6.94,6.94,0,0,1-3.3,3.77l-26.3,14.27a6.93,6.93,0,0,0-3.3,3.78l-8.24,21.74a7,7,0,0,0,1.48,7.48l11.4,12.13a7,7,0,0,1,1.5,7.45l-8.74,23.4a3.6,3.6,0,0,0,3.37,4.86H1482.3a7.06,7.06,0,0,0,6.71-4.6l9.6-24.74a3.6,3.6,0,0,0-3.36-4.9H1341.32a3.67,3.67,0,0,1-3.37-4.89l29.49-77.33A3.6,3.6,0,0,0,1364.08,14.6Z"/></g></g></svg>