<svg xmlns="http://www.w3.org/2000/svg" viewBox="0 0 1554.69 206.32"><defs><style>.cls-1{fill:#121212;fill-rule:evenodd;}</style></defs><title>REBEL-Logo-Outline</title><g id="Layer_2" data-name="Layer 2"><g id="Layer_1-2" data-name="Layer 1"><path class="cls-1" d="M1262.22,172.17a25.73,25.73,0,0,0,18.62,8h229.55a29.17,29.17,0,0,0,27.45-18.8l16.21-45.21a10.8,10.8,0,0,0-10.17-14.44H1396.37l27.4-72.48a10.8,10.8,0,0,0-10.1-14.62h-87.1a29.14,29.14,0,0,0-20,7.8,25.7,25.7,0,0,0-18.45-7.8H1023a23.92,23.92,0,0,0-23.79,20.34L942.74,16.12a28.78,28.78,0,0,0-9.39-1.52h-197A29.18,29.18,0,0,0,716,22.69a25.7,25.7,0,0,0-18.72-8.09H453.37A29.17,29.17,0,0,0,429.3,27a29.3,29.3,0,0,0-11.1-8L376.65,2.19A28.92,28.92,0,0,0,365.48,0H95.81A29.16,29.16,0,0,0,68.93,17.4L1.28,168.34a14.4,14.4,0,0,0,13.14,20.29H126.13a29.17,29.17,0,0,0,27-17.67l38.45-88h54.36l-13.57,9.41a29.34,29.34,0,0,0-7.26,40.84q.49.7,1,1.38l48.18,60.6a29.08,29.08,0,0,0,23.13,11.16H429a7.21,7.21,0,0,0,5.31-12.07L421,179.74c.49,0,1,0,1.48,0l228.7.37a29.2,29.2,0,0,0,20.59-8.27,25.68,25.68,0,0,0,18.89,8.28H903.46a29.06,29.06,0,0,0,9.16-1.45L957.85,164a23.91,23.91,0,0,0,22.6,16.13H1242A29.14,29.14,0,0,0,1262.22,172.17Zm-866.84,12H297.32a7,7,0,0,1-5.63-2.71l-48.21-60.64a7.23,7.23,0,0,1,1.54-10.4l62.15-43.07a3.6,3.6,0,0,0-2.05-6.56H181.83a7,7,0,0,0-6.6,4.32l-42.4,97.06a7.05,7.05,0,0,1-6.6,4.31H31.77a3.67,3.67,0,0,1-3.28-5.07L89.14,26.36a7,7,0,0,1,6.57-4.26H365.55a6.8,6.8,0,0,1,2.71.54l41.61,16.92a7.19,7.19,0,0,1,4,9.33L402.47,77.45a6.87,6.87,0,0,1-2.3,3l-46.1,35.37A7.21,7.21,0,0,0,353,126.3l45.09,52A3.7,3.7,0,0,1,395.38,184.21Zm27-26.55,228.91.38a7.08,7.08,0,0,0,6.71-4.57l6.06-15.4a7,7,0,0,0-1.69-7.8l-4.58-4.44a6.91,6.91,0,0,0-5-2H486.7a3.65,3.65,0,0,1-3.36-4.88l4.09-10.72a7.06,7.06,0,0,1,6.72-4.64H631.88a7,7,0,0,0,6.71-4.6l4.29-11.1A3.6,3.6,0,0,0,639.52,83H502.26a3.66,3.66,0,0,1-3.35-4.9l4.49-11.61a7,7,0,0,1,6.71-4.6H678.78a7,7,0,0,0,3-.67L692.92,56a7,7,0,0,0,3.69-3.94l4-10.5a3.6,3.6,0,0,0-3.36-4.89h-244a7.06,7.06,0,0,0-6.73,4.65l-17,44.85a6.87,6.87,0,0,1-2.27,3.09l-37.2,29.49a3.6,3.6,0,0,0-.47,5.19L417,155.2A6.94,6.94,0,0,0,422.36,157.66Zm483.38,0,64.41-20.9a7,7,0,0,0,4.51-4.3l7.27-19.14a7,7,0,0,0-1-6.86l-8-10.76a3.6,3.6,0,0,1,.74-5l21.78-16.13a6.88,6.88,0,0,0,2.37-3.06l3.48-8.49a3.6,3.6,0,0,0-2.19-4.78L935.69,37.07a6.77,6.77,0,0,0-2.28-.37H736.26a7.07,7.07,0,0,0-6.73,4.64l-6.78,17.83a6.92,6.92,0,0,1-3.29,3.77L693.15,77.21A6.85,6.85,0,0,0,689.86,81l-8.25,21.74a7.05,7.05,0,0,0,1.49,7.49l11.39,12.13a7,7,0,0,1,1.5,7.45l-8.74,23.4a3.6,3.6,0,0,0,3.37,4.86h212.9A6.71,6.71,0,0,0,905.74,157.69Zm4.37-95.78H795.19a7.07,7.07,0,0,0-6.74,4.66L784.1,78.1A3.6,3.6,0,0,0,787.47,83h122.3a9.9,9.9,0,0,0,9.4-6.45l.34-.9A10.07,10.07,0,0,0,910.11,61.91Zm-15.79,41.65H779.44a7.07,7.07,0,0,0-6.73,4.64l-4.09,10.72A3.6,3.6,0,0,0,772,123.8h122.3a9.89,9.89,0,0,0,9.39-6.41l0-.08A10.08,10.08,0,0,0,894.32,103.56Zm117.8,4.87L998,145.05a6.93,6.93,0,0,1-4.14,4.13l-14.05,5.38a1.8,1.8,0,0,0,.64,3.49h261.63a7.07,7.07,0,0,0,6.7-4.57l6.06-15.41a7,7,0,0,0-1.69-7.8l-4.58-4.44a6.91,6.91,0,0,0-5-2H1077.5a3.65,3.65,0,0,1-3.36-4.88l4.09-10.72a7.07,7.07,0,0,1,6.73-4.64h137.72a7.07,7.07,0,0,0,6.72-4.6l4.28-11.1a3.6,3.6,0,0,0-3.36-4.89H1093.06a3.66,3.66,0,0,1-3.35-4.9l4.49-11.61a7,7,0,0,1,6.71-4.6h168.68a6.91,6.91,0,0,0,3-.67l11.1-5.16a6.94,6.94,0,0,0,3.69-3.94l4-10.5a3.6,3.6,0,0,0-3.36-4.89H1022.83a1.8,1.8,0,0,0-.53,3.52l6.67,2.05a7.22,7.22,0,0,1,4.63,9.41l-10.21,27.18a6.9,6.9,0,0,1-2.07,3l-12.58,10.71a3.59,3.59,0,0,0-.58,4.85l3.08,4.25A7,7,0,0,1,1012.12,108.43ZM1392.27,36.7h-65.79a7.07,7.07,0,0,0-6.73,4.64L1313,59.17a6.94,6.94,0,0,1-3.3,3.77l-26.3,14.27a6.91,6.91,0,0,0-3.3,3.77l-8.24,21.74a7,7,0,0,0,1.48,7.49l11.4,12.13a7,7,0,0,1,1.5,7.45l-8.74,23.4a3.6,3.6,0,0,0,3.37,4.86h229.65a7.07,7.07,0,0,0,6.71-4.6l9.6-24.75a3.6,3.6,0,0,0-3.36-4.9H1369.51a3.66,3.66,0,0,1-3.37-4.88l29.49-77.34A3.6,3.6,0,0,0,1392.27,36.7Z"/></g></g></svg>