<svg xmlns="http://www.w3.org/2000/svg" viewBox="0 0 576 335.46"><defs><style>.cls-1{fill:#121212;fill-rule:evenodd;}</style></defs><title>RumbleBee-Logo</title><g id="Layer_2" data-name="Layer 2"><g id="Layer_1-2" data-name="Layer 1"><path class="cls-1" d="M0,177.89l71.17,23.5c32.76,20.06,64.91,30.3,83.13,35.83,1,1.84,5.73,12.49,20.07,32.56s33.16,32.76,44.84,39.72c30.3,16,47.7,26,91.73,26s77.6-18.59,97.87-31.49S443,271.62,450,263s16.18-29.28,18.43-34.2c3.28-3.27,18.63-1.22,18.63-1,24.78,5.73,41.77-1,42-1,24.57-7.37,38.49-27.64,43.81-42.18s3.28-34.81-1-39.11c-11.67-18.22-7.37-28.66-7.58-28.46-31.94-10.24-55.89-6.76-55.89-6.76L520,87.34c-6.55-29.28-29.08-14.54-29.28-14.74-11.06-11.88-19-9.22-26.42-6.14-9.21-12.29-21.9-5.12-22.11-5.12-2.87-4.71-20.06-20.89-29.48-28.05S382.8,14.45,363.35,7.9,320.76-.91,304.59.32s-42,1.43-79.45,23.55c-41.77,26-55.89,53.44-68.38,77.6-32.56,7.17-58.36,21.7-61.43,26.41,16.59.62,45.87,9,50.57,10.65-1.22,4.91-.2-.62-1.9,11.94a308.78,308.78,0,0,0-74.22,21.3Zm103.6-52.73c-2.41-.93,167.35-86.6,325.62,55.39l-14.83-.21s-32.75-27.89-83.67-15.57c-30.81,6.82-53.67,24.49-58.86,32.44l-16.54-.82S194.4,137.39,103.6,125.16ZM274,233.45a40.49,40.49,0,0,1,6.29-12.95c4.38-6.09,11.24-13.33,14.28-15.62a104.35,104.35,0,0,1,12.57-8.19,114.09,114.09,0,0,1,15-6.66,120.72,120.72,0,0,1,19.24-4,80.16,80.16,0,0,1,20.95.57,59.56,59.56,0,0,1,19.8,6.67,52.3,52.3,0,0,1,11.81,9.9,35.43,35.43,0,0,1,6.29,12.57,37.33,37.33,0,0,1-1.72,24,64.24,64.24,0,0,1-14.09,20,92.89,92.89,0,0,1-19.62,13.91A116.25,116.25,0,0,1,342.21,282a108.21,108.21,0,0,1-21.71,1.71,70.34,70.34,0,0,1-20.76-3.81c-5.53-2.09-15.62-6.85-21.53-16.19s-6.66-16.37-5.9-21.52A57.05,57.05,0,0,1,274,233.45Zm-47.84,72.68H392.6s-36.88,23.55-83.6,23.55S228.3,307.48,226.18,306.13Zm-61.65-66.46s33.69,13.76,88.76,21.82c5.27,11.57,6.45,17.87,28.42,34.13l-69,1.61S181.67,276.58,164.53,239.67ZM149.85,138.49s16,4.92,19.94,8.41c0,0-12.82,2.59-21.36,2.79C148.43,145.93,148.88,139.85,149.85,138.49ZM160.67,101c0-.31,17-40.24,60.81-69.59S310.13,3.23,331,5.05s63.53,16,98,47.8c0,0-11.49,0-16,6.66L390,97.33h-8.77L363.08,68.89s-3.94-8.78-29.65,0c0,0-3-13.92-28.74-3.94,0,0-2.42-2.72-3.94-4.53s-3.63-9.69-27.83-1.21l-5.75-6.06s-16-11.19-34.49,8.48l33,36S227.84,87.65,160.67,101ZM12.29,180.6l56.52,11.09s3,3.69,3.9,4.49Zm-.1-.9,59.62-4.39s2.39,2.6-1.9,5.59ZM238.79,58.2s7.91-4.64,9.69-5,2.17.1,2.66.59,1.88,2.38.3,2.87-6.23,1-10.38,5.93C239.38,63.84,235,61,238.79,58.2Zm32,6.29c1.75-1.46,10.65-5.7,12.84-5.4,2,1,3.35,3.35,1.17,3.5s-9.34,3.65-10.36,5.11-3.51,1.16-4.38.43S269,65.94,270.75,64.49ZM302,69c.88-.58,9.34-4.52,13.14-5,2.62.44,1.89.44,2.77,1.6s.44,1.61-1,1.9-9.2,2.33-11.09,4.52-3.21,1.32-3.94.88-2-1.31-1.17-2.63S301.1,69.59,302,69Zm30.94,3.21c.14-.29,7.73-3.5,14.15-4.38,2.19-.14,2.19.29,2.92,1.31s.87,2.19-.44,2.19-9.19,1.9-10.65,3.07S336,76.6,334.8,76.16s-2.77-.59-2.91-1.61S332.76,72.51,332.91,72.22ZM415.14,59.9s6.07-6.22,14.46-4.26c.23,0,7.08,1.23,9.5,10.48l-.6,1.21s.38-6.59-10.54-8.72c0-.15-8.95-1.74-13.5,2.51Zm24.92,6.82s6.24-6.86,14.09-4.49c5.74,1.49,8.36,7.11,8.86,9.1L462.14,73s0-5.73-9.11-8c0-.12-5.74-2.12-13.47,2.62Zm25.32,3.49s6.24-5.61,14.34-2.37c0,0,7.86,3.37,9.73,9.73l-1.12,2.37s-.37-5.86-9.73-8.61c-.12-.12-7.73-2.49-14.59,1.12Zm25.32,7.61s1-6.86,12.72-6.11c6,.87,9.36,3.61,11.1,6.61a20.35,20.35,0,0,1,2.37,7.73l-3.36-3A9.29,9.29,0,0,0,507,75.57c-6-2-11.1-1-13.72.38ZM507.53,187.4l1.31-1.49,3.46-.47,25.08,10.29a8.46,8.46,0,0,0,3.37.09l6.27-4.39s2.05-.94,3.55,2.43L542.9,199a6.33,6.33,0,0,1-7.11,0Zm8.23-10.48.19-2.34s16.28-2.15,31.07-.75,19.55,3.09,21.05,3.84c.75,1.31.66,2.62.28,4.4s-4.49,13-7.58,18c-2.71,1.4-3.27,1.59-4.12,1.68s-2.24.09-2.43-1l-.09-4,6.55-14.51s.84-1.49-1.5-2.15C550,178,533.26,174.77,515.76,176.92ZM406.38,133.47c.11-.23.58-.34,2.08-.23s44.39,6.34,45.43,7.15,1.38.12.12,1.5L451.93,143s-41.63-8.41-44.17-8.3C405.92,134.28,406.26,133.7,406.38,133.47Zm20.41,11.79c-.05-.21,1-4.09,8.94-3.34a14.84,14.84,0,0,1,9.11,5.26l-.25,4s-.42,3.43-3.51.92-8.94-7.19-13.79-6.68C427,145.51,426.84,145.46,426.79,145.26Zm66.09,30,18.26-.66V177l-17.38,26.4-3.52.66s-32.79-14.74-45.55-28.38c.66-7,3.74-25.31,10.12-30.59l2-.66s10.56-16.72,26.85-23.1,4.84-2.86,24.86-7.71c16.51-3.3,42.47,2,47.31,4.25s4.39,2.87,4.39,5.07.38,8.65,1,10.41,1.46,4.79,3.54,7.36a62.1,62.1,0,0,1,6.66,12.52c.44,1.76,3.68,11-.06,19.38C565.44,170.67,530.07,164.05,492.88,175.28Zm-68.09,13.06c1.57-.15,19.56,4.14,33.26,16.27,3.86,3.14,3.86.43.72-4.28s-6.71-8.85-7.43-9.28c.29-1,31.84,14.56,35.13,16.13s6.56,2.86,9.28-.28l12-15.28,27,11.14s4.69,2.28,8.68-.43l6.71-4.86s1.89-1.28,2.17.15l.86,6.42s3.28-.57,3.42.71c0,0-18.13,23.7-47.39,22.42s-33.84-13.42-71.82,10C438.21,227.6,441.92,215.32,424.79,188.34ZM263.62,208.11s-13.84,18.82-10.52,45.67c.28,0-37.36-18-58.94-80.53-1.94-7.2-3.6-9.69-5.81-7.48S179.77,184,185.58,207s14.94,33.76,15.22,36c0,0-52.86-2.21-70.57-73.61-.27-3.32-1.38-5.81-4.42-1.94-2.49,5.26-8.58,25.74,3.32,50.65,1.93,3-1.94,1.38-3.32.83s-35.43-14.12-50.92-30.17c-6.64-11.62,15.49-19.09,23.24-21.31s56.46-14.11,82.75-14.11c0-.28,16.6,6.92,39.29,26.29S260.58,207.84,263.62,208.11Zm228.12,7.7c-1.41,2,.12,1.59,1.46,1.16,9.49-2.82,28.4-1,29.19-.86s1.65.31.49-.79-11.32-7.28-11.81-7.53-.79-.55-.61-1.1.31-1.16-.12-.92C495,212,492.1,215.13,491.74,215.81Zm37.73-66.25c-6.89-4.53-26.89-8.32-35.83-9.22s-20.84,0-24.28.73-5.8,2.9,6.16,1.45,32.08,3.44,37,4.53,22.29,7.61,23.92,8.15,1.45-.72,1.45-.72L525,138.17c.55-.37,9,.68,13.23.9s5,.57,8.6-2.19,5.73-7.7,7-9.87,1.26-3.34.9-4.79-6.52-1.81-9.78-2.17-12.87-2-19.94-2.72c-9.42,1.27-9.06,5.61-8.7,10.33S528,146.48,529.47,149.56Zm33.17,31.76L556,197.88l-.09,1.5a1,1,0,0,0,1.4.84l2.71-.75c1.5-1.68,7.11-17.59,7.11-17.59ZM268.33,132.11c-57.68-18.35-101.79-17.17-101.94-17,87.1,5.89,161,50.15,161,50.15l10.15-4.87L331,156.61l8.19-4.41c-97.7-48.85-171.36-38.33-171.36-38.33C203.48,113.87,239.43,122.52,268.33,132.11ZM330.24,157l-.82.7q-8.15-4.32-16.18-8.08c10.25,4.64,16.19,7.82,16.19,7.82ZM287.08,257.62c.52-5.93,2.27-9.24,7.5-11.68s7.49-2.44,16.56-3.66c4.36,12.72,11.51,17.08,19,19.35s18.48.69,21.62.35,12-3.14,14.82-4,4.88-.35,2.79,2.09c-8.55,9.24-18.48,14.29-22.14,16.73,5.4-.52,14.64-4,20.22-7s16.39-11.51,21.27-18.83A59.45,59.45,0,0,0,398,228.33c1.57-8.2-1.74-16.39-4.53-21.27s-8.2-9.41-15.69-13.42-17.44-5.58-27.55-5.58-23.54,3.31-31,6.27-20.4,12-26.5,19.35a46.39,46.39,0,0,0-10.11,26.68C282.2,249.42,287.08,257.44,287.08,257.62Zm6.57-35.41a147.05,147.05,0,0,1,23.43-5.3c11.22-1.35,27.74-3.33,38.35-2.59s15,2.84,15.78,3.46a10.76,10.76,0,0,1,2.83,7.15c-.12,3.33-4.19,7.52-7.89,8.75s-6.78,2.47-9.12,2.59v-4.93s-.74-2.84-15.78-5.92a120.31,120.31,0,0,0-32.55-2.1c-5.06.37-10.94.3-14.18.87s-2.66-1.27-1-1.93ZM164.22,107.1C297.43,92,380.54,157.2,380.54,157.2l-13.21.78c17.09.78,47.38,16.31,47.38,16.31C314.13,72.54,164.61,106.72,164.22,107.1ZM142.1,128.26c87.08,9.7,136.27,54.16,136.27,54.16l9.7-3.39C211.59,121.72,142.1,127.81,142.1,128.26Zm2.44-4.24c81.55,3.76,136,47.72,136,47.72l10.52-3.38C216.69,114.25,144.54,124,144.54,124Zm95.89-58.31s18.22-.25,25.81-10.37l5.43,5.56s-5.81,3.55-6.32,4.94-.13,2.53,1,3.79l27.07,32-7.71-1.4-27.2-30.73s-1.77-2.16-5.69-1.4l-8.48,1.52Zm31.7,5.78s21.45-1.75,26.41-10.36l3.65,4.23s-6.13,3.79-6.71,5-1.17,2.63,1,5.4l26.56,33.85-6.71-1.89L291.25,76.3S289.94,73,284.39,74l-9.05,1.31ZM301,76.6s20.58.43,28.31-9.49l1.61,2.77a17.11,17.11,0,0,0-4.09,3.21c-1.46,1.76.15,3.65,1.46,5.4l31.81,45.67-11.67-5.39L322.33,81.7s-2.34-3.21-5.69-2.19l-12.41,1Zm31.52,2.77S350.2,82,359.83,71.93l43.63,62.59s9.33,17.37,23.05,11.82c10.51,2.34,21.74,16.49,11.38,32.54.15,0-27.28-26.55-48.44-38.52L351.8,83.31s-.44-1.31-2.92-.88l-14.15.73ZM425.88,61s-7.86-1.72-12.72,2.28L393.31,98.17l2,.57L411.88,71,397.73,98.74l8.15.29Zm12,14.3-11,24.23,7.6.83,17.23-33.62s-5-2.14-12.95,2.38L422.1,99.44l2.49.12Zm23.65,6.83-7.78,20.16,7.54.94L476.76,73.2s-5.66-2.71-13.56,1.06l-13.91,27.35h1.77ZM475.61,106l14.28-26.43s5.6-5.72,15.84-2.14L486.92,113s-6.43-6.07-8-6.19c0,0,5.72-16,7.62-16.9l-9.64,16.31Zm-93.26-5.28,4.11-1.17s51.62,1.17,82.65,6.32l-20.44,1.47S414.11,101.72,382.35,100.69Zm1.2,1.37s35.89,2.1,62.77,7.35L439,124.28l-6.31.45-11.56-1.35s10.66-19.07-9.46-.9L396,119.92s16.07-15-4.2-6.45Zm62.06,33.88s-3.78-5.92-3.52-12.19c.09-3.44,3.26-6.7,4.64-7.13l4.64-.35a9.55,9.55,0,0,0-4,8.59c.09,1.38.17,4.56,3.52,11.08Zm8.16-19.32,4.64-.35a8.94,8.94,0,0,0-3.86,7.91c.25,5.41,2.49,11.08,3.26,11.85h-4.72s-2.84-4.72-3.53-8.42a11.79,11.79,0,0,1,.09-5.75A9.73,9.73,0,0,1,453.77,116.62Zm7-.18,4.47-.17a6.8,6.8,0,0,0-2.75,2.75,13.28,13.28,0,0,0-1,4.12,24.22,24.22,0,0,0,.43,5.07c.26.69.34,2,.68,2.84l-3.26,4.21a14.86,14.86,0,0,1-2.4-5.16,18.26,18.26,0,0,1-.78-6.53,9.15,9.15,0,0,1,1.46-4.46A7.41,7.41,0,0,1,460.73,116.44Zm6.27,0,4.64-.17s-4.81,2.32-3.52,10.4l-4.3,4S459.7,121.68,467,116.44Zm6.36.09,4.55-.26a7.08,7.08,0,0,0-3.52,6.1l-5.33,3.7S468.55,119,473.36,116.53Zm2.23,5.07s.69-4,3.61-4.9l4.55-.43s-2.24,1.25-2.3,2.75Zm7.48-3.35a3,3,0,0,1,1.54-1.63l4.55-.35ZM455.2,144.94l1.29-.15.49-.64s10.15,6.45,13,7.58c2.18,1.06,4.11,2.34,5.16,2.65l-1.39,0s-7.06-2.6-10.23-3.51S455.69,147.43,455.2,144.94ZM447,173.22s5.29-26.85,10.35-26.19c4.18,2,16.94,7,17.82,7.26,0,.22-13-2.2-15.4-3.74s-2.42-1.76-3.74.44-5.06,20.47-5.72,25.09ZM459.83,145s8.66-17.83,22.47-19.71c-1.26,1.51-17.2,9.79-20.46,21Zm26.48-8.08c-.13-.12,1.25-3.9,28.24,1.24-2.63-7.15-4.27-9.79-1.76-16.94,1,5.52-1.75,8.28,12.18,24C515.07,142.2,512.92,139.54,486.31,136.9Zm71.6-11.07c.5-.76,1.07,2.63,1.57,7s4.52,12,6.28,14.18,5.77,8.66,5.27,10.42c-2.13-1.76-9.41-13.05-41.93-16.44l-1.2-1.47,15,1.09S550.62,143,557.91,125.83ZM490.73,177l2.13,1.63,16.2-.38-.25-1.88S505.54,176.36,490.73,177Z"/></g></g></svg>