<svg xmlns="http://www.w3.org/2000/svg" viewBox="0 0 350.97 374.1"><defs><style>.cls-1,.cls-2{fill:#282325;}.cls-2{fill-rule:evenodd;}</style></defs><title>RAM Shield</title><g id="Layer_2" data-name="Layer 2"><g id="Layer_1-2" data-name="Layer 1"><path class="cls-1" d="M98.12,70.87c45.42,0,69.51,59.1,69.51,59.1l5.26-17.71S152.46,61,104.64,61C62.88,61,49.87,96.8,49.87,96.8S65.28,70.87,98.12,70.87Z"/><path class="cls-1" d="M85.33,229.5c-30.8,0-42.53-77.62-42.53-77.62H35.16c0,5-2.52,95.68,46.91,95.68,16.17,0,22.75-11,22.75-20.34a48.19,48.19,0,0,0-7.1-25.08S105.79,229.5,85.33,229.5Z"/><path class="cls-1" d="M252.82,70.87c32.9,0,48.29,25.93,48.29,25.93S288.07,61,246.39,61c-47.88,0-68.28,51.26-68.28,51.26L183.37,130S207.46,70.87,252.82,70.87Z"/><path class="cls-1" d="M308.2,151.88s-11.71,77.64-42.55,77.64c-20.47,0-12.36-27.36-12.36-27.36a48,48,0,0,0-7.11,25.07c0,9.29,6.55,20.32,22.72,20.32,49.43,0,46.91-90.65,46.91-95.67Z"/><path class="cls-2" d="M229.57,181.09l-3.93,1.57,4-16.63L239.88,150a65.58,65.58,0,0,1,1.47,14.16C241.35,174.53,235.58,178.69,229.57,181.09Zm-108.14,0c-6-2.4-11.79-6.56-11.79-17A69.74,69.74,0,0,1,111.11,150L121.43,166l3.88,16.63Zm125.64-31.28s3.92-11.39,12.27-11.39c14.38,0,12.5,24.91,6.17,45.71-6.54,21.25-1.38,24.43,2.51,24.43s12.6-4,22.14-21.54,13.14-39.25,13.14-39.25h7.08c0-43.58-25.71-51.29-40-51.29-45.26,0-62.07,63.23-62.07,63.23l9,6.38L213,187.76l-17,6.91L192.91,216l8.42-10.17,8.78-3.53L207.35,216,192,222.31l-5.31,36.79,3.73,11.71-14.87,5.87-14.89-5.87,3.73-11.71L159,222.31,143.65,216l-2.76-13.67,8.75,3.53L158.06,216,155,194.67l-17-6.91-4.32-21.67,9-6.38S125.89,96.48,80.54,96.48c-14.28,0-40,7.71-40,51.29h7.11S51.31,169.5,60.85,187,79.11,208.56,83,208.56s9-3.18,2.53-24.43c-6.36-20.8-8.24-45.71,6.21-45.71,8.23,0,12.2,11.39,12.2,11.39s-10.38,27.52,9.52,36.32l14.2,6.27c3.92,16.37,8.35,35,9.17,38.12,1.32,5.16,5.89,12.28,5.89,12.28l9.63,16.35,4.46,22c1.15,5.65,2.39,11.37,16.42,11.37h4.63c14.06,0,15.31-5.72,16.48-11.37l4.42-22,9.61-16.35s4.54-7.12,5.9-12.28c.85-3.13,5.27-21.75,9.14-38.12l14.25-6.27C257.49,177.33,247.07,149.81,247.07,149.81Z"/><path class="cls-2" d="M329.57,218.36c-2.67,40.86-15,59.22-36.1,73.55-17.46,11.82-86.3,48.13-118,64.66C143.83,340,75,303.73,57.51,291.91c-21-14.31-33.46-32.69-36-73.55-2.75-42.72-5.9-142.94-5.9-170.47,0-22.43,12.53-26.11,20.29-26.68,10.53-.79,78.89-5.69,139.67-5.69s129.11,4.9,139.65,5.69c7.71.57,20.25,4.25,20.25,26.68C335.44,75.42,332.27,175.64,329.57,218.36ZM316.3,5.69C305.69,4.91,236.77,0,175.52,0S45.34,4.91,34.7,5.69C21.24,6.68,0,15.13,0,47.89c0,27.66,3.14,128.5,5.87,171.43,2.89,44.84,17.23,68,42.89,85.38,11.74,8,45.79,26.59,76.91,43.13,20.21,10.81,39.18,20.71,49.85,26.27,10.67-5.56,29.6-15.46,49.82-26.27,31.11-16.54,65.08-35.13,76.93-43.13,25.66-17.41,40-40.54,42.86-85.38C347.86,176.39,351,75.51,351,47.89,351,15.13,329.78,6.68,316.3,5.69Z"/></g></g></svg>