<svg xmlns="http://www.w3.org/2000/svg" viewBox="0 0 306.36 368.04"><defs><style>.cls-1{fill:#121212;fill-rule:evenodd;}</style></defs><title>RAM Shield RAM</title><g id="Layer_2" data-name="Layer 2"><g id="Layer_1-2" data-name="Layer 1"><path class="cls-1" d="M85.65,56.39c39.64,0,60.67,47,60.67,47l4.59-14.09S133.08,48.54,91.34,48.54C54.89,48.54,43.53,77,43.53,77S57,56.39,85.65,56.39Z"/><path class="cls-1" d="M74.49,182.6c-26.89,0-37.13-61.76-37.13-61.76H30.69c0,4-2.2,76.13,41,76.13,14.11,0,19.86-8.78,19.86-16.18a36,36,0,0,0-6.2-19.95S92.34,182.6,74.49,182.6Z"/><path class="cls-1" d="M220.68,56.39C249.4,56.39,262.83,77,262.83,77s-11.38-28.48-47.76-28.48c-41.8,0-59.6,40.78-59.6,40.78l4.59,14.09S181.09,56.39,220.68,56.39Z"/><path class="cls-1" d="M269,120.84s-10.22,61.78-37.14,61.78c-17.87,0-10.79-21.77-10.79-21.77a36,36,0,0,0-6.2,19.94c0,7.4,5.71,16.18,19.83,16.18,43.14,0,40.94-72.13,40.94-76.13Z"/><path class="cls-1" d="M200.39,144.08,197,145.34l3.46-13.24,9-12.79a48.12,48.12,0,0,1,1.28,11.26C210.67,138.87,205.63,142.17,200.39,144.08Zm-94.4,0c-5.24-1.91-10.29-5.21-10.29-13.51A50.36,50.36,0,0,1,97,119.31l9,12.79,3.39,13.24ZM215.66,119.2s3.42-9.07,10.71-9.07c12.55,0,10.91,19.82,5.38,36.38-5.7,16.9-1.2,19.43,2.2,19.43s11-3.2,19.32-17.13,11.48-31.24,11.48-31.24h6.18c0-34.67-22.45-40.81-34.9-40.81-39.51,0-54.19,50.31-54.19,50.31l7.88,5.08-3.78,17.24-14.86,5.5-2.69,17,7.35-8.1,7.66-2.81L181,171.82l-13.43,5.06-4.64,29.27,3.26,9.32-13,4.67-13-4.67,3.26-9.32-4.67-29.27-13.4-5.06L123,160.94l7.64,2.81,7.35,8.1-2.71-17-14.83-5.5-3.77-17.24,7.88-5.08S109.88,76.76,70.3,76.76c-12.47,0-34.89,6.14-34.89,40.81h6.2s3.17,17.29,11.5,31.24,15.94,17.13,19.3,17.13,7.87-2.53,2.21-19.43c-5.55-16.56-7.19-36.38,5.43-36.38,7.17,0,10.64,9.07,10.64,9.07S81.63,141.1,99,148.09l12.4,5c3.42,13,7.29,27.84,8,30.34,1.15,4.1,5.14,9.77,5.14,9.77l8.41,13,3.89,17.48c1,4.5,2.09,9,14.33,9h4c12.28,0,13.37-4.55,14.39-9l3.86-17.48,8.38-13s4-5.67,5.15-9.77c.75-2.5,4.61-17.31,8-30.34l12.43-5C224.76,141.1,215.66,119.2,215.66,119.2Z"/><path class="cls-1" d="M287.68,173.74c-2.33,32.51-13.11,47.12-31.52,58.52-15.24,9.41-75.33,38.29-103,51.45-27.65-13.16-87.76-42-103-51.45-18.37-11.39-29.21-26-31.47-58.52-2.4-34-5.15-113.73-5.15-135.64,0-17.84,10.94-20.77,17.71-21.22,9.19-.63,68.87-4.53,121.91-4.53s112.7,3.9,121.91,4.53c6.73.45,17.67,3.38,17.67,21.22C292.8,60,290,139.75,287.68,173.74ZM276.09,4.53C266.83,3.91,206.67,0,153.2,0S39.58,3.91,30.28,4.53C18.54,5.32,0,12,0,38.1c0,22,2.74,102.25,5.12,136.4,2.52,35.68,15.05,54.08,37.44,67.94,10.25,6.36,40,21.15,67.14,34.31,17.64,8.6,34.19,16.48,43.5,20.91,9.32-4.43,25.84-12.31,43.49-20.91,27.16-13.16,56.82-27.95,67.16-34.31,22.39-13.86,34.87-32.26,37.41-67.94,2.38-34.15,5.1-114.42,5.1-136.4C306.36,12,287.86,5.32,276.09,4.53Z"/><path class="cls-1" d="M17.74,324.51V368h29.2V354.78h5.42l9,13.26H92.44L79.61,352.63a13.67,13.67,0,0,0,9.54-13.57c0-11-9.53-14.55-17.74-14.55Zm29.2,11.42v8.42h6.74s4.24-1,4.24-4.56-4.24-3.86-4.24-3.86Z"/><polygon class="cls-1" points="192.56 368.04 192.78 324.51 234.51 324.51 240.7 337.92 246.66 324.51 288.62 324.51 288.39 368.04 259.25 368.04 259.25 342.92 247.1 368.04 234.07 368.04 222.37 342.92 222.37 368.04 192.56 368.04"/><path class="cls-1" d="M97.83,368h30.6l3.8-9.39h19.65l3.54,9.39h31L163.9,324.51H118.8Zm38.46-20,5.76-14,5.58,14Z"/></g></g></svg>