<?xml version="1.0" encoding="utf-8"?>
<!-- Generator: Adobe Illustrator 27.9.1, SVG Export Plug-In . SVG Version: 6.00 Build 0)  -->
<svg class="w" version="1.1" xmlns="http://www.w3.org/2000/svg" xmlns:xlink="http://www.w3.org/1999/xlink" x="0px" y="0px"
	 viewBox="0 0 5753.1 1633.5" style="enable-background:new 0 0 5753.1 1633.5;" xml:space="preserve">
     $gradientDefs

	<path class="maincolor" d="M4328,31.3L5020.4,570c5.1,4-0.8,9.2-7,10.6c-121,28-208.1,60.5-244.6,75.3
		c-568.7,231.2-765.5,757-815.6,922.7c0,0-6.1,20.1-8.5,28c-4.8,15.8-18.2,26.5-34.7,26.5h-266c-21.7,0-40.2-6.3-57.3-19.7
		l-605.4-471c-7.5-5.9-6.2-17.7,2.7-21.3c18-7.2,34.7-15.3,34.7-15.3c28.1-13.1,177.1-92.2,201.9-110.8
		c100.5-75.2,99-82.5,112.8-204.4c0.1-2.6,26.2-241,13-393.6c-8.3-96.3-34.8-114.6-75.4-152.2c-34.2-31.7-113.4-84.5-120.3-88.4
		L2910.2,16.8c-8.3-4.8-4.3-17.5,5.2-16.8c47,3.6,115.8,6,186.3,8.8c125.8,5,674.9,13,1218.6,20.2C4323.2,29,4325.7,29.5,4328,31.3z
		"/>
	<path class="accentcolor" d="M5168.1,548.1L4516.7,41.2c-3.9-3-1.1-9.7,3.8-9.6c97.1,1.3,192.3,2.5,283.1,3.6l34.6,0.4
		c8.2,0.1,15.2,2.5,21.6,7.6c9.4,7.3,606,473.2,606,473.2c6.3,4.9,3.7,16.2-4.2,16c-102.5-2-198.9,5.5-285.7,17.9
		C5173,550.7,5170.4,549.9,5168.1,548.1z"/>



	<path class="maincolor" d="M1167.5,31.7L475.1,570.4c-5.1,4,0.8,9.2,7,10.6c121,28,208.1,60.5,244.6,75.3
		c568.7,231.2,765.5,757,815.6,922.7c0,0,6.1,20.1,8.5,28c4.8,15.8,18.2,26.5,34.7,26.5h266c21.7,0,40.2-6.3,57.3-19.7l605.4-471
		c7.5-5.9,6.2-17.7-2.7-21.3c-18-7.2-34.7-15.3-34.7-15.3c-28.1-13.1-177.1-92.2-201.9-110.8c-100.5-75.2-99-82.5-112.8-204.4
		c-0.1-2.6-26.2-241-13-393.6c8.3-96.3,34.8-114.6,75.4-152.2c34.2-31.7,113.4-84.5,120.3-88.4l240.6-139.7
		c8.3-4.8,4.3-17.5-5.2-16.8c-47,3.6-115.8,6-186.3,8.8c-125.8,5-674.9,13-1218.6,20.2C1172.3,29.4,1169.8,29.9,1167.5,31.7z"/>

	<path class="accentcolor" d="M327.4,548.5L978.8,41.6c3.9-3,1.1-9.7-3.8-9.6c-97.1,1.3-192.3,2.5-283.1,3.6l-34.6,0.4
		c-8.2,0.1-15.2,2.5-21.6,7.6c-9.4,7.3-606,473.2-606,473.2c-6.3,4.9-3.7,16.2,4.2,16c102.5-2,198.9,5.5,285.7,17.9
		C322.5,551.1,325.1,550.3,327.4,548.5z"/>

	<text class="textcolor outline" textLength="14" lengthAdjust="spacingAndGlyphs" transform="matrix(118.4816 -3.000000e-04 3.000000e-04 118.4816 4.882812e-04 304.8753)" style="font-family:BankGothic-Md-BT; font-size:2.3251px; stroke:#6A6A6A; stroke-width:.55; paint-order:stroke; stroke-linecap:round; stroke-linejoin:round; ">
		<tspan>$textRef</tspan>
	</text>

	<text class="textcolor outline" textLength="14" lengthAdjust="spacingAndGlyphs" transform="matrix(118.471 -1.3361 1.3361 118.4741 3788.6772 312.6333)" style="font-family:BankGothic-Md-BT; font-size:2.3251px; stroke:#6A6A6A; stroke-width:.55; paint-order:stroke; stroke-linecap:round; stroke-linejoin:round;">
		<tspan>$textRef</tspan>
	</text>
</svg>
