<?xml version="1.0" encoding="utf-8"?>
<!-- Generator: Adobe Illustrator 27.9.1, SVG Export Plug-In . SVG Version: 6.00 Build 0)  -->
<svg class="w" version="1.1" xmlns="http://www.w3.org/2000/svg" xmlns:xlink="http://www.w3.org/1999/xlink" x="0px" y="0px"
	 viewBox="0 0 5740.5 1633.1" style="enable-background:new 0 0 5740.5 1633.1;" xml:space="preserve">
     $gradientDefs

	<path class="accentcolor" d="M291.4,548.6c15.2,2.3,56.1,8.4,56.1,8.4c159.9,27.2,286.2,69.3,359.3,99c568.7,231.2,765.5,757,815.6,922.7
	c0,0,6.1,20.1,8.5,28c4.8,15.8,18.2,26.5,34.7,26.5h266c21.7,0,40.2-6.3,57.3-19.7l605.4-471c7.5-5.9,6.2-17.7-2.7-21.3
	c-18-7.2-34.7-15.3-34.7-15.3c-28.1-13.1-177.1-92.2-201.9-110.8c-100.5-75.2-99-82.5-112.8-204.4c-0.1-2.6-26.2-241-13-393.6
	c8.3-96.3,34.8-114.6,75.4-152.2c34.2-31.7,113.4-84.5,120.3-88.4l240.6-139.7c8.3-4.8,4.3-17.5-5.2-16.8c-47,3.6-115.8,6-186.3,8.8
	c-164.2,6.5-745.1,16.1-1398.3,24.5L941,33.7c-8.2,0.1-15.2,2.5-21.6,7.6c-9.4,7.3-632.1,491.3-632.1,491.3
	C281,537.4,283.6,547.4,291.4,548.6z M323.7,531.5L932.9,58.1c2.4-1.9,5.4-2.9,8.4-2.8c223.9-2.8,447.8-5.9,671.8-9.4
	c185.9-2.7,371.7-6.1,557.6-10c99.9-1.9,199.7-5,299.4-9.4c12.8-0.4,25.6-1,38.3-1.6l-195.2,113.4c-29.9,19.3-59.1,39.7-87.5,61.2
	c-12.4,9.2-24.4,19.1-35.8,29.5l-18.3,16.9c-6,5.6-11.8,11.5-17.3,17.6c-23.4,25.8-35.3,56.6-41.3,90.6c-2.5,13.7-4.3,27.5-5.4,41.4
	c-3.1,39.8-4.3,79.7-3.7,119.7c1.3,91,6.7,172.7,15.4,263.7c2.5,27.3,5.8,54.5,9.8,81.5c1.7,11.4,4.1,22.7,7.3,33.8
	c6.9,24.3,19.7,44.5,37.6,62.3c7.5,7.5,15.3,14.6,23.5,21.3c14.6,12,29.5,23.6,44.7,34.7c9.4,6.9,28.5,18.2,38.8,23.9l26.7,15
	l43.3,23.7c31.8,17.3,63.9,34.1,96.3,50.1c7,3.4,14.2,6.7,21.4,9.8l-593.2,461.6c-12.3,9.9-27.7,15.1-43.4,14.9l-266.4,0
	c-6.5,0-12.2-4.3-13.9-10.6l-8.7-28.6c-24.8-80.9-56.2-159.7-93.8-235.5c-28.8-58.3-61-114.9-96.7-169.3
	C1197.5,930.1,980.5,743.1,715,636l-0.1,0c-64.8-25.8-131.1-47.5-198.7-64.8c-54.5-14.2-109.5-26-165-35.5L323.7,531.5z"/>
<path class="maincolor" d="M350.3,524.6l2.7,0.4c55.8,9.5,111.1,21.4,165.9,35.6c68,17.5,134.8,39.2,200,65.2l0.2,0.1
	c267.5,107.9,486.4,296.5,642.6,535.7c35.9,54.8,68.4,111.7,97.3,170.4c37.9,76.3,69.5,155.6,94.5,237.1l8.7,28.7
	c0.4,1.6,1.9,2.8,3.5,2.9l266.4,0c13.3,0.1,26.2-4.3,36.7-12.5l579.2-450.7c-1.8-0.9-3.6-1.7-5.4-2.6
	c-32.5-16.1-64.8-32.9-96.6-50.3l-43.4-23.7l-26.7-15c-10.8-6-30.1-17.4-40-24.6c-22.4-16.5-48.9-36.7-69.4-57.1
	c-19.1-19-33-41-40.4-67c-3.3-11.5-5.9-23.3-7.6-35.1c-4-27.3-7.3-54.7-9.9-82.1c-8.7-91.5-14.2-173-15.4-264.6
	c-0.6-40.3,0.6-80.5,3.7-120.7c1.1-14.2,3-28.4,5.5-42.4c3-17.5,8-34.7,15-51.1c7-16.5,16.8-31.7,29-44.9
	c12.2-13.4,23-22.9,36.2-35.1c11.7-10.7,23.9-20.8,36.7-30.2c28.6-21.6,58-42.2,88.1-61.7l157.8-91.6c-98,4.2-196.1,7.3-294.3,9.2
	c-185.9,3.9-371.7,7.3-557.6,10c-223.9,3.4-447.9,6.5-671.8,9.4c-0.7,0-1.4,0.2-1.9,0.6L350.3,524.6z"/>
<g>
	<path class="accentcolor2" d="M1228.4,389.3C1228.4,389.3,1228.4,389.3,1228.4,389.3C1228.4,389.3,1228.4,389.3,1228.4,389.3z"/>
	<path class="accentcolor2" d="M703.5,420.1C703.5,420.1,703.5,420.1,703.5,420.1C703.5,420.1,703.5,420.1,703.5,420.1z"/>
	<path class="accentcolor2" d="M1297.3,1070.6c5.5,7.1,10.8,14.3,16.2,21.6c0.7,0,1.4,0,2.1,0c52.8-0.7,105.7-2.5,158.3-7.9
		c94.3-9.7,188.7-31.2,273-75.6c42.8-22.6,80.7-51.7,117.3-83.1c36.5-31.3,72.5-63.7,114.5-87.6c20.5-11.6,42.2-21.2,65.1-27.1
		c20.9-5.3,43.5-8.3,64.8-3.9c0.9,0.2,1.9,0.4,2.8,0.6c-0.9-8.1-1.7-16.3-2.5-24.4c-23-1.5-47.6,4.1-67.5,10.8
		c-94.2,31.8-156.9,114.1-237.7,167.5c-80.6,53.2-175.1,81.5-270,95.4c-53.5,7.8-107.6,11.2-161.7,12.7
		C1347,1070.2,1322.1,1070.5,1297.3,1070.6z"/>
	<path class="accentcolor2" d="M1343.3,1134.3c3.7,5.4,7.3,10.7,10.9,16.1c50.8-10.5,102.7-16.3,153.8-24.8c37.5-6.2,74.8-14,111-25.9
		c38.9-12.7,76.3-29.4,113-47.3c36.7-18,73.7-36.2,108.4-58c34.4-21.6,64.2-48.5,95.1-74.7c7.9-6.7,15.9-13.3,24-19.7
		c7.2-5.6,14.6-11.2,23.1-14.6c7.9-3.2,17.1-4.2,24.7,0.4c5.1,3,8.4,8,10.3,13.5c4,12,2.6,25.1,4.3,37.5c0.8,5.9,2.2,11.9,5.4,17
		c4.1,6.5,10.6,9.7,17.6,12.1c8,2.7,15.7,5.2,21.6,11.6c5.1,5.5,8.3,12.6,9.8,20c1.7,8.2,0.9,16.6-1.5,24.6c-0.9,3-2.4,6.6-3.6,9
		c-0.1,0.2-0.3,0.4-0.4,0.6c-1.4,1.9-2.9,3.7-4.4,5.4c-25.5,29.6-59,51.8-91.1,73.5c-67.1,45.3-137.8,85.3-211.2,119.3
		c-68.9,31.9-141.8,56.6-206.6,96.9c-14.4,9-28.2,18.7-41.4,29.3c-0.2,0.1-0.5,0.4-1,0.8c0,0,0,0-0.1,0.1c-0.6,0.5-1.2,1-1.8,1.5
		c-4,3.3-6.8,8.6-9.5,12.9c-1.3,2.2-2.9,4.4-3.7,6.8c0,0.1-0.1,0.4-0.2,0.7c-1.3,1.7-2.7,3.4-4.2,5c-2.6,2.9-5.3,5.8-8.1,8.5
		c0.7,1.6,1.4,3.2,2.2,4.9c5.7-7,11-14.3,15.9-21.9c47.4-37.5,102.5-62.6,157.9-86.2c-1.1,0.6-2.3,1.2-3.4,1.8
		c-22.1,11.8-43.9,24-65.6,36.6c-17.2,10-34.6,19.8-48.7,34c-12.5,12.5-22.3,27.8-30.8,43.3c-4.8,6.9-9,14-12.9,21.4
		c0.7,1.8,1.5,3.6,2.2,5.4c1.9-4.5,3.8-9.1,5.9-13.5c0.9-1.9,1.9-3.8,2.9-5.7c1.5-1.8,2.9-3.8,4.2-5.7c2-3,3.9-6.1,5.5-9.2
		c1-1.9,2-3.7,3-5.5c0.6-1.1,0.9-1.5,1.2-2c0.1-0.1,1-1.3,1-1.2c1.2-1.5,2.5-3,3.8-4.5c5.9-6.4,12.6-11.8,19.7-16.8
		c19.6-13.6,41-24.9,61.8-36.5c45.4-25.3,91.7-49.1,138.8-71.1c46.4-21.7,93.6-41.5,141.3-60.3c45.3-17.9,90.4-36.8,129.7-66.1
		c34.9-26,64.6-58.3,89.2-94.1c18.2-26.5,33.9-54.7,45.8-84.4c-1.6-1.9-3.2-3.8-4.8-5.7c-0.4,1.1-0.7,2.3-1.1,3.4
		c-6.4,19.6-14.5,38.7-24.4,56.8c-8.8,16.1-17.8,29.2-29.9,43.9c-13.1,15.9-27.7,30.7-43.4,44c-35.2,29.9-75.7,51.1-118.2,68.7
		c-29.5,12.3-59.3,23.9-88.8,36.1c27.8-15.4,55.2-31.6,82-48.8c17.6-11.3,35-22.9,52.2-34.9c16.6-11.6,33-23.4,48.2-36.8
		c16.3-14.3,31-30.2,42.9-48.4c10.6-16.2,21-34.7,18.3-54.8c-1-7.6-3.9-15.1-8.8-21.2c-5.5-6.9-12.9-10-21.1-12.7
		c-7.5-2.5-14.8-5.4-19.4-12.3c-3.4-5.2-4.8-11.3-5.6-17.4c-1.7-12.9,0-26.9-4.9-39.2c-2.3-5.7-6.4-10.5-12.1-13
		c-8-3.6-17-1.5-24.7,1.8c-9,3.9-16.7,10-24.4,16.1c-8.1,6.4-16.1,13-23.9,19.8c-16.1,13.8-32,28-48.6,41.3
		c-33,26.5-69.6,47.3-107.2,66.6c-38.4,19.7-77.1,39-117.2,55c-38.2,15.3-77.6,26.6-118,34.5
		C1484.8,1111.7,1412.9,1117.2,1343.3,1134.3z M1504.9,1371.3c2.8-4.7,5.8-10.5,9.9-14.3c0.3-0.3,0.7-0.5,1-0.8c1.8-1-1.6,5-2,5.6
		c-2.7,4.6-5.5,9.2-8.4,13.7c-1.8,1.4-3.6,2.9-5.5,4.4c-0.8,0.7-0.6-0.2-0.4-1c1-1.2,2-2.5,2.9-3.8c0.3-0.3,0.9-1.3,1.1-1.5
		c0.2-0.3,0.5-0.8,0.8-1.2C1504.3,1372.2,1505.2,1370.8,1504.9,1371.3z M1512.8,1412.4C1512.8,1412.4,1512.8,1412.4,1512.8,1412.4
		c-0.1,0.2-0.3,0.3-0.4,0.5c0.2-0.2-2.3,3.1-2.8,2.7c-0.6-0.4,1.4-3.9,1.3-3.7c1.2-2.3,2.5-4.7,3.8-7c2-2.9,4.1-5.7,6.2-8.4
		c3.1-3.9,3.3-2.5,1.5,1c-1.7,3.1-3.5,6.2-5.5,9.2C1515.7,1408.7,1514.3,1410.6,1512.8,1412.4z M2071,1031
		C2071,1031,2071,1031,2071,1031c0,0,0,0.1-0.1,0.1C2070.9,1031.1,2071,1031,2071,1031z M2070.9,1031.1
		C2070.9,1031.1,2070.9,1031.2,2070.9,1031.1C2070.9,1031.2,2070.9,1031.1,2070.9,1031.1z M2071,1031c0.2-0.3,0.3-0.6,0.4-0.6
		C2071.5,1030.2,2071.4,1030.4,2071,1031z M1527.1,1389.4C1527.1,1389.4,1527.1,1389.4,1527.1,1389.4
		C1527.1,1389.4,1527.1,1389.4,1527.1,1389.4z M1527.1,1389.4c-0.1,0.2-0.2,0.3-0.3,0.5C1526.7,1389.9,1526.8,1389.8,1527.1,1389.4z
		"/>
	<path class="accentcolor2" d="M2324.6,1073l-7.7-4.2c-15.8,13.5-31,27.5-45.9,42c-13.7,13.4-27,29.6-45.1,37.3c-7.4,3.1-20.3,6-27.5,0.6
		c-7.9-6-0.5-17.9,3.1-24.2c1.7-2.9,2.9-4.7,5-7.7c2.7-3.9,5.4-7.6,8.7-12c6.9-9.3,13.9-18.5,20.4-28.1
		c8.9-12.9,17.2-26.1,24.8-39.7c-0.9-0.5-1.8-1.1-2.8-1.7c-2.6,5-5.4,10-8.2,14.9c-4.6,7.9-9.4,15.3-14.3,22.3
		c-14.5,20.4-30.1,39.9-42.6,61.7c-2.8,4.9-5.5,9.9-7.9,15.1c-2.1,4.4-4.2,9.3-3.8,14.3c0.8,10.8,14.8,10.4,22.7,8.8
		c19.4-4,34.1-19.9,47.5-33.3c16-16,32.5-31.5,49.7-46.2C2308.6,1086.1,2316.5,1079.4,2324.6,1073z"/>
	<path class="accentcolor2" d="M1519.1,1469.4c1.3,3.4,2.6,6.9,3.9,10.3c2.5-9.8,5.7-19.4,9.6-28.7c8.6-20.7,21.5-37.4,37.9-52.7
		c79.7-74.9,192.5-89.1,293.1-118.7c50.1-14.7,98-34.8,141.3-64.3c39.9-27.3,75.3-61.1,104.8-99.3c31.6-41,57.4-86.1,75.6-134.5
		c-1.8-1.6-3.6-3.1-5.4-4.7c-9.7,28.1-20.3,55.9-34.9,82c-47.8,85.3-131.2,150.2-222.1,184.1c-102.5,38.2-217.3,45.4-309.1,109.5
		C1572.3,1381.4,1538.4,1422.5,1519.1,1469.4z"/>
	<path class="accentcolor2" d="M1533.6,1509.1c1.6,4.6,3.2,9.3,4.8,13.9c2.1-9.5,4.6-18.9,7.4-28.2c3.5-11.6,7.7-23,13.2-33.8
		c4.2-8.3,9.8-15.1,16.3-21.7c33.6-33.6,81.5-48.4,126-61.1c52.4-15,105.7-27.5,157-46.2c83.3-30.3,158.2-79.3,221.2-141.6
		c54.3-53.7,100.1-116.8,135.9-184.5c-1-0.8-2-1.6-3.1-2.4c-5.8,11.6-11.9,23.1-18.4,34.4c-20.6,35.8-45.2,69.6-73.2,101.2
		c-58.7,66-130.6,120.6-211.6,156.3c-50,22.1-103,36.1-155.6,50.4c-47,12.8-96.9,24.3-138.4,50.9
		C1575.3,1422.4,1548.4,1464.6,1533.6,1509.1z"/>
	<path class="accentcolor2" d="M1561.2,1594.8l0.9,3c0.3,1.1,1,2,2,2.5c6.4-16.5,14.3-32.3,23.8-47.1c25.5-40.1,62.4-73,101.6-99.4
		c41.6-28,87.6-49,135.1-64.7c50.9-16.7,103.6-27.8,153.4-47.8c49.8-20,93.3-51.6,139.9-77.6c48.4-27.1,100.9-45.6,150.7-70.1
		c45.8-22.5,88.1-50.7,128.1-82c-3-1.5-5.9-3.1-8.9-4.6c-27.5,20.3-56.3,38.9-86.5,55.1c-47.8,25.6-99,43.8-147.4,68
		c-47.3,23.7-89.9,55.6-137.6,78.6c-48.6,23.5-101.5,35.5-153,50.8c-47.4,14.1-93.5,32.2-136.2,57.3
		c-41.8,24.5-79.7,55.4-110.7,92.7C1594.8,1535.6,1575.8,1564.3,1561.2,1594.8z"/>
	<path class="accentcolor2" d="M1593.5,1600.7l3.2,0c1.1-1.6,2.2-3.2,3.4-4.7c15.8-20.9,35.2-39.2,55.6-55.7c41.5-33.6,89-59.1,137.9-80
		c104.6-44.7,217-68.3,320.3-116.2c52.2-24.2,100-55.7,145.1-91.4c44.8-35.4,86.9-74,130.2-111.3c8.2-7,16.4-14,24.7-21
		c-2.5-1.3-5.1-2.6-7.6-3.9c-80.7,69.3-158.1,144.2-253.4,193.5c-100.8,52.1-212.6,76.2-317.8,117.3
		C1741.9,1463.8,1649.6,1515.8,1593.5,1600.7z"/>
	<path class="accentcolor2" d="M2062.6,49c-3.9,0.1-7.8,0.2-11.7,0.2c-19.9,20.2-38.9,41.3-56.2,63.9c-26.3,34.3-49.6,71.5-66.3,111.5
		c-7.8,18.7-14.2,37.9-21.7,56.7c-3.5,8.9-7.3,17.7-11.7,26.2c-1,2-1.9,3.6-3,5.5c-0.2,0.4-0.3,0.6-0.5,0.8c0,0,0,0,0,0.1
		c-0.1,0.2-0.3,0.4-0.5,0.8c-0.1,0.1-1,1.5-1.3,2c0,0,0,0,0,0c0,0,0,0,0,0c-0.3,0.5-0.9,1.3-1.1,1.6c0,0,0,0,0,0c0,0,0,0,0,0
		c0,0,0,0,0,0l0,0c0,0,0,0,0,0c0,0,0,0,0,0c-1.4,1.9-2.7,3.6-4.3,5.5c-26.7,31.3-67.9,50.4-107.6,58.5c-21.1,4.3-42.9,5.5-64.3,3
		c-20.4-2.3-41.3-7.6-58.9-18.5c-32.8-20.2-48.3-59.7-58.4-95.1c-9.9-34.7-13.7-70.9-11.9-106.9c1.8-35.7,9-71.4,21.5-104.9
		c0.4-1.1,0.8-2.2,1.3-3.3c-1.9,0-3.8,0.1-5.8,0.1c-12.5,27.6-21.5,56.8-26.6,86.6c-6.2,35.9-6.8,72.8-1.5,108.8
		c2.7,18.1,6.8,36,12.5,53.3c6.1,18.5,13.6,36.9,24.4,53.1c11.6,17.3,27.3,30.3,46.6,38.1c19.9,8.1,41.8,11.4,63.2,11.6
		c42.8,0.4,86.6-12.7,122.1-36.7c37.7-25.5,62.1-66,78.7-107.5c7.7-19.2,14.2-38.8,22.1-57.9c3.8-9.1,8-18.1,12.5-26.8
		c2.2-4.2,4.2-7.8,6.6-12c0.6-1.1,1.3-2.2,1.9-3.3c0.2-0.4,0.4-0.6,0.5-0.8c0.1-0.1,0.1-0.2,0.1-0.2c0,0,0,0,0,0
		c0.1-0.1,0.2-0.3,0.3-0.5c1.3-2.2,2.6-4.3,3.9-6.4c0.1-0.2,0.2-0.3,0.2-0.4c0.1-0.1,0.2-0.3,0.2-0.4c0-0.1,0.1-0.2,0.2-0.3
		c0.1-0.1,0.1-0.2,0.2-0.3c0.7-1.1,1.4-2.1,2-3.2c0.5-0.8,1-1.6,1.6-2.4c0,0,0,0,0,0c0,0,0,0,0,0c0,0,0.1-0.1,0.1-0.1c0,0,0,0,0,0
		c0,0,0.1-0.1,0.1-0.1c0.4-0.6,1.1-1.7,1.2-1.8c1.4-2.1,2.8-4.1,4.3-6.2c0.2-0.3,0.4-0.6,0.5-0.8c0,0,0,0,0,0c0-0.1,0.1-0.1,0.2-0.3
		c0.1-0.1,0.2-0.3,0.4-0.5c0.7-1,1.5-2,2.2-3.1c5.7-7.8,11.5-15.2,17.7-22.8c12.8-15.5,26.4-30.2,40.5-44.5c5.5-5.5,11-11,16.6-16.4
		c-10.1,14.2-19.7,28.8-28.7,43.7c-24.9,41.3-43.8,85.5-62.5,129.8c-9.2,21.9-18.5,43.8-29,65c-4.6,9.3-9.3,18.2-14.3,27
		c-0.6,1.1-1.3,2.2-1.9,3.3c-0.1,0.1-0.2,0.3-0.2,0.4c0,0,0,0,0,0c0,0,0,0,0,0c-0.1,0.1-0.1,0.1-0.1,0.2c0,0,0,0,0,0v0c0,0,0,0,0,0
		c0,0,0,0,0,0c0,0,0,0,0,0c-0.2,0.4-0.4,0.7-0.7,1.1c-1.3,2.2-2.6,4.3-4,6.5c0,0,0,0,0,0c0,0,0,0,0,0c0,0,0,0,0,0
		c-0.2,0.3-1,1.6-1.2,1.9c-0.7,1.1-1.4,2.2-2.1,3.2c-0.2,0.2-0.6,1-1,1.4c-0.1,0.1-0.1,0.2-0.2,0.3c0,0,0,0,0,0.1
		c-0.1,0.1-0.1,0.1-0.1,0.2c0,0,0,0,0,0c0,0,0,0,0,0c-0.7,1-1.4,2.1-2.1,3.1c-0.4,0.5-0.7,1-1.1,1.6l-0.4,0.6c0,0,0,0.1-0.2,0.2
		c0,0,0,0-0.1,0.1c0,0.1-0.1,0.1-0.1,0.1c0,0,0,0,0,0l0,0c0,0,0,0,0,0l0,0l-0.4,0.6c-0.4,0.5-0.8,1-1.1,1.5
		c-1.4,1.9-2.8,3.9-4.1,5.5c-3.1,4-6.2,7.9-9.5,11.7c-6.9,7.9-14.2,15.5-22,22.5c-15.7,14.1-33.1,25.9-52,35.2
		c-38.2,18.7-81.1,26.6-123.5,26.6c-21.1,0-42.3-1.9-63.1-5.7c-10-1.8-20.3-4.3-28.6-10.3c-8.4-6.1-13-15.4-15.6-25.2
		c-3-11-4.3-22.6-6.1-33.8c-2.1-12.5-4.1-25.1-6.1-37.7c-4-25.1-7.7-50.3-10.9-75.5c-6.1-47.8-11.9-96.8-5.6-144.9
		c2.5-19.2,7.2-38.2,14.8-56c-1.6,0-3.3,0-4.9,0.1c-4.1,8-7.9,16.3-11.1,24.7c-17.1,44.7-17.4,93.1-13.5,140.2
		c4.2,51.5,12.1,102.6,20.3,153.6c2,12.6,4.1,25.2,6.2,37.8c1.7,10.1,3.8,20.7,9.6,29.4c11.9,17.9,37.3,19.9,56.7,22.4
		c42.7,5.3,86.7,3.3,128.1-8.8c41.4-12.1,78-34.4,107.7-65.7c32.4-34,57.4-75.4,77.9-117.5c21.8-44.8,38.9-91.7,60.2-136.7
		c4.8-10.1,10-20.4,15.3-29.9c1.2-2.2,2.5-4.4,3.7-6.6c0.6-1.1,1.3-2.2,1.9-3.3c0.2-0.3,1-1.7,1.3-2.2c0,0,0,0,0-0.1
		c0,0,0-0.1,0.1-0.1c0,0,0,0,0,0v0c0-0.1,0.1-0.1,0.1-0.1c1.2-2.1,2.5-4.2,3.8-6.2c0.8-1.2,1.5-2.5,2.3-3.7c0,0,0,0,0-0.1
		c0-0.1,0.1-0.1,0.1-0.1c0,0,0.1-0.1,0.1-0.1c0,0,0,0,0,0c0,0,0,0,0,0v0c0,0,0.1-0.1,0.1-0.1c0,0,0,0,0,0c0,0,0,0,0,0c0,0,0,0,0,0
		c0,0,0,0,0,0c0,0,0,0,0,0c0.3-0.4,0.6-0.9,0.9-1.3c1.4-2.1,2.8-4.3,4.1-6.4c0.2-0.2,0.6-1,1-1.4c0.1-0.1,0.2-0.3,0.2-0.4v0
		c0,0,0,0,0-0.1v0c0.7-1,1.4-2.1,2.1-3.1c1.4-2.1,2.9-4.2,4.3-6.3c0.1-0.1,0.5-0.7,0.8-1.1c0,0,0,0,0,0c0,0,0,0,0,0c0,0,0,0,0,0
		c0.1-0.1,0.2-0.2,0.3-0.4c0.2-0.3,0.4-0.6,0.4-0.6c0.9-1.2,1.7-2.4,2.6-3.6C2057.4,55.8,2060,52.4,2062.6,49z M1905.9,342.8
		C1905.9,342.8,1905.9,342.8,1905.9,342.8C1905.9,342.8,1905.9,342.8,1905.9,342.8z"/>
	<path class="accentcolor2" d="M2050.1,49.2c-3.9,0.1-7.8,0.2-11.6,0.2c-4,3.6-8.1,7.1-12.1,10.7c-24.5,22.3-46.3,46.5-63.6,74.9
		c-20.1,33-31.9,69.6-48.3,104.4c-1.5,3.2-3.1,6.4-4.8,9.6c-0.8,1.4-1.7,3.2-2.2,4.1c-0.5,0.9-1,1.8-1.5,2.7c0,0-0.7,1.1-1,1.7
		c0,0-0.1,0.1-0.1,0.1c0,0,0,0,0,0c0,0.1-0.1,0.1-0.1,0.1c0,0,0,0,0,0c0,0,0,0,0,0l0,0v0c0,0,0,0,0,0c-0.4,0.8-0.9,1.5-1.4,2.2
		c0,0,0,0,0,0c0,0,0,0.1-0.1,0.1c0,0,0,0,0,0.1c0,0,0,0.1,0,0.1v0c-0.1,0.1-0.1,0.2-0.2,0.3c0,0-0.7,1.1-1.1,1.6
		c0,0-0.1,0.1-0.1,0.2c0,0,0,0.1-0.1,0.1c-0.2,0.3-0.4,0.6-0.6,0.8c0,0,0,0.1-0.1,0.1c0,0,0,0,0,0c-0.3,0.3-1.6,2.3-1.8,2.6
		c0,0,0,0,0,0c-1.4,1.9-2.9,3.8-4.5,5.6c-10.3,11.9-22.7,22.1-36.9,29c-17.4,8.4-36.8,11.5-55.8,13c-18.1,1.4-36.5,1.9-54.6-0.4
		c-17.4-2.2-34.7-7-49.9-16c-13.9-8.2-25.7-19.7-35-32.8c-21.2-29.9-28.8-66.8-28.7-103c0.1-35.4,5.9-71.3,16.2-105.2
		c-2.4,0-4.9,0.1-7.3,0.1c-9.9,26.3-16.3,54-20,81.8c-5.1,39.1-5.5,80.6,9.3,117.7c12.8,32.3,36.9,59.9,70.1,71.9
		c17.8,6.4,36.9,8.6,55.7,8.8c19.4,0.2,39.4-1,58.4-5c18-3.8,34.8-11.1,49.2-22.6c15.2-12.2,27.2-27.8,37.9-43.9
		c11-16.5,20.3-33.9,28.3-52c8-17.9,14.9-36.3,22.8-54.2c3.8-8.5,7.8-17,12.4-25.1c1.1-1.9,1.2-2.2,2.2-3.7c0,0,0,0,0,0c0,0,0,0,0,0
		c0.2-0.2,1-1.5,1.3-2.1c0,0,0,0,0,0c0,0,0.1-0.1,0.1-0.1c0,0,0,0,0,0c0.1-0.1,0.1-0.2,0.2-0.3c0.1-0.2,1.1-1.5,1.2-1.7c0,0,0,0,0,0
		c0,0,0,0,0,0c0.2-0.3,0.4-0.6,0.6-0.9c1.7-2.4,1.5-2,3.2-4.2c9.1-11.6,19.5-22.2,30.3-32.3C2020.2,75,2035.3,62.3,2050.1,49.2z"/>
	<path class="accentcolor2" d="M2093.8,551.8c-0.2-7.4-0.4-14.9-0.5-22.4c-9.4-0.6-19.2-2.2-26.6-7.9c-4.9-3.8-7.9-9.5-8-15.8
		c0-3,0.5-6,1.5-8.8c0.4-1.3,1-2.6,1.5-3.9c0.1-0.2,0.1-0.3,0.2-0.4l0.4-0.6c1.2-1.6,2.3-3.2,3.5-4.8c2.5-3.4,4.9-6.8,7.4-10.2
		c4.7-6.4,9.3-12.8,14-19.1c2.2-3,4.4-5.9,6.6-8.9c0.1-1.8,0.1-3.6,0.2-5.4c-3.9,5.2-7.7,10.5-11.6,15.8
		c-10.8,14.8-22.4,29.5-31,45.7c-6,11.2-11.3,26.2-0.8,36.5c8.7,8.5,22.5,9.3,33.9,9.9C2087.6,551.6,2090.7,551.7,2093.8,551.8z"/>
	<path class="accentcolor2" d="M2379.4,87.4l10.9-6.3c11.9-14,23.8-27.9,35.8-41.8c-1.9,0.1-3.9,0.2-5.8,0.2c-9.9,11.6-19.8,23.2-29.7,34.8
		C2386.8,78.7,2383.1,83,2379.4,87.4z"/>
	<path class="accentcolor2" d="M1964.6,50.9c-1,0-2.1,0-3.1,0.1c-9.7,15.6-19.4,30.7-31.1,46.1c-13.2,17.3-28.1,33.5-45,47.2
		c-32.5,26.2-74.8,43.4-117,38.2c-19.6-2.4-41-9.6-53.7-25.5c-12.6-15.8-13.9-36.9-11.5-56.2c1.9-15.3,5.6-30.5,9.9-45.5
		c-2.7,0-5.4,0.1-8.1,0.1c-5.2,16.8-9.9,33.8-13.5,51c-3.9,19-6.1,40,1.1,58.5c7.8,19.9,26.4,31.1,46.3,36.4
		c41.2,11,85.5-2.2,120-25.6c38.4-26,66.7-64.6,91.9-102.9C1955.3,65.5,1960,58.2,1964.6,50.9z"/>
	<path class="accentcolor2" d="M2155.5,47.1c-1.6,0-3.2,0.1-4.7,0.1c-36.4,46.5-68.9,96.1-97.2,148c-24.9,45.5-47.2,92.4-73.1,137.4
		c-3.4,5.9-5.5,9.6-8.7,14.9c-1.6,2.6-3.2,5.2-4.8,7.8c-0.5,0.7-0.9,1.5-1.4,2.2c0,0-0.1,0.2-0.2,0.4c0,0,0,0,0,0c0,0,0,0,0,0
		c0,0,0,0,0,0c0,0,0,0,0,0c0,0,0,0,0,0.1c0,0-0.1,0.1-0.1,0.1c0,0,0,0.1-0.1,0.1c0,0,0,0,0,0c0,0.1-0.1,0.1-0.1,0.2
		c0,0,0,0.1-0.1,0.1c0,0,0,0,0,0c-0.3,0.4-0.6,0.9-0.6,1c-0.6,0.9-1.2,1.8-1.8,2.7c-1.5,2.4-3.1,4.7-4.6,7.1c0,0,0,0,0,0
		c0,0,0,0.1-0.1,0.1v0c0,0.1-0.1,0.1-0.2,0.3c-0.3,0.5-0.9,1.3-1.1,1.6c-1.1,1.6-2.2,3.2-3.3,4.8c-3.4,4.9-5.9,8.4-9.9,13.7
		c-14.6,19.4-31.2,38-49.6,54.3c-44.2,39.2-98.9,62.2-152.3,85.8c-57.5,25.5-117,49.3-180.3,54.8c-30.8,2.7-62.2,1-92.2-7
		c-12.9-3.5-26.5-8-35.9-18c-8.8-9.4-12.6-22.6-12.8-35.3c-0.2-14.4,4.2-28.3,9.3-41.6c5.5-14,11.3-27.8,15.8-42.2
		c8.7-28.2,13.5-57.4,16.2-86.8c5.6-59.8,3.2-120.1,9.3-179.9c4.1-39.6,12.7-78.7,27.3-115.6c-1.9,0-3.7,0.1-5.6,0.1
		c-10.9,24-19.7,49-25.8,74.8c-14.2,59.5-13.7,121-15.8,181.8c-1.1,30.2-2.8,60.4-7.3,90.3c-4.5,30-12.5,58.8-23.9,86.9
		c-10,24.6-20.8,53.7-7.7,79.3c6.4,12.5,18.1,19.7,31,24.3c14.5,5.1,29.8,8.1,45,9.9c62.9,7.5,125.6-8.4,183.9-30.9
		c29.8-11.5,58.8-24.6,87.9-37.7c28-12.6,56.1-25.6,82-42.3c45.3-29.1,81.1-69.8,111.3-113.9c31-45.2,56.3-93.9,81.5-142.5
		c11.8-22.9,23.7-45.8,36.3-68.2c7-12.3,13.8-23.9,21.5-36c0,0,0,0,0,0c0,0,0,0,0-0.1c0.3-0.4,1.6-2.5,1.8-2.8
		c0.9-1.5,1.9-2.9,2.8-4.4c2.1-3.3,4.3-6.6,6.5-9.9c0-0.1,0.3-0.5,0.6-0.9v0c0,0,0-0.1,0.1-0.1c0,0,0,0,0,0c0,0,0,0,0-0.1
		c0,0,0,0,0,0c0,0,0,0,0-0.1c0-0.1,0.1-0.1,0.1-0.1c0.4-0.5,0.9-1.4,1-1.4c1-1.4,1.9-2.9,2.9-4.3c2.2-3.3,4.5-6.5,6.7-9.8
		C2127.6,82.3,2141.2,64.5,2155.5,47.1z"/>
	<path class="accentcolor2" d="M2098.5,48.3c-1,0-2.1,0-3.1,0.1c-20.5,32.8-38.8,67-55.8,101.7c-22.3,45.4-42.9,91.7-65.8,136.9
		c-11.1,21.9-23.1,44.2-35.4,64.4c-6,9.8-11.5,18.4-18,27.8c-3.2,4.7-5.6,8-9.4,13.1c-3.3,4.4-6.8,8.7-10.3,13
		c-15.2,18-32.7,33.9-52.7,46.3c-21.3,13.1-44.7,22.6-68.4,30.5c-48.1,15.9-98.9,23.8-149.6,23.4c-25.2-0.2-50.5-2.3-75.3-6.7
		c-9.6-1.7-19.6-4.1-27.6-9.9c-9.3-6.7-12.3-16.9-12.3-28c0-27.1,1.6-54.4,2.5-81.5c0.9-27.5,1.7-55,2.6-82.5
		c1.6-52.7,2.2-105.9,11.5-158c4.6-25.5,11.5-50.5,20.8-74.7c0.8-2.1,1.6-4.2,2.5-6.3c-1.9,0-3.9,0.1-5.8,0.1
		c-8.6,20.1-16.5,40.5-22.5,61.6c-14.6,51.1-17.6,104.5-19.4,157.3c-1.9,55-3.4,109.9-5.1,164.9c-0.4,13.5-1.3,27-1.2,40.5
		c0.1,10.8,2.6,21,11.5,27.9c7.8,6,17.8,8.6,27.4,10.3c12.1,2.2,24.4,3.8,36.7,4.9c51,4.7,102.7,1,152.4-10.9
		c47.3-11.3,96.3-28.9,133.4-61.3c18.5-16.1,34.3-35.1,48.6-54.9c16.1-22.2,30.7-45.3,44.5-69c25.9-44.7,47.9-91.5,69.9-138.3
		c20.4-43.4,40.9-86.8,65.1-128.2c2.2-3.7,5.3-8.9,8.2-13.6C2098.2,48.7,2098.3,48.5,2098.5,48.3z"/>
	<path class="accentcolor2" d="M1849.6,53c-4.7,0.1-9.4,0.2-14.1,0.2c3.9,0.1,7.7,0,11.4-0.1C1847.8,53,1848.7,53,1849.6,53z"/>
	<path class="accentcolor2" d="M1914.1,51.8c-1.6,0-3.2,0.1-4.8,0.1c-10.9,13.1-22.3,25.7-35.4,36.3c-20.9,16.9-48.7,28.8-75.9,22.2
		c-11.7-2.8-23.1-9.4-29.5-19.8c-6.6-10.6-7.3-24-6.8-36.3c-4,0.1-8,0.1-12,0.2c-2,11-2.8,22.2-2,33.4c0.9,14,5.3,26.8,16.9,35.4
		c23.7,17.5,56.6,11.1,80.4-2.8c26.7-15.6,46-41.1,65.5-64.4C1911.6,54.8,1912.9,53.3,1914.1,51.8z"/>
	<path class="accentcolor2" d="M1994.2,50.3c-1.6,0-3.1,0.1-4.7,0.1c-14.5,18.8-27.9,38.5-40.3,58.7c-15.6,25.4-28.6,51.8-41.4,78.6
		c-2.7,5.6-5.7,11.6-8.4,16.4c-0.1,0.1-0.3,0.5-0.4,0.8c0,0,0,0.1,0,0.1c0,0,0,0,0,0.1c0,0,0,0,0,0c0,0,0,0,0,0.1c0,0,0,0,0,0.1
		c-0.2,0.4-0.5,0.7-0.7,1.1c0.1-0.3,0.2-0.4,0.2-0.4c-0.1,0-1.6,2.4-1,1.6c0,0-0.1,0.1-0.1,0.1c-0.2,0.2-0.3,0.4-0.4,0.5
		c0,0,0,0,0,0c0,0,0,0.1-0.1,0.1c0,0,0,0.1-0.1,0.1c0,0,0,0,0,0c-0.9,1.2-1.9,2.4-2.9,3.5c-9.2,10.4-21.1,18.2-34.3,22.7
		c-26.8,9.1-56.2,6.5-83.8,4.1c-26.4-2.3-55-5.6-76.9-21.9c-21.8-16.2-30.8-42.8-32.8-69c-2.2-28.3,2.4-57.6,10-84.8
		c0.7-2.4,1.4-4.8,2.1-7.2c-2.3,0-4.7,0.1-7,0.1c-9.6,24.9-16,50.9-18.6,77.6c-2.6,26.6-1.8,55.5,10.8,79.7
		c13.3,25.7,38.8,38,66.2,43.2c14,2.7,28.3,3.8,42.5,4.9c14.5,1.1,29.2,1.9,43.7,0.8c13.9-1.1,27.8-4,40.3-10.1
		c13-6.3,23.6-16.2,32.5-27.6c10.9-14,20.1-29.4,28-45.3c6.4-12.9,12.1-26,18.6-38.8c6.3-12.5,13-24.3,19.6-35.1
		c0.9-1.4,1.8-2.9,2.7-4.3v0c0,0,0,0,0,0c0,0,0,0,0,0c0,0,0,0,0-0.1c0,0,0,0,0-0.1c0,0,0-0.1,0.1-0.1c0,0,0-0.1,0.1-0.1
		c0.5-0.8,1.5-2.3,1.6-2.6c0.9-1.4,1.8-2.8,2.7-4.2c0.5-0.7,0.9-1.4,1.4-2.1c0.1-0.2,0.2-0.4,0.3-0.5h0c0,0,0,0,0,0c0,0,0,0,0,0
		c0,0,0,0,0,0c0,0,0-0.1,0.1-0.1c0-0.1,0.1-0.1,0.1-0.1c0,0,0-0.1,0.1-0.1c0,0,0,0,0,0c0,0,0,0,0,0c0.1-0.1,0.2-0.2,0.3-0.4
		c4.4-6.5,7.5-10.9,11.6-16.5C1981.7,65.8,1987.8,58,1994.2,50.3z"/>
	<path class="accentcolor2" d="M703.5,420.1"/>
	<path class="accentcolor2" d="M703.5,420.1"/>
	<path class="accentcolor2" d="M1172.8,336.2c3.8-6.6,8-14.1,7.7-21.7c-0.2-5.8-4-12.6-10.4-13.1c-7.1-0.5-13.1,6.1-17.3,11
		c-7,8.2-13,17.4-18.1,26.9c-6.6,12.4-10.2,25.9-13.9,39.4c-1.8,6.6-3.6,13.2-6.2,19.5c-1.1,2.8-2.3,5.5-3.7,8.1
		c-0.9,1.7-1.6,2.7-2.9,4.8c-0.1,0.2-0.4,0.5-0.5,0.8c-0.3,0.4-0.6,0.9-0.9,1.3c-0.9,1.3-1.8,2.6-2.7,3.9c-2.6,3.7-5.1,7.5-7.6,11.2
		c-4.9,7.4-9.6,15-13.7,22.9c-3.3,6.4-6.2,13.1-7.9,20.1c-1.4,5.7-3.5,14.7,1.6,19.1c5.1,4.3,13.8,4.2,19.9,3.2
		c7.1-1.2,13.9-4.2,19.7-8.3c6.9-4.8,12.4-11.3,17.3-18c6.5-8.7,12.3-18.1,17-27.9C1165.7,407.8,1172.7,371.5,1172.8,336.2z
		 M1137.5,456.4c0,0,0.1-0.1,0.1-0.1c0.5-0.6,0.9-1.8,0.7-0.8c-0.2,0.7-2.7,4.6-1.3,1.8C1137.2,457.1,1137.3,456.8,1137.5,456.4z
		 M1137.5,456.4c-1.1,1.3-2.3,2.5-3.6,3.7c-9.3,8.5-22.3,13.8-35,11.8c-6.6-1-11.7-4.2-11.5-11.5c0.2-5.6,1.6-11.4,3.6-16.6
		c0.9-2.4,1.9-4.7,3.1-7c0.2-0.3,0.4-0.8,0.8-1.6c-0.1,0.1,0.5-0.8,0.6-1c0.1-0.2,0.2-0.3,0.2-0.4c0,0,0.1-0.1,0.1-0.1
		c0.8-1.2,1.5-2.3,2.3-3.5c-1.5,2.3,1.1-1.6,1.4-2.1c1.8-2.6,3.6-5.2,5.4-7.9c8.3-12.3,16.7-24.9,22.4-38.7
		c4.5-10.9,7.3-22.3,10.4-33.6c1.7-6.1,3.5-12.2,6-18c0.1-0.3,0.3-0.6,0.4-0.9c0.9-0.9,1.9-1.9,3-2.7c6-4.6,13.2-4.2,17.1,2.7
		c0.9,1.7,1.5,3.4,1.7,5.1c-1.8,2.6-3.5,5.3-5,8c-0.8,1.4-2.7,3.8-2.6,5.4c0.9,29.5-3.2,59.2-12.4,87.3c-2.1,6.4-4.4,12.8-7.3,19
		C1138.3,454.8,1137.9,455.6,1137.5,456.4z M1095.2,435c0,0,0-0.1,0.1-0.1C1095.3,434.9,1095.2,435,1095.2,435z M1095.2,435
		c-0.1,0.1-0.1,0.2-0.2,0.4C1095,435.3,1095.1,435.2,1095.2,435z M1095.3,434.9C1095.3,434.9,1095.3,434.9,1095.3,434.9
		C1095.3,434.9,1095.3,434.9,1095.3,434.9z M1095.3,434.9c0-0.1,0.1-0.1,0.1-0.2C1095.4,434.7,1095.3,434.8,1095.3,434.9z
		 M1095.9,433.9C1095.6,434.2,1095.7,434.1,1095.9,433.9C1096,433.6,1096.3,433.1,1095.9,433.9z M1144.3,329.1
		c-0.1,0.1-0.3,0.3-0.4,0.4c-0.6,0.6-2.1,2.8-1.1,1c0.6-1.1,1.7-3.4,2.7-4.2c0,0,0,0.1,0,0.1
		C1145.2,327.4,1144.7,328.2,1144.3,329.1z M1145.6,326.3C1146,325.4,1145.7,326.2,1145.6,326.3
		C1145.6,326.3,1145.6,326.3,1145.6,326.3z M1166.1,334.3c0.1-0.2,0.2-0.3,0.3-0.5c1.4-2,3-4.5,4.7-6.2c0.5-0.4,1.5-1.8,1.5-0.6
		c0.1,3,0.1,6.1,0.1,9.1c-0.4,0.8-0.9,1.5-1.3,2.3c-2.8,4.9-6,10.7-10.1,14.7c-3.6,3.5,0.7-4.2,1-4.9
		C1165,343.9,1166.7,339.1,1166.1,334.3z M1107.5,411.9c0.2-0.2,0.3-0.4,0.5-0.7C1107.2,412.4,1107.3,412.3,1107.5,411.9z"/>
	<path class="accentcolor2" d="M1284,61.6c-1.1,0-2.1,0-3.2,0c-11.4,18.5-22,37.5-30.1,57.7c-9.2,23-15.4,47.1-21.2,71.2
		c-12,50.2-25.7,99.8-41.6,149c-15.8,49-32.5,97.8-50.5,146.1c-2,5.4-4.1,10.7-6.5,15.9c-1,2.2-2.1,4.3-3.1,6.4
		c0,0.1-0.1,0.1-0.1,0.2c-6.5,7.3-14,13.6-23.1,17.6c-17.5,7.7-37.5,4.4-50.4-10c-11.2-12.6-16-30.5-15.1-47.1
		c0.5-9.4,3.1-18.5,7-27.1c0.7-1.6,1.7-3.6,2.3-4.7c0.2-0.4,0.5-0.9,0.7-1.3c0-0.1,0.1-0.1,0.1-0.2c0,0,0,0,0-0.1v0
		c0,0,0-0.1,0.1-0.1c0.1-0.2,0.3-0.4,0.4-0.7c0,0,0,0,0,0c0,0,0,0,0,0c0,0,0-0.1,0.1-0.1c0.1-0.2,0.3-0.4,0.4-0.6c0,0,0,0,0,0
		c0,0,0,0,0,0c0.3-0.4,0.7-1,0.9-1.3c0,0,0.1-0.1,0.1-0.1c0,0,0,0,0,0c0,0,0,0,0,0c0.2-0.3,0.5-0.7,0.5-0.7c0.4-0.5,0.8-1,1.1-1.5
		c1.6-2.1,2.9-3.8,4.6-5.9c13.9-17.4,29-33.8,42.3-51.6c14.2-19,27.2-38.9,39.3-59.4c22.4-37.9,41.2-77.6,58.7-117.9
		c17.2-39.7,33.2-79.9,50.7-119.4c2-4.5,4-9,6-13.5c-1.7,0-3.3,0-5,0.1c-18,38.3-34,77.5-50.4,116.6
		c-17.2,40.9-34.8,81.8-55.9,120.8c-2.2,4-4.9,8.9-7.4,13.3c-3,5.3-4.2,7.3-7.2,12.2c-1.4,2.3-2.8,4.5-4.2,6.8
		c-0.1,0.2-0.2,0.3-0.3,0.4c0,0,0,0,0,0c0,0,0,0,0,0.1c0,0,0,0,0,0c-0.3,0.4-0.5,0.8-0.8,1.2c-0.8,1.2-1.6,2.4-2.3,3.6
		c-0.8,1.2-1.6,2.4-2.4,3.6c-0.2,0.2-0.5,0.8-0.8,1.2c0,0,0,0,0,0c0,0-0.1,0.1-0.1,0.1c0,0,0,0,0,0c0,0,0,0.1-0.1,0.1
		c0,0,0,0.1-0.1,0.1c0,0,0,0,0,0.1c-0.1,0.1-0.1,0.1-0.1,0.2c0,0,0,0,0,0.1c0,0,0,0,0,0c-1.5,2.2-2.9,4.3-4.4,6.4
		c-0.5,0.7-0.9,1.3-1.4,2c0,0-0.3,0.4-0.5,0.7c0,0,0,0,0,0.1v0c0,0,0,0,0,0v0c0,0,0,0,0,0.1c0,0,0,0,0,0c0,0-0.1,0.1-0.1,0.1v0
		c0,0,0,0,0,0c-0.4,0.5-1.2,1.6-1.4,2c-1.7,2.3-3.4,4.6-5.1,6.9c-2.9,3.8-6.1,8-9.4,12c-7.2,8.9-14.7,17.4-22.1,26.1
		c-16.8,20-33.4,42.1-42.7,66.7c-6.5,17.2-7.4,35.9-0.9,53.4c5.9,15.8,18.3,29.3,35.6,31.9c22.9,3.5,43-11.9,56.1-29
		c9.3-12.1,17.2-25.4,23.5-39.4c5-11.1,8.9-22.6,12.9-34c9-25.5,18.1-50.9,26.8-76.5c17.4-50.8,33.9-102,47.6-154
		c12.7-48.2,20.7-99.6,44.6-143.4c1.3-2.4,2.6-4.7,4-7c0.6-1.1,1.2-2.2,1.9-3.2c0,0,0-0.1,0.1-0.1c0,0,0,0,0-0.1
		c0,0,0.1-0.1,0.1-0.2c0-0.1,0.1-0.1,0.1-0.2c0,0,0,0,0,0h0c0,0,0,0,0,0c0,0,0,0,0,0v0h0v0c0,0,0,0,0,0c0.4-0.7,0.8-1.4,1.3-2.1
		C1283.9,61.7,1283.9,61.6,1284,61.6z"/>
	<path class="accentcolor2" d="M2212.8,45.9c-1.2,0-2.3,0.1-3.5,0.1c-8.6,12.1-17,24.4-25.3,36.7c-35.5,52.7-68.8,106.9-99.4,162.5
		c-15.1,27.5-29.7,55.3-43.5,83.5c-13.8,28-26.4,56.5-39.5,84.8c-5.3,11.5-10.4,21.7-18.3,30.9c-9.4,10.9-20.3,20.5-31.8,29.2
		c-24.4,18.4-51.5,33.3-79.3,45.9c-58.6,26.6-121.2,44.4-182.4,64.1c-32.5,10.4-64.9,21.2-97.5,31.3c-30.8,9.5-62,16.1-94.2,17.2
		c-31.6,1.1-63.4-2.5-93.9-10.7c-7.4-2-14.9-4.1-22.1-6.8c-5.8-2.2-10.6-5.9-12.9-11.8c-4.5-11.7,0.9-25.3,5.1-36.3
		c22.6-60.4,39.6-122.9,50.7-186.4c11.2-64.1,16.1-129.2,15.2-194.3c-0.4-33.5-1.7-67.2,3-100.5c1.2-8.7,2.9-17.4,5.1-26
		c-2.5,0-5.1,0.1-7.6,0.1c-7.9,21.5-12.2,44-13.9,67c-2.6,34.3-0.5,68.7-0.7,103c-0.2,33-2,66.1-5.3,98.9
		c-6.7,66-19.8,131.4-39.1,194.9c-4.8,15.8-9.9,31.5-15.5,47.1c-4.7,13.3-11.6,26.9-12.6,41.1c-0.4,5.3,0.1,11,2.7,15.7
		c3.4,6.1,9.6,8.6,15.9,10.7c15.3,5.1,30.9,9,46.8,11.7c32,5.4,64.8,6,97,1.7c33.5-4.6,65.5-15.5,97.6-25.8
		c33.5-10.8,66.9-21.5,100.4-32.3c30.8-9.9,61.6-19.6,92-30.7c29.6-10.8,58.8-22.9,86.5-38.1c26.5-14.5,52.2-31.5,73.2-53.4
		c24-24.9,40.2-55.6,54.2-86.9c12.9-28.7,26.2-57.2,40.4-85.4c27.9-55.4,58.7-110.1,91.6-162.2
		C2171.4,105.7,2191.7,75.5,2212.8,45.9z"/>
	<path class="accentcolor2" d="M2267,44.6c-1.2,0-2.4,0.1-3.6,0.1c-5.3,7.2-10.6,14.4-15.8,21.6c-22.7,31-45.1,62.2-65.6,94.7
		c-21.5,33.9-40.6,69.2-59.5,104.6c-34.3,64.4-68.2,128.7-118,182.7c-46.3,50.1-101.6,91.3-161.1,124.4
		c-60.7,33.7-125.8,59-192.6,77.6c-71.5,19.9-146.3,34.1-220.6,36c-39.9,1-80.1-2.1-119-11.7c-9-2.2-18.8-4.2-27.2-8.3
		c-9.4-4.6-9.6-12.4-7-21.6c5-17.2,13-33.4,22.5-48.6c20-32.2,42.8-62.2,60.3-95.9c17.4-33.6,30.7-69.4,39.1-106.3
		c8.6-37.6,12.1-76.3,10.4-114.8c-1.9-42-9.4-83.4-12.8-125.3c-2.5-31.2-2.5-63.1,3.9-93.9c-2.9,0-5.9,0.1-8.8,0.1
		c-2.4,7.5-4.4,15.2-5.9,22.9c-16.4,83.2,12.3,166.7,9.5,250.2c-2.6,77.1-25.9,153.8-68.9,218c-22,32.9-46.4,65.4-60,103
		c-2.7,7.6-7.8,18.2-4.7,26.3c3,7.8,13.4,9.9,20.5,11.9c20.1,5.9,40.8,10,61.6,12.5c79.7,9.7,161.4-2.2,239.3-19.5
		c69.3-15.4,137.4-37.6,201.6-67.9c63.9-30.2,124.2-68.9,176.1-117.1c57.2-53.1,101-117.3,138.8-185.2c19.7-35.3,38-71.4,57.6-106.8
		c18.6-33.5,39.1-65.6,61.2-96.8C2234.4,89,2250.7,66.9,2267,44.6z"/>
	<path class="accentcolor2" d="M2104.1,343.1c0.5-2.4,1.1-4.8,1.7-7.2c-23.4,36.2-46.8,72.3-71.4,107.6c-42.4,60.8-89.5,119.1-146.4,167
		c-67.4,56.7-148,96-233.2,118.1c-87,22.6-178.7,27.2-267.5,13.2c-21.8-3.4-43.4-8-64.7-13.7c-18.6-5-37.4-11.2-53.7-21.7
		c-16.8-10.9-29.2-26.5-34.9-45.9c-5.8-19.9-4.8-41.1-0.9-61.3c6.7-34,22.7-64.8,41.3-93.7c20.2-31.3,42.3-61.5,61-93.7
		c18.5-31.9,34-66.2,38.3-103.2c5.2-44.6-3.9-89.1-10.6-133c-5.8-38.1-9.8-77.3-1.5-115.1c-2.8,0-5.6,0.1-8.5,0.1
		c-3.5,10.1-6.1,20.5-7.8,31.1c-0.3,1.9-0.6,3.8-0.8,5.6c0.7-7.9,1.6-15.7,2.9-23.6c0.7-4.4,1.5-8.8,2.4-13.1
		c-3.1,0-6.2,0.1-9.3,0.1c-4.5,16.6-7.8,33.5-9.6,50.6c-3.3,30.9-2.5,62.1-2.4,93.2c0.1,31-0.2,62.2-6,92.7
		c-2.9,15.1-7,29.9-13.1,44.1c-2.7,6.3-5.7,12.4-8.9,18.4c-1.6,2.8-3.1,5.5-4.4,7.6c-0.5,0.8-1,1.6-1.5,2.4
		c-0.1,0.1-0.5,0.8-0.8,1.2c0,0,0,0,0,0.1c0,0,0,0-0.1,0.1l-0.2,0.3l-0.1,0.1l-0.4,0.6c-0.8,1.2-1.5,2.4-2.3,3.5
		c-0.1,0.1-0.5,0.8-0.7,1.1v0c0,0,0,0,0,0c0,0,0,0,0,0v0c0,0,0,0,0,0c-0.4,0.6-0.8,1.2-1.2,1.8c-0.9,1.4-1.8,2.7-2.8,4.1
		c-2.3,3.3-3.8,5.4-5.9,8.4c-4.4,6.1-8.9,12.2-13.4,18.2c-9.2,12.3-18.4,24.6-27.1,37.2c-18.3,26.5-35.5,54.7-45.5,85.6
		c-4.5,14-7.3,28.5-7.5,43.2c-0.3,15.1,2.2,30.1,4.9,44.9c2.9,15.6,6.4,31.3,7.2,47.2c0.4,7.7,0.2,15.5-1.1,23.1
		c-0.2,1.1-0.4,2.3-0.6,3.4c-12.8,6.1-29.6-5.1-40.1-11.6c-12.8-7.8-24.8-17-36.6-26.2c-24.3-18.8-49.3-35.7-77.2-48.7
		c-14.1-6.6-28.6-12.3-43.3-17.4c-14.3-4.9-29.2-8.7-42.6-15.8c-11.9-6.3-22.5-15.6-27.8-28.3c-2.6-6.3-3.7-13.1-2.5-19.8
		c0.3-1.7,0.7-3.5,1.3-5.2c0.3-0.8,0.9-1.7,1.1-2.5c0.5-0.6,1-1.3,1.5-1.9c21.2-27,42.4-53.9,63.7-80.9
		c21.2-26.9,42.6-53.7,61.6-82.2c18.9-28.4,34.3-58.6,48.6-89.4c14.2-30.6,28.2-61.2,42.3-91.9c16.6-36.2,34.1-72.4,49.2-109.4
		c-2.1,0-4.2,0.1-6.3,0.1c-11.1,29-24,57.3-36.9,85.5c-14.2,31-28.5,62-42.7,93c-13.5,29.5-26.4,59.5-42.2,87.8
		c-3.6,6.5-7.2,12.5-10.7,17.8c-3.6,5.6-7.5,11.2-11.7,17.1c-9.3,12.8-19,25.3-28.8,37.7c-21.2,26.9-42.4,53.9-63.6,80.8
		c-11.5,14.6-23.5,28.9-32.6,45.1c-7.1,12.5-11,25.6-5.5,39.4c11.5,28.6,44.6,35.7,70.7,44.6c29.4,10.1,58,23,84.2,39.8
		c25.5,16.3,47.7,37.2,73.6,52.9c11.3,6.8,27.3,17.3,40.7,10.8c7.5-3.6,12.5-12.3,16.8-19c4.2-6.7,8.1-13.7,10.1-21.5
		c7.4-29.6-3-61.1-7.6-90.3c-2.4-15.2-3.3-30.4-1.2-45.7c2-14.6,6.2-28.8,11.9-42.4c2.8-6.7,6-13.2,9.4-19.6
		c1.4-2.6,3.1-5.4,4.1-7.2c0.9-1.5,1.8-3,2.8-4.5c0,0,0,0,0,0c0,0,0-0.1,0.1-0.1c0.3-0.5,1.7-2.7,2-3.2c0.5-0.8,1-1.6,1.5-2.4
		c0.3-0.4,0.5-0.7,0.6-0.9c0,0,0-0.1,0.1-0.1c0,0,0,0,0-0.1c0,0,0,0,0,0c0,0,0,0,0,0c0,0,0,0,0,0c0,0,0,0,0,0c0,0,0-0.1,0-0.1
		c0,0,0,0,0-0.1c0,0,0,0,0,0c0,0,0,0,0,0c0,0,0,0,0,0c0,0,0,0,0,0c0.9-1.3,1.8-2.6,2.7-3.9c2.1-3,3.7-5.3,5.5-7.7
		c4.4-6.1,8.9-12.1,13.4-18.2c19.5-26,38.9-52.2,54.5-80.8c15-27.5,24.6-56.8,28.6-87.9c5.1-40.3,2.8-80.9,3.2-121.5
		c2.4,75.3,32.1,150.2,9.9,225.1c-10.2,34.5-29.3,65-49.3,94.6c-22,32.6-44.9,64.9-62.4,100.3c-16.6,33.4-29.2,71.7-24.1,109.4
		c2.8,20.9,12.1,40,28.4,53.7c15.3,12.8,34.4,20.3,53.3,26c88.3,26.3,184.2,30.7,275.1,17c92-13.9,182.8-47,259.5-100.1
		c64-44.3,117-102.2,163.9-164C2035.3,449.6,2069.7,396.3,2104.1,343.1z"/>
	<path class="accentcolor2" d="M2182.1,221.5c0.1-0.1,0.3-0.2,0.4-0.4c3.1-2.9,6.3-5.7,9.5-8.5c25-34.2,51.5-67.1,80.8-97.9
		c23.4-24.5,47.7-48.2,71.1-72.5c-2.5,0.1-5,0.2-7.5,0.2c-9.7,9.6-19.4,19.1-28.9,28.6C2261.2,117.7,2220.1,168.2,2182.1,221.5z"/>
	<path class="accentcolor2" d="M1142.6,63.5c-1.9,0-3.7,0.1-5.6,0.1c-22,51.2-42.6,103-67.8,152.8c-6.3,12.5-12.7,24.4-19.5,36.4
		c-3.7,6.4-5.8,10-9.8,16.5c-0.9,1.4-1.8,2.9-2.7,4.3c-0.1,0.1-0.3,0.5-0.5,0.8c0,0,0,0,0,0c0,0,0,0,0,0c0,0,0,0,0,0c0,0,0,0,0,0.1
		c0,0,0,0,0,0.1c0,0,0,0,0,0c0,0-0.1,0.1-0.1,0.2c0,0,0,0,0,0.1c0,0.1-0.1,0.1-0.1,0.2c0,0,0,0,0,0.1c0,0,0,0.1,0,0.1
		c-0.2,0.4-0.5,0.7-0.5,0.8c-1.9,3-3.9,6-5.9,9c-0.1,0.1-0.1,0.2-0.2,0.3c0,0,0,0,0,0c-0.1,0.1-0.1,0.2-0.2,0.2
		c0,0.1-0.1,0.1-0.1,0.2c-0.1,0.1-0.2,0.3-0.3,0.4c0,0,0,0,0,0c-0.3,0.4-0.6,0.8-0.8,1.2c-0.9,1.4-1.9,2.8-2.9,4.2
		c-1,1.4-1.9,2.8-2.9,4.1c-0.7,1-1.2,1.7-2.6,3.6c-3.9,5.4-7.7,10.3-11.7,15.5c-8.5,10.8-17.6,21.1-27.1,31
		c-19,19.7-40.2,36.5-62.5,52.3c-10.5,7.4-20.8,15-30,23.9c-11.7,11.2-21.2,24.9-28.8,39.1c-6.8,12.9-9.4,26.3-8.3,40.9
		c1.1,15.5,5.6,30.6,5.8,46.2c0.1,6.3-0.4,12.7-1.9,18.8c-0.1,0.5-0.3,1.1-0.6,1.7c-0.7,0.5-1.4,1-2.1,1.5c-12,7.9-27.6,9-41.6,9.4
		c-27,0.8-54.1-3.9-79.3-13.6c14.1,5,30.9,0.9,42.8-7.5c9.5-6.7,16.6-16.7,22.9-26.3c6.8-10.4,12.6-21.3,16.8-33
		c7.5-20.8,9.8-43.1,17.2-63.9c1.1-3.2,2.3-7.3,4.1-10.6c0.1-0.1,0.3-0.3,0.6-0.7c0.9-1.1,2.8-3.4,4.1-4.8
		c7-7.6,14.9-14.2,23.1-20.5c16.8-12.9,34.2-24.8,50.5-38.3c70.3-57.8,129.5-130.4,172-210.9c3.6-6.9,7.1-13.8,10.4-20.9
		c1.6-2.5,3.1-5.1,4.4-7.7c1.6-3.3,2.8-7.5-0.3-10.4c-4.7-4.4-8.6,3.9-10.8,7.1c-3.4,4.9-5,7.2-7.8,11.2
		c-10.8,14.7-23.7,29.8-36.8,43.6c-27.1,28.5-57.2,54-88.2,78.2c-62.8,49-129.7,93-188.3,147.2c-15.7,14.5-31.9,29.3-44.1,46.9
		c-7.9,11.4-14.9,23.4-16.7,37.3c-1.4,10.6-1.1,21.6-1,32.4c0.1,17.4,2.1,38.2,18.3,48.5c1.5,1,3.1,1.8,4.7,2.5c0,0,0,0,0,0
		c-2.7-1.1-5.4-2.2-8-3.4c-12-5.4-25-11.9-32.8-22.8c-9.3-13-6.3-29.2-4.6-44.1c1.8-15,3.9-30,7.8-44.7c1.9-7.1,4.2-14.1,7.1-20.9
		c1.1-2.7,2.4-5.3,3.8-7.9c0-0.1,0.4-0.6,0.6-1.1c0,0.1-0.1,0.2-0.1,0.3c0.1-0.2,0.2-0.4,0.2-0.5c0,0,0,0,0,0c0,0,0,0,0,0
		c0,0,0.1-0.1,0.1-0.2c0.1-0.1,0.1-0.2,0.2-0.2c0,0,0,0.1-0.1,0.1c0.3-0.3,0.5-0.7,0.8-1c18.3-23.3,43.5-41.3,66.4-60
		c52.9-43.3,105.9-86.5,158.8-129.8c26.1-21.3,52.3-42.6,78.3-64.1c24.1-19.9,47.9-40.4,69.6-63c11.6-12.1,22.6-24.8,32.9-38
		c-1.7,0-3.3,0-5,0.1c-0.2,0.2-0.4,0.4-0.5,0.6c-21,24.2-44.7,45.9-69.1,66.5c-25.5,21.6-51.7,42.6-77.6,63.7
		c-53.5,43.7-107.1,87.5-160.6,131.2c-13.1,10.7-26.2,21.4-39.3,32.1c-11.5,9.4-22.9,19-33.1,29.8c-23.3,24.3-41,54.5-48.8,87.4
		c-3.5,14.7-5.5,29.8-7.1,44.8c-1.7,14.7-3.4,30.1,6.6,42.4c8.7,10.7,22.2,17.1,34.6,22.4c14.2,6.1,29.1,10.6,44.3,13.3
		c15.4,2.8,31.2,3.8,46.8,3c13.4-0.7,28.1-2.5,39.3-10.6c7.1-5.2,12.2-12.7,16.9-20c4.6-7.1,8.8-14.5,11.1-22.6
		c3.6-12.8,2.6-26.4,0.5-39.4c-2.5-16.2-6.4-32.9-2.8-49.2c0.6-2.9,1.5-5.8,2.6-8.6c0.2-0.5,0.4-1,0.6-1.5c0.5-0.6,1-1.1,1.5-1.7
		c2.2-2.4,4.5-4.7,6.9-6.9c19.6-18,42.9-31.3,63.1-48.5c45.4-38.8,81-87.9,111.2-139c30.6-51.8,54.8-106.9,78.3-162.2
		C1134.9,81.8,1138.7,72.6,1142.6,63.5z M703.5,420.1c0,0-0.1,0.1-0.1,0.1C703.4,420.2,703.4,420.2,703.5,420.1L703.5,420.1
		C703.5,420.2,703.5,420.1,703.5,420.1z M1086.5,139.2c-7.8,17.2-17.3,34.8-26.3,49.7c-1.3,2.1-2.5,4.1-3.8,6.2
		c1.4-2.2-0.9,1.5-1,1.5c-0.7,1.1-1.4,2.2-2.2,3.3c-1.1,1.6-2.1,3.3-3.2,4.9c0.3-0.4-1.4,2.1-1.5,2.2c-1,1.5-2,2.9-3,4.4
		c-2.9,4.3-4.4,6.3-7.5,10.5c-2.9,4-5.8,7.9-8.8,11.8c-24.9,32.2-52.8,62.1-83.3,89.1c-14.8,13.2-30.2,25.7-46.2,37.4
		c-15.4,11.3-31.3,22.1-44.8,35.8c-16.5,16.7-29.9,37.8-37.6,59.9c-6.7,19.3-9.3,39.7-15.6,59.1c-1.4,4.3-3,8.5-4.9,12.6
		c-0.1,0.3-0.7,1.3-1.2,2.2c-5.6,6.3-13,11.1-21,13.8c-15.5,5.2-33.8,2.8-44.2-10.9c-10.9-14.5-9.7-34.5-9.5-51.6
		c0.1-10.4-0.2-21.5,3.5-31.4c0.6-0.7,1.1-1.4,1.7-2c3.3-3.7,6.8-7.2,10.3-10.7c52.3-52.5,113.5-94.9,172.7-139.1
		c59.3-44.3,117.2-91.3,162.3-150.5c4.1-5.4,8.2-11,12.1-16.6c1.4,0.2,2.5,0.9,3.3,2.1c0.5,0.7,0.9,1.5,1.1,2.4c0,0.1,0,0.3,0.1,0.4
		C1087.4,136.9,1086.9,138.1,1086.5,139.2z M1050,204.8C1049.9,204.8,1049.9,204.9,1050,204.8C1049.9,204.9,1049.9,204.8,1050,204.8
		z M1049.9,204.9c0,0,0,0.1-0.1,0.1C1049.8,205,1049.9,205,1049.9,204.9z M1049.8,205C1049.8,205.1,1049.8,205.1,1049.8,205
		C1049.8,205.1,1049.8,205.1,1049.8,205z M1049.9,204.9C1049.9,204.9,1049.9,204.9,1049.9,204.9
		C1049.9,204.9,1049.9,204.9,1049.9,204.9z M1049.8,205.1C1049.8,205.1,1049.7,205.1,1049.8,205.1
		C1049.7,205.2,1049.8,205.1,1049.8,205.1z M1049.7,205.2c-0.1,0.1-0.1,0.2-0.2,0.3C1049.6,205.3,1049.7,205.2,1049.7,205.2z
		 M795.6,529.9c0.1-0.2,0.3-0.3,0.4-0.5c2.2-2.6,0.1,0.2-0.6,1.2C794.7,531.6,795.1,530.9,795.6,529.9z M724.5,449.8
		c-0.7,0.8-1.4,1.7-2,2.3c2-2,3.8-7,2.3-3C724.7,449.3,724.6,449.6,724.5,449.8z M1083.6,131c-0.4,0-0.8,0-1.2,0
		c2.1-2.4,4.2-4.9,6.2-7.3C1087,126.1,1085.3,128.5,1083.6,131z M1088.1,135.8c0.2-0.4,0.5-0.8,0.7-1.2c1.6-2.9,3.5-5.7,5.4-8.4
		c0.5-0.7,1-1.4,1.5-2.1c0.2-0.3,2-2.5,3.2-3.7c-0.6,0.7-1.1,1.5-1.7,2.2c-2.8,4.4-5.6,8.9-8.4,13.3c-1.4,2.9-0.7,1.5-0.8,0
		c0.2-0.4,0.5-0.9,0.7-1.3c0.5-0.8,0.9-1.5,1.4-2.2c1.3-2.1,2.6-4.2,4-6.2c0.5-0.7,1-1.4,1.5-2.1c1-1.3,2.4-3.6,3.9-4.6
		c-0.2,0.3-0.5,0.6-0.7,0.9c1.1-1.1,1.8-1.4,0.8,0.8c-1.1,2.5-2.3,5-3.5,7.5c-1.4,2.1-2.8,4.2-4.3,6.2c-1.6,2.1-3.2,4.6-5.4,6.1
		c-1.2,0.8-0.2-1.3-0.1-1.6c0.5-1.1,1-2.2,1.6-3.3C1088.1,135.9,1088.1,135.9,1088.1,135.8z M835.7,424.7c-0.2,0.2,0.2-0.5,0.7-1.2
		C836.1,423.9,835.9,424.2,835.7,424.7z M836.4,423.5c0.3-0.5,0.6-0.9,0.9-1.3C837.1,422.4,836.7,423,836.4,423.5z"/>
	<path class="accentcolor2" d="M1317.5,61.1c-2,0-4,0.1-5.9,0.1c-1.3,3.1-2.6,6.2-3.9,9.4c-10.1,24.7-18.5,50.2-23.9,76.3
		c-5.8,27.8-7,55.9-8.7,84.1c-1.6,27.5-5.2,54.7-12.8,81.3c-7,24.5-17.2,49.1-29.8,70.6c-0.3,0.5-1.4,2.3-2,3.4
		c-0.5,0.8-0.9,1.5-1.4,2.2c0,0-0.1,0.1-0.2,0.3c0,0,0,0,0,0c0,0,0,0,0,0c0,0-0.1,0.1-0.1,0.1c0,0,0,0,0,0v0c0,0,0,0,0,0
		c0,0.1-0.1,0.1-0.1,0.1c0,0,0,0,0,0c0,0,0,0,0,0c0,0,0,0,0,0.1c0,0,0,0,0,0c0,0.1-0.1,0.1-0.1,0.2c0,0,0,0,0,0c0,0,0,0,0,0.1
		c0,0,0,0,0,0c-0.1,0.1-0.2,0.2-0.2,0.3c-0.5,0.7-0.9,1.4-1.4,2.1c-0.9,1.4-1.8,2.8-2.8,4.2c-0.3,0.5-0.7,1-1,1.5c0,0,0,0.1-0.1,0.1
		c-0.1,0.2-0.3,0.4-0.3,0.5c-0.8,1.1-1.6,2.3-2.3,3.5c-1.8,2.6-3.6,5.3-5.4,7.9c-7.7,11.3-15.4,22.7-22.6,34.5
		c-13.1,21.5-25.1,44.7-28.1,70.1c-2.5,21.1,0.8,43.2-5.4,63.8c-0.1,0.3-0.2,0.6-0.3,0.9c-4.3,3.6-9.4,6.2-14.7,7.9
		c-11.9,3.8-25,4.1-37.3,3.5c-26.4-1.2-52.4-8.5-75.5-21.3c-20.5-11.4-40.9-28.6-41.8-53.9c-0.4-12.2,3.4-24.3,8.8-35.1
		c1.2-2.3,2.3-4.3,3.1-5.7c0.3-0.6,0.7-1.1,1-1.7c0,0,0,0,0,0c0,0,0,0,0,0c0,0,0,0,0,0c0,0,0-0.1,0.1-0.1c0,0,0-0.1,0.1-0.1
		c0,0,0,0,0-0.1s0,0,0,0c0-0.1,0.1-0.2,0.2-0.3c0.4-0.6,0.7-1.1,1.1-1.7c0.1-0.2,0.2-0.4,0.3-0.5l0,0c0,0,0,0,0,0c0,0,0-0.1,0.1-0.1
		c0.1-0.1,0.1-0.2,0.2-0.4c1.7-2.6,3.5-5.2,5.3-7.7c0-0.1,0.1-0.1,0.1-0.2c0,0,0,0,0-0.1c0,0,0,0,0-0.1c0,0,0-0.1,0.1-0.1
		c0-0.1,0.1-0.1,0.1-0.1c0,0,0-0.1,0.1-0.1c0,0,0,0,0,0c0,0,0,0,0,0c0.8-1.1,1.5-2.2,2.3-3.3c1.1-1.6,2.2-3.1,3.3-4.7
		c16.9-23.9,33-48.4,48.6-73.2c30.4-48.3,58.5-98.1,84.9-148.8c25.7-49.3,50.3-99.3,71.8-150.5c2.5-6,5-12.1,7.4-18.1
		c-2.1,0-4.2,0.1-6.3,0.1c-0.5,1.2-0.9,2.5-1.4,3.7c-20.1,52.3-44.2,103-69.5,152.9c-25.3,50-52.4,99.5-81.3,146.7
		c-7.7,12.6-13.7,22.1-21.7,34.4c-7.9,12.3-14.2,21.6-22.6,33.8c-16.4,23.8-35.9,47.7-46,75.7c-4.1,11.3-6.2,23.4-3.7,35.4
		c2.5,11.8,9.4,21.8,18.1,29.9c18.8,17.3,44.5,27.9,69.2,33.3c13.1,2.9,26.6,4.2,40,4c12.1-0.2,24.7-1.6,35.5-7.4
		c13.1-7,21.9-21.4,28.7-34.1c5.1-9.5,7.7-19.7,8.7-30.5c2.2-22.6-0.1-45.1,6.7-67.2c3.4-11,8.5-21.5,14-31.1c0-0.1,0.2-0.3,0.3-0.6
		c0,0,0-0.1,0.1-0.1c0,0,0,0,0,0c0,0,0,0,0-0.1c0,0,0-0.1,0.1-0.1c0,0,0,0,0-0.1c0,0,0.1-0.1,0.1-0.1c0,0,0,0,0,0
		c0.2-0.4,0.5-0.8,0.7-1.1c0.6-1.1,1.3-2.1,1.9-3.1c0,0,0,0,0,0v0c0,0,0,0,0,0c0,0,0.1-0.1,0.1-0.1c0.1-0.1,0.1-0.2,0.2-0.3
		c0,0,0,0,0,0c0.4-0.6,1.1-1.7,1.3-2c1-1.6,2.1-3.2,3.1-4.8c0.6-0.9,1.2-1.8,1.8-2.7c0,0,0,0,0,0c0,0,0,0,0-0.1c0,0,0,0,0,0
		c0,0,0-0.1,0-0.1c0,0,0.1-0.1,0.1-0.2c0,0,0,0,0,0c0.5-0.7,1.5-2.3,1.7-2.5c1.8-2.6,3.6-5.3,5.4-7.9c16.2-23.8,31.7-47.9,43.9-74
		c11.4-24.4,19.9-50.3,25.1-76.8c5.6-28.5,6.2-57.3,8.2-86.2c1.9-27.5,6.3-54.5,14-81C1308.7,85.3,1312.9,73.1,1317.5,61.1z"/>
	<path class="accentcolor2" d="M2095.7,602.9c-0.3-6.3-0.5-12.6-0.8-18.9c-2.7,0.5-5.4,1-8.1,1.5c-13.5,2.4-27,4.4-40.6,6.1
		c-14.4,1.8-29.6,2.1-39.5-10.2c-8.4-10.4-10.3-24.3-7.6-37c1.6-7.4,4.5-14.4,8.1-21.1c1.6-3,2.6-4.6,4.1-7c1.1-1.9,2.3-3.7,3.4-5.6
		c0.5-0.8,1-1.6,1.5-2.5c0.1-0.2,0.7-1.1,1-1.6v0c0-0.1,0.1-0.1,0.1-0.1c0,0,0-0.1,0-0.1c0,0,0,0,0,0c0,0,0,0,0,0c0,0,0,0,0,0
		c2.1-3.3,4.2-6.6,6.4-9.9c0.5-0.8,1.1-1.6,1.6-2.4c0.1-0.1,0.8-1.2,1.1-1.6c0,0,0,0,0,0c0,0,0,0,0,0c0,0,0-0.1,0.1-0.1c0,0,0,0,0,0
		c0,0,0,0,0,0v0c0,0,0,0,0,0c0.7-1,2.4-3.5,3.3-4.9c4.6-6.7,8.7-12.5,13.2-18.8c9.6-13.2,19.4-26.1,29.4-39
		c8-10.3,16.1-20.5,24.1-30.8c0.1-1.4,0.2-2.8,0.3-4.1c0.1-0.7,0.1-1.4,0.2-2c-20.1,25.4-39.9,50.9-58.6,77.4
		c-10.6,15.1-20.8,30.5-30.5,46.3c-9.1,14.8-18.8,30.3-22.8,47.4c-2.9,12.6-1.7,26.6,5.8,37.4c9.1,13,23.6,14.4,38.3,12.7
		C2051.5,611.1,2073.7,607.5,2095.7,602.9z"/>
	<path class="accentcolor2" d="M2308.7,128.5l9.5-5.5c3.9-4.8,7.8-9.5,11.7-14.3c18.7-22.7,37.5-45.4,56.4-67.9c-1.8,0.1-3.6,0.1-5.4,0.2
		c-3.9,4.7-7.8,9.4-11.8,14.1C2348.8,79.5,2328.7,103.9,2308.7,128.5z"/>
	<path class="accentcolor2" d="M1624.6,1600.7h6.1c27.4-28,60-51.4,92.9-71.3c62.3-37.5,130.5-63.3,199.3-86c74.4-24.5,150-46.6,221.3-79.3
		c11.3-5.2,22.6-10.7,33.6-16.5l84.6-65.8c-25.3,18.7-52.4,34.9-80.5,49c-71.3,36-148.1,59.3-223.8,83.9
		c-69.4,22.5-138.5,46.7-202.5,82.3C1706.3,1524.5,1661.3,1558.5,1624.6,1600.7z"/>
	<path class="accentcolor2" d="M1662.4,1600.7l13.2,0c14.5-10.5,29.7-20,44.9-28.5c51.6-29,107.6-48.1,164.1-65
		c48.5-14.5,97.6-27.6,145.3-44.5l41.1-32c-39.3,15.5-80,27.7-120.6,39.6C1849.5,1499.6,1742.4,1529.7,1662.4,1600.7z"/>
	<path class="accentcolor2" d="M2282.6,1266.1l64.7-50.3c26.7-25.4,54-49.8,83.8-71.7c4-3,8.1-5.9,12.2-8.8c-0.3-0.1-0.5-0.3-0.8-0.4
		c-2.8-1.4-5.5-2.7-8.3-4.1c-20.5,15.5-40.3,32-59.2,49.7C2344.3,1209.2,2315.1,1239.4,2282.6,1266.1z"/>
	<path class="accentcolor2" d="M418.4,537.3c1.7,0.4,3.4,0.7,5.2,1.1c17.3-46.7,46.1-89.8,75.4-129.3L490,416c-25.8,36-49.4,73.9-68.1,113.6
		C420.7,532.1,419.6,534.7,418.4,537.3z"/>
	<path class="accentcolor2" d="M471.7,549c3.4,0.8,6.8,1.6,10.2,2.4c0.3-2.8,0.6-5.6,1.1-8.5c10-66.6,49.1-126.2,88.6-179.2
		c7.1-9.5,14.3-18.8,21.7-28l-11.2,8.7c-33.3,43.6-64.3,90-87.6,139.5C484.7,504.6,476.6,526.6,471.7,549z"/>
	<path class="accentcolor2" d="M564.2,573c6.4,1.9,12.9,3.7,19.3,5.7c-7.8-27.6-5.1-58.7,3.6-86.8c17.1-55.5,58-100.2,100.1-138.6
		c83.8-76.6,184.6-130.1,275.3-197.4c36.9-27.4,72.7-57.7,104.8-91.4c-2.7,0-5.5,0.1-8.2,0.1c-24.5,23.7-50.9,45.4-78.1,65.9
		C888.4,200,784.6,254.3,698.9,333c-40.3,37-77,79.7-103.6,127.7C576.9,494,562,534.1,564.2,573z"/>
	<path class="accentcolor2" d="M766.9,646.4c7.8,3.5,15.6,7.1,23.3,10.8c27-8.6,53.8-17.8,81.6-22.9c61.7-11.5,124,3.9,172,44.7
		c23.9,20.3,44.1,44.6,67.1,65.8c21.5,19.8,45.1,37.2,70.1,52.1c16.3,9.7,33.1,18.4,50.3,25.9c-0.2,0-0.3-0.1-0.5-0.1
		c-30.9-5.9-59.2-17.5-84.7-36c-24.8-18-46.3-40-69.3-60.2c-46.4-40.8-101.8-68.1-163.3-76.5c-41.2-5.6-81-0.9-120.2,8.5
		c9.1,4.3,18,8.7,27,13.2c61.2-8.1,124.5,3.3,179.1,32.1c55.4,29.1,92.9,80,145.1,113.2c29,18.5,61.8,26.7,95.6,31.2
		c37,4.9,74.4,7.8,111.5,11.6c74.1,7.5,148.1,15.6,222.3,22.3c33.2,3,67.3,4.8,99.9-3.2c28.7-7,53.3-22.4,75.4-41.6
		c22.3-19.4,41.8-41.6,63.7-61.3c22.1-19.9,46.9-36.5,73.5-49.8c55-27.5,115.8-41,176.3-49.6c12.2-1.7,24.5-3.1,36.9-4.3
		c-0.5-6.8-0.9-13.6-1.3-20.4c-47.3,5.8-94.4,14.1-139.8,28.9c-54.2,17.7-103,45.1-144.3,84.7c-21.7,20.9-42,43.5-66,61.8
		c-26.3,20-55.9,31.4-88.8,34.4c-32.5,3-65.1-0.8-97.4-4c-5-0.5-9.9-1-14.9-1.5c58.1-10.4,114.7-28.7,168.5-52.8
		c57.3-25.6,110.2-59.3,164.8-89.9c54.4-30.4,111.7-57.4,174.2-65.6c14.3-1.9,28.7-2.9,43.2-3.7c-0.4-7-0.8-13.9-1.2-20.9
		c-58.9,4.4-113.2,22.2-165.8,48.8c-54,27.3-104.5,60.7-158.2,88.6c-57.6,30-118.8,53.4-182.2,67.8
		c-117.2,26.5-241.9,20.1-351.8-30.6c-53.4-24.6-99.2-59.2-140-101.2c-20.9-21.5-41.7-43.5-67.5-59.2
		c-25.8-15.7-55.2-25.5-85.3-28.3C883.3,603.3,826,631.1,766.9,646.4z"/>
	<path class="accentcolor2" d="M887,707.8c90.7,52.3,174.3,114.7,250.1,185.7c16.8,5.2,34.2,8.6,52,10.9c38.1,5,76.5,8,114.7,11.9
		c76.2,7.7,152.4,16,228.7,22.9c34.1,3.1,69.2,4.9,102.8-3.3c29.5-7.3,54.8-23,77.5-42.8c22.9-19.9,43-42.7,65.6-63
		c22.7-20.5,48.2-37.6,75.6-51.3c56.6-28.3,119.2-42.2,181.4-51c22.4-3.2,45.1-5.1,67.9-7.1c-0.6-7.1-1.1-14.1-1.7-21.1
		c-58.7,6.2-117.6,14.8-173.8,33.1c-55.8,18.2-106,46.4-148.4,87.1c-22.4,21.5-43.2,44.8-67.9,63.6c-27,20.5-57.5,32.3-91.4,35.4
		c-33.4,3.1-67-0.8-100.2-4.1c-38.5-3.9-76.9-7.7-115.4-11.6c-38.5-3.9-76.9-7.7-115.4-11.6c-36.6-3.7-73.7-5.8-109.9-12.8
		c-31.8-6.1-60.9-18-87.2-37c-25.5-18.5-47.7-41.2-71.3-61.9C981.8,745.6,936.7,720.5,887,707.8z"/>
	<path class="accentcolor2" d="M366.5,527.3c1.1,0.2,2.1,0.4,3.2,0.6c5.9-11.3,12.3-22.3,19-33.2l-6.1,4.7C377,508.6,371.7,517.9,366.5,527.3
		z"/>
	<path class="accentcolor2" d="M1178.7,933.9c8.4,8.5,16.7,17.1,24.8,25.9c23.4,2.4,46.9,4.4,70.3,6.8c79.9,8,159.8,16.8,239.8,24
		c35.8,3.2,72.5,5.2,107.7-3.5c30.9-7.6,57.5-24.1,81.3-44.9c24-20.9,45.1-44.8,68.7-66.1c23.8-21.5,50.6-39.4,79.3-53.7
		c59.3-29.7,125-44.2,190.2-53.5c21.8-3.1,43.9-5.1,66.1-7c-0.6-7-1.3-14-1.9-21c-60,6.4-120.2,15.5-177.8,34.2
		c-58.5,19-111.1,48.6-155.5,91.3c-23.5,22.5-45.3,47-71.3,66.7c-28.3,21.5-60.3,33.8-95.8,37.1c-35,3.2-70.2-0.8-105.1-4.3
		c-40.3-4.1-80.6-8.1-120.9-12.2c-40.3-4.1-80.6-8.1-120.9-12.2C1231.4,939.1,1204.9,937.2,1178.7,933.9z"/>
	<path class="accentcolor2" d="M1512.8,1412.4C1512.8,1412.4,1512.8,1412.4,1512.8,1412.4c1.8-3.4-0.7,0.9-0.4,0.5
		C1512.6,1412.7,1512.7,1412.6,1512.8,1412.4z"/>
	<path class="accentcolor2" d="M1382.1,1193.7c3.4,5.5,6.8,11,10.1,16.5c51.7-10,104.2-15.2,156.1-23.9c49.2-8.2,98.1-19.3,144.4-38.2
		c22.1-9,43.4-19.8,63.4-32.8c19.4-12.6,36.7-27.6,53.6-43.3c15.8-14.7,32-29.8,51.2-40.1c4.8-2.6,9.8-4.8,14.9-6.5
		c5.2-1.8,11.2-3.8,16.7-3.6c11.7,0.5,14.8,17.9,14.8,27.1c0,4.7-0.9,9.2-2.3,13.6c-2.1,2.2-4.3,4.2-6.6,6.2
		c-10.1,8.9-20.4,17.5-30.6,26.3c-20.4,17.6-40.8,35.3-61.4,52.6c-19.9,16.8-40.2,33.1-61.4,48.2c-21.2,15-43.4,28.4-66.4,40.5
		c-45.2,23.7-92.8,42.8-137.4,67.8c-10.9,6.1-21.6,12.6-32.1,19.4c-0.1,0-0.1,0.1-0.2,0.1c-0.1,0.1-0.3,0.2-0.4,0.3
		c-13,9.6-26.6,18.4-41.3,25.1c1.9,3.9,3.7,7.8,5.5,11.6c8-4.8,15.6-10.1,23.1-15.6c44.7-29.4,94-50.1,141.9-73.4
		c24.3-11.8,48.2-24.3,71-38.8c22.9-14.7,44.7-31.1,65.8-48.3c21.3-17.3,42-35.3,62.8-53.2c11.1-9.5,22.1-19,33.2-28.5
		c10.1-8.7,20.7-17,29-27.4c9.6-11.9,19.8-26.6,21.7-42.2c0.7-5.6,0.3-11.4-1-16.9c-1.3-5.1-3.4-11.8-8.1-14.8
		c-5-3.1-11.8-0.9-17,0.5c-5.1,1.4-10,3.2-14.8,5.4c-10.2,4.6-19.6,10.8-28.4,17.6c-18.2,14.1-34,31-51.6,45.8
		c-18.9,15.9-39.7,29.4-61.7,40.7c-45.9,23.7-96.1,37.8-146.6,47.6c-55.8,10.8-112.4,16.8-168.4,26.2
		C1409.7,1187.7,1395.8,1190.3,1382.1,1193.7z M1509,1323.7c0.1,0,0.1-0.1,0.2-0.1c0.9-0.5,0,1.5-0.1,1.8c-0.8,2.4-2.4,4.7-3.7,6.8
		c-2.5,4.2-5.4,10-9.5,12.9c-1.2,0.8-0.2-1.3-0.1-1.6c0.8-2.4,2.4-4.7,3.7-6.8c1.7-2.8,3.6-5.7,5.6-8.3c0.9-1.2,2.2-3.2,3.5-4.3
		C1508.7,1323.9,1508.8,1323.8,1509,1323.7z M1905,1062.5c0.2-0.2,0.3-0.3,0.5-0.5c0.8-0.9,1.6-1.8,2.4-2.6c2-2.2-5.2,9.6-3.9,6.1
		C1904.3,1064.5,1904.7,1063.5,1905,1062.5z"/>
	<path class="accentcolor2" d="M780.5,437.3c-3.7,4.8-7.7,9.5-11.7,14.1c-9.9,11.7-19.1,23.9-26.9,37.2c-3.2,5.5-7.8,12.4-7.6,19.1
		c0.1,5.3,4,8.9,8.9,10.3c14.8,4.2,25.9-10.6,33-21.1c4.7-7,8.9-14.5,11.9-22.4c1.9-4.9,2-9.5,2-14.7c0-0.2,0-0.4,0-0.6
		c-0.7-2.4-0.7-4.7-0.5-6.9c1.6-1.3,3.2-2.6,4.7-4c11.5-10.5,20.1-25.2,26.6-39.2c2.5-5.5,4.6-11.1,6.5-16.8
		c1.5-4.4,3.9-10,2.1-14.7c-2.1-5.3-8-4.3-12-1.9c-6.5,4.1-11.2,12-15.4,18.3c-8,12.1-13,25-18.8,38.1c-0.5,1.1-1,2.2-1.5,3.2
		c-0.1,0.1-0.3,0.5-0.5,0.9C780.8,436.8,780.4,437.4,780.5,437.3z M780.5,437.3C780.5,437.3,780.5,437.3,780.5,437.3
		C780.5,437.3,780.5,437.3,780.5,437.3z M775.9,480.9c0,3.5,0.2,7.2-0.7,10.6c0,0.2-0.1,0.3-0.1,0.5c-6.3,4.5-14.3,7.1-21.5,2.5
		c-4.4-2.8-5.9-7.6-4.1-12.5c0.1-0.4,0.5-1.1,0.8-1.7c0.5-0.7,1.2-1.6,1-1.3c6.1-8,13-15.4,19.3-23.3c8.5-10.7,16.3-22,22.6-34.2
		c4-7.7,7.4-15.9,10.7-23.9c1.7-1.2,3.7-2.1,5.8-2.1c4.9,0,6.7,4.6,6.1,8.9c-0.6,4.1-2.3,8.1-3.7,12c-1.2,3.3-3.3,7.3-4.6,10.5
		c0,0,0,0,0,0c-1.9,1.8-4,3.4-6.1,5c-5.8,4.5-10.5,9.3-14.7,15.4C779.8,457,772.6,468.6,775.9,480.9z M775,492
		c1.1-0.8,2.1-1.6,3.1-2.4c-1.7,1.4-3.2,3.6-4.3,5.5C774.2,494,774.7,493,775,492z M773.8,495.1c-0.1,0.2-0.1,0.3-0.2,0.5
		C771.2,500.9,771.8,498.5,773.8,495.1z M749.9,480.6c0,0-0.1,0.1-0.1,0.1C749.8,480.8,749.8,480.7,749.9,480.6
		c0.9-1.5,0.6-1.1,0.2-0.3c-0.2,0.2-0.3,0.4-0.4,0.5c0,0,0.1-0.1,0.1-0.1C749.9,480.7,749.9,480.7,749.9,480.6z M749.8,480.8
		 M749.8,480.9c0,0.1-0.1,0.1-0.1,0.2c-0.4,0.5-0.8,1.1,0.2-0.3C749.6,481,749.6,481,749.8,480.9z M803.7,397.6
		c-0.3,0.2-0.5,0.4-0.8,0.6c-0.6,0.5-1.2,1.4-1.8,1.8c-3.7,2.6,3.4-4.5,4.1-6C804.7,395.2,804.2,396.4,803.7,397.6z M807.4,426.9
		c0.8-0.8,1.7-2.2,2.6-2.8c-1.1,0.7-3.1,3.9-3.4,5C806.8,428.4,807,427.7,807.4,426.9z M775.9,480.9c0-0.2,0-0.3,0-0.5
		c0-1.7,1.8-4,2.6-5.4c1.6-2.9,3.5-5.7,5.3-8.5c1.4-2,3-4.5,4.7-6.2c0.4-0.4,1.5-1.8,1.6-0.6c0,0,0,0,0,0.1c-0.1,1-0.9,2.3-1.3,3
		c-1.4,2.7-3,5.3-4.7,7.9c-1.6,2.6-3.4,5.1-5.3,7.5c0.5-0.6-2.7,3.2-2.8,2.7C775.9,480.9,775.9,480.9,775.9,480.9z M789.5,452.3
		c-1,0.8-2,1.5-2.9,2.3c-1.2,1-2.4,1.9-3.6,2.9c-0.6,0.6-1.2,1.3-1.9,1.8c3.3-5,6.5-10,9.8-15c0,0.1-0.1,0.2-0.1,0.3
		C790.3,447.3,789.7,449.8,789.5,452.3z M781.6,435.8c1.2-1.6,0.2-0.2-0.4,0.6c-0.5,0.6-0.3,0.3,0-0.1
		C781.6,435.7,782,435.2,781.6,435.8z"/>
	<path class="accentcolor2" d="M749.9,480.6c0,0,0.1-0.1,0.1-0.2C750,480.5,750,480.6,749.9,480.6z"/>
	<path class="accentcolor2" d="M781.6,435.8C781.6,435.8,781.5,435.8,781.6,435.8C781.5,435.9,781.6,435.8,781.6,435.8z"/>
</g>
<path class="accentcolor" d="M5208.5,548.6c-15.2,2.3-56.1,8.4-56.1,8.4c-159.9,27.2-286.2,69.3-359.3,99
	c-568.7,231.2-765.5,757-815.6,922.7c0,0-6.1,20.1-8.5,28c-4.8,15.8-18.2,26.5-34.7,26.5h-266c-21.7,0-40.2-6.3-57.3-19.7
	l-605.4-471c-7.5-5.9-6.2-17.7,2.7-21.3c18-7.2,34.7-15.3,34.7-15.3c28.1-13.1,177.1-92.2,201.9-110.8
	c100.5-75.2,99-82.5,112.8-204.4c0.1-2.6,26.2-241,13-393.6c-8.3-96.3-34.8-114.6-75.4-152.2c-34.2-31.7-113.4-84.5-120.3-88.4
	L2934.5,16.8c-8.3-4.8-4.3-17.5,5.2-16.8c47,3.6,115.8,6,186.3,8.8c164.2,6.5,745.1,16.1,1398.3,24.5l34.6,0.4
	c8.2,0.1,15.2,2.5,21.6,7.6c9.4,7.3,632.1,491.3,632.1,491.3C5218.9,537.4,5216.3,547.4,5208.5,548.6z M5176.2,531.5L4567.1,58.1
	c-2.4-1.9-5.4-2.9-8.4-2.8c-223.9-2.8-447.8-5.9-671.8-9.4c-185.9-2.7-371.7-6.1-557.6-10c-99.9-1.9-199.7-5-299.4-9.4
	c-12.8-0.4-25.6-1-38.3-1.6l195.2,113.4c29.9,19.3,59.1,39.7,87.5,61.2c12.4,9.2,24.4,19.1,35.8,29.5l18.3,16.9
	c6,5.6,11.8,11.5,17.3,17.6c23.4,25.8,35.3,56.6,41.3,90.6c2.5,13.7,4.3,27.5,5.4,41.4c3.1,39.8,4.3,79.7,3.7,119.7
	c-1.3,91-6.7,172.7-15.4,263.7c-2.5,27.3-5.8,54.5-9.8,81.5c-1.7,11.4-4.1,22.7-7.3,33.8c-6.9,24.3-19.7,44.5-37.6,62.3
	c-7.5,7.5-15.3,14.6-23.5,21.3c-14.6,12-29.5,23.6-44.7,34.7c-9.4,6.9-28.5,18.2-38.8,23.9l-26.7,15l-43.3,23.7
	c-31.8,17.3-63.9,34.1-96.3,50.1c-7,3.4-14.2,6.7-21.4,9.8l593.2,461.6c12.3,9.9,27.7,15.1,43.4,14.9l266.4,0
	c6.5,0,12.2-4.3,13.9-10.6l8.7-28.6c24.8-80.9,56.2-159.7,93.8-235.5c28.8-58.3,61-114.9,96.7-169.3
	C4302.4,930.1,4519.4,743.1,4785,636l0.1,0c64.8-25.8,131.1-47.5,198.7-64.8c54.5-14.2,109.5-26,165-35.5L5176.2,531.5z"/>
<path class="maincolor" d="M5149.6,524.6l-2.7,0.4c-55.8,9.5-111.1,21.4-165.9,35.6c-68,17.5-134.8,39.2-200,65.2l-0.2,0.1
	c-267.5,107.9-486.4,296.5-642.6,535.7c-35.9,54.8-68.4,111.7-97.3,170.4c-37.9,76.3-69.5,155.6-94.5,237.1l-8.7,28.7
	c-0.4,1.6-1.9,2.8-3.5,2.9l-266.4,0c-13.3,0.1-26.2-4.3-36.7-12.5L3052,1137.5c1.8-0.9,3.6-1.7,5.4-2.6
	c32.5-16.1,64.8-32.9,96.6-50.3l43.4-23.7l26.7-15c10.8-6,30.1-17.4,40-24.6c22.4-16.5,48.9-36.7,69.4-57.1c19.1-19,33-41,40.4-67
	c3.3-11.5,5.9-23.3,7.6-35.1c4-27.3,7.3-54.7,9.9-82.1c8.7-91.5,14.2-173,15.4-264.6c0.6-40.3-0.6-80.5-3.7-120.7
	c-1.1-14.2-3-28.4-5.5-42.4c-3-17.5-8-34.7-15-51.1c-7-16.5-16.8-31.7-29-44.9c-12.2-13.4-23-22.9-36.2-35.1
	c-11.7-10.7-23.9-20.8-36.7-30.2c-28.6-21.6-58-42.2-88.1-61.7l-157.8-91.6c98,4.2,196.1,7.3,294.3,9.2
	c185.9,3.9,371.7,7.3,557.6,10c223.9,3.4,447.9,6.5,671.8,9.4c0.7,0,1.4,0.2,1.9,0.6L5149.6,524.6z"/>
<g>
	<path class="accentcolor2" d="M4268.7,388.5C4268.7,388.5,4268.7,388.5,4268.7,388.5C4268.7,388.5,4268.7,388.5,4268.7,388.5z"/>
	<path class="accentcolor2" d="M4793.6,419.3C4793.6,419.3,4793.6,419.3,4793.6,419.3C4793.6,419.3,4793.6,419.3,4793.6,419.3z"/>
	<path class="accentcolor2" d="M4199.9,1069.8c-5.5,7.1-10.8,14.3-16.2,21.6c-0.7,0-1.4,0-2.1,0c-52.8-0.7-105.7-2.5-158.3-7.9
		c-94.3-9.7-188.7-31.2-273-75.6c-42.8-22.6-80.7-51.7-117.3-83.1c-36.5-31.3-72.5-63.7-114.5-87.6c-20.5-11.6-42.2-21.2-65.1-27.1
		c-20.9-5.3-43.5-8.3-64.8-3.9c-0.9,0.2-1.9,0.4-2.8,0.6c0.9-8.1,1.7-16.3,2.5-24.4c23-1.5,47.6,4.1,67.5,10.8
		c94.2,31.8,156.9,114.1,237.7,167.5c80.6,53.2,175.1,81.5,270,95.4c53.5,7.8,107.6,11.2,161.7,12.7
		C4150.1,1069.4,4175,1069.7,4199.9,1069.8z"/>
	<path class="accentcolor2" d="M4153.8,1133.4c-3.7,5.4-7.3,10.7-10.9,16.1c-50.8-10.5-102.7-16.3-153.8-24.8c-37.5-6.2-74.8-14-111-25.9
		c-38.9-12.7-76.3-29.4-113-47.3c-36.7-18-73.7-36.2-108.4-58c-34.4-21.6-64.2-48.5-95.1-74.7c-7.9-6.7-15.9-13.3-24-19.7
		c-7.2-5.6-14.6-11.2-23.1-14.6c-7.9-3.2-17.1-4.2-24.7,0.4c-5.1,3-8.4,8-10.3,13.5c-4,12-2.6,25.1-4.3,37.5
		c-0.8,5.9-2.2,11.9-5.4,17c-4.1,6.5-10.6,9.7-17.6,12.1c-8,2.7-15.7,5.2-21.6,11.6c-5.1,5.5-8.3,12.6-9.8,20
		c-1.7,8.2-0.9,16.6,1.5,24.6c0.9,3,2.4,6.6,3.6,9c0.1,0.2,0.3,0.4,0.4,0.6c1.4,1.9,2.9,3.7,4.4,5.4c25.5,29.6,59,51.8,91.1,73.5
		c67.1,45.3,137.8,85.3,211.2,119.3c68.9,31.9,141.8,56.6,206.6,96.9c14.4,9,28.2,18.7,41.4,29.3c0.2,0.1,0.5,0.4,1,0.8
		c0,0,0,0,0.1,0.1c0.6,0.5,1.2,1,1.8,1.5c4,3.3,6.8,8.6,9.5,12.9c1.3,2.2,2.9,4.4,3.7,6.8c0,0.1,0.1,0.4,0.2,0.7
		c1.3,1.7,2.7,3.4,4.2,5c2.6,2.9,5.3,5.8,8.1,8.5c-0.7,1.6-1.4,3.2-2.2,4.9c-5.7-7-11-14.3-15.9-21.9
		c-47.4-37.5-102.5-62.6-157.9-86.2c1.1,0.6,2.3,1.2,3.4,1.8c22.1,11.8,43.9,24,65.6,36.6c17.2,10,34.6,19.8,48.7,34
		c12.5,12.5,22.3,27.8,30.8,43.3c4.8,6.9,9,14,12.9,21.4c-0.7,1.8-1.5,3.6-2.2,5.4c-1.9-4.5-3.8-9.1-5.9-13.5
		c-0.9-1.9-1.9-3.8-2.9-5.7c-1.5-1.8-2.9-3.8-4.2-5.7c-2-3-3.9-6.1-5.5-9.2c-1-1.9-2-3.7-3-5.5c-0.6-1.1-0.9-1.5-1.2-2
		c-0.1-0.1-1-1.3-1-1.2c-1.2-1.5-2.5-3-3.8-4.5c-5.9-6.4-12.6-11.8-19.7-16.8c-19.6-13.6-41-24.9-61.8-36.5
		c-45.4-25.3-91.7-49.1-138.8-71.1c-46.4-21.7-93.6-41.5-141.3-60.3c-45.3-17.9-90.4-36.8-129.7-66.1c-34.9-26-64.6-58.3-89.2-94.1
		c-18.2-26.5-33.9-54.7-45.8-84.4c1.6-1.9,3.2-3.8,4.8-5.7c0.4,1.1,0.7,2.3,1.1,3.4c6.4,19.6,14.5,38.7,24.4,56.8
		c8.8,16.1,17.8,29.2,29.9,43.9c13.1,15.9,27.7,30.7,43.4,44c35.2,29.9,75.7,51.1,118.2,68.7c29.5,12.3,59.3,23.9,88.8,36.1
		c-27.8-15.4-55.2-31.6-82-48.8c-17.6-11.3-35-22.9-52.2-34.9c-16.6-11.6-33-23.4-48.2-36.8c-16.3-14.3-31-30.2-42.9-48.4
		c-10.6-16.2-21-34.7-18.3-54.8c1-7.6,3.9-15.1,8.8-21.2c5.5-6.9,12.9-10,21.1-12.7c7.5-2.5,14.8-5.4,19.4-12.3
		c3.4-5.2,4.8-11.3,5.6-17.4c1.7-12.9,0-26.9,4.9-39.2c2.3-5.7,6.4-10.5,12.1-13c8-3.6,17-1.5,24.7,1.8c9,3.9,16.7,10,24.4,16.1
		c8.1,6.4,16.1,13,23.9,19.8c16.1,13.8,32,28,48.6,41.3c33,26.5,69.6,47.3,107.2,66.6c38.4,19.7,77.1,39,117.2,55
		c38.2,15.3,77.6,26.6,118,34.5C4012.3,1110.9,4084.2,1116.4,4153.8,1133.4z M3992.2,1370.4c-2.8-4.7-5.8-10.5-9.9-14.3
		c-0.3-0.3-0.7-0.5-1-0.8c-1.8-1,1.6,5,2,5.6c2.7,4.6,5.5,9.2,8.4,13.7c1.8,1.4,3.6,2.9,5.5,4.4c0.8,0.7,0.6-0.2,0.4-1
		c-1-1.2-2-2.5-2.9-3.8c-0.3-0.3-0.9-1.3-1.1-1.5c-0.2-0.3-0.5-0.8-0.8-1.2C3992.8,1371.4,3991.9,1369.9,3992.2,1370.4z
		 M3984.3,1411.6C3984.3,1411.6,3984.3,1411.6,3984.3,1411.6c0.1,0.2,0.3,0.3,0.4,0.5c-0.2-0.2,2.3,3.1,2.8,2.7
		c0.6-0.4-1.4-3.9-1.3-3.7c-1.2-2.3-2.5-4.7-3.8-7c-2-2.9-4.1-5.7-6.2-8.4c-3.1-3.9-3.3-2.5-1.5,1c1.7,3.1,3.5,6.2,5.5,9.2
		C3981.5,1407.8,3982.9,1409.7,3984.3,1411.6z M3426.1,1030.2C3426.1,1030.2,3426.1,1030.2,3426.1,1030.2c0,0,0,0.1,0.1,0.1
		C3426.2,1030.3,3426.2,1030.2,3426.1,1030.2z M3426.2,1030.3C3426.2,1030.3,3426.2,1030.3,3426.2,1030.3
		C3426.2,1030.3,3426.2,1030.3,3426.2,1030.3z M3426.1,1030.2c-0.2-0.3-0.3-0.6-0.4-0.6C3425.6,1029.4,3425.7,1029.6,3426.1,1030.2z
		 M3970.1,1388.6C3970.1,1388.6,3970,1388.6,3970.1,1388.6C3970,1388.6,3970.1,1388.6,3970.1,1388.6z M3970.1,1388.6
		c0.1,0.2,0.2,0.3,0.3,0.5C3970.4,1389.1,3970.3,1389,3970.1,1388.6z"/>
	<path class="accentcolor2" d="M3172.6,1072.1l7.7-4.2c15.8,13.5,31,27.5,45.9,42c13.7,13.4,27,29.6,45.1,37.3c7.4,3.1,20.3,6,27.5,0.6
		c7.9-6,0.5-17.9-3.1-24.2c-1.7-2.9-2.9-4.7-5-7.7c-2.7-3.9-5.4-7.6-8.7-12c-6.9-9.3-13.9-18.5-20.4-28.1
		c-8.9-12.9-17.2-26.1-24.8-39.7c0.9-0.5,1.8-1.1,2.8-1.7c2.6,5,5.4,10,8.2,14.9c4.6,7.9,9.4,15.3,14.3,22.3
		c14.5,20.4,30.1,39.9,42.6,61.7c2.8,4.9,5.5,9.9,7.9,15.1c2.1,4.4,4.2,9.3,3.8,14.3c-0.8,10.8-14.8,10.4-22.7,8.8
		c-19.4-4-34.1-19.9-47.5-33.3c-16-16-32.5-31.5-49.7-46.2C3188.6,1085.3,3180.6,1078.6,3172.6,1072.1z"/>
	<path class="accentcolor2" d="M3978.1,1468.6c-1.3,3.4-2.6,6.9-3.9,10.3c-2.5-9.8-5.7-19.4-9.6-28.7c-8.6-20.7-21.5-37.4-37.9-52.7
		c-79.7-74.9-192.5-89.1-293.1-118.7c-50.1-14.7-98-34.8-141.3-64.3c-39.9-27.3-75.3-61.1-104.8-99.3c-31.6-41-57.4-86.1-75.6-134.5
		c1.8-1.6,3.6-3.1,5.4-4.7c9.7,28.1,20.3,55.9,34.9,82c47.8,85.3,131.2,150.2,222.1,184.1c102.5,38.2,217.3,45.4,309.1,109.5
		C3924.8,1380.6,3958.7,1421.7,3978.1,1468.6z"/>
	<path class="accentcolor2" d="M3963.5,1508.3c-1.6,4.6-3.2,9.3-4.8,13.9c-2.1-9.5-4.6-18.9-7.4-28.2c-3.5-11.6-7.7-23-13.2-33.8
		c-4.2-8.3-9.8-15.1-16.3-21.7c-33.6-33.6-81.5-48.4-126-61.1c-52.4-15-105.7-27.5-157-46.2c-83.3-30.3-158.2-79.3-221.2-141.6
		c-54.3-53.7-100.1-116.8-135.9-184.5c1-0.8,2-1.6,3.1-2.4c5.8,11.6,11.9,23.1,18.4,34.4c20.6,35.8,45.2,69.6,73.2,101.2
		c58.7,66,130.6,120.6,211.6,156.3c50,22.1,103,36.1,155.6,50.4c47,12.8,96.9,24.3,138.4,50.9
		C3921.9,1421.6,3948.7,1463.8,3963.5,1508.3z"/>
	<path class="accentcolor2" d="M3936,1594l-0.9,3c-0.3,1.1-1,2-2,2.5c-6.4-16.5-14.3-32.3-23.8-47.1c-25.5-40.1-62.4-73-101.6-99.4
		c-41.6-28-87.6-49-135.1-64.7c-50.9-16.7-103.6-27.8-153.4-47.8c-49.8-20-93.3-51.6-139.9-77.6c-48.4-27.1-100.9-45.6-150.7-70.1
		c-45.8-22.5-88.1-50.7-128.1-82c3-1.5,5.9-3.1,8.9-4.6c27.5,20.3,56.3,38.9,86.5,55.1c47.8,25.6,99,43.8,147.4,68
		c47.3,23.7,89.9,55.6,137.6,78.6c48.6,23.5,101.5,35.5,153,50.8c47.4,14.1,93.5,32.2,136.2,57.3c41.8,24.5,79.7,55.4,110.7,92.7
		C3902.3,1534.7,3921.3,1563.4,3936,1594z"/>
	<path class="accentcolor2" d="M3903.6,1599.9h-3.2c-1.1-1.6-2.2-3.2-3.4-4.7c-15.8-20.9-35.2-39.2-55.6-55.7c-41.5-33.6-89-59.1-137.9-80
		c-104.6-44.7-217-68.3-320.3-116.2c-52.2-24.2-100-55.7-145.1-91.4c-44.8-35.4-86.9-74-130.2-111.3c-8.2-7-16.4-14-24.7-21
		c2.5-1.3,5.1-2.6,7.6-3.9c80.7,69.3,158.1,144.2,253.4,193.5c100.8,52.1,212.6,76.2,317.8,117.3
		C3755.2,1462.9,3847.5,1514.9,3903.6,1599.9z"/>
	<path class="accentcolor2" d="M3434.5,48.2c3.9,0.1,7.8,0.2,11.7,0.2c19.9,20.2,38.9,41.3,56.2,63.9c26.3,34.3,49.6,71.5,66.3,111.5
		c7.8,18.7,14.2,37.9,21.7,56.7c3.5,8.9,7.3,17.7,11.7,26.2c1,2,1.9,3.6,3,5.5c0.2,0.4,0.3,0.6,0.5,0.8c0,0,0,0,0,0.1
		c0.1,0.2,0.3,0.4,0.5,0.8c0.1,0.1,1,1.5,1.3,2c0,0,0,0,0,0c0,0,0,0,0,0c0.3,0.5,0.9,1.3,1.1,1.6c0,0,0,0,0,0c0,0,0,0,0,0
		c0,0,0,0,0,0l0,0c0,0,0,0,0,0c0,0,0,0,0,0c1.4,1.9,2.7,3.6,4.3,5.5c26.7,31.3,67.9,50.4,107.6,58.5c21.1,4.3,42.9,5.5,64.3,3
		c20.4-2.3,41.3-7.6,58.9-18.5c32.8-20.2,48.3-59.7,58.4-95.1c9.9-34.7,13.7-70.9,11.9-106.9c-1.8-35.7-9-71.4-21.5-104.9
		c-0.4-1.1-0.8-2.2-1.3-3.3c1.9,0,3.8,0.1,5.8,0.1c12.5,27.6,21.5,56.8,26.6,86.6c6.2,35.9,6.8,72.8,1.5,108.8
		c-2.7,18.1-6.8,36-12.5,53.3c-6.1,18.5-13.6,36.9-24.4,53.1c-11.6,17.3-27.3,30.3-46.6,38.1c-19.9,8.1-41.8,11.4-63.2,11.6
		c-42.8,0.4-86.6-12.7-122.1-36.7c-37.7-25.5-62.1-66-78.7-107.5c-7.7-19.2-14.2-38.8-22.1-57.9c-3.8-9.1-8-18.1-12.5-26.8
		c-2.2-4.2-4.2-7.8-6.6-12c-0.6-1.1-1.3-2.2-1.9-3.3c-0.2-0.4-0.4-0.6-0.5-0.8c-0.1-0.1-0.1-0.2-0.1-0.2c0,0,0,0,0,0
		c-0.1-0.1-0.2-0.3-0.3-0.5c-1.3-2.2-2.6-4.3-3.9-6.4c-0.1-0.2-0.2-0.3-0.2-0.4c-0.1-0.1-0.2-0.3-0.2-0.4c0-0.1-0.1-0.2-0.2-0.3
		c-0.1-0.1-0.1-0.2-0.2-0.3c-0.7-1.1-1.4-2.1-2-3.2c-0.5-0.8-1-1.6-1.6-2.4c0,0,0,0,0,0c0,0,0,0,0,0c0,0-0.1-0.1-0.1-0.1
		c0,0,0,0,0,0c0,0-0.1-0.1-0.1-0.1c-0.4-0.6-1.1-1.7-1.2-1.8c-1.4-2.1-2.8-4.1-4.3-6.2c-0.2-0.3-0.4-0.6-0.5-0.8c0,0,0,0,0,0
		c0-0.1-0.1-0.1-0.2-0.3c-0.1-0.1-0.2-0.3-0.4-0.5c-0.7-1-1.5-2-2.2-3.1c-5.7-7.8-11.5-15.2-17.7-22.8
		c-12.8-15.5-26.4-30.2-40.5-44.5c-5.5-5.5-11-11-16.6-16.4c10.1,14.2,19.7,28.8,28.7,43.7c24.9,41.3,43.8,85.5,62.5,129.8
		c9.2,21.9,18.5,43.8,29,65c4.6,9.3,9.3,18.2,14.3,27c0.6,1.1,1.3,2.2,1.9,3.3c0.1,0.1,0.2,0.3,0.2,0.4c0,0,0,0,0,0c0,0,0,0,0,0
		c0.1,0.1,0.1,0.1,0.1,0.2c0,0,0,0,0,0v0c0,0,0,0,0,0c0,0,0,0,0,0c0,0,0,0,0,0c0.2,0.4,0.4,0.7,0.7,1.1c1.3,2.2,2.6,4.3,4,6.5
		c0,0,0,0,0,0c0,0,0,0,0,0c0,0,0,0,0,0c0.2,0.3,1,1.6,1.2,1.9c0.7,1.1,1.4,2.2,2.1,3.2c0.2,0.2,0.6,1,1,1.4c0.1,0.1,0.1,0.2,0.2,0.3
		c0,0,0,0,0,0.1c0.1,0.1,0.1,0.1,0.1,0.2c0,0,0,0,0,0c0,0,0,0,0,0c0.7,1,1.4,2.1,2.1,3.1c0.4,0.5,0.7,1,1.1,1.6l0.4,0.6
		c0,0,0,0.1,0.2,0.2c0,0,0,0,0.1,0.1c0,0.1,0.1,0.1,0.1,0.1c0,0,0,0,0,0l0,0c0,0,0,0,0,0l0,0l0.4,0.6c0.4,0.5,0.8,1,1.1,1.5
		c1.4,1.9,2.8,3.9,4.1,5.5c3.1,4,6.2,7.9,9.5,11.7c6.9,7.9,14.2,15.5,22,22.5c15.7,14.1,33.1,25.9,52,35.2
		c38.2,18.7,81.1,26.6,123.5,26.6c21.1,0,42.3-1.9,63.1-5.7c10-1.8,20.3-4.3,28.6-10.3c8.4-6.1,13-15.4,15.6-25.2
		c3-11,4.3-22.6,6.1-33.8c2.1-12.5,4.1-25.1,6.1-37.7c4-25.1,7.7-50.3,10.9-75.5c6.1-47.8,11.9-96.8,5.6-144.9
		c-2.5-19.2-7.2-38.2-14.8-56c1.6,0,3.3,0,4.9,0.1c4.1,8,7.9,16.3,11.1,24.7c17.1,44.7,17.4,93.1,13.5,140.2
		c-4.2,51.5-12.1,102.6-20.3,153.6c-2,12.6-4.1,25.2-6.2,37.8c-1.7,10.1-3.8,20.7-9.6,29.4c-11.9,17.9-37.3,19.9-56.7,22.4
		c-42.7,5.3-86.7,3.3-128.1-8.8c-41.4-12.1-78-34.4-107.7-65.7c-32.4-34-57.4-75.4-77.9-117.5c-21.8-44.8-38.9-91.7-60.2-136.7
		c-4.8-10.1-10-20.4-15.3-29.9c-1.2-2.2-2.5-4.4-3.7-6.6c-0.6-1.1-1.3-2.2-1.9-3.3c-0.2-0.3-1-1.7-1.3-2.2c0,0,0,0,0-0.1
		c0,0,0-0.1-0.1-0.1c0,0,0,0,0,0v0c0-0.1-0.1-0.1-0.1-0.1c-1.2-2.1-2.5-4.2-3.8-6.2c-0.8-1.2-1.5-2.5-2.3-3.7c0,0,0,0,0-0.1
		c0-0.1-0.1-0.1-0.1-0.1c0,0-0.1-0.1-0.1-0.1c0,0,0,0,0,0c0,0,0,0,0,0v0c0,0-0.1-0.1-0.1-0.1c0,0,0,0,0,0c0,0,0,0,0,0c0,0,0,0,0,0
		c0,0,0,0,0,0c0,0,0,0,0,0c-0.3-0.4-0.6-0.9-0.9-1.3c-1.4-2.1-2.8-4.3-4.1-6.4c-0.2-0.2-0.6-1-1-1.4c-0.1-0.1-0.2-0.3-0.2-0.4v0
		c0,0,0,0,0-0.1v0c-0.7-1-1.4-2.1-2.1-3.1c-1.4-2.1-2.9-4.2-4.3-6.3c-0.1-0.1-0.5-0.7-0.8-1.1c0,0,0,0,0,0c0,0,0,0,0,0c0,0,0,0,0,0
		c-0.1-0.1-0.2-0.2-0.3-0.4c-0.2-0.3-0.4-0.6-0.4-0.6c-0.9-1.2-1.7-2.4-2.6-3.6C3439.7,55,3437.1,51.6,3434.5,48.2z M3591.2,342
		C3591.2,342,3591.2,342,3591.2,342C3591.2,342,3591.2,342,3591.2,342z"/>
	<path class="accentcolor2" d="M3447,48.4c3.9,0.1,7.8,0.2,11.6,0.2c4.1,3.6,8.1,7.1,12.1,10.7c24.5,22.3,46.3,46.5,63.6,74.9
		c20.1,33,31.9,69.6,48.3,104.4c1.5,3.2,3.1,6.4,4.8,9.6c0.8,1.4,1.7,3.2,2.2,4.1c0.5,0.9,1,1.8,1.5,2.7c0,0,0.7,1.1,1,1.7
		c0,0,0.1,0.1,0.1,0.1c0,0,0,0,0,0c0,0.1,0.1,0.1,0.1,0.1c0,0,0,0,0,0c0,0,0,0,0,0l0,0v0c0,0,0,0,0,0c0.4,0.8,0.9,1.5,1.4,2.2
		c0,0,0,0,0,0c0,0,0,0.1,0.1,0.1c0,0,0,0,0,0.1c0,0,0,0.1,0,0.1v0c0.1,0.1,0.1,0.2,0.2,0.3c0,0,0.7,1.1,1.1,1.6c0,0,0.1,0.1,0.1,0.2
		c0,0,0,0.1,0.1,0.1c0.2,0.3,0.4,0.6,0.6,0.8c0,0,0,0.1,0.1,0.1c0,0,0,0,0,0c0.3,0.3,1.6,2.3,1.8,2.6c0,0,0,0,0,0
		c1.4,1.9,2.9,3.8,4.5,5.6c10.3,11.9,22.7,22.1,36.9,29c17.4,8.4,36.8,11.5,55.8,13c18.1,1.4,36.5,1.9,54.6-0.4
		c17.4-2.2,34.7-7,49.9-16c13.9-8.2,25.7-19.7,35-32.8c21.2-29.9,28.8-66.8,28.7-103c-0.1-35.4-5.9-71.3-16.2-105.2
		c2.4,0,4.9,0.1,7.3,0.1c9.9,26.3,16.3,54,20,81.8c5.1,39.1,5.5,80.6-9.3,117.7c-12.8,32.3-36.9,59.9-70.1,71.9
		c-17.8,6.4-36.9,8.6-55.7,8.8c-19.4,0.2-39.4-1-58.4-5c-18-3.8-34.8-11.1-49.2-22.6c-15.2-12.2-27.2-27.8-37.9-43.9
		c-11-16.5-20.3-33.9-28.3-52c-8-17.9-14.9-36.3-22.8-54.2c-3.8-8.5-7.8-17-12.4-25.1c-1.1-1.9-1.2-2.2-2.2-3.7c0,0,0,0,0,0
		c0,0,0,0,0,0c-0.2-0.2-1-1.5-1.3-2.1c0,0,0,0,0,0c0,0-0.1-0.1-0.1-0.1c0,0,0,0,0,0c-0.1-0.1-0.1-0.2-0.2-0.3
		c-0.1-0.2-1.1-1.5-1.2-1.7c0,0,0,0,0,0c0,0,0,0,0,0c-0.2-0.3-0.4-0.6-0.6-0.9c-1.7-2.4-1.5-2-3.2-4.2
		c-9.1-11.6-19.5-22.2-30.3-32.3C3476.9,74.2,3461.8,61.5,3447,48.4z"/>
	<path class="accentcolor2" d="M3403.3,550.9c0.2-7.4,0.4-14.9,0.5-22.4c9.4-0.6,19.2-2.2,26.6-7.9c4.9-3.8,7.9-9.5,8-15.8c0-3-0.5-6-1.5-8.8
		c-0.4-1.3-1-2.6-1.5-3.9c-0.1-0.2-0.1-0.3-0.2-0.4l-0.4-0.6c-1.2-1.6-2.3-3.2-3.5-4.8c-2.5-3.4-4.9-6.8-7.4-10.2
		c-4.7-6.4-9.3-12.8-14-19.1c-2.2-3-4.4-5.9-6.6-8.9c-0.1-1.8-0.1-3.6-0.2-5.4c3.9,5.2,7.7,10.5,11.6,15.8
		c10.8,14.8,22.4,29.5,31,45.7c6,11.2,11.3,26.2,0.8,36.5c-8.7,8.5-22.5,9.3-33.9,9.9C3409.5,550.8,3406.4,550.9,3403.3,550.9z"/>
	<path class="accentcolor2" d="M3117.7,86.6l-10.9-6.3c-11.9-14-23.8-27.9-35.8-41.8c1.9,0.1,3.9,0.2,5.8,0.2c9.9,11.6,19.8,23.2,29.7,34.8
		C3110.3,77.8,3114,82.2,3117.7,86.6z"/>
	<path class="accentcolor2" d="M3532.6,50.1c1,0,2.1,0,3.1,0.1c9.7,15.6,19.4,30.7,31.1,46.1c13.2,17.3,28.1,33.5,45,47.2
		c32.5,26.2,74.8,43.4,117,38.2c19.6-2.4,41-9.6,53.7-25.5c12.6-15.8,13.9-36.9,11.5-56.2c-1.9-15.3-5.6-30.5-9.9-45.5
		c2.7,0,5.4,0.1,8.1,0.1c5.2,16.8,9.9,33.8,13.5,51c3.9,19,6.1,40-1.1,58.5c-7.8,19.9-26.4,31.1-46.3,36.4
		c-41.2,11-85.5-2.2-120-25.6c-38.4-26-66.7-64.6-91.9-102.9C3541.8,64.7,3537.2,57.4,3532.6,50.1z"/>
	<path class="accentcolor2" d="M3341.7,46.3c1.6,0,3.2,0.1,4.7,0.1c36.4,46.5,68.9,96.1,97.2,148c24.9,45.5,47.2,92.4,73.1,137.4
		c3.4,5.9,5.5,9.6,8.7,14.9c1.6,2.6,3.2,5.2,4.8,7.8c0.5,0.7,0.9,1.5,1.4,2.2c0,0,0.1,0.2,0.2,0.4c0,0,0,0,0,0c0,0,0,0,0,0
		c0,0,0,0,0,0c0,0,0,0,0,0c0,0,0,0,0,0.1c0,0,0.1,0.1,0.1,0.1c0,0,0,0.1,0.1,0.1c0,0,0,0,0,0c0,0.1,0.1,0.1,0.1,0.2
		c0,0,0,0.1,0.1,0.1c0,0,0,0,0,0c0.3,0.4,0.6,0.9,0.6,1c0.6,0.9,1.2,1.8,1.8,2.7c1.5,2.4,3.1,4.7,4.6,7.1c0,0,0,0,0,0
		c0,0,0,0.1,0.1,0.1v0c0,0.1,0.1,0.1,0.2,0.3c0.3,0.5,0.9,1.3,1.1,1.6c1.1,1.6,2.2,3.2,3.3,4.8c3.4,4.9,5.9,8.4,9.9,13.7
		c14.6,19.4,31.2,38,49.6,54.3c44.2,39.2,98.9,62.2,152.3,85.8c57.5,25.5,117,49.3,180.3,54.8c30.8,2.7,62.2,1,92.2-7
		c12.9-3.5,26.5-8,35.9-18c8.8-9.4,12.6-22.6,12.8-35.3c0.2-14.4-4.2-28.3-9.3-41.6c-5.5-14-11.3-27.8-15.8-42.2
		c-8.7-28.2-13.5-57.4-16.2-86.8c-5.6-59.8-3.2-120.1-9.3-179.9c-4.1-39.6-12.7-78.7-27.3-115.6c1.9,0,3.7,0.1,5.6,0.1
		c10.9,24,19.7,49,25.8,74.8c14.2,59.5,13.7,121,15.8,181.8c1.1,30.2,2.8,60.4,7.3,90.3c4.5,30,12.5,58.8,23.9,86.9
		c10,24.6,20.8,53.7,7.7,79.3c-6.4,12.5-18.1,19.7-31,24.3c-14.5,5.1-29.8,8.1-45,9.9c-62.9,7.5-125.6-8.4-183.9-30.9
		c-29.8-11.5-58.8-24.6-87.9-37.7c-28-12.6-56.1-25.6-82-42.3c-45.3-29.1-81.1-69.8-111.3-113.9c-31-45.2-56.3-93.9-81.5-142.5
		c-11.8-22.9-23.7-45.8-36.3-68.2c-7-12.3-13.8-23.9-21.5-36c0,0,0,0,0,0c0,0,0,0,0-0.1c-0.3-0.4-1.6-2.5-1.8-2.8
		c-0.9-1.5-1.9-2.9-2.8-4.4c-2.1-3.3-4.3-6.6-6.5-9.9c0-0.1-0.3-0.5-0.6-0.9v0c0,0,0-0.1-0.1-0.1c0,0,0,0,0,0c0,0,0,0,0-0.1
		c0,0,0,0,0,0c0,0,0,0,0-0.1c0-0.1-0.1-0.1-0.1-0.1c-0.4-0.5-0.9-1.4-1-1.4c-1-1.4-1.9-2.9-2.9-4.3c-2.2-3.3-4.5-6.5-6.7-9.8
		C3369.5,81.5,3355.9,63.7,3341.7,46.3z"/>
	<path class="accentcolor2" d="M3398.7,47.4c1,0,2.1,0,3.1,0.1c20.5,32.8,38.8,67,55.8,101.7c22.3,45.4,42.9,91.7,65.8,136.9
		c11.1,21.9,23.1,44.2,35.4,64.4c6,9.8,11.5,18.4,18,27.8c3.2,4.7,5.6,8,9.4,13.1c3.3,4.4,6.8,8.7,10.3,13
		c15.2,18,32.7,33.9,52.7,46.3c21.3,13.1,44.7,22.6,68.4,30.5c48.1,15.9,98.9,23.8,149.6,23.4c25.2-0.2,50.5-2.3,75.3-6.7
		c9.6-1.7,19.6-4.1,27.6-9.9c9.3-6.7,12.3-16.9,12.3-28c0-27.1-1.6-54.4-2.5-81.5c-0.9-27.5-1.7-55-2.6-82.5
		c-1.6-52.7-2.2-105.9-11.5-158c-4.6-25.5-11.5-50.5-20.8-74.7c-0.8-2.1-1.6-4.2-2.5-6.3c1.9,0,3.9,0.1,5.8,0.1
		c8.6,20.1,16.5,40.5,22.5,61.6c14.6,51.1,17.6,104.5,19.4,157.3c1.9,55,3.4,109.9,5.1,164.9c0.4,13.5,1.3,27,1.2,40.5
		c-0.1,10.8-2.6,21-11.5,27.9c-7.8,6-17.8,8.6-27.4,10.3c-12.1,2.2-24.4,3.8-36.7,4.9c-51,4.7-102.7,1-152.4-10.9
		c-47.3-11.3-96.3-28.9-133.4-61.3c-18.5-16.1-34.3-35.1-48.6-54.9c-16.1-22.2-30.7-45.3-44.5-69c-25.9-44.7-47.9-91.5-69.9-138.3
		c-20.4-43.4-40.9-86.8-65.1-128.2c-2.2-3.7-5.3-8.9-8.2-13.6C3398.9,47.9,3398.8,47.7,3398.7,47.4z"/>
	<path class="accentcolor2" d="M3647.5,52.1c4.7,0.1,9.4,0.2,14.1,0.2c-3.9,0.1-7.7,0-11.4-0.1C3649.3,52.2,3648.4,52.2,3647.5,52.1z"/>
	<path class="accentcolor2" d="M3583,51c1.6,0,3.2,0.1,4.8,0.1c10.9,13.1,22.3,25.7,35.4,36.3c20.9,16.9,48.7,28.8,75.9,22.2
		c11.7-2.8,23.1-9.4,29.5-19.8c6.6-10.6,7.3-24,6.8-36.3c4,0.1,8,0.1,12,0.2c2,11,2.8,22.2,2,33.4c-0.9,14-5.3,26.8-16.9,35.4
		c-23.7,17.5-56.6,11.1-80.4-2.8c-26.7-15.6-46-41.1-65.5-64.4C3585.5,54,3584.3,52.5,3583,51z"/>
	<path class="accentcolor2" d="M3502.9,49.5c1.6,0,3.1,0.1,4.7,0.1c14.5,18.8,27.9,38.5,40.3,58.7c15.6,25.4,28.6,51.8,41.4,78.6
		c2.7,5.6,5.7,11.6,8.4,16.4c0.1,0.1,0.3,0.5,0.4,0.8c0,0,0,0.1,0,0.1c0,0,0,0,0,0.1c0,0,0,0,0,0c0,0,0,0,0,0.1c0,0,0,0,0,0.1
		c0.2,0.4,0.5,0.7,0.7,1.1c-0.1-0.3-0.2-0.4-0.2-0.4c0.1,0,1.6,2.4,1,1.6c0,0,0.1,0.1,0.1,0.1c0.2,0.2,0.3,0.4,0.4,0.5c0,0,0,0,0,0
		c0,0,0,0.1,0.1,0.1c0,0,0,0.1,0.1,0.1c0,0,0,0,0,0c0.9,1.2,1.9,2.4,2.9,3.5c9.2,10.4,21.1,18.2,34.3,22.7
		c26.8,9.1,56.2,6.5,83.8,4.1c26.4-2.3,55-5.6,76.9-21.9c21.8-16.2,30.8-42.8,32.8-69c2.2-28.3-2.4-57.6-10-84.8
		c-0.7-2.4-1.4-4.8-2.1-7.2c2.3,0,4.7,0.1,7,0.1c9.6,24.9,16,50.9,18.6,77.6c2.6,26.6,1.8,55.5-10.8,79.7
		c-13.3,25.7-38.8,38-66.2,43.2c-14,2.7-28.3,3.8-42.5,4.9c-14.5,1.1-29.2,1.9-43.7,0.8c-13.9-1.1-27.8-4-40.3-10.1
		c-13-6.3-23.6-16.2-32.5-27.6c-10.9-14-20.1-29.4-28-45.3c-6.4-12.9-12.1-26-18.6-38.8c-6.3-12.5-13-24.3-19.6-35.1
		c-0.9-1.4-1.8-2.9-2.7-4.3v0c0,0,0,0,0,0c0,0,0,0,0,0c0,0,0,0,0-0.1c0,0,0,0,0-0.1c0,0,0-0.1-0.1-0.1c0,0,0-0.1-0.1-0.1
		c-0.5-0.8-1.5-2.3-1.6-2.6c-0.9-1.4-1.8-2.8-2.7-4.2c-0.5-0.7-0.9-1.4-1.4-2.1c-0.1-0.2-0.2-0.4-0.3-0.5h0c0,0,0,0,0,0c0,0,0,0,0,0
		c0,0,0,0,0,0c0,0,0-0.1-0.1-0.1c0-0.1-0.1-0.1-0.1-0.1c0,0,0-0.1-0.1-0.1c0,0,0,0,0,0c0,0,0,0,0,0c-0.1-0.1-0.2-0.2-0.3-0.4
		c-4.4-6.5-7.5-10.9-11.6-16.5C3515.4,65,3509.3,57.2,3502.9,49.5z"/>
	<path class="accentcolor2" d="M4793.6,419.3"/>
	<path class="accentcolor2" d="M4793.6,419.3"/>
	<path class="accentcolor2" d="M4324.3,335.4c-3.8-6.6-8-14.1-7.7-21.7c0.2-5.8,4-12.6,10.4-13.1c7.1-0.5,13.1,6.1,17.3,11
		c7,8.2,13,17.4,18.1,26.9c6.6,12.4,10.2,25.9,13.9,39.4c1.8,6.6,3.6,13.2,6.2,19.5c1.1,2.8,2.3,5.5,3.7,8.1
		c0.9,1.7,1.6,2.7,2.9,4.8c0.1,0.2,0.4,0.5,0.5,0.8c0.3,0.4,0.6,0.9,0.9,1.3c0.9,1.3,1.8,2.6,2.7,3.9c2.6,3.7,5.1,7.5,7.6,11.2
		c4.9,7.4,9.6,15,13.7,22.9c3.3,6.4,6.2,13.1,7.9,20.1c1.4,5.7,3.5,14.7-1.6,19.1c-5.1,4.3-13.8,4.2-19.9,3.2
		c-7.1-1.2-13.9-4.2-19.7-8.3c-6.9-4.8-12.4-11.3-17.3-18c-6.5-8.7-12.3-18.1-17-27.9C4331.4,407,4324.4,370.7,4324.3,335.4z
		 M4359.6,455.6c0,0-0.1-0.1-0.1-0.1c-0.5-0.6-0.9-1.8-0.7-0.8c0.2,0.7,2.7,4.6,1.3,1.8C4360,456.3,4359.8,456,4359.6,455.6z
		 M4359.6,455.6c1.1,1.3,2.3,2.5,3.6,3.7c9.3,8.5,22.3,13.8,35,11.8c6.6-1,11.7-4.2,11.5-11.5c-0.2-5.6-1.6-11.4-3.6-16.6
		c-0.9-2.4-1.9-4.7-3.1-7c-0.2-0.3-0.4-0.8-0.8-1.6c0.1,0.1-0.5-0.8-0.6-1c-0.1-0.2-0.2-0.3-0.2-0.4c0,0-0.1-0.1-0.1-0.1
		c-0.8-1.2-1.5-2.3-2.3-3.5c1.5,2.3-1.1-1.6-1.4-2.1c-1.8-2.6-3.6-5.2-5.4-7.9c-8.3-12.3-16.7-24.9-22.4-38.7
		c-4.5-10.9-7.3-22.3-10.4-33.6c-1.7-6.1-3.5-12.2-6-18c-0.1-0.3-0.3-0.6-0.4-0.9c-0.9-0.9-1.9-1.9-3-2.7c-6-4.6-13.2-4.2-17.1,2.7
		c-0.9,1.7-1.5,3.4-1.7,5.1c1.8,2.6,3.5,5.3,5,8c0.8,1.4,2.7,3.8,2.6,5.4c-0.9,29.5,3.2,59.2,12.4,87.3c2.1,6.4,4.4,12.8,7.3,19
		C4358.8,454,4359.2,454.8,4359.6,455.6z M4401.9,434.2c0,0,0-0.1-0.1-0.1C4401.9,434.1,4401.9,434.1,4401.9,434.2z M4401.9,434.2
		c0.1,0.1,0.1,0.2,0.2,0.4C4402.1,434.5,4402,434.4,4401.9,434.2z M4401.8,434.1C4401.8,434.1,4401.8,434.1,4401.8,434.1
		C4401.8,434.1,4401.8,434.1,4401.8,434.1z M4401.8,434c0-0.1-0.1-0.1-0.1-0.2C4401.8,433.9,4401.8,434,4401.8,434z M4401.3,433.1
		C4401.5,433.4,4401.4,433.3,4401.3,433.1C4401.1,432.8,4400.8,432.3,4401.3,433.1z M4352.9,328.3c0.1,0.1,0.3,0.3,0.4,0.4
		c0.6,0.6,2.1,2.8,1.1,1c-0.6-1.1-1.7-3.4-2.7-4.2c0,0,0,0.1,0,0.1C4352,326.5,4352.4,327.4,4352.9,328.3z M4351.6,325.5
		C4351.2,324.5,4351.4,325.4,4351.6,325.5C4351.6,325.5,4351.6,325.5,4351.6,325.5z M4331,333.5c-0.1-0.2-0.2-0.3-0.3-0.5
		c-1.4-2-3-4.5-4.7-6.2c-0.5-0.4-1.5-1.8-1.5-0.6c-0.1,3-0.1,6.1-0.1,9.1c0.4,0.8,0.9,1.5,1.3,2.3c2.8,4.9,6,10.7,10.1,14.7
		c3.6,3.5-0.6-4.2-1-4.9C4332.2,343.1,4330.4,338.3,4331,333.5z M4389.6,411.1c-0.2-0.2-0.3-0.4-0.5-0.7
		C4389.9,411.6,4389.9,411.5,4389.6,411.1z"/>
	<path class="accentcolor2" d="M4213.1,60.7c1.1,0,2.1,0,3.2,0c11.4,18.5,22,37.5,30.1,57.7c9.2,23,15.4,47.1,21.2,71.2
		c12,50.2,25.7,99.8,41.6,149c15.8,49,32.5,97.8,50.5,146.1c2,5.4,4.1,10.7,6.5,15.9c1,2.2,2.1,4.3,3.1,6.4c0,0.1,0.1,0.1,0.1,0.2
		c6.5,7.3,14,13.6,23.1,17.6c17.5,7.7,37.5,4.4,50.4-10c11.2-12.6,16-30.5,15.1-47.1c-0.5-9.4-3.1-18.5-7-27.1
		c-0.7-1.6-1.7-3.6-2.3-4.7c-0.2-0.4-0.5-0.9-0.7-1.3c0-0.1-0.1-0.1-0.1-0.2c0,0,0,0,0-0.1v0c0,0,0-0.1-0.1-0.1
		c-0.1-0.2-0.3-0.4-0.4-0.7c0,0,0,0,0,0c0,0,0,0,0,0c0,0,0-0.1-0.1-0.1c-0.1-0.2-0.3-0.4-0.4-0.6c0,0,0,0,0,0c0,0,0,0,0,0
		c-0.3-0.4-0.7-1-0.9-1.3c0,0-0.1-0.1-0.1-0.1c0,0,0,0,0,0c0,0,0,0,0,0c-0.2-0.3-0.5-0.7-0.5-0.7c-0.4-0.5-0.8-1-1.1-1.5
		c-1.6-2.1-2.9-3.8-4.6-5.9c-13.9-17.4-29-33.8-42.3-51.6c-14.2-19-27.2-38.9-39.3-59.4c-22.4-37.9-41.2-77.6-58.7-117.9
		c-17.2-39.7-33.2-79.9-50.7-119.4c-2-4.5-4-9-6-13.5c1.7,0,3.3,0,5,0.1c18,38.3,34,77.5,50.4,116.6c17.2,40.9,34.8,81.8,55.9,120.8
		c2.2,4,4.9,8.9,7.4,13.3c3,5.3,4.2,7.3,7.2,12.2c1.4,2.3,2.8,4.5,4.2,6.8c0.1,0.2,0.2,0.3,0.3,0.4c0,0,0,0,0,0c0,0,0,0,0,0.1
		c0,0,0,0,0,0c0.3,0.4,0.5,0.8,0.8,1.2c0.8,1.2,1.6,2.4,2.3,3.6c0.8,1.2,1.6,2.4,2.4,3.6c0.2,0.2,0.5,0.8,0.8,1.2c0,0,0,0,0,0
		c0,0,0.1,0.1,0.1,0.1c0,0,0,0,0,0c0,0,0,0.1,0.1,0.1c0,0,0,0.1,0.1,0.1c0,0,0,0,0,0.1c0.1,0.1,0.1,0.1,0.1,0.2c0,0,0,0,0,0.1
		c0,0,0,0,0,0c1.5,2.2,2.9,4.3,4.4,6.4c0.5,0.7,0.9,1.3,1.4,2c0,0,0.3,0.4,0.5,0.7c0,0,0,0,0,0.1v0c0,0,0,0,0,0v0c0,0,0,0,0,0.1
		c0,0,0,0,0,0c0,0,0.1,0.1,0.1,0.1v0c0,0,0,0,0,0c0.4,0.5,1.2,1.6,1.4,2c1.7,2.3,3.4,4.6,5.1,6.9c2.9,3.8,6.1,8,9.4,12
		c7.2,8.9,14.7,17.4,22.1,26.1c16.8,20,33.4,42.1,42.7,66.7c6.5,17.2,7.4,35.9,0.9,53.4c-5.9,15.8-18.3,29.3-35.6,31.9
		c-22.9,3.5-43-11.9-56.1-29c-9.3-12.1-17.2-25.4-23.5-39.4c-5-11.1-8.9-22.6-12.9-34c-9-25.5-18.1-50.9-26.8-76.5
		c-17.4-50.8-33.9-102-47.6-154c-12.7-48.2-20.7-99.6-44.6-143.4c-1.3-2.4-2.6-4.7-4-7c-0.6-1.1-1.2-2.2-1.9-3.2c0,0,0-0.1-0.1-0.1
		c0,0,0,0,0-0.1c0,0-0.1-0.1-0.1-0.2c0-0.1-0.1-0.1-0.1-0.2c0,0,0,0,0,0h0c0,0,0,0,0,0c0,0,0,0,0,0v0h0v0c0,0,0,0,0,0
		c-0.4-0.7-0.8-1.4-1.3-2.1C4213.2,60.9,4213.2,60.8,4213.1,60.7z"/>
	<path class="accentcolor2" d="M3284.3,45.1c1.2,0,2.3,0.1,3.5,0.1c8.6,12.1,17,24.4,25.3,36.7c35.5,52.7,68.8,106.9,99.4,162.5
		c15.1,27.5,29.7,55.3,43.5,83.5c13.8,28,26.4,56.5,39.5,84.8c5.3,11.5,10.4,21.7,18.3,30.9c9.4,10.9,20.3,20.5,31.8,29.2
		c24.4,18.4,51.5,33.3,79.3,45.9c58.6,26.6,121.2,44.4,182.4,64.1c32.5,10.4,64.9,21.2,97.5,31.3c30.8,9.5,62,16.1,94.2,17.2
		c31.6,1.1,63.4-2.5,93.9-10.7c7.4-2,14.9-4.1,22.1-6.8c5.8-2.2,10.6-5.9,12.9-11.8c4.5-11.7-0.9-25.3-5.1-36.3
		c-22.6-60.4-39.6-122.9-50.7-186.4c-11.2-64.1-16.1-129.2-15.2-194.3c0.4-33.5,1.7-67.2-3-100.5c-1.2-8.7-2.9-17.4-5.1-26
		c2.5,0,5.1,0.1,7.6,0.1c7.9,21.5,12.2,44,13.9,67c2.6,34.3,0.5,68.7,0.7,103c0.2,33,2,66.1,5.3,98.9c6.7,66,19.8,131.4,39.1,194.9
		c4.8,15.8,9.9,31.5,15.5,47.1c4.7,13.3,11.6,26.9,12.6,41.1c0.4,5.3-0.1,11-2.7,15.7c-3.4,6.1-9.6,8.6-15.9,10.7
		c-15.3,5.1-30.9,9-46.8,11.7c-32,5.4-64.8,6-97,1.7c-33.5-4.6-65.5-15.5-97.6-25.8c-33.5-10.8-66.9-21.5-100.4-32.3
		c-30.8-9.9-61.6-19.6-92-30.7c-29.6-10.8-58.8-22.9-86.5-38.1c-26.5-14.5-52.2-31.5-73.2-53.4c-24-24.9-40.2-55.6-54.2-86.9
		c-12.9-28.7-26.2-57.2-40.4-85.4c-27.9-55.4-58.7-110.1-91.6-162.2C3325.8,104.9,3305.5,74.7,3284.3,45.1z"/>
	<path class="accentcolor2" d="M3230.2,43.8c1.2,0,2.4,0.1,3.6,0.1c5.3,7.2,10.6,14.4,15.8,21.6c22.7,31,45.1,62.2,65.6,94.7
		c21.5,33.9,40.6,69.2,59.5,104.6c34.3,64.4,68.2,128.7,118,182.7c46.3,50.1,101.6,91.3,161.1,124.4c60.7,33.7,125.8,59,192.6,77.6
		c71.5,19.9,146.3,34.1,220.6,36c39.9,1,80.1-2.1,119-11.7c9-2.2,18.8-4.2,27.2-8.3c9.4-4.6,9.6-12.4,7-21.6
		c-5-17.2-13-33.4-22.5-48.6c-20-32.2-42.8-62.2-60.3-95.9c-17.4-33.6-30.7-69.4-39.1-106.3c-8.6-37.6-12.1-76.3-10.4-114.8
		c1.9-42,9.4-83.4,12.8-125.3c2.5-31.2,2.5-63.1-3.9-93.9c2.9,0,5.9,0.1,8.8,0.1c2.4,7.5,4.4,15.2,5.9,22.9
		c16.4,83.2-12.3,166.7-9.5,250.2c2.6,77.1,25.9,153.8,68.9,218c22,32.9,46.4,65.4,60,103c2.7,7.6,7.8,18.2,4.7,26.3
		c-3,7.8-13.4,9.9-20.5,11.9c-20.1,5.9-40.8,10-61.6,12.5c-79.7,9.7-161.4-2.2-239.3-19.5c-69.3-15.4-137.4-37.6-201.6-67.9
		c-63.9-30.2-124.2-68.9-176.1-117.1c-57.2-53.1-101-117.3-138.8-185.2c-19.7-35.3-38-71.4-57.6-106.8
		c-18.6-33.5-39.1-65.6-61.2-96.8C3262.8,88.2,3246.4,66.1,3230.2,43.8z"/>
	<path class="accentcolor2" d="M3393,342.3c-0.5-2.4-1.1-4.8-1.7-7.2c23.4,36.2,46.8,72.3,71.4,107.6c42.4,60.8,89.5,119.1,146.4,167
		c67.4,56.7,148,96,233.2,118.1c87,22.6,178.7,27.2,267.5,13.2c21.8-3.4,43.4-8,64.7-13.7c18.6-5,37.4-11.2,53.7-21.7
		c16.8-10.9,29.2-26.5,34.9-45.9c5.8-19.9,4.8-41.1,0.9-61.3c-6.7-34-22.7-64.8-41.3-93.7c-20.2-31.3-42.3-61.5-61-93.7
		c-18.5-31.9-34-66.2-38.3-103.2c-5.2-44.6,3.9-89.1,10.6-133c5.8-38.1,9.8-77.3,1.5-115.1c2.8,0,5.6,0.1,8.5,0.1
		c3.5,10.1,6.1,20.5,7.8,31.1c0.3,1.9,0.6,3.8,0.8,5.6c-0.7-7.9-1.6-15.7-2.9-23.6c-0.7-4.4-1.5-8.8-2.4-13.1c3.1,0,6.2,0.1,9.3,0.1
		c4.5,16.6,7.8,33.5,9.6,50.6c3.3,30.9,2.5,62.1,2.4,93.2c-0.1,31,0.2,62.2,6,92.7c2.9,15.1,7,29.9,13.1,44.1
		c2.7,6.3,5.7,12.4,8.9,18.4c1.6,2.8,3.1,5.5,4.4,7.6c0.5,0.8,1,1.6,1.5,2.4c0.1,0.1,0.5,0.8,0.8,1.2c0,0,0,0,0,0.1c0,0,0,0,0.1,0.1
		l0.2,0.3l0.1,0.1l0.4,0.6c0.8,1.2,1.5,2.4,2.3,3.5c0.1,0.1,0.5,0.8,0.7,1.1v0c0,0,0,0,0,0c0,0,0,0,0,0v0c0,0,0,0,0,0
		c0.4,0.6,0.8,1.2,1.2,1.8c0.9,1.4,1.8,2.7,2.8,4.1c2.3,3.3,3.8,5.4,5.9,8.4c4.4,6.1,8.9,12.2,13.4,18.2
		c9.2,12.3,18.4,24.6,27.1,37.2c18.3,26.5,35.5,54.7,45.5,85.6c4.5,14,7.3,28.5,7.5,43.2c0.3,15.1-2.2,30.1-4.9,44.9
		c-2.9,15.6-6.4,31.3-7.2,47.2c-0.4,7.7-0.2,15.5,1.1,23.1c0.2,1.1,0.4,2.3,0.6,3.4c12.8,6.1,29.6-5.1,40.1-11.6
		c12.8-7.8,24.8-17,36.6-26.2c24.3-18.8,49.3-35.7,77.2-48.7c14.1-6.6,28.6-12.3,43.3-17.4c14.3-4.9,29.2-8.7,42.6-15.8
		c11.9-6.3,22.5-15.6,27.8-28.3c2.6-6.3,3.7-13.1,2.5-19.8c-0.3-1.7-0.7-3.5-1.3-5.2c-0.3-0.8-0.9-1.7-1.1-2.5
		c-0.5-0.6-1-1.3-1.5-1.9c-21.2-27-42.4-53.9-63.7-80.9c-21.2-26.9-42.6-53.7-61.5-82.2c-18.9-28.4-34.3-58.6-48.6-89.4
		c-14.2-30.6-28.2-61.2-42.3-91.9c-16.6-36.2-34.1-72.4-49.2-109.4c2.1,0,4.2,0.1,6.3,0.1c11.1,29,24,57.3,36.9,85.5
		c14.2,31,28.5,62,42.7,93c13.5,29.5,26.4,59.5,42.2,87.8c3.6,6.5,7.2,12.5,10.7,17.8c3.6,5.6,7.5,11.2,11.7,17.1
		c9.3,12.8,19,25.3,28.8,37.7c21.2,26.9,42.4,53.9,63.6,80.8c11.5,14.6,23.5,28.9,32.6,45.1c7.1,12.5,11,25.6,5.5,39.4
		c-11.5,28.6-44.6,35.7-70.7,44.6c-29.4,10.1-58,23-84.2,39.8c-25.5,16.3-47.7,37.2-73.6,52.9c-11.3,6.8-27.3,17.3-40.7,10.8
		c-7.5-3.6-12.5-12.3-16.8-19c-4.2-6.7-8.1-13.7-10.1-21.5c-7.4-29.6,3-61.1,7.6-90.3c2.4-15.2,3.3-30.4,1.2-45.7
		c-2-14.6-6.2-28.8-11.9-42.4c-2.8-6.7-6-13.2-9.4-19.6c-1.4-2.6-3.1-5.4-4.1-7.2c-0.9-1.5-1.8-3-2.8-4.5c0,0,0,0,0,0
		c0,0,0-0.1-0.1-0.1c-0.3-0.5-1.7-2.7-2-3.2c-0.5-0.8-1-1.6-1.5-2.4c-0.3-0.4-0.5-0.7-0.6-0.9c0,0,0-0.1-0.1-0.1c0,0,0,0,0-0.1
		c0,0,0,0,0,0c0,0,0,0,0,0c0,0,0,0,0,0c0,0,0,0,0,0c0,0,0-0.1,0-0.1c0,0,0,0,0-0.1s0,0,0,0c0,0,0,0,0,0c0,0,0,0,0,0c0,0,0,0,0,0
		c-0.9-1.3-1.8-2.6-2.7-3.9c-2.1-3-3.7-5.3-5.5-7.7c-4.4-6.1-8.9-12.1-13.4-18.2c-19.5-26-38.9-52.2-54.5-80.8
		c-15-27.5-24.6-56.8-28.6-87.9c-5.1-40.3-2.8-80.9-3.2-121.5c-2.4,75.3-32.1,150.2-9.9,225.1c10.2,34.5,29.3,65,49.3,94.6
		c22,32.6,44.9,64.9,62.4,100.3c16.6,33.4,29.2,71.7,24.1,109.4c-2.8,20.9-12.1,40-28.4,53.7c-15.3,12.8-34.4,20.3-53.3,26
		c-88.3,26.3-184.2,30.7-275.1,17c-92-13.9-182.8-47-259.5-100.1c-64-44.3-117-102.2-163.9-164
		C3461.9,448.7,3427.4,395.5,3393,342.3z"/>
	<path class="accentcolor2" d="M3315,220.7c-0.1-0.1-0.3-0.2-0.4-0.4c-3.1-2.9-6.3-5.7-9.5-8.5c-25-34.2-51.5-67.1-80.8-97.9
		c-23.4-24.5-47.7-48.2-71.1-72.5c2.5,0.1,5,0.2,7.5,0.2c9.7,9.6,19.4,19.1,28.9,28.6C3235.9,116.9,3277,167.4,3315,220.7z"/>
	<path class="accentcolor2" d="M4354.5,62.7c1.9,0,3.7,0.1,5.6,0.1c22,51.2,42.6,103,67.8,152.8c6.3,12.5,12.7,24.4,19.5,36.4
		c3.7,6.4,5.8,10,9.8,16.5c0.9,1.4,1.8,2.9,2.7,4.3c0.1,0.1,0.3,0.5,0.5,0.8c0,0,0,0,0,0c0,0,0,0,0,0c0,0,0,0,0,0c0,0,0,0,0,0.1
		c0,0,0,0,0,0.1c0,0,0,0,0,0c0,0,0.1,0.1,0.1,0.2c0,0,0,0,0,0.1c0,0.1,0.1,0.1,0.1,0.2c0,0,0,0,0,0.1c0,0,0,0.1,0,0.1
		c0.2,0.4,0.5,0.7,0.5,0.8c1.9,3,3.9,6,5.9,9c0.1,0.1,0.1,0.2,0.2,0.3c0,0,0,0,0,0c0.1,0.1,0.1,0.2,0.2,0.2c0,0.1,0.1,0.1,0.1,0.2
		c0.1,0.1,0.2,0.3,0.3,0.4c0,0,0,0,0,0c0.3,0.4,0.6,0.8,0.8,1.2c0.9,1.4,1.9,2.8,2.9,4.2c1,1.4,1.9,2.8,2.9,4.1
		c0.7,1,1.2,1.7,2.6,3.6c3.9,5.4,7.7,10.3,11.7,15.5c8.5,10.8,17.6,21.1,27.1,31c19,19.7,40.2,36.5,62.5,52.3
		c10.5,7.4,20.8,15,30,23.9c11.7,11.2,21.2,24.9,28.8,39.1c6.8,12.9,9.4,26.3,8.3,40.9c-1.1,15.5-5.6,30.6-5.8,46.2
		c-0.1,6.3,0.4,12.7,1.9,18.8c0.1,0.5,0.3,1.1,0.6,1.7c0.7,0.5,1.4,1,2.1,1.5c12,7.9,27.6,9,41.6,9.4c27,0.8,54.1-3.9,79.3-13.6
		c-14.1,5-30.9,0.9-42.8-7.5c-9.5-6.7-16.6-16.7-22.9-26.3c-6.8-10.4-12.6-21.3-16.8-33c-7.5-20.8-9.8-43.1-17.2-63.9
		c-1.1-3.2-2.3-7.3-4.1-10.6c-0.1-0.1-0.3-0.3-0.6-0.7c-0.9-1.1-2.8-3.4-4.1-4.8c-7-7.6-14.9-14.2-23.1-20.5
		c-16.8-12.9-34.2-24.8-50.5-38.3c-70.3-57.8-129.5-130.4-172-210.9c-3.6-6.9-7.1-13.8-10.4-20.9c-1.6-2.5-3.1-5.1-4.4-7.7
		c-1.6-3.3-2.8-7.5,0.3-10.4c4.7-4.4,8.6,3.9,10.8,7.1c3.4,4.9,5,7.2,7.8,11.2c10.8,14.7,23.7,29.8,36.8,43.6
		c27.1,28.5,57.2,54,88.2,78.2c62.8,49,129.7,93,188.3,147.2c15.7,14.5,31.9,29.3,44.1,46.9c7.9,11.4,14.9,23.4,16.7,37.3
		c1.4,10.6,1.1,21.6,1,32.4c-0.1,17.4-2.1,38.2-18.3,48.5c-1.5,1-3.1,1.8-4.7,2.5c0,0,0,0,0,0c2.7-1.1,5.4-2.2,8-3.4
		c12-5.4,25-11.9,32.8-22.8c9.3-13,6.3-29.2,4.6-44.1c-1.8-15-3.9-30-7.8-44.7c-1.9-7.1-4.2-14.1-7.1-20.9c-1.1-2.7-2.4-5.3-3.8-7.9
		c0-0.1-0.4-0.6-0.6-1.1c0,0.1,0.1,0.2,0.1,0.3c-0.1-0.2-0.2-0.4-0.2-0.5c0,0,0,0,0,0c0,0,0,0,0,0c0,0-0.1-0.1-0.1-0.2
		c-0.1-0.1-0.1-0.2-0.2-0.2c0,0,0,0.1,0.1,0.1c-0.3-0.3-0.5-0.7-0.8-1c-18.3-23.3-43.5-41.3-66.4-60
		c-52.9-43.3-105.9-86.5-158.8-129.8c-26.1-21.3-52.3-42.6-78.3-64.1c-24.1-19.9-47.9-40.4-69.6-63c-11.6-12.1-22.6-24.8-32.9-38
		c1.7,0,3.3,0,5,0.1c0.2,0.2,0.4,0.4,0.5,0.6c21,24.2,44.7,45.9,69.1,66.5c25.5,21.6,51.7,42.6,77.6,63.7
		c53.5,43.7,107.1,87.5,160.6,131.2c13.1,10.7,26.2,21.4,39.3,32.1c11.5,9.4,22.9,19,33.1,29.8c23.3,24.3,41,54.5,48.8,87.4
		c3.5,14.7,5.5,29.8,7.1,44.8c1.7,14.7,3.4,30.1-6.6,42.4c-8.7,10.7-22.2,17.1-34.6,22.4c-14.2,6.1-29.1,10.6-44.3,13.3
		c-15.4,2.8-31.2,3.8-46.8,3c-13.4-0.7-28.1-2.5-39.3-10.6c-7.1-5.2-12.2-12.7-16.9-20c-4.6-7.1-8.8-14.5-11.1-22.6
		c-3.6-12.8-2.6-26.4-0.5-39.4c2.5-16.2,6.4-32.9,2.8-49.2c-0.6-2.9-1.5-5.8-2.6-8.6c-0.2-0.5-0.4-1-0.6-1.5c-0.5-0.6-1-1.1-1.5-1.7
		c-2.2-2.4-4.5-4.7-6.9-6.9c-19.6-18-42.9-31.3-63.1-48.5c-45.4-38.8-81-87.9-111.2-139c-30.6-51.8-54.8-106.9-78.3-162.2
		C4362.3,81,4358.4,71.8,4354.5,62.7z M4793.6,419.3c0,0,0.1,0.1,0.1,0.1C4793.7,419.4,4793.7,419.4,4793.6,419.3L4793.6,419.3
		C4793.7,419.3,4793.6,419.3,4793.6,419.3z M4410.7,138.4c7.8,17.2,17.3,34.8,26.3,49.7c1.3,2.1,2.5,4.1,3.8,6.2
		c-1.4-2.2,0.9,1.5,1,1.5c0.7,1.1,1.4,2.2,2.2,3.3c1.1,1.6,2.1,3.3,3.2,4.9c-0.3-0.4,1.4,2.1,1.5,2.2c1,1.5,2,2.9,3,4.4
		c2.9,4.3,4.4,6.3,7.5,10.5c2.9,4,5.8,7.9,8.8,11.8c24.9,32.2,52.8,62.1,83.3,89.1c14.8,13.2,30.2,25.7,46.2,37.4
		c15.4,11.3,31.3,22.1,44.8,35.8c16.5,16.7,29.9,37.8,37.6,59.9c6.7,19.3,9.3,39.7,15.6,59.1c1.4,4.3,3,8.5,4.9,12.6
		c0.1,0.3,0.7,1.3,1.2,2.2c5.6,6.3,13,11.1,21,13.8c15.5,5.2,33.8,2.8,44.2-10.9c10.9-14.5,9.7-34.5,9.5-51.6
		c-0.1-10.4,0.2-21.5-3.5-31.4c-0.6-0.7-1.1-1.4-1.7-2c-3.3-3.7-6.8-7.2-10.3-10.7c-52.3-52.5-113.5-94.9-172.7-139.1
		c-59.3-44.3-117.2-91.3-162.3-150.5c-4.1-5.4-8.2-11-12.1-16.6c-1.4,0.2-2.5,0.9-3.3,2.1c-0.5,0.7-0.9,1.5-1.1,2.4
		c0,0.1,0,0.3-0.1,0.4C4409.7,136.1,4410.3,137.2,4410.7,138.4z M4447.2,204C4447.2,204,4447.2,204,4447.2,204
		C4447.2,204.1,4447.2,204,4447.2,204z M4447.2,204.1c0,0,0,0.1,0.1,0.1C4447.3,204.2,4447.3,204.2,4447.2,204.1z M4447.3,204.2
		C4447.3,204.2,4447.3,204.3,4447.3,204.2C4447.3,204.3,4447.3,204.2,4447.3,204.2z M4447.2,204.1
		C4447.2,204.1,4447.2,204.1,4447.2,204.1C4447.2,204.1,4447.2,204.1,4447.2,204.1z M4447.4,204.3
		C4447.4,204.3,4447.4,204.3,4447.4,204.3C4447.4,204.3,4447.4,204.3,4447.4,204.3z M4447.4,204.4c0.1,0.1,0.1,0.2,0.2,0.3
		C4447.5,204.5,4447.5,204.4,4447.4,204.4z M4701.5,529.1c-0.1-0.2-0.3-0.3-0.4-0.5c-2.2-2.6-0.1,0.2,0.6,1.2
		C4702.4,530.8,4702,530.1,4701.5,529.1z M4772.6,449c0.7,0.8,1.4,1.7,2,2.3c-2-2-3.8-7-2.3-3C4772.4,448.5,4772.5,448.7,4772.6,449
		z M4413.5,130.1c0.4,0,0.8,0,1.2,0c-2.1-2.4-4.2-4.9-6.2-7.3C4410.2,125.3,4411.8,127.7,4413.5,130.1z M4409,135
		c-0.2-0.4-0.5-0.8-0.7-1.2c-1.6-2.9-3.5-5.7-5.4-8.4c-0.5-0.7-1-1.4-1.5-2.1c-0.2-0.3-2-2.5-3.2-3.7c0.6,0.7,1.1,1.5,1.7,2.2
		c2.8,4.4,5.6,8.9,8.4,13.3c1.4,2.9,0.7,1.5,0.8,0c-0.2-0.4-0.5-0.9-0.7-1.3c-0.5-0.8-0.9-1.5-1.4-2.2c-1.3-2.1-2.6-4.2-4-6.2
		c-0.5-0.7-1-1.4-1.5-2.1c-1-1.3-2.4-3.6-3.9-4.6c0.2,0.3,0.5,0.6,0.7,0.9c-1.1-1.1-1.8-1.4-0.8,0.8c1.1,2.5,2.3,5,3.5,7.5
		c1.4,2.1,2.8,4.2,4.3,6.2c1.6,2.1,3.2,4.6,5.4,6.1c1.2,0.8,0.2-1.3,0.1-1.6c-0.5-1.1-1-2.2-1.6-3.3C4409,135.1,4409,135,4409,135z
		 M4661.5,423.8c0.2,0.2-0.2-0.5-0.7-1.2C4661,423,4661.2,423.4,4661.5,423.8z M4660.8,422.7c-0.3-0.5-0.6-0.9-0.9-1.3
		C4660,421.6,4660.4,422.1,4660.8,422.7z"/>
	<path class="accentcolor2" d="M4179.6,60.3c2,0,4,0.1,5.9,0.1c1.3,3.1,2.6,6.2,3.9,9.4c10.1,24.7,18.5,50.2,23.9,76.3
		c5.8,27.8,7,55.9,8.7,84.1c1.6,27.5,5.2,54.7,12.8,81.3c7,24.5,17.2,49.1,29.8,70.6c0.3,0.5,1.4,2.3,2,3.4c0.5,0.8,0.9,1.5,1.4,2.2
		c0,0,0.1,0.1,0.2,0.3c0,0,0,0,0,0c0,0,0,0,0,0c0,0,0.1,0.1,0.1,0.1c0,0,0,0,0,0v0c0,0,0,0,0,0c0,0.1,0.1,0.1,0.1,0.1c0,0,0,0,0,0
		c0,0,0,0,0,0c0,0,0,0,0,0.1c0,0,0,0,0,0c0,0.1,0.1,0.1,0.1,0.2c0,0,0,0,0,0c0,0,0,0,0,0.1c0,0,0,0,0,0c0.1,0.1,0.2,0.2,0.2,0.3
		c0.5,0.7,0.9,1.4,1.4,2.1c0.9,1.4,1.8,2.8,2.8,4.2c0.3,0.5,0.7,1,1,1.5c0,0,0,0.1,0.1,0.1c0.1,0.2,0.3,0.4,0.3,0.5
		c0.8,1.1,1.6,2.3,2.3,3.5c1.8,2.6,3.6,5.3,5.4,7.9c7.7,11.3,15.4,22.7,22.6,34.5c13.1,21.5,25.1,44.7,28.1,70.1
		c2.5,21.1-0.8,43.2,5.4,63.8c0.1,0.3,0.2,0.6,0.3,0.9c4.3,3.6,9.4,6.2,14.7,7.9c11.9,3.8,25,4.1,37.3,3.5
		c26.4-1.2,52.4-8.5,75.5-21.3c20.5-11.4,40.9-28.6,41.8-53.9c0.4-12.2-3.4-24.3-8.8-35.1c-1.2-2.3-2.3-4.3-3.1-5.7
		c-0.3-0.6-0.7-1.1-1-1.7c0,0,0,0,0,0c0,0,0,0,0,0c0,0,0,0,0,0c0,0,0-0.1-0.1-0.1c0,0,0-0.1-0.1-0.1c0,0,0,0,0-0.1c0,0,0,0,0,0
		c0-0.1-0.1-0.2-0.2-0.3c-0.4-0.6-0.7-1.1-1.1-1.7c-0.1-0.2-0.2-0.4-0.3-0.5l0,0c0,0,0,0,0,0c0,0,0-0.1-0.1-0.1
		c-0.1-0.1-0.1-0.2-0.2-0.4c-1.7-2.6-3.5-5.2-5.3-7.7c0-0.1-0.1-0.1-0.1-0.2c0,0,0,0,0-0.1c0,0,0,0,0-0.1c0,0,0-0.1-0.1-0.1
		c0-0.1-0.1-0.1-0.1-0.1c0,0,0-0.1-0.1-0.1c0,0,0,0,0,0c0,0,0,0,0,0c-0.8-1.1-1.5-2.2-2.3-3.3c-1.1-1.6-2.2-3.1-3.3-4.7
		c-16.9-23.9-33-48.4-48.6-73.2c-30.4-48.3-58.5-98.1-84.9-148.8c-25.7-49.3-50.3-99.3-71.8-150.5c-2.5-6-5-12.1-7.4-18.1
		c2.1,0,4.2,0.1,6.3,0.1c0.5,1.2,0.9,2.5,1.4,3.7c20.1,52.3,44.2,103,69.5,152.9c25.3,50,52.4,99.5,81.3,146.7
		c7.7,12.6,13.7,22.1,21.7,34.4c7.9,12.3,14.2,21.6,22.6,33.8c16.4,23.8,35.9,47.7,46,75.7c4.1,11.3,6.2,23.4,3.7,35.4
		c-2.5,11.8-9.4,21.8-18.1,29.9c-18.8,17.3-44.5,27.9-69.2,33.3c-13.1,2.9-26.6,4.2-40,4c-12.1-0.2-24.7-1.6-35.5-7.4
		c-13.1-7-21.9-21.4-28.7-34.1c-5.1-9.5-7.7-19.7-8.7-30.5c-2.2-22.6,0.1-45.1-6.7-67.2c-3.4-11-8.5-21.5-14-31.1
		c0-0.1-0.2-0.3-0.3-0.6c0,0,0-0.1-0.1-0.1c0,0,0,0,0,0c0,0,0,0,0-0.1c0,0,0-0.1-0.1-0.1c0,0,0,0,0-0.1c0,0-0.1-0.1-0.1-0.1
		c0,0,0,0,0,0c-0.2-0.4-0.5-0.8-0.7-1.1c-0.6-1.1-1.3-2.1-1.9-3.1c0,0,0,0,0,0v0c0,0,0,0,0,0c0,0-0.1-0.1-0.1-0.1
		c-0.1-0.1-0.1-0.2-0.2-0.3c0,0,0,0,0,0c-0.4-0.6-1.1-1.7-1.3-2c-1-1.6-2.1-3.2-3.1-4.8c-0.6-0.9-1.2-1.8-1.8-2.7c0,0,0,0,0,0
		c0,0,0,0,0-0.1c0,0,0,0,0,0c0,0,0-0.1,0-0.1c0,0-0.1-0.1-0.1-0.2c0,0,0,0,0,0c-0.5-0.7-1.5-2.3-1.7-2.5c-1.8-2.6-3.6-5.3-5.4-7.9
		c-16.2-23.8-31.7-47.9-43.9-74c-11.4-24.4-19.9-50.3-25.1-76.8c-5.6-28.5-6.2-57.3-8.2-86.2c-1.9-27.5-6.3-54.5-14-81
		C4188.4,84.5,4184.3,72.3,4179.6,60.3z"/>
	<path class="accentcolor2" d="M3401.5,602.1c0.3-6.3,0.5-12.6,0.8-18.9c2.7,0.5,5.4,1,8.1,1.5c13.5,2.4,27,4.4,40.6,6.1
		c14.4,1.8,29.6,2.1,39.5-10.2c8.4-10.4,10.3-24.3,7.6-37c-1.6-7.4-4.5-14.4-8.1-21.1c-1.6-3-2.6-4.6-4.1-7
		c-1.1-1.9-2.3-3.7-3.4-5.6c-0.5-0.8-1-1.6-1.5-2.5c-0.1-0.2-0.7-1.1-1-1.6v0c0-0.1-0.1-0.1-0.1-0.1c0,0,0-0.1,0-0.1c0,0,0,0,0,0
		c0,0,0,0,0,0c0,0,0,0,0,0c-2.1-3.3-4.2-6.6-6.4-9.9c-0.5-0.8-1.1-1.6-1.6-2.4c-0.1-0.1-0.8-1.2-1.1-1.6c0,0,0,0,0,0c0,0,0,0,0,0
		c0,0,0-0.1-0.1-0.1c0,0,0,0,0,0c0,0,0,0,0,0v0c0,0,0,0,0,0c-0.7-1-2.4-3.5-3.3-4.9c-4.6-6.7-8.7-12.5-13.2-18.8
		c-9.6-13.2-19.4-26.1-29.4-39c-8-10.3-16.1-20.5-24.1-30.8c-0.1-1.4-0.2-2.8-0.3-4.1c-0.1-0.7-0.1-1.4-0.2-2
		c20.1,25.4,39.9,50.9,58.6,77.4c10.6,15.1,20.8,30.5,30.5,46.3c9.1,14.8,18.8,30.3,22.8,47.4c2.9,12.6,1.7,26.6-5.8,37.4
		c-9.1,13-23.6,14.4-38.3,12.7C3445.6,610.3,3423.4,606.7,3401.5,602.1z"/>
	<path class="accentcolor2" d="M3188.4,127.6l-9.5-5.5c-3.9-4.8-7.8-9.5-11.7-14.3c-18.7-22.7-37.5-45.4-56.4-67.9c1.8,0.1,3.6,0.1,5.4,0.2
		c3.9,4.7,7.8,9.4,11.8,14.1C3148.3,78.7,3168.4,103.1,3188.4,127.6z"/>
	<path class="accentcolor2" d="M3872.5,1599.9h-6.1c-27.4-28-60-51.4-92.9-71.3c-62.3-37.5-130.5-63.3-199.3-86
		c-74.4-24.5-150-46.6-221.3-79.3c-11.3-5.2-22.6-10.7-33.6-16.5l-84.6-65.8c25.3,18.7,52.4,34.9,80.5,49
		c71.3,36,148.1,59.3,223.8,83.9c69.4,22.5,138.5,46.7,202.5,82.3C3790.8,1523.7,3835.9,1557.6,3872.5,1599.9z"/>
	<path class="accentcolor2" d="M3834.7,1599.9l-13.2,0c-14.5-10.5-29.7-20-44.9-28.5c-51.6-29-107.6-48.1-164.1-65
		c-48.5-14.5-97.6-27.6-145.3-44.5l-41.1-32c39.3,15.5,80,27.7,120.6,39.6C3647.7,1498.8,3754.7,1528.9,3834.7,1599.9z"/>
	<path class="accentcolor2" d="M3214.5,1265.3l-64.7-50.3c-26.7-25.4-54-49.8-83.8-71.7c-4-3-8.1-5.9-12.2-8.8c0.3-0.1,0.5-0.3,0.8-0.4
		c2.8-1.4,5.5-2.7,8.3-4.1c20.5,15.5,40.3,32,59.2,49.7C3152.8,1208.4,3182,1238.6,3214.5,1265.3z"/>
	<path class="accentcolor2" d="M5078.7,536.4c-1.7,0.4-3.4,0.7-5.2,1.1c-17.3-46.7-46.1-89.8-75.4-129.3l8.9,6.9
		c25.8,36,49.4,73.9,68.1,113.6C5076.4,531.3,5077.6,533.9,5078.7,536.4z"/>
	<path class="accentcolor2" d="M5025.4,548.2c-3.4,0.8-6.8,1.6-10.2,2.4c-0.3-2.8-0.6-5.6-1.1-8.5c-10-66.6-49.1-126.2-88.6-179.2
		c-7.1-9.5-14.3-18.8-21.7-28l11.2,8.7c33.3,43.6,64.3,90,87.6,139.5C5012.5,503.8,5020.5,525.7,5025.4,548.2z"/>
	<path class="accentcolor2" d="M4932.9,572.2c-6.4,1.9-12.9,3.7-19.3,5.7c7.8-27.6,5.1-58.7-3.6-86.8c-17.1-55.5-58-100.2-100.1-138.6
		c-83.8-76.6-184.6-130.1-275.3-197.4c-36.9-27.4-72.7-57.7-104.8-91.4c2.7,0,5.5,0.1,8.2,0.1c24.5,23.7,50.9,45.4,78.1,65.9
		c92.5,69.6,196.3,123.9,282,202.6c40.3,37,77,79.7,103.6,127.7C4920.2,493.1,4935.1,533.2,4932.9,572.2z"/>
	<path class="accentcolor2" d="M4730.2,645.6c-7.8,3.5-15.6,7.1-23.3,10.8c-27-8.6-53.8-17.8-81.6-22.9c-61.7-11.5-124,3.9-172,44.7
		c-23.9,20.3-44.1,44.6-67.1,65.8c-21.5,19.8-45.1,37.2-70.1,52.1c-16.3,9.7-33.1,18.4-50.3,25.9c0.2,0,0.3-0.1,0.5-0.1
		c30.9-5.9,59.2-17.5,84.7-36c24.8-18,46.3-40,69.3-60.2c46.4-40.8,101.8-68.1,163.3-76.5c41.2-5.6,81-0.9,120.2,8.5
		c-9.1,4.3-18,8.7-27,13.2c-61.2-8.1-124.5,3.3-179.1,32.1c-55.4,29.1-92.9,80-145.1,113.2c-29,18.5-61.8,26.7-95.6,31.2
		c-37,4.9-74.4,7.8-111.5,11.6c-74.1,7.5-148.1,15.6-222.3,22.3c-33.2,3-67.3,4.8-99.9-3.2c-28.7-7-53.3-22.4-75.4-41.6
		c-22.3-19.4-41.8-41.6-63.7-61.3c-22.1-19.9-46.9-36.5-73.5-49.8c-55-27.5-115.8-41-176.3-49.6c-12.2-1.7-24.5-3.1-36.9-4.3
		c0.5-6.8,0.9-13.6,1.3-20.4c47.3,5.8,94.4,14.1,139.8,28.9c54.2,17.7,103,45.1,144.3,84.7c21.7,20.9,42,43.5,66,61.8
		c26.3,20,55.9,31.4,88.8,34.4c32.5,3,65.1-0.8,97.4-4c5-0.5,9.9-1,14.9-1.5c-58.1-10.4-114.7-28.7-168.5-52.8
		c-57.3-25.6-110.2-59.3-164.8-89.9c-54.4-30.4-111.7-57.4-174.2-65.6c-14.3-1.9-28.7-2.9-43.2-3.7c0.4-7,0.8-13.9,1.2-20.9
		c58.9,4.4,113.2,22.2,165.8,48.8c54,27.3,104.5,60.7,158.2,88.6c57.6,30,118.8,53.4,182.2,67.8c117.2,26.5,241.9,20.1,351.8-30.6
		c53.4-24.6,99.2-59.2,140-101.2c20.9-21.5,41.7-43.5,67.5-59.2c25.8-15.7,55.2-25.5,85.3-28.3
		C4613.8,602.5,4671.2,630.3,4730.2,645.6z"/>
	<path class="accentcolor2" d="M4610.1,707c-90.7,52.3-174.3,114.7-250.1,185.7c-16.8,5.2-34.2,8.6-52,10.9c-38.1,5-76.5,8-114.7,11.9
		c-76.2,7.7-152.4,16-228.7,22.9c-34.1,3.1-69.2,4.9-102.8-3.3c-29.5-7.3-54.8-23-77.5-42.8c-22.9-19.9-43-42.7-65.6-63
		c-22.7-20.5-48.2-37.6-75.6-51.3c-56.6-28.3-119.2-42.2-181.4-51c-22.4-3.2-45.1-5.1-67.9-7.1c0.6-7.1,1.1-14.1,1.7-21.1
		c58.7,6.2,117.6,14.8,173.8,33.1c55.8,18.2,106,46.4,148.4,87.1c22.4,21.5,43.2,44.8,67.9,63.6c27,20.5,57.5,32.3,91.4,35.4
		c33.4,3.1,67-0.8,100.2-4.1c38.5-3.9,76.9-7.7,115.4-11.6c38.5-3.9,76.9-7.7,115.4-11.6c36.6-3.7,73.7-5.8,109.9-12.8
		c31.8-6.1,60.9-18,87.2-37c25.5-18.5,47.7-41.2,71.3-61.9C4515.3,744.8,4560.4,719.7,4610.1,707z"/>
	<path class="accentcolor2" d="M5130.6,526.5c-1.1,0.2-2.1,0.4-3.2,0.6c-5.9-11.3-12.3-22.3-19-33.2l6.1,4.7
		C5120.1,507.8,5125.5,517.1,5130.6,526.5z"/>
	<path class="accentcolor2" d="M4318.5,933.1c-8.4,8.5-16.7,17.1-24.8,25.9c-23.4,2.4-46.9,4.4-70.3,6.8c-79.9,8-159.8,16.8-239.8,24
		c-35.8,3.2-72.5,5.2-107.7-3.5c-30.9-7.6-57.5-24.1-81.3-44.9c-24-20.9-45.1-44.8-68.7-66.1c-23.8-21.5-50.6-39.4-79.3-53.7
		c-59.3-29.7-125-44.2-190.2-53.5c-21.8-3.1-43.9-5.1-66.1-7c0.6-7,1.3-14,1.9-21c60,6.4,120.2,15.5,177.8,34.2
		c58.5,19,111.1,48.6,155.5,91.3c23.5,22.5,45.3,47,71.3,66.7c28.3,21.5,60.3,33.8,95.8,37.1c35,3.2,70.2-0.8,105.1-4.3
		c40.3-4.1,80.6-8.1,120.9-12.2c40.3-4.1,80.6-8.1,120.9-12.2C4265.7,938.3,4292.2,936.4,4318.5,933.1z"/>
	<path class="accentcolor2" d="M3984.3,1411.6C3984.3,1411.6,3984.3,1411.6,3984.3,1411.6c-1.8-3.4,0.7,0.9,0.4,0.5
		C3984.5,1411.9,3984.4,1411.8,3984.3,1411.6z"/>
	<path class="accentcolor2" d="M4115,1192.9c-3.4,5.5-6.8,11-10.1,16.5c-51.7-10-104.2-15.2-156.1-23.9c-49.2-8.2-98.1-19.3-144.4-38.2
		c-22.1-9-43.4-19.8-63.4-32.8c-19.4-12.6-36.7-27.6-53.6-43.3c-15.8-14.7-32-29.8-51.2-40.1c-4.8-2.6-9.8-4.8-14.9-6.5
		c-5.2-1.8-11.2-3.8-16.7-3.6c-11.7,0.5-14.8,17.9-14.8,27.1c0,4.7,0.9,9.2,2.3,13.6c2.1,2.2,4.3,4.2,6.6,6.2
		c10.1,8.9,20.4,17.5,30.6,26.3c20.4,17.6,40.8,35.3,61.4,52.6c19.9,16.8,40.2,33.1,61.4,48.2c21.2,15,43.4,28.4,66.4,40.5
		c45.2,23.7,92.8,42.8,137.4,67.8c10.9,6.1,21.6,12.6,32.1,19.4c0.1,0,0.1,0.1,0.2,0.1c0.1,0.1,0.3,0.2,0.4,0.3
		c13,9.6,26.6,18.4,41.3,25.1c-1.9,3.9-3.7,7.8-5.5,11.6c-8-4.8-15.6-10.1-23.1-15.6c-44.7-29.4-94-50.1-141.9-73.4
		c-24.3-11.8-48.2-24.3-71-38.8c-22.9-14.7-44.7-31.1-65.8-48.3c-21.3-17.3-42-35.3-62.8-53.2c-11.1-9.5-22.1-19-33.2-28.5
		c-10.1-8.7-20.7-17-29-27.4c-9.6-11.9-19.8-26.6-21.7-42.2c-0.7-5.6-0.3-11.4,1-16.9c1.3-5.1,3.4-11.8,8.1-14.8
		c5-3.1,11.8-0.9,17,0.5c5.1,1.4,10,3.2,14.8,5.4c10.2,4.6,19.6,10.8,28.4,17.6c18.2,14.1,34,31,51.6,45.8
		c18.9,15.9,39.7,29.4,61.7,40.7c45.9,23.7,96.1,37.8,146.6,47.6c55.8,10.8,112.4,16.8,168.4,26.2
		C4087.4,1186.9,4101.3,1189.5,4115,1192.9z M3988.2,1322.9c-0.1,0-0.1-0.1-0.2-0.1c-0.9-0.5,0,1.5,0.1,1.8c0.8,2.4,2.4,4.7,3.7,6.8
		c2.5,4.2,5.4,10,9.5,12.9c1.2,0.8,0.2-1.3,0.1-1.6c-0.8-2.4-2.4-4.7-3.7-6.8c-1.7-2.8-3.6-5.7-5.6-8.3c-0.9-1.2-2.2-3.2-3.5-4.3
		C3988.4,1323.1,3988.3,1323,3988.2,1322.9z M3592.1,1061.7c-0.2-0.2-0.3-0.3-0.5-0.5c-0.8-0.9-1.6-1.8-2.4-2.6
		c-2-2.2,5.2,9.6,3.9,6.1C3592.8,1063.7,3592.4,1062.7,3592.1,1061.7z"/>
	<path class="accentcolor2" d="M4716.7,436.5c3.7,4.8,7.7,9.5,11.7,14.1c9.9,11.7,19.1,23.9,26.9,37.2c3.2,5.5,7.8,12.4,7.6,19.1
		c-0.1,5.3-4,8.9-8.9,10.3c-14.8,4.2-25.9-10.6-33-21.1c-4.7-7-8.9-14.5-11.9-22.4c-1.9-4.9-2-9.5-2-14.7c0-0.2,0-0.4,0-0.6
		c0.7-2.4,0.7-4.7,0.5-6.9c-1.6-1.3-3.2-2.6-4.7-4c-11.5-10.5-20.1-25.2-26.6-39.2c-2.5-5.5-4.6-11.1-6.5-16.8
		c-1.5-4.4-3.9-10-2.1-14.7c2.1-5.3,8-4.3,12-1.9c6.5,4.1,11.2,12,15.4,18.3c8,12.1,13,25,18.8,38.1c0.5,1.1,1,2.2,1.5,3.2
		c0.1,0.1,0.3,0.5,0.5,0.9C4716.3,436,4716.7,436.5,4716.7,436.5z M4716.7,436.5C4716.7,436.5,4716.7,436.5,4716.7,436.5
		C4716.7,436.5,4716.7,436.5,4716.7,436.5z M4721.3,480.1c0,3.5-0.2,7.2,0.7,10.6c0,0.2,0.1,0.3,0.1,0.5c6.3,4.5,14.3,7.1,21.5,2.5
		c4.4-2.8,5.9-7.6,4.1-12.5c-0.1-0.4-0.5-1.1-0.8-1.7c-0.5-0.7-1.2-1.6-1-1.3c-6.1-8-13-15.4-19.3-23.3c-8.5-10.7-16.3-22-22.6-34.2
		c-4-7.7-7.4-15.9-10.7-23.9c-1.7-1.2-3.7-2.1-5.8-2.1c-4.9,0-6.7,4.6-6.1,8.9c0.6,4.1,2.3,8.1,3.7,12c1.2,3.3,3.3,7.3,4.6,10.5
		c0,0,0,0,0,0c1.9,1.8,4,3.4,6.1,5c5.8,4.5,10.5,9.3,14.7,15.4C4717.4,456.2,4724.5,467.8,4721.3,480.1z M4722.1,491.2
		c-1.1-0.8-2.1-1.6-3.1-2.4c1.7,1.4,3.2,3.6,4.3,5.5C4722.9,493.2,4722.5,492.2,4722.1,491.2z M4723.3,494.2
		c0.1,0.2,0.1,0.3,0.2,0.5C4725.9,500.1,4725.4,497.7,4723.3,494.2z M4747.2,479.8c0,0,0.1,0.1,0.1,0.1
		C4747.3,479.9,4747.3,479.9,4747.2,479.8c-0.9-1.5-0.6-1.1-0.2-0.3c0.2,0.2,0.3,0.4,0.4,0.5c0,0-0.1-0.1-0.1-0.1
		C4747.3,479.9,4747.2,479.9,4747.2,479.8z M4747.3,480 M4747.4,480.1c0,0.1,0.1,0.1,0.1,0.2c0.4,0.5,0.8,1.1-0.2-0.3
		C4747.5,480.2,4747.5,480.2,4747.4,480.1z M4693.4,396.8c0.3,0.2,0.5,0.4,0.8,0.6c0.6,0.5,1.2,1.4,1.8,1.8c3.7,2.6-3.4-4.5-4.1-6
		C4692.4,394.4,4692.9,395.6,4693.4,396.8z M4689.8,426.1c-0.8-0.8-1.7-2.2-2.6-2.8c1.1,0.7,3.1,3.9,3.4,5
		C4690.3,427.6,4690.1,426.9,4689.8,426.1z M4721.3,480.1c0-0.2,0-0.3,0-0.5c0-1.7-1.8-4-2.6-5.4c-1.6-2.9-3.5-5.7-5.3-8.5
		c-1.4-2-3-4.5-4.7-6.2c-0.4-0.4-1.5-1.8-1.6-0.6c0,0,0,0,0,0.1c0.1,1,0.9,2.3,1.3,3c1.4,2.7,3,5.3,4.7,7.9c1.6,2.6,3.4,5.1,5.3,7.5
		c-0.5-0.6,2.7,3.2,2.8,2.7C4721.3,480.1,4721.3,480.1,4721.3,480.1z M4707.6,451.5c1,0.8,2,1.5,2.9,2.3c1.2,1,2.4,1.9,3.6,2.9
		c0.6,0.6,1.2,1.3,1.9,1.8c-3.3-5-6.5-10-9.8-15c0,0.1,0.1,0.2,0.1,0.3C4706.8,446.5,4707.4,449,4707.6,451.5z M4715.5,435
		c-1.2-1.6-0.2-0.2,0.4,0.6c0.5,0.6,0.3,0.3,0-0.1C4715.5,434.9,4715.1,434.3,4715.5,435z"/>
	<path class="accentcolor2" d="M4747.2,479.8c0,0-0.1-0.1-0.1-0.2C4747.1,479.7,4747.2,479.8,4747.2,479.8z"/>
	<path class="accentcolor2" d="M4715.5,435C4715.6,435,4715.6,435,4715.5,435C4715.6,435,4715.6,435,4715.5,435z"/>
</g>

	<text class="textcolor outline" textLength="14" lengthAdjust="spacingAndGlyphs" transform="matrix(118.4816 -3.000000e-04 3.000000e-04 118.4816 4.882812e-04 304.8753)" style="font-family:BankGothic-Md-BT; font-size:2.3251px; stroke:#6A6A6A; stroke-width:.55; paint-order:stroke; stroke-linecap:round; stroke-linejoin:round; ">
		<tspan>$textRef</tspan>
	</text>

	<text class="textcolor outline" textLength="14" lengthAdjust="spacingAndGlyphs" transform="matrix(118.471 -1.3361 1.3361 118.4741 3788.6772 312.6333)" style="font-family:BankGothic-Md-BT; font-size:2.3251px; stroke:#6A6A6A; stroke-width:.55; paint-order:stroke; stroke-linecap:round; stroke-linejoin:round;">
		<tspan>$textRef</tspan>
	</text>
</svg>
