<?xml version="1.0" encoding="utf-8"?>
<!-- Generator: Adobe Illustrator 27.9.1, SVG Export Plug-In . SVG Version: 6.00 Build 0)  -->
<svg class="w" version="1.1" xmlns="http://www.w3.org/2000/svg" xmlns:xlink="http://www.w3.org/1999/xlink" x="0px" y="0px"
	 viewBox="0 0 5741.2 1905.2" style="enable-background:new 0 0 5741.2 1905.2;" xml:space="preserve">
     $gradientDefs

<path class="maincolor" d="M5209.2,701.3c-15.2,2.3-56.1,8.4-56.1,8.4c-159.9,27.2-286.2,69.3-359.3,99
	c-568.7,231.2-765.5,757-815.6,922.7c0,0-6.1,20.1-8.5,28c-4.8,15.8-18.2,26.5-34.7,26.5h-266c-21.7,0-40.2-6.3-57.3-19.7
	l-605.4-471c-7.5-5.9-6.2-17.7,2.7-21.3c18-7.2,34.7-15.3,34.7-15.3c28.1-13.1,177.1-92.2,201.9-110.8
	c100.5-75.2,99-82.5,112.8-204.4c0.1-2.6,26.2-241,13-393.6c-8.3-96.3-34.8-114.6-75.4-152.2c-34.2-31.7-113.4-84.5-120.3-88.4
	l-240.6-139.7c-8.3-4.8-4.3-17.5,5.2-16.8c47,3.6,115.8,6,186.3,8.8c164.2,6.5,745.1,16.1,1398.3,24.5l34.6,0.4
	c8.2,0.1,15.2,2.5,21.6,7.6c9.4,7.3,632.1,491.3,632.1,491.3C5219.6,690.1,5217,700.1,5209.2,701.3z"/>
	
<path class="accentoutline" d="M3981.5,1785.5c0.1,4.3,0,8.5-0.4,12.8c-1,11.7-7.1,22.3-16.7,29l-45.8,32.2c-4.2,3-9,5.2-14.1,6.4
	c-4.7,5.1-10.6,8.9-17.1,11.1l-67.6,25.5c-23.3,8.8-48.7-5.2-54.5-29l-17.5-71.7c-4.3-17.7,3.4-36.1,19-45.4l-9.3,1.9
	c-22.8,4.7-45.2-9.5-50.7-32.1l-18.4-75.5c-5.1-20.7,5.7-42.1,25.4-50.2l60-24.9l1-0.8l-32.1,12.1c-23.3,8.8-48.7-5.2-54.5-29
	l-17.5-71.7c-4.7-19,4.6-38.7,22.3-47.1l12.5-6.6l-26.2,5.4c-22.8,4.7-45.2-9.5-50.7-32.1l-18.4-75.5c-5.1-20.7,5.7-42.1,25.4-50.2
	l10.6-4.4c-16.8-2.4-30.4-14.7-34.4-31.2l-17.5-71.7c-4.7-19,4.6-38.7,22.3-47.1l6.1-3.2l-19.4,4c-22.8,4.7-45.2-9.5-50.7-32.1
	l-18.4-75.5c-5.1-20.7,5.7-42.1,25.4-50.2l60-24.9l1-0.8l-32.1,12.1c-2,0.7-4,1.3-6.1,1.8c-21.8,4.4-43.2-9.1-48.4-30.7l-17.5-71.7
	c-4.7-19,4.6-38.7,22.3-47.1l12.5-6.6l-26.2,5.4c-22.8,4.7-45.2-9.5-50.7-32.1l-18.4-75.5c-5.1-20.7,5.7-42.1,25.4-50.2l10.6-4.4
	c-16.8-2.4-30.4-14.7-34.4-31.2l-17.5-71.7c-4.3-17.7,3.4-36.1,19-45.4l-9.3,1.9c-22.8,4.7-45.2-9.5-50.7-32.1l-18.4-75.5
	c-5.1-20.7,5.7-42.1,25.4-50.2l60-24.9l1-0.8l-32.1,12.1c-2,0.7-4,1.3-6.1,1.8c-21.8,4.4-43.2-9.1-48.4-30.7l-17.5-71.7
	c-4.7-19,4.6-38.7,22.3-47.1L3434,152l64.1-53.7c1.1-0.8,2.3-1.6,3.5-2.4c-0.9-15.4,6.5-30.2,19.4-38.7l27.3-18.1
	c2.4-1.6,4.9-2.9,7.6-4c2-2,4.3-3.9,6.7-5.4l33.7-22.4c14.4-9.6,33.1-9.8,47.6-0.4l70.4,44.9c10.6,6.8,17.7,17.7,19.6,30.1
	c0.1,0,0.2,0.1,0.3,0.1l42.8,20.3c7.3,3.4,13.3,9,17.3,16l33.5,57.9l55.7-34.8c4-2.5,8.4-4.3,13-5.2l70.8-14.6
	c22.8-4.7,45.2,9.5,50.7,32.1l18.4,75.5c5.1,20.7-5.7,42.1-25.4,50.2l-6.7,2.8c14.2,4.1,25.1,15.5,28.6,29.9l20,81.7
	c3.2,13.1-0.2,26.9-9,37.1c22.5-4.1,44.3,10,49.7,32.3l18.4,75.5c5.1,20.7-5.7,42.1-25.4,50.2l-17.9,7.5
	c19.5-0.6,36.8,12.6,41.4,31.5l20,81.7c3.8,15.7-1.8,32.2-14.4,42.2l5.4-1.1c22.8-4.7,45.2,9.5,50.7,32.1l18.4,75.5
	c5.1,20.7-5.7,42.1-25.4,50.2l-11,4.6c16.4,2.6,29.7,14.9,33.6,31l20,81.7c3.2,13.1-0.2,26.9-9,37.1c22.5-4.1,44.3,10,49.7,32.3
	l18.4,75.5c5.1,20.7-5.7,42.1-25.4,50.2l-17.9,7.5c19.5-0.6,36.8,12.6,41.4,31.5l20,81.7c5.2,21.3-7.1,43-28.2,49.4l-47.7,14.5
	l-61.1,51.2c-1.1,0.8-2.2,1.6-3.3,2.3c0.2,2.3,0.3,4.7,0.2,7c8.3,3,15.4,8.6,20.5,15.8l19.5,28c1.6,2.2,2.9,4.6,4,7.1
	c1.9,1.9,3.7,4,5.2,6.2l25.9,37.2c11.9,17,10,40.1-4.6,54.8l-61.1,62.2c-11,11.3-27.4,15.6-42.5,11.3c-0.9,1.3-32.6,41.1-34.4,43.4
	c-1.8,2.3-3.8,4.4-6,6.2c-1.3,2.6-2.9,5-4.7,7.2l-24.8,31.2c-12.6,15.9-34.5,21-52.8,12.2L3981.5,1785.5z"/>
	
<g>
	<path class="accentcolor" d="M3757.7,474.2c-1.7-1.1-3.9-0.8-5.1,0.8l-33.3,41.3c-1.4,1.8-1,4.4,0.9,5.7l70.2,45.5c1.3,0.9,2.9,0.9,4.2,0
		l34-22.2c1.8-1.1,2.3-3.5,1.2-5.3l-18.8-30.9L3757.7,474.2z"/>
	<path class="accentcolor" d="M3837.4,534.6c1.1,1.9,3.6,2.4,5.4,1.2l27.4-17.9c1.7-1.1,2.3-3.4,1.2-5.2l-35.6-62.7l-42.8-20.6
		c-1.6-0.8-3.6-0.4-4.7,1.1l-25.1,31.1c-1.4,1.8-1,4.4,0.9,5.7l53.6,35.2L3837.4,534.6z"/>
	<path class="accentcolor" d="M3809.4,762.3c1.7,1.1,3.9,0.7,5.1-0.8l33-41.5c1.4-1.8,1-4.4-0.9-5.7l-70.5-45c-1.3-0.8-2.9-0.8-4.2,0
		l-33.8,22.4c-1.7,1.2-2.3,3.5-1.2,5.3l19,30.7L3809.4,762.3z"/>
	<path class="accentcolor" d="M3729.3,702.4c-1.2-1.9-3.6-2.4-5.4-1.2l-27.3,18.1c-1.7,1.1-2.2,3.4-1.2,5.2l36.1,62.4l42.9,20.4
		c1.7,0.8,3.6,0.3,4.7-1.1l24.8-31.3c1.4-1.8,1-4.4-0.9-5.7l-53.9-34.8L3729.3,702.4z"/>
	<path class="accentcolor" d="M4071.5,637.3c-0.2-0.9-1.1-1.5-2.1-1.3l-68.2,21.1c-1.1,0.2-1.7,1.4-1.3,2.4l12.3,30.9
		c0.3,0.8-0.7,1.6-1.4,1.2l-29.1-23.1c-0.6-0.4-1.4-0.4-2,0l-44.9,36.2c0,0-1.4,13.7,1.9,23.2c8.9,26,28.8,62.9,30.1,65.1
		c0.4,0.7,1.8,0.5,2.4,0l65.7-55.1l55.5-16.9c0.9-0.3,1.4-1.2,1.2-2.1L4071.5,637.3z"/>
	<path class="accentcolor" d="M3495.6,603.2c0.2,0.9,1.1,1.5,2.1,1.3l68.6-25.9c1.1-0.2,1.7-1.4,1.3-2.4l-11.6-27.9
		c-0.3-0.8,0.7-1.6,1.4-1.2l28.1,19.1c0.6,0.4,1.4,0.4,2,0l45.9-32.3c0,0,1.4-13.7-1.9-23.2c-8.9-26-28.8-62.9-30.1-65.1
		c-0.4-0.7-1.8-0.5-2.4,0l-65.7,55.1l-54.1,28.7c-0.9,0.3-1.4,1.2-1.2,2.1L3495.6,603.2z"/>
	<path class="accentcolor" d="M3994.3,321.6c-0.2-0.9-1.1-1.5-2.1-1.3l-68.2,21.1c-1.1,0.2-1.7,1.4-1.3,2.4l12.3,30.9
		c0.3,0.8-0.7,1.6-1.4,1.2l-29.1-23.1c-0.6-0.4-1.4-0.4-2,0l-44.9,36.2c0,0-1.4,13.7,1.9,23.2c8.9,26,28.8,62.9,30.1,65.1
		c0.4,0.7,1.8,0.5,2.4,0l65.7-55.1l55.5-16.9c0.9-0.3,1.4-1.2,1.2-2.1L3994.3,321.6z"/>
	<path class="accentcolor" d="M3572.2,916.6c0.2,0.9,1.1,1.5,2.1,1.3l68.6-25.9c1.1-0.2,1.7-1.4,1.3-2.4l-11.6-27.9
		c-0.3-0.8,0.7-1.6,1.4-1.2l28.1,19.1c0.6,0.4,1.4,0.4,2,0l45.9-32.3c0,0,1.4-13.7-1.9-23.2c-8.9-26-28.8-62.9-30.1-65.1
		c-0.4-0.7-1.8-0.5-2.4,0l-65.7,55.1l-54.1,28.7c-0.9,0.3-1.4,1.2-1.2,2.1L3572.2,916.6z"/>
	<path class="accentcolor" d="M3835.7,791.8c-1.7-1.1-3.9-0.7-5.1,0.8l-33,41.5c-1.4,1.8-1,4.4,0.9,5.7l70.5,45c1.3,0.8,2.9,0.8,4.2,0
		l33.8-22.4c1.7-1.2,2.3-3.5,1.2-5.3l-19-30.7L3835.7,791.8z"/>
	<path class="accentcolor" d="M3915.8,851.7c1.2,1.9,3.6,2.4,5.4,1.2l27.3-18.1c1.7-1.1,2.2-3.4,1.2-5.2l-36.1-62.4l-42.9-20.4
		c-1.7-0.8-3.6-0.3-4.7,1.1l-24.8,31.3c-1.4,1.8-1,4.4,0.9,5.7l53.9,34.8L3915.8,851.7z"/>
	<path class="accentcolor" d="M3732.4,447.1c1.7,1.1,3.9,0.7,5.1-0.8l33-41.5c1.4-1.8,1-4.4-0.9-5.7l-70.5-45c-1.3-0.8-2.9-0.8-4.2,0
		l-33.8,22.4c-1.7,1.2-2.3,3.5-1.2,5.3l19,30.7L3732.4,447.1z"/>
	<path class="accentcolor" d="M3652.3,387.2c-1.2-1.9-3.6-2.4-5.4-1.2l-27.3,18.1c-1.7,1.1-2.2,3.4-1.2,5.2l36.1,62.4l42.9,20.4
		c1.7,0.8,3.6,0.3,4.7-1.1l24.8-31.3c1.4-1.8,1-4.4-0.9-5.7l-53.9-34.8L3652.3,387.2z"/>
	<path class="accentcolor" d="M4055,472.6c-0.5-1.9-2.3-3.1-4.2-2.7l-70.8,14.6l-62,38.8c-1.7,1.1-2.2,3.3-1.1,5l50.8,77.2
		c1.2,1.8,3.6,2.2,5.3,0.8l33.1-26.9l65.3-27.2c1.7-0.7,2.5-2.4,2.1-4.2L4055,472.6z"/>
	<path class="accentcolor" d="M3512.5,764.5c0.5,1.9,2.3,3.1,4.2,2.7l70.8-14.6l62-38.8c1.7-1.1,2.2-3.3,1.1-5l-50.8-77.2
		c-1.2-1.8-3.6-2.2-5.3-0.8l-33.1,26.9l-65.3,27.2c-1.7,0.7-2.5,2.4-2.1,4.2L3512.5,764.5z"/>
	<path class="accentcolor" d="M3917.9,583.1c1.4-1.1,1.7-3.1,0.7-4.6l-19.6-28.1c-1-1.4-2.9-1.9-4.4-1l-93.7,51c-1.3,0.7-2,2-1.7,3.5
		l6.1,40.7c0.2,1,0.7,1.9,1.6,2.4l29.5,17.9c1.7,1,3.9,0.4,4.8-1.3l18.4-35L3917.9,583.1z"/>
	<path class="accentcolor" d="M3849,668.7c-0.8,1.6-0.3,3.6,1.2,4.5l37.8,22.9c1.4,0.8,3.1,0.6,4.2-0.5l61.2-62.3c1.2-1.2,1.3-3,0.4-4.3
		l-26-37.2c-1.1-1.6-3.3-1.9-4.9-0.7l-56.1,43.6L3849,668.7z"/>
	<path class="accentcolor" d="M3645.7,651.5c-1.4,1.1-1.7,3.1-0.7,4.6l19.6,28.1c1,1.4,2.9,1.9,4.4,1l93.7-51c1.3-0.7,2-2,1.7-3.5l-6.1-40.7
		c-0.2-1-0.7-1.9-1.6-2.4l-29.5-17.9c-1.7-1-3.9-0.4-4.8,1.3l-18.4,35L3645.7,651.5z"/>
	<path class="accentcolor" d="M3714.6,565.9c0.8-1.6,0.3-3.6-1.2-4.5l-37.8-22.9c-1.4-0.8-3.1-0.6-4.2,0.5l-61.2,62.3
		c-1.2,1.2-1.3,3-0.4,4.3l26,37.2c1.1,1.6,3.3,1.9,4.9,0.7l56.1-43.6L3714.6,565.9z"/>
	<path class="accentcolor" d="M4133.1,792.2c-0.5-1.9-2.3-3.1-4.2-2.7l-70.8,14.6l-62,38.8c-1.7,1.1-2.2,3.3-1.1,5l50.8,77.2
		c1.2,1.8,3.6,2.2,5.3,0.8l33.1-26.9l65.3-27.2c1.7-0.7,2.5-2.4,2.1-4.2L4133.1,792.2z"/>
	<path class="accentcolor" d="M3590.8,1085c0.5,1.9,2.3,3.1,4.2,2.7l70.8-14.6l62-38.8c1.7-1.1,2.2-3.3,1.1-5l-50.8-77.2
		c-1.2-1.8-3.6-2.2-5.3-0.8l-33.1,26.9l-65.3,27.2c-1.7,0.7-2.5,2.4-2.1,4.2L3590.8,1085z"/>
	<path class="accentcolor" d="M3725.1,976.4c-1.4,1.1-1.7,3.1-0.7,4.6l19.6,28.1c1,1.4,2.9,1.9,4.4,1l93.7-51c1.3-0.7,2-2,1.7-3.5l-6.1-40.7
		c-0.2-1-0.7-1.9-1.6-2.4l-29.5-17.9c-1.7-1-3.9-0.4-4.8,1.3l-18.4,35L3725.1,976.4z"/>
	<path class="accentcolor" d="M3794.1,890.8c0.8-1.6,0.3-3.6-1.2-4.5l-37.8-22.9c-1.4-0.8-3.1-0.6-4.2,0.5l-61.2,62.3
		c-1.2,1.2-1.3,3-0.4,4.3l26,37.2c1.1,1.6,3.3,1.9,4.9,0.7l56.1-43.6L3794.1,890.8z"/>
	<path class="accentcolor" d="M3996.6,905.1c1.4-1.1,1.7-3.1,0.7-4.6l-19.6-28.1c-1-1.4-2.9-1.9-4.4-1l-93.7,51c-1.3,0.7-2,2-1.7,3.5
		l6.1,40.7c0.2,1,0.7,1.9,1.6,2.4l29.5,17.9c1.7,1,3.9,0.4,4.8-1.3l18.4-35L3996.6,905.1z"/>
	<path class="accentcolor" d="M3927.7,990.7c-0.8,1.6-0.3,3.6,1.2,4.5l37.8,22.9c1.4,0.8,3.1,0.6,4.2-0.5l61.2-62.3c1.2-1.2,1.3-3,0.4-4.3
		l-26-37.2c-1.1-1.6-3.3-1.9-4.9-0.7l-56.1,43.6L3927.7,990.7z"/>
	<path class="accentcolor" d="M3628.7,172.8c-6.8-0.1-13.5-0.2-20.2-0.4l12.1,5.7c1.7,0.8,3.6,0.3,4.7-1.1L3628.7,172.8z"/>
	<path class="accentcolor" d="M3544.9,171.3c-24.3-0.4-47.9-0.9-70.7-1.3l-17.9,15l-54.1,28.7c-0.9,0.3-1.4,1.2-1.2,2.1l17.5,71.8
		c0.2,0.9,1.1,1.5,2.1,1.3l68.6-25.9c1.1-0.2,1.7-1.4,1.3-2.4l-11.6-27.9c-0.3-0.8,0.7-1.6,1.4-1.2l28.1,19.1c0.6,0.4,1.4,0.4,2,0
		l45.9-32.3c0,0,1.4-13.7-1.9-23.2C3551.9,187.7,3548.5,179.4,3544.9,171.3z"/>
	<path class="accentcolor" d="M3699.4,174c-10.2-0.2-20.4-0.3-30.4-0.5c-6,7.5-25.2,31.6-25.2,31.6c-1.4,1.8-1,4.4,0.9,5.7l70.5,45
		c1.3,0.8,2.9,0.8,4.2,0l33.8-22.4c1.7-1.2,2.3-3.5,1.2-5.3l-19-30.7L3699.4,174z"/>
	<path class="accentcolor" d="M3781.4,175.4c-21.8-0.4-43.3-0.7-64.4-1.1l25.3,16.3l19.8,32c1.2,1.9,3.6,2.4,5.4,1.2l27.3-18.1
		c1.7-1.1,2.2-3.4,1.2-5.2L3781.4,175.4z"/>
	<path class="accentcolor" d="M3983.1,178.5c-27.8-0.4-55.3-0.8-82.3-1.2l-58.6,36.6c-1.7,1.1-2.2,3.3-1.1,5l50.8,77.2
		c1.2,1.8,3.6,2.2,5.3,0.8l33.1-26.9l65.3-27.2c1.7-0.7,2.5-2.4,2.1-4.2L3983.1,178.5z"/>
	<path class="accentcolor" d="M3437.1,455.9c0.5,1.9,2.3,3.1,4.2,2.7l70.8-14.6l62-38.8c1.7-1.1,2.2-3.3,1.1-5l-50.8-77.2
		c-1.2-1.8-3.6-2.2-5.3-0.8l-33.1,26.9l-65.3,27.2c-1.7,0.7-2.5,2.4-2.1,4.2L3437.1,455.9z"/>
	<path class="accentcolor" d="M3571.4,347.4c-1.4,1.1-1.7,3.1-0.7,4.6l19.6,28.1c1,1.4,2.9,1.9,4.4,1l93.7-51c1.3-0.7,2-2,1.7-3.5L3684,286
		c-0.2-1-0.7-1.9-1.6-2.4l-29.5-17.9c-1.7-1-3.9-0.4-4.8,1.3l-18.4,35L3571.4,347.4z"/>
	<path class="accentcolor" d="M3640.3,261.8c0.8-1.6,0.3-3.6-1.2-4.5l-37.8-22.9c-1.4-0.8-3.1-0.6-4.2,0.5l-61.2,62.3
		c-1.2,1.2-1.3,3-0.4,4.3l26,37.2c1.1,1.6,3.3,1.9,4.9,0.7l56.1-43.6L3640.3,261.8z"/>
	<path class="accentcolor" d="M3842.9,276.1c1.4-1.1,1.7-3.1,0.7-4.6l-19.6-28.1c-1-1.4-2.9-1.9-4.4-1l-93.7,51c-1.3,0.7-2,2-1.7,3.5
		l6.1,40.7c0.2,1,0.7,1.9,1.6,2.4l29.5,17.9c1.7,1,3.9,0.4,4.8-1.3l18.4-35L3842.9,276.1z"/>
	<path class="accentcolor" d="M3774,361.7c-0.8,1.6-0.3,3.6,1.2,4.5l37.8,22.9c1.4,0.8,3.1,0.6,4.2-0.5l61.2-62.3c1.2-1.2,1.3-3,0.4-4.3
		l-26-37.2c-1.1-1.6-3.3-1.9-4.9-0.7l-56.1,43.6L3774,361.7z"/>
	<path class="accentcolor" d="M3795.8,1785.8H3935c2.4,0,4.7-0.2,6.9-0.6c-0.1-4.3-0.7-9.3-2.1-13.5c-8.9-26-28.8-62.9-30.1-65.1
		c-0.4-0.7-1.8-0.5-2.4,0l-65.7,55.1L3795.8,1785.8z"/>
	<path class="accentcolor" d="M3995.3,1678.8c6.1-17.5,13.2-36.9,21.4-57.8l-9.4-6c-1.3-0.8-2.9-0.8-4.2,0l-33.8,22.4
		c-1.7,1.2-2.3,3.5-1.2,5.3l19,30.7L3995.3,1678.8z"/>
	<path class="accentcolor" d="M3975.9,1739c1.3-4.4,2.3-7.6,2.3-7.6c3.8-12.5,8.4-27.1,14-43.5l-11.9-7.7l-19.8-32c-1.2-1.9-3.6-2.4-5.4-1.2
		l-27.3,18.1c-1.7,1.1-2.2,3.4-1.2,5.2l36.1,62.4L3975.9,1739z"/>
	<path class="accentcolor" d="M3912.1,1106.1c-1.7-1.1-3.9-0.8-5.1,0.8l-33.3,41.3c-1.4,1.8-1,4.4,0.9,5.7l70.2,45.5c1.3,0.9,2.9,0.9,4.2,0
		l34-22.2c1.8-1.1,2.3-3.5,1.2-5.3l-18.8-30.9L3912.1,1106.1z"/>
	<path class="accentcolor" d="M3991.9,1166.6c1.1,1.9,3.6,2.4,5.4,1.2l27.4-17.9c1.7-1.1,2.3-3.4,1.2-5.2l-35.6-62.7l-42.8-20.6
		c-1.6-0.8-3.6-0.4-4.7,1.1l-25.1,31.1c-1.4,1.8-1,4.4,0.9,5.7l53.6,35.2L3991.9,1166.6z"/>
	<path class="accentcolor" d="M3963.9,1394.2c1.7,1.1,3.9,0.7,5.1-0.8l33-41.5c1.4-1.8,1-4.4-0.9-5.7l-70.5-45c-1.3-0.8-2.9-0.8-4.2,0
		l-33.8,22.4c-1.7,1.2-2.3,3.5-1.2,5.3l19,30.7L3963.9,1394.2z"/>
	<path class="accentcolor" d="M3883.8,1334.3c-1.2-1.9-3.6-2.4-5.4-1.2l-27.3,18.1c-1.7,1.1-2.2,3.4-1.2,5.2l36.1,62.4l42.9,20.4
		c1.7,0.8,3.6,0.3,4.7-1.1l24.8-31.3c1.4-1.8,1-4.4-0.9-5.7l-53.9-34.8L3883.8,1334.3z"/>
	<path class="accentcolor" d="M4115.6,1414.6c26.1-45.8,56.3-93.4,91.1-141.4c-12.8,4-51.1,15.8-51.1,15.8c-1.1,0.2-1.7,1.4-1.3,2.4
		l12.3,30.9c0.3,0.8-0.7,1.6-1.4,1.2l-29.1-23.1c-0.6-0.4-1.4-0.4-2,0l-44.9,36.2c0,0-1.4,13.7,1.9,23.2
		C4097.2,1377.9,4108.7,1401.3,4115.6,1414.6z"/>
	<path class="accentcolor" d="M3650,1235.2c0.2,0.9,1.1,1.5,2.1,1.3l68.6-25.9c1.1-0.2,1.7-1.4,1.3-2.4l-11.6-27.9c-0.3-0.8,0.7-1.6,1.4-1.2
		l28.1,19.1c0.6,0.4,1.4,0.4,2,0l45.9-32.3c0,0,1.4-13.7-1.9-23.2c-8.9-26-28.8-62.9-30.1-65.1c-0.4-0.7-1.8-0.5-2.4,0l-65.7,55.1
		l-54.1,28.7c-0.9,0.3-1.4,1.2-1.2,2.1L3650,1235.2z"/>
	<path class="accentcolor" d="M4148.8,953.5c-0.2-0.9-1.1-1.5-2.1-1.3l-68.2,21.1c-1.1,0.2-1.7,1.4-1.3,2.4l12.3,30.9
		c0.3,0.8-0.7,1.6-1.4,1.2l-29.1-23.1c-0.6-0.4-1.4-0.4-2,0L4012,1021c0,0-1.4,13.7,1.9,23.2c8.9,26,28.8,62.9,30.1,65.1
		c0.4,0.7,1.8,0.5,2.4,0l65.7-55.1l55.5-16.9c0.9-0.3,1.4-1.2,1.2-2.1L4148.8,953.5z"/>
	<path class="accentcolor" d="M3726.6,1548.6c0.2,0.9,1.1,1.5,2.1,1.3l68.6-25.9c1.1-0.2,1.7-1.4,1.3-2.4l-11.6-27.9
		c-0.3-0.8,0.7-1.6,1.4-1.2l28.1,19.1c0.6,0.4,1.4,0.4,2,0l45.9-32.3c0,0,1.4-13.7-1.9-23.2c-8.9-26-28.8-62.9-30.1-65.1
		c-0.4-0.7-1.8-0.5-2.4,0l-65.7,55.1l-54.1,28.7c-0.9,0.3-1.4,1.2-1.2,2.1L3726.6,1548.6z"/>
	<path class="accentcolor" d="M3990.1,1423.7c-1.7-1.1-3.9-0.7-5.1,0.8l-33,41.5c-1.4,1.8-1,4.4,0.9,5.7l70.5,45c1.3,0.8,2.9,0.8,4.2,0
		l33.8-22.4c1.7-1.2,2.3-3.5,1.2-5.3l-19-30.7L3990.1,1423.7z"/>
	<path class="accentcolor" d="M4078.9,1482.7c5.7-11.2,11.6-22.5,17.8-34l-28.6-49.5l-42.9-20.4c-1.7-0.8-3.6-0.3-4.7,1.1l-24.8,31.3
		c-1.4,1.8-1,4.4,0.9,5.7l53.9,34.8l19.8,32c1.2,1.9,3.6,2.4,5.4,1.2C4075.7,1484.9,4076.1,1484.6,4078.9,1482.7z"/>
	<path class="accentcolor" d="M3886.8,1079.1c1.7,1.1,3.9,0.7,5.1-0.8l33-41.5c1.4-1.8,1-4.4-0.9-5.7l-70.5-45c-1.3-0.8-2.9-0.8-4.2,0
		l-33.8,22.4c-1.7,1.2-2.3,3.5-1.2,5.3l19,30.7L3886.8,1079.1z"/>
	<path class="accentcolor" d="M3806.7,1019.1c-1.2-1.9-3.6-2.4-5.4-1.2L3774,1036c-1.7,1.1-2.2,3.4-1.2,5.2l36.1,62.4l42.9,20.4
		c1.7,0.8,3.6,0.3,4.7-1.1l24.8-31.3c1.4-1.8,1-4.4-0.9-5.7l-53.9-34.8L3806.7,1019.1z"/>
	<path class="accentcolor" d="M4209.4,1104.5c-0.5-1.9-2.3-3.1-4.2-2.7l-70.8,14.6l-62,38.8c-1.7,1.1-2.2,3.3-1.1,5l50.8,77.2
		c1.2,1.8,3.6,2.2,5.3,0.8l33.1-26.9l65.3-27.2c1.7-0.7,2.5-2.4,2.1-4.2L4209.4,1104.5z"/>
	<path class="accentcolor" d="M3666.9,1396.4c0.5,1.9,2.3,3.1,4.2,2.7l70.8-14.6l62-38.8c1.7-1.1,2.2-3.3,1.1-5l-50.8-77.2
		c-1.2-1.8-3.6-2.2-5.3-0.8l-33.1,26.9l-65.3,27.2c-1.7,0.7-2.5,2.4-2.1,4.2L3666.9,1396.4z"/>
	<path class="accentcolor" d="M4072.4,1215.1c1.4-1.1,1.7-3.1,0.7-4.6l-19.6-28.1c-1-1.4-2.9-1.9-4.4-1l-93.7,51c-1.3,0.7-2,2-1.7,3.5
		l6.1,40.7c0.2,1,0.7,1.9,1.6,2.4l29.5,17.9c1.7,1,3.9,0.4,4.8-1.3l18.4-35L4072.4,1215.1z"/>
	<path class="accentcolor" d="M4003.4,1300.6c-0.8,1.6-0.3,3.6,1.2,4.5l37.8,22.9c1.4,0.8,3.1,0.6,4.2-0.5l61.2-62.3c1.2-1.2,1.3-3,0.4-4.3
		l-26-37.2c-1.1-1.6-3.3-1.9-4.9-0.7l-56.1,43.6L4003.4,1300.6z"/>
	<path class="accentcolor" d="M3800.1,1283.4c-1.4,1.1-1.7,3.1-0.7,4.6l19.6,28.1c1,1.4,2.9,1.9,4.4,1l93.7-51c1.3-0.7,2-2,1.7-3.5
		l-6.1-40.7c-0.2-1-0.7-1.9-1.6-2.4l-29.5-17.9c-1.7-1-3.9-0.4-4.8,1.3l-18.4,35L3800.1,1283.4z"/>
	<path class="accentcolor" d="M3869.1,1197.9c0.8-1.6,0.3-3.6-1.2-4.5l-37.8-22.9c-1.4-0.8-3.1-0.6-4.2,0.5l-61.2,62.3
		c-1.2,1.2-1.3,3-0.4,4.3l26,37.2c1.1,1.6,3.3,1.9,4.9,0.7l56.1-43.6L3869.1,1197.9z"/>
	<path class="accentcolor" d="M3745.2,1716.9c0.5,1.9,2.3,3.1,4.2,2.7l70.8-14.6l62-38.8c1.7-1.1,2.2-3.3,1.1-5l-50.8-77.2
		c-1.2-1.8-3.6-2.2-5.3-0.8l-33.1,26.9l-65.3,27.2c-1.7,0.7-2.5,2.4-2.1,4.2L3745.2,1716.9z"/>
	<path class="accentcolor" d="M3879.5,1608.4c-1.4,1.1-1.7,3.1-0.7,4.6l19.6,28.1c1,1.4,2.9,1.9,4.4,1l93.7-51c1.3-0.7,2-2,1.7-3.5
		l-6.1-40.7c-0.2-1-0.7-1.9-1.6-2.4l-29.5-17.9c-1.7-1-3.9-0.4-4.8,1.3l-18.4,35L3879.5,1608.4z"/>
	<path class="accentcolor" d="M3948.5,1522.8c0.8-1.6,0.3-3.6-1.2-4.5l-37.8-22.9c-1.4-0.8-3.1-0.6-4.2,0.5l-61.2,62.3
		c-1.2,1.2-1.3,3-0.4,4.3l26,37.2c1.1,1.6,3.3,1.9,4.9,0.7l56.1-43.6L3948.5,1522.8z"/>
	<path class="accentcolor" d="M4035.1,1576.3c4.2-9.7,8.5-19.6,13.1-29.7l-14.2,7.7c-1.3,0.7-2,2-1.7,3.5L4035.1,1576.3z"/>
</g>
<path class="maincolor" d="M291.4,701.3c15.2,2.3,56.1,8.4,56.1,8.4c159.9,27.2,286.2,69.3,359.3,99c568.7,231.2,765.5,757,815.6,922.7
	c0,0,6.1,20.1,8.5,28c4.8,15.8,18.2,26.5,34.7,26.5h266c21.7,0,40.2-6.3,57.3-19.7l605.4-471c7.5-5.9,6.2-17.7-2.7-21.3
	c-18-7.2-34.7-15.3-34.7-15.3c-28.1-13.1-177.1-92.2-201.9-110.8c-100.5-75.2-99-82.5-112.8-204.4c-0.1-2.6-26.2-241-13-393.6
	c8.3-96.3,34.8-114.6,75.4-152.2c34.2-31.7,113.4-84.5,120.3-88.4l240.6-139.7c8.3-4.8,4.3-17.5-5.2-16.8c-47,3.6-115.8,6-186.3,8.8
	c-164.2,6.5-745.1,16.1-1398.3,24.5l-34.6,0.4c-8.2,0.1-15.2,2.5-21.6,7.6c-9.4,7.3-632.1,491.3-632.1,491.3
	C281,690.1,283.6,700.1,291.4,701.3z"/>
	
<path class="accentoutline" d="M1519.1,1785.5c-0.1,4.3,0,8.5,0.4,12.8c1,11.7,7.1,22.3,16.7,29l45.8,32.2c4.2,3,9,5.2,14.1,6.4
	c4.7,5.1,10.6,8.9,17.1,11.1l67.6,25.5c23.3,8.8,48.7-5.2,54.5-29l17.5-71.7c4.3-17.7-3.4-36.1-19-45.4l9.3,1.9
	c22.8,4.7,45.2-9.5,50.7-32.1l18.4-75.5c5.1-20.7-5.7-42.1-25.4-50.2l-60-24.9l-1-0.8l32.1,12.1c23.3,8.8,48.7-5.2,54.5-29
	l17.5-71.7c4.7-19-4.6-38.7-22.3-47.1l-12.5-6.6l26.2,5.4c22.8,4.7,45.2-9.5,50.7-32.1l18.4-75.5c5.1-20.7-5.7-42.1-25.4-50.2
	l-10.6-4.4c16.8-2.4,30.4-14.7,34.4-31.2l17.5-71.7c4.7-19-4.6-38.7-22.3-47.1l-6.1-3.2l19.4,4c22.8,4.7,45.2-9.5,50.7-32.1
	l18.4-75.5c5.1-20.7-5.7-42.1-25.4-50.2l-60-24.9l-1-0.8l32.1,12.1c2,0.7,4,1.3,6.1,1.8c21.8,4.4,43.2-9.1,48.4-30.7l17.5-71.7
	c4.7-19-4.6-38.7-22.3-47.1l-12.5-6.6l26.2,5.4c22.8,4.7,45.2-9.5,50.7-32.1l18.4-75.5c5.1-20.7-5.7-42.1-25.4-50.2l-10.6-4.4
	c16.8-2.4,30.4-14.7,34.4-31.2l17.5-71.7c4.3-17.7-3.4-36.1-19-45.4l9.3,1.9c22.8,4.7,45.2-9.5,50.7-32.1l18.4-75.5
	c5.1-20.7-5.7-42.1-25.4-50.2l-60-24.9l-1-0.8l32.1,12.1c2,0.7,4,1.3,6.1,1.8c21.8,4.4,43.2-9.1,48.4-30.7l17.5-71.7
	c4.7-19-4.6-38.7-22.3-47.1l-49.3-26.1l-64.1-53.7c-1.1-0.8-2.3-1.6-3.5-2.4c0.9-15.4-6.5-30.2-19.4-38.7l-27.3-18.1
	c-2.4-1.6-4.9-2.9-7.6-4c-2-2-4.3-3.9-6.7-5.4l-33.7-22.4c-14.4-9.6-33.1-9.8-47.6-0.4l-70.4,44.9c-10.6,6.8-17.7,17.7-19.6,30.1
	c-0.1,0-0.2,0.1-0.3,0.1l-42.8,20.3c-7.3,3.4-13.3,9-17.3,16l-33.5,57.9l-55.7-34.8c-4-2.5-8.4-4.3-13-5.2l-70.8-14.6
	c-22.8-4.7-45.2,9.5-50.7,32.1l-18.4,75.5c-5.1,20.7,5.7,42.1,25.4,50.2l6.7,2.8c-14.2,4.1-25.1,15.5-28.6,29.9l-20,81.7
	c-3.2,13.1,0.2,26.9,9,37.1c-22.5-4.1-44.3,10-49.7,32.3l-18.4,75.5c-5.1,20.7,5.7,42.1,25.4,50.2l17.9,7.5
	c-19.5-0.6-36.8,12.6-41.4,31.5l-20,81.7c-3.8,15.7,1.8,32.2,14.4,42.2l-5.4-1.1c-22.8-4.7-45.2,9.5-50.7,32.1l-18.4,75.5
	c-5.1,20.7,5.7,42.1,25.4,50.2l11,4.6c-16.4,2.6-29.7,14.9-33.6,31l-20,81.7c-3.2,13.1,0.2,26.9,9,37.1c-22.5-4.1-44.3,10-49.7,32.3
	l-18.4,75.5c-5.1,20.7,5.7,42.1,25.4,50.2l17.9,7.5c-19.5-0.6-36.8,12.6-41.4,31.5l-20,81.7c-5.2,21.3,7.1,43,28.2,49.4l47.7,14.5
	l61.1,51.2c1.1,0.8,2.2,1.6,3.3,2.3c-0.2,2.3-0.3,4.7-0.2,7c-8.3,3-15.4,8.6-20.5,15.8l-19.5,28c-1.6,2.2-2.9,4.6-4,7.1
	c-1.9,1.9-3.7,4-5.2,6.2l-25.9,37.2c-11.9,17-10,40.1,4.6,54.8l61.1,62.2c11,11.3,27.4,15.6,42.5,11.3c0.9,1.3,32.6,41.1,34.4,43.4
	c1.8,2.3,3.8,4.4,6,6.2c1.3,2.6,2.9,5,4.7,7.2l24.8,31.2c12.6,15.9,34.5,21,52.8,12.2L1519.1,1785.5z"/>
<g>
	<path class="accentcolor" d="M1742.9,474.2l-53.3,34.9l-18.8,30.9c-1.1,1.8-0.6,4.1,1.2,5.3l34,22.2c1.3,0.9,2.9,0.9,4.2,0l70.2-45.5
		c1.9-1.3,2.4-3.9,0.9-5.7L1748,475C1746.8,473.4,1744.6,473.1,1742.9,474.2z"/>
	<path class="accentcolor" d="M1663.2,534.6l19.6-32.2l53.6-35.2c1.9-1.3,2.3-3.9,0.9-5.7l-25.1-31.1c-1.1-1.4-3.1-1.9-4.7-1.1l-42.8,20.6
		l-35.6,62.7c-1,1.8-0.5,4,1.2,5.2l27.4,17.9C1659.6,537.1,1662,536.5,1663.2,534.6z"/>
	<path class="accentcolor" d="M1691.2,762.3l53.5-34.6l19-30.7c1.1-1.8,0.6-4.1-1.2-5.3l-33.8-22.4c-1.3-0.9-2.9-0.9-4.2,0l-70.5,45
		c-1.9,1.2-2.4,3.9-0.9,5.7l33,41.5C1687.3,763,1689.5,763.4,1691.2,762.3z"/>
	<path class="accentcolor" d="M1771.3,702.4l-19.8,32l-53.9,34.8c-1.9,1.2-2.4,3.9-0.9,5.7l24.8,31.3c1.1,1.4,3,1.9,4.7,1.1l42.9-20.4
		l36.1-62.4c1-1.8,0.5-4-1.2-5.2l-27.3-18.1C1774.9,700,1772.4,700.5,1771.3,702.4z"/>
	<path class="accentcolor" d="M1429.1,637.3l-20,81.7c-0.2,0.9,0.3,1.8,1.2,2.1l55.5,16.9l65.7,55.1c0.6,0.5,2,0.7,2.4,0
		c1.2-2.2,21.2-39.2,30.1-65.1c3.3-9.5,1.9-23.2,1.9-23.2l-44.9-36.2c-0.6-0.4-1.4-0.4-2,0l-29.1,23.1c-0.7,0.5-1.8-0.4-1.4-1.2
		l12.3-30.9c0.4-1-0.2-2.2-1.3-2.4l-68.2-21.1C1430.2,635.8,1429.3,636.4,1429.1,637.3z"/>
	<path class="accentcolor" d="M2005,603.2l17.5-71.8c0.2-0.9-0.3-1.8-1.2-2.1l-54.1-28.7l-65.7-55.1c-0.6-0.5-2-0.7-2.4,0
		c-1.2,2.2-21.2,39.2-30.1,65.1c-3.3,9.5-1.9,23.2-1.9,23.2l45.9,32.3c0.6,0.4,1.4,0.4,2,0l28.1-19.1c0.7-0.5,1.8,0.4,1.4,1.2
		l-11.6,27.9c-0.4,1,0.2,2.2,1.3,2.4l68.6,25.9C2003.9,604.7,2004.8,604.1,2005,603.2z"/>
	<path class="accentcolor" d="M1506.3,321.6l-20,81.7c-0.2,0.9,0.3,1.8,1.2,2.1l55.5,16.9l65.7,55.1c0.6,0.5,2,0.7,2.4,0
		c1.2-2.2,21.2-39.2,30.1-65.1c3.3-9.5,1.9-23.2,1.9-23.2l-44.9-36.2c-0.6-0.4-1.4-0.4-2,0l-29.1,23.1c-0.7,0.5-1.8-0.4-1.4-1.2
		l12.3-30.9c0.4-1-0.2-2.2-1.3-2.4l-68.2-21.1C1507.4,320.1,1506.5,320.7,1506.3,321.6z"/>
	<path class="accentcolor" d="M1928.4,916.6l17.5-71.8c0.2-0.9-0.3-1.8-1.2-2.1l-54.1-28.7l-65.7-55.1c-0.6-0.5-2-0.7-2.4,0
		c-1.2,2.2-21.2,39.2-30.1,65.1c-3.3,9.5-1.9,23.2-1.9,23.2l45.9,32.3c0.6,0.4,1.4,0.4,2,0l28.1-19.1c0.7-0.5,1.8,0.4,1.4,1.2
		l-11.6,27.9c-0.4,1,0.2,2.2,1.3,2.4l68.6,25.9C1927.3,918.1,1928.2,917.5,1928.4,916.6z"/>
	<path class="accentcolor" d="M1664.9,791.8l-53.5,34.6l-19,30.7c-1.1,1.8-0.6,4.1,1.2,5.3l33.8,22.4c1.3,0.9,2.9,0.9,4.2,0l70.5-45
		c1.9-1.2,2.4-3.9,0.9-5.7l-33-41.5C1668.8,791.1,1666.6,790.7,1664.9,791.8z"/>
	<path class="accentcolor" d="M1584.8,851.7l19.8-32l53.9-34.8c1.9-1.2,2.4-3.9,0.9-5.7l-24.8-31.3c-1.1-1.4-3-1.9-4.7-1.1l-42.9,20.4
		l-36.1,62.4c-1,1.8-0.5,4,1.2,5.2l27.3,18.1C1581.2,854.1,1583.7,853.6,1584.8,851.7z"/>
	<path class="accentcolor" d="M1768.2,447.1l53.5-34.6l19-30.7c1.1-1.8,0.6-4.1-1.2-5.3l-33.8-22.4c-1.3-0.9-2.9-0.9-4.2,0l-70.5,45
		c-1.9,1.2-2.4,3.9-0.9,5.7l33,41.5C1764.3,447.8,1766.5,448.2,1768.2,447.1z"/>
	<path class="accentcolor" d="M1848.3,387.2l-19.8,32l-53.9,34.8c-1.9,1.2-2.4,3.9-0.9,5.7l24.8,31.3c1.1,1.4,3,1.9,4.7,1.1l42.9-20.4
		l36.1-62.4c1-1.8,0.5-4-1.2-5.2l-27.3-18.1C1851.9,384.8,1849.4,385.3,1848.3,387.2z"/>
	<path class="accentcolor" d="M1445.6,472.6l-18.5,75.6c-0.4,1.7,0.5,3.5,2.1,4.2l65.3,27.2l33.1,26.9c1.7,1.3,4.1,1,5.3-0.8l50.8-77.2
		c1.1-1.7,0.6-4-1.1-5l-62-38.8l-70.8-14.6C1447.9,469.5,1446,470.7,1445.6,472.6z"/>
	<path class="accentcolor" d="M1988.1,764.5l18.5-75.6c0.4-1.7-0.5-3.5-2.1-4.2l-65.3-27.2l-33.1-26.9c-1.7-1.3-4.1-1-5.3,0.8l-50.8,77.2
		c-1.1,1.7-0.6,4,1.1,5l62,38.8l70.8,14.6C1985.8,767.5,1987.7,766.4,1988.1,764.5z"/>
	<path class="accentcolor" d="M1582.6,583.1l58.3,45.3l18.4,35c0.9,1.7,3.1,2.3,4.8,1.3l29.5-17.9c0.9-0.5,1.4-1.4,1.6-2.4l6.1-40.7
		c0.2-1.4-0.5-2.8-1.7-3.5l-93.7-51c-1.5-0.8-3.4-0.4-4.4,1l-19.6,28.1C1580.9,580,1581.2,582,1582.6,583.1z"/>
	<path class="accentcolor" d="M1651.6,668.7l-17.9-34.1l-56.1-43.6c-1.5-1.2-3.8-0.9-4.9,0.7l-26,37.2c-0.9,1.4-0.8,3.1,0.4,4.3l61.2,62.3
		c1.1,1.1,2.8,1.4,4.2,0.5l37.8-22.9C1651.9,672.2,1652.4,670.3,1651.6,668.7z"/>
	<path class="accentcolor" d="M1854.9,651.5l-58.3-45.3l-18.4-35c-0.9-1.7-3.1-2.3-4.8-1.3l-29.5,17.9c-0.9,0.5-1.4,1.4-1.6,2.4l-6.1,40.7
		c-0.2,1.4,0.5,2.8,1.7,3.5l93.7,51c1.5,0.8,3.4,0.4,4.4-1l19.6-28.1C1856.6,654.6,1856.3,652.6,1854.9,651.5z"/>
	<path class="accentcolor" d="M1785.9,565.9l17.9,34.1l56.1,43.6c1.5,1.2,3.8,0.9,4.9-0.7l26-37.2c0.9-1.4,0.8-3.1-0.4-4.3l-61.2-62.3
		c-1.1-1.1-2.8-1.4-4.2-0.5l-37.8,22.9C1785.7,562.4,1785.1,564.3,1785.9,565.9z"/>
	<path class="accentcolor" d="M1367.5,792.2l-18.5,75.6c-0.4,1.7,0.5,3.5,2.1,4.2l65.3,27.2l33.1,26.9c1.7,1.3,4.1,1,5.3-0.8l50.8-77.2
		c1.1-1.7,0.6-4-1.1-5l-62-38.8l-70.8-14.6C1369.8,789.1,1367.9,790.3,1367.5,792.2z"/>
	<path class="accentcolor" d="M1909.8,1085l18.5-75.6c0.4-1.7-0.5-3.5-2.1-4.2l-65.3-27.2l-33.1-26.9c-1.7-1.3-4.1-1-5.3,0.8l-50.8,77.2
		c-1.1,1.7-0.6,4,1.1,5l62,38.8l70.8,14.6C1907.5,1088,1909.3,1086.9,1909.8,1085z"/>
	<path class="accentcolor" d="M1775.5,976.4l-58.3-45.3l-18.4-35c-0.9-1.7-3.1-2.3-4.8-1.3l-29.5,17.9c-0.9,0.5-1.4,1.4-1.6,2.4l-6.1,40.7
		c-0.2,1.4,0.5,2.8,1.7,3.5l93.7,51c1.5,0.8,3.4,0.4,4.4-1l19.6-28.1C1777.2,979.6,1776.9,977.5,1775.5,976.4z"/>
	<path class="accentcolor" d="M1706.5,890.8l17.9,34.1l56.1,43.6c1.5,1.2,3.8,0.9,4.9-0.7l26-37.2c0.9-1.4,0.8-3.1-0.4-4.3l-61.2-62.3
		c-1.1-1.1-2.8-1.4-4.2-0.5l-37.8,22.9C1706.2,887.3,1705.7,889.2,1706.5,890.8z"/>
	<path class="accentcolor" d="M1504,905.1l58.3,45.3l18.4,35c0.9,1.7,3.1,2.3,4.8,1.3L1615,969c0.9-0.5,1.4-1.4,1.6-2.4l6.1-40.7
		c0.2-1.4-0.5-2.8-1.7-3.5l-93.7-51c-1.5-0.8-3.4-0.4-4.4,1l-19.6,28.1C1502.2,902,1502.5,904,1504,905.1z"/>
	<path class="accentcolor" d="M1572.9,990.7l-17.9-34.1l-56.1-43.6c-1.5-1.2-3.8-0.9-4.9,0.7l-26,37.2c-0.9,1.4-0.8,3.1,0.4,4.3l61.2,62.3
		c1.1,1.1,2.8,1.4,4.2,0.5l37.8-22.9C1573.2,994.3,1573.7,992.3,1572.9,990.7z"/>
	<path class="accentcolor" d="M1892.1,172.5c-6.7,0.1-13.4,0.2-20.2,0.4l3.4,4.3c1.1,1.4,3,1.9,4.7,1.1L1892.1,172.5z"/>
	<path class="accentcolor" d="M2026.4,170c-22.8,0.4-46.4,0.9-70.7,1.3c-3.6,8.1-7,16.4-9.6,23.7c-3.3,9.5-1.9,23.2-1.9,23.2l45.9,32.3
		c0.6,0.4,1.4,0.4,2,0l28.1-19.1c0.7-0.5,1.8,0.4,1.4,1.2l-11.6,27.9c-0.4,1,0.2,2.2,1.3,2.4l68.6,25.9c0.9,0.2,1.8-0.4,2.1-1.3
		l17.5-71.8c0.2-0.9-0.3-1.8-1.2-2.1l-54.1-28.7L2026.4,170z"/>
	<path class="accentcolor" d="M1831.7,173.5c-10,0.2-20.2,0.3-30.4,0.5l-36.1,23.3l-19,30.7c-1.1,1.8-0.6,4.1,1.2,5.3l33.8,22.4
		c1.3,0.9,2.9,0.9,4.2,0l70.5-45c1.9-1.2,2.4-3.9,0.9-5.7C1856.8,205.2,1837.6,181.1,1831.7,173.5z"/>
	<path class="accentcolor" d="M1783.6,174.3c-21.1,0.4-42.6,0.7-64.4,1.1l-14.6,25.3c-1,1.8-0.5,4,1.2,5.2l27.3,18.1
		c1.8,1.2,4.3,0.7,5.4-1.2l19.8-32L1783.6,174.3z"/>
	<path class="accentcolor" d="M1599.7,177.3c-27,0.4-54.4,0.8-82.3,1.2l-14.7,60.2c-0.4,1.7,0.5,3.5,2.1,4.2l65.3,27.2l33.1,26.9
		c1.7,1.3,4.1,1,5.3-0.8l50.8-77.2c1.1-1.7,0.6-4-1.1-5L1599.7,177.3z"/>
	<path class="accentcolor" d="M2063.5,455.9l18.5-75.6c0.4-1.7-0.5-3.5-2.1-4.2l-65.3-27.2l-33.1-26.9c-1.7-1.3-4.1-1-5.3,0.8l-50.8,77.2
		c-1.1,1.7-0.6,4,1.1,5l62,38.8l70.8,14.6C2061.2,459,2063.1,457.8,2063.5,455.9z"/>
	<path class="accentcolor" d="M1929.2,347.4l-58.3-45.3l-18.4-35c-0.9-1.7-3.1-2.3-4.8-1.3l-29.5,17.9c-0.9,0.5-1.4,1.4-1.6,2.4l-6.1,40.7
		c-0.2,1.4,0.5,2.8,1.7,3.5l93.7,51c1.5,0.8,3.4,0.4,4.4-1l19.6-28.1C1931,350.5,1930.7,348.5,1929.2,347.4z"/>
	<path class="accentcolor" d="M1860.3,261.8l17.9,34.1l56.1,43.6c1.5,1.2,3.8,0.9,4.9-0.7l26-37.2c0.9-1.4,0.8-3.1-0.4-4.3l-61.2-62.3
		c-1.1-1.1-2.8-1.4-4.2-0.5l-37.8,22.9C1860,258.3,1859.4,260.2,1860.3,261.8z"/>
	<path class="accentcolor" d="M1657.7,276.1l58.3,45.3l18.4,35c0.9,1.7,3.1,2.3,4.8,1.3l29.5-17.9c0.9-0.5,1.4-1.4,1.6-2.4l6.1-40.7
		c0.2-1.4-0.5-2.8-1.7-3.5l-93.7-51c-1.5-0.8-3.4-0.4-4.4,1l-19.6,28.1C1655.9,273,1656.2,275,1657.7,276.1z"/>
	<path class="accentcolor" d="M1726.6,361.7l-17.9-34.1l-56.1-43.6c-1.5-1.2-3.8-0.9-4.9,0.7l-26,37.2c-0.9,1.4-0.8,3.1,0.4,4.3l61.2,62.3
		c1.1,1.1,2.8,1.4,4.2,0.5l37.8-22.9C1726.9,365.2,1727.5,363.3,1726.6,361.7z"/>
	<path class="accentcolor" d="M1558.7,1785.2c2.2,0.4,4.5,0.6,6.9,0.6h139.2l-45.7-24.2l-65.7-55.1c-0.6-0.5-2-0.7-2.4,0
		c-1.2,2.2-21.2,39.2-30.1,65.1C1559.4,1775.9,1558.9,1780.9,1558.7,1785.2z"/>
	<path class="accentcolor" d="M1483.9,1621c8.2,20.9,15.3,40.3,21.4,57.8l8.2-5.3l19-30.7c1.1-1.8,0.6-4.1-1.2-5.3l-33.8-22.4
		c-1.3-0.9-2.9-0.9-4.2,0L1483.9,1621z"/>
	<path class="accentcolor" d="M1508.4,1687.9c5.6,16.4,10.2,30.9,14,43.5c0,0,1,3.2,2.3,7.6l13.3-6.3l36.1-62.4c1-1.8,0.5-4-1.2-5.2
		l-27.3-18.1c-1.8-1.2-4.3-0.7-5.4,1.2l-19.8,32L1508.4,1687.9z"/>
	<path class="accentcolor" d="M1588.5,1106.1l-53.3,34.9l-18.8,30.9c-1.1,1.8-0.6,4.1,1.2,5.3l34,22.2c1.3,0.9,2.9,0.9,4.2,0l70.2-45.5
		c1.9-1.3,2.4-3.9,0.9-5.7l-33.3-41.3C1592.3,1105.4,1590.1,1105,1588.5,1106.1z"/>
	<path class="accentcolor" d="M1508.7,1166.6l19.6-32.2l53.6-35.2c1.9-1.3,2.3-3.9,0.9-5.7l-25.1-31.1c-1.1-1.4-3.1-1.9-4.7-1.1l-42.8,20.6
		l-35.6,62.7c-1,1.8-0.5,4,1.2,5.2l27.4,17.9C1505.1,1169,1507.6,1168.4,1508.7,1166.6z"/>
	<path class="accentcolor" d="M1536.7,1394.2l53.5-34.6l19-30.7c1.1-1.8,0.6-4.1-1.2-5.3l-33.8-22.4c-1.3-0.9-2.9-0.9-4.2,0l-70.5,45
		c-1.9,1.2-2.4,3.9-0.9,5.7l33,41.5C1532.8,1395,1535,1395.3,1536.7,1394.2z"/>
	<path class="accentcolor" d="M1616.8,1334.3l-19.8,32l-53.9,34.8c-1.9,1.2-2.4,3.9-0.9,5.7l24.8,31.3c1.1,1.4,3,1.9,4.7,1.1l42.9-20.4
		l36.1-62.4c1-1.8,0.5-4-1.2-5.2l-27.3-18.1C1620.4,1331.9,1618,1332.5,1616.8,1334.3z"/>
	<path class="accentcolor" d="M1293.9,1273.2c34.8,48,65,95.6,91.1,141.4c6.9-13.3,18.4-36.6,24.6-54.7c3.3-9.5,1.9-23.2,1.9-23.2
		l-44.9-36.2c-0.6-0.4-1.4-0.4-2,0l-29.1,23.1c-0.7,0.5-1.8-0.4-1.4-1.2l12.3-30.9c0.4-1-0.2-2.2-1.3-2.4
		C1345,1289,1306.8,1277.2,1293.9,1273.2z"/>
	<path class="accentcolor" d="M1850.6,1235.2l17.5-71.8c0.2-0.9-0.3-1.8-1.2-2.1l-54.1-28.7l-65.7-55.1c-0.6-0.5-2-0.7-2.4,0
		c-1.2,2.2-21.2,39.2-30.1,65.1c-3.3,9.5-1.9,23.2-1.9,23.2l45.9,32.3c0.6,0.4,1.4,0.4,2,0l28.1-19.1c0.7-0.5,1.8,0.4,1.4,1.2
		l-11.6,27.9c-0.4,1,0.2,2.2,1.3,2.4l68.6,25.9C1849.4,1236.7,1850.4,1236.1,1850.6,1235.2z"/>
	<path class="accentcolor" d="M1351.8,953.5l-20,81.7c-0.2,0.9,0.3,1.8,1.2,2.1l55.5,16.9l65.7,55.1c0.6,0.5,2,0.7,2.4,0
		c1.2-2.2,21.2-39.2,30.1-65.1c3.3-9.5,1.9-23.2,1.9-23.2l-44.9-36.2c-0.6-0.4-1.4-0.4-2,0l-29.1,23.1c-0.7,0.5-1.8-0.4-1.4-1.2
		l12.3-30.9c0.4-1-0.2-2.2-1.3-2.4l-68.2-21.1C1353,952,1352.1,952.6,1351.8,953.5z"/>
	<path class="accentcolor" d="M1774,1548.6l17.5-71.8c0.2-0.9-0.3-1.8-1.2-2.1l-54.1-28.7l-65.7-55.1c-0.6-0.5-2-0.7-2.4,0
		c-1.2,2.2-21.2,39.2-30.1,65.1c-3.3,9.5-1.9,23.2-1.9,23.2l45.9,32.3c0.6,0.4,1.4,0.4,2,0l28.1-19.1c0.7-0.5,1.8,0.4,1.4,1.2
		l-11.6,27.9c-0.4,1,0.2,2.2,1.3,2.4l68.6,25.9C1772.9,1550.1,1773.8,1549.5,1774,1548.6z"/>
	<path class="accentcolor" d="M1510.5,1423.7l-53.5,34.6l-19,30.7c-1.1,1.8-0.6,4.1,1.2,5.3l33.8,22.4c1.3,0.9,2.9,0.9,4.2,0l70.5-45
		c1.9-1.2,2.4-3.9,0.9-5.7l-33-41.5C1514.4,1423,1512.2,1422.7,1510.5,1423.7z"/>
	<path class="accentcolor" d="M1403.9,1448.7c6.2,11.5,12.1,22.8,17.8,34c2.9,1.9,3.3,2.2,3.3,2.2c1.8,1.2,4.3,0.7,5.4-1.2l19.8-32
		l53.9-34.8c1.9-1.2,2.4-3.9,0.9-5.7l-24.8-31.3c-1.1-1.4-3-1.9-4.7-1.1l-42.9,20.4L1403.9,1448.7z"/>
	<path class="accentcolor" d="M1613.7,1079.1l53.5-34.6l19-30.7c1.1-1.8,0.6-4.1-1.2-5.3l-33.8-22.4c-1.3-0.9-2.9-0.9-4.2,0l-70.5,45
		c-1.9,1.2-2.4,3.9-0.9,5.7l33,41.5C1609.9,1079.8,1612.1,1080.1,1613.7,1079.1z"/>
	<path class="accentcolor" d="M1693.9,1019.1l-19.8,32l-53.9,34.8c-1.9,1.2-2.4,3.9-0.9,5.7l24.8,31.3c1.1,1.4,3,1.9,4.7,1.1l42.9-20.4
		l36.1-62.4c1-1.8,0.5-4-1.2-5.2l-27.3-18.1C1697.5,1016.7,1695,1017.3,1693.9,1019.1z"/>
	<path class="accentcolor" d="M1291.1,1104.5l-18.5,75.6c-0.4,1.7,0.5,3.5,2.1,4.2l65.3,27.2l33.1,26.9c1.7,1.3,4.1,1,5.3-0.8l50.8-77.2
		c1.1-1.7,0.6-4-1.1-5l-62-38.8l-70.8-14.6C1293.5,1101.5,1291.6,1102.6,1291.1,1104.5z"/>
	<path class="accentcolor" d="M1833.7,1396.4l18.5-75.6c0.4-1.7-0.5-3.5-2.1-4.2l-65.3-27.2l-33.1-26.9c-1.7-1.3-4.1-1-5.3,0.8l-50.8,77.2
		c-1.1,1.7-0.6,4,1.1,5l62,38.8l70.8,14.6C1831.4,1399.5,1833.2,1398.3,1833.7,1396.4z"/>
	<path class="accentcolor" d="M1428.2,1215.1l58.3,45.3l18.4,35c0.9,1.7,3.1,2.3,4.8,1.3l29.5-17.9c0.9-0.5,1.4-1.4,1.6-2.4l6.1-40.7
		c0.2-1.4-0.5-2.8-1.7-3.5l-93.7-51c-1.5-0.8-3.4-0.4-4.4,1l-19.6,28.1C1426.5,1211.9,1426.8,1213.9,1428.2,1215.1z"/>
	<path class="accentcolor" d="M1497.2,1300.6l-17.9-34.1l-56.1-43.6c-1.5-1.2-3.8-0.9-4.9,0.7l-26,37.2c-0.9,1.4-0.8,3.1,0.4,4.3l61.2,62.3
		c1.1,1.1,2.8,1.4,4.2,0.5l37.8-22.9C1497.5,1304.2,1498,1302.2,1497.2,1300.6z"/>
	<path class="accentcolor" d="M1700.5,1283.4l-58.3-45.3l-18.4-35c-0.9-1.7-3.1-2.3-4.8-1.3l-29.5,17.9c-0.9,0.5-1.4,1.4-1.6,2.4l-6.1,40.7
		c-0.2,1.4,0.5,2.8,1.7,3.5l93.7,51c1.5,0.8,3.4,0.4,4.4-1l19.6-28.1C1702.2,1286.6,1701.9,1284.5,1700.5,1283.4z"/>
	<path class="accentcolor" d="M1631.5,1197.9l17.9,34.1l56.1,43.6c1.5,1.2,3.8,0.9,4.9-0.7l26-37.2c0.9-1.4,0.8-3.1-0.4-4.3l-61.2-62.3
		c-1.1-1.1-2.8-1.4-4.2-0.5l-37.8,22.9C1631.2,1194.3,1630.7,1196.3,1631.5,1197.9z"/>
	<path class="accentcolor" d="M1755.4,1716.9l18.5-75.6c0.4-1.7-0.5-3.5-2.1-4.2l-65.3-27.2l-33.1-26.9c-1.7-1.3-4.1-1-5.3,0.8l-50.8,77.2
		c-1.1,1.7-0.6,4,1.1,5l62,38.8l70.8,14.6C1753,1720,1754.9,1718.8,1755.4,1716.9z"/>
	<path class="accentcolor" d="M1621,1608.4l-58.3-45.3l-18.4-35c-0.9-1.7-3.1-2.3-4.8-1.3l-29.5,17.9c-0.9,0.5-1.4,1.4-1.6,2.4l-6.1,40.7
		c-0.2,1.4,0.5,2.8,1.7,3.5l93.7,51c1.5,0.8,3.4,0.4,4.4-1l19.6-28.1C1622.8,1611.5,1622.5,1609.5,1621,1608.4z"/>
	<path class="accentcolor" d="M1552.1,1522.8l17.9,34.1l56.1,43.6c1.5,1.2,3.8,0.9,4.9-0.7l26-37.2c0.9-1.4,0.8-3.1-0.4-4.3l-61.2-62.3
		c-1.1-1.1-2.8-1.4-4.2-0.5l-37.8,22.9C1551.8,1519.2,1551.3,1521.2,1552.1,1522.8z"/>
	<path class="accentcolor" d="M1452.3,1546.6c4.6,10.1,9,20,13.1,29.7l2.8-18.5c0.2-1.4-0.5-2.8-1.7-3.5L1452.3,1546.6z"/>
</g>
	<text class="textcolor outline" textLength="11" lengthAdjust="spacingAndGlyphs" transform="matrix(118.4741 -1.3361 1.3361 118.4741 2.3547 486.4537)" style="font-family:BankGothic-Md-BT; font-size:2.3251px; stroke:#6A6A6A; stroke-width:.55; paint-order:stroke; stroke-linecap:round; stroke-linejoin:round; ">
		<tspan>$textRef</tspan>
	</text>

	<text class="textcolor outline" textLength="11" lengthAdjust="spacingAndGlyphs" transform="matrix(118.4816 -3.000000e-04 3.000000e-04 118.4816 4172.083 478.6956)" style="font-family:BankGothic-Md-BT; font-size:2.3251px; stroke:#6A6A6A; stroke-width:.55; paint-order:stroke; stroke-linecap:round; stroke-linejoin:round;">
	<tspan>$textRef</tspan>
</text>
</svg>
