<?xml version="1.0" encoding="utf-8"?>
<!-- Generator: Adobe Illustrator 27.9.1, SVG Export Plug-In . SVG Version: 6.00 Build 0)  -->
<svg class="w" version="1.1" xmlns="http://www.w3.org/2000/svg" xmlns:xlink="http://www.w3.org/1999/xlink" x="0px" y="0px"
	 viewBox="0 0 5742.5 1633.5" style="enable-background:new 0 0 5742.5 1633.5;" xml:space="preserve">
     $gradientDefs

	<path class="maincolor" d="M437,574.7l698.1-543.1c-52.5,0.7-105.7,1.4-159.4,2.1L941,34.1c-8.2,0.1-15.2,2.5-21.6,7.6
	c-9.4,7.3-632.1,491.3-632.1,491.3c-6.3,4.9-3.6,14.8,4.2,16c15.2,2.3,56.1,8.4,56.1,8.4C378.7,562.6,408.6,568.5,437,574.7z"/>
<path class="maincolor" d="M1179.2,31L470.6,582.3c52,12.4,98.7,25.8,139,38.8l762-592.9C1308.8,29.2,1244.6,30.1,1179.2,31z"/>
<path class="maincolor" d="M1430.6,27.4L650,634.8c21.5,7.6,40.5,14.9,56.9,21.5c19.7,8,38.9,16.3,57.7,25l843.8-656.6
	C1551,25.7,1491.6,26.6,1430.6,27.4z"/>
<path class="maincolor" d="M1682.3,23.6L809.2,703c32.3,16.4,63.3,33.8,93,52l943.4-734C1793.7,21.8,1739.1,22.7,1682.3,23.6z"/>
<path class="maincolor" d="M1934.6,19.4L949.8,785.6c26.1,17.6,51.1,35.9,75.1,54.6L2083.5,16.5C2037.6,17.5,1987.8,18.4,1934.6,19.4z"/>
<path class="maincolor" d="M2188,14.3L1074.3,880.8c20.9,18,40.9,36.4,60,55l1188.8-925C2286.9,12,2241.5,13.1,2188,14.3z"/>
<path class="maincolor" d="M2445,6.4L1184.4,987.2c16.4,17.8,32.2,35.7,47.2,53.6L2140,334.1c13-44.3,35.1-61.4,64.6-88.8
	c34.2-31.7,113.4-84.5,120.3-88.4L2494,58.6l72.5-56.4c-1.6-1.3-3.8-2-6.3-1.8C2529.3,2.8,2489.1,4.6,2445,6.4z"/>
<path class="maincolor" d="M2126.3,446.5l-844.9,657.4c12.7,17,24.8,33.9,36.3,50.8l808-628.6C2125.2,499,2125.4,472.1,2126.3,446.5z"/>
<path class="maincolor" d="M2129.8,635.8L1366.1,1230c9.5,15.8,18.5,31.3,27,46.7l741-576.5C2132.6,680.6,2131.1,658.9,2129.8,635.8z"/>
<path class="maincolor" d="M2145,816l-706.1,549.4c6.8,14.2,13.2,28.1,19.1,41.5l694-540C2149.4,852.8,2147.3,836.2,2145,816z"/>
<path class="maincolor" d="M2208.2,958.9l-708.6,551.3c4.6,12.7,8.7,24.6,12.3,35.5l724.9-564C2225.9,973.4,2216.4,965.9,2208.2,958.9z"/>
<path class="maincolor" d="M2342.6,1046.3L1588,1633.5h43.4l736.8-573.3C2359.7,1055.6,2351.1,1051,2342.6,1046.3z"/>
<path class="maincolor" d="M2492.3,1121.9l-657.5,511.5c20.3-0.6,37.8-7,54-19.6l605.4-471C2501.6,1137.1,2500.5,1125.8,2492.3,1121.9z"/>

	<text class="textcolor outline" textLength="14" lengthAdjust="spacingAndGlyphs" transform="matrix(118.4816 -3.000000e-04 3.000000e-04 118.4816 4.882812e-04 304.8753)" style="font-family:BankGothic-Md-BT; font-size:2.3251px; stroke:#6A6A6A; stroke-width:.55; paint-order:stroke; stroke-linecap:round; stroke-linejoin:round; ">
		<tspan>$textRef</tspan>
	</text>
	
<path class="maincolor" d="M5064.9,574.3L4366.8,31.2c52.5,0.7,105.7,1.4,159.4,2.1l34.6,0.4c8.2,0.1,15.2,2.5,21.6,7.6
	c9.4,7.3,632.1,491.3,632.1,491.3c6.2,4.9,3.6,14.8-4.2,16c-15.2,2.3-56.1,8.4-56.1,8.4C5123.2,562.2,5093.3,568.1,5064.9,574.3z"/>
<path class="maincolor" d="M4322.7,30.6L5031.3,582c-52,12.4-98.7,25.8-139,38.8l-762-592.9C4193.1,28.8,4257.3,29.7,4322.7,30.6z"/>
<path class="maincolor" d="M4071.3,27.1l780.6,607.4c-21.5,7.6-40.5,14.9-56.9,21.5c-19.7,8-38.9,16.3-57.7,25L3893.6,24.4
	C3951,25.3,4010.3,26.2,4071.3,27.1z"/>
<path class="maincolor" d="M3819.6,23.3l873.1,679.4c-32.3,16.4-63.3,33.8-93,52l-943.4-734C3708.2,21.5,3762.8,22.4,3819.6,23.3z"/>
<path class="maincolor" d="M3567.3,19l984.8,766.3c-26.1,17.6-51.1,35.9-75.1,54.6L3418.4,16.2C3464.3,17.1,3514.1,18.1,3567.3,19z"/>
<path class="maincolor" d="M3314,14l1113.7,866.5c-20.9,18-40.9,36.4-60,55l-1188.8-925C3215,11.6,3260.4,12.8,3314,14z"/>
<path class="maincolor" d="M3056.9,6l1260.7,980.9c-16.4,17.8-32.2,35.7-47.2,53.6l-908.4-706.8c-13-44.3-35.1-61.4-64.6-88.8
	c-34.2-31.7-113.4-84.5-120.3-88.4l-169.1-98.2l-72.5-56.4c1.6-1.3,3.8-2,6.3-1.8C2972.6,2.4,3012.9,4.2,3056.9,6z"/>
<path class="maincolor" d="M3375.6,446.1l844.9,657.4c-12.7,17-24.8,33.9-36.3,50.8l-808-628.6C3376.7,498.6,3376.5,471.7,3375.6,446.1z"
	/>
<path class="maincolor" d="M3372.1,635.4l763.7,594.2c-9.5,15.8-18.5,31.3-27,46.7l-741-576.5C3369.3,680.3,3370.8,658.5,3372.1,635.4z"/>
<path class="maincolor" d="M3356.9,815.6L4063,1365c-6.8,14.2-13.2,28.1-19.1,41.5l-694-540C3352.5,852.4,3354.6,835.9,3356.9,815.6z"/>
<path class="maincolor" d="M3293.7,958.5l708.6,551.3c-4.6,12.7-8.7,24.6-12.3,35.5l-724.9-564C3276,973,3285.5,965.5,3293.7,958.5z"/>
<path class="maincolor" d="M3159.3,1046l754.6,587.2h-43.4l-736.8-573.3C3142.2,1055.3,3150.8,1050.6,3159.3,1046z"/>
<path class="maincolor" d="M3009.6,1121.5l657.5,511.5c-20.3-0.6-37.8-7-54-19.6l-605.4-471C3000.3,1136.8,3001.4,1125.5,3009.6,1121.5z"
	/>

	<text class="textcolor outline" textLength="14" lengthAdjust="spacingAndGlyphs" transform="matrix(118.471 -1.3361 1.3361 118.4741 3788.6772 312.6333)" style="font-family:BankGothic-Md-BT; font-size:2.3251px; stroke:#6A6A6A; stroke-width:.55; paint-order:stroke; stroke-linecap:round; stroke-linejoin:round;">
		<tspan>$textRef</tspan>
	</text>
</svg>
