<?xml version="1.0" encoding="utf-8"?>
<!-- Generator: Adobe Illustrator 27.9.1, SVG Export Plug-In . SVG Version: 6.00 Build 0)  -->
<svg class="w" version="1.1" xmlns="http://www.w3.org/2000/svg" xmlns:xlink="http://www.w3.org/1999/xlink" x="0px" y="0px"
	 viewBox="0 0 5728.4 1624.8" style="enable-background:new 0 0 5728.4 1624.8;" xml:space="preserve">
     $gradientDefs

<path class="maincolor" d="M286.6,522.9c15.1,2.4,56,9,56,9c159.6,29,285.4,72.6,358.1,103.1c566.1,237.5,756.9,765.5,805.1,931.8
	c0,0,5.9,20.2,8.2,28.1c4.6,15.8,17.9,26.7,34.4,26.8l266,3c21.7,0.2,40.2-5.9,57.5-19l610.6-464.2c7.6-5.8,6.4-17.6-2.5-21.3
	c-17.9-7.4-34.5-15.7-34.5-15.7c-28-13.4-176.1-94.2-200.6-113c-99.6-76.3-98.1-83.6-110.5-205.6c-0.1-2.6-23.5-241.3-8.6-393.7
	c9.4-96.2,36.1-114.2,77.1-151.4c34.5-31.3,114.4-83.2,121.3-87.1l242.1-137c8.3-4.7,4.5-17.4-5-16.8c-47,3.1-115.8,4.7-186.4,6.7
	c-164.2,4.7-745.3,7.7-1398.4,8.7l-34.6,0c-8.2,0-15.2,2.4-21.7,7.3c-9.5,7.2-637.6,484.1-637.6,484.1
	C276.3,511.7,278.8,521.7,286.6,522.9z"/>

<text class="textcolor outline" textLength="14" lengthAdjust="spacingAndGlyphs" transform="matrix(118.4816 -3.000000e-04 3.000000e-04 118.4816 4.882812e-04 304.8753)" style="font-family:BankGothic-Md-BT; font-size:2.3251px; stroke:#6A6A6A; stroke-width:.55; paint-order:stroke; stroke-linecap:round; stroke-linejoin:round; ">
	<tspan>MAVERICK</tspan>
</text>

<path class="maincolor" d="M5198.2,522.9c-15.1,2.4-56,9-56,9c-159.6,29-285.4,72.6-358.1,103.1c-566.1,237.5-756.9,765.5-805.1,931.8
	c0,0-5.9,20.2-8.2,28.1c-4.6,15.8-17.9,26.7-34.4,26.8l-266,3c-21.7,0.2-40.2-5.9-57.5-19l-610.6-464.2c-7.6-5.8-6.4-17.6,2.5-21.3
	c17.9-7.4,34.5-15.7,34.5-15.7c28-13.4,176.1-94.2,200.6-113c99.6-76.3,98.1-83.6,110.5-205.6c0.1-2.6,23.5-241.3,8.6-393.7
	c-9.4-96.2-36.1-114.2-77.1-151.4c-34.5-31.3-114.4-83.2-121.3-87.1l-242.1-137c-8.3-4.7-4.5-17.4,5-16.8
	c47,3.1,115.8,4.7,186.4,6.7c164.2,4.7,745.3,7.7,1398.4,8.7l34.6,0c8.2,0,15.2,2.4,21.7,7.3c9.5,7.2,637.6,484.1,637.6,484.1
	C5208.5,511.7,5206,521.7,5198.2,522.9z"/>

<text class="textcolor outline" textLength="14" lengthAdjust="spacingAndGlyphs" transform="matrix(118.471 -1.3361 1.3361 118.4741 3788.6772 312.6333)" style="font-family:BankGothic-Md-BT; font-size:2.3251px; stroke:#6A6A6A; stroke-width:.55; paint-order:stroke; stroke-linecap:round; stroke-linejoin:round;">
	<tspan>MAVERICK</tspan>
</text>
</svg>
