<?xml version="1.0" encoding="utf-8"?>
<!-- Generator: Adobe Illustrator 27.9.1, SVG Export Plug-In . SVG Version: 6.00 Build 0)  -->
<svg class="w" version="1.1" xmlns="http://www.w3.org/2000/svg" xmlns:xlink="http://www.w3.org/1999/xlink" x="0px" y="0px"
	 viewBox="0 0 5740.5 1633.1" style="enable-background:new 0 0 5740.5 1633.1;" xml:space="preserve">
     $gradientDefs

	<path class="maincolor" d="M3311.4,14l-69.5,66.4l92.1-65.9c75.5,1.7,165.6,3.4,266.9,5.2l368.5,736l-245-733.9
	c172.7,2.9,370.3,5.8,580.1,8.6l251.1,375.2L4375.9,31.3c48.9,0.6,98.5,1.3,148.4,1.9l34.6,0.4c8.2,0.1,15.2,2.5,21.6,7.6
	c7.9,6.1,449.6,349.4,531.6,413.2l-132.6,12.9l-191.9,18.7l119.7,5.3l196,8.8l71.8,3.2c35.3,27.4,37.4,29.1,37.4,29.1
	c6.3,4.9,3.6,14.8-4.2,16c-15.2,2.3-56.1,8.4-56.1,8.4c-159.9,27.2-286.2,69.3-359.3,99c-122.1,49.6-227,112.8-317.1,183.1
	l-411-387.3l349.5,438.4c-184.4,162.6-297.9,352.7-365,499.4L3820,931.2l187.1,560.4c-13,34.7-22.7,64.3-29.6,87.1
	c0,0-6.1,20.1-8.5,28c-4.8,15.8-18.2,26.5-34.7,26.5h-266c-21.7,0-40.2-6.3-57.3-19.7l-194.2-151.1l-71.4-211.4l33.8,182.2
	l-373.6-290.7c-7.5-5.9-6.2-17.7,2.7-21.3c18-7.2,34.7-15.3,34.7-15.3c28.1-13.1,177.1-92.2,201.9-110.8
	c100.5-75.2,99-82.5,112.8-204.4c0-0.9,2.9-27.1,6.2-67.3l149.6,104.8l-147-137.8c6.2-83.7,12-203.4,4.2-293.3
	c-8.3-96.3-34.8-114.6-75.4-152.2c-34.2-31.7-113.4-84.5-120.3-88.4L2934.5,16.8c-8.3-4.8-4.3-17.5,5.2-16.8
	c47,3.6,115.8,6,186.3,8.8C3165.4,10.4,3228.8,12.1,3311.4,14z"/>

<path class="maincolor" d="M2188.5,14l69.5,66.4l-92.1-65.9c-75.5,1.7-165.6,3.4-266.9,5.2l-368.5,736l245-733.9
	c-172.7,2.9-370.3,5.8-580.1,8.6L944.3,405.6L1124,31.3c-48.9,0.6-98.5,1.3-148.4,1.9L941,33.7c-8.2,0.1-15.2,2.5-21.6,7.6
	c-7.9,6.1-449.6,349.4-531.6,413.2l132.6,12.9l191.9,18.7l-119.7,5.3l-196,8.8l-71.8,3.2c-35.3,27.4-37.4,29.1-37.4,29.1
	c-6.3,4.9-3.6,14.8,4.2,16c15.2,2.3,56.1,8.4,56.1,8.4c159.9,27.2,286.2,69.3,359.3,99c122.1,49.6,227,112.8,317.1,183.1l411-387.3
	l-349.5,438.4c184.4,162.6,297.9,352.7,365,499.4l229.5-458.4l-187.1,560.4c13,34.7,22.7,64.3,29.6,87.1c0,0,6.1,20.1,8.5,28
	c4.8,15.8,18.2,26.5,34.7,26.5h266c21.7,0,40.2-6.3,57.3-19.7l194.2-151.1l71.4-211.4l-33.8,182.2l373.6-290.7
	c7.5-5.9,6.2-17.7-2.7-21.3c-18-7.2-34.7-15.3-34.7-15.3c-28.1-13.1-177.1-92.2-201.9-110.8c-100.5-75.2-99-82.5-112.8-204.4
	c0-0.9-2.9-27.1-6.2-67.3l-149.6,104.8l147-137.8c-6.2-83.7-12-203.4-4.2-293.3c8.3-96.3,34.8-114.6,75.4-152.2
	c34.2-31.7,113.4-84.5,120.3-88.4l240.6-139.7c8.3-4.8,4.3-17.5-5.2-16.8c-47,3.6-115.8,6-186.3,8.8
	C2334.5,10.4,2271.1,12.1,2188.5,14z"/>

	<text class="textcolor outline" textLength="14" lengthAdjust="spacingAndGlyphs" transform="matrix(118.4816 -3.000000e-04 3.000000e-04 118.4816 4.882812e-04 304.8753)" style="font-family:BankGothic-Md-BT; font-size:2.3251px; stroke:#6A6A6A; stroke-width:.55; paint-order:stroke; stroke-linecap:round; stroke-linejoin:round; ">
		<tspan>$textRef</tspan>
	</text>

	<text class="textcolor outline" textLength="14" lengthAdjust="spacingAndGlyphs" transform="matrix(118.471 -1.3361 1.3361 118.4741 3788.6772 312.6333)" style="font-family:BankGothic-Md-BT; font-size:2.3251px; stroke:#6A6A6A; stroke-width:.55; paint-order:stroke; stroke-linecap:round; stroke-linejoin:round;">
		<tspan>$textRef</tspan>
	</text>
</svg>
