<?xml version="1.0" encoding="utf-8"?>
<!-- Generator: Adobe Illustrator 27.9.1, SVG Export Plug-In . SVG Version: 6.00 Build 0)  -->
<svg class="v" version="1.1" xmlns="http://www.w3.org/2000/svg" xmlns:xlink="http://www.w3.org/1999/xlink" x="0px" y="0px"
	 viewBox="0 0 1000 749.7" style="enable-background:new 0 0 1000 749.7;" xml:space="preserve">
     $gradientDefs

     <path class="maincolor" d="M500,749.7c45.8,0,120.8-1,238.8-21.8c29.8-5.3,50-10.6,65.3-20.4c30.6-19.6,40.3-51.2,55.8-95.9
	C920.8,436.6,972.1,163,999.8,3.4c0.8-4.5-0.9-3.6-4.4-2.5C892.2,31.3,556.4,37.1,500,37.1c-56.4,0-392.2-5.8-495.4-36.3
	c-3.6-1.1-5.2-2-4.4,2.5c27.7,159.6,79,433.2,139.9,608.2c15.6,44.7,25.2,76.3,55.8,95.9c15.4,9.8,35.5,15.2,65.3,20.4
	C379.2,748.7,454.2,749.7,500,749.7z"/>
<g>
	<path class="accentcolor" d="M33,101.1l47.6,36.1c0.4,0.3,0.6,0.8,0.4,1.3l-5.8,19.3c-0.5,1.7,0,3.5,1.3,4.7l37.7,34.3
		c0.5,0.5,0.7,1.2,0.5,1.9l-8.4,28.3c-0.6,1.9-0.1,3.9,1.3,5.3l32.1,32c0.9,0.9,1.2,2.2,0.8,3.5L118,333.2c-0.6,1.6-0.1,3.3,1.3,4.4
		l45,33.8c1.3,1,1.6,2.8,0.7,4.1l-51.6,79.4c-0.3,0.5-1.2,0.4-1.3-0.2l-2.5-11.2c-0.2-0.9-0.1-1.8,0.4-2.6l27.6-48
		c1.1-2,0.6-4.5-1.2-5.9l-11.6-8.6c-1.1-0.8-1.3-2.2-0.6-3.4l3.6-5.9c1.1-1.8,0.6-4.1-1.1-5.2l-10-6.7c-0.9-0.6-1.4-1.6-1.2-2.7
		l0.5-4.2c0.3-2.3-0.6-4.4-2.3-5.9l-24.1-20.1c-0.4-0.3,0-1.1,0.5-0.9l16.5,5.7c1.2,0.4,2.4-0.3,2.7-1.5l11.1-43.2
		c0.8-3.3-0.1-6.5-2.5-8.8l-10-9.5c-0.6-0.6-0.8-1.5-0.4-2.3l1-2c1.1-2.2,0.7-4.7-1.1-6.4l-13.6-13.1c-0.7-0.7-1-1.7-0.6-2.7l1.6-4
		c0.6-1.5,0.3-3.1-0.8-4.4l-23.1-26.7c-0.3-0.3,0.1-0.8,0.5-0.6l3.2,1.7c0.8,0.4,1.6,0.7,2.5,0.9l3.9,0.7c0.3,0.1,0.5,0.1,0.8,0.2
		l4.9,1.9c3.5,1.4,7.5-0.4,8.9-3.9l1.4-3.6c0.4-1.1,0.1-2.2-0.7-3l-10.8-9.5l-0.2-5.5c-0.1-3.3-1.4-6-3.9-8.1l-32.7-27.1
		c-0.3-0.3,0-0.9,0.4-0.8l10.3,1.5c2.6,0.5,5.1-1.4,5.3-4.1l0.7-8c0.2-2.4-0.8-4.5-2.7-5.8l-19.6-13.6c-0.8-0.5-1.5-0.9-2.4-1
		l-4.5-0.9c-0.4-0.1-0.8-0.4-0.9-0.8c-0.1-0.7-3-13.3-3-13.3C32,101.2,32.6,100.8,33,101.1z"/>
	<path class="accentcolor" d="M133.8,441l10.9,9.2c0.7,0.6,1,1.6,0.6,2.5l-3.8,9.4c-0.7,1.8-0.2,3.3,1.3,4.5c0.3,0.3,12.3,10.1,13.1,10.7
		c1.4,1.1,1.5,3.1,0.6,4.7c-3.9,7-10.8,18.4-27.7,37.9c-0.2,0.2-0.6,0.2-0.7-0.1l-2.7-11.9c-0.1-0.3,0-0.7,0.3-0.9
		c0.1-0.1,14.5-13.9,23-23c1.4-1.5,1.1-3.9-0.8-4.8l-12.4-6.3c-1.2-0.6-1.8-1.9-1.4-3.2l2.6-9.3c0.4-1.3,0-2.6-0.9-3.5l-6.6-6.6
		c-0.2-0.2-0.2-0.4-0.1-0.6c1.4-1.5,4-3.6,4.1-8.3C133,440.8,133.6,440.8,133.8,441z"/>
	<path class="accentcolor" d="M136.8,557.7l-2-8.8c0-0.1-0.1-0.3-0.1-0.4c3-6.1,5.3-11.6,6.3-14.7c0.8-2.6,0.5-5.3-1.5-7.2l-3.3-3
		c-0.2-0.2-0.4-0.5-0.1-0.7c1.3-0.8,3-3.2,3.2-4c0.1-0.3,0.5-0.3,0.7-0.1l9.5,7.7c1,0.8,1.3,2.2,0.8,3.4c-3.5,9.2-6.5,16.1-13,28
		C137.2,558,136.9,557.9,136.8,557.7z"/>
</g>
<path class="accentcolor" d="M859.2,545.5l25-101.4c0.4-1.8-0.2-3.5-1.6-4.6c0,0-5.7-3.2-5.9-3.4c-0.3-0.3,0-0.6,0.2-1
	c0.7-1.3,2.9-5.5,8.1-5.3c1.8,0.1,3-1.5,3.3-3.3c0,0,6.3-27.5,5.7-33.4c-0.8-6.8-4.9-14.3-14.2-15.5c-4.1-0.5-7.3,0.7-7.3,0.7
	c-6.5-11.9,21.4-14.4,35.1-31.8c3.5-4.5,7-10.1,7.5-17c1.8-26.1-15.2-29.5-22.7-30.4c-5.5-0.7-2.2-5.5-0.6-7.9
	c4.5-6.6,11.6-12.5,22.3-21.3c16.4-13.6,32.2-39.8,19-59.3c-5.5-8.1-18.4-9.2-27-4c-7.7,4.6-10.6,15-12.1,14.3
	c-10.5-5.1-8.6-17.1-7-23.4c3.2-13.1,30.5-32.1,48.7-40.7c6.6-3.1,10.6-15.9,7.9-17.6c-8.9-5.4-34.7-19.1-50.9-26.2
	c-0.5-0.2-1.1,0.2-1,0.8c0.3,1.4,13.7,20.5,9.4,39.5c-3.8,17.2-24.6,27.4-29.3,46.8c-4.9,20.2,8.2,35.2,22.3,45
	c1.5-14.3,14.8-28,25.7-10.7c7.4,11.7-12.7,31.5-18.8,35.8c-14.4,10.2-26.8,20-31.9,32.3c-1.5,3.7-1.8,12.9,1.1,16.3
	c1.4-1.9,29-19.1,34.1,4.9c6,28.1-46.4,33.9-47.8,55c-0.5,7.6,3.7,12.2,7,15.8c-1.3-11.6,23.6-11.6,17.8,10.3
	c-4.9,18.8-13.4,11.8-21.3,28.8c-1.9,4-6.2,12.9-3.8,18.3c2.4-4.9,8.4-9.2,14,2c1.6,3.3,0.2,15.1-5.6,29.1
	c-0.2,0.4-8.4,6.1-10.9,16.6c-0.1,0.3,7.2-2,6.6,8.3c-0.2,3.6-2.5,16.7-4.4,28.6c-0.6,4,0.6,7.9,2.8,9.1
	C858.8,545.8,859.1,545.9,859.2,545.5z"/>
<g>
	<path class="accentcolor" d="M277.9,705.7c0,0,3.1-7.3,17.2-8.6c7.9-0.7,18.7-2.1,19.4-2.2c1.5-0.2,2.6-1,3.3-2.4l1.9-4.4
		c0.5-0.9,1.5-1.4,2.5-1.2l2.9,0.6c1.2,0.2,2,1.4,1.8,2.6c0,0-1,4.6-0.8,5c1,1.9,8.5,3.8,8.6-2.5c0-0.4-2.5-3.8-2.7-4.1
		c-0.4-0.6-0.4-1.4-0.1-2.1l2.2-4.1l0.2-3.9c0-0.7,2.2-1.5,2.8-1.9l2.9-3c0.6-0.4,1.1,0,1.7,0.2l4.2,1.5c0.5,0.2,0.9,0,1.1,0.4
		l3.9,6.5c0.3,0.5,0.5,1.2,0.2,1.8c0,0-2.2,5.3-2.1,5.6c1.8,6.6,11.9,2.9,15.8-2.4c0.4-0.5,0.6-2.5,0.1-2.9l-4.3-2
		c-0.4-0.4-0.5-1-0.1-1.5l5.6-6.3c0.4-0.4,0.4-1,0.1-1.5l-2-3.1c-0.3-0.5-0.1-1.2,0.4-1.5l6.7-3.4c0.4-0.2,0.7-0.7,0.5-1.2l-0.7-3
		c-0.1-0.4,0-0.7,0.3-1c0,0,5.5-3.1,6.4-5.1c0.2-0.5,1-0.4,1.4,0l4.5,5.2c0.4,0.4,0.4,1.1,0,1.5l-1.4,1.4c-0.4,0.4-0.4,1.1,0.1,1.5
		l7.1,6.3c0.4,0.4,0.5,1,0.1,1.4l-3.3,4c-0.4,0.5-0.4,1.2,0,1.6l4,4.3c0.4,0.4,0.4,1,0,1.4l-3.8,3.7c-0.6,0.6-0.4,1.6,0.3,2
		c0,0,2.7,4,9.5,5c2.4,0.3,9.8-3.6,10.4-6c0.1-0.4-1.7-4.9-5.8-5c-0.8,0-0.7-1.5-0.1-2.1c0,0,3.1-5.9,7-8.5c0.8-0.5,0.5-1.8-0.3-2.4
		l-2-1.4c-0.8-0.5-0.8-1.7-0.2-2.3l7.5-6.6c0.6-0.5,0.7-1.4,0.3-2.1l-0.5-0.9c-0.5-0.8-0.8-1.8,0.1-2c3.1-0.7,6.8-3.8,6.9-9.9
		c0-0.6,1.1-0.6,1.6-0.1c2,3.3,7.7,6.5,8,7.9c0.1,0.4-0.9,3.8,1.7,6c2.4,2,6.8,2.8,6.8,3.2c0.5,3.8-1.9,7-1.7,7.3l3,4.4
		c0.4,0.6,0.3,1.4-0.2,1.9l-2.7,2.5c-0.6,0.6-0.7,1.5-0.2,2.1c0,0,2.5,5.8,2.9,6.3c0.8,1,2.4,1.2,3.4,0.3c1.3-4.5,1.1-3.7,5-5.6
		c6.2-3.1-5.5-3.7,3.4-9.6c7.7-5.1-5.2-3,11.2-12.7c0.3,0.1,0.2-1.2,2.1,0.6c15.4,14.6-1.6,7.1,6.6,14.4c9.2,8.3-4.1,4.8,1.6,9.9
		c2.7,2.4,0.7,2.9-0.7,3.9c-1.7,1.4-2.2,5.6,4.3,5.4c7-0.2,7.7,3.1,16.3,4.8c6.1,1.2,11.3-1.4,9.6-4.3c-3.1-5.1,0-3.6,6.1-5.6
		c22.6-7.3-5.5-5.2,6.2-14.8c9.1-7.4-1.8-4.4,6.9-10.3c3-2,3.7-5.7,5.8-9.6c1.5-2.7,1.8-1.3,2.7,1.4c0.8,2.5,0.2,4.6,4.3,6
		c11.1,3.9-3.3,3.5,3.9,9.1c7.6,5.9-4.2,7,5.8,7.6c1.4,0.1,3.6-4,5-7.1c1.1-2.7,2.8-2.1,4.2-0.7c8.1,8.3,13.1,2.9,13.7-0.6
		c0.4-2.1,0.5-2.9,3.3-3c7.7-0.3,8.8-1.7,11.4-4.6c3.3-3.7,3.5-0.9,4,1c2.1,8.8,10.9,7.5,12.4,7.2c2-0.4,6.9,0.3,3.1,3.9
		c-3.8,3.6,3.7,3.6,6.4,2.7s5.9-1.1,4.4,2.9s1.8,4,5,5.2c3.3,1.2,3.8,1.2,5.4,6.5c1.6,5.3,3.9,13.9,16.2,16.6c3.6,0.8,4.2,3.2-0.4,4
		c-4.6,0.8-24.1,1.3-35.3-1.4c-11.2-2.7-19.5-3.7-25.3-1.8c-2.7,0.9-3.9,0.2-4.6-0.7c-1.6-2.3-1.2-2.6,1.3-3.5
		c2.8-1.1,2.6-5.3-1.7-6.5c-4.3-1.2-2.9-1.2-1.1-3.1c1.8-1.8,0.3-4.2-3.2-5.7c-3.6-1.5-2.2-2.7-6.5,0.7s-5.8,3.9-4.2,5.7
		c1.4,1.6,1.6,1.7-0.5,3c-2.2,1.3-1.7,3.2-3.1,4.1s-1.3,2.7,0.9,4c2.2,1.3,5.8,3.2-0.9,4.7c-6.7,1.5-6.8-1.7-17.6,0.4
		c-10.8,2.1-34.6,0.7-43.5,0.3c-8.9-0.4-27.2-0.9-36.3-4.6c-7.1-2.9-14.9-1.9-20.3,1.9c-7.3,5.1-12.4,7.6-21.2,1.4
		c-6.8-4.8-18.2-3.1-24.5-2.9c-6.3,0.3-29.7,1.5-36.2,2.4c-9.1,1.3-9.8,2.1-15-1.3c-7.3-4.7-13.1-1.1-36.8-2.1
		c-6.2,0-18.9-0.4-22-0.1C277.2,706.8,277.9,705.7,277.9,705.7z"/>
	<path class="accentcolor" d="M656.5,679c11,15.4,4.1,19.2-0.1,22.6c-5.2,4.2-5.1,5.3-5.6,7.3c-0.6,2-2,2-1.8,0c0.2-2,0.6-2.9-5-8.1
		c-6.8-6.3-4-10.3,6.8-21.9C653,676.5,650.8,671.1,656.5,679z"/>
	<path class="accentcolor" d="M683,706.7c0-2.7-4.7-7.6-8.3-11c-3.6-3.4-0.4-1.7,0.8-6.7c2.5-10.3-3.2-6.4,5.5-12.2c1.4-1,2.4-1.6,3.2-2.8
		c1.6-2.4,1.9-2.8,3.5,1c1.8,4.1-0.1,4,4.6,4.1c4.6,0.1,4.9,2.5,3.3,5.8c-1,2.1-1.4,3.3,0.2,4.5s2.8,0.2,0.6,4.6
		c-2.2,4.4-6.3,1.4-8,12.9c-0.6,4.3,1.1,4.7-3.1,4.6C681.9,711.4,683,711.5,683,706.7z"/>
	<path class="accentcolor" d="M712,708.5c0-0.2,0.1-4.3-5.6-5.7c-1.4-0.3-4.4,0.1-0.4-4.9c1.1-1.4,2.3-2.5,2-6.3c-0.2-3.8,1.5-3.8,4-5.8
		s2.1-1.9,3,0.5c0.9,2.4,2.5,4.6,4.8,6.6c2.3,2,3.8,2.7,0.3,6.7c-3.5,4-6.3,4.8-6.2,8.8c0,3,0.3,2.7-0.7,2.9
		C712.2,711.3,712,711,712,708.5z"/>
</g>
</svg>
