<?xml version="1.0" encoding="utf-8"?>
<!-- Generator: Adobe Illustrator 27.9.1, SVG Export Plug-In . SVG Version: 6.00 Build 0)  -->
<svg class="v" version="1.1" xmlns="http://www.w3.org/2000/svg" xmlns:xlink="http://www.w3.org/1999/xlink" x="0px" y="0px"
	 viewBox="0 0 1000 748.7" style="enable-background:new 0 0 1000 748.7;" xml:space="preserve">
     $gradientDefs

<g>
	<path class="maincolor" d="M852.1,20.1v9.2l16.9,9.8l16.9-9.8V16.9C875,18,863.7,19.1,852.1,20.1z"/>
	<path class="maincolor" d="M893,16.1v13.2l16.9,9.8l16.9-9.8V12C916.2,13.5,904.9,14.8,893,16.1z"/>
	<path class="maincolor" d="M937.8,323.6l-7.3-4.2l-16.9,9.8v19.6l16.4,9.5C932.6,346.7,935.3,335.2,937.8,323.6z"/>
	<path class="maincolor" d="M934,11v18.3l16.9,9.8l16.9-9.8V9.8l-5.8-3.3C953.4,8.1,944,9.6,934,11z"/>
	<path class="maincolor" d="M980.7,111.8l-9.2-5.3l-16.9,9.8v19.6l16.9,9.8l3.2-1.9C976.8,132.9,978.8,122.3,980.7,111.8z"/>
	<path class="maincolor" d="M967.8,179.6l-13.2,7.6v19.6l7,4.1C963.7,200.3,965.8,189.9,967.8,179.6z"/>
	<path class="maincolor" d="M960.1,218.2l-9.1-5.3l-16.9,9.8v19.5l16.9,9.8l2.5-1.4C955.7,239.7,957.9,228.9,960.1,218.2z"/>
	<path class="maincolor" d="M945.8,286.9l-11.8,6.8v19.5l5.4,3.1C941.6,306.5,943.7,296.7,945.8,286.9z"/>
	<path class="maincolor" d="M987.8,73.4L975,80.8v19.5l7.1,4.1C984,93.8,985.9,83.5,987.8,73.4z"/>
	<path class="maincolor" d="M1000,4.6L992,0L975,9.8v19.5l16.9,9.8l2.2-1.3C996.2,26.3,998.2,15.2,1000,4.6z"/>
	<path class="maincolor" d="M884.3,535.4l-11.8,6.8v19.6l3.2,1.9C878.7,554.4,881.5,545,884.3,535.4z"/>
	<path class="maincolor" d="M902.8,469.1l-13.3-7.7l-16.9,9.8v19.6l16.9,9.8l5.7-3.3C897.7,488,900.3,478.6,902.8,469.1z"/>
	<path class="maincolor" d="M913.3,427.9L910,426l-16.9,9.8v19.6l11.6,6.7C907.6,450.7,910.5,439.4,913.3,427.9z"/>
	<path class="maincolor" d="M926.9,371.5v-6.7L910,355l-16.9,9.8v19.6l16.9,9.8l13.4-7.8C924.6,381.4,925.8,376.5,926.9,371.5z"/>
	<path class="maincolor" d="M542.7,748.1l15.4-8.9v-19.6l-16.9-9.8l-16.9,9.8v19.5l15.6,9C540.8,748.2,541.8,748.1,542.7,748.1z"/>
	<path class="maincolor" d="M526.1,748.5l-5.4-3.1l-5.6,3.2C518.7,748.6,522.3,748.5,526.1,748.5z"/>
	<path class="maincolor" d="M587.5,745.9l11.6-6.7v-19.6l-16.9-9.8l-16.9,9.8v19.6l12.6,7.3C581,746.3,584.2,746.1,587.5,745.9z"/>
	<path class="maincolor" d="M564.9,747.2l-3.2-1.9l-3.8,2.2C560.2,747.5,562.5,747.4,564.9,747.2z"/>
	<path class="maincolor" d="M860.5,610.3l-12-6.9l-16.9,9.8v19.6l16.9,9.8l0.7-0.4C852.9,632.4,856.5,621.8,860.5,610.3
		C860.5,610.3,860.5,610.3,860.5,610.3z"/>
	<path class="maincolor" d="M873.6,570.6l-4.6-2.7l-16.9,9.8v19.5l10.8,6.2C866.5,592.8,870.1,581.9,873.6,570.6z"/>
	<path class="maincolor" d="M635.9,741.6l4.2-2.4v-19.6l-16.9-9.8l-16.9,9.8v19.5l7.9,4.6C621.1,743.2,628.4,742.5,635.9,741.6z"/>
	<path class="maincolor" d="M722,729.8v-10.1l-16.9-9.8l-16.9,9.8V735C699,733.5,710.3,731.7,722,729.8z"/>
	<path class="maincolor" d="M681.1,736v-16.4l-16.9-9.8l-16.9,9.8v19.5l1.7,1C659.1,739,669.9,737.6,681.1,736z"/>
	<path class="maincolor" d="M824.5,688.9v-4.7l-16.9-9.8l-16.9,9.8v19.6l9.3,5.4c1.6-0.9,3.1-1.8,4.6-2.7
		C812.4,701.4,818.9,695.5,824.5,688.9z"/>
	<path class="maincolor" d="M792.3,712.9l-5.2-3l-16.9,9.8v0.7C778.4,718.2,785.7,715.7,792.3,712.9z"/>
	<path class="maincolor" d="M763,722.1v-2.4l-16.9-9.8l-16.9,9.8v8.9c3.3-0.6,6.6-1.1,10-1.7C747.9,725.3,755.8,723.8,763,722.1z"/>
	<path class="maincolor" d="M845,653v-4.3l-16.9-9.8l-16.9,9.8v19.5L828,678l6.7-3.9C838.5,667.7,841.8,660.6,845,653z"/>
	<path class="maincolor" d="M573.1,33.9l9,5.2l9.8-5.7C585.5,33.6,579.2,33.8,573.1,33.9z"/>
	<path class="maincolor" d="M196.5,23.9v5.4l16.9,9.8l16.9-9.8v-3.3C219,25.4,207.7,24.7,196.5,23.9z"/>
	<path class="maincolor" d="M237.4,26.5v2.8l16.9,9.8l16.9-9.8v-1C260.1,27.8,248.7,27.2,237.4,26.5z"/>
	<path class="maincolor" d="M533.5,34.7l7.7,4.4l8.2-4.7C543.7,34.5,538.4,34.6,533.5,34.7z"/>
	<path class="maincolor" d="M278.4,28.7v0.6l16.9,9.8l15.5-9C300.2,29.7,289.3,29.2,278.4,28.7z"/>
	<path class="maincolor" d="M365.3,32.2l12,6.9l10.8-6.2C380.7,32.7,373.1,32.5,365.3,32.2z"/>
	<path class="maincolor" d="M321.6,30.6l14.7,8.5l12.9-7.5C340.2,31.3,331,31,321.6,30.6z"/>
	<path class="maincolor" d="M493.1,35l7.2,4.2l7.2-4.2c-2.9,0-5.4,0-7.5,0C498,35,495.7,35,493.1,35z"/>
	<path class="maincolor" d="M451.1,34.4l8.2,4.7l7.7-4.4C462.1,34.6,456.8,34.5,451.1,34.4z"/>
	<path class="maincolor" d="M408.5,33.5l9.8,5.7l9-5.2C421.3,33.8,415,33.6,408.5,33.5z"/>
	<path class="maincolor" d="M271.3,728.7v-9l-16.9-9.8l-16.9,9.8v2.5c7.1,1.6,14.8,3.1,23.4,4.7C264.4,727.5,267.9,728.1,271.3,728.7z"/>
	<path class="maincolor" d="M200.3,709.3l9.6-5.5v-19.6l-16.9-9.8l-16.9,9.8v5.3c5.4,6.4,11.8,12,19.4,16.9
		C197,707.4,198.6,708.3,200.3,709.3z"/>
	<path class="maincolor" d="M230.3,720.5v-0.8l-16.9-9.8L208,713C214.6,715.9,221.9,718.3,230.3,720.5z"/>
	<path class="maincolor" d="M165,673.7l7.4,4.3l16.9-9.8v-19.6l-16.9-9.8l-16.9,9.8v5.5C158.4,661.2,161.5,667.7,165,673.7z"/>
	<path class="maincolor" d="M150.6,641.8l1.3,0.8l16.9-9.8v-19.5l-16.9-9.8l-12.4,7.1C143.5,621.8,147,632.2,150.6,641.8z"/>
	<path class="maincolor" d="M137.2,603.7l11.2-6.5v-19.6l-16.9-9.8l-5,2.9C130,582.1,133.6,593.1,137.2,603.7z"/>
	<path class="maincolor" d="M124.2,563.9l3.7-2.1v-19.5l-12.4-7.1C118.4,544.9,121.3,554.5,124.2,563.9z"/>
	<path class="maincolor" d="M95.4,462.2l12-6.9v-19.6L90.5,426l-3.8,2.2C89.5,439.6,92.4,451,95.4,462.2z"/>
	<path class="maincolor" d="M104.7,497l6.3,3.6l16.9-9.8v-19.5l-16.9-9.8l-13.7,7.9C99.7,478.7,102.2,487.9,104.7,497z"/>
	<path class="maincolor" d="M84.9,421l2-1.2v-19.5l-8.2-4.7C80.7,404,82.8,412.5,84.9,421z"/>
	<path class="maincolor" d="M76.4,386l14,8.1l16.9-9.8v-19.6L90.5,355l-16.9,9.8v8.8C74.5,377.7,75.5,381.9,76.4,386z"/>
	<path class="maincolor" d="M60.6,316.6l5.8-3.4v-19.6l-12.3-7.1C56.2,296.6,58.4,306.6,60.6,316.6z"/>
	<path class="maincolor" d="M38.4,211.1l7.5-4.3v-19.5l-13.8-8C34.2,189.8,36.3,200.4,38.4,211.1z"/>
	<path class="maincolor" d="M46.4,250.3l3.1,1.8l16.9-9.8v-19.6l-16.9-9.8l-9.6,5.5C42,229,44.2,239.6,46.4,250.3z"/>
	<path class="maincolor" d="M25.2,143.4l3.8,2.2l16.9-9.8v-19.5L29,106.5l-9.7,5.6C21.2,122.3,23.2,132.8,25.2,143.4z"/>
	<path class="maincolor" d="M17.9,104.7l7.5-4.3V80.8l-13.3-7.7C14,83.4,15.9,93.9,17.9,104.7z"/>
	<path class="maincolor" d="M38.2,6.5l-5.6,3.3v19.5l16.9,9.8l16.9-9.8V11.1C56.4,9.6,46.9,8.1,38.2,6.5z"/>
	<path class="maincolor" d="M5.7,37.5l2.8,1.6l16.9-9.8V9.8L8.5,0L0,4.9C1.8,15.3,3.7,26.2,5.7,37.5z"/>
	<path class="maincolor" d="M70,358.5l16.9-9.8v-19.6L70,319.4l-7.8,4.5C64.8,335.4,67.4,347,70,358.5z"/>
	<path class="maincolor" d="M155.5,20.8v8.6l16.9,9.8l16.9-9.8v-5.9C177.9,22.6,166.6,21.7,155.5,20.8z"/>
	<path class="maincolor" d="M114.5,16.9v12.4l16.9,9.8l16.9-9.8v-9.2C136.8,19.2,125.5,18.1,114.5,16.9z"/>
	<path class="maincolor" d="M73.5,12.1v17.3l16.9,9.8l16.9-9.8V16.2C95.6,14.9,84.2,13.5,73.5,12.1z"/>
	<path class="maincolor" d="M312.3,735.1v-15.5l-16.9-9.8l-16.9,9.8v10.2C290.1,731.8,301.4,733.5,312.3,735.1z"/>
	<path class="maincolor" d="M386.3,743.8l8-4.6v-19.6l-16.9-9.8l-16.9,9.8v19.5l4.3,2.5C372.1,742.5,379.3,743.2,386.3,743.8z"/>
	<path class="maincolor" d="M351.5,740.2l1.8-1v-19.6l-16.9-9.8l-16.9,9.8v16.5C330.6,737.7,341.3,739,351.5,740.2z"/>
	<path class="maincolor" d="M500.8,748.7l16.4-9.4v-19.6l-16.9-9.8l-16.9,9.8v19.5l16.4,9.5c0.1,0,0.2,0,0.3,0
		C500.3,748.7,500.5,748.7,500.8,748.7z"/>
	<path class="maincolor" d="M485.4,748.6l-5.6-3.3l-5.4,3.1C478.2,748.6,481.9,748.6,485.4,748.6z"/>
	<path class="maincolor" d="M460.6,748.2l15.6-9v-19.6l-16.9-9.8l-16.9,9.8v19.5l15.4,8.9C458.7,748.2,459.7,748.2,460.6,748.2z"/>
	<path class="maincolor" d="M422.5,746.6l12.7-7.3v-19.6l-16.9-9.8l-16.9,9.8v19.5L413,746C416.3,746.2,419.4,746.4,422.5,746.6z"/>
	<path class="maincolor" d="M442.6,747.6l-3.8-2.2l-3.3,1.9C437.9,747.4,440.3,747.5,442.6,747.6z"/>
	<path class="maincolor" d="M612.4,32.9l10.8,6.2l12-6.9C627.4,32.4,619.7,32.7,612.4,32.9z"/>
	<path class="maincolor" d="M689.6,30.1l15.5,9l16.9-9.8v-0.7C711.1,29.2,700.2,29.7,689.6,30.1z"/>
	<path class="maincolor" d="M651.2,31.6l13,7.5l14.8-8.5C669.5,31,660.2,31.3,651.2,31.6z"/>
	<path class="maincolor" d="M811.1,23.4v6l16.9,9.8l16.9-9.8v-8.6C833.9,21.7,822.5,22.5,811.1,23.4z"/>
	<path class="maincolor" d="M770.1,26.1v3.3l16.9,9.8l16.9-9.8v-5.5C792.8,24.6,781.5,25.4,770.1,26.1z"/>
	<path class="maincolor" d="M729.1,28.3v1l16.9,9.8l16.9-9.8v-2.9C751.7,27.1,740.4,27.7,729.1,28.3z"/>
	<path class="maincolor" d="M921.2,395.9l-7.6,4.4v19.6l1.6,0.9C917.2,412.5,919.2,404.2,921.2,395.9z"/>
	<polygon class="maincolor" points="865.5,45.3 848.5,35.5 831.6,45.3 831.6,64.8 848.5,74.6 865.5,64.8 	"/>
	<polygon class="maincolor" points="886,80.8 869,71 852.1,80.8 852.1,100.3 869,110.1 886,100.3 	"/>
	<polygon class="maincolor" points="865.5,116.3 848.5,106.5 831.6,116.2 831.6,135.8 848.5,145.6 865.5,135.8 	"/>
	<polygon class="maincolor" points="886,151.7 869,142 852.1,151.7 852.1,171.3 869,181.1 886,171.3 	"/>
	<polygon class="maincolor" points="865.5,187.2 848.5,177.4 831.6,187.2 831.6,206.8 848.5,216.6 865.5,206.8 	"/>
	<polygon class="maincolor" points="886,222.7 869,212.9 852.1,222.7 852.1,242.3 869,252.1 886,242.3 	"/>
	<polygon class="maincolor" points="865.5,258.2 848.5,248.4 831.6,258.2 831.6,277.8 848.5,287.5 865.5,277.8 	"/>
	<polygon class="maincolor" points="886,293.7 869,283.9 852.1,293.7 852.1,313.2 869,323 886,313.3 	"/>
	<polygon class="maincolor" points="865.5,329.2 848.5,319.4 831.6,329.2 831.6,348.7 848.5,358.5 865.5,348.7 	"/>
	<polygon class="maincolor" points="893,293.7 893,313.2 910,323 926.9,313.3 926.9,293.7 910,283.9 	"/>
	<polygon class="maincolor" points="893,222.7 893,242.3 910,252.1 926.9,242.3 926.9,222.7 910,212.9 	"/>
	<polygon class="maincolor" points="893,151.7 893,171.3 910,181.1 926.9,171.3 926.9,151.7 910,142 	"/>
	<polygon class="maincolor" points="893,80.8 893,100.3 910,110.1 926.9,100.3 926.9,80.8 910,71 	"/>
	<polygon class="maincolor" points="872.6,258.2 872.6,277.8 889.5,287.5 906.5,277.8 906.5,258.2 889.5,248.4 	"/>
	<polygon class="maincolor" points="872.6,187.2 872.6,206.8 889.5,216.6 906.5,206.8 906.5,187.2 889.5,177.4 	"/>
	<polygon class="maincolor" points="872.6,116.2 872.6,135.8 889.5,145.6 906.5,135.8 906.5,116.3 889.5,106.5 	"/>
	<polygon class="maincolor" points="872.6,329.2 872.6,348.7 889.5,358.5 906.5,348.7 906.5,329.2 889.5,319.4 	"/>
	<polygon class="maincolor" points="872.6,45.3 872.6,64.8 889.5,74.6 906.5,64.8 906.5,45.3 889.5,35.5 	"/>
	<polygon class="maincolor" points="930.5,35.5 913.5,45.3 913.5,64.8 930.5,74.6 947.4,64.8 947.4,45.3 	"/>
	<polygon class="maincolor" points="930.5,106.5 913.5,116.2 913.5,135.8 930.5,145.6 947.4,135.8 947.4,116.3 	"/>
	<polygon class="maincolor" points="930.5,177.4 913.5,187.2 913.5,206.8 930.5,216.6 947.4,206.8 947.4,187.2 	"/>
	<polygon class="maincolor" points="930.5,248.4 913.5,258.2 913.5,277.8 930.5,287.5 947.4,277.8 947.4,258.2 	"/>
	<polygon class="maincolor" points="954.5,64.8 971.5,74.6 988.4,64.8 988.4,45.3 971.5,35.5 954.5,45.3 	"/>
	<polygon class="maincolor" points="951,71 934,80.8 934,100.3 951,110.1 967.9,100.3 967.9,80.8 	"/>
	<polygon class="maincolor" points="951,142 934,151.7 934,171.3 951,181.1 967.9,171.3 967.9,151.7 	"/>
	<polygon class="maincolor" points="872.6,419.8 889.5,429.6 906.5,419.8 906.5,400.3 889.5,390.5 872.6,400.3 	"/>
	<polygon class="maincolor" points="558.1,364.7 541.2,355 524.3,364.8 524.3,384.3 541.2,394.1 558.1,384.3 	"/>
	<polygon class="maincolor" points="537.6,400.2 520.7,390.5 503.8,400.3 503.8,419.8 520.7,429.6 537.6,419.8 	"/>
	<polygon class="maincolor" points="541.2,426 524.3,435.7 524.3,455.3 541.2,465.1 558.1,455.3 558.1,435.7 	"/>
	<polygon class="maincolor" points="537.6,471.2 520.7,461.5 503.8,471.2 503.8,490.8 520.7,500.6 537.6,490.8 	"/>
	<polygon class="maincolor" points="541.2,497 524.3,506.7 524.3,526.3 541.2,536 558.1,526.3 558.1,506.7 	"/>
	<polygon class="maincolor" points="537.6,542.2 520.7,532.4 503.8,542.2 503.8,561.8 520.7,571.6 537.6,561.8 	"/>
	<polygon class="maincolor" points="541.2,567.9 524.3,577.7 524.3,597.3 541.2,607 558.1,597.3 558.1,577.7 	"/>
	<polygon class="maincolor" points="537.6,613.2 520.7,603.4 503.8,613.2 503.8,632.8 520.7,642.5 537.6,632.8 	"/>
	<polygon class="maincolor" points="541.2,638.9 524.3,648.7 524.3,668.2 541.2,678 558.1,668.2 558.1,648.7 	"/>
	<polygon class="maincolor" points="537.6,684.1 520.7,674.4 503.8,684.2 503.8,703.7 520.7,713.5 537.6,703.8 	"/>
	<polygon class="maincolor" points="565.3,648.7 565.3,668.3 582.2,678 599.1,668.2 599.1,648.7 582.2,638.9 	"/>
	<polygon class="maincolor" points="565.3,577.7 565.3,597.3 582.2,607 599.1,597.3 599.1,577.7 582.2,567.9 	"/>
	<polygon class="maincolor" points="565.3,506.7 565.3,526.3 582.2,536.1 599.1,526.3 599.1,506.7 582.2,496.9 	"/>
	<polygon class="maincolor" points="565.3,435.7 565.3,455.3 582.2,465.1 599.1,455.3 599.1,435.7 582.2,426 	"/>
	<polygon class="maincolor" points="565.3,364.7 565.3,384.4 582.2,394.1 599.1,384.3 599.1,364.8 582.2,355 	"/>
	<polygon class="maincolor" points="561.7,674.4 544.8,684.2 544.8,703.7 561.7,713.5 578.6,703.7 578.6,684.2 	"/>
	<polygon class="maincolor" points="561.7,603.4 544.8,613.2 544.8,632.8 561.7,642.5 578.6,632.7 578.6,613.2 	"/>
	<polygon class="maincolor" points="561.7,532.4 544.8,542.2 544.8,561.8 561.7,571.5 578.6,561.8 578.6,542.2 	"/>
	<polygon class="maincolor" points="561.7,461.5 544.8,471.2 544.8,490.8 561.7,500.6 578.6,490.8 578.6,471.2 	"/>
	<polygon class="maincolor" points="561.7,390.5 544.8,400.2 544.8,419.8 561.7,429.6 578.6,419.8 578.6,400.3 	"/>
	<polygon class="maincolor" points="865.5,561.8 865.5,542.2 848.5,532.4 831.6,542.2 831.6,561.8 848.5,571.6 	"/>
	<polygon class="maincolor" points="865.5,490.8 865.5,471.2 848.5,461.5 831.6,471.2 831.6,490.8 848.5,500.6 	"/>
	<polygon class="maincolor" points="886,526.3 886,506.7 869,496.9 852.1,506.7 852.1,526.3 869,536.1 	"/>
	<polygon class="maincolor" points="865.5,419.8 865.5,400.3 848.5,390.5 831.6,400.3 831.6,419.8 848.5,429.6 	"/>
	<polygon class="maincolor" points="886,455.3 886,435.7 869,426 852.1,435.7 852.1,455.3 869,465.1 	"/>
	<polygon class="maincolor" points="886,384.3 886,364.8 869,355 852.1,364.8 852.1,384.3 869,394.1 	"/>
	<polygon class="maincolor" points="602.6,390.5 585.7,400.3 585.7,419.8 602.6,429.6 619.6,419.8 619.6,400.3 	"/>
	<polygon class="maincolor" points="602.6,461.5 585.7,471.2 585.7,490.8 602.6,500.6 619.6,490.8 619.6,471.2 	"/>
	<polygon class="maincolor" points="602.6,532.4 585.7,542.2 585.7,561.8 602.6,571.6 619.6,561.8 619.6,542.2 	"/>
	<polygon class="maincolor" points="602.6,603.4 585.7,613.2 585.7,632.8 602.6,642.5 619.6,632.7 619.6,613.2 	"/>
	<polygon class="maincolor" points="602.6,674.4 585.7,684.2 585.7,703.7 602.6,713.5 619.6,703.7 619.6,684.2 	"/>
	<polygon class="maincolor" points="623.1,426 606.2,435.7 606.2,455.3 623.1,465.1 640.1,455.3 640.1,435.7 	"/>
	<polygon class="maincolor" points="626.7,490.8 643.6,500.6 660.6,490.8 660.6,471.2 643.6,461.5 626.7,471.2 	"/>
	<polygon class="maincolor" points="623.1,496.9 606.2,506.7 606.2,526.3 623.1,536.1 640.1,526.3 640.1,506.7 	"/>
	<polygon class="maincolor" points="626.7,561.8 643.6,571.6 660.6,561.8 660.6,542.2 643.6,532.4 626.7,542.2 	"/>
	<polygon class="maincolor" points="623.1,567.9 606.2,577.7 606.2,597.3 623.1,607 640.1,597.3 640.1,577.7 	"/>
	<polygon class="maincolor" points="626.7,632.8 643.6,642.5 660.6,632.7 660.6,613.2 643.6,603.4 626.7,613.2 	"/>
	<polygon class="maincolor" points="623.1,638.9 606.2,648.7 606.2,668.2 623.1,678 640.1,668.2 640.1,648.7 	"/>
	<polygon class="maincolor" points="626.7,703.7 643.6,713.5 660.6,703.7 660.6,684.2 643.6,674.4 626.7,684.2 	"/>
	<polygon class="maincolor" points="626.7,419.8 643.6,429.6 660.6,419.8 660.6,400.3 643.6,390.5 626.7,400.3 	"/>
	<polygon class="maincolor" points="606.2,364.8 606.2,384.3 623.1,394.1 640.1,384.3 640.1,364.8 623.1,355 	"/>
	<polygon class="maincolor" points="701.6,703.7 701.6,684.2 684.6,674.4 667.7,684.2 667.7,703.7 684.6,713.5 	"/>
	<polygon class="maincolor" points="701.6,632.7 701.6,613.2 684.6,603.4 667.7,613.2 667.7,632.8 684.6,642.5 	"/>
	<polygon class="maincolor" points="705.1,638.9 688.2,648.7 688.2,668.2 705.1,678 722,668.2 722,648.7 	"/>
	<polygon class="maincolor" points="681.1,648.7 664.1,638.9 647.2,648.7 647.2,668.2 664.1,678 681.1,668.2 	"/>
	<polygon class="maincolor" points="688.2,577.7 688.2,597.3 705.1,607 722,597.3 722,577.7 705.1,567.9 	"/>
	<polygon class="maincolor" points="701.6,561.8 701.6,542.2 684.6,532.4 667.7,542.2 667.7,561.8 684.6,571.6 	"/>
	<polygon class="maincolor" points="681.1,577.7 664.1,567.9 647.2,577.7 647.2,597.3 664.1,607 681.1,597.3 	"/>
	<polygon class="maincolor" points="701.6,490.8 701.6,471.2 684.6,461.5 667.7,471.2 667.7,490.8 684.6,500.6 	"/>
	<polygon class="maincolor" points="705.1,496.9 688.2,506.7 688.2,526.3 705.1,536.1 722,526.3 722,506.7 	"/>
	<polygon class="maincolor" points="681.1,506.7 664.1,496.9 647.2,506.7 647.2,526.3 664.1,536.1 681.1,526.3 	"/>
	<polygon class="maincolor" points="701.6,419.8 701.6,400.3 684.6,390.5 667.7,400.3 667.7,419.8 684.6,429.6 	"/>
	<polygon class="maincolor" points="705.1,426 688.2,435.7 688.2,455.3 705.1,465.1 722,455.3 722,435.7 	"/>
	<polygon class="maincolor" points="681.1,435.7 664.1,426 647.2,435.7 647.2,455.3 664.1,465.1 681.1,455.3 	"/>
	<polygon class="maincolor" points="688.2,364.8 688.2,384.3 705.1,394.1 722,384.3 722,364.8 705.1,355 	"/>
	<polygon class="maincolor" points="681.1,364.8 664.1,355 647.2,364.8 647.2,384.3 664.1,394.1 681.1,384.3 	"/>
	<polygon class="maincolor" points="824.5,632.7 824.5,613.2 807.5,603.4 790.6,613.2 790.6,632.8 807.5,642.5 	"/>
	<polygon class="maincolor" points="804,648.7 787.1,638.9 770.1,648.7 770.1,668.2 787.1,678 804,668.2 	"/>
	<polygon class="maincolor" points="746.1,678 763,668.2 763,648.7 746.1,638.9 729.1,648.7 729.1,668.2 	"/>
	<polygon class="maincolor" points="725.6,713.5 742.5,703.7 742.5,684.2 725.6,674.4 708.7,684.2 708.7,703.7 	"/>
	<polygon class="maincolor" points="749.6,703.7 766.6,713.5 783.5,703.7 783.5,684.2 766.6,674.4 749.6,684.2 	"/>
	<polygon class="maincolor" points="845,577.7 828,567.9 811.1,577.7 811.1,597.3 828,607 845,597.3 	"/>
	<polygon class="maincolor" points="824.5,561.8 824.5,542.2 807.5,532.4 790.6,542.2 790.6,561.8 807.5,571.6 	"/>
	<polygon class="maincolor" points="804,577.7 787.1,567.9 770.1,577.7 770.1,597.3 787.1,607 804,597.3 	"/>
	<polygon class="maincolor" points="746.1,607 763,597.3 763,577.7 746.1,567.9 729.1,577.7 729.1,597.3 	"/>
	<polygon class="maincolor" points="725.6,642.5 742.5,632.7 742.5,613.2 725.6,603.4 708.7,613.2 708.7,632.8 	"/>
	<polygon class="maincolor" points="749.6,632.8 766.6,642.5 783.5,632.7 783.5,613.2 766.6,603.4 749.6,613.2 	"/>
	<polygon class="maincolor" points="845,506.7 828,496.9 811.1,506.7 811.1,526.3 828,536.1 845,526.3 	"/>
	<polygon class="maincolor" points="824.5,490.8 824.5,471.2 807.5,461.5 790.6,471.2 790.6,490.8 807.5,500.6 	"/>
	<polygon class="maincolor" points="804,506.7 787.1,496.9 770.1,506.7 770.1,526.3 787.1,536.1 804,526.3 	"/>
	<polygon class="maincolor" points="746.1,536.1 763,526.3 763,506.7 746.1,496.9 729.1,506.7 729.1,526.3 	"/>
	<polygon class="maincolor" points="725.6,571.6 742.5,561.8 742.5,542.2 725.6,532.4 708.7,542.2 708.7,561.8 	"/>
	<polygon class="maincolor" points="749.6,561.8 766.6,571.6 783.5,561.8 783.5,542.2 766.6,532.4 749.6,542.2 	"/>
	<polygon class="maincolor" points="845,435.7 828,426 811.1,435.7 811.1,455.3 828,465.1 845,455.3 	"/>
	<polygon class="maincolor" points="824.5,419.8 824.5,400.3 807.5,390.5 790.6,400.3 790.6,419.8 807.5,429.6 	"/>
	<polygon class="maincolor" points="804,435.7 787.1,426 770.1,435.7 770.1,455.3 787.1,465.1 804,455.3 	"/>
	<polygon class="maincolor" points="845,364.8 828,355 811.1,364.8 811.1,384.3 828,394.1 845,384.3 	"/>
	<polygon class="maincolor" points="804,364.8 787.1,355 770.1,364.8 770.1,384.3 787.1,394.1 804,384.3 	"/>
	<polygon class="maincolor" points="746.1,465.1 763,455.3 763,435.7 746.1,426 729.1,435.7 729.1,455.3 	"/>
	<polygon class="maincolor" points="725.6,500.6 742.5,490.8 742.5,471.2 725.6,461.5 708.7,471.2 708.7,490.8 	"/>
	<polygon class="maincolor" points="749.6,490.8 766.6,500.6 783.5,490.8 783.5,471.2 766.6,461.5 749.6,471.2 	"/>
	<polygon class="maincolor" points="742.5,419.8 742.5,400.3 725.6,390.5 708.7,400.3 708.7,419.8 725.6,429.6 	"/>
	<polygon class="maincolor" points="783.5,419.8 783.5,400.3 766.6,390.5 749.6,400.3 749.6,419.8 766.6,429.6 	"/>
	<polygon class="maincolor" points="763,364.8 746.1,355 729.1,364.8 729.1,384.3 746.1,394.1 763,384.3 	"/>
	<polygon class="maincolor" points="544.8,348.8 561.7,358.5 578.6,348.7 578.6,329.2 561.7,319.4 544.8,329.2 	"/>
	<polygon class="maincolor" points="565.3,313.3 582.2,323 599.1,313.3 599.1,293.7 582.2,283.9 565.3,293.7 	"/>
	<polygon class="maincolor" points="561.7,287.5 578.6,277.8 578.6,258.2 561.7,248.4 544.8,258.2 544.8,277.8 	"/>
	<polygon class="maincolor" points="565.3,242.3 582.2,252.1 599.1,242.3 599.1,222.7 582.2,212.9 565.3,222.7 	"/>
	<polygon class="maincolor" points="561.7,216.6 578.6,206.8 578.6,187.2 561.7,177.5 544.8,187.2 544.8,206.8 	"/>
	<polygon class="maincolor" points="565.3,171.3 582.2,181.1 599.1,171.3 599.1,151.7 582.2,142 565.3,151.7 	"/>
	<polygon class="maincolor" points="561.7,145.6 578.6,135.8 578.6,116.3 561.7,106.5 544.8,116.2 544.8,135.8 	"/>
	<polygon class="maincolor" points="565.3,100.3 582.2,110.1 599.1,100.3 599.1,80.8 582.2,71 565.3,80.7 	"/>
	<polygon class="maincolor" points="561.7,74.6 578.6,64.8 578.6,45.3 561.7,35.5 544.8,45.3 544.8,64.8 	"/>
	<polygon class="maincolor" points="209.9,45.3 192.9,35.5 176,45.3 176,64.8 192.9,74.6 209.9,64.8 	"/>
	<polygon class="maincolor" points="230.3,80.8 213.4,71 196.5,80.8 196.5,100.3 213.4,110.1 230.3,100.3 	"/>
	<polygon class="maincolor" points="209.9,116.3 192.9,106.5 176,116.2 176,135.8 192.9,145.6 209.9,135.8 	"/>
	<polygon class="maincolor" points="230.3,151.7 213.4,142 196.5,151.7 196.5,171.3 213.4,181.1 230.3,171.3 	"/>
	<polygon class="maincolor" points="209.9,187.2 192.9,177.4 176,187.2 176,206.8 192.9,216.6 209.9,206.8 	"/>
	<polygon class="maincolor" points="230.3,222.7 213.4,212.9 196.5,222.7 196.5,242.3 213.4,252.1 230.3,242.3 	"/>
	<polygon class="maincolor" points="209.9,258.2 192.9,248.4 176,258.2 176,277.8 192.9,287.5 209.9,277.8 	"/>
	<polygon class="maincolor" points="230.3,293.7 213.4,283.9 196.5,293.7 196.5,313.2 213.4,323 230.3,313.3 	"/>
	<polygon class="maincolor" points="209.9,329.2 192.9,319.4 176,329.2 176,348.7 192.9,358.5 209.9,348.7 	"/>
	<polygon class="maincolor" points="237.4,293.7 237.4,313.2 254.4,323 271.3,313.3 271.3,293.7 254.4,283.9 	"/>
	<polygon class="maincolor" points="237.4,222.7 237.4,242.3 254.4,252.1 271.3,242.3 271.3,222.7 254.4,212.9 	"/>
	<polygon class="maincolor" points="237.4,151.7 237.4,171.3 254.4,181.1 271.3,171.3 271.3,151.7 254.4,142 	"/>
	<polygon class="maincolor" points="237.4,80.8 237.4,100.3 254.4,110.1 271.3,100.3 271.3,80.8 254.4,71 	"/>
	<polygon class="maincolor" points="217,258.2 217,277.8 233.9,287.5 250.8,277.8 250.8,258.2 233.9,248.4 	"/>
	<polygon class="maincolor" points="217,187.2 217,206.8 233.9,216.6 250.8,206.8 250.8,187.2 233.9,177.4 	"/>
	<polygon class="maincolor" points="217,116.2 217,135.8 233.9,145.6 250.8,135.8 250.8,116.3 233.9,106.5 	"/>
	<polygon class="maincolor" points="217,329.2 217,348.7 233.9,358.5 250.8,348.7 250.8,329.2 233.9,319.4 	"/>
	<polygon class="maincolor" points="217,45.3 217,64.8 233.9,74.6 250.8,64.8 250.8,45.3 233.9,35.5 	"/>
	<polygon class="maincolor" points="537.6,277.8 537.6,258.2 520.7,248.4 503.8,258.2 503.8,277.8 520.7,287.5 	"/>
	<polygon class="maincolor" points="537.6,206.8 537.6,187.2 520.7,177.4 503.8,187.2 503.8,206.8 520.7,216.6 	"/>
	<polygon class="maincolor" points="541.2,252 558.1,242.3 558.1,222.7 541.2,212.9 524.3,222.7 524.3,242.3 	"/>
	<polygon class="maincolor" points="537.6,135.8 537.6,116.2 520.7,106.5 503.8,116.2 503.8,135.8 520.7,145.6 	"/>
	<polygon class="maincolor" points="541.2,181.1 558.1,171.3 558.1,151.7 541.2,142 524.3,151.7 524.3,171.3 	"/>
	<polygon class="maincolor" points="537.6,348.8 537.6,329.2 520.7,319.4 503.8,329.2 503.8,348.7 520.7,358.5 	"/>
	<polygon class="maincolor" points="541.2,323 558.1,313.3 558.1,293.7 541.2,283.9 524.3,293.7 524.3,313.2 	"/>
	<polygon class="maincolor" points="537.6,64.9 537.6,45.2 520.7,35.5 503.8,45.3 503.8,64.8 520.7,74.6 	"/>
	<polygon class="maincolor" points="541.2,110.1 558.1,100.3 558.1,80.8 541.2,71 524.3,80.8 524.3,100.3 	"/>
	<polygon class="maincolor" points="274.9,35.5 257.9,45.3 257.9,64.8 274.9,74.6 291.8,64.8 291.8,45.3 	"/>
	<polygon class="maincolor" points="274.9,106.5 257.9,116.2 257.9,135.8 274.9,145.6 291.8,135.8 291.8,116.3 	"/>
	<polygon class="maincolor" points="274.9,177.4 257.9,187.2 257.9,206.8 274.9,216.6 291.8,206.8 291.8,187.2 	"/>
	<polygon class="maincolor" points="274.9,248.4 257.9,258.2 257.9,277.8 274.9,287.5 291.8,277.8 291.8,258.2 	"/>
	<polygon class="maincolor" points="274.9,319.4 257.9,329.2 257.9,348.7 274.9,358.5 291.8,348.7 291.8,329.2 	"/>
	<polygon class="maincolor" points="298.9,64.8 315.8,74.6 332.8,64.8 332.8,45.3 315.8,35.5 298.9,45.3 	"/>
	<polygon class="maincolor" points="295.4,71 278.4,80.8 278.4,100.3 295.4,110.1 312.3,100.3 312.3,80.8 	"/>
	<polygon class="maincolor" points="298.9,135.8 315.8,145.6 332.8,135.8 332.8,116.3 315.8,106.5 298.9,116.2 	"/>
	<polygon class="maincolor" points="295.4,142 278.4,151.7 278.4,171.3 295.4,181.1 312.3,171.3 312.3,151.7 	"/>
	<polygon class="maincolor" points="298.9,206.8 315.8,216.6 332.8,206.8 332.8,187.2 315.8,177.4 298.9,187.2 	"/>
	<polygon class="maincolor" points="295.4,212.9 278.4,222.7 278.4,242.3 295.4,252.1 312.3,242.3 312.3,222.7 	"/>
	<polygon class="maincolor" points="298.9,277.8 315.8,287.5 332.8,277.8 332.8,258.2 315.8,248.4 298.9,258.2 	"/>
	<polygon class="maincolor" points="295.4,283.9 278.4,293.7 278.4,313.2 295.4,323 312.3,313.3 312.3,293.7 	"/>
	<polygon class="maincolor" points="298.9,348.7 315.9,358.5 332.8,348.7 332.8,329.2 315.8,319.4 298.9,329.2 	"/>
	<polygon class="maincolor" points="356.8,319.4 339.9,329.2 339.9,348.7 356.8,358.5 373.8,348.7 373.8,329.2 	"/>
	<polygon class="maincolor" points="373.8,277.8 373.8,258.2 356.8,248.4 339.9,258.2 339.9,277.8 356.8,287.5 	"/>
	<polygon class="maincolor" points="377.3,283.9 360.4,293.7 360.4,313.2 377.3,323 394.3,313.3 394.3,293.7 	"/>
	<polygon class="maincolor" points="353.3,293.7 336.3,283.9 319.4,293.7 319.4,313.2 336.3,323 353.3,313.3 	"/>
	<polygon class="maincolor" points="373.8,206.8 373.8,187.2 356.8,177.4 339.9,187.2 339.9,206.8 356.8,216.6 	"/>
	<polygon class="maincolor" points="377.3,212.9 360.4,222.7 360.4,242.3 377.3,252.1 394.3,242.3 394.3,222.7 	"/>
	<polygon class="maincolor" points="353.3,222.7 336.3,212.9 319.4,222.7 319.4,242.3 336.3,252.1 353.3,242.3 	"/>
	<polygon class="maincolor" points="373.8,135.8 373.8,116.3 356.8,106.5 339.9,116.2 339.9,135.8 356.8,145.6 	"/>
	<polygon class="maincolor" points="377.3,142 360.4,151.7 360.4,171.3 377.3,181.1 394.3,171.3 394.3,151.7 	"/>
	<polygon class="maincolor" points="353.3,151.7 336.3,142 319.4,151.7 319.4,171.3 336.3,181.1 353.3,171.3 	"/>
	<polygon class="maincolor" points="373.8,64.8 373.8,45.3 356.8,35.5 339.9,45.3 339.9,64.8 356.8,74.6 	"/>
	<polygon class="maincolor" points="377.3,71 360.4,80.8 360.4,100.3 377.3,110.1 394.3,100.3 394.3,80.8 	"/>
	<polygon class="maincolor" points="353.3,80.8 336.3,71 319.4,80.8 319.4,100.3 336.3,110.1 353.3,100.3 	"/>
	<polygon class="maincolor" points="418.3,323 435.2,313.3 435.2,293.7 418.3,283.9 401.3,293.7 401.3,313.2 	"/>
	<polygon class="maincolor" points="414.8,348.7 414.8,329.2 397.8,319.4 380.9,329.2 380.9,348.7 397.8,358.5 	"/>
	<polygon class="maincolor" points="421.8,348.7 438.8,358.5 455.7,348.7 455.7,329.2 438.8,319.4 421.8,329.2 	"/>
	<polygon class="maincolor" points="517.2,222.7 500.3,212.9 483.3,222.7 483.3,242.3 500.3,252.1 517.2,242.3 	"/>
	<polygon class="maincolor" points="418.3,252.1 435.2,242.3 435.2,222.7 418.3,212.9 401.3,222.7 401.3,242.3 	"/>
	<polygon class="maincolor" points="397.8,287.5 414.8,277.8 414.8,258.2 397.8,248.4 380.9,258.2 380.9,277.8 	"/>
	<polygon class="maincolor" points="421.8,277.8 438.8,287.5 455.7,277.8 455.7,258.2 438.8,248.4 421.8,258.2 	"/>
	<polygon class="maincolor" points="517.2,151.7 500.3,142 483.3,151.7 483.3,171.3 500.3,181.1 517.2,171.3 	"/>
	<polygon class="maincolor" points="479.8,177.4 462.8,187.2 462.8,206.8 479.8,216.6 496.7,206.8 496.7,187.2 	"/>
	<polygon class="maincolor" points="496.7,135.8 496.7,116.3 479.8,106.5 462.8,116.2 462.8,135.8 479.8,145.6 	"/>
	<polygon class="maincolor" points="476.2,151.7 459.3,142 442.3,151.7 442.3,171.3 459.3,181.1 476.2,171.3 	"/>
	<polygon class="maincolor" points="517.2,293.7 500.3,283.9 483.3,293.7 483.3,313.2 500.3,323 517.2,313.3 	"/>
	<polygon class="maincolor" points="496.7,329.2 479.8,319.4 462.8,329.2 462.8,348.7 479.8,358.5 496.7,348.7 	"/>
	<polygon class="maincolor" points="496.7,277.8 496.7,258.2 479.8,248.4 462.8,258.2 462.8,277.8 479.8,287.5 	"/>
	<polygon class="maincolor" points="476.2,293.7 459.3,283.9 442.3,293.7 442.3,313.2 459.3,323 476.2,313.3 	"/>
	<polygon class="maincolor" points="476.2,222.7 459.3,212.9 442.3,222.7 442.3,242.3 459.3,252.1 476.2,242.3 	"/>
	<polygon class="maincolor" points="418.3,181.1 435.2,171.3 435.2,151.7 418.3,142 401.3,151.7 401.3,171.3 	"/>
	<polygon class="maincolor" points="397.8,216.6 414.8,206.8 414.8,187.2 397.8,177.4 380.9,187.2 380.9,206.8 	"/>
	<polygon class="maincolor" points="421.8,206.8 438.8,216.6 455.7,206.8 455.7,187.2 438.8,177.4 421.8,187.2 	"/>
	<polygon class="maincolor" points="517.2,80.8 500.3,71 483.3,80.8 483.3,100.3 500.3,110.1 517.2,100.3 	"/>
	<polygon class="maincolor" points="496.7,64.8 496.7,45.3 479.8,35.5 462.8,45.3 462.8,64.8 479.8,74.6 	"/>
	<polygon class="maincolor" points="476.2,80.8 459.3,71 442.3,80.8 442.3,100.3 459.3,110.1 476.2,100.3 	"/>
	<polygon class="maincolor" points="418.3,110.1 435.2,100.3 435.2,80.8 418.3,71 401.3,80.8 401.3,100.3 	"/>
	<polygon class="maincolor" points="397.8,145.6 414.8,135.8 414.8,116.3 397.8,106.5 380.9,116.2 380.9,135.8 	"/>
	<polygon class="maincolor" points="421.8,135.8 438.8,145.6 455.7,135.8 455.7,116.3 438.8,106.5 421.8,116.2 	"/>
	<polygon class="maincolor" points="397.8,74.6 414.8,64.8 414.8,45.3 397.8,35.5 380.9,45.3 380.9,64.8 	"/>
	<polygon class="maincolor" points="421.8,64.8 438.8,74.6 455.7,64.8 455.7,45.3 438.8,35.5 421.8,45.3 	"/>
	<polygon class="maincolor" points="217,703.7 233.9,713.5 250.8,703.7 250.8,684.2 233.9,674.4 217,684.2 	"/>
	<polygon class="maincolor" points="237.4,668.2 254.4,678 271.3,668.2 271.3,648.7 254.4,638.9 237.4,648.7 	"/>
	<polygon class="maincolor" points="217,632.8 233.9,642.5 250.8,632.7 250.8,613.2 233.9,603.4 217,613.2 	"/>
	<polygon class="maincolor" points="237.4,597.3 254.4,607 271.3,597.3 271.3,577.7 254.4,567.9 237.4,577.7 	"/>
	<polygon class="maincolor" points="217,561.8 233.9,571.6 250.8,561.8 250.8,542.2 233.9,532.4 217,542.2 	"/>
	<polygon class="maincolor" points="237.4,526.3 254.4,536.1 271.3,526.3 271.3,506.7 254.4,496.9 237.4,506.7 	"/>
	<polygon class="maincolor" points="217,490.8 233.9,500.6 250.8,490.8 250.8,471.2 233.9,461.5 217,471.2 	"/>
	<polygon class="maincolor" points="237.4,455.3 254.4,465.1 271.3,455.3 271.3,435.7 254.4,426 237.4,435.7 	"/>
	<polygon class="maincolor" points="217,419.8 233.9,429.6 250.8,419.8 250.8,400.3 233.9,390.5 217,400.3 	"/>
	<polygon class="maincolor" points="237.4,384.3 254.4,394.1 271.3,384.3 271.3,364.8 254.4,355 237.4,364.8 	"/>
	<polygon class="maincolor" points="209.9,632.7 209.9,613.2 192.9,603.4 176,613.2 176,632.8 192.9,642.5 	"/>
	<polygon class="maincolor" points="230.3,668.2 230.3,648.7 213.4,638.9 196.5,648.7 196.5,668.2 213.4,678 	"/>
	<polygon class="maincolor" points="209.9,561.8 209.9,542.2 192.9,532.4 176,542.2 176,561.8 192.9,571.6 	"/>
	<polygon class="maincolor" points="230.3,597.3 230.3,577.7 213.4,567.9 196.5,577.7 196.5,597.3 213.4,607 	"/>
	<polygon class="maincolor" points="209.9,490.8 209.9,471.2 192.9,461.5 176,471.2 176,490.8 192.9,500.6 	"/>
	<polygon class="maincolor" points="230.3,526.3 230.3,506.7 213.4,496.9 196.5,506.7 196.5,526.3 213.4,536.1 	"/>
	<polygon class="maincolor" points="209.9,419.8 209.9,400.3 192.9,390.5 176,400.3 176,419.8 192.9,429.6 	"/>
	<polygon class="maincolor" points="230.3,455.3 230.3,435.7 213.4,426 196.5,435.7 196.5,455.3 213.4,465.1 	"/>
	<polygon class="maincolor" points="230.3,384.3 230.3,364.8 213.4,355 196.5,364.8 196.5,384.3 213.4,394.1 	"/>
	<polygon class="maincolor" points="189.4,577.7 172.4,567.9 155.5,577.7 155.5,597.3 172.4,607 189.4,597.3 	"/>
	<polygon class="maincolor" points="168.9,561.8 168.9,542.2 151.9,532.4 135,542.2 135,561.8 151.9,571.6 	"/>
	<polygon class="maincolor" points="189.4,506.7 172.4,496.9 155.5,506.7 155.5,526.3 172.4,536.1 189.4,526.3 	"/>
	<polygon class="maincolor" points="168.9,490.8 168.9,471.2 151.9,461.5 135,471.2 135,490.8 151.9,500.6 	"/>
	<polygon class="maincolor" points="148.4,506.7 131.4,496.9 114.5,506.7 114.5,526.3 131.4,536.1 148.4,526.3 	"/>
	<polygon class="maincolor" points="189.4,435.7 172.4,426 155.5,435.7 155.5,455.3 172.4,465.1 189.4,455.3 	"/>
	<polygon class="maincolor" points="168.9,419.8 168.9,400.3 151.9,390.5 135,400.3 135,419.8 151.9,429.6 	"/>
	<polygon class="maincolor" points="148.4,435.7 131.4,426 114.5,435.7 114.5,455.3 131.4,465.1 148.4,455.3 	"/>
	<polygon class="maincolor" points="189.4,364.8 172.4,355 155.5,364.8 155.5,384.3 172.4,394.1 189.4,384.3 	"/>
	<polygon class="maincolor" points="148.4,364.8 131.4,355 114.5,364.8 114.5,384.3 131.4,394.1 148.4,384.3 	"/>
	<polygon class="maincolor" points="127.9,419.8 127.9,400.3 110.9,390.5 94,400.3 94,419.8 110.9,429.6 	"/>
	<polygon class="maincolor" points="49.5,142 32.5,151.7 32.5,171.3 49.5,181.1 66.4,171.3 66.4,151.7 	"/>
	<polygon class="maincolor" points="45.9,64.8 45.9,45.3 29,35.5 12.1,45.3 12.1,64.8 29,74.6 	"/>
	<polygon class="maincolor" points="49.5,71 32.5,80.8 32.5,100.3 49.5,110.1 66.4,100.3 66.4,80.8 	"/>
	<polygon class="maincolor" points="90.5,323 107.4,313.3 107.4,293.7 90.5,283.9 73.5,293.7 73.5,313.2 	"/>
	<polygon class="maincolor" points="94,348.7 111,358.5 127.9,348.7 127.9,329.2 110.9,319.4 94,329.2 	"/>
	<polygon class="maincolor" points="189.4,222.7 172.4,212.9 155.5,222.7 155.5,242.3 172.4,252.1 189.4,242.3 	"/>
	<polygon class="maincolor" points="90.5,252.1 107.4,242.3 107.4,222.7 90.5,212.9 73.5,222.7 73.5,242.3 	"/>
	<polygon class="maincolor" points="70,287.5 86.9,277.8 86.9,258.2 70,248.4 53,258.2 53,277.8 	"/>
	<polygon class="maincolor" points="94,277.8 110.9,287.5 127.9,277.8 127.9,258.2 110.9,248.4 94,258.2 	"/>
	<polygon class="maincolor" points="189.4,151.7 172.4,142 155.5,151.7 155.5,171.3 172.4,181.1 189.4,171.3 	"/>
	<polygon class="maincolor" points="151.9,177.4 135,187.2 135,206.8 151.9,216.6 168.9,206.8 168.9,187.2 	"/>
	<polygon class="maincolor" points="168.9,135.8 168.9,116.3 151.9,106.5 135,116.2 135,135.8 151.9,145.6 	"/>
	<polygon class="maincolor" points="148.4,151.7 131.4,142 114.5,151.7 114.5,171.3 131.4,181.1 148.4,171.3 	"/>
	<polygon class="maincolor" points="189.4,293.7 172.4,283.9 155.5,293.7 155.5,313.2 172.4,323 189.4,313.3 	"/>
	<polygon class="maincolor" points="168.9,329.2 151.9,319.4 135,329.2 135,348.7 151.9,358.5 168.9,348.7 	"/>
	<polygon class="maincolor" points="168.9,277.8 168.9,258.2 151.9,248.4 135,258.2 135,277.8 151.9,287.5 	"/>
	<polygon class="maincolor" points="148.4,293.7 131.4,283.9 114.5,293.7 114.5,313.2 131.4,323 148.4,313.3 	"/>
	<polygon class="maincolor" points="148.4,222.7 131.4,212.9 114.5,222.7 114.5,242.3 131.4,252.1 148.4,242.3 	"/>
	<polygon class="maincolor" points="90.5,181.1 107.4,171.3 107.4,151.7 90.5,142 73.5,151.7 73.5,171.3 	"/>
	<polygon class="maincolor" points="70,216.6 86.9,206.8 86.9,187.2 70,177.4 53,187.2 53,206.8 	"/>
	<polygon class="maincolor" points="94,206.8 110.9,216.6 127.9,206.8 127.9,187.2 110.9,177.4 94,187.2 	"/>
	<polygon class="maincolor" points="189.4,80.8 172.4,71 155.5,80.8 155.5,100.3 172.4,110.1 189.4,100.3 	"/>
	<polygon class="maincolor" points="168.9,64.8 168.9,45.3 151.9,35.5 135,45.3 135,64.8 151.9,74.6 	"/>
	<polygon class="maincolor" points="148.4,80.8 131.4,71 114.5,80.8 114.5,100.3 131.4,110.1 148.4,100.3 	"/>
	<polygon class="maincolor" points="90.5,110.1 107.4,100.3 107.4,80.8 90.5,71 73.5,80.8 73.5,100.3 	"/>
	<polygon class="maincolor" points="70,145.6 86.9,135.8 86.9,116.3 70,106.5 53,116.2 53,135.8 	"/>
	<polygon class="maincolor" points="94,135.8 110.9,145.6 127.9,135.8 127.9,116.3 110.9,106.5 94,116.2 	"/>
	<polygon class="maincolor" points="70,74.6 86.9,64.8 86.9,45.3 70,35.5 53,45.3 53,64.8 	"/>
	<polygon class="maincolor" points="94,64.8 110.9,74.6 127.9,64.8 127.9,45.3 110.9,35.5 94,45.3 	"/>
	<polygon class="maincolor" points="274.9,390.5 257.9,400.3 257.9,419.8 274.9,429.6 291.8,419.8 291.8,400.3 	"/>
	<polygon class="maincolor" points="274.9,461.5 257.9,471.2 257.9,490.8 274.9,500.6 291.8,490.8 291.8,471.2 	"/>
	<polygon class="maincolor" points="274.9,532.4 257.9,542.2 257.9,561.8 274.9,571.6 291.8,561.8 291.8,542.2 	"/>
	<polygon class="maincolor" points="274.9,603.4 257.9,613.2 257.9,632.8 274.9,642.5 291.8,632.7 291.8,613.2 	"/>
	<polygon class="maincolor" points="274.9,674.4 257.9,684.2 257.9,703.7 274.9,713.5 291.8,703.7 291.8,684.2 	"/>
	<polygon class="maincolor" points="295.4,426 278.4,435.7 278.4,455.3 295.4,465.1 312.3,455.3 312.3,435.7 	"/>
	<polygon class="maincolor" points="298.9,490.8 315.8,500.6 332.8,490.8 332.8,471.2 315.8,461.5 298.9,471.2 	"/>
	<polygon class="maincolor" points="295.4,496.9 278.4,506.7 278.4,526.3 295.4,536.1 312.3,526.3 312.3,506.7 	"/>
	<polygon class="maincolor" points="298.9,561.8 315.8,571.6 332.8,561.8 332.8,542.2 315.8,532.4 298.9,542.2 	"/>
	<polygon class="maincolor" points="295.4,567.9 278.4,577.7 278.4,597.3 295.4,607 312.3,597.3 312.3,577.7 	"/>
	<polygon class="maincolor" points="298.9,632.8 315.8,642.5 332.8,632.7 332.8,613.2 315.8,603.4 298.9,613.2 	"/>
	<polygon class="maincolor" points="295.4,638.9 278.4,648.7 278.4,668.2 295.4,678 312.3,668.2 312.3,648.7 	"/>
	<polygon class="maincolor" points="298.9,703.7 315.8,713.5 332.8,703.7 332.8,684.2 315.8,674.4 298.9,684.2 	"/>
	<polygon class="maincolor" points="298.9,419.8 315.8,429.6 332.8,419.8 332.8,400.3 315.8,390.5 298.9,400.3 	"/>
	<polygon class="maincolor" points="278.4,364.8 278.4,384.3 295.4,394.1 312.3,384.3 312.3,364.8 295.4,355 	"/>
	<polygon class="maincolor" points="373.8,703.7 373.8,684.2 356.8,674.4 339.9,684.2 339.9,703.7 356.8,713.5 	"/>
	<polygon class="maincolor" points="373.8,632.7 373.8,613.2 356.8,603.4 339.9,613.2 339.9,632.8 356.8,642.5 	"/>
	<polygon class="maincolor" points="377.3,638.9 360.4,648.7 360.4,668.2 377.3,678 394.3,668.2 394.3,648.7 	"/>
	<polygon class="maincolor" points="353.3,648.7 336.3,638.9 319.4,648.7 319.4,668.2 336.3,678 353.3,668.2 	"/>
	<polygon class="maincolor" points="360.4,577.7 360.4,597.3 377.3,607 394.3,597.3 394.3,577.7 377.3,567.9 	"/>
	<polygon class="maincolor" points="373.8,561.8 373.8,542.2 356.8,532.4 339.9,542.2 339.9,561.8 356.8,571.6 	"/>
	<polygon class="maincolor" points="353.3,577.7 336.3,567.9 319.4,577.7 319.4,597.3 336.3,607 353.3,597.3 	"/>
	<polygon class="maincolor" points="373.8,490.8 373.8,471.2 356.8,461.5 339.9,471.2 339.9,490.8 356.8,500.6 	"/>
	<polygon class="maincolor" points="377.3,496.9 360.4,506.7 360.4,526.3 377.3,536.1 394.3,526.3 394.3,506.7 	"/>
	<polygon class="maincolor" points="353.3,506.7 336.3,496.9 319.4,506.7 319.4,526.3 336.3,536.1 353.3,526.3 	"/>
	<polygon class="maincolor" points="373.8,419.8 373.8,400.3 356.8,390.5 339.9,400.3 339.9,419.8 356.8,429.6 	"/>
	<polygon class="maincolor" points="377.3,426 360.4,435.7 360.4,455.3 377.3,465.1 394.3,455.3 394.3,435.7 	"/>
	<polygon class="maincolor" points="353.3,435.7 336.3,426 319.4,435.7 319.4,455.3 336.3,465.1 353.3,455.3 	"/>
	<polygon class="maincolor" points="360.4,364.8 360.4,384.3 377.3,394.1 394.3,384.3 394.3,364.8 377.3,355 	"/>
	<polygon class="maincolor" points="353.3,364.8 336.3,355 319.4,364.8 319.4,384.3 336.3,394.1 353.3,384.3 	"/>
	<polygon class="maincolor" points="496.7,703.7 496.7,684.2 479.8,674.4 462.8,684.2 462.8,703.7 479.8,713.5 	"/>
	<polygon class="maincolor" points="517.2,648.7 500.3,638.9 483.3,648.7 483.3,668.2 500.3,678 517.2,668.2 	"/>
	<polygon class="maincolor" points="496.7,632.7 496.7,613.2 479.8,603.4 462.8,613.2 462.8,632.8 479.8,642.5 	"/>
	<polygon class="maincolor" points="476.2,648.7 459.3,638.9 442.3,648.7 442.3,668.2 459.3,678 476.2,668.2 	"/>
	<polygon class="maincolor" points="418.3,678 435.2,668.2 435.2,648.7 418.3,638.9 401.3,648.7 401.3,668.2 	"/>
	<polygon class="maincolor" points="397.8,713.5 414.8,703.7 414.8,684.2 397.8,674.4 380.9,684.2 380.9,703.7 	"/>
	<polygon class="maincolor" points="421.8,703.7 438.8,713.5 455.7,703.7 455.7,684.2 438.8,674.4 421.8,684.2 	"/>
	<polygon class="maincolor" points="517.2,577.7 500.3,567.9 483.3,577.7 483.3,597.3 500.3,607 517.2,597.3 	"/>
	<polygon class="maincolor" points="496.7,561.8 496.7,542.2 479.8,532.4 462.8,542.2 462.8,561.8 479.8,571.6 	"/>
	<polygon class="maincolor" points="476.2,577.7 459.3,567.9 442.3,577.7 442.3,597.3 459.3,607 476.2,597.3 	"/>
	<polygon class="maincolor" points="418.3,607 435.2,597.3 435.2,577.7 418.3,567.9 401.3,577.7 401.3,597.3 	"/>
	<polygon class="maincolor" points="397.8,642.5 414.8,632.7 414.8,613.2 397.8,603.4 380.9,613.2 380.9,632.8 	"/>
	<polygon class="maincolor" points="421.8,632.8 438.8,642.5 455.7,632.7 455.7,613.2 438.8,603.4 421.8,613.2 	"/>
	<polygon class="maincolor" points="517.2,506.7 500.3,496.9 483.3,506.7 483.3,526.3 500.3,536.1 517.2,526.3 	"/>
	<polygon class="maincolor" points="496.7,490.8 496.7,471.2 479.8,461.5 462.8,471.2 462.8,490.8 479.8,500.6 	"/>
	<polygon class="maincolor" points="476.2,506.7 459.3,496.9 442.3,506.7 442.3,526.3 459.3,536.1 476.2,526.3 	"/>
	<polygon class="maincolor" points="418.3,536.1 435.2,526.3 435.2,506.7 418.3,496.9 401.3,506.7 401.3,526.3 	"/>
	<polygon class="maincolor" points="397.8,571.6 414.8,561.8 414.8,542.2 397.8,532.4 380.9,542.2 380.9,561.8 	"/>
	<polygon class="maincolor" points="421.8,561.8 438.8,571.6 455.7,561.8 455.7,542.2 438.8,532.4 421.8,542.2 	"/>
	<polygon class="maincolor" points="517.2,435.7 500.3,426 483.3,435.7 483.3,455.3 500.3,465.1 517.2,455.3 	"/>
	<polygon class="maincolor" points="496.7,419.8 496.7,400.3 479.8,390.5 462.8,400.3 462.8,419.8 479.8,429.6 	"/>
	<polygon class="maincolor" points="476.2,435.7 459.3,426 442.3,435.7 442.3,455.3 459.3,465.1 476.2,455.3 	"/>
	<polygon class="maincolor" points="517.2,364.8 500.2,355 483.3,364.8 483.3,384.3 500.3,394.1 517.2,384.3 	"/>
	<polygon class="maincolor" points="476.2,364.8 459.3,355 442.3,364.8 442.3,384.3 459.3,394.1 476.2,384.3 	"/>
	<polygon class="maincolor" points="418.3,465.1 435.2,455.3 435.2,435.7 418.3,426 401.3,435.7 401.3,455.3 	"/>
	<polygon class="maincolor" points="397.8,500.6 414.8,490.8 414.8,471.2 397.8,461.5 380.9,471.2 380.9,490.8 	"/>
	<polygon class="maincolor" points="421.8,490.8 438.8,500.6 455.7,490.8 455.7,471.2 438.8,461.5 421.8,471.2 	"/>
	<polygon class="maincolor" points="414.8,419.8 414.8,400.3 397.8,390.5 380.9,400.3 380.9,419.8 397.8,429.6 	"/>
	<polygon class="maincolor" points="455.7,419.8 455.7,400.3 438.8,390.5 421.8,400.3 421.8,419.8 438.8,429.6 	"/>
	<polygon class="maincolor" points="435.2,364.8 418.3,355 401.3,364.8 401.3,384.3 418.3,394.1 435.2,384.3 	"/>
	<polygon class="maincolor" points="602.6,35.5 585.7,45.3 585.7,64.8 602.6,74.6 619.6,64.8 619.6,45.3 	"/>
	<polygon class="maincolor" points="602.6,106.5 585.7,116.2 585.7,135.8 602.6,145.6 619.6,135.8 619.6,116.3 	"/>
	<polygon class="maincolor" points="602.6,177.4 585.7,187.2 585.7,206.8 602.6,216.6 619.6,206.8 619.6,187.2 	"/>
	<polygon class="maincolor" points="602.6,248.4 585.7,258.2 585.7,277.8 602.6,287.5 619.6,277.8 619.6,258.2 	"/>
	<polygon class="maincolor" points="602.6,319.4 585.7,329.2 585.7,348.7 602.7,358.5 619.6,348.7 619.6,329.2 	"/>
	<polygon class="maincolor" points="626.7,64.8 643.6,74.6 660.6,64.8 660.6,45.3 643.6,35.5 626.7,45.3 	"/>
	<polygon class="maincolor" points="623.1,71 606.2,80.8 606.2,100.3 623.1,110.1 640.1,100.3 640.1,80.8 	"/>
	<polygon class="maincolor" points="626.7,135.8 643.6,145.6 660.6,135.8 660.6,116.3 643.6,106.5 626.7,116.2 	"/>
	<polygon class="maincolor" points="623.1,142 606.2,151.7 606.2,171.3 623.1,181.1 640.1,171.3 640.1,151.7 	"/>
	<polygon class="maincolor" points="626.7,206.8 643.6,216.6 660.6,206.8 660.6,187.2 643.6,177.4 626.7,187.2 	"/>
	<polygon class="maincolor" points="623.1,212.9 606.2,222.7 606.2,242.3 623.1,252.1 640.1,242.3 640.1,222.7 	"/>
	<polygon class="maincolor" points="626.7,277.8 643.6,287.5 660.6,277.8 660.6,258.2 643.6,248.4 626.7,258.2 	"/>
	<polygon class="maincolor" points="623.1,283.9 606.2,293.7 606.2,313.2 623.1,323 640.1,313.3 640.1,293.7 	"/>
	<polygon class="maincolor" points="626.7,348.7 643.6,358.5 660.6,348.7 660.6,329.2 643.6,319.4 626.7,329.2 	"/>
	<polygon class="maincolor" points="684.6,319.4 667.7,329.2 667.7,348.7 684.6,358.5 701.6,348.7 701.6,329.2 	"/>
	<polygon class="maincolor" points="701.6,277.8 701.6,258.2 684.6,248.4 667.7,258.2 667.7,277.8 684.6,287.5 	"/>
	<polygon class="maincolor" points="705.1,283.9 688.2,293.7 688.2,313.2 705.1,323 722,313.3 722,293.7 	"/>
	<polygon class="maincolor" points="681.1,293.7 664.1,283.9 647.2,293.7 647.2,313.2 664.1,323 681.1,313.3 	"/>
	<polygon class="maincolor" points="701.6,206.8 701.6,187.2 684.6,177.4 667.7,187.2 667.7,206.8 684.6,216.6 	"/>
	<polygon class="maincolor" points="705.1,212.9 688.2,222.7 688.2,242.3 705.1,252.1 722,242.3 722,222.7 	"/>
	<polygon class="maincolor" points="681.1,222.7 664.1,212.9 647.2,222.7 647.2,242.3 664.1,252.1 681.1,242.3 	"/>
	<polygon class="maincolor" points="701.6,135.8 701.6,116.3 684.6,106.5 667.7,116.2 667.7,135.8 684.6,145.6 	"/>
	<polygon class="maincolor" points="705.1,142 688.2,151.7 688.2,171.3 705.1,181.1 722,171.3 722,151.7 	"/>
	<polygon class="maincolor" points="681.1,151.7 664.1,142 647.2,151.7 647.2,171.3 664.1,181.1 681.1,171.3 	"/>
	<polygon class="maincolor" points="701.6,64.8 701.6,45.3 684.6,35.5 667.7,45.3 667.7,64.8 684.6,74.6 	"/>
	<polygon class="maincolor" points="705.1,71 688.2,80.8 688.2,100.3 705.1,110.1 722,100.3 722,80.8 	"/>
	<polygon class="maincolor" points="681.1,80.8 664.1,71 647.2,80.8 647.2,100.3 664.1,110.1 681.1,100.3 	"/>
	<polygon class="maincolor" points="746.1,323 763,313.3 763,293.7 746.1,283.9 729.1,293.7 729.1,313.2 	"/>
	<polygon class="maincolor" points="742.5,348.7 742.5,329.2 725.6,319.4 708.7,329.2 708.7,348.7 725.6,358.5 	"/>
	<polygon class="maincolor" points="749.6,348.7 766.6,358.5 783.5,348.7 783.5,329.2 766.6,319.4 749.6,329.2 	"/>
	<polygon class="maincolor" points="845,222.7 828,212.9 811.1,222.7 811.1,242.3 828,252.1 845,242.3 	"/>
	<polygon class="maincolor" points="746.1,252.1 763,242.3 763,222.7 746.1,212.9 729.1,222.7 729.1,242.3 	"/>
	<polygon class="maincolor" points="725.6,287.5 742.5,277.8 742.5,258.2 725.6,248.4 708.7,258.2 708.7,277.8 	"/>
	<polygon class="maincolor" points="749.6,277.8 766.6,287.5 783.5,277.8 783.5,258.2 766.6,248.4 749.6,258.2 	"/>
	<polygon class="maincolor" points="845,151.7 828,142 811.1,151.7 811.1,171.3 828,181.1 845,171.3 	"/>
	<polygon class="maincolor" points="807.5,177.4 790.6,187.2 790.6,206.8 807.5,216.6 824.5,206.8 824.5,187.2 	"/>
	<polygon class="maincolor" points="824.5,135.8 824.5,116.3 807.5,106.5 790.6,116.2 790.6,135.8 807.5,145.6 	"/>
	<polygon class="maincolor" points="804,151.7 787.1,142 770.1,151.7 770.1,171.3 787.1,181.1 804,171.3 	"/>
	<polygon class="maincolor" points="845,293.7 828,283.9 811.1,293.7 811.1,313.2 828,323 845,313.3 	"/>
	<polygon class="maincolor" points="824.5,329.2 807.5,319.4 790.6,329.2 790.6,348.7 807.6,358.5 824.5,348.7 	"/>
	<polygon class="maincolor" points="824.5,277.8 824.5,258.2 807.5,248.4 790.6,258.2 790.6,277.8 807.5,287.5 	"/>
	<polygon class="maincolor" points="804,293.7 787.1,283.9 770.1,293.7 770.1,313.2 787.1,323 804,313.3 	"/>
	<polygon class="maincolor" points="804,222.7 787.1,212.9 770.1,222.7 770.1,242.3 787.1,252.1 804,242.3 	"/>
	<polygon class="maincolor" points="746.1,181.1 763,171.3 763,151.7 746.1,142 729.1,151.7 729.1,171.3 	"/>
	<polygon class="maincolor" points="725.6,216.6 742.5,206.8 742.5,187.2 725.6,177.4 708.7,187.2 708.7,206.8 	"/>
	<polygon class="maincolor" points="749.6,206.8 766.6,216.6 783.5,206.8 783.5,187.2 766.6,177.4 749.6,187.2 	"/>
	<polygon class="maincolor" points="845,80.8 828,71 811.1,80.8 811.1,100.3 828,110.1 845,100.3 	"/>
	<polygon class="maincolor" points="824.5,64.8 824.5,45.3 807.5,35.5 790.6,45.3 790.6,64.8 807.5,74.6 	"/>
	<polygon class="maincolor" points="804,80.8 787.1,71 770.1,80.8 770.1,100.3 787.1,110.1 804,100.3 	"/>
	<polygon class="maincolor" points="746.1,110.1 763,100.3 763,80.8 746.1,71 729.1,80.8 729.1,100.3 	"/>
	<polygon class="maincolor" points="725.6,145.6 742.5,135.8 742.5,116.3 725.6,106.5 708.7,116.2 708.7,135.8 	"/>
	<polygon class="maincolor" points="749.6,135.8 766.6,145.6 783.5,135.8 783.5,116.3 766.6,106.5 749.6,116.2 	"/>
	<polygon class="maincolor" points="725.6,74.6 742.5,64.8 742.5,45.3 725.6,35.5 708.7,45.3 708.7,64.8 	"/>
	<polygon class="maincolor" points="749.6,64.8 766.6,74.6 783.5,64.8 783.5,45.3 766.6,35.5 749.6,45.3 	"/>
</g>
</svg>
