<?xml version="1.0" encoding="utf-8"?>
<!-- Generator: Adobe Illustrator 27.9.1, SVG Export Plug-In . SVG Version: 6.00 Build 0)  -->
<svg class="v" version="1.1" xmlns="http://www.w3.org/2000/svg" xmlns:xlink="http://www.w3.org/1999/xlink" x="0px" y="0px"
	 viewBox="0 0 1000 749.7" style="enable-background:new 0 0 1000 749.7;" xml:space="preserve">
     $gradientDefs

<g>
	<path class="maincolor" d="M676.1,737.7c29.7-54.3,59.3-107.4,88.9-159.4c1.4-2.5,2.7-4.4,3.8-5.4c0.1-0.1,0.2,0.1,0.2,0.5
		c0,0.3-0.1,0.8-0.3,1.2l-2.2,5c-11.9,22.7-23.7,44.1-35.4,64.1c-17.3,34.8-34.5,66.1-51.3,93.5c18.3-2.6,38-5.6,59-9.3
		c29.8-5.3,50-10.6,65.3-20.4c30.6-19.6,40.3-51.2,55.8-95.9c12.7-36.4,24.9-77,36.6-119.9c-5.6,12.7-11.1,26.3-16.5,40.7
		c-1.1,3.8-2.4,7.4-3.7,10.6l-3.5,6.3c-18.6,31.9-37.6,70.4-56.5,114.1c-1.5,3.6-3,5.8-4,5.9l-0.6-1.1c-0.4-0.6-0.8-1.2-1.2-1.8
		c-0.2-0.4-0.5-0.6-0.9-0.7c-0.2,0-0.5,0.1-0.7,0.4c-3.1,3.1-6.7,9.4-10.3,18c-2.6,6.2-5.3,11.5-7.9,15.4c-0.4,0.6-0.8,0.6-0.9,0.1
		c-0.1-0.4,0-1.3,0.3-2.2l2.8-6.7c14.2-29.9,28.4-60.6,42.6-92.2c15.2-33.3,30.4-62.3,45.2-86c7.3-14.5,14.7-29.2,22-44.2
		c6-22.7,11.8-45.9,17.4-69.5c-4.4,7.8-8.7,15-13,21.5c-1,2.1-2,3.7-2.9,4.8c-0.5,0.6-0.9,0.4-1-0.4c-0.1-0.8,0-2.3,0.4-3.9
		c0.6-2.5,1.4-5,2.3-7.2c4.8-12.5,9.9-23.1,14.7-31.2c1.9-3,3.7-6.1,5.6-9.3C957.4,239.6,983,100.4,999.8,3.4
		c0.8-4.5-0.9-3.6-4.4-2.5C938.1,17.7,809.3,27,696.3,32c-0.2,0.6-0.3,1.2-0.5,1.8c-4.4,13.4-8.6,27-12.5,40.7
		c-0.3,1.1-0.4,2.1-0.3,2.9c0.2,1.4,0.6,2.4,1.2,3.1l0.9,0.8c0.4,0.5,0.6,1.5,0.5,2.8c-0.1,1.3-0.5,2.8-1.1,4.1
		c-3.8,8.2-7.3,17.1-10.3,26.3c-0.9,2.4-2.1,4.6-3.2,6l-7,8.2c-2.2,3.1-4.2,7.3-5.8,11.9c-1.5,3.9-3.1,7.4-4.9,10.6
		c-6.6,8.9-13.2,17.9-19.7,27.1c-0.1,0.2-0.3,0.2-0.3-0.1c0-0.2,0-0.6,0.2-0.9c1.3-2.5,2.6-4.8,4-7.1c9.1-12.5,17.2-31.5,21.8-51.2
		c0.2-1.3,0.6-2.7,1.1-4c1-2.5,2.1-4.9,3.2-7.1c0.7-1.4,1.5-2.9,2.2-4.4c0.2-0.4,0.3-0.8,0.5-1.2c0.4-1.1,0.6-2.2,0.6-3.2
		c0-0.9-0.2-1.6-0.6-1.7c-1.4-0.4-3.2,0.9-5,3.6c-1.4,2.4-2.8,5-4,7.9c-6.5,16.3-14.2,30.9-22.2,42.3c-0.7,1-1.5,1.4-2,1.1
		c-0.6-0.4-0.9-1.5-0.9-3l0-2.4c0-1.2-0.6-1.7-1.2-1.1c-0.9,0.9-1.9,2.3-2.7,4c-5.3,10.9-10.8,20.8-16.6,29.5
		c-0.5,0.6-1,0.9-1.4,0.6c-0.2-0.2-0.3-0.8-0.1-1.6c0.6-2.2,1.4-4.3,2.4-6.2c5.4-10.8,10.8-21.5,16.2-32.1c3.6-8,7.6-15,11.7-20.5
		c0.1-0.1,0.2-0.1,0.3,0s0,0.4,0,0.6c-0.8,2.6-1.7,5.2-2.8,7.6c-0.6,1.3-1,2.7-1.4,4.2c-0.1,0.2-0.1,0.4,0,0.5
		c0,0.1,0.1,0.1,0.2,0.1c0.9-0.8,1.8-2,2.7-3.5c6.3-11.3,12.4-23,18.5-35c1.6-3,3-6.7,3.7-10.4c0.3-1.3,0.1-2.3-0.4-2.3
		c-0.8-0.1-1.8,0.7-2.7,2.1c-2.1,3.3-4.3,6.6-6.4,9.9c-0.5,0.7-1.1,1.1-1.5,1c-0.1,0-0.2-0.2-0.2-0.5c0-0.3,0.1-0.6,0.2-0.9
		c2-4.4,4.2-8.2,6.5-11.4c7.4-8.8,14.8-19.1,21.9-30.9c3.8-6.5,7.7-12.6,11.6-18.4c-24.3,1-47.8,1.9-69.6,2.5
		c-0.2,0.4-0.4,0.8-0.6,1.2c-0.7,1.4-1.6,2.4-2.3,2.7c-0.3,0.1-0.4-0.3-0.3-0.9c0.1-1,0.3-2,0.6-3c-10.7,0.3-21,0.6-30.7,0.8
		c-2.7,6.5-6,11.9-9.3,15.4l-1.7,2.1l-3.2,6.6c-4.5,9.6-9.4,18.2-14.4,25.5c-1.7,2.5-3.2,5.7-4.4,9.2c-1.1,3.7-2.2,7.3-3.2,11
		c-0.6,2.4-1.6,4.7-2.7,6.4c-1.3,1.9-2.6,3.2-3.9,4c-1.6,1.1-3.3,2.8-4.9,4.9c-15.5,26.2-30,56.3-42.9,88.9c-1.7,5-3.4,10.1-5,15.2
		c-0.7,1.9-1.6,3.5-2.5,4.3l-1.5,1.1c-1.5,0.8-3.2,3-4.7,6c-12.2,26.4-25.1,51.3-38.4,74.2c-2.5,4.9-5.1,9.6-7.7,14.2
		c-1.4,2.2-2.8,3.7-4.1,4.5c-1.2,0.7-2.4,2-3.6,3.6c-12.6,21.4-25.1,43.5-37.4,66.2c-1.4,2.6-2.9,4.7-4.4,6.3
		c-0.3,0.2-0.5,0.1-0.5-0.2c-0.1-0.6-0.1-1.3,0-2.2c0.4-2.4,1-5,1.9-7.4c3.6-8.4,7.3-16.5,11.2-24.2c25.6-46.8,50.7-95.4,75.1-145.5
		c13.8-30.5,29-57.7,44.8-79.9c13.4-23.7,26.5-48.6,39.1-74.7c5.6-12.4,11.4-24.2,17.5-35.2c-9.8,0.2-19.1,0.4-27.5,0.6
		c-0.9,1.1-1.7,2.1-2.6,2.9c-0.2,0.2-0.4,0.1-0.5-0.1c-0.1-0.2,0-0.6,0.1-1l0.8-1.7c-21.6,0.4-38,0.5-47.1,0.5c-1.7,0-3.6,0-5.8,0
		c-15.9,29.3-31.7,58.7-47.4,88.3c-2,4-4.1,7.6-6.2,10.8c-0.4,0.5-0.8,0.9-1.2,0.9c-0.3,0.1-0.5-0.1-0.6-0.5c-0.3-1.2-0.2-3,0.3-5
		l1.1-3.5c3.1-8,6.3-15.8,9.7-23.2c11.5-23.5,23.2-46.2,35.3-68c-28.8-0.3-82-1.3-143.5-3.5l-1.1,1.1c-1.2,1.9-2.3,4.1-3.3,6.5
		c-12.7,31.7-27.2,60.8-42.4,85.6c-2.3,3.9-4.4,8.2-6.5,12.8c-0.9,2-1.6,4.3-2,6.5l-0.3,2.6c0.1,0.4,0.3,0.5,0.7,0.3
		c1.3-1.2,2.6-2.7,4-4.5c1.2-1.9,2.5-3.5,3.7-4.7c0.2-0.2,0.4-0.1,0.5,0.3c0.1,0.4,0,0.9-0.2,1.5c-0.6,1.9-1.5,3.6-2.3,5.1
		c-3.9,6-7.8,12.5-11.5,19.3c-2.2,3.7-4.5,7.1-6.8,10.2l-1.5,2.9c-1.1,2.7-2,5.6-2.8,8.5c-9.9,24.7-20.7,48.3-32,70.1
		c-2,4.4-4.1,8.7-6.3,12.7c-0.7,1.4-1.6,2.3-2.2,2.3l-0.6-0.9c-0.6-2.1-1.3-3.9-2-5.7c-0.3-0.6-0.8-0.6-1.4-0.1
		c-0.6,0.5-1.2,1.5-1.6,2.7l-1.2,3.6c-0.9,2.9-1.8,5.7-2.8,8.6c-1.4,4.2-2.8,8.3-4.3,12.4l-0.7,2.8c-0.6,3.1-1.3,6.2-2,9.4
		c-0.7,2.4-1.5,4.8-2.5,6.9c-3.8,7.2-7.6,14.4-11.4,21.6c-2.7,5.7-5.1,11.7-7.4,18c-7.6,20-15.9,39.2-24.8,57
		c-2.6,6.4-5.8,11.4-9,14c-0.7,0.6-1.3,1.2-2,1.8c-0.1,0.1-0.3,0.3-0.4,0.5l-2.7,6.2c-6.9,16.3-13.9,32.2-21.1,47.9
		c-0.9,2.6-2,5-3.1,7.2c-0.5,0.9-1,1.3-1.4,1c-0.4-0.3-0.5-1.1-0.3-2.3c0.4-2.3,1.1-4.8,2-7c6.1-13.8,11.9-28.1,17.4-42.6
		c1-2.8,2-5.6,3.1-8.2l1.4-2.3c0.9-1.3,1.7-2.6,2.6-3.9c0.4-0.7,0.9-1.5,1.2-2.4c0.7-1.9,1.4-3.8,1.9-5.7c1.4-5.1,3.3-10.1,5.6-14.2
		c5.9-10.3,11.6-21.7,16.9-33.9c0.5-1.2,0.9-2.4,1.2-3.6c0.2-0.6,0.3-1.2,0.3-1.7c0-1.4,0-2.8,0.1-4.3c0-0.2,0.1-0.4,0.1-0.7
		l2.6-4.7c8-13,15.3-29.4,20.9-47c3.9-12.8,9.3-24.5,15.2-32.9c6.5-9,12.8-19.3,18.8-30.7c6.9-18.4,14.8-35.7,23.3-50.7
		c0.4-0.8,0.8-1.7,1.1-2.7c0.4-1.1,0.7-2.3,0.9-3.4c0.4-2,0.8-4.1,1.3-6.2c0.6-3.4,1.8-7,3.4-9.7c3.3-6.1,6.6-12.4,9.8-18.7
		c13.4-35.6,28.8-68.5,45.4-96.8c3.9-5.7,7.8-11.7,11.6-17.8c-7.3-0.3-14.7-0.6-22.2-0.9c-9.6,17.3-19.5,33.4-29.6,48
		c-29.1,52.3-57.6,106.9-85.4,163.5c-1.7,3.7-3.4,7.2-5.3,10.5c-0.4,0.7-0.9,0.9-1.1,0.6c-0.3-0.4-0.4-1.2-0.3-2.2
		c0.7-3.9,1-7.5,1-10.8c0-2.3-1-3-2.3-1.7c-0.9,1.1-1.7,2.5-2.5,4l-1.2,2.6c-0.7,2-1,4.1-0.9,5.6l0.5,1.8c0.2,1.3,0.6,2.4,0.9,3.5
		c0.2,0.8,0.1,2.1-0.3,3.5c-0.6,2.1-1.4,4.1-2.3,5.7c-0.9,1.4-1.7,3.1-2.5,5l-0.8,3.2c-0.5,2.4-1.2,4.8-2,7.1
		c-14.4,33.2-29.2,65.7-44.4,97.5c-12.6,28.4-25.2,56.9-37.7,85.5c11.2,43,23,84.1,35.3,121.5c3.6-9.2,7.4-17.1,11.1-22.9
		c6-9.3,12.2-20.5,18.4-33.4c8.3-22.3,16.9-42.4,25.5-59.1c0.4-1,0.9-2,1.3-3.2c0.5-1.4,0.9-2.8,1.3-4.3c0.7-2.7,1.4-5.3,2.1-8
		c1.1-4.5,2.6-8.8,4.2-11.8c3.4-6.9,6.8-14,10.2-21.2c16-43,32.7-81.2,49.2-112.4c17.4-28.5,35.3-63.2,53.1-103
		c3.9-10,8-17.9,11.7-23c0.1-0.1,0.2-0.1,0.2,0.1c0,0.2,0,0.5-0.1,0.9c-0.4,1.5-0.9,3-1.4,4.3c-1.9,4-3.7,8.1-5.6,12.4
		C301.7,232,290,258.8,278.5,281c-2.7,6.6-5.4,11.4-7.8,13.8l-1.2,1.3c-1.1,2-2.3,4.5-3.5,7.4c-14.7,37.9-30,71.2-45,98.2
		c-2.3,4.3-4.6,9.2-6.8,14.6c-1,2.4-1.9,5.2-2.6,8.1l-0.8,3.5c0,0.7,0.1,0.9,0.4,0.7c1.1-1,2.2-2.4,3.5-4.2c1.2-2.1,2.3-3.6,3.4-4.7
		c0.2-0.1,0.3,0.1,0.2,0.6c0,0.6-0.2,1.3-0.4,1.9c-0.8,2.3-1.7,4.4-2.5,5.9c-3.7,6.4-7.6,13.5-11.4,21.2c-2.2,4-4.3,7.6-6.4,10.8
		l-1.6,3.3c-1.2,3.3-2.4,6.8-3.5,10.4c-11.5,29.5-23.3,57-35.1,81.8c-2.2,5.2-4.4,10-6.6,14.6c-0.8,1.6-1.5,2.4-1.9,2.1l-0.2-1.6
		c0.1-3.2,0-6.2-0.1-8.9c-0.1-1-0.4-1.3-0.8-0.9c-0.5,0.4-1.1,1.5-1.6,3l-1.5,4.4c-1.2,3.6-2.4,7.1-3.6,10.6
		c-1.7,5.2-3.5,10.2-5.3,15.2l-0.6,2.1c1.7,5.1,3.4,10.2,5.2,15.1c8,22.9,14.4,42.4,22.9,58.6c5.4-11.4,10.8-22.7,16.1-34.1
		c20-44.9,40.2-86.3,60.2-123.5c1.2-2,2.5-4.6,3.6-7.7l1.6-4.8c5.5-16.8,12-32.2,18.3-43.2c36-78.5,72.2-151,108-216.3
		c1.3-2.7,2.6-5.9,3.7-9.2c0.6-1.7,1.3-3.4,1.9-5.1c0.3-0.6,0.5-1.2,0.8-1.7c1.3-2.4,2.6-4.5,3.9-6.3c1.6-2.3,3.3-5.2,5-8.7
		c8.9-20,17.8-38.3,26.7-54.7c1.1-2.2,2.2-4,3.2-5.1c0.4-0.4,0.6,0.1,0.4,1.4c-0.3,1.9-0.9,4.1-1.7,6.1c-4.9,12.8-10,24.5-15.1,34.2
		c-5.3,8.8-10.8,19.9-16.2,32.4c-0.6,1.4-1.2,3-1.7,4.6c-0.3,0.9-0.5,1.9-0.6,2.6c-0.3,1.9,0,2.8,0.7,2.2c0.9-0.7,1.9-2.2,2.9-4.3
		c9.3-20.2,18.6-36.7,27.1-48.1c2.7-3.4,5.2-6.2,7.7-8.4l2.7-3.9c2.3-4.3,4.7-8.6,7.1-13.1c0.9-1.7,1.7-2.8,2.4-3.2
		c0.2-0.1,0.3,0.2,0.2,0.8c-0.1,0.6-0.3,1.4-0.5,2.1c-2.5,5.8-5,11.3-7.6,16.3c-11.2,24.4-22.5,48.7-33.7,72.8
		c-14.7,26.3-29.7,54.9-44.6,85.5c-12.2,31.7-25.1,60.7-37.9,85.5c-26.8,54-53.6,105.7-80.3,155c-13.1,29.4-26.3,56.1-39.3,79.2
		c-5.7,11.3-11.3,22.7-17,34.2c6.6,9.3,14.5,17.2,24.8,23.8c6.2,3.9,13.1,7.2,21.1,10c1.1-2.5,2.3-4.9,3.4-7.4
		c12.6-31.6,25.9-62.1,39.9-91.1c19.7-35.6,37.9-76,53.7-119c1-2.8,2.3-5.2,3.6-6.9c0.5-0.6,0.9-0.5,1,0.2c0.1,0.9-0.1,2.2-0.5,3.3
		c-1.6,3.7-3.2,7.4-4.9,11.1c-8.1,25.3-18,49.4-28.9,70.8c-3.7,9.2-8,17.6-12.4,24.7c-1.1,1.2-2.3,2.4-3.4,3.7c-0.5,0.6-1,1.2-1.5,2
		c-0.3,0.6-0.7,1.2-0.9,1.9c-9.9,26.9-20.6,53-32.1,77.6c-4.1,10.7-8.5,20.9-13.3,30.2c8.2,2.6,17.5,4.9,28.3,7
		c12.8-27.5,25.7-54.8,38.6-82.1c1.2-2.7,2.6-5.2,4-7.1c0.2-0.2,0.3-0.2,0.4,0c0.1,0.2,0.1,0.5,0,0.8l-1.7,4.8
		c-10.6,24.2-21.5,47.8-32.7,70.8c-1.9,4.5-3.7,9-5.6,13.4c2.9,0.6,6,1.1,9.1,1.7c5.3,0.9,10.4,1.8,15.5,2.7
		c5.4-13.2,10.9-26.2,16.4-39c7.9-20.3,16.1-37.8,24-51c1.5-3.1,2.9-5.9,4.3-8.3c0.4-0.5,0.6-0.6,0.8-0.3c0.2,0.3,0.2,1,0.1,2
		c-0.3,2.3-1,5.1-1.8,7.6c-3.1,8.6-6.2,17-9.3,25.1c-10.4,20.6-20.7,42.1-31.1,64.5c28.6,4.7,54.5,8.2,77.9,10.9
		c0.2-0.2,0.3-0.4,0.5-0.5c1.8-2.3,3.7-4.9,5.5-7.7l2.5-5.5c14.5-28.5,29.6-54.5,45.2-77.5c5.2-9.3,10.6-17.8,16.1-25.3
		c0.6-0.6,1.1-0.8,1.5-0.5c0.2,0.2,0.2,0.9,0,1.7l-0.8,2.4c-2.5,5.4-4.9,10.8-7.4,16.2c-1.1,2.6-2.3,5-3.6,7.1
		c-1.6,2.8-3,6.1-4.1,9.7c-11.2,25.6-23.8,48.2-36.8,66.2c-2.6,5.1-5.2,10.1-7.8,15c10.9,1.1,21.2,2.1,31,2.9c0.7-1.5,1.3-3.1,2-4.5
		c2.1-4.4,4.3-8.7,6.5-12.8c1-1.8,2-3.9,2.9-6.2c1-2.6,1.8-5.3,2.5-8l0.9-4.3l4.1-9c5.1-9.6,10-19.7,14.9-30c2-4.4,4.4-7.7,6.7-9.5
		c0.2-0.1,0.4,0,0.4,0.4c0.1,0.4,0,1-0.2,1.5c-2.6,6.7-5.3,13.3-8.1,19.7c-1.8,4.5-3.7,9.1-5.4,13.8c-0.8,2.5-1.8,4.9-2.9,6.9
		c-4,7-8,14.2-12,21.5c-3.1,7.3-6.3,14.2-9.7,20.7c23.1,1.8,43.2,2.7,60.5,3.1c0.5-0.8,1-1.5,1.5-2.1c0.5-0.5,0.9-0.5,1.1,0
		c0.2,0.6,0.3,1.3,0.3,2.2c12.9,0.3,24.3,0.3,34.4,0.3c5.6,0,11.6,0,18-0.1l0.9-3.2c4.7-12.9,10.5-24.4,16.7-33.1
		c1.8-3.3,3.7-6,5.5-8.1c0.3-0.3,0.5-0.1,0.6,0.4c0.1,0.6-0.1,1.4-0.4,2.1c-1.4,3.3-2.8,6.6-4.3,9.8c-5.4,11-10.9,21.7-16.5,32.1
		c22.3-0.3,50-1.1,83.9-3.9c1.7-3.8,3.3-7.5,5-10.9c9.6-21.3,19.2-40.7,28.7-57.8c0.9-1.8,1.8-3,2.6-3.6c0.2-0.1,0.3,0.6,0.1,1.5
		c-0.3,1.4-0.7,2.8-1.2,3.9c-2.2,4.5-4.4,8.6-6.6,12.3c-8.7,15.5-17.6,33.8-26.3,54.3C627.5,743.7,650.5,741.2,676.1,737.7z
		 M821.7,502.4c-5.7,12.1-11.4,25.7-16.9,40.6c-0.8,2.5-1.7,4.9-2.6,7c-0.1,0.2-0.2,0.3-0.2,0.1c0-0.2,0-0.5,0.1-0.8
		c7.7-24.3,16.2-46.8,25-65.7c1.7-3.7,3.3-6.7,4.9-8.8c0.1-0.1,0.1-0.1,0.2,0.1c0,0.1,0,0.4-0.1,0.6c-0.3,1.4-0.7,2.8-1.1,4.1
		C827.9,487.8,824.8,495.5,821.7,502.4z M951.8,215.2c-5.5,10.6-10.6,22.3-15.3,34.5c-0.6,2-1.4,4-2.2,5.8c-0.1,0.2-0.2,0.3-0.3,0.2
		c-0.1-0.1-0.1-0.3,0-0.6c5.7-19.4,13-38.1,21.2-54.6c1.6-3.2,3.2-6,5-8.1c0.1-0.1,0.2-0.1,0.2,0c0.1,0.1,0.1,0.2,0,0.4
		c-0.1,1-0.4,2.1-0.7,3.2C957.5,202.7,954.8,209.2,951.8,215.2z M686.3,515.8c-31.4,59.5-61.7,122.6-90.5,188.5
		c-1.8,4.7-3.8,9.2-6,13.3c-0.4,0.6-0.7,0.9-1,0.6c-0.2-0.2-0.3-0.9-0.1-1.7l2.3-7c3.8-9.2,7.7-18.1,11.9-26.6
		c0.4-0.8,0.6-1.8,0.7-2.6c0.1-1,0.1-2-0.1-2.6c-0.3-1-0.7-2-1-3l-0.4-1.7c0-1.4,0.4-3.1,1-4.6c1.6-4.1,3.3-8,5.2-11.6
		c17.1-35,33.8-71.2,50-108.3c4.4-7.2,8.4-16.1,11.6-25.6c0.3-0.9,0.3-1.7,0.1-2c-0.3-0.5-0.7-0.4-1.3,0c-1.1,1.2-2.2,2.9-3.3,4.9
		c-2.2,4-4.4,7.9-6.7,11.5c-1.1,1.5-2.1,3.2-3,5.1c-10.5,24.9-21.4,49.2-32.6,72.9c-1.8,4-4,6.9-5.9,7.7c-0.2,0.1-0.4-0.2-0.4-0.6
		c0-0.4,0.1-0.9,0.3-1.3c17.9-37.5,35.9-74.7,54-111.6c16.8-37.3,34.6-72.3,53.1-104.3c1.2-1.7,2.3-4,3.1-6.4l1.1-3.8
		c3.6-13.3,8.8-26,14.8-35.6c30.7-65.6,63-127.1,96.4-183.6c1.1-2.3,2.1-4.8,2.9-7.5c0.5-1.4,0.9-2.8,1.5-4.1c0.2-0.5,0.4-1,0.7-1.5
		c1.3-2.1,2.6-3.9,3.9-5.6c1.6-2.1,3.3-4.6,4.8-7.6c7.4-16.6,15.3-32.1,23.6-46.2c1-1.9,2.1-3.4,3.1-4.5c0.5-0.4,0.9-0.1,0.9,0.8
		c0,1.4-0.3,3.1-0.9,4.7c-3.6,10.4-7.9,20-12.6,28.4c-5.2,7.8-10.1,17.2-14.5,27.5c-0.5,1.2-0.9,2.4-1.2,3.7c-0.2,0.7-0.2,1.5-0.2,2
		c0.1,1.4,0.7,1.9,1.5,1.3c1-0.8,2-2.1,3-3.9c7.9-16.8,16.7-31.2,25.6-41.9c2.8-3.2,5.7-6,8.5-8.3l2.8-3.6c2.2-3.7,4.4-7.5,6.5-11.3
		c0.8-1.4,1.7-2.5,2.5-3c0.2-0.1,0.4,0,0.5,0.5c0,0.4-0.1,1-0.3,1.6c-2.1,4.8-4.2,9.4-6.5,13.6c-9.6,20.4-19.2,40.7-28.9,60.9
		c-13.9,22.8-27.5,47.3-40.7,73.2c-9.2,25.7-20,49.8-31.6,70.9c-23.9,45.8-48.3,90-73,132.5C710.4,473.1,698.6,495.7,686.3,515.8z
		 M457.5,675.9c9.9-14.4,19.6-29.6,29.3-45.6c1-1.8,2-3.2,3-4.1c0.7-0.8,1.4-0.9,1.8-0.4c0.4,0.6,0.6,1.7,0.4,3.2l-0.4,2.1
		c-0.5,1.7-1.3,3.3-2.1,4.4c-8.6,12.7-17,27.4-24.9,43.7c-6,10-12,19.3-18.2,27.7c-1,1.8-2,3.4-3,4.5c-0.6,0.6-1.1,0.7-1.5,0.2
		c-0.3-0.5-0.5-1.5-0.3-2.7c0.3-1.9,0.9-3.9,1.7-5.7C447.5,692.9,452.4,683.5,457.5,675.9z M569.8,649.1c1.7-1.3,3.6-4.1,5-7.7
		c6.1-14.7,12.9-28,20.1-39.3c0.9-1.6,1.9-3.1,2.8-4.6c0.6-1,1.3-1.8,2-2.6c0.7-0.8,1.4-1.1,1.9-0.9c0.3,0.1,0.4,0.8,0.1,1.7
		c-1.1,4.4-2.7,8.8-4.6,12.6c-12.4,22.8-25.1,44.6-37.9,65.4c-2.1,3.9-4.3,7.2-6.5,9.8l-1.1,0.7c-0.5-0.1-0.6-1.3-0.3-2.7
		c0.5-2.3,1.2-4.5,2.1-6.6c3-6.7,6.2-12.9,9.4-18.7C565.2,653.2,567.6,650.8,569.8,649.1z M604.2,582.4c-0.5,0.7-0.9,1.2-1.4,1.5
		c-0.4,0.3-0.8,0.5-1.1,0.4c-0.6-0.1-1.2-0.4-1.7-1c-0.2-0.3-0.3-0.8-0.2-1.5c0.2-1.6,0.7-3.5,1.5-4.9
		c10.4-18.1,20.6-36.6,30.7-55.6c0.9-1.8,2-3.4,3-4.5l0.9-0.4c0.4,0.1,0.6,1,0.3,2.2c-0.4,1.7-1,3.3-1.8,4.5
		c-5.1,8.6-10.2,16.8-15.4,24.6c-0.8,1.2-1.5,2.9-2,4.7C613.8,563.6,609.3,574.2,604.2,582.4z M658.8,479.2c1-1.4,2.1-2.7,3.1-3.8
		c0.6-0.6,1.2-1.1,1.8-1.4c0.2-0.1,0.4-0.1,0.6,0.2c0.4,1.1,0.4,2.8,0.1,4.8c-1.2,5.8-3.4,11.5-6,15.5c-0.6,1-1.2,1.8-1.8,2.2
		c-0.5,0.4-0.9,0.4-1.3,0.1c-0.9-1.1-1.9-2.1-2.9-3c-0.3-0.2-0.4-0.8-0.4-1.6c0.1-0.8,0.3-1.7,0.7-2.5
		C654.6,485.9,656.7,482.4,658.8,479.2z M550.7,638.8c-3.8,9.7-7.9,19-12.3,27.7c-1.5,3.1-3.2,5.6-4.8,7.2c-0.2,0.2-0.4,0.2-0.5,0
		c-0.1-0.1-0.1-0.4,0-0.8c4.5-12.1,9.3-23.6,14.6-34.5c1.4-3.1,3-5.7,4.6-7.4c0.3-0.3,0.6-0.2,0.7,0.2c0.1,0.4,0.1,1-0.1,1.7
		C552.2,634.9,551.5,636.9,550.7,638.8z M684.3,283.8c1.7-3.4,3.4-6.6,5.1-9.9c3.3-7,6.9-13.1,10.5-18.1c0.5-0.6,1-0.7,1.3-0.3
		c0.3,0.3,0.3,1.1,0.2,2.1l-2.3,8.1c-4.6,12.6-9.9,24.4-15.7,34.8c-14.9,25.4-29.7,51-44.4,77.1c-1.4,2.6-2.9,4.5-4.3,5.6
		c-0.1,0.1-0.3,0-0.3-0.1c-0.1-0.2-0.1-0.5,0-0.8c0.3-1.9,0.9-3.8,1.5-5.6c1.6-4.3,3.3-8.5,5-12.7c0.8-2.1,1.4-4.3,1.7-6.4
		c0.2-1.5,0-2.6-0.6-2.6c-0.2,0-0.5,0.1-0.7,0.4c-0.6,0.5-1.1,1.2-1.7,1.9c-1.4,1.9-2.7,3.8-4.1,5.9c-2.1,3.1-4.2,6.1-6.3,8.8
		c-0.2,0.2-0.4,0.2-0.4-0.1c0-0.3,0-0.8,0.2-1.2c3.7-7.6,7.5-14.5,11.5-20.7c12.6-20.7,25.4-40,38.4-57.7c1-1.2,2-2.5,2.9-4
		C682.7,286.8,683.5,285.3,684.3,283.8z M503.9,701.3c0.6-1.1,1.2-2.2,1.8-3.5c0.3-0.7,0.7-1.5,0.9-2.3c6.3-18.2,13.9-35,22.3-49
		c1.3-2.9,2.6-6,3.9-9.1c1.1-3.1,2.3-5.9,3.7-8.5c0.4-0.7,0.9-1,1.1-0.8c0.3,0.2,0.3,0.9,0.2,1.7c-0.6,2.3-1.3,4.7-2.2,6.8
		c-11.6,25.1-22.7,51-33.2,77.7c-1,2.4-2.1,4.6-3.3,6.3c-1.1,1.7-2.3,2-2.8,0.8c-0.6-1.2-0.4-3.6,0.3-6.1l1.2-2.8
		C499.7,708.8,501.8,705,503.9,701.3z M784.4,250c-5.3,9.1-10.8,17.6-16.3,25.6c-0.2,0.2-0.3,0.4-0.5,0.5c0,0,0,0,0,0
		c0,0,0-0.1,0-0.1c1.1-2.7,2.4-5.3,3.7-7.6c3.8-7.2,7.8-14.2,11.8-20.7c1.4-2.1,2.8-3.4,4.1-4c0.1,0,0.2,0.2,0.1,0.4
		c0,0.4-0.2,0.8-0.3,1.2C786.1,246.9,785.3,248.5,784.4,250z M558.6,583.9c-3.2,8.7-7.2,16.2-11.4,21.4c-0.2,0.2-0.3,0.1-0.4-0.1
		c0-0.3,0-0.7,0.2-1c8.2-19.5,17-38.1,26.2-55.5c2-4.7,3.9-9.4,5.9-14.2c0.7-1.7,1.7-3,2.4-3.2c0.3-0.1,0.5,0.3,0.5,1.1
		c-0.1,1.3-0.4,2.7-0.9,4c-1.5,4.1-3.3,8.1-5.1,11.7C569.7,558.9,563.9,570.9,558.6,583.9z M817,150.1l-2.4,5.8
		c-3,5.8-6.2,11.1-9.4,15.9c-1.8,2.9-3.7,5.5-5.6,8c-0.5,0.5-1,0.8-1.4,0.8c-0.5,0-0.9-0.4-1.2-1c-0.3-0.4-0.2-1.5,0.2-2.5l2.2-3.6
		c5.5-8.1,11.1-16.6,16.5-25.4c0.3-0.4,0.6-0.8,0.9-0.9c0.2-0.1,0.3-0.1,0.4,0.1C817.5,147.9,817.4,149,817,150.1z M726.1,291.8
		c-5.6,12-11.9,22-18.2,29.2c-0.1,0.1-0.1,0-0.1-0.2c0-0.3,0.1-0.6,0.2-0.8c5.8-11.4,11.9-21.5,18.2-29.8c0.1-0.1,0.2-0.1,0.2-0.1
		c0.1,0,0.1,0.2,0.1,0.3C726.4,290.8,726.3,291.3,726.1,291.8z M647.3,400.5c-6.1,15.5-13.2,29.3-20.7,40.4
		c-0.1,0.2-0.2,0.3-0.3,0.3c0,0,0,0,0,0c0,0,0-0.1,0-0.1c6.5-14.6,13-29.2,19.5-43.8c1.4-3,3.1-5.4,4.7-6.8c0.3-0.2,0.5,0,0.5,0.5
		c0,0.7-0.1,1.5-0.4,2.3C649.5,395.7,648.4,398.1,647.3,400.5z M726.2,265.8l0.4-2c3.3-8.6,6.9-16.7,10.8-23.9
		c9-18.5,18.4-35.8,28.2-51.5c0.9-1.6,1.9-2.9,2.9-3.6c0.3-0.2,0.5,0.2,0.4,0.9c-0.1,1-0.5,2.2-0.9,3.1c-2.2,4-4.4,7.7-6.6,11.2
		c-10.7,17.2-20.9,37-30.2,58.6c-1.3,2.9-2.8,5.2-4.3,6.7L726.2,265.8z M580.6,452.1c-5.5,10.6-11.3,20.4-17.2,29.1
		c-0.7,1-1.4,1.7-2.1,1.8c-0.5,0.2-0.7-0.5-0.6-1.5l0.6-2c2.3-6.8,5.1-13.2,8.1-18.7c3.9-7.8,7.9-15.1,12-21.8c1.2-2,2.5-2.4,3.1-1
		c0.6,1.4,0.3,4.2-0.7,6.8C582.9,447.5,581.8,450,580.6,452.1z M594,84.8c-0.2,0.6-0.3,1.2-0.3,1.6c0,0.4,0.2,0.6,0.4,0.5l3-3.7
		c3.6-5.3,7.1-11.7,10.2-18.8c0.7-1.9,1.7-3.5,2.6-4.5c0.6-0.6,1.1-0.3,1.2,0.8c0.1,1.5-0.2,3.5-0.8,5.4c-1.1,3.2-2.3,6.3-3.5,9.3
		c-3.5,9.7-7.7,18.8-12.1,26.5c-2.8,3.8-5.7,7.2-8.5,10.2c-1.9,2.3-3.8,5.3-5.5,8.8c-5.8,12.2-11.8,23.7-18,34.5
		c-1.7,3.7-3.5,7.2-5.3,10.7c-0.5,0.8-1,1.1-1.3,0.9c-0.3-0.2-0.4-0.9-0.2-1.8c0.4-2.2,1.2-4.5,2.1-6.5c5.8-11.3,11.9-21.7,18.2-31
		c1.7-2.4,2.9-6.5,2.7-9.4c0.1-1-0.2-1.7-0.6-1.9c-0.4-0.1-1,0.4-1.5,1.3c-0.6,1-1.1,2.1-1.6,3.3c-0.3,0.7-0.5,1.3-0.8,1.9
		c-1.1,2.5-2.3,4.8-3.6,6.5c-0.2,0.2-0.4,0.2-0.4,0c-0.1-0.3,0-0.8,0.1-1.2c3.3-8.8,7-17.1,10.9-24.6c5.8-12.1,11.7-23.9,17.8-35.2
		c0.5-1,1.1-1.9,1.6-2.7c0.2-0.3,0.4-0.5,0.6-0.5c0.2,0,0.4,0.2,0.5,0.7c0.1,0.4,0,1-0.2,1.7c-0.1,0.5-0.3,0.9-0.4,1.3
		c-0.7,1.6-1.4,3.1-2.1,4.7C597.4,77.2,595.7,80.9,594,84.8z M214.8,617.3c7.9-19.9,16.6-38.7,25.8-55.7c0.9-2.2,1.8-4.2,2.8-6
		c0.5-0.7,0.9-1,1.2-0.7c0.3,0.3,0.4,1.1,0.2,2.1c-0.5,2.3-1.1,4.6-2,6.8c-12.6,32.7-26,64.5-40.1,95c-1.5,3.8-3,7.6-4.7,11.3
		l-1,1.6c-0.6,0.7-1.2,0.6-1.3-0.3c-0.2-1.3,0-3.2,0.5-5.2c0.8-3,1.8-6,3-8.8c4.1-8.5,8-17.6,11.5-27.1
		C212.1,626,213.4,621.6,214.8,617.3z M472.4,192c-5.6,10.5-11.3,20.6-17,30.1c-1.5,2.6-3.2,4.2-4.6,4.3c-0.3,0-0.5-0.5-0.4-1.3
		c0.1-1,0.4-2.1,0.9-3c8-14.8,16.2-29,24.5-42.5c1-1.4,1.9-2.4,2.8-2.8c0.2,0,0.3,0.1,0.4,0.4c0.1,0.3,0,0.7-0.1,1.2
		c-0.5,2-1.2,3.9-2.1,5.5C475.4,186.5,473.9,189.3,472.4,192z M438.6,183.3c-2.4,4.6-4.8,9-7.3,13.3c-1.4,2.6-3,4.5-4.4,5.1
		c-0.2,0.1-0.4-0.1-0.5-0.5c-0.1-0.4,0-0.9,0.1-1.5c1.8-5.7,4.1-11,6.8-15.2c8.4-17.4,17.2-33.4,26.4-47.6c0,0,0,0,0,0c0,0,0,0,0,0
		c0,0.1-0.1,0.2-0.1,0.3c-0.8,1.4-1.6,2.9-2.3,4.4C451.8,156.6,445.4,170.7,438.6,183.3z M723.5,641.3
		C723.5,641.3,723.5,641.3,723.5,641.3c0.1,0.1,0,0.2,0,0.2c-0.1,0.4-0.3,0.8-0.5,1.1c-2.7,4.8-5.2,10.2-7.4,16
		c-2.2,6.3-5,11.9-8,15.9c-0.5,0.6-0.9,0.3-1-0.6c0-1.2,0.3-2.7,0.8-4.1c2.6-6.1,5.2-12.2,7.8-18.4c1-2.5,2.2-4.8,3.4-6.3
		c1.4-1.6,2.8-2.8,4.2-3.7L723.5,641.3z M286,372.7c6.8-17,14.6-32.3,22.9-44.8c1.4-2.7,2.8-5.2,4.3-7.5c0.4-0.5,0.8-0.7,1.1-0.6
		c0.3,0.1,0.5,0.6,0.5,1.2c0.1,1.6-0.3,3.8-1,5.8c-2.5,7.1-5.1,14-7.9,20.8c-14,25.3-27.7,51.6-41,79c-1.3,2.8-2.9,5-4.3,6.4
		c-0.2,0.2-0.4,0.1-0.5-0.2c-0.1-0.3,0-0.8,0.2-1.3C268.6,411.5,277.2,391.9,286,372.7z M357.7,239.6c-0.2,0.7-0.4,1.3-0.7,1.9
		c-0.6,1.3-1.3,2.6-1.9,3.8c-3.7,6.4-7.3,12.7-11.1,18.9l-1.8,2c-0.9,0.9-1.7,0.5-1.9-0.8c-0.1-0.5,0-1.2,0.2-1.9
		c0.3-1.2,0.7-2.3,1.2-3.3c4.7-8.6,9.2-18.1,13.2-28.3c3.1-9,7-17.2,11.3-23.6c0.8-1.3,1.7-2.3,2.5-2.8c0.2-0.1,0.4,0.2,0.3,0.8
		c-0.2,1.2-0.5,2.4-0.9,3.6c-2.6,6.6-5.3,13.1-8.1,19.5c-0.1,0.3-0.2,0.6-0.3,0.9c-0.5,2.3-1,4.6-1.5,6.9L357.7,239.6z M306,249.2
		c-4.9,14.6-11.1,28-17.9,38.5c-0.8,1.1-1.6,1.8-2.2,1.8c-0.5,0-0.7-0.9-0.4-2.2l1.8-5.4c6.9-16.5,14.2-32.2,21.9-46.9
		c0.8-1.8,1.7-3.3,2.6-4.6c0.1-0.1,0.2-0.2,0.3-0.1c0.1,0.1,0.1,0.2,0.1,0.4c-0.1,1-0.3,2.1-0.7,3.1
		C309.7,239,307.9,244.1,306,249.2z M318,209.3l-2.4,5.8c-1.2,2.6-2.6,4.8-4,6.4c-0.7,0.8-1.3,0.9-1.7,0.4c-0.4-0.5-0.5-1.6-0.3-2.9
		l0.9-2.9c10.1-22,20.5-43.1,31.3-63.2c1-1.6,2-2.7,2.9-3.4c0.4-0.2,0.6,0.3,0.5,1c-0.1,1.2-0.4,2.5-0.9,3.8
		c-3.1,8.2-7,15.2-11,19.4c-1,1-2,2.4-3,4.2l-0.9,2.6C325.9,190.3,322,200,318,209.3z M369.1,83.8c-5.7,14.4-12.5,26.9-19.6,36
		c-0.2,0.2-0.3,0.2-0.4,0.1c-0.1-0.1,0-0.3,0-0.6c1.5-3.5,3.1-6.8,4.8-9.8c4.8-8.7,9.5-17.6,14.2-26.7c1.3-2.9,2.7-5.3,4.2-7.1
		c0.1-0.1,0.2-0.1,0.2,0s0.1,0.2,0,0.4c-0.1,0.6-0.3,1.2-0.5,1.8C371.1,79.8,370.1,81.8,369.1,83.8z M288,630.8
		c-2.5,5-5,10.1-7.5,15.1c-3.6,7.5-7.2,15-10.9,22.3c-0.1,0.2-0.2,0.3-0.3,0.1c-0.1-0.1,0-0.4,0.1-0.7c9.1-21.5,18.6-42.3,28.5-62.2
		c0.4-0.7,0.9-0.8,1-0.2c0.2,0.6,0,1.7-0.3,2.6C295.2,615.8,291.7,623.4,288,630.8z M760.8,546.7c-5.8,12.8-11.7,25.2-17.5,37.2
		c-0.8,1.8-1.6,3-2.2,3.4c-0.4,0.2-0.4-0.6-0.2-1.9l2.3-7.4c5.7-15.6,11.8-28.7,17.5-37.8c1.8-3.7,3.6-6.6,5.2-8.5
		c0.3-0.2,0.4,0.1,0.3,0.8c-0.1,0.8-0.3,1.9-0.7,2.8C764,539.2,762.4,543,760.8,546.7z M796,467.8c1.4-0.9,3.1-4,4.8-8.3
		c6.9-17.4,14.1-32.7,21-44.8c0.9-1.8,1.8-3.4,2.8-5c0.6-1,1.2-1.9,1.8-2.6c0.6-0.8,1.1-0.9,1.4-0.3c0.2,0.3,0.1,1.3-0.3,2.4
		c-1.6,5.6-3.6,10.9-5.5,15.3c-12.7,25.6-25.3,49.7-37.9,72.3c-2.1,4.4-4.3,8-6.2,10.5l-0.8,0.4c-0.3-0.4-0.1-2.1,0.4-3.9
		c0.8-2.9,1.7-5.7,2.7-8.1c3.3-7.8,6.6-15,9.9-21.4C792.2,471.2,794.2,469,796,467.8z M831.9,391.9c-0.4,0.7-0.8,1.2-1.2,1.5
		c-0.3,0.2-0.6,0.3-0.8,0c-0.4-0.4-0.7-1.2-0.9-2.3c-0.1-0.5,0-1.2,0.1-2.2c0.5-2.2,1.2-4.5,2-6.1c10.4-20,20.8-40.8,31.2-62.2
		c1-2.1,2-3.7,2.9-4.8l0.6-0.1c0.3,0.4,0.2,1.7-0.2,3.3c-0.6,2.1-1.3,4-2.1,5.4c-5,9.4-10,18.3-15,26.5c-0.8,1.3-1.6,3.3-2.3,5.5
		C841.9,370.6,836.8,383,831.9,391.9z M888.3,275.2c1-1.5,1.9-2.7,2.8-3.7c0.5-0.6,1-1,1.4-1.1c0.2-0.1,0.3,0.1,0.3,0.5
		c0,1.7-0.3,4.2-1,6.8c-1.9,7.5-4.6,14.4-7.1,18.7c-0.6,1.1-1.1,1.8-1.6,2.2c-0.4,0.3-0.7,0.1-0.8-0.5c-0.4-2-0.8-3.9-1.2-5.7
		c-0.1-0.4-0.1-1.3,0.1-2.4c0.2-1.1,0.6-2.3,1-3.1C884.2,282.6,886.2,278.7,888.3,275.2z M785.9,443.7c-4.5,11.6-9,22.5-13.6,32.5
		c-1.6,3.6-3.2,6.2-4.6,7.6c-0.2,0.2-0.3,0.1-0.3-0.3c0-0.2,0-0.6,0.2-1.1c5.4-14.6,10.9-28.3,16.5-40.9c1.5-3.7,3.1-6.5,4.5-8
		c0.2-0.2,0.4,0,0.4,0.6c0,0.6-0.2,1.4-0.4,2.3C787.7,439,786.8,441.4,785.9,443.7z M743,507.4c0.6-1.2,1.3-2.5,1.9-3.9
		c0.4-0.8,0.7-1.8,1.1-2.8c7.8-22.2,16.2-41.9,24.5-57.2c1.5-3.4,2.9-7,4.4-10.8c1.3-3.7,2.7-7.1,4.1-10c0.4-0.7,0.7-0.9,0.9-0.5
		c0.1,0.4,0,1.4-0.2,2.4c-0.8,3-1.8,5.9-2.9,8.4c-12.6,29.2-25.1,59.9-37.4,91.8c-1.1,2.9-2.3,5.4-3.4,7.1c-1.1,1.8-1.9,1.7-2-0.3
		c-0.1-1.9,0.5-5.2,1.5-8.3l1.4-3.3C738.8,515.7,740.9,511.5,743,507.4z M802.4,370.9c-3.9,10.5-8,19-11.8,24.2
		c-0.1,0.2-0.2,0-0.2-0.3c0-0.4,0.2-0.9,0.3-1.4c9.3-23.1,18.8-44.6,28.3-64.3c2.2-5.6,4.5-11.2,6.7-16.8c0.8-2.1,1.7-3.3,2.2-3.2
		c0.2,0,0.3,0.7,0.1,1.7c-0.3,1.7-0.8,3.5-1.4,5.1c-1.8,5-3.8,9.6-5.7,13.8C814.7,341.6,808.5,355.5,802.4,370.9z M679,649.5
		l-2.7,6.9c-3.1,6.6-6.3,12.4-9.3,17.5c-1.8,3.1-3.5,5.9-5.2,8.4c-0.4,0.5-0.8,0.6-1.1,0.4c-0.3-0.3-0.5-1-0.6-2
		c-0.1-0.7,0.2-2.2,0.7-3.3l2.1-3.9c5.2-8.5,10.5-17.6,15.8-27.2c0.3-0.4,0.6-0.7,0.8-0.9c0.1-0.1,0.2,0.1,0.2,0.3
		C679.8,646.6,679.5,648.1,679,649.5z M897.3,159.3c-7.1,18.5-14.5,34.3-21.7,45.9c-0.1,0.2-0.2,0.2-0.3,0.2c0,0,0,0,0-0.1
		c0-0.1,0-0.1,0-0.2c7.2-17.2,14.4-34.3,21.6-51.3c1.5-3.4,3.1-5.9,4.4-7.2c0.2-0.2,0.3,0.2,0.2,1c-0.1,0.9-0.4,2-0.7,3
		C899.7,153.7,898.5,156.5,897.3,159.3z M209.3,393.7c2.3-5.1,4.6-10,6.8-14.6c1-2.1,2.1-4.5,3.1-7.2c1.2-3.1,2.3-6.4,3.3-9.9
		l1.5-5.6l4.5-10.5c5.3-10.9,10.5-22.4,15.7-34.4c2.2-5.1,4.4-8.6,6.2-9.9c0.2-0.1,0.2,0.2,0.2,0.8c-0.1,0.6-0.2,1.3-0.4,2
		c-3,8.1-6.1,16-9.3,23.4c-2.1,5.4-4.2,10.9-6.3,16.5c-1,3.1-2.1,5.9-3.3,8.2c-4,7.8-8.1,15.8-12.2,24c-4,9.9-8,18.9-12,27
		c-0.8,1.5-1.5,2.5-2.1,2.7c-0.2,0-0.2-0.6,0-1.3c0.3-1.3,0.7-2.7,1.1-3.9C207.2,398.5,208.3,396,209.3,393.7z M149.7,383.9
		c-6.7,17.1-13.6,32.4-20.4,45.5l-1.7,3.8c-0.9,1.6-1.5,1.4-1.5-0.5c0-1.8,0.7-4.7,1.6-6.7l4.2-8.5c6.9-14.2,13.8-29.8,20.7-46.6
		c1.4-3.5,2.9-5.9,4.1-7c0.1,0,0.1,0.1,0.1,0.2c0,0.2,0,0.5-0.1,0.8c-0.4,1.5-0.8,3-1.3,4.3C153.5,374.1,151.6,379.1,149.7,383.9z
		 M801.6,106.6c-3,5.1-5.8,9.2-8.5,12.2c-0.1,0.1-0.2,0-0.2-0.4c0-0.4,0.2-0.8,0.3-1.2c1.3-2.9,2.7-5.6,4-7.9
		C810,81,822.7,58.4,834.5,43.5c0.1-0.1,0.1-0.1,0.1,0.1c0,0.2-0.1,0.5-0.2,0.6C823.5,63.9,812.6,84.7,801.6,106.6z M764.3,76.8
		l-1,3c-2.7,6.3-5.4,12.7-8.1,18.9c-1.3,3.1-2.5,5.9-3.8,8.1c-1.6,3.1-3.2,7-4.6,11.4c-12.5,30.1-25.2,55.3-37.3,74
		c-14.1,30.5-28.1,55.6-41.3,74.3c-1.3,2.3-2.6,3.9-3.7,4.9c-0.1,0.1-0.2-0.1-0.1-0.4c0-0.3,0.1-0.7,0.2-1l2.2-5
		c7-14.7,13.9-31.1,20.6-48.8c2.6-6.4,5.4-11.5,7.8-14.5c1.7-2.3,3.4-5,5.1-8l2.8-6.4c15.2-32.5,30.3-61.3,45.1-85.5
		c5.3-10.4,10.5-19.5,15.6-27.3c0.5-0.6,0.9-0.5,1,0.1C764.8,74.9,764.6,75.9,764.3,76.8z M550,445c-0.2,0.7-0.4,1.5-0.5,2.1
		c-0.1,0.6,0,0.9,0.2,0.9l2.7-3.6c3.4-5.6,6.9-12.8,10.4-21.1c0.9-2.3,1.8-4,2.6-5c0.5-0.6,0.8,0.1,0.6,1.7
		c-0.3,2.2-0.9,4.8-1.7,7.2c-1.4,3.9-2.7,7.6-4.2,11.2c-4.3,11.8-8.8,22.4-13.3,31c-2.6,3.8-5.1,7.1-7.6,9.9
		c-1.7,2.2-3.5,5.5-5.3,9.6c-6.2,14.2-12.5,27.3-18.7,39.1c-1.9,4.3-3.7,8.3-5.6,12.2c-0.5,0.8-0.8,1.1-1,0.6
		c-0.2-0.4-0.1-1.4,0.2-2.6c0.7-2.9,1.7-5.7,2.7-8c6.1-12.9,12.2-24.3,18.1-34.1c1.6-2.4,3.2-7.7,3.7-11.7c0.3-1.4,0.3-2.5,0-2.9
		c-0.3-0.4-0.7,0-1.2,1.1c-0.6,1.1-1.1,2.4-1.7,3.8c-0.3,0.8-0.6,1.5-0.9,2.2c-1.2,3-2.5,5.5-3.6,7.2c-0.2,0.2-0.3,0.1-0.3-0.3
		c0-0.4,0.1-1.1,0.3-1.6c3.9-10.6,8-20.4,12.1-28.8c6.2-14,12.5-27.4,18.7-40.2c0.5-1.1,1.1-2.1,1.6-3c0.2-0.3,0.4-0.5,0.5-0.4
		c0.2,0.1,0.2,0.5,0.2,1.2c-0.1,0.6-0.2,1.5-0.5,2.3c-0.2,0.6-0.4,1.1-0.6,1.6c-0.8,1.9-1.5,3.7-2.3,5.5
		C553.8,436.1,551.9,440.5,550,445z M534.2,449.1c-13.3,30.7-26.7,59-40,84.3c-2.6,5.6-5.3,10.9-7.9,16c-1.3,2.3-2.6,3.8-3.6,4.2
		c-0.9,0.4-1.9,1.5-3,3.2c-12.5,23.6-25.1,48.2-37.7,73.6c-1.4,2.9-2.8,5.1-4.1,6.6c-0.2,0.2-0.3,0-0.3-0.6c0-0.9,0.2-1.9,0.5-3.1
		c0.7-3.2,1.7-6.4,2.8-9.4c4-9.9,8.1-19.3,12.2-28.2c26.1-52.5,52.2-107.7,78.3-165.4c15.2-35.7,30.6-65.9,45.3-89.1
		c13.5-26.3,27.1-54.6,40.6-84.7c10.7-25.3,21.5-47.4,32.1-65.4c0.5-0.6,0.8-0.6,1,0c0.1,0.4-0.1,1.5-0.4,2.4
		c-1.1,3.1-2.3,6.2-3.4,9.2l-1.1,3.1c-0.5,2.1-0.7,3.9-0.3,4.3c0.8,1,2.1,0.2,3.6-2.1c6.6-10.7,13.2-22,19.9-33.9
		c1.4-2.7,2.7-4.8,4-6.1c0.8-0.9,1.5-0.8,1.8,0.3c0.3,0.7,0.1,2.5-0.4,4.4l-2.2,6.1c-4.9,13-10.1,22.1-14.1,24.6
		c-2.2,1.2-4.7,3.9-7.4,8c-0.8,1-1.6,2-2.4,2.8c-0.4,0.4-0.7,0.7-1.1,0.9c-0.6,0.4-1.4,1-2.1,2c-0.4,0.5-0.8,1.2-1.2,2.2
		c-3.3,8.7-6.9,15.3-9.9,18.7l-1.5,2.1l-3.4,7.6c-4.9,11.1-9.8,20.7-14.5,28.3c-1.6,2.6-3.2,6.3-4.7,10.7c-1.5,4.5-2.9,9.1-4.4,13.8
		c-0.9,3.1-2,5.8-3,7.6c-1.2,1.9-2.4,3.2-3.3,3.7c-1.3,0.8-2.7,2.3-4.2,4.4c-15.4,28.8-30.9,63.6-46,102.6
		c-2.2,6.2-4.3,12.4-6.4,18.7c-0.8,2.4-1.8,4.2-2.5,4.8l-1.2,0.8C537.3,443.4,535.8,445.6,534.2,449.1z M579.5,377.8
		c11.2-26.4,22.5-50.2,33.6-70.8c3.1-6.3,6.2-11.9,9.2-16.7c0.1-0.2,0.2-0.1,0.2,0.2c0,0.3-0.1,0.7-0.2,1
		c-7.6,20.9-15.4,40.6-23.4,58.8c-1.8,4.5-3.6,8.3-5.4,11l-2.5,3.2c-3.2,4-6.6,9.6-10,16.6c-1.4,3-2.8,6-4.1,8.9
		c-0.8,1.6-1.5,2.6-2,2.7c-0.2-0.1-0.2-0.6,0-1.4c0.3-1.5,0.8-3.1,1.3-4.5C577.2,383.8,578.4,380.8,579.5,377.8z M713.7,97.7
		l-1.1,3.5c-7.3,23.8-16.3,43.4-23.9,52.6c-0.5,0.6-0.8,0.1-0.7-1.2c0.1-1.4,0.6-3.3,1.2-4.8c1.9-4.5,3.8-8.4,5.6-11.7
		c6.5-12.7,13.1-26.7,19.6-41.7c0.8-1.8,1.6-3.3,2.4-4.4c0.1-0.1,0.1,0,0.1,0.1c0,0.1,0,0.3-0.1,0.5c-0.7,1.9-1.4,3.6-2.1,5.2
		L713.7,97.7z M450,533.3c-5.7,11.9-11.5,23.1-17.2,33.5c-1.5,2.9-2.9,4.3-3.8,3.7c-0.2-0.2-0.2-1,0-2c0.3-1.3,0.7-2.7,1.2-3.8
		c8.2-16.6,16.4-32.3,24.5-47.1c0.9-1.5,1.7-2.4,2.4-2.4c0.1,0,0.2,0.3,0.2,0.8c0,0.5-0.1,1-0.3,1.6c-0.7,2.5-1.6,4.9-2.5,6.7
		C453,527.2,451.5,530.3,450,533.3z M535.2,348.5c-2.1,4.2-4.2,7.3-6,9.1c-0.2,0.1-0.3,0-0.3-0.4c0-0.4,0.1-0.9,0.3-1.4l2.5-5.7
		c11-24.6,21.9-48,32.9-69.9c1.5-3,2.9-5,4.1-6c0.2-0.1,0.3,0.1,0.3,0.6c0,0.4-0.2,1.1-0.4,1.6C557.6,303.1,546.4,327.3,535.2,348.5
		z M430.1,504c-2.5,5.2-5,10.2-7.5,14.9c-1.5,3-2.9,4.7-3.9,4.9c-0.2,0-0.2-0.4-0.2-1c0-0.6,0.2-1.3,0.4-2
		c2.3-7.1,4.9-13.3,7.5-17.8c9-20.1,18-38,26.8-53.1c0,0,0,0,0,0c0,0,0,0,0,0.1c0,0.1-0.1,0.2-0.1,0.3c-0.8,1.5-1.6,3.2-2.4,5
		C444.1,473.4,437.1,489.9,430.1,504z M531,249.8l-2.2,5.2c-1,2.9-1.9,6-2.7,9.1l-1.2,4.6l-3.2,7.3
		c-24.8,49.8-49.5,100.2-74.3,151.2c-2.1,4.6-4.2,8.6-6.2,12c-0.4,0.5-0.7,0.8-1,0.7c-0.2,0-0.3-0.4-0.3-1c0.1-1.8,0.5-4.3,1.3-6.8
		l1.5-4.3c3.6-9.6,7.3-18.8,11.1-27.5c12.6-27.9,25.2-54.4,37.8-79.5c15.2-32.2,30.4-61.9,45.4-88.6c9.4-17.4,18.8-33.5,28-48.3
		c0.9-1.1,1.8-2.6,2.7-4.6c5.9-14,11.9-25.6,17.5-34c0.1-0.2,0.2-0.1,0.2,0.2c0,0.3-0.1,0.8-0.3,1.1c-2.2,4.4-4.4,8.7-6.6,12.8
		c-11.5,26.6-23.2,49.7-34.5,68.4c-2.2,3.6-4.4,6.3-6.3,7.8c-0.8,0.7-1.8,2.3-2.8,4.6C533.5,243.2,532.3,246.4,531,249.8z
		 M366.7,541.7c-0.3,0.8-0.6,1.6-0.9,2.3c-0.7,1.5-1.3,3-2,4.3c-3.7,7.1-7.3,14-11,20.8l-1.6,1.9c-0.8,0.7-1.2-0.1-1-2.2
		c0.1-0.7,0.2-1.6,0.5-2.5c0.4-1.5,1-2.9,1.5-4c4.8-9.7,9.6-20.7,14.3-32.9c3.9-11,8.1-20.5,12.1-27.3c0.8-1.4,1.5-2.3,2.2-2.7
		c0.2,0,0.2,0.5,0,1.2c-0.3,1.5-0.8,3.1-1.3,4.5c-3.1,7.9-6.1,15.6-9.2,23.1c-0.1,0.4-0.3,0.8-0.4,1.2c-0.8,3-1.6,6-2.4,9
		L366.7,541.7z M631.8,57.4c-5,12-10.2,21.5-14.8,27.4c-0.2,0.2-0.3,0.1-0.4-0.2c0-0.1,0-0.5,0.1-0.9l2.2-6.1
		c4.2-10.5,8.6-19.6,12.8-27c0.9-1.6,1.7-3,2.6-4.3c0.3-0.4,0.5-0.1,0.5,0.5c0,0.9-0.2,2.1-0.5,3.3
		C633.4,52.8,632.7,55.2,631.8,57.4z M331.6,529c-6.2,18-12.9,33.6-19.5,44.8c-0.7,1.2-1.4,1.7-1.8,1.3c-0.3-0.2-0.2-1.7,0.2-3.3
		l2.3-6.6c7.8-19.6,15.8-37.8,23.7-54.5c0.9-2,1.8-3.8,2.7-5.1c0.1-0.1,0.2-0.1,0.2,0c0,0.1,0,0.3,0,0.6c-0.3,1.3-0.6,2.7-1.1,4
		C336.1,516.5,333.9,522.8,331.6,529z M347.6,479.3l-2.8,7c-1.3,3-2.7,5.4-3.9,6.9c-0.6,0.7-1,0.7-1.2-0.2c-0.2-0.9,0-2.5,0.4-4.3
		l1.2-3.7c11-25.7,22.1-49.9,33.2-72.5c0.9-1.7,1.8-2.8,2.6-3.2c0.3,0,0.3,0.7,0.1,1.7c-0.3,1.6-0.8,3.3-1.4,4.8
		c-3.7,9.9-7.6,17.7-11.1,21.6c-0.8,0.9-1.8,2.4-2.8,4.4l-1.1,3.1C356.6,456.7,352.1,468.2,347.6,479.3z M406.4,329.6
		c-6.6,17.3-13.6,31.3-20,40.4c-0.1,0.2-0.2,0.2-0.3-0.1c0-0.2,0-0.5,0.1-0.8c1.7-4.2,3.4-7.9,5.1-11.2c4.9-9.7,9.8-19.8,14.6-30.2
		c1.4-3.3,2.9-6,4.2-7.7c0.1-0.1,0.1-0.1,0.1,0.1c0,0.1,0,0.3-0.1,0.5c-0.2,0.8-0.4,1.6-0.7,2.3
		C408.5,325.1,407.5,327.4,406.4,329.6z M769.2,559.6c-2.6,4.3-5.2,8.6-7.8,12.9c-3.8,6.7-7.6,13.2-11.4,19.4
		c-0.1,0.1-0.2,0.1-0.2-0.2c0-0.3,0.1-0.7,0.2-0.9c10.4-20.6,20.8-39.4,31-56.5c0.4-0.5,0.6-0.1,0.5,1c-0.1,1.1-0.5,2.6-1,3.6
		C776.8,546.2,773,553.2,769.2,559.6z"/>
	<path class="maincolor" d="M61.4,318.4c11.8-25.1,23.7-48.6,35.6-70.2c16.6-34.4,33.3-66.5,49.8-95.9c21.4-33.8,43.7-75.7,65.8-123.8
		c0.2-0.5,0.5-1,0.7-1.5C128.1,21.7,46.9,13.3,4.6,0.9c-3.6-1.1-5.2-2-4.4,2.5C14.8,87.2,35.8,202.5,61.4,318.4z M125.1,109.2
		c10.5-21.8,20.9-41.1,31.1-57.4c1.1-2.3,2.3-4.4,3.4-6.1c0.5-0.6,0.8-0.6,0.8,0.1c0,0.7-0.2,1.9-0.6,3.1c-1,2.9-2.1,5.7-3.2,8.1
		c-17,36-34.1,69.9-51.1,101.3c-2,4.2-4,8.2-6,12.1l-1,1.5c-0.6,0.5-0.8-0.2-0.5-1.6c0.3-2.1,1.1-4.7,2-7.1c1.4-3.7,2.9-7.1,4.4-10
		c4.8-8.6,9.7-18.2,14.6-28.8C120.9,119.2,123,114.1,125.1,109.2z"/>
	<path class="maincolor" d="M84.2,417c7.2-16.6,14.8-32.6,22.6-47.9c0.9-1.8,1.6-3.9,2.1-5.9c0.2-1,0.2-1.9,0-2.2
		c-0.4-0.5-0.9-0.4-1.5,0.2c-1.1,1.2-2.2,2.9-3.3,4.9c-7.3,14.2-14.6,28.4-21.9,42.7C82.9,411.4,83.6,414.2,84.2,417z"/>
	<path class="maincolor" d="M166,675.7c3.1-6.5,6.3-13.9,9.2-21.9c0.4-1.1,0.6-2.2,0.5-2.7c-0.1-0.7-0.4-0.9-0.9-0.4
		c-1,1.2-2.2,3.1-3.4,5.5c-2.4,4.7-4.8,9.2-7.2,13.3c-0.3,0.5-0.6,0.9-0.9,1.5C164.3,672.6,165.1,674.1,166,675.7z"/>
	<path class="maincolor" d="M128.2,320.5c3.2-6.6,6.2-13.5,9.1-20.6c0.7-1.9,1.3-3.9,1.6-5.8c0.1-0.8,0-1.3-0.4-1.2
		c-2.4,1.4-5.1,5.2-7.2,10.3c-6.8,15.4-13.4,31.1-19.9,47l-2,5.3c-0.2,0.8-0.2,1.6,0,1.8c0.3,0.4,0.8,0.3,1.3-0.2
		c1.1-1.3,2.1-3,3-4.9C118.7,341.9,123.5,331.4,128.2,320.5z"/>
	<path class="maincolor" d="M215.6,27.3c0,0.1-0.1,0.2-0.1,0.2c-2,3.9-4,7.8-6.1,11.7c-12.4,29.3-25.2,55.3-37.7,76.4
		c-4.9,10-9.7,18.3-14.3,24.5c-0.9,0.7-1.9,1.5-2.9,2.3c-0.4,0.4-0.9,0.9-1.4,1.6c-0.3,0.5-0.7,1.1-1.1,1.9
		c-13.8,30.1-27.7,58-41.5,83.4c-9.6,20.5-19.2,37.3-28,49.2c-1,1.5-2.1,3.6-3.2,6c-1.3,3.2-2.6,6.4-3.9,9.4l-2.1,5
		c-1.7,3.4-3.4,6.6-5.2,9.8c-0.3,0.7-0.7,1.5-0.9,2.4c-0.5,1.7-1,3.5-1.3,5.1l-0.5,2.5l-2.5,7.2c4,18.2,8.2,36.3,12.4,54.4
		c0.4-1,0.7-2,1.1-2.9c7.3-13.2,14.6-26.2,22.1-38.8c0.8-1.8,1.7-3.5,2.6-4.9c0.2-0.3,0.4-0.4,0.5-0.2c0.2,0.3,0.4,0.7,0.5,1.3
		c0.1,1.1,0.5,1.9,1,2.2c0.7,0.1,1.6-0.7,2.5-2.1c2.5-4,4.9-8.1,7.4-12.2c0.8-1.5,1.5-3.5,1.9-5.4l0.2-2.9c0.2-2.2,0.5-4.4,0.9-6.6
		c0.1-0.7,0.3-1.3,0.5-2c1.6-4,3.2-7.9,4.9-11.6c7.7-17.8,15.4-35.4,23.2-53c0.1-0.8,0.4-1.7,0.7-2.5c10.9-31.1,22.6-61.5,34.8-91.1
		l5.5-15.1c0,0,0-0.1,0-0.1c2.6-4.7,5.1-9.5,7.5-14.6c2-4.5,4.1-8.7,6.4-12.5l1.2-1.3c0.3-0.1,0.5,0,0.7,0.4c0.1,0.4,0.1,1,0,1.7
		l-2.1,6.6c-14.2,40.3-29.8,79.4-46.4,116.7c0,0.8-0.1,1.5-0.1,2.2c0,0.4,0.1,0.6,0.2,0.7c0.2,0.1,0.4-0.1,0.5-0.3
		c1-1.4,2-3.3,2.8-5.4c1.9-4.9,3.9-9.6,6-13.9c16.6-39.1,34.8-75.3,53.8-107.3c12.3-28.1,25.7-53.6,39.7-75.5
		C242.5,28.9,229,28.2,215.6,27.3z"/>
	<path class="maincolor" d="M261.4,30c-17.3,34.5-34.8,68.4-52.6,101.5c-0.9,1.7-1.6,3.7-2.1,5.7c-3,13.1-7.9,26-13.8,35.8
		c-11.5,21.2-22.6,43.9-33.1,67.7c-4,11.5-8.5,22.6-13.3,33c-0.5,1.2-0.8,2.5-0.9,3.6c-0.1,0.7,0.1,1.1,0.5,1c1-0.7,2-1.9,2.9-3.6
		c8.9-16,17.2-34.1,24.4-53.6c3.2-9.5,7.8-17.5,12.2-21.3c1.1-0.6,2.1-1.3,3.2-1.8l1.2-1.4l3-6.1c4.2-8.9,8.7-17.2,13.3-24.5
		l1.2-1.2c0.4-0.2,0.6,0.2,0.5,1c-0.1,1.1-0.5,2.4-0.9,3.4l-67.5,144.9l-0.9,2.3c-0.2,0.6-0.3,1.2-0.3,1.6c0,0.4,0.2,0.6,0.5,0.6
		l1.2-0.8c3.2-3.9,6.3-8.7,9.2-14.2c7.8-17.3,16.6-32.1,25.5-42.9c1-0.8,1.9-2.3,2.8-4.1c7.4-14.7,15-28.9,22.7-42.4
		c0.9-1.9,2-3.5,3-4.5l0.8-0.2c0.3,0.3,0.4,0.9,0.4,1.6c0,1.1,0.3,1.8,0.8,1.8c0.7-0.1,1.6-1,2.3-2.4c3-5.5,6-11,9-16.5
		c10.3-19.8,20.7-39.5,31.1-59.1c11.7-19.9,22.7-42.9,32.3-67.9c0.8-3,1.8-5.9,2.9-8.7l3.6-5.8c4.4-6.8,8.7-13.8,13.1-21
		C287,31.2,274.3,30.6,261.4,30z"/>
</g>
</svg>
