<?xml version="1.0" encoding="utf-8"?>
<!-- Generator: Adobe Illustrator 27.9.1, SVG Export Plug-In . SVG Version: 6.00 Build 0)  -->
<svg class="v" version="1.1" xmlns="http://www.w3.org/2000/svg" xmlns:xlink="http://www.w3.org/1999/xlink" x="0px" y="0px"
	 viewBox="0 0 1000 749.7" style="enable-background:new 0 0 1000 749.7;" xml:space="preserve">
     $gradientDefs

<path class="maincolor" d="M500,749.7c45.8,0,120.8-1,238.8-21.8c29.8-5.3,50-10.6,65.3-20.4c30.6-19.6,40.3-51.2,55.8-95.9
	C920.8,436.6,972.1,163,999.8,3.4c0.8-4.5-0.9-3.6-4.4-2.5C892.2,31.3,556.4,37.1,500,37.1c-56.4,0-392.2-5.8-495.4-36.3
	c-3.6-1.1-5.2-2-4.4,2.5c27.7,159.6,79,433.2,139.9,608.2c15.6,44.7,25.2,76.3,55.8,95.9c15.4,9.8,35.5,15.2,65.3,20.4
	C379.2,748.7,454.2,749.7,500,749.7z"/>
<text class="textcolor" transform="matrix(1.02 0 0 1 136.1223 543.7337)" textLength="714" lengthAdjust="spacingAndGlyphs" style="font-family:'Square721BT-BoldExtended'; font-size:47.2701px;">
	<tspan x="0" y="0">$textRef</tspan></text>
</svg>
