<?xml version="1.0" encoding="utf-8"?>
<!-- Generator: Adobe Illustrator 27.9.1, SVG Export Plug-In . SVG Version: 6.00 Build 0)  -->
<svg class="v" version="1.1" xmlns="http://www.w3.org/2000/svg" xmlns:xlink="http://www.w3.org/1999/xlink" x="0px" y="0px"
	 viewBox="0 0 1000 749.7" style="enable-background:new 0 0 1000 749.7;" xml:space="preserve">
     $gradientDefs

<path class="maincolor" d="M500,749.7c45.8,0,120.8-1,238.8-21.8c29.8-5.3,50-10.6,65.3-20.4c30.6-19.6,40.3-51.2,55.8-95.9
	C920.8,436.6,972.1,163,999.8,3.4c0.8-4.5-0.9-3.6-4.4-2.5C892.2,31.3,556.4,37.1,500,37.1c-56.4,0-392.2-5.8-495.4-36.3
	c-3.6-1.1-5.2-2-4.4,2.5c27.7,159.6,79,433.2,139.9,608.2c15.6,44.7,25.2,76.3,55.8,95.9c15.4,9.8,35.5,15.2,65.3,20.4
	C379.2,748.7,454.2,749.7,500,749.7z"/>
<g>
	<path class="accentcolor" d="M423.4,601.8c0,0,1.3,17.3,3.2,17.2c1.9-0.1,3.3-14.3,3.6-16.7c0.3-2.4,1.3-11.6,2.3-14.3
		c0.9-2.6,1.7-4.4,4.6-5.5c2.9-1,11.6-3.6,11.6-3.6s4.8-1.2,4.8-2.3c0-1-5.1-2.3-5.1-2.3s-10.9-2.6-12.9-4.5
		c-2-1.9-2.7-2.2-4.1-10.6c-1.3-8.4-2.8-16.7-2.8-23.1c0-6.3,0.1-7.6,0.6-11.4c0.5-3.9,1.5-12.2,2.6-15.5c1-3.3,3.4-4.5,5.6-5.3
		c2.2-0.9,7.9-2.7,7.9-2.7s2.4-0.5,2.4-1.6c0-1.1-2.5-1.6-2.5-1.6s-9.7-3-11.2-4.7c-1.5-1.7-2.7-2.3-3.7-10.7
		c-1-8.4-0.8-377.8-4-377.8c-3.2,0-3.8,377.6-5.2,384.2c-1.4,6.5-6.6,6.9-9.2,7.9c-2.6,0.9-6.6,1.6-6.6,3.1c0,1.5,2.7,1.9,3.6,2.2
		c0.9,0.3,6.2,1.8,8,2.9c1.8,1.1,3.8,2,4.6,6.4c0.9,4.4,2.6,12.8,2.8,20.6c0.2,7.9-0.4,12.3-1.1,18.5c-0.8,6.1-1,11.8-2.9,16.1
		c-1.9,4.3-8.1,6.4-11.9,7.6c-3.8,1.1-5.6,1.9-5.6,2.6c0,0.7,2.8,1.9,5.3,2.6c2.5,0.8,9.8,2.7,11.6,5.7
		C421.5,588.1,422.5,593,423.4,601.8z"/>
	<path class="accentcolor" d="M393.6,483.4c0,6.3,1.5,14.7,2.9,23.1c1.4,8.4,2.1,8.7,4.1,10.6c2,1.9,13.1,4.5,13.1,4.5s5.2,1.2,5.2,2.3
		c0,1-4.9,2.3-4.9,2.3s-8.9,2.6-11.9,3.6c-3,1-3.8,2.8-4.7,5.5c-1,2.7-2,11.9-2.3,14.3c-0.3,2.4-1.7,16.6-3.7,16.7
		c-1.9,0.1-3.3-17.2-3.3-17.2c-0.9-8.8-1.9-13.7-3.8-16.7c-1.8-2.9-9.3-4.9-11.8-5.7c-2.5-0.8-5.4-2-5.4-2.6c0-0.7,1.8-1.4,5.7-2.6
		c3.9-1.1,10.2-3.3,12.1-7.6c1.9-4.3,2.2-9.9,3-16.1c0,0,1.4-7.3,1.2-15.1c-0.2-7.8-1.5-12.6-2-15.6c-0.5-3-1.4-8.7-5.6-10.5
		c-4.2-1.8-10.2-3.6-10.3-4.9c-0.1-1.3,6.6-3.4,6.6-3.4s6.5-1.5,7.7-6.6c1.1-5.1,2.2-378.6,5.7-378.6s2.8,371.6,5.3,379.4
		c1.1,3.4,3.2,4.8,13.4,7.1c2.7,0.9,3.9,1,3.9,1.9c0,0.9-4.3,2.3-10.1,4c-5.9,1.7-7.5,3.1-8.7,11.5
		C393.9,475.3,393.6,478.9,393.6,483.4z"/>
	<path class="accentcolor" d="M352.2,698.1l2.8,20.7c0,0,0.1,3.7,1.6,3.7c1.4,0,1.4-3.1,1.6-4.3c0.1-1.1,3.1-23.3,3.1-23.3
		s4.8-35.4,5.4-38.8c0.6-3.4,1.8-12.9,5.5-17c3.7-4.1,11.6-7.7,23.4-10.2c11.8-2.6,21.9-5.3,21.9-5.3s3.5-0.4,3.5-1.8
		c0-1.4-3.7-1.9-3.7-1.9s-27.7-7-32.5-8.7c-4.8-1.7-15-4.1-17.5-19.6c-2.4-15.5-5.7-44.3-5.7-44.3s-3.4-28.1-2.8-37.8
		c0.6-9.6,2-20.4,2.4-23.1c0.4-2.7,0.9-7,5.6-8.9c4.7-1.9,13.6-4,13.6-4s2.7-0.7,2.7-1.7c0-1-2.6-1.7-2.6-1.7s-10.8-3.1-13.5-4.3
		c-2.7-1.1-5.1-3.4-6.2-11.8c-1-8.4-0.7-377.3-4.6-377.3c-3.9,0-4.8,379.6-4.8,379.6s-0.6,7.8-5.7,9.7c-5.1,2-10.7,4.1-10.7,4.1
		s-2.3,0.4-2.3,1.5c0,1.1,2.7,1.7,2.7,1.7s7.9,2.3,10.4,4.1c2.6,1.8,5.1,4,6.1,13.5c0.9,9.6,2,14.6,2.1,18.4
		c0.1,3.8,0.1,11.6-0.7,17.9c-0.8,6.2-5.7,46.7-5.7,46.7s-1.8,16.2-3.5,21.3c-1.7,5.1-2,12.6-20.1,18.4c-18.1,5.8-19.4,6.1-19.4,6.1
		s-3.3,0.5-3.3,2.1c0,1.6,3.7,2.1,3.7,2.1s20.9,6.4,27.2,9.5c6.2,3,12.1,5.2,15,30.5C350.4,686.4,352.2,698.1,352.2,698.1z"/>
</g>
</svg>
