<svg xmlns="http://www.w3.org/2000/svg" viewBox="0 0 840.19 151.45"><defs><style>.cls-1,.cls-2{fill:#121212;}.cls-2{fill-rule:evenodd;}</style></defs><title>392-Logo</title><g id="Layer_2" data-name="Layer 2"><g id="Layer_1-2" data-name="Layer 1"><path class="cls-1" d="M-21172.16-207.64h-196.27a4.83,4.83,0,0,0-4.45,2.81l-8.46,17.75a2.82,2.82,0,0,0,2.54,4h138.94c5.55,0,13.33,6.15,11,11.17l-2.92,12.2c-3.9,8.38-6.23,12.83-21,13.38h-101.62a4.83,4.83,0,0,0-4.47,2.85l-8.46,18.16a2.82,2.82,0,0,0,2.55,4h104.66a8,8,0,0,1,6.89,11.64l-8.79,14c-4.19,7.63-17.68,12-26.38,12h-136.45a4.81,4.81,0,0,0-4.4,2.71l-10.3,20.48a2.82,2.82,0,0,0,2.52,4.09h190.65c15.68,0,37.25-7.8,45.62-21.06,20.15-31.94,46-96.82,47.3-106.82C-21151.94-195.58-21155.12-207.64-21172.16-207.64Z" transform="translate(21439.85 207.64)"/><path class="cls-1" d="M-20622.3-207.64h-161.19a39.91,39.91,0,0,0-37,23.66l-4.26,9.19a3.62,3.62,0,0,0,3.28,5.13h55.77a6.45,6.45,0,0,0,5.06-2.32l2.9-3.39a17.82,17.82,0,0,1,14-6.43l62.8.11c7.45,0,9.55,12.2,2.53,14.71l-161.1,57.49a42.09,42.09,0,0,0-23.94,20.67l-14.69,27.65a3.31,3.31,0,0,0,2.92,4.87h209.81c2,0,4.56.64,5.38-1.16,1.18-2.58,4.26-9.31,8.43-18.35,1.67-3.62,2.4-7.77-1.59-7.77H-20774c-6.42,0-11.1-10.42-5.11-12.71l139.83-53.42c20.19-7.71,38-18.36,39.59-39.91C-20599-198.76-20606.47-207.64-20622.3-207.64Z" transform="translate(21439.85 207.64)"/><path class="cls-2" d="M-20887.87-207.64h-179.93c-16.31,0-32.37,8.85-39.23,23.66l-19.29,46.44c-3.51,7.6,4.24,16.27,12.6,16.27h135A5.6,5.6,0,0,1-20974-113l-6.51,11.12a36,36,0,0,1-32,18.33h-130.34a5.33,5.33,0,0,0-5,3.17l-8.59,18.55a3.92,3.92,0,0,0,3.55,5.56h188.43A50.15,50.15,0,0,0-20917.88-86l45.4-98.14C-20867.65-194.61-20875.32-207.64-20887.87-207.64Zm-69.71,23.43h-65.83c-6.64,0-14.52,5.38-17.61,12l-6,13c-3.09,6.64-.21,12,6.43,12h70.8c6.63,0,11.85-2.54,14.94-9.18l6.4-14.59C-20945.41-177.59-20950.95-184.21-20957.58-184.21Z" transform="translate(21439.85 207.64)"/></g></g></svg>