<svg xmlns="http://www.w3.org/2000/svg" viewBox="0 0 897 216"><defs><style>.cls-1{fill:#121212;fill-rule:evenodd;}</style></defs><title>6_1L</title><g id="Layer_2" data-name="Layer 2"><g id="Layer_1-2" data-name="Layer 1"><path class="cls-1" d="M-24822.52-6175l-20.79,57.14h-194.29l-10.7,29.39h132q10.69-1.32,29.63,3.46t23.32,11q10.6,14.82,3.77,33.6l-12.11,33.27a47.75,47.75,0,0,1-8.88,15.32q-5.64,6.42-16.32,14a113.92,113.92,0,0,1-24.48,14,67.54,67.54,0,0,1-25.51,4.78h-171.49q-23.49-3.64-35.7-17.58-7.81-9-10.11-17.25t1.8-19.56l38-104.47a68.55,68.55,0,0,1,14.09-23.51q9.1-9.8,25.59-18.61a120.62,120.62,0,0,1,58.57-15Zm-252.11,158.86H-24956l9.38-25.76h-117.73Z" transform="translate(25165 6175.05)"/><polygon class="cls-1" points="386.46 216 301.93 216 320.8 164.15 404.89 164.15 386.46 216"/><polygon class="cls-1" points="442.22 216 493.31 75.63 461.44 75.63 471.78 47.23 572.62 0 608.47 0 529.85 216 442.22 216"/><polygon class="cls-1" points="603.59 216 682.2 0 776.03 0 718.21 158.86 865.14 158.86 844.34 216 603.59 216"/></g></g></svg>