<svg xmlns="http://www.w3.org/2000/svg" viewBox="0 0 1743.56 135.66"><defs><style>.cls-1,.cls-2{fill:#121212;}.cls-2{fill-rule:evenodd;}</style></defs><title>6_2L-HEMI</title><g id="Layer_2" data-name="Layer 2"><g id="Layer_1-2" data-name="Layer 1"><path class="cls-1" d="M-24666-6113.57q-70.25.45-139.89.8c-14.06.06-26.94,7.89-34.44,20.9l-4.65,8.08c-1.21,2.11,0,4.51,2.27,4.5l48-.21a6.32,6.32,0,0,0,4.62-2.06l2.88-3a17.52,17.52,0,0,1,12.82-5.7l54.44-.2c6.48,0,7,10.67.59,12.91q-73,25.62-145.34,51.1a43.39,43.39,0,0,0-22.73,18.2l-15.54,24.29c-1.24,1.94-.16,4.27,2,4.26q89.88-.26,180.8-.68c1.72,0,3.89.55,4.8-1,1.31-2.28,4.72-8.2,9.34-16.17,1.86-3.19,2.95-6.84-.52-6.82q-52.5.27-104.64.49c-5.53,0-8.43-9.11-3-11.14q63.25-23.72,127-47.53c18.46-6.88,35.16-16.34,39-35.29C-24646.62-6105.9-24652.16-6113.66-24666-6113.57Z" transform="translate(25165 6115.1)"/><path class="cls-2" d="M-25152.64-5979.63q75,.18,150.92.19a42.17,42.17,0,0,0,35.75-20.77q10.67-20.37,21.36-40.75c3.8-6.66-1.87-14.26-9-14.24q-57.25.07-114.06.08c-3.4,0-5.18-4.17-3.1-7.22l6.65-9.74c7-10.3,17.36-16.05,28.84-16.05q55,0,110.49-.17a5.31,5.31,0,0,0,4.57-2.8q4.65-8.14,9.32-16.29c1.3-2.28,0-4.87-2.44-4.87q-80.19.21-159.52.23c-17.19,0-32.94,9.73-42.09,26-11.2,20-48.06,85.82-48.06,85.82C-25168.09-5991.09-25163.07-5979.67-25152.64-5979.63ZM-25092-6000c-5.55,0-9.49-5.81-6.22-11.62l6.89-12.77c3.28-5.81,7.93-8,13.49-8q29.73,0,59.58,0c5.61,0,7.47,4.71,4.16,10.53l-6.48,11.39c-3.31,5.82-10.53,10.53-16.12,10.53Q-25064.4-6000-25092-6000Z" transform="translate(25165 6115.1)"/><path class="cls-2" d="M-24903.57-6011.72l-37.68.08c-3.39,0-7.71,2.84-9.66,6.33l-10.92,19.52c-1.95,3.49-.79,6.31,2.59,6.31l37.61-.06c3.39,0,7.73-2.84,9.69-6.34l11-19.53C-24899-6008.9-24900.17-6011.73-24903.57-6011.72Z" transform="translate(25165 6115.1)"/><path class="cls-2" d="M-24555.89-6115.1c-17,35.82-34.18,72.38-51.16,108.18,41.43-.28,82.88.18,124.6-.13q-6.12,13.06-12.23,26.12c-62.15.44-123.83.09-185.32.45,20.93-44.46,42.08-89.88,63.1-134.37C-24596.59-6115-24576.28-6114.95-24555.89-6115.1Z" transform="translate(25165 6115.1)"/><path class="cls-2" d="M-24308.52-6112.19l-55.48,129.83h69.14l26.66-61.72h95.92l-26,61.72h71.26l55.49-129.83h-71.31l-21.49,49.69h-96.4l21.83-49.69Zm271.47,0-55.55,129.83h208.32l11.69-28h-138.71l13.29-31h138.51l8.41-19.8h-138.18l13.14-30.76h138.06l9.22-20.21Zm242.74,0-55.43,129.83h64.58l34.1-76.66,9.4,76.66h49.44l71.93-71.06-29.35,71.06h66.81l55.76-129.83h-93.56l-73.09,80.83-2.32-80.83Zm301.48,0-55.44,129.83h71.4l55.43-129.83Z" transform="translate(25165 6115.1)"/></g></g></svg>