<svg xmlns="http://www.w3.org/2000/svg" viewBox="0 0 1657.24 82.01"><defs><style>.cls-1{fill:#121212;fill-rule:evenodd;}</style></defs><title>6_4L-HEMI</title><g id="Layer_2" data-name="Layer 2"><g id="Layer_1-2" data-name="Layer 1"><path class="cls-1" d="M-19844-8525h179.93c16.31,0,32.38-4.8,39.23-12.82l19.29-25.17c3.52-4.11-4.24-8.81-12.6-8.81h-135c-4,0-6.76-2.58-4.72-4.47l6.52-6c6.89-6.37,18.34-9.93,32-9.93h130.35c2.18,0,4-.64,5-1.72l8.59-10c1.2-1.41-.7-3-3.55-3h-188.44c-20.5,0-37.91,6-46.52,16.11l-45.4,53.18C-19864.25-8532-19856.58-8525-19844-8525Zm69.71-12.69h65.83c6.64,0,14.52-2.92,17.61-6.52l6-7c3.09-3.59.21-6.51-6.43-6.51h-70.8c-6.63,0-11.85,1.38-14.94,5l-6.4,7.91C-19786.49-8541.25-19780.95-8537.66-19774.32-8537.66Z" transform="translate(19860.88 8606.98)"/><path class="cls-1" d="M-19252.74-8533.27l45.34-71.21a5.28,5.28,0,0,1,4.56-2.5h56.91a5.54,5.54,0,0,1,4.55,8.31l-27.84,43.71a5.41,5.41,0,0,0,4.56,8.3h130.12a5.54,5.54,0,0,1,4.56,8.3l-6.94,10.89a5.25,5.25,0,0,1-4.56,2.5h-206.71A5.53,5.53,0,0,1-19252.74-8533.27Z" transform="translate(19860.88 8606.98)"/><path class="cls-1" d="M-19364-8525h64.17a3.52,3.52,0,0,0,3-1.56l51.24-74.81a3.6,3.6,0,0,0-3-5.64h-64.29a3.53,3.53,0,0,0-.72.08L-19503.3-8568a3.43,3.43,0,0,0-2.31,1.59l-8.44,13.23a3.6,3.6,0,0,0,3,5.53h126.46a3.52,3.52,0,0,0,2.88-1.43l8.13-10.8a3.59,3.59,0,0,0-2.87-5.76h-28.8c-3.73,0-4.36-6.41-.71-7.13l70.49-14a3.72,3.72,0,0,1,3.66,5.59l-35.18,50.6A3.6,3.6,0,0,0-19364-8525Z" transform="translate(19860.88 8606.98)"/><path class="cls-1" d="M-19561.67-8525H-19588a3,3,0,0,1-2.38-4.5l10-14.67a2.8,2.8,0,0,1,2.38-1.26h26.22a3,3,0,0,1,2.39,4.48l-9.87,14.68A2.8,2.8,0,0,1-19561.67-8525Z" transform="translate(19860.88 8606.98)"/><path class="cls-1" d="M-18914.39-8607l-50.16,82h62.84l20.29-33.16h68.27l-20.29,33.16h64.82l50.16-82h-64.82l-17.55,28.7h-68.27l17.55-28.7Zm213.32,0-48.44,82h172.75l11.36-18.58h-111.93l9.88-16.15h111.51l10.23-16.72h-111.51l8-13h111.68l10.71-17.51Zm190.9,0-50.16,82h62.67l22.41-35.93,5.23,35.93h43l48.92-34.67-19.41,34.67h59.51l50.16-82h-83.5l-54.59,46.52-.85-46.52Zm241.84,0-50.16,82h64.69l50.16-82Z" transform="translate(19860.88 8606.98)"/></g></g></svg>