<svg xmlns="http://www.w3.org/2000/svg" viewBox="0 0 831.68 82.01"><defs><style>.cls-1{fill:#121212;fill-rule:evenodd;}</style></defs><title>6_4L</title><g id="Layer_2" data-name="Layer 2"><g id="Layer_1-2" data-name="Layer 1"><path class="cls-1" d="M-19866.46-8733.13h179.93c16.31,0,32.38-4.8,39.23-12.82l19.29-25.17c3.52-4.11-4.24-8.81-12.6-8.81h-135c-4,0-6.76-2.58-4.72-4.47l6.52-6c6.89-6.37,18.34-9.93,32-9.93h130.35c2.18,0,4-.64,5-1.72l8.59-10.05c1.2-1.41-.7-3-3.55-3h-188.44c-20.5,0-37.91,6-46.52,16.11l-45.4,53.18C-19886.68-8740.19-19879-8733.13-19866.46-8733.13Zm69.71-12.7h65.83c6.64,0,14.52-2.91,17.61-6.51l6-7c3.09-3.59.21-6.51-6.43-6.51h-70.8c-6.63,0-11.85,1.38-14.94,5l-6.39,7.91C-19808.92-8749.41-19803.38-8745.83-19796.75-8745.83Z" transform="translate(19883.31 8815.14)"/><path class="cls-1" d="M-19275.17-8741.43l45.34-71.21a5.28,5.28,0,0,1,4.56-2.5h56.91a5.53,5.53,0,0,1,4.55,8.3l-27.83,43.72a5.4,5.4,0,0,0,4.55,8.3H-19057a5.54,5.54,0,0,1,4.56,8.3l-6.94,10.89a5.24,5.24,0,0,1-4.55,2.5h-206.72A5.53,5.53,0,0,1-19275.17-8741.43Z" transform="translate(19883.31 8815.14)"/><path class="cls-1" d="M-19386.42-8733.13h64.17a3.5,3.5,0,0,0,3-1.56l51.24-74.81a3.6,3.6,0,0,0-3-5.64h-64.29a3.53,3.53,0,0,0-.72.08l-189.71,38.87a3.45,3.45,0,0,0-2.31,1.59l-8.43,13.23a3.59,3.59,0,0,0,3,5.53H-19407a3.52,3.52,0,0,0,2.88-1.43l8.13-10.8a3.59,3.59,0,0,0-2.87-5.76h-28.8c-3.73,0-4.36-6.41-.7-7.14l70.48-14a3.71,3.71,0,0,1,3.66,5.59l-35.18,50.6A3.6,3.6,0,0,0-19386.42-8733.13Z" transform="translate(19883.31 8815.14)"/><path class="cls-1" d="M-19584.1-8733.13h-26.33a3,3,0,0,1-2.38-4.5l10-14.67a2.8,2.8,0,0,1,2.39-1.26h26.21a3,3,0,0,1,2.39,4.48l-9.87,14.68A2.79,2.79,0,0,1-19584.1-8733.13Z" transform="translate(19883.31 8815.14)"/></g></g></svg>