<svg xmlns="http://www.w3.org/2000/svg" viewBox="0 0 1043.98 352.85"><defs><style>.cls-1,.cls-2{fill:#121212;}.cls-2{fill-rule:evenodd;}</style></defs><title>707HP</title><g id="Layer_2" data-name="Layer 2"><g id="Layer_1-2" data-name="Layer 1"><polygon class="cls-1" points="57.83 1.68 196.49 1.68 188.33 47.28 70.93 351.17 0 351.17 118.88 47.28 49.68 47.28 57.83 1.68"/><path class="cls-2" d="M287.44,61.58l-40,229.69a5.87,5.87,0,0,1-.49,1.9,15.31,15.31,0,0,0-.5,2.94q0,5.46,2.23,7.67t7.91,2.2q6.17,0,9.26-3.15t4.33-11.35l40.53-229.9c.17-.85.33-1.9.5-3.16a40.71,40.71,0,0,0,.49-4.2,6.69,6.69,0,0,0-3-5.57A12.49,12.49,0,0,0,301,46.44q-5.92,0-9.14,3.58T287.44,61.58ZM217,69.77q8.16-46.44,24.72-58.11T309.68,0q45.24,0,59.07,7.88t13.84,28.69a117.12,117.12,0,0,1-1.11,14.18q-1.11,8.73-2.84,19L341.07,283.08q-7.9,46.44-24.47,58.11t-67.72,11.66q-45,0-59.19-7.67t-14.21-28.06a123.14,123.14,0,0,1,1.11-14.6q1.11-8.94,3.09-19.44Z"/><polygon class="cls-2" points="423.13 1.68 561.78 1.68 553.62 47.28 436.23 351.17 365.29 351.17 484.17 47.28 414.97 47.28 423.13 1.68"/><polygon class="cls-2" points="693.26 1.68 761.97 1.68 738.25 135.13 762.47 135.13 785.7 1.68 854.66 1.68 792.87 351.17 724.65 351.17 754.31 181.15 730.09 181.15 700.18 351.17 631.97 351.17 693.26 1.68"/><path class="cls-2" d="M951.79,47.28,928.55,181.57h6.68q10.13,0,14-3.15t6.3-18.07l15.58-91c.32-2.1.74-4.69,1.23-7.77s.74-4.84.74-5.26q0-5.25-3.21-7.14t-12.36-1.9Zm-61-45.6h85.52q40,0,53.87,7.67T1044,37a129.61,129.61,0,0,1-1,14.29q-1,8.61-3,21.43l-14.83,83.43q-8.16,47.3-24.84,59.37T936.71,227.6H920.4L898.65,351.17h-69.2Z"/></g></g></svg>