<svg xmlns="http://www.w3.org/2000/svg" viewBox="0 0 1372.17 180"><defs><style>.cls-1,.cls-2{fill:#121212;}.cls-2{fill-rule:evenodd;}</style></defs><title>CHARGER_with_Hash</title><g id="Layer_2" data-name="Layer 2"><g id="Layer_1-2" data-name="Layer 1"><path class="cls-1" d="M1368.79,0h-64.43c-4,0-10.1,3.27-13.53,7.31L1150.17,172.69c-3.43,4-2.94,7.31,1.09,7.31h64.44c4,0,10.09-3.27,13.53-7.31L1369.88,7.31C1373.32,3.27,1372.83,0,1368.79,0Z"/><path class="cls-1" d="M1091.29,39.66h44.36c12.13-.18,24.74,4.9,29.12,17.3,3.67,10.41,1.25,21.17-4.12,30.87-7.22,13.06-14.33,22.35-29.46,26.52l4.63,4a12.55,12.55,0,0,1-8.22,22h-41.07a15.84,15.84,0,0,1-10.89-4.19q-16.28-14.54-32.37-29.25l-13.51,24.94a16,16,0,0,1-14.23,8.47h-9.9l-27.48,32.32c-3.44,4-2.95,7.31,1.09,7.31h129.12c4,0,10.09-3.27,13.53-7.31L1262.54,7.31c3.44-4,3-7.31-1.09-7.31H1132.33c-4,0-10.09,3.27-13.52,7.31Z"/><path class="cls-1" d="M1059.45,77.09l-4.39,8.1,36.24,0a13,13,0,0,0,7.31-1.74,16,16,0,0,0,4.42-6.28c.11-.29.24-.57.37-.85a18.4,18.4,0,0,0,1-2.8h-42Z"/><path class="cls-1" d="M1050.62,99l32.3,29.2a5.12,5.12,0,0,0,3.55,1.36h41.13a1.75,1.75,0,0,0,1.15-3.07l-16.31-14.15c-2.68-2.32-.82-7.08,2.73-7.08l4.54-.2c17.77-.78,24.36-9.75,31.5-22.51,8.1-14.49,6.58-32.07-15.39-32.13H1022.33a5.14,5.14,0,0,0-4.67,2.78l-39.5,73.42a2,2,0,0,0,1.75,2.92h35.68a5.14,5.14,0,0,0,4.64-2.77l33.22-61.29a5.17,5.17,0,0,1,4.65-2.77h46.33c10.56,0,14,7.08,8.67,18.35-3.89,8.29-8.28,14.9-22.44,14.9h-38.87A1.75,1.75,0,0,0,1050.62,99Z"/><path class="cls-1" d="M180.33,54.3l-4,7.21a5.15,5.15,0,0,1-4.66,2.79H85.47c-22.36,0-39.1,24.36-38.76,39,.18,7.67,5.93,13.26,14.7,13.26h81.13a2.7,2.7,0,0,1,2.32,3.91l-3.55,6.3a5.15,5.15,0,0,1-4.65,2.77l-110.5,0c-29.49,0-34.1-17.6-13.57-47.86C27.62,59.59,41.8,50.4,67.27,50.4H178A2.71,2.71,0,0,1,180.33,54.3Z"/><path class="cls-1" d="M281.44,95.88l-16,29.82a2.65,2.65,0,0,0,2.34,3.9H302a5.15,5.15,0,0,0,4.65-2.77L346,54.31a2.65,2.65,0,0,0-2.32-3.91H309.18a5.15,5.15,0,0,0-4.64,2.76L291.5,77a5.17,5.17,0,0,1-4.65,2.76H229.44a2.71,2.71,0,0,1-2.32-3.92l11.82-21.55a2.65,2.65,0,0,0-2.32-3.92h-34.8a5.18,5.18,0,0,0-4.66,2.77l-39.35,72.52a2.65,2.65,0,0,0,2.33,3.91H195a5.16,5.16,0,0,0,4.65-2.77L217,94.75A5.17,5.17,0,0,1,221.66,92h57.45A2.71,2.71,0,0,1,281.44,95.88Z"/><path class="cls-2" d="M496.75,80.39l-25.33,46.45a5.18,5.18,0,0,1-4.65,2.76H432.86a2.7,2.7,0,0,1-2.32-3.9l7.58-14a2.65,2.65,0,0,0-2.33-3.9H379a5.16,5.16,0,0,0-4.65,2.75l-8.93,16.34a5.16,5.16,0,0,1-4.64,2.75H326.8a2.71,2.71,0,0,1-2.33-3.9S350.05,78.14,353.39,72C366,49,391.57,51,410,50.42h48.84C483.55,50.42,511.88,51.47,496.75,80.39ZM447.92,93.46l7-13.13c2-3.79,7.88-17.54-15.76-17.54H416c-17.75,0-20.38,8.13-22.34,11.76l-9.61,17.8a2.65,2.65,0,0,0,2.34,3.9h56.87A5.15,5.15,0,0,0,447.92,93.46Z"/><path class="cls-2" d="M560.77,99l32.3,29.2a5.12,5.12,0,0,0,3.55,1.36h41.13a1.75,1.75,0,0,0,1.15-3.07l-16.31-14.15c-2.67-2.32-.82-7.08,2.73-7.08l4.54-.2c17.77-.78,24.36-9.75,31.5-22.51,8.11-14.49,6.58-32.07-15.39-32.13H532.48a5.14,5.14,0,0,0-4.67,2.78l-39.5,73.42a2,2,0,0,0,1.75,2.92h35.68a5.16,5.16,0,0,0,4.65-2.77L563.6,65.51a5.17,5.17,0,0,1,4.65-2.77h46.33c10.56,0,14,7.08,8.67,18.35C619.36,89.38,615,96,600.82,96H561.94A1.75,1.75,0,0,0,560.77,99Z"/><path class="cls-2" d="M839.75,54.3l-4,7.21a5.17,5.17,0,0,1-4.67,2.79H748.77c-22.36,0-39.1,24.36-38.76,39,.18,7.67,5.93,13.26,14.7,13.26H765.1a5.16,5.16,0,0,0,4.63-2.72L780.79,94a5.1,5.1,0,0,1,4.56-2.68h34a2.71,2.71,0,0,1,2.33,3.91l-17,31.57a5.15,5.15,0,0,1-4.65,2.77l-110.5,0c-29.49,0-34.1-17.6-13.57-47.86,15-22.15,29.21-31.34,54.68-31.34H837.42A2.71,2.71,0,0,1,839.75,54.3Z"/><path class="cls-2" d="M999.51,54.36l-5.12,9a5.15,5.15,0,0,1-4.6,2.68H896.65A5.16,5.16,0,0,0,892,68.81l-5.22,9.64a2.64,2.64,0,0,0,2.32,3.91h72.33a2.7,2.7,0,0,1,2.32,3.91L959,95a5.18,5.18,0,0,1-4.66,2.77H879.45a5.16,5.16,0,0,0-4.65,2.78l-5,9.18a2.65,2.65,0,0,0,2.33,3.91H963a2.71,2.71,0,0,1,2.33,3.91l-5,9.27a5.16,5.16,0,0,1-4.66,2.77H821.49a2.71,2.71,0,0,1-2.33-3.91l39.29-72.52a5.18,5.18,0,0,1,4.66-2.77h134.1A2.71,2.71,0,0,1,999.51,54.36Z"/></g></g></svg>