<svg xmlns="http://www.w3.org/2000/svg" viewBox="0 0 1743.79 119.5"><defs><style>.cls-1,.cls-2{fill:#121212;}.cls-2{fill-rule:evenodd;}</style></defs><title>CHARGER-Logo</title><g id="Layer_2" data-name="Layer 2"><g id="Layer_1-2" data-name="Layer 1"><path class="cls-1" d="M-15849.56-4835.43l48.75,44.05a7.67,7.67,0,0,0,5.35,2.06h62.06a2.64,2.64,0,0,0,1.73-4.64l-24.6-21.34c-4-3.5-1.24-10.7,4.11-10.69l6.85-.3c26.82-1.18,36.76-14.72,47.53-34,12.23-21.86,9.92-48.39-23.22-48.49h-171.24a7.78,7.78,0,0,0-7,4.2l-59.6,110.77a3,3,0,0,0,2.64,4.42l53.83,0a7.78,7.78,0,0,0,7-4.18l50.11-92.47a7.79,7.79,0,0,1,7-4.18h69.9c15.94,0,21.08,10.68,13.1,27.68-5.88,12.51-12.51,22.49-33.86,22.49h-58.66A2.64,2.64,0,0,0-15849.56-4835.43Z" transform="translate(17434.77 4908.82)"/><path class="cls-1" d="M-17162.68-4902.94l-6,10.88a7.78,7.78,0,0,1-7,4.21h-130c-33.75,0-59,36.75-58.49,58.91.26,11.57,9,20,22.18,20h122.4a4.09,4.09,0,0,1,3.52,5.9l-5.37,9.51a7.78,7.78,0,0,1-7,4.18l-166.72,0c-44.49,0-51.45-26.56-20.47-72.22,22.67-33.42,44.07-47.28,82.5-47.28h167.07A4.08,4.08,0,0,1-17162.68-4902.94Z" transform="translate(17434.77 4908.82)"/><path class="cls-1" d="M-17010.12-4840.2l-24.11,45a4,4,0,0,0,3.52,5.88h51.55a7.8,7.8,0,0,0,7-4.18l59.37-109.43a4,4,0,0,0-3.51-5.89h-52a7.78,7.78,0,0,0-7,4.15l-19.67,36a7.8,7.8,0,0,1-7,4.16h-86.62a4.09,4.09,0,0,1-3.51-5.92l17.84-32.51a4,4,0,0,0-3.5-5.91h-52.52a7.77,7.77,0,0,0-7,4.17l-59.38,109.43a4,4,0,0,0,3.51,5.9h52.54a7.8,7.8,0,0,0,7-4.18l26.25-48.4a7.79,7.79,0,0,1,7-4.18h86.68A4.08,4.08,0,0,1-17010.12-4840.2Z" transform="translate(17434.77 4908.82)"/><path class="cls-2" d="M-16685.25-4863.58l-38.23,70.09a7.8,7.8,0,0,1-7,4.17h-51.16a4.09,4.09,0,0,1-3.51-5.9l11.44-21.17a4,4,0,0,0-3.52-5.89H-16863a7.81,7.81,0,0,0-7,4.16l-13.47,24.64a7.78,7.78,0,0,1-7,4.16h-51.21a4.09,4.09,0,0,1-3.52-5.89s38.59-71.76,43.64-81c19-34.79,57.6-31.7,85.37-32.58h73.69C-16705.17-4908.79-16662.42-4907.21-16685.25-4863.58Zm-73.67,19.72,10.53-19.8c3.07-5.72,11.89-26.47-23.78-26.47h-34.93c-26.77,0-30.75,12.26-33.7,17.74l-14.49,26.86a4,4,0,0,0,3.51,5.89h85.81A7.82,7.82,0,0,0-16758.92-4843.86Z" transform="translate(17434.77 4908.82)"/><path class="cls-2" d="M-16588.66-4835.43l48.74,44.05a7.69,7.69,0,0,0,5.35,2.06h62.07a2.64,2.64,0,0,0,1.73-4.64l-24.61-21.34c-4-3.5-1.23-10.7,4.11-10.69l6.85-.3c26.83-1.18,36.76-14.72,47.53-34,12.24-21.86,9.93-48.39-23.21-48.49h-171.24a7.81,7.81,0,0,0-7,4.2l-59.6,110.77a3,3,0,0,0,2.64,4.42l53.84,0a7.79,7.79,0,0,0,7-4.18l50.11-92.47a7.78,7.78,0,0,1,7-4.18h69.91c15.94,0,21.07,10.68,13.09,27.68-5.87,12.51-12.5,22.49-33.85,22.49h-58.66A2.64,2.64,0,0,0-16588.66-4835.43Z" transform="translate(17434.77 4908.82)"/><path class="cls-2" d="M-16167.72-4902.94l-6,10.88a7.79,7.79,0,0,1-7,4.21H-16305c-33.75,0-59,36.75-58.49,58.91.27,11.57,8.95,20,22.18,20h60.95a7.78,7.78,0,0,0,7-4.1l16.69-30a7.68,7.68,0,0,1,6.88-4h51.27a4.08,4.08,0,0,1,3.51,5.89l-25.72,47.64a7.81,7.81,0,0,1-7,4.18l-166.71,0c-44.5,0-51.45-26.56-20.48-72.22,22.67-33.42,44.08-47.28,82.5-47.28h161.22A4.08,4.08,0,0,1-16167.72-4902.94Z" transform="translate(17434.77 4908.82)"/><path class="cls-2" d="M-15926.67-4902.86l-7.73,13.59a7.78,7.78,0,0,1-6.94,4h-140.52a7.78,7.78,0,0,0-7,4.18l-7.89,14.55a4,4,0,0,0,3.51,5.9h109.13a4.09,4.09,0,0,1,3.51,5.9l-7.15,13.19a7.79,7.79,0,0,1-7,4.18h-113a7.81,7.81,0,0,0-7,4.18l-7.51,13.87a4,4,0,0,0,3.51,5.89h137.15a4.09,4.09,0,0,1,3.51,5.9l-7.58,14a7.77,7.77,0,0,1-7,4.19h-202.5a4.09,4.09,0,0,1-3.51-5.9l59.29-109.42a7.78,7.78,0,0,1,7-4.18h202.34A4.08,4.08,0,0,1-15926.67-4902.86Z" transform="translate(17434.77 4908.82)"/></g></g></svg>