<svg xmlns="http://www.w3.org/2000/svg" viewBox="0 0 1607.15 151.49"><defs><style>.cls-1{fill:#121212;fill-rule:evenodd;}</style></defs><title>Daytona-392</title><g id="Layer_2" data-name="Layer 2"><g id="Layer_1-2" data-name="Layer 1"><path class="cls-1" d="M-7824.61-5118.53l-64.53,101.42q.92,0,2.7.09c1.19.06,2,.09,2.56.09a25.25,25.25,0,0,0,8.8-1.17,10.19,10.19,0,0,0,4.91-4.22l2.46-3.86,53.21-83.64q3.83-6,2.54-7.37c-.86-.9-3.49-1.34-7.89-1.34Zm22.74-23.93q41.53,0,48.31,5.44t-5.87,25.31l-55.84,87.77q-12.93,20.32-26.69,25.63t-54.69,5.31h-61.69l95.09-149.46Z" transform="translate(7958.34 5143.38)"/><path class="cls-1" d="M-7729.16-5046.75h16.36l28.55-57.61Zm-91.08,53.75,127.66-149.46h65.14L-7689.65-4993h-50.76l14.6-29.45h-21.56l-22.86,29.45Z" transform="translate(7958.34 5143.38)"/><polygon class="cls-1" points="295 150.38 332.68 91.16 354.7 0.92 405.37 0.92 381.85 58.53 431.33 0.92 482.47 0.92 389.05 91.16 351.37 150.38 295 150.38"/><polygon class="cls-1" points="416.82 150.38 496.22 25.59 468.66 25.59 484.35 0.92 593.02 0.92 577.33 25.59 549.77 25.59 470.37 150.38 416.82 150.38"/><path class="cls-1" d="M-7316.73-5111.53l-55.62,87.42q-2.68,4.23-2,5.89c.48,1.1,2.14,1.66,5,1.66a16.48,16.48,0,0,0,6.6-1.21,9,9,0,0,0,4.14-3.37l1.89-3,55.62-87.42q2.74-4.32,1.87-5.85t-5.93-1.52a13.61,13.61,0,0,0-5.92,1.21,9.24,9.24,0,0,0-3.91,3.37Zm-53.29-.9q13.28-20.88,26.89-25.92t54.18-5q41.49,0,48.32,5.39t-6,25.56l-56.77,89.22q-13.11,20.61-26.93,26t-54.68,5.35q-41.34,0-48-5.49t6.25-25.82Z" transform="translate(7958.34 5143.38)"/><polygon class="cls-1" points="657.33 150.38 752.42 0.92 802.43 0.92 780.43 77.5 829.15 0.92 875.81 0.92 780.72 150.38 730.54 150.38 750.28 77.14 703.68 150.38 657.33 150.38"/><path class="cls-1" d="M-7070.26-5046.75h16.36l28.55-57.61Zm-91.08,53.75,127.66-149.46h65.14L-7030.75-4993h-50.77l14.61-29.45h-21.56l-22.87,29.45Z" transform="translate(7958.34 5143.38)"/><path class="cls-1" d="M-6723.69-5142.06h-129.2c-1.28,0-2.72,1-3.84,2.76l-11.37,17.45c-1.2,1.84-1,4,.36,4h91.46c3.65,0,6.76,6,3.58,11l-5.9,12c-5.3,8.24-8.29,12.61-18.19,13.15h-66.89c-1.3,0-2.74,1.05-3.87,2.8l-11.5,17.85c-1.19,1.84-1,3.94.37,3.94h68.89c3.77,0,4.19,6.51.74,11.44l-10.37,13.78c-5.25,7.5-15.56,11.82-21.29,11.82h-89.82c-1.26,0-2.66,1-3.78,2.67l-13.47,20.13c-1.23,1.84-1.05,4,.33,4h125.5c10.32,0,27.06-7.66,36.9-20.69,23.7-31.39,61.87-95.16,66-105C-6714.31-5130.21-6712.47-5142.06-6723.69-5142.06Z" transform="translate(7958.34 5143.38)"/><path class="cls-1" d="M-6361.73-5142.06h-106.11c-10.73,0-22.74,8.7-32.09,23.25l-5.8,9c-1.51,2.35-1.25,5,.49,5h36.7a5.77,5.77,0,0,0,4.09-2.28l3-3.33c3.79-4.17,7.65-6.32,11.33-6.32l41.31.11c4.9,0,2.3,12-3.14,14.45l-124.82,56.51c-8.3,3.75-15.71,10.44-22.5,20.32l-18.71,27.17c-1.49,2.17-1.3,4.78.34,4.78h138.11c1.31,0,2.79.64,3.92-1.13,1.62-2.54,5.84-9.15,11.54-18,2.29-3.56,4.12-7.64,1.49-7.64h-79.54c-4.22,0-3.9-10.24.79-12.49l109.49-52.5c15.81-7.58,31-18.05,39.09-39.22C-6349.3-5133.33-6351.3-5142.06-6361.73-5142.06Z" transform="translate(7958.34 5143.38)"/><path class="cls-1" d="M-6536.54-5142.06H-6655c-10.74,0-24.2,8.7-33.54,23.25l-27.87,45.64c-4.79,7.47-2.52,16,3,16h88.86c2.66,0,2.9,4.67.42,8.1l-7.92,10.93c-8.37,11.56-18.06,18-27,18h-85.8c-1.44,0-3.05,1.16-4.3,3.11l-11.72,18.24c-1.63,2.55-1.36,5.46.53,5.46h124c13.49,0,28.59-10.94,40.33-29.23l61.93-96.45C-6527.49-5129.26-6528.28-5142.06-6536.54-5142.06Zm-53.54,23h-43.34c-4.37,0-11.31,5.28-15.51,11.8l-8.22,12.77c-4.2,6.53-4.06,11.81.31,11.81h46.6c4.37,0,8.64-2.49,12.83-9l9-14.34C-6584.23-5112.53-6585.72-5119-6590.08-5119Z" transform="translate(7958.34 5143.38)"/></g></g></svg>