<svg xmlns="http://www.w3.org/2000/svg" viewBox="0 0 1785.43 212.71"><defs><style>.cls-1,.cls-2{fill:#121212;}.cls-2{fill-rule:evenodd;}</style></defs><title>Daytona-RT</title><g id="Layer_2" data-name="Layer 2"><g id="Layer_1-2" data-name="Layer 1"><path class="cls-1" d="M-6143.55-4769.84H-6453c-2.3,0-3,.75-4.76,2.28l-6,6.18c-2.1,1.93-.69,4.63,2.16,4.63h107.79c2.2,0,3.33,1.32,1.65,2.74l-64,64.61a3.08,3.08,0,0,0,1.9,5.43h106.52a7.49,7.49,0,0,0,5.26-1.86l66.94-69.09a7.27,7.27,0,0,1,4.91-1.82h77.26a7.12,7.12,0,0,0,5.16-2.09l6.42-7.53C-6140.06-4768-6141.22-4769.84-6143.55-4769.84Z" transform="translate(7926.37 4888.71)"/><path class="cls-1" d="M-6792.77-4880.21l280.76.34c26.06,0,30.24,1,33.61,5.86s3.42,10.64-8.39,22.33c-14.25,14.11-20.1,15.35-43,16.54l-28.49,1.62c-4,.21-4.53,4.25-.84,6.75l39.74,29.44c2.59,1.75,2.05,5.54-.79,5.54h-123l-42.88-32.35c-1.85-1.45-2.33-3.82-1-5.15l2-2.73c2.75-2.84,5.36-2.11,9.91-2.19l53.05-1.29c5.54-.1,9.79-2,12.8-5.74l16.23-17.55c2.51-3.12-.41-7.11-5.05-7.11h-97.09a8,8,0,0,0-6.14,2.42l-65.37,67.74a8,8,0,0,1-6.24,2.43l-103.5-1.07c-3.6,0-4.05-1.77-2.12-3.8l78.95-79.32A9,9,0,0,1-6792.77-4880.21Z" transform="translate(7926.37 4888.71)"/><path class="cls-1" d="M-6266.77-4888.71h-38.44a27.23,27.23,0,0,0-10.72,2.75l-391.33,207.2c-2.87,1.52-2.73,2.76.31,2.76h38.45a27.29,27.29,0,0,0,10.72-2.76l391.32-207.2C-6263.58-4887.48-6263.72-4888.71-6266.77-4888.71Z" transform="translate(7926.37 4888.71)"/><path class="cls-2" d="M-7792.64-4833.25l-64.53,101.42c.62,0,1.52,0,2.71.09s2,.09,2.55.09a25.31,25.31,0,0,0,8.81-1.17,10.19,10.19,0,0,0,4.91-4.22l2.46-3.86,53.21-83.64q3.83-6,2.54-7.37c-.86-.89-3.5-1.34-7.9-1.34Zm22.75-23.93q41.54,0,48.31,5.44t-5.88,25.31l-55.84,87.78q-12.93,20.31-26.69,25.62t-54.68,5.31h-61.7l95.09-149.46Z" transform="translate(7926.37 4888.71)"/><path class="cls-2" d="M-7697.18-4761.47h16.36l28.55-57.6Zm-91.08,53.75,127.66-149.46h65.14l-62.21,149.46h-50.77l14.61-29.45h-21.56l-22.87,29.45Z" transform="translate(7926.37 4888.71)"/><polygon class="cls-2" points="295 180.99 332.68 121.77 354.7 31.53 405.37 31.53 381.85 89.14 431.33 31.53 482.47 31.53 389.05 121.77 351.37 180.99 295 180.99"/><polygon class="cls-2" points="416.82 180.99 496.22 56.2 468.66 56.2 484.35 31.53 593.02 31.53 577.33 56.2 549.77 56.2 470.37 180.99 416.82 180.99"/><path class="cls-2" d="M-7284.75-4826.25l-55.62,87.42c-1.8,2.82-2.45,4.78-2,5.89s2.14,1.66,5,1.66a16.39,16.39,0,0,0,6.61-1.21,9.07,9.07,0,0,0,4.14-3.37l1.88-3,55.62-87.42q2.74-4.32,1.88-5.84t-5.94-1.53a13.53,13.53,0,0,0-5.91,1.21A9.18,9.18,0,0,0-7283-4829Zm-53.3-.9q13.29-20.88,26.9-25.91t54.18-5q41.49,0,48.31,5.4t-6,25.55l-56.76,89.22q-13.11,20.61-26.93,26t-54.69,5.35q-41.32,0-48-5.48t6.25-25.83Z" transform="translate(7926.37 4888.71)"/><polygon class="cls-2" points="657.33 180.99 752.42 31.53 802.43 31.53 780.43 108.11 829.15 31.53 875.81 31.53 780.72 180.99 730.54 180.99 750.28 107.75 703.68 180.99 657.33 180.99"/><path class="cls-2" d="M-7038.29-4761.47h16.37l28.54-57.6Zm-91.07,53.75,127.65-149.46h65.15l-62.21,149.46h-50.77l14.61-29.45h-21.56l-22.87,29.45Z" transform="translate(7926.37 4888.71)"/></g></g></svg>