<svg xmlns="http://www.w3.org/2000/svg" viewBox="0 0 3219.33 492.71"><defs><style>.cls-1{fill:#121212;fill-rule:evenodd;}</style></defs><title>Daytona</title><g id="Layer_2" data-name="Layer 2"><g id="Layer_1-2" data-name="Layer 1"><path class="cls-1" d="M-8185.76-6075.89-8395.63-5746q3,0,8.8.29c3.87.2,6.64.29,8.3.29q19,0,28.63-3.8t16-13.73l8-12.56,173.07-272q12.45-19.59,8.26-24t-25.67-4.38Zm74-77.83q135.1,0,157.12,17.7t-19.1,82.34l-181.62,285.48q-42.06,66.09-86.81,83.35T-8420-5667.59h-200.66l309.28-486.13Z" transform="translate(8620.71 6156.71)"/><path class="cls-1" d="M-7875.29-5842.4h53.22l92.84-187.37Zm-296.23,174.81,415.2-486.13h211.88l-202.34,486.13H-7911.9l47.51-95.79h-70.12l-74.38,95.79Z" transform="translate(8620.71 6156.71)"/><polygon class="cls-1" points="959.49 489.12 1082.04 296.49 1153.66 2.99 1318.45 2.99 1241.97 190.37 1402.91 2.99 1569.24 2.99 1265.38 296.49 1142.83 489.12 959.49 489.12"/><polygon class="cls-1" points="1355.71 489.12 1613.95 83.22 1524.31 83.22 1575.35 2.99 1928.79 2.99 1877.75 83.22 1788.12 83.22 1529.88 489.12 1355.71 489.12"/><path class="cls-1" d="M-6533.87-6053.12l-180.91,284.35q-8.73,13.74-6.43,19.14t16.28,5.41q12.48,0,21.48-3.94t13.46-11l6.14-9.65,180.91-284.35q8.93-14,6.09-19t-19.3-5a44.16,44.16,0,0,0-19.24,3.95,29.88,29.88,0,0,0-12.71,11ZM-6707.2-6056q43.19-67.87,87.47-84.27t176.22-16.39q135,0,157.14,17.56t-19.52,83.1l-184.62,290.2q-42.64,67-87.58,84.44T-6756-5664q-134.43,0-156.19-17.85t20.33-84Z" transform="translate(8620.71 6156.71)"/><polygon class="cls-1" points="2137.97 489.12 2447.24 2.99 2609.91 2.99 2538.34 252.05 2696.79 2.99 2848.55 2.99 2539.28 489.12 2376.09 489.12 2440.28 250.88 2288.71 489.12 2137.97 489.12"/><path class="cls-1" d="M-5732.24-5842.4H-5679l92.85-187.37Zm-296.23,174.81,415.21-486.13h211.88l-202.34,486.13h-165.12l47.51-95.79h-70.13l-74.37,95.79Z" transform="translate(8620.71 6156.71)"/></g></g></svg>