<svg xmlns="http://www.w3.org/2000/svg" viewBox="0 0 1089.17 1405.63"><defs><style>.cls-1{fill-rule:evenodd;}</style></defs><title>Demon-Face</title><g id="Layer_2" data-name="Layer 2"><g id="Layer_1-2" data-name="Layer 1"><path class="cls-1" d="M1213.21-12914.56a78.14,78.14,0,0,0,25.53.54,127.23,127.23,0,0,0,88.5-44,178,178,0,0,0,35.08-85.62q3.47-24.79,5.94-49.7a136.78,136.78,0,0,1,15.94-31.5,802.9,802.9,0,0,0,52.76-97.68q2-5,3.62-10a3.59,3.59,0,0,0,.18-1.72.68.68,0,0,0-.59-.61l-.41.14a9.53,9.53,0,0,0-1.73,1.91,160.53,160.53,0,0,1-43.11,38.44,16.57,16.57,0,0,1-20.81-2,38.67,38.67,0,0,1-4.53-9.57,29,29,0,0,0-9.18-10.18c-1.55-1.44-3.16-2.82-4.83-4.12a2.2,2.2,0,0,0-1.56-.47,1.36,1.36,0,0,0-1,.85,14.63,14.63,0,0,0-.85,3.57q-10.23,53-24.05,105.14a88.66,88.66,0,0,1-18.85,35.44,85.82,85.82,0,0,1-37.49,14.55,578.6,578.6,0,0,1-136.71,4.08,195.66,195.66,0,0,1-57.08-12.3,40.47,40.47,0,0,1-21.93-23.75,354,354,0,0,1-19.31-67.72q-6.45-29.56-12.6-59.19a1.49,1.49,0,0,0-.49-.62,1,1,0,0,0-.62-.19,3.12,3.12,0,0,0-1.68.63,168.26,168.26,0,0,0-21.63,19.35,25.54,25.54,0,0,1-33-1.07,142.9,142.9,0,0,1-28.69-31.67l-1-1.12a.64.64,0,0,0-.38-.12.35.35,0,0,0-.27.14,1.59,1.59,0,0,0-.17,1.15q1.53,4.86,3.43,9.6a725.66,725.66,0,0,0,50.71,94.73,247.61,247.61,0,0,1,17.8,33q3.22,21.7,5.35,43.55a194.26,194.26,0,0,0,30.63,87.19,125.64,125.64,0,0,0,93.91,51.48,98.57,98.57,0,0,0,24,0,250.8,250.8,0,0,1,25.54-6.93,108.49,108.49,0,0,1,22.53,5.55q1.52.48,3,.93Zm-15-150.26a382.38,382.38,0,0,0,82.69-8.39,53.63,53.63,0,0,0,23.5-11.35,104.08,104.08,0,0,0,16.08-34.28,469.83,469.83,0,0,0,12.46-50.16,1.26,1.26,0,0,0-.43-1.11.88.88,0,0,0-1,0,17.47,17.47,0,0,0-2.6,2.18,278.15,278.15,0,0,1-23.09,16.71,3.76,3.76,0,0,0-1.42,2.66,87.84,87.84,0,0,1-32.59,64l-1.34.73a.79.79,0,0,1-.77-.69,4.27,4.27,0,0,1,.15-1.81,61.81,61.81,0,0,0,3.41-31.09,52.54,52.54,0,0,0-3.41-10.11,4,4,0,0,0-1.22-1.5,2,2,0,0,0-1.49-.27,11.55,11.55,0,0,0-3.07,1.41,205.38,205.38,0,0,1-61.4,13,179.27,179.27,0,0,1-46.55-2,146.53,146.53,0,0,1-45.79-12.34,1.69,1.69,0,0,0-2,.32,7.59,7.59,0,0,0-1.61,2.88,46.84,46.84,0,0,0-.38,35.78,46.14,46.14,0,0,1,1.16,5,1.7,1.7,0,0,1-.31,1.07.72.72,0,0,1-.65.3l-.7-.34a88.37,88.37,0,0,1-33.15-65.24,2.73,2.73,0,0,0-1.24-1.91,229.5,229.5,0,0,1-25.13-18.24l-1.29-.7a.73.73,0,0,0-.75.58,3.9,3.9,0,0,0,0,1.7,360.4,360.4,0,0,0,21.74,73.17,35.11,35.11,0,0,0,25.47,20.25,328.27,328.27,0,0,0,82.63,9.74q12,.12,24,.06Zm-70.67-67.86a214.31,214.31,0,0,0,109.72,3.2,66.06,66.06,0,0,0,28.52-11.24c.84-.77,1.64-1.57,2.42-2.4a1.92,1.92,0,0,1,2.09-.54,7.6,7.6,0,0,1,2.39,2.43,56.41,56.41,0,0,1,10.54,24.41l.5,1.48a.55.55,0,0,0,.43.24.81.81,0,0,0,.56-.19,3.19,3.19,0,0,0,1-1.47,235.52,235.52,0,0,0,8.86-37.23,6.13,6.13,0,0,1,3.37-3.92,164.47,164.47,0,0,0,37.75-30.08,6.93,6.93,0,0,0,1.39-3q3.84-17.48,6.22-35.23a1.84,1.84,0,0,0-.43-1.33.64.64,0,0,0-.49-.22,1,1,0,0,0-.63.25q-24.18,30.27-50.5,58.73a64.41,64.41,0,0,1-37.39,15,584.7,584.7,0,0,1-109.72,2.46A169.7,169.7,0,0,1,1099-13160a78.26,78.26,0,0,1-25.52-22q-18-21.44-35.84-43.07a20.36,20.36,0,0,0-2.44-2.56,1.13,1.13,0,0,0-.67-.21.51.51,0,0,0-.4.23,2.28,2.28,0,0,0-.31,1.4q2.74,18.42,6.66,36.63a8.76,8.76,0,0,0,2.2,2.92,177.4,177.4,0,0,0,38,29.57,5,5,0,0,1,1.74,2.1l.33,1.53a222.62,222.62,0,0,0,8,34.46,12.92,12.92,0,0,0,1.72,3.78.46.46,0,0,0,.27.13.42.42,0,0,0,.28-.1,2.41,2.41,0,0,0,.7-1.15,58,58,0,0,1,12.36-26.85,1.82,1.82,0,0,1,1.29-.7,1.82,1.82,0,0,1,1.41.47q1.79,1.8,3.71,3.46a44.13,44.13,0,0,0,15,7.25Zm73.67-27a275.82,275.82,0,0,0,67.69-7.18,43.74,43.74,0,0,0,23-16.29q27.08-32.11,54.3-64.1a2.13,2.13,0,0,0,.35-.87,1.34,1.34,0,0,0-.07-.74,12.18,12.18,0,0,0-3.15-3.7q-14.46-14.43-29.11-28.68a50.23,50.23,0,0,0-5.38-4.93,1.16,1.16,0,0,0-.68-.16.43.43,0,0,0-.35.23,2.1,2.1,0,0,0-.11,1.42,22.7,22.7,0,0,1-8.79,23.06,84,84,0,0,1-24.1,18.68,55.36,55.36,0,0,0-25.57,9.72,63.91,63.91,0,0,0-7.89,19.72,38.51,38.51,0,0,1-34.09,33.31,85.59,85.59,0,0,1-52.66-5.46,34.78,34.78,0,0,1-18.28-26.41,80.65,80.65,0,0,0-7.78-20.76A33.87,33.87,0,0,0,1111-13241a37.16,37.16,0,0,1-24.16-12.64,93.71,93.71,0,0,1-15.69-16.94,20.67,20.67,0,0,1-1.77-13.15l.06-1.75a.75.75,0,0,0-.47-.52,1,1,0,0,0-.8.08,17.83,17.83,0,0,0-2.55,2.28q-17.4,16.65-34.31,33.8a2.51,2.51,0,0,0-.32,2.54l.9,1.1,55.67,65.51a46.27,46.27,0,0,0,31,16.41,438.53,438.53,0,0,0,82.63,4.59Zm21.33-55.38q-7.6-46.32-11.51-93.14a780.25,780.25,0,0,1,20.55-176.35,2.92,2.92,0,0,1,.79-1.45.76.76,0,0,1,.55-.21.8.8,0,0,1,.57.24q3.38,4.75,6.78,9.49a73.83,73.83,0,0,0,31.6,24.67,53,53,0,0,0,31.58-9.92,730.91,730.91,0,0,0,61.54-46,239.48,239.48,0,0,1,75.25-43.24,101.49,101.49,0,0,1,29.78-4.34,14.89,14.89,0,0,1,3.13.21,1.09,1.09,0,0,1,.7.59.5.5,0,0,1-.15.6,16.36,16.36,0,0,1-3.72,1.61q-21,7.29-41.44,16.07a3.72,3.72,0,0,0-2,3,198.44,198.44,0,0,1-24.86,77.77,66,66,0,0,1-80.29,29,59.36,59.36,0,0,1-23.3-19,3,3,0,0,0-2.2-1.23,10.11,10.11,0,0,0-3.21,1.06,67.31,67.31,0,0,1-22.36,4.27,7.49,7.49,0,0,0-3,1.3,40.28,40.28,0,0,0-20.13,23.63,191.91,191.91,0,0,0,9.06,82.65,28.15,28.15,0,0,0,18.64,15.84,120.75,120.75,0,0,1,39,25.12,103.54,103.54,0,0,0,64.62,22.65,126,126,0,0,0,61.7-13.29,53.86,53.86,0,0,0,25.17-38.24,81.36,81.36,0,0,1,3.91-12.17,7,7,0,0,1,2.51-2.49,318.35,318.35,0,0,0,40.55-29.87,137.19,137.19,0,0,0,28.29-51.7,176,176,0,0,0,13.76-90.24,840.56,840.56,0,0,0-26.27-141.23q-5.69-22.84-11.05-45.78a3.51,3.51,0,0,0-2.17-2.15q-25.17-5.93-50.74-9.74a94.74,94.74,0,0,1-82.63-53.43,269.31,269.31,0,0,0-18.9-32.94,17.93,17.93,0,0,0-6.57-5.69,3.06,3.06,0,0,0-2.48.13,176.82,176.82,0,0,1-101.3,19.34,245,245,0,0,1-45.69-8.18,3.3,3.3,0,0,1-1.24-.76.44.44,0,0,1-.06-.49,1,1,0,0,1,.57-.47,505.24,505.24,0,0,0,127.49-37.25,113.84,113.84,0,0,0,43.14-33,93.44,93.44,0,0,0-3.36-96.18,223.56,223.56,0,0,0-50.17-55.71c-26.33-6.71-141.44-24.57-267.62,4.9a295.48,295.48,0,0,0-79.84,31,1.88,1.88,0,0,0-.78,1.07.93.93,0,0,0,.09.52,1.9,1.9,0,0,0,.49.6c1.15.74,2.33,1.43,3.55,2.06a44.66,44.66,0,0,1,17.24,27.6,261.93,261.93,0,0,1,4.38,73.65q-1.08,17.23-3.17,34.37l-.45,2.28a.32.32,0,0,1-.31.19.6.6,0,0,1-.43-.25,3,3,0,0,1-.56-1.52,623.5,623.5,0,0,0-7.15-69.65,268.69,268.69,0,0,1-11.11-31.46,10.92,10.92,0,0,0-3-4.42,3,3,0,0,0-3.57-.06,28.89,28.89,0,0,0-7.49,8.93,52.86,52.86,0,0,0-5,45,201.64,201.64,0,0,1,10.8,54.16,184.32,184.32,0,0,1-15.16,78.1,103.83,103.83,0,0,1-50.24,45.32,50.36,50.36,0,0,0-24.34,37.36,169.16,169.16,0,0,0,6.38,73.65,242.93,242.93,0,0,0,8.48,24.74,12.58,12.58,0,0,0,6.49,4.61q34,15.27,67.61,31.35a587.8,587.8,0,0,1,76.92,55.85A168.37,168.37,0,0,0,1093-13453a48.37,48.37,0,0,0,37.56-7.57,189.77,189.77,0,0,0,17.22-13.6,1.25,1.25,0,0,1,1-.11,1.85,1.85,0,0,1,1,.81l.34.88a610.6,610.6,0,0,1,15.88,163.45,2.5,2.5,0,0,1-.55,1.38.66.66,0,0,1-.47.23,1,1,0,0,1-.63-.21,5.74,5.74,0,0,1-1.7-2.39,616.72,616.72,0,0,1-32-101.88,33.06,33.06,0,0,0-16.67-25.43,21.28,21.28,0,0,0-15.08-4.58,76.69,76.69,0,0,1-17.11-4.58,2.15,2.15,0,0,0-2.13.44,18.58,18.58,0,0,0-2.27,2.73,56.58,56.58,0,0,1-64.15,18.12,155.94,155.94,0,0,0-84.08-6.9,38.85,38.85,0,0,0-27.11,18.76,22.51,22.51,0,0,0-.15,19.62,240.17,240.17,0,0,1,4.94,43.51,62.54,62.54,0,0,0,4.17,25.57,61.23,61.23,0,0,0,19.74,37,98,98,0,0,0,49.57,16.83,117.8,117.8,0,0,0,73.62-14.94q13.74-10.18,27-21a201.65,201.65,0,0,1,23.69-12.12l1.63-.32a.7.7,0,0,1,.53.48,1.19,1.19,0,0,1-.1.92,60.69,60.69,0,0,0-11.34,41.35,14.36,14.36,0,0,0,5.28,7.15,40.17,40.17,0,0,0,17.88,8.81,40,40,0,0,1,15.08,15.49,190.82,190.82,0,0,1,13.07,31.58,48.9,48.9,0,0,0,45.52,27.33,54,54,0,0,0,30.75-15.87,5.17,5.17,0,0,0,.82-4.53q-.68-4.22-1.26-8.45Zm-165.66-246.08q-19-14.72-39-28.07a145.86,145.86,0,0,0-31.1-13.6,3.17,3.17,0,0,0-1.7,0,1.11,1.11,0,0,0-.67,1,5,5,0,0,0,.38,1.83,175.83,175.83,0,0,0,28.84,54.8,38.39,38.39,0,0,0,50.87-.77,39.39,39.39,0,0,0,4.34-4.23l.73-.76a1.36,1.36,0,0,0-.12-1.9,33.67,33.67,0,0,0-3.67-2.36q-4.5-2.86-8.86-5.92Zm324-10.8a172.42,172.42,0,0,0,11.85-29.2,1.44,1.44,0,0,0-.82-1.7,3.24,3.24,0,0,0-1.72.08,162.9,162.9,0,0,0-58.24,33.25,285.91,285.91,0,0,1-23.76,16.36,1.36,1.36,0,0,0-.66,1,2.31,2.31,0,0,0,.49,1.43,39.08,39.08,0,0,0,52.48,8.28,90.2,90.2,0,0,0,18-25c.82-1.48,1.62-3,2.38-4.47Zm251.56-52.91a484.15,484.15,0,0,0,44.44-46.26,171.18,171.18,0,0,0,24.09-67.69,935.51,935.51,0,0,0,8.66-115.72q.38-13,.38-26.1a2,2,0,0,0-.45-1.15.44.44,0,0,0-.31-.13.57.57,0,0,0-.36.14,5.62,5.62,0,0,0-.81,1.18,892.55,892.55,0,0,1-127.77,154.87,4.9,4.9,0,0,0-1,3.83,743.73,743.73,0,0,1,2.09,106.28q-.61,14.93-.71,29.88a11.75,11.75,0,0,0,.24,3.13,1.42,1.42,0,0,0,.71.83.92.92,0,0,0,.87,0q1.8-1.32,3.49-2.78,24.09-19.14,46.49-40.29Zm-835.51-38.89a346.73,346.73,0,0,1,1-59.15,4.33,4.33,0,0,0-1.07-2.93,907.39,907.39,0,0,1-127.68-154.89l-.94-1.19a.65.65,0,0,0-.4-.14.41.41,0,0,0-.31.16,2.38,2.38,0,0,0-.38,1.24A621.21,621.21,0,0,0,685-13638.81a166.88,166.88,0,0,0,35.37,69.12,307.06,307.06,0,0,0,70.61,55.82q3.39,2.24,6.72,4.55a1.48,1.48,0,0,0,.74.19.89.89,0,0,0,.56-.2,1.47,1.47,0,0,0,.55-1.2q-.46-26.65-2.63-53.23Zm754.49-208.83a403.36,403.36,0,0,0,80.37-169.82,337.51,337.51,0,0,0-15.61-166.81,616.52,616.52,0,0,0-64.39-121.72,158.92,158.92,0,0,0-14.65-17.89l-1.43-1a.67.67,0,0,0-.52,0,.55.55,0,0,0-.32.36,3,3,0,0,0,0,1.55,863.32,863.32,0,0,1,4.43,173.38,263.53,263.53,0,0,1-22.09,88.69,76.37,76.37,0,0,1-40.95,40.24,66.08,66.08,0,0,1-11,2.46,3.48,3.48,0,0,0-3,2.74,879.13,879.13,0,0,0-26.67,98.82,153.56,153.56,0,0,0,10.66,76.6,58.07,58.07,0,0,0,36.07,29.85,132.17,132.17,0,0,0,18,5,6.54,6.54,0,0,0,4.45-1.35,180.54,180.54,0,0,0,46.69-41Zm-621.41-12a97.16,97.16,0,0,0,12.22-63.13,452.72,452.72,0,0,0-13.4-79.67A40.46,40.46,0,0,1,931-13939a4.09,4.09,0,0,0,.18-1.7,1.23,1.23,0,0,0-.72-.88,15.66,15.66,0,0,0-2.92-.9,93.5,93.5,0,0,0-17.92-1.22,63.12,63.12,0,0,1-42.58-30.27,196.64,196.64,0,0,1-25.52-73.66,667.74,667.74,0,0,1-3.36-153.28q1.54-23.64,4.3-47.19a2.15,2.15,0,0,0-.29-1.42.59.59,0,0,0-.42-.26,1.22,1.22,0,0,0-.7.15,43,43,0,0,0-6.49,6.66,456.76,456.76,0,0,0-69.75,118.78A330.69,330.69,0,0,0,742.06-13980a296.1,296.1,0,0,0,42.14,144.28,786.85,786.85,0,0,0,49.13,74.79,6.84,6.84,0,0,0,2.74,1.63q28.75,9.58,57.69,18.58a3.35,3.35,0,0,0,2.84-.54,71.28,71.28,0,0,0,24.71-28.38q4.56-7.35,8.64-15Zm281.75,914.65a171.79,171.79,0,0,0,96.19-41.4,428.8,428.8,0,0,0,94.36-115.87A831.54,831.54,0,0,0,1474-13185a834,834,0,0,1,12.3-97.73,173.73,173.73,0,0,1,18.32-54,101.19,101.19,0,0,1,22.56-21.45,129,129,0,0,0,30.32-47.73,203.64,203.64,0,0,0,13.77-52.71,6.83,6.83,0,0,1,2.58-4.41A720.75,720.75,0,0,0,1682-13562.2a203.12,203.12,0,0,0,26.32-66.14,1038.16,1038.16,0,0,0,22.3-175.79q2.05-40.08,2.76-80.2l-.17-1.18a.34.34,0,0,0-.29-.17.73.73,0,0,0-.47.19,23.41,23.41,0,0,0-3.85,6.2,699.88,699.88,0,0,1-93.57,129.2q-27.74,31.7-57.56,61.47a15.53,15.53,0,0,1-2.74,2.31,1,1,0,0,1-.9,0,1.18,1.18,0,0,1-.66-.72,41,41,0,0,1-.63-6.05q-1.46-21.74-2.77-43.48a6.37,6.37,0,0,1,1.38-3.06,488,488,0,0,0,78.88-166.81,344.77,344.77,0,0,0,1.45-157.77,406,406,0,0,0-127.91-210.65,1.3,1.3,0,0,0-.66-.19.6.6,0,0,0-.44.19,1.69,1.69,0,0,0-.38,1.24,991.14,991.14,0,0,1,9.05,179.4,293.64,293.64,0,0,1-19.65,97.73,80.27,80.27,0,0,1-32.26,39,35.62,35.62,0,0,1-15.71,4.36,4.49,4.49,0,0,1-3.28-2.12,160.52,160.52,0,0,0-72.79-56,487.26,487.26,0,0,0-138.16-32.19,598,598,0,0,0-166.86,6.84,376,376,0,0,0-115.71,37.16,140,140,0,0,0-50.57,45.34,3.31,3.31,0,0,1-2.44,1,49.71,49.71,0,0,1-36.92-23.58,178,178,0,0,1-25.69-70.92,649.1,649.1,0,0,1-3.82-147.22q2.75-39.43,7.63-78.7a1.4,1.4,0,0,0-.47-1.17.62.62,0,0,0-.47-.17,1.26,1.26,0,0,0-.67.23,408.87,408.87,0,0,0-127.69,210.6,362.27,362.27,0,0,0,24.79,226.86A553.5,553.5,0,0,0,807-13738a4.85,4.85,0,0,1,.5,3q-1.68,23.59-3.26,47.18a2,2,0,0,1-.73,1.35,1.07,1.07,0,0,1-.68.26,1.2,1.2,0,0,1-.75-.22,1049.61,1049.61,0,0,1-131.2-155.28,387.24,387.24,0,0,1-24.92-42.7l-.63-1.2a.44.44,0,0,0-.33-.14.45.45,0,0,0-.34.15,2.18,2.18,0,0,0-.48,1.22,1424.75,1424.75,0,0,0,18,224.52,328.65,328.65,0,0,0,25.62,85.74,129.33,129.33,0,0,0,26.46,32.94,770.08,770.08,0,0,0,90,78.79,6,6,0,0,1,1.86,3.91,189.74,189.74,0,0,0,35.51,91.64,170.85,170.85,0,0,0,23.14,20.86,85.11,85.11,0,0,1,19.91,37.71,640.85,640.85,0,0,1,18.28,121.8,644.57,644.57,0,0,0,27.5,72.11,678.46,678.46,0,0,0,94.86,159.3,261.11,261.11,0,0,0,87.31,71.13,150.77,150.77,0,0,0,78,13.93,186.93,186.93,0,0,0,21,0Z" transform="translate(-644.22 14275)"/><path class="cls-1" d="M1240.26-13019.62q25.38,2.12,50.66,5.12l1.54-.11a.32.32,0,0,0,.17-.19.31.31,0,0,0,0-.25,2.11,2.11,0,0,0-.79-.91,147,147,0,0,0-63.63-17.61q-40.57-1.14-81.16.22a147.5,147.5,0,0,0-58.44,15.42,20.88,20.88,0,0,0-3.7,2.32.63.63,0,0,0-.18.5.51.51,0,0,0,.25.42,2.38,2.38,0,0,0,1.38.31,578.74,578.74,0,0,1,75.76-5.89,13.56,13.56,0,0,1,7.53,2.29,24.58,24.58,0,0,0,18.81,8.81,24.61,24.61,0,0,0,18.85-8.71,16.25,16.25,0,0,1,10.4-2.54,204.41,204.41,0,0,1,22.55.8Z" transform="translate(-644.22 14275)"/><path class="cls-1" d="M1041.11-13635.8a156.62,156.62,0,0,0,38.05-67.56,36.82,36.82,0,0,0,1-5.21,2.06,2.06,0,0,0-.36-1.38.54.54,0,0,0-.45-.21.82.82,0,0,0-.57.26q-17.91,28.62-37.66,56a154,154,0,0,1-53.55,43.37.3.3,0,0,0-.13.23.21.21,0,0,0,.11.18,3.45,3.45,0,0,0,2.2,0,247.71,247.71,0,0,0,26.51-7.35,145.21,145.21,0,0,0,24.86-18.4Z" transform="translate(-644.22 14275)"/><path class="cls-1" d="M1338.5-13650.93q-20.09-26.9-37.73-55.49a35,35,0,0,0-2.68-3.6.8.8,0,0,0-.59-.21.47.47,0,0,0-.41.25,2.06,2.06,0,0,0-.21,1.4,178.61,178.61,0,0,0,20.08,48.72,113.9,113.9,0,0,0,48,44.06q11.54,3.15,23.18,5.86a2.4,2.4,0,0,0,1.27-.14.23.23,0,0,0,.13-.21.37.37,0,0,0-.14-.29,15.27,15.27,0,0,0-2.31-1.28,150.28,150.28,0,0,1-48.57-39.07Z" transform="translate(-644.22 14275)"/></g></g></svg>