<svg xmlns="http://www.w3.org/2000/svg" viewBox="0 0 4768 956.29"><defs><style>.cls-1{fill:#121212;fill-rule:evenodd;}</style></defs><title>Demon-(Text)-Logo</title><g id="Layer_2" data-name="Layer 2"><g id="Layer_1-2" data-name="Layer 1"><path class="cls-1" d="M0,923.15l399.27,26.09L854.05,774.93l235.8-624.29L696,0,331.6,29.36Zm32.23-20.89L348,51.06,692.66,23.3,1060.3,163.92,836.22,757.19,395.75,926Z"/><path class="cls-1" d="M1699.52,338.6l87.9,24.58,79.21-194.07L1567.1,12.31,1155.69,142.14,931.22,745.21,1264,954.88l374.45-185.51,75.18-208.18-361.17,83.24,34.26-89.64L1655,571.89l101.82-98.31Zm-20.41-5.71-213.85,7.27,23.31-60.55ZM959.24,735.74l214-575.08L1564.91,37.07l272.59,142.7-63.6,155.8-299.25-83.68-43.28,112.38,250.5-8.51L1729.49,468l-83.18,80.32-275-17.53-55.67,145.66L1677.73,593,1620,752.9,1265.34,928.6Z"/><path class="cls-1" d="M2258.25,283.92a111.81,111.81,0,0,1,15.58,10.76l-191.73,520L2251,956.29l200.31-118.47L2644.66,325l28-15.63L2510.44,750.57l185.55,101L2880.58,770l225.14-600.38L2832.78,10.37,2496.06,138.78,2263.37,10.3,1929.88,145.44l-224.4,595.09,169.39,113.84,200.27-85.22Zm-12.36-32.25-188.76,500.2-179.8,76.51-144-96.76,214.44-568.68,314-127.27L2494.29,164,2830.7,35.73l246.74,143.93-215,573.22L2697.05,826l-158.23-86.09,173.72-472.61c-28.43,10.74-63.27,26.3-86.79,42.81L2432.64,822.17,2253.26,928.26l-144-120.81L2300.89,287.6c-3-3.35-16.7-14.09-22.24-18A233.41,233.41,0,0,0,2245.89,251.67Z"/><path class="cls-1" d="M3181.64,145,2953.78,743.14l328.74,210.25,435.21-182.46L3951.4,166.45,3595.22,13.25Zm17.51,18.51L3594,37.72,3922,178.8,3699.85,753.54l-415.1,174-302.88-193.7Z"/><path class="cls-1" d="M4364.73,293.1,4157.9,844.65l162.26,108.17,202.53-76.75,245.31-652L4428.79,11.65l-410.6,122.66L3783.41,758.18,3968.49,861.6l186.44-81.43,188.9-498.1ZM3811.84,747.78l223.83-594.73L4425.41,36.61l314.5,197L4504.86,858.28l-181.79,68.89-137.29-91.52,207.07-552.18a1.49,1.49,0,0,0-.7-1.85l-60.58-32L4136.9,763l-167.16,73Z"/><path class="cls-1" d="M686,284.68l-81.11-34-171,448.83L533.34,669a15.43,15.43,0,0,0,10.09-9.7ZM523.14,648.11,472,663.78,617.86,281l38.77,16.26Z"/><path class="cls-1" d="M3548.32,251.75c-15,8.22-67.12,40.13-74.16,53.45L3375.05,566l-49.82,137.6c2.17,3.82,7.44,9.56,10.88,13.07a294.26,294.26,0,0,0,69-49.73q79-197.07,153.07-396.07C3559.15,267.67,3557.9,262.08,3548.32,251.75Zm-22.83,40.93Q3457.62,474,3385.63,653.74A271.3,271.3,0,0,1,3360,674.9L3396.57,574l97.86-257.5C3496.34,313.23,3521.79,295.2,3525.49,292.68Z"/><path class="cls-1" d="M104.75,855.24l283.08,18.5L796.09,717.26,993.82,193.78,685.14,75.71,385,99.89ZM575.61,182.4l148.12,62.12A31.63,31.63,0,0,1,741.1,285L591.84,677.27c-7.83,20.57-23.1,34.87-44.15,41.33L348,779.85Z"/><polygon class="cls-1" points="1022.27 714.42 1212.89 202.31 1559.98 92.78 1771.94 203.74 1743.49 273.44 1443.34 189.51 1355.14 418.53 1648.18 408.58 1668.09 455.52 1626.84 495.35 1336.65 476.86 1232.81 748.56 1596.97 664.63 1578.47 715.84 1268.37 869.47 1022.27 714.42"/><path class="cls-1" d="M1796.12,711.57l192-509.26L2258.43,92.78l231.87,128L2826,92.78l187.77,109.53-192,512.11-122.34,54.05-96.73-52.63,193.46-526.33s-135.14,25.61-213.37,88.2L2390.73,787l-132.3,78.24-88.19-74L2358,282s-14.22-56.9-142.25-96.73L2016.61,713l-133.72,56.9Z"/><path class="cls-1" d="M3238.54,205.16,3045.08,713l244.67,156.48,369.86-155.05,196.3-507.84L3591.33,92.78Zm315.8-14.23s71.18,39.85,52.63,96.73c-21.33,65.44-157.89,408.26-157.89,408.26C3400.71,750,3328.16,777,3328.16,777s-66.86-44.1-54-83.93c21.75-67.69,152.1-408.32,153.63-411.11C3451.92,237.88,3554.34,190.93,3554.34,190.93Z"/><path class="cls-1" d="M3875.83,724.37,4075,195.2,4417.8,92.78,4676.7,255,4464.75,818.26l-135.14,51.21-81.08-54.06L4441.1,301.88A53.14,53.14,0,0,0,4416,235.81l-112-59.1L4096.32,724.37l-123.76,54.06Z"/></g></g></svg>