<svg xmlns="http://www.w3.org/2000/svg" viewBox="0 0 1931.52 1911.18"><defs><style>.cls-1{fill:#121212;}</style></defs><title>Asset 1</title><g id="Layer_2" data-name="Layer 2"><g id="Layer_1-2" data-name="Layer 1"><g id="Layer_2-2" data-name="Layer 2"><g id="Layer_1-2-2" data-name="Layer 1-2"><path class="cls-1" d="M1110.45,130.65l16.77,56.57c42.29,8.6,104.07,31,159,54.76C1203.45,166,1168.17,157.84,1110.45,130.65Zm711.69,1252.59c19.83-44.89,38.87-83.33,38.88-132-21,19.35-37.28,35.74-55,50.43-27.37,22.69-28.64,27-7.51,56.18C1804,1365.43,1811.25,1371.68,1822.14,1383.24ZM1193.11,672c22.94,92.26,108.14,140.09,191.32,132.78C1317.92,763.44,1275.17,693.83,1193.11,672Zm-700,1218.34-7-.62a3,3,0,0,1-1.83-4.87l5-5.63c17.36-19.43,31.43-35.46,46-51C734.92,1615,696.13,1275.86,534,1115.44c-94.14-93.15-206.49-155.89-331.23-197.87l-43.7-14.69a2.77,2.77,0,0,1-1.8-3.47,2.7,2.7,0,0,1,.95-1.35C295.78,773.73,446.4,690.75,633.68,701.13s352.51,74.79,481.82,215a4.54,4.54,0,0,1,1,5l-.09.2a4.57,4.57,0,0,1-6,2.39l-.09,0c-11.77-5.37-23.63-10.53-35.16-16.36-95-48.09-193.23-85.62-301.34-88.85-72.42-2.16-143.5,5.61-209.12,39.14-42.95,22-45.43,37.9-12.4,72.29C617.67,998,678,1069.37,717,1156.9c58,129.87,73.14,265.27,47.57,403.58-13.62,73.7-39.39,145.27-61.65,217.19-10.49,33.91-5.29,51.84,28.37,54,119,7.64,236.54-.93,346.52-52.3,26.14-12.21,48.09-33.4,70.4-54.16-78-15.53-154.35-22.77-231-6.28-18.91,4.07-28.67-.22-34.71-19-58.77-182.58-76.25-367.57-31.6-555.78,26-109.53,58.49-131.73,170.37-120.06,52.79,5.5,103,19.4,145.3,53.31,109.64,87.79,220,174.74,328,264.46,41,34,81.86,45.61,130.93,24,22.1-9.73,44.63-18.64,66-29.76,18.25-9.5,21.9-23.45,5.85-39.33-22-21.81-44.33-43.38-65.85-65.68-36.81-38.14-73.18-76.69-107.27-119.63-1.6-2,.41-5.29,2.91-4.67,111.71,27.71,221.3,55.86,336.07,35.57-1.09-110.22-57.67-183-162.3-204.81-109.19-22.78-219.28-40.94-331.54-35.43-49,2.4-52.11,3.57-55.87,48.69-.37,4.45-2.32,9.07-6,6.62-143.69-94-249.21-215.41-316.59-374.9a3.76,3.76,0,0,1,2.08-4.9,3.51,3.51,0,0,1,1.36-.27c90.82-2,170.29,23.65,243.54,68.25,37,22.54,73.23,48.49,104.19,78.66,96,93.53,214.41,132.07,343,148,20.06,2.48,40.78,3.71,60.78,1.6,39.14-4.13,55.46-27.85,38-62.53-29.1-57.68-58.35-116.59-96.85-168-140.57-187.69-336-290.51-558.69-347.42-45.93-11.74-93.29-17.73-139.45-28.7C962.75,261,937,251.73,912.31,241,791.59,188.44,672.45,132,544,99.72c-8.91-2.24-18-3.67-31.94-6.45,18.85,94.39,63.29,173,107.71,258.67l4.11,8c1.1,2.13-1.72,4.44-3.76,3.18l-6.34-3.92-45.22-28C490.26,282.72,404,277.44,315.77,285.93c-93.39,9-214.38,36.11-298,60.21L4.11,350.25c-3.14.94-5.64-3.87-3-5.89q5.13-4,10.31-7.94C136.7,241.78,281.81,195.22,436,169.85c-16.1-52.25-32.33-104.92-51.22-166.2a2.74,2.74,0,0,1,3.1-3.6c57.54,8.18,106.63,14,155.33,22.47,146.13,25.29,282,83,420.2,133.53,30.2,11,63.27,14.17,100.51,22.1L1030.41,67.3c-.62-2,1.56-4,3.67-3.64,6.56,1.28,12.26,3.88,16.87,5.63,249.28,94.5,474,229.41,666.94,413.87,91.5,87.46,157.2,193.7,201.81,312.62,14.67,39.11,18.77,77-5.84,113.68-21.34,31.77-16.41,66.17-11.83,101.11q11.7,89.23,21.25,178.74c10,93.59-20.2,177.41-73.58,250.84-37.31,51.32-85.75,94.57-129.52,141.13-1.76,1.89-3.06,2.52-17,9.35a2.52,2.52,0,0,1-3.37-1.15,2.47,2.47,0,0,1-.17-1.79s1.91-7.35,2.13-8.48c10.47-53-11.54-111.92,58.76-139.8-13.49-2.25-27-6.43-40.46-6.39-39.72.13-79.43,2.79-119.14,2.73-20.77,0-32.73,8.29-44.36,25.58-36,53.47-89.37,88-138.27,127.37a5.71,5.71,0,0,1-6.62.45h0a5.73,5.73,0,0,1-2.7-6.14c10.42-51.23,18.49-103.12,32.49-153.36,11.79-42.27,13-49.32-23.22-81.75l-89.8,75.82a2.89,2.89,0,0,1-4.07-.38,2.94,2.94,0,0,1-.66-1.62s-7.88-91-10.11-115.71a12.8,12.8,0,0,1,1-5.67c4.43-11.08,16-26.4,12.31-32.4-14.54-23.63-33.85-44.33-54.14-63.82-.57,47.69-4.68,53.94-62.36,74-2.75,1-5,1.58-5.49-1.3-4.08-24.92-11.3-49.27-10.35-73.3,2.41-61-36.61-85.43-85.1-96.46-23.43-5.33-47.55-8.84-71.58-11.66-94.55-11.1-90,19-115.77,69.92-5.26,10.37-10,21-14.39,31.75-10,24.21-8.68,29.69,16.7,45.83,5.23,3.33,10,5.26,17.37,10.61,1.72,1.26,2.08,3.2.54,4.68-8.51,8.19-15.86,14.24-21.44,21.63-11.5,15.24-24.93,30.14-32,47.45-19.31,47.51-9.31,67.65,37.94,86.21,7.72,3,15.15,6.84,25.38,11.67,2.08,1,2.84,3.13,1.16,4.72-17.93,17.09-33.17,32.59-49.64,46.64-18,15.42-24.13,31.69-17.85,56.15,21.13,82.3,17.09,86.72,105,51.78,39.72-15.79,73.37-46.83,109.41-71.43a2.55,2.55,0,0,1,3.5.88,2.63,2.63,0,0,1,.28.69c13,52.32-36.4,89.42-54.57,141.18L1185.06,1678c-49.85-17.31-49.91-60.93-55.74-100.68-10.39-70.84-23.63-141.65-8.82-213.57,8.59-41.73,24.71-80,50.37-118.54,1-1.55,4.3-.65,4.21,1.21-1.28,25.7-24.66,50.28,3.09,64.75,1.47.77,2.51,1.93,2,3.51-10.71,35.14-23.3,67.76-29.63,101.55-4.52,24.08-1.56,49.35,35.38,47.83,3.53-.15,6,2.82,4.35,5.93-26.38,48.6-17.15,86.71,7.66,125.89,27.6,43.6,50,45.76,83.86,7.74,13.62-15.29,25.1-32.49,38.92-51.12a2.68,2.68,0,0,1,4.75.91c19.78,63.89,13,124.36-31.57,170.52-89.52,92.8-173.18,145.64-296.11,168.6-128.42,24-174.4,26.47-504.71-2.23Z"/></g></g></g></g></svg>