<svg xmlns="http://www.w3.org/2000/svg" viewBox="0 0 3389.76 299.22"><defs><style>.cls-1{fill:#121212;}</style></defs><title>hemicuda</title><g id="Layer_2" data-name="Layer 2"><g id="Layer_1-2" data-name="Layer 1"><path class="cls-1" d="M-21166.91,1065.4h-97.4l-.6-113.83q-.33-9.18-2.2-13.77-3.57-8.79-20.91-10.71-6.93-1.14-30-1.14h-78.45q-33.82,0-42.5,3.44-10.38,4.61-10.41,22.22l.19,113.79h-98.93l-.41-244.52h98.19l.13,84q18.87-22.92,65.06-22.92h103.26q55.59,0,79.67,5.92t30.89,22.73q3.72,9.18,3.69,23.31Z" transform="translate(21548.49 -769.35)"/><path class="cls-1" d="M-20708.76,995.48H-20940l.2-43.94h134.52q.09-12.22-.23-13-5.15-12.6-43.7-12.6h-79.3q-32.73,0-42.08,3.82-11.05,5-11.46,21.77l.62,43.94q-.42,9.71,1.49,14.35,3.48,8.52,21.89,10.86,6.85.76,30.13.77h203.58l.52,43.94h-241.39q-56,0-79.27-5.37-25.78-6.12-32.83-23.37-3.6-8.81-3.74-23.37l.11-79.7q-.42-27.69,26.69-39.64T-20966,882h141.8q56,0,80.58,5.9t31.6,23q3.57,8.76,3.52,22.85Z" transform="translate(21548.49 -769.35)"/><path class="cls-1" d="M-20191.26,1065.4h-78.65l-.47-113.83q-.37-9.55-1.51-13.77-2.4-8.79-13.82-10.71-5.06-1.14-20.22-1.14h-29q-21.81,0-27.51,3.43-7.29,4.59-6.78,22.16l.6,113.86h-81.53l-1.14-124.19q-1.59-11.07-12.72-13.74-4.67-1.51-21.7-1.52h-26q-22.23,0-27.92,3.44-6.8,4.59-6.75,22.18l-1.92,113.83h-79.15l-2.12-147.66c2.78-25.22,23.13-34.73,42.43-34.63l107.29-1.1q32.72,0,47.61,4.2,17,5,22.79,17.58,3-11.46,20.45-17.2a77.22,77.22,0,0,1,26.73-4.58h94.14q36.49,0,52.57,5.92t20.64,22.73q2.49,9.18,2.54,23.31Z" transform="translate(21548.49 -769.35)"/><polygon class="cls-1" points="1533.84 299.22 1532.75 115.83 1447.35 115.83 1447.8 299.22 1533.84 299.22"/><path class="cls-1" d="M-19546.55,1065.4h-237.93q-64.28,0-92.09-5.92t-35.67-22.73q-4.29-9.18-4.22-23.31l-.42-79.47q0-32.1,25.86-42t106-9.93h237.92l-.38,43.94h-195q-39.31,0-48.59,3.43-12.92,4.57-12.25,22.1l.22,44.36q.39,9.18,2.54,13.77,4.11,8.79,24.21,10.71,8,1.14,34.76,1.14h194.51Z" transform="translate(21548.49 -769.35)"/><path class="cls-1" d="M-18586.83,1065.4h-254.1q-55.59,0-78.85-5.73-25.58-6.12-32.41-22.92-3.72-9.18-3.69-23.31l-.52-79.47q0-32.1,22.64-42t92-9.93h120.55l-.25,43.94h-83.3q-34.05,0-42.79,3.43-10.47,4.57-10.58,22.1l.28,44.36q.36,9.18,2.22,13.77,3.57,8.79,21,10.71,7.68,1.14,30.82,1.14h117.8l0-200.58h97.4Z" transform="translate(21548.49 -769.35)"/><path class="cls-1" d="M-18158.73,1065.4h-255.55q-55.59,0-78.85-5.73-25.59-6.12-32.41-22.92-3.73-9.18-3.69-23.31l.29-9.93q0-32.1,22.64-42t91.25-9.94h115.51l-.2,43.94h-106.84q-13.72,0-20.73,5t-4.52,11.08q4,9.93,25.74,9.93h149l-.37-69.89q-.31-9.18-2.17-13.77-3.42-8.41-21-10.71-7.68-1.14-30.78-1.14h-202.14l.2-43.94h239q55.59,0,80,5.92t31.25,22.73q3.72,9.18,3.69,23.31Z" transform="translate(21548.49 -769.35)"/><ellipse class="cls-1" cx="-20060.47" cy="821.57" rx="51.85" ry="52.61" transform="translate(15037.95 -14763.19) rotate(-45.21)"/><path class="cls-1" d="M-19225.16,1065.4h51.31q58.6,0,83.89-5.73t32.64-22.92q3.75-8.79,3.87-23.31l.62-131.43h-102.73l-.38,113.45q-.54,9.7-2.52,14.36-3.66,8.53-22.14,10.87-7.19.76-31.53.77h-83.6q-24.34,0-31.52-.77-18.5-2.34-22.14-10.87-2-4.65-2.52-14.36l-.38-113.45H-19455l.62,131.43q.12,14.52,3.88,23.31,7.35,17.19,32.63,22.92t83.89,5.73h108.85Z" transform="translate(21548.49 -769.35)"/></g></g></svg>