<svg xmlns="http://www.w3.org/2000/svg" viewBox="0 0 2396.51 227.98"><defs><style>.cls-1,.cls-2{fill:#121212;}.cls-2{fill-rule:evenodd;}</style></defs><title>Mango-Mad</title><g id="Layer_2" data-name="Layer 2"><g id="Layer_1-2" data-name="Layer 1"><path class="cls-1" d="M196.56,53.49l12.7-18.06H165.81L83.24,147.09a8.88,8.88,0,0,0-1.34,4.34L59.5,180.52H0l26.74-35.44,79.56-111L131,0H341q38.79,5.36,34.77,36.1l-101,144.42H213.94L292.17,71.87l13-18.05q13-18.39-23.07-18.39H261.41l-101,145.09H109Z"/><path class="cls-2" d="M517.48,130.37h-113l-13.37,18q.66,7.37,18.05,7.36l75.55.33a33.43,33.43,0,0,0,18.72-7.69Zm3.34-24.07h12l12.7-16.71q-1.34-8-14.71-8H383.09l16.05-23.4H539.88q65.18,0,66.52,23.4l-50.81,73.54q-15.37,24.4-78.56,24.4H384.1q-54.17,0-54.16-17.71a16.64,16.64,0,0,1,2.34-7.69L359,117q8-10.69,27.41-10.7H520.82Z"/><path class="cls-2" d="M760.17,81.57H691.31l-5.35,8-42.79,58.83-22.06,30.76H565.62l18.72-25.07,53.48-74.55L653.2,58.17H791.93q65.19,0,66.52,23.4l-50.81,73.54-16,24.07H734.1l63.51-89.59q-1.33-8-14.71-8Z"/><path class="cls-2" d="M1012.22,81.57h-46.8q-18,0-27.41,8l-42.79,58.83q.67,7.37,18,7.36l75.55.33,16.72-.33,44.12-66.19q-1.34-8-14.7-8Zm98.28,0-50.81,72.87-17.38,24.07-18,24.74Q1006.2,228,969.44,228H782.23l17.39-22.06H942q24.75-.66,36.78-12l10.69-14.71-101.29.33q-54.15,0-54.15-17.71a16.64,16.64,0,0,1,2.34-7.69l53.48-74.55q12-22.07,60.18-21.39H1044Q1109.17,58.17,1110.5,81.57Z"/><path class="cls-2" d="M1264.28,81.57h-46.8q-18.06,0-27.41,8l-42.79,58.83q.66,7.37,18,7.36l75.55.33q10.69-1,17.38-7.69l43.46-58.83q-1.34-8-14.71-8Zm98.28,0-50.81,73.54q-15.39,24.4-78.56,24.4h-92.93q-54.16,0-54.16-17.71a16.64,16.64,0,0,1,2.34-7.69l53.49-74.55q12-22.07,60.17-21.39H1296Q1361.22,58.17,1362.56,81.57Z"/><path class="cls-2" d="M1683.81,53.49l12.7-18.06h-43.46l-82.56,111.66a8.78,8.78,0,0,0-1.34,4.34l-22.4,29.09h-59.5L1514,145.08l79.56-111L1618.29,0h209.93Q1867,5.36,1863,36.1L1762,180.52h-60.84l78.23-108.65,13-18.05q13-18.39-23.06-18.39h-20.73l-101,145.09h-51.48Z"/><path class="cls-2" d="M2004.73,130.37h-113l-13.38,18q.67,7.37,18.06,7.36l75.54.33a33.43,33.43,0,0,0,18.73-7.69Zm3.34-24.07h12l12.71-16.71q-1.35-8-14.71-8H1870.34l16.05-23.4h140.73q65.19,0,66.53,23.4l-50.82,73.54q-15.37,24.4-78.55,24.4h-92.94q-54.15,0-54.15-17.71a16.64,16.64,0,0,1,2.34-7.69L1846.27,117q8-10.69,27.41-10.7h134.39Z"/><path class="cls-2" d="M2167.19,155.78H2214q18,0,27.41-8l42.79-58.84q-.68-7.35-18.05-7.35l-75.55-.34q-10.7,1-17.38,7.69l-43.46,58.84q1.34,8,14.71,8Zm-99,0,50.81-73.55q15.38-24.39,78.56-24.4l112.65-.33L2346.37,10h50.14l-54.15,73.21-53.49,74.54q-12,22.07-60.17,21.4h-93.94Q2069.59,179.18,2068.24,155.78Z"/></g></g></svg>