<svg xmlns="http://www.w3.org/2000/svg" viewBox="0 0 964.33 85.21"><defs><style>.cls-1{fill:#121212;fill-rule:evenodd;}</style></defs><title>Rallye</title><g id="Layer_2" data-name="Layer 2"><g id="Layer_1-2" data-name="Layer 1"><path class="cls-1" d="M-17993.88-3770.78c-1,5.88-5.33,11.81-8.58,17.68l-29.57,51.4a2.81,2.81,0,0,1-2.5,1.44h-33.65a3,3,0,0,1-2.49-4.32l9.82-16.93h-70.37l-11.51,19.82a2.83,2.83,0,0,1-2.49,1.43h-33.46a3,3,0,0,1-2.5-4.31l33-57.52c2.77-4.8,4.83-9,8.74-12.55,13.33-12,31.2-10,50-10.63h49.92C-18014.14-3785.27-17990.85-3786.57-17993.88-3770.78Zm-56.72,31.42,12.84-22.38c4-7-13.37-6.69-37-6.69-20.76,0-30,1-33.29,6.69l-12.9,22.38Z" transform="translate(18356.83 3785.3)"/><path class="cls-1" d="M-17670.72-3784.06l28.05,47.73,68.07-48.5a2.38,2.38,0,0,1,1.46-.47h23.8a2.6,2.6,0,0,1,1.47,4.56l-81.36,58.88-13.22,20.5a2.72,2.72,0,0,1-2.35,1.27l-32.4-.14a2.84,2.84,0,0,1-2.42-4.12l10.14-18.53-32.65-58.67a2.58,2.58,0,0,1,2.2-3.75h27A2.47,2.47,0,0,1-17670.72-3784.06Z" transform="translate(18356.83 3785.3)"/><path class="cls-1" d="M-17392.89-3780.7l-6.72,10.95a2.8,2.8,0,0,1-2.46,1.37h-97.51l-10.24,17.44h74.7a3,3,0,0,1,2.49,4.34l-6.3,10.72a2.79,2.79,0,0,1-2.48,1.42h-78.08l-10,16.95h94.55a3,3,0,0,1,2.48,4.34l-6.62,11.28a2.8,2.8,0,0,1-2.48,1.43H-17577a3,3,0,0,1-2.48-4.34l46.29-78.87a2.81,2.81,0,0,1,2.49-1.42h135.33A3,3,0,0,1-17392.89-3780.7Z" transform="translate(18356.83 3785.3)"/><path class="cls-1" d="M-17926.84-3781l-37,63.66h94.81a2.94,2.94,0,0,1,2.5,4.3l-6.43,11.3a2.79,2.79,0,0,1-2.5,1.46h-133.17a3,3,0,0,1-2.49-4.33l46-79.29a2.83,2.83,0,0,1,2.5-1.43h33.33A3,3,0,0,1-17926.84-3781Z" transform="translate(18356.83 3785.3)"/><path class="cls-1" d="M-17766-3781l-37,63.66h94.82a3,3,0,0,1,2.5,4.3l-6.43,11.3a2.81,2.81,0,0,1-2.5,1.46h-133.17a3,3,0,0,1-2.49-4.33l46-79.29a2.81,2.81,0,0,1,2.49-1.43h33.33A3,3,0,0,1-17766-3781Z" transform="translate(18356.83 3785.3)"/><path class="cls-1" d="M-18245.94-3700.19h33.48c2.68,0,2.58-3.26.91-5.35l-15-18.69c-.41-.56-.88-1.15-.81-1.65a.68.68,0,0,1,.65-.67h10.45c4.36,0,12.36-.95,17.06-3.1a38.68,38.68,0,0,0,16.4-13.09c2-2.52,0,.49,6.9-10.11,4-6.19,6.89-11.12,7.78-13.68.81-2.32,2-6.34.84-10.05-1.31-4.3-4.3-8.34-14.69-8.37-6,0-119,.09-119,.09-4.72,0-8.2,1.43-11.24,5.73a87.75,87.75,0,0,0-4.91,7.86c-1.32,2.34-39,65.12-39.18,65.36a4.53,4.53,0,0,0-.48,3.05c.39,1.38,1.26,1.77,1.84,1.77h32.16c6.87,0,9.76-4.42,12.75-9.25,3.21-5.21,27.24-45.6,27.24-45.6,3.83-6.39,7.84-7.68,14.22-7.68h46.44c4.17,0,6.25.32,7.13,2.7.61,1.64-.78,6.72-2.87,9.75a26.72,26.72,0,0,1-10.52,9.34c-5.08,2.37-12.29,2.5-13.68,2.5l-36.56,0c-1.24,0-2.22,2.33-.85,4.19l12.85,18.19C-18255.8-3702.15-18256.51-3700.19-18245.94-3700.19Z" transform="translate(18356.83 3785.3)"/></g></g></svg>