<?xml version="1.0" encoding="utf-8"?>
<!-- Generator: Adobe Illustrator 22.1.0, SVG Export Plug-In . SVG Version: 6.00 Build 0)  -->
<svg version="1.1" id="Layer_1" xmlns="http://www.w3.org/2000/svg" xmlns:xlink="http://www.w3.org/1999/xlink" x="0px" y="0px"
	 viewBox="0 0 1520.8 452.7" style="enable-background:new 0 0 1520.8 452.7;" xml:space="preserve">
<path d="M1511.5,233.8L905,232.1c-8,0-8.4-7.9-1.4-11.6c28.5-15,374.5-197.8,389.5-206.4c3-1.7,4.6-12-6.8-12.2L1160.8,0
	c-9.9,0.4-19.6,2.9-28.5,7.3c0,0-331.2,175.1-345.6,182.9c-15.4,8.4-17,5.1-23.8,0.5l-64.9-48.4l24.2-1.4c7.3-0.3,14.6-0.8,21.8-1.5
	c21.1-1.8,37.3-6.1,53.3-17.9c7.4-5.6,14.3-11.6,20.8-18.2c3.1-3,6-6.1,8.8-9.4c10.9-12.4,20.4-28.4,15.4-45.7
	c-1.2-4.2-3.1-8.2-5.6-11.7C829,25.2,818.7,21,805.5,19.2c-9.7-1.1-19.5-1.7-29.4-1.7c-6.7-0.1-13.3-0.2-19.9-0.2l-549.9-0.7
	c-4.4-0.1-8.7,0.6-12.8,2c-5.3,1.8-10,4.8-13.8,8.8c0,0-156,159.3-178.4,182.4c-3.1,3.3-0.3,10.3,4.2,10.3l239,2.7
	c10.1,0.2,18.9-3.3,25.6-10.4L397.3,80.7H569l-17.2,18.6l-0.4,0.5c-1,1.3-2.4,2.3-3.9,3c-2.3,0.9-4.8,1.4-7.3,1.4l-104,2.5
	c-1.4,0-2.8,0-4.2,0c-6.4-0.2-11.7,0.1-17.4,2.5c-4,1.7-7.7,4.3-10.7,7.5l-0.8,0.8l-4.1,5.7c-4.7,5.8-6.4,13.4-4.5,20.6
	c1.5,6,5,11.2,9.9,14.9l88.9,67h226.2c0,0-402.9,212.9-406.1,214.4c-9.2,4.5-3.8,10.9,3.5,11l133.2,1.4c9.9-0.4,19.6-2.9,28.5-7.3
	c0,0,314.4-165.5,324.9-171.2c6.8-3.7,10.2-0.3,7.2,6.1c-1.4,3-2.9,6.9-3.3,7.8c-1.3,2.5-1.6,6.6,8.2,6.6l205.5-0.1
	c5,0,6.6,3.9,3.1,7.5c-12.6,12.8-115.7,117.5-120.2,121.9c-8.7,8.6-1.5,13.2,5,13.2h247.1c8.3,0.2,16.3-2.7,22.5-8.2l0.5-0.5
	L1309,294.5h149.8c8.6,0.1,16.9-3.3,23-9.4l0.5-0.5c0,0,30.9-35.8,32.8-37.9C1523.1,237.7,1523.3,233.8,1511.5,233.8z M499.3,207.9
	l-84-63.4c-3.6-2.9-4.6-7.5-2-10.1l3.9-5.4c5.4-5.6,10.5-4.1,19.4-4.3l103.8-2.6c10.9-0.2,19.2-3.9,25.1-11.2l31.8-34.4
	c4.9-6.1-0.8-13.9-9.9-13.9H397.2c-5.1,0-9,1.6-12,4.8L257.1,200.1c-3.1,3.2-7.1,4.8-12.2,4.7c0,0-199.6-2.1-202.7-2.1
	c-7.1,0-7.9-3.5-4.2-7.5L192.7,40c3.4-3.6,7.8-5.3,13.5-5.3l0,0c0,0,507.2,0.6,550,0.7c51,0.1,59.2,1.9,65.8,11.5
	s6.7,20.9-16.4,43.8c-27.9,27.6-39.4,30-84.2,32.4l-55.8,3.2c-7.8,0.4-8.9,8.3-1.6,13.2l77.9,57.7c5.1,3.4,4,10.9-1.6,10.9H499.3z
	 M470.6,429.3c-5.6,3-15,5.4-21,5.4h-75.3c-6,0-6.2-2.4-0.6-5.4l766.6-405.8c5.6-3,15-5.4,21-5.4h75.3l0,0c6,0,6.2,2.4,0.6,5.4
	L470.6,429.3z M1481.6,257.7l-12.6,14.8c-2.7,2.7-6.3,4.2-10.1,4.1h-151.3c-3.5-0.1-7,1.2-9.6,3.5l-131.1,135.4
	c-2.8,2.5-6.5,3.8-10.3,3.7H947.8c-1.8,0-3.4-0.8-4.5-2.2c-2.1-2.6-1.8-6.3,0.8-8.4l125.4-126.6c3.3-2.8,1.1-5.4-3.2-5.4H855.1
	c-5.6,0-8.3-5.3-4.2-9.1l11.7-12.1c3.3-3,4.8-4.5,9.3-4.5H1478v0C1482.6,250.9,1484.8,254.5,1481.6,257.7z"/>
</svg>
