<?xml version="1.0" encoding="utf-8"?>
<!-- Generator: Adobe Illustrator 22.1.0, SVG Export Plug-In . SVG Version: 6.00 Build 0)  -->
<svg version="1.1" id="Layer_1" xmlns="http://www.w3.org/2000/svg" xmlns:xlink="http://www.w3.org/1999/xlink" x="0px" y="0px"
	 viewBox="0 0 1447.3 416.7" style="enable-background:new 0 0 1447.3 416.7;" xml:space="preserve">
<title>RT-Logo-Solid</title>
<g id="Layer_2_1_">
	<g id="Layer_1-2">
		<path d="M1442.2,232.9H836.1c-4.5,0-6,1.5-9.3,4.5l-11.7,12.1c-4.1,3.8-1.3,9.1,4.2,9.1h211.2c4.3,0,6.5,2.6,3.2,5.4L908.3,390.5
			c-2.6,2.1-2.9,5.9-0.8,8.4c1.1,1.3,2.8,2.1,4.5,2.2h208.7c3.8,0.1,7.5-1.2,10.3-3.7l131.1-135.4c2.7-2.3,6.1-3.6,9.6-3.5h151.3
			c3.8,0.1,7.4-1.4,10.1-4.1l12.6-14.8C1449,236.5,1446.8,232.9,1442.2,232.9z"/>
		<path d="M170.4,16.7c0,0,507.2,0.6,550,0.7c51,0.1,59.2,1.9,65.8,11.5s6.7,20.9-16.4,43.8c-27.9,27.6-39.4,30-84.2,32.4l-55.8,3.2
			c-7.8,0.4-8.9,8.3-1.6,13.2L706,179c5.1,3.4,4,10.9-1.6,10.9H463.5l-84-63.4c-3.6-2.9-4.6-7.5-2-10.1l3.9-5.4
			c5.4-5.6,10.5-4.1,19.4-4.3l103.8-2.5c10.9-0.2,19.2-3.9,25.1-11.2l31.8-34.4c4.9-6.1-0.8-13.9-9.9-13.9H361.4
			c-5.1,0-9,1.6-12,4.8L221.3,182.2c-3.1,3.2-7.1,4.8-12.2,4.7c0,0-199.6-2.1-202.7-2.1c-7.1,0-7.9-3.5-4.2-7.5L156.9,22
			C160.3,18.4,164.7,16.6,170.4,16.7z"/>
		<path d="M1200.8,0h-75.3c-6,0-15.4,2.4-21,5.4L337.9,411.3c-5.6,3-5.4,5.4,0.6,5.4h75.3c6,0,15.4-2.4,21-5.4L1201.4,5.4
			C1207.1,2.4,1206.8,0,1200.8,0z"/>
	</g>
</g>
</svg>
