<svg xmlns="http://www.w3.org/2000/svg" viewBox="0 0 1643.96 120.78"><defs><style>.cls-1{fill:#121212;fill-rule:evenodd;}</style></defs><title>Run-with-the-Dodge-Scat-Pack</title><g id="Layer_2" data-name="Layer 2"><g id="Layer_1-2" data-name="Layer 1"><path class="cls-1" d="M-13356.44-8032.89c.34-11.81-16.38-10.31-34.7-9.73l-28,.89c-13.58.9-26.77-.21-35,9-2.42,2.72-3.42,5.9-4.86,9.53-7.49,18.88-17.4,44.07-18.48,46.77l29-.92,6.46-16.08,42.8-1.36-6.44,16.08,29.2-.92,15.83-40C-13358.92-8024-13356.44-8028.5-13356.44-8032.89Zm-37.41,24.64-42.77,1.36,6.73-16.93c1.72-4.31,6.32-5.19,21.36-5.67,17.1-.54,23.44-.95,21.36,4.32Z" transform="translate(14432.74 8061.64)"/><path class="cls-1" d="M-13459.86-8040.46l-5.1,12.59-66.47,2.1a4.93,4.93,0,0,0-4.49,3.05l-12.53,31.24c-.81,2,.43,4.1,2.44,4l66-2.09-5.37,13.37-77,2.45c-8.07.26-16.36-1-17.14-6.35-.54-3.69,1.87-8.83,3.37-12.66l9.37-23.25c2.73-6.8,4.37-12.62,9.19-16.43,3.89-3.07,9.94-4.94,14.65-5.43l39.4-1.25Z" transform="translate(14432.74 8061.64)"/><path class="cls-1" d="M-13184.09-8036.59l34.46-1.09c4.68-.17,9.27.33,7.19,5l-5.13,11.16c-2.82,5.69-12.46,5.86-16,6l-20.31.64-6.21,13.52,44.7-1.41c14.12-.6,19.49-7.42,23.37-12.75s5.81-10.08,8-14.68c2-4.1,4-8.64,3.27-13.41s-7.46-6.75-13.36-7c-10.43-.42-26.51.4-40.35.84l-44.18,1.4-29.54,64.38,30.38-1Z" transform="translate(14432.74 8061.64)"/><path class="cls-1" d="M-13612-7983.06l-78.57,2.49-4.69,11.07,94.74-3c5.44-.17,11.58-4.4,13.72-9.44l9.56-22.58c2.13-5-.55-9-6-8.82l-70.09,2.22,5.28-12.46,79.94-2.53,4.69-11.08-94.75,3c-5.44.18-11.58,4.4-13.71,9.44l-9.57,22.59c-2.13,5,.55,9,6,8.81l68.72-2.17Z" transform="translate(14432.74 8061.64)"/><path class="cls-1" d="M-13304.5-7986.74c1.14-2.37,2.19-4.62,2.81-5.94,5.16-10.92,16.88-35.68,17-35.89s.28-.52.38-.73a.81.81,0,0,1,.68-.47l29.75-.94a3.58,3.58,0,0,0,2.74-1.9c.7-1.11,5.12-10.62,5.44-11.29a2.46,2.46,0,0,0-.13-2.28,1.71,1.71,0,0,0-1.63-1l-95.25,3c-1.38,0-1.58,0-2.23,1.36l-5.62,11.91a2.17,2.17,0,0,0,.09,2.08,2,2,0,0,0,1.37,1.13l30.67-1a.74.74,0,0,1,.78.43,1.19,1.19,0,0,1,.1.83c-.59,1.19-20.68,43.26-20.68,43.26a3,3,0,0,0,.25,2.49,1.65,1.65,0,0,0,1.3.84l25.35-.83c2.47,0,3.61-.47,4.59-1.36A12.53,12.53,0,0,0-13304.5-7986.74Z" transform="translate(14432.74 8061.64)"/><path class="cls-1" d="M-12897.84-8058.25l-4.93,12.58-64.54,2.05a4.73,4.73,0,0,0-4.35,3l-12.1,31.22c-.78,2,.44,4.1,2.38,4l64.12-2-5.19,13.38-74.78,2.38c-7.84.24-15.9-1.05-16.67-6.37-.53-3.69,1.79-8.83,3.24-12.66l9-23.24c2.64-6.8,4.21-12.62,8.88-16.42,3.77-3.07,9.64-4.93,14.21-5.42l38.27-1.21Z" transform="translate(14432.74 8061.64)"/><path class="cls-1" d="M-13003.28-8045c1-11.83-15.74-10.33-34.06-9.75l-28,.89c-13.61.9-26.7-.21-35.48,9.06-2.57,2.72-3.76,5.91-5.41,9.55-8.58,18.91-20,44.15-21.2,46.85l29-.92,7.39-16.11,42.81-1.36-7.38,16.11,29.2-.92,18.16-40C-13006.27-8036.11-13003.54-8040.62-13003.28-8045Zm-38.79,24.69-42.76,1.35,7.7-17c2-4.32,6.62-5.21,21.66-5.68,17.1-.54,23.45-1,21.07,4.33Z" transform="translate(14432.74 8061.64)"/><polygon class="cls-1" points="1558.11 34.42 1591.34 65.11 1624.99 64.05 1587.29 32.96 1643.96 0 1608.19 1.13 1560.51 28.75 1571.71 2.29 1543.65 3.17 1514.11 67.56 1544.49 66.6 1558.11 34.42"/><path class="cls-1" d="M-14105.24-7987.39l9.77-1.33c-2.1,2.32-4.16,4.66-6.18,7-3.81,4.42-9.33,11.68-10.64,15.39-.76,2.16-.9,4.15,1.21,4.94,1.58.55,4.09.15,6.53-1a35.64,35.64,0,0,0,5.11-2.93c3-2,5.82-4.14,8.55-6.31q5.31-4.23,10.92-8.32a56.3,56.3,0,0,1,5.6-3.58c1.94-1.09,4.42-2.06,5-.8a2.7,2.7,0,0,1-.19,1.92,37.54,37.54,0,0,1-4.23,7,54.76,54.76,0,0,0-6.35,10.05c-.83,1.75-.73,3.29.29,4.33.7.71,2.62.47,4.29-.55s2.44-2.42,1.74-3.13a1.41,1.41,0,0,1-.13-1.66l1.63-3.1,3.46-5c-4.5,8.22-.68,14.49,9.42,14.86a58.13,58.13,0,0,0,17.43-2.4,152.27,152.27,0,0,0,19.12-6.68c1.8-.76,3.11-2.17,2.92-3.15s-1.78-1.17-3.58-.4c-10.72,4.53-23,8.45-32.19,8.13-8.27-.35-10.08-5.21-6.75-11.7.15-.3.31-.6.49-.9,4.18-1.32,8.38-2.81,12.58-4.44,6.83-2.64,17.35-7.8,18-13.19a1.81,1.81,0,0,0-1.53-2c-2.16-.62-6.07.13-9.37,1.27-9,3-17.23,8.59-22.36,14.49,2.34-4.07,3.48-8.23-1.65-8.72a13.2,13.2,0,0,0-5.59.89c-6.3,2.28-16.7,10.28-22.87,15.19-1.66,1.32-10.07,7.81-11.18,7.66a.55.55,0,0,1-.3-.45l.36-1.68a19.58,19.58,0,0,1,1.78-3.36,100.85,100.85,0,0,1,7.76-10.24q4.08-4.72,8.38-9.42a4.66,4.66,0,0,0,.8-.88q8.73-9.5,18.32-18.91c1.24-1.22,1.18-2.4-.13-2.65a6.07,6.07,0,0,0-4.63,1.76q-9.17,9-17.57,18.08l-9.73,1.34q1.82-1.89,3.76-3.79c1.25-1.21,1.2-2.4-.11-2.66a6.08,6.08,0,0,0-4.63,1.75c-1.89,1.85-3.72,3.71-5.46,5.58l-21.78,3a6.23,6.23,0,0,0-4.24,2.62c-.65,1.23.18,2,1.86,1.8l20-2.74c-2.72,3.17-5.23,6.35-7.49,9.52q-4.83,6.48-9,12.91c-.79,1.24-.13,2.14,1.5,2a6.4,6.4,0,0,0,4.38-2.46A183.19,183.19,0,0,1-14105.24-7987.39Zm47.34,5.44a39.79,39.79,0,0,1,6.47-5.09c3.76-2.38,9-4.73,12.77-5.13a2.61,2.61,0,0,1,.69,0,3.41,3.41,0,0,1-1.09,1.56,16.44,16.44,0,0,1-2.79,2A103.44,103.44,0,0,1-14057.9-7981.95Z" transform="translate(14432.74 8061.64)"/><path class="cls-1" d="M-14175.09-7992.42l6.55-.59q-6.47,6.42-12.54,12.9c-4.11,4.39-10.15,11.64-11.77,15.42-.95,2.2-1.29,4.26.66,5.17,1.46.64,3.92.35,6.38-.75a36.64,36.64,0,0,0,5.21-2.79q4.58-2.94,8.86-6.13c3.68-2.75,7.47-5.45,11.33-8.09a60.66,60.66,0,0,1,5.75-3.44c2.09-1.09,4.44-1.89,5-.56a2.89,2.89,0,0,1-.24,1.91,38.48,38.48,0,0,1-4.39,6.94,57.38,57.38,0,0,0-6.56,9.91c-.85,1.71-.84,3.24,0,4.32.61.77,2.49.6,4.19-.38s2.58-2.4,2-3.16a1.58,1.58,0,0,1,0-1.71l1.69-3,4.29-6c3.69-4.74,9.35-12.83,2.41-13.91a12,12,0,0,0-5.47.65c-6.28,2.06-17.09,9.84-23.52,14.63-1.73,1.29-10.46,7.6-11.52,7.4a.52.52,0,0,1-.24-.49l.51-1.71a23.44,23.44,0,0,1,2-3.4,109.82,109.82,0,0,1,8.5-10.23q6.61-7.07,13.71-14.06l17.67-1.59a6.33,6.33,0,0,0,4.36-2.5c.76-1.23.06-2.11-1.57-2l-15.7,1.42q5.34-5.15,10.9-10.22c1.32-1.2,1.38-2.43.14-2.75s-3.31.4-4.62,1.6q-6.49,5.94-12.68,11.93l-6.72.6,2.63-2.6c1.24-1.22,1.17-2.41-.14-2.65a6.15,6.15,0,0,0-4.63,1.76l-4.08,4.05-36.47,3.29a6.32,6.32,0,0,0-4.35,2.5c-.77,1.23-.07,2.11,1.57,2l34.69-3.13c-23.65,24.36-22.62,29-21.92,30.39.44.86,2.22.83,4-.07s2.82-2.32,2.38-3.18a1.14,1.14,0,0,1-.05-.84l.59-1.5,1.82-3a96,96,0,0,1,6.23-7.95Q-14182-7985.26-14175.09-7992.42Z" transform="translate(14432.74 8061.64)"/><path class="cls-1" d="M-14361.3-7949.23a2,2,0,0,0,1.09,1.45,6.88,6.88,0,0,0,4.95-.33,62.78,62.78,0,0,0,11.94-6.7q6-4.21,11.77-8.56a36.46,36.46,0,0,0-3.15,4.54c-1.22,2.22-2,4.94,1.06,5.21,2.16.2,4.63-.79,7.09-2.09a55.24,55.24,0,0,0,5-3.15l13.49-10.24,1.85-1.32-.31.61-5.71,8.6c-1.13,1.75-2.43,3.89-2.1,5.31.18.76,1.22,1.12,2.47,1,2-.19,5.17-1.94,7-3.16l18.28-12.57,2.79-1.78-7,11.25c-1.56,2.65-3.52,6.84-.1,7.48a6.06,6.06,0,0,0,4.62-1.76c1.22-1.19,1.19-2.35,0-2.63l.21-1,1.31-2.7,7.61-12.21.1-.17a7.87,7.87,0,0,0,.89-2.66c0-.95-.42-1.65-1.86-1.67a8.16,8.16,0,0,0-3.19.71h0a81.32,81.32,0,0,0-8.42,4.94l-17,11.68.28-.48,5.76-8.67c1.36-2.17,3-5.54.13-6a7,7,0,0,0-3.53.6,39.09,39.09,0,0,0-7.65,4.8l-13.33,10.11a36.75,36.75,0,0,1-3.36,2.12l-.82.37.52-1.24a38.55,38.55,0,0,1,3.36-4.71c4.15-5,8.71-9.92,13.63-14.82,1.23-1.22,1.14-2.4-.18-2.63a6,6,0,0,0-4.28,1.47c-9.64,8-19.84,15.86-30.51,23.4a77.31,77.31,0,0,1-6.7,4.11,11.57,11.57,0,0,1-1.58.73.68.68,0,0,1,0-.47l.82-2a37.93,37.93,0,0,1,3.4-5,178.42,178.42,0,0,1,13-14.44c1.22-1.22,1.13-2.4-.2-2.63a6.13,6.13,0,0,0-4.62,1.8c-11.61,11.59-16.46,18.24-18.14,22.07-5.32-2.46-9.88-4.7-14.08-8a76,76,0,0,0-13.35-8.14,30.46,30.46,0,0,0-4.65-1.86c16.34-2.91,33-6.58,49.94-11,7.51-2,18.69-5.88,25.35-9.25,4.53-2.26,10.93-6.44,9.79-9.42a3.4,3.4,0,0,0-1.66-1.86,15.23,15.23,0,0,0-4.72-1.56,64.07,64.07,0,0,0-10.15-.93,254.85,254.85,0,0,0-42,3.35q-28.08,4.44-57.1,11c-1.76.4-3.53,1.67-3.94,2.85s.66,1.81,2.42,1.42q16.71-3.76,33.15-6.83l-40.58,49.81c-1,1.24-.62,2.29.88,2.33a6.37,6.37,0,0,0,4.54-2.17l20.4-25a35.26,35.26,0,0,1,12.94,3.32,73.83,73.83,0,0,1,12.91,7.86c3.79,3.22,10.05,6.22,15.1,8.55C-14364.47-7947.92-14362.72-7948.31-14361.3-7949.23Zm-40.89-24,17.12-21q8.42-1.52,16.76-2.83c7.4-1.15,14.67-2,21.76-2.6,5.6-.46,30.88-2.05,32.53,2.28a.1.1,0,0,1,0,.06c-2.88,2.38-7.77,4.66-11.65,6.14-5.32,2-10.67,3.79-15.95,5.24C-14362.24-7980.53-14382.49-7976.28-14402.19-7973.19Z" transform="translate(14432.74 8061.64)"/><path class="cls-1" d="M-14241.45-7967.41c-2.34,4.14-3.63,8.05-1,9.12a7.87,7.87,0,0,0,4.74-.18c10.73-3,20.11-13,24.37-20,.76-1.24,0-2.11-1.6-1.95a6.32,6.32,0,0,0-4.34,2.51,49.52,49.52,0,0,1-9.51,10.91,28.13,28.13,0,0,1-3.54,2.47c-.83.5-4.09,2.15-4.91,2a.41.41,0,0,1-.19-.35,7.1,7.1,0,0,1,.91-3.13,80.6,80.6,0,0,1,8.23-12.29c1-1.24.59-2.27-.92-2.31a6.5,6.5,0,0,0-3.93,1.57q-7.17,6.18-15,12.11c-3.55,2.7-8.37,6-12.94,7.49a23.58,23.58,0,0,1,3.12-4.87c4.37-5.39,9.2-10.76,14.43-16.08,1.21-1.22,1.1-2.39-.25-2.6a6.19,6.19,0,0,0-4.62,1.83c-5.44,5.52-10.45,11.11-15,16.71a32.34,32.34,0,0,0-3.78,5.74c-1.45,2.83-.07,4.66,4.2,3.67a39.47,39.47,0,0,0,9.9-4.28A127.88,127.88,0,0,0-14241.45-7967.41Z" transform="translate(14432.74 8061.64)"/><path class="cls-1" d="M-14202.82-7981.2l-19.49,20.69c-1.16,1.23-1,2.37.41,2.54a6.27,6.27,0,0,0,4.61-1.92l19.49-20.69c1.16-1.23,1-2.37-.41-2.54A6.27,6.27,0,0,0-14202.82-7981.2Z" transform="translate(14432.74 8061.64)"/><path class="cls-1" d="M-14180.54-8007.53l-3.47,5c-.86,1.24-.28,2.19,1.31,2.12a6.44,6.44,0,0,0,4.44-2.38l3.46-5c.87-1.24.28-2.19-1.3-2.11A6.4,6.4,0,0,0-14180.54-8007.53Z" transform="translate(14432.74 8061.64)"/><path class="cls-1" d="M-13988.36-7970.62l-.07.06c-2.1,1.64-2.57,3.52-1.06,4.19a3.75,3.75,0,0,0,1.81.21c32.65-3,69.27-13.62,104.68-30.41l1.15-.47a57.28,57.28,0,0,0-12.85,15,9.81,9.81,0,0,0-1.56,5.09c.07,3.89,5.9,4.15,12.19,1.82a85.34,85.34,0,0,0,20.28-10.9c1.09-.77,2.15-1.57,3.18-2.37-1.3,2-2.17,4-2,5.55.39,4.25,10.5,2.41,17.14,0,2.74-.95,5.59-2.11,8.52-3.44a59.38,59.38,0,0,0-5.82,6.48c-1.36,1.77-.68,3.21,1.52,3.2a9.35,9.35,0,0,0,6.08-2.81l4.49-4.84a29.12,29.12,0,0,1,4.55-3.72c4-2.48,6.76-3.07,10.76-3.68l1.06-.19a40,40,0,0,0-5.56,6c-3.23,4.39-.83,7.24,4.51,6.72a42.9,42.9,0,0,0,9.74-2.13l1.57-.52c-10.29,7.06-19,15-25.27,23.21-1.36,1.78-.68,3.21,1.51,3.2a9.26,9.26,0,0,0,5.86-2.58q11.34-11.11,24.17-21.87,3.63-2.4,7.53-4.6a94.85,94.85,0,0,1,10.48-4.82l-.27.39c-2.88,4.24-1.78,7.45,2.06,8.78,7.8,2.81,26.42-.27,39-3.84,2.55-.72,4.91-2.62,5.27-4.24s-1.43-2.35-4-1.63a104.84,104.84,0,0,1-29.2,4.34c-2.2-.12-4.84-.61-5.38-2.08-.24-1.11,1.19-2.9,2.69-4.29l1.14-1q8.9-2.3,17.73-4.32,5.75-1.31,11.63-3.08a52,52,0,0,0,6.94-2.66c3.54-1.6,6.67-4.07,8.19-6.53,1.62-2.65.65-4.73-2.36-5.06a22,22,0,0,0-7,.33,82.56,82.56,0,0,0-15.06,4.38,96.62,96.62,0,0,0-22.53,12.07c-1.95.56-4,1.22-6.08,2l.47-.38c2-1.67,2.42-3.52.84-4.13-1.39-.55-3.88,0-5.89,1.4-1.68,1.13-3.4,2.34-5.15,3.6-7.42,4.53-18.45,9.08-24.72,9.7a.82.82,0,0,1-.5-.08c0-1.17,4.41-4.91,5.57-5.9,3-2.55,5.88-4.87,8.92-7q8-4.24,15.94-8.53c2.42-1.27,6.8-3.25,8.64-3a2.39,2.39,0,0,1,1.7,1.5c.42,1.33,2.83,1.46,5.38.29,2-.93,3.57-2.43,3.86-3.71.83-3.67-2.46-5.83-8-5a49.45,49.45,0,0,0-15.24,5.16,142.9,142.9,0,0,0-16,9.63l-2.14,1.14a33,33,0,0,1-8.88,3.11c-.84.08-1.7.21-2.59.37l8.19-6.19a405.15,405.15,0,0,0,34.26-25.89c2-1.69,2.29-3.51.65-4.08s-4.22.23-6.22,1.74l-28.3,21.38c-2.16-2-5.68-3.07-10.16-3.06-.89,0-1.81,0-2.77.08a38.75,38.75,0,0,0-12.44,3.78l-2.56,1.33c-2.85,1.33-5.68,2.81-8.29,4.3l-2.81,1.46a8.8,8.8,0,0,1-1.88.58,2.39,2.39,0,0,1-1-.06l-1.66-1.14a3.4,3.4,0,0,0-2.29-.35c.63-1.19.3-2.19-1-2.5-4.51-1.11-10.78-1-17.46.29,8.67-5.33,15.49-12.15,10.57-16.34-2.85-2.34-6.89-3.86-11.86-4.47-10.27-1.64-24.27-1.85-39.25-1.14,1.08-1.46,1.78-2.79,1.74-3.75-.07-1.48-2.21-1.89-4.79-.92a9.56,9.56,0,0,0-3.38,2.15q-1.53,1.56-3.16,3.09c-14.71,1.05-29.8,2.85-42.78,4.95-2.44.39-5.11,2.12-6,3.85s.44,2.81,2.88,2.42c13.08-2.12,25.85-3.64,38.23-4.57q-2.34,1.89-4.81,3.72l-16.23,11.85a444.46,444.46,0,0,0-39.14,30.31c-2,1.7-2.16,3.5-.47,4A2.75,2.75,0,0,0-13988.36-7970.62Zm71.18-50.69q14.52-.68,28.2-.19c8.41.42,16,1,20.55,4.68a2,2,0,0,1,.53,1.69,4.16,4.16,0,0,1-1.33,1.92c-11.9,9.78-43.92,20.33-55.78,23.75a440.75,440.75,0,0,1-43.7,10.14l18-14.12,19.43-15.64,11-9.36C-13919.49-8019.19-13918.37-8020.19-13917.18-8021.31Zm77.74,21.19,8.43-4.37.76-.35a28.12,28.12,0,0,1,8.14-2.39h.18a12.22,12.22,0,0,1,7.32,2.72l-.48.33a190.18,190.18,0,0,1-20,11.55c-5.39,2.67-13,5.84-18.17,5.94a1.83,1.83,0,0,1,.21-.79c1.75-3.62,6-7.82,10.92-11C-13841.26-7999.06-13840.35-7999.59-13839.44-8000.12Zm85.64-1.84c1.84-.86,3.75-1.66,5.74-2.43,4.68-1.81,11.2-3.83,15.09-3.71-2.63,1.81-12.41,4.19-15.63,4.93C-13750.33-8002.78-13752.06-8002.37-13753.8-8002Zm-104.48,2.05a2.58,2.58,0,0,0-.21.49c-1.06,3.31-5.7,7.35-10.1,10.49a65,65,0,0,1-15.58,8.41,7,7,0,0,1-2.42.46c-.75-.22,0-2,.39-2.78l2-3.25a40.8,40.8,0,0,1,8.59-9.06,25.64,25.64,0,0,1,5.18-3.07c3.95-1.56,7.83-2.18,10.77-1.7A4.6,4.6,0,0,0-13858.28-7999.91Z" transform="translate(14432.74 8061.64)"/></g></g></svg>