<svg xmlns="http://www.w3.org/2000/svg" viewBox="0 0 623.94 602.5"><defs><style>.cls-1{fill:#121212;fill-rule:evenodd;}</style></defs><title>Scat-Pack-Devil-Bee</title><g id="Layer_2" data-name="Layer 2"><g id="Layer_1-2" data-name="Layer 1"><path class="cls-1" d="M450.66,63.58c10-16.43,15.69-28.87,16.36-31.52,2.36-9.43,12.58-55-18.88-14.94-7.12,9.09-16.74,17-27.8,23.9a274.18,274.18,0,0,0-50.06-25.83C312.08-7.06,133.93-27.29,43.33,127.9-1.59,204.85-5.41,272.59,4.49,323.09,27.34,439.63,99.15,482.71,162.12,582,105.3,478.61,110,358.6,144.05,342.68c52.55-24.55,105,41,117.47,53.86s61.67,55.32,83.75,66.67,45.07-16.92,58.58-9.48c21.78,12-.67,28.72,20.73,38.1s32.3-6.83,43.2-7.69c7.56-.59-9.28,35.74-50.27,40.69-18.1,2.18-43.56-5.72-71-19.82C227.62,444,217.21,392.58,190.55,408s-42.06,77.24-21.68,99,66.73,39.58,109,47.56,103.09,14.19,107.59-.45,5.32-21.49,13.84-13.89,10.13,23,2,31.69c-4,4.27-39.2,18.28-80,14.61-51.5-4.63-96.32-12.48-105.56-14.75-18.09-4.45,112.33,49.52,195.36,23.75,28.15-8.73,4.74-33.9,18-46.48s20-9.9,40.72-33.18,27.38-40.11,41.7-62.55c60.66-95,60.19-192,26.41-271.79,48.76-34.15,76.86-95,81.4-105.92,6.62-16,10.62-54.16-19.5-16.08C571.68,95,518.27,100.66,487.93,100.78A317.77,317.77,0,0,0,450.66,63.58Zm-63.27-6.25C335.43,78.08,275.13,84,275.13,84s0,19.66,88.08,6.29c-25.95,56.62-95.94,51.9-95.94,51.9s-8.65,27.53,33.81,29.1c57.36,2.12,103.83-43.13,132.86-82.69,22.47,19.38,42.75,43.73,59.54,71.54-6.38,15.81-17.13,44.55-11.37,43.83a113.72,113.72,0,0,0,30.09-8.13,346,346,0,0,1,22.08,66.05c5.78,25.68,2.41,68.12-11.38,89.7S424.32,363,348,325,203.87,242,183.07,206.51C110.85,83.12,257.92,13.1,363.3,47.46A180.5,180.5,0,0,1,387.39,57.33Zm130.06,84.35a318.86,318.86,0,0,0-20.24-29.45c13.58.46,32.87-.46,60.25-3.89C545.88,124.47,530,135.16,517.45,141.68ZM250.3,312.25c-69-41.94-168.48-123.94-160-218.36C109.1,153.35,138.21,192.28,146,201.4a366,366,0,0,0,40.13,40.09c25.75,21.95,45.69,35.72,74.22,53.66C334.94,342,417.53,382.64,506.15,377.5A10.41,10.41,0,0,1,517,387a9.69,9.69,0,0,1-9,10.68A308.49,308.49,0,0,1,383.6,379.05,669.44,669.44,0,0,1,250.3,312.25Zm-126.38-4.54c10.15,11.48,0,26.88-13.24,13-50-52.47-69.37-107.36-54.75-166.84C65.75,215.26,88.86,258,95.24,268.2,103.91,282,104.82,286.11,123.92,307.71ZM359.17,524c-5.59,15-58.05-11.94-86.73-23s-68.19-34.11-76.19-41.43-14.73-15.35-.52-32.8,42.15,27.15,79.14,51.65S360.9,519.4,359.17,524Zm-2,18.82c-3.18,15.73-53.63,2.77-83.52-3.64s-77.51-28.35-86.5-34.34-12.82-6.32-7.1-28.4c5.56-21.43,14.07,1.27,84.9,30.77S358.12,538,357.14,542.83ZM212.86,322.69a101.71,101.71,0,0,1,11.93,4.2c2.46,1.1,39.06,63.7,89.49,99.48,3.6,2.56,16-7.76,24.84-5.62s29.57,12.45,32.43,9.19,1.59-16.38,0-19.43S298.5,358.82,299,359.32c.27.25-10.69,1.23,16,20.2,11.58,8.22,26.72,19.61,28.36,21.6,2.75,3.35-15.68,7.39-27.55-.44-17.78-11.73-37.76-40.59-59.42-66.36-4.32-5.14-24.38-14.66-39.78-18.95C209.63,313.41,207.31,322.18,212.86,322.69Zm295.39,93.45c-.43.4-10.83,1.55-16.94,7.84-6.83,7-13.8,19.48-18.76,29.47-4.29,8.63-9.07,6.51-18.83,8.93-2.59.64-13.66-17.73-20.13-19.86S412.19,440.19,410,436s4.89-11.75,6-13.74,54.89-14,54.52-13.76c-.19.11,7.86,6-11.29,10.73-8.3,2.07-22.35,5.34-23.51,6.38-1.94,1.73,10.65,10.75,21.26,7.47,12.41-3.84,23.56-5.1,38.86-18.22,3-2.62,10-9.1,14.42-8.14C512.93,407.29,509.33,415.15,508.25,416.14Z"/></g></g></svg>