<svg xmlns="http://www.w3.org/2000/svg" viewBox="0 0 762.96 175.32"><defs><style>.cls-1{fill:#121212;}</style></defs><title>SE-Logo</title><g id="Layer_2" data-name="Layer 2"><g id="Layer_1-2" data-name="Layer 1"><path class="cls-1" d="M-21055.11-7866.59l-16,26a4.2,4.2,0,0,1-3.68,2.06h-202.94l-21.21,36.13h157.63a4.43,4.43,0,0,1,3.73,6.51l-15,25.5a4.22,4.22,0,0,1-3.73,2.13h-162.7l-20.62,35.12h198.74a4.43,4.43,0,0,1,3.73,6.51l-15.66,26.66a4.2,4.2,0,0,1-3.72,2.14h-284.42a4.43,4.43,0,0,1-3.73-6.51l97.85-166.67a4.21,4.21,0,0,1,3.73-2.14h284.24A4.42,4.42,0,0,1-21055.11-7866.59Z" transform="translate(21817.48 7873.17)"/><path class="cls-1" d="M-21563.28-7728h-237.55a4.21,4.21,0,0,0-3.75,2.17l-12.32,21.52a4.32,4.32,0,0,0,3.75,6.47h282c16.62,0,36.47-11.13,44.33-24.86l35.21-61.51c7.86-13.73.75-24.86-15.87-24.86h-214.15l19.42-33.93h241.75a4.23,4.23,0,0,0,3.75-2.17l12.32-21.52a4.33,4.33,0,0,0-3.75-6.47h-282c-16.61,0-36.45,11.12-44.3,24.84l-35.22,61.53c-7.86,13.73-.76,24.85,15.87,24.85h210Z" transform="translate(21817.48 7873.17)"/></g></g></svg>