<svg xmlns="http://www.w3.org/2000/svg" viewBox="0 0 4446.67 1883.54"><defs><style>.cls-1{fill:#121212;fill-rule:evenodd;}</style></defs><title>SRT-Hellcat-Logo</title><g id="Layer_2" data-name="Layer 2"><g id="Layer_1-2" data-name="Layer 1"><path class="cls-1" d="M7967.36,50l24.29,53.78c43.07,2.77,107.31,16.57,165,32.65C8064.29,72.32,8028.23,69.08,7967.36,50Zm875.15,1144.38c13.56-47.18,27.2-87.85,20.61-136-18.16,22-32.08,40.48-47.65,57.44-24,26.19-24.72,30.6.18,56.68C8822.09,1179.17,8830.16,1184.37,8842.51,1194.35ZM8122.74,575.06c35.26,88.29,126.17,124.11,207.58,105.57C8258.81,648.74,8207,585.57,8122.74,575.06ZM7594.6,1877.16l-7.07.34a3,3,0,0,1-2.46-4.57q2.15-3.2,4.23-6.27c14.56-21.6,26.33-39.39,38.65-56.79,168.85-238.32,84.36-569.09-98.06-706-105.92-79.51-225.75-126.42-355-151.07l-45.29-8.62a2.76,2.76,0,0,1-1.5-4.67C7247.5,797.65,7385.46,695,7572.42,679.85c186.81-15.13,359.39,26.24,506.54,147.6a4.55,4.55,0,0,1,1.62,4.8l-.06.21a4.57,4.57,0,0,1-5.71,3.15c-12.38-3.72-24.84-7.22-37.05-11.44-100.67-34.74-203.07-58.59-310.62-47.11-72,7.69-141.4,25-201.86,67.17-39.58,27.57-39.87,43.72-2.48,73.31,74.06,58.61,143.46,121.11,194.07,202.54,75.06,120.8,108.48,252.89,101.93,393.39-3.49,74.86-19.31,149.26-31.59,223.54-5.8,35,1.78,52.08,35.43,49.66,119-8.59,234.22-33,336.21-98.86,24.25-15.64,43.12-39.62,62.39-63.21-79.34-4.8-156-1.61-229.69,25.14-18.18,6.59-28.44,3.67-37-14.11-83-172.91-125.44-353.81-106.76-546.34,10.88-112,40.07-138.46,152.49-142.08,53.05-1.72,104.63,5.24,151.2,33.09,120.54,72.09,241.67,143.26,360.89,217.48,45.18,28.14,87.29,34.07,133,6,20.57-12.65,41.69-24.53,61.35-38.45,16.8-11.89,18.52-26.21.47-39.76-24.8-18.62-49.81-37-74.17-56.13-41.64-32.79-82.91-66.05-122.51-104-1.86-1.78-.31-5.3,2.25-5,114.43,12.28,226.83,25.3,337.78-10.39-16-109-82-173.46-188.6-180.88-111.27-7.74-222.81-10.78-333.28,9.91-48.21,9-51.15,10.62-48.74,55.83.24,4.46-1.07,9.3-5.1,7.38-155.13-73.67-276.15-179.58-364.56-328.45a3.77,3.77,0,0,1,2.71-5.59c89.75-14.27,172,.4,250.6,34.6,39.76,17.3,79.14,38.1,113.9,63.78,107.77,79.64,230.36,101.74,360,100.07,20.2-.26,40.9-1.85,60.43-6.66,38.22-9.41,51.17-35.13,29.13-67.11-36.66-53.2-73.63-107.59-118.76-153.29-164.75-166.87-372.33-242.21-600.68-268.36-47.1-5.39-94.84-4.9-142.06-9.5-26.75-2.6-53.51-8.3-79.44-15.6-126.73-35.66-252.44-75.46-384.11-89.94-9.14-1-18.36-1.19-32.53-2,31.5,91,86.2,162.84,141.84,241.65l5.15,7.33c1.37,2-1.1,4.63-3.29,3.66l-6.82-3-48.6-21.58c-84.12-37.4-170.27-30.93-256.55-10.53-91.31,21.58-207.5,64.88-287.05,100.11l-13,5.92c-3,1.36-6.11-3.07-3.83-5.42q4.55-4.68,9.15-9.27c111.27-110.77,248.71-176.6,398-222.67-23-49.58-46.28-99.56-73.31-157.71a2.74,2.74,0,0,1,2.58-4c58.14.29,107.6-.56,157,1.17,148.2,5.22,290.64,44,434.43,75.25,31.42,6.83,64.61,5.45,102.58,8.25L7879.46-1.92c-.9-1.95,1-4.22,3.14-4.1,6.67.37,12.67,2.17,17.48,3.28C8159.88,57,8400.81,160.2,8617,316.75c102.53,74.23,182,170.56,242.38,282.33,19.85,36.75,29.06,73.77,9.65,113.41-16.84,34.38-7.27,67.79,2,101.79q23.7,86.82,45.32,174.2c22.66,91.35,4.08,178.51-38.85,258.51-30,55.9-72.11,105.33-109.15,157.4-1.5,2.11-2.69,2.91-15.54,11.57a2.52,2.52,0,0,1-3.9-2.43s.89-7.55,1-8.69c3.18-53.9-26.64-109.33,39.23-146.49-13.66-.4-27.6-2.71-40.95-.83-39.33,5.51-78.31,13.54-117.66,18.87-20.59,2.79-31.31,12.66-40.49,31.37-28.39,57.86-76.59,99.35-119.69,145a5.7,5.7,0,0,1-6.5,1.34l-.05,0a5.71,5.71,0,0,1-3.5-5.71c3.36-52.18,4.32-104.68,11.37-156.35,5.94-43.49,6.18-50.63-34.11-77.85l-78.67,87.31a2.88,2.88,0,0,1-4.95-1.29s-20.16-89.06-25.73-113.27a12.88,12.88,0,0,1,.24-5.75c2.89-11.59,12.27-28.34,7.8-33.77-17.61-21.45-39.55-39.33-62.3-55.89,5.91,47.33,2.68,54.08-51.73,81.82-2.6,1.33-4.77,2.25-5.62-.54-7.42-24.14-17.89-47.28-20.21-71.22-5.89-60.75-47.87-79.67-97.4-84-23.94-2.09-48.32-2.3-72.5-1.84-95.19,1.84-86.57,31.08-105.21,85-3.8,11-7,22.18-9.95,33.4-6.67,25.36-4.57,30.61,22.77,43.15,5.64,2.59,10.64,3.85,18.65,8.15,1.88,1,2.49,2.88,1.17,4.56-7.32,9.27-13.77,16.26-18.3,24.34-9.33,16.66-20.61,33.25-25.23,51.35-12.68,49.69,0,68.29,49.3,80.26,8.06,2,15.93,4.72,26.73,8.13,2.2.69,3.23,2.71,1.79,4.51-15.44,19.37-28.44,36.79-42.85,53-15.78,17.72-19.61,34.67-10.07,58,32.12,78.67,28.72,83.6,111.07,37,37.21-21,66.34-56.35,98.71-85.62a2.54,2.54,0,0,1,4,1c20,50.07-23.92,93.54-34.9,147.28l137.24,3.61c-51.74-10.38-57.72-53.59-68.89-92.18-19.92-68.78-42.65-137.13-37.75-210.4,2.85-42.51,13.63-82.64,33.82-124.27.81-1.69,4.17-1.24,4.33.62,2.22,25.63-17.6,53.16,11.86,63.73,1.56.56,2.75,1.57,2.48,3.21-5.84,36.26-13.88,70.29-15.57,104.62-1.21,24.47,5.16,49.11,41.55,42.59,3.48-.63,6.37,2,5.12,5.28-19.54,51.73-5.22,88.23,24.68,123.69,33.26,39.45,55.72,38.55,84.13-3.73,11.42-17,20.45-35.58,31.62-55.92a2.68,2.68,0,0,1,4.83.25c28.27,60.62,29.72,121.45-8.13,173.23-76.09,104.09-151.8,167.81-270.47,207.24C7971,1852.06,7925.75,1860.79,7594.6,1877.16Z" transform="translate(-4479.44 6.03)"/><path class="cls-1" d="M5540.85,539a39.44,39.44,0,0,0-3.06-17.92,38.73,38.73,0,0,0-17.55-19.15,49.36,49.36,0,0,0-22.84-5.37q-4.89,0-9.78,0l-622.56-.15a246.2,246.2,0,0,0-60.37,7.31,186.43,186.43,0,0,0-44.11,17.05,123.57,123.57,0,0,0-33.12,25.82c-13.24,14.89-21.48,33.33-21.49,53.54,0,27.49,15.67,51.39,36,68.44a152.09,152.09,0,0,0,27.57,18.34c1.23.65,2.47,1.27,3.71,1.89l-187.61-.09a115,115,0,0,0-11.59.55A79.69,79.69,0,0,0,4529.31,708q-9.31,7.83-17.82,16.56-8.1,7.74-16.33,15.34a51.06,51.06,0,0,0-9.86,12.28,44.21,44.21,0,0,0-5.12,13.83,42,42,0,0,0,3.89,27,43.24,43.24,0,0,0,35.5,23.72c2.19.17,4.4.22,6.6.17h679.56a248.14,248.14,0,0,0,60.92-7.38,188.08,188.08,0,0,0,44.48-17.19q4.92-2.67,9.59-5.75c6,18.9,23.37,30.46,42.26,30.39l146.19,0c16,0,31.22-2.56,45.73-8.78A106.24,106.24,0,0,0,5577.38,795,203,203,0,0,0,5595,779.65q8.69-8.29,17.28-16.67,25.17-24.48,50.31-49a43.75,43.75,0,0,0,7.87,10.38l177.05,180.54a97.27,97.27,0,0,0,11.57,9.68c17.8,12.83,38.72,21.33,60.85,21.35l137.23-.09a42.58,42.58,0,0,0,40.26-27.35,44.24,44.24,0,0,0-10.13-47.06c-1.33-1.37-2.68-2.72-4-4.07q-10-10-20-20-31.71-31.36-63.45-62.7c17.76-1.45,39.24-4.16,56.63-9.1q10.24-2.93,20.3-6.43c21.35-7.42,40.51-16.64,58.82-29.65q6-4.26,11.82-8.76,7.41-5.71,14.55-11.78t14.37-12.44q14.72-13,29.21-26.14,11.64-10.62,22.55-22c8.76-9.11,20.53-21.83,28.92-32.14a44.83,44.83,0,0,0,33.66,17l190.19-.12L6367,743l-1,1.16a46,46,0,0,0-10.19,20,43.08,43.08,0,0,0,5.49,32.53l.58.92.63.88a44.22,44.22,0,0,0,36.34,18.5l151.59-.09a146.54,146.54,0,0,0,18-.75c13.26-1.37,26.24-5.79,37.08-13.67a163.76,163.76,0,0,0,16.88-14.59q11.78-11.37,23.48-22.83l135.63-131.81h214.14a63,63,0,0,0,22.17-4.28l-.15.06a71.48,71.48,0,0,0,19.38-11.22c4.33-3.57,14.64-13.51,18.34-17.07q14.37-13.89,28.64-27.9c14.84-14.41,17.87-35.76,7.92-52.89-8.48-14.61-23.41-22.05-39.87-22H6344.35a55.47,55.47,0,0,0-11.85,1.18l-1.39.32a45.49,45.49,0,0,0-16.71,8.1,69.85,69.85,0,0,0-6.55,5.72l-33.32,32.4c-6.15-17.43-19.14-30.61-36.22-38.22a96.15,96.15,0,0,0-13.78-4.92,146.18,146.18,0,0,0-24.84-4.38q-11.59-1.07-23.27-1-13.74,0-27.49-.14c-67-.62-192.9-1.07-266.94-1.11q-20.61,0-41.21.12-103,.56-205.92,1.37-8.08,0-16.13.76c-22.57,2.16-42.36,9.94-59.85,24.59C5552.22,528.29,5547.4,532.64,5540.85,539ZM5366,709a74.93,74.93,0,0,0-3.17-18.37,81.4,81.4,0,0,0-9.56-20.51,106.55,106.55,0,0,0-27.84-28.6,158,158,0,0,0-30.94-17q-3.18-1.31-6.39-2.51l144.69-.07a98.16,98.16,0,0,0,26.15-3.08Zm361.77-58.59,3-2.93c7.21-7.07,12.08-10.67,17.76-12.48a52.58,52.58,0,0,1,10.6-2.14,155.32,155.32,0,0,1,16.28-.73h171.85a100.94,100.94,0,0,1-26.91,12.43c-15,4.36-37.94,5.9-53.07,5.94Zm869.57,111.66c9.44-9.09,18.24-17.73,23.39-22.75,43-41.86,140.7-136.72,141.51-137.52,1-1,2.29-2,3.1-2.79a6.83,6.83,0,0,1,4.59-1.74h225.51c6.75,0,13.45-3.11,18.52-7.06,5.41-4.26,42.44-40.69,45.05-43.24,1.44-1.38,4.15-4.88,1.81-8.92-1.93-3.43-5.48-4.09-8.63-4.09H6347.9c-8.32,0-9.43-.18-14.84,5,0,0-46.52,45.27-46.91,45.63s-4.13,3.5-1.74,8.1a9,9,0,0,0,6.91,4.56l269.78-.15c3,0,3.48.83,4.18,1.79,0,0,.88,2-.38,3.22-4.84,4.56-171.78,165.73-171.78,165.73-2.78,3.28-3,7.13-1.32,9.72a8.21,8.21,0,0,0,6.83,3.43l152.19-.09c14.73.19,22.08-1.42,28.92-4.73C6584.28,774,6589.92,769.22,6597.36,762.06ZM5509.25,781c31.25,0,45.82-13.05,60.92-27.32,16.28-15.42,138.42-134.8,138.42-134.8,19.44-18.89,38.11-22.71,67.14-22.71h211.33c19,0,28.38,1,31.63,8,2.26,4.87-.18,10.12-8.27,19.08a348.38,348.38,0,0,1-29.16,28.33,136.92,136.92,0,0,1-50.83,27.61c-23.89,7-56.74,7.37-63.05,7.37L5701,686.38c-5.68,0-10.86,6.88-5.2,12.38l176.87,180.38c2.71,2.82,22.88,20.81,47.4,20.81,22.85,0,115.9-.09,129.58-.09h7.73c7.24,0,9.07-8.5,4.4-13.05-.35-.36-3.38-3.46-3.91-3.94-14.81-15-136.79-135.25-137.45-135.89-1.67-1.63-3.62-3.4-3.16-4.86a3.18,3.18,0,0,1,3.16-2l47.58,0c19.81,0,56.53-2.81,78.62-9.16,43.73-12.57,62.23-26,78.78-38.71,9.69-7.45,21.17-17.09,55.86-48.45,20.28-18.28,47.5-48.73,52.37-56.27,4.44-6.85,11-18.75,7-29.73-4.63-12.71-17-24.63-64.22-24.72-27.56,0-33.61-.27-78.61-.54-74.24-.44-179.41-.71-215.87-.71-58.6,0-247,1.49-247,1.49-21.46,0-37.75,4.26-52.95,16.95a328.52,328.52,0,0,0-24.85,23.22c-6.72,6.92-198.3,192.5-199,193.22-1.29,1.46-4.33,5.42-3.13,9,1.33,4.08,5.18,5.21,7.82,5.21ZM5252.46,648.88c-6-1.48-245.24-54.33-245.24-54.33-2.72-.71-4.6-2.24-4.6-4,0-2.42,3.58-4.41,8-4.41l422.25-.2c13.72,0,23.68-2.41,33.11-10.87,8.74-7.86,21.66-20.06,28.05-26,9.15-8.41,11.86-10.83,10.6-14.05s-9.08-2.51-16.72-2.51L4865,532.4c-68,0-123.06,30.35-123.06,67.76,0,26.37,30,53.19,69.65,65.14,9.86,3,20.15,5.93,20.15,5.93s187.44,42.22,199.16,45c3,.69,5.09,2.27,5.09,4.16,0,2.51-3.12,4.52-9.9,4.52l-440.51-.2c-13.72,0-23.38,2.78-33.12,10.88-5.24,4.36-11.07,9.88-15.65,14.59,0,0-11.79,11.26-17.36,16.31-.3.3-6,5.18-3.33,10.22,2.49,4.67,6.5,4.21,9.49,4.21h680.12c68.66,0,124.34-30.65,124.34-68.48,0-28.69-32-53.22-77.32-63.42Z" transform="translate(-4479.44 6.03)"/></g></g></svg>