<svg xmlns="http://www.w3.org/2000/svg" viewBox="0 0 671.82 354.36"><defs><style>.cls-1,.cls-2{fill:#121212;}.cls-2{fill-rule:evenodd;}</style></defs><title>Super-(Bee)-Logo</title><g id="Layer_2"><g id="Layer_1-2"><path class="cls-1" d="M441.08,94.69c-2.18,0-6.15,1.41-7.69,3.65L426,108.41c-1.86,3.21.29,5.91,4.16,6.78,13.6,1.17,29.5,2,29.5,2a12,12,0,0,0,10.12-5.48l6.93-7.83c1.55-2.24-1.53-5.49-3.71-5.69C473,98.22,455.08,95,441.08,94.69Z"/><path class="cls-2" d="M210.09,34.4a179.12,179.12,0,0,0-20.62,10,2.85,2.85,0,0,0,.67,5.23c13.65,3.64,23.29,6.86,36.56,11.7,30.07,11,72.36,27.63,99.62,44.07a2.85,2.85,0,0,0,3.91-1,2.88,2.88,0,0,0,.41-1.55,25.48,25.48,0,0,1,.73-6.79,9.34,9.34,0,0,1,2.12-3.92c6.64-6.29,22.44,1.78,27.71,4.63a2.85,2.85,0,0,0,3.52-4.37C346.81,71.75,323.19,51,308.12,38.94a148.21,148.21,0,0,0-30.06-19.09c-8.13-3.7-20-3.76-28.33-1Q229.6,25.83,210.09,34.4ZM351.36,86.28a63,63,0,0,0-7.3-1.86c-6.44-1.32-14.17.75-17.06,7.25a25.84,25.84,0,0,0-1.81,6.44,260.35,260.35,0,0,0-24.26-12.59Q286.14,78.62,271,72.38q-16.53-6.84-33.31-13.08-19.29-7.47-39.23-13.23c15-7.61,37.88-16.5,53.11-21.76a36.71,36.71,0,0,1,24.17.74A125.35,125.35,0,0,1,299,39.14,378.67,378.67,0,0,1,331,66.22L347.6,82.35Z"/><path class="cls-2" d="M390.07,82.88l1.6,2.63c2.4,4.39,7.17,4.76,11.6,4.35a98.7,98.7,0,0,1,23.11-.11,9.84,9.84,0,0,0,4.2-.34c4-1.19,4.7-5.68,3.4-9.07q-3-7.64-6.76-15c-4.14-7.83-13.65-12.78-22.33-14.78a95.56,95.56,0,0,0-14.1-2.33l-17.6-2A1.92,1.92,0,0,0,371.06,48a1.94,1.94,0,0,0,.17,1A287.84,287.84,0,0,0,390.07,82.88ZM376.21,50.5l14.17,1.6h.1a64.56,64.56,0,0,1,23.21,5.76,24.38,24.38,0,0,1,8.81,7.32,31.94,31.94,0,0,1,3.18,5.58l4.51,10.28a7.6,7.6,0,0,1,.45,3.24,1.65,1.65,0,0,1-.81,1.27,5.38,5.38,0,0,1-3,.37,101.75,101.75,0,0,0-24,.11,12.89,12.89,0,0,1-5.88-.57,3.81,3.81,0,0,1-1.56-1.39l-2-3.23,0,0A284.84,284.84,0,0,1,376.21,50.5Z"/><path class="cls-2" d="M366,112.89c6.21,3.22,13.92,10.14,20.4,18.32,4.83,6.11,21.55,27,21.57,27,.52.67,3.73,1.26,4.4.74s1.44-2.6.92-3.27l-20.69-28.41c-8-10.21-13.54-19.15-25.26-24-4.86-2-28.08-11.91-30.7-3.92-2,6.1,25.66,32,28.45,34.7,9.65,9.59,17.24,14.91,27.44,23.92a1.55,1.55,0,0,0,2.18-.14,1.61,1.61,0,0,0-.14-2.17c-6.1-6.9-22.52-22.88-26.56-26.74C352.21,113.84,349,104,366,112.89Z"/><path class="cls-2" d="M114.65,129.26c-39.6,30.27-43.44,50.9-83.26,49.53,29.19,16.17,46.27,27,57.3,42s29.54,31.39,29.54,31.39c1.33-3.78,6.52-13,6.52-13S94.5,192,114.65,129.26Z"/><path class="cls-2" d="M139.57,114.56S112.2,162.89,136,223.35l18.75-21s-12.91-58.69,12.12-97.23A126,126,0,0,0,139.57,114.56Z"/><ellipse class="cls-1" cx="228.01" cy="246.46" rx="44.1" ry="22.02" transform="translate(-100.41 176.66) rotate(-35.23)"/><path class="cls-2" d="M203,144.71a184.76,184.76,0,0,0-23.4,3.55c-1.6.21-3.79,2.69-2.58,4.29l4,5.4a8.83,8.83,0,0,0,7.68,3.44s12.5-1,21.39-3.37c1.6-.22,4.35-3,2.88-5.26l-4.1-5.6C207.6,145.56,204.61,144.6,203,144.71Z"/><path class="cls-2" d="M246.94,139.28a184.11,184.11,0,0,0-23.5,2.79c-1.61.16-3.88,2.56-2.72,4.2l3.77,5.53a8.81,8.81,0,0,0,7.56,3.69s12.53-.62,21.49-2.67c1.61-.17,4.45-2.8,3.06-5.16l-3.92-5.73C251.52,140.29,248.56,139.23,246.94,139.28Z"/><path class="cls-2" d="M289.89,138a195.27,195.27,0,0,0-23.26-.67c-1.62-.06-4.2,2-3.28,3.79l2.57,6.15a8.78,8.78,0,0,0,7,4.71s12.49,1.13,21.65.34c1.62.06,4.8-2.15,3.74-4.68l-3.08-6.22C294.28,139.66,291.5,138.21,289.89,138Z"/><path class="cls-2" d="M332.84,142.33a184.54,184.54,0,0,0-23.42-3.42c-1.59-.27-4.41,1.47-3.71,3.35l2.2,6.32c.69,1.88,2.1,3.69,6.17,4.85,0,0,12.25,2.67,21.44,3,1.6.26,5.2-.87,4.46-3.51l-2.29-6.55C337,144.49,334.42,142.71,332.84,142.33Z"/><path class="cls-2" d="M200.69,191c-2,1.09-59.59,35.9-62.84,78.29C135.17,304.4,176.6,305,207.3,293.93c22.38-8,42.46-20.71,52.6-30,26.66-24.38,33.29-43.42,34.42-46.28.6-1.54,1.95-2.93,1.16.13l-4,11.73c-.39,1.22-1.27,11.86,11.9,9.11s15.3-18.95,15.62-20.48c2.19-10.5-1.15-57.93-60.88-56.58C194.58,163,148,216,148,216s-4.81,4.81-.17,6.57c2.32.88,4.77,0,6.72-2.18l1.7-1.58s1-1,2-.67c0,0,2.7,1.29,5.27-1.54S189.7,193.18,198.88,189,202.57,190,200.69,191Zm63.69,22.21c3.05,1,16.23,2.36,19.19-8.22,6.31-22.6-21.45-24.7-27.12-24.26s-11.91-1.15-3.9-2.18c32.31-4.14,45.76,17.66,31.49,45.7s-45,53.11-76.6,64.95-60,7.07-62-10.38,19.26-32.4,27.12-36.42,5.93,4.76,5.93,4.76c-.13,10.28,6.9,8.51,9,3,2.46-6.44,15.11-20.22,29.09-28.62C246.05,203.84,261.33,212.26,264.38,213.21Z"/><path class="cls-2" d="M555.54,287.21c-3.91-2.8-30.66-21.08-39.66-26.54-2.41-1.47-3.12-1-5.83-.31l-10.27,3.41s-3.09,1.61.27,2.13l23.76,4.56a17.56,17.56,0,0,1,4,1.6l27,17.58C556.22,290.77,559.44,290,555.54,287.21Z"/><path class="cls-2" d="M419,174.72s3.95.25,5.8,3.13,4.36,2.19,5.52,1.39,1.56-3.28.37-5.65c-2.36-4.7-11.4-6.19-18.76-7.22l-13.22-1.84a77.06,77.06,0,0,0-9.35-.67,12.65,12.65,0,0,0-7.38,2.47c-1.75,1.2-2.82,3-.81,5.44s3.61,2.2,5.36,1a8.27,8.27,0,0,1,4.32-1.45C396.48,170.65,410.47,172.92,419,174.72Z"/><path class="cls-2" d="M416.94,184.25a24.09,24.09,0,0,1,6.2,3.85c3.49,3.16,4,2.15,5.7,1,1.52-1-4.2-8.21-5.07-8.91-3.27-2.63-4.52-2.41-10.22-3.52a138.27,138.27,0,0,0-17.46-2.28c-2.31-.08-4.58-.4-6.48,1.11-1.37,1.08-1.48,3,.07,5.27s2.81,2.89,4.17,1.81a5.08,5.08,0,0,1,3.27-.89C400.74,182,409.11,183,416.94,184.25Z"/><path class="cls-2" d="M418.11,194.39a10.86,10.86,0,0,1,3,1.1c3.07,2.09,3.56,1.91,4.52.78s-2.74-5.29-3.59-5.93c-3.17-2.39-4.06-2.41-8.61-3.29a67.16,67.16,0,0,0-12-1.49c-1.74,0-3.52-.23-4.51,1.26-.7,1.07-.24,2.89,1.56,5s5.36.59,6.25.52A55.77,55.77,0,0,1,418.11,194.39Z"/><path class="cls-2" d="M420.74,206.65c1.73,2.86,3.81,2.47,4.2,1.06.62-2.2-1.06-5.42-1.81-6-2.84-2.3-2.61-2.35-5.93-3.12a36.77,36.77,0,0,0-8.56-1.25c-1.17,0-2.44-.16-2.68,1.33-.17,1.06.67,2.85,2.49,4.9s4.45.47,5,.39C415.39,204,419.42,204.47,420.74,206.65Z"/><path class="cls-2" d="M655.33,180.13c6.08-12,18.67-36.49,11.74-50.6-6.52-13.28-13.32-4-14-1.93-1.61,5.32,1.84,9.55,2.52,10.61,5.92,6.58-2.27,27.13-2.88,28.59-.16.38-.56,1.66-1.16,3.38l-3.33-8.87c-3.11-11.92-8.44-18.28-12.39-24.73l-.25-.37A92.15,92.15,0,0,0,622,121c-1.31-30.44-19.83-43.64-21.35-44.8-2.24-1.72-3.65-.15-3.65-.15L584,83.5c.67,5.74,8.95,6.19,11.77,6s2.8-.18,4.32,1.54c5.22,5.87,8.24,13.12,9.81,20.71A110.23,110.23,0,0,0,583.72,99.4c-14.47-4.65-33.39-7.49-48.57-6.55-14.92.8-30.41,4.42-42.47,11.68,1.11-5.79-.84-10.85-5.71-16a16.61,16.61,0,0,0-10.83-5.78l-26.27-3.26A97.55,97.55,0,0,0,443,62.11a56.14,56.14,0,0,0-12.35-16.34,29.78,29.78,0,0,0-11.09-6.7c-8.63-3.36-23.71-6.22-33.79-7.66a5.4,5.4,0,0,0-1.2,0C360,28.52,352.43,31.68,350.22,45a17.79,17.79,0,0,0,.7,6.68c.25.82-1,.5-1.91-.41-19.38-18.56-36.31-30-59.77-44.52A46.51,46.51,0,0,0,276.6,1.49c-9.17-2.48-19.74-1.62-28.28.78-7.14,2-22.27,7.49-29.25,10.19a256.13,256.13,0,0,0-44,21,6.29,6.29,0,0,0-.72.52,13,13,0,0,0-2.76,2c-8.79,7.18-10.54,16.11-4.6,21.77,2.53,2.51,9.25,4.83,12.68,5.78,13.34,3.67,26.54,8.16,39.57,12.82,8.34,3,11.4,4.12,19.66,7.35-23.76-4.12-38.77-2.37-66.37,3.65a181.3,181.3,0,0,0-55,20.11c-14.65,8.32-26.09,19-37.1,31.4l-6.56,6.83c-7.33,7-16.7,14.41-26.82,16.9a42.84,42.84,0,0,1-15.52,0,109.29,109.29,0,0,0-13.77-1.29c-5.36-.39-14.16.68-17,6.53a8.64,8.64,0,0,0,0,7.32c1.38,3,4.47,6,7.37,7.88Q23,192.69,38.61,200.9c10.8,5.87,22.57,12.82,31.5,21.48L88.22,244.5l0,.05a100.42,100.42,0,0,0,16.57,15.68c-1.23,3.61-15.37,47.94,22.88,76.1a104.35,104.35,0,0,0,46.38,13.73l43.4,4.27s43,1.78,84-20.59c0,0,52.5,13.57,97.4-25.14,0,0,10-12.48,25.33-11.84,0,0,37.72-3.54,57.3-2,17.23,1.36,52.23,8.29,79.19,12.53,0,0,17.47,3.88,30.1-5.38L617,285a10.9,10.9,0,0,1,10.25-1.73,23.63,23.63,0,0,0,5.24.88c2.55.25,8.12-11.6,8.12-11.6,4.15-7.16,16.84-32,21.43-41.09a29.51,29.51,0,0,0,6.66-6c6.19-7.48,2.2-16-3.09-22.35a27.73,27.73,0,0,1-3.81-6.36,5.24,5.24,0,0,0-.6-1ZM538.79,288.87l4,.69c1,.32,4.21,1,4.57,0s-1.22-2.18-2.16-2.75l-14-9.07-3.37-2.44a18.26,18.26,0,0,0-6.36-2.73l-21.61-3.78c-1.69-.32-3.92-.95-5-2.61a3.19,3.19,0,0,1,1.64-4l8.17-3.2,5.15-1.79.1,0a3.76,3.76,0,0,1,1.32-.36,10,10,0,0,1,2.51.22c3.15,1.1,30.19,19.35,34.76,22.43,3.49,2.7,4.51,2.74,9.12,6,5.36,3.8,15.36,2.86,21.44-.74l11.64-7.37s6.22-4.34,9.93-5.61c1.19-.41,2.09-.73,2.8-1a48.53,48.53,0,0,0,7.25-2,23.68,23.68,0,0,0,1.58,5.38L585,291.92c-4.88,2.75-8.88,6.29-23.6,3.81-94.78-20-110.45-11.83-159.63-8.87-16.82,1-38.27-2.87-43.51-11.74-5.71-9.67,5.54-20.07,6.31-20.85,3.17-3.22,6.32-2.92,23.45-.29,47.55,7.32,46.78-25.68,41.74-17.9-1.73,2.68-14.35,10.9-27-9.09-24.73-39.09-57.52-70.18-60.92-67.36-1.69,1.41-8.52,0-18.58-1.43-16.08-1.41-17.73-7.66-19-10.88-2.71-6.12-2.22-10,1.76-10.89,3.19-.75,13.14-1.68,33.47,5.54,10.47,3.72,20.94,12.14,28,17.13,6.24,4.39,11,4.1,7.17-.5-21.25-25.69-92.33-52.15-97.93-49.52-3.13,1.47-7.95,17.87-9.09,22.06a10.42,10.42,0,0,0-7.62,2.71,8.88,8.88,0,0,0-1.7,1.82,2.27,2.27,0,0,1-2.5.13,13,13,0,0,0-8.71-2.88c2.76-9.95,6-22.23,10.33-29.13-4.52-.81-18.47-4.17-21.85-3.7-7.45,12.86-11,30.59-12.36,35.43a14.68,14.68,0,0,0-7.11,3.77,7.68,7.68,0,0,0-1.57,2.42c-.21.53-1.37.46-1.94,0a15.74,15.74,0,0,0-10.16-3.13A205.76,205.76,0,0,0,177,142.35a10.36,10.36,0,0,0-6.09,3.76,10.53,10.53,0,0,0-2,4.18,10.85,10.85,0,0,0,1.49,6.38s2.61,3.73,4.24,5.63c3.26,4.12,16.07,13,15.48,17,16.47-9.23,61.07-31.34,102.46-15.5.44,0,52,20.6,25,79.62-5.14,11.23-17.93,28.6-27.7,36-9.05,6.82-15.07,5.82-7.45-15,4.28-11.65-7.19-12.39-14.64-3-6.65,8.4-62.55,56.44-117.5,39.54-4.87-1.5-29.45-19.87-8.45-55.08,3.9-6.54,8.33-13.39,2.54-13.62s-7.06,1.09-10.12,4.76c-5.09,6.11-29,42.82-7.88,74,12.11,17.87,29.46,23.81,65.51,20.78,12.81-1.07,57.74-8,95.41-43.16,18.36-17.17,36.35-36.17,41.33-65.52a102.59,102.59,0,0,0,1-18.83s-.56-4.37,1.12-4.52,2,4.36,2,4.36,7.91,48.86-53.86,95.64c-15.46,11.71-29.64,20.6-44.51,26.26-40.17,15.3-82.33,12.85-101.48.28-21-13.79-25.83-44.62-15.8-70.05l-2.88-2.07a4.67,4.67,0,0,0-.68-.57,90.66,90.66,0,0,1-17.28-15.8L78,215.55l-.39-.43a99.34,99.34,0,0,0-15.77-12.55c-5.26-3.4-12.81-8-18.35-10.89q-15.2-8-29.57-17.34a16.84,16.84,0,0,1-2.36-1.91c5-1.08,13.19-.22,18.32.58,13.56,2.47,25.38.08,36.7-7.84A113.36,113.36,0,0,0,88.22,146c4-4.49,8.19-8.49,12.55-12.63a123.61,123.61,0,0,1,22-16.7c17.29-9.73,32.62-14.88,52-19a237.44,237.44,0,0,1,28.56-4.44,138.86,138.86,0,0,1,31.56.79c11.11,1.68,22.08,3.34,32.93,6.27l35.56,10.07c31.39,11.44,54.58,31.68,55,26.67.58-7.74-34.32-27.54-51.37-36.47C268.42,80.46,225.26,64,185.47,53.07c-1.88-.53-6.65-2.87-6.49-5a8.89,8.89,0,0,1,2.31-3.84l.16-.09a243.4,243.4,0,0,1,41.89-20.06s-10.8,4.55.06,0c10.87-4.23,16-6.52,28.23-9.85,9.08-2.6,12.55-2.37,22.45-.58a26.3,26.3,0,0,1,8.58,3.57c39.09,24.66,65.87,49,95.1,83.9,0,.08,9.93,12.42,22.06,28.43,11.56,15.25,25.14,33.89,34,46.07l2.2,4.36a9.85,9.85,0,0,1,.49,4.08L435.4,233.4A25.61,25.61,0,0,1,421,254.33a41.05,41.05,0,0,1-19.69,2.94l-12.36-.79a81.07,81.07,0,0,1-13.56-1.68,10.29,10.29,0,0,0-12.32,4.69l-3.15,5c-1.64,3.3-.67,8.17,1.7,10.86a12.63,12.63,0,0,0,5.2,3.34,85.31,85.31,0,0,0,26.12,5.44,171.13,171.13,0,0,0,28.8-1.24A407.26,407.26,0,0,1,464,280.44a234.38,234.38,0,0,1,47.52,3.72l27,4.68ZM414.39,109.7c-1.84,1.81-3.45,3.82-6.62,4.83a19,19,0,0,0-5.65,2.63c-3.61,2.86-5.11.74-6.71-1.14-3.71-4.36-7.2-8.22-9.51-11.21h0c-.81-1-1.13-3.82,1.82-7.22,2-2.32,3.43-5.36-.29-11.27-7.75-12.3-8-11.81-15-24.33,0,0-6.45-11.28-5.87-16s6.32-4.86,9.29-4.39,7.41.62,11.23.93Q397.6,44.19,408,46.73a60.35,60.35,0,0,1,7.86,2.52c13.32,4.81,21.24,23.42,24.47,36.23a6.08,6.08,0,0,0,4.86,4.3s22,2.86,28.66,3.56c5.34.82,8.44,7.08,8.39,8,.06,3.59-2.26,6.15-6.22,10.42-6.72,7.24-7.81,9.9-16.22,9.65-3.87-.11-6.75-1.63-14.95,8.48-7.49,9.22-1.42,12.59-1.42,12.59,1.12,1.47-.63,1.93-6,1s-16.53-.57-14.82-.66-8.44.42-8.05-2.6,6.46-8,14.93-9.95,16.05-.47,17.75-9.45l-21.08-1.53s-11.18-.84-5.1-12.18,4.59-7,7.1-12.45c.7-1.11-.05-3.21-1.77-1.09S416.23,107.9,414.39,109.7ZM222.71,138.8a189.73,189.73,0,0,1,24.23-2.86,11.29,11.29,0,0,1,8.47,3.86l4.23,6.2a6,6,0,0,1-.33,6.42,7.77,7.77,0,0,1-4.93,3.39,147.6,147.6,0,0,1-22.28,2.76,12.08,12.08,0,0,1-10.36-5l-3.86-5.63a4.84,4.84,0,0,1-.76-3.84,6.83,6.83,0,0,1,1.3-2.68l1.47-1.39.18-.13A6.21,6.21,0,0,1,222.71,138.8Zm43.86-4.52a197.58,197.58,0,0,1,23.59.68,11.09,11.09,0,0,1,7.72,4.95l3.27,6.63a5.94,5.94,0,0,1-1.2,6.24,7.62,7.62,0,0,1-5.27,2.65,146.76,146.76,0,0,1-22.09-.35,11.9,11.9,0,0,1-9.41-6.36l-2.63-6.29a4.82,4.82,0,0,1-.17-3.76,6.74,6.74,0,0,1,1.64-2.44l1.62-1.16.19-.1A6.11,6.11,0,0,1,266.57,134.28Zm-88.94,11.1a202.47,202.47,0,0,1,25.11-3.74,11.87,11.87,0,0,1,8.94,3.64l4.61,6.14a6,6,0,0,1-.14,6.54,8.09,8.09,0,0,1-5,3.62,157.75,157.75,0,0,1-23.08,3.57,12.7,12.7,0,0,1-10.95-4.76l-4.2-5.59a4.87,4.87,0,0,1-.92-3.88,6.86,6.86,0,0,1,1.27-2.77l1.48-1.46.18-.14A6.57,6.57,0,0,1,177.63,145.38ZM342.7,199.61c1.83,25-3.92,48-18.91,69a174.71,174.71,0,0,1-47.7,45,1.93,1.93,0,0,1-2.07-3.25,171,171,0,0,0,46.63-44,105.31,105.31,0,0,0,14.84-30.74A94.84,94.84,0,0,0,338.88,217a119.58,119.58,0,0,0,0-17.14l-.17-4.19a1.93,1.93,0,1,1,3.85-.15Zm5.82-9.64a1.92,1.92,0,1,1,3.76-.82,105.15,105.15,0,0,1-12.22,76.11,153.9,153.9,0,0,1-43.38,46.9,1.93,1.93,0,1,1-2.23-3.14,150.09,150.09,0,0,0,42.29-45.73A101.26,101.26,0,0,0,348.52,190Zm13.79,13.94a1.92,1.92,0,1,1,3.84-.27,107,107,0,0,1-16.87,65.51,162.5,162.5,0,0,1-40.56,42.41,1.92,1.92,0,1,1-2.25-3.12,158.66,158.66,0,0,0,39.58-41.38A103.21,103.21,0,0,0,362.31,203.91Zm7.69,5.81c-.83-1.07-.95-2.39.12-3.22s2.3-.31,3.14.76c7.38,9.44,13.24,16.51,20.17,26.28a2.46,2.46,0,0,1-4,2.85C382.53,226.67,377.34,219.1,370,209.72Zm274.66-25.95a3.51,3.51,0,0,1-1.57.74,16.88,16.88,0,0,0-2.42.63c-3.08,1.05-6.06,3.48-6.7,6.84a7.74,7.74,0,0,0,.63,4.64c.14.29.92,1.77,1.54,1.78a3.84,3.84,0,0,1,1.5.24,2.54,2.54,0,0,1,1.41,1.1,5.24,5.24,0,0,0,2,2.2,4.57,4.57,0,0,0,4.4-.23,12.07,12.07,0,0,0,2.45-1.76l0,0a21.05,21.05,0,0,0-3.17-2.94c-1.05.84-2.89,1.79-4.33,1.11a2.08,2.08,0,0,1-1.16-1.49,1.77,1.77,0,0,1,.16-1.37,2.3,2.3,0,0,1,1.23-.87,18.37,18.37,0,0,1,3.52-.74,7.31,7.31,0,0,0,4.63-2.5.19.19,0,0,1,.28,0,.22.22,0,0,1,.05.08q1.6,4.17,3.32,8.31v0a5.44,5.44,0,0,0,.33,1.11A37.91,37.91,0,0,0,658,209.3a22.71,22.71,0,0,1,3.92,6.9v0c.48,2.58-2.72,5.2-4.42,6.39-1,.68-2,1.32-3,1.91q-10.92,21.74-22.59,43.1a42.92,42.92,0,0,1-3.32,5.21,6,6,0,0,1-1.31,1.31h0c-2,1.23-5.57.53-7.83-.53a3.63,3.63,0,0,1-1.61-1.49c-1.18-2-1.41-5.24-1.7-7.48-.13-1-.55-2.61-1.65-3.17a3.06,3.06,0,0,0-2.19-.06c-.95.32-1.88.69-2.8,1.09a53.3,53.3,0,0,1-5.94,1.9,38.61,38.61,0,0,1-6.84,1.14,37.1,37.1,0,0,1-6.91-.13,49.81,49.81,0,0,1-7.37-1.37,656.72,656.72,0,0,1-65.9-18.4l-.1,0c-4.86-1.48-7.88-2.58-10.65-6.23a10.06,10.06,0,0,1-1.92-4,9,9,0,0,1,.27-4.78l.46-1.17,11.18-25.15a19.6,19.6,0,0,1,18-11.56,35.21,35.21,0,0,1,14.07,3.2c10.57,4.56,21.34,8.43,32.25,12q9.2,3,18.54,5.51a52.61,52.61,0,0,0,5.26,1.19,15.48,15.48,0,0,1,4.59,1.51A25.13,25.13,0,0,1,619.16,226c.56,1,1.15,2,1.76,2.92a9.92,9.92,0,0,0,2.62,2.89,3.47,3.47,0,0,0,3,.39,11.48,11.48,0,0,0,3.28-1.78l7.15-5.14.06,0a23,23,0,0,1,6.88-1.14,10.24,10.24,0,0,1,3,.41l2.51.33,2.55-4.34c-28.23-7.49-75.48-21.55-104.11-35.63-6.54-3.22-13.23-5.31-20.42-4.92-9.58.51-16.93,6.38-21.7,14.14a48.82,48.82,0,0,0-3.6,7.15q-1,2.37-2.16,4.65c-1.56,3.2-3.06,6.41-4.52,9.66l-.21.42-.13.35q-1.91,4.29-3.51,8.72c-.49,1.32-2.48,6-3.12,7.25-.25.5-1.69,2.13-2.49,2.22a31.33,31.33,0,0,1-5.56-.16c-2-.3-4-.64-6-1a14,14,0,0,1-8-4.88,11.89,11.89,0,0,1-2.86-8.94q1.4-9.63,2.89-19.23c.21-1.44.46-2.86.75-4.28.7-3.41,2.63-6.82,5.93-8.25a13.84,13.84,0,0,1,6-1.08,34,34,0,0,1,6.66.85q5.81,1.23,11.57,2.65c1,.26,3.05.44,3.83-.78s-.49-3.16-1.7-3.91l-1.16-.7q-6.92-4.09-13.6-8.55-3.69-2.43-7.13-5.18a29.09,29.09,0,0,1-6.37-7.18,16.84,16.84,0,0,1-2-4,10.4,10.4,0,0,1-.37-4.95,20.93,20.93,0,0,1,1.54-5.13q1.11-2.61,2.38-5.15a66.55,66.55,0,0,1,17.28-21.81c14.44-11.67,35.87-16.83,54.78-16.94,24-.14,47.46,6.86,66.58,21.63a.21.21,0,0,1,.08.16,106,106,0,0,1-.93,12.6q-.55,4.14-1.41,8.24t-2.09,8.33a33.16,33.16,0,0,1-1.52,4.22c-.48,1-.94,2.08-1.38,3.13l-.64,1.47a4,4,0,0,1-1.59,1.71,14.76,14.76,0,0,1-2.37,1.14c-2.94,1.12-5.79,3.29-6.46,6.56a9.59,9.59,0,0,0,.14,4.33,7.88,7.88,0,0,0,2.43,3.86c.59.48,1.38.64,1.83-.14a3.69,3.69,0,0,0,.34-.79,11.28,11.28,0,0,1,1-2.44c1-1.83,2.84-3.3,5.06-2.78a3.33,3.33,0,0,1,2.57,4.18,6.09,6.09,0,0,1-4.17,4.31,5.2,5.2,0,0,0-1.85.82l-.23.25a.33.33,0,0,0,0,.4,1.61,1.61,0,0,0,.72.48l1.29.41a12.44,12.44,0,0,0,4.42.38,6.86,6.86,0,0,0,3.8-1.61,9.24,9.24,0,0,0,1.46-1.72,9.47,9.47,0,0,0,1.85-4.29,1.83,1.83,0,0,0-.29-1.2,1.75,1.75,0,0,0-1.12-.65,22.63,22.63,0,0,1-2.84-.56c-.34-.1-1.27-.38-1.4-.86a.4.4,0,0,1,0-.32,167.37,167.37,0,0,0,7.55-18.41,120.87,120.87,0,0,0,5.37-22.19.19.19,0,0,1,.22-.17.24.24,0,0,1,.11.06,97.13,97.13,0,0,1,8.37,9.75v0a136.46,136.46,0,0,1,8.45,17.24q3.94,9.51,7.55,19.14a.2.2,0,0,1,0,.2A7.23,7.23,0,0,1,644.66,183.77Zm-39.38,37.07q-6-1.53-11.92-3.39-6.14-1.9-12.23-3.94-21.39-7.19-42.59-14.93A13.86,13.86,0,0,0,520.42,206L509.2,231.26a5.36,5.36,0,0,0,2.72,7.07l.13.06a509.48,509.48,0,0,0,51,15.88q12.91,3.3,26.05,5.76c8.79,1.65,18.63.2,24.56-7.25,2.57-3.23,4.89-8.35,4.55-12.35a27.86,27.86,0,0,0-.53-3.63,25.92,25.92,0,0,0-6.42-12.14A15.34,15.34,0,0,0,605.28,220.84Zm36.06,8a6.26,6.26,0,0,0-2.87,1.17L634.38,233c-4.59,3.28-8.61,7-11.1,12.05a28,28,0,0,0-2.67,10.4,48.67,48.67,0,0,0,.66,11.5.25.25,0,0,1,0,.12c-.33.67.65,2.19,1.22,2.57a.19.19,0,0,1,.08.1h0a27.39,27.39,0,0,0,2.85.79,1.57,1.57,0,0,0,1.2-.13,1.82,1.82,0,0,0,.54-.53l.49-.89q7.65-14.07,15.09-28.27,2.5-4.78,4.89-9.64a1.18,1.18,0,0,0-.59-1.56l-.22-.07A15.17,15.17,0,0,0,641.34,228.85Zm-77.46,53.67c-6.49-.95-8.65-2.23-10.37-3.44l-3.27-2.25q-15.13-10.12-30.5-19.89h0a23.52,23.52,0,0,0-5.31-2.93,10.59,10.59,0,0,0-2.89-.68,6.39,6.39,0,0,0-3.14.51l-5.05,1.59L495,258.69a11.37,11.37,0,0,0-2.45,1.43,7.58,7.58,0,0,0-2.05,2.28,5.07,5.07,0,0,0-.15,4.81,8.69,8.69,0,0,0,4.49,4,22,22,0,0,0,4.33,1.38l21.61,3.78a10.78,10.78,0,0,1,3,1l2.74,1.6a10.73,10.73,0,0,1,1.3.9,1.2,1.2,0,0,1,.57,1.43.22.22,0,0,1-.11.14.61.61,0,0,1-.28.08h-.69l-.8-.07L512.37,279a239,239,0,0,0-48.51-3.79q-10.17.12-20.31.64-11.26.56-22.48,1.89a166.93,166.93,0,0,1-27.91,1.2,75.87,75.87,0,0,1-11.91-1.48,89,89,0,0,1-12.7-3.67,7.4,7.4,0,0,1-3-1.87v0a5.49,5.49,0,0,1-.92-5.09l0-.05,2.92-4.67c1.69-2.83,3.84-2.89,6.59-2.28a85.77,85.77,0,0,0,14.54,1.82l12.22.78a47.33,47.33,0,0,0,10.77-.24,43.34,43.34,0,0,0,11.45-3.14,29.63,29.63,0,0,0,11.68-9.69,33,33,0,0,0,3.88-7,27.75,27.75,0,0,0,1.92-8.66l1.14-49.39a14.57,14.57,0,0,0-.64-5.64,26.38,26.38,0,0,0-2.78-5.79c-3.78-5.81-9.63-13.7-14.14-19.23-.76-.94-2-2.72-1.12-4a2.45,2.45,0,0,1,1.33-.9,10.25,10.25,0,0,1,3.16-.46,30.24,30.24,0,0,1,3.3.13,69.59,69.59,0,0,1,15.2,3.1l2.8,1a20.84,20.84,0,0,1,3.51,1.66,14.18,14.18,0,0,1,1.81,1.38,6.8,6.8,0,0,1,2.58,4.25,7.6,7.6,0,0,1-.14,2.69c-.35,1.63-.7,3.26-1,4.9a18.7,18.7,0,0,0-.32,5.33,15.47,15.47,0,0,0,1.64,5.39h0c.49,1.11,1,2.21,1.56,3.29a32.09,32.09,0,0,1,2.3,5.56,23.7,23.7,0,0,1,.36,10.36l-1.41,7.26c-.79,4.7-1.51,9.42-2.17,14.13-1.41,10.31,6.67,18.65,16.09,20.4l7.2,1.35a11.13,11.13,0,0,0,2.76.19c1.1-.09,2.19-.21,3.27-.37a3.6,3.6,0,0,0,1.16-.38l1.21-.67a15.83,15.83,0,0,1,3-1.55,3.71,3.71,0,0,1,2.48-.06,4.53,4.53,0,0,1,2.09,1.63,34,34,0,0,0,7.58,7.28,33,33,0,0,0,10.42,4.65h0a662.79,662.79,0,0,0,66.2,18.5h0a46.92,46.92,0,0,0,9.77,1.69.19.19,0,0,1,.18.21.2.2,0,0,1-.1.16q-7.41,4.07-14.56,8.61h0A20.05,20.05,0,0,1,563.88,282.52Z"/></g></g></svg>