<?xml version="1.0" encoding="utf-8"?>
<!-- Generator: Adobe Illustrator 27.9.1, SVG Export Plug-In . SVG Version: 6.00 Build 0)  -->
<svg class="w" version="1.1" xmlns="http://www.w3.org/2000/svg" xmlns:xlink="http://www.w3.org/1999/xlink" x="0px" y="0px"
	 viewBox="0 0 3726.8 976.4" style="enable-background:new 0 0 3726.8 976.4;" xml:space="preserve">
     $gradientDefs

	<path class="maincolor" style="clip-rule:evenodd;" d="M1863.4,637.6c566,0,1131.9,0,1167.2,0c94,0,184.8,8.9,226.2,27.5c36.6,16.5,66.1,45.8,92.9,78.9
		c24.5,30.3,76.3,120.1,106.5,173.8c1.7,3.1,14.3,26.1,19.8,36c6.7,12.1,14.3,22.7,28.2,22.7h222.6V0.3c0,0-106.9-5.4-188.3,28.2
		c-19.8,8.2-66.2,36-126.2,36H2216.2c-0.6,3.2-1.2,6.3-1.8,9.3c-20.3,93.5-30.6,143.2-131.4,144.3c-71.9,0.8-145.8,1.2-219.6,1.2
		c-73.9,0-147.7-0.4-219.6-1.2c-100.8-1.1-111.1-50.8-131.4-144.3c-0.6-2.9-1.2-6-1.8-9.3H314.5c-60,0-106.4-27.8-126.2-36
		C106.9-5.1,0,0.3,0,0.3v976.1h222.6c13.9,0,21.4-10.6,28.2-22.7c5.5-9.9,18.1-32.9,19.8-36c30.2-53.7,81.9-143.5,106.5-173.8
		c26.8-33.1,56.2-62.4,92.9-78.9c41.4-18.6,132.2-27.5,226.2-27.5C731.5,637.6,1297.4,637.6,1863.4,637.6z M1863.4,267.1
		c200.2,0,362.5,72.3,362.5,161.5S2063.6,590,1863.4,590s-362.5-72.3-362.5-161.5S1663.2,267.1,1863.4,267.1z"/>
</svg>
