<?xml version="1.0" encoding="utf-8"?>
<!-- Generator: Adobe Illustrator 27.9.1, SVG Export Plug-In . SVG Version: 6.00 Build 0)  -->
<svg class="w" version="1.1" xmlns="http://www.w3.org/2000/svg" xmlns:xlink="http://www.w3.org/1999/xlink" x="0px" y="0px"
	 viewBox="0 0 3744 1008" style="enable-background:new 0 0 3744 1008;" xml:space="preserve">
     $gradientDefs

	<style type="text/css">
	.maincolor{fill-rule:evenodd;clip-rule:evenodd;}
	.accentcolor2{fill-rule:evenodd;clip-rule:evenodd;}
	.accentcolor{fill-rule:evenodd;clip-rule:evenodd;}
</style>
<path class="maincolor" d="M3039.2,617.3c122.9-0.2,185.2,14.2,197.8,16.9c40,8.8,71.8,25.1,101,51.5c34.3,31,56.6,59.1,80.3,97.7
	c9.2,14.7,18.2,29.4,27.1,44.3c24.5,41,48.1,82.5,70.8,124.5c0.7,1.3,1.5,2.6,2.3,3.8l180.8,0V52.1c-49,1.6-104.7,9.2-149.9,30.7
	c-43.3,20.6-82.2,33.4-128.4,33.5l-1166.9,0c-2.4,10.9-5.1,21.7-7.9,32.5c-2.6,10-5.7,19.8-9.2,29.5c-24.3,67.1-73.2,91-145.1,91.6
	c-73.3,0.8-146.6,1.2-219.9,1.2c-73.2,0-146.5-0.4-219.7-1.2c-61.6-0.2-113.4-18.8-139.4-77.4c-4.8-10.6-8.8-21.6-12-32.8
	c-4.1-14.3-7.8-28.8-11-43.4l-1166.8,0c-34.2-0.1-68.5-7.9-100.1-20.9c-13.7-5.7-27.2-11.7-40.5-18.2c-12.4-5-25.1-9.1-38.1-12.2
	c-32.7-7.5-66.1-11.8-99.7-12.9v904.1l180.9,0l2.2-3.8c29-53.5,59.4-106.2,91.2-158c24.5-40.5,47.1-71.9,82-104
	c39.3-36.1,74.9-51.7,126.6-60.2c20.1-3.5,40.4-6.1,60.7-7.9c38.8-3.4,77.7-5,116.6-4.9H3039.2z M1872,282.8
	c200.2,0,362.5,72.3,362.5,161.5S2072.2,605.8,1872,605.8s-362.5-72.3-362.5-161.5S1671.8,282.8,1872,282.8z"/>

<path class="accentcolor2" d="M1872,653.3c566,0,1131.9,0,1167.2,0c94,0,184.8,8.9,226.2,27.5c36.6,16.5,66.1,45.8,92.9,78.9
	c24.5,30.3,76.3,120.1,106.5,173.8c1.7,3.1,14.3,26.1,19.8,36c6.7,12.1,14.3,22.7,28.2,22.7h222.6V16.1c0,0-106.9-5.4-188.3,28.2
	c-19.8,8.2-66.2,36-126.2,36H2224.8c-0.6,3.2-1.2,6.3-1.8,9.3c-20.3,93.5-30.6,143.2-131.4,144.3c-71.9,0.8-145.8,1.2-219.6,1.2
	c-73.9,0-147.7-0.4-219.6-1.2c-100.8-1.1-111.1-50.8-131.4-144.3c-0.6-2.9-1.2-6-1.8-9.3H323.1c-60,0-106.4-27.8-126.2-36
	C115.5,10.7,8.6,16.1,8.6,16.1v976.1h222.6c13.9,0,21.4-10.6,28.2-22.7c5.5-9.9,18.1-32.9,19.8-36c30.2-53.7,81.9-143.5,106.5-173.8
	c26.8-33.1,56.2-62.4,92.9-78.9c41.4-18.6,132.2-27.5,226.2-27.5C740.1,653.3,1306,653.3,1872,653.3z M3039.2,635.3H704.8
	c-38.4-0.1-76.8,1.5-115,4.8c-19.9,1.7-39.7,4.3-59.4,7.7c-20.1,3.1-39.8,8.6-58.6,16.2c-20.4,8.6-42.5,24.5-58.7,39.5
	c-15.2,13.8-29.2,29-41.8,45.2c-13.3,17.6-25.7,35.9-37,54.8c-31.7,51.6-61.9,104.1-90.7,157.3c-2.3,4.3-5,8.6-8.6,11.9
	c-1,0.9-2.3,1.3-3.6,1.3l-204.8,0V33.8c41,0,81.8,4.6,121.8,13.7c14.1,3.4,27.8,7.8,41.2,13.3c13.2,6.3,26.5,12.3,40,18
	c29.2,12.1,61.9,19.5,93.4,19.5l1181.3,0c3.9,19,8.5,37.8,13.8,56.4c3,10.4,6.7,20.6,11.2,30.4c23.1,51.8,68.5,66.6,123,66.7
	c73.2,0.8,146.4,1.2,219.7,1.2c73.3,0,146.5-0.4,219.8-1.2c64.4-0.5,106.7-19.9,128.3-79.7c3.4-9.2,6.3-18.5,8.7-27.9
	c4-15.2,7.6-30.5,10.8-45.9l1181.4,0c43.4-0.1,80-12.4,120.7-31.7c52.6-25,119.4-32.7,175.7-32.7v940.4l-204.7,0
	c-1.6,0-3.1-0.6-4.3-1.8c-3.2-3.5-5.9-7.3-8-11.5c-22.7-41.8-46.1-83.1-70.5-123.9c-8.8-14.8-17.8-29.5-26.9-44.1
	c-9.3-15.4-19.5-30.3-30.6-44.5c-14-17.7-29.5-34.2-46.4-49.3c-15.9-14.1-33.8-25.9-53.1-34.8c-11.9-5.4-27.1-9.8-39.8-12.6
	C3220.7,649.1,3160,635.1,3039.2,635.3z"/>
<path class="accentcolor" d="M3330.3,116.3h-4.7c-1.6,1.1-3.2,2.2-4.9,3.3c-11.3,7.8-22.7,15.5-34.4,23.1c-47.6,31.3-97.9,61.7-150.5,90.8
	c-13.2,7.3-26.6,14.6-40.1,21.8c-13.7,7.3-27.7,14.3-40.6,22c-28.8,17.1-50.2,36.8-65.2,58c-6.6,9.4-12.7,18.9-18.3,28.5
	c-5.8,9.7-10.8,19.6-12.8,29.8c-1.9,9.6-0.9,19.5,5.2,28.7c1.3,2,3.3,4,5,6.1c-5.6-2.3-9.1-5.8-15.2-7.9c-7-2.3-15.6-2.6-23.7-3
	c-8-0.4-15.8-1.1-22.7-3.3c-6-1.9-10.7-4.7-14.3-7.9c-7.9-7-10.1-15.3-10.1-23.3c0-9.9,3.1-19.7,8.3-29.2c5.2-9.5,12.4-18.7,21-27.5
	c4.2-4.3,8.6-8.4,13.3-12.6c2.2-2,4-3.4,6.5-5.6c1.1-0.9,2.3-1.9,3.4-2.8c0.7-0.5,1.3-1.1,2-1.6c-0.1,0,1.3-1,1.7-1.4
	c0,0,0.1,0,0.1-0.1c0,0,0,0,0,0v0h0c0,0,0,0,0,0c22.9-18.5,47.2-36.5,67.1-55.9c9.6-9.4,18.2-19.1,27.8-28.5
	c4-3.9,8.8-8.3,12.4-11.2c0,0,0,0,0,0c0,0,0,0,0,0c0,0,0,0,0.1-0.1c0,0,0,0,0,0c0.4-0.3,1.3-1,1.4-1.1c0.7-0.5,1.3-1,2-1.5
	c0.1-0.1,0.3-0.2,0.4-0.3c0,0,0.1-0.1,0.1-0.1c0,0,0,0,0,0s0,0,0,0c0,0,0,0,0,0v0c0.7-0.5,1.4-1,2-1.5c3-2.2,4.8-3.5,7.6-5.5
	c23-16.1,48.3-31.2,71-47.4c15.2-10.8,29.7-21.8,43.8-33h-3.9c-2.8,2.2-5.7,4.4-8.6,6.7c-1.2,1-2.5,1.9-3.7,2.8
	c-0.2,0.1-0.3,0.2-0.4,0.3c-0.1,0.1-0.2,0.2-0.4,0.3c0,0-0.1,0.1-0.1,0.1c0,0,0,0,0,0c-0.1,0.1-0.1,0.1-0.1,0.1
	c-0.4,0.3-0.8,0.6-1.1,0.8c-2.8,2.1-5.6,4.2-8.5,6.3c-5.6,4.2-9.9,7.3-15.1,10.9c-11.2,7.9-23,15.5-34.8,23.1
	c-28.1,18.1-55.2,36.6-76.5,57.1c-10.1,9.6-18.9,19.6-28.7,29.3c-4.6,4.6-9.5,9.1-14.6,13.5c-1.5,1.3-4.5,3.8-6.6,5.5
	c-1.3,1.1-2.6,2.1-3.9,3.2c-0.9,0.8-1.8,1.5-3.6,2.9c-23.6,18.8-48.5,37.3-67.9,57.4c-17.7,18.3-31.3,38-32,58.6
	c-0.3,8,1.3,16.3,8.3,23.6c7.3,7.6,19.3,11.8,35.7,12.8c8.3,0.5,17.4,0.5,24.9,2.6c6.9,1.9,10.6,5.5,16.3,8.1
	c5.5,2.5,12.5,2.8,18.2,0.3c4.9-2.2,8.6-5.2,12.1-8c0,0,0.1,0,0.1-0.1c0.1,0,0.1-0.1,0.2-0.1c0.5-0.4,1.1-0.8,1.5-1.2
	c0.1-0.1,0.2-0.1,0.2-0.2c3.2-2.6,6.5-5.3,8-8.2c2.5-4.6-2-9.3-5.4-13.5c-3.7-4.6-6.2-9.4-7.5-14.3c-2.7-10.4-0.1-21,4.4-31.1
	c4.4-10.1,10.7-19.9,16.9-29.6c6.2-9.7,12.7-19.4,21-28.7c1.8-2,3.7-4.1,5.8-6c1-0.9,2-1.9,3-2.8c0.1-0.1,1.6-1.3,1.8-1.5
	c0,0,0,0,0,0c0,0,0,0,0,0c0,0,0,0,0,0c0.1,0,0.1-0.1,0.2-0.1c0.1,0,0.1-0.1,0.2-0.1c0,0,0,0,0,0c0,0,0.1-0.1,0.1-0.1c0,0,0,0,0,0
	c0,0,0,0,0,0c0.3-0.2,0.5-0.4,0.7-0.5c0,0,0,0,0,0c1-0.7,2.1-1.4,3.1-2.1c3.1-2.1,6.4-4.1,9.8-6c13.4-7.8,27.9-15,41.9-22.5
	c55.4-29.5,108.2-60.3,158.4-92.1C3274.1,154.7,3302.7,135.7,3330.3,116.3z M3030.2,297.2 M3030.2,297.2 M3030.2,297.2
	C3030.2,297.2,3030.2,297.2,3030.2,297.2C3030.2,297.2,3030.2,297.2,3030.2,297.2z M3030.2,297.2 M3030.2,297.2"/>
<path class="accentcolor" d="M510.2,242.6C510.2,242.6,510.2,242.6,510.2,242.6C510.2,242.6,510.2,242.6,510.2,242.6z"/>
<path class="accentcolor" d="M1189.1,222.4C1189.1,222.4,1189.1,222.4,1189.1,222.4C1189.1,222.4,1189.1,222.4,1189.1,222.4z"/>
<path class="accentcolor" d="M3245.9,116.3h-4.4c-22.1,15.8-44.2,31.5-66.5,47.2c-28.6,20.2-57.4,40.3-86.4,60.4c0.7-5.2,3.4-10.3,7.8-15.1
	c0.6-0.6,1.2-1.3,1.8-1.9c0,0,0,0,0,0c0.2-0.1,1.2-1,1.6-1.4c0,0,0,0,0,0c0,0,0,0,0.1-0.1c0.3-0.2,0.6-0.5,0.7-0.6c0,0,0,0,0,0
	c0,0,0,0,0,0c0.2-0.2,0.5-0.4,0.7-0.6c0,0,0,0,0,0c0,0,0,0,0,0c0,0,0,0,0,0c0,0,0,0,0,0c0,0,0.1,0,0.1-0.1c0,0,0,0,0.1,0
	c0.4-0.3,1.1-0.8,1.3-1c2.1-1.6,2.1-1.5,4.2-3c14.9-10.5,29.9-20.9,44.9-31.3c6.6-4.6,13.1-9.3,20.5-13.6
	c7.9-4.6,16.8-8.6,24.8-13.1c14-7.8,25.7-16.7,36.2-25.9h-4.6c-2,1.9-4,3.8-5.9,5.4c0,0,0,0,0,0v0c0,0,0,0,0,0
	c-0.3,0.2-1.9,1.5-2.2,1.8c0,0-0.1,0.1-0.1,0.1c-0.5,0.4-1.2,0.9-1.3,1c0,0,0,0,0,0h0c0,0,0,0,0,0c-2.9,2.1-6.5,4.2-10.2,6.2
	c-8.8,4.7-18.1,9.2-26.4,14.2c-8.7,5.2-16.6,10.8-24.5,16.4c-17.6,12.3-35.6,24.4-52.6,36.8c-16.3,12-34.4,25.7-35.4,40.8
	c-0.1,1.2,5.7-2.7,5.8-2.8c55.5-38.5,110.5-77.2,164.9-116.1C3242.4,118.8,3244.2,117.5,3245.9,116.3z"/>
<path class="accentcolor" d="M44.6,588.3v25.2c0.7-1.1,1.3-2.1,1.8-3.2C50.3,603,51.1,595.3,44.6,588.3z"/>
<path class="accentcolor" d="M2218,492.7c-3,4.3-6.5,8.6-10.3,12.7c11.7-2.3,23.7-4.4,35.9-5.9c27-3.5,56.3-5.5,83.9-2.6
	c25.6,2.7,47.5,10.3,59.6,22.2c11.1,10.9,13.6,23.6,12.2,35.6c-1.5,13-7.8,25.6-15.7,38c-5.4,8.4-11.7,16.7-19,24.7h5.7
	c14.9-14.6,27.3-29.8,36.2-45.7c13-22.9,21.7-52.4-8.4-72.9c-35.9-24.5-108.1-18.9-157.6-10.4C2232.8,489.7,2225.3,491.1,2218,492.7
	z"/>
<path class="accentcolor" d="M2166.6,538.4c-27.2,16.9-61.6,31.3-101.1,42.4c-3.7,1.5-7.4,3.1-11.1,4.6c-29.8,12.1-61.8,22.4-94.9,31.9h29.6
	c40.9-13.7,77.1-30.2,114.4-46.3c10.2-4.4,20.5-8.7,31.1-12.9c9.3-3.7,18.9-7.3,29.9-9.6c10.3-2.1,22.1-2.8,32,0.2
	c6.6,2,10.9,5.2,13.3,8.9c5.2,7.9,3.4,16.5,5.5,24.7c1,3.9,2.8,7.8,6.9,11.2c5.3,4.3,13.7,6.4,22.8,7.9c10.4,1.8,20.3,3.4,27.9,7.6
	c4.4,2.4,7.7,5.3,10,8.4h21.9c0.5-2.5,0.4-5-0.3-7.6c-1.3-5-5-10-11.3-13.9c-7.2-4.5-16.7-6.6-27.3-8.4c-9.8-1.6-19.2-3.6-25-8.1
	c-4.4-3.4-6.2-7.4-7.3-11.4c-2.2-8.5,0-17.7-6.3-25.8c-3-3.8-8.3-6.9-15.6-8.6c-10.4-2.4-22-1-32,1.2
	C2175.1,535.8,2170.8,537,2166.6,538.4z"/>
<path class="accentcolor" d="M1942.9,602.7c-9.7,0.9-19.5,1.5-29.4,2c-14.5,4.5-29.3,8.7-44.4,12.6h31.6
	C1915.1,612.7,1929.2,607.8,1942.9,602.7z"/>
<path class="accentcolor" d="M2546.3,617.3h7.8c7.1-8.5,13.5-17.2,19-26c4.5,0.3,9.1,1.5,12.2,2.6c7.3,2.7,11,6.5,15.2,10.4
	c3.7,3.5,8,7.3,15,9.3c9.4,2.7,19.6,0.6,28.7-1.4c43.2-9.5,83-23,128.6-29.5c23.3-3.3,47.6-4.7,71.5-2.6c-2.8,1.4-5.7,2.8-8.7,4.1
	c-9.6,4.2-19.9,7.9-30.5,11.4c-21.8,7.2-44.7,13.5-66.8,20.5c-1.1,0.4-2.2,0.7-3.4,1.1h29.4c10.3-3.1,20.5-6.3,30.5-9.8
	c11.8-4.1,23-8.5,33.2-13.6c13.1-6.5,23.9-14.1,33.5-22c0.4-0.3,6.2-5.6,5.4-5.7c-46.4-4.8-92.5,3.7-133.7,13.9
	c-21.3,5.3-42,11.1-63.6,16.1c-10.1,2.3-22.4,6-33.6,3.6c-7.6-1.6-12.3-5.5-16.2-9c-4.9-4.4-8.8-8.8-17.4-11.7
	c-8.2-2.8-17.1-3.1-24.1,0.8c-5.2,2.8-9.3,6.3-13,9.6c-0.6,0.6-3.7,3.6-3,3.8c-1.3,1.1-2.3,2.3-3,3.5
	C2555.5,603.9,2551.1,610.6,2546.3,617.3z M2854.1,574.6c-0.7,0.4,2.1-1.4,0.3-0.2c2.4-1.6-0.2,0.2-0.6,0.5
	c-1.8,1.9-3.6,3.8-5.4,5.7c-1.4-0.1-2.8-0.3-4.2-0.4c1.6-0.8,3.1-1.6,4.6-2.4C2850.7,576.8,2852.4,575.7,2854.1,574.6z
	 M2562.3,593.5c2.2-2,4.9-3.9,7.3-5.6c1.8-1.3,3.8-2.9,6.1-4.1c-0.3,0.1,2.6-1.4,2-0.4c-1.5,2.7-3,5.3-4.7,7.9
	c-3.4-0.2-6.6,0.2-9.1,1.5C2563,593.4,2562.5,593.5,2562.3,593.5z"/>
<path class="accentcolor" d="M3699.4,391.6v-89.4c-0.6,0.8-1.2,1.7-1.8,2.6c-7.2,10.3-10.1,20.7-9.5,31.6c0.7,11,3.7,22,6.2,32.9
	C3696,376.7,3697.7,384.2,3699.4,391.6z"/>
<path class="accentcolor" d="M3699.4,501.8V482c-7.7-2.4-15.2-4.9-22.7-7.5c-22.7-7.9-41.5-17.7-48.4-31.6c-3.6-7.2-4.4-14.8-4.9-22.2
	c-0.5-8.4-0.9-16.8-1.4-25.2c-0.9-16.6-2.4-33.2-2.5-49.7c-0.2-16.2,3.4-31.9,15.5-47c11.3-14.2,26.6-27.5,41.4-40.9
	c7.7-6.9,15.2-13.6,22.9-20.2V234c-23.7,19.9-46.4,40.1-67,60.8c-14.6,14.6-26.5,29.7-29.8,46.2c-3.3,16.9-0.8,34.1,0.1,51.1
	c0.9,16.7,0.9,33.5,3,50.1c1,7.5,3,15.1,8.7,22.1c5.2,6.3,13.5,11.8,23.4,16.5C3656,489.2,3678,495.5,3699.4,501.8z"/>
<path class="accentcolor" d="M3699.4,526.4v-19.7c-18.4-5.4-36.8-10.9-55.2-16.3c-15.5-4.6-31.6-9.2-43.7-16.1
	c-26.9-15.3-16.2-36.2-20.7-54.7c-2.4-9.8-8.7-19.3-18.5-27.9c-9.8-8.6-24.6-15.2-34.9-23.6c-9.9-8.1-12.4-17.5-8.9-26.9
	c1.7-4.6,4.7-9.1,8.4-13.5c3.5-4.1,7.9-8.1,11.7-11.3c0.1-0.1,0.2-0.2,0.4-0.4c0,0,0,0,0.1-0.1c0.1,0,0.1-0.1,0.1-0.1c0,0,0,0,0,0
	c0,0,0,0,0.1-0.1c0,0,0.1,0,0.1-0.1c0,0,0,0,0,0c0,0,0,0,0,0c0.4-0.3,0.9-0.7,1.3-1c1.1-0.9,2.2-1.7,3.3-2.6c0,0,0,0,0,0
	c0,0,0,0,0,0c0,0,0,0,0,0c0,0,0,0,0,0v0c0,0,0,0,0,0c0,0,0,0,0,0c0,0,0,0,0,0c0.1,0,0.1-0.1,0.1-0.1c0,0,0,0,0.1-0.1
	c0.7-0.5,2.1-1.6,2.3-1.7c1.7-1.3,3.4-2.5,5-3.7c6.5-4.8,12.8-9.6,19.1-14.5c12.2-9.3,24-18.7,35.6-28.2
	c33.8-27.7,65.2-56.2,93.9-85.3V172c-25.5,26.9-52.6,53.3-82.2,78.5c-22.3,19-44,36.2-68,54c-13,9.7-25.8,19.6-35.9,30.1
	c-8.6,8.9-15.9,18.5-15.9,28.6c0,10,7.9,18.3,20.2,25.9c6.2,3.8,12.7,7.4,18.4,11.5c6,4.3,11,8.8,15,13.7c8,9.6,11.4,19.7,11.6,30
	c0.3,9.7-1.2,19.7,3.7,29.2c4.7,9.4,16.3,16.6,31.4,22.3c16.6,6.3,35.3,11.2,53.2,16.4C3667,516.8,3683.2,521.6,3699.4,526.4z"/>
<path class="accentcolor" d="M3699.4,476.9v-20.3c-18.3-6.5-34.3-14.3-41.8-25.4c-8.9-13.1-7.5-27.5-7.9-41.1c-0.5-15.3-1-30.7-1.6-46
	c-0.5-14.7-1.5-29.7,5.8-44c3.3-6.5,8.4-12.8,14.6-18.7c2.8-2.7,5.1-4.6,7.8-6.8c0,0,1.1-0.9,1.6-1.3v0c0.1-0.1,0.1-0.1,0.2-0.1
	c0,0,0,0,0,0c0,0,0,0,0,0c0,0,0,0,0,0c0,0,0,0,0,0h0v0c0.8-0.6,1.6-1.3,2.4-1.9c1.9-1.5,3.8-3,5.8-4.5c4.4-3.4,8.8-6.8,13.2-10.2
	v-3.1c-2.5,2-5.1,3.9-7.6,5.9c-17,13.2-34.7,26.4-47.1,40.9c-11.7,13.7-15.2,28.1-15.4,43c-0.1,15.5,0.9,31,1.4,46.5
	c0.5,14.4-0.7,29.1,3,43.4c1.7,6.7,5.1,13.5,11.6,19.4c6.3,5.8,15.3,10.5,25.4,14.6C3679.8,470.8,3689.5,473.9,3699.4,476.9z"/>
<path class="accentcolor" d="M3699.4,450v-25.4c-3.8-2.9-7-6-9.4-9.2c-4.9-6.5-6.3-13.4-6.7-20.3c-0.9-14-0.8-28.1-0.1-42.2
	c1.1-22.6,4.9-45.4,16.3-67.3v-13.2c-21.2,24.7-30.3,51.3-33.4,78.1c-1.7,14.4-1.8,28.8-1.6,43.1c0.2,13.8-1.4,28.4,11.7,41
	C3682.1,440.5,3690.2,445.4,3699.4,450z"/>
<path class="accentcolor" d="M182.9,956.2l4.6,0c0.1-0.1,0.2-0.1,0.3-0.2c1.8-1.2,3.7-2.4,5.7-3.5c8.7-5,18.3-9.6,29.1-13.4
	c4.8-1.7,9.7-3.2,14.9-4.5c2-3.6,4-7.3,6-10.9c-1.6,0.5-3.1,1-4.6,1.6C216.2,933.4,198.3,944.6,182.9,956.2z"/>
<path class="accentcolor" d="M104.4,956.2h4c5.4-4.2,10.7-8.4,15.9-12.7c14-11.6,27.3-24.3,40.5-35.5c4-3.4,5.5-4.6,9.3-7.6
	c1.9-1.5,6-4.5,9.4-6.8c5.9-4,13.7-8.5,21.3-12.3c16.5-8.3,36.2-15.4,58-19.6c5.7-1.1,11.5-2,17.4-2.7c2.5-4.3,5-8.6,7.5-12.8
	c-19.2,3.1-36.9,8.4-52.5,14.9c-44,18.3-72.6,44.6-100.3,69.4c-6.6,5.9-12.6,11.3-19.4,16.8c-0.7,0.6-1.4,1.1-2.1,1.7
	c-0.1,0.1-0.2,0.1-0.2,0.2c0,0,0,0,0,0c-0.1,0.1-0.1,0.1-0.2,0.2c0,0-0.1,0.1-0.1,0.1c0,0,0,0,0,0c-0.1,0.1-0.2,0.2-0.4,0.3
	c-1.4,1.1-2.8,2.2-4.3,3.4C106.9,954.3,105.6,955.2,104.4,956.2z"/>
<path class="accentcolor" d="M163.5,956.2l4.1,0c6.4-5.3,12.9-10.7,19.3-16c5.9-4.9,11.8-9.7,17.6-14.6c1.2-1,2.4-2,3.7-3
	c0.1-0.1,0.5-0.4,0.9-0.7c0,0,0,0,0,0c0,0,0,0,0,0c0,0,0,0,0,0c0,0,0.1,0,0.1,0c0,0,0,0,0,0v0c0,0,0.1-0.1,0.1-0.1c0,0,0,0,0,0
	c0,0,0,0,0,0c0,0,0,0,0,0c0.1-0.1,0.1-0.1,0.2-0.1c0,0,0,0,0,0c0,0,0,0,0,0c0,0,0,0,0,0c0,0,0,0,0,0c0.4-0.3,0.8-0.6,0.9-0.7
	c0.6-0.5,1.3-1,1.9-1.5c0.1-0.1,0.2-0.1,0.2-0.2c0.1,0,0.1-0.1,0.2-0.1c0,0,0,0,0,0c0.6-0.5,1.3-0.9,1.9-1.4
	c0.1-0.1,0.1-0.1,0.2-0.1c0,0,0,0,0,0c0.1-0.1,0.2-0.1,0.2-0.1c0,0-0.1,0-0.1,0.1c0.3-0.2,0.6-0.4,0.9-0.6
	c10.3-6.8,23.2-12.3,38.3-16.3c0.8-0.2,1.7-0.4,2.6-0.6c2.1-3.7,4.2-7.4,6.3-11c-29.9,9.6-49.1,25.8-67.6,41
	C184.9,938.6,174.2,947.4,163.5,956.2z M209.1,921.9C209.1,921.9,209.1,921.9,209.1,921.9C209.1,921.9,209.1,921.9,209.1,921.9z"/>
<path class="accentcolor" d="M3433.3,807.7c4.1,6.7,8.1,13.4,12.1,20.2c6.9,11.6,13.8,23.3,20.6,35c13.4,12,26.3,24.2,36.9,36.8
	c15.3,18.1,22.3,36.9,23.9,56.5l19.1,0c-0.1-5.6-0.4-11.2-0.9-16.7c-2-20.6-10.8-40-27.7-58.7c-15.8-17.5-34.8-34.5-54.4-51
	C3453.8,822.2,3444.1,814.7,3433.3,807.7z"/>
<path class="accentcolor" d="M3310.1,664.2c6.8,4.4,13.3,9.2,19.7,14.6c33.6,0.8,67.1,3.1,99.9,7.1c45.3,5.6,90.9,14.2,127.9,29
	c36.4,14.5,61.9,34.6,83.8,55.1c23.3,21.8,44.2,44.5,57.3,68.4c0.2,0.4,0.5,0.9,0.7,1.3v-41.8c-3.6-4.6-7.3-9.1-11.3-13.6
	c-19.5-21.9-42.1-44.1-71.5-63c-29.9-19.2-68.8-32.4-113.5-41.2C3441.6,668.2,3375.7,663.5,3310.1,664.2z"/>
<path class="accentcolor" d="M3378.5,727.4c6.1,7.3,12,14.8,17.6,22.6c22.4,6.4,41.8,15.2,56.3,26.4c21.6,16.6,32.1,36.1,44.8,54.8
	c13.8,20.3,34.1,38.5,54.2,57.3c21,19.7,36.1,39.9,40,62.3c0.3,1.8,0.6,3.6,0.7,5.4l18.6,0c1-15.3-2-30.6-10.1-45.4
	c-12-21.9-36.6-41-57.3-61c-19.2-18.5-30.5-38.1-44.4-57.6c-12.8-17.9-29.7-35.4-59.1-47.8C3421.6,736.7,3400.7,731.3,3378.5,727.4z
	"/>
<path class="accentcolor" d="M2413.6,617.3h8.7c1.7-2.2,3.4-4.4,5.1-6.7c13-17.8,23.8-36.1,36.9-53.9c10.9-14.9,22.7-30.3,41.3-43.3
	c17.8-12.3,40.7-23.1,66.9-30.5c13.7-3.9,28.5-6.9,43.9-8.6c15.1-1.7,31.1-1.5,41.6,5.1c8.6,5.4,11.6,12.6,15.8,19
	c4.1,6.1,9.7,11.8,18.9,16.4c18.7,9.3,45.9,12.3,71.1,13.3c30.4,1.2,60.7-0.7,91-1.6c39.7-1.1,79.4-1.2,119.1-0.3
	c40.2,0.9,80.3,2.8,120.1,5.8c5.1,0.4,10.2,0.8,15.3,1.2c1,0.1,5.7,0.3,6.1,0.5c0.7,0.5,0.3,2.8,0.3,3.5c-0.1,3.6-1.5,7.3-4,10.7
	c-0.1,0.2-0.3,0.3-0.4,0.5c0.4-0.2,0.8-0.4,1.2-0.5c-0.4,0.1-0.8,0.3-1.3,0.5c-1.8,2.2-2,1.2-0.4,0.2c-1.7,0.9-3.4,2.3-4.6,2.9
	c-5.5,2.9-11.5,5.6-17.6,8.1c-27.1,11-57.8,19.7-86.6,29.4c-27.3,9.3-54.4,18.7-81.1,28.4h22.5c7.4-2.6,14.7-5.1,22.1-7.7
	c30.1-10.4,61.3-19.9,91.1-30.4c27.7-9.8,50-21.9,66.2-37c6.8-6.3,11.7-13.1,11.2-20.3c0-0.1,0-1.8-0.3-2.1c-1.1-1-3.6-0.9-6.2-1.1
	c-4.6-0.4-9.2-0.7-13.8-1.1c-10.7-0.8-21.4-1.5-32.2-2.2c-80.1-4.9-160.5-5.3-240.9-2.2c-47.6,1.8-118.3,3.5-143.3-22.4
	c-11.1-11.5-12.4-31-45-31.8c-15.2-0.4-31.4,2.5-45.3,5.5c-14.4,3-27.9,7.1-40.3,11.9c-54.2,21-90.4,53.8-114.8,85.5
	C2438,580.1,2426.6,598.9,2413.6,617.3z M3112.6,547.7 M3112.6,547.7C3112.6,547.7,3112.6,547.7,3112.6,547.7
	C3112.6,547.7,3112.6,547.7,3112.6,547.7z M3112.6,547.7"/>
<path class="accentcolor" d="M2470.1,617.3h6.1c4.8-4.9,9.5-9.8,13.9-14.7c11.8-12.9,22.3-26.1,31.8-39.5c2.4-3.4,4.7-6.8,7.2-10.2
	c2-2.7,5.4-5.4,7.3-8.2c0.4-0.2,0.8-0.4,1.1-0.6c2.3-1.2,4.9-2.3,7.6-3.2c5.1-1.7,10.8-2.9,16.8-3.5c10.6-1.1,22.4-0.7,31.9,2.1
	c4.2,1.2,7.8,2.9,10.4,5c3.9,3.1,4.5,6.8,6.9,10.2c9.8,13.8,47,8.3,67.6,6.2c70.3-7.1,142.7-8.9,214-5.2c8.9,0.5,17.7,1,26.5,1.6
	c7.8,0.6,16.5,0.9,23.3,3.1c4.9,1.6,8.6,4.1,9.2,7.1c0.4,1.6-0.2,3.2-1,4.7c-0.4,0.2-0.8,0.4-1.2,0.6c-22.3,11.8-45.1,23.3-68,34.8
	c-6.4,3.2-12.7,6.4-19.2,9.6h11.2c15-7.6,29.8-15.2,44.6-22.9c11.8-6.1,23.6-12,33.2-19c8.1-6,20.7-14.4,18.6-22.2
	c-2.3-8.3-20.7-9.3-33.9-10.3c-18.1-1.3-36.3-2.2-54.5-2.7c-36.4-1.1-73-0.8-109.4,0.8c-18.6,0.9-37.2,2.1-55.6,3.7
	c-15.3,1.3-30.4,3.4-45.8,4.3c-11.5,0.7-25.3,0.7-34.6-3.4c-10-4.4-7.7-12-16.1-17.1c-14.6-8.7-43.6-7.3-60.2-1
	c-13.4,5.1-23.2,12.8-31.7,20c-8.2,6.9-14.5,14.3-19.8,21.9C2497,585.7,2484.4,601.7,2470.1,617.3z"/>
<path class="accentcolor" d="M2673.7,116.3h-4c-8.3,6.4-16.4,13-24.3,19.6c-13.7,11.5-26.4,23.4-39.5,35.1c-1.6,1.4-3.2,2.8-4.8,4.3
	c-0.8,0.7-1.6,1.4-2.4,2.1c-0.1,0.1-0.3,0.2-0.4,0.3c0,0,0,0,0,0c0,0,0,0,0,0c0,0,0,0,0,0c0,0,0,0,0,0c0,0,0,0,0,0c0,0,0,0,0,0
	c-0.1,0.1-0.1,0.1-0.2,0.1c0,0-0.1,0-0.1,0.1c0,0,0,0-0.1,0v0c0,0,0,0-0.1,0.1c-1.5,1.3-3,2.5-4.5,3.8c-0.8,0.7-1.7,1.4-2.5,2.1
	c-0.4,0.3-0.7,0.6-1.1,0.9c0,0,0,0-0.1,0.1c-0.1,0.1-0.2,0.1-0.2,0.2c0,0-0.1,0.1-0.2,0.1c0,0,0,0,0,0c-0.1,0.1-0.2,0.2-0.3,0.3
	c-6.1,4.8-9.4,7.5-16.8,12.2c-14.3,9.3-31.6,18.8-51.9,24.8c-8.5,2.5-20.2,4.6-29.8,2.7c-11.9-2.4-11.3-9.4-9.7-14.7
	c1.9-6.5,5.8-12.8,11.3-18.7c1-1.1,2.1-2.2,3.2-3.2c1.2-1.1,2.1-1.9,2.8-2.5c0.4-0.3,0.6-0.5,0.8-0.6c0,0,0,0,0,0c0,0,0,0,0,0
	c0,0,0.1-0.1,0.1-0.1c0,0,0,0,0,0c0.6-0.4,1.4-1,1.4-1.1c0,0,0.3-0.2,0.5-0.4c0.1,0,0.1-0.1,0.2-0.1c0,0,0,0,0,0c0,0,0.1,0,0.1,0
	c0,0,0,0,0.1,0c0,0,0,0,0,0h0c0,0,0,0,0,0c0,0,0,0,0,0v0c1.2-0.8,2.3-1.6,3.5-2.4c15-10.1,33-19.5,50.3-28.7
	c18.2-9.7,36.6-19.3,55.2-28.8c4.7-2.4,9.3-4.8,14-7.2h-10.6c-15.6,8.1-31.1,16.2-46.4,24.4c-19,10.2-37.9,20.4-54.6,31.6
	c-18.3,12.3-35.5,25.8-45,40.5c-3.9,6-8,13.3-5.9,19.7c1.8,5.7,11.5,8.3,22.2,7.6c10.9-0.7,20.4-3.6,29-6.9
	c10.1-3.9,19.4-8.2,28.1-12.8c19.7-10.5,36.4-22.4,51.6-34.6c14.7-11.8,28-24,41.5-36.1c6.3-5.7,12.8-11.5,18.9-16.6
	C2660.3,126.7,2665.7,122.4,2673.7,116.3z"/>
<path class="accentcolor" d="M2719.2,116.3h-4.5c-11,9.7-21,19.6-30.8,29.7c-7.1,7.3-14.1,14.6-21.5,21.8c-6.7,6.6-14,13.4-21,19.1
	c-0.3,0.2-0.6,0.5-0.9,0.7c0,0,0,0,0,0c0,0-0.1,0-0.1,0.1c0,0,0,0-0.1,0c0,0,0,0,0,0c-0.1,0.1-0.2,0.1-0.3,0.2
	c-0.9,0.7-1.7,1.3-2.6,2c0,0,0,0,0,0s0,0,0,0c-0.2,0.2-1.2,0.9-1.5,1.2c-1,0.7-2,1.5-3,2.2c0,0,0,0,0,0c0,0,0,0-0.1,0v0c0,0,0,0,0,0
	c0,0,0,0,0,0c0,0-0.1,0-0.1,0.1c0,0,0,0-0.1,0.1c0,0-0.1,0-0.1,0.1c0,0-0.1,0-0.1,0.1c-0.5,0.3-0.9,0.6-1.4,1
	c-0.9,0.6-1.9,1.3-2.8,1.9c-1.9,1.3-3.3,2.2-5.6,3.6c-8.4,5.3-17.3,10.4-26.7,15.3c-38.8,20.1-85.8,36.1-136.8,46.9
	c-13,2.8-26.2,5.2-39.7,7.2c-10.8,1.6-28.9,5.4-36.8-0.8c-3.8-3-4-7.2-3.6-10.7c0.3-3.7,1.8-7.4,4.2-10.9c1-1.6,2.3-3.1,3.7-4.6
	c0.7-0.7,1.4-1.5,2.2-2.2c0.1-0.1,0.6-0.6,0.9-0.8c0,0,0,0,0,0c0,0,0,0,0,0c0,0,0,0,0.1-0.1c0,0,0,0,0,0c0,0,0,0,0,0h0c0,0,0,0,0,0
	c0,0,0,0,0,0c0.1,0,0.1-0.1,0.1-0.1v0c0,0,0.1,0,0.1-0.1c0,0,0.1,0,0.1,0c0,0,0.1-0.1,0.1-0.1c0,0,0,0,0,0c0.1,0,0.1-0.1,0.1-0.1
	c0.3-0.2,0.7-0.5,0.8-0.7c0,0,0,0,0,0c0,0,0,0,0,0c0,0,0,0,0,0c0,0,0,0,0,0c0,0,0,0,0,0c0,0,0,0,0,0c0,0,0.1-0.1,0.1-0.1
	c0.4-0.3,0.8-0.6,1.2-0.9c0.4-0.3,0.7-0.5,1.1-0.8c0,0,0,0,0,0c0,0,0,0,0,0c0,0,0,0,0.1-0.1c0,0,0,0,0,0c0,0,0,0,0,0c0,0,0,0,0,0
	c0.1-0.1,0.2-0.1,0.4-0.3c1.3-0.9,2.7-1.9,4-2.8c41.7-28.3,85.2-56.2,127.7-84.2c16.7-11,33.4-22.1,50.4-33h-5.7
	c-8.7,5.6-17.3,11.3-25.9,17c-43.8,28.9-87.7,57.8-131.5,86.7c-11.3,7.5-22.3,15.1-31.8,23.1c-8.5,7.2-16.6,14.8-19.9,23.1
	c-2.2,5.6-4.6,16.4,7.5,19.6c6,1.6,13.4,0.9,19.6,0c6.8-0.9,13.5-1.9,20.2-3c53.3-8.7,102.9-23,145.3-41.5
	c48.2-21.1,85.3-47.4,115.3-75.8c15.2-14.3,28.6-29.1,43.4-43.5C2715.2,120.1,2717.2,118.2,2719.2,116.3z"/>
<path class="accentcolor" d="M2817.8,116.3h-18.6c-13,5.1-25.8,10.3-37.6,16.1c-29.5,14.3-51.8,32.1-71.7,50c-8.9,8-17.4,16.2-26.1,24.2
	c-2.1,1.9-4.1,3.8-6.2,5.6c-1.1,1-2.3,2-3.4,3c0,0-0.3,0.3-0.5,0.5c-0.1,0.1-0.2,0.1-0.2,0.2c0,0,0,0,0,0c0,0,0,0,0,0h0c0,0,0,0,0,0
	c0,0,0,0,0,0c0,0,0,0,0,0l0,0c0,0,0,0,0,0c0,0,0,0,0,0c0,0,0,0,0,0c-0.6,0.5-1.1,1-1.7,1.4c-0.9,0.8-1.9,1.6-2.8,2.3
	c0,0,0,0-0.1,0.1c0,0,0,0-0.1,0c0,0,0,0-0.1,0c-0.1,0.1-0.1,0.1-0.2,0.2c-0.4,0.3-0.9,0.7-1.3,1c-0.8,0.7-1.7,1.3-2.5,1.9h0v0
	c0,0,0,0,0,0c0,0,0,0-0.1,0v0c0,0,0,0,0,0c0,0,0,0,0,0c0,0,0,0-0.1,0c0,0-0.1,0.1-0.1,0.1c-0.1,0-0.1,0.1-0.1,0.1c0,0,0,0,0,0
	c0,0-0.1,0.1-0.2,0.1c0,0-0.1,0.1-0.1,0.1c0,0-0.1,0.1-0.1,0.1c0,0,0,0-0.1,0c-0.7,0.5-1.4,1.1-2.2,1.6c-0.6,0.4-1.2,0.9-1.7,1.3
	c-0.1,0.1-0.5,0.3-0.8,0.6c0,0,0,0-0.1,0c0,0-0.1,0-0.1,0.1c0,0,0,0,0,0c0,0-0.1,0-0.1,0.1v0c0,0-0.1,0.1-0.1,0.1c0,0-0.1,0-0.1,0.1
	c0,0,0,0,0,0c-0.3,0.2-0.7,0.5-0.8,0.6c-0.5,0.3-0.9,0.6-1.4,0.9c-2.4,1.7-4.7,3.3-6.7,4.5c-4.8,3.1-9.7,6.2-14.9,9.2
	c-10.9,6.4-22.4,12.4-34.6,18.2c-23.9,11.2-50.2,21.2-78.5,29.5c-55.7,16.3-119.4,25.7-183.9,24.3c-14.8-0.3-32.2-0.6-44.4-5.5
	c-6.3-2.5-10.2-6.3-10.3-10.4c0-2,0.7-4,1.9-5.8c0.6-0.9,1.2-1.7,2-2.6c0.1-0.1,0.2-0.2,0.2-0.3l0.5-0.4c1.5-1.1,3-2.1,4.5-3.2
	c3.2-2.2,6.4-4.5,9.6-6.7c6-4.2,12.1-8.4,18.1-12.6c12.1-8.4,24.4-16.7,36.7-25c49.1-33.1,99.6-65.8,150.9-98
	c14.9-9.4,30-18.7,45-28.1h-6.4c-53,33-105.2,66.4-156,100.2c-25.8,17.2-51.3,34.5-76.4,51.9c-14,9.8-28.9,19.4-40.1,30.1
	c-7.7,7.3-14.6,17.2-1,24c11.2,5.6,29.1,6.1,43.9,6.5c16.5,0.4,33.1,0.2,49.5-0.7c32.7-1.8,64.7-6.3,95-12.7
	c62.2-13.3,117.1-34.9,161-60.8c25.3-14.9,47.2-31.1,66.5-48.2c9.3-8.2,18-16.7,27-24.9c2.2-2,4.4-4,6.6-6c2.6-2.3,4.5-4,6.5-5.7
	c1.2-1,2.3-2,3.5-2.9c0.1,0,0.2-0.1,0.3-0.3c0,0,0.1-0.1,0.1-0.1c0,0,0,0,0,0c0,0,0,0,0.1,0c0,0,0.1,0,0.1-0.1c0,0,0,0,0,0
	c0,0,0,0,0.1-0.1h0c0,0,0.1,0,0.1-0.1c0,0,0,0,0,0c0,0,0.1,0,0.1-0.1v0c0,0,0,0,0,0c0.4-0.3,0.8-0.6,1.2-1c0.5-0.4,0.9-0.7,1.4-1.1
	c0,0,0,0,0,0c0,0,0.1,0,0.1-0.1c0,0,0,0,0,0c0.1-0.1,0.1-0.1,0.2-0.2c0,0,0.1-0.1,0.1-0.1c0.1-0.1,0.2-0.2,0.3-0.2
	c1.2-0.9,2.8-2.1,3-2.2c22.4-15.9,53.8-27.1,83.8-39C2808,120.4,2812.9,118.4,2817.8,116.3z"/>
<path class="accentcolor" d="M1844.8,271c-53.3-0.1-106.7-0.4-160-0.8c10.3,1.1,21,1.7,30.5,2.3C1758.1,275.2,1802.1,275,1844.8,271z"/>
<path class="accentcolor" d="M1964.1,288.1c7.1,0.8,14.2,1.8,21.2,2.8c18.4-6.1,35.7-13,51.8-20.5c-5.8,0-11.5,0.1-17.3,0.1
	C2002.1,277,1983.4,282.8,1964.1,288.1z"/>
<path class="accentcolor" d="M1555.1,365.9c6.2-4.9,12.9-9.7,20.2-14.3c-25.3-0.3-50.6-2-75.1-5.3c-16.7-2.3-34.3-5.3-46.5-11.9
	c-11.4-6.2-16.3-14.8-16.5-23.2c-0.2-9.5,5.4-18.6,12.1-27.3c7.1-9.2,14.6-18.3,20.4-27.7c11.3-18.5,17.4-37.8,21-57
	c3.5-18.6,4.6-37.3,5.6-56c-2.3-8.9-4.5-17.9-6.5-26.9h-8.9c-2.2,19.1-2.8,38.3-4.1,57.3c-1.4,19.8-3.6,39.7-9.4,59.4
	c-5.9,19.7-16.2,38.7-30.9,57.1c-12.9,16.1-27,35.3-10,52.1c8.2,8.2,23.4,13,40.1,16c18.7,3.3,38.5,5.3,58.2,6.5
	C1534.9,365.3,1545,365.7,1555.1,365.9z"/>
<path class="accentcolor" d="M1901,283.4c14.1,0.5,27.9,1.3,41.4,2.5c17.6-4.3,34.4-9.4,49.9-15.2c-9.8,0.1-19.6,0.1-29.4,0.2
	c-19.8,4.9-40.4,8.9-61.3,12.4C1901.5,283.3,1901.3,283.3,1901,283.4z"/>
<path class="accentcolor" d="M1662.5,312.5c16.7-5.3,34.4-9.9,53-13.9c-2.4,0-4.9,0-7.3,0c-32.6-0.1-65.3-1.5-97.4-4.4
	c-12.4-1.1-25.3-2.7-35.7-6.5c-12.1-4.4-15.9-11.1-15.9-18.4c0-7.1,0.3-14.2,0.8-21.4c-5.8-3.6-11.3-7.6-16.4-12.2
	c-0.4,7-0.8,14-1.3,21c-0.5,8.9-1.6,17.8-1.5,26.6c0.1,7.1,3.3,13.8,14.9,18.3c10.1,3.9,23.1,5.6,35.4,6.8
	c15.7,1.5,31.6,2.5,47.4,3.2C1646.5,312,1654.5,312.3,1662.5,312.5z"/>
<path class="accentcolor" d="M44.6,882.7v6.8c13.3-5.7,26.7-11.3,40.1-16.9c50.2-21,101.1-41.5,152-62c22.7-9.1,45.4-18.7,71.7-25
	c5.9-1.4,11.9-2.6,18.1-3.6c2.7-4.3,5.4-8.4,8-12.5c-23.9,4.8-44.9,12.6-65.1,20.7c-51.9,20.7-103.3,41.6-154.4,62.8
	C91.5,862.7,67.5,872.4,44.6,882.7z"/>
<path class="accentcolor" d="M44.6,914.6v4.6c62.7-35.3,135.4-66.1,217.2-89.2c13.6-3.9,27.7-7.6,42.2-11c2.3-3.9,4.7-7.8,7.1-11.7
	c-5.4,1.3-10.8,2.7-16.1,4.1c-87.7,23.4-165.4,55.7-232,92.7C56.8,907.6,50.6,911.1,44.6,914.6z"/>
<path class="accentcolor" d="M44.6,816.6v6.2c26.8-12,55.1-23.1,84.7-33.2c70.9-24.3,149-43.2,230.9-55.7c3.6-4.5,7.2-8.9,11.1-13.2
	c-71.6,11.2-140.3,27.4-203.6,47.8C123.7,782.5,82.5,798.7,44.6,816.6z"/>
<path class="accentcolor" d="M44.6,858.4v5.4c0.2-0.1,0.3-0.2,0.5-0.2c41.3-20.8,86-39.9,133.6-56.9c50.4-18,104.3-34.4,161.2-46.6
	c0.3-0.1,0.7-0.1,1-0.2c2.9-4.2,5.8-8.3,8.7-12.3c-48.2,10.6-94,24.3-137.3,39.2c-49.5,16.9-95.9,36.1-139,57.1
	C63.6,848.7,54,853.5,44.6,858.4z"/>
<path class="accentcolor" d="M44.6,544.1v18.8c37.7,8.4,78.4,13.4,119.7,14.2c40,0.7,79.7-2.8,118.8-6.8c41.4-4.2,82.7-8.6,124.5-12
	c79.4-6.5,160.8-9.8,240.7-3.7c69.7,5.4,138.5,17.9,194.6,39.9c14,5.5,28,11.4,38.1,18.9c1.7,1.3,3.4,2.6,4.8,4h24.7
	c0.7-3.6-0.6-7.3-3.1-10.7c-6.4-8.5-19.3-15.2-32.6-21c-13.7-6-28.3-11.3-43.6-16.1c-30.5-9.5-63.8-16.7-98.2-21.9
	c-75.2-11.3-154.4-12.5-232-8.8c-42.7,2.1-85.1,5.6-127.2,9.6c-42,4.1-83.8,9.2-126.2,12.2c-35.9,2.5-72,2.9-107.8-0.3
	c-31.6-2.8-62.3-8-91-15.2C47.3,544.8,46,544.5,44.6,544.1z"/>
<path class="accentcolor" d="M44.6,747.7v7.1c5.9-2.4,11.7-4.8,17.6-7.2c66.2-27.2,133.3-53.8,201.2-79.9c31.3-12,63.3-23.9,99.1-32.1
	c37-8.5,77.2-11.7,117.5-12.8c35.7-1,71.8-1.1,107.7-0.4c0.2,0,0.3,0,0.5,0c38.8-3.4,77.7-5,116.6-4.9h31.8
	c-21.6-2.9-43.4-5.3-65.6-6.8c-42.1-2.8-84.7-3-127.2-2.8c-39.6,0.1-79.7,0.8-118.3,5.6C388,618,354,627.1,322.2,638.1
	c-33.3,11.5-64.9,24.3-96.7,36.7c-33,12.9-65.8,26-98.4,39.1C99.5,725.1,72,736.3,44.6,747.7z"/>
<path class="accentcolor" d="M44.6,677.9v9.1c12.5-3.7,24.8-7.5,37-11.4c97.2-31.1,185.9-71.9,296.3-90.9c36.5-6.3,75.1-10,113.5-9.8
	c-25.1,2.2-50.1,4.6-74.5,8.5c-47.7,7.6-92.6,19.1-134.8,32.7c-43,13.9-83.3,29.9-122.4,46.5c-38.8,16.4-76.9,33.2-115.1,50v6.6
	c27-11.8,54-23.6,81.2-35.3c77.1-33.1,159.1-65.7,255.3-83.2c28.1-5.1,57-8.5,86.4-11.1c31.9-2.8,64.1-5.1,95.5-9.3
	c1.5-0.2,2.9-1.3,3.7-1.8c2.5-1.6,4.8-3.3,6.9-4.9c0.7-0.5,8.8-7.5,7.7-7.6c-111.3-17-225.4,8.2-317.9,38.6
	c-48.8,16-95,33.9-143.5,50.1C95.3,662.8,70.2,670.6,44.6,677.9z"/>
<path class="accentcolor" d="M116.3,59.5c-5-0.9-9.9-1.6-14.9-2.3C86.3,63,71.7,69.2,57.6,75.7c-4.4,2-8.7,4.1-13,6.2V88
	c0.1,0,0.1-0.1,0.2-0.1C67.4,77.6,91.3,68.2,116.3,59.5z"/>
<path class="accentcolor" d="M62.9,53.1c-6.1-0.4-12.2-0.7-18.3-0.9V58C50.6,56.3,56.7,54.6,62.9,53.1z"/>
<path class="accentcolor" d="M185.7,78.9c-1.1-0.5-2.2-1.1-3.3-1.6c-2.1-0.8-4.2-1.6-6.2-2.4c-33.6,13.1-65.3,27.4-94.5,43.3
	c-12.8,7-25.2,14.2-37,21.6v4.1c5.8-3.5,11.7-6.9,17.8-10.2C99.6,113,141.3,95.1,185.7,78.9z"/>
<path class="accentcolor" d="M44.6,787.3v6.2c99.8-45.3,218.9-81.4,349.5-96.8c2.2-2.1,4.5-4.3,6.8-6.4c2.7-2.5,5.5-4.9,8.2-7.3
	c-119.6,14.6-229.7,45.7-324.6,86.3C70.8,775.2,57.6,781.2,44.6,787.3z"/>
<path class="accentcolor" d="M3699.4,550.9V532c-25.5-6.4-51.2-12.4-76.8-18.4c-25.7-6-51.4-11.9-76.8-18.2c-13-3.2-27-6.3-37.6-11.4
	c-10.4-5-15.4-11.8-18.2-18.8c-2.8-7.1-3.7-14.4-6.7-21.6c-3.1-7.3-7.9-14.4-14.3-21.1c-2.3-2.5-4.9-4.9-7.6-7.3
	c0,0-0.1-0.1-0.1-0.1c-4.5-3.9-9.5-7.6-15.1-11.1c-9.1-5.8-19.9-10.8-30.4-15.9c-10.3-5.1-20.2-10.5-26.3-17.2
	c-6.3-6.9-8.2-14.6-7.1-22.2c2-14,13-27.3,26.5-39.4c1.4-1.2,2.5-2.2,3.6-3.1c0.8-0.7,1.6-1.3,2.4-2c0.2-0.1,0.9-0.7,1.3-1
	c0,0,0.1,0,0.1-0.1c0,0,0,0,0,0c0,0,0,0,0,0c0,0,0,0,0,0c0,0,0,0,0,0c0,0,0,0,0,0c0,0,0,0,0,0c0,0,0,0,0,0l0,0c0,0,0,0,0,0
	c3.4-2.7,4.9-3.8,8.4-6.4c5.8-4.2,13.4-9.2,20.3-13.6c15.6-9.8,32.3-19.2,49.3-28.5c70.5-38.3,147.4-75.3,190.1-124
	c6-6.9,10.9-13.9,14.8-21V52.1c-3.7,0.1-7.4,0.3-11.1,0.5c7.5,25.6,6,51.5-11,77c-7.1,10.7-17.4,21.6-28.5,30.7c0,0,0,0,0,0v0
	c0,0,0,0,0,0c0,0,0,0,0,0c0,0,0,0,0,0c0,0,0,0,0,0c0,0,0,0,0,0c0,0-0.1,0.1-0.1,0.1c0,0-0.1,0.1-0.1,0.1c0,0,0,0,0,0
	c-0.3,0.2-0.6,0.4-0.6,0.5c-0.8,0.7-1.6,1.3-2.5,1.9c-1.6,1.3-1.1,0.9-3.1,2.3c-3.7,2.7-6.4,4.6-10.4,7.4c-7,4.8-14.5,9.4-22.1,14
	c-32.1,19.3-67.6,37-101.5,55.4c-36.2,19.7-70.2,40.3-98.4,63.1c-26.4,21.4-60.1,51.4-40.9,77.3c-1.4-0.3-2.8-0.6-4.2-0.9
	c-8.4-1.7-17.1-3.1-25.8-4.4c-7.8-1.2-15.7-2.4-22.6-4.7c-14-4.6-18.2-12.8-16.9-20.9c1.4-8.6,7.1-17.1,12.9-25.2
	c5.9-8.3,12.8-16.4,20.5-24.2c3.9-4,7.8-7.6,12.1-11.5c1-0.9,1.9-1.7,2.9-2.6c0,0,0,0,0,0c0,0,0,0,0,0v0c0,0,0,0,0,0v0c0,0,0,0,0,0
	c0,0,0.1-0.1,0.2-0.2c0.1,0,0.1-0.1,0.2-0.2c0.6-0.5,1.1-1,1.7-1.4c1.1-1,2.3-1.9,3.5-2.9c0.4-0.4,0.9-0.7,1.3-1.1
	c0,0,0.8-0.7,1.3-1.1c0,0,0,0,0,0c0,0,0.1-0.1,0.1-0.1c0,0,0.1-0.1,0.1-0.1c0,0,0,0,0,0c0,0,0,0,0,0c0,0,0,0,0,0
	c2.1-1.6,4.1-3.3,6.2-4.9c0.6-0.5,1.2-0.9,1.8-1.4c0,0,0.1,0,0.1-0.1c0,0,0.1-0.1,0.1-0.1c0,0,0,0,0,0c0,0,0.1-0.1,0.1-0.1
	c1.4-1.1,2.8-2.1,4.2-3.2c1.3-0.9,2.5-1.9,3.8-2.8c0.6-0.5,1.3-0.9,1.9-1.4c0,0,0.4-0.3,0.7-0.5c0,0,0,0,0,0c0,0,0,0,0.1,0
	c0,0,0.1,0,0.1,0c0,0,0,0,0,0c0,0,0,0,0.1,0c0,0,0,0,0,0c0,0,0,0,0.1,0c0,0,0,0,0,0c2.5-1.8,5-3.5,7.5-5.3
	c42.9-29.7,92.1-57.1,135.9-86.5c46.3-31.1,89.6-64.9,113.8-102.1c3.3-5.1,6.2-10.2,8.7-15.4c-4.6,0.7-9.2,1.4-13.8,2.2
	c-1.6,4.8-3.6,9.5-6,14.3c-8.8,17.3-22.5,33.9-39.2,49.5c-4.6,4.3-8.5,7.7-12.9,11.4c-1,0.9-2.1,1.7-3.1,2.6c-0.4,0.3-0.8,0.7-1.2,1
	c0,0,0,0,0,0c0,0,0,0,0,0c0,0,0,0,0,0c0,0,0,0,0,0c0,0,0,0,0,0c0,0,0,0-0.1,0c-0.1,0-0.1,0.1-0.2,0.2c0,0,0,0,0,0c0,0,0,0,0,0
	c0,0-0.1,0.1-0.2,0.1c-0.2,0.1-0.3,0.2-0.4,0.3c-2.6,2.1-5.3,4.1-7.9,6.2c0,0,0,0,0,0c0,0,0,0-0.1,0c0,0,0,0,0,0
	c-0.1,0.1-0.2,0.1-0.3,0.2c0,0,0,0,0,0c0,0,0,0,0,0c0,0,0,0-0.1,0c0,0,0,0,0,0c0,0,0,0,0,0c-0.6,0.4-1.2,0.9-1.8,1.3
	c-1.1,0.8-2.3,1.7-3.4,2.5c-1.3,1-2.6,1.9-3.9,2.9c-0.7,0.5-1.3,1-2,1.4c-0.2,0.1-0.4,0.3-0.5,0.4c0,0,0,0-0.1,0c0,0-0.1,0-0.1,0.1
	c0,0,0,0,0,0c0,0-0.1,0-0.1,0.1c0,0,0,0,0,0c0,0-0.1,0.1-0.1,0.1c-0.1,0-0.1,0.1-0.2,0.1c0,0,0,0,0,0c0,0-0.1,0-0.1,0c0,0,0,0,0,0
	c-0.1,0.1-0.3,0.2-0.5,0.3c-5.3,3.8-10.7,7.5-16.3,11.2c-43.8,29.5-92.9,56.8-136,86.5c-44.6,30.8-86.4,64.7-106.2,102
	c-4,7.5-6.7,16.1-1.2,23.6c1.8,2.5,4.5,4.5,7.8,6.2c-20-3.6-38.1-9-48.8-19c-8.6-8-8-17,0.5-25c9-8.4,21.8-18.1,32.5-26.9
	c5.5-4.5,11-9.1,16.5-13.6c4.4-3.6,9.2-7.5,14.3-11.1c4.2-3,10.4-7,16-10.2c6.7-3.8,13.7-7.4,21-10.9c14.7-7.1,29.9-13.8,44.5-21
	c13.8-6.8,26.9-14,39.4-21.5c26.5-15.8,50.3-32.7,72.5-50.2c21.8-17.2,42-34.9,61.5-52.7c19.8-18.3,40.4-36.5,57.6-55.5
	c2-2.2,3.9-4.5,5.7-6.7c-3.3,0.6-6.5,1.2-9.8,1.9c-1.3,1.9-2.6,3.8-4,5.7c-14.3,18.9-34.9,36.6-54.1,54.4
	c-9.3,8.7-18.8,17.3-28.5,25.8c-5,4.4-8.5,7.4-13.4,11.6c-2.4,2-4.8,4-7.2,6c-1.2,1-2.4,2-3.7,3c-0.1,0.1-0.7,0.5-1,0.8c0,0,0,0,0,0
	c0,0,0,0-0.1,0c0,0-0.1,0.1-0.1,0.1c0,0-0.1,0-0.1,0.1c0,0,0,0,0,0c0,0,0,0,0,0c0,0,0,0,0,0c0,0,0,0,0,0c-0.5,0.4-1.2,1-1.3,1.1
	c-2.5,2-5,4-7.5,5.9c-1.3,1-2.5,2-3.8,2.9c-0.2,0.1-0.3,0.2-0.4,0.3c-0.1,0.1-0.2,0.2-0.3,0.2c0,0,0,0,0,0c0,0-0.1,0.1-0.1,0.1
	c0,0-0.1,0.1-0.1,0.1c0,0-0.1,0.1-0.1,0.1c0,0,0,0,0,0c-0.7,0.6-1.5,1.1-2.2,1.7c-5.6,4.2-9.7,7.2-15.1,10.9
	c-10.8,7.5-22.2,14.9-34.3,22c-12.5,7.3-25.6,14.4-39.5,21.1c-14.7,7.1-30,13.8-44.5,21c-31.8,15.8-55.3,34.7-78.5,53.8
	c-11.4,9.4-22.9,18.9-34.3,28.3c-10.5,8.7-23.7,18.6-22.5,29.2c0.9,8.2,8.4,14.7,19.3,19.7c-9.5,0-18.9,0.1-28.2,0.3c0,0,0,0,0,0
	c-3.5-0.2-6.9-0.6-10.2-1.3c-8.7-1.7-14.3-5.3-18.1-9.5c-8.7-9.5-14.4-20.6-14-31.1c0.2-5.2,1.7-10.5,5.6-15.4c0.8-1,1.7-2,2.7-3
	c0.3-0.2,1-0.7,1.3-0.9c1.4-0.9,2.8-1.9,4.2-2.8c13.8-9.2,27.9-18.4,41.8-27.6c26.3-17.3,51.3-35.6,82.3-50.9
	c28.3-14,62.9-24,93.8-36.5c34.9-14,61.1-31.9,82.1-51.8c18.9-17.8,31.6-37,44.2-56.1c2.2-3.4,4.5-6.7,6.7-10.1
	c-4.4,1.9-8.7,3.7-13,5.4c-0.6,0.8-1.1,1.7-1.7,2.5c-13,19.9-25.2,40.1-42.6,59.1c-3.6,4-7.5,7.8-11.7,11.5c0.3-0.3-1.8,1.5-2.2,1.8
	c-0.4,0.3-0.8,0.7-0.9,0.7c0,0-0.1,0.1-0.1,0.1c0,0-0.1,0.1-0.2,0.1c-0.2,0.2-1.6,1.2-1.4,1c-0.5,0.4-1,0.7-1.6,1.1
	c-1.3,0.9-2.6,1.7-4,2.6c-11.9,7.5-26.3,13.9-41.3,19.7c-31.6,12.3-65.9,22.8-94.2,37.1c-31,15.7-56.5,34.1-83.1,51.7
	c-13.9,9.2-27.9,18.4-41.8,27.6c-14.9,9.9-30.5,20.4-38.4,32.3c-6.6,9.9-5.5,20.7-0.7,30.7c2.3,4.8,5.3,9.6,9.2,14.1
	c-5,0.4-10,0.7-15,0.9c-8.6,0.4-18.7,0.2-25.6-2.8c-8.5-3.7-9.1-10.9-9.4-16.1c-1.5-24.3,25.1-45.8,48.8-65.5
	c13.2-10.9,24.8-20.5,39-30.7c13.8-9.8,29.6-19.3,46-28.3c35.3-19.2,72.9-37.3,108.2-56.5c36.5-19.9,71.5-40.5,99.4-63.7
	c6.6-5.5,12.7-11.1,18.4-16.8c-2.3,0.5-4.6,1-6.9,1.4c-3.5,3.8-7.2,7.5-11,11.2c-2.2,2.1-5,4.6-7,6.3c-3.3,2.8-5,4.1-8.1,6.4
	c-6.1,4.5-12.9,9-19.9,13.4c-16,10-33.1,19.6-50.3,29c-35.3,19.2-72.9,37.3-108.2,56.5c-37.1,20.2-67.9,42.7-96.6,66.2
	c-13.8,11.3-27.6,22.6-40.1,34.3c-11.5,10.9-21.9,22.3-26.9,34.5c-2.4,5.8-3.5,11.8-2.8,17.8c0.6,5,1.3,11.5,9.3,15.1
	c7.1,3.1,17.5,3.2,26.3,2.8c10.1-0.5,20-1.5,30.1-2c10.5-0.6,21.1-1,31.6-1.3c0,0,0,0,0,0c0,0,0,0,0,0c5.5,0.4,11.1,0.3,16.6,0.2
	c8.2-0.1,16.5-0.4,24.7-0.4c0,0,0,0,0,0c19.4,0.3,38.8,1.1,58.1,2.5c43.2,3,86.2,8.6,126,17.8c2,0.5,3.9,0.9,5.9,1.4c0,0,0,0,0,0
	c0,0,0,0,0,0c0,0,0,0,0,0c7.1,1.7,14.2,3.6,21.1,5.6h0c10.6,9.1,18.3,19.2,22.4,29.6c5.5,13.7,3.5,30,26.1,40
	c11,4.9,24.9,7.9,37.9,11.1c12.7,3.1,25.4,6.2,38.2,9.2C3611.2,529.7,3656.1,539.6,3699.4,550.9z M3175,327.8
	c-0.2,0.2-0.3,0.2-0.1,0.1C3174.3,328.3,3173.5,328.9,3175,327.8z M3462.3,169.6c0,0-0.1,0.1-0.1,0.1
	C3462.2,169.7,3462.2,169.7,3462.3,169.6z M3460.1,171.4c0.4-0.3,0.6-0.5,0.1-0.1C3460,171.5,3460,171.5,3460.1,171.4z M3459,172.3
	C3459.6,171.8,3459.3,172.1,3459,172.3C3458.7,172.5,3458.4,172.8,3459,172.3z M3457.7,173.2
	C3457.8,173.2,3457.8,173.2,3457.7,173.2C3457.8,173.2,3457.8,173.2,3457.7,173.2z M3457.7,173.2c-0.2,0.1-0.3,0.2-0.3,0.2
	C3457.6,173.4,3457.7,173.3,3457.7,173.2z M3175,327.8c0,0-0.1,0.1-0.1,0.1C3174.9,327.9,3174.9,327.9,3175,327.8
	C3174.9,327.9,3174.9,327.8,3175,327.8C3175,327.8,3175,327.8,3175,327.8C3175,327.8,3175,327.8,3175,327.8z M3175,327.8
	 M3175,327.8"/>
<path class="accentcolor" d="M1190.1,116.3h-11.7c-12.5,24.6-26.4,49-41.8,73.3c-20.5,32.2-42.1,64.3-65.3,96c-2.6,3.5-5.3,7-8.3,10.4
	c-1.3,1.4-2.7,2.8-4.1,4.2c0,0-0.1,0.1-0.1,0.1c-8.4,4.8-18,8.9-29.9,11.6c-22.6,5.1-48.5,2.9-65.1-6.6c-14.5-8.3-20.7-20-19.5-31
	c0.7-6.2,4.1-12.2,9.1-17.8c1-1.1,2.2-2.3,3-3.1c0.3-0.3,0.6-0.6,0.9-0.8c0,0,0.1-0.1,0.2-0.1c0,0,0,0,0.1,0v0c0,0,0.1,0,0.1-0.1
	c0.2-0.1,0.4-0.3,0.5-0.4c0,0,0,0,0,0c0,0,0,0,0,0c0,0,0,0,0.1-0.1c0.1-0.1,0.3-0.3,0.5-0.4c0,0,0,0,0,0c0,0,0,0,0,0
	c0.3-0.2,0.9-0.7,1.2-0.9c0,0,0.1-0.1,0.1-0.1c0,0,0,0,0,0c0,0,0,0,0,0c0.3-0.2,0.7-0.5,0.7-0.5c0.5-0.3,1-0.7,1.5-1
	c2-1.4,3.7-2.5,5.9-3.9c18-11.4,37.4-22.2,54.7-33.9c18.4-12.5,35.2-25.6,50.8-39c21-18,39.6-36.7,56.8-55.8h-6.6
	c-13.9,15.9-28.6,31.7-44.9,47c-2.8,2.6-6.3,5.8-9.6,8.7c-3.9,3.5-5.5,4.8-9.3,8c-1.8,1.5-3.6,3-5.4,4.5c-0.2,0.1-0.3,0.2-0.3,0.3
	c0,0,0,0,0,0c0,0,0,0,0,0c0,0,0,0,0,0c-0.3,0.3-0.7,0.5-1,0.8c-1,0.8-2,1.6-3,2.4c-1,0.8-2,1.6-3.1,2.4c-0.2,0.2-0.7,0.5-1,0.8
	c0,0,0,0,0,0c0,0-0.1,0.1-0.1,0.1c0,0,0,0,0,0c0,0,0,0-0.1,0.1c0,0-0.1,0-0.1,0.1c0,0,0,0,0,0c-0.1,0.1-0.1,0.1-0.2,0.1c0,0,0,0,0,0
	c0,0,0,0,0,0c-1.9,1.4-3.8,2.8-5.7,4.2c-0.6,0.4-1.2,0.9-1.8,1.3c0,0-0.4,0.3-0.6,0.5c0,0,0,0-0.1,0v0c0,0,0,0,0,0v0c0,0,0,0-0.1,0
	c0,0,0,0,0,0c0,0-0.1,0.1-0.1,0.1v0c0,0,0,0,0,0c-0.5,0.3-1.5,1.1-1.8,1.3c-2.2,1.5-4.4,3.1-6.6,4.6c-3.7,2.5-7.9,5.2-12.2,7.9
	c-9.3,5.8-19,11.4-28.5,17.1c-21.7,13.1-43.3,27.6-55.2,43.8c-8.4,11.3-9.6,23.6-1.2,35.1c7.6,10.4,23.7,19.3,46,21
	c29.6,2.3,55.6-7.8,72.6-19.1c12-8,22.3-16.7,30.4-25.9c6.4-7.3,11.5-14.9,16.7-22.4c11.7-16.7,23.3-33.5,34.7-50.3
	C1153.1,179.8,1173.1,148.2,1190.1,116.3z"/>
<path class="accentcolor" d="M1117.2,187.4c4.9-4.3,10.4-9.2,10-14.3c-0.3-3.8-5.1-8.3-13.5-8.6c-9.2-0.3-17,4-22.4,7.2
	c-9.1,5.4-16.8,11.5-23.3,17.7c-8.5,8.2-13.2,17-17.9,25.9c-2.3,4.3-4.7,8.7-8,12.8c-1.4,1.8-3,3.6-4.8,5.3
	c-1.2,1.1-2.1,1.8-3.8,3.1c-0.1,0.1-0.5,0.4-0.7,0.5c-0.4,0.3-0.8,0.6-1.1,0.9c-1.2,0.9-2.3,1.7-3.5,2.6c-3.3,2.5-6.6,4.9-9.8,7.4
	c-6.4,4.9-12.5,9.9-17.8,15.1c-4.3,4.2-8,8.6-10.2,13.2c-1.8,3.7-4.6,9.7,2.1,12.5c6.6,2.8,17.8,2.7,25.8,2.1
	c9.1-0.8,17.9-2.7,25.5-5.4c8.9-3.2,16-7.4,22.4-11.8c8.3-5.8,15.9-11.9,22-18.3C1108,234.5,1117,210.6,1117.2,187.4z M1071.5,266.5
	c0,0,0.1-0.1,0.1-0.1c0.6-0.4,1.2-1.2,0.9-0.5c-0.2,0.4-3.5,3-1.6,1.2C1071,266.9,1071.3,266.7,1071.5,266.5z M1071.5,266.5
	c-1.5,0.8-3,1.7-4.7,2.4c-12,5.6-28.8,9.1-45.2,7.8c-8.5-0.7-15.1-2.8-14.8-7.5c0.2-3.7,2.1-7.5,4.6-10.9c1.2-1.6,2.5-3.1,4.1-4.6
	c0.2-0.2,0.6-0.5,1.1-1c-0.1,0.1,0.6-0.5,0.8-0.7c0.1-0.1,0.2-0.2,0.3-0.3c0,0,0.1-0.1,0.1-0.1c1-0.8,1.9-1.5,2.9-2.3
	c-1.9,1.5,1.4-1.1,1.8-1.3c2.3-1.7,4.7-3.4,7-5.2c10.8-8.1,21.6-16.4,29-25.4c5.9-7.1,9.4-14.7,13.5-22.1c2.2-4,4.6-8,7.8-11.8
	c0.2-0.2,0.4-0.4,0.6-0.6c1.2-0.6,2.5-1.2,3.9-1.8c7.7-3,17.1-2.7,22.1,1.8c1.2,1.1,1.9,2.2,2.2,3.4c-2.3,1.7-4.5,3.5-6.5,5.3
	c-1,0.9-3.4,2.5-3.4,3.6c1.2,19.4-4.2,38.9-16.1,57.4c-2.7,4.2-5.7,8.4-9.5,12.5C1072.5,265.4,1072,265.9,1071.5,266.5z
	 M1016.8,252.4C1016.8,252.4,1016.8,252.3,1016.8,252.4C1016.8,252.3,1016.8,252.4,1016.8,252.4z M1016.8,252.4
	c-0.1,0.1-0.2,0.2-0.3,0.2C1016.5,252.6,1016.6,252.5,1016.8,252.4z M1016.9,252.3C1016.9,252.3,1016.9,252.3,1016.9,252.3
	C1016.9,252.3,1016.9,252.3,1016.9,252.3z M1016.9,252.3c0,0,0.1-0.1,0.1-0.1C1017,252.2,1016.9,252.3,1016.9,252.3z M1017.6,251.7
	C1017.3,251.9,1017.4,251.8,1017.6,251.7C1017.8,251.5,1018.2,251.2,1017.6,251.7z M1080.2,182.8c-0.2,0.1-0.3,0.2-0.5,0.3
	c-0.8,0.4-2.7,1.9-1.4,0.7c0.8-0.7,2.2-2.2,3.5-2.8c0,0,0,0,0,0.1C1081.4,181.6,1080.8,182.2,1080.2,182.8z M1081.9,181
	C1082.4,180.3,1082.1,180.9,1081.9,181C1081.9,181,1081.9,181,1081.9,181z M1108.5,186.2c0.1-0.1,0.3-0.2,0.4-0.3
	c1.8-1.3,3.8-2.9,6.1-4.1c0.6-0.3,2-1.2,2-0.4c0.1,2,0.2,4,0.2,6c-0.6,0.5-1.1,1-1.7,1.5c-3.6,3.2-7.8,7-13,9.6
	c-4.7,2.3,0.8-2.8,1.4-3.2C1107,192.5,1109.3,189.3,1108.5,186.2z M1032.7,237.2c0.2-0.1,0.4-0.3,0.6-0.4
	C1032.3,237.6,1032.4,237.5,1032.7,237.2z"/>
<path class="accentcolor" d="M2123.2,327.9c1.5,0.6,3,1.3,4.5,2c19.2-11.3,37.6-22.9,55.3-34.8c62.6-41.9,117.2-86.6,173.8-130.6
	c20.9-16.2,42.2-32.4,64.3-48.2h-4.4c-7,5.1-14,10.2-20.9,15.3c-55.9,41.8-107.5,85-164.4,126.4
	C2198.1,282.3,2162.5,306,2123.2,327.9z"/>
<path class="accentcolor" d="M1515.5,473.7c-2-4.8-3.5-9.6-4.5-14.5c-39-0.4-78-2.1-116.5-5.2c-28.2-2.3-56.2-5.2-83.7-9
	c-24.1-3.3-48.4-7.3-69.5-14.3c-21.8-7.2-37.8-17.4-45.1-30.2c-7.5-13.1-6.2-27-1.1-40.3c8.6-22.3,29.3-42.6,53.4-61.6
	c26.2-20.6,54.7-40.4,79-61.6c24-21,44-43.5,49.5-67.8c4.1-17.7,1.3-35.4-3.3-53h-22.8c9,29.7,16,59.3-1.3,88.9
	c-13.2,22.7-37.9,42.7-63.7,62.2c-28.4,21.4-58,42.7-80.7,65.9c-21.4,22-37.8,47.1-31.2,71.9c3.6,13.8,15.6,26.3,36.7,35.3
	c19.8,8.4,44.5,13.4,69,17.1C1355.5,469,1435.7,474.2,1515.5,473.7z"/>
<path class="accentcolor" d="M1336,116.3h-17.7c-0.4,15.3-2.1,30.5-7.7,45.5c-3.7,9.9-9.1,19.7-16.9,29c-3.5,4.1-7.3,8.2-11.6,12.1
	c-2,1.9-4,3.6-5.7,5c-0.6,0.5-1.3,1-1.9,1.6c-0.1,0.1-0.6,0.5-1,0.8c0,0,0,0,0,0c0,0,0,0-0.1,0.1l-0.2,0.2l-0.1,0.1l-0.5,0.4
	c-1,0.8-2,1.6-3,2.3c-0.1,0.1-0.7,0.5-0.9,0.7v0c0,0,0,0,0,0c0,0,0,0,0,0v0c0,0,0,0,0,0c-0.5,0.4-1,0.8-1.6,1.2
	c-1.2,0.9-2.4,1.8-3.6,2.7c-3,2.2-4.9,3.5-7.7,5.5c-5.7,4-11.5,8-17.4,12c-11.9,8.1-23.8,16.1-35.1,24.4c-23.7,17.4-46,36-58.8,56.3
	c-5.8,9.2-9.4,18.7-9.8,28.4c-0.4,9.9,2.8,19.8,6.4,29.5c3.8,10.3,8.3,20.6,9.3,31c0.5,5.1,0.2,10.2-1.4,15.2
	c-0.2,0.8-0.5,1.5-0.8,2.3c-16.6,4-38.2-3.4-51.9-7.6c-16.6-5.2-32-11.2-47.4-17.2c-31.5-12.4-63.7-23.5-99.9-32
	c-18.3-4.3-37-8.1-56.1-11.4c-18.5-3.2-37.7-5.7-55.1-10.4c-15.4-4.1-29.2-10.3-36-18.6c-3.4-4.1-4.8-8.6-3.2-13
	c0.4-1.1,1-2.3,1.7-3.4c0.4-0.5,1.2-1.1,1.5-1.7c0.6-0.4,1.3-0.8,1.9-1.2c27.4-17.8,54.9-35.4,82.4-53.2
	c27.4-17.7,55.1-35.3,79.6-54c24.4-18.6,44.4-38.5,62.9-58.8c7.2-7.9,14.4-15.8,21.5-23.7h-6.5c-2.7,2.9-5.3,5.9-8,8.8
	c-17.5,19.4-34.1,39.1-54.6,57.7c-4.7,4.2-9.4,8.2-13.8,11.7c-4.7,3.7-9.6,7.3-15.2,11.2c-12,8.4-24.6,16.6-37.2,24.8
	c-27.4,17.7-54.8,35.4-82.3,53.1c-14.8,9.6-30.4,19-42.2,29.6c-9.1,8.2-14.3,16.8-7.1,25.9c14.9,18.8,57.7,23.5,91.4,29.3
	c38.1,6.6,75,15.1,108.9,26.1c33,10.7,61.7,24.5,95.1,34.8c14.6,4.5,35.2,11.4,52.6,7.1c9.7-2.4,16.2-8.1,21.7-12.5
	c5.5-4.4,10.5-9,13-14.1c9.6-19.5-3.9-40.2-9.9-59.4c-3.1-10-4.3-20-1.6-30c2.6-9.6,8-18.9,15.4-27.8c3.6-4.4,7.7-8.7,12.2-12.9
	c1.8-1.7,4-3.6,5.4-4.7c1.2-1,2.4-2,3.6-3c0,0,0,0,0,0c0,0,0.1,0,0.1-0.1c0.5-0.4,2.2-1.8,2.6-2.1c0.7-0.5,1.3-1,2-1.6
	c0.3-0.3,0.6-0.5,0.8-0.6c0,0,0.1,0,0.1-0.1c0,0,0,0,0.1,0c0,0,0,0,0,0c0,0,0,0,0,0c0,0,0,0,0,0c0,0,0,0,0,0c0,0,0,0,0.1-0.1
	c0,0,0,0,0,0c0,0,0,0,0,0c0,0,0,0,0,0c0,0,0,0,0,0c0,0,0,0,0,0c1.2-0.9,2.3-1.7,3.5-2.6c2.7-2,4.8-3.5,7.1-5.1
	c5.7-4,11.5-8,17.3-11.9c25.2-17.1,50.3-34.3,70.5-53.1c19.5-18.1,31.8-37.3,36.9-57.8C1334.2,130.1,1335.3,123.2,1336,116.3z"/>
<path class="accentcolor" d="M2079.8,312c3.6,1.1,7.1,2.3,10.6,3.4c15.8-6.4,31.2-13.1,46-20.1c74-34.9,130.6-77.1,179.5-121.8
	c20.7-19,40.3-38.2,60.6-57.3h-4.7c-8.9,8.2-17.6,16.5-26.2,24.7c-44.3,42.3-88.2,84.6-152.7,120.1
	C2158.5,279.9,2120.5,296.9,2079.8,312z"/>
<path class="accentcolor" d="M1511.1,429.1c1-4.6,2.4-9.1,4.2-13.6c-21.8,1.1-43.6,1.8-65.4,2.1c-51.6,0.7-103.6-1.3-153.9-7.7
	c-11.6-1.5-24.3-2.8-35.2-5.4c-12.1-3-12.4-8.2-9-14.2c6.4-11.3,16.9-21.9,29.1-31.9c25.9-21.1,55.4-40.9,78-63.1
	c22.6-22.1,39.7-45.6,50.6-69.9c11.1-24.7,15.7-50.1,13.5-75.5c-1-11.2-3.2-22.4-5.7-33.6h-22.1c5.5,23,11.2,46.1,9.6,69.1
	c-3.4,50.7-33.5,101.1-89.1,143.3c-28.5,21.6-60,43-77.6,67.7c-3.5,5-10.1,12-6,17.3c3.9,5.1,17.4,6.5,26.5,7.9
	c26,3.9,52.7,6.6,79.6,8.2C1395.5,433.3,1453.6,432.5,1511.1,429.1z"/>
<path class="accentcolor" d="M2044.7,302.3c6,1.5,11.9,3,17.7,4.6c29.1-8.6,56.9-18.6,80.3-31c15.9-8.4,29.1-17.7,40.7-27.6
	c-4.1,2.5-8.3,4.7-12.7,6.7c-1.7,1.2-3.5,2.4-5.5,3.5c-12.2,7.2-26.2,13.5-41.1,19.2C2099.5,287.3,2072.6,295.3,2044.7,302.3z"/>
<path class="accentcolor" d="M1525.9,396.1c3.4-4.8,7.3-9.6,11.6-14.2c-40.8,0.7-81.7-1.7-121.1-7c-9.6-1.3-19.3-2.7-28.6-4.5
	c-7.5-1.5-13.7-3.9-16.6-7.8c-5.8-7.7,1.2-16.6,6.6-23.9c29.3-39.7,51.3-80.8,65.6-122.5c11.3-33,17.7-66.4,19.3-99.9h-17.9
	c0,0.3,0,0.6,0,0.9c-0.2,21.7-2.6,43.4-6.9,65c-8.7,43.4-25.7,86.4-50.5,128.1c-6.2,10.4-12.9,20.7-20,30.9
	c-6.1,8.7-15,17.7-16.3,27c-0.5,3.5,0.1,7.2,3.5,10.3c4.4,4,12.4,5.7,20.6,7c19.7,3.3,40,5.9,60.5,7.7
	C1465.4,395.9,1495.7,396.9,1525.9,396.1z"/>
<path class="accentcolor" d="M2313.4,116.3h-4.6c-4.2,3.8-8.3,7.5-12.4,11.3c-19.6,18.1-38.4,36.4-56.3,54.9c-2.8,2.9-5.6,5.8-8.3,8.7
	c-2.4,5.4-5,10.5-7.8,15.2c13.2-14.7,26.9-29.3,41.2-43.7C2280.6,147.1,2296.7,131.6,2313.4,116.3z"/>
<path class="accentcolor" d="M1266,116.3h-16.4c-0.1,0.6-0.1,1.3-0.2,1.9c-2.1,18.1-6.7,35.9-16.5,53.4c-9,16.1-22.3,32.3-38.6,46.4
	c-0.4,0.3-1.8,1.5-2.6,2.2c-0.6,0.5-1.2,1-1.8,1.5c0,0-0.1,0.1-0.2,0.2c0,0,0,0,0,0c0,0,0,0,0,0c0,0-0.1,0-0.1,0.1c0,0,0,0,0,0v0
	c0,0,0,0,0,0c-0.1,0-0.1,0.1-0.1,0.1c0,0,0,0,0,0c0,0,0,0,0,0c0,0,0,0,0,0c0,0,0,0,0,0c0,0-0.1,0.1-0.2,0.1c0,0,0,0,0,0c0,0,0,0,0,0
	c0,0,0,0,0,0c-0.1,0.1-0.2,0.2-0.2,0.2c-0.6,0.5-1.2,0.9-1.8,1.4c-1.2,0.9-2.4,1.9-3.6,2.8c-0.4,0.3-0.9,0.7-1.3,1
	c0,0-0.1,0-0.1,0.1c-0.2,0.1-0.4,0.3-0.4,0.3c-1,0.8-2,1.5-3,2.3c-2.3,1.7-4.6,3.5-6.9,5.2c-10,7.5-20,14.9-29.2,22.7
	c-16.9,14.2-32.4,29.4-36.4,46.1c-3.3,13.9,1,28.4-7,41.9c-0.1,0.2-0.3,0.4-0.4,0.6c-5.6,2.4-12.2,4.1-19.1,5.2
	c-15.4,2.5-32.3,2.7-48.3,2.3c-34.1-0.8-67.8-5.6-97.7-14c-26.5-7.5-53-18.8-54.1-35.4c-0.6-8,4.3-16,11.4-23.1c1.5-1.5,3-2.8,4-3.7
	c0.4-0.4,0.9-0.7,1.3-1.1c0,0,0,0,0,0c0,0,0,0,0,0c0,0,0,0,0,0c0,0,0.1,0,0.1-0.1c0,0,0.1,0,0.1-0.1c0,0,0,0,0.1,0c0,0,0,0,0,0
	c0.1,0,0.1-0.1,0.2-0.2c0.5-0.4,1-0.8,1.4-1.1c0.2-0.1,0.3-0.2,0.4-0.4l0,0c0,0,0,0,0,0c0,0,0.1,0,0.1-0.1c0.1-0.1,0.2-0.1,0.3-0.2
	c2.3-1.7,4.6-3.4,6.9-5.1c0.1,0,0.1-0.1,0.1-0.1c0,0,0,0,0.1,0c0,0,0,0,0.1,0c0,0,0,0,0.1-0.1c0,0,0.1-0.1,0.1-0.1
	c0,0,0.1,0,0.1-0.1c0,0,0,0,0,0c0,0,0,0,0,0c1-0.7,2-1.4,3-2.1c1.4-1,2.9-2.1,4.3-3.1c21.8-15.7,42.7-31.8,62.9-48.1
	c39.3-31.8,75.6-64.5,109.8-97.8c0.7-0.7,1.4-1.3,2-2h-5.3c-31.1,30.8-64.1,61.4-99.3,90.6c-10,8.3-17.7,14.5-28,22.6
	c-10.3,8.1-18.4,14.2-29.2,22.2c-21.3,15.6-46.4,31.4-59.5,49.8c-5.3,7.5-8,15.4-4.8,23.3c3.2,7.7,12.1,14.3,23.4,19.6
	c24.3,11.3,57.6,18.4,89.5,21.9c17,1.9,34.3,2.8,51.7,2.6c15.6-0.2,32-1.1,45.9-4.9c17-4.6,28.4-14.1,37.2-22.4
	c6.6-6.3,10-13,11.3-20c2.8-14.9-0.1-29.7,8.7-44.2c4.4-7.2,10.9-14.2,18.1-20.5c0,0,0.2-0.2,0.4-0.4c0,0,0.1-0.1,0.1-0.1
	c0,0,0,0,0,0c0,0,0,0,0.1,0c0,0,0.1,0,0.1-0.1c0,0,0,0,0,0c0,0,0.1-0.1,0.1-0.1c0,0,0,0,0,0c0.3-0.2,0.6-0.5,0.9-0.7
	c0.8-0.7,1.7-1.4,2.5-2.1c0,0,0,0,0,0v0c0,0,0,0,0,0c0,0,0.1-0.1,0.1-0.1c0.1-0.1,0.1-0.1,0.2-0.2c0,0,0,0,0,0
	c0.5-0.4,1.4-1.1,1.7-1.3c1.3-1.1,2.7-2.1,4-3.1c0.8-0.6,1.5-1.2,2.3-1.7c0,0,0,0,0,0c0,0,0,0,0.1,0c0,0,0,0,0,0c0,0,0,0,0.1-0.1
	c0,0,0.1-0.1,0.2-0.1c0,0,0,0,0,0c0.6-0.5,2-1.5,2.2-1.7c2.3-1.7,4.6-3.5,7-5.2c21-15.6,41-31.5,56.7-48.6
	c14.7-16.1,25.7-33.1,32.4-50.5C1262.7,132.5,1264.6,124.4,1266,116.3z"/>
<path class="accentcolor" d="M980.2,116.3h-4.9c-5.7,5.5-11.4,10.9-17.5,16.3c-4.7,4.2-7.5,6.5-12.6,10.8c-1.2,1-2.3,1.9-3.5,2.8
	c-0.1,0.1-0.4,0.3-0.7,0.5c0,0,0,0,0,0c0,0,0,0,0,0c0,0,0,0,0,0c0,0,0,0-0.1,0c0,0,0,0,0,0c0,0,0,0,0,0c0,0-0.1,0.1-0.1,0.1
	c0,0,0,0-0.1,0c-0.1,0-0.1,0.1-0.2,0.1c0,0,0,0-0.1,0c0,0,0,0-0.1,0.1c-0.3,0.2-0.6,0.5-0.7,0.5c-2.5,2-5,4-7.6,5.9
	c-0.1,0.1-0.2,0.1-0.2,0.2c0,0,0,0,0,0c-0.1,0.1-0.1,0.1-0.2,0.2c0,0-0.1,0.1-0.1,0.1c-0.1,0.1-0.3,0.2-0.4,0.3c0,0,0,0,0,0
	c-0.4,0.3-0.7,0.5-1.1,0.8c-1.2,0.9-2.5,1.8-3.7,2.7c-1.2,0.9-2.5,1.8-3.7,2.7c-0.9,0.6-1.6,1.1-3.4,2.4c-5.1,3.6-9.9,6.8-15.2,10.2
	c-11.1,7.1-22.7,13.9-35.1,20.4c-24.6,13-52,24-80.8,34.4c-13.5,4.9-26.9,9.9-38.8,15.7c-15.1,7.4-27.5,16.3-37.2,25.7
	c-8.8,8.5-12.2,17.3-10.8,26.9c1.5,10.2,7.2,20.1,7.5,30.4c0.1,4.1-0.5,8.3-2.5,12.3c-0.2,0.3-0.4,0.7-0.8,1.1
	c-0.9,0.3-1.8,0.7-2.7,1c-15.6,5.2-35.7,5.9-53.8,6.2c-34.9,0.5-70-2.6-102.5-9c18.2,3.3,40,0.6,55.4-5
	c12.3-4.4,21.5-10.9,29.7-17.3c8.8-6.8,16.3-14,21.8-21.7c9.6-13.7,12.7-28.3,22.3-42c1.5-2.1,3-4.8,5.3-7c0.1,0,0.3-0.2,0.8-0.5
	c1.1-0.7,3.6-2.2,5.3-3.2c9-5,19.3-9.3,29.8-13.5c21.7-8.5,44.2-16.3,65.4-25.2c60.2-25.2,114.2-54.6,159.7-87H937
	c-1.9,1.3-3.7,2.5-5.6,3.8c-32.2,21.2-68.4,40.8-107.7,58.6c-19.2,8.7-39.1,16.9-59.8,24.6c-19.9,7.4-40.5,14.6-57.9,23.5
	c-21.3,11-38.7,24.8-48.6,39.4c-8.7,12.7-12,26.1-20.2,38.9c-1.8,2.8-3.9,5.6-6.3,8.3c-0.2,0.2-0.9,0.9-1.6,1.4
	c-7.2,4.2-16.8,7.3-27.1,9.1c-20,3.4-43.7,1.9-57.1-7.1c-14.1-9.5-12.5-22.6-12.2-33.9c0.2-6.9-0.2-14.1,4.5-20.7
	c0.7-0.4,1.5-0.9,2.2-1.3c4.3-2.4,8.8-4.7,13.4-7c67.6-34.5,146.8-62.4,223.4-91.4c38.6-14.6,76.7-29.7,112.5-46.1h-14.9
	c-11.9,5-23.9,9.9-36,14.7c-81.2,32.2-167.7,61.2-243.5,96.8c-20.3,9.5-41.2,19.3-57,30.9c-10.2,7.5-19.3,15.4-21.6,24.5
	c-1.8,7-1.4,14.2-1.3,21.3c0.1,11.5,2.7,25.1,23.6,31.9c1.9,0.6,4,1.2,6,1.6c0,0,0,0,0,0c-3.5-0.7-7-1.5-10.4-2.2
	c-15.5-3.6-32.3-7.8-42.4-15c-12.1-8.5-8.2-19.2-5.9-29c2.3-9.9,5.1-19.7,10-29.4c2.4-4.7,5.4-9.3,9.1-13.7c1.5-1.8,3.1-3.5,4.9-5.2
	c0.1-0.1,0.5-0.4,0.8-0.7c-0.1,0.1-0.1,0.2-0.2,0.2c0.1-0.1,0.2-0.2,0.3-0.3c0,0,0,0,0,0c0,0,0,0,0,0c0.1,0,0.1-0.1,0.2-0.1
	c0.1-0.1,0.2-0.1,0.2-0.2c0,0-0.1,0.1-0.1,0.1c0.3-0.2,0.7-0.5,1-0.7c23.7-15.3,56.3-27.1,85.9-39.4
	c68.5-28.4,136.9-56.9,205.4-85.3c0.5-0.2,1-0.4,1.6-0.6h-17c-51.8,21.5-103.5,43-155.3,64.5c-16.9,7-33.9,14.1-50.8,21.1
	c-14.9,6.2-29.6,12.5-42.9,19.6c-30.1,16-53,35.8-63.1,57.4c-4.5,9.7-7.1,19.6-9.2,29.4c-2.1,9.7-4.4,19.8,8.5,27.8
	c11.2,7,28.7,11.2,44.7,14.7c18.3,4,37.6,7,57.3,8.8c20,1.8,40.3,2.5,60.6,1.9c17.4-0.5,36.4-1.6,50.8-7c9.2-3.4,15.8-8.3,21.9-13.1
	c5.9-4.6,11.4-9.5,14.4-14.9c4.7-8.4,3.3-17.4,0.7-25.9c-3.3-10.7-8.3-21.6-3.7-32.4c0.8-1.9,1.9-3.8,3.4-5.7c0.3-0.3,0.5-0.7,0.8-1
	c0.6-0.4,1.3-0.8,1.9-1.1c2.8-1.6,5.8-3.1,8.9-4.6c25.3-11.8,55.5-20.5,81.7-31.9c58.7-25.5,104.7-57.8,143.8-91.4
	C968.2,127.3,974.3,121.8,980.2,116.3z M510.1,242.6c0,0-0.1,0.1-0.1,0.1C510,242.7,510,242.7,510.1,242.6L510.1,242.6
	C510.1,242.6,510.1,242.6,510.1,242.6z M629.3,314.8c0.2-0.1,0.3-0.2,0.5-0.3c2.9-1.7,0.1,0.1-0.8,0.8
	C628.1,315.9,628.6,315.4,629.3,314.8z M537.3,262.1c-0.9,0.5-1.8,1.1-2.6,1.5c2.6-1.3,5-4.6,3-2C537.5,261.8,537.4,262,537.3,262.1
	z M681.1,245.6c-0.2,0.1,0.3-0.3,0.9-0.8C681.7,245.1,681.4,245.3,681.1,245.6z M682,244.8c0.4-0.3,0.8-0.6,1.2-0.8
	C682.9,244.1,682.4,244.5,682,244.8z"/>
<path class="accentcolor" d="M287.7,113.6c-4.9-0.7-9.7-1.6-14.5-2.6c-37,13.9-72.2,29.1-104,46.1c-49.9,26.7-90.5,57.5-124.6,90.1v5.3
	c8.8-9,18.1-17.9,28-26.6c11.4-10,21.8-18.2,35.5-27.6c14.2-9.8,29.6-19.1,46.1-28C194.2,148.8,239.8,130.3,287.7,113.6z"/>
<path class="accentcolor" d="M230.8,98.6c-2.7-1-5.3-2.1-8-3.1c-19.8,9.3-38.8,19.1-56.9,29.2c-45.2,25.4-85.3,53.1-121.4,82v3.3
	c0.7-0.6,1.5-1.2,2.2-1.8c0,0,0,0,0,0v0c0,0,0,0,0,0c0,0,0,0,0,0c0,0,0,0,0,0c0.1-0.1,0.2-0.1,0.4-0.3c0,0,0,0,0,0c0,0,0,0,0.1,0
	c0,0,0,0,0,0v0c0,0,0,0,0,0c0,0,0,0,0,0c0,0,0,0,0,0c0,0,0,0,0,0c0.5-0.4,1.1-0.8,1.6-1.3c1.3-1.1,2.7-2.1,4-3.2
	c2.7-2.1,5.4-4.2,8.2-6.4c0.4-0.3,0.7-0.6,1.1-0.8c0,0,0,0,0,0c0,0,0.1-0.1,0.1-0.1l0,0c0.1-0.1,0.2-0.1,0.3-0.2
	c0,0,0.1-0.1,0.1-0.1c0,0,0,0,0,0c0.1-0.1,0.2-0.1,0.2-0.2c0.1-0.1,0.2-0.1,0.3-0.2c1.2-0.9,2.5-1.9,3.7-2.8
	c2.8-2.1,5.6-4.2,8.5-6.3c1.3-0.9,2.5-1.8,3.8-2.8c1-0.7,1-0.7,2.5-1.8c2.9-2,5.8-4.1,8.8-6.1c5.5-3.8,10.8-7.4,16.4-11
	c11.5-7.5,23.4-14.8,35.7-21.9C170.2,126.7,199.6,112.1,230.8,98.6z"/>
<path class="accentcolor" d="M353.6,116.3h-18c-49.5,20.5-96.3,42.7-138.1,67.6c-60.7,36.2-112.6,76.6-152.9,119.8v7.4
	c27.8-33,63-64.5,105.3-93.2C207.7,178.7,278,145.9,353.6,116.3z"/>
<path class="accentcolor" d="M44.6,500.5v18.9c58.3,14,124.7,14.4,187.7,10.4c67.9-4.3,134.2-13.4,202-17.9c131.5-8.8,270.4,3.8,379.7,43.3
	c46.1,16.7,86.4,37.7,116.5,62.1H965c-12.2-11.9-26.8-23.2-43.4-33.7c-81.1-51.5-203.8-81-331.7-87.3c-69.5-3.5-137.9,0.5-206.1,7.1
	c-67.8,6.6-136.2,15-205.6,14.3C134.3,517.3,83.9,512.7,44.6,500.5z"/>
<path class="accentcolor" d="M44.6,770.7v6.8c11.6-5,23.2-10,34.7-15c82.3-36.1,164.7-74.2,264.4-97.5c39.8-9.3,81.6-15.5,124.5-18.8
	c17.8-7.3,37.1-12.3,59.3-16c1.5-0.3,3.1-0.5,4.6-0.8c-34.5,1-68.7,3.7-102.1,8.5c-103.7,14.9-190.7,48.6-271.7,83.4
	C120.4,737.6,83.1,754.5,44.6,770.7z"/>
<path class="accentcolor" d="M510.2,242.6"/>
<path class="accentcolor" d="M510.2,242.6"/>
<path class="accentcolor" d="M2166.6,350.2c9.3,5.8,17.8,11.9,25.4,18.2c9.8,2.1,21.3,2.1,32.8,1.4c37-2.2,73.8-5.5,110.1-9.9
	c70.3-8.5,139.7-21.8,198.3-43.7c30.7-11.5,57.2-25.2,80.1-40.7c25.8-17.5,47-36.5,69.3-55.1c2.6-2.1,5.1-4.3,7.7-6.4c0,0,0,0,0,0
	c0,0,0,0,0.1,0c0,0,0,0,0.1,0c0,0,0,0,0,0c0,0,0,0,0,0c0,0,0,0,0,0c0.6-0.5,2.2-1.7,2.4-1.9c1.5-1.2,3.1-2.4,4.7-3.6
	c0.1-0.1,0.3-0.2,0.5-0.4c0,0,0,0,0,0c0,0,0.1-0.1,0.1-0.1c0,0,0,0,0.1-0.1c0,0,0,0,0.1,0c0,0,0,0,0,0c0,0,0,0,0.1,0c0,0,0,0,0,0
	c0,0,0,0,0,0c0,0,0,0,0,0c0,0,0,0,0,0c0.4-0.3,0.9-0.7,1.3-1c1.3-1,2.6-1.9,3.8-2.8c0,0,0,0,0,0c0.2-0.1,1.2-0.9,1.7-1.2
	c0.1-0.1,0.2-0.1,0.2-0.1c0,0,0.1,0,0.1,0c0,0,0,0,0,0c0,0,0,0,0,0c0.4-0.3,1-0.7,1.1-0.8c1.7-1.2,3.4-2.3,5.1-3.5
	c12.3-8.2,26.4-15.7,41.1-22.8c29.8-14.4,61.6-27.8,91-42.4c10.9-5.4,21.6-10.9,32.1-16.6h-10.4c-19.7,9.9-39.9,19.4-60.7,28.7
	c-31.7,14.3-62.4,28.8-87.9,46.1c-25.1,17-45.8,35.5-67.5,53.6c-2.5,2.1-5.1,4.2-7.6,6.3c-0.4,0.3-0.8,0.6-1.2,0.9c0,0,0,0-0.1,0
	c0,0-0.1,0.1-0.2,0.1c0,0-0.1,0.1-0.1,0.1c0,0,0,0,0,0c0,0-0.1,0.1-0.1,0.1c-0.1,0-0.1,0.1-0.1,0.1c-0.1,0.1-0.2,0.2-0.4,0.3
	c-1.5,1.2-3.1,2.4-4.6,3.7c-4,3.1-8.4,6.4-13.7,10c-10.3,7.1-21.9,13.7-34.3,19.8c-50.9,25.1-116.3,41.5-183.3,52.3
	c-34.2,5.5-69.3,9.6-104.6,12.7c-17.4,1.6-34.9,2.9-52.5,4c-18.7,1.2-38.2,1.4-51.1-6.7c-10.8-6.8-13.3-15.9-9.8-24.3
	c2-4.9,5.8-9.5,10.4-13.9c2.1-2,3.4-3,5.2-4.6c1.5-1.2,2.9-2.4,4.4-3.7c0.7-0.5,1.3-1.1,2-1.6c0.2-0.2,0.9-0.7,1.3-1v0
	c0,0,0.1-0.1,0.1-0.1c0,0,0,0,0.1,0c0,0,0,0,0,0c0,0,0,0,0,0c0,0,0,0,0,0c2.7-2.2,5.5-4.4,8.3-6.5c0.7-0.5,1.4-1.1,2.1-1.6
	c0.1-0.1,1-0.8,1.4-1.1c0,0,0,0,0,0c0,0,0,0,0,0c0,0,0.1,0,0.1,0c0,0,0,0,0,0c0,0,0,0,0,0v0c0,0,0,0,0,0c0.9-0.7,3-2.3,4.3-3.2
	c5.9-4.4,11.2-8.2,17.1-12.3c12.4-8.7,25.1-17.2,38.1-25.6c54.3-35.4,109.7-70.4,164.9-105.4c14.2-9,28.5-18.1,42.8-27.1h-6.1
	c-54.7,34.6-109,69.4-163.3,104.1c-28.2,18-56.1,36.2-82.2,55c-13.8,9.9-27,20.1-39.4,30.4c-11.7,9.7-24.3,19.9-29.5,31.1
	C2165.8,341.3,2165.3,345.8,2166.6,350.2z"/>
<path class="accentcolor" d="M3699.4,603.9v-22.7c-41.8-18.1-90-32.3-142-41.4c-15.4-2.7-31-4.9-46.8-6.7c-17.3-2-35.2-3.8-50.5-8.5
	c-27.4-8.5-36.4-24.6-44.3-39.3c-8.1-15.1-17-29.5-39.4-40.8c-22-11.1-51.3-17.7-80.9-21.7c-74.7-9.9-153.3-0.7-228-10.4
	c-17.5-2.3-35.5-5.4-41.1-15.1c-5.4-9.2-3.1-19.9,1-29.1c8.2-18.4,28.1-34.4,48.9-49.8c92.8-68.7,203.8-130.5,300.1-197.9
	c2-1.4,4-2.8,6-4.2h-4.6c-91.9,63.9-196.3,122.9-286,187.7c-23.9,17.2-47.9,34.8-65.8,53.9c-14.8,15.8-27.4,35.6-18.1,53.1
	c5.2,9.8,22.5,13.1,40.1,15.5c20.1,2.7,40.8,4,61.5,4.7c40.2,1.3,80.5,0,120.6,1.9c59.9,2.8,127.3,14.4,153.5,44.4
	c12.6,14.4,15.5,30.6,29.3,44.7c6.7,6.8,16.2,12.8,29.1,16.8c15.3,4.7,33.3,6.5,50.5,8.5C3570,556.3,3641.8,576.2,3699.4,603.9z"/>
<path class="accentcolor" d="M3278.9,116.3h-5.1c-6.5,4.4-13.1,8.8-19.6,13.2c-45,30.4-89.1,61.2-135.7,90.9c-22.2,14.2-45.7,27.7-70.8,40.5
	c-25.1,12.9-49.9,25.7-70.1,40.7c-20.5,15.3-37.1,31.9-45.3,50c-3.7,8.2-5.7,16.6-6,25c-0.2,6.4,1.6,12.8,1.3,19.1
	c-1.9-1.7-3.6-3.4-5.1-5.2c-5.8-7.1-7.9-14.8-7.4-22.4c1-16.4,12.1-32.2,24.5-47.1c13-15.5,29.2-30.8,45.9-44.6
	c1.1-0.9,2.2-1.8,3.3-2.7c0.5-0.4,1-0.8,1.4-1.2c0.1-0.1,0.5-0.4,0.7-0.6c0,0,0.1-0.1,0.1-0.1c0,0,0,0,0.1,0c0,0,0,0,0,0
	c0,0,0,0,0,0c0,0,0,0,0,0c0,0,0,0,0,0v0c2.3-1.8,4.5-3.6,6.8-5.4c2.3-1.8,4.6-3.6,6.9-5.4c1-0.8,2-1.6,3.1-2.3c0,0,0.1-0.1,0.1-0.1
	c0,0,0,0,0,0c0,0,0.1,0,0.1-0.1c0.1-0.1,0.1-0.1,0.2-0.2c0.8-0.6,1.7-1.3,2.5-1.9c9.7-7.3,19.7-14.6,29.8-21.8
	c42.3-30.4,87-62.1,130-93c11.8-8.5,23.5-17,35.2-25.4h-4.4c-0.3,0.2-0.5,0.4-0.8,0.6c-44.2,32-88.5,63.8-133.1,95.5
	c-43.1,30.7-86.2,61.5-120.9,94.8c-16,15.5-30.7,31.6-40.7,48.3c-8.8,14.8-14,31.5-3.9,46.5c2.4,3.6,5.8,7,9.9,10.2
	c0.2,0,0.5-0.1,0.7-0.1c7.7-1.6,12.5-5.2,17.1-8.6c5.8-4.3,11.8-8.9,14.5-14c3.5-6.7,1.2-13.6,0.7-20.4
	c-1.2-17.2,4.9-34.6,18.1-50.5c2.9-3.5,6.1-6.9,9.8-10.1c0.9-0.8,1.8-1.6,2.7-2.2c0,0,0,0,0,0v0c0,0,0,0,0,0c0,0,0,0,0,0
	c0,0,0.1,0,0.1-0.1c0,0,0.1-0.1,0.1-0.1c0,0-0.1,0-0.1,0.1c0.4-0.3,1.4-1,1.6-1.2c0,0,0,0,0,0c0,0,0,0,0,0c0,0,0,0,0,0c0,0,0,0,0,0
	l0,0c0,0,0,0,0,0c1.1-0.8,2.3-1.6,3.5-2.4c10.3-6.8,22-13.1,33.9-19.3c25.5-13.3,50.9-26.4,74.4-40.6c24.1-14.7,46.7-30,69.4-45.2
	c23.9-16.1,47.8-32.2,71.7-48.3C3246.4,138.2,3262.6,127.2,3278.9,116.3z"/>
<path class="accentcolor" d="M3044.5,617.3c9.9,0,19.3,0.1,28.4,0.3c22.3-6.9,44.3-14,65.9-21.5c20.4-7.1,41.2-14.2,59.1-22.9
	c18.8-9.2,35.1-20.4,46.1-32.4c8.9-9.7,11.2-20.7,0.4-30.3c-10-9-28.5-14.4-46.9-18c-23.3-4.6-48.5-6.9-72.9-9.2
	c-28.2-2.7-56.6-4.9-85.1-6.4c-56.8-3.1-113.5-3.3-170.5-2c-36.7,0.8-88.4,0.3-103.4-20.7c-8.7-12.1-6.2-27.1-3.2-39.6
	c3.3-13.3,9.9-26.4,19.2-38.9c37.4-50.5,114.4-88,180.6-128.9c10.5-6.5,20.7-13.1,30.6-19.8c-9.1,8.3-18,16.5-26.9,24.9
	c-42.4,40-83.1,81.1-111.5,124.2c-10,15.1-18.7,30.8-21.2,46.8c-1.1,7.4-2,17,4.4,23.8c8,8.5,32.9,9.9,48.9,11.9
	c20.8,2.5,41.9,4.3,63,5.7c84.5,5.6,170.4,4.6,254.3,12.7c19.6,1.9,40,4,56.6,10c12.6,4.6,21.8,11,28.2,18.1
	c13.6,15.3,15.5,32.8,16.6,49.3c0.6,9.1,0.6,18.4-2.6,27.4c-1.3,3.7-2.9,7.8-6.1,11.3c0.5-0.7-2.5,1.5-3.3,1.9
	c-1.7,0.8-3.6,1.6-5.4,2.3c-3.7,1.5-7.7,2.8-11.8,3.9c-17.3,5-36.6,8-55.3,11.4c-18.3,3.4-36.4,6.9-54.5,10.6
	c-0.1,0-0.3,0.1-0.4,0.1c13.3,1.4,24.8,2.9,34.4,4.3c28.2-4.8,58.4-9.7,79.1-20.1c24.2-12.2,40.2-29,43.5-46.2
	c3.1-16.3,1.2-33.9-4.3-50.1c-5.2-15.3-16.7-31.2-43.6-39.9c-16.9-5.4-37.4-7.3-56.8-9.1c-20.4-1.9-41-3.3-61.7-4.3
	c-83.9-4.4-169.1-3.8-251.6-13.7c-16.1-1.9-40.9-3.3-48.9-11.8c-4.2-4.4-4.7-9.9-4.9-14.8c-0.2-6.6,1.2-13.2,3.4-19.8
	c13-38.5,47.1-75.4,80.6-110.2c24.9-25.9,51.7-51.4,79.8-76.5c0,0,0.1,0,0.1-0.1c0.9-0.7,1.7-1.4,2.5-2.1c0.2-0.2,2.2-1.7,3-2.8
	c20.1-17.8,40.8-35.5,61.8-53c14.8-12.3,29.7-24.5,44.9-36.6h-4c-39.4,31.5-77.7,63.5-114.2,96c0,0,0,0,0,0
	c-29.9,21.5-64.9,40.9-98.6,60.8c-36.1,21.3-70.5,43.3-99.5,67.3c-27.2,22.5-50.3,46.7-61.7,72.5c-5.7,12.9-8.3,26.1-7.1,39.3
	c1.1,11.5,5.9,22.8,25.6,29.7c16.3,5.6,37,7.1,56.2,7.4c24.7,0.5,49.4-0.8,74.1-1c57.9-0.4,115.9,1.7,173.1,6.2
	c27.9,2.2,55.9,4.8,83.2,8.4c20.1,2.6,40.9,6.2,57,13.1c16.6,7.1,25.3,17.7,21,28.7c-1.1,2.6-2.7,5.1-5,7.5c0,0,0,0,0,0
	c-0.5,0.4-1.2,0.8-1.4,1c-2.1,1.2-4.2,2.5-6.4,3.7c-8.7,4.6-18.4,8.8-28.5,12.6C3144.3,587.1,3094.8,602.5,3044.5,617.3z"/>
<path class="accentcolor" d="M2209.8,385.6c3,3.4,5.7,6.9,8.2,10.4c13.1-1.5,26.3-2.8,39.7-3.7c75.6-5,155.1-0.8,228-14
	c74.5-13.5,119.1-47.2,165.3-77.8c56.2-37.2,112.3-74.5,168.5-111.7c36.5-24.2,73.1-48.4,109.6-72.6h-5.1
	c-18.8,12.4-37.7,24.8-56.4,37.2c-55,36.5-110.1,73-165.1,109.5c-27,17.9-53.7,36-81.2,53.7c-24.1,15.5-50.7,30.2-85,39.9
	c-67.6,19.1-148.5,16.7-223.1,19.5C2277.4,377.5,2243.1,380.7,2209.8,385.6z"/>
<path class="accentcolor" d="M2222.1,402.3c2.4,4,4.4,8,6.1,12c13.3-1.2,26.6-2.2,39.9-3.2c80.7-5.8,165.2-5.3,244.2-16.1
	c38-5.2,73.3-13.8,102.8-27.1c28.7-13,51.9-28.8,75-44.3c57.1-38.3,113.4-77,169.1-115.8c43.5-30.4,86.5-60.9,129.2-91.5h-4.4
	c-15,10.8-30.1,21.6-45.3,32.3c-55.1,39.1-110.8,77.9-167.2,116.5c-26.9,18.4-53.9,36.7-81.1,54.9c-26,17.4-53.5,34.6-90.6,46.2
	c-70.3,21.9-157.7,21.9-237.2,26C2315.6,394.7,2268.5,397.6,2222.1,402.3z"/>
<path class="accentcolor" d="M2233.4,431.8c0.7,4.1,1.1,8.3,1.1,12.5c0,0.1,0,0.3,0,0.4c82.6-5.9,168.9-5.4,249.6-16.4
	c39-5.3,75.4-14.2,105.7-27.9c29.5-13.4,53.2-29.6,77-45.5c58.7-39.4,116.7-79.2,173.9-119.2c56.6-39.5,112.6-79.4,167.8-119.4
	l-4.3,0c-27.1,19.6-54.4,39.2-81.9,58.7c-56.6,40.2-114,80.2-172.1,119.9c-27.7,18.9-55.4,37.8-83.4,56.5
	c-26.8,17.9-55.1,35.7-93.4,47.6c-72.3,22.5-162.2,22.6-244,26.8C2297.4,427.4,2265.3,429.3,2233.4,431.8z"/>
<path class="accentcolor" d="M1690.3,584.1c-15-3.9-29.3-8.2-42.8-13c-27.2-0.4-54.5-2-81.5-3.3c-49.7-2.5-99.5-5.1-149.2-7.6
	c-49.7-2.5-99.5-5.1-149.2-7.6c-47.3-2.4-95.4-3.8-142.1-8.4c-41.2-4-78.8-11.8-112.7-24.4c-33-12.2-61.7-27.1-92.2-40.7
	c-61.8-27.6-135.5-46.1-217.4-51.7c-90.5-6.2-175.8,6.4-260.5,21.3c-75.5,13.2-165.8,33.9-238.8,7c-61.7-22.8-84.5-63.6-73.5-100.7
	c13.3-45.2,65.6-85.6,118.2-121.5c64.2-43.9,139.3-82.4,221.3-117h-15.1c-63.2,28.1-122,58.7-174.7,92.6
	c-50.8,32.7-99,67.9-134,105.6c-34,36.7-52.8,79.4-18.6,117.9c14.1,15.9,36.1,30.3,65.1,39.8c34.6,11.3,74.5,12.9,114.3,9
	c91.3-9.1,174.8-32.4,267.5-39.3c83.2-6.2,169.4,1.4,243.8,21.3c73.7,19.7,123.6,54.1,193,76.6c38.6,12.5,82.2,18.1,127.2,21.1
	c49.3,3.3,98.9,5.3,148.4,7.8c98.6,5,197.1,10.5,295.8,15.1C1618.1,585.5,1654.7,586.6,1690.3,584.1z"/>
<path class="accentcolor" d="M1586.8,543.9c-13.4-7.6-25.3-15.8-35.5-24.4c-118.9,5.4-239.6-3-348.9-28.6c-69-16.2-128.3-38.9-181.1-66.6
	c-27-14.2-54-28.6-87.4-38.9c-33.4-10.3-71.4-16.7-110.4-18.6c-82.6-4-158.3,15.2-236.6,25.1c-60.3,7.6-133.1,9.1-185.6-10.6
	c-57.3-21.5-61.3-59.6-41.8-91.6c22.2-36.5,75-65.8,129.4-91.1c67.6-31.4,143.7-56.9,220-82.4h-25c-62.6,21.2-124.1,43.1-179.7,69.1
	c-52.1,24.3-99.6,52.4-134,83.9c-30.7,28.2-53.8,63.8-31.8,95.6c23.8,34.5,94.2,47.5,160.9,46.5c79.5-1.2,151.3-20.8,228.6-28.1
	c79.8-7.5,160.4,2.6,222.5,29.4c30.9,13.4,57,29.3,86.8,43.3c27.8,13,58.3,24.4,90.7,34.3c21.1,6.4,42.8,12.1,65,17.1
	c-0.2,0-0.4,0-0.6-0.1c-40-3.9-76.6-11.5-109.6-23.7c-32.1-11.8-59.9-26.3-89.7-39.6c-60-26.8-131.7-44.8-211.3-50.3
	c-88-6.1-170.8,6.2-253.2,20.7c-73.3,12.8-161.2,33-232.1,6.8c-60-22.1-82.1-61.8-71.5-97.9c12.9-43.8,63.5-83,114.5-117.8
	c47.7-32.6,101.5-62.1,159.8-89.2H487c-41.4,20.3-80.5,42-116.7,65.3c-49.5,31.9-96.5,66.2-130.7,103
	c-33.1,35.7-51.3,77.2-18.1,114.6c13.7,15.4,35.1,29.5,63.3,38.7c33.6,11,72.4,12.6,111.1,8.7c88.8-8.9,169.9-31.5,260-38.2
	c80.8-6,164.7,1.4,236.9,20.7c71.6,19.2,120.1,52.6,187.6,74.4c37.6,12.1,79.9,17.6,123.6,20.5c47.9,3.2,96.2,5.1,144.2,7.6
	C1427.8,535.7,1507.3,540,1586.8,543.9z"/>
<path class="accentcolor" d="M2232.9,459.5c-0.9,4.5-2.3,8.9-4,13.2c3.6-0.3,7.2-0.5,10.8-0.8c87.1-6.3,178.2-5.7,263.4-17.3
	c40.9-5.6,79-14.9,110.8-29.3c30.8-14,55.7-30.9,80.5-47.6c61.5-41.4,122.3-83,182.3-124.9c64.7-45.2,128.6-90.7,191.6-136.5h-4.3
	c-33.8,24.5-67.8,49-102.1,73.3c-59.4,42.2-119.5,84-180.4,125.7c-29,19.8-58.1,39.6-87.5,59.2c-28.2,18.8-57.9,37.5-98.1,50
	c-75.8,23.6-170.1,23.7-255.9,28.1C2304.4,454.5,2268.5,456.6,2232.9,459.5z"/>
<path class="accentcolor" d="M1768.4,599.1c-7.7-1-15.2-2.1-22.7-3.4c-22,4.6-45.4,7.5-70,8.6c-45.3,2.1-90.8-0.5-135.9-2.8
	c-52.1-2.7-104.3-5.3-156.4-8c-52.1-2.7-104.3-5.3-156.4-8c-49.6-2.5-100-4-149-8.8c-43.2-4.2-82.6-12.4-118.2-25.5
	c-34.6-12.8-64.6-28.4-96.7-42.7c-64.8-28.9-142-48.3-227.9-54.2c-94.9-6.5-184.3,6.7-273.1,22.3c-79.1,13.9-173.8,35.6-250.4,7.3
	c-32.3-11.9-54.4-28.5-67-47v34c14.2,11.9,33,22.3,56,29.9c36.2,11.9,78.1,13.6,119.8,9.4c95.7-9.6,183.3-33.9,280.5-41.2
	c87.2-6.5,177.6,1.5,255.6,22.3c77.2,20.7,129.6,56.7,202.4,80.3c40.5,13.1,86.2,19,133.3,22.1c51.6,3.4,103.7,5.5,155.5,8.2
	c101.4,5.2,202.7,10.8,304.2,15.5h125.9c6.5-0.5,12.9-1.2,19.4-2C1723.1,612.1,1746.6,606.4,1768.4,599.1z"/>
<path class="accentcolor" d="M418.4,116.3H402c-76.6,32.6-147.5,68.5-210.3,108.9c-53,34.1-103.3,70.8-139.8,110.2c-2.5,2.7-4.9,5.4-7.2,8.1
	v11.7c22.1-38.4,68.2-73.3,114.5-104.9C233.5,199.5,321.8,155.5,418.4,116.3z"/>
<path class="accentcolor" d="M622.1,268.7c0-0.1,0-0.3,0-0.4c-0.8-1.6-1-3.1-0.7-4.5c2.1-0.8,4.2-1.7,6.1-2.6c14.8-6.9,26-16.5,34.4-25.8
	c3.3-3.6,5.9-7.3,8.4-11c2-2.9,5.1-6.5,2.7-9.6c-2.7-3.5-10.4-2.9-15.5-1.2c-8.5,2.7-14.5,7.9-19.9,12c-10.3,7.9-16.8,16.4-24.4,25
	c-0.6,0.7-1.3,1.4-2,2.1c-0.1,0.1-0.4,0.4-0.7,0.6c-0.5,0.3-1,0.7-0.9,0.7c-4.8,3.2-10,6.2-15.1,9.3c-12.8,7.7-24.7,15.7-34.7,24.5
	c-4.2,3.6-10.1,8.2-9.8,12.5c0.2,3.5,5.2,5.9,11.5,6.8c19.1,2.8,33.5-7,42.6-13.9c6.1-4.6,11.5-9.5,15.4-14.7
	C622,275.2,622.2,272.1,622.1,268.7z M603.7,282.5c0.1,2.3,0.2,4.7-0.9,7c-0.1,0.1-0.1,0.2-0.2,0.3c-8.2,2.9-18.5,4.7-27.8,1.7
	c-5.6-1.8-7.6-5-5.3-8.2c0.2-0.3,0.7-0.7,1-1.1c0.6-0.4,1.6-1.1,1.3-0.9c7.9-5.3,16.9-10.1,25-15.3c11-7,21.1-14.5,29.2-22.5
	c5.1-5.1,9.6-10.4,13.9-15.7c2.2-0.8,4.8-1.4,7.5-1.4c6.4,0,8.6,3.1,7.9,5.8c-0.7,2.7-3,5.4-4.8,7.9c-1.5,2.2-4.2,4.8-5.9,6.9
	c0,0,0,0-0.1,0c-2.5,1.2-5.2,2.2-7.9,3.3c-7.5,3-13.6,6.1-19.1,10.1C608.8,266.9,599.5,274.5,603.7,282.5z M602.6,289.8
	c1.4-0.5,2.7-1,4-1.6c-2.2,0.9-4.1,2.4-5.5,3.6C601.6,291.2,602.2,290.5,602.6,289.8z M601,291.9c-0.1,0.1-0.2,0.2-0.3,0.3
	C597.7,295.7,598.4,294.1,601,291.9z M570.2,282.4c0,0-0.1,0.1-0.1,0.1C570.1,282.5,570.1,282.4,570.2,282.4c1.1-1,0.8-0.7,0.3-0.2
	c-0.2,0.1-0.4,0.3-0.5,0.3c0,0,0.1-0.1,0.1-0.1C570.1,282.4,570.1,282.4,570.2,282.4z M570,282.5 M569.9,282.5c0,0-0.1,0.1-0.1,0.1
	C569.4,283,568.7,283.4,569.9,282.5C569.8,282.6,569.8,282.6,569.9,282.5z M639.8,227.8c-0.4,0.1-0.7,0.3-1,0.4
	c-0.8,0.3-1.5,0.9-2.3,1.2c-4.8,1.7,4.5-2.9,5.3-3.9C641.1,226.2,640.4,227,639.8,227.8z M644.5,247c1.1-0.5,2.2-1.5,3.4-1.9
	c-1.5,0.5-4,2.6-4.4,3.3C643.7,248.1,644.1,247.6,644.5,247z M603.7,282.5c0-0.1,0-0.2,0-0.3c0-1.1,2.3-2.6,3.4-3.6
	c2.1-1.9,4.5-3.8,6.9-5.6c1.8-1.3,3.8-2.9,6.1-4.1c0.6-0.3,2-1.2,2-0.4c0,0,0,0,0,0c-0.1,0.7-1.2,1.5-1.7,2
	c-1.8,1.8-3.9,3.5-6.1,5.2c-2.1,1.7-4.4,3.4-6.9,4.9C608,280.5,603.9,282.9,603.7,282.5C603.7,282.6,603.7,282.6,603.7,282.5z
	 M621.4,263.7c-1.3,0.5-2.5,1-3.8,1.5c-1.6,0.6-3.1,1.3-4.6,1.9c-0.8,0.4-1.6,0.8-2.4,1.2c4.2-3.3,8.5-6.6,12.7-9.9
	c-0.1,0.1-0.1,0.1-0.2,0.2C622.4,260.5,621.6,262.1,621.4,263.7z M611.1,252.9c1.5-1.1,0.3-0.1-0.5,0.4c-0.6,0.4-0.4,0.2,0-0.1
	C611.2,252.8,611.7,252.5,611.1,252.9z"/>
<path class="accentcolor" d="M570.2,282.4c0,0,0.1-0.1,0.1-0.1C570.3,282.3,570.2,282.3,570.2,282.4z"/>
<path class="accentcolor" d="M611.1,252.9C611.1,252.9,611.1,252.9,611.1,252.9C611.1,252.9,611.1,252.9,611.1,252.9z"/>
<path class="accentcolor" d="M3031.4,296.2C3031.4,296.3,3031.4,296.3,3031.4,296.2C3031.4,296.3,3031.4,296.3,3031.4,296.2z"/>
</svg>
