<?xml version="1.0" encoding="utf-8"?>
<!-- Generator: Adobe Illustrator 27.9.1, SVG Export Plug-In . SVG Version: 6.00 Build 0)  -->
<svg class="w" version="1.1" xmlns="http://www.w3.org/2000/svg" xmlns:xlink="http://www.w3.org/1999/xlink" x="0px" y="0px"
	 viewBox="0 0 3726.8 976.4" style="enable-background:new 0 0 3726.8 976.4;" xml:space="preserve">
     $gradientDefs

<path class="maincolor" d="M3341,733.5c12.5-9.9,23.9-21.2,33.9-33.6c2-2.6,4.1-5.1,6.2-7.6c45.7-39.6,90.9-79.8,135.6-120.5
	c0.2-0.1,0.4-0.1,0.6,0c0.2,0.1,0.2,0.3,0.2,0.5c-0.2,0.5-0.5,0.9-0.9,1.3c-40,51-80.7,101.5-122.1,151.4
	c-11.3,10.6-22.3,21.4-33.1,32.4c-0.2,0.4-0.4,0.7-0.5,1.1c26.8,38.5,69.3,112.4,95.6,159.1c1.7,3.1,14.3,26.1,19.8,36
	c6.7,12.1,14.3,22.7,28.2,22.7h222.6V0.3c0,0-106.9-5.4-188.3,28.2c-19.8,8.2-66.2,36-126.2,36H2216.2c-0.6,3.2-1.2,6.3-1.8,9.3
	c-20.3,93.5-30.6,143.2-131.4,144.3c-71.9,0.8-145.8,1.2-219.6,1.2c-73.9,0-147.7-0.4-219.6-1.2c-100.8-1.1-111.1-50.8-131.4-144.3
	c-0.6-2.9-1.2-6-1.8-9.3H314.5c-60,0-106.4-27.8-126.2-36C106.9-5.1,0,0.3,0,0.3v976.1h222.6c13.9,0,21.4-10.6,28.2-22.7
	c5.5-9.9,18.1-32.9,19.8-36c30.2-53.7,81.9-143.5,106.5-173.8c26.8-33.1,56.2-62.4,92.9-78.9c41.4-18.6,132.2-27.5,226.2-27.5
	c35.3,0,601.3,0,1167.2,0c266.7,0,533.4,0,550,0c1-0.8,2-1.6,3-2.4c8.2-11.3,16.3-22.7,24.3-34.1c9.3-6.4,18.9-12.4,28.7-18
	c9.3-5.5,18.4-11.1,27.5-16.9c2.7-3,4.8-6.5,6.3-10.2c4.4-9.1,9.1-18.1,14-27c9.5-8.5,19-17,28.6-25.3c0.8-0.6,1.4-1.3,1.9-2.1
	l0.3-0.7c0.1-0.5,0-1-0.3-1.4c-2.1-3.9-4-7.9-5.7-12.1c-0.2-0.5-0.2-1-0.2-1.4c0.1-0.3,0.3-0.6,0.6-0.8c0.8-0.3,1.7-0.6,2.5-0.8
	c11-3.1,21.9-6.3,32.8-9.7c5-3.6,9.6-7.6,13.9-12c23.1-21.3,45.6-43.2,67.7-65.6c12.7-6.3,25.5-12.4,38.4-18.2l2.3-1.5l0.9-1.3
	c8.2-10.5,16.6-20.8,25.4-30.8c21-19.9,43.6-38.1,67.5-54.3c31.6-23.1,63-46.3,94.3-69.6l49.6-35.6l0.9-0.5c0,0,0.1,0,0.1,0.1
	c0,0.1,0,0.1,0,0.2c-8.3,9.5-16.7,19-25.3,28.3c-39.2,43.4-78.3,86.9-117.2,130.5c-19.7,13-39.4,25.9-59.1,38.8
	c-1.3,0.8-2.3,2.1-2.7,3.6c-1.4,7.5-2.9,15-4.5,22.5l-1.1,2.5c-11.3,11.1-22.7,22-34.2,32.9l-2.1,1.8c-0.2,0.1-0.3,0.2-0.5,0.2
	c-0.7,0.2-1.4,0.3-2.1,0.4c-8.4,1.4-16.8,2.7-25.2,3.9c-0.9,0.3-1.7,0.8-2.2,1.6c-8.5,12-16.8,24.2-24.9,36.5
	c-2.6,10.1-4.8,20.2-6.7,30.4c-0.3,1.3-1.2,2.4-2.3,3.1l-1.2,0.5c-8.6,3.4-17.1,7.2-25.4,11.3c-20.2,16.2-39.2,33.9-56.9,52.9
	l-26.1,17l-1.9,1.8l-10.6,22.3c-1,2-2.1,4-3.3,5.8c-0.2,0.3-0.5,0.5-0.7,0.7c-0.5,0.3-1,0.6-1.6,0.9c-1.4,0.6-2.8,1.2-4.2,1.9
	c135.7,0,155.2,0,160,0l19.6-25.8c0.8-1.1,1.2-2.5,1.1-3.9c0.3-5.2,0.3-10.5,0.1-15.8c0.3-1.3,1-2.4,2-3.2
	c24.2-19.8,48.3-39.8,72.2-59.9c5.8-8,11.6-16.1,17.3-24.2c0.5-0.7,1.2-1.2,2-1.4c9.5-1.5,19-3,28.6-4.4c0.8-0.2,1.6-0.7,2.1-1.4
	l20.1-31.3c4-3,8.3-5.6,12.8-7.8c14.2-7.6,28.1-15.8,41.7-24.4c14-13.9,26.9-28.9,38.7-44.8c1.6-2,3.2-4,4.9-5.9
	c0.7-0.7,1.5-1.2,2.4-1.5l1.3-0.2l28.2-7.3c2-1.3,3.8-2.8,5.4-4.5c11.5-10.2,21.9-21.6,31.2-33.8c4.8-7.4,11.3-13.5,18.8-18
	c16.9-10.4,32.8-22.4,47.5-35.7c4.4-5.3,9.2-10.3,14.1-15.1c0.6-0.3,1.1-0.6,1.7-0.9c0.4-0.2,0.7-0.5,0.9-0.9c0.5-1,1-1.9,1.6-2.9
	c4.5-4.1,9.1-7.9,14-11.4l151.9-116.5c3.3-2.9,6.7-5.6,10.3-8.2c0.3-0.3,0.7-0.4,1.1-0.5c0.1,0,0.2,0,0.2,0.1c0,0.1,0,0.2,0,0.3
	l-149.5,163.7c-14.3,12.4-28.5,24.9-42.5,37.5c-1.2,0.9-2.1,2.2-2.4,3.7c-2.5,9.5-5,19-7.6,28.4c-0.4,0.9-1.1,1.6-2,1.9
	c-11.1,4.9-22.2,9.7-33.3,14.4c-0.5,0.2-0.9,0.6-1.2,0.9c-0.2,0.3-0.3,0.7-0.3,1.1c0.2,0.9,0.6,1.7,1.1,2.4c1.1,2.1,2.1,4.2,3,6.3
	c0.3,1,0.2,2-0.4,2.8c-12,14-24,27.9-36.1,41.7c-4.8,3.3-10.3,5.3-16.1,5.8c-1.1,0.2-2.1,0.5-3.1,0.9c-0.4,0.2-0.8,0.5-1,0.9
	c-0.5,1.1-0.8,2.3-0.9,3.5c-1.5,7.4-3.1,14.8-4.7,22.1c-0.2,1.3-1.3,2.4-2.6,2.7l-25.1,6.8c-0.9,0.4-1.6,1-2.1,1.8
	c-8.8,9.9-17.2,20.1-25.4,30.5c-2.2,6.9-4.1,14-5.5,21.1c-0.5,1.3-1.5,2.5-2.8,3.1c-14.5,9.4-28.8,18.9-43,28.7
	c-15.7,16.6-31.2,33.4-46.4,50.4c-0.9,1.1-2,2-3.2,2.8l-1.3,0.4c-6,1.7-11.9,3.5-17.8,5.2c-0.8,0.3-1.6,0.9-2.2,1.6
	c-4,5.9-8,11.9-12,17.7c75.3,0,81.1,0,83.6,0c6.7-9.1,13.6-18,20.7-26.8c8.7-8,17.7-15.7,26.8-23.1c11-6.1,21.8-12.3,32.5-18.8
	c6-5.7,12.2-11.3,18.5-16.8c6.2-6.5,13.7-11.7,22-15.2c6.3-3.4,12.5-6.9,18.6-10.5c7-9,14.1-17.9,21.2-26.8c1.7-1.5,3.8-2.5,6-3.1
	c11-4.3,22.1-8.2,33.4-11.7c0.9-0.3,1.6-0.9,2-1.8c4.2-11.7,8.2-23.4,12.2-35.1c0.6-1.2,1.7-2.1,3.1-2.3c8.8-1.5,17.6-3,26.3-4.5
	l2.4-0.9l1.1-1c14.1-11.9,28.1-24,41.8-36.3c3.2-5.5,6.3-11,9.5-16.6c0.9-1.1,2-1.9,3.2-2.6c14.6-9.3,28.9-18.9,43-29
	c9.4-7.2,18.3-14.9,26.7-23.1c6.8-8.1,13.8-16,21-23.6c11.2-6.6,22.5-13.1,33.8-19.5c53.9-45,107.6-90.3,161-136
	c0.3-0.3,0.7-0.4,1.1-0.5c0.1,0,0.2,0,0.2,0.1c0,0.1,0,0.2,0,0.3c-48.6,57.5-97.5,114.8-146.6,171.9c-14.4,15.6-28.7,31.3-43,47
	c-6.5,11.6-13.3,23-20.4,34.2c-8.2,9.2-16.7,18.2-25.4,27c-5.3,2.3-10.7,4.2-16.2,5.7c-1.3,0.4-2.5,0.8-3.7,1.3l-1.2,0.5
	c-1.1,0.9-2.2,1.9-3.2,3c-15.3,16.7-30.4,33.4-45.6,50.2c-0.4,0.4-0.7,1-0.9,1.6c-0.1,0.3,0,0.5,0.2,0.7c0.3,0.3,0.8,0.5,1.2,0.6
	c2.6,0.4,5.1,0.8,7.7,1.4l1.5,0.6c0.2,0.1,0.3,0.4,0.3,0.6c-0.1,0.4-0.2,0.8-0.5,1.1c-15.9,14.2-31.7,28.5-47.5,42.8
	c-7.4,10.4-14.9,20.7-22.5,31c-15.1,9.7-30.4,19.3-45.7,28.7c-0.7,0.6-1.1,1.4-1.3,2.2l-0.1,1.4c0,8.8-0.1,17.7-0.2,26.5l-0.2,2.7
	c-0.2,0.8-0.7,1.5-1.4,2.1l-0.4,0.2c9.1,0,9.4,0,9.7,0c38.4,0,76.2,1.5,110.4,4.5c3.6-4,7.4-7.9,11.4-11.6
	c8.5-9.8,18.4-18.3,29.3-25.3c11.9-10.2,25.3-18.6,39.6-24.9c8.9-3.7,17-9.1,23.8-15.9c7.3-5.9,14.4-12.1,21.2-18.6
	c8.4-11.5,16.9-22.8,25.7-34l64.4-51.4c48.5-39,96.8-78.2,144.9-117.7l1.2-0.8c0,0,0.1,0,0.1,0c0,0,0.1,0.1,0.1,0.1
	c0,0.1,0,0.3-0.1,0.4L3353,512.7c-5.5,8.3-10.3,17-14.5,26c-6.7,13.2-13.8,26.2-21.2,39c-2.5,1.9-5.1,3.6-8,4.9
	c-8.8,4.5-17.4,9.2-25.9,14.2c-10.9,10.6-19.1,23.5-24.1,37.8c-3.3,8.1-7.1,15.9-11.4,23.5c-0.7,0.9-1.4,1.7-2,2.6
	c3.9,1.4,7.6,2.8,10.9,4.3C3289.5,679.8,3316.5,704.7,3341,733.5z M1863.4,267.1c200.2,0,362.5,72.3,362.5,161.5
	S2063.6,590,1863.4,590s-362.5-72.3-362.5-161.5S1663.2,267.1,1863.4,267.1z"/>
</svg>
