<?xml version="1.0" encoding="utf-8"?>
<!-- Generator: Adobe Illustrator 27.9.1, SVG Export Plug-In . SVG Version: 6.00 Build 0)  -->
<svg class="w" version="1.1" xmlns="http://www.w3.org/2000/svg" xmlns:xlink="http://www.w3.org/1999/xlink" x="0px" y="0px"
	 viewBox="0 0 3726.8 976.4" style="enable-background:new 0 0 3726.8 976.4;" xml:space="preserve">
     $gradientDefs

	<path class="maincolor" d="M1697.6,218.6c-16,3.3-31.9,7.2-47.6,11.7c-18.5,5.2-36.6,11.4-54.4,18.6c-9.9,4-19.6,8.3-29.1,12.9
	c-27,13.2-53.3,29.8-75.3,50.5c-10.9,10.3-20.7,21.5-29.1,34c-16.4,24.5-26,52.5-26,82.2c0,13.8,2.1,27.5,6.1,40.7
	c4,13.3,10,26,17.4,37.7c6.6,10.4,14.4,20.3,22.9,29.2c8.3,8.7,17.6,17,27.2,24.4c8.4,6.4,17.1,12.4,26.1,17.9
	c9.3,5.7,18.9,11,28.7,15.9c9.3,4.6,18.8,8.9,28.5,12.9c32,13.1,66.1,23.1,100.3,30.4c5.1,0,87.6,0,170.1,0c82.5,0,165,0,170.1,0
	c14.5-3.1,28.9-6.7,43.2-10.8c18.5-5.2,36.6-11.4,54.4-18.6c9.9-4,19.6-8.3,29.1-12.9c27-13.2,53.3-29.8,75.3-50.5
	c10.9-10.3,20.7-21.5,29.1-34c16.4-24.5,26-52.5,26-82.2c0-13.8-2.1-27.5-6.1-40.7c-5.9-19.2-15.5-36.8-27.9-52.6
	c-30.9-39.3-77.5-66.7-122.9-85.4c-32.9-13.5-68.3-23.8-104.6-31.3c-54.7,0.4-110.2,0.7-165.8,0.7
	C1807.9,219.2,1752.3,219,1697.6,218.6z M1863.4,234.7c39.8,0,80.1,2.8,119.3,8.6c19.3,2.8,38.4,6.5,57.3,10.9
	c17.6,4.1,35,9,52.1,14.8c9.9,3.3,19.7,7,29.3,10.9c8.9,3.7,17.8,7.6,26.4,11.9c8.9,4.4,17.7,9.3,26.2,14.5c8,4.9,15.8,10.3,23.3,16
	c8.2,6.3,16.3,13.5,23.4,21c3.6,3.8,7.1,7.8,10.4,12c3.1,3.9,6,8,8.6,12.2c5.9,9.3,10.6,19.3,13.8,29.8c7.9,25.9,5.6,52.7-5.6,77
	c-8.2,17.9-20.4,33.4-34.7,46.8c-19.6,18.4-43.4,33.3-67.4,45c-8.8,4.3-17.8,8.3-26.9,12c-16.8,6.7-33.8,12.6-51.2,17.5
	c-18.8,5.3-37.7,9.8-56.9,13.4c-48.6,9.1-98.2,13.4-147.6,13.3c-40,0-79.6-2.7-119.3-8.6c-19.3-2.8-38.4-6.5-57.3-10.9
	c-17.6-4.1-35-9-52.1-14.8c-9.9-3.3-19.7-7-29.3-10.9c-18.2-7.5-35.8-16.1-52.6-26.4c-8-4.9-15.8-10.3-23.3-16
	c-8.2-6.3-16.3-13.5-23.4-21c-3.6-3.8-7.1-7.8-10.4-12c-3.1-3.9-6-8-8.6-12.2c-5.9-9.3-10.6-19.3-13.8-29.8
	c-5.5-18.2-6.2-37.6-1.7-56.2c1.7-7.2,4.2-14.1,7.2-20.8c2.9-6.4,6.4-12.5,10.3-18.3c7-10.4,15.2-19.8,24.4-28.4
	c19.6-18.4,43.4-33.3,67.4-45c8.8-4.3,17.8-8.3,26.9-12c16.8-6.7,33.8-12.6,51.2-17.5c18.8-5.3,37.7-9.8,56.9-13.4
	c17-3.2,34.1-5.8,51.2-7.8C1799,236.5,1831.2,234.6,1863.4,234.7z"/>
<path class="maincolor" d="M3167,64.5c5.9,16.4,11.3,32.9,16.4,49.6c31.1,102,46.9,208.1,46.8,314.7c0,75.1-7.9,149.4-23.2,222
	c11.7,2.2,22.2,4.7,31.5,7.6c15.9-75,24-151.9,24-229.5c0-109.8-16.2-219.1-48.2-324.2c-4.1-13.5-8.5-26.9-13.1-40.2H3167z"/>
<path class="maincolor" d="M519.7,650.8c-15.4-73.1-23.2-147.7-23.2-222.6c0-124.9,21.8-247.7,63.3-363.7h-34.3
	c-40.2,116.2-61.3,238.9-61.3,363.7c0,77.4,8.1,154.6,24,230.2C497.4,655.6,508,653,519.7,650.8z"/>
<path class="maincolor" d="M3235.6,64.5c3.4,10.2,6.7,20.4,9.8,30.7c32.9,108.1,49.7,220.6,49.7,333.6c0,82-8.9,163.2-26,242.3
	c10.1,5.6,19.7,12.1,28.9,19.5c19.5-85.3,29.6-173.1,29.6-261.7c0-116.2-17.2-231.9-51.1-343.1c-2.2-7.1-4.4-14.2-6.7-21.3H3235.6z"
	/>
<path class="maincolor" d="M457.7,671.1c-17.3-79.7-26.1-161.2-26-243c0-124.6,20.4-247.2,59.5-363.7h-34.1
	c-37.9,116.7-57.7,239.2-57.8,363.7c0,88.4,9.9,176.4,29.6,262.4C438,683.3,447.6,676.7,457.7,671.1z"/>
<path class="maincolor" d="M3303.7,64.5c1.2,3.9,2.5,7.9,3.7,11.9c34.8,114.2,52.5,233.1,52.5,352.5c0,97.4-11.8,193.7-34.7,287
	c8.5,8.9,16.6,18.3,24.5,28c0.4,0.6,0.9,1.1,1.4,1.7c27.1-102.7,41.2-209,41.2-316.7c0-122.6-18.1-244.6-53.9-362
	c-0.2-0.8-0.5-1.6-0.7-2.4H3303.7z"/>
<path class="maincolor" d="M401.6,715.9c-23-94.1-34.7-190.7-34.7-287.7c0-124.3,19.2-246.8,56.1-363.7h-33.9
	c-35.9,117.1-54.6,239.5-54.6,363.7c0,107.2,13.9,213.9,41.2,317.5c0.5-0.6,0.9-1.2,1.4-1.7C385,734.1,393.1,724.7,401.6,715.9z"/>
<path class="maincolor" d="M3371.5,64.5c35.3,118.2,53.2,241,53.2,364.4c0,119.8-17,238-49.6,351.5c7.2,11.2,14.9,23.7,22.8,36.8
	c38.9-124.9,59.2-255.6,59.2-388.3c0-123.3-17.4-246-51.8-364.4H3371.5z"/>
<path class="maincolor" d="M351.7,780.4c-32.9-114.5-49.6-233.1-49.6-352.2c0-124.1,18.2-246.4,53.2-363.6h-33.8
	c-34.1,117.4-51.7,239.7-51.8,363.6c0,129,19.1,257.4,56.7,380.9c0.8,2.7,1.7,5.5,2.5,8.2C336.8,804.1,344.5,791.6,351.7,780.4z"/>
<path class="maincolor" d="M3690.2,0.3c15.1,54.2,27.3,109.2,36.6,164.6V11.4c-1-3.7-2-7.4-3-11.2C3718.5,0,3706.4-0.2,3690.2,0.3z"/>
<path class="maincolor" d="M0,164.9C9.3,109.4,21.5,54.4,36.6,0.3C20.3-0.2,8.3,0,3,0.2C2,3.9,1,7.6,0,11.4V164.9z"/>
<path class="maincolor" d="M3726.8,958.3c-2,6-4.1,12.1-6.2,18.1h6.2V958.3z"/>
<path class="maincolor" d="M6.2,976.4c-2.1-6-4.2-12.1-6.2-18.1v18.1H6.2z"/>
<path class="maincolor" d="M3726.8,692.1c-16.2,97-41.4,192.1-75,284.3h34.4c15.3-43,28.9-86.6,40.6-130.8V692.1z"/>
<path class="maincolor" d="M75,976.4c-9.9-27.2-19.1-54.7-27.6-82.5C27.2,827.7,11.4,760.2,0,692.1v153.6c5.1,19.3,10.6,38.6,16.4,57.7
	c7.5,24.6,15.5,48.9,24.1,73H75z"/>
<path class="maincolor" d="M3624.5,6.1c39.4,137.4,59.4,279.8,59.4,422.8c-0.1,188.5-34.9,373.7-101.3,547.5h34.6
	c65-174.1,99-359.2,99-547.5c0-144.3-19.9-287.9-59.2-426.6C3646.8,3.2,3635.8,4.5,3624.5,6.1z"/>
<path class="maincolor" d="M144.2,976.4c-12.7-33.3-24.3-67.1-34.8-101.4c-44.1-144.9-66.6-295.5-66.5-447c0-143.7,20.3-285.6,59.4-421.9
	C90.9,4.5,80,3.2,69.7,2.3C30.7,140,10.5,283.1,10.5,428.1c0,154.7,22.9,308.5,67.9,456.4c9.4,31,19.8,61.6,31.1,91.9H144.2z"/>
<path class="maincolor" d="M3561.1,20.3c38.4,132.8,58,270.4,57.9,408.6c-0.1,188.9-36.6,374.4-106.1,547.5h34.9
	c67.9-173.4,103.6-358.8,103.6-547.5c0-141.1-19.9-281.5-59-417C3582,14.3,3571.5,17,3561.1,20.3z"/>
<path class="maincolor" d="M213.8,976.4c-15.8-39.4-30-79.5-42.4-120.2c-42.3-138.8-63.7-283.1-63.7-428.1c0-139,19.8-276.1,57.9-407.8
	c-10.3-3.3-20.8-6-31.3-8.3c-38.8,134.4-59,274.3-59,416.1c0,148.2,21.9,295.7,65.1,437.5c11.4,37.5,24.3,74.4,38.5,110.8H213.8z"/>
<path class="maincolor" d="M3501,45.5c35.4,124.7,53.4,253.8,53.3,383.4c-0.1,172-31.7,341-92.1,499.7c4.5,8.3,10.5,19.1,13.8,25.2
	c2.1,3.9,4.4,7.6,6.9,10.8c68-169.3,103.8-350.8,103.8-535.6c0-134.3-18.8-268-55.9-397C3523,35.6,3513,40.5,3501,45.5z"/>
<path class="maincolor" d="M264.6,928.6c-11.4-30-21.9-60.5-31.2-91.3c-40.4-132.6-60.9-270.6-60.9-409.2c0-130.3,18.2-259,53.3-382.6
	c-12-4.9-22.1-9.9-29.8-13.5c-36.8,128-55.8,261.2-55.9,396.1c0,141.8,21,283,62.3,418.6c12.2,39.9,26,79.2,41.5,117.8
	c2.5-3.3,4.7-7,6.9-10.8C254.1,947.7,260.1,936.8,264.6,928.6z"/>
<path class="maincolor" d="M3438.5,62.8c33.8,119.1,51,242.3,51,366.1c0,145.7-23.9,289.2-69.6,425.4c7.4,12.7,14.7,25.3,21.4,37.1
	c52.9-147.5,80.5-303.7,80.6-462.6c0-126.1-17.3-251.5-51.6-372.8C3460.4,58.9,3449.8,61.3,3438.5,62.8z"/>
<path class="maincolor" d="M306.9,854.3c-4-11.9-7.8-23.9-11.5-35.9c-38.5-126.5-58.1-258.1-58.1-390.3c0-124.5,17.4-247.3,51-365.4
	c-11.3-1.5-21.9-3.8-31.8-6.6c-33.9,120.3-51.5,245.3-51.6,372c0,135.4,20,270.2,59.5,399.8c6.5,21.4,13.5,42.6,21.1,63.6
	C292.2,879.7,299.4,867.1,306.9,854.3z"/>
<path class="maincolor" d="M3097.9,64.5c8.6,22.5,16.5,45.4,23.5,68.5c29.2,95.9,44.1,195.6,44,295.8c0,72.2-7.8,143.7-22.8,213.4
	c11.2,1,22.1,2.2,32.4,3.5c15-70.9,22.8-143.5,22.8-216.9c0-103.4-15.3-206.3-45.4-305.3c-6.1-19.9-12.7-39.6-19.9-59.1H3097.9z"/>
<path class="maincolor" d="M584.1,642.2c-15.1-70.2-22.8-142-22.8-214c0-125.3,23.3-248.3,67.6-363.7h-34.6
	c-42.8,115.7-65.3,238.6-65.3,363.7c0,73.2,7.6,146.1,22.8,217.5C562,644.4,572.8,643.2,584.1,642.2z"/>
<path class="maincolor" d="M3028.1,64.5c11.8,28.6,22.3,57.7,31.3,87.4c27.3,89.7,41.2,183.1,41.2,276.9c0,71-8,141.2-23.5,209.5
	c11.1,0.4,22.1,0.9,32.9,1.5c15.2-68.9,23-139.5,23-211c0-97-14.4-193.6-42.6-286.4c-8-26.4-17.2-52.4-27.3-77.9H3028.1z"/>
<path class="maincolor" d="M649.6,638.3C634,569.4,626.1,499,626.1,428.2c0-125.8,25.1-249.1,72.5-363.7h-35
	c-45.8,115-69.9,238.2-70,363.7c0,71.2,7.7,142.2,23,211.6C627.4,639.2,638.4,638.7,649.6,638.3z"/>
<path class="maincolor" d="M2957.6,64.5c15.5,34.5,28.8,70,39.9,106.3c25.5,83.6,38.4,170.6,38.4,258c0,70.9-8.6,140.9-25.1,208.8
	c18.5,0,19.2,0,19.8,0c4.5,0,9,0,13.5,0.1c15.9-68,24.2-138,24.2-208.8c0-90.6-13.4-180.8-39.8-267.5c-10-33-21.9-65.3-35.5-96.8
	H2957.6z"/>
<path class="maincolor" d="M716,637.6c-16.7-68.5-25.1-138.7-25.1-209.3c0-126.4,27.1-250,78.3-363.8h-35.4
	c-49.2,114.2-75.3,237.7-75.3,363.8c0,70.5,8.1,140.8,24.2,209.4c4.5,0,9-0.1,13.5-0.1C696.7,637.6,697.5,637.6,716,637.6z"/>
<path class="maincolor" d="M2886,64.5c19.8,40.3,36.4,82.1,49.5,125.1c23.6,77.5,35.6,158.1,35.6,239.1c0,71-9.3,141.1-27.1,208.8
	c31,0,32.5,0,33.5,0c17.2-67.8,26-137.8,26.1-208.8c0-84.2-12.5-168-37-248.6c-12.1-39.7-27-78.3-44.6-115.7H2886z"/>
<path class="maincolor" d="M782.8,637.6c-18-68.3-27.1-138.6-27.1-209.3c0-127.1,29.6-251.1,85.1-363.8h-36
	c-53.2,113.3-81.5,237.1-81.5,363.8c0,70.6,8.8,140.9,26.1,209.3C750.4,637.6,751.8,637.6,782.8,637.6z"/>
<path class="maincolor" d="M2813,64.5c25,45.8,45.3,94,60.5,144c21.7,71.4,32.8,145.6,32.8,220.2c0,71.2-10.1,141.4-29.5,208.8
	c31.1,0,32.6,0,33.7,0c18.6-67.6,28.3-137.7,28.3-208.8c0-77.8-11.5-155.2-34.2-229.7c-14.2-46.5-32.5-91.5-54.8-134.6H2813z"/>
<path class="maincolor" d="M850,637.6c-19.6-68-29.6-138.5-29.5-209.3c0-128,32.6-252.5,93.3-363.8h-36.7c-58,112-89,236.3-89,363.8
	c0,70.7,9.5,141.1,28.3,209.3C817.4,637.6,818.9,637.6,850,637.6z"/>
<path class="maincolor" d="M2738.2,64.5c31.2,51,55.9,105.7,73.4,162.9c19.9,65.2,30,133.1,30,201.3c0,71.5-11.1,141.8-32.4,208.8
	c31.3,0,32.9,0,33.9,0c20.3-67.3,30.9-137.5,30.9-208.8c0-71.4-10.6-142.5-31.4-210.8c-16.3-53.6-38.7-105-66.7-153.5H2738.2z"/>
<path class="maincolor" d="M917.7,637.6c-0.8-2.6-1.7-5.3-2.5-7.9c-19.9-65.2-30-133.1-30-201.3c0-129.1,36.3-254.4,103.3-363.8h-37.7
	c-63.7,110.4-98,235.3-98,363.8c0,70.9,10.4,141.4,30.9,209.2C884.8,637.6,886.4,637.6,917.7,637.6z"/>
<path class="maincolor" d="M2660.7,64.5c6,8.5,11.8,17.2,17.3,26c30.7,48.5,54.8,100.8,71.5,155.8c18,59.1,27.2,120.6,27.2,182.4
	c0,71.8-12.4,142.2-36,208.9c31.6,0,33.2,0,34.3,0c22.4-66.9,34.1-137.2,34.1-208.8c0-65-9.6-129.7-28.6-191.9
	c-17.6-57.7-42.9-112.7-75.1-163.7c-1.8-2.9-3.7-5.8-5.6-8.7H2660.7z"/>
<path class="maincolor" d="M986.1,637.6c-3.1-8.9-6.1-17.8-8.8-26.8c-18-59.1-27.2-120.6-27.2-182.4c0-126.3,38.3-248.5,108.5-353
	c2.4-3.6,4.9-7.3,7.4-10.9h-39.1c-70.7,108.2-109.2,234-109.3,363.8c0,65,9.6,129.7,28.6,191.9c1.8,5.8,3.6,11.6,5.5,17.4
	C952.8,637.6,954.5,637.6,986.1,637.6z"/>
<path class="maincolor" d="M2579.4,64.5c15.8,19.3,30.5,39.6,43.8,60.6c27.6,43.6,49.2,90.6,64.3,140c16.1,53,24.4,108.1,24.3,163.5
	c0,72.2-14,142.9-40.4,208.9c32,0,33.7,0,34.7,0c24.9-66.3,38-136.9,38.1-208.9c0-58.6-8.7-116.9-25.8-173
	c-15.9-52.2-38.8-101.8-67.9-147.9c-9.4-14.8-19.4-29.3-30-43.3H2579.4z"/>
<path class="maincolor" d="M1055.3,637.6c-6-15-11.4-30.2-16.1-45.7c-16.1-53-24.4-108.1-24.3-163.5c0-113.4,34.5-223,97.5-316.9
	c10.9-16.3,22.6-31.9,34.9-47h-41.2c-7.1,9.4-14,19.1-20.6,28.9c-66.6,99.2-103,215-103,334.9c0,58.6,8.7,116.9,25.8,173
	c3.7,12.2,7.8,24.3,12.3,36.2C1021.6,637.6,1023.3,637.6,1055.3,637.6z"/>
<path class="maincolor" d="M2491.9,64.5c3.2,3.2,6.4,6.5,9.6,9.8c25,26.1,47.6,54.9,67,85.5c24.5,38.7,43.7,80.4,57.1,124.3
	c14.3,46.9,21.6,95.6,21.5,144.6c0,72.8-16.1,143.7-46.1,208.9c32.6,0,34.4,0,35.5,0c28.1-65.6,43-136.4,43.1-208.9
	c0-52.2-7.7-104.1-22.9-154.1c-14.2-46.6-34.6-91-60.7-132.2c-17.4-27.5-37.3-53.7-59.2-77.9H2491.9z"/>
<path class="maincolor" d="M1125.8,637.6c-9.6-20.9-17.9-42.5-24.6-64.6c-14.3-46.9-21.6-95.6-21.5-144.6c0-100.6,30.7-197.6,86.5-280.8
	c20.1-30,43-57.6,68.6-83.1h-44.7c-18.4,20.4-35.4,42.1-50.8,65c-59.4,88.5-92,191.8-92,298.8c0,52.2,7.7,104.1,22.9,154.1
	c5.7,18.8,12.4,37.2,20.1,55.1C1091.4,637.6,1093.2,637.6,1125.8,637.6z"/>
<path class="maincolor" d="M2393.6,64.5c0.3,0.3,0.7,0.5,1,0.8c21.3,16.4,41.4,34.4,60,53.8c22,23,42,48.4,59,75.3
	c21.4,33.8,38.2,70.3,49.9,108.5c12.4,40.7,18.7,83.1,18.7,125.7c0,73.6-18.9,145-53.8,208.9c33.5,0,35.4,0,36.6,0
	c32.3-64.6,49.6-135.7,49.7-208.9c0-45.8-6.8-91.4-20.1-135.2c-12.5-41.1-30.5-80.1-53.5-116.4c-18.2-28.7-39.4-55.8-63-80.4
	c-10.7-11.2-21.9-21.9-33.5-32.2H2393.6z"/>
<path class="maincolor" d="M1198.3,637.6c-14.5-26.5-26.3-54.4-35.1-83.4c-12.4-40.7-18.7-83.1-18.7-125.7c0-87.7,26.8-172.2,75.5-244.7
	c20.6-30.7,44.4-58.5,71.5-83.9c13.3-12.5,27.2-24.2,41.6-35.3h-51c-4.3,3.8-8.6,7.7-12.8,11.7c-28.9,27.1-54.3,56.8-76.2,89.5
	c-52.3,77.9-81,168.6-81,262.7c0,45.8,6.8,91.4,20.1,135.2c7.8,25.5,17.7,50.2,29.5,74C1162.9,637.6,1164.8,637.6,1198.3,637.6z"/>
<path class="maincolor" d="M2272.7,64.5c12.5,6.5,24.7,13.4,36.7,20.7c15.8,9.7,31.1,20.2,45.8,31.5c18.7,14.4,36.4,30.2,52.7,47.2
	c19,19.9,36.3,41.8,51,65.1c18.3,28.9,32.7,60.1,42.6,92.8c10.5,34.6,15.9,70.6,15.9,106.8c0,74.8-23,146.7-64.5,208.6
	c-0.1,0.1-0.2,0.2-0.2,0.4c35,0,37.2,0,38.4,0c38-63.1,58.7-134.7,58.8-208.9c0-39.4-5.8-78.6-17.3-116.3
	c-10.8-35.5-26.4-69.3-46.2-100.7c-15.9-25.1-34.5-48.8-55-70.2c-17.5-18.2-36.3-35.1-56.4-50.5c-12.2-9.3-24.7-18.2-37.6-26.5
	H2272.7z"/>
<path class="maincolor" d="M1274.1,637.6c-2.1-3.1-4.2-6.3-6.2-9.5c-18.3-28.9-32.7-60.1-42.6-92.8c-10.5-34.6-15.9-70.6-15.9-106.8
	c0-74.8,23-146.7,64.5-208.6c17.9-26.6,38.5-50.7,62.1-72.8c35.2-33.1,75.4-60.3,118.2-82.5h-64.6c-26.9,17.4-52.4,36.9-75.7,58.9
	c-25.3,23.8-47.5,49.7-66.8,78.4c-45.1,67.2-70,145.4-70,226.6c0,39.4,5.8,78.6,17.3,116.3c9.9,32.6,23.9,63.7,41.4,92.9
	C1236.8,637.6,1239,637.6,1274.1,637.6z"/>
<path class="maincolor" d="M2128.3,213c6,2.2,11.9,4.5,17.8,6.9c44.4,18.2,88.3,43.7,121.7,78.7c21.7,22.8,38.6,49.5,47.8,79.8
	c4.9,16.2,7.5,33.2,7.5,50.1c0,36.2-11.5,70.4-31.5,100.3c-9.7,14.5-21.1,27.6-33.8,39.5c-24.4,22.9-53.4,41.4-83.3,56
	c-9.7,4.7-19.5,9.1-29.5,13.2c62,0,71.1,0,73.4,0c22.1-13,43-28.1,61.6-45.6c14.5-13.6,27.4-28.6,38.5-45.1
	c23.6-35.2,37-75.7,37-118.3c0-20.2-3-40.3-8.9-59.6c-10.7-35.1-30.2-66.3-55.4-92.7c-34.4-36.1-78.5-63-124.2-82.7
	C2157.1,202.4,2144.5,208.9,2128.3,213z"/>
<path class="maincolor" d="M1581.8,637.6c-0.4-0.1-0.7-0.3-1.1-0.4c-10.4-4.2-20.6-8.9-30.6-13.8c-10.7-5.3-21.1-11.1-31.3-17.3
	c-10-6.1-19.6-12.7-28.9-19.9c-10.9-8.4-21.4-17.8-30.9-27.7c-10-10.5-19.1-22-26.8-34.3c-9-14.2-16.1-29.5-21-45.6
	c-4.9-16.2-7.5-33.2-7.5-50.1c0-36.2,11.5-70.4,31.5-100.3c9.7-14.5,21.1-27.6,33.8-39.5c24.4-22.9,53.4-41.4,83.3-56
	c10.2-5,20.7-9.7,31.2-13.9c5-2,9.9-3.9,15-5.8c-16.2-4.1-28.8-10.5-38.8-19.4c-7.3,3.1-14.5,6.5-21.6,10
	c-32.9,16.1-64.5,36.3-91.3,61.5c-14.5,13.6-27.4,28.5-38.5,45.1c-23.6,35.2-37,75.7-37,118.3c0,20.2,3,40.3,8.9,59.6
	c5.7,18.8,14.1,36.8,24.6,53.4c8.9,14,19.3,27.2,30.8,39.3c10.6,11.2,22.4,21.7,34.6,31.1c10.2,7.8,20.8,15.1,31.7,21.8
	c2.2,1.3,4.3,2.6,6.5,3.9C1510.7,637.6,1519.8,637.6,1581.8,637.6z"/>
<path class="maincolor" d="M2187.2,167.1c47.1,21.1,91.8,49.4,127.5,86.9c28.7,30.1,50.7,65.6,62.9,105.6c6.8,22.4,10.3,45.6,10.3,69
	c0,49-15.3,95.9-42.5,136.4c-12.5,18.5-27,35.3-43.2,50.6c-8.2,7.8-16.9,15.1-25.9,22c44.3,0,48.3,0,49.8,0
	c17.5-16.7,32.8-34.6,46.2-54.5c30.8-45.8,48-98.9,48-154.4c0-26.6-4-53.1-11.7-78.5c-13.7-44.8-38.2-84.7-70.4-118.5
	c-39-40.9-87.6-71.8-139.1-94.7C2195.6,148.1,2191.8,158.1,2187.2,167.1z"/>
<path class="maincolor" d="M1450.5,637.6C1450.5,637.5,1450.5,637.5,1450.5,637.6c-13.6-10.4-26.6-22.1-38.4-34.5
	c-13-13.6-24.6-28.4-34.7-44.3c-12.1-19.1-21.6-39.7-28.2-61.3c-6.8-22.4-10.3-45.6-10.3-69c0-49,15.3-95.9,42.5-136.4
	c12.5-18.5,27-35.3,43.2-50.6c29.2-27.4,63.3-49.5,99.2-67c5.2-2.6,10.5-5,15.8-7.4c-4.6-8.9-8.5-19-11.9-30.2
	c-6.1,2.7-12.1,5.5-18.1,8.5c-38.8,19-75.6,42.8-107.2,72.5c-18.2,17.1-34.1,35.6-47.9,56.2c-30.8,45.8-48,98.9-48,154.4
	c0,26.6,4,53.1,11.7,78.5c7.4,24.4,18.2,47.7,31.8,69.2c11.2,17.7,24.2,34.2,38.6,49.3c3.9,4.1,8,8.2,12.1,12.1
	C1402.2,637.6,1406.2,637.6,1450.5,637.6z"/>
<path class="maincolor" d="M2207.4,105.2c57.2,24.9,111,58.7,154.2,104.1c35.7,37.5,62.8,81.7,78,131.4c8.7,28.5,13.1,58.1,13.1,87.9
	c0,61.9-19.2,121.3-53.5,172.5c-8.6,12.8-18,25-28.2,36.5c37.9,0,40.6,0,41.9,0c4.6-6,9-12.1,13.2-18.4c37.9-56.5,59-122.1,59-190.5
	c0-33-4.9-65.8-14.5-97.4c-9.1-30-22.3-58.4-39-84.9c-13.5-21.3-29.1-41.2-46.5-59.4c-47.7-50.1-107.2-87.1-170.5-113.9
	c-0.1,0.3-0.1,0.5-0.2,0.8C2212,84.9,2209.7,95.3,2207.4,105.2z"/>
<path class="maincolor" d="M1355.8,637.6c-12.2-13.8-23.3-28.5-33.2-44.1c-15.2-24-27.1-49.9-35.4-77.1c-8.7-28.5-13.1-58.1-13.1-87.9
	c0-61.9,19.2-121.3,53.5-172.5c15.2-22.6,32.7-42.9,52.6-61.7c33.9-31.9,73.4-57.6,115.1-78c7.9-3.9,15.9-7.6,24-11.1
	c-2.3-9.8-4.6-20.3-7-31.4c-0.1-0.3-0.1-0.5-0.2-0.8c-10.5,4.4-20.8,9.2-31.1,14.2c-44.7,21.9-86.8,49.4-123.1,83.5
	c-21.8,20.5-40.8,42.7-57.4,67.3c-37.9,56.5-59,122.1-59,190.5c0,33,4.9,65.8,14.5,97.4c9.1,30,22.3,58.4,39,84.9
	c5.8,9.2,12.1,18.2,18.7,26.8C1315.2,637.6,1317.9,637.6,1355.8,637.6z"/>
</svg>
