<?xml version="1.0" encoding="utf-8"?>
<!-- Generator: Adobe Illustrator 27.9.1, SVG Export Plug-In . SVG Version: 6.00 Build 0)  -->
<svg class="w" version="1.1" xmlns="http://www.w3.org/2000/svg" xmlns:xlink="http://www.w3.org/1999/xlink" x="0px" y="0px"
	 viewBox="0 0 3726.8 976.4" style="enable-background:new 0 0 3726.8 976.4;" xml:space="preserve">
     $gradientDefs

		<style type="text/css">
	.maincolor{fill-rule:evenodd;clip-rule:evenodd;}
	.accentcolor{fill-rule:evenodd;clip-rule:evenodd;}
	</style>
<path class="maincolor" d="M2888.4,64.5c-2.8,5.2-7.2,9.7-12.9,12.6l-76.5,39.4c-6.4,3.5-13.8,4.7-21,3.2c-1.9,1.8-4,3.4-6.3,4.7
	c6.4,1.5,12.3,5,16.7,9.9c3.9-2.1,8.2-3.4,12.6-3.8l47.4-4.4l75.8-30.4c15.2-6.1,32.6-0.2,40.9,13.9l48.1,81.1
	c9.1,15.4,4.4,35.2-10.6,44.8l-73.7,47.5c-2.9,1.9-6.1,3.2-9.4,3.9l-86.7,19.1c-5.7,1.2-11.6,1-17.1-0.8c3.4,3.8,5.9,8.3,7.3,13.2
	c4.4-3.8,10.5-6.7,16.4-7.3l99.3-7.8l57.1-29.8c14.6-7.6,32.6-2.5,40.9,11.7L3089,373c9,15.1,3.6,35.1-12.3,43.2l-76.5,39.4
	c-6.4,3.5-13.8,4.7-21,3.2c-0.6,0.6-1.2,1.1-1.8,1.6c4.1,2.3,7.7,5.4,10.5,9.1c3.8-2,8-3.2,12.2-3.6l47.4-4.4l75.8-30.4
	c15.2-6.1,32.6-0.2,40.9,13.9l48.1,81.1c9.1,15.4,4.4,35.2-10.6,44.8l-73.7,47.5c-2.9,1.9-6.1,3.2-9.4,3.9l-69.8,15.4
	c32.4,0.4,64.1,1.9,93.1,4.5l55.6-28.9c14.6-7.6,32.6-2.5,40.9,11.7l26.1,43.9c33.1,17,60.3,44.4,85.1,75.1
	c24.5,30.3,76.3,120.1,106.5,173.8c1.7,3.1,14.3,26.1,19.8,36c6.7,12.1,14.3,22.7,28.2,22.7h222.6V0.3c0,0-106.9-5.4-188.3,28.2
	c-19.8,8.2-66.2,36-126.2,36H2888.4z"/>

<path class="maincolor" d="M2401.2,637.6l-33-55.7c-9.3-15.6-3.2-36.5,13.9-44l80.6-35.4c6.6-3.2,14.1-4,21.2-2.2c0.4-0.4,0.9-0.8,1.3-1.1
	c-7.5-2.1-14-6.7-18.4-13.2c-2.8,1-5.7,1.7-8.6,2l-47.4,4.4l-75.8,30.4c-15.2,6.1-32.6,0.2-40.9-13.9l-48.1-81.1
	c-9.1-15.4-4.4-35.2,10.6-44.8l73.7-47.5c2.9-1.9,6.1-3.2,9.4-3.9l86.7-19.1c5.2-1.1,10.6-1,15.8,0.4c-2.8-3.4-5-7.2-6.3-11.4
	c-4.4,3.4-9.7,5.7-15.3,6.4l-102.1,8l-67.2,19.9c-13.9,4.9-29.4-0.7-36.9-13.4l-45.7-77.1c-9.3-15.6-3.2-36.5,13.9-44l80.6-35.4
	c6.6-3.2,14.1-4,21.2-2.2c4.4-4,9.9-6.6,15.7-7.5l24.9-4.1l-38.4-0.7c-8.7-0.1-16.9-3.7-23-9.9c-3,1.2-6.2,2-9.4,2.3l-47.4,4.4
	l-13.2,5.3c-16.6,41.9-43.6,63.8-110.3,64.6c-71.9,0.8-145.8,1.2-219.6,1.2c-73.9,0-147.7-0.4-219.6-1.2
	c-100.8-1.1-111.1-50.8-131.4-144.3c-0.6-2.9-1.2-6-1.8-9.3H314.5c-60,0-106.4-27.8-126.2-36C106.9-5.1,0,0.3,0,0.3v976.1h222.6
	c13.9,0,21.4-10.6,28.2-22.7c5.5-9.9,18.1-32.9,19.8-36c30.2-53.7,81.9-143.5,106.5-173.8c26.8-33.1,56.2-62.4,92.9-78.9
	c41.4-18.6,132.2-27.5,226.2-27.5c35.3,0,601.3,0,1167.2,0C2124.2,637.6,2385,637.6,2401.2,637.6z M1863.4,267.1
	c200.2,0,362.5,72.3,362.5,161.5S2063.6,590,1863.4,590s-362.5-72.3-362.5-161.5S1663.2,267.1,1863.4,267.1z"/>

	<path class="accentcolor" d="M3192.6,648.3c10.7,1.7,20.7,3.6,29.8,5.8l-8.6-14.5c-0.6-1-1.8-1.3-2.8-0.8L3192.6,648.3z"/>
	<path class="accentcolor" d="M3187.7,540.8l-48.2-81.1c-1.1-1.9-3.4-2.6-5.4-1.8l-79.7,31.9l-51.5,4.8c-2.6,0.2-4.4,2.7-3.9,5.2l21.6,110
		c0.5,2.4,2.8,4,5.2,3.4l86.7-19.1l73.8-47.5C3188.3,545.4,3188.9,542.8,3187.7,540.8z"/>
	<path class="accentcolor" d="M2850.1,637.6h27.4l104.5-29.7c2-0.6,3.3-2.6,2.9-4.6l-6.9-41c-0.4-2.2-2.3-3.7-4.5-3.4l-89,10.2l-45.7-14.7
		c-2.3-0.7-4.7,0.6-5.3,2.9l-10.4,40.6c-0.3,1.2-0.1,2.4,0.7,3.4L2850.1,637.6z"/>
	<path class="accentcolor" d="M2841.1,543.2l44.5,14.3l85.6-9.8c2.3-0.3,4-2.4,3.6-4.8l-9.1-54.3c-0.3-2-2-3.4-4-3.4l-105.9-2
		c-1.9,0-3.6,1.2-4.1,3.1l-13.3,52C2837.9,540.4,2839.1,542.5,2841.1,543.2z"/>
	<path class="accentcolor" d="M2729.7,456.4l16.5-75.5l-10-42.7c-0.6-2.5-3-4-5.5-3.5l-48.3,9.6c-1.9,0.4-3.3,1.7-3.7,3.6l-22.2,99
		c-0.6,2.7,1.3,5.4,4,5.7l63.9,7.5C2726.9,460.3,2729.1,458.8,2729.7,456.4z"/>
	<path class="accentcolor" d="M2747.4,336.3l10.4,44.5l-16.6,76c-0.6,2.7,1.3,5.4,4,5.7l48.1,5.7c2.2,0.3,4.2-1,5-3.1l19.5-54.2l-22.3-84.6
		c-0.6-2.4-3-3.9-5.5-3.4l-39,7.7C2748.5,331.2,2746.8,333.7,2747.4,336.3z"/>
	<path class="accentcolor" d="M2529.8,162.8l-17,75.4l9.7,42.7c0.6,2.5,3,4.1,5.5,3.6l48.4-9.3c1.9-0.4,3.3-1.7,3.7-3.6l22.8-98.8
		c0.6-2.7-1.2-5.4-4-5.7l-63.9-7.9C2532.6,158.9,2530.4,160.4,2529.8,162.8z"/>
	<path class="accentcolor" d="M2511.3,282.8l-10.1-44.6l17.1-75.9c0.6-2.7-1.2-5.4-4-5.7l-48.1-6c-2.2-0.3-4.2,1-5,3l-19.9,54.1l21.8,84.7
		c0.6,2.4,3,3.9,5.4,3.5l39-7.5C2510.2,287.9,2511.9,285.3,2511.3,282.8z"/>
	<path class="accentcolor" d="M2837.1,64.5h-65.7l10.8,25.7c0.5,1.3,2,1.7,3.2,1C2785.3,91.2,2820.2,73.2,2837.1,64.5z"/>
	<path class="accentcolor" d="M2762.9,64.5h-102.3c2.8,7.1,5.7,14,8.6,20.1c5.3,11,18.1,21.7,18.1,21.7l69.7-6.7c0.9-0.1,1.6-0.8,1.8-1.7
		L2762.9,64.5z"/>
	<path class="accentcolor" d="M2434.7,637.6h32.1l46-13.6l103.7-8.1c1-0.1,2.4-1.1,2.1-2.1c-0.8-3-14.9-51.9-29.3-81.9
		c-5.3-11-18.1-21.7-18.1-21.7l-67.2,11c-0.9,0.1-1.6,0.8-1.8,1.7l-8.2,40.4c-0.2,1-1.8,1.2-2.2,0.2l-13.7-34c-0.5-1.3-2-1.7-3.2-1
		l-81.5,35.8c-1,0.6-1.3,1.9-0.7,2.9L2434.7,637.6z"/>
	<path class="accentcolor" d="M3064.3,387.7l-52.1-87.8c-0.6-1-1.8-1.3-2.8-0.8l-62.4,32.5l-103.7,8.1c-1,0.1-2.4,1.1-2.1,2.1
		c0.8,3,14.9,51.9,29.3,81.9c5.3,11,18.1,21.7,18.1,21.7l69.7-6.7c0.9-0.1,1.6-0.8,1.8-1.7l5.6-44.7c0.2-1,1.8-1.2,2.2-0.2
		l15.6,37.2c0.5,1.3,2,1.7,3.2,1l77-39.7C3064.6,390,3064.9,388.7,3064.3,387.7z"/>
	<path class="accentcolor" d="M2193.2,230.6l45.7,77.1c0.6,1,1.8,1.3,2.8,0.8l71.3-21.1l103.7-8.1c1-0.1,2.4-1.1,2.1-2.1
		c-0.8-3-14.9-51.9-29.3-81.9c-5.3-11-18.1-21.7-18.1-21.7l-67.2,11c-0.9,0.1-1.6,0.8-1.8,1.7l-8.2,40.4c-0.2,1-1.8,1.2-2.2,0.2
		l-13.7-34c-0.5-1.3-2-1.7-3.2-1l-81.5,35.8C2192.9,228.3,2192.6,229.6,2193.2,230.6z"/>
	<path class="accentcolor" d="M2538.9,64.5h-75.1l-9.3,40.4c-0.6,2.7,1.2,5.4,4,5.7l63.9,7.9c2.4,0.3,4.6-1.3,5.2-3.6L2538.9,64.5z"/>
	<path class="accentcolor" d="M2614.5,64.5h-64l-11.5,51c-0.6,2.7,1.2,5.4,4,5.7l48.1,6c2.2,0.3,4.2-1,5-3L2616,70L2614.5,64.5z"/>
	<path class="accentcolor" d="M2730.7,501.3l-17,75.4l9.7,42.7c0.6,2.5,3,4.1,5.5,3.6l48.4-9.3c1.9-0.4,3.3-1.7,3.7-3.6l22.8-98.8
		c0.6-2.7-1.2-5.4-4-5.7l-63.9-7.9C2733.5,497.4,2731.3,498.9,2730.7,501.3z"/>
	<path class="accentcolor" d="M2712.2,621.3l-10.1-44.6l17.1-75.9c0.6-2.7-1.2-5.4-4-5.7l-48.1-6c-2.2-0.3-4.2,1-5,3l-19.9,54.1L2664,631
		c0.6,2.4,3,3.9,5.4,3.5l39-7.5C2711.1,626.4,2712.8,623.9,2712.2,621.3z"/>
	<path class="accentcolor" d="M2988.6,205.3l-48.2-81.1c-1.1-1.9-3.4-2.6-5.4-1.8l-79.7,31.9l-51.5,4.8c-2.6,0.2-4.4,2.7-3.9,5.2l21.6,110
		c0.5,2.4,2.8,4,5.2,3.4l86.7-19.1l73.8-47.5C2989.2,209.9,2989.8,207.3,2988.6,205.3z"/>
	<path class="accentcolor" d="M2270.7,413.1l48.2,81.1c1.1,1.9,3.4,2.6,5.4,1.8l79.7-31.9l51.5-4.8c2.6-0.2,4.4-2.7,3.9-5.2l-21.6-110
		c-0.5-2.4-2.8-4-5.2-3.4l-86.7,19.1l-73.8,47.5C2270.1,408.5,2269.5,411.1,2270.7,413.1z"/>
	<path class="accentcolor" d="M2776,225.9l-89,10.2l-45.7-14.7c-2.3-0.7-4.7,0.6-5.3,2.9l-10.4,40.6c-0.3,1.2-0.1,2.4,0.7,3.4l29.3,40.4
		c1,1.4,2.8,2,4.5,1.5l124.5-35.4c2-0.6,3.3-2.6,2.9-4.6l-6.9-41C2780.2,227.2,2778.2,225.7,2776,225.9z"/>
	<path class="accentcolor" d="M2643.6,210.3l44.5,14.3l85.6-9.8c2.3-0.3,4-2.4,3.6-4.8l-9.1-54.3c-0.3-2-2-3.4-4-3.4l-105.9-2
		c-1.9,0-3.6,1.2-4.1,3.1l-13.3,52C2640.3,207.5,2641.5,209.7,2643.6,210.3z"/>
	<path class="accentcolor" d="M2482,397.9l89-10.2l45.7,14.7c2.3,0.7,4.7-0.6,5.3-2.9l10.4-40.6c0.3-1.2,0.1-2.4-0.7-3.4l-29.3-40.4
		c-1-1.4-2.8-2-4.5-1.5l-124.5,35.4c-2,0.6-3.3,2.6-2.9,4.6l6.9,41C2477.9,396.6,2479.9,398.1,2482,397.9z"/>
	<path class="accentcolor" d="M2614.5,413.5l-44.5-14.3l-85.6,9.8c-2.3,0.3-4,2.4-3.6,4.8l9.1,54.3c0.3,2,2,3.4,4,3.4l105.9,2
		c1.9,0,3.6-1.2,4.1-3.1l13.3-52C2617.7,416.3,2616.5,414.1,2614.5,413.5z"/>
	<path class="accentcolor" d="M2246.1,64.5h-29.9c-0.6,3.2-1.2,6.3-1.8,9.3c-3.6,16.6-6.9,31.9-10.5,45.7l47.2-4.4c2.6-0.2,4.4-2.7,3.9-5.2
		L2246.1,64.5z"/>
	<path class="accentcolor" d="M2407.4,64.5h-133.8c0,0.1,0,0.2,0,0.3l9.1,54.3c0.3,2,2,3.4,4,3.4l105.9,2c1.9,0,3.6-1.2,4.1-3.1l13.3-52
		C2410.6,67.3,2409.5,65.2,2407.4,64.5z"/>

</svg>
