<?xml version="1.0" encoding="utf-8"?>
<!-- Generator: Adobe Illustrator 27.9.1, SVG Export Plug-In . SVG Version: 6.00 Build 0)  -->
<svg class="w" version="1.1" xmlns="http://www.w3.org/2000/svg" xmlns:xlink="http://www.w3.org/1999/xlink" x="0px" y="0px"
	 viewBox="0 0 8583.3 1330.6" style="enable-background:new 0 0 8583.3 1330.6;" xml:space="preserve">
     $gradientDefs

 <path class="maincolor" d="M8467.9,393.4H2006.1c-5.9,0-10.7-4.8-10.7-10.7v-69c0-5.9,4.8-10.7,10.7-10.7h6501.4
	c22.4-48.5,46.2-95.7,69.9-137.7c12.1-21.5,6.1-27.7-19.3-27.5c-501.7,3.8-7051.3-0.3-8079.2,0c-123,0-200.1-19-260.6-44.5
	C182.5,78.2,80,33.4,26.8,6.9C4-4.4-1.7-2.3,0.4,16.9c6.6,59.7,20,148.9,31.8,218.8c4.3,25.4,7.1,38.1,33.5,50.3
	c86.1,39.8,267.5,135,400,202.5C586,549.8,662,557.2,794.9,557.2c1121.2,0.2,7018.8,2.4,7568.6,1.8c42.3,0,46.4-7,54.3-31.3
	C8431.3,486.6,8448.4,440.6,8467.9,393.4z"/>

<text class="textcolor same-main" transform="matrix(0.88 0 0 1 754.3527 461.3379)" style="font-family:'Ford-Bronco-Font-Main-Regular'; font-size:323.9792px; text-anchor: start; stroke:#b3b3b3; stroke-width:180; paint-order:stroke; stroke-linecap:square; stroke-linejoin:round;">
	<tspan x="0" y="0">$textRef</tspan>
</text>

<path class="maincolor" d="M75.9,1074.4h6496.4c5.9,0,10.7,4.8,10.7,10.7v69c0,5.9-4.8,10.7-10.7,10.7H115.4c19.5,47.2,36.6,93.2,50,134.3
	c7.9,24.3,12,31.2,54.3,31.3c549.9,0.6,6447.5-1.5,7568.6-1.8c132.9,0,208.9-7.5,329.2-68.8c132.5-67.5,313.9-162.8,400-202.5
	c26.4-12.2,29.2-24.9,33.5-50.3c11.8-69.9,25.2-159.1,31.8-218.8c2.1-19.2-3.6-21.4-26.3-10.1c-53.3,26.5-155.8,71.3-191.5,86.4
	c-60.5,25.6-137.6,44.6-260.6,44.5c-1027.9-0.3-7577.5,3.8-8079.2,0c-25.3-0.2-31.3,6-19.3,27.5C29.6,978.7,53.5,1025.9,75.9,1074.4
	z"/>

<text class="textcolor same-main" transform="matrix(0.88 0 0 1 7858.9473 1232.8102)" style="font-family:'Ford-Bronco-Font-Main-Regular'; font-size:323.9792px; text-anchor: end; stroke:#b3b3b3; stroke-width:180; paint-order:stroke; stroke-linecap:square; stroke-linejoin:round;">
	<tspan x="0" y="0" class="textcolor">$textRef</tspan>
</text>
</svg>
