<?xml version="1.0" encoding="utf-8"?>
<!-- Generator: Adobe Illustrator 27.9.1, SVG Export Plug-In . SVG Version: 6.00 Build 0)  -->
<svg class="w" version="1.1" xmlns="http://www.w3.org/2000/svg" xmlns:xlink="http://www.w3.org/1999/xlink" x="0px" y="0px"
	 viewBox="0 0 8508.3 1318.9" style="enable-background:new 0 0 8508.3 1318.9;" xml:space="preserve">
     $gradientDefs

 <path class="maincolor" d="M8350.7,504.1c36.1-105.8,94.5-238.6,151.7-340.2c12-21.3,6-27.4-19.1-27.2c-229.8,1.7-1740.4,1.8-3399.2,1.4
	c-1930.2-0.5-4061.4-1.6-4609.3-1.4c-122,0-198.4-18.8-258.3-44.1c-35.4-15-137-59.4-189.8-85.6C4-4.4-1.7-2.3,0.4,16.8
	C7,75.9,20.3,164.3,31.9,233.6c4.2,25.2,7.1,37.7,33.2,49.8c85.3,39.4,265.1,133.8,396.5,200.8c119.2,60.7,194.6,68.1,326.3,68.2
	c572.1,0.1,2398.7,0.7,4111.1,1.2c1614.2,0.5,3126.9,0.8,3391.4,0.5c37.2,0,44.6-5.5,51.3-23.4L8350.7,504.1z"/>

<text class="textcolor" transform="matrix(1 0 0 1 747.8298 448.2833)" style="font-family:'Ford-Bronco-Font-Main-Regular'; font-size:301.0792px; text-anchor: start;">
	<tspan x="0" y="0">$textRef</tspan>
</text>

<path class="maincolor" d="M157.7,1268.8C121.6,1163,63.2,1030.2,6,928.6c-12-21.3-6-27.4,19.1-27.2c229.8,1.7,1740.4,1.8,3399.2,1.4
	c1930.2-0.5,4061.4-1.6,4609.3-1.4c122,0,198.4-18.8,258.3-44.1c35.4-15,137-59.4,189.8-85.6c22.5-11.2,28.2-9.1,26.1,10
	c-6.6,59.2-19.9,147.5-31.5,216.9c-4.2,25.2-7.1,37.7-33.2,49.8c-85.3,39.4-265.1,133.8-396.5,200.8
	c-119.2,60.7-194.6,68.1-326.3,68.2c-572.1,0.1-2398.7,0.7-4111.1,1.2c-1614.2,0.5-3126.9,0.8-3391.4,0.5
	c-37.2,0-44.6-5.5-51.3-23.4L157.7,1268.8z"/>

<text class="textcolor" transform="matrix(1 0 0 1 7760.4702 1213.0145)" style="font-family:'Ford-Bronco-Font-Main-Regular'; font-size:301.0792px; text-anchor: end;">
	<tspan x="0" y="0">$textRef</tspan>
</text>
</svg>
