<?xml version="1.0" encoding="utf-8"?>
<!-- Generator: Adobe Illustrator 27.9.1, SVG Export Plug-In . SVG Version: 6.00 Build 0)  -->
<svg class="w" version="1.1" xmlns="http://www.w3.org/2000/svg" xmlns:xlink="http://www.w3.org/1999/xlink" x="0px" y="0px"
	 viewBox="0 0 8587.5 1327.8" style="enable-background:new 0 0 8587.5 1327.8;" xml:space="preserve">
     $gradientDefs

<g>
	<path class="maincolor" d="M6102.3,486.7l161.2-348.1c-141,0-285.5,0-432.6,0l-161.2,348.2L6102.3,486.7z"/>
	<path class="maincolor" d="M5517.3,486.7l161.2-348.2c-172.7,0-348.5,0-526.1,0l-161.2,348.2L5517.3,486.7z"/>
	<path class="maincolor" d="M4474.1,138.4c-1867.8-0.2-3726.4-0.7-3995-0.6c-123.1,0-200.2-19-260.8-44.5c-13.9-5.9-37.9-16.2-65.1-28.2
		c-5.7-2.5-10.5,0.4-9.6,6.5c9.7,66,14.3,96.1,26.4,174.5c1.5,9.7,5.5,18,14.4,22.1c22.5,10.5,44.9,21.4,67.1,32.7
		c54.2,26.9,194.2,97.3,247.7,125.3c43.2,22.6,85.2,38.5,132.8,48.9c52.3,10.1,110.4,11.7,163.3,11.6l3564.6,0l572.4,0l161.2-348.2
		C4888.4,138.5,4681.2,138.5,4474.1,138.4z"/>
	<path class="maincolor" d="M8544.9,138l-161.5,348.8l49.2,0c2.1,0,3.9-1.1,4.6-3.1c36.7-102.1,91-223.6,144.3-318.4
		c12.1-21.5,6.1-27.7-19.3-27.5C8558.4,137.9,8552.6,137.9,8544.9,138z"/>
	<path class="maincolor" d="M7857.3,486.8l161.3-348.3c-48.1,0-99,0-152.4,0.1l-161.3,348.3L7857.3,486.8z"/>
	<path class="maincolor" d="M7272.3,486.8l161.2-348.2c-78.9,0-160.9,0-245.8,0l-161.2,348.2L7272.3,486.8z"/>
	<path class="maincolor" d="M6687.3,486.7l161.2-348.1c-109.7,0-223,0-339.2,0l-161.2,348.1L6687.3,486.7z"/>
</g>
<g>
	<path class="accentcolor" d="M4336.6,557.7c187.5,0,375.7,0,562.8,0l16.5-35.5l-567.6,0l-3552.9,0c-29.6,0.2-59.2-0.6-88.7-2.3
		c-25.4-1.3-56.9-4.9-81.8-10c-47.7-9.8-99.2-29.3-142.1-52.3c-82.1-42.3-164.4-83.9-247-125l-0.1,0c-28.9-14.5-47-23.3-72-34.9
		c-11.4-5.3-22.9-13.4-26.8-38.5c-7-45.5-15.6-97.8-31.7-205.8c-0.9-5.9-2.8-10.9-8.2-13.4C70.8,28,45.7,16.3,26.8,6.9
		C4-4.4-1.7-2.3,0.4,16.9C7,76.6,20.5,165.9,32.2,235.8c4.3,25.4,7.1,38.1,33.5,50.3c86.1,39.8,267.6,135.1,400.2,202.6
		c120.3,61.3,196.4,68.8,329.4,68.8C1064.6,557.6,2671.3,557.6,4336.6,557.7z"/>
	<path class="accentcolor" d="M8366.9,522.2l-16.4,35.3c7.2,0,12.9,0,17.1,0c37.5,0,45-3.8,51.7-21.9l2.3-6.9c1.1-3.2-1.3-6.5-4.7-6.5
		L8366.9,522.2z"/>
	<path class="accentcolor" d="M7824.4,557.6l16.4-35.4l-152.3,0l-16.4,35.5C7725.6,557.6,7776.5,557.6,7824.4,557.6z"/>
	<path class="accentcolor" d="M7239.4,557.6l16.4-35.5l-245.8,0l-16.4,35.5C7078.6,557.7,7160.8,557.7,7239.4,557.6z"/>
	<path class="accentcolor" d="M6654.4,557.7l16.4-35.5l-339.2,0l-16.4,35.5C6431.5,557.7,6545.1,557.7,6654.4,557.7z"/>
	<path class="accentcolor" d="M6069.4,557.7l16.4-35.5l-432.6,0l-16.5,35.5C5783.9,557.7,5928.7,557.7,6069.4,557.7z"/>
	<path class="accentcolor" d="M5484.5,557.7l16.5-35.5l-526.1,0l-16.5,35.5C5135.4,557.7,5311.3,557.7,5484.5,557.7z"/>
</g>

<text class="textcolor" transform="matrix(1 0 0 1 714.6484 422.2416)"  textLength="2500" lengthAdjust="spacingAndGlyphs" style="font-family:'Ford-Bronco-Font-Main-Regular'; font-size:303.8806px;">
	<tspan x="0" y="0">CUSTOM</tspan>
</text>

<g>
	<path class="maincolor" d="M2485.2,1256.9l432.6,0l-161.2-348.2c-147.1,0-291.7,0-432.6,0L2485.2,1256.9z"/>
	<path class="maincolor" d="M3070.2,1256.9l526.1,0L3435,908.7c-177.5,0-353.4,0-526.1,0L3070.2,1256.9z"/>
	<path class="maincolor" d="M4227.6,1256.9l3564.6,0c52.9,0.1,111-1.5,163.3-11.6c47.7-10.4,89.6-26.3,132.8-48.9
		c53.5-28.1,193.5-98.4,247.7-125.3c22.2-11.2,44.6-22.1,67.1-32.7c8.9-4.2,12.9-12.4,14.4-22.1c12.1-78.3,16.7-108.4,26.4-174.5
		c0.9-6.1-4-9-9.6-6.5c-27.2,12-51.2,22.4-65.1,28.2c-60.5,25.6-137.7,44.6-260.8,44.5c-268.5-0.1-2127.1,0.3-3995,0.6
		c-207.1,0-414.3,0.1-619.5,0.1l161.2,348.2L4227.6,1256.9z"/>
	<path class="maincolor" d="M42.6,908.1c-7.7,0-13.5-0.1-17.4-0.1c-25.3-0.2-31.4,6-19.3,27.5c53.3,94.7,107.7,216.2,144.3,318.4
		c0.7,1.9,2.5,3.1,4.6,3.1l49.2,0L42.6,908.1z"/>
	<path class="maincolor" d="M730.2,1256.9l152.3,0L721.3,908.6c-53.4,0-104.3,0-152.4-0.1L730.2,1256.9z"/>
	<path class="maincolor" d="M1315.2,1256.9l245.8,0l-161.2-348.2c-84.9,0-166.9,0-245.8,0L1315.2,1256.9z"/>
	<path class="maincolor" d="M1900.2,1256.9l339.2,0l-161.2-348.1c-116.2,0-229.5,0-339.2,0L1900.2,1256.9z"/>
</g>
<g>
	<path class="accentcolor" d="M4239.2,1292.3l-567.6,0l16.5,35.5c187.1,0,375.4,0,562.8,0c1665.4,0,3272.1-0.1,3541.3-0.2
		c133,0,209-7.5,329.4-68.8c132.6-67.6,314.1-162.8,400.2-202.6c26.4-12.2,29.3-24.9,33.5-50.3c11.8-69.9,25.2-159.2,31.8-218.9
		c2.1-19.2-3.6-21.4-26.4-10.1c-18.9,9.4-44,21.1-70.2,33c-5.5,2.5-7.4,7.5-8.2,13.4c-16,108-24.7,160.3-31.7,205.8
		c-3.9,25.1-15.4,33.2-26.8,38.5c-25,11.6-43.2,20.5-72,34.9l-0.1,0c-82.6,41.1-165,82.8-247,125c-42.9,22.9-94.4,42.4-142.1,52.3
		c-24.9,5.1-56.4,8.7-81.8,10c-29.5,1.7-59.1,2.5-88.7,2.3L4239.2,1292.3z"/>
	<path class="accentcolor" d="M220.6,1292.3l-50,0c-3.4,0-5.8,3.3-4.7,6.5l2.3,6.9c6.7,18.1,14.2,21.9,51.7,21.9c4.1,0,9.8,0,17.1,0
		L220.6,1292.3z"/>
	<path class="accentcolor" d="M763.1,1327.8c48,0,98.9,0,152.3,0l-16.4-35.5l-152.3,0L763.1,1327.8z"/>
	<path class="accentcolor" d="M1348.1,1327.8c78.6,0,160.8,0,245.8,0l-16.4-35.5l-245.8,0L1348.1,1327.8z"/>
	<path class="accentcolor" d="M1933.1,1327.8c109.4,0,222.9,0,339.2,0l-16.4-35.5l-339.2,0L1933.1,1327.8z"/>
	<path class="accentcolor" d="M2518.1,1327.8c140.7,0,285.5,0,432.6,0l-16.5-35.5l-432.6,0L2518.1,1327.8z"/>
	<path class="accentcolor" d="M3103,1327.8c173.2,0,349,0,526.1,0l-16.5-35.5l-526.1,0L3103,1327.8z"/>
</g>

<text class="textcolor" transform="matrix(1 0 0 1 5415.7827 1181.8221)" textLength="2500" lengthAdjust="spacingAndGlyphs"  style="font-family:'Ford-Bronco-Font-Main-Regular'; font-size:303.8806px;">
	<tspan x="0" y="0">CUSTOM</tspan>
</text>
</svg>
