<?xml version="1.0" encoding="utf-8"?>
<!-- Generator: Adobe Illustrator 27.9.1, SVG Export Plug-In . SVG Version: 6.00 Build 0)  -->
<svg version="1.1" xmlns="http://www.w3.org/2000/svg" xmlns:xlink="http://www.w3.org/1999/xlink" x="0px" y="0px"
	 viewBox="0 0 8533.6 1322.9" style="enable-background:new 0 0 8533.6 1322.9;" xml:space="preserve">
     $gradientDefs

 <g>
	<path class="maincolor" d="M4913.6,555.2c83.4,0,166.5,0,249.1,0.1l10.6-23.6l-249.2,0l-439.5-0.1l-3721.9-1.1c-7.4,0-13.4-4.9-13.4-13.5
		c0-8.5,7.1-13.2,13.6-13.2l3721.6,1.1L4936,505l249.3,0l164.4-366.6c-83,0-166.6,0-250.5-0.1c-1936-0.5-4073.4-1.6-4623-1.4
		c-122.3,0-199-18.9-259.1-44.3C181.5,77.7,79.6,33.2,26.6,6.8C4-4.4-1.7-2.3,0.4,16.8C7,76.2,20.3,164.8,32,234.3
		c4.2,25.2,7.1,37.8,33.3,50c85.6,39.5,265.9,134.2,397.7,201.3C582.6,546.6,658.2,554,790.3,554
		C1364.1,554.1,3196.2,554.7,4913.6,555.2z"/>
	<path class="maincolor" d="M5408.6,138.5l-164.4,366.6l231.4,0L5640,138.5C5563.4,138.5,5486.3,138.5,5408.6,138.5z"/>
	<path class="maincolor" d="M5718.1,138.5l-164.4,366.6l212.2,0l164.4-366.6C5860.2,138.6,5789.4,138.6,5718.1,138.5z"/>
	<path class="maincolor" d="M6027.6,138.6l-164.4,366.6l193,0l164.4-366.6C6156.9,138.6,6092.6,138.6,6027.6,138.6z"/>
	<path class="maincolor" d="M6337,138.6l-164.4,366.6l173.9,0l164.4-366.6C6453.7,138.6,6395.7,138.6,6337,138.6z"/>
	<path class="maincolor" d="M6646.5,138.6l-164.4,366.6l154.7,0l164.5-366.7C6750.4,138.6,6698.8,138.6,6646.5,138.6z"/>
	<path class="maincolor" d="M6956,138.6l-164.5,366.7l135.6,0l164.5-366.8C7047.1,138.6,7001.9,138.6,6956,138.6z"/>
	<path class="maincolor" d="M7265.5,138.5L7101,505.4l116.4,0L7382,138.5C7343.9,138.5,7305.1,138.5,7265.5,138.5z"/>
	<path class="maincolor" d="M7575.1,138.4l-164.6,367l97.3,0l164.6-367C7640.7,138.4,7608.2,138.4,7575.1,138.4z"/>
	<path class="maincolor" d="M7884.7,138.2L7720,505.5l78.1,0l164.7-367.3C7937.5,138.2,7911.4,138.2,7884.7,138.2z"/>
	<path class="maincolor" d="M8194.3,137.9l-164.9,367.6l59,0l164.9-367.7C8234.5,137.8,8214.8,137.9,8194.3,137.9z"/>
	<path class="maincolor" d="M8504.2,137l-165.3,368.5l36.6,0c36.2-106.1,94.7-239.3,152.2-341.3c12-21.3,6-27.5-19.1-27.3
		C8507.1,137,8505.7,137,8504.2,137z"/>
	<path class="maincolor" d="M5232.2,531.7l-10.6,23.6c77.6,0,154.8,0,231.3,0.1l10.6-23.6L5232.2,531.7z"/>
	<path class="maincolor" d="M5541.7,531.8l-10.6,23.6c71.3,0,142.1,0,212.2,0.1l10.6-23.6L5541.7,531.8z"/>
	<path class="maincolor" d="M5851.2,531.8l-10.6,23.6c65,0,129.3,0,193,0l10.6-23.7L5851.2,531.8z"/>
	<path class="maincolor" d="M6160.6,531.9l-10.6,23.7c58.6,0,116.6,0,173.9,0l10.6-23.7L6160.6,531.9z"/>
	<path class="maincolor" d="M6470.1,531.9l-10.6,23.7c52.4,0,103.9,0,154.7,0l10.6-23.7L6470.1,531.9z"/>
	<path class="maincolor" d="M6779.6,532l-10.6,23.7c45.9,0,91.1,0,135.6,0l10.6-23.7L6779.6,532z"/>
	<path class="maincolor" d="M7089,532l-10.6,23.7c39.5,0,78.3,0,116.4,0l10.6-23.7L7089,532z"/>
	<path class="maincolor" d="M7398.5,532.1l-10.6,23.7c33.1,0,65.5,0,97.3,0l10.6-23.7L7398.5,532.1z"/>
	<path class="maincolor" d="M7708,532.1l-10.6,23.7c26.8,0,52.8,0,78.1,0l10.6-23.7L7708,532.1z"/>
	<path class="maincolor" d="M8017.5,532.2l-10.6,23.7c20.5,0,40.2,0,59,0l10.6-23.6L8017.5,532.2z"/>
	<path class="maincolor" d="M8326.9,532.2l-10.5,23.5c36.2-0.2,43.6-5.7,50.1-23.5L8326.9,532.2z"/>
</g>
	
<text class="textcolor" transform="matrix(0.9 0 0 1 749.9726 437.3433)" style="font-family:'Ford-Bronco-Font-Main-Regular'; font-size:261.7107px; text-anchor: start">
	<tspan x="0" y="0" class="textcolor st2 st3">$textRef</tspan>
</text>
	
<g>
	<path class="maincolor" d="M3609.5,1298.7l-249.2,0l10.6,23.6c82.6,0,165.7,0,249.1-0.1c1717.4-0.5,3549.5-1.1,4123.3-1.2
		c132.1,0,207.7-7.4,327.3-68.4c131.8-67.1,312.1-161.8,397.7-201.3c26.2-12.1,29.1-24.7,33.3-50c11.7-69.5,25-158.2,31.6-217.5
		c2.1-19.1-3.6-21.2-26.2-10c-53,26.3-154.9,70.9-190.4,85.9c-60.1,25.4-136.8,44.3-259.1,44.3c-549.6-0.2-2687.1,0.9-4623,1.4
		c-83.9,0-167.5,0-250.5,0.1l164.4,366.6l249.3,0l451.4-0.1l3721.6-1.1c6.6,0,13.6,4.7,13.6,13.2c0,8.5-6,13.5-13.4,13.5
		l-3721.9,1.1L3609.5,1298.7z"/>
	<path class="maincolor" d="M3125,905.5c-77.7,0-154.8,0-231.4,0l164.4,366.6l231.4,0L3125,905.5z"/>
	<path class="maincolor" d="M2815.5,905.5c-71.4,0-142.1,0-212.2,0l164.4,366.6l212.2,0L2815.5,905.5z"/>
	<path class="maincolor" d="M2506.1,905.6c-65,0-129.4,0-193,0l164.4,366.6l193,0L2506.1,905.6z"/>
	<path class="maincolor" d="M2196.6,905.6c-58.7,0-116.6,0-173.9,0l164.4,366.6l173.9,0L2196.6,905.6z"/>
	<path class="maincolor" d="M1887.1,905.6c-52.3,0-103.9,0-154.8,0l164.5,366.7l154.7,0L1887.1,905.6z"/>
	<path class="maincolor" d="M1577.6,905.6c-45.9,0-91.1,0-135.6,0l164.5,366.8l135.6,0L1577.6,905.6z"/>
	<path class="maincolor" d="M1268.1,905.5c-39.5,0-78.3,0-116.4,0l164.6,366.9l116.4,0L1268.1,905.5z"/>
	<path class="maincolor" d="M958.5,905.4c-33.1,0-65.6,0-97.3,0l164.6,367l97.3,0L958.5,905.4z"/>
	<path class="maincolor" d="M648.9,905.2c-26.8,0-52.8,0-78.2-0.1l164.7,367.3l78.1,0L648.9,905.2z"/>
	<path class="maincolor" d="M339.3,904.9c-20.5,0-40.2-0.1-59-0.1l164.9,367.7l59,0L339.3,904.9z"/>
	<path class="maincolor" d="M29.4,904c-1.5,0-2.9,0-4.3,0C-0.1,903.8-6,910,6,931.3c57.4,102,116,235.1,152.2,341.3l36.6,0L29.4,904z"/>
	<path class="maincolor" d="M3301.4,1298.8l-231.4,0l10.6,23.6c76.6,0,153.7,0,231.3-0.1L3301.4,1298.8z"/>
	<path class="maincolor" d="M2991.9,1298.8l-212.2,0l10.6,23.6c70.1,0,140.9,0,212.2-0.1L2991.9,1298.8z"/>
	<path class="maincolor" d="M2682.4,1298.8l-193,0l10.6,23.7c63.7,0,128.1,0,193,0L2682.4,1298.8z"/>
	<path class="maincolor" d="M2373,1298.9l-173.9,0l10.6,23.7c57.3,0,115.2,0,173.9,0L2373,1298.9z"/>
	<path class="maincolor" d="M2063.5,1298.9l-154.7,0l10.6,23.7c50.8,0,102.4,0,154.7,0L2063.5,1298.9z"/>
	<path class="maincolor" d="M1754,1299l-135.6,0l10.6,23.7c44.5,0,89.7,0,135.6,0L1754,1299z"/>
	<path class="maincolor" d="M1444.6,1299l-116.4,0l10.6,23.7c38.1,0,76.9,0,116.4,0L1444.6,1299z"/>
	<path class="maincolor" d="M1135.1,1299.1l-97.3,0l10.6,23.7c31.7,0,64.2,0,97.3,0L1135.1,1299.1z"/>
	<path class="maincolor" d="M825.6,1299.1l-78.1,0l10.6,23.7c25.3,0,51.3,0,78.1,0L825.6,1299.1z"/>
	<path class="maincolor" d="M516.2,1299.2l-59,0l10.6,23.6c18.8,0,38.5,0,59,0L516.2,1299.2z"/>
	<path class="maincolor" d="M206.7,1299.2l-39.6,0c6.6,17.8,13.9,23.3,50.1,23.5L206.7,1299.2z"/>
</g>
	
<text class="textcolor" transform="matrix(0.9 0 0 1 7803.6274 1204.7087)" style="font-family:'Ford-Bronco-Font-Main-Regular'; font-size:261.7107px; text-anchor: end">
	<tspan x="0" y="0">$textRef</tspan>
</text>
</svg>
