<?xml version="1.0" encoding="utf-8"?>
<!-- Generator: Adobe Illustrator 27.9.1, SVG Export Plug-In . SVG Version: 6.00 Build 0)  -->
<svg class="w" version="1.1" xmlns="http://www.w3.org/2000/svg" xmlns:xlink="http://www.w3.org/1999/xlink" x="0px" y="0px"
	 viewBox="0 0 8575 1388.9" style="enable-background:new 0 0 8575 1388.9;" xml:space="preserve">
     $gradientDefs

 <g>
	<path class="maincolor" d="M896.2,137.7c-38.2,0-74.7,0-109.3,0l67,419c32.1,0,67.5,0,105.8,0c929.3,0.2,3521.2,1.1,5383.6,1.6
		c12,0,22.4-6.3,26.5-17.5l57-154.6c10.6-28.8,44.9-52.2,76.6-52.2h1964.1c11.1,0,20.2-6.3,24.8-16.4
		c24.3-53.6,50.6-106.2,76.6-152.4c12.1-21.4,6.1-27.6-19.2-27.4C8095,141.1,2664.7,138.1,896.2,137.7z"/>
	<path class="maincolor" d="M658.4,137.7l66.9,418c21.4,0.8,44.2,1.1,68.9,1.1c8.9,0,18,0,27.7,0l-67-419
		C720.8,137.7,688.6,137.7,658.4,137.7z"/>
	<path class="maincolor" d="M530,137.7l64.1,400.8c28.2,7.2,56.1,11.6,85.8,14.3l-66.4-415.1C583.3,137.6,555.5,137.7,530,137.7z"/>
	<path class="maincolor" d="M401.2,134.9L457,483.8c2.8,1.4,5.6,2.8,8.3,4.2c24.2,12.3,46.5,22.5,68,30.8l-61-381.1
		C446.6,137.5,423,136.6,401.2,134.9z"/>
	<path class="maincolor" d="M72.6,288.9L27.5,7.2C27.2,7.1,27,7,26.7,6.9C4-4.4-1.7-2.3,0.4,16.9c6.6,59.6,20,148.7,31.8,218.6
		c4.3,25.4,7.1,38,33.5,50.2C67.9,286.7,70.2,287.8,72.6,288.9z"/>
	<path class="maincolor" d="M131.6,55.5l45.6,284.9c15.7,7.9,32.1,16.2,48.8,24.8L179.9,76.8C165.4,70.4,148.8,63.1,131.6,55.5z"/>
	<path class="maincolor" d="M269,111.5l48.1,300.3c21.1,10.9,42.2,21.7,62.9,32.4l-51-318.5C307.1,121.8,287.3,117,269,111.5z"/>
</g>

<text class="textcolor" transform="matrix(0.9002 0 0 1 6548.3076 558.3058)" textLength="2050" lengthAdjust="spacingAndGlyphs" style="font-family:'Ford-Bronco-Font-Main-Regular'; font-size:229.039px;">
	<tspan x="0" y="0">$textRef</tspan>
</text>

<g>
	<path class="maincolor" d="M7678.9,910.8l-63.6,419.1c-929.3,0.2-3521.2,1.1-5383.6,1.6c-12,0-22.4-6.3-26.5-17.5l-57-154.6
		c-10.6-28.8-44.9-52.2-76.6-52.2H107.4c-11.1,0-20.2-6.3-24.8-16.4C58.3,1037.1,32,984.5,6,938.3c-12.1-21.4-6.1-27.6,19.2-27.4
		C480,914.3,5910.3,911.2,7678.9,910.8z"/>
	<path class="maincolor" d="M8502.5,1062l45.1-281.6c0.3-0.1,0.5-0.3,0.8-0.4c22.7-11.3,28.4-9.1,26.3,10c-6.6,59.6-20,148.7-31.8,218.6
		c-4.3,25.4-7.1,38-33.5,50.2C8507.1,1059.8,8504.8,1060.9,8502.5,1062z"/>
	<path class="maincolor" d="M8443.4,828.6l-45.6,284.9c-15.7,7.9-32.1,16.2-48.8,24.8l46.1-288.4C8409.7,843.6,8426.2,836.3,8443.4,828.6z
		"/>
	<path class="maincolor" d="M8306,884.7L8258,1185c-21.1,10.9-42.2,21.7-62.9,32.4l51-318.5C8267.9,895,8287.8,890.2,8306,884.7z"/>
	<path class="maincolor" d="M8173.9,908l-55.8,348.9c-2.8,1.4-5.6,2.8-8.3,4.2c-24.2,12.3-46.5,22.5-68,30.8l61-381.1
		C8128.4,910.7,8152,909.7,8173.9,908z"/>
	<path class="maincolor" d="M8045,910.8l-64.1,400.8c-28.2,7.2-56.1,11.6-85.8,14.3l66.4-415.1C7991.7,910.8,8019.6,910.8,8045,910.8z"/>
	<path class="maincolor" d="M7916.6,910.8l-66.9,418c-21.4,0.8-44.2,1.1-68.9,1.1c-8.9,0-18,0-27.7,0l67-419
		C7854.2,910.8,7886.4,910.8,7916.6,910.8z"/>
	<path class="maincolor" d="M7788.2,910.8l-67,419c-32.1,0-67.5,0-105.8,0l63.6-419.1C7717.1,910.8,7753.6,910.8,7788.2,910.8z"/>
</g>

<text class="textcolor" transform="matrix(0.9002 0 0 1 218.927 1331.6107)" textLength="2050" lengthAdjust="spacingAndGlyphs" style="font-family:'Ford-Bronco-Font-Main-Regular'; font-size:229.039px;">
	<tspan x="0" y="0">$textRef</tspan>
</text>
</svg>
