<?xml version="1.0" encoding="utf-8"?>
<!-- Generator: Adobe Illustrator 27.9.1, SVG Export Plug-In . SVG Version: 6.00 Build 0)  -->
<svg version="1.1" xmlns="http://www.w3.org/2000/svg" xmlns:xlink="http://www.w3.org/1999/xlink" x="0px" y="0px"
	 viewBox="0 0 8587.2 1331.2" style="enable-background:new 0 0 8587.2 1331.2;" xml:space="preserve">
<style type="text/css">
	.maincolor{fill:#BCBDBE;}
</style>

<g>
	<path class="maincolor" d="M3372.3,138.7c-1335.7-0.5-2506-1-2893.2-0.9c-123.1,0-200.2-19-260.7-44.5C182.6,78.2,80.1,33.4,26.8,6.9
		C4-4.4-1.7-2.3,0.4,16.9C7,76.6,20.5,165.8,32.2,235.8c4.3,25.4,7.1,38.1,33.5,50.3c86.1,39.8,267.6,135,400.2,202.6
		c120.3,61.3,196.4,68.8,329.4,68.8c401.5,0.1,1415.4,0.4,2577.1,0.8c57.8,0,116,0,174.5,0.1V138.8
		C3488.4,138.8,3430.2,138.8,3372.3,138.7z"/>
	<path class="maincolor" d="M3597.1,138.8v419.5c56,0,112.3,0,168.9,0.1V138.9C3709.5,138.9,3653.2,138.8,3597.1,138.8z"/>
	<path class="maincolor" d="M3821.9,138.9v419.5c54.2,0,108.7,0,163.2,0V139C3930.6,138.9,3876.2,138.9,3821.9,138.9z"/>
	<path class="maincolor" d="M4046.7,139v419.5c52.4,0,104.9,0,157.6,0V139C4151.7,139,4099.2,139,4046.7,139z"/>
	<path class="maincolor" d="M4271.5,139v419.5c50.6,0,101.3,0,151.9,0V139.1C4372.8,139.1,4322.1,139.1,4271.5,139z"/>
	<path class="maincolor" d="M4496.3,139.1v419.5c48.8,0,97.5,0,146.3,0V139.2C4593.9,139.1,4545.1,139.1,4496.3,139.1z"/>
	<path class="maincolor" d="M4721.1,139.2v419.5c46.9,0,93.8,0,140.6,0V139.2C4814.9,139.2,4768,139.2,4721.1,139.2z"/>
	<path class="maincolor" d="M4945.9,139.2v419.5c45.1,0,90.1,0,135,0V139.3C5036,139.3,4991,139.3,4945.9,139.2z"/>
	<path class="maincolor" d="M5170.7,139.3v419.5c43.2,0,86.4,0,129.3,0V139.3C5257,139.3,5213.9,139.3,5170.7,139.3z"/>
	<path class="maincolor" d="M5395.5,139.3v419.5c41.4,0,82.6,0,123.7,0V139.4C5478.1,139.4,5436.8,139.4,5395.5,139.3z"/>
	<path class="maincolor" d="M5620.3,139.4v419.5c39.6,0,78.9,0,118,0V139.4C5699.1,139.4,5659.8,139.4,5620.3,139.4z"/>
	<path class="maincolor" d="M5845.1,139.4V559c37.7,0,75.1,0,112.4,0V139.4C5920.2,139.4,5882.7,139.4,5845.1,139.4z"/>
	<path class="maincolor" d="M6069.9,139.5V559c35.8,0,71.4,0,106.7,0V139.5C6141.2,139.5,6105.6,139.5,6069.9,139.5z"/>
	<path class="maincolor" d="M6294.6,139.5v419.6c34,0,67.6,0,101.1,0V139.5C6362.3,139.5,6328.6,139.5,6294.6,139.5z"/>
	<path class="maincolor" d="M6519.4,139.5v419.6c32.1,0,63.9,0,95.4,0V139.5C6583.3,139.5,6551.5,139.5,6519.4,139.5z"/>
	<path class="maincolor" d="M6744.2,139.5v419.7c30.2,0,60.2,0,89.8,0V139.5C6804.3,139.5,6774.4,139.5,6744.2,139.5z"/>
	<path class="maincolor" d="M6969,139.5v419.8c28.4,0,56.4,0,84.2,0V139.5C7025.4,139.5,6997.3,139.5,6969,139.5z"/>
	<path class="maincolor" d="M7193.8,139.4v419.8c26.6,0,52.7,0,78.5,0V139.4C7246.4,139.4,7220.3,139.4,7193.8,139.4z"/>
	<path class="maincolor" d="M7418.6,139.4v419.9c24.7,0,49,0,72.9,0v-420C7467.5,139.4,7443.2,139.4,7418.6,139.4z"/>
	<path class="maincolor" d="M7643.4,139.3v420c22.9,0,45.3,0,67.2,0V139.3C7688.5,139.3,7666.1,139.3,7643.4,139.3z"/>
	<path class="maincolor" d="M7868.2,139.2v420.2c21.2,0,41.6,0,61.6,0V139.1C7909.6,139.1,7889.1,139.1,7868.2,139.2z"/>
	<path class="maincolor" d="M8093,139v420.4c19.5,0,38.1,0,55.9,0V138.9C8130.7,138.9,8112.1,138.9,8093,139z"/>
	<path class="maincolor" d="M8317.8,138.7v420.6c19.6,0,36.2,0,49.5,0c0.2,0,0.5,0,0.7,0V138.6C8352.1,138.6,8335.3,138.6,8317.8,138.7z"
		/>
	<path class="maincolor" d="M8542.6,138v100.1c12.7-25.4,25.7-49.8,38.6-72.7c12.1-21.5,6.1-27.7-19.3-27.5
		C8556.2,137.9,8549.8,137.9,8542.6,138z"/>
</g>

<text class="textcolor" transform="matrix(1 0 0 1 747.8298 448.2833)" textLength="2500" lengthAdjust="spacingAndGlyphs" style="font-family:'Ford-Bronco-Font-Main-Regular'; font-size:301.0792px; text-anchor: start;">
	<tspan x="0" y="0">CUSTOM</tspan>
</text>

<g>
	<path class="maincolor" d="M5214.9,1330.1c1161.7-0.4,2175.5-0.7,2577.1-0.8c133,0,209-7.5,329.4-68.8c132.6-67.6,314-162.8,400.2-202.6
		c26.4-12.2,29.3-24.9,33.5-50.3c11.8-69.9,25.2-159.2,31.8-218.9c2.1-19.2-3.6-21.4-26.4-10.1c-53.3,26.5-155.9,71.3-191.6,86.4
		c-60.5,25.6-137.6,44.6-260.7,44.5c-387.2-0.1-1557.6,0.4-2893.2,0.9c-57.9,0-116,0-174.5,0.1l0,419.5
		C5098.9,1330.1,5157.1,1330.1,5214.9,1330.1z"/>
	<path class="maincolor" d="M4990.1,910.6c-56.1,0-112.4,0-168.9,0.1v419.5c56.6,0,112.9,0,168.9-0.1V910.6z"/>
	<path class="maincolor" d="M4765.3,910.7c-54.3,0-108.7,0-163.2,0.1v419.5c54.6,0,109,0,163.2,0V910.7z"/>
	<path class="maincolor" d="M4540.5,910.8c-52.4,0-105,0-157.6,0.1v419.5c52.7,0,105.2,0,157.6,0V910.8z"/>
	<path class="maincolor" d="M4315.7,910.9c-50.6,0-101.3,0-151.9,0v419.5c50.7,0,101.3,0,151.9,0V910.9z"/>
	<path class="maincolor" d="M4090.9,910.9c-48.8,0-97.5,0-146.3,0v419.5c48.7,0,97.5,0,146.3,0V910.9z"/>
	<path class="maincolor" d="M3866.1,911c-46.9,0-93.8,0-140.6,0v419.5c46.8,0,93.7,0,140.6,0V911z"/>
	<path class="maincolor" d="M3641.4,911.1c-45.1,0-90.1,0-135,0v419.5c44.9,0,89.9,0,135,0V911.1z"/>
	<path class="maincolor" d="M3416.6,911.1c-43.2,0-86.3,0-129.3,0v419.5c43,0,86.1,0,129.3,0V911.1z"/>
	<path class="maincolor" d="M3191.8,911.2c-41.4,0-82.6,0-123.7,0v419.5c41.1,0,82.3,0,123.7,0V911.2z"/>
	<path class="maincolor" d="M2967,911.2c-39.5,0-78.9,0-118,0v419.5c39.1,0,78.4,0,118,0V911.2z"/>
	<path class="maincolor" d="M2742.2,911.2c-37.6,0-75.1,0-112.4,0v419.6c37.3,0,74.7,0,112.4,0V911.2z"/>
	<path class="maincolor" d="M2517.4,911.3c-35.8,0-71.4,0-106.7,0v419.6c35.4,0,70.9,0,106.7,0V911.3z"/>
	<path class="maincolor" d="M2292.6,911.3c-33.9,0-67.6,0-101.1,0v419.6c33.5,0,67.1,0,101.1,0V911.3z"/>
	<path class="maincolor" d="M2067.8,911.3c-32,0-63.9,0-95.4,0V1331c31.6,0,63.4,0,95.4,0V911.3z"/>
	<path class="maincolor" d="M1843,911.3c-30.2,0-60.1,0-89.8,0V1331c29.6,0,59.6,0,89.8,0V911.3z"/>
	<path class="maincolor" d="M1618.2,911.3c-28.3,0-56.4,0-84.2,0v419.8c27.7,0,55.8,0,84.2,0V911.3z"/>
	<path class="maincolor" d="M1393.4,911.3c-26.4,0-52.6,0-78.5,0v419.9c25.8,0,52,0,78.5,0V911.3z"/>
	<path class="maincolor" d="M1168.6,911.2c-24.6,0-48.9,0-72.9,0v420c23.9,0,48.1,0,72.9,0V911.2z"/>
	<path class="maincolor" d="M943.8,911.1c-22.7,0-45.1,0-67.2,0v420.1c21.9,0,44.3,0,67.2,0V911.1z"/>
	<path class="maincolor" d="M719.1,911c-20.9,0-41.4,0-61.6,0v420.2c19.9,0,40.4,0,61.6,0V911z"/>
	<path class="maincolor" d="M494.3,910.8c-19.1,0-37.8,0-55.9-0.1v420.4c17.8,0,36.4,0,55.9,0V910.8z"/>
	<path class="maincolor" d="M269.5,910.5c-17.5,0-34.3-0.1-50.3-0.1v420.7c0.2,0,0.5,0,0.7,0c13.4,0,29.9,0,49.5,0V910.5z"/>
	<path class="maincolor" d="M44.7,909.8c-7.2,0-13.7-0.1-19.3-0.1C0,909.5-6,915.7,6.1,937.2c12.9,22.9,25.9,47.4,38.6,72.7V909.8z"/>
</g>

<text class="textcolor" transform="matrix(1 0 0 1 7839.3704 1213.0145)" textLength="2500" lengthAdjust="spacingAndGlyphs" style="font-family:'Ford-Bronco-Font-Main-Regular'; font-size:301.0792px; text-anchor: end;">
	<tspan x="0" y="0">CUSTOM</tspan>
</text>
	
</svg>
