<?xml version="1.0" encoding="utf-8"?>
<!-- Generator: Adobe Illustrator 27.9.1, SVG Export Plug-In . SVG Version: 6.00 Build 0)  -->
<svg class="w" version="1.1" xmlns="http://www.w3.org/2000/svg" xmlns:xlink="http://www.w3.org/1999/xlink" x="0px" y="0px"
	 viewBox="0 0 8566.7 1327.1" style="enable-background:new 0 0 8566.7 1327.1;" xml:space="preserve">
     $gradientDefs

 <g>
	<path class="maincolor" d="M8525.6,208.1l-2502.2,0.8l-5545.2-0.7C375.3,208.5,283,197,190.6,158.3c-32.2-13.5-64.2-27.4-96-41.8
		c-4.2-1.9-9.3,1.9-8.7,6.5c4.8,32.8,10,65.6,15.6,98.3c0.3,2,1.6,3.6,3.4,4.5c65,31.2,129.6,63.4,193.5,96.7l199.7,102.6
		c41.7,22.3,86.2,38.7,132.4,48.8c48.1,10,110.3,11.7,162.6,11.5c0,0,7612.5,0,7617.5,0c2.9,0,5.5-1.6,6.5-4.3
		c30-83.3,71.6-179.2,114.8-262.9C8534.3,213.8,8530.6,208.1,8525.6,208.1z"/>
	<path class="accentcolor" d="M8393.6,520.9l-7600.4,0c-118.8,0.4-199.9-5.8-311.8-64.5c-39.8-20.9-361.7-186.4-402.1-203.5
		c-2.4-1-6.5-2.6-8-5.2c-2.2-5.5-3.7-11.2-4.2-17.1c-9.5-55.6-17.9-111.3-25.3-167.2c-0.6-4.4,4.3-8,8.3-6.1
		c50.9,23.9,102.2,46.7,154,68.5c87.8,36.9,176.3,47.5,273.9,47.2l5545.3,0.7l2528.8-0.8c2.6,0,4.9-1.3,6.2-3.6
		c0.8-1.4,1.6-2.8,2.3-4.2c12.1-21.4,6.1-27.6-19.2-27.4c-231.4,1.8-7511.7-0.2-8063.5,0c-122.8,0-199.8-18.9-260.1-44.4
		C182.2,78,79.9,33.3,26.7,6.9C4-4.4-1.7-2.3,0.4,16.9c6.6,59.6,20,148.6,31.7,218.3c4.3,25.3,7.1,38,33.4,50.2
		c85.9,39.7,266.9,134.7,399.2,202.1c120,61.2,195.9,68.6,328.6,68.6c576,0.1,7287.6,0.3,7553.9,0c37.4,0,44.9-3.8,51.6-21.8
		l1.4-4.1C8401.9,525.6,8398.5,520.9,8393.6,520.9z"/>
</g>

<text class="textcolor" transform="matrix(1 0 0 1 747.8298 448.2833)" style="font-family:'Ford-Bronco-Font-Main-Regular'; font-size:301.0792px; text-anchor: start;">
	<tspan x="0" y="0">CUSTOM</tspan>
</text>

<g>
	<path class="maincolor" d="M41.1,978.9l2502.2,0.8l5545.2-0.7c102.9,0.3,195.2-11.2,287.6-49.9c32.2-13.5,64.2-27.4,96-41.8
		c4.2-1.9,9.3,1.9,8.7,6.5c-4.8,32.8-10,65.6-15.6,98.3c-0.3,2-1.6,3.6-3.4,4.5c-65,31.2-129.6,63.4-193.5,96.7L8068.6,1196
		c-41.7,22.3-86.2,38.7-132.4,48.8c-48.1,10-110.3,11.7-162.6,11.5c0,0-7612.5,0-7617.5,0c-2.9,0-5.5-1.6-6.5-4.3
		c-30-83.3-71.6-179.2-114.8-262.9C32.4,984.6,36,978.9,41.1,978.9z"/>
	<path class="accentcolor" d="M173,1291.7l7600.4,0c118.8,0.4,199.9-5.8,311.8-64.5c39.8-20.9,361.7-186.4,402.1-203.5c2.4-1,6.5-2.6,8-5.2
		c2.2-5.5,3.7-11.2,4.2-17.1c9.5-55.6,17.9-111.3,25.3-167.2c0.6-4.4-4.3-8-8.3-6.1c-50.9,23.9-102.2,46.7-154,68.5
		c-87.8,36.9-176.3,47.5-273.9,47.2l-5545.3,0.7L14.5,943.6c-2.6,0-4.9-1.3-6.2-3.6c-0.8-1.4-1.6-2.8-2.3-4.2
		c-12.1-21.4-6.1-27.6,19.2-27.4c231.4,1.8,7511.7-0.2,8063.5,0c122.8,0,199.8-18.9,260.1-44.4c35.7-15.1,138-59.8,191.1-86.2
		c22.7-11.3,28.4-9.1,26.3,10c-6.6,59.6-20,148.6-31.7,218.3c-4.3,25.3-7.1,38-33.4,50.2c-85.9,39.7-266.9,134.7-399.2,202.1
		c-120,61.2-195.9,68.6-328.6,68.6c-576,0.1-7287.6,0.3-7553.9,0c-37.4,0-44.9-3.8-51.6-21.8l-1.4-4.1
		C164.8,1296.4,168.2,1291.7,173,1291.7z"/>
</g>

<text class="textcolor" transform="matrix(1 0 0 1 7818.8702 1213.0145)" style="font-family:'Ford-Bronco-Font-Main-Regular'; font-size:301.0792px; text-anchor: end;">
	<tspan x="0" y="0">CUSTOM</tspan>
</text>
	
</svg>
