<svg xmlns="http://www.w3.org/2000/svg" viewBox="0 0 465.34 72.55"><defs><style>.cls-1{fill:#121212;fill-rule:evenodd;}</style></defs><title>426HP</title><g id="Layer_2" data-name="Layer 2"><g id="Layer_1-2" data-name="Layer 1"><path class="cls-1" d="M86.38,43.24H75.11V1.1H50.75L0,33.62V58H55.6V72H75.11V58H86.38Zm-30.78,0H15.66L55.6,18.05Z"/><path class="cls-1" d="M180.37,36.55c0-1.77-.06-4-.19-6.73s-.27-5.61-.45-8.66a27.24,27.24,0,0,0-1.56-7.79,15.62,15.62,0,0,0-3.76-6.13,20.82,20.82,0,0,0-5.17-3.76,23.34,23.34,0,0,0-6.42-1.92A71.86,71.86,0,0,0,153.3.73Q147.57.55,137,.55T120.6.73a73.37,73.37,0,0,0-9.58.83,23.54,23.54,0,0,0-6.46,1.92,20.82,20.82,0,0,0-5.17,3.76,16.67,16.67,0,0,0-3.71,6.13,25.7,25.7,0,0,0-1.6,7.79q-.28,4.57-.46,8.66c-.12,2.71-.18,5-.18,6.73s.06,4.11.18,6.82.27,5.58.46,8.57a29.36,29.36,0,0,0,1.65,7.83,15.18,15.18,0,0,0,3.66,6.09,20.82,20.82,0,0,0,5.17,3.76A23.8,23.8,0,0,0,111,71.54a72.67,72.67,0,0,0,9.39.83q5.58.18,16.58.18c7.26,0,12.78-.06,16.53-.18a71.67,71.67,0,0,0,9.39-.83,23.75,23.75,0,0,0,6.37-1.92,20.82,20.82,0,0,0,5.17-3.76,14.77,14.77,0,0,0,3.76-6.09,27.71,27.71,0,0,0,1.56-7.83q.27-4.48.45-8.57C180.31,40.66,180.37,38.38,180.37,36.55Zm-20.71-8.34c.13,1.84.22,3.38.28,4.63s.09,2.46.09,3.62,0,2.27-.09,3.52-.15,2.8-.28,4.63a14.41,14.41,0,0,1-.82,4.12,7.89,7.89,0,0,1-2,3.3,13,13,0,0,1-2.74,2,11,11,0,0,1-3.39,1.05,41.25,41.25,0,0,1-5,.41q-3,.09-8.84.09c-3.9,0-6.87,0-8.88-.09a39.85,39.85,0,0,1-5-.41,11.37,11.37,0,0,1-3.39-1.05,12.55,12.55,0,0,1-2.8-2,8.65,8.65,0,0,1-1.92-3.25,14.15,14.15,0,0,1-.82-4.17c-.13-1.4-.22-2.84-.28-4.3s-.09-2.75-.09-3.85,0-2.48.09-3.94.15-2.9.28-4.31a14.09,14.09,0,0,1,.82-4.16,8.69,8.69,0,0,1,1.92-3.26,13.6,13.6,0,0,1,2.75-2A10.74,10.74,0,0,1,123,17.73a40.14,40.14,0,0,1,5-.42c2-.06,4.93-.09,8.83-.09s6.88,0,8.89.09a37.8,37.8,0,0,1,5,.42,11.08,11.08,0,0,1,3.39,1.05,10.89,10.89,0,0,1,2.7,2,8,8,0,0,1,2,3.3A14.48,14.48,0,0,1,159.66,28.21Z"/><path class="cls-1" d="M273.8,36.55c0-1.77-.06-4-.18-6.73s-.28-5.61-.46-8.66a26.57,26.57,0,0,0-1.56-7.79,15.5,15.5,0,0,0-3.75-6.13,20.86,20.86,0,0,0-5.18-3.76,23.37,23.37,0,0,0-6.41-1.92,71.87,71.87,0,0,0-9.53-.83Q241,.55,230.38.55T214,.73a73,73,0,0,0-9.57.83A23.33,23.33,0,0,0,198,3.48a20.86,20.86,0,0,0-5.18,3.76,16.81,16.81,0,0,0-3.71,6.13,26,26,0,0,0-1.6,7.79q-.27,4.57-.46,8.66c-.12,2.71-.18,5-.18,6.73s.06,4.11.18,6.82.28,5.58.46,8.57a29.36,29.36,0,0,0,1.65,7.83,15.41,15.41,0,0,0,3.66,6.09A20.86,20.86,0,0,0,198,69.62a23.73,23.73,0,0,0,6.41,1.92,73,73,0,0,0,9.39.83q5.59.18,16.58.18t16.54-.18a72,72,0,0,0,9.39-.83,23.67,23.67,0,0,0,6.36-1.92,20.86,20.86,0,0,0,5.18-3.76,14.65,14.65,0,0,0,3.75-6.09,27,27,0,0,0,1.56-7.83c.18-3,.34-5.85.46-8.57S273.8,38.38,273.8,36.55Zm-20.7-8.34c.12,1.84.21,3.38.27,4.63s.1,2.46.1,3.62,0,2.27-.1,3.52-.15,2.8-.27,4.63a14.44,14.44,0,0,1-.83,4.12,7.88,7.88,0,0,1-2,3.3,13,13,0,0,1-2.75,2,10.84,10.84,0,0,1-3.39,1.05,41.06,41.06,0,0,1-5,.41c-2,.06-4.93.09-8.84.09s-6.87,0-8.89-.09a40.19,40.19,0,0,1-5-.41A11.55,11.55,0,0,1,213,54.05a12.5,12.5,0,0,1-2.79-2,8.52,8.52,0,0,1-1.92-3.25,14.17,14.17,0,0,1-.83-4.17c-.12-1.4-.21-2.84-.27-4.3s-.1-2.75-.1-3.85,0-2.48.1-3.94.15-2.9.27-4.31a14.11,14.11,0,0,1,.83-4.16,8.57,8.57,0,0,1,1.92-3.26,13.07,13.07,0,0,1,2.75-2,10.68,10.68,0,0,1,3.43-1.05,40.47,40.47,0,0,1,5-.42c2-.06,4.93-.09,8.84-.09s6.87,0,8.89.09a38.11,38.11,0,0,1,5,.42,10.23,10.23,0,0,1,6.09,3.06,8,8,0,0,1,2,3.3A14.51,14.51,0,0,1,253.1,28.21Z"/><polygon class="cls-1" points="351.48 45.16 351.48 72 373.92 72 373.92 0 351.48 0 351.48 25.92 303.48 25.92 303.48 0 281.04 0 281.04 72 303.48 72 303.48 45.16 351.48 45.16"/><path class="cls-1" d="M442.53,49q12.47,0,17.64-6.46t5.17-20.11a32.7,32.7,0,0,0-1.55-10.9A14.79,14.79,0,0,0,459,4.72a20.44,20.44,0,0,0-8.29-3.62A60.42,60.42,0,0,0,438.14,0h-57.8V72h22.44V18.05h33.43a8.87,8.87,0,0,1,5.77,2.1,7,7,0,0,1,2.75,5.13,6.93,6.93,0,0,1-2.65,5.82,9.76,9.76,0,0,1-6.14,2.06H405.89L423.57,49Z"/></g></g></svg>