<svg xmlns="http://www.w3.org/2000/svg" viewBox="0 0 510.69 72.55"><defs><style>.cls-1,.cls-2{fill:#121212;}.cls-1{fill-rule:evenodd;}</style></defs><title>6_2L-V8</title><g id="Layer_2" data-name="Layer 2"><g id="Layer_1-2" data-name="Layer 1"><path class="cls-1" d="M56,43.05h.09a9.25,9.25,0,0,1,5.77,2,5.9,5.9,0,0,1,2.57,4.81,5.78,5.78,0,0,1-2.66,5.09,10.6,10.6,0,0,1-6.05,1.78H28.4a10.6,10.6,0,0,1-6-1.78,5.78,5.78,0,0,1-2.66-5.09A6.2,6.2,0,0,1,22.35,45a9.12,9.12,0,0,1,5.68-2H56ZM20.52,27a20,20,0,0,1,.64-5.77,5.2,5.2,0,0,1,2.06-2.93,8.24,8.24,0,0,1,3.67-1.14C28.38,17,30.6,17,33.53,17H64.76L80.61,17V.46H27.11a54.23,54.23,0,0,0-11.72,1.1A21.61,21.61,0,0,0,7,5.22a16,16,0,0,0-5.22,6.92A28.72,28.72,0,0,0,0,23v28.4a27.94,27.94,0,0,0,1.24,8.2,11.27,11.27,0,0,0,3.8,6,32.63,32.63,0,0,0,5.59,3.66,23.59,23.59,0,0,0,6.22,2,70.07,70.07,0,0,0,9.3,1q5.64.28,15.44.28h.09q10,0,15.94-.19a81.31,81.31,0,0,0,9.71-.77,24.18,24.18,0,0,0,6.23-1.74,18.6,18.6,0,0,0,4.67-3.16,12.5,12.5,0,0,0,3.48-6.33,47.33,47.33,0,0,0,1-11h.09A42.12,42.12,0,0,0,81.57,38.2c-.82-3-1.94-5-3.34-6.14a17.76,17.76,0,0,0-4.63-2.61,30.4,30.4,0,0,0-6.5-1.51A96.2,96.2,0,0,0,57,27.21Q50.93,27,41.22,27Z"/><rect class="cls-2" x="90.69" y="52.76" width="20.89" height="19.24"/><path class="cls-1" d="M200.61,36.09q1.92-4.31,1.92-13.65a51.67,51.67,0,0,0-.77-9.8,13.73,13.73,0,0,0-3.26-6.59,15.68,15.68,0,0,0-7.37-4.22,46.53,46.53,0,0,0-13-1.46h-56.8v16.3h50.11a52.6,52.6,0,0,1,5.68.37,7.87,7.87,0,0,1,3.11,1,3.54,3.54,0,0,1,1.52,2.11,15.13,15.13,0,0,1,.41,4q0,4.31-3.12,5.54t-11,1.61c-.85.06-2.67.16-5.45.32s-5.48.32-8.11.5l-10.16.69c-4.16.27-7.24.5-9.26.69a20.11,20.11,0,0,0-9.61,2.74,17.1,17.1,0,0,0-3.94,3.94A29.87,29.87,0,0,0,120,43.24a13.43,13.43,0,0,0-.77,2.52,20.47,20.47,0,0,0-.37,3.29q-.09,2-.09,6.1L118.63,72h84.09V55.79H138.6q0-4.86,2.19-6.23a7.31,7.31,0,0,1,2.61-.87c1-.16,2.68-.32,5-.51s3.87-.24,5-.36q3.28-.28,8.33-.64,8.79-.65,13.65-1.06t8.61-.78a33.27,33.27,0,0,0,9.11-1.69,11.4,11.4,0,0,0,5.64-4.26l1-1.65a3,3,0,0,0,.45-.82C200.43,36.49,200.55,36.21,200.61,36.09Z"/><polygon class="cls-1" points="232.4 54.59 232.4 0 209.95 0 209.95 72 211.24 72 233.95 72 281.04 72 281.04 54.59 232.4 54.59"/><polygon class="cls-1" points="364.95 53.95 336.18 0 311.27 0 350.47 71.72 379.14 71.72 418.63 0 393.71 0 364.95 53.95"/><path class="cls-1" d="M481,42.78a9.59,9.59,0,0,1,5.91,2.06,6.37,6.37,0,0,1,2.79,5A6.24,6.24,0,0,1,487,55.24a10.61,10.61,0,0,1-6.23,1.92H454.17A10.45,10.45,0,0,1,448,55.24a6.27,6.27,0,0,1-2.7-5.41,6.11,6.11,0,0,1,2.7-5,9.59,9.59,0,0,1,5.91-2.06ZM454.81,29.5A9.6,9.6,0,0,1,449,27.57a5.92,5.92,0,0,1-2.7-4.67,5.71,5.71,0,0,1,2.7-5.13A11,11,0,0,1,455.08,16h25.65a11,11,0,0,1,6.09,1.74,5.7,5.7,0,0,1,2.71,5.13,5.93,5.93,0,0,1-2.71,4.67,9.44,9.44,0,0,1-5.72,1.93H454.81Zm43.33,5.77a21.58,21.58,0,0,0,6.64-2.38,11.72,11.72,0,0,0,3.85-3.44,11.24,11.24,0,0,0,1.64-3.71,17.57,17.57,0,0,0,.42-3.94V20.52a48.06,48.06,0,0,0-.32-6,19,19,0,0,0-.87-3.93,10.56,10.56,0,0,0-1.24-2.43,26.11,26.11,0,0,0-2-2.34l-.09-.18a17.56,17.56,0,0,0-4.81-3.16,25.44,25.44,0,0,0-6.64-1.7,92.3,92.3,0,0,0-9.9-.68Q479,0,467.82,0T450.87.14A91.9,91.9,0,0,0,441,.82a25.44,25.44,0,0,0-6.64,1.7,17.41,17.41,0,0,0-4.81,3.16,20.88,20.88,0,0,0-1.84,2.2,11.54,11.54,0,0,0-1.23,2.47,18.17,18.17,0,0,0-.92,4,49.83,49.83,0,0,0-.32,6.14,23.34,23.34,0,0,0,.37,4.17,12.13,12.13,0,0,0,1.6,4.12,12.46,12.46,0,0,0,3.85,3.8,18.67,18.67,0,0,0,6.73,2.57c.37.18.55.39.55.64s-.18.3-.55.36a18.23,18.23,0,0,0-6.69,2.57,12.65,12.65,0,0,0-3.84,3.85,11.9,11.9,0,0,0-1.65,4.16,23.34,23.34,0,0,0-.37,4.17q0,4.13.18,6.64a21.18,21.18,0,0,0,.69,4.22,11,11,0,0,0,1.28,2.88,11.38,11.38,0,0,0,2.16,2.38,15.66,15.66,0,0,0,4.81,3.07A28.56,28.56,0,0,0,441,71.73a92.29,92.29,0,0,0,9.76.68q5.67.14,17.13.14t17.22-.14a95,95,0,0,0,9.71-.64,26,26,0,0,0,6.6-1.6,15.22,15.22,0,0,0,4.76-3.12,17.27,17.27,0,0,0,2.2-2.42,9.56,9.56,0,0,0,1.33-2.89,23.4,23.4,0,0,0,.73-4.3q.23-2.56.23-6.6a24.3,24.3,0,0,0-.37-4.17,12,12,0,0,0-1.65-4.17,12.36,12.36,0,0,0-3.85-3.8,18.73,18.73,0,0,0-6.68-2.52c-.49-.12-.74-.24-.74-.36s.11-.25.33-.37A1.23,1.23,0,0,1,498.14,35.27Z"/></g></g></svg>