<svg xmlns="http://www.w3.org/2000/svg" viewBox="0 0 288 144"><defs><style>.cls-1{fill-rule:evenodd;}</style></defs><title>Camaro-Script</title><g id="Layer_2" data-name="Layer 2"><g id="Layer_1-2" data-name="Layer 1"><path class="cls-1" d="M53.85,53.91q.93-10.24.93-20.55c0-7.85-.6-19.92-4.39-27.18A11.92,11.92,0,0,0,38.63.05,20.63,20.63,0,0,0,28.05,4.6,49.49,49.49,0,0,0,17,16.83l-1.91,3.4A200.05,200.05,0,0,0,6,45.44,152.76,152.76,0,0,0,.41,75.61C-1,92.14,1,109.38,8.61,124.2c4.63,9,13.2,18.39,23.78,19.67,10.28,1.25,20.52-6.84,26.24-15.45.32,1.13.68,2.25,1.08,3.35A19.55,19.55,0,0,0,66,139.23c3,2.07,6.63,1.41,9.28-.74a17.09,17.09,0,0,0,2.5-2.46,35.34,35.34,0,0,0,5.13-8.72c1,3.24,3.79,11.33,9,9.52a8.08,8.08,0,0,0,3.92-3,26.65,26.65,0,0,0,2.56-3.89,79.62,79.62,0,0,0,4.84-11.32q.34,9.64.32,19.3l8.54,3.51a82,82,0,0,1-.55-12.63c.27-7.11,1.11-21.66,3.66-29.6.49-1.53,3-7.75,4.87-9.06a2.25,2.25,0,0,1,.61.88,21.14,21.14,0,0,1,1.23,4.57q.59,3.94,1,7.91,1.5,17,2,34.1l6.42,3.92c-.18-10.29.51-43.92,10.41-53.35l.21,1a29.73,29.73,0,0,1-.11,5.66l.43,21.31c.13,7.81,2.37,21.42,12.89,21.61,4.16.07,7.24-1.35,10.73-3.7,4.58,5.73,11.19,9,16.64,2.12a25.41,25.41,0,0,0,4.36-8.5l.08-.19a37.43,37.43,0,0,0,3.27,5.62c0,.05,2,2.06,2.14,2.15a9.08,9.08,0,0,0,9.77-1,18.51,18.51,0,0,0,5.15-7,67.91,67.91,0,0,0,4.6-15.06,167,167,0,0,0,2.74-22.63l0-1.7a14.42,14.42,0,0,1,4.44.46l1,.45c.08,0,.64.48.62.73l-1.32,8.92q-1.41,13.17-1.9,26.4l.37,2.85a23.52,23.52,0,0,0,4.28,9A7.27,7.27,0,0,0,230.7,139c3.45-1.41,6.87-4.88,9.05-8.08,1.57,4.62,4,9.46,8.44,11.79a8.1,8.1,0,0,0,5.41.87l1.57-.72c6.93-2.95,10.75-9,12.72-16.12a53.5,53.5,0,0,0,1.9-16.32l.07-1.58a21.21,21.21,0,0,0,13.39-4c1.05-.77,3.92-3,4.35-4.54a25.93,25.93,0,0,0,.26-7.12c-.23-1.12-1.36-2.4-2.64-1.79l-.72.49a17.35,17.35,0,0,0-1.65,3,9.79,9.79,0,0,1-4.16,4.53,22.32,22.32,0,0,1-8.47,2.63l-.58-.26a36.92,36.92,0,0,0-1.88-10c-1.26-3.87-4.36-9.55-8.7-11a4.3,4.3,0,0,0-4.9,1.63l-2.1,2.69a15,15,0,0,0-.86,6.61c.61,6.24,5.49,11,10.61,13.84l1,.57a113.52,113.52,0,0,1-2.11,19.54c-.4,2.07-2.58,11.42-7.25,10.26a6.38,6.38,0,0,1-1.71-.71,19.71,19.71,0,0,1-5.27-5.23l-.52-1.42a60.33,60.33,0,0,1-1.5-11.12,55.18,55.18,0,0,1,.25-8,48.53,48.53,0,0,1,6.37-19.93l-5-3.52-1.76,1.53.11.25c-2.5,4.58-4.89,18.38-6,24.61q-.78,4.11-1.81,8.16a27.32,27.32,0,0,1-3.85,8.89c-.85,1.25-2.54,2.67-4.14,1.84-2-1-3.69-4.23-4.23-6.69a24.82,24.82,0,0,1-.43-6.08c.09-2.24.26-4.48.51-6.7q1.14-8.33,2.71-16.58l.48-2.76.17-1.59a16.83,16.83,0,0,1,1.05-3.37,3.83,3.83,0,0,0-1.89-5A28.61,28.61,0,0,0,219.46,80L217,79.93c-1.45-.06-2.85-.74-2.75-2.34l.21-4.54-1-1-6.67.43A46.08,46.08,0,0,1,208,86.4q-.45,11.63-1.92,23.19a77.14,77.14,0,0,1-2.61,10l0,.08a23.13,23.13,0,0,1-3.94,7.89c-.9,1.14-2.25,1.55-3.33.38-3.28-3.55-4.15-8.93-4.36-13.58q-.57-14.14-.18-28.31l.58-6.22a16,16,0,0,1-5.07-2.24,22.73,22.73,0,0,0-2.46-.84,17.21,17.21,0,0,0-11.63,4.09,22.39,22.39,0,0,0-5.75,7.87,43.16,43.16,0,0,0-2.75,8,67.75,67.75,0,0,0-1.29,6.91,99.48,99.48,0,0,0-.49,20.77c0,.15.72,3.33.77,3.54-5.42,3.76-9.54,3.37-12.13-2.69-2-4.61-2.81-10.48-3.16-15.47a171.92,171.92,0,0,1,.4-26.17l0,.16.36-2.8a2.87,2.87,0,0,0-.37-1.89,2,2,0,0,0-1.49-.8l-.49.11a23.4,23.4,0,0,0-6.87,4,27.14,27.14,0,0,0-4.12,4.38,38.24,38.24,0,0,0-6.06,12.33,98.28,98.28,0,0,0-3.17-18l-2-.6a10.78,10.78,0,0,0-6.56,2.35h0c-4.33,3.48-6.9,9.3-8.65,14.47q.49-9.06,1.47-18.07l-7.56.28-2.6.93a35.55,35.55,0,0,1,.55,6.09,142.39,142.39,0,0,1-2.47,21.41q-1.27,5-2.77,10A32.75,32.75,0,0,1,92,126.53a3.41,3.41,0,0,1-1.34,1.21c-.91.28-2.17-3.13-2.4-3.91-.42-1.37-.78-2.77-1.08-4.18a42.44,42.44,0,0,1-.64-6.36c-.2-15.29.58-16.35,1.62-29.59l.12-2.65-1-1-1.93.15L85,80.16a1.49,1.49,0,0,0-.56-.84L83,78.24C79.84,76.11,75.32,77,72.2,79c-9.78,6.41-14.14,20.39-14.48,32-.31,10.51-6.79,20.54-16.26,24.55a16.87,16.87,0,0,1-13.4-.22c-4.43-2-8.43-6.18-11.06-10.53-3.68-6.06-6-14.7-6.92-22.19-2.63-20.87.25-48.54,6.65-69.06q1.36-4.3,3.06-8.49A42.52,42.52,0,0,1,24.72,16C27.13,12.7,30.87,8.79,35,7.39A7.47,7.47,0,0,1,43.32,10l.77,1.57c3.36,7.77,4.42,19.71,4.23,28.24a170.53,170.53,0,0,1-6.5,41.88l6.9,1.92a30.44,30.44,0,0,0,1.8-5.75h0A213.77,213.77,0,0,0,53.85,53.91ZM79.82,83l.9,1.16-1.11,24.36a76.63,76.63,0,0,1-2.58,17,16.28,16.28,0,0,1-3.31,6.44c-1.77,2-4.37,1.24-6.1-.21a9.85,9.85,0,0,1-1.91-2.08c-.48-1-.95-2.06-1.38-3.11-2.18-6,0-18.42,1.73-25.74C67.22,95.81,70,85.55,76,83.13A5.55,5.55,0,0,1,79.82,83Zm104.46-.82.88,1.17-1.11,24.54a75.15,75.15,0,0,1-2.66,17.07c-.77,2.83-3,7.64-6.09,7.75a6,6,0,0,1-4.68-2.83l0-.46a9.41,9.41,0,0,0-.5-1.69,33.22,33.22,0,0,1-1.53-13.64,94.33,94.33,0,0,1,2.19-14c1.1-4.82,3.84-15.29,9.77-17.75A5.39,5.39,0,0,1,184.28,82.14Zm74.59,7.48c1.81,2.74,2.85,7.48,3.23,9.62-2.25-1.26-3.59-4.86-4.27-7.44a13.58,13.58,0,0,1-.51-3v-.09A6.53,6.53,0,0,1,258.87,89.62Z"/></g></g></svg>