<svg xmlns="http://www.w3.org/2000/svg" viewBox="0 0 1165.8 52.66"><defs><style>.cls-1,.cls-2,.cls-3{fill-rule:evenodd;}.cls-2{fill:#121212;}.cls-3{fill:none;}</style></defs><title>Camaro-LS3</title><g id="Layer_2" data-name="Layer 2"><g id="Layer_1-2" data-name="Layer 1"><path class="cls-1" d="M-8293.33-4520v29.74a3.6,3.6,0,0,0,3.6,3.6h17.42a3.6,3.6,0,0,0,3.6-3.6V-4520h27.61v29.74a3.6,3.6,0,0,0,3.6,3.6h21.6a3.6,3.6,0,0,0,3.6-3.6v-36.94a3.6,3.6,0,0,0-3.6-3.6h-133v1.27a3.56,3.56,0,0,0-.86,2.33v36.94a3.6,3.6,0,0,0,3.6,3.6h21.6a3.6,3.6,0,0,0,3.6-3.6V-4520Z" transform="translate(8605 4539.25)"/><path class="cls-1" d="M-8576.2-4486.69h70.86a3.6,3.6,0,0,0,3.6-3.6v-3.6a3.6,3.6,0,0,0-3.6-3.6h-70.86V-4520h70.86a3.6,3.6,0,0,0,3.6-3.6v-3.6a3.6,3.6,0,0,0-3.6-3.6h-96.06a3.6,3.6,0,0,0-3.6,3.6v36.94a3.6,3.6,0,0,0,3.6,3.6h25.2Z" transform="translate(8605 4539.25)"/><path class="cls-1" d="M-7825.93-4486.69h3.44a3.6,3.6,0,0,0,3.6-3.6v-36.94a3.6,3.6,0,0,0-3.6-3.6h-98a3.6,3.6,0,0,0-3.6,3.6v36.94a3.6,3.6,0,0,0,3.6,3.6h94.55Zm-21.76-33.34v22.54h-47.59V-4520Z" transform="translate(8605 4539.25)"/><path class="cls-1" d="M-7991.8-4500.66l18.86,13.31a3.46,3.46,0,0,0,2.08.66h23.55a3.6,3.6,0,0,0,2.07-6.55l-11.17-7.88h5.39a3.6,3.6,0,0,0,3.6-3.6v-22.51a3.6,3.6,0,0,0-3.6-3.6h-101a3.6,3.6,0,0,0-3.6,3.6v36.94a3.6,3.6,0,0,0,3.6,3.6h21.6a3.6,3.6,0,0,0,3.6-3.6v-10.37Zm17.64-19.37v8.57h-52.68V-4520Z" transform="translate(8605 4539.25)"/><path class="cls-1" d="M-8180.51-4530.83h-5.64a3.6,3.6,0,0,0-3.6,3.6v36.94a3.6,3.6,0,0,0,3.6,3.6h21.6a3.6,3.6,0,0,0,3.6-3.6v-10.37h54v10.37a3.6,3.6,0,0,0,3.6,3.6h21.6a3.6,3.6,0,0,0,3.6-3.6v-36.94a3.6,3.6,0,0,0-3.6-3.6h-98.72Zm19.56,19.37V-4520h54v8.57Z" transform="translate(8605 4539.25)"/><path class="cls-1" d="M-8476.91-4530.83h-4.61a3.6,3.6,0,0,0-3.6,3.6v36.94a3.6,3.6,0,0,0,3.6,3.6h21.6a3.6,3.6,0,0,0,3.6-3.6v-10.37h53.11v10.37a3.6,3.6,0,0,0,3.6,3.6h21.6a3.61,3.61,0,0,0,3.6-3.6v-36.94a3.6,3.6,0,0,0-3.6-3.6h-98.9Zm20.59,19.37V-4520h53.11v8.57Z" transform="translate(8605 4539.25)"/><path class="cls-2" d="M-7564.83-4498.75l0,.14a15.49,15.49,0,0,0,1,3.34c2.08,4.39,7.77,7.22,12.39,7.83q6.45.73,12.95.84h37.75q8,0,16.07-.67a48.36,48.36,0,0,0,10.75-2.48,35,35,0,0,0,11.59-6.1,4.52,4.52,0,0,0,.72-.73l21-27.06a4.92,4.92,0,0,0,.37-.56c2.68-4.86-.56-9.72-4.85-11.66-6.43-2.89-16.32-3.42-24-3.39h-38.35c-7.86,0-24.5.28-32.61,5.58a4.33,4.33,0,0,0-2.88-5.39,4.14,4.14,0,0,0-1.26-.19H-7610c-5.35,0-10.69.22-16,.66-7.9.56-17.3,2.6-22.87,9l-8.77,10.82c-2.58,3.2-3.14,7.86.42,10.41,2.51,1.79,5.43,1.91,8.37,2h57.24l-3.1,4.12a1.61,1.61,0,0,1-.55.39,16.7,16.7,0,0,1-5.75.79l-65.23-.09a4.31,4.31,0,0,0-2.9,1.12l-3.07,2.77a4.33,4.33,0,0,0-4.3-3.89h-68.63l18.3-22.59,6.48-8.64a4.32,4.32,0,0,0-.86-6.05,4.34,4.34,0,0,0-2.6-.86h-21.09a4.31,4.31,0,0,0-3.4,1.66l-27.6,35.37a7.12,7.12,0,0,0-1.22,5.1,9.74,9.74,0,0,0,5.55,7.06c6,3,16.59,3.49,24.13,3.46h65.15a4.32,4.32,0,0,0,3.07-1.28l2.23-2.26a4.32,4.32,0,0,0,4.25,3.54h69.42c8.07,0,17.79-.39,25.84-2.65a27.34,27.34,0,0,0,5.29-2.09,13.62,13.62,0,0,0,5.67-5.15Zm20-29a4.32,4.32,0,0,0,3.48,5,5,5,0,0,0,.77.07H-7519a4.36,4.36,0,0,0,2.67-.92,5,5,0,0,1,2.39-1c1.52-.25,3.05-.42,4.59-.52h38.29l-4.47,5.54h-52.21a4.32,4.32,0,0,0-3.31,1.55l-5,6a4.31,4.31,0,0,0,.55,6.08,4.29,4.29,0,0,0,2.77,1h45.5l-1.44,1.65a31.27,31.27,0,0,1-12,1.93h-29.86c-2.17-.14-4.92-.37-6.71-1.81a4.29,4.29,0,0,0-2.71-1h-20.83l3.56-4.71c2.7-3.4,3.19-8.26-1.24-10.63-2.7-1.45-5.54-1.53-8.5-1.61h-56.39l1.55-1.79a23.18,23.18,0,0,1,11.41-2l61,0C-7547.15-4524.74-7546.15-4526.25-7544.83-4527.71Zm-46.71,28.48,8.59-11.41h-65.64l-3.19-.2a6.17,6.17,0,0,1-2.91-1c-1.5-1-.44-3.14.41-4.19l8.57-10.6c4.85-5.59,13.24-7.18,20-7.66q7.83-.66,15.71-.65h65.87l-5.32,5.87h-60.66a27.38,27.38,0,0,0-14.43,2.77l-8.36,9.62h65.64l3.44.17a8.44,8.44,0,0,1,3.22.91c1.83,1,.95,2.89-.06,4.13l-9.47,12.55a9.24,9.24,0,0,1-4,3.71c-7.78,3.89-20.93,4.32-29.18,4.28h-69.43l6.5-5.87,65.07.08a21,21,0,0,0,7.3-1A6.2,6.2,0,0,0-7591.54-4499.23Zm60.8,2.28h29.86a35.64,35.64,0,0,0,14.71-2.61l8.35-9.62h-55l5-6h54.27l9.55-11.81a1.2,1.2,0,0,0-.61-1.52,13.83,13.83,0,0,0-5.11-.85h-39.81a34.49,34.49,0,0,0-5.07.56,9.27,9.27,0,0,0-4.48,1.89h-21.56a9.3,9.3,0,0,1,4-3.71c7.78-3.89,20.93-4.31,29.17-4.28H-7469c6.91,0,16.61.42,22.19,3,1.84.86,4.33,3.39,2.85,5.63l-21,27.06c-4.3,4.36-16.59,7.26-20,7.66q-7.84.66-15.71.65h-37.68q-6.28-.1-12.54-.81c-3.26-.5-8-2.87-9-5.55l-.64-2.44H-7540C-7539.66-4499.44-7537.48-4497.23-7530.74-4496.95Zm-193.08-38-6.48,8.64-22.05,27.22c0,2.19,4.51,2.28,5.46,2.28h70.38l-5.79,5.87h-65.17c-6.77,0-16.95-.42-22.19-3-1.76-.88-4.33-3.38-2.85-5.63l27.6-35.37Z" transform="translate(8605 4539.25)"/><path class="cls-3" d="M-7723.82-4534.93l-6.48,8.64-22.05,27.22q0,2.11,5.46,2.28l40,.08,30.43-.08-5.79,5.87h-65.17q-21,0-24.52-4.89a3.33,3.33,0,0,1-.52-3.75l21-27.06,6.56-8.31h21.09Z" transform="translate(8605 4539.25)"/><path class="cls-3" d="M-7591.54-4499.23l8.59-11.41h-65.64q-9.72,0-5.69-5.38l8.57-10.6q5.82-6.68,20-7.66,7.65-.65,15.71-.65h65.87l-5.32,5.87h-60.66q-8.85-.33-14.43,2.77l-8.36,9.62h65.64q10.66,0,6.6,5.21l-7.17,9.62-2.3,2.93q-4.17,8-33.2,8h-69.43l6.5-5.87h25.12l39.95.08c4.81-.05,7.89-.78,9.26-2.2Z" transform="translate(8605 4539.25)"/><path class="cls-3" d="M-7530.74-4496.95h29.86q9,0,14.71-2.61l8.35-9.62h-55l5-6h54.27l9.38-11.57.17-.24a1.19,1.19,0,0,0,0-.82q-.37-1.38-5.74-1.55h-39.81q-7.26.33-9.55,2.45h-21.56q4.17-8,33.19-8H-7469q21,0,24.52,4.89a3.31,3.31,0,0,1,.52,3.75l-21,27.06q-6.59,5.53-20,7.66-7.65.64-15.71.65h-37.68c-4.77-.11-8.94-.38-12.54-.81q-7-1.47-9-5.55l-.64-2.44H-7540C-7538.15-4498.09-7535.07-4497.17-7530.74-4496.95Z" transform="translate(8605 4539.25)"/></g></g></svg>