<svg xmlns="http://www.w3.org/2000/svg" viewBox="0 0 263.35 123.43"><defs><style>.cls-1{fill:#121212;fill-rule:evenodd;}</style></defs><title>Camaro Shield</title><g id="Layer_2" data-name="Layer 2"><g id="Layer_1-2" data-name="Layer 1"><path class="cls-1" d="M2,0H261.31a2,2,0,0,1,2,2V95.57a3.21,3.21,0,0,1-2.64,3.19L132.29,123.37a3.18,3.18,0,0,1-1.23,0L2.64,98.76A3.21,3.21,0,0,1,0,95.57V2A2,2,0,0,1,2,0ZM162,31.35V112l51.2-9.76V31.35ZM156.26,113V31.35H107.09V113l24.58,4.69ZM101.4,112V31.35H50.2V102.2Zm5.9-99.84v8.63a1.05,1.05,0,0,0,1.08,1h5.22a1.05,1.05,0,0,0,1.07-1V12.12h8.27v8.63a1.06,1.06,0,0,0,1.08,1h6.47a1.05,1.05,0,0,0,1.08-1V10a1.06,1.06,0,0,0-1.08-1H90.66v.37a1,1,0,0,0-.26.68V20.75a1.06,1.06,0,0,0,1.08,1H98a1.05,1.05,0,0,0,1.08-1V12.12ZM22.58,21.79H43.8a1.05,1.05,0,0,0,1.08-1V19.7a1.06,1.06,0,0,0-1.08-1H22.58V12.12H43.8a1.06,1.06,0,0,0,1.08-1V10A1.06,1.06,0,0,0,43.8,9H15A1.07,1.07,0,0,0,14,10V20.75a1.06,1.06,0,0,0,1.08,1h7.55Zm224.71,0h1a1.06,1.06,0,0,0,1.08-1V10a1.07,1.07,0,0,0-1.08-1H219a1.06,1.06,0,0,0-1.08,1V20.75a1.05,1.05,0,0,0,1.08,1h28.32Zm-6.52-9.67v6.54H226.52V12.12Zm-43.16,5.62,5.65,3.86a1.06,1.06,0,0,0,.62.19h7.05a1,1,0,0,0,.62-1.89l-3.34-2.29h1.61a1.06,1.06,0,0,0,1.08-1.05V10a1.06,1.06,0,0,0-1.08-1H179.57a1.06,1.06,0,0,0-1.08,1V20.75a1.05,1.05,0,0,0,1.08,1H186a1.05,1.05,0,0,0,1.07-1v-3Zm5.28-5.62V14.6H187.11V12.12ZM141.09,9H139.4a1.07,1.07,0,0,0-1.08,1V20.75a1.06,1.06,0,0,0,1.08,1h6.47a1.05,1.05,0,0,0,1.08-1v-3h16.16v3a1.05,1.05,0,0,0,1.08,1h6.47a1.05,1.05,0,0,0,1.07-1V10a1.06,1.06,0,0,0-1.07-1H141.09ZM147,14.6V12.12h16.16V14.6ZM52.32,9H50.94a1.06,1.06,0,0,0-1.08,1V20.75a1.05,1.05,0,0,0,1.08,1H57.4a1.05,1.05,0,0,0,1.08-1v-3H74.39v3a1.05,1.05,0,0,0,1.08,1h6.47a1.05,1.05,0,0,0,1.07-1V10a1.06,1.06,0,0,0-1.07-1H52.32Zm6.16,5.62V12.12H74.39V14.6Z"/></g></g></svg>