<svg xmlns="http://www.w3.org/2000/svg" viewBox="0 0 1120.03 52.65"><defs><style>.cls-1,.cls-2,.cls-3{fill-rule:evenodd;}.cls-2{fill:#121212;}.cls-3{fill:none;}</style></defs><title>Camaro-LT1</title><g id="Layer_2" data-name="Layer 2"><g id="Layer_1-2" data-name="Layer 1"><path class="cls-1" d="M311.67,19.22V49a3.6,3.6,0,0,0,3.6,3.6h17.42a3.6,3.6,0,0,0,3.6-3.6V19.22H363.9V49a3.6,3.6,0,0,0,3.6,3.6h21.6a3.6,3.6,0,0,0,3.6-3.6V12a3.6,3.6,0,0,0-3.6-3.6h-133V9.69a3.56,3.56,0,0,0-.86,2.33V49a3.6,3.6,0,0,0,3.6,3.6h21.6a3.6,3.6,0,0,0,3.6-3.6V19.22Z"/><path class="cls-1" d="M28.8,52.55H99.66a3.6,3.6,0,0,0,3.6-3.6V45.36a3.6,3.6,0,0,0-3.6-3.6H28.8V19.22H99.66a3.6,3.6,0,0,0,3.6-3.6V12a3.6,3.6,0,0,0-3.6-3.6H3.6A3.6,3.6,0,0,0,0,12V49a3.6,3.6,0,0,0,3.6,3.6H28.8Z"/><path class="cls-1" d="M779.07,52.55h3.44a3.6,3.6,0,0,0,3.6-3.6V12a3.6,3.6,0,0,0-3.6-3.6h-98a3.6,3.6,0,0,0-3.6,3.6V49a3.6,3.6,0,0,0,3.6,3.6h94.55ZM757.31,19.22V41.76H709.72V19.22Z"/><path class="cls-1" d="M613.2,38.59,632.06,51.9a3.45,3.45,0,0,0,2.08.65h23.55A3.6,3.6,0,0,0,659.76,46l-11.17-7.88H654a3.6,3.6,0,0,0,3.6-3.6V12a3.6,3.6,0,0,0-3.6-3.6H553a3.6,3.6,0,0,0-3.6,3.6V49a3.6,3.6,0,0,0,3.6,3.6h21.6a3.6,3.6,0,0,0,3.6-3.6V38.59Zm17.64-19.37v8.57H578.16V19.22Z"/><path class="cls-1" d="M424.49,8.42h-5.64a3.6,3.6,0,0,0-3.6,3.6V49a3.6,3.6,0,0,0,3.6,3.6h21.6a3.6,3.6,0,0,0,3.6-3.6V38.59h54V49a3.6,3.6,0,0,0,3.6,3.6h21.6a3.6,3.6,0,0,0,3.6-3.6V12a3.6,3.6,0,0,0-3.6-3.6H424.49Zm19.56,19.37V19.22h54v8.57Z"/><path class="cls-1" d="M128.09,8.42h-4.61a3.6,3.6,0,0,0-3.6,3.6V49a3.6,3.6,0,0,0,3.6,3.6h21.6a3.6,3.6,0,0,0,3.6-3.6V38.59h53.11V49a3.6,3.6,0,0,0,3.6,3.6H227a3.6,3.6,0,0,0,3.6-3.6V12a3.6,3.6,0,0,0-3.6-3.6h-98.9Zm20.59,19.37V19.22h53.11v8.57Z"/><path class="cls-2" d="M993.76,14.51,969.48,45.68a4.32,4.32,0,0,0,3.41,7H992.8A4.33,4.33,0,0,0,996.17,51l29.13-36.52h33.46A4.34,4.34,0,0,0,1062,13l5.08-5.87A4.32,4.32,0,0,0,1063.84,0h-95a4.33,4.33,0,0,0-3.4,1.65l-4.61,5.87a4.33,4.33,0,0,0,.73,6.07,4.41,4.41,0,0,0,2.67.92Zm34.2-4.32h-4.74L992.8,48.33H972.89l29.71-38.14H964.21l4.61-5.87h95l-5.08,5.87Z"/><path class="cls-2" d="M1078.52,17.93l-21.63,27.75a4.31,4.31,0,0,0,3.41,7h22.27a4.32,4.32,0,0,0,3.45-1.71l33.14-44A4.31,4.31,0,0,0,1115.71,0h-20.86a4,4,0,0,0-1,.13l-19.13,4.72a4.27,4.27,0,0,0-2.13,1.26l-4.24,4.56a4.31,4.31,0,0,0,3.16,7.26Zm18.63,11.17-14.58,19.23H1060.3l27.06-34.72h-15.88l4.25-4.56,19.12-4.73h20.86Z"/><path class="cls-2" d="M829.64,46.14a10.87,10.87,0,0,0,3.78,3c6,3,16.59,3.49,24.13,3.46H922.7a4.32,4.32,0,0,0,3.07-1.28l5.79-5.87a4.33,4.33,0,0,0-3.07-7.36H859.86l18.3-22.59,6.48-8.64A4.31,4.31,0,0,0,881.18,0H860.09a4.31,4.31,0,0,0-3.4,1.66L829.09,37a7.12,7.12,0,0,0-1.22,5.1A8.32,8.32,0,0,0,829.64,46.14ZM881.18,4.32,874.7,13,852.65,40.18c0,2.19,4.51,2.28,5.46,2.28h70.38l-5.79,5.87H857.53c-6.77,0-16.95-.42-22.19-3-1.76-.88-4.33-3.38-2.85-5.63l27.6-35.37Z"/><path class="cls-3" d="M881.18,4.32,874.7,13,852.65,40.18q0,2.12,5.46,2.28l39.95.08,30.43-.08-5.79,5.87H857.53q-21,0-24.52-4.89a3.33,3.33,0,0,1-.52-3.75l21-27.06,6.56-8.31h21.09Z"/><polygon class="cls-3" points="1027.96 10.19 1023.22 10.19 992.8 48.33 972.89 48.33 1002.6 10.19 997.86 10.19 981.27 10.19 964.21 10.19 968.82 4.32 997.97 4.32 1035.65 4.32 1063.85 4.32 1058.76 10.19 1036.25 10.19 1027.96 10.19"/><polygon class="cls-3" points="1097.15 29.1 1082.57 48.33 1060.3 48.33 1067.02 39.69 1087.36 13.61 1071.48 13.61 1075.72 9.05 1094.85 4.32 1115.71 4.32 1109.23 12.96 1097.15 29.1"/></g></g></svg>