<svg id="Layer_1" data-name="Layer 1" xmlns="http://www.w3.org/2000/svg" viewBox="0 0 786.11 44.13"><defs><style>.cls-1{fill-rule:evenodd;}</style></defs><title>Camaro</title><path d="M358.22,1029.44v29.73a3.6,3.6,0,0,0,3.6,3.6h17.42a3.6,3.6,0,0,0,3.6-3.6v-29.73h27.61v29.73a3.6,3.6,0,0,0,3.6,3.6h21.6a3.6,3.6,0,0,0,3.6-3.6v-36.93a3.6,3.6,0,0,0-3.6-3.6h-133v1.26a3.63,3.63,0,0,0-.85,2.34v36.93a3.6,3.6,0,0,0,3.6,3.6H327a3.6,3.6,0,0,0,3.6-3.6v-29.73Z" transform="translate(-46.55 -1018.64)"/><path d="M75.35,1062.77h70.86a3.6,3.6,0,0,0,3.6-3.6v-3.6a3.6,3.6,0,0,0-3.6-3.6H75.35v-22.53h70.86a3.6,3.6,0,0,0,3.6-3.6v-3.6a3.6,3.6,0,0,0-3.6-3.6H50.15a3.6,3.6,0,0,0-3.6,3.6v36.93a3.6,3.6,0,0,0,3.6,3.6h25.2Z" transform="translate(-46.55 -1018.64)"/><path class="cls-1" d="M825.62,1062.77h3.44a3.6,3.6,0,0,0,3.6-3.6v-36.93a3.6,3.6,0,0,0-3.6-3.6h-98a3.6,3.6,0,0,0-3.6,3.6v36.93a3.6,3.6,0,0,0,3.6,3.6h94.55Zm-21.76-33.33V1052H756.27v-22.53Z" transform="translate(-46.55 -1018.64)"/><path class="cls-1" d="M659.74,1048.8l18.87,13.31a3.41,3.41,0,0,0,2.07.66h23.55a3.6,3.6,0,0,0,2.08-6.54l-11.18-7.89h5.39a3.6,3.6,0,0,0,3.6-3.6v-22.5a3.6,3.6,0,0,0-3.6-3.6h-101a3.6,3.6,0,0,0-3.6,3.6v36.93a3.6,3.6,0,0,0,3.6,3.6h21.6a3.6,3.6,0,0,0,3.6-3.6V1048.8Zm17.65-19.36V1038H624.71v-8.56Z" transform="translate(-46.55 -1018.64)"/><path class="cls-1" d="M471,1018.64H465.4a3.6,3.6,0,0,0-3.6,3.6v36.93a3.6,3.6,0,0,0,3.6,3.6H487a3.6,3.6,0,0,0,3.6-3.6V1048.8h53.95v10.37a3.6,3.6,0,0,0,3.6,3.6h21.6a3.6,3.6,0,0,0,3.6-3.6v-36.93a3.6,3.6,0,0,0-3.6-3.6H471ZM490.6,1038v-8.56h53.95V1038Z" transform="translate(-46.55 -1018.64)"/><path class="cls-1" d="M174.64,1018.64H170a3.6,3.6,0,0,0-3.6,3.6v36.93a3.6,3.6,0,0,0,3.6,3.6h21.6a3.6,3.6,0,0,0,3.6-3.6V1048.8h53.1v10.37a3.6,3.6,0,0,0,3.6,3.6h21.6a3.6,3.6,0,0,0,3.6-3.6v-36.93a3.6,3.6,0,0,0-3.6-3.6H174.64ZM195.23,1038v-8.56h53.1V1038Z" transform="translate(-46.55 -1018.64)"/></svg>