<svg xmlns="http://www.w3.org/2000/svg" viewBox="0 0 1166.82 52.65"><defs><style>.cls-1,.cls-2,.cls-3{fill-rule:evenodd;}.cls-2{fill:#121212;}.cls-3{fill:none;}</style></defs><title>Camaro-LSA</title><g id="Layer_2" data-name="Layer 2"><g id="Layer_1-2" data-name="Layer 1"><path class="cls-1" d="M-8293.33-4413.56v29.73a3.6,3.6,0,0,0,3.6,3.6h17.42a3.6,3.6,0,0,0,3.6-3.6v-29.73h27.61v29.73a3.6,3.6,0,0,0,3.6,3.6h21.6a3.6,3.6,0,0,0,3.6-3.6v-36.93a3.6,3.6,0,0,0-3.6-3.6h-133v1.27a3.54,3.54,0,0,0-.86,2.33v36.93a3.6,3.6,0,0,0,3.6,3.6h21.6a3.6,3.6,0,0,0,3.6-3.6v-29.73Z" transform="translate(8605 4432.79)"/><path class="cls-1" d="M-8576.2-4380.23h70.86a3.6,3.6,0,0,0,3.6-3.6v-3.6a3.6,3.6,0,0,0-3.6-3.6h-70.86v-22.53h70.86a3.6,3.6,0,0,0,3.6-3.6v-3.6a3.6,3.6,0,0,0-3.6-3.6h-96.06a3.6,3.6,0,0,0-3.6,3.6v36.93a3.6,3.6,0,0,0,3.6,3.6h25.2Z" transform="translate(8605 4432.79)"/><path class="cls-1" d="M-7825.93-4380.23h3.44a3.6,3.6,0,0,0,3.6-3.6v-36.93a3.6,3.6,0,0,0-3.6-3.6h-98a3.6,3.6,0,0,0-3.6,3.6v36.93a3.6,3.6,0,0,0,3.6,3.6h94.55Zm-21.76-33.33V-4391h-47.59v-22.53Z" transform="translate(8605 4432.79)"/><path class="cls-1" d="M-7991.8-4394.2l18.86,13.31a3.46,3.46,0,0,0,2.08.66h23.55a3.6,3.6,0,0,0,2.07-6.54l-11.17-7.89h5.39a3.6,3.6,0,0,0,3.6-3.6v-22.5a3.6,3.6,0,0,0-3.6-3.6h-101a3.6,3.6,0,0,0-3.6,3.6v36.93a3.6,3.6,0,0,0,3.6,3.6h21.6a3.6,3.6,0,0,0,3.6-3.6v-10.37Zm17.64-19.36v8.56h-52.68v-8.56Z" transform="translate(8605 4432.79)"/><path class="cls-1" d="M-8180.51-4424.36h-5.64a3.6,3.6,0,0,0-3.6,3.6v36.93a3.6,3.6,0,0,0,3.6,3.6h21.6a3.6,3.6,0,0,0,3.6-3.6v-10.37h54v10.37a3.6,3.6,0,0,0,3.6,3.6h21.6a3.6,3.6,0,0,0,3.6-3.6v-36.93a3.6,3.6,0,0,0-3.6-3.6h-98.72Zm19.56,19.36v-8.56h54v8.56Z" transform="translate(8605 4432.79)"/><path class="cls-1" d="M-8476.91-4424.36h-4.61a3.6,3.6,0,0,0-3.6,3.6v36.93a3.6,3.6,0,0,0,3.6,3.6h21.6a3.6,3.6,0,0,0,3.6-3.6v-10.37h53.11v10.37a3.6,3.6,0,0,0,3.6,3.6h21.6a3.6,3.6,0,0,0,3.6-3.6v-36.93a3.6,3.6,0,0,0-3.6-3.6h-98.9Zm20.59,19.36v-8.56h53.11v8.56Z" transform="translate(8605 4432.79)"/><path class="cls-2" d="M-7571.28-4385.36a4.31,4.31,0,0,0,3.31,5.13,4.61,4.61,0,0,0,.91.1h21.56a4.32,4.32,0,0,0,3.23-1.45l6.3-7.1a4.3,4.3,0,0,0,1-2l7.39-9.16H-7484c-4.34,5.76-6.11,7.77-10.1,12.7a4.31,4.31,0,0,0,.66,6.07,4.3,4.3,0,0,0,2.7,1h22a4.31,4.31,0,0,0,3.41-1.67l8.56-11,17.74-24.28a4.35,4.35,0,0,0,.69-3.66,11.81,11.81,0,0,0-6.49-8.82,22.64,22.64,0,0,0-6.9-2.35q-6.45-.74-12.95-.84h-37.75q-8,0-16.07.66a48.94,48.94,0,0,0-10.75,2.49,34.85,34.85,0,0,0-11.59,6.1c-.52.42-14.52,18.49-15.3,19.49,1.64-3.22,1.17-7-2.4-8.88-2.7-1.45-5.54-1.53-8.5-1.6h-56.39l1.55-1.78a23.07,23.07,0,0,1,11.41-2h61a4.32,4.32,0,0,0,3.21-1.42l5.31-5.86a4.32,4.32,0,0,0-.3-6.11,4.29,4.29,0,0,0-2.9-1.11H-7610q-8,0-16,.66c-7.9.56-17.3,2.6-22.87,9l-8.77,10.82c-2.58,3.19-3.14,7.86.42,10.4,2.51,1.8,5.43,1.92,8.37,2h57.24l-3.1,4.13a1.61,1.61,0,0,1-.55.39,16.7,16.7,0,0,1-5.75.78l-65.23-.08a4.31,4.31,0,0,0-2.9,1.11l-3.07,2.77a4.33,4.33,0,0,0-4.3-3.88h-68.63l18.3-22.59,6.48-8.64a4.32,4.32,0,0,0-.86-6.05,4.34,4.34,0,0,0-2.6-.86h-21.09a4.31,4.31,0,0,0-3.4,1.66l-27.6,35.37a7.12,7.12,0,0,0-1.22,5.1,9.73,9.73,0,0,0,5.55,7c6,3,16.59,3.5,24.13,3.47h65.15a4.33,4.33,0,0,0,3.07-1.29l2.23-2.26a4.32,4.32,0,0,0,4.25,3.55h69.42c8.07,0,17.79-.4,25.84-2.65A28.26,28.26,0,0,0-7571.28-4385.36Zm-20.26-7.41,8.59-11.41h-65.64l-3.19-.19a6.29,6.29,0,0,1-2.91-1c-1.5-1-.44-3.13.41-4.19l8.57-10.59c4.85-5.6,13.24-7.19,20-7.66q7.83-.66,15.71-.65h65.87l-5.32,5.86h-60.66a27.58,27.58,0,0,0-14.43,2.77l-8.36,9.62h65.64l3.44.18a8.43,8.43,0,0,1,3.22.9c1.83,1,.95,2.89-.06,4.14l-9.47,12.55a9.36,9.36,0,0,1-4,3.71c-7.78,3.89-20.93,4.31-29.18,4.28h-69.43l6.5-5.87,65.07.08a20.75,20.75,0,0,0,7.3-1A6,6,0,0,0-7591.54-4392.77Zm107.59,0,8.59-11.41h-54.27l-9.55,11.82a1.21,1.21,0,0,0,0,.82l-6.3,7.09h-21.56l7.9-8.64,21-27.06c4.3-4.36,16.59-7.26,20-7.66q7.83-.66,15.7-.65h37.68q6.28.1,12.54.81c3.26.49,8,2.86,9,5.54l.64,2.45-17.74,24.29-8.48,10.92h-22l6.42-8Zm-239.87-35.69-6.48,8.63-22.05,27.23c0,2.19,4.51,2.27,5.46,2.28h70.38l-5.79,5.87h-65.17c-6.77,0-16.95-.42-22.19-3-1.76-.87-4.33-3.38-2.85-5.62l27.6-35.37Z" transform="translate(8605 4432.79)"/><path class="cls-2" d="M-7472.42-4422.6h-30.1a27.58,27.58,0,0,0-14.43,2.77l-8.35,9.62h55l7.21-9.45C-7463.48-4420-7465.65-4422.15-7472.42-4422.6Zm-.22,4.32,2.72.42-2.54,3.33h-43.37l1.55-1.78a23.09,23.09,0,0,1,11.41-2Z" transform="translate(8605 4432.79)"/><path class="cls-3" d="M-7723.82-4428.46l-6.48,8.63-22.05,27.23q0,2.12,5.46,2.28l40,.08,30.43-.08-5.79,5.87h-65.17q-21,0-24.52-4.89a3.33,3.33,0,0,1-.52-3.75l21-27.06,6.56-8.31h21.09Z" transform="translate(8605 4432.79)"/><path class="cls-3" d="M-7591.54-4392.77l8.59-11.41h-65.64q-9.72,0-5.69-5.38l8.57-10.59q5.82-6.69,20-7.66,7.65-.66,15.71-.65h65.87l-5.32,5.86h-60.66q-8.85-.32-14.43,2.77l-8.36,9.62h65.64q10.66,0,6.6,5.22l-7.17,9.62-2.3,2.93q-4.17,8-33.2,8h-69.43l6.5-5.87h25.12l39.95.08c4.81-.05,7.89-.79,9.26-2.2Z" transform="translate(8605 4432.79)"/><path class="cls-3" d="M-7472.42-4422.6h-30.1q-8.85-.32-14.43,2.77l-8.35,9.62h55l7.21-9.45Q-7465.9-4422.1-7472.42-4422.6Zm-11.53,29.83,8.59-11.41h-54.27l-9.38,11.58-.17.24a1.25,1.25,0,0,0,0,.82l-6.3,7.09h-21.56l7.9-8.64,21-27.06q6.59-5.55,20-7.66,7.63-.66,15.7-.65h37.68c4.77.1,8.95.38,12.54.81q7,1.47,9,5.54c.23.87.44,1.69.64,2.45l-17.74,24.29-2.3,2.93-6.18,8h-22l6.42-8Z" transform="translate(8605 4432.79)"/></g></g></svg>