<svg xmlns="http://www.w3.org/2000/svg" viewBox="0 0 541.32 87.09"><defs><style>.cls-1{fill:#121212;}</style></defs><title>Chevy</title><g id="Layer_2" data-name="Layer 2"><g id="Layer_1-2" data-name="Layer 1"><path class="cls-1" d="M431.6,11.9l33.55,40.51V80.88a5.79,5.79,0,0,0,5.79,5.79h17.94a5.79,5.79,0,0,0,5.79-5.79V52.41L541.32,0H519.1l-32.53,35.6L455.82,0H414.27L385.91,71.22c-.52,1.22-1.12,1.38-3.06,1.37s-2.53-.15-3-1.37L351.64,0,246.24,0C231.86,0,224,5.13,224,23.17c0,0-.18,10.46-.18,20.39s.17,20.56.17,20.56c0,17.84,7.86,23,22.27,23h74V72.3h-62c-4.16,0-5.14-1-5.14-5.17V48.27h61.59V33.89h-61.6c0-7.81,0-13.91,0-14.32,0-4,1-5,5.13-5h66.18c9.11,21.87,25.3,59.53,26.74,62.78,2,4.52,5.56,9.73,13.19,9.73h27.36c7.63,0,10.23-5.12,12.23-9.64C405.36,74.07,422.82,32.71,431.6,11.9Z"/><path class="cls-1" d="M34.35,14.56H92L92,0H22.44C8,0,.18,5.13.18,23.17c0,0-.18,10.46-.18,20.38S.17,64.08.17,64.08c0,17.83,7.85,23,22.27,23H94.12V72.3H34.39c-4.15,0-5.13-1-5.13-5.18,0,0,0-46.4,0-47.55C29.24,15.57,30.22,14.56,34.35,14.56Z"/><polygon class="cls-1" points="180.12 0 180.12 34.2 133.53 34.2 133.53 0.03 104.19 0.03 104.19 87.09 133.53 87.09 133.53 48.13 180.12 48.13 180.12 87.09 209.47 87.09 209.47 0.04 180.12 0"/></g></g></svg>