<svg xmlns="http://www.w3.org/2000/svg" viewBox="0 0 412.85 161.67"><defs><style>.cls-1{fill-rule:evenodd;}</style></defs><g id="Layer_2" data-name="Layer 2"><g id="Layer_1-2" data-name="Layer 1"><path class="cls-1" d="M168.52,56.59c-.06-4.62,2.18-10.43,7.38-10.49,2.32,0,4.09,2.84,4.1,4,.06,4.62-4.52,8.15-11.44,10C168.55,58.9,168.54,57.75,168.52,56.59ZM300.83,6.39c-3.46,0-23,6.06-48.47,6.38C197.46,13.46,159.71-.52,117,0,73.61.56,41.5,21.77,41.84,48.35,42.07,66.84,56,73,65.84,72.9c17.92-.22,40.21-20.15,40-35.18,0-1.15-1.21-4.61-2.37-4.59-5.2.06-11.88,20.38-29.8,20.6-8.67.11-12.23-7.94-12.28-11.41-.13-10.4,12.32-31.94,52.2-32.44,17.33-.21,36.45,3,55.57,6.82-17.85,5.43-34.35,26.44-52,49.78-15,1.92-28.26,4.4-34,11.41-5.13,5.84-1.61,9.84,1.25,6.92C89,79.55,99.42,77.11,111,75.23,88.22,106.15,65.49,137.07,38.9,137.4c-14.44.18-20.35-10.15-20.45-17.66-.16-13.3,12.42-23.86,19.88-28,4.6-1.79,5.12-7-3.55-6.89-19.07.24-35,21.82-34.78,38.58C.29,146.55,17.25,162,39.78,161.66c39.88-.49,64.72-48.2,89.65-88.39,12.7-1.32,25.39-2.63,35.77-5.08,3.53,5.16,8.76,7.41,10.49,7.39S178,73.81,178,72.66c0-.58-4.07-1.69-7-6.27,9.21-3,14.93-7.7,14.83-15.79a10.33,10.33,0,0,0-10.54-10.28c-9.24.12-13.76,8.27-13.66,16.36,0,1.73.62,3.46.64,5.19-7.5,1.25-17.32,2-27.7,3.24C147,45.3,159.51,29,173.87,22.42l-1.8-5.18c31.88,7.12,63.21,16.55,85.17,16.28,28.32-.36,49.55-13.34,49.43-22.58C306.65,9.2,303.72,6.35,300.83,6.39Z"/><path class="cls-1" d="M341.21,92.58c-14.44.18-33.22,23.54-33,40.3.06,4.62,4.76,10.34,8.8,10.29,11-.14,25.23-16.5,32.57-30.46l-2.92-2.28c1.13-2.32,2.8-7,2.76-10.44A7.78,7.78,0,0,0,341.21,92.58Zm-135.59,64.7c11.32-18.64,31.72-51.84,31.64-58.2a4.25,4.25,0,0,0-4.68-4.56c-7.52.09-24.63,18.22-33.13,31.62C185.28,148.86,172.13,160,157.1,160.2c-16.18.2-25-10.1-27.43-21-4,4.68-9.12,9.94-13.71,12.89-2.87,1.77-8.16-5.68-4.73-8.61,7.44-5.87,12.55-12.87,17.08-21,9-18,23.21-39,44-39.28,6.94-.08,9.91,6.82,3.58,9.21-21.29,7.2-29.14,26.37-29,38.51.11,8.67,4.79,13.23,11.72,13.14,20.23-.25,36.63-29.35,27.69-50.63-1.8-5.18,7.94-12.24,10.88-8.23,4.68,4.57,6.56,16.11,5.47,21.32,9.13-9.36,22.78-27.45,37.22-27.63,6.94-.09,12.2,5.05,12.27,10.25.61,2.88.66,6.93-.46,9.25,7.38-10.49,16.52-18.7,25.77-18.81,8.09-.1,14.52,5.6,14.62,13.11.08,6.93-5.6,14.52-12.54,14.6-6.36.08-11-5.06-9.39-11.44,0-.58,0-1.73-1.76-1.71-2.31,0-8,9.93-7.88,16.86.08,6.36,5.91,9.75,10.53,9.7,20.23-.26,41.7-39.83,68.86-40.17,8.09-.1,17.37,2.67,20.42,15.35C370.52,78.92,383,59.69,392.62,43.39l20.23-.26c-22.07,38.43-57.26,89.73-57.18,96.09,0,3.47,3.54,5.74,5.85,5.71,5.78-.08,21.8-13,34.91-28.18,2.84-3.51,8.11,1.63,6.4,3.38-20.49,25.69-34.21,38-49.81,38.2-8.67.1-13.39-7.35-15.22-14.84-7.42,7-17.74,14.09-27.56,14.22-11,.13-20.33-7.84-20.53-23.45a40,40,0,0,1,1.6-11.58c-8,5.31-17.22,10-23.58,10.13-11,.13-15.7-7.9-15.85-19.46L224.69,157Z"/></g></g></svg>