<svg xmlns="http://www.w3.org/2000/svg" viewBox="0 0 1911.37 150.24"><defs><style>.cls-1{fill:#0e0000;fill-rule:evenodd;}</style></defs><g id="Layer_2" data-name="Layer 2"><g id="Layer_1-2" data-name="Layer 1"><path class="cls-1" d="M289.13,150.24V86.68a11.4,11.4,0,0,0-.59-3.66c-3.32-9.83-19.28-13.71-28.17-15l-19.05-2.8,19.05-2.81c8.89-1.31,24.86-5.19,28.17-15a11.36,11.36,0,0,0,.59-3.66V19.84a11.48,11.48,0,0,0-.59-3.68c-2-5.95-8.79-9.6-14.3-11.64C264.88,1.05,253.7,0,243.78,0H0V150.24H65.2V80.79H205.68c1.91,0,3.81,0,5.71.18,6,.52,12.55,2.74,12.55,9.91v53.69a5.68,5.68,0,0,0,5.67,5.67ZM65.2,58.11V28.35H205.68c1.91,0,3.81,0,5.71.18,6,.52,12.55,2.74,12.55,9.91V48A8.59,8.59,0,0,1,222,53.65c-3.61,4.35-11.08,4.46-16.32,4.46Z"/><path class="cls-1" d="M600.34,150.24H677.8L545.32,0H443L310.52,150.24H388l26.83-31.19h158.7ZM554,96.38H434.32l59.84-69.54Z"/><path class="cls-1" d="M1600.85,150.24V121.89h-200c-1.91,0-3.81,0-5.71-.19-6-.52-12.55-2.73-12.55-9.9v-31h218.27V58.11H1382.58V38.44a8.59,8.59,0,0,1,1.94-5.63c3.61-4.36,11.08-4.46,16.32-4.46h200V0H1362.74c-9.92,0-21.09,1.05-30.46,4.52-5.51,2-12.28,5.69-14.3,11.64a11.48,11.48,0,0,0-.59,3.68V130.39a10.88,10.88,0,0,0,.53,3.4c2,6,9,9.79,14.52,11.84,9.33,3.47,20.4,4.61,30.3,4.61Z"/><path class="cls-1" d="M1296,150.24V58.11H1135.85V80.79h95v41.1H1096c-1.9,0-3.81,0-5.71-.19-6-.52-12.54-2.73-12.54-9.9V38.44a8.58,8.58,0,0,1,1.93-5.63c3.62-4.36,11.08-4.46,16.32-4.46h200V0H1057.89c-9.92,0-21.09,1.05-30.46,4.52-5.51,2-12.28,5.69-14.3,11.64a11.48,11.48,0,0,0-.59,3.68V130.39a10.88,10.88,0,0,0,.53,3.4c2,6,9,9.79,14.52,11.84,9.33,3.47,20.4,4.61,30.3,4.61Z"/><path class="cls-1" d="M699.19,0V150.24h65.19V55.1l129.06,78.82c17.2,10.51,34.22,16.32,54.51,16.32h43.2V0H926V95.24l-129-78.9C779.7,5.81,762.67,0,742.37,0Z"/><path class="cls-1" d="M1911.37,150.24V86.68a11.4,11.4,0,0,0-.59-3.66c-3.32-9.83-19.29-13.71-28.17-15l-19.06-2.8,19.06-2.81c8.88-1.31,24.85-5.19,28.17-15a11.36,11.36,0,0,0,.59-3.66V19.84a11.49,11.49,0,0,0-.6-3.68c-2-5.95-8.78-9.6-14.3-11.64C1887.11,1.05,1875.94,0,1866,0H1622.24V150.24h65.19V80.79h140.49c1.9,0,3.81,0,5.71.18,6,.52,12.54,2.74,12.54,9.91v53.69a5.68,5.68,0,0,0,5.67,5.67ZM1687.43,58.11V28.35h140.49c1.9,0,3.81,0,5.71.18,6,.52,12.54,2.74,12.54,9.91V48a8.64,8.64,0,0,1-1.93,5.63c-3.62,4.35-11.08,4.46-16.32,4.46Z"/></g></g></svg>