<svg xmlns="http://www.w3.org/2000/svg" viewBox="0 0 786.44 75.46"><defs><style>.cls-1{fill:#231f20;}</style></defs><g id="Layer_2" data-name="Layer 2"><g id="Layer_1-2" data-name="Layer 1"><polygon class="cls-1" points="126.52 11.46 93.68 51.79 105.51 11.46 79.51 11.46 34.51 42.62 65.84 0 34.51 0 0 48.29 11.17 65.46 34.84 65.46 71.68 39.79 62.01 75.46 77.9 75.46 117.5 60.98 156.69 11.46 126.52 11.46"/><polygon class="cls-1" points="166.85 11.46 125.85 60.98 157.69 60.98 198.69 11.46 166.85 11.46"/><path class="cls-1" d="M347.38,11.46H285.87l-23.67,28h28.34l12.17-15.84H328l9.87,10.81a3,3,0,0,1,.2,3.75l-7.57,10.28H208.86l30.84-37h-32l-34.78,42a4.58,4.58,0,0,0,3.53,7.5H349.88l17.41-21.2a5.28,5.28,0,0,0-.2-6.94Z"/><path class="cls-1" d="M673.76,24.8l-8.5-13.34H589.41l-39.3,46.71L537.57,46.29h11l18.34-22.17-11.5-12.66H358.05l10.44,12.16h33.4L371.05,61h32.67l30-37.19H535.57L525.9,34.62H461.73L439.72,61h31.34l12-14.69H502.4L517.74,61h62l13.67-16.36h37.17L616.75,61h32.34l24.23-29.19A5.94,5.94,0,0,0,673.76,24.8Zm-29.42,3.35-3.25,3.47H604.25l6.16-8h32A2.69,2.69,0,0,1,644.34,28.15Z"/><polygon class="cls-1" points="786.44 11.46 748.93 11.46 714.93 28.96 728.93 11.46 697.59 11.46 656.25 60.98 688.92 60.98 701.93 44.29 743.27 75.46 775.77 75.46 729.43 41.12 786.44 11.46"/></g></g></svg>