<svg xmlns="http://www.w3.org/2000/svg" viewBox="0 0 461 66.01"><defs><style>.cls-1{stroke:#e8ecec;fill-rule:evenodd;}</style></defs><g id="Layer_2"><g id="Layer_1-2"><path class="cls-1" d="M447.5.71,342.66.64A2.46,2.46,0,0,0,340.2,3.1l0,59.81a2.47,2.47,0,0,0,2.46,2.47l104.84.07a13,13,0,0,0,13-13l0-38.73A13,13,0,0,0,447.5.71Zm-19.62,9.34-60.82,0a1.42,1.42,0,0,0-1.42,1.42l0,43.29A1.43,1.43,0,0,0,367,56.15l60.82,0a7.52,7.52,0,0,0,7.51-7.5V17.55A7.5,7.5,0,0,0,427.88,10.05Z"/><path class="cls-1" d="M228.81,21.85,252.7,63.44a3.62,3.62,0,0,0,3.22,1.84l31,0a3.64,3.64,0,0,0,3.3-2L321.84,2.94A1.67,1.67,0,0,0,320.36.5H301.55a3.63,3.63,0,0,0-3.27,2l-25.5,48.89a1.82,1.82,0,0,1-3.1,0L241,2.39A3.62,3.62,0,0,0,237.83.55H213.55a3.37,3.37,0,0,0-3,1.7L183.06,51.36a1.83,1.83,0,0,1-3.11,0L154.86,2.47a3.64,3.64,0,0,0-3.27-2H132.78a1.67,1.67,0,0,0-1.48,2.44l31.61,60.32a3.64,3.64,0,0,0,3.3,2l30.61,0A3.62,3.62,0,0,0,200,63.44l23.5-41.59A3.13,3.13,0,0,1,228.81,21.85Z"/><path class="cls-1" d="M96.91,50a3.32,3.32,0,0,1,2.73,1.34l9.93,12.81a3.33,3.33,0,0,0,2.73,1.34h21.92a1.42,1.42,0,0,0,1.11-2.31L87.16,3.12a3.35,3.35,0,0,0-2.7-1.3H51.68A3.35,3.35,0,0,0,49,3.12L.82,63.2a1.42,1.42,0,0,0,1.11,2.31H23.85a3.34,3.34,0,0,0,2.73-1.34L36.5,51.36A3.35,3.35,0,0,1,39.24,50ZM70.31,13.49,88.74,37.28a1.47,1.47,0,0,1-1.13,2.3H48.54a1.47,1.47,0,0,1-1.13-2.3L65.84,13.49A2.87,2.87,0,0,1,70.31,13.49Z"/></g></g></svg>