<svg xmlns="http://www.w3.org/2000/svg" viewBox="0 0 234.81 90.13"><defs><style>.cls-1{fill-rule:evenodd;}</style></defs><g id="Layer_2"><g id="Layer_1-2"><path class="cls-1" d="M118.87,86.28C51.94,87.11,4.3,70.69,4.2,47.55,4.28,22.87,60.08,4.39,117.45,3.67c66.93-.84,112.88,18.48,113.14,38.94C230.85,63.26,185.8,85.44,118.87,86.28ZM118.17,0C51.24.86-.13,22,0,48c.33,26.58,52.37,43,119.3,42.12S234.71,66.28,234.81,43.32C234.86,17.12,185.1-.81,118.17,0Z"/><path class="cls-1" d="M117.1,67.36c3.75-6.16,10.5-17.15,10.47-19.25A1.4,1.4,0,0,0,126,46.6c-2.48,0-8.15,6-11,10.46-4.69,7.52-9,11.21-14,11.27a8.68,8.68,0,0,1-9.08-7,23.47,23.47,0,0,1-4.54,4.26c-.94.59-2.7-1.88-1.56-2.85a22.18,22.18,0,0,0,5.65-7c3-6,7.68-12.91,14.56-13,2.3,0,3.28,2.25,1.19,3a13.81,13.81,0,0,0-9.6,12.75c0,2.87,1.59,4.38,3.88,4.35,6.7-.09,12.12-9.72,9.17-16.76-.6-1.71,2.62-4,3.6-2.72,1.55,1.51,2.17,5.33,1.81,7.06,3-3.1,7.53-9.09,12.31-9.15a3.83,3.83,0,0,1,4.06,3.39,5.45,5.45,0,0,1-.15,3.07c2.44-3.48,5.47-6.19,8.53-6.23A4.54,4.54,0,0,1,145.71,46c0,2.29-1.85,4.8-4.14,4.83A3,3,0,0,1,138.46,47c0-.2,0-.58-.58-.57-.77,0-2.64,3.28-2.61,5.58a3.39,3.39,0,0,0,3.48,3.21c6.7-.09,13.8-13.18,22.79-13.29,2.68,0,5.75.88,6.75,5.07,3.38-5.58,7.51-12,10.69-17.34l6.69-.09c-7.3,12.72-18.94,29.69-18.92,31.8a2.05,2.05,0,0,0,1.94,1.89c1.91,0,7.21-4.3,11.55-9.33.94-1.16,2.68.54,2.12,1.12-6.78,8.5-11.32,12.58-16.48,12.64-2.87,0-4.43-2.43-5-4.91-2.46,2.33-5.87,4.66-9.12,4.71-3.63,0-6.73-2.6-6.79-7.76a13,13,0,0,1,.53-3.83c-2.66,1.75-5.7,3.32-7.8,3.35-3.64,0-5.2-2.62-5.25-6.44l-9,14.46Zm31.51-49.93a2.1,2.1,0,0,1,1.93,1.51c0,3.06-7,7.36-16.35,7.47-7.27.09-17.64-3-28.19-5.38l.6,1.71c-4.76,2.16-8.9,7.57-13,14.13,3.43-.43,6.68-.66,9.16-1.08,0-.57-.2-1.14-.21-1.71,0-2.68,1.47-5.38,4.52-5.42a3.42,3.42,0,0,1,3.49,3.4c0,2.68-1.86,4.23-4.91,5.23A8.12,8.12,0,0,0,108,39.36c0,.39-.18,1-.75,1a5.53,5.53,0,0,1-3.47-2.44,100.75,100.75,0,0,1-11.84,1.67c-8.25,13.3-16.47,29.09-29.66,29.26-7.46.09-13.07-5-13.17-12.66C49,50.62,54.26,43.48,60.57,43.4c2.87,0,2.7,1.69,1.18,2.28-2.47,1.37-6.64,4.86-6.58,9.26,0,2.49,2,5.91,6.77,5.85,8.79-.11,16.32-10.34,23.84-20.58-3.82.63-7.25,1.43-8.76,3.17-.94,1-2.11-.35-.41-2.29,1.88-2.31,6.27-3.13,11.24-3.77C93.68,29.6,99.14,22.64,105,20.85c-6.32-1.26-12.65-2.33-18.38-2.26-13.2.17-17.32,7.29-17.28,10.74a4.1,4.1,0,0,0,4.07,3.77c5.93-.07,8.14-6.79,9.86-6.82.38,0,.78,1.14.78,1.52.06,5-7.31,11.57-13.24,11.64-3.25.05-7.87-2-7.94-8.12-.11-8.8,10.51-15.81,24.85-16,14.15-.18,26.64,4.44,44.81,4.22C141,19.44,147.46,17.45,148.61,17.43ZM118.44,83c66.93-.84,108.93-22.4,108.72-39.61-.23-18.55-42-37.15-108.9-36.32S7.78,28,8,47.11C8.28,67.58,51.51,83.87,118.44,83Z"/><path class="cls-1" d="M162,46c-4.78.06-11,7.78-10.93,13.33,0,1.53,1.58,3.42,2.92,3.41,3.63-.05,8.34-5.46,10.77-10.08l-1-.76a9.2,9.2,0,0,0,.91-3.45A2.57,2.57,0,0,0,162,46Z"/><path class="cls-1" d="M104.83,34.05V35.2c2.29-.61,3.8-1.77,3.79-3.3,0-.39-.6-1.34-1.36-1.33C105.55,30.6,104.81,32.52,104.83,34.05Z"/></g></g></svg>