<svg xmlns="http://www.w3.org/2000/svg" viewBox="0 0 460 115.75"><defs><style>.cls-1,.cls-2{fill:#010101;}.cls-2{fill-rule:evenodd;}</style></defs><g id="Layer_2" data-name="Layer 2"><g id="Layer_1-2" data-name="Layer 1"><path class="cls-1" d="M397.94,34.88l-12.51,3.84a.37.37,0,0,0,.11.73h12.51a.38.38,0,0,0,.37-.37V35.23A.36.36,0,0,0,397.94,34.88Z"/><path class="cls-2" d="M455.55,67.28h-5.82A.74.74,0,0,0,449,68V87.37a.74.74,0,0,1-.74.74H399a.74.74,0,0,1-.74-.74V68a.74.74,0,0,0-.74-.74H311.33a.76.76,0,0,1-.75-.75v-36a.76.76,0,0,1,.53-.71L397,3.74a.76.76,0,0,1,.21,0h51.07a.74.74,0,0,1,.74.74v34.1a.75.75,0,0,0,.74.75h5.82a.74.74,0,0,1,.74.74V66.53A.75.75,0,0,1,455.55,67.28ZM326.2,88.11H266a.77.77,0,0,1-.44-.14l-25.68-19.2a.74.74,0,0,0-.89,0L213.28,88a.74.74,0,0,1-.44.14H152.9a.74.74,0,0,1-.44-1.34l54.86-40.2a.75.75,0,0,0,0-1.2l-41.1-30.12a.74.74,0,0,0-1.18.6V31.4a.74.74,0,0,1-.74.74H75.77a.74.74,0,0,0-.74.74v2.58a.75.75,0,0,0,.74.75h85a.74.74,0,0,1,.74.74V63.66a.74.74,0,0,1-.74.74h-85a.74.74,0,0,0-.74.74V104.7a.74.74,0,0,1-.74.74H4.45a.74.74,0,0,1-.74-.74V16.52a.73.73,0,0,1,.43-.67l26-12.07a.7.7,0,0,1,.31-.07H212.63a.77.77,0,0,1,.44.14L239,22.92a.77.77,0,0,0,.89,0L265.56,3.85a.77.77,0,0,1,.44-.14h60.2a.74.74,0,0,1,.44,1.34L270.89,45.31a.74.74,0,0,0,0,1.2l55.75,40.26A.74.74,0,0,1,326.2,88.11ZM452.7,34.85V.74A.74.74,0,0,0,452,0H396.63a.83.83,0,0,0-.22,0l-89,27a.73.73,0,0,0-.52.7V66.48a.75.75,0,0,1-1.18.6L277.22,46.51a.74.74,0,0,1,0-1.2l60.88-44A.74.74,0,0,0,337.67,0H264.78a.69.69,0,0,0-.44.15L239.83,18.31a.75.75,0,0,1-.88,0L214.29.14a.79.79,0,0,0-.44-.14H29.67a.71.71,0,0,0-.32.07L.43,13.49a.74.74,0,0,0-.43.67V108.4a.74.74,0,0,0,.74.74H78a.75.75,0,0,0,.75-.74V68.85a.74.74,0,0,1,.74-.74h85a.75.75,0,0,0,.74-.75V36.59a.74.74,0,0,1,.74-.74h2a.74.74,0,0,0,.74-.74V23.16a.74.74,0,0,1,1.18-.6l31.12,22.81a.75.75,0,0,1,0,1.2L141.13,90.48a.74.74,0,0,0,.44,1.34h72.5a.74.74,0,0,0,.45-.15L239,73.4a.74.74,0,0,1,.89,0l24.45,18.27a.71.71,0,0,0,.44.15h72.92a.74.74,0,0,0,.43-1.34L313,72.32A.74.74,0,0,1,313.4,71h80.45a.74.74,0,0,1,.74.74V91.08a.74.74,0,0,0,.74.74H452a.74.74,0,0,0,.74-.74V71.72a.74.74,0,0,1,.74-.74h5.82a.74.74,0,0,0,.74-.74V36.33a.74.74,0,0,0-.74-.74h-5.82A.74.74,0,0,1,452.7,34.85Z"/><path class="cls-2" d="M12.05,21.85v74.5a.75.75,0,0,0,.74.75H66a.75.75,0,0,0,.74-.75V56.8a.74.74,0,0,1,.74-.74h85a.74.74,0,0,0,.74-.74v-10a.74.74,0,0,0-.74-.74h-85a.74.74,0,0,1-.74-.74V24.54a.74.74,0,0,1,.74-.74H156a.74.74,0,0,0,.74-.74V12.79a.74.74,0,0,0-.74-.74H32.32a.7.7,0,0,0-.31.07L12.48,21.18A.74.74,0,0,0,12.05,21.85Z"/><path class="cls-2" d="M300.41,12.05H268.76a.8.8,0,0,0-.45.14l-28.46,21.1a.75.75,0,0,1-.88,0l-28.64-21.1a.77.77,0,0,0-.44-.14H178.23a.74.74,0,0,0-.44,1.34l43.64,32a.75.75,0,0,1,0,1.2L178,78.43a.74.74,0,0,0,.44,1.34h31.68a.71.71,0,0,0,.44-.15L239,58.36a.74.74,0,0,1,.89,0l28.45,21.26a.74.74,0,0,0,.45.15h31.65a.74.74,0,0,0,.43-1.34l-44.2-31.92a.74.74,0,0,1,0-1.2l44.2-31.92A.74.74,0,0,0,300.41,12.05Z"/><path class="cls-2" d="M406,47.79H346.44a.74.74,0,0,1-.74-.74V42.76a.75.75,0,0,1,.52-.71L405.8,23.73a.74.74,0,0,1,1,.71V47.05A.74.74,0,0,1,406,47.79Zm33.89-35.74H398.42a.83.83,0,0,0-.22,0L319.45,36a.74.74,0,0,0-.53.71V58.19a.75.75,0,0,0,.75.74H405.9a.75.75,0,0,1,.74.75V79a.74.74,0,0,0,.74.74h32.53a.74.74,0,0,0,.74-.74V59.68a.75.75,0,0,1,.74-.75h5.82a.74.74,0,0,0,.74-.74V48.38a.74.74,0,0,0-.74-.74h-5.82a.74.74,0,0,1-.74-.74V12.79A.74.74,0,0,0,439.91,12.05Z"/><path class="cls-2" d="M229.52,97.1H214.09a7.41,7.41,0,0,0-7.41,7.41v3.83a7.41,7.41,0,0,0,7.41,7.41h15.43a7.42,7.42,0,0,0,7.42-7.41v-3.83A7.42,7.42,0,0,0,229.52,97.1Zm0,1.85a5.56,5.56,0,0,1,5.56,5.56v3.83a5.56,5.56,0,0,1-5.56,5.56H214.09a5.57,5.57,0,0,1-5.56-5.56v-3.83A5.57,5.57,0,0,1,214.09,99Z"/><path class="cls-2" d="M224.71,109.36h-5.53a.74.74,0,0,1-.74-.74v-4.45a.74.74,0,0,1,.74-.74h5.53a.74.74,0,0,1,.74.74v4.45A.74.74,0,0,1,224.71,109.36Zm-8.13-7v8.15a.74.74,0,0,0,.74.74h9.24a.74.74,0,0,0,.74-.74v-8.15a.74.74,0,0,0-.74-.74h-9.24A.74.74,0,0,0,216.58,102.32Z"/><path class="cls-2" d="M249.5,101.88v3.7a.45.45,0,0,0,.45.45h17.82a.45.45,0,0,1,.45.45V108a.45.45,0,0,1-.45.45H250a.45.45,0,0,0-.45.45v4.58a.45.45,0,0,1-.44.45h-7.19a.45.45,0,0,1-.45-.45v-8.94A5.56,5.56,0,0,1,247,99h20.78a.45.45,0,0,1,.45.45V101a.45.45,0,0,1-.45.45H250A.45.45,0,0,0,249.5,101.88ZM247,97.1a7.42,7.42,0,0,0-7.42,7.41v10.8a.45.45,0,0,0,.45.44h10.89a.45.45,0,0,0,.45-.44v-4.59a.45.45,0,0,1,.45-.45h17.81a.45.45,0,0,0,.45-.45v-5.19a.45.45,0,0,0-.45-.45H251.81a.45.45,0,0,1,0-.9h17.81a.45.45,0,0,0,.45-.45V97.54a.45.45,0,0,0-.45-.44Z"/><path class="cls-2" d="M282.62,101.88v3.7a.45.45,0,0,0,.45.45h17.82a.45.45,0,0,1,.45.45V108a.45.45,0,0,1-.45.45H283.07a.45.45,0,0,0-.45.45v4.58a.45.45,0,0,1-.44.45H275a.45.45,0,0,1-.45-.45v-8.94A5.56,5.56,0,0,1,280.11,99h20.78a.45.45,0,0,1,.45.45V101a.45.45,0,0,1-.45.45H283.07A.45.45,0,0,0,282.62,101.88Zm-2.51-4.78a7.42,7.42,0,0,0-7.42,7.41v10.8a.45.45,0,0,0,.45.44H284a.45.45,0,0,0,.45-.44v-4.59a.45.45,0,0,1,.45-.45h17.81a.45.45,0,0,0,.45-.45v-5.19a.45.45,0,0,0-.45-.45H284.93a.45.45,0,0,1,0-.9h17.81a.45.45,0,0,0,.45-.45V97.54a.45.45,0,0,0-.45-.44Z"/><path class="cls-2" d="M341.74,104.18h-6.61a.5.5,0,0,1,0-1h6.61a.5.5,0,1,1,0,1Zm.6-2.6h-8.83a.74.74,0,0,0-.74.74V105a.74.74,0,0,0,.74.74h8.83a1.75,1.75,0,0,0,1.75-1.76v-.66A1.75,1.75,0,0,0,342.34,101.58Zm.33,12.22-8.68-5a.69.69,0,0,0-.37-.1h-.11a.74.74,0,0,0-.74.74v3.72a.74.74,0,0,1-.74.74h-6.35a.74.74,0,0,1-.74-.74V99.7a.74.74,0,0,1,.74-.74H346.6c3.26,0,6.84,3.53,4.92,6.79a4.44,4.44,0,0,1-3.56,2.33h-1.8a.74.74,0,0,0-.37,1.39l6.52,3.73a.37.37,0,0,1-.19.69H343A.69.69,0,0,1,342.67,113.8Zm7-4.21h0a7.48,7.48,0,0,0,2.45-1.66,5.85,5.85,0,0,0,1.73-4.23,5.44,5.44,0,0,0,0-.57,6.93,6.93,0,0,0-2.72-4.49,7.44,7.44,0,0,0-4.53-1.54H323.82a.75.75,0,0,0-.75.74V115a.75.75,0,0,0,.75.74h10.06a.74.74,0,0,0,.74-.74v-2.55a.37.37,0,0,1,.56-.32l6.09,3.51a.69.69,0,0,0,.37.1h16a.74.74,0,0,0,.37-1.38Z"/><path class="cls-2" d="M379.2,97.1H363.78a7.42,7.42,0,0,0-7.42,7.41v3.83a7.42,7.42,0,0,0,7.42,7.41H379.2a7.42,7.42,0,0,0,7.42-7.41v-3.83A7.42,7.42,0,0,0,379.2,97.1Zm0,1.85a5.56,5.56,0,0,1,5.56,5.56v3.83a5.56,5.56,0,0,1-5.56,5.56H363.78a5.57,5.57,0,0,1-5.57-5.56v-3.83A5.57,5.57,0,0,1,363.78,99Z"/><path class="cls-2" d="M374.39,109.36h-5.53a.74.74,0,0,1-.74-.74v-4.45a.74.74,0,0,1,.74-.74h5.53a.74.74,0,0,1,.74.74v4.45A.74.74,0,0,1,374.39,109.36Zm-8.13-7v8.15a.75.75,0,0,0,.75.74h9.23a.75.75,0,0,0,.75-.74v-8.15a.75.75,0,0,0-.75-.74H367A.75.75,0,0,0,366.26,102.32Z"/><path class="cls-2" d="M417.34,113.9h-6a.74.74,0,0,1-.74-.74v-4a.74.74,0,0,0-.74-.74H400a.74.74,0,0,0-.74.74v4a.74.74,0,0,1-.74.74h-6.57a.74.74,0,0,1-.74-.74v-8.65A5.56,5.56,0,0,1,396.76,99h20.58a.74.74,0,0,1,.74.74v13.47A.74.74,0,0,1,417.34,113.9ZM396.76,97.1a7.42,7.42,0,0,0-7.42,7.41V115a.75.75,0,0,0,.75.74h10.27a.74.74,0,0,0,.74-.74v-4a.74.74,0,0,1,.74-.74H408a.74.74,0,0,1,.74.74v4a.74.74,0,0,0,.74.74h9.74a.74.74,0,0,0,.74-.74V97.84a.74.74,0,0,0-.74-.74Z"/><path class="cls-2" d="M408.51,103.75a.45.45,0,0,1-.45.45h-6.31a.45.45,0,0,1-.45-.45v-.12a.45.45,0,0,1,.45-.45h6.31a.45.45,0,0,1,.45.45Zm-9.26-1.43v2.74a.74.74,0,0,0,.74.74h9.83a.74.74,0,0,0,.74-.74v-2.74a.74.74,0,0,0-.74-.74H400A.74.74,0,0,0,399.25,102.32Z"/><path class="cls-2" d="M434.33,107.15v-3a.74.74,0,0,1,.74-.74h5.66a.74.74,0,0,1,.74.74v1.13a.75.75,0,0,1-.51.71l-5.66,1.84A.74.74,0,0,1,434.33,107.15Zm-1.86-4.83v7.08a.75.75,0,0,0,.75.74h1a.85.85,0,0,0,.23,0l8.37-2.76a.73.73,0,0,0,.51-.7v-4.33a.74.74,0,0,0-.74-.74h-9.36A.75.75,0,0,0,432.47,102.32Z"/><path class="cls-2" d="M425.56,99H446a5,5,0,0,1,5,5,7,7,0,0,1-2.19,5.45l-13.87,4.5a.57.57,0,0,1-.22,0h-9.13a.74.74,0,0,1-.74-.74V99.69A.74.74,0,0,1,425.56,99Zm27.27,4.82A6.82,6.82,0,0,0,446,97.1H423.71a.75.75,0,0,0-.75.74V115a.75.75,0,0,0,.75.74h11.37a.85.85,0,0,0,.23,0l14.76-4.84A9,9,0,0,0,452.83,103.77Z"/></g></g></svg>