<svg xmlns="http://www.w3.org/2000/svg" viewBox="0 0 460 113.35"><defs><style>.cls-1{fill-rule:evenodd;}</style></defs><g id="Layer_2" data-name="Layer 2"><g id="Layer_1-2" data-name="Layer 1"><path class="cls-1" d="M428.52,97.17a.8.8,0,0,0-.8.8v14.58a.8.8,0,0,0,.8.8h9.88a.73.73,0,0,0,.25,0l15-4.87a7.54,7.54,0,0,0,2.37-5.9,5.4,5.4,0,0,0-5.4-5.37Zm7.49,3.65a.8.8,0,0,1,.8-.8H447a.8.8,0,0,1,.8.8v4.69a.8.8,0,0,1-.55.76l-9.07,3a1,1,0,0,1-.25,0h-1.07a.8.8,0,0,1-.8-.81ZM338.8,113.25a.79.79,0,0,0,.4.1H349a.4.4,0,0,0,.2-.75l-7.05-4a.8.8,0,0,1,.4-1.5h1.94a4.84,4.84,0,0,0,3.86-2.53c2.08-3.53-1.8-7.35-5.33-7.35H320.4a.8.8,0,0,0-.8.8v14.56a.8.8,0,0,0,.8.81h6.88a.8.8,0,0,0,.8-.81v-4a.8.8,0,0,1,.8-.81H329a.8.8,0,0,1,.4.11ZM338.44,100a1.9,1.9,0,0,1,1.9,1.9v.72a1.9,1.9,0,0,1-1.9,1.9h-9.56a.8.8,0,0,1-.8-.8v-2.92a.8.8,0,0,1,.8-.8Zm39.9-2.85h-16.7a6,6,0,0,0-6,6v4.14a6,6,0,0,0,6,6h16.7a6,6,0,0,0,6-6v-4.14A6,6,0,0,0,378.34,97.17Zm-14,3.65a.8.8,0,0,1,.8-.8h10a.8.8,0,0,1,.8.8v8.82a.8.8,0,0,1-.8.8h-10a.8.8,0,0,1-.8-.8Zm55.28,12.53a.8.8,0,0,0,.81-.8V98a.8.8,0,0,0-.81-.8H397.35a6,6,0,0,0-6,6v9.36a.8.8,0,0,0,.8.8h7.11a.8.8,0,0,0,.8-.8v-4.32a.8.8,0,0,1,.8-.8h10.64a.8.8,0,0,1,.81.8v4.32a.8.8,0,0,0,.8.8ZM400,100.82a.8.8,0,0,1,.8-.8h10.64a.8.8,0,0,1,.81.8v3a.8.8,0,0,1-.81.8H400.84a.8.8,0,0,1-.8-.8ZM216.32,97.17h-16.7a6,6,0,0,0-6,6v4.14a6,6,0,0,0,6,6h16.7a6,6,0,0,0,6-6v-4.14A6,6,0,0,0,216.32,97.17Zm-14,3.65a.8.8,0,0,1,.81-.8h10a.8.8,0,0,1,.8.8v8.82a.8.8,0,0,1-.8.8h-10a.8.8,0,0,1-.81-.8Zm35.64-.48v4a.49.49,0,0,0,.49.49h19.28a.48.48,0,0,1,.49.48v1.61a.49.49,0,0,1-.49.49H238.44a.49.49,0,0,0-.49.49v5a.48.48,0,0,1-.48.48h-7.78a.48.48,0,0,1-.49-.48v-9.68a6,6,0,0,1,6-6h22.5a.49.49,0,0,1,.49.49v1.71a.48.48,0,0,1-.49.48H238.44A.49.49,0,0,0,238,100.34Zm35.85,0v4a.49.49,0,0,0,.49.49h19.28a.48.48,0,0,1,.49.48v1.61a.49.49,0,0,1-.49.49H274.29a.49.49,0,0,0-.49.49v5a.47.47,0,0,1-.48.48h-7.78a.48.48,0,0,1-.49-.48v-9.68a6,6,0,0,1,6-6h22.5a.49.49,0,0,1,.49.49v1.71a.48.48,0,0,1-.49.48H274.29A.49.49,0,0,0,273.8,100.34ZM0,100.3V13.61L25.69.5H194.56l30.35,22.67,30.71-23h57.65L256.38,44.85l56.11,42-60.19,0L224.92,66.33,197.56,86.85l-57.54,0,56-42L148.44,9.18V27.07H64.12v4h80.14v26.7H63.94V100.3Zm7.31-7.47V18.07L27.4,8H141v5H36.32L23.77,19.63v73.2ZM301.77,67h95.79V87.33l54,0c0-6.63,0-13.76,0-20.36H460V38.05l-8.48,0V0L397.86.06,301.77,27.48Zm67.07-29.13,28.64-8.19v8.19Zm51,41.56V7.33H402L311.06,32.91V56.52l7.32-6.7h99.4l-12.91,6.83V79.42Zm-15-59.55v24.5H339.63l-21.25,4.44V35L399.54,11.9h18.24Zm39.18,25.21-23,4.74h30.5V45.1h-7.47ZM162.35,79.42l46.24-34.74h11.74L174,79.42Zm125.23,0L241.35,44.68H229.61l46.31,34.75ZM136.84,43.18H28L28,43l28.8-4.51h80.08v4.7ZM27.4,8h0ZM225,42,270.71,7.58H259L225,33.15,190.89,7.58H179.22Z"/></g></g></svg>