<svg xmlns="http://www.w3.org/2000/svg" viewBox="0 0 460 103.1"><defs><style>.cls-1{fill-rule:evenodd;}</style></defs><g id="Layer_2" data-name="Layer 2"><g id="Layer_1-2" data-name="Layer 1"><path class="cls-1" d="M405.48,26.62V39.47H366.05ZM216,38.68h13.37L187.32,66.17h-14Zm45.61,1h-6.37l41.22,26.51h5.89Zm-123-1.25H54.21L32.05,43.09V44H138.67Zm182.64,28h83.78V79.25a1.64,1.64,0,0,0,1.63,1.64L451,81.2a1.65,1.65,0,0,0,1.65-1.65V66.36h5.7A1.64,1.64,0,0,0,460,64.72v-24a1.64,1.64,0,0,0-1.64-1.64h-5.7V1.69A1.69,1.69,0,0,0,451,0H400.86a2.53,2.53,0,0,0-.77.12L313.54,28a2.44,2.44,0,0,0-1.71,2.35V60.18L280,39.43l45.2-29.13a2.41,2.41,0,0,0,1.13-2.07V1.64A1.64,1.64,0,0,0,324.73,0H260.07a2.31,2.31,0,0,0-1.37.42L236.14,15.61,213.62.42A2.34,2.34,0,0,0,212.24,0H22.56a2.32,2.32,0,0,0-1,.23L1.43,9.53A2.41,2.41,0,0,0,0,11.77v88.84a1.63,1.63,0,0,0,1.64,1.64H60.93a1.63,1.63,0,0,0,1.64-1.64V67h84.18a1.64,1.64,0,0,0,1.64-1.64V35.19a1.64,1.64,0,0,0-1.64-1.64H62.57V28.29h86.82A1.64,1.64,0,0,0,151,26.65v-18l48,30.82L150.77,70.92a1.23,1.23,0,0,0,.09,2.12l13.59,7.23a2.38,2.38,0,0,0,1.16.29h50.54a2.33,2.33,0,0,0,1.37-.42l25.44-17,26.16,17a2.37,2.37,0,0,0,1.34.4H323.1a1.64,1.64,0,0,0,1.64-1.64V68.61ZM141.21,9.13H25.5l-16,7.75V88H26.12V23.41a2.06,2.06,0,0,1,1.19-1.9l12.88-6.12a2,2,0,0,1,.9-.2H141.21Zm60.13-.06h6.12L234,26.76a.91.91,0,0,0,1,0L261.26,9.07h13.48L238.18,33.34Zm218.42,38H327.17a1.52,1.52,0,0,0-1.06.41l-9.53,8.67V30.76L401,3.72h21.52V72.18H410.11v-16l10-6.94a.73.73,0,0,0,.33-.62V47.7A.64.64,0,0,0,419.76,47.06Zm-93.25-3V33.75a.63.63,0,0,1,.44-.61L398.49,10A1.31,1.31,0,0,1,399,10h20.79a.64.64,0,0,1,.64.64v.58a.73.73,0,0,1-.43.67L410,16.74V42.15a.64.64,0,0,1-.64.64H344.67l-17.45,1.88A.64.64,0,0,1,326.51,44ZM455,42.57v4.65H428.29V45.89l19-3.32Z"/><path class="cls-1" d="M272.15,90.8h-14.7a3.6,3.6,0,0,0-3.6,3.61v5.18a3.52,3.52,0,0,0,3.6,3.51h14.09c2,0,4.22-1.52,4.22-3.51V94.41A3.6,3.6,0,0,0,272.15,90.8Zm-3.44,2.06H260.9a.66.66,0,0,0-.66.65v6.73a.66.66,0,0,0,.66.65h7.81a.65.65,0,0,0,.65-.65V93.51A.65.65,0,0,0,268.71,92.86Z"/><path class="cls-1" d="M395.33,90.8h-14.7a3.6,3.6,0,0,0-3.6,3.61v5.18a3.52,3.52,0,0,0,3.6,3.51h14.09c2,0,4.22-1.52,4.22-3.51V94.41A3.6,3.6,0,0,0,395.33,90.8Zm-3.44,2.06h-7.81a.66.66,0,0,0-.66.65v6.73a.66.66,0,0,0,.66.65h7.81a.65.65,0,0,0,.65-.65V93.51A.65.65,0,0,0,391.89,92.86Z"/><path class="cls-1" d="M446.65,92.86h-8.47V102h8.47a.65.65,0,0,0,.65-.65V93.51A.65.65,0,0,0,446.65,92.86Zm3.44-2.06H432.38a.5.5,0,0,0-.5.49V102.6a.5.5,0,0,0,.5.5h17.1c2,0,4.22-1.52,4.22-3.51V94.41A3.61,3.61,0,0,0,450.09,90.8Z"/><path class="cls-1" d="M411.53,92.86H420v3.9h-8.91a.21.21,0,0,1-.21-.21v-3A.65.65,0,0,1,411.53,92.86Zm-3.44-2.06H425.8a.5.5,0,0,1,.5.49V102.6a.5.5,0,0,1-.5.5h-5.32a.49.49,0,0,1-.49-.5V98.75h-8.92a.3.3,0,0,0-.3.3v3.55a.49.49,0,0,1-.49.5H405a.49.49,0,0,1-.49-.5V94.41A3.61,3.61,0,0,1,408.09,90.8Z"/><path class="cls-1" d="M364.64,92.86h-8.47v3.9h8.91a.21.21,0,0,0,.21-.21v-3A.65.65,0,0,0,364.64,92.86Zm3.44-2.06H350.37a.49.49,0,0,0-.49.49V102.6a.49.49,0,0,0,.49.5h5.32a.49.49,0,0,0,.49-.5V99.17L363,103a1.09,1.09,0,0,0,.56.15h8.34c.33,0,.4-.36.12-.53l-6.29-3.83h2.74a3.29,3.29,0,0,0,3.21-3.22V94.41A3.6,3.6,0,0,0,368.08,90.8Z"/><path class="cls-1" d="M302.94,98.25V97a.5.5,0,0,0-.49-.5H287.38v-3A.63.63,0,0,1,288,93h14.44a.49.49,0,0,0,.49-.49V91.29a.49.49,0,0,0-.49-.49H284.66a3.61,3.61,0,0,0-3.61,3.61v8.19a.49.49,0,0,0,.49.5h5.35a.49.49,0,0,0,.49-.5V99.37a.62.62,0,0,1,.63-.62h14.44A.49.49,0,0,0,302.94,98.25Z"/><path class="cls-1" d="M330.13,98.25V97a.5.5,0,0,0-.49-.5H314.58v-3a.62.62,0,0,1,.62-.62h14.44a.49.49,0,0,0,.49-.49V91.29a.49.49,0,0,0-.49-.49H311.85a3.6,3.6,0,0,0-3.6,3.61v8.19a.49.49,0,0,0,.49.5h5.35a.49.49,0,0,0,.49-.5V99.37a.62.62,0,0,1,.62-.62h14.44A.49.49,0,0,0,330.13,98.25Z"/></g></g></svg>