<svg xmlns="http://www.w3.org/2000/svg" viewBox="0 0 460 21.23"><defs><style>.cls-1{fill-rule:evenodd;}</style></defs><g id="Layer_2" data-name="Layer 2"><g id="Layer_1-2" data-name="Layer 1"><path d="M321,.56v20.1a.56.56,0,0,0,.56.56h8.48a.57.57,0,0,0,.57-.56V.56a.57.57,0,0,0-.56-.56h-8.49A.56.56,0,0,0,321,.56Z"/><path class="cls-1" d="M92.8,16.31h9.5a2.66,2.66,0,0,1,2,.91l3.12,3.54a1.31,1.31,0,0,0,1,.46H119.1a.15.15,0,0,0,.11,0,.17.17,0,0,0,0-.23L100.72.47a1.33,1.33,0,0,0-1-.46H85.93a1.33,1.33,0,0,0-1,.46L66.39,21a.17.17,0,0,0,0,.23.15.15,0,0,0,.11,0H77.15a1.29,1.29,0,0,0,1-.46l3.13-3.54a2.64,2.64,0,0,1,2-.91Zm0-11.87a1.11,1.11,0,0,1,.84.37l5.92,6.72a.56.56,0,0,1-.41.91H86.46a.56.56,0,0,1-.41-.91L92,4.81A1.1,1.1,0,0,1,92.8,4.44Z"/><path class="cls-1" d="M394.33,4.07a.32.32,0,0,0,.32-.32V.36a.32.32,0,0,0-.32-.32H358.05a3.87,3.87,0,0,0-3.84,3.56V18c0,2,2,3.18,3.85,3.22h36.27a.32.32,0,0,0,.32-.32V17.43a.32.32,0,0,0-.32-.32H366a2.24,2.24,0,0,1-2.24-2.25V6.31A2.24,2.24,0,0,1,366,4.07Z"/><path class="cls-1" d="M265.35,8.7V4.18a.56.56,0,0,1,.56-.56h19a2.82,2.82,0,0,1,0,5.64h-19A.56.56,0,0,1,265.35,8.7Zm22.27,5.53v6.43a.56.56,0,0,0,.56.56h8.36a.56.56,0,0,0,.56-.56V12.11c0-1.79-2.28-2.35-2.28-2.35s2.28-.45,2.28-2.37V2.7c0-1.35-3-2.67-5-2.65H256.34a.56.56,0,0,0-.56.56V20.66a.56.56,0,0,0,.56.56h8.45a.56.56,0,0,0,.56-.56V12.57a.52.52,0,0,1,.46-.56H285.4A2.22,2.22,0,0,1,287.62,14.23Z"/><path class="cls-1" d="M25.72,21.22h4.07A2.79,2.79,0,0,0,31,20.8a3.68,3.68,0,0,0,.9-.77L42.26,7.79V20.66a.56.56,0,0,0,.56.56h8.06a.56.56,0,0,0,.56-.56V.58A.55.55,0,0,0,50.88,0H43c-1,0-3.06.52-3.67,1.21L26.56,16.71a1.18,1.18,0,0,1-1.68,0L12.09,1.24C11.49.55,9.39.06,8.42,0H.56A.55.55,0,0,0,0,.58V20.66a.56.56,0,0,0,.56.56H8.62a.56.56,0,0,0,.56-.56V7.79L19.57,20a3.55,3.55,0,0,0,.91.77,2.7,2.7,0,0,0,1.17.42Z"/><path class="cls-1" d="M156.66,21.22a1.35,1.35,0,0,0,1-.48L176,.32a.15.15,0,0,0,0-.11.17.17,0,0,0-.16-.17H165a1.35,1.35,0,0,0-1,.48L150.32,15.79a1,1,0,0,1-.78.32,1,1,0,0,1-.78-.32L134.81.52a1.36,1.36,0,0,0-1-.48H122.93a.18.18,0,0,0-.17.17.16.16,0,0,0,0,.11l18.26,20.42a1.35,1.35,0,0,0,1,.48Z"/><path class="cls-1" d="M201.4,11.88h27.95a.65.65,0,0,0,.65-.65V8.91a.65.65,0,0,0-.65-.65H201.4a.64.64,0,0,1-.64-.63V4.38a.64.64,0,0,1,.64-.64h30.65a.62.62,0,0,0,.64-.61V.7a.65.65,0,0,0-.64-.65H198.23c-2,0-6.91-.11-6.88,2.85V17.81a2.75,2.75,0,0,0,1.32,2.41,13.23,13.23,0,0,0,5.54,1h33.9a.65.65,0,0,0,.65-.65V18.08a.65.65,0,0,0-.65-.65H201.4a.64.64,0,0,1-.64-.63V12.51A.64.64,0,0,1,201.4,11.88Z"/><path class="cls-1" d="M425.46,13.85,429.35,12a1.08,1.08,0,0,1,1,0l15.93,9.14h13.32a.38.38,0,0,0,.18-.71l-21-11.58a.4.4,0,0,1,0-.7L456.46,1a.48.48,0,0,0-.19-.92h-9.44L425.51,8.92a.29.29,0,0,1-.39-.26V.57a.56.56,0,0,0-.56-.56h-8.15a.56.56,0,0,0-.56.56V20.66a.56.56,0,0,0,.56.56h8.15a.56.56,0,0,0,.56-.56V14.39A.59.59,0,0,1,425.46,13.85Z"/></g></g></svg>